<svg version="1.1" id="Layer_1" xmlns="http://www.w3.org/2000/svg" x="0" y="0" viewBox="0 0 536 448.2" style="enable-background:new 0 0 536 448.2" xml:space="preserve"><style>.st3{fill:#7703fc}.st6{fill:#f2844f}.st7{fill:#e56324}.st8{fill:#f95939}.st15{fill:#4f3e37}.st16{fill:#b95d38}.st17{fill:#15100d}.st18{fill:#cc492f}.st20{fill:#600add}</style><g style="opacity:.35"><path d="M484.6 448.2H51.4C23 448.2 0 425.2 0 396.8V135.6c0-28.4 23-51.4 51.4-51.4h433.2c28.4 0 51.4 23 51.4 51.4v261.2c0 28.4-23 51.4-51.4 51.4z" style="fill:#d6dce5"/></g><path d="M230.9 1c5.2-1.4 10.5-.9 15.8-.6 2.4.3 4.7.9 7 1.5 4.1 1.1 8.5 1.5 12.5 3.3 4.1 1.5 7.9 3.4 11.8 5.4 3.2 1.7 6.1 3.8 9 6 2.4 1.9 4.8 3.9 6.8 6.2 3.6 4.1 7.6 8 10.4 12.7 3.1 5.1 6.4 10.2 8.5 15.8 1.7 5.1 3.7 10.3 4.4 15.7.6 3.4.4 6.9.8 10.3.4 2.6.8 5.2.9 7.8 0 1.7.3 3.4.2 5.2-.2 3.4-.3 6.9-1.5 10.1-.5 1.4-1.1 2.7-1.5 4.2-.3 1.1-.4 2.2-1 3.1-.4.2-1.1.3-1.4-.2-.6-1.2-.4-2.6-.5-3.9-.1-1.2-.1-2.4-.2-3.7 0-.8-1.1-1.1-.9-2 .3-1.7.3-3.4.2-5.1-.4-.1-.8-.3-1.3-.4 0-2.4-.5-4.7-.8-7.1-.5-3.1-1.1-6.3-1.7-9.4-.4.2-.9.4-1.3.5-.7-.5-.6-1.4-.8-2.1-.1-.9-.5-1.7-.9-2.4-3.7-7.3-7.3-14.7-11.8-21.6-.6-.9-1.7-1.4-2.3-2.4-1.5-2.4-2.9-4.7-4.6-7-.7-1-1.5-2-2-3.1-.4-.8-.1-1.6-.2-2.4-1.2-.9-2.2-2.1-3.4-2.9-.7 1-1.6 1.9-2.7 2.4-3.6.9-7.2-1.2-10.8-.5-2 .4-4.1.3-6.1.5-.8.6-1.5 1.4-2.5 1.7-1.8.7-3.9.8-5.8 1-7.2.8-14.4 1.4-21.5 1.8-4.3.1-8.7.1-13 0-1.3-.1-2.6-.2-3.8-.7-.8-.3-1.5-.9-2.1-1.4-1.4.8-2.5 2-4.2 2.3-2 .6-4.1-.6-5.3-2.1-1.1.1-2.1.4-3.2.6-.9 0-1.2.9-1.6 1.5-5.7 9.2-11 18.7-14.8 28.9-1.6 4.1-2.9 8.3-3.9 12.5-1.5 5.8-2.4 11.8-3.2 17.7-.2 1.2-.3 2.5-1 3.6-.5.8-1.3 1.2-2 1.7.2 1.3.9 2.5.8 3.9 0 1.3-1.3 2.5-2.6 2.3-1-.1-1.8-.9-2.3-1.8-1.1-2.1-2-4.4-2.5-6.7-1.4-6.6-2.3-13.3-1.7-20.1.1-4.2.5-8.4 1.1-12.6.4-2.5.9-5.1 1.4-7.6 1.2-5.7 3.2-11.3 5.9-16.5 1.7-3.3 3.4-6.6 5.5-9.7 3.5-5.5 8.2-10.2 13.2-14.2 2-1.7 4.1-3.3 6.4-4.7 1.8-1.1 3.6-2 5.3-3.2 4.3-2.8 8.7-5.3 13.5-7.2 4.2-2.2 8.8-3.7 13.3-4.9z" style="fill:#38312d"/><path class="st3" d="M62.2 422.3c.8 2.4 1.1 5 1.6 7.6.2 1.7 1.1 3.2 2.2 4.4 1.8 1.9 4.2 3.2 6.4 4.7 5.3 3.6 11.1 6.6 17.2 8.5.3.1.5.2.8.3H267c1.3-.3 2.6-.5 3.9-.8 22.1-4.6 44.2-9.7 65.8-16.4 16.4-5.1 32.4-11.3 48.3-17.8 7.8-3.3 15.7-6.7 23.2-10.7 6-3.2 11.8-6.6 17.6-10.1 6.8-4.3 13.6-8.6 19.6-14 3-2.6 5.8-5.3 8.5-8.1 1.5-1.7 2.9-3.5 4.4-5.1.7-.9 2-.4 2.9-1 1.4-1 2.1-2.7 2.1-4.4 0-3.7-.5-7.4-1.7-10.9-1-2.9-2.1-5.8-3.4-8.6-1.5-3.4-3.3-6.6-5.2-9.8-3.8-6.7-7.9-13.4-13.5-18.8-2.2-2.2-4.3-4.4-6.7-6.3-6.4-5.3-13.3-10.1-20.4-14.5-3.1-2-6.2-3.8-9.5-5.5-4.5-2.3-8.8-4.8-13.4-7-2.6-1.2-5.1-2.7-7.7-3.9-2.4-1.1-4.7-2.4-7.1-3.4-3.6-1.5-7-3.3-10.5-4.9-2.1-1.1-4.2-2-6.4-2.9-2.8-1.1-5.6-2.5-8.4-3.6-2.1-.8-4.1-1.8-6.2-2.6-3.5-1.4-6.7-3.2-10.3-4.5-2.8-1-5.5-2.3-8.2-3.6-3.5-1.7-6.7-3.9-9.9-6.1-1.6-1-2.5-2.8-4.1-3.8-.7-.4-1.2-1-2-1.2-1.4-.1-2.4 1.1-3.7 1.3-1.1.1-2.1-.2-3.2-.5-2.3-.7-4.7-1.2-7-2-.6 2.4-1.6 4.7-2.5 7-.5 1.3-1.6 2.4-2.9 2.7-1.5.3-3-.4-4.4-.7-1.7-.5-3.4-1.4-4.1-3.1-.7-1.5.2-3.2-.2-4.7s0-3.1.8-4.4c-3.8-.7-7.5-1.4-11.3-1.8-6.8-.8-13.6-1.4-20.4-1.4-6.7-.1-13.3.6-19.9 1.6-5.6.8-11.2 1.9-16.7 3.2-4.7 1.1-9.4 2.3-13.8 4.1-.9.3-1.6.8-2.5 1-.9-.3-1.7-1-2.7-.8-1.6.1-2.6 1.6-3.5 2.8-1.8 2.3-3.7 4.5-5.7 6.6-2.9 3.2-5.8 6.5-9.2 9.2-3.3 2.9-6.8 5.6-10.2 8.4-3.6 2.8-7.1 5.8-10.8 8.6-7.4 5.6-15 10.6-22.6 16-4.2 2.8-8.2 5.9-12.3 8.8-7.3 5.4-14.5 10.9-21.4 16.9-7.9 6.9-15.9 14-21.5 22.9-.5.8-1.5 1.2-1.8 2.1-.4 1.4-1.3 2.7-1.9 4-1.7 3.2-3.2 6.4-4.6 9.7-.6 1.4-1.1 2.9-1.8 4.3-1.6 4.3-2.3 8.8-3.2 13.3-1.2 5.9-2.1 11.9-2.5 17.9-.5 5.2-.8 10.5-.7 15.7 0 3.2 0 6.4.3 9.6.2 1.7.7 4.1 1.4 6.5z"/><path d="M75.2 340.7c-.4 1.4-1.3 2.7-1.9 4-1.7 3.2-3.2 6.4-4.6 9.7-.6 1.4-1.1 2.9-1.8 4.3.7-2.1 1.5-4.1 2.2-6.2.8-2.4 1.7-4.8 3.1-7 .9-1.7 1.8-3.4 3-4.8z" style="fill:#533f37"/><path class="st3" d="M491.4 447.6c.5-2.1.5-4.2-.2-6.2-2.5-7.7-5-15.4-7.6-23.1-.4-1.2-1-2.4-1.7-3.5-1.8-11.7-4.3-23.2-7.8-34.6-1-3.1-2-6.2-3.1-9.3-.6-1.6-1.2-3.2-1.7-4.8-.8-2.1-1.6-3.7-3-5.5 1 1.3.3.3-.1-.5-1.6-2.9-3.3-5.8-5.1-8.7-1.9-3.1-3.6-6-5.2-8.7-3.8-6.6-13.7-2.1-12 5.1.9 4.1 2.2 8.2 3.6 12.2 0 .1.1.2.1.3-4.2.7-8.5 3.6-9.4 8-.3 1.4-.5 2.7-.7 4h-.1c-5.1.2-9.3 3.4-10.9 8.3-1.1 3.5-1.9 7.1-2.3 10.7-.1 0-.3 0-.4.1-3.9.7-7.7 1.9-11.5 2.9-4.2 1.1-8.4 2.1-12.6 3.1-16.7 4.1-67 15.3-75.5 17-1.1 0-2.2.2-3.2.7-2.5 1-4.6 2.1-6.2 4.3-.4 0-9.6 1-13.7 1.4-8.1.7-16.1 1.3-24.2 1.8-16.3 1-32.6 1.6-48.9 2-32.7.7-65.4.3-98 0-9-.1-18.1.1-27.1-.2-.9 0-1.9-.1-2.8-.2-.3-.1-.7-.1-.8-.1-.8-.2-1.5-.4-2.2-.6.1 0 .1.1.2.2-.1-.1-.2-.1-.3-.2-.2-.1-.3-.1-.5-.2-.1 0-.2-.1-.2-.1l-.3-.3s-.1 0-.1-.1l-.4-.4v-.2c.3-4.1-2.5-7.9-5.9-9.8v-.1c.2-3.5-1.9-7.1-4.8-9.2v-.6c0-2.2-.6-4.3-1.8-6l1.2-8.1c1.8-11.3 3.9-22.6 6.4-33.7 1.2-5.2-1.2-10.5-6.2-12.6-5.3-2.2-10.1.1-13.3 4.4-5 6.6-8.3 14.7-10.8 22.5-2.6 8-4.6 16.1-6.6 24.2-4.2 17-7.6 34.1-10.2 51.4-.2 1.1-.3 2.1-.3 3h448.2zM95.8 422.8c.1.1.3.2.3.3l-.3-.3zm-7.2 11.9c.1-.2.2-.3.2-.5.3-.6.7-.9-.3.6l.1-.1z"/><path d="M96.9 423.3c.1 0 .1 0 0 0-.5-.4-.9-.6-1-.6.1.1.1.1.2.1.2.2.6.4.8.5z" style="fill:#aed4db"/><path class="st6" d="M271.3 30.9c5.7-.7 11.4-1.4 17-2.7 1.8 4.7 4.5 9.1 6.7 13.6 3.2 5.1 5.4 10.8 8.6 15.9 1.5 2.5 2.7 5.1 4.1 7.6 1.2 2.3 2.3 4.6 3 7.1.6 2.2 1.6 4.3 2.1 6.5 1.2 5 2.9 9.9 3.4 15 .2 1.2.2 2.4.6 3.5-.3.2-.7.4-1 .7V97c-.3 0-.6 0-1-.1-.1 1.9-.1 3.7.1 5.6.2 3.4.6 6.8.3 10.3 0 1.5.1 2.9.1 4.4 0 1.8.3 3.6.1 5.3-.3 2.5 0 5-.3 7.4-.2 3.1-.5 6.3-1.2 9.3-.1.4.1.7.2 1.1l-.4-.4c-.7 3.2-1 6.5-1.8 9.7-.5 1.9-.8 3.8-1.5 5.6-.8 2-1.2 4.1-1.8 6.1-.8 2.6-2 5.1-2.8 7.7-.7 2.2-1.6 4.3-2.9 6.2-.7.9-1.2 2-1.7 3-.4 1-1.4 1.3-2.2 1.8-.7-1.6-1.7-3-2.6-4.5-1.4-2.2-2.9-4.4-4.5-6.6-1.6-2-3-4.2-4.7-6.1-1.5-1.7-2.8-3.5-4.4-5.1-1.9-2-4.1-3.5-6.1-5.3-2.1-1.9-4.4-3.7-7.1-4.8-5.1-2-10.7-2.2-16-2.9.1-1.6-.1-3.2-.7-4.7-.2-.4-.6-.8-1.1-.7-.8.3-1.4 1-2.2 1-1.4.1-2.7-.5-4.1-.5-1-.1-2.1.1-3.1.4-.7-.7-1.3-1.4-2-2.1-.8-.8-2-1.2-3.1-1.2-.4.2-.7.5-1 .7.7 1.3 1.3 2.8 2.3 3.9 1.1 1.3 2.4 2.3 3.7 3.3-4.5.1-8.8 1.1-13.1 2.2-3.3.5-6.4 1.9-9.4 3.4-1.3.7-2.6 1.5-3.7 2.4-1.3 1.1-3 1.9-4.2 3.1-2.6 2.6-4.5 5.7-6.6 8.6-2.9 4.5-5.5 9.4-6.5 14.7-.4 1.5-1.1 2.9-1.6 4.4-1.4-1.4-2.5-3.1-3.7-4.7-2.3-3.1-4.8-6-6.5-9.4-1.6-3-3.3-6-4.6-9.2-.7-2.3-1.8-4.4-2.4-6.7-.4-1.4-1.1-2.8-1.5-4.2-1.4-4.7-2.5-9.5-3.6-14.2-1.1-4.6-1.7-9.3-2.3-14-.1-.5-.1-1.1-.2-1.6-.1-2.5-.4-4.9-.3-7.4 0-1.4.1-2.8.1-4.2 0-.6-.4-1-.8-1.4h.2c.2-4.2.5-8.5 1.3-12.6.4-4.3.9-8.7 1.5-13 .4-2.5.6-5.1 1.3-7.6 1.1-4.5 2.9-8.7 4.4-13 2.2-5.8 4-11.8 5.8-17.7.6-2 1-4 1.7-5.9 3.1-1.2 6.4-1.1 9.6-1.3 3.2-.3 6.4-.6 9.6-.7 3.8-.4 7.7.1 11.6 0 5.2.4 10.5.2 15.7.2l9-.6c9.4-1.1 18.8-2.4 28.2-3.5z"/><path class="st7" d="M279.3 91.9c.6-.1 1.3-.4 1.8.2-.1 1-1.2 1.3-1.9 1.7-1.6.7-2.9 1.7-4.3 2.6-2.2 1.3-4.3 2.7-6.3 4.2-2.9 2.4-5.4 5.5-7.1 8.8-2.1 4.3-3.3 8.9-4.3 13.6-.4 1.5-.2 3.2-1 4.6-.4-.1-1.1-.1-1.2-.6-.4-1.5-.7-3-.6-4.6-.2-1.4-.2-2.8-.3-4.1-.4-1.9-.3-4 .4-5.8-.6-.5-1.2-1.2-1.2-2 0-1.8.6-3.6.9-5.3.1-1 .5-1.8 1-2.7.5-.9 0-2.1.8-2.9.9-1 2.3-1.3 3.3-2.1 1.8-1.4 4-1.8 6.2-2.4 1.6-.4 3.1-.9 4.7-1.2.8-.2 1.5.4 2.1.9 2.2-.9 4.5-2.1 7-2.9z"/><path class="st8" d="M316.8 97.4c2.6-1.6 5.7-2 8.7-1.9 3.1-.1 6.4.1 9.2 1.7 1.6.9 2.7 2.4 3.7 3.9 1 1.6 2 3.2 2.5 5 .8 2.6 1.4 5.4 1.3 8.2.1 5.6-.9 11.1-2.9 16.3-2 4.9-3.7 10-6.9 14.2-2.2 2.8-4.5 5.5-7.3 7.7-2.9 2.4-6.2 4.6-9.9 5.3-.6.1-1.2.1-1.8.1 1.3-5 1.9-10.2 2.7-15.4.5-3.3.8-6.7 1.1-10.1.3-3.1.3-6.1.4-9.2.2-2.7.3-5.3.2-8 0-2-.4-3.9-.4-5.9 0-2.3-.9-4.5-1-6.7-.1-1.5-.1-3.1-.7-4.5.5-.3.8-.5 1.1-.7z"/><path d="M314.9 96.9c.3 0 .6 0 1 .1v1c-.3 1.5-.8 3-.9 4.5-.2-1.8-.2-3.7-.1-5.6z" style="fill:#b16a54"/><path class="st8" d="M159.5 107.5c2.5-.8 5.1-2 7.8-1.6 1.4.2 2.9 0 4.1.8.4.4.8.8.8 1.4 0 1.4-.1 2.8-.1 4.2-.1 2.5.3 4.9.3 7.4-.2-1.1-.4-2.3-.5-3.4h-.7c-.1 1.9.2 3.7.3 5.6.2 1.8-.6 3.6-.5 5.4.1 2.4.5 4.8 1 7.2.4 1.8.2 3.7.7 5.4.3 1.2.7 2.4 1 3.6.4 1.4.1 3 .4 4.4 1.6 7.6 4.6 14.7 6.1 22.3-.7.5-1.5 1.1-2.5 1.3-1.7.2-3.3.2-5-.1-2.1-.4-4.2-.8-6.1-1.8-3.4-1.6-6-4.5-8.4-7.3-2.9-3.3-4.5-7.4-6.3-11.4-1.1-2.6-2.2-5.2-3-7.9-.7-2.4-1.1-5-1.6-7.4-.9-4-.9-8.2-.1-12.2 1.1-4.9 3.6-9.9 7.9-12.8 1.3-1.2 2.7-2.5 4.4-3.1z"/><path d="M171.1 116.3h.7c.2 1.1.4 2.3.5 3.4.1.5.1 1.1.2 1.6-.3-.1-.5-.3-.8-.4.1 1.8-.2 3.5-.4 5.2.1 3.2.8 6.3 1.2 9.4.1 1.5 0 2.9.1 4.4-.6-1.8-.4-3.6-.7-5.4-.5-2.4-.9-4.8-1-7.2-.1-1.8.7-3.6.5-5.4-.2-1.9-.4-3.8-.3-5.6z" style="fill:#b15d4e"/><path class="st7" d="M236.2 137.7c.3-.3.6-.5 1-.7 1.1 0 2.3.3 3.1 1.2.7.7 1.3 1.4 2 2.1 1-.3 2-.5 3.1-.4 1.4.1 2.7.6 4.1.5.9 0 1.5-.7 2.2-1 .5 0 .9.3 1.1.7.6 1.5.9 3.1.7 4.7-2.5-.2-5-.5-7.5 0-1.3.3-2.6.1-3.8.2-1.3-1-2.6-2-3.7-3.3-.9-1.2-1.6-2.6-2.3-4z"/><path d="M317.6 109.3c0-2.3-.9-4.5-1-6.7-.1-1.5-.1-3.1-.7-4.5V98c-.3 1.5-.8 3-.9 4.5.2 3.4.5 6.8.3 10.3-.1 1.5.1 2.9.1 4.4 0 1.8.3 3.6.1 5.3-.3 2.5 0 5-.3 7.4-.2 3.1-.5 6.3-1.2 9.3-.1.4.1.7.2 1.1l-.4-.4c-.7 3.2-1 6.5-1.8 9.7-.5 1.9-.8 3.8-1.5 5.6-.8 2-1.2 4.1-1.8 6.1-.8 2.6-2 5.1-2.8 7.7-.7 2.2-1.6 4.3-2.9 6.2-.7.9-1.2 2-1.7 3-.4 1-1.4 1.3-2.2 1.8-.7-1.6-1.7-3-2.6-4.5-1.4-2.2-2.9-4.5-4.5-6.6-1.5-2.1-3-4.2-4.7-6.1-1.5-1.7-2.8-3.5-4.4-5.1-1.9-1.9-4.1-3.5-6.1-5.3-2.1-1.9-4.4-3.7-7.1-4.8-5.1-2-10.7-2.2-16-2.9-2.5-.2-5-.5-7.5 0-1.3.3-2.6.1-3.8.2-4.5.1-8.8 1.1-13.1 2.2-3.3.5-6.4 1.9-9.4 3.4-1.3.7-2.6 1.5-3.7 2.4-1.3 1.1-3 1.9-4.2 3.1-2.6 2.6-4.5 5.7-6.6 8.6-3 4.4-5.5 9.4-6.5 14.7-.4 1.5-1.1 2.9-1.6 4.4-1.4-1.4-2.5-3.1-3.7-4.7-2.3-3-4.8-6-6.5-9.4-1.6-3-3.3-6-4.6-9.2-.7-2.3-1.8-4.4-2.4-6.7-.4-1.4-1.1-2.8-1.5-4.2-1.4-4.7-2.5-9.5-3.6-14.2-1.1-4.6-1.7-9.3-2.3-14-.3-.1-.5-.3-.8-.4.1 1.8-.2 3.5-.4 5.2.1 3.2.8 6.3 1.2 9.4.2 1.5 0 2.9.1 4.4.3 1.2.7 2.4 1 3.6.4 1.4.1 3 .4 4.4 1.6 7.6 4.6 14.7 6.1 22.3.2 1.4.8 2.8 1.2 4.1.4 1.2.8 2.4 1.3 3.5.9 1.4 1.5 2.9 2.3 4.4l2.4 4.5c.9 1.7 1.9 3.3 3 4.8 1.2 1.6 2 3.5 3.2 5.1 2.9 4.1 6.2 8 10.1 11.3 1.8 1.5 3.1 3.4 4.9 4.9 2.3 2 4.6 4.3 7.4 5.6 1.8 1 3.7 1.8 5.5 2.8 4.4 2.1 8.8 4.2 13.4 6 2.1.8 4.4 1.2 6.6 1.5 2 0 3.9-.1 5.9 0 2.5-.6 5.1-.8 7.5-1.5 4.9-1.5 10-2.4 14.9-4.2 1.8-.7 3.3-2 4.9-3.1 3.7-2.5 7.1-5.4 10.7-7.9 1.7-1.4 3.6-2.6 4.9-4.4 1.6-1.9 2.8-4.2 4.5-6.1 1-1.2 2-2.5 2.9-3.8 1.4-2.1 2.4-4.4 3.7-6.5 1.2-1.8 2.3-3.6 3.2-5.5 1-2.1 1.3-4.4 2.3-6.5 1-2.4 1.8-4.8 2.5-7.3 1.5-4.6 2.8-9.3 4.2-14 1.3-5 1.9-10.2 2.7-15.4.5-3.3.8-6.7 1.1-10.1.3-3.1.3-6.1.4-9.2.1-2.7.3-5.3.2-8-.2-1.9-.6-3.9-.5-5.9z" style="fill:#996057"/><path class="st6" d="M253.5 151.8c3.2-.2 6.5-.4 9.7.6 1.5.4 3.1.9 4 2.3 1.2 1.5 1.3 3.6 1 5.4-.4 1.6-1.4 2.9-2.3 4.2-1.7 2.3-4 4-6.6 5.2-2.8 1.3-5.9 2.1-9 2.4-4 .4-8-.1-12-.4-3.3-.2-6.6-1.1-9.7-2.1-2.9-1-5.6-2.6-7.9-4.6-1.4-1.2-2.7-2.9-2.3-4.9.4-1.6 1.7-2.8 3.2-3.5 3.3-1.4 6.9-1.9 10.4-2.3 3.6-.6 7.2-.4 10.7-.9 3.7-.6 7.3-1.2 10.8-1.4zM313.5 157.8c.6 0 1.2 0 1.8-.1-.5.1-1.2 0-1.3.7-.7 2.6-1.2 5.3-1.9 7.9-1.3 5.3-3.3 10.5-5.2 15.6-.2 0-.4-.1-.7-.1v1.9c-.7.5-1.3 1.2-1.8 2 1-2.1 1.3-4.4 2.3-6.5 1-2.4 1.8-4.8 2.5-7.3 1.6-4.7 2.9-9.4 4.3-14.1z"/><path d="M304.3 217c.4-.1.4.5.1.7-.3 0-.4-.6-.1-.7z" style="fill:#ec814b"/><path d="M304.8 220.9c.3 0 .4.2.2.5-.4-.1-.5-.2-.2-.5z" style="fill:#ed8650"/><path d="M241.6 228.7c2 0 3.9-.1 5.9 0-.8.2-1.5.4-2.3.5-1.3 0-2.5-.3-3.6-.5z" style="fill:#be715c"/><path class="st6" d="M255.1 235.6c4.8-.3 9.5-1.6 14.3-1.6 3.9 0 7.9-.1 11.8.1 2.1.1 4.2.7 6.2 1.2 4.3 1 8.4 2.4 12.6 3.7 3 .9 6 2.2 8.9 3.3.5.3 1.2.3 1.8.2-2.7 4.1-5.8 7.9-9.3 11.3-3 2.8-6.3 5.3-9.8 7.3-4.4 2.5-9 4.7-13.8 6.3-5.2 1.6-10.5 2.7-15.9 3.4-2 .2-3.9.4-5.9.5-2.9 0-5.8.2-8.6-.3-5.2-1-10.5-1.7-15.5-3.5-3.2-1.1-6.4-2.1-9.4-3.6-1-.5-2-.9-3-1.4-2.4-1-4.6-2.2-6.8-3.5-2.8-1.8-5.9-3.3-8.4-5.5.9-.2 1.9-.1 2.7.3 1.2.5 2.4 0 3.4-.6 3.9-2.4 7.3-5.7 11.5-7.6 8-4 16.4-7.1 25-9.3 2.6-.7 5.5-.3 8.2-.7z"/><path class="st7" d="M312.3 237.1c-.4-.9-.3-1.9-.4-2.8-1.2-4.2-2-8.5-2.4-12.8-.5-4-1-8-1.6-12-.4-2.3-.3-4.7-.4-7-.3-3.7-.9-7.4-1-11.2-.2-2.5-.3-5.1-.2-7.6-.7.5-1.3 1.2-1.8 2-.9 1.9-2 3.7-3.2 5.5-1.4 2.1-2.3 4.5-3.7 6.5-.9 1.3-1.8 2.6-2.9 3.8-1.6 1.9-2.9 4.1-4.5 6.1-1.3 1.8-3.2 3-4.9 4.4-3.6 2.6-7 5.5-10.7 7.9-1.6 1.1-3 2.4-4.9 3.1-4.8 1.8-9.9 2.8-14.9 4.2-2.5.7-5 .9-7.5 1.5-.8.2-1.5.4-2.3.5-1.2.1-2.4-.3-3.5-.5-2.2-.3-4.5-.7-6.6-1.5-4.6-1.7-9-3.9-13.4-6-1.8-.9-3.7-1.8-5.5-2.8-2.9-1.3-5.1-3.6-7.4-5.6-1.8-1.5-3.1-3.4-4.9-4.9-3.9-3.2-7.2-7.2-10.1-11.3-1.2-1.6-2-3.5-3.2-5.1-1.1-1.6-2.1-3.1-3-4.8l-2.4-4.5c-.8-1.5-1.4-3-2.3-4.4 1 3.3 2.7 6.4 4.2 9.5 1.7 3.4 2 7.2 2.8 10.8.7 2.9.6 5.8 1.1 8.7.3 3.1.7 6.2 1.2 9.3.4 2.9.3 5.9.4 8.8.1 3.9-.8 7.7-1.2 11.5-.1 1.1-.2 2.1-.6 3.2-.2.6-.5 1.2-.2 1.8.2.7 1 .9 1.5 1.4.6.6 1.1 1.3 1.7 2 1.2 1.4 2.8 2.4 4.1 3.8 1.3 1.4 2.9 2.5 4.4 3.7.7.5 1.3 1.2 2.1 1.5.9-.2 1.9-.1 2.7.3 1.2.5 2.4 0 3.4-.6 3.9-2.4 7.3-5.6 11.5-7.6 8-3.9 16.4-7.1 25-9.3 2.7-.8 5.6-.4 8.3-.8 4.8-.3 9.5-1.6 14.3-1.6 3.9 0 7.9-.1 11.8.1 2.1.1 4.2.7 6.2 1.2 4.3 1 8.4 2.4 12.6 3.7 3 .9 6 2.2 8.9 3.3.5.3 1.2.3 1.8.2.4-.9 1-1.7 1.5-2.6.4-1 .4-2.1.1-3z"/><path class="st15" d="M276.4 84.7c4.1-.3 8.4-.3 12.4.6 4.6 1 9.2 2.6 12.6 5.8.6.4 0 1.4-.7 1.4-6.3-.3-12.7-.6-18.9.7-4.2.6-8.3 1.9-12.5 2.8-3.6.8-7.2 1.1-10.7 2.2-.6.2-1.3.5-1.9.3-.7-.6-.9-1.7-.7-2.6.5-1.6 1.3-3.2 2.5-4.4 1.7-1.6 3.7-2.7 5.7-3.6 2-1.1 4.1-1.8 6.3-2 2.1-.2 3.9-1.1 5.9-1.2zM205 88.4c3.2-.8 6.4-1.1 9.7-1 3.4-.1 6.8.4 9.9 1.8 1.6.7 2.6 2.1 3.6 3.5.8 1.2 1.5 2.5 1.4 4-3.4 0-6.8.3-10.3.3-10.7.1-21.3 1.4-31.9 2.8-.4 0-.7-.2-1-.4 2.1-2.8 4.7-5.1 7.7-6.8 3.4-2 7.1-3.2 10.9-4.2z"/><path class="st16" d="M254.1 100.9c.3-.6.9-1 1.5-1.3.1 1.7-1 3-1.3 4.6-.6 2-.4 4.1-.4 6.1-.3-1-.5-2-.5-3.1.1-1.3.3-2.5.4-3.8-.6 1.6-.9 3.2-1.4 4.9-.1-2.4.5-5.1 1.7-7.4z"/><path class="st16" d="M252.4 108.5c.5-1.6.7-3.3 1.4-4.9-.1 1.3-.3 2.5-.4 3.8 0 1 .2 2.1.5 3.1.2.9.3 1.9.4 2.8.3 2.7.8 5.4 1 8.1.2 3.1.7 6.1 1 9.1.2 1.5.3 3.1.2 4.6-.1 1.4-1.1 2.6-2.1 3.4.8-1.3 1.6-2.7 1.6-4.2.1-1.6-.2-3.2-.3-4.8-.3-.1-.5-.2-.7-.2-.2.2-.3.5-.5.7-.9-7.2-2.6-14.3-2.1-21.5z"/><path class="st17" d="M278.9 103.9c1-.2 2.1-.2 2.8.5 1 .7 1.3 2 1.3 3.2-.1 1.6.3 3.4-.8 4.7-1.2 1.6-4 1.5-5-.2-.9-1.6-.9-3.6-.5-5.4.1-1.2 1-2.4 2.2-2.8zM207.9 106.6c.9-.2 1.9-.2 2.7.4s1.1 1.6 1.2 2.6c.2 1.8.8 3.6.3 5.4-.3 1.4-1.6 2.5-3.1 2.6-1.5 0-2.7-1.2-3.1-2.5-.6-2-.5-4.1 0-6.1.3-1.1 1-2 2-2.4z"/><path class="st18" d="M323.2 113.9c.7-.9 2-.9 3-.7 1.6.6 2.3 2.4 2.5 4 .2 2.7-.5 5.3-1.1 7.8-1.6 5.9-3.6 11.7-6.9 16.9-.3 0-.6-.1-.9-.1.5-1.5 1.3-2.9 1.9-4.4 1.8-4.4 3.2-8.9 4-13.5.4-2.5.8-5.2-.2-7.7-.3-.9-1.4-.7-2.2-1-.5-.2-.5-.9-.1-1.3zM165.4 127.8c.7-.6 1.7-.5 2.5-.4.1.4.3.9.2 1.3-.5.7-1.3 1.3-1.7 2.1-.7 1.5-.8 3.2-.8 4.8-.1 3.9 1 7.7 2.2 11.4.8 2.3 1.6 4.5 2.9 6.6.4.5.4 1.1.4 1.7-.6-.2-1.1-.3-1.5-.8-2.4-3-3.9-6.7-5.2-10.3-1.1-3.4-2.4-7-1.9-10.6.4-2.3 1.1-4.6 2.9-5.8z"/><path d="M255 129.3c.2.1.5.2.7.2.2 1.6.4 3.2.3 4.8-.1 1.5-.8 2.9-1.6 4.2-.8.9-1.9 1.5-3 2-1.5.7-3.1.2-4.6.2-2 0-4-.5-6-.8-1.9-.3-3.3-1.7-5-2.4.1-.4.2-.7.3-1.1.9.1 1.7.4 2.6.5 1 0 2 .5 3 .7 3.3.6 6.7 1.1 9.9.1 1-.4 2.4-.7 2.6-2 .3-1.9.5-3.8.3-5.7.1-.3.3-.5.5-.7z" style="fill:#b75c38"/><path class="st20" d="M192 254.3c1.5 1.4 3 2.6 4.5 4 1.7 1.6 3.5 3 5.4 4.4 4 2.8 8.3 5.3 12.7 7.4 1.5.7 3 1.7 4.6 2.3 1.3.5 2.5 1.2 3.8 1.6 1 .6 2.2 1.4 3.4 1-.5-.8-1.1-1.7-2-2.1-.9-.5-2-.9-3-1.3-5.1-2.8-10.3-5.6-15.3-8.7-3.2-2.1-6.5-4.2-9.4-6.8-.3-.3-.6-.5-1-.6-.9-1.1-2.2-1.8-3.3-2.7-.8-.7-1.6-1.3-2.5-1.9v1.1c0 1.1 1.4 1.6 2.1 2.3zM189.8 259.6c3.2 3.2 6.9 5.8 10.6 8.3 4.1 2.7 8.2 5.3 12.5 7.6 1.3.7 2.5 1.7 4 2.1.5.3.9.5 1.5.7.2-.4.4-.8.5-1.2.8.3 1.5.5 2.3.7-.7-.9-1.7-1.5-2.8-1.7-3-1.6-6.1-3.1-8.9-5.1-1.2-.9-2.7-1.2-3.9-2-4.3-2.9-8.7-5.6-12.9-8.7-1-.7-1.7-1.7-2.8-2.3-1.1 0-.6 1.3-.1 1.6zM279 291.7c1.3-.1 2.7-.1 3.9-.8.1-.4.1-.8.2-1.2-2.7-.1-5.4 0-8.1.3s-5.4.9-8.1 1.4c-3.3.5-6.6.5-10 .6-2.3 0-4.6-.5-7-.6-3.1-.2-6.4-.6-9.5.1-1 .1-2 .4-2.4 1.4 1 .1 1.9.1 2.9.1 5.3.9 10.6 1.6 15.9 2.5 1.9.3 3.7.5 5.6.2 2.7-.3 5.3-1.2 8-2.1 2.8-.8 5.7-1.4 8.6-1.9zM374.5 304.8c1.7 1.4 3 3.2 4.6 4.8 1.5 1.5 2.7 3.2 3.8 5.1 1.4 2.4 3 4.6 4.9 6.6 2.3 2.6 5.1 4.7 8.3 6v-1.1c-2.7-1.7-5.1-3.8-7.1-6.4-2.3-3-3.4-6.6-5.8-9.5-1.6-1.9-3.5-3.5-5.5-5-1.3-1-2.6-2.2-4.4-1.9.4.5.7 1 1.2 1.4zM234.7 318.7c3.3.7 6.7 1.3 10 .3.1-.2.3-.5.4-.7-.4-.3-.7-.8-1.2-.7-2.2.3-4.4-.2-6.6-.7-5.1-1.3-10-3.2-14.7-5.5-2.1-1.1-4.6-1.5-6.9-1.1-1.5 0-3 .1-4.4.6.2.3.3.7.7.8.9.3 1.9.3 2.9.3 1.2.2 2.5.1 3.7.5 1.9.5 3.5 1.7 5.2 2.7 3.4 1.7 7.2 2.6 10.9 3.5zM293.8 312.4c-5.2 1.8-10.6 3.3-16.1 4.3-2 .4-4.1.6-6.1 1.2-.6.1-1.2.3-1.8.5.6.7 1.4 1 2.3 1 4.3.5 8.5-.5 12.5-1.9 4.5-1.6 9-3.1 13.1-5.6v-1.1c-1.4.4-2.6 1.1-3.9 1.6zM324.5 322.5c-.7 1.8-1.3 3.6-2.1 5.3-.7 1.6-1.9 2.8-3 4.2-1.1 1.5-2.6 2.6-3.9 4-1.5 1.6-3.1 3.1-4.3 5-1.3 2-1.9 4.3-2.6 6.5-1.2 4.5-3.1 8.8-5.2 12.9-.6 1.4-1.6 2.5-2 4 .6.1 1.2 0 1.5-.6 2-2.6 3.5-5.6 5-8.5 1.9-3.6 3.3-7.5 5-11.2 1-2.2 2.7-3.9 4.2-5.6 2.9-3.1 5.4-6.7 6.9-10.7.6-1.7 1.3-3.6 1.2-5.5-.1.1-.4.2-.7.2zM396.1 403.5c-.2-3.6-.3-7.2-.3-10.7 0-5.2-.1-10.5.1-15.7 0-1.6.4-3.2.1-4.8-1.1.5-2 1.4-2.2 2.6-.7 3.7-.9 7.5-1 11.3-.2 4.8.3 9.5 1 14.3.2 1.8.9 3.6 1.2 5.4-.1.1-.3.4-.4.6-.7-1.2-1.6-2.3-2.2-3.5-2.1-4-3.1-8.4-4.6-12.5-.4-1.9-1.1-3.7-1.4-5.6-.3 0-.6-.1-.8-.1-1.2-3.9-2-8-2.7-12-.2-.7-.2-1.6-.8-2.1-.8.1-.9 1-.8 1.6.1 1.1-.3 2.1-.2 3.2.5 4.2 1.7 8.2 2.8 12.2-3.4-2.7-7.6-4.3-10.6-7.6-.4-.5-1-.8-1.6-1v1.4c-.9-.4-1.9-.7-3-.8-.1.2-.2.5-.3.7.8.5 1.7 1 2.6 1.5.7.4 1.1 1.3 1.9 1.7 3.3 1.7 6.5 3.6 9.5 5.8 1.2.8 2.5 1.7 3 3.1 1.3 3.4 3 6.7 4.8 10 .6 1 1.1 2.1 1.9 3 .7.8 1.6 1.5 2.2 2.4.7.6 1.3-.3 1.8-.8.3-1.4.1-2.5 0-3.6zM206.3 378.5c-.9-.8-2-1.4-3-2.1-1.1-.9-2.5-1.3-3.6-2.3-1.1-1.1-2.6-1.6-3.8-2.6-2.8-2.5-5.4-5.3-7.6-8.4-1.5-2-2.8-4.3-5-5.6-1.4-.8-2.9-1.4-4.5-1.5-1.1-.8-2.4-1.5-3.8-1.5 0 .2 0 .6-.1.7 1.4.5 2.7 1.3 3.8 2.2.9.7 1.9 1.1 2.8 1.9 1.5 1.2 2.4 2.9 3.4 4.5 1.5 2.4 3.1 4.7 5 6.8 1.3 1.4 2.9 2.4 4.4 3.4 1.6 1.1 3.2 2 5 2.9.7.3 1.4.8 2.2.8 1.7-.2 2.8 1.4 4.2 2.1 1.6.8 3.1 1.7 4.6 2.8 0-.5.1-1-.3-1.3-1-1.2-2.3-2.1-3.7-2.8zM123 424.9c.1 2.9-.2 5.9-.5 8.8-.1 3.3-.4 6.6-.7 9.8-.1 1.3 0 2.7 0 4.1h2.5c.3-1.8.4-3.7.6-5.5.5-6.2.8-12.5 1.9-18.6.5-1.8 1.2-3.5 1.9-5.3 2.2-5.7 4.7-11.3 7.6-16.8.8-1.6 2-3.1 2.3-4.9-.3 0-.6-.1-.9-.1-2.1 1.9-3.4 4.4-4.7 6.8-1.7 3.1-3 6.5-4.1 9.8-1 2.7-1.7 5.6-3.3 8.1-.1-4.7-.2-9.4-.7-14.1-.6-5.7-1.4-11.4-2.6-17-.6-2.4-1.1-4.9-2.3-7-.2-.5-.8-.6-1.2-.8 0 1.4.4 2.8.7 4.2 2.1 12.9 3.3 25.7 3.5 38.5zM316.4 411.1c-3 1.7-6.4 3-8.6 5.9-.8 1-1.7 2.1-1.5 3.4.2.4.9.3 1.2 0 .7-.7 1.4-1.6 2.1-2.3 1.7-1.5 3.6-2.6 5.5-3.9 2.4-1.7 4.9-3.2 7.1-5.2.9-.8 2-1.7 2.1-3.1-.6.1-1.2.4-1.6.9-1.8 1.9-4.1 3.1-6.3 4.3zM130.3 447.6c1-4.4 2.2-8.7 3.6-13 1.6-5.1 3.1-10.3 4.7-15.4.8-2.5 1.9-4.9 2.7-7.4-.5 0-1.1-.1-1.3.5-1.5 2.4-2.6 5.1-3.9 7.7-.8 2-1.8 3.8-2.4 5.8 0-.2-.1-.4-.1-.6l-.3 2.1c-.1-.1-.1-.2-.2-.3l-.3 1.8c0-.1-.1-.2-.1-.3-.6 2.6-1.3 5.1-2.1 7.6-1 3.5-1.8 7.1-2.6 10.7-.1.3-.1.6-.2.9h2.5v-.1zM247.1 413.2c-2.6 1.7-5.7 2.6-8.7 3.3-2.2.5-4.5.6-6.5 1.6-1.9.9-3.8 1.9-5.5 3.1-2.3 1.8-3.7 4.5-5.8 6.4-.5.5-1 1.1-1 1.9.4-.1.8-.1 1.2-.2 3.6-1.6 5.9-5.1 9.6-6.5 2.7-1.3 5.6-2.3 8.5-3.3 3.4-1.3 6.9-2.6 9.7-5.1.5-.4.4-1 .3-1.6-.7-.2-1.3.1-1.8.4z"/><path d="M262.7 65c.6-.1 1.3-.1 1.9-.1 0 .3 0 .5-.1.8-2.6 1-5.3 1.5-8 2.1-4.2 1-8.5 1.6-12.8 1.8-3.3.3-6.7.6-10 .1-1.7-.3-3.3-.2-5-.2-1.2 0-2.5-.5-3.7-.2-1.3.3-2.6.7-4 .8.8-.7 1.8-1 2.7-1.5 1.1-.6 2.5-.7 3.7-1.3 1.3-.7 2.8-1.2 4.3-1.6 2.2-.6 4.4-.6 6.6-.6 3.8 0 7.7.1 11.5.4 4.4.5 8.8.4 12.9-.5z" style="fill:#fcb390"/><path d="M245.8 81.6c5.3-.6 10.5-2.2 15.8-3.1 0 .1.1.4.1.5-2.2.9-4.5 1.5-6.7 2.2-2.4.8-4.9 1.2-7.4 1.7-2.9.5-5.9.9-8.8.6-2.6-.3-5.3-.1-7.9-.2-.6 0-1.2-.2-1.7-.5 1.1-.4 2.3-.1 3.4-.5.6-.2 1.2-.3 1.8-.3 3.7 0 7.6 0 11.4-.4z" style="fill:#fbb28f"/><path d="M209.5 81.9c2.4-.3 4.7-.2 7.1-.1.7 0 1.5.2 1.7.9-7.2.3-14.3 2.2-21.3 3.8 0-.1 0-.4.1-.5 1.7-.8 3.3-2 5.1-2.6 2.2-1.3 4.8-1.4 7.3-1.5z" style="fill:#fbb18d"/><path d="M247 109.7c.1 0 .2.1.3.1.2 1.1.8 2.1.9 3.2.1 2.1.5 4.2.8 6.4.4 2.5.6 5 1.2 7.5-.2.3-.5.5-.7.8-.4-.6-.8-1.1-1-1.8-1.3-5.4-2.2-10.8-1.5-16.2z" style="fill:#fcb28f"/><path class="st7" d="M290.5 114.5c.3-.1.7 0 1 .1-1.5 1.4-3.9 1.5-5.1 3.1-.7.5-1.7.5-2.5.6-2.6.1-5 1.3-7.6 1-1.3 0-2.3-1-3.6-1.2-.9-.2-1.9-.6-2.6-1.2 1.9-.6 4-.4 6-.1 3.9.5 7.9-.4 11.5-1.7.9-.3 1.9-.3 2.9-.6zM216.6 119.2c1-.1 2.1-.6 3.1-.1-1.1 1.1-2.6 1.2-4 1.7-2.7.9-5.6 1.4-8.4 1.6-3.3.3-6.4-.7-9.7-1v-.8c3.7-.8 7.4-.1 11.2-.3 2.7.1 5.2-.9 7.8-1.1z"/><path class="st8" d="M286.9 119c2.9-.5 5.9.3 8.4 1.7 3.1 1.7 5.8 4.3 6.7 7.8.7 2.9.5 6-.4 8.8-1.2 3.6-4 6.5-7.2 8.4-2.4 1.3-5.3 1.7-8 1.5-6.9-.2-13.2-6.2-13.6-13.1 0-4.5 2.5-8.8 6.3-11.3 2.3-1.7 4.9-3.2 7.8-3.8zM205.2 123.3c2-.2 4.1-.2 5.9.7 1.9.9 3.9 1.7 5.3 3.3 2.4 2.6 4 6.1 3.9 9.6-.2 2.7-.6 5.5-1.9 7.9-1.9 3.4-5.4 5.8-9.1 6.6-3.1.7-6.3.5-9.4-.3-2.2-.6-4.1-2-5.7-3.6-2.7-2.7-4.1-6.6-3.7-10.4.2-2.5 1.3-4.8 2.7-6.9 1.1-1.5 2.4-2.9 4.1-3.8 1.1-.6 2.4-.7 3.5-1.4 1.3-1 2.8-1.5 4.4-1.7z"/><path d="M254.8 156.3c1.3-.1 2.5-.1 3.8-.3 1.6-.2 3.2-.1 4.7.5 1.1.4 1.8 1.7 1.5 2.9-.2.8-.7 1.6-1.2 2.3-.8 1-2.1 1.5-3 2.5-2.4 2.5-5.9 3.6-9.2 4.2-4.4.7-9 1.2-13.4.5-2.1-.3-4.1-1-6.2-1.4-3.2-.7-6.5-2.1-8.7-4.6-.8-.8-.7-1.9-.6-2.9.1-.4.4-.6.8-.8 1.4-.6 3-.7 4.5-.9 2.8-.5 5.7-.5 8.6-.8 2.8-.3 5.6-.5 8.4-.6 3.2-.4 6.6-.5 10-.6z" style="fill:#fff"/></svg>