<svg version="1.1" id="Layer_1" xmlns="http://www.w3.org/2000/svg" x="0" y="0" viewBox="0 0 536 448.2" style="enable-background:new 0 0 536 448.2" xml:space="preserve"><style>.st2{fill:#fff0cf}.st3{fill:#ba9f80}.st5{fill:#f2844f}.st6{fill:#e56324}.st7{fill:#f95939}.st10{fill:#c1af84}.st15{fill:#d3c7ad}.st20{fill:#b65a35}.st23{fill:#160e0b}.st25{fill:#b95d38}.st54{fill:#150f0c}</style><g style="opacity:.35"><path d="M484.6 448.2H51.4C23 448.2 0 425.2 0 396.8V135.6c0-28.4 23-51.4 51.4-51.4h433.2c28.4 0 51.4 23 51.4 51.4v261.2c0 28.4-23 51.4-51.4 51.4z" style="fill:#d6dce5"/></g><path class="st2" d="M290.5 12.5c5.6-1 11.3-1.1 16.9-.6 7.6.3 15.2.8 22.5 2.8 5.1 1 10.2 2.3 14.7 4.8 1.8 1 3.3 2.6 4.7 4.1 2.2 2.5 4.9 4.6 6.8 7.5 2.3.3 4.6.5 6.8 1.2 1.8.5 3.5 1.3 5.2 1.9 2 .6 3.8 1.7 5.7 2.6 1.7.9 3.2 2.1 4.6 3.2 2.4 1.8 4.6 3.8 6.5 6.1 2 2.2 3.8 4.5 5.4 7 1 1.8 2.3 3.5 3.1 5.4 1.5 3.2 2.8 6.6 3.9 10 2 5.2 3 10.6 4.3 16 .6 2.6 1.5 5.1 1.9 7.8.8 3.8 1.6 7.5 2.4 11.3.6 2.9.9 5.9 1.5 8.9.9 6.3 1 12.7.8 19.1-.6 6.5-1.5 12.9-2.4 19.4-.5 3.1-1.2 6.1-1.8 9.1-1.6 6-3.2 11.9-5.2 17.8-3.7 11-7.6 21.9-11.1 33-1.6 5.5-3.4 11-5.2 16.5-.7 2.9-1.9 5.6-2.6 8.4-1.6 5.3-3.4 10.5-4.7 15.9-.6 3-1.5 6-1.7 9-.5 3.9-.9 7.8-1.2 11.7v10.8c0 1.9-.2 3.9.4 5.8 1.1 3.8 2.4 7.6 3.8 11.3.8 3.2 2.1 6.3 3.3 9.4.4 1.4 1 2.8 1.4 4.2l-.9-.6c-.3.1-.6.1-.9.2-.7-1.5-1.3-3.1-1.8-4.7-2.3-1.1-4.7-1.7-6.9-2.9-2.3-1-4.9-1.3-7.3-2.1-6.3-1.7-12.7-2.8-19.2-3.5-13.6-1.7-27.3-3.3-40.8-5.6-11.9-2-23.8-4.2-35.6-7.2-5.5-1.4-10.9-3.1-16.3-4.9.1 1.9-1.5 3.1-2.7 4.3-4.4 3.9-8.9 7.6-13.6 11.1-1.3.8-2.5 1.9-4 2.2-1.1.1-1.8-.7-2.2-1.6-.3-.1-.5-.2-.8-.3-.9.9-2.5 1-3.3-.2 1.9-.3 3.7-.8 5.5-1.6.4.5.8 1.2 1.5 1.4 1.6.4 3.2-.7 4.4-1.6 2.6-2 4.7-4.4 6.9-6.8.6-.6 1.7-.5 2-1.3.7-1.4 1.3-2.8 2.3-4 2.3-2.9 4.1-6.1 6.1-9.3 2.2-4.6 4.1-9.5 5.6-14.4.2-.8.9-1.3 1.3-2 .5-1.3.5-2.8 1.2-4 .9-1.7.8-3.7 1.2-5.6 1-5.6 2.5-11.2 2.8-17 .2-2.1.8-4.1 1.2-6.1.2-1-.1-2 0-3 .2-2.2.7-4.4.9-6.6.1-.6-.4-1-.7-1.5h-1.4c.4-3.5 0-7.1 0-10.7-.1-5.3-.3-10.6-.4-16h-.5c-.3 1.1-.2 2.3-.3 3.4-.3 3.2-.2 6.4-.3 9.6-.2 5.3 0 10.6-.7 15.9-.4 4.3-1.4 8.5-2.3 12.7-1 4.1-2 8.2-3.5 12.1-1.6 4.7-3.5 9.2-5.4 13.8-2.2 5.2-4.8 10.2-7.9 14.8-2.7 3.9-5.8 7.6-9.3 10.7-1.7 1.3-3.5 2.6-5.4 3.7-2.3 1.2-4.7 2.3-7.1 3.3-3.4 1.3-7.1 1.5-10.8 1.7-1.5 0-3-.4-4.3-1-2.4-.9-4.5-2.4-6.2-4.3-1.9-3.3-2.5-7.2-2.3-11 .4-1.4.7-2.8 1.4-4.1 2.1-4.2 5.2-7.8 7.7-11.8 1.6-2.3 2.8-4.8 4-7.2 1.3-2.3 2.1-4.8 3.1-7.2.9-2.4 1.7-4.7 2.4-7.2.5-2.4 1-4.8 1.2-7.3.2-5.8 0-11.6-.8-17.3-.4-4.1-1.2-8.1-2-12.1-1.4-8.1-2.7-16.2-3.9-24.4-1.3-7.6-2.3-15.3-2.6-23-.1-4.3-.4-8.6-.3-12.9.2-5.7.1-11.3.6-17 .4-2.9.4-5.9.8-8.8.5-6.7 1.8-13.3 3.3-19.8 1-5 2.5-9.8 4.1-14.6.7-2.4 1.7-4.7 2.4-7.2 1.2-3.2 2.5-6.2 3.8-9.4 1.9-4.3 3.7-8.7 6.4-12.6 1.8-3.1 4-6 6.4-8.6 2.3-2.7 4.8-5.3 7.6-7.5 2.9-2.8 6.6-4.7 9.9-7.1 3.2-2 6.4-4 9.9-5.5 2.8-1.4 5.6-2.6 8.4-3.9 2.7-.9 5.3-2 8-2.7 3.1-.4 6.3-1.3 9.7-1.7z"/><path class="st3" d="M274.2 59.3c1.5-.4 3.1-.9 4.7-.7-2.2 1.5-4.9 2.1-7.3 3.1.6 1.4.5 2.9.5 4.4-.1 3.7-.3 7.3-.2 11-1 17.2-5.1 34-7.3 51-.6 4.2-1.3 8.4-2.1 12.6-.8 4.1-2.1 8.2-4 12-1.5 2.9-4 5.4-7.3 6.3-3.6.9-7.2-.5-10.4-2-2.4-1.3-5-2.2-7-4-2.2-1.8-4.3-3.8-6-6.1-2.3-2.9-4.6-5.9-6-9.4-1.8-3.8-2.9-8-3.5-12.1-.5-5.7.2-11.5 1.5-17.1 1.4-5.7 3.7-11.3 7.1-16.1 4.4-6.2 9.5-11.8 15.5-16.3 4.1-3.3 8.5-6.3 13-8.9 5.9-3.6 12.2-6.2 18.8-7.7zM369.8 124.2c.8.5 1.1 1.4 1.6 2.1 1.6 2.5 2.8 5.3 3.7 8.1.7 2.4 1.6 4.7 2.3 7.1.9 2.5 1.3 5.2 2.2 7.7.6 1.9.9 3.9 1.6 5.8.6 1.5.9 3.1 1.1 4.7.3-.4.6-.9.9-1.3.4-.1.8-.1 1.2-.1.4-.9 1-1.8 1.8-2.4 1.4-1.6 2.4-3.4 3.8-4.9.7-.8 1.1-1.9 1.7-2.7 1.8-2.3 2.7-5.1 4.2-7.6.3-.6 1.3-.9 1.8-.3.4.3.3.8.3 1.2-.3 1.2-1 2.3-1.2 3.6-.8 4.9-2.7 9.6-4.8 14.1-2.6 5.9-5.6 11.6-9.6 16.7-.5.6-1.2 1.2-1.3 2-.6 7.2-1.1 14.4-2 21.6-.6 3.8-1 7.6-1.7 11.4-1 5.2-1.9 10.5-3.2 15.6-2.1 9.2-4 18.5-6.3 27.7-.8 3.2-1.2 6.6-1.6 9.9-.5 3.7-1 7.5-1.2 11.2-.1 2.9.2 5.8.1 8.8-.1 3.6.9 7.1.7 10.7-.2 1.1-1.8 1.2-2.3.4-.7-1.1-1.2-2.3-1.6-3.6-1.7-5.4-2.9-11-3.1-16.6-.3-2.8 0-5.6.1-8.4.5-6.8.8-13.6 1.8-20.3 1-6.4 2-12.8 3.3-19.2 1-5.3 2.3-10.6 3.3-15.9 1.4-7 2.5-14 3.3-21.1v-1.7c-1.8 2.8-3.9 5.3-5.4 8.2-.5 1-1.1 1.9-1.8 2.9-3.3 8.4-5.7 17.2-7.8 25.9-1.3 5.9-2.4 11.8-3 17.8-.8 7.6-1.7 15.2-2.1 22.9-.2 3.4.1 6.9-.2 10.3-.1.8.1 1.7-.6 2.3-.7.8-1.9.5-2.5-.2-.8-1.1-1.2-2.5-1.7-3.8-1.9-6-5-11.5-7.2-17.5-1.9-5.3-4-10.6-5.6-16.1s-2.3-11.3-2.2-17c.1-12 2-24.2 6.9-35.2 2-4.5 4.3-8.8 6.9-12.9 3-4.5 6.4-8.9 10.1-12.9 3.2-3.3 6.6-6.2 10.3-8.8 2.1-1.4 4.3-2.8 6.8-3.3 1.8-.4 3.6-.4 5.4.1-.7-3-1.2-6.1-1.9-9.1-.7-2.9-1.5-5.7-2.2-8.6-.6-2.9-2-5.6-3-8.4 0-.5-.1-.8-.1-.9zM264.7 188.3h.5c0 5.3.2 10.6.4 16 0 3.6.3 7.1 0 10.7h1.4c.3.4.8.9.7 1.5-.2 2.2-.6 4.4-.9 6.6-.1 1 .2 2 0 3-.4 2-1 4-1.2 6.1-.2 5.8-1.7 11.4-2.8 17-.4 1.9-.3 3.8-1.2 5.6-.6 1.3-.6 2.7-1.2 4-.4.7-1.1 1.2-1.3 2-1.6 4.9-3.4 9.7-5.6 14.4-2 3.1-3.8 6.3-6.1 9.3-1 1.2-1.6 2.6-2.3 4-.4.8-1.4.7-2 1.3-2.2 2.4-4.3 4.8-6.9 6.8-1.3.9-2.8 2-4.4 1.6-.7-.1-1.1-.9-1.5-1.4-1.7.8-3.6 1.3-5.5 1.6-.5 0-1.1.1-1.6.1h-3.7c-2.9-.9-5.4-2.8-7.9-4.5-2.3-1.3-4.6-2.4-6.6-4.1-1.9-1.5-3.4-3.5-5.1-5.1.6.3 1.1.6 1.7.9-.1-.2-.3-.5-.4-.7 1.7 1.9 3.8 3.4 6.2 4.3 1.4.6 2.8 1 4.3 1 3.6-.2 7.3-.3 10.8-1.7 2.4-1 4.8-2.1 7.1-3.3 1.9-1.1 3.7-2.3 5.4-3.7 3.6-3.1 6.7-6.8 9.3-10.7 3.1-4.7 5.7-9.7 7.9-14.8 1.9-4.6 3.8-9.1 5.4-13.8 1.5-3.9 2.6-8 3.5-12.1.9-4.2 1.9-8.4 2.3-12.7.7-5.3.5-10.6.7-15.9.1-3.2 0-6.4.3-9.6.1-1.4 0-2.6.3-3.7z"/><path d="M440.5 447.4c0-.1 0-.2.1-.2.9-3 1.3-6.2 1.9-9.3.7-3.6.9-7.3.9-11 .2-5.7-.7-11.4-1.4-17-.5-3.8-.8-7.6-1.2-11.4-.3-3.5-.8-7-1.1-10.5-.3-4-.6-8.1-1.2-12.1-.4-3.3-.6-6.7-1.3-9.9-1.2-5.7-3-11.2-5.3-16.5-2-4.5-4.6-8.7-7.9-12.3-2.6-2.8-5.6-5.2-8.8-7.3-2.2-1.5-4.3-3-6.4-4.5-5-3.4-10.3-6.3-15.4-9.5-2.2-1.1-4.5-2-6.8-2.9s-4.6-2-6.8-3.2c.4 1.4 1 2.8 1.4 4.2l-.9-.6c-.3.1-.6.1-.9.2-.7-1.5-1.3-3.1-1.8-4.7-2.3-1.1-4.7-1.7-6.9-2.9-2.3-1-4.9-1.3-7.3-2.1-6.3-1.7-12.7-2.8-19.2-3.5-13.6-1.7-27.3-3.3-40.8-5.6-11.9-2-23.8-4.2-35.6-7.2-5.5-1.4-10.9-3.1-16.3-4.9.1 1.9-1.5 3.1-2.7 4.3-4.4 3.9-8.9 7.6-13.6 11.1-1.3.8-2.5 1.9-4 2.2-1.1.1-1.8-.7-2.2-1.6-.3-.1-.5-.2-.8-.3-.9.9-2.5 1-3.3-.2-.5 0-1.1.1-1.6.1-.4.3-.8.7-1.4.7-.9.1-1.6-.4-2.3-.7-2.9-.9-5.4-2.8-7.9-4.5-2.3-1.3-4.6-2.4-6.6-4.1-1.9-1.5-3.4-3.5-5.1-5.1.6.3 1.1.6 1.7.9-.1-.2-.3-.5-.4-.7-1.9-3.3-2.5-7.2-2.3-11 .4-1.4.7-2.8 1.4-4.1-2.6-.2-5.2-.1-7.8.2-5 .6-9.8 2.2-14.8 3-4.6.7-9.3 1.5-13.6 3.3-2.9 1.2-5.6 3.1-7.8 5.3-3 3.4-5.8 7.1-8.4 10.8-3.5 5.1-6.6 10.5-9.4 16.1-1.4 2.4-2.5 4.9-3.6 7.4-2.3 5.4-4.7 10.8-6.7 16.3-2.2 5.6-4.1 11.3-6.3 16.9-1.8 4.3-3.3 8.7-5.5 12.8-1.7 3.2-3 6.6-4.7 9.9-1.2 2.3-2.1 4.8-3.3 7.1-2.1 4.4-3.6 9.1-5.5 13.7-2.5 6.3-3.3 13.1-4.6 19.7-.8 5.1-2 10.2-2.7 15.3-1 6.6-2.4 13.1-2.9 19.7h347.7v.2z" style="fill:#38312d"/><path class="st2" d="M219.5 298.3c1.2-.1 2.5 0 3.7 0-.4.3-.8.7-1.4.7-.8.1-1.5-.4-2.3-.7z"/><path class="st5" d="M341.2 50.3c.4 0 .9-.1 1.3.2 1.1.7 1.8 1.9 2.6 2.9 1.3 1.8 2.9 3.5 4.2 5.4 1.1 1.6 1.9 3.4 2.8 5.1 1.5 2.7 3 5.3 4.2 8.1 1.6 3.7 3.3 7.3 4.9 11 1.6 3.1 2.6 6.5 4 9.7 2.1 5.9 4 11.8 5.1 18 .3 1.5.6 3.1.9 4.6.2 1.2.3 2.5.8 3.7-.7 1.4-.9 2.9-1 4.4-.2 3-.9 5.9-1.2 8.9-.4 3.4-1 6.7-1.4 10.1-.6 5-1.5 10-2.6 14.9-.9 4.2-1.5 8.5-2.4 12.8-.3 1.4-.5 2.8-.7 4.2-.6 2-1.6 3.9-2.3 5.8-3.7 8.5-7.5 16.9-12.1 24.9-.3.4-.4.9-.8 1.1-2.3 1.1-4.1 3-6 4.7-1.4 1.2-2.8 2.3-4.2 3.5-1.9 1.5-3.7 3-5.8 4.1-2.4 1.2-4.8 2.3-7.1 3.6-2.7 1.5-5.6 2.6-8.6 3.2-3.4.4-6.9.9-10.3.3-2.5-.3-5-1.1-7.4-2-2.5-.9-4.6-2.4-6.8-3.9-2.4-1.7-4.8-3.4-7-5.3-2.2-1.7-4-3.9-5.7-6-2.4-3-4.9-6-6.9-9.3-1.2-1.9-2.6-3.7-3.7-5.6-1.3-2.1-2.4-4.3-3.9-6.3-1-1.4-2.2-2.6-3.1-4.1-.5-.9-1.1-1.6-1.8-2.3-.7-1.5-1-3.3-1.7-4.8-1.1-3.5-3.1-6.6-5.1-9.7-.1-.2-.2-.4-.2-.6-.1-1.4-.5-2.7-.9-4 .3-.9.7-1.8.6-2.7-.1-3.5-.7-6.9-.6-10.4-.2-6.3.9-12.5 2.5-18.5 1.1-4.2 2-8.4 3.9-12.3 1.4-3 2.7-6 4.4-8.8 3.8-6 8.3-11.5 13.6-16.3 4.1-3.6 8.6-6.7 13.4-9.4 4.4-2.4 8.9-4.5 13.4-6.7 3.9-2 8-3.9 11.9-6 4-2.5 8.5-4.2 12.5-6.7 4.2-2.5 8.2-5.5 11.6-9 1.3-1.5 2.6-2.8 3.6-4.5-.6.2-.8.1-.9 0z"/><path class="st6" d="M338.8 51.7c.8-.4 1.6-.9 2.4-1.4.1.1.3.2.4.2-1 1.7-2.3 3.1-3.6 4.5-3.4 3.5-7.3 6.5-11.6 9-4 2.5-8.5 4.2-12.5 6.7-3.9 2.1-7.9 4-11.9 6-4.5 2.2-9 4.3-13.4 6.7-4.8 2.7-9.3 5.8-13.4 9.4-5.2 4.8-9.7 10.4-13.6 16.3-1.7 2.8-3 5.8-4.4 8.8-1.9 3.9-2.8 8.1-3.9 12.3-1.6 6-2.7 12.3-2.5 18.5-.1 3.5.5 6.9.6 10.4.1.9-.3 1.9-.6 2.7-.8-.4-2-.5-2.1-1.6-.1-1.4.4-2.7.4-4.1-.2-3.8-.5-7.7-.8-11.5.1-3.4-.5-6.8-.6-10.2-.2-3-.9-6-1.7-9-.3-1-.4-2.2-1-3.1-.5-.6-1.3-.1-2-.1v-.8c.5-.3 1-.4 1.4-.9.1-1.2-.1-2.5-.2-3.7-.2-3.9-.5-7.9-.1-11.8.4-5 1.1-10 2.9-14.8 1.4-3.8 3-7.4 5-10.9 3.1-5.2 7.2-9.8 11.8-13.7 3-2.7 6.5-5 10.2-6.5 3.8-1.5 7.8-2.7 11.9-3.1 3.2-.3 6.4-.6 9.6-.7 6.5-.1 13 1.4 19.5 1.8 3.8.2 7.7.3 11.5-.7 4.3-1.1 8.3-2.8 12.3-4.7z"/><path class="st7" d="M384 109.9c2.4-.5 5.1-.5 7.3.6 1.9.9 3.8 2 5.1 3.6 1.4 1.7 2.9 3.5 3.6 5.7 1.3 3.8 2.2 7.8 1.6 11.8-.4 2.8-1 5.6-2.1 8.2-1.8 4.4-4.2 8.5-6.7 12.5-2.7 4.1-6 7.9-9.3 11.5-5.1 5.3-11.9 8.9-19 10.6-.7.1-1.3.1-2 .1.2-1.4.5-2.8.7-4.2.8-4.3 1.4-8.6 2.4-12.8 1.2-4.9 2-9.9 2.6-14.9.4-3.4 1-6.7 1.4-10.1.3-3 1-5.9 1.2-8.9.1-1.5.4-3 1-4.4 1.5-2.2 3.4-4.2 5.4-5.9 2-1.7 4.4-2.9 6.8-3.4zM236.9 123.1c.5-.8 1.2-1.4 2-1.9 1.4-.2 2.8.2 4.2.3v.8c.6-.1 1.5-.6 2 .1.6.9.7 2 1 3.1.8 2.9 1.5 5.9 1.7 9 .1 3.4.7 6.8.6 10.2.3 3.8.7 7.7.8 11.5.1 1.4-.4 2.7-.4 4.1.1 1.1 1.3 1.2 2.1 1.6.4 1.3.8 2.6.9 4-.8-.8-1.4-1.9-2.2-2.7-1.1-1.3-2.5-2.3-3.6-3.5-1.3-1.3-2.8-2.6-4.4-3.6-1.2-.8-2.6-1.4-3.5-2.6-.6-.7-.3-1.7-.5-2.5-.4-2.7-.9-5.4-.9-8.2-.4-5.1-.5-10.2-.3-15.4.2-1.5.1-3 .5-4.3z"/><path class="st6" d="M259.1 180.8c.7.7 1.3 1.5 1.8 2.3.9 1.5 2.1 2.7 3.1 4.1 1.5 2 2.6 4.2 3.9 6.3 1.2 1.9 2.6 3.7 3.7 5.6 2 3.3 4.5 6.3 6.9 9.3 1.8 2.1 3.6 4.3 5.7 6 2.2 1.9 4.6 3.6 7 5.3 2.2 1.5 4.3 3 6.8 3.9 2.4.9 4.8 1.7 7.4 2 3.4.5 6.9.1 10.3-.3 3-.6 5.9-1.7 8.6-3.2 2.4-1.2 4.8-2.4 7.1-3.6 2.1-1.1 3.9-2.6 5.8-4.1 1.4-1.2 2.8-2.3 4.2-3.5 1.9-1.7 3.7-3.6 6-4.7-.2.5-.5 1-.7 1.5-.4 2.3-1.2 4.4-2.2 6.5-2.1 4.6-4.8 8.9-8.5 12.4-5.1 4.9-10.6 9.5-16.3 13.5-4.3 2.9-8.7 5.7-13.2 8.2s-9.2 4.8-13.6 7.5c-3.6 2.3-7.2 4.6-10.3 7.6-3.5 3.2-6.6 6.8-9.3 10.7-3.7 5.3-7.1 10.7-10.9 16-2.8 4.1-5.7 8.1-8.9 12-5.7 7.3-12.6 13.7-20.4 18.5-2.5 1.6-5.1 3.1-7.7 4.6-3.1 1.8-6.6 2.7-10 3.7 0-7.4.1-14.8.7-22.2.4-2.8.3-5.7.6-8.6.1-.7.3-1.7 1.2-1.8 1.4.2 2.7.9 4.1 1 2.6.2 5.3-.1 7.8-.9 2.9-.8 5.7-2.1 8.4-3.5 4.5-2.8 8.4-6.6 11-11.2 6.8-12.5 11.6-26.1 13.9-40.1 1.4-7.4 2-15 2-22.5 0-5.8 0-11.5-.6-17.3-.1-1.5-.8-2.8-.9-4.3-.3-1.9-.4-3.7-.8-5.6-.7-3.6-2.9-7.1-3.7-11.1z"/><path class="st5" d="M215.5 367.1c.8 5.8 1.6 11.7 3.4 17.4 1.5 5.5 3.7 10.7 5.6 16 1.1 3 2.7 5.8 3.9 8.7 2 4.8 4.9 9.2 7.4 13.7 2.7 4.2 5.3 8.3 8.3 12.3 1.6 2.2 3.1 4.4 4.8 6.5 1.3 1.7 2.7 3.4 4.6 4.4.6.3 1 .9 1.5 1.4h2.8c.2-.1.3-.3.5-.4 1.9-1.9 3.5-4.2 5.2-6.3 1.3-1.6 2.7-3.1 3.9-4.8 1.8-2.4 3.9-4.7 5.8-7.1 3.3-4.4 7-8.5 10.4-12.9 5-5.8 9.7-11.9 14.6-17.8 3-3.8 6-7.5 9-11.3 2-2.5 4.3-4.9 6.3-7.4 3.4-4 6.6-8.2 10-12.2 3.2-3.8 6.5-7.6 9.8-11.3 3.5-4 7.3-7.7 10.9-11.6 6.6-7 13.7-13.5 21.1-19.7 3.7-3.1 7.9-5.7 11.9-8.4 1.2-.8 2.6-1.4 3.7-2.3.7-1.5 0-3.4-1.2-4.4-2-1.8-3.5-4-5.2-6-1.6-1.9-3-3.9-4.4-6-1.7-2.6-3.7-5-5.3-7.6-1.3-2-2.3-4.1-3.4-6.2-2.6-4.5-4.4-9.4-6.2-14.3-1.9-4.5-3-9.3-4.3-14-1.2-4.4-1.7-9-2.4-13.6-.5-3.3-.7-6.6-1.1-10-.2-3-.7-6-.9-9 0-2.7-.2-5.3-.2-8 0-2.4-.2-4.8 0-7.2-.4 2.3-1.3 4.4-2.2 6.5-2.1 4.5-4.8 8.9-8.5 12.4-5.1 4.9-10.6 9.5-16.3 13.5-4.3 2.9-8.7 5.7-13.2 8.2s-9.2 4.8-13.6 7.5c-3.6 2.3-7.2 4.6-10.3 7.6-3.5 3.2-6.6 6.8-9.3 10.7-3.7 5.3-7.1 10.7-10.9 16-2.8 4.1-5.7 8.1-8.9 12-5.7 7.3-12.6 13.7-20.4 18.5-2.5 1.6-5.1 3.1-7.7 4.6-3.1 1.8-6.6 2.7-10 3.7-.5 6.1-.1 12.3-.5 18.4-.2 3.1-.2 6.2-.2 9.2.6 3.7.7 7.2 1.2 10.6z"/><path d="M295.4 18.8c1.2 0 2.4-.3 3.6-.3 2.9 0 5.8-.3 8.8-.2 6.6-.1 13.3.3 19.7 1.8 4.4 1.1 8.8 2.1 13 3.7 1.2.5 2.6 1 3.2 2.3-1.5.1-2.6-.8-3.9-1.3-3.9-1.5-8.1-2.3-12.1-3.2-5.8-1.2-11.8-2.1-17.8-2.2-4.4-.2-8.9 0-13.3.1-1.4-.1-2.8 0-4.2 0 .3-.1.6-.3.9-.4.6-.3 1.4-.2 2.1-.3z" style="fill:#c5b68e"/><path d="M287.3 19.4c2-.2 3.9-.5 5.9-.4-.3.1-.6.3-.9.4h4.2c-.9.4-1.9.2-2.8.3-6.2.5-12.4 1.1-18.4 2.8-1.7.4-3.3 1.1-4.9 1.6 0-.2.1-.5.1-.6 5.3-2.3 11.1-3.4 16.8-4.1z" style="fill:#d4c7ab"/><path class="st10" d="M285.7 25.5c7-1.4 14.1-1.7 21.2-.9 4 .4 8 .9 11.9 1.7 2.7.6 5.5 1 8.2 1.4 4.5.9 9.1 1.8 13.6 2.5 2.9.3 5.9.8 8.8.2.1.2.1.4.2.6-1.2.4-2.5.8-3.8.8-5 .1-10-1.1-14.9-2-3.3-.7-6.5-1.1-9.8-1.7-6.5-1.1-13.1-2-19.7-2.2-11.7-.3-23.3 2.5-34.1 6.9-3.1 1.3-6.1 2.8-8.8 4.9-.7.6-1.4 1.2-2.3 1.5.2-1.3 1.5-1.8 2.3-2.5 4.2-3.4 9.3-5.5 14.3-7.4 4.2-1.5 8.5-2.9 12.9-3.8z"/><path d="M282.2 35.2c6.5-.6 13-.7 19.5-.1 4 .3 8.1.6 12.1 1.1 4.8.4 9.7.8 14.5 1.2 2.7.1 5.5.2 8.2.3 2 0 4-.2 6-.3h2.8c-.3.2-.6.3-.8.5-1.5.5-3.1.5-4.7.7-3.4.1-6.7.3-10.1.1-4 0-8.1-.5-12.1-.7-3.9-.2-7.8-.8-11.7-1-7.6-.5-15.3-.7-22.9 0-6.4.7-12.9 1.2-19.2 3-4 1.2-7.9 2.9-11.4 5-3.8 2.4-7.2 5.4-10.4 8.6-1.6 1.4-2.9 3-4.4 4.5l-.6-.6c3.1-3.3 6.3-6.6 9.6-9.7 3.1-2.9 6.6-5.3 10.5-7 3.4-1.6 6.9-2.9 10.7-3.6 4.7-1.1 9.5-1.6 14.4-2z" style="fill:#c2b085"/><path d="M353.3 34.7c.2 0 .6-.1.8-.1-.1.7-.3 1.4-.7 2-2.5 3.8-4.9 7.6-7.9 11-1.5 1.6-3.1 3.3-5.1 4.2-.1-.1-.2-.3-.2-.5 1.5-1 3-2.1 4.1-3.6 3.4-4 5.7-8.8 9-13z" style="fill:#c7ba95"/><path d="M342.5 37.4c1.3-.5 2.6-.5 3.9-.5.1 1.1-1.3.9-2 1.1.3-.2.6-.3.8-.5-.9-.1-1.8-.1-2.7-.1z" style="fill:#ddd5c1"/><path d="M363.4 39.3c1.1.7 1.9 1.7 3 2.5 5.1 3.7 9.2 8.6 12.9 13.7 2.8 3.8 5.1 8.1 7 12.5 2.1 5.2 4 10.6 5.3 16.1.8 3.2 1.4 6.5 2 9.8.4 2.1.8 4.2 1 6.4 0 .7 0 1.4-.1 2.1-.1-.9-.2-1.8-.6-2.7-.6-1.7-.7-3.6-1.2-5.4-1-4.8-2.4-9.5-3.9-14.2-1.9-5.3-3.6-10.7-6.2-15.7-2.3-4.5-5.2-8.6-8.3-12.6-2.1-2.6-4.2-5.1-6.6-7.4-1.3-1.2-2.8-2.4-3.9-3.8-.4-.4-.3-.9-.4-1.3z" style="fill:#c1ae83"/><path class="st15" d="M340.6 44.3c1-.9 2.2-1.5 3.6-1.7-.5 1.1-1.7 1.6-2.7 2.2v-.6c-.3 0-.6 0-.9.1z"/><path class="st10" d="M356.7 42.8c1.1.1 1.9 1 2.7 1.7 2.5 2.5 4.9 5 6.9 7.9 3.7 5.2 6.6 10.8 9.2 16.6 2.6 6.1 4.8 12.4 6.1 18.8.7 3.4 1.5 6.9 1.9 10.3 0 .9 0 1.8-.1 2.7-.1-.9-.2-1.8-.6-2.7-.5-1.1-.6-2.4-.9-3.5-1.2-5.1-2.4-10.2-4.3-15.1-3.4-9.2-7.5-18.1-13-26.2-1.8-2.7-3.9-5.1-5.9-7.6-.6-1-1.6-1.7-2-2.9z"/><path d="M328.4 46.8c4.2-.1 8.4-.9 12.2-2.6.3 0 .6 0 .9-.1v.6c-2.8 1.6-6 2.3-9.1 3-5.3.9-10.8.7-16.2.6-3.2 0-6.4-.3-9.6-.3-3.7-.3-7.5-.5-11.2-.5-3.6-.3-7.3-.2-10.9.1-2.7.2-5.3.3-8 .6-3.5.4-7 .6-10.4 1.7-4.4 1.3-8.6 3-12.6 5.2-4.1 2.1-7.6 5-11.1 7.8-1.8 1.5-3.6 3-5.1 4.8-.6.8-1.3 1.6-2.1 2.3-.3.2-.5.4-.8.5.2-.4.4-.9.6-1.3.6-.8 1.3-1.4 1.9-2.2 1.7-2.3 3.9-4 5.9-5.9 3.2-2.7 6.4-5.5 10.1-7.4 4.1-2.3 8.4-4.1 12.9-5.5 3.8-1.2 7.8-1.5 11.8-1.9 4.5-.4 9-.7 13.5-.9 3.7.1 7.3.3 11 .5 5.6.5 11.1.8 16.7.9 3.3.1 6.5.3 9.6 0z" style="fill:#c0ae83"/><path class="st10" d="M349.9 49.5c1 .6 1.7 1.7 2.4 2.6 2.4 3.4 5.1 6.5 7.2 10 3.6 6.1 6.9 12.5 9 19.3.8 2.5 1.5 5 2.1 7.4 1 3.8 1.6 7.7 2.8 11.4.3 1 .8 2 1 3.1v1.1c-.3-.7-.7-1.3-1-2-2.5-5.1-3.5-10.7-5.3-16.1-1.8-6.6-4.3-13-7.6-19-2-3.8-4.1-7.6-6.7-11.1-1.3-2-3.1-4.1-3.9-6.7z"/><path d="M228.4 67.5c2.7-3.4 5.4-7 8.5-10.1l.6.6c-.6.9-1.4 1.7-2.1 2.4-1.5 1.6-2.8 3.2-4.2 4.9-1 1.1-1.8 2.4-3 3.4-.2-.5-.1-.9.2-1.2z" style="fill:#cdc3a7"/><path d="M233.5 71c.4-.6.9-1.3 1.6-1.7-.2.4-.4.8-.6 1.3.3-.2.5-.3.8-.5-.5.9-1.1 1.7-1.7 2.5-4.2 5.7-8 11.6-11.2 17.9-.5.8-.8 1.9-1.7 2.4.1-.6.4-1.2.7-1.8 1.4-2.5 2.5-5.1 4-7.5 2.5-4.5 5.3-8.6 8.1-12.6z" style="fill:#d0c9ae"/><path d="M329 89.7c3.1-.9 6.4-1.5 9.7-1.5 1.3 0 2.7-.1 3.9.5-.3.4-.7.8-1.3.7-4.6-.2-9.2.8-13.6 2.3-2.3.7-4.5 1.9-6.8 2.8-.1-.1-.4-.2-.6-.3 2.3-2.6 5.6-3.7 8.7-4.5z" style="fill:#fdbb9c"/><path class="st20" d="M327.7 99.3c4.4-2.1 9.4-3 14.2-2.8 4.3-.1 8.6.6 12.4 2.8 1.2.7 2.4 1.2 3.4 2.1.9.8 2 1.6 2.6 2.7-.5.2-.9.3-1.4.3-5.2 0-10.5-.2-15.6.7-4.4.6-8.5 2.1-12.7 3.5-2.3.8-4.7 1.4-6.9 2.4-1.1.5-2.3.3-3.4.3-1.3 0-2.4-1.4-2-2.7.3-2.5 2-4.5 3.9-6 1.7-1.4 3.7-2.2 5.5-3.3z"/><path class="st15" d="M382.9 98.2c.4.8.5 1.8.6 2.7.1-.9.1-1.8.1-2.7.4 1.1.4 2.2.6 3.3.2.9.3 1.8.3 2.8-.2 0-.5-.1-.7-.1-.3-2.1-1-4-.9-6z"/><path class="st20" d="M262.8 100.2c2.7-.9 5.6-1.2 8.5-1.5 3.3-.3 6.6 0 9.9.3 2.3.2 4.4 1.2 6.6 1.9 2.3.9 4.5 2.2 6.3 3.9 1 1 1.9 2.3 1.9 3.8 0 1.1-1 2.1-2.2 2-3.3-.3-6.3-1.7-9.5-2.1-4.2-.6-8.5-1.1-12.7-1.7-2.9-.4-5.9-.4-8.9-.3-2.2.2-4.4.5-6.7.6-1.6 0-3.3.1-4.9 0 3-3.4 7.3-5.5 11.7-6.9z"/><path d="M393.9 99.5c.4.8.5 1.8.6 2.7.1-.7.1-1.4.1-2.1.4 1.1.4 2.2.5 3.3.2 1.4.3 2.7.2 4.1-.1 0-.4-.1-.6-.1-.2-2.6-.7-5.2-.8-7.9z" style="fill:#d3cab3"/><path d="M373.5 102.6c.4.6.7 1.3 1 2v-1.1c.8 1.3 1.1 2.7 1.7 4.1.5 1.5 1.2 2.9 1.4 4.4-1-.6-1.1-1.9-1.6-2.8-.8-2.2-2-4.3-2.5-6.6z" style="fill:#d3caae"/><path class="st23" d="M342.6 116.8c1-.2 2.1.3 2.5 1.3.5 1.2.3 2.6.2 3.8-.2 1.2-.5 2.6-1.7 3.2-1.1.7-2.7.2-3.3-.9-1-1.7-.9-3.9 0-5.6.5-.9 1.4-1.6 2.3-1.8zM270.8 119.5c.9-.5 2.1-.2 2.8.5.9.9 1.2 2.2 1.3 3.4 0 1.2-.1 2.5-.5 3.7-.4 1-1.4 2.1-2.6 1.9-1 0-1.8-.9-2.2-1.7-.8-1.6-.8-3.5-.4-5.2.2-1 .6-2.1 1.6-2.6z"/><path d="M376.2 127c1.3-1.6 3.4-2.6 5.5-2.8 2-.1 4.1.7 5.3 2.4 1.2 1.7 1.5 3.9 1.4 6-.1 3-1.1 5.8-2.5 8.5-2.3 4.6-6 8.3-9.9 11.8.1-.4.1-.8.2-1.1 3.4-3.6 6.8-7.5 8.7-12.1 1.2-2.9 1.9-6.2 1.1-9.3-.3-1.2-.9-2.5-2.1-3.1-1.3-.8-2.9-.7-4.2-.2-1.3.4-2.3 1.3-3.5 1.8-.8-.5-.3-1.4 0-1.9z" style="fill:#b75c37"/><path class="st25" d="M337.4 127.7c1.1-.1 2.1.3 3.2.3 2.2.1 4.3 0 6.5-.4v.6c-2 .5-4.1.8-6.2.8-1.1 0-2.3-.1-3.2-.7-.3-.1-.4-.3-.3-.6z"/><path d="M238 130.6c1.5-.1 2.6 1.1 3.4 2.3 1.3 2.3 1.8 4.9 2.4 7.4.8 3.6 1.6 7.3 1.9 11 0 1.2-.1 2.4-.1 3.7-.2-1.1-.4-2.3-.7-3.4-1.3-6.1-2.3-12.3-5-18-.5-1-1.8-1.7-1.9-3z" style="fill:#bc5f3f"/><path class="st25" d="M267.5 131.2c3.1 1 6.5.7 9.5-.5 0 .2-.1.5-.1.6-2.1 1.1-4.4 1.5-6.8 1.4-.9 0-1.8-.4-2.6-.8v-.7z"/><path d="M308.3 135.6h.8c.4 1.3 0 2.7-.3 4.1-.6 2.6-1.5 5.2-2.4 7.8-.8 2.5-1.5 5-2.3 7.6-.2.6-.3 1.5-1.1 1.7.3-3.4 1.4-6.8 2.2-10.1 1-3.8 2.2-7.4 3.1-11.1z" style="fill:#fdb998"/><path d="M356.5 137.7c.4-.5 1.1-.4 1.6-.5 0 .9-.7 1.6-1.3 2.2-1.1 1.1-2.2 2.1-3.4 3.2-2.5 1.9-4.7 4.4-7.7 5.3 0-.5-.3-1.1.3-1.5 1.9-1.7 4-3.2 5.9-4.8-.1-.1-.3-.4-.4-.5h1c1.4-1.1 2.7-2.2 4-3.4z" style="fill:#fbb490"/><path class="st7" d="M271.9 138.1c3.5-.5 7.1.4 10.3 1.9 2.4 1.4 4.5 3.6 5.5 6.2 1.6 3.8.9 8.3-1 11.9-1.8 3.5-4.6 6.7-8.4 8-2.7 1.1-5.9.9-8.5-.4-3.3-1.4-6-4.1-7.4-7.4-1.3-2.6-1.7-5.6-1.1-8.5.5-2.7 1.6-5.3 3.3-7.4.9-1.1 2.2-1.9 3.3-2.8 1-.8 2.5-1.3 4-1.5zM340.6 139c3.1-.8 6.3-.2 9.2 1 .6.3 1.3.5 1.7 1.1.1.1.3.4.4.5-2 1.6-4 3.2-5.9 4.8-.6.3-.3 1-.3 1.5 3.1-1 5.3-3.4 7.7-5.3 1.6 1.9 2.6 4.2 2.6 6.7.2 4-.7 8.2-3.3 11.3-2.2 2.7-5.2 4.7-8.7 5.3-4.2 1.1-8.9-.4-12.1-3.4-1.6-1.7-3-3.8-3.5-6.1-.8-3.7 0-7.7 2.1-10.8 1.2-1.7 2.9-3.1 4.7-4.1 1.8-1 3.4-2.2 5.4-2.5z"/><path d="M218.4 140.7c.2.3.5.6.6.9 1.1 3.7 3.3 6.8 5.3 10l-.8.8c-.8-.9-1.4-2.1-2-3.2-1.4-2.6-2.9-5.4-3.1-8.5z" style="fill:#c7b992"/><path d="M398.3 149.3c.2 0 .5-.1.6-.1-.5 3.2-.9 6.5-1.8 9.7-1.6 6.2-2.9 12.5-4.7 18.6-1.5 5.3-3.3 10.4-5 15.6-1.1 3.5-1.9 7.1-3.1 10.6 0-.5-.1-1-.1-1.5 1-5.4 2.5-10.6 4.1-15.8 1.8-6.1 3.7-12.2 5.2-18.4 1.2-5.1 2.7-10 3.8-15.1.3-1.3.6-2.5 1-3.6z" style="fill:#c5b38b"/><path d="M245.7 151.3c.6 1.7.5 3.5.5 5.2h-.9c0-1.6-.4-3.2-.4-4.9.3 1.1.5 2.2.7 3.4 0-1.2.1-2.4.1-3.7z" style="fill:#ca8d77"/><path class="st10" d="m223.4 152.5.8-.8c1.5 2.1 3 4.2 4.9 5.9 2.6 2.3 5.2 4.7 7.7 7.1 3.4 3.7 6.9 7.4 9.4 11.8 2 3.5 3.7 7.2 4.9 11 1.4 5 2.3 10.2 2.7 15.4.3 4.8.2 9.6 0 14.4-.6 8.8-2.4 17.5-5.4 25.7-1.4 3.6-3.1 7-4.9 10.5-.6 1-1 2-1.7 2.9-.2.2-.5.4-.7.6 0-.2.1-.5.2-.7 2.7-5.9 5.7-11.8 7.3-18.2 2.5-8.9 3.7-18.2 3.6-27.5 0-4.2.1-8.5-.6-12.6-.8-5-1.8-10-3.7-14.7-1.4-3.1-2.8-6.2-4.8-8.9-2.3-3.4-5.2-6.3-7.9-9.3-1-1.2-2.3-2.1-3.4-3.2-1.7-1.6-3.6-3-5-4.8-1.3-1.5-2.4-3-3.4-4.6z"/><path d="M372.3 154.8c1.5-.9 2.7-2.1 4-3.1-.1.4-.1.8-.2 1.1 0 .3-.3.5-.5.7-1 .9-2.1 1.6-3.4 2 0-.2 0-.5.1-.7z" style="fill:#ca8c70"/><path d="M314.3 153.8c.6-.7 1.6-.5 2.3 0 1 .6 1.6 1.9 1.4 3.1-.3 1.8-1.5 3.2-3.1 4-1 .4-2.1.3-3.2.5.3-.2.6-.5.8-.7-.4-.1-.7-.3-1-.4.9-.1 1.7 0 2.6-.2 1.2-.7 2.4-1.8 2.5-3.3-.1-1.3-1.4-2.2-2.3-3z" style="fill:#bd6543"/><path d="M367.7 157.8c.7-.5 1.6-.9 2.5-.9 2.6-.1 5.4 0 7.6 1.4v.8c-1.4-.3-2.8-.7-4.3-.7-1.6-.1-3.2.3-4.9.3-.6.1-.7-.5-.9-.9z" style="fill:#fdb694"/><path d="M310.2 157.7c1.3-.2 2.8-.4 4.1.1-.1.5 0 1.1-.6 1.2-1.3.4-2.8.6-4.2.5-.6 0-1-.7-.7-1.2.2-.5.9-.5 1.4-.6z" style="fill:#ba5d37"/><path d="M218.6 158.3h.6c.8 2.7 3.2 4.4 4.3 7-.3-.1-.5-.1-.8-.2v.7c-.8-.9-1.3-2-1.9-3-.9-1.3-2.1-2.7-2.2-4.5z" style="fill:#cabd9d"/><path d="M222.7 165.2c.3.1.5.1.8.2 5.7 8.8 9.7 18.7 11.7 28.9 1.3 5.9 1.9 11.9 2.2 18 .3 5.7.6 11.5.2 17.2-.4 8-1.6 16-4.3 23.6-1.4 3.9-3.5 7.6-5.6 11.1-2 3.5-4.2 6.9-6.6 10.2h-.6l.3-.9c1.3-2.2 2.8-4.4 4-6.7 2.9-5.3 6.1-10.6 7.6-16.6 2.6-8.8 3.6-18.1 3.5-27.3-.2-9.2-.6-18.5-2.3-27.6-.9-5.2-2.5-10.2-4.3-15.2-1.6-4-3.4-8-5.4-11.8-.4-.8-.9-1.6-1.2-2.4v-.7z" style="fill:#c0ad83"/><path class="st25" d="M312.5 160.8c-.4-.1-.7-.3-1-.4-1.3 0-2.5.2-3.8.3-2 .2-4 .1-6.1.1-.8 0-1.5-.3-2.1-.7 0-.9 0-1.8.3-2.6 2.3-7.7 5.2-15.3 6.3-23.4.5-3.8 1.1-7.6.6-11.4-.3-2.8-1-5.8-2.8-8.1-.2-.4-.7-.4-1-.5.7 1.6 1.5 3.3 1.8 5 .5 3.3.5 6.6.3 9.9-.3 4.5-1 8.9-2.2 13.2-1.2 4.8-3.1 9.4-4.3 14.1-.3 1.4-1.1 3-.2 4.4 1 1.4 2.9 1.4 4.4 1.5 1.7.1 3.4 0 5.1-.2 0 2-.1 4.1-.1 6.1 0 1.4-.1 2.7-.3 4.1.1 0 .4-.1.6-.2.4-1.6.7-3.2.7-4.8.5-1.8.5-3.6.4-5.4.5-.1 1-.1 1.5-.2 0 1.1-.1 2.3 0 3.4-.1 2.4.1 4.7.3 7.1.1 0 .4.1.6.1 0-1.2.1-2.4 0-3.6.3-.6.4-1.2.5-1.8.1-1.7.1-3.5 0-5.2-.1-.3.2-.5.5-.8z"/><path class="st7" d="M306.3 173.7c8.1-.4 16.2-1.8 24.4-1.5 1 .1 1.9.3 2.7.9.4.4.1 1-.1 1.4-.4-.3-.8-.9-1.4-.7-1.3.3-2.5.9-3.7 1.2-4.6 1.3-9.2 2.5-14 3-3.6.4-7.3.8-10.9.2-3.2-.5-6.5-.6-9.6-1.6-2.1-.6-4.1-1.2-6.2-1.9 1.3-1.4 3.4-1.1 5-1.1 4.7-.2 9.2 0 13.8.1z"/><path d="M332 173.8c.6-.2 1 .4 1.4.7l-.2.2-.5.5c-1.7.4-3.2 1.4-5 1.7-2.5.5-4.9 1.3-7.5 1.6-4 .4-8 1.1-12 1.2-4.9 0-9.9 0-14.6-1.6-1-.3-2-.5-3-.8-1.3-.4-2.4-1.1-3.6-1.8.2-.3.3-.6.6-.8 2 .7 4.1 1.3 6.2 1.9 3.1.9 6.4 1.1 9.6 1.6 3.6.5 7.3.1 10.9-.2 4.8-.5 9.4-1.7 14-3 1.2-.3 2.4-.9 3.7-1.2z" style="fill:#d1444d"/><path d="M332.7 175.2c.1-.2.3-.4.5-.5.3.2.5.3.8.5 0 .6-.2 1.2-.6 1.7-1.2 1.7-2.5 3.3-4 4.8-.4.4-.9.4-1.4.5.4-1.3 1.8-2 2-3.4.9-1.2 1.9-2.4 2.7-3.6z" style="fill:#fbbb9e"/><path class="st7" d="M327.7 176.9c1.7-.4 3.2-1.4 5-1.7-.8 1.2-1.7 2.4-2.7 3.6-1.3 1-2.4 2.2-4 2.8-3.4 1.3-6.7 2.9-10.4 3.2-5.1.6-10.4.8-15.4-.4-1.7-.4-3.5-.7-5-1.5-3.3-1.7-6.1-4.2-8.2-7.3 1.2.6 2.3 1.4 3.6 1.8 1 .3 2 .5 3 .8 4.7 1.6 9.7 1.6 14.6 1.6 4 0 8-.7 12-1.2 2.6-.4 5-1.2 7.5-1.7z"/><path d="M258.9 180.5h.7c.8 1.4 1.6 2.9 2.5 4.3.2.3.4.6.4 1-.1.3-.3.6-.5.9-.6-.7-1-1.5-1.5-2.3-.5-1.2-1.3-2.4-1.6-3.9z" style="fill:#c77f63"/><path d="M311.5 181.6c2.4.2 4.8-.4 7.1-.7-.1.4-.1.9-.6 1-2.6.9-5.4 1.3-8.2 1.1-1.1-.1-2.4-.2-3.3-.9 1.7-.3 3.3-.7 5-.5z" style="fill:#fbaa87"/><path d="M220.3 182.2c.2-.1.4-.1.6-.2.8 2.3 1.9 4.6 2.5 7 2.1 6 3 12.4 3.7 18.7 1 10.6-.1 21.3-2.5 31.7-2.2 9.3-6.7 17.8-11.2 26.2l-.6-.6c3.5-6.7 6.9-13.6 9.1-20.9 2.2-7.3 3.2-14.9 3.7-22.5.5-7.5-.1-15-1.2-22.5-.8-5.8-2.7-11.3-4.1-16.9z" style="fill:#c2b187"/><path d="M262.1 186.8c.2-.3.3-.6.5-.9 1.3 1.7 2.4 3.6 3.6 5.4 4 5.8 8.2 11.3 12.6 16.7 2.3 2.8 5 5.3 7.7 7.7 2.3 2.2 4.9 3.9 7.5 5.7 2.1 1.4 4.5 2.2 6.8 3.1 1.7.6 3.4.7 5.1 1.2 3.8.9 7.6-.1 11.4-.6 4.4-.7 8.4-3 12.3-5 .8-.3 1.7-.4 2.5-.4-4.5 2.7-9 5.5-14.2 6.6-3.8.9-7.8 1.6-11.7 1-2-.6-4.2-.8-6.1-1.5-2.4-.8-4.8-1.6-6.9-3-2.6-1.6-5.2-3.3-7.4-5.5-2.2-2-4.3-4.1-6.4-6.3-2.9-3.1-5.4-6.7-8-10.1-3.3-4.6-6.4-9.3-9.3-14.1z" style="fill:#bc633f"/><path d="M305.7 193.3c3-.5 6.1.2 9 .6 1.8.4 3.7.5 5.3 1.4-.3.3-.7.5-1.1.4-2.9-.4-5.9-.9-8.8-1.1-2.5-.2-4.9.3-7.3 1-1.5.5-2.8 1.2-4.3 1.5.6-.9 1.5-1.5 2.6-1.8 1.6-.6 2.9-1.7 4.6-2z" style="fill:#b95e3a"/><path d="M365.9 201.1c.5-1.8.9-3.6 1.8-5.3-.1 2.9-.8 5.8-1.5 8.6-.2 1.5-1.7 2.2-2.1 3.6-.1.2-.2.5-.4.8.5-2.7 1.4-5.2 2.2-7.7z" style="fill:#cabc95"/><path d="M306.4 199.5c2.4-.6 4.9-.6 7.3 0 0 .2-.1.5-.1.7-1.3-.1-2.6-.3-3.9-.1-1.1.1-2.2.3-3.3.4v-1z" style="fill:#fcc0a4"/><path d="M383 206.2c.3-1.4.5-2.8 1.2-4.1 0 .5.1 1 .1 1.5 0 .7-.2 1.4-.4 2.2-1.8 6.4-3.3 12.8-5.2 19.2-.1 0-.4.1-.5.2.7-2.8 1.6-5.4 2.2-8.2.8-3.7 1.8-7.2 2.6-10.8z" style="fill:#d6ceb4"/><path d="M344.7 209.5c.9-.8 1.4-1.9 2.4-2.5-.4 1-1 1.9-1.7 2.7-.9 1.1-1.7 2.3-2.8 3.2-2.6 2-5.3 3.9-8.2 5.6-.7.4-1.5 1-2.3 1.1-.9.1-1.7.2-2.5.4 4.3-2.3 8.5-4.9 12.1-8.2 1-.8 2.1-1.4 3-2.3z" style="fill:#c26d4c"/><path d="M363.7 208.8c.1-.3.2-.5.4-.8.5.6.8 1.4.5 2.2-1.7 6.4-3.6 12.7-5 19.1-1.4 6.1-2.5 12.3-3.2 18.5-.1 1.1-.2 2.2-.5 3.3-.2 1-.4 1.9-.7 2.8.2-1.5.3-3 .3-4.5 0-3.1.5-6.1.9-9.2 1-9.1 3.3-17.9 5.9-26.7.4-1.5.7-3.2 1.4-4.7z" style="fill:#c4b48b"/><path d="M355.2 250.7c0-.4.2-.8.3-1.1.1 1.5-.1 3-.3 4.5.2-.9.5-1.9.7-2.8 0 3.3-.5 6.5-.6 9.8-.2 1.4 0 3-.9 4.1-.1-1.9.2-3.7.3-5.6-.1-3.1.3-6 .5-8.9z" style="fill:#d8ccb4"/><path d="M240.2 257.5c.2-.5.5-1 1-1.3 0 .2-.1.5-.2.7.2-.2.5-.4.7-.6-.6 1.9-1.9 3.4-2.8 5.1-1.9 3-3.8 6-6 8.8-.5.6-1 1.2-1.7 1.5 1-1.7 2.4-3.1 3.4-4.8 2-3 4-6.1 5.6-9.4z" style="fill:#d5cab5"/><path d="M207.9 273.7c1.8-2.8 3.1-5.9 4.8-8.8l.6.6c-.5 1.4-1.4 2.6-2 3.9-.8 1.5-1.7 3-2.7 4.5-.2-.1-.4-.1-.7-.2z" style="fill:#d1caae"/><path d="M218.5 276.7c.1-1.4 1.3-2.4 2.3-3.3l-.3.9h.6c-.7 1-1.4 2-2.6 2.4z" style="fill:#cec2a5"/><path class="st54" d="M147.1 374.4c0 .4.2.8.5 1.1 0-.2 0-.7.1-.9-.5-6.7-.2-13.4.5-20 .7-6.4 1.7-12.8 3.1-19.1 1.5-6.4 3.4-12.7 5.1-19 .3-.9.5-1.9.5-2.8-.7.5-.8 1.5-1 2.2-2.2 7.3-4.6 14.7-6 22.2-1.4 7.2-2.6 14.6-2.9 21.9-.1 3-.4 6-.1 9 0 1.9-.2 3.7.2 5.4zM139.9 414.3c-1.8-6.5-3.6-13.1-4.2-19.9.1-1.9.1-3.9.3-5.8h-.8c0 .1 0 .4.1.6-1 2.6-.7 5.6-.5 8.3.7 8.2 3.5 16 6 23.9 1.8 5.6 3.6 11.2 5.8 16.7.6 1.3.9 2.7 1.8 3.9.5-.6 0-1.4-.2-2-3.1-8.5-5.8-17.1-8.3-25.7zM310.1 396.2c-3.4 3.7-6.7 7.5-10 11.4-4 4.7-7.9 9.4-11.1 14.7-.5.8-1.3 1.6-.8 2.6.3-.4.6-.7.9-1.1 4.6-7.2 10.3-13.6 15.9-20 3.1-3.5 6.5-6.8 8.9-10.8.5-.7 1-1.5 1.1-2.4-1.9 1.6-3.2 3.7-4.9 5.6zM373.8 416c2.8-4.1 5.8-8 9.3-11.5 3-3.1 6.5-6.1 8-10.4-1.2.3-1.7 1.4-2.4 2.2-2.2 2.9-5 5.2-7.5 7.9-1.8 1.9-3.3 4-4.8 6.1-2.9 4-5.6 8.2-7.6 12.6-.3.5-.3 1-.4 1.6.4-.2.7-.5.9-1 1.2-2.6 2.8-5.1 4.5-7.5zM144.6 405.8c-.2-.9-.4-1.9-.9-2.8-.1-1.5-.6-2.9-.9-4.3-1.4-6.9-2.5-13.8-2.6-20.9-.1-6.5.5-13 1.5-19.5.2-1.6.8-3.1.8-4.7-1 .6-1 1.8-1.3 2.8-1.2 5.9-1.9 12-2 18.1-.1 6.7.6 13.5 2 20.1.7 3.2 1.3 6.3 2.3 9.4.1 1.8.9 3.6 1.3 5.4.9 3.2 2.2 6.4 3.4 9.5.1.4.5.8.9 1-.3-1.5-1.1-2.8-1.6-4.2-1.1-3.2-2.1-6.6-2.9-9.9zM396 404.5c-1.7 2.2-3.8 3.9-5.8 5.7-4.3 3.7-8 7.9-11.2 12.6-2.6 4-5.1 8-7.1 12.3-1 2.2-2.1 4.5-2.7 6.9.2 0 .5-.1.6-.1 1.3-3 2.7-6 4.3-8.9 2.5-4.5 5.3-8.9 8.6-12.8 3-3.7 6.5-7 10-10.3 1.9-1.8 3.7-3.8 4.7-6.2-.6.1-1 .4-1.4.8zM381.9 431c-2.6 3.8-5.1 7.6-6.7 11.9.3-.2.7-.4.9-.7.9-1.4 1.5-2.8 2.4-4.2 2.8-4.6 6.1-9 9.9-12.8.7-.7 1.7-1.2 1.8-2.3-1.1.1-1.9.9-2.7 1.6-2.1 1.9-4 4.1-5.6 6.5zM256.3 447.4h.7c0-.2-.1-.3-.1-.5v-4.1c.3-6 .5-12.1 1.8-17.9.3-.5-.3-.5-.7-.6-1.2 3.5-1.8 7.2-1.9 10.9-.1 3.2-.2 6.5.1 9.7.1.9 0 1.7.1 2.5zM226.3 436.5c1.9 2.9 3.8 5.8 5.6 8.7.5.7.9 1.5 1.4 2.2h.9c-1.4-2.5-2.9-4.9-4.3-7.4-2.6-4.3-5.4-8.5-7.1-13.3-.3 0-.5 0-.8.1 0 1.4.7 2.7 1.3 4 .7 2 1.8 3.9 3 5.7zM160.9 433.5c-.1-1.4-.4-2.8-.6-4.2-1.3-7.1-2.8-14.2-4.9-21.1-1.9-5.8-3.8-11.6-5-17.6-.5-2.5-.6-5.1-1.1-7.6-.2.2-.6.3-.6.6-.1 2.4 0 4.8.4 7.1 1 6.2 3 12.1 5 18.1 2.2 6.6 3.8 13.5 5.2 20.3.2.8.3 1.6.6 2.4 0 .7.1 1.3.2 2 .6 3 1.1 6 1.6 9.1.1 0 .4.1.6.2.1-2.1-.4-4.1-.7-6.1-.2-1.1-.2-2.2-.7-3.2z"/></svg>