<svg version="1.1" id="Layer_1" xmlns="http://www.w3.org/2000/svg" x="0" y="0" viewBox="0 0 536 448.2" style="enable-background:new 0 0 536 448.2" xml:space="preserve"><style>.st2{fill:#38312d}.st4{fill:#f2844f}.st6{fill:#b95c36}.st9{fill:#b25835}.st10{fill:#f95939}.st15{fill:#fbb28f}.st17{fill:#b65a35}.st20{fill:#e56324}.st22{fill:#160e0b}.st25{fill:#915491}</style><g style="opacity:.35"><path d="M484.6 448.2H51.4C23 448.2 0 425.2 0 396.8V135.6c0-28.4 23-51.4 51.4-51.4h433.2c28.4 0 51.4 23 51.4 51.4v261.2c0 28.4-23 51.4-51.4 51.4z" style="fill:#d6dce5"/></g><path class="st2" d="M245.1 18.6c7.6-.7 15.2-.8 22.8.1 5.2.7 10.4 2 15.5 3.5 3.9 1.1 7.5 2.8 11 4.8 1.9 1.1 3.4 2.7 5.3 3.7 2.7 1.6 5.4 3.4 7.8 5.5 3.8 3 7.3 6.6 10.1 10.6 1.6 2.3 2.8 4.9 4.5 7.2 2.6 3.1 4.6 6.6 6.1 10.2 1.6 3.4 2.9 6.9 3.9 10.5 1.5 5.6 2.8 11.2 3.1 17 0 3.4.2 6.9-.3 10.3-.4 3.4-.4 6.8-.8 10.2-.4 3.8-.7 7.6-1.4 11.3-1.2 6.8-3.4 13.4-5.2 20.1-.3.9-.4 2-1.1 2.7-.4 1.6-.3 3.6-1.8 4.6-.3.9-.6 1.9-1.4 2.5-1.1 1.1-3.1.9-4-.3-2.1-2-2.7-4.8-3.4-7.5-.4-1.6-.7-3.3-1.3-4.8-1.2-8.9-1.9-17.9-1.9-26.9 0-2 .4-4.1-.4-6.1-2.6-8.1-5.2-16.2-8-24.3-.3-.7-.5-1.4-1.1-1.9-3.9-3.4-8.2-6.3-12.8-8.8-3.5-2-7.2-3.8-11.1-4.9-1.7-.2-3.4 0-5.2 0-5.4.1-10.7-.1-16.1.3-2.9.3-5.9.5-8.8.8-.9.1-1.7.5-2.4.9-.5.3-1.6.3-1.5-.5-5 .2-9.8 1.8-14.6 3.2-7.5 2.3-14.6 5.6-21.7 9.1-1.3.8-2.9 1.3-4 2.4-3.4 4.1-6.5 8.6-8.7 13.5-4.1 9-5.5 19-7.9 28.5-.4 1.3 0 2.6.2 4 0 4.8 0 9.7.2 14.5.1 1-.3 1.9-.5 2.8-.1 2.4.2 4.8.2 7.3.1.9-.6 1.6-1 2.4-.5 1.2-1.5 2.2-2.2 3.3-.8 1.2-2.9.9-3.5-.4-1.2-2.2-1.3-4.7-1.6-7.2-.3-3.9-.6-7.7-1.1-11.6-.2-2.7-1.3-5.2-2-7.8-1-3.8-2.1-7.7-2.7-11.6-1.7-8.8-2.4-17.8-2.3-26.7 0-3-.1-6.1.2-9.2.1-4.9.4-9.7 1.1-14.6 1-7 3.9-13.5 7.4-19.5 2.6-4.5 5.5-9 9.5-12.3 4.6-3.8 9.3-7.8 15-9.9 1.9-.7 3.5-1.8 5.4-2.5 4.6-1.8 9.2-3.6 13.9-4.7 7-1.6 13.7-3.1 20.6-3.8z"/><path d="M520.3 448.5c-.6-2.1-1.7-4-3.5-5.5v-2c-.7-3.3-1.8-6.6-2.7-9.8-.6-2.1-1.4-4-2.1-6-2.6-7.2-5.3-14.3-8.4-21.3-2.4-5.1-5.2-10-8-14.9-1.9-3.1-3.4-6.4-5.3-9.6-1.4-2.4-2.7-4.9-4.2-7.3-1.6-2.6-2.9-5.4-4.5-8-1.6-2.5-3-5.1-4.7-7.5-4.7-6.4-9.9-12.6-16.3-17.4-2.4-1.7-5-3.1-7.6-4.6-3.1-1.9-6.3-3.7-9.5-5.3-2.4-1.3-5-2.3-7.5-3.4-2.4-1-4.8-2.1-7.3-3-7.2-2.7-14.1-6.1-21.1-9-2.5-1-4.8-2.3-7.2-3.3-5-2.1-10-4.4-15.2-6.1-3.6-1.3-7.2-2.5-10.9-3.6-6.2-1.9-12.3-4-18.4-5.9-8.6-3-17.3-5.9-24.9-10.9-2.3-1.5-4.8-2.6-7.1-4.2-2-1.6-2.6-4.8-5.3-5.5 0 .5.1 1 .1 1.5-.5-.3-1-1-1.7-.7-.2.8.9 1.2 1 1.9-3.1 4-7.4 6.9-11.7 9.5-3.6 1.9-7 4.1-10.9 5.6-8.4 3.4-17 6.7-25.9 8.5-7.5 1.5-15.2 1.8-22.8 1.4-8.1-.2-16.2-1.4-24.2-3.2-5.7-1.3-11.3-3-16.8-5-3-1.2-6.1-2.5-9.2-3.6-2.5-.8-4.9-1.9-7.3-2.8-.6-.4-1.1.1-1.5.5l.3.3c-.8.5-1.3 1.3-1.9 2.1.5-.8 1-1.6 1.6-2.4 0-.2-.1-.7-.1-.9l.2.8c.2-.2.7-.7.9-1 .1-.7.2-1.5.3-2.2h-1.1c-2.6 1.8-4 4.8-5.8 7.4-2.7 3.9-5.1 8.2-8.6 11.4-2.4 2.2-4.9 4.4-7.3 6.7-3.7 3.2-7.2 6.5-11 9.6-4.6 3.7-9.1 7.3-14.1 10.5-5.9 3.8-11.5 8-17.3 11.8-4.7 3-9.3 6.2-14 9.1-5.1 3.1-10 6.6-14.9 9.9-4.8 3.2-9.3 6.9-13.8 10.5-8.4 6.7-16.3 14.1-23.6 22-1.9 2.1-3.8 4.3-5.4 6.7-2.8 4.1-5.7 8.2-8.1 12.5-3.1 6-6 12.1-7.8 18.7-1.5 5.7-2.8 11.5-3.4 17.3h487.5v-.3z" style="fill:#764074"/><path class="st4" d="M290.6 55.9c3.2-.7 6.4.3 9.3 1.8 1.3 1.5 2.8 2.6 4.1 4.1 1.7 2 3.7 3.9 5 6.2 1.9 3.4 3.9 6.7 5.6 10.2 1.6 3.7 3 7.5 4.1 11.5 1.5 5.8 2.4 11.7 3.8 17.5.8 2.8 1.1 5.8 1.3 8.7.3 2.7.3 5.4.1 8.2 0 4.4-.8 8.7-.9 13.1-.1 3.8-1.2 7.6-.3 11.4 1.1.2 2.3-.1 3.2-.7-.5 1.3-.7 2.7-.8 4.1-.6 5.9-1.3 11.8-1.9 17.6-.9 3.9-1.1 8-1.5 12-.2 3.5-1.1 6.8-1.7 10.2-1.5 6.4-2.7 13-4.7 19.3-1.1 3.5-2.2 7.1-3.5 10.5-.4-1.9-.7-3.8-1.3-5.7-.1-.4-.4-.6-.8-.8-.1 1.7.3 3.5.3 5.2 0 1.9-.1 3.9-.2 5.8-1-4.2-.2-8.8-2.3-12.7-.2 1.4-.2 2.8 0 4.2-.8-2.4-1.6-4.9-3.2-6.9.1 1.3.4 2.5.7 3.7-1.1-1.7-1.2-4-2.9-5.3-.1.4-.1.9-.1 1.4-1.8-1.8-3.7-3.5-5.7-5-7.2-5-15.5-8.6-24.2-9.9-3-.4-6-.7-9-1.2-.1-.1-.6-1-.7-1.1-1.3.3-2.6.9-4 1-1.4.2-2.9.2-4.3.4-5.1.2-10.2.9-15.1 2.2-4.5 1.2-9.2 2-13.2 4.4-3.3 1.7-6.1 4.1-8.9 6.6-1.6 1.4-3 3.1-4.5 4.6-.9.9-2 1.7-2.5 2.9-.6 1.1-1 2.3-1.4 3.4-.3-.8-.7-1.6-1-2.4-.5 1.9-.5 3.9-.6 5.9-.6-1.5-1.1-3.1-1.7-4.6-.1 2.3-.5 4.6-.3 6.8.1.9.1 1.8.1 2.7-.9-2.9-.9-6.1-2.1-8.9-.6 2.5-.3 5-.3 7.6-.7-2.8-.9-5.7-1.8-8.4-.5 1.7-.5 3.6-.6 5.4-.8-2.5-.6-5.2-1.5-7.7-.2 1.5-.3 3-.4 4.5-.5-2-.7-3.9-1.1-5.9-.2.9-.5 1.9-.7 2.8-2.1-4-4.1-8.2-5.7-12.4-3.3-7.9-5.8-16.3-7.2-24.7-.2-1-.5-2-.8-3-.4-5.4-.4-10.8-.6-16.2-.1-2.6.2-5.1-.2-7.7 1-.2 1.9-.8 2.6-1.4-.5-9.1-.5-18.3-.2-27.4.4-6.4.9-12.8 1.7-19.2.4-3.6 1.9-7 2.7-10.6 1.2-5.4 2.4-10.9 5-15.9 1.6-3.2 3.1-6.5 5.2-9.4.9-1.3 1.8-2.8 3.5-3.1 2-.4 3.9-1.6 6-1.8 6.9-.5 13.9-.4 20.8.6 7.2.5 14.5 1 21.8.8 6.6-.3 13.2-1.5 19.4-3.7 6.5-2 13.3-4.1 20.1-5.6z"/><path d="M205.7 77.9c3-2.9 6.7-4.9 10.7-5.9 0 .1-.1.4-.2.6-3.1 1.2-6 3-8.6 5.1-.6.5-1.3.9-2 1.3.1-.3.1-.7.1-1.1z" style="fill:#fcae88"/><path class="st6" d="M262.4 101.3c3-.4 6-1.2 9.1-1.2 0 .2-.1.5-.1.7-4.4 1.6-9.2 2.1-13.8 2.6-3.6.3-7.1-.3-10.7-.4-2.7-.1-5.4-.2-8 .2-2 .2-3.9 1-6 1 1.7-1.5 4-1.9 6.1-2.3 2.5-.5 5-.3 7.6-.3 2.5 0 5.1.4 7.6.3 2.7-.1 5.4-.3 8.2-.6z"/><path d="M259.8 105.6c3.7-.3 7.4-1.2 11.1-1.2-2.4.9-4.8 1.4-7.3 2.1-4.5.9-9.2.9-13.8.8-2.7-.2-5.5-.6-8.2-.7-3.4.2-6.7 1.1-10.1 1.7.8-.6 1.7-1.2 2.7-1.5 2.6-.7 5.3-1.3 8-1.2 6 .3 11.8.4 17.6 0z" style="fill:#b85b36"/><path d="M265.4 109.3c1.4-.3 2.8-.5 4.2-.5 0 .2 0 .6-.1.8-3.5 1.2-7.1 1.8-10.8 2.4-5.3.9-10.6.2-15.9.2-2.7 0-5.3.6-8 .7 2.1-1.6 4.8-2 7.4-2h9.4c4.7.1 9.3-.5 13.8-1.6z" style="fill:#b75b36"/><path class="st9" d="M291.3 116.2c4-.4 8.1 0 12 .8 4.6 1 8.7 4.1 10.8 8.3.5.9.3 2.4-.9 2.7-5 1.1-10.1.5-15.1.5-7.1.5-14.1 1.7-21 3.5-1.1.3-2.6.4-3.4-.7-.9-1.4-.9-3.1-.7-4.7.2-1.3.4-2.7 1.2-3.9 1.5-2.1 3.6-3.5 6-4.3 3.7-1.1 7.4-1.8 11.1-2.2zM206.6 123.2c4-.9 8.2-1.4 12.4-1.2 3.4.1 6.8.7 10.2 1.2 3 .5 5.9 2.7 6.8 5.7.7 2.3 1.2 4.8.5 7.2-2.1.2-4.2 0-6.3 0-5.9-.5-11.8 0-17.7.2-5.1.2-10.1 1.1-15.1 1.5-3 .3-6.1 0-9.1-.1-.1-1.1-.1-2.3.6-3.2.8-1.1 1.1-2.3 1.7-3.5.9-1.2 2.1-2.2 3.2-3.2 3.6-2.7 8.3-4 12.8-4.6z"/><path class="st10" d="M335.1 135.6c2.7-1.5 6.2-1.9 9.1-.5 1.8.9 2.9 2.7 3.7 4.6 1.7 4.4 1.8 9.2 1.4 13.8-1.1 5.9-2.7 11.8-5.2 17.3-3.9 8.3-9 16.3-16.1 22.2-1.9 1.6-4.2 2.7-6.2 4.2-.1.2-.2.7-.3.9-.1-1.5 0-3 .2-4.5.6-5.8 1.5-11.5 1.5-17.3-.2-2.3-.3-4.5 0-6.8.6-5.9 1.3-11.8 1.9-17.6.1-1.4.3-2.8.8-4.1.4-1 .9-2 1-3.1.1-1.5 1.3-2.6 2.1-3.8 1.8-2.1 3.8-4 6.1-5.3zM164.5 136.9c2.6-1.4 5.6-1.5 8.4-1 2.5.4 4.6 1.9 6.6 3.4.4 4.4 1.1 8.8 2.3 13 .4 2.5.1 5.1.2 7.7.3 5.4.2 10.8.6 16.2 0 1.8-.1 3.5 0 5.3.2 1.6.5 3.2.5 4.9 0 1.6.1 3.3.3 4.9.2 1 .1 2-.2 3-.1-.3-.3-.8-.4-1-3.8-.3-7.4-2.2-10.1-4.8-3-2.7-5.4-5.9-7.2-9.4-.9-1.7-1.4-3.5-2.5-5.1-1.5-2.2-2.5-4.7-3.5-7.2-1.2-2.8-1.7-5.7-2.7-8.5-1.2-4.9-.8-10.2 1.1-14.9 1.3-2.8 3.8-5 6.6-6.5z"/><path d="M346.4 150.9c-.2-1-.2-2 .1-2.9.1.9 0 1.9-.1 2.9z" style="fill:#fd7858"/><path class="st6" d="M293.3 154.2c2.8-.1 5.6-.7 8.4-1-.5.6-1.2 1.2-2 1.4-3.5.9-7.3 1.7-10.9.8-1-.2-1.8-.8-2.6-1.4 2.4 0 4.8.4 7.1.2z"/><path d="M294.3 157c1.6-.3 3.1-.8 4.7-1.1-.8 1.3-2.3 1.6-3.6 2.1-1.7.5-3.5 1-5.2.6-.6 0-.9-.5-1-1 1.6-.1 3.3-.2 5.1-.6z" style="fill:#b95d38"/><path d="M207.3 156.9c1.6-.1 3 .9 4.5 1.2 3.8.9 7.8.6 11.6-.1 0 .2-.1.5-.2.6-2.8 1-5.9 1.3-8.9 1.2-2.5 0-5.2-.9-7-2.9z" style="fill:#bc5e38"/><path d="M209.2 161.8c.1-.2.4-.7.6-.9 3.5.5 7 1 10.5.3 0 .3 0 .7.1 1-2.7 1-5.6 1.1-8.4.8-1.1-.1-2-.6-2.8-1.2z" style="fill:#b65b36"/><path class="st15" d="M278 167.9c4.8-2.7 10.3-3.3 15.7-3.2 4.6-.1 9.3.3 13.8 1 0 .2 0 .6.1.8-5.1-.3-10.3-.8-15.4-.2-4.8.4-9.5 1.3-14.1 2.8-.1-.4-.1-.8-.1-1.2z"/><path d="M249.2 173.1c.3-1.7.1-3.5 1.1-5 .2 1.9.1 3.8-.1 5.7-.3 3.3-.7 6.7-1 10 0 .9-.5 1.8-1 2.5 0-4.4.7-8.8 1-13.2z" style="fill:#fcb290"/><path class="st17" d="M323.2 169.4c-.2 2.3-.1 4.5 0 6.8 0 5.8-.9 11.6-1.5 17.3-.2 1.5-.4 3-.2 4.5-.1 3.4-.6 6.9-1.4 10.2-.8 3.7-1.7 7.4-2.6 11-.8 3.6-1.6 7.2-2.7 10.7-.6 2.1-1.6 4.2-2.2 6.3-.3 1.1-.7 2.1-1.1 3.1-1.8 4.9-4.7 9.3-7.9 13.4-2.9 4.4-6.4 8.4-10 12.2-2.3 2.1-4.6 4.1-7 6.1-1.5 1.1-3.1 2.2-4.5 3.4-2.3 1.8-5.1 2.9-7.8 4-6.7 2.4-14 2.9-21 2.2-2.8-.2-5.5-.7-8.2-1.5-3-.8-5.8-2.3-8.6-3.5-2.7-1.5-5.5-2.7-8-4.5-1.9-1.3-3.9-2.4-5.7-3.7-4.6-3.3-8.7-7.3-12.6-11.4-3.6-4.1-7-8.3-9.7-13.1-.9-1.7-2.2-3.1-3.1-4.8-1.5-2.6-2.2-5.7-4.2-8-2-4.2-3-8.9-4.5-13.3-2.1-7.1-4.2-14.3-5.4-21.7v-.8c.3-1 .4-2 .2-3-.3-1.6-.3-3.2-.3-4.9 0-1.6-.3-3.2-.5-4.9-.2-1.8-.1-3.5 0-5.3.3 1 .6 2 .8 3 1.5 8.5 3.9 16.8 7.2 24.7 1.6 4.3 3.6 8.4 5.7 12.4.2-.9.4-1.9.7-2.8.3 2 .6 4 1.1 5.9.1-1.5.2-3 .4-4.5.9 2.5.8 5.2 1.5 7.7.1-1.8.1-3.6.6-5.4.9 2.7 1.1 5.6 1.8 8.4 0-2.5-.3-5.1.3-7.6 1.1 2.9 1.2 6 2.1 8.9 0-.9-.1-1.8-.1-2.7-.2-2.3.2-4.6.3-6.8.6 1.5 1.1 3.1 1.7 4.6.1-2 .1-4 .6-5.9.4.8.7 1.6 1 2.4.5-1.1.9-2.3 1.4-3.4.6-1.2 1.6-2 2.5-2.9 1.5-1.5 2.9-3.2 4.5-4.6 2.8-2.4 5.6-4.8 8.9-6.6 4.1-2.3 8.8-3.1 13.2-4.4 4.9-1.3 10-2 15.1-2.2-1.8.5-3.7.8-5.6 1.1-.8 1.5-1.9 2.9-2.4 4.5-.6 1.4.5 3.2 2 3.2 1.4.1 2.8-.5 4-1.1 2.8-1.3 5.3-3.1 7.7-5 1.2-.9 2.3-2 2.9-3.4.1.1.2.3.3.4 3 .5 6 .8 9 1.2 8.7 1.3 16.9 4.9 24.2 9.9 2.1 1.5 3.9 3.2 5.7 5 0-.5.1-.9.1-1.4 1.7 1.3 1.9 3.6 2.9 5.3-.3-1.2-.6-2.5-.7-3.7 1.5 2.1 2.4 4.5 3.2 6.9-.1-1.4-.2-2.8 0-4.2 2.1 3.9 1.3 8.5 2.3 12.7.1-1.9.3-3.9.2-5.8 0-1.7-.5-3.5-.3-5.2.3.1.7.4.8.8.6 1.8.9 3.8 1.3 5.7 1.3-3.5 2.4-7 3.5-10.5 2-6.3 3.2-12.8 4.7-19.3.6-3.4 1.5-6.8 1.7-10.2.6-3.9.8-7.9 1.7-11.9z"/><path class="st15" d="M206 172.9c4.8-1.8 10-2.7 15.1-3.1 1-.1 2-.1 3.1 0 3.2.3 6.4.5 9.5 1.5 0 .3.1.5.1.8-.6-.2-1.3-.3-1.9-.4-9.8-1.2-19.8.6-29 3.9.2-1.6 1.9-2.1 3.1-2.7z"/><path d="M258.4 194.3c1.4-.2 2.6-.7 4-1 .1.2.3.5.4.7-.7 1.4-1.8 2.5-2.9 3.4-2.4 1.9-4.9 3.8-7.7 5-1.3.6-2.6 1.1-4 1.1-1.5 0-2.6-1.8-2-3.2.6-1.6 1.6-3 2.4-4.5 1.9-.3 3.8-.6 5.6-1.1 1.4-.2 2.8-.2 4.2-.4z" style="fill:#733f2a"/><path class="st4" d="M235.1 208.8c3.9-1.3 8-1.9 12.1-1.8 5.1.1 10.1.4 15.2.2 4.5-.1 9 .3 13.5.8 1.7.3 3.5.5 4.9 1.5 2.6 1.7 4.8 3.9 6.8 6.3 2.3 2.9 2.7 6.8 1.9 10.3-.4 5.4-3.1 10.2-5.6 14.9-1.4 2.5-3.3 4.7-5.2 6.9-2.1 2.4-5.1 3.9-8.2 4.4-2.8.5-6 .4-8.4-1.4-2.1-1.4-3.4-3.7-3.9-6.1-.5.3-.9.7-.9 1.3-.4 2-1.5 3.8-2.9 5.3-2.1 2.2-5.5 3.1-8.5 2.1-2.1-.7-4.1-1.5-6.1-2.4-3.5-1.7-6.4-4.5-9-7.4-3.2-3.6-5.6-7.9-6.5-12.6-.5-2.1-.4-4.2-.4-6.4-.1-2.6.6-5.2 1.6-7.5 2-3.8 5.4-7 9.6-8.4z"/><path d="M271.2 216.4c1.1 0 2.2 0 3.2.2-.4.3-.9.6-1.3.9-.6-.4-1.3-.7-1.9-1.1z" style="fill:#fffef3"/><path class="st20" d="M193.2 230.2c2 2.3 2.7 5.4 4.2 8 .9 1.7 2.2 3.2 3.1 4.8 2.7 4.7 6.1 9 9.7 13.1 3.9 4.1 8 8 12.6 11.4 1.9 1.3 3.8 2.4 5.7 3.7 2.5 1.7 5.3 3 8 4.5 2.8 1.3 5.6 2.8 8.6 3.5 2.7.7 5.4 1.2 8.2 1.5 7.1.6 14.3.2 21-2.2 2.7-1.1 5.5-2.2 7.8-4 1.5-1.2 3-2.2 4.5-3.4 2.4-1.9 4.7-4 7-6.1 3.7-3.8 7.1-7.8 10-12.2 3.2-4.1 6.1-8.5 7.9-13.4-.1 4.3.9 8.5 1.5 12.7.5 2.7.7 5.5 1.5 8.2.8 2.9 1.6 5.9 2.5 8.8.5 1.7 1.5 3.2 1.7 5 .1 1 .7 1.8 1.1 2.7.3 1.6-.4 3.2-.8 4.7-2.2 6.8-4.8 13.6-7.9 20.1-2.4 5.1-4.8 10.3-8.4 14.7-3 3.6-6.7 6.5-10.4 9.4-3.1 2.3-6.2 4.7-9.8 6.3-4.6 2-9.4 3.3-14.3 4.2-4 .7-8 .6-12 .7-4.1.1-8-1.1-11.9-2-3.3-1.2-6.6-2.2-10.1-2.9-3.3-.7-6.5-2-9.8-3-4.7-1.6-9-4.2-13-7.1-2.6-2-5.1-4.2-7.6-6.3-1.2-1.1-2.2-2.4-3.4-3.6-4.4-4.6-7.9-9.9-11.2-15.2-.8-1.6-2-3-2.4-4.7-.1-1.5-.5-3.1-.2-4.6 1.2-2.4 1.9-4.9 3.1-7.3 2.9-6.4 5.8-13 6.9-20.1.5-2.5.2-5.1.2-7.6-.2-5.1-.1-10.3-1.6-15.3-.4-2.4-1.4-4.7-2-7z"/><path d="M260.8 233.8c2.5-.1 5-.7 7.5-1.1-.6 3 .7 5.9 1.7 8.7-3.5.4-7.1 0-10.6.3-4.2.1-8.3.7-12.5 1 .9-2.9.8-6 .5-9 4.4.5 8.9.3 13.4.1z" style="fill:#e46224"/><path class="st2" d="M288.6 124.8c3.8-.4 7.6-.2 11.4-.3 3.7.3 7.4.5 10.9 1.8 1.6.5 3.2 1.1 4.5 2.3 1.4 1.4 2.2 3.4 2.5 5.4 1.4 0 2.8 0 4.3.2 2.2.2 4.4.3 6.4 1 1.5.6 3.1.8 4.6 1.5.1.3.1.7.1 1-.8.6-1.7 1.1-2.3 1.9-1.3.5-2.7-.2-4-.1-2.9-.3-5.7-.3-8.6-.5.1 4.6-.1 9.2-.7 13.8-.3 3.2-1.4 6.3-2.2 9.4-.5 1.8-1.4 3.5-2.1 5.2-.9 2.2-2.7 3.9-4.4 5.7-2.1 2.3-5 3.9-8 4.7-2.4.7-4.9 1.4-7.4 1.4-5.1-.1-10.4-.2-15.2-2.1-1.8-.8-3.7-1.4-5.3-2.5-3.5-2.5-6.1-6.1-7.5-10.1-1.6-4-1.9-8.3-2.4-12.6-.1-4.1-.6-8.3-.2-12.4-.8.2-1.7.3-2.5.1-4.1-.7-8.3-.6-12.4.1-.9.1-1.8.4-2.7.3-.5-.1-1-.2-1.4-.3-.2.8-.4 1.6-.3 2.4.2 3.7-.1 7.4.2 11.1.4 4.5-.3 8.9-.5 13.3-.5 2.8-1.7 5.4-3 7.9-.6 1.1-1.2 2.2-2.1 3.1-1.5 1.4-2.9 3.1-4.9 3.9-2.4 1-4.8 1.8-7.2 2.9-3.1.9-6.3 1.2-9.4 1.6-2.1.1-4.3.2-6.4.3-4.2-.1-8.4-.7-12.3-2.4-1.9-.6-2.9-2.4-4.3-3.6-1.9-1.8-3.1-4.2-3.9-6.6-1.3-3.6-2.5-7.1-3-10.9-.5-2.9-.8-5.9-.9-8.8-.2-2-.3-4.1-.2-6.1.3-2.3.1-4.6.4-6.8-1.8-.1-3.5-.4-5.3-.5-1.7-.1-3.2-1.2-4.5-2.1-.9-.6-.6-2 .4-2.3 3.5-1.3 7.3-.8 10.9-.3.9-1.5 2.3-2.5 3.6-3.6 1.7-1.2 3.8-1.6 5.7-2.2 6.3-1.7 12.9-2.3 19.4-2.7 5.9-.1 11.8-.4 17.5 1.1 2.6.5 5.3 1.4 7 3.6 1 1.2 1.5 2.6 2.1 4 2.5-1.4 5.4-1.5 8.2-1.8 4.1-.2 8.2-.3 12.2.7.4-1.6 1.1-3.3 2.5-4.2 1.9-1.2 3.6-2.6 5.7-3.3 5.7-1.4 11.4-2 17-2.6zm-4.2 4.1c-4.8.5-9.6 1.4-14 3.5-1 .5-1.7 1.4-2.5 2.1-.7.6-.7 1.5-.9 2.3-.4 3.2-.4 6.5-.3 9.7 0 4.1.3 8.1.9 12.2.5 2.9 1.8 5.6 3.2 8.1.6 1 1.5 1.8 2.2 2.7 1.3 1.8 3.3 2.9 5.3 3.8 3.4 1.3 7 2.1 10.6 2.4 5 .3 10.3-.3 14.6-3.1 1.5-.7 2.5-2.1 3.6-3.3 1.5-1.6 2.5-3.7 3.3-5.8 2.7-7 4.1-14.6 3.9-22.2-.1-2.3.3-4.7-.4-7-1-2.1-3.3-3.1-5.2-4-3.5-1.3-7.2-1.5-10.9-1.8-4.3-.2-8.9-.1-13.4.4zm-68 2.9c-4.3.3-8.7.6-13 1.3-2.8.4-5.6.9-8.1 2.1-1 .5-2.1 1.2-2.7 2.2-.8 1.1-1.6 2.2-1.9 3.6-.5 2.6-.9 5.2-.8 7.9.5 5.5 1 11 2 16.4 1.2 4.5 2.6 9 5.3 12.8 1 1.2 2.5 1.8 4 2.4 2.6.9 5.3 1.4 8 1.7 3.1 0 6.3.2 9.4-.3 2.9-.3 5.7-1.3 8.5-2 2-.7 4.1-1.3 5.7-2.7 1.6-1.4 3.1-3.1 4.2-4.9 1.2-2.4 2-4.9 2.6-7.5 1.5-8.3 1.4-16.8-.2-25-.3-1.8-.8-3.7-2.1-5.2-.9-.8-2-1-3-1.5-2.1-1-4.4-1.2-6.7-1.4-3.6-.1-7.4-.1-11.2.1z"/><path class="st17" d="M244 139.8c.5.1 1 .2 1.4.3.3 1.8.8 3.6.9 5.5.2 4.9.6 9.7.3 14.6-.5 4.1-.6 8.1-1.1 12.2-.4 5.2-1.5 10.3-2 15.4-.2 1.6-.2 3.3-.1 4.9.5.3 1.1.7 1.7.8 3.3.6 6.7 0 10-.3 2.9-.1 5.8-1 8.7-.7.4.4.6.8.6 1.4-4.2 1.2-8.6 1.6-12.9 2.1-1.4.2-2.8.1-4.3.1-1.7 0-3.5-.2-5-1.2-1-.7-1.4-1.9-1.3-3.1.1-4.9 1-9.6 1.6-14.4.3-3.6.8-7.1.9-10.7.2-4.4 1-8.9.5-13.3-.3-3.7 0-7.4-.2-11.1-.1-.9.1-1.7.3-2.5z"/><path class="st22" d="M293.8 141.2c1.5-.7 3.1.5 3.4 2 .4 1.8.2 4.3-1.5 5.4-1.4.8-3.3-.2-3.6-1.8-.3-1.9-.2-4.5 1.7-5.6zM215 144.7c1-.4 2.5-.1 2.7 1.1.2 2.1.7 4.4-.4 6.3-.6 1.1-2.4 1.4-3.1.3-1.1-1.6-.8-3.6-.8-5.4 0-1 .6-2 1.6-2.3z"/><path class="st20" d="M234.3 212.5c2.5-1.4 5.5-1.5 8.4-1.4 5.5-.1 10.9 0 16.4.2 3.9.2 7.9-.3 11.8.3 2.6.5 5.4.5 7.7 1.9 1.3 2.4 1.1 5.5-.6 7.7-2.3 2.5-4.7 4.9-7.5 6.7-3.7 2.3-8.2 2.8-12.5 2.8-4.5-.2-9-.8-13.2-2.4-4.1-1.5-7.9-4.2-10.3-8-.9-1.3-.9-3-1.3-4.5-.5-1.2-.1-2.6 1.1-3.3z"/><path d="M235.5 213.7c4-.4 8.1-.1 12.1.5 4.5.8 9.1.7 13.6.6 4.8 0 9.6-1.3 14.5-.9 1 .1 2 .5 2.5 1.4.3.6 0 1.2-.3 1.7-.7 1.4-1.8 2.6-3.1 3.7-1.2.9-2.7 1.2-4 1.8-1.9.7-3.8 1.4-5.8 1.7-3.7.3-7.4 1-11.2.6-6.4-.9-12.8-2.9-17.9-7-.6-.6-1.4-1.2-1.4-2.1-.1-.7 0-1.9 1-2z" style="fill:#fff"/><path d="M255 226.8c3.9-.2 7.7-.6 11.5-1 0 .1-.1.4-.1.6-2.5.8-5.1 1.1-7.7 1.3-1.2 0-2.8.1-3.7-.9z" style="fill:#f7a983"/><path class="st25" d="M341.5 290.9c.6-.9 1.8.1 1.5 1-.7 5.8-2.4 11.4-4.9 16.6-1.1 2.6-2.7 5-4 7.5-1.8 3.2-3.5 6.5-5.7 9.4-2.8 4.1-6.2 7.8-9.4 11.6-.3.3-.6.7-1 1h1.5c-.6.1-1.3.2-1.9.2-1.9 1.7-3.6 3.5-5.6 5.1-2.8 2.2-5.4 4.6-8.4 6.5-4.3 2.6-8.7 4.9-13.2 7.1-4.5 2-9.2 3.7-14 4.6-3.8.7-7.7 1.3-11.5 1.5-8.9.1-17.8-.2-26.5-2.4-7.7-1.6-15.4-3.7-22.8-6.8-.6-.3-1.2-.6-1.8-.8-2.6-.9-5-2.3-7.4-3.5-2.6-1.4-5.1-3-7.6-4.6-2.2-1.5-4.6-2.9-6.7-4.5-4.5-3.4-9.3-6.5-13-10.7-1.8-2.2-3.5-4.4-5.3-6.6-1.8-2.5-3.7-5-4.5-8-.6-1.7-1.7-3.4-1.5-5.4.1-.6.6-.9 1.2-1.1.6.6.5 1.4.5 2.1-.1.7.7 1.2.9 1.8.2.7.1 1.4.3 2.1.7 2.2 2.1 4.1 3.5 5.9 1.8 2.4 3.7 4.6 5.5 6.9 3.7 4.5 8.6 7.7 13.2 11.1 2 1.5 4.1 2.8 6.2 4.1 10.7 7.4 23.2 11.9 35.7 14.9 2.7.5 5.4 1.3 8.2 1.8 7.4 1.4 15 1.6 22.5 1.6 6.1-.5 12.2-1.5 18.1-3.4 6-2 11.6-5 17.2-8 4.2-2.3 7.8-5.5 11.6-8.5 2.7-2.5 5.4-4.9 7.8-7.7 3.5-3.9 6.8-8.1 9.7-12.6 3.3-5.9 6.6-11.8 8.9-18.1 1.1-3.6 2.3-7.6 2.7-11.7z"/><path d="M213.8 353.1c.6.2 1.2.5 1.8.8-1 .2-1.9.4-2.9.6 0-.3 0-.5.1-.8-.7-.1-1.3-.2-2-.3.9-.1 2.1.2 3-.3z" style="fill:#916693"/><path d="m480.1 361.8.9.6c-.4.3-.7.6-1.2.6-1.6.1-3.3 0-4.9-.2 1.4 0 2.7.1 4.1.1.6 0 .8-.8 1.1-1.1z" style="fill:#a88ba4"/><path class="st25" d="M37.3 433.2c1.4-.8 3-1.3 4.6-1.6 6.4-1.3 12.9-1.6 19.4-.9 3.6.6 7.3 1 10.9 1.7 3.9.9 7.8 2 11.8 2.8 1.4 4.4 2.5 8.9 3.5 13.3h2.1c-.2-1.1-.5-2.2-.8-3.3-.9-3.9-2.1-7.7-3.1-11.5-1.3-3.8-2.4-7.7-4.2-11.2 2.7-2.3 6.1-3.3 9.4-4.2 3.4-.8 6.7-1.9 10-2.7 5.3-1.2 10.7-2.1 16.1-3 7.2-1 14.2-2.8 21.3-4.2 7.1-1.5 14.2-3.2 20.9-5.8 3.1-1.1 6.2-2 9.4-3 6-1.8 12.1-3.1 18.3-4.4 6.7-1.3 13.3-3.2 20-4.3 3.9-.7 7.8-1.2 11.8-1.7 6.8-1 13.6-1.7 20.3-2.8 8.2-1.1 16.3-3 24.5-4.2 6.8-1 13.5-2.4 20.3-3.2 5.3-.7 10.7-.7 16.1-1.1 6.4-.2 12.7-1 19.1-1.4 2.5-.3 5.1-.2 7.6-.5 8.2-.1 16.4-.4 24.6-.1 5.9-.1 11.7.2 17.6.3 3.8-.1 7.5.4 11.3.3 2.7.3 5.4.2 8.2.5 5.4.2 10.7.9 16.1 1 1.3.1 2.6.3 4 .3 2.5-.1 5 .4 7.6.3 2 0 4 .3 6.1.3 2.4 0 4.9.4 7.3.3 2.9-.1 5.9.4 8.8.3 4.1.1 8.2.5 12.2.2.7 4.7 1.2 9.3 1.9 14 .5 3.2 1 6.5 1.3 9.7.7 7.9 2.4 15.6 4.1 23.3-.7-.5-1.6-.9-2.5-.8-8.5-.3-16.9-1.9-25.3-3.3-6.8-1.2-13.7-1.6-20.6-2.4-7.9-.8-15.8-1.4-23.7-1.7-2.8-.1-5.7-.4-8.5-.3-8.5-.2-17.1-.7-25.5.6-14 1.9-27.7 5.3-41.6 7.5-7.3 1.2-14.6 2-21.9 2.7-7.5.7-15 1.2-22.5 2.1-7 .8-14 1.4-21 2.5-8.8 1.3-17.6 2.9-26.4 4.7-10.1 1.9-20.1 4.6-30.4 4.8-4.4.4-8.9.3-13.4.3-7.1 0-14.2-.1-21.2.4-4.6.5-9.2.9-13.7 1.8-3.1.5-6.2 1.3-9.3 2-1 .2-2 .4-3.1.6h10.4c2.3-.5 4.5-.9 6.8-1.2 6.2-.8 12.3-1.5 18.6-1.3 12.3-.1 24.8.6 37-1.3 6.5-1.1 12.9-2.5 19.4-3.8 8.5-1.7 17-3.3 25.5-4.5 6.3-.9 12.6-1.5 18.9-2.2 7.6-.9 15.2-1.5 22.8-2.2 7-.7 13.9-1.5 20.8-2.6 14-2.2 27.7-6.1 41.8-8.2 3.4-.5 6.8-1 10.3-1.1 4.2-.3 8.3.1 12.5 0 11.9.4 23.7.8 35.5 2.1 7.5.8 15.1 1.3 22.6 2.5 7.5 1.1 15.1 2.4 22.7 3 1.8 0 3.6.7 5.4.9.4 1.7.9 3.4 1.4 5 1.4 4.9 2.8 9.8 3.8 14.9h1.8c-.1-.8-.3-1.5-.4-2.3-.8-3.4-1.7-6.8-2.5-10.2 7.7-1.1 15.4-2.1 23-3.7 7.1-1.4 14.3-2.7 21.6-2.5 2.2.1 4.4.6 6.5.1v-1.2c-.2-.1-.6-.2-.7-.3-3.7-.6-7.4-1-11.1-.7-8.1.4-16 2.3-23.9 3.7-5.3.9-10.7 1.4-15.8 3-1.1-3.5-1.9-7.2-2.7-10.8-1.5-7.1-3-14.2-3.7-21.4 5.2-2.2 10.7-3.9 16.2-5.1 3.1-.7 6.3-1 9.4-1.7 4.4-.9 8.9-1.3 13.4-1.7 1.1.7 2.4.5 3.7.2.1-.2.3-.6.5-.8-.4-.4-.8-1-1.4-1.1-1.5-.2-3-.3-4.6-.2-4.2.3-8.3.7-12.4 1.5-3.5.7-7.1 1-10.6 1.9-4.9 1.2-9.9 2.5-14.4 4.9-.8-4.5-1.3-9.1-1.9-13.6-.2-2.7-.9-5.2-1-7.9-.5-3.8-.8-7.6-.4-11.4 4.1-1.6 8.4-2.6 12.7-3.6 1.8-.4 3.5-1 5.4-1 1.7 0 3.4 0 5.1.1 1.4 0 2.7.1 4.1.1.6.1.8-.7 1.2-1-1.2-.3-2.4-.3-3.6-.2-2.4-.1-4.7-.3-7-.4-2.4-.1-4.8.6-7.2 1-3.5.7-7.1 1.5-10.4 3.2.4-2.3.8-4.7 1.5-7 1.6-5.7 2.9-11.5 5.2-16.9.3-.9 1.5-1.2 1.4-2.3 0-.8-1-1-1.6-.6-2.5 4.3-3.9 9.2-5.2 14-2.7-1.1-5.5-1.9-8.3-2.3-4-.9-8-1.9-12-2.8-6.2-1.3-12.3-3-18.5-3.9-3.8-.7-7.7-.7-11.5-1.4-10.5-1.6-21.1-2.6-31.6-4-8-1-15.9-2-23.9-2.7-3.8-.4-7.7-.6-11.6-.4-2 .2-4.1.1-6.1.3-3.6.4-7.3.3-10.7 1.6-.3.3-.6.7-1 1h1.5c2.5-.4 5-.5 7.5-.6 3.8-.3 7.7-.3 11.5-.4 7.4.1 14.8 1.1 22.2 1.9 8.2.9 38.5 4.7 45.5 5.7 6.5.5 13 1.5 19.4 3.2 6.8 1.6 13.5 3.1 20.4 4.5 1.5.7 3 1.3 4.6 1.5.8.1 2.4.3 2 1.5-1 3.7-2 7.5-2.7 11.3-.6 3.9-.2 7.8.1 11.6-16.1-.8-32.2-1.6-48.3-2.5-15.3-1.2-30.5-2-45.8-2-8.2-.4-16.4-.3-24.6-.3-2.1 0-4.3.3-6.4.3-7.5.3-14.9 1.1-22.4 1.7-7.4.6-14.9.7-22.2 1.8-7 1-14 2.4-21 3.5-6.7 1.1-13.4 2.7-20.2 3.6-7.4 1.1-14.8 2-22.1 3-7.1.8-14.2 2-21.2 3.8-4.6 1.1-9.2 2-13.8 3-3.4.8-6.9 1.6-10.2 2.5-5.4 1.6-10.8 3.2-16 5.2-6.5 2.3-13.3 3.8-20 5.2-6.6 1.3-13.1 3-19.8 3.9-7.1 1.3-14.3 2.3-21.1 4.5-4.9 1.4-10.2 2.4-14.1 5.9-1.5-3.1-3.4-5.9-5-9-.9-1.8-2-3.4-2.9-5.2-1.1-2.6-2.8-4.9-4.5-7.2 3-1.4 6-2.9 9-4.4 4.7-2.3 10-3 14.8-5 5.4-2.2 10.9-4.2 16.2-6.7 3.2-1.3 6.4-2.6 9.5-4.1 5.6-2.4 11.3-4.5 17-6.6 10-3 20.1-5.4 30.2-7.8 9-2.1 18-4.5 27-6.5 3.1-.7 6.2-1.7 9.4-2.3 3.7-.7 7.4-1.1 11.1-2 0-.3 0-.5.1-.8-.7-.1-1.3-.2-2-.3-3.8.2-7.6 1-11.3 1.8-6.4 1.6-12.9 2.7-19.3 4.5-11.6 2.9-23.3 5.5-34.9 8.5-5 1.5-10.1 2.8-15 4.7-5.8 2.1-11.6 4.5-17.2 7.1-4.1 1.6-8.1 3.6-12.1 5.2-2.8 1.1-5.6 2.2-8.4 3.4-5.8 2.5-12.2 3.5-17.7 6.5-2.4 1.1-4.6 2.5-7 3.7-1.1-2.5-3.2-4.4-5.4-6.1-.6-.5-1.4-.9-2.1-1-.5.2-1 .5-1.5.8 1.2 1.2 2.6 2 3.8 3.2 3.9 4 6.6 8.9 9.5 13.5 1.5 2.3 2.6 4.9 4 7.3 1.5 2.6 2.9 5.2 4.2 7.9 1.4 2.9 2.3 6 3.3 9-5.5-1.6-11-3.3-16.6-3.9-3.8-.6-7.7-1.2-11.6-1.1-4.1-.1-8.1.4-12.1 1.2-2.1.5-4.2 1.1-6 2.2-.6.3-.9 1-.9 1.6-.1.2.3.3.6.1z"/></svg>