<svg version="1.1" id="Layer_1" xmlns="http://www.w3.org/2000/svg" x="0" y="0" viewBox="0 0 536 448.2" style="enable-background:new 0 0 536 448.2" xml:space="preserve"><style>.st3{fill:#b65a35}.st4{fill:#f2844f}.st5{fill:#e56324}.st6{fill:#f95939}.st9{fill:#803f26}.st13{fill:#160e0b}.st17{fill:#cc492f}.st25{fill:#600add}</style><g style="opacity:.35"><path d="M484.6 448.2H51.4C23 448.2 0 425.2 0 396.8V135.6c0-28.4 23-51.4 51.4-51.4h433.2c28.4 0 51.4 23 51.4 51.4v261.2c0 28.4-23 51.4-51.4 51.4z" style="fill:#d6dce5"/></g><path d="M76.7 446.5c-.1.6-.2 1.1-.2 1.7h372.2c-.1-1.1-.2-2.1-.3-3.2-.3-3.5-.3-6.9-.4-10.4-.3-15.6-1-31.3-2.2-46.9-1-13.9-2.5-27-6.8-40.6-2.1-6.5-4.4-11.9-8.2-17.9-.9-1.4-1.9-2.8-2.8-4.2-.8-1.1-1.6-2.1-2.8-3.4-2.3-2.5-4.7-4.8-7.4-7-1.3-1.1-2-1.6-3.6-2.7-1.4-1-2.8-2-4.3-2.9-2.9-1.9-6-3.6-9-5.2-6.1-3.2-12.3-6.1-18.6-8.9-.2-.1-.3-.2-.5-.3h-.5c-.6 0-.9.6-1 1-.3-.2-.7-.3-1-.5-1.3 2.5-4.3 3.4-6.9 3.7-3 .4-6 .5-9 .5-1.2 0-2.4 0-3.6.1-.1 0-.4 0-.6.1-2.9 5.8-7.3 11-12.1 15.4-8.2 7.4-17.8 13.3-25.7 21-3.2 3.1-6.2 6.7-7.1 11.1-1.2 6.5 2.5 13.4.2 19.6-3.5 9.3-18.1 10.5-21.3 19.9-1.7 4.9.3 10.9-2.7 15.2-2.9 4.3-10.1 5.7-10.4 10.9-.1 2.2 1.2 4.1 1.7 6.2 1.5 5.8-3.8 12-9.8 12.2-6 .3-11.5-4.7-12.7-10.5-.4-1.8-.4-3.7-1.3-5.4-2.5-4.8-9.3-4.3-14.7-5.1-12.5-1.9-21-17.2-16.1-28.9 3-7 9.8-12.7 9.8-20.4 0-5.4-3.5-10.1-6.4-14.7-8.1-12.8-12.1-28.2-11.3-43.3.2-3.6 1.2-7.9 4.6-9 1.4-.4 2.9-.2 4.3-.6 1.4-.4 2.6-2.1 1.8-3.3-23.9 12.2-50.7 17.6-75.7 27.3s-49.7 25.4-60.4 50c-1.7 4-3 8.1-4 12.2-.2.8-.4 1.5-.6 2.3-.8 2.8-1.6 5.5-2.2 8.4-.4 2-.8 4-1.1 6.1-.2.8-.4 1.5-.5 2.3-.8 3.3-3.9 17.1-4.5 20.7-.3 1.5-.4 3-.1 4.4-.1.4-.1.9-.2 1.3-.2 2.2-3 16.6-4 21.7z" style="fill:#7703fc"/><path class="st3" d="M287.9 4.7c5.9-1.2 11.9-1.3 17.9-1.3 1.9-.1 3.9.1 5.8.3 2.8.4 5.5.8 8.2 1.7 2.9 1 5.8 2.2 8.5 3.6 4.3 2.1 8.6 4.5 12.2 7.7 6.1 5 11.6 10.8 16.2 17.1 2 2.8 3.6 5.8 5.4 8.7 1.6 2.6 2.9 5.4 4.3 8.1 1.7 3.4 3 7 4 10.6 1.4 4.5 2.5 9.1 2.6 13.8.2 4 .1 8.1.1 12.1-.1 5-1.3 9.8-2.9 14.5-1.2 4.1-3.4 7.8-5.2 11.6-2.2 4.2-3.8 8.7-5.3 13.2-2.1 5.3-2.9 11-2.9 16.7-.1 2.8-.1 5.6.1 8.4.5 3.1 1.2 6.2 2.4 9.1 1.3 3.6 3.4 6.9 5.2 10.2 3.8 6.8 6.8 14.1 7.7 21.9.1 2.3.4 4.7-.2 7.1-.9 3.7-2.9 7.1-5.5 9.9-2.4 2.4-5.4 4.2-7.3 7.1-1.5 2.2-1.9 5.2-.7 7.6 1.5 3.9 5 6.5 6.4 10.4 1.1 3.4 1.1 7.2-.5 10.4-.8 2-2.1 3.8-3.1 5.7-.8 1.6-1.2 3.5-1.1 5.3.2 3 2.1 5.5 3 8.4.8 2.5 1.4 5 1.3 7.6-.1 2 .3 4 .3 6.1.1 2.8-1 5.5-1.6 8.3-.3-.1-.5-.2-.8-.4-.3.6-.5 1.2-.8 1.8.4.1.7.3 1.1.4-1 4.3-2.3 8.6-4.5 12.4-2.6 4.7-6.2 8.6-9.9 12.4-2.9 2.8-5.9 5.5-9.2 7.9-5.1 3.9-10.5 7.5-15.3 11.8-1.9 1.8-4 3.6-5.5 5.8-.9 1.3-1.9 2.6-2.7 4-1.2 1.9-1.8 4.2-2.1 6.4-.2 1.2-.1 2.5.4 3.7.8 1.8 1.2 3.8 1.2 5.8 0 2.4.3 5-.7 7.3-1.3 3-3.2 5.9-6.2 7.4-2 1-3.9 2.3-5.7 3.7-2.7 2.1-6 3.4-8.2 6.1-2.3 3.1-2.2 7.3-2.2 11 .2 2.8-.5 5.6-2.2 7.8-1.5 2-3.6 3.3-5.6 4.6-1.7 1.1-3.5 2.4-4.3 4.3-.7 2.1-.3 4.4.8 6.3 1.1 1.9 1.4 4.1 1.3 6.3 0 1.1-.6 2.1-1.3 2.8-1.1 1.2-2.3 2.2-3.7 3-1.5.9-3.3 1-5 1.1-2.3.2-4.6-.1-6.7-.8-1.6-.5-3-1.6-3.9-3-2-2.6-2.6-6-3-9.3-.2-1.4-.2-2.9-1-4.1-.9-1.3-2.5-1.6-3.9-1.9-3.6-.6-7.3-.5-10.8-1.4-3.9-.9-7.6-2.8-10.7-5.4-3.2-2.8-5.7-6.7-6.2-11-.9-5.9.4-12 3.3-17.2 1.3-2.4 3.3-4.5 4.7-6.8 1-1.5 2.1-3 2.9-4.6 1-2.1.5-4.6-.3-6.7-.8-2.3-1.8-4.6-2.8-6.9-2.6-4.8-5.6-9.4-8.1-14.3-1.8-4-3.2-8.3-4.4-12.5-.6-2.1-1.1-4.2-1.4-6.4-.8-6.1-.5-12.3-.1-18.4.1-1.5.3-3 .5-4.4 3.3-1 6.6-2.2 10-3.3l.3-1.5c-3.3.9-6.6 2.2-9.9 3.2 2.6-9.1 7.8-17.2 13.8-24.4 2.8-3.4 5.8-6.6 8.7-9.8 2.9-3.1 5.7-6.2 8.8-9.2 2.5-2.5 5.2-4.9 7.5-7.7 3-3.6 6.1-7.1 9.1-10.8 2.5-3.2 5-6.6 5.9-10.6 1.4-5.8 1.6-11.8.6-17.7-1.3-8-4.4-15.6-7.8-22.9-4.4-9.3-9.4-18.3-15.2-26.8-2.9-4.4-5.8-8.7-8.9-12.8-1.8-2.3-3.6-4.7-5.9-6.6-1.4-1.3-2.9-2.4-4.6-3.1-2.5-1.1-5.2-1.3-7.7-2-2.8-.8-5.9-1.3-8.1-3.4-1.4-1.3-2.2-3-3-4.7-1.9-3.8-2.6-8-2.8-12.2l-.4.1c.1-1.3.4-2.5.4-3.8 0-1.9.3-3.8.8-5.5.6-1.7.4-3.5.5-5.2.1-3.2 0-6.4 0-9.7-.2-3.5-.3-7-.3-10.5-.1-5.8 1-11.5 2.3-17.1 1.2-4.8 3.2-9.3 5.3-13.7 2.4-4.7 5.5-9.1 9.1-13 3.7-3.9 8.1-7.1 12.5-10.1 2.3-1.5 4.8-2.7 7.3-3.8 4.3-2 8.7-3.6 13.3-4.9 2.9-.8 5.9-1.1 8.8-1.9 6.1-1.3 11.5-3.9 17.3-5.1z"/><path class="st4" d="M269.4 38.5c1.3-.4 2.7-.9 4-.5 3.5 1 7.1 1.5 10.6 2.4 1.4.3 2.8.5 4.2 1-.2 0-.6 0-.8.1 2.1 1.6 4.6 2.7 6.8 4.2 3.1 2.3 6.2 4.6 9.2 7.1 2.5 2 5.2 3.8 7.7 5.9 2.5 2.1 5.1 4.1 7.5 6.3 3.5 3.1 6.6 6.6 9.6 10.3 3.9 4.5 7.2 9.5 10.8 14.3 2.7 3.8 5.1 7.7 7.4 11.7 1.1 1.9 2.4 3.8 3.3 5.9 1.1 2.3 1.8 4.7 2.9 7.1.1-.8.1-1.5.2-2.3.4 2.4 0 4.8.1 7.2.1 5-1 9.9-2.4 14.7-3.2 9.9-9.5 18.3-15.1 26.9-2.7 4-5.3 8.1-7.5 12.3-1.4 2.8-2.2 5.7-2.5 8.8-.1.7-.1 1.4-.3 2.1-1.4 2.2-2.4 4.7-3.7 6.9-1.9 3.1-4 6.2-6 9.2-2.3 3.4-4.6 6.8-7.7 9.5-2 2.1-4.6 3.5-6.6 5.6-2.8 2.7-6.2 4.8-9.5 6.7-2.8 1.6-5.9 2.3-8.9 3.3-2.6.8-5.3 1.7-8.1 1.5-1-.1-2 .5-3 .7-5.2.6-10.5-.3-15.3-2.5-3.3-1.6-6.2-3.8-9-6.2-3.4-3-6.1-6.6-9-10.1-3-3.6-5.5-7.5-8.4-11.2-1.9-2.8-3.9-5.5-6-8.2-.9-1.8-2.1-3.4-2.9-5.2-1.5-3.3-3-6.6-3.9-10.1-.7-2.7-1.4-5.4-2.2-8-.2-.6-.4-1.3-.3-1.9.6-2.2.4-4.5.4-6.8.1-8.7 0-17.3 0-26 0-2.2.4-4.4.4-6.6.1-3.9.5-7.8.9-11.7-.2.1-.4.1-.6.2v-.5c.9-2.1 1.4-4.3 2.1-6.5 1.9-5.8 4-11.5 6.4-17.1 1.1-2.7 2.5-5.2 3.8-7.7s2.9-4.9 4.3-7.3c1.9-3.4 4.1-6.5 6.3-9.7 1.7-2.3 3.6-4.5 5.5-6.7 2.1-2.5 4.6-4.6 7.1-6.7 3.5-3 7.2-5.7 11-8.3 2.4-1.8 4.7-3.1 7.2-4.1z"/><path class="st5" d="M287.3 41.5c.2 0 .6 0 .8-.1 2.6.7 5.1 1.7 7.5 3 2.1 1.1 4.3 1.7 6.4 2.8 1.9 1 3.8 1.7 5.7 2.6 3.1 1.5 6.3 3 9.3 4.8 4.7 2.6 9 6.1 13 9.7 2.9 2.6 5.7 5.3 8.1 8.4 1.4 1.9 3.1 3.6 4.4 5.6 1.8 3 3.7 5.9 4.8 9.2 1.1 3.2 2.3 6.3 3.2 9.5 1.5 4.8 2.1 9.8 2.1 14.8 0 .8-.1 1.5-.2 2.3-1-2.3-1.8-4.8-2.9-7.1-.9-2.1-2.2-3.9-3.3-5.9-2.3-4-4.7-7.9-7.4-11.7-3.6-4.8-6.9-9.8-10.8-14.3-3-3.6-6.1-7.2-9.6-10.3-2.5-2.2-5-4.2-7.5-6.3-2.4-2.1-5.2-3.8-7.7-5.9-3-2.5-6.1-4.8-9.2-7.1-2-1.4-4.5-2.4-6.7-4z"/><path class="st6" d="M206 96c2.2-.9 4.8-1.2 7.1-.7.6.2.6.9.6 1.4.5 5.2 1.5 10.4 2.1 15.6v.5c.2-.1.4-.1.6-.2-.4 3.9-.8 7.8-.9 11.7-.1 2.2-.4 4.4-.4 6.6v26c0 2.3.2 4.6-.4 6.8-.1-.5-.2-1-.3-1.4-.7-.8-1.8-.9-2.7-1.1-1.1-.3-2.1-1-3-1.6-2-1.5-4.2-2.7-6.1-4.4-4.2-3.4-7.4-7.9-9.6-12.8-1-2.5-2.2-4.9-3-7.5-3.2-10-1.3-21.4 5-29.8 2.7-4 6.3-7.5 11-9.1zM360.9 122.6c.2-.5.8-.4 1.2-.4 1.5.1 2.6 1.2 3.6 2.1 3 2.7 3.9 7 3.6 10.8-.5 4.6-2.2 9.1-4.7 13-1.8 2.8-4.3 5-6.8 7.2-1.3-1.5-1.2-3.6-1.3-5.5-.3-3.4 0-6.8.2-10.3.2-3.7.8-7.3 2-10.8.8-2 1.3-4.2 2.2-6.1z"/><path class="st5" d="M321.2 190.8c1.4-2.2 2.3-4.7 3.7-6.9-.4 5.1-1.3 10.2-3.1 15-1.1 2.8-2.2 5.7-3.9 8.3-1.3 2.2-2.8 4.4-4.9 5.9-3.4 2.4-6.9 4.5-10.4 6.8-4.2 2.4-7.9 5.7-10.3 9.9-2.3 4.2-3.3 8.9-5.3 13.2-2.1 4.7-4.8 9.4-9.1 12.5-2.8 1.9-5.6 3.8-8.8 5.2-4.2-1.9-7.9-5-11.3-8.1-3.5-3.1-6.6-6.8-9.3-10.5-2.5-3.3-4.3-6.9-6.4-10.4-2.6-4.8-4.9-9.7-7.3-14.5-2-3.9-4-7.7-5.6-11.8-1-2.7-2.3-5.3-3.4-7.9-.8-1.9-1.4-3.9-2.2-5.9-.2-.8 0-1.6.1-2.3 2.1 2.7 4.1 5.4 6 8.2 2.8 3.7 5.4 7.6 8.4 11.2 2.8 3.5 5.6 7.1 9 10.1 2.8 2.4 5.7 4.6 9 6.2 4.7 2.2 10.1 3.1 15.3 2.5 1-.2 1.9-.8 3-.7 2.8.2 5.5-.7 8.1-1.5 3-1 6.1-1.7 8.9-3.3 3.4-1.9 6.7-4 9.5-6.7 2-2 4.6-3.5 6.6-5.6 3.1-2.7 5.4-6.1 7.7-9.5 2-3.3 4.1-6.3 6-9.4z"/><path class="st4" d="M258 252.4c-3.5-3.1-6.6-6.8-9.3-10.5-2.5-3.3-4.4-6.9-6.4-10.4-2.7-4.7-4.9-9.7-7.3-14.5-2-3.9-4-7.7-5.6-11.8-1-2.7-2.3-5.3-3.4-7.9-.8-1.9-1.4-3.9-2.2-5.9-.2 2.4 0 4.8 0 7.3-.1 3.4.3 6.8.3 10.2.2 3.4.3 6.8.5 10.2 0 3.5.3 7 .3 10.5 0 4.2.1 8.5 0 12.7-.5 6.1-1.4 12.1-2.9 18-.7 2.8-1.8 5.5-2.8 8.2-1.1 2.7-2.4 5.3-4.2 7.7-1.2 1.6-2.7 3-4 4.6-3.2 3.6-6.6 6.9-10.2 9.9-1.8 1.6-3.7 3.2-5.6 4.6-4 2.9-8.2 5.5-12.4 8.1-2.8 1.7-5.7 3.1-8.6 4.7-2.3 1.1-4.5 2.4-6.8 3.3-.8.4-1.6.9-2.4 1.3-.2.1-.4.2-.5.2l-.6.3c-.3.2-.6.3-.9.4-.7 2-.5 4.2-.5 6.3.2 3.7.5 7.4 1.1 11.1.5 2.7 1.5 5.4 2.6 7.9 1.1 2.6 2.5 5.2 4.1 7.5 2.2 3.2 5.5 5.6 8.3 8.3 2 1.9 4.4 3.2 6.7 4.6 1.9 1.2 4 1.9 6 2.8 3 1.3 6.2 2.4 9.4 3.3 2.6.7 5.3 1 8 1.4 3.6.5 7.2.4 10.8.4 2.3 0 4.5.1 6.7-.3 2.8-.4 5.6-.9 8.4-1.2 1-.1 2.1-.1 3-.7-.4-.7-.6-1.5-.8-2.3-.3-1-1-1.7-1.7-2.4-1.4-1.5-2.6-3.1-3.8-4.8-1.1-1.5-2.4-3-3.5-4.5-2.7-3.6-5.5-7.1-7.1-11.3-1.1-3-1.6-6.2-1.3-9.4.3-4.2 1.5-8.4 3.3-12.3 1.7-3.8 4.2-7.1 6.8-10.2-.1-1.6-.4-3.2-.4-4.8.1-4 .5-8.1 2-11.9 1.4-3.5 3-6.9 5.2-10 2.5-3.5 5.4-6.8 9-9.2 3.2-2.2 6.3-4.6 9.9-6.1 4.6-2.1 9.8-2.7 14.3-5.2-4.4-2-8-5.1-11.5-8.2zM371.4 291.6c-3-1.7-6-3.7-8.3-6.3-1.4 2.5-3.4 4.5-5.3 6.6-2.2 2.5-3.2 5.8-5.6 8.2-.7.9-1.8 1.4-2.5 2.2-.4.8-.9 1.7-1.5 2.4-1.4 1.6-2.6 3.3-4.3 4.6-1.7 1.4-3.9 2.4-4.9 4.5-.8 1.9-.9 3.9-1.6 5.8-.8 2.5-2.4 4.7-4.3 6.5-1.6 1.5-3.7 2.5-5.1 4.3-2 2.8-1.8 6.5-2.3 9.8-.4 2.1-1.4 4-2.5 5.8 1.5-.5 2.8-1.3 4.2-2 4.1-1.8 8.1-3.8 12.1-5.9 7.4-3.9 14.3-8.7 20.8-14 7.1-5.8 13-12.9 17.7-20.7 1.4-2.3 2.2-4.8 3-7.3-3.4-1.2-6.6-2.7-9.6-4.5z"/><path class="st5" d="M346.8 303.6c1-.4 1.9-.9 2.9-1.3-.4.8-.9 1.7-1.5 2.4-1.4 1.6-2.6 3.3-4.3 4.6-1.7 1.4-3.9 2.4-4.9 4.5-.8 1.9-.9 3.9-1.6 5.8-.8 2.5-2.4 4.7-4.3 6.5-1.6 1.5-3.7 2.5-5.1 4.3-2 2.8-1.7 6.5-2.3 9.8-.3 2.1-1.4 4-2.5 5.8-1.8 1.3-4 2.1-6 3.1-1.3.6-2.5 1.2-3.9 1.6-.6-2.3-1.6-4.5-2.8-6.5-.9-1.6-1.9-3.3-1.9-5.3.1-1.4.3-2.9 1.4-3.8 1.2-1.1 2.5-2.1 2.9-3.7.5-1.7 1.3-3.3 1-5.1-.2-1.6-.8-3.2-.8-4.8.1-2 1.6-3.8 3.3-4.8 1.8-.8 3.9-1.2 5.9-1.2 1.9-.2 4-.1 5.8-.9 1.7-.8 3.1-2.3 4.1-3.9.9-1.4 1.8-2.9 3.3-3.9 1.8-1.3 4-1.9 6.2-2.1 1.8-.2 3.5-.4 5.1-1.1zM222.5 318c1.7-3.8 4.2-7.1 6.8-10.2.9 4.2 2.5 8.2 4 12.2 1.4 4 2.8 8 4.4 11.9.7 2.1 1.7 4 2.4 6.1 1.2 3 1.5 6.2 2 9.4.1 2.2.5 4.4-.1 6.5-.8 3.9-2.2 7.7-4.4 11-.4-.7-.6-1.5-.8-2.3-.3-1-1.1-1.7-1.7-2.4-1.4-1.5-2.6-3.1-3.8-4.8-1.1-1.5-2.4-3-3.5-4.5-2.7-3.6-5.5-7.1-7.1-11.3-1.1-3-1.6-6.2-1.3-9.4.1-4.2 1.4-8.4 3.1-12.2zM275 156.7c1.8-.3 3.4.8 4.8 1.6 1.1.7 2.4 1.1 3.6 1.4.2 1.4-1 2.3-1.8 3.3-1 1-1.9 2.4-3.4 2.7-.8.1-1.9.2-2.5-.6s-.6-1.9-.7-2.8c-.1-1.8-.3-3.7 0-5.6zM263.7 193.5c2.4-1.9 5.8-2.8 8.8-2.3 1.9.3 3.6 1.4 5.1 2.6 1 .9 2.1 1.8 2.8 3-2.5 0-4.8-.8-7.3-.9-3.5-.4-7-.2-10.5-.8.2-.6.6-1.2 1.1-1.6z"/><path d="M279.7 9.3c2-.2 4.1.1 5.8 1.2 1.5 1.1 1.4 3.2.7 4.7-1.4 3-3.8 5.4-5.6 8.1 3-.2 6-.7 9-.7 8-.3 16 .5 23.7 3 1.9.8 3.9 1.4 5.7 2.5 3.9 2.1 7.7 4.5 11.1 7.4 2.4 2.2 4.8 4.5 6.8 7 1.5 1.8 3 3.7 4.5 5.5 1.6 1.8 2.7 4 3.8 6.2.8 1.9 1.9 3.6 2.4 5.6-1-1.1-1.9-2.2-2.7-3.4.1 0 .3.1.5.2-.6-.2-1.4-1.9-1.9-2.4-.7-.8-1.5-1.6-2.4-2.2-1.6-1.3-8.4-6.9-8.8-7.2-1.8-1.2-3.7-2.3-5.6-3.3-2.4-1.3-4.9-2.7-7.5-3.6-5.9-2.2-12-4-18.3-4.6-2.9-.3-5.8-.8-8.8-.9-3.2-.3-6.5-.1-9.7-.1-2 0-3.9.2-5.9.3-1.7.1-3.4-.1-5.1.2.6-.4 1.2-.8 1.6-1.4.4-.5.7-1.3 1.5-1.5s1.6-.2 2.3-.3c2.8-.2 5.5-1.1 8.3-1.3 2.2-.2 4.4-.5 6.4-1.5-4.7-.5-9.4.2-14.1.7.8-.9 1.4-1.9 1.9-2.9-1.8.7-3.1 2.1-4.4 3.4-1 .9-2 1.8-3.1 2.6-.5-.5-.9-1-1.4-1.4 1.6-1.7 3.4-3.3 5-5.1 1.5-1.8 3.3-3.5 4.4-5.6-1.8 1.6-3.2 3.7-4.9 5.4-1.6 1.6-3.1 3.3-4.8 5-.2-.2-.4-.4-.7-.6 1-1.2 2-2.5 2.7-3.9-1.3.8-2.4 1.9-3.4 3.1l-3-.3c1.6 1.2 3.3 2.3 4.8 3.6-2.1.5-4.3.1-6.4-.4-1.3-.3-2.6-.4-3.8-.1 1.3.7 2.6 1 4 1.3-2.6.9-5.2 2-7.5 3.5-.6.4-.9 1.1-1.2 1.7 2.9-.6 5.4-2.2 8.2-3 .7-.2 1.5 0 2.2.2-2.2 1.4-4.6 2.5-6.8 3.9-4.2 2.6-8.1 5.6-12 8.7-1.5 1.4-3 2.9-4.6 4.2-3.8 3.1-6.8 7-9.9 10.8-1.6 2-2.9 4.1-4.2 6.3-2.3 3.5-4.2 7.1-6.1 10.8-2.6 5.1-5.1 10.2-7.6 15.3-.4.7-.8 1.4-1.2 2-.4-.4-1-.7-.9-1.2 0-1.6.6-3.2.9-4.7.6-2.9 1.6-5.7 2.5-8.6.7-2 1.2-4 2.1-5.9 2-4.6 4.4-9.1 7-13.4 3.3-5.1 6.7-10.2 10.8-14.6 2.8-2.9 5.6-5.8 8.9-8.3 3.2-2.2 6.2-4.8 9.6-6.7 1.7-1 3.5-1.8 5.2-2.7-2.2-.8-4.5-1.2-6.7-2.1s-4.4-1.8-6.5-2.9c-1.7-.9-3.2-2.2-4.1-3.9-.6-1.2-.5-2.8.5-3.9s2.6-1.6 4.1-1.5c3.1.1 5.9 1.4 8.6 2.7 3.1 1.8 6.4 3.3 9.6 5.1 1 .6 2 1.4 3.1 2 .7-2.1 1.4-4.1 2.2-6.1 1-2.6 2.2-5.1 4.2-7.1 1.4-1.5 3-2.7 5-2.9zm-5.6 9c-.9 1.9-1.8 3.9-2.2 5.9 1.3-1 2.1-2.5 2.9-3.9 1.4-2.3 2.7-4.7 3.5-7.3-2.1 1.2-3.3 3.2-4.2 5.3zM258.4 24c2.7.8 5.2 2.3 8 2.8-.6-.5-1.2-.9-1.8-1.3-2.8-1.4-5.6-2.7-8.4-4.1-2.2-1.1-4.4-2.1-6.8-2.9-1.1-.3-2.5-.8-3.4.1l12.4 5.4z" style="fill:#dc9eb5"/><path d="M274.9 23.9c1.7-1.7 3-3.8 4.9-5.4-1.1 2.1-2.8 3.8-4.4 5.6-1.6 1.8-3.3 3.3-5 5.1.5.5.9 1 1.4 1.4 1.1-.8 2.1-1.7 3.1-2.6 1.4-1.3 2.7-2.7 4.4-3.4-.5 1.1-1.2 2-1.9 2.9 4.7-.6 9.4-1.3 14.1-.7-2 1-4.2 1.3-6.4 1.5-2.8.2-5.5 1.1-8.3 1.3-.8.1-1.6.1-2.3.3-.8.1-1 .9-1.5 1.5-.4.6-1 1.1-1.6 1.4-1.5 1.2-3.4 1.9-5.2 1.2-.7-.2-1.5-.4-2.2-.2-2.8.8-5.3 2.4-8.2 3 .3-.6.6-1.3 1.2-1.7 2.3-1.5 4.9-2.6 7.5-3.5-1.4-.3-2.8-.7-4-1.3 1.3-.3 2.6-.2 3.8.1 2.1.5 4.3.9 6.4.4-1.5-1.4-3.2-2.4-4.8-3.6l3 .3c1-1.2 2.1-2.3 3.4-3.1-.7 1.4-1.6 2.7-2.7 3.9.2.2.4.4.7.6 1.5-1.7 3-3.4 4.6-5z" style="fill:#c96a98"/><path class="st9" d="M236.8 31.5c.9-.5 1.8-.9 2.8-1.1-1.3 1.2-3 1.9-4.4 3-3.8 2.7-7 6.2-9.7 9.9-1.6 2.2-3.2 4.5-4.4 6.9-.6 1.1-.9 2.3-1.6 3.4.1-1.6.9-3.1 1.6-4.5 2.1-4 4.8-7.6 7.7-11 2.3-2.5 4.9-4.8 8-6.6zM243.4 31.8c1.1-.5 2.4-1 3.7-.9-1.6 1-3.5 1.5-5 2.6-7.1 4.2-12.1 10.9-16.6 17.7-1.4 2.3-3 4.5-4.1 7-.2.5-.5 1.1-.8 1.6.4-2.3 1.8-4.2 2.9-6.2 2.8-4.5 5.7-8.9 9.1-13 3-3.5 6.6-6.8 10.8-8.8z"/><path d="M265.7 31.7c1.9 0 3.8-.2 5.7.1-1.1 1.3-3 1.8-4.6 1.2-.6-.2-.8-.8-1.1-1.3z" style="fill:#dc9eb4"/><path d="M260.7 50.2c2-1.5 4.5-1.9 6.8-2.3-1.3 1.4-3.1 2-4.7 3.1-4.2 2.5-7.9 5.9-11.1 9.6-1.1 1.2-1.9 2.7-3.3 3.7.1-.7.2-1.5.7-2.1 3.2-4.6 7.2-8.6 11.6-12z" style="fill:#fdb391"/><path d="M246.9 93.1c1.3-1.3 3.2-1.4 4.9-1.6 3.1-.1 6.1.3 9.1.9 1.7.5 3.6.8 5 1.9-1.9 0-3.8-.7-5.7-1.1-2.9-.5-5.9-.7-8.8-.5-1.5.3-3 .6-4.5.4z" style="fill:#febfa1"/><path class="st3" d="M274.1 104.4c-2.2-1.5-4.6-2.3-7.1-3.2-2.6-.9-5.4-1.3-8.1-1.9-3.6-.7-7.3-1-11-.5-3.2.4-6.3 1.3-9.4 2-2.3.5-4.4 1.4-6.5 2.5-.6-.3-1.2 0-1.6.4 1.9.1 3.8.2 5.7-.1.7 0 1.5.1 2.2.2 3.7.6 7.4.3 11.1.8 3.6.5 7.1 1 10.7 1.7 3.1.6 6.3.9 9.4 1.7 2.5.6 5.1 1 7.6.7 0-1.9-1.5-3.3-3-4.3zM296.3 113.7c4.3-2.1 8.8-4.3 13.6-4.1 3.7-.2 7.2 1.1 10.6 2.2 4.5 1.6 8.9 3.5 12.7 6.3 1.6 1.3 3 2.9 4.6 4.3.4.3.9 1.2 0 1.2-1.6-.2-3.1-1.1-4.6-1.6-4.4-1.6-8.9-3.1-13.5-4.1-4.2-.6-8.3-1.3-12.5-1.6-2.7-.2-5.4-.4-8.1-.7-1.2-.2-2.4.1-3.5-.1.2-.4.4-.9.5-1.4.1-.1.2-.3.2-.4z"/><path class="st13" d="M257.4 113.3c.6-.1 1.3 0 1.7.6.9 1 .8 2.5.7 3.8-.2 1.3-.4 2.7-1.4 3.6-.8.8-2.3.9-3.1 0-.6-.7-.8-1.6-.9-2.5.1-1.6.5-3.3 1.6-4.6.4-.4.8-.8 1.4-.9z"/><path d="M292.8 117.2c-1.8 2.9-3.3 6-4.2 9.3-.9 3.4-1.5 6.8-1.9 10.3-.5 6.6-.5 13.3 0 19.9 0 .7.2 1.5-.4 2-1.6 0-3-1-4.5-1.3-2.2-.5-4.2-1.9-6.5-2 .1.4 0 .9.4 1.3 1.7 1.4 3.6 2.6 5.8 3 1.8.4 3.7 1.1 5.5.4 1-.4 1.4-1.6 1.5-2.6.3-3.1-.1-6.2 0-9.4 0-6.5 0-13.2 1.6-19.5.8-3.6 2.3-7.1 4-10.4.5-.9 1.1-1.8 1.6-2.7.2-.4.4-.9.5-1.4-1.4.7-2.5 1.8-3.4 3.1z" style="fill:#b75b36"/><path d="M245.9 124.1c2.2.2 3.9 1.8 5.9 2.3 1.7.6 3.5.5 5.3.5v.9c-2.8.8-6 .6-8.6-.8-1.1-.7-2.4-1.5-2.6-2.9z" style="fill:#bc603d"/><path class="st13" d="M313 126c1-.2 2.1.2 2.5 1.2.6 1.2.1 2.6-.3 3.8s-1 2.5-2.2 3.1c-1 .5-2.4.1-2.9-1-.6-1.4-.3-3 .2-4.4.5-1.2 1.4-2.4 2.7-2.7z"/><path d="M284.1 134.1c.2 0 .5 0 .7-.1 0 2.6-.4 5.1-.5 7.7-.3 3 0 5.9.4 8.9-.1.1-.4.2-.5.3-1.2-3.4-.9-7-1-10.5 0-2.2.3-4.3.9-6.3z" style="fill:#febf9d"/><path class="st17" d="M205.5 132.6c-.9-3.9-1.3-7.9-.5-11.9.5-2.6 1.3-5.2 3.1-7.2.9-1 2.2-1.5 3.5-1.7-.1-.5-.1-1.3-.8-1.3-2.2-.4-4 1.4-5.1 3.1-2.8 4.4-2.9 9.9-2.1 14.9.5 2.5.9 5 2 7.3.4 1.7 1.5 3.1 2.3 4.6.2 0 .6 0 .8.1-.7-1.7-1.5-3.3-2.4-4.9-.1-1-.5-2-.8-3z"/><path d="M310 139.6c.7 0 1.4.2 2.1.5 2.2 1 4.6 1.3 6.9 1.4 1 .1 2-.2 3.1-.2.1.2.2.5.3.7-2.7 1.1-5.7.9-8.5.6-1.6-.2-3.9-1-3.9-3z" style="fill:#b95e3a"/><path class="st17" d="M238 161.1h-.3c-1.3-4.2-3.2-8.2-5.3-12-1-1.8-1.3-3.9-2.5-5.6-.4 3 1.2 5.6 2.5 8.1 1.7 3.1 3.2 6.2 4.6 9.4h-.2c1 2.2 1.7 4.5 2.4 6.8.1 0 .4.1.6.2-.4-2.4-1.2-4.7-1.8-6.9z"/><path d="M248.8 163.1c.3-.6 1-.4 1.5-.4 2.8.5 5.6 1.2 8.4 1.5 2.8.3 5.7.3 8.5.2 1.8 0 3.7-.3 5.4.6.4.2.7.3 1.1.5.5.3 1 .7 1.6.9.7.1 1.4.1 2.2 0 .8-.1 1.5-.2 2.3-.4 1.7-.4 3.5-.1 5.2.4 2.3.6 4.4 2 6.8 2.6 3.3 1 6.6 2.3 10.2 2.3-.6 4-3.4 7.1-5.8 10.1-1.4 1.9-3.5 3.1-5.5 4.4-4.1 2.5-8.8 4.2-13.6 4.3-2 .1-3.9-.5-5.9-.7-1.9-.2-3.7-.7-5.5-1.4-3.2-1.3-6.4-3-8.9-5.5-1.4-1.3-2.6-3-3.9-4.4-1.4-1.5-2.4-3.3-3.1-5.2-.8-1.4-1.4-3-1.3-4.6-.2-1.6-.7-3.6.3-5.2z" style="fill:#d1434f"/><path d="M254.3 165.7c3.2.4 6.3 1.4 9.5 1.9 3 .4 6.1.8 9.1 1 1.8.1 3.6.6 5.5.8 2.6.4 5.1 1 7.8 1.2 3.1.4 6.1.9 9.2 1.4-.2 2-1.4 3.8-2.3 5.5-.9 1.9-3.1 2.6-4.8 3.5-4.2 1.9-8.8 2.7-13.4 2.8-3.3.1-6.5-.9-9.5-2.2-2.2-.9-4.2-2.2-6-3.6-1.4-1.1-2.8-2.4-3.3-4.2-.4-1.4-.8-2.8-1.1-4.2-.4-1.3-.3-2.6-.7-3.9z" style="fill:#fff"/><path class="st17" d="M319.9 165.5c-1.7 1.5-3.3 3.1-4.9 4.7-.8.8-1.7 1.6-2.4 2.6h-.4c-.6.8-1.2 1.7-1.5 2.7 1-.1 1.7-1 2.3-1.8.2-.1.5-.3.7-.5 2.9-3.1 6.4-5.5 9.4-8.5.7-.7 1.1-1.7 1.3-2.7-1.8.7-3.1 2.2-4.5 3.5z"/><path d="M256.1 177.6c1.7 1.6 3.2 3.3 5 4.6 1.1.9 2.5 1.3 3.6 2.2-1.9-.2-3.6-1.2-5.2-2.3-1.5-1-2.7-2.3-3.7-3.7.1-.3.2-.5.3-.8z" style="fill:#f09280"/><path d="M223.7 188.3c1.2 1 2 2.4 2.9 3.7.6 1 1.4 1.8 1.9 2.9-.2.4-.4.9-.6 1.3-1.5-1.9-2.7-4-3.9-6-.4-.6-.4-1.3-.3-1.9z" style="fill:#c06946"/><path d="M264.6 201c4.3-.5 8.6.3 12.7 1.6v.8c-2.1-.1-4.1-.7-6.2-.8-2.7-.3-5.4-.1-8.1-.3.2-.8.8-1.3 1.6-1.3z" style="fill:#fdb796"/><path d="M323.7 188.5c-3.9 5.9-7.7 11.9-12.7 16.8-1.4 1.7-3.1 3-4.4 4.8-1 1.4-2.3 2.4-3.6 3.6-1.8 1.7-3.9 2.9-5.9 4.3-2.1 1.6-4.5 2.6-6.6 4.1-.8 0-1.5.5-2.3.8-1.7.8-3.6 1.5-5.4 2.1-2.6.3-5 1.2-7.6 1.5-1.9.3-3.8.1-5.7.2-3.2-.3-6.5-.1-9.5-1.3-2.2-.7-4.4-1.7-6.4-3-1.6-1.1-3.3-2-4.7-3.3-1.9-1.6-3.8-3.4-5.5-5.3-2-2.2-3.7-4.5-5.7-6.8-2.2-2.6-4.1-5.5-6.2-8.2-1.1-1.4-2-2.9-3.2-4.3-.2.4-.4.9-.6 1.3 3.6 5.3 7.1 10.9 11.6 15.4 1.3 1.3 2.5 2.9 3.8 4.3 3.2 3.4 6.7 6.5 10.8 8.8 1.9 1.1 4 1.7 6.1 2.2 3.2.9 6.6 1.4 10 .9 4.6.3 9-1 13.4-2.1 1.2-.4 2.4-.9 3.6-1.4 1.5-.6 3.1-1 4.4-2.1.3 0 .6-.2.9-.3 2.3-1.2 4.6-2.6 6.8-4 2.6-1.5 4.8-3.6 7.1-5.6 1.7-1.8 3.7-3.3 5.1-5.3 2.1-2.8 4.6-5.2 6.6-8 2.5-3.1 4.3-6.8 6.2-10.3-.1.3-.2.2-.4.2z" style="fill:#b95d38"/><path class="st25" d="M388 346.2c.4-1.2.5-2.6 1.5-3.4 0 2.7-.6 5.4-1.3 8-1.6 5.4-3.8 10.5-6.3 15.5-2.6 5.2-5.4 10.4-7.6 15.9-4.8 11.7-8.4 23.8-11.4 36.1-.3.9-.7 1.9-1 2.8.2-1.5.4-3 .5-4.5.3-2.7 1.1-5.3 1.7-7.9 3-11.4 6.2-22.9 11.1-33.6 2.4-5.1 5.2-10 7.4-15.2 2.1-4.4 3.9-9 5.4-13.7zM348.4 363h.8c-1.9 4.1-5.3 7-8.5 9.9-1.4 1.2-2.9 2.4-4.5 3.2-.6.3-1.3.4-2 .5.2-1.4 1.7-1.9 2.7-2.8 4.3-3.1 8.8-6.2 11.5-10.8zM369.4 367.3c.3-.9.5-1.9 1.5-2.1-.5 5.6-2.5 10.9-4.5 16-2.1 5.4-4.3 10.9-5.9 16.5-2 6.9-3.3 14-4.3 21.2-.3 2-.4 4-.8 6-.3 1.4-.5 2.8-.7 4.2-.1-2.9.2-5.8.2-8.7.1-2.5.5-5 .8-7.4.9-6.4 1.9-12.7 3.8-18.9 2-6.3 4.5-12.3 6.9-18.4 1.2-2.7 2.1-5.5 3-8.4zM142.8 366.3h.8c1.4 4 3.9 7.5 6.5 10.8l4.5 5.7c.6.7 1.1 1.6 1.5 2.5-1.3-.8-2.2-2.1-3.2-3.2-2.5-2.8-4.9-5.6-7.1-8.7-1.4-2.1-3.1-4.4-3-7.1zM383.7 383.1c.2.1.5.1.8.2-1 2.3-2.1 4.6-3.2 6.9-.1-.1-.2-.4-.2-.5-.1 0-.3-.1-.4-.1.9-2.3 1.9-4.4 3-6.5zM121 386.7c-.2-.5.1-1 .3-1.5 1 1.4 1.5 3.1 2.4 4.6 1.3 2.3 2.5 4.5 3.5 6.9 3.4 8.4 6.3 17 7.4 26 .7 6.2 1.5 12.5 1.7 18.7 0 1.2-.1 2.5-.1 3.7-.2-.4-.4-.8-.6-1.3-.4-1.4-.3-2.8-.5-4.2-1.1-11.3-2.8-22.6-6.5-33.3-1.4-4.1-2.7-8.1-4.6-12-1.1-2.4-2.4-4.9-3-7.6z"/><path class="st25" d="M380.6 389.5c.1 0 .3.1.4.1.1.1.2.4.2.5-4.3 9.8-8.6 19.7-11.9 30-1 3.2-1.8 6.4-2.1 9.7-.1 1-.4 1.9-.7 2.8-.2 0-.5 0-.7.1.3-2.3.3-4.6.8-6.8 1.1-5.4 3.1-10.6 5-15.7 2.8-7 5.9-13.9 9-20.7zM303 391.7c.6.4 1.2.9 1.3 1.7.4 1.9-.9 3.6-2.1 5-3.2 3.8-6.1 7.8-8.5 12.2-1 1.8-1.7 3.7-2.5 5.5-.2.6-.9.4-1.3.6 1.1-4.3 3.1-8.3 5.4-12 1.6-2.5 3.2-4.9 5.1-7.1.8-1 1.7-1.9 2.3-2.9.6-.8.3-2 .3-3zM115.6 399.8c.2 0 .5-.1.7-.1-.7 10.7 1.1 21.5 4.1 31.8.5 1.9 1.3 3.7 1.8 5.6 0 .1-.1.2-.2.2-.1.1-.2.3-.3.4-4.1-11.2-7.3-23-6.6-35 .1-1 .3-2 .5-2.9zM337 400.6c.4-.4.9-.6 1.5-.8-.4 1.5-1.7 2.4-2.7 3.4-3.6 3.2-7.5 6-11.3 8.8-2 1.5-4.4 2.5-6.1 4.4l-1.2 1.2c-.4-1.5.8-2.7 1.8-3.6 2-1.8 4.3-3.1 6.5-4.6 3.8-2.7 7.9-5.4 11.5-8.8z"/><path class="st9" d="M317.1 17.4c3 1.4 6 2.8 8.7 4.6 3.5 2.3 6.7 5.1 9.7 8 3.5 3.4 6.8 7.1 9.8 11 .9 1.2 1.7 2.4 2.9 3.3-.3-1.2-1-2.1-1.7-3.1-2.7-3.9-5.9-7.5-9.2-11-2.9-3-6.1-5.8-9.6-8.1-3.1-2.1-6.5-3.7-10-5.3-5.4-2.4-11.2-4.8-17.2-4.6 1.9.6 3.8.8 5.7 1.3 3.8.8 7.4 2.4 10.9 3.9z"/><path class="st9" d="M298.7 17.8c2.7.2 5.4.4 8.1 1 3.5.9 6.9 2.2 10.2 3.7 4.2 1.9 8.2 4.3 11.9 7.1 6 4.6 11.4 9.9 16 15.9 1 1.3 2 2.6 2.9 3.9.5.7 1.1 1.4 1.8 1.9-.2-.8-.5-1.5-1-2.1-1-1.4-2-2.9-3.1-4.3-4.1-5-8.4-10.1-13.5-14.2-6.9-5.6-14.9-10.1-23.5-12.7-2.3-.7-4.6-.9-6.9-1.1-3.6-.3-7.2-.1-10.6 1 2.4.2 5-.4 7.7-.1zM328.3 53.2c-2.4-1.7-4.8-3.2-7.3-4.6-1.4-.8-2.9-1.7-4.4-2.3-4-1.8-7.9-3.8-12.2-4.9-1.8-.5-3.5-1.2-5.4-1.2 2.8 1.3 5.9 1.8 8.8 3 4.3 1.7 8.6 3.7 12.6 6.1 7 4.1 13.3 9.3 18.8 15.2 3.4 3.7 6.3 7.8 9.2 11.8 1 1.3 1.8 2.9 3.2 4-1.1-2.4-2.8-4.6-4.3-6.8-2.5-3.6-4.9-7.1-7.9-10.3-3.3-3.7-7.1-7-11.1-10z"/><path class="st9" d="M344.8 56.3c-1.8-2.2-3.9-4-6-5.9-.9-.7-1.9-1.3-2.9-1.7.9.7 1.8 1.3 2.5 2.2 1.2 1.5 2.8 2.7 4 4.3 3.4 4.3 6.8 8.6 9.6 13.3 1 1.6 1.5 3.4 2.4 5 .4 1.6 1.1 3.1 1.4 4.7.5 1.8.6 3.7 1 5.6.2 2.8.7 5.5.7 8.3 0 2.9.4 5.9.1 8.8-.1 1.1-.1 2.2-.2 3.3-.3 4.8-1.4 9.5-2.1 14.2-.3 2-.8 3.9-.9 5.9-.6 1.7-.7 3.5-1 5.2-.4 2.4-.9 4.7-1.1 7.1.9-1.7 1-3.7 1.4-5.5.3-1.7.8-3.3.9-5 .6-2 1.1-4.1 1.5-6.1 1.2-6.9 2.6-13.9 2.7-21 0-5.7-.3-11.4-1.4-17 .1-.7-.1-1.4-.2-2-.5-2.3-1.2-4.6-2.1-6.7-1.5-5-4.3-9.4-7.5-13.5-1.1-1.2-2-2.3-2.8-3.5zM364 187.6c-.6-3.6-2.5-6.6-4-9.9-1.4-3.3-3.3-6.5-4.9-9.8-.9-2.2-1.5-4.5-2.1-6.7-1-3.1-1.3-6.4-1.8-9.6-.2-1.6.2-3.2.2-4.8-.5 1.3-.6 2.8-.6 4.2-.1 3.4.3 6.8 1.1 10.1.7 2.8 1.3 5.6 2.6 8.1 1.4 3 3.1 5.8 4.5 8.8 1.8 3.6 4.2 7.2 4.2 11.3-.2 3.8-.9 7.8-3.1 11.1-2 3-4.9 5.3-7.1 8.1-1.8 2.3-2.9 4.9-3.6 7.7-1 4.5-1.4 9.2-1 13.8.1 0 .4.1.6.2-.2-4.3.3-8.5 1.2-12.7.7-3.1 1.9-6.1 3.8-8.6 2.1-2.7 4.9-4.9 6.8-7.8 1.7-2.5 2.6-5.4 3-8.3.3-1.7.6-3.5.2-5.2zM296.4 291.6c5.9-4 10.7-9.6 13.7-16.1 2-4.6 2.6-9.7 2.5-14.8-.1-5.1 1.4-10.1 3.9-14.4 1.8-2.8 3.9-5.4 6.5-7.6 2.1-1.8 4.1-3.7 6.1-5.5 2.6-2.4 4.9-5.2 7.2-8 2.2-2.9 4-6.2 5.3-9.6 1.6-4.6 2.6-9.6 2.1-14.5-.4-3.4-.5-6.8-.9-10.2-.4-4.3 0-8.5.4-12.8l.1.1c.1-1.1.1-2.2.4-3.3.3-1.5 1-2.8 1.5-4.2-1.6 1.6-2.4 3.9-2.5 6.2-.8 4.9-1.4 9.9-.9 14.8.3 2.9.4 5.8.7 8.7.3 2.6.1 5.2-.3 7.8-.8 4.1-2 8.2-4 11.9-1.8 3.3-4.1 6.1-6.6 8.9-3.9 4.5-8.9 8-13 12.4-3.2 3.7-5.6 8.2-6.6 12.9-1 4.2-.4 8.5-.8 12.7-.3 2.5-.8 4.9-1.6 7.2-2.7 6.8-7.8 12.6-14 16.4-3.3 2-6.8 3.9-10.3 5.7-2.8 1.4-5.5 3.1-7.9 5.1-2 1.7-3.7 3.7-5.1 6-4.4 7.6-5.7 17.4-2 25.5 1.6 3.7 3.8 7.2 4.2 11.3.5 3.4.4 6.9-.7 10.2-1.2 3.6-3.9 6.3-6.6 8.9-1.8 1.7-3.4 3.7-4.6 5.9-2 3.6-3.1 8-1.8 12.1.7 2.3 2.2 4.3 3.9 6 2.4 2.4 3.9 5.7 4.6 9h.8c-.3-2.6-1-5.1-2.3-7.4-1.3-2.4-3.4-4.2-4.6-6.7-1.4-2.8-1.3-6.2-.4-9.2 1.1-3.6 3.5-6.7 6.2-9.3 2.6-2.5 5-5.3 6-8.9 1.4-4.1 1.2-8.6.4-12.8-.5-2.2-1.4-4.2-2.3-6.2-1.6-3.3-2.9-6.7-3.3-10.3-.5-5 .3-10.2 2.4-14.8 1.4-3.3 3.6-6.3 6.4-8.6 3.2-2.6 7-4.5 10.6-6.4 2.4-1.3 4.9-2.6 7.2-4.1z"/><path class="st9" d="M347.6 259.5c-.6-1.2-1.7-2.1-2.1-3.4-.5-1.4-.7-2.9-.4-4.4.4-2 1.1-3.8 1.7-5.8.7-2.1 1.7-4.1 2.1-6.3l.2.1c.1-1.2.3-2.4-.4-3.4-.3 1.2-.4 2.3-.6 3.5-1.5 3.8-3.3 7.5-4.2 11.5-.4 2.4-.1 5.1 1.4 7 2.4 3.1 3.4 7.3 2.7 11.1-.5 3.3-1.3 6.6-2.8 9.6-2.2 4.1-5.1 7.9-9 10.6-5.4 3.9-11.8 5.6-17.9 8-3.6 1.1-7 2.6-10.3 4.4-3.1 1.9-6.2 3.8-8.7 6.5-3 3-5.6 6.6-7 10.6-1.2 3.3-.8 6.9-.6 10.4.2 2.6.4 5.2-.4 7.7-.7 1.6-2.1 2.7-3.1 4.1-1.2 1.7-2.2 3.7-2.1 5.9-.1 2.4 1 4.6 2.3 6.5 1.2 1.8 1.8 4 1.6 6.2-.2 2-.4 4-1.4 5.8-1.8 3.3-5.4 5.3-7 8.7-1.2 2.2-1.5 4.8-1.5 7.3.1 1.5-.1 3.1.2 4.6 0 1.1.1 2.2.3 3.3h.7v-6.1c.2-3.1.7-6.3 2.2-9.1 1.3-2.4 3.6-4 5.2-6.1 2.2-2.5 2.8-6 2.8-9.3.1-2.3-.7-4.5-1.9-6.3-1.1-1.7-2-3.5-2.1-5.6 0-1.7.7-3.3 1.6-4.6 1.1-1.7 2.8-2.9 3.6-4.7.7-1.7.8-3.7.7-5.5 0-3.7-.8-7.5-.1-11.2.6-3.2 2.3-6 4.2-8.5 4.6-6 11.4-10 18.4-12.8 1.1-.4 2.2-.7 3.2-1.2l2.1-.6c4.2-1.6 8.6-2.9 12.6-5.1 2.4-1.4 4.7-2.9 6.7-4.9 2.4-2.4 4.4-5.1 6-8.1 1.8-3.3 2.6-7.1 3-10.8.4-3.4-.4-6.7-1.9-9.6z"/><path class="st9" d="M334.1 240.6c1.4-1.3 2.5-3 3.7-4.5-.1-.1-.2-.4-.2-.6-1.6 1.5-3.1 3.1-4.5 4.9-3 3.6-5.3 7.9-5.7 12.5-.5 4.7 1.9 9.1 1.5 13.8-.2 1.9-.5 3.8-1.1 5.6-.7 2-2 3.7-3.1 5.4-2.3 3.3-5.2 6.3-8.5 8.6-3.5 2.4-7.1 4.6-10.7 6.7-5.4 3.6-11.1 6.9-15.9 11.4-1.9 1.9-3.7 3.8-5.3 6-2.2 3-3.9 6.6-3.9 10.4 0 4.5 1.6 8.8 1.5 13.3.1 2.1-.3 4.2-.7 6.2.3 0 .5 0 .8-.1 1.6-4.8 1.3-9.9.6-14.8-.4-2.7-.7-5.5 0-8.1 1.4-5 5.1-8.9 8.6-12.6 1-.7 1.7-1.6 2.7-2.4 3.5-2.8 7.5-5.1 11.2-7.6 2.1-1.4 4.3-2.4 6.4-3.8 3.7-2.4 7.5-4.7 10.7-7.8 2.2-2.3 4.1-5 5.8-7.7 1.7-2.7 2.1-5.9 2.3-9 .4-4.7-2-9.1-1.5-13.8.4-4.4 2.7-8.4 5.3-12zM261.7 299.7c1.3-3 3.6-5.4 6.2-7.4 2.8-2.2 5.9-4.1 9-6 4.1-2.5 8.7-4.2 12.8-6.8 6.1-4.2 10.8-10.4 12.9-17.5.9-2.5.6-5.3 1-7.9-.8.7-1 1.7-1.1 2.7-.1 1.4-.4 2.7-.7 4.1-1.2 4-3.3 7.7-6 10.9-2.2 2.8-5 5.1-8 6.9-1.9 1-3.8 2-5.7 2.9-3.7 1.5-7.1 3.7-10.5 5.8-3 2.1-6 4.2-8.5 7-2.9 3.3-4.5 7.5-5 11.8-.5 3.8-.8 7.7-.2 11.4.6 3.7 2.4 7.1 3.8 10.6.3 1.8 1 3.5 1.4 5.3.9 4.1 1.3 8.4 1.2 12.6h.3c.1-5-.3-9.9-1.3-14.8-.3-1.3-.5-2.7-1.1-3.9-.4-2-1.3-3.9-1.8-5.9-1.5-4.9-1.3-10.2-.6-15.2.3-2.2.9-4.5 1.9-6.6z"/><path class="st9" d="M262.3 402.9c-1.6-1-3.4-1.9-5.2-2.5-3.7-1.2-7.5-2.5-10.7-4.8-2.2-1.6-3.4-4-4.4-6.4-1.1-2.7-1.2-5.9-.3-8.7 1.4-4.5 4.1-8.4 7.1-12 1.5-1.9 3.1-3.8 4.3-5.9 2.2-3.8 3.6-8.1 4.3-12.5.4-2.6.7-5.3.5-7.9-.4-3.9-1.9-7.5-3.3-11.2-1.1-2.9-2.6-5.5-3.9-8.2-.8-1.5-1.7-3-2.2-4.7-1.4-4.2-2.5-8.7-1.8-13.2.4-6.5 3.4-12.8 8-17.4 3-2.9 6.4-5.6 10.3-7.4 4.8-2.1 9.8-4 14.5-6.4 1.5-.5 3-1.4 4.4-2.1 2.6-1.3 4.6-3.3 6.5-5.3 3.2-3.8 5.4-8.5 6.4-13.4.6-2.7.8-5.6 1.7-8.2 1.5-4.5 4.3-8.4 7.7-11.6 2.3-2.2 5.1-3.9 7.6-5.9 1.4-.5 2.6-1.6 3.9-2.4 4.6-2.8 7.9-7.1 10.1-12 1.9-3.9 2.7-8.2 3.2-12.4.6-4.1 0-8.3.5-12.5.1-3 1-5.8 2-8.5-1 1.2-1.5 2.7-1.9 4.1-1.1 4-.9 8.1-1 12.2-.2 6.9-1.5 14-5.2 19.9-1.9 3.3-4.7 6.1-7.8 8.2-1.6 1.1-3.4 2.1-4.9 3.5-.2 0-.5.1-.6.3-3 2.1-6.1 4.2-8.6 7-3.8 4-6.5 9.1-7.2 14.6-.3 2.5-.7 5-1.4 7.4-1.6 5.2-4.6 10.2-9.3 13.1-2.4 1.5-5 2.4-7.6 3.5-3.1 1.5-6.4 2.7-9.6 4-3.4 1.4-6.8 2.8-9.7 4.9-3.1 2.4-6.1 4.9-8.4 8.2-2.7 3.8-4.6 8.2-5.2 12.8-.4 2.8-.6 5.7-.1 8.5.5 2.9 1.4 5.8 2.5 8.6 1.9 4 4.3 7.9 5.8 12.1 1.6 4.1 3.3 8.4 3.1 12.8-.3 7.4-2.7 14.8-7.4 20.6-2.7 3.2-5.4 6.5-7.4 10.3s-3.2 8.2-2 12.4c1 3.4 2.5 6.8 5.4 8.9 1.9 1.3 4.1 2.1 6.2 2.9 3.6 1.3 7.6 1.9 10.9 3.9v.2c1.4.9 2.8 1.9 3.9 3.2.8.9 1.2 2.1 2 3-.2-3.7-3.1-5.9-5.7-7.6z"/><path class="st25" d="M145.3 407.6c1.6 0 3 .9 4.3 1.9 1.5 1.2 2.6 2.8 3.6 4.4 2.1 3.5 3.9 7.1 5.3 10.9-.2.1-.5.2-.7.4-1.4-3.4-3.2-6.6-5.1-9.7-1.1-1.7-2.2-3.5-3.7-4.9-1-1.2-2.6-1.8-3.7-3zM171.8 409.4c.2-.1.7-.2.9-.3 2.6 2.3 3.8 5.5 5.5 8.4 1.1 2 2.3 4.1 3.8 5.9.4.4.5 1 .5 1.6-2.3-1.7-3.7-4.3-5.2-6.6-1.5-2.4-2.8-5.1-4.5-7.4-.4-.4-.7-1-1-1.6zM126.3 427c.6 4.8.7 9.7.6 14.6.1 2.2.1 4.5-.1 6.7h.4c.1-.2.1-.4.2-.6.3-1.7.3-3.5.5-5.2.4-8 1-16.2-1.5-24-.8-2.6-2.1-4.8-3.2-7.2-.2 0-.6-.1-.8-.1.1 2 1.2 3.8 1.8 5.7 1.1 3.1 1.7 6.6 2.1 10.1zM361.6 420.3c.2-1.2.4-2.5.8-3.6-.1 1.5-.3 3-.5 4.5.3-.9.7-1.9 1-2.8-.2 1.8-.5 3.6-1.1 5.3-.1.5-.6.7-1 .9.2-1.5.6-2.9.8-4.3zM217.2 420.8c-.3-.5.3-1 .8-.8 1.7.6 3.1 1.8 4.5 3 3 2.7 5.9 5.6 8 9.1-.2.1-.5.3-.6.5-2.2-3.5-5.3-6.3-8.6-8.9-1.3-1.2-2.8-2-4.1-2.9zM354.1 431.9c.5-3.8.2-7.6.9-11.3 0 2.9-.3 5.8-.2 8.7.2-1.4.4-2.8.7-4.2.1 2.3-.2 4.6-.6 6.9-.2-.2-.6-.2-.8-.1z"/><path class="st25" d="m158.5 424.8 1.5 3.9c-.2 0-.5.1-.7.2-.6-1.2-1.1-2.4-1.5-3.6.2-.3.5-.4.7-.5zM229.9 432.5c.2-.1.5-.3.6-.5.6 1.1 1.2 2.3 1.3 3.6-1-.8-1.4-2-1.9-3.1zM126.3 448.2h.5c.2-2.2.3-4.5.1-6.7-.4 1.9-.1 3.8-.4 5.7-2-3.1-2.8-6.8-4.4-10.1 0 .1-.1.2-.2.2-.1.1-.2.3-.3.4 1.2 3.4 2.5 6.8 4.3 9.9.3.2.4.4.4.6zM136.5 448.2c.1-2.2.2-4.5-.2-6.7 0 1.2-.1 2.5-.1 3.7-.2-.4-.4-.8-.6-1.3v4.2l.9.1z"/></svg>