<svg version="1.1" id="Layer_1" xmlns="http://www.w3.org/2000/svg" x="0" y="0" viewBox="0 0 536 448.2" style="enable-background:new 0 0 536 448.2" xml:space="preserve"><style>.st2{fill:#7e2448}.st3{fill:#ac3062}.st5{fill:#ee5c30}.st7{fill:#4f3e37}.st8{fill:#15100d}.st9{fill:#fbbb9e}.st12{fill:#b95d38}.st14{fill:#150f0c}</style><g style="opacity:.35"><path d="M484.6 448.2H51.4C23 448.2 0 425.2 0 396.8V135.6c0-28.4 23-51.4 51.4-51.4h433.2c28.4 0 51.4 23 51.4 51.4v261.2c0 28.4-23 51.4-51.4 51.4z" style="fill:#d6dce5"/></g><path class="st2" d="M270.3 15.4c6.2-1.8 12.7-2.7 19.1-1.6 2.5.4 4.9 1.4 7.3 2.3 1.9.7 3.7 1.4 5.5 2.1 2.5.9 4.8 2.3 7 3.8 1.4 1 2.8 2 4 3.2 1.1 1.1 1.8 2.5 2.6 3.9.9 1.6 1.6 3.3 2.2 5h1.1c-1.1.6-2.4.8-3.6 1.2-2.5.8-5 1.9-7.4 2.9-2.9 1.1-5.8 2.5-8.5 4.1-3.8 2-7.5 4.3-11 7-2.6 2.1-5.4 4-7.8 6.4-2.4 2.3-4.7 4.8-6.8 7.3-2.5 3-4.5 6.5-6.5 9.9-2.2 3.9-4.1 7.9-5.7 12.1-1.2 3.6-2.5 7.1-3.3 10.8-.9 4.1-1.9 8.2-2.2 12.3 0 1.4-.2 2.7-.4 4.1-.2 2.7.2 5.4.4 8.1.3 3.8 1.2 7.6 2.2 11.2.8 2.7 1.9 5.3 3.4 7.7.9 1.4 1.6 2.9 2.4 4.4 1.7 2.9 4 5.4 5.6 8.3 1.7 2.8 3.1 5.8 4.1 8.9 1.2 3.7 2.1 7.5 2.2 11.4 0 1.4-.2 2.7-.2 4.1-2.1.7-4.2 1.4-6.4 1.9-1.4.4-2.9-.2-4.3 0-.8 0-1.5-.1-2.2-.3-2.2-.6-4.3-1.6-6.5-1.8-2-.2-3.5 1.2-4.8 2.4-2.2 1.9-5.3 2.6-8.2 2.5-1.7 0-3.3-.4-4.8-.9-2.6-.8-4.7-2.4-7.1-3.7-2.5-1.3-5.2-2.3-8.1-2.2-2.5-.1-4.8.9-7.2 1.4-1.8.4-3.6.8-5.4.6-4.2-.5-7.9-2.7-10.9-5.6-2-1.8-3.8-4-4.9-6.5-.9-1.8-1.2-3.8-2.1-5.5l-1.2-2.4c-.4-.9-1.4-1.4-2.1-2.1-3-2.6-5.3-6.2-5.5-10.2-.2-2.2.6-4.3 1.1-6.4.6-2.7 2.2-5 3.3-7.5 1.9-3.7.6-8 2.2-11.7 1.1-2.5 3.1-4.8 5.7-5.7 2.3-.8 4.8-1.1 6.8-2.6 1.7-1.3 2.7-3.3 3-5.4.5-2.4.5-5-.6-7.2-.7-2-1.6-4-1.9-6.2-.2-2.1 0-4.2.4-6.3.7-4 1.9-8 4.1-11.4 2.1-2.9 4.5-5.4 7-7.8 1.5-1.4 2.2-3.2 3.1-5 1.5-2.9 3.2-5.9 5.8-7.8 1.7-1.4 3.8-2.3 5.9-2.6 1.6-.3 3.3-.3 4.8-.8 2-.7 3.9-1.7 5.4-3.1 1.9-1.8 3.2-4.2 4.2-6.6 1-2 1.7-4.1 3-5.9.9-1.6 2.2-3.1 3.4-4.5 3-4.4 7.1-8.2 12-10.5 2.5-1.5 4.8-2.8 7.3-3.5z"/><path class="st3" d="M397.9 84.8c-1.3-4.5-3.2-8.8-5.8-12.8 0 .4 0 .7.1 1.1-.3-.5-.7-.9-1.2-1.4l-.9-.6c-.5-1.9-1.2-3.7-2.3-5.3-.3-.5-.8-1.1-.5-1.7-1.5-2.2-3.5-4-5.2-6.1-1.4-1.6-3.1-2.9-4.4-4.6-1.1-1.4-2.4-2.4-3.8-3.5-.1 0-.3.1-.4.1-.1-.2-.2-.3-.4-.5-1.1-1.3-2.4-2.5-3.9-3.4-1.2-.9-2.4-1.7-3.7-2.5-3.2-1.9-6.7-3.3-10-5-8-3.8-17-5.3-25.8-5.7-2.1 0-4.2.2-6.3.2-1.5.1-3 .3-4.5.7-1.1.6-2.4.8-3.6 1.2-2.5.8-5 1.9-7.4 2.9-2.9 1.1-5.8 2.5-8.5 4.1-3.8 2-7.5 4.3-11 7-2.6 2.1-5.4 4-7.8 6.4-2.4 2.3-4.7 4.8-6.8 7.3-2.5 3-4.5 6.5-6.5 9.9-2.2 3.9-4.2 7.9-5.7 12.1-1.3 3.6-2.5 7.1-3.3 10.8-.9 4.1-1.9 8.2-2.2 12.3 0 1.4-.2 2.7-.4 4.1-.2 2.7.2 5.4.4 8.1.3 3.8 1.2 7.6 2.2 11.2.8 2.7 1.9 5.3 3.4 7.7.9 1.4 1.6 2.9 2.4 4.4 1.7 2.9 3.9 5.4 5.6 8.3 1.7 2.8 3.1 5.8 4.1 8.9 1.2 3.7 2.1 7.5 2.2 11.4 0 1.4-.2 2.7-.2 4.1 3.4-1.1 6.8-2.4 9.6-4.7 4.4-3.7 7.8-8.4 11.4-12.8 3.7-4.4 8.3-8.1 13.5-10.5 4.2-1.9 8.6-3.3 12.8-5.2 8.7-3.9 16.9-8.8 24.8-14.1 6.8-4.7 13.6-9.5 21.1-13 2.3-1.1 4.6-1.8 7-2.7 1.7-.6 3.3-1.5 4.9-2.3 1.5-.7 3-1.3 4.5-2 2-1.1 4.2-1.8 5.8-3.4-.5.6-.6 1.2-.3 1.9.4 0 .8.1 1.2-.1.6-.4 1.5.1 2-.5 1.4-1.4 2.4-3.3 3.2-5.1.9-1.9 1.4-4 1.7-6.1.1-1.3.1-2.6.1-3.8-.1-2.3-.5-4.6-1.2-6.8z"/><path d="M165.1 448.2c.3-.6.5-1.2.8-1.8.9-2.3 1.7-4.6 2.8-6.8 2.9-6.2 5.8-12.4 8.3-18.7.9-2.4 2.1-4.7 3.2-7 .9-2 1.7-4.1 2.7-6 2.2-4 3.7-8.4 5.7-12.5.8-1.6 1.6-3.3 2.4-4.9.1 0 .3 0 .3.1.5 1.8 1.1 3.5 1.9 5.2 1.5 3.5 3.2 6.8 4.8 10.2 2.3 5 4.4 10 6.8 15 .8 1.7 1.6 3.4 2.2 5.2 1.1 3.2 2.5 6.4 3.7 9.6.8 1.9 1 4 1.5 6 .5 2.2 1 4.4 1.4 6.6h135.6c.5-1.5 1-3 1.5-4.4 1-2.6 1.6-5.3 2.7-7.8 1-2.3 1.5-4.8 2.7-7 .7-1.3 1.3-2.6 1.9-3.9.9-2 2.1-3.9 3.4-5.7-.3 0-.5.1-.7.1.9-1.2 1.9-2.4 2.6-3.8.4-.8.9-1.7 1.5-2.4 1.4-1.7 2.6-3.6 3.6-5.5.4-.9 1.1-1.6 1.8-2.3.8-.9 1.2-1.9 1.5-3 .5-1.6 1.2-3.1 1.6-4.7.6-2.5 1.3-5.1 1.1-7.7-.2-2.7-.5-5.3-1.4-7.9-.5-1.4-.9-2.9-1.6-4.2-1.3-2.4-2.8-4.6-4-7-2-4.1-3.2-8.4-4.3-12.7-.5-1.9-1.2-3.9-1.3-5.9-.1-2.7-.5-5.4-.5-8.1.1-5.9.1-11.9.8-17.8-.2 2.4.4 4.8.7 7.2.4 2.3 0 4.6-.1 7-.1 2.9-.2 5.8.3 8.6 1.3-2.4 2.1-4.9 3.1-7.4 1.6-4.4 3-8.8 4.1-13.4-.1 2.3-.3 4.7-.7 7-.4 2.1-.5 4.3-1.3 6.3-.9 2.2-1.8 4.4-2.9 6.6-.6 1.1-1.4 2.1-1.9 3.2-.2 1.2.3 2.4.5 3.5.6 3 1.5 6 2.7 8.8 1.4 3.5 2.7 7 4.8 10.2 1.1 1.8 1.8 3.8 2.8 5.6 1 1.9 1.4 4 1.7 6 .3 2.3.7 4.7.6 7-.2 2.1-.7 4.1-1.4 6.1-.7 2.3-2 4.2-3.1 6.3-.5 1.1-1.2 2-2 2.9-1.6 2-3.2 4.1-4.6 6.2-1.2 1.6-1.6 3.5-2.8 5 0 .1-.1.2-.1.3.2.3.3.6.4 1 .8 3.7 2 7.3 3 11 .6 2.3 1.1 4.7 1.5 7 .6 3.2 1.5 6.3 2.3 9.5H413c-.1-.5-.1-1-.2-1.4-.4-3.9-.7-7.8-1.2-11.7-.7-5.7-1.1-11.4-2.1-17-.6-3.8-1.2-7.5-1.5-11.3-.4-5.4-1.1-10.7-2.5-15.9-.6-2.4-.8-4.9-1.1-7.3-.6-4-1.1-8-2.2-11.9-.8-2.5-1.1-5.1-1.7-7.6-1-4.3-1.9-8.7-3-13-.7-5.1-1.7-10.2-2.6-15.2-1-5.1-2.4-10.2-3.7-15.2-.9-2.7-1.5-5.5-2.4-8.2-.5-1.5-1.2-3-1.7-4.5-.1-.3-.7-1.4-.8-1.7-.9-1.8-1.9-3.6-2.8-5.4h-.2v-.3c-1-2-2-4-3.1-5.9-1.2-1.7-2.3-3.6-4.2-4.6-1.2-.9-2.2-2-3.4-3-2.1-1.8-4.2-3.6-6.4-5.3-3.2-2.5-6.7-4.5-9.9-7-1.7-1.3-3.5-2.5-5.2-3.8-2-1.5-3.8-3.4-5.7-5.1-1.4-1.3-2.9-2.7-4.1-4.2-.8-1-1.5-2.1-2.4-3.1-1.1-1.3-1.9-2.8-3-4.2-1.4-1.9-2.3-4.2-3.4-6.2-.5-.9-.6-2.1-1.4-2.7-.4-1.6-.9-3.1-1.4-4.6-1-2.8-1.4-5.7-1.6-8.6 0-1.9 0-3.9-.2-5.8-.2 0-.5.1-.7.1v-.4l-.1.2c0 .1-.1.3-.2.3-.9 1.4-2.8 1.7-4.2 2.4-1.8.8-3.7 1.6-5.7 1.8-3 .4-6-.4-9-.3-2.2-.1-4.3-.4-6.5-.5-1.7-.1-3.4-.6-5.2-.6-1.7-.1-3.2-.9-4.9-1.3-1.7-.4-3.3-.9-4.9-1.5-3.6-1.4-7.4-2.3-10.9-4.2-1.2-.5-2.1-1.5-3.2-2.1-1.6-.9-3.1-1.8-4.5-2.9-.9-.8-1.9-1.4-2.7-2.2-.5-.5-.5-1.2-.6-1.9-1.7 1.5-2.1 3.9-3 5.9-1.2 2.5-2.2 5.2-3 7.9-.5 1.6-1.3 3-1.9 4.5-.8 1.8-1.4 3.7-2.5 5.3-2.7 4.2-5.4 8.4-8.8 12.1-.5.6-1.1 1.2-1.6 1.8l-.1.1-1.8 2.1c-2.9 2.6-6 5-9.2 7.2-3.7 2.6-7.4 5-11.2 7.4s-7.7 4.7-11.3 7.3c-2.4 1.7-5.1 3-7.7 4.5-7.3 4.1-14.1 9.3-20.2 15-2.6 2.5-5.3 4.9-7.7 7.6-1.4 1.5-2.4 3.2-3.7 4.8-1.4 2-2.7 4.1-3.9 6.2-1.1 1.9-1.8 4-3 5.8-1.1 1.7-2.2 3.4-3.1 5.1-1 1.8-1.8 3.7-2.9 5.5-1 1.7-1.9 3.4-2.7 5.2-2.1 4.4-3.7 9-5.9 13.3-1.1 2.1-2.3 4.2-3 6.4-.8 2.2-1.4 4.4-2.2 6.6-1.6 4-3.2 7.9-4.7 11.9-.9 2.2-1.4 4.4-2.1 6.6-.9 2.9-1.9 5.8-3 8.7-1.6 4.4-3.1 8.8-4.5 13.3-1.2 4.3-2.6 8.6-3.8 12.9-.8 2.7-5.5 20.3-9.2 33.9h48.2v-.1z" style="fill:#38312d"/><path class="st5" d="M394.7 106.7c-1.1-1.5-3.1-1.7-4.8-2-1.5-.4-2.9-.8-4.4-1.2 0-.3.1-.6.1-.9.6-2.1.8-4.3 1.1-6.5.1-1.7.5-3.4.2-5.1-1 3.1-1.9 6.2-3.1 9.3 0 .3-.1.6-.3 1-.1.1-.1.2-.3.3-.1.4-.2.9-.3 1.3-2.3-.7-4.6-1.4-6.9-2.2-2.1-.7-4.2-1.6-6.2-2.8-.1-1.9-.3-3.8-.3-5.7 0-2.2-.3-4.3-.1-6.5 0-1.2.1-2.5.3-3.7l-.3 1.8c0 .2-.1.4-.2.5 0 1.5-.4 2.9-.6 4.3-.1 1.6-.4 3.2-.7 4.8-.2 1-.3 2.1-.8 3.1h-.5c-.3-.5-.8-.8-1.3-1.1-5.8-3.2-11.9-5.8-18.2-7.8.5-3.3.5-6.6 1-9.9.4-2.1.6-4.3 1.1-6.4-1.7 5.1-3.2 10.3-4.4 15.5-4.9-1.5-10-2.6-15-3.8 1.4-4.7 2.7-9.5 4.4-14.1 1-2.3 1.6-4.7 2.9-6.8-.2.2-.4.4-.6.5-2.4 3.9-4.5 7.9-6.3 12.1-1.2 2.6-2.1 5.3-3.2 7.8-1.8-.4-3.6-.9-5.5-.9-1 .1-1.9-.6-2.8-.8-1.1-.3-2.2-.8-3.4-1.1h-.6c1.5 1 2.9 2.1 4.4 3.1.8.6 1.5 1.4 2.4 1.8.7.3 1.5.6 2.1 1 4.2 3.2 9 5.6 13.9 7.6 3.9 1.8 7.6 4 11.5 5.6 4.1 1.6 7.9 3.8 11.9 5.6 1.8.8 3.7 1.5 5.5 2.4 1.9.9 3.9 1.8 5.8 2.8 3.9 2.2 7.9 4.3 11.8 6.6 2.9 1.6 5.3 4 7.9 6.1 1-3.4 1.8-6.8 2.4-10.3.3-1.9.1-3.6.4-5.3z"/><path d="M310.3 73.3c1.2-.5 2.6-.3 3.8-.8.2 0 .5.1.6.1 0 .6 0 1.1-.1 1.7-.4 1.5-.4 3-.7 4.6.5.2.9.4 1.4.6h-.6c1.5 1 2.9 2.1 4.4 3.1.8.6 1.5 1.4 2.4 1.8.7.3 1.5.6 2.1 1 4.2 3.2 9 5.6 13.9 7.6 3.9 1.8 7.6 4 11.5 5.6 4.1 1.6 7.9 3.8 11.9 5.6 1.8.9 3.7 1.5 5.5 2.4 1.9.9 3.9 1.8 5.8 2.8 3.9 2.2 7.9 4.3 11.8 6.6 2.9 1.6 5.3 4 7.9 6.1-.5 1.9-1.2 3.6-1.8 5.5-1.1 3.1-1.9 6.2-3.2 9.2-.7 1.7-1.4 3.5-2.2 5.2-1 1.8-1.7 3.7-2.6 5.5-1 2.2-2.3 4.2-3.5 6.4-1.8 3.4-3.6 6.9-5.5 10.2-1.4 2.5-2.7 5-4.2 7.4-.7 1-1.3 2.1-1.9 3.2-2.3-1.1-5-1.1-7.5-.7-3.1.7-6.1 2.1-8.2 4.6-1.2 1.4-2.3 2.9-3.3 4.5-1.5 2.5-2.2 5.4-1.9 8.3.2 2 1.2 3.8 1.8 5.7.3 1 .9 1.8 1.6 2.5-2.9 3.3-6.2 6.2-9.6 8.8-2.9 2.1-5.5 4.5-8.7 6.1-.3.2-.6.3-1 .3-.9 0-1.7.3-2.4.8-1.8 1.1-3.9 1.2-5.9 1.4-1.7.1-3.4.7-5.1.3-2.5-.7-5-1.3-7.3-2.4-1.6-.8-3.2-1.4-4.9-1.8-1.4-.3-2.9-.7-3.9-1.7-3.8-3.6-8.1-6.6-11.3-10.8-1.5-2-3-4.1-4.2-6.4-.5-1-1.2-1.9-1.9-2.8-.7-.9-1.6-1.6-2.2-2.5-1.2-1.8-1.9-3.9-2.7-5.8-.7-1.8-1.3-3.6-1.9-5.4-.2-.9-1.5-.7-1.8-1.5-.6-1.2-.9-2.5-1.4-3.8h-1.1c0 .7 0 1.5.3 2.2.7 2.3 1.4 4.6 2.4 6.8 1.9 3.9 3.9 7.9 5.2 12.1.9 2.7 2.3 5.2 3.4 7.8.6 1.3 1.1 2.6 1.7 4 .6 1.3 1.2 2.7 1.5 4.1.6 2.8 1.6 5.4 2.5 8.1.6 1.8 1.1 3.6 1.9 5.4.4 1.1.7 2.2 1.2 3.3l.9 2.1c-2.2-.4-4.4-1.1-6.5-1.9-2.1-.8-4.3-1.5-6.5-2.3-1.5-.5-2.8-1.3-4.3-1.7-1.2-.5-2.1-1.5-3.2-2.1-1.6-.9-3.1-1.8-4.5-2.9-.9-.8-1.9-1.4-2.7-2.2-.5-.5-.5-1.2-.6-1.9-.1-2.4.5-4.7.7-7.1.3-3.7.5-7.3.8-11 0-3.7.3-7.4.3-11.1.3-4-.1-8.1-.2-12.1-.3-2.1-.1-4.2-.3-6.3-.1-3.3-.7-6.6-.8-9.9-.2-2-.2-4.1-.3-6.1 0-.9-.3-1.7-.1-2.6.6-3.1 1.4-6.3 2.3-9.3.6-2.7 1.2-5.4 1.9-8 1-4.1 2.4-8 3.1-12.2 1.1-2.6 1.7-5.3 3-7.8 1.9-3.9 3.8-7.7 6.3-11.3 3.6-4.9 7.5-9.5 11.8-13.8 2.8-2.6 5.8-5.1 9.1-7.2 2.3-1.5 5-3 7.8-4.2z" style="fill:#f2844f"/><path class="st5" d="M249 89.8c2.9-1.1 6-1.2 9-.7 2.6.7 5.2 1.3 7.5 2.7 1.5 1 3.3 1.8 4.2 3.4.5 1.4.5 2.9.6 4.3.2 1.4.6 2.8.8 4.3.3 2.3.7 4.5.9 6.7.2 2.4 0 4.8.1 7.2-.7 4.1-2.1 8.1-3.1 12.2-.7 2.7-1.3 5.3-1.9 8-.9 3.1-1.7 6.2-2.3 9.3-.1-.5-.7-.5-1.1-.7-2-.5-3.9-1.2-5.8-1.8-3-1-6.2-2.2-8.5-4.5-1.8-1.5-3.5-3-4.7-4.9-.7-1.2-1.5-2.4-2.3-3.5-1.2-1.9-2.1-3.9-2.8-6-.5-1.4-1.1-2.8-1.5-4.3-.5-1.8-.6-3.6-1-5.4-.5-2.4-.3-4.8-.1-7.2.2-2.3.8-4.6 1.4-6.9.6-1.9 1.3-3.7 2.2-5.4 1.1-1.8 2.6-3.3 4.2-4.6 1.2-.9 2.6-1.8 4.2-2.2zM300.3 121.6c-.2-.4.2-.8.5-.9 1.2.1 1.9 1.3 3 1.7 1.3.5 2.7.8 4 1.4 2.8 1.2 5.8 2.3 8.3 4.1 1.4.9 2.6 2.1 4 2.9 1.4 1 2.9 2 4 3.4 1 1.3 2.6 2.1 3.8 3.2.3.3.3.7.4 1.1-2.1.5-4.2.7-6.3.2-.8-.3-1.9-.4-2.4-1.2-.5-.9-1.2-1.6-1.9-2.4-.6-.7-1.6-.7-2.5-.9-2.1-.4-4.2-.5-6.2-1.2-.8-.2-1.8-.2-2.3-.9-.9-1-2-1.9-2.8-3-.9-1.3-1.6-2.7-2.1-4.2-.5-1.1-1.1-2.2-1.5-3.3zM358.2 148.5c.6-.2 1.3-.6 2-.3.5.2.9.8 1.3 1.1 1.4 0 2.7 0 4 .3.3.6-.1 1.2-.4 1.8.7.6 1.5 1.3 2.3 1.7.7.4 1.6.7 1.9 1.5.6 1.1 1.8 2 2 3.4 0 .1-.1.4-.1.5-1.3-1.4-2.7-2.9-4.5-3.7-1.5-.5-3.2-.5-4.8-.7-1 1.6-2.8 2.3-3.9 3.8-2.3 2.9-4.3 6-6.1 9.2-.6 1.1-1.1 2.1-1.4 3.3-.4 1.3-.1 2.8-.7 4-.5.8-1.6 1-2.5 1.2-2.1.5-4.2 1.2-6.3 1.6-.5.1-1.2.3-1.6-.1.1-.9 1.2-1.1 1.9-1.3 1.7-.3 3.5-1 4.8-2.2.1-.5 0-1-.1-1.5-.4-1.3-.7-2.7-1.5-3.9-.9-1.3-1-2.9-.8-4.4.3-1.3 0-2.6.3-3.8.3-1.7.7-3.3 1.3-4.9.8-2 2-3.8 3.8-4.9.7-.5 1.5-.5 2.2-.7 1.6-.3 3.1-.7 4.7-.7.9-.2 1.6-.1 2.2-.3zM293.1 150.6c1.2-.2 2.3-.5 3.5-.3 1.1.1 2.2.3 3.4.4 1.7.1 3.3.7 4.9 1.2 1.7.6 3 1.8 4.3 2.9 1.5 1.4 2.3 3.3 3.2 5.1.6 1.4 1.3 2.9 1.3 4.4 0 1.1-.3 2.2-.2 3.4.1 1.4-.5 2.8-1.2 4.1-1.2 2-2.3 4.2-4.1 5.8-1.7 1.3-3.2 2.8-5.3 3.4-1.4.4-2.8 0-4.3.1-2.4.2-4.8-.6-7-1.5-2-1-4.4-1.7-5.7-3.7-.9-1.1-.5-2.7-1.5-3.7-1.3-1.7-1.6-4-1.5-6.1-.2-2-.2-4.1.4-6 .3-.9.9-1.7 1.3-2.5.3-.7.5-1.4 1-2 .9-1.1 2.1-2 3.4-2.6 1-.5 1.8-1.2 2.8-1.7.4 3.3 1 6.6 1.8 9.8.4 1.3.9 2.6 1.3 3.9.3.8.5 1.7 1.3 2.1-.3-1.7-.5-3.5-1-5.2-.5-2.1-.5-4.3-1.1-6.4-.5-1.6-.9-3.3-1-4.9zM272.3 172.3h1.1c.5 1.3.8 2.6 1.4 3.8.3.8 1.6.6 1.8 1.5.5 1.8 1.2 3.6 1.9 5.4.8 2 1.5 4.1 2.7 5.8.6 1 1.5 1.6 2.2 2.5s1.3 1.8 1.9 2.8c1.2 2.2 2.6 4.3 4.2 6.4 3.2 4.2 7.5 7.2 11.3 10.8 1.1 1 2.5 1.4 3.9 1.7 1.7.4 3.3 1 4.9 1.8 2.3 1.1 4.8 1.7 7.3 2.4 1.7.5 3.4-.2 5.1-.3 2-.2 4.2-.3 5.9-1.4.7-.5 1.5-.8 2.4-.8-.8.5-.8 1.5-1.2 2.2-.4 1-.5 2-.9 3-.5 2-.6 4.2-.8 6.3 0 .1-.1.3-.2.3-1.4.9-2.8 1.5-4.2 2.4-1.8.9-3.7 1.6-5.7 1.8-3 .4-6-.4-9-.3-2.2-.1-4.3-.5-6.5-.5-1.7-.1-3.4-.6-5.2-.6-1.7-.1-3.2-.9-4.9-1.3-1.7-.4-3.3-.9-4.9-1.5-3.6-1.4-7.4-2.3-10.9-4.2 1.5.4 2.8 1.2 4.3 1.7 2.2.7 4.3 1.4 6.5 2.3 2.1.8 4.2 1.5 6.5 1.9-.2-.7-.5-1.4-.9-2.1-.5-1.1-.7-2.2-1.2-3.3-.7-1.8-1.3-3.6-1.9-5.4-.9-2.7-1.9-5.3-2.5-8.1-.3-1.4-.9-2.8-1.5-4.1s-1.1-2.6-1.7-4c-1.1-2.6-2.5-5.1-3.4-7.8-1.3-4.2-3.3-8.2-5.2-12.1-1-2.2-1.7-4.5-2.4-6.8-.1-.7-.2-1.5-.2-2.2zM359.6 173.9c2.5-.4 5.2-.5 7.5.7-1.2 1.9-2.2 3.9-3.5 5.8-4.3 6.6-8.7 13.3-14.1 19.2-.8-.7-1.3-1.5-1.6-2.5-.6-1.9-1.6-3.7-1.8-5.7-.3-2.9.4-5.9 1.9-8.3 1-1.5 2.1-3.1 3.3-4.5 2.2-2.6 5.2-3.9 8.3-4.7z"/><path class="st7" d="M295.3 118.4c1.5-1 3.4-.8 5.2-.7 4.1.1 8.1.8 12 2.1 4.5 1.3 8.6 3.6 12.6 6 1.9 1.2 3.9 2.6 4.9 4.7.4.8.6 1.6.8 2.4.2-.8.3-1.6.9-2.1.2.8.1 1.7-.1 2.5.2 0 .5-.1.7-.1-.1.7-.2 1.4-.5 2.1-.6 1.2-1.4 2.5-2.3 3.5-1.2-.2-2.1-1-2.9-1.9-3.3-3.4-6.9-6.5-11.1-8.7-2.4-1.3-4.8-2.5-7.3-3.7-4.1-1.8-8.2-3.5-12.2-5.4-.3-.1-.5-.4-.7-.7z"/><path class="st8" d="M310 132.4c.7-.4 1.6-.3 2.4.1.7.2.8 1.1.9 1.8.2 1.8-1 3.4-2.3 4.5-.9.8-2.5.9-3.3 0s-.8-2.2-.4-3.2c.5-1.4 1.4-2.6 2.7-3.2z"/><path class="st9" d="M302.9 137.8c.9.6 1.6 1.4 2.5 2.1.9.7 1.8 1.4 2.7 2 .6.4 1.4.7 1.8 1.4-1.3-.2-2.3-1-3.3-1.7-1.1-.8-2.2-1.5-3.1-2.5-.4-.3-.5-.8-.6-1.3z"/><path class="st7" d="M355.3 144.8c3.4-2.3 7.7-2.2 11.5-1.1 4.6 1.4 9 3.6 12.4 7.1.5.4.2 1 .2 1.6-.6.1-1.2.1-1.7-.1-5.1-1.8-10.6-2.3-15.9-2.6-3.1-.1-6.1.3-9.1.5-.2-.5-.7-1-.3-1.5 1-1.8 1.2-4.3 3.2-5.3-.1.5-.2 1-.3 1.4z"/><path class="st8" d="M361.6 155c.9-.4 2.1-.1 2.7.7.4.6.3 1.4.2 2.1-.3 1.3-1.3 2.3-2.2 3.2-.7.7-1.9.8-2.6.2-.5-.4-.6-.9-.7-1.5-.3-2 1-3.8 2.6-4.7z"/><path class="st9" d="M354.6 160.7c.4-.1.8 0 1.1.3 1.5 1.2 3.1 2.2 4.9 2.8.8.2 1.7.3 2.4.7-1.7.3-3.4-.4-5-1-1.4-.6-2.7-1.5-3.4-2.8z"/><path d="M316.2 181.1c.2.1.5.3.7.4 1.4 1 2.5 2.4 4.2 2.9.3.5.5 1 .9 1.3.4.1.8-.1 1.1-.1 0 .3-.1.6-.1 1 .6.5 1.3 1 1.9 1.4.3-.4.6-.9.8-1.3.2.1.4.1.6.2-.3.6-.5 1.2-.8 1.8 1.2.6 2.5 1.2 3.7 1.8.9-.9 1.7-1.9 2.3-3.1.2 0 .5 0 .6.1-.2 1.4-1.2 2.4-2.1 3.3.7.1 1.5.7 2.1.1 1-.9 1.4-2.2 2.5-3 .1 1.4-.9 2.5-1.8 3.5.9-.1 2.1 0 2.7-.8.5-.8 1-1.6 1.7-2.2-.2 1.1-.8 2-1.3 2.9 1.5-.5 2.3-1.8 3.6-2.6l-.9 2.1c-.3.3-.7.6-1 .9-1.6.8-3.5.6-5.3.5-2.2-.1-4.1-1.1-6-2.1-3.5-1.8-6.1-4.9-9.4-7-.5-.7-.6-1.4-.7-2z" style="fill:#c13e24"/><path d="M316.9 181.5c1.8 0 3.4.6 5.2.8 1.6.2 3.3.6 4.9.7 2.1.3 4.1 1 6.1 1.6.1.1.3.2.4.3.4.3.8.9 1.4.8.5-.1.9-.3 1.4-.4h.5c1.3.1 2.9.4 3.4 1.8.2 1.3-.4 2.7-1.5 3.5l.9-2.1c-1.3.8-2.1 2.2-3.6 2.6.5-.9 1.1-1.8 1.3-2.9-.7.6-1.2 1.4-1.7 2.2-.6.8-1.8.7-2.7.8.8-1 1.9-2 1.8-3.5-1.1.7-1.6 2.1-2.5 3-.6.6-1.4.1-2.1-.1.9-1 1.9-2 2.1-3.3-.2 0-.5 0-.6-.1-.6 1.1-1.4 2.2-2.3 3.1-1.2-.6-2.5-1.2-3.7-1.8.3-.6.5-1.2.8-1.8-.2-.1-.4-.1-.6-.2-.3.4-.6.9-.8 1.3-.7-.4-1.3-.9-1.9-1.4 0-.3.1-.6.1-1-.4.1-.7.3-1.1.1-.4-.3-.6-.9-.9-1.3-1.8-.3-3-1.7-4.3-2.7z" style="fill:#da4e33"/><path class="st12" d="M310 131.5c3 .8 6 2.1 8.2 4.4.6.6 1 1.4 1.3 2.1h.7c-.3-1.4-1-2.7-2.1-3.6-2.3-2.2-5.3-3.8-8.4-4.2-1.2-.1-2.9.2-3.4 1.5 1.2-.3 2.4-.6 3.7-.2zM346.2 152.9c-.8.9-1.3 2-1.7 3.2-.6 1.6-1.2 3.2-1.3 4.9-.1 1.4-.3 2.9 0 4.3.4 2.1 1.5 4 2.3 6 .2.7.4 1.8-.2 2.4-1.6.9-3.3 1.5-5.1 1.9-.7.2-1.5.3-2.1.8.2.5.7.6 1.2.6 1.8-.1 3.4-1 5-1.5 1.1-.3 2.3-.8 2.8-1.9.6-1-.2-2.1-.5-3.1-.4-1.6-1.4-2.9-1.9-4.4-.9-4.4-.1-9.3 2.6-13 .6-.7.8-1.7 1.2-2.5-1.1.3-1.8 1.3-2.3 2.3zM369.7 156.2c-1.6-1.2-3.4-2-5.3-2.6-1.8-.6-3.7-.5-5.4 0 3.3.2 6.6 1.2 9.6 2.8.8.4 1.4 1.3 2.4 1.5-.3-.7-.7-1.3-1.3-1.7zM336.7 171.4c-1 .1-1.7.9-1.6 1.9.9.7 2.5.1 3-.9.2-.8-.8-1.1-1.4-1zM333.4 177.5c-1.2 2.1-.7 4.7-.4 7.1.1.1.3.2.4.3 0-1.1-.2-2.2-.2-3.2 0-1.4.3-2.8.2-4.2zM336.3 177.8c-1 2.4-.6 5.1-.1 7.6h.5c-.1-1.5-.4-3.1-.4-4.6 0-1 .1-2 0-3zM320.4 216.6c-1.2.3-2.4.1-3.6-.1-1.9-.3-3.8-.6-5.7-1.3-2.2-.8-4.3-2-6.3-3.2-3.1-1.8-5.8-4.2-8.4-6.6-3.1-3-6.1-6.1-8.7-9.5-2.9-3.8-5.6-7.6-8.2-11.6-.6-1.4-1.6-2.7-2.3-4-1.2-2.2-2.2-4.5-3.4-6.7-1-2.4-2-4.8-3.5-6.8.3 1.3.9 2.5 1.2 3.8.5 1.6.9 3.3 1.7 4.8 1.5 2.7 2.9 5.6 4.3 8.3 1.3 2.4 2.4 4.9 4.1 7 1.4 1.7 2.3 3.6 3.7 5.3 1.1 1.5 2.3 2.9 3.5 4.3 1.3 1.4 2.4 3 3.8 4.3 3 2.8 5.9 5.8 9.3 8 2 1.3 4.2 2.3 6.3 3.3 2.3 1.1 4.8 1.5 7.2 2 .9.2 1.8 0 2.7 0 .8 0 1.6.1 2.5 0 1.6-.3 3.3-.5 4.9-1 1.5-.5 3-1 4.1-2-1.6.5-3.3.9-4.9 1.2-1.3.1-2.9.1-4.3.5z"/><path d="M316.8 183c3.3 2.1 5.9 5.2 9.4 7 1.9 1 3.8 2 6 2.1 1.8.1 3.7.2 5.3-.5.1 1.3-.7 2.6-1.6 3.5-1.3.9-2.9 1.6-4.6 1.7-2.8.4-5.6-.7-7.7-2.4-2-1.3-3.3-3.2-4.6-5.1-.8-2.1-1.8-4.1-2.2-6.3z" style="fill:#f85939"/><path class="st2" d="M377.6 70c-.2-5.3-.7-10.7-2.5-15.8-.5-1.4-1.2-2.7-2-3.9.4-.1.7-.2 1.1-.3-1.1-.9-2.1-1.9-3.2-2.6-2.9-.7-5.7-1.9-8.6-2.3-2.2-.3-4.3-.2-6.5-.5-2.3-.3-4.7.1-7 .2-2.7.4-5.5.9-8 2.1-2 .9-4 1.6-5.9 2.7-2 1.1-4.1 2.1-6 3.5-5.3 3.7-9.3 8.9-12.3 14.6-.8 1.6-1.9 3.1-2.6 4.8-.2.5 0 1 .2 1.4.4-.8.8-1.5 1.2-2.1 1.6-2.8 3.5-5.9 6.1-7.9.3-.4.6-.8.8-1.2 1.9-2.7 4.4-4.9 6.9-7 1.5-1.3 3.2-2.2 4.9-3.1 1.1-.6 2.3-1.2 3.5-1.6-2 2.4-3.8 4.9-5.3 7.6-3.2 5.5-5.8 11.4-8 17.4-.7 1.8-1.2 3.6-1.7 5.5 0 .1 0 .2-.1.2.2 0 .4 0 .6.1.2-.5.3-1.1.5-1.6 2-6 4.3-11.9 7.3-17.4 1.6-3 3.3-5.9 5.4-8.5l2.4-3c.6-.9 1.7-1.3 2.7-1.6 1.7-.5 3.4-1.1 5.1-1.5-1 2.1-2.3 4-3.2 6.1-2.8 5.7-5.2 11.5-7.2 17.5-1.3 3.9-2.6 7.8-3.6 11.9.2.1.4.3.6.4.3-1.1.6-2.1.9-3.1 2.1-6.9 4.6-13.8 7.4-20.4 1.8-4.1 3.5-8.1 5.8-11.9.3-.4.6-.8 1.1-.9 1.6-.3 3.3-.5 5-.6-3.7 8.8-6.4 17.9-8.7 27.2-.9 3.8-1.8 7.6-2.5 11.4.3 0 .6.1.8.3 1.4-7.3 3.4-14.5 5.5-21.6 1.8-5.8 3.6-11.7 5.9-17.3 1.6-.1 3.2 0 4.7.2.1 3-.3 6.1-.6 9.1-.4 4.3-1 8.5-1.7 12.7-1.1 6.7-2.8 13.3-4.4 20 .2 0 .3.1.5.2 2.1-7.8 4.1-15.7 5.5-23.7 1-6 2-12.1 1.8-18.2 2.1.2 4.1.7 6.1 1.2 1.3 3.7 1.8 7.7 1.8 11.6.1 5.6-.5 11.2-1.1 16.8-.6 5.5-1.4 11-2.3 16.5 0 .3-.1.6-.2.9h.6c.1 0 .1 0 .1.1l.3-1.5c1.2-5.9 2-11.8 2.7-17.7.6-5 1.2-10 1.2-15.1 0-2.5-.2-5.1-.7-7.6-.3-1.3-.8-2.5-1.1-3.8 1.2.3 2.3.5 3.4 1 .5.1.7.6.9 1 2.1 3.8 2.9 8.1 3.6 12.3.7 5.1 1 10.2.7 15.3-.2 5-.5 9.9-1 14.8-.2 1.6-.4 3.1-.7 4.7-.1.7-.3 1.4-.5 2.1h.1c.2 0 .4 0 .6.1 0-.1.1-.3.1-.4 1.1-4 1.5-8.2 1.9-12.4.3-3.1.5-6.3.7-9.5 0-2.8.3-5.3.2-7.9zM383.8 70.9c.4 2.5.5 5.1.7 7.6 0 4.6.3 9.3-.5 13.8.2 1.3.2 2.6 0 3.8l.1-.1c.1.8 0 1.6-.1 2.5.1-.3.3-.5.6-.6.3-3 .3-6.1.8-9.1.8-5.2.7-10.5.2-15.7-.3-2.3-.6-4.7-1.4-6.9-.7-1.7-1.1-3.5-2-5.2-1.1-2.3-2.3-4.4-3.9-6.4-.8-1-1.7-2.1-2.8-2.9 0 1.2.9 2.1 1.5 3 1.7 2.4 3.2 4.9 4.4 7.5.3.8.5 1.6.8 2.4.9 2 1.2 4.2 1.6 6.3zM387.9 65.9c-.3-.5-.8-1.1-.5-1.7 1 1.4 1.9 2.9 2.6 4.5.6 1.2 1.4 2.3 2.1 3.4 0 1.6.4 3.3.6 4.9.7 7.4-.1 14.8-1.6 22-.5 1.7-.6 3.6-1.9 4.9.2-1.7.8-3.3 1.1-4.9.8-4.4 1.3-8.8 1.3-13.2 0-2.8 0-5.5-.3-8.3-.5-4-1.2-8.2-3.4-11.6z"/><path class="st3" d="M271.5 173.9c.1.1.1.1 0 0z"/><path class="st14" d="M327.3 226.6c-1.4.9-2.8 1.5-4.2 2.4 1.4-.7 3.2-1 4.2-2.4zM263 238.7c1.3.9 2.7 1.6 3.9 2.7 1 .9 2.4 1.4 3.6 2.1l.7-.7c-1-.9-2.1-1.6-3.2-2.4-2.4-1.6-4.6-3.3-6.8-5.1-.6-.5-1.3-1.1-2-1.4-.6-.3-1.1.2-1.6.4 1.3 1.8 3.5 3 5.4 4.4zM259 244.5c1.2 1.2 2.5 2.1 3.8 3.2 1.7 1.4 3.6 2.6 5.3 4 .1-.2.3-.5.4-.7l-.5-.5c0-.1 0-.4-.1-.5-1.4-.9-2.9-1.8-4.1-3 .1-.3.2-.5.3-.8l-3-2.7c-1.4-1.4-2.5-3-3.9-4.4-.4-.5-1-.4-1.5-.5.2 1.5 1.1 2.7 2 3.8.6.6.7 1.5 1.3 2.1zM375.8 385.8c-.3-2.1-.7-4.2-1.7-6s-1.7-3.8-2.8-5.6c-2-3.2-3.3-6.8-4.8-10.2-1.1-2.9-2-5.8-2.7-8.8-.2-1.2-.7-2.3-.5-3.5.5-1.1 1.3-2.1 1.9-3.2 1.1-2.1 2-4.3 2.9-6.6.8-2 .9-4.2 1.3-6.3.4-2.3.7-4.7.7-7-1.2 4.5-2.6 9-4.1 13.4-.9 2.5-1.8 5.1-3.1 7.4-.4-2.9-.4-5.7-.3-8.6 0-2.3.5-4.6.1-7s-1-4.8-.7-7.2c-.7 5.9-.8 11.8-.8 17.8 0 2.7.4 5.4.5 8.1.1 2 .8 3.9 1.3 5.9 1.1 4.3 2.4 8.7 4.3 12.7 1.2 2.4 2.7 4.7 4 7 .7 1.3 1.1 2.8 1.6 4.2.9 2.5 1.2 5.2 1.4 7.9.2 2.6-.5 5.2-1.1 7.7-.4 1.6-1.1 3.1-1.6 4.7-.4 1.1-.8 2.1-1.5 3-.6.7-1.3 1.4-1.8 2.3-1 2-2.3 3.8-3.6 5.5-.6.7-1 1.5-1.5 2.4-.7 1.4-1.6 2.6-2.6 3.8.2 0 .5-.1.7-.1.5-.5.9-1.1 1.4-1.6-.1.6-.2 1.1-.2 1.7 1.2-1.5 1.6-3.5 2.8-5 1.4-2.1 3-4.2 4.6-6.2.8-.9 1.5-1.9 2-2.9 1-2.1 2.4-4.1 3.1-6.3.6-2 1.2-4 1.4-6.1.1-2.6-.2-5-.6-7.3zM196.3 380.8c1.7-2.7 2.1-5.8 2.7-8.8 1.1-6.5 1.5-13 1.3-19.6-.1-2.4-.1-4.9-.2-7.3h-.7c-.5 3.4 0 6.8-.4 10.2-.5 1.9-.6 3.9-.9 5.8-.4 3-.9 6-1.5 9-.3 1.7-.6 3.3-1.2 4.9-.9 2.6-1.7 5.3-2.5 8-.6 1.9-.8 3.9-1.9 5.6-.2.4-.7 1.1-.1 1.4.5.3 1-.3 1.3-.7 1.1-1.5 1.8-3.2 2.6-4.8.6-1.2.8-2.5 1.5-3.7zM207.6 360.3c-1.1 3.8-3 7.2-4.4 10.9-1.6 3.9-3.2 7.9-5.5 11.6-.7 1.6-1.7 3-2.6 4.6-.6 1-1.3 1.9-1.8 2.9 1-.8 1.8-1.8 2.7-2.7 1.5-1.6 2.5-3.6 3.7-5.5 2.2-3.6 3.7-7.5 5.3-11.4 1.8-4.5 3.4-9.1 4.4-13.8h-.7c-.4 1-.7 2.2-1.1 3.4zM266.3 426.6c-2.5-.9-4.9-2-7.3-3.2-1.7-.8-3.3-2-4.8-3.1-3.1-2.4-6.1-5-8.7-7.9-2.6-2.9-4.9-6.1-7-9.4-2.3-3.5-4.4-7.2-6.4-11-.1 0-.3-.1-.3-.1l2.1 5.7c.8 3.8 3.4 6.8 5 10.3 1.2 2.5 3.3 4.3 5.1 6.3 3.6 3.6 7.6 7.1 12.3 9.2 2.2.9 4.2 2 6.5 2.8 2.4.8 4.9 1.6 7.4 2.2.7.1 1.3-.1 2-.1v-.4c-2.1-.5-4-.8-5.9-1.3z"/><path d="M257.2 110.1c-1.8-4-4.4-8.4-8.7-10.1-.7-.3-1 .8-.3 1.1 4.1 1.6 6.6 6.2 8.2 10.1 1.9 4.4 2.8 9.1 2.8 13.8 0 .7 1.2.7 1.2 0 0-5.1-1.1-10.2-3.2-14.9z" style="fill:#cc492f"/></svg>