<svg xmlns="http://www.w3.org/2000/svg" viewBox="0 0 110.3 32" style="enable-background:new 0 0 110.3 32" xml:space="preserve"><g style="opacity:.3"><path d="M18.3 9.1H15l-4.7 12.3h3l.8-2.1h4.5l-.9-2.3h-2.9l1.9-5.3 3.4 9.7h3L18.3 9.1zM68 21.3V9.1h2.6v10h5.2v2.3H68zm15.2 0V9.1h2.6v10H91v2.3h-7.8zm-29.7-10c2.2 0 3.9 1.8 3.9 3.9s-1.8 3.9-3.9 3.9c-2.2 0-3.9-1.8-3.9-3.9s1.7-3.9 3.9-3.9m0-2.4c-3.5 0-6.3 2.8-6.3 6.3s2.8 6.3 6.3 6.3 6.3-2.8 6.3-6.3-2.8-6.3-6.3-6.3zm49.6 2.4c2.2 0 3.9 1.8 3.9 3.9s-1.8 3.9-3.9 3.9-3.9-1.8-3.9-3.9 1.7-3.9 3.9-3.9m0-2.4c-3.5 0-6.3 2.8-6.3 6.3s2.8 6.3 6.3 6.3 6.3-2.8 6.3-6.3-2.8-6.3-6.3-6.3zm-66.7.2h-5.7v12.3h2.6v-4.2h3.1c2.2 0 3.9-1.8 3.9-4 .1-2.3-1.7-4.1-3.9-4.1zm0 5.6h-3.1v-3.2h3.1c.8 0 1.5.8 1.5 1.6s-.6 1.6-1.5 1.6z"/><path d="M28.5 25.1c-.2 0-.4.1-.6.3 0 0-.6.7-.9 1-1.3 1.3-2.9 2.4-4.6 3.1-1.8.8-3.7 1.1-5.7 1.1s-3.9-.4-5.7-1.1c-1.7-.7-3.3-1.8-4.6-3.1-1.4-1.4-2.5-3-3.2-4.7C2.4 19.9 2 18 2 16s.4-3.9 1.1-5.7C3.9 8.6 5 7 6.3 5.7c1.3-1.3 2.9-2.4 4.6-3.1 1.8-.8 3.7-1.1 5.7-1.1s3.9.4 5.7 1.1c1.3.5 2.4 1.2 3.5 2.1-.1.2-.1.4-.1.5 0 .9.7 1.7 1.7 1.7.9 0 1.7-.7 1.7-1.7s-.7-1.7-1.7-1.7c-.2 0-.4 0-.6.1C24 1.4 20.5 0 16.6 0 7.8 0 .6 7.1.6 16s7.1 16 16 16c4.9 0 9.3-2.2 12.3-5.8.1-.1.2-.3.2-.5 0-.3-.3-.6-.6-.6z"/></g></svg>