<svg xmlns="http://www.w3.org/2000/svg" viewBox="0 0 92.9 32" style="enable-background:new 0 0 92.9 32" xml:space="preserve"><g style="opacity:.3"><path d="M50.3 23.1c0 .6.2 1.1.6 1.4.4.4.9.5 1.5.5.9 0 1.5-.4 2-1.1v1h1.8v-4c0-1.8-.9-2.7-2.7-2.7-.4 0-.8.1-1.3.2s-.9.2-1.2.4v1.5c.7-.5 1.4-.7 2.2-.7.8 0 1.2.4 1.2 1.1l-1.8.2c-1.6.2-2.3.9-2.3 2.2zm4-1.3v.5c0 .4-.1.8-.4 1s-.6.4-1 .4c-.3 0-.5-.1-.7-.2-.2-.2-.3-.4-.3-.6 0-.5.3-.8 1-.9l1.4-.2zM38.6 18.3v6.5h1.9v-3.1c0-.6.1-1 .4-1.4.3-.3.6-.5 1-.5.3 0 .6.1.8.2v-1.8c-.1-.1-.3-.1-.5-.1-.8 0-1.4.5-1.7 1.3v-1.2h-1.9zM49.5 21.4c0-1-.3-1.8-.8-2.3s-1.2-.8-2.2-.8-1.7.3-2.3 1c-.6.7-.9 1.5-.9 2.5s.3 1.9.9 2.5c.6.6 1.4.9 2.4.9s1.8-.2 2.3-.5v-1.4c-.6.4-1.2.5-1.9.5-1.2 0-1.8-.5-1.8-1.5h4.3v-.9zm-4.3-.4c.1-.4.2-.8.5-1.1.3-.3.5-.4.9-.4.8 0 1.2.5 1.2 1.5h-2.6zM30.5 15.2v9.7h1.9v-.8c.4.6 1 .9 1.8.9.9 0 1.6-.3 2.1-1s.8-1.5.8-2.6c0-1-.2-1.8-.7-2.4s-1.1-.9-1.9-.9c-.9 0-1.6.4-2.1 1.2v-4.1h-1.9zm2.4 4.9c.3-.3.6-.5 1.1-.5.4 0 .8.2 1.1.5.2.3.4.8.4 1.3 0 .7-.1 1.2-.4 1.6-.3.4-.6.6-1.1.6-.4 0-.7-.2-1-.4-.3-.3-.4-.7-.4-1.1v-.7c-.2-.5 0-1 .3-1.3zM11 14.2c.6-.7.9-1.5.9-2.5 0-1.2-.5-2.2-1.5-2.9-1-.7-2.4-1.1-4.3-1.1H0v17.2h6.4c1.9 0 3.4-.5 4.5-1.4 1.1-.9 1.7-2.2 1.7-3.7 0-1.1-.4-2-1.1-2.8-.7-.7-1.7-1.2-2.9-1.3v-.1c1-.2 1.8-.7 2.4-1.4zm-7.3-3.8h1.5c1.9 0 2.9.7 2.9 2 0 .7-.2 1.3-.7 1.7-.5.4-1.1.6-2 .6H3.7v-4.3zm5.1 9.3c0 .8-.3 1.4-.8 1.8-.5.4-1.2.6-2.2.6H3.7v-4.7h2.1c.9 0 1.7.2 2.2.6s.8 1 .8 1.7zM22.8 9.9v2.7h-2v2.7h2v5.8c0 2.7 1.3 4.1 3.9 4.1 1.1 0 1.9-.2 2.5-.4v-2.7c-.4.2-.8.4-1.2.4-1 0-1.5-.7-1.5-2v-5.2h2.8v-2.7h-2.8V8.9l-3.7 1zM18.5 7.3c-.4-.4-.9-.5-1.5-.5s-1.1.2-1.5.5c-.4.3-.6.8-.6 1.3s.2 1 .6 1.3c.4.4.9.5 1.5.5s1.1-.2 1.5-.5c.3-.2.5-.7.5-1.2 0-.6-.2-1-.5-1.4zM15.1 12.6h3.6v12.3h-3.6zM78.3 10.3h5.3v5.3h-5.3zM71.8 18.3v6.5h1.9v-3.1c0-.6.1-1 .4-1.4s.6-.5 1-.5c.3 0 .6.1.8.2v-1.8c-.1-.1-.3-.1-.5-.1-.8 0-1.4.5-1.7 1.3v-1.2h-1.9zM77.2 16.6h1.9v1.9h-1.9zM81.3 17.1h3.8v3.8h-3.8zM57.7 15.2v9.7h1.9v-3.2h.1l2.2 3.2h2.3l-2.6-3.5 2.4-3h-2.3l-2 3h-.1v-6.2zM70.6 21.4c0-1-.3-1.8-.8-2.3s-1.2-.8-2.2-.8c-.9 0-1.7.3-2.3 1-.6.7-.9 1.5-.9 2.5s.3 1.9.9 2.5c.6.6 1.4.9 2.4.9s1.8-.2 2.3-.5v-1.4c-.6.4-1.2.5-1.9.5-1.2 0-1.8-.5-1.8-1.5h4.3v-.9zm-4.3-.4c.1-.4.2-.8.5-1.1.3-.3.5-.4.9-.4.8 0 1.2.5 1.2 1.5h-2.6zM85.1 7.8h7.8v7.8h-7.8z"/></g></svg>