<svg xmlns="http://www.w3.org/2000/svg" viewBox="0 0 75.8 32" style="enable-background:new 0 0 75.8 32" xml:space="preserve"><g style="opacity:.3"><path d="M31.7 8.7v13.8h2.5v-.7c.7.6 1.3.9 2 .9.5 0 .8-.1 1.2-.3s.6-.5.8-.8c.2-.3.3-.7.4-1.1.1-.4.1-.9.1-1.4v-4c0-.3-.1-.6-.2-.9-.1-.3-.2-.6-.4-.8-.2-.2-.4-.4-.7-.6-.3-.1-.6-.2-1-.2-.8 0-1.5.3-2.2.9V8.7h-2.5zm3.5 5.4c.2 0 .3 0 .5.1.1.1.2.2.3.4.1.2.1.3.1.5v4.7c0 .2 0 .4-.1.6 0 .2-.1.3-.3.4-.1.1-.3.1-.5.1-.4 0-.8-.1-1.1-.3v-6.2c.5-.1.8-.2 1.1-.3zM65.9 21.8c.2.3.5.5.8.6.3.1.8.2 1.2.2.4 0 1 0 1.7-.1v-1.8c-.3 0-.5.1-.8 0-.3 0-.6-.1-.7-.2-.1-.1-.2-.4-.2-.7v-5.7h1.6v-1.5h-1.6V9.8h-2.5v2.9h-1.1v1.5h1.1v5.5c0 .4 0 .8.1 1.2.1.3.2.6.4.9zM43.3 20.2c-.4 0-.7-.2-.9-.6-.2-.4-.4-1-.6-1.8l-1.9.9c.2 1.3.6 2.2 1.2 2.9.6.7 1.3 1 2.2 1 .9 0 1.7-.3 2.3-1 .6-.7.9-1.6.9-2.9 0-.4 0-.9-.1-1.2-.1-.4-.2-.7-.4-1.1s-.4-.6-.5-.9c-.2-.2-.4-.5-.6-.8l-1.5-1.8c-.6-.7-.9-1.3-.9-1.7 0-.3.1-.6.2-.8.2-.2.4-.3.6-.3.6 0 1.1.8 1.3 2.3l1.7-.9c-.1-1.2-.5-2.1-1-2.8-.5-.7-1.2-1-2-1-.9 0-1.6.3-2.1 1-.6.7-.8 1.6-.9 2.8 0 1.3.5 2.6 1.5 3.8l1.4 1.7c.7.8 1 1.5 1.1 2 0 .4-.1.7-.2.9s-.6.3-.8.3zM63.6 27.7c1 0 1.9-.8 1.9-1.9 0-1-.8-1.9-1.9-1.9h-.1l-1.2-2 .1-.1c.6-.6.8-1.4.8-2.6V16c0-1.1-.3-2-.8-2.6-.3-.3-.7-.6-1.3-.7V8c.7-.3 1.2-1 1.2-1.7 0-1-.8-1.9-1.9-1.9-1 0-1.9.8-1.9 1.9 0 .8.5 1.4 1.2 1.7v4.6c-.7 0-1.2.1-1.7.4l-5.4-6c.3-.7.2-1.5-.3-2.1-.7-.8-1.9-.8-2.7-.1-.8.7-.8 1.9-.1 2.7.5.6 1.3.7 2 .5l5.4 5.9c-.3.5-.5 1.2-.5 2.1v3.2c0 1.1.3 2 .8 2.6.6.6 1.4.9 2.6.9.4 0 .8 0 1.2-.1l1.2 2c-.3.3-.4.7-.4 1.2-.1 1 .7 1.9 1.8 1.9zm-2.9-8.3v.6c0 .1-.1.3-.1.5s-.1.3-.3.4c-.1.1-.3.1-.5.1s-.3 0-.4-.1c-.1-.1-.2-.1-.3-.2-.1-.1-.1-.2-.1-.4s0-.3-.1-.4V15.2c0-.2.1-.3.1-.5.1-.2.1-.3.3-.4.1-.1.3-.1.5-.1s.3 0 .4.1c.1.1.2.1.3.2.1.1.1.2.1.4s0 .3.1.4v4.1z"/><path d="M47.8 12.7v13.1h2.5v-4c.7.6 1.3.9 2 .9.4 0 .8-.1 1.2-.3.3-.2.6-.5.8-.8.2-.3.3-.7.4-1.1.1-.4.1-.9.1-1.4v-4c0-.3-.1-.6-.2-.9-.1-.3-.2-.6-.4-.8-.2-.2-.4-.4-.7-.6-.3-.1-.6-.2-1-.2-.8 0-1.5.3-2.2.9v-.8h-2.5zm2.5 1.8c.4-.3.7-.4 1-.4.2 0 .4 0 .5.1.1.1.2.2.3.4.1.2.1.3.1.5v4.7c0 .2-.1.4-.1.6-.1.2-.1.3-.3.4-.1.1-.3.1-.5.1-.4 0-.7-.1-1.1-.3l.1-6.1zM16.6 12.7v9.8h2.5v-6.7c.3-.4.5-.6.8-.8.3-.1.6-.2 1-.2.3 0 .6 0 .9.1v-2.3h-.4c-.4 0-.8.1-1.2.4-.4.2-.7.7-1.1 1.2v-1.5h-2.5zM14.6 13.3v-.7c0-1.3-.3-2.4-1-3s-1.7-1-3.2-1c-.8 0-1.5.1-2.1.3-.6.2-1 .5-1.3 1-.3.4-.5.9-.7 1.5-.1.6-.2 1.3-.2 2v4.5c0 1.6.3 2.7.9 3.6s1.6 1.2 3.1 1.2c1.2 0 2.1-.5 2.5-1.6l.2 1.4h1.8v-7h-4.1v1.6h1.6v1.1c0 .4 0 .8-.1 1.1-.1.3-.1.6-.3.8s-.3.4-.5.5c-.2.1-.5.2-.8.2-.6 0-1-.2-1.3-.6-.2-.4-.3-1-.3-1.8V11.7c0-.2 0-.3.1-.5 0-.1.1-.2.2-.4l.3-.3c.1-.1.2-.1.4-.2.2 0 .3-.1.5-.1.3 0 .5 0 .7.1.2.1.3.1.4.3.1.1.2.3.2.5.1.2.1.4.1.6v1.4h2.9zM29.7 22.5v-9.8h-2.5v7.9c-.4.3-.8.4-1.1.4-.3 0-.5-.1-.6-.2-.1-.1-.2-.4-.2-.7v-7.4h-2.5v7.9c0 .6.1 1.1.4 1.5.3.4.7.6 1.3.6.9 0 1.7-.4 2.6-1.1v.9h2.6z"/></g></svg>