<svg xmlns="http://www.w3.org/2000/svg" viewBox="0 0 75.8 32" style="enable-background:new 0 0 75.8 32" xml:space="preserve"><g style="opacity:.3"><path d="M22.3 5.6c-4.3-.5-7 1.5-7 1.5s-4 2.5-4.5 6.7c0 0 .4-2.9 4.2-4.4s7.4 1.4 7.4 1.4l2.4 2.3s7 8.1 9.4 10.4c2.4 2.3 5 2.7 5 2.7s2.8.7 6-.4c3.2-1.2 4.3-3.1 4.3-3.1s2.3-2.7 2.3-5.8c0 0-.7 2.3-2.5 3.2-1.7.9-2.9 1.7-7 1.1 0 0-1.5-.3-2.6-1s-2.6-2.1-2.6-2.1-1.5-1.5-2.9-3.2-3.5-4.4-3.5-4.4-4.1-4.4-8.4-4.9z"/><path d="M10.6 18.1c.7 2.5 1.3 3.3 1.6 3.7.3.5 1.9 2 1.9 2s4 3.4 8.1 2.5 5.3-2.4 5.3-2.4c.7-.4 3.2-3.1 3.2-3.1l-3.9-4.4s-2.9 3.4-4.8 3.8c-1.9.4-3-.4-3-.4s-1.7-.6-2.3-2.7.3-3.3.3-3.3.1-.3 1.3-1.5c1.2-1.3 3.4-.9 3.4-.9-1.3-.8-1.6-.9-1.6-.9-2.6-1-5-.3-5-.3s-2.7.4-4 3.6c.1.1-1 2.8-.5 4.3zM54.3 9.1h.9s.1 0 .1-.1V8s0-.1-.1-.1h-2s-.1 0-.1.1v4s0 .1.1.1h1s.1 0 .1-.1v-1.3s0-.1.1-.1h.4s.1 0 .1-.1v-1s0-.1-.1-.1h-.5v-.3c-.1.1-.1 0 0 0zM47.7 7.5c-.2-.1-2.7-2.2-7.1-2-4.4.2-8.7 4.6-8.8 5l3.9 4.9s3.4-4.2 5.8-4c2.4.2 3 1.3 3 1.3s1.3 1.3 1.4 3.2-1.7 3.7-3.1 4.3c0 0 2.9.6 5.5-.5s3.7-4.1 3.6-5.3c0 0-3.3-.3-4.4-3.1s.3-3.7.2-3.8z"/><path d="M50.2 12.2s.1-.1 0 0l.1-4.1s0-.1-.1-.1h-.9v4.1s0 .1.1.1h.8zM50.5 8.1v4s0 .1.1.1h.8s.1 0 .1-.1V11v.1l.2 1s0 .1.1.1h1s.1 0 .1-.1v-4s0-.1-.1-.1H52s-.1 0-.1.1v1.3-.1l-.3-1.2s0-.1-.1-.1l-1 .1zM61.4 12.2h.9s.1 0 .1-.1V9.2s0-.1.1-.1h.5s.1 0 .1-.1V8s0-.1-.1-.1h-2.3V9s0 .1.1.1h.5s.1 0 .1.1v3c-.1-.1-.1 0 0 0zM65.3 8.1h-1.9s-.1 0-.1.1v4s0 .1.1.1h2s.1 0 .1-.1v-1s0-.1-.1-.1h-.9v-.3h.4v-1h-.4v-.6h.9s.1 0 .1-.1l-.2-1zM56.7 8.1v4s0 .1.1.1h.8s.1 0 .1-.1V11v.1l.2 1s0 .1.1.1h1s.1 0 .1-.1v-4s0-.1-.1-.1h-.8s-.1 0-.1.1v1.3-.1l-.3-1.2s0-.1-.1-.1l-1 .1zM56.4 12.2c.1 0 .1-.1 0 0l.1-4.1s0-.1-.1-.1h-.9v4.1s0 .1.1.1h.8zM60.3 12.2c.1 0 .1-.1 0 0l.1-4.1s0-.1-.1-.1h-.9v4.1s0 .1.1.1h.8z"/></g></svg>