<svg xmlns="http://www.w3.org/2000/svg" viewBox="0 0 81.8 32" style="enable-background:new 0 0 81.8 32" xml:space="preserve"><g style="opacity:.3"><path d="M56.6 22.8v-8.6h2.1v-2.1h-6.6v2.1h2.2v8.6zM47.2 13.2v-1.3h-3.9v10.9h4v-1.2h-2.5v-3.7H47v-1.3h-2.2v-3.4zM59 22.8h2.3l.4-1.7h2.8l.4 1.7H67l-2.7-10.7H62l-3 10.7zm4.1-8.1 1 4.7H62l1.1-4.7zM37.6 11.9h-1.4l2.2 10.9h1.2l2.3-10.9h-1.4L39 20.2zM68.4 12.1v10.7h5v-2.1h-2.7v-8.6zM74.8 12.1v10.7h2.4v-5.4l2.2 5.4h2.4l-2.4-5.6 2.2-5.1h-2.3L77.2 17v-4.9zM33.1 11.9h1.5v10.9h-1.5zM6.3 26.1c1.5.7 3.2 1.2 5 1.2 6.2 0 11.2-5 11.2-11.2s-5-11.2-11.2-11.2C5 4.8 0 9.8 0 16c0 2.7.9 5.2 2.5 7.1l-.9 4.1 4.7-1.1zM8 12.9l.5.5c-.7.7-1.1 1.6-1.1 2.6 0 2.1 1.7 3.8 3.8 3.8S15 18.1 15 16s-1.7-3.8-3.8-3.8c-.4 0-.9.1-1.3.2l-.2-.7c.5-.2 1-.3 1.5-.3 2.5 0 4.5 2 4.5 4.5s-2 4.5-4.5 4.5-4.5-2-4.5-4.5c0-1.1.5-2.2 1.3-3zm4.7 4.3c.1.1.2.4 0 .5-.1.1-.2.1-.3.1-.1 0-.2 0-.2-.1l-1.3-1.3v-2.6c0-.2.2-.4.4-.4s.4.2.4.4v2.3l1 1.1zM27.2 11.9v10.9h3.9v-1.2h-2.4v-9.7z"/></g></svg>