<svg version="1.1" id="Layer_1" xmlns="http://www.w3.org/2000/svg" x="0" y="0" viewBox="0 0 68.3 32" style="enable-background:new 0 0 68.3 32" xml:space="preserve"><style>.st0{opacity:.3}</style><path class="st0" d="M18.3 14.7v-.4c0-.2 0-.4-.1-.6-.1-1-.4-2.1-.7-3-.4-1.2-1.2-2-2.4-2.5-1.3-.5-2.6-.8-4-.9-.5 0-1-.1-1.6-.1-1.5.1-3.1.3-4.6.8-1.5.5-2.5 1.4-3 3-.2.6-.3 1.2-.5 1.8-.2 1.1-.3 2.1-.3 3.2s.1 2.2.3 3.2c.1.6.3 1.2.5 1.8.5 1.5 1.5 2.5 3 3s3.1.7 4.7.7c.5 0 1 0 1.6-.1 1.4-.1 2.7-.3 4-.9 1.2-.5 1.9-1.3 2.4-2.5.4-1 .6-2 .7-3 0-.2 0-.4.1-.6v-.4c0-.2 0-.4.1-.7v-1.2c-.1-.2-.2-.4-.2-.6zm-3.6 1.6c-.2.4-.4.7-.7 1-.3.3-.6.5-1 .7-.4.2-.8.2-1.2.2-.2 0-.5 0-.7-.1l-.6-.3v1.4c0 .1 0 .2-.1.3 0 .1-.1.2-.2.3-.1.1-.2.1-.3.2-.1 0-.2.1-.3.1-.1 0-.2 0-.3-.1-.1 0-.2-.1-.3-.2-.1-.1-.1-.2-.2-.3 0-.1-.1-.2-.1-.3v-4.8c0-.2-.1-.4-.3-.6-.2-.3-.6-.5-1-.4-.2 0-.4 0-.6.1-.2.1-.3.2-.4.3-.2.3-.3.7-.3 1.3v4.1c0 .2-.1.4-.2.6 0 .1-.1.2-.2.2s-.2.1-.3.1c-.1 0-.2 0-.3-.1-.1 0-.2-.1-.3-.2-.1-.1-.1-.2-.2-.3 0-.1-.1-.2-.1-.3V15c0-.4.1-.9.2-1.3s.3-.7.6-1c.3-.3.6-.5.9-.7.4-.2.8-.3 1.3-.2.2 0 .4 0 .7.1.2 0 .4.1.6.2.4.1.7.4 1 .7.2-.2.5-.4.8-.5.4-.2.8-.2 1.2-.2.4 0 .8.1 1.2.2.2.1.3.2.5.3h.1c.1.1.3.2.4.3l.1.1.4.4c.1.2.2.3.3.5v.1c.1.2.1.3.1.5v.1c0 .2.1.4.1.6-.1.3-.2.7-.3 1.1zM21 15.4v4.5h-1.3v-7.2h.4l4.3 4.6v-4.5h1.3V20h-.4L21 15.4zm13.6-.5h1.3v1h-1.3v4h-1.2v-4h-1.1l2-2.5h.3v1.5zm4.1 4c.6 0 1.1-.2 1.5-.7l.6 1c-.4.4-1.1.8-2.1.8-1.6 0-2.6-1.1-2.6-2.6s1-2.6 2.6-2.6c1.1 0 1.8.4 2.1.8l-.6 1c-.4-.4-.9-.7-1.5-.7-.8 0-1.4.6-1.4 1.5.1.9.6 1.5 1.4 1.5zm4.2-6.5v3c.2-.3.7-.6 1.5-.6 1.3 0 2 .9 2 2.2v2.9h-1.2v-2.8c0-.8-.4-1.2-1.1-1.2-.7 0-1.1.4-1.1 1.2v2.8h-1.2v-7.5h1.1zM52.5 12.9c1.4 0 2.5.9 2.5 2.4s-1 2.4-2.5 2.4h-1.4V20h-1.3v-7h2.7zm1.2 2.3c0-.7-.5-1.2-1.3-1.2h-1.2v2.4h1.2c.8 0 1.3-.5 1.3-1.2zm4.1 4.8c-1.3 0-2.4-1-2.4-2.6s1.1-2.6 2.4-2.6c.6 0 1.1.2 1.5.6v-.5h1.2v5h-1.2v-.5c-.3.4-.9.6-1.5.6zm-1.1-2.6c0 1 .6 1.5 1.4 1.5.7 0 1.3-.6 1.3-1.5s-.6-1.5-1.3-1.5c-.8 0-1.4.5-1.4 1.5zm9.7-2.5L63.9 22h-1.2l.7-2.1-2.2-5h1.3l1.4 3.5 1.2-3.5h1.3zM28.9 19.9c-1.3 0-2.4-1-2.4-2.6s1.1-2.6 2.4-2.6c.6 0 1.1.2 1.5.6v-.5h1.2v5h-1.2v-.5c-.4.4-.9.6-1.5.6zm-1.2-2.6c0 1 .6 1.5 1.4 1.5.7 0 1.3-.6 1.3-1.5 0-1-.6-1.5-1.3-1.5-.7 0-1.4.5-1.4 1.5zm4.6-2.5"/></svg>