<svg xmlns="http://www.w3.org/2000/svg" viewBox="0 0 68.9 32" style="enable-background:new 0 0 68.9 32" xml:space="preserve"><g style="opacity:.3"><path d="m31.4 6-4.1.9v3.3l4.1-.9zM23.2 25.9V16s1.5-1.7 3-.7v-3.9s-.8-.4-2.3.1c0 0-.9.5-1.1 1.1l-.2-1.2h-3.5v14.5h4.1zM10.7 8.9s-.2 11.2 0 13.3 1.8 3.3 1.8 3.3c3.5 1.2 5.3 0 5.3 0v-3.2c-3.1.9-3.1-1.3-3.1-1.3v-6h3.1v-3.5h-3V8l-4.1.9zM27.3 11.5h4.1v14.4h-4.1zM36.5 6l-3.7.9V26H37v-1c1.6 1.1 3.4 1 3.4 1 2.8-.6 3.5-2 3.5-2s1-.9 1.5-4.2-1.1-5.9-1.1-5.9-1.1-2.2-3.7-2.7-3.9 1.2-3.9 1.2l-.2.1V6zm.5 9.6s.5-.9 2.1-.8c1.6.1 2.3 2.7 2.3 2.7s.4 3.6-1.4 4.6c-1.8.9-3-.4-3-.4v-6.1zM54.5 11.5s-3.9-1.3-6.5 1.6c-2.6 2.9-1.7 7.3-1.7 7.3s.4 3.7 3.8 5.1c3.5 1.4 7.3-.6 7.3-.6v-3.2c-2.3.9-3.3.9-5.2.7-1.9-.2-1.9-2.3-1.9-2.3h7.9c.3-2.4-.2-3.7-.2-3.7-.5-3.6-3.5-4.9-3.5-4.9zm-4.3 5.6c0-.1-.1-2.4 2-2.6 2.1-.2 2.2 2.6 2.2 2.6h-4.2z"/></g></svg>