<svg version="1.1" id="Layer_1" xmlns="http://www.w3.org/2000/svg" x="0" y="0" viewBox="0 0 90.1 32" style="enable-background:new 0 0 90.1 32" xml:space="preserve"><style>.st0{opacity:.3}</style><path class="st0" d="M15.5 7.8c.6 1 .8 2 .8 3.2 0 4-3.4 9.4-6.2 13.1H3.7L1.1 8.6l5.8-.4 1.4 11c1.2-2 2.8-5.4 2.8-7.6 0-1.2-.2-2-.6-2.8l5-1zm31.8 3.6c0 .6 0 1.4-.2 2L45.4 24H40l1.6-9.8c0-.2.2-.8.2-1 0-.8-.4-.8-1-.8-.8 0-1.4.4-1.8.6l-2 11h-5.4L34 8h4.8v1.2c1.2-.8 2.6-1.6 4.6-1.6 2.8.4 3.9 1.8 3.9 3.8zm16.2-1.8c1.6-1.2 3-1.8 5-1.8 2.8 0 3.8 1.4 3.8 3.6 0 .6 0 1.4-.2 2L70.6 24h-5.4l1.6-10v-.8c0-.8-.4-1-1-1s-1.4.2-1.8.6L62.1 24h-5.4l1.6-10v-.8c0-.8-.4-1-1-1-.8 0-1.4.4-1.8.6L53.6 24h-5.4l2.4-16h4.6l.2 1.4c1-.8 2.6-1.6 4.6-1.6 1.7.2 2.9.8 3.5 1.8zm19.7 4.8c0-1.4-.4-2.2-1.4-2.2-2.2 0-2.6 3.8-2.6 5.8 0 1.4.4 2.4 1.4 2.4 2.2-.2 2.6-4.2 2.6-6zm-9.5 3.2c0-5 2.6-9.8 8.8-9.8 4.6 0 6.2 2.8 6.2 6.4 0 5-2.6 10-8.8 10-4.6.2-6.2-2.8-6.2-6.6zM25.8 14.4c0-1.4-.4-2.2-1.4-2.2-2.2 0-2.6 3.8-2.6 5.8 0 1.4.4 2.4 1.4 2.4 2.2-.2 2.6-4.2 2.6-6zm-9.5 3.2c0-5 2.6-9.8 8.8-9.8 4.6 0 6.2 2.8 6.2 6.4 0 5-2.6 10-8.8 10-4.5.2-6.2-2.8-6.2-6.6z"/></svg>