<svg xmlns="http://www.w3.org/2000/svg" viewBox="0 0 250 250" style="enable-background:new 0 0 250 250" xml:space="preserve"><linearGradient id="a" gradientUnits="userSpaceOnUse" x1="-179.454" y1="319.772" x2="-182.602" y2="314.321" gradientTransform="matrix(10.9488 0 0 -10.9488 2080.397 3630.988)"><stop offset="0" style="stop-color:#0052cc"/><stop offset=".92" style="stop-color:#2684ff"/></linearGradient><path d="M97.7 120c-1.4-1.7-3.6-1.9-5.2-.8-.6.3-.8.8-1.1 1.4l-32.7 65.2c-.8 1.9-.3 4.4 1.7 5.2.6.3 1.1.6 1.7.6h45.4c1.4 0 2.8-.8 3.6-2.2 10-20.4 3.9-51.2-13.4-69.4z" style="fill:url(#a)"/><path d="M121.9 60.6c-16.5 25.6-18.4 57.8-5 85l22 43.7c.6 1.4 1.9 2.2 3.6 2.2h45.4c2.2 0 3.9-1.7 3.9-3.9 0-.6-.3-1.1-.3-1.7l-63-125.4c-.8-1.9-3-2.8-5-1.7-.8.4-1.3 1-1.6 1.8z" style="fill:#2684ff"/></svg>