<svg xmlns="http://www.w3.org/2000/svg" viewBox="0 0 250 250" style="enable-background:new 0 0 250 250" xml:space="preserve"><path style="fill:#171826" d="M0 0h250v250H0z"/><path d="M172.3 82c15.4 22.6 22.9 48 20.1 77.3 0 .1-.1.2-.2.3-11.6 8.5-22.9 13.7-34 17.2-.2.1-.4 0-.5-.2-2.6-3.6-4.9-7.3-6.9-11.3-.1-.2 0-.5.2-.6 3.7-1.4 7.2-3.1 10.6-5 .3-.2.3-.5 0-.7-.7-.5-1.4-1.1-2.1-1.7-.1-.1-.3-.1-.4-.1-22 10.2-46.1 10.2-68.3 0-.1-.1-.3 0-.4.1-.7.6-1.4 1.1-2.1 1.6-.2.2-.2.6 0 .7 3.4 1.9 6.9 3.7 10.6 5.1.2.1.4.4.2.6-2 4-4.3 7.7-6.9 11.3-.1.1-.3.2-.5.2-11.1-3.4-22.3-8.6-33.9-17.2-.1-.1-.2-.2-.2-.3-2.4-25.4 2.5-51 20.1-77.3 0-.1.1-.1.2-.2 8.7-4 18-6.9 27.7-8.6.2 0 .4.1.4.2 1.2 2.1 2.6 4.8 3.5 7.1 10.2-1.6 20.6-1.6 31.1 0 .9-2.2 2.3-4.9 3.4-7.1.1-.2.3-.2.4-.2 9.7 1.7 19 4.6 27.7 8.6.1 0 .1.1.2.2zm-57.6 48.2c.1-7.5-5.4-13.7-12.2-13.7-6.8 0-12.2 6.1-12.2 13.7 0 7.5 5.5 13.7 12.2 13.7 6.8 0 12.2-6.2 12.2-13.7zm45.1 0c.1-7.5-5.4-13.7-12.2-13.7-6.8 0-12.2 6.1-12.2 13.7 0 7.5 5.5 13.7 12.2 13.7 6.9 0 12.2-6.2 12.2-13.7z" style="fill:#5865f2"/></svg>