<svg xmlns="http://www.w3.org/2000/svg" viewBox="0 0 250 250" style="enable-background:new 0 0 250 250" xml:space="preserve"><path d="M125 62c34.9 0 63 28.2 63 63s-28.2 63-63 63-63-28.2-63-63 28.1-63 63-63z" style="fill:#e74d89"/><path d="M125 192.5c-37.4 0-67.5-30.1-67.5-67.5S87.9 57.5 125 57.5s67.5 30.1 67.5 67.5-30.1 67.5-67.5 67.5zm56.9-58.3c-2-.6-17.8-5.3-36-2.5 7.5 20.6 10.6 37.6 11.2 41 13.1-8.7 22.3-22.3 24.8-38.5zm-34.3 44.1c-.8-5-4.2-22.6-12.3-43.8h-.3c-32.6 11.4-44.3 34-45.2 36 9.8 7.5 22 12.3 35.4 12.3 7.9-.1 15.4-1.8 22.4-4.5zm-65.5-14.8c1.4-2.2 17.3-28.4 46.8-37.9.8-.3 1.4-.6 2.2-.6-1.4-3.3-3.1-6.4-4.7-9.8-28.7 8.6-56.9 8.4-59.4 8.1v1.7c.3 14.8 5.9 28.4 15.1 38.5zm-13.7-50.2c2.5 0 26.2.3 53.3-7-9.5-17-19.8-31.2-21.5-33.2a58.38 58.38 0 0 0-31.8 40.2zM111.6 69c1.7 2.2 12 16.5 21.5 33.7 20.6-7.8 29.3-19.2 30.1-20.9-10.3-8.9-23.7-14.5-38.2-14.5-4.7.3-9.2.8-13.4 1.7zm58 19.5c-1.1 1.7-10.9 13.9-32.1 22.9 1.4 2.8 2.5 5.6 3.9 8.4.6 1.1.8 2 1.4 3.1 19.2-2.5 38.2 1.4 40.2 2-.3-13.8-5.3-26.4-13.4-36.4z" style="fill:#b2215a"/></svg>