<svg xmlns="http://www.w3.org/2000/svg" viewBox="0 0 250 250" style="enable-background:new 0 0 250 250" xml:space="preserve"><path d="M125 58.5c-37.4 0-67.5 30.1-67.5 67.5 0 31.8 21.7 58 51 65.5-.3-.8-.6-2-.6-3.1V177h-8.4c-4.5 0-8.6-2-10.6-5.9-2.2-4.2-2.5-10.3-8.1-14.2-1.7-1.4-.3-2.8 1.4-2.5 3.6.8 6.4 3.1 9.2 6.7 2.8 3.6 3.9 4.5 8.9 4.5 2.2 0 6.1-.3 9.5-.6 2-4.7 5-8.9 8.9-10.9-22.6-2.8-33.5-13.9-33.5-29 0-6.7 2.8-12.8 7.5-18.1-1.4-5.3-3.6-16.2.6-20.4 10 0 16.2 6.7 17.8 8.4 5-1.7 10.6-2.8 16.5-2.8s11.4 1.1 16.5 2.8c1.4-1.7 7.5-8.4 17.8-8.4 4.2 4.2 2.2 15.1.6 20.4 4.7 5.3 7.5 11.7 7.5 18.1 0 15.1-10.6 26.2-33.2 28.7 6.1 3.1 10.6 12.3 10.6 19v15.3c0 .6-.3 1.1-.3 1.4 26.2-9.2 45.2-34 45.2-63.6.2-37.3-29.9-67.4-67.3-67.4z"/></svg>