<svg version="1.1" id="Calque_1" xmlns="http://www.w3.org/2000/svg" x="0" y="0" viewBox="0 0 250 250" style="enable-background:new 0 0 250 250" xml:space="preserve"><style>.st0{fill:#e24329}.st1{fill:#fc6d26}.st2{fill:#fca326}</style><path class="st0" d="m125 191.5 26.7-82H98.3l26.7 82z"/><path class="st1" d="m125 191.5-26.7-82H61.2l63.8 82z"/><path class="st2" d="m61.2 109.6-8 25c-.8 2.2 0 4.7 1.9 6.1l69.9 50.9-63.8-82z"/><path class="st0" d="M61.2 109.6h37.4l-16-49.2c-.8-2.5-4.4-2.5-5.2 0l-16.2 49.2z"/><path class="st1" d="m125 191.5 26.7-82h37.4l-64.1 82z"/><path class="st2" d="m188.8 109.6 8 25c.8 2.2 0 4.7-1.9 6.1L125 191.5l63.8-81.9z"/><path class="st0" d="M188.8 109.6h-37.1l16-49.2c.8-2.5 4.4-2.5 5.2 0l15.9 49.2z"/></svg>