<svg xmlns="http://www.w3.org/2000/svg" viewBox="0 0 250 250" style="enable-background:new 0 0 250 250" xml:space="preserve"><path d="M159.2 102.5V86.6c4.4-1.9 7.1-6.3 7.1-10.9v-.3c0-6.8-5.5-12.3-12.3-12.3h-.3c-6.8 0-12.3 5.5-12.3 12.3v.3c0 4.6 2.7 9 7.1 10.9v15.8c-6 .8-11.7 3.6-16.4 7.4L88.4 76c.3-1.1.5-2.2.5-3.6 0-7.6-6-13.9-13.7-13.9s-13.9 6-13.9 13.7 6 13.9 13.7 13.9c2.5 0 4.6-.5 6.8-1.9l42.9 33.3c-7.9 12-7.6 27.3.5 39.1l-13.1 13.1c-1.1-.3-2.2-.5-3.3-.5-6.3 0-11.2 5.2-11.2 11.2 0 6.3 5.2 11.2 11.2 11.2 6.3 0 11.2-5.2 11.2-11.2 0-1.1-.3-2.2-.5-3.3l12.8-12.8c15.3 11.7 37.2 9 48.9-6.3s9-37.2-6.3-48.9c-4.5-3.6-10-5.8-15.7-6.6m-5.5 52.1c-9.8.3-18-7.4-18.3-17.5-.3-9.8 7.4-18 17.5-18.3h1.1c9.8.3 17.5 8.7 17.2 18.6-.5 9.3-7.9 17-17.5 17.2" style="fill:#ff7a59"/></svg>