<svg xmlns="http://www.w3.org/2000/svg" viewBox="0 0 250 250" style="enable-background:new 0 0 250 250" xml:space="preserve"><path d="m187.4 121.3-56.9-56.9-5.5-5.5-42.9 42.9-19.6 19.6c-2 2-2 5.4 0 7.4l39.2 39.2 23.3 23.3 42.8-42.9.7-.7 18.9-18.9c2.1-2.1 2.1-5.4 0-7.5.1 0 0 0 0 0zM125 144.6 105.4 125l19.6-19.6 19.6 19.6-19.6 19.6z" style="fill:#2684ff"/><linearGradient id="a" gradientUnits="userSpaceOnUse" x1="-212.142" y1="235.095" x2="-214.619" y2="232.618" gradientTransform="matrix(11.028 0 0 -11.028 2460.974 2678.251)"><stop offset=".18" style="stop-color:#0052cc"/><stop offset="1" style="stop-color:#2684ff"/></linearGradient><path d="M125 105.4c-12.8-12.8-12.9-33.5-.1-46.4L82 101.8l23.3 23.3 19.7-19.7z" style="fill:url(#a)"/><linearGradient id="b" gradientUnits="userSpaceOnUse" x1="-211.484" y1="227.977" x2="-209.012" y2="230.449" gradientTransform="matrix(11.028 0 0 -11.028 2460.974 2678.251)"><stop offset=".18" style="stop-color:#0052cc"/><stop offset="1" style="stop-color:#2684ff"/></linearGradient><path d="M144.6 124.9 125 144.6c12.9 12.9 12.9 33.7 0 46.6l42.9-42.9-23.3-23.4z" style="fill:url(#b)"/></svg>