<svg xmlns="http://www.w3.org/2000/svg" viewBox="0 0 250 250" style="enable-background:new 0 0 250 250" xml:space="preserve"><path style="fill:#171826" d="M0 0h250v250H0z"/><path d="m187.4 121.3-56.9-56.9-5.5-5.5-42.9 42.9-19.6 19.6c-2 2-2 5.4 0 7.4l39.2 39.2 23.3 23.3 42.8-42.9.7-.7 18.9-18.9c2.1-2.1 2.1-5.4 0-7.5.1 0 0 0 0 0zM125 144.6 105.4 125l19.6-19.6 19.6 19.6-19.6 19.6z" style="fill:#2684ff"/><linearGradient id="a" gradientUnits="userSpaceOnUse" x1="-99.384" y1="129.663" x2="-101.861" y2="132.139" gradientTransform="translate(1217.502 -1344.277) scale(11.028)"><stop offset=".18" style="stop-color:#0052cc"/><stop offset="1" style="stop-color:#2684ff"/></linearGradient><path d="M125 105.4c-12.8-12.8-12.9-33.5-.1-46.4L82 101.8l23.3 23.3 19.7-19.7z" style="fill:url(#a)"/><linearGradient id="b" gradientUnits="userSpaceOnUse" x1="-98.728" y1="136.778" x2="-96.256" y2="134.307" gradientTransform="translate(1217.502 -1344.277) scale(11.028)"><stop offset=".18" style="stop-color:#0052cc"/><stop offset="1" style="stop-color:#2684ff"/></linearGradient><path d="M144.6 124.9 125 144.6c12.9 12.9 12.9 33.7 0 46.6l42.9-42.9-23.3-23.4z" style="fill:url(#b)"/></svg>