<svg xmlns="http://www.w3.org/2000/svg" viewBox="0 0 250 250" style="enable-background:new 0 0 250 250" xml:space="preserve"><path d="M106.8 56.7c-7.5 0-13.6 6.1-13.6 13.7 0 7.5 6.1 13.7 13.6 13.7h13.6V70.3c.1-7.5-6-13.6-13.6-13.6m0 36.4H70.5c-7.5 0-13.6 6.1-13.6 13.7 0 7.5 6.1 13.7 13.6 13.7h36.4c7.5 0 13.6-6.1 13.6-13.7s-6.1-13.7-13.7-13.7z" style="fill-rule:evenodd;clip-rule:evenodd;fill:#36c5f0"/><path d="M193.2 106.8c0-7.5-6.1-13.7-13.6-13.7S166 99.2 166 106.8v13.7h13.6c7.5-.1 13.6-6.2 13.6-13.7zm-36.4 0V70.3c0-7.5-6.1-13.6-13.6-13.7-7.5 0-13.6 6.1-13.6 13.7v36.4c0 7.5 6.1 13.7 13.6 13.7s13.6-6.1 13.6-13.6z" style="fill-rule:evenodd;clip-rule:evenodd;fill:#2eb67d"/><path d="M143.2 193.3c7.5 0 13.6-6.1 13.6-13.7 0-7.5-6.1-13.7-13.6-13.7h-13.6v13.7c-.1 7.6 6 13.7 13.6 13.7zm0-36.4h36.4c7.5 0 13.6-6.1 13.6-13.7 0-7.5-6.1-13.7-13.6-13.7h-36.4c-7.5 0-13.6 6.1-13.6 13.7-.1 7.6 6 13.7 13.6 13.7z" style="fill-rule:evenodd;clip-rule:evenodd;fill:#ecb22e"/><path d="M56.8 143.2c0 7.5 6.1 13.7 13.6 13.7S84 150.8 84 143.2v-13.7H70.5c-7.6.1-13.7 6.2-13.7 13.7zm36.4 0v36.4c0 7.5 6.1 13.7 13.6 13.7s13.6-6.1 13.6-13.7v-36.4c0-7.5-6.1-13.7-13.6-13.7-7.5.1-13.6 6.2-13.6 13.7" style="fill-rule:evenodd;clip-rule:evenodd;fill:#e01e5a"/></svg>