<svg xmlns="http://www.w3.org/2000/svg" viewBox="0 0 250 250" style="enable-background:new 0 0 250 250" xml:space="preserve"><path style="fill:#171826" d="M0 0h250v250H0z"/><path d="m177.3 79.3-6.5 45.7-45.7-6.5 6.5-45.7 45.7 6.5z" style="opacity:.8;fill:#a295ae;enable-background:new"/><path d="m72.9 170.7 6.5-45.7 45.7 6.5-6.5 45.7-45.7-6.5z" style="opacity:.8;fill:#5d6f6d;enable-background:new"/><path d="m79.4 72.9 45.7 6.5-6.5 45.7-45.7-6.5 6.5-45.7z" style="opacity:.8;fill:#8cd592;enable-background:new"/><path d="m170.7 177.2-45.7-6.5 6.5-45.7 45.7 6.5-6.5 45.7z" style="opacity:.8;fill:#665e74;enable-background:new"/><path d="m120.5 194.2-27.7-36.9 36.9-27.7 27.7 36.9-36.9 27.7z" style="opacity:.8;fill:#3c3647;enable-background:new"/><path d="m194.2 129.5-36.9 27.7-27.7-36.9 36.9-27.7 27.7 36.9z" style="opacity:.8;fill:#837193;enable-background:new"/><path d="m129.6 55.8 27.7 36.9-36.9 27.7-27.7-36.9 36.9-27.7z" style="opacity:.8;fill:#a2f4ac;enable-background:new"/><path d="m55.8 120.5 36.9-27.7 27.7 36.9-36.9 27.7-27.7-36.9z" style="opacity:.8;fill:#7ea685;enable-background:new"/><path d="m125 107.5 17.5 17.5-17.5 17.5-17.5-17.5 17.5-17.5z" style="fill:#3c3647"/></svg>