<svg xmlns="http://www.w3.org/2000/svg" viewBox="0 0 250 250" style="enable-background:new 0 0 250 250" xml:space="preserve"><path d="M115.8 110.5c-2.6-2.6-6-4-9.8-4H85.6v37h13.9v-23.1h4.4c1.2 0 2.4.4 3.2 1.4l4.8 4.8c.8.8 1.4 2 1.4 3.2v13.7h13.9v-15.7c0-3.6-1.4-7.2-4-9.8l-7.4-7.5zm71.7-4v13.7c0 1.2-.4 2.4-1.4 3.2l-4.8 4.8c-.8.8-2 1.4-3.2 1.4h-6.6c1.4-2.2 2.2-4.8 2.2-7.4v-15.7h-13.9v13.7c0 1.2-.4 2.4-1.4 3.2l-4.8 4.8c-.8.8-2 1.4-3.2 1.4H146v-23.1h-14v37h20.3c3.6 0 7.2-1.4 9.8-4l4.6-4.6v8.6H180c3.6 0 7.2-1.4 9.8-4l7.4-7.4c2.6-2.6 4-6 4-9.8v-15.7c.1-.1-13.7-.1-13.7-.1zM48.7 120.4h9.2v23.1h13.9v-23.1H81v-13.9H48.7v13.9z" style="fill:#f42"/></svg>