<svg xmlns="http://www.w3.org/2000/svg" viewBox="0 0 2189.5 1646.9" style="enable-background:new 0 0 2189.5 1646.9" xml:space="preserve"><g style="opacity:.6"><path d="M489.1 379.9s121.5 6.1 292.5-99.5c0 0 51.9-39.1 205.9-143.5s236-114.8 236-114.8S1412-24 1507 79.5c0 0 52 46.5 91 206.2s75.5 223.8 75.5 223.8 73 112.2 129 169.6 169 180.4 169 180.4 93 88 138 227c0 0 31 133-77 197 0 0-47 36-312 14s-226.1-13-226.1-13-122.9-25-378.9 224-400 86-400 86-51 31-102-380c0 0-43-187-177-203s-273-104-273-104S-5.3 764.2.1 615.4s121.4-192 121.4-192 124.2-36.1 367.6-43.5z" style="opacity:.2;fill:#697d80"/><path d="M209.5 647.8s55.3-37.7 192.7-96.4C539.5 492.8 591.5 423 591.5 423s72.7-86.9 102.7-156.9 74.7-131.3 74.7-131.3 48-86.3 134-111.3S1054.2.2 1054.2.2s70.7-4.7 171.3 39.3c100.7 44 174 132.8 174 132.8l117.3 109.4 110 77.2 262 122.4S2052.5 541 2142.5 648s23 225.9 23 225.9-19 37-139 85c0 0-218.5 70-252.7 102s-100.8 63-199 204-180.2 201-180.2 201-97 91-222 99-147-26-147-26-54-22-166-175-334-229-334-229-110-35-264-8-192-84-192-84-65-113-14-245c-.1-.1 12.3-76.2 153.9-150.1z" style="opacity:.53;fill:#8c8cf9"/></g></svg>