<svg xmlns="http://www.w3.org/2000/svg" viewBox="0 0 419.1 130" style="enable-background:new 0 0 419.1 130" xml:space="preserve"><path d="M44.2 62.9H9.9c-3.7 0-6.7-3-6.7-6.7V21.9c0-3.7 3-6.7 6.7-6.7h34.3c3.7 0 6.7 3 6.7 6.7v34.3c0 3.7-3 6.7-6.7 6.7zM96.2 62.9H61.9c-3.7 0-6.7-3-6.7-6.7V21.9c0-3.7 3-6.7 6.7-6.7h34.3c3.7 0 6.7 3 6.7 6.7v34.3c-.1 3.7-3 6.7-6.7 6.7zM44.2 114.7H9.9c-3.7 0-6.7-3-6.7-6.7V73.7c0-3.7 3-6.7 6.7-6.7h34.3c3.7 0 6.7 3 6.7 6.7V108c0 3.7-3 6.7-6.7 6.7z"/><path d="M96.2 114.7H61.9c-3.7 0-6.7-3-6.7-6.7V73.7c0-3.7 3-6.7 6.7-6.7h34.3c3.7 0 6.7 3 6.7 6.7V108c-.1 3.7-3 6.7-6.7 6.7z" style="fill:#29ef95"/><path d="M115.5 97.9V29.7l44.5-.1c2.7 0 4.8.6 6.4 1.9 1.6 1.2 2.7 3.3 3.3 6.1v19.3c-.6 1.7-1.4 2.9-2.3 3.7s-2 1.4-3.1 2V65c1.1 0 2 .3 2.7.8.7.5 1.6 1.4 2.7 2.6v22.7c-1.1 4.6-4.3 6.9-9.7 6.9h-44.5zm34.7-41V44.3h-16.3v12.6h16.3zm0 27.4V68.4h-16.3v15.9h16.3zM227.6 97.8h-54V29.7H192l.2 53.8h16.5V30h.3v-.3h18.4l.2 68.1zM249.2 83.2h30.1l5.3 14.6h-54V29.7H249l.2 53.5zM316.4 64.6l28.2 33.2h-21.7l-17-18.4V97.8h-18.3V76.1l-.1-.1.1-.1V29.7H306l-.1 19.4 13.4-19.5h22l-.5.7h.3l-24.7 34.3zM365.9 97.8h-18.3V29.7H366l-.1 68.1zM405 89.2l.1 30-18.6 6.7-.1-27.7V43.9h-17.7V29.6l46.5.3v14h-10.4v45.3h.2z"/></svg>