<svg xmlns="http://www.w3.org/2000/svg" viewBox="0 0 467 130" style="enable-background:new 0 0 467 130" xml:space="preserve"><path d="m115.8 84.1-35.1 35.1c-10.4 10.4-27.3 10.4-37.7 0L7.8 84.1c-10.4-10.4-10.4-27.3 0-37.7l35.1-35.1C53.3.9 70.2.9 80.6 11.3l35.1 35.1c10.5 10.4 10.5 27.3.1 37.7z" style="fill:#671cc9"/><path d="M63.6 63.4 54 54c-2.4-2.4-6.3-2.3-8.7.1-2.4 2.4-2.3 6.3.1 8.7L55.7 73l3.2 3.1c3.1 3 8 2.9 11-.1l3.1-3.2 5.1-5.3c2.4-2.4 2.3-6.3-.1-8.7-2.4-2.4-6.3-2.3-8.7.1l-4.4 4.5c-.2.4-.9.4-1.3 0z" style="fill:#fff"/><path d="M163.1 83.3h31l5.5 15.1H144V28.3h19l.1 55zM221.5 98.4h-18.9V28.3h19l-.1 70.1zM224.8 83.4l35.8-.1.1-12.8h-26c-5.5 0-8.9-2.4-10-7.1 0-1.2 0-2.5.1-3.8 0-1.3.1-2.6.1-3.8h-.1V36.4c.6-2.9 1.7-5 3.4-6.3 1.6-1.3 3.9-1.9 6.6-1.9h45.8c-1.3 3.6-2.4 6.6-3.3 9-.9 2.4-1.6 4.4-2.2 6h-5.6l-24.6.1v12.5l25.8-.1c2.8 0 5 .6 6.6 1.9 1.6 1.3 2.8 3.4 3.4 6.3 0 .2 0 .3-.1.5 0 .2-.1.4-.1.5h.2v26.2c-1.1 4.7-4.5 7.1-10 7.1l-14.5.2v.1h-26.1l-5.3-15.1zM321.1 89.5l.1 30.9-19.1 6.9-.1-28.6V42.9h-18.2V28.2l47.9.3v14.4H321v46.6h.1zM364.6 64.2l29 34.2h-22.4l-17.5-19v19h-18.9V76l-.1-.1.1-.1V28.3h19l-.1 20 13.8-20.1h22.7l-.6.7h.3l-25.3 35.3zM415.5 98.4h-18.9V28.3h19l-.1 70.1zM455.8 89.5l.1 30.9-19.1 6.9-.1-28.5V42.9h-18.2V28.2l47.9.3v14.4h-10.7v46.6h.1z"/></svg>