<svg version="1.1" id="e37c00f5-ff96-45aa-87ea-1a24b78ba7bd" xmlns="http://www.w3.org/2000/svg" x="0" y="0" viewBox="0 0 1176.6 874" style="enable-background:new 0 0 1176.6 874" xml:space="preserve"><style>.st0{fill:#69ff97}.st1{fill:#444053}.st2,.st3{fill:none;stroke:#444053;stroke-miterlimit:10}.st3{stroke-width:.75}.st4{opacity:.2;fill:#7703fc;enable-background:new}.st10{fill:#2a3444}.st12,.st13{opacity:.2;fill:none;stroke:#5a5773;stroke-miterlimit:10;enable-background:new}.st13{stroke-dasharray:12}.st14,.st15{fill:#7703fc}.st15{opacity:.5;enable-background:new}.st18{fill:#2d293d}.st19{opacity:.1;enable-background:new}.st20{fill:#575988}.st21{opacity:5.000000e-02;enable-background:new}.st23{fill:#ffcdd3}.st24{fill:#dce6f2}.st25{fill:#656691}.st27{fill:#ffd037}.st29{fill:#9d9cb5}</style><path class="st0" d="M350.4 145s-2.7 10.7 16.4 40.8 17.8 34.4 16.7 43c-1.1 8.6-1 13.3-12.1 23.9 0 0-33.2 10.9-37.7 17.7-4.4 6.8 7.3 31.5 7.3 31.5s11.3 30-29.3 41.6c0 0-31.8 0-40.6 7.1 0 0 3.4-12.2-7.2-30.1s4-35.4 4-35.4 11.8-6.5 19.2-7c7.5-.5 9.8-3.9 5-12.5 0 0-6.9-3.6-16.6 4.1s-16.8 13.3-25.2 12.6c-8.4-.7-20.3-4.2-28.2-19.7-7.8-15.5-12-37.4-17.9-47.5s-9.1-12.2-9.1-12.2 7.4 5.6 33.1-13.5 39-10.9 39-10.9 20.6 5.5 23.9 41.9c0 0 6 34.6 18.2 13.7 0 0-4.1-11.8-12.4-29.2-8.2-17.4 13.8-33.8 30-39.2s23.5-20.7 23.5-20.7z"/><path class="st1" d="m217.7 210.6-.1-.2c5.1-2.1 28.5 10.6 47.2 21.6l-.1.2c-26.4-15.5-43.1-23.2-47-21.6z"/><path class="st1" d="m264.3 231.9.2-.1c14.9 8.8 32.9 20 46.3 29 1.3.9 2.6 1.7 4 2.5l-.2.3c-1.4-.8-2.7-1.7-4-2.5-13.4-9-31.4-20.4-46.3-29.2z"/><path class="st1" d="m314.2 263.5.3-.3c26.9 16.2 64.8 12.3 65.2 12.3l-4.2 4.7c-.4.1-34.2-.4-61.3-16.7z"/><path class="st2" d="M340.3 169.3s-8.8 24.6-2.1 41.9-7.2 60.2-7.2 60.2-4.6 18-12.1 22.5c0 0-10.8 13.4-17.1 14.9-6.3 1.5-20.9 15.1-20.5 22.7"/><path class="st2" d="M352.2 171.1s-6.2 12.6-15.5 12.5M364.7 187.5s-3.8 17.3-27.1 22.2M374.4 213.3s-11 17.6-34.6 15.4M372.3 246.2s-20.6 13.5-36.2 6.1M325.7 171.1s5.4 11.4 11.4 8M306 188.4s7.2 15.3 29.9 12.6M303.8 211.4s19.9 12.1 36.1 8.8M314.3 235.9s15.8 12.6 23.2 9.7M310.6 245.3s4.3 13.2.1 15.7M296.6 265.2s8.1-8.1 5.9-9.6M281.6 198s7.1 33.8-2.1 43M251.9 278.5s32.2-20.7 35-32.9M233.2 263.9s30.3-14.1 38.5-27.7"/><path class="st3" d="M253.6 187.2s14.7 24.5 5.5 41.6M223.3 241.7s22.5-9.1 27-17.9M228 194.7s7.5 13.9 4 19.9"/><path class="st2" d="M305.9 276.6s20.3-2.7 22.5 2.6M338.3 318.2s-1.1-22.2-13.8-30.8M282.7 285.6s21.3 2.5 28.8 16.4M318.4 334.3s3.3-16.3-12.3-27.7M267.4 305.2s17.7-.9 27.1 7.5M291.7 337.3s-1.7-12.9-6.3-15.3"/><path class="st4" d="M565.7 281.9c-39.8 20-83.2 28.7-125.6 35.5-42.4 6.7-85.2 11.9-127 26-26.9 9-55.3 23.7-68.5 46.4-12.8 21.8-8 45.1-1.3 65.4 5.1 15.3 11.6 30.7 25.5 40 9.7 6.5 22.2 9.5 32.7 15 36.6 19.2 42.5 64.1 36.6 105.5-2.8 19.4-7.5 39-7.5 58.1.1 19 5.6 37.9 20.6 49.1 15 11.1 37.4 13.4 59.4 11.6 44.7-3.6 89.7-22.2 132.5-42.1 94.8-44.1 185.6-96.7 276.3-149.1 33.5-19.4 67.2-38.9 98-61.9 17.1-12.8 34.1-27.4 42-45 10.1-22.3 2.4-46.5-17.9-56.6-34.1-16.8-91 5.4-120.4-16.6-16.2-12.1-18.3-34.2-15.7-55 5.7-44.6 29.1-93.8 11.2-131.5-12.3-25.9-44.6-41-79.8-37.3-37 3.9-77.9 28.2-88.9 61-11.3 33.8-47.1 63.8-82.2 81.5z"/><ellipse class="st4" cx="661" cy="690.5" rx="72.5" ry="17.9"/><linearGradient id="SVGID_1_" gradientUnits="userSpaceOnUse" x1="637.05" y1="595.09" x2="637.05" y2="205.09" gradientTransform="translate(0 32.11)"><stop offset="0" style="stop-color:gray;stop-opacity:.25"/><stop offset=".54" style="stop-color:gray;stop-opacity:.12"/><stop offset="1" style="stop-color:gray;stop-opacity:.1"/></linearGradient><path d="M301.8 237.2h670.5c5 0 9 4.1 9 9v372c0 5-4.1 9-9 9H301.8c-5 0-9-4.1-9-9v-372c0-4.9 4.1-9 9-9z" style="fill:url(#SVGID_1_)"/><path d="M302.9 242.7h668.4c5 0 9 4.1 9 9V617c0 5-4.1 9-9 9H302.9c-5 0-9-4.1-9-9V251.8c0-5 4-9.1 9-9.1z" style="fill:#fff"/><path d="M302.9 242.7h668.4c5 0 9 4.1 9 9V617c0 5-4.1 9-9 9H302.9c-5 0-9-4.1-9-9V251.8c0-5 4-9.1 9-9.1z" style="fill:#242c3a"/><path d="M302.9 242.7h668.4c5 0 9 4.1 9 9V617c0 5-4.1 9-9 9H302.9c-5 0-9-4.1-9-9V251.8c0-5 4-9.1 9-9.1z" style="opacity:4.000000e-02;fill:#5a5773;enable-background:new"/><path d="M976.9 238.3H297.4c-1.9 0-3.5 1.6-3.5 3.5v14.8h686.5v-14.8c0-1.9-1.6-3.5-3.5-3.5z" style="fill:#4b5460"/><g id="_x34_856ee63-6c9d-47e3-9e79-3603b2312fc4"><circle class="st10" cx="307.6" cy="247.4" r="4.7"/><circle class="st10" cx="320.3" cy="247.4" r="4.7"/><circle class="st10" cx="333" cy="247.4" r="4.7"/></g><path class="st4" d="M347.2 341.4h557.6c4.1 0 7.4 3.3 7.4 7.4v205.5c0 4.1-3.3 7.4-7.4 7.4H347.2c-4.1 0-7.4-3.3-7.4-7.4V348.8c0-4.1 3.4-7.4 7.4-7.4z"/><path d="m361.2 320.1 557.5 14.2c4.1.1 7.3 3.5 7.2 7.6l-5.2 205.4c-.1 4.1-3.5 7.3-7.6 7.2l-557.5-14.2c-4.1-.1-7.3-3.5-7.2-7.6l5.2-205.4c.1-4.1 3.5-7.3 7.6-7.2z" style="fill:#151b28"/><path class="st12" d="m439.4 366.6 398.8 10.2M438.6 397.8l398.8 10.1M437.8 428.9 836.6 439M437 460.1l398.8 10.1"/><path class="st13" d="m473.3 452.5-1 39.6"/><path class="st12" d="M436.3 491.2 835 501.3"/><path class="st13" d="m517.4 493.3 1.5-59.1"/><path class="st4" d="M781.2 429.6c-7.1.6-14-3.4-18.3-7.6-4.4-4.3-7.6-9.7-10.7-14.9-1-1.6-2-3.3-3-5-5.4-8.5-10.8-14.3-16.9-18.1-2.3-1.4-4.7-2.5-7.2-3.3-.2.6-.6 1.1-1 1.6-.9 1-2.2 1.5-3.6 1.6h-.2c-2.5-.1-4.6-1.9-4.9-4.4-2.3.1-4.5.6-6.7 1.4-6.3 2.4-11.1 7.5-15.5 12.6-5.3 6.1-10.4 12.5-15.1 19-1 1.3-1.9 2.6-2.9 4-5.2 7.2-10.5 14.6-17.4 20.5-9.3 7.9-20.4 11.2-29.8 9.1-11.3-2.6-19.3-12.6-25.1-21-.7-1.1-1.4-2.2-2.2-3.3-5.4-8-10.9-16.2-19.1-21-10.8-6.3-25.7-5.2-35.5 2.6-4.8 3.8-8.3 9-11.8 14-1.2 1.7-2.4 3.5-3.7 5.2-6.5 8.8-13.1 13.5-20.2 14.5-2.8.3-5.6.3-8.5 0-1.9-.1-3.8-.3-5.7-.2-9.6.4-18.3 5.8-22.9 14.3l-1 41.7 313.2 8 1.8-69c-2.1 1.1-4.7.4-5.9-1.7-.1-.3-.2-.5-.2-.6z"/><path class="st13" d="m566.2 396.6-2.5 97.8M609.9 434l-1.6 61.6M653.3 441.2l-1.4 55.5M695.5 391.6l-2.7 106.1M738.4 387.9l-2.8 110.9M785.9 429.6l-1.8 70.4"/><path class="st14" d="M724.6 375.9c-1-.9-2.3-1.4-3.6-1.4-2.5 0-4.5 1.9-4.9 4.3 0 .3-.1.6-.1.9v.6c.2 1.1.7 2.2 1.5 3 .9.9 2.1 1.4 3.4 1.4h.2c1.3 0 2.6-.6 3.6-1.6.4-.5.8-1 1-1.6.2-.5.3-.9.4-1.4v-.7c0-1.3-.5-2.6-1.5-3.5zm-.2 5.2c-.2.4-.4.7-.7.9-1.4 1.4-3.7 1.5-5.1.1-.5-.5-.9-1.2-1-2 0-.2-.1-.4-.1-.6 0-.3 0-.6.1-.9.4-1.6 1.8-2.8 3.5-2.8h.2c1.9 0 3.5 1.6 3.5 3.5v.2c-.1.7-.2 1.2-.4 1.6z"/><circle class="st14" cx="785.9" cy="428.7" r="4.3"/><path class="st14" d="M717.5 379.6c0 .2 0 .4.1.6h-1.4c-2.3.1-4.5.6-6.7 1.4-6.3 2.4-11.1 7.5-15.5 12.6-5.3 6.1-10.4 12.5-15.2 19-1 1.3-1.9 2.7-2.9 4-5.2 7.2-10.5 14.6-17.4 20.5-9.3 7.8-20.4 11.2-29.8 9-11.3-2.6-19.3-12.6-25.1-21-.7-1.1-1.5-2.2-2.2-3.3-5.4-8-10.9-16.2-19.2-21-10.8-6.3-25.7-5.2-35.5 2.6-4.7 3.8-8.3 9-11.8 14-1.2 1.7-2.4 3.5-3.7 5.2-6.5 8.8-13.1 13.5-20.2 14.5-2.8.3-5.6.3-8.5 0-1.9-.2-3.8-.2-5.7-.2-10.3.4-19.5 6.6-23.8 16l-1.3-.6c4.5-9.9 14.2-16.4 25-16.9 2 0 3.9 0 5.9.2 2.7.3 5.4.3 8.1 0 6.7-1 13-5.5 19.2-14 1.3-1.7 2.5-3.5 3.7-5.2 3.5-5.1 7.2-10.4 12.1-14.3 10.7-8.4 25.4-9.4 37.1-2.7 8.5 5 14.2 13.4 19.6 21.5.7 1.1 1.4 2.2 2.2 3.3 5.6 8.2 13.4 17.9 24.2 20.4 9 2.1 19.6-1.2 28.5-8.7 6.7-5.7 12-13 17.1-20.2.9-1.3 1.9-2.7 2.9-4 4.8-6.5 9.9-13 15.2-19.1 4.5-5.2 9.4-10.5 16.1-13 2.3-.9 4.7-1.3 7.2-1.4h1.4c.3.3.3.5.3.8zM786.2 429.3c-8.5 3.2-17.5-1.6-22.6-6.6-4.4-4.3-7.6-9.7-10.7-14.9-1-1.6-2-3.3-3-5-5.4-8.5-10.8-14.3-16.9-18.1-2.3-1.4-4.7-2.5-7.2-3.3-.5-.2-.9-.3-1.4-.4.2-.4.3-.9.4-1.4.5.1.9.3 1.4.4 2.7.8 5.2 2 7.6 3.5 6.4 3.9 11.9 9.8 17.4 18.5 1 1.7 2.1 3.4 3 5 3 5.1 6.2 10.4 10.5 14.6 4.8 4.7 13.2 9.2 21.1 6.3l.4 1.4z"/><path class="st15" d="m440.2 360.1 13.5.3c.4 0 .6.3.6.7l-.1 5.2c0 .4-.3.6-.7.6l-13.5-.3c-.4 0-.6-.3-.6-.7l.1-5.2c.1-.3.4-.6.7-.6z"/><path class="st14" d="m439.4 391.3 13.5.3c.4 0 .6.3.6.7l-.1 5.2c0 .4-.3.6-.7.6l-13.5-.3c-.4 0-.6-.3-.6-.7l.1-5.2c.1-.3.4-.6.7-.6z"/><path class="st15" d="m438.6 422.4 13.5.3c.4 0 .6.3.6.7l-.1 5.2c0 .4-.3.6-.7.6l-13.5-.3c-.4 0-.6-.3-.6-.7l.1-5.2c.1-.3.4-.6.7-.6zM437.8 453.6l13.5.3c.4 0 .6.3.6.7l-.1 5.2c0 .4-.3.6-.7.6l-13.5-.3c-.4 0-.6-.3-.6-.7l.1-5.2c.1-.3.4-.6.7-.6zM437 484.7l13.5.3c.4 0 .6.3.6.7l-.1 5.3c0 .4-.3.6-.7.6l-13.5-.3c-.4 0-.6-.3-.6-.7l.1-5.2c.1-.4.4-.7.7-.7zM464.5 498.5l13.5.3c.4 0 .6.3.6.7l-.1 5.2c0 .4-.3.6-.7.6l-13.5-.3c-.4 0-.6-.3-.6-.7l.1-5.2c0-.4.3-.6.7-.6zM510.5 499.6l13.5.3c.4 0 .6.3.6.7l-.1 5.2c0 .4-.3.6-.7.6l-13.5-.3c-.4 0-.6-.3-.6-.7l.1-5.2c0-.3.3-.6.7-.6z"/><path class="st14" d="m555.1 499.6 13.5.4c.4 0 .6.3.6.7l-.2 5.2c0 .4-.3.6-.7.6l-13.5-.4c-.4 0-.6-.3-.6-.7l.2-5.2c.1-.4.4-.6.7-.6z"/><path class="st15" d="m601.4 502 13.5.3c.4 0 .6.3.6.7l-.1 5.2c0 .4-.3.6-.7.6l-13.5-.3c-.4 0-.6-.3-.6-.7l.1-5.2c0-.4.3-.7.7-.6z"/><path d="m645 503.1 13.5.3c.4 0 .6.3.6.7l-.1 5.2c0 .4-.3.6-.7.6l-13.5-.3c-.4 0-.6-.3-.6-.7l.1-5.2c0-.4.3-.6.7-.6z" style="opacity:.5;fill:#00e4ff;enable-background:new"/><path class="st14" d="m685.8 504.1 13.5.3c.4 0 .6.3.6.7l-.1 5.2c0 .4-.3.6-.7.6l-13.5-.3c-.4 0-.6-.3-.6-.7l.1-5.2c.1-.3.4-.6.7-.6zM728.9 505.2l13.5.3c.4 0 .6.3.6.7l-.1 5.2c0 .4-.3.6-.7.6l-13.5-.3c-.4 0-.6-.3-.6-.7l.1-5.2c.1-.3.4-.6.7-.6zM775.9 506l12.8.4c.6 0 1 .5 1 1l-.1 4.5c0 .6-.5 1-1 1l-12.8-.4c-.6 0-1-.5-1-1l.1-4.5c0-.6.5-1 1-1z"/><path class="st10" d="M318.4 275.9h159.1c1.5 0 2.8 1.3 2.8 2.8v11.7c0 1.5-1.3 2.8-2.8 2.8H318.4c-1.5 0-2.8-1.3-2.8-2.8v-11.7c0-1.5 1.2-2.8 2.8-2.8z"/><linearGradient id="SVGID_2_" gradientUnits="userSpaceOnUse" x1="670.13" y1="703.17" x2="670.13" y2="317.407" gradientTransform="matrix(.9993 -.03839 .03839 .9993 -79.604 22.299)"><stop offset="0" style="stop-color:gray;stop-opacity:.25"/><stop offset=".54" style="stop-color:gray;stop-opacity:.12"/><stop offset="1" style="stop-color:gray;stop-opacity:.1"/></linearGradient><path d="M707.6 687.5c-1.2-4.3-2-8.2-2-8.2s.1-4.8-2.2-8.3v-1.2l-.4-8.8c.5-1.6 1.2-3.2 2.1-4.7 1.5-2.8-.5-13-.5-13s-6.5-14.1-5.4-23.3-13.7-40-13.7-40c0-3 .3-6 .9-9 .1-.6.1-1.3.1-1.9v-.2.1c-.4-6-5.6-17.1-5.6-17.1l-.2-21.5s2.5-12.8-3.1-29.5c-1.9-5.9-3.2-10.5-4.1-14.2l-.3-1.2c10.1-1.9 17.8-3.5 17.8-3.5s-6.8-24.5-11-28.6c-4.2-4.2-7.9-17.6-7.9-17.6s-2.7-17.4.4-22.6c3.2-5.2 3.3-14 3.3-14s7.4-5.9 8.3-8.4c.9-2.5 2.2-8.1 2.1-11.1s-1.2-5.5-.9-7.1-2.5-7.3-1.3-10.1c.3-.9.4-1.8.4-2.7v-.1c-.1-2.4-.4-4.8-.9-7.2-2.3-1.8-4.9-3.1-7.7-3.8l-.2-.7-.5-1.7c-.3-.2-.5-.3-.8-.4v-.6l-.2-2.5 1-5.7c2-9.9-11.2-10.9-11.2-10.9-.8-1.5-2.2-2.6-3.8-3.1-2.7-.8.1 14.8 1.4 15.7.9.7 4 5.5 5.5 7.9l.2.4c-.2.2-.4.4-.6.7l.6 3.4.1.5c-.8 1.1-1.5 2.3-1.9 3.6 0 0 2.5 2.5 2.1 5.5s1 6.6 1.1 6.8c-.1-.2-1.9-1.9-3.6-1.4s-6.3 2.1-6.3 2.1-3.5.7-3.1 1.5c.3.8-2.2 4.3-2.2 4.3l-9.8-8.6c-.1-.3-.2-.5-.3-.8-.4-1.3-.8-2.6-1-3.9 1-.3 2-.6 3-1.1 1-.4 1.8-1 2.5-1.8.9-1.2 1-2.7 1.4-4.1.6-2.8 2.2-5.3 3.2-7.9 1.8-4.5 2.2-9.3 1.3-14-.2-1.5-.8-2.8-1.6-4-1.6-2.1-4.4-2.8-6.5-4.4s-3.5-4.1-5.9-5.3c-2.2-1.1-4.8-.8-7.2-.3-4.7.9-9.2 2.8-13.2 5.4-1.3.9-2.8 1.9-4.4 1.6-1.4-.2-2.4-1.2-3.3-2.2v-.1l-.1-.1c-.9 2.3-1.3 4.7-1.2 7.1 0 .4 0 .8.1 1.1v.7c0 .2 0 .3-.1.5-.2.5-.5.9-.8 1.3-.3.3-.5.7-.7 1.1 0-.1.1-.3.1-.4-.6.9-.9 1.9-.9 3 0 .8.3 1.5.8 2.1.5.4 1 .8 1.6 1.2-.1 1-.2 2.1-.2 3.2.3 6.4 3.9 12.2 9.5 15.2l.3.8c1.3 3.1 2.4 6.8 2.1 10.2 0 .3-.1.5-.1.7-.1.1-.2.3-.3.4 0 0-15.6.7-19.3-2.4-3.8-3.2-8.9 8.5-8.9 8.5s-5.5 1.3-6.7.3-7.7.1-7.7.1c-2.8-2.3-6.3-3.4-9.9-3.2-2.2-1.6-4.7-2.8-7.3-3.7l-.2-.1c-1.1-.4-2.3-.5-3.5-.3 0 0-7.9-6-10.3-9.3-2.4-3.3-13.5-15.5-13.5-15.5l-.1-.6-.2-1.8c-.3.1-.6.1-.9.1-.1-.2-.1-.4-.2-.6-.7-1.8-1.5-3.5-2.5-5.1 0 0-.1-2.3.6-2.9.7-.6-.6-9.1-.6-9.1s-7.5-15.9-13.2-3.6c0 0-11.4 8.2-1.2 16.9 0 0 4 1.7 4.6 3.2.4 1 1.8 3.6 2.8 5.4l.4.8-.1.1.2 1.5.1.6c-1.8 1.1-3 2.2-2.7 3 .6 1.3 1 2.7 1.3 4.1 0 0 14.2 16.5 16.2 23.6 0 0 37.2 20.2 49.2 21.3l-1.7 10.9s-.4 6.5-.1 8.8c.2 2.3-.9 12.9-.9 12.9s-1.4 15.5-3.1 17.7-1 11.5-1 11.5c-.2 4.4-.9 8.9-1.9 13.2-1.5 5.9 0 13.1 0 13.1s-5.5 14.1 8.6 4.2c0 0 7.1-.7 15.3-1.3v.8c0 1.1 0 2.2.1 3.4.2 8 .6 18.9 1.2 27.2 1.2 14.6 6.8 43.5 6.8 43.5l.6 14.6c-.2 1.4-.3 2.8-.3 4.2.1 5.1 1.6 10.1 4.5 14.4l1.5 9.7s2.9 6.3 3.1 10.1c0 .3 0 .6-.1.9-.1.5-.1 1-.1 1.5 0 4.4 3.1 14.9 3.1 14.9s.6 10.6 2.2 11.2c1.4.5-1.6 6.2-2.5 7.9 0-.1-.1-.2-.1-.3l-.2.3c-.3.9-.4 1.8-.4 2.7-.1 1.5.6 2.9 1.9 3.7 3.1 1.7 4.8 3.2 2.2 3.9-.9.2-1.9.4-2.8.7l-.1-.3c-.7.3-1.1 1.1-.9 1.8 0 .8.3 1.9 1.1 3.6 2.8 5.6 4.6 7.7 4.6 7.7l1.2-.2c-.2.5-.4.9-.7 1.3-.4.7-1 1.3-1.7 1.7s-1.4.7-2.2.8c-1.7.1-3.4 1-4.4 2.4-1.5 2.1-2.4 5 .8 7.3l11.5 3.5s19.7 1.8 18.5-2.6c-1.2-4.4-2-8.2-2-8.2 0-2.7-.7-5.3-1.9-7.7-.2-.4-.5-.8-.7-1.1l.7-.1s1.1-9.8 2.9-11.7c.4-.4.5-.8.4-1 .2-.5-.3-.8-1-1 0 .1-.1.3-.1.4-.6-.1-1.2-.2-1.9-.1 0 0-.8-5.1 1.2-7 .3-.4.4-1 .3-1.5 0-.7-.1-1.4-.3-2.1 0 0 0 .1-.1.1-1.2-4.6-5-11.8-5-11.8s-.3-4.6.9-6.5-1.1-25.1-1.1-25.1 0-11.3-1.6-16.5 1.3-11.5 1.3-11.5 0-.1-.1-.3v-.1s-.1-.7-.3-1.8v.1c-.4-3-1.3-8.3-1.8-10.8-.8-3.5-.6-20.5-.6-20.5l2.6-7.4 5.6 12.3 6.1 16.5s2.8 3.4 3 7v1.6c0 2.1.6 4.2 1.9 5.9 0 0 1.7 7.8 4 9.7s2.5 5.8 2.5 5.8 3.1 11.3 4.5 13.3c1.1 1.7 1.4 6.3 1.4 7.7v.4s.5 4.1.7 7.5v1.2-.1c0 .9 0 1.9-.2 2.8v.2-.6c-.5 2.4-.7 4.7-.5 7.1.1 4.1.9 8.9 3.5 11.7 4.5 4.8 7.2 4.1 7.2 4.1s-1.8 6.3-4.3 7.6c-.1 0-.2.1-.3.2 0-.1-.1-.2-.1-.4-.5.6-.8 1.5-.7 2.3-.1 2.7 1.8 7.1 3.5 9 .6.6 1.4 1 2.2 1.2-.1.1-.3.2-.4.3-.3.2-.6.3-.9.4-.4.2-.8.3-1.3.4-1.7.1-3.4 1-4.4 2.4-1.5 2.1-2.4 4.9.8 7.3l11.6 3.5c.2-.3 19.9 1.5 18.7-2.9z" style="fill:url(#SVGID_2_)"/><path class="st18" d="m633 697.7-11.2-3.5c-3.1-2.3-2.3-5.2-.8-7.3 1-1.4 2.6-2.2 4.3-2.4.7-.1 1.5-.4 2.1-.8.7-.4 1.3-1 1.7-1.7.8-1.3 1.1-2.8 1.1-4.3 0 0 12-4 15.4-.6.6.6 1.1 1.3 1.6 2.1 1.2 2.4 1.8 5 1.8 7.7 0 0 .8 3.8 1.9 8.2 1.2 4.4-17.9 2.6-17.9 2.6zM686.8 690.2l-11.2-3.5c-3.1-2.3-2.3-5.2-.8-7.3 1-1.4 2.6-2.2 4.3-2.4.4-.1.9-.2 1.2-.4.3-.1.6-.3.8-.4 3-1.8 2.8-6 2.8-6s12-4 15.4-.6c.5.5.9 1 1.2 1.5 2.2 3.5 2.2 8.3 2.2 8.3s.8 3.8 1.9 8.2c1.3 4.4-17.8 2.6-17.8 2.6z"/><path class="st19" d="M645.6 677.1c.6.6 1.1 1.3 1.6 2.1l-18.1 2.8c.8-1.3 1.1-2.8 1.1-4.3 0 0 12-4 15.4-.6zM700.6 671.1l.1 3.4c-2.6 4.8-16.3 4.3-20.4 2.1.3-.1.6-.3.8-.4 3-1.8 2.8-6 2.8-6s12-4 15.4-.6c.6.5 1 1 1.3 1.5z"/><path class="st20" d="M702.2 656.4c-.8 1.5-1.5 3.1-2 4.7l.5 12.2c-2.9 5.2-19 4.1-21.3 1.4s-4.9-9.9-2.4-11.2c2.4-1.3 4.2-7.6 4.2-7.6s-2.6.7-7-4.1-3.5-15.8-2.9-18.4c.6-2.7-.4-11.4-.4-11.4s-.1-6.2-1.4-8.1-4.3-13.3-4.3-13.3-.1-3.9-2.4-5.8-3.9-9.7-3.9-9.7c-1.3-1.9-2-4.2-1.8-6.6.3-3.9-2.9-7.9-2.9-7.9l-5.9-16.5-5.4-12.3-2.5 7.4s-.1 17 .6 20.5 2 12.9 2 12.9-2.9 6.3-1.3 11.5 1.6 16.5 1.6 16.5 2.3 23.2 1.1 25.1c-1.2 1.9-.8 6.5-.8 6.5s6.8 13.3 4.9 15.3c-1.9 1.9-1.1 7-1.1 7s4.3-.2 2.5 1.8c-1.8 1.9-2.8 11.7-2.8 11.7l-18.6 2.9s-1.8-2.1-4.5-7.7.3-5.1 2.7-5.8c2.5-.7.8-2.2-2.2-3.9-3-1.8-1.4-6-1.4-6s4.2-7.7 2.6-8.3c-1.6-.6-2.1-11.2-2.1-11.2s-3.6-12.5-2.9-15.9c.7-3.4-2.9-11.5-2.9-11.5l-1.4-9.7c-6-9.4-4.2-18.3-4.2-18.3l-.6-15s-5.4-28.8-6.6-43.5c-.7-9.4-1.1-22.2-1.3-30.2-.1-4.5-.1-7.5-.1-7.5L670 477s.1 3.1 1.6 9.9c.8 3.6 2.1 8.3 4 14.2 5.4 16.8 3 29.5 3 29.5l.2 21.5s6.4 14.1 5.4 19.1c-.6 3-.9 6-.9 9 0 0 14.3 30.8 13.3 40s5.2 23.3 5.2 23.3 1.8 10.1.4 12.9z"/><path class="st21" d="m661 577.5 20.2-3.5s-11 12.2-20.2 3.5z"/><path class="st19" d="M677.5 554.3s1 7.1-3.3 10c0 0 7.8-1.5 3.3-10zM675.4 531.5s-16.4 14.6-22.6 13.7 22.6-13.7 22.6-13.7zM636.1 585s-12.8 3.4-13 8.6c-.1 5.2 13-8.6 13-8.6z"/><path class="st21" d="M641.4 649.2s-18.1 4.1-12.8 6.2c5.3 2.1 13.8 3.6 13.8 3.6s5.9.2-1-9.8z"/><g style="opacity:5.000000e-02"><path d="M625.1 659.3c-.9-.5-1.6-1.5-1.8-2.6l-.2.3s-1.5 4.2 1.4 6c.3.2.7.4 1 .6.5-.1 1.1-.2 1.7-.4 2.5-.7.9-2.2-2.1-3.9zM648.4 657.1c.5-.5.4-1.7.1-3.2-.8 1.2-.9 3.1-.9 4.5.2-.4.5-.9.8-1.3zM642.7 580.5c-.6 1.8-.9 3.8-1 5.7.3-1.4.7-2.7 1.3-4 0 0-.1-.6-.3-1.7zM684.1 570.8c.1-.6.1-1.1.1-1.7-.2 1.2-.3 2.2-.4 3.2l.3-1.5zM644.4 635.3c.2-.4.3-1.7.3-3.4-.5 1.4-.8 2.9-.7 4.3.1-.3.2-.6.4-.9zM649.3 664.3c-1.1 3.5-1.8 9.6-1.8 9.6l-18.6 2.9s-1.8-2.1-4.5-7.7c-.2-.5-.4-.9-.6-1.3-1.1.6-1.5 1.7.1 5.1 2.7 5.6 4.5 7.7 4.5 7.7l18.6-2.9s1-9.8 2.8-11.7c1-1.1.4-1.5-.5-1.7zM623.6 637.5s.6 10.6 2.1 11.2c.7-1.8 1.2-3.5.5-3.7-1.6-.6-2.1-11.2-2.1-11.2s-3.6-12.5-2.9-15.9-2.9-11.5-2.9-11.5l-1.4-9.7c-5.9-9.4-4.1-18.2-4.1-18.2l-.6-15s-5.4-28.8-6.6-43.5c-.7-9.4-1.1-22.2-1.3-30.2 0-1.4-.1-2.7-.1-3.8l-.5.1s0 3 .1 7.5c.2 8 .6 20.8 1.3 30.2 1.2 14.6 6.6 43.5 6.6 43.5l.5 15s-1.8 8.9 4.1 18.2l1.4 9.7s3.6 8 2.9 11.5c-.6 3.3 3 15.8 3 15.8zM679.9 670.6c-1.6-2.1-2.7-4.6-3.2-7.2-1.8 1.8.6 8.4 2.8 10.9 2.3 2.7 18.4 3.8 21.3-1.4l-.1-2.9c-4.1 4.2-18.7 3.1-20.8.6zM702.7 652.3c-.8 1.5-1.5 3.1-2 4.7l.1 2.2c.3-.8.8-1.9 1.4-3.2.4-1.2.6-2.5.5-3.7 0-.1 0-.1 0 0zM680.3 655.6c.5-1.2 1-2.5 1.4-3.7 0 0-2.6.7-7-4.1-3.2-3.5-3.6-10.3-3.3-14.7-.7 2.7-1.5 13.7 2.9 18.4 2.8 3.1 4.9 3.9 6 4.1zM670.9 621.7c.4 3 .6 6.1.7 9.1.1-.5.1-1 .3-1.4.7-2.7-.4-11.4-.4-11.4s-.1-6.2-1.4-8.1-4.3-13.3-4.3-13.3-.1-3.9-2.4-5.8-3.9-9.7-3.9-9.7c-1.3-1.9-2-4.2-1.8-6.6.3-3.9-2.9-7.9-2.9-7.9l-5.9-16.5-5.4-12.3-2.5 7.4v2.3l2-6 5.4 12.3 5.9 16.5s3.2 4.1 2.9 7.9c-.2 2.3.5 4.7 1.8 6.6 0 0 1.7 7.8 3.9 9.7s2.4 5.8 2.4 5.8 3.1 11.3 4.3 13.3c1.2 1.9 1.3 8.1 1.3 8.1z"/></g><path class="st23" d="m672.9 337.3-.9 5.7.2 2.5.1 1.8-6.4.9-.8-1.3c-1.4-2.4-4.4-7.2-5.3-7.9-1.2-.9-4-16.5-1.4-15.7 1.6.5 2.9 1.7 3.7 3.1 0 .1 12.7 1 10.8 10.9z"/><path class="st19" d="m672.3 347.3-6.4.9-.8-1.3c1.7-2.1 4.7-2.7 7.1-1.4l.1 1.8z"/><path class="st24" d="m674 350.3-8.4 2.3-.2-1.3-.6-3.4s3.2-4.6 8.2-1.4l.5 1.7.5 2.1z"/><path class="st23" d="m536 343.2-8.9 5.2s-.4-.7-.9-1.7c-.9-1.8-2.3-4.4-2.7-5.4-.6-1.4-4.4-3.2-4.4-3.2-9.8-8.7 1.2-16.9 1.2-16.9 5.5-12.3 12.8 3.6 12.8 3.6s1.2 8.5.6 9.1-.5 2.9-.5 2.9c.9 1.6 1.7 3.3 2.4 5.1.3.8.4 1.3.4 1.3z"/><path class="st19" d="m536 343.2-8.9 5.2s-.4-.7-.9-1.7c1.2-1.1 5.6-5 7.1-4.9.7.1 1.5.1 2.2 0 .4.9.5 1.4.5 1.4z"/><path class="st24" d="m537.1 345.9-10 5.4-.3-2.2-.2-1.5s5.7-5.3 7.5-5.2c.9.1 1.8.1 2.7-.1l.2 1.8.1 1.8z"/><path class="st23" d="M649.7 375.7s-44.2 6.7-36 3.7c5.7-2.1 7.9-5.9 8.2-10 .3-3.4-.7-7.1-2-10.2-1.2-2.8-2.6-5.4-4.3-7.9 0 0 33.2-20 27.1-2.8-1 2.6-1.5 5.3-1.6 8.1-.1 2.8.3 5.5 1.2 8.1 1.4 4.4 3.9 8.1 7.4 11z"/><path class="st19" d="M642.6 348.6c-1 2.6-1.5 5.3-1.6 8.1-3.1 2.8-6.6 2.8-11.1 2.9-3.5.1-7.2 1.1-10.1-.4-1.2-2.8-2.6-5.4-4.3-7.9.1 0 33.3-19.9 27.1-2.7z"/><circle class="st23" cx="628.6" cy="342.5" r="18.4"/><path class="st19" d="M649.7 375.7s-44.2 6.7-36 3.7c5.7-2.1 7.9-5.9 8.2-10 2.1-2.5 6.5-4.3 9.3-5.4 2.6-1 5.4-1.1 8-.4 1 .3 2.1.7 3 1.2 1.4 4.3 4 8 7.5 10.9zM674 350.3l-8.4 2.3-.2-1.3c1.8-2.6 5-3.9 8.1-3.1l.5 2.1zM537.1 345.9l-10 5.4-.3-2.2c3.6-2.3 9.6-4.7 10.1-4.9l.2 1.7zM671.6 486.9c-17.1 3.4-41.4 7.9-45.4 6.8-3.3-.9-13.5-.4-22.5.3-.1-4.5-.1-7.5-.1-7.5L670 477s0 3.1 1.6 9.9z"/><path class="st25" d="M688.6 482.2s-56.2 11.9-62.4 10.3-37.3 1.6-37.3 1.6c-13.7 9.9-8.3-4.2-8.3-4.2s-1.5-7.2 0-13.1c1-4.3 1.6-8.8 1.8-13.2 0 0-.7-9.2.9-11.5s3-17.7 3-17.7 1.1-10.6.9-12.9c-.2-2.3.1-8.8.1-8.8l1.6-10.9c-11.6-1.1-47.6-21.3-47.6-21.3-2-7.2-15.7-23.6-15.7-23.6-.2-1.4-.7-2.8-1.2-4.1-1-2.4 12.7-7.9 12.7-7.9s10.8 12.3 13.1 15.6c2.3 3.3 9.9 9.3 9.9 9.3 1.1-.2 2.3 0 3.4.3.1 0 .1 0 .2.1 2.5.9 4.9 2.1 7.1 3.7 5.5-.5 9.5 3.2 9.5 3.2s6.3-1.2 7.4-.1c1.1 1 6.5-.2 6.5-.2s5-11.6 8.6-8.4c3.7 3.2 18.7 2.4 18.7 2.4 1.9-2.7 6.7-4.8 9.7-5.9 2.6-1 5.4-1.1 8-.4 1.2.3 2.3.8 3.2 1.4l9.5 8.6s2.5-3.5 2.2-4.3 3-1.5 3-1.5 4.4-1.6 6.1-2.1c1.7-.5 3.3 1.2 3.4 1.4-.1-.2-1.4-3.9-1-6.8.3-2.9-2.1-5.5-2.1-5.5 4.9-13.5 17.5-2.8 17.5-2.8s1.7 7.2.5 10 1.6 8.6 1.3 10.1c-.2 1.6.8 4.1.9 7.1s-1.2 8.5-2.1 11-8 8.3-8 8.3-.1 8.8-3.2 14c-3 5.2-.4 22.6-.4 22.6s3.6 13.5 7.6 17.6c4.3 4.1 11 28.6 11 28.6z"/><path class="st19" d="M602.1 383.8s-1.9-5-3.5-5.4c-1.6-.5-3.1-1.1-4.6-1.8l.9-1.9s5.9 1.4 6.8 3c1.2 1.6.4 6.1.4 6.1zM570.7 373.8c-.3 1.6-13.9 3.5-13.9 3.5l6.7-7.2.2.1c2.4.7 4.8 2 7 3.6z"/><circle class="st20" cx="530.1" cy="354.1" r="1.2"/><circle class="st20" cx="531.8" cy="356.5" r="1.2"/><circle class="st20" cx="533.4" cy="358.8" r="1.2"/><circle class="st20" cx="535.1" cy="361.2" r="1.2"/><circle class="st20" cx="680.6" cy="355.4" r="1"/><circle class="st20" cx="680.8" cy="357.7" r="1"/><circle class="st20" cx="681" cy="360" r="1"/><path class="st19" d="M603.8 425.7c-.2-.2 36.3 42.4 62.3 16 0-.1-42.4 7.4-62.3-16zM584.7 449.3s20.8-.2 23.2 5.7l.2 6.2c-1.2.7-2.6.8-3.9.2-2.2-1.1-15-7-19.3-3.7l-.2-8.4z"/><path class="st25" d="M585.1 449.2s19.9-.2 22.2 5.4l.2 5.9c-1.1.7-2.5.7-3.7.1-2.1-1-14.3-6.6-18.4-3.5l-.3-7.9z"/><path class="st19" d="M594.3 403.7c2.3 4.8 5.2 9.4 8.6 13.5 3.7 4.6 8.1 8.6 13.1 11.7 0 0-21.2-22.4-21.7-25.2zM586.6 379.7s4.1 14.9 13.2 19.6l-13.2-19.6zM581.3 381.4c-.1-.3-2.6 12 12.2 18.1.1 0-6.2-1.8-12.2-18.1zM671.8 367.9c-.2 0 7.4 4.5 9.5 6.6 0 0-5.1-7.1-9.5-6.6z"/><path class="st18" d="M624.3 359.3c.3.9.7 2 1.5 2.4.5.2 1.1.4 1.7.3 5.6.1 11.4.2 16.5-2.2 1-.4 1.8-1 2.5-1.8.9-1.2 1-2.7 1.3-4.1.6-2.8 2.1-5.3 3.1-7.9 1.7-4.5 2.1-9.4 1.3-14.1-.2-1.5-.7-2.8-1.6-4-1.6-2.1-4.3-2.8-6.3-4.4s-3.4-4.1-5.7-5.3c-2.1-1.1-4.6-.8-6.9-.3-4.6 1-8.9 2.8-12.7 5.4-1.3.9-2.7 1.9-4.3 1.6-1.4-.2-2.4-1.3-3.3-2.3-1 2.6-1.4 5.3-1.1 8 .1.4.1.8 0 1.2-.2.5-.4.9-.8 1.3-1.3 1.7-2.1 4.2-.7 5.8.6.7 1.6 1 2.2 1.7 1.1 1.3.8 3.1.8 4.8 0 .6.1 1.1.5 1.6.6.5 1.5.7 2.3.5.8-.3 1.6-.4 2.4-.3.9.2 1.6.8 2.2 1.5 2.7 3.1 3.9 6.7 5.1 10.6z"/><g style="opacity:.1"><path d="M647.1 356.7c-.7.8-1.5 1.4-2.5 1.8-5.1 2.4-10.9 2.3-16.5 2.2-.6 0-1.2-.1-1.7-.3-.9-.5-1.2-1.5-1.5-2.4-1.2-3.9-2.4-7.5-5.1-10.7-.5-.7-1.3-1.3-2.2-1.5-.8-.1-1.6.1-2.4.3-.8.3-1.7.1-2.3-.4-.3-.5-.5-1-.5-1.6 0-1.7.2-3.5-.8-4.8-.6-.7-1.5-1-2.2-1.7-.8-1-1-2.4-.5-3.7-.9 1.6-1.3 3.6-.1 4.9.6.7 1.6 1 2.2 1.7 1.1 1.2.8 3.1.8 4.8 0 .6.1 1.1.5 1.6.6.5 1.5.7 2.3.5.8-.3 1.6-.4 2.4-.3.9.2 1.6.8 2.2 1.5 2.7 3.2 3.9 6.8 5.1 10.7.3.9.7 2 1.5 2.4.5.2 1.1.4 1.7.3 5.6.1 11.4.2 16.5-2.2 1-.4 1.8-1 2.5-1.8.3-.5.6-1 .7-1.5.1 0 0 .1-.1.2zM610.4 331.3c.2-.3.4-.6.5-.9.1-.4.1-.8 0-1.2-.2-2.2 0-4.5.6-6.7l-.1-.1c-1 2.6-1.4 5.3-1.1 8 .1.3.1.6.1.9z"/></g><path class="st19" d="M621.5 370.6s23 2.2 25-1.4M665.7 359.4s12.7-.5 15.7 4.2"/><path class="st0" d="M944.4 601.5s4.3 5.6-2 14.1-11.5 15.6-9.4 20.9c0 0 9.5-15.8 17.2-16s2.6-9.6-5.8-19z"/><path class="st19" d="M944.4 601.5c.4.5.7 1.1.9 1.8 7.5 8.8 11.5 17.1 4.3 17.3-6.7.2-14.8 12.2-16.8 15.3.1.2.1.5.2.7 0 0 9.5-15.8 17.2-16s2.6-9.7-5.8-19.1z"/><path class="st27" d="M952.4 608.6c0 2-.2 3.6-.5 3.6s-.5-1.6-.5-3.6.3-1 .6-1c.2 0 .4-1 .4 1z"/><path class="st27" d="M955.1 611c-1.7.9-3.3 1.5-3.4 1.3-.1-.2 1.2-1.2 2.9-2.2s1.1-.3 1.2 0c.1.2 1-.1-.7.9z"/><path class="st0" d="M921.7 601.5s-4.3 5.6 2 14.1 11.5 15.6 9.4 20.9c0 0-9.5-15.8-17.2-16-7.8-.2-2.7-9.6 5.8-19z"/><path class="st19" d="M921.7 601.5c-.4.5-.7 1.1-.9 1.8-7.5 8.8-11.5 17.1-4.3 17.3 6.7.2 14.8 12.2 16.8 15.3-.1.2-.1.5-.2.7 0 0-9.5-15.8-17.2-16-7.8-.3-2.7-9.7 5.8-19.1z"/><path class="st27" d="M913.7 608.6c0 2 .2 3.6.5 3.6s.5-1.6.5-3.6-.3-1-.6-1-.4-1-.4 1z"/><path class="st27" d="M910.9 611c1.7.9 3.3 1.5 3.4 1.3.1-.2-1.2-1.2-2.9-2.2s-1.1-.3-1.2 0c-.1.2-1-.1.7.9z"/><ellipse class="st4" cx="933" cy="672.6" rx="44.9" ry="6.9"/><path d="m956.1 628.9-.2 1.8-.3 2.5-.1 1-.3 2.5-.1 1-.3 2.5-3.4 28.2c-.3 2.5-4.4 4.5-9.4 4.5h-17.9c-5 0-9.1-2-9.4-4.5l-3.4-28.2-.3-2.5-.1-1-.3-2.5-.1-1-.3-2.5-.2-1.8c-.2-1.4 2.1-2.6 4.9-2.6h36.6c2.6 0 4.8 1.2 4.6 2.6z" style="fill:#65617d"/><path class="st29" d="m955.9 630.7-.3 2.5h-45.2l-.3-2.5zM955.5 634.2l-.3 2.5h-44.4l-.3-2.5zM955.1 637.7l-.3 2.5h-43.5l-.3-2.5z"/></svg>