<svg version="1.1" id="e37c00f5-ff96-45aa-87ea-1a24b78ba7bd" xmlns="http://www.w3.org/2000/svg" x="0" y="0" viewBox="0 0 1176.6 803.7" style="enable-background:new 0 0 1176.6 803.7" xml:space="preserve"><style>.st0{fill:#d1ffff}.st1{fill:#ff915b}.st3{fill:#ff821d}.st4{fill:#67d8eb}.st6{fill:#ff564d}.st8{fill:#fdce1a}.st9{fill:#fec771}.st10{fill:#f26200}.st11{fill:#68182b}</style><path class="st0" d="M623.4 621.6c-7.4 0-14.9 0-22.2-.1h-29.5c-56.5 0-115 0-168.6-16-.4-.1-.7-.5-.8-.9l-2.3-17.3c-.1-.4.1-.9.5-1.2.2-.1.4-.2.7-.2.2 0 .4 0 .5.1 11.2 7 29.8 9.1 40.8 10.4 1.4.2 2.7.3 3.9.5 45 5.6 91.4 6.1 131.4 6.1h26.1c41.3 0 84.1-.1 125.2-6 1.6-.2 3.5-.5 5.7-.7 12-1.5 32-4 43.7-11.5.2-.1.4-.2.6-.2.2 0 .4.1.6.2.4.2.6.7.5 1.1l-2.5 18.8c-.1.4-.4.8-.8.9-49.9 14.8-105.4 16-153.5 16z"/><path class="st1" d="M618.6 457.3c-.6-.1-1-.5-1-1.1-.6-38.7-8.4-75-16.8-108.4-17.1-68.3-13.4-133.6 10.9-194 .2-.4.6-.7 1-.7h.3c.6.2.9.7.8 1.3-7.4 38.4-1 78.4 5.1 117.2 1.2 7.7 2.4 15.4 3.5 23 5.3 36.6 6.9 67.6 4.9 97.3-1.4 20.8-3.3 43-7.6 64.4-.1.5-.6.9-1.1.9.1.1 0 .1 0 .1z"/><path class="st1" d="M617.7 488.4c3.3-7.5 6.6-15 10-22.5 6.2-13.8 12.6-28 18.3-42.3 1.3-4.2 2.6-8.1 4-11.8.2-.5.4-.8.9-1.2.1-.1.2-.3.3-.5 5.3-14.4 9.3-27.5 12.2-40.1 10.1-44.3 5.7-92.1-12.6-138.4-3.1-7.7-6.5-15.5-9.8-23-9.1-20.4-18.4-41.4-20.9-63.6-.1-.5-.5-1-1-1h-.1c-.5 0-1 .3-1.1.8-11.2 43.1-3.6 88.6 3.7 132.7 1.5 9.1 3 18.2 4.3 27.1 4.2 28.5 5.2 59.1 3.1 90.9-1.6 24.6-4.3 53.3-11.9 79.4-.3 4.1-.9 8.3-1.5 12.7-.1.6.3 1.1.8 1.3h.3c.4.2.8-.1 1-.5z"/><path d="M559.7 780.8c17.3 0 34.7-.5 51.5-.9 6.5-.2 13-.3 19.4-.5l2.3-.1c26.8-.6 54.5-1.2 81.4-6.1l2.5-.4c12-2.1 36.8-6.5 40.7-18.3 4.5-13.8 5.8-29.8 7.1-45.2.6-7.3 1.2-14.2 2.1-20.9l9.6-72.3.4-2.9c0-.4-.1-.8-.4-1-.2-.2-.5-.3-.7-.3h-.3c-52.5 15-109.5 15.1-164.6 15.2h-16.2l-12.2.1c-8.8.1-17.7.1-26.7.1-46.7 0-100.7-1.2-150.5-15.5h-.3c-.3 0-.5.1-.7.3-.3.2-.4.6-.4 1l.6 4.9c4.9 37.4 9.8 74.7 14.9 112.1.3 2.1.6 4.2.8 6.4.8 5.9 1.5 11.9 2.6 17.8 2.2 12.3 30.9 17 44.7 19.2 1.5.3 2.8.5 3.9.6 24.6 4.6 52.8 6.7 88.5 6.7z" style="fill:#acff1d"/><path class="st3" d="M588.2 578.4c-.4 0-.8-.3-1-.7-1.9-4.3-4.3-9.9-6.3-15.8-4.3-12.2-7.4-23.4-9.6-34.1-5-24-7-47.8-6.1-70.5 1.8-45.8 12-90.6 21.8-133.9.1-.5.6-.9 1.1-.9.5 0 1 .4 1.1.9 2.2 9.5 4.6 19.1 6.9 28.4 7.8 31 15.9 63 15.9 95.6.1 35.7-7.5 67.2-15.7 96-.1.5-.1 1 0 1.6.1.2.1.4 0 .7-3.2 11-5.5 21.4-7 31.9-.1.5-.5.9-1 1 0-.3-.1-.2-.1-.2zM594.5 597.2c11.1 0 22.2-.1 33.3-.3.4 0 .7-.2.9-.5.2-.3.3-.7.1-1-10.5-30.2-14-61.7-10-91.1.1-.6-.3-1.1-.8-1.2h-.3c-.4 0-.9.3-1 .7-9.9 24.2-21.5 56.5-23.7 92.2 0 .3.1.6.3.8.2.2.5.4.8.4h.4zM652.2 567.6c.5 0 .9-.3 1.1-.8 3.7-13 10-25.4 16.1-37.4 10.1-19.9 17.9-41.7 23.8-66.7 6.1-26.1 9.1-49.6 9.1-71.9 0-24.4-3.7-48.8-7.8-71.5-1.2-6.5-2.3-13-3.5-19.6-12.6-69.1-26.9-147.4 1.5-214.9.2-.5 0-1.2-.5-1.4-.2-.1-.4-.1-.5-.1-.4 0-.7.2-.9.5-16.9 25.2-28.3 59.8-34.7 106 .1 11.8-.7 23.2-2.3 33.9 0 .2 0 .4.1.6 1.7 3.8 3.3 7.7 4.9 11.6C672.9 272 678 314 672.6 351c-2.8 19.2-8.2 38.9-16.8 61.9 0 .1-.1.3 0 .3-10.6 28.4-14.9 57.1-13.7 90.3.6 15.9 3.5 31.7 6.3 47 1 5.4 2 10.9 2.9 16.3-.1.4.3.8.9.8z"/><path class="st3" d="M636.4 596.8c3.7-.1 7.5-.1 11.2-.2.3 0 .6-.1.8-.4.2-.2.3-.5.3-.8-.7-16.1-3.6-32.2-6.3-47.8-2.8-15.9-5.7-32.4-6.3-48.9-.5-12.8.1-25.2 1.8-37.9.1-.6-.3-1.1-.8-1.2h-.3c-.4 0-.8.3-1 .7l-1.8 3.9c-3.3 7.4-6.7 14.9-10 22.5-8.4 34.6-6 72.5 7 109.4.2.5.6.8 1.1.8-.1 0 4.3-.1 4.3-.1zM515.9 596.2c.4 0 .7-.2.9-.5.2-.3.3-.7.1-1.1-4.4-10.1-9.2-20-13.8-29.6-6.7-13.9-13.1-27-18.5-41.1-7.2-12.6-15.2-25.1-22.9-37.2-14.3-22.3-29.1-45.4-39.5-70.3-19.2-45.6-30.2-94.2-32.7-144.3 0-.6-.5-1-1.1-1.1h-.1c-.5 0-1 .4-1.1.9-9.5 52.1-1.4 109.2 25 174.7 7.4 18.3 15.8 36.3 23.9 53.6 13.8 29.6 28.2 60.2 37.5 92.8.1.5.5.8 1 .8.8 0 1.5.1 2 .1 12.1 1.1 24.9 1.8 39.3 2.3z"/><path class="st3" d="M478.1 508.1c.5-.2.8-.8.6-1.4-2.8-9.3-4.8-18.1-6-26.8-2.5-17.2-4.3-34.8-6-51.8-1.6-15.7-3.3-31.9-5.4-47.8 0-.3-.2-.5-.4-.7-.3-.2-.5-.5-.6-.7-7.2-11.2-15-22.1-22.6-32.6-18.3-25.2-35.6-49.1-44.3-78.3-.1-.5-.6-.8-1.1-.8h-.2c-.6.1-1 .6-.9 1.2 2.2 53.8 14.2 105.5 35.6 153.8 10.2 23.1 24.1 44.7 37.5 65.6 4.2 6.6 8.5 13.2 12.6 19.8.2.3.6.5 1 .5-.2.1 0 .1.2 0z"/><path class="st1" d="M547.5 596.9c.3 0 .6-.1.8-.3.2-.2.3-.5.3-.8-.4-7-1-14.4-1.8-23.6-4.2-9.8-8.9-19.6-13.3-29.1-9.2-19.5-18.8-39.7-25.2-60.9-6.2-20.4-9.4-40.3-9.8-60.7-.1-4-.1-8-.1-11.9-.1-19.3-.3-39.2-7.2-57.9-5.5-15-14.1-28.8-22.4-42.2-3.4-5.4-6.9-11.1-10.1-16.6-11.1-19.4-18.7-40.7-25.1-60.8C421 193 415.9 156.3 418.4 123c0-.6-.4-1.1-.9-1.2h-.2c-.5 0-1 .3-1.1.8-14.2 51.6 4.3 101.6 22.1 149.9 7.7 20.9 15.7 42.6 21.1 64.3 7.6 30.8 10.7 63.1 13.7 94.3 1 11 2.1 22.4 3.4 33.5 3.3 29.2 8.8 50.7 18.4 72 4.1 9.1 8.7 18.1 13.1 26.8 5.4 10.5 10.9 21.3 15.5 32.3 0 .1.1.3.1.4.1.5.6.8 1 .8 7.6-.2 15.2-.1 22.9 0z"/><path class="st1" d="M544.8 561.4c.5-.1.9-.7.8-1.2-2.6-24.4-6.2-49.1-9.7-73-6.9-47-14-95.5-13.4-143.9 0-.1-.2-.5-.2-.6-11.2-47.5-35.4-81.2-63.4-120.2l-2.1-3C437.3 192.2 426 160 422.4 121c-.1-.6-.5-1-1.1-1-.6 0-1.1.5-1.1 1-3 35.8 3 75.2 18.4 120.5 7.7 22.7 17 42.9 28.5 61.8l3.7 6c9.3 15.1 18.8 30.8 24.3 48 5.2 16.2 5.2 33.9 5.1 51.1v9.6c.2 21.6 3.7 43.5 10.7 66.8 6.2 20.5 15.5 40 24.6 58.9 2.7 5.7 5.5 11.4 8.1 17.2.2.4.6.7 1 .7 0-.1.1-.1.2-.2z"/><path class="st3" d="M586.2 597.2c.6 0 1.1-.5 1.1-1.1.2-4 .6-7.9 1-12-.4-1.9-1.6-4.2-2.7-6.2-.6-1-1.1-2-1.4-2.8-2.2-5.3-4.3-10.8-6.2-16.3-3.5-9.9-6.4-21-9.1-34-4.3-20.9-6.2-43.6-5.5-67.6 1.3-44.3 11.4-88.6 21.2-131.4l2.6-11.3v-.5c-10.3-49.4-3.4-107.4 19.5-163.2.1-.2.1-.3.1-.5-1.9-20.8-5.8-42.6-12.4-68.6-4.6-18-10.5-38.4-23.8-52.4-.2-.2-.5-.4-.8-.4-.2 0-.4.1-.6.2-.5.3-.6.9-.4 1.4 14 34.4 15.7 68.9 5.7 111.9-5.1 21.9-12.1 43.8-18.8 64.9-10 31.5-20.4 64-24.9 97.6-1.5 11.2-2.5 23.2-2.9 35.4 0 .1.1.6.1.7.1.5.1 1-.2 2-1.3 48.8 6.3 98.3 13.7 146.3 5.4 35 11 71.2 13 106.7 0 .6.5 1.1 1.1 1.1 10.1.1 20.3.1 30.6.1z"/><path class="st3" d="M648.5 210.8c.5-.1.9-.5.9-1 .5-5.8.7-12 .7-18.7-.1-.4-.1-.9-.1-1.3l.1-1.1c-.5-53.1-19.9-126.1-72.7-157-.2-.1-.4-.2-.6-.2-.3 0-.6.1-.8.4-.4.4-.4 1-.1 1.4 9.3 12.1 14.4 27.7 18.6 42.8 6.3 22.9 10.8 45.4 13.1 66.9.1.5.4.9 1 1h.2c.4 0 .9-.3 1-.7 3.3-7.4 6.8-14.7 10.5-21.7.5-.9 1.2-1.3 2.1-1.3.3 0 .7.1 1.2.2.8.1 2.2.6 2 2.5-3.5 31.6 9.3 59.9 21.6 87.3.2.4.6.7 1 .7.2-.2.3-.2.3-.2zM655.5 596.3c4.7-.1 9.4-.3 14.1-.5.6 0 1.1-.7 1-1.3-.3-14.5 6.5-27.6 12.4-39.2l4.3-8.3c8.4-16.2 16.3-31.4 22.9-48.4 18.3-47.1 26.8-97.1 24.8-144.7-1.4-32.1-9.1-64.1-16.6-94.9-4.2-17.5-8.6-35.5-11.7-53.3-8.5-48.2-11.3-87.4-8.9-123.5 0-.5-.3-1-.8-1.2h-.3c-.4 0-.8.3-1 .7-30.4 67.7-16.7 143-3.4 215.8 2 10.8 3.9 21.4 5.7 31.9 7.5 44.2 6.9 85.7-1.6 126.8-4.6 22.3-11.2 43.2-19.6 62.1-2.5 5.6-5.3 11.2-8.1 16.6-6.7 13.3-13.7 27.1-16.1 42.6.9 6.4 1.4 12.2 1.7 17.9.1.5.6.9 1.2.9z"/><path class="st1" d="M724.3 482.5c16.6-32.8 29.3-66.2 38.7-102.4 4.8-18.4 8.9-37.4 12.9-55.7l2.9-13.4c1.2-5.3 2.4-10.6 3.7-15.8 3.2-13.1 6.5-26.7 7.7-40.4 0-.6-.3-1.1-.8-1.2h-.3c-.4 0-.9.3-1 .7-11 25.1-25.2 53.9-47.8 77.2-.3.3-.7.6-1 .7-.5.2-.8.7-.7 1.2 1 7.5 1.7 14.2 2.2 20.7 2.7 37.9-3.6 80.8-18.5 127.6-.2.6.1 1.2.6 1.4.1.1.3.1.4.1.4-.1.8-.3 1-.7z"/><path class="st1" d="M677.6 595.5c7.3-.4 14.7-.8 22-1.3.5 0 .9-.4 1-.8 5.6-19.5 15.9-36.8 25.9-53.6 3.6-6.1 7.3-12.3 10.8-18.7 15-27.2 27.1-58.4 37.1-95.3 12.7-47 18.7-98.6 19-162.4 0-.6-.5-1.1-1-1.1h-.1c-.6 0-1 .4-1.1 1-1.8 13.2-5.1 26.3-8.4 39.1l-.7 2.9c-3.1 12.1-5.8 24.6-8.4 36.6-2.5 11.6-5.1 23.5-8.1 35.2-11.5 45.8-28.5 88-52.2 129.4-4.8 12.1-9.6 22.7-14.8 32.6-1.8 3.4-3.8 6.9-5.8 10.4-8.2 14.2-16.6 28.8-16.4 45 0 .3.1.6.4.8.2.1.5.2.8.2z"/><path class="st4" d="M466.2 593.5c.3 0 .7-.2.9-.4.2-.3.3-.7.2-1-3.6-12.4-8.1-25.1-13.6-38.8-.2-.4-.6-.7-1-.7l-1.7.2c-15.9 2-53 6.7-52.5 21.5 2.6 10.6 24.7 16.9 67.7 19.2-.1 0-.1 0 0 0zM708.2 593.6c31.7-1.8 68.7-5.9 73.6-21.5-.5-11.6-32.1-16.9-55.9-19.8h-.1c-.4 0-.8.2-1 .6-5.8 10.3-13.1 24.1-17.8 39.3-.1.4 0 .7.3 1 .1.3.5.4.9.4z"/><path d="M419 730.1c.3 2.1.6 4.2.8 6.4.8 5.9 1.5 11.9 2.6 17.8 2.2 12.3 30.9 17 44.7 19.2 1.5.3 2.8.5 3.9.6 24.8 4.5 52.9 6.6 88.6 6.6 17.3 0 34.7-.5 51.5-.9 6.5-.2 13-.3 19.4-.5l2.3-.1c26.8-.6 54.5-1.2 81.4-6.1l2.5-.4c12-2.1 36.8-6.5 40.7-18.3 4.5-13.8 5.8-29.8 7.1-45.2.2-1.9.3-3.7.5-5.5-7.8 8.7-16.5 16.6-26.1 23.2-11.3 7.9-23.7 14.5-36.7 19.1-15.7 5.6-32 7.7-48.6 9.3-36.6 3.5-73.4 7.6-110.2 7.2-18.4-.2-37-1.3-55.2-4.1-15.5-2.4-31.3-6.2-44.7-14.6-11.7-7.3-20.1-18.1-26.7-29.8.8 5.4 1.5 10.8 2.2 16.1z" style="fill:#98b718"/><path class="st6" d="M652.8 372.7c-10-3.3-16.5-15.7-19.4-25-1.9-6.1-2.9-12.5-3.6-18.8-.7-5.8 0-12.7-2-18.2 0-.1-.1-.1-.2 0-.3.7-.5 1.4-.7 2.2 3.3 26.2 4 54 2.1 82.8-1.6 24.6-4.3 53.3-11.9 79.4-.3 4.1-.9 8.3-1.5 12.7-.1.6.3 1.1.8 1.3h.3c.4 0 .9-.3 1-.7 3.3-7.5 6.6-15 10-22.5 6.2-13.8 12.6-28 18.3-42.3 1.3-4.2 2.6-8.1 4-11.8.2-.5.4-.8.9-1.2.1-.1.2-.3.3-.5 5-13.5 8.8-25.9 11.6-37.8-3.3 1.1-6.7 1.5-10 .4z"/><path class="st6" d="M618.6 457.3h.1c.5 0 1-.4 1.1-.9 4.4-21.4 6.2-43.6 7.6-64.4.8-12.8 1-25.9.5-39.6-.3 1.1-.6 2.2-.8 3.3-.5 2.7-.6 5.4-1.9 7.9-2.8 5.6-8.5 7.2-13.7 4-3-1.8-5.6-4.5-7.7-7.5 7.1 29.9 13.2 62 13.7 96 .1.7.5 1.2 1.1 1.2z"/><path d="M557.2 638.2c30.7.3 61.3-.2 91.9-1.3 29-1.1 58.1-2.2 86.9-5.9 13.2-1.7 26.3-4 39.2-7.3.3-2.5.7-5.1 1-7.6l.4-2.9c0-.4-.1-.8-.4-1-.2-.2-.5-.3-.7-.3h-.3c-52.5 15-109.5 15.1-164.6 15.2h-16.2l-12.2.1c-8.8.1-17.7.1-26.7.1-46.7 0-100.7-1.2-150.5-15.5h-.3c-.3 0-.5.1-.7.3-.3.2-.4.6-.4 1l.5 4.1c20.8 8.6 44.1 12.4 65.9 15.4 28.9 4 58 5.3 87.2 5.6z" style="fill:#cfff73"/><path class="st8" d="M703.7 304.7c.8 5.6.9 11.3 1.4 17 0 .4-.6.4-.7.1-1.8-6.3-3.9-12.4-5.1-18.9-1.1-6.1-2.1-12.3-3.1-18.4-1.9-11.5-3.6-23-5-34.6-1.6-12.3-2.9-24.7-4.4-37-1.4-12.1-4.2-25-2.6-37.1 0-.2.2-.2.3 0 3.8 11.3 3.9 24.3 5.3 36.2 1.4 12.5 3.3 25 5.2 37.5 1.9 12.3 3.7 24.6 5.7 36.9 1 6 2.1 12.1 3 18.3zM666 167.8c-.4 5.1-2.9 10.1-3.9 15.1-.9 4.2-1.3 8.6-1.6 12.9-.3 4.5-.5 9.1-.1 13.6.4 4.6 1.7 9.2 2.8 13.6.1.2.4.2.4 0-.1-4.6.4-9.1.5-13.6.1-4.5-.1-9.1 0-13.6s.5-9.1.8-13.6c.3-4.6-.1-10 1.6-14.4 0-.2-.5-.3-.5 0zM629.2 114.6c-1-5-2.1-9.9-3.9-14.7-.9-2.3-1.9-4.6-2.9-6.8-1.1-2.4-1.9-4.9-3.2-7.2-2.4-4.5-5.3-8.7-8.3-12.8-1.3-1.8-2.6-4.1-4.4-5.5-.2-.2-2.4-1.5-2.7-.8-.6 1.4.1 2.7.8 3.8 1.3 2 2.7 3.8 4 5.7 2.7 4 4.8 8.3 7.4 12.4 2.5 4 4.7 8 6.6 12.3 2.1 4.5 4.4 9 6.2 13.6.2.3.5.2.4 0zM572.5 185.2c-4.1 5.5-5.7 12.1-7.7 18.6-2.2 7-4.3 13.9-6.2 21-3.8 14.1-7.2 28.2-10 42.5-2.8 13.9-5.1 27.9-7 41.9-.9 6.9-2.1 13.8-2.5 20.7-.5 7.5 0 15.1-.3 22.7 0 .2.3.3.4 0 1-7.2 2.8-14.1 4.1-21.2 1.4-7.1 2-14.4 3.2-21.6 2.2-14.1 4.7-28.1 7.6-42.1 2.9-14 6-27.9 9.4-41.7 1.7-6.8 3.4-13.5 5.2-20.3 1.8-6.8 4.5-13.5 4.2-20.6-.1 0-.3 0-.4.1z"/><path class="st9" d="M452 232.8c-6.1-10.2-10.6-21.1-15.2-32h-.1c-.2 21.9 16.1 41.5 28.9 57.9 7.4 9.4 14.9 18.6 21.9 28.4 7.2 10.1 12.6 20.1 17.4 31.6.1.2.3.1.3-.1-4.7-22-20.2-40.9-33.5-58.3-7-8.9-13.9-17.8-19.7-27.5z"/><path class="st8" d="M422.5 344.8c-3.3-4.9-6.2-10-8.9-15.3-2.7-5.4-4.7-11.2-8.4-16-.1-.1-.2-.1-.2.1.3 5.7 2.9 11 5.4 16.1 2.8 5.7 6 11.3 9.4 16.7 3.2 5.1 6.8 10 10.7 14.6 4 4.8 9.5 8.7 14.1 13 .1.1.4-.1.2-.2-4.3-4.3-7.3-9.2-11-13.9-4-5-7.8-9.9-11.3-15.1z"/><path class="st9" d="M777.8 374.9c-5.8 17.8-9.2 36.2-15.1 54-5.9 17.7-10.5 35.8-16.9 53.4 0 .1.1.2.2 0 7.2-17.6 14.9-35.1 19.7-53.6 4.6-17.7 10.3-35.5 12.2-53.8 0 0-.1-.1-.1 0zM756.5 372.9c1.7-5.2 2.9-10.4 4.4-15.7 1.5-5.2 3.3-10.3 4.5-15.6 1.2-5.3 2.3-10.6 3.5-15.9 1.2-5.4 1.1-10.8 2-16.3 0-.1-.1-.1-.1 0-1.4 5.3-3.6 10.2-4.8 15.5-1.2 5.3-2.5 10.6-3.6 15.9-1.2 5.3-1.9 10.7-2.9 16.1-1 5.3-2.4 10.6-3.3 16-.1.1.2.2.3 0z"/><path class="st8" d="M635.8 552.9c-1.1-5.7-2-11.5-3.4-17.2-1.4-5.8-1.3-11.9-1.6-17.9-.3-5.3.3-11.4-1.5-16.4-.1-.4-.7-.4-.8 0-1.6 5.3-.4 11.6.1 17.1.5 5.6 1.7 11.2 1.9 16.9.1 5.4.7 10.6 1.5 16 .4 3 .9 6.1 1.6 9 .8 3 2.4 5.6 3.3 8.5.1.3.6.3.6-.1-.3-3 0-6-.4-8.9-.4-2.4-.9-4.7-1.3-7zM581 148.4c-.4 1-1.1 1.9-1.5 3-.4 1.1-.7 2.3-1 3.5-.7 2.4-1.4 4.8-2.2 7.2-.7 2.3-1.3 4.7-2 7-.3 1.1-.9 2.4-.9 3.6 0 1.1.3 2.3.7 3.3.1.2.4.4.6.2.8-.6 1.7-1.3 2.3-2.1.9-1 1.1-2.4 1.5-3.6.7-2.3 1.4-4.6 2-7 .5-2.4.9-4.8 1.3-7.2.2-1.2.4-2.3.6-3.5.2-1.4-.2-2.7-.3-4.1 0-.5-.8-.9-1.1-.3z"/><path class="st9" d="M657.1 305.5c-.6-17.6-2.9-35.5-7.8-52.5-2.5-8.6-5.5-17.1-9-25.3-1.6-3.8-3.2-7.5-5-11.2-1-2.1-2-4.4-3.3-6.4-1.4-2.1-3.4-3.3-4.8-5.5-.1-.2-.4 0-.3.2.9 2.1 1 5 1.8 7.2.7 2 1.7 3.9 2.6 5.8 2 4.5 4 9 5.7 13.5 3 7.8 5.7 15.7 8.1 23.8 5 16.6 9 33.3 11.4 50.5.2.2.7.1.6-.1zM656.6 311.5c0-.2-.3-.1-.3 0 .6 6.7 1.1 13.5.9 20.3-.2 7-1.4 14-2.7 20.8 0 .1.1.1.1 0 4.9-12.6 5.9-28 2-41.1zM610.7 271.3c-1.5-8-3-15.9-4.2-23.9-.7-4.8-1.2-9.7-1.8-14.5-.5-4.3-1.5-8.6-1.2-13 0-.3-.4-.3-.4 0 .4 4.3-.3 8.7-.1 13 .2 4.3.8 8.7 1.3 13 .9 7.5 2.2 15 3.4 22.4 1.3 8 3 15.9 4.3 23.9 1.4 9.2 1.6 18.4 2.5 27.6 0 .2.3.2.4 0 1-8.6-.1-17.4-1.1-26-.9-7.5-1.7-15.1-3.1-22.5z"/><path class="st6" d="M722.2 481.6c-.2.6.1 1.2.6 1.4.1.1.3.1.4.1.4 0 .8-.2 1-.6 2.1-4.1 4.1-8.2 6-12.3 1-2 1.9-4.1 2.8-6.1 1-2.1 2-4.2 2.9-6.3l4.2-9.9c.4-.9.8-1.7 1.1-2.6 1.7-4.1 3.3-8.2 4.9-12.4 0-.1.1-.2.1-.3 1.4-3.8 2.8-7.6 4.1-11.4.2-.5.3-.9.5-1.4 4.5-12.9 8.5-26 12-39.6 0 .1-.1.2-.1.4-.4-.4-8.7 17.5-10.1 19.2-.9 1-1 1.7-1.8.9-.8-.8-.5-2.5-.5-3.6-.6-9.6-.5-19.1-.4-28.7.2-14.6.4-30.1-2.8-44.6-2.2 2.6-4.5 5.2-6.9 7.7-.3.3-.7.6-1 .7-.5.2-.8.7-.7 1.2 1 7.5 1.7 14.2 2.2 20.7 2.7 37.8-3.5 80.8-18.5 127.5zM542.7 535.1c-.8-6.5-1.7-12.9-2.6-19.4-3.3-7.1-6-14.4-8.3-21.9-5.9-18.7-8.9-37.8-11.1-57.3-2.1-18.7-4.6-37.4-7.9-55.9-3.1-17.1-8.3-32.1-18.7-46.1-5.1-6.9-10.8-13.4-16.1-20.1-3.1-3.8-5.9-7.8-8.8-11.8-3-4.1-6.3-7.8-7.9-12.7-.1-.2-.5-.1-.4.1 1.2 2.9 2.2 5.7 3.3 8.5.9 1.6 1.9 3.2 2.8 4.8l3.7 6c9.3 15.1 18.8 30.8 24.3 48 5.2 16.2 5.2 33.9 5.1 51.1v9.6c.2 21.6 3.7 43.5 10.7 66.8 6.2 20.5 15.5 40 24.6 58.9 2.7 5.7 5.5 11.4 8.1 17.2.2.4.6.7 1 .7h.3c.5-.1.9-.7.8-1.2-.8-7.1-1.6-14.2-2.5-21.4-.1-1.4-.3-2.7-.4-3.9z"/><path class="st10" d="M466.6 428.3c-.1-1.4-.3-2.8-.4-4.3 0 3.1 0 6.2.1 9.2.1 2.2 0 4.6.2 7-.3-.3-.7-.5-1-.8-4.9-4.1-9.7-8.3-14.3-12.8-9.1-9-17.4-18.9-24.6-29.5-7.1-10.3-13.5-21.3-18.6-32.7-2.3-5-4.1-10.2-6-15.3 3 12.6 6.5 25 10.6 37.2v.1c2 6.1 4.2 12.1 6.5 18.1 0 .1.1.2.1.2 2.3 6 4.8 11.9 7.4 17.7 10.2 23.1 24.1 44.7 37.5 65.6 4.2 6.6 8.5 13.2 12.6 19.8.2.3.6.5 1 .5.2 0 .3 0 .5-.1.5-.2.8-.8.6-1.4-2.8-9.3-4.8-18.1-6-26.8-2.6-17.2-4.4-34.8-6.2-51.7zM503.1 565c-.7-1.4-1.4-2.8-2-4.2l-.8.9c-3.7 2.5-8.1 3.8-12.4 2.7-7.8-1.9-12-9.9-15.3-16.5-3.5-7.1-5.9-14.8-9-22.1-3.5-8.3-7.4-16.5-11.5-24.6-16.4-32-36.2-62.3-51.1-95-3.4-7.5-6.5-15.2-9.3-22.9 2.3 10 5.2 20.1 8.5 30.5l.6 1.8c1.4 4.2 2.8 8.5 4.4 12.8.4 1.1.8 2.3 1.2 3.4 1.8 4.9 3.7 9.9 5.7 15 7.4 18.3 15.8 36.3 23.9 53.6 13.8 29.6 28.2 60.2 37.5 92.8.1.5.5.8 1 .8.8 0 1.5.1 2 .1 12.1.9 24.9 1.6 39.3 2.1.4 0 .7-.2.9-.5.2-.3.3-.7.1-1.1-4.3-10.1-9-20-13.7-29.6zM653.3 566.8c3.7-13 10-25.4 16.1-37.4 10.1-19.9 17.9-41.7 23.8-66.7 6.1-26.1 9.1-49.6 9.1-71.9 0-3-.1-5.9-.2-8.9 0-1.1-.1-2.2-.2-3.3-.1-1.9-.2-3.7-.3-5.6-.1-1.4-.2-2.7-.3-4.1-.1-1.6-.2-3.1-.4-4.7-.1-1.6-.3-3.1-.5-4.7-.1-1.3-.3-2.7-.4-4-.2-1.7-.4-3.5-.7-5.2-.1-1.1-.3-2.2-.4-3.3-.3-1.9-.5-3.9-.8-5.8-.1-.9-.2-1.7-.4-2.6-.3-2.2-.7-4.3-1-6.5-.1-.5-.2-1.1-.3-1.6-.4-2.5-.8-5-1.3-7.5h-.1c-3.3 14.6-3.6 29.6-5.9 44.4-2.1 13.9-5.2 27.7-9.4 41.2-3.6 11.7-8.2 23-14.9 33.3-6 9.2-13.2 16.4-21.7 22.8-.3 2.7-.5 5.4-.8 8.1-.1.8-.1 1.6-.2 2.4-.2 2.3-.3 4.7-.4 7-.1 1.6-.1 3.2-.1 4.8 0 1.8-.1 3.6-.1 5.4 0 3.6 0 7.2.2 11 .6 15.9 3.5 31.7 6.3 47 1 5.4 2 10.9 2.9 16.3.1.5.5.9 1.1.9h.1c.6 0 1.1-.3 1.2-.8z"/><path class="st6" d="m726.8 506.4-.2-.4s8.4-32.8 13.6-53.5c-1.9 4.5-3.9 9.1-6 13.5-2 4.3-4 8.6-6.1 12.8-.6 1.3-1.3 2.6-2 3.9-1.6 3.2-3.2 6.3-4.9 9.5-2.5 4.7-5.1 9.4-7.8 14.1-4.8 12.1-9.6 22.7-14.8 32.6-1.8 3.4-3.8 6.9-5.8 10.4-8.2 14.2-16.6 28.8-16.4 45 0 .3.1.6.4.8.2.2.5.3.8.3h.1c7.3-.4 14.7-.8 22-1.3.5 0 .9-.4 1-.8 5.6-19.5 15.9-36.8 25.9-53.6.1-.2.3-.5.4-.7-6.3-4.8-2.4-23.8-.2-32.6z"/><path class="st10" d="M631.1 578.6c-2.1-4.9-4-10-5.4-15.5-2.6-10-4-20.3-4.8-30.5-.6-7.1-.6-14.2-1.1-21.2-1 10.2-1.1 20.7-.3 31.2 0 .3 0 .5.1.8.3 3.3.6 6.7 1 10v.2c.4 3.3 1 6.6 1.6 9.9.1.5.2 1.1.3 1.6.6 3.1 1.3 6.3 2 9.4 0 .2.1.3.1.5.8 3.2 1.6 6.4 2.6 9.5.2.7.4 1.5.6 2.2 1 3.2 2 6.4 3.1 9.5.2.5.6.8 1.1.8l4.4-.1c3.7-.1 7.5-.1 11.2-.2.3 0 .6-.1.8-.4.2-.2.3-.5.3-.8-.2-4-.5-8-.9-12-10 13.2-16.7-4.9-16.7-4.9zM687.4 547.1c8.4-16.2 16.3-31.4 22.9-48.4 18.3-47.1 26.8-97.1 24.8-144.7-.2-3.9-.4-7.8-.8-11.8-.1-1.4-.3-2.7-.4-4.1-.3-2.5-.5-5.1-.8-7.6-.2-1.7-.5-3.3-.7-5-.3-2.2-.6-4.5-1-6.7l-.9-5.4c-.4-2.1-.7-4.1-1.1-6.2-.4-1.9-.8-3.9-1.1-5.8l-1.2-5.7c-.4-2.1-.9-4.2-1.4-6.3-.4-1.7-.8-3.4-1.1-5.1-.5-2.4-1.1-4.7-1.6-7.1-.3-1.4-.6-2.8-1-4.1-.7-3.1-1.5-6.2-2.2-9.4.1.9.3 1.8.6 2.7.2 18.4 2.6 36.8 4.1 55.1 1.7 21.3 2.9 42.7 2.3 64-1.1 39.4-9.2 78.9-29.5 113-5 8.5-10.7 16.7-17.9 23.6 0 0-2.7 2.3-6.7 5.2-1.3 2.5-2.5 5.1-3.8 7.6-6.7 13.3-13.7 27.1-16.1 42.6.9 6.4 1.4 12.2 1.7 17.9 0 .6.5 1.1 1.1 1.1 4.7-.1 9.4-.3 14.1-.5.6 0 1.1-.7 1-1.3-.3-14.5 6.5-27.6 12.4-39.2l4.3-8.4z"/><path class="st10" d="M626.1 586.7c-.7-2.3-1.3-4.7-2-7-7.8 2.9-16.6.2-18.1-13.6-1.8-16.5 9.1-41.8 11.6-47.2.1-2 .2-4.1.4-6.1.2-2.8.5-5.7.9-8.5.1-.6-.3-1.1-.8-1.2h-.3c-.4 0-.9.3-1 .7-9.9 24.2-21.5 56.5-23.7 92.2 0 .3.1.6.3.8.2.2.5.4.8.4h.4c11.1 0 22.2-.1 33.3-.3.4 0 .7-.2.9-.5.2-.3.3-.7.1-1-1-2.8-1.9-5.8-2.8-8.7z"/><path class="st6" d="M540.8 558.8c-1.6-3.5-3.3-7.1-4.9-10.5-6.8 32.8-21.1 9.3-21.1 9.3-1.1-2-2.1-3.9-3.2-5.9-12-23.8-20.2-49.5-23.8-76-4.1-29.4.3-59-3.1-88.4-3.4-28.7-16.5-53.2-30.4-78-2.8-5-5.5-10.1-8.1-15.3 2.4 6.7 4.6 13.4 6.8 20.1.3.8.5 1.6.8 2.4.8 2.5 1.5 5 2.2 7.4.3.9.5 1.8.8 2.7.9 3.2 1.8 6.5 2.6 9.8 7.6 30.8 10.7 63.1 13.7 94.3 1 11 2.1 22.4 3.4 33.5 3.3 29.2 8.8 50.7 18.4 72 4.1 9.1 8.7 18.1 13.1 26.8 5.4 10.5 10.9 21.3 15.5 32.3 0 .1.1.3.1.4.1.5.6.8 1 .8 7.6.2 15.3.4 22.9.5.3 0 .6-.1.8-.3.2-.2.3-.5.3-.8-.4-7-1-14.4-1.8-23.6-2-4.6-4-9.1-6-13.5z"/><path class="st10" d="M584.2 575.2c-2.2-5.3-4.3-10.8-6.2-16.3-3.5-9.9-6.4-21-9.1-34-4.3-20.9-6.2-43.6-5.5-67.6 1.3-44.3 11.4-88.6 21.2-131.4l2.6-11.3v-.5c-.6-2.9-1.1-5.8-1.6-8.7-.2-1-.3-2.1-.5-3.2-.3-1.9-.6-3.7-.8-5.6-.2-1.3-.3-2.7-.4-4-.2-1.6-.3-3.2-.5-4.8-.1-1.5-.2-3.1-.3-4.6-.1-1.4-.2-2.8-.2-4.3-.1-1.7-.2-3.4-.2-5.2v-3.5c0-2-.1-4 0-6v-.5c.1-5.6.3-11.2.8-16.9-6.8 15.1-11.2 31.7-13 48.1-2.2 19.6-1.7 39.5-3.3 59.2-1.7 20.9-6.4 40.9-11.3 61.2-2.4 9.8-4.5 19.6-5.4 29.6-1 10.8-.6 21.8-.1 32.6.8 18.1 3 36.4-.9 53.9-.3-.4-.6-.9-1-1.3-.4-.6-.7-1.2-1.1-1.8.7 5.3 1.5 10.5 2.1 15.8.2 1.2.3 2.4.5 3.6.5 3.9 1 7.9 1.4 11.8.2 1.7.4 3.4.5 5 .4 3.7.7 7.4 1.1 11.1.1 1.6.3 3.2.4 4.8.4 5.2.8 10.3 1.1 15.5 0 .6.5 1.1 1.1 1.1 10.3.1 20.5.2 30.7.2.6 0 1.1-.5 1.1-1.1.2-4 .6-7.9 1-12-.4-1.9-1.6-4.2-2.7-6.2-.7-1-1.2-2-1.5-2.7z"/><path class="st10" d="M596.3 544.9c-.2-.6-.2-1 0-1.6 8.2-28.8 15.8-60.3 15.7-96-.1-32.6-8.1-64.6-15.9-95.6-1.5-5.8-3-11.8-4.4-17.8-.3-.7-.5-1.4-.8-2.1-.6-2.7-1.2-5.3-1.9-7.9v-.9l-.3-.3c-.2-.1-.3-.2-.5-.2-.5 0-1 .4-1.1.9-2.9 12.9-5.9 25.9-8.6 39 7.9 28.9 17.7 70.5 14.9 90.6-3 21.2-14.3 49.5-23.3 68.2.4 2.2.8 4.4 1.3 6.6 2.2 10.7 5.4 21.9 9.6 34.1 2.1 5.9 4.5 11.5 6.3 15.8.2.4.6.7 1 .7h.1c.5-.1.9-.5 1-1 1.6-10.4 3.9-20.8 7-31.9 0-.2 0-.4-.1-.6z"/><path class="st11" d="M449.5 546.1c-15.4-36.9-34.1-72.2-48.8-109.7-23.9-61.2-33.7-129.3-13.7-192.9.2-2 1.7-3 3.5-3 2.2-.2 4.4 1.3 4.4 3.7v.1c5.3 47.4 36.3 81 62.3 118.3-2.2-12.8-4.8-25.5-8.2-38.1-11.1-40.7-30.5-78.6-41-119.5-9.9-38.7-5.6-76.7 12-112.4.1-.2.1-.3.2-.5V92c.1-.2.3-.3.4-.5.1-.1.2-.3.3-.4 1.1-1.2 2.6-1.3 3.9-.7 1.5.4 2.8 1.6 2.8 3.7.5 50.2 12.4 92.3 42.6 132.4 22.1 29.3 40.4 58.2 52 92 8.7-99.3 82.9-198.3 35.3-296-2.1-4.2 3.5-7.9 6.2-4.9h.3c53.9 20.5 82.5 80.4 90.4 139.3 7.6-35 20.7-70.5 44.9-95.5 1.3-1.4 2.9-1.5 4.3-.8 1.6.4 2.8 1.5 2.5 3.6-6.2 51.3-.1 103.2 9.6 153.7 6.8 35.4 16.8 70.1 22.4 105.6 25.2-27.3 39.8-62.2 53.7-96.2 0 0 0-.1.1-.1.7-2.4 3.3-3.1 5.3-2.3 1.7.5 3 2 2.4 4 1.5 62.3-1.9 124.5-15.6 185.3-6.6 29.4-16.5 57.8-28.7 85.3-7.1 16.1-16.6 31.1-25.5 46.4 17.4 2.1 56.8 6.5 58.4 25.6.2.6.3 1.3.1 2.1 0 .1-.1.2-.1.3v.8c-3.2 24.3-6.4 48.6-9.6 72.8-3.9 29.8-7.9 59.6-12 89.4-2.4 17.4-2.9 26.9-21.1 34.2-42.9 17.3-92.8 14.7-138.2 15.4-49.2.7-100.6 2-148.9-7.9-18.8-3.9-40.9-9.1-43.9-30.2-4.5-31.6-8.6-63.3-12.8-94.9-3.6-27-7.2-53.9-10.6-80.9-2.3-19.2 42.8-24.5 58.4-26.5zm-46.1 58.3c59 17.6 124.5 15.8 185.5 16 61.6.2 128.2 1.8 187.6-16 .4-3.3.9-6.6 1.3-9.9.4-3 .8-5.9 1.2-8.9-14 8.9-38.9 10.8-49.8 12.4-45.3 6.6-92.2 6-137.9 6.1-48.2.1-97.2-.1-145.1-6.1-10-1.3-32.2-2.9-45.2-11 .9 5.8 1.7 11.6 2.4 17.4zm198.5-256.8c9.1 36.4 16.2 71.3 16.8 108.7 4.3-21.2 6.2-43.3 7.6-64.3 2.2-32.6-.2-64.8-4.9-97.1-6.6-45.9-17.6-94.4-8.7-140.6-24.9 62-27.3 127.1-10.8 193.3zm-13.9-24c-10 44.1-20 88.4-21.8 133.7-.9 23.6 1.3 47.2 6.1 70.3 2.4 11.5 5.7 22.8 9.6 34 1.9 5.3 4 10.5 6.3 15.7 1.6-10.9 4.1-21.5 7.1-32-.2-.7-.3-1.4-.1-2.2 9.1-32 15.7-62.4 15.7-95.7-.1-42.3-13.5-82.9-22.9-123.8zm6.1 272.5c11.2 0 22.4-.1 33.7-.3-10.2-29.5-14.2-60.9-10.1-91.6-12 29.4-21.6 59.5-23.6 91.9zm24.8-450.9c-13.4 51.8.4 107.7 8 159.4 4.4 30.2 5.2 60.7 3.2 91.1-1.7 26-4.5 54.1-11.9 79.5-.4 4.3-.9 8.5-1.5 12.8 9.4-21.5 19.5-42.9 28.3-64.7 1.2-3.9 2.6-7.9 4-11.8.3-.7.7-1.2 1.2-1.7 4.8-13 9-26.3 12.1-40 10.5-45.9 4.7-94.2-12.6-137.7-11.4-28.7-27.4-56.3-30.8-86.9zm35.7 78.6c1.7 3.9 3.3 7.7 4.9 11.6 14.2 35.7 19.6 77.8 14.1 115.7-3.1 21.5-9.3 42-16.9 62.1 0 .1 0 .3-.1.4-11 29.6-14.8 58.5-13.6 89.9.8 21.4 5.7 42.1 9.2 63.1 3.7-13.1 10-25.4 16.2-37.6 10.8-21.2 18.3-43.3 23.7-66.5 5.5-23.5 9.1-47.4 9.1-71.6 0-23.9-3.6-47.8-7.8-71.3-13.5-75.9-33.2-161-2-235.1-20.4 30.4-29.6 70.2-34.5 105.4.1 11.6-.7 23.1-2.3 33.9zm-19.7 275c-.5-13 .1-25.6 1.8-38.1-3.9 8.8-7.8 17.5-11.7 26.3-8.8 36.1-5.3 73.8 7 108.8 5.2-.1 10.4-.1 15.6-.3-1.5-32.6-11.5-64-12.7-96.7zM399.5 574c3.5 14 45.5 17.2 66.7 18.4-3.9-13.2-8.5-26.1-13.5-38.7-13.4 1.7-53.6 6.2-53.2 20.3zm13.7-127.7c20 49.7 46.7 94.8 61.4 146.6.8 0 1.5.1 2.1.1 13 1 26.1 1.6 39.3 2.1-10.6-24.3-23-46.7-32.3-70.6-20.6-36-46.4-69.2-62.5-107.6-19.4-46-30.3-95-32.8-144.7-10.9 58.8 2.4 118.5 24.8 174.1zm46-66.6c-23.9-37.5-54.5-69.2-67.1-111.2 2.2 52.8 14 104.9 35.5 153.4 13.4 30.2 32.6 57.2 50 85.2-2.6-8.7-4.7-17.6-6.1-26.9-4.7-33.1-6.9-66.5-11.4-99.5-.3-.3-.6-.6-.9-1zm1.2-43.5c10.3 41.8 12.2 85.3 17.1 127.9 2.9 25.6 7.7 48.1 18.3 71.6 9 20 20.2 38.9 28.7 59.1.1.2 0 .3.1.5 7.6.2 15.3.4 22.9.5-.4-7.8-1.1-15.5-1.8-23.2-13-30.1-29-58.6-38.6-90.2-6-20-9.4-40.2-9.9-61.1-.5-23.4 1-47.1-7.2-69.5-7.7-21-21.4-39.4-32.4-58.6-11-19.1-18.5-40.1-25.2-61-11.3-35.2-18-72.6-15.2-109.6-20.1 73.3 25.3 141.4 43.2 213.6zm-4.5-116.1c-21.5-30-31.3-63.5-34.7-99.1-3.4 40.7 5.3 81.5 18.3 120.1 7.3 21.7 16.5 42 28.4 61.6 10.6 17.4 21.8 34.7 28.1 54.2 6.2 19.4 5 40.9 5.2 60.9.2 22.9 4.1 44.6 10.7 66.5 8 26.5 21.1 50.9 32.6 75.9-7.7-72.5-24.1-144-23.2-217.1 0-.1-.1-.2-.2-.4-11.4-48.3-37-83.1-65.2-122.6zm119.6-77.3c-12.8 54.7-36.3 106.4-43.8 162.4-1.6 11.8-2.5 23.5-2.9 35.3 0 .1.1.2.1.4.2.9.1 1.6-.2 2.3-2.3 84.4 22 168.8 26.7 252.8 10.3.1 20.5.2 30.7.2.2-3.9.6-7.9 1-11.7-.5-2.7-3.2-6.5-4.1-8.8-2.2-5.4-4.3-10.8-6.2-16.3-3.9-11.1-6.8-22.6-9.2-34.1-4.6-22.3-6.1-45.2-5.5-67.9 1.4-48.3 13.1-95.9 23.8-142.8-11.3-53.8-1.5-112.6 19.6-163.9-2.1-23.2-6.6-45.9-12.4-68.5-4.6-18.1-10.4-38-23.5-51.9 15.2 36.9 15.2 72.5 5.9 112.5zm1.4-110.2c9.5 12.5 14.6 28.3 18.8 43.2 6.1 22 10.7 44.4 13.2 67.1 3.3-7.5 6.8-14.8 10.5-21.8 1-1.9 2.8-2.3 4.4-1.7 1.7.2 3.2 1.4 3 3.7-3.5 31 9 59 21.5 86.7.5-5.9.7-12.1.8-18.3-.2-.5-.2-1.1-.1-1.8 0-.3.1-.6.1-.9-.6-58.6-22.9-127.3-72.2-156.2zm157 321.4c-2.2-50.2-19.6-98.9-28.3-148.1-7.2-40.8-11.7-82.4-8.9-123.8-34.9 77.5-11 167.3 2.4 247 7.3 43.1 7.3 84.4-1.6 127.3-4.4 21.4-10.8 42.3-19.6 62.3-8.6 19.4-20.7 37.5-24.1 58.6.8 6 1.4 11.9 1.7 18 4.7-.1 9.4-.3 14.1-.5v-.1c-.3-14.4 6.1-27.2 12.5-39.7 9.7-18.9 19.4-36.7 27.1-56.6C727 452.5 736.1 403 733.9 354zm5.8-20.8c.9 6.9 1.7 13.8 2.2 20.8 3 43.1-5.5 87.1-18.6 128 16.5-32.6 29.3-66.4 38.6-102.1 6-22.8 10.7-46 15.8-69 4.1-18.8 9.8-37.1 11.4-56.1-12.3 28.1-26.5 55.3-48 77.5-.4.4-.9.7-1.4.9zm33.6 92.3c14.2-52.7 18.7-107.5 19-162.1-1.9 14.2-5.6 28.2-9.1 42.1-6 23.8-10.5 48-16.5 71.8-11.5 45.8-28.8 88.6-52.2 129.5-4.4 11.2-9.3 22.2-14.9 32.7-9 16.9-22.3 35-22.1 54.9 7.3-.4 14.7-.8 22-1.3 7.6-26.6 23.6-48.5 36.8-72.5 16.5-29.9 28.1-62.2 37-95.1zm-47.6 128c-7.1 12.5-13.5 25.3-17.7 39.1 18.3-1.1 67.5-3.9 72.6-20.3-.5-12.1-41.9-17.2-54.9-18.8zM420.1 730c1.1 8 2 16.1 3.4 24.1 2.3 12.9 38.2 17.2 47.7 18.9 51.5 9.4 107.2 6.4 159.4 5.2 28-.6 55.9-1.1 83.5-6.2 10.2-1.9 38.4-5.9 42.3-18 6.5-20.1 6.3-45.1 9.1-65.9 3.3-25.1 6.6-50.1 9.9-75.2-57.9 16.5-121.5 15-181.1 15.3-62.2.3-129.3 2-189.7-15.3.2 1.6.4 3.2.6 4.9 4.9 37.5 9.8 74.8 14.9 112.2z"/><path class="st11" d="M516.4 639.7c41 0 82 2.7 123 2 16.1-.2 32.3-.9 48.4-2.2 22.1-1.8 43.4-7.6 65.4-10.2.5-.1.5.7.1.8-36.9 12.7-75.2 15.8-113.9 16.6-41 .9-82.6.6-123.2-5.8-.7-.1-.5-1.2.2-1.2zM510.5 640c.3.1.3.5 0 .6-4.5 1.4-9.9 1.3-14.2-.6-.3-.1-.3-.6 0-.7 4.4-1.9 9.7-.8 14.2.7z"/><path class="st0" d="M623.4 621.6c-7.4 0-14.9 0-22.2-.1h-29.5c-56.5 0-115 0-168.6-16-.4-.1-.7-.5-.8-.9l-2.3-17.3c-.1-.4.1-.9.5-1.2.2-.1.4-.2.7-.2.2 0 .4 0 .5.1 11.2 7 29.8 9.1 40.8 10.4 1.4.2 2.7.3 3.9.5 45 5.6 91.4 6.1 131.4 6.1h26.1c41.3 0 84.1-.1 125.2-6 1.6-.2 3.5-.5 5.7-.7 12-1.5 32-4 43.7-11.5.2-.1.4-.2.6-.2.2 0 .4.1.6.2.4.2.6.7.5 1.1l-2.5 18.8c-.1.4-.4.8-.8.9-49.9 14.8-105.4 16-153.5 16z"/></svg>