<svg version="1.1" id="e37c00f5-ff96-45aa-87ea-1a24b78ba7bd" xmlns="http://www.w3.org/2000/svg" x="0" y="0" viewBox="0 0 1176.6 803.7" style="enable-background:new 0 0 1176.6 803.7" xml:space="preserve"><style>.st1{fill:#68182b}.st2{fill:#b4d345}.st5{fill:#ff821d}.st7{fill:#00ff8b}.st12{fill:#f26200}.st13{fill:#aeae38}</style><path d="m533.5 493.7-.3 11.5c-8.2-5.8-16.5-11-24.7-15.6 3.5-3.6 6.8-7.4 9.9-11.2 5 3.9 10.3 9.2 15.1 15.3zm120.8-100.2c-5 0-9.9.3-14.6.8-3.4.4-7.1 1-10.9 1.8 5.4-4.8 10.4-10.2 15.2-15.6 4.1 2.8 8.4 5.3 12.8 7.4 4.9 2.4 9.9 4.6 15.1 6.7-5.9-.8-11.8-1.1-17.6-1.1z" style="fill:#fff"/><path class="st1" d="M774.5 281.4c-27.3-12.4-58.1-16.8-87.6-12.6 4.9-55.3-78.1-6.8-104.7 18.2 2.7-19 9-36.3 19.6-55v-.1c1 .3 2.1.6 3.3.8 23.7 4.8 51.6-.2 73.4-9.6 28.8-12.5 55.6-32.2 76.1-56 12.7-14.7 26.1-35.1 23.8-55.7-5.4-49.2-71.4-42-104.7-28.8-2 .8-4 1.7-6.1 2.6 3.5-21.1 8.6-59.7-16.8-66.7-30.9-8.6-56 16.8-70.5 41.6-28.3 48.7-52.4 134.3-8.9 181.6-.4.7-.7 1.3-1.1 2-1.8 3-5.1 12.3-9.5 7.9-1.9-1.9-3.7-3.9-5.4-6.1-9.6-12.3-17.3-25.7-26.2-38.5-.3-.4-.6-.7-.9-.9 2.2-8 1.6-17-.2-25.3-10.6-47.8-47.5-85.2-92.4-103.2-18.7-6.3-45.4-11.2-61.8 3.7-13.2 12-15.3 30-8.6 46.2 17.6 42.7 63.8 79.2 107 93.7 12.2 4.1 31.1 8.9 43.7 1.8 12 19.5 27.3 38.9 33.6 61.1 5.5 19.2 4 38.7 3.6 58.4-.1 5.3-.2 10.5-.4 15.8-7.1-9.6-15.7-18.8-24-26.7 4.1-12.1.5-26.4-14.6-39.7-.1-.1-.2-.1-.3-.2l-.4-.4c-37-28.3-97.6-49.7-142.7-27.4-33.1 16.3-13.7 54 7.2 73.1 30 27.4 71.9 30.4 110.4 23.6 11.4-2 21.2-6.5 28.5-12.5 12.8 17.5 25.1 35.3 34.9 54.7l-1.2 47.6c-8.4-5.5-17.9-9.5-27.6-11.8 6.7-15.9 10.7-34.6-4.3-46.9-14.4-11.8-38.8-8.5-55.7-6.7-43.7 4.7-86.4 30.7-106 71.1-14.1 28.9-8.2 69.7 31.9 69.8 13.8 0 28-2.4 41.8-6.9 4.4 19.9 13.2 37.5 24.3 53.8-16.3 1.4-75.4 7.3-72.5 24.9-1.3 34-4.9 69.8 36 76.8 1.8.3 3.7.5 5.5.8-.9 24.4-.2 48.9-.1 73.3 0 12.6 1.1 19.3 13.6 24.5 38.2 16.1 88 13.4 128.5 12.7 40.7-.7 90 .6 128.6-14.8 11.9-4.8 13.6-9.2 13.7-21.6.1-24.7.8-49.7-.6-74.4 7.3-1.4 14.5-3.3 21.4-6 27.7-11.1 21.6-47 20.1-70.7 2.1-11.7-34.6-19.8-49.3-22.4 15.4-17.8 28-37.8 34.4-59.7.5-1.8 1.2-4 1.9-6.4l.6-.3c24.8-17.1 28.6-46.7 5.4-68-25.1-23-67.1-35-100.8-31.2-17.4 2-41 9.6-57.2 23.1-.3-10.5-.7-21-1-31.6h.1c23.8-2.5 43.9-26.1 58.2-43.8 6.9 6.1 14.5 11.4 22.4 15.3 41.3 20.5 104.3 30 144.4 2 43.1-30-.6-78.8-33.8-93.9zM549.7 493.9c-.4 14.6-.8 29.2-1.2 43.7-20.8-17.8-43.4-33.3-68.7-44.1 13.5-10.3 25.1-22.6 33.9-36.4 12.6 4.7 24.5 16.2 32.9 26.9 2.3 3.1 3.2 5.3 3.1 9.9zm75.2 28.1c-13.7 10.6-25.9 23-36.1 37.1-.7-18-1.4-36-2-53.9 11.3 8.2 25.5 13.7 38.1 16.8z"/><path class="st2" d="M550.6 459.6c-8.8-6.7-19.8-11.4-30.6-13.7-.8 1.6-1.6 3.2-2.5 4.8 12.4 5.2 23.8 15.4 32.6 26 .2-5.8.4-11.4.5-17.1zM552.8 371.8c-7.1-11.7-17.3-23.1-27.2-32.7-.9 1.4-1.9 2.7-3 4 10.6 14.5 20.9 29.1 29.8 44.7.2-5.4.3-10.7.4-16z"/><path class="st2" d="M522.1 218.4c10.5 17.4 22.2 34 30.7 52.5 8 17.5 8.9 35.1 8.6 54-.1 7-.3 14.1-.4 21.1-.2 8-1.9 81-2.2 92.6-1.6 59.2-3.1 118.5-5.2 177.7.6 0 5 0 6.6.1 4.7-15 10.8-29.3 18.7-42.1 2.7-4.4 2.1-21.4 1.9-25.4-.7-16.8-1.3-33.5-1.9-50.3-9.1-9.1-14.7-20.7-12.8-35.1.9-6.9 3.6-13.2 7.6-18.8 2.1-3 3.2-6 3-9.8-1-29.9-1.9-59.8-2.9-89.7-3.1-.4-5.5-2.5-7.1-7.6-2.1-6.6.4-15.2 6.4-19 0-.2-.1-.3-.1-.5-1.1-33.8 5.2-59.8 21.8-89-2.2-1.3-4.1-2.8-5.7-4.5-7.3 11.9-17.2 47.2-33.5 32.6-12.8-11.5-21.1-28.4-30.5-42.7-.9 1.3-1.9 2.6-3 3.9z"/><path class="st2" d="M574.1 329.7c-.4 1.3-.2 8.9 1.3 8.6 14.1-3.7 28-11.7 42.9-11.2-.5-1-.9-2-1.3-3.1-.9-2.2-1.4-4.3-1.6-6.4-9.6-.2-19.1 2-28.4 4.4-5.3 1.2-11.1 1.9-12.9 7.7z"/><path d="M739.6 650.6c6.2-11.5 4.2-30 2.8-44.4l-.1.1c-19.2 11.9-49.6 11.6-71.2 13.5-40.8 3.6-81.8 4.5-122.7 4.1-38.1-.4-76.4-2.3-114.2-6.9-10.3-1.3-32.5-2.1-44.3-9.8-.9 15-1.9 32.1 3.9 44.9 6.9 15.2 30.7 16.2 44.6 17.6 67.1 7.1 203 9.9 271-2.7 11.4-2.1 24.3-5.5 30.2-16.4z" style="fill:#acff1d"/><path d="M700.9 742.8c.1-22.1.6-44.4-.6-66.4-9.7 1.4-19.6 2.1-29.2 3-61.3 5.4-172.3 6.9-239.2-2.7-.6 19.1-.2 38.3-.1 57.4 0 16.6-4.2 27.8 13.2 33.9 36.2 12.8 79.8 10.9 117.5 10.5 40.1-.4 82.2-1.7 121.2-11.7 16.6-4.4 17.1-7.3 17.2-24z" style="fill:#d1ffff"/><path class="st5" d="M371 513.3c2.6 1.6 5.7 2.9 9.3 4 42.8 12.8 92.4-24.5 118.5-54.1 10.6-12 28.1-37 22.5-55.3-1-3.4-2.2-5-6.7-4-29.2 6.4-57.2 22.9-81.3 39.7-13.4 9.4-26 20-38.1 31.1-9.9 9-18 19.3-26.5 29.4-2.6 3-1.3 7.1 2.3 9.2zM371 277.1c9.3-1.3 19.6-.3 28.1.3 17.4 1.3 34.5 5.6 51 10.9 23.3 7.5 49.9 17.5 68.7 34.5 2.5 2.2 4.9 4.6 4.1-1.9-1-8-5.7-16.2-13.7-23.3-32.1-24.3-75-39.8-115.4-32.3-8.5 1.6-17.6 3.6-24.8 8.6-5 3.6-.2 3.5 2 3.2zM583.1 343.3c-.6.2-1.1.4-1.7.6.5 16.8 1.1 33.7 1.6 50.5.1 0 .2-.1.3-.1 20.9-2.2 40-25.7 52.7-41.4-5.2-5.4-9.9-11.4-13.6-17.8-12.5-2.5-27.7 3.8-39.3 8.2zM576.4 616.4c9.8 0 19.7-.1 29.6-.3 24-12.3 44.1-34.2 62.6-53.1 10.2-10.4 20.2-20.9 29.6-32 5.8-6.8 11.1-14 16.2-21.5 2.8-4.1 5.9-7.8 8.4-11.8 1.9-3 2.1-5.7-2.9-5.9-2.3-.1-4.7.1-7 .4-9.6 1.4-19 3.8-28.3 6.7-54.2 16.7-94.4 57.5-113.8 109.7-2.3 6.3.4 7.8 5.6 7.8zM644.9 281.3c10.9-5.2 22.5-8.8 34.3-11.1 5-36-43.5-11.7-58.6-2.9-12.4 7.2-24.4 15.2-34.1 25.7-4.3 4.7-5.8 7.8-6 14-.1 2.8-.1 5.6 0 8.5 11.1-3.6 23.6-6.1 35.1-5.6 3.1-13 17.8-22.5 29.3-28.6zM571.5 229.9c2.7 3.7 4.1 3.5 6.2-.7 1.9-4 4.1-7.9 7-11.5-2.7-6.1-3.4-13.5-3.2-21.7.2-2.3.5-4.5.8-6.7-1.2-12.7-2-25.1 0-38 2.8-19.1 9-37.8 16.2-55.7 9.3-23.3 22.1-51.3 43.1-67.2 2.1-1.6 2.9-3.6-1.3-3.9-3.4-.2-7.3.1-11.8 1.1-28.2 6.6-45.6 42.9-55.6 67.1-16.2 39.2-28.2 99.6-1.4 137.2zM384.5 89.1c11.8 3.7 23.5 11.4 33.5 17.2 15.5 9 29.6 20.2 43.1 31.8 14.1 12.1 27.2 25.5 38.7 40.1 5.5 7 13.9 16.9 17.9 26.6 1 2.4 2.8 4 4.1-.8 3-11.2-1.6-25.7-4.8-35.4-12.8-38.4-46.1-68.6-83-83.4-16.1-5.4-35.1-9.1-50.2-.7-4.9 2.7-1.5 3.9.7 4.6zM472.6 498.8c-5.9 4-12.1 7.7-18.5 10.9 14.3 21.5 30.8 41.2 49.4 59 8.7 8.3 17.8 16.4 27.6 23.5 4.7 3.4 9.8 6.4 15.3 8.5.6-17.7 1.2-35.5 1.7-53.2-22.5-20-47.3-37.7-75.5-48.7z"/><path class="st5" d="M509.6 615.2c12.1.5 24.2.8 36.4 1 .1-3.9.3-7.7.4-11.6-5.2-2.8-11.6-5.4-17.1-9.1-9.3-6.4-17.6-14.1-25.9-21.7-20.1-18.4-37.6-39.7-52.7-62.4-4.1 2-8.3 3.8-12.5 5.4 8.1 37 31.8 65.8 57.1 92.7 3.5 3.7 7.6 5.4 14.3 5.7zM656.2 607.3c26.4-21.5 49.6-47 64.8-77.7 4-8.1 6.6-16.7 8.7-25.4.3-1.1.4-2.1.5-3 .5-6.8-1.6-5.6-4.6-.3-5.1 8.9-12.3 17.3-18.3 24.8-10.5 13.3-22 25.6-33.8 37.7-17.7 18.1-36.9 39.2-59.4 52.5 8.3-.2 16.7-.6 25-1.1 6.1-.3 12.3-3.6 17.1-7.5zM371.9 95.9c-7.9 15.2 3.1 36.3 11.3 48.9 20.6 31.3 56.6 56.4 91.3 69.4 10.8 4 27 8.1 37.9 2 2.8-1.6 3.6-4.7 2.1-8.2-2.1-5.1-6-10.2-8.5-14.2-4.6-7.2-9.8-14-15.2-20.5-9.8-11.8-21-22.4-32.5-32.5-12.3-10.8-25.4-20.8-39.4-29.5-6.6-4.1-13.6-7.8-20.6-11.3-5.7-2.8-11.3-6-17.3-7.9-3.1-.9-7.3.3-9.1 3.8z"/><path class="st5" d="M749.3 480.8c.7-3.4-.1-5.7-2.4-7-21.5-12.1-51-13.5-74.5-15.8-16.9-1.7-33.8-2.1-50.7-.8-15 1.2-29.1 5.6-43.7 8.5-4.3.9-6.4 2.7-5.6 8.2 3.2 23 41.4 38.2 59.8 42 .3.1.5.2.7.3 20.3-14 43.6-24.2 69.1-29.7 9.8-2.1 22.8-5.5 31.6.7 3.7 2.6 4.8 7 4.6 11.7 6.4-5.7 9.9-11.8 11.1-18.1zM366.7 500.6c8.3-9.8 16.3-19.7 25.8-28.6 12.3-11.4 25.3-21.9 38.9-31.7 23.4-16.8 51.4-32.9 80.1-39.6 3.4-.8 4.7-2.4.1-5.1-7.6-4.5-18.3-6-29.9-5.6-5.2.3-10.3.9-14.6 1.4h-.1c-18.7 2.8-37.7 9.2-49.8 15.6-16.7 8.9-31.4 21.4-43.3 37-11.4 15-21.3 38.7-14.7 55.6 2.3 6 4.1 4.9 7.5 1zM817.6 354.5c2.4-5.3 1.6-7-3.5-9.7-27.7-14.6-57.1-25.8-87.7-32.6-16.9-3.7-34.1-5.6-51.4-5.9-8.5-.1-17.1.5-25.6 1.4-6.9.8-13.4 2.9-20.1 4.8-5 1.5-7.2 5.4-4.4 11.5 2 4.5 5.1 8.7 7.4 12.1 13.3 19.2 33.6 31.4 55.3 38.8 34.7 11.9 80.4 15.6 113-3.5 8.9-5.1 14.3-10.9 17-16.9zM645.9 30c-22.4 15.8-35.4 45.6-45 69.8-6.3 15.9-11.3 32.4-14.4 49.2-1.7 9-1.9 17.8-1.5 26.6 9.8-37.2 36.9-66.4 71-84.5 3.2-1.7 3.4-2.4 3.9-5.5 2.8-17.3 5.2-42.5-5.3-54.4-3.4-3.9-4.4-4.2-8.7-1.2zM359.5 290.5c.5 12.6 12.3 28 18.7 35.8 18.5 22 47 29.4 74.6 30 16.6.4 35.4-.9 50.8-7.4 7.5-3.2 12.7-7.5 15.8-12.4 2.5-4 2.1-5.7-1.4-9-17-16.2-41-25.6-62.5-33.2-14.1-5-28.6-8.8-43.4-11.3-8.8-1.5-17.8-2.1-26.8-2.1-5.8 0-12.7-.3-18.8 1.2-4.5.9-7.2 3-7 8.4z"/><path class="st5" d="M720.9 435.2c-21.6-12.6-49.6-18.1-74.2-17.6-27.7.6-55 14.8-69.9 38.4-3.7 5.9-1.7 6.4 2.9 5.4 11.6-2.5 23-5.7 34.8-7.3 19.2-2.5 38.7-1.7 57.9 0 14.9 1.4 29.8 3.5 44.4 6.2 9.6 1.7 19.3 4.1 28.1 8.2 3.5 1.7 4.3.2 2.9-3.7-4-11.5-14.3-22.3-26.9-29.6zM754.1 281.6c-33.7-11.1-73.3-8.8-105.3 6.3-8.3 4.4-17.2 9-22.4 16.9-2.6 4-.6 4.9 3.3 3.8 5.3-1.5 10.6-3.1 16-4.1 8.5-1.6 17.5-1.8 26.2-1.9 17.6-.3 35.2 1.9 52.4 5.3 31.7 6.2 62.2 18 90.8 33.1 3.1 1.6 5.1 1.8 4-2.9-6.2-24.8-44.2-49.6-65-56.5zM662.3 96.1c-39.2 18.7-69.4 56-73.2 99.9-.2 6.6.6 11.7 2.2 15.8 1.5 3.9 3.6 3.2 5.8 0 4.2-6.1 8-12.5 12.2-18.7 4.9-7.3 11.2-13.7 17.4-19.9 14-14.1 29.8-26.3 46.3-37.3 15.3-10.2 31.5-19.1 47.9-27.3 12-5.9 24.8-11.2 38-13.2 4.6-.7 6.4-2.6 2.2-6.1-22.7-19-78.8-2.8-98.8 6.8z"/><path class="st5" d="M761.6 98.9c-15.6 1.9-30.3 8.7-44.2 15.7-15.6 7.9-30.7 16.7-45.3 26.4-16.2 10.8-31.3 23.3-45.1 37.2-10.6 10.6-17.7 23.3-26.2 35.2-2.9 4.1-2.8 7.8 1.1 9.6 6.3 2.8 14.6 3.5 24.5 3.5 24.8.1 47.9-8.1 69.2-20.2 32-18 76.2-54 75.2-94.6-.1-2.2-.3-4.2-.6-6.1-1-5.4-2.8-7.4-8.6-6.7z"/><path d="M421.1 424.7c-12.4 7.8-24.3 16.4-36.5 24.4-.8.6-1.7-.6-1-1.3 10.6-11.5 21.7-21.9 34.7-30.6 6.4-4.3 13.2-8.2 20.3-11.4 6.8-3.1 13.1-4.2 20.4-4.6 1.5-.1 2 2 .7 2.7-6.5 3.5-12.8 6.9-19.5 10.1-6.5 3.2-12.9 6.8-19.1 10.7zm50.3-26.2c-2.5-1.7-6.1-.5-7.9 1.7-.4.5-.4 1.2.2 1.5 2.5 1.4 6.1.6 7.9-1.6.4-.5.4-1.2-.2-1.6zm-4.3 38c-12.2 2.6-22.3 9.6-32.1 17.1-10.3 7.9-19.2 16.7-27.7 26.4-.6.7.2 1.9 1 1.3 9.7-6.9 19.1-14.3 28.7-21.4 10-7.5 21-13.7 31-21.2 1.1-.8.5-2.4-.9-2.2zm324.6-94.9c-9.2-6.1-18.2-11.2-28.7-14.8-10.4-3.6-21.3-6-32.1-8.2-10.8-2.2-21.8-3.8-32.8-4.6-5.7-.4-11.6-.5-17.3-.2-6 .3-11.5 1.7-17.4 2.7-1.2.2-.9 2.1.3 2.1 5.1-.2 10.4.6 15.5 1 6 .4 11.9 1.1 17.9 2 10.6 1.6 21 3.6 31.4 5.9 10.3 2.2 20.5 5 30.6 7.9 10.5 3 21.2 5.5 31.6 8.9 1.4.2 2.2-1.9 1-2.7zm-95.5-58.2c-.8.5-.6 1.5.2 1.9 6 2.4 13.4 1.7 19.7 2.3 6.8.6 12.9 1.9 19.7.3.9-.2 1.1-1.6.3-2-6.4-3.4-12.9-4.1-20-4.8-6.2-.6-14.4-1.5-19.9 2.3zm46.5 6.3c.8.3 1.7.5 2.6.2 1.3-.5 1.7-1.7 1.2-2.9-1-2.4-6.6-2.4-5.9.9.2 1.1 1.2 1.4 2.1 1.8zm-107.8-17.9c7.8-3.1 15.4-5.5 22.7-9.7 1-.6.5-2.1-.6-2.1-8.8-.1-16.7 2.1-24.8 5.6-6.6 2.8-17.8 7-20.2 14.6-.2.5.3 1.2.9 1.2 3.2-.3 6.3-2.1 9.1-3.6 4.2-2.2 8.5-4.2 12.9-6zm-247.3 18.3c18.5 5.5 37.4 8.7 55.4 15.9 16.4 6.5 32.4 15.1 48 23.4 1.2.6 2.7-.7 1.9-1.9-4.6-7.4-11.5-11.9-19-16-8.4-4.5-17.2-8.3-26-11.9-19.2-7.7-39.5-11.2-60.1-11.1-.9 0-1.1 1.3-.2 1.6zm5.9-177.9c6.5 4.7 13.6 8.6 20.2 13.2 6.8 4.8 13.7 9.5 20.4 14.4 6.4 4.7 12.6 9.3 18.6 14.5 3.1 2.7 6.1 5.5 9.2 8.2 3.1 2.8 6.8 5 10 7.6 1.3 1 3.1-.2 2.3-1.8-3.9-7.5-8.2-13.5-14.4-19.3-6.3-5.8-13.3-11-20.3-15.9-7.2-5-15.1-9-22.6-13.4-6.9-4-14.9-8.9-23-9.1-.9.1-1 1.2-.4 1.6zm87.1 67.7c.9-.4 1.1-1.6 1.1-2.5 0-1.1-.7-2.2-1.4-3-.8-1-2.7-2.2-4-1.1-1.3 1.1-.4 3.2.2 4.4.9 1.6 2.3 3.1 4.1 2.2zM604.8 51.5c-11.2 14-19.9 29.3-27.3 45.6-3.6 8-6.7 16.2-9.4 24.5-3 9.1-4.4 17.8-5.2 27.3-.1 1.3 1.7 1.4 2.1.3 2.8-8.2 5.9-16.3 8.5-24.6 2.7-8.3 5.8-16.4 9.2-24.4 6.9-16.3 15.6-31.8 23.7-47.4.6-1-.8-2.2-1.6-1.3zm4.3 51c4.7-7.5 7.7-15.9 12-23.6 2.3-4.1 5-8.1 7.4-12.1 2.5-4.1 4.4-8.1 6.6-12.3.6-1.1-.8-2.3-1.7-1.3-3.1 3.2-6.1 6.1-8.9 9.7-3.2 4.1-6 8.5-8.7 13-4.8 7.9-9.6 16.5-9.1 26 .1 1.2 1.7 1.7 2.4.6zM638 49.7c.2 0 .2 0 0 0 .4 0 .7 0 1-.1.5-.1.9-.2 1.3-.5.9-.6 1.9-1.5 2.1-2.6.2-.8 0-1.6-.6-2.1-.5-.5-1.4-.9-2.1-.6-1.1.5-1.9 1.2-2.4 2.3-.4.9-.5 1.9-.3 2.9.2.4.6.7 1 .7zm-19 94.9c-.5.9.5 1.9 1.4 1.4 7.1-4.3 13.4-9.9 20.1-14.9 6.7-5.1 13.8-9.7 21.1-13.8 15.4-8.8 32.3-13.1 48.7-19.3 1.2-.4 1-2.1-.3-2.2-17.9-1.2-35.3 6.5-50.7 15-7.6 4.2-14.8 9.1-21.7 14.5-7 5.5-13.9 11.7-18.6 19.3zm99.1-46c.6 0 1.3 0 1.9-.2.8-.2 1.2-.7 1.7-1.2.6-.5.6-1.8 0-2.3-.6-.5-.9-1-1.7-1.2-.9-.3-2-.1-2.9 0-1.4.2-3.7 1.7-2.5 3.4.9 1.4 2.1 1.4 3.5 1.5zm-30.3 43.3c-9.2 1.7-17.1 7.8-24.4 13.4-6.8 5.3-14.9 11.8-17.1 20.5-.2.7.6 1.3 1.2.9 7.2-4.5 13.3-10.9 20.1-15.9 7.2-5.3 15.8-9.4 21.5-16.6.9-1.1.1-2.5-1.3-2.3zm-73.5 293.3c6.4-1.6 13.7-2.2 20.4-2.8 7-.6 14.1-.4 21.1.3 13.5 1.3 26.5 5.1 40 6.2 1.2.1 1.4-1.5.6-2.1-11.7-8.4-26.5-10.8-40.6-11.7-7.3-.5-14.7-.3-22 .8-3.8.6-7.5 1.4-11.1 2.5-3.4 1.1-6.1 3.1-9.2 4.8-1 .7-.3 2.3.8 2zm92.1 4.3c-.6-.3-1.1-.6-1.8-.8-.9-.2-1.5-.1-2.3.2-.8.4-1.1 1.4-.9 2.2.4 1.5 1.8 2.2 3.1 2.8 1 .4 2.2-.3 2.7-1.1.7-1.1.3-2.6-.8-3.3zM651.3 467c.9-.3 1.1-1.5.3-2-5.4-3.6-12.1-3.4-18.3-2.9-6.4.5-14.3.9-19.7 4.7-.7.5-.6 1.5.2 1.8 5.7 2 12.1.7 18 .4 6.5-.4 13.3.2 19.5-2zm34.6 61.4c-5.4 3.6-10.5 7.1-15.4 11.4-5.4 4.8-11.1 9.4-16.8 13.9-10.4 8.1-21.2 15.8-31.4 24-.6.5-.1 1.6.6 1.5 6-.4 11.1-3.1 16.1-6.3 6.2-3.9 12-8.2 17.8-12.5 5.6-4.2 11.1-8.8 16.4-13.4 5.8-5.1 10.2-10.3 14.4-16.8.8-1-.6-2.5-1.7-1.8zm10-11.3c-.3 0-.6.1-.9.2-1.6.3-2.7 1.3-3.8 2.6-.7.8-1.3 1.5-1.7 2.6-.2.6-.1 1.3-.3 1.9-.2.6.4 1.2.9 1.2.1 0 .5.2.7.2.7.1 1.2 0 1.9-.1 1.2-.2 2.1-1.1 3-1.9 1.6-1.5 2.5-3.7 1.6-5.9-.2-.6-.7-.9-1.4-.8zm-178.9 13c-9.1-5.7-18.9-9.7-29.1-12.8-1.1-.3-1.6 1.1-.7 1.7 7.9 5.4 16.3 10 24.3 15.2 8.3 5.3 15.6 12.4 24.3 16.9.8.4 2-.3 1.6-1.3-3.4-9.1-12.5-14.7-20.4-19.7zm163.1 45.6c-3.5 2.5-7.1 4.9-10.5 7.6-3.7 3-7.7 5.5-10.5 9.6-.7 1 .4 2 1.4 1.8 9.1-1.5 17.1-9.8 20.8-17.9.2-.6-.5-1.6-1.2-1.1zm-68.4-234.2c-2.7-.7-4.9.3-7.3 1.2-2.9 1.1-6.2 1.6-8.8 3.4-1.4 1-1.3 3.1.5 3.6 5.1 1.6 15.9-.5 16.6-7 0-.5-.5-1.1-1-1.2z" style="fill:#fdce1a"/><path class="st7" d="M454.7 580.7c-15.6 1.5-31.1 3.6-46.3 7.6-15.9 4.2-19.9 10.5-5.8 14.9 22.6 7.2 47.6 8.1 71.1 9.8 5.1.4 10.3.7 15.4 1-8.6-9.2-17-18.6-24.7-28.5-2.8-3.5-5-5.2-9.7-4.8zM660.6 613.4c17.6-1.4 35.1-3.5 52.4-6.4 6-1 37.8-6.3 22.9-14.2-10.1-5.4-22.6-7.5-34.3-9.2-5.2-.7-9.4.9-12.4 4.1-9.1 9.3-18.8 17.9-28.6 25.7z"/><path d="M739.6 650.6c1.1-2 1.9-4.2 2.5-6.6-60 28.5-247.8 21.3-306.6 14.1-15.7-1.9-30.9-4.7-41.8-17.2-1.5-1.7-2.8-3.4-4-5.2.6 5.9 1.8 11.5 4.1 16.4 6.9 15.2 30.7 16.2 44.6 17.6 67.1 7.1 203 9.9 271-2.7 11.4-2.1 24.3-5.5 30.2-16.4z" style="fill:#98b718"/><path d="M671.1 679.4c-61.3 5.4-172.3 6.9-239.2-2.7-.2 6.3-.3 12.5-.3 18.8 10.4 1.4 20.9 2.5 31.4 3.5 22.3 2.2 44.8 3.2 67.2 3.7 45.1 1 90.3-.9 135.1-5.7 11.5-1.2 23-2.7 34.5-4.7.4-.1.8-.1 1.1-.2-.1-5.3-.3-10.5-.6-15.7-9.8 1.4-19.6 2.1-29.2 3z" style="fill:#acd0e0"/><path d="M477.5 765.5c-10.8-1.4-21.7-3.6-32-7.4-5-1.8-9.8-4.1-14.1-7.2.4 7.6 2.9 13.3 13.5 17 36.2 12.8 79.8 10.9 117.5 10.5 40.1-.4 82.2-1.7 121.2-11.7 15.6-4 17.1-6.9 17.2-20.9-46.4 23.1-177.3 25.7-223.3 19.7z" style="fill:#ecfffe"/><path d="M743.5 618.7c-.3-4.3-.7-8.5-1.1-12.5l-.1.1c-19.2 11.9-49.5 11.6-71.2 13.5-40.8 3.6-81.8 4.5-122.7 4.1-38.1-.4-76.4-2.3-114.2-6.9-10.3-1.3-32.5-2.1-44.3-9.8-.1 2.4-.3 4.8-.4 7.3 5.8 3.4 12 6 17.7 8.2 12.1 4.4 24.6 7.3 37.1 9 27.9 3.8 56.3 3.3 84.3 3.7 30.8.4 61.5.3 92.3-.7 30.2-1.1 74.1-3.8 122.6-16z" style="fill:#cfff73"/><path class="st12" d="M371 513.3c2.6 1.6 5.7 2.9 9.3 4 42.8 12.8 92.4-24.5 118.5-54.1.6-.6 1.2-1.3 1.8-2.1-75.3 48-114 50.5-120.6 29.6-3.8 4.4-7.5 8.9-11.2 13.4-2.7 3-1.4 7.1 2.2 9.2zM456.5 519.9c-2-2.8-3.9-5.7-5.9-8.6-4.1 2-8.3 3.8-12.5 5.4 8.1 37 31.8 65.8 57.1 92.7 3.5 3.8 7.7 5.4 14.3 5.7 6.7.3 13.5.5 20.2.7-58.1-33.7-81.1-62.9-73.2-95.9zM576.8 456c-3.7 5.9-1.7 6.4 2.9 5.4 11.6-2.5 23-5.7 34.8-7.3 2.4-.3 4.7-.6 7.1-.8-.2-.1-.4-.1-.7-.2-1.2-.2-2.5-.2-3.7-.4-2.4-.3-4.8-.8-7.1-1.5-4.5-1.3-9.3-3.3-12.2-7.2-2-2.7-2.6-5.8-2-8.9-7.5 5.9-14 12.9-19.1 20.9zM621.3 290.6c-20.9 10.9-31.7 10.1-30.7-1.7-1.4 1.3-2.8 2.7-4.1 4.1-4.3 4.7-5.8 7.8-6 14-.1 2.8-.1 5.6 0 8.5 11.1-3.6 23.6-6.1 35.1-5.6 3.1-13.1 17.7-22.5 29.3-28.6 2.8-1.3 5.7-2.6 8.6-3.7-9.3-.9-19.5 6.3-32.2 13zM576.4 616.4c9.8 0 19.7-.1 29.6-.3 18.3-9.4 34.4-24.3 49.2-39.3-62.7 40.8-65.3 8.5-65-1.8 0-1.8.2-3.6.5-5.5-8 12-14.7 25.1-19.8 39-2.4 6.4.3 7.9 5.5 7.9zM371 277.1c9.3-1.3 19.6-.3 28.1.3 13.5 1 26.9 3.8 40 7.5-7.1-2.8-14.5-4.8-21.8-7.2-5.1-1.7-11.3-3.4-15.5-6.9-1.8-1.5-3.1-4.1-2.2-6.4-1.9.3-3.9.5-5.8.9-8.5 1.6-17.6 3.6-24.8 8.6-5 3.6-.2 3.5 2 3.2zM577.7 229.1c1.9-4 4.1-7.9 7-11.5-2.7-6.1-3.4-13.5-3.2-21.7.2-2.3.5-4.5.8-6.7-1.2-12.7-2-25.1 0-38 0-.2.1-.4.1-.5-.3 1.4-.6 2.8-.9 4.3-1.8 7.9-4.8 16.6-11.8 21.3-3.8 2.6-9.1 3.5-13.8 2.4.8 18.7 5.4 36.6 15.7 51.1 2.6 3.8 4.1 3.5 6.1-.7zM547.3 575c-7 12.4-21.9 10.1-36.8.3 6.6 6 13.4 11.7 20.6 16.9 4.7 3.4 9.8 6.4 15.3 8.5.4-8.6.7-17.2.9-25.7zM818.6 351.8c-38 20.3-82.4 12.9-100.5 9.6-38.9-7.1-86.4-25-79.2-51.6-3.2.8-6.4 1.8-9.6 2.7-5 1.5-7.2 5.4-4.4 11.5 2 4.5 5.1 8.7 7.4 12.1 13.3 19.2 33.6 31.4 55.3 38.8 34.7 11.9 80.4 15.6 113-3.5 8.9-5.2 14.3-11 16.9-17 .5-.9.9-1.8 1.1-2.6zM479.4 501.6c-2.2-1-4.5-1.9-6.8-2.8-5.9 4-12.1 7.7-18.5 10.9 10.8 16.1 22.7 31.2 35.9 45.3-5.9-7.2-10.5-15.2-14.2-23.7-1.9-4.5-9-19.5 3.6-29.7zM366.7 500.6c8.3-9.8 16.3-19.7 25.8-28.6 5.5-5.1 11.2-10.1 17-14.8-44.1 25.6-46.6 19.2-47 6.5-5.1 12.1-7.4 25.3-3.3 35.9 2.3 6 4.1 4.9 7.5 1zM371.9 95.9c-7.9 15.2 3.1 36.3 11.3 48.9 20.6 31.3 56.6 56.4 91.3 69.4 10.8 4 27 8.1 37.9 2 2.8-1.6 3.6-4.7 2.1-8.2-.3-.7-.7-1.5-1-2.2-19.9 1.9-42.1-6.7-49.7-9.4-15.7-5.7-30.4-14.2-43.1-25-24.4-20.8-50.6-50.4-45.5-78.7-1.2.6-2.5 1.7-3.3 3.2zM597.7 115.4c-.2-3.3.3-6.9 1.1-10.2-5.3 14.2-9.5 28.9-12.3 43.8-1.7 9-1.9 17.8-1.5 26.6 6.3-23.9 19.7-44.4 37.4-60.8-4.6 1.7-9.3 3.4-14.1 4.7-3.9 1.1-10.2 1.6-10.6-4.1zM621 163.2c-4.1-.4-7.9-2-9.9-5.8-1.8-3.5-2.4-7.5-2.3-11.4 0-1.7.2-3.4.6-5.1-11.2 16.2-18.5 35-20.2 55.2-.2 6.6.6 11.7 2.2 15.8 1.5 3.9 3.6 3.2 5.8 0 4.2-6.1 8-12.5 12.2-18.7 4.9-7.3 11.2-13.7 17.4-19.9 5.7-5.8 11.7-11.2 18-16.4-.4.2-.9.4-1.3.6-6.9 3.1-14.8 6.5-22.5 5.7zM383.7 84.5c-4.8 2.7-1.5 3.9.7 4.6 11.8 3.7 23.5 11.4 33.5 17.2 2.8 1.6 5.6 3.3 8.3 5.1-6.9-5.5-15.7-12.8-21.6-19.1-5.3-5.7-5.6-10.4-5.4-12.4-5.4.5-10.6 1.9-15.5 4.6zM359.5 290.5c.5 12.6 12.3 28 18.7 35.8 18.5 22 47 29.4 74.6 30 16.6.4 35.4-.9 50.8-7.4 4.9-2.1 8.9-4.7 11.9-7.6-25.7 9.9-60.4 11.3-88.8 3.8-15.2-4-28.9-13.2-39.6-24.7-4.9-5.2-18.7-19.2-20.6-38.4-4.5 1-7.2 3.1-7 8.5zM688.6 482c-11.8 2-23.5 6.1-34.6 10.6-20.5 8.2-38.9-1.7-50.4-12.5-3.1-2.9-6.2-5.8-8.1-9.6-1.2-2.4-1.8-4.5-1.7-7.1 0-.5 0-.9.1-1.3-5.2 1.2-10.5 2.5-15.7 3.5-4.3.9-6.4 2.7-5.6 8.2 3.2 23 41.4 38.2 59.8 42 .3.1.5.2.7.3 20.3-14 43.6-24.2 69.1-29.7 7.9-1.7 17.8-4.2 25.9-2-1.6-.9-3.3-1.8-4.5-2.1-11.6-2.7-23.5-2.2-35-.3zM700.2 183.2c-14.6 7.7-29.6 15.8-45.8 19.7-7.7 1.9-16.1 3.1-24 2.3-4.8-.5-10-2.3-12.5-6.8-2-3.7-1.9-4.4.2-9.8-6.1 8-11.3 16.5-17.2 24.7-2.9 4.1-2.8 7.8 1.1 9.6 6.3 2.8 14.6 3.5 24.5 3.5 24.8.1 47.9-8.1 69.2-20.2 28.3-16 66.3-46 73.8-80.9-32.3 35.9-54.9 50.2-69.3 57.9zM656.2 607.3c3.1-2.5 6.2-5.1 9.2-7.7-23.7 11-30 6.8-27.6-1-7.5 6.5-15.3 12.5-23.6 17.4 8.3-.2 16.7-.6 25-1.1 6-.4 12.2-3.7 17-7.6zM582.1 366.6c.3 9.2.6 18.5.9 27.7.1 0 .2-.1.3-.1 20.9-2.2 40-25.7 52.7-41.4-5.2-5.4-9.9-11.4-13.6-17.8-.2 0-.4-.1-.6-.1.3 17.3-23.7 41.5-39.7 31.7zM667.7 280.7c-6.5 1.9-12.9 4.3-19 7.2-8.3 4.4-17.2 9-22.4 16.9-2.6 4-.6 4.9 3.3 3.8 5.3-1.5 10.6-3.1 16-4.1 8.5-1.6 17.5-1.8 26.2-1.9 17.6-.3 35.2 1.9 52.4 5.3.1 0 .2 0 .3.1-16.9-7.5-35.3-10-42.5-11.4-7.9-1.6-22.6-8.2-14.3-15.9z"/><path class="st13" d="M618.2 327c-.5-1-.9-2-1.3-3.1-.9-2.2-1.4-4.3-1.6-6.4-3.8-.1-7.7.2-11.5.8-.1.1-.1.2-.2.2-2 2.1-3.9 4.3-5.9 6.3-2 2.1-4.1 4.1-6.3 6.1-1.1 1-2.2 2-3.2 3.1 9.9-3.5 19.7-7.3 30-7zM566.9 340.7v1.4c.1 1.1.5 2.2.9 3.3 0 0 .1.3.2.5v.3c0 .3.1.5.1.8.2.7.5 1.3.8 1.9.9 2 2.1 3.7 3.5 5.4.5.6 1.1 1.2 1.7 1.8l-.3-10.7c-3-.4-5.4-2.4-7-7.3v1.4c.1.4.1.4.1 1.2zM576.8 520.4c.9 1.4 2 2.8 3 4.1-.3-8.6-.6-17.3-.9-25.9-7-7-11.9-15.5-12.9-25.7-.4 7.9.5 16 1.9 23.8 1.5 8.3 4.1 16.6 8.9 23.7zM522.1 218.4c5.5 9.1 11.3 18 16.9 27.1-.7-3.8-1.2-7.5-1.6-11.3-4.2-6.6-8.1-13.4-12.3-19.8-.9 1.4-1.9 2.7-3 4zM534.5 348.7v-.5c-3-3.2-6-6.3-9-9.2-.9 1.4-1.9 2.7-3 4 4.1 5.5 8.1 11.1 11.9 16.7.2-3.7-.1-7.3.1-11zM587.3 243.6c2.2-4.8 4.7-9.6 7.5-14.6-2.2-1.3-4.1-2.8-5.7-4.5-1.9 3.1-3.9 7.7-6.2 12.6l1.2 2.1c.9 1.6 2 3 3.2 4.4zM553.5 616.3c.6 0 5 0 6.6.1 4.6-14.8 10.6-28.8 18.3-41.5-5.5 4.7-10.4 9.8-14.8 15.5-3.7 4.9-7 10-9.8 15.4 0 3.5-.1 7-.3 10.5zM520 445.8c-.8 1.6-1.6 3.2-2.5 4.8 6.2 2.6 12.2 6.5 17.7 11-.8-3.8-1.2-7.6-1.3-11.5-4.5-1.8-9.2-3.3-13.9-4.3z"/><path class="st1" d="M528.5 663.8c63.1-.5 125.9 0 188.6-7.1.2 0 .2.3 0 .4-26.5 7-54.2 8.7-81.5 10-35.8 1.7-71.5 1.1-107.2-2.2-.6-.1-.6-1.1.1-1.1zm-21.5-.4c-.5.2-.5.9 0 1 4.4 1.4 9.6 2 14.2 1 .2 0 .2-.3.1-.4-4.3-2.3-9.8-2.9-14.3-1.6zm4 107.3c.2 0 .2-.3 0-.4-21.8-3.8-43.1-8.3-64.7-12.9-.5-.1-.8.6-.3.8 19.3 9.6 43.2 15.7 65 12.5z"/></svg>