<svg version="1.1" id="e37c00f5-ff96-45aa-87ea-1a24b78ba7bd" xmlns="http://www.w3.org/2000/svg" x="0" y="0" viewBox="0 0 1176.6 803.7" style="enable-background:new 0 0 1176.6 803.7" xml:space="preserve"><style>.st0{fill:#68182b}.st1{fill:#ffa3bc}.st3{fill:#d1ffff}.st8{fill:#ff564d}.st9{fill:#f07493}.st10{fill:#ffe4df}</style><path class="st0" d="M745 116.1c1.9-2 3.7-4.2 4.9-6.6.3-.5-.2-1-.8-.8-2.8 1.3-5.4 3.1-7.7 5.1-13.7-7.8-30.8-10.5-49.8-5.7-3.9 1-7.4 2.4-10.8 4-5-18.9-12.9-37.6-25.4-52.5 1.2-1.1 1.9-2.8 2.2-4.3.1-.4-.4-.8-.8-.4-1 .9-2.1 1.7-3.1 2.7-4.9-5.5-10.4-10.4-16.8-14.5-20.3-13.1-48.8-6.3-63.9 11.4-6 7-9.4 15.7-11.5 25l-1.8-.9c-1.6-.9-2.7-2-4-3.2-.3-.3-.8-.1-.8.3.2 3.2 2.8 6.5 5.8 7.8-2 11.2-2.1 23-2.3 33.4-.3 13.5-.1 27-2.2 40.4-1.7 10.8-5.1 21.5-9.2 31.9-18.4-12.4-26.7-31-30.8-51.5 2.2-2 4.1-4.4 5.9-6.8.3-.4-.3-.8-.6-.6-2.1 1.1-4 2.6-5.9 4.1-3.5-20.2-3.4-41.9-5.1-61.2-1.3-15.2-5.9-31.9-16-42.9 1.7-1.1 2.9-3.2 3.4-5.1.1-.5-.5-1-.9-.7-1.5 1.2-3 2.6-4.1 4.2-6-5.9-13.7-9.9-23.6-10.7-26.9-2.2-47.3 16.5-56 40.7-4.2 11.7-6 24.7-6 38-1-1-2.4-1.8-3.7-2.3-.7-.3-1.4.3-1.1 1.1 1 2 2.7 3.8 4.8 4.3.9 34.9 14.5 71.9 33.6 96.9.2.2.4.4.5.6-2.9 2.3-5.8 4.9-8.5 7.8l-.6.6c-9.9 12.5-15.7 27.2-18.5 42.8-.4-.2-.9-.3-1.3-.5-1.6-.7-3.1-1.6-4.7-2.3-.4-.2-1 .2-.7.7 1.5 2.1 3.7 3.9 6.2 5.2-4.8 32.2 3.2 68 17.2 97.6-2 1.6-3.9 3.5-5.3 5.5-.2.3.1.7.5.6 2.1-.7 4.4-1.7 6.3-3.1 4.1 8.2 8.6 15.9 13.4 22.9 13.1 18.9 31.2 34.8 52.2 44.2 0 .3-.1.6-.1 1 1.6 11.5 3.6 22.9 5.7 34.3-2-.3-4.2-.4-6.1-.8-.5-.1-1 .6-.5.9 2 1.5 4.6 2.6 7.2 3 1.3 6.7 2.5 13.4 3.9 20.1-26.2 5.1-56 12.5-71.7 35.9-8.8 13.1-7.2 34.1-5.6 48.8 1.9 16.8 15.7 28.8 30.3 35.7 3.9 32.3 7.7 64.7 11.4 97 2.1 17.8.9 39.7 10.8 55.5 18.4 29.5 64.8 34.9 96 35.5 32.7.6 75.8-5.4 97.7-32.6 10.8-13.4 9.9-32.9 11.7-49.1 4.1-35.6 8.2-71.1 12.5-106.7 16.3-8.9 27.4-22.2 27.6-41.9.2-17.8 1.4-33.1-10-47.7-19.6-25.1-60.7-30-90-33.9-1-5.9-2-11.7-3-17.6-.6-3.5-1.1-6.9-1.5-10.4 2.3-1.6 4.4-3.2 6.3-5.4.3-.4-.1-.9-.5-.6-2.1 1-4.1 1.8-6.1 2.8-.9-7.3-1.5-14.5-1.9-21.7 26.6 2.6 56.9-9.3 73.2-30.7 2 .2 4 .1 6.1-.2.5-.1.5-.9 0-1-1.5-.3-3-.7-4.5-1.2 6.7-9.7 10.6-21.2 10.1-34.1-.5-11.9-6.9-26.9-19.3-30.6-11.5-3.4-21.9-.3-32.1 4.7v-.4c.2-1.8.6-3.6 1-5.4.1-.5-.5-.7-.8-.3-1.5 2-3.2 4.9-3.3 7.7-8.2 4.3-16.2 9.5-24.3 13.1 3-13.6 7.1-27 12.2-40.3 7.8.3 15.9-1.1 23.4-3.2 1.1 1 2.5 1.7 4.1 2 .3.1.6-.3.3-.5-.7-.7-1.5-1.4-2.2-2 1-.3 2-.6 3-1 30.8-11.8 58.7-28.6 78.1-52.5 2.7 1.1 5.7 1.7 8.5.8.4-.1.5-.7.1-.9-1.9-1.3-4.3-1.8-6.5-2.6 11.8-15.3 20.1-33.4 23.6-54.9 5.4-30.5-6.3-57.6-27.4-71.8z"/><path class="st1" d="M538 532.7c-9-35.4-14.9-70.7-15.3-107.3-5.8-.4-11.6-1.5-17-3.2 3.9 26.8 9.4 53.3 14.9 79.8 3.4 16.1 4 25.6 17.4 30.7zM619.4 464.4c-3-18.3-6-36.9-6.3-55.5-.2-20 1.7-39.9 5.6-59.3-.1-.9.1-1.8.6-2.6 3.2-15.5 7.7-30.6 13.4-45.5-4.1-.8-8-2.2-11.6-4.3-17.9 36.8-19.9 81.1-18.1 121.1 1.7 38 6.9 76.9 19.2 113.1.6-.4 1.3-.7 1.9-1 9.4-5.9 3.5-18.5 1.9-27.6-2.3-12.8-4.6-25.6-6.6-38.4z"/><path class="st1" d="M626.3 351.6c-1 5.2-1.8 10.4-2.5 15.6 15.4-1.6 30.3-7.3 42.1-17.4 5.7-4.9 13.1-11.7 16.3-19.4-16.4-2.5-39.9 14.9-55.9 21.2zM677 377.3c-16.2 11.8-35.2 19.3-55.5 19.1-.2 5.7-.1 11.5 0 17.2 33.1 4.3 84.2-22.5 77.7-61.2-4 10.3-13.2 18.3-22.2 24.9z"/><path class="st1" d="M685.8 331.3c-3.3 8.4-10.7 15.9-17.2 21.1-13.2 10.7-28.4 17-45.2 18.6-.8 7.2-1.4 14.4-1.7 21.6 17.7.1 35.1-5.8 49.6-15.9 11-7.7 24-17.8 26.2-31.6-2.7-7.7-6.8-11.9-11.7-13.8zM750 128.3c-5-4.4-11.1-8.1-17.6-10.8 2.1 23.9-4.2 48.1-12.1 70.5-7.6 21.5-18.6 41.4-34.4 58.1-11.4 12.1-21.1 25.8-33.7 36.7-5 4.3-11.1 9.2-17.7 11.3 10.7 1.7 23.5-.8 32.4-3.8 1.2-.5 2.5-1 3.7-1.5.2-.2.3-.4.6-.5 28.1-14.7 54-41.6 66.8-70.7 11.7-26.7 18.9-59 13.2-88.1-.3-.3-.7-.8-1.2-1.2zM538.8 236.4c.4 5.7.2 11.5-.3 17.3.1 0 .2-.1.3-.1 1.6-.6 3.1-1.3 4.6-1.9.3-.1.7.3.5.6-1.2 1.6-3 2.9-4.7 3.8-.3.1-.6.3-1 .4-2.8 28.6-11.3 57.9 5.1 83.4.6 1 1.3 2 2 3-4.2-45.6 7.2-91.5 21.5-134.5 9-27.1 21-53.8 25.3-82.3 3.6-23.6 5.7-52.3-3.3-75.2-13 9-20.2 25.6-21.7 43.7-1.7 19.9-.4 39.9-2.8 59.7-2.8 23.5-13.6 46.3-23.5 67.9-2.3 5.2-2.4 7.8-2 14.2z"/><path class="st1" d="M512.5 202.2c3.7 10 3.7 21.1 2.1 31.8-3.7 23.4-10 46.8-6.9 70.7 3.3 25.2 15.2 44 32 62.5 7.1 7.8 18.2 16.9 22.7 27.5 3.2-27.1-30.9-46.8-35.3-73-3.3-19.7 1.2-38.9 3.2-58.5 2.4-22.5 1.2-46.6-17.8-61z"/><path class="st1" d="M489.9 191.9c-11.8 14.2-16.2 34.1-18.8 51.9-3.3 22.8-4.5 46.3.5 68.9 4.9 22.5 14.5 44.5 27.4 63.7 9.8 14.6 25.5 36.7 44.5 40 7.7-2.1 13.9-6.4 17.1-14.2-1.2-10.2-10.7-18.2-17.4-25.6-6.1-6.7-12.2-13.4-17.9-20.5-11.3-14-17.9-29.7-20.8-47.5-3.1-19-.5-38.7 3.1-57.4 3.2-17.1 8.2-37-.7-52.9-5.7-3-11.4-5.2-17-6.4zM543.9 534.5c3.8.9 8 1.7 12.4 2.5 5.6-38.2 1.4-78.6-6.1-116.3-7.2 3.6-15.4 5-23.8 4.9.4 37 6.5 72.7 15.8 108.5.6.1 1.1.3 1.7.4z"/><path class="st1" d="M478.4 190.9c-37.9 16.5-42.3 68.1-38.2 104.7 4.3 38.1 20.1 81.3 47.1 109.6 1.8 1.1 3.7 2.2 5.6 3.2 9.9 5.2 27.3 10.3 42.2 9.3-13.9-6-25.4-20-33.7-31.4-14.9-20.4-27.2-44.4-32.6-69.2-5.3-24.6-5.1-49.6-1.2-74.4 2.8-17.8 7-37 18.2-51.6-2.6-.2-5-.3-7.4-.2zM592.1 49.1c8 20 7.2 43.3 5.3 64.3-2.5 28-12.2 54.1-21.6 80.4-17.5 49.4-32.9 102.7-26.1 155.6 13.4 18.7 29.6 39.4 13.2 60.8-2.7 3.5-5.8 6.3-9.3 8.5 7.8 38.5 12 79.7 6.4 118.8 8 1.2 16.7 1.9 25.3 1.8-.8-6.1-1.6-12.1-2.3-18.2-4.3-36.9-4.2-73.2-3.8-110.2.5-46.7-6-94 .2-140.4 3.2-24 8.6-47.8 17.1-70.6 4.8-13 11.1-25.3 16.3-38.1 15.3-37.8 14.1-77.4 7.5-117.1-11.2-1.7-20.6.2-28.2 4.4zM462.3 25.5c-20 19.4-23.2 51.1-20.2 77.5 3.2 28.8 13.1 57.2 30.7 80.5 9.7-1.2 19.9.1 30.2 4.3 13.9 5.6 25.4 16.9 31.4 30.5 1.8-3.9 3.6-7.8 5.4-11.8-30.4-19.8-51-48.9-61-83.7-8.8-30.5-12.6-64.6-.6-94.7-5.2-2.1-10.6-2.9-15.9-2.6z"/><path class="st1" d="M507.4 128.7c-3.7-27 3.8-71.8-17.3-92.5-2.7-2.6-5.5-4.7-8.5-6.3-12 29.8-7.8 64.9 1.7 94.8 10.3 32.6 29.3 59.5 58 78.4 1-2.3 2-4.5 2.9-6.8-24-15.4-33-40-36.8-67.6zM756 134.8c3.8 28.2-2.9 59.5-14.6 84.7-10.3 22.2-27 42.9-46.9 58.3 31-16.4 58.2-40.2 67.6-75.6 5.5-20.8 7.8-48.8-6.1-67.4zM447.6 192.6s0 .1 0 0c6.6-4.1 13.6-7 20.9-8.4-17.7-24.3-28.3-54.2-30.6-84.1-1.9-25.2 1-54.1 18.2-73.7-16.1 3.6-30.7 16.9-35.5 34.1-12.2 43.8-.4 96.4 27 132.1zM624.3 45.6c.9 5.4 1.8 10.9 2.4 16.4 4.3 35.9 2.7 70.8-11.7 104.3-6 14.1-12.7 27.8-17.6 42.4-8.4 25.4-14 51.8-15.9 78.5-3.1 44.4 2.2 89.3 1.3 133.8-.8 39.8 1 78.7 6.3 118.2 10.7-.4 21.1-2.2 29.6-6.1-13.2-38.3-18.7-80-19.8-120.3-1-39.3 1.4-81.9 19-117.9-2-1.5-3.8-3.3-5.5-5.3-13.9-16.9 2.1-35.6 9.6-50.5 1.5-3 2.8-6.2 4.1-9.6-1.8-1.3-2.6-4.2-2.9-6.2-.1-.4.3-.6.6-.4 1.3 1 2.4 2.3 3.3 3.7 6-17.4 9.8-38.9 15.8-58.9-1.9-1.5-2.3-4.8-2.2-7 0-.5.6-.5.8-.1.6 1.4 1.5 2.6 2.4 3.9 3-9.6 6.6-18.8 11.2-26.9 1.1-11.5-1.4-23.6-3.1-34.7-2.4-16.3-3.5-33-10.4-48.2-5.1-4.2-10.9-7.5-17.3-9.1z"/><path class="st1" d="M686.2 118.3c-37.7 20.4-38.3 71.7-50.6 107.6-5.1 14.8-22.1 32.5-20.8 48 .2 2.6.8 4.8 1.6 6.9 2.9-11.7 12.7-21.3 20.3-30.7 15.8-19.6 25.3-44.5 33.7-67.9 5.9-16.6 11.4-32.5 21.3-47.2 5.2-7.8 11.7-16.9 20.1-22.1-8.9-.5-17.7 1.2-25.6 5.4zM474.9 396.1c-10.4-14-18.3-30-24.4-46.2-7.2-18.8-12.8-38.3-14.4-58.5-2.8-34.4 1.8-79.1 32-99.1-10.9 2.6-21.2 8.9-30.1 18.5-33 42-16.8 115.7 11.4 156.3 7.1 10.5 15.6 20.6 25.5 29zM656 104.4c1.3 8.6 3 17.9 3.1 26.9 4.1-5.9 9-11.1 14.9-15.2-4.4-17.2-12.5-39.7-25.9-54.9 4.6 13.9 5.7 28.6 7.9 43.2z"/><path class="st1" d="M718.9 113.7c-13.1 4.7-22.5 20-28.8 31.2-8 14.2-12.6 29.4-18.4 44.7-7.4 19.6-15.5 40.1-27.8 57.2-8.5 11.8-23.9 24-24.6 39.4 1.7 2.1 3.8 3.8 6.2 5 13 2.9 27.7-13.9 35.2-22 9-9.8 17.9-19.9 26.5-30 13.9-16.3 24-34.8 30.6-55.2 7-21.8 13.4-44.8 10.8-67.8-3.2-1.2-6.4-2-9.7-2.5z"/><path d="M531.4 538.2c-13.1-5.5-13.8-14.1-16.6-27.2-.6-3-1.3-6.1-1.9-9.1-14.4 2.8-30.4 5.8-42.6 14.1-19 12.8-6 26 11.2 31.5 33.6 10.7 70.7 12.9 105.8 12.1 31.2-.7 75.2.2 102.3-17.5 34.9-22.8-35.8-38.7-56.4-42.3.1.3.1.7.2 1 1.2 7.2 6 18.7 3.4 26.1-2.8 8.1-11.1 12.1-18.9 14.3-26.7 7.4-60.8 7.9-86.5-3z" style="fill:#ff915b"/><path class="st3" d="M488.4 744.6c17.5 28 60.9 33.8 90.8 33.8 29.2 0 78.5-4 94.5-33.8 9.2-17.1 7.7-43 9.9-61.9 3.1-27.1 6.3-54.2 9.6-81.2-33.4 14.4-81.9 14.5-106.8 14.7-38.6.3-80.7-1.4-117.3-15 3.3 27.7 6.6 55.3 9.8 83 1.8 17.5-.2 44.9 9.5 60.4z"/><path d="M558.4 669c14.2 6.6 33.9 6.1 47.4 5.7 18.9-.6 43.3-2.5 58.6-14.8 12.7-10.3 6-15.8-6.2-16.3-14.5-.6-28.8 4.8-43.8 7.3-12.3 2-24.9 2.9-37.3 3.3-5.9.2-12-.2-18 0-20 .7-8.8 11-.7 14.8zm-28.8-8.4c2 .8 4.4 1.2 6.5.7 8.3-1.9 9.2-8.1 2.4-11.7-2.3-1.2-4.6-1.6-7.2-1.8-9.1-.5-10.3 9.5-1.7 12.8z" style="fill:#ecfffe"/><path d="M711.1 510.9c-20.9-20.3-53.2-25.3-81.1-29 .6 3.3 1.2 6.7 1.7 10.1h.1c13.9 2.1 89.4 13.1 73.9 44-7.7 15.3-28.9 20.7-44.2 23.6-24.5 4.7-49.4 7.4-74.4 7.6-28 .3-56.4-1.2-83.9-6.5-15-2.9-37.4-6.5-47.3-20.1-21-28.7 37.1-42.4 55.4-46.1-.7-3.2-1.3-6.4-2-9.5-23.7 4.5-56.7 11.3-68 34.7-5.6 11.6-6 31.6-2.9 43.8 6.2 24.2 34.9 33.1 56.6 37.3 30 5.8 60.6 8.4 91.2 7.8 35-.7 134.8.7 134.8-53 .1-15.7 2.6-32.6-9.9-44.7z" style="fill:#91deff"/><path class="st3" d="M704.6 518.6c3.6 4.9 4.5 10.7 1.2 17.3-7.7 15.3-28.9 20.7-44.2 23.6-24.5 4.7-49.4 7.4-74.4 7.6-28 .3-56.4-1.2-83.9-6.5-14-2.7-34.4-6-45.1-17.4 4.8 11.2 12.5 13.6 21.1 17.2 21 8.9 44.5 12.2 67.2 14.1 22.4 1.9 45 1.1 67.4-1.2 11.4-1.1 22.7-2.7 34-4.4 10.8-1.6 21.8-3 32.3-5.9 11.4-3.1 22.3-8.9 28.6-19.2 4.2-7 4.8-19.1-4.2-25.2z"/><path d="M586.2 616.2c-38.6.3-80.7-1.4-117.3-15 .3 2.2.5 4.4.8 6.7 8.7 18.8 44.4 24.2 77.8 27.1 39.5 3.4 130.8-1.7 144.8-27.1.3-2.1.5-4.3.8-6.4-33.5 14.3-82 14.5-106.9 14.7z" style="fill:#65b3bc"/><path d="M484.8 737c1 2.8 2.1 5.3 3.6 7.6 17.5 28 60.9 33.8 90.8 33.8 29.2 0 78.5-4 94.5-33.8.3-.6.7-1.3 1-2-9.1 7.5-20.5 12.6-32.9 16.1-58.1 16.7-132 9-157-21.7z" style="fill:#a9f7ff"/><path class="st8" d="M633.1 499.7c.1.3.1.7.2 1 .4 2.5 1.3 5.5 2.1 8.6 17.1 3.7 53.9 14.8 60.3 27.7 18.5-20-43.5-33.9-62.6-37.3zM504.6 513.6c3.3-1 6.7-1.9 10.1-2.6-.6-3-1.3-6-1.9-9-14.4 2.8-30.4 5.8-42.6 14.1-9.8 6.6-11.1 13.4-7.7 19.1 8.2-11.6 25.3-16.6 42.1-21.6z"/><path class="st9" d="M619.4 464.4c-.7-4.2-1.4-8.4-2-12.6-.4 16.9-2 33.4-6.2 37.9 2.8 14.1 6.4 28.1 11 41.7.6-.4 1.3-.7 1.9-1 9.4-5.9 3.5-18.5 1.9-27.6-2.3-12.8-4.6-25.6-6.6-38.4zM538 532.7c-1.6-6.2-3.1-12.4-4.4-18.6-9-14.7-18.3-40.7-18.8-58.6-.6-20 4.5-27.7 6.8-30.2-5.5-.5-10.9-1.6-16-3.2 3.9 26.8 9.4 53.3 14.9 79.8 3.5 16.2 4.1 25.7 17.5 30.8zM517.3 335.9c5.6 11.2 13.3 21.3 22.4 31.3 7.1 7.8 18.2 16.9 22.7 27.5 1.9-16.3-9.7-30-20.2-44-10.8-.1-18.9-6.5-24.9-14.8zM487.3 405.2c1.8 1.1 3.7 2.2 5.6 3.2 9.9 5.2 27.3 10.3 42.2 9.3-13.9-6-25.4-20-33.7-31.4-1.3-1.8-2.6-3.6-3.8-5.4-20-.7-40.2-32.7-51.3-53.5 7.6 28.7 21.3 57.2 41 77.8zM566.4 490.7c.4-18.3-5.4-51.3-6.5-55.9-.4-15.7 8.9-23 8.6-34.8-1.1 3.4-2.9 6.9-5.5 10.3-2.7 3.5-5.8 6.3-9.3 8.5 7.8 38.5 12 79.7 6.4 118.8 8 1.2 16.7 1.9 25.3 1.8-.8-6.1-1.6-12.1-2.3-18.2-.6-5.6-1.2-11.2-1.6-16.8-7.2 4.6-15.3-1-15.1-13.7z"/><path class="st9" d="M483.3 348.2c4.4 9.9 9.7 19.4 15.7 28.3 9.8 14.6 25.5 36.7 44.5 40 7.7-2.1 13.9-6.4 17.1-14.2-1-8.6-7.8-15.6-13.9-21.9-18.3 10.3-45.6-13.3-63.4-32.2zM658.8 276.7c-2.1 2.1-4.2 4.1-6.5 6-5 4.3-11.1 9.2-17.7 11.3 10.7 1.7 23.5-.8 32.4-3.8 1.2-.5 2.5-1 3.7-1.5.1-.2.3-.4.6-.5 28.1-14.7 54-41.6 66.8-70.7 2.6-5.9 5-12.1 7-18.5-18.3 29.1-56.7 82.9-86.3 77.7zM585.6 507.3c.9 10.6 2.1 21.2 3.5 31.9 10.7-.4 21.1-2.2 29.6-6.1-13.2-38.3-18.7-80-19.8-120.3-.2-8-.3-16-.1-24.2-5.1 33.5-.1 86.9-.4 90.8-.8 15.9-5.3 21-12.8 27.9zM621.7 392.6c13.5.1 26.8-3.3 38.8-9.5-19.7 5.2-25.1-5.9-26.6-13.8-3.5.8-7 1.4-10.6 1.7-.7 7.2-1.3 14.4-1.6 21.6zM534.9 461.6c-2.2-22.1 11.7-36.8 15.5-40.3 0-.2-.1-.4-.1-.6-7.2 3.6-15.4 5-23.8 4.9.4 37 6.5 72.7 15.8 108.5.6.2 1.1.3 1.7.5 3.8.9 8 1.7 12.4 2.5.6-4 1-7.9 1.4-11.9-17-10.8-20.8-42.3-22.9-63.6zM447 129.6c5.1 19.4 13.6 37.9 25.7 53.9 9.7-1.2 19.9.1 30.2 4.3 13.9 5.6 25.4 16.9 31.4 30.5 1.8-3.9 3.6-7.8 5.4-11.8-13.5-8.8-25.1-19.5-34.7-31.7-21.7-1.8-43.8-26-58-45.2z"/><path class="st9" d="M764 193.7c-8.4 18.8-21.4 42-36.6 49.7-9.2 12.9-20.5 24.8-33 34.5 31-16.4 58.2-40.2 67.6-75.6.8-2.8 1.5-5.6 2-8.6zM447.6 192.6s0 .1 0 0c6.6-4.1 13.6-7 20.9-8.4-4-5.5-7.6-11.2-10.9-17.2-16-5.1-31.2-33.2-41.2-56 2.8 29.6 13.9 59 31.2 81.6zM490 142.5c11.1 24.6 28 45.3 51.2 60.6 1-2.3 2-4.5 2.9-6.8-8.7-5.6-15.4-12.4-20.6-20.1-9.7-2.2-22.8-18.2-33.5-33.7zM623.2 248.9c-4.9 8.4-9.1 17-8.4 25 .2 2.6.8 4.8 1.6 6.9 2.9-11.7 12.7-21.3 20.3-30.7 9.1-11.4 16.2-24.5 22.2-38.1-9 16.3-22.1 35.3-35.7 36.9zM623.8 367.2c7.2-.7 14.3-2.4 21-5-9.6-.7-14.8-6.5-17.4-11-.4.2-.8.3-1.1.5-.9 5.1-1.8 10.3-2.5 15.5zM642.7 393.8c-6.9 1.8-13.9 2.7-21.2 2.6-.2 5.7-.1 11.5 0 17.2 23.8 3.1 57.1-9.9 71.3-31.9-29.1 25.8-44.6 17.2-50.1 12.1zM628.9 264.9c-5.1 6.5-9.2 13.5-9.6 21.3 1.7 2.1 3.8 3.8 6.2 5 13 2.9 27.6-13.9 35.2-22 9-9.8 17.9-19.9 26.5-30 13.9-16.3 24-34.8 30.6-55.2l.6-1.8c-14.3 26.2-53.7 91.5-89.5 82.7zM474.9 396.1c-8.5-11.4-15.2-24.1-20.8-37.2-17.1-17.1-29.1-58-34.3-78.8 1.9 31.8 13.9 64.5 29.5 87 7.2 10.5 15.7 20.6 25.6 29z"/><path class="st10" d="M554.2 344.3c.2.5.8.5 1 0 .6-1.6.7-3.2.8-4.9 0-1.3-.2-3-1.3-3.7-.1-.1-.3-.1-.5.1-1 1-.8 2.4-.8 3.7-.1 1.5.2 3.2.8 4.8zM559.8 273.4c-3.1 9-4.4 18.4-5.4 27.8-1 10.3-1.3 20.6-.4 30.9 0 .5.7.5.7 0 .9-9.8 1.5-19.6 2.4-29.4.9-9.8 2.4-19.5 3.3-29.2.1-.4-.5-.5-.6-.1zM503.7 231.7c-4.4 19-6.5 58 1.8 82.3-.4-1.8-.7-3.5-1-5.4-3.1-19-.5-38.7 3.1-57.4 3.2-17.1 8.2-37-.7-52.9-5.6-3.2-11.3-5.3-16.9-6.5 3.7 3.4 18.7 18.2 13.7 39.9zM693.6 213.8c5.9-5.2 10.4-12.9 12.3-20.5.1-.4-.4-.6-.7-.3-4.7 6.2-8.3 13.6-12.1 20.4-.2.4.2.7.5.4zM470.5 324.4c-.7-2.4-1.3-4.8-1.8-7.2-5.3-24.6-5.1-49.6-1.2-74.4 2.8-17.8 7-37 18.2-51.6-2.3-.3-4.5-.4-6.7-.4-4.8 8.9-35.5 70.4-8.5 133.6zM707.6 190.3c1.8-.5 2.5-3.5 1-4.6-.6-.4-1.5.8-1.7 1.2-.5.9-.8 2.2-.1 3.1.1.2.5.4.8.3zM436 291.4c-2.8-34.4 1.8-79.1 32-99.1-6.2 1.5-12.3 4.2-17.9 8.1-9.2 12-29.1 47.1-11.2 111-1.4-6.7-2.4-13.3-2.9-20zM438 100.1c-1.9-25.2 1-54.1 18.2-73.7-3.3.7-6.6 1.9-9.7 3.4-7.8 12.3-21.5 43.4-5.2 93.1-1.6-7.5-2.8-15.2-3.3-22.8zM597.4 113.4c-2.5 28-12.2 54.1-21.6 80.4-5.3 14.9-10.4 30.2-14.7 45.7 4.4-11.4 9.6-25.5 16-37.8 21.5-42.1 27-81 29.8-107.3 2-18.3-4.3-37.9-8.3-48.1-2.3.8-4.5 1.7-6.5 2.9 8 19.9 7.2 43.2 5.3 64.2zM745.9 209c15.2-16.5 16.8-45.4 16-63.5-1.5-3.8-3.4-7.3-5.9-10.6 3.3 24.3-1.3 51-10.1 74.1z"/><path class="st10" d="M481.7 235.3c1.9-1.9 1.8-5 1.1-7.4-.1-.3-.6-.5-.8-.2-1.8 2-2.7 5.1-1.3 7.5.2.3.7.4 1 .1zM574.5 467.8c2.1-14.9 1-30.5-.6-45.3 0-.4-.6-.4-.7 0-1.6 14.9-1.7 30.5.5 45.3.1.5.8.5.8 0zM479.8 238.3c-5.4 16.9-6.7 35.1-4.9 52.7 1.5 15.2 3.7 31.8 10.9 45.4.3.5 1 .1.9-.4-2.8-15.5-7-30.6-8.5-46.3-.8-8-.9-16-.3-24.1.7-9.1 2.4-18.1 2.6-27.3 0-.3-.6-.4-.7 0zM526 310.4c-.5-15.8 2.7-31.4 4.3-47.2 2.3-22.6 1.1-46.7-17.8-61.1 1.3 3.4 2.1 7 2.6 10.7 4.1 5.7 10.4 16.6 11.2 30 .8 15.9-5.9 45.9-.3 67.6zM564.3 154.5c-2.8 23.5-13.6 46.3-23.5 67.9-2.3 5-2.4 7.7-2 14 .2 2.6.2 5.2.2 7.8 8.7-25.3 20.2-52.7 28.4-77.4 12.7-38.2 7.7-72 3.9-91.5-2.2 6.1-3.6 12.7-4.2 19.5-1.7 19.9-.4 39.9-2.8 59.7zM626.7 61.9c4.3 35.9 2.7 70.8-11.7 104.3-6 14.1-12.7 27.8-17.6 42.4-3.4 10.1-6.3 20.4-8.7 30.9 4.1-11.5 9.3-23 15.9-37.4 10.5-23 19-46.4 24.8-66.2 7.6-25.9 8.8-57.2 1.9-87.8-2.2-1.1-4.6-1.9-7-2.5.9 5.4 1.7 10.9 2.4 16.3zM656 104.4c1.3 8.6 3 17.9 3.1 26.9 1.7-2.4 3.5-4.7 5.5-6.9-4.9-12.3-8.4-43.5-10.8-55.9-1.8-2.6-3.6-5-5.6-7.3 4.5 13.9 5.6 28.6 7.8 43.2zM490 36.2c5.7 10.3 10.4 30.8 10 43.6.9 16.3 2 38 8.6 56.6-.5-2.5-.9-5.1-1.2-7.7-3.8-27 3.8-71.9-17.4-92.5zM720.4 188c-2 5.8-4.3 11.4-6.9 16.9 25.1-32 24.7-74.1 24.2-85-1.7-.9-3.4-1.7-5.2-2.4 2.1 23.9-4.3 48.2-12.1 70.5zM481.6 131.9c-1-3-2-6-2.9-9-8.8-30.5-12.6-64.6-.6-94.7-2.6-1.1-5.4-1.9-8.1-2.3-3.6 13.8-12.5 58.8 11.6 106zM459.1 136.3c.2.1.5 0 .6-.2.7-1.5.2-3-.5-4.4-.4-.8-1.4-2.9-2.6-2.3-1.1.6-.3 2.5.1 3.3.6 1.4 1.2 2.7 2.4 3.6zM677 377.3c-3.9 2.9-8 5.4-12.2 7.7 18-3 29.2-15.8 35.1-24.7.1-2.6-.1-5.2-.5-7.8-4.2 10.2-13.4 18.2-22.4 24.8zM644.3 342.7c8.1-1.9 20.5-5.7 34.7-12.6-10.3 0-23 6.4-34.7 12.6zM668.6 352.4c-5 4-10.2 7.4-15.7 10.2 18.8-.8 33.2-20.8 38-28.2-1.6-1.4-3.2-2.4-5.1-3.1-3.3 8.4-10.7 15.9-17.2 21.1zM690 144.9c-8 14.2-12.6 29.4-18.4 44.7-3.4 9.1-7 18.3-11.1 27.3 12.4-17.9 21.5-45 30.3-62.9 9.9-20.2 18.7-32.8 32.8-39.3-1.6-.4-3.2-.7-4.8-1-13 4.6-22.4 20-28.8 31.2zM455.9 126.6c-.5-5.7-2.1-11.2-3.2-16.8-1.3-6.5-2.2-12.9-4.3-19.2-.1-.4-.7-.3-.8.1-.1 6.3.6 12.3 1.8 18.5 1.1 6.1 2.3 12.3 5.6 17.7.3.3 1 .2.9-.3zM686.2 118.3c-26.9 14.6-34.9 45-41.8 74.3 30.3-75.1 55.3-77.4 66.3-79.7-8.5-.3-16.9 1.3-24.5 5.4z"/><path class="st0" d="M567.4 624.9c-13.1-.2-26.2-.5-39.2-1.6-11.8-1-23.4-3.5-35.1-4.9-6.1-.7-6.4 1.1-.4 2.8 11.5 3.3 23.9 4.6 35.6 5.8 13.1 1.3 26.1 1.5 39-.1 6.4-.7 6.5-1.9.1-2zM577.5 626.7c1.4.2 2.9.2 4.4.1 4.2-.3 4.3-2.7.2-2.8-1.4-.1-2.9 0-4.2.2-3.5.6-3.7 2.1-.4 2.5z"/></svg>