<svg version="1.1" id="e37c00f5-ff96-45aa-87ea-1a24b78ba7bd" xmlns="http://www.w3.org/2000/svg" x="0" y="0" viewBox="0 0 1176.6 803.7" style="enable-background:new 0 0 1176.6 803.7" xml:space="preserve"><style>.st1{fill:#00eef0}.st2{fill:#d1ffff}.st5{fill:#fdc435}.st9{fill:#fbf686}.st12{fill:#895725}.st13{fill:#68182b}</style><path d="M523.4 155.4v3.3c-.3-1.5-.7-2.9-1.1-4.4.3.4.7.7 1.1 1.1z" style="fill:#fff"/><path class="st1" d="M648.6 443.4c-.3 0-.6-.1-.8-.3-.2-.2-.3-.5-.3-.8l.3-16.2c0-.5.4-1 .9-1.1l.6-.1c13.5-2.5 27.5-5 37.5-15.1 11.9-12 11.3-33.9 10.9-49.9v-1.7c-.6-20.1-1.9-40.2-3.4-62.5-.2-2.3-.4-4.9-.7-7.7-1.4-13.8-3.2-30.9 4.7-41.3.1-.1.2-.2.4-.3 2.7-1.3 5.5-2 8.3-2 1.6 0 3.1.2 4.7.6.4.1.6.4.8.7 9.7 27.8 8.7 58.2 7.8 87.7-.4 12.4-.8 25.3-.3 37.5.7 17.9 1.5 40.2-11.2 55.5-12.3 14.8-35.1 15.8-53.4 16.5-2.5.3-4.7.4-6.8.5z"/><path class="st2" d="M515.1 580.3c-.2 0-.4-.1-.6-.2-.4-.2-.6-.7-.5-1.1 1.3-9.7 7.2-16.9 16.2-19.8.1 0 .2-.1.3-.1.2 0 .4.1.6.2.3.2.5.5.5.9l.1 2.3c.2 3.5.3 7.1.5 10.6 0 .6-.4 1.1-1 1.2-5.5.6-10.7 2.6-15.6 5.7-.1.2-.3.3-.5.3zM559.1 602.7c-18.9-1.3-36.3-4.3-51.9-8.9-.4-.1-.7-.4-.8-.8-.1-.4 0-.8.2-1.1 7.4-8.5 16.4-13.5 25.8-14.4.9-.1 1.8-.1 2.6-.1 15.4 0 21.7 13.5 25.1 23.7.1.4.1.7-.2 1 0 .4-.3.6-.8.6.1 0 .1 0 0 0zM573.7 603.4c-2.7-.1-5.5-.2-8.2-.4-.5 0-1-.4-1-.9-.8-5-2.7-9.9-5.4-14.2-.2-.3-.2-.7-.1-1 .1-.3.4-.6.7-.7 1.7-.5 3.4-.7 5-.7 5.4 0 10.1 2.6 13.2 7.3.2.3.2.8.1 1.1-1.3 2.7-2.4 5.6-3.2 8.7-.1.4-.6.8-1.1.8zM587.8 603.6c-2.7 0-5.3 0-8-.1-.3 0-.7-.2-.9-.4-.2-.3-.3-.6-.2-1 4-14.4 15.3-23.4 29.5-23.4 3.7 0 7.6.6 11.4 1.9.4.1.6.4.7.8.1.4 0 .8-.3 1-5.1 5.4-8.2 12.3-9 19.8-.1.6-.5 1-1.1 1l-14.5.2c-2.5.2-5.1.2-7.6.2z"/><path class="st1" d="M596.7 576.7c-.2 0-.5-.1-.6-.2-.3-.2-.5-.5-.5-.9-.1-16.5-.5-33.2-.9-49.4-.8-30.6-1.6-62.3-.1-93.5.8-17.5 2.7-35.2 4.5-52.4.7-6.6 1.4-13.2 2-19.8 2.6-27 3.5-53.7 4-76.3.6-24.7.2-49.8-.2-74.1-.4-23.1-.7-47-.3-70.5l.2-8.1c.3-17.6.7-35.9 1.7-53.8l.1-2.6c.9-15.1 1.7-30.7-2.5-45-.1-.4 0-.8.3-1.1.2-.2.5-.3.8-.3.1 0 .3 0 .4.1 7.9 2.8 15.6 7.5 22.3 13.5.1.1.2.3.3.5 1.9 5.2 2.5 11 3 16.5l.2 2.5c1.2 11.9 1.4 24.1 1.4 34.6.1 23-.1 46.4-.6 69.5-.6 27-2.2 54.4-3.8 80.9-1.1 19-2.3 38.7-3 58.1-1.3 33.2-2 66.9-2.6 99.5-.2 12-.5 24-.7 36.1-.4 16-.8 32-1.3 48-.9 28.4-1.8 57.8-1.8 86.8 0 .3-.2.7-.4.9-.2.2-.4.2-.7.2h-.3c-3.2-.9-6.5-1.3-9.7-1.3-3.8 0-7.4.6-10.9 1.8 0-.2-.1-.2-.3-.2z"/><path class="st2" d="M614.3 603.2c-.3 0-.7-.2-.9-.4-.2-.3-.3-.7-.2-1 3.9-13.8 13-22.9 27.1-27 2.6-.8 5.3-1.1 8-1.1 12.4 0 24.1 7.6 29.2 19 .1.3.1.6 0 .9-.1.3-.4.5-.6.6-19.1 7-42.3 8.5-62.6 9 .1 0 .1 0 0 0zM659.8 571.3h-.3c-3.1-.8-6.4-1.2-9.8-1.2h-1.8c-.3 0-.6-.1-.8-.3-.2-.2-.3-.5-.4-.8 0-2.1-.1-10.7-.1-10.7 0-.4.2-.7.5-.9.2-.1.4-.2.6-.2.2 0 .3 0 .4.1 5.8 2.5 10.2 6.9 12.6 12.5.2.4.1.8-.2 1.2-.1.2-.4.3-.7.3z"/><path d="M502.6 592.3c-.1 0-.2 0-.3-.1l-1.2-.4c-.5-.2-1.1-.3-1.6-.5-10.3-3.5-17-9.6-17.7-16.2-.5-4 .9-10.1 10.5-16.2 11.3-7.2 25.9-10.1 37.6-12.4h.2c.3 0 .5.1.7.2.3.2.4.5.4.8l.2 6.8c0 .5-.4 1-.9 1.1-12.4 2.6-21.2 14.8-19.9 27.7 0 .3-.1.7-.4.9-2.4 2.2-4.6 4.7-6.7 7.5-.2.7-.5.8-.9.8zm180.6-.8c2.9-1.3 5.2-2.5 7.2-3.8 8.1-4.9 11.7-10.1 10.8-15.2-2.7-15.3-44.8-24.8-53.2-26.5h-.2c-.3 0-.5.1-.7.3-.3.2-.4.5-.4.9v6.7c0 .5.3.9.8 1.1 9 2.6 15.5 9.1 17.6 18 .1.3.3.6.6.7 7.4 3.5 12.9 9.5 16 17.3.1.3.3.5.6.6.1.1.3.1.4.1.2-.1.3-.1.5-.2z" style="fill:#ad8353"/><path class="st1" d="M648.9 423.2c-.3 0-.5-.1-.7-.3-.3-.2-.4-.5-.4-.9l.2-10.5c0-.5.4-1 .9-1.1 12.6-2.6 23.3-5.8 27.8-17.4 7.6-19.9 6.6-40.3 4.7-61.3l-.6-6.2c-1.6-17.8-3.2-34.5.2-52.1 1.6-8.4 5.3-16.1 10.3-21.4.2-.2.5-.4.8-.4.2 0 .4.1.6.2.5.3.7.8.5 1.3-2.4 7.5-2.1 16.2-2 23.3.4 16.4 1.5 33.4 2.5 49.5.3 3.9.6 7.8.9 11.8 1.6 19.2 3.2 39.1-1.9 57.8-5.6 20.6-27.6 24.6-43.6 27.6 0 .1-.1.1-.2.1zM624.3 578.4c-.2 0-.3 0-.4-.1-.8-.3-1.6-.7-2.4-1-.4-.2-.7-.6-.7-1.1.1-29.7 1-59.9 1.9-89 .5-15.7 1-31.4 1.3-47.1.3-12.5.5-24.9.8-37.4.7-34.7 1.4-70.7 2.9-106 .8-18.3 1.8-37 2.9-55 1.6-27.5 3.2-55.9 3.8-83.9.5-24.6.6-47.3.4-69.4v-6.6c0-10.4 0-22.1-2.3-32.4-.1-.5.1-1 .6-1.3.2-.1.3-.1.5-.1.3 0 .6.1.8.4 1.6 1.8 3.1 3.7 4.3 5.6 12.1 17.6 13 39.3 14 60.2l.1 2.4c1.2 25.7-.6 52-2.1 75.1-3.4 50.8-5 100.9-6.2 143.2-2.1 74.3-4 153.6-3.2 233.9l.2.7c.1.3 0 .6-.1.9-.2.3-.4.4-.7.5-5.6 1.3-11 3.7-15.5 7.1-.5.3-.7.4-.9.4zM579.7 589.9c-.3 0-.6-.1-.8-.4-3.8-4.2-8.4-6.5-13.3-6.5-.6 0-1-.4-1.1-1-6.1-42.6-1.8-86.2 2.3-128.4 5.2-52.6 7.5-93.4 7.6-132.3.1-23.3-.2-47.1-.4-70.1-.8-73.6-1.6-149.8 7.6-224 .1-.5.4-.9.9-1 2.2-.4 4.5-.6 6.8-.6 3.8 0 7.7.5 11.7 1.6.4.1.7.4.8.7C607 43 606 59.6 605 75.7l-.3 5c-.9 16.8-1.2 33.8-1.5 50.4l-.2 12.3c-.5 23.5-.1 47.4.3 70.4.4 24.3.8 49.4.2 74.2-.6 28.3-3.2 56.8-5.7 84.4-1.8 19.8-3.6 40.2-4.8 60.4-1.7 31.2-.9 63 0 93.7.5 16.6.9 33.8 1 50.7 0 .4-.2.8-.6 1-5.1 2.5-9.3 6.3-12.7 11.2-.3.3-.6.5-1 .5zM553.3 354.8c-.1 0-.3 0-.4-.1-8.9-3.2-18.6-3.8-27.9-4.3-9.1-.6-18.5-1.1-27.4-4.1-25.7-8.4-22.4-46.5-20.5-69.3l.4-4.4c1.9-23.8 3.9-48.4 5.2-73.4.2-3.4.4-6.9.6-10.4 1.1-17.2 2.2-35-.9-51.8-.1-.4.1-.9.5-1.1.2-.1.4-.2.6-.2.2 0 .4.1.6.2 18.7 12.7 19.4 48.2 19.8 67.2v.8c.3 12.4-.8 25.2-1.7 37.5-1.6 19.6-3.2 40 .3 59.4 3.4 18.5 13.7 28.4 32.5 31.1.6.2.9.3 1.4.3h.5c2.3.3 4.7.4 7.2.5 6.2 1.4 9.7 8.6 10.2 20.9 0 .4-.2.7-.5 1 0 .1-.2.2-.5.2z"/><path class="st1" d="M550 380.2c-11 0-22-2.5-32.6-5l-3.2-.7c-3.1-.7-6.1-1.3-9.2-2-8.4-1.8-17.1-3.6-25.3-6.6-24.8-9.1-24.9-37.3-24.9-60v-5.7c-.1-14.2.4-28.7.9-42.7.6-16.6 1.2-33.8.7-50.6-.4-14.5-.1-27.5.9-39.8 1.1-12.7 2.9-25.7 9.4-35.3.2-.3.5-.5.9-.5h.9c1.8 0 3.6.2 5.4.5 2 .4 3.9.9 5.7 1.7.3.1.6.4.7.8 4.1 18.4 2.8 38.1 1.4 57.1-.4 5.2-.7 10.3-1 15.3-.6 13.3-1.8 26.7-2.9 39.7-1.2 13.8-2.4 28-3 42.1-.7 16.5-2 47.2 18.4 57.9 9.8 5.1 21.1 5.6 32 6.1 9.5.4 19.4.9 28.4 4.3.5.2.8.6.8 1.1 0 6.7-.8 14.3-2.2 21.4-.1.5-.6.9-1.1.9H550z"/><path class="st1" d="M531.1 396.3c-10.9 0-23.7-2-28.5-2.8l-4.4-.7c-10.7-1.7-21.7-3.4-31.9-7.9-33.2-14.7-32.8-68.1-32.6-99.9v-6.7c0-25.1 1.7-50.7 3.3-75.4.4-5.7.8-11.4 1.1-17.1.9-14.4 3-48.2 23.9-53.7h.3c.3 0 .7.2.9.4.3.4.3.8.1 1.2-9.6 16.7-9.2 40.6-9 59.8l.1 5.5c.1 16.9-.3 34-.7 50.6-.5 18.9-1 38.4-.7 57.5v1.7c.4 21.8.8 46.5 22 57.1 8.1 4.1 17.4 5.9 26.4 7.7 3.1.6 6.3 1.2 9.3 1.9l4.3 1c11.4 2.7 23.1 5.4 34.8 5.4h.4c.3 0 .7.2.9.4.2.3.3.6.2 1-.6 2.4-1.5 5.7-2.5 7.7-1.6 3.6-7.5 5.3-17.7 5.3z"/><path class="st1" d="M557.4 584.8c-.3 0-.6-.1-.9-.4-4.8-5.8-10.9-9.2-17.6-10-.5-.1-1-.5-1-1-3.3-54.8-1.9-110.7-.7-164.7l.2-6.4c0-.5.4-1 1-1.1 12.2-1.9 18.5-9.1 20.3-23.3 1-7.9 5.1-47.7-13-50.6l-.8-.1c-1.5-.1-2.8-.1-4.1-.2-.6 0-1.1-.6-1.1-1.2.8-22.1 2-44.5 3.2-66.2 2-37.9 4.2-77.1 4.3-115.9.1-18.7.3-39.1.8-62.4.3-15.2 1.8-32.6 15.9-45.6 4.3-3.9 9.1-6.8 14.4-8.4h.3c.3 0 .5.1.7.3.3.2.4.6.4 1-9.2 74.8-8.3 151.5-7.5 225.8.2 22 .5 44.8.5 67.1 0 48.8-4 95.8-7.9 135.5-4.4 44.9-7.6 85.4-2 125.3.1.6-.3 1.1-.9 1.3-1.3.3-2.6.7-4.1 1.3-.1-.1-.3-.1-.4-.1z"/><path d="M581.4 746.1c-57.5 0-92.8-13-104.9-38.7-.1-.1-.2-.4-.3-.6-1.3-13.6-2.6-27.1-4-40.7l-1.5-14.8c-1.5-14.9-3.1-29.9-4.6-44.8 0-.5.2-.9.7-1.1.1-.1.3-.1.4-.1.3 0 .6.1.8.4 25.5 29.2 90.7 29.8 122 30.1h7.4c59.5 0 98.6-10.1 116.1-30.1.2-.2.5-.4.8-.4.2 0 .3 0 .4.1.4.2.7.7.7 1.1-1.5 15.1-3.1 30.2-4.6 45.2l-1.6 15.7c-.8 8.1-1.5 16.3-2.2 24.4l-1.2 13.8c0 .1-.1.3-.1.4 0 .1-.2.3-.2.3-15.6 36.2-71.9 38.2-105.5 39.3l-1.7.1c-6.1.3-11.7.4-16.9.4z" style="fill:#ffe40e"/><path class="st5" d="M590.3 782.7c-2.4 0-4.7 0-6.9-.1-37.6-.5-101.3-8.5-105.4-56.1l-.3-3.2c0-.5.2-.9.7-1.1.1-.1.3-.1.4-.1.3 0 .6.1.8.4 24.9 28.1 78.8 28.7 111 29.1h6.7c53.2 0 87.4-9.5 104.7-29.2.2-.2.5-.4.8-.4.2 0 .3 0 .5.1.4.2.7.7.7 1.2l-.3 2.5-.6 4.8c-4.6 34.6-42.6 52.1-112.8 52.1zM583.2 630.2C510 630.2 469.8 615 464 585l-.3-2.7c-3.8-39 41.3-47.8 65.5-52.6h.2c.3 0 .5.1.7.3.3.2.4.5.4.8 0 1.9.3 9 .3 9 0 .5-.4 1-.9 1.1-30.6 6.2-50.2 15.4-55.2 26-2 4.2-1.7 8.5.7 13.2 6.1 11.7 19.4 16.3 33.6 20.3 25.3 7.2 53.2 8.5 79.6 8.8h4.4c21.5 0 44.2-2.1 67.4-6.2 17.3-3.1 34.6-7.7 44.6-20.7 3.7-4.8 4.7-9.2 3-13.6-6.8-18-55-27.6-60.5-28.6-.5-.1-1-.6-1-1.1v-9.1c0-.3.1-.6.4-.9.2-.2.5-.3.7-.3h.2c24 4.3 73.9 13.1 70.4 50.5l-.7 6.6c-9.6 43.2-89.7 43.9-123.9 44.2h-3c-2.1.1-4.6.2-7.4.2z"/><path class="st1" d="M648.2 463.5c-.3 0-.6-.1-.8-.3-.2-.2-.3-.5-.3-.8l.3-16.2c0-.6.5-1.1 1.1-1.1 2.1-.1 4.3-.2 6.5-.3 16.8-.8 35.8-1.6 49.2-12 14.8-11.5 17.2-30.2 17.5-48.7.2-11.5.1-23.2 0-34.5s-.2-23 0-34.5c.4-20.5.2-44.3-6.8-66.5-.1-.4 0-.9.4-1.2.2-.2.5-.2.7-.2.2 0 .4 0 .6.2 3.8 2.2 7.4 5.6 10.8 10.2 10.5 14.3 10.6 35.9 10.8 53.2v3.1c.2 17.6-.4 35.5-1 52.8l-.1 3.9c-.8 23.6-1.8 56-20.2 74.2-16.2 15.8-43.8 18.3-68.7 18.7z"/><path d="M716.8 444.6c-16.1 15.9-43.7 18.5-68.6 18.9-.3 0-.6-.1-.8-.3-.2-.2-.3-.5-.3-.8l.3-16.2c0-.6.5-1.1 1.1-1.1 2.1-.1 4.3-.2 6.5-.3 3.7-.2 7.5-.4 11.3-.6 26.1 14.5 50.7-7.4 58.4-19 3.4-5.1 7.8-22.4 11.8-40.5-1.2 21.1-4.7 45.2-19.7 59.9zm-68.2-1.2c2.2-.1 4.3-.2 6.5-.3 18.3-.8 41.1-1.7 53.4-16.5 12.7-15.3 11.9-37.6 11.2-55.5-.1-3.6-.2-7.3-.2-11.1-1 18-3.7 40.2-10.4 46.9-10.6 10.6-26.7 28.1-61.5 20.8l-.3 14.6c0 .3.1.6.3.8.4.2.7.3 1 .3zm34.6-41.3c-9.5 8.1-24.3 12.8-35.3 15.1l-.1 4.8c0 .3.1.7.4.9.2.2.5.3.7.3h.2c16.1-3 38.1-7 43.6-27.6 4-14.8 3.8-30.3 2.8-45.7-.4 15.9-2.7 43.9-12.3 52.2zM549 391c.1-.2.2-.5.3-.8-16.5-.2-56.3-7.6-83.1-16.6-22.5-7.5-30.1-63.7-32.4-89.1v.5c-.2 31.9-.6 85.2 32.6 99.9 10.2 4.5 21.2 6.2 31.9 7.9l4.4.7c4.8.8 17.6 2.8 28.5 2.8 10.1 0 16-1.7 17.8-5.3zm-34.7-16.5 3.2.7c10.6 2.4 21.6 5 32.6 5h1.2c.5 0 1-.4 1.1-.9.6-2.9 1-5.8 1.3-8.8-21.8 5.4-47-7.5-71-14.4-22.3-6.4-26.8-64.2-27.6-80.5-.2 8.2-.4 16.4-.3 24.6v5.7c0 22.7.1 51 24.9 60 8.2 3 16.9 4.8 25.3 6.6 3.1.6 6.2 1.3 9.3 2zm39-19.7c.2 0 .5-.1.7-.2.3-.2.5-.6.5-1-.2-4.1-.7-7.5-1.5-10.5-3.8 1.1-8.8 1.3-13.3-.8-8.3-4-17.8-1.2-40.8-7.7-19.4-5.5-20.3-60-20.1-77-.4 5-.8 10.1-1.2 15.1l-.4 4.4c-2 22.8-5.2 60.8 20.5 69.3 8.9 2.9 18.3 3.5 27.4 4.1 9.3.6 19 1.2 27.9 4.3h.3zm68.2 222.5c.8.3 1.6.6 2.4 1 .1.1.3.1.4.1.2 0 .5-.1.7-.2 4.5-3.4 9.9-5.8 15.5-7.1.3-.1.5-.2.7-.5.2-.3.2-.6.1-.9l-.2-.7c-.3-31.1-.2-62.1.1-92.7-3.6 26-9.8 54.1-19.9 59.5-.3 13.5-.5 27-.6 40.5 0 .4.3.8.8 1zm-26.6-44.5c.3 14.1.7 28.6.7 42.8 0 .4.2.7.5.9.2.1.4.2.6.2.1 0 .2 0 .4-.1 3.4-1.2 7.1-1.8 10.9-1.8 3.2 0 6.4.4 9.7 1.3h.3c.2 0 .5-.1.7-.2.3-.2.4-.5.4-.9.1-28.9 1-58.3 1.8-86.8.5-16 1-32 1.3-48 .3-12 .5-24 .7-36.1v-1.5c-2.8 28.2-7.9 81.1-8.3 87-.3 6.4-5.3 38.5-19.7 43.2zM564.5 582c.1.5.5 1 1.1 1 4.9.1 9.4 2.3 13.3 6.5.2.2.5.4.8.4h.1c.3 0 .7-.2.8-.5 3.3-4.9 7.6-8.6 12.7-11.2.4-.2.6-.6.6-1-.1-16.9-.5-34.1-1-50.7-.8-30.8-1.7-62.6 0-93.7.3-5.6.7-11.3 1.1-16.9-3.4 18-7.5 46.3-6.9 75.2.9 41-14 66.2-24.8 70.3.5 6.9 1.2 13.8 2.2 20.6zm-26.6-8.7c0 .5.5 1 1 1 6.7.8 12.8 4.2 17.6 10 .2.3.5.4.9.4.2 0 .3 0 .4-.1 1.5-.6 2.8-1.1 4.1-1.3.6-.1 1-.7.9-1.3-4.9-34.8-3.1-70.1.4-108.4-6 27.6-15.3 59.5-26.7 63.6.3 12.2.7 24.2 1.4 36.1z" style="fill:#00b2b6"/><path d="M695.2 709.1c-20.2 9-41.4 15.7-63.2 19.6-22.1 3.9-44.7 5.1-67.1 3.7-11.2-.7-22.4-2.1-33.5-4.2-11.3-2.1-23-4.5-33.3-9.7a56.51 56.51 0 0 1-22.9-21.5c.3 3.3.7 6.5 1 9.8 0 .1.2.4.3.6 12.1 25.7 47.4 38.7 104.9 38.7 5.2 0 10.8-.1 16.9-.3l1.7-.1c33.6-1.1 89.9-3.1 105.5-39.3.1-.1.2-.3.2-.3.1-.1.1-.3.1-.4.1-.6.1-1.1.1-1.7-3.4 1.8-7 3.5-10.7 5.1z" style="fill:#fab301"/><path d="M700.9 739.9c-.4.5-.8 1.1-1 1.9-.1.2-.1.4-.2.5-1.9 1.5-3.7 3-5.6 4.1-7.4 4.6-15.3 8.1-23.5 11-16.9 5.9-34.7 8.7-52.5 10.9-38.4 4.6-81.7 8.1-115.5-14.3-7.8-5.2-15-11.7-20.6-19.2-1.4-1.9-2.6-3.8-3.8-5.8 5.9 45.6 68.1 53.4 105.1 53.9 2.2 0 4.5.1 6.9.1 63.8-.3 100.8-14.7 110.7-43.1z" style="fill:#f1a12b"/><path class="st9" d="M715.6 606.6c0-.5-.2-.9-.7-1.1-.1-.1-.3-.1-.4-.1-.3 0-.6.1-.8.4-17.6 20-56.6 30.1-116.1 30.1h-7.4c-31.3-.3-96.5-.9-122-30.1-.2-.2-.5-.4-.8-.4-.2 0-.3 0-.4.1-.4.2-.7.7-.7 1.1.4 4.4.9 8.8 1.4 13.2 1.1.9 2.1 1.8 3.1 2.5 7.7 6 16.2 10.3 25.2 13.9 20.1 7.9 42.1 10 63.6 9.8 22.9-.2 45.9-2.5 68.6-5.5 20.8-2.8 42-5.8 62.2-11.6 7.8-2.2 16.2-5.2 24-9.2.3-4.5.8-8.8 1.2-13.1z"/><path d="m703.8 725.9.3-2.5c.1-.5-.2-1-.7-1.2-.1-.1-.3-.1-.5-.1-.3 0-.6.1-.8.4-17.3 19.6-51.6 29.2-104.7 29.2h-6.7c-28.4-.3-73.6-.9-101-20.3-.1 3.4 1.9 7.1 4 9.4 4.4 5 11.3 8 17.5 9.9 18.1 5.7 37.1 7.4 56 7.8 18.6.4 37.3-.2 55.9-1.3 18.2-1 36.3-3.5 53.1-10.8 7.8-3.4 15-7.9 21.4-13.5 2.2-1.9 4.3-4 6-6.3.2-.3.2-.5.2-.7z" style="fill:#fee434"/><path d="M496.3 185.7c1.1-20.6-11.6-48.4-11.6-48.4l1.4.1c16.9 13.7 17.6 47.4 18 65.7v.8c.3 12.4-.8 25.2-1.7 37.5-1.1 14.2-2.3 28.8-1.5 43.1-3.3-24.2-5.6-80.1-4.6-98.8zm-21.4 102.7c.6-14 1.8-28.3 3-42.1 1.1-13 2.2-26.5 2.9-39.7.2-5 .6-10.1 1-15.3 1.3-19 2.7-38.7-1.4-57.1-.1-.4-.3-.6-.7-.8-1.9-.8-3.8-1.3-5.7-1.7h-.1c1.7 4.7 5.6 18.3 3.8 35.6-2.2 21.8-4.9 93.4-6.8 110.3-1.6 14.8-2.1 40.8 9.1 54-6.4-13.6-5.6-31.8-5.1-43.2zm-24-128.6c-1.9 19.1-2.6 87-2.2 103.9.4 16.2-5.1 60.5 8.8 81.2-3.8-11-4.1-24.1-4.3-36.3v-1.7c-.3-19.2.2-38.7.7-57.5.4-16.6.9-33.8.7-50.6l-.1-5.5c-.3-19.2-.6-43.1 9-59.8.2-.4.2-.9-.1-1.2 0 .1-10.6 8.4-12.5 27.5zm236.8 191.8c-.8-13.2-3.2-45.8-4-57-.7-10.7 3.3-35.1 3.7-37.3-3 4.7-5.2 10.2-6.3 16.2-3.4 17.6-1.8 34.3-.2 52.1l.6 6.2c1.9 21 2.9 41.4-4.7 61.3-.8 2.1-1.9 3.8-3 5.4 10.5-7.9 14.6-34.5 13.9-46.9zm10.8-105.1c-.2.1-.3.2-.4.3-7.9 10.4-6.1 27.5-4.7 41.3.3 2.8.5 5.3.7 7.7 1.6 22.3 2.9 42.4 3.4 62.5v1.7c.4 12.3.8 28.1-4.5 40.2 14.2-14.1 9-68.4 8.3-79-.7-11.3-4-44.8-4-54.3 0-6 3.2-15.7 5.6-21.9-1.4.3-2.9.8-4.4 1.5zm16.4 2c7 22.2 7.2 45.9 6.8 66.5-.2 11.5-.1 23.2 0 34.5s.2 23 0 34.5c-.2 13.4-1.6 26.9-7.9 37.8 12.2-8.4 11.5-51.1 11.7-70.2.2-19.5 1-49.8-.5-71.5-1.5-21.8-9.7-32.8-9.7-32.8-.4.3-.6.8-.4 1.2zM548 81.3c-.5 23.3-.7 43.7-.8 62.4-.1 38.8-2.2 78-4.3 115.9-.8 14.4-1.6 29.1-2.2 43.8.2 1.5.5 1.8.6.9 1.9-10.1 9.8-87.8 9.8-113.3s1.9-89.6 3.7-119.3c1.9-29.6 23.5-44.4 23.5-44.4-5.3 1.6-10.1 4.4-14.4 8.4-14.1 13-15.6 30.4-15.9 45.6zm41.3-55.6c-2.3 0-4.6.2-6.8.6-.5.1-.9.5-.9 1-9.2 74.2-8.4 150.4-7.6 224 0 2 0 4 .1 6 2.3-25.1 5.9-71 5.9-94.5 0-28.5 0-67.1-.4-81.4-.4-14.2 3.4-35.3 5.6-43.1 2.2-7.9 15.8-11 15.8-11-4-1.1-8-1.6-11.7-1.6zm16 3c-.3 0-.6.1-.8.3-.3.3-.4.7-.3 1.1 4.2 14.3 3.3 29.9 2.5 45l-.1 2.6c-1 17.9-1.3 36.2-1.7 53.8l-.2 8.1c-.5 23.5-.1 47.4.3 70.5.4 24.3.8 49.4.2 74.1-.4 19.1-1.2 41.1-2.9 63.7 3-13.5 7.3-35.7 7.3-52 0-25.1.7-80.3 0-109.9-.8-29.6 1.9-87.4 2.2-114.4.3-20.2-.5-34.7-.9-40.8-1.7-.8-3.5-1.6-5.2-2.2-.2.1-.3.1-.4.1zm29.3 53.2v6.6c.2 22.1.1 44.8-.4 69.4-.6 28-2.2 56.4-3.8 83.9-1 18-2.1 36.6-2.9 55-.3 7.3-.6 14.6-.8 22 6-33.1 11.3-116.3 11.7-133 .4-18.4 4.5-76.1 2.3-102.8-2.3-26.6-7.8-34.7-7.8-34.7-.5.2-.7.7-.6 1.3 2.3 10.2 2.3 21.9 2.3 32.3z" style="fill:#8bfcfc"/><path class="st9" d="M573.8 671.5c28.1 19.8 88.1 12.5 112-10.7 1.3-1.2.2-3.2-1.4-3.3-18.8-1.2-35.7 4.4-54.3 6.9-18.5 2.5-37.9.8-56.1 5.3-.8.2-.8 1.3-.2 1.8zM546.1 671.7c3.5 6.1 15.2 6.6 18-.3 1.3-3.1-3.7-5.7-5.7-6.4-3.6-1.1-8.8-.2-11.7 2.2-1.3 1-1.4 3.2-.6 4.5z"/><path class="st12" d="M648 546h-.2c-.3 0-.5.1-.7.3-.3.2-.4.5-.4.9v6.7c0 .5.3.9.8 1.1 5 1.4 9.2 4.1 12.3 7.7 8.4 2 16.7 4.6 24.5 8.4 6.2 3 10.5 6.5 13.7 10.6 2.6-3 3.7-6 3.2-9.1-2.7-15.4-44.8-24.9-53.2-26.6zM530.7 546.9c-.2-.2-.4-.2-.7-.2h-.2c-11.7 2.3-26.3 5.2-37.6 12.4-9.5 6.1-11 12.2-10.5 16.2.1.7.3 1.4.5 2.1 5.2-6.5 11.9-11.8 22.5-15.6 8.5-3.1 17.4-5.1 26.5-6.5.1-.2.2-.4.2-.7l-.2-6.8c-.1-.4-.3-.7-.5-.9z"/><path class="st13" d="M629.7 588.3c-.1.2.1.4.3.3 3.4-1.9 6.6-3.7 10.4-4.7 3.8-1 7.8-.5 11.6-1.5.3-.1.4-.5.1-.7-6-3.8-19.4.2-22.4 6.6zM654.4 581.9c-.2.2-.3.5-.1.7 1.1.9 2.9 1.8 4.3 1.1.2-.1.3-.4.2-.6-.2-1.9-3-2.2-4.4-1.2zM538.1 584c-.2 0-.2.3-.1.4 2.3 1 4.5 2.4 6.4 4.1 1.8 1.6 3.3 3.6 5.1 5.1.2.2.6.1.6-.2-.6-5-6.9-10.6-12-9.4zM588.2 596.2c2.7-2.2 5.2-4.5 8.2-6.1 3.1-1.6 6.5-1.7 9.8-2.5.4-.1.5-.7.1-.9-6.4-3.5-16.7 2.7-18.5 9.3.1.3.3.4.4.2z"/><path class="st13" d="M751.3 348.4c-1.9 2.1-4.5 3.3-7 4.5.1-7.7.1-15.4.4-23 .7-21.3.6-42.9-5.7-63.5-.3-.8-.5-1.6-.8-2.4 1.7-1.6 2-4.9 1.4-7-.2-.8-1.3-.7-1.5 0-.4 1-1.1 1.8-1.8 2.6-11.2-21.8-40-31.3-53.9-8.9-.2-.2-.5-.4-.7-.6-.8-.5-1.6-.9-2.3-1.4-.8-.6-1.7-1.2-2.5-1.8-.3-.2-.8 0-.8.3-.6 2.9 1.6 6.9 4.5 7.1-.4.7-.7 1.5-1 2.3-7.5 18.2-7.9 37.2-6.4 56.5 1.1 14.7 3 29.3 3.3 44.1.2 9.8-1.2 19.4-3.9 28.8-3.7 13.2-12.9 15.6-22.9 17.6l1.2-47.3c1.4-.3 2.9-.9 3.2-2.4.1-.2 0-.5-.3-.6-.9-.5-1.9-.4-2.8-.3 0-1.3.1-2.7.1-4 2.5-1.4 3.6-3.8 4.4-6.5.1-.5-.5-.9-.9-.5-.9 1.1-2.2 1.7-3.4 2.3.4-13.8.8-27.5 1.1-41.3.7-25.8 2.3-51.5 3.9-77.3.7-.3 1.4-.8 1.9-1 2.3-1.3 4.2-3 6.1-4.8.3-.3 0-.9-.4-.7-2.7.8-5 2-7.4 3.4 1.8-30.2 3.6-60.5 3.7-90.7.1-16.5-.3-33.7-3.7-49.8 1.9-1.5 2.9-4.6 2.5-6.6-.1-.4-.5-.4-.8-.2-1 .8-1.7 2-2.4 3.1 0 0 0 .1-.1.1-4.1-17.3-12-33.3-27-45.5-17.1-14-40.8-17.4-60.7-7.9-29.2 13.9-26.4 50.9-26.8 77.6-.2 10.5-.3 21.1-.4 31.6-1.7-1.1-3.5-2.2-5.3-3.1-.3-.1-.7.2-.5.5 1.2 1.8 3 3.3 4.5 4.9l1.3 1.3v5.2c-1.8-.6-3.6-1-5.3-1.3-.6-.1-1 .6-.4 1 1.6 1.1 3.6 2 5.7 2.4-.2 26.5-.4 53-1.4 79.5-.5 13.8-1.4 27.7-2.3 41.5-.2-.1-.3-.2-.5-.3-1.7-1-2.6-2.2-3.9-3.6-.2-.2-.7-.1-.7.3.4 2.9 2.3 5.7 4.8 7.5-1.3 18.2-2.6 36.5-3.4 54.7-10.1-1.9-18.4-6.7-22.4-18.8-4.2-12.5-2.9-28.4-2.4-41.4s1.5-25.8 2.2-38.7c.2-.3.3-.5.5-.8 1-1.6 2.2-2.9 3.2-4.5.2-.4-.2-.8-.6-.6-1 .7-1.9 1.4-2.9 2.1.3-7.4.5-14.8.3-22.3-.4-18.4-1.8-45.9-14.8-61.9 1-1.9 1.8-3.9 2.6-6 .1-.4-.4-.7-.6-.4-1.2 1.4-2.5 2.8-3.8 4.2-2-2.1-4.3-4-6.8-5.6-29.9-18.4-44.1.7-51 27.9-2.5-1.4-5-2.6-6.9-4.9-.5-.6-1.2.2-.9.7 1.4 3.2 3.7 6.4 6.9 8-5.9 26.3-5.8 58.5-6.6 72.3-1.5 24.4-2.4 48.7-1 73.2.2 3.6.4 7.4.7 11.2-1.1-.3-2.2-.7-3.3-1.1-.5-.2-.8.4-.6.8.8 1.7 2.4 3.4 4.3 4.3 1.3 15.9 3.8 32.9 10.8 45.9 10.7 20.1 31.5 27 52.7 30.5-1.2.8-2.4 1.6-3.7 2.1-.5.2-.2 1.1.3 1 3.3-.1 6.2-.7 9.2-2 .1-.1.2-.2.3-.2 4.7.6 9.4 1.2 14 1.6 6.5.7 12.6 1.2 18.2 1.2-.5 20.7-1 41.4-1.3 62.1-2.1-.5-4.2-.7-6.2-1.4-.4-.1-.8.4-.4.8 1.8 1.7 4.1 3.1 6.6 3.7-.2 18.2-.3 36.5 0 54.7-25 4.8-69.3 14.4-72.9 46.1-2.9 25.3 4.7 54.7 7.3 79.9 2.6 25 6.4 50.2 7.5 75.3 1.4 32.5 26.9 49.3 55.9 57.5 47.1 13.3 106.9 12.6 151.5-8.8 23-11 30.4-31 32.5-54.5 2.9-32 6.5-63.8 9.8-95.8 2.2-21.3 11.3-50.3-2.2-69.4-15.1-21.3-47.1-27-70.9-31.2V505c2.8-1 5.3-2.9 6.8-5.4.2-.4-.2-.9-.6-.8-2.1.7-4.2 1.4-6.2 2.2l.3-31c21.1-.4 41.9-3.2 61.1-12.3 9.1-4.3 15.4-10.6 20-18.1 1.6-.3 3.1-.8 4.4-1.6.4-.2.3-.8-.1-.9-.8-.2-1.7-.3-2.6-.5 4.3-8.1 6.9-17.4 9-27 3.6-17.3 4.2-35.1 4.4-52.9.1 0 .3 0 .4-.1 3.4-1.8 5.6-4.4 7.4-7.8-.4-.3-1-.9-1.4-.4zm-40.1-102.2c13.7 39.5 5.9 83.9 7.4 124.8.7 18.2 1.3 39.9-11 54.8-13.4 16.2-39.6 15.4-59.1 16.4l.3-16.2c13.9-2.6 28.4-5.1 38.7-15.5 12.7-12.8 11.6-36 11.1-52.4-.6-20.8-2-41.8-3.5-62.5-1-13.6-5.4-36.1 3.8-48.2 3.9-1.8 8-2.3 12.3-1.2zM531.1 573.3c-5.9.7-11.3 2.7-16.1 5.9 1.2-9 6.7-16.1 15.4-18.9.3 4.3.5 8.7.7 13zm-.9-18.6c-13 2.8-22.1 15.6-20.8 28.9-2.5 2.3-4.8 4.8-6.8 7.6-.9-.3-1.9-.5-2.8-.9-17.6-6-24.2-19.3-7-30.3 10.8-6.9 24.5-9.7 37.2-12.2 0 2.3.1 4.6.2 6.9zm2.4 24.1c15.5-1.5 22.5 10.5 26.6 22.8-17.5-1.2-35-4-51.7-8.8 6.6-7.5 15.1-13.1 25.1-14zm33 23.1c-.8-5.1-2.7-10.2-5.6-14.7 6.5-1.9 13 .1 17 6.1-1.4 2.7-2.5 5.7-3.3 8.9-2.7 0-5.4-.1-8.1-.3zm53.7-20.2c-5 5.3-8.4 12.2-9.3 20.4-5 .1-9.9.2-14.5.3-5.2.1-10.4.1-15.6 0 4.8-18.1 21.6-26.6 39.4-20.7zm-23.5-148.9c1.2-24.1 4.2-48.1 6.5-72.1 2.5-25.4 3.4-50.9 4-76.4 1.1-48.2-1.4-96.4-.5-144.6.4-20.6.7-41.2 1.8-61.8.9-15.7 2.1-32.7-2.4-48 8 2.9 15.6 7.6 22 13.2 2.1 5.9 2.5 12.6 3.2 18.7 1.2 11.5 1.4 23 1.4 34.5.1 23.1-.1 46.3-.6 69.5-1 46.4-5 92.6-6.8 138.9-1.8 45.2-2.3 90.4-3.3 135.6-1 45-3 89.9-3.2 134.9-7.5-2-14.8-1.7-21.2.5-.2-47.7-3.2-95.4-.9-142.9zm44.8 143c14.3-4.2 30 4.1 35.9 17.2-18.8 7-41.6 8.5-62.2 9 3.8-13.3 12.5-22.1 26.3-26.2zm7.2-17.5c5.5 2.4 9.7 6.5 12 11.9-3.9-1-7.9-1.4-11.9-1.2-.1-3.6-.1-7.2-.1-10.7zm34.9 32.2c-3.4-8.6-9.4-14.5-16.5-17.9-2.3-9.4-9.2-16.2-18.4-18.8v-6.7c18 3.7 75.9 19 42.1 39.7-2.4 1.3-4.8 2.5-7.2 3.7zm-4.9-197c7.7-20 6.7-40.8 4.8-61.8-1.7-19.6-4.2-38.5-.4-58 1.6-8.3 5.2-15.7 10-20.9-2.4 7.5-2.2 16.3-2 23.7.4 16.4 1.4 33.1 2.5 49.5 1.5 22.8 5.1 46.8-.9 69.2-5.3 19.5-25.4 23.6-42.8 26.8.1-3.5.1-7 .2-10.5 11.8-2.4 23.7-5.4 28.6-18zM637.6 54.7c12.4 18.1 12.9 41 13.9 62.1 1.1 25-.5 50.1-2.1 75-3.2 47.8-4.9 95.4-6.2 143.3-2.2 78-4 156-3.2 234 0 .4.1.6.2.9-5.7 1.3-11.2 3.8-15.9 7.3-.8-.3-1.6-.7-2.4-1 .1-45.4 2.2-90.7 3.2-136.1 1.1-47.8 1.7-95.6 3.6-143.4 1.9-46.3 5.7-92.5 6.7-138.9.5-23.1.6-46.3.4-69.4-.1-11.4.6-26.5-2.4-39.3 1.5 1.8 2.9 3.6 4.2 5.5zm-36.9-26.3c5.7 16.5 3.8 35.3 2.9 52.4-1.2 20.9-1.3 41.8-1.7 62.7-.9 48.2 1.6 96.4.5 144.6-1.1 48.5-7.8 96.3-10.5 144.7-2.7 48 .8 96.4 1 144.5-5.2 2.6-9.6 6.5-13.1 11.6-4-4.4-8.8-6.8-14.1-6.9-6.1-42.3-1.8-85.8 2.3-128.1 4.4-44.2 7.5-88 7.6-132.4.2-97.9-4.9-196.6 7.1-294 5.9-1.1 12-.7 18 .9zM503 204c.7 32.1-7.2 65.3-1.4 97.1 3.7 20.4 15.6 29.5 33.4 32 .6.2 1.2.3 1.8.3 2.3.3 4.8.4 7.3.5 6.2 1.4 8.7 9.8 9.2 19.9-17.7-6.3-37.4-2.5-55.3-8.4-26.6-8.7-21-51.1-19.3-72.6 2-24.5 3.9-48.8 5.2-73.4 1.1-20.4 3.5-42.1-.3-62.5 18.5 12.6 19 48.4 19.4 67.1zm-23.8-69.6c5.2 23.2 1.6 48.7.4 72.1-1.3 27.3-4.6 54.5-5.8 81.8-.9 19.8-1.3 48.4 19 59 18.5 9.7 41.4 3.2 60.6 10.5h.1c0 7.3-1 14.9-2.2 21.2-12.4.2-24.7-2.9-36.7-5.7-11.5-2.6-23.3-4.5-34.4-8.5-26.2-9.6-24-41.7-24.2-64.7-.3-31.1 2.5-62.2 1.6-93.3-.4-13.2-.2-26.5.9-39.7.9-11.4 2.6-25 9.2-34.8 1.9-.1 3.9.1 6 .4 1.9.5 3.7 1 5.5 1.7zm23.2 257.9c-12.1-1.9-24.2-3.4-35.5-8.4-34.8-15.4-31.9-74-31.9-105.6 0-30.8 2.5-61.8 4.4-92.5 1.1-17.8 4-47.7 23.1-52.7-10.7 18.6-9.2 45.9-9.1 65.8.3 36.1-2 72.1-1.4 108.2.4 22 .3 48.6 22.6 59.8 11.1 5.6 24 7 36 9.7 13 3 26.3 6.5 39.7 6.4-.8 3.3-1.6 5.9-2.4 7.5-4.3 8.5-37.8 3-45.5 1.8zm57.4-14.3c1.5-12.2 4.4-48.9-13.9-51.9h-.4c-.2 0-.4-.1-.7-.2-1.3 0-2.7-.1-4-.2 2.3-60.8 7.3-121.2 7.5-182.1.1-20.8.4-41.6.8-62.3.3-17.1 2.5-32.7 15.6-44.8 4.3-4 9-6.6 14-8.1-11.9 97.1-6.9 195.5-7 293 0 45.4-3.5 90.2-7.9 135.3-4.1 41.5-7.9 84-2 125.5-1.4.3-2.9.8-4.3 1.4-4.6-5.6-10.9-9.6-18.3-10.4-3.4-56.9-1.8-114.2-.5-171.1 11.1-1.6 19-7.7 21.1-24.1zm148.4 289.3c-1.3 12.7-2.3 25.5-3.4 38.3l-.2.2c-15.7 36.4-73.1 37.7-106.4 38.8-35.9 1.2-102.6.7-120.8-37.8 0-.1-.1-.1-.2-.2-1.3-13.6-2.6-27.1-4-40.7-2-19.9-4.1-39.7-6.1-59.6 26 29.7 92.1 30.2 123.5 30.5 31.3.3 97.6-.7 123.7-30.5-1.9 20.4-4 40.7-6.1 61zM583.5 781.5c-36.7-.5-100.3-8.1-104.3-55.1-.1-1.1-.2-2.1-.3-3.2 25 28.2 78.5 29 111.9 29.4 32.8.4 87.4-1.4 112.3-29.5-.3 2.4-.5 4.9-.9 7.3-6.8 49.1-81.9 51.6-118.7 51.1zm133.7-202.3c-.2 2.2-.4 4.4-.7 6.6-9.7 43.5-93.5 42.9-125.8 43.2-32.4.3-117.1-.1-125.7-44.2-.1-.9-.2-1.8-.3-2.6-3.5-35.8 35.4-45.7 64.6-51.4l.3 9c-15.9 3.2-68.7 15.2-55.2 40.8 6.6 12.6 21.5 17.2 34.3 20.9 25.5 7.2 53.6 8.5 79.9 8.9 24.1.3 48.2-2 72-6.2 16.2-2.9 34.8-7.4 45.3-21.1 20.9-27.1-46.3-41.8-58.2-44h-.1V530c27.6 4.8 72.9 14 69.6 49.2zm18.7-208.8c-.8 23.9-1.8 55.6-19.9 73.4-16.5 16.3-45.8 18.2-67.8 18.5l.3-16.2c18.7-1 40.9-.6 56.3-12.6 15.3-11.9 17.6-31.4 17.9-49.6.4-23-.4-46 .1-69 .4-22.4-.1-45.4-6.8-66.8 3.5 2 7 5.2 10.4 9.9 10.9 14.9 10.4 38.1 10.6 55.6.2 19-.5 38-1.1 56.8z"/><path class="st13" d="M606.2 646.8c-19.1 1-38.3 1.2-57.4-.2-18.4-1.3-35.7-6.5-53.9-9.1-.3 0-.4.3-.2.5 13.8 9.6 34.7 10.9 51 12.6 20.2 2.1 40.8 1.9 60.7-2.3.7-.3.5-1.6-.2-1.5zM628.4 643.1c-5 .6-10.2 1.4-14.9 3.2-.3.1-.3.5 0 .6 5.2 1.8 10.9.2 15.2-2.8.4-.3.3-1.1-.3-1z"/></svg>