<svg version="1.1" id="e37c00f5-ff96-45aa-87ea-1a24b78ba7bd" xmlns="http://www.w3.org/2000/svg" x="0" y="0" viewBox="0 0 1176.6 803.7" style="enable-background:new 0 0 1176.6 803.7" xml:space="preserve"><style>.st1{fill:#fdc435}.st2{fill:#acff1d}.st3{fill:#a5603f}.st4{fill:#d7bd8c}.st5{fill:#fee434}.st6{fill:#98b718}.st7{fill:#c0ffa8}.st8{fill:#895725}.st11{fill:#68182b}</style><path d="M723.1 584.2c-42.8 2.6-85.8 3.2-128.7 3.3h-21.8c-15.7 0-31.4-.1-47.1-.3h-.4c-32.7-.4-65.5-1.3-98.2-3-26.4-1.4-60.2-1.1-85-12.5 3.3 16.6 7.4 33.2 11.7 49.6 4.9 18.9 14.3 28.7 33.3 33.6 25.1 6.5 53.2 5.9 78.9 6.9 31 1.2 62 1.7 93 1.9 58.2.4 117.1.5 175.1-4.9 24.7-2.3 46.9-7 53.9-33.4 4.6-17.4 8.8-35 12.7-52.6-21.5 11-54.9 10-77.4 11.4z" style="fill:#ad8353"/><path class="st1" d="M634.4 308.8c2.4 5.5 4.5 11.2 6.4 16.9 21.1-25 54.1-42.1 83.6-54.5 31.3-13.1 64.8-20.7 98.6-23.4 9.1-.7 7 2.2 1.8 5.8-28.1 19.5-43.2 52.5-54.6 83.8-12.4 34.2-21 69.6-34.4 103.4-15.5 39-38.8 70.2-73.5 93.9-16.3 11.2-34.2 19.7-51.2 29.8-9.8 5.8-19.7 11.3-30.2 15.3 4.3 0 8.6 0 13 .1 39.4-11.3 79.3-32.1 109-60.7 32.9-31.7 45.7-77 59.7-118.9 19.8-59.2 51.5-130.9 106-167.4-85.2-5-168.3 21.5-234.2 75.9zM380.8 487.7c12.5 15.7 23.8 33.5 36.6 49.5 11.7 14.6 28.3 30 45.1 38.1 1.5.7 14.1 4.4 31.1 4.8-3.5-3.8-6.9-7.6-10.2-11.5-32.6-1.5-59.6-34.8-77.4-58.6-24.5-32.8-46.4-65.5-83.3-85.5-3.6-2-3.6-4.5.8-4.3 15.7.4 32.7 3.8 47.7 9.9-2.6-4.4-3.6-6.7-7.9-8.3-23.6-9-46.9-10.6-71-5 35.9 16.1 63.3 39.3 88.5 70.9z"/><path class="st1" d="M477.4 549.2c-2.4-5.2-4.6-10.5-6.8-15.6-7.4-16.9-13.8-34.3-19.3-51.9C440 445.3 433.2 407 434 368.8c.8-40.6 13.5-80.4 25.1-118.9 10-33.3 18.7-67.3 35-98.3 2.2-4.2 4.1-1.7 4.5.8 3.4 23.2 17.9 43.2 32.1 61.1 14.1 17.8 30 34.1 44.4 51.8 25.7 31.7 43 66.8 46.3 107.9 3.1 39.4-7.4 79.5-26.7 113.7-19.7 35.1-48.8 68.4-80.8 93.1h9.3c39-24.4 68.7-65 91.7-104.1 23.6-40.3 32-87 22.9-131.8-2.6-12.7-8.5-30-13.5-40.7-18.2-39.8-48.9-75.2-75.8-108.7-22.6-28.2-46.4-57.7-55.1-93-19.7 75.6-56 146.1-71.4 222.9-16.2 80.9 6.7 160.6 55.4 224.6zM681 29.5c-49.8 53.6-85 115.5-96.2 188.4-.9 6-.5 10.2 2.9 14.8 3.4 4.6 6.8 9.1 10.1 13.7-.7-12 2.4-25.4 4.5-36.5 3.4-18.8 8.6-37.2 14.6-55.3 11.4-33.9 26.9-67.7 50.1-95.2 3.2-3.8 4.5-.9 3.8 1.9-9.3 35.7 1.5 71 10.5 105.7 8.3 31.8 12 63.9 8 96.5 3.5-1.8 7.1-3.6 10.7-5.3 5.9-2.8 7.1-5.1 7.5-11.3 2.5-41.9-7.5-81.3-16.6-122.2-7-30.8-13.6-63.6-9.9-95.2zM385.6 122.8c-23.3 53.9-31.8 116.1-15 172.9 4.9 2.3 9.6 4.7 14.1 7.3-7.2-21-9.2-43.9-9.9-65.9-.8-25.8.5-53.3 8.6-78 1-3.2 3.5-3.4 4.3.1 7.1 29.9 36.4 45.1 54.3 68.2 1.2-3.3 2.4-6.5 3.6-9.8-.2-.1-.4-.2-.5-.4-26.7-27.7-53.4-56.3-59.5-94.4zM821.6 376.1c-15.8 11.5-31.8 26.2-51.9 28.8-2.1 6.1-4.2 12.2-6.3 18.1 17.4-1.6 32.3-13.6 45.5-24.3 12.8-10.4 25.3-21.8 40.1-29.4 9.1-4.7 7.9-.9 5.1 3.6-20.6 33.4-37.3 69.4-61.7 100.3-12.2 15.5-26 28.8-42.1 40.2-18.6 13.2-41.5 19-62.2 28.2-21.2 16.1-45.5 29-70.6 38.4 10 0 20.1 0 30.1-.1 4 0 4.7-.8 7.7-3.6 15.1-14.4 31.9-25.8 51.2-34.1 18.5-8 37.7-13.8 55-24.4 29.9-18.4 50.9-48.8 69-78 18.7-30.3 28.9-67.2 53.2-93.4-22.7 4.7-43 15.8-62.1 29.7z"/><path class="st1" d="M352.4 388.5c16.1 21.8 29.9 44.3 43.3 67.8 12.3 21.5 26.6 43.2 48.5 55.4-3-5.5-5.8-11.2-8.4-16.9-29.8-27.7-45.1-66.8-67.5-100.1-11.5-17-23.8-33.5-35-50.7-9-13.9-19-29.5-24.6-45.3-1.3-3.6.1-5.6 4.5-3.2 32.2 17.3 74.9 21.6 97.7 52 .2-2.1.4-4.1.7-6.2.3-2.5.8-5 1.2-7.5 0 0-.1 0-.1-.1-21.1-21.1-44.4-32.8-72.6-42.7-18.1-6.3-38.1-10.3-53.2-22.2 9.8 44.4 39 84 65.5 119.7z"/><path class="st2" d="M463.2 483.6c-8.1-35.6-12-72.3-11.4-108.8.7-38.3 5.9-77.3 13.1-114.9 3.4-17.6 7.8-35 11.9-52.5.9-3.8 1.8-7.6 2.8-11.4-5.4 15.8-9.9 32-14.8 48-11.7 38.6-24.4 78-26.8 118.5-2.2 37.7 4.6 75.7 15 111.8 5.3 18.5 12 36.7 19.6 54.4 3.3 7.7 6.6 16.2 10.6 24.2-8.8-22.4-14.9-46.7-20-69.3zM620.6 281.4c3.8 6.6 7.3 13.3 10.6 20.2 2.6-2.1 5.2-4.2 7.9-6.3-12.2-70.1-10.5-141.4 15-207.6-13.6 25.6-21.2 54-26.8 82.4-3.8 19.5-6.5 39.4-8 59.2-.7 9.5-.8 19.1-.6 28.6.2 7.2.2 15.9 1.9 23.5zM541.7 392.3c5.8 34.3 10.2 69.8 5.5 104.5-2.9 21.8-9.4 47.8-22.7 67.7 45.5-45.7 56.3-122.2 50.1-183.5-4.3-42-20.1-80.4-38.7-117.9-11-22.1-26.1-44.7-34.5-68.8 3.4 27.6 9.6 54.8 16.2 81.9 9.5 38.5 17.5 77 24.1 116.1zM431.2 258.5c-21-21.7-35-49.5-43.9-78.3 1.1 16.4 5 32.9 9.6 48.4 5.7 19.1 13.5 40.9 26.2 56.9 2.5-9 5.2-18 8.1-27z"/><path class="st2" d="M455.7 371.4c-1.3 36.2 2.9 72.4 10.4 107.8 3.6 16.7 8.2 33.2 13.4 49.5 4.2 13.1 8.7 26.6 14.7 39.3 3.1 6.5 6.5 12.8 7.3.7.7-10.7 1.7-21.4 1.7-32.3 0-18.3-1.7-36.6-3.8-54.7-4.3-37.8-11.1-75.2-13.7-113.1-2.6-36.8-4.3-73.7-1.8-110.5 1.9-28.1 2.1-57.1 6.8-85.1-10.6 26.7-15.7 56.6-21.4 84.3-7.7 37.3-12.3 76-13.6 114.1z"/><path class="st2" d="M495.4 168.3c-5.9 30.5-5.8 62.6-7.9 93.4-2.5 36.8-.3 73.8 2.3 110.5 2.6 36.7 9.2 73 13.5 109.5 2.1 18.2 3.5 36.4 3.8 54.7.2 14.7-1.8 29.1-2.3 43.7h.2c14.2-10.6 22.6-27.9 28.8-43.9 6.5-16.8 9.7-34.7 11-52.6 2.7-36.7-3.6-73.5-10.1-109.5s-14.6-71.5-23.2-107.1c-7.9-32.5-14.6-65.3-16.1-98.7z"/><path class="st2" d="M557.7 250.8c-20.5-23.6-46.5-48.8-57.9-79.1 2.5 17.2 10 33.1 18.2 48.5 9.9 18.7 19.8 37.4 28.9 56.5 17.2 36 29.2 73.2 32.4 113.1 4.3 53.1-5.5 116.6-38.5 161.3 20.4-20.5 38.2-44.2 52-68.7 20-35.6 28.3-77.6 23.8-118.1-5-44.6-30.2-80.5-58.9-113.5zM326.6 306c5.1 3.4 10.1 6.9 15.2 10.4 9.9 6.7 20.5 12 30.4 18.7 15.4 10.4 27.1 23.1 37.1 38.1.1-6.5.4-13 1-19.6-18.4-28.2-53.4-35.3-83.7-47.6z"/><path class="st2" d="M364.8 354.2c16.8 22 30.3 46 48.2 67.2-2.2-13.5-3.5-27.2-3.7-41.1-11.1-17.8-23.9-31.8-41.7-43.7-9-6-18.7-10.9-27.8-16.9-6.1-4.1-12.1-8.3-18.3-12.3 14.4 15.7 30.3 29.8 43.3 46.8zM378.5 231.7c.2 24.7 2.3 51.2 11.4 74.4 7.2 4.5 14.1 9.6 20.8 15.5-4.5-8.6-7.2-18.4-10.4-27.4-5.2-14.3-9.8-28.9-13-43.8-4.2-19.2-7-40.6-6.6-61-1.9 14-2.3 28.3-2.2 42.3zM389.8 175.2c8.5 29 22 57.2 42.8 79.3 2.5-7.6 5.2-15.3 7.9-22.8-14.8-20.6-38.6-34.5-50.7-56.5z"/><path class="st2" d="M394.3 232.9c-4.4-13.4-8-27.9-9.9-42.5-.3 21 3 42.9 7.3 62.4 2.7 12.6 6.9 24.9 11.1 37 3.5 10.2 6.7 21.7 12 31.3 2-10.5 4.3-20.9 7.1-31.2-13.4-15.8-21.2-37.5-27.6-57zM336.6 342.2c11 17.3 23.4 33.7 35 50.7 20.5 30.3 34.9 65.4 59.9 92.3-7.6-18.2-13.4-37-17.2-56.4-17.9-19.9-31.4-42.7-46.8-64.5-15.1-21.3-34.6-38.1-51.5-57.5 5.8 12.4 13.6 24.4 20.6 35.4zM337.1 425.1c17.1 6.7 32.8 17 47.3 28.4-3.4-6-6.8-12-10.2-17.9-11.3-5.3-24.3-8.8-37.1-10.5zM835 396.6c-5 7.7-9.7 15.7-14.7 23.4-9.8 15.1-20.3 29.8-31.4 44-10.2 13.1-21.8 24.7-35.4 34.3-9.5 6.7-22.5 14.7-34.7 14.3-6 7.3-12.5 14.2-19.8 20.4 14.9-5.9 30-11.2 44-19.3 19.1-11.1 34.9-27.7 48.3-45.1 21.5-27.9 37-59.7 54.9-89.9-4 5.8-7.5 12.2-11.2 17.9zM622.4 175.5c4-23.9 10-48.2 19.4-70.9-8.4 16.4-15.4 33.7-21.3 51-5.6 16.4-10.1 33.1-13.6 50-2.9 14.2-8 33.1-4.4 47.4v.1c4.3 6.2 8.5 12.5 12.5 18.9-1.3-12-.4-24.9.1-35.6.8-20.4 3.9-40.7 7.3-60.9z"/><path class="st2" d="M721.8 508.8c14.1-.9 30-13.5 39.8-21.5 12.9-10.6 23.1-23.8 33-37 8.8-11.8 17.1-24 25.1-36.4-5.4 7.5-10.8 15-16.7 22.1-15.2 18.4-37.5 38.1-61.9 42.4-5.6 10.7-12 20.9-19.3 30.4zM762.1 427c-2 5.7-3.9 11.2-5.9 16.7 34.1-2.5 58-35 78.7-61-10.3 7.6-19.9 16.3-29.9 24.1-12.6 9.7-26.7 19.3-42.9 20.2zM685.2 265.5c5-36.7-.9-71.8-10.2-107.4-6.9-26.3-13.6-53-11.1-79.9-17.9 64.5 10.4 131.5 4.3 197.1 5.6-3.4 11.3-6.6 17-9.8z"/><path class="st2" d="M642.5 292.8c7-5.2 14.2-10.1 21.6-14.8 6.7-62.4-18.5-126.2-6.8-187.9-24.8 64.6-26.5 134.3-14.8 202.7zM649.5 371.5c10.1-13 19.7-26.3 30.7-38.6 12.1-13.4 25.6-25.4 39.9-36.4 26.1-19.9 56.2-35.3 88.1-43.4-26.3 3.3-52.1 9.8-77 19.3-31.5 12.1-67.5 30.7-89.1 57.4 2 6.4 3.6 12.9 4.9 19.6 1.4 7.5 2.2 14.8 2.5 22.1zM740.1 418.4c11.3-32 19.4-65.1 32.1-96.7 7-17.4 15.7-34.8 27.5-49.5-19.3 17.9-35.7 38.7-49.8 61.1-20.5 32.6-34.7 68.2-50.5 103.2-15.5 34.4-34.2 64.9-63.2 89.4-13.7 11.5-28.7 21.3-44 30.5-14.6 8.8-30.4 16.4-47.5 17.6-2.6 2-5.2 4-7.8 5.9 10.4-.1 20.7-.1 31-.1 16.5-3.7 31.3-12.6 45.8-21.2 17.5-10.3 35.5-19.2 52.1-30.9 38.4-26.9 59-65.8 74.3-109.3z"/><path class="st2" d="M549.9 569.8c17.6-2.7 33.5-12.2 48.5-21.6 15.7-9.8 30.6-20.5 44.3-33 29.6-27.1 46.1-63.5 61.9-99.7 25.2-58 54.4-114.7 103.2-155.4C755.6 286.4 715 334 687.9 385c-15.6 29.4-28 59.9-46.2 88-12.3 19-25.7 38.4-46.7 47.6-13.2 18-28.3 35-45.1 49.2zM450.6 523.3c-27.8-11.3-45.5-34.9-60.7-60.4-15.7-13.1-32.9-25.4-51.8-33.3 24.6 16.8 43.1 39.7 60.7 64.2 10.7 14.9 21.4 29.7 34.4 42.6 12.3 12.3 28.7 25.6 46.6 28.1-10.8-13.1-20.6-26.9-29.2-41.2.1 0 .1 0 0 0z"/><path class="st2" d="M599.8 514c19.9-11.5 32.3-33.2 44.6-52.2 19.1-29.5 30.7-63.1 48.4-93.3 26.1-44.5 63.2-85 109.1-109.5-28.9 8.5-55.7 23-79.9 41-15.1 11.2-28.8 24.2-41.4 38.2-11.1 12.4-20.7 26.2-31 39.3.3 37.8-12.5 75.4-31.5 107.8-5.5 9.5-11.6 19.2-18.3 28.7zM743.3 474.1c23.7-5.6 44-25.1 58.9-43.1 6.7-8.1 12.8-16.6 18.8-25.1-17.9 21.1-38.8 40.5-66.3 41.7-3.3 9-7.1 17.9-11.4 26.5z"/><path class="st3" d="M675.6 669.7c-36.4 1.3-72.8 1.7-109.2 1.7-35.7-.1-71.3-.8-107-2.2-21.5-.8-44.3-1-65.9-5.2 3.9 26.3 6.6 53.6 13.9 79.1 6.9 24.1 27.9 31.9 50.4 34.3 36.8 4 74.3 4 111.3 4.1 38.2.1 76.7-.2 114.8-3.7 22.5-2.1 43.3-7.8 52.8-30.7 10.3-24.7 11.5-55.4 15.2-82.3-24.4 5.5-52.2 4.1-76.3 4.9z"/><path class="st4" d="M386.6 599.3c30 3.1 59.9 5.5 90.1 6.6 17.6.6 35.1 1.2 52.7 1.4 9.7.1 19.5.2 29.3.8 22.6 1.4 22.9 5.8.5 7.8-10.2.9-20.6 1.1-30.7.9-17.6-.2-35.2-.7-52.7-2.1-30.1-2.3-60.3-5.4-90.2-10.1-22.1-3.5-21.3-7.6 1-5.3z"/><path class="st4" d="M590.7 614.7c10.3.8 11.1-6.3.8-6.6-12.6-.2-13.4 5.6-.8 6.6z"/><path class="st5" d="M380.8 487.7c12.5 15.7 23.8 33.5 36.6 49.5 3.7 4.7 8 9.4 12.6 14-.9-.9-1.8-1.9-2.7-2.8-7.4-8.1-13.7-17.2-19.6-26.3-12.2-18.9-24-38.8-39.3-55.3-13.9-15-29.8-28.5-47.3-39.1-3-1.8-6-3.5-9.1-5.1-9.1-4.7-7.3-5.2-.1-5.8 1.2-.1 2.5-.2 3.7-.3 8.8-.5 17.7-.1 26.5.4 2.1.1 4.2.3 6.3.4-18.7-4.7-37.3-4.8-56.4-.4 36.2 16 63.6 39.2 88.8 70.8zM430.6 461c-.6-3.4-1.1-6.9-1.6-10.4-1.6-11.9-3.3-23.7-4.5-35.6-2-19.9-1.4-39.6.8-59.4 2.7-25.2 8.5-49.3 16.4-73.3 6.9-20.8 34.2-97.5 45.8-135.1 6.8-22 11.4-10.1 17.2 1.8 8.6 17.6 19.9 33.7 31.9 49.1 27.5 35 59.7 67 78.7 107.8 18.8 40.4 21.5 87.6 11.3 130.6-4 16.8-10 33-17.3 48.6 1.9-3.1 3.7-6.1 5.5-9.2 23.6-40.3 32-87 22.9-131.8-2.6-12.7-8.5-30-13.5-40.7-18.2-39.8-48.9-75.2-75.8-108.7-22.6-28.2-46.4-57.7-55.1-93-19.7 75.6-56 146.1-71.4 222.9-9.3 46.8-5.6 93.2 8.7 136.4zM385.6 122.8c-21.2 49-30.1 105-18.9 157.4-2.8-20.3-2.5-40.8-.6-61.2 2.1-22.7 6.3-45.1 13.5-66.4 4.2-12.5 7-5 9.3.3 4.8 10.8 11.6 20.9 19.2 30 9 10.8 19.2 20.4 29.9 29.5 2.5 2.1 4.8 4.4 6.9 6.7.2-.6.4-1.1.6-1.7-.2-.1-.4-.2-.5-.4-26.6-27.5-53.3-56.1-59.4-94.2zM599.9 177.8c7.2-23.2 16.8-45.8 27.8-67.5 10.4-20.6 22.8-40.2 37.6-57.7 10.6-12.5 8.8-.5 8.6 3.8-.1 3.2-.2 6.3-.2 9.4 0 20.8 3.1 41.9 7.7 62.2 5.7 25.4 13.7 50.5 21.7 75.3 1.5 4.6 2.9 9.2 4.2 13.9-2.1-31.2-9.5-61.5-16.4-92.6-6.9-30.7-13.5-63.4-9.8-95-49.8 53.6-85 115.5-96.2 188.4-.9 6-.5 10.2 2.9 14.8.4.5.8 1 1.1 1.5.5-6.7 1.2-13.4 2.3-20.1 1.9-12.4 5-24.5 8.7-36.4z"/><path class="st5" d="M634.4 308.8c1.3 3 2.5 6.1 3.7 9.2 3.6-3.3 7.2-6.5 10.9-9.6 9-7.4 18.5-14.1 28.4-20.2 20.2-12.6 42.1-22.5 64.5-30.3 28.8-10.1 59-15.9 89.4-16.7 13.7-.4 4.8 6.4-.5 12.1-13.4 14.5-24.4 31.2-34.1 48.4-23.4 41.4-33.9 87.5-49.1 132.1-6.6 19.4-14.2 38.4-25.9 55.3-10.8 15.6-24.5 29.1-39.2 41-14.9 12.1-31.2 22.3-48.1 31.3-8.3 4.4-16.8 8.4-25.3 12.1-5.1 2.2-10.1 4.4-15.2 6.6h.2c39.4-11.3 79.3-32.1 109-60.7 32.9-31.7 45.7-77 59.7-118.9 19.8-59.2 51.5-130.9 106-167.4-85.4-5.2-168.5 21.3-234.4 75.7z"/><path class="st5" d="M821.6 376.1c-15.8 11.5-31.8 26.2-51.9 28.8-1 2.8-2 5.6-2.9 8.4 9.5-1.2 18.6-4.5 26.7-10.2 12.2-8.6 23.1-18.8 35-27.6 8.7-6.5 18.1-11.9 28.2-15.5 13.5-4.8 8.6 3.1 4.4 9.8-11.2 17.9-20.2 37-29.8 55.8-10.6 20.6-22.5 40.1-37.1 58.1-7.8 9.6-16.2 18.8-24.6 27.8-1 1.1-2.1 2.2-3.2 3.3 27.4-18.6 47.2-47.3 64.3-75 18.7-30.3 28.9-67.2 53.2-93.4-22.9 4.7-43.2 15.8-62.3 29.7zM352.4 388.5c16.1 21.8 29.9 44.3 43.3 67.8 1.2 2.2 2.5 4.4 3.8 6.5-1.7-4.1-3.5-8.2-5.4-12.2-5-10.7-10.8-21.1-17.6-30.8-7.5-10.7-15.4-21.1-22.7-31.9-13.8-20.6-26.5-42.1-38.2-63.9-4.9-9.2-9.3-18.7-13-28.4-5.7-15.1-3.1-14.1 13.1-7.1 10.4 4.5 21.2 8.4 31.8 12 13.6 4.6 27.3 8.6 40.8 13.6-14.6-9.6-30.5-16.6-48.3-22.8-18.1-6.3-38.1-10.3-53.2-22.2 9.9 44.1 39.1 83.7 65.6 119.4z"/><path class="st6" d="M568.2 455.5c-4.2 20.2-12.1 38.7-23.3 55.4-3.6 18.3-9.9 37.9-20.3 53.6 45.5-45.7 56.3-122.2 50.1-183.5-.4-4-.9-8-1.5-12 0 5.1.3 10.3.6 15.5-.3 23.7-.7 47.5-5.6 71zM374.2 435.6c-2.1-1-4.3-1.9-6.6-2.8 2.2 4.2.7 6.6-3.3 6.3 6.9 4.4 13.6 9.2 20.1 14.3-3.4-5.9-6.8-11.9-10.2-17.8zM463.2 483.6c-5.2-22.7-8.6-45.9-10.3-69.1-2.7 1.8-6.8 3.4-9.8 2.4-1-.3-1.9-.8-2.7-1.5 2.7 20 7.2 39.7 12.7 59 5.3 18.5 12 36.7 19.6 54.4 3.3 7.7 6.6 16.2 10.6 24.2-8.9-22.5-15-46.8-20.1-69.4zM434.1 235.7c-2.3 1.8-4.8 3.8-7.7 4.5-1.7.4-3.4.3-5-.2-.3-.1-.6-.2-.8-.2 3.7 5.1 7.7 10 12.1 14.6 2.5-7.6 5.2-15.3 7.9-22.8-.3-.4-.5-.7-.8-1.1-1.8 1.9-3.7 3.6-5.7 5.2z"/><path class="st6" d="M590.6 444.4c-2.9 1.7-5.9 3.3-9.1 4.5-.8.3-2 .7-3.4 1.1-4.5 36.3-16.1 72.6-37.2 101.1 20.4-20.5 38.2-44.2 52-68.7 11.6-20.8 19.3-43.7 22.8-67.3-2.7 5.7-5.9 11.2-9.9 16.1-4.3 5.4-9.4 9.7-15.2 13.2zM504.9 497.4c1.2 13 2 26 2.1 39.1.2 14.7-1.8 29.1-2.3 43.7h.2c14.2-10.6 22.6-27.9 28.8-43.9 6.5-16.8 9.7-34.7 11-52.6 1.2-15.6.7-31.3-.7-46.9-2.3 7.6-5.4 14.8-9.1 21.8-4.5 8.3-9.7 16.3-15.8 23.6-3 3.5-6.1 6.9-9.2 10.3-1.1 1.1-3 3.2-5 4.9zM457.4 423.1c1.8 18.9 4.8 37.6 8.8 56.1 3.6 16.7 8.2 33.2 13.4 49.5 4.2 13.1 8.7 26.6 14.7 39.3 3.1 6.5 6.5 12.8 7.3.7.6-8.2 1.3-16.4 1.5-24.7-1.5-1.3-2.9-2.5-4.2-3.9-3.7-4.2-6.7-8.8-9.4-13.6-5.6-9.9-9.4-20.7-12.9-31.5-7.5-23.6-13.7-47.8-19.2-71.9zM409.3 380.3c-2.3-3.7-4.7-7.2-7.1-10.6-1.3.7-2.7 1.3-4.1 1.8-4.5 1.3-9.3 1.3-13.7.1-3.8-1-7.4-2.9-10.6-5.1 13 18.4 24.6 37.6 39.2 54.9-2.3-13.5-3.5-27.2-3.7-41.1zM414.3 428.9c-4-4.4-7.7-9-11.3-13.7-.7 1.1-1.6 2.2-2.6 3.2-2 1.8-4.2 2.6-6.8 2.9-1.2.1-2.4.1-3.6-.2-.4-.1-.9-.2-1.3-.3 12.9 22.5 25.2 45.5 42.8 64.4-7.6-18.1-13.4-37-17.2-56.3zM401.2 350.4c-1.7 1.5-3.9 2.2-6.2 1.7-1.1-.2-2.2-.5-3.3-.8 6.5 6.7 12.3 14 17.6 21.9.1-6.5.4-13 1-19.6-1.8-2.8-3.8-5.4-5.9-7.8-.8 1.7-1.7 3.3-3.2 4.6zM407.8 251.8c-1.4-.8-2.4-1.8-3.6-2.8-.2-.2-.4-.3-.6-.5 4.9 13.2 11.2 26.4 19.6 37 2.5-9 5.2-18 8.1-27-2-2-3.8-4.1-5.7-6.3-2.7 1.2-5.8 2-8.8 1.9-3.2.1-6.3-.8-9-2.3zM389.9 306.1c7.2 4.5 14.1 9.6 20.8 15.5-3.4-6.5-5.8-13.7-8.1-20.7-2.1-.1-4.3-.5-6.3-1.5-3.4-1.6-5.9-4.2-8.3-7-1.5-1.7-2.8-3.5-4-5.4 1.6 6.5 3.5 12.9 5.9 19.1zM405.5 298c2.6 7.9 5.4 16.1 9.3 23.2 1.7-9.2 3.8-18.4 6.1-27.5-5.5 9.2-11 8.3-15.4 4.3zM549.9 569.8c17.6-2.7 33.5-12.2 48.5-21.6 15.7-9.8 30.6-20.5 44.3-33 29.6-27.1 46.1-63.5 61.9-99.7 5.9-13.5 12-26.9 18.5-40.1-19.5 26.7-35.8 55.7-54.3 83.1-8.8 13-18.3 26.5-31.2 35.8-5.9 4.3-12.8 8.1-19.6 10.6-.2.1-.4.1-.6.2-6.5 6.4-13.7 11.8-22.3 15.5-13.3 18-28.4 35-45.2 49.2zM601.4 245.1c.1 2.8.5 5.5 1.1 8v.1c4.3 6.2 8.5 12.5 12.5 18.9-1.3-11.9-.4-24.6 0-35.3-2.3 6.1-7.5 17.3-13.6 8.3zM450.6 523.3c-27.8-11.3-45.5-34.9-60.7-60.4-2.8-2.3-5.6-4.6-8.5-6.9 3.1 6.9 7.4 13.4 11.1 19.7 5.1 8.6 11.3 16.7 18 24.1 6.1 6.7 12.7 12.8 20 18.1 3.9 2.8 19.4 20.1 22.6 25.2 4 6.3 8.5 12.1 13.4 17.6 4.3 1.8 8.7 3.1 13.2 3.7-10.7-13-20.5-26.8-29.1-41.1.1 0 .1 0 0 0zM759.2 495c-.7.2-1.4.5-2.1.7-1.2.9-2.4 1.8-3.6 2.6-9.5 6.7-22.5 14.7-34.7 14.3-6 7.3-12.5 14.2-19.8 20.4 14.9-5.9 30-11.2 44-19.3 13-7.6 24.5-17.7 34.8-28.9-2.3 1.9-4.8 3.6-7.4 5.1-3.6 2-7.4 3.8-11.2 5.1z"/><path class="st6" d="M721.8 508.8c14.1-.9 30-13.5 39.8-21.5 5.7-4.7 11-10 15.9-15.5-6.4 3.4-19.9 7.5-33.4 6-1 .2-2 .4-2.9.6-5.7 10.7-12.1 20.9-19.4 30.4zM677.9 211.4c-2.4 6.9-5 14.8-9.8 20.6 1.1 14.5 1.4 29 .1 43.4 5.6-3.4 11.3-6.7 17.1-9.8 3.3-24.3 1.9-48-2.2-71.5 0 .1-.1.2-.1.4-1.5 5.6-3.1 11.3-5.1 16.9zM620.6 281.4c3.8 6.6 7.3 13.3 10.6 20.2 2.6-2.1 5.2-4.2 7.9-6.3-4.1-23.4-6.6-46.9-7.2-70.3 0 .1-.1.2-.1.3-1.2 3.8-2.4 7.5-4.2 11.1-1.7 3.5-3.7 6.9-5.9 10.1-1 1.4-2.1 2.8-3.1 4.2 0 2.4.1 4.7.1 7.1.2 7.3.2 16 1.9 23.6zM639.3 271.7c.9 7 2 14.1 3.1 21.1 7-5.2 14.2-10.1 21.6-14.8 1.2-11.2 1.4-22.5.9-33.8-3.1 16.2-13.2 41.2-25.6 27.5zM713.8 450.4c-19.5 25.3-42.5 48-68.1 67.1-.1.1-.2.2-.3.2-2.9 2.8-6 5.6-9.2 8.3-13.7 11.5-28.7 21.3-44 30.5-14.6 8.8-30.4 16.4-47.5 17.6-2.6 2-5.2 4-7.8 5.9 10.4-.1 20.7-.1 31-.1 16.5-3.7 31.3-12.6 45.8-21.2 17.5-10.3 35.5-19.2 52.1-30.9 38.6-27.1 59.2-66 74.5-109.5 2.5-7.2 4.9-14.5 7.2-21.8-2.3 4.4-4.6 8.8-7.1 13.2-8 14.2-16.7 27.9-26.6 40.7zM743.3 474.1c12.8-3 24.7-10.1 35.2-18.9-2.4-.3-4.7-1.1-6.6-2.6-1.8-1.5-3.3-3.4-4.2-5.5-.2-.4-.3-.9-.5-1.3-4 1-8.2 1.7-12.6 1.9-3.2 8.9-7 17.8-11.3 26.4zM649.5 371.5c10.1-13 19.7-26.3 30.7-38.6 12.1-13.4 25.6-25.4 39.9-36.4 2.6-2 5.3-3.9 8-5.8-7.8 2-15.3 6.1-22.1 10-8.6 4.9-17.1 10-25.1 15.8-7.5 5.4-26.9 23.9-32.5 6.1-2.2 2.3-4.3 4.7-6.3 7.2 2 6.4 3.6 12.9 4.9 19.6 1.4 7.5 2.2 14.8 2.5 22.1zM599.8 514c19.9-11.5 32.3-33.2 44.6-52.2 19.1-29.5 30.7-63.1 48.4-93.3 14.4-24.6 32.3-48.1 53.2-68.2-6.9 4-16.2 11.2-20.2 14.6-11.6 9.8-22.4 20.6-32.2 32.2-12.3 14.4-29.3 27.3-34.8 18.6-3 4-6 8-9.1 11.9.3 37.8-12.5 75.4-31.5 107.8-5.6 9.4-11.7 19.1-18.4 28.6zM762.1 427c-2 5.7-3.9 11.2-5.9 16.7 13.9-1 26.2-7 37.1-15.6-8.2 2.8-22.4 5-20.6-2.9-3.4.9-7 1.6-10.6 1.8z"/><path class="st7" d="M474.7 231.4c-2.1 19.1-3.1 38.3-3.3 57.6-.4 38.7 3.6 77.5 11.3 115.4 2.1 10.4 4.4 20.8 7.6 31 1.3 4.3 3 8.4 4.8 12.5-3.6-26.4-7.5-52.7-9.4-79.3-2.6-36.8-4.3-73.7-1.8-110.5 1.9-28.1 2.1-57.1 6.8-85.1-7.1 18-11.8 37.4-15.8 56.6 0 .6-.1 1.2-.2 1.8zM517.7 276.2c9.4 38.5 17.5 77 24.1 116.1.9 5.5 1.8 11 2.6 16.6.3-4 .5-7.9.6-11.8.4-17.3-1.3-34.6-4-51.7-5.6-34.8-16-68.7-24.1-103-2-8.3-3.7-16.7-5.3-25.1-3.8-7.5-7.2-15.2-10-23 3.2 27.6 9.4 54.8 16.1 81.9zM340.6 323.8c7.3 6.1 15 11.4 23.3 16.2 9.3 5.4 19.3 10.6 28 17.3-7-7.6-15-14.4-24.2-20.6-9-6-18.7-10.9-27.8-16.9-4.9-3.2-9.6-6.6-14.4-9.8 1.2 1.4 2.4 2.9 3.8 4.2 3.5 3.4 7.5 6.4 11.3 9.6zM503 315.7c-.7-6.8-1.4-13.5-1.9-20.3-1.7-19.7-6.3-20.1-7.1-.1-1.9 44.5 9 100 12.2 111.8 5.5 20.2 9.5 17.5 7.1-3.1-1.7-14-3.7-32-5.5-46-2-14.1-3.3-28.2-4.8-42.3zM384.5 196.2c.4 6.2 2.1 12.4 3.2 18.4 1.3 7.6 2.9 15 5.2 22.3 2.7 8.7 6.5 20.1 13.4 27.5-4.8-10.3-8.5-21.2-11.9-31.4-4.4-13.4-8-27.9-9.9-42.4v.1c-.1 1.7-.1 3.6 0 5.5zM348.6 351.3c7.8 8.6 15.5 17.3 23.3 25.9 3.9 4.4 7.7 9.2 12.2 13.1.9.8 1.9 1.6 2.8 2.4-6.4-9.4-12.6-18.9-19.2-28.2-15.1-21.3-34.6-38.1-51.5-57.5 2.7 5.9 6 11.8 9.3 17.5.5.6 1 1.3 1.5 1.9 6.8 8.5 14.2 16.7 21.6 24.9zM416.8 244.4c.8.3 1.6 0 1.9-.6-14.2-18.9-24.4-41-31.4-63.6.5 7.3 1.5 14.6 3 21.8 1.3 3.8 2.8 7.6 4.6 11.3 2.8 5.9 5.9 11.6 9.4 17.1 3.3 5.4 6.6 11.5 12.5 14zM341.8 316.4c3.7 2.5 7.4 4.8 11.2 7 1.3.5 2.6.9 3.9 1.3 8.5 2.5 17.4 3.9 26.1 5.2l2.1.3c-7.3-4.4-15.3-7.9-23.5-11.2-6.1-1.6-12.2-3.6-17.7-6.6-5.9-2.1-11.7-4.2-17.4-6.6 5.2 3.6 10.2 7.1 15.3 10.6zM378.5 222.5c.7 6 1.7 11.9 2.9 17.8 1.6 8 3.5 15.8 6.1 23.5 2.2 6.5 5.2 12.3 8.5 18.1-3.4-10.3-6.4-20.8-8.8-31.5-4.2-19.2-7-40.6-6.6-61-1.3 11-1.9 22.1-2.1 33.1zM776.8 269.2c6.3-2.7 12.8-5 19.3-7 1.9-1.1 3.9-2.2 5.9-3.2-28.9 8.5-55.7 23-79.9 41-8.1 6.1-15.9 12.6-23.2 19.6 12-10.3 24.4-20.4 37.8-28.9 12.8-8.2 26.1-15.6 40.1-21.5zM630.3 139c3.1-11.7 6.9-23.2 11.6-34.4-8.4 16.4-15.4 33.7-21.3 51-3.3 9.5-6.1 19.1-8.6 28.8 2.8-7.1 5.7-14.1 8.5-21.2 3.1-8.1 6.4-16.1 9.8-24.2zM663.9 78.3c-7.1 25.7-6.9 51.7-4.5 78 0-2 .1-4 .1-6 .3-13.1 1.6-26.2 3.1-39.2l1.2-8.7c-.6-8.1-.7-16.1.1-24.1zM415.1 208.6c3 2.2 6.1 3.8 9.4 5.1-12.6-12.2-26.4-23.5-34.7-38.6 1.1 3.7 2.2 7.4 3.5 11 2.4 3.5 5 6.9 7.9 10.1 4.2 4.7 8.9 8.7 13.9 12.4zM624.9 196.8c2.4-12.5 4.6-25 7.7-37.4 3-12 6.3-24 9.9-35.9.3-1 .7-2 1.1-3.1 2.9-11 6.4-21.9 10.6-32.7-13.6 25.6-21.2 54-26.8 82.4-3.3 16.8-5.7 33.8-7.3 50.9.5-1.8 1-3.6 1.4-5.4 1.2-6.2 2.2-12.5 3.4-18.8zM722.2 340.6c17.9-22.8 38.1-44.3 62-60.9 2.7-1.9 5.4-3.6 8.1-5.4 5-4.9 10.1-9.6 15.5-14.1-52.2 26.3-92.8 73.9-119.9 124.9-3.8 7.1-7.3 14.2-10.9 21.4 6.6-8.9 11.9-18.8 17.9-27.9 8.6-13.1 17.7-25.8 27.3-38zM643.7 182.8c2.3-15.4 4.9-30.7 7.9-46 .8-4.1 1.6-8.1 2.5-12.2.1-11.6.9-23.1 3.1-34.5-18.7 49-24.2 100.9-20.7 152.9.7-4.5 1.3-9 1.8-13.5 1.7-15.6 3.1-31.2 5.4-46.7zM767.4 267.9c13.2-6.2 26.9-11.1 40.9-14.7-26.3 3.3-52.1 9.8-77 19.3-14.5 5.6-30 12.6-44.6 21.1 10.8-4.9 22-9.3 33.1-13 15.4-5.2 31.4-9.3 47.6-12.7zM499.8 171.7c2.5 17.2 10 33.1 18.2 48.5 1.8 3.3 3.5 6.7 5.3 10 4.5 5.9 9.3 11.5 14.1 17.4 22.6 27.6 49.5 51.6 67.4 82.7 3.8 6.6 6.9 13.4 9.7 20.4-8.1-38.5-31-70.4-56.7-100.1-20.6-23.4-46.5-48.7-58-78.9zM749.9 333.4c-19.4 30.8-33.1 64.3-47.9 97.4 2.9-4.4 5.6-8.9 8.3-13.4 8.3-14.1 16.1-28.5 24.1-42.8 7.6-13.6 16.3-26.5 24.9-39.5 5.5-8.4 11.3-16.5 17.6-24.3 6.1-13.6 13.6-26.9 22.9-38.5-19.3 17.9-35.8 38.6-49.9 61.1zM815.9 403.7c1.8-1.3 3.6-2.7 5.4-4.1 4.7-5.7 9.2-11.5 13.6-17-10.3 7.6-19.9 16.3-29.9 24.1-4.7 3.6-9.6 7.2-14.8 10.4 3.7-.9 7.5-2.8 10.6-4.3 5.3-2.6 10.3-5.7 15.1-9.1z"/><path class="st3" d="M794 557.3c-22.2-7.6-47.3-8.6-70.8-9.7-6-.3-7.4-.8-12 1.2-17.8 7.8-33.7 17.8-48.1 31 36.7-.7 73.5-2.6 109.3-8.2 8-1.2 15.9-3 23.6-5.5 10.2-3.4 5.9-6.1-2-8.8zM353.3 567.7c4.9 1.3 9.9 2 14.5 2.8 27.9 5.1 56.7 7.5 85.6 8.7-14.5-8-25.9-18.8-36.2-31.1-21.1 1.5-42.6 3-63.2 8.3-8 2.1-16.8 7.2-.7 11.3z"/><path class="st8" d="M691.3 649.7c-18.8 1.5-37.6 2.5-56.4 3-37.4 1-74.8.6-112.2-.3-18.5-.5-37.1-1.1-55.6-1.7-14.3-.5-38.5-.2-61.1-3.1-21.7-2.8-42-8.5-50.6-20.7 5.3 15.2 14.6 23.6 31.6 28 25.1 6.5 53.2 5.9 78.9 6.9 31 1.2 62 1.7 93 1.9 58.2.4 117.1.5 175.1-4.9 24.7-2.3 46.9-7 53.9-33.4.1-.5.3-1.1.4-1.6-17.1 22.4-79.7 24.6-97 25.9zM619.7 592.8c31.6-.9 63.8-1.4 95.1-6.5 4-.7 8-1.5 12-2.4-1.3.1-2.5.1-3.7.2-42.8 2.6-85.8 3.2-128.7 3.3h-21.8c-15.7 0-31.4-.1-47.1-.3h-.4c-32.4-.4-64.8-1.3-97.2-3 30.6 5.7 62.1 7.3 93.3 8.3 32.9 1.1 65.7 1.4 98.5.4z"/><path d="M751.8 664.9c-24.4 5.4-52.2 4-76.2 4.8-36.4 1.3-72.8 1.7-109.2 1.7-35.7-.1-71.3-.8-107-2.2-21.5-.8-44.3-1-65.9-5.2.7 4.5 1.3 9.1 1.9 13.6 22.3 9.3 115 15.5 164.8 16.5 71 1.4 156.9-3.6 190.2-18.3.5-3.7.9-7.3 1.4-10.9z" style="fill:#84391c"/><path d="M457.8 777.5c36.8 4 74.3 4 111.3 4.1 38.2.1 76.7-.2 114.8-3.7 22.5-2.1 43.3-7.8 52.8-30.7 1.2-2.8 2.2-5.7 3.2-8.7-5.1 7.2-11.2 13.6-18.8 18.3-11.6 7.1-25.4 9.6-38.8 10.9-1.8.2-3.7.3-5.5.5-8.4 1.2-16.6 1.9-23.6 2.7-20 2.2-41 3.6-61.2 1.3-17.7.4-35.3.6-53 .6-16 0-32.1-.3-48.1-.8-14.6-.5-30.4.5-44.6-3.3-23-6.1-34.4-18.2-41.2-34.7l2.4 9.3c6.8 23.9 27.8 31.7 50.3 34.2z" style="fill:#f89c5a"/><path class="st11" d="M282.5 411.2c26.3-7.6 52.1-7.4 77.7 1.3-1-1.5-2-3.1-3-4.5-31.8-45.3-71.4-91.2-79.8-147.6-.9-5.8 3.2-8.4 8.1-3.1 17.5 19 46.9 22.2 69.9 31.6 2.1.9 4.1 1.7 6.2 2.6-16.2-61.2-4.5-127.8 22.6-184.1 2.9-5.9 7.6-2.7 7.7 1.8 1.2 41.9 29 71.8 56.6 100.5 15.2-40.9 31.2-81.5 41-123.8 1.7-7.5 8-6.6 8.9 1 6.1 51.3 47.8 91.9 78 131 .2.3.5.6.7 1 11.9-79 50.3-145.3 105.7-202.4 3.8-3.9 8.5-2.1 7.3 4-8.1 40.3 3.7 83.5 12.8 122.8 8.4 36.1 14.9 71.1 11.8 108.1 51.4-21.6 107.7-30.6 164.7-25.4 6.3.6 5.3 5.9 1.5 8.1-58 33.4-86 99.9-108.3 162.6 22.7-4.7 41.4-26.2 60.6-37.5 19.7-11.6 38-19.5 60.8-22.1 6.2-.7 6.7 3.8 3.1 7-30.7 26.8-42.3 71.2-63.3 105.2-16.2 26.1-35.3 50.9-60 69.5-12.6 9.4-26.8 15.7-41.3 21.4 23.2 1 48.8 2.5 69.1 11.7 8.5 3.9 9.5 9.5 8.5 14-4.8 21.6-10 43.3-15.6 64.7-4.4 16.8-16.3 26.1-32.3 31.4-.8.3-1.6.5-2.4.7-6.9 46.2-4.4 112-62 121.1-40.6 6.4-83.2 5.3-124.2 5.4-41.2 0-83.5.6-124.4-5.1-59.3-8.4-56.6-74.5-63.8-121.8-2.9-.7-5.8-1.5-8.7-2.4-13.5-4.2-21.9-13.5-27.2-26.2-8.6-20.6-12.5-44.9-16.4-67-1-5.3-.6-9.2 5.8-13 19.3-11.5 49.2-11.8 72.3-12.9-5.9-7.6-11.7-15.5-17.7-23.6-31.3-42.1-62.4-76.6-111.8-96.7-3.9-1.7-8.2-6.7.8-9.3zm57.5-120c-18.1-6.3-38.1-10.3-53.2-22.2 10 44.3 39.1 83.8 65.6 119.6 16.1 21.8 29.9 44.3 43.3 67.8 12.3 21.5 26.6 43.2 48.5 55.4-3-5.5-5.8-11.2-8.4-16.9-29.8-27.7-45.1-66.8-67.5-100.1-11.5-17-23.8-33.5-35-50.7-9-13.9-19-29.5-24.6-45.3-1.3-3.6.1-5.6 4.5-3.2 32.2 17.3 74.9 21.6 97.7 52 .2-2.1.4-4.1.7-6.2.3-2.5.8-5 1.2-7.5 0 0-.1 0-.1-.1-21.2-21-44.5-32.7-72.7-42.6zm161.5 277.5c.7-10.7 1.7-21.4 1.7-32.3 0-18.3-1.7-36.6-3.8-54.7-4.3-37.8-11.1-75.2-13.7-113.1-2.6-36.8-4.3-73.7-1.8-110.5 1.9-28.1 2.1-57.1 6.8-85.1-10.6 26.7-15.7 56.6-21.4 84.3-7.7 37.3-12.3 76.1-13.6 114.2-1.3 36.2 2.9 72.4 10.4 107.8 3.6 16.7 8.2 33.2 13.4 49.5 4.2 13.1 8.7 26.6 14.7 39.3 3.1 6.4 6.5 12.7 7.3.6zm3.4 11.4c14.2-10.6 22.6-27.9 28.8-43.9 6.5-16.8 9.7-34.7 11-52.6 2.7-36.7-3.6-73.5-10.1-109.5S520 302.6 511.4 267c-7.9-32.5-14.6-65.3-16.1-98.7-5.9 30.5-5.8 62.6-7.9 93.4-2.5 36.8-.3 73.8 2.3 110.5 2.6 36.7 9.2 73 13.5 109.5 2.1 18.2 3.5 36.4 3.8 54.7.2 14.7-1.8 29.1-2.3 43.7h.2zm12.8-303.9c9.4 38.5 17.5 77 24.1 116.1 5.8 34.3 10.2 69.8 5.5 104.5-2.9 21.8-9.4 47.8-22.7 67.7 45.5-45.7 56.3-122.2 50.1-183.5-4.3-42-20.1-80.4-38.7-117.9-11-22.1-26.1-44.7-34.5-68.8 3.3 27.6 9.5 54.8 16.2 81.9zm-54.5 207.4c-8.1-35.6-12-72.3-11.4-108.8.7-38.3 5.9-77.3 13.1-114.9 3.4-17.6 7.8-35 11.9-52.5.9-3.8 1.8-7.6 2.8-11.4-5.4 15.8-9.9 32-14.8 48-11.7 38.6-24.4 78-26.8 118.5-2.2 37.7 4.6 75.7 15 111.8 5.3 18.5 12 36.7 19.6 54.4 3.3 7.7 6.6 16.2 10.6 24.2-8.8-22.4-14.9-46.7-20-69.3zM518 220.2c9.9 18.7 19.8 37.4 28.9 56.5 17.2 36 29.2 73.2 32.4 113.1 4.3 53.1-5.5 116.6-38.5 161.3 20.4-20.5 38.2-44.2 52-68.7 20-35.6 28.3-77.6 23.8-118.1-5-44.7-30.2-80.6-58.9-113.6-20.5-23.6-46.5-48.8-57.9-79.1 2.5 17.3 10 33.2 18.2 48.6zm-67.3 303.1c-27.9-11.4-45.5-34.9-60.8-60.4-15.7-13.1-32.9-25.4-51.8-33.3 24.6 16.8 43.1 39.7 60.7 64.2 10.7 14.9 21.4 29.7 34.4 42.6 12.3 12.3 28.7 25.6 46.6 28.1-10.8-13.1-20.6-26.9-29.1-41.2zm-66.3-69.8c-3.4-6-6.8-12-10.2-17.9-11.3-5.3-24.4-8.8-37.2-10.5 17.2 6.7 32.9 17 47.4 28.4zm26.3-131.9c-4.5-8.6-7.2-18.4-10.4-27.4-5.2-14.3-9.8-28.9-13-43.8-4.2-19.2-7-40.6-6.6-61-1.8 14-2.3 28.3-2.2 42.3.2 24.7 2.3 51.2 11.4 74.4 7.2 4.5 14.1 9.6 20.8 15.5zm29.8-90c-14.8-20.5-38.6-34.4-50.6-56.4 8.5 29 22 57.2 42.8 79.3 2.4-7.7 5.1-15.3 7.8-22.9zm-53.1-51.4c1.1 16.4 5 32.9 9.6 48.4 5.7 19.1 13.5 40.9 26.2 56.9 2.5-9 5.2-18 8.1-27-21.1-21.7-35.1-49.5-43.9-78.3zm6.9 52.7c-4.4-13.4-8-27.9-9.9-42.5-.3 21 3 42.9 7.3 62.4 2.7 12.6 6.9 24.9 11.1 37 3.5 10.2 6.7 21.7 12 31.3 2-10.5 4.3-20.9 7.1-31.2-13.4-15.8-21.2-37.5-27.6-57zm15 140.3c.1-6.5.4-13 1-19.6-18.3-28.2-53.4-35.3-83.7-47.6 5.1 3.4 10.1 6.9 15.2 10.4 9.9 6.7 20.5 12 30.4 18.7 15.5 10.3 27.1 23.1 37.1 38.1zm0 7.1c-11.1-17.8-23.9-31.8-41.7-43.7-9-6-18.7-10.9-27.8-16.9-6.1-4.1-12.1-8.3-18.3-12.3 14.2 15.7 30.2 29.9 43.2 46.9 16.8 22 30.3 46 48.2 67.2-2.2-13.6-3.4-27.3-3.6-41.2zm5 48.6c-17.9-19.9-31.4-42.7-46.8-64.5-15.1-21.3-34.6-38.1-51.5-57.5 5.7 12.3 13.5 24.3 20.5 35.3 11 17.3 23.4 33.7 35 50.7 20.5 30.3 34.9 65.4 59.9 92.3-7.5-18.1-13.3-37-17.1-56.3zM445 217.2c-26.7-27.7-53.3-56.3-59.5-94.4-23.3 53.9-31.8 116.1-15 172.9 4.9 2.3 9.6 4.7 14.1 7.3-7.2-21-9.2-43.9-9.9-65.9-.8-25.8.5-53.3 8.6-78 1-3.2 3.5-3.4 4.3.1 7.1 29.9 36.4 45.1 54.3 68.2 1.2-3.3 2.4-6.5 3.6-9.8-.1-.2-.3-.2-.5-.4zm48.4-115.6c-19.7 75.6-56 146.1-71.4 222.9-16.2 81 6.7 160.6 55.4 224.6-2.4-5.2-4.6-10.5-6.8-15.6-7.4-16.9-13.8-34.3-19.3-51.9-11.3-36.4-18.1-74.7-17.3-112.9.8-40.6 13.5-80.4 25.1-118.9 10-33.3 18.7-67.3 35-98.3 2.2-4.2 4.1-1.7 4.5.8 3.4 23.2 17.9 43.2 32.1 61.1 14.1 17.8 30 34.1 44.4 51.8 25.7 31.7 43 66.8 46.3 107.9 3.1 39.4-7.4 79.5-26.7 113.7-19.7 35.1-48.8 68.4-80.8 93.1h9.3c39-24.4 68.7-65 91.7-104.1 23.6-40.3 32-87 22.9-131.8-2.6-12.7-8.5-30-13.5-40.7-18.2-39.8-48.9-75.2-75.8-108.7-22.6-28.2-46.4-57.7-55.1-93zm74.4 478.3c16.5-3.7 31.3-12.6 45.8-21.2 17.5-10.3 35.5-19.2 52.1-30.9 38.6-27.1 59.2-66 74.5-109.5 11.3-32 19.4-65.1 32.1-96.7 7-17.4 15.7-34.8 27.5-49.5-19.3 17.9-35.7 38.7-49.8 61.1-20.5 32.6-34.7 68.2-50.5 103.2-15.5 34.4-34.2 64.9-63.2 89.4-13.7 11.5-28.7 21.3-44 30.5-14.6 8.8-30.4 16.4-47.5 17.6-2.6 2-5.2 4-7.8 5.9 10.2.2 20.5.1 30.8.1zm-17.9-10.1c17.6-2.7 33.5-12.2 48.5-21.6 15.7-9.8 30.6-20.5 44.3-33 29.6-27.1 46.1-63.5 61.9-99.7 25.2-58 54.4-114.7 103.2-155.4C755.6 286.4 715 334 687.9 385c-15.6 29.4-28 59.9-46.2 88-12.3 19-25.7 38.4-46.7 47.6-13.2 18-28.3 35-45.1 49.2zm94.5-108.1c19.1-29.5 30.7-63.1 48.4-93.3 26.1-44.5 63.2-85 109.1-109.5-28.9 8.5-55.7 23-79.9 41-15.1 11.2-28.8 24.2-41.4 38.2-11.1 12.4-20.7 26.2-31 39.3.3 37.8-12.5 75.4-31.5 107.8-5.6 9.6-11.8 19.3-18.4 28.7 20-11.4 32.4-33.1 44.7-52.2zm2.6-112.1c1.4 7.3 2.1 14.6 2.5 22 10.1-13 19.7-26.3 30.7-38.6 12.1-13.4 25.6-25.4 39.9-36.4 26.1-19.9 56.2-35.3 88.1-43.4-26.3 3.3-52.1 9.8-77 19.3-31.5 12.1-67.5 30.7-89.1 57.4 2 6.4 3.7 13 4.9 19.7zm38.2-84.1c5-36.7-.9-71.8-10.2-107.4-6.9-26.3-13.6-53-11.1-79.9-17.9 64.5 10.4 131.5 4.3 197.1 5.6-3.4 11.3-6.6 17-9.8zm-82.7-12.4c4.3 6.3 8.5 12.6 12.5 19-1.3-12-.4-24.9.1-35.6.8-20.5 4-40.8 7.4-61 4-23.9 10-48.2 19.4-70.9-8.4 16.4-15.4 33.7-21.3 51-5.6 16.4-10.1 33.1-13.6 50-3 14.2-8 33.1-4.5 47.5zm61.6 24.9c6.7-62.4-18.5-126.2-6.8-187.9-24.7 64.6-26.4 134.3-14.7 202.7 6.9-5.3 14.1-10.2 21.5-14.8zm-10-190.3c-13.6 25.6-21.2 54-26.8 82.4-3.8 19.5-6.5 39.4-8 59.2-.7 9.5-.8 19.1-.6 28.6.2 7.1.2 15.9 1.8 23.5 3.8 6.6 7.3 13.3 10.6 20.2 2.6-2.1 5.2-4.2 7.9-6.3-12.1-70-10.4-141.4 15.1-207.6zm36.7 36.9c-6.9-30.7-13.5-63.4-9.8-95-49.8 53.6-85 115.5-96.2 188.4-.9 6-.5 10.2 2.9 14.8 3.4 4.6 6.8 9.1 10.1 13.7-.7-12 2.4-25.4 4.5-36.5 3.4-18.8 8.6-37.2 14.6-55.3 11.4-33.9 26.9-67.7 50.1-95.2 3.2-3.8 4.5-.9 3.8 1.9-9.3 35.7 1.5 71 10.5 105.7 8.3 31.8 12 63.9 8 96.5 3.5-1.8 7.1-3.6 10.7-5.3 5.9-2.8 7.1-5.1 7.5-11.3 2.4-42.1-7.6-81.5-16.7-122.4zM868.5 233c-85-5.1-168.1 21.5-234.1 75.8 2.4 5.5 4.5 11.2 6.4 16.9 21.1-25 54.1-42.1 83.6-54.5 31.3-13.1 64.8-20.7 98.6-23.4 9.1-.7 7 2.2 1.8 5.8-28.1 19.5-43.2 52.5-54.6 83.8-12.4 34.2-21 69.6-34.4 103.4-15.5 39-38.8 70.2-73.5 93.9-16.3 11.2-34.2 19.7-51.2 29.8-9.8 5.8-19.7 11.3-30.2 15.3 4.3 0 8.6 0 13 .1 39.4-11.3 79.3-32.1 109-60.7 32.9-31.7 45.7-77 59.7-118.9C782.3 341.2 814 269.5 868.5 233zM721.8 508.8c14.1-.9 30-13.5 39.8-21.5 12.9-10.6 23.1-23.8 33-37 8.8-11.8 17.1-24 25.1-36.4-5.4 7.5-10.8 15-16.7 22.1-15.2 18.4-37.5 38.1-61.9 42.4-5.6 10.7-12 20.9-19.3 30.4zm80.4-77.8c6.7-8.1 12.8-16.6 18.8-25.1-17.9 21.1-38.8 40.5-66.3 41.7-3.4 9-7.2 17.9-11.5 26.5 23.7-5.6 44.1-25.1 59-43.1zm-46 12.7c34.1-2.5 58-35 78.7-61-10.3 7.6-19.9 16.3-29.9 24.1-12.6 9.8-26.7 19.3-42.9 20.2-2 5.6-4 11.2-5.9 16.7zm78.8-47.1c-5 7.7-9.7 15.7-14.7 23.4-9.8 15.1-20.3 29.8-31.4 44-10.2 13.1-21.8 24.7-35.4 34.3-9.5 6.7-22.5 14.7-34.7 14.3-6 7.3-12.5 14.2-19.8 20.4 14.9-5.9 30-11.2 44-19.3 19.1-11.1 34.9-27.7 48.3-45.1 21.5-27.9 37-59.7 54.9-89.9-4 5.8-7.5 12.2-11.2 17.9zm-4.3 43.3c18.7-30.3 28.9-67.2 53.2-93.4-22.9 4.7-43.2 15.8-62.3 29.7-15.8 11.5-31.8 26.2-51.9 28.8-2.1 6.1-4.2 12.2-6.3 18.1 17.4-1.6 32.3-13.6 45.5-24.3 12.8-10.4 25.3-21.8 40.1-29.4 9.1-4.7 7.9-.9 5.1 3.6-20.6 33.4-37.3 69.4-61.7 100.3-12.2 15.5-26 28.8-42.1 40.2-18.6 13.2-41.5 19-62.2 28.2-21.2 16.1-45.5 29-70.6 38.4 10 0 20.1 0 30.2-.1 4 0 4.7-.8 7.7-3.6 15.1-14.4 31.9-25.8 51.2-34.1 18.5-8 37.7-13.8 55-24.4 30-18.4 51-48.8 69.1-78zM794 557.3c-22.2-7.6-47.3-8.6-70.8-9.7-6-.3-7.4-.8-12 1.2-17.8 7.8-33.7 17.8-48.1 31 36.7-.7 73.5-2.6 109.3-8.2 8-1.2 15.9-3 23.6-5.5 10.2-3.4 5.9-6.1-2-8.8zM407.4 743.2c6.9 24.1 27.9 31.9 50.4 34.3 36.8 4 74.3 4 111.3 4.1 38.2.1 76.7-.2 114.8-3.7 22.5-2.1 43.3-7.8 52.8-30.7 10.3-24.7 11.5-55.4 15.2-82.3-24.4 5.4-52.2 4-76.2 4.8-36.4 1.3-72.8 1.7-109.2 1.7-35.7-.1-71.3-.8-107-2.2-21.5-.8-44.3-1-65.9-5.2 3.9 26.3 6.5 53.6 13.8 79.2zm-53.7-121.9c4.9 18.9 14.3 28.7 33.3 33.6 25.1 6.5 53.2 5.9 78.9 6.9 31 1.2 62 1.7 93 1.9 58.2.4 117.1.5 175.1-4.9 24.7-2.3 46.9-7 53.9-33.4 4.6-17.4 8.8-35 12.7-52.6-21.8 11-55.1 10-77.7 11.4-42.8 2.6-85.8 3.2-128.7 3.3h-21.8c-15.7 0-31.4-.1-47.1-.3h-.4c-32.7-.4-65.5-1.3-98.2-3-26.4-1.4-60.2-1.1-85-12.5 3.7 16.6 7.8 33.2 12 49.6zm-.4-53.6c4.9 1.3 9.9 2 14.5 2.8 27.9 5.1 56.7 7.5 85.6 8.7-14.5-8-25.9-18.8-36.2-31.1-21.1 1.5-42.6 3-63.2 8.3-8 2.1-16.8 7.2-.7 11.3zm27.5-80c12.5 15.7 23.8 33.5 36.6 49.5 11.7 14.6 28.3 30 45.1 38.1 1.5.7 14.1 4.4 31.1 4.8-3.5-3.8-6.9-7.6-10.2-11.5-32.6-1.5-59.6-34.8-77.4-58.6-24.5-32.8-46.4-65.5-83.3-85.5-3.6-2-3.6-4.5.8-4.3 15.7.4 32.7 3.8 47.7 9.9-2.6-4.4-3.6-6.7-7.9-8.3-23.6-9-46.9-10.6-71-5 35.9 16.1 63.3 39.3 88.5 70.9z"/><path class="st11" d="M588.6 768.7c19.5.1 39.1-.7 58.5-2.4 22.1-2 45.1-4.9 65.9-13 5.5-2.1 6.2-.5 1.1 3-16.6 11.2-42.8 12.6-61 14.6-21.2 2.4-43.4 3.8-64.7.9-6.4-1-6.2-3.1.2-3.1zM564.2 767.6c2.4-.2 4.9-.2 7.3 0 5.7.6 5.6 2.7-.1 3.1-2.5.2-5 0-7.5-.5-4.3-.6-4.1-2.3.3-2.6zM410.2 595c18.3.4 36.6 1.4 54.9 1.8 17.4.4 35-.3 52.4.4 12.4.5 12.7 2.3.4 3.3-16.3 1.3-32.9 1-49.1.8-19.6-.2-40.1-.8-59.4-3.7-6.7-.9-5.8-2.8.8-2.6zM391.3 595.9c-1.6 0-3.1-.3-4.2-1.5-.3-.3-.1-.7.2-.8 1.3-.5 2.7-.5 4.1-.3 5 .7 5 2.5-.1 2.6z"/></svg>