<svg version="1.1" id="e37c00f5-ff96-45aa-87ea-1a24b78ba7bd" xmlns="http://www.w3.org/2000/svg" x="0" y="0" viewBox="0 0 1176.6 803.7" style="enable-background:new 0 0 1176.6 803.7" xml:space="preserve"><style>.st0{fill:#a5603f}.st1{fill:#ffa3bc}.st2{fill:#b4d345}.st4{fill:#ff7cc7}.st5{fill:#f07493}.st6{fill:#f85094}.st11{fill:#ffe4df}.st12{fill:#ffbfe2}.st13{fill:#68182b}</style><path class="st0" d="M773.9 597.9c-.2 0-.4-.1-.6-.2-10.9-7.2-23.9-9.9-37.5-12.3-12.8-2.2-27-4.2-43.2-5.9-.5 0-.8-.4-.9-.8-.1-.4.1-.9.4-1.2 5.2-3.7 10.7-7.2 16-10.6.2-.1.4-.2.6-.2h.3l.6.2 6.9.6c22 1.8 44.8 3.6 65.3 11.3 7.3 2.8 10.1 5.1 10.6 8.8 0 .3 0 .6-.2.8-2.6 3.7-8.5 6.7-18.1 9.4 0 0-.1.1-.2.1zM600.8 784.4c4.8 0 9.5 0 14.2-.1 34.7-.4 62.7-2.8 88.3-7.6l2.5-.5c10.2-1.8 27.3-4.8 27.7-15.6.4-11.7 3.2-23.7 5.8-35.2l.5-2.1c.1-.4 0-.7-.3-1-.2-.2-.5-.3-.8-.3h-.2c-11.7 2-24.1 2.8-33.1 3.4-3.4.2-6.3.4-8.4.6-37.8 3.6-71.4 5.4-102.4 5.4-45.1 0-84.4-3.7-120.3-11.2h-.2c-.3 0-.6.1-.8.3-.3.3-.4.6-.3 1l1.3 6c2.3 10.6 4.7 21.5 5.8 32.3 1.2 12.3 21.2 15.6 33.1 17.6 1.5.3 2.9.5 4.1.7 29.7 5.6 60.2 6.3 83.5 6.3zM432.7 595.1c12-7.9 26.6-10.8 41.7-13.3 19-3.2 34.5-5.1 48.9-6 .5 0 .9-.4 1-.8.1-.4-.1-.9-.4-1.2-3.3-2.3-6.6-4.6-10-7.1l-.6-.4c-.2-.1-.4-.2-.7-.2l-2.9.2c-56.9 2.9-85.6 9.9-87.9 21.4-.1.3 0 .6.2.8 1.7 2.6 4.9 4.8 9.7 6.7.1.1.3.1.4.1.2-.1.4-.1.6-.2z"/><path class="st1" d="M547.2 352.9c-.4 0-.7-.3-.9-.6-8-17.2-21.3-33.5-40.9-49.6-5.7-4.7-11.8-9.3-17.6-13.7-14.3-10.7-29-21.9-40.3-36.1-6-7.6-11.1-15.9-16.1-23.9-8.3-13.5-16.8-27.4-29.6-37.7-15.7-12.6-32-20-48.3-21.9-.5-.1-.9-.4-1-.9-.1-.5.2-1 .6-1.2 12.8-5.7 25.9-8.6 38.8-8.6 17.2 0 33.5 5.1 48.3 15.1 10.5 7.1 20.2 15.6 29.5 23.7 8 6.9 16.2 14.1 24.9 20.4 3.3 2.4 6.8 4.8 10.3 7.3 18.6 13 37.7 26.4 47.7 47 4.9 10.1 6.4 21 7.8 31.6 1.4 10.7 2.9 21.9 8.1 31.8.1.3.2.6.1.9-.1.3-.3.5-.6.6-8.6 4-15.2 9.1-19.7 15.3-.2.3-.5.5-.9.5h-.2zM593.7 515.9c2.1-.6 4.1-1.2 6.2-1.7.4-.1.7-.4.8-.9 2.7-14.9 5.4-26.4 15.1-38.4 3.4-4.3 7.6-8.2 11.7-12 2.2-2.1 4.4-4.1 6.5-6.3 4.9-4.9 8.7-10.8 11.7-17.9.1-.2.1-.3.1-.5-.1-.7.2-1.4.8-2.1.1-.1.2-.2.2-.4 2.3-6.2 3.9-12.8 5.1-17.8 3.8-16.6 8.4-32.5 23.2-44.7 5.5-4.5 12.3-8.2 19.4-12 9.6-5.1 19.4-10.4 26.3-18.2.4-.4.4-1 0-1.4-.2-.3-.5-.4-.8-.4-.2 0-.4.1-.6.2-14.7 9-30.9 13.6-48.9 18.2-16.7 4.3-35.1 11.2-45.4 30.4-6 11.1-7.6 23.5-9.1 35.4-1 7.7-2 15.7-4.3 23.2-1.9 6.4-5.8 12.2-9.5 17.8-1.8 2.8-3.7 5.6-5.4 8.5-7.3 12.9-5.8 27.2-4.5 39.8 0 .3.2.6.5.8.2.1.4.2.6.2.1.2.2.2.3.2z"/><path class="st1" d="M581.2 520.3c2.8-1.2 5.7-2.3 8.8-3.2.5-.2.8-.6.8-1.2-1-10-2.2-21.3.8-32.4 1.9-6.9 5.9-13 9.8-19 2.2-3.4 4.5-6.9 6.4-10.5 4.5-8.6 5.6-18.7 6.6-28.4.4-4 .8-8.2 1.5-12.1 1.5-8.7 4.1-16.9 7.8-24.2 6-12.2 17.1-21.4 33-27.3 7.6-2.8 15.3-5 22.8-7.1 13.8-3.9 26.9-7.5 39.3-15 .4-.3.6-.8.5-1.3-.1-.5-.6-.8-1-.8h-.1c-6.6.5-13.3.7-20.6.7-16.8 0-33.9-1.3-50.4-2.6l-10.8-.8c-6-.4-12.1-.7-17.9-.7-22.2 0-51.5 3.3-64.8 19.1-6.2 7.4-8.4 16.9-6.4 28.3.9 4.9 2.3 9.5 3.7 14 2 6.4 3.9 12.4 4.2 19.3.4 7.4-1 15.1-2.4 22.6-1 5.7-2.1 11.6-2.4 17.4-.7 14.5 7.3 25.6 14.9 36.4 6.1 8.5 12.4 17.4 14.3 27.8.1.3.3.6.6.8.2.1.3.1.5.1.2.1.4.1.5.1zM575 334.2c5.4-1.9 11.2-3.3 17.5-4.3.5-.1.9-.5.9-1.1 0-8.1.9-16.1 2.6-24.2l.1-5.9c.2-8.9.5-18.1-.5-27.3-1.4-13.9-4.8-28.4-10.8-45.6-9.7-27.9-24.7-55.1-43.3-78.7-7.7-9.8-16.4-19-24.8-27.9-9.2-9.7-18.8-19.8-27-30.7-12.8-17-20.5-36-23.4-58.1-.1-.5-.5-.9-1.1-1-.5 0-1 .4-1.1.9-8.6 46.9 21.7 80.4 51 112.7 13 14.4 26.5 29.2 36.5 45.1 15.1 23.9 24.9 48.5 29.4 73.2.2.4.3.9.2 1.6l.3 1.4.3 1.8c2.1 14.5 2.6 45.4-10.8 58.8-.1 0-.3.2-.3.2-.4.3-.5.8-.3 1.2.9 2.6 2 5.1 3.2 7.4.2.4.6.6 1 .6.2 0 .3 0 .4-.1z"/><path class="st1" d="M599.1 291.7c.5 0 .9-.3 1-.7.5-1.4 1-2.8 1.6-4.1.1-.2.1-.4.1-.6-.1-.5-.1-.9.1-1.3 9.6-24.6 2.1-48.8-5.2-72.3-2-6.5-4.1-13.3-5.8-19.9-4.5-17.9-3-35.4 4.4-52.2.2-.4.1-.8-.1-1.1-.3-.4-.5-.9-.5-1.3-4.6-36.4-37.6-55.8-72.6-71.4C503.3 58.3 484 48 470 29.6c-.2-.3-.5-.4-.9-.4-.1 0-.3 0-.4.1-.5.2-.7.7-.7 1.2 3.4 24.7 13.4 46.1 31.3 67.2 6.4 7.5 13.2 14.8 19.8 21.9 10.9 11.6 22.1 23.6 31.5 36.9 15.4 21.7 27.9 46.1 37 72.3 4.6 13.4 7.8 26.7 9.3 39.6 1 8 1 15.8 1 22.3 0 .5.4 1 .9 1.1.2-.1.2-.1.3-.1z"/><path class="st1" d="M613.7 264.8c5-7.3 11-14.3 17.6-20.7.3-.3.4-.7.3-1.1-4.9-15.4-2.3-32.1.5-46.7 3.3-16.8 8.9-32 17.7-47.7 3.8-6.8 8.1-13.5 12.6-20.6 14.8-23.2 30-47.2 29.5-74.2 0-.5-.4-1-.9-1.1h-.2c-.4 0-.9.3-1 .7-8 20.3-29.7 35.3-48.8 48.6-8.4 5.8-16.3 11.3-22.8 16.9-32.8 28.3-23.7 62-14.9 94.6 4.5 16.7 9.1 33.9 8.4 50.6 0 .5.3.9.7 1.1.1 0 .2.1.3.1.5 0 .8-.2 1-.5z"/><path class="st1" d="M634.4 241.3c2.7-2.4 5.5-4.8 8.4-7 .3-.3.4-.8.3-1.2-5.3-28.9 11.4-57.7 27.6-85.5 17.4-30 35.4-61 24.9-91.7-.2-.4-.6-.7-1-.7h-.2c-.5.1-.9.5-.9 1.1-.5 26.2-15.2 49.7-29.4 72.4l-2.6 4.1c-10.7 17.1-19.9 32.7-24.6 50.6-4.8 18.1-9.4 39-4.3 57.5.1.4.4.7.8.8h.3c.3-.1.5-.2.7-.4zM643.2 329.4c.3 0 .5-.1.7-.3.2-.2.4-.5.4-.8.6-14.3 11.3-27.1 21.8-37.8 16.1-16.4 37-27 55.3-35.1 5.9-2.6 11.9-5.1 17.8-7.6 14.5-6.1 29.5-12.4 43.4-20.6 15.7-9.3 31.3-19.7 38.8-33.6.2-.5.1-1-.2-1.3-.2-.2-.5-.3-.7-.3-.2 0-.5.1-.6.2-1.7 1.2-3.5 2.4-5.7 3.7-14.7 8.7-32.5 10.2-48 11-5.2.3-10.3.4-15.3.6-25.1.8-48.7 1.6-72.6 11.7-47.7 20.2-78.8 62.8-79.2 108.6 0 .3.1.6.4.8.2.2.5.3.7.3h.1c2.5-.2 4.9-.4 7.2-.5 2.7-.1 5.5-.1 8.2-.1 7.9.1 16.4.4 27.5 1.1-.1 0 0 0 0 0z"/><path class="st1" d="M658.3 330.5c.4 0 .8-.2 1-.6 15.1-30.7 40-53.5 76.1-69.7l8.1-3.6c16.3-7.2 31.8-14 46.2-24.5 13-9.4 22.2-18.3 28.1-27.2.3-.5.2-1.1-.2-1.5-.2-.2-.4-.2-.7-.2-.3 0-.6.1-.8.4-5.2 5.7-11.4 10.6-17.3 15-12.8 9.6-27.8 17.7-48.7 26.5l-7 2.9c-21.2 8.9-43.1 18-62.2 32-12.7 9.3-34.2 28-35 48.5 0 .6.4 1.1 1 1.1 3.8.4 7.5.6 11.4.9-.1 0-.1 0 0 0zM719.8 383.3c3.7-.6 6.9-1.1 9.9-1.4 1.6-.2 3.3-.2 5-.3.5 0 .9-.3 1-.8 9.4-31 31.3-57.1 57.1-68.2.5-.2.7-.7.6-1.2-.1-.5-.5-.9-1-.9h-1c-19.6 0-37.2 16.9-43.9 24.1-10.8 11.7-18.2 26.2-25.3 40.1l-3.6 6.9c-.2.4-.2.8.1 1.2.2.3.5.4.9.4 0 .1.1.1.2.1zM608.2 512c7.4-1.8 15-3.7 22.3-6.3 2.5-.9 5.3-2.3 8.9-4.3.2-.1.4-.3.5-.5 6.5-15.3 13.8-31.5 24.7-45.6 11.2-14.5 28.1-25.1 50-31.7 10.8-3.2 22.1-4.8 33.1-6.4 11-1.5 22.3-3.1 33.1-6.4 14.2-4.2 28-12.3 43.2-25.5.4-.3.5-.9.2-1.4-.2-.3-.6-.6-1-.6-.1 0-.2 0-.4.1-8.5 2.9-18.6 4.3-31.6 4.3-7.2 0-14.2-.4-21.1-.8-2.6-.1-5.1-.3-7.5-.4-3.9-.2-7.7-.3-11.3-.3-21.9 0-40.6 3.5-57 10.7-14.7 6.4-23.9 18.2-32.8 29.6-3.4 4.4-6.9 8.9-10.9 13.4-3.3 8-7.4 14.6-12.8 20.6-3 3.3-6.3 6.5-9.4 9.5-2.9 2.8-6 5.7-8.8 8.8-8.4 9.1-10.7 19.4-12.9 31.8-.1.4.1.7.4 1 .2.2.5.3.8.3.1.1.2.1.3.1z"/><path class="st1" d="m645 498 3.7-2.3c5.3-3.3 10.8-6.7 16.4-9.5.2-.1.4-.3.5-.6 8.7-23.5 34.8-33.7 61.7-41.2 5.4-1.5 10.7-2.9 16.1-4.3 11.4-2.9 23.1-6 34.4-10 20.2-7.3 35.8-20.7 47.7-41.1.3-.5.2-1-.2-1.4-.2-.2-.5-.3-.7-.3-.3 0-.5.1-.7.3-10 8.4-19.5 14.8-29 19.5-14.1 7-29.9 9.2-45.2 11.4-4.2.6-8.3 1.2-12.4 1.9-28.2 4.7-48.4 13.4-63.6 27.4-14.3 13.2-22.8 31.4-30.3 48.9-.2.4-.1.9.3 1.3.2.2.5.3.7.3.3-.1.5-.2.6-.3zM606.1 613.7h3l3.7-.1c.3 0 .6-.1.8-.4.2-.2.3-.6.3-.9-2.2-15.8-1.4-27.6 2.7-38.3 3.8-10 13.3-17.7 21.6-24.4 2-1.6 3.9-3.2 5.7-4.7 8.6-7.4 14.4-17.4 19.9-27.1 6.7-11.7 13.1-22.8 24.2-29.7.4-.2.6-.7.5-1.2-.1-.5-.5-.8-.9-.9-.8-.1-1.7-.2-2.6-.2-11.5 0-26.4 9.2-38.3 16.6-5.9 3.7-11.1 6.8-15 8.5-7.8 3.3-16.4 5.4-24.8 7.4-6 1.4-12.2 2.9-18.1 4.9-15.4 5.1-25.1 13.1-28.1 23.1-2.7 9 .2 19 8.6 29.6 2.9 3.7 6 7.1 8.9 10.4 7.4 8.2 14.3 16 18.3 26.5.2.4.6.7 1 .7 2.9.2 5.8.2 8.6.2z"/><path class="st1" d="M616.7 613.6c3.3 0 6.5-.1 9.8-.1.6 0 1-.5 1.1-1 1-20 12.8-37.5 25.4-53.5 2.6-3.3 5.5-6.5 8.6-10 7.5-8.3 15.2-17 18.9-26.6 1.9-4.9 3.2-9.8 4.4-14.6 1.5-5.7 2.9-11 5.2-16.4.2-.4.1-1-.3-1.3-.2-.2-.5-.3-.7-.3-.2 0-.4.1-.6.2-10.7 6.9-16.7 17.9-22.6 28.5-4.2 7.6-8.5 15.4-14.4 21.7-3.9 4.2-8.4 7.9-12.7 11.5-5 4.2-10.2 8.5-14.6 13.5-11.8 13.6-10.8 32.5-8.6 47.4.1.6.6 1 1.1 1z"/><path class="st1" d="M634.3 613.3c1.4 0 2.8-.1 4.2-.2l2.9-.1c.4 0 .8-.3.9-.6.9-1.9 1.6-4.2 2.2-6.5.5-1.8 1-3.6 1.6-4.8 2.2-4.9 5.2-9.9 8.7-14.4 8.2-10.5 18.1-18.6 30.3-24.7 5.8-2.9 12.1-5.2 18.9-7.6 13.3-4.8 27.1-9.8 36.5-20.1.5-.7 1-1.3 1.5-2 .3-.4.3-.9 0-1.3-.2-.3-.5-.4-.9-.4-.1 0-.2 0-.3.1-5.3 1.7-11 2.5-17.9 2.5-4.7 0-9.3-.4-14.3-.7-5-.4-10.2-.8-15.5-.8-3.4 0-6.5.2-9.6.5-.2 0-.4 0-.7-.1h-.2c-.4 0-.7.2-.9.5-1.8 2.7-4 5.3-6.1 7.8-.8.9-1.6 1.9-2.3 2.8-2.1 2.6-4.4 5.3-6.7 8-15 17.8-32 37.9-33.4 61.4 0 .3.1.6.3.8.2-.2.5-.1.8-.1z"/><path class="st1" d="M649 612.7c2.1-.1 4.1-.1 6.2-.2.4 0 .8-.3 1-.7 8.7-22.2 27.9-34.6 46.4-46.6 7.4-4.8 15.1-9.7 22.1-15.3.4-.3.5-1 .2-1.4-.2-.3-.6-.5-.9-.5-.2 0-.3 0-.5.1-6.2 3-12.9 5.4-19.3 7.8-2.6.9-5.1 1.9-7.5 2.8-15.3 5.9-27.5 14-37.3 24.9-4.4 4.9-8.2 10.7-11.9 18.4-.8 1.6-1.3 3.6-1.9 5.6-.4 1.2-.7 2.5-1.1 3.7-.1.3-.1.7.2 1 .2.3.5.4.9.4-.2.2 3.4 0 3.4 0zM589.2 613.6c.4 0 .7-.2.9-.5.2-.3.2-.7.1-1.1-4-8.4-10.6-15.6-17.1-22.5-8.7-9.3-16.9-18.1-19.2-29.9 0-.2-.2-.4-.3-.6-16.9-15-37.2-24.3-54.8-31.4-.1-.1-.3-.1-.4-.1-.2 0-.4.1-.6.2-.3.2-.5.5-.5.9.1 11.9 5.9 22.4 17.9 32.1.3.1.5.3.9.8 5.9 4.6 12.2 8.5 18.8 12.4 15.9 9.5 28.5 21.7 38.3 37.3.2.4.4.8.4 1.2.1.5.5 1 1.1 1 4.8 0 9.7.1 14.5.2zM552.7 550.4c.4-.2.6-.5.7-.9.5-4.8 2.3-9.3 5.1-13.2.2-.3.3-.8.1-1.1-5.4-11-17.6-18.3-27.5-24.2l-1.5-.9c-6.8-4.1-14-7.8-22-11.3-5.7-2.6-11.5-5-17.3-7.4-11.2-4.7-22.8-9.6-33.8-15.3-23.1-11.8-50-32-46.4-61.2.1-.4-.3-.7-.7-.9-.1-.1-.3-.1-.5-.1-.3 0-.7.1-.9.3-2.6 1.7-5.5 2.9-8.4 4.1-6.7 2.9-13.6 5.8-16.1 14.4-5.9 20.2 15.6 36.7 24.8 43.8 15.6 12 34.5 23 56.1 32.7 9.2 4.1 18.7 7.8 27.8 11.3 21.2 8.1 41.3 15.8 59.3 29.8.2.2.4.2.7.2.3 0 .4 0 .5-.1z"/><path class="st1" d="M560.3 533.6c.3 0 .6-.1.8-.3 3.3-3.5 7.7-6.7 13-9.6.4-.2.6-.8.5-1.2-.1-1.4-.4-2.8-.7-4.5-.1-.5-.5-.8-.9-.8l-.6-.1c-30.6-10.6-37-32.8-44.5-58.5-2.8-9.6-5.7-19.5-10.1-29.3-9.3-20.8-28.7-32.5-57.9-34.7-2.2-.2-4.3-.2-6.5-.2-8.2 0-16.4 1.2-24.5 3.5-6.5 1.9-10.1 5.8-13.5 9.6-.8.9-1.7 1.9-2.5 2.8-.1.1-.2.3-.3.5-7.8 35.1 26.8 56.1 57.9 70.4 7 3.2 14.2 6.2 21.1 9.1 8.7 3.6 17.6 7.4 26.2 11.5 16 7.7 33.6 17.2 41.4 31.3.2.3.5.5.8.6.2-.1.3-.1.3-.1zM542.6 362.2c.3-.1.6-.4.7-.7.6-1.7 1.4-3.4 2.5-5.4.2-.3.2-.7.1-1-11.9-28-35.5-46.3-58.2-64-12.8-9.9-26-20.2-37-32.1-8.1-8.7-14.3-19-20.4-29-6.2-10.2-12.6-20.8-21.1-29.8-16.1-17.1-38.2-28.2-59.2-29.6h-.1c-.5 0-.9.3-1 .7-.2.5 0 1 .4 1.3 8 5.9 11.8 15.5 15 24.8 5.7 16.5 12.7 25.5 27 34.4 10.9 6.8 20.6 13 29.8 20.9 12.4 10.7 22.2 24.1 31.6 37.1 6.8 9.4 13.8 19.1 21.8 27.7 11.2 12 25.7 20 39.7 27.7 9.3 5.1 18.9 10.3 27.4 16.7.2.1.4.2.7.2.1.2.2.2.3.1z"/><path class="st2" d="M663.7 612c-.4 0-.7-.2-.9-.5-.2-.3-.3-.7-.1-1.1 4.7-10.5 12.1-19.5 23.4-28.4.2-.2.4-.2.7-.2h.1c17.1 1.6 31.2 3.4 44.4 5.5l2.9.5c11.9 1.9 24.1 3.8 34.8 9.4.4.2.6.7.6 1.1-.1.5-.4.8-.8.9-6.7 1.5-13.5 2.6-18 3.3-1.5.2-2.8.4-3.8.6-14.3 2.5-28.8 4.4-43.2 5.8-12.6 1.3-25.6 2.3-40.1 3.1zM565.7 613c.4 0 .8-.2 1-.6.2-.4.2-.8-.1-1.1-9.7-14.3-21.9-23.2-35.6-32.6-.2-.1-.4-.2-.6-.2-18.3.7-36.5 3.4-52.2 5.8-12.2 1.9-27.3 4.2-40 11.1-.4.2-.6.6-.6 1.1 0 .4.4.8.8.9 6.4 1.8 13.4 3 18.6 3.9 2.1.4 3.9.7 5.4 1 15.9 3.3 31.8 5.2 45.3 6.7 17.9 2 36.9 3.3 58 4z"/><path d="M600.4 724.4c-40.3-.2-79.7-1-118.1-8.2-1.4-.3-3.1-.5-4.8-.8-10.8-1.7-25.7-4-27.4-14.6-1.4-8.8-3.8-17.7-6-26.2l-1.2-4.5c-2.8-10.8-5.8-21.6-8.7-32.4-3.4-12.6-7-25.6-10.3-38.5-.1-.4 0-.9.4-1.1.2-.2.4-.2.7-.2.2 0 .3 0 .5.1 5.3 2.7 11.8 4.2 17 5.5l2.3.6c15.2 3.8 31.1 6.7 48.6 8.9 31.9 4 64.8 6 100.8 6.3.5.1.8.1 1.1.1.2 0 .5 0 .7-.1h7.1c3.9 0 7.8 0 11.7-.1 44.2-.5 80.1-2.9 112.9-7.5 2.2-.3 5.2-.6 8.5-1 14.4-1.5 38.4-4.1 52.3-11.7.2-.1.3-.1.5-.1s.5.1.7.2c.3.3.5.7.4 1.2-2.3 8.2-4.8 16.4-7.2 24.6-5.5 18.7-11.2 38-15.9 57.2-.3 1.3-.7 2.8-1.1 4.2-1.6 5.7-3.3 12.1-2.2 17.4.2.8 0 1.6-.5 2.4-1.7 2.7-7.9 5.1-18.9 7.6-.8 0-1.2.1-1.5.3-12.1 2.6-25.3 4.2-29.1 4.7-32.9 3.8-68 5.7-107.3 5.7h-6z" style="fill:#ad8353"/><path class="st4" d="M569.5 509.9c-.1 0-.3 0-.4-.1-24.2-10.4-29.8-30.7-35.2-50.3 0-.2-.1-.4 0-.5v-.6c-.2-.4-.4-.8-.5-1.2l-.2-.5c-.8-3-1.7-5.9-2.5-8.9-1.8-10.3-.5-21 .8-31.5.5-4.4 1.1-8.6 1.4-12.8 1.1-16.1.2-29-2.7-40.7-.1-.4.1-.9.4-1.2.2-.1.4-.2.6-.2.2 0 .4.1.6.2 3.6 2.4 6.7 4.7 9.4 6.9.3.2.4.6.4 1-.9 7.1.1 14.5 3.3 23.3 5.7 15.9 4 29 2.1 44.1-.3 2.3-.6 4.6-.9 7-1.2 10.5-1.8 23.9 4.7 34.9 2.5 4.2 5.6 8.4 8.6 12.4 4.1 5.4 8.3 11 11.3 17.1.2.4.1.9-.2 1.2-.4.3-.7.4-1 .4zM569.2 317.9c.4 0 .7-.2.9-.5 7.7-11.6 7.7-31 7-44.7-.1-2.5-.4-5.1-.8-8.3 0-.2-.1-.5-.3-.6-10.9-10.6-23.8-18.2-38.5-22.4h-.3c-.4 0-.8.2-1 .6-.2.4-.2 1 .2 1.3 4.6 4.2 8.2 7.8 11.2 11.4 7.5 8.8 12.8 19.4 16 31.4 1.6 6 2.2 12.3 2.9 18.3.4 4.2.9 8.5 1.6 12.7.1.4.4.8.9.9.1-.1.2-.1.2-.1zM709.2 204.2c7.9-1.1 16.6-1.2 23.4-1.2 3.7 0 7.6 0 11.4.1 3.9 0 7.9.1 11.8.1 24.6 0 52.1-1.7 67-21.4 1.8-2.3 1.5-4.2.9-5.4-3.7-7.5-30.6-8.3-30.9-8.3h-1.4c-12.5 0-24.9 3.1-35.5 6-18.6 5.1-32.5 15-47.7 28.3-.4.3-.5.8-.3 1.3.2.4.6.6 1 .6.2-.1.3-.1.3-.1zM658.8 421.2c7.1-9.2 13.2-16.7 21.8-22.7 9.2-6.5 21.1-11.4 34.4-14.3.3-.1.6-.3.7-.6 1.6-3 3.1-6 4.7-9 8.5-16.4 17.2-33.3 30.8-46.2 6.7-6.3 20.2-17.3 35.8-19.3.5-.1.9-.5 1-1 0-.5-.3-1-.8-1.1-3.7-1.1-7.7-1.7-11.9-1.7-12.1 0-24.5 4.5-36.5 8.8-4.8 1.8-9.4 3.4-13.9 4.8-7.5 2.2-15.1 3.3-23.3 3.3-8.8 0-18.1-1.3-28.5-3.9h-.3c-.4 0-.7.2-.9.5-2.2 3.4-4.3 7-6.2 10.6-.2.3-.2.7 0 1 .2.3.5.5.9.6 11.3.8 23.5 1.6 35.5 1.6 10.1 0 19.3-.5 28.1-1.7.7 0 1.5.5 2 1.3.5.7.6 1.5.4 2.1-5.4 12.8-15.3 19.2-26.8 26.5l-.6.4c-3.7 2.4-7.7 4.6-11.5 6.8-3.6 2-7.4 4.2-11 6.4-15 9.5-20.5 24.4-24.2 39l-1.7 6.6c-.1.5.1 1 .6 1.3.2.1.3.1.5.1.4.2.7.1.9-.2z"/><path class="st4" d="M527.3 435.6c.5-.1.9-.5.9-1 .2-5.7.8-11.5 1.4-17.2l.1-1.3c2-18.5 3.1-38.2-2.7-57.2-.1-.3-.2-.5-.5-.6-5.7-3.5-11.6-6.8-17.3-9.9-10.3-5.7-20.9-11.5-30.3-19-10.4-8.3-18.6-18.8-25.9-28.8-.2-.2-.4-.4-.7-.4-4.3-.7-8.5-1.4-12.8-2-15.3-2.3-29.8-4.4-44-10.7-15.8-7-27.4-16.1-35.5-27.8-.1-.2-.8-.5-1-.6-.1-.1-.3-.1-.4-.1-.3 0-.5.1-.7.3-.3.3-.4.7-.3 1.1 11.5 35.8 45.1 51.4 77.7 66.6 39.4 18.3 76.6 35.6 78.6 85.7 0 .2.1.5.2.7 4.6 6 8.6 13.3 11.9 21.6.2.4.6.7 1 .7.2 0 .3 0 .3-.1z"/><path class="st4" d="M449 297.9c.4 0 .7-.2.9-.5.2-.4.2-.9 0-1.2l-2.7-3.8c-5.3-7.4-10.7-15.1-16.6-22-2.6-3.1-5.7-6.2-9.2-9.3-.2-.2-.5-.3-.7-.3h-.3c-11.3 2.8-21.4 4.2-30.8 4.2-8.3 0-16.2-1.1-23.4-3.3h-.3c-.4 0-.7.2-.9.5-.3.4-.2.9.1 1.3 8.7 10.4 20.6 18.5 36.5 24.7 12.5 4.9 25.7 6.7 38.4 8.5 2.9.4 5.9.8 8.8 1.3.1-.1.2-.1.2-.1z"/><path class="st5" d="M633.4 241.5h.3c.3 0 .5-.1.7-.3 2.7-2.4 5.5-4.8 8.4-7 .3-.3.4-.8.3-1.2-.3-1.8-.6-3.6-.7-5.4-3.3-.5-6.3-2.6-8.1-5.7-1.5-2.5-2.1-5.4-2.2-8.2-.1-1.7.1-3.3.2-4.9.1-.7.1-1.5.1-2.2.1-.9 0-2.2.4-3 .2-.3-.3-.4-.3-.1-.1 0-.1 0-.1.1-2.2 12.5-3 25.4.3 37.3.1.2.3.5.7.6zM591.3 209.5c3.7 11.3 8.4 22 9.7 34 .7 5.9.7 11.9-.6 17.8-.7 3.1-2.2 6.5-3 9.9-.1-.8-.3-1.6-.4-2.4.9 7.8 1 15.4.9 21.8 0 .5.4 1 .9 1.1h.2c.5 0 .9-.3 1-.7.5-1.4 1-2.8 1.6-4.1.1-.2.1-.4.1-.6-.1-.5-.1-.9.1-1.3 9.6-24.6 2.1-48.8-5.2-72.3-2-6.5-4.1-13.3-5.8-19.9-1-3.9-1.6-7.8-2-11.6-1.1 9.5-.5 18.9 2.5 28.3zM514.3 345.4c9.3 5.1 18.9 10.3 27.4 16.7.2.1.4.2.7.2h.3c.3-.1.6-.4.7-.7.6-1.7 1.4-3.4 2.5-5.4.2-.3.2-.7.1-1-1.2-2.8-2.5-5.5-3.9-8.1-9.8-1.1-17.4-6.1-26-11.2-8-4.8-16.9-7-25.1-11.3-7.7-4-14.2-9.5-20.7-15.2-3.3-2.9-6.7-5.9-9.9-9.2 4.5 6 9.1 11.9 14.2 17.4 11.1 12.1 25.6 20.1 39.7 27.8zM524.5 533.8c9.5 4.5 18.5 9.8 27.1 16.4.2.2.4.2.7.2.1 0 .3 0 .4-.1.4-.2.6-.5.7-.9.5-4.8 2.3-9.3 5.1-13.2.2-.3.3-.8.1-1.1-5.4-11-17.6-18.3-27.5-24.2l-1.5-.9c-2.7-1.6-5.4-3.1-8.2-4.6h-.1c-1.8-.6-3.4-1.4-5-2.4-.5-.3-1.1-.7-1.6-1-2.3-1.1-4.7-2.2-7.1-3.3-1.3-.6-2.6-1.1-3.9-1.7 1.1 1.6 2.3 2.6 3.8 3.8 2 1.6 3.9 3.3 5.7 5.1 1.6 1.6 3.1 3.3 4.6 5 1.6 1.8 3.4 3.4 4.9 5.2 2.7 3.3 4.7 8.1 3.7 12.3-.3 2-1.1 3.8-1.9 5.4zM647 329.7c3.7.3 7.5.5 11.2.8h.1c.4 0 .8-.2 1-.6 5-10.1 11-19.4 18.2-27.8-3.7 1.9-7.4 3.9-10.8 6.4-2.8 2-5.5 4.1-8.5 5.7-1.5.8-3.2 1.6-4.9 1.7-.7 0-1.9.1-3-.1-.1 0-.1-.1-.1-.1-.2-.2-.2-.2-.5-.3 0 0 .1 0 .1.1-.2-.1-.3-.2-.5-.3-1.9 4.3-3.1 8.8-3.3 13.4-.1.5.4 1 1 1.1zM569.1 193.4c8.6 8.6 8.8 23.8 11.5 35.1 1.5 6.3 3.1 12.2 3.7 18.7.5 6 .7 12 .8 18 .1 11.1-.9 22.4-2.5 33.3-.5 3.7-1.6 7.5-3 11.1-1.9 6-4.5 11.4-8.4 15.2-.1 0-.3.2-.3.2-.4.3-.5.8-.3 1.2.9 2.6 2 5.1 3.2 7.4.2.4.6.6 1 .6.1 0 .2 0 .4-.1 5.4-1.9 11.2-3.3 17.5-4.3.5-.1.9-.5.9-1.1 0-8.1.9-16.1 2.6-24.2l.1-5.9c.2-8.9.5-18.1-.5-27.3-1.4-13.9-4.8-28.4-10.8-45.6-4.2-12-9.4-23.9-15.4-35.4-1.1.7-1.8 1.9-.5 3.1zM681 566.2c-8.3 4.8-15.4 10.6-21.6 17.5-4.4 4.9-8.2 10.7-11.9 18.4-.8 1.6-1.3 3.6-1.9 5.6-.4 1.2-.7 2.5-1.1 3.7-.1.3-.1.7.2 1 .2.3.5.4.9.4l3.6-.1c2.1-.1 4.1-.1 6.2-.2.4 0 .8-.3 1-.7.2-.5.4-.9.6-1.3v-3.2c.1-3.2.2-6.1 1.5-9.1 1-2.4 2.2-4.8 3.5-7 2.9-5 6.4-9.7 10.2-14.1 2-2.3 4.3-4.4 6.3-6.7.8-1.3 2.1-2.6 2.5-4.2zM767.3 430.1c-1.8.5-3.5 1.1-5.2 1.8-9.5 2.1-19.1 3.9-28.5 5.9-10.6 2.2-20.5 4.9-30.4 9.3-5.3 2.4-9.7 5.9-14.8 8.6-2.5 1.4-5 2.6-7.5 3.9-2 1-3.9 2.1-6 2.7-.5.1-.9.3-1.4.4-3.1 1.3-5.3 0-6.4-4.1 1.1-1.1-.1-2.5-1.2-2.5-.5.6-1 1.2-1.4 1.7-.1.4-.1.8-.1 1.1-1 .9-1.8 2-2.6 3-.6.8-1.3 1.6-1.8 2.5-.5.9-1 1.6-1.6 2.3-5.8 9.4-10.5 19.6-14.8 29.7-.2.4-.1.9.3 1.3.2.2.5.3.7.3.2 0 .4-.1.6-.2l3.7-2.3c5.3-3.3 10.8-6.7 16.4-9.5.2-.1.4-.3.5-.6 8.7-23.5 34.8-33.7 61.7-41.2 5.4-1.5 10.7-2.9 16.1-4.3 11.4-2.9 23.1-6 34.4-10 5.6-2 10.8-4.5 15.7-7.5-8 3.2-16.2 5.6-24.5 7.7-.6-.1-1.2-.2-1.9 0zM573.2 589.5c-8.7-9.3-16.9-18.1-19.2-29.9 0-.2-.2-.4-.3-.6-16.9-15-37.2-24.3-54.8-31.4-.1-.1-.3-.1-.4-.1-.2 0-.4.1-.6.2-.3.2-.5.5-.5.9 0 2.2.3 4.3.7 6.4 1.3 1.2 2.6 2.5 4.1 3.3.8.5 1.7.9 2.6 1.2.9.4 1.9.6 2.9.8.4.1.8.2 1.3.2 1.8 1 3.7 2 5.6 2.8 6.5 2.6 13.3 4 19.5 7.1 6 3 12.9 5.8 15.3 12.5 1.7 4.7 3.3 9.1 5.9 13.3 5.2 8.5 12.4 15.5 18.4 23.5 3.4 4.5 6.7 9.1 9.9 13.7 1.9 0 3.8.1 5.6.1.4 0 .7-.2.9-.5.2-.3.2-.7.1-1.1-3.9-8.3-10.6-15.5-17-22.4z"/><path class="st5" d="M644.7 605.3c.5-1.7.9-3.2 1.4-4.3.4-.8.8-1.7 1.2-2.5h-.1c-.8.7-1.3 1.7-1.7 2.5.5-1.2 1.1-2.4 1.8-3.5.1 0 .1-.1.1-.1v-.1c.1-.2.3-.5.4-.7.2-.3-.1-.5-.4-.5.3-8.1 3.4-14.8 9-20.8 5.4-5.8 12.1-10.3 17.8-15.8 5.2-5 9.1-10.6 12.9-16.7 1.8-2.9 3.6-5.7 5-8.9.3-.8.8-1.7 1.2-2.7h-.1c-3.4 0-6.5.2-9.6.5-.2 0-.4 0-.7-.1h-.2c-.4 0-.7.2-.9.5-1.8 2.7-4 5.3-6.1 7.8-.8.9-1.6 1.9-2.3 2.8-2.1 2.6-4.4 5.3-6.7 8-15 17.8-32 37.9-33.4 61.4 0 .3.1.6.3.8.2.2.5.3.8.3 1.4 0 2.8-.1 4.2-.2l2.9-.1c.4 0 .8-.3.9-.6.9-1.9 1.6-4.2 2.2-6.5 0-.1 0-.3.1-.5zM613.7 613.2c.2-.2.3-.6.3-.9-1-7.5-1.4-14.1-1-20.1-.5 2.6-.9 5.2-1.2 7.7 0 .4-.1.7-.1 1.1-.4-3.5-.4-7-.2-10.4 0-.1-.1-.1-.2-.2-.1-.6-.1-1.2-.4-1.8-.1-.2-.3-.2-.3 0-1.3 3-4.7 6.3-8.1 6.3-3.7 0-6.5-4.4-8.8-6.9-5.3-5.7-10.6-11.5-15-18-6.6-9.5-13.6-22.7-11.2-34.7-3.3 3.3-5.6 6.9-6.7 10.9-2.7 9 .2 19 8.6 29.6 2.9 3.7 6 7.1 8.9 10.4 7.4 8.2 14.3 16 18.3 26.5.2.4.6.7 1 .7h11.5l3.7-.1c.4.3.7.2.9-.1zM627.9 591.9c-1.4-3.9-2.1-8-2.3-12.2-.2-4.1.5-8 1.8-11.9 1-2.9 2.1-5.7 2.8-8.6-1.3 1.2-2.6 2.5-3.8 3.8-.2.6-.4 1.1-.6 1.7-.4 0-.8 0-1.2.1l-.3.3c-2.9 3.3-5 7-6.5 10.8v.1c0 .2.1.3.1.4-.1.3-.3.5-.4.8-.4.7-.6 1.5-.9 2.3-3.3 10.9-2.3 22.9-.9 33.1.1.5.5.9 1.1.9 3.3 0 6.5-.1 9.8-.1.6 0 1-.5 1.1-1 .3-5.2 1.2-10.2 2.8-15-1.1-1.8-1.9-3.6-2.6-5.5zM606 132.3c-17.8 25.3-10.1 53.7-2.7 81.3 4.5 16.7 9.1 33.9 8.4 50.6 0 .5.3.9.7 1.1.1 0 .2.1.3.1.4 0 .7-.2.9-.5 5-7.3 11-14.3 17.6-20.7.3-.3.4-.7.3-1.1-.9-2.8-1.4-5.6-1.9-8.5-.2 0-.4.1-.5.3-2.1 3.5-6.2 3.9-9.3 1.9-3.1-1.9-3.5-4.7-4.1-8.1-.9-5.5.1-11-.3-16.6-.8-9.5-5.1-18.3-8.6-27.1-5.3-13.8-6.7-28.3-4.3-42.4 1.3-3.3 2.7-6.8 3.5-10.3zM690.4 269.2c-2.4 1.1-4.6 2.5-6.7 4.1-2.6 1.5-5.2 3-7.5 4.4-8.4 5.1-16.2 11.1-24.7 16-8.3 4.8-15.4 11.6-24.1 15.8-5.5 2.7-11.9 4.4-17.9 2-3.7-1.5-6.1-3.9-7.5-7-1.8 7.6-2.9 15.4-2.9 23.3 0 .3.1.6.4.8.2.2.5.3.7.3h.1c2.5-.2 4.9-.4 7.2-.5 2.7-.1 5.5-.1 8.2-.1 8 0 16.5.3 27.5 1.1h.1c.3 0 .5-.1.7-.3.2-.2.4-.5.4-.8.2-4.8 1.6-9.5 3.7-13.9-.1-.1-.3-.1-.4-.2.5-1.2 1-2.5 1.7-3.7 1.7-2.9 3.7-5.7 5.8-8.2 2.7-3.2 5.6-6.3 8.6-9.3.8-.9 1.6-1.7 2.4-2.5.6-.6 1.2-1.1 1.8-1.7l.5-.5c.2-.2.5-.5.8-.7 8.4-7.9 17.9-14.4 27.5-19.9-.2.1-.4.1-.6.1-1.6-.7-4.6.8-5.8 1.4zM560.2 533.6h.1c.3 0 .6-.1.8-.3 3.3-3.5 7.7-6.7 13-9.6.4-.2.6-.8.5-1.2-.1-1.4-.4-2.8-.7-4.5-.1-.5-.5-.8-.9-.8l-.6-.1c-30.6-10.6-37-32.8-44.5-58.5-2.8-9.6-5.7-19.5-10.1-29.3-5.1-11.5-13.4-20.2-24.6-26 6.1 5.5 12.3 11.1 16.1 18.4 5.3 10.1 5.1 21.5 4.7 32.6-.4 9.8 1.6 20.6 6.4 29.2 2.5 4.5 6 8.4 9.6 12.1 1.9 2 4 4 5.5 6.4 2.3 3.6 1.6 6.2.8 9.7 9.6 5.9 18.2 12.8 23.1 21.5.1.1.4.3.8.4zM628.9 499.7c-4.7-1.1-4.7-6.4-3.3-10.1 3-7.9 10.3-13.8 15.5-20.2 4.8-6 7.8-12.7 11-19.5 1.5-3.2 2.8-6.3 4.1-9.6 1.3-3.5 2-7 3-10.5-2.7 3.4-5.4 6.8-8.5 10.2-3.3 8-7.4 14.6-12.8 20.6-3 3.3-6.3 6.5-9.4 9.5-2.9 2.8-6 5.7-8.8 8.8-8.4 9.1-10.7 19.4-12.9 31.8-.1.4.1.7.4 1 .2.2.5.3.8.3h.3c7.4-1.8 15-3.7 22.3-6.3 2.5-.9 5.3-2.3 8.9-4.3.2-.1.4-.3.5-.5.7-1.8 1.5-3.5 2.3-5.3h-.2c-4.2 2.3-8.3 5.2-13.2 4.1zM580.3 520.2c.2.1.3.1.5.1.1 0 .3 0 .4-.1 2.8-1.2 5.7-2.3 8.8-3.2.5-.2.8-.6.8-1.2-1-9.8-2.1-20.9.7-31.8-.9.9-1.6 2-2.5 2.8-1.3 1.3-2.8 2.3-4.4 3.2-3.3 1.8-7.1 2.9-10.9 2.7-2.7-.1-5.4-.9-7.8-2.1-1-1.3-2.1-2.7-3.1-4.1-.9-1.3-2-3.3-3.6-4 2 3.1 4.1 6.1 6.2 9.1 6.1 8.5 12.4 17.4 14.3 27.8.1.4.3.7.6.8z"/><path class="st5" d="M601 486.2c-1-3.8 1.1-6.7 3.5-9.5 2.8-3.2 4.5-6 5.8-10 1.4-4.4 3.7-8.5 5.1-12.9 1.4-4.5 2.2-9.3 2.8-14 1.6-13.3.3-27.9 3.8-40.9 1.9-5.3 5-10.3 7.6-15.3v-.2c.2-.3.5-.6.7-.9 0 0 0-.1 0 0-.3.3-.4.6-.7.9 0-.1-.1-.1-.1-.1-1.6 2.1-3.1 4.4-4.4 6.9-6 11.1-7.6 23.5-9.1 35.4-1 7.7-2 15.7-4.3 23.2-1.9 6.4-5.8 12.2-9.5 17.8-1.8 2.8-3.7 5.6-5.4 8.5-7.3 12.9-5.8 27.2-4.5 39.8 0 .3.2.6.5.8.2.1.4.2.6.2h.3c2.1-.6 4.1-1.2 6.2-1.7.4-.1.7-.4.8-.9 1.6-8.5 3.2-15.9 6-22.9-2.5.3-4.9-1.1-5.7-4.2zM487.8 289c2.9 2.2 5.9 4.4 8.8 6.7 2.6 1.6 5.1 3.3 7.4 5.3 2.3 2 4.5 4.1 6.7 6.3 16.7 14.6 28.4 29.4 35.6 45.1.2.4.5.6.9.6h.1c.3 0 .7-.2.9-.5 4.5-6.2 11.2-11.4 19.7-15.3.3-.1.5-.4.6-.6.1-.3.1-.6-.1-.9-.8-1.5-1.5-3.1-2.1-4.7-3.6-.2-7.2 1.1-10.9.4-4.9-1-9.3-3.9-13.1-7.1-6.8-6-12.3-13-19.8-18.2-11.2-7.8-24.4-11.4-36.1-17.9.6.1 1 .5 1.4.8z"/><path class="st6" d="M666.6 331.2c5.9.4 12.1.9 18.3 1.2.5-1.3.9-2.7 1.5-4 .8-2 1.8-4.4 3-6.8-5.2-.6-10.5-1.6-16.3-3.1h-.3c-.4 0-.7.2-.9.5-2.2 3.4-4.3 7-6.2 10.6-.2.3-.2.7 0 1 .2.3.5.5.9.6zM727.3 361.5c-2.4 1.8-4.8 3.6-7.3 5.3-8.7 5.6-22.5 15.1-33 9.1-1.1-.6-2-1.3-2.8-2.1-.5.3-1.1.6-1.6 1-15 9.5-20.5 24.4-24.2 39l-1.7 6.6c-.1.5.1 1 .6 1.3.2.1.3.1.5.1.3 0 .7-.2.9-.4 7.1-9.2 13.2-16.7 21.8-22.7 9.2-6.5 21.1-11.4 34.4-14.3.3-.1.6-.3.7-.6 1.6-3 3.1-6 4.7-9 2.3-4.5 4.6-8.9 7-13.3zM709.1 204.2h.2c7.9-1.1 16.6-1.2 23.4-1.2 3.7 0 7.6 0 11.4.1 3.9 0 7.9.1 11.8.1 24.6 0 52.1-1.7 67-21.4.5-.7.8-1.3 1-1.8-1.8.3-2.7 1.5-2.8 2.8-3 1.7-6.4 3-9.2 4.1-4.4 1.7-8.8 3.2-13.4 4.1-9.5 2-19.3 2.3-28.9 1-8.7-1.1-17-.9-25.7-.1-6.1.6-14.7 1.7-20.4-1.8-5.1 3.7-10 7.7-15.2 12.2-.4.3-.5.8-.3 1.3.2.3.6.6 1.1.6zM364.9 262.4c.3.1.6.1.9.2h.5c3.9 7.7 11.6 13.1 18.8 17.5.8.5 1.6.9 2.4 1.4.9.5 1.7 1 2.6 1.4.1.1.3.1.4.2 3.4 1.7 7.1 3.4 10.9 4.9.5.2 1.1.4 1.6.6.8.3 1.5.6 2.3.8l2.7.9c10.5 3.2 21.4 4.8 31.9 6.3 2.9.4 5.9.8 8.8 1.3h.2c.4 0 .7-.2.9-.5.2-.4.2-.9 0-1.2l-2.7-3.8c-3.1-4.3-6.2-8.8-9.5-13.1-2.4.7-4.9 1.3-7.4 1.8-8.1 1.5-16.6 1.4-24.6-.4-6.5-1.5-13-4-18.7-7.6-3-1.9-5.8-4.1-8.1-6.8-.6-.7-1.2-1.5-1.9-2.3-3.8-.6-7.4-1.3-10.9-2.4h-.3c-.4 0-.7.2-.9.5.1.1.2.2.1.3zM527.3 435.6c.5-.1.9-.5.9-1 .2-5.7.8-11.5 1.4-17.2l.1-1.3c.6-5.6 1.1-11.3 1.4-17.1 0-2 .1-3.9.1-5.9 0-1.2 0-2.5.1-3.8 0-2-.1-4.1-.2-6.2-.1-.9-.3-1.8-.6-2.6.1-.1.3-.2.4-.3 0-.5-.1-.9-.2-1.4-8.6 4.3-14.5-6.7-18.6-12.2-3.3-4.5-7.6-8.2-12.2-11.4-11.4-7.8-24.9-11.8-37.9-15.8-1-.3-1.9-.6-2.9-.9 29.4 15.3 53.1 34.4 54.6 74 0 .2.1.5.2.7 4.6 6 8.6 13.3 11.9 21.6.2.4.6.7 1 .7.4.2.5.2.5.1z"/><path d="M742.6 714.1c.3-.2.7-.3 1.5-.3 11-2.4 17.2-4.9 18.9-7.6.5-.8.7-1.6.5-2.4-1.2-5.3.6-11.7 2.2-17.4.4-1.5.8-2.9 1.1-4.2 2.3-9.4 4.8-18.8 7.5-28.2-5.2 5.5-10.7 10.9-16.4 15.9-11.2 9.9-23.6 18.7-37.2 25.1-15.5 7.3-32.4 10-49.4 11.3-35.5 2.9-71.4 3.3-107 2.3-16.9-.5-33.9-1.2-50.8-2.8-14.4-1.4-28.8-3.7-42.1-9.5-12.2-5.4-21.4-14.2-28.2-25.1l.9 3.3c2.3 8.6 4.6 17.4 6 26.2 1.7 10.6 16.6 12.9 27.4 14.6 1.7.3 3.4.5 4.8.8 38.4 7.2 77.8 8 118.1 8.2h5.8c39.3 0 74.4-1.9 107.3-5.7 3.8-.3 17.1-1.9 29.1-4.5z" style="fill:#895725"/><path d="M739.8 723.4c.1-.4 0-.7-.3-1-.2-.2-.5-.3-.8-.3h-.2c-11.7 2-24.1 2.8-33.1 3.4-3.4.2-6.3.4-8.4.6-37.8 3.6-71.4 5.4-102.4 5.4-45.1 0-84.4-3.7-120.3-11.2h-.2c-.3 0-.6.1-.8.3-.3.3-.4.6-.3 1l1.3 6c.7 3.2 1.4 6.5 2.1 9.7 31.1 7.2 62.6 11.5 94.8 12.8 43.3 1.8 86.6-1 129.5-6.9 11.9-1.6 23.7-3.4 35.4-6 .2-.1.5-.1.8-.2.8-3.9 1.7-7.7 2.5-11.5l.4-2.1z" style="fill:#84391c"/><path d="M733.5 760.6c0-.4.1-.7.1-1.1-7.9 3.8-16.2 6.6-24.6 8.9-17.7 4.7-36 6.7-54.3 7.8-41.2 2.5-83.7 4.6-124.7-1.1-11.5-1.6-23-3.9-34.2-6.8-4.6-1.2-9.1-2.5-13.3-4.8-.7-.4-1.3-.8-2-1.2 3.5 10.3 21.4 13.3 32.5 15.1 1.5.3 2.9.5 4.1.7 29.8 5.6 60.3 6.3 83.6 6.3 4.8 0 9.5 0 14.2-.1 34.7-.4 62.7-2.8 88.3-7.6l2.5-.5c10.3-1.8 27.4-4.8 27.8-15.6z" style="fill:#f89c5a"/><path d="M788.8 598.9c-.2 0-.4 0-.5.1-13.8 7.5-37.9 10.1-52.3 11.7-3.4.4-6.3.7-8.5 1-32.9 4.6-68.7 6.9-112.9 7.5-3.9 0-7.8.1-11.7.1h-7.1c-.2.1-.4.1-.7.1-.3 0-.6 0-1.1-.1-35.9-.3-68.9-2.3-100.8-6.3-17.4-2.2-33.3-5.1-48.6-8.9l-2.3-.6c-5.2-1.3-11.6-2.8-17-5.5-.2-.1-.3-.1-.5-.1s-.5.1-.7.2c-.3.3-.5.7-.4 1.1.9 3.4 1.8 6.7 2.7 10.1 6.7 2.1 13.6 3.7 20.2 5.5 13.6 3.7 27.6 6.4 41.5 8.7 27.5 4.5 55.4 6.5 83.2 7 56.8 1.1 113.5-4.6 169.6-13 13.9-2.1 27.9-4.1 41.6-6.9 1.5-.3 2.9-.7 4.4-1l2.7-9.3c.1-.4 0-.9-.4-1.2.1-.1-.2-.2-.4-.2z" style="fill:#d7bd8c"/><path class="st11" d="M564.2 358.7c7.5-5.4 16.1-9.4 24.9-12 18.2-5.4 37.1-4.6 55.8-3.5 10.5.6 21 0 31.5-1 6.1-.6 14.6-.9 21-3.6-16.7 0-33.8-1.3-50.3-2.6l-10.8-.8c-6-.4-12.1-.7-17.9-.7-15.7 0-34.9 1.7-49.5 8.2-5.9 3.2-11.5 7-15.9 11.7-5.8 7.3-7.7 16.5-5.8 27.5.9 4.9 2.3 9.5 3.7 14 2 6.4 3.9 12.4 4.2 19.3.4 7.4-1 15.1-2.4 22.6-1 5.7-2.1 11.6-2.4 17.4-.4 8.7 2.3 16.1 6.2 23.1-.5-5.5-.6-11 .4-16.5 1.6-8.8 5.3-17 6.6-25.9 1.5-9.7-.3-19-3.2-28.3-2.7-8.4-6.4-16.7-6.8-25.6-.4-9.8 2.7-17.5 10.7-23.3zM475.3 400.9c3.9.4 7.8 1.2 11.6 2.4 3.2 1 5.7 1.3 8.6 1.1-9.5-5.5-21.4-8.9-35.6-10-2.2-.2-4.3-.2-6.5-.2-8.2 0-16.4 1.2-24.5 3.5-6.5 1.9-10.1 5.8-13.5 9.6-.8.9-1.7 1.9-2.5 2.8-.1.1-.2.3-.3.5-2.6 11.8-.4 22.1 4.8 31 .3.1.7.1.9-.1.1-.1.6-.3.6-.6-.1-1.6-1-3.2-1.4-4.7-.7-2.3-1.2-4.7-1.4-7.1-.3-4.6 1.6-8.3 2.5-12.6.2-1.1.5-2.1.8-3.1 2.1-2.8 4.4-5.3 7.3-7.2 7.2-4.9 15.5-5.9 24.1-6.2 8.2-.3 16.4 0 24.5.9zM606.5 132.2c2.1-1.5 4.5-2.4 6.5-4 1.9-1.5 3.6-3.3 5.7-4.7 4.1-2.8 8.4-5.4 12.7-7.9 9-5.3 18.2-10.1 26.8-16 8.4-5.8 16.6-11.9 21.7-20.9 4.7-8.1 9.6-16.6 11.3-25.8-.1 0-.1-.1-.2-.1h-.2c-.4 0-.9.3-1 .7-2.4 6.1-6 11.7-10.4 16.9-1.6 2.6-3.4 5-5.6 7.3-6.4 6.5-13.3 11.7-21.1 16.2-3.9 2.8-7.8 5.5-11.6 8.2-8.4 5.8-16.3 11.3-22.8 16.9-5 4.4-9.1 8.8-12.3 13.4.1 0 .3 0 .5-.2zM453 196.6c14.7 15.3 30.6 28.2 48.3 39.9 16.6 10.9 34.2 22 46.1 38.2 6.3 8.5 9.9 17.7 12.5 27.9.1.5.3 1.2.5 2 0-.3-.1-.5-.1-.8-1.4-10.6-2.9-21.5-7.8-31.6-10-20.6-29.2-34-47.7-47-3.5-2.4-6.9-4.8-10.3-7.3-8.7-6.3-16.9-13.5-24.9-20.4-9.3-8.1-19-16.6-29.5-23.7-14.8-10-31-15.1-48.3-15.1-12.9 0-26 2.9-38.8 8.6 2.7-1 5.3-2.1 8.1-3 5.1-1.8 10.2-2.1 15.6-2.4 9.8-.6 19.6-.1 29.1 2.4 19.3 5.1 33.8 18.4 47.2 32.3zM477.1 81.3c2.1 2.6 4.5 5.3 7.2 7.3 2.4 1.7 5.3 4.4 8.4 4.4.2 0 .3-.1.5-.2-1.1-1.4-2.3-2.8-3.4-4.3-.5-.6-.9-1.2-1.3-1.9-.4-.4-.8-.7-1.1-1.1-2.4-2.7-5-5.2-7.1-8.2-.8-1-1.5-2.1-2.2-3.2.1.1.2 0 .2-.1-.2-.5-.5-.9-.7-1.4.2.3.4.5.6.8.2.2.5 0 .4-.2-.9-2.2-1.5-4.5-2.4-6.7-1-2.3-2-4.6-2.9-6.9-.9-2.1-1.6-4.3-2.4-6.4-.5-1.1-.9-2.3-1.3-3.4-.2-.6-.4-1.1-.5-1.7-.2-.7-.8-1.6-.8-2.3 0-.2-.2-.2-.3-.1-.5-3.2-.8-6.5-1.1-9.7-.2-2.2-.4-4.3-.7-6.5-.2-.1-.4-.2-.6-.2-.5 0-1 .4-1.1.9-1.6 8.6-1.8 16.7-1.1 24.4 1.1 2.8 2.2 5.5 3.4 8.3 2.7 6.6 5.8 12.8 10.3 18.4zM825.6 389c.3-.5.2-1-.2-1.4-.2-.2-.5-.3-.7-.3-.1 0-.1 0-.1.1-.1.1-.2.1-.2.2-1.4 1.5-2.8 3.1-4.2 4.6-.7.5-1.5 1-2.2 1.5-2.1 1.4-4 2.9-6 4.4-2 1.4-3.9 2.8-5.9 4.2-1.7 1.2-3.5 2.3-5.2 3.7-4.1 2.2-8.3 4.2-12.8 5.4-3 .8-6 1.5-9 2.1-1.4.3-2.8.5-4.3.7-.5.1-.9.1-1.4.2-.6.1-1.3.3-1.9.4-.3.1-.2.3-1.8.9-.2.1-.2.4.1.4 1.9.2 2.6.4 4.5.1 1.6-.2 3.2-.5 4.8-.8 3.2-.6 6.4-1.3 9.5-2.2 6.3-1.8 12.6-3.2 18.5-6.1 3.8-1.9 7.4-4.1 10.9-6.5 2.5-3.6 5.2-7.4 7.6-11.6zM741.2 530.4c-.1 0-.2 0-.3.1-5.3 1.7-11 2.5-17.9 2.5-4.7 0-9.3-.4-14.3-.7-3.5-.3-7.2-.5-10.8-.6.1.4.2.8.5 1.1 3.5 3.8 9 3.9 13.9 4.3 5.2.4 10.4.4 15.5.1 3.8-.3 7.5-.7 11.2-1.5l1.5-1.5c.5-.7 1-1.3 1.5-2 .3-.4.3-.9 0-1.3-.1-.4-.4-.5-.8-.5zM675.6 220.5c-33.3 14.9-58.2 40.8-69.6 71 0 .3 0 .5.1.8.1.7 1.1 1 1.6.7 2.9-1.8 4.2-4.2 6.1-6.9 2.2-3.1 4.5-6.1 6.7-9.3 4.5-6.5 9.9-12.5 15.6-18 11.1-10.7 24.2-19.5 38.2-26 15-7 31.1-10.3 47.6-11.6 18.8-1.4 38-1.2 56.5-5.7 13.3-3.2 29.6-9.5 38.3-21-.8.5-1.6 1-2.5 1.6-14.7 8.7-32.5 10.2-48 11-1.1.1-2.2.1-3.3.1-15.3 2.3-30.9 2.2-46.3 3.6-14.3 1.2-28.1 4.5-41 9.7z"/><path class="st11" d="M720.8 343.2c.2-.3.3-.6.2-.9-1.9.5-3.8 1-5.6 1.6-6.5 3.6-13.3 6.4-20.4 8.8-1.7.7-3.5 1.4-5.3 1.9-.8.2-1.7.4-2.5.6-5.4 1.6-10.9 3.1-16.7 4.6-12.3 3.1-25.5 7.8-35.7 17.6.1.1.2.2.4.1 3.6-1.1 6.7-3.8 10-5.5 4-2.1 8.1-3.7 12.4-5 8-2.6 16.1-4.6 24.4-6.4 4-.9 8-1.9 12.1-2.7 3.6-.7 7.1-1.1 10.6-2.1 5.9-3.6 11.7-7.6 16.1-12.6zM400.5 198.4c2.7 2.2 5.4 4.5 7.9 6.8 2.1 2 3.9 4.6 6.8 5.5.8.3 1.5-.2 1.9-.8-2.5-3.3-5-6.6-7.9-9.6-16.1-17.1-38.2-28.2-59.2-29.6h-.1c-.5 0-.9.3-1 .7-.2.5 0 1 .4 1.3 2.6 1.9 4.7 4.2 6.5 6.7 2.2.3 4.4.8 6.6 1.3 6.8 1.7 13.8 3.9 20.3 6.7 6.5 2.8 12.3 6.7 17.8 11zM407.6 414.8c-.2 0-.4 0-.5-.1-2.3 1.4-4.8 2.5-7.3 3.6-6.7 2.9-13.6 5.8-16.1 14.4-3.1 10.6 1.4 20.2 7.8 28-.5-1.5-1-3-1.4-4.5-1.4-5.3-1.4-10.7-.2-16 1.2-4.9 3.9-8.7 7.6-12 3.7-3.3 9.1-5.3 11.6-9.8.7-1.3.1-3.2-1.5-3.6zM680.9 521.2c.5-2.5 1-5 1.3-7.5.3-3.2 1.3-6.4 2.4-9.4.8-2.2 2-4.2 3-6.3.7-2.2 1.5-4.5 2.5-6.7.1-.3.1-.7-.1-1h-.1c-1-.1-1.8.8-2.3 1.5-.2.3-.4.7-.6 1-2.1 1.2-4.4 2.5-6.3 3.9-.4.3-.8.7-1.2 1-2.9 3.3-5.5 6.9-7.8 10.6v.1c0 .2.1.3.3.2.3-.2.6-.1.9-.2.3-.1.5-.3.7-.4.6-.2 1-.4 1.6-.8 1-.7 1.8-1.8 2.7-2.7 1.7-1.7 3.4-3.4 5.2-4.9.5-.5 1-.9 1.6-1.4-.2.6-.3 1.1-.5 1.7-.5 1.5-.9 3-1.3 4.6-.8 2.9-1.3 5.8-2 8.7-.8 3-.7 6-.5 9.1 0 .1.1.1.1.1 0-.1.1-.2.1-.3.1-.2.2-.6.3-.9zM414.8 204.4c.5.6 1 1.3 1.5 1.9-.5-.7-1-1.3-1.5-1.9zM694.9 55.2c-.7 2.1-1.2 4.2-1.7 6.3-2 21.2-12.8 40.7-24.5 59.6 2.2-1.8 4.4-3.5 6.4-5.8 2.2-2.5 4.1-5.1 6-7.8 4.3-6.1 8.1-12.5 11.6-19.1 2.2-4.2 4.2-8.4 6-12.8.1-6.6-.8-13.2-3.1-19.8-.1-.3-.4-.5-.7-.6z"/><path class="st11" d="M353.5 169.4c11.3 1.3 22.6 5.3 33.7 11.8-.7-.4-1.3-.9-2-1.4-6.7-4.3-13.5-7.4-21.3-9.4-3.4-.9-7.3-1.8-11.3-2.3 0 .1-.1.2-.1.4.1.4.5.8 1 .9zM645.4 513.8c11.1-6 22.1-12.4 33-18.8 1.1-.7 2.3-1.3 3.4-2 1.9-1.7 4-3.4 6.2-4.8.4-.2.6-.7.5-1.2-.1-.5-.5-.8-.9-.9-.8-.1-1.7-.2-2.6-.2-11.5 0-26.4 9.2-38.3 16.6-5.9 3.7-11.1 6.8-15 8.5-7.8 3.3-16.4 5.4-24.8 7.4-6 1.4-12.2 2.9-18.1 4.9-6.5 2.1-11.9 4.8-16.3 7.9 1 .3 2.1 0 3.5-.3 3.6-.8 7-1.8 10.6-2.5 6.8-1.3 13.6-1.7 20.5-2.6 13.4-1.7 26.5-5.6 38.3-12zM823.3 383.5c-.1 0-.2 0-.4.1-8.5 2.9-18.6 4.3-31.6 4.3-7.2 0-14.2-.4-21.1-.8-2.6-.1-5.1-.3-7.5-.4-3.9-.2-7.7-.3-11.3-.3-21.9 0-40.6 3.5-57 10.7-12 5.2-20.3 14.1-27.8 23.3 3.3-1.7 6.4-3.3 9.6-5.4 3.6-2.4 7.2-4.6 11-6.7 7.2-3.9 14.9-7.1 22.7-9.4 17.5-5.2 35.3-4.8 53.3-4.2 16.1.5 32.7.8 48.2-4.2 4.4-1.4 8.8-3.4 13-5.7 0-.2 0-.5-.1-.7-.2-.4-.6-.6-1-.6zM809.8 207c-.6.6-1.2 1.1-1.6 1.8-.4.4-.8.9-1.2 1.3-.3.3-.5.6-.7 1 3-2.5 5.8-5.1 8.2-7.8-.9.6-1.8 1.3-2.7 2-.7.5-1.3 1.1-2 1.7zM793.5 311.4c-.1-.5-.5-.9-1-.9h-1c-19.6 0-37.2 16.9-43.9 24.1-4.9 5.3-9.1 11.2-12.8 17.3.7-.7 1.5-1.5 2.3-2.1 2.9-2.3 5-5.7 7.5-8.4 5.2-5.7 11-10.9 17.5-15.1 6.2-3.9 13-6.2 19.8-7.9 3.6-2.2 7.3-4.2 11.1-5.9.3-.1.6-.6.5-1.1zM470 29.6c-.2-.3-.5-.4-.9-.4-.1 0-.3 0-.4.1-.5.2-.7.7-.7 1.2.1.8.3 1.6.4 2.4 3.6 8.5 9.5 16.5 15.6 22.6 9.8 9.9 21.6 16.9 34.7 21.6 15.8 5.6 31.3 10.1 45.9 18.5 6.4 3.7 12.6 7.8 18.1 12.8-12-16.3-31.4-28-52.2-37.8-13.4-4.2-25.9-9.1-36.6-18.7l-.8-.8c-8.5-5.8-16.4-12.7-23.1-21.5z"/><path class="st11" d="M817.5 203.5c-.2-.2-.4-.2-.7-.2-.3 0-.6.1-.8.4-3.7 4-7.9 7.7-12.1 11-.1.2-.1.4 0 .5-.4.3-.7.6-1.1 1-1.7 1.2-3.3 2.4-5.1 3.5l-6 3.9c-7.9 5.3-16.7 10.2-27.1 15.1.4.4.9.7 1.5.6 12.4-1.9 23.2-9.6 33.6-16.1l4.5-2.7c5.6-5.2 10.1-10.2 13.5-15.3.4-.7.3-1.3-.2-1.7zM764.3 236.8c.7-.3 1.5-.7 2.2-1.1l-1.2.3c-.5.1-.8.4-1 .8z"/><path class="st12" d="M577.1 272.7c-.1-2.5-.4-5.1-.8-8.3 0-.2-.1-.5-.3-.6-10.9-10.6-23.8-18.2-38.5-22.4h-.3c-.4 0-.8.2-1 .6-.2.4-.2 1 .2 1.3 1 .9 1.9 1.7 2.8 2.6 5.6 2.5 11 5.6 16 9.2 5.9 4.3 10.9 9.5 15.6 14.9 2.2 2.6 4.2 5.2 6.5 7.7 0-1.8-.1-3.4-.2-5zM823.8 176.3c-3.7-7.5-30.6-8.3-30.9-8.3h-1.4c-12.5 0-24.9 3.1-35.5 6-9.3 2.5-17.4 6.3-25.2 11 1.4-.4 2.7-.7 4.1-1.1 5.1-1.3 10.2-2.8 15.3-4.2 10.3-2.9 20.7-4.9 31.3-5.4 9.5-.5 19.1.2 28.4 2.3 4.6 1 9 2.7 13.6 3.8 1-1.7.7-3.1.3-4.1zM787.2 307.1c-3.7-1.1-7.7-1.7-11.9-1.7-12.1 0-24.5 4.5-36.5 8.8-4.8 1.8-9.4 3.4-13.9 4.8-7.5 2.2-15.1 3.3-23.3 3.3h-.9c5.2 3.4 13.5 3.1 19.3 2.5 7.8-.9 15.1-3.2 22.7-5 10.1-2.4 20.4-5.6 30.7-6.4 4.3-1.9 8.9-3.4 13.7-4.1.5-.1.9-.5 1-1-.1-.6-.4-1.1-.9-1.2zM383.6 264.8l.3.3c1.8 1.3 4.3 2.1 6.5 2.5 4.8.8 9.7.9 14.5.7 5.1-.1 10.4-.6 15.4-1.7 1.7-.4 3.5-.9 5.1-1.7-1.3-1.2-2.5-2.5-4-3.7-.2-.2-.5-.3-.7-.3h-.3c-11.3 2.8-21.4 4.2-30.8 4.2l-6-.3zM401.6 288.1c1.1.4 2.3.8 3.4 1.2-1.1-.7-2.5-1.1-4-1.5.2.2.4.2.6.3zM389.6 284.6c-3.5-1.6-6.8-3.5-10-5.6-1.7-1.1-3.2-2.4-4.8-3.7-2.8-2.2-5.3-4.5-7.6-6.9-2.7-2.4-5.7-4.4-8.9-6.2 2 5.7 4.6 11 7.6 15.7 3.7 3.1 7.5 6 11.4 8.9 4.9 3.6 10.7 6.3 16.5 7.8 2.9.8 6.3 1.3 9.2.5 1-.3 4.8-1.7 4.2-3.4-3.9-1.2-7.8-2.6-11.6-4.3-2.1-.9-4.1-1.8-6-2.8z"/><path class="st13" d="M336.4 172.2c-.4-1.2-.3-2.5.5-3.5.4-.5.9-.9 1.4-1.1 24.4-14.3 50.5-19.6 78.2-12.3 27.2 7.2 48.6 29.3 69.1 47.2 12.6 11 26.6 19.9 39.7 30 .6-.2 1.3-.4 2-.2 17 2.8 32.2 9.5 45.4 19.9-2.1-8.3-5-16.5-8.1-24.4-11-28.4-28.9-54.3-49.6-76.5-37.3-40-72.8-77.3-54-135.8.4-1.3 1.3-2.1 2.4-2.4 1.4-.6 3-.5 4.1.8.3.3.6.7.8 1.1 29.5 53.7 116.3 50.6 131.4 114.9 9.3-13.9 23.6-23.3 37.2-32.8 18.3-12.7 47.5-32.9 49.3-57.5-.4-1.8.9-3.4 2.6-4 .1 0 .2-.1.3-.1.3-.1.7-.2 1-.2h.8c1.3.2 2.4.9 2.8 2.2 18.2 27.3 10.5 54.3-2.3 82.8-7.9 17.5-18 34-26.3 51.3-7.9 16.6-18.3 37.6-16.2 56.7 13.6-9.4 28.9-16.8 44.7-21.6.2-.3.4-.7.7-1 12.8-11.7 25.8-25.4 42.3-31.9 20-7.9 40.6-12.6 62.1-12.2 7.6.1 28.9 1.1 31.3 11.3.2.7.3 1.4.4 2.1.1.2.2.4.3.7 5.8 29.1-23.5 52.4-44.7 67-20 13.7-43.9 20.8-65.3 31.8-17.3 8.9-32 22.4-43.4 38.2 28.9 6.3 51.1-2.9 78.9-11.1 17.3-5.1 33.6-3.8 47.8 7.1.1.1.3.2.4.3.2.1.3.2.5.4 1.7 1.3 1.6 3.1.7 4.4-.4.9-1.2 1.7-2.4 2-29.4 8.6-51.2 36.1-60.6 64.6 29.8.5 69.1 8.1 90.9-9.8 1.1-.9 2.2-1 3.3-.8 1.9.2 3.7 1.5 3.4 3.5.1.7-.2 1.4-.7 2.1-14.2 33.2-35.6 53.4-70.3 64.7-27.7 9-77.3 12.4-94.2 40.9 8.1-2.5 15.8-2.6 22.6 2.2.4.3.7.6.9.9 1.1 1.1 1.5 2.7.5 4.4-7 11.2-8.8 23.1-12.2 35.6-.1.4-.3.7-.4 1.1 21.9-1.5 41.8 7.4 62.2-5.7 3.5-2.3 6.8 2 5.3 5.3-7.5 16.3-20.8 27-35.1 36.6 18.2 1.7 36.3 3.9 54.1 8.2 7.3 1.7 21.8 4.8 25.7 12.6.5 1 .8 2 .9 3 .3.7.4 1.4.3 2.2 0 .2-.1.3-.1.5-.2 2.8-1.2 5.7-2 8.7-3.8 13.8-7.9 27.5-11.9 41.3-4.2 14.4-8.3 28.8-12 43.3-2.1 8.2-1.5 18.1-3.5 25.5-2.1 7.5-11.6 12-23.4 14.9-1.9 8.8-3.7 17.6-5.3 26.5-.9 4.9.6 13.3-1.1 17.5-4 10.2-16 13-25.7 15.5-32.1 8.4-66.9 9.4-99.9 10-35.7.6-72.2-.8-107.2-7.9-10.4-2.1-27.4-5.1-33.2-15.1-2-3.4-1.5-10.4-2.1-14-1.9-11.5-4.4-22.9-6.7-34.3-8.4-1.8-20.8-5.1-21.7-13.1-1.1-9.4-3.4-18.6-5.8-27.8-7.1-28.1-15.2-55.9-22.4-84-.5-1.9-.8-3.6-.9-5.2-.3-.6-.5-1.2-.7-1.8-.4-1.6.1-2.8 1-3.6 1-3.7 3.8-6.6 9.3-9.4 22.9-11.8 53.5-13.2 79.7-14.7-8.5-8.7-14-19.5-13.7-32.4 0-.7.2-1.3.5-1.8-19.5-7.6-39.4-14.7-57.5-24.9-19.4-11-41.4-24.3-52.7-44.1-5.8-10-7.8-33.6 5.2-40 10.1-4.9 17.5-8.3 25.4-16.6 5.1-5.4 13-8 19.9-10 18.2-5.2 40-2.8 57.7 3.2 6.7 2.3 12.4 5.8 17.4 10.1-7.2-45.5-53.6-62-91.7-78.8-32.3-14.3-58.3-34.8-65.7-70.8v-.1c-.1-.5-.1-1 0-1.5 0-.3.2-.5.3-.7.1-.2.2-.5.3-.7l.1-.1c.8-1.2 2.1-1.9 3.6-1.7.7 0 1.3.3 1.8.7 18.2 10.4 38.2 10.1 57.9 6-14.3-10.8-30.4-19-43.2-31.9-14-14.1-9.6-42.2-31.1-49-.4-.1-.7-.3-1-.5-.6-.9-1.1-1.6-1.3-2.4zm103.3 2.5c-27-18.3-57.8-19-86.1-6.4 18.1 2.1 34.6 10.7 48.9 22.1 20.6 16.6 29.8 41.5 45.9 61.8 15.9 20.1 38.3 33.6 57.8 49.7 16.8 13.9 32 30.1 41.2 50 5-6.9 12.1-12 20.2-15.7-10.3-19.9-6-43.2-15.9-63.5-11.7-24.2-36.7-38.6-57.6-53.8-19-13.8-35-31-54.4-44.2zm94 228.9c-1 14.1-4.7 29.6-2.2 43.9.9 2.9 1.7 5.9 2.5 8.8.2.6.4 1.1.7 1.7.2.4.2.9.1 1.3 5.8 20.8 11.5 39.7 34.6 49.6-5.2-10.5-13.9-19.5-19.8-29.4-6.4-10.7-6.3-23.7-4.8-35.6 2.2-18.4 5.3-32.5-1.2-50.5-2.9-8-4.4-15.9-3.3-23.8-3-2.5-6.1-4.7-9.3-6.9 3.4 13.2 3.7 27 2.7 40.9zm66 109.5c2.7-14.8 5.5-26.7 15.3-38.8 5.4-6.7 12.2-12.2 18.2-18.3 5.2-5.3 8.8-11.2 11.4-17.5-.1-.9.2-1.9 1-2.8l.1-.1c2.1-5.6 3.6-11.6 5-17.7 4.1-18 9-33.2 23.6-45.3 13.2-10.9 33.9-16.8 45.6-30-15.1 9.2-32 13.9-49.2 18.3-18.8 4.8-35.1 12.1-44.7 29.9-9.7 18.1-7.6 39.3-13.3 58.5-2.9 9.8-10 17.8-15 26.6-6.9 12.2-5.8 25.8-4.4 39.1 2.2-.8 4.3-1.4 6.4-1.9zm-9.2-30c3-11 11.2-19.7 16.4-29.7 6.3-12.1 5.7-27.1 8-40.2 1.5-8.5 4-16.8 7.8-24.5 6.8-13.9 19.4-22.6 33.6-27.8 21.2-7.9 42.7-10.4 62-21.9-27.3 2.1-54.5-.6-81.9-2.7-30.4-2.2-96.2-1.5-88 45.5 2 11.5 7.4 21.5 8 33.4.7 13.3-4.2 26.9-4.8 40.1-1.2 25.4 24.8 40.1 29.2 63.9 2.9-1.2 5.9-2.3 8.9-3.3-1.2-11.1-2.1-21.8.8-32.8zm-53.3-240.7c4 3.6 7.8 7.4 11.3 11.6 7.8 9.3 13.1 20.1 16.2 31.8 2.7 10.3 2.7 20.9 4.5 31.1 7.7-11.6 7.4-31.6 6.8-44-.1-2.8-.4-5.5-.8-8.2-11-10.9-23.7-18.2-38-22.3zm15.5-54.9c14.1 22.4 24.8 47.2 29.5 73.3.3.6.4 1.3.3 1.9.2 1.1.4 2.1.6 3.2 2.5 16.8 2 46.6-11.2 59.8-.1.1-.2.1-.3.2.8 2.4 1.9 4.8 3.1 7.2 5.8-2 11.8-3.4 17.7-4.3 0-8.4.9-16.4 2.6-24.2.2-11.1.8-22-.3-33.1-1.6-15.5-5.7-30.7-10.8-45.3-9.7-27.9-24.8-55.2-43.1-78.4-16.2-20.5-36.1-37.7-51.9-58.6-13.6-17.9-20.8-37.1-23.7-58.7-12.2 66.9 54.7 105 87.5 157zM521.6 67.6c-21-9.4-39.2-19.8-52.5-37.4 3.5 25.4 13.8 46.3 31.1 66.7 16.9 19.9 36.2 37.5 51.4 58.8 15.7 22.1 28.2 47 37.1 72.6 4.5 12.8 7.8 26.3 9.4 39.8.9 7.6 1 15 1 22.4.5-1.4 1-2.8 1.6-4.2-.1-.6-.1-1.2.2-2 12.1-31.1-3.4-61.4-11-91.5-4.6-18.3-3-36 4.5-52.9-.4-.5-.6-1.1-.7-1.8-4.8-37.7-41.1-56.7-72.1-70.5zm97.3 52.2c-48.6 42-4.1 94.4-6.1 144.4 5.2-7.5 11.1-14.5 17.8-20.8-4.8-15.2-2.5-31.8.5-47.2 3.3-17.3 9.2-32.7 17.8-48 16.3-29 42.6-59.5 41.9-94.3-11.4 29.3-50 46.9-71.9 65.9zm75.7-63.6c-.6 28.1-17.5 53.5-32.1 77-9.9 15.9-19.6 32-24.4 50.3-4.7 17.8-9.3 38.7-4.3 57 2.7-2.5 5.5-4.8 8.4-7.1 0-.1-.1-.1-.1-.2-11.2-60.8 72.5-118.6 52.5-177zm-94.4 271.7c2.5-.2 4.9-.4 7.2-.5 12-.4 23.9.1 35.8.9.6-15 12.1-28.4 22.1-38.5 15.6-15.8 35.6-26.4 55.6-35.4 20.5-9.2 41.7-16.7 61.1-28.2 13.2-7.8 30.5-18.6 38.4-33.2-1.9 1.4-3.8 2.6-5.8 3.8-14.5 8.6-32.1 10.3-48.5 11.1-30.3 1.5-59 .2-87.6 12.2-43.4 18.6-77.9 59.5-78.3 107.8zm192.7-158.8c-12.4-.2-24.7 2.7-36.6 5.9-19.1 5.2-33.2 15.7-47.3 28 35.6-4.9 89.8 8.7 112.9-22 8-10.4-27.9-11.8-29-11.9zm-58 90.1c18.8-8.4 37.4-15.8 54.1-28 9.2-6.6 20.6-16 27.9-26.9-5.2 5.8-11.5 10.7-17.5 15.1-15 11.2-31.8 19.4-48.9 26.6-23.8 10-47.9 19.4-68.9 34.8-14.3 10.4-33.8 28.5-34.5 47.7 3.7.3 7.5.5 11.2.8 16.3-33 43.3-55.2 76.6-70.1zm-9.7 60.9c-17.5 5.3-35 3.8-52.4-.5-2.2 3.4-4.2 7-6.1 10.6 21 1.6 41.9 2.7 63.2 0 2.3-.3 4.6 2.7 3.7 4.9-5.6 13.4-15.9 19.8-27.8 27.4-7.3 4.7-15.1 8.6-22.5 13.2-14.1 8.9-19.8 22.8-23.7 38.3-.6 2.2-1.1 4.4-1.7 6.6 6.5-8.4 13-16.6 22-22.9 10.1-7.1 22.4-11.8 34.8-14.5 10.3-19.5 19.5-40.1 35.7-55.5 9.6-9.1 22.8-17.8 36.5-19.6-20-6-42.2 6.1-61.7 12zm67.2-8.5c-16.6-.5-33.5 12.3-44.1 23.7-12.5 13.5-20.3 30.6-28.7 46.8 3.3-.6 6.7-1.1 10-1.4 1.6-.2 3.4-.3 5.1-.3 8.7-28.8 29.5-56.7 57.7-68.8zm-29.7 76.1c-23.4-1.1-46.2.8-67.8 10.3-20 8.7-29.3 27.1-43.2 42.4-3 7.3-7 14.2-13 20.9-5.7 6.4-12.4 12-18.2 18.3-8.5 9.2-10.6 19.9-12.6 31.3 7.5-1.9 15.1-3.7 22.3-6.3 2.7-1 5.6-2.5 8.8-4.2 6.8-16.1 14-31.9 24.8-45.8 12.7-16.3 31.1-26.2 50.6-32 21.6-6.4 44.6-6.3 66.2-12.7 16.2-4.8 30.2-14.3 42.8-25.2-19 6.3-42 3.9-60.7 3zm-35.6 55.6c16.9-4.7 34-8.3 50.5-14.3 21.5-7.7 36.4-22.2 47.1-40.6-9 7.6-18.6 14.4-29.2 19.6-18.1 8.9-38.3 10.1-57.9 13.3-23.1 3.8-45.5 10.9-63 27.1-14.1 13-22.5 31-30 48.6 6.3-3.9 13.2-8.3 20.2-11.8 9.2-25.2 38.5-35.2 62.3-41.9zm-94.9 68.8c-13.6 5.7-28.9 7.7-43 12.3-25.9 8.6-38.2 26.7-19 51 9.9 12.5 21.7 22.2 27.4 37.2h11.5c1.2 0 2.5 0 3.7-.1-1.8-13.1-2-26.2 2.7-38.8 4.8-12.6 17.9-21.2 27.7-29.6 18.6-15.9 23.4-43.9 44.2-56.8-16.5-2.2-42.3 19.4-55.2 24.8zm56.9-21.2c-17.9 11.6-22.4 34.7-36.9 50.1-8.5 9-19.1 15.6-27.2 25-11.1 12.8-10.7 30.6-8.4 46.5 3.3 0 6.5-.1 9.8-.1 1-20.5 13.2-38.4 25.6-54.1 8.8-11.2 22.2-22.9 27.4-36.3 4.2-10.7 5.3-21.1 9.7-31.1zm-5.3 42.1c-.5 0-.8 0-1.2-.1-2.6 3.8-5.7 7.2-8.5 10.6-16 19.5-38.3 42-39.8 68.7 2.3-.1 4.7-.2 7-.3 1.6-3.3 2.5-8.5 3.8-11.3 2.3-5.2 5.4-10.2 8.9-14.7 8.4-10.7 18.6-18.9 30.7-25 17.4-8.8 41.3-12.4 54.9-27.2.6-.7 1.1-1.4 1.7-2.2-18.7 6-36.7-.7-57.5 1.5zm-20.1 77.9c13.3-.8 26.6-1.7 39.8-3 14.5-1.4 28.9-3.3 43.2-5.8 4.1-.7 12.9-1.9 21.7-3.9-11.3-5.9-24.9-7.7-37.3-9.8-14.7-2.4-29.5-4.1-44.3-5.5-9.7 7.6-18 16.3-23.1 28zm-8.6.5c12.3-31.5 44.5-42.9 68.8-62.3-8.8 4.2-18.3 7.3-26.9 10.6-14.2 5.5-26.7 13.3-36.9 24.6-4.9 5.4-8.6 11.7-11.8 18.2-1.2 2.5-1.9 6.1-3 9.2 3.4-.1 6.6-.1 9.8-.3zm126.4-31.5c-22.5-8.5-48.2-9.8-71.9-11.8-.3 0-.6-.2-.8-.2-5.4 3.5-10.8 6.9-16 10.6 14.5 1.5 28.9 3.4 43.2 5.9 13.2 2.3 26.7 5 37.9 12.5 7.8-2.2 14.7-5.1 17.5-9-.5-3.3-3.1-5.4-9.9-8zM481.1 759.7c1.3 13 25.9 15.4 36.3 17.3 32 6 65.2 6.5 97.6 6.2 29.4-.3 59.1-2.2 88.1-7.6 8.9-1.7 28.9-4.2 29.3-15 .4-12.5 3.5-25.1 6.3-37.5-16.2 2.8-33.9 3.3-41.7 4-72.4 7-151.4 9.3-223-5.8 2.7 12.7 5.8 25.5 7.1 38.4zM444 669.8c2.6 10.2 5.5 20.4 7.2 30.8 1.9 11.4 21.4 12.6 31.3 14.5 38.6 7.3 78.7 8 117.9 8.2 37.7.2 75.5-1.3 113-5.7 2.2-.3 16.2-1.9 28.7-4.5.6-.3 1.2-.4 1.8-.4 10.4-2.3 19.3-5.3 18.5-8.7-1.5-7 1.7-15.5 3.3-22.1 6.7-27.6 15.3-54.6 23.1-81.9-17.2 9.4-49 11.1-61.2 12.8-37.4 5.2-75.3 7-113.1 7.5-6.2.1-12.3.1-18.5 0-.7.2-1.4.1-2.1 0-33.7-.2-67.4-2.1-100.9-6.3-16.4-2-32.7-4.9-48.7-8.9-5.6-1.4-13.2-3-19.4-6.1 6.1 23.7 12.9 47.2 19.1 70.8zm86.4-90.2c-17.5.7-34.7 3.1-52.1 5.8-13.4 2.1-27.6 4.4-39.6 11 8.9 2.5 18.9 3.9 23.8 4.9 14.9 3.1 30.1 5 45.2 6.7 19.2 2.1 38.6 3.3 58 4-9.6-14.3-22.1-23.3-35.3-32.4zm-107.6 8.2c1.8 2.6 5.1 4.6 9.2 6.3 12.5-8.2 27.6-11 42.1-13.5 16.3-2.7 32.5-4.9 49-6-3.3-2.3-6.7-4.6-10-7.1-.2-.1-.4-.3-.6-.4-13.7.8-86.3 3.5-89.7 20.7zm92.8-28.1c.5.2.8.5 1.1.9 5.9 4.6 12.4 8.6 18.7 12.3 16 9.5 28.8 21.9 38.7 37.7.4.6.5 1.1.6 1.6l14.5.3c-9-19.2-32.2-31.5-36.4-52.6-16-14.2-34.9-23.3-54.5-31.2.2 13.3 7.6 23.1 17.3 31zM384.7 433c-5.3 18.1 12 33 24.5 42.6 17 13.1 36.3 23.8 55.8 32.6 29.8 13.4 61.2 20.9 87.3 41.2.6-5.2 2.5-9.8 5.4-13.7-5.5-11.2-18.3-18.4-28.6-24.6-7.1-4.2-14.4-7.9-21.9-11.3-17.1-7.6-34.5-14.2-51.2-22.7-25.8-13.2-50.5-33.5-46.9-62.3-.1.1-.2.2-.4.3-8.9 5.7-20.6 6.3-24 17.9zm75.1-37.4c-10.3-.8-20.7.4-30.6 3.2-7.8 2.3-11 7.5-15.5 12.1-7.8 35.1 28.3 55.8 57.3 69.2 15.6 7.2 31.8 13.2 47.3 20.7 14.3 7 33.7 16.9 41.9 31.7 3.6-3.8 8.1-7.1 13.3-9.9 0-.1 0-.1-.1-.2-.1-1.5-.4-2.9-.7-4.3-.3 0-.5 0-.8-.1-42.8-14.8-39.4-52.9-55.2-88.4-10.4-23.5-32.9-32.2-56.9-34zm55.3 16.9v.1c5 6.6 9 14.1 12.1 21.9.2-6.2.9-12.4 1.6-18.5 2.1-19.1 3-38.3-2.7-56.8-15.8-9.8-33-17.3-47.7-29-10.2-8.1-18.4-18.4-26.1-29.1-19.4-3.3-38.6-4.7-57-12.8-14.5-6.4-27.1-15.2-36-28.1-.2-.1-.3-.2-.5-.2 24.6 77.2 152.5 59.2 156.3 152.5zM365.9 262.7c9.4 11.3 22.1 18.9 36.1 24.4 15.2 5.9 31.1 7.3 47 9.8-6.3-8.8-12.4-17.7-19.2-25.8-2.8-3.4-5.9-6.4-9.1-9.2-18.3 4.5-37.1 6.2-54.8.8zm-.5-65.5c5.4 15.6 12.1 24.8 26.5 33.8 10.5 6.6 20.5 12.9 29.9 21 21.4 18.4 34.4 44.3 53.5 64.9 18.4 19.8 45.5 28.2 67 44.3.7-2 1.6-3.8 2.6-5.5-18.5-43.4-64.3-62.7-95-95.8-16.4-17.7-24.9-41.1-41.4-58.7-15-16-36.3-27.8-58.4-29.3 7.9 5.8 11.8 15 15.3 25.3z"/><path class="st13" d="M507.3 429.2c-7-5.5-13.5-11.2-21.4-15.5-8-4.2-16.9-6.5-25-10.4-.5-.2-.2-.9.2-.9 17.4-.2 39.2 10 46.6 26.4.2.3-.1.6-.4.4zM453.3 403.1c-1.5 0-2.6-.3-3.9-.8-.3-.1-.5-.5-.2-.7 1.3-1.1 2.4-1.5 4.1-1.5 1.7 0 2.6.9 3.7 2.1.2.2.1.5-.2.5-1.1 0-2.3.4-3.5.4zM549.8 291.9c-3.9-8.7-7.8-17-13.7-24.6-5.9-7.7-13.4-13.9-20.1-20.8-.7-.7.2-1.9 1.1-1.4 15.8 8.4 33.1 27.9 33.1 46.7 0 .2-.3.3-.4.1zM512.8 243.2c-3-.7-5.7-2.6-7-5.3-.2-.3.1-.7.4-.6 2.9.8 5.4 2.9 6.8 5.6.1.2-.1.3-.2.3zM607.6 154.5c-3.4 11.1-2.3 22.6-1.6 33.9 0 .6-.8.6-1 .1-8.1-19.8-.9-53.5 20.7-62.2.3-.1.5.3.3.5-8.6 8.2-14.8 16.1-18.4 27.7zM607.8 193.4c1.2 1.2 1.4 3 1.7 4.6.4 1.9.7 3.5.3 5.4-.1.3-.5.4-.7.2-1.3-1.5-1.7-3-2.1-5-.3-1.7-.8-3.6.1-5.2.2-.1.5-.1.7 0zM627.7 272.8c-4 5.9-7.1 12.4-9.8 18.9-2.8 6.7-3.6 14.8-7.9 20.7-.3.4-.9.3-1-.3-.9-7.2 3-15.2 5.8-21.7 3.2-7.5 7-14.6 11.7-21.2 7.2-10.1 17.4-19 29.4-22.4.2-.1.3.2.1.3-11.4 7-20.7 14.7-28.3 25.7zM561.1 469.1c.1.5-.7.7-1 .3-6.3-11.7-1.9-24.9 1.5-36.9 2.3-7.9 3.7-15.6 3.6-23.9-.2-9.8-4.3-18.2-7.3-27.3-.1-.3.3-.5.5-.3 23.9 25.6-1 59.1 2.7 88.1zM580.6 577.1c-9.4-7.4-16-22.3-8.6-33.3.1-.2.5-.1.4.2-3.6 12 2.6 22.7 8.8 32.6.4.4-.2.8-.6.5zM589.5 585.9c-1.6-.6-3-1.4-4.3-2.6-1.3-1.3-1.7-2.3-2.1-4-.1-.2.2-.4.4-.3.6.3 1.1.4 1.6.8.6.5 1.3 1.1 1.9 1.7 1.1 1.2 2.1 2.4 3 3.8.2.3-.2.7-.5.6zM585.9 136.9c-4.3-10.1-9.5-19.7-16.8-28-8.3-9.5-19-15.1-29.4-21.8-.2-.1-.1-.4.2-.4 22.4 5.4 43.1 27.1 46.7 49.9 0 .4-.5.7-.7.3zM696.1 406.5c-.4.2-.6-.4-.4-.7 11.5-11.4 33.1-11.8 48-9.6.3 0 .2.5-.1.5-16.8 0-32 3.4-47.5 9.8zM684.5 413.5c-.3.1-.5-.2-.4-.5 1.7-2.5 4.9-3.3 7.2-5.1.2-.2.4.1.3.3-1.8 2.1-4.2 4.5-7.1 5.3zM560.8 628.6c28.2 0 56.4 2.2 84.7 1.5 30.5-.8 60.3-4.7 90.5-9 .2 0 .3.3.1.4-27.6 9.7-58.2 12.1-87.3 13.4-29.3 1.2-59.4.9-88.2-5.1-.6-.2-.4-1.2.2-1.2zM551.4 627.3c1.8.1 4.2-.1 5.4 1.5v.1c-1.2 1.6-3.6 1.2-5.4 1.2-2.3-.1-4.4-.2-6.4-1.2-.3-.1-.3-.7 0-.8 2-1 4.1-1 6.4-.8z"/></svg>