<svg version="1.1" id="e37c00f5-ff96-45aa-87ea-1a24b78ba7bd" xmlns="http://www.w3.org/2000/svg" x="0" y="0" viewBox="0 0 1176.6 803.7" style="enable-background:new 0 0 1176.6 803.7" xml:space="preserve"><style>.st0{fill:#ffe40e}.st4{fill:#acff1d}.st8{fill:#98b718}.st10{fill:#cfff73}.st11{fill:#f26200}.st12{fill:#fdce1a}.st13{fill:#895725}.st14{fill:#f07493}.st15{fill:#68182b}</style><path class="st0" d="M586.9 534.2c-.8 0-1.8-.6-.8-1.7 7.3-8.4 17.8-13.4 28.1-13.4 9.9 0 18.3 4.6 23.6 12.9.6 1 0 1.6-.9 1.6-15.6.3-32 .5-50 .6zM645.3 533.4c-.4 0-.8-.2-.9-.6-1.7-3.5-3.8-6.6-6.3-9.2-.4-.4-.4-.9-.1-1.3 3.5-4.7 8.2-7.2 13.8-7.2 9.1 0 18.5 6.8 21.8 15.9.3.9 0 1.4-.9 1.4-9.1.4-18.2.7-27.4 1 .1 0 .1 0 0 0zM725.3 528.8c-.9 0-1.5-.7-.9-1.6 7.9-11.4 22.2-14.5 28.9-14.5 7.1 0 13.5 3 19.5 9.3 1 1 0 1.7-.6 1.8.1-.2-34.3 3.8-46.9 5 .1 0 .1 0 0 0z"/><path d="M537.5 180c-1.6-11.4-3.6-23-5.7-34.2-.1-.3.5-1.2.5-1.2 2.4-6 4.5-12.5 6.3-19.3.4-1.7 1.8-.9 2 .1 2.8 13.4 6.2 26.9 10.2 40.2-.1 3.9-.8 7.7-2.1 12-.5 1.8-1.4 4.7-3.7 5.6-5 2-7.2-2.1-7.5-3.2zm61.8 7.9c.3-.6 2.8-3.9 2.8-3.9.2-.3 0-1.5 0-1.8.3-48.3 4.9-85.4 14.4-116.8 2.2-6.8 2.3-11.5-4.2-11.5-6.4 0-8.7 6.1-9.5 8.7-11.5 36.6-10.8 77-10.1 109.4 0 1.3-.1 8.9.1 11.3.3 2.6 1.1 5.2 4.9 5.2.3 0 1.5-.3 1.6-.6zm10.2-13.1c2.5-3.2 4.9-6.4 7.3-9.7.2-.3-.2-1.6-.2-1.6-2-6.6-3.9-13.6-5.7-20.7-.3-1.2-2-1.1-2.1.2-.7 9.9-1.1 20.1-1.3 31.1.1 1.3 1.5 1.3 2 .7zm43.9 1.9c3.3-3.4 8.6-10.1 8.6-10.2 6.8-14.8 11.4-31.3 14.1-50.7.1-1.1-1.6-1.5-2-.6-6.5 13.4-14.9 27.1-25.8 41.9-.2.2-.2.6-.1.9.9 5.3 3.4 18.1 3.4 18.1.2 1 1.1 1.3 1.8.6zM639.8 192c.5-2.1 1.6-3.9 3.3-5.4.7-.6 2.1-1.9 3.1-2.8 1.7-1.6.7-1.6.9-3.3 0 0-2.2-11.5-2.9-15.1-.2-1-1.3-1.2-1.9-.4-2.9 3.8-5.9 7.5-8.9 11.1-.3.3-.2.9 0 1.3.1.2 3.9 14 4.6 14.9.5.8 1.5.9 1.8-.3zm74.6-8.5c5.1-2.7 16.1-7.6 31.3-9.1 4.5-.3 5.5-2.6 5.5-4.4 0-4.9-5.2-4.5-9-4.5-10.9 0-22.4 2.4-35.3 7.2-.1.1-.3.1-.4.3-6.5 6.7-13.3 13.1-20.3 19-1.5 1.3.8 2.1 2.3 2.1 6.3-.2 18.1-6.5 25.9-10.6zM674 194.9s20.1-16.7 29.4-26.5c16.1-16.9 30.3-36.1 42.1-57 2.4-4.4 2.5-8.7-2.3-11.1-2.4-1.2-6.8-1.2-9.5 4.6-12 24.9-29.4 48.1-55 73.3 0 0-8.9 8.6-12.7 12.1-1.9 1.9-1.5 5.1.2 6.2 2 1.1 4.7.7 7.8-1.6zm-15.7 1s1.1-.9 1.1-1.4c-.4-2.9.6-5.8 2.9-7.9 4-3.6 8.2-7.6 12.9-12.3 23.5-30.2 40-70 46.5-112 .6-5.7.2-10.3-6-10.3-4.8 0-8.2 3.6-9 9.6-3.7 27-6.3 34.9-8.4 42.6-10.3 36.6-27.5 65.5-51.3 86-1.5 1.3-2.2 3-2.1 4.6.1.9.5 2.3 2.1 3.3 2.9 2 7.4 1.4 11.3-2.2zm20.5-55.7c9.3-18.2 16.1-39.5 20.3-63.3-.1-12.6-.2-29.9-5.8-43.8-1.7-4.1-5.1-7.1-8.2-7.1-2.9 0-5 3.5-4.6 8.3.3 3.1 2 13.9 2.3 16.3 0 .2.1.4.3.6 3.9 4 5.4 9.8 5.6 15.1.1 5.3-3.6 20.3-5.4 25.9-.1.3-.1.5.1.8.2.4.3.8.2 1.2-1.1 16.8-3.4 31.6-6.8 45.3-.3 1.3 1.5 1.8 2 .7zm-66.6 52.5c32.4-36.6 63.4-76.7 71-122.2 1.2-10.3-1.4-18-8.7-18-4.3 0-6 5.5-6.7 8.9-.1.7-1.1 7.1-1.5 9.2-8.9 48.6-36 87-61.5 118.4-.7 1-1.5 2.3-1.2 3.5 1.1 3.6 5.7 3.3 8.6.2zm20.2-50.7c3.1-5.1 6-10.2 8.7-15.3.1-.1.1-.3.1-.5.9-27.4 2.3-56.5 9.3-85.1.8-2.9 1.3-5.8-.1-7.9-2.3-3.7-8.5-4.7-10.6 4.3-7.7 35-10.8 70-9.4 104 0 .5.3.9.8 1h.3c.3 0 .7-.2.9-.5zm-10.2 15.6c1-1.5 2-2.9 3-4.4 0 0 .5-1.1.5-1.4-.6-7.9-.8-16.1-.9-25.2 0-.1-.1-.3-.1-.5-2.9-10.2-5.3-21-7.4-33.2-.1-.5-.5-.9-1-.9s-.9.4-1 .8c-1.7 8.5-3.1 17.2-4.2 26.8 0 .2.2.7.2.9 2.6 12.5 5.7 24.9 9 36.6.3 1.3 1.4 1.1 1.9.5zM604.1 51.7c2.2-1.8 4.6-2.8 7-3.1.6-.1 1-.5.9-1.1-.4-6.5-.7-18.6-.7-18.6 0-1.7 0-3.6-.9-5.2-.7-1.3-3.8-2.4-5.6-.1-1.2 1.6-1.7 3.5-2 5.4-1.1 7.8-.8 15.7-.5 21.8.2 1.4 1.2 1.4 1.8.9zm-16.8 127v-2.4c0-1.5-.5-34.9.2-50.7 0-.1-.1-.4-.1-.5-.1-.2-.1-.4-.1-.6-.9-26.6-2.5-57.5-8.7-87-2.5-10.8-8.7-11.4-11.4-7.7-1.6 2.2-.8 5.8-.3 8.1 11.2 55.7 13.9 100.8 8.3 137.8-.3 2.1 3.9 4.5 7.1 4.5 2.3-.1 5-.2 5-1.5zm-17.6 6.8c.3-1.8-.9-6.2-1-6.6-10-42.9-18.1-81.6-15.7-120.3.3-3.2-.6-6.2-2.2-8.1-2.3-2.6-7.7-3.6-10.8-.4-1.4 1.4-2.2 3.7-2.1 6.5 1 39.8 9.1 82.1 24 125.6 0 0 1.4 4.2 3 5.2 1.4 1.1 4.2 1.2 4.8-1.9zm-38.6-53.4c2.6-8.2 4.6-16.8 6-25.9-2.7-16.9-4.3-33.6-4.7-49.6-.1-5.2 2.2-9.7 6.2-12 .4-.2.6-.7.5-1.1-.3-1.4-.5-2.7-.8-4.1-1.8-8.2-5.8-9.9-8.8-9.9-3.3 0-7.4.6-5.7 10.5 2.8 19 2.2 38.6-1.9 61.9v.4c2.6 10 5 20 7.1 29.8.2.9 1.6 1.6 2.1 0zm1.5 53.1c.1-.2.3-.6-.1-3.5-6.9-47.8-17.1-90-31.4-128.8-1.4-3.5-4.2-7.3-8.1-7.3-2 0-4 .1-5.6 3.3-1.3 2.7-.5 6 .1 7.8 15.8 42.7 29 86.1 39.2 129 .3 1.2 1.3 2 2.4 2 1.1 0 2.6-.5 3.5-2.5zm-23.1-12.1c2.3-3.1 4.2-6 5.9-8.7.2-.2.2-.5.1-.8-1.3-5.1-2.7-10.1-4.1-15.2-.2-.6-1.4-1.6-2-.1-1.9 5.1-6.1 13.4-6.1 13.4-.2.3-.2.7-.1 1 0 0 3.2 7.2 4.3 10.1.6 1 1.2 1.5 2 .3zm-5.6 17c3.4-4.1-.9-13.8-4.4-21.7-1.1-2.4-2-4.4-2.4-5.7-4.1-13.4-7.3-25.3-9.9-36.3-4.1-17.2-7.7-35.1-11.1-54.7-1-5.6-2.3-10.5-6.1-9.4-4.6 1.4-4 7.8-3.8 10.3 3.2 31.3 11.8 63.9 26.1 99.8 0 0 5.8 10.3 7.8 13.8.7 1.2 1.4 2.4 1.9 3.6.5.9 1.5.7 1.9.3zm-6.3 3.2c-.1-1.3-.9-2.7-1.7-3.9 0 0-34.2-61.3-52.6-97.9-1.1-2.2-3.6-7.3-7.2-7.3-1.9 0-8.4 1.4-3.7 12 16.2 36.1 35.4 68.6 57.2 96.7.8.9 1.9 2 3.6 2.4 1.2.4 4.6.3 4.4-2z" style="fill:#ffa3bc"/><path d="M780.8 522.6c-.4 0-.8-.2-1-.6-.1-.3-.2-.5-.4-.7-2.5-3.1-5-5.6-7.8-7.7-.2-.2-.4-.4-.4-.7 0-.3 0-.6.2-.8 6-7.7 11.4-16.2 16.1-25.4.2-.4.5-.6.9-.6h.3l.4.1c15.6 3.7 34.4 9.7 35.9 16.8.4 2.1-.6 4.2-3.1 6-11.2 8.4-27.8 11.6-41.1 13.4.1.2 0 .2 0 .2zm-380.6.1c2.6-3.3 5.3-6.2 8.1-8.8.4-.4.5-1 .1-1.5-7.8-8.8-14.9-18-21.2-27.4-.4-.6-.9-.5-1.8-.3-8.4 2-42.1 10.5-44.3 18.5-.3 1-.2 2.4 1.3 3.9 11.8 11 33.6 13.8 49.5 15.9 1.8.2 3.5.5 5.1.7 1.4.2 2.3.1 3.2-1z" style="fill:#ad8353"/><path class="st0" d="M457.9 530.2c-17.3-1.3-34.4-3.1-50.7-5.2-.9-.1-1.2-1-.7-1.7 6.5-7.6 12.9-11.9 20.6-13.9 2.1-.5 4.2-.8 6.2-.8 11.2 0 21.5 8.1 25.6 20.2.5 1.2-.3 1.4-1 1.4zM492 532.3c-9.1-.4-18-1-26.4-1.5-1-.1-.8-1.1-1-1.8-1.4-5.1-3.8-9.7-7-13.6-.4-.5-.3-1.2.3-1.6 3.8-2.3 7.9-3.4 12.1-3.4 11.4 0 20.9 8.5 23.1 20.7.1 1-.2 1.2-1.1 1.2z"/><path d="M680.3 532c-.5 0-.9-.3-1-.8-3.2-12.1-14.9-21.2-27.2-21.2-7.1 0-13.5 3.1-18 8.8-.4.5-.9.6-1.4.2-5.1-3.4-11.3-5.2-17.9-5.2-2 0-4 .2-6 .5h-.2c-.2 0-.4 0-.5-.1-51.1-28.8-97.6-69.7-134.5-118.2-40-52.6-62.5-107.7-65.2-159.4 0-.3.1-.6.3-.8 7.9-7.6 16.8-14.8 26.3-21.3.7-.5 1.6.1 1.6.8 7 78.1 55.9 145.1 95.7 187.5 55.3 59 122.2 100.9 188.4 118 1.2.3.9 1.2.6 1.7-1.7 2.1-2.9 4-3.8 5.9 0 0-.6 1.2-1 1.3-11.2.8-23 1.6-36.2 2.3zm43-12.2c.3 0 .5-.1.7-.3 6.5-6.6 15.6-10.9 25-11.8 1.3-.1 2.6-.2 3.9-.2 4.6 0 8.6.8 12.5 2.5.4.2.8.2 1.2-.3 2.3-2.9 4.6-6 7-9.6.4-.7.4-1.4-.7-1.6C704.2 483.7 633.5 443 574 383.8c-60.1-59.8-97-124.2-106.6-186.3-.1-.7-.9-1.1-1.5-.8-9.6 4.6-18.8 9.8-27.3 15.4-.3.2-.5.6-.5 1 6.4 80.4 56.4 148 97.4 190.6C575.2 445 640 498.8 723 519.7c.1 0 .2.1.3.1zm68.8-56.6c3.7-10.1 6.7-20.9 9-32.1.1-.6-.2-1.1-.8-1.2-53.2-13.1-107.4-44.2-156.7-90-49.9-46.3-85.3-97.1-105.2-151-.3-.9-1.5-.8-1.8-.2-1.2 1.8-3 3.2-4.9 3.7-.9.3-1.8.4-2.6.4-3.6 0-6.6-2.2-7.6-5.7-1.1-4.7-2.3-9.3-3.4-14-.2-.8-1.3-1.3-1.9-.3-1.9 2.7-3.7 5.2-5.5 7.5-.2.3-.3.6-.2.9 1.9 8.2.3 12.9-5.2 14.8-.5.2-.8.7-.7 1.3C521.4 255 559.2 312 614 362.3c54.8 50.3 115.9 85.5 176.8 101.5.3.2 1 .2 1.3-.6zm14.1-72.5c.9-15.2-.7-37.7-.7-37.7 0-.4-.3-.7-.6-.9-72.6-34.7-136.5-92.9-179.9-164-.3-.5-1.1-.8-1.7-.1-2.5 2.9-5 5.7-7.4 8.5-3.6 3.8-10.2 4.6-13.9 2.1-1.5-1.1-2.6-2.5-3.2-4.2-.1-.4-.9-.7-1.3-.7-4.6 0-8.1-2.4-9.3-6.5-.1-.3-.1-2.6-1.5-2.4-1.9.3-3.5.5-4.9.5-.9 0-1.2.9-.9 1.5 21.8 44.9 54.6 87.8 94.8 124.3 41.3 37.5 84.8 64.6 129.1 80.4.6.4 1.3.1 1.4-.8zm-1.1-42c-1.8-16.4-5.3-32.3-10.4-47.3-.1-.2-.2-.4-.4-.5-43-27.5-81.2-62.3-113.4-103.4-.4-.5-1.1-.5-1.5-.2-.4.3-1.9 1.6-2.3 1.9-4.6 3.4-10.1 4.7-14.4 1.1-.3-.3-.9-.4-1.3 0-5.8 4.7-13.6 6.2-18.5 1.4-.6-.6-1.2-1.3-1.7-2.2-.2-.3-1.3-.5-1.3-.5-2.1 0-4-.9-5.4-2.6-.5-.7-2.6-.1-1.7 1.2 42.4 65.2 103.1 119.3 170.9 152.2.7.4 1.5.2 1.4-1.1zM631.2 195.2c-1.9-2.9-3.7-5.9-5.5-8.8-.2-.4-.2-.9.1-1.2l1.8-2c.6-.7 1.6-.3 1.8.4.8 3.1 1.8 6.3 3.2 9.7.1.3.3.6.4.9.5.9-1.4 1.7-1.8 1zm170.6 232.3c2-10.5 3.4-21.6 4.1-32.9 0-.5-.3-.9-.7-1.1-45.8-16.3-89.8-43.6-130.8-81.2-42-38.6-74.4-81.3-96.1-126.9-.1-.3-.3-.5-.6-.5-.5-.2-.9-.3-1.3-.5-.6-.3-1.5.1-1.5.9-.1 1.2-.3 2.2-.6 3.1-1.5 3.8-5.1 5.2-7.4 5.2-1.9 0-3.7-.6-5.2-1.7-2.8-2-3.9-4.8-5.2-8.3l-1.1-3.3c-.3-1-1.6-1.1-2-.1-1.2 3.2-4.2 8.5-10 8.5-.6 0-1.3-.1-1.9-.2-.6-.1-1.6.3-1.2 1.4 19.9 53.2 55.9 104.7 104.3 149 50.5 46.3 102.9 76.3 155.7 89.4.9.2 1.4-.2 1.5-.8zm-9.1-131.8c-16.7-44.2-47.8-79.1-90-100.8-.6-.3-.7.1-1.4.2-7.4 3.9-11.2 5.1-14.4 4.7-.8-.1-1.7.7-.9 1.7 30.1 37.5 65.5 69.6 105.1 95.5 1.1.6 2.2.3 1.6-1.3zm-16.8 201c5.8-9.1 10.8-19.2 15-30 .2-.6.2-1.2-.7-1.4-61.9-16.4-123.2-51.7-177.3-101.9C557 311.5 520.1 256 503.1 198.2c-.2-.7-1.3-1.1-1.8-.4-1.4 1.8-3.6 2.9-6.7 2.9-5.2 0-8.9-4.4-11.8-8.2l-1.4-1.9c-.4-.5-.8-.5-1.3-.3-3.6 1.4-7.2 3-10.8 4.7-.4.2-.7.6-.6 1.1 11.8 80.2 65.5 146.7 108.4 188.4 42.6 41.4 111.4 94.5 197.7 112.6.5.2.7.2 1.1-.4zm-198.2 37.5c.7 0 .9-.6 1.2-1.1 5.9-8.3 14.8-14.7 24.6-17.6.9-.3 1-1.5.2-1.9-51.6-29.8-97.8-71.1-133.5-119.4-38.6-52.2-59.9-104.1-63.2-154.4 0-.7-1.1-1.4-1.8-.7-9.9 10-18.5 21-25.6 32.5-.1.2-.2.4-.1.6 4 47.4 24.6 97.8 59.5 145.7C472.6 464 515.4 504 563 534c.2.1.4.2.6.2h14.1zm-21.1-.1c.9 0 1.8-1.1.6-1.9-46.6-30.2-87.9-69.4-119.5-113.4-34.2-47.6-54.1-95.1-59.1-141.2-.1-1-1.5-1.3-2-.4-4.8 8.6-18.9 32.1-19.7 61.9v.4C372.4 397.8 407.4 453.8 461 506c.2.2.9.3 1 .3 2.5-.7 5.1-1.1 7.7-1.1 14.3 0 26.3 10.6 28.5 25.1.2 1.2 0 2.3.9 2.4 18.4.7 37.7 1.2 57.5 1.4zm-103-23.8c1.5-1 3.1-1.9 4.8-2.7.7-.3.8-1.2.3-1.7-50.3-49.2-84.2-102-100.8-156.8-.4-1.2-2-.9-2 .2-4.2 58.2 15.4 113.5 56.8 160 .5.6 1.1.4 1.4.2 6.1-4.1 12.4-6.2 18.7-6.2 5.3 0 12.9 1.7 19.6 7 .4.4.8.3 1.2 0z" style="fill:#ff821d"/><path class="st4" d="M588.3 781.6c-61.5-.1-110.2-6.5-153.1-20.1-15.1-4.8-34.2-12.1-48-25.9-6.1-6.1-8.6-12.9-10.6-21.9-.8-3.6-2.2-8.1-3.7-12.9-5.6-18.5-13.4-43.8-.6-55.6.2-.2.5-.3.7-.3h.3c.4.1.6.4.7.7 3.1 10.4 7.2 18.9 17.3 26.6 13.4 10.3 31 15.9 46.4 20.3 51.3 14.7 106.5 17 148.8 17.3h7.5c55.3 0 101.9-5.2 142.5-15.8 20.6-5.4 35.8-11.8 47.9-20.1 10.8-7.4 15.1-16 18.4-26.6.1-.3.4-.6.7-.7h.3c.3 0 .5.1.7.3 12.7 11.9 5.6 35.3-.1 54-1.4 4.7-2.8 9.1-3.6 12.8-2 8.7-4.5 15.5-10.7 22.3-12 13-30.3 20.3-48.3 26.2-51.9 17.1-108.5 19.3-152.1 19.3l-1.4.1z"/><path d="M586.4 704.7c-53.3-.2-98.7-5-138.9-14.9-19.6-4.8-34.6-10.4-47.1-17.7-15.6-9-19.5-20.2-23.3-34.9-.1-.4 0-.8.4-1.1.2-.1.4-.2.6-.2.2 0 .3 0 .5.1 8.7 4.7 18.1 8.4 25.3 11.1 53.4 20 112.6 24.3 163.5 25.9 9.2.3 18.4.4 27.3.4 54.7 0 102.8-5.3 147.2-16.1 16.8-4.1 38.3-10.1 56.2-20 .2-.1.3-.1.5-.1s.5.1.6.2c.3.3.5.7.4 1.1-3.9 14.5-7.6 24.6-23.1 34.2-15.6 9.6-34.1 14.6-50.2 18.5-37.8 9.2-81 13.4-136.1 13.4l-3.8.1z" style="fill:#00ff8b"/><path class="st4" d="M589 668.1c-65.4 0-120.3-6.8-167.7-20.8-17.1-5-38.9-12.6-56.1-26.8-17.4-14.3-21.5-39.3-25.1-61.3-.8-4.6-1.5-9.2-2.4-13.5-.1-.4.1-.8.4-1 .2-.1.4-.2.6-.2.2 0 .3 0 .5.1 27.4 13.8 61.4 16.6 91.4 19.2l2.1.2c46.1 3.9 96.2 5.8 153 5.8h4.5c53.5-.1 106-2.4 156.2-6.9 31-2.8 63.5-7.1 91.4-20.1.1-.1.3-.1.4-.1.2 0 .5.1.6.2.3.2.5.6.4 1-.9 4.6-1.7 9.4-2.5 14.3-3.6 21.7-7.7 46.4-24 61.5-14.6 13.7-35.1 21.3-55 27.6-58 18.3-120.1 20.7-167.7 20.8h-1z"/><path d="M581 564.5c-33 0-67.6-.9-102.8-2.8l-1.5-.1c-37.4-1.9-76-3.9-112.6-14-35.4-9.7-52.4-23.4-49.2-39.6 4.4-22.4 42.1-30.8 62.3-35.3 1.5-.4 1.9-.5 2.4.2 1 1.8 2.1 3.6 3.2 5.3.6.9-.2 1.5-1.6 1.8-15.6 3-35.1 6.7-44.3 18.9-1.7 2.2-2.2 4.3-1.6 6.5 1.7 6.3 12.4 11.4 16.9 13.2 24.9 10.3 53.7 12.5 81.7 14.6 4.5.3 9 .7 13.4 1 38.8 3.2 81 4.9 128.8 5.2h9.2c36.5 0 74.1-1.2 111.9-3.6h.4c35.6-2.2 72.3-4.5 106.9-13.9 5.3-1.4 21.5-5.8 25.9-13.6 1.1-2 1.4-4.1.7-6.3-3.7-12.6-24.3-17.2-36.6-20l-2.9-.7c-.6-.1-1-.9-.7-1.5.7-1.4 1.3-2.9 1.9-4.3.5-1.1 1.4-2.8 3-2l2.9.6c20.7 4.7 49 11.1 61.5 29.7 2.8 4.2 3.5 8.4 2.1 12.6-3.1 9.4-16.3 18.2-39.2 26.3-33.4 11.8-69.7 14.4-104.8 16.9l-3.2.2c-37.5 2.7-78.3 4.1-124.7 4.4-3.2.3-6.3.3-9.4.3z" style="fill:#73ffdb"/><path d="M766.1 660.6c10.4-3.6 20.6-7.8 30.5-12.6 1.1-3 2-6.2 2.9-9.6.3-1.1-.9-1.5-1.5-1.2-17.8 9.9-39.4 15.9-56.2 20-44.3 10.9-92.5 16.1-147.2 16.1-8.9 0-18.1-.1-27.3-.4-50.9-1.6-110.1-5.9-163.5-25.9-7.2-2.7-16.5-6.4-25.3-11.1-.8-.4-1.7.3-1.5 1.2.5 1.9 1 3.7 1.5 5.5 6.9 4.3 14.1 8.2 21.3 11.7 14.7 7.2 30.2 12.8 46 17.3 34.2 9.7 69.9 13.2 105.4 13.7 36.9.6 74.1-1.6 110.8-4.9 35.2-3 70.6-8.2 104.1-19.8z" style="fill:#50a76e"/><path class="st8" d="M811.1 661.3c-.7-5.6-2.8-10.6-6.8-14.3-.6-.5-1.5-.3-1.7.5-3.3 10.6-7.6 19.2-18.4 26.6-12.1 8.3-27.3 14.7-47.9 20.1-40.5 10.7-87.1 15.8-142.5 15.8h-7.5c-42.3-.3-97.5-2.6-148.8-17.3-15.4-4.4-33-10-46.4-20.3-10.1-7.7-14.2-16.2-17.3-26.6-.2-.7-1.1-1-1.7-.5-2.9 2.7-4.7 6.1-5.8 9.9-3.5 13 4.7 22.3 16.5 29.3 14.1 8.3 65.1 33.5 154.9 42.2 26.1 2.5 91.1 4.4 161.5-7.8 65.2-11.5 108.9-31.5 111.9-57.6z"/><path class="st8" d="M793.3 623c-35.2 17.4-74.3 26.2-113 30.6-42.4 4.9-85.3 5.2-127.9 2.2-21-1.5-42-3.9-62.9-6.9-20.2-2.9-40.5-6-60.3-10.9-20-4.9-39.9-11.8-56.8-23.8-7.6-5.3-14.5-11.7-20.3-19-1.9-2.4-4-4.7-6-7.1 3.6 12.5 9.2 24.2 19.1 32.3 17.2 14.2 39 21.8 56.1 26.8 47.5 14 102.3 20.8 167.7 20.8h.9c47.6 0 109.7-2.4 167.9-20.7 19.9-6.2 40.4-13.9 55-27.6 4.6-4.3 8.2-9.4 11.1-14.9-9.7 6.9-19.9 12.9-30.6 18.2z"/><path d="M775.7 673.1c-8.8 3.1-17.8 5.7-26.9 7.8-30.8 7.2-63 9.8-94.5 12-64.5 4.4-129.8 2.8-193.9-5.8-15.9-2.1-32.2-5-46.9-11.6-7.3-3.3-13.8-7.7-20.6-11.8-2-1.2-4-2.3-6.1-3.3 3.2 4.2 7.5 8.1 13.5 11.6 12.6 7.3 27.5 12.9 47.1 17.7 40.1 9.8 85.6 14.7 138.9 14.9h3.8c55.1 0 98.3-4.3 136.1-13.4 15.9-3.8 34.1-8.7 49.5-18.1z" style="fill:#c0ffa8"/><path class="st10" d="M839 542.9c.3.2.5.6.4 1l-1.2 6.6c-2.1.7-4.3 1.5-6.5 2.1C743.2 581 617 585.3 537 585.1c-39.6-.1-79.2-2.8-118.3-9.2-18.7-3-37.6-6.5-55.8-12-7.8-2.4-16.2-5.4-23.7-9.6-.5-2.9-1-5.8-1.5-8.6-.2-1.3.9-1.4 1.5-1.1 27.4 13.8 61.4 16.6 91.4 19.2l2.1.2c46.1 3.9 96.2 5.8 153 5.8h4.5c53.5-.1 106-2.4 156.2-6.9 31-2.8 63.5-7.1 91.4-20.1.1-.1.3-.1.4-.1.4 0 .6.1.8.2zm-55.6 195.3c-34.8 16.3-71.2 25.5-109.5 28.5-20.1 1.6-40.2 1.9-60.3 2.4-19.8.4-39.6.8-59.5.4-37.5-.8-75.5-4.4-111.3-16.1-17.7-5.8-34.8-13.3-50.8-22.9-4.7-2.8-9.2-5.9-13.6-9.1 1.8 5.4 4.3 10.1 8.6 14.3 13.8 13.8 32.9 21.1 48 25.9 43 13.7 91.6 20.1 153.1 20.1h1.2c43.6 0 100.2-2.2 152.1-19.3 18-5.9 36.3-13.2 48.3-26.2.5-.6 1-1.1 1.4-1.7-2.4 1.2-5 2.5-7.7 3.7z"/><path class="st11" d="M563 534c.2.1.4.2.6.2h14.2c.4 0 .8-.2 1-.6.1-.2 1.6-2.3 2.4-3.2-99.4-51.1-161.8-145-170.1-157.8-.5-.8-1.1-1.7-1.6-2.6 8.3 16.2 18.3 32.2 29.8 48.1C472.6 464 515.4 504 563 534zM415.3 280.6c9.8 38.3 29.5 77.5 58.3 115.4 36.9 48.5 83.5 89.4 134.5 118.3.2.1.3.1.5.1h.2c2-.3 4-.5 6-.5 6.5 0 12.7 1.8 17.9 5.2.5.3.9.4 1.4-.2 2.6-3.3 5.8-5.7 9.5-7.1-86.2-38.1-175.3-95.5-228.3-231.2zM426.8 503.9c-13.9-8.6-45.2-36.7-68.3-102.9 7 39 25.2 75.8 54.1 108.2.2.2 1.2.3 1.4.2 4.2-2.8 8.5-4.6 12.8-5.5zM519.5 528.2c-24.1-11.2-46.1-26.7-66.2-44-18.8-16.2-34.4-35.3-50.4-54.1-11-13-19.1-27.8-28.2-41.7 19 40.8 47.9 80.2 86.3 117.6.2.2.9.3 1 .3 2.5-.7 5.1-1.1 7.7-1.1 14.3 0 26.3 10.6 28.5 25.1.2 1.4-.3 2.3.9 2.4 10.5.5 21.4.8 32.4 1.1-3.9-1.9-8-3.7-12-5.6zM546.9 205.7c20.8 47.5 54.3 93.3 97.9 133.2 50.5 46.2 102.9 76.3 155.7 89.4.5.1 1.1 0 1.3-.8.5-2.4.9-4.9 1.3-7.4-104.7-35-197.3-108.8-256.2-214.4zM590.2 204.8c21.4 38.4 50.6 74.9 85.5 106.5 41.3 37.5 84.8 64.6 129.1 80.4.6.2 1.3.2 1.4-.9.3-5.1.4-10.1.4-15.1-56.8-23.8-137.6-54.9-216.4-170.9z"/><path class="st11" d="M614 362.3c54.8 50.3 115.9 85.5 176.8 101.5.5.1 1 .2 1.3-.7 1-2.9 2-5.8 3-8.8C677.8 414.7 608 366.9 522.4 243c20.3 41.8 51.4 82.4 91.6 119.3z"/><path class="st11" d="M577.1 384.6c42.6 41.4 111.4 94.5 197.7 112.6.4.1.7.2 1.1-.5 2.2-3.5 4.3-7.1 6.2-10.9-128.4-44.3-210.6-80-305.4-254.7 19.7 64.6 63.9 118.1 100.4 153.5z"/><path class="st11" d="M535.4 403.7c39.8 41.4 104.6 95.1 187.6 116 .1 0 .8-.1 1-.3 5-5.1 11.6-8.8 18.6-10.6-133.5-50-248.3-126.2-299.6-263.4 15 66.1 57.1 121.5 92.4 158.3zM697.7 215.4c27.5 31.5 58.8 58.9 93.4 81.5.9.6 2 0 1.6-1.2-2.2-5.9-4.8-11.7-7.5-17.3-7.2-3.6-40.4-17.1-87.5-63zM650.3 220.5c-4.9-5.5-9-12.1-14-17.7 42.2 62.9 101.4 114.9 167.3 147 .9.4 1.6-.4 1.5-1.1-.6-5.5-1.4-10.9-2.4-16.2-32-14.3-98.8-46.4-152.4-112z"/><path class="st12" d="M532.4 402.8c-39.8-42.5-88.8-109.5-95.7-187.5 0-.4-.3-.7-.6-.9-.1-.1-.3-.1-.4-.1-.2 0-.4.1-.6.2-3.9 2.7-7.6 5.4-11.2 8.3 2.7 18.1 7.5 36 12.2 51.4 11.2 37.2 30.4 72.3 54.3 102.8 23.7 30.2 52.2 55.7 83.7 77.4 19.4 13.4 49.1 36.2 76.4 39-42-21.8-82.5-52.6-118.1-90.6zM503.1 198.2c-.1-.4-.4-.7-.8-.7h-.2c-.3 0-.6.1-.8.4-.6.8-1.2 1.3-1.9 1.7-1.5.8-3.1 1.2-4.8 1.2h-.2c4.8 17.5 12 34.6 18.8 49.9 16.2 36.3 44 69 70.5 98.2 34.2 37.8 83.4 76.4 136.2 89.6-37.4-18.7-73.6-44-107-75.1C557 311.5 520.1 256 503.1 198.2z"/><path class="st12" d="M470.3 394.2c-38.6-52.2-59.9-104.1-63.2-154.4 0-.4-.3-.8-.7-.9-.1 0-.2-.1-.4-.1-.3 0-.5.1-.7.3-2.8 2.8-5.4 5.7-8 8.6 2.2 13.5 5.7 26.4 8.2 35.5 10.2 37 28.1 73.2 47.9 105.9 18.5 30.4 41.9 58.1 68.9 81.3 17.3 14.8 42.8 29.8 67.7 34.8-46-28.9-87.2-67-119.7-111zM419.3 462.4c-29-36.4-49.6-74.3-61.4-113.3-.1-.4-.5-.7-1-.7h-.1c-.5.1-.9.5-.9 1-.6 7.9-.7 15.8-.4 23.7 4.8 11.8 10.8 23.4 18.1 34.8 12.1 18.8 27.1 36.4 43 52.1.9.7 1.8 1.5 2.7 2.4zM522.6 507.4c-32.5-25.7-61.4-55.8-85-88.6-34.2-47.6-54.1-95.1-59.1-141.2-.1-.5-.4-.8-.8-.9h-.2c-.4 0-.7.2-.9.5-2.1 3.8-4 7.6-5.8 11.5 1.8 9.4 4 18.3 5.9 25.9 7.8 32.3 21.7 64 40 91.7 17.7 27 39.2 51.4 63.7 72.4 12.7 11 26.8 21.6 42.2 28.7zM574 383.8c-60.1-59.8-97-124.2-106.6-186.3-.1-.3-.3-.6-.5-.8-.2-.1-.3-.1-.5-.1s-.3 0-.5.1c-3.7 1.8-7.3 3.6-10.8 5.6 3.7 18.8 10.3 37.4 16.5 53.8 13.9 37.1 35.5 70.3 61 100.3 27.3 32.1 58.7 62 94.2 84.9 17.3 11.2 42 24.6 65.9 28.4-41.9-20.5-82.4-49.8-118.7-85.9zM702.1 240.3c17.1 18 40 35.8 64.8 41.6-32-24-60.9-52.2-86.1-84.3-.4-.5-1-.5-1.5-.2-.4.3-5.5 4.5-8.8 5.2 9.9 14.3 21.8 27.3 31.6 37.7zM624.2 205.2c13.9 22.7 30.7 43.9 48.5 63.6 21.9 24.1 62.4 62.7 100.6 66.5C713.9 300 662 248.8 625 188.2c-.2-.3-.5-.5-.8-.5h-.1c-.3 0-.6.1-.8.4-1.9 2.2-3.7 4.3-5.6 6.4 2.2 3.6 4.3 7.2 6.5 10.7zM578.4 185.4c-.1-.3-.3-.5-.6-.5-.5-.2-.9-.3-1.3-.5-.1-.1-.3-.1-.5-.1s-.4.1-.5.1c-.3.2-.5.5-.5.9-.1 1.2-.3 2.2-.6 3.1-.5 1.3-1.5 2.7-2.8 3.7 16.6 34.6 41.6 66.2 65.7 94.7 18.6 22 39.5 41.4 62.8 58.4 16.4 12 38.2 24.1 59.9 28.4-29.6-15.7-58.2-36.1-85.4-61.2-42.1-38.7-74.5-81.4-96.2-127zM538.5 188.9c-.1-.4-.5-.6-.9-.7h-.1c-.3 0-.7.2-.9.5-1.2 1.8-3 3.2-4.9 3.7-.6.2-1.2.2-1.9.3 5.6 15.9 13.3 31.3 21 45.7 17.5 32.9 40.3 64.1 65 92 22 24.8 48.3 45.4 77.5 61.2 12.1 6.5 32.8 15.8 51.8 18.4-34.8-16.5-69.2-40.1-101.5-70-49.9-46.3-85.3-97.1-105.1-151.1z"/><path class="st10" d="M593.9 621.7c18.7.1 37.5-1.2 56.2-2.2 29-1.6 56.5-4 83.5-11.7 19.3-5.5 17.7-13.9-2.9-14.5-26.9-.7-53.3 2-80.7 4.2-18.7 1.5-37.5 2.9-56.2 4.3-36.6 2.8-36.5 19.6.1 19.9z"/><path class="st10" d="M766.3 600.3c13.1-4.8 9.5-18.5-4.1-14.9-14.9 4.1-10.4 20.2 4.1 14.9z"/><path class="st13" d="M789.1 486.4c-.5 0-1.1-.7-1.6.4-1.8 3.5-3.7 6.9-5.8 10.2l2.7.6c12.8 2.8 25.1 6.7 36.9 12 2.9-1.8 4.1-4.3 3.7-6.4-1.4-7.2-20.3-13.1-35.9-16.8zM387.2 485c-.2-.3-.5-.5-.9-.5h-.2c-7.1 1.7-42.8 10.4-44.9 18.7-.3 1-.2 2.4 1.3 3.9 1.1 1 2.3 2 3.6 2.9 15.2-6.8 32.4-10.9 49-13.9-2.7-3.6-5.4-7.3-7.9-11.1z"/><path class="st14" d="M492.3 172.4s5.8 10.3 7.8 13.8c.7 1.2 1.4 2.4 1.9 3.6.4 1 1.3.8 1.8.3 3.4-4.1-.9-13.8-4.4-21.7-1.1-2.4-2-4.4-2.4-5.7-4.1-13.4-23.5-65-26.9-63.5 4.6 23.2 11.9 47.3 22.2 73.2zM582.3 180.1c1.4 0 2.9-.2 4.2-.4.5-.1.9-.5.9-1 0 0 .1-5.3 0-6.7-.3-14.8-.5-30.6.2-46.3 0-.1-.1-.4-.1-.5-.1-.2-.1-.4-.1-.6-.5-13.7-9.7-44.2-13.3-44.3 4.8 36.4 5.3 67.5 1.4 94.4-.2 1.4.1 2 .9 3 1.3 1.6 3.3 2.4 5.9 2.4zM592.7 172v4c0 2.4-.1 4.8.2 7.3.3 2.6 1.1 5.2 4.9 5.2.6 0 1.3.1 1.6-.6.3-.6 2.8-3.9 2.8-3.9.2-.3 0-1.5 0-1.8.2-38.7.2-99.2-4.4-99.9-6.2 31-5.6 63-5.1 89.7zM603.7 192.5c.6 2 2.4 2.6 3.9 2.6 1.6 0 3.2-.8 4.7-2.3 22.8-25.7 50-88.2 45.5-90.5-12.5 34.1-33.1 62.6-52.8 86.8-.9 1-1.7 2.3-1.3 3.4zM498.9 89.1c10.8 32.1 20.1 64.5 27.7 96.6.6 2.4 2.7 2.2 3.7 1.6 1.7-.9 2.7-1.7 2.1-5.7-4.9-34.5-29.2-93.6-33.5-92.5zM489.7 193c.8.9 1.9 2 3.6 2.4 1.6.4 4.5-.2 4.4-2.1-.1-1.3-2.2-4.7-2.2-4.7-14-24.2-52.8-74.2-54-73.3 14.2 28.6 30.3 54.6 48.2 77.7zM522 102.2c2.6 10 5 20 7.1 29.8.1.5.5.8 1 .8h.1c.5 0 .9-.3 1-.7 2.6-8.2-8-36.6-9.1-30.3-.2.1-.2.3-.1.4zM564.7 187.5c1.8 1.1 4.5.8 5-1.9.3-1.8-.2-3.6-.6-5.3-.1-.5-25.3-99.2-29.7-98.7 3.1 32 10.4 65.4 22 99.6.1.3 1.7 5.3 3.3 6.3zM630.4 141.5c0 1.2 1.1 1.9 1.9.5 3.1-5.1 6-10.2 8.7-15.3.1-.1.1-.3.1-.5.3-10.2-5.9-34-9.5-35.3-1.5 17-1.9 33.9-1.2 50.6zM658.9 195.6c.4-.2.6-.6.5-1.1-.4-2.9.6-5.8 2.9-7.9 4-3.6 8.2-7.6 12.9-12.3 9.7-12.4 19.3-47.1 16.3-49.6-10.5 27.1-25.3 49.1-44.5 65.6-1.5 1.3-2.2 3-2.1 4.6.1.9.5 2.3 2.1 3.3 1.2.8 2.5 1.2 3.9 1.2 2.4 0 4.9-1.2 7.5-3.5l.5-.3zM666.1 190.3c-1.1 1.1-1.7 2.4-1.5 3.6.2 2.2 2.7 3.4 4.4 3.4 1.9 0 5.6-2.8 5.6-2.8 9.8-7.5 31.9-38 35.5-51.5-8.8 11.6-19.1 23.2-31.4 35.2 0 0-8.8 8.6-12.6 12.1zM706.8 172.6c-.1.1-.3.1-.4.3-6.5 6.7-13.3 13.1-20.3 19-2.1 1.7 1.3 2.1 2.3 2.1 6.3 0 18.1-6.3 25.9-10.4 2.2-1.2 9.2-4.7 17.3-6.8-1.4-3.5-17.8-6.8-24.8-4.2zM622.2 157.6c.9-1.2 1.7-2.5 2.5-3.7.6-.9 1-1.7.9-3.3-.5-7.5-.7-15.4-.8-23.9 0-.1-.1-.3-.1-.5-2.9-10.2-5.3-21-7.4-33.2-.1-.5-.5-.9-1-.9s-.9.4-1 .8c-1.7 8.5-3.1 17.2-4.2 26.8 0 .2.2.7.2.9 2.6 12.5 5.7 24.9 9 36.6.3 1.2 1.2 1.4 1.9.4zM675.1 114.6c-.4 0-.8.2-.9.6-6.5 13.4-14.9 27.1-25.8 41.9-.2.2-.2.6-.1.9.9 5.3 3.4 18.1 3.4 18.1.2.8 1.2 1.1 1.8.5 3.3-3.4 6-6.6 8.4-9.7.1-.1.2-.4.2-.5 6.8-14.8 11.4-31.3 14.1-50.7.1-.5-.2-1-.7-1.1h-.4zM678.8 140.2c3.1-6 4.5-22.1 2.5-23.5-1.2 8-2.6 15.6-4.4 22.8-.3 1.1 1.5 1.6 1.9.7zM607.6 174.1c0 1 1.3 1.4 1.9.7 2.5-3.2 4.9-6.4 7.3-9.7.2-.3-.2-1.6-.2-1.6-.8-2.6-1.5-5.3-2.3-8-2.7 3.6-4.8 7.9-6.5 12.2-.1 2.1-.2 4.2-.2 6.4zM643.7 186.1c-1.8-5.4-3.9-11-6-15.3-1.4 1.8-2.8 3.6-4.3 5.3-.3.3-.2.9 0 1.3.1.2 1.6 6.8 3 10.6.1.3.2.7.3 1 .3 1.1.6 2.3 1.3 3.3.6.9 1.7.3 1.9-.4.5-2.1 1.6-3.9 3.3-5.4.1-.1.3-.3.5-.4zM505.5 167.6c.7 1.7 1.5 3.5 2.2 5.2.4.9 1.4.8 1.8.2 2.3-3.1 4.2-6 5.9-8.7.2-.2.2-.5.1-.8-.7-2.7-1.5-5.5-2.2-8.2-.9 8.6-6.7 10.5-7.8 12.3zM545 183.2c2.3-.9 3.2-3.9 3.7-5.6 1.3-4.3 2-8.2 2.1-12-1.3-4.4-2.6-8.8-3.7-13.2-3.1 4.8-9.4 20.9-10.2 23.6.2 1.4.7 4.5.7 4.5 0 .3.5.8.8.9 2.8 2 5.1 2.4 6.6 1.8z"/><path class="st15" d="M866.5 502.7c-9.7-22.8-48.6-30.5-69.4-35.2 13-34.7 17-73.9 15.2-108.9-3.6-70.8-39.9-132.8-102.2-166.8 11.2-5.4 23-9.8 35.4-11.1 6.1-.4 11.4-3.6 11.9-10.3.5-7-5-10.7-11.3-11.2-9.7-.6-19.5.9-28.9 3.4 12.8-14.8 24.2-31 33.7-47.9 3.8-7 3.2-14.9-3.9-19.5s-15.4-.7-18.7 6.5c-7 14.6-15.8 28-25.6 40.5 11.2-22.1 19.2-46.1 23.7-69.9 1.3-7.1 3.6-15.2-.8-21.4-2-2.8-5-4.7-9.2-5.3-5.3-.7-9.7 2.2-12.6 6.3-.3-2.7-.7-5.4-1.2-8.1-1.5-8.6-3.6-18.1-11.4-23.3-4.6-3-11.6-1.6-14.5 3.1-4.1 6.8-2.3 14.9-.9 22.4-8.8-1.5-13.2 8.7-14.4 16.2v.1c-2.4 16.5-7 31.9-13.2 46.6 1-22.3 3-44.4 8.4-66.2 1-3.9 1.8-7.8 0-11.6-1.5-3.1-4.2-5.2-7.4-6.2-7.9-2.6-13.8 3.7-15.4 10.7-4.6 20.8-7.6 41.8-9.1 62.9-1.5-7.5-2.7-15.1-3.7-22.8-.1-.4-.2-.7-.4-1.1.7-2.5 1.3-5.1 2.1-7.6 2.1-6.3 2.1-13.6-3.2-17.4-1-.7-1.1-1-1.1-2.3-.3-5.9-.6-11.8-.7-17.7-.1-6.1-1.9-13.4-9.1-14.2-6.7-.7-10.9 6.1-11.9 11.8-1.6 11-.9 22.2 0 33.3-2.3 7.2-4.1 14.4-5.5 21.8-1.3-15.7-3.3-31.4-6.6-46.7-1.7-7.2-6.8-14.6-15.1-13.8-3.5.3-6.5 2.2-8.3 5.3-2.3 3.8-1.5 8.3-.6 12.4 7.6 37.6 13.5 80.7 10 120.2-7.4-33.2-13.5-67.4-11.5-101.2.7-8.4-4.5-15.8-13.2-16.6h-.8c-.3-1.5-.6-2.9-.9-4.4-1.7-8-7.3-15.3-16.3-14.5-3.6.3-7.1 2.2-9.1 5.2-2.7 4.2-2.1 8.7-1.4 13.3 2.1 14.3 2 28.5.4 42.7-3.3-11.1-6.9-22.2-10.9-33.1-2.9-7.6-9.2-13.8-17.9-11.5-8.2 2.1-10.4 11.3-8 18.5 9.5 25.7 18.1 51.7 25.7 78-1.8 5.7-3.7 11.3-6.2 16.7-8.1-27.1-13.8-55.1-18.6-83-1.2-7.3-4.8-15.1-13.5-13.9-7.5 1.1-9.4 10.3-8.9 16.4 2.1 20.6 6.4 40.9 12.2 60.8-7.9-14.9-15.6-29.9-23.2-44.9-3.5-6.9-9.8-12.7-17.8-9-7.9 3.6-6.8 13.8-4 20.3 13.5 30.1 29.8 58.9 49 85.7-64.2 26.7-111.9 75.6-124.6 145.3-8.7 47.8 1.1 95 23.5 136.2-22.7 5.2-52.5 13.1-64.3 34.7-8.5 15.6 5.2 29.8 17.3 37.9 1.7 1.1 2.3 1.9 2.5 3 5.8 25.5 6.5 58.6 25.8 78.6 3.8 3.9 8.1 7.3 12.7 10.4.6 2.3 1.2 4.6 1.7 6.8-8 5.1-13.9 13.3-12.5 23.4 2.8 20.5 7.5 44.6 14.8 64.1 5.4 14.4 19.7 23.9 32.7 30.7 45.5 23.7 102.1 28.4 152.4 30.8 57.8 2.8 117.7-.3 173.8-15.4 19.1-5.1 39.3-12.3 55-24.6 20.2-16 21.4-38.9 26.9-62.9 4.1-18.1 8.8-33.3-8-44.3.5-1.8 1-3.7 1.5-5.6.1-.5.1-1 .1-1.4 11.3-7.8 20.5-17.7 25-30.5 6.8-19.5 9.6-41.4 14.2-61.5.1-.5.1-.9 0-1.2 1-.5 1.9-1 2.9-1.6 13.2-7.6 23.9-20.2 17.4-35.4zm-77.9-15.4c5.9 1.4 46.3 10.9 32.8 21-10.5 7.8-25.8 11.2-40.6 13.2-.1-.3-.3-.6-.5-.9-2.5-3.2-5.2-5.8-8-7.9 6.2-7.9 11.6-16.5 16.2-25.5 0 0 0 .1.1.1zM637 532.5c-16.7.4-33.4.6-50.1.6 13.5-15.5 38.3-18.8 50.1-.6zm8.3-.2c-1.8-3.7-4-6.9-6.5-9.5 9.9-13.3 28.8-5 33.8 8.5-9.1.4-18.2.8-27.3 1zm35-1.4c-5.5-20.7-33-30.4-47-12.7-7.3-4.8-16-6.2-24.6-4.8-52.2-29.5-97.9-70.3-134.2-118-34.8-45.7-62-100.7-64.9-158.8 8-7.7 16.8-14.8 26.1-21.2 6.4 71.7 47.8 136.8 96 188.1 50.7 54.1 116.5 99.6 188.9 118.3-1.5 1.9-2.8 3.9-3.9 6-.1.2-.1.5-.2.7-12.1 1-24.1 1.8-36.2 2.4zm68.7-24.3c-9.6.9-18.9 5.3-25.7 12.1-71.9-18.1-136.2-62.8-187.1-115.8-49.1-51.1-91.4-117.7-97.1-189.9 8.6-5.7 17.8-10.8 27.2-15.3 11.2 72.1 56.1 136.4 106.9 186.8 54.4 54.1 123.8 98.7 199.6 114.9-2.2 3.3-4.5 6.5-7 9.5-4.9-2-10.4-2.9-16.8-2.3zm23.1 16c-5.2.6-36.1 4.1-46.8 5.1 4.3-6.2 11.2-10.4 18.4-12.4 9.8-2.7 19.5-2.5 28.4 7.3zM511.5 181c1.9-2.5 3.8-5 5.6-7.6 1.2 4.6 2.3 9.3 3.4 13.9 1.4 5.1 6.5 7.5 11.5 6.1 2.3-.7 4.2-2.2 5.5-4.2 21.5 58.3 60.1 109.4 105.4 151.4 44.2 41 98.1 75.6 157.2 90.2-2.2 10.9-5.2 21.6-9 31.9-66.2-17.5-126.3-55.3-176.4-101.3-48.5-44.5-90.5-100.7-109.2-164.5 7-2.2 7.7-8.6 6-15.9zm38.3-15.2c-.1 3.9-.9 7.7-2.1 11.4-1.1 3.5-3 5.8-5.5 5-2.1-.6-3.6-1.7-3.9-4-1.6-10.9-3.4-21.8-5.5-32.7.1-.2.3-.4.4-.7 2.5-6.3 4.6-12.8 6.3-19.4 2.9 13.7 6.3 27.2 10.3 40.4zm57.5-108.6c1.7-1.6 3.9-2.6 6.3-2.1 5 1 3 6.9 2 10.1-11.2 36.8-14.2 77.6-14.4 116 0 2.5-.9 6.6-4.1 6.2-2-.2-2.9-1.4-3.2-4.2-.4-3.7-.1-7.5-.1-11.2-.7-35.8-1-72.3 9.4-106.8.6-2.4 1.5-5.6 4.1-8zm2.6 85.9c1.7 6.9 3.6 13.9 5.7 20.7.1.3.2.5.4.7-2.4 3.2-4.8 6.4-7.3 9.6.1-10.2.5-20.6 1.2-31zm-23 42.9c.6 5.2 4.4 9 10.9 8.8 2.4 7.3 12.5 9.1 18.8 2.5 2.5-2.8 5-5.6 7.4-8.5 42.6 69.8 106.5 129.1 180.4 164.4 1.1 8 1.2 26.5.7 37.5-48-17.2-91.2-46.1-128.7-80.2-38.6-35-71.7-77-94.5-124 1.7 0 3.4-.2 5-.5zm70-14.8c-1.4 1.6-2.8 3.2-4.3 4.7-1.2-6-2.4-12-3.4-18.1 0-.1 0-.1-.1-.1 9.8-13.3 18.8-27.3 25.9-42.1-2.2 15.6-5.8 30.9-11.9 45.5-.7 2-2.6 6-6.2 10.1zm5.1 29.9c1.9 1.6 4.3 2.4 6.8 2.6 3.4.2 6.3-1.7 8.9-3.6.8-.6 1.5-1.3 2.3-1.9 31.8 40.6 70.2 75.8 113.7 103.6 5.1 14.9 8.6 30.7 10.4 47.1-68.8-33.4-128.7-87.6-170.4-151.8 1.6 1.9 3.8 3.1 6.6 3 .5.9 1.1 1.7 1.9 2.4 5.8 5.7 14.2 3.2 19.8-1.4zm-18.8-35.5c1 5.5 2.1 11 3.2 16.6-1.3 1.2-2.6 2.5-4 3.6-1.9 1.7-3.1 3.8-3.6 5.9-.8-1.1-1.1-3-1.5-4-1.2-3.3-2.1-6.5-2.7-10-.1-.4-.2-.7-.4-.9 3-3.7 6-7.4 9-11.2zm-14.8 18.2c.7 2.8 1.6 5.6 2.7 8.3.2.5.9 2.2 1.1 2.5-1.9-2.9-3.7-5.9-5.5-8.8.5-.6 1.1-1.3 1.7-2zm-53.1 4.9c.5-1.1.6-2.3.7-3.4.5.2.9.4 1.4.6 23.1 48.4 57 91.1 96.3 127.2 38 34.9 82.4 64.2 131.1 81.5-.7 10.9-2 21.9-4.1 32.8-58.6-14.5-111.2-48.8-155.3-89.2-44.7-40.9-82.7-91.6-104-148.6 8.3 1.3 11.4-4.8 13-9 .4 1.1.7 2.2 1.1 3.3 1.2 3.4 2.5 6.6 5.5 8.8 2.4 1.7 5.2 2.2 8 1.6 3-.6 5.3-3 6.3-5.6zm127 7.1c43.4 22.4 73.4 57.7 89.4 100.2-39.7-26-75.1-58.3-104.9-95.3 5 .6 10.5-2.4 15.3-5 .1.1.1.1.2.1zm43.9-29.2c2.4.2 4 .9 4 3.3 0 2.5-2.4 3.2-4.6 3.4-9.3 1-18.1 2.8-26.6 6.6-4.8 2.1-25.4 14.7-32.1 12.7 7.1-6 13.9-12.3 20.4-19.1 12.3-4.6 25.6-7.7 38.9-6.9zm-11.5-61.2c1.6-3.4 4.2-6 8.1-4.1 4.1 2 3.7 6.2 1.8 9.6-11.5 20.4-25.6 39.7-41.9 56.8l-.1.1c-8.9 9.4-18.5 18.1-28.7 25.9-2.3 1.7-4.4 3.6-7.1 1.9-2-1.2-1.4-3.2 0-4.5 3.8-3.5 15.4-14.8 16.8-16.2 20.3-20.6 38.4-43.2 51.1-69.5zm-19-52.4c5 0 5.3 5.4 4.9 9.1-5.1 33.2-17.1 67.5-35.6 96.4-4.9 7.6-11.1 15.6-16 20.3-2.5 2.4-4.9 4.7-7.5 7-2.3 2.2-3.4 5-3.3 7.8 0 1.2-.9 1.7-1.8 2.4-2.7 2.1-5.9 3.3-9 1.3-2.6-1.7-1.8-4.6.1-6.3 31.4-27.1 47.9-65.2 56.1-104.9.5-2.4 3.4-19.3 4-24.4.8-4.4 3.1-8.6 8.1-8.7zm-23.4-19.4c4.2 10.4 5.3 22.6 5.6 34.3.2 7.3.4 8.2-.9 14.8-3.9 19.9-10 39.4-19.1 57.2 3.7-14.8 5.8-30 6.8-45.4 0-.7-.1-1.3-.4-1.8 1.3-4.1 2.5-8.3 3.4-12.5 1.4-5.9 3.1-13.6.8-21.3-.9-3.1-2.5-6-4.7-8.2-.7-5.4-1.8-10.8-2.3-16.3-1-10.7 7.8-8.3 10.8-.8zm-15.6 20.6c5.6 2.8 6 10.7 5.4 16.2-7.7 46.4-40.4 87.4-70.8 121.6-1.5 1.6-3.6 2.6-5.5 1.6-1.4-.7-1.4-2.3-.2-4 29.3-36 53.2-73.7 61.9-119.7.7-3.6 1.2-10.4 3-13.4 1.4-2.2 3.3-3.8 6.2-2.3zm-35.8-16.5c.7-3.1 2-6.5 5.8-5.7 4.6.9 3.7 5.5 2.8 8.9-6.9 28-8.4 56.6-9.3 85.3-2.7 5.2-5.6 10.3-8.7 15.3-1.5-35 1.8-69.6 9.4-103.8zm-17.2 88.8c0 .1.1.1.1.2 0 8.4.3 16.8.9 25.3v.1c-1.1 1.7-2.2 3.3-3.3 4.9-3.2-11-5.9-22.2-8.3-33.4-.2-1.1-.7-5.2-.6-6.1 1-8.2 2.3-16.3 3.9-24.4 1.8 11.3 4.2 22.4 7.3 33.4zm-18-102.1c1.4-1.7 3.6-1.5 4.2.4.4 1.4.5 3.4.5 5 .1 5.9.3 11.9.7 17.8-2.8.3-5.4 1.5-7.6 3.3-.4-7.2-.6-14.5.4-21.6.3-1.6.7-3.5 1.8-4.9zm-37.8 13.2c-.5-2.5-1.8-8 2.3-8.4 4.6-.4 6.6 4.9 7.4 8.5 6 28.3 7.6 58 8.7 86.8 0 .4.1.7.3 1.1-.7 15.5-.5 31-.2 46.4v6.7c-3.1.5-6.1.9-8.4-.9-1.5-1.2-1.6-2-1.2-5.1 5.9-43.7-.3-92.4-8.9-135.1zm-16 21c-2.4 40.3 6.7 81.5 15.8 120.6.5 1.9 1.3 4.2 1 6.2-.3 1.7-1.9 2.2-3.4 1.2-1.5-.9-2-3.2-2.5-4.7C549 141.7 540 99.2 538.9 56.6c-.1-4.5 2-7.5 6.7-7.3 4.9.2 6.6 5 6.3 9.3zm-27.1-18.9c-.6-3.7-1.1-8.8 3.9-9.3 5.4-.5 7.6 4.7 8.5 9.1.3 1.4.6 2.7.8 4.1-4.3 2.5-6.8 7.4-6.7 12.9.4 16.7 2.1 33.3 4.7 49.8-1.4 8.6-3.4 17.1-6 25.4-2.1-10-4.5-20-7.1-29.8 3.7-20.7 5.1-41.3 1.9-62.2zm-33.6 7.2c4.4-1.4 7.5 2.9 8.8 6.4 15.3 41.5 25.1 84.8 31.4 128.5.1.6.2 1.4.2 2.1.2 3-3.6 3.5-4.2.9-10.4-43.6-23.5-86.4-39-128.5-1.2-3.5-1.4-8 2.8-9.4zm19.3 101.8c1.4 5 2.8 10.1 4.1 15.1-1.9 2.9-3.8 5.8-5.9 8.6-1.4-3.5-3-7-4.4-10.2 1.7-2.9 4.4-8.9 6.2-13.5zm-43.3-76.2c-.3-3-.5-8.1 3-9.2 3.2-1 4.4 6.1 4.8 8.6 3.2 18.3 6.8 36.6 11.1 54.7 2.9 12.2 6.3 24.4 10 36.4 1.4 4.5 8.4 17 7.9 23.5-.1 2.2-1.2 2.2-2.5-.1-.2-.4-.4-.7-.6-1.1-2.6-4.5-5.1-9-7.7-13.6-12.7-31.7-22.4-65-26-99.2zm-32.4 13.2c3.6-2 6.6 4.1 7.7 6.3 16.5 32.8 33.7 65.4 52.1 97.1.5.9 1.2 1.8 1.6 2.8 1.2 2.6-.8 2.9-2.7 2.4-1.2-.3-2.2-1-3-2.1-22.9-29.5-41.7-62.3-57-96.4-1.5-3.2-2.4-8 1.3-10.1zm59.1 116.1c4.3.3 6.7-1.4 8.2-3.3 19 64.4 61.3 120.4 110 165.7 50.1 46.6 111.2 84.5 177.7 102.2-4.1 10.5-9 20.6-14.9 29.8-75-15.7-142.8-59.5-197.2-112.3-51.4-49.9-97.4-115.4-108-187.8 3.6-1.6 7.2-3.2 10.8-4.7 4.3 5.5 6.8 10 13.4 10.4zM406 240c3.8 56.8 30 109.7 63.4 154.9 35.7 48.2 81.8 89.6 133.8 119.7-15 4.4-24 15.2-25.6 18.6h-14.2c-48-30.2-90.1-69.8-123.5-115.6-30.9-42.4-54.9-92.4-59.4-145.2 7.3-11.9 15.8-22.6 25.5-32.4zm-28.5 37.7c5.6 51.7 29.2 99.8 59.3 141.7 32.2 44.8 73.5 83.6 119.8 113.7-19.1-.2-38.2-.6-57.3-1.5-2-20.3-20.8-31.2-37.5-26.4-47-45.7-86.9-102-103.9-166 1.7-14.1 2.7-31.3 19.6-61.5zm30.1 235.4c-2.6 2.3-4.9 4.8-7.1 7.4-1.4 1.7-2.1 2.3-4.4 2-16.5-2.2-40.4-4.5-52.9-16.2-8.3-7.8 32.6-18.3 43.2-20.8 6.4 9.7 13.5 18.9 21.2 27.6zm19.8-2.7c14-3.7 26.3 6 30.6 18.7-17-1.3-33.9-3-50.7-5.2 5.5-6.3 11.5-11.2 20.1-13.5zm38.3 19.3c0-.3 0-.6-.1-1-1.5-5.2-3.9-10-7.2-14 14.2-8.3 30.6.2 33.6 16.5-8.8-.3-17.5-.8-26.3-1.5zM356.9 349.4c18.3 60.3 56.4 113.5 101.1 157.3-1.7.8-3.4 1.7-5 2.8-9.7-7.8-24.6-10.9-39.5-.9-39.9-44.7-60.9-100.1-56.6-159.2zm442.7 364.1c-2 8.7-4.4 15.2-10.5 21.9-12.3 13.3-31.1 20.4-47.8 26-48.7 16-102 19.3-153 19.2-51.1-.1-103.9-4.5-152.8-20.1-17-5.4-34.8-12.8-47.6-25.6-6.2-6.2-8.5-13-10.4-21.3-4-17.6-20.1-53.2-4.6-67.5 3.1 10.5 7.3 19.2 17.6 27.1 13.4 10.3 30.7 15.9 46.8 20.5 48 13.8 99.5 17 149.1 17.4 50.1.4 101.6-3.1 150.2-15.8 16.8-4.4 33.8-10.4 48.2-20.3 11-7.6 15.5-16.4 18.8-27.2 15.5 14.4 0 47.9-4 65.7zm-23.7-41.7c-15.1 9.3-32.9 14.3-49.9 18.4-45.4 11-93.1 13.5-139.6 13.4-46.4-.2-93.5-3.8-138.6-14.8-16.2-4-32.4-9.2-46.8-17.6-15.1-8.7-19-19.6-22.8-34.3 8.2 4.4 16.9 8 25.4 11.2 51.6 19.3 109.3 24.3 163.9 26 58.3 1.8 118-1.8 174.8-15.7 17.1-4.2 38.5-10.1 56.4-20.1-4.1 14.9-8.1 24.5-22.8 33.5zm36.2-52.7c-14.8 13.9-35.6 21.4-54.6 27.3C703.9 663.2 645.8 667 590 667c-56.3.1-114.1-4.8-168.4-20.7-19.6-5.8-39.8-13.5-55.7-26.6-20.6-17-22.2-49-27.1-74.1 28.3 14.2 63.5 16.9 93.9 19.5 52.4 4.4 105 5.9 157.6 5.8 52.2-.1 104.3-2.3 156.3-6.9 30.5-2.7 63.4-7 91.8-20.2-5.1 25.3-6.7 57-26.3 75.3zm10.5-77.1c-34.3 12.1-71.7 14.5-107.7 17.1-41.5 3-83 4.1-124.6 4.4-37.3.2-74.7-.8-112-2.7-38.1-2-76.9-3.9-113.8-14-15.4-4.2-52.8-16-48.4-38.4 4.3-22.2 43.8-30.6 62.7-34.8 1.1 1.8 2.1 3.6 3.2 5.3-15.6 3-36.2 6.7-45.9 19.5-7.8 10.3 8.8 18.4 15.7 21.3 29.1 12.1 64.4 13.1 95.4 15.7 42.9 3.6 85.9 4.9 128.9 5.2 40.4.2 80.8-1 121.1-3.6 35.9-2.3 72.7-4.5 107.5-13.9 7.7-2.1 31.1-8.6 27.3-21.2-4.2-14.2-27.8-18.5-40.3-21.4.9-2 1.8-4.1 2.6-6.1.1 0 .1.1.2.1 21 4.8 51.5 10.7 64.5 30.1 13 19.1-24.7 33.3-36.4 37.4z"/><path class="st15" d="M463.3 498.9c.3.3.8-.2.5-.5-23.7-23.4-44.4-49.7-63.4-77-.1-.2-.4 0-.3.2 8.8 15 19.1 28.9 30 42.5 10 12.4 20.5 24.9 33.2 34.8zM658.7 438.2c15.2 10 30.5 19.9 47.1 27.4.4.2.7-.4.3-.6-33.9-19.9-66.8-41.7-98.5-64.9-.1-.1-.3.1-.2.3 15.8 14.3 33.6 26.2 51.3 37.8zM672.5 298.1c.3.2.6-.2.4-.5-9.6-10.1-19.2-19.8-28.1-30.6-8-9.7-15.3-20-23.2-29.8-.1-.1-.3 0-.2.2 13.4 21.2 30.3 45.9 51.1 60.7zM682.4 306.4c.2 0 .4-.3.3-.5-.7-1.1-1.7-1.7-2.8-2.6-1-.8-1.8-1.9-2.9-2.6-.2-.1-.4 0-.4.2.1 2.7 3.5 5.2 5.8 5.5zM714 470.2c.2 0 .4-.1.3-.3-.6-2-3.9-4-5.9-3.4-.2.1-.3.3-.1.5.6.7 4.4 3 5.7 3.2zM462.6 280.2c-5.7-14-8.5-28.5-12.4-43-.1-.2-.4-.2-.4.1.8 27 13.8 56 28.4 78.3.3.5 1.1.1.8-.5-6-11.4-11.6-22.9-16.4-34.9zM481.5 319.8c-.1-.1-.3.1-.2.2.9 2.6 2.1 5.5 4.1 7.5.2.2.5 0 .5-.3-.8-2.6-2.1-5.7-4.4-7.4zM743.4 253.9c5.6 5.1 11.3 10.1 17.9 13.8.3.2.6-.2.4-.5-5.3-5.3-11.3-9.8-16.9-14.7-5.1-4.4-9.8-9.4-15-13.6-.1-.1-.3 0-.2.2 3.5 5.7 8.8 10.3 13.8 14.8zM553.5 467c-6.9-5.6-13.4-11.7-20.7-16.8-.1-.1-.2.1-.2.2 10.6 12.8 25.7 25 40.1 33.4.3.2.6-.2.4-.5-6-6-13-11-19.6-16.3zM604.7 343.8c.3.2.6-.2.4-.5-13.8-17-28.8-32.9-42.2-50.3-.2-.3-.7 0-.5.3 5.7 10.2 13.2 19.3 20.8 28.2 6.4 7.8 13.3 16.1 21.5 22.3zM609.6 348.6c.2 0 .3-.1.2-.3-.6-1.2-1.8-2.1-2.8-3-.2-.1-.4 0-.4.2.6 1.3 1.5 2.7 3 3.1zM422.5 381c.3.4.7-.1.6-.5-3.9-8.8-9-17-13.3-25.5-5.3-10.6-9-21.8-13.4-32.8-.1-.2-.3-.1-.3.1 3.6 19.9 14 42.7 26.4 58.7zM517 654.5c-41.4-6.8-82.1-12.8-121.3-27.7-6.5-2.5-7-1.7-.8 1.3 17.8 8.4 36.7 14 56 18.5 21.5 5.1 43.6 9 65.8 9.9 4.9.1 5.2-1.2.3-2zM526.1 657.2c5.6.3 5.7-2.1.1-1.8-3.7.1-3.8 1.5-.1 1.8zM765.7 740.4c-14.3 5.9-28.9 11.3-43.7 15.7-14.8 4.4-30 6.5-45 10.4-.2.1-.1.3 0 .3 14 1.6 29.7-3.2 43.1-6.8 15.9-4.4 32-9.6 45.8-18.9.5-.2.3-.8-.2-.7z"/></svg>