<svg version="1.1" id="e37c00f5-ff96-45aa-87ea-1a24b78ba7bd" xmlns="http://www.w3.org/2000/svg" x="0" y="0" viewBox="0 0 1176.6 803.7" style="enable-background:new 0 0 1176.6 803.7" xml:space="preserve"><style>.st0{fill:#68182b}.st1{fill:#ff821d}.st2{fill:#b4d345}.st3{fill:#91deff}.st4{fill:#67d8eb}.st5{fill:#00ff8b}.st6{fill:#c0ffa8}.st7{fill:#50a76e}.st8{fill:#f26200}.st9{fill:#fdc435}.st10{fill:#d1ffff}.st11{fill:#dae638}.st12{fill:#aeae38}</style><path class="st0" d="M848.6 144c2.2-3.4 2.5-7.8 2.4-11.8 0-.3-.5-.4-.6-.1-.8 3.1-1.7 6.1-2.7 9.2-8.1-20.8-22.2-39.3-41.1-54 1.7-3.6 3.7-6.8 4.6-10.9.9-4.3.5-8.9-1.1-13-3.2-8.2-11.5-12-19.9-11.4-6.3.7-14.8 2.6-19.4-3.7-3-4.2-2.5-11.1-6.7-14.6-4.4-3.7-9.5-5.3-15-2.3-3.4 1.8-6.2 3.9-9.2 6.5-7.9 6.7-12.8 3.8-20.3 7.7-8.1 4.2-11.7 10-13.2 18.5-9.3 2.7-17.9 6.9-25 13.3-2.5-4.7-5.3-9.1-8.5-13.1.8-1.7 1-3.2.9-5.1 0-.3-.5-.5-.6-.2-.6 1.2-1.2 2.4-1.8 3.7-3.4-4.1-7.2-7.9-11.3-11.3.1-3.9-1.3-8.6-3.7-11.3-.3-.4-.8 0-.8.5.4 2.4 1 4.7 1.3 7.1l.3 1.5c-27-20.8-65.3-27.8-98.1-24.8-4.7.4-9.3 1.1-13.9 2 .1-1.8-.5-3.7-1.5-5-.3-.3-.7 0-.7.3-.2 1.4-.3 2.8-.4 4.3 0 .3-.1.6-.1.9-12.5 2.6-24.2 6.7-35 12.3-3.4-10.8-8-27.8-22-23.3C475 19.3 465 23.2 454.3 26c-8.5 2.2-19.2 5.1-24.6 12.8-4.3 6.1-5.4 12-5.6 19.4-.4 13.6.1 25.6-1.7 39.3-2.3 17.3 3.9 25.1 18.8 26.9-1.1 4.7-2 9.4-2.6 14.1-11.4-1.6-22.2-.1-32 3.8-1-2.1-2.9-4.1-4.4-5.3-.3-.2-.7 0-.6.3.4 1.7 1 4.2 2.1 6.2-7.9 3.6-15.2 8.8-21.7 15-6.1-7.4-14.9-11.3-24.4-8.8-3.8 1-8.6 3.9-9.5 8.1-1.1 5.2 2 10.1.8 15-2.8 5.5-8.8 7.2-14.1 9.7-4.8 2.2-8.3 5.7-11.4 9.9-7.3 9.8 5.3 17.9 6.5 26.9-.2 5-3.5 9.4-4.8 14.3-1.2 4.6.6 9.2 2.8 13.1 5.1 9.2 15.5 13 25.5 13.6 2.8 11.2 7.3 22.3 13 32.5-2 .3-3.9 1-5.4 1.4-.4.1-.4.8.1.8 2 0 3.9.3 5.9.4.3 0 .6 0 .9.1.6 1 1.2 1.9 1.8 2.9-.4.2-.8.3-1.1.4-1.3.5-2.8.8-4.1 1.3-.3.1-.3.5 0 .6 2 .7 4.3.2 6.1-1 10 15.8 23 29.1 37.9 36.8-4.8 11.8-6.2 24.9-4.8 39.4-2.2.4-4.3 1.2-6.1 2.1-.3.1-.2.6.1.7 1.9.4 4.2.6 6.4.5 0 .3.1.7.1 1 1.1 8.4 2.9 16.6 5.2 24.5-.2-.1-.4-.2-.5-.3-1.4-.8-2.7-1.7-4.1-2.5-.3-.1-.7.1-.6.4.7 2.2 3.4 4.3 6 4.7 5.3 17.2 13.4 33.1 23.5 47.7-25.6 14.1-33.5 38.4-16.7 56.6-35.3 64.5-.7 137.5 31.5 196 14.4 26 32.2 50.6 59.1 64.5 26.3 13.6 57.7 17 86.8 16.8 27-.2 54.3-5.2 79.1-15.8 28.6-12.3 46.6-39.4 61.5-65.4 32.9-57.5 66.2-131.6 31.9-195.3 7.1-7.1 11.6-17.3 9.6-27.3-3.9-19.2-21.2-28.4-38.1-35 6.6-13.5 12.4-27.4 17.1-41.8 1-.3 1.9-.7 2.8-1.1 2.2-.9 4.2-2.2 5.2-4.4.1-.3-.1-.8-.5-.6-1.8.7-3.6 1.7-5.3 2.7-.4.2-.8.4-1.3.6 8.4-26 16.8-57.3 9.9-84.8.1 0 .2 0 .3-.1 17.8-9.1 33.4-21.5 46.4-36.1 2.4-.4 4.8-1.8 6.5-3 .3-.2.1-.7-.2-.6-1.3.4-2.7.7-4 1.1 17.3-20.1 29.9-44.4 36.5-70.5 5.9-23.4 4.4-46.3-3.2-67.2z"/><path class="st1" d="M473.7 28.6c7.4 5.5 10.8 17.8 8.3 27.7 5.8-5.1 12-9.5 18.6-13.5-1.7-5.5-3.1-12.5-6.2-16.7-4.6-6.2-14.6.2-20.7 2.5z"/><path class="st1" d="M434.3 45.6c-3.1 6.8-2.8 14.4-2 21.9 1.9 8.8 4.1 19.8 14.8 18.5 5.6-.7 10-3.6 14.4-6.4 5.1-7.4 10.9-14.1 17.2-20.1 1.3-6.2 2.2-12.6 0-18.8-2.1-6-5.7-9-10.3-10.5-11.8 2.7-29.3 4.6-34.1 15.4zM790.3 59.7c-11.1 1.3-23.7 1.3-27.8-11.3-6.4-19.5-16.2-2.3-24.7.7-8.2 2.9-15.9 3.5-20.4 8.9-4 4.8-4.3 13.4-.6 18.8 7.2 10.5 25.4 7.1 34 19.1 4.7 6.7 8.7 20.8 20 15.3 7.9-3.8 12.1-2.1 18.7-.6 5.2 1.2 10.6 1.5 10.1-4.8-.5-6.2-2.7-12.1-1.3-18.3 2.3-6.3 7.6-12 5.5-19.3-2-6.5-7-9-13.5-8.5zm-4 13.3c-5.3-.6-8.6-.1-9.8-.1.4.6.7 1.2 1 1.9 1.9 4.4.6 8.9-2.8 11.2 5.2 2 9.9 5.2 10.8 10.1.1.3-.3.5-.5.3-3.4-2.8-6.6-5.4-10.6-7.1-1.4-.6-4.9-1.6-5.2-1.6-6.8-.1-13.7-3.1-18.1-8.3-3.4-4-3.8-7.6-3.8-8.7-.5-.5-1-1.1-1.5-1.6-2.3-2.2-4.8-4.4-7.4-6.2-.3-.2-.2-.7.2-.7 3.3.4 7 2.3 9.7 4.9 1.9-3.1 6.2-4.7 10.7-4.4 6.1.5 12.4 3.5 16.3 8.4 3.6-1.2 8.1-.9 11.2 1.2.2.1.2.6-.2.7zM578.2 297.6c-2.9-3.2-3.7-8.3-4.8-12.3-4-15-18.6-8.6-27.2-3.9-13.2 7.1-32.6-5.7-37.3 15.4-.8 5-1 12-4.5 16-5.5 6.3-17.5 12.1-16.5 21.8 1.9 17.6 22.5 18.6 25.7 34.9 3.7 18.8 16.7 30.8 35 18 1.3-.9 11.4-9.8 14.9-10.5 7.9-1.5 13.3 1 21.2.8 17.4-.6 16.1-16.9 11.5-28.7-4.2-10.9 6.1-15.4 9.7-23.5 8.5-19.5-19.8-19.1-27.7-28zm10.7 20.7c-3.4 1.4-7.1 2.2-10.5 3.6-2.1.8-4.3 1.9-5.7 3.7-.1.2-.3.4-.4.6.4 2.7.1 5.4-.6 8 1 .3 1.8.7 2.4.9 2.3.8 4.9 2 5.7 4.5.1.4-.3.8-.6.6-1.5-.6-2.8-1.6-4.4-2.1-1.4-.4-2.8-.7-4.2-1-1.3 2.7-3.2 5.2-5.9 7.2-.2.1-.4.2-.5.3 1 2.4 1.5 5.2 1.7 7.2.6 4.2.6 9.6-2.3 13-.1.1-.4.1-.4-.1-.6-4.4.6-9-.7-13.4-.5-1.5-1.3-3-2.1-4.5-7.5 3.3-16 1.7-22.2-3.9-2.7 1-5.3 2-7.8 3.7-2.8 2-5.7 4.8-9.2 5.3-.2 0-.3-.3-.2-.4 1.9-3.7 6.6-6.7 10.1-8.8 1.5-.9 3.1-1.8 4.7-2.4l-.1-.1c-8.3-11.4-1.3-23.5 8.9-28.6-1.1-2.4-2.4-4.9-4.1-6.9-1.9-2.2-4.1-4-6.3-5.9-.2-.1 0-.4.2-.3 6.2 1.2 10.1 6.5 12.8 12 .8-.3 1.7-.6 2.5-.8 0-3.3-.9-6.4-1.7-9.5-.1-.3.3-.5.5-.3 2.4 2 3.4 6.1 3.4 9.4 6.7-.9 13.5 1.4 17.9 8.7.9 1.4 1.5 2.9 2 4.3 1.3-1 2.7-1.8 3.8-2.2 4.5-1.9 8.9-2.2 13.7-2.4-.2.1-.2.5-.4.6zM348.2 213c-1.6 1.2-3.2 2.4-4.7 3.8-2.4 2.2-4.6 4.5-6.8 6.9-1.9 5.4-5.6 11.2-3.6 16 2.8 6.9 8.5 10.6 15.2 12.1 2.6.6 3.3.2 2.7-3.5-1.5-10-1.7-19.9-.3-29.1.2-1.4.5-2.7.7-4.1.6-2.7 1.1-5.2-3.2-2.1z"/><path class="st1" d="M443.4 116.6c.4-1.3.8-2.7 1.3-4 3.3-9.4 7.4-18.1 12.2-26.1-5.3 2.2-11 3-15.8 1.4-3.3-1.1-5.9-3.9-7.7-7.3v.3c.6 14.2-10.2 33.4 10 35.7zM333.9 208.2c1.3 2.3 2.3 4.5 2.9 6.9.7 2.5 0 4.9 2.7 2.1.7-.8 1.5-1.5 2.3-2.2 2.8-2.5 7.3-7.1 11.4-7.6 1.2-4.4 2.7-8.7 4.5-13 .6-4.6.7-9-.2-13.9-.6-3.3-1.5-4.3-3.1-1.9-5.2 7.5-15.1 7.6-21.4 14.2-6.2 6.5-2.7 9.3.9 15.4zM356.7 167.5c.2 1 1.6 6.5 2.2 8.4 1.1 3.6 1.9 7.5 2.2 11.2 3.6-7.2 8-14 13-20.2 1.7-2.1 2.8-3.7.1-6.1-4.6-4.2-11.7-6.7-17.2-2.8-3.1 2.3-.9 6.6-.3 9.5z"/><path class="st2" d="M649.3 594.9c14 30.4 24.5 62.4 39.5 92.3 11-33.4 15.5-69.1 26-102.7-9 2.1-17.8 3.8-26.1 5.2-13 2.1-26.2 3.8-39.4 5.2zM637.1 596c-22.5 1.8-45.1 2.3-67.7 1.2-10.1-.5-20.2-1.1-30.3-2 12.6 36.5 28.7 72 44.3 107.3 17.9-35.6 35.9-71 53.7-106.5zM528.9 594.2c-20.9-2.2-41.6-5.5-61.7-10.9-2.7-.7-5.3-1.5-8-2.2 9.7 36 23.2 71.6 36.3 106.5 10.2-31.5 24.6-61.6 33.4-93.4zM773 558.2c-12.8 11.1-29.5 18.3-46.7 23.3 10.7 24.3 17.6 50.9 25.2 76.5 14.5-32 25-66.4 21.5-99.8zM429.7 654c3.9-26.1 11.5-50.7 19.4-76.1-14.2-4.8-28.1-11.2-38.6-21.5-3.8 32.5 5.5 66.2 19.2 97.6zM734.8 456.7c-1.5 2.9-3 5.8-4.5 8.6 17.4 7.5 41.3 25.8 14.8 40.4-18 9.9-39 13.2-59.2 15.8-27.4 3.5-55 5.6-82.6 5.9-49.3.5-127.3-3.5-158.4-18.3-24.3-11.5-21.7-28.8-.4-40.1-2.2-2.6-4.3-5.3-6.4-8-17.5 9.5-34.9 30.6-14.6 47 12.9 10.4 29.9 15.1 45.9 18.1 42.4 8 86.2 10.6 129.3 10 43.2-.6 90.4-1.1 132-14.1 12.5-3.9 30.5-9.6 36.2-23 9.6-22.4-14.6-35.5-32.1-42.3z"/><path class="st3" d="M721.4 589.4c-10.1 33.6-14.6 69.1-25.9 102.3 18.2-6.1 35.4-14.3 50.7-25-7.9-25.5-14.5-52.5-24.8-77.3zM684.4 695.2c-16-30.5-26.6-63.4-40.9-94.7-17.9 35.6-35.9 71.1-53.8 106.7h.4c30.4.2 63.4-3.2 94.3-12zM449.7 475c-10.3 5.2-23.5 15.2-7.8 24 13.7 7.6 29.5 11 44.9 13.3 2.3.4 4.7.7 7 1-8.7-5.9-17-12.3-24.9-19.3-2.4 1-5.4 1-7.4-.4-.3-.2-.2-.7.2-.7 1.6-.1 3.4-.5 5.2-.7-6-5.4-11.8-11.1-17.2-17.2zM534 603.9c-9.7 31.8-24.2 62-33.7 93.8 25.3 6.4 52.3 8.5 76.7 9.2-14.9-34-30.5-68-43-103zM717.1 487.9c-4.9 7.9-10.1 15.8-15.4 23.5.6-.1 1.2-.2 1.7-.3 13.1-2.6 32.2-5.1 42.1-15.1 11.7-11.9-9.8-20.4-19.1-23.9-2.4 4.3-5 8.6-7.5 12.8 1.4-.5 2.8-.9 4.2-.7.2 0 .4.4.2.6-1.3 1.9-3.8 2.9-6.2 3.1zM453.5 589.6c-7.7 24.9-14.7 49.2-17.5 75.5 14.8 14 33.6 23.4 54 29.7-13-34.5-26.5-69.7-36.5-105.2z"/><path class="st4" d="M690.3 537.7c-30.3 4.2-61 6-91.6 6.2-32.8.1-65.7-1.1-98.2-5.2-22.9-2.9-48-5.4-68.8-16.3-3.3-1.7-6.3-3.6-8.9-5.6-5.1 9.8-8.6 19.8-10.7 30 16.2 20.5 47.9 27.7 72.2 32.6 29.7 6 60.1 9.3 90.4 10.3 37.3 1.2 75.3-.6 112.1-7.5 28.5-5.3 63.8-11.8 85-33.3-2-10.8-5.6-21.4-11-31.8-20.6 13.8-46.5 17.4-70.5 20.6zM519.2 768.8c23.9 9.1 49.6 13 75.2 12.2 26.4-.7 55.2-4.2 79-16.6 25.1-13 41.5-36.6 54.9-60.9 4.4-7.9 8.8-16.1 13.1-24.5-23.2 14.3-50.2 23.7-78 29.3-44.4 8.9-100.8 7.3-138.6 1.7-29.7-4.4-59.1-12.9-82.4-29.7 4.2 8 8.4 15.7 12.7 23.2 15.4 27.1 33.8 53.8 64.1 65.3z"/><path class="st5" d="M424.9 322.6c-.9 1.1-1.6 2.1-2.4 3.2-3.7 15.7.9 33 6 47.9 6.1 17.7 13.6 34.9 23 51.1 21.1 36 48.8 68.4 82.7 93 12.7 1 25.3 1.7 38 2-59.7-55.7-120.4-127.4-133.2-210.2-5.3 3.7-10.1 8.1-14.1 13zM460.2 298.7c10.2 4.2 19.4 10.1 28 17 5.2-6.2 10.9-9.6 13-19.3-13.2-3.3-27.6-2.2-41 2.3zM805.5 96.3c.8 6 3.2 11.9-.1 17.7-.3.5-.6.9-.9 1.3 16.9 30.9 18.2 69.5 11.2 103.4-7.1 34.3-23.9 68.7-54.3 87.8 1 2.1 1.9 4.2 2.7 6.4 78.8-41.6 116.9-154 41.4-216.6zM607.5 302.8c3.8 3.1 6.5 6.6 7 11.9.7 7 .3 12.8-4.6 18.3-10.9 12.3 1.3 23.3-1.5 35.7-2.5 11.1-9 14.4-16.9 15.3 4 9.2 7.5 18.4 10.5 27.7 9.6-41.4 24.1-84.5 52-117.1 8.1-9.5 19.3-20.7 31.8-26.4-28.6-1.2-59 10.4-78.3 34.6zM762.1 120.3c.8 50.4-23.3 103.1-52.8 143.3 10.9 3 21.2 8.1 30.1 15.3 19.5-21.4 32.7-49.9 39.8-77.8 7-27.6 9.3-57.6-1.8-84.4-5.5 1.1-9.6 4.7-15.3 3.6z"/><path class="st5" d="M812.5 214.9c5.7-32.2 4.8-67.8-11-97.1-5.7 2.8-14-.1-19.9-1.2 10.3 26.2 9 55.6 2.1 82.6-7.5 29.5-20.6 59.4-41.3 82.1 3.7 3.3 7.2 7.1 10.4 11.2 1.4-1.5 3.1-2.9 4.9-3.4.3-.1.6.2.5.5-.6 1.9-2.5 3.2-4.4 4 .6.8 1.1 1.6 1.6 2.4.1.1.2.3.3.5 1.4 2 2.7 4.2 3.9 6.4 30-18.8 46.8-53.9 52.9-88zM621.1 519.4c34.2-33.2 58.1-78.1 76.9-121.4 9.6-22.1 18.3-44.9 24.3-68.3 4-15.3 8.2-32.1 6.1-48.1-3.6-2.4-7.4-4.4-11.4-6.1-18 7.6-30.4 27.9-39.6 43.9-11.1 19.3-20.3 39.6-28.6 60.2-16.5 41-23.8 84.1-33 127.2-.3 4.4-1 8.7-1.9 12.9 2.5-.2 4.9-.3 7.2-.3zM368.7 188c-1.2 2.3-2.4 4.7-3.4 7.1 17.3 22.3 39.2 42.7 63.2 57.7 11.7 7.3 24.1 13.3 36.9 18.5 4.1 1.6 10.3 3.1 15.5 5.1-5.9-8.2-11.5-16.9-16.6-26-2-.6-3.9-1.5-5.8-2.3-.4-.2-.1-.8.3-.7 1.5.3 3 .7 4.4 1.2-2.7-5-5.3-10.1-7.7-15.2-1.9 0-3.9-.3-5.4-1.6-.3-.2-.1-.7.2-.8 1.2-.4 2.5-.6 3.8-.6-1.7-3.9-3.3-7.8-4.8-11.7-22.7-18.9-51.8-25.6-80.6-30.7zM684.9 84.5c3.4 7.9 6.1 16.1 8 24.5 5.4-9 12.5-17.1 21.2-23-4.2-4.4-6.5-8.8-7.5-14.1-8.2 2.7-15.6 6.6-21.7 12.6z"/><path class="st5" d="M731.6 398.1c11.4-28.6 20.4-59.6 20.6-90.7-4.9-9.4-11.6-17-19.6-23.1 1.1 14.8-2.3 30.1-5.9 44.2-5.9 22.7-13.9 44.9-23.2 66.5-18.9 44.1-42.5 89.7-76.7 124.1 9.4-.3 18.8-.9 28.2-1.6 32.3-34.7 59.1-75.2 76.6-119.4zM655.7 298.7c-27.9 34.1-42 77.9-51.3 120.4 1.8 6 3.3 12 4.7 18.1.5-1 1.1-1.9 1.5-2.9.2-.4.7-.2.7.2.1 2.1-.4 4.3-1.6 6 1.2 5.8 2.2 11.6 3 17.6 1.2 9.5 2.5 19.4 3.1 29.4 4.1-20.2 8-40.4 13-60.4C634 407.1 641 388 649 369c8.9-21.2 18.7-42.5 31.4-61.8 8.2-12.5 18.2-26.5 31.9-33.7-5.5-2-11.3-3.4-17.2-4.2-15.7 3.4-30.1 18.1-39.4 29.4zM577.9 519.8c4.8.1 9.5.1 14.3.1-6.1-43.5-22.3-85.2-43.2-123.6-12.5 6.5-27.2 6.7-37.2-5.5-9.3-11.4-1.9-20.4-16.8-31.9-7.1-5.5-11.6-10.5-14.2-19.2-2-6.7.6-13.3 3.9-19 .4-.7.8-1.3 1.2-1.9-9.5-7.5-19.6-14-31.1-18-4.3 1.8-8.4 3.9-12.3 6.4 5.8 40.1 24.2 77.6 46.7 111 25.2 37.4 55.6 71 88.7 101.6z"/><path class="st5" d="M596.7 519.9c3.1 0 6.3-.1 9.4-.1 5-20.7 1.7-45.1-1.7-65.7-3.9-24.4-10.8-46.3-20.7-68.9-.1-.2-.1-.4-.1-.5-9 .1-18.5-.2-25.5 5.7-1.8 1.5-3.7 2.9-5.7 4.1 21.3 39 37.6 81.3 43.7 125.5.2-.1.4-.1.6-.1zM760.8 339.5c-.5-8.8-2.3-16.7-4.9-23.8-1.5 29.5-10.4 59.1-21.5 86.1-17.7 42.5-42.8 81.4-73.8 115.4 10.3-.9 20.5-2.1 30.6-3.8.1-.1.1-.3.2-.4 19.2-27.4 37.7-56 49.7-87.5 10.2-26.6 21.3-57.2 19.7-86zM557.3 50.5c-4 9.2-7 18.9-9.6 28.6-6.3 24.1-9.9 48.6-11 73.4-1.7 38.2 1.5 78.6 9.6 116.2.6 2.8 1.4 3.1 3.5 1.9 6.8-3.9 14.6-5.5 20.6-2.9 2.2.9 3.2-.2 4.7-3.7 15.2-35.6 19.1-74.7 22.6-113 3.5-39.5 4.7-79.5-2.9-118.7-8-1.1-16.1-1.5-24.2-1.2-6.4 4.2-10.4 12.8-13.3 19.4zM361.5 205.3c2.2 19.7 12.7 38.2 23.7 54.2 12.7 18.5 28.9 33.7 47.7 45.8 16.1-12.3 35.9-19.6 55.8-18.6-.8-.9-1.5-1.9-2.3-2.9-.4 0-.8-.2-1.1-.5-3.6-3.6-13.2-5.2-18-7.1-5.1-2-10.1-4.1-15.1-6.3-12-5.5-23.5-11.7-34.2-19.5-20.3-14.8-38.9-31.6-54.5-51.2-.6 2-1.3 4-2 6.1z"/><path class="st5" d="M524.7 40.3c-5.7 5-10.5 11.8-14.2 17.2-6 8.6-10.5 17.9-13.7 27.9-7.1 22.4-10 46.3-9.4 69.8.6 23.6 4.3 47 10.4 69.7 4.8 17.7 8.5 37.7 19.4 52.9 7.9-1.4 17.5.1 26.5-3.8-5.2-22.7-7.6-46.2-9.3-69.4-1.8-22.9-2.4-45.4-.4-68.3 2.1-23.7 6.3-47.4 13.5-70.1 3.3-10.2 7.7-25.8 16.5-34.7-1.6.1-3.1.2-4.7.4-12 1.5-23.7 4.3-34.6 8.4z"/><path class="st5" d="M450.4 120.2c-14.9 58.9 9 118.8 46.3 164.3.8.9 3.8 4.1 6.5 4.5 2.4-5.7 5.8-8.6 9.9-10.1-12.3-17.7-17-42.6-21.7-63.1-5.6-24.6-9-49.8-7.9-75.1 1.1-23.2 4.3-47.4 14.1-68.7 4.5-9.6 10.2-17.8 16.9-26 .7-.9 1.4-1.7 2.1-2.6-31.7 14.2-56.9 40.2-66.2 76.8zM411.7 329.4c4.3-7.8 10.3-15 18.2-21.6-18.8-12.3-35.3-27.7-47.9-46.4-9.6-14.3-18.8-30.1-22.7-47.1-1.2 5.8-1.8 11.7-1.7 17.3.6 35.7 21.4 80.4 54.1 97.8zM375 177.7c-1.5 2.2-3 4.5-4.4 6.8 27.1 4.8 54.2 11.2 76.5 27.4-5.6-16.6-9.1-33.7-9.6-50.8-17.9-8.7-48.7 2.1-62.5 16.6z"/><path class="st5" d="M385.2 165.4c6-3.3 12.5-5.8 18.6-7.5 10.6-3 23.1-5.3 33.6-1.1 0-3.7.1-7.3.4-10.9-20.2-3.2-38.6 5.4-52.6 19.5zM742.6 98.9c-7.4-6.2-17.7-5-25.4-10.2-9.9 6.4-17.6 15.7-23 26.1 1.2 6.4 2 12.8 2.5 19.4 1-1.3 2.2-2.5 3.6-3.6.2-.2.7 0 .6.3-.7 2.5-2.2 4.3-4 5.9.9 15.2-.1 30.7-2.7 46 11.7-30.6 24.1-61.3 48.4-83.9zM416.6 401.6c14.4 50.1 51.1 87.6 94.9 114 5.2.6 10.3 1.1 15.5 1.6-32.8-24.9-60.6-57.4-80.5-93.3-9.5-17.2-17.8-35.6-23.5-54.5-3.3-11.2-6.2-23.3-5.6-35.1-10.3 20.7-7.3 44.7-.8 67.3z"/><path class="st5" d="M685.4 218.4c.2-.1.3-.1.5-.2 1.8-.8 3.5-1.6 5.3-2.1.4-.1.6.3.5.6-1 1.9-2.6 2.8-4.5 3.7-.9.4-1.9.8-2.8 1.2-4.7 14-10.5 27.4-17.1 39.9 12.8-2 25.8-1.7 38.1 1.2 29.7-40.1 54.2-93 52.9-143.6-6.1-3.2-8.8-11.4-12.4-16.6-.2-.3-.4-.5-.6-.8-29.7 27.7-41.3 67.8-56.3 104.6-1.1 4.1-2.3 8.1-3.6 12.1zM598.9 32.9c7.5 40 6.3 81.2 2.4 121.6-3.7 38.3-7.7 76.8-23.1 112.3-1.2 2.8-1.8 4.9-.1 8.1.7 1.4 1.3 2.9 1.8 4.7 2.2 8.3 5.4 16.8 15.1 18.8 1.6.3 3.6.6 5.5 1.1 4-5.2 8.6-9.9 13.6-14.1 5.9-8.5 8.8-18.6 12-28.4 3.7-11.2 7.3-22.5 10.2-33.9 5.5-21.5 8.5-43.5 10.7-65.5 3.9-38.1 5.5-80.6-15.1-114.5-10.4-4.9-21.6-8.2-33-10.2z"/><path class="st5" d="M638.2 46.5c18.7 35.2 16.4 78.5 12 116.9-2.8 24.1-6.3 47.9-13.1 71.2-4.1 14.1-7.8 30.6-14.8 44.4 7.3-5 15.2-9.1 23.6-12.1-.1-2.3.7-4.6 1.3-6.8.1-.4.6-.4.8 0 .5 1.8.8 3.8.7 5.8l5.7-1.8c2.8-.8 4-2.3 5.8-5.8 26.3-49.6 45.3-126.8 14.4-177.5-9.2-14.8-21.8-26.2-36.4-34.3z"/><path class="st6" d="M505.6 448.6c-32.7-41.4-58.7-88.1-66.6-139-1.1.8-2.2 1.6-3.2 2.4 2.1 12.1 7.7 40.4 18.3 59.7 13 23.7 32.1 58.2 51.5 76.9zM764.1 163.3c3.6-15.4 3.6-33.7 3.2-43.1-1.6.4-3.3.6-5.2.2.6 36.7-12 74.6-30.3 108.1 11.3-11.2 27.3-43.9 32.3-65.2zM759.2 327.7c-.9-4.2-2-8.3-3.4-12.1-1.5 29.5-10.4 59.1-21.5 86.1-4.7 11.3-9.9 22.3-15.6 33 13-17 28.1-52.1 31.5-61.7 2.9-8.3 7.1-32.8 9-45.3zM655.7 298.7c-15.7 19.2-27.1 41.5-35.6 65 8.2-15.7 22.2-41.7 30.3-51.3 11.9-14.1 24.3-28.9 35.3-34.5 5.5-2.8 10.1-5.7 13.3-7.9-1.3-.2-2.6-.5-4-.7-15.6 3.4-30 18.1-39.3 29.4zM466.2 296.9c8.1.6 22 2 33.1 4.9.7-1.6 1.4-3.4 1.8-5.5-11.1-2.7-23.2-2.3-34.9.6zM607.5 302.8c.4.3.8.7 1.2 1.1 7.2-6.5 24.6-21.3 37-24.9 15.5-4.5 22.8-9 39.3-10.7-28.4-1.1-58.4 10.5-77.5 34.5zM483.8 322.3c.3-.6.6-1.1.9-1.6.4-.7.8-1.3 1.2-1.9-9.5-7.5-19.6-14-31.1-18-1 .4-1.9.8-2.9 1.3 3.5 1.9 14 7.7 21.1 12.7 4.5 3.1 8 5.5 10.8 7.5zM783.7 199.3c-.5 1.8-1 3.7-1.5 5.5 7.9-19.7 11.6-42.1 10.3-60.5-.7-10.2-2.6-19.5-4.4-26.2-2.4-.5-4.6-1.1-6.6-1.4 10.3 26.1 9.1 55.6 2.2 82.6zM719.6 90.1c-.8-.4-1.7-.9-2.4-1.4-3.6 2.3-6.9 5-9.9 8 4-2.6 8.8-5 12.3-6.6zM423.1 145.6c-14.2 1.7-27.1 9-37.5 19.5v.2c2.2-1.2 4.5-2.3 6.8-3.3 7.6-4.8 20-12.1 30.7-16.4zM683.2 323.3c5.1-9.7 12.2-19.9 19.2-28 5.6-6.4 12.5-14 17.6-18.6-1-.5-2-.9-3-1.4-18 7.6-30.4 27.9-39.6 43.9-11.1 19.3-20.3 39.6-28.6 60.2-5.2 12.9-9.5 26.1-13.2 39.4 8.7-19 22.6-49 26.2-55.7 5.3-9.9 16.3-30.1 21.4-39.8zM732.6 284.3c1.1 14.8-2.3 30.1-5.9 44.2-5.9 22.7-13.9 44.9-23.2 66.5-5.1 11.9-10.6 24-16.5 35.9 7.2-12.8 23.4-41.6 28.1-51 6.1-12.2 18.5-48.6 20.9-63 1.6-9.5 2-21.1 2.2-28-1.8-1.6-3.7-3.1-5.6-4.6zM464 451.7c-6.4-9-12.2-18.3-17.5-27.9-9.5-17.2-17.8-35.6-23.5-54.5-3.3-11.2-6.2-23.3-5.6-35.1-1.5 3-2.7 6.1-3.7 9.2.9 10.5 3.2 28.1 9.5 43.8 7.9 20 25 47.1 40.8 64.5zM366.4 249.7c5.9 11.3 21.7 23.7 29.6 29.5-5.1-5.6-9.8-11.5-14-17.8-9.6-14.3-18.8-30.1-22.7-47.1-.8 4.1-1.4 8.2-1.6 12.2 2.1 7.5 5 16.2 8.7 23.2zM650.2 163.4c-1.1 9.7-2.4 19.4-3.9 28.9 7-30.3 12.9-70.5 10.9-94-1.7-19.8-8.9-38.6-13.2-48.4-1.9-1.2-3.8-2.4-5.7-3.4 18.6 35.2 16.3 78.5 11.9 116.9zM691.2 79.4c5.2-1.4 11.6-2.9 16.5-3.5-.4-1.3-.8-2.6-1.1-4-5.6 1.8-10.7 4.2-15.4 7.5zM805.5 96.3c.3 2.3.9 4.6 1.2 7 6.1 5.9 20.2 20.7 26.7 37.4 3.5 9 8.6 26.8 12.9 45.8 1.1-32.9-10.9-65.5-40.8-90.2zM533.6 194.7c-1.2-19.5-1.4-38.8.3-58.3 2.1-23.7 6.3-47.4 13.5-70.1 3.3-10.2 7.7-25.8 16.5-34.7-1.6.1-3.1.2-4.7.4-2.2.3-4.3.6-6.5.9-4.7 10.8-14.7 34.8-20.1 58.6-6.9 30.4-4.6 74.2 1 103.2zM375 177.7c-.2.3-.4.6-.6 1 10-5.7 30.3-16.5 46.6-20.6-16.6.4-35.9 9-46 19.6zM745.8 102.4c-.2-.3-.4-.5-.6-.8-15 14-25.4 31.1-33.9 49.4 12.3-18.7 30-38.6 36.4-45.7-.6-1-1.2-2-1.9-2.9zM382.8 225.6c13 12.5 27.4 22.2 40.5 28.3-1.7-1.2-3.4-2.3-5.1-3.5-20.3-14.8-38.9-31.6-54.5-51.2-.4 1.1-.8 2.2-1.2 3.4 2.7 4.1 8.5 11.7 20.3 23zM601.3 154.5c-2.4 24.5-4.9 49.1-10.4 72.9 4.1-8.2 9-19.5 10.9-29.4 3.4-18 10.2-82.7 9.2-120.2-.6-22.7-2.8-36.2-4.4-43.4-2.5-.6-5.1-1.1-7.7-1.5 7.5 40.1 6.3 81.2 2.4 121.6zM368.7 188c-.7 1.2-1.3 2.5-1.9 3.8 10.5 1.8 36.1 6.2 53.2 9.6-16.2-6.6-33.8-10.3-51.3-13.4zM481.6 102.7c-3.9 29.7-10.2 45.2-2.9 80.7 4.3 21 11.9 40 17.3 52-1.6-6.7-3.1-13.4-4.5-19.6-5.6-24.6-9-49.8-7.9-75.1 1.1-23.2 4.3-47.4 14.1-68.7 4.5-9.6 10.2-17.8 16.9-26 .7-.9 1.4-1.7 2.1-2.6-5.9 2.6-11.5 5.6-16.8 9-6 10.6-15.7 30.2-18.3 50.3z"/><path class="st7" d="M621.1 519.4c33.8-32.8 57.4-76.9 76.1-119.7-20.4 35.3-56.8 89.6-69.8 51.6-4.1 18.3-7.7 36.8-11.7 55.3-.3 4.4-1 8.7-1.9 12.9 2.6 0 5-.1 7.3-.1zM590.5 465.6c-12.8-37.7-29.3-60-6.6-80.1-.1-.1-.1-.2-.2-.4s-.1-.4-.1-.5c-9 .1-18.5-.2-25.5 5.7-1.8 1.5-3.7 2.9-5.7 4.1 21.3 39 37.6 81.3 43.7 125.5h.6c3.1 0 6.3-.1 9.4-.1 2.9-12 3-25.3 1.9-38.4-6.4.9-13.2-3.3-17.5-15.8zM609.1 437.3c.5-1 1.1-1.9 1.5-2.9.2-.4.7-.2.7.2.1 2.1-.4 4.3-1.6 6 1.2 5.8 2.2 11.6 3 17.6 1.2 9.5 2.5 19.4 3.1 29.4 4.1-20.2 8-40.4 13-60.4 2.1-8.4 4.6-16.6 7.4-24.8-9.4 8.9-19.7 12.5-27.7-.8-1.5 5.8-2.8 11.7-4.1 17.5 1.8 6 3.3 12 4.7 18.2zM647.1 495.8c-6.4 8.2-13.1 16-20.4 23.3 9.4-.3 18.8-.9 28.2-1.6 27.8-29.9 51.5-64 68.7-101.1-18.2 30.1-54.2 83.4-76.5 79.4z"/><path class="st7" d="M577.9 519.8c4.8.1 9.5.1 14.3.1-2.2-15.9-5.8-31.6-10.5-47-20.3 20.3-59.8-15.8-84.3-42.7 23.6 32.6 51 62.3 80.5 89.6zM696.6 134.1c1-1.3 2.2-2.5 3.6-3.6.2-.2.7 0 .6.3-.7 2.5-2.2 4.3-4 5.9.9 15.2-.1 30.7-2.7 46 6.6-17.1 13.4-34.3 22.3-50-14 7.8-18.6-13.3-19.4-23.2l-3 5.1c1.3 6.5 2.1 13 2.6 19.5zM578 274.9c.7 1.4 1.3 2.9 1.8 4.7 2.2 8.3 5.4 16.8 15.1 18.8 1.6.3 3.6.6 5.5 1.1 4-5.2 8.6-9.9 13.6-14.1 5.9-8.5 8.8-18.6 12-28.4 3.7-11.2 7.3-22.5 10.2-33.9 2.4-9.6 4.4-19.2 6-28.9-10.1 25.4-37.8 87.1-63 69.9-.4.9-.7 1.8-1.1 2.6-1.2 2.9-1.7 5-.1 8.2zM451.4 424.8c21.1 36 48.8 68.4 82.7 93 12.7 1 25.3 1.7 38 2-9.1-8.5-18.3-17.4-27.3-26.6-28.9 7.5-78.2-51.7-99.6-79.6 2 3.7 4.1 7.5 6.2 11.2zM437.5 156.8c0-3.7.1-7.3.4-10.9-1.5-.2-2.9-.4-4.4-.5-1.2 2.6-4 6.7-9.6 9.1 4.7 0 9.3.6 13.6 2.3zM608.5 368.7c-2.5 11.1-9 14.4-16.9 15.3 4 9.2 7.5 18.4 10.5 27.7 7-30.3 16.7-61.6 32.3-88.9-5.9 6.9-12.8 16.2-15.9 24.6-4.7 12.9-11.2 2.5-12.5-7.5-2.8 9.7 4.7 18.8 2.5 28.8zM739.5 278.9c19-20.8 31.9-48.2 39.1-75.3-24.8 64.2-45.2 41.9-51.3 32.8-5.6 9.5-11.6 18.7-17.9 27.2 10.9 3 21.1 8.1 30.1 15.3zM689 206.3c-1.1 4.1-2.3 8.1-3.6 12.1.2-.1.3-.1.5-.2 1.8-.8 3.5-1.6 5.3-2.1.4-.1.6.3.5.6-1 1.9-2.6 2.8-4.5 3.7-.9.4-1.9.8-2.8 1.2-4.7 14-10.5 27.4-17.1 39.9 12.8-2 25.8-1.7 38.1 1.2 4.1-5.5 8.1-11.3 11.9-17.2-27.5 21.8-21-42.1-17.5-66.8-3.6 9.2-7.1 18.5-10.8 27.6zM688.7 94.3c1.7 4.8 3.1 9.7 4.2 14.7 2-3.3 4.2-6.5 6.6-9.5-4.4.9-8.2-1.9-10.8-5.2zM407.9 193c14 4.3 27.3 10.2 39.3 18.9-5.6-16.6-9.1-33.7-9.6-50.8-1.7-.8-3.5-1.5-5.4-2 .8 5.6 3.2 32.1-24.3 33.9zM463.5 231.8c8.7 18.9 20.1 36.6 33.3 52.6.8.9 3.8 4.1 6.5 4.5 2.4-5.7 5.8-8.6 9.9-10.1-3.2-4.6-5.8-9.6-8.1-14.9-11.2 9.7-29.8-14-41.6-32.1zM492.3 201.1c1.5 8 3.3 16 5.4 23.8 4.8 17.7 8.5 37.7 19.4 52.9 7.9-1.4 17.5.1 26.5-3.8-1.5-6.7-2.8-13.5-3.9-20.3-22 10.9-39.8-30.7-47.4-52.6zM536.5 186.5c.8 27.6 4.1 55.6 9.8 82.1.6 2.8 1.4 3.1 3.5 1.9 6.8-3.9 14.6-5.5 20.6-2.9 2.2.9 3.2-.2 4.7-3.7 1.7-3.9 3.2-7.9 4.6-11.9-27.8 12.3-38.9-32.9-43.2-65.5zM800.4 262.5c-9.2 17.7-22 33.3-39.1 44 1 2.1 1.9 4.2 2.7 6.4 39-20.6 68-58.5 78.3-99.1-13.7 36.3-31.5 46.2-41.9 48.7zM411.7 329.4c4.3-7.8 10.3-15 18.2-21.6-10.3-6.8-19.9-14.5-28.6-23.1 2.2 12.6-12 22.1-29.5.9 9.3 18.6 23 34.8 39.9 43.8zM433 305.3c16.1-12.3 35.9-19.6 55.8-18.6-.8-.9-1.5-1.9-2.3-2.9-.4 0-.8-.2-1.1-.5-3.6-3.6-13.2-5.2-18-7.1-5.1-2-10.1-4.1-15.1-6.3-4.8-2.2-9.4-4.5-14-6.9-3.4 10.2-16.8 26.6-46.9 4.8 11.7 14.8 25.7 27.2 41.6 37.5zM633.3 248.3c-2.9 10.4-6.1 21.2-11 30.8 7.3-5 15.2-9.1 23.6-12.1-.1-2.3.7-4.6 1.3-6.8.1-.4.6-.4.8 0 .5 1.8.8 3.8.7 5.8l5.7-1.8c2.8-.8 4-2.3 5.8-5.8 16.3-30.8 29.8-72.2 30.3-111.3-8.7 33.5-32 112.6-57.2 101.2zM684.7 488c-7.6 10.1-15.6 19.8-24.2 29.1 10.3-.9 20.5-2.1 30.6-3.8.1-.1.1-.3.2-.4 19.2-27.4 37.7-56 49.7-87.5 3.8-9.9 7.7-20.3 11-30.9-13.8 34.4-45.2 103.7-67.3 93.5zM511.5 515.6c5.2.6 10.3 1.1 15.5 1.6-11.5-8.7-22.4-18.4-32.5-28.8-17.1 7.1-52.9-40.1-69.2-63.3 17.8 38.5 49.5 68.3 86.2 90.5z"/><path class="st7" d="M759.1 259c-4.9 8-10.5 15.5-16.7 22.4 3.7 3.3 7.2 7.1 10.4 11.2 1.4-1.5 3.1-2.9 4.9-3.4.3-.1.6.2.5.5-.6 1.9-2.5 3.2-4.4 4 .6.8 1.1 1.6 1.6 2.4.1.1.2.3.3.5 1.4 2 2.7 4.2 3.9 6.4 20.9-13.3 35.4-34.3 44.4-57.3-25.6 47.9-52.6 40.3-44.9 13.3zM399.8 231.5c9.1 7.9 18.7 15.1 28.7 21.3 11.7 7.3 24.1 13.3 36.9 18.5 4.1 1.6 10.3 3.1 15.5 5.1-5.9-8.2-11.5-16.9-16.6-26-2-.6-3.9-1.5-5.8-2.3-.4-.2-.1-.8.3-.7 1.5.3 3 .7 4.4 1.2-2.7-5-5.3-10.1-7.7-15.2-1.9 0-3.9-.3-5.4-1.6-.3-.2-.1-.7.2-.8 1.2-.4 2.5-.6 3.8-.6-1.7-3.9-3.3-7.8-4.8-11.7-4.7-3.9-9.7-7.2-14.8-10.2 5.1 13.4 12.5 44.7-34.7 23z"/><path class="st8" d="M508.9 296.8c-.8 5-1 12-4.5 16-5.5 6.3-17.5 12.1-16.5 21.8 1.9 17.6 22.5 18.6 25.7 34.9 3.7 18.8 16.7 30.8 35 18 1.3-.9 11.4-9.8 14.9-10.5 7.9-1.5 13.3 1 21.2.8 10.4-.3 14.1-6.3 14.4-13.7-9.7 13.6-21.7 4.3-36.1 8-13.6 3.4-36 21-43.8 1.4-2.8-7.1-.6-18.2-5.2-24.4-2.7-3.7-12.3-6.6-16.2-8.8-5.9-3.3-3.4-11.3 2.2-15.9 2.5-2.1 9.7-6.6 14.1-15.4 3-5.8-4.5-11.8 1.8-23.3-3.2 1.9-5.7 5.1-7 11.1zM716.7 76.8c7.2 10.5 25.4 7.1 34 19.1 4.7 6.7 8.7 20.8 20 15.3 7.9-3.8 12.1-2.1 18.7-.6 4.5 1 9.3 1.4 10-2.7-2.9-.8-5.9-1.6-9-2.5-6.1-1.7-12.5 1.4-18.6 2-11 1-12.3-11.4-16.5-18.2-4.5-7.4-14.7-5.8-22.6-8-9.8-2.7-15.5-10.5-16.3-22-3.1 4.9-3.2 12.6.3 17.6zM348.2 213c-1.6 1.2-3.2 2.4-4.7 3.8l-.1.1c.2 4.6 1.7 17.3 6.5 35.1 1.3 0 1.5-1 1.1-3.7-1.5-10-1.7-19.9-.3-29.1.2-1.4.5-2.7.7-4.1.6-2.7 1.1-5.2-3.2-2.1zM361 187.2c3.6-7.2 8-14 13-20.2 1.7-2.1 2.8-3.7.1-6.1-.3-.2-.5-.5-.8-.7-2.5 7.8-8.1 13.7-14.4 16.1 1.1 3.5 1.9 7.3 2.1 10.9zM443.4 116.6c.4-1.3.8-2.7 1.3-4 3.3-9.4 7.4-18.1 12.2-26.1-3.3 1.3-6.7 2.2-9.9 2.2.2 10.4-5.4 22-13.1 23.9 1.8 2 4.8 3.5 9.5 4zM449.8 79.5c-.9 2.1-1.6 4.2-2.4 6.3 5.4-.8 9.6-3.6 13.9-6.3 5.1-7.4 10.9-14.1 17.2-20.1 1.1-4.9 1.8-9.8 1-14.7-5.7 18.2-23.7 20.7-29.7 34.8zM481.9 42c1.2 4.7 1.3 9.7.1 14.3 5.8-5.1 12-9.5 18.6-13.5-.7-2.4-1.4-5-2.2-7.6-4.1 9.1-13.1 6.8-16.5 6.8zM353.2 207.5c1.2-4.4 2.7-8.7 4.5-13 .6-4.6.7-9-.2-13.9-.2-1.1-.5-2-.7-2.5-.5.6-1 1.3-1.5 1.9 1.7 14.3-9.7 22-11.6 33.5 2.7-2.6 6.2-5.6 9.5-6z"/><path class="st9" d="M541.7 336c4.9 5.3 12.8 7.3 18.6 2 4.3-3.9 6.2-9.6 3-14.9-8.4-14.1-30.5-.4-21.6 12.9zM764.9 79.4c2.1.5 7 1.8 5.5-1.7-1.5-3.6-5.7-6-9.3-6.8-5.3-1.3-6.4.6-4.5 3 2.1 2.6 5.1 4.7 8.3 5.5z"/><path class="st10" d="M587.4 726.8c-3.8-1.9-8-1.4-12.1-1.6-5.2-.1-10.3-.4-15.5-.7-10.3-.7-20.6-1.5-30.9-3-9.6-1.4-19.2-3.1-28.7-5.3-5-1.1-10-2.4-15-3.7-4.4-1.1-9.1-2.7-13.7-2.3-.4 0-.6.5-.3.8 6.5 5.9 17.7 7.5 25.9 9.6 10.3 2.7 20.7 4.9 31.1 6.7 9.8 1.7 19.8 3.1 29.7 3.9 5.1.4 10.3.7 15.5.8 4.6.2 9.7.9 14-1.3 1.5-.5 1.5-3.1 0-3.9zM632.2 632.4c10-14.8 10.1-14.3 16.7-2.4 2.3 4.1 11.5 17.5 16.4 23-7.2-17.5-13.9-35.2-21.8-52.4-8.7 17.3-17.4 34.6-26.2 52 1.6-1.5 3-3.2 4.3-4.9 3.8-5 7.1-10.2 10.6-15.3zM608.4 726.4c-3.5.4-7.1.6-10.6 1-1.9.2-2.5 2.9-.5 3.5 4.5 1.3 9.1 1.3 13.8.7 13-1.7 9.6-6.7-2.7-5.2zM540.4 634.4c2.1 4.9 5.4 11.3 15.1 23.3-7.6-17.8-14.9-35.7-21.4-53.9-4.8 15.8-10.8 31.2-16.8 46.7 2.3-3.3 7.9-13.3 9.6-17 4.8-10.3 8.6-10.6 13.5.9zM733 629.4c1.3 2.2 2.7 4.5 4.2 6.6-4.6-15.8-9.5-31.6-15.7-46.6-4.8 16-8.4 32.4-12 48.8 2.5-4.1 4.7-8.4 6.8-12.7 9.4-19.6 7.4-11.5 16.7 3.9zM459.2 621.3c1.6 3.4 6.4 11.2 9.5 15.6-5.5-15.7-10.7-31.5-15.2-47.3-3.6 11.7-7.1 23.2-10 34.9 5.4-9 12.1-10.6 15.7-3.2zM442.9 558.1c7.2 4.7 16.2 7.3 24.3 9.5 11.5 3.1 23.2 5.3 35 7.3 11.7 2 23.5 3.4 35.3 4.5 12.1 1.1 24.9 1.9 36.9-.4 1.5-.3 1.5-2.7 0-3.1-11.1-2.5-22.8-2.9-34.1-3.8-12.1-1-24.2-2.4-36.2-4.2-11-1.6-21.9-3.4-32.7-6-9.5-2.3-17.9-6-26.8-9.7-7.1-3.1-8.6 1.4-1.7 5.9zM594.5 574.1c-3.1.3-6.1.5-9.2.6-7.6.3-7.3 5.3.4 5.3 3.1 0 6.1 0 9.2-.2 7.5-.6 7.3-6.4-.4-5.7z"/><path class="st11" d="M569.4 597.2c-10.1-.5-20.2-1.1-30.3-2l.6 1.8c5.5 3.4 12.2 5.8 18 6.9 9.9 1.9 20.3 1.2 30.3.9 10-.3 20-.9 30-1.6 4-.3 9.4-1.6 13.3-.5.7.2 1.3.5 1.9.9 1.3-2.5 2.6-5.1 3.8-7.6-22.4 1.8-45 2.2-67.6 1.2zM467.1 583.3c-2.7-.7-5.3-1.5-8-2.2.3 1.2.7 2.4 1 3.7 2.1 1.2 4.3 2.1 6.5 2.9 7 2.5 14 4.2 21.4 5.4 7.3 1.2 14.5 1.8 21.9 1.9 6.3.1 9.8 1.8 12.9 7.3.6 1.1 1.5 2.6 2.6 3.7 1.2-3.9 2.4-7.8 3.5-11.7-20.9-2.3-41.7-5.6-61.8-11zM448.5 577.7c-14-4.7-27.6-11.1-38-21.4-.3 2.2-.5 4.4-.6 6.6.6.6 1.1 1.2 1.7 1.8 4.2 4 9 7.3 14.3 9.7 4.6 2 9.6 3.4 12.7 7.6 1.6 2.1 3.3 3.9 4.5 6.3.6 1.2 1.1 2.4 1.5 3.7 1.4-4.4 2.7-8.9 4.1-13.4 0-.3-.1-.6-.2-.9zM688.7 589.6c-13.1 2.2-26.2 3.9-39.4 5.3l3 6.6c3.3.7 7 .6 10.3.6 7 0 14-.7 20.8-2 6-1.2 12.5-4.4 18.7-4 3.5.2 5.7 2.6 8.2 4.4 1.4-5.4 2.9-10.8 4.6-16.1-9 2.2-17.9 3.8-26.2 5.2zM773 558.2c-12.8 11.1-29.5 18.3-46.7 23.3.8 1.8 1.5 3.6 2.3 5.4.1 0 .2.1.3.1 2.6.6 5.3 0 7.8-.7 4.4-1.3 8.5-3.4 12.8-5.1 7.1-2.9 13.9-6.1 21.3-4 .8.2 1.8.6 2.8 1 .2-6.8.1-13.4-.6-20z"/><path class="st12" d="M671.5 648.2c5.4 13.2 10.9 26.3 17.3 39 3.9-11.8 7-23.9 9.8-36.1-8.4 9.4-16 6-27.1-2.9zM598.5 672.6c-13.8 8.8-25.9-3.5-33.4-12 6.1 14 12.3 27.9 18.4 41.8 4.9-9.9 9.9-19.9 15-29.8zM510.8 646c-13.9 8.4-20.2 6.7-31.3-1.7 5.2 14.5 10.6 28.9 16 43.1 4.5-13.9 9.9-27.6 15.3-41.4zM740.8 621.5c3.7 12.1 7.2 24.4 10.8 36.4 6.6-14.6 12.3-29.6 16.3-44.8-4.3 5.7-15.4 18.3-27.1 8.4zM436.2 622.2c-10.9 1.8-18.4-9.8-22.6-16.4 3.6 16.3 9.3 32.5 16.1 48.2 1.6-10.8 3.8-21.4 6.5-31.8z"/><path class="st0" d="M593.6 769.5c-17.7-1.7-35.6-2.6-53-6.4-19-4.1-33.9-13.1-49.9-23.6-.2-.2-.5.2-.3.4 22.8 27.9 69.8 33.6 103.2 30.7.7 0 .7-1 0-1.1zM598.4 769.8c-.2 0-.4.3-.2.5 2.6 2.1 6.8 2.2 9.6.2.3-.2.3-.7-.1-.8-3-1.1-6.2.1-9.3.1z"/></svg>