<svg version="1.1" id="e37c00f5-ff96-45aa-87ea-1a24b78ba7bd" xmlns="http://www.w3.org/2000/svg" x="0" y="0" viewBox="0 0 1176.6 803.7" style="enable-background:new 0 0 1176.6 803.7" xml:space="preserve"><style>.st0{fill:#91deff}.st1{fill:#ff821d}.st2{fill:#ad8353}.st7{fill:#d7bd8c}.st8{fill:#895725}.st9{fill:#73bcd8}.st10{fill:#d1ffff}.st11{fill:#98b718}.st12{fill:#68182b}</style><path class="st0" d="M649.5 587.3c-.7 0-1.1-.3-1-1.1 3.5-26.3 4.9-53.3 6.2-79.5l.3-5.1c0-.9 1-1.1 1.5-.8 2.2 1.5 4.2 2.6 6.3 3.4 4.9 1.8 10.2 2.9 15.7 3.2.9 0 1 .8.9 1.1-3.6 25.5-7.4 51.9-15.4 76.9-.1.4-.4.6-.8.7-4.3.5-8.8.9-13.7 1.2.1 0 .1 0 0 0z"/><path class="st1" d="M421.4 224c-2.1-.9-1.2-2.2-.5-2.9 3.7-3.4 10.5-4.7 15-4.7 4.5-.1 5.3 1.1 1.5 4.5-2 1.8-4.7 2.6-6.8 3.1-2.7.5-7 .9-9.2 0zM761.7 313c-4.1 0-8-2.5-9.5-3.6-1.3-.9-2.8-2.8-3.3-4.1-1.1-2.9.4-4.6 4.3-4.5 2.8.1 6.2 1.2 9 2.6 2.7 1.3 4.8 2.8 5.6 4.8.6 1.6-.2 2.7-1.5 3.5-1.3.9-2.8 1.3-4.6 1.3z"/><path class="st0" d="M563.7 587.3c-5.1-.4-9.8-.8-14.3-1.3-.4 0-.8-.3-.9-.8-8.5-35.7-16-74.9-23.7-123.4-.1-.5.2-.9.6-1.1 6.4-2.3 12.2-5.8 17.1-10.5.7-.7 1.6 0 1.7.6 5.3 49.4 12 93.7 20.4 135.3.3.6-.3 1.2-.9 1.2zm-27.2-233.2c-2.9-51.2-5.3-111.6-.9-171.7 1.7-23.6 4.1-48.7 9.9-72.5 4.6-18.9 11.2-40.3 25.3-54.8.8-.9.1-1.9-.9-1.7-8.3 1.6-16.3 3.9-24.1 7-28.6 19.3-40.8 211.7-36.1 274.7 0 .2.1.3.1.5 1.5 2.4 3.1 4.5 5 6.5 1 1.1 6.7 6.5 14.1 10.3l2 .9c1.3.6 2.7 1.3 4.1 1.9.6.1 1.5-.2 1.5-1.1zm54.6 234.5c.8 0 1.1-.5 1-1.1-5.2-36.8-7.3-74.3-9-109.6-2.2-45.2-3.4-91.2-4.7-135.7-.9-33.9-1.9-69.1-3.2-103.6-1.4-34.6-2.5-71.4-.3-108l.1-2.4c1.5-25 3.1-53.4 15-75.7.4-.7-.1-1.4-.9-1.4-4.4.3-8.8.7-13 1.3-.2 0-.4.1-.5.2-18.4 16-25.7 42.4-30.6 66-4.4 21.6-6.5 43.1-8.4 68.8-4 56.4-1.7 114.3 1.4 168.5 0 .3.2.6.5.8 4.1 2.3 7 4.5 9.1 7.1 18.4 23 17.5 61.1-1.9 83.1-.2.2-.3.5-.2.8 5.4 50.8 12.2 96.3 20.9 139 .1.4.5.8.9.8 7.7.5 15.7.9 23.8 1.1zm18.5 0c3.2 0 6.5-.1 9.8-.2.8 0 1-.4 1-1.1-1.2-14.1-1-28.5-.8-42.5l.1-5.8c.3-23.2.9-48.1 2-80.5 1-28.5 2.5-57.6 4-85.7 2.3-44 4.7-89.6 5.1-134.4.3-33.1-.2-72.1-5.4-111-2-14.6-4.7-31.6-10.2-47.5-3.8-11-8.6-22.2-17.7-29.1-.2-.1-.4-.2-.6-.2H593c-.3 0-.7.2-.8.5-11.9 21.1-13.8 48.5-15.4 70.6-3.5 49.1-1.4 99.3.6 147.9.8 18.5 1.6 37.6 2 56.3l.1 3.4c1.1 45.1 2.3 91.7 4.4 137.5 2.1 45 4.1 82.4 9.6 120.9.1.5.5.8 1 .8 2.8 0 5.7.1 8.5.1 2.3.1 4.4.1 6.6 0zm13.3-.2c8.9-.2 16.3-.5 23.2-.9.5 0 .9-.4.9-.9 3.5-26.1 4.9-52.9 6.2-78.8l.4-8.8c0-.3-.1-.6-.3-.8-6.9-6.4-10.7-16.5-10.8-28.3-.1-14.1 5.3-28.4 13.8-36.5.2-.2.3-.4.3-.7 2.4-62.4 4.9-144.6 3.4-226.5-.1-4.2-.1-8.4-.2-12.7-.6-50.1-1.3-106.9-40.9-141.4-.1-.1-.3-.2-.5-.2-5.3-.7-10.7-1.1-16-1.3-1.2 0-1.2 1.3-.7 1.7 10.9 10.5 15.9 27.3 19.8 43.9 6.8 29.8 8.9 60.6 10 84.2 2.4 54.9-.5 110.7-3.2 164.7-.9 16.5-1.7 33-2.4 49.6-1.4 32.7-3.1 75.7-4.1 118.5-.1 4.5-.2 9.1-.4 13.6-.6 19.9-1.1 40.6.6 60.6 0 .6.4 1 .9 1zm37.5-159c8.8-9 14.5-17.3 17.9-26.2.1-.3.5-1.3.6-1.6 1.1-3.1 1.8-5.7 2.3-8.3 1.3-7.2 1.7-14.6 2.1-21.7.3-5.9.6-12.1 1.5-18.1 1.5-9.9 4.3-18.2 8.5-25.4.1-.1.1-.2.1-.4 1.1-7.3 1.1-14.9 1.1-22.3 0-3.3 0-6.6.1-9.9.4-12.4.5-24.7.5-36.4v-3c-.2-22.8-.3-46.4-2.2-69.5-1.9-23.2-6-46.1-12.6-70l-.1-.5c-4.8-17.2-10.1-36.7-22.7-50.9-7.7-5.1-15.8-8.6-24.8-10.7-2.5-.6-5.2-1.1-8.1-1.6-1-.2-1.5 1-.9 1.7 35.6 34.4 36.6 88.5 37.5 136.2l.2 8.5c1.7 83.5-.8 166.7-3.2 229.9 0 .7.9 1.5 2.2.2zm36.9-106.9c3.2-4.1 7.1-7.7 11.6-10.8.4-.2.5-.7.4-1.1-2.3-7.2-4.8-17.5-.4-25.1 1.9-3.2 4.8-5.6 9.1-7.6.4-.2.6-.5.6-.9-.8-46.8-2.3-88.8-12.8-129-5.8-22.4-16.1-54.5-38.1-74.9-.7-.6-2.1.2-1.5 1.2 7.1 11.8 11.2 25.4 15.1 39.5 7.1 25.8 11.3 47.9 13 69.6 2 24.8 2.4 49.5 2.5 79 0 12.5-.2 25.4-.7 39.6-.1 2.7-.1 5.5-.1 8.2 0 3.8-.1 7.6-.3 11.4-.2 1.1.9 1.7 1.6.9zm-189.7 4.4c-4.9-69.6-4.2-129 2.3-181.6 2.8-23 7.1-57.8 25.8-78.3.8-.8-.5-1.9-1.2-1.5-7.9 4.2-14.8 9.1-20.7 14.6-30.4 28.5-34.6 72.8-34.6 116.5 0 .3.2.6.5.8 8 5.2 14.9 9.7 14.7 21-.1 6.1-4.9 10.8-14.5 14-.9.3-1 .9-.5 1.5 12.1 16.4 14.6 34.6 17.4 53.9 1 7 2 14.3 3.5 21.5 1.5 7.1 3.2 13 5.4 18 .5 1.2 2 .9 1.9-.4zm-1.9.4c.4 1 2 .7 1.9-.5-4.9-69.6-4.2-129 2.3-181.6 1.2-9.5 2.6-20.9 5.1-32.6-16.2 29.1-19.6 67.3-21.5 98.6v.6c.6 1.9.9 4 .9 6.5 0 1.8-.5 3.5-1.4 5.1-.5 13.4-.6 26.9-.3 40.4 1.8 7.8 3 15.8 4.1 24 1 7 2 14.3 3.5 21.5 1.5 7.1 3.3 13 5.4 18zm41.1 257c-8.4-35.3-15.8-74-23.3-121.8-.1-.4-.4-1-1.2-.8l-3.6.9c-3.6.7-7.2 1.2-11.1 1.6-.7.1-1 .7-.9 1.1 6.2 39.6 12.5 78.4 22.1 117.1.1.4.4.7.8.7 5.9 1 11.1 1.8 16.2 2.4.5.1 1.2-.5 1-1.2z"/><path class="st2" d="M601.8 781.8c-23.1 0-79.5-3.9-104.3-40.4-13.9-20.5-12.6-50.3-11.4-76.7.2-5.1.5-10 .6-14.7 0-.3.2-.6.4-.8.2-.1.4-.2.6-.2.1 0 .2 0 .3.1l.7.3c34.2 12.4 74.5 13.4 116.3 13.4 38.6 0 79.4-1.6 116.7-13.4l.7-.2h.3c.2 0 .4.1.6.2.3.2.4.5.4.8.1 5.1.2 10.4.4 15.8.9 24.9 1.8 50.6-9.1 71.9-14.4 28.3-51.4 43.1-110 44-1-.1-2.1-.1-3.2-.1z"/><path d="M602.9 657.9c-29 0-58-2.3-86.4-6.9-15-2.4-27.3-5.3-37.4-10.5-12.6-6.4-19.1-15.3-19.2-26.3-.1-8.6 0-17.4 0-25.9.1-8.7.1-17.7 0-26.6-.3-24.4 34.1-32.5 50.6-36.4.7-.1 1.1.4 1.2.8l1.2 6.4c.1.5-.2 1-.7 1.1-12.4 3.5-33.8 11.2-37.4 22.8-1.3 4.4 0 9 4 13.8 9.3 11.1 28.9 14.3 43.3 16.7l3.7.6c22.9 3.9 47.6 5.9 77.7 6.1h4.3c22.9 0 45.2-1.5 66.4-4.6 1.9-.3 3.9-.5 5.9-.8 16.6-2.2 37.3-5 49.6-16.3 5.3-4.9 7.4-9.7 6.3-14.4-2.7-10.9-23.3-20.1-40.1-24.7-.5-.1-.8-.6-.7-1.1l1.2-6.3c.2-.9.7-.9 1.2-.8 16.9 3.7 45.2 9.9 52.2 30.5 3.4 10 2.4 23.6 1.6 35.6-.4 5.2-.7 10.2-.7 14.6v1.8c0 7.2.1 14-4 20.7-6.9 11.4-23.2 15.9-35.1 19.2l-.7.2c-31.1 8.6-64.6 9.8-99 10.4-3 .2-6 .3-9 .3z" style="fill:#a5603f"/><path class="st2" d="M522.1 581.8c-4.1-.8-8.1-1.6-12-2.5-9.4-2.2-25.8-7-29.7-15.3-1.3-2.6-1.2-5.4.1-8.2 5-10.5 21.6-14.6 32.6-17.4.7-.2 1.1.4 1.2.8 2.8 14.3 5.8 28.2 9 41.4.1.9-.7 1.3-1.2 1.2zm162 1.4c7.9-1.5 14.9-3.2 21.6-5.3 10.8-3.4 24-9 25.5-16.6.6-3.1-.7-6.1-4.1-9.1-9-7.8-20.3-11.3-32.1-14.4-.6-.1-1.1 0-1.2.8-2.7 13.9-5.9 28.8-10.9 43.3-.1.3 0 .7.2 1 .2.2.5.3.7.3h.3z"/><path class="st0" d="M665.9 584.5c7.7-24.6 11.5-50.7 15.1-76 .1-.5.5-.9 1-.9 3.8 0 7.8-.5 11.7-1.2.8-.2 1.2.8 1.2 1.2-1.3 6.5-2.6 13-3.8 19.6-3.6 19-7.3 38.6-14 56.8-.1.3-.4.6-.8.6-3.1.5-6.2.9-9.3 1.2-.5 0-1.5-.1-1.1-1.3zM680.3 502c-2.8 0-5.5-.2-8.2-.5-.5-.1-.9-.5-.9-1-.1-23.4 14.3-43.2 28.2-62.4 3.5-4.8 6.8-9.3 9.8-13.9 16.8-25.1 30-50.9 39.3-76.7.2-.6.9-.8 1.4-.6l1.5.7c4.1 2 8 4 12.5 4 1.5 0 2.9-.2 4.5-.6.6-.2 1.3.5 1.2 1-2.2 26.7-10.4 54.2-25.8 86.5-14.3 30-29.6 49.6-48.1 61.6-.1.1-.2.1-.3.1-5.1 1.2-10.2 1.8-15.1 1.8zm-169.8-42.5h.2c3.9-.7 7.5-1.7 11-2.9 12-4.1 20.9-11.4 26.7-21.7.5-.8-.4-1.8-1.3-1.4-4.2 1.9-9.2 2.9-14.9 2.9-10.4 0-19.7-3.2-24.4-5.1-17.7-7.3-33.3-19.4-46.4-35.9-14.8-18.7-22-42.2-27.1-62.8-5.9-23.9-8.6-49.8-8.2-79 0-.5-.3-.9-.8-1l-2.5-.5c-3.9-.8-7.9-1.6-12.1-1.8-.5 0-.9.1-1 .8-10.1 43.9-7.2 86.8 8.7 127.5 7.7 19.7 19.2 44.4 39.5 60.2 16.5 12.8 36.1 20.5 52.6 20.7-.1 0 0 0 0 0zm43.1-62.6c.5-.1.9-.6.8-1.1-.4-3-.9-5.7-1.5-8.2-2.6-10.5-6.4-21.1-17.5-26.8-1.9-1-3.8-1.9-5.8-2.9-5-2.4-9.8-4.7-14.2-8-13.3-9.7-18.5-29.4-20.6-44.2-.5-3.8-1-7.6-1.4-11.4-2.5-20.7-5.1-42.2-19.3-59.7-.2-.3-.7-.4-1-.3-6.8 1.9-11.5 5.5-16.6 9.6-.2.2-.3.4-.4.7-2.7 38.6 3.8 74.2 18.7 102.8 16.4 31.6 41.7 50.5 67.8 50.5 3.5.1 7.2-.3 11-1zm-2.8 32.6c.1-.1.2-.3.3-.4 3.5-8.7 4.7-19 3.6-29.9-.1-.5-.5-1-1.2-.9-3.6.7-7.3 1-10.9 1-25.2 0-50.2-16.5-65.3-43.2-17.5-31-25.6-68.4-23.3-108.4 0-.7-1.1-1.3-1.6-.8-5.3 4.1-10.3 6.9-17.4 6.9-2.5 0-5.5-.5-6.5-.6-.6-.1-1.1.3-1.1 1-.4 28.2 1.7 51 6.6 71.9 4.9 20.5 11.1 43.9 24 62.5 12.1 17.5 27.4 30.9 44.1 38.8 6.2 2.9 18.3 7.8 30.3 7.8 7.5-.2 13.7-2 18.4-5.7zm172.1-221.3c8.7-16.7 15-36.6 19.9-62.8l.8-4.1c2.8-15 6-32 3.6-47.2-.1-.4-.4-.8-.8-.8-2.1-.3-4.2-.4-6.4-.4h-1.9c-.3 0-.6.2-.8.4-11.9 16.3-19.3 34.7-25.5 52.3-.1.2-.1.4 0 .6 4.4 17.9 7.5 38 9.3 61.6 0 .9 1.3 1.4 1.8.4zm-54.2 292.7c.6 0 1-.3 1-1 .1-22.2 13.3-40.8 26.1-58.8 2.4-3.3 4.7-6.6 7-9.9 20.5-30.1 34.6-56.9 44.5-84.4.2-.5-.1-1-.5-1.2-2.9-1.3-6.9-2.7-12.1-2.8-5.1-.1-10-2.4-13.9-6.6-.5-.5-1.3-.4-1.6.3-5.2 11.8-8.2 24.8-11.1 37.4-4.2 17.8-8.5 36.2-18.8 51.3-4 5.8-9.4 11.4-14.6 16.8-12.6 13.1-25.7 26.6-22.2 46.5 3.5 6.7 8.5 10.8 14.9 12.2.3.1.6.1.8.2-.1-.1.4 0 .5 0zm-18.1-23.6c1.9-13.8 11.6-23.9 21.8-34.7 3.6-3.8 7.3-7.7 10.6-11.7 13.6-16.6 18.7-37.7 23.6-58 3.2-13.1 6.4-26.6 11.9-38.7.1-.3.1-.7-.1-1-1.2-1.8-2.2-3.8-3-5.9-.7-1.9-1.5-4-2.3-6.2l-1.5-3.9c-.2-.6-1.1-.7-1.5-.4-18.5 13.7-20.1 34.6-21.5 54.9-1.1 15.7-2.3 31.9-11.2 45.1-3.1 4.6-7.4 9-11.5 13.2-7.3 7.5-14.8 15.2-17.1 25.2-1.5 6.6-1.6 14.9-.2 22.1.2 1.1 1.8 1.1 2 0zm84.3-204.6 1.4-.5c4.5-1.4 8.7-2.8 13.2-2.8.8 0 1.6 0 2.4.1 1.3.2 2.6.6 4.2 1.3.3.2 1.1.1 1.3-.5 19.2-48.5 27.9-87.8 26.6-120.1-1-24.9-7.4-41.8-19.2-50.2-.5-.4-1.7 0-1.5 1 13.2 67.7-13.1 135.7-29.9 170.3-.4 1.2.7 1.8 1.5 1.4zm-10.1 2.8c1.7-.5 3.4-.9 5-1.3.5-.2.8-.1 1-.6 30.3-60.8 41.4-124.6 30.5-175.2-.1-.5-.5-.7-1.5-1.2-3-1.4-6.4-2.4-9.9-3.2-.8-.2-1.3.6-1.2 1.1 2.2 15.8-1.2 33.4-4.2 49l-.4 1.9c-3.8 19.9-9.8 45.7-22.6 67.8-.1.2-.1.4-.1.6 1.4 20.7 1.7 40.6 2 58.1v2.2c.1.7.9 1 1.4.8zM712 140.4c4.8-13.2 11.7-30.3 22.2-45.5.5-.7-.2-1.6-.9-1.5-12.6 1.6-24.7 7.7-33.3 16.7-.3.3-.3.7-.2 1.1 3.9 8.7 7.4 18.6 10.3 29.2.3.9 1.6.9 1.9 0zM494.2 460.7c1 0 1.3-1.7.2-1.9-11.7-3-24-8.9-34.4-16.6-16.9-12.5-30.4-31.8-41.3-59-17.2-42.8-20.7-87.1-10.6-131.8.1-.5-.5-1.2-1.2-1.2h-1c-.9 0-1.7.1-2.5.1-2 0-3.8-.1-5.4-.4-.3 0-.9.3-1.2.8-28.4 43.2-16 105.4 8.9 147.9 16.9 29 49.2 60.6 88.5 62.1zm211 36.8c24.4-8.5 46.9-28.1 57.4-49.9 16.1-33.6 22.1-70.1 16.4-100.1-.1-.6-.8-1-1.4-.7l-3.3 1.8c-.8.4-1.6.8-2.3 1.1-.3.1-.6.5-.6.8-2.1 28.6-11.1 58.5-27.5 91.5-12.3 24.8-24.9 41.8-39.5 53.7-1.3 1.1-.3 2.2.8 1.8z"/><path d="M799.6 311.3c-4-3.7-10.6-5.8-18.1-5.8-2.8 0-5.6.3-8.1.9-.3.1-.9 0-1.1-.6-1-2.2-3.1-4.2-6.2-6-.4-.2-.6-.7-.5-1.1 1.6-6.9 9.7-12.2 16.7-15 .4-.1.4-.2.8 0 4.7 2.5 7.6 6.6 11.3 13.4 2.3 4.2 4.6 8.5 6.7 12.8.6 1.5-.4 2.4-1.5 1.4zm-36.9 33.8c5.7-.6 11-3.6 16.1-6.4 1-.6 2-1.1 3-1.7.3-.2.5-.5.5-.8.5-8-4.1-15.7-12.3-20.4-.3-.2-.7-.2-1 0-2 1.2-4.2 1.9-6.6 2.1-.7 0-1.1.8-.9 1.3 2.6 7.9 2.6 16.7.1 24.7-.3.9.3 1.3.9 1.3.1-.1.2-.1.2-.1zm-276-125.3c2-8.8-11.1-19-15.1-21.9-3.5-2.7-7.1-4.3-11-4.9-.4-.1-.9 0-1.1.7-1 3.3-3.4 6.1-5.9 8.8-.8.9-1.5 1.8-2.3 2.6-2.3 2.8-4.7 5.6-7.6 7.7-.4.3-.5.9-.2 1.3.4.6.7 1.3.8 2.1.1.3.2.5.5.7.1.1.3.1.5.1.1 0 .2 0 .3-.1 4.9-1.8 11-2.8 17-2.8 9 0 17 2.1 22.4 6 .6.6 1.5.4 1.7-.3zM448 244c3-2 5.9-4.5 9.2-7.3 4.7-4 9.1-6.1 15.6-7.6 5.7-1.3 9.8-3.2 12-5.8.5-.5.5-1-.2-1.4-5.3-3.9-13.2-6.1-22.2-6.1-6.4 0-12.9 1.2-17.6 3.2-.3.1-.5.3-.6.6-.5 1.8-1.8 3.4-3.7 4.9-.2.2-.4.4-.4.7 0 .3.1.6.3.8 4.4 4.3 6 11.7 6 17.1.1 1.3 1.1 1.3 1.6.9zm-3.6 2.1c.3-.2.5-.5.6-.8.6-6.3-1.4-14.8-6.3-18.7-.2-.1-.4-.2-.6-.2-.2 0-.3 0-.5.1-1.8 1-3.9 1.7-5.7 2.2-1.7.4-3.5.6-5.2.7-.2 0-.5.1-.6.3-4 4.1-5.2 9.1-6.4 14.8-.2.8.2 1.1.8 1.2 2.1.4 4.4.9 7.2 1.7 2.5.7 4.8 1 7 1 3.3 0 6.5-.7 9.7-2.3zM745.3 299c1.5-1.7 3.5-2.7 5.9-3 .4-.1.8-.4.8-.8 1.1-5.1.7-14.9-3.7-20-.3-.4-.3-.4-.8-.3-3.4.2-6.6 1.2-10 2.3l-2.4.7c-1.4.4-2.9.8-4.6 1.2-2.6.6-5.2 1.3-7.8 2.2-.4.1-.7.6-.7 1s.4.8.8.9c7.2 1.5 15 7.4 20.8 15.8.5.4 1.3.5 1.7 0zm14.5 45.4c2.9-8.5 2.8-17.8-.2-26.2-.1-.3-.4-.6-.8-.6-2.4-.4-4.8-1.2-6.9-2.4-.2-.1-.3-.1-.5-.1-.1 0-.3 0-.4.1-9.4 4.2-13.9 16-15.3 20.9-.2.7.2 1.2.8 1.3l1.1.2c3.8.6 7.5 1.2 10.7 3.5 3.5 2.4 6.9 3.8 10.5 4.1.4 0 .8-.1 1-.8zm-42-28.7c6.3-6.6 14.6-10.4 22.8-10.4.6 0 1.2 0 1.8.1.7 0 1.1-.5 1-1.1-.1-.7 0-1.5.1-2.2.1-.3 0-.5-.1-.8-5.2-8.2-14.3-17-24.3-17-.9 0-1.8.1-2.6.2-.2 0-.3.1-.5.2-4.5 3.5-5.7 8.5-3.8 15.2.7 2.3 1.3 5 1.9 7.8.6 2.4 1.2 5 1.8 7.5.5 1 1.3 1.1 1.9.5zm16.4 20.3c2.9-9.8 8.2-17.5 14.6-21.2.3-.2.5-.4.5-.8 0-.3-.1-.6-.3-.8-1.9-1.7-3.5-3.7-4.5-5.6-.1-.3-.4-.5-.7-.5-1.1-.2-2.2-.2-3.3-.2-8.2 0-16.9 4.3-23.1 11.6-.2.3-.3.6-.2.9 1.4 4.6 3 8 4.9 10.5 3.4 4.6 7.6 6.1 10.9 6.9.5 0 1-.2 1.2-.8zm30.2-38.2c1.7-5.2 6.8-10.3 14-13.9.6-.3 1-1.5-.2-1.8-2-.5-4.3-.8-6.9-.9-4.8-.3-8.5-1.9-12.7-3.8l-2.2-1c-1.3-.6-2.6-1-4.2-1.3-.8-.2-1.6.5-1.1 1.4 3 5.6 3.4 13.4 2.5 18.3-.1.6.3 1.1.9 1.2 2.5.3 5.4 1.1 8.6 2.4.5.2 1.2-.2 1.3-.6zM542.2 56.5c17.5-7.4 37.1-11.3 56.8-11.3 10.4 0 20.4 1.1 29.7 3.3 5 1.2 9.8 2.7 14.8 4.7.5.2.8.2 1.2-.4 2.1-3.1 2.6-6.2 1.6-9.1-3-8.9-19.3-14.4-28-17.3-1.2-.4-2.3-.8-3.1-1.1-4.2-1.5-8.2-2.2-12.9-2.2-2.8 0-5.8.2-8.9.5 0 0-2.6.2-3.5.2-3.7 0-7.5-.5-11.1-1-3.7-.5-7.5-1.1-11.3-1.1-.8 0-1.6 0-2.3.1-9.3.6-11.1 2.6-13.6 5.4-1 1.2-2.2 2.5-4.2 3.9-6.5 4.8-10.1 10-10.5 14.9-.3 3.6 1.2 7.1 4.4 10.4.2.2.5.3.9.1zm-100 155.8c.9-.6 1.8-1.3 2.6-2.1 1.7-1.6 3.2-3.3 4.6-5 .6-.7 2.7-3.2 3.2-3.7.9-1 1.9-2 2.7-3.1 1.1-1.4 2-2.8 2.6-4.3.2-.6-.3-1.3-1.1-1.3-6.2 0-12.3 2.3-18.8 4.7l-1.4.5c-.9.3-2 .5-3.3.6-.7 0-1.1.6-.9 1.3.9 2.8 1.4 6.3 1.6 10.6 0 .6.5 1 1 1h1.2c2.1 0 3.8.3 5.2.9.2.1.5.1.8-.1zm-21.6 3c2.6-1.4 5.3-2.2 6.3-2.5 1.1-.3 2.8-.7 4.7-1 .5-.1.8-.5.8-1-.1-3.3-.4-8.2-2-11.9-.1-.3-.4-.5-.8-.6-1-.1-2-.3-2.9-.5-1.4-.2-2.7-.5-4-.6-1.5-.1-3.1-.2-4.5-.2-7.3 0-13.9 1.7-20.1 5.1-.9.5-.5 1.7.3 1.8 8.7 1.1 17.1 5.6 20.9 11.1.2.3.5.4.8.4.2.1.3 0 .5-.1zm-34.1 20.3c.9-1.3 2.3-2.5 3.9-3.5 2.1-1.4 6.5-3.5 6.5-3.5 5.3-2.6 11-5.1 16.9-5.1.5 0 1-.3 1-1 0-1.9 1-3.6 3-5.3.4-.3.5-.9.2-1.3-5-6.9-15.9-10.6-23.5-10.6-.4 0-1.5.1-1.6.2-1.5 1.1-2.8 2.2-4.1 3.3-9.3 8.4-8.7 19.5-3.9 26.8.3.5 1.2.5 1.6 0zm19.5 9.6c2.1-.2 4-.3 5.8-.3 1.8 0 3.5.1 5.3.3.5.1.9 0 1.1-.8 1.1-5.1 2.2-9.7 4.9-13.5.2-.3.2-.6.1-1-.1-.3-.4-.5-.8-.6-3.2-.4-5.4-1.7-6.7-3.8-.2-.3-.4-.4-.7-.5-.5-.1-1.1-.1-1.6-.1-5.4 0-10.9 2.4-15.7 4.8l-1.1.6c-3.1 1.5-8.4 4.1-9.5 7.4-.1.3 0 .7.2 1 4.1 4.3 9.8 6.6 15.9 6.6.9 0 1.9 0 2.8-.1zm379.3 90c10.1-5 15.6-10.4 16.8-16.5v-.5c-2.1-7-9.7-11.2-20.4-11.2-2.8 0-5.6.3-8 .9-.5.1-.8.5-.8 1 .1 1.7-.4 3.4-1.4 4.7-.4.5-.2 1.1.3 1.4 7.3 4.5 11.8 11.8 12.1 19.3 0 .9.9 1.1 1.4.9z" style="fill:#acff1d"/><path d="M746.7 628c1.8-2.9 2.7-5.9 3.3-8.8-16.5 23.8-75.9 31.1-150.7 29.9-71-1.2-132.2-1.3-139.4-46.7 0 3.9 0 7.9.1 11.8.1 11.5 7.1 20.6 20.7 27.1 9.3 4.4 20.4 7.2 35.9 9.7 28.4 4.6 57.5 6.9 86.4 6.9 3 0 6 0 8.9-.1 34.4-.6 67.9-1.8 99-10.4l.7-.2c11.9-3.3 28.2-7.8 35.1-19.2z" style="fill:#84391c"/><path d="M736.3 560.6c-.2 3.7-2.4 7.6-6.6 11.4-12.2 11.3-32.9 14-49.6 16.3-2 .3-4 .5-5.9.8-21.2 3-43.5 4.6-66.4 4.6h-4.3c-30.1-.2-54.8-2.2-77.7-6.1l-3.7-.6c-14.4-2.4-34.1-5.6-43.3-16.7-1.6-2-2.8-3.9-3.6-5.8-.3 7.7 4.6 13.8 11.5 18.5 19.1 13.1 76.8 20 129.8 19 42.2-.8 79.6-5.6 101.8-14.9 15-6.4 21.9-16.2 18-26.5z" style="fill:#f89c5a"/><path class="st7" d="M492.1 731.1c1.5 3.6 3.3 7.1 5.4 10.3 24.8 36.5 81.2 40.4 104.3 40.4h3.3c58.6-.9 95.6-15.7 110-44 3.9-7.7 6.3-16 7.7-24.6-4.6 19.2-18 35.4-35.1 44.4-34.5 18.1-63.5 17.8-90.2 16.9-54.4-1.9-96-28-105.4-43.4zM509.1 688.8c14.6 8.7 38.6 11.2 49.8 13.1 20.2 3.4 45.3 6.6 65.6-.5 16.9-5.9 14.8-14.9-.8-17.1-20.3-2.9-41.7-.9-62-3.2-12.8-1.4-25.5-4.1-38.2-6.6-2.3-.5-4.7-1-7.1-1.5-15.4-3.1-21.6 7.3-7.3 15.8zM642 690.1c2 8.9 16.1 6.8 21 2.2 5-4.7.9-12.3-5.2-12.7-5.1-.3-17.4 3.4-15.8 10.5z"/><path class="st8" d="M722 571.1c-4.4-1.5-8.9-2.9-13.4-4.1-6.6-1.9-13.2-3.7-19.7-5.5-1.7 6.8-3.6 13.7-5.9 20.4-.3.9.7 1.4 1.1 1.3 7.9-1.5 14.9-3.2 21.6-5.3 5.4-1.7 11.5-4 16.3-6.8zM482.1 566.6c6.3 7.3 22.3 11.4 28 12.7 3.9.9 7.9 1.7 12 2.5.7.1 1.3-.5 1.1-1.2-1.9-7.9-3.8-16.1-5.5-24.5-.4.1-.9.1-1.3.2-9.2 1.7-24 4.1-34.3 10.3z"/><path class="st9" d="M693.5 327.8c1.1-7.3 1.1-14.9 1.1-22.3 0-3.3 0-6.6.1-9.9.4-12.4.5-24.7.5-36.4v-3c-.2-22.8-.3-46.4-2.2-69.5-1.9-23.2-6-46.1-12.6-70l-.1-.5c-.3-1-.6-2-.8-3 1.6 31.6 2 63.4 4 94.9 2.9 46.4 1.4 92.9-1.2 139.3-1 18.3-2.6 38.1-4.2 56.4.5-1.2.7-1.9.8-2.2 1.1-3.1 1.8-5.7 2.3-8.3 1.3-7.2 1.7-14.6 2.1-21.7.3-5.9.6-12.1 1.5-18.1 1.5-9.9 4.3-18.2 8.5-25.4.1-.1.2-.2.2-.3zM647 586.7c3.5-26.1 4.9-52.9 6.2-78.8l.4-8.8c0-.3-.1-.6-.3-.8-5.5-5.1-9-12.5-10.2-21.2-.1 1.4-.3 2.8-.4 4.2-2.2 22.7-2.8 45.5-3.4 68.2-.3 12.6-1.4 25.5-1 38.3 2.7-.1 5.3-.2 7.9-.4.4.1.7-.2.8-.7zM546.8 584.3c-8.4-35.3-15.8-74-23.3-121.8-.1-.7-.6-1-1.2-.8l-3.6.9c-1.6.3-3.2.6-4.8.8 2 10.8 3.9 21.7 5.8 32.6 3.6 21.7 7.3 43.5 12.3 64.9 1.7 7.3 3.4 15.6 5.9 23.5 2.7.4 5.3.8 7.9 1.1.2 0 1.2-.3 1-1.2zM650.8 139c.2 21.3-.2 42.7.1 64 .6 47.1 3.4 94.1 2.4 141.2-.7 35.8-4.1 71.4-7.6 106.9 2.4-7 6.1-13.3 10.7-17.7.2-.2.3-.4.3-.7 2.4-62.4 4.9-144.6 3.4-226.5-.1-4.2-.1-8.4-.2-12.7-.4-30.6-.8-63.6-10-92.6-.4 12.8.8 25.6.9 38.1zM619.5 588.5c.4 0 1-.4 1-1.1-1.2-14.1-1-28.5-.8-42.5l.1-5.8c.3-23.2.9-48.1 2-80.5 1-28.5 2.5-57.6 4-85.7 2.3-44 4.7-89.6 5.1-134.4.3-33.1-.2-72.1-5.4-111-1-7.2-2.1-15.1-3.7-23.1-3.3 38.3-2.3 76-1.6 114.7.8 45-1.3 90.1-1.7 135.1-.4 45.1-1.1 90.3-4.2 135.3-2.2 31.2-7.7 66.4-3.8 99 2.9.1 5.9 0 9 0zM564.7 586.1c-8.5-41.6-15.1-85.9-20.4-135.3 0-.4-.3-.7-.6-.8-.1 0-.2-.1-.3-.1-.2 0-.5.1-.7.3-.9.8-1.8 1.6-2.8 2.4 2.2 15.6 4.4 31.2 6.5 46.9 2.7 20.2 5.1 40.5 8.8 60.6 1.6 9 3.2 18.3 5.9 27 .9.1 1.7.2 2.7.2.4 0 1.1-.4.9-1.2zM591.1 588.6c.5 0 1.1-.4 1-1.1-5.2-36.8-7.3-74.3-9-109.6-2.2-45.2-3.4-91.2-4.7-135.7-.9-33.9-1.9-69.1-3.2-103.6-1.4-34.4-2.5-71-.4-107.5-.4 2.7-.8 5.4-1.2 7.9-3.4 21.3-5.7 42.9-7.6 64.4-4.5 48.3 1.9 97.6 3 146 1.1 49.3 1.6 98.7 4.7 147.9 1.5 24.4 4.6 48.6 7.8 72.8.8 6.1 1.4 12.3 2.5 18.4 2.3-.1 4.7 0 7.1.1zM525.1 210c-4.1 47.2-.6 94.7 3.2 141.8.2.1.4.3.7.4l2 .9c1.3.6 2.7 1.2 4.1 1.9.6.3 1.5-.1 1.4-.9-2.9-51.2-5.3-111.6-.9-171.7 1.6-22 3.8-45.3 8.8-67.7-4.2 10.4-6.8 21.8-9.4 31.9-5.4 20.7-8 42.1-9.9 63.4zM693.7 506.3c-2.1.4-4.3.7-6.4.9-.1.8-.2 1.6-.3 2.5-2.7 20.1-6 40.1-9.9 60.1-1 5-2.3 10.1-3.8 15.2 1-.1 2-.2 3-.4.4-.1.7-.3.8-.6 6.7-18.2 10.4-37.8 14-56.8 1.2-6.6 2.5-13.1 3.8-19.6.1-.7-.5-1.4-1.2-1.3zM655.7 586.9c2.5-.2 5-.4 7.4-.7.4 0 .7-.3.8-.7 8-25 11.8-51.4 15.4-76.9.1-.4-.2-1.1-.9-1.1-3.8-.2-7.5-.8-11.1-1.8-1.3 10.5-1.9 20.9-2.9 30.4-1.7 16-6.3 33.5-8.7 50.8zM743.8 438.6c15.4-32.3 23.6-59.7 25.8-86.5.1-.8-.7-1.2-1.2-1-1.5.4-3 .6-4.5.6s-2.9-.3-4.3-.6c-2.7 9.6-3.5 20.8-5.8 28.7-5.7 20-13 39-22.9 57.3-13.2 24.5-30.8 45.3-49.8 64.9 4.7-.1 9.4-.6 14.2-1.6.1 0 .2-.1.3-.1 18.6-12.2 33.9-31.8 48.2-61.7zM771.9 106.8c2.7 10.2 5.4 20.3 5.9 31.5.9 19.5-1.5 38.5-5.9 57.4-4.2 18-10 35.6-17.2 52.7-3.2 7.5-7.1 14.6-10.6 21.7 1.8-.4 3.6-.6 5.5-.6.8 0 1.6 0 2.4.1 1.3.2 2.6.6 4.2 1.3.5.2 1.1 0 1.3-.5 19.2-48.5 27.9-87.8 26.6-120.1-.8-19.5-4.9-34-12.2-43.5z"/><path class="st9" d="M650.6 477.3c1.9-13.8 11.6-23.9 21.8-34.7 3.6-3.8 7.3-7.7 10.6-11.7 13.6-16.6 18.7-37.7 23.6-58 3.2-13.1 6.4-26.6 11.9-38.7.1-.3.1-.7-.1-1-1.1-1.7-2-3.5-2.7-5.4-6 6.9-9 17.7-11.4 25.7-6.1 20.6-8.3 40.4-19.2 59.5-10.7 18.6-26.6 33.5-37.2 52.1 0 .1-.1.2-.1.2-.1 4 .2 8.1.9 11.9.1 1.2 1.7 1.2 1.9.1zM722.9 208.2c8.7-16.7 15-36.6 19.9-62.8l.8-4.1c2.8-15 6-32 3.6-47.2-.1-.4-.4-.8-.8-.8-1.8-.2-3.7-.3-5.6-.4.5 9.2 1.1 18.3-.4 28.2-2.5 17.2-6.9 34.3-13.7 50.3-2.3 5.5-5 10.8-7.7 16 .8 6.5 1.5 13.3 2 20.4.1.8 1.3 1.5 1.9.4zM471 366.6c13.1 20.3 32.4 36.6 56.5 41 7.9 1.4 18.1 1.2 27.6-1.1 0-2.4-.1-4.8-.4-7.3-.1-.6-.6-1-1.2-.9-3.6.7-7.3 1-10.9 1-25.2 0-50.2-16.5-65.3-43.2-17.5-31-25.6-68.4-23.3-108.4 0-.8-1.1-1.2-1.6-.8-2.6 2-5.1 3.7-7.8 4.9-2.9 14.9-1.1 31.8.9 45.2 3.8 24.9 11.7 48.4 25.5 69.6zM494.5 458.8c-11.7-3-24-8.9-34.4-16.6-16.9-12.5-30.4-31.8-41.3-59-17.2-42.8-20.7-87.1-10.6-131.8.1-.5-.5-1.2-1.2-1.2h-1c-.9 0-1.7.1-2.5.1h-1.3c-8.9 19-7.4 47.3-6.4 65.4 1.6 29.4 9.3 59.1 22.3 85.4 10 20.2 25.3 37.4 43 51.1 10.3 5 21.4 8.2 33.2 8.7 1.1-.2 1.3-1.9.2-2.1z"/><path class="st9" d="M480.8 270.7c5 18.7 5 38.3 9.8 57 4.1 15.7 14.8 27.9 28.8 35.7 8 4.4 16.6 7.6 24.6 11.9 2.4 1.3 4.5 3 6.6 4.7-2.7-7.8-6.9-15-15.4-19.3-1.9-1-3.8-1.9-5.8-2.9-5-2.4-9.8-4.7-14.2-8-13.3-9.7-18.5-29.4-20.6-44.2-.5-3.8-1-7.6-1.4-11.4-2.5-20.7-5.1-42.2-19.3-59.7-.3-.3-.8-.4-1-.3-2 .5-3.7 1.3-5.4 2.1 4.5 11.5 10.1 22.5 13.3 34.4zM548.3 434.9c.2-.4.2-.8-.1-1.2-.2-.2-.5-.3-.7-.3-.1 0-.3 0-.4.1-4.2 1.9-9.2 2.9-14.9 2.9-10.4 0-19.7-3.2-24.4-5.1-17.7-7.3-33.3-19.4-46.4-35.9-14.8-18.7-22-42.2-27.1-62.8-5.9-23.9-8.6-49.8-8.2-79 0-.5-.3-.9-.8-1l-2.5-.5c-1.7-.3-3.5-.7-5.3-1-4.7 20.2 1.4 46.7 3.7 64 4.1 30.5 13.7 63.4 33.6 87.5 17 20.5 40.9 36.4 67.9 39 5.6.5 13.1.6 21-.1 1.8-2.1 3.3-4.3 4.6-6.6zM702.8 431.1c20.5-30.1 34.6-56.9 44.5-84.4.2-.5-.1-1-.5-1.2-1.9-.8-4.3-1.7-7.2-2.2-4.2 10.5-7.6 21.4-12.7 31.2-10.1 19.2-21.5 37-33.6 54.9-13.6 20.1-30.4 43.9-32.9 68.3 2.1 1.4 4.4 2.3 6.9 2.9 1.2.3 2.5.6 2.5-.7.1-22.2 13.3-40.8 26.1-58.8 2.3-3.4 4.6-6.7 6.9-10zM778.9 347.5c-.1-.7-.9-1-1.4-.7l-3.3 1.8c-.2.1-.4.2-.5.3.3 7.4.7 14.9.3 22.3-.9 21.2-5.3 40.5-12.2 60.5-6.9 19.8-18.4 37.9-32.4 53.4 14.3-9.9 26.4-23.2 33.2-37.5 16.1-33.6 22.1-70.1 16.3-100.1zM710.1 140.3c.3.9 1.5 1 1.9.1 4.8-13.2 11.7-30.3 22.2-45.5.5-.8-.3-1.6-.9-1.5-2.5.3-5 .9-7.4 1.5-5.7 9.2-10.2 19.6-13.8 26.6-1.6 3.3-3.2 6.5-4.7 9.8 1 2.9 1.9 5.9 2.7 9zM746 208.9c-5.9 18.3-13.5 35.9-22.8 52.6.1 3.7.1 7.3.2 10.8v2.2c0 .7.6 1.1 1.2.9 1.7-.5 3.4-.9 5-1.3.6-.1.8-.1 1-.6 30.3-60.8 41.4-124.6 30.5-175.2-.1-.7-1.3-1.1-3-1.8 2 37.7-.8 77.4-12.1 112.4z"/><path class="st10" d="M625.8 551.6c-.4-24.2.2-48.4 1-72.6 1.5-45.2 4.5-90.3 7.4-135.3 3.9-63.1 8.7-126.8 2.7-189.9-2.6-27.2-7-53.8-15.4-79.8-2.2-6.8-4.4-14.8-7.4-22.3-3.9-.4-7.8-.7-11.7-.8-1.1 0-1.2 1.2-.7 1.7 10.9 10.5 15.9 27.3 19.8 43.9 6.8 29.8 8.9 60.6 10 84.2 2.4 54.9-.5 110.7-3.2 164.7-.9 16.5-1.7 33-2.4 49.6-1.4 32.7-3.1 75.7-4.1 118.5-.1 4.5-.2 9.1-.4 13.6-.6 19.9-1.1 40.6.6 60.6 0 .5.5.9 1 .9 1.3 0 2.5-.1 3.8-.1-.1-12.4-.8-24.7-1-36.9zM704.6 239.9c-1.1-34.5-6.6-69.8-12.4-103.7-2.5-14.7-5.8-31.7-11.4-47.6-3.9-5.6-8.2-10.8-13.2-15.4-.7-.7-2.1.2-1.5 1.2 7.1 11.8 11.2 25.4 15.1 39.5 7.1 25.8 11.3 47.9 13 69.6 2 24.8 2.4 49.5 2.5 79 0 12.5-.2 25.4-.7 39.6-.1 2.7-.1 5.5-.1 8.2 0 3.8-.1 7.6-.3 11.4-.1 1 1.2 1.4 1.8.7 1.7-2.1 3.5-4.1 5.5-6 1.7-25.4 2.5-50.9 1.7-76.5zM596.2 50.7h-3.1c-.3 0-.7.2-.8.5-11.9 21.1-13.8 48.5-15.4 70.6-3.5 49.2-1.4 99.3.6 147.9.8 18.5 1.6 37.6 2 56.3l.1 3.4c1.1 45.1 2.3 91.7 4.4 137.5 1.4 29.7 2.7 56.1 5.1 81.7 2.9-40.1 0-80.9-.7-121.1-.8-47.4-1.3-94.6-3.2-141.9-3.1-76.1-13.1-161 11.5-234.9h-.5zM507 204.9c-1.6 41.3-.7 84.8 2.7 130 0 .2.1.3.1.5.9 1.4 1.9 2.7 2.9 3.9-.8-7.5-1.5-14.9-1.7-22.2-1.3-33.7-.3-67.5 1.4-101.2 1.6-31 2.1-63.1 8.4-93.5 3-14.3 10.2-49.4 33.2-65.1-2.8.9-5.5 1.8-8.3 2.9-21.5 14.5-29.2 44.2-32.9 71.1-1.2 9.1-5.1 57.4-5.8 73.6z"/><path class="st10" d="M667.8 240.1c.8-39.6-.2-79.1-6.2-118.2-3.1-19.9-10.2-47.1-23.9-65.9-1.6-.5-3.3-1-5-1.4-2.5-.6-5.2-1.1-8.1-1.6-1-.2-1.6 1-.9 1.7 35.6 34.4 36.6 88.5 37.5 136.2l.2 8.5c1.7 83.5-.8 166.7-3.2 229.9 0 .4.2.7.5.9 1.8-18.9 3.7-37.7 4.7-56.7 2.5-44.4 3.5-89 4.4-133.4zM545 118.6c-4.4 21.6-6.5 43.1-8.4 68.8-4 56.4-1.7 114.3 1.4 168.5 0 .3.2.6.5.8 2.3 1.2 4.1 2.5 5.7 3.8-.2-6.1-.3-12.1-.5-18.2-1.1-35.8-2.7-71.5-2.6-107.3.1-35.4 1.9-70 7.8-105 2.9-17.1 6.9-33.9 14.4-49.6 4.8-10 11.8-19.1 17.1-28.8-1.5.2-3 .3-4.5.6-.2 0-.4.1-.5.2-18.2 16.2-25.5 42.6-30.4 66.2zM509 85c-25.9 28.5-29.7 70.3-29.7 111.5 0 .3.2.6.5.8 1 .7 2 1.3 3 2 .8-11.4 1.8-22.7 3.3-34 2.9-21.2 8.7-41.7 16.1-61.7 2.1-6.2 4.4-12.4 6.8-18.6z"/><path class="st9" d="M718.6 277c-.8-46.6-2.3-88.5-12.7-128.5 2.1 27.6 2.5 55.2 4.3 83.4 1.1 17.1.7 34.3.1 51.6 1.8-2.3 4.3-4.1 7.7-5.6.3-.2.6-.5.6-.9z"/><path class="st10" d="M553.9 457.4c-.4-6.8-.3-14.3-.5-21.8-2.1 4.1-4.7 7.9-7.7 11.4-.2.2-.3.5-.2.8 5.4 50.8 12.2 96.3 20.9 139 .1.4.5.8.9.8h.9c-4.4-20.9-6.7-42.4-9-63.5-2.5-22.2-4-44.5-5.3-66.7zM717.6 352.7c1.1-4.7 3.5-9.5 5.7-14.3-.9-.7-1.8-1.5-2.6-2.3-.5-.5-1.3-.4-1.6.3-5.2 11.8-8.2 24.8-11.1 37.4-3.3 14.1-6.7 28.5-13.2 41.5 5.1-7.7 9.2-16.2 12.8-25 5-12.1 7.2-24.9 10-37.6zM744.2 146c-3.8 19.9-9.8 45.7-22.6 67.8-.1.2-.1.4-.1.6.3 4.1.5 8.1.7 12.1 5.9-10.8 11-22 15.4-33.3 6.3-15.8 9.7-33 12.3-49.7 1.4-8.7 2.7-19.8-.9-28.4-.8 9.9-2.7 19.9-4.5 29.2l-.3 1.7zM687.9 384.8c5.7-12.3 5.2-27 8.1-40.1 2.4-10.9 8.7-19.3 14.6-28.1-.2 0-.3.1-.5.2-18.5 13.7-20.1 34.6-21.5 54.9-.3 4.8-.7 9.6-1.3 14.4.2-.5.4-.8.6-1.3zM771.5 165.9c1-12.2 1.3-28.3-4.9-39.9 3.7 59-18.3 115.1-33.1 145.4-.4.9.3 1.7 1.2 1.4l1.7-.5c.4-.1.8-.3 1.3-.4 7.8-14.7 14.3-30.3 20.2-46.2 7.2-19.3 11.9-39.2 13.6-59.8zM732.4 100.5c-9.1 14.4-15.3 30.1-20.7 45.2-.1.2-.1.4 0 .6 1.5 6 2.8 12.3 4 18.9 1-3.4 1.9-6.8 2.9-10.2 3.6-12.1 6.7-24.3 9.6-36.5 1.4-6.1 3.3-12 4.2-18zM488.6 362.6c-13-14.5-19.7-34.2-24.6-52.7-3.3-12.2-4.6-26.1-8.4-38.6 1.2 28.3 7.6 54.3 19 76.2 16.4 31.6 41.7 50.5 67.8 50.5 3.7 0 7.4-.4 11.2-1.1.5-.1.9-.6.8-1.1-.3-2-.6-3.8-1-5.5-1.4.3-2.8.5-4.3.6-24 2.8-45.2-11.2-60.5-28.3zM383.3 301.6c0-10.6 2.2-21.3 3.8-31.9-13.5 36.6-5.3 81.2 11.8 116.4-2.3-6.7-4.4-13.6-6.4-20.4-5.9-20.8-9.2-42.5-9.2-64.1z"/><path class="st10" d="M458.2 388.4c12.1 17.5 27.4 30.9 44.1 38.8 6.2 2.9 18.3 7.8 30.3 7.8 7.4 0 13.5-1.9 18.2-5.5.1-.1.2-.3.3-.4 1.4-3.5 2.4-7.4 3.1-11.4-2.6 1.3-5.2 2.4-7.9 3.4-28.4 10.2-52.9-3.1-72.9-22.8-17.9-17.6-29.1-41-37.3-64.5 4.7 18.5 10.9 38.4 22.1 54.6zM711 430.5c12.4-19.2 24.6-37.6 34.1-58.4 3.2-7.1 7-15.1 8.9-23.2-.8-.4-1.6-.8-2.5-1.2l-1.5-.7c-.4-.2-1.1-.1-1.4.6-9.3 25.8-22.6 51.6-39.3 76.7-3 4.5-6.3 9.1-9.8 13.9-14 19.2-28.4 39-28.2 62.4 0 .1.1.1.1.2 1.4-3.2 2.9-6.3 4.5-9.4 10.2-21.2 22.4-41.2 35.1-60.9zM743.7 442.1c-6.6 13.4-13.4 24.4-20.5 33.7 15.3-15.7 27.1-35.2 30.6-56.1-2.9 7.3-6.3 14.8-10.1 22.4z"/><path class="st10" d="M525.2 455.2c-6.7.6-13.4.4-20.4-.7-30-4.7-54.1-26.9-70.1-51.4-13.7-21-21.5-45.7-26.8-70-1.9-8.9-3.2-17.9-4.1-27 .5 24.7 5.4 48.9 14.6 72.4 7.7 19.7 19.2 44.4 39.5 60.2 16.4 12.9 36.1 20.6 52.5 20.8h.2c3.9-.7 7.5-1.7 11-2.9 1.2-.4 2.4-.9 3.6-1.4z"/><path class="st11" d="M753.6 294.8c-.1.6.4 1.1.9 1.2 2.5.3 5.4 1.1 8.6 2.4.4.2 1.1 0 1.3-.6.6-2-5.7-9.5-10.4-9.9.1 2.5 0 5-.4 6.9zM768.9 292.8c-1.6 1.8-2.8 3.9-3.3 6.1-.1.4.1.9.5 1.1 3.1 1.8 5.2 3.8 6.1 6 .2.4.5.6.9.6h.2c2.5-.8.7-9-4.4-13.8zM759.7 318.3c-.1-.3-.4-.6-.8-.6-2.4-.4-4.8-1.2-6.9-2.4-.3-.1-.6-.2-.9 0-3.9 1.8 3.7 15.5 10.8 16 0-4.5-.8-8.9-2.2-13zM773.7 307.9c-.5.1-.8.5-.8 1 .1 1.7-.4 3.4-1.4 4.7-.3.5-.2 1.1.3 1.4 3.7 2.3 14-1.1 12-7-.1-.3-.3-.6-.4-.9-.6 0-1.1-.1-1.7-.1-2.8 0-5.6.3-8 .9zM770 315.7c-.3-.2-.7-.2-1 0-2 1.2-4.2 1.9-6.6 2.1-.8 0-1 .8-.9 1.3 1.3 3.9 1.9 8 2 12.2h2.5c5-.5 8.2-13.2 4-15.6zM748.8 314.7c.6-.3.7-1.2.2-1.6-1.9-1.7-3.5-3.7-4.5-5.6-.1-.3-.4-.5-.7-.5-1.1-.2-2.2-.2-3.3-.2-3.1 0-4.3 12.3.1 15.8 2.4-3.4 5.2-6.1 8.2-7.9zM742.4 305.3c.5 0 1.1-.4 1-1.1-.1-.7 0-1.5.1-2.2.1-.3 0-.5-.1-.8-1.9-3-12.8 3.3-12.4 5.7 3.1-1.1 6.3-1.7 9.6-1.7.6.1 1.2.1 1.8.1zM743.7 298.9c.4.5 1.1.6 1.5.1 1.5-1.7 3.5-2.7 5.9-3 .4-.1.8-.4.8-.8.4-2-11.1-6.1-14.5-3.6 2.3 2.2 4.4 4.6 6.3 7.3zM419.3 215c.4.5.9.5 1.3.3 2.6-1.4 5.3-2.2 6.3-2.5 1.1-.3 2.8-.7 4.7-1 .5-.1.8-.5.8-1-.1-2.7-16.3-6.9-20.8-4.9-.8.4-1.5.8-2.2 1.3 4.2 2.1 7.7 4.8 9.9 7.8zM433.9 210.5c0 .6.6 1 1 1h1.2c2.1 0 3.8.3 5.2.9.4.2.6.1 1-.1 2.9-1.9-5.1-11.2-9.5-11.1.5 2.5.9 5.6 1.1 9.3zM597.4 35.8C585.7 35 554 38.6 537.3 50c.6 2.2 1.9 4.3 3.9 6.3.4.4.8.3 1.1.2 17.5-7.4 37.1-11.3 56.8-11.3 10.4 0 20.4 1.1 29.7 3.3 5 1.2 9.8 2.7 14.8 4.7.5.2.9.1 1.2-.4.4-.6.6-1.1.9-1.7-9.4-7.5-29.9-14-48.3-15.3zM443.1 233.1c-1-2.6-2.5-4.9-4.4-6.5-.3-.2-.7-.3-1.1-.1-1.8 1-3.9 1.7-5.7 2.2-1.7.4-3.5.6-5.2.7-.2 0-.5.1-.7.3-1.9 2 10.5 6.2 17.1 3.4zM402.9 224.1c.1.5.3 1 .4 1.5 3.4-1.3 6.8-2.2 10.4-2.2.3 0 .5-.1.7-.3.2-.2.3-.4.3-.7 0-1.9 1-3.6 3-5.3.4-.3.5-.9.2-1.3-2.3-3.2-15.8 2.4-15 8.3zM443.8 212.9c-.4.3-.5.9-.2 1.3.4.6.7 1.3.8 2.1.1.8.9.9 1.3.7 3.4-1.2 8.7-9.4 5.1-11.3-2.1 2.7-4.4 5.3-7 7.2zM444.8 219.1c-.3.1-.5.3-.6.6-.5 1.8-1.8 3.4-3.7 4.9-.5.4-.4 1.1-.1 1.5 1.8 1.7 13.4 0 15.6-5.4.6-1.6 1-3.1 1.1-4.5-4.5.4-8.8 1.4-12.3 2.9zM423.2 229.9c-.1-.3-.4-.5-.8-.6-3.2-.4-5.4-1.7-6.7-3.8-.2-.3-.4-.4-.7-.5-.5-.1-1.1-.1-1.6-.1-3.2 0 0 10.5 5.8 11.1.4 0 .8.1 1.2.1.7-1.9 1.5-3.7 2.7-5.4.2-.1.3-.5.1-.8z"/><path class="st12" d="M796.3 285.9c-4.4-11.2-20.2-9.9-29.5-11.4-1.4-.2-2.7-.7-4-1.3 3.9-9.9 7.9-20.4 11.6-31.4 3.2-.9 6.5-2 8.8-4 .2-.2 0-.6-.2-.6-2.6.2-5.3 1.1-7.9 2.3 10.3-31.4 17.9-66 14.5-97.7 1.1-.8 4.2-4.2 3.6-6.5-.1-.4-.6-.4-.8-.1-1.1 1.4-1.9 2.8-3.2 4.1-.7-5.5-1.7-10.9-3.1-16.2-10.9-40.9-61-46.2-88.7-19.1-3.3-6.6-7.1-12.8-11.4-18.6 3.1-2.4 5.4-6.6 5-10.3 0-.4-.6-.5-.7-.1-1.6 4.1-4.7 8.1-5.4 8.8-9.2-12-20.6-21.8-34.6-28.7 6.4-9.7 5.1-17.8-6.7-24.6-15.4-8.9-33.2-15.1-50.9-13-10.7 1.5-21.4-2.1-32.2-1.5-9.1.6-13.4 7.8-20.2 12.9-12.2 9-15.1 18.6-5.1 29.8-7.9 3.9-15.3 8.6-21.8 14-21.1 17.8-31.2 42.4-36 68.7-1.5-2.2-3.2-8.2-3.8-10.6-.1-.4-.7-.3-.7.1 0 3.8-.2 10.9 4 12.9-2.7 15.9-3.5 32.4-3.7 48.2-9.3-6.5-18.8-8-29.6-3.2-15.1 6.7-30.7-.2-46.3 6.4-21.4 9.1-34.9 39.1-8.5 52.6.7.3 1.3.6 2 .9-9.7 15.1-14.6 31.8-16 49.1-1.9-2.5-3.7-5-4.8-8.2-.3-.8-1.3-.4-1.2.3.6 3.8 2.4 8.4 5.7 10.8-2.1 34.7 9.7 71.2 25.8 100.7 10.3 18.7 24.3 34.7 41.1 46-4 .6-8.1 1.9-11.9 2.6-.3.1-.4.7 0 .7 4.7.6 10.2 0 14.9-1.3 16.6 10.5 35.6 16.4 56.1 16 1.2 7.9 2.5 15.9 3.8 23.8-.1 0-.3 0-.4-.1-1.9-.4-3.8-.7-5.8-1-.5-.1-.7.5-.3.8 1.7 1.2 3.5 1.9 5.5 2.3.4.1.9.1 1.4.2 1.5 9.3 3.1 18.5 4.7 27.8-18.7 4.4-46.2 11.7-53.7 31.9-2.7 7.2-1.9 14.7-1.9 22.3 0 13.5-.2 27.1-.1 40.6.1 17.2 12.7 26.8 26.9 33.1-.3 33.2-5.8 71.6 13.8 100.4 22.6 33.3 73.9 39.5 110.5 40 37.7.6 85.7-7.8 110.2-39.3 21.2-27.2 14.4-68.9 14.3-100.9 15.4-6.6 26.8-17.6 26.9-35.8.1-12.7-.1-25.4-.1-38.2 0-7.4 1.1-15.5-2-22.5-9-20.7-35.7-27.7-55.9-32.2.9-4.5 1.8-9 2.7-13.4 21.5-6.5 41.9-22.2 55.2-38 2.5-.7 5-2 6.9-3.2.5-.3.2-1.1-.4-1-.4.1-1.9.2-3.5.5.1-.1.2-.3.3-.4 23.5-30.6 32.2-82.3 24.5-119.4 8.3-5 16.5-11.1 21.1-19.3 7.7-12.8-4.2-27-8.8-38.5zm-2.8 11.9c2.3 4.2 4.6 8.4 6.7 12.7-6.7-6.1-18.8-7.1-27.1-5.1-1.3-2.8-3.9-4.9-6.6-6.4 1.5-6.5 9.6-11.7 16.1-14.3 4.5 2.4 7.3 6.5 10.9 13.1zm-12.1 38.3c-6.1 3.3-12.2 7.3-18.8 8 2.6-8.2 2.5-17.1-.1-25.3 2.5-.1 4.9-.9 7.1-2.2 7 4.1 12.3 11.2 11.8 19.5zM672.2 500.4c-.2-28.8 22.7-53 37.9-75.7 16.1-24.1 29.6-49.6 39.5-76.9 6.1 3 11.5 6.2 19.1 4.2-2.5 30.1-12.8 59-25.7 86.1-11 23.1-25.9 47-47.7 61.2-7.8 1.7-15.6 2.1-23.1 1.1zm-22.7 86c3.7-28 5-56.5 6.5-84.7 2 1.4 4.1 2.6 6.5 3.5 5.2 2 10.6 3 16 3.3-3.7 25.7-7.4 52-15.4 76.8-4.5.4-9 .8-13.6 1.1zm-100-1.5c-9.7-40.7-17.1-82-23.7-123.3 6.7-2.4 12.6-6.1 17.5-10.7 4.9 45.4 11.4 90.6 20.5 135.4-4.8-.4-9.6-.8-14.3-1.4zM410.7 251.2c5 .3 9.7 1.4 14.5 2.3-.4 26.8 1.7 53.1 8.2 79.3 5.5 22.1 13 45.1 27.3 63.2 12.4 15.7 28.2 28.5 46.8 36.2 11.5 4.8 27.9 7.8 40.1 2.2-5.3 9.4-13.8 17-26.2 21.3-3.6 1.3-7.2 2.2-10.8 2.8-18.5-.2-38.1-9.8-51.9-20.6-19.1-15-30.5-37.7-39.2-59.8-16.2-41-18.8-83.9-8.8-126.9zm10.6-29.2c1.5-1.6 4.2-2.5 6.4-3.2 2.9-.9 6-1.6 9.1-1.5 2 .1 1.7 1.1-.2 2.7-2.8 2.5-9.3 3.9-12.9 3.4-1.1-.1-3.3-.4-2.4-1.4zm49.7-23.3c7.8 5.6 16.3 14.2 14.7 20.9-10.5-7.6-28.6-7.7-40.4-3.4-.2-1-.5-1.8-1-2.5 3.9-2.9 6.8-6.9 10-10.5 2.4-2.7 5-5.7 6.1-9.2 3.5.6 7 2 10.6 4.7zm40.1-41.2c2.8-30.4 6.8-77.2 35.3-96.4 7.6-3 15.6-5.3 23.7-6.8-14.1 14.7-20.8 36-25.5 55.3-5.8 23.8-8.2 48.3-10 72.7-4.2 57.2-2.3 114.7.9 171.9-2.1-1-4.1-1.9-6.1-2.8-3.6-1.7-6.7-3.7-9.5-5.9 1.1-.7 1.5-2.8 1.7-3.9.5-2.7.2-5.4-1.1-7.8-.2-.3-.6-.2-.6.2 0 2.7-.5 5.3-.8 7.9 0 .2-.4 1.5-.5 2.5-3.2-2.8-5.8-6-7.9-9.4-4.4-59-5-118.7.4-177.5zm3.6 193.2c6.3 4.6 13.2 7.4 20.1 10.9 10.5 5.5 14.4 15.2 17 26.2.7 2.7 1.1 5.4 1.5 8.1-35.1 6.7-62.7-19.5-77.9-48.9-16.2-31.3-20.9-67.5-18.5-102.3 4.6-3.8 9.5-7.5 16.3-9.4v.1c16.5 20.3 17.1 45.8 20.5 70.5 2.2 15.6 7.6 35 21 44.8zm35.5 78c-13 10.1-34.3 3.9-47.5-2.4-17.7-8.4-32.6-22.5-43.7-38.5-12.6-18.1-18.8-40.9-23.8-62.1-5.6-23.5-7-47.6-6.6-71.6 1 .2 2 .3 3.1.4 9.7 1.2 15.8-2.4 21.5-6.9-2.1 37.8 4.6 75.7 23.4 108.9 15.6 27.6 44.7 48.6 77.1 42.7 1.1 10.5.1 20.6-3.5 29.5zm-77.6-200.5c-6.5 1.4-11 3.5-16.1 7.8-3.1 2.7-6 5.2-9.1 7.2 0-6.3-1.9-13.6-6.3-17.8 1.9-1.5 3.4-3.3 4-5.4 10.5-4.5 29-4.6 38.9 2.8-1.9 2.3-5.5 4.2-11.4 5.4zm-45.9 2.2c1.9-.1 3.8-.4 5.4-.7 1.8-.4 3.9-1.2 6-2.3 4.6 3.8 6.4 12 5.9 17.9-4.6 2.2-9.6 3-16.1 1.2-2.6-.7-5-1.3-7.3-1.7 1.1-5.3 2.2-10.4 6.1-14.4zm140.7 356.1c-9.4-45.9-16-92.3-20.9-138.9 19.6-22 21-60.5 2-84.3-2.5-3.1-5.8-5.4-9.4-7.3-3.2-55.9-5.4-112.5-1.4-168.4 1.7-23 3.7-46 8.3-68.7 4.6-22.9 11.9-49.5 30.1-65.6 4.3-.6 8.6-1.1 12.9-1.3-12.3 23.2-13.7 53.1-15.2 78.5-2.1 36-1.1 72.1.3 108.1 3.2 79.7 4 159.6 7.9 239.3 1.8 36.6 3.9 73.4 9 109.7-7.8-.2-15.7-.5-23.6-1.1zm27.2 1.1c-5.7-40-7.7-80.5-9.6-120.8-2.1-46.9-3.3-93.9-4.5-140.8-1.7-67.9-7.5-136.3-2.7-204.1 1.6-23 3.7-49.6 15.3-70.2 1.3 0 2.5 0 3.8-.1 9 6.8 13.8 18.3 17.4 28.7 5.3 15.2 8 31.4 10.1 47.3 4.9 36.7 5.7 73.9 5.4 110.9-.6 73.3-6.6 146.7-9.1 220-.9 26.8-1.7 53.7-2 80.5-.2 16.1-.6 32.3.7 48.4-3.3.1-6.6.1-9.8.2-5 .1-10 .1-15 0zm28.3-.2c-2.2-24.5-.8-49.6-.3-74.2.9-39.5 2.4-79 4.1-118.5 3.1-71.4 8.8-142.8 5.7-214.3-1.3-28.2-3.6-56.7-10-84.3-3.4-14.9-8.4-33.2-20-44.4 5.4.1 10.7.6 15.9 1.3 42.7 37.2 39.8 101.7 40.8 153.4 1.4 75.5-.5 151-3.4 226.4l-.1.1c-15.8 15.1-20.2 50-2.9 66.2-1.5 29.1-2.7 58.6-6.6 87.5-7.8.4-15.6.7-23.2.8zM657 66.1c12.4 14 17.6 33.2 22.5 50.8 6.3 23 10.6 46 12.5 69.8 1.9 24.1 2 48.3 2.2 72.5.1 12.1-.1 24.3-.5 36.4-.3 10.5.4 21.6-1.2 32.1-4.5 7.6-7.3 16.2-8.7 25.8-2 13.2-1.2 26.5-3.6 39.7-.5 2.9-1.3 5.6-2.3 8.2-1.7-3.4-4.1-6.5-6.7-9.1-.2-.3-.7 0-.6.3 1.2 3.9 3.8 7.4 6.7 10.3-3.9 10.1-10.4 18.5-18.2 26.4 2.9-76.6 4.8-153.3 3.2-229.9-1-49.3.1-108.6-37.9-145.4 2.7.5 5.4 1 8.1 1.6 9.3 2.1 17.3 5.8 24.5 10.5zm89.1 28.2c2.6 16.3-1.5 35.1-4.4 50.9-3.9 21.3-9.7 43.2-19.8 62.6-1.6-20.6-4.4-41.8-9.3-61.8 6.5-18.3 13.8-36.3 25.4-52.1 2.7 0 5.4.1 8.1.4zm-10.7 184.6c4.4-1.3 8.2-2.8 12.2-3 3.9 4.6 4.7 13.8 3.5 19.2-2.4.3-4.7 1.3-6.5 3.3-5-7.2-12.8-14.4-21.4-16.2 4.1-1.5 8.6-2.3 12.2-3.3zM761 304c2 .9 5 2.3 5.9 4.5.4 1.2-.2 1.8-1.1 2.4-4 2.6-9.6.3-13-2.2-1.2-.9-2.6-2.6-2.9-3.7-.9-2.4.6-3.2 3-3.2 2.8 0 5.6 1.1 8.1 2.2zm-2.1 40.1c-3.2-.3-6.5-1.4-10.1-3.9-3.7-2.6-7.9-3.1-12.1-3.8 2.4-8.1 7.3-16.9 14.8-20.2 2.2 1.3 4.7 2.1 7.2 2.5 3 8.2 3 17.2.2 25.4zm-91.5 155.5c-6.7-1.5-11.2-5.9-14.2-11.7-4.6-27.3 23.2-42.5 36.8-62.3 17.8-26 17.7-60.4 30.1-88.9 3.8 4.1 8.9 6.8 14.6 6.9 4.5.1 8.3 1.3 11.7 2.7-10.9 30.2-26.4 57.7-44.4 84.2-14.3 21-33.1 42.6-33.3 69.3-.4 0-.8-.1-1.3-.2zm49.3-214.1c10.5-1.7 20.5 7.9 25.9 16.3-.2.9-.2 1.7-.1 2.6-9.5-.7-18.9 3.8-25.4 10.7-1.4-5.4-2.5-11-3.8-15.3-2.1-7.2-.1-11.5 3.4-14.3zm26.9 22.5c1.1 2.3 2.9 4.4 4.7 5.9-7.6 4.4-12.6 13.3-15.1 21.8-3.8-.9-7.4-2.5-10.3-6.5-2-2.7-3.5-6.3-4.7-10.2 6.2-7.3 15.8-12.4 25.4-11zm-29.1 19.7c.7 2.1 1.8 4.2 3.1 6.1-14.1 31-13.2 69.4-35.4 96.5-12.4 15.2-30 27.8-32.6 46.9-1.5-7.6-1.2-15.7.2-21.7 3.6-15.5 19.9-25.3 28.4-38.1 20.6-30.8.2-75.9 32.5-99.7 1.4 3.6 2.8 7 3.8 10zm56.7-45.5c2.6.1 4.8.4 6.7.9-6.3 3.1-12.5 8.2-14.5 14.5-2.7-1.1-5.8-2.2-8.9-2.5 1-5.5.4-13.4-2.6-18.9 1.3.2 2.6.6 4 1.2 5.2 2.1 9.5 4.4 15.3 4.8zm11.9-131.8c1.6 39.5-12.1 83.1-26.6 119.7-1.4-.7-2.9-1.2-4.5-1.4-6.1-.7-11.9 1.4-17.6 3.2 25-51.3 41.1-114.2 30-170.9 14.8 10.5 18.1 32.8 18.7 49.4zm-22.7-51.9c12.4 57.7-4.6 122.6-30.5 174.6-1.8.5-3.6.9-5.5 1.4-.3-18-.6-38.8-2-60.4 11.9-20.8 18.2-44.7 22.7-68.1 3-15.9 6.9-34.7 4.6-51.2 3.3.7 6.6 1.7 9.7 3.1.4.3.7.5 1 .6zm-26.9-4.2c-9.7 14.1-16.5 29.7-22.4 45.7-2.8-10.2-6.2-20.1-10.3-29.3 8.5-9 20.3-14.8 32.7-16.4zm-28.7 54c10.8 41.5 12 86.1 12.7 128.7-3.8 1.7-7.3 4.1-9.5 8-4.2 7.2-2.6 16.8.3 25.9-4.7 3.2-8.6 6.9-11.8 11 .4-6.5.2-13.1.4-19.7.5-13.2.7-26.4.7-39.7 0-26.3-.4-52.8-2.5-79.1-1.9-23.8-6.7-46.8-13-69.8-3.7-13.4-7.9-27.7-15.2-39.8 20.2 18.7 30.9 47.3 37.9 74.5zM547.9 31.8c6.7-5 4.5-8.3 17.2-9.1 9.3-.6 18.3 2.7 27.7 1.9 8.1-.7 14.2-1.3 22 1.6 8 3 38.9 11.3 29.1 26.1-4.7-1.9-9.7-3.5-14.9-4.8-27.2-6.4-59.8-3.5-87.1 8-8.4-8.4-2.9-17.1 6-23.7zm-33.4 49c6.1-5.7 13-10.5 20.5-14.5-18.4 20.1-23 53.8-26.1 78.8-7.3 59.9-6.5 121.6-2.3 181.8-2.3-5.5-4-11.5-5.3-17.8-5.6-26.8-4.3-53.1-21.1-75.8 7.2-2.4 15-6.9 15.1-14.9.2-11.8-6.9-16.5-15.2-21.8.1-40.3 3.3-86.6 34.4-115.8zm-77.6 118.1c7-2.6 13.5-5.2 20-5.2-1.2 3.3-4.3 6.2-6.4 8.6-2.8 3.2-5.3 6.7-8.9 9.1-1.9-.9-4.3-1.1-6.8-1-.1-3.5-.5-7.4-1.6-10.9 1.3 0 2.6-.2 3.7-.6zm-14.3-.6c2.1.2 4.5.7 6.9 1 1.5 3.4 1.8 7.9 1.9 11.5-1.8.3-3.5.7-4.8 1.1-1.8.5-4.2 1.4-6.5 2.6-4.3-6.2-13.3-10.4-21.6-11.5 7.2-4 15.1-5.5 24.1-4.7zm-33.2 11.2c1.3-1.2 2.6-2.3 4-3.3 8.2-.4 19.1 3.7 23.8 10.2-2 1.6-3.5 3.7-3.4 6.1-6-.1-12 2.6-17.3 5.2-3.1 1.5-8.3 3.9-10.8 7.4-4.9-7.5-4.8-18 3.7-25.6zM388 238c1.1-3.3 7.6-6.1 10.1-7.3 4.9-2.5 11.1-5.2 16.8-4.7 1.6 2.6 4.3 3.8 7.4 4.3-3 4.1-4.1 8.9-5.1 13.9-3.5-.4-7-.5-11.3 0-7.4.8-13.7-1.8-17.9-6.2zm18.4 159.9c-24.7-42.2-37.4-103.5-8.9-146.8.1-.1.1-.2.2-.3 2.5.4 5.1.5 8.2.4h1.2c-10.3 45.2-6.6 89.4 10.7 132.4 9.1 22.7 21.7 44.7 41.7 59.4 9.8 7.2 22.1 13.6 34.8 16.8-37.1-1.5-69.7-30.8-87.9-61.9zm112.4 65.6c1.3-.3 2.5-.6 3.7-.9 6.5 40.8 13.8 81.6 23.3 121.9-5.4-.7-10.8-1.5-16.1-2.4-9.5-38.5-15.9-77.8-22.1-117 3.7-.3 7.4-.8 11.2-1.6zm3.5 117.4c-4-.8-8-1.6-12-2.5-7.9-1.8-35.3-8.9-28.9-22.1 4.8-10 21-14.1 31.9-16.9 2.7 13.9 5.6 27.7 9 41.5zm191.9 156.4c-18.6 36.6-73.1 42.9-109.1 43.4-36.4.5-84.8-7.6-106.8-39.9-16.4-24.1-11.3-62-10.6-90.8.2.1.5.2.7.3 35.8 13 79.1 13.5 116.7 13.5 38.6 0 79.9-1.7 117-13.5.2-.1.4-.2.7-.2.3 28.3 4.5 61.4-8.6 87.2zm34.6-181.7c4.8 14.1.8 35.2.8 49.9 0 7.9.4 15-3.8 22-6.9 11.3-23.5 15.7-35.2 18.9-31.6 8.7-66.2 9.8-98.8 10.4-31.8.5-63.8-1.8-95.2-6.8-18.3-3-29.9-5.6-41.2-12.7-8.4-5.2-14.4-12.6-14.6-23.2-.2-17.5.3-35 0-52.5-.3-22.9 31.9-31.2 49.9-35.4.4 2.1.8 4.3 1.2 6.4-16.7 4.7-51.3 17.4-33.9 38.2 10.3 12.4 33.2 15.2 47.6 17.7 25.7 4.4 51.8 5.9 77.8 6.1 23.6.2 47.4-1.2 70.8-4.6 17.6-2.5 42-4.5 56-17.3 23.2-21.4-18.2-36.4-34.2-40.8l1.2-6.3c18.5 4.1 45 10.4 51.6 30zm-54-16.8c11.2 3 22.8 6.4 31.7 14.2 14 12.2-13.6 21.6-21.1 23.9-7 2.2-14.2 3.9-21.5 5.3 4.9-14 8.1-28.6 10.9-43.4zm-18.7 44.8c-3.1.5-6.2.9-9.3 1.2 7.8-24.7 11.5-50.7 15.1-76.3 4 0 8-.5 11.9-1.3-5.2 25.5-8.7 52-17.7 76.4zm85.6-136.5c-10.2 21.3-32.4 41-56.8 49.4 17.4-14.1 30-34.3 39.8-54.1 14.3-28.7 25.2-59.8 27.6-91.9.8-.3 1.6-.7 2.4-1.2l3.3-1.8c6.2 32.8-2.1 70-16.3 99.6zm23.2-112.8c-.3-8.4-5.4-15.6-12.6-20.1 1.1-1.5 1.7-3.4 1.6-5.3 9-2.2 24.2-.7 27.2 9.6-1.5 7.6-10.1 12.7-16.2 15.8z"/><path class="st12" d="M695.7 745c-31.1 22-72.4 28.6-109.6 24.6-.2 0-.2.3-.1.4 18.3 5.8 38.8 3.9 57.4.5 19.4-3.6 38.7-10.6 52.9-24.6.4-.5-.1-1.3-.6-.9z"/></svg>