<svg version="1.1" id="e37c00f5-ff96-45aa-87ea-1a24b78ba7bd" xmlns="http://www.w3.org/2000/svg" x="0" y="0" viewBox="0 0 1176.6 874" style="enable-background:new 0 0 1176.6 874" xml:space="preserve"><style>.st1{fill:#be6f72}.st2{fill:#3f3d56}.st4{opacity:.1;enable-background:new}.st7{fill:#7703fc}.st8{opacity:.1}.st9{fill:#ffca45}.st10{opacity:.1;fill:#fff;enable-background:new}.st12{fill:#656691}.st13{fill:#fbbebe}.st16{opacity:.1;fill:#00e4ff;enable-background:new}</style><linearGradient id="SVGID_1_" gradientUnits="userSpaceOnUse" x1="871.3" y1="237.55" x2="871.3" y2="640.155" gradientTransform="matrix(1 0 0 -1 -28 854.15)"><stop offset="0" style="stop-color:gray;stop-opacity:.25"/><stop offset=".54" style="stop-color:gray;stop-opacity:.12"/><stop offset="1" style="stop-color:gray;stop-opacity:.1"/></linearGradient><path d="M969.1 431.6c-1.4-1.1-3.1-1.8-4.9-2.1-1.9-.4-3.8-.7-5.7-1l-24.6-3.5c-2.5-.5-5-.6-7.5-.4-2.6.2-4.9 1.4-6.6 3.4-.7.9-1.1 2-1.1 3.2.1 1.2.5 2.3 1.1 3.3l.6 1.5c.2 1.1.5 2.2.9 3.4.1.2.3.5.4.7v.2c-.3 1.4.6 2.8.2 4.1-.3 1.1-1.5 1.8-2.2 2.8-1 1.4-1 3.2-.1 4.6.8 1.2 2.1 2 2.5 3.3.5 1.8-.9 3.4-2.1 4.8-2.3 2.5-4.4 5.1-6.3 7.9-.5.7-.9 1.5-1 2.4-.1 1.7 1.6 3.3 1.3 5-.2 1.4-1.6 2.2-2.7 3-4.2 2.8-7.7 7.3-8 12.4-1.1-8.1-4.4-15.7-9.7-22-1.4-1.7-3-3.5-3.6-5.6-.2-.9-.3-1.8-.6-2.6-1-2.6-4.2-3.8-5.6-6.2-1-1.7-1-3.9-2.2-5.4s-3.2-1.9-4.3-3.3c-.5-1-1-2-1.4-3.1-.4-.9-1.1-1.6-1.8-2.2-.1-.1-.3-.2-.5-.3.3-.3.5-.7.5-1.2 0-1.2-1.2-1.9-2.2-2.5-1.3-.7-2.6-1.5-3.8-2.4 1.4-.6 2.5-1.6 3.4-2.8 1.1-1.8 1.6-3.9 1.3-6-.1-1.7-.7-3.3-1.8-4.6-.6-.7-1.4-1.1-2.1-1.8-1.7-1.7-2.3-4.1-3-6.4-.9-3-2.4-6.1-5.2-7.7-1.3-.8-2.9-1.1-4.2-1.9s-2.4-2.3-1.9-3.8c.3-1 1.2-1.7 1.9-2.5 1.6-2.3 1-5.4-1.3-7-.7-.5-1.7-.9-1.8-1.7-1.2-.3-2.1-1.3-2.3-2.5s-.2-2.4 0-3.6c.3-1.9.5-3.7.8-5.6.9.4 1.9.4 2.8 0 .9 1.4 1.9 2.7 3 3.9 3 3.6 5.4 7.7 7 12.1.6 1.6 1.2 3.4 2.6 4.2.5.3 1.1.4 1.6.8.6.4 1.1 1 1.6 1.6l3.6 4.8.1.2c0 .1.1.3.2.4.2.2.5.4.9.4 3.7.9 7.8 1.6 11-.4 2.9-1.8 4.1-5.4 6.6-7.7 1.7-1.7 4.2-3 4.7-5.4-.6-.2-1.2-.4-1.7-.6.5-.5 1-1.1 1.7-1.7 1-1 1.9-2 2.7-3.2.8-1.4 1.5-2.9 2-4.5 1.9-5.5 3.9-11 5.8-16.5.9-2.6 1.8-5.2 3-7.8 1.2-2.7 2.6-5.4 3.9-8.1 3.4-7 6-14.3 7.8-21.9.3-1 .4-2.1.3-3.2-.3-1.7-1.6-3.1-2.8-4.3-1.3-1.4-2.7-2.5-4.3-3.5s-3.5-1.3-5.3-.9c-2.6.8-4.2 3.4-4.8 6s-.4 5.3-.6 8c-.4 3.9-1.7 7.6-2 11.4-.2 2.2 0 4.5-.3 6.7-.5 2.9-1.5 5.7-3 8.3-3.2 6.1-7.6 11.5-12.9 15.9l-1.8 1.5c0-.4.1-.9.1-1.3-.4.1-.9.3-1.3.5.1-.5 0-1-.2-1.5-.8-2.4-4.4-3-5-5.4-.1-.6-.2-1.2-.2-1.8-.2-2.1-1.7-3.9-2.2-6-.5-1.9-.1-4-1-5.8-.8-1.1-1.7-2.1-2.7-3-1.2-1.4-2.1-3-2.5-4.8-.1-.5-.2-1-.4-1.5.2-1.1 0-2.2-.4-3.3-.9-2.3-3.3-3.7-4.1-6-.7-1.8-.4-4-1.6-5.4-.7-.7-1.5-1.1-2.4-1.4-4.6-1.8-9.4-2.9-14.3-3.4-2.7-.2-5.8-.4-7.7-2.3-2.3-2.2-2.4-6.3-5.1-8-2.4-1.5-5.7-.4-7.5 1.8-.3.3-.5.7-.8 1-.3-1.3-.4-2.7-.2-4.1 0-.3.1-.7.1-1 4.5-1.5 8.4-4.5 10.8-8.6v.1l.1.3c.3.7.8 1.4 1.4 1.5.5 0 .9-.2 1.2-.5.6-.4 1.2-.9 1.7-1.4.3-.3.5-.6.7-.9.5-.6.9-1.3 1.2-2 .5-1.1.8-2.2 1-3.4.2-1.2.2-2.4.4-3.5.2-.9.4-1.8.7-2.6l.3-.9c.1-.3.2-.7.3-1 .6-2.1 1-4.2 1-6.3v-1.1c-.1-2.8-1.3-5.5-3.4-7.5-1.7-1.4-4-2-5.3-3.9-.8-1.3-1-2.9-1.5-4.4-1.1-3.7-4.1-6.4-7.9-7.1-2.2-.2-4.4.4-6.2 1.7l-.1.1c-1 .8-1.8 1.7-2.5 2.8-1.3-.4-2.5-1.1-3.5-2s-1.8-2.1-2.8-3c-1.9-1.8-4.7-2.3-7.1-1.5-2.5 1-4.4 3.2-5.1 5.8-.5 2.1-.5 4.4-1.6 6.1-.9 1.3-2.3 2-3.4 3.2-.6.8-1.1 1.7-1.3 2.7-.1.5-.2 1.1-.2 1.7 0 .2 0 .5.1.7v.1c0 .3.1.5.2.8.3 1 .8 2 1.5 2.7.7.8 1.5 1.4 2.4 1.7.4.1.8.3 1.2.4l1.2.3.4.1c-2.9 5.5-3.1 12-.6 17.6 0 .3-.1.6-.1.8-.2 3.9 0 7.9.5 11.8.1 1.5.2 3.3-.7 4.5-.4.5-.9.9-1.5 1.3.5-.7 1.1-1.4 1.7-2.1-1.4-1.4-3.6-1.6-5.6-1.5-3.9.3-7.6 1.4-11 3.4-2.2 1.3-4.5 3-7.1 2.7-1.5-.2-3-1-4.5-.6-.8.3-1.6.8-2.3 1.4-.5.4-1.2.6-1.9.6-1.6-1.9-4-3.2-5.9-4.8-2.1-1.9-4.1-4-5.8-6.3-3.2-3.9-6.5-7.8-9.7-11.8-2.7-3.3-5.4-6.9-5.9-11.2 0-.4-.1-.8-.1-1.3.1-2 .3-4 .8-6 .1-.5.1-1 0-1.5-.3-1-1.5-1.4-2.4-1.6.1-.8.2-1.6.3-2.3.6-8.6 0-17.3 1.8-25.8.7-3.2 1.8-6.5 4.2-8.9 3.7-3.7 9.8-4.6 12.6-8.9 2.3-3.6 1.4-8.8-1.5-12s-7.5-4.5-11.8-4.4c-1.2 0-2.4.3-3.4.9-1 .9-1.7 1.9-2.1 3.2l-4.3 10.4c-1.2 2.7-2.3 5.5-3.1 8.4-1.2 4.4-1.5 9-2.4 13.4 0 3.4-2.2 7.6-3.4 10.8-1.3 3.5-2.8 7-4 10.6-.3.9-1.3 3.6-2 6-.2.1-.5.3-.7.5-.5.7-1 1.4-1.4 2.1-.9 1.2-2.4 1.8-3.4 3s-1.2 3.3.2 3.9c.3.1.6.2.9.2.2 0 .4 0 .5.1 1.5.4 2.1 2.3 1.9 3.9s-1 3-1.1 4.6c-.3 2.8 1.3 5.3 2.9 7.6 1.6 2.5 3.4 4.9 5.3 7.2 1.4 1.6 3 3 4.4 4.5 5.4 5.6 9.7 12.1 14.6 18.1 1.7 2.3 3.7 4.4 5.9 6.2 1.4 1.1 2.9 2.2 4.5 3.1l8.4 5.3c.9.7 2 1.2 3.2 1.5h1.1c0 .2.1.5.2.7.7 2.6 2.1 5 2.2 7.7s-.1 5.4.1 8.1c.2 2.5.7 5 .9 7.5.3 4.7-.9 9.4-2 14-1.7 6.8-2.7 13.7-6 19.8-.9 1.7-2 3.4-2 5.3 0 .2 0 .5.1.7l-1.5.9c-.4.2-.9.5-1.3.8-1.9 1.2-3.9 2.6-4.7 4.8-.6 1.7-.3 3.7-1.1 5.4 0 .1-.1.1-.1.2-.8 1.6-2.4 2.7-2.8 4.4-.3 1.3.2 2.7 0 4-.2.7-.4 1.3-.5 2 0 .2 0 .4.1.7.2.8.6 1.4 1.2 2 .4.3.8.7 1.2.9.4.3.9.5 1.3.8l.3.1 1.2.6.3.1c.5.2.9.4 1.4.5l.3.1c.4.1.7.2 1.1.3l.2.1h.2l1 .2.4.1c.4.1.9.1 1.3.2h.4c.3 0 .7 0 1 .1h1.9c.5 0 .9-.1 1.4-.1h.2c.4-.1.8-.1 1.3-.2l.3-.1 1.2-.3.2-.1c.5-.1.9-.3 1.4-.5 1.6-.7 3.1-1.4 4.6-2.3 1-.5 2-1.1 3-1.6.7-.4 1.5-.7 2.3-1 1.9-.8 3.9-1.2 6-1 1 .1 2 .3 3 .6v.3l2.4 14.4c1.3-.9 2.7-1.8 4.1-2.5-.3.7-.4 1.5-.5 2.2-.1.6-.1 1.2 0 1.8.1 1 .3 2-.3 2.8-.3.5-1 .7-1.2 1.2-.1.5-.2 1.1-.1 1.6-.1 1.3-1.1 2.3-2.4 2.4.6 1.7 0 3.5-1.5 4.5-.4.2-.8.5-1.2.8-.3.4-.6 1-.7 1.5-1.3 5-4 9.4-7.8 12.9-1.4 1.1-2.7 2.4-3.9 3.8-.7 1.1-1.3 2.2-1.8 3.5-2.7 6.5-5.4 13-8.1 19.6-1.5 3.7-3 7.4-3.5 11.3-1.2 10.8-10.8 19.9-9 30.6.4 2.7 1.4 5.2 3.1 7.3 2 2.4 5 3.8 8 4.9 7.7 3 15.8 4.6 23.9 6.3l12.7 2.6c2.5.6 5 1 7.6 1.2 3.1.2 6.2-.1 9.2.7 1.8.5 3.6 1.4 5.5 1.5 1.6.1 3.7-.3 4.6 1.1s.2 3.1 1.1 4.3c1.5 1.9 5.1 0 6.7 1.8.4.7.8 1.4 1 2.2.2.5.6.9 1 1.3.1.6.1 1.1.1 1.7-.2 2.3-.7 4.6-1.4 6.8-1.2 4.1-2.4 8.1-3.6 12.2-.5 1.4-.8 2.9-1 4.4-.1.7-.1 1.5 0 2.2.2 2.2 1.5 4.5 3.6 5.2 1.6.4 3.4.2 4.9-.6 1.4-.7 2.8-1.7 4-2.7 2.2-1.7 4.2-3.7 5.8-5.9 5-7.5 3.4-17.6 6.9-25.9 2.3-5.5 6.9-10 8.4-15.8.4-1.1.4-2.3.1-3.4-.6-2-2.8-3.1-4.8-3.9h.1c-1.6-.6-3.3-1.1-5-1.4-.4-.1-.8-.2-1.3-.2-1-.8-1.7-1.8-2.2-2.9-.1-.6-.2-1.2-.5-1.7s-.9-.8-1.4-.8c-1-.1-2.3.3-3.4.2-2.2-.2-3.7-2.3-5.7-3.4s-4.2-.8-6.3-.6c-.8.1-1.5.1-2.3-.1-.9-.4-1.7-1-2.4-1.7-2.5-1.9-5.8-2.6-8.8-1.8-1 .4-2 .6-3 .7-2-.1-3.3-1.8-4.8-3.2-3.9-3.6-9.5-4.6-14.3-6.9-.7-.3-1.3-.8-1.7-1.5-.5-1.4.7-2.7 1.8-3.7l8.2-6.8c9-7.5 20.2-13.1 24.4-24.1.4-1.5 1.1-2.9 2-4.1.3-.4.7-.7 1.1-1 1.8-1.2 4-1.6 6.2-1.2 2.6.6 5.1 1.7 7.2 3.2 3.6 2.2 7.1 4.5 10.5 7 3.4 2.4 6.5 5 9.6 7.8 5.2 5 9.6 10.9 14.5 16.3s10.5 10.4 17.3 13 15 2.5 20.8-1.9c6.7-5 8.9-13.9 10.6-22.1 3.8-3.6 4.9-9.1 6.7-14 1.2-3.1 2.6-6 3.9-9.1 1.5-3.6 2.6-7.4 3.8-11.1 1.3-3.7 2.2-7.6 2.7-11.6.5-6.2-1.2-12.9.6-18.7 2.3-.5 4.4-1.8 6.7-2.6 3.4-1.1 7-.9 10.6-.9h.2c1.2.1 2.5-.2 3.5-.8 1.2-1 1.4-2.7 1.5-4.3-.1-3.9-.3-8.2-3.2-10.6zM824.2 261c-.8.2-1.7.3-2.5.2l2.5-.2z" style="fill:url(#SVGID_1_)"/><path class="st1" d="M828.1 324.2c-1.2 1-2.6 1.8-4.2 2.2l-7.1 2.5c-3.8 1.4-7.9 2.8-11.9 2.3-2.3-.3-12-1.7-13.5-3.5-2.2-2.7 5.6-6.8 8.3-9.1.6-.4 1.2-.9 1.7-1.5 1-1.2.9-2.9.7-4.5-.5-3.9-.7-7.8-.5-11.8.1-.9.2-1.9.4-2.8 1-4.6 5.3-2.9 8.7-1.7 4.1 1.3 8 3 11.8 5.1 1.1.6 2.1 1.4 2.9 2.5 1.5 2.2.9 5.2.7 8-.2 2.2-.2 4.3 1.2 5.9.7.6 1.3 1.3 1.9 2 .5 1.6.2 3.4-1.1 4.4zM730.2 252.2c1-4.4 1.2-9 2.4-13.4.8-2.9 1.9-5.6 3.1-8.4l4.4-10.3c.4-1.2 1.1-2.3 2.1-3.1 1-.6 2.2-1 3.4-.9 4.3-.2 8.8 1.2 11.8 4.4s3.9 8.3 1.5 11.9c-2.8 4.4-8.9 5.2-12.6 8.9-2.3 2.4-3.5 5.6-4.2 8.9-1.8 8.4-1.2 17.1-1.8 25.7-.2 2.7-.7 5.7-3 7.1-1.4.7-2.9 1-4.5.9l-6.6.1c-1.1 0-5.1.7-5.8-.1-1.3-1.5 1.6-8.7 2.2-10.3 1.2-3.6 2.6-7 4-10.6 1.4-3.2 3.6-7.4 3.6-10.8z"/><path class="st2" d="M865.7 566.3c-1.5 5.8-6 10.3-8.4 15.8-3.5 8.2-1.9 18.3-6.9 25.8-1.6 2.3-3.6 4.3-5.8 6-1.2 1-2.6 1.9-4 2.7-1.5.8-3.2 1-4.9.6-2.1-.7-3.4-3-3.6-5.2-.1-.7-.1-1.4 0-2.2.2-1.5.5-3 1-4.4 1.2-4 2.4-8.1 3.6-12.2.7-2.2 1.2-4.5 1.4-6.8.1-2.5-1.5-5.8-.8-8.2.3-1.1 1.5-2 2-2.9.8-1.3 1.3-2.7 1.7-4.1.8-2.8 1.4-5.8 3.1-8.1 1.1-1.4 2.4-2.6 3.9-3.7 1.1-.9 2.3-1.7 3.7-2.1 1.3-.2 2.7-.2 4 .2 1.7.4 3.4.8 5 1.4h.1c2 .7 4.1 1.8 4.8 3.8.4 1.3.4 2.5.1 3.6zM972.1 443.4c-.1 1.5-.2 3.3-1.5 4.2-1 .7-2.3 1-3.5.8h-.3c-3.6 0-7.2-.2-10.6.9-2.6.9-4.9 2.4-7.6 2.7-3.7.4-7.2-1.6-10.4-3.4-3.1-1.7-6.2-3.2-9.5-4.5-2.1-.9-6.5-1.4-7.5-3.8l-.9-3.3-.6-1.5c-.6-1-1-2.1-1.1-3.3 0-1.2.4-2.3 1.1-3.2 1.6-2 4-3.2 6.5-3.4 2.5-.2 5.1-.1 7.5.4l24.6 3.5c1.9.3 3.8.5 5.7 1 1.8.3 3.5 1 4.9 2.1 3.1 2.7 3.3 7 3.2 10.8z"/><path d="M950.4 449.8c-3 6.3-.8 13.8-1.4 20.8-.5 3.9-1.3 7.8-2.7 11.5-1.2 3.7-2.3 7.5-3.8 11.1-1.2 3-2.7 6-3.9 9.1-1.8 4.9-3 10.4-6.7 14-1.7 8.2-3.9 17.1-10.6 22.1-5.8 4.3-14 4.5-20.8 1.9s-12.4-7.6-17.3-13-9.3-11.3-14.5-16.3c-3-2.8-6.2-5.4-9.6-7.8-3.4-2.5-6.9-4.8-10.5-6.9-2.2-1.5-4.6-2.6-7.2-3.1-2.1-.4-4.3 0-6.2 1.2-.4.3-.8.6-1.1 1-.9 1.2-1.6 2.6-2 4.1-4.2 10.9-15.5 16.6-24.5 24l-8.2 6.8c-1.1.9-2.4 2.3-1.8 3.6.4.7 1 1.2 1.7 1.5 4.8 2.4 10.4 3.3 14.3 6.9 1.4 1.3 2.8 3.1 4.8 3.2 1-.1 2-.3 3-.7 3.1-.8 6.3-.2 8.8 1.8.7.7 1.5 1.2 2.4 1.7.7.2 1.5.2 2.3.1 2.1-.2 4.4-.3 6.3.6s3.5 3.2 5.7 3.3c1.1.1 2.4-.3 3.4-.2.6 0 1.1.3 1.4.8.2.5.4 1.1.5 1.7.4 1.4 1.8 2.3 2.7 3.4 1.4 1.8 1.6 4.2 1.4 6.5-.5 7-3.6 13.6-8.8 18.4-1.5 1.5-3.3 2.5-5.4 3-2.1.4-4.3-.5-5.3-2.4-.2-.8-.6-1.5-1-2.2-1.6-1.8-5.2.1-6.7-1.8-.9-1.2-.3-3.1-1.1-4.3s-3-1-4.6-1.1c-1.9-.1-3.7-1-5.5-1.5-3-.8-6.1-.5-9.2-.7-2.6-.2-5.1-.6-7.6-1.2l-12.7-2.6c-8.1-1.7-16.2-3.3-23.9-6.3-3-1.1-5.9-2.5-8-4.9-1.7-2.1-2.8-4.6-3.1-7.3-1.8-10.7 7.8-19.8 9-30.5.4-3.9 2-7.6 3.5-11.3l8.1-19.5c.4-1.2 1-2.4 1.7-3.5 1.2-1.4 2.4-2.7 3.9-3.8 3.8-3.4 6.5-7.9 7.8-12.8.1-.6.3-1.1.7-1.5.4-.3.7-.5 1.2-.8 1.5-1 2.1-2.8 1.5-4.5 1.3-.1 2.3-1.1 2.4-2.4-.1-.5 0-1.1.1-1.6.2-.5.8-.8 1.2-1.2.6-.8.4-1.8.3-2.7-.1-.6-.1-1.2 0-1.8.2-2.1 1.2-4.1 2.7-5.6 2.4-2.4 5.8-1.7 9.1-2.3 3.3-.7 6.5-1.7 9.6-3.1 8.7-3.4 17.8-5.5 27.1-6.3 9.3-.7 18.7.8 27.4 4.4 1.3.5 2.4 1.2 3.5 2 .8.6 1.4 1.3 1.8 2.2.4 1.1.8 2.1 1.4 3.1 1.1 1.5 3.1 1.9 4.3 3.3s1.3 3.7 2.2 5.4c1.4 2.4 4.6 3.6 5.6 6.2.3.8.3 1.8.6 2.6.5 2.2 2.2 3.9 3.6 5.6 5.2 6.3 8.6 13.9 9.7 22 .3-5.1 3.7-9.6 8-12.4 1.2-.8 2.5-1.6 2.7-2.9.3-1.7-1.4-3.2-1.3-5 .1-.9.5-1.7 1-2.3 1.9-2.8 4-5.4 6.3-7.9 1.2-1.4 2.6-3 2.1-4.8-.4-1.3-1.8-2.1-2.5-3.3-.9-1.4-.9-3.2.1-4.6.7-1 1.8-1.6 2.2-2.8.4-1.3-.5-2.8-.2-4.1.4-1.1 1.1-2 2.1-2.7 1.3-1.2 2.8-2.2 4.5-2.9 2.6-1 5.6-.6 8.4-.2 4.7.6 9.9 1.6 12.6 5.6 1.4 2.5 2.3 6.3 1 8.9z" style="fill:#65617d"/><path class="st4" d="M972.1 443.4c-.1 1.5-.2 3.3-1.5 4.2-1 .7-2.3 1-3.5.8h-.3c.4-2.1 2.9-3.3 3.4-5.4.2-1.3-.2-2.6-1.1-3.6-2.1-2.9-5.6-4.5-9-5.7-9.7-3.3-20-4.1-30.1-2.2-2.7.4-5.4 1.3-7.9 2.4-.8.5-1.6 1.1-2.4 1.7-.6-1-1-2.1-1.1-3.3 0-1.2.4-2.3 1.1-3.2 1.6-2 4-3.2 6.5-3.4 2.5-.2 5.1-.1 7.5.4l24.6 3.5c1.9.3 3.8.5 5.7 1 1.8.3 3.5 1 4.9 2.1 3.1 2.6 3.3 6.9 3.2 10.7zM865.7 566.3c-1.5 5.8-6 10.3-8.4 15.8-3.5 8.2-1.9 18.3-6.9 25.8-1.6 2.3-3.6 4.3-5.8 6-1.2 1-2.6 1.9-4 2.7-1.5.8-3.2 1-4.9.6-2.1-.7-3.4-3-3.6-5.2-.1-.7-.1-1.4 0-2.2l.1.2c.9 2.1 2.3 4.3 4.5 4.7 1.7.1 3.4-.5 4.6-1.6 3.3-2.7 5.2-6.6 7-10.4 1.4-2.7 2.6-5.6 3.4-8.6.4-1.7.6-3.4 1-5.1 1.9-8.3 8.4-15 9.8-23.4.1-.6.1-1.2.1-1.8-.2-.8-.5-1.5-.9-2.2-.3-.8-.6-1.6-.8-2.4 2 .7 4.1 1.8 4.8 3.8.4 1.1.3 2.2 0 3.3zM850.6 552c-.9 2.4-2.5 4.5-4.5 6.2-2.8 2.2-6.2 3.6-9.7 4.2-1.6.4-3.4.4-5-.1-2.2-.8-3.8-2.8-6.1-3.5-1.6-.4-3.4 0-5-.3-3-.4-5.2-2.7-7.6-4.5-7.3-5.5-16.9-7.2-24.2-12.7-.3-.2-.6-.5-.8-.8-.1-.4-.2-.7-.2-1.1 0-3.3.8-6.6 2.2-9.6 1.2-2.1 2.5-4.1 4.1-5.9 6.5-8 13.1-16.1 20.9-22.8 3.3-2.8 6.9-5.5 11-6.8 2.3-.7 6.8-1.4 9.6-.2-.4.3-.8.6-1.1 1-.9 1.2-1.6 2.6-2 4.1-4.2 10.9-15.5 16.6-24.5 24l-8.2 6.8c-1.1.9-2.4 2.3-1.8 3.6.4.7 1 1.2 1.7 1.5 4.8 2.4 10.4 3.3 14.3 6.9 1.4 1.3 2.8 3.1 4.8 3.2 1-.1 2-.3 3-.7 3.1-.8 6.3-.2 8.8 1.8.7.7 1.5 1.2 2.4 1.7.7.2 1.5.2 2.3.1 2.1-.2 4.4-.3 6.3.6s3.5 3.2 5.7 3.3c1.2.2 2.5-.1 3.6 0z"/><path class="st2" d="M758.6 416.3c-1.9 1.2-3.9 2.6-4.7 4.7-.6 1.7-.3 3.7-1.1 5.4s-2.5 2.9-2.9 4.6c-.3 1.3.3 2.7 0 4-.2.7-.4 1.4-.5 2.1-.1 1.5 1.2 2.7 2.4 3.5 5.4 3.5 12.1 4.3 18.2 2 2.7-1 5.1-2.6 7.6-3.9 2.5-1.4 5.4-2.1 8.2-2 1.7.2 3.2.8 4.9 1 1.7.3 3.4-.2 4.6-1.4.5-.7.9-1.5 1-2.4 1.4-5.5.8-11.3-.6-16.8s-3.3-10.8-4.7-16.3c-1-4.1-1.8-8.2-3.4-12.1s-4.5-7.4-8.4-8.9c-.3-.2-.7-.2-1-.1s-.5.3-.7.5c-3.1 3.3-5.5 7.2-6.9 11.5-1.6 4.8-2 9.9-3.4 14.7-.6 2-1.4 4.7-3 6.2s-3.8 2.5-5.6 3.7z"/><path d="M796.3 434c-.2.9-.5 1.7-1 2.4-1.2 1.2-2.9 1.7-4.6 1.4-1.6-.2-3.2-.8-4.9-1-2.9-.1-5.7.6-8.2 2-2.6 1.3-5 2.9-7.7 3.9-3.9 1.5-8.1 1.7-12.1.7-2.1-.5-4.2-1.4-6-2.6-1.3-.8-2.5-2-2.4-3.5.1-.7.3-1.4.5-2.1.3-1.3-.3-2.7 0-4 .4-1.8 2.1-3 2.9-4.7s.5-3.6 1.1-5.4c.8-2.1 2.8-3.5 4.7-4.7s4.2-2.2 5.7-3.7c.2-.2.4-.5.5-.7 1.1-1.7 1.9-3.6 2.4-5.5 1.5-4.8 1.9-9.9 3.4-14.7 1.4-4.3 3.8-8.2 6.9-11.5.2-.2.4-.4.6-.5.3-.1.7 0 1 .1 3.9 1.5 6.7 5.1 8.4 8.9s2.4 8 3.4 12.1c1.4 5.5 3.4 10.8 4.7 16.3s2.1 11.3.7 16.8z" style="fill:#5c09d3"/><path class="st4" d="M826 312c-9.7 3.1-20.2-1.6-24.4-11 .1-.9.2-1.9.4-2.8 1-4.6 5.3-2.9 8.7-1.7 4.1 1.3 8 3 11.8 5.1 1.1.6 2.1 1.4 2.9 2.5 1.5 2.2.9 5.1.6 7.9z"/><circle class="st1" cx="820" cy="291.9" r="20"/><path class="st4" d="M874.3 441.4c0 1.7-2.2 2.2-3.9 2.1-6-.4-11.9-2-17.8-1.5-7.5.7-14.4 4.8-21.9 5.2-2.9.1-5.8-.3-8.7.2-3.7.7-7 2.9-10.8 3.3-3.3.3-6.5-1-9.8-.8-2.3.1-4.5.8-6.5 1.9.2-2.1 1.2-4.1 2.7-5.6 2.4-2.4 5.8-1.7 9.1-2.3 3.3-.7 6.5-1.7 9.6-3.1 8.7-3.4 17.8-5.5 27.1-6.3 9.3-.7 18.7.7 27.4 4.3 1.3.5 2.4 1.2 3.5 2-.1.2 0 .4 0 .6z"/><path d="m810.7 328.5-8.1-3-3.4-1.3c-1.4-.6-2.9-1-4.4-1.2-3.9-.3-7.6 2.3-9.7 5.6s-2.9 7.3-3.5 11.2c-.9 5.3-1.7 10.6-2.3 15.9-.7 4.8-1 9.7-1 14.5.2 12.4 2.8 24.6 5.7 36.6 1.4 5.3 2.5 10.8 3.2 16.2.2 2.3.3 4.5.6 6.8.3 2.5.7 5.1 1.1 7.6l2.4 14.4c3-2.1 6.4-4 10.1-4.1 3.3-.1 6.5 1.1 9.8.8 3.8-.3 7.1-2.6 10.8-3.2 2.9-.5 5.8-.1 8.7-.2 7.5-.4 14.4-4.5 21.9-5.2 6-.5 11.9 1.1 17.8 1.5 1.7.1 3.9-.4 3.9-2.1 0-1.2-1.2-1.9-2.2-2.5-4.8-2.9-9.3-6.1-13.5-9.7-3.9-3.1-7.9-6.3-10.7-10.5-6.5-10.1-4.3-23.9-9.9-34.6-4.5-8.7 0-20.1 0-29.9 0-4.9 0-9.8-1.2-14.6-.7-2.7-1.6-5.3-2.7-7.8l-3.9-9.9c-.1-.3-.2-.5-.5-.8-.3-.2-.6-.3-.9-.3-2.3-.1-4.6.6-6.5 2.1-1.8 1.5-3 3.6-4.8 5.2-1.8 1.9-4.3 3.4-6.8 2.5z" style="fill:#e3e8f4"/><path class="st7" d="M823.8 322.8c.6-2.7 1.3-5.6 3.2-7.7s5.2-3.3 7.5-1.7c2.7 1.7 2.8 5.8 5.1 8 2 1.9 5 2.1 7.7 2.3 4.9.4 9.7 1.6 14.3 3.4.9.3 1.7.8 2.4 1.4 1.2 1.4 1 3.6 1.6 5.4.8 2.3 3.2 3.7 4.1 6 1 2.5 0 5.3-.8 7.9-1.5 4.6-2.5 9.5-3.9 14.1s-3.6 9.3-7 12.8c-1.5 1.6-3.8 3-5.8 2.1l-.8 5.5c-.2 1.2-.2 2.4 0 3.5.2 1.2 1.1 2.2 2.3 2.5.2.9 1.1 1.3 1.8 1.7 2.3 1.6 2.9 4.7 1.3 6.9v.1c-.6.9-1.6 1.5-1.9 2.5-.5 1.5.6 3 1.9 3.8s2.8 1.2 4.2 1.9c2.7 1.6 4.2 4.7 5.2 7.7.7 2.3 1.3 4.8 3 6.4.7.6 1.5 1.1 2.1 1.8 1.1 1.3 1.7 2.9 1.8 4.6.3 2.1-.2 4.2-1.3 6-2 2.9-5.7 3.7-9 5-5.3 2.2-9.7 6.1-14.4 9.4-1.9 1.5-4.2 2.6-6.5 3.1-3.2.4-6.4-1-9.7-1.1-2 0-3.9.3-5.8.8l-6 1.3c.3-4.6-2.2-9.3-3.7-13.7-2.7-8.3-3.2-17.3-2.6-26s2.4-17.4 4.2-25.9c1.2-6 1.1-12.3 3-18.1 1.8-5.6 4.3-11 5.2-16.8 1.5-9.6-4.8-17.6-2.7-26.9z"/><path class="st7" d="M869.3 341.3c.6 1 .9 2.1 1.2 3.2.5 1.8 1.3 3.4 2.5 4.8 1 .9 1.9 1.9 2.7 3 .9 1.7.6 3.9 1 5.8.5 2.1 2 3.9 2.2 6 0 .6.1 1.2.2 1.8.7 2.4 4.2 3 5 5.4.5 1.6-.4 3.3-.2 4.9.1.5.2 1 .1 1.6-.2.6-.6 1.1-1.1 1.5-3.3 3.2-5.6 7.2-6.6 11.7-1 4.4-1.5 9-1.5 13.5l-3.9-5.2c-.4-.6-.9-1.2-1.6-1.6-.5-.3-1.1-.5-1.6-.8-1.5-.8-2.1-2.6-2.6-4.2-1.6-4.4-4-8.5-7-12.1-1.6-1.9-3.4-3.8-3.8-6.2-.1-1.1 0-2.2.2-3.3 1-6.5 2.1-13.3 5.3-19.1 1.5-2.7 3.4-5.2 4.8-7.9.8-1.8 2.1-6.6 4.7-2.8zM770.7 347.6c0 .8-.2 1.7-.6 2.4-.8.9-2 1.3-3.2 1-1.1-.3-2.2-.8-3.2-1.5-2.8-1.8-5.6-3.5-8.4-5.3-1.6-.9-3.1-2-4.5-3.1-2.2-1.9-4.2-3.9-5.9-6.2-4.9-6-9.2-12.5-14.6-18-1.5-1.5-3-2.9-4.4-4.5-1.9-2.3-3.7-4.7-5.3-7.2-1.6-2.3-3.2-4.9-2.9-7.6.2-1.6.9-3 1.1-4.5s-.4-3.4-1.9-3.9c-.2 0-.4-.1-.5-.1-.3 0-.6-.1-.9-.2-1.4-.6-1.2-2.7-.2-3.9s2.5-1.8 3.4-3c.4-.7.9-1.4 1.4-2.1.7-.6 1.5-1 2.3-1.2 5.8-1.7 11.9-1.9 17.8-.7 1 .2 2.1.6 2.4 1.6.1.5.1 1 0 1.4-.4 2-.7 4-.8 6 0 .4 0 .8.1 1.3.5 4.2 3.2 7.8 5.9 11.1 3.2 3.9 6.4 7.9 9.7 11.8 1.8 2.3 3.7 4.4 5.8 6.2 2 1.7 4.6 3 6.2 5.1 1.3 1.7.9 4.1 1 6.1.5 6.4.6 12.7.2 19z"/><path class="st1" d="M897.7 389.3c1-1 1.9-2 2.7-3.1.8-1.4 1.5-2.9 2-4.5l5.8-16.5c.9-2.6 1.8-5.2 3-7.7 1.2-2.7 2.6-5.4 3.9-8 3.4-6.9 6-14.2 7.8-21.8.3-1 .4-2.1.3-3.2-.3-1.7-1.6-3.1-2.8-4.3-1.3-1.4-2.7-2.5-4.3-3.5s-3.5-1.3-5.3-.9c-2.6.8-4.2 3.4-4.8 6s-.4 5.3-.6 8c-.4 3.8-1.7 7.5-2 11.4-.2 2.2 0 4.5-.3 6.7-.5 2.9-1.5 5.7-3 8.3-3.2 6.1-7.6 11.5-12.9 15.9-1.4 1.1-2.8 2.3-3.9 3.7-.9 1.4-1.6 3-1.9 4.7-.7 2.5-.4 5.2.8 7.6 1.6 2.8 4.8 4 7.8 4.6 4 .8 4.9-.5 7.7-3.4z"/><path class="st7" d="M820.1 263c1.8-3.3 5.3-5.2 9.1-4.9 3.8.7 6.8 3.4 7.9 7.1.5 1.5.7 3.1 1.5 4.4 1.2 1.9 3.5 2.5 5.3 3.9 2.1 1.9 3.3 4.6 3.4 7.4.1 2.9-.4 5.7-1.3 8.4-.4 1.1-.7 2.3-1 3.5-.2 1.2-.2 2.3-.4 3.5-.4 3-2.1 5.8-4.6 7.6-.4.3-.8.4-1.2.5-.8-.1-1.3-1-1.5-1.8-1.6-4.6-1.2-10.2-4.1-13.9-1.3-1.5-2.9-2.7-4.7-3.5-.7-.5-1.6-.8-2.4-.9-1.3.1-2.5.5-3.5 1.3-2.1 1.4-4.5 2.5-6.9 3.1-2.5.6-5.1 0-7.2-1.5-1.4-1.1-2.4-2.9-3.9-3.7s-3.1-.8-4.6-1.5c-3.5-1.5-5.1-5.5-3.6-9 .2-.5.5-1 .9-1.5 1-1.2 2.5-1.9 3.4-3.2 1.2-1.7 1-4.1 1.6-6.1.7-2.6 2.6-4.8 5.1-5.8 2.5-.8 5.2-.3 7.1 1.5 1 .9 1.8 2.1 2.8 3 2 1.9 4.8 2.6 7.4 2"/><path class="st4" d="M836.6 410.2c-1.2 1.1-1.6 2.7-1.1 4.2.2.5 10.5-1.5 11.6-1.7 2.7-.4 7.5-.2 9.3-2.7 3.3-4.4-6.8-3.4-8.7-3.3-3.5.4-8.5.8-11.1 3.5z"/><path class="st2" d="M742.7 281.2c-.4 2-.7 4-.8 6-3 .6-6.1-.4-9-1.4l-8.3-2.8c-1-.7-2.4-.4-3.2.6-1.3 1.4-3.2 4-5 5.5-.3 0-.6-.1-.9-.2-1.4-.6-1.2-2.7-.2-3.9s2.5-1.8 3.4-3c.4-.7.9-1.4 1.4-2.1.7-.6 1.5-1 2.3-1.2 5.8-1.7 11.9-1.9 17.8-.7 1 .2 2.1.6 2.4 1.6.3.6.2 1.1.1 1.6z"/><path class="st7" d="M742.7 281.2c-.4 2-.7 4-.8 6-3 .6-6.1-.4-9-1.4l-8.3-2.8c-1-.7-2.4-.4-3.2.6-1.3 1.4-3.2 4-5 5.5-.3 0-.6-.1-.9-.2-1.4-.6-1.2-2.7-.2-3.9s2.5-1.8 3.4-3c.4-.7.9-1.4 1.4-2.1.7-.6 1.5-1 2.3-1.2 5.8-1.7 11.9-1.9 17.8-.7 1 .2 2.1.6 2.4 1.6.3.6.2 1.1.1 1.6z"/><path class="st4" d="M818.3 471c1.4.5 3 1.2 3.5 2.6l-11.6-2.9-6-1.5c-1.1-.3-4.9-.6-5.6-1.4-1-1.2 2.5-.4 3.2-.3 1.9.3 3.9.6 5.8.9 3.7.6 7.2 1.7 10.7 2.6zM822.8 481.3c-1-.7-3.9-.6-5.1-.9-1.8-.4-3.6-1-5.3-1.5-3.6-1.2-7.2-2.5-10.8-3.4-.7-.1-3-.2-2.9-1s2.3-1.2 2.9-1.2c3.3-.2 7.3 1.3 10.4 2.4 3.8 1.3 7.4 3.2 10.8 5.6zM815.5 461.9c-3.7-1-7-3.3-10.8-3.7-1 0-2-.3-2.8-.8-.4-.4-.8-1-.9-1.6 2.5-.1 5.5.9 7.8 2 1.3.5 2.5 1.2 3.6 1.9.9.4 2.2 1.9 3.1 2.2z"/><path class="st7" d="M885.4 372.3c-1.3 8.6 3.9 16.8 12.3 19.3-.5 2.4-2.9 3.7-4.7 5.4-2.4 2.4-3.7 5.9-6.6 7.7-3.2 2-7.3 1.2-11 .4-.3 0-.6-.2-.9-.5-.1-.1-.1-.3-.2-.4-1.2-4.4-2-9.2-.8-13.6 1-3.8 3.4-7 5.3-10.3s2.3-6.9 6.6-8zM796 315c-3.9.3-7.6 1.4-11 3.4-2.2 1.3-4.5 3-7.1 2.7-1.5-.2-3-1-4.5-.6-.8.3-1.6.8-2.3 1.4s-1.7.7-2.5.4l-1 13.8c-.4 5.3-.8 10.6.5 15.8.7 2.6 2.1 5 2.2 7.7s-.1 5.4.1 8.1c.2 2.5.7 4.9.9 7.4.3 4.7-.9 9.4-2 13.9-1.7 6.7-2.7 13.6-6 19.7-.9 1.7-2 3.4-2 5.3 0 .2 0 .5.1.7-1 .5-1.9 1.1-2.8 1.6-1.9 1.2-3.9 2.6-4.7 4.7-.6 1.7-.3 3.7-1.1 5.4s-2.5 2.9-2.9 4.7c-.3 1.3.2 2.7 0 4-.2.7-.4 1.4-.5 2.1-.1 1.5 1.2 2.7 2.4 3.5 1.8 1.2 3.9 2.1 6 2.6l6-23.7c5.4-10.1 10-20.6 13.5-31.5 1-3.6 2.3-7 3.9-10.4 1.1-1.9 2.1-3.9 3-5.9.9-2.5 1-5.2 1.4-7.9.5-3.1 1.3-6.2 2.3-9.1 1.1-3.2 2.3-6.4 2.5-9.8.3-4.8-1.4-9.9.4-14.4.8-1.7 1.8-3.2 3-4.6 2.6-3.2 4.9-6.5 7.5-9.6-1-1.4-3.3-1.5-5.3-1.4z"/><g class="st8"><path d="m824.2 259.7-1.2.1-.1.1c.4 0 .8-.1 1.3-.2zM847.1 280.4c-.2 2-.6 3.9-1.3 5.8-.4 1.1-.7 2.3-1 3.5-.2 1.2-.2 2.3-.4 3.5-.4 3-2.1 5.8-4.6 7.6-.4.3-.8.4-1.2.5-.8-.1-1.3-1-1.5-1.8-1.6-4.6-1.2-10.2-4.1-13.9-1.3-1.5-2.9-2.7-4.7-3.5-.7-.5-1.6-.8-2.4-.9-1.3.1-2.5.5-3.5 1.3-2.1 1.4-4.5 2.5-6.9 3.1-2.5.6-5.1 0-7.2-1.5-1.4-1.1-2.4-2.9-3.9-3.7s-3.1-.8-4.6-1.5c-1.9-.8-3.3-2.5-3.9-4.5 0-.1-.1-.3-.1-.4-.2 1.1-.2 2.3.1 3.4.6 2 2 3.6 3.9 4.5 1.5.6 3.2.6 4.6 1.5s2.5 2.6 3.9 3.7c2 1.6 4.7 2.1 7.2 1.5s4.8-1.6 6.9-3.1c1-.8 2.2-1.2 3.5-1.3.9.1 1.7.4 2.4.9 1.8.9 3.4 2.1 4.7 3.6 2.9 3.7 2.5 9.3 4.1 13.9.3.8.8 1.7 1.5 1.8.5 0 .9-.2 1.3-.5 2.5-1.8 4.2-4.5 4.6-7.6.2-1.2.2-2.3.4-3.5.3-1.2.6-2.4 1-3.5 1-2.7 1.4-5.5 1.3-8.4-.1-.2-.1-.3-.1-.5z"/></g><path class="st9" d="m783.8 360.7-.7 9.1c-.1 1.2-2.5 30.8-20 65.3-15 29.6-44.2 68.1-99.3 89.8-4.3 1.7-8.8 3.3-13.4 4.8l-5.2-16.2c13-4.1 25.4-9.5 37.2-16.3 28.1-16.2 49.9-39.4 65.2-69.2 8.1-15.9 13.8-32.8 17.1-50.3H702v-17h81.8z"/><path class="st10" d="M657.1 524.9c55.1-21.7 84.3-60.2 99.3-89.8 17.5-34.5 19.9-64 20-65.3l.7-9.1h7l-.7 9.1c-.1 1.2-2.5 30.8-20 65.3-15 29.6-44.2 68.1-99.3 89.8-4.3 1.7-8.8 3.3-13.4 4.8l-.7-2.1c2.5-1 4.8-1.8 7.1-2.7z"/><path class="st9" d="m546.8 513.4-5.2 16.2c-4.6-1.5-9.1-3.1-13.4-4.8-55.1-21.7-84.3-60.2-99.3-89.8-17.5-34.5-19.9-64-20-65.3l-.7-9.1H490v17h-62.7c3.3 17.5 9.1 34.4 17.1 50.3 15.2 29.8 37.1 52.9 65.1 69.1 11.9 6.9 24.4 12.3 37.3 16.4z"/><path class="st10" d="M535 524.9c-55.1-21.7-84.3-60.2-99.3-89.8-17.5-34.5-19.9-64-20-65.3l-.7-9.1h-7l.7 9.1c.1 1.2 2.5 30.8 20 65.3 15 29.6 44.2 68.1 99.3 89.8 4.3 1.7 8.8 3.3 13.4 4.8l.7-2.1c-2.4-1-4.8-1.8-7.1-2.7z"/><path class="st9" d="M690.4 670v91.7H501.7V670l6-8c61.1-21.7 73.5-78.3 76-100.7.4-3.1.6-6.2.6-9.3h23.3c.1 3.1.3 6.2.6 9.3 2.5 22.4 14.9 79 76 100.7l6.2 8z"/><path class="st4" d="M501.7 670h188.7v11.5H501.7z"/><path class="st10" d="M517.7 662c61.1-21.7 73.5-78.3 76-100.7.4-3.1.6-6.2.6-9.3h-10c-.1 3.1-.3 6.2-.6 9.3-2.5 22.4-14.9 79-76 100.7l-6 8v91.7h10V670l6-8z"/><path class="st4" d="M473.1 360.7H490v17h-15.4c-.6-5.6-1.1-11.3-1.5-17zM546.8 513.4l-5.2 16.2c-4.6-1.5-9.1-3.1-13.4-4.8-7.1-8.6-13.3-17.9-18.7-27.7 11.9 6.8 24.4 12.2 37.3 16.3zM645.3 513.4c13-4.1 25.4-9.5 37.2-16.3-5.3 9.8-11.6 19.1-18.7 27.7-4.3 1.7-8.8 3.3-13.4 4.8l-5.1-16.2zM719.1 360.7c-.4 5.7-.9 11.4-1.5 17h-15.4v-17h16.9zM608.4 561.3c-8.1 1.6-16.5 1.6-24.6 0 .4-3.1.6-6.2.6-9.3h23.3c.1 3.1.3 6.2.7 9.3z"/><path class="st9" d="M475.1 332.5c.4 126.1 54.4 228 121 228s120.6-101.9 121-228h-242z"/><path class="st10" d="M496.6 332.5h-21.5c.4 126.1 54.4 228 121 228 3.6 0 7.2-.3 10.8-.9-61.6-10.3-109.9-107.9-110.3-227.1z"/><path class="st2" d="M531.9 705.1h128.3v33H531.9z"/><path class="st10" d="M537.9 709.6h122.3v-4.5H531.9v33h6z"/><linearGradient id="SVGID_2_" gradientUnits="userSpaceOnUse" x1="213.322" y1="330.815" x2="435.649" y2="330.815" gradientTransform="matrix(1 0 0 -1 -28 854.15)"><stop offset="0" style="stop-color:gray;stop-opacity:.25"/><stop offset=".54" style="stop-color:gray;stop-opacity:.12"/><stop offset="1" style="stop-color:gray;stop-opacity:.1"/></linearGradient><path d="M406.6 454.2c-2.3-.8-15.9-11.5-16.9-16.4s7.2-50.2 7.2-50.2-.8 0-2-.1v-.7l1.7-59.6s6.9-40-6.2-37.7-4.9 37.7-4.9 37.7-1.5 17.8-2.5 23.2c-1 5.2-5.6 26.3-2.5 32.9.1.2.2.5.4.7 0 0 .5 22.5-5.1 25.6-5.4 2.9-7.6 17.7-7.8 19l-.3-.1c-1.6-1-3-2.3-4.2-3.8-.1-.1-.2-.3-.3-.5 7.6-8.6 7.4-21.6-.6-29.9-1.8-1.9-3.9-3.4-6.2-4.5-.1-1.9-.5-3.8-1.3-5.5-2.6-5.6-17-12.8-27.2-13-4.7-.1-8.6 1.2-10 4.9-.7 1.9-.5 4-.8 5.9-.6 4-3.2 7.1-6.5 9.6-1.3-1.5-2.8-2.9-4.3-4.1-3.3-2.6-10-11-10-11s-20.8-21.5-22.3-27.4-22.4-41.3-27-35.2 15.9 33.1 15.9 33.1 3.9 9.8 6.9 13.1 26 36.7 26 36.7l1.1 2.3c-4.9 2.6-9.3 5.8-10.9 10.9-2.3 7.5 2.7 15 6.2 22 6.8 13.7 7.8 31.1-1 43.6-7.8 11-21.4 16.3-34.2 20.8 6.1 4.8 13.8 7.4 21.6 7.2-2.9 8.5-13.4 11.3-22.2 12.9 4.7 4.5 11.3 6.1 17.7 7.1 3.1.5 6.3.8 9.5.8h.8l.8-.1c1.1-.1 2.2-.2 3.2-.4 4.6-.9 9.1-3.5 11.5-7.5 2-3.5 2.7-8.2 6.3-10 .9-.4 2-.7 3-.7h-.1 2.1l15.1.2h1.9c4.3-.1 8.8-.8 11-4.4.9-1.7 1.4-3.6 1.4-5.5.3-4.8 0-9.7.1-14.5 1.3 8.8 2.6 22.5-.6 27.5-2.6 3.8-5.8 7.3-9.4 10.2-.9.8-1.7 1.6-2.5 2.5-.5.3-.8.5-.8.5l-.3.9c-1.1 1.7-2 3.6-2.4 5.7-.2.5-.2 1.1-.2 1.6.4.7-2.5 3.6-1.7 4.9-7.1 8.3-8.5 21-8.5 21l-13 19.7c-6.7 17.5-16.7 19.3-16.7 19.3s-23.5-15.8-24.1-16.5c-.6-.8-9.6-4.6-9.6-4.6-1.1-1.9-2.7-3.3-4.6-4.2-3.1-1.3-3.3-6-3.3-6-.4-11.2-6.9-12-6.9-12-5.3-.5-9.3.5-12.4 2.2l-.9.1c-4.5.4-10 .8-16 1.2-16.7 1.1-20.7 11.9-20.7 11.9s-2.1 2.3.6 4.8 19.9 0 20.6-.1c-1.3.1-2.6.1-3.9-.3 2.7-.1 6.4-.2 9.6-.2h.8c-.2 1.7-.3 3.4-.3 5.1 0 3.2 8.9 5.2 8.9 5.2l26.9 24s16.9 7.6 27.7 18.5 20.3 1.5 20.3 1.5c11.4-2.8 44.2-42.5 44.3-42.5 0 1.2.7 39.8 2 47.5.1.4.1.8.3 1.2 1.5 3.3-.5 12.4-1.4 16.3-.6 3.2-.8 6.5-.6 9.7 0 0-12.3 47-11.3 51.1s-6.7 23.3-6.7 23.3v16l1.3-.1c-.2.3-.3.5-.5.8l-.1.2s8.2 1.8 13.7 1.3 15 4.2 15 4.2 3.2 1.5 13.1 2.2 9.9-4.4 9.9-4.4c-1.1-6.8-16.7-9.1-17.2-9.2-1.3-.8-2.4-1.7-3.4-2.4l-.2-.2c.1-.1.1-.3.2-.5 1.7-6.8-7.6-9.8-7.6-9.8V729c6-3.1 7.2-24.2 7.2-24.2s9-26.1 10.3-30.5 0-10.9 0-10.9l.9-5.6s1.9-3.8 1.9-4.6c.2-2 1-3.8 2.2-5.4 1.4-1.7-1.5-5.6-1.5-5.6l2.6-6.7v-7.3l6-26.5s6.3-30.9 4.1-41 2.6-15.2 2.6-15.2c-.4.2-.9.4-1.3.6.6-1.4 1.1-2.8 1.5-4.3l13.5 1.7v.2h4.9s-1.5-19-1.5-26.7 5.2-35.2 5.2-35.2 2.2-26.8-.1-27.6zM346.7 432c0 .8-.1 1.5-.1 2.3l-.3.4-.5-.4-.6 1-.2.1c-1.3-.7-2-4.6-3-3.7l-.1.1c-.2-.2-.4-.3-.6-.1l-.2.2v-.9c1.8.5 3.7.7 5.6.7v.3zm44.9 88.5h.3l-.5 1.3c.1-.4.1-.8.2-1.3zm-49.3 226.8-1.8-.5 1-.2.8.7.2.1-.2-.1zm18.8-2.7c-.6-.3-1.2-.7-1.8-1.1.2.1 1 .6 1.8 1.1z" style="fill:url(#SVGID_2_)"/><path class="st12" d="m398.2 501.6-12.1 31.6h3l-11.4 9.1 20.5 2.5z"/><path class="st4" d="m398.2 501.6-12.1 31.6-3-.8-5.4 9.9 20.5 2.5z"/><path class="st12" d="M379.3 521.8h18.9l7-57.3h-25.9z"/><path class="st4" d="M379.3 521.8h18.9l7-57.3h-25.9z"/><path class="st13" d="m342.2 478.1 4.1-.7 9.4-1.6s28.3-6.4 34.1-6.9c3.5-.5 7-1.5 10.2-2.9 1.5-.7 2.5-1.2 2.5-1.2l-10.2-18.6-15.8-11.7s-10-2.1-14.2-8c-1.9-2.5-2.4-5.9-1.3-8.9 2.6-8-15.4 7.6-15.4 7.6s.2 3.8 0 8.5c0 .9-.1 1.9-.2 2.9 0 .7-.1 1.3-.2 2-.4 4.8-1.3 9.6-3.1 12.6-4.3 7.2.1 26.9.1 26.9z"/><path class="st4" d="M345.6 434.2h.4c.7 0 1.3-1.5 2-1.6 5.6-.5 10.8-1.7 14.3-5.7-1.9-2.5-2.4-5.9-1.3-8.9 2.6-8-15.4 7.6-15.4 7.6s.2 3.8 0 8.6z"/><path class="st13" d="M323.7 411.5c0 12.1 9.8 21.9 21.9 21.9.7 0 1.4 0 2.1-.1 12-1.2 20.9-11.9 19.7-24s-11.9-20.9-24-19.7c-11.1 1.2-19.7 10.7-19.7 21.9z"/><path class="st7" d="M317 378.3c-.7 1.9-.5 3.9-.8 5.9-1.1 7.1-8.3 11.4-14.8 14.4s-13.9 6.5-16 13.4c-2.3 7.4 2.7 14.9 6.2 21.9 6.7 13.6 7.7 30.9-1 43.3-7.7 11-21.2 16.2-33.9 20.8 6.1 4.8 13.7 7.3 21.5 7.1-2.9 8.5-13.3 11.3-22.1 12.8 4.6 4.5 11.3 6.1 17.6 7.1 4.6.7 9.4 1.2 14 .3s9-3.4 11.4-7.5c2-3.5 2.7-8.2 6.3-10 1.6-.6 3.4-.9 5.1-.8l15 .2c4.7 0 10.2-.4 12.6-4.3.9-1.7 1.4-3.6 1.4-5.5.6-9.8-1.2-20.2 2.8-29.2 1.2-2.7-6.6-7-5.8-9.9 2.8-9.9 3.5-17.6 3.5-27.9 0-8 5.2-14.8 9.4-21.5s7.8-15.2 4.5-22.4c-3.9-8.2-32.4-19.8-36.9-8.2z"/><path class="st13" d="m336.9 744.4 3.8 2.5.6.4.1.1 4.5 3 10.6 1.8 9.3-.6s2.7-5.6-1.5-5.5c-1.3-.1-2.7-.4-3.8-1.1l-.6-.3c-.6-.3-1.2-.7-1.8-1.1-1.2-.8-2.4-1.7-3.4-2.4-1.4-1.1-2.3-1.9-2.3-1.9l-15.5 5.1z"/><path class="st4" d="m340.8 746.9.6.4.1.1 4.5 3 10.6 1.8 9.3-.6s2.7-5.6-1.5-5.5c-1.3-.1-2.7-.4-3.8-1.1.7.6 1.4 1.2 1.4 1.7.2 1.4-6.9 4-6.9 4l-9.9-2.6s-1.7-.5-4-1.1l-.2-.1h-.2z"/><path class="st2" d="M323.8 749.4s8.1 1.8 13.6 1.3 14.9 4.2 14.9 4.2 3.2 1.5 13 2.1 9.8-4.3 9.8-4.3c-1.1-6.8-16.6-9-17.1-9.1.2.1 1 .5 1.8 1.1 1.1.7 2.3 1.7 2.4 2.4.2 1.4-6.9 4-6.9 4l-9.9-2.6s-1.7-.5-4-1.1h-.2c-3.4-.9-6.9-1.7-10.4-2.1-4.3-.5-6.5 3.2-7 4.1.1-.1 0-.1 0 0z"/><path class="st13" d="m195.4 569.6 4.3 3.3s1.3-.1 3.1-.1h.6c2.7-.1 6.4-.2 9.6-.2 2-.1 4.1 0 6.1.3 2.2.8 6-12.4 6-12.4l-4.3-1-1.4-.3-1-.2-3.5-.8-10.7 1.2-7.5 4.8-1.3 5.4z"/><path class="st4" d="m195.4 569.6 4.3 3.3s1.3-.1 3.1-.1c-.9-.3-1.6-1-2-1.8-2.8-7.8 11.1-11.1 11.1-11.1l6.5-.3 1.3-.1h1l-1.4-.3-1-.2-3.5-.8-10.7 1.2-7.5 4.8-1.2 5.4z"/><path class="st2" d="M186.8 573.1c2.6 2.4 19.8 0 20.5-.1-1.3.1-2.6.1-3.9-.3-1.3-.2-2.4-1-3-2.2-2.8-7.8 11.1-11.1 11.1-11.1l6.5-.3 1.2-.1 15.7-.7.8-4.3s-5.1.5-13.1 1.1c-4.5.4-10 .8-15.9 1.2-16.6 1.1-20.5 11.8-20.5 11.8s-2.1 2.5.6 5z"/><path class="st13" d="M379.3 385.4c.1.2.2.5.4.7l3.8 5.6 9.9 1 .1-3.9 1.7-59.3s6.9-39.8-6.1-37.5-4.8 37.5-4.8 37.5-1.5 17.8-2.5 23.2c-1.1 5.1-5.6 26.2-2.5 32.7zM357 532.6l2.8 4.8 6.3 10.8s11.5 4.2 14.4 1c1.6-1.8 3.4-7.9 4.6-13 1-4.2 1.7-7.7 1.7-7.7l-29.8 4.1z"/><path class="st4" d="m357 532.6 2.8 4.8.5-.5c3.2-4.1 17.3-.9 24.8-.6 1-4.2 1.7-7.7 1.7-7.7l-29.8 4zM213 572.5c2-.1 4.1 0 6.1.3 2.2.8 6-12.4 6-12.4l-5.8-1.4 15.7-.7.8-4.3s-5.1.5-13.1 1.1c-1.7 1-3.1 2.2-4.4 3.7l-.2.3c-3.4 4.2-4.7 9.5-5.1 13.4zM336.9 744.4l4.4 2.9c6.6-1.2 12.6-3.1 13.3-6v-.1c-1.4-1.1-2.3-1.9-2.3-1.9l-15.4 5.1zM323.9 749.2c5.8-.3 11.6-.9 17.3-1.9-3.4-.9-6.9-1.7-10.4-2.2-4.3-.4-6.4 3.3-6.9 4.1z"/><path class="st7" d="M213.5 577.6c0 3.2 8.8 5.2 8.8 5.2l26.8 23.8s16.8 7.5 27.5 18.3 20.1 1.5 20.1 1.5c11.3-2.8 44-42.3 44-42.3s.8 45.1 2.3 48.4-.5 12.4-1.4 16.2c-.6 3.2-.8 6.4-.6 9.7 0 0-12.2 46.8-11.2 50.8s-6.6 23.2-6.6 23.2v15.9s30-1.2 31.6-7.9-7.5-9.7-7.5-9.7V729c6-3.1 7.1-24.1 7.1-24.1s8.9-26 10.2-30.3 0-10.8 0-10.8l.9-5.6s1.9-3.8 1.9-4.6c.2-1.9 1-3.8 2.2-5.3 1.4-1.7-1.5-5.6-1.5-5.6l2.5-6.6V629l6-26.4s6.2-30.7 4.1-40.8 2.5-15.2 2.5-15.2c-10.2 5.4-15.4-6.6-17.1-11.7-.4-1.3-.6-2.2-.6-2.2s-14-5.2-27.1-3.9c-2.7.2-5.3.8-7.8 1.7-14.5 5.2-16.8 26.9-16.8 26.9l-13 19.6c-6.6 17.5-16.6 19.2-16.6 19.2s-23.3-15.7-24-16.4-9.6-4.6-9.6-4.6c-1-1.8-2.7-3.3-4.6-4.2-3.1-1.3-3.3-6-3.3-6-.4-11.1-6.9-12-6.9-12-22.5-1.9-22.3 21.4-22.3 24.6z"/><path class="st12" d="M343.2 472.6H357v42.7h-13.8z"/><path class="st4" d="M343.2 472.6H357v42.7h-13.8zM379.3 385.3c-.1 0-.1 0 0 0 .1.3.2.6.4.8l3.8 5.6 9.9 1 .1-3.9c-3.1-.3-10.2-1.2-14.2-3.5z"/><path class="st12" d="M379.6 386s.5 22.4-5.1 25.5-7.8 19-7.8 19 17 11.2 20.8 16.1 12.5 16.6 10.7 19.4 4.3 15.5 4.3 15.5-11.2 22.9-8.7 31.6c2.5 8.7 2.8 31.6 2.8 31.6h4.9s-1.5-18.9-1.5-26.5 5.1-34.9 5.1-34.9 2.3-26.8 0-27.5-15.8-11.5-16.8-16.3 7.1-50 7.1-50-10.4-.4-15.8-3.5z"/><path class="st4" d="M342.9 468.6c.5 3.1 1.6 6.1 3.3 8.7l9.4-1.6s28.3-6.4 34.1-6.9c3.5-.5 7-1.5 10.2-2.9-2.2-7.9-6.6-15.1-12.6-20.8l-3.6-3.3c-5.3-4.9-11.4-8.8-18.1-11.6.4.4 30.1 25.7 23.6 30.7s-24-7.1-24-7.1l-19.9-17.1-.7-.6-1.1 1.8c.6.2 1.2.5 1.7.8 6.8 3.7 11.8 10 14 17.4 4.1 13.8-16.3 12.5-16.3 12.5z"/><path d="M336.8 532.3s18.9 10.5 23.4 4.6c1-1.3 3.1-1.8 5.7-2-.4-1.3-.6-2.2-.6-2.2s-14-5.2-27.1-3.9c-.8 2.2-1.4 3.5-1.4 3.5z" style="fill:#444053"/><path d="m345.5 436.1 20.6 17.7s17.4 12.1 24 7.1-23.6-30.7-23.6-30.7c6.7 2.7 12.8 6.7 18.1 11.5l3.6 3.3c9.4 8.8 11.6 8.8 11.9 21.6.1 3.2-1 7.7-1.8 8.5-3.1 3-5.2 24.8-4.7 27.3s-5.7 24.6-3.7 30.7-25-3.1-29.6 2.8-23.4-4.6-23.4-4.6 10.5-26.8 13-28.5 5.6-15.5 0-21.9-6.1-12.5-6.1-12.5 20.4 1.3 16.3-12.5c-2.3-8.1-8.1-14.7-15.7-18.2l1.1-1.6z" style="fill:#e8e8f0"/><path class="st4" d="M373 481.2s-7.9 14.9-18.1 18.8c-.3.1-.6.2-1 .3-10.7 3.3 19.9-14.4 19.1-19.1z"/><path class="st13" d="M262.4 349.3s3.8 9.7 6.9 13 25.7 36.5 25.7 36.5l1.9 4 1.6 3.4 14.5-1.5 1-5.9-.6-.7c-1.5-1.8-5.4-6.5-8.1-8.5-3.3-2.5-9.9-11-9.9-11s-20.6-21.4-22.2-27.3-22.2-41-26.8-34.9 16 32.9 16 32.9z"/><g class="st8"><path d="M304.6 507c-1.7-.2-3.5.1-5.1.7-3.6 1.8-4.3 6.5-6.3 10-2.3 4.1-6.8 6.6-11.4 7.5-.9.2-1.8.3-2.8.4 2.9.3 5.9.2 8.8-.4 4.6-.9 9-3.4 11.4-7.5 2-3.5 2.7-8.2 6.3-10 .9-.4 2-.7 3-.7h-3.9zM340.1 430.3c0-8 5.2-14.8 9.4-21.5s7.8-15.2 4.5-22.4c-2.9-6.1-20.2-14.4-30.3-12.8 9.8 1.3 21.9 7.7 24.3 12.8 3.4 7.2-.2 15.7-4.5 22.4s-9.5 13.6-9.4 21.5c0 10.3-.7 18-3.5 27.9-.8 2.9 7 7.2 5.8 9.9-4.1 9-2.2 19.4-2.8 29.2 0 1.9-.5 3.8-1.4 5.5-2 3.3-6.1 4.1-10.1 4.3h3.5c4.7 0 10.2-.4 12.6-4.3.9-1.7 1.4-3.6 1.4-5.5.6-9.8-1.2-20.2 2.8-29.2 1.2-2.7-6.6-7-5.8-9.9 2.8-9.9 3.5-17.7 3.5-27.9z"/></g><path class="st4" d="m296.9 402.8 1.6 3.4 14.5-1.5 1-5.9-.6-.7c-1.4.8-13 6.4-16.5 4.7z"/><path class="st4" d="M350.6 441.1s-3.6-5.6-5.6-4.1-2.8-4.6-4-3.6-4.6 3.9-6-.1c-1.1-3.2-13.2-23.1-18.1-31.2-1.3-2.1-2-3.4-2-3.4s-13.8 6.9-17.1 4.6v4.8l2.8.3 15 28s4.7 7.5 4.4 10.1 6 14.1 7.1 14.9 12 13.5 12 13.5 5.6 27.5.8 35.2-13.2 13.2-13.2 13.2-2.5 7.4-2.2 8.2-2.9 4.1-1.4 5.1 3.6 8.2 3.6 8.2 7.1-11.5 11-13.2 8.8-25.2 8.8-25.2 1.4-13.8 1.5-22.7-.5-42.6 2.6-42.6z"/><path class="st12" d="M349.8 441.1s-3.6-5.6-5.6-4.1-2.8-4.6-4-3.6-4.6 3.9-6-.1c-1.1-3.2-13.2-23.1-18.1-31.2l-2-3.4s-13.8 6.9-17.1 4.6v4.8l2.8.3 15 28s4.7 7.5 4.4 10.1 6 14.1 7.1 14.9 12 13.5 12 13.5 5.6 27.5.8 35.2c-2.6 3.8-5.7 7.3-9.2 10.2-3 2.5-5.1 5.8-6 9.6-.2.5-.2 1.1-.2 1.6.4.8-2.9 4.1-1.4 5.1s3.6 8.2 3.6 8.2 7.1-11.5 11-13.2 8.8-25.2 8.8-25.2 1.4-13.8 1.5-22.7-.4-42.6 2.6-42.6z"/><path class="st4" d="M314.9 557.1s10.7 2 15 5.1-16.3-4.8-16.3-4.8l1.3-.3zM340.6 584.2s11.2 9.3 9.2 17.7-7.2 29.6-7.2 29.6l-2-47.3zM243 566.3s-15.7 1.7-14.7 3.8 14.7-1.9 14.7-1.9v-1.9zM363.8 643.7s1 1.3-4.8 0-1.5-5.2-1.5-5.2l6.3 5.2zM361.8 661.3s-8 1.3-12.3 0 12.3 0 12.3 0zM345.4 730.1s-1.4-1.5-8.4 1.3-9.8 2.9-11.9 2 20.3-3.3 20.3-3.3zM353.1 564.1l-9.9 13.8c0 .1 5.3-12 9.9-13.8zM333.8 437s-.4 4.6-6.8 6.4-7.6 3.2-7.6 3.2M317.2 403.7s-8.5 6-17.3 4.7M323.6 532.2s2.5 1.5 8.4-5.2M385.2 460.3c.2-1.2-.6-2.4-1.4-3.4l-1.7-2c-.3-.4-.7-.8-1.1-1.1-1-.8-2.3-1-3.3-1.7"/><path class="st16" d="M922.1 111.7s-84.2-5.1-74.3 53.9c0 0-2 10.4 7.5 15.2 0 0 .2-4.4 8.6-2.9 3 .5 6.1.6 9.2.4 4.1-.3 8.1-1.9 11.2-4.6 0 0 23.7-9.8 32.9-48.5 0 0 6.8-8.4 6.5-10.6l-14.2 6.1s4.9 10.2 1 18.8c0 0-.5-18.4-3.2-18-.5.1-7.4 3.6-7.4 3.6s8.3 17.8 2 30.8c0 0 2.4-22-4.7-29.5l-10 5.8s9.8 18.4 3.1 33.5c0 0 1.7-23.1-5.2-32.1l-9.1 7.1s9.2 18.2 3.6 30.7c0 0-.7-26.9-5.5-28.9 0 0-7.9 7-9.1 9.9 0 0 6.3 13.2 2.4 20.2 0 0-2.4-17.9-4.3-18 0 0-7.9 11.9-8.7 20 0 0 .3-12.1 6.8-21.1 0 0-7.6 1.3-12.1 6.3 0 0 1.2-8.4 14-9.1 0 0 6.5-9 8.3-9.6 0 0-12.7-1.1-20.5 2.4 0 0 6.8-7.9 22.8-4.3l9-7.3s-16.8-2.3-23.9.2c0 0 8.2-7 26.3-1.9l9.7-5.8s-14.3-3.1-22.8-2c0 0 9-4.9 25.7.4l7-3.1s-10.5-2.1-13.5-2.4-3.2-1.2-3.2-1.2c6.6-1.1 13.5-.3 19.7 2.2-.1-.2 14.7-5.7 14.4-6.6zM818.3 126.7s-38-2.3-33.5 24.4c0 0-.9 4.7 3.4 6.9 0 0 .1-2 3.9-1.3 1.4.2 2.8.3 4.1.2 1.9-.1 3.6-.9 5-2.1 0 0 10.7-4.4 14.9-21.9 0 0 3.1-3.8 3-4.8l-6.4 2.7s2.2 4.6.5 8.5c0 0-.2-8.3-1.4-8.1-.2 0-3.3 1.6-3.3 1.6s3.8 8.1.9 13.9c0 0 1.1-9.9-2.1-13.4l-4.5 2.6s4.4 8.3 1.4 15.1c0 0 .8-10.4-2.4-14.5l-4.1 3.2s4.1 8.2 1.6 13.9c0 0-.3-12.1-2.5-13.1 0 0-3.6 3.2-4.1 4.5 0 0 2.8 6 1.1 9.1 0 0-1.1-8.1-2-8.1 0 0-3.6 5.4-3.9 9 .2-3.4 1.2-6.7 3.1-9.6-2.1.4-4 1.4-5.5 2.8 0 0 .6-3.8 6.3-4.1 0 0 3-4.1 3.7-4.3 0 0-5.8-.5-9.2 1.1 0 0 3.1-3.6 10.3-2l4-3.3s-7.6-1-10.8.1c0 0 3.7-3.2 11.9-.9l4.4-2.6s-6.5-1.4-10.3-.9c0 0 4.1-2.2 11.6.2l3.2-1.4s-4.7-.9-6.1-1.1-1.5-.5-1.5-.5c3-.5 6.1-.2 8.9 1-.3.1 6.5-2.4 6.4-2.8z"/><ellipse class="st7" cx="951" cy="755.6" rx="40.2" ry="6.8"/><path class="st7" d="M967.6 744.4c1.8-1.5 3.2-3.5 3.8-5.8.5-2.3-.5-5-2.7-5.9-2.5-.9-5.1.8-7.1 2.5s-4.3 3.7-6.9 3.3c2.7-2.5 4-6.2 3.2-9.8-.1-.7-.4-1.4-.9-2-1.4-1.5-3.8-.8-5.5.3-5.2 3.7-6.7 10.7-6.7 17.1-.5-2.3-.1-4.7-.1-7s-.7-5-2.7-6.2c-1.2-.7-2.6-1-4-.9-2.3-.1-4.9.2-6.5 1.9-2 2.1-1.5 5.7.2 8s4.3 3.8 6.8 5.4c1.9 1.2 3.6 2.7 4.8 4.6.1.3.3.5.4.8h14.7c3.5-1.7 6.5-3.8 9.2-6.3z"/></svg>