<svg version="1.1" id="e37c00f5-ff96-45aa-87ea-1a24b78ba7bd" xmlns="http://www.w3.org/2000/svg" x="0" y="0" viewBox="0 0 1176.6 874" style="enable-background:new 0 0 1176.6 874" xml:space="preserve"><style>.st0{fill:#3f3d56}.st1{opacity:.8;fill:none;stroke:#7703fc;stroke-width:2;stroke-miterlimit:10;enable-background:new}.st2{fill:#7703fc}</style><path class="st0" d="M309.7 249.2c-.4-3-1.1-5.8-2.2-8.6-.3-1.1-1-1.9-2-2.4-.6-.2-1.3-.2-2 0l-10.1 1.5c-.8 0-1.7.4-2.3.9-1.3 1.4 0 3.6-.1 5.5 0 2.1-1.9 3.9-4 4.5-2.1.4-4.3.4-6.4-.1l-14.1-2.2c4.2-1.3 7.9-3.8 10.7-7.1 1.9-2.2 2.8-6.3.2-7.3-.8-.2-1.6-.3-2.4-.2-6.4 0-11.4-5.3-17.4-7.5-7.9-2.8-16.6-.2-21.7 6.5l7.5.4c.7 0 1.4.1 2 .5 1.6 1.4-.4 4-.2 6.1.3 2.8 4 3.3 6.7 3.6s6.2 2.5 4.9 4.9c-13.8 4.8-27.9-9.3-42.5-7.6-3.7.4-7.2 1.9-10.7 2.8-22 5.6-44.6-9.3-67.1-6.1-5 .8-9.9 2.1-14.6 3.9-3.1 1-6.2 2.1-8.5 4.4s-3.1 6.3-1 8.7c-5.8.5-11.6-.1-17.2-1.6 3.1 1.7 5 5 5 8.5-9 1.5-17.8 4.2-26.2 8 1.6 2.6 3.4 5 5.4 7.2L68 283.8c3.9 1 5.9 6.2 3.6 9.5 4-1.8 6.5-6.4 10.8-7.3 2.8-.6 5.7.5 8.3 1.6s5.6 2.1 8.4 1.3 4.8-4.4 3-6.7c11.8-3.4 24-5.3 36.3-5.7.9-.1 1.9.1 2.7.5 1.6 1.1 1.2 3.5 1.1 5.4s1.4 4.5 3.2 3.6c-2 1.8-.3 5.1 1.7 7s4.3 4.4 3.1 6.9c-.3.6-.8 1.1-1.1 1.8-.9 1.9.5 4.1 2.2 5.3s3.7 2.1 4.9 3.9.6 4.8-1.4 5l-5.9-7.5c-2 2.1-3.4 4.7-4 7.5 6.2 5.1 7.2 15.5 2 21.6-2.7 3.1-6.5 5-9.8 7.5s-6.4 5.9-6.4 10c0 7.1-.6 13.7 2.1 20.3 4.9 12.2 10.6 24 17 35.4 1.7 3 3.9 6.3 7.3 6.8-4.3-10.5-8.2-21.1-11.6-31.9 2.2 0 4.8.2 6.2 2 1.1 1.5.9 3.6 1.2 5.4.4 1.8 1.1 3.5 2.1 5l20.5 36.6c1.7 3 3.7 6.3 6.9 7.5 2.1.8 4.5.6 6.4 1.8 1.5.9 2.5 2.5 4 3.3 4.3 2.4 10.3-2.2 14.4.7 1.2.8 1.9 2.1 3 3 3.7 3.2 9.9 1.1 14.2 3.5 2.8 1.6 4.2 4.7 5.7 7.5 3.7 7.1 9.7 14 17.7 14.5 2.5.2 5.1-.3 7.5.3 2.4.6 4.8 2.7 4.5 5.2-.7 4.2 1.4 8.9.9 13.2-1 7.8-12 11.2-13 18.9-.2 1.7.1 3.5-.3 5.1-.5 2-2 3.7-2.6 5.7-1 3.8 1.7 7.7 4.7 10.3s6.6 4.8 8.3 8.4c1.7 3.8.9 8.3 1.5 12.5 1.2 9.1 9.1 15.8 17.2 20.2 2.5 1.3 5.1 2.6 6.7 4.9 2.1 3 1.9 7 2.6 10.5 1.7 8.8 9.1 16 9.3 25 .1 6.4-3.4 12.1-5.5 18.1-4 11.6-2.7 24.4 3.5 35 1.6 2.7 3.5 5.2 4.6 8.1 2 5.2 1.3 11 3.2 16.2 2.4 6.9 9.1 12.6 8.5 19.9 3 6.3 9.7 9.4 16.5 11.3l12.1 3.4c2.3.6 4.7 1.3 7.1.8s4.6-2.4 4.5-4.8c-5.9-1.3-12-2.8-16.9-6.4s-8.2-10-6.4-15.8c.9-2.7 2.7-5.8.9-8-1-1.3-2.8-1.6-3.9-2.8-1.7-1.8-1.1-4.8.1-7s3.1-4.1 3.6-6.6c.5-2.8-.8-5.7-3.2-7.1 2.2-.8 4.3-2.1 6-3.8 1.6-1.8 2.3-4.6 1.1-6.6 3.7.5 8 .7 10.4-2.1 1.9-2.2 1.8-5.6 1-8.4s-2-5.6-2.1-8.6c8.5.4 16.9.1 25.4-.9-1.2-4.1-4-7.6-7.7-9.7 3.8-.6 7.3-5.2 8.5-8.9s.9-7.7.2-11.5c-.3-1-.3-2-.1-3 .4-1.4 1.8-2.2 3-2.9l18.9-10.9c1.1-.6 2.2-1.3 3-2.2 2-2.3 1.7-5.8.7-8.7s-2.6-5.6-3-8.6c-1.2-9.1 8.5-15.6 11.8-24.1 1.3-3.3 1.5-7 1.8-10.6.3-3.8.3-8.3-2.7-10.8-2.8-2.4-7.3-1.8-10.2-4.1-2.7-2-3.7-6-6.6-7.6-2.7-1.5-6.1-.5-9.1-1.2-5.3-1.2-8.6-7.3-14-7.9-3-.3-6.5 1.2-9-.6-2.2-1.6-2.3-4.7-2.7-7.4-1.5-8.5-8.1-15.1-16.6-16.6-3.1-.5-6.5-.3-9.2-2s-3.9-5-6.1-7.4c-3.4-3.9-8.8-5.3-13.8-6.5l-20.5-4.8c-3.6-.9-8.3-1.3-10.3 1.9-.6 1.2-1 2.5-1.2 3.8-1.5 4.9-6 8.3-11.1 8.4-1.7-2.9-4.5-5.1-7.8-6-2.1-.6-4.3-.6-6.3-1.5-4.4-2.1-6.2-7.4-4.1-11.8.1-.1.1-.3.2-.4 2.4-4.3 1.7-9.7-1.9-13.2-3.5-3.1-8.5-3.9-13.2-3.6-1.2-2.7.8-5.7 3-7.6s4.9-3.9 5.4-6.8c.8-4.6-5.1-8-9.5-6.7s-7.2 5.7-9.1 9.9c-1.1 2.4-2 5-3.7 7s-4.4 3.5-7 2.9c-3.6-.9-5-5.3-5.8-8.9-1.1-4.9-2.2-9.9-1.9-14.9s1.9-10.2 5.6-13.6c6-5.6 15.3-5 23.5-4.1-1.9-2.2-1.5-5.8.6-7.9 2.2-2 5.3-2.7 8.1-2 2.5.5 4.7 1.8 6.3 3.8 2.3 2.8 3 6.6 4.7 9.9s5.7 5.9 8.9 4.2c2.8-1.5 3.2-5.4 2.5-8.4s-2.2-6.1-1.9-9.2c.5-6 6.7-9.6 12.2-12.1s11.8-5.8 12.7-11.8c0-1.2.3-2.3.7-3.4.6-1 1.5-1.8 2.5-2.3 16-10.6 32.4-21.3 50.7-27.1 1-.3 1.1 0 2-.2 1.4-.8.5-3-.8-3.8s-3-1.5-3.4-3.1c-.2-1.1.4-2.2.6-3.4.4-2.8-2.9-5.4-5.5-4.3-1.5-2 1.4-4.2 3.8-4.9 7.1-1.9 14.3-3.1 21.7-3.5.8-.1 1.7 0 2.5.4 1.2.9 1.1 2.8.2 4s-2.2 2-3.3 3c-2.4 2.4-3.3 5.9-2.3 9.1 3.8 1.9 8 3.9 12.2 3.3s8-5.4 6-9.2c-1.9-3.5-7.4-4.3-8.4-8.2-1.1-4.5 5.3-8.6 3.9-13-.6-1.9-2.6-3.1-4.1-4.5-3.6-3.5-4.7-8.9-2.7-13.6-4.9.9-10-.7-13.5-4.2-3.2-3.3-5.8-8.4-10.4-8.3-4.2.1-7.8 5.1-11.8 3.6-1-.4-2-1.1-2.9-.7-.6.4-1 1.1-1.1 1.8-1 4.8.7 10.2-1.9 14.4-2.8 4.5-9.4 5.1-12.9 9.2-1.9 2.2-2.6 5.2-4.3 7.5s-5.4 3.8-7.4 1.8c2.1-4.3.9-9.5-2.8-12.4-1.9-1.2-4-2.3-6.1-3-2.4-1-4.7-2.3-6.9-3.8-1.1-.6-1.9-1.6-2.5-2.7-.5-1.4-.4-2.9.2-4.3 2.1-6.1 7.5-10.5 13.9-11.5 2.7-.4 5.9-.2 7.8-2.3 1-1.1 1.5-2.8 2.9-3.2.9-.2 1.8-.1 2.6.3l10.2 3.6c1.1.5 2.4.7 3.6.6 1.3-.2 2.2-1.3 2.1-2.6-.3-1.7-2.9-2.5-2.7-4.2.1-.6.4-1.1.9-1.4 7.5-8 18.1-12.2 29.1-11.5 1.3 2.1-.8 4.6-2.5 6.5s-3.1 5.1-1 6.4c.8.4 1.8.6 2.7.6 2.5.3 5 1.1 7.3 2.2 3.5 1.5 7 3.2 10.4 5.1-.3-2.2-.6-4.6.3-6.7s3.3-3.7 5.4-2.9c2 .8 3.1 3.5 5.2 3.7 2.9.3 4-3.9 2.8-6.6s-3.6-4.9-3.8-7.8c-.1-2 .6-4.4-1-5.6-.6-.4-1.2-.6-1.8-.6l-39.1-7.2c-2.3-.4-5.7-.1-5.8 2.3-.1 1.3 1.1 2.6.6 3.8-.6 1.3-2.4 1.2-3.7 1.6-2.1.7-3.1 3.2-2.9 5.3.4 2.2 1.2 4.2 2.4 6-2.9-1.4-6.7-1.6-9.3-2.7zM278.5 216c-5-1.7-10.6 0-13.9 4.2-.6.8-1.2 2-.6 2.9.8 1.3 2.7.8 4.2.3 2.1-.8 4.5-.8 6.6-.2 1.4.5 2.6 1.3 3.9 1.7 1.4.6 2.9.3 4.1-.6.9-1 1-2.4 1-3.8.1-.9-.2-1.8-.8-2.5-.5-.3-1.2-.5-1.8-.5-1.4-.3-2.7-1-3.6-2.1M292.6 212.1c-1.8-.1-3.3 1.3-3.4 3 0 .5.1 1 .3 1.5 1.7.5 3.5.6 5.2.3 1.8-.3 3.2-1.6 3.6-3.3-2 .4-4.2 0-5.9-1.1M339.9 205.6c-4.6 1-9.1 2.5-13.3 4.5 4.1 1.6 6.7 5.7 6.4 10.1-.2.8-.2 1.7.1 2.5.5 1.2 1.9 1.6 3.2 1.9 2.2.7 4.6 1 6.9.9 2.4-.1 4.5-1.4 5.7-3.5.3-1 .7-1.9 1.2-2.8 3-4.6 11.9 1 15.1-3.5 1.1-1.6 1-3.9 2.5-5.1.8-.5 1.6-.9 2.6-1 6.5-1.3 13-2.2 19.5-2.8 3.1-.3 7.2-1.4 7.2-4.5-11.7-2.3-23.9-.7-34.5 4.6-3.9 1.9-8.9 6-12.7 3.4-1.4-1-1.3-3.5-3.2-4.6-2-1-4.6-.6-6.7-.1z"/><path class="st0" d="m378.2 212.7 5.5 1.1c-3.9-.2-7.3 2.9-7.4 6.8v.9c5.1 1.7 10.8 0 16.2.3s11.7 4.1 10.8 9.5c-.3 1.6-1.2 3.2-.7 4.8.3 1.1 1.3 1.9 1.9 2.9 1.1 2.1.2 4.8-1.2 6.7s-3.4 3.4-4.6 5.5c-3.1 5.1-1.4 11.6.5 17.3.5 2.1 1.5 4.1 2.9 5.8 2.8 2.9 7.3 3.2 11.3 3.3 2.9 0 6.3-.1 8.2-2.4 2.4-3 .7-7.6 2.3-11.1 1.5-3.2 5.2-4.5 8.5-5.5 6.1-1.8 12.4-3.3 18.2-5.9 7.2-3.3 14-8.5 21.9-8.9 2.2-.1 4.5.1 6.7-.5s4.2-2.5 4-4.7c-.1-1.9-1.7-3.3-3-4.7s-2.2-3.6-1.1-5.1l20.8-3.9c-1.5-4-2.6-9.3.8-11.9 1.2-.9 2.9-1.3 3.9-2.5 1.8-1.9.9-5.3-1.2-6.9s-4.8-2-7.4-2.3c-9.1-.8-18.3-.3-27.4.2-17.9 1-35.7 2-53.6 2.9-3.6.2-7.7-.1-11 1.1-2.8 1-4.8 2.9-8 3.6-6 1.2-12.4.3-17.8 3.6zM476.7 256.2c-.6-.1-1.1 0-1.6.4-.3.3-.5.8-.5 1.2-.4 2 .1 4.1 1.2 5.8 1.2 1.7 3.2 2.7 5.2 2.5 2.5-.3 4.3-2.4 6.6-3.5 3.5-1.6 18.4-4.1 8.1-9.6-3.6-1.9-5.8-.2-8.6 1-3.3 1.7-6.8 2.4-10.4 2.2zM567 209.6c-1.2.5-2.2 1.4-2.9 2.5-.6 1.2-.2 2.7.9 3.3.4.2.9.2 1.4.2l4.9.1c2.1.1 4.7.5 5.2 2.5.4 1.5-.5 3.4.6 4.5.5.4 1.1.6 1.7.6 1.6.4 3.3.5 4.9.2 3.6-1 1.7-3.1 2.8-5.1 1.7-3 1.4-1.2 4.4-2.9 2.2-1.3 5.1-3.5 3.3-6.7-3.2-5.4-22.5-1.6-27.2.8zM663.5 206.8l-2.8.4c-6.4.9-12.8 1.7-19 3.6 2.7 1.1 5.5 1.7 8.3 2 1.6.1 3.1.3 4.7.7 2.7.8 5.5 2.9 8.1 1.8 1.6-.7 2.2-2.4 3.5-3.3.9-.6 4.5-1.6 4.9-2.3 3.1-4.9-5.2-3.2-7.7-2.9zM676 219.7c-3.8 2.1-7.3 4.7-10.5 7.7-1.3 1.3-2.7 2.8-2.6 4.6.2 2.4 2.7 3.8 5 4.8l9.1 3.8c1.1-1.6.1-3.7-1-5.2s-2.5-3.3-2-5.1c.6-2.1 3.1-2.8 5.3-3.2 3.5-.6 12.9-.5 11.8-6.2-1.4-6.6-11.6-3.2-15.1-1.2zM674.2 594.8c-.9 2.5-.9 5.5.5 7.6 1.7 2.5 5 3.4 7.9 2.7 2.9-.8 5.5-2.4 7.4-4.7 1.7-1.9 3.2-4.1 4.2-6.5 1.5-3.7 2.6-7.6 3.1-11.5l2.8-14.8c.6-3.3.6-13.5-5.5-10.1-1.7.9-5.5 8-7.2 10.1-3.1 3.6-3.6 7.2-5.2 11.6-2 5.5-6.1 10.1-8 15.6zM995.3 670.6c-2-.8-3.9-1.7-5.8-2.8-1.9 5.1-2.9 10.5-2.9 16l13.6-7.7c2-1.2 4.4-2.8 4.3-5.1 0-.6-.3-1.2-.8-1.5-.3-.1-.6-.2-1-.1-2 .2-3.9 1.2-5.8 1.9s-4.1 1.1-5.9 0M1067.2 675.2c-1.5.4-3 .9-4.4 1.6-3.1 1.6-5.3 4.6-8.1 6.7-2.7 2-5.9 3.1-9.1 4.2-.9.8-.5 2.5.5 3.2 1.1.6 2.3.9 3.6.8 3.3.1 6.8.1 9.7-1.5 1.6-1.1 3.2-2.3 4.6-3.6 3.4-2.8 7.4-4.7 11.5-6.5 1.5-.6 2.8-1.4 4-2.4 2.5-2.5 2.7-6.3-.9-7.2-3-.7-8.6 3.8-11.4 4.7zM1098.9 654.4c.3-3.5-.9-6.9-3.5-9.3 0 3.4-.1 7.1-2.1 9.9-1.4 2-3.5 3.4-5 5.3s-2.2 5-.4 6.7c1.1.9 2.5 1.3 3.9 1.4 3.5.4 7.6.6 10-1.9 1.3-1.4 2-3.4 3.6-4.5.6-.3 1.2-.6 1.6-1.1.7-1.1-.4-2.5-1.6-2.9s-2.5-.2-3.8-.6-2.3-1.7-1.7-2.8M1042.5 528.8c-1.8.4-3.8.6-5.6.3-3.1-.6-5.6-2.9-8.1-4.9-6-4.6-13.3-7.1-20.8-7.3-6.9-.1-13.8 1.7-20.5.4.4 2.4 2.5 4.3 4.8 5.4s4.7 1.6 7 2.7c3.6 1.7 6.5 4.7 8 8.4.7 1.7 1.2 3.5 2.3 5 2.2 3 6.5 3.7 10.2 3.4 4.9-.3 10-1.7 14.5.1 3.5 1.4 6 4.4 8.9 6.8s7 4.1 10.3 2.4c-7.1-2.3-11.9-9-11.8-16.4 3.3.3 12.7.2 12.2-5.4-.5-4.6-8.6-1.4-11.4-.9zM999.7 567.1c.6-3.2 3.8-6 2.8-9.1-.7-2.1-3.2-3.2-5.4-3.2s-4.4.6-6.7.7c-1.5-.1-2.9-.1-4.4.1-4.4.7-7.2 5.4-11.4 7-2.5 1-5.4.8-8.1 1.5-6 1.6-9.8 7.3-14 11.8-6.8 7.4-15.6 12.5-25.4 14.8-3.4.8-7.1 1.3-9.8 3.5-3.6 2.9-4.5 8-5.3 12.6-2.2 12.6-5.6 25-10.1 37.1l14.3 1.8c2.7.3 5.5.7 8.1-.1 1.9-.7 3.7-1.7 5.4-2.9 6.4-3.9 13.5-6.5 20.9-7.5 3.7-.5 7.7-.6 11.2.8s6.5 4.5 6.8 8.3c3.1-1 6.5-.1 8.8 2.1 2.2 2.3 3.7 5.2 4.2 8.4.4 2 .8 4.3 2.6 5.1 1.5.7 3.2-.1 4.8-.2 5.5-.4 10 6 15.4 4.9 5.8-1.2 7.2-9.8 12.8-11.6 3.2-1 7.8.2 9.3-2.8 1.4-2.7-1.4-5.7-1.1-8.7.3-3.7 4.7-5.2 8-6.8 11.5-5.4 16.9-20.8 11.4-32.2-3.3-6.8-9.8-12.1-11-19.5-.9-5.7 1.3-12.4-2.3-16.9-1.9-2.3-5-3.5-6.1-6.3-.7-1.7-.4-3.7-.8-5.5s-2-3.7-3.7-3.2c-5.2 1.4-6.9 17.4-9.6 21.3-4.2 5.9-12.9 2-11.6-5.3zM903.6 534.8c-1.8-.5-3.7-1-5.4-.3s-2.7 3.2-1.3 4.5c10.7-.4 21.4-.8 32 .6 12.2 1.7 24.3 5.8 36.6 4.6-7-2.1-14.1-3.7-21.3-4.9l-12-2.3c-3.2-.7-6.5-1.2-9.7-1.5-7-.6-12.1 1.2-18.9-.7zM914.3 497.6c-.9-.1-2-.1-2.4.6s.1 1.7-.2 2.5c-.3 1.1-1.8 1.4-2.9 1.2s-2.4-.5-3.4 0c-1.1.7-1.5 2.1-1.1 3.3.4 1.2 1.1 2.3 2 3.2 1.5 1.9 3.2 3.6 5.1 5.1 3.7 2.7 8.7 4 11 8 .3.8.8 1.4 1.5 2 1.1.7 2.6.2 3.8-.4l4.2-1.9c.8-.3 1.4-.7 2-1.3 1-1.3.4-3.1-.4-4.5s-1.8-2.8-1.7-4.5c.3-2.9 4-4 5.5-6.4 1.5-2.5.5-5.6.7-8.5.2-3.4 2.3-7.8-1.1-10.3-2.9-2.2-5.7-.2-7.8 2.2-4.6 5-6.7 10.4-14.8 9.7zM939.8 447c1.4 2.7 4.4 4.4 6 7 1.7 2.9 1.5 6.6 3.3 9.4 1.9 2.9 5.7 4.4 6.7 7.7 1.2 3.6-1.5 7.9.6 11 1.6 2 4.5 2.4 6.5.9l.3-.3c1.8-2 1.7-5.1-.2-7-1.2-1.1-3-1.6-4-2.9-.5-.8-.9-1.6-1-2.5-.6-2.6-.5-5.4.3-8 .3-.7.3-1.4.2-2.1-.5-1.3-2.3-1.4-3.6-2.1-2.9-1.4-2.8-5.5-2.3-8.7-.3 2.1-7.9-1.5-8.7-2.7-1.6-2.4-.7-7-1-9.7-3.6 1.8-4.9 6.6-3.1 10zM863.3 489.2c-1.4-1.6-3.5-3.2-5.4-2.3-1.4.7-1.8 2.7-1.3 4.2.7 1.5 1.7 2.7 3.1 3.6 3.9 3.2 8.1 6.1 11.5 9.9 6.1 6.7 9.3 15.8 16 22 1.3 1.4 3.1 2.4 5 2.7 1.9.2 4.1-1.1 4.3-3 .2-1.6-.9-3-2-4.2-2.6-2.8-5.4-5.4-7.8-8.3-1.1-1.1-1.8-2.6-2-4.2 0-1.6 1.4-3.2 3-2.8-1.9-.5-3.2-3.6-6-4.2-2.3-.5-2.8.9-5.6-.2-5.1-2.2-9.1-9.2-12.8-13.2zM985.1 336.5c-1.5-.4-2.9-1-4.4-1.6-3.8-1.2-8.9 1.7-8.4 5.7.3 2.6 2.8 4.4 4.2 6.7 2 3.4 1.5 7.7.4 11.5-.3 1.2-.8 2.3-1.5 3.3-1 1-2.1 1.9-3.4 2.5-5.2 2.9-9.8 6.8-13.5 11.5-.4.4-.7 1-.8 1.5-.2 1.3 1.2 2.3 1.9 3.4 1.7 2.5.5 5.8.6 8.9-.1.9.3 1.7 1.1 2.2 1 .5 2.2-.4 2.8-1.4 1.8-3.3.5-8.7 3.9-10.3.7-.3 1.4-.4 1.9-1 .7-.9 0-2.3.4-3.3.5-1.6 2.8-1.7 4.5-1.6 3 .1 5.9-.3 8.7-1.2 1.1-.3 2.1-.8 2.9-1.7 1-1.3.9-3.1.7-4.8-1-8.2-3.6-16.1-7.6-23.2 3 .4 6.3.7 9-.9 1.5-.9 3.2-3.5 2.5-5.3-1.3-2.8-3.4-.4-5.9-.9zM596.2 381.4c.4 1.9.7 4 .1 5.9s-2.6 3.4-4.5 2.9c-1.5-.4-2.3-1.9-3.4-3.1-5.8-6.3-18.9-2.6-22.5-10.4-1.5-3.2-.5-7-1.5-10.3-1.3-4-5.1-6.6-9.3-6.3-1.8.3-3.6.8-5.3 1.6-11.3 4.5-23.3 7.5-35.4 8.9-2.3.1-4.6.6-6.8 1.2-5 1.8-8.4 6.4-10.8 11.2s-4.2 9.8-7.5 14c-3.4 4.4-8.2 7.5-12.7 10.8-1.7 1.1-3.2 2.6-4.2 4.4-1 2-.9 4.3-.8 6.5l.9 26.8c.1 3.5.3 7 1.8 10.1 1.9 3.9 5.7 6.4 8.4 9.8 2.7 3.5 4.1 7.8 4 12.3-.1 1.8-.2 3.9 1.2 5 .8.5 1.8.8 2.8.8l36.3 3c6.4.5 13.5 1.4 17.6 6.2 2 2.3 3.5 5.6 6.6 5.8 1.3.1 2.6-.4 3.8-.5 3.3-.3 6.1 2.2 7.9 4.9 2.7 4.2 4 9.1 3.5 14.1-.3 3.1-1.3 6.1-1.5 9.3-.8 11.9 9.3 22.2 9.5 34.1.1 7-3.2 13.5-6.4 19.7 5.2 7.9.9 18.5 3 27.7 2 8.8 9.3 15.7 11.1 24.5.8 4 .9 9 4.4 11.1 1.6.8 3.3 1.1 5 1 10.5.1 20.8-2.2 30.2-6.9 4.4-2.2 9-5.4 9.7-10.3.6-3.9-1.4-8.3.7-11.7 2.4-4 8.5-3.7 12-6.8 5.7-5 1.3-14.6 3.6-21.8 2.1-6.5 9.2-9.9 12.7-15.7 1.4-2.5 2.4-5.2 3-8 1.6-6.7 2.6-13.5 3-20.4.1-4.2.4-8.4.9-12.5 3.8-23.6 27.2-39.5 34.8-62.2.7-2.2 1.1-5.1-.9-6.3-1.1-.5-2.4-.7-3.7-.4l-16.7 2.1c-2.1.3-4.3.5-6.2-.4s-3.3-3.3-2.3-5.1c2.8-5.1-3-11.7-5.6-16.9-7-14.2-15.3-27.7-24.9-40.4-.6-.6-1-1.5-1.1-2.4l4.8.2c-1.6-5.8-4.3-12.1-9.8-14.2-3.2-1.2-6.6-.8-10-.6-9.6.6-20-.8-29.5-2.3z"/><path class="st0" d="M625.7 251.7c2.5 2.7 5.3 5.5 9 6 6.4.8 11.1-5.8 14-11.6.2 3.1 2.9 5.4 5.9 5.3 1.6-.3 3.1-.9 4.5-1.7 12.8-7 27-10.7 41.6-10.7-.3-2.3 1.2-4.4 3.4-4.9 3-.6 5.6 2 7 4.6s2.3 5.7 4.6 7.7 6.7 1.9 7.5-1c.9-2.8-2-5.1-4.4-6.7s-4.9-4.6-3.3-7c12.2-2.7 24.5-5.4 37-6 2.1.1 4.2-.3 6.2-1.1 1.9-.9 3.4-3.1 2.9-5.1-5.6 1.3-11.4-.9-14.7-5.6 17.3-1.4 35.8-2.7 51.2 5.5 1.8 4-7.6 7.3-5 10.8.8 1.1 2.4 1.3 3.8 1.3 10.7.2 21.4.4 32-1.2 3.9-.6 7.8-1.4 11.6-.9 6.5.8 12 5.1 18.3 6.5 2.6.6 5.5.6 7.7-.9s3.1-4.9 1.3-6.9c6-5.9 15.9-4.4 23.8-1.6s15.4 7.3 23.7 8c6 .4 12.1-1.2 18-.1 3.7.6 7.2 2.3 10.8 3.3 6.9 1.9 14.1 1.5 21.3 1.6 18.2.2 36.2 3.8 53.1 10.6 2.2.7 4.2 1.9 5.9 3.5 1.6 1.7 2.4 4.3 1.3 6.4l-17.5-2.6c1.6 3.2 5.9 3.8 9.4 4.9s7 4.9 5 7.9c-3.7-1.2-7.1 2.6-9 6s-4.2 7.6-8.1 7.8c-3.5.2-7.8-2.8-10.1-.1 3.2 4 5.9 8.3 8.1 12.9 2.3 4.7 3.9 10.7.8 14.9-.5.8-1.2 1.3-2.1 1.6-2.5.6-4.1-2.4-5.9-4.3-2.3-2.3-5.7-3-8.7-4.1s-6.3-3.3-6.5-6.5c-.1-2 .9-3.9 1.7-5.8 1.3-3.1 1.9-6.5 1.7-9.9-.2-2.7-.9-5.6-2.9-7.5s-5.4-2.5-7.5-.8c-1 .8-1.8 2.1-3.1 2.2-2.3.1-4-3.9-5.8-2.5.2 1.4-.1 2.9-.8 4.1-5.4 4.7-13.7 2.7-20.7 4.4-3.3 1-6.5 2.3-9.5 4.1-1.1.5-2 1.3-2.7 2.3-.9 1.7.1 3.9 1.6 5 1.6 1 3.5 1.6 5.4 1.8 8.5 1.6 17.2 4.1 23.9 9.6s11.1 14.5 9 22.9L954.6 312c.6 6.7 1 13.5 1.1 20.3.1 1.3-.1 2.7-.5 3.9-1.2 2.6-4.4 3.5-7.3 4.1-3.1.6-5.1 3.6-4.5 6.7 0 .2.1.4.2.6 1 3.3 3.5 5.9 5.8 8.4s4.6 5.5 4.9 8.9-2.3 7.3-5.7 7.1c-2.6-.2-4.5-2.5-5.7-4.9s-1.8-5-3.4-7c-5.1-6.1-16.4-3.5-20.9-10-2.3 2.7-3.1 6.3-2.1 9.7 2.1-1.3 5-.1 6.6 1.8s2.3 4.4 3.6 6.5c1.7 2.9 4.3 5.5 4.6 8.8-.1 1.3 0 2.5.1 3.8.4 2 2.1 3.5 3.3 5.2 2.8 3.9 2.6 9.4.8 13.8s-5 8.2-8.2 11.8c-5.5 6.3-11.2 12.6-17.8 17.9-1.9 1.5-3.9 3-5 5.1s-1.2 5 .6 6.6c-1.3.1-3.6.7-4.9.8-.5-5.1-.5-10.3-.3-15.5-5.1-2.4-10.5 4.1-9.9 9.7s4.7 10.1 7.6 14.9c2.1 3.5 3.7 7.6 3 11.7s-4.3 7.8-8.4 7.4c-6.5-.6-9.2-9.9-15.7-11-.6-.1-1.2-.1-1.7.2-1 .5-1.1 1.8-1.2 2.9-.3 5.3-.5 10.9 1.6 15.8 3.1 7.2 10.9 13.3 9.3 20.9-8.9-4.1-13.6-14.1-15.7-23.8s-2.5-19.7-6.2-28.8c-2.9 3.7-8.9.6-11.5-3.2-2.5-3.7-4-7.9-6.4-11.6s-6.1-7-10.5-7.2c-4.6-.2-8.6 3-12.2 6-2.9 2.5-5.9 5-7.6 8.4-2.5 5-1.8 10.8-1.9 16.3-.1 6-1.4 12.3-5.5 16.7s-11.6 5.9-16.1 2c-2.4-2.1-3.5-5.1-4.5-8.1-4.9-14.3-9-28.8-12.2-43.5-.8 3.4-3.7 7.7-6.5 5.7-.6-.5-1.1-1.2-1.5-1.9-5.3-8.9-15-14.3-24.8-17.5s-20.2-4.7-29.9-8.2c-5.5-2-10.7-4.6-15.5-7.7-2.5 3.7-2.8 8.5-.7 12.5 2.2 3.8 7 6 11.2 4.7 2.2-.7 4-2.2 6.1-2.9s5-.4 6 1.7c.9 2-.5 4.4.2 6.4 1 3.1 5.8 3.4 7.4 6.2 1.2 2.1.2 5-1.5 6.7s-4.1 2.7-6.3 3.9c-7 3.9-11.9 10.5-18 15.7s-14.7 8.9-22 5.6c1.7-8.8-8.7-15.2-10.6-23.9-.6-2.9-.3-5.9-1.2-8.7-1.3-4.1-4.9-6.8-7.9-9.9-7.2-7.6-11.1-17.8-10.7-28.3.2-3.6.8-7.3 0-10.8s-3.7-6.9-7.3-6.8c-8.2.4-18.6 1-22.9-6-1.5-2.5-2.2-6.2 0-8.1 1.6-1.4 3.9-1.2 6-1l18.6 1.8c4.3.4 9 .8 12.8-1.5s5.3-8.3 1.9-11c-2.5-2-7-1.8-7.8-4.9-.6-2.6 2.3-5.5.7-7.7-1.1-1.5-3.6-1.1-5.1 0s-2.6 2.9-4.3 3.7c-3 1.5-6.5.1-9.7-.9s-7.5-1.1-9 1.9c-1.7 3.3 1.5 7.6-.2 11-2.3 4.4-10 1.9-13.1 5.7-3.7 4.3 2.5 10.8 1.3 16.3-3.2 1.6-7 1.4-10-.6s-4.6-5.5-4.2-9.1c.3-2.5 1.6-5 .7-7.4-.7-1.9-2.6-3-4.4-4l-18-10c-1.7 3.1.4 7 3.1 9.3s6 4.1 7.7 7.2c2.3 4.4.7 9.9-3.5 12.4-.5.4-1.2.5-1.8.3-.6-.3-1-.9-1.2-1.6-3.2-8.1-8-16.2-15.6-20.4s-18.6-3.4-23.6 3.8c-1.2 1.7-2 3.6-3 5.4-5.5 9.6-17.3 14.1-28.4 13.8-1.1.1-2.2-.2-3.1-.7-1.8-1.2-1.7-3.8-1.4-6l1.2-9.1c.2-1.8.6-3.9 2-5 2-1.6 5-.6 7.6-.6 4-.2 7.5-2.9 8.7-6.7 1.1-3.9-.1-8-3-10.8-1.2-1.1-2.8-2.5-2.2-4 .5-.8 1.4-1.4 2.3-1.6 4.7-1.4 9.6-1.7 14.2-3.3s9.1-4.9 10.1-9.6c.3-1.5.5-3.2 1.8-3.9.7-.3 1.4-.4 2.1-.4 5.2-.7 8.9-5.3 8.6-10.5 2.2-1.5 5.3-.4 7.4 1.2s4 3.8 6.6 4.5c4.8 1.3 9.5-3 14.5-3 2.1 0 4.3.7 6.3 0s3.2-2.7 4.8-4.2 4.2-2.4 5.7-.8l-1.2-9c4.9 1.2 10.2.3 14.4-2.6l-15.7-5.3c-.5-.1-1-.4-1.5-.8-1.1-1.2 0-3.1.9-4.5 2.2-3.3 2.6-8.8-1.1-10.5-2.5-1.1-5.3.2-7.7 1.6l-11.4 6.4c-.4 2.2 2.3 3.4 3.9 4.9 2.7 2.4 3 6.6.5 9.3-1.2 1.4-3 2.2-4.9 2.2 1.5 2 2.1 4.6 1.5 7l-7.7.6c-.9.2-1.8 0-2.5-.5-.8-.7-.7-2-.9-3.1-.5-2.6-3-4.5-5.6-4.9s-5.3.1-7.9.7c-1.1.4-2.3.4-3.4-.1-.6-.4-1.1-1-1.3-1.7-1.1-2.8-.1-6 1.7-8.3s4.3-4.1 6.6-6c5.4-4.7 9.3-10.8 11.4-17.6 4.2-1.8 8.6-4.2 12.9-6 6.5-3.3 13.9-4.7 21.2-4.1l14.3.3c4.2.1 8.6.2 12.5 1.8s7.4 5.1 7.7 9.4c.2 1-.2 2-.9 2.6-.6.3-1.2.4-1.8.4-4.5-.1-6.2.9-10.2 1zM511.3 296.7c1.1-1.1 1.6-2.7 1.1-4.2-2.8-1.1-5.9-.5-8.1 1.5-.9.9-1.6 1.8-2.2 2.9-1.9 3.1-3.6 6.8-2.5 10.2.2.8.7 1.4 1.3 1.8.5.2 1 .3 1.5.2 2.1 0 4.2-.1 6.2-.4 1.3-.2 2.7-.5 3.2-1.7.6-1.5-.9-3.3-.5-4.9.3-.7.8-1.4 1.3-1.9.6-.5.9-1.3.8-2.1-.2-.8-1.3-1.2-1.8-.5"/><path class="st0" d="M522.1 282.7c-1.8-.4-3.7-.5-5.6-.4-.4 0-.8.1-1.2.3-.4.3-.6.6-.7 1.1-.8 2.6.5 5.5 3.1 6.5.7.2 1.3.4 1.9.8 1.6 1.2.6 3.8.9 5.8.3 2.2 2.5 4.1 2.1 6.3-.3 1.8-2.2 3.1-1.9 4.9s2.7 2.4 4.5 2.5c1.1.2 2.2.1 3.2-.4 1-.7 1.7-1.7 2-2.9.8-2.3 1.1-4.7.9-7.1 0-1.1-.3-2.2-.8-3.1-.6-.8-1.2-1.5-1.9-2.1-3.5-4.1.3-10.2-6.5-12.2z"/><path class="st1" d="M991.2 607.8S718 451 600.4 480.7c0 0-249.3 26.8-278.2 85.8 0 0-79.2-247.6-108.1-255.9"/><path class="st1" d="M322.2 566.5C368 444.4 780.7 309 780.7 309c-58.6 14.9-180.3 171.7-180.3 171.7s-257.5-187.4-386.3-170c0 0 567 18.6 777.1 297.1"/><circle class="st2" cx="214.1" cy="310.6" r="12"/><circle class="st2" cx="322.2" cy="566.5" r="12"/><circle class="st2" cx="780.7" cy="309" r="12"/><circle class="st2" cx="991.2" cy="607.8" r="12"/><circle class="st2" cx="600.4" cy="480.7" r="12"/></svg>