<svg version="1.1" id="Calque_1" xmlns="http://www.w3.org/2000/svg" x="0" y="0" viewBox="0 0 800 421" style="enable-background:new 0 0 800 421" xml:space="preserve"><style>.st2{opacity:.1;fill:#a7a7bc;enable-background:new}</style><path style="fill:none" d="M0 0h800v421H0z"/><path d="M636.9 313.4H163.1c-23.8 0-43.1-19.3-43.1-43.1V135.6c0-23.8 19.3-43.1 43.1-43.1h473.8c23.8 0 43.1 19.3 43.1 43.1v134.6c0 23.9-19.3 43.2-43.1 43.2z" style="fill:#18182f;stroke:#32324c;stroke-miterlimit:10"/><path id="XMLID_8_" class="st2" d="M191.3 226.5h53.4c1 0 1.8 1.4 1.8 3v5.6c0 1.7-.8 3-1.8 3h-53.4c-1 0-1.8-1.4-1.8-3v-5.6c0-1.7.8-3 1.8-3z"/><path id="XMLID_1_" class="st2" d="M179.3 245.1h77.4c1.5 0 2.7 1.4 2.7 3v5.6c0 1.7-1.2 3-2.7 3h-77.4c-1.5 0-2.7-1.4-2.7-3v-5.6c0-1.6 1.2-3 2.7-3z"/><path class="st2" d="M218 211.1c-16.3 0-29.6-13.2-29.6-29.6 0-16.3 13.2-29.6 29.6-29.6 16.3 0 29.6 13.2 29.6 29.6 0 16.4-13.3 29.6-29.6 29.6z"/><path id="XMLID_3_" class="st2" d="M312.6 226.5H366c1 0 1.8 1.4 1.8 3v5.6c0 1.7-.8 3-1.8 3h-53.4c-1 0-1.8-1.4-1.8-3v-5.6c0-1.7.8-3 1.8-3z"/><path id="XMLID_2_" class="st2" d="M300.6 245.1H378c1.5 0 2.7 1.4 2.7 3v5.6c0 1.7-1.2 3-2.7 3h-77.4c-1.5 0-2.7-1.4-2.7-3v-5.6c.1-1.6 1.3-3 2.7-3z"/><path class="st2" d="M339.3 211.1c-16.3 0-29.6-13.2-29.6-29.6 0-16.3 13.2-29.6 29.6-29.6 16.3 0 29.6 13.2 29.6 29.6 0 16.4-13.2 29.6-29.6 29.6z"/><path id="XMLID_9_" class="st2" d="M434 226.5h53.4c1 0 1.8 1.4 1.8 3v5.6c0 1.7-.8 3-1.8 3H434c-1 0-1.8-1.4-1.8-3v-5.6c-.1-1.7.8-3 1.8-3z"/><path id="XMLID_6_" class="st2" d="M421.9 245.1h77.4c1.5 0 2.7 1.4 2.7 3v5.6c0 1.7-1.2 3-2.7 3h-77.4c-1.5 0-2.7-1.4-2.7-3v-5.6c.1-1.6 1.3-3 2.7-3z"/><path class="st2" d="M460.7 211.1c-16.3 0-29.6-13.2-29.6-29.6 0-16.3 13.2-29.6 29.6-29.6 16.3 0 29.6 13.2 29.6 29.6-.1 16.4-13.3 29.6-29.6 29.6z"/><path id="XMLID_11_" class="st2" d="M555.3 226.5h53.4c1 0 1.8 1.4 1.8 3v5.6c0 1.7-.8 3-1.8 3h-53.4c-1 0-1.8-1.4-1.8-3v-5.6c0-1.7.8-3 1.8-3z"/><path id="XMLID_10_" class="st2" d="M543.3 245.1h77.4c1.5 0 2.7 1.4 2.7 3v5.6c0 1.7-1.2 3-2.7 3h-77.4c-1.5 0-2.7-1.4-2.7-3v-5.6c0-1.6 1.2-3 2.7-3z"/><path class="st2" d="M582 211.1c-16.3 0-29.6-13.2-29.6-29.6 0-16.3 13.2-29.6 29.6-29.6 16.3 0 29.6 13.2 29.6 29.6-.1 16.4-13.3 29.6-29.6 29.6z"/></svg>