<svg version="1.1" id="Calque_1" xmlns="http://www.w3.org/2000/svg" x="0" y="0" viewBox="0 0 800 421" style="enable-background:new 0 0 800 421" xml:space="preserve"><style>.st0{fill:#fff;stroke:#c7bed3;stroke-miterlimit:10}.st1{opacity:.1;enable-background:new}</style><path class="st0" d="M303.2 202.1H191.3c-7.1 0-12.8-5.2-12.8-11.6V57c0-6.4 5.7-11.6 12.8-11.6h111.9c7.1 0 12.8 5.2 12.8 11.6v133.5c.1 6.4-5.7 11.6-12.8 11.6z"/><path id="XMLID_4_" class="st1" d="M196.9 148.8h90.9c1.7 0 3.1.9 3.1 2.1v3.9c0 1.1-1.4 2.1-3.1 2.1h-90.9c-1.7 0-3.1-.9-3.1-2.1v-3.9c0-1.2 1.5-2.1 3.1-2.1z"/><path id="XMLID_1_" class="st1" d="M196.6 176.1h79.5c1.5 0 2.7.9 2.7 2.1v3.9c0 1.1-1.3 2.1-2.7 2.1h-79.5c-1.5 0-2.7-.9-2.7-2.1v-3.9c-.1-1.1 1.2-2.1 2.7-2.1z"/><path id="XMLID_3_" class="st1" d="M198.5 162.5h96.9c2.5 0 4.7.9 4.7 2.1v3.9c0 1.1-2.1 2.1-4.7 2.1h-96.9c-2.5 0-4.7-.9-4.7-2.1v-3.9c.1-1.2 2.1-2.1 4.7-2.1z"/><path class="st1" d="M291.1 133.5h-87.8c-5 0-9.1-4.7-9.1-10.5V70.4c0-5.8 4-10.5 9.1-10.5h87.8c5 0 9.1 4.7 9.1 10.5v52.7c0 5.8-4.1 10.4-9.1 10.4z"/><path class="st0" d="M455.9 202.1H344c-7.1 0-12.8-5.2-12.8-11.6V57c0-6.4 5.7-11.6 12.8-11.6h112c7.1 0 12.8 5.2 12.8 11.6v133.5c0 6.4-5.8 11.6-12.9 11.6z"/><path id="XMLID_6_" class="st1" d="M349.6 148.8h90.9c1.7 0 3.1.9 3.1 2.1v3.9c0 1.1-1.4 2.1-3.1 2.1h-90.9c-1.7 0-3.1-.9-3.1-2.1v-3.9c0-1.2 1.5-2.1 3.1-2.1z"/><path id="XMLID_5_" class="st1" d="M349.3 176.1h79.5c1.5 0 2.7.9 2.7 2.1v3.9c0 1.1-1.3 2.1-2.7 2.1h-79.5c-1.5 0-2.7-.9-2.7-2.1v-3.9c-.1-1.1 1.2-2.1 2.7-2.1z"/><path id="XMLID_2_" class="st1" d="M351.3 162.5h96.9c2.5 0 4.7.9 4.7 2.1v3.9c0 1.1-2.1 2.1-4.7 2.1h-96.9c-2.5 0-4.7-.9-4.7-2.1v-3.9c0-1.2 2.1-2.1 4.7-2.1z"/><path class="st1" d="M443.8 133.5H356c-5 0-9.1-4.7-9.1-10.5V70.4c0-5.8 4-10.5 9.1-10.5h87.8c5 0 9.1 4.7 9.1 10.5v52.7c0 5.8-4.1 10.4-9.1 10.4z"/><path class="st0" d="M608.6 202.1H496.8c-7.1 0-12.8-5.2-12.8-11.6V57c0-6.4 5.7-11.6 12.8-11.6h111.9c7.1 0 12.8 5.2 12.8 11.6v133.5c0 6.4-5.8 11.6-12.9 11.6z"/><path id="XMLID_9_" class="st1" d="M502.4 148.8h90.9c1.7 0 3.1.9 3.1 2.1v3.9c0 1.1-1.4 2.1-3.1 2.1h-90.9c-1.7 0-3.1-.9-3.1-2.1v-3.9c-.1-1.2 1.4-2.1 3.1-2.1z"/><path id="XMLID_8_" class="st1" d="M502 176.1h79.5c1.5 0 2.7.9 2.7 2.1v3.9c0 1.1-1.3 2.1-2.7 2.1H502c-1.5 0-2.7-.9-2.7-2.1v-3.9c-.1-1.1 1.2-2.1 2.7-2.1z"/><path id="XMLID_7_" class="st1" d="M504 162.5h96.9c2.5 0 4.7.9 4.7 2.1v3.9c0 1.1-2.1 2.1-4.7 2.1H504c-2.5 0-4.7-.9-4.7-2.1v-3.9c0-1.2 2.1-2.1 4.7-2.1z"/><path class="st1" d="M596.5 133.5h-87.8c-5 0-9.1-4.7-9.1-10.5V70.4c0-5.8 4-10.5 9.1-10.5h87.8c5 0 9.1 4.7 9.1 10.5v52.7c0 5.8-4.1 10.4-9.1 10.4z"/><path class="st0" d="M303.2 375.6H191.3c-7.1 0-12.8-5.2-12.8-11.6V230.5c0-6.4 5.7-11.6 12.8-11.6h111.9c7.1 0 12.8 5.2 12.8 11.6V364c.1 6.4-5.7 11.6-12.8 11.6z"/><path id="XMLID_18_" class="st1" d="M196.9 322.3h90.9c1.7 0 3.1.9 3.1 2.1v3.9c0 1.1-1.4 2.1-3.1 2.1h-90.9c-1.7 0-3.1-.9-3.1-2.1v-3.9c0-1.2 1.5-2.1 3.1-2.1z"/><path id="XMLID_17_" class="st1" d="M196.6 349.6h79.5c1.5 0 2.7.9 2.7 2.1v3.9c0 1.1-1.3 2.1-2.7 2.1h-79.5c-1.5 0-2.7-.9-2.7-2.1v-3.9c-.1-1.1 1.2-2.1 2.7-2.1z"/><path id="XMLID_16_" class="st1" d="M198.5 335.9h96.9c2.5 0 4.7.9 4.7 2.1v3.9c0 1.1-2.1 2.1-4.7 2.1h-96.9c-2.5 0-4.7-.9-4.7-2.1V338c.1-1.1 2.1-2.1 4.7-2.1z"/><path class="st1" d="M291.1 307h-87.8c-5 0-9.1-4.7-9.1-10.5v-52.7c0-5.8 4-10.5 9.1-10.5h87.8c5 0 9.1 4.7 9.1 10.5v52.7c0 5.8-4.1 10.5-9.1 10.5z"/><path class="st0" d="M455.9 375.6H344c-7.1 0-12.8-5.2-12.8-11.6V230.5c0-6.4 5.7-11.6 12.8-11.6h112c7.1 0 12.8 5.2 12.8 11.6V364c0 6.4-5.8 11.6-12.9 11.6z"/><path id="XMLID_15_" class="st1" d="M349.6 322.3h90.9c1.7 0 3.1.9 3.1 2.1v3.9c0 1.1-1.4 2.1-3.1 2.1h-90.9c-1.7 0-3.1-.9-3.1-2.1v-3.9c0-1.2 1.5-2.1 3.1-2.1z"/><path id="XMLID_14_" class="st1" d="M349.3 349.6h79.5c1.5 0 2.7.9 2.7 2.1v3.9c0 1.1-1.3 2.1-2.7 2.1h-79.5c-1.5 0-2.7-.9-2.7-2.1v-3.9c-.1-1.1 1.2-2.1 2.7-2.1z"/><path id="XMLID_13_" class="st1" d="M351.3 335.9h96.9c2.5 0 4.7.9 4.7 2.1v3.9c0 1.1-2.1 2.1-4.7 2.1h-96.9c-2.5 0-4.7-.9-4.7-2.1V338c0-1.1 2.1-2.1 4.7-2.1z"/><path class="st1" d="M443.8 307H356c-5 0-9.1-4.7-9.1-10.5v-52.7c0-5.8 4-10.5 9.1-10.5h87.8c5 0 9.1 4.7 9.1 10.5v52.7c0 5.8-4.1 10.5-9.1 10.5z"/><path class="st0" d="M608.6 375.6H496.8c-7.1 0-12.8-5.2-12.8-11.6V230.5c0-6.4 5.7-11.6 12.8-11.6h111.9c7.1 0 12.8 5.2 12.8 11.6V364c0 6.4-5.8 11.6-12.9 11.6z"/><path id="XMLID_12_" class="st1" d="M502.4 322.3h90.9c1.7 0 3.1.9 3.1 2.1v3.9c0 1.1-1.4 2.1-3.1 2.1h-90.9c-1.7 0-3.1-.9-3.1-2.1v-3.9c-.1-1.2 1.4-2.1 3.1-2.1z"/><path id="XMLID_11_" class="st1" d="M502 349.6h79.5c1.5 0 2.7.9 2.7 2.1v3.9c0 1.1-1.3 2.1-2.7 2.1H502c-1.5 0-2.7-.9-2.7-2.1v-3.9c-.1-1.1 1.2-2.1 2.7-2.1z"/><path id="XMLID_10_" class="st1" d="M504 335.9h96.9c2.5 0 4.7.9 4.7 2.1v3.9c0 1.1-2.1 2.1-4.7 2.1H504c-2.5 0-4.7-.9-4.7-2.1V338c0-1.1 2.1-2.1 4.7-2.1z"/><path class="st1" d="M596.5 307h-87.8c-5 0-9.1-4.7-9.1-10.5v-52.7c0-5.8 4-10.5 9.1-10.5h87.8c5 0 9.1 4.7 9.1 10.5v52.7c0 5.8-4.1 10.5-9.1 10.5z"/></svg>