<svg version="1.1" id="Calque_1" xmlns="http://www.w3.org/2000/svg" x="0" y="0" viewBox="0 0 800 421" style="enable-background:new 0 0 800 421" xml:space="preserve"><style>.st0{fill:#fff;stroke:#c7bed3;stroke-miterlimit:10}.st1{opacity:.1;enable-background:new}</style><path class="st0" d="M254.9 153.5H82.4c-11.5 0-20.8-9.3-20.8-20.8V99.9c0-11.5 9.3-20.8 20.8-20.8h172.5c11.5 0 20.8 9.3 20.8 20.8v32.8c0 11.4-9.3 20.8-20.8 20.8z"/><path id="XMLID_7_" class="st1" d="M125.4 100.9h104.5c2.8 0 5.1 1.4 5.1 3.1v5.7c0 1.7-2.2 3.1-5.1 3.1H125.4c-2.8 0-5.1-1.4-5.1-3.1V104c0-1.7 2.3-3.1 5.1-3.1z"/><path id="XMLID_1_" class="st1" d="M124.6 120.3h88.2c2.3 0 4.3 1.4 4.3 3.1v5.7c0 1.7-1.9 3.1-4.3 3.1h-88.2c-2.3 0-4.3-1.4-4.3-3.1v-5.7c0-1.7 1.9-3.1 4.3-3.1z"/><circle class="st1" cx="97" cy="115.4" r="16.7"/><path class="st0" d="M486.2 153.5H313.8c-11.5 0-20.8-9.3-20.8-20.8V99.9c0-11.5 9.3-20.8 20.8-20.8h172.5c11.5 0 20.8 9.3 20.8 20.8v32.8c0 11.4-9.4 20.8-20.9 20.8z"/><path id="XMLID_3_" class="st1" d="M356.7 100.9h104.5c2.8 0 5.1 1.4 5.1 3.1v5.7c0 1.7-2.2 3.1-5.1 3.1H356.7c-2.8 0-5.1-1.4-5.1-3.1V104c.1-1.7 2.3-3.1 5.1-3.1z"/><path id="XMLID_2_" class="st1" d="M356 120.3h88.2c2.3 0 4.3 1.4 4.3 3.1v5.7c0 1.7-1.9 3.1-4.3 3.1H356c-2.3 0-4.3-1.4-4.3-3.1v-5.7c0-1.7 1.9-3.1 4.3-3.1z"/><circle class="st1" cx="328.3" cy="115.4" r="16.7"/><path class="st0" d="M717.6 153.5H545.1c-11.5 0-20.8-9.3-20.8-20.8V99.9c0-11.5 9.3-20.8 20.8-20.8h172.5c11.5 0 20.8 9.3 20.8 20.8v32.8c0 11.4-9.3 20.8-20.8 20.8z"/><path id="XMLID_5_" class="st1" d="M588.1 100.9h104.5c2.8 0 5.1 1.4 5.1 3.1v5.7c0 1.7-2.2 3.1-5.1 3.1H588.1c-2.8 0-5.1-1.4-5.1-3.1V104c0-1.7 2.2-3.1 5.1-3.1z"/><path id="XMLID_4_" class="st1" d="M587.3 120.3h88.2c2.3 0 4.3 1.4 4.3 3.1v5.7c0 1.7-1.9 3.1-4.3 3.1h-88.2c-2.3 0-4.3-1.4-4.3-3.1v-5.7c0-1.7 1.9-3.1 4.3-3.1z"/><circle class="st1" cx="559.6" cy="115.4" r="16.7"/><path class="st0" d="M254.9 247.7H82.4c-11.5 0-20.8-9.3-20.8-20.8v-32.8c0-11.5 9.3-20.8 20.8-20.8h172.5c11.5 0 20.8 9.3 20.8 20.8v32.8c0 11.5-9.3 20.8-20.8 20.8z"/><path id="XMLID_12_" class="st1" d="M125.4 195.2h104.5c2.8 0 5.1 1.4 5.1 3.1v5.7c0 1.7-2.2 3.1-5.1 3.1H125.4c-2.8 0-5.1-1.4-5.1-3.1v-5.7c0-1.8 2.3-3.1 5.1-3.1z"/><path id="XMLID_11_" class="st1" d="M124.6 214.6h88.2c2.3 0 4.3 1.4 4.3 3.1v5.7c0 1.7-1.9 3.1-4.3 3.1h-88.2c-2.3 0-4.3-1.4-4.3-3.1v-5.7c0-1.8 1.9-3.1 4.3-3.1z"/><circle class="st1" cx="97" cy="209.6" r="16.7"/><path class="st0" d="M486.2 247.7H313.8c-11.5 0-20.8-9.3-20.8-20.8v-32.8c0-11.5 9.3-20.8 20.8-20.8h172.5c11.5 0 20.8 9.3 20.8 20.8v32.8c0 11.5-9.4 20.8-20.9 20.8z"/><path id="XMLID_10_" class="st1" d="M356.7 195.2h104.5c2.8 0 5.1 1.4 5.1 3.1v5.7c0 1.7-2.2 3.1-5.1 3.1H356.7c-2.8 0-5.1-1.4-5.1-3.1v-5.7c.1-1.8 2.3-3.1 5.1-3.1z"/><path id="XMLID_9_" class="st1" d="M356 214.6h88.2c2.3 0 4.3 1.4 4.3 3.1v5.7c0 1.7-1.9 3.1-4.3 3.1H356c-2.3 0-4.3-1.4-4.3-3.1v-5.7c0-1.8 1.9-3.1 4.3-3.1z"/><circle class="st1" cx="328.3" cy="209.6" r="16.7"/><path class="st0" d="M717.6 247.7H545.1c-11.5 0-20.8-9.3-20.8-20.8v-32.8c0-11.5 9.3-20.8 20.8-20.8h172.5c11.5 0 20.8 9.3 20.8 20.8v32.8c0 11.5-9.3 20.8-20.8 20.8z"/><path id="XMLID_8_" class="st1" d="M588.1 195.2h104.5c2.8 0 5.1 1.4 5.1 3.1v5.7c0 1.7-2.2 3.1-5.1 3.1H588.1c-2.8 0-5.1-1.4-5.1-3.1v-5.7c0-1.8 2.2-3.1 5.1-3.1z"/><path id="XMLID_6_" class="st1" d="M587.3 214.6h88.2c2.3 0 4.3 1.4 4.3 3.1v5.7c0 1.7-1.9 3.1-4.3 3.1h-88.2c-2.3 0-4.3-1.4-4.3-3.1v-5.7c0-1.8 1.9-3.1 4.3-3.1z"/><circle class="st1" cx="559.6" cy="209.6" r="16.7"/><path class="st0" d="M254.9 342H82.4c-11.5 0-20.8-9.3-20.8-20.8v-32.8c0-11.5 9.3-20.8 20.8-20.8h172.5c11.5 0 20.8 9.3 20.8 20.8v32.8c0 11.4-9.3 20.8-20.8 20.8z"/><path id="XMLID_18_" class="st1" d="M125.4 289.4h104.5c2.8 0 5.1 1.4 5.1 3.1v5.7c0 1.7-2.2 3.1-5.1 3.1H125.4c-2.8 0-5.1-1.4-5.1-3.1v-5.7c0-1.7 2.3-3.1 5.1-3.1z"/><path id="XMLID_17_" class="st1" d="M124.6 308.8h88.2c2.3 0 4.3 1.4 4.3 3.1v5.7c0 1.7-1.9 3.1-4.3 3.1h-88.2c-2.3 0-4.3-1.4-4.3-3.1v-5.7c0-1.7 1.9-3.1 4.3-3.1z"/><circle class="st1" cx="97" cy="303.8" r="16.7"/><path class="st0" d="M486.2 342H313.8c-11.5 0-20.8-9.3-20.8-20.8v-32.8c0-11.5 9.3-20.8 20.8-20.8h172.5c11.5 0 20.8 9.3 20.8 20.8v32.8c0 11.4-9.4 20.8-20.9 20.8z"/><path id="XMLID_16_" class="st1" d="M356.7 289.4h104.5c2.8 0 5.1 1.4 5.1 3.1v5.7c0 1.7-2.2 3.1-5.1 3.1H356.7c-2.8 0-5.1-1.4-5.1-3.1v-5.7c.1-1.7 2.3-3.1 5.1-3.1z"/><path id="XMLID_15_" class="st1" d="M356 308.8h88.2c2.3 0 4.3 1.4 4.3 3.1v5.7c0 1.7-1.9 3.1-4.3 3.1H356c-2.3 0-4.3-1.4-4.3-3.1v-5.7c0-1.7 1.9-3.1 4.3-3.1z"/><circle class="st1" cx="328.3" cy="303.8" r="16.7"/><path class="st0" d="M717.6 342H545.1c-11.5 0-20.8-9.3-20.8-20.8v-32.8c0-11.5 9.3-20.8 20.8-20.8h172.5c11.5 0 20.8 9.3 20.8 20.8v32.8c0 11.4-9.3 20.8-20.8 20.8z"/><path id="XMLID_14_" class="st1" d="M588.1 289.4h104.5c2.8 0 5.1 1.4 5.1 3.1v5.7c0 1.7-2.2 3.1-5.1 3.1H588.1c-2.8 0-5.1-1.4-5.1-3.1v-5.7c0-1.7 2.2-3.1 5.1-3.1z"/><path id="XMLID_13_" class="st1" d="M587.3 308.8h88.2c2.3 0 4.3 1.4 4.3 3.1v5.7c0 1.7-1.9 3.1-4.3 3.1h-88.2c-2.3 0-4.3-1.4-4.3-3.1v-5.7c0-1.7 1.9-3.1 4.3-3.1z"/><circle class="st1" cx="559.6" cy="303.8" r="16.7"/></svg>