<svg version="1.1" id="Calque_1" xmlns="http://www.w3.org/2000/svg" x="0" y="0" viewBox="0 0 800 421" style="enable-background:new 0 0 800 421" xml:space="preserve"><style>.st0{fill:#fff;stroke:#c7bed3;stroke-miterlimit:10}.st1{opacity:.1;enable-background:new}.st2{fill:#8217fd}</style><path class="st0" d="M293.9 145H166c-8.3 0-15.1-6.7-15.1-15.1V54.7c0-8.3 6.7-15.1 15.1-15.1h127.9c8.3 0 15.1 6.7 15.1 15.1V130c0 8.3-6.8 15-15.1 15z"/><path class="st1" d="M289.8 134.7H170.1c-5.9 0-10.6-4.8-10.6-10.6V60.5c0-5.9 4.8-10.6 10.6-10.6h119.7c5.9 0 10.6 4.8 10.6 10.6v63.6c0 5.9-4.7 10.6-10.6 10.6z"/><path class="st0" d="M464 145H336.1c-8.3 0-15.1-6.7-15.1-15.1V54.7c0-8.3 6.7-15.1 15.1-15.1H464c8.3 0 15.1 6.7 15.1 15.1V130c-.1 8.3-6.8 15-15.1 15z"/><path class="st1" d="M459.8 134.7H340.2c-5.9 0-10.6-4.8-10.6-10.6V60.5c0-5.9 4.8-10.6 10.6-10.6h119.7c5.9 0 10.6 4.8 10.6 10.6v63.6c0 5.9-4.8 10.6-10.7 10.6z"/><path class="st0" d="M634 145H506.1c-8.3 0-15.1-6.7-15.1-15.1V54.7c0-8.3 6.7-15.1 15.1-15.1H634c8.3 0 15.1 6.7 15.1 15.1V130c0 8.3-6.7 15-15.1 15z"/><path class="st1" d="M629.9 134.7H510.3c-5.9 0-10.6-4.8-10.6-10.6V60.5c0-5.9 4.8-10.6 10.6-10.6H630c5.9 0 10.6 4.8 10.6 10.6v63.6c0 5.9-4.8 10.6-10.7 10.6z"/><path class="st0" d="M293.9 263.2H166c-8.3 0-15.1-6.7-15.1-15.1v-75.3c0-8.3 6.7-15.1 15.1-15.1h127.9c8.3 0 15.1 6.7 15.1 15.1v75.3c0 8.4-6.8 15.1-15.1 15.1z"/><path class="st1" d="M289.8 252.9H170.1c-5.9 0-10.6-4.8-10.6-10.6v-63.6c0-5.9 4.8-10.6 10.6-10.6h119.7c5.9 0 10.6 4.8 10.6 10.6v63.6c0 5.9-4.7 10.6-10.6 10.6z"/><path class="st0" d="M464 263.2H336.1c-8.3 0-15.1-6.7-15.1-15.1v-75.3c0-8.3 6.7-15.1 15.1-15.1H464c8.3 0 15.1 6.7 15.1 15.1v75.3c-.1 8.4-6.8 15.1-15.1 15.1z"/><path class="st1" d="M459.8 252.9H340.2c-5.9 0-10.6-4.8-10.6-10.6v-63.6c0-5.9 4.8-10.6 10.6-10.6h119.7c5.9 0 10.6 4.8 10.6 10.6v63.6c0 5.9-4.8 10.6-10.7 10.6z"/><path class="st0" d="M634 263.2H506.1c-8.3 0-15.1-6.7-15.1-15.1v-75.3c0-8.3 6.7-15.1 15.1-15.1H634c8.3 0 15.1 6.7 15.1 15.1v75.3c0 8.4-6.7 15.1-15.1 15.1z"/><path class="st1" d="M629.9 252.9H510.3c-5.9 0-10.6-4.8-10.6-10.6v-63.6c0-5.9 4.8-10.6 10.6-10.6H630c5.9 0 10.6 4.8 10.6 10.6v63.6c0 5.9-4.8 10.6-10.7 10.6z"/><path class="st0" d="M293.9 381.4H166c-8.3 0-15.1-6.7-15.1-15.1V291c0-8.3 6.7-15.1 15.1-15.1h127.9c8.3 0 15.1 6.7 15.1 15.1v75.3c0 8.4-6.8 15.1-15.1 15.1z"/><path class="st1" d="M289.8 371.2H170.1c-5.9 0-10.6-4.8-10.6-10.6V297c0-5.9 4.8-10.6 10.6-10.6h119.7c5.9 0 10.6 4.8 10.6 10.6v63.6c0 5.8-4.7 10.6-10.6 10.6z"/><path class="st0" d="M464 381.4H336.1c-8.3 0-15.1-6.7-15.1-15.1V291c0-8.3 6.7-15.1 15.1-15.1H464c8.3 0 15.1 6.7 15.1 15.1v75.3c-.1 8.4-6.8 15.1-15.1 15.1z"/><path class="st1" d="M459.8 371.2H340.2c-5.9 0-10.6-4.8-10.6-10.6V297c0-5.9 4.8-10.6 10.6-10.6h119.7c5.9 0 10.6 4.8 10.6 10.6v63.6c0 5.8-4.8 10.6-10.7 10.6z"/><path class="st0" d="M634 381.4H506.1c-8.3 0-15.1-6.7-15.1-15.1V291c0-8.3 6.7-15.1 15.1-15.1H634c8.3 0 15.1 6.7 15.1 15.1v75.3c0 8.4-6.7 15.1-15.1 15.1z"/><path class="st1" d="M629.9 371.2H510.3c-5.9 0-10.6-4.8-10.6-10.6V297c0-5.9 4.8-10.6 10.6-10.6H630c5.9 0 10.6 4.8 10.6 10.6v63.6c0 5.8-4.8 10.6-10.7 10.6z"/><path class="st2" d="M240 76.5h-22.4c-2.2 0-4 1.8-4 4V103c0 2.2 1.8 4 4 4H240c2.2 0 4-1.8 4-4V80.6c0-2.2-1.8-4.1-4-4.1zm-22.4 1H240c1.7 0 3 1.4 3 3v12.6l-6.2-8.8-10.9 10.2-3.9-5.1-7.4 6v-15c-.1-1.5 1.3-2.9 3-2.9zM240 106h-22.4c-1.7 0-3-1.4-3-3v-6.1l7.2-5.9 4 5.1 10.9-10.2 6.4 9v8.1c-.1 1.7-1.4 3-3.1 3z"/><path class="st2" d="M221.4 86.5c1.8 0 3.3-1.5 3.3-3.3s-1.5-3.3-3.3-3.3-3.3 1.5-3.3 3.3 1.5 3.3 3.3 3.3zm0-5.6c1.2 0 2.3 1 2.3 2.3 0 1.2-1 2.3-2.3 2.3-1.2 0-2.3-1-2.3-2.3 0-1.2 1.1-2.3 2.3-2.3zM411.4 76.5H389c-2.2 0-4 1.8-4 4V103c0 2.2 1.8 4 4 4h22.4c2.2 0 4-1.8 4-4V80.6c0-2.2-1.8-4.1-4-4.1zm-22.4 1h22.4c1.7 0 3 1.4 3 3v12.6l-6.2-8.8-10.9 10.2-3.9-5.1-7.4 6v-15c-.1-1.5 1.3-2.9 3-2.9zm22.4 28.5H389c-1.7 0-3-1.4-3-3v-6.1l7.2-5.9 4 5.1L408 85.9l6.4 9v8.1c0 1.7-1.4 3-3 3z"/><path class="st2" d="M392.8 86.5c1.8 0 3.3-1.5 3.3-3.3s-1.5-3.3-3.3-3.3-3.3 1.5-3.3 3.3 1.5 3.3 3.3 3.3zm0-5.6c1.2 0 2.3 1 2.3 2.3 0 1.2-1 2.3-2.3 2.3-1.2 0-2.3-1-2.3-2.3 0-1.2 1.1-2.3 2.3-2.3zM582.4 76.5H560c-2.2 0-4 1.8-4 4V103c0 2.2 1.8 4 4 4h22.4c2.2 0 4-1.8 4-4V80.6c.1-2.2-1.8-4.1-4-4.1zm-22.4 1h22.4c1.7 0 3 1.4 3 3v12.6l-6.2-8.8-10.9 10.2-3.9-5.1-7.4 6v-15c0-1.5 1.3-2.9 3-2.9zm22.4 28.5H560c-1.7 0-3-1.4-3-3v-6.1l7.2-5.9 4 5.1 10.9-10.2 6.4 9v8.1c0 1.7-1.4 3-3.1 3z"/><path class="st2" d="M563.9 86.5c1.8 0 3.3-1.5 3.3-3.3s-1.5-3.3-3.3-3.3-3.3 1.5-3.3 3.3 1.5 3.3 3.3 3.3zm0-5.6c1.2 0 2.3 1 2.3 2.3 0 1.2-1 2.3-2.3 2.3-1.2 0-2.3-1-2.3-2.3 0-1.2 1-2.3 2.3-2.3zM240 195.3h-22.4c-2.2 0-4 1.8-4 4v22.4c0 2.2 1.8 4 4 4H240c2.2 0 4-1.8 4-4v-22.4c0-2.2-1.8-4-4-4zm-22.4 1H240c1.7 0 3 1.4 3 3v12.6l-6.2-8.8-10.9 10.2-3.9-5.1-7.4 6v-15c-.1-1.6 1.3-2.9 3-2.9zm22.4 28.5h-22.4c-1.7 0-3-1.4-3-3v-6.1l7.2-5.9 4 5.1 10.9-10.2 6.4 9v8.1c-.1 1.6-1.4 3-3.1 3z"/><path class="st2" d="M221.4 205.2c1.8 0 3.3-1.5 3.3-3.3s-1.5-3.3-3.3-3.3-3.3 1.5-3.3 3.3 1.5 3.3 3.3 3.3zm0-5.5c1.2 0 2.3 1 2.3 2.3 0 1.2-1 2.3-2.3 2.3-1.2 0-2.3-1-2.3-2.3 0-1.3 1.1-2.3 2.3-2.3zM411.4 195.3H389c-2.2 0-4 1.8-4 4v22.4c0 2.2 1.8 4 4 4h22.4c2.2 0 4-1.8 4-4v-22.4c0-2.2-1.8-4-4-4zm-22.4 1h22.4c1.7 0 3 1.4 3 3v12.6l-6.2-8.8-10.9 10.2-3.9-5.1-7.4 6v-15c-.1-1.6 1.3-2.9 3-2.9zm22.4 28.5H389c-1.7 0-3-1.4-3-3v-6.1l7.2-5.9 4 5.1 10.9-10.2 6.4 9v8.1c-.1 1.6-1.5 3-3.1 3z"/><path class="st2" d="M392.8 205.2c1.8 0 3.3-1.5 3.3-3.3s-1.5-3.3-3.3-3.3-3.3 1.5-3.3 3.3 1.5 3.3 3.3 3.3zm0-5.5c1.2 0 2.3 1 2.3 2.3 0 1.2-1 2.3-2.3 2.3-1.2 0-2.3-1-2.3-2.3 0-1.3 1.1-2.3 2.3-2.3zM582.4 195.3H560c-2.2 0-4 1.8-4 4v22.4c0 2.2 1.8 4 4 4h22.4c2.2 0 4-1.8 4-4v-22.4c.1-2.2-1.8-4-4-4zm-22.4 1h22.4c1.7 0 3 1.4 3 3v12.6l-6.2-8.8-10.9 10.2-3.9-5.1-7.4 6v-15c0-1.6 1.3-2.9 3-2.9zm22.4 28.5H560c-1.7 0-3-1.4-3-3v-6.1l7.2-5.9 4 5.1 10.9-10.2 6.4 9v8.1c0 1.6-1.4 3-3.1 3z"/><path class="st2" d="M563.9 205.2c1.8 0 3.3-1.5 3.3-3.3s-1.5-3.3-3.3-3.3-3.3 1.5-3.3 3.3 1.5 3.3 3.3 3.3zm0-5.5c1.2 0 2.3 1 2.3 2.3 0 1.2-1 2.3-2.3 2.3-1.2 0-2.3-1-2.3-2.3 0-1.3 1-2.3 2.3-2.3zM240 314h-22.4c-2.2 0-4 1.8-4 4v22.4c0 2.2 1.8 4 4 4H240c2.2 0 4-1.8 4-4V318c0-2.2-1.8-4-4-4zm-22.4 1H240c1.7 0 3 1.4 3 3v12.6l-6.2-8.8-10.9 10.2-3.9-5.1-7.4 6v-15c-.1-1.5 1.3-2.9 3-2.9zm22.4 28.5h-22.4c-1.7 0-3-1.4-3-3v-6.1l7.2-5.9 4 5.1 10.9-10.2 6.4 9v8.1c-.1 1.6-1.4 3-3.1 3z"/><path class="st2" d="M221.4 323.9c1.8 0 3.3-1.5 3.3-3.3s-1.5-3.3-3.3-3.3-3.3 1.5-3.3 3.3 1.5 3.3 3.3 3.3zm0-5.5c1.2 0 2.3 1 2.3 2.3 0 1.2-1 2.3-2.3 2.3-1.2 0-2.3-1-2.3-2.3 0-1.3 1.1-2.3 2.3-2.3zM411.4 314H389c-2.2 0-4 1.8-4 4v22.4c0 2.2 1.8 4 4 4h22.4c2.2 0 4-1.8 4-4V318c0-2.2-1.8-4-4-4zm-22.4 1h22.4c1.7 0 3 1.4 3 3v12.6l-6.2-8.8-10.9 10.2-3.9-5.1-7.4 6v-15c-.1-1.5 1.3-2.9 3-2.9zm22.4 28.5H389c-1.7 0-3-1.4-3-3v-6.1l7.2-5.9 4 5.1 10.9-10.2 6.4 9v8.1c-.1 1.6-1.5 3-3.1 3z"/><path class="st2" d="M392.8 323.9c1.8 0 3.3-1.5 3.3-3.3s-1.5-3.3-3.3-3.3-3.3 1.5-3.3 3.3 1.5 3.3 3.3 3.3zm0-5.5c1.2 0 2.3 1 2.3 2.3 0 1.2-1 2.3-2.3 2.3-1.2 0-2.3-1-2.3-2.3 0-1.3 1.1-2.3 2.3-2.3zM582.4 314H560c-2.2 0-4 1.8-4 4v22.4c0 2.2 1.8 4 4 4h22.4c2.2 0 4-1.8 4-4V318c.1-2.2-1.8-4-4-4zm-22.4 1h22.4c1.7 0 3 1.4 3 3v12.6l-6.2-8.8-10.9 10.2-3.9-5.1-7.4 6v-15c0-1.5 1.3-2.9 3-2.9zm22.4 28.5H560c-1.7 0-3-1.4-3-3v-6.1l7.2-5.9 4 5.1 10.9-10.2 6.4 9v8.1c0 1.6-1.4 3-3.1 3z"/><path class="st2" d="M563.9 323.9c1.8 0 3.3-1.5 3.3-3.3s-1.5-3.3-3.3-3.3-3.3 1.5-3.3 3.3 1.5 3.3 3.3 3.3zm0-5.5c1.2 0 2.3 1 2.3 2.3 0 1.2-1 2.3-2.3 2.3-1.2 0-2.3-1-2.3-2.3 0-1.3 1-2.3 2.3-2.3z"/></svg>