<svg version="1.1" id="Calque_1" xmlns="http://www.w3.org/2000/svg" x="0" y="0" viewBox="0 0 800 421" style="enable-background:new 0 0 800 421" xml:space="preserve"><style>.st1{opacity:.1;enable-background:new}</style><path d="M680.1 295.8H119.9c-18 0-32.6-14.6-32.6-32.6V157.7c0-18 14.6-32.6 32.6-32.6H680c18 0 32.6 14.6 32.6 32.6v105.5c0 18-14.5 32.6-32.5 32.6z" style="fill:#fff;stroke:#c7bed3;stroke-miterlimit:10"/><path id="XMLID_7_" class="st1" d="M137.1 186.9h246c6.5 0 11.9 2 11.9 4.5v8.3c0 2.4-5.3 4.5-11.9 4.5h-246c-6.5 0-11.9-2-11.9-4.5v-8.3c-.1-2.5 5.2-4.5 11.9-4.5z"/><path id="XMLID_1_" class="st1" d="M135.2 216.8H343c5.5 0 10.1 2 10.1 4.5v8.3c0 2.4-4.4 4.5-10.1 4.5H135.2c-5.5 0-10.1-2-10.1-4.5v-8.3c0-2.5 4.5-4.5 10.1-4.5z"/><path class="st1" d="M577.4 225.4h-81.5c-2.7 0-4.8-4-4.8-8.9v-15.6c0-4.9 2.2-8.9 4.8-8.9h81.5c2.7 0 4.8 4 4.8 8.9v15.6c0 5-2.1 8.9-4.8 8.9z"/><path d="M676.6 225.4h-81.5c-2.7 0-4.8-4-4.8-8.9v-15.6c0-4.9 2.2-8.9 4.8-8.9h81.5c2.7 0 4.8 4 4.8 8.9v15.6c.1 5-2.1 8.9-4.8 8.9z" style="fill:#8217fd"/></svg>