<svg version="1.1" id="Calque_1" xmlns="http://www.w3.org/2000/svg" x="0" y="0" viewBox="0 0 800 421" style="enable-background:new 0 0 800 421" xml:space="preserve"><style>.st1{opacity:.1;enable-background:new}</style><path d="M631.9 347.1H168.1c-25.7 0-46.5-20.8-46.5-46.5V120.4c0-25.7 20.8-46.5 46.5-46.5h463.7c25.7 0 46.5 20.8 46.5 46.5v180.3c.1 25.6-20.8 46.4-46.4 46.4z" style="fill:#fff;stroke:#c7bed3;stroke-miterlimit:10"/><path id="XMLID_12_" class="st1" d="M420.3 152.3h56.5c1.1 0 1.9 2 1.9 4.5v8.4c0 2.4-.9 4.5-1.9 4.5h-56.5c-1.1 0-1.9-2-1.9-4.5v-8.4c0-2.5.9-4.5 1.9-4.5z"/><path id="XMLID_11_" class="st1" d="M422.5 178h86.1c2.3 0 4.1 2 4.1 4.5v8.4c0 2.4-1.8 4.5-4.1 4.5h-86.1c-2.3 0-4.1-2-4.1-4.5v-8.4c-.1-2.5 1.8-4.5 4.1-4.5z"/><path id="XMLID_2_" class="st1" d="M543.6 152.3h56.5c1.1 0 1.9 2 1.9 4.5v8.4c0 2.4-.9 4.5-1.9 4.5h-56.5c-1.1 0-1.9-2-1.9-4.5v-8.4c0-2.5.9-4.5 1.9-4.5z"/><path id="XMLID_1_" class="st1" d="M545.9 178h86c2.3 0 4.2 2 4.2 4.5v8.4c0 2.4-1.9 4.5-4.2 4.5h-86c-2.3 0-4.2-2-4.2-4.5v-8.4c0-2.5 1.8-4.5 4.2-4.5z"/><path id="XMLID_6_" class="st1" d="M420.3 225.6h56.5c1.1 0 1.9 2 1.9 4.5v8.4c0 2.4-.9 4.5-1.9 4.5h-56.5c-1.1 0-1.9-2-1.9-4.5v-8.4c0-2.5.9-4.5 1.9-4.5z"/><path id="XMLID_5_" class="st1" d="M422.5 251.3h86.1c2.3 0 4.1 2 4.1 4.5v8.4c0 2.4-1.8 4.5-4.1 4.5h-86.1c-2.3 0-4.1-2-4.1-4.5v-8.4c-.1-2.5 1.8-4.5 4.1-4.5z"/><path id="XMLID_4_" class="st1" d="M543.6 225.6h56.5c1.1 0 1.9 2 1.9 4.5v8.4c0 2.4-.9 4.5-1.9 4.5h-56.5c-1.1 0-1.9-2-1.9-4.5v-8.4c0-2.5.9-4.5 1.9-4.5z"/><path id="XMLID_3_" class="st1" d="M545.9 251.3h86c2.3 0 4.2 2 4.2 4.5v8.4c0 2.4-1.9 4.5-4.2 4.5h-86c-2.3 0-4.2-2-4.2-4.5v-8.4c0-2.5 1.8-4.5 4.2-4.5z"/><path class="st1" d="M370.6 297.6H190.4c-12.9 0-23.4-10.5-23.4-23.4V146.7c0-12.9 10.5-23.4 23.4-23.4h180.2c12.9 0 23.4 10.5 23.4 23.4v127.5c0 13-10.5 23.4-23.4 23.4z"/></svg>