<svg version="1.1" id="Calque_1" xmlns="http://www.w3.org/2000/svg" x="0" y="0" viewBox="0 0 800 421" style="enable-background:new 0 0 800 421" xml:space="preserve"><style>.st0{fill:#18182f;stroke:#32324c;stroke-miterlimit:10}.st1{opacity:.1;fill:#a7a7bc;enable-background:new}</style><path class="st0" d="M230.9 339.4H69c-16.5 0-29.8-13.3-29.8-29.8V111.4C39.2 95 52.5 81.6 69 81.6h161.9c16.5 0 29.8 13.3 29.8 29.8v198.1c0 16.5-13.3 29.9-29.8 29.9zM480 339.4H318c-16.5 0-29.8-13.3-29.8-29.8V111.4c0-16.5 13.3-29.8 29.8-29.8h162c16.5 0 29.8 13.3 29.8 29.8v198.1c0 16.5-13.4 29.9-29.8 29.9zM731 339.4H569.1c-16.5 0-29.8-13.3-29.8-29.8V111.4c0-16.5 13.3-29.8 29.8-29.8H731c16.5 0 29.8 13.3 29.8 29.8v198.1c0 16.5-13.3 29.9-29.8 29.9z"/><path id="XMLID_6_" class="st1" d="M115.3 122.3h95.6c1.8 0 3.3 1.4 3.3 3.1v5.7c0 1.7-1.5 3.1-3.3 3.1h-95.6c-1.8 0-3.3-1.4-3.3-3.1v-5.7c0-1.8 1.5-3.1 3.3-3.1z"/><path id="XMLID_8_" class="st1" d="M114.4 139.8h68.7c1.3 0 2.4 1.4 2.4 3.1v5.7c0 1.7-1 3.1-2.4 3.1h-68.7c-1.3 0-2.4-1.4-2.4-3.1v-5.7c0-1.8 1.1-3.1 2.4-3.1z"/><path class="st1" d="M92.7 155H76.4c-6 0-10.9-4.8-10.9-10.9v-16.3c0-6 4.8-10.9 10.9-10.9h16.3c6 0 10.9 4.8 10.9 10.9v16.3c-.1 6-4.9 10.9-10.9 10.9z"/><path id="XMLID_5_" class="st1" d="M70.6 185.3h146c2.8 0 5 1.5 5 3.5v6.5c0 1.9-2.3 3.5-5 3.5h-146c-2.8 0-5-1.5-5-3.5v-6.5c-.1-2 2.2-3.5 5-3.5z"/><path id="XMLID_7_" class="st1" d="M71.2 205.3h116.3c3.1 0 5.6 1.5 5.6 3.5v6.5c0 1.9-2.5 3.5-5.6 3.5H71.2c-3.1 0-5.6-1.5-5.6-3.5v-6.5c-.1-2 2.4-3.5 5.6-3.5z"/><path id="XMLID_4_" class="st1" d="M72.1 225.2h136.3c3.7 0 6.6 1.5 6.6 3.5v6.5c0 1.9-2.9 3.5-6.6 3.5H72.1c-3.7 0-6.6-1.5-6.6-3.5v-6.5c0-1.9 3-3.5 6.6-3.5z"/><circle class="st1" cx="156.6" cy="285.5" r="13.1"/><circle class="st1" cx="190" cy="285.5" r="13.1"/><circle class="st1" cx="223.3" cy="285.5" r="13.1"/><path id="XMLID_10_" class="st1" d="M364.3 122.3H460c1.8 0 3.3 1.4 3.3 3.1v5.7c0 1.7-1.5 3.1-3.3 3.1h-95.6c-1.8 0-3.3-1.4-3.3-3.1v-5.7c0-1.8 1.4-3.1 3.2-3.1z"/><path id="XMLID_9_" class="st1" d="M363.4 139.8h68.7c1.3 0 2.4 1.4 2.4 3.1v5.7c0 1.7-1 3.1-2.4 3.1h-68.7c-1.3 0-2.4-1.4-2.4-3.1v-5.7c.1-1.8 1.1-3.1 2.4-3.1z"/><path class="st1" d="M341.8 155h-16.3c-6 0-10.9-4.8-10.9-10.9v-16.3c0-6 4.8-10.9 10.9-10.9h16.3c6 0 10.9 4.8 10.9 10.9v16.3c-.1 6-5 10.9-10.9 10.9z"/><path id="XMLID_3_" class="st1" d="M319.6 185.3h146c2.8 0 5 1.5 5 3.5v6.5c0 1.9-2.3 3.5-5 3.5h-146c-2.8 0-5-1.5-5-3.5v-6.5c0-2 2.2-3.5 5-3.5z"/><path id="XMLID_2_" class="st1" d="M320.2 205.3h116.3c3.1 0 5.6 1.5 5.6 3.5v6.5c0 1.9-2.5 3.5-5.6 3.5H320.2c-3.1 0-5.6-1.5-5.6-3.5v-6.5c0-2 2.5-3.5 5.6-3.5z"/><path id="XMLID_1_" class="st1" d="M321.2 225.2h136.3c3.7 0 6.6 1.5 6.6 3.5v6.5c0 1.9-2.9 3.5-6.6 3.5H321.2c-3.7 0-6.6-1.5-6.6-3.5v-6.5c0-1.9 2.9-3.5 6.6-3.5z"/><circle class="st1" cx="405.7" cy="285.5" r="13.1"/><circle class="st1" cx="439" cy="285.5" r="13.1"/><circle class="st1" cx="472.4" cy="285.5" r="13.1"/><path id="XMLID_15_" class="st1" d="M614.4 122.3H710c1.8 0 3.3 1.4 3.3 3.1v5.7c0 1.7-1.5 3.1-3.3 3.1h-95.6c-1.8 0-3.3-1.4-3.3-3.1v-5.7c0-1.8 1.5-3.1 3.3-3.1z"/><path id="XMLID_14_" class="st1" d="M613.5 139.8h68.7c1.3 0 2.4 1.4 2.4 3.1v5.7c0 1.7-1 3.1-2.4 3.1h-68.7c-1.3 0-2.4-1.4-2.4-3.1v-5.7c0-1.8 1-3.1 2.4-3.1z"/><path class="st1" d="M591.8 155h-16.3c-6 0-10.9-4.8-10.9-10.9v-16.3c0-6 4.8-10.9 10.9-10.9h16.3c6 0 10.9 4.8 10.9 10.9v16.3c-.1 6-4.9 10.9-10.9 10.9z"/><path id="XMLID_13_" class="st1" d="M569.7 185.3h146c2.8 0 5 1.5 5 3.5v6.5c0 1.9-2.3 3.5-5 3.5h-146c-2.8 0-5-1.5-5-3.5v-6.5c-.1-2 2.2-3.5 5-3.5z"/><path id="XMLID_12_" class="st1" d="M570.3 205.3h116.3c3.1 0 5.6 1.5 5.6 3.5v6.5c0 1.9-2.5 3.5-5.6 3.5H570.3c-3.1 0-5.6-1.5-5.6-3.5v-6.5c-.1-2 2.4-3.5 5.6-3.5z"/><path id="XMLID_11_" class="st1" d="M571.2 225.2h136.3c3.7 0 6.6 1.5 6.6 3.5v6.5c0 1.9-2.9 3.5-6.6 3.5H571.2c-3.7 0-6.6-1.5-6.6-3.5v-6.5c0-1.9 3-3.5 6.6-3.5z"/><circle class="st1" cx="655.7" cy="285.5" r="13.1"/><circle class="st1" cx="689.1" cy="285.5" r="13.1"/><circle class="st1" cx="722.4" cy="285.5" r="13.1"/></svg>