<svg version="1.1" id="Calque_1" xmlns="http://www.w3.org/2000/svg" x="0" y="0" viewBox="0 0 800 421" style="enable-background:new 0 0 800 421" xml:space="preserve"><style>.st1{opacity:.1;fill:#a7a7bc;enable-background:new}</style><path d="M683.9 347.1H113.2c-31.6 0-57.2-20.8-57.2-46.5V120.4c0-25.7 25.6-46.5 57.2-46.5h570.6c31.6 0 57.2 20.8 57.2 46.5v180.3c.1 25.6-25.6 46.4-57.1 46.4z" style="fill:#18182f;stroke:#32324c;stroke-miterlimit:10"/><path id="XMLID_5_" class="st1" d="M98.9 228.6h159.6c3 0 5.4 2 5.4 4.5v8.4c0 2.4-2.5 4.5-5.4 4.5H98.9c-3 0-5.4-2-5.4-4.5v-8.4c-.1-2.5 2.4-4.5 5.4-4.5z"/><path id="XMLID_7_" class="st1" d="M100.1 254.3H238c3.7 0 6.7 2 6.7 4.5v8.4c0 2.4-3 4.5-6.7 4.5H100.1c-3.7 0-6.7-2-6.7-4.5v-8.4c0-2.5 2.9-4.5 6.7-4.5z"/><path id="XMLID_2_" class="st1" d="M98.9 279.9h159.6c3 0 5.4 2 5.4 4.5v8.4c0 2.4-2.5 4.5-5.4 4.5H98.9c-3 0-5.4-2-5.4-4.5v-8.4c-.1-2.5 2.4-4.5 5.4-4.5z"/><path class="st1" d="M247.9 211.1H109.5c-8.9 0-16.1-7.2-16.1-16.1v-66.5c0-8.9 7.2-16.1 16.1-16.1h138.3c8.9 0 16.1 7.2 16.1 16.1V195c0 8.9-7.2 16.1-16 16.1z"/><path id="XMLID_15_" class="st1" d="M320.2 228.6h159.6c3 0 5.4 2 5.4 4.5v8.4c0 2.4-2.5 4.5-5.4 4.5H320.2c-3 0-5.4-2-5.4-4.5v-8.4c-.1-2.5 2.4-4.5 5.4-4.5z"/><path id="XMLID_14_" class="st1" d="M321.4 254.3h137.9c3.7 0 6.7 2 6.7 4.5v8.4c0 2.4-3 4.5-6.7 4.5H321.4c-3.7 0-6.7-2-6.7-4.5v-8.4c0-2.5 3-4.5 6.7-4.5z"/><path id="XMLID_13_" class="st1" d="M320.2 279.9h159.6c3 0 5.4 2 5.4 4.5v8.4c0 2.4-2.5 4.5-5.4 4.5H320.2c-3 0-5.4-2-5.4-4.5v-8.4c-.1-2.5 2.4-4.5 5.4-4.5z"/><path class="st1" d="M469.2 211.1H330.8c-8.9 0-16.1-7.2-16.1-16.1v-66.5c0-8.9 7.2-16.1 16.1-16.1h138.3c8.9 0 16.1 7.2 16.1 16.1V195c0 8.9-7.2 16.1-16 16.1z"/><path id="XMLID_18_" class="st1" d="M536.4 228.6H696c3 0 5.4 2 5.4 4.5v8.4c0 2.4-2.5 4.5-5.4 4.5H536.4c-3 0-5.4-2-5.4-4.5v-8.4c-.1-2.5 2.4-4.5 5.4-4.5z"/><path id="XMLID_17_" class="st1" d="M537.6 254.3h137.9c3.7 0 6.7 2 6.7 4.5v8.4c0 2.4-3 4.5-6.7 4.5H537.6c-3.7 0-6.7-2-6.7-4.5v-8.4c0-2.5 3-4.5 6.7-4.5z"/><path id="XMLID_16_" class="st1" d="M536.4 279.9H696c3 0 5.4 2 5.4 4.5v8.4c0 2.4-2.5 4.5-5.4 4.5H536.4c-3 0-5.4-2-5.4-4.5v-8.4c-.1-2.5 2.4-4.5 5.4-4.5z"/><path class="st1" d="M685.4 211.1H547c-8.9 0-16.1-7.2-16.1-16.1v-66.5c0-8.9 7.2-16.1 16.1-16.1h138.3c8.9 0 16.1 7.2 16.1 16.1V195c0 8.9-7.2 16.1-16 16.1z"/></svg>