<svg version="1.1" id="Calque_1" xmlns="http://www.w3.org/2000/svg" x="0" y="0" viewBox="0 0 800 421" style="enable-background:new 0 0 800 421" xml:space="preserve"><style>.st0{fill:#fff;stroke:#c7bed3;stroke-miterlimit:10}.st1{opacity:.1;enable-background:new}</style><path class="st0" d="M246.7 282h-81.2c-17.1 0-30.9-13.9-30.9-30.9v-81.2c0-17.1 13.9-30.9 30.9-30.9h81.2c17.1 0 30.9 13.9 30.9 30.9v81.2c.1 17.1-13.8 30.9-30.9 30.9z"/><path id="XMLID_7_" class="st1" d="M157.6 201.6h40.2c1.1 0 2 2 2 4.6v8.5c0 2.5-.9 4.6-2 4.6h-40.2c-1.1 0-2-2-2-4.6v-8.5c0-2.6.9-4.6 2-4.6z"/><path id="XMLID_1_" class="st1" d="M214.4 201.6h40.2c1.1 0 2 2 2 4.6v8.5c0 2.5-.9 4.6-2 4.6h-40.2c-1.1 0-2-2-2-4.6v-8.5c0-2.6.9-4.6 2-4.6z"/><path class="st0" d="M440.6 282h-81.2c-17.1 0-30.9-13.9-30.9-30.9v-81.2c0-17.1 13.9-30.9 30.9-30.9h81.2c17.1 0 30.9 13.9 30.9 30.9v81.2c0 17.1-13.8 30.9-30.9 30.9z"/><path id="XMLID_3_" class="st1" d="M351.5 201.6h40.2c1.1 0 2 2 2 4.6v8.5c0 2.5-.9 4.6-2 4.6h-40.2c-1.1 0-2-2-2-4.6v-8.5c0-2.6.9-4.6 2-4.6z"/><path id="XMLID_2_" class="st1" d="M408.3 201.6h40.2c1.1 0 2 2 2 4.6v8.5c0 2.5-.9 4.6-2 4.6h-40.2c-1.1 0-2-2-2-4.6v-8.5c0-2.6.9-4.6 2-4.6z"/><path class="st0" d="M634.5 282h-81.2c-17.1 0-30.9-13.9-30.9-30.9v-81.2c0-17.1 13.9-30.9 30.9-30.9h81.2c17.1 0 30.9 13.9 30.9 30.9v81.2c0 17.1-13.8 30.9-30.9 30.9z"/><path id="XMLID_5_" class="st1" d="M545.4 201.6h40.2c1.1 0 2 2 2 4.6v8.5c0 2.5-.9 4.6-2 4.6h-40.2c-1.1 0-2-2-2-4.6v-8.5c0-2.6.9-4.6 2-4.6z"/><path id="XMLID_4_" class="st1" d="M602.2 201.6h40.2c1.1 0 2 2 2 4.6v8.5c0 2.5-.9 4.6-2 4.6h-40.2c-1.1 0-2-2-2-4.6v-8.5c0-2.6.9-4.6 2-4.6z"/></svg>