<svg version="1.1" id="Calque_1" xmlns="http://www.w3.org/2000/svg" x="0" y="0" viewBox="0 0 800 421" style="enable-background:new 0 0 800 421" xml:space="preserve"><style>.st1{opacity:.1;enable-background:new}</style><path d="M582.8 386.5H217.2c-24.9 0-45.2-20.2-45.2-45.2V79.6c0-24.9 20.2-45.2 45.2-45.2h365.5c24.9 0 45.2 20.2 45.2 45.2v261.7c0 25-20.2 45.2-45.1 45.2z" style="fill:#fff;stroke:#c7bed3;stroke-miterlimit:10"/><path class="st1" d="M576.4 272.6H223.6c-14.4 0-26-11.7-26-26V91.4c0-14.4 11.7-26 26-26h352.7c14.4 0 26 11.7 26 26v155.1c.1 14.4-11.5 26.1-25.9 26.1z"/><path id="XMLID_6_" class="st1" d="M203.2 304.2h92.9c1.8 0 3.2 1.1 3.2 2.5v4.7c0 1.4-1.4 2.5-3.2 2.5h-92.9c-1.8 0-3.2-1.1-3.2-2.5v-4.7c0-1.3 1.5-2.5 3.2-2.5z"/><path id="XMLID_5_" class="st1" d="M203.5 337.4h101.6c2 0 3.4 1.1 3.4 2.5v4.7c0 1.4-1.6 2.5-3.4 2.5H203.5c-2 0-3.4-1.1-3.4-2.5v-4.7c-.1-1.4 1.5-2.5 3.4-2.5z"/><path id="XMLID_2_" class="st1" d="M205.5 320.8H317c2.9 0 5.4 1.1 5.4 2.5v4.7c0 1.4-2.4 2.5-5.4 2.5H205.5c-2.9 0-5.4-1.1-5.4-2.5v-4.7c-.1-1.3 2.4-2.5 5.4-2.5z"/><path id="XMLID_9_" class="st1" d="M343.2 304.2h92.9c1.8 0 3.2 1.1 3.2 2.5v4.7c0 1.4-1.4 2.5-3.2 2.5h-92.9c-1.8 0-3.2-1.1-3.2-2.5v-4.7c0-1.3 1.5-2.5 3.2-2.5z"/><path id="XMLID_8_" class="st1" d="M343.5 337.4h101.6c2 0 3.4 1.1 3.4 2.5v4.7c0 1.4-1.6 2.5-3.4 2.5H343.5c-2 0-3.4-1.1-3.4-2.5v-4.7c-.1-1.4 1.5-2.5 3.4-2.5z"/><path id="XMLID_7_" class="st1" d="M345.4 320.8h111.5c2.9 0 5.4 1.1 5.4 2.5v4.7c0 1.4-2.4 2.5-5.4 2.5H345.4c-2.9 0-5.4-1.1-5.4-2.5v-4.7c0-1.3 2.4-2.5 5.4-2.5z"/><path id="XMLID_12_" class="st1" d="M483.2 304.2h92.9c1.8 0 3.2 1.1 3.2 2.5v4.7c0 1.4-1.4 2.5-3.2 2.5h-92.9c-1.8 0-3.2-1.1-3.2-2.5v-4.7c.1-1.3 1.6-2.5 3.2-2.5z"/><path id="XMLID_11_" class="st1" d="M483.6 337.4h101.6c2 0 3.4 1.1 3.4 2.5v4.7c0 1.4-1.6 2.5-3.4 2.5H483.6c-2 0-3.4-1.1-3.4-2.5v-4.7c-.1-1.4 1.4-2.5 3.4-2.5z"/><path id="XMLID_10_" class="st1" d="M485.4 320.8H597c2.9 0 5.4 1.1 5.4 2.5v4.7c0 1.4-2.4 2.5-5.4 2.5H485.4c-2.9 0-5.4-1.1-5.4-2.5v-4.7c.1-1.3 2.4-2.5 5.4-2.5z"/></svg>