<svg version="1.1" id="Calque_1" xmlns="http://www.w3.org/2000/svg" x="0" y="0" viewBox="0 0 800 421" style="enable-background:new 0 0 800 421" xml:space="preserve"><style>.st1{opacity:.1;fill:#a7a7bc;enable-background:new}.st3{fill:#1c1c2b;stroke:#32324c;stroke-miterlimit:10}</style><path d="M515.4 382.5H284.6c-17.1 0-30.9-13.9-30.9-30.9V69.4c0-17.1 13.9-30.9 30.9-30.9h230.8c17.1 0 30.9 13.9 30.9 30.9v282.2c0 17.1-13.8 30.9-30.9 30.9z" style="fill:#18182f;stroke:#32324c;stroke-miterlimit:10"/><path id="XMLID_3_" class="st1" d="M294 74.3h153.5c4.1 0 7.4 2 7.4 4.6v8.5c0 2.5-3.3 4.6-7.4 4.6H294c-4.1 0-7.4-2-7.4-4.6v-8.5c0-2.6 3.3-4.6 7.4-4.6z"/><path id="XMLID_2_" class="st1" d="M292.2 104.1h115.3c3 0 5.6 2 5.6 4.6v8.5c0 2.5-2.5 4.6-5.6 4.6H292.2c-3 0-5.6-2-5.6-4.6v-8.5c0-2.6 2.5-4.6 5.6-4.6z"/><path id="XMLID_1_" class="st1" d="M364.2 162.6h-57.6"/><path id="XMLID_4_" class="st1" d="M306.6 206.1h57.6"/><path id="XMLID_5_" class="st1" d="M306.6 257.6h57.6"/><path d="M501.3 347.6H298.7c-6.7 0-12.1-5.9-12.1-13.2v-23.2c0-7.3 5.4-13.2 12.1-13.2h202.7c6.7 0 12.1 5.9 12.1 13.2v23.2c-.1 7.3-5.5 13.2-12.2 13.2z" style="fill:#8217fd"/><path class="st3" d="M501.7 179.9H298.3c-6.5 0-11.7-5.2-11.7-11.7v-18.5c0-6.5 5.2-11.7 11.7-11.7h203.4c6.5 0 11.7 5.2 11.7 11.7v18.5c0 6.5-5.3 11.7-11.7 11.7zM501.7 231.5H298.3c-6.5 0-11.7-5.2-11.7-11.7v-18.5c0-6.5 5.2-11.7 11.7-11.7h203.4c6.5 0 11.7 5.2 11.7 11.7v18.5c0 6.4-5.3 11.7-11.7 11.7zM501.7 283H298.3c-6.5 0-11.7-5.2-11.7-11.7v-18.5c0-6.5 5.2-11.7 11.7-11.7h203.4c6.5 0 11.7 5.2 11.7 11.7v18.5c0 6.5-5.3 11.7-11.7 11.7z"/><path id="XMLID_17_" class="st1" d="M306.6 162.6c-1.5 0-2.8-1-2.8-2.3V156c0-1.3 1.2-2.3 2.8-2.3h57.6c1.5 0 2.8 1 2.8 2.3v4.3c0 1.2-1.2 2.3-2.8 2.3"/><path id="XMLID_16_" class="st1" d="M364.2 206.1c1.5 0 2.8 1 2.8 2.3v4.3c0 1.2-1.2 2.3-2.8 2.3h-57.6c-1.5 0-2.8-1-2.8-2.3v-4.3c0-1.3 1.2-2.3 2.8-2.3"/><path id="XMLID_15_" class="st1" d="M364.2 257.6c1.5 0 2.8 1 2.8 2.3v4.3c0 1.2-1.2 2.3-2.8 2.3h-57.6c-1.5 0-2.8-1-2.8-2.3v-4.3c0-1.3 1.2-2.3 2.8-2.3"/></svg>