<svg version="1.1" id="Calque_1" xmlns="http://www.w3.org/2000/svg" x="0" y="0" viewBox="0 0 800 421" style="enable-background:new 0 0 800 421" xml:space="preserve"><style>.st0{fill:#18182f;stroke:#32324c;stroke-miterlimit:10}.st1{fill:#8217fd}</style><path class="st0" d="M200.4 198.2h-60c-19.9 0-35.9-16.1-35.9-35.9v-60c0-19.9 16.1-35.9 35.9-35.9h60c19.9 0 35.9 16.1 35.9 35.9v60c.1 19.8-16 35.9-35.9 35.9zM353.5 198.2h-60c-19.9 0-35.9-16.1-35.9-35.9v-60c0-19.9 16.1-35.9 35.9-35.9h60c19.9 0 35.9 16.1 35.9 35.9v60c0 19.8-16.1 35.9-35.9 35.9zM506.6 198.2h-60c-19.9 0-35.9-16.1-35.9-35.9v-60c0-19.9 16.1-35.9 35.9-35.9h60c19.9 0 35.9 16.1 35.9 35.9v60c0 19.8-16.1 35.9-35.9 35.9zM659.6 198.2h-60c-19.9 0-35.9-16.1-35.9-35.9v-60c0-19.9 16.1-35.9 35.9-35.9h60c19.9 0 35.9 16.1 35.9 35.9v60c.1 19.8-16 35.9-35.9 35.9zM200.4 354.7h-60c-19.9 0-35.9-16.1-35.9-35.9v-60c0-19.9 16.1-35.9 35.9-35.9h60c19.9 0 35.9 16.1 35.9 35.9v60c.1 19.8-16 35.9-35.9 35.9zM353.5 354.7h-60c-19.9 0-35.9-16.1-35.9-35.9v-60c0-19.9 16.1-35.9 35.9-35.9h60c19.9 0 35.9 16.1 35.9 35.9v60c0 19.8-16.1 35.9-35.9 35.9zM506.6 354.7h-60c-19.9 0-35.9-16.1-35.9-35.9v-60c0-19.9 16.1-35.9 35.9-35.9h60c19.9 0 35.9 16.1 35.9 35.9v60c0 19.8-16.1 35.9-35.9 35.9zM659.6 354.7h-60c-19.9 0-35.9-16.1-35.9-35.9v-60c0-19.9 16.1-35.9 35.9-35.9h60c19.9 0 35.9 16.1 35.9 35.9v60c.1 19.8-16 35.9-35.9 35.9z"/><path class="st1" d="m174.5 112.4 3.1 6.3c.7 1.4 2 2.3 3.5 2.5l7 1c3.8.5 5.3 5.2 2.6 7.9l-5 4.9c-1.1 1.1-1.6 2.6-1.3 4.1l1.2 7c.6 3.8-3.3 6.6-6.7 4.9l-6.2-3.3c-1.3-.7-2.9-.7-4.3 0L162 151c-3.4 1.8-7.3-1.1-6.7-4.9l1.2-7c.3-1.5-.2-3-1.3-4.1l-5-4.9c-2.7-2.7-1.2-7.3 2.6-7.9l7-1c1.5-.2 2.8-1.2 3.5-2.5l3.1-6.3c1.6-3.4 6.4-3.4 8.1 0zM337 126.2l-19.2-11.1c-3.8-2.2-8.5.5-8.5 4.9v22.2c0 4.4 4.7 7.1 8.5 4.9L337 136c3.8-2.1 3.8-7.6 0-9.8zM473 113.3l-13.2 9.6c-2.1 1.5-3 4.2-2.2 6.7l5.1 15.6c.8 2.5 3.1 4.1 5.7 4.1h16.4c2.6 0 4.9-1.7 5.7-4.1l5.1-15.6c.8-2.5-.1-5.2-2.2-6.7l-13.2-9.6c-2.2-1.5-5.1-1.5-7.2 0zM635.6 112.6h-11.9c-2.8 0-5.3 1.5-6.7 3.9l-6 10.3c-1.4 2.4-1.4 5.3 0 7.7l6 10.3c1.4 2.4 3.9 3.9 6.7 3.9h11.9c2.8 0 5.3-1.5 6.7-3.9l6-10.3c1.4-2.4 1.4-5.3 0-7.7l-6-10.3c-1.4-2.4-4-3.9-6.7-3.9zM167.4 268.3l-11.6 5.6c-1.9.9-3.3 2.7-3.8 4.7l-2.9 12.5c-.5 2.1 0 4.2 1.3 5.9l8 10c1.3 1.7 3.3 2.6 5.4 2.6h12.8c2.1 0 4.1-1 5.4-2.6l8-10c1.3-1.7 1.8-3.8 1.3-5.9l-2.9-12.5c-.5-2.1-1.9-3.8-3.8-4.7l-11.6-5.6c-1.5-.9-3.7-.9-5.6 0zM329.4 266.7h-12c-2 0-4 .8-5.4 2.2l-8.5 8.5c-1.4 1.4-2.2 3.4-2.2 5.4v12c0 2 .8 4 2.2 5.4l8.5 8.5c1.4 1.4 3.4 2.2 5.4 2.2h12c2 0 4-.8 5.4-2.2l8.5-8.5c1.4-1.4 2.2-3.4 2.2-5.4v-12c0-2-.8-4-2.2-5.4l-8.5-8.5c-1.4-1.4-3.3-2.2-5.4-2.2zM476.5 266.5l-14.3 5.2-7.6 13.2 2.7 15 11.6 9.7h15.2l11.7-9.7 2.6-15-7.6-13.2zM636.8 266.5h-14.4l-11.7 8.5-4.5 13.7 4.5 13.8 11.7 8.5h14.4l11.7-8.5 4.5-13.8-4.5-13.7z"/></svg>