<svg version="1.1" id="Calque_1" xmlns="http://www.w3.org/2000/svg" x="0" y="0" viewBox="0 0 800 421" style="enable-background:new 0 0 800 421" xml:space="preserve"><style>.st1{opacity:.1;enable-background:new}</style><path d="M511 383.1H288.9c-14.1 0-25.5-11.4-25.5-25.5V63.3c0-14.1 11.4-25.5 25.5-25.5h222.2c14.1 0 25.5 11.4 25.5 25.5v294.2c0 14.1-11.5 25.6-25.6 25.6z" style="fill:#fff;stroke:#c7bed3;stroke-miterlimit:10"/><path id="XMLID_4_" class="st1" d="M296.2 228.9h161.7c3.1 0 5.5 1.6 5.5 3.7v6.9c0 2-2.5 3.7-5.5 3.7H296.2c-3.1 0-5.5-1.6-5.5-3.7v-6.9c-.1-2.1 2.5-3.7 5.5-3.7z"/><path id="XMLID_1_" class="st1" d="M296.8 277.4h176.9c3.4 0 6 1.6 6 3.7v6.9c0 2-2.8 3.7-6 3.7H296.8c-3.4 0-6-1.6-6-3.7v-6.9c-.2-2 2.6-3.7 6-3.7z"/><path class="st1" d="m520 64.8-3.8-3.8 3.8-3.8c.2-.2.1-.5-.2-.9l-.9-.9c-.3-.3-.7-.4-.9-.2l-3.8 3.8-3.8-3.8c-.2-.2-.5-.1-.9.2l-.9.9c-.3.3-.4.7-.2.9l3.8 3.8-3.8 3.8c-.2.2-.1.5.2.9l.9.9c.3.3.7.4.9.2l3.8-3.8 3.8 3.8c.2.2.5.1.9-.2l.9-.9c.3-.4.4-.7.2-.9z"/><path id="XMLID_3_" class="st1" d="M300.1 253.1h194c5.1 0 9.4 1.6 9.4 3.7v6.9c0 2-4.2 3.7-9.4 3.7h-194c-5.1 0-9.4-1.6-9.4-3.7v-6.9c0-1.9 4.2-3.7 9.4-3.7z"/><path class="st1" d="M490.2 206.2H309.9c-10.3 0-18.6-8.3-18.6-18.6V94c0-10.3 8.3-18.6 18.6-18.6h180.3c10.3 0 18.6 8.3 18.6 18.6v93.7c.1 10.3-8.3 18.5-18.6 18.5zM388.2 359.1h-92c-3 0-5.5-4.4-5.5-9.8V332c0-5.4 2.4-9.8 5.5-9.8h92c3 0 5.5 4.4 5.5 9.8v17.3c-.1 5.5-2.5 9.8-5.5 9.8z"/><path d="M502.8 359.1h-92c-3 0-5.5-4.4-5.5-9.8V332c0-5.4 2.4-9.8 5.5-9.8h92c3 0 5.5 4.4 5.5 9.8v17.3c0 5.5-2.5 9.8-5.5 9.8z" style="fill:#8217fd"/></svg>