<svg version="1.1" id="Calque_1" xmlns="http://www.w3.org/2000/svg" x="0" y="0" viewBox="0 0 800 421" style="enable-background:new 0 0 800 421" xml:space="preserve"><style>.st0{opacity:.1;enable-background:new}</style><path id="XMLID_4_" class="st0" d="M315.9 222.1h161.7c3.1 0 5.5 1.6 5.5 3.7v6.9c0 2-2.5 3.7-5.5 3.7H315.9c-3.1 0-5.5-1.6-5.5-3.7v-6.9c-.1-2 2.5-3.7 5.5-3.7z"/><path id="XMLID_1_" class="st0" d="M311.7 270.7h176.9c3.4 0 6 1.6 6 3.7v6.9c0 2-2.8 3.7-6 3.7H311.7c-3.4 0-6-1.6-6-3.7v-6.9c-.2-2 2.6-3.7 6-3.7z"/><path id="XMLID_3_" class="st0" d="M303 246.2h194c5.1 0 9.4 1.6 9.4 3.7v6.9c0 2-4.2 3.7-9.4 3.7H303c-5.1 0-9.4-1.6-9.4-3.7v-6.9c0-2 4.2-3.7 9.4-3.7z"/><path class="st0" d="M490.1 199.5H309.8c-10.3 0-18.6-8.3-18.6-18.6V87.2c0-10.3 8.3-18.6 18.6-18.6h180.3c10.3 0 18.6 8.3 18.6 18.6v93.7c.1 10.3-8.3 18.6-18.6 18.6zM388.7 352.4h-92c-3 0-5.5-4.4-5.5-9.8v-17.3c0-5.4 2.4-9.8 5.5-9.8h92c3 0 5.5 4.4 5.5 9.8v17.3c-.1 5.4-2.5 9.8-5.5 9.8z"/><path d="M503.3 352.4h-92c-3 0-5.5-4.4-5.5-9.8v-17.3c0-5.4 2.4-9.8 5.5-9.8h92c3 0 5.5 4.4 5.5 9.8v17.3c0 5.4-2.5 9.8-5.5 9.8z" style="fill:#8217fd"/></svg>