<svg version="1.1" id="Calque_1" xmlns="http://www.w3.org/2000/svg" x="0" y="0" viewBox="0 0 800 421" style="enable-background:new 0 0 800 421" xml:space="preserve"><style>.st0{opacity:.1;enable-background:new}</style><path class="st0" d="M392.3 176.4c64.4 0 116.7 52.2 116.7 116.7h67.1c0-101.5-82.3-183.8-183.8-183.8s-183.8 82.3-183.8 183.8h67.1c.1-64.5 52.3-116.7 116.7-116.7z"/><path class="st0" d="M392.3 232.3c33.5 0 60.7 27.2 60.7 60.7h35c0-52.8-42.8-95.7-95.7-95.7s-95.7 42.8-95.7 95.7h34.9c.1-33.5 27.3-60.7 60.8-60.7z"/><path class="st0" d="M392.3 260.4c-18 0-32.7 14.6-32.7 32.7H425c0-18.1-14.6-32.7-32.7-32.7z"/></svg>