<svg version="1.1" id="Calque_1" xmlns="http://www.w3.org/2000/svg" x="0" y="0" viewBox="0 0 800 421" style="enable-background:new 0 0 800 421" xml:space="preserve"><style>.st0{fill:#fff;stroke:#c7bed3;stroke-miterlimit:10}.st1{opacity:.1;enable-background:new}</style><path class="st0" d="M594 201.6H206c-17.3 0-31.3-14-31.3-31.3V71.7c0-17.3 14-31.3 31.3-31.3h388c17.3 0 31.3 14 31.3 31.3v98.6c.1 17.3-14 31.3-31.3 31.3zM594 380.6H206c-17.3 0-31.3-14-31.3-31.3v-98.6c0-17.3 14-31.3 31.3-31.3h388c17.3 0 31.3 14 31.3 31.3v98.6c.1 17.3-14 31.3-31.3 31.3z"/><path id="XMLID_8_" class="st1" d="M320.2 90.1h169.6c3.3 0 5.8 1.7 5.8 3.9v7.2c0 2.1-2.6 3.9-5.8 3.9H320.2c-3.3 0-5.8-1.7-5.8-3.9V94c-.1-2.1 2.6-3.9 5.8-3.9z"/><path id="XMLID_7_" class="st1" d="M320.8 141.1h185.6c3.6 0 6.3 1.7 6.3 3.9v7.2c0 2.1-2.9 3.9-6.3 3.9H320.8c-3.6 0-6.3-1.7-6.3-3.9V145c-.2-2.1 2.7-3.9 6.3-3.9z"/><path id="XMLID_5_" class="st1" d="M324.3 115.6h203.5c5.4 0 9.9 1.7 9.9 3.9v7.2c0 2.1-4.4 3.9-9.9 3.9H324.3c-5.4 0-9.9-1.7-9.9-3.9v-7.2c0-2.1 4.4-3.9 9.9-3.9z"/><path class="st1" d="M279.5 166.2H220c-7.4 0-13.3-6-13.3-13.3V93.4c0-7.4 6-13.3 13.3-13.3h59.5c7.4 0 13.3 6 13.3 13.3v59.5c0 7.3-5.9 13.3-13.3 13.3z"/><path id="XMLID_3_" class="st1" d="M320.2 267h169.6c3.3 0 5.8 1.7 5.8 3.9v7.2c0 2.1-2.6 3.9-5.8 3.9H320.2c-3.3 0-5.8-1.7-5.8-3.9v-7.2c-.1-2.1 2.6-3.9 5.8-3.9z"/><path id="XMLID_2_" class="st1" d="M320.8 318h185.6c3.6 0 6.3 1.7 6.3 3.9v7.2c0 2.1-2.9 3.9-6.3 3.9H320.8c-3.6 0-6.3-1.7-6.3-3.9v-7.2c-.2-2.1 2.7-3.9 6.3-3.9z"/><path id="XMLID_1_" class="st1" d="M324.3 292.5h203.5c5.4 0 9.9 1.7 9.9 3.9v7.2c0 2.1-4.4 3.9-9.9 3.9H324.3c-5.4 0-9.9-1.7-9.9-3.9v-7.2c0-2.1 4.4-3.9 9.9-3.9z"/><path class="st1" d="M279.5 343.1H220c-7.4 0-13.3-6-13.3-13.3v-59.5c0-7.4 6-13.3 13.3-13.3h59.5c7.4 0 13.3 6 13.3 13.3v59.5c0 7.3-5.9 13.3-13.3 13.3z"/></svg>