<svg version="1.1" id="Calque_1" xmlns="http://www.w3.org/2000/svg" x="0" y="0" viewBox="0 0 800 421" style="enable-background:new 0 0 800 421" xml:space="preserve"><style>.st1{opacity:.1;enable-background:new}</style><path d="M597.8 361.5H202.2c-15.8 0-28.6-12.8-28.6-28.6V88c0-15.8 12.8-28.6 28.6-28.6h395.6c15.8 0 28.6 12.8 28.6 28.6v245c0 15.7-12.8 28.5-28.6 28.5z" style="fill:#fff;stroke:#c7bed3;stroke-miterlimit:10"/><path id="XMLID_3_" class="st1" d="M210.1 97h74.3c2 0 3.6 2 3.6 4.6v8.5c0 2.5-1.6 4.6-3.6 4.6h-74.3c-2 0-3.6-2-3.6-4.6v-8.5c0-2.6 1.6-4.6 3.6-4.6z"/><path id="XMLID_1_" class="st1" d="M304.3 97h119.4c3.2 0 5.8 2 5.8 4.6v8.5c0 2.5-2.6 4.6-5.8 4.6H304.3c-3.2 0-5.8-2-5.8-4.6v-8.5c0-2.6 2.6-4.6 5.8-4.6z"/><path id="XMLID_2_" class="st1" d="M442 97h84.7c2.2 0 4.1 2 4.1 4.6v8.5c0 2.5-1.8 4.6-4.1 4.6H442c-2.2 0-4.1-2-4.1-4.6v-8.5c0-2.6 1.8-4.6 4.1-4.6z"/><path id="XMLID_4_" class="st1" d="M541.7 97h53c1.4 0 2.6 2 2.6 4.6v8.5c0 2.5-1.1 4.6-2.6 4.6h-53c-1.4 0-2.6-2-2.6-4.6v-8.5c0-2.6 1.2-4.6 2.6-4.6z"/><path id="XMLID_8_" class="st1" d="M210.1 131.9h74.3c2 0 3.6 2 3.6 4.6v8.5c0 2.5-1.6 4.6-3.6 4.6h-74.3c-2 0-3.6-2-3.6-4.6v-8.5c0-2.6 1.6-4.6 3.6-4.6z"/><path id="XMLID_7_" class="st1" d="M304.3 131.9h119.4c3.2 0 5.8 2 5.8 4.6v8.5c0 2.5-2.6 4.6-5.8 4.6H304.3c-3.2 0-5.8-2-5.8-4.6v-8.5c0-2.6 2.6-4.6 5.8-4.6z"/><path id="XMLID_6_" class="st1" d="M442 131.9h84.7c2.2 0 4.1 2 4.1 4.6v8.5c0 2.5-1.8 4.6-4.1 4.6H442c-2.2 0-4.1-2-4.1-4.6v-8.5c0-2.6 1.8-4.6 4.1-4.6z"/><path id="XMLID_5_" class="st1" d="M541.7 131.9h53c1.4 0 2.6 2 2.6 4.6v8.5c0 2.5-1.1 4.6-2.6 4.6h-53c-1.4 0-2.6-2-2.6-4.6v-8.5c0-2.6 1.2-4.6 2.6-4.6z"/><path id="XMLID_12_" class="st1" d="M210.1 166.8h74.3c2 0 3.6 2 3.6 4.6v8.5c0 2.5-1.6 4.6-3.6 4.6h-74.3c-2 0-3.6-2-3.6-4.6v-8.5c0-2.6 1.6-4.6 3.6-4.6z"/><path id="XMLID_11_" class="st1" d="M304.3 166.8h119.4c3.2 0 5.8 2 5.8 4.6v8.5c0 2.5-2.6 4.6-5.8 4.6H304.3c-3.2 0-5.8-2-5.8-4.6v-8.5c0-2.6 2.6-4.6 5.8-4.6z"/><path id="XMLID_10_" class="st1" d="M442 166.8h84.7c2.2 0 4.1 2 4.1 4.6v8.5c0 2.5-1.8 4.6-4.1 4.6H442c-2.2 0-4.1-2-4.1-4.6v-8.5c0-2.6 1.8-4.6 4.1-4.6z"/><path id="XMLID_9_" class="st1" d="M541.7 166.8h53c1.4 0 2.6 2 2.6 4.6v8.5c0 2.5-1.1 4.6-2.6 4.6h-53c-1.4 0-2.6-2-2.6-4.6v-8.5c0-2.6 1.2-4.6 2.6-4.6z"/><path id="XMLID_16_" class="st1" d="M210.1 201.6h74.3c2 0 3.6 2 3.6 4.6v8.5c0 2.5-1.6 4.6-3.6 4.6h-74.3c-2 0-3.6-2-3.6-4.6v-8.5c0-2.6 1.6-4.6 3.6-4.6z"/><path id="XMLID_15_" class="st1" d="M304.3 201.6h119.4c3.2 0 5.8 2 5.8 4.6v8.5c0 2.5-2.6 4.6-5.8 4.6H304.3c-3.2 0-5.8-2-5.8-4.6v-8.5c0-2.6 2.6-4.6 5.8-4.6z"/><path id="XMLID_14_" class="st1" d="M442 201.6h84.7c2.2 0 4.1 2 4.1 4.6v8.5c0 2.5-1.8 4.6-4.1 4.6H442c-2.2 0-4.1-2-4.1-4.6v-8.5c0-2.6 1.8-4.6 4.1-4.6z"/><path id="XMLID_13_" class="st1" d="M541.7 201.6h53c1.4 0 2.6 2 2.6 4.6v8.5c0 2.5-1.1 4.6-2.6 4.6h-53c-1.4 0-2.6-2-2.6-4.6v-8.5c0-2.6 1.2-4.6 2.6-4.6z"/><path id="XMLID_20_" class="st1" d="M210.1 236.5h74.3c2 0 3.6 2 3.6 4.6v8.5c0 2.5-1.6 4.6-3.6 4.6h-74.3c-2 0-3.6-2-3.6-4.6v-8.5c0-2.6 1.6-4.6 3.6-4.6z"/><path id="XMLID_19_" class="st1" d="M304.3 236.5h119.4c3.2 0 5.8 2 5.8 4.6v8.5c0 2.5-2.6 4.6-5.8 4.6H304.3c-3.2 0-5.8-2-5.8-4.6v-8.5c0-2.6 2.6-4.6 5.8-4.6z"/><path id="XMLID_18_" class="st1" d="M442 236.5h84.7c2.2 0 4.1 2 4.1 4.6v8.5c0 2.5-1.8 4.6-4.1 4.6H442c-2.2 0-4.1-2-4.1-4.6v-8.5c0-2.6 1.8-4.6 4.1-4.6z"/><path id="XMLID_17_" class="st1" d="M541.7 236.5h53c1.4 0 2.6 2 2.6 4.6v8.5c0 2.5-1.1 4.6-2.6 4.6h-53c-1.4 0-2.6-2-2.6-4.6v-8.5c0-2.6 1.2-4.6 2.6-4.6z"/><path id="XMLID_24_" class="st1" d="M210.1 271.4h74.3c2 0 3.6 2 3.6 4.6v8.5c0 2.5-1.6 4.6-3.6 4.6h-74.3c-2 0-3.6-2-3.6-4.6V276c0-2.6 1.6-4.6 3.6-4.6z"/><path id="XMLID_23_" class="st1" d="M304.3 271.4h119.4c3.2 0 5.8 2 5.8 4.6v8.5c0 2.5-2.6 4.6-5.8 4.6H304.3c-3.2 0-5.8-2-5.8-4.6V276c0-2.6 2.6-4.6 5.8-4.6z"/><path id="XMLID_22_" class="st1" d="M442 271.4h84.7c2.2 0 4.1 2 4.1 4.6v8.5c0 2.5-1.8 4.6-4.1 4.6H442c-2.2 0-4.1-2-4.1-4.6V276c0-2.6 1.8-4.6 4.1-4.6z"/><path id="XMLID_21_" class="st1" d="M541.7 271.4h53c1.4 0 2.6 2 2.6 4.6v8.5c0 2.5-1.1 4.6-2.6 4.6h-53c-1.4 0-2.6-2-2.6-4.6V276c0-2.6 1.2-4.6 2.6-4.6z"/><path id="XMLID_28_" class="st1" d="M210.1 306.2h74.3c2 0 3.6 2 3.6 4.6v8.5c0 2.5-1.6 4.6-3.6 4.6h-74.3c-2 0-3.6-2-3.6-4.6v-8.5c0-2.6 1.6-4.6 3.6-4.6z"/><path id="XMLID_27_" class="st1" d="M304.3 306.2h119.4c3.2 0 5.8 2 5.8 4.6v8.5c0 2.5-2.6 4.6-5.8 4.6H304.3c-3.2 0-5.8-2-5.8-4.6v-8.5c0-2.6 2.6-4.6 5.8-4.6z"/><path id="XMLID_26_" class="st1" d="M442 306.2h84.7c2.2 0 4.1 2 4.1 4.6v8.5c0 2.5-1.8 4.6-4.1 4.6H442c-2.2 0-4.1-2-4.1-4.6v-8.5c0-2.6 1.8-4.6 4.1-4.6z"/><path id="XMLID_25_" class="st1" d="M541.7 306.2h53c1.4 0 2.6 2 2.6 4.6v8.5c0 2.5-1.1 4.6-2.6 4.6h-53c-1.4 0-2.6-2-2.6-4.6v-8.5c0-2.6 1.2-4.6 2.6-4.6z"/></svg>