<svg version="1.1" id="Calque_1" xmlns="http://www.w3.org/2000/svg" x="0" y="0" viewBox="0 0 800 421" style="enable-background:new 0 0 800 421" xml:space="preserve"><style>.st1{opacity:.1;enable-background:new}</style><path d="M597.8 361.5H202.2c-15.8 0-28.6-12.8-28.6-28.6V88c0-15.8 12.8-28.6 28.6-28.6h395.6c15.8 0 28.6 12.8 28.6 28.6v245c0 15.7-12.8 28.5-28.6 28.5z" style="fill:#fff;stroke:#c7bed3;stroke-miterlimit:10"/><path id="XMLID_7_" class="st1" d="M444 173.1h139.7c3.7 0 6.8 2 6.8 4.6v8.5c0 2.5-3 4.6-6.8 4.6H444c-3.7 0-6.8-2-6.8-4.6v-8.5c.1-2.6 3-4.6 6.8-4.6z"/><path id="XMLID_1_" class="st1" d="M443 200.3h118c3.1 0 5.7 2 5.7 4.6v8.5c0 2.5-2.5 4.6-5.7 4.6H443c-3.1 0-5.7-2-5.7-4.6v-8.5c0-2.6 2.5-4.6 5.7-4.6z"/><path id="XMLID_2_" class="st1" d="M443.6 227.5H574c3.4 0 6.3 2 6.3 4.6v8.5c0 2.5-2.8 4.6-6.3 4.6H443.6c-3.4 0-6.3-2-6.3-4.6v-8.5c0-2.6 2.7-4.6 6.3-4.6z"/><path id="XMLID_3_" class="st1" d="M442.3 254.7h104c2.8 0 5 2 5 4.6v8.5c0 2.5-2.2 4.6-5 4.6h-104c-2.8 0-5-2-5-4.6v-8.5c0-2.6 2.2-4.6 5-4.6z"/><path id="XMLID_4_" class="st1" d="M443.3 281.9h124.9c3.3 0 6.1 2 6.1 4.6v8.5c0 2.5-2.7 4.6-6.1 4.6H443.3c-3.3 0-6.1-2-6.1-4.6v-8.5c.1-2.6 2.7-4.6 6.1-4.6z"/><path class="st1" d="M359.3 127.2H221.6c-8.3 0-15.1-6.8-15.1-15.1S213.3 97 221.6 97h137.7c8.3 0 15.1 6.8 15.1 15.1 0 8.4-6.8 15.1-15.1 15.1z"/><path d="M276.5 125.1h-54.3c-7.1 0-12.9-5.8-12.9-12.9 0-7.1 5.8-12.9 12.9-12.9h54.3c7.1 0 12.9 5.8 12.9 12.9 0 7.1-5.7 12.9-12.9 12.9z" style="fill:#8217fd"/><path class="st1" d="M386.3 303.5H228.1c-10.4 0-18.8-8.4-18.8-18.8V188c0-10.4 8.4-18.8 18.8-18.8h158.2c10.4 0 18.8 8.4 18.8 18.8v96.8c0 10.3-8.4 18.7-18.8 18.7z"/></svg>