<svg version="1.1" id="Calque_1" xmlns="http://www.w3.org/2000/svg" x="0" y="0" viewBox="0 0 800 421" style="enable-background:new 0 0 800 421" xml:space="preserve"><style>.st1{opacity:.1;fill:#a7a7bc;enable-background:new}.st2{fill:#8217fd}</style><path d="M597.8 346.6H202.2c-15.8 0-28.6-12.8-28.6-28.6V103c0-15.8 12.8-28.6 28.6-28.6h395.6c15.8 0 28.6 12.8 28.6 28.6v215c0 15.8-12.8 28.6-28.6 28.6z" style="fill:#18182f;stroke:#32324c;stroke-miterlimit:10"/><path id="XMLID_7_" class="st1" d="M224.9 250.5h321.6c8.5 0 15.6 2 15.6 4.6v8.5c0 2.5-6.9 4.6-15.6 4.6H224.9c-8.5 0-15.6-2-15.6-4.6v-8.5c0-2.6 6.9-4.6 15.6-4.6z"/><path id="XMLID_1_" class="st1" d="M222.5 279.3h271.6c7.2 0 13.2 2 13.2 4.6v8.5c0 2.5-5.8 4.6-13.2 4.6H222.5c-7.2 0-13.2-2-13.2-4.6v-8.5c0-2.6 5.8-4.6 13.2-4.6z"/><path class="st2" d="M242.9 140.1h-27.2c-3.6 0-6.4-2.9-6.4-6.4 0-3.6 2.9-6.4 6.4-6.4h27.2c3.6 0 6.4 2.9 6.4 6.4.1 3.5-2.8 6.4-6.4 6.4z"/><path class="st1" d="M288.1 140.1h-27.2c-3.6 0-6.4-2.9-6.4-6.4 0-3.6 2.9-6.4 6.4-6.4h27.2c3.6 0 6.4 2.9 6.4 6.4 0 3.5-2.8 6.4-6.4 6.4z"/><path class="st2" d="M334.1 140.1h-27.2c-3.6 0-6.4-2.9-6.4-6.4 0-3.6 2.9-6.4 6.4-6.4h27.2c3.6 0 6.4 2.9 6.4 6.4.1 3.5-2.8 6.4-6.4 6.4z"/><path class="st1" d="M379.3 140.1h-27.2c-3.6 0-6.4-2.9-6.4-6.4 0-3.6 2.9-6.4 6.4-6.4h27.2c3.6 0 6.4 2.9 6.4 6.4 0 3.5-2.9 6.4-6.4 6.4z"/><path class="st2" d="M425.3 140.1h-27.2c-3.6 0-6.4-2.9-6.4-6.4 0-3.6 2.9-6.4 6.4-6.4h27.2c3.6 0 6.4 2.9 6.4 6.4 0 3.5-2.8 6.4-6.4 6.4z"/><path class="st1" d="M470.5 140.1h-27.2c-3.6 0-6.4-2.9-6.4-6.4 0-3.6 2.9-6.4 6.4-6.4h27.2c3.6 0 6.4 2.9 6.4 6.4 0 3.5-2.9 6.4-6.4 6.4z"/><path class="st2" d="M516.5 140.1h-27.2c-3.6 0-6.4-2.9-6.4-6.4 0-3.6 2.9-6.4 6.4-6.4h27.2c3.6 0 6.4 2.9 6.4 6.4 0 3.5-2.9 6.4-6.4 6.4z"/><path class="st1" d="M561.6 140.1h-27.2c-3.6 0-6.4-2.9-6.4-6.4 0-3.6 2.9-6.4 6.4-6.4h27.2c3.6 0 6.4 2.9 6.4 6.4.1 3.5-2.8 6.4-6.4 6.4z"/><path class="st2" d="M561.6 162.7h-27.2c-3.6 0-6.4-2.9-6.4-6.4 0-3.6 2.9-6.4 6.4-6.4h27.2c3.6 0 6.4 2.9 6.4 6.4.1 3.5-2.8 6.4-6.4 6.4z"/><path class="st1" d="M242.9 162.7h-27.2c-3.6 0-6.4-2.9-6.4-6.4 0-3.6 2.9-6.4 6.4-6.4h27.2c3.6 0 6.4 2.9 6.4 6.4.1 3.5-2.8 6.4-6.4 6.4z"/><path class="st2" d="M288.9 162.7h-27.2c-3.6 0-6.4-2.9-6.4-6.4 0-3.6 2.9-6.4 6.4-6.4h27.2c3.6 0 6.4 2.9 6.4 6.4.1 3.5-2.8 6.4-6.4 6.4z"/><path class="st1" d="M334.1 162.7h-27.2c-3.6 0-6.4-2.9-6.4-6.4 0-3.6 2.9-6.4 6.4-6.4h27.2c3.6 0 6.4 2.9 6.4 6.4.1 3.5-2.8 6.4-6.4 6.4z"/><path class="st2" d="M380.1 162.7H353c-3.6 0-6.4-2.9-6.4-6.4 0-3.6 2.9-6.4 6.4-6.4h27.2c3.6 0 6.4 2.9 6.4 6.4 0 3.5-2.9 6.4-6.5 6.4z"/><path class="st1" d="M425.3 162.7h-27.2c-3.6 0-6.4-2.9-6.4-6.4 0-3.6 2.9-6.4 6.4-6.4h27.2c3.6 0 6.4 2.9 6.4 6.4 0 3.5-2.8 6.4-6.4 6.4z"/><path class="st2" d="M471.3 162.7h-27.2c-3.6 0-6.4-2.9-6.4-6.4 0-3.6 2.9-6.4 6.4-6.4h27.2c3.6 0 6.4 2.9 6.4 6.4.1 3.5-2.8 6.4-6.4 6.4z"/><path class="st1" d="M516.5 162.7h-27.2c-3.6 0-6.4-2.9-6.4-6.4 0-3.6 2.9-6.4 6.4-6.4h27.2c3.6 0 6.4 2.9 6.4 6.4 0 3.5-2.9 6.4-6.4 6.4z"/><path class="st2" d="M242.9 186.2h-27.2c-3.6 0-6.4-2.9-6.4-6.4 0-3.6 2.9-6.4 6.4-6.4h27.2c3.6 0 6.4 2.9 6.4 6.4.1 3.5-2.8 6.4-6.4 6.4z"/><path class="st1" d="M288.1 186.2h-27.2c-3.6 0-6.4-2.9-6.4-6.4 0-3.6 2.9-6.4 6.4-6.4h27.2c3.6 0 6.4 2.9 6.4 6.4 0 3.5-2.8 6.4-6.4 6.4z"/><path class="st2" d="M334.1 186.2h-27.2c-3.6 0-6.4-2.9-6.4-6.4 0-3.6 2.9-6.4 6.4-6.4h27.2c3.6 0 6.4 2.9 6.4 6.4.1 3.5-2.8 6.4-6.4 6.4z"/><path class="st1" d="M379.3 186.2h-27.2c-3.6 0-6.4-2.9-6.4-6.4 0-3.6 2.9-6.4 6.4-6.4h27.2c3.6 0 6.4 2.9 6.4 6.4 0 3.5-2.9 6.4-6.4 6.4z"/><path class="st2" d="M425.3 186.2h-27.2c-3.6 0-6.4-2.9-6.4-6.4 0-3.6 2.9-6.4 6.4-6.4h27.2c3.6 0 6.4 2.9 6.4 6.4 0 3.5-2.8 6.4-6.4 6.4z"/><path class="st1" d="M470.5 186.2h-27.2c-3.6 0-6.4-2.9-6.4-6.4 0-3.6 2.9-6.4 6.4-6.4h27.2c3.6 0 6.4 2.9 6.4 6.4 0 3.5-2.9 6.4-6.4 6.4z"/><path class="st2" d="M516.5 186.2h-27.2c-3.6 0-6.4-2.9-6.4-6.4 0-3.6 2.9-6.4 6.4-6.4h27.2c3.6 0 6.4 2.9 6.4 6.4 0 3.5-2.9 6.4-6.4 6.4z"/><path d="M561.6 186.2h-27.2c-3.6 0-6.4-2.9-6.4-6.4 0-3.6 2.9-6.4 6.4-6.4h27.2c3.6 0 6.4 2.9 6.4 6.4.1 3.5-2.8 6.4-6.4 6.4z" style="opacity:.1;enable-background:new"/><path class="st2" d="M561.6 208.8h-27.2c-3.6 0-6.4-2.9-6.4-6.4 0-3.6 2.9-6.4 6.4-6.4h27.2c3.6 0 6.4 2.9 6.4 6.4.1 3.6-2.8 6.4-6.4 6.4z"/><path class="st1" d="M242.9 208.8h-27.2c-3.6 0-6.4-2.9-6.4-6.4 0-3.6 2.9-6.4 6.4-6.4h27.2c3.6 0 6.4 2.9 6.4 6.4.1 3.6-2.8 6.4-6.4 6.4z"/><path class="st2" d="M288.9 208.8h-27.2c-3.6 0-6.4-2.9-6.4-6.4 0-3.6 2.9-6.4 6.4-6.4h27.2c3.6 0 6.4 2.9 6.4 6.4.1 3.6-2.8 6.4-6.4 6.4z"/><path class="st1" d="M334.1 208.8h-27.2c-3.6 0-6.4-2.9-6.4-6.4 0-3.6 2.9-6.4 6.4-6.4h27.2c3.6 0 6.4 2.9 6.4 6.4.1 3.6-2.8 6.4-6.4 6.4z"/><path class="st2" d="M380.1 208.8H353c-3.6 0-6.4-2.9-6.4-6.4 0-3.6 2.9-6.4 6.4-6.4h27.2c3.6 0 6.4 2.9 6.4 6.4 0 3.6-2.9 6.4-6.5 6.4z"/><path class="st1" d="M425.3 208.8h-27.2c-3.6 0-6.4-2.9-6.4-6.4 0-3.6 2.9-6.4 6.4-6.4h27.2c3.6 0 6.4 2.9 6.4 6.4 0 3.6-2.8 6.4-6.4 6.4z"/><path class="st2" d="M471.3 208.8h-27.2c-3.6 0-6.4-2.9-6.4-6.4 0-3.6 2.9-6.4 6.4-6.4h27.2c3.6 0 6.4 2.9 6.4 6.4.1 3.6-2.8 6.4-6.4 6.4z"/><path class="st1" d="M516.5 208.8h-27.2c-3.6 0-6.4-2.9-6.4-6.4 0-3.6 2.9-6.4 6.4-6.4h27.2c3.6 0 6.4 2.9 6.4 6.4 0 3.6-2.9 6.4-6.4 6.4z"/></svg>