<svg version="1.1" id="Calque_1" xmlns="http://www.w3.org/2000/svg" x="0" y="0" viewBox="0 0 800 421" style="enable-background:new 0 0 800 421" xml:space="preserve"><style>.st0{fill:#fff;stroke:#c7bed3;stroke-miterlimit:10}.st1{opacity:.1;enable-background:new}</style><path class="st0" d="M370.5 200.1h-193c-10.5 0-19.1-8.5-19.1-19.1V95.8c0-10.5 8.5-19.1 19.1-19.1h192.9c10.5 0 19.1 8.5 19.1 19.1V181c.1 10.6-8.4 19.1-19 19.1z"/><path class="st1" d="M259.4 177h-72.2c-4.1 0-7.4-4.9-7.4-10.9V111c0-6.1 3.3-10.9 7.4-10.9h72.2c4.1 0 7.4 4.9 7.4 10.9v55c.1 6.1-3.2 11-7.4 11z"/><path id="XMLID_9_" class="st1" d="M283 129.9h62.6c1.2 0 2.1.6 2.1 1.4v2.7c0 .8-1 1.4-2.1 1.4H283c-1.2 0-2.1-.6-2.1-1.4v-2.7c0-.7 1-1.4 2.1-1.4z"/><path id="XMLID_19_" class="st1" d="M282.1 110.7h33c.6 0 1.1 1.2 1.1 2.7v5c0 1.4-.5 2.7-1.1 2.7h-33c-.6 0-1.1-1.2-1.1-2.7v-5c-.1-1.5.4-2.7 1.1-2.7z"/><path id="XMLID_8_" class="st1" d="M282.8 148.7h54.7c1 0 1.9.6 1.9 1.4v2.7c0 .8-.9 1.4-1.9 1.4h-54.7c-1 0-1.9-.6-1.9-1.4v-2.7c0-.7.9-1.4 1.9-1.4z"/><path id="XMLID_20_" class="st1" d="M282 163.2h31.3c.6 0 1 .6 1 1.4v2.7c0 .8-.5 1.4-1 1.4H282c-.6 0-1-.6-1-1.4v-2.7c-.1-.8.4-1.4 1-1.4z"/><path id="XMLID_7_" class="st1" d="M284.1 139.3h66.7c1.7 0 3.2.6 3.2 1.4v2.7c0 .8-1.4 1.4-3.2 1.4h-66.7c-1.7 0-3.2-.6-3.2-1.4v-2.7c0-.7 1.4-1.4 3.2-1.4z"/><path class="st0" d="M622.5 200.1h-193c-10.5 0-19.1-8.5-19.1-19.1V95.8c0-10.5 8.5-19.1 19.1-19.1h192.9c10.5 0 19.1 8.5 19.1 19.1V181c.1 10.6-8.4 19.1-19 19.1z"/><path class="st1" d="M511.5 177h-72.2c-4.1 0-7.4-4.9-7.4-10.9V111c0-6.1 3.3-10.9 7.4-10.9h72.2c4.1 0 7.4 4.9 7.4 10.9v55c.1 6.1-3.3 11-7.4 11z"/><path id="XMLID_5_" class="st1" d="M535.1 129.9h62.6c1.2 0 2.1.6 2.1 1.4v2.7c0 .8-1 1.4-2.1 1.4h-62.6c-1.2 0-2.1-.6-2.1-1.4v-2.7c-.1-.7.9-1.4 2.1-1.4z"/><path id="XMLID_4_" class="st1" d="M534.1 110.7h33c.6 0 1.1 1.2 1.1 2.7v5c0 1.4-.5 2.7-1.1 2.7h-33c-.6 0-1.1-1.2-1.1-2.7v-5c-.1-1.5.5-2.7 1.1-2.7z"/><path id="XMLID_3_" class="st1" d="M534.9 148.7h54.7c1 0 1.9.6 1.9 1.4v2.7c0 .8-.9 1.4-1.9 1.4h-54.7c-1 0-1.9-.6-1.9-1.4v-2.7c-.1-.7.8-1.4 1.9-1.4z"/><path id="XMLID_2_" class="st1" d="M534 163.2h31.3c.6 0 1 .6 1 1.4v2.7c0 .8-.5 1.4-1 1.4H534c-.6 0-1-.6-1-1.4v-2.7c-.1-.8.4-1.4 1-1.4z"/><path id="XMLID_1_" class="st1" d="M536.2 139.3h66.7c1.7 0 3.2.6 3.2 1.4v2.7c0 .8-1.4 1.4-3.2 1.4h-66.7c-1.7 0-3.2-.6-3.2-1.4v-2.7c-.1-.7 1.4-1.4 3.2-1.4z"/><path class="st0" d="M370.5 344.3h-193c-10.5 0-19.1-8.5-19.1-19.1V240c0-10.5 8.5-19.1 19.1-19.1h192.9c10.5 0 19.1 8.5 19.1 19.1v85.1c.1 10.7-8.4 19.2-19 19.2z"/><path class="st1" d="M259.4 321.2h-72.2c-4.1 0-7.4-4.9-7.4-10.9v-55.1c0-6.1 3.3-10.9 7.4-10.9h72.2c4.1 0 7.4 4.9 7.4 10.9v55.1c.1 6-3.2 10.9-7.4 10.9z"/><path id="XMLID_18_" class="st1" d="M283 274.2h62.6c1.2 0 2.1.6 2.1 1.4v2.7c0 .8-1 1.4-2.1 1.4H283c-1.2 0-2.1-.6-2.1-1.4v-2.7c0-.8 1-1.4 2.1-1.4z"/><path id="XMLID_17_" class="st1" d="M282.1 254.9h33c.6 0 1.1 1.2 1.1 2.7v5c0 1.4-.5 2.7-1.1 2.7h-33c-.6 0-1.1-1.2-1.1-2.7v-5c-.1-1.4.4-2.7 1.1-2.7z"/><path id="XMLID_16_" class="st1" d="M282.8 293h54.7c1 0 1.9.6 1.9 1.4v2.7c0 .8-.9 1.4-1.9 1.4h-54.7c-1 0-1.9-.6-1.9-1.4v-2.7c0-.7.9-1.4 1.9-1.4z"/><path id="XMLID_15_" class="st1" d="M282 307.4h31.3c.6 0 1 .6 1 1.4v2.7c0 .8-.5 1.4-1 1.4H282c-.6 0-1-.6-1-1.4v-2.7c-.1-.7.4-1.4 1-1.4z"/><path id="XMLID_14_" class="st1" d="M284.1 283.6h66.7c1.7 0 3.2.6 3.2 1.4v2.7c0 .8-1.4 1.4-3.2 1.4h-66.7c-1.7 0-3.2-.6-3.2-1.4V285c0-.8 1.4-1.4 3.2-1.4z"/><path class="st0" d="M622.5 344.3h-193c-10.5 0-19.1-8.5-19.1-19.1V240c0-10.5 8.5-19.1 19.1-19.1h192.9c10.5 0 19.1 8.5 19.1 19.1v85.1c.1 10.7-8.4 19.2-19 19.2z"/><path class="st1" d="M511.5 321.2h-72.2c-4.1 0-7.4-4.9-7.4-10.9v-55.1c0-6.1 3.3-10.9 7.4-10.9h72.2c4.1 0 7.4 4.9 7.4 10.9v55.1c.1 6-3.3 10.9-7.4 10.9z"/><path id="XMLID_13_" class="st1" d="M535.1 274.2h62.6c1.2 0 2.1.6 2.1 1.4v2.7c0 .8-1 1.4-2.1 1.4h-62.6c-1.2 0-2.1-.6-2.1-1.4v-2.7c-.1-.8.9-1.4 2.1-1.4z"/><path id="XMLID_12_" class="st1" d="M534.1 254.9h33c.6 0 1.1 1.2 1.1 2.7v5c0 1.4-.5 2.7-1.1 2.7h-33c-.6 0-1.1-1.2-1.1-2.7v-5c-.1-1.4.5-2.7 1.1-2.7z"/><path id="XMLID_11_" class="st1" d="M534.9 293h54.7c1 0 1.9.6 1.9 1.4v2.7c0 .8-.9 1.4-1.9 1.4h-54.7c-1 0-1.9-.6-1.9-1.4v-2.7c-.1-.7.8-1.4 1.9-1.4z"/><path id="XMLID_10_" class="st1" d="M534 307.4h31.3c.6 0 1 .6 1 1.4v2.7c0 .8-.5 1.4-1 1.4H534c-.6 0-1-.6-1-1.4v-2.7c-.1-.7.4-1.4 1-1.4z"/><path id="XMLID_6_" class="st1" d="M536.2 283.6h66.7c1.7 0 3.2.6 3.2 1.4v2.7c0 .8-1.4 1.4-3.2 1.4h-66.7c-1.7 0-3.2-.6-3.2-1.4V285c-.1-.8 1.4-1.4 3.2-1.4z"/></svg>