<svg version="1.1" id="Calque_1" xmlns="http://www.w3.org/2000/svg" x="0" y="0" viewBox="0 0 800 421" style="enable-background:new 0 0 800 421" xml:space="preserve"><style>.st1{opacity:.1;enable-background:new}</style><path d="M631.9 347.1H168.1c-25.7 0-46.5-20.8-46.5-46.5V120.4c0-25.7 20.8-46.5 46.5-46.5h463.7c25.7 0 46.5 20.8 46.5 46.5v180.3c.1 25.6-20.8 46.4-46.4 46.4z" style="fill:#fff;stroke:#c7bed3;stroke-miterlimit:10"/><path id="XMLID_5_" class="st1" d="M175.7 137.7h199.1c3.8 0 6.8 2 6.8 4.5v8.4c0 2.4-3.1 4.5-6.8 4.5H175.7c-3.8 0-6.8-2-6.8-4.5v-8.4c-.1-2.5 3-4.5 6.8-4.5z"/><path id="XMLID_7_" class="st1" d="M177.2 163.4h172.1c4.6 0 8.3 2 8.3 4.5v8.4c0 2.4-3.7 4.5-8.3 4.5H177.2c-4.6 0-8.3-2-8.3-4.5v-8.4c-.1-2.5 3.6-4.5 8.3-4.5z"/><path id="XMLID_2_" class="st1" d="M175.7 189h199.1c3.8 0 6.8 2 6.8 4.5v8.4c0 2.4-3.1 4.5-6.8 4.5H175.7c-3.8 0-6.8-2-6.8-4.5v-8.4c-.1-2.5 3-4.5 6.8-4.5z"/><path id="XMLID_1_" class="st1" d="M177.2 214.7h172.1c4.6 0 8.3 2 8.3 4.5v8.4c0 2.4-3.7 4.5-8.3 4.5H177.2c-4.6 0-8.3-2-8.3-4.5v-8.4c-.1-2.5 3.6-4.5 8.3-4.5z"/><path id="XMLID_4_" class="st1" d="M174.5 240.4h161.7c3.1 0 5.5 2 5.5 4.5v8.4c0 2.4-2.5 4.5-5.5 4.5H174.5c-3.1 0-5.5-2-5.5-4.5v-8.4c-.1-2.5 2.4-4.5 5.5-4.5z"/><path id="XMLID_3_" class="st1" d="M178.3 266.1h194c5.1 0 9.4 2 9.4 4.5v8.4c0 2.4-4.2 4.5-9.4 4.5h-194c-5.1 0-9.4-2-9.4-4.5v-8.4c-.1-2.6 4.1-4.5 9.4-4.5z"/><path id="XMLID_12_" class="st1" d="M425.2 137.7h199.1c3.8 0 6.8 2 6.8 4.5v8.4c0 2.4-3.1 4.5-6.8 4.5H425.2c-3.8 0-6.8-2-6.8-4.5v-8.4c-.1-2.5 3-4.5 6.8-4.5z"/><path id="XMLID_11_" class="st1" d="M426.7 163.4h172.1c4.6 0 8.3 2 8.3 4.5v8.4c0 2.4-3.7 4.5-8.3 4.5H426.7c-4.6 0-8.3-2-8.3-4.5v-8.4c-.1-2.5 3.6-4.5 8.3-4.5z"/><path id="XMLID_10_" class="st1" d="M425.2 189h199.1c3.8 0 6.8 2 6.8 4.5v8.4c0 2.4-3.1 4.5-6.8 4.5H425.2c-3.8 0-6.8-2-6.8-4.5v-8.4c-.1-2.5 3-4.5 6.8-4.5z"/><path id="XMLID_9_" class="st1" d="M426.7 214.7h172.1c4.6 0 8.3 2 8.3 4.5v8.4c0 2.4-3.7 4.5-8.3 4.5H426.7c-4.6 0-8.3-2-8.3-4.5v-8.4c-.1-2.5 3.6-4.5 8.3-4.5z"/><path id="XMLID_8_" class="st1" d="M423.9 240.4h161.7c3.1 0 5.5 2 5.5 4.5v8.4c0 2.4-2.5 4.5-5.5 4.5H423.9c-3.1 0-5.5-2-5.5-4.5v-8.4c-.1-2.5 2.5-4.5 5.5-4.5z"/><path id="XMLID_6_" class="st1" d="M427.7 266.1h194c5.1 0 9.4 2 9.4 4.5v8.4c0 2.4-4.2 4.5-9.4 4.5h-194c-5.1 0-9.4-2-9.4-4.5v-8.4c0-2.6 4.2-4.5 9.4-4.5z"/></svg>