<svg version="1.1" id="Capa_1" xmlns="http://www.w3.org/2000/svg" x="0" y="0" viewBox="0 0 512 512" style="enable-background:new 0 0 512 512" xml:space="preserve"><style>.st0{fill:#00e4ff}.st1{fill:#55f7ff}</style><path class="st0" d="M408.9 45.5c2.3 6.2 27.4 79.8-24.2 166.6-31.3 52.7-78.9 56.2-83.5 56.4-2.7-3.8-29.6-43.2-7.8-100.5 36-94.3 109.3-120.4 115.5-122.5z"/><path class="st1" d="M408.9 45.5 301.2 268.6c4.7-.2 52.2-3.7 83.5-56.4 51.6-86.9 26.5-160.5 24.2-166.7z"/><path d="m297.9 275.5 3.3-6.9c-.1-.1-.2-.2-.3-.4-2 4.8-3 7.3-3 7.3z" style="fill:#fff;stroke:#000;stroke-width:15;stroke-linecap:round;stroke-linejoin:round;stroke-miterlimit:10"/><path class="st0" d="M103.1 45.5c-2.3 6.2-27.4 79.8 24.2 166.6 31.3 52.7 78.9 56.2 83.5 56.4 2.7-3.8 29.6-43.2 7.8-100.5-36-94.3-109.3-120.4-115.5-122.5z"/><path class="st1" d="M218.5 168.1C182.6 73.7 109.3 47.6 103.1 45.5c63.7 121.6 98 199.5 107.9 222.7 3.8-5.4 28.8-44.3 7.5-100.1z"/><path class="st0" d="M256 0c-7.7 7.4-96.4 97.4-82.3 260.7 8.6 99.2 75.6 137.9 82.3 141.5 6.7-3.6 73.7-42.3 82.3-141.5C352.4 97.4 263.7 7.4 256 0z"/><path class="st1" d="M256 0v402.2c6.7-3.6 73.7-42.3 82.3-141.5C352.4 97.4 263.7 7.4 256 0z"/><path class="st0" d="M446 250c16.7-57.4 11-110.7 11-110.7s-32.2 14.3-112.9 66.5c-62.8 40.6-82.2 111.7-88.1 130.9h73.8c53.7.1 101.2-35.1 116.2-86.7z"/><path class="st1" d="M457 139.3s-83 164-201 197.5h73.8c53.7 0 101.2-35.2 116.2-86.7 16.7-57.4 11-110.8 11-110.8z"/><path class="st0" d="M66 250c-16.7-57.4-11-110.7-11-110.7s32.2 14.3 112.9 66.5c62.8 40.6 82.2 111.7 88.1 130.9h-73.8C128.5 336.8 81 301.6 66 250z"/><path class="st1" d="M256 336.8c-5.8-19.2-25.3-90.3-88.1-130.9C87.1 153.7 55 139.3 55 139.3s83 164.1 201 197.5z"/><path d="M309.4 512H202.6c-28.3 0-52.6-20.2-57.8-48L122 340.9h268L367.2 464c-5.2 27.8-29.5 48-57.8 48z" style="fill:#fec37d"/><path d="M338.2 340.9 315.3 464c-5.2 27.8-29.5 48-57.8 48h51.9c28.3 0 52.6-20.2 57.8-48L390 340.9h-51.8z" style="fill:#f9ae5d"/><path d="M394.7 368.6H117.3c-11.2 0-20.4-9.1-20.4-20.4 0-11.2 9.1-20.4 20.4-20.4h277.4c11.2 0 20.4 9.1 20.4 20.4 0 11.2-9.1 20.4-20.4 20.4z" style="fill:#f2a559"/><path d="M394.7 327.8h-32.6v40.7h32.6c11.2 0 20.4-9.1 20.4-20.4 0-11.1-9.1-20.3-20.4-20.3z" style="fill:#ea8f3d"/></svg>