<svg version="1.1" id="Capa_1" xmlns="http://www.w3.org/2000/svg" x="0" y="0" viewBox="0 0 512 512" style="enable-background:new 0 0 512 512" xml:space="preserve"><style>.st5{fill:#00e4ff}.st6{fill:#55f7ff}</style><path d="M319.3 268.4c-2.9-3.2-7.8-3.5-11-.7-4.9 4.4-9.8 9-14.5 13.6-13.4 13.4-23 24.5-29.9 33.2V175c0-4.3-3.5-7.8-7.8-7.8s-7.8 3.5-7.8 7.8v139.8c-6.8-8.7-16.5-19.9-30.1-33.5-4.2-4.2-8.5-8.2-12.8-12.1-3.2-2.9-8.2-2.6-11 .6-2.9 3.2-2.6 8.2.6 11 4.1 3.7 8.2 7.6 12.2 11.5 28 28 38.5 45.2 41.1 49.9V393c0 4.3 3.5 7.8 7.8 7.8s7.8-3.5 7.8-7.8v-51c2.9-5.2 13.5-22.2 40.9-49.6 4.5-4.5 9.1-8.8 13.8-13 3.3-2.9 3.6-7.8.7-11z" style="fill:#d18754"/><path d="M318.1 512H193.9c-7 0-13.2-4.7-15-11.5l-32.6-121.2h219.6l-32.6 121.2c-2 6.8-8.1 11.5-15.2 11.5z" style="fill:#fec37d"/><path d="m316.2 379.3-32.6 121.2c-1.8 6.8-8 11.5-15 11.5h49.5c7 0 13.2-4.7 15-11.5l32.6-121.2h-49.5z" style="fill:#f9ae5d"/><path d="M371.4 407.3H140.6c-3.9 0-7.1-3.2-7.1-7.1v-27.1c0-3.9 3.2-7.1 7.1-7.1h230.8c3.9 0 7.1 3.2 7.1 7.1v27.1c0 3.9-3.2 7.1-7.1 7.1z" style="fill:#f2a559"/><path d="M371.4 366.1h-46.5v41.2h46.5c3.9 0 7.1-3.2 7.1-7.1v-27.1c0-3.9-3.2-7-7.1-7z" style="fill:#ea8f3d"/><path class="st5" d="M42.3 197.6c32 24.6 59.4 57.1 93.2 78.7 22.6 14.5 51.9 19.3 77.6 10.2 11.1-30.8-8.6-62.8-34.3-79-38.5-24.4-94.1-23.3-136.5-9.9zM469.7 197.6c-32 24.6-59.4 57.1-93.2 78.7-22.6 14.5-51.9 19.3-77.6 10.2-11.1-30.8 8.6-62.8 34.3-79 38.5-24.4 94.1-23.3 136.5-9.9zM256 0c-22.8 31.1-45.2 89.9-42.9 134.4 1.6 30.3 19 62.8 42.7 67.5.1-.1.1-.2.2-.2.1.1.1.2.2.2 23.7-4.8 41.1-37.2 42.7-67.5C301.2 89.9 278.8 31.1 256 0z"/><path class="st6" d="M256.8 201.8c23.4-5.2 40.4-37.3 42-67.4 2.3-44-19.5-101.8-42-133.2v200.6zM298.9 286.5c25.7 9.2 55 4.3 77.6-10.2 33.8-21.6 61.2-54.1 93.2-78.7 0 0-121.9 11.1-170.8 88.9zM213.1 286.5c-25.7 9.2-55 4.3-77.6-10.2-33.8-21.6-61.2-54.1-93.2-78.7 0 0 121.9 11.1 170.8 88.9z"/></svg>