<svg version="1.1" id="Capa_1" xmlns="http://www.w3.org/2000/svg" x="0" y="0" viewBox="0 0 512 512" style="enable-background:new 0 0 512 512" xml:space="preserve"><style>.st6{fill:#f2a559}</style><path d="m247.9 382.8 16.5-36.5c2.4-5.4 7.7-8.8 13.6-8.8h20.6c3.5 0 6.9-1.2 9.6-3.5l17.7-14.9c6.5-5.4 15.2-7.3 23.4-4.9 6 1.8 11.1 5.7 14.4 11l2.1 3.4c1.8 2.9 4.5 5.1 7.8 6.2l7 2.5c4.2 1.5 7.5 4.7 9 8.8 1.1 2.9 3.1 5.4 5.6 7.1l3.1 2.1c3.6 2.4 6 6.3 6.5 10.6l.6 4.9-2.7 12H247.9z" style="fill:#c6c5ca"/><path d="m398.3 355.3-3.1-2.1c-2.6-1.7-4.5-4.2-5.6-7.1-1.6-4.1-4.9-7.4-9-8.8l-7-2.5c-3.2-1.1-6-3.3-7.8-6.2l-2.1-3.4c-3.3-5.3-8.4-9.2-14.4-11-2.6-.8-5.2-1.1-7.8-1v69.7h61.1l2.7-12-.6-4.9c-.4-4.4-2.8-8.3-6.4-10.7z" style="fill:#bbbbbc"/><path d="M237.1 290.3c44-57.1 58.3-87.1 71.5-126h-36.7c-9.1 29.4-30.6 56.4-58.2 81.9-34.6-15.8-47.6-57.5-52.8-81.9h-35.5c5.1 39.6 30.6 73.9 58 111.6C96.6 354.4 99.1 447 99.1 447h152.4c0 .1-65.4-90.6-14.4-156.7z" style="fill:#d18754"/><path d="M237.1 290.3c44-57.1 58.3-87.1 71.5-126h-14.5c-13.2 38.8-44.9 68.8-88.9 126-51 66.1-53.9 156.8-53.9 156.8h100.2s-65.4-90.7-14.4-156.8z" style="fill:#bc7646"/><path d="M456.7 80.3c-10.3-16.9-28-28.8-48.6-31.1-13.8-18.8-36.1-31.1-61.2-31.1-7.2 0-14.1 1-20.7 2.9-6.6-1.9-13.5-2.9-20.7-2.9-7.8 0-15.3 1.2-22.4 3.4C269.5 8.2 251 0 230.6 0c-27.9 0-52.2 15.2-65.1 37.8-3-.4-6.1-.6-9.2-.6-38.3 0-69.3 31-69.3 69.3v.1c-1-.1-1.9-.1-2.9-.1-27.7 0-49.9 23.4-48 51.5 1.6 23.7 20.8 42.9 44.5 44.6 14.3 1 27.4-4.2 36.8-13.3 8.4-8.1 21.9-8 30.4 0 10.7 10 24.3 20.1 36.3 20.1 13.3 0 25.5-5.1 34.6-13.5 6-5.6 14.8-6.7 22-2.7 11 6 23.6 9.5 37.1 9.5 26.2 0 49.4-13.1 63.3-33.1 1.9.1 3.8.2 5.7.2 5.7 0 11.3-.7 16.7-1.9 3.4 3.1 1.2 3.5 17 8.4 11.9 13.2 29.4 21.2 48.8 20.4 32-1.3 58-27.2 59.5-59.2 1.1-24.5-12.1-46.2-32.1-57.2z" style="fill:#00e4ff"/><path d="M488.9 135v-2.2c-.1-1.6-.2-3.1-.3-4.7-2.2-20.6-14.5-38.2-31.8-47.7-10.3-16.9-28-28.8-48.6-31.1-13.8-18.8-36.1-31.1-61.2-31.1-7.2 0-14.1 1-20.7 2.9-6.6-1.9-13.5-2.9-20.7-2.9-1.6 0-3.2.1-4.7.2 23.1 1.5 43.5 13.3 56.4 30.9 20.6 2.3 38.3 14.2 48.6 31.1 20 11 33.3 32.7 32.1 57.4-.2 3.5-.6 7-1.4 10.3-5.6 25.7-37.9 34.7-55.7 15.3l-.3-.3c-15.8-4.9-13.6-5.4-17-8.4-5.4 1.2-11 1.9-16.7 1.9-1.9 0-3.8-.1-5.7-.2-13.9 20-37.1 33.1-63.3 33.1-13.4 0-26.1-3.4-37.1-9.5-7.2-3.9-16-2.8-22 2.7-9.1 8.4-21.2 13.5-34.6 13.5-12 0-25.7-10.2-36.3-20.1-8.6-8-22-8.1-30.5 0-9.4 9-22.5 14.2-36.8 13.2-22.6-1.6-41-19.1-44.1-41.3-.5 3.3-.6 6.7-.4 10.2 1.7 24.1 21.4 43.4 45.5 44.6 13.9.7 26.6-4.5 35.8-13.3 8.4-8.1 21.9-8 30.4 0 10.7 10 24.3 20.1 36.4 20.1 13.3 0 25.5-5.1 34.6-13.5 6-5.6 14.8-6.7 22-2.7 11 6 23.6 9.5 37.1 9.5 26.2 0 49.4-13.1 63.3-33.1 1.9.1 3.8.2 5.7.2 5.7 0 11.3-.7 16.7-1.9 3.4 3.1 1.2 3.5 17 8.4 5.7 6.3 12.7 11.5 20.6 15 2.1 1 4.3 1.8 6.5 2.5l1.2.4c.4.1 1.7.5 2.2.6h.1c1 .3 2.1.5 3.2.7.1 0 .2.1.4.1 1 .2 2 .4 3 .5.2 0 .4.1.6.1.9.1 1.9.2 2.9.3.3 0 .5.1.8.1.9.1 1.9.1 2.8.1h4.5c32-1.3 58-27.2 59.5-59.2 0-.8.1-1.6.1-2.4-.1-.1-.1-.2-.1-.3z" style="fill:#55f7ff"/><path class="st6" d="M128 512h-20.2c-2.8 0-5.1-2.1-5.3-4.9L99 462.6h37.7l-3.5 44.5c-.1 2.8-2.4 4.9-5.2 4.9zM373.8 512h-20.2c-2.8 0-5.1-2.1-5.3-4.9l-3.5-44.5h37.7l-3.5 44.5c-.1 2.8-2.4 4.9-5.2 4.9z"/><path d="M393.5 485.2H88.1c-7.4 0-13.8-5.2-15.2-12.5L45 387.1h391.6l-27.9 85.6c-1.4 7.2-7.8 12.5-15.2 12.5z" style="fill:#fec37d"/><path d="m385.8 387.1-27.9 85.6c-1.5 7.3-7.8 12.5-15.2 12.5h50.8c7.4 0 13.8-5.2 15.2-12.5l27.9-85.6h-50.8z" style="fill:#f9ae5d"/><path class="st6" d="M450.7 398.3H31c-4.3 0-7.8-3.5-7.8-7.8V375c0-4.3 3.5-7.8 7.8-7.8h419.7c4.3 0 7.8 3.5 7.8 7.8v15.5c0 4.3-3.5 7.8-7.8 7.8z"/><path d="M450.7 367.2h-45.3v31.1h45.3c4.3 0 7.8-3.5 7.8-7.8V375c0-4.3-3.5-7.8-7.8-7.8z" style="fill:#ea8f3d"/></svg>