<svg version="1.1" id="Layer_1" xmlns="http://www.w3.org/2000/svg" x="0" y="0" viewBox="0 0 512 512" style="enable-background:new 0 0 512 512" xml:space="preserve"><style>.st0{fill:#7703fc}.st1{fill:#1ae5be}</style><path class="st0" d="M173.8 431.8h-26.9c-3.5 0-6.7-2.5-6.7-6.1v-48.2c0-2.8-2.3-5.1-5.1-5.1s-5.1 2.3-5.1 5.1v48.2c0 9.2 7.8 16.4 17 16.4h26.9c2.8 0 5.1-2.3 5.1-5.1s-2.3-5.2-5.2-5.2zM135.1 365.8c2.8 0 5.1-2.3 5.1-5.1v-7.5c0-2.8-2.3-5.1-5.1-5.1s-5.1 2.3-5.1 5.1v7.5c-.1 2.8 2.2 5.1 5.1 5.1z"/><path class="st1" d="M346.2 230.3h-8.7v-9.1c0-2.8-2.2-5.5-5.1-5.5h-38.1c-2.8 0-4.9 2.6-4.9 5.5v9.1h-66.9v-9.1c0-2.8-2.1-5.5-4.9-5.5h-38.1c-2.8 0-5.1 2.6-5.1 5.5v9.1h-8.7c-24.1-.1-43.7-19.6-43.8-43.7h-10.3c0 29.2 24.3 54 54.1 54h8.7v6.3c0 13.3 10.8 24 24 24s24-10.8 24-24v-6.3h66.9v6.3c0 13.3 10.8 24 24 24s24-10.8 24-24v-6.3h8.7c29.8 0 54.1-24.9 54.1-54H390c-.1 24.1-19.7 43.6-43.8 43.7zm-133.9 16.5c0 7.6-6.1 13.7-13.7 13.7s-13.7-6.1-13.7-13.7V226h27.4v20.8zm114.9 0c0 7.6-6.1 13.7-13.7 13.7s-13.7-6.1-13.7-13.7V226h27.4v20.8zM208.8 67.3c.2-2.9 2.5-5.1 5.4-5.1h83.6c2.9 0 5.2 2.3 5.4 5.1v29.2h10.3V67.3c0-8.5-7.2-15.4-15.7-15.4h-83.6c-8.5 0-15.7 7-15.7 15.4v29.2h10.3V67.3zM214.1 174.5h83.8c5.7.1 11.3-2.1 15.4-6.2 4.1-4 6.4-9.5 6.4-15.2 0-11.9-9.7-21.6-21.6-21.5H214.2c-5.8-.1-11.3 2.2-15.4 6.3-4.1 4-6.4 9.4-6.4 15.1 0 11.9 9.7 21.5 21.7 21.5-.1 0 0 0 0 0zm-8.1-29.3c2.2-2.1 5.1-3.3 8.1-3.2h83.8c6.3 0 11.4 5 11.4 11.3 0 3-1.2 5.8-3.3 7.9-2.2 2.1-5.1 3.2-8.1 3.1h-83.8c-6.2.1-11.3-4.9-11.4-11.1v-.1c0-3.1 1.2-5.9 3.3-7.9z"/><path class="st0" d="M437.7 265.4h-37.6V131c0-21.8-17.5-39.7-39.3-39.7H151.2c-21.8 0-39.3 17.9-39.3 39.7v134.5H74.3c-2.9.1-5.3 2.5-5.3 5.4v111.3c0 13 10.7 23.1 23.7 23.1h19.2v23.9c-.1 17 13.7 30.9 30.7 31h226.8c17-.1 30.8-13.9 30.7-31v-23.9h19.2c13 0 23.7-10.2 23.7-23.1V270.8c-.1-2.9-2.4-5.3-5.3-5.4zM92.7 395c-7.3 0-13.4-5.5-13.4-12.8V275.7h32.6V395H92.7zm29.5 34.2V325.5h40.7c2.8 0 5.1-2.3 5.1-5.1s-2.3-5.1-5.1-5.1h-40.7V131c0-16.1 12.9-29.4 29-29.4h209.6c16.1 0 29 13.3 29 29.4v184.2H184.4c-2.8 0-5.1 2.3-5.1 5.1s2.3 5.1 5.1 5.1H250v124.4H142.6c-11.3 0-20.5-9.3-20.4-20.6zm247.2 20.7H260.3V325.5h129.5v103.7c.1 11.3-9.1 20.6-20.4 20.7zm63.3-67.8c0 7.3-6.1 12.8-13.4 12.8h-19.2V275.7h32.6v106.4z"/></svg>