<svg version="1.1" id="Layer_1" xmlns="http://www.w3.org/2000/svg" x="0" y="0" viewBox="0 0 512 512" style="enable-background:new 0 0 512 512" xml:space="preserve"><style>.st1{fill:#7703fc}</style><path d="M48.5 424h415.1c14.3 0 26.5-11.4 26.5-25.7V157.7c0-14.3-12.1-25.7-26.5-25.7H452v12h11.5c7.7 0 14.5 6 14.5 13.7v240.6c0 7.7-6.7 13.7-14.5 13.7h-415c-7.7 0-14.5-6-14.5-13.7V157.7c0-7.7 6.7-13.7 14.5-13.7H60v-12H48.5C34.1 132 22 143.4 22 157.7v240.6c0 14.3 12.1 25.7 26.5 25.7z" style="fill:#1ae5be"/><path class="st1" d="M378 146c0-6.6-5.4-12-12-12h-75c-6.6 0-12 5.4-12 12v21c0 6.6 5.4 12 12 12h75c6.6 0 12-5.4 12-12v-21zm-87 0h74.9v21H291v-21zM288.1 228h74c3.3 0 6-2.7 6-6s-2.7-6-6-6h-74c-3.3 0-6 2.7-6 6s2.7 6 6 6zM282.1 251c0 3.3 2.7 6 6 6h132c3.3 0 6-2.7 6-6s-2.7-6-6-6h-132c-3.3 0-6 2.7-6 6zM420.1 274h-132c-3.3 0-6 2.7-6 6s2.7 6 6 6h132c3.3 0 6-2.7 6-6s-2.7-6-6-6zM420.1 303h-132c-3.3 0-6 2.7-6 6s2.7 6 6 6h132c3.3 0 6-2.7 6-6s-2.7-6-6-6zM420.1 332h-132c-3.3 0-6 2.7-6 6s2.7 6 6 6h132c3.3 0 6-2.7 6-6s-2.7-6-6-6zM86 132.5c3.3 0 6-2.7 6-6v-4.8c0-3.3-2.7-6-6-6s-6 2.7-6 6v4.8c0 3.3 2.7 6 6 6zM86 217.5c3.3 0 6-2.7 6-6v-63.2c0-3.3-2.7-6-6-6s-6 2.7-6 6v63.2c0 3.3 2.7 6 6 6z"/><path class="st1" d="M432.3 88H285.8c-4.5 0-8.9 1.1-12.9 3.3l-16.9 9.6-16.9-9.5c-3.9-2.2-8.4-3.3-12.9-3.3H80.1C65.7 88 54 99.7 54 114.1V186c0 3.3 2.7 6 6 6s6-2.7 6-6v-72.3c0-7.6 6.1-13.7 13.7-13.7H110v98.5c.1 2.3 1.4 4.3 3.4 5.3.9.5 1.9.7 2.9.7 1.2 0 2.4-.4 3.5-1.1l27.9-19.2 27.7 19.1c1.3.9 2.8 1.3 4.4 1.1 3-.4 5.2-2.9 5.2-6V100h41.2c2.4 0 4.8.5 6.9 1.7l16.9 9.5V380H80.1c-7.8 0-14.1-6.3-14.1-14.1V228c0-3.3-2.7-6-6-6s-6 2.7-6 6v138c0 14.4 11.6 26 26 26h351.9c14.4 0 26.1-11.7 26.1-26.1V113.7c0-14.2-11.5-25.7-25.7-25.7zM173 187.1l-21.9-15c-2.1-1.4-4.9-1.4-7 0l-22.1 15V100h51v87.1zM446 366c-.1 7.7-6.3 14-14.1 14H262V111.1l16.9-9.5c2.1-1.2 4.5-1.7 6.9-1.7h146.1c7.6-.1 14 6 14.1 13.6V366z"/></svg>