<svg version="1.1" id="Layer_1" xmlns="http://www.w3.org/2000/svg" x="0" y="0" viewBox="0 0 512 512" style="enable-background:new 0 0 512 512" xml:space="preserve"><style>.st0{fill:#1ae5be}.st1{fill:#7703fc}</style><path class="st0" d="M323.2 219.9c-2-.8-4.3-.3-5.8 1.3l-4.5 4.8-4.8-4.9c-1-1-2.4-1.6-3.8-1.6s-2.8.6-3.8 1.7l-4.7 4.9-4.7-4.9c-1-1-2.4-1.6-3.8-1.7-1.4 0-2.8.6-3.8 1.6l-4.8 4.9-4.6-4.8c-1.5-1.6-3.7-2.1-5.7-1.3s-3.3 2.8-3.2 5v49.9h10.7v-36.6c.8.6 1.8.9 2.9.9 1.4 0 2.8-.6 3.8-1.6l4.8-4.9 4.7 4.9c2.1 2.1 5.4 2.2 7.5.1l.1-.1 4.8-4.9 4.8 4.9c1 1 2.4 1.6 3.8 1.6 1 0 2.1-.3 2.9-.9v36.6h10.7v-49.9c-.2-2.2-1.5-4.2-3.5-5z"/><path class="st1" d="M66.9 292.4c-3 0-5.4 2.4-5.4 5.4v5.6c0 3 2.4 5.4 5.4 5.4s5.4-2.4 5.4-5.4v-5.6c0-3.1-2.4-5.4-5.4-5.4zM66.9 314.9c-3 0-5.4 2.4-5.4 5.4v58.9c0 3 2.4 5.4 5.4 5.4s5.4-2.4 5.4-5.4v-58.9c0-3-2.4-5.4-5.4-5.4z"/><path class="st1" d="M469.3 232.8H429v10.7h27.4l-25.7 25.9H152.8l25.8-25.9H198v-10.7H79c-1.4 0-2.8.5-3.8 1.5l-36.4 36.5c-1 1-1.5 2.4-1.4 3.8v180.7c-.1 2.6 1.9 4.9 4.6 5h390.9c1.4.1 2.8-.4 3.8-1.4l36.4-36.4c1-1 1.5-2.3 1.4-3.7V238c0-2.8-2.3-5.2-5.2-5.2zM314 280.1h43.7v23.2H314v-23.2zm-196.2 0h44.6v23.2h-44.6v-23.2zm-36.5-36.6h82.3l-25.8 25.9H55.5l25.8-25.9zm79.3 206h-41v-30.1c.9.6 2 .9 3.1.9 1.5 0 2.9-.6 3.9-1.6l4.9-4.9 4.8 4.9c2.1 2.1 5.5 2.2 7.6.1l.1-.1 4.8-4.9 4.8 4.9c1.1 1 2.5 1.6 4 1.6 1.1 0 2.2-.3 3.1-.9l-.1 30.1zm77.6-107.9c-3 0-5.4 2.4-5.4 5.4v102.6h-61.5v-43.4c-.1-3-2.6-5.4-5.6-5.3-1.4 0-2.8.6-3.8 1.7l-4.6 4.8-4.8-5c-1-1.1-2.4-1.7-3.8-1.8-1.5.1-2.8.7-3.8 1.8l-4.7 5-4.7-5c-1-1.1-2.4-1.7-3.8-1.7-1.5.1-2.8.7-3.8 1.8l-4.8 5-4.6-4.8c-2.1-2.2-5.6-2.2-7.8-.1-1 1-1.6 2.4-1.7 3.8v43.4H48.2V280.1h58.9v28.2c.1 3.1 2.5 5.5 5.5 5.7h54.9c3.1-.1 5.5-2.6 5.6-5.7v-28.2h59.8v31.2c0 3 2.4 5.4 5.4 5.4s5.4-2.4 5.4-5.4v-31.2h59.8v28.2c0 3 2 5.7 5 5.7h54.9c3 0 5.3-2.7 5.3-5.7v-28.2h58.9v169.4H367v-43.4c0-2.9-2.4-5.3-5.3-5.3-1.5 0-2.9.6-3.9 1.7l-4.6 4.8-4.8-5c-1-1.1-2.4-1.7-3.8-1.8-1.5.1-2.8.7-3.8 1.8l-4.7 5-4.7-5c-1-1.1-2.4-1.7-3.8-1.7-1.5.1-2.8.7-3.8 1.8l-4.8 5-4.6-4.8c-1.4-1.6-3.7-2.1-5.7-1.3s-3.3 2.8-3.2 5v43.4H244V347c-.5-3-2.9-5.4-5.8-5.4zm117.7 107.9h-40.1v-30.1c.8.6 1.8.9 2.8.9 1.4 0 2.8-.6 3.8-1.6l4.8-4.9 4.7 4.9c2 2.1 5.4 2.2 7.5.1l.1-.1 4.8-4.9 4.8 4.9c1 1 2.4 1.6 3.8 1.6 1.1 0 2.1-.3 3-.9v30.1zm82-7.5V276.8l25.9-25.5v165.2L437.9 442z"/><path class="st0" d="M429.4 51.8H234.6c-1.4-.1-2.8.4-3.8 1.4l-36.6 37.3c-1 1-1.6 2.3-1.6 3.7v175.2h10.7V99h59.8v28c-.1 2.7 2 4.9 4.7 5h55.3c2.7.1 5.1-2 5.2-4.7V99H388v170.3h16.1l28.9-28.2c.9-1 1.4-2.4 1.4-3.8V56.8c.2-2.6-1.8-4.8-4.4-5h-.6zM211.7 88.3l25.2-25.9h82.2l-25.8 25.9h-81.6zm105.8 33h-43.7V99h43.7v22.3zm-9.1-33 25.8-25.9h82.3l-25.8 25.9h-82.3zm115.3 146.9-25 25.8V95.5l25-25.8v165.5z"/></svg>