<svg version="1.1" id="Layer_1" xmlns="http://www.w3.org/2000/svg" x="0" y="0" viewBox="0 0 512 512" style="enable-background:new 0 0 512 512" xml:space="preserve"><style>.st0{fill:#7703fc}.st1{fill:#1ae5be}</style><path class="st0" d="m76 435.7 360 1.6c2.7 0 4.9-2.2 4.9-4.9V102.9c0-2.7-2.2-4.9-4.9-4.9h-37.3V79.6c0-2.7-2.2-4.9-4.9-4.9h-75.1c-2.7 0-4.9 2.2-4.9 4.9V98H198.3V79.6c0-2.7-2.2-4.9-4.9-4.9h-74.2c-2.7 0-4.9 2.2-4.9 4.9V98H76c-2.7 0-4.9 2.2-4.9 4.9v327.8c0 2.8 2.2 5 4.9 5zm5-9.9V168.4h350v259l-350-1.6zM323.6 84.6h65.2v32.7h-65.2V84.6zm-199.6 0h64.3v32.7H124V84.6zm-9.9 23.3v14.3c0 2.7 2.2 4.9 4.9 4.9h74.2c2.7 0 4.9-2.2 4.9-4.9v-14.3h115.5v14.3c0 2.7 2.2 4.9 4.9 4.9h75.1c2.7 0 4.9-2.2 4.9-4.9v-14.3H431v50.6H81v-50.6h33.1z"/><path class="st0" d="M99.4 181.9h9.9v12.2h-9.9v-12.2zM99.4 203.9h9.9v128h-9.9v-128z"/><path class="st1" d="M182.1 236.1h35.4c2.7 0 4.9-2.2 4.9-4.9v-33.8c0-2.7-2.2-4.9-4.9-4.9h-35.4c-2.7 0-4.9 2.2-4.9 4.9v33.8c-.1 2.7 2.1 4.9 4.9 4.9zm4.9-33.8h25.5v23.9H187v-23.9zM238.3 236.1h35.4c2.7 0 4.9-2.2 4.9-4.9v-33.8c0-2.7-2.2-4.9-4.9-4.9h-35.4c-2.7 0-4.9 2.2-4.9 4.9v33.8c0 2.7 2.2 4.9 4.9 4.9zm5-33.8h25.5v23.9h-25.5v-23.9zM294.6 236.1H330c2.7 0 4.9-2.2 4.9-4.9v-33.8c0-2.7-2.2-4.9-4.9-4.9h-35.4c-2.7 0-4.9 2.2-4.9 4.9v33.8c-.1 2.7 2.1 4.9 4.9 4.9zm4.9-33.8H325v23.9h-25.5v-23.9zM350.8 236.1h35.4c2.7 0 4.9-2.2 4.9-4.9v-33.8c0-2.7-2.2-4.9-4.9-4.9h-35.4c-2.7 0-4.9 2.2-4.9 4.9v33.8c0 2.7 2.2 4.9 4.9 4.9zm5-33.8h25.5v23.9h-25.5v-23.9zM125.8 290.7h35.4c2.7 0 4.9-2.2 4.9-4.9V252c0-2.7-2.2-4.9-4.9-4.9h-35.4c-2.7 0-4.9 2.2-4.9 4.9v33.8c0 2.7 2.2 4.9 4.9 4.9zm5-33.7h25.5v23.9h-25.5V257zM182.1 290.7h35.4c2.7 0 4.9-2.2 4.9-4.9V252c0-2.7-2.2-4.9-4.9-4.9h-35.4c-2.7 0-4.9 2.2-4.9 4.9v33.8c-.1 2.7 2.1 4.9 4.9 4.9zM187 257h25.5v23.9H187V257zM238.3 290.7h35.4c2.7 0 4.9-2.2 4.9-4.9V252c0-2.7-2.2-4.9-4.9-4.9h-35.4c-2.7 0-4.9 2.2-4.9 4.9v33.8c0 2.7 2.2 4.9 4.9 4.9zm5-33.7h25.5v23.9h-25.5V257zM294.6 290.7H330c2.7 0 4.9-2.2 4.9-4.9V252c0-2.7-2.2-4.9-4.9-4.9h-35.4c-2.7 0-4.9 2.2-4.9 4.9v33.8c-.1 2.7 2.1 4.9 4.9 4.9zm4.9-33.7H325v23.9h-25.5V257zM350.8 290.7h35.4c2.7 0 4.9-2.2 4.9-4.9V252c0-2.7-2.2-4.9-4.9-4.9h-35.4c-2.7 0-4.9 2.2-4.9 4.9v33.8c0 2.7 2.2 4.9 4.9 4.9zm5-33.7h25.5v23.9h-25.5V257zM125.8 345.4h35.4c2.7 0 4.9-2.2 4.9-4.9v-33.8c0-2.7-2.2-4.9-4.9-4.9h-35.4c-2.7 0-4.9 2.2-4.9 4.9v33.8c0 2.7 2.2 4.9 4.9 4.9zm5-33.8h25.5v23.9h-25.5v-23.9zM182.1 345.4h35.4c2.7 0 4.9-2.2 4.9-4.9v-33.8c0-2.7-2.2-4.9-4.9-4.9h-35.4c-2.7 0-4.9 2.2-4.9 4.9v33.8c-.1 2.7 2.1 4.9 4.9 4.9zm4.9-33.8h25.5v23.9H187v-23.9zM238.3 345.4h35.4c2.7 0 4.9-2.2 4.9-4.9v-33.8c0-2.7-2.2-4.9-4.9-4.9h-35.4c-2.7 0-4.9 2.2-4.9 4.9v33.8c0 2.7 2.2 4.9 4.9 4.9zm5-33.8h25.5v23.9h-25.5v-23.9zM294.6 345.4H330c2.7 0 4.9-2.2 4.9-4.9v-33.8c0-2.7-2.2-4.9-4.9-4.9h-35.4c-2.7 0-4.9 2.2-4.9 4.9v33.8c-.1 2.7 2.1 4.9 4.9 4.9zm4.9-33.8H325v23.9h-25.5v-23.9zM350.8 345.4h35.4c2.7 0 4.9-2.2 4.9-4.9v-33.8c0-2.7-2.2-4.9-4.9-4.9h-35.4c-2.7 0-4.9 2.2-4.9 4.9v33.8c0 2.7 2.2 4.9 4.9 4.9zm5-33.8h25.5v23.9h-25.5v-23.9zM125.8 400h35.4c2.7 0 4.9-2.2 4.9-4.9v-33.8c0-2.7-2.2-4.9-4.9-4.9h-35.4c-2.7 0-4.9 2.2-4.9 4.9v33.8c0 2.7 2.2 4.9 4.9 4.9zm5-33.7h25.5v23.9h-25.5v-23.9zM182.1 400h35.4c2.7 0 4.9-2.2 4.9-4.9v-33.8c0-2.7-2.2-4.9-4.9-4.9h-35.4c-2.7 0-4.9 2.2-4.9 4.9v33.8c-.1 2.7 2.1 4.9 4.9 4.9zm4.9-33.7h25.5v23.9H187v-23.9zM238.3 400h35.4c2.7 0 4.9-2.2 4.9-4.9v-33.8c0-2.7-2.2-4.9-4.9-4.9h-35.4c-2.7 0-4.9 2.2-4.9 4.9v33.8c0 2.7 2.2 4.9 4.9 4.9zm5-33.7h25.5v23.9h-25.5v-23.9zM294.6 400H330c2.7 0 4.9-2.2 4.9-4.9v-33.8c0-2.7-2.2-4.9-4.9-4.9h-35.4c-2.7 0-4.9 2.2-4.9 4.9v33.8c-.1 2.7 2.1 4.9 4.9 4.9zm4.9-33.7H325v23.9h-25.5v-23.9z"/></svg>