<svg version="1.1" id="Layer_1" xmlns="http://www.w3.org/2000/svg" x="0" y="0" viewBox="0 0 512 512" style="enable-background:new 0 0 512 512" xml:space="preserve"><style>.st0{fill:#7703fc}.st1{fill:#1ae5be}</style><path class="st0" d="M423.5 79.4h-24.7V53.1c.1-3-2.2-5.4-5.2-5.6h-65.3c-2.9 0-4.9 2.6-4.9 5.6v26.4H187.7V53.1c0-2.9-2-5.6-4.9-5.6h-64.4c-3 .1-5.3 2.6-5.2 5.6v26.4H88.5c-22.6.1-40.9 18.5-41 41.1v302.9c.1 22.6 18.4 40.9 41 41.1h335c22.6-.1 40.9-18.4 41-41.1v-303c-.1-22.6-18.4-40.9-41-41.1zm-89.4-21.3h54.1v45.2h-54.1V58.1zm-210.3 0H177v45.2h-53.2V58.1zm330.1 105.6H121.6c-2.9 0-5.3 2.4-5.3 5.3s2.4 5.3 5.3 5.3h332.3v249.1c-.1 16.7-13.6 30.3-30.3 30.4h-335c-16.7-.1-30.3-13.7-30.3-30.4v-249h42.6c2.9 0 5.3-2.4 5.3-5.3s-2.4-5.3-5.3-5.3H58.1v-43.2c.1-16.7 13.6-30.3 30.3-30.5h24.7v18.7c-.1 2.9 2.2 5.2 5.1 5.3h64.5c2.9 0 4.9-2.3 4.9-5.3V90.1h135.7v18.7c0 2.9 2 5.3 4.9 5.3h65.3c2.9 0 5.2-2.3 5.2-5.2V90.1h24.7c16.7.1 30.3 13.7 30.3 30.5l.2 43.1z"/><path class="st0" d="M71.5 186.8c-2.9 0-5.3 2.4-5.3 5.3v6.2c0 2.9 2.4 5.3 5.3 5.3s5.3-2.4 5.3-5.3v-6.2c0-2.9-2.4-5.3-5.3-5.3zM71.5 209c-2.9 0-5.3 2.4-5.3 5.3v108.2c0 2.9 2.4 5.3 5.3 5.3s5.3-2.4 5.3-5.3V214.3c0-2.9-2.4-5.3-5.3-5.3z"/><path class="st1" d="M256 209.9c-57.3 0-103.7 46.5-103.7 103.8S198.7 417.4 256 417.4s103.7-46.5 103.7-103.8c0-57.2-46.4-103.7-103.7-103.7zm0 196.8c-51.4 0-93.1-41.7-93.1-93.1s41.7-93.1 93.1-93.1 93.1 41.7 93.1 93.1c-.1 51.4-41.7 93.1-93.1 93.1z"/><path class="st1" d="M296.3 316.3h-38.5v-52c0-2.9-2.4-5.3-5.3-5.3s-5.3 2.4-5.3 5.3v57.5c.1 2.9 2.4 5.2 5.3 5.1h43.9c2.9 0 5.3-2.4 5.3-5.3s-2.5-5.3-5.4-5.3z"/><path class="st1" d="M256 182.3c-72.4 0-131.3 58.9-131.3 131.3S183.6 444.9 256 444.9 387.3 386 387.3 313.6 328.4 182.3 256 182.3zm0 252c-66.5 0-120.6-54.1-120.6-120.6S189.5 193 256 193s120.6 54.1 120.6 120.6S322.5 434.3 256 434.3z"/></svg>