<svg version="1.1" id="Layer_1" xmlns="http://www.w3.org/2000/svg" x="0" y="0" viewBox="0 0 512 512" style="enable-background:new 0 0 512 512" xml:space="preserve"><style>.st0{fill:#7703fc}.st1{fill:#1ae5be}</style><path class="st0" d="M448.6 39H63.4c-16.5 0-30 13.1-30 29.1v264.5c0 16 13.5 29.1 30 29.1h239.2V351H63.4c-10.7 0-19.4-8.3-19.4-18.5V68.1c0-10.2 8.7-18.5 19.4-18.5h385.1c10.7 0 19.4 8.3 19.4 18.5v264.5c0 10.2-8.7 18.5-19.4 18.5h-29.9v10.6h29.9c16.5 0 30-13.1 30-29.1V68.1c.1-16-13.4-29.1-29.9-29.1z"/><path class="st0" d="M209.3 198.6V91.1c0-3.9-3.2-7.1-7.1-7.1H90.6c-3.9 0-7.1 3.2-7.1 7.1v107.5c0 3.9 3.2 7.1 7.1 7.1h111.6c3.9-.1 7.1-3.2 7.1-7.1zm-10.7-3.6H94.1V94.6h104.5V195zM237.8 116.9l170.7-1.3c2.9 0 5.3-2.4 5.3-5.3s-2.4-5.3-5.3-5.3l-170.7 1.3c-2.9 0-5.3 2.4-5.3 5.3s2.4 5.3 5.3 5.3zM414 175.9c0-2.9-2.4-5.3-5.3-5.3L238 171.9c-2.9 0-5.3 2.4-5.3 5.3s2.4 5.3 5.3 5.3l170.7-1.3c3 0 5.3-2.4 5.3-5.3zM95.4 252.7l157.3-1.3c2.9 0 5.3-2.4 5.3-5.4 0-2.9-2.4-5.3-5.4-5.3L95.3 242c-2.9 0-5.3 2.4-5.3 5.3.1 3.1 2.5 5.4 5.4 5.4zM95.6 318.4l157.3-1.3c2.9 0 5.3-2.4 5.3-5.3s-2.4-5.3-5.3-5.3l-157.3 1.3c-2.9 0-5.3 2.4-5.3 5.3s2.4 5.3 5.3 5.3z"/><path class="st1" d="M357.9 332h1.1c23.8 0 43.5-18.5 44.1-41.6.3-11.1-3.9-21.9-11.7-30-8.2-8.6-19.5-13.5-31.3-13.7-24.3-.6-44.5 18.1-45.1 41.6-.3 11.1 3.9 21.9 11.7 30 8 8.5 19.3 13.4 31.2 13.7zm-32.4-43.5c.4-17.4 15.4-31.3 33.4-31.3h.8c9 .1 17.6 3.9 23.9 10.4 5.8 6 8.9 14 8.7 22.4-.4 17.7-15.8 31.7-34.3 31.2-9-.1-17.6-3.9-23.9-10.4-5.6-5.9-8.8-14-8.6-22.3z"/><path class="st1" d="M418.4 339c4.9-.6 10-1.7 12.8-6 3.2-5 1.2-11-.6-16.2-.8-2.3-2-6.1-1.7-7.3.4-1.1 3.5-3.4 5.3-4.8 4.5-3.4 9.7-7.3 9.8-13.3s-4.8-10.2-9.1-13.8c-1.8-1.5-4.8-4-5.1-5.1-.3-1.2 1.2-5 2-7.2 2-5.2 4.3-11 1.4-16.2-3-5.1-9.2-6.1-14.7-6.9-2.4-.4-6.3-1-7.2-1.8-.8-.8-1.4-4.7-1.8-7.1-.9-5.5-1.8-11.8-7-14.8-5-2.9-10.9-.7-16 1.2-2.3.9-6.1 2.3-7.3 2-1.1-.3-3.5-3.4-4.9-5.2-3.4-4.4-7.4-9.5-13.4-9.6s-10.2 4.7-13.8 9c-1.5 1.8-4 4.7-5.1 5-1.3.3-5-1.3-7.2-2.3-5.1-2.2-10.8-4.7-16-2-5.3 2.7-6.6 8.9-7.7 14.4-.5 2.3-1.3 6.2-2.2 7-.9.8-4.9 1.2-7.3 1.5-5.5.6-11.8 1.2-15 6.2s-1.2 11 .6 16.2c.8 2.3 2 6.1 1.7 7.3-.4 1.1-3.5 3.4-5.3 4.8-4.5 3.4-9.7 7.3-9.8 13.3-.2 6.1 4.8 10.2 9.1 13.8 1.8 1.5 4.8 4 5.1 5.1.3 1.2-1.2 5-2 7.2-2 5.2-4.3 11-1.4 16.2 3 5.1 9.2 6.1 14.7 6.9 1 .2 2.4.4 3.6.6-.3.5-.6 1-.7 1.5l-33.4 115.3c-.8 2.8.8 5.8 3.6 6.6 1.3.4 2.6.2 3.8-.3l31.3-15.5 22 26.4c1.9 2.3 5.2 2.6 7.5.7.8-.7 1.4-1.6 1.7-2.6l26.6-88.9 20.7 83.5c.7 2.9 3.6 4.6 6.4 3.9 1-.3 1.9-.8 2.6-1.6l23.3-25.3 30.4 16.9c2.6 1.4 5.8.5 7.2-2.1.7-1.3.9-2.9.4-4.3L418.4 339zm-124.6-14.8c-.2-1.2 1.3-4.9 2-7 1.8-4.5 3.6-9.2 2.4-13.7-1.1-4.4-4.9-7.6-8.5-10.6-1.8-1.5-5-4.2-5.3-5.4.3-1.2 3.7-3.7 5.6-5.1 3.8-2.9 7.7-5.8 9.1-10.2 1.4-4.5-.2-9.2-1.7-13.8-.7-2.1-2-5.8-1.7-7.1 1-.8 5-1.2 7.2-1.4 4.8-.5 9.8-1 13.3-4.2 3.5-3.1 4.5-8 5.5-12.7.5-2.2 1.3-6.3 2.1-7.1 1.2-.2 4.9 1.4 6.9 2.3 4.5 2 9.2 4 13.8 2.9 4.5-1 7.7-4.8 10.9-8.4 1.5-1.8 4.3-5.1 5.4-5.3 1.2.2 3.8 3.7 5.3 5.5 2.9 3.8 6 7.7 10.4 8.9 4.6 1.3 9.3-.5 13.9-2.3 2.1-.8 5.7-2.2 6.9-2 .8 1 1.5 5 1.8 7.2.7 4.8 1.5 9.7 4.8 13s8.3 4.1 13.1 4.8c2.2.3 6.1.9 7.1 1.8.2 1.2-1.3 4.9-2 7-1.8 4.5-3.6 9.2-2.4 13.7 1.1 4.4 4.9 7.6 8.5 10.6 1.8 1.5 5 4.2 5.3 5.4-.3 1.2-3.7 3.7-5.6 5.1-3.8 2.9-7.7 5.8-9.1 10.2-1.4 4.5.2 9.2 1.7 13.8.7 2.1 2 5.8 1.7 7.1-1 .8-5 1.2-7.2 1.4-4.8.5-9.8 1-13.3 4.2-3.5 3.1-4.5 8-5.5 12.7-.5 2.2-1.3 6.3-2.1 7.1-1.2.2-4.9-1.4-6.9-2.3-4.5-2-9.2-4-13.8-2.9-4.5 1-7.7 4.8-10.8 8.4-.1 0-.1.1-.1.1s-.1.1-.2.1l-.2.2-.2.2-.2.2-.2.2c0 .1-.1.1-.1.2-.1.1-.1.2-.2.2 0 .1-.1.1-.1.2l-.1.1c-1.5 1.6-3.1 3.4-3.9 3.5-1.2-.2-3.8-3.7-5.3-5.5-2.9-3.8-6-7.7-10.4-8.9-1.1-.3-2.2-.4-3.3-.4-3.6 0-7.2 1.4-10.7 2.7-2.1.8-5.7 2.2-6.9 2-.8-1-1.5-5-1.8-7.2-.7-4.8-1.5-9.7-4.8-13s-8.3-4.1-13.1-4.8c-2-.3-6-.9-7-1.7zm37.5 132.5-18.3-22c-1.6-1.9-4.2-2.5-6.5-1.4l-24.2 12 27.1-93.7c.9 3.5 2.5 6.7 5.8 8.6 5 2.9 10.9.7 16-1.2 2.3-.9 6.1-2.3 7.3-2 1.1.3 3.5 3.4 4.9 5.2 3.4 4.4 7.3 9.4 13.3 9.6l-25.4 84.9zm88.6-27.3c-2.1-1.2-4.8-.8-6.5 1L394 451.6l-22.3-90c1.5-1.7 3.3-3.6 4.2-3.9 1.2-.3 5 1.3 7.2 2.3 5.1 2.2 10.8 4.7 16 2 5.3-2.7 6.6-8.9 7.7-14.4.4-2 .9-3.9 1.5-5.8l33.7 99.8-22.1-12.2z"/></svg>