<svg version="1.1" id="Layer_1" xmlns="http://www.w3.org/2000/svg" x="0" y="0" viewBox="0 0 512 512" style="enable-background:new 0 0 512 512" xml:space="preserve"><style>.st0{fill:#7703fc}.st1{fill:#1ae5be}</style><path class="st0" d="M236.4 121.3h163.9v10.4H236.4v-10.4zM187.8 153.7h212.6v10.4H187.8v-10.4zM187.8 186.2h212.6v10.4H187.8v-10.4zM187.8 218.6h212.6V229H187.8v-10.4zM187.8 251.1h155.8v10.4H187.8v-10.4z"/><path class="st1" d="M55 435.8c1.9.8 4.2.4 5.7-1.1l58.6-58.5H379c2.9 0 5.2-2.3 5.2-5.2v-70.1h-10.4v64.9H117.1c-1.4 0-2.7.5-3.7 1.5l-51.3 51.1v-262H133V146H57c-2.9 0-5.2 2.3-5.2 5.2V431c0 2.1 1.2 4 3.2 4.8z"/><path class="st1" d="M77.3 170.2h10.4V183H77.3v-12.8zM77.3 193.3h10.4V328H77.3V193.3z"/><path class="st0" d="M133 306h259.7l58.6 58.5c2 2 5.3 2 7.4 0 1-1 1.5-2.3 1.5-3.7V81.1c0-2.9-2.3-5.2-5.2-5.2H133c-2.9 0-5.2 2.3-5.2 5.2v219.8c0 2.8 2.4 5.1 5.2 5.1zm5.2-219.7h311.6v262l-51.3-51.1c-1-1-2.3-1.5-3.7-1.5H138.2V86.3z"/></svg>