<svg version="1.1" id="Layer_1" xmlns="http://www.w3.org/2000/svg" x="0" y="0" viewBox="0 0 512 512" style="enable-background:new 0 0 512 512" xml:space="preserve"><style>.st0{fill:#7703fc}</style><path class="st0" d="M256 27.9C130 28 27.9 130.2 28 256.2c.1 125.9 102.3 227.9 228.2 227.9C382.1 484 484.1 381.8 484 255.9c0-60.4-24.1-118.3-66.8-161.1-42.6-42.9-100.7-67-161.2-66.9zm153.2 381.7c-84.8 84.5-222.1 84.2-306.6-.6-84.3-84.6-84.2-221.6.2-306.1 85-84.3 222.3-83.7 306.6 1.3 83.8 84.5 83.7 220.9-.2 305.4z"/><path class="st0" d="M256 63.4c-106.2 0-192.6 86.5-192.6 192.8S149.8 449 256 449s192.6-86.5 192.6-192.8S362.2 63.4 256 63.4zm181.2 198.5c-1.3 44.1-18.8 86.2-49 118.4l-13.6-13.6-8 8 13.6 13.6c-32.1 30.3-74.2 47.9-118.4 49.2v-19.4h-11.4v19.4c-44.2-1.4-86.3-18.9-118.4-49.2l13.6-13.6-8-8-13.6 13.6a180.48 180.48 0 0 1-49-118.4h19v-11.4H74.8c1.3-44.1 18.8-86.2 49-118.4l13.6 13.6 8-8-13.6-13.6c32.1-30.3 74.2-47.9 118.4-49.2v19.4h11.4V74.8c44.2 1.4 86.3 18.9 118.4 49.2l-13.6 13.6 8 8L388 132c30.3 32.2 47.7 74.3 49 118.4h-19v11.4h19.2v.1z"/><path class="st0" d="m172.1 131.1 6.3 9.4c5.3-3.6 10.9-6.8 16.7-9.6l-5-10.2c-6.1 3.1-12.2 6.5-18 10.4zM105.4 256.2h11.4c-.1-42.3 19.2-82.4 52.2-108.7l-7.1-8.9c-35.8 28.5-56.6 71.8-56.5 117.6z"/><path d="m378.7 231.2-97.9 15.4c-5.3-13.7-20.6-20.4-34.3-15.1-3.2 1.2-6.1 3.1-8.6 5.4L182.5 199l-6.4 9.4 55.4 37.9c-5.5 13.6 1 29.1 14.6 34.6s29.1-1 34.6-14.6c1.1-2.7 1.7-5.5 1.9-8.4l97.9-15.4-1.8-11.3zM256 271.4c-8.4 0-15.2-6.8-15.2-15.2 0-8.4 6.8-15.2 15.2-15.2s15.2 6.8 15.2 15.2c0 8.4-6.8 15.2-15.2 15.2z" style="fill:#1ae5be"/></svg>