<svg version="1.1" id="Layer_1" xmlns="http://www.w3.org/2000/svg" x="0" y="0" viewBox="0 0 512 512" style="enable-background:new 0 0 512 512" xml:space="preserve"><style>.st0{fill:#7703fc}.st1{fill:#1ae5be}</style><path class="st0" d="M458.6 122.6c0-20.9-17-37.9-37.9-37.9H91.3c-20.9 0-37.9 17-37.9 37.9v266.8c0 20.9 17 37.9 37.9 37.9h329.4c20.9 0 37.9-17 37.9-37.9V122.6zm-9.9 16.5H134.1c-2.7 0-4.9 2.2-4.9 4.9s2.2 4.9 4.9 4.9h314.6v240.3c0 15.5-12.5 28.1-28 28.2H91.3c-15.5-.1-28-12.7-28-28.2V148.9h36.2c2.7 0 4.9-2.2 4.9-4.9s-2.2-4.9-4.9-4.9H63.3v-16.3c0-15.5 12.5-28.1 28-28.2h329.4c15.5.1 28 12.7 28 28.2v16.3z"/><path class="st0" d="M92.5 112.4c-3.9 0-7 3.1-7 7s3.1 7 7 7 7-3.1 7-7c0-3.8-3.2-7-7-7zM118.5 112.4c-3.9 0-7 3.1-7 7s3.1 7 7 7 7-3.1 7-7c0-3.8-3.1-7-7-7zM145.4 112.4c-3.9 0-7 3.1-7 7s3.1 7 7 7 7-3.1 7-7c0-3.8-3.1-7-7-7zM78.9 179.7c-2.7 0-4.9 2.2-4.9 4.9v69.6c0 2.7 2.2 4.9 4.9 4.9s4.9-2.2 4.9-4.9v-69.6c.1-2.7-2.1-4.9-4.9-4.9zM78.9 160.5c-2.7 0-4.9 2.2-4.9 4.9v3.8c0 2.7 2.2 4.9 4.9 4.9s4.9-2.2 4.9-4.9v-3.8c.1-2.7-2.1-4.9-4.9-4.9z"/><path class="st1" d="M134.3 233c-1.9-1.9-5.1-1.9-7 0l-36.8 36.8c-1.9 1.9-1.9 5.1 0 7l36.8 36.8c2 1.9 5.1 1.9 7-.1 1.9-1.9 1.9-5 0-6.9L101 273.3l33.3-33.3c1.9-2 1.9-5.1 0-7zM193.2 233c-2-1.9-5.1-1.9-7 .1-1.9 1.9-1.9 5 0 6.9l33.3 33.3-33.3 33.3c-2 1.9-2 5-.1 7s5 2 7 .1l.1-.1 36.8-36.8c1.9-1.9 1.9-5.1 0-7L193.2 233zM175.8 208.8c-2.7-.6-5.3 1-6 3.6L141 331.7c-.7 2.6.9 5.3 3.6 6 2.6.7 5.3-.9 6-3.6v-.1l28.8-119.3c.7-2.5-.9-5.2-3.6-5.9zM258.3 218.9h-2.5c-2.7 0-4.9 2.2-4.9 4.9s2.2 4.9 4.9 4.9h2.5c2.7 0 4.9-2.2 4.9-4.9.1-2.6-2.2-4.9-4.9-4.9zM291.4 218.9h-8.5c-2.7 0-4.9 2.2-4.9 4.9s2.2 4.9 4.9 4.9h8.5c2.7 0 4.9-2.2 4.9-4.9.1-2.6-2.1-4.9-4.9-4.9zM418 218.9H316.5c-2.7 0-4.9 2.2-4.9 4.9s2.2 4.9 4.9 4.9H418c2.7 0 4.9-2.2 4.9-4.9.1-2.6-2.2-4.9-4.9-4.9zM258.3 251.9h-2.5c-2.7 0-4.9 2.2-4.9 4.9s2.2 4.9 4.9 4.9h2.5c2.7 0 4.9-2.2 4.9-4.9.1-2.7-2.2-4.9-4.9-4.9zM291.4 251.9h-8.5c-2.7 0-4.9 2.2-4.9 4.9s2.2 4.9 4.9 4.9h8.5c2.7 0 4.9-2.2 4.9-4.9.1-2.7-2.1-4.9-4.9-4.9zM418 251.9H316.5c-2.7 0-4.9 2.2-4.9 4.9s2.2 4.9 4.9 4.9H418c2.7 0 4.9-2.2 4.9-4.9.1-2.7-2.2-4.9-4.9-4.9zM258.3 284.8h-2.5c-2.7 0-4.9 2.2-4.9 4.9s2.2 4.9 4.9 4.9h2.5c2.7 0 4.9-2.2 4.9-4.9s-2.2-4.9-4.9-4.9zM291.4 284.8h-8.5c-2.7 0-4.9 2.2-4.9 4.9s2.2 4.9 4.9 4.9h8.5c2.7 0 4.9-2.2 4.9-4.9s-2.1-4.9-4.9-4.9zM418 284.8H316.5c-2.7 0-4.9 2.2-4.9 4.9s2.2 4.9 4.9 4.9H418c2.7 0 4.9-2.2 4.9-4.9s-2.2-4.9-4.9-4.9zM258.3 317.8h-2.5c-2.7 0-4.9 2.2-4.9 4.9s2.2 4.9 4.9 4.9h2.5c2.7 0 4.9-2.2 4.9-4.9s-2.2-4.9-4.9-4.9zM291.4 317.8h-8.5c-2.7 0-4.9 2.2-4.9 4.9s2.2 4.9 4.9 4.9h8.5c2.7 0 4.9-2.2 4.9-4.9s-2.1-4.9-4.9-4.9zM418 317.8H316.5c-2.7 0-4.9 2.2-4.9 4.9s2.2 4.9 4.9 4.9H418c2.7 0 4.9-2.2 4.9-4.9s-2.2-4.9-4.9-4.9z"/></svg>