<svg version="1.1" id="Layer_1" xmlns="http://www.w3.org/2000/svg" x="0" y="0" viewBox="0 0 512 512" style="enable-background:new 0 0 512 512" xml:space="preserve"><style>.st1{fill:#7703fc}</style><path d="M260.4 108.5V87.1h27.2c2.9 0 5.3-2.4 5.4-5.3V71.7c-.1-12.4-10.2-22.3-22.5-22.3h-28.7c-12.4 0-22.4 9.9-22.5 22.3v10.1c.1 2.9 2.5 5.2 5.4 5.3h25.5v21.4h10.2zm-30.9-36.8c.1-6.7 5.6-12 12.2-12h28.7c6.7 0 12.1 5.3 12.2 12v5.1h-53.2l.1-5.1z" style="fill:#1ae5be"/><path class="st1" d="M256.1 128.4c-85.1 0-154.3 69.2-154.3 154.3S171 437 256.1 437s154.3-69.2 154.3-154.3-69.2-154.3-154.3-154.3zm105.3 252.3-15.6-15.6c-2-2-5.3-2-7.3 0s-2 5.3 0 7.3l15.6 15.6c-25.3 23.7-58.3 37.4-93 38.6v-22.2c0-2.8-2.3-5.1-5.1-5.1s-5.1 2.3-5.1 5.1v22.2c-34.6-1.2-67.6-14.9-93-38.6l15.6-15.6c2-2 2.1-5.2.1-7.3-2-2-5.2-2.1-7.3-.1l-.1.1-15.6 15.6c-23.7-25.3-37.4-58.4-38.6-93h22.2c2.8 0 5.1-2.3 5.1-5.1s-2.3-5.1-5.1-5.1H112c1.2-34.6 14.9-67.6 38.6-92.9l15.6 15.7c2 2 5.3 2 7.3 0s2-5.3 0-7.3L158 177.3c25.3-23.7 58.3-37.4 93-38.6v22.2c0 2.8 2.3 5.1 5.1 5.1s5.1-2.3 5.1-5.1v-22.2c34.6 1.2 67.6 14.9 93 38.6L338.6 193c-2 2-2.1 5.2-.1 7.3 2 2 5.2 2.1 7.3.1l.1-.1 15.6-15.7c23.7 25.3 37.4 58.3 38.6 92.9h-22.2c-2.8 0-5.1 2.3-5.1 5.1s2.3 5.1 5.1 5.1H400c-1.2 34.7-14.9 67.7-38.6 93z"/><path class="st1" d="M261 191.2c-.7-2.7-3.6-4.4-6.3-3.6-1.8.5-3.1 1.9-3.6 3.6l-24.6 90.1c-.2.9-.2 1.8 0 2.7l24.6 90.1c.7 2.7 3.6 4.4 6.3 3.6 1.8-.5 3.1-1.9 3.6-3.6l24.6-90.1c.2-.9.2-1.8 0-2.7L261 191.2zm-4.9 21.3 17.9 65.8h-35.9l18-65.8zm0 141.1-17.7-65h35.5l-17.8 65zM193.8 205.5c-20.8 15.8-36.5 37.3-45 62-.9 2.7.5 5.6 3.2 6.5s5.6-.5 6.5-3.2c7.9-22.7 22.4-42.6 41.5-57.2 2.3-1.7 2.7-4.9 1-7.2s-4.9-2.7-7.2-.9c0-.1 0-.1 0 0zM217.1 191.3l-5.4 2.7c-2.5 1.3-3.5 4.5-2.1 7s4.5 3.5 7 2.1c1.6-.9 3.3-1.7 5-2.5 2.6-1.2 3.7-4.3 2.5-6.8-1.3-2.7-4.4-3.8-7-2.5 0-.1 0-.1 0 0z"/><path class="st1" d="M256.1 102.7c-93 0-169.7 70.6-179 161.4-.3 2.8 1.8 5.3 4.6 5.6h.5c2.6 0 4.8-2 5.1-4.6 8.8-85.7 81.8-152.8 170-152.1 92.7.7 168.1 76.5 168.3 169.2.3 93.7-75.9 170.1-169.6 170.1-87.6 0-160-66.9-168.7-152.2-.3-2.6-2.5-4.6-5.1-4.6-2.8 0-5.1 2.3-5.1 5.1v.5c9.3 90.8 86 161.5 179 161.5 99.2 0 179.9-80.7 179.9-179.9 0-99.5-80.5-180-179.9-180z"/></svg>