<svg version="1.1" id="Layer_1" xmlns="http://www.w3.org/2000/svg" x="0" y="0" viewBox="0 0 512 512" style="enable-background:new 0 0 512 512" xml:space="preserve"><style>.st0{fill:#7703fc}.st1{fill:#1ae5be}</style><path class="st0" d="m69.3 470.4 245-1.5-.1-10.5L69.3 460c-7.1 0-12.9-5.7-12.9-12.7V64.8c.1-7.1 5.8-12.8 12.9-12.8h266.9c7.1 0 12.9 5.7 12.9 12.7v139.5h10.5V64.8c-.1-12.9-10.5-23.2-23.4-23.2H69.3c-12.9 0-23.3 10.3-23.4 23.2v382.5c.1 12.8 10.6 23.2 23.4 23.1z"/><path class="st0" d="M81.2 91.8H190c2.9 0 5.2-2.3 5.2-5.2 0-2.9-2.3-5.2-5.2-5.2H81.2c-2.9 0-5.2 2.3-5.2 5.2-.1 2.9 2.3 5.2 5.2 5.2zM67.8 409.3c0 2.9 2.3 5.2 5.2 5.2h108.9c2.9 0 5.2-2.3 5.2-5.2 0-2.9-2.3-5.2-5.2-5.2H73c-2.9 0-5.2 2.3-5.2 5.2zM303.1 121.7H76.2c-2.9 0-5.2 2.3-5.2 5.2s2.3 5.2 5.2 5.2H303c2.9 0 5.2-2.3 5.2-5.2.1-2.8-2.2-5.2-5.1-5.2zM303.1 162.1H76.2c-2.9 0-5.2 2.3-5.2 5.2s2.3 5.2 5.2 5.2H303c2.9 0 5.2-2.3 5.2-5.2.1-2.9-2.2-5.2-5.1-5.2zM303.1 202.4H76.2c-2.9 0-5.2 2.3-5.2 5.2s2.3 5.2 5.2 5.2H303c2.9 0 5.2-2.3 5.2-5.2s-2.2-5.2-5.1-5.2zM303.1 242.7H76.2c-2.9 0-5.2 2.3-5.2 5.2s2.3 5.2 5.2 5.2H303c2.9 0 5.2-2.3 5.2-5.2.1-2.8-2.2-5.2-5.1-5.2zM308.3 288.3c0-2.9-2.3-5.2-5.2-5.2H76.2c-2.9 0-5.2 2.3-5.2 5.2 0 2.9 2.3 5.2 5.2 5.2H303c3 0 5.3-2.3 5.3-5.2zM284 328.6c0-2.9-2.3-5.2-5.2-5.2H76.2c-2.9 0-5.2 2.3-5.2 5.2 0 2.9 2.3 5.2 5.2 5.2h202.5c2.9.1 5.3-2.3 5.3-5.2zM111.7 365.8c2.2-4.9 2.2-9.5-.1-13-1.9-3-5.4-5-9.8-5.8-5.9-1-12.3.5-16.4 3.8-4.5 3.6-7.1 9.8-7 17h-.1c-2.7-1.1-5.7.2-6.8 2.9-1 2.6.1 5.5 2.7 6.7 2.1.9 4.3 1.6 6.5 2.1 2.3 5.7 6.2 10.2 11.1 12.5 3.1 1.4 6.4 2.1 9.8 2.1 4.9 0 9.7-1.3 13.8-3.8 3-2 5.5-4.5 7.6-7.5.3-.5.8-1 1.1-1.5 1.4 1.3 3 2.3 4.7 3.2 4.3 2.3 9.1 3.5 14 3.6 5.9.1 11.6-1.4 16.7-4.4 2.5-1.5 3.3-4.7 1.8-7.2s-4.6-3.3-7.1-1.9c-3.4 2-7.3 3-11.2 3-3.2 0-6.4-.8-9.3-2.3-1.1-.6-2.2-1.3-3.1-2.2-1.6-1.7-3.9-2.7-6.2-2.8-5-.1-7.8 3.5-9.8 6.2-1.3 1.9-2.9 3.6-4.8 4.9-3.9 2.4-9.8 3-13.6 1.2-1.3-.6-2.4-1.5-3.3-2.6 4.1-.6 8-2.3 11.2-4.8 3.4-2.5 5.9-5.8 7.6-9.4zm-13.9 1.1c-2.6 1.9-5.7 2.9-8.8 3-.5-4.8.6-9.2 2.9-10.9 1.9-1.2 4.1-1.9 6.3-1.8.7 0 1.3.1 1.9.2 1.8.3 2.6.9 2.7 1.1.6.8-1.1 5.4-5 8.4z"/><path class="st1" d="M464.2 373.1c-1.3-1.1-3-1.4-4.6-1l-33.8 8.4-18.5-32c-2.1-4.2-2.5-9-1.1-13.4 0-.1.1-.2.1-.3l15.1-63.1c4-17.3 2.3-35.4-4.9-51.6-.1-.2-.2-.5-.4-.7l-57.3-90.6c-1.5-2.4-4.8-3.2-7.2-1.6s-3.2 4.8-1.6 7.2l57.1 90.2c6.1 14 7.6 29.7 4.1 44.6l-15 62.9c-2.1 7-1.5 14.6 1.9 21.2 0 .1.1.2.1.3l17 29.5-69.6 17.2c-1.7-6.5-4.8-12.5-9-17.6l-8.9-10.8c-13.9-20.1-15.2-46.4-3.3-67.7l2.4-4.3c4.1-7.4 6.4-15.6 6.8-24l2.1-42.4c.7-12.5 10.2-22.9 22.6-24.7l-2.9 30.1c-1.1 11.2-1.1 22.4-.1 33.6.3 2.9 2.8 5 5.7 4.7 2.9-.3 5-2.8 4.7-5.7-1-10.5-.9-21.1.1-31.6l3.4-36.1c.3-2.9-1.8-5.4-4.7-5.7h-.2c-20.6-1-38.1 14.7-39.1 34.9l-2.1 42.4c-.3 6.8-2.2 13.4-5.5 19.4l-2.4 4.3c-13.9 24.9-12.4 55.6 4 78.9l.3.3 9 11c3.2 4 5.6 8.5 6.9 13.5l-19.9 4.9c-2.2.6-3.9 2.5-4 4.8l-2.5 51c-.1 2.9 2.1 5.3 5 5.5h.7l142.8-10.1c2.6-.2 4.7-2.3 4.9-5l3.7-76.5c0-1.7-.7-3.2-1.9-4.3zm-12.1 75.7-132.3 9.4 2-41.2 102.7-25.4 30.8-7.6-3.2 64.8z"/><path class="st1" d="M418.3 417.4c-.2 4.1 1.3 8.1 4.1 11.2 2.8 3 6.7 4.8 10.8 5h.8c8.3 0 15.1-6.4 15.6-14.7.2-4.1-1.3-8.1-4.1-11.2-5.9-6.4-15.8-6.7-22.1-.9-3 2.8-4.8 6.6-5.1 10.6zm20.8 1c-.2 2.8-2.6 4.9-5.4 4.7-1.4-.1-2.7-.7-3.6-1.7s-1.4-2.2-1.3-3.6c.2-2.7 2.4-4.8 5.1-4.7h.3c1.4.1 2.7.7 3.6 1.7s1.4 2.3 1.3 3.6z"/></svg>