<svg version="1.1" id="Layer_1" xmlns="http://www.w3.org/2000/svg" x="0" y="0" viewBox="0 0 512 512" style="enable-background:new 0 0 512 512" xml:space="preserve"><style>.st0{fill:#1ae5be}.st1{fill:#7703fc}</style><path class="st0" d="M203.7 292.1h-78.1c-15.3 0-27.8 12.4-27.8 27.8s12.4 27.8 27.8 27.8h78.1c15.3 0 27.8-12.4 27.8-27.8s-12.5-27.8-27.8-27.8zm0 45.9h-78.1c-10 0-18.1-8.1-18.1-18.1s8.1-18.1 18.1-18.1h78.1c10 0 18.1 8.1 18.1 18.1s-8.1 18.1-18.1 18.1zM409.4 301.8H287.8c-2.7 0-4.8 2.2-4.8 4.8 0 2.7 2.2 4.8 4.8 4.8h121.6c2.7 0 4.8-2.2 4.8-4.8 0-2.6-2.1-4.8-4.8-4.8zM409.4 327.6H287.8c-2.7 0-4.8 2.2-4.8 4.8 0 2.7 2.2 4.8 4.8 4.8h121.6c2.7 0 4.8-2.2 4.8-4.8 0-2.7-2.1-4.8-4.8-4.8z"/><path class="st1" d="M84 150.4h3.8c2.7 0 4.8-2.2 4.8-4.8 0-2.7-2.2-4.8-4.8-4.8H84c-2.7 0-4.8 2.2-4.8 4.8-.1 2.6 2.1 4.8 4.8 4.8zM105.4 150.4h57.3c2.7 0 4.8-2.2 4.8-4.8 0-2.7-2.2-4.8-4.8-4.8h-57.3c-2.7 0-4.8 2.2-4.8 4.8 0 2.6 2.1 4.8 4.8 4.8z"/><path class="st1" d="M431.6 119H80.4c-11.6 0-20.9 9.4-20.9 20.9V371c0 11.6 9.4 20.9 20.9 20.9h351.1c11.6 0 20.9-9.4 20.9-20.9V139.9c.1-11.5-9.3-20.9-20.8-20.9zm11.2 252.5c0 6.2-5.1 11.7-11.3 11.7H80.4c-6.2 0-11.3-5.4-11.3-11.7V243h373.7v128.5zm0-196.1H129.6c-2.7 0-4.8 2.2-4.8 4.8 0 2.7 2.2 4.8 4.8 4.8h313.3v48.3H69.2V185h26.6c2.7 0 4.8-2.2 4.8-4.8 0-2.7-2.2-4.8-4.8-4.8H69.2v-35.1c0-6.4 5.2-11.6 11.7-11.7h350.7c6.2 0 11.3 5 11.3 11.3v35.5h-.1z"/></svg>