<svg version="1.1" id="Layer_1" xmlns="http://www.w3.org/2000/svg" x="0" y="0" viewBox="0 0 512 512" style="enable-background:new 0 0 512 512" xml:space="preserve"><style>.st1{fill:#7703fc}</style><path d="M210.9 226.2c0-5.6-4.6-10.2-10.2-10.2H97c-5.6 0-10.2 4.6-10.2 10.2v32.3c0 5.6 4.6 10.2 10.2 10.2h103.7c5.6 0 10.2-4.6 10.2-10.2v-32.3zm-113.9 0h103.3v32.3H97v-32.3z" style="fill:#1ae5be"/><path class="st1" d="M423.5 211.1c-2.8 0-5.1 2.3-5.1 5.1v4.1c0 2.8 2.3 5.1 5.1 5.1s5.1-2.3 5.1-5.1v-4.1c0-2.8-2.3-5.1-5.1-5.1zM423.5 233.7c-2.8 0-5.1 2.3-5.1 5.1v65.6c0 2.8 2.3 5.1 5.1 5.1s5.1-2.3 5.1-5.1v-65.6c0-2.8-2.3-5.1-5.1-5.1z"/><path class="st1" d="M434.6 132.7H248.1c-2.1 0-4.1-.5-5.9-1.5l-54.7-31.3c-3.3-1.9-7.1-2.9-11-2.9H77.4c-12.2.1-22.1 10-22.1 22.3v273.5c0 12.2 9.9 22.2 22.1 22.3h357.1c12.2-.1 22.1-10 22.1-22.3V155c.1-12.2-9.8-22.2-22-22.3zm11.9 51H144.6c-2.8 0-5.1 2.3-5.1 5.1s2.3 5.1 5.1 5.1h301.8v198.8c0 6.6-5.4 12-12.1 12.1h-357c-6.6 0-11.9-5.3-11.9-11.9v-199h43.4c2.8 0 5.1-2.3 5.1-5.1s-2.3-5.1-5.1-5.1H65.5v-64.5c0-6.6 5.4-12 12.1-12.1h98.9c2.1 0 4.1.6 5.9 1.6l54.7 31.2c3.3 1.9 7.1 2.9 11 2.9h186.4c6.6 0 11.9 5.3 11.9 11.9v29h.1z"/></svg>