<svg version="1.1" id="Layer_1" xmlns="http://www.w3.org/2000/svg" x="0" y="0" viewBox="0 0 512 512" style="enable-background:new 0 0 512 512" xml:space="preserve"><style>.st0{fill:#1ae5be}.st1{fill:#7703fc}</style><path class="st0" d="m332.7 248.6 7.1 5.6c15.4-19.3 24.6-42.7 26.6-67.3l-9.1-.7c-1.7 22.8-10.3 44.5-24.6 62.4zM355.9 125.5c-20.2-45-64.9-73.9-114.2-73.9-69 0-125.1 56.1-125.1 125 0 36.7 16 71.4 44 95.1l5.9-6.9c-25.9-22-40.8-54.3-40.7-88.2 0-63.9 52-115.9 116-115.9 45.7 0 87.2 26.9 105.9 68.6l8.2-3.8z"/><path class="st1" d="M431.2 132.3c-4.3-23.5-26.9-39.2-50.4-34.8-17.7 3.3-31.6 17.1-34.8 34.8-15.5 1.2-27.3 14-27.2 29.5.2 16.1 13.2 29.1 29.4 29.2h81.4c16.2-.1 29.3-13.4 29.2-29.6-.2-15.3-12.2-28-27.6-29.1zm-1.8 49.7h-81.3c-11.1 0-20.2-9.1-20.4-20.2-.1-11.2 9-20.4 20.2-20.5h2c2.4 0 4.3-1.8 4.5-4.1 1.6-18.9 18.3-32.9 37.1-31.2 16.7 1.4 29.8 14.6 31.2 31.2.2 2.4 2.2 4.2 4.5 4.2h2c11.2 0 20.4 9.1 20.3 20.4 0 11.1-8.9 20.1-20.1 20.2zM477.8 453 297.5 184.2c-1-1.5-2.7-2.4-4.5-2.4h-75.2c-1.8 0-3.5.9-4.5 2.4L34.2 453c-1.1 1.6-1.2 3.8-.3 5.6.9 1.8 2.8 2.9 4.8 2.9h434.5c2 0 3.9-1.1 4.8-2.9.9-1.8.8-4-.2-5.6zM220.6 192.7H290l21.5 32-20.5 21.9c-1.5 1.6-3.7 2.6-6 2.6s-4.4-.8-6.1-2.4l-7.6-7.8c-4-4.1-9.5-6.2-15.2-5.7-5.7.5-10.8 3.3-14.1 8.1l-16.7 23.4c-1.8 2.6-4.8 3.9-8 3.4s-5.6-2.5-6.7-5.5l-12.5-36.6 22.5-33.4zM48.9 450.6l141.8-213.1 9.8 28.7c2.4 6.9 8.2 11.8 15.4 12.8.9.1 1.9.2 2.8.2 6.2 0 11.9-3 15.6-8.1l16.7-23.4c1.4-2 3.6-3.3 6.2-3.4 2.4-.2 4.9.7 6.6 2.4l7.6 7.8c3.6 3.7 8.5 5.7 13.7 5.7h.3c5.2-.1 10.1-2.3 13.8-6.1l18.7-20.1L463 450.7l-414.1-.1z"/><path class="st1" d="M305.5 319.7c-1.2-2.8-4.3-4.1-7.1-2.9-2.8 1.2-4.1 4.3-2.9 7.1l30.6 73.3c.9 2.1 2.9 3.3 5 3.3.7 0 1.4-.2 2.1-.5 2.8-1.2 4.1-4.3 2.9-7.1l-30.6-73.2zM280.1 359.8c-1.1-2.8-4.2-4.3-7-3.2-2.8 1.1-4.3 4.2-3.2 7l14.8 38.9c.8 2.2 2.9 3.5 5.1 3.5.6 0 1.3-.1 1.9-.4 2.8-1.1 4.3-4.2 3.2-7l-14.8-38.8z"/></svg>