<svg version="1.1" id="Layer_1" xmlns="http://www.w3.org/2000/svg" x="0" y="0" viewBox="0 0 512 512" style="enable-background:new 0 0 512 512" xml:space="preserve"><style>.st1{fill:#7703fc}</style><path d="M270.3 79.2c-6.8 6.8-11.4 15.4-14.3 24.5-3-9.2-7.5-17.7-14.3-24.5-22-22-58.5-21.2-81.4 1.7-18.8 18.8-23.1 47.4-10.6 69.6l8.7-4.9c-10.3-18.4-6.6-42.1 9-57.7 19-19 49.3-19.8 67.4-1.7 15.2 15.2 17.2 41.9 16.1 61.6h.4v.5l4.7-.2 4.7.2v-.5h.4c-1-19.7.9-46.4 16.1-61.6 18.1-18.1 48.3-17.4 67.4 1.7 15.6 15.6 19.3 39.4 9 57.7l8.7 4.9c12.5-22.2 8.1-50.9-10.6-69.6-22.9-22.9-59.4-23.6-81.4-1.7z" style="fill:#1ae5be"/><path class="st1" d="M332.6 274.1h51.2c10.7 0 19.5-8.7 19.5-19.5 0-10.7-8.7-19.5-19.5-19.5h-51.2c-10.7 0-19.5 8.7-19.5 19.5s8.7 19.5 19.5 19.5zm0-29h51.2c5.3 0 9.5 4.3 9.5 9.5 0 5.3-4.3 9.5-9.5 9.5h-51.2c-5.3 0-9.5-4.3-9.5-9.5-.1-5.2 4.2-9.5 9.5-9.5zM103.6 226.2c-2.7 0-5 2.2-5 5v4c0 2.7 2.2 5 5 5s5-2.2 5-5v-4c0-2.7-2.2-5-5-5zM103.6 248.3c-2.7 0-5 2.2-5 5v49.8c0 2.7 2.2 5 5 5s5-2.2 5-5v-49.8c0-2.8-2.2-5-5-5z"/><path class="st1" d="M429.9 143.2H82.1c-11.9 0-21.5 9.6-21.5 21.5v45.5c0 2.8 2.2 5 5 5.1h11.6v210.3c0 11.9 9.6 21.5 21.5 21.6h314.7c11.9 0 21.5-9.7 21.5-21.6V215.3h11.6c2.8 0 5-2.3 5-5.1v-45.5c-.1-11.9-9.7-21.5-21.6-21.5zm-147.4 294h-53V285.7c0-2.7-2.2-5-5-5s-5 2.2-5 5v151.6H98.6c-6.4 0-11.6-5.2-11.6-11.6V215.3h132.5v35.6c0 2.7 2.2 5 5 5s5-2.2 5-5v-35.6h53v221.9zM425 425.6c0 6.4-5.2 11.6-11.6 11.6h-121v-222H425v210.4zm16.5-220.3h-371v-40.7c0-6.4 5.2-11.5 11.6-11.5h347.8c6.4 0 11.6 5.1 11.6 11.5v40.7z"/></svg>