<svg version="1.1" id="Layer_1" xmlns="http://www.w3.org/2000/svg" x="0" y="0" viewBox="0 0 512 512" style="enable-background:new 0 0 512 512" xml:space="preserve"><style>.st0{fill:#7703fc}.st1{fill:#1ae5be}</style><path class="st0" d="M489 356.3h-14.2V84.9c0-3.3-2.7-6-6-6H43.2c-3.3 0-6 2.7-6 6v271.4H22.9c-3.3 0-6 2.7-6 6v64.8c0 3.3 2.7 6 6 6H489c3.3 0 6-2.7 6-6v-64.8c.1-3.3-2.6-6-6-6zM49.2 90.9h413.6v265.4h-28V124.9c0-3.3-2.7-6-6-6H83.2c-3.3 0-6 2.7-6 6v231.4h-28V90.9zm373.6 265.4h-98.1c-1.5 0-3 .6-4.1 1.6l-20 18.4h-90.3l-20-18.4c-1.1-1-2.6-1.6-4.1-1.6h-97V130.9h333.6v225.4zm60.2 64.8H29v-52.8h155l20 18.4c1.1 1 2.6 1.6 4.1 1.6h95c1.5 0 3-.6 4.1-1.6l20-18.4h156l-.2 52.8z"/><path class="st0" d="M106.2 156.7h12v14.8h-12v-14.8zM106.2 183.3h12v95.2h-12v-95.2z"/><path class="st1" d="M140.5 159.1h98v12h-98v-12zM140.5 191.1h231v12h-231v-12zM140.5 223.1h231v12h-231v-12zM140.5 255.1h231v12h-231v-12zM140.5 287.1h231v12h-231v-12zM140.5 319.1h231v12h-231v-12z"/></svg>