<svg version="1.1" id="Layer_1" xmlns="http://www.w3.org/2000/svg" x="0" y="0" viewBox="0 0 512 512" style="enable-background:new 0 0 512 512" xml:space="preserve"><style>.st0{fill:#7703fc}.st1{fill:#1ae5be}</style><path class="st0" d="m473.1 386.6-27.7-47.7v-62.2h-10.8v58.6H77.4V116.9c0-11.4 9.6-20.5 21-20.5h315.4c11.4-.1 20.6 9.1 20.7 20.4V149.6h10.8v-32.7c0-17.3-14.1-31.4-31.5-31.3H98.4c-17.4 0-31.9 13.9-31.9 31.3v221.9l-31.1 47.5h.1c-.6.8-.9 1.8-.9 2.9 0 20.6 16.7 37.2 37.3 37.2h364.5c20.6 0 37.3-16.6 37.3-37.2.1-.9-.2-1.8-.6-2.6zm-36.3-40.4 22.2 37.9H311.1l-5.9-22.9c-.6-2.4-2.8-4.1-5.2-4.2h-96.3c-2.5 0-4.6 1.8-5.2 4.2l-5.9 22.9H50.1l25.1-37.9h361.6zm-136.9 37.9h-96.2l4.2-16.2h87.9l4.1 16.2zm136.6 31.5H72c-12.4 0-23.2-8.6-25.9-20.7h416.4c-2.8 12.1-13.6 20.8-26 20.7z"/><path class="st0" d="M118.9 280.3c3 0 5.4-2.4 5.4-5.4v-66.3c0-3-2.4-5.4-5.4-5.4s-5.4 2.4-5.4 5.4v66.3c0 3 2.4 5.4 5.4 5.4zM113.5 188.7c0 3 2.4 5.4 5.4 5.4s5.4-2.4 5.4-5.4v-27.6c0-3-2.4-5.4-5.4-5.4s-5.4 2.4-5.4 5.4v27.6zM118.9 146.3c3 0 5.4-2.4 5.4-5.4v-5.1c0-3-2.4-5.4-5.4-5.4s-5.4 2.4-5.4 5.4v5.1c0 3 2.4 5.4 5.4 5.4z"/><path class="st0" d="M129.7 117.1c0-3-2.4-5.4-5.4-5.4H97.9c-2.9 0-5.2 2.3-5.2 5.2v198.9c0 2.9 2.3 5.2 5.2 5.2h316.5c3.2 0 5.7-2.6 5.7-5.7v-39.4h-10.8v34.3H103.6V122.5h20.7c3 0 5.4-2.4 5.4-5.4zM420.1 116.9c0-2.9-2.3-5.2-5.2-5.2H160.4c-3 0-5.4 2.4-5.4 5.4s2.4 5.4 5.4 5.4h248.9v27.1h10.8v-32.7z"/><path class="st1" d="M249 157.6c-2.1-2.1-5.5-2.1-7.7 0-2.1 2-2.1 5.3-.1 7.4l.1.1 11.7 11.6h-20.1c-3 0-5.4 2.4-5.4 5.4s2.4 5.4 5.4 5.4H253l-11.7 11.8c-2.1 2.1-2.1 5.6 0 7.7 2.1 2.1 5.5 2.2 7.6.1l20.9-20.9c2.1-2.1 2.1-5.5 0-7.6l-20.8-21zM173.7 176.6h-.9c-3 0-5.4 2.4-5.4 5.4s2.4 5.4 5.4 5.4h.9c3 0 5.4-2.4 5.4-5.4 0-2.9-2.4-5.4-5.4-5.4zM190.8 176.6h-.6c-3 0-5.4 2.4-5.4 5.4s2.4 5.4 5.4 5.4h.6c3 0 5.4-2.4 5.4-5.4 0-2.9-2.4-5.4-5.4-5.4zM214.7 176.6h-.3c-3 0-5.4 2.4-5.4 5.4s2.4 5.4 5.4 5.4h.3c3 0 5.4-2.4 5.4-5.4.1-2.9-2.4-5.4-5.4-5.4zM249 218.5c-2.1-2.1-5.5-2.1-7.7 0-2.1 2.1-2.1 5.6 0 7.7L253 238h-20.1c-3 0-5.4 2.4-5.4 5.4s2.4 5.4 5.4 5.4H253l-11.7 11.6c-2.1 2.1-2.1 5.5 0 7.6s5.5 2.1 7.6 0l20.9-20.9c2.1-2.1 2.1-5.5 0-7.7L249 218.5zM173.7 238h-.9c-3 0-5.4 2.4-5.4 5.4s2.4 5.4 5.4 5.4h.9c3 0 5.4-2.4 5.4-5.4 0-3-2.4-5.4-5.4-5.4zM190.8 238h-.6c-3 0-5.4 2.4-5.4 5.4s2.4 5.4 5.4 5.4h.6c3 0 5.4-2.4 5.4-5.4s-2.4-5.4-5.4-5.4zM214.7 238h-.3c-3 0-5.4 2.4-5.4 5.4s2.4 5.4 5.4 5.4h.3c3 0 5.4-2.4 5.4-5.4.1-3-2.4-5.4-5.4-5.4zM455.9 144.2H310.6c-11.7 0-21.2 9.5-21.2 21.2v95c0 11.5 9.4 20.9 20.9 20.9h22.4c3 0 5.4-2.4 5.4-5.4s-2.4-5.4-5.4-5.4h-22.1c-3.1 0-6-1.4-7.9-3.7l49.9-46.9 16.5 12.7c8.9 7 21.5 7 30.4 0l16.4-12.9 48.2 46.8c-1.9 2.5-4.9 4-8 4h-87.3c-3 0-5.4 2.4-5.4 5.4s2.4 5.4 5.4 5.4h87.7c11.3 0 20.5-9.2 20.5-20.5v-95.5c-.1-11.7-9.5-21.1-21.1-21.1zm-155.7 110v-74.7l43.7 33.6-43.7 41.1zm92.6-30.2c-5 3.9-12.1 3.9-17.1 0l-75.5-58.1v-.7c0-5.6 4.6-10.2 10.2-10.2h146c5.4 0 9.7 4.3 9.7 9.7v1.8L392.8 224zm73.3-43.8v73.1l-41.6-40.4 41.6-32.7z"/></svg>