<svg version="1.1" id="Layer_1" xmlns="http://www.w3.org/2000/svg" x="0" y="0" viewBox="0 0 512 512" style="enable-background:new 0 0 512 512" xml:space="preserve"><style>.st0{fill:#7703fc}</style><path class="st0" d="M449 132.2c-4.1-40.8-38.4-71.8-79.4-71.8H127c-41 0-75.3 31.1-79.4 71.9-11.1 2.4-19 12.2-19.1 23.6v37.9c0 11.2 7.7 21 18.7 23.5v9.1c0 26.3 21.4 47.6 47.7 47.6H149v19.6c0 22.8 18.5 41.3 41.3 41.3h7.8V324h-7.8c-16.8 0-30.4-13.6-30.5-30.5v-19.6h31.6c19.7.1 37.4-12.2 44.2-30.7l11.6-30.1 8.8 27.6c6.1 19.8 24.4 33.3 45.1 33.2h35.7v19.6c0 16.8-13.6 30.4-30.5 30.5h-7.8v11h7.8c22.8 0 41.3-18.5 41.3-41.3v-19.6h53.9c26.3 0 47.7-21.3 47.7-47.6v-9.1c11-2.5 18.8-12.3 18.8-23.6v-37.9c.2-11.5-7.8-21.3-19-23.7zM47.2 205.9c-4.7-2.2-7.8-6.9-7.8-12.1v-37.9c0-5.2 3.1-9.9 7.8-12.1v62.1zm391.3 20.5c0 20.3-16.5 36.8-36.8 36.8H301.2c-16 .1-30.1-10.3-34.8-25.6L256 204.9c-1.1-3.7-4.5-6.2-8.3-6.3h-.3c-3.7 0-7.1 2.3-8.4 5.8l-13.5 35c-5.2 14.3-18.8 23.8-34 23.7H94.9c-20.3 0-36.8-16.5-36.8-36.8V140c0-38 30.9-68.8 68.9-68.8h242.6c38 0 68.8 30.8 68.9 68.8v86.4zm18.8-32.6c0 5.3-3.1 10.1-8 12.2v-62.2c4.8 2.1 8 6.9 8 12.2v37.8z"/><path class="st0" d="M125.5 114.6c-3 0-5.4 2.4-5.4 5.4s2.4 5.4 5.4 5.4h1.8c3 0 5.4-2.4 5.4-5.4s-2.4-5.4-5.4-5.4h-1.8zM150.9 125.5h83.4c3 0 5.4-2.4 5.4-5.4s-2.4-5.4-5.4-5.4h-83.4c-3 0-5.4 2.4-5.4 5.4s2.4 5.4 5.4 5.4z"/><path class="st0" d="M369.6 87.8H179.8c-3 0-5.4 2.4-5.4 5.4s2.4 5.4 5.4 5.4h189.8c22.9 0 41.4 18.5 41.5 41.4v78c0 9.8-7.9 17.7-17.7 17.7h-92.1c-3.3 0-6.4-1.8-8.1-4.7l-15.3-48.3c-.2-.7-.4-1.3-.7-1.9-7.3-16.1-26.2-23.3-42.4-16.1-6.5 2.9-11.8 7.9-15.2 14.2-.3.6-.6 1.3-.9 2l-19.4 50.8c-1.7 2.6-4.6 4.1-7.7 4.1h-87.3c-9.7 0-17.6-7.8-17.7-17.5L85.5 140c0-22.9 18.6-41.4 41.5-41.4h7.5c3 0 5.4-2.4 5.4-5.4s-2.4-5.4-5.4-5.4H127c-28.9 0-52.3 23.4-52.3 52.3l.9 78.3c.3 15.6 13 28.2 28.6 28.3h87.3c7 0 13.6-3.6 17.3-9.6.2-.3.3-.6.5-.9l19.6-51.3c.1-.3.2-.5.3-.8 5.5-10.3 18.3-14.2 28.6-8.7 4.1 2.2 7.4 5.7 9.4 10 .1.2.2.5.3.8L283 235c.1.3.2.6.4.9 3.5 6.7 10.4 10.9 18 10.9h92.1c15.8 0 28.6-12.8 28.6-28.6v-78c-.2-29-23.6-52.4-52.5-52.4z"/><path d="M464 275.9c-10.8 0-19.5 8.7-19.5 19.5v99c0 10.1-8.2 18.2-18.3 18.2H285.1c-10.1 0-18.2-8.2-18.3-18.2v-9.3h4.2c3 0 5.4-2.4 5.4-5.4v-17.8h4.1c13 0 23.5-10.6 23.6-23.6v-18.5c0-13-10.6-23.5-23.6-23.6h-64.3c-13 0-23.5 10.6-23.6 23.6v18.5c0 13 10.6 23.5 23.6 23.6h4.1v17.8c0 3 2.4 5.4 5.4 5.4h2.1v9.3c0 31.6 25.7 57.2 57.2 57.2h141.1c31.6 0 57.2-25.6 57.2-57.2v-99c.2-10.7-8.6-19.4-19.3-19.5zm0 10.9c4.8 0 8.6 3.9 8.6 8.6v17.9h-17.2v-17.9c0-4.7 3.8-8.6 8.6-8.6zm-260.4 51.6v-18.5c0-7 5.7-12.7 12.7-12.7h64.3c7 0 12.7 5.7 12.7 12.7v18.5c0 7-5.7 12.7-12.7 12.7h-64.3c-7.1-.1-12.7-5.7-12.7-12.7zm62 23.5v12.4h-34.4v-12.4h34.4zm160.6 78.9H285.1c-25.6 0-46.3-20.7-46.4-46.3v-9.3h17.2v9.3c0 16.1 13.1 29.1 29.1 29.1h141.2c16.1 0 29.1-13 29.1-29.1v-70.2h17.2v70.2c.1 25.5-20.7 46.2-46.3 46.3z" style="fill:#1ae5be"/></svg>