<svg version="1.1" id="Layer_1" xmlns="http://www.w3.org/2000/svg" x="0" y="0" viewBox="0 0 512 512" style="enable-background:new 0 0 512 512" xml:space="preserve"><style>.st0{fill:#1ae5be}.st1{fill:#7703fc}</style><path class="st0" d="M77.1 197.2V258h-20c-3 0-5.4 2.4-5.4 5.4v169.3c.1 17 14 30.7 31 30.6 16.9-.1 30.5-13.8 30.6-30.6V263.4c0-3-2.4-5.4-5.4-5.4h-20v-60.8c23.8-2.6 42.3-22.1 42.3-45.7V63c0-3-2.4-5.4-5.4-5.4s-5.4 2.4-5.4 5.4v88.5c0 17.6-13.7 32.3-31.5 34.8V63.4c0-3-2.4-5.4-5.4-5.4s-5.4 2.4-5.4 5.4v122.9c-17.8-2.5-31.5-17.1-31.5-34.8V63c0-3-2.4-5.4-5.4-5.4S34.8 60 34.8 63v88.5c-.1 23.6 18.5 43.1 42.3 45.7zm25.4 235.5c-.1 11-9.1 19.9-20.1 19.9-10.9-.1-19.8-8.9-19.9-19.9V268.8h40v163.9zM471.9 283.4h-20V54c0-3-2.4-5.4-5.4-5.4h-7.9c-27.8 0-50.3 22.6-50.4 50.4v145.5c0 3 2.4 5.4 5.4 5.4h47.5v33.5h-20c-3 0-5.4 2.4-5.4 5.4v143.9c.1 17 14 30.7 31 30.6 16.9-.1 30.5-13.8 30.6-30.6V288.8c0-3-2.4-5.4-5.4-5.4zM399 99c0-21.8 17.7-39.6 39.6-39.6h2.5v179.7H399V99zm67.5 333.7c-.1 11-9.1 19.9-20.1 19.9-10.9-.1-19.8-8.9-19.9-19.9V294.2h40v138.5z"/><path class="st1" d="M248.6 294.9c38.8 0 70.4-32.3 70.4-71.9s-31.6-72-70.4-72-70.4 32.3-70.4 71.9 31.6 72 70.4 72zm0-133.1c32.9 0 59.6 27.4 59.6 61.1S281.5 284 248.6 284 189 256.7 189 222.9s26.7-61.1 59.6-61.1z"/><path class="st1" d="M248.6 332.5c59.3 0 107.5-49.2 107.5-109.6s-48.2-109.6-107.5-109.6-107.5 49.2-107.5 109.6 48.2 109.6 107.5 109.6zm0-208.3c53.3 0 96.7 44.3 96.7 98.8s-43.4 98.8-96.7 98.8-96.7-44.3-96.7-98.8 43.4-98.8 96.7-98.8z"/></svg>