<svg version="1.1" id="Layer_1" xmlns="http://www.w3.org/2000/svg" x="0" y="0" viewBox="0 0 512 512" style="enable-background:new 0 0 512 512" xml:space="preserve"><style>.st0{fill:#7703fc}.st1{fill:#1ae5be}</style><path class="st0" d="m447 285.3-2.8 1.5c-10.1-12.6-27.7-17.6-41.1-10.7 0 0-.1 0-.1.1l-6.5 3.5c-14.6-12.1-35.5-14.4-51.4-5.1l-32.2 17.8H270c-9.3 0-18.5-2.2-26.9-6.3l-5.9-2.9c-34-16.8-74.6-12.8-104.7 10.4-.1.1-.3.2-.4.3l-14.2 12.8c-5.5 5-12 8.6-19.1 10.7l-8.2-27.3c-.8-2.5-3.1-4.3-5.7-4.3H16.4c-3.3 0-6 2.7-6 6v.7l22.9 190.6c.4 3 2.9 5.3 5.9 5.3h103c3.3 0 6-2.7 6-6 0-.6-.1-1.2-.3-1.7l-13.7-45.5 42.5-27.3c5.7-3.2 12.4-4.1 18.7-2.5.1 0 .3.1.4.1l85.7 16c23.2 4.2 47.2.8 68.3-9.8.3-.1.5-.3.7-.4L499 308.2c2.6-1.8 3.3-5.3 1.7-8-10.9-18.7-34.7-25.4-53.7-14.9zm-38.4 1.5c7.7-3.9 18.2-1.1 24.9 5.9l-56.9 31.2-3.7 2c-1.8-5.5-4.6-10.5-8.2-15l43.9-24.1zm-57.6-1.6.1-.1c10.2-6 23.4-5.4 33.7 1L355.7 302c-5.8-4.3-12.5-7.3-19.6-8.7l14.9-8.1zM44.6 476.6 23.1 298h57.5l53.6 178.6H44.6zm299.7-75.1c-18.7 9.3-39.9 12.3-60.4 8.5l-85.5-16c-9.3-2.3-19.2-1-27.6 3.8-.1.1-.2.1-.3.2l-39.7 25.5-28.3-94.4c8.8-2.6 16.9-7.2 23.7-13.3l14-12.7c26.4-20.3 62.1-23.8 91.9-9l5.9 2.9c10 4.9 21 7.5 32.2 7.5h57c18 0 32.9 13.3 35.9 30.8l-41.9-1.9c-15-.7-30 0-44.9 2.1-3.3.4-5.6 3.4-5.2 6.7.4 3.3 3.4 5.6 6.7 5.2h.2c14.1-2 28.4-2.7 42.7-2l48.6 2.2h.3c3.3 0 6-2.7 6-6 0-1.2-.1-2.3-.1-3.4l6.9-3.7 70.5-38.6c11.5-6.3 25.8-3.8 34.5 6l-143.1 99.6z"/><path class="st0" d="M65.7 449.3c.1 10.9 9 19.6 19.9 19.5s19.6-9 19.5-19.9c-.1-10.8-8.9-19.5-19.7-19.5-11 0-19.8 8.9-19.7 19.9zm19.7-8c4.4-.1 8.1 3.3 8.2 7.7.1 4.4-3.3 8.1-7.7 8.2-4.4.1-8.1-3.3-8.2-7.7v-.2c-.1-4.3 3.3-7.9 7.7-8z"/><path class="st1" d="M386.1 178.6c-7.7-26.7-25.3-47.4-50.1-59.1 3.8-7.1 1.9-15.9-4.4-20.8 3.7-8.3 8-16.3 13.1-23.8C350 67 354.9 63.2 360 59.1c2-1.6 4.1-3.2 6.2-5.1 3.3-2.9 4.7-7.5 3.4-11.8-1.5-5-6.1-8-11.6-7.6-4.8.4-11.3-3.4-16.1-6.2-2.1-1.3-4.3-2.5-6.6-3.5-11.7-4.8-19.3 3.3-22.5 6.7-1.1 1.2-5 3.3-6.9 4.1-.2.1-.5.2-.7.2-5.5 1.6-8.4 1.4-13.6-3.3-7.8-7.1-17-8.4-24.5-3.4-2.9 1.9-4.4 5.1-5.9 8.5-.6 1.5-1.3 2.9-2.1 4.3-.2.4-.5.9-.9 1.2-.1 0-.2 0-.2.1-1 .2-1.2.2-3.3-1.3l-.8-.6c-4.7-3.6-9.8-6.6-15.2-8.9-.2-.1-.5-.2-.7-.4-.8-.4-1.9-.9-3-1.3-4.8-1.9-15.5-2.3-20.7-.8-1.4.3-2.8.9-4 1.8-2.3 1.7-4 4.2-4.7 6.9-1.7 6.2.7 12.7 6 16.3 7.7 5.1 14.3 11.7 19.7 19.2 4.9 7 8.7 14.7 11.3 22.8-8.2 4.1-11.6 14.1-7.5 22.3.3.7.7 1.3 1.1 1.9-13.9 7-38.4 21.4-49.2 51.6-.6 1.5-1.1 3.1-1.6 4.7-12.2 40.1 10.4 82.6 50.5 94.8 7.2 2.2 14.8 3.3 22.3 3.3h54.5c23.8.1 46.2-11 60.6-29.9 14.3-18.4 19.2-42.5 13.1-65.1 0-.7-.1-1.4-.3-2zm-135.9-62.2c-2.6 0-4.7-2.1-4.7-4.7s2.1-4.7 4.7-4.7h71.1c2.6 0 4.7 2.1 4.7 4.7s-2.1 4.7-4.7 4.7h-71.1zm-31.6-71.5c-1-.6-1.6-1.9-1.3-3.1 0-.1.1-.3.2-.4.1 0 .2-.1.3-.1 2.7-.8 10.6-.5 13 .5.7.3 1.5.7 2.2 1 .3.2.7.3.9.5 4.6 2 9 4.6 13 7.6l.9.7c3.1 2.3 6.7 4.5 12.4 3.5 5.3-.9 7.8-4.2 9.5-7.1 1-1.8 1.9-3.6 2.7-5.4.5-1.2 1.1-2.4 1.7-3.5 2.8-1.7 6-.9 9.6 2.4 7.9 7.2 15.1 8.9 25.1 5.9.6-.2 1.1-.4 1.7-.6 1.5-.6 8-3.6 11.2-7 4.1-4.4 6-5.2 9.2-3.8 1.7.8 3.4 1.7 5 2.7 5.5 3.3 12.9 7.6 20.5 7.9-1.2 1-2.5 2-3.8 3-5.4 4.2-11.4 9-17.8 18.5-5.7 8.5-10.6 17.5-14.6 26.9H304c.3-5 1.6-12.3 6.5-18 2-2.3 4.3-4.2 7-5.6 2.9-1.6 3.9-5.2 2.3-8.1s-5.2-3.9-8.1-2.3c-3.9 2.1-7.3 4.9-10.2 8.3-7.3 8.4-9.1 19-9.4 25.8h-6.2c-2.5-7.6-7.6-20.6-10.8-25.7-1.8-2.8-5.4-3.7-8.3-1.9-2.8 1.8-3.7 5.4-1.9 8.3 2.1 3.4 5.8 12.6 8.3 19.4h-18.4c-3-10-7.6-19.4-13.5-27.9-6.2-9-13.9-16.5-22.7-22.4zM364 238.3c-12.1 15.9-31.1 25.3-51.1 25.2h-54.5c-20.4.1-39.7-9.6-51.8-26.1-12.1-16.2-15.7-37.2-9.6-56.5.4-1.4.9-2.8 1.4-4.2 10.4-29 35.6-41.2 47.6-47 1-.5 2-.9 2.8-1.4.5 0 .9.1 1.4.1h71.1c1.3 0 2.7-.2 3.9-.5 24.9 9.7 42 28.4 49.3 54 .2.6.3 1.1.5 1.7 5.1 18.9 1 39.2-11 54.7z"/><path class="st1" d="M287.7 148.2c-26.8 0-48.6 21.5-48.6 47.8s21.8 47.8 48.6 47.8 48.6-21.5 48.6-47.8-21.8-47.8-48.6-47.8zm0 83.7c-20.2 0-36.6-16.1-36.6-35.8s16.4-35.8 36.6-35.8 36.6 16.1 36.6 35.8-16.4 35.8-36.6 35.8z"/><path class="st1" d="M294.3 170.5v-.3c0-3.3-2.7-6-6-6s-6 2.7-6 6v.4c-1.8.7-3.5 1.7-4.9 3.1-3.1 3.2-4.8 7.5-4.7 12 .1 7 5.3 12.9 12.6 14.3l1.7.3c.2 0 .3.1.5.1 0 0 .1 0 .2.1l.7.3c.2.1.3.2.5.3l.4.2c.1 0 .1.1.2.1 1.3.8 3.2 2.5 3.3 4 .1 1.8-.5 2.4-.7 2.7-1.2 1-2.8 1.5-4.4 1.4-1.1 0-4.1-1.3-4.2-2.9-.4-3.3-3.3-5.7-6.6-5.3s-5.7 3.3-5.3 6.6c.7 6.6 6 10.8 10.9 12.5.1 3.3 2.9 5.9 6.2 5.7 3.2-.1 5.7-2.7 5.8-5.9 2.3-.8 4.3-2.1 6.1-3.7 3-3.1 4.6-7.3 4.2-11.6-.3-7.9-7-12.5-9-13.8l-.3-.2-.4-.2-1.2-.6c-.3-.2-.7-.3-1-.4l-.7-.3c-.3-.1-.7-.3-1-.4-.6-.2-1.1-.3-1.7-.4l-1.7-.3c-2.1-.4-2.9-1.7-2.9-2.7 0-1.2.3-2.3 1.1-3.3.8-.6 1.9-.9 2.9-.7 2.2-.1 4.2 1.3 4.8 3.4v-.1l11.7-2.8c-1.7-5.5-5.8-9.8-11.1-11.6z"/></svg>