<svg version="1.1" id="Layer_1" xmlns="http://www.w3.org/2000/svg" x="0" y="0" viewBox="0 0 512 512" style="enable-background:new 0 0 512 512" xml:space="preserve"><style>.st0{fill:#7703fc}</style><path class="st0" d="M326.6 204.5c16.6-.3 29.8-13.9 29.5-30.5-.1-7.7-3.2-15-8.6-20.5-5.6-5.6-13-8.2-20.8-8.2-7.8-.1-15.3 2.9-20.9 8.3-5.5 5.4-8.7 12.8-8.6 20.5 0 7.9 3.1 15.5 8.6 21.1 5.5 5.7 12.9 9.3 20.8 9.3zm-13.7-44.3c3.6-3.6 8.6-5.7 13.7-5.7 10.9.2 19.5 9.3 19.3 20.1-.1 5-2.1 9.8-5.7 13.4-3.7 3.7-8.5 6.2-13.7 6.2-5.2 0-10-2.5-13.7-6.2-3.7-3.8-5.7-8.9-5.7-14.2.1-5 2.2-9.9 5.8-13.6zM295.4 145.4c11.2-11.2 11.3-29.4 0-40.7-11.2-11.2-29.4-11.3-40.7 0-11.2 11.2-11.3 29.4 0 40.7 5.4 5.4 12.7 8.4 20.3 8.4 7.6.1 15-3 20.4-8.4zM261.9 112c7.3-7.2 19-7.2 26.3 0 7.2 7.3 7.2 19 0 26.3-7.3 7.2-19 7.2-26.3 0s-7.3-19 0-26.3zM222.8 128.4c10.6-10.6 10.7-27.9 0-38.5s-27.9-10.7-38.5 0-10.7 27.9 0 38.5c5.1 5.1 12 8 19.3 8 7.2 0 14.1-2.9 19.2-8zm-36.3-19.2c0-9.4 7.6-17 17.1-17 9.4 0 17 7.6 17 17.1s-7.6 17-17.1 17c-4.5 0-8.9-1.8-12-5-3.2-3.2-5-7.6-5-12.1zM116.2 115.1c-10.7 10.9-10.5 28.5.4 39.2 5 4.9 11.7 7.7 18.8 7.9 7.3-.1 14.2-3.1 19.2-8.3 10.6-10.8 10.6-28 0-38.8-10.6-10.6-27.8-10.6-38.4 0zm31.3 31.6c-3.2 3.3-7.5 5.3-12.1 5.4-4.6-.1-8.9-2.1-12.1-5.4-3.2-3.3-5-7.8-5-12.4 0-9.4 7.7-17.1 17.1-17.1 9.6.2 17.2 8 17 17.6 0 4.5-1.8 8.7-4.9 11.9zM342.5 277.1c17.2-.2 31.1-14.2 31-31.4 0-8.2-3.2-16-9.1-21.7-5.9-5.9-13.6-8.6-21.9-8.6-8.3 0-16.1 2.8-21.9 8.7-5.8 5.6-9.1 13.4-9.1 21.5.1 17.2 13.9 31.2 31 31.5zm-14.7-45.9c3.9-3.9 9.2-5.6 14.8-5.6 5.6 0 10.8 1.7 14.7 5.7 3.9 3.7 6.1 8.9 6.1 14.3 0 11.6-9.3 21.1-20.9 21.4-5.6-.1-10.9-2.3-14.7-6.3-3.9-4-6.1-9.4-6.1-15 0-5.5 2.2-10.7 6.1-14.5zM175 352.3c6.9 0 12.6-3.7 17.6-8.5v-.1c10.1-9.8 10.3-25.8.6-35.9-9.8-10.1-25.8-10.3-35.9-.6-.2.1-.3.3-.4.4-10 10.1-10 26.4 0 36.6 4.8 4.9 11.3 8.1 18.1 8.1zm-10.9-37.8c6.1-6.1 15.9-6 22 0 6.1 6.1 6 15.9 0 22-6.1 6-15.9 6-21.9 0-6.2-6.1-6.2-15.9-.1-22-.1 0-.1 0 0 0zM126.2 300.4c14.6 0 26.4-11.8 26.4-26.4s-11.8-26.4-26.4-26.4-26.4 11.8-26.4 26.4c0 7 2.8 13.7 7.7 18.7 5 4.9 11.7 7.7 18.7 7.7zm-11.5-38c6.4-6.4 16.7-6.3 23 0 6.4 6.4 6.3 16.7 0 23-6.4 6.3-16.7 6.3-23 0-6.3-6.3-6.3-16.6 0-23zM91.6 221.1c10.3 10.3 27.1 10.4 37.4 0s10.4-27.1 0-37.4c-10.3-10.3-27.1-10.4-37.4 0-10.3 10.3-10.4 27-.1 37.3l.1.1zm7.2-30.2c6.4-6.4 16.7-6.3 23 0 6.4 6.4 6.3 16.7 0 23-6.4 6.3-16.7 6.3-23 0-6.4-6.3-6.4-16.6 0-23zM246.5 367.5c6.7 0 12.9-3.6 17.1-8.3v-.1c9.7-9.1 10.2-24.2 1.1-33.9-.3-.3-.5-.6-.8-.8-4.7-4.7-10.7-6.7-17.3-6.7-13.5-.2-24.7 10.5-24.9 24.1-.1 6.7 2.5 13.2 7.3 17.9 4.6 4.6 10.9 7.8 17.5 7.8zm-10.4-35.9c2.8-2.8 6.5-3.8 10.5-3.8 3.9 0 7.6 1 10.4 3.8 2.8 2.6 4.3 6.1 4.3 9.9-.1 3.9-1.7 7.7-4.4 10.5v.1c-3.4 2.8-6.4 5.3-10.3 5.3-4-.1-7.7-1.8-10.4-4.6-5.9-5.9-5.9-15.3-.1-21.2zM161.5 216.8c-2.8-.2-5.2 1.9-5.4 4.7-1.8 25.2 8.1 50.6 27.2 69.7 2 2 5.2 1.9 7.2-.1 1.9-2 1.9-5.1 0-7.1-17-17-25.9-39.6-24.3-61.8.2-2.8-1.9-5.2-4.7-5.4zM169.3 193.3c-2.5-1.2-5.6-.1-6.7 2.5-.7 1.6-1.4 3.2-2 4.9-1 2.6.4 5.5 3 6.5s5.5-.4 6.5-3c.5-1.4 1.1-2.8 1.7-4.2 1.2-2.5.1-5.5-2.5-6.7z"/><path class="st0" d="M407 203.2c-9.7-31.1-27.6-60.2-51.5-84.1-35.6-35.6-81.4-56.8-128.8-59.7-3.7-.2-7.4-.3-11-.3-42.9 0-82.4 15.8-111.1 44.6-65 65-58.2 177.7 15.3 251.1 23.8 23.8 52.9 41.6 83.9 51.4 18 5.7 36.8 8.6 55.7 8.7 11.7 0 23.3-1.2 34.8-3.6 12-2.6 19.7-14.4 17.1-26.4-.9-4.2-3-8.1-6-11.1-12-11.9-16.9-29.1-12.9-45.5.3-1.2.6-2.4 1-3.5l-9.7-3.1-1.2 4.2a58.61 58.61 0 0 0 15.6 55c4.7 4.7 4.7 12.4 0 17.1-1.6 1.6-3.7 2.8-6 3.3-27.4 5.7-56.9 4.1-85.4-4.9-29.5-9.3-57.1-26.2-79.8-48.9-69.5-69.5-76.3-175.7-15.3-236.8 26.8-26.8 63.8-41.6 104-41.6 3.4 0 6.9.1 10.4.3 45 2.7 88.4 22.9 122.2 56.8 22.8 22.8 39.8 50.5 49 80 9 28.6 10.5 58.2 4.6 85.7-1.4 6.5-7.9 10.7-14.4 9.3-2.3-.5-4.3-1.6-6-3.2l-.2-.2a58.754 58.754 0 0 0-57.6-15c-1.3.4-2.6.8-3.8 1.2l3.4 9.5c1-.4 2.1-.7 3.2-1 17-4.8 35.2-.1 47.7 12.4l.2.2c8.7 8.7 22.8 8.7 31.5 0 3-3 5.1-6.8 6-11 6.3-29.2 4.6-60.6-4.9-90.9z"/><path class="st0" d="M421.4 198.7c-10.5-33.4-29.6-64.6-55.3-90.3-38.2-38.2-87.4-61-138.5-64.1-51.7-3.1-99.2 14.1-133.7 48.7-70.9 70.9-64 193.1 15.3 272.4 25.6 25.6 56.7 44.6 90.1 55.1 19.5 6.2 39.8 9.3 60.3 9.4 12.7 0 25.4-1.3 37.8-3.9 20.2-4.3 33-24.1 28.8-44.2-1.5-7.1-5-13.5-10.1-18.6-7.1-7.1-10.6-16.9-9.7-26.9l-10.1-1c-1.3 13 3.3 25.8 12.6 35 10.6 10.6 10.6 27.8 0 38.4-3.7 3.7-8.4 6.3-13.6 7.4-11.8 2.4-23.7 3.7-35.8 3.7-19.4 0-38.7-3.1-57.2-8.9-31.8-10-61.6-28.2-86-52.6-75.3-75.5-82.2-191.2-15.2-258.2 32.4-32.4 77.1-48.7 125.9-45.7 48.6 3 95.5 24.7 132 61.2 24.5 24.5 42.8 54.3 52.8 86.1 9.7 31.1 11.4 63.4 4.9 93.4-3.2 14.7-17.7 24-32.3 20.8-5.1-1.1-9.7-3.6-13.4-7.3l-.2-.2c-9.9-9.8-23.9-14.4-37.7-12.3l1.6 10c10.6-1.6 21.3 1.8 28.9 9.4l.2.2c14.6 14.6 38.2 14.6 52.8 0 5.1-5.1 8.5-11.5 10.1-18.4 6.7-31.8 4.9-65.8-5.3-98.6z"/><path d="M353.8 316.1c-21.1-25.5-45.4-48.1-72.5-67.1l-19.5-13.8s-.1 0-.1-.1l-4.3-12.2c-6.3-17.5-22.8-29.2-41.3-29.4h-18.5c-2.7-.1-4.9 1.9-5.1 4.6v.2l-.1 17.5c-.1 19.1 11.9 36.1 30 42.2l11.6 4c.1.2.3.5.4.7l13.8 19.5c19 27 41.6 51.4 67.1 72.5l134.4 110.9c4.6 3.8 11.3 3.1 15.1-1.4 3.3-4 3.3-9.7 0-13.7l-111-134.4zM202.5 215.8l.1-12.5 13.3.1c14.4.2 27.1 9.3 31.9 22.8l4.4 12.6-13.9 13.9-12.7-4.4c-14-4.7-23.3-17.8-23.1-32.5zm42.5 44.5 14.3-14.3 16.1 11.3c7.6 5.3 14.9 10.9 22 16.8-6.4 9.6-14.7 17.9-24.3 24.3-5.9-7.1-11.5-14.5-16.8-22L245 260.3zm34.8 45.9c10-6.8 18.6-15.5 25.5-25.5 7.1 6.2 14 12.7 20.6 19.5-7 10.5-16 19.6-26.6 26.6-6.8-6.7-13.3-13.5-19.5-20.6zm177 151.5c-.2.2-.6.2-.8 0L321.6 346.9c-5.1-4.2-10-8.5-14.9-13 10.2-7.1 19.1-16 26.2-26.2 4.5 4.8 8.8 9.8 13 14.9L456.8 457c.2.2.2.5 0 .7z" style="fill:#1ae5be"/></svg>