<svg version="1.1" id="Layer_1" xmlns="http://www.w3.org/2000/svg" x="0" y="0" viewBox="0 0 512 512" style="enable-background:new 0 0 512 512" xml:space="preserve"><style>.st0{fill:#7703fc}</style><path class="st0" d="M180.7 281.2c-2.5 0-4.5 2-4.5 4.5V296c0 2.5 2 4.5 4.5 4.5s4.5-2 4.5-4.5v-10.3c0-2.5-2-4.5-4.5-4.5zM180.7 217.1c-2.5 0-4.5 2-4.5 4.5v49c0 2.5 2 4.5 4.5 4.5s4.5-2 4.5-4.5v-49c0-2.4-2-4.5-4.5-4.5z"/><path d="M96.3 376.2h19v14.9c0 8.6 7 15.6 15.6 15.7h24.6v-9h-24.6c-3.7 0-6.6-3-6.6-6.7V117.9c0-3.7 3-6.7 6.6-6.7h249c3.7 0 6.6 3 6.6 6.7v53.9h9v-53.9c0-8.6-7-15.6-15.6-15.7h-19V87.4c0-8.6-7-15.6-15.6-15.7h-249c-8.6 0-15.6 7-15.6 15.7v273.2c0 8.6 7 15.6 15.6 15.6zM89.7 87.4c0-3.7 3-6.7 6.6-6.7h249c3.7 0 6.6 3 6.6 6.7v14.9h-221c-8.6 0-15.6 7-15.6 15.7v249.3h-19c-3.7 0-6.6-3-6.6-6.7V87.4z" style="fill:#1ae5be"/><path class="st0" d="m428.2 199.6-67.3-61.3c-1.7-1.6-4-2.5-6.4-2.5H166.7c-8.6 0-15.6 7-15.6 15.7v21.1c0 2.5 2 4.5 4.5 4.5s4.5-2 4.5-4.5v-21.1c0-3.7 3-6.7 6.6-6.7h179.5c2.5 0 4.5 2 4.5 4.5v48.6c0 6.9 5.6 12.5 12.5 12.5h54.6c2.5 0 4.5 2 4.5 4.5v209.7c0 3.7-3 6.7-6.6 6.7h-249c-3.7 0-6.6-3-6.6-6.7V211.5c0-2.5-2-4.5-4.5-4.5s-4.5 2-4.5 4.5v213.1c0 8.6 7 15.6 15.6 15.7h249c8.6 0 15.6-7 15.6-15.7v-218c0-2.6-1.1-5.2-3.1-7zm-68.6-2.7v-37.5c0-2.5 2-4.5 4.5-4.5 1.1 0 2.2.4 3 1.2l41.1 37.5c1.8 1.7 2 4.5.3 6.4-.9.9-2.1 1.5-3.3 1.5h-41.1c-2.5-.1-4.5-2.1-4.5-4.6z"/></svg>