<svg version="1.1" id="Layer_1" xmlns="http://www.w3.org/2000/svg" x="0" y="0" viewBox="0 0 512 512" style="enable-background:new 0 0 512 512" xml:space="preserve"><style>.st0{fill:#1ae5be}</style><path class="st0" d="M365 182.2c-17.8.7-35.8 8.2-50.6 21-30 26.1-37.8 66.8-18.1 92.1L262 327V194.8c39.9-3.2 71.5-44.1 71.5-94 0-52-34.3-94.2-76.5-94.2s-76.5 42.3-76.5 94.2c0 49.9 31.6 90.9 71.5 94v136.4h10v-3l6.1 6.6 35.1-32.4c10 8.6 23.1 12.9 37 12.9 17.9 0 37.2-7 53.3-21 14.8-12.8 24.7-29.6 27.9-47.2 3.3-18-.8-34.7-11.5-47s-26.6-18.6-44.9-17.9zm-174.5-81.4c0-46.5 29.8-84.2 66.5-84.2s66.5 37.8 66.5 84.2c0 44.3-27.1 80.6-61.3 84l-.1-37.1 24.9-20.2c2.2-1.7 2.5-4.9.8-7-1.7-2.2-4.9-2.5-7-.8 0 0-.1 0-.1.1l-18.7 15-.1-29.3 25-20.4c2.2-1.7 2.5-4.9.8-7-1.7-2.2-4.9-2.5-7-.8 0 0-.1 0-.1.1L257 96.5l-23.6-19.2c-2.1-1.7-5.3-1.4-7 .7-1.7 2.1-1.4 5.3.7 7l24.7 20.1.1 29.5-18.5-15.1c-2.1-1.7-5.3-1.4-7 .7-1.7 2.1-1.4 5.3.7 7l24.9 20.2.1 37.1c-34.4-2.9-61.6-39.4-61.6-83.7zm221.1 144.6c-2.8 15.3-11.5 30-24.6 41.4-24.4 21.2-57 24.5-76.4 8.9l20.3-18.7 22.5 3.9c2.7.5 5.3-1.3 5.8-4s-1.3-5.3-4-5.8h-.1l-14.9-2.6 14.3-13.2 23.7 4.1c2.7.5 5.3-1.3 5.8-4s-1.3-5.3-4-5.8h-.1l-22.3-3.9-.7-22.6c0-2.8-2.3-5-5.1-4.9-2.8 0-5 2.3-4.9 5.1v.1l.8 24.5-15 13.8-.5-17.2c-.1-2.8-2.3-5-5.1-4.9-2.8.1-5 2.3-4.9 5.1v.1l.8 25.8-19.2 17.8c-15.8-21.2-8.5-55.4 17.3-77.7 13.1-11.4 28.9-17.9 44.5-18.6 15.2-.6 28.3 4.6 37 14.6s11.8 23.8 9 38.7z"/><path class="st0" d="M118.4 294.4c14.8 12.8 32.8 20.3 50.6 21 .9 0 1.8.1 2.8.1 14.4 0 27.2-4.5 37-12.9l36.1 33.2 6.8-7.4-35.9-33.1c9.4-12.1 12.9-27.9 9.8-44.9-3.2-17.6-13.1-34.3-27.9-47.2-30.9-26.8-73.7-28.1-95.5-3s-14.6 67.4 16.2 94.2zm-8.8-87.7c8.5-9.8 21-14.6 34.7-14.6 15.5 0 32.6 6.3 46.8 18.6 13.1 11.4 21.8 26.1 24.6 41.4 2.5 13.8-.1 26.5-7.3 36.3L189 270.7l.8-25.8c.1-2.8-2-5.1-4.8-5.2s-5.1 2-5.2 4.8v.1l-.5 17.2-15-13.8.8-24.5c0-2.8-2.1-5-4.9-5.1-2.7 0-5 2.1-5.1 4.8l-.7 22.6-22.3 3.9c-2.7.5-4.6 3-4.1 5.7s3 4.6 5.7 4.1h.1l23.7-4.1 14.3 13.2-14.9 2.6c-2.7.5-4.6 3-4.1 5.7s3 4.6 5.7 4.1h.1l22.5-3.9 20.3 18.7c-8.4 6.8-19.5 10.2-31.9 9.7-15.6-.6-31.4-7.2-44.5-18.6-26.7-23.3-33.6-59.2-15.4-80.2z"/><path d="M365.4 327.5H148.6c-2.8 0-5 2.2-5 5v98.6c0 41 33.3 74.3 74.3 74.3h78c41 0 74.3-33.3 74.3-74.3v-98.6c.2-2.8-2.1-5-4.8-5zm-5 103.6c0 35.5-28.8 64.3-64.3 64.3h-78c-35.5 0-64.3-28.8-64.3-64.3v-93.6h206.7v93.6z" style="fill:#7703fc"/></svg>