<svg xmlns="http://www.w3.org/2000/svg" viewBox="0 0 512 512" style="enable-background:new 0 0 512 512" xml:space="preserve"><path d="M477.4 217.4c-10.2 0-19.9 6.2-25.5 15.7v-62.8c0-3.3-2.7-6-6-6h-60.4c8.7-5.7 14.2-14.9 14.2-24.6 0-16.3-15.9-29.6-35.5-29.6s-35.5 13.3-35.5 29.6c0 9.6 5.6 18.9 14.2 24.6h-62.2c-3.3 0-6 2.7-6 6v70.8c0 3.3 2.7 6 6 6h9.3c2.6 0 4.8-1.6 5.7-4 2.8-7.9 9.9-13.7 16.9-13.7 9.7 0 17.6 10.5 17.6 23.5s-7.9 23.5-17.6 23.5c-7.1 0-14.2-5.8-16.9-13.7-.8-2.4-3.1-4-5.7-4h-8.9c-3.3 0-6 2.7-6 6v65h-56.8c9.5-5.6 15.7-15.3 15.7-25.5 0-16.3-15.9-29.6-35.5-29.6S163 288 163 304.3c0 10.2 6.2 19.9 15.7 25.5h-62.8c-3.3 0-6 2.7-6 6v60.4C104.3 387.6 95 382 85.3 382c-16.3 0-29.6 15.9-29.6 35.5S69 453 85.3 453c9.6 0 18.9-5.6 24.6-14.2V501c0 3.3 2.7 6 6 6h68.9c3.3 0 6-2.7 6-6 0-2.3-1.3-4.4-3.5-5.4-6.9-3.2-11.5-9.7-11.5-16.1 0-9.7 10.5-17.6 23.5-17.6s23.5 7.9 23.5 17.6c0 6.4-4.6 12.8-11.5 16.1-3 1.4-4.3 5-2.9 8 1 2.1 3.1 3.5 5.4 3.5h135.7c3.3 0 6-2.7 6-6 0-2.3-1.3-4.4-3.5-5.4-6.9-3.2-11.5-9.7-11.5-16.1 0-9.7 10.5-17.6 23.5-17.6s23.5 7.9 23.5 17.6c0 6.4-4.6 12.8-11.5 16.1-3 1.4-4.3 5-2.9 8 1 2.1 3.1 3.5 5.4 3.5h67.2c3.3 0 6-2.7 6-6v-71.7c0-3.3-2.7-6-6-6h-.7c-2.6 0-4.8 1.6-5.7 4-2.8 7.9-9.9 13.7-16.9 13.7-9.7 0-17.6-10.5-17.6-23.5s7.9-23.5 17.6-23.5c7.1 0 14.2 5.7 16.9 13.7.8 2.4 3.1 4 5.7 4h.7c3.3 0 6-2.7 6-6V273c5.6 9.5 15.3 15.7 25.5 15.7 16.3 0 29.6-15.9 29.6-35.5s-13.1-35.8-29.4-35.8zM275.1 495H230c3.1-4.6 4.8-10 4.9-15.5 0-16.3-15.9-29.6-35.5-29.6s-35.5 13.3-35.5 29.6c.1 5.5 1.8 10.9 4.9 15.5h-46.9v-65.7c0-3.3-2.7-6-6-6h-8c-2.6 0-4.8 1.6-5.7 4-1.4 3.9-3.8 7.4-7.1 10-2.8 2.3-6.3 3.6-9.9 3.7-9.7 0-17.6-10.5-17.6-23.5s8-23.5 17.7-23.5c7.1 0 14.2 5.8 16.9 13.7.8 2.4 3.1 4 5.7 4h8c3.3 0 6-2.7 6-6v-63.9h64.8c3.3 0 6-2.7 6-6v-8.9c0-2.6-1.6-4.8-4-5.7-3.9-1.4-7.4-3.8-10-7.1-2.3-2.8-3.6-6.3-3.7-9.9 0-9.7 10.5-17.6 23.5-17.6s23.5 7.9 23.5 17.6c-.1 3.6-1.4 7.1-3.7 9.9-2.6 3.3-6.1 5.7-10 7.1-2.4.8-4 3.1-4 5.7v8.9c0 3.3 2.7 6 6 6h64.8v46.5c-4.9-4-11-6.2-17.3-6.3-16.3 0-29.6 15.9-29.6 35.5s13.3 35.5 29.6 35.5c6.3-.1 12.4-2.3 17.3-6.3V495zm164.8-106.7c-4.9-4-11-6.2-17.3-6.3-16.3 0-29.6 15.9-29.6 35.5s13.3 35.5 29.6 35.5c6.3-.1 12.4-2.3 17.3-6.3V495h-45.2c3.1-4.6 4.8-10 4.9-15.5 0-16.3-15.9-29.6-35.5-29.6s-35.5 13.3-35.5 29.6c.1 5.5 1.8 10.9 4.9 15.5h-46.4v-65.7c0-3.3-2.7-6-6-6h-.7c-2.6 0-4.8 1.6-5.7 4-1.4 3.9-3.8 7.4-7.1 10-2.8 2.3-6.3 3.6-9.9 3.7-9.7 0-17.6-10.5-17.6-23.5S248 394 257.7 394c7.1 0 14.2 5.7 16.9 13.7.8 2.4 3.1 4 5.7 4h.7c3.3 0 6-2.7 6-6v-63.9h64.4c3.3 0 6-2.7 6-6v-8.9c0-2.6-1.6-4.8-4-5.7-7.9-2.8-13.7-9.9-13.7-16.9 0-9.7 10.5-17.6 23.5-17.6s23.5 7.9 23.5 17.6c0 7.1-5.8 14.2-13.7 16.9-2.4.8-4 3.1-4 5.7v8.9c0 3.3 2.7 6 6 6h64.8l.1 46.5zm37.5-111.9c-7.1 0-14.2-5.8-16.9-13.7-.8-2.4-3.1-4-5.7-4h-8.9c-3.3 0-6 2.7-6 6v65h-56.8c9.5-5.6 15.7-15.3 15.7-25.5 0-16.3-15.9-29.6-35.5-29.6s-35.5 13.3-35.5 29.6c0 10.2 6.2 19.9 15.7 25.5h-56.3v-57c5.6 9.5 15.3 15.7 25.5 15.7 16.3 0 29.6-15.9 29.6-35.5s-13.3-35.5-29.6-35.5c-10.4 0-20.4 6.5-25.9 16.4v-57.5h65.7c3.3 0 6-2.7 6-6v-8c0-2.6-1.6-4.8-4-5.7-7.9-2.8-13.7-9.9-13.7-16.9 0-9.7 10.5-17.6 23.5-17.6s23.5 7.9 23.5 17.6c0 7.1-5.8 14.2-13.7 16.9-2.4.8-4 3.1-4 5.7v8c0 3.3 2.7 6 6 6H440v64.8c0 3.3 2.7 6 6 6h8.9c2.6 0 4.8-1.6 5.7-4 2.8-7.9 9.9-13.7 16.9-13.7 9.7 0 17.6 10.5 17.6 23.5-.1 13-8 23.5-17.7 23.5z" style="fill:#7703fc"/><path d="M94.4 211.2c1.7-2.2 1.7-5.3-.1-7.5-4.8-5.9-6.2-13.7-3.5-19.4 1.9-4 5.8-6.9 10.9-8.1 6-1.3 12.3-.5 17.9 2.3 11.7 5.6 17.8 17.2 13.6 26-2.7 5.8-9.7 9.6-17.3 9.5-3.3 0-6 2.7-6 6 0 2.3 1.3 4.5 3.4 5.5l60.7 28.9c3 1.4 6.6.2 8-2.8l30.8-64.7c1.4-3 .2-6.6-2.8-8l-.6-.3c-2.3-1.1-5.1-.6-6.9 1.2-5.9 6-14.8 8.1-21.2 5.1-8.8-4.2-11.4-17.1-5.8-28.8s17.2-17.8 26-13.6c6.4 3 10.3 11.3 9.4 19.6-.3 2.5 1.1 5 3.4 6.1l.6.3c3 1.4 6.6.2 8-2.8l30.1-63.1c1.4-3 .2-6.6-2.8-8l-56.7-27c10.9-.9 20.7-7.1 25.1-16.3 3.5-7.4 3.3-15.9-.6-24-8.4-16.2-26.6-24.8-44.4-21.2-8.8 2.1-15.5 7.2-19 14.6-4.4 9.2-3 20.6 3.2 29.7l-56.7-27c-3-1.4-6.6-.2-8 2.8l-26 54.6C65.7 70.6 59.7 61.5 51 57.4c-14.7-7-33.6 1.6-42 19.3-3.9 8-5 17.1-3.2 25.8 2.1 8.8 7.2 15.5 14.6 19 8.7 4.1 19.5 3.1 28.3-2.3l-26.8 56.2c-1.4 3-.2 6.6 2.8 8L86.9 213c2.8 1.1 5.8.4 7.5-1.8zM80 179.1c-2.3 5-3.1 10.6-2.2 16.1L35.5 175l28.3-59.3c1.4-3 .2-6.6-2.8-8l-7.2-3.4c-2.3-1.1-5.1-.6-6.9 1.2-5.9 6-14.8 8.1-21.2 5.1-4-1.9-6.9-5.8-8.1-10.9-1.3-6-.5-12.3 2.3-17.9 5.6-11.7 17.2-17.8 26-13.6 6.4 3 10.3 11.3 9.4 19.6-.3 2.5 1.1 5 3.4 6.1l7.2 3.4c3 1.4 6.6.2 8-2.8l27.5-57.7 58.5 27.9c3 1.4 6.6.2 8-2.8l3.8-8c1.1-2.3.6-5.1-1.2-6.8-6-5.9-8.1-14.8-5.1-21.2 1.9-4 5.8-6.9 10.9-8.1 6-1.3 12.3-.5 17.9 2.3 5.6 2.6 10.2 6.9 13 12.4 2.3 4.7 2.5 9.6.6 13.6-3 6.4-11.3 10.3-19.6 9.4-2.5-.3-5 1.1-6.1 3.4l-3.8 8c-1.4 3-.2 6.6 2.8 8l58.5 27.9-20 41.9c-2.7-5.7-7.3-10.3-12.9-13.1-14.7-7-33.6 1.6-42 19.3s-3.3 37.8 11.5 44.8c5.7 2.6 12.2 3.3 18.3 1.8l-20.7 43.6-40.8-19.4c4.8-2.8 8.7-6.9 11.1-11.9 7-14.7-1.6-33.6-19.3-42-8-3.9-17.1-5-25.8-3.2-8.7 1.9-15.5 7.1-19 14.5z" style="fill:#1ae5be"/></svg>