<svg version="1.1" id="Layer_1" xmlns="http://www.w3.org/2000/svg" x="0" y="0" viewBox="0 0 512 512" style="enable-background:new 0 0 512 512" xml:space="preserve"><style>.st0{fill:#7703fc}.st1{fill:#1ae5be}</style><path class="st0" d="M383.3 44.7H308c-2.6 0-4.7 1.9-5.1 4.4-3.7 25.9-27.7 43.9-53.6 40.2-20.8-3-37.2-19.4-40.2-40.2-.4-2.5-2.5-4.4-5.1-4.4h-75.3c-2.8 0-5.1 2.3-5.1 5.1v412.3c0 2.8 2.3 5.1 5.1 5.1h254.5c2.8 0 5.1-2.3 5.1-5.1V49.9a5 5 0 0 0-5-5.2zM199.7 55c6.9 31.1 37.8 50.6 68.8 43.7A57.75 57.75 0 0 0 312.2 55h65.9v323l-244.3-.7V55h65.9zm-65.8 402v-69.4l244.3.7V457H133.9z"/><path class="st0" d="M156.4 410.2h10.3v22.9h-10.3v-22.9zM187.9 410.2h10.3v22.9h-10.3v-22.9zM219.4 410.2h10.3v22.9h-10.3v-22.9zM250.9 410.2h10.3v22.9h-10.3v-22.9zM282.3 410.2h10.3v22.9h-10.3v-22.9zM313.8 410.2h10.3v22.9h-10.3v-22.9zM345.3 410.2h10.3v22.9h-10.3v-22.9zM221.8 291.9h68.4v10.3h-68.4v-10.3zM190.1 316.7h131.7V327H190.1v-10.3zM221.8 341.5h68.4v10.3h-68.4v-10.3zM150.1 75.3h10.3v12.6h-10.3V75.3zM150.1 98h10.3v81.4h-10.3V98z"/><path class="st1" d="M256 126.4c-37.8 0-68.4 30.6-68.4 68.4s30.6 68.4 68.4 68.4 68.4-30.6 68.4-68.4-30.6-68.4-68.4-68.4zm0 126.6c-32.1 0-58.2-26-58.2-58.2s26-58.2 58.2-58.2 58.2 26 58.2 58.2c-.1 32.1-26.1 58.1-58.2 58.2z"/><path class="st1" d="M256 165.9c6.7 0 12.1 5.4 12.1 12.1h10.3c0-10.4-7.2-19.4-17.3-21.8v-10.8h-10.3v10.8c-12 2.8-19.5 14.9-16.7 26.9 2.4 10.1 11.4 17.2 21.8 17.2 6.7 0 12.1 5.4 12.1 12.1 0 6.2-4.7 11.4-10.9 12.1h-2.5c-6.2-.6-10.9-5.8-10.9-12.1h-10.3c0 10.4 7.2 19.4 17.2 21.8v9.8h10.3v-9.8c12-2.8 19.5-14.9 16.7-26.9-2.4-10.1-11.4-17.2-21.8-17.2-6.7 0-12.1-5.4-12.1-12.1.2-6.7 5.6-12.1 12.3-12.1z"/></svg>