<svg version="1.1" id="Layer_1" xmlns="http://www.w3.org/2000/svg" x="0" y="0" viewBox="0 0 512 512" style="enable-background:new 0 0 512 512" xml:space="preserve"><style>.st0{fill:#d4e1f4}.st1{fill:#1ae5be}.st2{fill:#7703fc}</style><path class="st0" d="M99.9 348.8h-.2.2zM126.4 344.4l-1.5.2 1.5-.2z"/><path class="st1" d="M460.8 334.6H224.2v10h61.9v90.3h-83.6v-15h-10v15h-31.9c-11 0-21.3-5.2-27.9-14.1l-8.1 5.9c8.4 11.4 21.8 18.2 35.9 18.2h300.3c2.7.1 5-2.1 5-4.8V339.9c.1-2.8-2.2-5.2-5-5.3zm-164.7 10h82.8v90.3h-82.8v-90.3zm159.7 90.3h-66.9v-90.3h66.9v90.3zM442.7 330.4h1.6c2.8 0 5-2.2 5-5s-2.2-5-5-5h-1.6c-2.8 0-5 2.2-5 5 0 2.7 2.2 5 5 5zM337.6 330.4h88.9c2.8 0 5-2.2 5-5s-2.2-5-5-5h-88.9c-2.8 0-5 2.2-5 5-.1 2.7 2.2 5 5 5z"/><path class="st2" d="M166.9 439.3c19.7 0 37.1-13 42.7-31.9l85.8-287.8c.8-2.7-.7-5.4-3.4-6.2l-96-28.6c-2.7-.8-5.4.7-6.2 3.4l-19.7 66L154.5 71c-.5-2.7-3.1-4.5-5.9-4L50.2 85.5c-2.7.5-4.5 3.1-4 5.9l55.6 295.2.4-.1c-1 20.5 12.1 39 31.8 44.9l20.1 6c4.2 1.3 8.5 1.9 12.8 1.9zm9.2-270 86.4 25.7-23.8 79.7-86.4-25.7 23.8-79.7zm-61.7 172-10.5 2-15.4-81.8 52.7-9.9-26.8 89.7zm-3.2 10.8-3.5 11.6-2-10.6 5.5-1zm38.3-93.4 86.4 25.7-23.8 79.7-86.4-25.7 23.8-79.7zM198 95.9l86.4 25.7-19 63.9-86.4-25.8 19-63.8zm-53.6 144.9-57.7 10.9-15.4-81.8 88.6-16.7 4.1 22-19.6 65.6zm1.2-163 12.3 65.5L69.4 160 57 94.5l88.6-16.7zm-31.9 301 9.2-30.8 86.4 25.7-9.2 30.8c-5.4 18.3-24.7 28.7-42.9 23.2l-20.1-6c-18.5-5.3-28.9-24.6-23.4-42.9z"/><path class="st2" d="M172.7 396.2c2.6-8.7-2.4-17.9-11.1-20.5-8.7-2.6-17.9 2.4-20.5 11.1s2.4 17.9 11.1 20.5c4.2 1.3 8.7.8 12.6-1.3 3.8-2.1 6.7-5.6 7.9-9.8zm-9.6-2.9c-1 3.4-4.6 5.4-8.1 4.3-3.4-1-5.4-4.6-4.3-8.1.8-2.7 3.3-4.6 6.2-4.6.6 0 1.3.1 1.9.3 3.4 1.1 5.3 4.7 4.3 8.1z"/></svg>