<svg version="1.1" id="Layer_1" xmlns="http://www.w3.org/2000/svg" x="0" y="0" viewBox="0 0 512 512" style="enable-background:new 0 0 512 512" xml:space="preserve"><style>.st0{fill:#1ae5be}.st1{fill:#7703fc}</style><path class="st0" d="M273.8 181h-2.4v-35.1c0-8.5-6.9-15.3-15.3-15.3-8.5 0-15.3 6.9-15.3 15.3V181h-2.4c-10.3 0-18.6 8.3-18.6 18.6s8.3 18.6 18.6 18.6h2.4v147.3c0 8.5 6.9 15.3 15.3 15.3 8.5 0 15.3-6.9 15.3-15.3V218.2h2.4c10.3 0 18.6-8.3 18.6-18.6-.1-10.3-8.4-18.6-18.6-18.6zm-23.4-35.1c0-3.1 2.5-5.6 5.6-5.6s5.6 2.5 5.6 5.6V181h-11.3l.1-35.1zm11.2 219.6c0 3.1-2.5 5.6-5.6 5.6s-5.6-2.5-5.6-5.6V218.2h11.3l-.1 147.3zm12.2-157h-35.5c-4.9 0-8.9-4-8.9-8.9s4-8.9 8.9-8.9h35.5c4.9 0 8.9 4 8.9 8.9s-4 8.9-8.9 8.9zM176.9 237.5h-2.4v-91.6c0-8.5-6.9-15.3-15.3-15.3s-15.3 6.9-15.3 15.3v91.6h-2.4c-10.3 0-18.6 8.3-18.6 18.6s8.3 18.6 18.6 18.6h2.4v90.8c0 8.5 6.9 15.3 15.3 15.3s15.3-6.9 15.3-15.3v-90.8h2.4c10.3 0 18.6-8.3 18.6-18.6s-8.3-18.6-18.6-18.6zm-23.4-91.6c0-3.1 2.5-5.6 5.6-5.6s5.6 2.5 5.6 5.6v91.6h-11.3l.1-91.6zm11.3 219.6c0 3.1-2.5 5.6-5.6 5.6s-5.6-2.5-5.6-5.6v-90.8h11.3l-.1 90.8zM176.9 265h-35.5c-4.9 0-8.9-4-8.9-8.9s4-8.9 8.9-8.9h35.5c4.9 0 8.9 4 8.9 8.9s-4 8.9-8.9 8.9zM370.6 277.9h-2.4v-132c0-8.5-6.9-15.3-15.3-15.3-8.5 0-15.3 6.9-15.3 15.3v132h-2.4c-10.3 0-18.6 8.3-18.6 18.6s8.3 18.6 18.6 18.6h2.4v50.4c0 8.5 6.9 15.3 15.3 15.3 8.5 0 15.3-6.9 15.3-15.3V315h2.4c10.3 0 18.6-8.3 18.6-18.6 0-10.2-8.3-18.5-18.6-18.5zm-23.4-132c0-3.1 2.5-5.6 5.6-5.6s5.6 2.5 5.6 5.6v132h-11.3l.1-132zm11.3 219.6c0 3.1-2.5 5.6-5.6 5.6s-5.6-2.5-5.6-5.6V315h11.3l-.1 50.5zm12.1-60.2h-35.5c-4.9 0-8.9-4-8.9-8.9s4-8.9 8.9-8.9h35.5c4.9 0 8.9 4 8.9 8.9 0 5-4 8.9-8.9 8.9z"/><path class="st1" d="M446.5 89.8c0-13.4-10.8-24.2-24.2-24.2H89.7c-13.4 0-24.2 10.8-24.2 24.2v333.3c0 13.4 10.8 24.2 24.2 24.2h332.5c13.4 0 24.2-10.8 24.2-24.2l.1-333.3zm-9.7 333.4c0 8-6.5 14.5-14.5 14.5H89.7c-8 0-14.5-6.5-14.5-14.5V89.8c0-8 6.5-14.5 14.5-14.5h332.5c8 0 14.5 6.5 14.5 14.5l.1 333.4z"/><path class="st1" d="M110.7 111.2c-2.7 0-4.8 2.2-4.8 4.8v3.7c0 2.7 2.2 4.8 4.8 4.8 2.7 0 4.8-2.2 4.8-4.8V116c.1-2.6-2.1-4.8-4.8-4.8zM110.7 131.9c-2.7 0-4.8 2.2-4.8 4.8V193c0 2.7 2.2 4.8 4.8 4.8 2.7 0 4.8-2.2 4.8-4.8v-56.3c.1-2.6-2.1-4.8-4.8-4.8z"/><path class="st1" d="M427.1 89.7c0-2.6-2.1-4.7-4.7-4.7H89.7c-2.7 0-4.8 2.2-4.8 4.8v38.7c0 2.7 2.2 4.8 4.8 4.8s4.8-2.2 4.8-4.8V94.7h322.8v323.7H94.6V162.5c0-2.7-2.2-4.8-4.8-4.8s-4.8 2.2-4.8 4.8v260.3c0 2.9 2.4 5.2 5.2 5.2h332.1c.3-.1.7-.2 1-.3 2.3-.5 3.9-2.5 3.9-4.8l-.1-333.2z"/></svg>