<svg version="1.1" id="Layer_1" xmlns="http://www.w3.org/2000/svg" x="0" y="0" viewBox="0 0 512 512" style="enable-background:new 0 0 512 512" xml:space="preserve"><style>.st0{fill:#7703fc}</style><path class="st0" d="m379.8 271.4-9.5.1.5 89.4-57.1.2c-14 .1-25.2 11.4-25.2 25.4l.2 56.9-212.6.9c-1.4 0-2.7-.5-3.7-1.5-1-.9-1.5-2.2-1.5-3.6l-.6-294.9h299.3l.3 64.4 9.4-.1-.6-111c-.1-8.1-6.6-14.6-14.7-14.6h-15.9V63.1c0-2.6-2.1-4.7-4.7-4.7s-4.7 2.1-4.7 4.7V83l-39.4.2V63.1c0-2.6-2.1-4.7-4.7-4.7s-4.7 2.1-4.7 4.7v20.1l-40.2.2V63.1c0-2.6-2.1-4.7-4.7-4.7s-4.7 2.1-4.7 4.7v20.3l-39.4.2V63.1c0-2.6-2.1-4.7-4.7-4.7s-4.7 2.1-4.7 4.7v20.5l-39.5.2V63.1c0-2.6-2.1-4.7-4.7-4.7s-4.7 2.1-4.7 4.7v20.8l-40.2.1V63.1c0-2.6-2.1-4.7-4.7-4.7S93 60.5 93 63.1v21l-17.7.1c-8.1.1-14.6 6.6-14.6 14.7l.8 340.1c0 8.1 6.6 14.6 14.7 14.6h.3l289.8-1.2c8.1-.1 14.6-6.6 14.5-14.7l-1-166.3zm-36.4-165.9a6.7 6.7 0 1 1-6.7 6.7c-.1-3.7 2.9-6.7 6.7-6.7zm-49.1 0a6.7 6.7 0 1 1-6.7 6.7c-.1-3.7 3-6.7 6.7-6.7zm-49.1 0a6.7 6.7 0 1 1-6.7 6.7c0-3.7 3-6.7 6.7-6.7zm-49.1 0a6.7 6.7 0 1 1-6.7 6.7c0-3.7 3-6.7 6.7-6.7zm-49.1 0a6.7 6.7 0 1 1-6.7 6.7c0-3.7 3-6.7 6.7-6.7zm-49.1 0a6.7 6.7 0 1 1-6.7 6.7c0-3.7 3-6.7 6.7-6.7zM70.2 99c0-2.9 2.3-5.3 5.1-5.3l17.7-.2v3.2c-6.7 2.2-11.3 8.4-11.4 15.5-.1 8.9 7.1 16.2 16.1 16.3 8.9.1 16.2-7.1 16.3-16.1v-.2c.1-7.2-4.6-13.6-11.5-15.5v-3.3l40.2-.2v3.5c-6.9 1.9-11.7 8.3-11.6 15.5 0 8.9 7.2 16.1 16.1 16.2 9 0 16.2-7.2 16.3-16.2-.1-7-4.6-13.3-11.3-15.5v-3.5l39.4-.2v3.7c-6.3 2-11.5 8.2-11.5 15.5.2 8.9 7.5 16.1 16.5 15.9 8.7-.1 15.8-7.2 15.9-15.9-.1-7.1-4.7-13.3-11.4-15.5V93l39.4-.2v3.9c-6.7 2.2-11.3 8.4-11.3 15.5 0 8.9 7.2 16.2 16.2 16.2 8.9 0 16.2-7.2 16.2-16.2.1-7.2-4.6-13.6-11.5-15.5v-3.9l40.2-.2v4.1c-6.9 1.9-11.7 8.3-11.6 15.5 0 8.9 7.3 16.2 16.2 16.2 8.9 0 16.2-7.3 16.2-16.2-.1-7-4.7-13.3-11.3-15.5v-4.1l39.4-.2v4.3c-6.3 2-11.5 8.2-11.5 15.5 0 8.9 7.2 16.2 16.2 16.2 8.9 0 16.2-7.2 16.2-16.2-.1-7.1-4.7-13.3-11.5-15.5v-4.4l16.1-.1c2.9.1 5.2 2.4 5.2 5.3l.2 37.1H70.3L70.2 99zm227.9 287.4c0-8.7 7-15.8 15.8-15.9l50.2-.2-65.8 66.3-.2-50.2zm68 56.6-61.1.2 65.9-66.5.3 61c.1 3-2.3 5.3-5.1 5.3z"/><path class="st0" d="M192.7 368.9c1.3 0 2.5-.5 3.3-1.4 8.4-8.4 9.1-16.2 9.8-23.1.6-6.3 1.1-11.3 7.1-17.3s11-6.5 17.3-7.1c6.9-.7 14.7-1.5 23.1-9.8 8.4-8.4 9.1-16.2 9.8-23.1.6-6.3 1.1-11.3 7.1-17.3s11-6.5 17.3-7.1c.9-.1 1.8-.2 2.6-.3 2.6-.3 4.5-2.6 4.2-5.2s-2.6-4.5-5.2-4.2h-.1c-.8.1-1.7.2-2.5.3-6.9.7-14.7 1.5-23.1 9.8-8.4 8.4-9.1 16.2-9.8 23.1-.6 6.3-1.1 11.3-7.1 17.3s-11 6.5-17.3 7.1c-6.9.7-14.7 1.5-23.1 9.8-8.4 8.4-9.1 16.2-9.8 23.1-.6 6.3-1.1 11.3-7.1 17.3-1.8 1.8-1.8 4.8 0 6.7 1 .9 2.2 1.4 3.5 1.4zM302.8 235.7l-5.9 5.9c-1.9 1.8-1.9 4.8-.1 6.7s4.8 1.9 6.7.1l.1-.1 5.9-5.9c1.9-1.8 1.9-4.8.1-6.7-1.9-1.9-4.9-1.9-6.8 0 0-.1 0-.1 0 0zM321.2 217.2l-5.9 5.9c-1.9 1.8-1.9 4.8-.1 6.7s4.8 1.9 6.7.1l.1-.1 5.9-5.9c1.8-1.9 1.8-4.9-.1-6.7-1.8-1.8-4.7-1.8-6.6 0zM111 380.9c-.6 6.3-1.1 11.3-7.1 17.3-1.9 1.8-1.9 4.8-.1 6.7 1.8 1.9 4.8 1.9 6.7.1l.1-.1c8.4-8.4 9.1-16.2 9.8-23.1.6-6.3 1.1-11.3 7.1-17.3s11-6.5 17.3-7.1c6.9-.7 14.7-1.5 23.1-9.8 8.4-8.4 9.1-16.2 9.8-23.1.6-6.3 1.1-11.3 7.1-17.3s11-6.5 17.3-7.1c.9-.1 1.8-.2 2.6-.3 2.6-.3 4.4-2.6 4.1-5.2-.3-2.6-2.6-4.4-5.2-4.1-.8.1-1.7.2-2.5.3-6.9.7-14.7 1.5-23.1 9.8-8.4 8.4-9.1 16.2-9.8 23.1-.6 6.3-1.1 11.3-7.1 17.3s-11 6.5-17.3 7.1c-6.9.7-14.7 1.5-23.1 9.8-8.3 8.3-9 16.1-9.7 23zM217.4 273.1l-5.9 5.9c-1.8 1.8-1.8 4.8 0 6.7 1.8 1.8 4.8 1.8 6.7 0l5.9-5.9c1.8-1.8 1.8-4.8 0-6.7-1.9-1.9-4.9-1.9-6.7 0zM235.8 254.6l-5.9 5.9c-1.8 1.9-1.8 4.9.1 6.7 1.8 1.8 4.8 1.8 6.6 0l5.9-5.9c1.9-1.8 1.9-4.8.1-6.7-1.9-1.9-4.9-1.9-6.8 0 .1 0 0 0 0 0zM238 202.1c-.8.1-1.7.2-2.5.3-6.9.7-14.7 1.5-23.1 9.8-8.4 8.4-9.1 16.2-9.8 23.1-.6 6.3-1.1 11.3-7.1 17.3s-11 6.5-17.3 7.1c-6.9.7-14.7 1.5-23.1 9.8s-9.1 16.2-9.8 23.1c-.6 6.3-1.1 11.3-7.1 17.3-1.8 1.8-1.8 4.8 0 6.7 1.8 1.8 4.8 1.8 6.7 0 8.4-8.4 9.1-16.2 9.8-23.1.6-6.3 1.1-11.3 7.1-17.3s11-6.5 17.3-7.1c6.9-.7 14.7-1.5 23.1-9.8 8.4-8.4 9.1-16.2 9.8-23.1.6-6.3 1.1-11.3 7.1-17.3s11-6.5 17.3-7.1c.9-.1 1.8-.2 2.6-.3 2.6-.3 4.4-2.6 4.1-5.2-.2-2.6-2.5-4.5-5.1-4.2zM252.5 197.1l5.9-5.9c1.8-1.9 1.8-4.9-.1-6.7-1.8-1.8-4.8-1.8-6.6 0l-5.9 5.9c-1.8 1.9-1.8 4.9.1 6.7 1.9 1.9 4.8 1.9 6.6 0zM267.7 180.1c1.3 0 2.5-.5 3.3-1.4l5.9-5.9c1.8-1.8 1.8-4.8 0-6.7-1.8-1.8-4.8-1.8-6.7 0l-5.9 5.9c-1.8 1.8-1.8 4.8 0 6.7.9.9 2.1 1.4 3.4 1.4zM96.1 156.4c0-2.6-2.1-4.7-4.7-4.7s-4.7 2.1-4.7 4.7v3.4c0 2.6 2.1 4.7 4.7 4.7s4.7-2.1 4.7-4.7v-3.4zM91.4 171.6c-2.6 0-4.7 2.1-4.7 4.7v91.3c0 2.6 2.1 4.7 4.7 4.7s4.7-2.1 4.7-4.7v-91.3c0-2.6-2.1-4.7-4.7-4.7z"/><path d="m404.9 171.8-97.5 97.1c-.5.5-.9 1.2-1.1 1.8l-15.9 47.5c-.8 2.5.5 5.2 3 6 1 .3 2 .3 3 0l47.6-15.8c.7-.2 1.3-.6 1.9-1.1l97.5-97.1c10.5-10.7 10.4-27.8-.2-38.4-10.8-10.3-27.8-10.3-38.3 0zm-12.4 25.7 9.2 9.2-75.2 74.8-9.2-9.2 75.2-74.8zM312.7 281l20.9 20.9-31.4 10.4 10.5-31.3zm29.6 16.4-9.2-9.2 75.2-74.8 9.1 9.2-75.1 74.8zm94.2-93.8-12.4 12.3-25-25.1 12.3-12.3c6.9-6.9 18.1-6.9 25 0s7 18.2.1 25.1z" style="fill:#1ae5be"/></svg>