<svg version="1.1" id="Layer_1" xmlns="http://www.w3.org/2000/svg" x="0" y="0" viewBox="0 0 512 512" style="enable-background:new 0 0 512 512" xml:space="preserve"><style>.st0{fill:#7703fc}</style><path class="st0" d="M320.4 288.5H192.2c-65.3 0-118.4 51.9-118.4 115.7V501c0 3.3 2.7 6 6 6h352.4c3.3 0 6-2.7 6-6v-96.7c0-63.7-52.8-115.5-117.8-115.8zm-48.4 12-8.9 38.6H249l-8.9-38.6H272zm-19.3 50.6h6.7l19.9 84-23.5 24.9-22.9-24.9 19.8-84zM426.2 495H85.8v-90.7c0-57.2 47.7-103.7 106.4-103.7h35.6l9.8 42.5v.1c.5 2.1 1.7 4 3.4 5.4l-20.6 87c-.5 1.9.1 4 1.4 5.4l29.4 32c1.1 1.2 2.7 1.9 4.4 1.9 1.7 0 3.2-.7 4.4-1.9l30.2-32c1.4-1.5 1.9-3.5 1.5-5.5l-20.6-87c1.7-1.4 2.8-3.3 3.4-5.4v-.1l9.8-42.5h35.6c58.6 0 106.4 46.5 106.4 103.7l-.1 90.8z"/><path class="st0" d="M380 375h-45.2c-3.3 0-6 2.7-6 6s2.7 6 6 6H380c3.3 0 6-2.7 6-6s-2.7-6-6-6z"/><path d="M368.4 104.6h-12.8c-2.5-11.4-6.9-22.2-13-32.2l9.1-9.3c3-3.1 3-8.1 0-11.3l-21.1-21.6c-1.5-1.5-3.6-2.4-5.7-2.4s-4.2.9-5.7 2.4l-8.9 9.1c-9.6-6.2-20.2-10.7-31.3-13.3V13c0-4.4-3.6-8-8-8h-29.9c-4.4 0-8 3.6-8 8v13.1c-11.1 2.6-21.7 7.1-31.3 13.3l-8.9-9.1c-3.1-3.1-8.1-3.2-11.3-.1l-.1.1-21.1 21.6c-3 3.1-3 8.1 0 11.3l9.1 9.3a103.8 103.8 0 0 0-13 32.2h-12.8c-4.4 0-8 3.6-8 8v30.6c0 4.4 3.6 8 8 8h12.8c2.5 11.3 7 22.2 13.1 32l-9.2 9.5c-3 3.1-3 8.1 0 11.3l21.1 21.6c3.1 3.1 8.1 3.2 11.3.1l.1-.1 9.1-9.3c3.6 2.3 7.3 4.3 11.1 6.1-.1 1.1-.2 2.1-.3 3.2l-.8 6.2c-.4 2 .1 4 1.2 5.6.7 1 1.7 1.9 2.9 2.4v13.6c0 11.9 9.7 21.5 21.5 21.5h36.9c11.9 0 21.5-9.6 21.6-21.5v-13.9c2.5-1.4 4.1-4.2 4-7.1v-.2l-.5-10.1c3.7-1.8 7.2-3.7 10.6-5.9l9.1 9.3c3.1 3.1 8.1 3.2 11.3.1l.1-.1 21.1-21.6c3-3.1 3-8.1 0-11.3l-9.2-9.4c6.1-9.9 10.5-20.7 13.1-32h12.8c4.4 0 8-3.6 8-8v-30.6c-.1-4.5-3.6-8.1-8.1-8.1zm-81 113.4v.6c0 1.2 0 2.4.1 3.6l.3 6.4H262v-42.3c10.1-3.3 15.6-14.2 12.3-24.3-3.3-10.1-14.2-15.6-24.3-12.3-10.1 3.3-15.6 14.2-12.3 24.3 1.9 5.8 6.5 10.4 12.3 12.3v42.3h-25.6l.2-1.4c.4-2.7.5-5.4.5-8v-.8c-.2-15.1-6.5-29.5-17.4-40-14.9-14-23-33.9-22.2-54.3 1.3-35.6 30.3-65.2 66-67.6 38.9-2.4 72.4 27.2 74.8 66.2 1.2 19.5-5.7 38.7-19.2 52.9-.9 1-1.9 2-2.9 2.9a54.916 54.916 0 0 0-16.8 39.5zM256 175.3c-4 0-7.3-3.3-7.3-7.3s3.3-7.3 7.3-7.3 7.3 3.3 7.3 7.3-3.3 7.3-7.3 7.3zm18.4 87.7h-36.9c-5.3 0-9.5-4.3-9.5-9.5v-12.8h56v12.8c0 5.2-4.3 9.5-9.6 9.5zm90-123.7h-12.1c-3.8 0-7.1 2.7-7.8 6.5-2.3 12-7 23.4-13.7 33.6-2.1 3.2-1.7 7.4 1 10.1l8.7 8.9-15.6 15.9-8.6-8.8c-2.7-2.8-7-3.2-10.2-1-1.8 1.2-3.6 2.4-5.5 3.5 1.9-8 6-15.2 11.9-20.8 1.2-1.1 2.3-2.2 3.4-3.4 31.4-33.2 29.9-85.5-3.3-116.8-16.6-15.7-39-23.8-61.8-22.4-41.8 2.7-75.7 37.5-77.3 79.1-1 23.9 8.5 47.1 25.9 63.5 6 5.7 10.2 13 12.2 21.1-2-1.2-4-2.4-5.9-3.7-3.2-2.2-7.5-1.8-10.2 1l-8.6 8.8-15.6-15.9 8.7-8.9c2.6-2.7 3-6.9 1-10.1-6.7-10.2-11.4-21.6-13.7-33.6-.7-3.8-4-6.5-7.8-6.5h-12.1v-22.6h12c3.8 0 7.1-2.8 7.8-6.5 2.3-12 6.9-23.5 13.6-33.7 2.1-3.2 1.7-7.3-1-10.1l-8.6-8.8 15.6-15.9 8.4 8.6c2.7 2.8 7 3.2 10.2 1 9.9-6.9 21.1-11.6 32.9-14 3.7-.8 6.4-4.1 6.4-7.9V17h21.9v12.3c0 3.8 2.7 7.1 6.4 7.9 11.8 2.4 23 7.1 32.9 14 3.2 2.2 7.5 1.8 10.2-1l8.4-8.6 15.6 15.9-8.6 8.8c-2.6 2.7-3 6.9-1 10.1 6.7 10.2 11.4 21.7 13.6 33.7.7 3.8 4 6.5 7.8 6.5h12l.5 22.7z" style="fill:#1ae5be"/></svg>