<svg version="1.1" id="Layer_1" xmlns="http://www.w3.org/2000/svg" x="0" y="0" viewBox="0 0 512 512" style="enable-background:new 0 0 512 512" xml:space="preserve"><style>.st0{fill:#7703fc}</style><path class="st0" d="M450.5 42.6H155.9c-16.6 0-30 13.4-30 30V144h12.8V72.6c0-9.5 7.7-17.2 17.2-17.2h294.6c9.5 0 17.2 7.7 17.2 17.2v164H220.9c-3.5 0-6.4 2.9-6.4 6.4s2.9 6.4 6.4 6.4h246.9v15.2c0 9.5-7.7 17.2-17.2 17.2H219.1v12.8h32.6v54.9H236c-3.5 0-6.4 2.9-6.4 6.4s2.9 6.4 6.4 6.4h144c3.5 0 6.4-2.9 6.4-6.4s-2.9-6.4-6.4-6.4h-25.3v-54.9h95.7c16.6 0 30-13.4 30-30v-192c.1-16.5-13.3-30-29.9-30zM342 349.4h-77.6v-54.9H342v54.9z"/><path class="st0" d="M364.2 147.8c0-33.7-27.3-61-61-61s-61 27.3-61 61 27.3 61 61 61c33.7-.1 61-27.4 61-61zm-109.3 0c0-26.7 21.6-48.3 48.3-48.3s48.3 21.6 48.3 48.3-21.6 48.2-48.3 48.2c-26.6 0-48.2-21.6-48.3-48.2z"/><path class="st0" d="M335.2 147.8c0-2-.9-3.9-2.6-5.1L298.5 117c-2.8-2.1-6.8-1.5-8.9 1.3-.8 1.1-1.3 2.4-1.3 3.8v51.2c0 3.5 2.9 6.4 6.4 6.4 1.4 0 2.7-.4 3.8-1.3l34.2-25.6c1.6-1.2 2.5-3 2.5-5zm-34.1 12.8v-25.7l17.1 12.9-17.1 12.8z"/><path d="M268.6 463v-36.5c0-3.2-.3-6.5-1-9.6-.1-.6-.3-1.1-.4-1.7-4-14.4-15.1-25.7-29.3-30.2l-49.1-15.9v-21c17.8-10.9 30.1-28.7 34.1-49.2l2.7-9.3c11.9-4.3 18.6-16.8 15.6-29.1-1.5-6.3-6-11.5-12-13.9v-32c0-43.7-35.4-79-79-79s-79 35.4-79 79v32c-6 2.4-10.5 7.6-12 13.9-3 12.3 3.7 24.8 15.6 29.1l2.7 9.3c3.9 20.4 16.3 38.3 34.1 49.2v21L62.3 385C48 389.5 37 400.9 33 415.2c-.2.6-.3 1.1-.4 1.7-.7 3.2-1.1 6.4-1 9.6V463c0 3.5 2.9 6.4 6.4 6.4h224.4c3.4 0 6.2-2.9 6.2-6.4zM155.9 217.7c6.8 7 25.6 23.2 58 27.6-15.6-.8-49.9-4.7-78.5-23.6 7.2-1.1 14.1-2.4 20.5-4zm-72.1-3.1c0-36.6 29.7-66.3 66.3-66.3s66.3 29.7 66.3 66.3v18.1c-13.7-1.6-26.9-6.3-38.6-13.7-2.6-1.7-5.2-3.6-7.6-5.6 12.4-4.3 23-9.8 31.8-16.5 2.8-2.2 3.3-6.2 1.1-8.9-2.1-2.7-6.1-3.3-8.9-1.2-35.8 27.4-99.9 24.6-100.6 24.5-3.5-.2-6.5 2.5-6.7 6l-1.2 26.4c0 1.2-.7 2.3-1.8 2.8 0 0-.1.1-.2.1l.1-32zm6 81.7c0-.2-.1-.4-.1-.6L86 283.2c-.5-2.6-2.5-4.7-5.2-5.1-6.5-1.2-10.8-7.3-9.6-13.8 0-.2.1-.5.2-.7.5-2.4 2.3-4.3 4.6-5.2 8.2 3.5 17.7-.2 21.2-8.4.8-1.8 1.2-3.7 1.3-5.7l.9-20.2c4.2 0 10.2-.1 17.5-.6 43 36.5 103.6 34.6 106.2 34.5h.2c2.8.6 5 2.7 5.6 5.5 1.6 6.4-2.3 12.8-8.7 14.4-.2.1-.5.1-.7.2-2.6.5-4.7 2.5-5.2 5.1l-3.6 12.4c-.1.2-.1.4-.1.6-6.3 33.3-38.3 55.2-71.6 49-25.1-4.6-44.5-24.1-49.2-48.9zm60.3 62.7c8.9 0 17.6-1.6 25.9-4.7v15.5a61.92 61.92 0 0 1-51.9 0v-15.5c8.3 3.2 17.1 4.7 26 4.7zm105.8 97.6H44.3v-30.1c0-2.3.2-4.5.7-6.7l.3-1.2c2.9-10.2 10.8-18.3 20.9-21.4l50.9-16.5c20.8 10.2 45.1 10.2 65.9 0l50.9 16.5c10.2 3.2 18 11.2 20.9 21.4l.3 1.2c.5 2.2.7 4.5.7 6.7l.1 30.1z" style="fill:#1ae5be"/></svg>