<svg version="1.1" id="Layer_1" xmlns="http://www.w3.org/2000/svg" x="0" y="0" viewBox="0 0 512 512" style="enable-background:new 0 0 512 512" xml:space="preserve"><style>.st1{fill:#1ae5be}</style><path d="M451.3 127v258c0 23.9-19.4 43.3-43.3 43.3H104c-23.9 0-43.3-19.4-43.3-43.3V127c0-23.9 19.4-43.3 43.3-43.3h304c23.9.1 43.2 19.4 43.3 43.3zm-12.9 258V187H73.6v198c0 16.8 13.6 30.4 30.4 30.4h304c16.8 0 30.3-13.6 30.4-30.4zm0-210.9V127c0-16.8-13.6-30.4-30.4-30.4H104c-16.8 0-30.4 13.6-30.4 30.4v47.1h364.8z" style="fill:#7703fc"/><path class="st1" d="M241.1 331.9c1.7 0 3.3-.7 4.5-1.8l66.9-65.3c2.5-2.5 2.6-6.6.1-9.1a6.37 6.37 0 0 0-9.1-.1l-62.4 60.9-32.6-31.9c-1.6-1.7-4-2.4-6.3-1.7-2.3.6-4 2.4-4.6 4.7-.6 2.3.2 4.7 1.9 6.3l37.1 36.3c1.2 1.1 2.8 1.7 4.5 1.7zM233.6 115.5c-11.3 0-20.4 9.1-20.4 20.4s9.1 20.4 20.4 20.4h.1c11.3 0 20.4-9.1 20.4-20.4-.1-11.2-9.2-20.4-20.5-20.4zm7.5 20.4c0 4.1-3.4 7.5-7.5 7.5s-7.5-3.4-7.5-7.5 3.4-7.5 7.5-7.5c4.2 0 7.5 3.4 7.5 7.5zM191.3 135.8c0-11.3-9.1-20.4-20.3-20.5-11.3 0-20.4 9.1-20.5 20.3 0 11.3 9.1 20.4 20.3 20.5h.1c11.2 0 20.4-9.1 20.4-20.3zm-20.4 7.4c-3.1 0-5.8-1.8-6.9-4.7-1.2-2.8-.5-6 1.7-8.2 1.4-1.4 3.3-2.2 5.3-2.2 4.1 0 7.5 3.4 7.5 7.5-.1 4.3-3.5 7.6-7.6 7.6zM108.1 155.9c11.3 0 20.4-9.1 20.3-20.3 0-11.2-9.1-20.3-20.3-20.3s-20.3 9.1-20.3 20.3c.1 11.2 9.1 20.3 20.3 20.3zm-5.2-25.7c1.4-1.4 3.3-2.2 5.3-2.2 4.2 0 7.5 3.4 7.5 7.5s-3.4 7.5-7.5 7.5c-3 0-5.8-1.9-6.9-4.7-1.2-2.7-.5-6 1.6-8.1z"/></svg>