<svg version="1.1" id="Layer_1" xmlns="http://www.w3.org/2000/svg" x="0" y="0" viewBox="0 0 512 512" style="enable-background:new 0 0 512 512" xml:space="preserve"><style>.st0{fill:#1ae5be}.st1{fill:#7703fc}</style><path class="st0" d="M256 439.4c11.7 0 21.3-9.5 21.3-21.3s-9.5-21.3-21.3-21.3c-11.7 0-21.3 9.5-21.3 21.3.1 11.8 9.6 21.3 21.3 21.3zm0-31.8c5.9 0 10.6 4.8 10.6 10.6s-4.8 10.6-10.6 10.6-10.6-4.8-10.6-10.6c0-5.9 4.7-10.6 10.6-10.6zM256 299.1c-11.7 0-21.3 9.5-21.3 21.3 0 11.7 9.5 21.3 21.3 21.3s21.3-9.5 21.3-21.3c-.1-11.8-9.6-21.3-21.3-21.3zm0 31.9c-5.9 0-10.6-4.8-10.6-10.6 0-5.9 4.8-10.6 10.6-10.6s10.6 4.8 10.6 10.6S261.9 331 256 331z"/><path class="st1" d="M214.6 173.8c0-20.5 16.7-37.2 37.2-37.2h8.5c18.9 0 34.8 14.2 37 33h-48c-2.9 0-5.3 2.4-5.3 5.3v76.4c0 2.9 2.4 5.3 5.3 5.3h48.3v17.8h10.6V173.8c0-20-12.5-38-31.3-44.9V50.3c0-2.9-2.4-5.3-5.3-5.3h-30.9c-2.9 0-5.3 2.4-5.3 5.3v78.6c-18.8 6.9-31.3 24.9-31.3 44.9v100.6h10.6l-.1-100.6zm39.9 72.2v-65.8h42.9V246h-42.9zm11.6-190.3v14.9h-20.2v-15l20.2.1zm-20.2 25.5h20.2v45.2c-2-.2-3.9-.4-5.9-.4h-8.5c-2 0-3.9.1-5.9.4l.1-45.2zM388.4 128.9V50.3c0-2.9-2.4-5.3-5.3-5.3h-30.9c-2.9 0-5.3 2.4-5.3 5.3v78.6c-18.8 6.9-31.3 24.9-31.3 44.9v100.6h10.6V173.8c0-20.5 16.7-37.2 37.2-37.2h8.5c18.9 0 34.8 14.2 37 33h-48c-2.9 0-5.3 2.4-5.3 5.3v76.4c0 2.9 2.4 5.3 5.3 5.3h48.3v17.8h10.6V173.8c-.1-20-12.6-37.9-31.4-44.9zm-10.7-73.3v14.9h-20.2V55.6h20.2zM363.4 126c-2 0-3.9.1-5.9.4V81.2h20.2v45.2c-2-.2-3.9-.4-5.9-.4h-8.4zm2.7 120v-65.8H409V246h-42.9zM185.8 274.5h10.6V173.8c0-20-12.5-38-31.3-44.9V50.3c0-2.9-2.4-5.3-5.3-5.3h-30.9c-2.9 0-5.3 2.4-5.3 5.3v78.6c-18.8 6.9-31.3 24.9-31.3 44.9v100.6h10.6V173.8c0-20.5 16.7-37.2 37.2-37.2h8.5c18.9 0 34.8 14.2 37 33h-48c-2.9 0-5.3 2.4-5.3 5.3v76.4c0 2.9 2.4 5.3 5.3 5.3h48.3v17.9h-.1zM154.5 55.6v14.9h-20.2V55.6h20.2zM140.1 126c-2 0-3.9.1-5.9.4V81.2h20.2v45.2c-2-.2-3.9-.4-5.9-.4h-8.4zm2.8 120v-65.8h42.9V246h-42.9z"/><path class="st0" d="M43.5 467h425c2.9 0 5.3-2.4 5.3-5.3V273.8c0-2.9-2.4-5.3-5.3-5.3h-425c-2.9 0-5.3 2.4-5.3 5.3V461.7c0 2.9 2.4 5.3 5.3 5.3zm419.7-10.6H48.8v-83.8h414.4v83.8zM48.8 279h414.4v82.6H48.8V279z"/></svg>