<svg version="1.1" id="Layer_1" xmlns="http://www.w3.org/2000/svg" x="0" y="0" viewBox="0 0 512 512" style="enable-background:new 0 0 512 512" xml:space="preserve"><style>.st1{fill:#1ae5be}</style><path d="M238.2 477.1c108.1 0 195.7-87.7 195.6-195.8 0-29.1-6.5-57.9-19.1-84.2l-9.7 4.7c11.9 24.9 18.1 52.1 18 79.7v1.8l-8 .8c-.4 0-.8.1-1.2.1l-3.6.2c-8.8.4-16.6 5.7-20.1 13.8l-.9 2.1c-3.5 8-11.5 13.2-20.3 13.2h-15.5c-4.8 0-8.9-3.7-9.4-8.5l-.6-6.2c-.7-7-4.5-13.3-10.4-17-3.2-2-5.1-5.6-5.1-9.3v-6.2c0-4.1 1.8-8 4.9-10.8l26.4-23.3c7-6.2 9.7-15.8 7-24.7-2.8-9.2-10.7-15.9-20.3-17.1l-2.7-.3c-3.7-.5-7.2-2.3-9.6-5.1-2.7-3.1-3.1-7.5-1.1-11.1l16.2-27.8-9.3-5.4-16.3 27.8c-4.3 7.6-3.4 17 2.4 23.6 4.2 4.8 10.1 7.9 16.4 8.7l2.7.3c5.3.7 9.7 4.4 11.3 9.5 1.5 4.9 0 10.1-3.8 13.5l-26.4 23.3c-5.4 4.8-8.5 11.6-8.5 18.8v6.2c0 7.4 3.8 14.4 10 18.4 3.1 2 5.2 5.3 5.5 9.1l.6 6.2c1 10.3 9.7 18.2 20.1 18.2h15.5c13.1 0 24.9-7.7 30.1-19.7l.9-2.1c1.9-4.3 6.1-7.2 10.8-7.4l3.6-.2c.6 0 1.2-.1 1.8-.1l6.5-.6c-6.6 96-86.8 172.1-184.4 172.1-101.9 0-184.9-82.9-184.9-184.9 0-13.1 1.4-26.1 4.1-38.9l10.1-2c9.1-1.8 18.4 2.4 23.1 10.5 2.1 3.7 4.8 7 7.9 10l14.7 13.8c3.9 3.7 8.7 6.3 13.8 7.8l1.7.5c6.4 1.8 11.5 6.8 13.3 13.2l7.9 28.4c1.3 4.7 3.5 9.2 6.5 13.1l23.9 31.3c1.9 2.5 3.2 5.4 3.7 8.6l6.5 39.1c1.5 8.9 9.8 14.9 18.7 13.4 1.3-.2 2.5-.6 3.7-1.1 7.3-3.1 12.4-9.9 13.2-17.8.6-5.9 2.9-11.4 6.7-15.9l6.9-8.3c2.1-2.6 3.7-5.5 4.7-8.7l7.1-23c1.4-4.7 4.3-8.8 8.2-11.7l21.3-16.4c7.9-6.1 9.4-17.4 3.3-25.2-.2-.2-.4-.5-.6-.7l-14.1-16.5c-.6-.8-1.3-1.6-1.9-2.4l-11.1-15.4c-7.6-10.6-19.7-17.1-32.7-17.6l-20.7-12.4c-9.7-5.8-21.7-6.1-31.6-.8l-11.6 6.2c-5.5 2.9-12.4 1.1-15.8-4.1L133 220.6c-2.9-4.6-2.8-10.5.2-15 3.6-5.3 9.8-8.1 16.1-7.3l17 2.2c10.3 1.3 20.4-3.6 25.6-12.6 3.2-5.5 9.4-8.5 15.7-7.7l7.4.9c9.1 1.1 18.1-2.6 23.6-9.8l6.5-8.4c8.8-11.3 9.2-27 1-38.7l-18.7-26.9c3.5-.2 7-.3 10.5-.3 32.4 0 64.3 8.5 92.4 24.7l5.4-9.3c-93.6-54-213.2-21.9-267.2 71.7s-21.9 213.2 71.7 267.2c29.9 16.8 63.7 25.8 98 25.8zM215.3 98l22.2 32c5.5 7.9 5.2 18.4-.7 26l-6.5 8.4c-3.2 4.2-8.5 6.4-13.7 5.7l-7.4-.9c-10.6-1.4-21 3.7-26.4 12.9-3.1 5.2-9 8.1-15 7.4l-17-2.2c-10.4-1.3-20.6 3.3-26.4 11.9-5.5 8.1-5.6 18.6-.4 26.8l11.2 17.8c6.4 10 19.5 13.5 30 7.9l11.6-6.2c6.6-3.5 14.6-3.3 21 .5l22 13.2c.8.5 1.8.8 2.8.8 10.1 0 19.6 4.9 25.5 13.1l11.1 15.4c.8 1.1 1.6 2.1 2.4 3.1l14.1 16.5c2.6 3 2.2 7.6-.8 10.2-.1.1-.2.2-.3.2l-21.3 16.4c-5.7 4.3-9.8 10.3-11.9 17.1l-7.1 23c-.6 1.8-1.5 3.5-2.7 5l-6.9 8.3c-5.1 6.2-8.3 13.7-9.1 21.7-.4 4-3 7.4-6.7 9-2.8 1.2-6-.1-7.2-3-.2-.4-.3-.8-.4-1.2l-6.5-39.1c-.8-4.8-2.8-9.4-5.8-13.3l-24-31.2c-2.1-2.8-3.7-6-4.7-9.4l-7.9-28.4c-2.8-10.1-10.7-18-20.9-20.8l-1.7-.5c-3.5-1-6.7-2.7-9.3-5.2l-14.7-13.8c-2.3-2.2-4.4-4.7-6-7.5-7-12-20.9-18.3-34.5-15.6l-5.1 1c20.1-70.4 80.9-123.8 155.1-133z" style="fill:#7703fc"/><path class="st1" d="M447.9 55.6c-27.3-27.5-71.8-27.6-99.3-.2l-.2.2c-12.7 12.8-20.3 29.8-21.5 47.7-1.1 16.8 4.2 34.1 15 48.9l51.9 69.4c1.8 2.4 5.2 2.9 7.5 1.1.4-.3.8-.7 1.1-1.1l51.9-69.4c10.8-14.4 16.2-31.8 15-48.9-1.1-17.9-8.7-34.9-21.4-47.7zm-2.2 90.2-47.6 63.6-47.6-63.6c-9.3-12.7-13.9-27.6-12.9-41.8 1-15.4 7.5-29.9 18.4-40.8 23.1-23.3 60.8-23.3 84-.2l.2.2c10.9 11 17.4 25.5 18.4 40.9 1 14.5-3.6 29.3-12.9 41.7z"/><path class="st1" d="M397.3 74.7c-18.2 0-33 14.8-33 33s14.8 33 33 33 33-14.8 33-33-14.8-33-33-33zm15.6 48.7c-8.7 8.6-22.8 8.6-31.4-.2s-8.6-22.8.2-31.4c8.7-8.6 22.8-8.6 31.4.2 4.1 4.2 6.4 9.8 6.4 15.7 0 5.9-2.4 11.6-6.6 15.7z"/></svg>