<svg data-name="Layer 1" xmlns="http://www.w3.org/2000/svg" xmlns:xlink="http://www.w3.org/1999/xlink" viewBox="0 0 110 110"><defs><radialGradient id="a" cx="52.37" cy="14.34" r="26.72" gradientUnits="userSpaceOnUse"><stop offset=".11" stop-color="#e5007e"/><stop offset="1" stop-color="#fcce00"/></radialGradient><radialGradient id="b" cx="122.49" cy="78.07" r="114.99" xlink:href="#a"/><radialGradient id="c" cx="68.89" cy="9" r="51.06" xlink:href="#a"/><radialGradient id="d" cx="122.49" cy="78.07" r="114.99" xlink:href="#a"/><radialGradient id="e" cx="81.63" cy="94.47" r="114.27" xlink:href="#a"/></defs><path style="fill:url(#a)" d="M43.98 18.24v9.17h3.59V14.64l-3.59 3.6z"/><path style="fill:url(#b)" d="M66.02 18.24v9.17h-3.59V14.64l3.59 3.6z"/><path style="fill:url(#c)" d="M62.43 14.64H47.57l-3.59 3.6h22.04l-3.59-3.6z"/><path d="m85.34 81.11-7.07-53.7H62.43v5.83l-5.84-5.83H31.73l-7.07 53.7a4.19 4.19 0 0 0 4.15 4.73h52.38a4.19 4.19 0 0 0 4.15-4.73ZM55 67.12l-6.45 3.43L55 56.62l6.45 13.93Zm7-3.38-1.64-3.53a6.46 6.46 0 1 0-10.74 0L48 63.74a10 10 0 1 1 14 0Z" style="fill:url(#d)"/><path d="M62.43 27.41v5.83l-5.84-5.83H31.73l-7.07 53.7a4.19 4.19 0 0 0 4.15 4.73H55a43.17 43.17 0 0 0 7.44-58.43ZM55 67.12l-6.45 3.43L55 56.62l6.45 13.93Zm5.37-6.91a6.46 6.46 0 1 0-10.74 0L48 63.74a10 10 0 1 1 14 0Z" style="fill:url(#e)"/></svg>