<svg id="Layer_1" data-name="Layer 1" xmlns="http://www.w3.org/2000/svg" viewBox="0 0 110 110"><defs><linearGradient id="linear-gradient" x1="10.2" y1="55" x2="99.8" y2="55" gradientUnits="userSpaceOnUse"><stop offset="0" stop-color="#19dda0"/><stop offset=".26" stop-color="#19dda5"/><stop offset=".57" stop-color="#19ddb4"/><stop offset=".91" stop-color="#19ddcc"/><stop offset=".95" stop-color="#19ddd0"/></linearGradient><style>.cls-2{fill:#0bb27a}</style></defs><rect x="10.2" y="25.7" width="89.6" height="58.61" rx="6.19" style="fill:url(#linear-gradient)"/><rect class="cls-2" x="16.72" y="40.94" width="20.24" height="12.45" rx="1.67"/><path class="cls-2" d="M16.58 61.27h1.81v10.16h-1.81zM16.58 75.07h1.81v4.15h-1.81zM20.14 75.07h1.81v4.15h-1.81zM24.03 75.07h1.81v4.15h-1.81zM27.91 75.07h1.81v4.15h-1.81zM31.86 75.07h1.81v4.15h-1.81zM35.42 75.07h1.81v4.15h-1.81zM20.14 61.27h1.81v10.16h-1.81zM24.03 61.27h1.81v10.16h-1.81zM27.91 61.27h1.81v10.16h-1.81zM36.96 61.27h1.81v10.16h-1.81zM40.52 61.27h1.81v10.16h-1.81zM44.41 61.27h1.81v10.16h-1.81zM48.29 61.27h1.81v10.16h-1.81zM58.64 61.27h1.81v10.16h-1.81zM62.2 61.27h1.81v10.16H62.2zM66.09 61.27h1.81v10.16h-1.81zM69.97 61.27h1.81v10.16h-1.81z"/></svg>