<?xml version="1.0" standalone="no"?>
<!DOCTYPE svg PUBLIC "-//W3C//DTD SVG 20010904//EN"
 "http://www.w3.org/TR/2001/REC-SVG-20010904/DTD/svg10.dtd">
<svg version="1.0" xmlns="http://www.w3.org/2000/svg"
 width="191.000000pt" height="191.000000pt" viewBox="0 0 191.000000 191.000000"
 preserveAspectRatio="xMidYMid meet">
<metadata>
Created by potrace 1.14, written by Peter Selinger 2001-2017
</metadata>
<g transform="translate(0.000000,191.000000) scale(0.100000,-0.100000)"
fill="#000000" stroke="none">
<path d="M604 1894 c-245 -52 -430 -225 -502 -469 -31 -103 -39 -295 -17 -400
56 -265 239 -459 495 -524 91 -23 263 -25 365 -4 111 22 223 80 314 163 18 16
34 30 35 30 1 0 1 -155 1 -345 l0 -345 267 0 268 0 0 939 0 939 -267 -2 -268
-1 -1 -85 c-1 -47 -2 -86 -3 -88 -1 -2 -25 17 -53 43 -58 50 -204 126 -283
145 -71 18 -277 20 -351 4z m503 -344 c124 -53 194 -199 186 -385 -9 -212
-119 -339 -304 -353 -68 -5 -152 10 -201 35 -67 33 -124 114 -147 207 -12 49
-16 197 -6 251 25 141 106 233 232 265 61 15 182 5 240 -20z"/>
</g>
</svg>
