<svg id="Layer_1" data-name="Layer 1" xmlns="http://www.w3.org/2000/svg" viewBox="0 0 2742 1523"><defs><style>.cls-4{fill:#fcca65}.cls-7{fill:#ffd6ba}</style></defs><path transform="rotate(90 1371 761.5)" style="fill:#b0b0cc" d="M610.52-609.5h1520.97v2742H610.52z"/><path d="M994.52 550.85v28.72H986v20.49h91.46v-20.49h-5.76v-55.29a61.93 61.93 0 0 0-61.93-61.93H701.82v77.18H983.2a11.32 11.32 0 0 1 11.32 11.32Z" style="fill:#939598"/><path d="M2036.74 1181.51c-.73-21.75-23.27-186.65-38-248.2-16.88-70.65-40.25-137.72-68.29-207.36a248 248 0 0 0-21.22-40.43c-22.1-34.65-47-68-78-94.88-34.27-29.84-76.5-48.75-118-67.21-7.55-3.37-11.66-5.39-19.64-3.24-4.39 1.17-12.07 6-15.54 8.92-3.29 2.73-6.38 5.49-9.39 8.29-1.93 2.18-3.7 4.22-5 5.76-35.11 41-50.48 94.82-76.46 142.11-2.71 4.94-8.81 8.58-13.6 11.54-14.6 9-30.87-3.73-36.68-12.86-6.42-10.07-14.85-42.9-14.85-42.9-10.88-9.24-21.93-19.55-31-26.14l-1.13.21s-60.89 46.34-67.33 105.79c-2.51 23.09.85 46.64 4.14 69.63 10.93 76.38 23.2 129.16 37.76 212.79-.86-1.37 6.69 15.92-2.25 24.54-1.73 10.29-1.35 12.24-5.89 21.64-97.26-9.63-194-23.12-283.63-21.88a395.47 395.47 0 0 1 4.8 41.15c.45 3.19.89 6.39 1.34 9.58.92 6.68.66 13.92.62 20.73 3.4 1.19 6.8 2.4 10.17 3.68 2.5 6.09 2.14 13 1.51 19.61-.74 7.91-1.82 15.82-2.64 23.73q-.25 14.88-.52 29.75c-.2 11.43-.38 23.06 2.79 34.06 76.33 19.35 151.47 31.89 231.09 47.18 17.64 3.37 120.54 20 122.69 20.56 2.18 20.89.76 41.49 1.4 60.86a159.87 159.87 0 0 0 2.1 22.44c40.4 10.64 135.21 18.12 245.74 18.12 110.7 0 205.66-7.5 246-18.2q.5-11.18.66-22.69c.82-47.73-1.84-100.1-3.75-156.68Z" style="fill:#f8f8ff"/><path class="cls-4" d="M900.77 1117.43c4.75 1.42 8.88 4.34 12.87 7.28.81.59 1.58 1.23 2.39 1.83q9.29 6.95 18.2 14.41a1.06 1.06 0 0 0 .19.06 24.84 24.84 0 0 0 4.45.77 21.54 21.54 0 0 0 .63 3.54c7.7 6.62 15.15 13.54 22.38 20.68.23.07.45.16.69.22.94.26 1.88.47 2.82.65 8.31-5.66 17.59-9.63 27.21-12.75 6.07-2 12.27-3.62 18.43-5.19s12.28-3.08 18-5.78l1.36-.64c0-.06 0-.12.07-.18a18.74 18.74 0 0 0 1.42-8.08c0-.23 0-.44-.06-.67a30.42 30.42 0 0 0 15.58.92c4.25-2 8.5-4.07 12.77-6.24 2.28-1.16 4.27-2.26 6.08-3.38a34.59 34.59 0 0 0 4.37-5.08 30.94 30.94 0 0 0 2.58-4.44 27.62 27.62 0 0 0 2.16-18.3 25.35 25.35 0 0 0 11 5.72 21.4 21.4 0 0 0 3.57.56c2.57-1.47 5.1-2.92 5.94-3.9 3.13-3.65 7.73-5.67 12.27-7.21 1.72-.59 3.39-1.12 5-1.61a29.72 29.72 0 0 0 2.2-4.82 31.84 31.84 0 0 0 2-10.85 32.87 32.87 0 0 0 10.63 9.36c9.09 4.77 17.69 1.94 23.14-1.66a11.25 11.25 0 0 0 3.53-3.82c4.16-7.2 2.26-20-5.39-31.54-.64-1-1.31-1.9-2-2.81-8.73-11.5-20.68-17.22-28.45-13.54 1.76-9.23-3.58-20.88-14.19-28.93-12.46-9.45-27.76-10.59-35.68-3.11-11.36-10.8-25.42-14.39-32.21-7.91-4.78 4.56-6 14.6-2.86 24.4-.48.21-1 .47-1.45.71-3.32-9-15.29-15.71-29.59-15.71-16.87 0-30.54 9.3-30.54 20.76a19 19 0 0 0 1.77 7.58c-6.34-.75-11.76.76-14.74 4.69a22.3 22.3 0 0 0-4.46 9.65l-.45.09a91.59 91.59 0 0 0-17.51-3.63c-16.77-1.89-30.76.45-31.24 5.25-.12 1.19.61 2.43 2 3.65a1.23 1.23 0 0 0-.19 0c-3.14.88-.37 3.9 2.15 6-9.06-1.91-17-.2-20.38 5.28-4.71 7.58-6.77 19.84 3.37 28.71-7.34 2.51-12.37 7.06-13 12.71-.59 5.49 1.15 13.33 5.71 19.5a11.69 11.69 0 0 1 1.3-1.25c3.88-3.06 9.39-3.38 14.16-1.95ZM1035.58 922c-.52-18.44-12.82-31.56-26.1-31.56v.37a18.89 18.89 0 0 0-3.54-.37c-13.28 0-24 13.68-24 30.54s10.76 30.54 24 30.54a19.76 19.76 0 0 0 3.54-.36v.36c13.28-.04 26.63-10.89 26.1-29.52ZM1052.08 758.47c-6.47 16.93-4.2 33.52 5.06 37.06l5.12 2a1.92 1.92 0 0 1 .37.15c8.29 3.16 20.25-8 26.72-24.92 6.27-16.39 5.06-32.15-2.55-36 0-.08-.74-.38-.74-.38l-5.49-2.1c-9.27-3.6-22.02 7.26-28.49 24.19ZM1021.48 639.73c0-.12-8.5-.12-8.5-.12-12.56 0-22.75 14.69-22.75 32.82s10.19 32.81 22.75 32.81h6.94c12.57 0 22.75-14.69 22.75-32.81 0-17.37-9.35-31.54-21.19-32.7ZM1076.34 834.18c0-.1-7.85-.1-7.85-.1-11.6 0-21 13.57-21 30.31s9.41 30.3 21 30.3h6.41c11.6 0 21-13.57 21-30.3 0-16.04-8.63-29.13-19.56-30.21ZM1032.41 785.79c-9-14.83-24.39-22.08-35.1-16.92-.06-.1-7.33 4.32-7.33 4.32-10.73 6.53-11.79 24.38-2.36 39.86s25.76 22.74 36.49 16.21l5.93-3.61c10.73-6.53 11.79-24.38 2.37-39.86Z"/><path d="M1261.4 496.38c-10.39-7.08-18.28-18-23.7-29.82-3.06-4.75-6-10.47-5.32-14.46 0-.09-.05-.18-.07-.26h.12a4.85 4.85 0 0 1 1.85-3c3.78-2.84 7.72 2.8 11.67 4.55a29.83 29.83 0 0 0 16.28 2.27c-3.42-4-7.29-8.5-11.22-13-6.71-6.91-13.85-14.07-16.76-18.91 22.08 10.66 55.62 18 83.85 17.21a174.67 174.67 0 0 0 37.07-6.89c3.12-1 9.94-4.34 13.15-4.32 1.85 0 6.53 1.22 11.66 2.31 2.63.1 5.26.2 7.9.16 9.85-.19 20.11-3 27.42-9.43a33.51 33.51 0 0 0 3.68-4.45c4.87-7.07 6.3-15.85 8.7-24.1s7.69-15 14.22-20.54a22.65 22.65 0 0 1 2.72-2c3.3-2.8 6.88-4.26 10.57-3.14a24 24 0 0 0 2.43.48 41.21 41.21 0 0 1 6.88 1.4c3.22.93 7 3.54 10.54 6.64a90.46 90.46 0 0 1 10 8.51c.69.67.65 1.75.67 2.77 6.59 8.57 8.24 18.32 8.16 29.2a24.6 24.6 0 0 1-1.17 7.95 27.12 27.12 0 0 1-.48 3.67c-.51 2.47-1.38 5.07-.48 7.43a9.28 9.28 0 0 0 2.72 3.48 41.52 41.52 0 0 0 27.61 10.54 40.5 40.5 0 0 0 10-1.33 34 34 0 0 0 5.27-2.28c2.43-1.32 7.85-8.14 10.6-7.9 1.27.1 12.93 5.31 20.68 9.07a55.35 55.35 0 0 0 12.62.82c4.06-1.54 6.67-5.64 4.74-7.84a121 121 0 0 0-11.18-11.24c-3.36-3-7-5.95-8.64-10.13-1.66-4.35-14.49-30.16-14.1-35.25 4-53.56-16.61-77.39-17-78.88a10.82 10.82 0 0 1-.16-3.64 131.42 131.42 0 0 0-.22-19.94c-.38-4.33-6.51-18.19-8.63-20.72l-17.42-20.85a163.66 163.66 0 0 0 18.13-8.29c4.85-2.59 6.51-5.48 7.61-10.87-17.39-1.92-27.75-4.47-42.55-7.7a95.86 95.86 0 0 1-20.7-7.08c-5.09-2.42-10-5.29-15-7.81a125 125 0 0 0-49.79-13.05c-23.28-1.12-47 4-68.15 13.73a237.54 237.54 0 0 0-102.7 91c-3 5-5.89 10-8.75 15.08l-5.73 10.09a243 243 0 0 0-13 26.58c-9.23 4.53-19.26 10.23-27 17s-13.86 16-14.61 26.27a17.76 17.76 0 0 0 .89 7.63 25.2 25.2 0 0 0 4.06 6.43c2.34 3 5 7.77 7.3 10.75a42.63 42.63 0 0 0-19.44 29.25c-2.08 13.33 2.31 26.78 7.39 39.27 3.9 9.59 8.29 19.09 14.53 27.34s19.25 15.25 29.07 18.51c-6.87-10.22-14.53-22.54-16.72-34.66-1.47-8.12-2.57-16.9 1.09-24.3 3 3.81 3.77 8.82 5.39 13.38 2.86 8.08 8.39 14.91 14 21.45 6.12 7.19 12.69 14.46 21.32 18.31 5 2.26 10.56 3.24 16 4 11.31 1.63 20.76 1.2 29.71-5.9a150 150 0 0 0-14-16.3 57.06 57.06 0 0 0-5.58-4.25Z" style="fill:#c48b68"/><path d="M1379.31 575.37a123.87 123.87 0 0 1-24.14 17.42s32.3 34.7 51.93 8.61-1.37-53.38-1.37-53.38-13.07 14.74-26.42 27.35Z" style="fill:#fff"/><path class="cls-7" d="M1595.26 474c-4.82-5.47-15.9-20.28-22.27-23.62-1.18-.62-2.71-1.38-4.42-2.21-7.75-3.76-19.41-9-20.68-9.07-2.75-.24-8.17 6.58-10.6 7.9a34 34 0 0 1-5.27 2.28c-14.55 5-29.82-1.26-44.24-13.48 2.12-4.57 3.84-7.17 4.9-10.31a24.6 24.6 0 0 0 1.17-7.95c.08-10.88-1.57-20.63-8.16-29.2-.11-.14-.19-.28-.3-.42a87 87 0 0 0-10.39-10.84c-3.56-3.1-7.32-5.71-10.54-6.64a41.21 41.21 0 0 0-6.88-1.4 19.62 19.62 0 0 0-13 2.66 22.65 22.65 0 0 0-2.72 2c-6.53 5.57-11.81 12.3-14.22 20.54s-3.83 17-8.7 24.1a33.51 33.51 0 0 1-3.68 4.45c-5.16 5.31-11.22 7.81-19.16 10.52-3.44 1.17-10.11 0-16.16-1.25-5.13-1.09-9.81-2.3-11.66-2.31-3.21 0-10 3.35-13.15 4.32a174.67 174.67 0 0 1-37.03 6.93q-3 .26-6.06.45c-26 1.66-52.8-2.23-75.39-15.19 4.38 5 9.42 10.74 14.36 16.44 3.93 4.54 7.8 9 11.22 13a29.83 29.83 0 0 1-16.28-2.27c-4-1.75-7.89-7.39-11.67-4.55a4.85 4.85 0 0 0-1.85 3v.22c-.69 4 2.26 9.71 5.32 14.46 1.93 3 3.88 5.59 5 7.11 7 9.93 15.82 18.27 24.22 27a150 150 0 0 1 14 16.3c20.51 28.52-4.48 53 4.74 67 3.09 4.39 10.91 7 20.55 7.13s16.53-2.78 25.38 3.64 30.44 30.8 49.2 46.63c19.55 16.71 33.37 17.14 51.41 3.54 22-17.12 27.85-30.2 42.92-36.42 3.53-1.42 9.21 1.44 16.06 6.44 9 6.59 20.08 16.9 31 26.14 0 0 8.43 32.83 14.85 42.9 5.81 9.13 22.08 21.9 36.68 12.86 4.79-3 10.89-6.6 13.6-11.54 26-47.29 41.35-101.14 76.46-142.11 1.32-1.54 3.09-3.58 5-5.76 5.53-6.23 12.44-13.58 14.26-13.4-34.23-12.48-63.79-22.76-87.82-50.02ZM1407.1 601.4c-19.63 26.09-51.93-8.61-51.93-8.61a123.87 123.87 0 0 0 24.14-17.42c13.35-12.61 26.42-27.35 26.42-27.35s21 27.3 1.37 53.38ZM1179.57 1099.09c0-6.81.3-14-.62-20.73-.45-3.19-.89-6.39-1.34-9.58-.13-.94-.25-1.87-.39-2.81-.25-1.84-.51-3.68-.76-5.52l-3.66-26.32a2.27 2.27 0 0 0-.52-1.37 2.15 2.15 0 0 0-1.32-.42c-4.35-.35-8.75.31-13.08-.2-12.11-1.4-21.77-11.46-33.81-13.38-2.77-.45-5.29-.15-7.35-2.06a58.24 58.24 0 0 1 3.47 12 65.69 65.69 0 0 1 8.81 1.75 32.48 32.48 0 0 1 17.71 13.2c.17.27.31.56.48.83.68.91 1.35 1.84 2 2.81 7.65 11.58 9.55 24.34 5.39 31.54a19.45 19.45 0 0 1-1.11 2.47c-1.3 2.35-3.07 4.41-4.49 6.68a13.71 13.71 0 0 1-3.29-.35c-.08 0-.11-.08-.18-.11-11.67-1.43-21.35-.2-32.39 3.1-1.65.49-3.32 1-5 1.61-4.54 1.54-9.14 3.56-12.27 7.21-.84 1-3.37 2.43-5.94 3.9-2.75 1.58-5.53 3.19-6.35 4.31-5.46 7.47-9.36 11.92-15.43 16-.6.41-1.2.81-1.85 1.22-1.81 1.12-3.8 2.22-6.08 3.38-4.27 2.17-8.52 4.22-12.77 6.24-5.43 2.58-10.87 5.11-16.37 7.71l-.64.3-1.36.64c-5.7 2.7-11.87 4.22-18 5.78s-12.36 3.22-18.43 5.19c-9.62 3.12-18.9 7.09-27.21 12.75-.51.35-1 .66-1.55 1-.64-.64-1.32-1.25-2-1.89-7.23-7.14-14.68-14.06-22.38-20.68-1.73-1.49-3.52-2.91-5.27-4.37q-8.93-7.44-18.2-14.41c-.81-.6-1.58-1.24-2.39-1.83-4-2.94-8.12-5.86-12.87-7.28s-10.28-1.11-14.14 2a11.69 11.69 0 0 0-1.3 1.25 14.4 14.4 0 0 0-3.76 8.8c-1.66.52-2.57 2.55-2.33 4.32a11.15 11.15 0 0 0 2.58 5l18.92 25.23 32.43 43.14c2.4 3.19 4.86 6.45 8.15 8.73 3.81 2.63 8.44 3.76 13 4.83 16.44 3.91 36.41.85 48.88 12.27 7.46 6.83 18.57 8.41 28.51 6.55s19-6.72 27.93-11.51c5.48-3 11-5.92 16.23-9.25 11-7 21-15.61 31.88-22.79 9.4-6.18 19.49-11.26 29.66-16.09 6.56-3.11 13.33-6.17 20.57-6.79a63.71 63.71 0 0 1 11.71.43c5.51.55 12.71-.06 18.23.49a147.73 147.73 0 0 1 .75-27.88c.82-7.91 1.9-15.82 2.64-23.73.63-6.61 1-13.52-1.51-19.61-3.42-1.3-6.79-2.51-10.22-3.7Z"/><path d="M1063.8 736.93c-5.67 4.82-10.58 12.18-13.85 20.72s-4.5 17.3-3.5 24.68c1.07 7.86 4.58 13.31 9.87 15.33l5.12 2a1.18 1.18 0 0 1 .37.14 10.71 10.71 0 0 0 3.81.69c4 0 8.32-2.08 12.61-6.08 5.3-4.94 10-12.34 13.25-20.85 6.84-17.88 5.09-34.67-3.86-39 0-.08-.74-.37-.74-.37l-5.5-2.1c-5.29-2.02-11.54-.3-17.58 4.84Zm-10.63 47.87a29.46 29.46 0 0 0 1.12 5.82 18.33 18.33 0 0 1-3.32-8.91c-.9-6.63.25-14.59 3.25-22.43s7.44-14.54 12.54-18.88a18.22 18.22 0 0 1 8.47-4.43c-6.82 4.06-13.61 12.9-18 24.45-3.23 8.51-4.71 17.16-4.06 24.38Zm32.07-46.35c6.22 2.38 8.5 16.38 2 33.44-3 7.87-7.3 14.67-12.1 19.15-4.31 4-8.57 5.64-11.68 4.45s-5.19-5.23-5.72-11.1c-.59-6.54.74-14.47 3.74-22.34 5.83-15.24 15.26-24 21.64-24a6 6 0 0 1 2.12.4ZM1021.49 637.44c0-.11-8.51-.11-8.51-.11-13.8 0-25 15.75-25 35.1s11.23 35.09 25 35.09h6.94c13.8 0 25-15.74 25-35.09.08-18.62-10.36-33.85-23.43-34.99Zm-29 35c0-12.63 5.16-23.49 12.51-28.14-6.14 6.41-10.13 16.62-10.13 28.14s4 21.73 10.13 28.13c-7.32-4.65-12.48-15.51-12.48-28.14Zm27.4 30.53c-11.28 0-20.46-13.7-20.46-30.53s9.18-30.54 20.46-30.54 20.47 13.7 20.47 30.54-9.15 30.56-20.44 30.56ZM1068.49 831.8c-12.84 0-23.29 14.62-23.29 32.59s10.45 32.61 23.29 32.61h6.41c12.84 0 23.29-14.62 23.29-32.58 0-17.29-9.68-31.44-21.85-32.49 0-.13-7.85-.13-7.85-.13Zm-18.73 32.59c0-10.81 4.12-20.19 10.12-24.86-5.05 6-8.27 14.9-8.27 24.86s3.22 18.87 8.27 24.86c-6-4.68-10.12-14.06-10.12-24.86Zm43.86 0c0 15.45-8.4 28-18.72 28s-18.72-12.57-18.72-28 8.4-28 18.72-28 18.72 12.54 18.72 28ZM1034.36 784.6c-9.68-15.9-26.48-23.52-38.24-17.69a7.73 7.73 0 0 0-1.37.71l-6 3.62c-5.85 3.56-9.34 10.09-9.83 18.39-.48 8 1.9 16.73 6.7 24.61s11.46 14 18.77 17.25a26.69 26.69 0 0 0 10.78 2.46 19 19 0 0 0 10.07-2.75l5.94-3.61c5.84-3.55 9.34-10.08 9.83-18.38.52-7.99-1.86-16.73-6.65-24.61Zm-28.06 42.72c-6.48-2.87-12.42-8.36-16.73-15.46s-6.47-14.89-6.05-22a22.43 22.43 0 0 1 2.07-8.42c-1.85 8.63.06 19.36 6 29.14 4.8 7.89 11.46 14 18.78 17.26a31 31 0 0 0 4.1 1.46 22.4 22.4 0 0 1-8.17-1.98Zm30.2-18.38c-.4 6.76-3.11 12-7.65 14.76s-10.43 2.76-16.62 0c-6.47-2.87-12.41-8.36-16.73-15.46-8.75-14.37-8-30.84 1.59-36.72a14.8 14.8 0 0 1 7.76-2.09c8.76 0 19 6.62 25.61 17.53 4.32 7.11 6.46 14.91 6.04 21.98ZM1005.94 953.76h5.27c.61 0 1.2.06 1.79.06s.93 0 1.39-.06h.29a23.4 23.4 0 0 0 14.81-6.26c6.28-5.87 9.88-15.55 9.88-26.56 0-18.88-11.4-32.59-27.12-32.63l-6.24-.19c-14.58 0-26.39 14.73-26.39 32.82s11.81 32.82 26.32 32.82Zm28.87-32.82c0 9.75-3.08 18.22-8.43 23.23a18.7 18.7 0 0 1-5.13 3.42c6.65-6 11-15.67 11-26.65 0-10-3.62-19-9.31-25 7.24 4.52 11.87 13.67 11.87 25Zm-28.87-28.25c12 0 21.76 12.67 21.76 28.25s-9.76 28.26-21.76 28.26-21.76-12.68-21.76-28.26 9.76-28.25 21.76-28.25ZM1069.23 711.53v-53a2.28 2.28 0 0 0-4.56 0v53a2.28 2.28 0 0 0 4.56 0ZM1079.4 676.12a2.28 2.28 0 0 0-2.28 2.28v36.82a2.28 2.28 0 1 0 4.56 0V678.4a2.28 2.28 0 0 0-2.28-2.28ZM992.14 875.7v-24.19a2.28 2.28 0 0 0-4.56 0v24.19a2.28 2.28 0 0 0 4.56 0ZM971.29 842.05V887a2.28 2.28 0 1 0 4.56 0v-44.95a2.28 2.28 0 0 0-4.56 0ZM991.35 550.85v25.55H986a3.17 3.17 0 0 0-3.17 3.17v20.49a3.17 3.17 0 0 0 3.17 3.17h92.28a3.17 3.17 0 0 0 3.17-3.17v-20.49a3.17 3.17 0 0 0-3.17-3.17h-3.41v-52.12a65.17 65.17 0 0 0-65.1-65.1H701.82a3.17 3.17 0 0 0 0 6.34h307.94a58.83 58.83 0 0 1 58.76 58.76v52.12h-70.84v-25.55a14.5 14.5 0 0 0-14.48-14.49H701.82a3.17 3.17 0 0 0 0 6.34H983.2a8.16 8.16 0 0 1 8.15 8.15Zm83.75 31.89v14.15h-85.94v-14.15ZM987.17 1019.81a12.53 12.53 0 0 0 2.66 6.74 6.3 6.3 0 0 0 5.13 2.57 6 6 0 0 0 4.29-1.85q1.8-1.79 3.89-7.79l10.43-.22a20.29 20.29 0 0 1-.65 5.09 14.3 14.3 0 0 1-1.68 4.32l3.54-.07a21.68 21.68 0 0 0 1.64-9.4l4.26-.1v-2.81l-4.42.1a14.5 14.5 0 0 0-2.6-7.14 5.86 5.86 0 0 0-4.89-2.48 5.75 5.75 0 0 0-4.26 2.17c-1.24 1.4-2.51 4-3.81 7.78l-10.75.22a15.28 15.28 0 0 1 1.66-7.37l-3.46.08c-.66 1.36-1 3.82-1.05 7.36l-3.59.07v2.81Zm21.9-8.5c2.25 0 3.69 1.67 4.3 5.14l-9.21.19q2.1-5.26 4.91-5.33Zm-9.52 8.24a11.57 11.57 0 0 1-2.21 3.89 4 4 0 0 1-2.86 1.15 3.62 3.62 0 0 1-2.85-1.27 6.74 6.74 0 0 1-1.57-3.56ZM1045.41 1005.56a7.67 7.67 0 0 0 1.86 5.3 7.28 7.28 0 0 0 3.78 2.51c1.44.37 3.73.14 6.85-.69l6.82 8.15a11 11 0 0 1-3.26 1.95 8.77 8.77 0 0 1-3.5.75l2.31 2.77a11.94 11.94 0 0 0 6.31-3.24l2.78 3.33 1.55-1.39-2.88-3.45a9.44 9.44 0 0 0 2.31-5.5 7.09 7.09 0 0 0-1.74-5.07 6.62 6.62 0 0 0-3.95-2.33 16.21 16.21 0 0 0-6.79.74l-7-8.41a8.58 8.58 0 0 1 5.18-2.23l-2.26-2.71q-1.79.19-4.79 2.72l-2.34-2.81-1.55 1.39 2.39 2.86a8.45 8.45 0 0 0-2.08 5.36Zm20.87 7.88q2.21 2.64-.12 5.88l-6-7.19q4.28-.89 6.12 1.31Zm-16.92-11 6.2 7.42a8.24 8.24 0 0 1-3.59.12 4.85 4.85 0 0 1-2.48-1.71 4.54 4.54 0 0 1-1.12-2.87 4.77 4.77 0 0 1 .99-2.94ZM1031.87 1095a7.06 7.06 0 0 0-2-5 6.64 6.64 0 0 0-4.06-2.12 16.1 16.1 0 0 0-6.74 1.11l-7.47-8a8.6 8.6 0 0 1 5.06-2.52l-2.41-2.58q-1.77.3-4.63 3l-2.49-2.67-1.48 1.47 2.55 2.73a8.39 8.39 0 0 0-1.77 5.45 7.7 7.7 0 0 0 2.14 5.2 7.26 7.26 0 0 0 3.91 2.3q2.19.44 6.81-1.06l7.24 7.77a10.87 10.87 0 0 1-3.14 2.12 8.88 8.88 0 0 1-3.46.94l2.46 2.64a11.9 11.9 0 0 0 6.12-3.57l3 3.17 1.48-1.47-3.07-3.29a9.46 9.46 0 0 0 1.95-5.62Zm-18.67-5a4.91 4.91 0 0 1-2.57-1.58 4.51 4.51 0 0 1-1.27-2.8 4.67 4.67 0 0 1 .83-3l6.59 7.07a8.32 8.32 0 0 1-3.58.25Zm14.68 8.53-6.4-6.86c2.82-.73 4.89-.41 6.19 1q2.33 2.45.21 5.8Z"/><path d="M1069.39 755.43a9 9 0 0 0-.29 5.21q.64 2.42 4.31 6.1l-3.88 11.69a10.45 10.45 0 0 1-3.54-1.86 9.11 9.11 0 0 1-2.57-2.86l-1.32 4a11.63 11.63 0 0 0 6.37 4l-1.58 4.77 2.11.6 1.64-5a9.85 9.85 0 0 0 6.32-1.3 8.76 8.76 0 0 0 3.74-4.9 8.14 8.14 0 0 0 0-5.25q-.86-2.55-4.33-6l4-12.06a8.46 8.46 0 0 1 4.85 3.52l1.29-3.88c-.77-1-2.46-2-5.08-2.83l1.34-4-2.12-.6-1.36 4.11a8.79 8.79 0 0 0-6 1.45 9.59 9.59 0 0 0-3.9 5.09Zm7.8 19.77c-.84 2.52-2.67 3.74-5.49 3.64l3.42-10.32q3.12 3.48 2.07 6.68Zm-4.19-19.28a5.65 5.65 0 0 1 2-2.91 5 5 0 0 1 3.27-.93l-3.53 10.64a8.78 8.78 0 0 1-2-3.35 6 6 0 0 1 .26-3.45ZM1003.73 922.07l.71 10.41a20.56 20.56 0 0 1-5.11-.4 14.44 14.44 0 0 1-4.4-1.49l.24 3.54a21.62 21.62 0 0 0 9.47 1.19l.29 4.25 2.81-.17-.3-4.4a14.52 14.52 0 0 0 7-2.94 5.69 5.69 0 0 0-.11-9.16q-2.21-1.75-8-3.43l-.74-10.73a15.19 15.19 0 0 1 7.44 1.31l-.23-3.45q-2.1-.9-7.4-.71l-.25-3.58-2.81.17.25 3.66a12.48 12.48 0 0 0-6.6 3 6.32 6.32 0 0 0-2.33 5.25 6.09 6.09 0 0 0 2 4.2c1.34 1.11 4.01 2.28 8.07 3.48Zm8.44 5.54c.15 2.25-1.49 3.77-4.93 4.54l-.63-9.19q5.39 1.85 5.56 4.65Zm-12.82-16.86a6.81 6.81 0 0 1 3.49-1.73l.65 9.48a11.88 11.88 0 0 1-4-2 4 4 0 0 1-1.28-2.81 3.63 3.63 0 0 1 1.14-2.94ZM1030.22 673.53q-2.42-2.09-8.75-4.07l-.8-12.69a15.76 15.76 0 0 1 8.18 1.55l-.26-4.08c-1.53-.71-4.25-1-8.14-.83l-.27-4.24-3.09.2.28 4.33a13.43 13.43 0 0 0-7.27 3.51 7.78 7.78 0 0 0-2.56 6.21 7.4 7.4 0 0 0 2.26 5q2.07 2 8.77 4.16l.78 12.31a20.85 20.85 0 0 1-5.63-.48 15.29 15.29 0 0 1-4.84-1.75l.27 4.18a22.19 22.19 0 0 0 10.41 1.41l.32 5 3.09-.2-.33-5.22a15.27 15.27 0 0 0 7.7-3.47 7.13 7.13 0 0 0 2.48-5.91 6.9 6.9 0 0 0-2.6-4.92Zm-16.31-7.62a4.9 4.9 0 0 1-1.41-3.31 4.46 4.46 0 0 1 1.25-3.45 7.32 7.32 0 0 1 3.84-2l.71 11.2a12.79 12.79 0 0 1-4.39-2.44Zm8.52 18.55-.69-10.87q5.9 2.19 6.1 5.5.26 3.99-5.41 5.37ZM1072.54 847.09a12.38 12.38 0 0 0-6.71 3.24 7.14 7.14 0 0 0-2.36 5.74 6.77 6.77 0 0 0 2.08 4.58q1.9 1.88 8.1 3.84l.72 11.36a19.07 19.07 0 0 1-5.19-.43 14.36 14.36 0 0 1-4.48-1.62l.25 3.86a20.47 20.47 0 0 0 9.62 1.3l.29 4.64 2.86-.18-.31-4.81a14.24 14.24 0 0 0 7.11-3.21 6.57 6.57 0 0 0 2.28-5.46 6.36 6.36 0 0 0-2.39-4.54q-2.23-1.92-8.08-3.75l-.74-11.72a14.58 14.58 0 0 1 7.55 1.43l-.24-3.77q-2.13-1-7.51-.77l-.25-3.91-2.85.18Zm9.67 23.45q.24 3.69-5 5l-.64-10q5.43 1.94 5.64 5Zm-8.81-10a11.84 11.84 0 0 1-4.06-2.21 4.53 4.53 0 0 1-1.29-3.06 4.1 4.1 0 0 1 1.14-3.18 6.79 6.79 0 0 1 3.55-1.89ZM1022.35 793.2c-2.1-.35-5.29 0-9.59 1.07l-7.29-10.42a15.75 15.75 0 0 1 7.8-2.92l-2.34-3.36c-1.69.19-4.15 1.37-7.39 3.52l-2.43-3.47-2.54 1.77 2.49 3.55a13.46 13.46 0 0 0-4.38 6.78 7.75 7.75 0 0 0 1 6.64 7.37 7.37 0 0 0 4.51 3.06c1.88.44 5.09.1 9.65-1l7.06 10.1a20.71 20.71 0 0 1-5.05 2.52 15.19 15.19 0 0 1-5 1l2.4 3.43a22.27 22.27 0 0 0 9.63-4.2l2.88 4.12 2.54-1.78-3-4.28a15.39 15.39 0 0 0 4.78-7 7.17 7.17 0 0 0-1-6.33 7 7 0 0 0-4.73-2.8Zm-17.9 2a4.84 4.84 0 0 1-2.92-2.1 4.41 4.41 0 0 1-.73-3.58 7.27 7.27 0 0 1 2.22-3.74l6.43 9.19a12.61 12.61 0 0 1-5 .2Zm16.92 11.42-6.24-8.92q6.18-1.2 8.08 1.52 2.3 3.24-1.84 7.37ZM1463.74 399.82a3.16 3.16 0 0 0-4.39.89c-6.91 10.43-4.46 22-3.09 26.44a3.16 3.16 0 0 0 3 2.23 3 3 0 0 0 .93-.14 3.17 3.17 0 0 0 2.1-4c-1.11-3.61-3.11-12.9 2.31-21.07a3.16 3.16 0 0 0-.86-4.35ZM1324.72 513.72c4.43-3.92 3.71-12.78-1.74-19.83s-14.1-9.67-18.53-5.74-3.72 12.79 1.73 19.83 14.1 9.67 18.54 5.74ZM1311.75 456.1a3.17 3.17 0 1 0 .58-6.31c-16.11-1.48-31.49 7-38.3 21a3.16 3.16 0 0 0 1.47 4.23 3.16 3.16 0 0 0 4.23-1.47c5.67-11.65 18.54-18.69 32.02-17.45ZM1405.84 544.86a3.15 3.15 0 0 0-2.48 1.06c-.13.15-13.13 14.77-26.25 27.17-10.23 9.82-23.3 16.84-23.44 16.91a3.16 3.16 0 0 0-.82 5c.75.81 18.21 19.34 36.25 19.34h1.34c7.57-.39 14-4.07 19.19-10.94 20.84-27.69-1.17-56.93-1.39-57.22a3.16 3.16 0 0 0-2.4-1.32Zm-1.27 54.64c-4 5.37-8.77 8.12-14.45 8.42-11.75.64-24.21-9.41-29.73-14.47a122.48 122.48 0 0 0 21.09-15.77c9.68-9.15 19.3-19.5 23.87-24.51 4.55 7.59 13.58 27.25-.78 46.33ZM1437.27 344.15c-21 18.61-59.28 35.86-103.65 28.47a3.17 3.17 0 1 0-1 6.25 135.17 135.17 0 0 0 22.1 1.83c37 0 68.28-15.41 86.84-31.84 24.27-22.3 29.12-34.64 29.32-35.15a3.17 3.17 0 0 0-4.89-3.64c-.37.28-38 28.56-71.35 21.37a3.17 3.17 0 1 0-1.33 6.19c24 5.18 49.13-5.87 63.79-14.27a185.82 185.82 0 0 1-19.83 20.79Z"/><path d="M1986.6 868.62C1955.94 760.72 1917.62 686 1892 652c-67.38-89.29-158-122.39-168-125.87a68.84 68.84 0 0 1-10.6-4.91c-7.84-4.2-15.25-8.16-27.32-1.42a2.78 2.78 0 0 0-.52-.25l-3.07-.81a233.28 233.28 0 0 1-39.26-13.39c-24.64-10.52-51-38.1-63.85-52.82.73-.08 1.46-.17 2.14-.3 4.49-.87 7.45-2.8 8.35-5.45a5.25 5.25 0 0 0-1.18-5.27c-.36-.4-1-1-1.84-1.79-4.81-4.48-17.6-16.38-26.36-41.37-4.31-11.38-5-22.62-5.64-34.52-1.06-18.42-2.16-37.47-16.77-59a3.06 3.06 0 0 0-1-.92c1.61-9.42 1.38-20.05-3.07-30.3-7.67-17.66-16.9-26.62-22.77-31.32 14.94-3.65 22.32-12.39 25.94-19.5a3.41 3.41 0 0 0 .24-.63 3.65 3.65 0 0 0-.54-2.87c-1.25-1.73-3.15-1.85-9.46-2.23-9-.55-25.64-1.56-42.18-8-4.89-1.81-10.41-4.38-16.26-7.11-25.27-11.77-59.89-27.88-106.21-13.7-55.81 17.1-108.61 62.64-144.86 124.94a3.17 3.17 0 1 0 5.47 3.19c35.47-60.94 87-105.43 141.25-122.07 44-13.48 77.34 2.05 101.67 13.39 6 2.78 11.61 5.41 16.69 7.28 17.41 6.81 34.74 7.86 44 8.43l2.33.14c-5.22 7.49-13.57 12.06-24.89 13.59-1.31.18-3 .4-3.64 2.24a3.25 3.25 0 0 0 .06 2.36c.49 1.16 1.44 1.85 3.16 3.1 4.61 3.35 15.41 11.2 24.14 31.32 7.32 16.85 1.29 35.79-3.58 45.67-2.32-14.43-11.28-42.32-45.67-59.33a3.17 3.17 0 0 0-2.81 5.69c43.94 21.72 43 61 42.94 62.69a3.15 3.15 0 0 0 3 3.29h.22c1.89 0 3.11-1.51 4.29-3.2a69.16 69.16 0 0 0 8.64-18.93c11.4 18.62 12.38 35.64 13.33 52.14.69 11.85 1.39 24.11 6 36.32 9.26 26.39 22.88 39.07 28 43.84l.74.69a15.19 15.19 0 0 1-6.42 1.32c-4.81.15-21.59-.92-38.39-20.47a3.17 3.17 0 0 0-4.81 4.13 78.56 78.56 0 0 0 10.18 9.92c-4.3 4.48-11.31 7.28-19.51 7.69-11.17.56-22.4-3.47-30-10.77a3.17 3.17 0 0 0-1.16-.7c6.82-19.52 5.4-40.94-11.31-57.17-11.31-10.58-21.22-15.17-30.31-14s-17.22 7.87-25.7 21.18a3.17 3.17 0 0 0 5.34 3.41c7.4-11.6 14.12-17.41 21.15-18.3s15.34 3.15 25.15 12.32c21.37 20.76 14 51.75-2.9 73.25a3.17 3.17 0 0 0 .54 4.45 3.16 3.16 0 0 0 4.45-.54 88.17 88.17 0 0 0 11.21-18.58 47.25 47.25 0 0 0 31.46 11.83c.78 0 1.56 0 2.35-.06 10.15-.51 19-4.24 24.33-10.24a52.7 52.7 0 0 0 22.06 8.68 2.94 2.94 0 0 0 .25.46c11.51 13.53 41.3 46.28 69.44 58.3a238 238 0 0 0 38.56 13.28c-17.9 12.37-34.81 35.23-50.41 68.25-3.93 8-7.91 17.7-12.13 27.92-14.11 34.22-31.65 76.73-56.35 76.73h-.53c-6.69-.17-11.79-4.58-17.86-11.66-4.3-5-13.14-25.36-15.92-39.88l.37.31c2.62 2.06 10.65 12.08 19.07 24.69a3.17 3.17 0 0 0 5.27-3.52c-8.09-12.12-16.87-23.36-20.33-26.07l-.59-.51-5.48-4.64a3.37 3.37 0 0 0-.58-.48c-6.57-5.53-12.65-10.54-18.2-14.84l1.88 1s1.46-17.12-.92-33.21a136.91 136.91 0 0 0-8.7-29.49c-11.71 27-66.67 82-66.67 82l4.41-3c-1.66 1.4-3.4 2.83-5.29 4.3-17.26 13-29.23 12.15-47.45-3.43-9.75-8.22-20.2-18.71-29.43-28-8.35-8.38-15.55-15.61-20-18.81-7.5-5.44-13.8-5-20.47-4.51-2.15.15-4.38.31-6.72.27-8.7-.15-15.6-2.37-18-5.7-3-4.49-1.32-11 .75-19.17 3.35-13.26 7.52-29.76-5.57-48-5.18-7.11-11.38-13.45-18-20.16-11.2-11.45-22.73-23.27-29.42-39.57 9.72 3.76 17.37 4.93 22.6 4.93 4.29 0 7-.78 7.84-1.56a3.27 3.27 0 0 0 1.09-2.52c0-1.75-1-2.46-4-4.82a173.23 173.23 0 0 1-21.28-19.43c17.38 8.49 39.31 12.65 66.48 12.65h.93c20.44 0 41.13-5.41 56.46-10.71a3.09 3.09 0 0 0 1.44.82 77.27 77.27 0 0 0 16.19 1.83c20.88 0 36.5-10.1 43.11-28.6a3.17 3.17 0 0 0-6-2.14c-8.32 23.28-30.25 25.2-43.69 24 7.75-3.1 12.67-5.53 13.23-5.82a3.16 3.16 0 0 0 1.65-3.63A3.23 3.23 0 0 0 1389 418c-.7 0-70.87 2.81-110.87-26.81a3.17 3.17 0 1 0-3.77 5.09c30.45 22.55 76 27.2 99.58 28-15 5.89-40.09 14-64.18 14h-.87c-34.24 0-59.64-6.72-77.65-20.55a3 3 0 0 0-1.33-.56 225.6 225.6 0 0 1-9.63-13.63 3.17 3.17 0 1 0-5.31 3.45c16.78 25.78 33.21 40.15 41.72 47-7.32-.49-20.34-3.55-37.94-14.49-35.47-22.32-49.41-45.32-47.36-57.19 4-20.92 38.86-37 39.21-37.18a3.17 3.17 0 0 0-2.62-5.77c-1.56.71-38.24 17.62-42.82 41.82-1.43 8.23 2.19 18.08 9.82 28.4-29.91 27.45-19.4 55.17-6 81.26 16.21 31.14 41.7 39.38 42.78 39.72a3.34 3.34 0 0 0 .94.14 3.17 3.17 0 0 0 2.26-5.39c-.15-.15-15.25-15.71-19.61-34.93a60.47 60.47 0 0 1-1-19.1c3.33 7.51 9.11 20 18.35 31.52 16.29 20.31 35.57 26.41 64.48 20.38a3.17 3.17 0 0 0 2.44-2.43c9.75 15 6.34 28.69 3.29 40.79-2.26 8.94-4.39 17.38.16 24.29 3.66 5.19 12.07 8.27 23.08 8.46 2.65 0 5-.12 7.28-.28 6.2-.44 10.67-.76 16.3 3.32 4 2.9 11 10 19.19 18.15 9.32 9.35 19.88 20 29.81 28.33 20.31 17.36 35.83 18.39 55.41 3.63a203.39 203.39 0 0 0 22-20.09c7.16-7.33 12.32-12.63 20.21-15.89 1.74-.7 5.25.69 9.69 3.32a2.3 2.3 0 0 0-.14.53c-.08 1.65-2 3.36-3.92 5a295.45 295.45 0 0 0-22.66 20.84 146.13 146.13 0 0 0-41.17 111.41c1 15.13 12.83 80.12 24.32 143 10.13 55.47 21.61 118.33 21.08 123.71a44.2 44.2 0 0 1-4 12.64c-1.82 4.15-3.7 8.44-4.35 14.55 0 0-.08.09-.13.13-14.45-.17-48-4.14-86.52-8.69-71.15-8.41-159.69-18.9-196.51-14.13a3.16 3.16 0 0 0-2.74 3.52c.13 1 .23 2.06.35 3.09-8.28.88-15.94-2.28-23.69-6-2.26-1.08-4.38-2.18-6.43-3.25-6.26-3.28-12.17-6.37-20.12-7.54a3 3 0 0 0-1.64.24 41.91 41.91 0 0 0-11.75-13.55c-6.87-5.22-14.8-8.23-22.34-8.47a22.58 22.58 0 0 0-14.64 4.16 43.27 43.27 0 0 0-16.32-9.37c-7.2-2.06-13.4-1.07-17.47 2.76a21.86 21.86 0 0 0-7.42 15.78v1.2c-6-5-15-8.16-25-8.16-18.1 0-32.82 10.34-32.82 23v5.16c-5.44.21-9.8 2.16-12.51 5.73-.06.08-.1.17-.16.25l-3.28 3.4-.18.2a14.18 14.18 0 0 0-2.14 4.12 98.72 98.72 0 0 0-14.58-2.74c-14.5-1.64-26.88-.28-31.53 3.48a5.59 5.59 0 0 0-2.23 3.72l-.14.92c-.19 1.24-.36 2.38-.43 3.36a5.31 5.31 0 0 0 .26 2.65h-2.18c-.41 0-1 .09-1.46.15s-.82.11-1.22.19-.9.17-1.34.28-.79.21-1.18.33-.8.26-1.19.41-.77.32-1.14.5-.69.32-1 .51-.74.46-1.1.7-.57.38-.83.58a13.16 13.16 0 0 0-1.1 1 7.6 7.6 0 0 0-.58.56 13.31 13.31 0 0 0-1.4 1.84l-.06.12-3.74 6.88c-3.92 6.32-.83 14.38 5.64 21.79-6.69 3-11.15 7.74-11.77 13.6 0 .09-.42 6.42-.42 6.42a17 17 0 0 0 3.7 12.05c-.3.28-.58.56-.83.83a3.09 3.09 0 0 0-.77 1.5 9 9 0 0 0 1 5.92 6.06 6.06 0 0 0-1.55 1 7.18 7.18 0 0 0-2.12 5.53c.21 2.89 2 5.17 3.13 6.67 10.51 13.62 21.3 27.59 32.58 41.09 2.23 2.7 4.57 6.23 6.83 9.65a123 123 0 0 0 7.23 10.19c3.56 4.28 7.23 8.71 12 12.1 5.42 3.82 11.84 5.93 17.5 7.78l31.46 10.34a124.69 124.69 0 0 1 15 5.67c.78.37 1.56.76 2.33 1.16a53.41 53.41 0 0 0 6.72 3 36.49 36.49 0 0 0 11.71 1.73c1.93 0 3.75-.1 5.4-.23a33.65 33.65 0 0 0 10.58-2.24 3.17 3.17 0 0 0 2-.34c29.69-16 59.13-33.29 87.51-51.52a28.21 28.21 0 0 0 3.59-2.91 41.42 41.42 0 0 1 31-10.79c9.91.72 17 1.29 21.35 1.7-.17 16.53.92 29.46 4.45 35.63a3.13 3.13 0 0 0 2.13 1.53c17.86 3.56 37.86 7.64 59.39 12 85.61 17.45 196.59 40.06 291.36 54 .68 14.28 1.05 26.1 1.09 35.11.07 16.78.47 29.65 2.31 45.79a3.17 3.17 0 0 0 3.14 2.81h.37a3.17 3.17 0 0 0 2.79-3.5c-1.82-15.93-2.2-28.14-2.28-45.1 0-8.84-.39-20.34-1-34.15 21.08 3 41.31 5.6 60.19 7.56a186 186 0 0 0 19.12 1c34.53 0 62.69-10.66 83.88-31.8 35.55-35.47 71.66-182.69 103.52-312.57 13.26-54 25.77-105 36.1-138a3.17 3.17 0 1 0-6-1.9c-10.38 33.16-22.92 84.29-36.2 138.41-30.1 122.69-67.55 275.37-101.85 309.59-23.56 23.51-56.48 33.25-97.87 29-19.89-2.06-41.27-4.81-63.58-8h-.21c-95.13-13.83-207.23-36.67-293.53-54.27-20.92-4.26-40.41-8.23-57.88-11.72-2.6-6.06-3.24-18.91-3-33.54 0-.07.06-.13.07-.2a3.08 3.08 0 0 0-.06-.61c.31-16.11 1.67-34.25 2.68-47.81.67-8.94 1.22-16.31 1.41-21.46 91.67-1.22 163.28 10 239 21.88 32 5 65.09 10.2 99.78 14.36a7.48 7.48 0 0 0 1.33.12 7.12 7.12 0 0 0 7.1-6.5v-.39c.47-5.39.53-6.09 5.75-10.62 1.31-1.13 2.69-2.19 4.16-3.31 3.5-2.66 7.12-5.41 9.69-9.35 3.27-5 4.15-10.81 4.83-16.8 7.5-66.33 29.31-212.43 49.12-303.09a3.17 3.17 0 0 0-6.2-1.35c-19.85 90.86-41.7 237.27-49.22 303.73-.59 5.2-1.33 10.19-3.83 14-2 3-5 5.34-8.22 7.78-1.49 1.13-3 2.3-4.49 3.57-4.87 4.23-6.52 6.65-7.27 10.07-8.06-81.52-33.45-308.83-71.25-374a3.17 3.17 0 0 0-5.48 3.18c37.91 65.34 63.4 299.34 70.88 376.1-33.16-4-65-9-95.73-13.84-76.86-12-149.49-23.45-243.15-21.92a2.77 2.77 0 0 0-.57.13 2.62 2.62 0 0 0-.63.14 2.51 2.51 0 0 0-.48.32l-.15.1q-2.85-1.51-5.74-2.82c-2.33-15.09-4.06-30.61-5.72-45.65-.79-7.09-1.57-14.18-2.42-21.24 37.8-3.72 123 6.35 191.83 14.49 42.46 5 76.15 9 89.57 8.71a47.58 47.58 0 0 1 15.83 19.06 3.17 3.17 0 1 0 5.77-2.62 53.87 53.87 0 0 0-17.54-21.33c.46-5.62 2.14-9.49 3.93-13.55a50 50 0 0 0 4.46-14.32c.76-5.48-7.53-51.34-21.12-125.72-11.45-62.67-23.29-127.48-24.23-142.23a139.81 139.81 0 0 1 39.37-106.57 292.82 292.82 0 0 1 22.18-20.4c1.75-1.45 4.41-3.68 5.6-6.78 8.61 5.91 19 14.45 27.34 21.42.8 16 12.72 43.61 18.25 50s12.5 13.62 22.52 13.86h.72c28.9 0 46.57-42.83 62.17-80.65 4.18-10.13 8.12-19.7 12-27.6 18.7-39.6 39-63.92 60.27-72.27a2.78 2.78 0 0 0 .54-.35c5.37-1.16 9.37 1 15 4a77.1 77.1 0 0 0 11.53 5.32c9.92 3.41 98.81 35.89 165.06 123.69 25.3 33.53 63.18 107.5 93.59 214.56 40.36 142 59.27 307.06 56.19 490.48a3.17 3.17 0 0 0 6.34.1c2.94-183.98-16.04-349.62-56.57-492.25Zm-710.76-351.69c-26.58 5.53-43.46.29-58.24-18.14-9.4-11.73-14.9-24.23-18.18-31.7-2.58-5.87-3.36-7.65-5.78-7.87a3.4 3.4 0 0 0-3.14 1.49c-2.33 3.56-4.32 17.15-1.37 31 2.33 10.27 7.29 19.4 11.84 26.14a80.48 80.48 0 0 1-26.39-30c-12.74-24.75-21.93-49 4.31-73.36 8.7 10.19 21.1 20.66 36.45 30.31a136 136 0 0 0 13 7.17 3 3 0 0 0 .15 1.28c6.79 19.83 19.84 33.17 32.45 46.07a202.84 202.84 0 0 1 15.88 17.58 2.8 2.8 0 0 0-.98.03Zm-157.12 516.6a9.51 9.51 0 0 1 5.23-1.44 18.29 18.29 0 0 1 8 2.11c5.64 2.78 11.1 7.87 15.37 14.35s6.81 13.5 7.14 19.78c.3 5.83-1.34 10.24-4.63 12.42-7.08 4.66-20.18-2.2-28.61-15-7.87-11.92-9.39-25.53-3.83-31.11Zm-2.94 35.22c-4.25-6.43-6.71-13.25-6.94-19.19a18.26 18.26 0 0 1 .6-5.69c-.22 7.29 2.43 16.08 7.93 24.41a48 48 0 0 0 13.74 14h-.33a40.16 40.16 0 0 1-15-13.53Zm-11 13.65a5.86 5.86 0 0 0 1.73-5.2 5.73 5.73 0 0 0-2.77-3.9q-2.36-1.53-8.26-2.62l-1.81-10.6a15.21 15.21 0 0 1 7.54.56l-.59-3.42c-1.45-.45-3.93-.44-7.43 0l-.6-3.54-2.78.45.62 3.62a12.48 12.48 0 0 0-6.27 3.62 6.31 6.31 0 0 0-1.79 5.46 6.1 6.1 0 0 0 2.46 4c1.37 1 4.13 1.9 8.29 2.69l1.76 10.28a20.58 20.58 0 0 1-5.13.12 14.59 14.59 0 0 1-4.53-1l.6 3.49a21.47 21.47 0 0 0 9.54.23l.72 4.2 2-.32a81.45 81.45 0 0 0-9.52 7.67c-7.25-3.54-13.31-11.8-15.27-22.28-2.87-15.32 4-29.5 15.38-31.62 5.52-1 11.07 1 15.66 5.07v.38c.26 6.77 3 14.42 7.69 21.53a43.48 43.48 0 0 0 3 4 33.55 33.55 0 0 1-1.07 8.39 51.78 51.78 0 0 0-6.56 2c-.79.28-1.59.59-2.4.95l-.21.08a46.18 46.18 0 0 0-6 3.35l-.68-4a14.56 14.56 0 0 0 6.65-3.64Zm-7.15.81-1.55-9.07c3.67.86 5.67 2.22 6 4.06q.53 3.33-4.48 5.01Zm-5.12-13.2a12 12 0 0 1-4.17-1.62 4 4 0 0 1-1.55-2.66 3.61 3.61 0 0 1 .83-3 6.82 6.82 0 0 1 3.29-2.07Zm-23.67 50.11c-1.83 1.06-3.48 2-5 2.86 6.23-5.87 10.46-12.53 12.2-18.75a28.51 28.51 0 0 1-2.23 9.75c-1.68 1.96-3.32 4.02-5 6.14Zm-43.91-2.32a26 26 0 0 1 4.47 14.68 26.38 26.38 0 0 1-1.23 7.93l-.87.14a34.36 34.36 0 0 0 1-8.07 33.33 33.33 0 0 0-3.4-14.68Zm3.42-3.06a25.25 25.25 0 0 0-20.45-11 2 2 0 0 0-.73.15 18.93 18.93 0 0 0-2.39-.15 19.19 19.19 0 0 0-2 .12c-.17-.61-.32-1.23-.53-1.84a40.83 40.83 0 0 0-8.68-15.06 18.84 18.84 0 0 1-.17-5.33c5.49-.32 9.91-2.37 12.58-5.91l2.27-2.4a11.76 11.76 0 0 0 1-1.09l.24-.25a3.5 3.5 0 0 1 .24-.3 12.92 12.92 0 0 0 1.59-2.83 30.43 30.43 0 0 1 5.73.94 14.48 14.48 0 0 0 3.74 1.2 39.24 39.24 0 0 1 9.47 5.34c6.13 4.65 10.59 10.68 12.57 17 1.89 6 1.27 11.51-1.74 15.51a26.38 26.38 0 0 1-1.85 2 17.18 17.18 0 0 1-10.92 3.9Zm-13.8 22.78a6.09 6.09 0 0 0-2.55-4q-2.16-1.59-7.5-2.79l-1.77-10.88a12.36 12.36 0 0 1 6.82.66l-.55-3.51q-2-.72-6.72 0l-.6-3.63-2.5.43.6 3.71a10.74 10.74 0 0 0-5.63 3.64 6.88 6.88 0 0 0-1.55 5.57 6.5 6.5 0 0 0 2.28 4.09c1.25 1.06 3.76 2 7.53 2.87l1.72 10.55a16.23 16.23 0 0 1-4.64.06 12.19 12.19 0 0 1-4.11-1.11l.58 3.58a14.29 14.29 0 0 0 5 .69c-3.51 1.22-9.28 3.39-8.7 3.11a27.3 27.3 0 0 1-6.37-18c0-13.31 8.49-24.14 18.93-24.14s18.93 10.83 18.93 24.14a30 30 0 0 1-1.39 9c-3.49.71-6.95 1.5-10.38 2.43a8.32 8.32 0 0 0 1.11-1.11 6.34 6.34 0 0 0 1.43-5.36Zm-8 6-1.52-9.32c3.34.93 5.17 2.35 5.48 4.24.38 2.33-.94 4.03-3.95 5.13Zm-4.79-13.59a10.52 10.52 0 0 1-3.8-1.71 4.37 4.37 0 0 1-1.43-2.75 4 4 0 0 1 .71-3.07 5.9 5.9 0 0 1 3-2.08Zm-66.59 3.31c-15-4.11-24.69-16.87-21.52-28.45 1.47-5.37 5.46-9.53 10.8-12.06a12.92 12.92 0 0 0 1.18 1.16l4.29 4.08a14.5 14.5 0 0 0 9.53 3.21 22.71 22.71 0 0 0 6.25-1 38.08 38.08 0 0 0 1.25 20.34c.07.21.16.41.23.61a22.85 22.85 0 0 0-9.74 12.59c-.75-.05-1.51-.23-2.26-.43Zm31.28-47.55c.31-.37.59-.74.88-1.12.34 0 .67-.08 1-.08a21.1 21.1 0 0 1 11.51 3.69 32.66 32.66 0 0 1 12.66 17c.25.76.45 1.52.65 2.27a27.55 27.55 0 0 0-9.79 13.08 40.84 40.84 0 0 0-7.53-3 37.24 37.24 0 0 0-24.18 1.2l-.43.2a32.71 32.71 0 0 1-.24-20.84 47.93 47.93 0 0 0 15.48-12.35Zm19.22 1.19c5.33 3.48 9.71 9.17 12.21 16.59.15.46.26.92.4 1.39-.34.12-.67.24-1 .38-.15-.49-.27-1-.44-1.48a38.22 38.22 0 0 0-11.16-16.83Zm-15.47-12.28a14.67 14.67 0 0 1-1.25-.95 47 47 0 0 1-6 9.16c-7 8.35-15.91 13.45-22.81 13.82 7.33-1.66 15.41-6.81 22.13-14.87a52.32 52.32 0 0 0 5.87-8.7c.69.5 1.39 1 2.1 1.43a1.17 1.17 0 0 1-.04.11Zm-28.54 61c1.5-5.51 5.69-10 11.8-12.54a30.2 30.2 0 0 1 11.75-2.29 36 36 0 0 1 16.88 4.26 35 35 0 0 0-.83 7.47 32.16 32.16 0 0 0 6.71 20c-3 1.33-5.91 2.72-8.8 4.23a78.11 78.11 0 0 0-13.91 9l-23.32-20.36a17.55 17.55 0 0 1-.28-9.79Zm134.39-95a18 18 0 0 0 2-1.52 44.53 44.53 0 0 0 4.22 2.68 17.33 17.33 0 0 0-3 .81 30.73 30.73 0 0 1-3.22-2Zm-7.3 36.17c1.92 10.27 7.39 18.71 14.32 23.52a22.61 22.61 0 0 1-5.5-3.72 33.49 33.49 0 0 1-10-18.71 33.87 33.87 0 0 1 2.25-20.5 39.35 39.35 0 0 0-1.07 19.38Zm-11.51-30.77a29.09 29.09 0 0 1 3.92-1 10 10 0 0 1 6.52 2.12 8.43 8.43 0 0 1 1.92 2.35c-5.63 6.77-8.33 17.09-6.64 28a49.32 49.32 0 0 1-6.39 6.31 39.35 39.35 0 0 0-11.17 3.88 41.47 41.47 0 0 0-12.39-14.84c-1.1-.84-2.23-1.59-3.37-2.31.74-.2 1.5-.43 2.27-.71 6.67-2.4 13.36-7.34 18.83-13.91a52.32 52.32 0 0 0 6.5-9.89Zm-10 6.93c-5 5.95-11 10.41-16.88 12.54a19.36 19.36 0 0 1-6.82 1.26c7.51-1.47 15.9-6.71 22.83-15a51.16 51.16 0 0 0 6.8-10.56c.34.15.68.3 1 .43a45.92 45.92 0 0 1-6.93 11.29Zm-4.38-4.14c-9.8 11.76-23.59 17.12-30.1 11.7-.19-.16-.36-.35-.53-.52a26.07 26.07 0 0 0-1.68-6c-.37-.9-.83-1.79-1.3-2.69 0-.57 0-1.15.08-1.75-.28.09-.57.15-.85.22v-.22c16.41-1.52 26.73-9.67 26.72-21.57v-1.07a45.39 45.39 0 0 0 3.56 4.26 43.87 43.87 0 0 0 10.27 8 47.2 47.2 0 0 1-6.17 9.6Zm-40.1-3.49c-10.35 0-18.9-3.18-23.79-8.27 6 4.43 14.42 7.21 23.79 7.21 10.37 0 19.61-3.4 25.63-8.69-4.65 7.01-15.76 9.71-25.63 9.71Zm37.06 85.67a20.59 20.59 0 0 1-6 .22 30.83 30.83 0 0 0-2.21-10.33 28.81 28.81 0 0 0 10.83-6.82 17.26 17.26 0 0 0 2.1-2.25c4.06-5.32 4.94-12.31 2.59-19.78a1 1 0 0 1-.06-.16 35.12 35.12 0 0 1 10.14-3.6 22.67 22.67 0 0 1 3.9-.35 14.59 14.59 0 0 1 5.23.88 36.35 36.35 0 0 0 5.89 9c.14 7-5 16.52-13.65 23.83-5.88 4.92-12.58 8.26-18.76 9.32Zm43.62-134.64c6.6.22 13.61 2.89 19.73 7.54s10.59 10.67 12.58 17a20.39 20.39 0 0 1 .88 8.7c-.16.09-.32.16-.48.26s-.11.1-.18.14l-.2.16a13.23 13.23 0 0 0-1.48 1.21l-3.14 2.58a14.7 14.7 0 0 0-5.8 7.83 21.48 21.48 0 0 1-3.47.51 21.34 21.34 0 0 0-13.42-2.48 39.82 39.82 0 0 1-7.14-3.91c3.32-3.9 4.3-9.64 2.72-16.36-1.63-6.9-5.77-14.11-11.68-20.3a18.16 18.16 0 0 1 11.08-2.92Zm-45.2-3.65a10.4 10.4 0 0 1 7.41-2.61 20.89 20.89 0 0 1 5.73.88c6 1.72 12.32 5.77 17.68 11.38s9.1 12.07 10.54 18.19c1.34 5.69.51 10.33-2.35 13s-7.52 3.34-13.14 1.73c-6-1.73-12.32-5.77-17.68-11.38s-9.1-12.08-10.54-18.2c-1.34-5.67-.51-10.31 2.35-13.03Zm4.89 34.39a47.76 47.76 0 0 0 16.58 11.52 36.2 36.2 0 0 1-17.6-10.55 38.61 38.61 0 0 1-6.85-9.87 17.64 17.64 0 0 0-2.07-5.57c-.14-.53-.3-1.06-.41-1.59a48.52 48.52 0 0 0 10.35 15.99Zm-40.37-24.36c11.74 0 21.82 4.71 26.08 11.39a34.88 34.88 0 0 0 2.06 5.58c0 .3 0 .61.07.91l-.11 2.55c-1.5 9.28-13.53 16.54-28.1 16.54-15.58 0-28.26-8.29-28.26-18.49s12.68-18.52 28.26-18.52Zm-41.94 32.51 2-2.1a13.13 13.13 0 0 1 7.62-2.23c2.68 11.22 15.42 19 32.28 19h.3a31.92 31.92 0 0 1 3.27 5.89c2.23 5.4 2.14 10.11-.24 13.25a1.49 1.49 0 0 0-.12.14l-1 1.05c-2.54 2.28-6.58 3.21-11.58 2.61-6.24-.74-13.09-3.73-19.27-8.42s-10.9-10.48-13.3-16.29c-2.1-5.27-2.08-9.8.04-12.94Zm-4.22 14.61c2.71 6.55 7.95 13 14.77 18.18a48 48 0 0 0 17.75 8.64c-.07.12-.16.23-.23.36-6.17-.73-12.85-3.61-18.85-8.17-6.17-4.68-10.84-10.51-13.15-16.42a21.15 21.15 0 0 1-1.44-6.06 30 30 0 0 0 1.15 3.43Zm-2.07 8.79-6.66 7a8.24 8.24 0 0 1-.53-3.56 4.88 4.88 0 0 1 1.41-2.65 4.57 4.57 0 0 1 2.73-1.45 4.75 4.75 0 0 1 3.05.62Zm-1.89-4.54c.14.35.32.71.47 1.06a8.22 8.22 0 0 0-2.11-.14 7.74 7.74 0 0 0-7.11 6.5c-.22 1.47.29 3.71 1.47 6.73l-7.31 7.7a10.85 10.85 0 0 1-2.31-3 9 9 0 0 1-1.15-3.39l-2.48 2.61a11.81 11.81 0 0 0 3.94 5.9l-3 3.14 1.55 1.38 3.1-3.26a9.53 9.53 0 0 0 5.73 1.67 7.11 7.11 0 0 0 4.84-2.32 6.61 6.61 0 0 0 1.86-4.18 16.14 16.14 0 0 0-1.51-6.66l7.21-7.61a43.93 43.93 0 0 0 3.06 4.2c0 .12.07.24.09.36l.11-.12a49.33 49.33 0 0 0 5.41 5.52 47 47 0 0 1-5.74 8.67c-9.8 11.77-23.59 17.12-30.1 11.7s-3.73-20 6.08-31.72c4.76-5.71 10.46-10 16.14-12.24a25.43 25.43 0 0 0 1.76 7.42Zm-7.07 22.6q-2.37 2.49-5.86.56l6.46-6.8q1.37 4.13-.6 6.2Zm-17.08-17.12c-9.68-1.78-16.54-4.82-19.54-7.47 4.91 2.85 12.46 5 20.35 6.32Zm-20.07-15.22c2.22-1.79 8.4-3.15 17.1-3.15a99.36 99.36 0 0 1 11.05.65 101.1 101.1 0 0 1 10.1 1.65 47.16 47.16 0 0 0-14 10.82c-16.74-2.31-25-7.44-24.82-9.27.02-.17.15-.42.57-.74Zm-17.33 16.78.09-.16c2.06-3.3 6.31-4.92 11.56-4.92.75 0 1.54 0 2.34.11l.79.09 1.24.17c4.25 3.19 11.12 5.7 18.74 7.29-4.56 8-6.24 16.1-4.78 22.4a53.55 53.55 0 0 0-20.55-1.7c-.31-.27-.63-.53-.93-.8l-.77-.73c-.76-.75-1.5-1.51-2.19-2.28-.16-.19-.31-.38-.47-.56-.73-.86-1.41-1.72-2-2.6l-.2-.3a32.13 32.13 0 0 1-1.78-2.92c-2.72-5.15-3.08-9.79-1.09-13.13Zm-4.68 11.22a28.08 28.08 0 0 0 1.7 4 33.37 33.37 0 0 0 1.84 3c.14.22.31.42.46.64.56.8 1.15 1.6 1.79 2.38.15.19.32.36.47.55.69.81 1.4 1.6 2.16 2.38a4.66 4.66 0 0 1-1.09.37c-4.44-4.66-7.08-9.45-7.33-13.36Zm-4.52 29.1c.8-7.45 11.58-12.81 24.61-12.81a50 50 0 0 1 5.14.27 47.2 47.2 0 0 1 7.78 1.54 22.92 22.92 0 0 0-10.16 13.24 30.2 30.2 0 0 0 .09 16.33l-2.6-1.64c-5.79-3.71-11.15-4.46-15.63-3.8a30.34 30.34 0 0 1-2.6-1.65c-4.69-3.51-7.04-7.57-6.63-11.52Zm3.53 14.83c-.35.17-.68.34-1 .52a16.86 16.86 0 0 1-1.81-3 26.43 26.43 0 0 0 2.81 2.44Zm294.05-14.84a3.39 3.39 0 0 0 1 .41 97.77 97.77 0 0 1 7.28 3.56 2.83 2.83 0 0 0 .66.26c-.22 5.06-.75 12.23-1.36 20.28-1.2 16-2.24 31.48-2.61 45-4.43-.4-11.46-1-21-1.67a48 48 0 0 0-35.7 12.45 22.8 22.8 0 0 1-2.74 2.28c-27 17.34-55 33.87-83.17 49.15a3.19 3.19 0 0 0-2.69.61c-3 2.4-7.41 3-11.31 3.35-4.2.33-9.65.5-14.57-1.18a46.8 46.8 0 0 1-5.9-2.66l-2.45-1.22a130.28 130.28 0 0 0-15.79-6l-31.46-10.34c-5.5-1.8-11.18-3.67-15.82-6.94a30.75 30.75 0 0 1-2.46-2c6.88 3.52 48.88 18.18 65.69 23.78a3.17 3.17 0 0 0 2-6c-24.14-8-61.77-21.53-64.86-23.42l-.6-.41c-10.45-7-12.89-9.1-13.42-9.7-15.34-17.29-29.74-36-43.67-54-.78-1-1.75-2.26-1.83-3.25a.93.93 0 0 1 .1-.37 3.27 3.27 0 0 0 1.24-.3A489.49 489.49 0 0 0 942 1192c12.35 10.57 27.77 15.54 42.69 20.34 9.24 3 18.79 6.05 27.43 10.41a3.17 3.17 0 0 0 4.25-1.39 3.17 3.17 0 0 0-1.39-4.26c-9.08-4.59-18.88-7.75-28.35-10.79-15-4.83-29.13-9.38-40.51-19.12a483.21 483.21 0 0 1-58.62-59.77 10.55 10.55 0 0 1-2.22-3.62c2.27-1.91 8.83-6.06 18.08-.13q2.14 1.38 4.3 2.71a111.33 111.33 0 0 1 14.62 10.24l38.4 33.52a34.19 34.19 0 0 0-7.23 11.72 9.27 9.27 0 0 0-.27 6.48c.74 1.87 2.79 4.7 8.43 4.7a21.27 21.27 0 0 0 3-.24c12.7-1.87 24.35-3.32 36.68-4.86 15.35-1.92 31.22-3.89 50.72-6.88a3.35 3.35 0 0 0 .64-.17c16.14-6.15 32.25-13 47.89-20.41a3.17 3.17 0 0 0-2.71-5.73c-15.39 7.27-31.24 14-47.12 20.1-19.25 2.94-35 4.9-50.21 6.8-12.36 1.54-24 3-36.82 4.88-2.85.42-4.45-.06-4.63-.52-.06-.14-.14-.64.36-2 2.86-8.13 10.07-15 22.71-21.58a156.45 156.45 0 0 1 50.51-16.27 3.17 3.17 0 0 0 2.79-.22c10-6 15.68-9 21.16-11.84 4.46-2.34 9.07-4.76 15.93-8.74a3.87 3.87 0 0 0 .92-.8c14.71-18.94 27.49-30.41 37-33.21a3.07 3.07 0 0 0 .76-.4c16.12-4.59 34.27-.59 48.75 3.66a172.68 172.68 0 0 1 19.53 6.78Zm-2.27-7.77c-5.38-2.06-10.66-3.72-15.49-5.14-3.56-1-7.25-2.09-11-3a11.8 11.8 0 0 0 1.63-.9c4.7-3.1 7.07-8.94 6.67-16.46-.37-7.08-3.17-14.91-7.88-22s-10.81-12.81-17.17-15.93c-4.5-2.22-8.79-3-12.54-2.35a26.09 26.09 0 0 0-1.1-7.64c6 1.2 10.77 3.69 16.23 6.54 2.12 1.11 4.3 2.25 6.64 3.36 7.32 3.48 15.1 6.78 23.63 6.78a32.38 32.38 0 0 0 3.51-.21c.57 5 1.16 9.94 1.71 14.93 1.49 13.73 3.09 27.97 5.16 41.98Z"/><path d="M1551.13 1145.56a3.18 3.18 0 0 0-.37 4.47c9.39 11.07 17.24 31.45 19.53 50.7a3.16 3.16 0 0 0 3.14 2.79h.38a3.17 3.17 0 0 0 2.77-3.53c-2.43-20.37-10.86-42.09-21-54a3.18 3.18 0 0 0-4.45-.43ZM1757.17 590.64c-29-6-60.66 2.26-84.72 22-22.48 18.43-37.85 46.57-42.17 77.19a3.17 3.17 0 1 0 6.27.88c4.1-29.06 18.65-55.73 39.92-73.18 22.6-18.53 52.29-26.26 79.43-20.68 27.53 5.67 53.2 25.16 70.42 53.48 13.78 22.67 22.56 50.43 27.64 87.35a3.16 3.16 0 0 0 3.13 2.74 3.25 3.25 0 0 0 .44 0 3.18 3.18 0 0 0 2.71-3.57C1855 699 1846 670.48 1831.73 647c-18.13-29.78-45.3-50.34-74.56-56.36ZM1116.57 314.45l28.07 1.3h.15a3.17 3.17 0 0 0 .15-6.33l-28.07-1.3a3.17 3.17 0 0 0-.3 6.33ZM1152.28 233.08l20.27 13.34a3.1 3.1 0 0 0 1.74.52 3.17 3.17 0 0 0 1.75-5.81l-20.28-13.35a3.17 3.17 0 0 0-3.48 5.3ZM1227.14 193.7a3.15 3.15 0 0 0 2.85 1.78 3.16 3.16 0 0 0 2.85-4.55L1222 168.58a3.17 3.17 0 0 0-5.7 2.77ZM1290.88 175.44a4.38 4.38 0 0 0 .51 0 3.16 3.16 0 0 0 3.12-2.67l4-25.22a3.16 3.16 0 1 0-6.25-1l-4 25.22a3.18 3.18 0 0 0 2.62 3.67Z"/></svg>