<svg id="Layer_1" data-name="Layer 1" xmlns="http://www.w3.org/2000/svg" viewBox="0 0 2742 1523"><defs><style>.cls-12,.cls-13,.cls-15,.cls-16,.cls-17,.cls-5{fill-rule:evenodd}.cls-5{fill:#fff}.cls-12{fill:#ffddc0}.cls-13{fill:#ffd358}.cls-15{fill:#62c7fe}.cls-16{fill:#44a089}</style></defs><path d="M0 0h2742v1523H0Z" style="fill-rule:evenodd;fill:#def2fd" id="Ñëîé_3" data-name="Ñëîé 3"/><g id="Ñëîé_2" data-name="Ñëîé 2"><path d="M1242.91 821s27.18-4.92 45.77-8.94 28.57-7.18 28.57-7.18l120.65 1.18 34.31 8 26.49 6.19 14.8 29.17 89.27 106s17.63 47.52 17.57 72.73-17.84 28.12-17.84 28.12l-93.41 36 4.41 87.11s-63.38 9.47-131.43 9.47-140.77-9.47-140.77-9.47l3-88.06-105.91-33.21s-15.87-2.92-16-27.73 15.52-71.5 15.52-71.5Z" style="fill:#e0654d;fill-rule:evenodd"/><path d="m1810.1 756.33 99.29-.37 11.95 14.86s10.53 2 22.76 2.85c15.7 1.14 35.39 1.67 51.86 6.61 29.31 8.8 42.61 25.71 42.61 25.71l2.3 262.9 1.16 110.45s-56.15 10.4-126.74 10.68-155.61-9.56-155.61-9.56l.81-29.93s-11.44 3.06-22.76-1.07c-7.45-2.71-15.18-10-18.34-18.1-9.58-24.5-15.49-63.79-21.13-97.75-6.12-36.89-13-70.37-15.31-102-1.59-21.87.3-44.45.94-60.09 1.68-41.31 27.89-52.4 54.57-64.24 29.87-13.26 60.46-24.67 60.46-24.67Z" style="fill:#abcadc;fill-rule:evenodd"/><path d="m805.52 785.7 118.39-4.48a408.49 408.49 0 0 0 45.91 19.42c30.12 10.52 66.12 21.36 76.18 48.54 14.42 39 17.24 102.91 22.35 159.82 8 89.31 13.22 169.26 13.22 169.26s-16.82 6.85-34.71 6.93-36.83-6.6-36.83-6.6l-18.25-117.48s-3.15 28.65-4 58.14.67 59.84.67 59.84-63 6.94-132.49 6.79-145.5-7.37-145.5-7.37l-5.37-139.89s-7.29 11.74-17.38 24.58c-10.38 13.21-23.88 27.4-47.79 16.86-19-8.4-43.43-36.43-65-59.62-31.85-34.19-58.34-65-58.34-65L541 898.62s40.12 34.21 50.54 43 47.32 36.81 47.32 36.81 7.18-19.43 14.61-43.24 15.11-52 15.11-52l61.33-80.51a382.51 382.51 0 0 1 40.52-9.09 252.07 252.07 0 0 0 35.09-7.89Z" style="fill:#c3dbc3;fill-rule:evenodd"/><path class="cls-5" d="m265.78 633.42 462.38-.51.35 249.77-462 .41ZM1140.07 841.64h462v248.76h-462ZM2005.31 809h461.43v248.82h-461.43Z"/><path d="m2020.2 822.61 431.54-.15.23 218.91-393.07-.08s16.67 12.45-7.35-1.18-30.33-30.62-30.33-30.62Z" style="fill:#ff9160;fill-rule:evenodd"/><path d="m1153.39 855.71 434.28.16-.19 220.24-432.65.24Z" style="fill:#ffb953;fill-rule:evenodd"/><path d="M283.7 649.89h428.12v218.54H283.7Z" style="fill:#bbbbf4;fill-rule:evenodd"/><path d="M1806.71 550.91c8.8-.68 13.79-6.55 22.21-10a74.1 74.1 0 0 1 35.72-4.34c22 3 38.1 11.27 50.65 17.36 12.09 5.86 21 9.63 21 9.63l-10.69 6s11.38 9.11 16.92 20.09 5.23 23.83 5.23 23.83L1934 600.65a88.55 88.55 0 0 1 3 23 92.15 92.15 0 0 1-4.11 23.08l-20.11 16.55-98.72 17.64-33.14-20.92s-7.06-15.87-9.34-28.89a62.25 62.25 0 0 1 .2-23.22l-13.78 1.84a226 226 0 0 0 11.08-20.28c4-8.3 6-16.92 12.72-24.5 6.53-7.33 18.82-13.58 24.91-14.04Z" style="fill:#b57f5e;fill-rule:evenodd"/><path d="M834.51 541.57c4.67-1.47 15-3 20.47-2.12 8.9 1.5 13.51 6.83 24.28 9.34 12.36 2.89 23.21-1.35 35.32 5.75 16.32 9.58 20.35 28.92 24.58 40.76 3.31 9.27 11.76 14.58 11.76 14.58l-10.27 1.47a156.69 156.69 0 0 1-1.64 22 71.63 71.63 0 0 1-5 16.74l-146.85 13.17s-19.38-21-19.3-43.43 19.61-46.15 19.61-46.15l-10.05-3s6.27-3.35 17.74-10c9.46-5.46 22.31-13.68 39.35-19.11Z" style="fill:#e17d54;fill-rule:evenodd"/><path d="M1319.24 590.44c11-7.49 28-17 44.64-20.24 43.11-8.32 53.81 19.68 53.81 19.68s10.91-.57 24.82 10.29c11.65 9.09 25.9 27.36 32.89 49.34 8.9 28-6.37 61-1 74.65 4.4 11.1 14.25 23.76 16.81 32.23 9.89 32.78-13.34 40.7-13.34 40.7s2.06-12.31.32-20.85a25.39 25.39 0 0 0-7.28-13.3s.47 21.23-5.82 30.08-19.35 5.32-19.35 5.32l-10.56 4.66-109.18-2.07-7.51-8.13s-9.83 6.44-18 6.41-13.63-7-13.63-7a52.86 52.86 0 0 1-12.41 1.94 39.6 39.6 0 0 1-11.31-1.77s16.36-8.39 18.16-24.59c1.4-12.6-7-26.2-12.65-43.19-3.78-11.4-5.85-25.39-4.56-37.64 4.28-41.35 36.24-83.58 55.15-96.52Z" style="fill:#e2b27f;fill-rule:evenodd"/><path class="cls-12" d="M784.9 649.84s12.78-1.94 21.43-11.76c2.74-3.09 8.28-16.14 8.28-16.14s6.1-.07 13.22-5c7.34-5.09 11.31-15 20.79-18.48 10.36-3.79 27.26 3.11 34.45 13.55 2.07 3 8.75 12.27 8.75 12.27s6.65 19.13 12.85 22.1c8.81 4.24 17.2-.38 24.26 1.74 3.53 1.08 8.52 5 9.47 10.24 1.32 7.31-3 19.48-8.64 24.43-5.9 5.22-13.11 3.25-14.23 12.12-2.07 16.19-4.11 38.94-3.59 55 .86 26.28 12.82 30.95 12.82 30.95s-10.57 12-25 26c-15.19 14.72-34.64 31.49-49.77 32-10.8.34-22.29-17-29-26.17-11.63-16-14.42-28.08-14.42-28.08s9.66-1.83 13-11.54.47-27.29.47-27.29-13.06-8.9-21.85-32.87c-4.44-12.1-5.9-28.21-8.12-41a184.56 184.56 0 0 0-5.17-22.07ZM422 845.17s2.7-13.52 10.81-7.72c6.25 4.46 3.67 32.26 3.67 32.26l14.35-17s14.92-4.45 20.42-2.53 1.59 10.21 1.59 10.21l-12 3.89-7.17 13.46 2.67 6.12 63.89-.08 9.63 6.41 14.71 13.87s.94 19.18-3.19 30.33S528 948.7 528 948.7s-26.41-25.33-33-28.2-41.39-1.13-41.39-1.13l-11.71-3.56-11.8-7.09a29.82 29.82 0 0 1-19.32-5.54c-6.22-4.68-13.93-14.92-19-21.7-6.31-8.41-9.26-13.36-8.81-17.76.54-5.33 3.13-6.4 7.82-2.84C397.54 866 407 878.11 407 878.11s2-23.57 3-32.55c1.52-13.91 12-.39 12-.39ZM1332.3 647.53a154.61 154.61 0 0 1 12.85-10.2c7.37-5.24 10.63-11.58 21.73-14.13 14-3.2 38.78 1.49 53 16.45 4.34 4.56 3.68 21.78 6.82 28.43 5.76 12.21 18.44 18.91 21.37 30.67 3.86 15.49-14.45 12-17.22 21.34s-9.76 24.24-11.92 33c-2.36 9.56-3.54 28 2.84 40.38 4.15 8 16.6 12.94 16.6 12.94s-24 25.23-63.35 24.59c-37.25-.61-55.87-25.5-55.87-25.5s11.21-3.34 15.59-14.55 1.93-30.26 1.93-30.26-6.78-8.55-11.23-15.18a86.83 86.83 0 0 1-6.58-11.35l-3.91-19.4s-9.91-6.77-12.9-15.15.91-18.36.91-18.36a47 47 0 0 0 16.19-11.94c7.33-8.45 13.15-21.78 13.15-21.78ZM1154.68 840.48s1.76-10 6.3-14.25 11.87-2.59 11.87-2.59 3.61-4.83 7.65-6.09 8.53 1.05 8.53 1.05 3.8-7.76 10-8.59 14.66 5.27 14.66 5.27 12.24-16.81 19.32-13.63c2.83 1.26 9.58 2.83 11 7.73 2.08 7.35-2 18.59-2 18.59s11.33-1.52 14.45 1.87-2 11.67-2 11.67l-17.65.09s-3.47 10.7-8.17 13-10.63-3.75-10.63-3.75-.94 12.32-8.27 12.43c-4.4.06-9.27-11.1-9.27-11.1s-2.09 12.33-8.29 12.43c-4.1.08-7.54-8-7.54-8s-5.51 7.13-10.64 3.2-9.86-18.89-9.86-18.89ZM1859.38 606.06s1.58 7.14-1 17.7-9.27 24.54-9.27 24.54 7-.41 14.23-6.55 14.82-18 14.82-18l3.19 6.09s7-5.85 9.75-13.42 1.4-16.89 1.4-16.89a37 37 0 0 1 17.58 20.43c5.49 15 4.4 39.69 4.4 39.69l9.19-8.54 4.64-5.32a13.85 13.85 0 0 1 8.21 13.75c-.57 13-12.41 22.09-12.41 22.09l-4.91 32.33-14.7 22.91 5.17 32.34-6.86 14.2-11.81 15.51s-1.48 15.73-3.93 24-5.86 9.1-5.86 9.1l-5.63-10.88s-.93-14.68-9.73-19.3c-10.13-5.31-26.4-10.19-37.85-18.8-9.93-7.48-15.85-19.16-15.85-19.16s2.94-17 .87-32.33-9.16-29-9.16-29a14.57 14.57 0 0 0-6.39-5.87c-6.91-3.08-17.6-6.82-20-24.76-.52-4 1.69-9.36 4.66-11.46 5-3.5 12.08-2.25 12.08-2.25a62.27 62.27 0 0 0 9.3 11.5 35.44 35.44 0 0 0 10.63 6.5s-2-14.15-1.8-25.21a74 74 0 0 1 2.83-19s13.36-1.29 24.41-7.76 19.8-18.18 19.8-18.18ZM1920.93 1014.14s20-9 54.92-18.85c4.58-1.3 11.5-3.07 17-2.35 12.9 1.71 25.7 9.71 38.19 16 11.18 5.67 20.82 9.86 25.69 15.2s-9.32 10.6-9.32 10.6a232.58 232.58 0 0 0 30.16 13.21c15.13 5.23 31.41 8 35.12 12.14 2.25 2.54 3.19 9.47-1.06 10.73-5.62 1.66-12.24-.22-20-1.33a119.73 119.73 0 0 0-14.07-.83s-30.75.75-49.78-1.72c-20.83-2.69-47.48-14-64.14-14.68-9-.36-30.33 9.21-30.33 9.21a94.85 94.85 0 0 0-3.11-21.24c-3.13-11.81-9.27-26.09-9.27-26.09ZM1586.07 839.82s-1.76-10.05-6.3-14.25-11.88-2.59-11.88-2.59-3.6-4.83-7.64-6.09-8.54 1.05-8.54 1.05-3.79-7.76-10-8.59-14.66 5.27-14.66 5.27-12.24-16.81-19.32-13.63c-2.83 1.27-9.58 2.84-11 7.73-2.08 7.36 2 18.59 2 18.59s-11.33-1.51-14.45 1.87 2 11.67 2 11.67l17.65.09s3.47 10.71 8.17 13 10.63-3.74 10.63-3.74.94 12.31 8.27 12.42c4.39.06 9.27-11.1 9.27-11.1s2.09 12.33 8.29 12.44c4.1.06 7.54-8.06 7.54-8.06s5.51 7.13 10.64 3.2 9.85-18.89 9.85-18.89ZM2352.11 807.31s-2-11.26-7.06-16-13.31-2.89-13.31-2.89-4-5.42-8.57-6.83-9.56 1.17-9.56 1.17-4.27-8.69-11.17-9.62-16.44 5.9-16.44 5.9-13.71-18.84-21.65-15.28c-3.17 1.42-10.74 3.18-12.29 8.67-2.34 8.25 2.21 20.84 2.21 20.84s-12.69-1.7-16.2 2.1 2.2 13.08 2.2 13.08l19.79.1s3.89 12 9.16 14.61 11.91-4.2 11.91-4.2 1.06 13.8 9.27 13.92c4.93.07 10.39-12.43 10.39-12.43s2.35 13.82 9.29 13.93c4.61.08 8.46-9 8.46-9s6.18 8 11.92 3.58 11.05-21.17 11.05-21.17Z"/><path class="cls-13" d="M313.25 837.19c0-15.18 13-27.47 29-27.47s29 12.29 29 27.47-13 27.46-29 27.46-29-12.29-29-27.46ZM1201.75 1049.82c0-15.46 13.55-28 30.27-28s30.26 12.54 30.26 28-13.55 28-30.26 28-30.27-12.53-30.27-28ZM2078.9 1018.6c0-15.77 13.16-28.56 29.39-28.56s29.4 12.79 29.4 28.56-13.16 28.56-29.4 28.56-29.39-12.78-29.39-28.56Z"/><path d="M324.77 859.24s8.15 4.81 17.18 4.74 18.95-5 18.95-5l4.93 44.11L342 888.4l-21.6 13.84Z" style="fill:#dc573d;fill-rule:evenodd"/><path class="cls-15" d="m1207.47 1066.07 9.13 7.84 9.59 3.29-15.35 42.49-11.4-18.52-21.74 1.71ZM1238.05 1077.75l11-4.48 8.1-7.34 27.43 37.27-20.49-1.59-11.36 17.93Z"/><path class="cls-16" d="M2085 1038.19s11.26 8.09 22.57 8 22.67-8.23 22.67-8.23l25.77 38.2-22.15-3.9-11.47 19.56-12.81-41.61-3.3-.62-1.59 7.46-25.89-7.37ZM2084.75 985.41a23.3 23.3 0 0 1 6-4.18 15.74 15.74 0 0 1 6.38-1.11l5.58 10.06-13.87 6.1ZM2117.5 980s4.83-.33 7.86.88a8.41 8.41 0 0 1 4.25 4l-4.18 10.5-12.33-5.43Z"/><path d="M1238.88 843.84a2.86 2.86 0 1 1 0-5.71h263.59a2.93 2.93 0 0 1 2.94 2.86 2.79 2.79 0 0 1-2.78 2.85ZM1602.06 1093.32h-325.51a2.86 2.86 0 0 1 0-5.71h322.65V843.82l-21.77.21a2.86 2.86 0 1 1 0-5.71l24.65-.24a3.51 3.51 0 0 1 2 .83 2.86 2.86 0 0 1 .85 2v249.53a2.86 2.86 0 0 1-2.87 2.88ZM1240.83 1093.32h-19.12a2.86 2.86 0 1 1 0-5.71h19.12a2.86 2.86 0 0 1 0 5.71ZM1187.84 1093.32h-48.07a2.85 2.85 0 0 1-2.85-2.85V840.94a2.86 2.86 0 0 1 2.84-2.86l24-.1a2.86 2.86 0 0 1 0 5.72l-21.2.08v243.83h45.18a2.86 2.86 0 0 1 0 5.71Z"/><path d="M1178.44 864.33a10.46 10.46 0 0 1-5.18-1.53c-4-2.26-7.39-10.27-11.61-22.47-.37-1.08-.67-2-.87-2.5a2.84 2.84 0 0 1-.64-1.8 3 3 0 0 1 2.41-2.93c2.49-.42 3 1.15 4.5 5.36 4.06 11.76 7.1 18.28 9 19.37 1.39.79 2.56 1 3.17.56a3.22 3.22 0 0 0 .77-3.1c-2.57-13.73-6-24.92-8.81-28.5a4.57 4.57 0 0 0-4.18-.79c-4.14 1-7.27 5.94-8.6 13.47a2.86 2.86 0 0 1-5.63-1c2.39-13.5 9.08-17.09 12.86-18 3.93-1 8.1.17 10.14 2.78 5 6.48 8.86 25.34 9.91 31a8.73 8.73 0 0 1-3.06 8.79 7.12 7.12 0 0 1-4.18 1.29Z"/><path d="M1192.66 868c-3.4 0-6.57-2.45-8.68-6.79-3.62-7.5-4.68-26.75-4.79-28.92a2.87 2.87 0 0 1 2.71-3 2.8 2.8 0 0 1 3 2.71c.28 5.58 1.58 21.24 4.22 26.71 1.15 2.36 2.62 3.77 3.79 3.55s2.46-1.9 2.73-4.65c1.41-9.84 2.75-25 1.35-28.23-1.93-4.52-10.4-9.71-14.68-9.82-2 0-5.73 4.19-6.49 5.85a2.85 2.85 0 1 1-5.19-2.38c.94-2.06 6-9.2 11.86-9.18 6.22.16 16.93 6.62 19.78 13.27 2.53 5.9-.33 27-.93 31.18-.49 5-3.47 8.88-7.4 9.58a6.67 6.67 0 0 1-1.28.12Z"/><path d="M1210.3 866.67c-3.4 0-6.64-2.48-8.65-6.71-2.92-6.14-2.84-21.57-1.79-34a2.86 2.86 0 1 1 5.69.48c-1.2 14.19-.69 26.95 1.25 31 1.23 2.58 2.75 3.61 3.71 3.43 1.21-.18 2.77-2.3 3.31-6.5.26-2 .61-4.31 1-6.77 1.23-8.27 3.08-20.78 1.76-24.14-1.72-4.36-8.6-8.23-13.63-10.77a4.73 4.73 0 0 0-3.87-.38c-3 1-5.48 5-6.1 6.36a2.86 2.86 0 0 1-5.17-2.44c.35-.74 3.59-7.31 9.41-9.31a10.43 10.43 0 0 1 8.3.67c6.36 3.21 14 7.67 16.37 13.77 1.75 4.44.52 14-1.42 27.08-.36 2.43-.7 4.7-1 6.67-.85 6.47-3.86 10.74-8.08 11.41a6.91 6.91 0 0 1-1.09.15Z"/><path d="M1226.3 858.1a10.69 10.69 0 0 1-5.66-1.81c-6.29-3.91-1.81-25.27 3.06-42.5a2.86 2.86 0 0 1 5.5 1.56c-4.85 17.15-7.31 33.73-5.39 36.22 1.9 1.15 3 .8 3.31.69 1.53-.5 3.08-2.55 4.36-5.77 7-17.48 10.84-31.45 10.4-34.37-.72-4.8-7.38-8.4-10-8.43-3.84 0-11.43 7.52-15.45 13a2.86 2.86 0 1 1-4.6-3.39c1.16-1.57 11.52-15.29 20.06-15.29h.11c4.78.06 14.32 5.15 15.55 13.3 1.13 7.5-10.26 36.11-10.75 37.33-2 4.95-4.63 8-7.88 9.07a8.23 8.23 0 0 1-2.62.39Z"/><path d="M1253.14 843.11a2.85 2.85 0 0 1-1.63-5.2c2.45-1.7 3.46-3.93 3.38-5.39-.05-.92-.49-1.16-.64-1.24-4.65-2.51-11.57-.53-11.63-.51a2.86 2.86 0 0 1-1.63-5.48c.37-.11 9.23-2.68 16 1a7 7 0 0 1 3.62 6c.21 3.78-2 7.76-5.83 10.39a2.78 2.78 0 0 1-1.64.43ZM1495.75 822.46a3.34 3.34 0 0 1-.7-.08c-5.46-1.37-11.52-2.63-17.93-4-23.12-4.8-49.44-10.28-58.12-23.38-5.16-7.83-4.64-25.57-3.46-41.89l.13-1.78a2.91 2.91 0 0 1 3-2.65 2.84 2.84 0 0 1 2.65 3l-.12 1.8c-.62 8.5-2.26 31.07 2.53 38.34 7.35 11.17 32.38 16.39 54.47 21 6.48 1.35 12.59 2.62 18.16 4a2.86 2.86 0 0 1-.69 5.63Z"/><path d="M1244.12 824.35a2.86 2.86 0 0 1-.7-5.63c6.71-1.68 15.41-3.26 24.63-4.93 23.71-4.31 56.19-10.21 63.06-20.66 4.34-6.59 3.1-20.26 2.36-28.42-.13-1.5-.26-2.85-.33-4a2.85 2.85 0 0 1 2.66-3 2.88 2.88 0 0 1 3 2.66c.07 1.1.19 2.4.32 3.85.86 9.49 2.16 23.82-3.28 32.08-8.22 12.5-39.35 18.15-66.81 23.14-9.12 1.66-17.74 3.22-24.26 4.85a2.78 2.78 0 0 1-.65.06ZM1240.71 1182.82h-.1a2.87 2.87 0 0 1-2.76-3c0-.53 1.81-54 3.72-81.76a2.89 2.89 0 0 1 3-2.66 2.86 2.86 0 0 1 2.66 3c-1.9 27.71-3.69 81-3.71 81.57a2.86 2.86 0 0 1-2.81 2.85ZM1513.83 1182.75a2.85 2.85 0 0 1-2.85-2.7c0-.62-3.38-62.37-5.45-87.23a2.86 2.86 0 0 1 2.61-3.09 2.82 2.82 0 0 1 3.08 2.61c2.08 25 5.43 86.78 5.47 87.41a2.87 2.87 0 0 1-2.7 3ZM1502.45 982.79h-258.81a2.86 2.86 0 0 1 0-5.71h258.81a2.86 2.86 0 0 1 0 5.71Z"/><path class="cls-17" d="M1264 956.12a7.89 7.89 0 0 1-.69 3 10.71 10.71 0 0 1-2.19 3.22 10.89 10.89 0 0 1-3.81 2.57 13.45 13.45 0 0 1-5.4 1 18.6 18.6 0 0 1-4.25-.45 11.36 11.36 0 0 1-6.35-3.85 14.61 14.61 0 0 1-2-3.11 15.64 15.64 0 0 1-1.24-3.68 19.73 19.73 0 0 1-.42-4.15 18.46 18.46 0 0 1 1-6.39 13.79 13.79 0 0 1 3-4.83 13.12 13.12 0 0 1 4.54-3 14.64 14.64 0 0 1 5.54-1.05 13.91 13.91 0 0 1 6.39 1.43 11.6 11.6 0 0 1 4.29 3.54 6.93 6.93 0 0 1 1.49 4 2.6 2.6 0 0 1-.72 1.81 2.33 2.33 0 0 1-1.75.79 2.41 2.41 0 0 1-1.73-.55 7.45 7.45 0 0 1-1.28-1.87 8.88 8.88 0 0 0-2.75-3.29 6.74 6.74 0 0 0-3.9-1.08 7 7 0 0 0-5.87 2.8q-2.19 2.81-2.19 8a14.71 14.71 0 0 0 1 5.73 7.2 7.2 0 0 0 2.74 3.42 7.56 7.56 0 0 0 4.15 1.13 7.35 7.35 0 0 0 4.37-1.28 7.79 7.79 0 0 0 2.68-3.76 6.55 6.55 0 0 1 .95-1.91 2.14 2.14 0 0 1 1.81-.73 2.53 2.53 0 0 1 1.84.75 2.46 2.46 0 0 1 .75 1.79ZM1288.87 940.52h-13.48v7.25h12.42a3 3 0 0 1 2 .62 2.09 2.09 0 0 1 .68 1.62 2.22 2.22 0 0 1-.67 1.65 2.89 2.89 0 0 1-2 .63h-12.42v8.4h13.95a3 3 0 0 1 2.12.66 2.22 2.22 0 0 1 .72 1.74 2.18 2.18 0 0 1-.72 1.7 3 3 0 0 1-2.12.66h-16.26a3.14 3.14 0 0 1-3.68-3.67v-22.21a4.86 4.86 0 0 1 .39-2.1 2.32 2.32 0 0 1 1.2-1.19 5 5 0 0 1 2.09-.37h15.79a3.08 3.08 0 0 1 2.13.63 2.14 2.14 0 0 1 .7 1.66 2.17 2.17 0 0 1-.7 1.68 3 3 0 0 1-2.14.64ZM1305 952.82h-2.1v9.49a3.91 3.91 0 0 1-.83 2.76 2.8 2.8 0 0 1-2.15.89 2.77 2.77 0 0 1-2.22-.93 4.14 4.14 0 0 1-.78-2.72v-22.74a3.13 3.13 0 0 1 3.66-3.66h9.74a28.25 28.25 0 0 1 3.44.17 8.43 8.43 0 0 1 2.58.69 7.5 7.5 0 0 1 2.46 1.67 7.59 7.59 0 0 1 1.63 2.53 8.43 8.43 0 0 1 .57 3.03 7.36 7.36 0 0 1-1.87 5.28 10.71 10.71 0 0 1-5.65 2.8 10.64 10.64 0 0 1 3 2.5 24.43 24.43 0 0 1 2.59 3.51 27.54 27.54 0 0 1 1.78 3.37 6.67 6.67 0 0 1 .63 2.07 2.08 2.08 0 0 1-.37 1.15 2.57 2.57 0 0 1-1 .91 3.21 3.21 0 0 1-1.49.34 2.86 2.86 0 0 1-1.69-.48 4.65 4.65 0 0 1-1.18-1.2c-.33-.48-.78-1.19-1.34-2.13l-2.4-4a21.68 21.68 0 0 0-2.31-3.34 5.6 5.6 0 0 0-2.06-1.57 7.16 7.16 0 0 0-2.64-.39Zm3.42-12.42h-5.52v8.12h5.36a15.48 15.48 0 0 0 3.63-.37 4.27 4.27 0 0 0 2.25-1.27 3.69 3.69 0 0 0 .77-2.47 3.72 3.72 0 0 0-2.35-3.57 12.75 12.75 0 0 0-4.16-.44ZM1343.75 940.84h-6.53v21.47a4 4 0 0 1-.82 2.75 3 3 0 0 1-4.3 0 3.88 3.88 0 0 1-.84-2.74v-21.48h-6.53a3.32 3.32 0 0 1-2.28-.67 2.52 2.52 0 0 1 0-3.6 3.38 3.38 0 0 1 2.25-.66h19a3.39 3.39 0 0 1 2.31.68 2.33 2.33 0 0 1 .75 1.8 2.25 2.25 0 0 1-.76 1.78 3.4 3.4 0 0 1-2.25.67ZM1350.6 962.31V939a3.92 3.92 0 0 1 .83-2.72 2.74 2.74 0 0 1 2.14-.91 2.86 2.86 0 0 1 2.19.9 3.91 3.91 0 0 1 .83 2.73v23.28a4 4 0 0 1-.83 2.74 2.87 2.87 0 0 1-2.19.91 2.76 2.76 0 0 1-2.13-.92 4 4 0 0 1-.84-2.7ZM1380.94 940.52h-11.79v7.56h9.85a2.94 2.94 0 0 1 2 .61 2.32 2.32 0 0 1 0 3.28 3 3 0 0 1-2 .6h-9.85v9.74a3.92 3.92 0 0 1-.84 2.75 3 3 0 0 1-4.32 0 4 4 0 0 1-.83-2.74v-22.75a5 5 0 0 1 .38-2.1 2.4 2.4 0 0 1 1.2-1.19 5 5 0 0 1 2.09-.37h14.11a3.07 3.07 0 0 1 2.12.63 2.14 2.14 0 0 1 .69 1.66 2.16 2.16 0 0 1-.69 1.68 3 3 0 0 1-2.12.64ZM1388.45 962.31V939a3.92 3.92 0 0 1 .83-2.72 2.74 2.74 0 0 1 2.14-.91 2.84 2.84 0 0 1 2.18.9 3.86 3.86 0 0 1 .84 2.73v23.28a3.92 3.92 0 0 1-.84 2.74 2.84 2.84 0 0 1-2.18.91 2.76 2.76 0 0 1-2.13-.92 4 4 0 0 1-.84-2.7ZM1426.3 956.12a7.74 7.74 0 0 1-.7 3 10.86 10.86 0 0 1-2.18 3.22 11 11 0 0 1-3.81 2.57 13.48 13.48 0 0 1-5.4 1 18.6 18.6 0 0 1-4.25-.45 11.62 11.62 0 0 1-3.48-1.38 11.83 11.83 0 0 1-2.87-2.47 14.64 14.64 0 0 1-2-3.11 16.6 16.6 0 0 1-1.24-3.68 20.42 20.42 0 0 1-.41-4.15 18.46 18.46 0 0 1 1-6.39 13.64 13.64 0 0 1 3-4.83 13.08 13.08 0 0 1 4.53-3 14.69 14.69 0 0 1 5.55-1.05 13.91 13.91 0 0 1 6.39 1.43 11.77 11.77 0 0 1 4.29 3.54 7 7 0 0 1 1.49 4 2.56 2.56 0 0 1-.73 1.81 2.3 2.3 0 0 1-1.75.79 2.39 2.39 0 0 1-1.72-.55 7.45 7.45 0 0 1-1.28-1.87 9.08 9.08 0 0 0-2.75-3.29 6.76 6.76 0 0 0-3.9-1.08 7 7 0 0 0-5.87 2.8c-1.47 1.87-2.19 4.52-2.19 8a14.91 14.91 0 0 0 1 5.73 7.26 7.26 0 0 0 2.74 3.42 7.62 7.62 0 0 0 4.16 1.13 7.32 7.32 0 0 0 4.36-1.28 7.81 7.81 0 0 0 2.69-3.76 6.31 6.31 0 0 1 1-1.91 2.13 2.13 0 0 1 1.81-.73 2.54 2.54 0 0 1 1.84.75 2.46 2.46 0 0 1 .68 1.79ZM1450.59 962.1l-1.41-3.7h-12l-1.41 3.79a13.42 13.42 0 0 1-1.41 3 2.24 2.24 0 0 1-1.91.78 2.82 2.82 0 0 1-2-.83 2.52 2.52 0 0 1-.86-1.88 4.37 4.37 0 0 1 .19-1.25c.14-.43.36-1 .67-1.79L1438 941c.22-.55.47-1.21.78-2a10.19 10.19 0 0 1 1-1.93 3.76 3.76 0 0 1 1.36-1.23 4.05 4.05 0 0 1 2.06-.48 4.2 4.2 0 0 1 2.09.48 4 4 0 0 1 1.34 1.21 8.31 8.31 0 0 1 .87 1.61c.24.57.53 1.33.9 2.28l7.72 19.07a9.61 9.61 0 0 1 .9 3.16 2.62 2.62 0 0 1-.85 1.89 2.82 2.82 0 0 1-2.07.86 2.67 2.67 0 0 1-1.21-.26 2.52 2.52 0 0 1-.84-.68 6.22 6.22 0 0 1-.74-1.34c-.31-.55-.53-1.08-.72-1.54Zm-11.85-8.2h8.82l-4.45-12.19ZM1476.93 940.84h-6.53v21.47a4 4 0 0 1-.83 2.75 3 3 0 0 1-4.3 0 3.92 3.92 0 0 1-.84-2.74v-21.48h-6.53a3.32 3.32 0 0 1-2.28-.67 2.52 2.52 0 0 1 0-3.6 3.39 3.39 0 0 1 2.25-.66h19a3.36 3.36 0 0 1 2.3.68 2.31 2.31 0 0 1 .76 1.8 2.26 2.26 0 0 1-.77 1.78 3.38 3.38 0 0 1-2.23.67ZM1503 940.52h-13.49v7.25h12.41a3 3 0 0 1 2 .62 2.09 2.09 0 0 1 .68 1.62 2.22 2.22 0 0 1-.67 1.65 2.9 2.9 0 0 1-2.06.63h-12.41v8.4h14a3 3 0 0 1 2.12.66 2.22 2.22 0 0 1 .72 1.74 2.18 2.18 0 0 1-.72 1.7 3 3 0 0 1-2.12.66h-16.26a3.83 3.83 0 0 1-2.81-.87 3.88 3.88 0 0 1-.86-2.8v-22.21a4.86 4.86 0 0 1 .39-2.1 2.32 2.32 0 0 1 1.2-1.19 5 5 0 0 1 2.08-.37h15.8a3.07 3.07 0 0 1 2.12.63 2.14 2.14 0 0 1 .7 1.66 2.17 2.17 0 0 1-.7 1.68 3 3 0 0 1-2.12.64Z"/><path d="M1437.27 1060.45a8.13 8.13 0 0 1-4.31-1 7.49 7.49 0 0 1-3.72-6.26c-9.33 4-18.2 6.65-24 6.25-4.76-.37-6.57-2.63-7.26-4.46a7.49 7.49 0 0 1-.28-3.79c-6.32 4.55-13.69 8.61-20.39 9.1-4.11.31-6.14-1.4-7.15-2.87a8.52 8.52 0 0 1-1.28-5c-3.88 2.77-8.73 5.84-12.51 6.94-5.55 1.62-7.82-.21-8.75-2-2.2-4.28 2.66-10.83 8.11-15.1a2.85 2.85 0 1 1 3.52 4.49c-3.92 3.08-5.81 6.09-6.33 7.55a10.53 10.53 0 0 0 1.85-.38c5.12-1.49 14.07-8.41 17.08-11a2.86 2.86 0 0 1 4.42 3.41c-1.31 2.78-2.18 6.74-1.39 7.89.33.48 1.63.43 2 .41 11.63-.85 27.08-15.79 31.09-19.85.39-.42.75-.78 1-1.08a2.85 2.85 0 0 1 4.12 3.95c-.1.11-.5.54-1.15 1.2-5.35 5.71-9.39 12.24-8.67 14.16.11.29.89.65 2.34.76 5.92.47 15.84-3.12 25.85-7.92 5.67-9.69 20.44-20.79 28.39-23.75 1.39-.52 5.6-2.08 8.18.39a4 4 0 0 1 .74 4.76c-2.22 5-17.49 15.41-33.22 23-.06.12-.11.25-.16.36-1.17 2.93-.12 3.58.5 4 1.21.75 6.31-.53 10-1.46a103.21 103.21 0 0 1 10.73-2.29c4-.57 8.66-.35 16.3 0 7.93.38 19.9 1 38.41 1a2.86 2.86 0 1 1 0 5.71c-18.65 0-30.7-.59-38.68-1-7.31-.35-11.72-.56-15.22-.07a101.63 101.63 0 0 0-10.15 2.18c-3.81.92-7.21 1.77-10.01 1.77Zm-84.48-5.55Zm108.47-27.31c-4 1.73-10.41 6-15.92 10.83 6.91-4.04 12.78-8.04 15.92-10.83ZM1562.71 864a7 7 0 0 1-4.13-1.3 8.71 8.71 0 0 1-3-8.78c1-5.62 4.85-24.47 9.91-31 2-2.61 6.19-3.76 10.14-2.77 3.77.93 10.46 4.51 12.85 18a2.85 2.85 0 1 1-5.62 1c-1.33-7.54-4.47-12.45-8.61-13.47a4.55 4.55 0 0 0-4.25.74c-2.76 3.54-6.3 15-8.81 28.51a3.23 3.23 0 0 0 .76 3.09c.62.45 1.78.24 3.18-.55 1.92-1.09 5-7.61 9-19.37 1.46-4.2 2-5.78 4.5-5.36a3 3 0 0 1 2.41 2.93 2.89 2.89 0 0 1-.63 1.8c-.21.55-.51 1.42-.88 2.5-4.22 12.2-7.63 20.21-11.61 22.46a10.49 10.49 0 0 1-5.21 1.57Z"/><path d="M1548.5 867.65a6.71 6.71 0 0 1-1.26-.11c-3.93-.7-6.91-4.6-7.42-9.71-.58-4.05-3.44-25.15-.91-31.05 2.85-6.65 13.56-13.11 19.79-13.27 5.74-.08 10.92 7.12 11.86 9.19a2.85 2.85 0 0 1-5.19 2.37c-.76-1.66-4.66-5.77-6.53-5.85-4.28.11-12.74 5.3-14.68 9.81-1.4 3.26-.06 18.4 1.33 28.11.29 2.88 1.63 4.58 2.75 4.78s2.65-1.19 3.79-3.56c2.64-5.46 4-21.13 4.22-26.7a2.86 2.86 0 0 1 5.71.28c-.11 2.17-1.17 21.42-4.79 28.91-2.1 4.34-5.28 6.8-8.67 6.8Z"/><path d="M1530.85 866.33a6.8 6.8 0 0 1-1.1-.09c-4.22-.67-7.24-4.93-8.08-11.4-.25-2-.59-4.19-.94-6.59-2-13.1-3.19-22.71-1.44-27.16 2.41-6.11 10-10.57 16.37-13.77a10.5 10.5 0 0 1 8.31-.68c5.81 2 9 8.58 9.4 9.32a2.85 2.85 0 1 1-5.16 2.44c-.68-1.42-3.11-5.33-6.12-6.36a4.71 4.71 0 0 0-3.86.38c-5 2.53-11.9 6.4-13.63 10.77-1.32 3.36.54 15.92 1.77 24.22.37 2.43.7 4.71 1 6.69.55 4.19 2.1 6.31 3.31 6.5 1 .17 2.48-.85 3.71-3.43 1.94-4.08 2.45-16.84 1.25-31a2.86 2.86 0 1 1 5.69-.48c1 12.4 1.13 27.83-1.78 34-2.06 4.16-5.3 6.64-8.7 6.64Z"/><path d="M1514.85 857.76a8.27 8.27 0 0 1-2.6-.42c-3.25-1.07-5.9-4.12-7.88-9.07-.49-1.22-11.88-29.84-10.75-37.34 1.23-8.14 10.77-13.23 15.56-13.3h.1c8.54 0 18.91 13.73 20.07 15.3a2.86 2.86 0 0 1-4.6 3.39c-4-5.45-11.61-13-15.46-13-2.6 0-9.25 3.62-10 8.44-.44 2.9 3.41 16.87 10.4 34.36 1.29 3.22 2.84 5.26 4.36 5.76.35.11 1.41.47 3.46-.81 1.77-2.36-.69-19-5.53-36.1a2.85 2.85 0 0 1 5.49-1.55c4.87 17.22 9.35 38.58 3.06 42.5a10.73 10.73 0 0 1-5.68 1.84Z"/><path d="M1488 842.77a2.8 2.8 0 0 1-1.62-.51c-3.8-2.64-6-6.62-5.83-10.4a7 7 0 0 1 3.63-6c6.74-3.64 15.6-1.07 16-1a2.86 2.86 0 0 1-1.62 5.48c-.07 0-7-2-11.64.51-.14.08-.59.32-.64 1.24-.08 1.46.94 3.69 3.38 5.39a2.85 2.85 0 0 1-1.63 5.2ZM1378.79 833.37a94.69 94.69 0 0 1-13.34-1c-24.81-3.54-43.77-15.7-49-25.36a2.85 2.85 0 1 1 5-2.72c4.53 8.36 23 19.31 44.79 22.43 15.44 2.19 45.14 2.06 70.5-23.56a2.86 2.86 0 1 1 4.06 4c-16.92 17.16-38.57 26.21-62.01 26.21ZM1139.28 1061.33a2.91 2.91 0 0 1-1-.2c-11.56-4.5-17.86-12.49-18.74-23.77-1.54-19.74 4-46.9 17.48-85.46a2.86 2.86 0 1 1 5.39 1.89c-8.3 23.77-19.12 58.26-17.18 83.12.71 9 5.65 15.21 15.13 18.9a2.86 2.86 0 0 1-1 5.52ZM1603.31 1059.33a2.86 2.86 0 0 1-1-5.52c9.47-3.69 14.41-9.87 15.12-18.89 1.94-24.85-8.87-59.34-17.18-83.12a2.85 2.85 0 1 1 5.39-1.88c13.47 38.56 19 65.71 17.48 85.45-.87 11.26-7.18 19.26-18.74 23.77a2.9 2.9 0 0 1-1.07.19Z"/><path class="cls-5" d="M1392.53 728.67a126 126 0 0 1-23.09 2.31 89.67 89.67 0 0 1-22.34-2.69s4.58 22.9 21 23.92c19.65 1.22 24.43-23.54 24.43-23.54Z"/><path d="M1369.49 755.11c-.51 0-1 0-1.54-.05-18.43-1.14-23.44-25.19-23.64-26.21a2.86 2.86 0 0 1 3.57-3.31 84.21 84.21 0 0 0 21.55 2.58 125.19 125.19 0 0 0 22.5-2.24 2.85 2.85 0 0 1 3.4 3.33c-1.76 9.14-9.4 25.9-25.84 25.9Zm-18.31-23c2.12 6.14 7.19 16.6 17.12 17.22 12.33.72 18-10.69 20.24-17.08a130.9 130.9 0 0 1-19.09 1.55 103.71 103.71 0 0 1-18.27-1.66Z"/><path d="M1372.18 782.61c-8.7 0-16.16-3.79-19.54-5.82-16.79-10.14-29.21-24.53-35.9-41.64-2.14-5.48-3.68-18.14-5.47-32.79-1-8.12-2-16.52-3.2-24.09a2.86 2.86 0 1 1 5.65-.88c1.2 7.67 2.22 16.11 3.22 24.28 1.67 13.67 3.24 26.59 5.12 31.4 6.23 15.92 17.83 29.35 33.53 38.82 3.83 2.31 13.81 7.29 23.85 3.81 12.71-4.41 23.21-11.46 35.1-23.58 1.25-1.28 7.15-11.76 11.13-25.65a2.86 2.86 0 1 1 5.49 1.57c-4.06 14.2-10.33 25.83-12.54 28.09-12.39 12.61-23.89 20.31-37.31 25a27.68 27.68 0 0 1-9.13 1.48Z"/><path d="M1368.47 716.8a2.82 2.82 0 0 1-1.78-.62c-1.35-1.07-8-6.74-7.2-12.66.25-1.8 1.31-3.29 2.53-5 3.13-4.38 7.42-10.39-.57-24.76a2.85 2.85 0 1 1 5-2.77c9.75 17.52 3.56 26.19.23 30.85a11.64 11.64 0 0 0-1.53 2.48c-.27 1.94 2.8 5.55 5.12 7.41a2.85 2.85 0 0 1-1.79 5.08ZM1327.21 662.44a2.86 2.86 0 0 1-1.62-5.21c4.27-2.92 15.6-8.85 28.71-1a2.85 2.85 0 1 1-2.93 4.9c-9.91-5.92-18.38-2-22.55.83a2.83 2.83 0 0 1-1.61.48Z"/><path class="cls-17" d="M1334.35 686.35c0-5.36 3.07-9.72 6.92-9.75s7 4.31 7 9.68-3.07 9.72-6.92 9.73-6.98-4.3-7-9.66ZM1334.36 758s5.94 6.82 17.74 15.07c12.32 8.6 28 5.62 34.86 2.56 13.56-6 30.19-20.87 30.19-20.87s-22.06 33.79-42.08 39c-17.19 4.49-37.74-18.32-37.74-18.32Z"/><path d="M1413 664.15a2.8 2.8 0 0 1-1.91-.74c-4.65-4.2-16.09-5.94-25.74-1.84a2.85 2.85 0 1 1-2.24-5.25c12.2-5.19 25.75-2.62 31.81 2.86a2.85 2.85 0 0 1-1.92 5ZM1314.4 716.77a2.87 2.87 0 0 1-1.2-.27c-6.89-3.19-14.75-12.21-15.44-21.2-1.16-15 7.16-18.08 12.23-18.57a2.86 2.86 0 0 1 .54 5.69c-2.18.21-8 .77-7.08 12.44.52 6.71 6.7 13.93 12.16 16.46a2.86 2.86 0 0 1-1.21 5.45ZM1432.51 719.53a2.86 2.86 0 0 1-.38-5.69c5.1-.69 11.4-5.39 13.6-13a2.85 2.85 0 1 1 5.48 1.58c-3 10.44-11.59 16.18-18.3 17.1a2.6 2.6 0 0 1-.4.01ZM1432.53 704.13a3 3 0 0 1-1.09-.21 2.85 2.85 0 0 1-1.55-3.73 19.15 19.15 0 0 1 5.12-7.28 2.86 2.86 0 0 1 3.73 4.33 13.33 13.33 0 0 0-3.57 5.12 2.86 2.86 0 0 1-2.64 1.77Z"/><path d="M1448.66 729.9a2.74 2.74 0 0 1-.9-.15 2.86 2.86 0 0 1-1.82-3.61c.06-.18 5.82-18-2.21-30a106.76 106.76 0 0 0-11.07-13.73c-3.34-3.63-6-6.5-7.6-10.49-4.36-10.7-4.49-21.27-4.57-28.26 0-2.15-.06-4-.19-5.34a13 13 0 0 0-6.86-10.66c-4.83-2.51-11.24-2-17.16 1.27a2.86 2.86 0 0 1-2.78-5c7.6-4.24 16-4.74 22.57-1.35a18.81 18.81 0 0 1 9.91 15.14c.16 1.6.19 3.57.22 5.86.08 6.95.2 16.48 4.14 26.18 1.24 3 3.45 5.44 6.52 8.77a110.13 110.13 0 0 1 11.61 14.47c9.61 14.29 3.17 34.14 2.89 35a2.85 2.85 0 0 1-2.7 1.9Z"/><path d="M1477.15 800.4a2.85 2.85 0 0 1-2.7-3.77c0-.1 3.1-9.37 1.38-18.84s-7.07-15.87-12.84-22a2.85 2.85 0 1 1 4.15-3.92c6.13 6.49 12.28 13.76 14.31 24.87a45 45 0 0 1 0 14.52c5.44-4.66 12.31-14.11 7.6-30.31-2-6.92-4.92-11.88-8-17.14-3.26-5.58-6.63-11.35-9.18-19.78-3.58-11.83-1.4-21.35.91-31.43 1.55-6.77 3.16-13.78 3-21.85-.52-22.54-8.9-41-28-61.64-17.11-18.52-31.28-16.83-38.1-16l-1.27.14a2.83 2.83 0 0 1-3.14-2.54 2.86 2.86 0 0 1 2.54-3.14l1.2-.14c7.14-.85 23.88-2.85 43 17.8 13.37 14.47 28.81 35 29.52 65.39.21 8.78-1.48 16.14-3.11 23.26-2.23 9.72-4.15 18.12-1 28.5 2.36 7.78 5.56 13.26 8.65 18.55s6.33 10.83 8.54 18.42c8.56 29.41-16 40.68-16.27 40.78a2.82 2.82 0 0 1-1.19.27Z"/><path d="M1452.58 801.69a26.92 26.92 0 0 1-6.3-.79 2.85 2.85 0 0 1 1.34-5.55c6.46 1.57 11.6.2 15.25-4 6.52-7.56 7-22.23 3.4-31.2a2.85 2.85 0 1 1 5.29-2.14c4.24 10.48 3.77 27.64-4.37 37.07a18.66 18.66 0 0 1-14.61 6.61Z"/><path d="M1433.18 804.77a2.86 2.86 0 0 1 0-5.72c5.29 0 9.3-1.86 12.24-5.7 5.2-6.77 5.34-17.91 4.51-21a2.86 2.86 0 0 1 5.52-1.47c1.26 4.71.94 17.56-5.5 26-3.95 5.12-9.79 7.89-16.77 7.89ZM1430.41 777.21a2.86 2.86 0 0 1-1.75-5.12c.6-.47 14.73-12 4.68-34a2.86 2.86 0 0 1 5.2-2.37c12 26.29-6.2 40.78-6.38 40.92a2.87 2.87 0 0 1-1.75.57ZM1288.56 696.52a2.83 2.83 0 0 1-2.73-2c-.33-1.11-7.43-27.53 38.54-48.05 19.76-8.82 24.8-13.8 36.19-29.65 5.52-7.67 10.81-11.42 16.16-11.46h.08c6.83 0 12.11 5.91 16.38 11.69a2.85 2.85 0 1 1-4.59 3.39c-4.78-6.48-8.42-9.37-11.79-9.37-3.35 0-7.25 3.08-11.56 9.09-11.94 16.61-18.08 22.41-38.5 31.52-41.11 18.35-35.64 40.34-35.38 41.27a2.87 2.87 0 0 1-2 3.51 3 3 0 0 1-.8.06Z"/><path d="M1300.91 686.29a2.85 2.85 0 0 1-1.33-5.38c23.55-12.4 29.76-34.8 29.81-35a2.86 2.86 0 0 1 5.53 1.46c-.27 1-6.82 25-32.68 38.61a2.91 2.91 0 0 1-1.33.31Z"/><path d="M1273.09 797a55.28 55.28 0 0 1-13.93-1.82 2.86 2.86 0 0 1 0-5.49c.13 0 13.08-3.88 18-15.74 3.92-9.52 1.81-21.69-6.28-36.17-8.74-15.65-14.11-45.38-5.22-73.68 7-22.2 29.51-75.82 88.1-94.14 23.42-7.32 46-1.79 58.06 6.94 5.26 3.81 8.17 8.07 8.22 12a2.86 2.86 0 0 1-2.82 2.89 3 3 0 0 1-2.89-2.82c0-1.56-1.57-4.32-5.86-7.44-10.87-7.89-31.47-12.84-53-6.11-56 17.51-77.65 69.05-84.35 90.4-9 28.5-2.06 57 4.76 69.19 9 16.11 11.2 30 6.55 41.19a32.56 32.56 0 0 1-13 14.93c6.33.5 14.74 0 20.49-4.92s7.86-13.32 6.45-25.19a2.85 2.85 0 1 1 5.67-.67c1.65 13.89-1.18 24.06-8.43 30.22-5.99 5.07-13.82 6.43-20.52 6.43Z"/><path d="M1301.45 802.73a21.89 21.89 0 0 1-16.91-8.13 2.86 2.86 0 1 1 4.36-3.69 16.18 16.18 0 0 0 18.51 5.06c7.69-2.69 13.41-9.78 13.6-16.85a2.93 2.93 0 0 1 2.94-2.77 2.84 2.84 0 0 1 2.77 2.93c-.26 9.5-7.42 18.58-17.42 22.08a23.83 23.83 0 0 1-7.85 1.37ZM1295.68 754.67a2.86 2.86 0 0 1-2.56-1.6c-12-24.22-1.26-38.56-.8-39.16a2.86 2.86 0 0 1 4.53 3.48c-.37.49-8.91 12.31 1.39 33.16a2.85 2.85 0 0 1-1.29 3.82 2.89 2.89 0 0 1-1.27.3ZM1397.89 608.29a2.85 2.85 0 0 1-2.55-1.57c-3.51-7-9.78-14.67-19.8-11.33a2.86 2.86 0 1 1-1.81-5.42c10.86-3.61 20.33 1.43 26.72 14.19a2.86 2.86 0 0 1-1.28 3.83 2.79 2.79 0 0 1-1.28.3Z"/><path d="M1326.77 802.94a2.79 2.79 0 0 1-.7-.08c-4.77-1.19-8.34-6.09-9.4-10.32a2.86 2.86 0 0 1 5.54-1.39c.62 2.49 2.81 5.56 5.25 6.17a2.85 2.85 0 0 1-.69 5.62Z"/><path class="cls-17" d="M1390.42 686.42c0-5.36 3.08-9.73 6.92-9.75s7 4.31 7 9.67-3.07 9.72-6.92 9.74-6.97-4.31-7-9.66Z"/><path d="M2324.07 832.73a7.37 7.37 0 0 1-4.34-1.36c-2.66-1.89-3.92-5.54-3.22-9.29 1.13-6.08 5.25-26.48 10.7-33.49 2.15-2.75 6.57-3.94 10.75-2.92s11.2 4.84 13.77 19.34a2.86 2.86 0 0 1-5.63 1c-1.46-8.27-4.93-13.66-9.51-14.8-2.47-.6-4.39.28-4.87.89-3 3.92-6.82 16.1-9.6 31a3.76 3.76 0 0 0 .93 3.6c.74.52 2.09.31 3.7-.6 2.14-1.21 5.47-8.32 9.9-21.14 1.57-4.54 2.1-6.07 4.61-5.65a3 3 0 0 1 2.41 2.94 2.81 2.81 0 0 1-.66 1.83c-.22.6-.55 1.56-1 2.75-4.56 13.18-8.24 21.83-12.49 24.24a11.11 11.11 0 0 1-5.45 1.66Z"/><path d="M2308.65 836.71a7.37 7.37 0 0 1-1.32-.12c-4.15-.74-7.31-4.88-7.84-10.31-.64-4.39-3.74-27.23-1-33.57 3.07-7.14 14.57-14.08 21.25-14.25 6-.06 11.67 7.71 12.64 9.83a2.86 2.86 0 1 1-5.2 2.37c-.83-1.8-5-6.53-7.3-6.49-4.7.12-14 5.83-16.14 10.8-1.53 3.57-.08 20.06 1.43 30.62.33 3.26 1.84 5.14 3.18 5.38s3.06-1.28 4.37-4c2.88-6 4.3-23 4.6-29.06a2.86 2.86 0 0 1 5.71.28c-.05.94-1.19 23-5.17 31.27-2.26 4.63-5.63 7.25-9.21 7.25Z"/><path d="M2289.5 835.27a7.43 7.43 0 0 1-1.15-.09c-4.46-.71-7.66-5.25-8.57-12.17-.27-2.11-.64-4.57-1-7.17-2.1-14.16-3.44-24.54-1.56-29.3 2.58-6.55 10.78-11.36 17.63-14.81a11.13 11.13 0 0 1 8.83-.72c6.21 2.14 9.68 9.17 10.06 10a2.86 2.86 0 0 1-5.16 2.45c-.75-1.57-3.43-5.89-6.78-7a5.46 5.46 0 0 0-4.38.43c-5.48 2.76-13 7-14.89 11.8-1.46 3.71.56 17.34 1.9 26.36.39 2.65.76 5.14 1 7.29.61 4.7 2.35 7 3.79 7.26 1.08.16 2.89-.94 4.28-3.86 2.12-4.46 2.69-18.35 1.39-33.78a2.86 2.86 0 1 1 5.69-.48c1.13 13.41 1.22 30.1-1.92 36.71-2.12 4.44-5.56 7.08-9.16 7.08Z"/><path d="M2272.15 826a8.86 8.86 0 0 1-2.74-.43c-3.45-1.14-6.28-4.4-8.4-9.7-.52-1.32-12.85-32.29-11.65-40.37 1.32-8.7 11.52-14.15 16.64-14.22 9.38-.09 21.18 15.81 21.68 16.49a2.85 2.85 0 0 1-4.59 3.39c-4.23-5.73-12.52-14.17-17-14.17h-.05c-2.89 0-10.26 4-11.07 9.36-.54 3.66 4.52 20.44 11.3 37.4 1.42 3.55 3.16 5.82 4.88 6.39.41.13 1.64.54 3.95-.9 2.09-2.47-.57-20.56-5.89-39.43a2.85 2.85 0 1 1 5.49-1.56c4.3 15.23 10.47 41.44 3.42 45.84a11.33 11.33 0 0 1-5.97 1.91Z"/><path d="M2243 809.72a2.8 2.8 0 0 1-1.62-.51c-4.06-2.81-6.44-7.05-6.22-11.06a7.37 7.37 0 0 1 3.81-6.26c7.23-3.9 16.74-1.14 17.14-1a2.85 2.85 0 0 1-1.62 5.47c-.07 0-7.66-2.19-12.81.58a1.63 1.63 0 0 0-.81 1.54c-.1 1.65 1 4.17 3.76 6.06a2.85 2.85 0 0 1-1.63 5.2ZM2467.28 1059.88h-323.52a2.86 2.86 0 0 1 0-5.72h320.67V810.34l-123.62-.29a2.86 2.86 0 0 1 0-5.71l126.47.3a2.86 2.86 0 0 1 2.85 2.85V1057a2.86 2.86 0 0 1-2.85 2.88ZM2111.7 1059.88h-5.42a2.86 2.86 0 0 1 0-5.72h5.42a2.86 2.86 0 1 1 0 5.72Z"/><path d="M2005 999.54a2.86 2.86 0 0 1-2.86-2.86V807.49a2.85 2.85 0 0 1 2.86-2.85l255.08-.3a2.86 2.86 0 1 1 0 5.71l-252.22.29v186.34a2.86 2.86 0 0 1-2.86 2.86ZM2367.67 949.34h-258.81a2.86 2.86 0 0 1 0-5.71h258.81a2.86 2.86 0 0 1 0 5.71Z"/><path class="cls-17" d="M2129.24 922.68a7.93 7.93 0 0 1-.69 3.05 10.87 10.87 0 0 1-2.19 3.23 11.16 11.16 0 0 1-3.81 2.57 13.81 13.81 0 0 1-5.4 1 19.2 19.2 0 0 1-4.25-.44 12 12 0 0 1-3.48-1.39 11.57 11.57 0 0 1-2.87-2.46 14.43 14.43 0 0 1-2-3.12 15.56 15.56 0 0 1-1.24-3.67 19.79 19.79 0 0 1-.42-4.15 18.46 18.46 0 0 1 1-6.39 13.64 13.64 0 0 1 3-4.83 12.85 12.85 0 0 1 4.54-3 14.64 14.64 0 0 1 5.54-1 13.79 13.79 0 0 1 6.39 1.43 11.41 11.41 0 0 1 4.29 3.54 6.93 6.93 0 0 1 1.49 4 2.6 2.6 0 0 1-.72 1.81 2.33 2.33 0 0 1-1.75.79 2.46 2.46 0 0 1-1.67-.65 7.45 7.45 0 0 1-1.28-1.87 9 9 0 0 0-2.75-3.29 6.78 6.78 0 0 0-3.9-1.09 7.09 7.09 0 0 0-5.88 2.81q-2.18 2.79-2.18 8a14.64 14.64 0 0 0 1 5.73 7.25 7.25 0 0 0 2.74 3.42 7.56 7.56 0 0 0 4.15 1.12 7.3 7.3 0 0 0 4.36-1.27 7.74 7.74 0 0 0 2.69-3.76 6.42 6.42 0 0 1 .95-1.91 2.14 2.14 0 0 1 1.81-.73 2.56 2.56 0 0 1 1.84.74 2.5 2.5 0 0 1 .69 1.78ZM2154.09 907.08h-13.48v7.25H2153a3 3 0 0 1 2.05.62 2.09 2.09 0 0 1 .68 1.62 2.18 2.18 0 0 1-.67 1.64 2.9 2.9 0 0 1-2.06.64h-12.41v8.4h13.95a3 3 0 0 1 2.12.66 2.22 2.22 0 0 1 .72 1.74 2.18 2.18 0 0 1-.72 1.7 3 3 0 0 1-2.12.66h-16.27a3.14 3.14 0 0 1-3.67-3.67v-22.21a4.94 4.94 0 0 1 .4-2.13 2.36 2.36 0 0 1 1.2-1.19 5.16 5.16 0 0 1 2.08-.37h15.8a3.08 3.08 0 0 1 2.13.64 2.15 2.15 0 0 1 .69 1.66 2.2 2.2 0 0 1-.69 1.69 3.08 3.08 0 0 1-2.12.65ZM2170.2 919.37h-2.1v9.49a3.89 3.89 0 0 1-.83 2.76 2.78 2.78 0 0 1-2.15.89 2.75 2.75 0 0 1-2.22-.93 4.12 4.12 0 0 1-.78-2.72v-22.73a3.14 3.14 0 0 1 3.66-3.67h9.74a30.44 30.44 0 0 1 3.44.17 8.81 8.81 0 0 1 2.58.7A7.5 7.5 0 0 1 2184 905a7.41 7.41 0 0 1 1.62 2.53 8.42 8.42 0 0 1 .56 3.05 7.33 7.33 0 0 1-1.87 5.28 10.72 10.72 0 0 1-5.65 2.81 10.76 10.76 0 0 1 3 2.49 26.84 26.84 0 0 1 4.37 6.89 6.71 6.71 0 0 1 .63 2.06 2.09 2.09 0 0 1-.37 1.16 2.57 2.57 0 0 1-1 .91 3.24 3.24 0 0 1-1.49.33 3 3 0 0 1-1.69-.47 4.65 4.65 0 0 1-1.18-1.2c-.33-.49-.77-1.2-1.34-2.14l-2.4-4a21.68 21.68 0 0 0-2.31-3.34 5.75 5.75 0 0 0-2.06-1.58 7.16 7.16 0 0 0-2.62-.41Zm3.42-12.41h-5.52v8.12h5.36a15.48 15.48 0 0 0 3.63-.37 4.41 4.41 0 0 0 2.25-1.27 3.64 3.64 0 0 0 .77-2.47 3.71 3.71 0 0 0-2.36-3.57 12.31 12.31 0 0 0-4.13-.4ZM2209 907.4h-6.53v21.46a3.88 3.88 0 0 1-.83 2.75 2.76 2.76 0 0 1-2.13.9 2.8 2.8 0 0 1-2.17-.91 3.94 3.94 0 0 1-.83-2.74V907.4H2190a3.3 3.3 0 0 1-2.28-.68 2.27 2.27 0 0 1-.75-1.78 2.24 2.24 0 0 1 .78-1.81 3.32 3.32 0 0 1 2.25-.67h19a3.34 3.34 0 0 1 2.31.69 2.3 2.3 0 0 1 .75 1.79 2.25 2.25 0 0 1-.76 1.78 3.38 3.38 0 0 1-2.3.68ZM2215.82 928.86v-23.27a4 4 0 0 1 .83-2.73 2.76 2.76 0 0 1 2.14-.9 2.83 2.83 0 0 1 2.18.89 3.91 3.91 0 0 1 .84 2.74v23.27a3.89 3.89 0 0 1-.84 2.74 2.81 2.81 0 0 1-2.18.91 2.72 2.72 0 0 1-2.13-.92 3.91 3.91 0 0 1-.84-2.73ZM2246.15 907.08h-11.78v7.55h9.85a3 3 0 0 1 2 .62 2.32 2.32 0 0 1 0 3.28 3 3 0 0 1-2 .6h-9.85v9.73a3.93 3.93 0 0 1-.84 2.75 2.8 2.8 0 0 1-2.15.9 2.77 2.77 0 0 1-2.16-.91 3.89 3.89 0 0 1-.84-2.74v-22.73a5.11 5.11 0 0 1 .38-2.11 2.44 2.44 0 0 1 1.2-1.19 5.22 5.22 0 0 1 2.09-.37h14.1a3.08 3.08 0 0 1 2.13.64 2.15 2.15 0 0 1 .69 1.66 2.2 2.2 0 0 1-.69 1.69 3.08 3.08 0 0 1-2.13.63ZM2253.67 928.86v-23.27a4 4 0 0 1 .83-2.73 2.76 2.76 0 0 1 2.14-.9 2.84 2.84 0 0 1 2.18.89 3.91 3.91 0 0 1 .84 2.74v23.27a3.89 3.89 0 0 1-.84 2.74 2.82 2.82 0 0 1-2.18.91 2.74 2.74 0 0 1-2.13-.92 3.91 3.91 0 0 1-.84-2.73ZM2291.52 922.68a7.78 7.78 0 0 1-.7 3.05 11 11 0 0 1-2.18 3.23 11.36 11.36 0 0 1-3.81 2.57 13.88 13.88 0 0 1-5.4 1 19.3 19.3 0 0 1-4.26-.44 12 12 0 0 1-3.47-1.39 11.57 11.57 0 0 1-2.87-2.46 14.46 14.46 0 0 1-2-3.12 16.52 16.52 0 0 1-1.24-3.67 20.5 20.5 0 0 1-.41-4.15 18.46 18.46 0 0 1 1-6.39 13.64 13.64 0 0 1 3-4.83 12.81 12.81 0 0 1 4.53-3 14.69 14.69 0 0 1 5.55-1 13.72 13.72 0 0 1 6.38 1.43 11.53 11.53 0 0 1 4.3 3.54 7 7 0 0 1 1.49 4 2.56 2.56 0 0 1-.73 1.81 2.3 2.3 0 0 1-1.75.79 2.42 2.42 0 0 1-1.72-.55 7 7 0 0 1-1.28-1.87 9.08 9.08 0 0 0-2.75-3.29 6.79 6.79 0 0 0-3.91-1.09 7.07 7.07 0 0 0-5.87 2.81c-1.46 1.86-2.18 4.51-2.18 8a14.84 14.84 0 0 0 1 5.73 7.31 7.31 0 0 0 2.74 3.42 7.58 7.58 0 0 0 4.15 1.12 7.31 7.31 0 0 0 4.37-1.27 7.81 7.81 0 0 0 2.69-3.76 6.19 6.19 0 0 1 1-1.91 2.13 2.13 0 0 1 1.81-.73 2.59 2.59 0 0 1 1.84.74 2.5 2.5 0 0 1 .68 1.68ZM2315.8 928.66l-1.41-3.71h-12l-1.41 3.79a13 13 0 0 1-1.41 3 2.22 2.22 0 0 1-1.91.78 2.82 2.82 0 0 1-2-.83 2.51 2.51 0 0 1-.87-1.87 4.34 4.34 0 0 1 .2-1.25c.14-.43.37-1 .67-1.79l7.56-19.19c.21-.55.47-1.21.78-2a10.07 10.07 0 0 1 1-1.92 4 4 0 0 1 1.35-1.24 4.12 4.12 0 0 1 2.07-.47 4.2 4.2 0 0 1 2.09.47 4 4 0 0 1 1.34 1.22 9.14 9.14 0 0 1 .87 1.6c.24.57.53 1.34.89 2.29l7.73 19.07a9.61 9.61 0 0 1 .9 3.16 2.65 2.65 0 0 1-.85 1.89 2.85 2.85 0 0 1-2.07.85 2.81 2.81 0 0 1-1.21-.25 2.55 2.55 0 0 1-.84-.69 6.24 6.24 0 0 1-.74-1.32c-.31-.6-.53-1.13-.73-1.59Zm-11.84-8.2h8.82l-4.45-12.19ZM2342.14 907.4h-6.53v21.46a3.93 3.93 0 0 1-.82 2.75 3 3 0 0 1-4.3 0 3.89 3.89 0 0 1-.84-2.74V907.4h-6.53a3.32 3.32 0 0 1-2.28-.68 2.31 2.31 0 0 1-.75-1.78 2.24 2.24 0 0 1 .78-1.81 3.34 3.34 0 0 1 2.25-.67h19a3.32 3.32 0 0 1 2.31.69 2.3 2.3 0 0 1 .76 1.79 2.26 2.26 0 0 1-.77 1.78 3.38 3.38 0 0 1-2.28.68ZM2368.22 907.08h-13.48v7.25h12.42a3 3 0 0 1 2 .62 2.08 2.08 0 0 1 .67 1.62 2.17 2.17 0 0 1-.66 1.64 2.89 2.89 0 0 1-2.05.64h-12.42v8.4h14a3 3 0 0 1 2.12.66 2.22 2.22 0 0 1 .72 1.74 2.18 2.18 0 0 1-.72 1.7 3 3 0 0 1-2.12.66h-16.27a3.14 3.14 0 0 1-3.67-3.67v-22.21a4.94 4.94 0 0 1 .39-2.11 2.4 2.4 0 0 1 1.2-1.19 5.16 5.16 0 0 1 2.08-.37h15.8a3.08 3.08 0 0 1 2.13.64 2.15 2.15 0 0 1 .69 1.66 2.2 2.2 0 0 1-.69 1.69 3.08 3.08 0 0 1-2.14.63Z"/><path d="M2302.5 1027a8.08 8.08 0 0 1-4.31-1 7.45 7.45 0 0 1-3.73-6.27c-9.34 4-18.21 6.66-24 6.25-4.76-.36-6.57-2.62-7.26-4.45a7.5 7.5 0 0 1-.28-3.79c-6.31 4.55-13.7 8.61-20.4 9.1-4.05.28-6.13-1.4-7.14-2.87a8.52 8.52 0 0 1-1.28-5c-3.88 2.77-8.73 5.84-12.51 6.94-5.53 1.6-7.82-.22-8.75-2-2.2-4.29 2.66-10.84 8.11-15.11a2.86 2.86 0 1 1 3.52 4.5c-3.92 3.07-5.81 6.08-6.32 7.55a10.89 10.89 0 0 0 1.85-.38c5.12-1.49 14-8.42 17.07-11a2.85 2.85 0 0 1 4.42 3.4c-1.31 2.78-2.18 6.75-1.4 7.9.34.48 1.63.42 2 .4 11.64-.84 27.09-15.78 31.1-19.85.39-.42.74-.78 1-1.07a2.85 2.85 0 0 1 4.12 3.95l-1.15 1.2c-5.35 5.71-9.39 12.24-8.67 14.16.11.29.89.65 2.34.76 5.94.44 15.84-3.12 25.85-7.93 5.67-9.69 20.44-20.78 28.39-23.74 1.37-.52 5.58-2.09 8.18.38a4 4 0 0 1 .74 4.77c-2.23 5-17.49 15.4-33.22 23-.05.13-.11.25-.16.37-1.17 2.93-.12 3.58.5 4 1.2.74 6.31-.53 10-1.46a106.68 106.68 0 0 1 10.74-2.29c4-.58 8.68-.35 16.34 0 7.92.38 19.89 1 38.37 1a2.86 2.86 0 0 1 0 5.71c-18.62 0-30.67-.58-38.65-1-7.32-.35-11.75-.57-15.25-.06a101.28 101.28 0 0 0-10.16 2.17c-3.82.92-7.21 1.76-10 1.76Zm-84.49-5.56Zm108.46-27.3c-4 1.73-10.39 5.94-15.9 10.82 6.9-4.03 12.77-8.03 15.9-10.81ZM2047.5 1036.38c-.51 0-1 0-1.6-.05-6.3-.34-13-2.78-20.18-5.35-6.57-2.38-13.38-4.83-20.09-5.71a2.86 2.86 0 0 1 .74-5.67c7.33 1 14.43 3.53 21.29 6s13.09 4.73 18.55 5c4.15.24 7.2-.63 8.16-2.29a1.84 1.84 0 0 0 .05-1.91c-1.6-2.48-8.88-5.87-14.18-8.34-5.65-2.64-11.19-5.72-16.56-8.7-14-7.78-27.2-15.12-38.88-12.8-10.13 2-25.77 7.47-39.57 12.29-9.83 3.44-18.33 6.41-23.84 7.82a2.86 2.86 0 0 1-1.4-5.54c5.26-1.34 14-4.41 23.36-7.67 14-4.88 29.81-10.42 40.34-12.5 13.75-2.72 27.84 5.11 42.77 13.41 5.28 2.93 10.73 6 16.19 8.51 8.5 4 14.24 6.83 16.56 10.41a7.59 7.59 0 0 1 .1 7.88c-1.15 2.02-4.18 5.21-11.81 5.21Z"/><path d="M2108.22 1073.94h-1a198 198 0 0 1-20.61-2.77c-4.33-.73-9.46-1.6-16.19-2.61-7.51-1.13-13.41-3.49-20.87-6.49a236.58 236.58 0 0 0-29.54-10 2.85 2.85 0 1 1 1.46-5.52 238.64 238.64 0 0 1 30.2 10.25c7.12 2.86 12.75 5.11 19.6 6.14s11.93 1.9 16.29 2.63a191.77 191.77 0 0 0 20.08 2.7c1.23.09 3.39 0 4-1.67a3.68 3.68 0 0 0-1.48-4c-4.15-3-13-5.37-21.62-7.67a157.47 157.47 0 0 1-15.24-4.57c-7.47-2.86-17.57-7.91-24.25-11.24-2.5-1.25-5.09-2.54-5.62-2.74a2.88 2.88 0 0 1-1.73-3.64 2.83 2.83 0 0 1 3.58-1.76c.75.25 2.38 1.06 6.32 3 6.18 3.09 16.53 8.26 23.74 11 4 1.54 9.19 2.92 14.67 4.39 9.09 2.42 18.49 4.93 23.5 8.56a9.42 9.42 0 0 1 3.5 10.61c-1.31 3.46-4.54 5.4-8.79 5.4Z"/><path d="M2092.8 1072.15a2.92 2.92 0 0 1-.5-.05c-1.71-.3-8.59-.3-16.54-.28h-17.54c-14.67-.17-43.06-7.37-44.26-7.68a2.85 2.85 0 0 1 1.41-5.53c.29.07 28.93 7.34 42.91 7.5 6.28.06 12.27.06 17.48 0 10.06 0 15.43 0 17.54.37a2.86 2.86 0 0 1-.5 5.67Z"/><path d="M2041.89 1070.08h-.23c-2.1-.17-4.12-.18-6.25-.2a83.68 83.68 0 0 1-19.27-1.95c-5.12-1.12-11.2-3-17.63-4.94-10.55-3.21-22.5-6.85-31.52-7.52-13.08-1-31.55 9.07-31.74 9.17a2.86 2.86 0 0 1-2.74-5c.82-.45 20.16-11 34.9-9.86 9.66.72 21.93 4.46 32.76 7.76 6.33 1.92 12.3 3.75 17.2 4.82a77.82 77.82 0 0 0 18.08 1.82c2.27 0 4.42 0 6.66.21a2.86 2.86 0 0 1-.22 5.71Z"/><path d="M1750.17 1154.38a38 38 0 0 1-20.36-5.31c-17.27-10.59-23.23-48.14-32.26-105-2.3-14.45-4.91-30.83-7.91-48-8.18-46.84-15.35-100.22-6.59-140.86 7.2-33.37 49.36-49.45 83.23-62.36 12.58-4.8 24.45-9.33 32.26-14a2.86 2.86 0 0 1 2.92 4.91c-8.23 4.91-20.33 9.52-33.14 14.4-32.58 12.43-73.14 27.89-79.68 58.23-8.56 39.69-1.46 92.38 6.63 138.68 3 17.26 5.61 33.66 7.91 48.13 8.47 53.29 14.59 91.78 29.62 101 20.36 12.51 53.15-3.44 87.85-20.31 3.84-1.87 7.71-3.76 11.6-5.62 59.27-28.35 70.7-34.19 88-43l6.42-3.27c6-3.09 4.44-26.65-3.06-45-4-9.73-8.84-15.6-12.07-14.55a282.42 282.42 0 0 0-27 10.32c-9.16 3.87-19.54 8.27-34.91 13.7a483.67 483.67 0 0 1-51.95 15.1c-12.56 3.07-24.43 6-39 11.16a2.86 2.86 0 0 1-1.91-5.39c14.88-5.28 26.89-8.22 39.59-11.32a480 480 0 0 0 51.4-14.93c15.21-5.38 25.51-9.74 34.59-13.58a286.37 286.37 0 0 1 27.55-10.51c6.72-2.1 13.51 4.22 19.07 17.84 7.24 17.76 11.54 46.59.36 52.28l-6.41 3.28c-17.35 8.86-28.81 14.72-88.15 43.11-3.87 1.85-7.73 3.73-11.56 5.59-26.69 12.9-52.21 25.28-73.04 25.28ZM1812.75 768a2.38 2.38 0 0 1-.53 0 2.85 2.85 0 0 1-2.28-3.33c4.4-23.35-3.14-49.08-3.22-49.34a2.86 2.86 0 0 1 5.48-1.63c.33 1.1 8 27.29 3.35 52a2.85 2.85 0 0 1-2.8 2.3Z"/><path d="M1793.73 1049.78a2.85 2.85 0 0 1-2.81-2.39c-2.23-13.37-5.43-26.5-8.82-40.39-5-20.5-10.17-41.69-13.21-67.25a2.86 2.86 0 1 1 5.67-.68c3 25.22 8.13 46.24 13.09 66.57 3.41 14 6.64 27.23 8.91 40.81a2.87 2.87 0 0 1-2.36 3.29 2.42 2.42 0 0 1-.47.04ZM1771.48 920.87a2.85 2.85 0 0 1-2.74-2c-14.1-47.35-45.37-67.29-45.69-67.49a2.85 2.85 0 0 1 3-4.84c1.36.84 33.43 21.3 48.14 70.7a2.85 2.85 0 0 1-1.92 3.55 2.89 2.89 0 0 1-.79.08ZM1759.52 1184.56h-.14a2.85 2.85 0 0 1-2.71-3c0-.23 1.15-22.7 1.15-30.48a2.86 2.86 0 0 1 5.71 0c0 7.93-1.11 29.84-1.16 30.77a2.85 2.85 0 0 1-2.85 2.71ZM2042.56 1183.43a2.87 2.87 0 0 1-2.83-2.89c.58-65.85-1.65-110.77-1.67-111.21a2.85 2.85 0 1 1 5.7-.29c0 .45 2.26 45.53 1.68 111.56a2.85 2.85 0 0 1-2.88 2.83ZM1908.19 771.93a2.87 2.87 0 0 1-2.66-1.81c-3.66-9.32-4.17-31.78-4.19-32.73a2.87 2.87 0 0 1 2.8-2.92 2.78 2.78 0 0 1 2.91 2.8c0 .22.51 22.39 3.8 30.76a2.85 2.85 0 0 1-1.61 3.7 3 3 0 0 1-1.05.2ZM2039.26 809.34a2.86 2.86 0 0 1-2.39-1.28c-.11-.17-11.72-17.12-42.67-24.66-11-2.67-25.18-4-38.94-5.39-13.29-1.29-25.85-2.51-35.44-4.81a2.85 2.85 0 0 1 1.33-5.55c9.21 2.2 21.57 3.4 34.66 4.67 14 1.36 28.4 2.76 39.75 5.53 33.29 8.11 45.57 26.3 46.08 27.07a2.85 2.85 0 0 1-.82 4 2.79 2.79 0 0 1-1.56.42ZM1886.47 841.41a2.87 2.87 0 0 1-2.16-1c-7.66-8.87-9.88-16.52-11.65-22.67-2.35-8.14-3.9-13.51-17.12-18-26-8.79-38.19-20.68-48.53-35.85a2.86 2.86 0 0 1 4.72-3.22c10 14.62 21.08 25.35 45.64 33.67 16 5.43 18.24 13 20.77 21.8 1.71 5.91 3.65 12.6 10.49 20.52a2.86 2.86 0 0 1-2.16 4.73Z"/><path d="M1846.51 840.71a2.89 2.89 0 0 1-2.45-1.38 195.87 195.87 0 0 0-22.61-29.14c-2.52-2.66-5.09-5.22-7.58-7.68-9.84-9.78-18.35-18.22-15.73-26.1l.14-.4c3.11-9.37 7.37-20.63 12.69-24.55a2.85 2.85 0 0 1 3.39 4.59c-4.55 3.35-9.15 17.21-10.66 21.77l-.14.4c-1.5 4.52 6.55 12.51 14.33 20.24 2.53 2.5 5.15 5.1 7.71 7.8a204.5 204.5 0 0 1 19.55 24.3c2.71-10.73 9.41-29.71 23-29.71a2.86 2.86 0 0 1 0 5.72c-11.08 0-17.35 22.92-18.83 31.75a2.83 2.83 0 0 1-2.27 2.33 2.62 2.62 0 0 1-.54.06ZM1883.65 834.66a2.9 2.9 0 0 1-1.32-.33 2.85 2.85 0 0 1-1.21-3.85c3.33-6.4 4.35-13.25 5.34-19.88a108.83 108.83 0 0 1 2-10.91c1.06-4.13 3.5-7 6.09-10 4.64-5.36 10.42-12 13.44-30.7a2.86 2.86 0 0 1 5.64.91c-3.29 20.26-9.92 27.93-14.76 33.53-2.41 2.79-4.15 4.8-4.88 7.63a100.89 100.89 0 0 0-1.9 10.33c-1.06 7.1-2.15 14.43-5.93 21.68a2.85 2.85 0 0 1-2.51 1.59Z"/><path d="M1922.29 825.7a2.85 2.85 0 0 1-2.63-1.74c-.11-.25-10.49-24.4-26.46-20.92a2.86 2.86 0 0 1-1.2-5.59c12.57-2.71 21.85 6.48 27.31 14.32-.19-12-.66-30.27-1.77-37.49-1.57-10.21-14.21-20.78-14.34-20.88a2.86 2.86 0 0 1 3.64-4.4c.59.48 14.45 12 16.34 24.41 1.77 11.5 2 47.88 2 49.43a2.83 2.83 0 0 1-2.28 2.8 2.76 2.76 0 0 1-.61.06ZM1797.65 697.65a3.15 3.15 0 0 1-.61-.06c-6.35-1.38-12.35-2.67-18.74-12.64-4-6.33-5.41-17.08-.7-24.12 2-2.92 6.68-7.56 16.29-5.8a2.86 2.86 0 0 1-1 5.62c-4.88-.89-8.43.24-10.52 3.36-3 4.41-2.61 12.59.76 17.86 5.11 8 9.09 8.83 15.14 10.14a2.85 2.85 0 0 1-.6 5.64Z"/><path d="M1795.48 682.5a2.85 2.85 0 0 1-2.59-1.64 11.92 11.92 0 0 0-4.74-5.51 2.88 2.88 0 0 1-1.27-3.82 2.84 2.84 0 0 1 3.78-1.31 17.2 17.2 0 0 1 7.4 8.22 2.85 2.85 0 0 1-1.38 3.79 2.72 2.72 0 0 1-1.2.27ZM1872.06 761.8h-.93c-17.77-1.07-45.16-17.18-54.29-29.13-7.27-9.51-10.49-17.73-13.89-26.44-.58-1.48-1.17-3-1.8-4.54a2.86 2.86 0 0 1 5.3-2.13q.94 2.34 1.81 4.59c3.4 8.68 6.34 16.18 13.12 25 7.55 9.89 33 25.87 50.09 26.9 15.44.93 42.52-32.5 45.7-48.34 2.5-12.42 2.82-18.55 3.53-32l.21-3.87c.58-10.79 1.53-19.88 2.22-26.51.27-2.63.51-4.89.67-6.74a2.86 2.86 0 0 1 5.69.49c-.16 1.88-.4 4.17-.68 6.84-.68 6.57-1.62 15.58-2.2 26.23l-.2 3.86c-.7 13.3-1.06 20-3.64 32.8-3.35 16.73-31.01 52.99-50.71 52.99Z"/><path d="M1923.86 682.84a2.86 2.86 0 0 1-.93-5.56c5.68-1.94 10.82-9.81 11-16.85.34-11.46-5.35-11.73-7.49-11.83a2.86 2.86 0 0 1-2.72-3 2.91 2.91 0 0 1 3-2.71c5 .23 13.36 2.85 12.94 17.69-.27 9.47-6.94 19.38-14.88 22.1a3 3 0 0 1-.92.16ZM1870.26 695.47a2.82 2.82 0 0 1-1.85-.68 2.86 2.86 0 0 1-.32-4c5.68-6.65 4.92-8.86 4.56-9.38a16.93 16.93 0 0 0-1.58-1.65c-3.93-3.77-11.23-10.79-4.77-28.67a2.85 2.85 0 0 1 5.37 1.94c-5.2 14.4-.26 19.15 3.35 22.62a17.83 17.83 0 0 1 2.28 2.46c4.14 5.84-2.64 13.78-4.87 16.39a2.83 2.83 0 0 1-2.17.97Z"/><path class="cls-17" d="M1830.92 663.42c-.4-5.07 2.23-9.41 5.87-9.69s6.92 3.6 7.31 8.67-2.22 9.4-5.87 9.68-6.91-3.59-7.31-8.66Z"/><path d="M1822.77 644.9a2.85 2.85 0 0 1-1.61-5.21 32.06 32.06 0 0 1 26.5-4.58 2.86 2.86 0 0 1-1.57 5.49 26.33 26.33 0 0 0-21.72 3.81 2.86 2.86 0 0 1-1.6.49Z"/><path class="cls-5" d="M1846.19 708.4a222.78 222.78 0 0 0 23.57-.6 136.4 136.4 0 0 0 22.51-3.65s-3.24 24.14-19.44 25.18c-20 1.3-26.64-20.93-26.64-20.93Z"/><path d="M1871.21 732.24c-16.46 0-25.32-14.87-27.76-23a2.86 2.86 0 0 1 .48-2.57 2.92 2.92 0 0 1 2.36-1.1 227.48 227.48 0 0 0 23.24-.59 136 136 0 0 0 22-3.57 2.85 2.85 0 0 1 3.57 3.14c-.14 1.08-3.76 26.47-22.09 27.65q-.91.04-1.8.04Zm-20.79-20.9c2.71 5.76 9.43 15.94 22.22 15.14 9.9-.63 14.25-12.14 15.92-18.53a146.17 146.17 0 0 1-18.58 2.7c-7.98.64-15.2.71-19.56.69ZM1879.46 638.74a2.86 2.86 0 0 1-1.49-5.3c8.9-5.38 17.68-6.36 26.12-2.93a2.86 2.86 0 0 1-2.15 5.29c-6.77-2.75-13.64-1.93-21 2.53a2.82 2.82 0 0 1-1.48.41ZM1849 651.44a2.84 2.84 0 0 1-2.35-1.24 2.87 2.87 0 0 1-.18-3c.08-.15 8.32-16 10.37-28.25a53.52 53.52 0 0 0-1.64-23 2.86 2.86 0 1 1 5.41-1.83 58.4 58.4 0 0 1 1.86 25.8c-1.39 8.31-5.24 17.79-8 23.83a41.86 41.86 0 0 0 12.28-9.07c12.12-12.67 11.49-26.72 11.48-26.87a2.86 2.86 0 0 1 5.71-.34c0 .67.86 16.61-13.06 31.16-10.91 11.39-21.14 12.71-21.57 12.76Z"/><path d="M1879.35 635.6a2.81 2.81 0 0 1-1.66-.54 2.85 2.85 0 0 1-1.07-3.16s1.61-5.31 1.4-9.26c-.23-4.32-.4-6-.41-6a2.86 2.86 0 0 1 5.68-.62s.19 1.72.44 6.37v1.33a33.89 33.89 0 0 0 5.62-15.48c1.23-11.9-5.16-25.46-5.23-25.59a2.86 2.86 0 0 1 5.16-2.46c.29.61 7.15 15.16 5.75 28.64a38.63 38.63 0 0 1-14 26.28 2.87 2.87 0 0 1-1.68.49ZM1817 634.5a2.85 2.85 0 0 1-.2-5.7c14.83-1.07 37.44-11.84 39.56-28.54a2.85 2.85 0 1 1 5.66.71c-2.64 20.86-28.3 32.34-44.81 33.52Z"/><path d="M1814.11 679.33a2.88 2.88 0 0 1-.71-.09c-.93-.24-22.78-6.22-27.24-41.54a2.86 2.86 0 0 1 5.67-.72c2.73 21.62 12.32 30.81 18.23 34.48-1.88-10.42-3.86-33.07 8.4-54.14a2.86 2.86 0 1 1 4.94 2.87c-15 25.77-6.64 55.18-6.55 55.48a2.87 2.87 0 0 1-2.74 3.66ZM1914.31 662.91a2.91 2.91 0 0 1-1.57-.47 2.87 2.87 0 0 1-1.26-2.76c.06-.43 5.38-43.42-20.65-60a2.85 2.85 0 1 1 3.07-4.81c22.44 14.31 24.25 44.38 23.78 58.3 3.78-4.64 8-13.13 5.62-26.6a2.85 2.85 0 1 1 5.62-1c4.63 26-12.42 36.53-13.14 37a2.88 2.88 0 0 1-1.47.34Z"/><path d="M1932.84 648.62a2.85 2.85 0 0 1-2.63-4c8.44-20.19 2.45-47.15-7.94-60.55a2.85 2.85 0 1 1 4.51-3.49c11.62 15 18 43.85 8.7 66.24a2.86 2.86 0 0 1-2.64 1.8Z"/><path d="M1947.42 619.37a2.88 2.88 0 0 1-2.28-1.12c-.16-.2-.61-.91-1.27-2-2.34-3.78-8.55-13.84-13.71-18.31a2.85 2.85 0 1 1 3.74-4.31c3.77 3.26 7.75 8.7 10.81 13.32-.94-9.56-5.31-25-22.47-36.1a2.85 2.85 0 1 1 3.09-4.8c29.33 18.91 25.09 50.07 25 50.38a3.16 3.16 0 0 1-2.26 2.84 2.78 2.78 0 0 1-.65.1Zm0-2.85ZM1780.57 661.34a2.85 2.85 0 0 1-2.54-1.53 76.29 76.29 0 0 1-9.21-43.33 2.89 2.89 0 0 1 3.06-2.64 2.85 2.85 0 0 1 2.63 3.06 71 71 0 0 0 8.58 40.26 2.84 2.84 0 0 1-2.52 4.18Z"/><path d="M1924.17 570.67a46.6 46.6 0 0 1-12-1.66 2.86 2.86 0 1 1 1.48-5.52c7.49 2 13.31 1.68 17.24.79a111.79 111.79 0 0 1-18.19-7.37l-1.81-.95c-11.6-6.13-27.47-14.51-48.07-16.3-22.21-1.92-36.07 1.58-41.24 10.4a2.86 2.86 0 1 1-4.93-2.89c6.47-11 21.74-15.36 46.66-13.19 21.75 1.88 38.22 10.58 50.25 16.93l1.79 1a115.13 115.13 0 0 0 24.26 8.93 3 3 0 0 1 2.18 2 2.85 2.85 0 0 1-.43 2.45c-1.36 1.79-7.42 5.38-17.19 5.38ZM1755.85 612.36h-.2a2.86 2.86 0 0 1-1.62-5.18s5.84-4.32 11.23-13.41c2.21-3.75 4.29-9.48 6.13-14.53 1-2.79 1.94-5.35 2.77-7.24 6-13.73 19.77-23.11 34.27-23.35a2.86 2.86 0 1 1 .09 5.71 33.16 33.16 0 0 0-29.13 19.93c-.79 1.8-1.67 4.24-2.64 6.9-1.92 5.28-4.09 11.27-6.58 15.48a62 62 0 0 1-6.63 9.23c5-.87 11.51-2.76 16.38-6.83a2.85 2.85 0 1 1 3.66 4.37c-10.28 8.63-25.71 8.92-27.73 8.92Z"/><path class="cls-17" d="M1884.55 658.92c-.4-5.07 2.23-9.4 5.87-9.69s6.91 3.6 7.31 8.67-2.22 9.4-5.87 9.68-6.86-3.58-7.31-8.66ZM1819.94 733.8s24.24 22.78 46.5 25.62 37.17-19.86 37.17-19.86l1.47 17s-21.21 24.79-43.9 14.91c-22.02-9.56-41.24-37.67-41.24-37.67Z"/><path d="M728.53 886.18H455.32a2.94 2.94 0 0 1-3-2.85 2.77 2.77 0 0 1 2.74-2.86h270.61V636.65l-459.36-.17a2.86 2.86 0 1 1 0-5.71l462.22.17a2.85 2.85 0 0 1 2.85 2.86v249.53a2.85 2.85 0 0 1-2.85 2.85ZM392.37 886.18h-27.79a2.9 2.9 0 0 1-2.92-2.85 2.81 2.81 0 0 1 2.8-2.86h27.91a2.86 2.86 0 1 1 0 5.71Z"/><path d="M321.76 886.18h-55.53a2.85 2.85 0 0 1-2.85-2.85V633.8a2.86 2.86 0 1 1 5.71 0v246.67h52.59a2.89 2.89 0 0 1 2.89 2.86 2.81 2.81 0 0 1-2.81 2.85ZM628.91 775.65h-258.8a2.86 2.86 0 1 1 0-5.71h258.8a2.86 2.86 0 1 1 0 5.71Z"/><path class="cls-17" d="M390.49 749a7.79 7.79 0 0 1-.7 3.06 10.86 10.86 0 0 1-2.18 3.22 11.22 11.22 0 0 1-3.81 2.57 13.71 13.71 0 0 1-5.41 1 19.27 19.27 0 0 1-4.25-.44 12.23 12.23 0 0 1-3.47-1.38 12.06 12.06 0 0 1-2.88-2.47 15.08 15.08 0 0 1-2-3.12 16.52 16.52 0 0 1-1.24-3.67 19.8 19.8 0 0 1-.41-4.15 18.23 18.23 0 0 1 1-6.39 13.64 13.64 0 0 1 3-4.83 13.11 13.11 0 0 1 4.53-3.06 14.88 14.88 0 0 1 5.55-1 13.72 13.72 0 0 1 6.38 1.43 11.53 11.53 0 0 1 4.3 3.54 7 7 0 0 1 1.49 4 2.56 2.56 0 0 1-.73 1.81 2.31 2.31 0 0 1-1.75.79 2.42 2.42 0 0 1-1.72-.55 7.38 7.38 0 0 1-1.28-1.87 9 9 0 0 0-2.76-3.29 6.74 6.74 0 0 0-3.9-1.09 7.07 7.07 0 0 0-5.87 2.81q-2.19 2.79-2.19 8a14.86 14.86 0 0 0 1 5.73 7.35 7.35 0 0 0 2.74 3.42 7.58 7.58 0 0 0 4.15 1.12 7.26 7.26 0 0 0 4.37-1.28 7.79 7.79 0 0 0 2.69-3.75 6.19 6.19 0 0 1 .95-1.91 2.13 2.13 0 0 1 1.81-.74 2.56 2.56 0 0 1 1.83.75 2.5 2.5 0 0 1 .76 1.74ZM415.34 733.39h-13.49v7.25h12.42a3 3 0 0 1 2 .62 2.09 2.09 0 0 1 .68 1.62 2.17 2.17 0 0 1-.66 1.64 2.92 2.92 0 0 1-2.06.64h-12.38v8.4h13.95a3.05 3.05 0 0 1 2.13.66 2.25 2.25 0 0 1 .71 1.74 2.22 2.22 0 0 1-.71 1.7 3.05 3.05 0 0 1-2.13.66h-16.26a3.14 3.14 0 0 1-3.67-3.67v-22.21a5.11 5.11 0 0 1 .38-2.11 2.44 2.44 0 0 1 1.2-1.19 5.18 5.18 0 0 1 2.09-.37h15.8a3 3 0 0 1 2.12.64 2.34 2.34 0 0 1 0 3.34 3 3 0 0 1-2.12.64ZM431.44 745.68h-2.1v9.49a3.94 3.94 0 0 1-.82 2.76 3.1 3.1 0 0 1-4.38 0 4.17 4.17 0 0 1-.78-2.73v-22.76a3.14 3.14 0 0 1 3.67-3.67h9.73a30.75 30.75 0 0 1 3.45.17 8.89 8.89 0 0 1 2.58.7 7.57 7.57 0 0 1 2.45 1.67 7.29 7.29 0 0 1 1.63 2.53 8.42 8.42 0 0 1 .55 3 7.37 7.37 0 0 1-1.86 5.28 10.79 10.79 0 0 1-5.66 2.88 10.79 10.79 0 0 1 3.05 2.49 26.78 26.78 0 0 1 2.59 3.52 25.4 25.4 0 0 1 1.77 3.37 6.83 6.83 0 0 1 .64 2.06 2.11 2.11 0 0 1-.38 1.16 2.65 2.65 0 0 1-1 .91 3.18 3.18 0 0 1-1.49.33 3 3 0 0 1-1.69-.47 4.65 4.65 0 0 1-1.18-1.2c-.33-.49-.77-1.2-1.34-2.14l-2.4-4a22.47 22.47 0 0 0-2.3-3.34 5.67 5.67 0 0 0-2.07-1.58 7.16 7.16 0 0 0-2.66-.43Zm3.43-12.41h-5.53v8.12h5.36a15.48 15.48 0 0 0 3.63-.37 4.28 4.28 0 0 0 2.25-1.28 3.61 3.61 0 0 0 .77-2.46 3.72 3.72 0 0 0-2.35-3.57 12.39 12.39 0 0 0-4.13-.44ZM470.21 733.71h-6.53v21.46a3.93 3.93 0 0 1-.82 2.75 3 3 0 0 1-4.3 0 3.91 3.91 0 0 1-.84-2.74v-21.47h-6.53a3.32 3.32 0 0 1-2.28-.68 2.3 2.3 0 0 1-.74-1.78 2.23 2.23 0 0 1 .77-1.81 3.34 3.34 0 0 1 2.25-.67h19a3.32 3.32 0 0 1 2.31.69 2.46 2.46 0 0 1 0 3.57 3.38 3.38 0 0 1-2.29.68ZM477.07 755.17V731.9a4 4 0 0 1 .82-2.73 2.78 2.78 0 0 1 2.14-.9 2.89 2.89 0 0 1 2.19.89 3.94 3.94 0 0 1 .83 2.74v23.27a4 4 0 0 1-.83 2.74 2.83 2.83 0 0 1-2.19.91 2.77 2.77 0 0 1-2.13-.92 4 4 0 0 1-.83-2.73ZM507.4 733.39h-11.79v7.55h9.85a3 3 0 0 1 2.05.62 2.11 2.11 0 0 1 .67 1.64 2 2 0 0 1-.68 1.63 3 3 0 0 1-2 .61h-9.85v9.73a3.88 3.88 0 0 1-.84 2.75 3 3 0 0 1-4.31 0 3.91 3.91 0 0 1-.84-2.74v-22.74a4.94 4.94 0 0 1 .39-2.11 2.36 2.36 0 0 1 1.2-1.19 5.13 5.13 0 0 1 2.08-.37h14.07a3 3 0 0 1 2.12.64 2.34 2.34 0 0 1 0 3.34 3 3 0 0 1-2.12.64ZM514.91 755.17V731.9a4 4 0 0 1 .83-2.73 2.76 2.76 0 0 1 2.14-.9 2.85 2.85 0 0 1 2.18.89 3.89 3.89 0 0 1 .84 2.74v23.27a3.91 3.91 0 0 1-.84 2.74 3 3 0 0 1-4.31 0 3.91 3.91 0 0 1-.84-2.74ZM552.76 749a7.94 7.94 0 0 1-.69 3.06 10.9 10.9 0 0 1-2.19 3.22 11 11 0 0 1-3.81 2.57 13.62 13.62 0 0 1-5.4 1 19.14 19.14 0 0 1-4.25-.44 12.17 12.17 0 0 1-3.48-1.38 11.83 11.83 0 0 1-2.87-2.47 14.68 14.68 0 0 1-2-3.12 16 16 0 0 1-1.24-3.67 19.79 19.79 0 0 1-.42-4.15 18.46 18.46 0 0 1 1-6.39 13.64 13.64 0 0 1 3-4.83 13.06 13.06 0 0 1 4.54-3.06 14.83 14.83 0 0 1 5.54-1 13.79 13.79 0 0 1 6.39 1.43 11.41 11.41 0 0 1 4.29 3.54 6.93 6.93 0 0 1 1.49 4A2.6 2.6 0 0 1 552 739a2.33 2.33 0 0 1-1.76.79 2.43 2.43 0 0 1-1.72-.55 7.65 7.65 0 0 1-1.28-1.87 9 9 0 0 0-2.75-3.29 6.76 6.76 0 0 0-3.9-1.09 7 7 0 0 0-5.87 2.81q-2.19 2.79-2.19 8a14.68 14.68 0 0 0 1 5.73 7.29 7.29 0 0 0 2.74 3.42 7.56 7.56 0 0 0 4.15 1.12 7.23 7.23 0 0 0 4.36-1.28 7.67 7.67 0 0 0 2.62-3.79 6.42 6.42 0 0 1 1-1.91 2.15 2.15 0 0 1 1.81-.74 2.57 2.57 0 0 1 1.84.75 2.49 2.49 0 0 1 .71 1.9ZM577.05 755l-1.41-3.71h-12l-1.41 3.79a13.89 13.89 0 0 1-1.41 3 2.24 2.24 0 0 1-1.92.78 2.79 2.79 0 0 1-2-.83 2.52 2.52 0 0 1-.86-1.87 4 4 0 0 1 .2-1.25c.13-.43.36-1 .66-1.79l7.56-19.19c.22-.55.48-1.21.78-2a9.51 9.51 0 0 1 1-1.92 3.93 3.93 0 0 1 1.35-1.24 4.05 4.05 0 0 1 2.06-.47 4.14 4.14 0 0 1 2.09.47 4.07 4.07 0 0 1 1.35 1.22 8.48 8.48 0 0 1 .86 1.6c.24.57.54 1.34.9 2.29l7.72 19.06a9.73 9.73 0 0 1 .91 3.17 2.63 2.63 0 0 1-.86 1.88 2.82 2.82 0 0 1-2.07.86 2.6 2.6 0 0 1-1.2-.25 2.49 2.49 0 0 1-.85-.69 6.56 6.56 0 0 1-.74-1.33c-.3-.58-.52-1.15-.71-1.58Zm-11.85-8.2h8.8l-4.46-12.19ZM603.39 733.71h-6.53v21.46a3.93 3.93 0 0 1-.83 2.75 2.76 2.76 0 0 1-2.13.9 2.8 2.8 0 0 1-2.17-.91 3.91 3.91 0 0 1-.84-2.74v-21.46h-6.53a3.28 3.28 0 0 1-2.27-.68 2.27 2.27 0 0 1-.75-1.78 2.24 2.24 0 0 1 .78-1.81 3.29 3.29 0 0 1 2.24-.67h19a3.36 3.36 0 0 1 2.31.69 2.3 2.3 0 0 1 .75 1.79 2.25 2.25 0 0 1-.76 1.78 3.4 3.4 0 0 1-2.27.68ZM629.47 733.39H616v7.25h12.4a3 3 0 0 1 2.05.62 2.08 2.08 0 0 1 .67 1.62 2.17 2.17 0 0 1-.66 1.64 2.92 2.92 0 0 1-2.06.64H616v8.4h13.95a3 3 0 0 1 2.12.66 2.22 2.22 0 0 1 .72 1.74 2.19 2.19 0 0 1-.72 1.7 3 3 0 0 1-2.12.66h-16.28a3.14 3.14 0 0 1-3.67-3.67v-22.21a5.11 5.11 0 0 1 .38-2.11 2.44 2.44 0 0 1 1.2-1.19 5.22 5.22 0 0 1 2.09-.37h15.8a3.07 3.07 0 0 1 2.13.64 2.37 2.37 0 0 1 0 3.34 3.07 3.07 0 0 1-2.13.64Z"/><path d="M571.9 852.75a8 8 0 0 1-4.31-1 7.42 7.42 0 0 1-3.73-6.25c-9.34 4-18.24 6.65-24 6.25-4.76-.37-6.57-2.63-7.26-4.46a7.5 7.5 0 0 1-.28-3.79c-6.31 4.55-13.69 8.61-20.39 9.1-4.08.27-6.14-1.4-7.15-2.88a8.4 8.4 0 0 1-1.28-5c-3.88 2.77-8.73 5.84-12.51 6.94-5.54 1.61-7.82-.22-8.75-2-2.2-4.28 2.66-10.83 8.11-15.1a2.85 2.85 0 1 1 3.52 4.49c-3.92 3.08-5.81 6.08-6.32 7.54a9.53 9.53 0 0 0 1.84-.37c5.12-1.49 14.06-8.42 17.08-11a2.85 2.85 0 0 1 4.42 3.4c-1.31 2.78-2.18 6.76-1.4 7.9.33.48 1.63.43 2 .4 11.63-.84 27.08-15.77 31.09-19.85.39-.41.74-.78 1-1.07a2.85 2.85 0 0 1 4.12 4l-1.15 1.2c-5.35 5.71-9.39 12.24-8.67 14.16.11.29.89.65 2.35.76 5.86.44 15.83-3.12 25.84-7.93 5.67-9.68 20.44-20.79 28.39-23.74 1.38-.52 5.59-2.08 8.18.38a4 4 0 0 1 .74 4.77c-2.23 5-17.49 15.4-33.22 23-.06.12-.11.24-.16.37-1.17 2.92-.12 3.57.5 4 1.21.74 6.31-.53 10-1.46a105.87 105.87 0 0 1 10.73-2.29c4-.58 8.67-.35 16.33 0 7.92.38 19.89 1 38.38 1a2.86 2.86 0 0 1 0 5.71c-18.62 0-30.68-.58-38.65-1-7.33-.35-11.75-.57-15.25-.06a100.47 100.47 0 0 0-10.04 2.05c-3.92.98-7.31 1.83-10.1 1.83Zm-84.49-5.55Zm108.47-27.31c-4 1.73-10.41 6-15.92 10.83 6.9-4.04 12.78-8.04 15.92-10.83ZM543.33 906a2.85 2.85 0 0 1-2.06-.87c-4.5-4.66-17.69-17-24.48-18.46a2.86 2.86 0 1 1 1.17-5.59c9.72 2 25.64 18.24 27.42 20.08a2.85 2.85 0 0 1-.07 4 2.82 2.82 0 0 1-1.98.84ZM527.64 951.36a2.86 2.86 0 0 1-2-.86c-.19-.19-18.31-18.8-29.3-27.65-2-1.61-13.2-1.32-21.39-1.11s-16.58.42-23.09-.42c-9.13-1.18-13.35-16.28-16.75-28.41-.45-1.62-.88-3.17-1.3-4.59l-.18-.6c-1.26-4.25-2.56-8.63-1-13.4 1.21-3.78 5.75-10.79 13.9-21.41 3.4-4.44 12.72-5.48 22.29-6h.58a7.63 7.63 0 0 1 7.35 3.88c1.58 2.93 1.11 6.76-1.24 10-1.74 2.38-5.26 3.57-8.67 4.71a20.94 20.94 0 0 0-4.1 1.64c-4.92 6.53-6.11 9.91-6.23 11.57-.16 2.37 3 8.19 5.2 11.38a2.85 2.85 0 1 1-4.7 3.24c-1.1-1.59-6.56-9.79-6.2-15 .34-4.78 4.43-10.69 7.47-14.72 1.27-1.67 3.68-2.48 6.74-3.51 1.95-.65 5.21-1.74 5.88-2.65 1.24-1.71 1.22-3.17.82-3.9a2 2 0 0 0-2-.88h-.59c-10.47.51-16.54 1.77-18 3.73-9.5 12.39-12.31 17.53-13 19.66-1 3.1 0 6.32 1.07 10l.18.6c.43 1.45.87 3 1.34 4.69 2.46 8.82 6.59 23.58 12 24.28 6.08.78 14.28.57 22.22.37 13.72-.36 21.66-.42 25.12 2.37 11.26 9.08 29.05 27.34 29.8 28.12a2.86 2.86 0 0 1-2.05 4.84Z"/><path d="M447.72 920.08a18.76 18.76 0 0 1-12.17-4.44c-5.76-4.93-16.22-20.83-19-28.83-2.29-6.65-1.27-13.14 1.19-28.84.6-3.81 1.29-8.21 2.05-13.32.91-6.21 3.06-10.09 6.36-11.53 1.81-.8 4.75-1.18 8.55 1.43 7.23 5 4.52 31.28 3 42.37a2.85 2.85 0 1 1-5.65-.77c2.4-17.79 2.12-35-.6-36.9-.74-.5-2.12-1.31-3-.9s-2.33 2.55-3 7.13c-.75 5.14-1.44 9.55-2.05 13.38C421 874 420.15 879.65 422 885c2.43 7 12.29 22.07 17.29 26.35a12.92 12.92 0 0 0 9.55 3 2.85 2.85 0 0 1 .87 5.64 12.11 12.11 0 0 1-1.99.09Z"/><path d="M435.93 915.22a2.78 2.78 0 0 1-1.36-.35c-.79-.42-19.49-10.61-26.12-20.45-6.5-9.64-2.59-42-1.74-48.42 1.22-9.1 6.69-9.89 8.35-9.91h.09c4.63 0 8.81 4.4 9.75 10.29a2.86 2.86 0 1 1-5.64.9c-.57-3.6-2.9-5.52-4.13-5.48s-2.36 2-2.75 5c-2.32 17.41-3.05 38.75.81 44.48 5.84 8.67 23.92 18.52 24.1 18.62a2.86 2.86 0 0 1-1.36 5.37Z"/><path d="M432 913a45.29 45.29 0 0 1-27.76-11.67c-5.9-5.44-14.83-18.89-22.77-31.34a10.39 10.39 0 0 1-.49-10.68 7.42 7.42 0 0 1 7.12-3.61c5.27.39 15.75 14.19 21.53 22.38a2.85 2.85 0 1 1-4.63 3.32c-6.41-9.07-14.94-19.27-17.43-20a1.69 1.69 0 0 0-1.65.86 4.72 4.72 0 0 0 .39 4.69c4.69 7.34 15.67 24.54 21.83 30.2a40.12 40.12 0 0 0 24 10.17A2.86 2.86 0 0 1 432 913ZM519.65 955.05a9.57 9.57 0 0 1-3.78-.72c-2.87-1.22-7.24-5-4.29-16.6a2.86 2.86 0 0 1 5.54 1.4c-1.37 5.39-1 9.1 1 9.94 3.51 1.5 13-3.24 19-12.84 6.84-11.05 7.21-29.35 2.71-36-1.42-2.12-2.75-2.2-3.76-2a2.86 2.86 0 0 1-1-5.63c3.73-.65 7.09 1 9.46 4.47 6.19 9.18 4.91 30.09-2.59 42.22-5.84 9.38-15.19 15.76-22.29 15.76Z"/><path d="M664.94 1016.17a2.85 2.85 0 0 1-2.79-2.26c0-.17-4.16-17.91-27-34.09-13.3-9.42-31.76-24.23-43.11-34-15.42-13.25-28.64-25.12-38.29-33.79-7.73-6.93-13.32-11.95-15.2-13.32a2.86 2.86 0 1 1 3.37-4.61c2.11 1.54 7.5 6.37 15.64 13.68 9.64 8.65 22.83 20.49 38.2 33.71 11.26 9.68 29.54 24.35 42.69 33.67 24.83 17.56 29.14 36.75 29.32 37.56a2.85 2.85 0 0 1-2.21 3.38 2.44 2.44 0 0 1-.62.07Z"/><path d="M656 1086.91c-12.44 0-28.17-7.47-40-19.4-39.75-39.92-99.71-106.25-104.28-116.87a2.86 2.86 0 0 1 5.25-2.26c3.86 9 61.66 73.51 103.08 115.1 12.06 12.12 28.83 19.44 39.89 17.39 20.63-3.82 42.62-45.75 42.84-46.17a2.85 2.85 0 1 1 5.06 2.63c-.94 1.82-23.5 44.83-46.87 49.15a27 27 0 0 1-4.97.43ZM729.48 806.12a2.85 2.85 0 0 1-.85-5.58c12.73-4 26.49-6.65 39.79-9.24 18.91-3.68 36.76-7.16 45.63-13.53 4-2.84 5.27-14.69 3.43-30.92a2.86 2.86 0 0 1 5.68-.64c1.53 13.51 1.77 30.77-5.78 36.21-9.88 7.09-27.48 10.52-47.86 14.49-13.16 2.56-26.76 5.21-39.19 9.08a2.79 2.79 0 0 1-.85.13ZM639.17 980a2.69 2.69 0 0 1-1.07-.21 2.85 2.85 0 0 1-1.58-3.71c11.77-29.08 20.48-60.81 28.11-88.76l.42-1.53a2.86 2.86 0 0 1 5.51 1.51l-.42 1.53c-7.7 28.1-16.42 59.95-28.32 89.41a2.86 2.86 0 0 1-2.65 1.76Z"/><path d="M710.19 1180.92a2.85 2.85 0 0 1-2.85-2.73c0-.58-2.77-58.84-4.11-126.36-1.06-53.59-1.18-121.25.65-146.87a2.9 2.9 0 0 1 3-2.65 2.86 2.86 0 0 1 2.64 3.06c-1.81 25.44-1.69 92.88-.63 146.35 1.34 67.44 4.07 125.63 4.1 126.21a2.85 2.85 0 0 1-2.72 3ZM1082.24 1182a2.87 2.87 0 0 1-2.85-2.62c-.2-2.47-20.43-247.54-26.41-294.7-6-47-31.82-60.16-42.87-65.78-12.83-6.54-27.85-11.62-42.38-16.52-24.43-8.27-45.53-15.4-52.47-27.8-9.36-16.72-6.93-44.56-5.15-64.88.29-3.39.57-6.51.75-9.24a2.86 2.86 0 0 1 5.7.38c-.19 2.76-.46 5.92-.76 9.35-1.61 18.49-4 46.42 4.44 61.6 5.87 10.49 27 17.62 49.32 25.17 14.72 5 29.94 10.12 43.14 16.85 11.85 6 39.61 20.17 46 70.15 6 47.29 26.23 292.48 26.44 294.95a2.86 2.86 0 0 1-2.62 3.08Z"/><path d="M976.58 929.46h-.27a2.85 2.85 0 0 1-2.58-3.11c4.38-46.52 35.4-79.28 36.72-80.65a2.85 2.85 0 1 1 4.12 3.95c-.31.32-31 32.76-35.15 77.24a2.85 2.85 0 0 1-2.84 2.57ZM1010 1182.45a2.84 2.84 0 0 1-2.78-2.25c-2.72-12.58-6.47-40.6-10.82-73-7.54-56.33-16.93-126.44-25.19-147.09a2.85 2.85 0 0 1 5.3-2.12c8.53 21.31 18 91.81 25.55 148.46 4.33 32.31 8.07 60.22 10.74 72.58a2.87 2.87 0 0 1-2.19 3.4 3.15 3.15 0 0 1-.61.02Z"/><path d="M988.29 1182.28a2.86 2.86 0 0 1-2.85-2.72c-1.61-34.13-.52-79.1 3.16-130a2.9 2.9 0 0 1 3.06-2.65 2.86 2.86 0 0 1 2.64 3.06c-3.67 50.72-4.76 95.45-3.16 129.37a2.84 2.84 0 0 1-2.71 3ZM850.49 841.17h-.62c-16-.91-39.65-36.63-45.86-54.87a2.85 2.85 0 1 1 5.4-1.84c6.21 18.23 28.71 50.32 40.78 51 12.61.71 53.33-32.85 70.17-55.31a2.86 2.86 0 0 1 4.57 3.43c-16.55 22.06-57.73 57.59-74.44 57.59ZM920.85 690a2.85 2.85 0 0 1-.92-5.55c6.08-2.08 10.1-3.45 14.41-12.3 2.85-5.86 2.22-14.36-1.37-18.57-2.55-3-6.37-3.75-11.34-2.24a2.85 2.85 0 1 1-1.66-5.46c7.13-2.17 13.3-.76 17.34 4 5.68 6.65 5.56 17.82 2.17 24.78-5.36 11-11.35 13-17.71 15.2a2.65 2.65 0 0 1-.92.14Z"/><path d="M921.27 674.2a2.79 2.79 0 0 1-.9-.15 2.85 2.85 0 0 1-1.81-3.61 17.78 17.78 0 0 1 6.57-9.29 2.85 2.85 0 0 1 3.09 4.8 12.58 12.58 0 0 0-4.24 6.3 2.87 2.87 0 0 1-2.71 1.95ZM850.25 765.06c-20.78 0-49.24-34.38-54.16-48.84-3.74-11-5.57-21.44-7.63-36.88-1.89-14.14-2.38-16.05-5.6-28.48a2.86 2.86 0 1 1 5.53-1.43c3.29 12.72 3.8 14.67 5.73 29.15 2 15.08 3.79 25.26 7.37 35.8 5.15 15.13 34.8 47.64 50.79 44.8 16.94-3 42.79-21.58 49.72-33.24 6.8-11.44 9.89-30.71 9.92-30.9a2.85 2.85 0 0 1 5.64.89c-.13.83-3.29 20.53-10.65 32.93-7.66 12.89-35 32.64-53.63 35.94a16.9 16.9 0 0 1-3.03.26Z"/><path d="M846.22 696.42a2.86 2.86 0 0 1-1.89-.71c-2.65-2.34-10.72-9.45-7.37-16a20.54 20.54 0 0 1 2-2.84c3.21-4.11 7.6-9.73.13-23.78a2.85 2.85 0 1 1 5-2.68c9.21 17.32 2.79 25.55-.67 30a16.44 16.44 0 0 0-1.39 2c-.31.6-.78 3 6.07 9.06a2.86 2.86 0 0 1 .25 4 2.81 2.81 0 0 1-2.13.95ZM859.3 640.26a2.86 2.86 0 0 1-1.38-5.36c10.64-5.82 19.93-5.86 31-.1a2.86 2.86 0 0 1-2.63 5.07c-10.9-5.65-18.14-4.07-25.65 0a2.85 2.85 0 0 1-1.34.39Z"/><path class="cls-17" d="M825.9 663.44c-.21-5.42-3.55-9.69-7.44-9.53s-6.88 4.68-6.66 10.1a12 12 0 0 0 2.33 6.86 6.26 6.26 0 0 0 5.11 2.67c3.89-.16 6.87-4.68 6.66-10.1Z"/><path d="M803.2 643.21a2.86 2.86 0 0 1-1.36-5.37c9-4.88 18.07-5.11 27.71-.71a2.86 2.86 0 1 1-2.36 5.2c-8-3.66-15.21-3.49-22.63.53a2.78 2.78 0 0 1-1.36.35ZM810.33 624.92a3.12 3.12 0 0 1-3-1.88c-.89-2.16.61-3.51 3.09-5.77 4.57-4.14 14.07-12.75 17.31-25.84a2.86 2.86 0 0 1 5.55 1.37c-2.91 11.73-10.28 20.29-15.5 25.41a33.11 33.11 0 0 0 15.61-9.33c5.46-5.58 10.19-15.8 12.73-21.29.8-1.72 1.43-3.07 1.86-3.85a4.28 4.28 0 0 1 4.54-2.27c4.63.7 9.58 8.52 10.91 15a2.85 2.85 0 1 1-5.59 1.15 20.14 20.14 0 0 0-5.43-10c-.31.65-.68 1.45-1.11 2.37-2.87 6.21-7.68 16.6-13.83 22.88-11.07 11.32-22.71 11.85-26.54 12h-.41Zm-.07-5.71Z"/><path d="M778 653.63a17.43 17.43 0 0 1-5.17-.66A2.85 2.85 0 0 1 772 648a60.85 60.85 0 0 0 18.9-33.29 2.85 2.85 0 0 1 5.6 1.08 66.56 66.56 0 0 1-16.09 32 30.18 30.18 0 0 0 11.3-4l1.94-1.07c6.21-3.41 12.08-6.63 18.92-21.31a2.85 2.85 0 0 1 5.17 2.41c-7.63 16.37-14.92 20.37-21.35 23.9l-1.86 1c-6.93 4-12.68 4.91-16.53 4.91ZM912.22 635.5a27.42 27.42 0 0 1-2.82-.14c-6.54-.69-18.84-4.32-27.66-20.88-5.1-9.59-9.41-11.09-10.64-10.85a2.77 2.77 0 0 1-3.55-1.76 2.94 2.94 0 0 1 1.83-3.68c.87-.31 8.79-2.56 17.4 13.6 6.4 12 14.84 16.29 20.89 17.58-4.47-3.84-10.18-10.86-14.87-24.07a2.86 2.86 0 0 1 5.39-1.91c6.8 19.21 15.53 23.61 18.4 25.05 1.17.59 2.38 1.2 2.7 2.76a3.19 3.19 0 0 1-.66 2.57c-1.2 1.43-4.13 1.73-6.41 1.73Zm2.82-6Z"/><path d="M909.65 650.55h-.23c-5.92-.47-16.46-4.37-20.54-25.33a2.85 2.85 0 1 1 5.6-1.09c2.49 12.78 7.95 20.14 15.39 20.72a2.86 2.86 0 0 1-.22 5.71ZM790.2 576c-7.37 0-12.84-2.08-15.16-3.89a3.42 3.42 0 0 1-1.55-3.45 3.24 3.24 0 0 1 2.18-2.35l1.21-.32c3-.78 9.87-2.6 14.08-5.06 1-.6 2.27-1.34 3.66-2.17 12.66-7.57 39-23.27 58.08-22.25 15 .85 22.33 9 22.63 9.38a2.86 2.86 0 0 1-4.3 3.76c-.26-.3-6.16-6.74-18.65-7.44-17.33-1-42.66 14.17-54.83 21.45-1.4.84-2.65 1.59-3.71 2.21a49 49 0 0 1-9.31 3.87c5.07 1 13 1 22.46-3.41a2.85 2.85 0 0 1 2.42 5.17 45.26 45.26 0 0 1-19.21 4.5Z"/><path d="M788.67 668.62a2.79 2.79 0 0 1-1.89-.73c-.23-.2-5.57-5.06-13.55-20.84-4.42-8.71-8.91-18.83-8.74-27.76.28-15.19 8.93-33.46 22.55-47.69a2.85 2.85 0 0 1 4.13 3.94c-12.68 13.24-20.71 30-21 43.85-.15 7.73 4.26 17.46 8.12 25.08 7.39 14.59 12.23 19.13 12.28 19.18a2.86 2.86 0 0 1-1.93 5ZM943.27 613.81c-6 0-13.55-2.6-20.8-12.37a2.86 2.86 0 1 1 4.59-3.4c6.69 9 13.34 10.57 18 10.05a28.35 28.35 0 0 1-7.61-9.54 45.71 45.71 0 0 1-3.58-9.13c-1.36-4.47-2.91-9.53-9.07-20a33.66 33.66 0 0 0-37.38-15.91 2.86 2.86 0 0 1-1.31-5.56 39.3 39.3 0 0 1 43.62 18.57c6.5 11.05 8.22 16.7 9.6 21.24a41.22 41.22 0 0 0 3.16 8.11c5.19 9.74 10.34 9.4 10.39 9.42a2.88 2.88 0 0 1 3 1.85 2.81 2.81 0 0 1-1 3.3 21.85 21.85 0 0 1-11.61 3.37ZM869.78 590.45a2.81 2.81 0 0 1-1.61-.5 2.86 2.86 0 0 1-.74-4c5.31-7.73 9.58-14.89 8.11-24.38a2.85 2.85 0 1 1 5.64-.88c1.8 11.55-3.25 20.07-9 28.49a2.86 2.86 0 0 1-2.4 1.27Z"/><path d="M934.5 652.92a2.85 2.85 0 0 1-2.6-4c9.17-20.44 5.25-36.23 5.21-36.39a2.86 2.86 0 0 1 5.53-1.45c.19.72 4.52 17.79-5.54 40.18a2.84 2.84 0 0 1-2.6 1.66Z"/><path class="cls-5" d="M871.74 706.57a132.26 132.26 0 0 1-23.83 3.84 94.13 94.13 0 0 1-23.37-1.35s6.18 23.24 23.33 23.25c20.46.01 23.87-25.74 23.87-25.74Z"/><path d="M847.88 735.16c-19.12 0-25.81-24.33-26.08-25.36a2.85 2.85 0 0 1 3.35-3.53 91.91 91.91 0 0 0 22.59 1.29 130.77 130.77 0 0 0 23.26-3.74 2.88 2.88 0 0 1 2.64.6 2.85 2.85 0 0 1 1 2.53c-1.36 9.76-8.64 28.21-26.76 28.21Zm-19-22.51c2.57 6.18 8.53 16.8 19 16.8 13.14 0 18.3-12.33 20.13-19a140.25 140.25 0 0 1-19.91 2.85 101.88 101.88 0 0 1-19.25-.65Z"/><path class="cls-17" d="M881.48 662.06c-.22-5.43-3.55-9.69-7.44-9.53s-6.88 4.68-6.67 10.1a12.07 12.07 0 0 0 2.34 6.86 6.24 6.24 0 0 0 5.1 2.67c3.9-.16 6.88-4.68 6.67-10.1ZM821.1 748.6s20.73 18 43.18 9.26c8.13-3.16 20-10.17 27.39-17.2 13.05-12.37 12.93-9.92 12.93-9.92s-13.25 24.55-39 41.89c-21.21 14.3-44.27-9.49-44.27-9.49Z"/><path d="M499.32 895.7a2.93 2.93 0 0 1-1.25-.29c-12.86-6.26-20-5.69-27.63-5.07a52.59 52.59 0 0 1-12.83-.08 2.85 2.85 0 1 1 .85-5.64 48.28 48.28 0 0 0 11.52 0c7.66-.62 16.33-1.31 30.59 5.62a2.86 2.86 0 0 1-1.25 5.43Z"/><path class="cls-17" d="M514.47 937.5 527 947.93s-10.31 6.31-12.55 2.9c-5.2-7.92.02-13.33.02-13.33Z"/><path d="M349.08 604a2.87 2.87 0 0 1-2.33-1.2l-29.2-41a2.85 2.85 0 1 1 4.65-3.31l29.21 41a2.86 2.86 0 0 1-2.33 4.51ZM416 571a2.86 2.86 0 0 1-2.71-1.93l-18.93-55.33a2.85 2.85 0 0 1 5.4-1.85l18.94 55.33a2.86 2.86 0 0 1-1.78 3.63 3 3 0 0 1-.92.15ZM487.78 562.51a2.86 2.86 0 0 1-2.85-2.82l-.76-61.88a2.86 2.86 0 0 1 2.82-2.89 2.81 2.81 0 0 1 2.89 2.82l.76 61.88a2.86 2.86 0 0 1-2.82 2.89ZM623.41 602.48a2.82 2.82 0 0 1-1.66-.53 2.86 2.86 0 0 1-.67-4l29.21-41a2.85 2.85 0 0 1 4.65 3.31l-29.21 41a2.81 2.81 0 0 1-2.32 1.22ZM556.49 569.48a2.73 2.73 0 0 1-.92-.15 2.86 2.86 0 0 1-1.78-3.63l18.94-55.32a2.85 2.85 0 1 1 5.4 1.85l-18.93 55.32a2.86 2.86 0 0 1-2.71 1.93ZM2100.89 770.5a2.84 2.84 0 0 1-2.33-1.2l-29.2-41a2.85 2.85 0 0 1 4.64-3.3l29.21 41a2.85 2.85 0 0 1-.68 4 2.82 2.82 0 0 1-1.64.5ZM2167.8 737.5a2.87 2.87 0 0 1-2.7-1.93l-18.94-55.32a2.86 2.86 0 1 1 5.4-1.86l18.94 55.33a2.86 2.86 0 0 1-1.77 3.63 3 3 0 0 1-.93.15ZM2239.59 729a2.87 2.87 0 0 1-2.86-2.83l-.76-61.87a2.86 2.86 0 0 1 2.82-2.89 2.86 2.86 0 0 1 2.85 2.82l.77 61.87a2.88 2.88 0 0 1-2.83 2.9ZM2375.21 768.94a2.82 2.82 0 0 1-1.65-.53 2.85 2.85 0 0 1-.67-4l29.2-41a2.85 2.85 0 0 1 4.65 3.31l-29.2 41a2.84 2.84 0 0 1-2.33 1.22ZM2308.3 735.94a3 3 0 0 1-.93-.15 2.86 2.86 0 0 1-1.77-3.63l18.94-55.33a2.85 2.85 0 0 1 5.4 1.85L2311 734a2.85 2.85 0 0 1-2.7 1.94ZM1248.13 585a2.87 2.87 0 0 1-2.33-1.2l-29.2-41a2.85 2.85 0 0 1 4.65-3.31l29.2 41a2.86 2.86 0 0 1-2.32 4.51ZM1308.18 546.32a2.86 2.86 0 0 1-2.7-1.93l-18.94-55.33a2.86 2.86 0 0 1 5.41-1.84l18.93 55.32a2.85 2.85 0 0 1-1.77 3.63 3 3 0 0 1-.93.15ZM1380 532.07a2.85 2.85 0 0 1-2.85-2.82l-.76-61.87a2.85 2.85 0 0 1 2.82-2.89 2.74 2.74 0 0 1 2.89 2.82l.76 61.87a2.85 2.85 0 0 1-2.82 2.89ZM1501.3 581.76a2.86 2.86 0 0 1-2.32-4.51l29.2-41a2.86 2.86 0 1 1 4.65 3.32l-29.2 41a2.84 2.84 0 0 1-2.33 1.19ZM1444.11 546.48a2.76 2.76 0 0 1-.93-.16 2.85 2.85 0 0 1-1.77-3.62l18.93-55.33a2.86 2.86 0 0 1 5.41 1.85l-18.94 55.33a2.87 2.87 0 0 1-2.7 1.93ZM342.28 867.15c-17.53 0-31.79-13.6-31.79-30.32s14.26-30.32 31.79-30.32 31.79 13.6 31.79 30.32-14.26 30.32-31.79 30.32Zm0-54.93c-14.38 0-26.08 11-26.08 24.61s11.7 24.61 26.08 24.61 26.08-11 26.08-24.61-11.7-24.61-26.08-24.61Z"/><path d="M342.28 858.75c-12.65 0-22.95-9.83-22.95-21.92s10.3-21.92 22.95-21.92 23 9.83 23 21.92-10.34 21.92-23 21.92Zm0-38.13c-9.5 0-17.24 7.27-17.24 16.21S332.78 853 342.28 853s17.24-7.27 17.24-16.21-7.73-16.17-17.24-16.17Z"/><path d="M320.69 906.18a2.82 2.82 0 0 1-1.43-.39 2.85 2.85 0 0 1-1.42-2.71l3.72-43.08a2.86 2.86 0 1 1 5.69.49l-3.19 37L340.63 886a2.85 2.85 0 0 1 3.11-.1l18.81 11.41-5.22-37.55a2.85 2.85 0 0 1 5.65-.79l6.02 43.46a2.85 2.85 0 0 1-4.31 2.83l-22.32-13.56-20.05 14a2.79 2.79 0 0 1-1.63.48Z"/><path d="M329.7 899.51h-.21a2.86 2.86 0 0 1-2.65-3l2.34-32.85a2.94 2.94 0 0 1 3.05-2.65 2.85 2.85 0 0 1 2.64 3l-2.33 32.85a2.86 2.86 0 0 1-2.84 2.65ZM356.87 900a2.86 2.86 0 0 1-2.83-2.47l-4.67-34a2.86 2.86 0 0 1 5.66-.77l4.67 34a2.86 2.86 0 0 1-2.44 3.22ZM1232.22 1080.48c-17.87 0-32.42-13.87-32.42-30.91s14.55-30.92 32.42-30.92 32.42 13.87 32.42 30.92-14.54 30.91-32.42 30.91Zm0-56.12c-14.72 0-26.71 11.31-26.71 25.21s12 25.2 26.71 25.2 26.71-11.31 26.71-25.2-11.93-25.21-26.71-25.21Z"/><path d="M1232.22 1071.91c-12.89 0-23.38-10-23.38-22.34s10.49-22.35 23.38-22.35 23.39 10 23.39 22.35-10.49 22.34-23.39 22.34Zm0-39c-9.74 0-17.67 7.47-17.67 16.64s7.93 16.63 17.67 16.63 17.68-7.47 17.68-16.63-7.9-16.62-17.68-16.62ZM1210.88 1123a2.85 2.85 0 0 1-2.46-1.4L1198 1104l-19.32 2.51a2.86 2.86 0 0 1-2.68-4.51l28.15-38.17a2.85 2.85 0 1 1 4.59 3.39l-24.15 32.78 14.56-1.89a2.85 2.85 0 0 1 2.82 1.38l8.22 13.89 12.48-36.21a2.86 2.86 0 1 1 5.4 1.86l-14.5 42a2.83 2.83 0 0 1-2.41 1.91 1.32 1.32 0 0 1-.28.06Z"/><path d="M1252.44 1123.36h-.29a2.88 2.88 0 0 1-2.41-1.91l-14.49-42.07a2.86 2.86 0 0 1 5.4-1.86l12.48 36.22 8.22-13.89a2.83 2.83 0 0 1 2.82-1.38l14.56 1.89-24.17-32.78a2.85 2.85 0 0 1 4.59-3.39l28.15 38.17a2.86 2.86 0 0 1-2.67 4.53l-19.33-2.51-10.4 17.62a2.87 2.87 0 0 1-2.46 1.36ZM2108 1049.79c-18 0-32.6-14-32.6-31.08s14.62-31.08 32.6-31.08 32.59 13.94 32.59 31.08-14.59 31.08-32.59 31.08Zm0-56.45c-14.83 0-26.89 11.38-26.89 25.37s12.06 25.37 26.89 25.37 26.88-11.38 26.88-25.37-12.03-25.37-26.88-25.37Z"/><path d="M2108 1041.17c-13 0-23.51-10.08-23.51-22.46s10.54-22.46 23.51-22.46 23.5 10.08 23.5 22.46-10.5 22.46-23.5 22.46Zm0-39.21c-9.82 0-17.8 7.51-17.8 16.75s8 16.75 17.8 16.75 17.79-7.52 17.79-16.75-7.95-16.71-17.79-16.71ZM2078.84 1051.77a2.65 2.65 0 0 1-1.45-.42 2.73 2.73 0 0 1-.95-3.81l6.25-9.73a2.86 2.86 0 1 1 4.8 3.1l-6.08 9.46a3.09 3.09 0 0 1-2.57 1.4ZM2104.43 1058.85a2.74 2.74 0 0 1-.74-.1 2.84 2.84 0 0 1-2-3.5l2.16-7.92a2.86 2.86 0 1 1 5.51 1.52l-2.16 7.88a2.87 2.87 0 0 1-2.77 2.12ZM2122.52 1094.56a1.71 1.71 0 0 1-.39 0 2.83 2.83 0 0 1-2.34-2l-7.46-24.75a2.85 2.85 0 0 1 5.46-1.65l5.69 18.84 8.82-13.67a2.88 2.88 0 0 1 2.88-1.27l14.59 2.48-21.25-31.31a2.85 2.85 0 1 1 4.72-3.21l25 36.85a2.86 2.86 0 0 1-2.84 4.42l-19.34-3.28-11.16 17.27a2.84 2.84 0 0 1-2.38 1.28Z"/><path d="M2113.54 1064.8a2.85 2.85 0 0 1-2.7-1.94l-.24-.82-3.73-12.35a2.86 2.86 0 0 1 5.47-1.65l3.94 13.06a2.86 2.86 0 0 1-1.86 3.56 2.7 2.7 0 0 1-.88.14ZM2126.1 997.28a2.78 2.78 0 0 1-1.24-.29 2.85 2.85 0 0 1-1.32-3.81l.63-1.3a23.75 23.75 0 0 0 2.52-6.57c-1.28-1.26-6.15-2.82-8.11-2.58-.81 1.69-1.6 3.61-2.5 5.8l-1.2 2.9a2.86 2.86 0 0 1-5.27-2.22l1.19-2.86c1.06-2.57 2-4.79 3-6.83 2-4 9-2.1 11.09-1.41 5.33 1.75 8.07 4.53 7.54 7.63a28 28 0 0 1-3.12 8.65l-.62 1.28a2.85 2.85 0 0 1-2.59 1.61ZM2089 997.87a2.87 2.87 0 0 1-2.58-1.61l-.61-1.27a27.89 27.89 0 0 1-3.13-8.66c-.53-3.11 2.22-5.89 7.57-7.65 2.09-.67 9-2.6 11.06 1.43 1 2 2 4.31 3 6.92l.74 1.81a2.85 2.85 0 1 1-5.27 2.18l-.75-1.82c-.92-2.22-1.72-4.17-2.54-5.89-1.94-.16-6.83 1.33-8.11 2.59a23.66 23.66 0 0 0 2.53 6.58l.62 1.28a2.86 2.86 0 0 1-1.32 3.82 2.92 2.92 0 0 1-1.21.29Z"/></g></svg>