<svg version="1.1" id="Layer_1" xmlns="http://www.w3.org/2000/svg" x="0" y="0" viewBox="0 0 860.8 403.9" style="enable-background:new 0 0 860.8 403.9" xml:space="preserve"><style>.st1{fill:#e9f3fc}.st3{fill:#e3ecf5}.st4{fill:#7703fc}.st5{fill:#daeeff}.st6{fill:#6ac1ff}.st8{fill:#14336a}.st11{fill:#d0daed}.st12{fill:#ffaa9d}</style><ellipse cx="424.8" cy="383.5" rx="168.1" ry="5" style="opacity:.2;fill:#0b2252"/><path class="st1" d="M526.8 45.3c2.4-2.4 5.6-3.8 9.2-3.8h12.9c1.9-8.9 9.8-15.5 19.3-15.5 9.4 0 17.3 6.6 19.3 15.5h3.5c3.6 0 6.8 1.5 9.2 3.8 2.4 2.4 3.8 5.6 3.8 9.2 0 4-1.8 7.5-4.6 9.9-2.3 1.9-5.2 3.1-8.4 3.1h-55c-3.6 0-6.8-1.5-9.2-3.8-2.4-2.4-3.8-5.6-3.8-9.2 0-3.6 1.4-6.9 3.8-9.2zM368.6 64.9c-2.2-2.2-5.3-3.6-8.6-3.6h-12.2c-1.8-8.3-9.2-14.6-18.1-14.6s-16.3 6.2-18.1 14.6h-3.3c-3.4 0-6.4 1.4-8.6 3.6-2.2 2.2-3.6 5.3-3.6 8.6 0 3.7 1.7 7.1 4.3 9.3 2.1 1.8 4.9 2.9 7.9 2.9h51.6c3.4 0 6.4-1.4 8.6-3.6 2.2-2.2 3.6-5.3 3.6-8.6.1-3.4-1.3-6.4-3.5-8.6z"/><path d="M560.1 296H303.9c-7.5 0-13.7-6.1-13.7-13.7V128.2c0-7.5 6.1-13.7 13.7-13.7h256.2c7.5 0 13.7 6.1 13.7 13.7v154.1c-.1 7.6-6.2 13.7-13.7 13.7z" style="fill:#fff"/><path class="st3" d="M560.6 297.6H303.4c-8.1 0-14.8-6.6-14.8-14.8V127.7c0-8.1 6.6-14.8 14.8-14.8h257.2c8.1 0 14.8 6.6 14.8 14.8v155.1c-.1 8.1-6.7 14.8-14.8 14.8zM303.4 116.1c-6.4 0-11.6 5.2-11.6 11.6v155.1c0 6.4 5.2 11.6 11.6 11.6h257.2c6.4 0 11.6-5.2 11.6-11.6V127.7c0-6.4-5.2-11.6-11.6-11.6H303.4z"/><path class="st4" d="M407.3 167.8c6.2-6.6 14.7-9.9 25.6-9.9 10 0 18 2.8 24.1 8.5 6 5.7 9 12.9 9 21.7 0 5.3-1.1 9.6-3.3 13-2.2 3.3-6.7 8.2-13.4 14.6-4.9 4.7-8.1 8.6-9.6 11.9-1.5 3.2-2.2 8-2.2 14.4H424c0-7.2.9-13 2.6-17.4 1.7-4.4 5.5-9.4 11.4-15.1l6.2-6c1.8-1.7 3.3-3.5 4.5-5.4 2.1-3.3 3.1-6.7 3.1-10.2 0-4.9-1.5-9.2-4.5-12.8-3-3.6-8-5.4-14.9-5.4-8.6 0-14.5 3.1-17.8 9.3-1.8 3.5-2.9 8.5-3.2 15H398c0-10.8 3.1-19.5 9.3-26.2zm16.4 86.6h15v15.7h-15v-15.7z"/><path class="st3" d="M573.1 139H291.8c-.9 0-1.6-.7-1.6-1.6s.7-1.6 1.6-1.6h281.3c.9 0 1.6.7 1.6 1.6s-.7 1.6-1.6 1.6z"/><circle transform="rotate(-80.781 305.185 126.66)" class="st3" cx="305.2" cy="126.7" r="3.2"/><circle transform="rotate(-76.714 318.089 126.666)" class="st3" cx="318.1" cy="126.7" r="3.2"/><circle transform="rotate(-80.781 330.945 126.66)" class="st3" cx="330.9" cy="126.7" r="3.2"/><path class="st5" d="M213.5 268.8c-6.3-.2-13.1-2.4-13-12.5.1-10.1 7.5-11.7 8.2-19.3.7-7.6.8-14.6 4.7-14.7 4-.1 1.5 3.2 3.3 6.7 1.8 3.5 5.4 8 4.7 14.6-.7 6.6 4 9.1 3.7 14.4-.1 5.4-3.5 11.1-11.6 10.8z"/><path class="st6" d="M215.8 243c-.1-.1-.3-.1-.4 0-.1.1-.1.3 0 .4 0 0 1.6 1.6 1.5 7.2-.1 4.8-2.7 12.3-3.4 14.6-.7-1.8-1.7-3.7-2.5-5.3-.5-1.1-1-2.1-1.3-2.7-.9-2.2.5-6.8.5-6.9 0-.1 0-.3-.2-.3-.1 0-.3 0-.3.2-.1.2-1.5 4.9-.5 7.2.3.6.7 1.6 1.3 2.7 1.5 3 3.7 7.5 3.7 9.2 0 2.4-.3 5.9-.3 6 0 .2.1.3.3.3.1 0 .3-.1.3-.3 0 0 .3-3.5.3-6 0-.8-.4-2-.9-3.4.4-1 3.5-9.8 3.7-15.3.1-5.8-1.7-7.5-1.8-7.6z"/><path class="st5" d="M680.7 242.7c-5.4-.2-11.2-2-11.1-10.7.1-8.6 6.4-10 7-16.4.6-6.5.7-12.5 4-12.5s1.2 2.7 2.8 5.7 4.6 6.8 4 12.4c-.6 5.6 3.4 7.7 3.2 12.3-.1 4.5-3 9.4-9.9 9.2z"/><path class="st6" d="M682.7 220.7c-.1-.1-.2-.1-.3 0-.1.1-.1.2 0 .3 0 0 1.4 1.4 1.3 6.2-.1 4.1-2.3 10.5-2.9 12.4-.6-1.5-1.5-3.2-2.1-4.6-.5-.9-.9-1.8-1.1-2.3-.8-1.9.4-5.8.4-5.9 0-.1 0-.3-.2-.3-.1 0-.3 0-.3.2-.1.2-1.3 4.1-.4 6.2.2.5.6 1.3 1.1 2.3 1.3 2.5 3.2 6.4 3.1 7.9 0 2.1-.3 5-.3 5.1 0 .1.1.2.2.3.1 0 .2-.1.2-.2 0 0 .3-3 .3-5.1 0-.7-.3-1.7-.8-2.9.3-.8 3-8.4 3.1-13.1.2-5-1.3-6.5-1.3-6.5z"/><path class="st5" d="M261.3 226.8c-3.7-.1-7.7-1.4-7.6-7.3.1-5.9 4.4-6.9 4.8-11.3.4-4.4.5-8.6 2.8-8.6s.9 1.9 1.9 3.9c1.1 2.1 3.2 4.7 2.8 8.5-.4 3.8 2.3 5.3 2.2 8.5-.2 3.1-2.1 6.4-6.9 6.3z"/><path class="st6" d="M262.7 211.6c-.1-.1-.2-.1-.2 0-.1.1-.1.2 0 .2 0 0 1 1 .9 4.2-.1 2.8-1.6 7.2-2 8.5-.4-1-1-2.2-1.5-3.1-.3-.6-.6-1.2-.7-1.6-.5-1.3.3-4 .3-4 0-.1 0-.2-.1-.2s-.2 0-.2.1-.9 2.9-.3 4.2c.2.4.4.9.8 1.6.9 1.7 2.2 4.4 2.2 5.4 0 1.4-.2 3.5-.2 3.5 0 .1.1.2.1.2.1 0 .2-.1.2-.1s.2-2.1.2-3.5c0-.5-.2-1.2-.5-2 .2-.6 2.1-5.8 2.2-9-.2-3.3-1.2-4.3-1.2-4.4z"/><path class="st5" d="M623.1 286.4c-6.5-.2-13.5-2.5-13.3-12.8.2-10.4 7.7-12 8.4-19.7.8-7.8.8-15 4.9-15.1 4.1-.1 1.5 3.2 3.4 6.8 1.9 3.6 5.5 8.2 4.8 14.9-.7 6.7 4.1 9.3 3.8 14.8-.2 5.5-3.6 11.4-12 11.1z"/><path class="st6" d="M625.5 260c-.1-.1-.3-.1-.4 0-.1.1-.1.3 0 .4 0 0 1.7 1.7 1.5 7.4-.1 5-2.7 12.6-3.5 14.9-.8-1.8-1.7-3.8-2.6-5.5-.6-1.1-1-2.1-1.3-2.7-1-2.3.5-7 .5-7 0-.1 0-.3-.2-.4-.1 0-.3 0-.4.2-.1.2-1.5 5-.5 7.4.3.6.8 1.6 1.3 2.8 1.5 3.1 3.8 7.7 3.8 9.5 0 2.5-.3 6.1-.4 6.1 0 .2.1.3.3.3.1 0 .3-.1.3-.3 0 0 .3-3.6.4-6.1 0-.8-.4-2.1-.9-3.5.4-1 3.6-10.1 3.8-15.7.2-6-1.6-7.8-1.7-7.8z"/><path class="st4" d="M271.9 294.9c-3.7 1-17.6.4-14.9-6.5 2.9-7.6 10.8-1 14.2 3.3-1.3-6.7-1.5-13.6-1.4-17.3-2.5-3-7.8-22.1 2.6-21.1 13.6 1.2 1.6 19.3-1.6 21.3 0 4.4.3 13.1 2.3 20.7.4-4.8 5.2-18.5 11.6-13.6 9.2 7-8.4 15.4-11.1 15.3.8 2.8 1.9 5.3 3.4 7.3 1 1.5 2.2 3.2 3.3 5l.1.1c.6-5.1 5.3-18 11.5-13.3 8.6 6.5-6.2 14.3-10.4 15.2 2.6 4.2 5.3 9.1 7.3 13.7.3-4.6 9.3-13.9 12.8-8.6 2 3-8.5 12.7-12 10.5 2 4.8 3.2 9.3 2.8 12.6-.2 1.2-.4 2.6-.6 4.2 2.5-2.7 11.3-11.8 14-4.8 2.2 5.8-5.1 9.2-8.2 9.2-2.4 0-5-2.3-6-3.3-.1.8-.3 1.7-.4 2.6-1.2 7.2-2.7 15.8-2.3 21 2.1-4.1 11.4-21 16.9-10.1 2.8 5.6-5.1 10.3-8.2 11.3-2.5.8-7 .1-8.6-.2.1.6.2 1.1.3 1.6 2 6 6.1 12.1 6.1 12.2.2.2.1.6-.1.7-.1.1-.2.1-.3.1-.2 0-.3-.1-.4-.2 0-.1-3-4.6-5.2-9.7-2.4-.3-11.7-1.6-14.4-3.3-3.1-2.1-8.6-8.8-4.1-11.3 6.9-3.9 14.2 6.4 17.4 11.7-1.2-4-.1-11.9 1.1-19.4-2.5.7-10.6-.7-13.4-2.6-3.1-2.1-8.4-7.4-5.1-10.3 8.1-7.2 16.8 8.1 18.7 11.8.2-1.2.4-2.3.6-3.4.5-3 1-5.8 1.3-7.9.4-3.1-.8-7.5-2.8-12.4-1.6.5-7.1 2-13.1 1.2-7.2-1-10.8-6.6-8.2-9.2 4.4-4.4 17.6 4.8 21 7.3-2.1-4.8-5-10.2-8.1-15.2-4.2 1-20.8.6-18.6-6 2.3-6.6 10.8-2.2 15.8 1.7l-1.2-1.8c-2.1-2.8-3.4-6.3-4.4-10.1z"/><path d="M301.6 358.4c8.6-3.4 10.7 9.7 11.2 14 1.9-6.3 2.7-14 1.8-20.2-1.3 0-6.4-.3-9.9-2-4.1-2.1-6.6-10.3-3.1-11.3 6-1.7 11.2 8.6 12.8 12.2-.1-.8-.3-1.6-.5-2.3-1.3-4.8-2.3-11-2.7-17.1-1.6 0-6.1-.2-8.6-1-3.1-1-8.3-9.1-4.1-10.3 5.8-1.6 10.9 6.6 12.6 9.9-.3-6.3-.1-12.4 1-16.6-.5-1.8-1.3-5.7-1.3-8.7 0-4.1 4.8-12.2 9.2-8.2 8.2 7.3-4.1 15.7-7 17.6-1 4.1-1.2 10-.9 16.1 1.8-4.6 9.2-21.2 18.1-13.2 3.4 3.1-4.1 10.3-9.2 12.3-4.1 1.6-7.6 2-8.8 2 .4 6 1.4 12.1 2.6 16.8l.6 2.7c1.9-3.9 11-20.6 21-13.3 4.1 3-4.1 10.3-8.2 12.3-3.5 1.8-10.7 1.9-12.6 1.8.9 6.2.1 13.8-1.8 20.2 3-4.6 11.8-16.3 18.5-8.7 4 4.5-6.3 8.3-9.2 9.2-2.6.9-8.1 1.1-9.8 1.2-1.5 4.4-3.4 8.1-5.8 10-.1.1-.2.1-.3.1-.1 0-.3-.1-.4-.2-.2-.2-.2-.5.1-.7 2.2-1.8 4.1-5.3 5.5-9.5-1.3-.6-5.2-2.2-7.7-3.9-3.1-2-7.8-9.3-3.1-11.2z" style="fill:#9757f2"/><path class="st8" d="M279.6 384h46.6c.3 0 .5-.2.5-.5s-.2-.5-.5-.5h-46.6c-.3 0-.5.2-.5.5s.2.5.5.5zM263.2 384H274c.3 0 .5-.2.5-.5s-.2-.5-.5-.5h-10.8c-.3 0-.5.2-.5.5s.2.5.5.5z"/><path class="st4" d="M541 380h8.2v-78.9h4v31.2h6.2v-31.2h4v35.2h-10.2V380h8.2c1.1 0 2 .9 2 2s-.9 2-2 2H541c-1.1 0-2-.9-2-2s.9-2 2-2z"/><path class="st4" d="M555.8 284.1c17.5 0 31.6 3.3 31.6 7.3v4c0 4.1-14.2 7.3-31.6 7.3-17.5 0-31.6-3.3-31.6-7.3v-4c0-4.1 14.2-7.3 31.6-7.3z"/><circle transform="rotate(-58.74 496.842 176.957)" cx="496.8" cy="177" style="opacity:.1;fill:#fff" r="20.8"/><path d="M509.9 170.6c-.8 0-1.4-.5-1.7-1.2-.7-2.4-2.4-4.3-4.6-5.5-2.2-1.2-4.7-1.4-7.1-.6-.9.3-1.9-.2-2.2-1.2-.3-.9.2-1.9 1.2-2.2 3.3-1 6.7-.7 9.8.9 3 1.6 5.3 4.3 6.3 7.5.3.9-.2 1.9-1.2 2.2-.1 0-.3.1-.5.1z" style="opacity:.17;fill:#50c6a1"/><path class="st11" d="M489.4 153.1c-13.1 4.1-20.5 18.1-16.4 31.2 4.1 13.1 18.1 20.5 31.2 16.4 13.1-4.1 20.5-18.1 16.4-31.2-4.1-13.1-18.1-20.5-31.2-16.4zm13.6 43.7c-11 3.4-22.7-2.7-26.1-13.7-3.4-11 2.7-22.7 13.7-26.1 11-3.4 22.7 2.7 26.1 13.7 3.4 11-2.7 22.7-13.7 26.1z"/><path transform="rotate(-17.35 506.914 209.403)" class="st11" d="M504.8 199.5h4.3v19.8h-4.3z"/><path class="st4" d="M520.5 252.7c-2.6.8-5.5-.6-6.3-3.3l-9.1-29c-.4-1.4.3-2.9 1.7-3.3l4.5-1.4c1.4-.4 2.9.3 3.3 1.7l9.1 29c.9 2.7-.6 5.5-3.2 6.3z"/><path class="st12" d="M522.2 240s-9.3-5.8-12.1-8.7c-2.8-3-4-4.3-3.3-5 .7-.6 8.6 2.8 9.4 2.3.8-.6.1-2 1-2.7.9-.7 5.9 4.6 7.1 4.2 1.2-.5-.6 8.9-2.1 9.9zM485 347.2l-6.8 6.6-17.4-16.1 5.7-9.2z"/><linearGradient id="SVGID_1_" gradientUnits="userSpaceOnUse" x1="-575.986" y1="-1806.654" x2="-579.225" y2="-1800.59" gradientTransform="scale(-1 1) rotate(-66.814 1107.135 -814.157)"><stop offset="0" style="stop-color:#14336d"/><stop offset=".966" style="stop-color:#0e2253"/></linearGradient><path d="M479.2 352.8s-4.8 6-5.7 6c-.9 0-20.9-21.7-20.8-22.3.1-.7 8.9.1 8.9.1l17.6 16.2z" style="fill:url(#SVGID_1_)"/><linearGradient id="SVGID_2_" gradientUnits="userSpaceOnUse" x1="-1525.205" y1="322.186" x2="-1555.243" y2="297.989" gradientTransform="matrix(-1 0 0 1 -1038.656 0)"><stop offset="0" style="stop-color:#14336d"/><stop offset=".966" style="stop-color:#0e2253"/></linearGradient><path d="M465.5 327.5s20 21 20.8 21c.8 0 96.4-73.5 96.4-73.5l-40.6-18c.1 0-51.4 14.2-76.6 70.5z" style="fill:url(#SVGID_2_)"/><path class="st12" d="m556.3 333.8 3.4 8.9-21.6 9.6-6.3-8.9z"/><linearGradient id="SVGID_3_" gradientUnits="userSpaceOnUse" x1="-1568.248" y1="298.996" x2="-1620.962" y2="318.115" gradientTransform="matrix(-1 0 0 1 -1038.656 0)"><stop offset="0" style="stop-color:#14336d"/><stop offset=".966" style="stop-color:#0e2253"/></linearGradient><path d="M539 257s-33.9 7.1-36.8 18.5c-2.9 11.5-.3 24 9.1 38.7 9.3 14.7 18.8 30.6 20.8 31.1 0 0 25.1-10 25.6-11.3.6-1.3-14-35.8-14-35.8s29.8-2 36.7-19.5L539 257z" style="fill:url(#SVGID_3_)"/><path class="st4" d="M536.7 256.9c-.3 2 36.7 25.2 43.2 24 6.5-1.1 15-28.1 12.7-48.3-2.3-20.2-20.4-35.3-28.7-34.6s-12.7 8.4-13.8 20.7c-1.6 18.1-13.1 36-13.4 38.2z"/><path d="M567.6 201.1c4.4-.4 19.4 8.4 22.9 34.4s-10.8 28.1-22.9 26.5c-12-1.7-42.3-16.5-46.8-21.9 0 0-1-8.4 2.3-11.3 0 0 29.2 3 36.8 5.3 7.6 2.2-8.8-31.5 7.7-33z" style="fill:#823eed"/><linearGradient id="SVGID_4_" gradientUnits="userSpaceOnUse" x1="-1583.68" y1="347.618" x2="-1586.918" y2="353.683" gradientTransform="matrix(-1 0 0 1 -1038.656 0)"><stop offset="0" style="stop-color:#14336d"/><stop offset=".966" style="stop-color:#0e2253"/></linearGradient><path d="M559.2 341.4s3.6 6.7 3.3 7.6c-.3.8-28.1 10.7-28.7 10.3-.6-.4 3.5-8.1 3.5-8.1l21.9-9.8z" style="fill:url(#SVGID_4_)"/><path class="st12" d="m543.1 184.3-.1 9.3h1.4s1.1 7.7 6.5 6.5c1.6-.3 3.5-1.7 4.1-1.4.7.3 1 2.4 1.1 3 .6 2.3 8.7 0 7.4-2.4-1.3-2.3-3.1-5.3-2.7-6.2 1.4-3 1.8-10.4-5.7-12.9-5.9-2.1-11.9.9-12 4.1z"/><path d="M563.5 199.2c-1.3-2.3-3.1-5.3-2.7-6.2 0 0-3.1 4.8-6 5.6h.2c.7.3 1 2.4 1.1 3 .6 2.3 8.8 0 7.4-2.4z" style="fill:#ff9f91"/><path class="st8" d="M555.7 188.8c3.5-.6 1.3 7.2 5.2 6.9 3.8-.3 6.5-8.7 3.7-15.2s-8.2-6.1-13.3-5.2c-5.1.9-11.4 3.2-11.4 7.1 0 9.3 11 1.5 11.8 4.3.6 2.2 1.4 8.4-.8 8.6-2.2.1-4.5-1.7-6.3-1.2-1 .3-3.8 12.5 3.5 12.9 7.3.4 9.1-6 7.6-11.3-1.6-5-1.7-6.6 0-6.9z"/></svg>