<svg version="1.1" id="Calque_1" xmlns="http://www.w3.org/2000/svg" x="0" y="0" viewBox="0 0 800 421" style="enable-background:new 0 0 800 421" xml:space="preserve"><style>.st1{opacity:.1;fill:#a7a7bc;enable-background:new}</style><path d="M680.1 333.9H119.9c-18 0-32.6-14.6-32.6-32.6V119.7c0-18 14.6-32.6 32.6-32.6H680c18 0 32.6 14.6 32.6 32.6v181.7c0 17.9-14.5 32.5-32.5 32.5z" style="fill:#18182f;stroke:#32324c;stroke-miterlimit:10"/><path id="XMLID_7_" class="st1" d="M130.9 202.7h118.2c3.1 0 5.7 1 5.7 2.2v4.2c0 1.2-2.5 2.2-5.7 2.2H130.9c-3.1 0-5.7-1-5.7-2.2v-4.2c-.1-1.3 2.5-2.2 5.7-2.2z"/><path id="XMLID_22_" class="st1" d="M171.4 164.9H221c1.3 0 2.4 1 2.4 2.2v4.2c0 1.2-1.1 2.2-2.4 2.2h-49.6c-1.3 0-2.4-1-2.4-2.2v-4.2c0-1.2 1.1-2.2 2.4-2.2z"/><path id="XMLID_3_" class="st1" d="M297.9 185.1h96.8c2.6 0 4.7 1 4.7 2.2v4.2c0 1.2-2.1 2.2-4.7 2.2h-96.8c-2.6 0-4.7-1-4.7-2.2v-4.2c0-1.2 2.1-2.2 4.7-2.2z"/><path id="XMLID_5_" class="st1" d="M297.9 206.2h96.8c2.6 0 4.7 1 4.7 2.2v4.2c0 1.2-2.1 2.2-4.7 2.2h-96.8c-2.6 0-4.7-1-4.7-2.2v-4.2c0-1.2 2.1-2.2 4.7-2.2z"/><path id="XMLID_6_" class="st1" d="M297.9 227.2h96.8c2.6 0 4.7 1 4.7 2.2v4.2c0 1.2-2.1 2.2-4.7 2.2h-96.8c-2.6 0-4.7-1-4.7-2.2v-4.2c0-1.2 2.1-2.2 4.7-2.2z"/><path id="XMLID_8_" class="st1" d="M297.9 248.3h96.8c2.6 0 4.7 1 4.7 2.2v4.2c0 1.2-2.1 2.2-4.7 2.2h-96.8c-2.6 0-4.7-1-4.7-2.2v-4.2c0-1.2 2.1-2.2 4.7-2.2z"/><path id="XMLID_9_" class="st1" d="M297.9 269.3h96.8c2.6 0 4.7 1 4.7 2.2v4.2c0 1.2-2.1 2.2-4.7 2.2h-96.8c-2.6 0-4.7-1-4.7-2.2v-4.2c0-1.2 2.1-2.2 4.7-2.2z"/><path id="XMLID_4_" class="st1" d="M295.6 155.6H344c1.3 0 2.3 1.5 2.3 3.5v6.6c0 1.9-1 3.5-2.3 3.5h-48.4c-1.3 0-2.3-1.5-2.3-3.5v-6.6c-.1-2 1-3.5 2.3-3.5z"/><path id="XMLID_15_" class="st1" d="M434.8 185.1h96.8c2.6 0 4.7 1 4.7 2.2v4.2c0 1.2-2.1 2.2-4.7 2.2h-96.8c-2.6 0-4.7-1-4.7-2.2v-4.2c0-1.2 2-2.2 4.7-2.2z"/><path id="XMLID_14_" class="st1" d="M434.8 206.2h96.8c2.6 0 4.7 1 4.7 2.2v4.2c0 1.2-2.1 2.2-4.7 2.2h-96.8c-2.6 0-4.7-1-4.7-2.2v-4.2c0-1.2 2-2.2 4.7-2.2z"/><path id="XMLID_13_" class="st1" d="M434.8 227.2h96.8c2.6 0 4.7 1 4.7 2.2v4.2c0 1.2-2.1 2.2-4.7 2.2h-96.8c-2.6 0-4.7-1-4.7-2.2v-4.2c0-1.2 2-2.2 4.7-2.2z"/><path id="XMLID_12_" class="st1" d="M434.8 248.3h96.8c2.6 0 4.7 1 4.7 2.2v4.2c0 1.2-2.1 2.2-4.7 2.2h-96.8c-2.6 0-4.7-1-4.7-2.2v-4.2c0-1.2 2-2.2 4.7-2.2z"/><path id="XMLID_11_" class="st1" d="M434.8 269.3h96.8c2.6 0 4.7 1 4.7 2.2v4.2c0 1.2-2.1 2.2-4.7 2.2h-96.8c-2.6 0-4.7-1-4.7-2.2v-4.2c0-1.2 2-2.2 4.7-2.2z"/><path id="XMLID_10_" class="st1" d="M432.4 155.6h48.4c1.3 0 2.3 1.5 2.3 3.5v6.6c0 1.9-1 3.5-2.3 3.5h-48.4c-1.3 0-2.3-1.5-2.3-3.5v-6.6c0-2 1-3.5 2.3-3.5z"/><path id="XMLID_21_" class="st1" d="M571.6 185.1h96.8c2.6 0 4.7 1 4.7 2.2v4.2c0 1.2-2.1 2.2-4.7 2.2h-96.8c-2.6 0-4.7-1-4.7-2.2v-4.2c0-1.2 2.1-2.2 4.7-2.2z"/><path id="XMLID_20_" class="st1" d="M571.6 206.2h96.8c2.6 0 4.7 1 4.7 2.2v4.2c0 1.2-2.1 2.2-4.7 2.2h-96.8c-2.6 0-4.7-1-4.7-2.2v-4.2c0-1.2 2.1-2.2 4.7-2.2z"/><path id="XMLID_19_" class="st1" d="M571.6 227.2h96.8c2.6 0 4.7 1 4.7 2.2v4.2c0 1.2-2.1 2.2-4.7 2.2h-96.8c-2.6 0-4.7-1-4.7-2.2v-4.2c0-1.2 2.1-2.2 4.7-2.2z"/><path id="XMLID_18_" class="st1" d="M571.6 248.3h96.8c2.6 0 4.7 1 4.7 2.2v4.2c0 1.2-2.1 2.2-4.7 2.2h-96.8c-2.6 0-4.7-1-4.7-2.2v-4.2c0-1.2 2.1-2.2 4.7-2.2z"/><path id="XMLID_17_" class="st1" d="M571.6 269.3h96.8c2.6 0 4.7 1 4.7 2.2v4.2c0 1.2-2.1 2.2-4.7 2.2h-96.8c-2.6 0-4.7-1-4.7-2.2v-4.2c0-1.2 2.1-2.2 4.7-2.2z"/><path id="XMLID_16_" class="st1" d="M569.2 155.6h48.4c1.3 0 2.3 1.5 2.3 3.5v6.6c0 1.9-1 3.5-2.3 3.5h-48.4c-1.3 0-2.3-1.5-2.3-3.5v-6.6c0-2 1-3.5 2.3-3.5z"/><path id="XMLID_1_" class="st1" d="M130 222.9h99.9c2.6 0 4.8 1 4.8 2.2v4.2c0 1.2-2.1 2.2-4.8 2.2H130c-2.6 0-4.8-1-4.8-2.2v-4.2c-.1-1.2 2.1-2.2 4.8-2.2z"/><path id="XMLID_2_" class="st1" d="M128.7 243.1H202c1.9 0 3.6 1 3.6 2.2v4.2c0 1.2-1.6 2.2-3.6 2.2h-73.3c-1.9 0-3.6-1-3.6-2.2v-4.2c0-1.2 1.6-2.2 3.6-2.2z"/><circle class="st1" cx="146.2" cy="169.5" r="16.3"/></svg>