<svg version="1.1" id="Calque_1" xmlns="http://www.w3.org/2000/svg" x="0" y="0" viewBox="0 0 800 421" style="enable-background:new 0 0 800 421" xml:space="preserve"><style>.st0{fill:#fff;stroke:#c7bed3;stroke-miterlimit:10}.st1{opacity:.1;enable-background:new}</style><path class="st0" d="M717.4 283.7H522.2c-15.3 0-27.8-12.4-27.8-27.8v-78.2c0-15.3 12.4-27.8 27.8-27.8h195.1c15.3 0 27.8 12.4 27.8 27.8v78.2c0 15.3-12.4 27.8-27.7 27.8z"/><path class="st1" d="M604 258.6h-78.3c-4.5 0-8.1-5.3-8.1-11.9v-59.8c0-6.6 3.6-11.9 8.1-11.9H604c4.5 0 8.1 5.3 8.1 11.9v59.8c0 6.6-3.7 11.9-8.1 11.9z"/><path id="XMLID_5_" class="st1" d="M629.6 207.6h67.9c1.3 0 2.3.7 2.3 1.6v2.9c0 .8-1 1.6-2.3 1.6h-67.9c-1.3 0-2.3-.7-2.3-1.6v-2.9c-.1-.9 1-1.6 2.3-1.6z"/><path id="XMLID_4_" class="st1" d="M628.5 186.7h35.9c.7 0 1.2 1.3 1.2 2.9v5.4c0 1.6-.6 2.9-1.2 2.9h-35.9c-.7 0-1.2-1.3-1.2-2.9v-5.4c-.1-1.5.5-2.9 1.2-2.9z"/><path id="XMLID_3_" class="st1" d="M629.3 228h59.3c1.1 0 2 .7 2 1.6v2.9c0 .8-.9 1.6-2 1.6h-59.3c-1.1 0-2-.7-2-1.6v-2.9c-.1-.9.9-1.6 2-1.6z"/><path id="XMLID_2_" class="st1" d="M628.5 243.7h33.9c.7 0 1.1.7 1.1 1.6v2.9c0 .8-.5 1.6-1.1 1.6h-33.9c-.7 0-1.1-.7-1.1-1.6v-2.9c-.1-.9.4-1.6 1.1-1.6z"/><path id="XMLID_1_" class="st1" d="M630.8 217.8h72.3c1.9 0 3.5.7 3.5 1.6v2.9c0 .8-1.6 1.6-3.5 1.6h-72.3c-1.9 0-3.5-.7-3.5-1.6v-2.9c0-.9 1.5-1.6 3.5-1.6z"/><path class="st0" d="M266.1 283.7H70.9c-15.3 0-27.8-12.4-27.8-27.8v-78.2c0-15.3 12.4-27.8 27.8-27.8H266c15.3 0 27.8 12.4 27.8 27.8v78.2c0 15.3-12.4 27.8-27.7 27.8z"/><path class="st1" d="M152.7 258.6H74.4c-4.5 0-8.1-5.3-8.1-11.9v-59.8c0-6.6 3.6-11.9 8.1-11.9h78.3c4.5 0 8.1 5.3 8.1 11.9v59.8c0 6.6-3.6 11.9-8.1 11.9z"/><path id="XMLID_13_" class="st1" d="M178.3 207.6h67.9c1.3 0 2.3.7 2.3 1.6v2.9c0 .8-1 1.6-2.3 1.6h-67.9c-1.3 0-2.3-.7-2.3-1.6v-2.9c0-.9 1-1.6 2.3-1.6z"/><path id="XMLID_12_" class="st1" d="M177.2 186.7h35.9c.7 0 1.2 1.3 1.2 2.9v5.4c0 1.6-.6 2.9-1.2 2.9h-35.9c-.7 0-1.2-1.3-1.2-2.9v-5.4c0-1.5.6-2.9 1.2-2.9z"/><path id="XMLID_11_" class="st1" d="M178.1 228h59.3c1.1 0 2 .7 2 1.6v2.9c0 .8-.9 1.6-2 1.6h-59.3c-1.1 0-2-.7-2-1.6v-2.9c-.1-.9.8-1.6 2-1.6z"/><path id="XMLID_10_" class="st1" d="M177.2 243.7h33.9c.7 0 1.1.7 1.1 1.6v2.9c0 .8-.5 1.6-1.1 1.6h-33.9c-.7 0-1.1-.7-1.1-1.6v-2.9c-.1-.9.4-1.6 1.1-1.6z"/><path id="XMLID_6_" class="st1" d="M179.5 217.8h72.3c1.9 0 3.5.7 3.5 1.6v2.9c0 .8-1.6 1.6-3.5 1.6h-72.3c-1.9 0-3.5-.7-3.5-1.6v-2.9c0-.9 1.6-1.6 3.5-1.6z"/><path class="st0" d="M532.9 306.4H252.6c-15.3 0-27.8-12.4-27.8-27.8V154.9c0-15.3 12.4-27.8 27.8-27.8h280.3c15.3 0 27.8 12.4 27.8 27.8v123.7c0 15.4-12.4 27.8-27.8 27.8z"/><path class="st1" d="M371.6 272.8H266.7c-6 0-10.8-7.1-10.8-15.9v-80.1c0-8.8 4.8-15.9 10.8-15.9h104.9c6 0 10.8 7.1 10.8 15.9v80.1c.1 8.8-4.8 15.9-10.8 15.9z"/><path id="XMLID_9_" class="st1" d="M405.9 204.5h90.9c1.7 0 3.1.9 3.1 2.1v3.9c0 1.1-1.4 2.1-3.1 2.1h-90.9c-1.7 0-3.1-.9-3.1-2.1v-3.9c0-1.2 1.4-2.1 3.1-2.1z"/><path id="XMLID_19_" class="st1" d="M404.5 176.5h48c.9 0 1.6 1.7 1.6 3.9v7.2c0 2.1-.7 3.9-1.6 3.9h-48c-.9 0-1.6-1.7-1.6-3.9v-7.2c-.1-2.1.7-3.9 1.6-3.9z"/><path id="XMLID_8_" class="st1" d="M405.6 231.8h79.5c1.5 0 2.7.9 2.7 2.1v3.9c0 1.1-1.3 2.1-2.7 2.1h-79.5c-1.5 0-2.7-.9-2.7-2.1v-3.9c-.1-1.1 1.2-2.1 2.7-2.1z"/><path id="XMLID_20_" class="st1" d="M404.4 252.8h45.4c.9 0 1.5.9 1.5 2.1v3.9c0 1.1-.7 2.1-1.5 2.1h-45.4c-.9 0-1.5-.9-1.5-2.1v-3.9c-.1-1.2.6-2.1 1.5-2.1z"/><path id="XMLID_7_" class="st1" d="M407.5 218.1h96.9c2.5 0 4.7.9 4.7 2.1v3.9c0 1.1-2.1 2.1-4.7 2.1h-96.9c-2.5 0-4.7-.9-4.7-2.1v-3.9c0-1.1 2.1-2.1 4.7-2.1z"/></svg>