<svg version="1.1" id="Calque_1" xmlns="http://www.w3.org/2000/svg" x="0" y="0" viewBox="0 0 800 421" style="enable-background:new 0 0 800 421" xml:space="preserve"><style>.st0{fill:#fff;stroke:#c7bed3;stroke-miterlimit:10}.st1{opacity:.1;enable-background:new}.st2{fill:#8217fd}</style><path class="st0" d="M665 106.9H135c-7.4 0-13.3-6-13.3-13.3V75.5c0-7.4 6-13.3 13.3-13.3h530c7.4 0 13.3 6 13.3 13.3v18.1c0 7.3-6 13.3-13.3 13.3zM665 184.2H135c-7.4 0-13.3-6-13.3-13.3v-18.1c0-7.4 6-13.3 13.3-13.3h530c7.4 0 13.3 6 13.3 13.3v18.1c0 7.4-6 13.3-13.3 13.3zM665 261.6H135c-7.4 0-13.3-6-13.3-13.3v-18.1c0-7.4 6-13.3 13.3-13.3h530c7.4 0 13.3 6 13.3 13.3v18.1c0 7.4-6 13.3-13.3 13.3zM665 339H135c-7.4 0-13.3-6-13.3-13.3v-18.1c0-7.4 6-13.3 13.3-13.3h530c7.4 0 13.3 6 13.3 13.3v18.1c0 7.4-6 13.3-13.3 13.3z"/><circle class="st1" cx="151.9" cy="84.5" r="12.9"/><circle class="st1" cx="151.9" cy="161.9" r="12.9"/><circle class="st1" cx="400" cy="239.3" r="12.9"/><circle class="st1" cx="151.9" cy="316.7" r="12.9"/><path id="XMLID_12_" class="st1" d="M177.1 80.6h43.1c.8 0 1.5.9 1.5 2v3.7c0 1.1-.7 2-1.5 2h-43.1c-.8 0-1.5-.9-1.5-2v-3.7c0-1.1.6-2 1.5-2z"/><path id="XMLID_7_" class="st1" d="M235.3 80.6h43.1c.8 0 1.5.9 1.5 2v3.7c0 1.1-.7 2-1.5 2h-43.1c-.8 0-1.5-.9-1.5-2v-3.7c0-1.1.6-2 1.5-2z"/><path id="XMLID_8_" class="st1" d="M293.5 80.6h43.1c.8 0 1.5.9 1.5 2v3.7c0 1.1-.7 2-1.5 2h-43.1c-.8 0-1.5-.9-1.5-2v-3.7c0-1.1.7-2 1.5-2z"/><path id="XMLID_13_" class="st1" d="M291.4 158h43.1c.8 0 1.5.9 1.5 2v3.7c0 1.1-.7 2-1.5 2h-43.1c-.8 0-1.5-.9-1.5-2V160c0-1.1.7-2 1.5-2z"/><path id="XMLID_11_" class="st1" d="M349.6 158h43.1c.8 0 1.5.9 1.5 2v3.7c0 1.1-.7 2-1.5 2h-43.1c-.8 0-1.5-.9-1.5-2V160c0-1.1.7-2 1.5-2z"/><path id="XMLID_10_" class="st1" d="M407.8 158h43.1c.8 0 1.5.9 1.5 2v3.7c0 1.1-.7 2-1.5 2h-43.1c-.8 0-1.5-.9-1.5-2V160c0-1.1.7-2 1.5-2z"/><path id="XMLID_14_" class="st1" d="M465.4 158h43.1c.8 0 1.5.9 1.5 2v3.7c0 1.1-.7 2-1.5 2h-43.1c-.8 0-1.5-.9-1.5-2V160c0-1.1.7-2 1.5-2z"/><path id="XMLID_18_" class="st1" d="M370.9 312.8H414c.8 0 1.5.9 1.5 2v3.7c0 1.1-.7 2-1.5 2h-43.1c-.8 0-1.5-.9-1.5-2v-3.7c0-1.1.7-2 1.5-2z"/><path id="XMLID_17_" class="st1" d="M429.1 312.8h43.1c.8 0 1.5.9 1.5 2v3.7c0 1.1-.7 2-1.5 2h-43.1c-.8 0-1.5-.9-1.5-2v-3.7c0-1.1.7-2 1.5-2z"/><path id="XMLID_16_" class="st1" d="M487.3 312.8h43.1c.8 0 1.5.9 1.5 2v3.7c0 1.1-.7 2-1.5 2h-43.1c-.8 0-1.5-.9-1.5-2v-3.7c0-1.1.7-2 1.5-2z"/><path id="XMLID_15_" class="st1" d="M545 312.8h43c.8 0 1.5.9 1.5 2v3.7c0 1.1-.7 2-1.5 2h-43c-.8 0-1.5-.9-1.5-2v-3.7c0-1.1.6-2 1.5-2z"/><path id="XMLID_9_" class="st1" d="M545.2 80.6h43.1c.8 0 1.5.9 1.5 2v3.7c0 1.1-.7 2-1.5 2h-43.1c-.8 0-1.5-.9-1.5-2v-3.7c0-1.1.7-2 1.5-2z"/><path class="st2" d="M659.6 94.9H608c-1.7 0-3.1-2.5-3.1-5.5v-9.7c0-3 1.3-5.5 3.1-5.5h51.6c1.7 0 3.1 2.5 3.1 5.5v9.7c0 3-1.4 5.5-3.1 5.5zM659.6 172.2H608c-1.7 0-3.1-2.5-3.1-5.5V157c0-3 1.3-5.5 3.1-5.5h51.6c1.7 0 3.1 2.5 3.1 5.5v9.7c0 3.1-1.4 5.5-3.1 5.5zM659.6 249.6H608c-1.7 0-3.1-2.5-3.1-5.5v-9.7c0-3 1.3-5.5 3.1-5.5h51.6c1.7 0 3.1 2.5 3.1 5.5v9.7c0 3.1-1.4 5.5-3.1 5.5zM659.6 327H608c-1.7 0-3.1-2.5-3.1-5.5v-9.7c0-3 1.3-5.5 3.1-5.5h51.6c1.7 0 3.1 2.5 3.1 5.5v9.7c0 3-1.4 5.5-3.1 5.5z"/></svg>