<svg version="1.1" id="Calque_1" xmlns="http://www.w3.org/2000/svg" x="0" y="0" viewBox="0 0 800 421" style="enable-background:new 0 0 800 421" xml:space="preserve"><style>.st0{fill:#18182f;stroke:#32324c;stroke-miterlimit:10}.st1{opacity:.1;fill:#a7a7bc;enable-background:new}</style><path class="st0" d="M258 338.9H92.9c-10.5 0-19-8.5-19-19V101.1c0-10.5 8.5-19 19-19h165.3c10.5 0 19 8.5 19 19v218.8c-.1 10.5-8.7 19-19.2 19z"/><path id="XMLID_4_" class="st1" d="M98.3 224.1h120.3c2.3 0 4.1 1.2 4.1 2.8v5.1c0 1.5-1.9 2.8-4.1 2.8H98.3c-2.3 0-4.1-1.2-4.1-2.8v-5.1c-.1-1.5 1.9-2.8 4.1-2.8z"/><path id="XMLID_1_" class="st1" d="M98.7 260.3h131.6c2.5 0 4.5 1.2 4.5 2.8v5.1c0 1.5-2.1 2.8-4.5 2.8H98.7c-2.5 0-4.5-1.2-4.5-2.8V263c-.1-1.4 2-2.7 4.5-2.7z"/><path id="XMLID_2_" class="st1" d="M140.4 301.8h60.8c1.2 0 2.1 1.2 2.1 2.8v5.1c0 1.5-1 2.8-2.1 2.8h-60.8c-1.2 0-2.1-1.2-2.1-2.8v-5.1c0-1.5 1-2.8 2.1-2.8z"/><path id="XMLID_3_" class="st1" d="M101.2 242.2h144.3c3.8 0 7 1.2 7 2.8v5.1c0 1.5-3.1 2.8-7 2.8H101.2c-3.8 0-7-1.2-7-2.8V245c0-1.5 3.1-2.8 7-2.8z"/><path class="st1" d="M242.6 207.3H108.5c-7.7 0-13.8-6.2-13.8-13.8v-69.7c0-7.7 6.2-13.8 13.8-13.8h134.1c7.7 0 13.8 6.2 13.8 13.8v69.7c.1 7.7-6.2 13.8-13.8 13.8z"/><circle class="st1" cx="111" cy="307.1" r="12.7"/><path class="st0" d="M482.6 338.9H317.4c-10.5 0-19-8.5-19-19V101.1c0-10.5 8.5-19 19-19h165.3c10.5 0 19 8.5 19 19v218.8c-.1 10.5-8.7 19-19.1 19z"/><path id="XMLID_8_" class="st1" d="M322.8 224.1h120.3c2.3 0 4.1 1.2 4.1 2.8v5.1c0 1.5-1.9 2.8-4.1 2.8H322.8c-2.3 0-4.1-1.2-4.1-2.8v-5.1c-.1-1.5 1.9-2.8 4.1-2.8z"/><path id="XMLID_7_" class="st1" d="M323.2 260.3h131.6c2.5 0 4.5 1.2 4.5 2.8v5.1c0 1.5-2.1 2.8-4.5 2.8H323.2c-2.5 0-4.5-1.2-4.5-2.8V263c-.1-1.4 2-2.7 4.5-2.7z"/><path id="XMLID_6_" class="st1" d="M364.9 301.8h60.8c1.2 0 2.1 1.2 2.1 2.8v5.1c0 1.5-1 2.8-2.1 2.8h-60.8c-1.2 0-2.1-1.2-2.1-2.8v-5.1c0-1.5 1-2.8 2.1-2.8z"/><path id="XMLID_5_" class="st1" d="M325.7 242.2H470c3.8 0 7 1.2 7 2.8v5.1c0 1.5-3.1 2.8-7 2.8H325.7c-3.8 0-7-1.2-7-2.8V245c0-1.5 3.1-2.8 7-2.8z"/><path class="st1" d="M467.1 207.3H333c-7.7 0-13.8-6.2-13.8-13.8v-69.7c0-7.7 6.2-13.8 13.8-13.8h134.1c7.7 0 13.8 6.2 13.8 13.8v69.7c.1 7.7-6.2 13.8-13.8 13.8z"/><circle class="st1" cx="335.5" cy="307.1" r="12.7"/><path class="st0" d="M707.1 338.9H541.9c-10.5 0-19-8.5-19-19V101.1c0-10.5 8.5-19 19-19h165.3c10.5 0 19 8.5 19 19v218.8c-.1 10.5-8.7 19-19.1 19z"/><path id="XMLID_12_" class="st1" d="M547.3 224.1h120.3c2.3 0 4.1 1.2 4.1 2.8v5.1c0 1.5-1.9 2.8-4.1 2.8H547.3c-2.3 0-4.1-1.2-4.1-2.8v-5.1c-.1-1.5 1.9-2.8 4.1-2.8z"/><path id="XMLID_11_" class="st1" d="M547.8 260.3h131.6c2.5 0 4.5 1.2 4.5 2.8v5.1c0 1.5-2.1 2.8-4.5 2.8H547.8c-2.5 0-4.5-1.2-4.5-2.8V263c-.2-1.4 1.9-2.7 4.5-2.7z"/><path id="XMLID_10_" class="st1" d="M589.5 301.8h60.8c1.2 0 2.1 1.2 2.1 2.8v5.1c0 1.5-1 2.8-2.1 2.8h-60.8c-1.2 0-2.1-1.2-2.1-2.8v-5.1c-.1-1.5.9-2.8 2.1-2.8z"/><path id="XMLID_9_" class="st1" d="M550.2 242.2h144.3c3.8 0 7 1.2 7 2.8v5.1c0 1.5-3.1 2.8-7 2.8H550.2c-3.8 0-7-1.2-7-2.8V245c0-1.5 3.1-2.8 7-2.8z"/><path class="st1" d="M691.6 207.3H557.5c-7.7 0-13.8-6.2-13.8-13.8v-69.7c0-7.7 6.2-13.8 13.8-13.8h134.1c7.7 0 13.8 6.2 13.8 13.8v69.7c.1 7.7-6.2 13.8-13.8 13.8z"/><circle class="st1" cx="560" cy="307.1" r="12.7"/></svg>