<svg version="1.1" id="Calque_1" xmlns="http://www.w3.org/2000/svg" x="0" y="0" viewBox="0 0 800 421" style="enable-background:new 0 0 800 421" xml:space="preserve"><style>.st1{opacity:.1;fill:#a7a7bc;enable-background:new}</style><path d="M525.1 395.9H274.9c-18.6 0-33.6-15.1-33.6-33.6V62.9c0-18.6 15.1-33.6 33.6-33.6H525c18.6 0 33.6 15.1 33.6 33.6v299.4c.1 18.6-15 33.6-33.5 33.6z" style="fill:#18182f;stroke:#32324c;stroke-miterlimit:10"/><path id="XMLID_5_" class="st1" d="M285.4 185.2h199.4c3.8 0 6.8 2.1 6.8 4.8v8.9c0 2.6-3.1 4.8-6.8 4.8H285.4c-3.8 0-6.8-2.1-6.8-4.8V190c-.1-2.7 3-4.8 6.8-4.8z"/><path id="XMLID_6_" class="st1" d="M355.9 85.3h148.7c2.8 0 5.1 2.1 5.1 4.8V99c0 2.6-2.3 4.8-5.1 4.8H355.9c-2.8 0-5.1-2.1-5.1-4.8v-8.9c0-2.7 2.3-4.8 5.1-4.8z"/><path id="XMLID_8_" class="st1" d="M354.5 112.5h106.8c2 0 3.7 2.1 3.7 4.8v8.9c0 2.6-1.6 4.8-3.7 4.8H354.5c-2 0-3.7-2.1-3.7-4.8v-8.9c0-2.7 1.6-4.8 3.7-4.8z"/><path id="XMLID_7_" class="st1" d="M286.2 212.5H445c4.2 0 7.7 2.1 7.7 4.8v8.9c0 2.6-3.4 4.8-7.7 4.8H286.2c-4.2 0-7.7-2.1-7.7-4.8v-8.9c0-2.7 3.4-4.8 7.7-4.8z"/><path id="XMLID_4_" class="st1" d="M287.5 239.7h186.2c5 0 9 2.1 9 4.8v8.9c0 2.6-4 4.8-9 4.8H287.5c-5 0-9-2.1-9-4.8v-8.9c0-2.6 4-4.8 9-4.8z"/><path class="st1" d="M320.8 136.2h-25.4c-9.3 0-16.9-7.5-16.9-16.9V93.9c0-9.3 7.5-16.9 16.9-16.9h25.4c9.3 0 16.9 7.5 16.9 16.9v25.4c-.1 9.3-7.6 16.9-16.9 16.9z"/><path d="M513.7 356.8h-222c-7.3 0-13.2-5.9-13.2-13.2v-23.2c0-7.3 5.9-13.2 13.2-13.2h222c7.3 0 13.2 5.9 13.2 13.2v23.2c0 7.3-5.9 13.2-13.2 13.2z" style="fill:#8217fd"/></svg>