<svg version="1.1" id="Calque_1" xmlns="http://www.w3.org/2000/svg" x="0" y="0" viewBox="0 0 800 421" style="enable-background:new 0 0 800 421" xml:space="preserve"><style>.st1{opacity:.1;fill:#a7a7bc;enable-background:new}</style><path d="M683.9 347.1H113.2c-31.6 0-57.2-20.8-57.2-46.5V120.4c0-25.7 25.6-46.5 57.2-46.5h570.6c31.6 0 57.2 20.8 57.2 46.5v180.3c.1 25.6-25.6 46.4-57.1 46.4z" style="fill:#18182f;stroke:#32324c;stroke-miterlimit:10"/><path id="XMLID_5_" class="st1" d="M169 148.8h101.1c1.9 0 3.5 2.8 3.5 6.3v11.7c0 3.3-1.6 6.3-3.5 6.3H169c-1.9 0-3.5-2.8-3.5-6.3v-11.7c0-3.5 1.6-6.3 3.5-6.3z"/><path id="XMLID_1_" class="st1" d="M292.2 148.8h101.1c1.9 0 3.5 2.8 3.5 6.3v11.7c0 3.3-1.6 6.3-3.5 6.3H292.2c-1.9 0-3.5-2.8-3.5-6.3v-11.7c0-3.5 1.6-6.3 3.5-6.3z"/><path id="XMLID_3_" class="st1" d="M415.4 148.8h101.1c1.9 0 3.5 2.8 3.5 6.3v11.7c0 3.3-1.6 6.3-3.5 6.3H415.4c-1.9 0-3.5-2.8-3.5-6.3v-11.7c0-3.5 1.6-6.3 3.5-6.3z"/><path id="XMLID_4_" class="st1" d="M538.6 148.8h101.1c1.9 0 3.5 2.8 3.5 6.3v11.7c0 3.3-1.6 6.3-3.5 6.3H538.6c-1.9 0-3.5-2.8-3.5-6.3v-11.7c0-3.5 1.6-6.3 3.5-6.3z"/><path id="XMLID_10_" class="st1" d="M169 198.8h101.1c1.9 0 3.5 2.8 3.5 6.3v11.7c0 3.3-1.6 6.3-3.5 6.3H169c-1.9 0-3.5-2.8-3.5-6.3v-11.7c0-3.5 1.6-6.3 3.5-6.3z"/><path id="XMLID_9_" class="st1" d="M292.2 198.8h101.1c1.9 0 3.5 2.8 3.5 6.3v11.7c0 3.3-1.6 6.3-3.5 6.3H292.2c-1.9 0-3.5-2.8-3.5-6.3v-11.7c0-3.5 1.6-6.3 3.5-6.3z"/><path id="XMLID_8_" class="st1" d="M415.4 198.8h101.1c1.9 0 3.5 2.8 3.5 6.3v11.7c0 3.3-1.6 6.3-3.5 6.3H415.4c-1.9 0-3.5-2.8-3.5-6.3v-11.7c0-3.5 1.6-6.3 3.5-6.3z"/><path id="XMLID_6_" class="st1" d="M538.6 198.8h101.1c1.9 0 3.5 2.8 3.5 6.3v11.7c0 3.3-1.6 6.3-3.5 6.3H538.6c-1.9 0-3.5-2.8-3.5-6.3v-11.7c0-3.5 1.6-6.3 3.5-6.3z"/><path id="XMLID_20_" class="st1" d="M169 248.7h101.1c1.9 0 3.5 2.8 3.5 6.3v11.7c0 3.3-1.6 6.3-3.5 6.3H169c-1.9 0-3.5-2.8-3.5-6.3V255c0-3.5 1.6-6.3 3.5-6.3z"/><path id="XMLID_19_" class="st1" d="M292.2 248.7h101.1c1.9 0 3.5 2.8 3.5 6.3v11.7c0 3.3-1.6 6.3-3.5 6.3H292.2c-1.9 0-3.5-2.8-3.5-6.3V255c0-3.5 1.6-6.3 3.5-6.3z"/><path id="XMLID_12_" class="st1" d="M415.4 248.7h101.1c1.9 0 3.5 2.8 3.5 6.3v11.7c0 3.3-1.6 6.3-3.5 6.3H415.4c-1.9 0-3.5-2.8-3.5-6.3V255c0-3.5 1.6-6.3 3.5-6.3z"/><path id="XMLID_11_" class="st1" d="M538.6 248.7h101.1c1.9 0 3.5 2.8 3.5 6.3v11.7c0 3.3-1.6 6.3-3.5 6.3H538.6c-1.9 0-3.5-2.8-3.5-6.3V255c0-3.5 1.6-6.3 3.5-6.3z"/></svg>