<svg version="1.1" id="Calque_1" xmlns="http://www.w3.org/2000/svg" x="0" y="0" viewBox="0 0 800 421" style="enable-background:new 0 0 800 421" xml:space="preserve"><style>.st1,.st2{enable-background:new}.st2{opacity:.1;fill:#a7a7bc}</style><path d="M658.6 363.7H141.4c-22.5 0-40.7-18.2-40.7-40.7V98c0-22.5 18.2-40.7 40.7-40.7h517.3c22.5 0 40.7 18.2 40.7 40.7v225c-.1 22.4-18.3 40.7-40.8 40.7z" style="fill:#18182f;stroke:#32324c;stroke-miterlimit:10"/><g class="st1"><path id="XMLID_8_" class="st2" d="M163.1 178.5h63.1c1.2 0 2.1 1.4 2.1 3v5.6c0 1.7-.9 3-2.1 3h-63.1c-1.2 0-2.1-1.4-2.1-3v-5.6c0-1.7.9-3 2.1-3z"/><path id="XMLID_1_" class="st2" d="M163.2 159.2h108.6c2.1 0 3.8 1.4 3.8 3v5.6c0 1.7-1.7 3-3.8 3H163.2c-2.1 0-3.8-1.4-3.8-3v-5.6c0-1.6 1.7-3 3.8-3z"/></g><g class="st1"><path id="XMLID_3_" class="st2" d="M163.1 243.7h63.1c1.2 0 2.1 1.4 2.1 3v5.6c0 1.7-.9 3-2.1 3h-63.1c-1.2 0-2.1-1.4-2.1-3v-5.6c0-1.7.9-3 2.1-3z"/><path id="XMLID_2_" class="st2" d="M163.2 224.4h108.6c2.1 0 3.8 1.4 3.8 3v5.6c0 1.7-1.7 3-3.8 3H163.2c-2.1 0-3.8-1.4-3.8-3v-5.6c0-1.6 1.7-3 3.8-3z"/></g><g class="st1"><path id="XMLID_5_" class="st2" d="M163.1 308.9h63.1c1.2 0 2.1 1.4 2.1 3v5.6c0 1.7-.9 3-2.1 3h-63.1c-1.2 0-2.1-1.4-2.1-3v-5.6c0-1.7.9-3 2.1-3z"/><path id="XMLID_4_" class="st2" d="M163.2 289.6h108.6c2.1 0 3.8 1.4 3.8 3v5.6c0 1.7-1.7 3-3.8 3H163.2c-2.1 0-3.8-1.4-3.8-3v-5.6c0-1.6 1.7-3 3.8-3z"/></g><g class="st1"><path id="XMLID_12_" class="st2" d="M349.8 178.5H413c1.2 0 2.1 1.4 2.1 3v5.6c0 1.7-.9 3-2.1 3h-63.1c-1.2 0-2.1-1.4-2.1-3v-5.6c-.1-1.7.9-3 2-3z"/><path id="XMLID_11_" class="st2" d="M349.9 159.2h108.6c2.1 0 3.8 1.4 3.8 3v5.6c0 1.7-1.7 3-3.8 3H349.9c-2.1 0-3.8-1.4-3.8-3v-5.6c0-1.6 1.7-3 3.8-3z"/></g><g class="st1"><path id="XMLID_10_" class="st2" d="M349.8 243.7H413c1.2 0 2.1 1.4 2.1 3v5.6c0 1.7-.9 3-2.1 3h-63.1c-1.2 0-2.1-1.4-2.1-3v-5.6c-.1-1.7.9-3 2-3z"/><path id="XMLID_9_" class="st2" d="M349.9 224.4h108.6c2.1 0 3.8 1.4 3.8 3v5.6c0 1.7-1.7 3-3.8 3H349.9c-2.1 0-3.8-1.4-3.8-3v-5.6c0-1.6 1.7-3 3.8-3z"/></g><g class="st1"><path id="XMLID_7_" class="st2" d="M349.8 308.9H413c1.2 0 2.1 1.4 2.1 3v5.6c0 1.7-.9 3-2.1 3h-63.1c-1.2 0-2.1-1.4-2.1-3v-5.6c-.1-1.7.9-3 2-3z"/><path id="XMLID_6_" class="st2" d="M349.9 289.6h108.6c2.1 0 3.8 1.4 3.8 3v5.6c0 1.7-1.7 3-3.8 3H349.9c-2.1 0-3.8-1.4-3.8-3v-5.6c0-1.6 1.7-3 3.8-3z"/></g><g class="st1"><path id="XMLID_18_" class="st2" d="M536.5 178.5h63.1c1.2 0 2.1 1.4 2.1 3v5.6c0 1.7-.9 3-2.1 3h-63.1c-1.2 0-2.1-1.4-2.1-3v-5.6c0-1.7 1-3 2.1-3z"/><path id="XMLID_17_" class="st2" d="M536.6 159.2h108.6c2.1 0 3.8 1.4 3.8 3v5.6c0 1.7-1.7 3-3.8 3H536.6c-2.1 0-3.8-1.4-3.8-3v-5.6c0-1.6 1.7-3 3.8-3z"/></g><g class="st1"><path id="XMLID_16_" class="st2" d="M536.5 243.7h63.1c1.2 0 2.1 1.4 2.1 3v5.6c0 1.7-.9 3-2.1 3h-63.1c-1.2 0-2.1-1.4-2.1-3v-5.6c0-1.7 1-3 2.1-3z"/><path id="XMLID_15_" class="st2" d="M536.6 224.4h108.6c2.1 0 3.8 1.4 3.8 3v5.6c0 1.7-1.7 3-3.8 3H536.6c-2.1 0-3.8-1.4-3.8-3v-5.6c0-1.6 1.7-3 3.8-3z"/></g><g class="st1"><path id="XMLID_14_" class="st2" d="M536.5 308.9h63.1c1.2 0 2.1 1.4 2.1 3v5.6c0 1.7-.9 3-2.1 3h-63.1c-1.2 0-2.1-1.4-2.1-3v-5.6c0-1.7 1-3 2.1-3z"/><path id="XMLID_13_" class="st2" d="M536.6 289.6h108.6c2.1 0 3.8 1.4 3.8 3v5.6c0 1.7-1.7 3-3.8 3H536.6c-2.1 0-3.8-1.4-3.8-3v-5.6c0-1.6 1.7-3 3.8-3z"/></g><g style="opacity:.1;enable-background:new"><path d="M382.5 104.5V92.3c.4-1.8 1.1-3.1 2.1-3.9 1-.8 2.4-1.2 4.1-1.2l6.2.1v-.1l16.5-.1c1.7 0 3.1.4 4.1 1.2 1 .8 1.7 2.1 2.1 3.9v12.2c-.4 1.1-.9 1.8-1.5 2.3-.6.5-1.3.9-2 1.3h.2c-.5.2-1 .4-1.5.7-.5.2-1.1.4-1.8.7-.7.2-1.5.5-2.5.8-.9.3-2.1.7-3.4 1.1v4.6h-11.5v-11.3l11.5-.1v-7.8h-11.5v4.1l-11.1 3.7zm11.1 25.8v-8.7h11.6v8.7h-11.6zm20.9-22.4c-.1 0-.1 0 0 0l-.1.1c0-.1 0-.1.1-.1z" style="fill:#a7a7bc"/></g></svg>