<svg version="1.1" id="Calque_1" xmlns="http://www.w3.org/2000/svg" x="0" y="0" viewBox="0 0 800 421" style="enable-background:new 0 0 800 421" xml:space="preserve"><style>.st1{opacity:.1;enable-background:new}</style><path d="M525.1 395.9H274.9c-18.6 0-33.6-15.1-33.6-33.6V62.9c0-18.6 15.1-33.6 33.6-33.6H525c18.6 0 33.6 15.1 33.6 33.6v299.4c.1 18.6-15 33.6-33.5 33.6z" style="fill:#fff;stroke:#c7bed3;stroke-miterlimit:10"/><path id="XMLID_5_" class="st1" d="M285.9 243.3h211.8c4 0 7.2 2.1 7.2 4.8v8.9c0 2.6-3.3 4.8-7.2 4.8H285.9c-4 0-7.2-2.1-7.2-4.8v-8.9c-.2-2.7 3.1-4.8 7.2-4.8z"/><path id="XMLID_7_" class="st1" d="M287.4 270.6h183.1c4.8 0 8.9 2.1 8.9 4.8v8.9c0 2.6-3.9 4.8-8.9 4.8H287.4c-4.8 0-8.9-2.1-8.9-4.8v-8.9c0-2.7 4-4.8 8.9-4.8z"/><path d="M513.7 356.8h-222c-7.3 0-13.2-5.9-13.2-13.2v-23.2c0-7.3 5.9-13.2 13.2-13.2h222c7.3 0 13.2 5.9 13.2 13.2v23.2c0 7.3-5.9 13.2-13.2 13.2z" style="fill:#8217fd"/><path class="st1" d="M298.7 225.3h208c11.2 0 20.2-9 20.2-20.2V89.6c0-11.2-9-20.2-20.2-20.2h-208c-11.2 0-20.2 9-20.2 20.2v115.5c0 11.2 9 20.2 20.2 20.2z"/></svg>