<svg version="1.1" id="Calque_1" xmlns="http://www.w3.org/2000/svg" x="0" y="0" viewBox="0 0 800 421" style="enable-background:new 0 0 800 421" xml:space="preserve"><style>.st1{opacity:.1;fill:#a7a7bc}.st1,.st2{enable-background:new}</style><path d="M547.9 368.9H252.1c-16.4 0-29.8-13.3-29.8-29.8V218.4c0-16.4 13.3-29.8 29.8-29.8h295.7c16.4 0 29.8 13.3 29.8 29.8v120.8c0 16.4-13.3 29.7-29.7 29.7z" style="fill:#18182f;stroke:#32324c;stroke-miterlimit:10"/><path id="XMLID_12_" class="st1" d="M362.2 237h49.4c.9 0 1.6 1.1 1.6 2.3v4.4c0 1.3-.7 2.3-1.6 2.3h-49.4c-.9 0-1.6-1.1-1.6-2.3v-4.4c-.1-1.3.7-2.3 1.6-2.3z"/><path id="XMLID_11_" class="st1" d="M362.2 221.9h85c1.6 0 3 1.1 3 2.3v4.4c0 1.3-1.3 2.3-3 2.3h-85c-1.6 0-3-1.1-3-2.3v-4.4c.1-1.2 1.4-2.3 3-2.3z"/><g class="st2"><path id="XMLID_20_" class="st1" d="M475.5 314h49.4c.9 0 1.6 1.1 1.6 2.3v4.4c0 1.3-.7 2.3-1.6 2.3h-49.4c-.9 0-1.6-1.1-1.6-2.3v-4.4c0-1.3.8-2.3 1.6-2.3z"/><path id="XMLID_19_" class="st1" d="M475.6 298.9h85c1.6 0 3 1.1 3 2.3v4.4c0 1.3-1.3 2.3-3 2.3h-85c-1.6 0-3-1.1-3-2.3v-4.4c0-1.2 1.3-2.3 3-2.3z"/></g><path class="st1" d="M317.5 346.3h-50.4c-12.6 0-22.8-10.2-22.8-22.8v-91.8c0-12.6 10.2-22.8 22.8-22.8h50.4c12.6 0 22.8 10.2 22.8 22.8v91.8c0 12.6-10.2 22.8-22.8 22.8z"/><path id="XMLID_22_" class="st1" d="M475.2 237h77.2c1.5 0 2.6 1.1 2.6 2.3v4.4c0 1.3-1.1 2.3-2.6 2.3h-77.2c-1.5 0-2.6-1.1-2.6-2.3v-4.4c0-1.3 1.2-2.3 2.6-2.3z"/><path id="XMLID_21_" class="st1" d="M475.3 221.9h77c1.5 0 2.7 1.1 2.7 2.3v4.4c0 1.3-1.2 2.3-2.7 2.3h-77c-1.5 0-2.7-1.1-2.7-2.3v-4.4c0-1.2 1.2-2.3 2.7-2.3z"/><path id="XMLID_24_" class="st1" d="M475.2 267.2h77.2c1.5 0 2.6 1.1 2.6 2.3v4.4c0 1.3-1.1 2.3-2.6 2.3h-77.2c-1.5 0-2.6-1.1-2.6-2.3v-4.4c0-1.3 1.2-2.3 2.6-2.3z"/><path id="XMLID_23_" class="st1" d="M475.3 252.1h77c1.5 0 2.7 1.1 2.7 2.3v4.4c0 1.3-1.2 2.3-2.7 2.3h-77c-1.5 0-2.7-1.1-2.7-2.3v-4.4c0-1.2 1.2-2.3 2.7-2.3z"/><path class="st1" d="M390.6 298.9h-20.4c-6 0-10.9-4.9-10.9-10.9v-18.2c0-6 4.9-10.9 10.9-10.9h20.4c6 0 10.9 4.9 10.9 10.9V288c.1 6-4.8 10.9-10.9 10.9zM438.7 298.9h-20.4c-6 0-10.9-4.9-10.9-10.9v-18.2c0-6 4.9-10.9 10.9-10.9h20.4c6 0 10.9 4.9 10.9 10.9V288c0 6-4.9 10.9-10.9 10.9zM390.6 344.8h-20.4c-6 0-10.9-4.9-10.9-10.9v-18.2c0-6 4.9-10.9 10.9-10.9h20.4c6 0 10.9 4.9 10.9 10.9v18.2c.1 6-4.8 10.9-10.9 10.9zM438.7 344.8h-20.4c-6 0-10.9-4.9-10.9-10.9v-18.2c0-6 4.9-10.9 10.9-10.9h20.4c6 0 10.9 4.9 10.9 10.9v18.2c0 6-4.9 10.9-10.9 10.9z"/><path d="M220.6 67.8v89.6c0 8.7 7 15.7 15.7 15.7h140.2l23.5 23.5 23.5-23.5h140.2c8.7 0 15.7-7 15.7-15.7V67.8c0-8.7-7-15.7-15.7-15.7H236.3c-8.7 0-15.7 7-15.7 15.7z" style="fill:#0c0c19;stroke:#32324c;stroke-miterlimit:10"/><g class="st2"><path id="XMLID_18_" class="st1" d="M242.9 90.3h51.3c1 0 1.7 1.1 1.7 2.4v4.5c0 1.4-.7 2.4-1.7 2.4h-51.3c-1 0-1.7-1.1-1.7-2.4v-4.5c0-1.4.9-2.4 1.7-2.4z"/><path id="XMLID_17_" class="st1" d="M243 74.6h88.2c1.7 0 3.1 1.1 3.1 2.4v4.5c0 1.4-1.4 2.4-3.1 2.4H243c-1.7 0-3.1-1.1-3.1-2.4V77c0-1.3 1.4-2.4 3.1-2.4z"/></g><g class="st2"><path id="XMLID_16_" class="st1" d="M249.7 135.7h166.4c3.2 0 5.5 1.4 5.5 3v5.6c0 1.7-2.4 3-5.5 3H249.7c-3.2 0-5.5-1.4-5.5-3v-5.6c0-1.7 2.6-3 5.5-3z"/><path id="XMLID_15_" class="st1" d="M250 116.4h286.3c5.5 0 10 1.4 10 3v5.6c0 1.7-4.5 3-10 3H250c-5.5 0-10-1.4-10-3v-5.6c-.1-1.6 4.4-3 10-3z"/></g><path d="M530.7 87.8h16.9c4.1 0 7.4-3.3 7.4-7.4 0-4.1-3.3-7.4-7.4-7.4h-16.9c-4.1 0-7.4 3.3-7.4 7.4-.1 4.1 3.3 7.4 7.4 7.4z" style="opacity:.1"/></svg>