<svg version="1.1" id="Calque_1" xmlns="http://www.w3.org/2000/svg" x="0" y="0" viewBox="0 0 800 421" style="enable-background:new 0 0 800 421" xml:space="preserve"><style>.st0{fill:#fff;stroke:#c7bed3;stroke-miterlimit:10}.st1{opacity:.1;enable-background:new}.st2{fill:#8217fd}</style><path class="st0" d="M214.7 363.1H80.1c-19.2 0-34.8-15.6-34.8-34.8V116.6c0-19.2 15.6-34.8 34.8-34.8h134.6c19.2 0 34.8 15.6 34.8 34.8v211.7c0 19.2-15.6 34.8-34.8 34.8zM719.9 363.1H585.3c-19.2 0-34.8-15.6-34.8-34.8V116.6c0-19.2 15.6-34.8 34.8-34.8h134.6c19.2 0 34.8 15.6 34.8 34.8v211.7c-.1 19.2-15.6 34.8-34.8 34.8zM486.5 391.4H310.8c-19.2 0-34.8-15.6-34.8-34.8V88.3c0-19.2 15.6-34.8 34.8-34.8h175.7c19.2 0 34.8 15.6 34.8 34.8v268.4c0 19.1-15.6 34.7-34.8 34.7z"/><circle class="st1" cx="400.8" cy="122.4" r="30.6"/><circle class="st1" cx="652.6" cy="147.9" r="23.5"/><circle class="st1" cx="147.4" cy="147.9" r="23.5"/><path id="XMLID_2_" class="st1" d="M337.3 192.9h127c2.4 0 4.3 2 4.3 4.5v8.5c0 2.4-2 4.5-4.3 4.5h-127c-2.4 0-4.3-2-4.3-4.5v-8.5c-.1-2.5 1.9-4.5 4.3-4.5z"/><path id="XMLID_7_" class="st1" d="M337.3 222.5h127c2.4 0 4.3 2 4.3 4.5v8.5c0 2.4-2 4.5-4.3 4.5h-127c-2.4 0-4.3-2-4.3-4.5V227c-.1-2.5 1.9-4.5 4.3-4.5z"/><path id="XMLID_13_" class="st1" d="M337.3 252h127c2.4 0 4.3 2 4.3 4.5v8.5c0 2.4-2 4.5-4.3 4.5h-127c-2.4 0-4.3-2-4.3-4.5v-8.5c-.1-2.5 1.9-4.5 4.3-4.5z"/><path id="XMLID_14_" class="st1" d="M337.3 281.6h127c2.4 0 4.3 2 4.3 4.5v8.5c0 2.4-2 4.5-4.3 4.5h-127c-2.4 0-4.3-2-4.3-4.5v-8.5c-.1-2.5 1.9-4.5 4.3-4.5z"/><path id="XMLID_18_" class="st1" d="M600.9 202.8h103.4c2 0 3.5 1.6 3.5 3.7v6.9c0 2-1.6 3.7-3.5 3.7H600.9c-2 0-3.5-1.6-3.5-3.7v-6.9c-.1-2.1 1.5-3.7 3.5-3.7z"/><path id="XMLID_17_" class="st1" d="M600.9 226.8h103.4c2 0 3.5 1.6 3.5 3.7v6.9c0 2-1.6 3.7-3.5 3.7H600.9c-2 0-3.5-1.6-3.5-3.7v-6.9c-.1-2 1.5-3.7 3.5-3.7z"/><path id="XMLID_16_" class="st1" d="M600.9 250.9h103.4c2 0 3.5 1.6 3.5 3.7v6.9c0 2-1.6 3.7-3.5 3.7H600.9c-2 0-3.5-1.6-3.5-3.7v-6.9c-.1-2.1 1.5-3.7 3.5-3.7z"/><path id="XMLID_15_" class="st1" d="M600.9 275h103.4c2 0 3.5 1.6 3.5 3.7v6.9c0 2-1.6 3.7-3.5 3.7H600.9c-2 0-3.5-1.6-3.5-3.7v-6.9c-.1-2.1 1.5-3.7 3.5-3.7z"/><path id="XMLID_24_" class="st1" d="M96.9 202.8h103.4c2 0 3.5 1.6 3.5 3.7v6.9c0 2-1.6 3.7-3.5 3.7H96.9c-2 0-3.5-1.6-3.5-3.7v-6.9c-.1-2.1 1.5-3.7 3.5-3.7z"/><path id="XMLID_23_" class="st1" d="M96.9 226.8h103.4c2 0 3.5 1.6 3.5 3.7v6.9c0 2-1.6 3.7-3.5 3.7H96.9c-2 0-3.5-1.6-3.5-3.7v-6.9c-.1-2 1.5-3.7 3.5-3.7z"/><path id="XMLID_22_" class="st1" d="M96.9 250.9h103.4c2 0 3.5 1.6 3.5 3.7v6.9c0 2-1.6 3.7-3.5 3.7H96.9c-2 0-3.5-1.6-3.5-3.7v-6.9c-.1-2.1 1.5-3.7 3.5-3.7z"/><path id="XMLID_21_" class="st1" d="M96.9 275h103.4c2 0 3.5 1.6 3.5 3.7v6.9c0 2-1.6 3.7-3.5 3.7H96.9c-2 0-3.5-1.6-3.5-3.7v-6.9c-.1-2.1 1.5-3.7 3.5-3.7z"/><path class="st2" d="M478.6 363.1H323.1c-5.1 0-9.2-4.7-9.2-10.5V334c0-5.8 4.1-10.5 9.2-10.5h155.4c5.1 0 9.2 4.7 9.2 10.5v18.5c.1 5.9-4 10.6-9.1 10.6zM717.7 338.5H587.5c-4.3 0-7.7-3.9-7.7-8.8v-15.5c0-4.9 3.5-8.8 7.7-8.8h130.2c4.3 0 7.7 3.9 7.7 8.8v15.5c0 4.9-3.4 8.8-7.7 8.8zM213.7 338.5H83.5c-4.3 0-7.7-3.9-7.7-8.8v-15.5c0-4.9 3.5-8.8 7.7-8.8h130.2c4.3 0 7.7 3.9 7.7 8.8v15.5c0 4.9-3.5 8.8-7.7 8.8z"/></svg>