<svg version="1.1" id="Calque_1" xmlns="http://www.w3.org/2000/svg" x="0" y="0" viewBox="0 0 800 421" style="enable-background:new 0 0 800 421" xml:space="preserve"><style>.st1{opacity:1;fill:#a7a7bc;enable-background:new}</style><g style="opacity:.1;enable-background:new"><path class="st1" d="M270 149.7v-17.8c0-6.5-3.5-12.6-9.1-15.8l-15.5-8.9c-5.7-3.3-12.6-3.3-18.3 0l-15.5 8.9c-5.7 3.3-9.1 9.3-9.1 15.8v17.8c0 6.5 3.5 12.6 9.1 15.8l15.5 8.9c5.7 3.3 12.6 3.3 18.3 0l15.5-8.9c5.6-3.3 9.1-9.3 9.1-15.8zM351.7 149.7v-17.8c0-6.5-3.5-12.6-9.1-15.8l-15.5-8.9c-5.7-3.3-12.6-3.3-18.3 0l-15.5 8.9c-5.7 3.3-9.1 9.3-9.1 15.8v17.8c0 6.5 3.5 12.6 9.1 15.8l15.5 8.9c5.7 3.3 12.6 3.3 18.3 0l15.5-8.9c5.6-3.3 9.1-9.3 9.1-15.8zM433.3 149.7v-17.8c0-6.5-3.5-12.6-9.1-15.8l-15.5-8.9c-5.7-3.3-12.6-3.3-18.3 0L375 116c-5.7 3.3-9.1 9.3-9.1 15.8v17.8c0 6.5 3.5 12.6 9.1 15.8l15.5 8.9c5.7 3.3 12.6 3.3 18.3 0l15.5-8.9c5.5-3.2 9-9.2 9-15.7zM514.9 149.7v-17.8c0-6.5-3.5-12.6-9.1-15.8l-15.5-8.9c-5.7-3.3-12.6-3.3-18.3 0l-15.5 8.9c-5.7 3.3-9.1 9.3-9.1 15.8v17.8c0 6.5 3.5 12.6 9.1 15.8l15.5 8.9c5.7 3.3 12.6 3.3 18.3 0l15.5-8.9c5.6-3.3 9.1-9.3 9.1-15.8zM596.6 149.7v-17.8c0-6.5-3.5-12.6-9.1-15.8l-15.5-8.9c-5.7-3.3-12.6-3.3-18.3 0l-15.5 8.9c-5.7 3.3-9.1 9.3-9.1 15.8v17.8c0 6.5 3.5 12.6 9.1 15.8l15.5 8.9c5.7 3.3 12.6 3.3 18.3 0l15.5-8.9c5.6-3.3 9.1-9.3 9.1-15.8zM270 289.2v-17.8c0-6.5-3.5-12.6-9.1-15.8l-15.5-8.9c-5.7-3.3-12.6-3.3-18.3 0l-15.5 8.9c-5.7 3.3-9.1 9.3-9.1 15.8v17.8c0 6.5 3.5 12.6 9.1 15.8l15.5 8.9c5.7 3.3 12.6 3.3 18.3 0l15.5-8.9c5.6-3.3 9.1-9.3 9.1-15.8zM351.7 289.2v-17.8c0-6.5-3.5-12.6-9.1-15.8l-15.5-8.9c-5.7-3.3-12.6-3.3-18.3 0l-15.5 8.9c-5.7 3.3-9.1 9.3-9.1 15.8v17.8c0 6.5 3.5 12.6 9.1 15.8l15.5 8.9c5.7 3.3 12.6 3.3 18.3 0l15.5-8.9c5.6-3.3 9.1-9.3 9.1-15.8zM433.3 289.2v-17.8c0-6.5-3.5-12.6-9.1-15.8l-15.5-8.9c-5.7-3.3-12.6-3.3-18.3 0l-15.5 8.9c-5.7 3.3-9.1 9.3-9.1 15.8v17.8c0 6.5 3.5 12.6 9.1 15.8l15.5 8.9c5.7 3.3 12.6 3.3 18.3 0l15.5-8.9c5.6-3.3 9.1-9.3 9.1-15.8zM514.9 289.2v-17.8c0-6.5-3.5-12.6-9.1-15.8l-15.5-8.9c-5.7-3.3-12.6-3.3-18.3 0l-15.5 8.9c-5.7 3.3-9.1 9.3-9.1 15.8v17.8c0 6.5 3.5 12.6 9.1 15.8l15.5 8.9c5.7 3.3 12.6 3.3 18.3 0l15.5-8.9c5.6-3.3 9.1-9.3 9.1-15.8zM596.6 289.2v-17.8c0-6.5-3.5-12.6-9.1-15.8l-15.5-8.9c-5.7-3.3-12.6-3.3-18.3 0l-15.5 8.9c-5.7 3.3-9.1 9.3-9.1 15.8v17.8c0 6.5 3.5 12.6 9.1 15.8l15.5 8.9c5.7 3.3 12.6 3.3 18.3 0l15.5-8.9c5.6-3.3 9.1-9.3 9.1-15.8zM229.2 217.9v-17.8c0-6.5-3.5-12.6-9.1-15.8l-15.5-8.9c-5.7-3.3-12.6-3.3-18.3 0l-15.5 8.9c-5.7 3.3-9.1 9.3-9.1 15.8v17.8c0 6.5 3.5 12.6 9.1 15.8l15.5 8.9c5.7 3.3 12.6 3.3 18.3 0l15.5-8.9c5.6-3.2 9.1-9.3 9.1-15.8zM310.8 217.9v-17.8c0-6.5-3.5-12.6-9.1-15.8l-15.5-8.9c-5.7-3.3-12.6-3.3-18.3 0l-15.5 8.9c-5.7 3.3-9.1 9.3-9.1 15.8v17.8c0 6.5 3.5 12.6 9.1 15.8l15.5 8.9c5.7 3.3 12.6 3.3 18.3 0l15.5-8.9c5.7-3.2 9.1-9.3 9.1-15.8zM392.5 217.9v-17.8c0-6.5-3.5-12.6-9.1-15.8l-15.5-8.9c-5.7-3.3-12.6-3.3-18.3 0l-15.5 8.9c-5.7 3.3-9.1 9.3-9.1 15.8v17.8c0 6.5 3.5 12.6 9.1 15.8l15.5 8.9c5.7 3.3 12.6 3.3 18.3 0l15.5-8.9c5.6-3.2 9.1-9.3 9.1-15.8zM474.1 217.9v-17.8c0-6.5-3.5-12.6-9.1-15.8l-15.5-8.9c-5.7-3.3-12.6-3.3-18.3 0l-15.5 8.9c-5.7 3.3-9.1 9.3-9.1 15.8v17.8c0 6.5 3.5 12.6 9.1 15.8l15.5 8.9c5.7 3.3 12.6 3.3 18.3 0l15.5-8.9c5.6-3.2 9.1-9.3 9.1-15.8zM555.7 217.9v-17.8c0-6.5-3.5-12.6-9.1-15.8l-15.5-8.9c-5.7-3.3-12.6-3.3-18.3 0l-15.5 8.9c-5.7 3.3-9.1 9.3-9.1 15.8v17.8c0 6.5 3.5 12.6 9.1 15.8l15.5 8.9c5.7 3.3 12.6 3.3 18.3 0l15.5-8.9c5.7-3.2 9.1-9.3 9.1-15.8zM638.2 217.9v-17.8c0-6.5-3.5-12.6-9.1-15.8l-15.5-8.9c-5.7-3.3-12.6-3.3-18.3 0l-15.5 8.9c-5.7 3.3-9.1 9.3-9.1 15.8v17.8c0 6.5 3.5 12.6 9.1 15.8l15.5 8.9c5.7 3.3 12.6 3.3 18.3 0l15.5-8.9c5.7-3.2 9.1-9.3 9.1-15.8z"/></g></svg>