<svg version="1.1" id="Calque_1" xmlns="http://www.w3.org/2000/svg" x="0" y="0" viewBox="0 0 800 421" style="enable-background:new 0 0 800 421" xml:space="preserve"><style>.st0{fill:#18182f;stroke:#32324c;stroke-miterlimit:10}.st2{fill:#8217fd}</style><path class="st0" d="M583.2 361.5H216.8c-23.9 0-43.2-19.3-43.2-43.2V102.7c0-23.9 19.3-43.2 43.2-43.2h366.3c23.9 0 43.2 19.3 43.2 43.2v215.7c.1 23.8-19.3 43.1-43.1 43.1z"/><path d="M571.4 332.1H228.6c-16.9 0-30.5-13.7-30.5-30.5V119.5c0-16.9 13.7-30.5 30.5-30.5h342.8c16.9 0 30.5 13.7 30.5 30.5v182.1c0 16.8-13.6 30.5-30.5 30.5z" style="opacity:.1;fill:#a7a7bc;enable-background:new"/><circle class="st2" cx="400" cy="210.5" r="29.5"/><path d="m409.5 206.2-10.7-6.2c-3.3-1.9-7.4.5-7.4 4.3v12.4c0 3.8 4.1 6.2 7.4 4.3l10.7-6.2c3.3-1.9 3.3-6.7 0-8.6z" style="fill:#fff"/><path class="st0" d="M570.9 309.2H229.1c-2.3 0-4.2-1.9-4.2-4.2v-5.5c0-2.3 1.9-4.2 4.2-4.2h341.7c2.3 0 4.2 1.9 4.2 4.2v5.5c0 2.4-1.8 4.2-4.1 4.2z"/><path class="st2" d="M468.2 309.2h-239c-2.3 0-4.2-1.9-4.2-4.2v-5.5c0-2.3 1.9-4.2 4.2-4.2h239c2.3 0 4.2 1.9 4.2 4.2v5.5c-.1 2.4-2 4.2-4.2 4.2z"/></svg>