<svg version="1.1" id="Layer_1" xmlns="http://www.w3.org/2000/svg" xmlns:xlink="http://www.w3.org/1999/xlink" x="0" y="0" viewBox="0 0 1346.7 916.7" style="enable-background:new 0 0 1346.7 916.7" xml:space="preserve"><style>.st0{fill:#0c0c19}.st3{opacity:.23;fill:#fff}.st4{fill:#2e2e47}.st5{fill:#ffa982}.st6{fill:#cc8b70}.st7{fill:#82a7af}.st8{fill:#7703fc}.st9{fill:#ffc97d}.st11{fill:#ba2f2f}.st14{fill:#ffc0dd}.st16{fill:#464660}.st17{fill:#f2836d}.st22{fill:#c7a9f7}.st23{fill:#a385e0}.st24{fill:#18182f}</style><path class="st0" d="M1039.4 518.7h26.1v285.6h-26.1z"/><ellipse cx="754.3" cy="779.3" rx="206.8" ry="25.2" style="opacity:7.000000e-02;fill:#2e2e47"/><defs><path id="SVGID_1_" d="M709.1 366.7s-41.2 60.4-64.6 86.1c0 0-8 17.6 18 33.8 11.3 7 21.7 3.6 21.7 3.6 32.5-34.2 51.6-81.6 53.4-95.7 2.4-19.2-13.4-49.3-28.5-27.8z"/></defs><use xlink:href="#SVGID_1_" style="overflow:visible;fill:#7703fc"/><clipPath id="SVGID_2_"><use xlink:href="#SVGID_1_" style="overflow:visible"/></clipPath><g style="clip-path:url(#SVGID_2_)"><path transform="rotate(16.321 652.32 449.222)" class="st3" d="M648.7 411.4h7.2v75.4h-7.2z"/><path transform="rotate(16.321 688.533 424.67)" class="st3" d="M684.9 353.1h7.2v142.8h-7.2z"/><path transform="rotate(16.331 715.078 432.287)" class="st3" d="M711.6 360.9h7.2v142.8h-7.2z"/><path transform="rotate(106.326 707.67 371.807)" class="st3" d="M704.1 322.7h7.2v98.2h-7.2z"/><path transform="scale(-1) rotate(-73.669 -531.975 934.289)" class="st3" d="M696.3 349.4h7.2v98.2h-7.2z"/><path transform="scale(-1) rotate(-73.669 -567.639 923.84)" class="st3" d="M688.4 376.1h7.2v98.2h-7.2z"/><path transform="scale(-1) rotate(-73.669 -603.304 913.392)" class="st3" d="M680.6 402.8h7.2V501h-7.2z"/><path transform="scale(-1) rotate(-73.669 -638.97 902.944)" class="st3" d="M672.8 429.6h7.2v98.2h-7.2z"/></g><path class="st4" d="M721.3 436.9c-4.9-16-11.1-32.5-16.4-38.3 0 0 .9 44.3.2 65.5 6.3-9.1 11.7-18.4 16.2-27.2z"/><path class="st5" d="M640.5 560.7c-23.5 12.4-18.8 42.3-14.8 52.4 3.6 9.1 63.9 151.7 68.2 161.3 4.2 9.6 19.3 3.6 24.2-2.9 4.9-6.4-38.6-158.1-38.6-158.1s5.2-.6 13.4-1.7c-11.7-24.1-23.8-40.7-23.8-40.7-12.9-6.3-21.6-9.8-28.6-10.3z"/><path class="st6" d="M836.2 617.3s-16.3 153.3-21.3 152c-1.5-.4-4.6-.3-5.3-3.8-6-28.8 14.3-151.5 14.3-151.5l12.3 3.3zM865.3 616.2s39.4 148.5 34.4 149.2c-1.6.2-4.3 1.6-6.2-1.4-15.8-24.2-40.7-146-40.7-146l12.5-1.8zM737.6 617.3s-16.3 153.3-21.3 152c-1.5-.4-4.6-.3-5.3-3.8-6-28.8 14.3-151.5 14.3-151.5l12.3 3.3zM766.7 616.2s39.4 148.5 34.4 149.2c-1.6.2-4.3 1.6-6.2-1.4-15.8-24.2-40.7-146-40.7-146l12.5-1.8z"/><path class="st0" d="M898.2 508.5s1.2-81.5-44.6-93.8-80.2 86.4-91.1 94.5c-10.9 8.1-64.1 8-71.7 32-7.6 24-9.2 65.9 30.3 77.6 39.5 11.7 138.1 17.4 162.4-5.8 24.4-23.3 14.7-104.5 14.7-104.5z"/><path class="st7" d="M762.2 514.8c-15.9-1.2-55.7 20.3-55.7 20.3s-48.7 17.4-60.6 21.5c-4 1.4-7.3 3.3-10.1 5.7 2.8.2 6.5.7 10.9 1.5 13.6 2.6 25.4 10.9 32.6 22.7 4.1 6.7 8.9 15.3 13.7 25.2 31.3-3.9 106.6-13.3 110.9-15 7.3-2.8 12.7-9.2 14.3-16.9 1.1-5.5 1.3-10.3 1.3-10.3s-37.5-53.2-57.3-54.7z"/><path class="st7" d="M776.4 541.6c-15.8 1.5-78.1 25.1-89.7 31.4-6.6 11.3 8.7 36.4 53.4 54.2 8.5-2.7 40.7-13 102.5-28.2 7.6-1.9 17.6-5.5 19.1-20.9.6-5.6 1.5-22.4 1.5-22.4s-67-16-86.8-14.1z"/><path class="st8" d="M715.8 456.6c-2.4-36.1-28.9-80.7 8-103.5 30.5-18.9 63.2-7.5 90.3 19.9 52.6 53.1 52.5 208 52.5 208s-36.7-2.9-96.1-26.1c-6.7-2.6-47.2-12.9-49.2-13.4-12.4-2.9-.9-16.5-5.5-84.9z"/><path class="st9" d="M679.2 816.1c-5.3 1.1-10.4.4-13.3-.2-.2-1.1-3.2-4.1-1.9-7.7 1.4-3.9 5.8-3.3 12.8-6.6 7-3.3 6.7-8.4 11.8-15.8 5-7.4-4.1-20.5-1.3-22.7 2.8-2.2 12.2-1.7 21.4-4.5s11.2-4.5 11.2-4.5c5.8 2.9 3 8.4 4.4 13.3 1.5 4.9 3.2 5.1 7.4 10.9 4.1 5.8 4.6 10.3 4.6 10.3s-7.5 6.1-18.3 12c-10.7 6-30.5 13.7-38.8 15.5z"/><path class="st6" d="M665.9 816.2v-.3c2.9.6 8 1.4 13.3.2 8.3-1.8 28-9.5 38.8-15.5 10.8-6 18.3-12 18.3-12s1.1.1 1.9 1.4 4.7 6.6 4 8.1c-.7 1.6-14.4 7.4-17.1 8.7-2.8 1.3-3.4-2.2-4.8-2.8s-7.9 3.2-10.7 4.8c-2.8 1.5-.8 1.4-.7 2.6.2 1.3-1.7 1.3-7.2 3.6s-26.5 6.7-29.5 7.3c-3 .7-5.3-.5-6.4-2.5-1-1.9-.3-2.8.1-3.6z"/><path class="st4" d="M698.2 771.1c-.9-.8-2.3-7.2-2.8-9.9 3.9-.5 8.6-1.1 13.3-2.5 4-1.2 6.7-2.2 8.4-3 .5 3.7 1 9.6-.4 11.2-2 2.4-17.4 5.2-18.5 4.2z"/><defs><path id="SVGID_3_" d="M715.8 456.6c-2.4-36.1-28.9-80.7 8-103.5 30.5-18.9 63.2-7.5 90.3 19.9 52.6 53.1 52.5 208 52.5 208s-36.7-2.9-96.1-26.1c-6.7-2.6-47.2-12.9-49.2-13.4-12.4-2.9-.9-16.5-5.5-84.9z"/></defs><clipPath id="SVGID_4_"><use xlink:href="#SVGID_3_" style="overflow:visible"/></clipPath><g style="clip-path:url(#SVGID_4_)"><path transform="rotate(-5.846 706.062 469.301)" class="st11" d="M702.4 318.3h7.2v302.2h-7.2z"/><path transform="rotate(-5.846 733.63 466.387)" class="st3" d="M730.1 315.5h7.2v302.2h-7.2z"/><path transform="rotate(-5.846 761.462 463.624)" class="st3" d="M757.8 312.7h7.2v302.2h-7.2z"/><path transform="rotate(-5.846 788.99 460.695)" class="st3" d="M785.5 309.8h7.2V612h-7.2z"/><path transform="rotate(-5.846 816.693 457.86)" class="st3" d="M813.2 307h7.2v302.2h-7.2z"/><path transform="rotate(-5.846 844.525 455.086)" class="st3" d="M840.9 304.1h7.2v302.2h-7.2z"/><path transform="rotate(84.146 761.413 327.44)" class="st11" d="M757.8 233h7.2v188.9h-7.2z"/><path transform="rotate(84.146 764.257 355.145)" class="st3" d="M760.7 260.7h7.2v188.9h-7.2z"/><path transform="rotate(84.146 767.092 382.829)" class="st3" d="M763.5 288.4h7.2v188.9h-7.2z"/><path transform="rotate(84.146 769.934 410.53)" class="st3" d="M766.3 316.1h7.2V505h-7.2z"/><path transform="rotate(84.146 772.77 438.215)" class="st3" d="M769.2 343.7h7.2v188.9h-7.2z"/><path transform="rotate(84.146 775.612 465.92)" class="st3" d="M772 371.4h7.2v188.9H772z"/><path transform="rotate(84.146 778.45 493.615)" class="st11" d="M774.9 399.1h7.2V588h-7.2z"/><path transform="rotate(84.146 781.286 521.295)" class="st11" d="M777.7 426.8h7.2v188.9h-7.2z"/><path transform="rotate(84.146 784.125 548.99)" class="st11" d="M780.5 454.5h7.2v188.9h-7.2z"/><path transform="rotate(84.146 786.967 576.698)" class="st3" d="M783.4 482.2h7.2v188.9h-7.2z"/></g><path class="st4" d="M748.3 540.8h-.2c-.3-.1-.5-.5-.4-.8 0-.1 2.5-7.2 4.8-24.2 2.5-18.7-2.3-56-3.9-66.9-1.4-9.7-4.4-21.5-7.1-31.9-1.7-6.8-3.2-12.6-3.9-16.6-1.7-9.7-4.1-30.5-4.1-30.7 0-.4.2-.7.6-.7.4 0 .7.2.7.6 0 .2 2.5 20.9 4.1 30.6.7 3.9 2.2 9.7 3.9 16.5 2.7 10.4 5.7 22.3 7.1 32 1.6 11 6.4 48.4 3.9 67.3-2.3 17.2-4.7 24.2-4.8 24.5-.1.1-.4.3-.7.3z"/><path class="st0" d="M440.3 522h26.1v284.6h-26.1zM263.1 556.4h26.1v292.2h-26.1zM969.7 556.4h26.1v292.2h-26.1z"/><path style="fill:#07070c" d="M251.7 566.1v-17.7l896.4-42.3v17.7l-143.3 41.4z"/><path class="st0" d="m251.7 548.4 219-42.3h677.4l-143.3 41.4z"/><path class="st4" d="M756.2 524.3H554.1l29.4-17.1h202z"/><defs><path id="SVGID_5_" d="M791.7 355s59.4 27.5 83.7 92.5c2.4 6.3 3.5 15.9 4.5 21.9-14.3 16.9-43.3 3.1-67.2-4.7l-21-109.7z"/></defs><use xlink:href="#SVGID_5_" style="overflow:visible;fill:#7703fc"/><clipPath id="SVGID_6_"><use xlink:href="#SVGID_5_" style="overflow:visible"/></clipPath><g style="clip-path:url(#SVGID_6_)"><path transform="rotate(-5.846 799.628 409.535)" class="st3" d="M796.1 342.1h7.2v135.3h-7.2z"/><path transform="rotate(-5.846 827.472 406.76)" class="st3" d="M823.8 339.2h7.2v135.3h-7.2z"/><path transform="rotate(-5.846 854.987 403.842)" class="st11" d="M851.5 336.4h7.2v135.3h-7.2z"/><path transform="rotate(84.146 823.029 363.565)" class="st3" d="M819.4 315.8h7.2v95.4h-7.2z"/><path transform="rotate(84.146 825.862 391.248)" class="st3" d="M822.3 343.5h7.2v95.4h-7.2z"/><path transform="rotate(84.146 828.706 418.955)" class="st3" d="M825.1 371.2h7.2v95.4h-7.2z"/><path transform="rotate(84.146 831.541 446.638)" class="st3" d="M828 398.9h7.2v95.4H828z"/></g><path class="st5" d="M712.4 505.5c4.2-19.1 113.7-19.2 113.7-19.2l-1.1-29.1c23.2-8.7 40.6-7.3 48.5 5.5 6.9 39.5-2 61.4-58 63.6-49.8 1.8-106.9-3.6-103.1-20.8z"/><path transform="rotate(-8.389 365.442 466.3)" class="st4" d="M359.3 453.5h12.3v25.3h-12.3z"/><path class="st14" d="M366.8 433.3c-.1-.9-1-1.6-2-1.5l-8.7 1.3c-.9.1-1.6 1-1.5 2l2.9 19.5 12.1-1.8-2.8-19.5z"/><path class="st4" d="M374.6 452.5h12.3v25.3h-12.3z"/><path class="st8" d="M386.9 432.8c0-1-.8-1.7-1.7-1.7h-8.8c-1 0-1.7.8-1.7 1.7v19.7H387l-.1-19.7z"/><path style="fill:#c69b75" d="m389.7 537.9-32.5.1-12.3-72.2 53.4-.2z"/><path class="st4" d="M457.3 515.6s8.1-17.8 25.3-18.1c17.2-.3 37.2 16.6 38.6 19.8 1.4 3.2-60.1 4.6-63.9 4-3.8-.6 0-5.7 0-5.7zM740.1 627.3s3.4-1.2 1.1-5c-5.9-9.4-7.1-10.7-19.4-23-10.8-10.8-38.6-19.2-36.5-17s47.6 44.7 54.8 45zM832.1 370.5c0-2.4 1.9-4.4 4.4-4.5 20.7-.7 109.9-4 154.3-13.1 26.2-5.4 44.4-10.9 49.8-12.6.8-.3 1.7.4 1.7 1.2V445c0 4.3-2.8 8.2-6.9 9.5-19.3 6.4-80.5 23-198.8 22.5-2.5 0-4.5-2-4.5-4.5v-102z"/><path class="st4" d="M945.6 459.7v67.5l25.6-3.7v-70.3z"/><path class="st4" d="M1019 527.2c0 3.2-26.8 5.8-59.9 5.8-33.1 0-59.9-2.6-59.9-5.8 0-3.2 26.8-5.8 59.9-5.8 33.1 0 59.9 2.6 59.9 5.8z"/><path class="st5" d="M626.8 470.6c-10.6 6.9-124 20.2-125.3 28.7-2.7 17.7 95.1 21.2 143.9 9.8 12.7-3 26.2-14.5 36.1-26.5 0 0-3.1-10.5-15.5-20.2-12.8-10-21.6-9.5-21.6-9.5-8.2 9.1-14.8 15.9-17.6 17.7z"/><path class="st5" d="M522.8 492s-20.6 2.5-22.8 2.1c-2.2-.4-12.4-2.2-15.7-1.6-3.2.6-9.1 3.6-12.1 4.8-3 1.3-5.9 3.6-5.7 4.3.2.7 2.8.5 2.8.5s-4.7 2.4-3.6 4c1 1.6 3.1 1 3.9.7.9-.3 12.8-.7 12.8-.7s-9.1 3.9-12.6 7.3-2.7 6.3-.3 5.2c2.4-1.1 16.9-6.8 18.3-6.9 1.4-.1 11.3.3 11.9.8.7.4-14.9 4.4-16.5 6.1-1.6 1.7-3 4.3-1.4 4.1 1.6-.2 16.6-3.7 20.7-3.2 4.1.5 20-7 20.2-13.9.4-6.7.1-13.6.1-13.6zM686.7 573.1c-.1 0-.2.1-.2.1-24.8 13.8-17.1 46.5-12.7 58.5 6.5 17.6 62.5 131.4 68.3 140.1 5.8 8.7 18.7 2.2 22.4-5 3.7-7.2-29.5-141.3-25.2-143.7.4-.2 1-.5 1.8-.7-12.9-24.9-40.1-41.8-54.4-49.3z"/><path class="st4" d="m609.5 480.6-192.2-8.7c-1.7 0-3.1-1.4-3.1-3.1L398 358.1c0-1.7 1.4-3.1 3.1-3.1l192.2 8.7c1.7 0 3.1 1.4 3.1 3.1l16.2 110.7c0 1.7-1.4 3.1-3.1 3.1z"/><ellipse class="st16" cx="494.2" cy="536.2" rx="47.2" ry="9.7"/><path class="st16" d="m478.7 410.1 23.4 1.3c1.6.1 2.7 1.5 2.5 3l-15.1 100.5 6.3 23.8-32.5-1.5-1.9-14.3c-.9-6.7-.8-13.4.2-20.1l14.3-90.5c.2-1.3 1.4-2.3 2.8-2.2z"/><path class="st5" d="M726.2 497.9s-22.8-.8-35.2.1c-3.6.3-23.6 11.1-23.2 13 .4 1.8 8.8-.4 8.8-.4s-10.1 5.7-9.9 6.7c.2 1 3.9.8 3.9.8s-2.8 2.3-1.8 3.2c1 1 20.2-4.5 21.2-4.3 1 .2-4.2 2-5.5 2.6-1.3.6-5.5 1.6-5.2 3.5.3 1.9 16.1-3.3 19.7-3.6 3.6-.3 6.6 3.9 17.2 2.5 7.1-.9 17.2-7.8 16.8-14.9-.5-7.1-6.8-9.2-6.8-9.2z"/><path class="st16" d="m368.6 848 107.9-13.5V647h-59.4l-107.9 13.5z"/><path class="st4" d="M309.2 660.5h59.4V848h-59.4z"/><path class="st9" d="M723.2 811.8c-5.3 1.1-10.4.4-13.3-.2-.2-1.1-3.2-4.1-1.9-7.7 1.4-3.9 5.8-3.3 12.8-6.6 7-3.3 6.7-8.4 11.8-15.8 5-7.4-4.1-20.5-1.3-22.7 2.8-2.2 12.2-1.7 21.4-4.5s11.2-4.5 11.2-4.5c5.8 2.9 3 8.4 4.4 13.3 1.5 4.9 3.2 5.1 7.4 10.9 4.1 5.8 4.6 10.3 4.6 10.3s-7.5 6.1-18.3 12c-10.8 6-30.5 13.7-38.8 15.5z"/><path class="st6" d="M709.8 811.9v-.3c2.9.6 8 1.4 13.3.2 8.3-1.8 28-9.5 38.8-15.5 10.8-6 18.3-12 18.3-12s1.1.1 1.9 1.4 4.7 6.6 4 8.1c-.7 1.6-14.4 7.4-17.1 8.7-2.8 1.3-3.4-2.2-4.8-2.8-1.4-.6-7.9 3.2-10.7 4.8-2.8 1.5-.8 1.4-.7 2.6.2 1.3-1.7 1.3-7.2 3.6s-26.5 6.7-29.5 7.3c-3 .7-5.3-.5-6.4-2.5-1-1.9-.3-2.8.1-3.6z"/><path class="st4" d="M742.1 766.7c-.9-.8-2.3-7.2-2.8-9.9 3.9-.5 8.6-1.1 13.3-2.5 4-1.2 6.7-2.2 8.4-3 .5 3.7 1 9.6-.4 11.2-1.9 2.5-17.3 5.3-18.5 4.2zM700.3 689.5c-.2 0-.5-.1-.6-.4-.2-.4-19.9-42-25.4-54.4-1.9-4.2-5.1-12.8-6.1-23.2-.9-9.6.6-18.1 4.2-24.5 7.9-14 20.7-17.8 21.2-17.9.4-.1.7.1.8.5.1.4-.1.7-.5.8-.1 0-12.7 3.7-20.4 17.3-3.5 6.1-4.9 14.3-4 23.7.7 7.5 2.9 15.8 6 22.8 5.5 12.4 25.2 54 25.4 54.4.2.3 0 .7-.3.9h-.3zM738.7 292.9s10 27.5 1.1 32.3c-14.3 7.6-18.9-26.9-17.1-30.6 1.8-3.8 12.8-4.4 16-1.7z"/><path class="st5" d="M735.6 321.3s8.7 15.5 16.2 22.2c4.4 3.9-7.6 20.7-15.9 24.6-8.3 3.8-5.8-15.8-7.7-20.8-3.4-9.1-5.7-13.5-5.8-15.4-.2-2 9.8-11.9 13.2-10.6z"/><path class="st4" d="m736.2 333.6-9.7 9.2c.5 1.3 1.1 2.8 1.7 4.5.5 1.3.7 3.5.8 6.1 1.4-1.1 3.1-2.5 4.7-4.3 4.2-4.6 2.5-15.5 2.5-15.5z"/><path class="st5" d="M687.7 300s1 15.3 1.3 20c.3 4.7-.3 9.4 1.1 16.2 1.3 6.8 6.8 18.3 19.6 17.2 12.8-1.1 24.4-7.9 25.9-15.3s.3-15.1.3-15.1 4-.3 5.2-5.7c1.2-5.4 2.3-12.5-2.4-12.4-4.7.1-5.2 2.7-6.3 2.5-1.1-.1-7.7-11.7-13.7-12.5-6-.7-28.6-1.9-31 5.1z"/><path class="st4" d="M704.1 310.6c-.1 0-.3 0-.4-.1-.3-.2-.4-.6-.2-.9.1-.1 1.5-2.2 4.4-2.3 2.7 0 6.3 1.4 6.5 1.4.3.1.5.5.4.9-.1.3-.5.5-.9.4 0 0-3.6-1.4-6-1.3-2.2 0-3.2 1.6-3.3 1.7-.1.1-.3.2-.5.2z"/><path class="st17" d="M717.9 321.6c.3 1.5-1.8 3.3-4.7 3.9-2.9.6-5.5-.1-5.8-1.7-.3-1.5 1.8-3.3 4.7-3.9 2.9-.6 5.5.1 5.8 1.7zM693.8 327.9c.3 1.5-.8 3.1-2.5 3.4-1.7.4-3.4-.6-3.7-2.1-.3-1.5.8-3.1 2.5-3.4 1.7-.4 3.4.6 3.7 2.1z"/><path class="st4" d="M704.6 317.2c-.2 0-.4-.1-.5-.3-.2-.3-.2-.7.1-.9 3.8-2.9 8.9-2.6 9.1-2.5.4 0 .6.3.6.7 0 .4-.3.6-.7.6 0 0-4.8-.3-8.2 2.3-.1.1-.2.1-.4.1zM689.1 320.5c-.2 0-.5-.1-.6-.3-.2-.3-.1-.7.2-.9 2.3-1.3 6.7-1.9 6.9-1.9.4 0 .7.2.7.6 0 .4-.2.7-.6.7 0 0-4.3.6-6.4 1.8h-.2zM735.4 303.9s-2 9.4-5.7 10.9c-3.8 1.5-6-12.4-7-14.9s-3.8-5-3.8-5 19-3.4 16.5 9z"/><path class="st5" d="M697.7 322.2s-1.9 4-.4 5.9c1.5 1.9 4.9 1.9 7 .7 2.1-1.3 2.9-2 3.1-3.1.1-1.3-3.8-8.6-9.7-3.5z"/><path class="st4" d="M701.5 330.3c-.8 0-1.6-.1-2.5-.4-1.4-.5-2.3-1.2-2.7-2.3-.6-1.4-.3-3.3 1-6 1.5-3.1-.2-6.4-2.1-8.2-2-1.8-6.2.5-6.2.5-.3.2-.7.1-.9-.2-.2-.3-.1-.7.2-.9.2-.1 5.1-2.9 7.8-.4 2.3 2.1 4.2 6 2.4 9.7-1.1 2.2-1.4 3.8-1 4.9.3.7.9 1.2 1.9 1.5 4 1.3 6.4-1.4 7.2-3.1.2-.3.5-.5.9-.3.3.2.5.5.3.9-.7 1.8-2.9 4.3-6.3 4.3z"/><path d="M711.1 331.8s-9.4 3.6-14.5 4.7c0 0 2.3 2.7 7.4 2.1 5.1-.6 7.1-6.8 7.1-6.8z" style="fill:#fff"/><path class="st4" d="M710.4 314.7s1.2 3.1-.1 4.3c-1.3 1.1-2.3.3-2.8-.6-.5-.8-1-3.1-.1-3.4.8-.4 2.6-.8 3-.3zM693.3 318.9s1.4 2.8.3 3.8c-1.1 1.1-1.9.1-2.4-.7-.5-.9-.9-2.5-.1-2.9.7-.3 1.9-.7 2.2-.2z"/><path class="st4" d="M689.2 332.9c-.6 0-1.3-.2-2.2-.9-2.9-2.3-5.4-8.8-5.3-11.2.3-3.6 6.3-5 9.2-5.7 3.1-.7 5 1.1 5.5 2.2 1 1.4 1.1 6.8.6 8.9-.5 2.2-3.4 5.3-7.2 6.5 0 .2-.3.2-.6.2zm3.2-16.6c-.3 0-.7 0-1.1.1-2.4.5-8 1.8-8.2 4.5-.2 2.1 2.2 8.1 4.8 10.1.6.5 1.2.7 1.7.5 3.2-1 5.8-3.7 6.3-5.6.5-2.1.1-7.1-.4-7.8l-.1-.1c-.1-.1-.9-1.7-3-1.7zM711.9 325c-1.9 0-3.6-.3-4.5-.9-1.8-1.1-5.8-5.2-5.9-7-.1-.6-.5-3.5 3.5-5.6 5.1-2.5 10.1-4.6 12.6-2.5 1.9 1.7 4 7.5 3.4 11.3-.3 2.2-1.4 3-2.3 3.4-2.3.9-4.7 1.3-6.8 1.3zm2.9-15.6c-2.8 0-7.1 2.2-9.2 3.2-3.4 1.7-2.8 4.1-2.8 4.1v.2c0 .9 3.3 4.8 5.2 6 1.8 1 6.3 1.1 10.1-.5.8-.3 1.3-1.1 1.5-2.4.5-3.4-1.4-8.8-2.9-10.1-.4-.3-1.1-.5-1.9-.5z"/><path class="st4" d="M697.2 322c-.2 0-.4-.1-.5-.2-.2-.3-.2-.7.1-.9 3.1-2.8 6.4-2.4 6.6-2.4.4 0 .6.4.6.7 0 .4-.4.6-.7.6-.1 0-2.9-.2-5.5 2.1-.3 0-.5.1-.6.1zM718.7 312.4c-.3 0-.5-.2-.6-.4-.1-.3 0-.7.4-.9l14.1-5.8c.3-.1.7 0 .9.4.1.3 0 .7-.4.9l-14.1 5.8h-.3zM685.7 279.2c10.3-8.8 18.3-8.7 29.8-6 .3-.1 15.6 1.8 17.6 4.2 1 1.2 1.9 3.2 1.4 5.1 7.5 5.9 4.3 10.5 4.3 10.5l-1.5 3.4c-.8 1.8-10.7 6.9-14.2 2.5-3.6-4.5-7.1-2.8-13.6-2.5-6.5.2-11.5 5-14.6 5.2-3.1.3-3.9.3-6.7.3-2.9-.2-9.4-16.8-2.5-22.7z"/><path class="st5" d="M719.6 296.6s12.8-11.4 11.4-9.1c-1.4 2.3-9.6 11-10.5 10.4-1-.6-.9-1.3-.9-1.3z"/><path class="st4" d="M714.7 270.5c.2-.1.3-.3.3-.5 0-.3-.2-.6-.5-.7-.6-.1-14-1.6-23.6 6.5-.3.2-.3.6-.1.9.2.3.6.3.9.1 9.2-7.7 22.6-6.3 22.7-6.2.1 0 .2 0 .3-.1z"/><path class="st8" d="M735 364.4s7.7-6.7 10.5-12.8c2.1-4.8 3.4-9 3.9-10.7.1-.4.5-.5.8-.3l8.8 5.9-13.6 28.1-11.4-5.2-3.9 5.2-3.7-8.3 2.7-11.3 5.9 9.4z"/><path class="st14" d="M739.5 299.1c-.6.1-2.8.3-3.4.3-4 .4-6.7 6.4-6 13.5.7 7.1 4.5 12.5 8.5 12.1.6-.1 2.8-.3 3.4-.3 4-.4 6.7-6.4 6-13.5-.6-7.1-4.4-12.5-8.5-12.1zM735.7 296.3c-.4.1-.8-.2-.9-.5-1-2.7-5.3-13-12.4-17.6-8.2-5.3-12.8-6.2-12.8-6.2s9.5.5 12 1.1c2.5.6 11.2 5.5 15.9 15 1.7 3.4 2.5 5.4 2.9 6.4.2.5-.1 1.1-.7 1.2l-4 .6z"/><path class="st14" d="m736.6 295.2 1.2 5.2 2.2-.3-1-5.5z"/><path class="st4" d="M730.3 375.5c-.1 0-.3 0-.4-.1-1.4-.5-2.3-3.3-3.4-7-.2-.8-.5-1.5-.6-1.8-.3-.7-.3-1.3-.1-1.8.2-.5.6-.7.9-.8.4-.1.7.1.8.5.1.3-.1.7-.4.8 0 0-.1 0-.1.1 0 0-.1.2.1.7.2.4.4 1.1.7 2 .4 1.5 1.7 5.9 2.6 6.1 1.6-1.3 3.2-4.9 3.2-4.9l.3-.7.7.4c4.5 2.7 9.7 5.4 10.9 5.1.5-.3 2.6-3.4 7.2-13.4 3.2-6.9 5.7-12.9 5.9-13.9 0-.2 0-.4.1-.5.2-.3.6-.4.9-.2.3.2.4.5.3.9-.3 1.5-3.5 8.9-6.3 14.9-6.1 13.1-7.3 13.4-7.8 13.5-2 .5-8.8-3.4-11.2-4.9-.6 1.2-1.9 3.6-3.3 4.7-.5.2-.7.3-1 .3zm28.4-28.4zm0 0zM734.1 605.2c-.3 0-.5-.2-.6-.4-.1-.3.1-.7.4-.8.2-.1 24.7-8.8 43.9-11.5 19.8-2.8 35.8-5.2 45.8-8.7 10.1-3.5 17.6-7.5 17.7-7.6.3-.2.7-.1.9.3.2.3.1.7-.3.9-.1 0-7.7 4.1-17.9 7.7-10.1 3.5-26.2 5.9-46 8.8-19 2.7-43.4 11.3-43.6 11.4-.1-.1-.2-.1-.3-.1zM824.3 472.3c-.1 0-.2 0-.3-.1-.4-.2-10.5-4.5-12.3-8.9-1.2-3-4.2-19.8-6.6-33.4-1-5.6-1.8-10.5-2.4-13.6-2-10.5-11.6-51.8-11.7-52.2-.1-.4.1-.7.5-.8.4-.1.7.1.8.5.1.4 9.7 41.7 11.7 52.3.6 3.1 1.5 8 2.4 13.6 2.2 12.7 5.3 30.2 6.5 33.1 1.6 3.9 11.5 8.2 11.6 8.2.3.1.5.5.4.9-.1.2-.3.4-.6.4z"/><path d="M1084.6 751.2c.8 1.4 6.8 2.5 8.9 1.4l1.9-13s53.3-40.5 49.4-51.4c-3.9-10.9-42.1 28.8-42.1 28.8l5.6-21.6s40.4-21.9 35.5-30.8c-4.9-9-32.4 17.7-32.4 17.7l8.2-23.6s26.8-23.1 22.9-31.1c-3.9-7.9-20.5 16.2-20.5 16.2s7.8-36.1-.8-34.3c-8.7 1.8-10.7 47.3-10.7 47.3s-2.1-15.3-7.6-15.8c-5.5-.4 5.1 27.7 5.1 27.7l-2.9 14.2s-11-31.8-17.5-26.8 13.9 38.7 13.9 38.7l-5.7 21s-9.4-30.4-21.2-26.4c-11.8 4.1 14.3 46.7 14.3 46.7l-4.3 15.1z" style="fill:#2ba573"/><path d="m1067.1 752.2-3.3-20.8s46.7-71.7 30.9-70c-15.8 1.7-33.4 56.3-33.4 56.3l-6.3-13.8s34.6-58.4 24.2-65.9c-10.4-7.5-29.2 43.4-29.2 43.4l-6.3-20.8s31.3-36.7 20.8-42.1c-10.4-5.4-25 29.6-25 29.6l-4.6-23.8s15.8-31.7 7.1-36.7c-8.8-5-12.9 22.9-12.9 22.9s-12.1-34.2-20.4-28.8c-8.3 5.4 15.4 45 15.4 45s-11.1-12.1-17.2-10c-6.1 2.1 21.4 21.3 21.4 21.3l5 13.3s-30-22.1-34.2-15c-4.2 7.1 37.1 26.7 37.1 26.7l5.8 20.4s-27.5-21.7-37.9-12.9c-10.4 8.8 42.1 33.4 42.1 33.4l5 20s-59.6-31.3-68-19.6c-8.3 11.7 70.9 29.2 70.9 29.2l3.3 20.8 9.7-2.1z" style="fill:#3ec68c"/><path style="fill:#9c6f43" d="m1014.1 745.2 14.2 89.6h81.4l12.8-89.6z"/><path class="st22" d="M655.6 88H452.7c-15.7 0-28.6 12.9-28.6 28.6v105.8c0 15.7 12.9 28.6 28.6 28.6h202.9c15.7 0 28.6-12.9 28.6-28.6V116.6c0-15.7-12.9-28.6-28.6-28.6z"/><path class="st22" d="m588.5 247.7 29.4 30.5v-30.5z"/><path class="st23" d="M459.2 110.3h9.1v9.1h-9.1zM483 110.3h89.2v9.1H483zM524.7 135.8h63.4v9.1h-63.4z"/><path class="st8" d="M596.1 135.8h34.8v9.1h-34.8z"/><path class="st23" d="M510.9 161.2h35.3v9.1h-35.3zM500.9 189.9h35.3v9.1h-35.3z"/><path class="st8" d="M541 189.9h91.8v9.1H541z"/><path class="st23" d="M504.3 212.2H604v9.1h-99.7z"/><path class="st8" d="M554.6 161.2h15.7v9.1h-15.7z"/><path class="st23" d="M580.1 161.2h34.8v9.1h-34.8zM459.2 135.8h9.1v9.1h-9.1zM459.2 161.2h9.1v9.1h-9.1zM459.2 186.7h9.1v9.1h-9.1zM459.2 212.2h9.1v9.1h-9.1z"/><path class="st4" d="m709.7 197.1 7.8-39.9a70.102 70.102 0 0 1-24.1-52.9c0-38.6 31.4-70.1 70.1-70.1 38.6 0 70.1 31.4 70.1 70.1s-31.4 70.1-70.1 70.1c-7.4 0-14.7-1.2-21.7-3.4l-32.1 26.1zm53.8-161.6c-37.9 0-68.8 30.8-68.8 68.8 0 20 8.7 39 23.9 52.1l.3.3-7.2 37.1 29.8-24.3.3.1c7 2.3 14.2 3.5 21.6 3.5 37.9 0 68.8-30.8 68.8-68.8 0-37.9-30.8-68.8-68.7-68.8z"/><path class="st8" d="M916.6 144.5H800.4c-19.2 0-34.9 15.7-34.9 34.9v53.4c0 19.2 15.7 34.9 34.9 34.9h72.4l28.5 28.8 3.5-28.8h11.8c19.2 0 34.9-15.7 34.9-34.9v-53.4c.1-19.2-15.7-34.9-34.9-34.9zM754.3 113.9c-13.9 0-25.2-11.3-25.2-25.2 0-13.9 11.3-25.2 25.2-25.2 13.9 0 25.2 11.3 25.2 25.2.1 13.9-11.2 25.2-25.2 25.2zm0-42.6c-9.6 0-17.4 7.8-17.4 17.4 0 9.6 7.8 17.4 17.4 17.4 9.6 0 17.4-7.8 17.4-17.4 0-9.6-7.8-17.4-17.4-17.4z"/><path transform="rotate(-45.001 773.486 107.797)" class="st8" d="M771.8 101.5h3.3v12.7h-3.3z"/><path class="st6" d="M774.7 109c-2.4 2.4-2.4 6.4 0 8.9l18.3 18.3c2.4 2.4 6.4 2.4 8.9 0 2.4-2.4 2.4-6.4 0-8.9L783.5 109a6.1 6.1 0 0 0-8.8 0z"/><circle class="st24" cx="827.9" cy="202.6" r="10.7"/><circle class="st24" cx="858.5" cy="202.6" r="10.7"/><circle class="st24" cx="889.2" cy="202.6" r="10.7"/></svg>