<?xml version="1.0" encoding="UTF-8" standalone="no"?>
<svg
   id="bebdbc02-5f56-4bd5-9ad9-bce5f07a2c3e"
   data-name="Layer 1"
   width="1400"
   height="783.89355"
   viewBox="0 0 1400 783.89357"
   version="1.1"
   sodipodi:docname="qatent-section.svg"
   inkscape:version="1.1.2 (0a00cf5339, 2022-02-04)"
   xmlns:inkscape="http://www.inkscape.org/namespaces/inkscape"
   xmlns:sodipodi="http://sodipodi.sourceforge.net/DTD/sodipodi-0.dtd"
   xmlns="http://www.w3.org/2000/svg"
   xmlns:svg="http://www.w3.org/2000/svg"
   xmlns:rdf="http://www.w3.org/1999/02/22-rdf-syntax-ns#"
   xmlns:cc="http://creativecommons.org/ns#"
   xmlns:dc="http://purl.org/dc/elements/1.1/">
  <metadata
     id="metadata173">
    <rdf:RDF>
      <cc:Work
         rdf:about="">
        <dc:format>image/svg+xml</dc:format>
        <dc:type
           rdf:resource="http://purl.org/dc/dcmitype/StillImage" />
        <dc:title>lists</dc:title>
      </cc:Work>
    </rdf:RDF>
  </metadata>
  <defs
     id="defs171" />
  <sodipodi:namedview
     pagecolor="#ffffff"
     bordercolor="#666666"
     borderopacity="1"
     objecttolerance="10"
     gridtolerance="10"
     guidetolerance="10"
     inkscape:pageopacity="0"
     inkscape:pageshadow="2"
     inkscape:window-width="1396"
     inkscape:window-height="983"
     id="namedview169"
     showgrid="false"
     inkscape:zoom="1.0339274"
     inkscape:cx="642.21144"
     inkscape:cy="253.8863"
     inkscape:window-x="3441"
     inkscape:window-y="96"
     inkscape:window-maximized="0"
     inkscape:current-layer="bebdbc02-5f56-4bd5-9ad9-bce5f07a2c3e"
     fit-margin-left="100"
     fit-margin-right="100"
     inkscape:pagecheckerboard="0" />
  <title
     id="title2">lists</title>
  <path
     inkscape:connector-curvature="0"
     style="fill:#ffffff;stroke-width:1.74255;fill-opacity:1"
     d="m 468.92986,316.0931 h 345.58389 c 10.34297,-0.006 18.72468,-4.10712 18.73646,-9.16817 V 93.000587 c -0.0118,-5.061059 -8.39348,-9.162423 -18.73646,-9.168184 H 468.92986 c -10.34304,0.0058 -18.72477,4.107163 -18.73647,9.168249 V 306.92499 c 0.0118,5.06103 8.39354,9.16235 18.73647,9.16811 z"
     id="path60"
     sodipodi:nodetypes="ccccccccc" />
  <g
     id="g90"
     transform="translate(63.834269,17.409346)">
    <g
       transform="matrix(0.90172383,0,0,1.0250852,151.6982,-248.35953)"
       id="g258">
      <ellipse
         style="fill:#f2f2f2"
         cx="362.58887"
         cy="947.17938"
         rx="154"
         ry="24"
         id="ellipse6" />
      <ellipse
         style="fill:none;stroke:#3f3d56;stroke-miterlimit:10"
         cx="387.58887"
         cy="938.17938"
         rx="154"
         ry="24"
         stroke-miterlimit="10"
         id="ellipse8" />
    </g>
    <circle
       r="27.653111"
       style="fill:#ff6584;stroke-width:0.79492956"
       id="circle28"
       cy="322.22427"
       cx="505.5676" />
    <rect
       style="fill:#3f3d56;stroke-width:0.79493099"
       id="rect98"
       transform="rotate(-0.10771594)"
       height="78.934158"
       width="1.9983293"
       y="335.37903"
       x="484.74832" />
    <path
       style="fill:#4400aa;stroke-width:0.79492956"
       inkscape:connector-curvature="0"
       id="path100"
       d="m 505.83581,344.4887 c 0.17901,27.60097 -19.19776,50.10258 -19.19776,50.10258 0,0 -19.66697,-22.2484 -19.84597,-49.84937 -0.179,-27.60097 19.19778,-50.10259 19.19778,-50.10259 0,0 19.66696,22.24841 19.84595,49.84938 z" />
    <path
       style="opacity:0.1;stroke-width:0.79492956"
       inkscape:connector-curvature="0"
       id="path102"
       d="m 505.83581,344.4887 c 0.17901,27.60097 -19.19776,50.10258 -19.19776,50.10258 0,0 -19.66697,-22.2484 -19.84597,-49.84937 -0.179,-27.60097 19.19778,-50.10259 19.19778,-50.10259 0,0 19.66696,22.24841 19.84595,49.84938 z" />
    <rect
       style="fill:#3f3d56;stroke-width:0.79493099"
       id="rect104"
       transform="rotate(-0.10771594)"
       height="78.934158"
       width="1.9983293"
       y="335.37909"
       x="458.76996" />
    <path
       style="fill:#4400aa;stroke-width:0.79492956"
       inkscape:connector-curvature="0"
       id="path106"
       d="m 479.85757,344.53748 c 0.179,27.60097 -19.19776,50.10258 -19.19776,50.10258 0,0 -19.66697,-22.24841 -19.84597,-49.84938 -0.179,-27.60097 19.19777,-50.10259 19.19777,-50.10259 0,0 19.66696,22.24838 19.84596,49.84939 z" />
    <path
       style="fill:#2f2e41;stroke-width:0.79492956"
       inkscape:connector-curvature="0"
       id="path146"
       d="m 448.39024,471.70781 -12.48307,1.38702 c 0,0 -5.54802,24.96612 0,58.25428 5.54803,33.28815 12.48307,66.5763 12.48307,66.5763 0,0 5.54802,108.18651 8.32203,109.57353 2.77401,1.38701 27.74014,9.70904 29.12713,1.38701 1.38701,-8.32205 1.38701,-198.34195 1.38701,-198.34195 l 19.4181,91.54244 c 0,0 2.77401,115.12154 8.32203,115.12154 5.54804,0 23.57912,-1.38701 23.57912,-11.09606 0,-9.70904 4.16102,-137.31368 4.16102,-137.31368 0,0 -1.38701,-94.31644 -6.93503,-97.09045 -5.54804,-2.77403 -87.38141,2e-5 -87.38141,2e-5 z" />
    <path
       style="fill:#2f2e41;stroke-width:0.79492956"
       inkscape:connector-curvature="0"
       id="path148"
       d="m 459.48628,703.33791 c 0,0 -12.48305,-1.38701 -15.25708,0 -2.77403,1.38701 -6.93504,11.09605 0,16.64407 6.93504,5.54804 24.96611,13.87008 30.51417,13.87008 5.54805,0 11.09605,-2.77402 11.09605,-2.77402 l -2.77402,-23.5791 z" />
    <path
       style="fill:#2f2e41;stroke-width:0.79492956"
       inkscape:connector-curvature="0"
       id="path150"
       d="m 514.96654,710.27294 1.38701,19.4181 c 0,0 18.03109,2.77401 19.4181,0 1.387,-2.77401 15.25707,-9.70906 16.64407,-11.09606 1.38699,-1.38701 2.77402,-16.64408 -5.54803,-18.03108 -8.32203,-1.38702 -11.09604,2.77401 -11.09604,2.77401 z" />
    <path
       style="fill:#a0616a;stroke-width:0.79492956"
       inkscape:connector-curvature="0"
       id="path152"
       d="m 547.19852,306.6657 c 0,0 30.32417,-19.50032 29.62236,-32.89741 -0.70181,-13.39711 -18.98254,-55.63856 -18.98254,-55.63856 0,0 -14.3009,-29.73291 -19.98619,-17.58169 -5.68527,12.15122 7.47227,25.08586 7.47227,25.08586 l 8.49246,41.43715 -23.08021,22.01836 z" />
    <circle
       r="24.966116"
       style="fill:#a0616a;stroke-width:0.79492956"
       id="circle154"
       cy="253.94781"
       cx="471.96936" />
    <path
       style="fill:#a0616a;stroke-width:0.79492956"
       inkscape:connector-curvature="0"
       id="path156"
       d="m 459.48628,269.20487 4.16103,26.35313 30.51415,-5.54803 c 0,0 -1.38699,-26.35314 -1.38699,-29.12714 0,-2.77401 -33.28819,8.32204 -33.28819,8.32204 z" />
    <path
       inkscape:connector-curvature="0"
       style="opacity:1;vector-effect:none;fill:#4400aa;fill-opacity:1;stroke-width:0.79492956;stroke-linecap:butt;stroke-linejoin:miter;stroke-miterlimit:4;stroke-dasharray:none;stroke-dashoffset:0;stroke-opacity:1"
       id="path158"
       d="m 458.09928,295.558 c 0,0 34.67517,-8.32204 38.83617,-5.54803 4.16103,2.774 24.96612,5.54803 24.96612,5.54803 l 23.57912,36.06217 -6.93503,45.77121 c 0,0 -1.38701,73.51134 1.387,85.99441 2.77402,12.48304 18.03108,13.87005 -13.87007,16.64407 -31.90115,2.77402 -37.44913,-1.387 -59.64127,4.16102 -22.19215,5.54801 -40.2232,-2.77401 -34.67516,-8.32205 5.54802,-5.54802 15.25707,-94.31643 4.16101,-102.63847 -11.09607,-8.32205 -15.25707,-51.31924 -15.25707,-51.31924 0,0 37.44918,-19.41809 37.44918,-26.35312 z" />
    <path
       inkscape:connector-curvature="0"
       style="opacity:1;vector-effect:none;fill:#4400aa;fill-opacity:1;stroke-width:0.79492956;stroke-linecap:butt;stroke-linejoin:miter;stroke-miterlimit:4;stroke-dasharray:none;stroke-dashoffset:0;stroke-opacity:1"
       id="path160"
       d="m 517.74057,299.719 4.161,-4.161 8.32204,-8.32204 c 0,0 27.04662,11.78955 25.65963,15.95056 -1.38701,4.16102 -10.40255,28.43365 -10.40255,28.43365 l -12.48306,4.161 z" />
    <path
       style="fill:#2f2e41;stroke-width:0.79492956"
       inkscape:connector-curvature="0"
       id="path162"
       d="m 480.68215,223.70109 -0.25586,-1.99999 a 15.722347,15.722347 0 0 0 -4.99661,0.78515 8.2089595,8.2089595 0 0 1 0.30842,-3.59393 15.98047,15.98047 0 0 0 -4.62475,2.01064 l -1.00865,-3.65001 -13.86563,6.83347 c -4.97724,2.45295 -10.22477,5.14851 -13.07001,9.9124 -3.17202,5.311 -2.62001,12.13658 -0.45165,17.93028 2.16837,5.79369 5.77148,10.92085 8.65963,16.39145 a 40.952005,40.952005 0 0 0 3.93541,6.69806 c 5.23372,6.5244 15.4214,7.84254 22.80067,3.9048 2.72336,-1.45325 5.19772,-3.62534 6.31809,-6.50168 0.66994,-1.71991 0.82313,-3.59144 1.26207,-5.38426 0.91278,-3.72832 1.97239,-11.42448 5.00064,-13.78312 1.33254,-1.03789 3.97454,2.40277 5.0788,1.12469 2.83782,-3.28449 2.24223,-8.34978 0.47981,-12.31665 a 89.868895,89.868895 0 0 0 -5.91634,-11.53972 c -0.95223,-1.48714 -9.68474,-7.06147 -9.65404,-6.82158 z" />
    <path
       style="fill:#a0616a;stroke-width:0.79492956"
       inkscape:connector-curvature="0"
       id="path164"
       d="m 398.458,355.19927 c 0,0 -33.28815,31.90113 -29.12714,48.54524 4.16102,16.64412 37.44918,65.1893 37.44918,65.1893 0,0 31.90115,16.64408 36.06216,0 4.16103,-16.64408 -22.1921,-12.48306 -22.1921,-12.48306 l -20.8051,-49.93224 23.57911,-33.28815 z" />
    <path
       inkscape:connector-curvature="0"
       style="opacity:1;vector-effect:none;fill:#4400aa;fill-opacity:1;stroke-width:0.79492956;stroke-linecap:butt;stroke-linejoin:miter;stroke-miterlimit:4;stroke-dasharray:none;stroke-dashoffset:0;stroke-opacity:1"
       id="path166"
       d="m 437.29418,324.68512 -16.64408,-2.774 c 0,0 -12.48306,13.87005 -16.64408,19.4181 -4.16102,5.54803 -12.48305,19.41807 -12.48305,19.41807 l 29.12713,20.80511 22.1921,-23.57911 z" />
  </g>
  <path
     inkscape:connector-curvature="0"
     style="fill:#4400aa;stroke-width:1.23282504"
     d="m 752.69056,185.18628 h 37.64675 a 4.6414505,4.6414505 0 0 0 4.63631,-4.63628 v -44.4257 a 4.6414628,4.6414628 0 0 0 -4.63631,-4.63632 h -37.64675 a 4.6414628,4.6414628 0 0 0 -4.63631,4.63632 V 180.55 a 4.6414505,4.6414505 0 0 0 4.63631,4.63628 z"
     id="path62" />
  <path
     inkscape:connector-curvature="0"
     style="fill:#cccccc;stroke-width:1.23282504"
     d="m 727.70294,265.58057 h 37.64679 a 4.6414628,4.6414628 0 0 0 4.63629,-4.63632 v -44.4257 a 4.6414505,4.6414505 0 0 0 -4.63629,-4.63628 h -37.64679 a 4.6414505,4.6414505 0 0 0 -4.63629,4.63628 v 44.4257 a 4.6414628,4.6414628 0 0 0 4.63629,4.63632 z"
     id="path64" />
  <path
     inkscape:connector-curvature="0"
     style="fill:#ff6584;stroke-width:1.23282504"
     d="m 678.47801,190.58252 h 37.64677 a 4.6414628,4.6414628 0 0 0 4.63631,-4.63628 v -44.42572 a 4.6414505,4.6414505 0 0 0 -4.63631,-4.6363 h -37.64677 a 4.6414505,4.6414505 0 0 0 -4.63631,4.6363 v 44.42572 a 4.6414628,4.6414628 0 0 0 4.63631,4.63628 z"
     id="path66" />
  <g
     id="g547"
     transform="matrix(-1.0304915,0,0,1.0304915,94.831332,802.51724)">
    <path
       style="fill:#3f3d56;stroke-width:0.32412288"
       inkscape:connector-curvature="0"
       id="path32-0"
       d="m -473.07889,-599.14232 h 18.88556 v 0 a 7.4548265,7.4548265 0 0 1 -7.45483,7.45482 h -3.97591 a 7.4548265,7.4548265 0 0 1 -7.45482,-7.45482 z" />
    <path
       style="fill:#4400aa;stroke-width:0.32412288"
       inkscape:connector-curvature="0"
       id="path34-2"
       d="m -449.78064,-615.83302 v -6.92771 c 0,-8.371 9.10417,-16.2888 15.01005,-21.93778 8.3248,-7.95821 12.70081,-18.64999 12.70081,-31.17473 a 41.566627,41.566627 0 0 0 -83.1326,-0.23124 q -3.3e-4,0.11563 0,0.23124 c 0,12.07732 4.56362,23.49363 12.70081,31.17473 5.87413,5.54506 15.01005,13.48019 15.01005,21.93778 v 6.92771" />
    <path
       style="fill:#3f3d56;stroke-width:0.32412288"
       inkscape:connector-curvature="0"
       id="path36-3"
       d="m -449.78057,-614.8607 a 0.97231678,0.97231678 0 0 1 -0.97237,-0.97237 v -6.9278 c 0,-8.14359 8.03154,-15.74592 13.89598,-21.29682 0.48666,-0.46087 0.95986,-0.90875 1.41424,-1.34334 8.11256,-7.75552 12.40055,-18.29252 12.40055,-30.47214 0,-22.76299 -17.83088,-40.59402 -40.59386,-40.59402 -0.0381,-1.5e-4 -0.0764,-1.5e-4 -0.11459,-1.5e-4 a 40.525237,40.525237 0 0 0 -40.47943,40.36561 v 0.22648 c 0,11.92829 4.51809,23.03329 12.39596,30.46976 0.39914,0.37699 0.81363,0.76505 1.2392,1.16324 5.94025,5.56168 14.07577,13.17825 14.07577,21.48137 v 6.9278 a 0.972375,0.972375 0 1 1 -1.94475,0 v -6.9278 c 0,-7.45957 -7.77974,-14.74316 -13.46011,-20.06175 -0.42763,-0.40009 -0.84402,-0.79005 -1.24506,-1.16861 -8.26529,-7.80238 -13.00575,-19.42285 -13.00575,-31.88195 v -0.23329 c 0.0652,-23.3514 19.08589,-42.30563 42.42132,-42.30563 0.0414,0 0.0788,0 0.12012,1.6e-4 a 42.316583,42.316583 0 0 1 42.5359,42.53876 c 0,12.7234 -4.49578,23.74659 -13.00115,31.87783 -0.45659,0.43649 -0.93233,0.88691 -1.42153,1.34997 -5.60789,5.30816 -13.28808,12.5778 -13.28808,19.8845 v 6.9278 a 0.97231678,0.97231678 0 0 1 -0.97236,0.97239 z" />
    <path
       style="fill:#4400aa;stroke-width:0.32412288"
       inkscape:connector-curvature="0"
       id="path38-7"
       d="m -454.39916,-602.38355 h -18.4739 a 1.6206153,1.6206153 0 0 1 0,-3.24123 h 18.4739 a 1.6206153,1.6206153 0 1 1 0,3.24123 z" />
    <path
       style="fill:#e6e6e6;stroke-width:0.32412288"
       inkscape:connector-curvature="0"
       id="path40-5"
       d="m -506.61523,-714.07443 a 1.6140639,1.6140639 0 0 1 -1.06511,-0.39977 l -13.91752,-12.1486 a 1.6205755,1.6205755 0 1 1 2.13149,-2.44168 l 13.91751,12.14859 a 1.6206145,1.6206145 0 0 1 -1.06636,2.84146 z" />
    <path
       style="fill:#e6e6e6;stroke-width:0.32412288"
       inkscape:connector-curvature="0"
       id="path42-9"
       d="m -422.96605,-714.07443 a 1.6206145,1.6206145 0 0 1 -1.06637,-2.84146 l 13.91735,-12.14859 a 1.6205757,1.6205757 0 0 1 2.13149,2.44168 l -13.91737,12.1486 a 1.6140542,1.6140542 0 0 1 -1.0651,0.39977 z" />
    <path
       style="fill:#4400aa;stroke-width:0.32412288"
       inkscape:connector-curvature="0"
       id="path44-2"
       d="m -449.78057,-608.13578 h -27.71092 a 1.6206153,1.6206153 0 0 1 0,-3.24123 h 27.71092 a 1.6206153,1.6206153 0 1 1 0,3.24123 z" />
    <path
       style="fill:#ffffff;stroke-width:0.32412288"
       inkscape:connector-curvature="0"
       id="path46-2"
       d="m -463.63603,-614.21246 a 1.620595,1.620595 0 0 1 -1.62062,-1.62061 v -36.94779 a 1.6206153,1.6206153 0 0 1 3.24123,0 v 36.94779 a 1.620595,1.620595 0 0 1 -1.62061,1.62061 z" />
    <path
       style="fill:#ffffff;stroke-width:0.32412288"
       inkscape:connector-curvature="0"
       id="path48-8"
       d="m -463.63603,-651.16025 c -5.23629,0 -11.6651,-4.73713 -11.93621,-4.93875 a 1.6206314,1.6206314 0 1 1 1.93461,-2.60059 c 1.61064,1.19504 6.54893,4.29811 10.0016,4.29811 3.45266,0 8.39095,-3.10307 10.00238,-4.29874 a 1.6206484,1.6206484 0 0 1 1.93382,2.60122 c -0.2711,0.20162 -6.69991,4.93875 -11.9362,4.93875 z" />
    <path
       style="fill:#e6e6e6;stroke-width:0.32412288"
       inkscape:connector-curvature="0"
       id="path50-9"
       d="m -463.63619,-730.25162 a 1.6206955,1.6206955 0 0 1 -1.62062,-1.6206 v -27.71093 a 1.6206153,1.6206153 0 0 1 3.24123,0 v 27.71093 a 1.6206955,1.6206955 0 0 1 -1.62061,1.6206 z" />
  </g>
  <g
     id="g120"
     transform="matrix(0.88537118,0,0,0.88537118,100.4937,25.525938)">
    <circle
       r="76.500916"
       transform="scale(-1,1)"
       id="circle116"
       cy="604.15051"
       cx="-880.15332"
       style="fill:#2f2e41;stroke-width:1.8209157" />
    <rect
       id="rect118"
       transform="matrix(-0.8941465,-0.44777454,-0.44777454,0.8941465,0,0)"
       height="23.240856"
       width="41.639893"
       y="178.00383"
       x="-1147.6664"
       style="fill:#2f2e41;stroke-width:1.8209157" />
    <ellipse
       id="ellipse120-5"
       transform="matrix(-0.55046296,-0.83485958,-0.83485958,0.55046296,0,0)"
       ry="19.367353"
       rx="7.2627764"
       cy="-415.98477"
       cx="-1090.0663"
       style="fill:#2f2e41;stroke-width:1.8209157" />
    <rect
       id="rect122"
       transform="matrix(-0.44777454,-0.8941465,-0.8941465,0.44777454,0,0)"
       height="41.639893"
       width="23.240856"
       y="-467.94559"
       x="-989.46545"
       style="fill:#2f2e41;stroke-width:1.8209157" />
    <ellipse
       id="ellipse124"
       transform="matrix(-0.83485958,-0.55046296,-0.55046296,0.83485958,0,0)"
       ry="7.2627764"
       rx="19.367353"
       cy="121.08257"
       cx="-1053.624"
       style="fill:#2f2e41;stroke-width:1.8209157" />
    <circle
       r="26.145872"
       transform="scale(-1,1)"
       id="circle126"
       cy="585.43787"
       cx="-885.50916"
       style="fill:#ffffff;stroke-width:1.8209157" />
    <path
       id="path128"
       d="m 900.81833,586.07005 c -9.32855,-7.10521 -19.87364,3.43999 -12.76847,12.76846 9.32847,7.10518 19.87365,-3.43999 12.76847,-12.76846 z"
       style="fill:#3f3d56;stroke-width:1.8209157"
       inkscape:connector-curvature="0" />
    <path
       id="path130-3"
       d="m 819.80483,520.92566 c -1.15042,-28.32177 23.2588,-52.31054 54.51966,-53.58032 31.26087,-1.26979 57.53535,20.66012 58.68583,48.9819 1.15044,28.3218 -20.57985,34.75666 -51.8407,36.02656 -31.26088,1.26988 -60.21428,-3.10635 -61.36479,-31.42814 z"
       style="fill:#cccccc;stroke-width:1.8209157"
       inkscape:connector-curvature="0" />
    <ellipse
       id="ellipse132"
       transform="matrix(-0.75875814,-0.65137247,-0.65137247,0.75875814,0,0)"
       ry="38.25045"
       rx="12.007993"
       cy="-54.726292"
       cx="-1008.1948"
       style="fill:#2f2e41;stroke-width:1.82091582" />
    <ellipse
       id="ellipse134"
       transform="matrix(-0.65137247,-0.75875814,-0.75875814,0.65137247,0,0)"
       ry="12.007993"
       rx="38.25045"
       cy="-327.29019"
       cx="-1091.7496"
       style="fill:#2f2e41;stroke-width:1.82091582" />
    <path
       id="path136"
       d="m 859.14235,634.29856 a 17.430615,17.430615 0 1 0 34.29754,6.24361 l 0.005,-0.0336 c 1.71489,-9.47269 -5.60912,-12.8247 -15.08181,-14.53955 -9.47267,-1.71482 -17.50708,-1.14306 -19.22186,8.32963 z"
       style="fill:#ffffff;stroke-width:1.8209157"
       inkscape:connector-curvature="0" />
    <ellipse
       id="ellipse176"
       transform="matrix(-0.3570287,-0.93409342,-0.93409342,0.3570287,0,0)"
       ry="12.309517"
       rx="39.211037"
       cy="-640.20728"
       cx="-590.34564"
       style="fill:#2f2e41;stroke-width:1.82091582" />
    <circle
       r="78.42202"
       id="circle178"
       transform="matrix(-0.16018234,-0.98708744,-0.98708744,0.16018234,0,0)"
       cy="-808.68665"
       cx="-518.3158"
       style="fill:#2f2e41;stroke-width:1.8209157" />
    <rect
       transform="scale(-1,1)"
       id="rect180"
       height="42.685379"
       width="23.824389"
       y="443.63187"
       x="-917.00592"
       style="fill:#2f2e41;stroke-width:1.8209157" />
    <rect
       transform="scale(-1,1)"
       id="rect182"
       height="42.685379"
       width="23.824389"
       y="443.63187"
       x="-869.35706"
       style="fill:#2f2e41;stroke-width:1.8209157" />
    <ellipse
       transform="scale(-1,1)"
       id="ellipse184"
       ry="7.4451413"
       rx="19.853699"
       cy="486.8136"
       cx="-897.1521"
       style="fill:#2f2e41;stroke-width:1.8209157" />
    <ellipse
       transform="scale(-1,1)"
       id="ellipse186"
       ry="7.4451413"
       rx="19.853699"
       cy="485.82086"
       cx="-849.50336"
       style="fill:#2f2e41;stroke-width:1.8209157" />
    <circle
       r="26.80246"
       id="circle188"
       transform="matrix(-0.9995685,-0.02937368,-0.02937368,0.9995685,0,0)"
       cy="336.24765"
       cx="-889.54462"
       style="fill:#ffffff;stroke-width:1.8209157" />
    <circle
       r="8.9341955"
       transform="scale(-1,1)"
       id="circle190"
       cy="362.23181"
       cx="-879.28381"
       style="fill:#3f3d56;stroke-width:1.8209157" />
    <path
       id="path192"
       d="m 957.34124,309.15531 c 6.33219,-28.35856 -13.90938,-57.01365 -45.21081,-64.00302 -31.30142,-6.98934 -61.8096,10.33389 -68.14181,38.69235 -6.33219,28.35845 14.41241,38.8176 45.71386,45.80694 31.30144,6.98935 61.30657,7.8623 67.63876,-20.49627 z"
       style="fill:#4400aa;stroke-width:1.8209157"
       inkscape:connector-curvature="0" />
    <ellipse
       id="ellipse194"
       transform="matrix(-0.42852927,-0.9035279,-0.9035279,0.42852927,0,0)"
       ry="39.211037"
       rx="12.309517"
       cy="-727.91779"
       cx="-727.84857"
       style="fill:#2f2e41;stroke-width:1.8209157" />
    <path
       id="path196"
       d="m 919.78995,410.37699 c 0,7.67541 -19.76288,22.83168 -41.69272,22.83168 -21.9298,0 -42.4913,-21.60883 -42.4913,-29.28414 0,-7.67534 20.56164,1.48905 42.4913,1.48905 21.9297,0 41.69272,-2.71203 41.69272,4.96341 z"
       style="fill:#ffffff;stroke-width:1.8209157"
       inkscape:connector-curvature="0" />
    <path
       id="path198"
       d="m 729.93034,365.2768 57.72576,11.26806 a 6.2641141,6.2641141 0 0 0 5.31708,-1.40619 6.3695632,6.3695632 0 0 0 2.2155,-5.13522 150.94276,150.94276 0 0 1 13.43101,-68.80481 6.3711475,6.3711475 0 0 0 -0.12194,-5.59148 6.2640777,6.2640777 0 0 0 -4.39801,-3.30261 l -57.72572,-11.26808 a 6.3466562,6.3466562 0 0 0 -7.15328,4.02279 247.0846,247.0846 0 0 0 -14.40583,73.7999 6.346638,6.346638 0 0 0 5.11549,6.41764 z"
       style="fill:#ff6584;stroke-width:1.8209157"
       inkscape:connector-curvature="0" />
    <path
       id="path200"
       d="m 983.0376,418.08335 57.7258,11.2681 a 6.2641141,6.2641141 0 0 0 5.3172,-1.40621 6.3695632,6.3695632 0 0 0 2.2154,-5.13524 150.94276,150.94276 0 0 1 13.431,-68.80482 6.3711475,6.3711475 0 0 0 -0.122,-5.59146 6.2640777,6.2640777 0 0 0 -4.3981,-3.30261 l -57.72568,-11.26807 a 6.3466562,6.3466562 0 0 0 -7.15329,4.02277 247.0846,247.0846 0 0 0 -14.40569,73.7999 6.346638,6.346638 0 0 0 5.11538,6.41764 z"
       style="fill:#cccccc;stroke-width:1.8209157"
       inkscape:connector-curvature="0" />
    <path
       id="path204"
       d="m 906.32081,683.79801 57.72575,11.26808 a 6.2641141,6.2641141 0 0 0 5.31718,-1.40621 6.3695632,6.3695632 0 0 0 2.21541,-5.13521 150.94276,150.94276 0 0 1 13.43105,-68.80482 6.371093,6.371093 0 0 0 -0.12193,-5.59147 6.2640777,6.2640777 0 0 0 -4.39802,-3.30261 L 922.76451,599.5577 a 6.3466562,6.3466562 0 0 0 -7.15326,4.02278 247.0846,247.0846 0 0 0 -14.40575,73.79989 6.346638,6.346638 0 0 0 5.11538,6.41764 z"
       style="fill:#4400aa;stroke-width:1.8209157"
       inkscape:connector-curvature="0" />
    <path
       sodipodi:nodetypes="scscscscsccscccsccccccc"
       inkscape:export-ydpi="12.45"
       inkscape:export-xdpi="12.45"
       d="m 764.73148,305.99361 c -3.50747,-0.78238 -6.44746,-0.30577 -8.81999,1.42986 -2.33816,1.74328 -3.96558,4.66968 -4.88227,8.7792 -0.91669,4.10952 -0.68721,7.45013 0.68843,10.02182 1.41001,2.57937 3.86876,4.26026 7.37622,5.04265 3.57624,0.79772 6.53344,0.32495 8.87159,-1.41834 2.37255,-1.73562 4.01717,-4.65818 4.93386,-8.7677 0.91669,-4.10952 0.67001,-7.45397 -0.74002,-10.03333 -1.37564,-2.57171 -3.85158,-4.25643 -7.42782,-5.05416 z m 4.75605,30.3826 c -2.87112,2.02886 -5.81395,3.3272 -8.82845,3.89503 -3.01451,0.56786 -6.34425,0.44524 -9.98926,-0.36782 -6.39597,-1.42672 -11.18738,-4.70643 -14.37421,-9.83915 -3.14673,-5.15074 -3.97816,-11.05224 -2.49427,-17.70451 1.48389,-6.65229 4.73879,-11.61531 9.76473,-14.8891 5.06604,-3.29179 10.79704,-4.22433 17.19302,-2.79762 3.645,0.81307 6.7112,2.11716 9.1986,3.91229 2.48742,1.79512 4.59949,4.22103 6.33622,7.27772 l 1.4266,-6.39544 16.71205,3.72786 c -7.78427,17.61708 -13.35973,36.7067 -13.28621,59.56232 l -16.71204,-3.72786 z"
       style="color:#000000;font-style:normal;font-variant:normal;font-weight:bold;font-stretch:semi-condensed;font-size:93.32275391px;line-height:125%;font-family:'DejaVu Sans';-inkscape-font-specification:'DejaVu Sans Bold Semi-Condensed';text-align:start;letter-spacing:-11.38939762px;writing-mode:lr-tb;text-anchor:start;display:inline;overflow:visible;visibility:visible;fill:#ffffff;fill-opacity:1;fill-rule:nonzero;stroke:none;stroke-width:4.28141785;marker:none;enable-background:accumulate"
       id="path1383"
       inkscape:connector-curvature="0" />
    <path
       sodipodi:nodetypes="scscccscsccccsccccccccc"
       inkscape:export-ydpi="12.45"
       inkscape:export-xdpi="12.45"
       d="m 939.97964,629.99167 c -2.98295,-0.72511 -5.44347,-0.3801 -7.38156,1.03503 -1.90882,1.42225 -3.1771,3.85346 -3.80483,7.29364 -0.62775,3.44025 -0.31678,6.25539 0.93291,8.44542 1.27894,2.19715 3.40989,3.65827 6.39284,4.38338 3.04147,0.73934 5.51662,0.39789 7.42544,-1.02436 1.93808,-1.41513 3.22099,-3.84282 3.84874,-7.28307 0.62773,-3.44018 0.30213,-6.25884 -0.97681,-8.45599 -1.24969,-2.19003 -3.39527,-3.65472 -6.43673,-4.39405 z m 3.19641,24.79929 c -2.34786,1.65241 -2.9011,3.54364 -5.42119,3.96393 -2.5201,0.42035 -5.33011,0.25376 -8.43004,-0.49978 -5.43961,-1.32229 -9.59237,-4.17311 -12.4583,-8.55245 -2.83281,-4.39373 -3.74113,-9.37504 -2.72497,-14.94393 1.01615,-5.56883 3.58408,-9.68265 7.70377,-12.34145 4.15279,-2.67312 8.94899,-3.34853 14.3886,-2.02624 3.09993,0.75354 5.72946,1.90922 7.8886,3.46703 2.15916,1.55775 2.82742,2.78423 4.39844,5.38919 l 2.17375,-4.49898 14.21309,3.455 c -6.9376,13.93608 -9.4479,30.91593 -9.09835,49.86192 l -14.2131,-3.45499 z"
       style="color:#000000;font-style:normal;font-variant:normal;font-weight:bold;font-stretch:semi-condensed;font-size:93.32275391px;line-height:125%;font-family:'DejaVu Sans';-inkscape-font-specification:'DejaVu Sans Bold Semi-Condensed';text-align:start;letter-spacing:-11.38939762px;writing-mode:lr-tb;text-anchor:start;display:inline;overflow:visible;visibility:visible;fill:#ffffff;fill-opacity:1;fill-rule:nonzero;stroke:none;stroke-width:3.60325885;marker:none;enable-background:accumulate"
       id="path1383-7"
       inkscape:connector-curvature="0" />
    <path
       sodipodi:nodetypes="scscccscsccccsccccccccc"
       inkscape:export-ydpi="12.45"
       inkscape:export-xdpi="12.45"
       d="m 1018.1357,363.60319 c -2.9829,-0.72511 -5.4435,-0.3801 -7.3815,1.03503 -1.9089,1.42225 -3.1771,3.85346 -3.8049,7.29364 -0.6277,3.44025 -0.3168,6.25539 0.9329,8.44542 1.279,2.19715 3.4099,3.65827 6.3929,4.38338 3.0414,0.73934 5.5166,0.39789 7.4254,-1.02436 1.9381,-1.41513 3.221,-3.84282 3.8488,-7.28307 0.6277,-3.44018 0.3021,-6.25884 -0.9769,-8.45599 -1.2496,-2.19003 -3.3952,-3.65472 -6.4367,-4.39405 z m 3.1964,24.79929 c -2.3478,1.65241 -2.9011,3.54364 -5.4212,3.96393 -2.5201,0.42035 -5.3301,0.25376 -8.43,-0.49978 -5.4396,-1.32229 -9.59238,-4.17311 -12.45831,-8.55245 -2.83281,-4.39373 -3.74113,-9.37504 -2.72497,-14.94393 1.01615,-5.56883 3.58408,-9.68265 7.70378,-12.34145 4.1528,-2.67312 8.949,-3.34853 14.3886,-2.02624 3.0999,0.75354 5.7295,1.90922 7.8886,3.46703 2.1592,1.55775 2.8274,2.78423 4.3984,5.38919 l 2.1738,-4.49898 14.2131,3.455 c -6.9376,13.93608 -9.4479,30.91593 -9.0984,49.86192 l -14.2131,-3.45499 z"
       style="color:#000000;font-style:normal;font-variant:normal;font-weight:bold;font-stretch:semi-condensed;font-size:93.32275391px;line-height:125%;font-family:'DejaVu Sans';-inkscape-font-specification:'DejaVu Sans Bold Semi-Condensed';text-align:start;letter-spacing:-11.38939762px;writing-mode:lr-tb;text-anchor:start;display:inline;overflow:visible;visibility:visible;fill:#ffffff;fill-opacity:1;fill-rule:nonzero;stroke:none;stroke-width:3.60325885;marker:none;enable-background:accumulate"
       id="path1383-7-9"
       inkscape:connector-curvature="0" />
  </g>
</svg>
