<svg version="1.1" id="Layer_1" xmlns="http://www.w3.org/2000/svg" x="0" y="0" viewBox="0 0 800 625" style="enable-background:new 0 0 800 625" xml:space="preserve"><style>.st1,.st8{fill-rule:evenodd;clip-rule:evenodd;fill:#fff}.st8{fill:#21201f}.st9{fill:#5c5852}.st10,.st11,.st12,.st13{fill-rule:evenodd;clip-rule:evenodd}.st11,.st12,.st13{fill:#7703fc}.st12,.st13{fill:#4a1799}.st13{fill:#350777}.st14{fill:#a39c8c}.st16{fill:#fff}.st17{fill:#331709}.st23{fill:#21201f}.st25,.st26,.st28,.st29,.st30{fill-rule:evenodd;clip-rule:evenodd;fill:#ffd28f}.st26,.st28,.st29,.st30{fill:#f5853f}.st28,.st29,.st30{fill:#fa9e4d}.st29,.st30{fill:#f57139}.st30{fill:#ddd9e0}.st31,.st33,.st35,.st37,.st43,.st46{fill-rule:evenodd;clip-rule:evenodd;fill:#c1bbc9}.st33,.st35,.st37,.st43,.st46{fill:#fcb160}.st35,.st37,.st43,.st46{fill:#201324}.st37,.st43,.st46{fill:#731106}.st43,.st46{fill:#f3f0f5}.st46{fill:#5223ad}</style><path d="M599.9 208.4c2.5.5 4.9 1 7.3 1.5h.3c80.1 18.4 139.3 90.8 137.8 176.3-.7 38.3-13.4 73.5-34.5 102.2-5-1.4-10.3-2.2-15.8-2.2h-3.2c-3.3 0-6.6.3-9.8.8-8.3.3-16.2 2.3-23.3 5.6-2.4.6-4.7 1.3-7 2.2-1 .3-2.1.6-3.1 1-5 .3-9.8 1.2-14.4 2.7-1.3.1-2.6.3-3.9.6l-3.9.6H625c-5 0-9.8.6-14.4 1.8-1.7.1-3.5.4-5.2.7-3.2.2-6.4.6-9.5 1.3l-1.7.3c-4.6.2-9 1-13.3 2.2-1.6.3-3.2.6-4.8 1-1.8.1-3.6.2-5.4.5l-5.6.8c-2.2.3-4.4.8-6.5 1.3-1.2.1-2.4.3-3.6.5-3.9.1-7.8.5-11.5 1.3l-3 .6c-4.8 1-9.4 2.5-13.7 4.5l9.8-4.9H414.9c-6 0-11.8.9-17.3 2.6l5.4-1.8H233.3c-1.4-.2-2.7-.4-4.1-.5-3.1-.6-6.3-.9-9.4-1-2.1-.5-4.1-.9-6.2-1.1-.9-.2-1.8-.5-2.7-.7-1.7-.6-3.4-1.2-5.2-1.7l-7.2-2-5.6-1.9c-2.6-.9-5.3-1.6-8.1-2.1-.7-.3-1.4-.5-2.1-.8-9.7-7.1-21.6-11.3-34.5-11.3-7 0-13.7 1.2-19.9 3.5-46.6-47.6-74.9-113-73.6-184.9C57.2 165.6 174.7 52.2 317 54.7c83.3 1.4 156.6 42.2 202.7 104.3l.1.1c1.7 2.3 3.3 4.6 4.9 6.9 16.3 20.7 41.4 34.8 75.2 42.4" style="fill-rule:evenodd;clip-rule:evenodd;fill:#f6f2ff"/><path class="st1" d="M379 213.8c18.2 3.4 27.2 5.2 27.2 5.2H255.3c21.9-2.3 32.8-3.4 32.8-3.4.9-6.2 5.2-11.4 11.1-13.5 5.9-2.1 12.5-.8 17.2 3.4-.4-8.4 4.1-16.2 11.5-20.1 7.4-3.9 16.4-3 23 2.1 6.6 5.2 9.6 13.7 7.6 21.9 2.9-3.2 7.3-4.5 11.5-3.6 4.3.8 7.7 3.9 9 8M312 145.6c23.4 4.4 35 6.6 35 6.6H152.9c28.1-2.9 42.2-4.4 42.2-4.4 1.2-8 6.6-14.7 14.3-17.4 7.6-2.7 16.1-1 22.1 4.4-.5-10.8 5.3-20.9 14.8-25.8 9.6-5 21.2-3.9 29.6 2.8 8.5 6.6 12.3 17.6 9.8 28.1 3.7-4.1 9.4-5.8 14.7-4.6 5.5 1.1 9.9 5.1 11.6 10.3"/><path d="M743.2 356.2C633.6 471.9 550.5 516.1 493.7 488.9c-8-9.2-8.7-22.6-1.7-32.5 7-9.9 19.8-13.8 31.2-9.5-3.3-8.4 0-17.9 7.8-22.5 7.7-4.6 17.7-2.9 23.5 3.9-1.9-6.9.9-14.3 6.9-18.2 6-3.9 13.9-3.4 19.4 1.2-1.4-9.3 3.6-18.4 12.1-22.2 8.6-3.8 18.7-1.4 24.6 5.9-4.8-8.6-2.9-19.3 4.4-25.8 7.3-6.5 18.2-7 26.1-1.2-1.7-5.4.2-11.4 4.9-14.6 4.6-3.3 10.9-3.2 15.4.3-4.6-9.8-1.3-21.5 7.8-27.3 9.1-5.9 21.1-4.1 28.1 4.1-.6-6.6 2.3-13 7.7-16.8 5.4-3.8 12.4-4.4 18.4-1.6 6.3 14 10.6 28.9 12.9 44.1M61.6 371.7C255.4 487.5 371.2 524.2 409 481.9c3.9-8 2.4-17.5-3.7-24s-15.6-8.4-23.8-5c1.1-8.1-2.9-16.1-10.1-20.1-7.1-4-16-3.3-22.4 1.8-.9-8.8-6-16.6-13.6-21.1s-16.9-5.2-25-1.8c-1.2-11.4-9.4-20.9-20.6-23.8-11.1-2.9-22.9 1.4-29.5 10.8-2.6-7.7-8.6-13.7-16.3-16.4-7.6-2.7-16.1-1.8-23 2.5 0-5-2.7-9.6-6.9-12.2-4.3-2.6-9.6-2.8-14-.5-.2-9.2-5.9-17.4-14.4-20.9s-18.3-1.6-24.9 4.7c.3-7.1-3.9-13.5-10.4-16.3-6.5-2.7-14-1.1-18.9 4.1.2-5.4-2.7-10.4-7.4-12.9-4.8-2.5-10.5-2.1-14.8 1.1.7-6.5-2.4-12.9-7.9-16.5-5.5-3.6-12.6-3.8-18.3-.5-.3-6.7-3.8-12.8-9.3-16.5-5.5-3.7-12.5-4.6-18.8-2.3-1.4 25.5.8 50.9 6.6 75.6z" style="fill-rule:evenodd;clip-rule:evenodd;fill:#ede5ff"/><path d="M566 490.3c-27.6-2.2-41.4-3.2-41.4-3.2-4-8.5-2.2-18.7 4.5-25.4 6.7-6.6 16.9-8.3 25.4-4.2-.8-6.7 2.5-13.2 8.4-16.6 5.9-3.3 13.2-2.8 18.5 1.4-2.5-10.1 3.4-20.3 13.4-23.1 10-2.8 20.4 2.9 23.5 12.8.7-6.7 4.5-12.7 10.3-16.2 5.8-3.5 12.9-4.1 19.2-1.5-3.7-10.3.1-21.9 9.2-28 9.1-6.1 21.2-5.3 29.4 2.1-1.4-7.3 1.2-14.8 6.7-19.8 5.6-4.9 13.3-6.6 20.4-4.3.8-6.4 4.7-12 10.4-14.9 5.7-2.9 12.5-2.9 18.2.2 3.3 17.2 4 34.8 2.2 52.2-64.2 56.5-123.6 86-178.3 88.5M79.6 423.2c143.9 94.4 238 113.9 282.5 58.7 1.8-8.5-1.7-17.3-8.9-22.3-7.1-5-16.6-5.3-24-.7-.3-6.2-4.1-11.8-9.8-14.3-5.7-2.5-12.4-1.5-17.1 2.5 0-10.9-7.4-20.3-18-23-10.5-2.7-21.5 2.1-26.8 11.6-.8-6.9-5.7-12.6-12.3-14.5-6.6-1.9-13.8.3-18.2 5.6-1.3-7.5-6.7-13.7-14-16.1-7.3-2.3-15.3-.5-20.7 4.9-.9-8.9-7.6-16.1-16.5-17.5-8.8-1.4-17.5 3.3-21.1 11.5 0-6.7-4.1-12.8-10.3-15.4-6.2-2.5-13.4-1-18.1 3.8 2.5-7.8-.1-16.3-6.6-21.2-6.5-4.9-15.4-5.1-22.2-.6-2.3-7.5-8.2-13.3-15.8-15.4-7.6-2.1-15.6-.1-21.4 5.2 4.3 20 10.7 39.1 19.3 57.2z" style="fill-rule:evenodd;clip-rule:evenodd;fill:#e4dafa"/><path d="m711.9 486.8-133.3-1.2c-.9-9.5 4.2-18.5 12.9-22.6 8.6-4 18.9-2.2 25.6 4.6.7-7.5 5.7-13.9 12.9-16.3 7.2-2.4 15-.3 20.1 5.4-1.2-10.5 4.3-20.5 13.7-25.3 9.4-4.7 20.7-3.2 28.5 3.9-.4-6.1 2.2-12 6.9-16 4.7-3.9 11-5.3 17-3.8-.1-7 3.4-13.5 9.2-17.3 5.8-3.8 13.2-4.4 19.6-1.5-2.7 32.5-14 63.7-33.1 90.1m-587 2.5c115.3-1.7 172.9-2.6 172.9-2.6 4.7-11.8-.3-25.3-11.5-31.2-11.2-6-25.1-2.6-32.4 7.9-1.1-6.7-5.6-12.2-11.9-14.6-6.3-2.4-13.4-1.3-18.6 2.9a28.05 28.05 0 0 0-23.7-21.3c-11.5-1.5-22.8 4.2-28.3 14.5-2.4-6.8-8.1-11.8-15.1-13.2-7-1.4-14.2 1-19 6.3-.3-7.5-4.9-14-11.8-16.9-6.9-2.9-14.8-1.5-20.3 3.6-.8-6.4-5.4-11.6-11.6-13.3-6.2-1.7-12.8.6-16.7 5.7 11.8 26.6 28 51 48 72.2z" style="fill-rule:evenodd;clip-rule:evenodd;fill:#d8ceed"/><path d="M715.4 481.9c-10.1 15-22.4 28.5-36.4 39.8-4.6 1.1-9.1 2.8-13.3 5-4.7 2.3-9 5.1-12.9 8.5-.4.1-.9.3-1.3.4-.6.1-1.2.3-1.8.5-4.2.4-8.2 1.3-12.1 2.5-1.2.2-2.5.3-3.7.5-2.6.1-5.2.4-7.7.9-1.4.1-2.8.2-4.3.4l-3 .4h-285c-3.2-.5-6.5-.8-9.8-.8h-11c-3.8-.9-7.3-1.8-11.3-2.2-4.7-.5-9.4-.9-14.1-1.3l-2.9-1c-4.9-1.6-9.9-2.6-15.1-2.9l-11.6-.7-8.5-1.2-14.2-2.4-2.4-.3-13.2-1.7c-.9-.1-1.8-.2-2.8-.3l-10.2-.8-11.1-1.1c-5-1.2-10-1.7-14.9-1.6h-2.1c-4.6 0-9.2.5-13.5 1.6-1.5-1-2.9-2.1-4.3-3.1-15.6-11.4-30-24.5-42.6-39.1h597.1z" style="fill-rule:evenodd;clip-rule:evenodd;fill:#beb2d9"/><path d="M688.2 513.7c-16.9 15.6-36.7 27.9-58.2 36h-4.1c-3.6-.1-7.3.2-10.9.8-2.2.1-4.5.4-6.7.7-3.8.1-7.6.6-11.4 1.5-3.1 0-6.2.3-9.4.8H580c-5.3 0-10.4.7-15.3 2-.7.1-1.3.2-2 .3h-29.3l5.7 2.8-1.4-.2c-3.9-1.4-8-2.4-12.3-2.9-.8-.2-1.6-.3-2.4-.5-3.4-.8-7-1.3-10.6-1.5-2.6-.6-5.4-1.1-8.1-1.4-3.6-.7-7.3-1-11-1h-5.1c-3.9-.3-7.8-.5-11.7-.7-1-.2-1.9-.3-2.9-.4-3.9-.8-7.9-1.2-12-1.2h-20.9c-4.5 0-9.1.5-13.5 1.6-.8.1-1.6.3-2.3.4-.8.1-1.7.2-2.5.4-3.3.1-6.6.5-9.8 1.2-2.1.3-4.1.6-6.2 1.1-.8.1-1.5.3-2.3.4-.8.1-1.6.2-2.3.3-4.2.1-8.4.6-12.5 1.6-2.5.1-5.1.3-7.6.7h-.4c-4.8-.1-9.6.4-14.4 1.6-3.1 0-6.2.3-9.2.8h-1.2c-3.5-.1-7 .2-10.5.8h-9.8c-4.6 0-9.2.5-13.6 1.6-2.4.1-4.8.4-7.2.8-3.8.2-7.5.7-11.3 1.7-2.9.2-5.7.7-8.5 1.4-2.8.1-5.6.3-8.4.8H285l.3.3c-2.3.4-4.5 1-6.7 1.7-3.1-1.1-6.2-2-9.5-2.6-1.7-.7-3.5-1.3-5.3-1.8-1.1-.4-2.3-.8-3.4-1.2-1.2-.4-2.3-.8-3.5-1.1-3.1-1.2-6.3-2.1-9.7-2.8-1.3-.4-2.6-.8-3.9-1.1-4.2-1.4-8.6-2.4-13.2-2.8-1.1-.2-2.1-.4-3.2-.5-5.2-2.3-10.6-3.9-16.1-4.6-17.7-7.6-34.4-17.2-49.8-28.4-3.2-2.4-6.4-4.8-9.6-7.3h536.8z" style="fill-rule:evenodd;clip-rule:evenodd;fill:#9d8ec2"/><path d="M645.2 543.1c-5.8 2.8-11.8 5.3-17.9 7.5l-.3.1-.3.1-.7.3-.3.1-.9.3h-.1c-.4.1-.7.2-1.1.4-.3.1-.7.2-1 .3l-.2.1-.8.3-.3.1-.8.2-.3.1c-.3.1-.6.2-1 .3-1.1.3-2.2.6-3.3 1l-.2.1c-.3.1-.7.2-1 .3-15.9 4.4-32.8 6.6-50.1 6.3-10.6-.2-21-1.3-31.1-3.3H528.2l-.4-.1h-.7c-.7-.1-1.3-.2-2-.4h-.1c-.6-.1-1.3-.2-1.9-.3h-.1c-.6-.1-1.2-.2-1.9-.3h-.2c-.6-.1-1.3-.2-1.9-.3h-.1c-.6-.1-1.3-.2-1.9-.3h-.2c-.6-.1-1.2-.2-1.9-.3h-.3l-1.8-.3h-.2l-1.8-.3h-.2c-.6-.1-1.2-.2-1.8-.2l-.4-.1c-.6-.1-1.1-.2-1.7-.2h-.4c-.5-.1-1.1-.1-1.6-.2l-.5-.1c-.5-.1-1-.1-1.6-.2l-.5-.1c-.5-.1-1.1-.1-1.6-.2l-.5-.1c-.5-.1-1-.1-1.5-.2l-.5-.1c-.5-.1-1-.1-1.6-.2h-.4c-.6-.1-1.1-.1-1.7-.2h-.5c-.5 0-1-.1-1.6-.1h-.5c-.5 0-.9-.1-1.4-.1l-.7-.1c-.4 0-.9-.1-1.3-.1h-.7c-.5 0-.9-.1-1.4-.1h-.7c-.5 0-.9-.1-1.4-.1h-.5c-.5 0-1-.1-1.5-.1h-.7c-.4 0-.9 0-1.3-.1h-.6c-27.7-1.3-55 .8-81.9 6.5-5.3 1.1-10.7 2.4-16 3.8-23.4 6.5-48.1 9.8-73.6 9.3-33.5-.6-65.4-7.5-94.6-19.7-5.6-2.3-11-4.8-16.4-7.5h448.2z" style="fill-rule:evenodd;clip-rule:evenodd;fill:#6a5994"/><path transform="rotate(-88.391 626.944 314.244)" class="st8" d="M616.4 307.7h21.2v13.1h-21.2z"/><path class="st9" d="m528.9 259.2-57.7 157.9-12.1-4.4 57.6-157.9z"/><path class="st10" d="M458.8 379.1c-44.6 18-66.8 27-66.8 27-.8-7.3 2.1-14.5 7.8-19.2 13.8-12.3 20.7-18.5 20.7-18.5 2.5-2.2 6.3-2 8.6.5 3.3 3.6 8.2 5.3 13 4.6 4.8-.7 9-3.8 11.1-8.1 4.2 3.1 6.4 8.4 5.6 13.7"/><path class="st11" d="M454.8 274.4c11.5-3.3 20.5-12.3 23.7-23.8 3.2-11.5.2-23.9-7.9-32.7-55.7 14.4-83.5 21.7-83.5 21.7-10 2.9-17.9 10.5-21.2 20.4-3.4 9.8-1.7 20.7 4.4 29.1 37 48.6 55.4 72.9 55.4 72.9l.9-33.2c-1.3-7.2-1.9-10.8-1.9-10.8-9.7-23.6-14.6-35.4-14.6-35.4-1.5-3.6-1.2-7.1 1.7-7.2 28.6-.7 43-1 43-1"/><path class="st12" d="m420.6 318.7-2.4 8.7c1-16-8.7-30.8-23.7-36.4-6-1.3-10.8-5.9-12.5-11.8-1.7-5.9.1-12.3 4.5-16.6 4.4-4.3 10.9-5.8 16.8-3.9 10.3 3.5 22.2.9 28-9.1 8.1-16.4 28.4-22.5 44.2-13.2l-15.2 32c-.6-1.8-2.2-3.1-4.2-3.4-.9-.1-1.7-.3-2.6-.1-.8 0-1.6.1-2.3.5h-.1c-.9.1-1.7.5-2.4 1-.1 0-.2.1-.3.2l-.6.3c-.4.1-.7.2-1.1.4-.4.1-.7.2-1.1.4h-.1c-.5 0-1 0-1.6.1h-1.2c-.5 0-1 0-1.6.1h-1.2c-.6-.1-1.2-.1-1.9 0-.5 0-1 .1-1.5.3-.4 0-.9.1-1.3.2-.2 0-.3 0-.5.1-.6 0-1.1.1-1.6.3-.2 0-.3 0-.5.1-.4 0-.7.1-1.1.2H427.6l-4-.5c-.9-.1-1.5 0-2.3.2-1-.1-2 .2-2.8.6-1 .3-1.8.9-2.5 1.7h-2.7c-8.9-.1-11.4 4.3-7.5 13.3l14.8 34.3z"/><path class="st13" d="M429.3 265.9c-7.9-.5-13.3 1.3-16 5.4l36.6-.6c7 0 13.7-3.1 18.2-8.5s6.5-12.5 5.3-19.4l-4.8 8c-3.4-5.6-10.2-8.1-16.4-6-4.8 1.6-8.2 5.7-9.1 10.5-1.5 6.4-7.3 10.8-13.8 10.6"/><path class="st1" d="m392.5 404.2 65.1-26.8c1.6-.6 3.4.1 4 1.7l1.3 3.2c.6 1.6-.1 3.4-1.7 4l-65.1 26.8c-1.6.6-3.4-.1-4-1.7l-1.3-3.2c-.6-1.6.2-3.4 1.7-4M400.4 382.3l1.1-.9c1.1-.9 2.7-.8 3.7.3l1.5 1.8c.9 1.1.8 2.7-.3 3.7l-1.1.9c-1.1.9-2.7.8-3.7-.3l-1.5-1.8c-.9-1.1-.8-2.8.3-3.7M407 376.6l1.1-.9c1.1-.9 2.7-.8 3.7.3l1.5 1.8c.9 1.1.8 2.7-.3 3.7l-1.1.9c-1.1.9-2.7.8-3.7-.3l-1.5-1.8c-.9-1.1-.8-2.7.3-3.7M413.7 370.9l1.1-.9c1.1-.9 2.7-.8 3.7.3l1.5 1.8c.9 1.1.8 2.7-.3 3.7l-1.1.9c-1.1.9-2.7.8-3.7-.3l-1.5-1.8c-.9-1.2-.8-2.8.3-3.7"/><path class="st14" d="m331.6 313.4 84.9 96-7.7 6.9-84.9-96z"/><path class="st9" d="m343.6 294.1 57 64 139.6-1.7.1 10.6-141.9 1.7H396l-1.6-1.8-58.7-65.7z"/><path d="m504.8 263 47.5 1.2c5.1.1 11 4.4 13.3 9.5 2.2 5.1-.1 9.2-5.2 9.1l-47.5-1.2c-5.1-.1-11-4.4-13.3-9.5-2.2-5.2.1-9.3 5.2-9.1" style="fill-rule:evenodd;clip-rule:evenodd;fill:#331709"/><path class="st16" d="M648.9 395.3c-12.5-16.3-31.3-27.9-53.3-30.8-22-2.9-43.1 3.4-59.5 15.9-16.3 12.5-27.9 31.3-30.8 53.3-2.9 22 3.4 43.1 15.9 59.5 12.5 16.3 31.3 27.9 53.3 30.8 22 2.9 43.1-3.4 59.5-15.9 16.3-12.5 27.9-31.3 30.8-53.3 2.9-22-3.4-43.1-15.9-59.5m-51.8-41.9c25.1 3.3 46.5 16.5 60.7 35.1 14.3 18.6 21.4 42.7 18.1 67.8-3.3 25.1-16.5 46.5-35.1 60.7-18.6 14.3-42.7 21.4-67.8 18.1-25.1-3.3-46.5-16.5-60.7-35.1-14.3-18.6-21.4-42.7-18.1-67.8 3.3-25.1 16.5-46.5 35.1-60.7 18.6-14.3 42.7-21.4 67.8-18.1z"/><path class="st17" d="M655.8 390c-13.9-18.1-34.7-30.9-59.1-34.2-24.4-3.2-47.8 3.7-65.9 17.6-18.1 13.9-30.9 34.7-34.2 59.1-3.2 24.4 3.7 47.8 17.6 65.9 13.9 18.1 34.7 30.9 59.1 34.2 24.4 3.2 47.8-3.7 65.9-17.6 18.1-13.9 30.9-34.7 34.2-59.1 3.3-24.4-3.7-47.8-17.6-65.9m-57.4-46.5c27.8 3.7 51.5 18.3 67.3 38.9 15.8 20.6 23.8 47.3 20.1 75.2-3.7 27.8-18.3 51.5-38.9 67.3-20.6 15.8-47.3 23.8-75.2 20.1-27.8-3.7-51.5-18.3-67.3-38.9-15.8-20.6-23.8-47.3-20.1-75.2 3.7-27.8 18.3-51.5 38.9-67.3 20.7-15.8 47.3-23.8 75.2-20.1z"/><path class="st16" d="M348.9 408.9c-12.6-16.4-31.5-28.1-53.6-31-22.2-2.9-43.4 3.4-59.8 16s-28.1 31.5-31 53.6c-2.9 22.2 3.4 43.4 16 59.8s31.5 28.1 53.6 31c22.2 2.9 43.4-3.4 59.8-16s28.1-31.5 31-53.6c3-22.1-3.4-43.3-16-59.8m-52.1-42.2c25.3 3.3 46.8 16.6 61.1 35.3 14.4 18.7 21.6 43 18.2 68.2-3.3 25.3-16.6 46.8-35.3 61.1-18.7 14.4-43 21.6-68.2 18.2-25.3-3.3-46.8-16.6-61.1-35.3-14.4-18.7-21.6-43-18.2-68.2 3.3-25.3 16.6-46.8 35.3-61.1 18.7-14.3 43-21.5 68.2-18.2z"/><path class="st17" d="M355.5 403.9c-13.9-18.1-34.7-30.9-59.1-34.2-24.4-3.2-47.8 3.7-65.9 17.6-18.1 13.9-30.9 34.7-34.2 59.1-3.2 24.4 3.7 47.8 17.6 65.9 13.9 18.1 34.7 30.9 59.1 34.2 24.4 3.2 47.8-3.7 65.9-17.6 18.1-13.9 30.9-34.7 34.2-59.1 3.2-24.3-3.7-47.8-17.6-65.9M298 357.4c27.8 3.7 51.5 18.3 67.3 38.9 15.8 20.6 23.8 47.3 20.1 75.2-3.7 27.8-18.3 51.5-38.9 67.3-20.6 15.8-47.3 23.8-75.2 20.1-27.8-3.7-51.5-18.3-67.3-38.9-15.8-20.6-23.8-47.3-20.1-75.2 3.7-27.8 18.3-51.5 38.9-67.3 20.7-15.8 47.4-23.8 75.2-20.1z"/><path class="st8" d="M287.7 435.3c12.6 1.7 21.5 13.3 19.8 25.9-1.7 12.6-13.3 21.5-25.9 19.8-12.6-1.7-21.5-13.3-19.8-25.9 1.7-12.6 13.3-21.5 25.9-19.8"/><path class="st1" d="M286.5 444.9c7.3 1 12.5 7.7 11.5 15.1-1 7.3-7.7 12.5-15.1 11.5-7.3-1-12.5-7.7-11.5-15.1 1-7.3 7.7-12.5 15.1-11.5"/><path class="st14" d="M328.7 303.3c1-2.4 3.8-3.4 6.2-2.4 2.4 1 3.4 3.8 2.4 6.2l-55.8 124.7c0 .1-.1.1-.1.2-2 4.2-2.4 8.8-1.3 12.9 1 3.9 3.5 7.3 7.2 9.5 2.2 1.3 2.9 4.2 1.6 6.4-1.3 2.2-4.2 2.9-6.4 1.6-6-3.5-9.8-9-11.5-15.2-1.7-6.2-1.1-13.1 1.9-19.3l55.8-124.6z"/><path class="st9" d="M390.5 230.3c2.9 1.5 4 5 2.6 7.8-1.5 2.9-5 4-7.8 2.6-5.1-2.6-10.8-3.5-16.3-2.7-5.4.8-10.5 3.1-14.5 7-4 3.8-6.4 8.7-7.2 13.8-.8 5.1.1 10.5 2.8 15.3.9 1.7.9 3.7.1 5.4l-12.5 29.8c-1.2 3-4.7 4.4-7.6 3.1-3-1.2-4.4-4.7-3.1-7.6l11.6-27.7c-2.9-6.4-3.8-13.4-2.8-20.1 1.2-7.6 4.8-14.8 10.6-20.4 5.8-5.6 13.3-9 21-10.1 7.6-1.2 15.8.1 23.1 3.8M456.4 422.9c18.9 1 37.9 2.1 56.8 3.1s37.9 2.1 56.9 3.1c0 2.7-.1 5.4-.1 8 0 2.7-.1 5.3-.1 8-19 .7-38 1.4-56.9 2-19 .7-37.9 1.4-56.9 2 0-4.4.1-8.8.1-13.2.1-4.2.2-8.6.2-13m204.2-95L588.7 440l-8.7-5.6 71.9-112.1 8.7 5.6z"/><path class="st14" d="M499.8 333.5c-3.8 0-6.8-3.1-6.8-6.9.1-3.8 3.2-6.8 7-6.8l166.7 1.6c3.8 0 6.8 3.1 6.8 6.9-.1 3.8-3.2 6.8-7 6.8l-166.7-1.6z"/><path class="st8" d="M501.9 306.3c10.1-.2 18.5 7.8 18.7 17.8.2 10.1-7.8 18.5-17.8 18.7-10.1.2-18.5-7.8-18.7-17.8-.3-10.1 7.7-18.5 17.8-18.7"/><path class="st1" d="M502.1 314.7c5.5-.1 10 4.2 10.1 9.7.1 5.5-4.2 10-9.7 10.1-5.5.1-10-4.2-10.1-9.7-.1-5.5 4.2-10 9.7-10.1"/><path class="st8" d="M502.3 320.8c2.1 0 3.8 1.6 3.8 3.7s-1.6 3.8-3.7 3.8-3.8-1.6-3.8-3.7c-.1-2 1.6-3.7 3.7-3.8"/><path d="m578.7 186.2 147.8 1.3c3 0 5.5 2.5 5.5 5.6l-.9 111c0 3-2.5 5.5-5.6 5.5l-147.8-1.3c-3 0-5.5-2.5-5.5-5.6l.9-111c.1-3 2.6-5.5 5.6-5.5" style="fill-rule:evenodd;clip-rule:evenodd;fill:#ffae00"/><path class="st8" d="M285.5 452.5c3.2.4 5.4 3.3 5 6.5-.4 3.2-3.3 5.4-6.5 5-3.2-.4-5.4-3.3-5-6.5.4-3.2 3.3-5.5 6.5-5"/><path d="M726 202.7c-26.6.2-39.9.2-39.9.2 4.6 12.8 2.4 27-6 37.7-8.4 10.6-21.7 16.1-35.2 14.5-14.4-2.5-29.2 1.1-40.8 9.9-11.6 8.8-19.1 22-20.6 36.6 93.8-.1 140.7-.2 140.7-.2 1.1-65.8 1.8-98.7 1.8-98.7" style="fill-rule:evenodd;clip-rule:evenodd;fill:#ff930f"/><path d="m725.8 210.6-1.8 90.9s-36 .1-108.1.2c11.1-20.7 35.5-30.4 57.8-22.8 13.4 6.7 29.7 2.2 37.8-10.3 8.2-12.5 5.6-29.2-5.9-38.8-3-3.5-4.4-8-4-12.5.4-4.5 2.5-8.7 6-11.7 12.2 3.3 18.2 5 18.2 5" style="fill-rule:evenodd;clip-rule:evenodd;fill:#f27203"/><path d="m569.2 184.2 167 1.4c.6 0 1.1.5 1.1 1.1l-.2 22.8c0 .6-.5 1.1-1.1 1.1l-167-1.4c-.6 0-1.1-.5-1.1-1.1l.2-22.8c-.1-.6.5-1.1 1.1-1.1" style="fill-rule:evenodd;clip-rule:evenodd;fill:#ffcf57"/><path d="m410.3 404.4 35.6-10.1c1.4-.4 2.8.4 3.2 1.8l1 3.4c.4 1.4-.4 2.8-1.8 3.2l-35.6 10.1c-1.4.4-2.8-.4-3.2-1.8l-1-3.4c-.4-1.3.4-2.8 1.8-3.2" style="fill-rule:evenodd;clip-rule:evenodd;fill:#a39c8c"/><path class="st8" d="M433.5 395.2c24.4-.6 44.6 18.8 45.2 43.2.6 24.4-18.8 44.6-43.2 45.2-24.4.6-44.6-18.8-45.2-43.2-.5-24.4 18.8-44.7 43.2-45.2"/><path class="st1" d="M433.8 407.4c17.6-.4 32.3 13.6 32.7 31.2.4 17.6-13.6 32.3-31.2 32.7-17.6.4-32.3-13.6-32.7-31.2-.5-17.7 13.5-32.3 31.2-32.7"/><path class="st8" d="M434.1 420.5c10.4-.2 19.1 8 19.3 18.4.2 10.4-8 19.1-18.4 19.3-10.4.2-19.1-8-19.3-18.4-.3-10.4 7.9-19.1 18.4-19.3"/><path class="st1" d="M434.4 433.4c3.3-.1 6 2.5 6 5.8.1 3.3-2.5 6-5.8 6-3.3.1-6-2.5-6-5.8-.1-3.2 2.5-5.9 5.8-6"/><path class="st11" d="M229.9 169.2c28.9.3 52.2 24 51.9 52.9-.1 6.9-1.5 13.4-3.9 19.4-.4 1.3-.9 2.7-1.5 4-6 14.4-15.9 27.2-24.9 36.8-8.5 9.2-16 15.2-23.4 15.1-7.4-.1-14.8-6.3-23.1-15.6-8.8-9.8-18.4-22.8-24.1-37.3-2.2-5.6-3.4-11-3.5-16.1-.3-2.4-.5-4.9-.5-7.4.4-28.9 24-52.1 53-51.8"/><path class="st1" d="M229.6 200.7c11.6.1 20.8 9.6 20.7 21.1-.1 11.6-9.6 20.8-21.1 20.7-11.6-.1-20.8-9.6-20.7-21.1.1-11.6 9.5-20.9 21.1-20.7"/><path class="st23" d="m443.7 401.2 136.8 13.6-.5 5.8L443.1 407zM443 472.3l137.1-11-.5-5.8-137.1 11z"/><path d="m427.6 477 45-12.7c1.7-.5 3.6.5 4.1 2.3l1.2 4.3c.5 1.7-.5 3.6-2.3 4.1l-45 12.7c-1.7.5-3.6-.5-4.1-2.3l-1.2-4.3c-.5-1.8.6-3.6 2.3-4.1" style="fill-rule:evenodd;clip-rule:evenodd;fill:#6e6b65"/><path transform="rotate(-12.177 461.107 440.45)" class="st25" d="M450.8 427.4h20.5v26h-20.5z"/><path class="st26" d="m458.1 431.5 7.7-6 5 25.3-7.7 6z"/><path d="M370.6 231.1c.1-3.3 1.8-6.4 4.7-8.1 2.9-1.7 6.4-1.8 9.3-.2 20.9-9.8 37.6-18 49.9-24.3-.4-.3-.8-.7-1.1-1-1.5-.7-2.8-1.7-4-2.8l-.4-.3c-.6-.4-1.3-.7-1.8-1.2-.9-.4-1.7-.9-2.5-1.4-1.3-.9-2.5-1.7-3.8-2.6-1.9-.7-3.8-1.8-5.3-3.3-.8-.3-1.5-.6-2.3-1-1.1-.3-2.3-.7-3.4-1.2l-.9-.5-2.7-1.2-31.3 27.5c-6.3-2.8-13.6-.4-17 5.6-3.3 6-1.5 13.6 4.2 17.4 3.2 2.4 6 2 8.4-1.4" style="fill-rule:evenodd;clip-rule:evenodd;fill:#fac97f"/><path class="st28" d="M395.6 188.1c1.8 2.5 2.6 5.7 2.3 8.9-.6 5.1-3.9 9.1-9.1 11-7.9 2.8-12.3 11.3-10 19.3.5-.7 1.5-1.1 2.4-1 1.4.2 2.4 1.5 2.2 2.9l-.2 1.2c0 .2-.1.4-.1.6l11.7-8.9c.8-2.9 2.5-5.4 4.8-7.2l.4-.4c.8-.9 1.7-1.7 2.7-2.3.7-.5 1.5-1 2.3-1.4.3-.2.7-.4 1-.5.7-.5 1.4-.9 2.1-1.3l1.2-.6c.5-.4 1-.7 1.5-1 .3-.2.5-.4.8-.6.4-.6.8-1.1 1.3-1.6.5-.7 1-1.3 1.6-1.9.4-.5.7-1 1.2-1.5.4-.5.8-1 1.1-1.5.4-.6.8-1.3 1.2-1.8.2-.3.4-.7.7-1 .4-.6.8-1.1 1.2-1.6l.1-.2c.1-1.7.6-3.3 1.3-4.7l.1-3.7c-.2-.7-.2-1.4-.3-2.1-.4-.8-.7-1.6-1-2.4l-1.5-1.2c-.5-.4-1-.8-1.6-1.2-.6-.3-1.2-.7-1.7-1.1-1.3-.4-2.5-.9-3.6-1.6-.3-.1-.6-.3-.9-.4-1-.4-1.9-.9-2.8-1.5l-.3-.1c-.8 1.8-1.9 3.5-3.1 5-2.1 2.7-4.7 4.9-7.7 6.3-.4.4-.8.7-1.3 1.1"/><path class="st29" d="M414.8 199.7 399 221.1c-3.6-5.6-1.5-13.2 4.5-16.1 2.5-1.1 4.4-3.3 4.8-6.1.3-2.2.4-4.5-.6-6.7l.1.1c.3.4.6.8 1 1.1 1.6 1.8 3.7 3.3 6 4.2v.6c-.2.5-.1 1 0 1.5"/><path class="st30" d="M394.4 119.6c58.4 28 61.5 70.6 39.8 93.2 0 0-11.1-4.4-41.3-26.3-9.2-5.9-19.4-12.2-22.3-22.9 0 0-.3-11.3-.8-33.8 8.1-6.4 16.3-9.8 24.6-10.2"/><path class="st31" d="M413.6 178.7c8.3-8.9 12.5-13.4 12.5-13.4s-14.1-5.9-42.4-17.8c-3.5 8.7-1.5 18.5 4.9 25.3 6.5 6.6 16.3 9 25 5.9"/><path d="M427.1 172.1c8.3-8.9 12.5-13.4 12.5-13.4s-14.1-5.9-42.4-17.8c-3.5 8.7-1.5 18.5 4.9 25.3 6.4 6.6 16.2 9 25 5.9" style="fill-rule:evenodd;clip-rule:evenodd;fill:#b2aabd"/><path class="st25" d="M367.1 133.6c3.5 9.1 2.5 19.4-2.6 27.7-9.7-4.8-22.7-10.4-33.3-10.9 0 0 6.5-3.7 15.7-24.2-.7-1.5-.5-3.3.4-4.6 1-1.3 2.6-2.1 4.2-1.9 1.6.2 3.1 1.2 3.7 2.8 0 0 3.9 3.7 11.9 11.1"/><path class="st33" d="M341.8 150.1c-6.2-35.8-1.7-44.5 13.5-26.1 9.4 11.1 7.9 24.1 3.8 31.9-4.7-2-12.3-4.6-17.3-5.8"/><path class="st26" d="M344.6 150.8c-2.8-28.9 1.4-38.9 9.8-29.6 4.7 4.9 4 25.8-6.5 30.5l-3.3-.9"/><path transform="rotate(-24.384 439.819 365.567)" class="st1" d="M429.6 352.6h20.5v26h-20.5z"/><path transform="rotate(-24.384 439.819 365.567)" style="fill:none;stroke:#000;stroke-width:.73;stroke-miterlimit:22.9256" d="M429.6 352.6h20.5v26h-20.5z"/><path class="st11" d="M457.2 178.4c-26 17.8-39.1 26.7-39.1 26.7l-25.7-16c-2.2-1.5-2.4-3.7-.7-6.4l5.1-8.1c.8-1.5 1.9-2 3.5-1.7 12.7 2.5 20.8 1.2 24.2-3.8 22.5-3 33.4 0 32.7 9.3M446.9 434c8.1 2.8 17.2 1.4 24-3.7 0 0-3.3-29.4-9.8-88.2-.6-4.5 1.1-8.9 4.9-12.9 0 0 22.2-23.4 66.5-70.1 12.1-7.4 19.4-20.6 19.3-34.7-.1-14.2-7.4-27.8-19.9-34.4 0 0-16-8.6-48.1-25.8 0 0-21 16.3-56.8 44.9 0 0 15.7 11.5 37.4 27.6 4.2 3.3 6.3 5.5 3.7 9.2 0 0-14.2 19.4-45.5 62-8.6 10.6-9.4 25.6-2 37.1 17.6 59.4 26.3 89 26.3 89z"/><path class="st35" d="M374.8 216.8c4.8.6 8.1 5 7.5 9.8-.6 4.8-5 8.1-9.8 7.5-4.8-.6-8.1-5-7.5-9.8.6-4.8 5-8.1 9.8-7.5"/><path class="st25" d="M312 109.8c-1 11.4-1.6 17.1-1.6 17.1 1.4 1.4 2.8 2.7 4.2 3.8-2 .1-3.9.9-5.4 2.3-.4 2.7 3 4.1 3.2 6.8 6.1 3.9 9.5 2.6 10-4.1-.1-.2-.2-.5-.4-.7 11.2 3.5 19.5-7.8 25-33.9.6-3.6-9.5-7.1-30.1-10.4-5.7 6.3-7.4 12.7-4.9 19.1"/><path class="st33" d="M323.6 130.8c10.2 2.7 16.5.4 19-7 9.4-15.8.6-26.7-26.3-32.5-1 1-1.4 2.4-1.3 3.7.1 1.4.9 2.3 1.9 3.5 1.9 2.1 3.6 4.2 5.5 5 5.4 2.2 6 6.1 2.7 10.2-3.7 4.6-3.2 8.5-1.1 11.2 1.2 1.9 1 4.3-.4 5.9"/><path class="st26" d="M337 124.6c13-27 6.3-37.9-20-32.7 1.3 3.2 5.4 6.1 12.3 8.7 2.2.8 3.8 2.6 4.4 4.8.6 2.2-.1 4.2-1.5 6.3-1.6 2.2-2 5.1-1 7.7 1 2.6 3.2 4.6 5.8 5.2"/><path d="M329.2 111.3c12.4-2.5 17.6-2 15.3 1.3 0 0-4.1.7-12.4 2.2-.9 2.7-3 4.8-5.6 5.8-2.7 1-5.6.7-8.1-.8 2.6.9 5.6.4 7.7-1.3 2.2-1.7 3.4-4.4 3.1-7.2" style="fill-rule:evenodd;clip-rule:evenodd;fill:#eb642a"/><path class="st10" d="M312.5 109.1c1 .1 1.7 1.1 1.6 2.1-.1 1-1.1 1.7-2.1 1.6-1-.1-1.7-1.1-1.6-2.1.2-1 1.1-1.7 2.1-1.6"/><path class="st37" d="m334.9 123.6-.9 2.1c-1.8 3.8-3.8 5.7-6 6.3-6.8 2.1-9.4.9-9.4.9.8 4-2.6 5-6.8 5.5-1.4.2-2.5 2.2-3.3 3.6-7.1 13.5-3.4 19.7 9.5 18.1 13.6-1.6 23-5.5 28.3-10.8.2-1.1.5-2.2.9-3.3.3-1 .7-2 1.2-2.9-.1-.6-.1-1.1-.1-1.7v-1c-.1-1.2-.2-2.5-.1-3.7-.1-.6-.1-1.1-.1-1.7-.1-1.4-.1-2.7.1-4.1v-.1c-.1-.7-.1-1.4-.1-2.1h-.1c-1.4-.4-2.7-.8-4.1-1.3-1.3-.2-2.6-.6-3.8-1.1l-.4-.2c-1.8-.5-3.4-1.4-4.8-2.5"/><path d="M329.8 128.9c2.2-1.4 2.7-.9 1.2 1.6-2.7 4-7.8 5.5-12.2 3.6-1.2-.4-3-.2-7.6.3-2.1.3-3.6-.1-4.6-1.6-1-1.5-.9-3.4.2-4.9 1.5-2.2 2.9-3.3 4.3-3.1 6.4 1.1 9.7 2.3 11.8 3.6 2.5 1.7 4.8 1.9 6.9.5" style="fill-rule:evenodd;clip-rule:evenodd;fill:#a3280d"/><path class="st37" d="M326.8 104.4c1.4.5 1.9.4 1.4-.5-1.6-3.2-5.3-4.6-11-4-.9.1-1.7.5-2 1.3-.4.8-.2 1.7.3 2.3.6.7 1.4.9 2.3.8 4.4-.5 7.4-.5 9 .1M309.6 104.9c2-.2 3-.4 3-.4.9-.2 1.6-1 1.6-1.9 0-.9-.6-2-1.5-2-1 0-2 .4-2.8 1.1-.7.7-1.1 1.7-1.1 2.7.1.4.3.6.8.5"/><path class="st10" d="M321 109c1 .1 1.7 1.1 1.6 2.1-.1 1-1.1 1.7-2.1 1.6-1-.1-1.7-1.1-1.6-2.1.2-1 1.1-1.7 2.1-1.6"/><path class="st16" d="M313.3 107.3c-.5-1-1.3-1.8-2.2-1.9-.9-.1-1.8.4-2.6 1.2-.8 1-1.5 2.4-1.7 4-.2 1.6 0 3.1.6 4.3.5 1 1.3 1.8 2.2 1.9.9.1 1.8-.4 2.6-1.2.8-1 1.5-2.4 1.7-4 .2-1.6-.1-3.1-.6-4.3m-2-3.3c1.4.2 2.6 1.2 3.3 2.7.7 1.4 1 3.2.7 5.1-.3 1.9-1 3.6-2 4.7-1.1 1.2-2.4 1.9-3.9 1.7-1.4-.2-2.6-1.2-3.3-2.7-.7-1.4-1-3.2-.7-5.1.3-1.9 1-3.6 2-4.7 1.1-1.2 2.5-1.8 3.9-1.7z"/><path d="m316.1 114.6-1.6 6.1c1.2-.6 2.7-.2 3.6.9.8 1.1.8 2.6-.2 3.7-.9 1-2.4 1.3-3.6.6-.7-.5-2.2-.3-4.6.5-1.7.5-3.5-.3-4.3-1.9-.8-1.6-.4-3.5 1-4.7l7-9.8c.5.9 1.1 1.8 1.9 2.5.1.7.5 1.4.8 2.1" style="fill-rule:evenodd;clip-rule:evenodd;fill:#f57231"/><path d="M314.3 108.6c2.3-3.2 3.9-1.9 3.2.8l-2.4 9.2c-.9 2.4-1.1.8-1-.2.3-2.7-.2-5.4-1.3-7.6l1.5-2.2z" style="fill-rule:evenodd;clip-rule:evenodd;fill:#cf4104"/><path d="M350 122.6c1.7-.4 3.2-1.2 4.6-2.2-.2.8-.3 1.7-.5 2.5.7 8.2 14.4-7.7 12.9-13.6-2.6-4.6-4.9-5.9-7.1-3.9-1.1-4.3-4.3-7.9-8.5-9.5-5.7-2.2-12.5-1-16.4 3.7 3.7 2.6 7.7 6.4 6 10.3l-6.7 15c7.4 3.4 12 11.2 10.9 19.7-.4 2.9-1.4 5.6-3 7.9 9.2-6 11.5-14.7 7.4-23.7-.8-2-.7-4.3.4-6.2" style="fill-rule:evenodd;clip-rule:evenodd;fill:#540800"/><path d="M354.1 72.6c1.1.3 1.8 1.5 1.5 2.6-.3 1.1-1.5 1.8-2.6 1.5-1.1-.3-1.8-1.5-1.5-2.6.3-1.2 1.5-1.9 2.6-1.5" style="fill-rule:evenodd;clip-rule:evenodd;fill:#dad0e0"/><path class="st43" d="m331.3 96.3 4.8 2.6 27.5 10.3c2.7 1 4.3.3 4.9-2.3 3.7-13-2.8-27-15.5-32.4-4.2-1.8-8.6-2.5-12.9-2.1.5.9.9 2 1 3.1.5 4.4-2.4 8.4-6.6 9.4-1.3.7-2.6 1.5-3.8 2.4l-1.4 1.1c.1.2.2.4.4.6.6.9 1 2 1.2 3.1 0 .1.1.2.1.3.4 1.2.5 2.6.3 3.9"/><path d="M340.3 88.8c1.7 11.9 10.2 13.3 25.5 4.1-1.8-3.6-5.4-6-9.4-6-2.8 0-5.4 1-7.4 2.9-1.2 1.2-2.9 1.7-4.6 1.5-1.6-.2-3.1-1.1-4.1-2.5" style="fill-rule:evenodd;clip-rule:evenodd;fill:#e6e3e8"/><path class="st30" d="m337.6 98.2 3.9-7.8c.8 3.1 3.4 5.4 6.6 6 3.2.5 6.4-.8 8.2-3.5 3-4.4 8.4-3.8 10.7 2-.2.8-.4 1.6-.5 2.4l-.6 4.8c-.1.2-.3.4-.4.7-.2.3-.4.5-.6.8-.1.1-.2.3-.3.4-.4.1-.7.2-1.1.3-.2 0-.4.1-.6.1-.1 0-.2.1-.3.1-.2 0-.5.1-.7.1-.5.1-1 .1-1.4.2H357.5c-.5 0-1-.1-1.5 0l-18.4-6.6z"/><path d="m337.6 98.2 3.1-6.2c.2.9.5 1.7.9 2.6 2.7 6.3 9.9 9.6 16.5 7.3 4.1-1.4 7-4.6 8.3-8.4.7 1.3 1.3 2.8 1.6 4.8 1.1 7.2-1.3 10.3-7.1 8.3l-23.3-8.4z" style="fill-rule:evenodd;clip-rule:evenodd;fill:#cbc7cf"/><path class="st46" d="M316.6 88c7 4.6 16.7 8.9 22 9.7 2.4-3.6 5.6-11.7 7.4-18 2.3-8.6-1-9.6-6.1-9-10.3 1.2-19.2 7.8-23.3 17.3"/><path class="st12" d="M317.8 89.3c13 4.6 20.5 7.5 20.5 7.5 7.1-13.8 3.5-20.9-1.1-14.2-1.9 2.3-3.5 3.7-5.9 4.3-2.5.5-5.1 0-7.2-1.4-1.3-.9-2.9-.7-4.2.1-1.4.8-2.2 2.2-2.1 3.7"/><path class="st13" d="M320.2 90.1c10.5 5.2 16.7 7.2 18.4 6 4.5-8.4 3.1-11.8.5-8-1.6 2.2-4.1 3.6-6.8 3.9-2.7.3-5.4-.6-7.4-2.5-.7-.6-1.6-.9-2.5-.7-.9.1-1.7.6-2.2 1.3"/><path class="st11" d="m297.4 81 40.8 14.9c1.2.4 1.8 1.7 1.4 2.9-.4 1.2-1.7 1.8-2.9 1.4l-40.8-14.9c-1.2-.4-1.8-1.7-1.4-2.9.4-1.2 1.7-1.8 2.9-1.4"/><path class="st16" d="M327.2 107.5c-.9-1.4-2.3-2.4-3.9-2.6-1.6-.2-3.2.4-4.4 1.5-1.3 1.2-2.2 2.9-2.5 5-.3 2 .2 4 1.1 5.5.9 1.4 2.3 2.4 3.9 2.6 1.6.2 3.2-.4 4.4-1.5 1.3-1.2 2.2-2.9 2.5-5 .3-2-.1-4-1.1-5.5m-3.7-4c2.1.3 3.8 1.5 4.9 3.3.6.9 1 2 1.2 3.2l20.4-2.4.2 1.4-20.4 2.4c0 .6 0 1.2-.1 1.8-.3 2.4-1.4 4.4-2.9 5.8-1.5 1.4-3.5 2.2-5.6 1.9-2.1-.3-3.8-1.5-4.9-3.3-1.1-1.7-1.6-4-1.3-6.4 0-.1 0-.2.1-.4-.3-.1-.7-.1-1-.2-.6-.1-1.1-.3-1.7-.5-.4-.1-.6-.5-.5-.9.1-.4.5-.6.9-.5.5.2 1 .3 1.6.4.3.1.7.1 1 .2.5-1.6 1.4-3 2.5-4.1 1.6-1.2 3.6-2 5.6-1.7z"/><path class="st25" d="M357.8 105.4c1.9.9 3.3 2.6 3.8 4.7s.2 4.6-1 6.9c-1.2 2.3-3 4.1-4.9 5.2-1.9 1-3.9 1.3-5.6.6-1.7-.8-2.8-2.4-3.3-4.5s-.4-4.6.6-7.1c.9-2.4 2.6-4.3 4.5-5.4 1.8-1 4-1.2 5.9-.4"/><path d="M357.3 109.2c1.2.5 2 1.6 2.3 2.9.3 1.3.1 2.8-.6 4.2-.7 1.4-1.8 2.5-3 3.2-1.2.6-2.4.8-3.4.3s-1.7-1.5-2-2.8c-.3-1.3-.2-2.9.4-4.4.6-1.5 1.6-2.7 2.7-3.3 1-.5 2.4-.6 3.6-.1" style="fill-rule:evenodd;clip-rule:evenodd;fill:#ed6b2a"/><path d="M354.6 111.4c.7.3 1.2 1 1.4 1.8.2.8.1 1.7-.4 2.6-.5.9-1.1 1.6-1.9 2-.7.4-1.5.5-2.1.2-.7-.3-1.1-.9-1.3-1.7-.2-.8-.1-1.8.2-2.7.4-.9 1-1.7 1.7-2.1.9-.4 1.7-.5 2.4-.1" style="fill-rule:evenodd;clip-rule:evenodd;fill:#cc460c"/><path class="st16" d="M365.1 133.5c-.5-1.7.4-3.5 2.1-4 1.7-.5 3.5.4 4 2.1 1.6 5.2 2.3 10.6 2.2 16-.1 5.4-1.1 10.7-2.9 15.9-.6 1.7-2.5 2.6-4.1 2-1.7-.6-2.6-2.5-2-4.1 1.6-4.5 2.5-9.2 2.6-13.8.1-4.8-.5-9.5-1.9-14.1"/><path class="st10" d="M476.7 457.6c-47.4 8.1-71 12.2-71 12.2.7-7.3 5.1-13.8 11.7-17.1 16.1-9.1 24.1-13.7 24.1-13.7 2.9-1.6 6.6-.6 8.3 2.3 2.5 4.2 6.9 6.9 11.7 7.2 4.9.3 9.6-1.8 12.6-5.6 3.5 4.1 4.5 9.7 2.6 14.7"/><path class="st1" d="m418.9 448.4 1.3-.7c1.3-.7 2.8-.2 3.5 1l1.1 2c.7 1.3.2 2.8-1 3.5l-1.3.7c-1.3.7-2.8.2-3.5-1l-1.1-2c-.8-1.3-.3-2.8 1-3.5M426.5 444.2l1.3-.7c1.3-.7 2.8-.2 3.5 1l1.1 2c.7 1.3.2 2.8-1 3.5l-1.3.7c-1.3.7-2.8.2-3.5-1l-1.1-2c-.7-1.2-.2-2.8 1-3.5M434.3 440l1.3-.7c1.3-.7 2.8-.2 3.5 1l1.1 2c.7 1.3.2 2.8-1 3.5l-1.3.7c-1.3.7-2.8.2-3.5-1l-1.1-2c-.7-1.2-.2-2.8 1-3.5"/><path d="M386.7 118.6c-6.3 4.7-9.2 12.6-7.4 20.3.7 3.1 2.2 6.1 4.4 8.5l24.4 26.8-1 5.5-4.9-.1-24.4-26.9c-8.7-9.8-9.4-24.3-1.7-34.8 4.1-1 7.5 0 10.6.7" style="fill:#863bf2"/><path class="st43" d="M416.2 166.3c3.9 1.7 6.9.9 8.9-2.4 2.7-4.2 11.2-11.9 25.6-23.2 2.7-2.1 4.4-2.9-1.8-5.6.1-.3.3-.7.4-1.1-12.4-5.8-27.5-11.3-45.2-16.6-9-2.3-17.8 1.9-21.7 10.8-3.9 8.9-2.2 20.5 6.2 24.5l27.6 13.6z"/><path d="M440.3 143.3c-6.5 6.3-10.5 10.9-12.1 13.9-6 2.4-12.8 1-17.4-3.6-3.8-3.8-5.1-9.1-4.5-14.4.4-4.4-1-8.5-4.1-11.4-3.2-2.9-7.6-4-11.8-3 3.1-3.3 7.7-4.8 12.1-3.8 4.5 1.6 8.8 3.1 13 4.6.8 1.2 1.7 2.3 2.8 3.2.8.7 1.6 1.4 2.4 2 .7.5 1.3 1.1 2 1.6.6.4 1.1.9 1.7 1.3.7.5 1.3 1 2 1.5 1 .9 2 1.6 3.1 2.3.8.7 1.8 1.3 2.8 1.8.2.1.4.2.6.4.4.3.9.5 1.3.8 1.9 1.3 3.9 2.2 6.1 2.8" style="fill-rule:evenodd;clip-rule:evenodd;fill:#e7e2eb"/><path d="m441.6 144.3.9-3.2c-1 .1-2 0-3-.1l-3.5-.5c-1.1-.2-2.2-.4-3.3-.8-5.5-1.7-9.5-6.4-10.5-11.9-3.7-1.4-7.6-2.8-11.7-4.3 3.6 1.1 6 4.4 5.9 8.1-.6 6.3 2.7 12.3 8.3 15.1 5.5 2.9 12.3 1.9 16.9-2.4" style="fill-rule:evenodd;clip-rule:evenodd;fill:#d3ced9"/><path class="st31" d="M440.5 141.6c2.2-3.5 3.2-5.3 3.2-5.3-7-2.9-14.6-5.9-22.8-8.9-.3 4.9 1.9 9.6 5.9 12.5 4 2.9 9.2 3.5 13.7 1.7"/><path class="st12" d="M412.8 201.7c1.6.5 2.4.8 2.4.8s10.7-8.7 32.1-26c1.8-5.4-4.4-8.2-18.7-8.5 0 0-1.7 2-5 5.9 1.7.2 3.1 1.6 3.2 3.3.1 1.7-1.1 3.3-2.8 3.6-8.6 1.9-15 9.2-15.8 17.9 3.1 2.1 4.6 3 4.6 3"/><path class="st46" d="m460.5 319.9-6-11.1c5.7-1 10.6-4.3 13.7-9.1 3.1-4.8 4-10.7 2.6-16.3-5.8-13.9-2.5-29.9 8.2-40.4 4.7-3.8 7.2-9.9 6.3-16.1-1.3-8-8-14.1-16.1-14.5-4.1-.4-7.7-2.8-9.5-6.5-1.9-3.7-1.7-8 .3-11.5 17.5-10.4 28-12.7 31.4-6.9 25.6 19 30.7 41.2 15.5 66.7-8.9 21.7-24.4 43.7-46.4 65.7"/><path d="M469.2 212.3c8.6 4.2 10.4 7.2 7.1 10.9-5.7 5.8-15.8 11.7-22 7.6 0 0-11.3-7.3-33.8-21.8 5.7-9 8.6-13.5 8.6-13.5 29 11.2 40.1 16.8 40.1 16.8" style="fill-rule:evenodd;clip-rule:evenodd;fill:#863bf2"/><path class="st12" d="M457.3 404.3c3.6 3.1 6.2 6.7 7.9 10.7l-9.4-73.2c-1.2-6.2.5-11.9 5.1-16.8l45.4-49.8c.2-1.7.6-3.4 1.3-4.9.7-2.1 1.9-4.1 3.4-5.6.4-.5.8-.9 1.3-1.4 1-1.3 2.1-2.4 3.4-3.3l.4-.3c.3-.3.6-.6.8-.9.2-.6.5-1.1.8-1.7.2-.5.5-1 .7-1.5.1-.2.2-.4.3-.5.3-.8.6-1.5 1-2.2.3-.6.5-1.1.9-1.7.4-1.4 1.1-2.7 1.9-3.9l.9-1.8c.6-1.4 1.3-2.7 2.2-3.8.5-1 1.2-1.8 1.9-2.6.6-.7 1.1-1.3 1.8-1.9.5-.7 1-1.4 1.6-2 .8-1.5 1.9-2.9 3.2-4.1l2-1.9c.7-.8 1.3-1.5 2-2.2.5-1 1.1-1.9 1.8-2.8l.9-6.4c-.3-1.3-.5-2.7-.4-4-.7-1-1.2-2.1-1.7-3.2l-1.4-2.3c-.8-.7-1.5-1.5-2.1-2.3-.4-.5-.8-1.1-1.2-1.6-.7-.6-1.4-1.2-2-1.8l-.9-.9-2.7-2.8c-.8-.6-1.4-1.3-2.2-2-.4-.4-.7-.8-1.1-1.2l-.1-.1c-.5-.3-.9-.6-1.4-1-.6-.3-1.1-.7-1.6-1.1-.4-.2-.8-.5-1.1-.8-1.3-.6-2.6-1.3-3.7-2.2-.2-.1-.5-.3-.7-.4-.8-.4-1.6-.9-2.4-1.4-.9-.4-1.8-.9-2.6-1.4-1.1-.5-2.1-1-3-1.7-.4-.3-.9-.6-1.3-.9-.6-.3-1.1-.7-1.6-1.1l-.3-.2-1.2-.6c-.6-.2-1.1-.4-1.7-.6l-.3-.1c-1.2-.2-2.3-.6-3.3-1.1-.8-.3-1.5-.6-2.3-1-1.2-.4-2.4-1-3.4-1.6-2.1-1-3.9-2.5-5.3-4.2l-32.1 26.3c5.2-7.2 14-10.8 22.7-9.5 8.8 1.3 16.1 7.4 19 15.7 2.9 8.4.9 17.7-5.2 24.1-10.6 13.2-13.4 26.9-8.6 41.1 3 8.3 1.5 17.5-4 24.4-5.5 6.9-14 9.2-23 9.1-9.9-.2-18.7 6.4-21.4 15.9-2.2 7.8.1 16.1 5.8 21.6 10.3 10.2 14.3 25.1 10.3 39-2.9 8.1-.5 17 6 22.4"/><path class="st13" d="M525.5 254.1c-22.9 25.1-34.3 37.6-34.3 37.6 7.3-6.6 10-16.9 6.8-26.2-3.6-9.8.7-20.7 10.1-25.4 9.4-3.9 15.9-12.7 16.9-22.9 1-10.2-3.7-20.1-12.1-25.8-8.5-5.7-19.4-6.3-28.4-1.5L457 204.4l-4.6.4 3.4-4.2 41.5-23.8 29.8 16.9c11 6.2 17.7 18 17.4 30.6-.4 12.7-7.7 24.2-19 29.8"/><path class="st25" d="M393.3 236.8c.1-3.4 1.9-6.5 4.7-8.2 2.9-1.7 6.5-1.8 9.4-.2 51.1-23.9 76.9-38.5 76.9-38.5 19.3-11 15.6-24.3 2.6-33-16.9-11.1-38-20.9-38-20.9-14.5 15.8-27.7 32.7-27.7 32.7 14.3 6.3 23.4 4.9 23.4 4.9-31.3 27.5-46.9 41.2-46.9 41.2-6.3-2.9-13.8-.4-17.2 5.7-3.4 6.1-1.6 13.7 4.2 17.6 3.3 2.6 6.1 2.2 8.6-1.3"/><path d="M444.9 144.3c-6.4 4.7-9.5 9.5-9.4 14.4 5.3-2.8 11.8-2.2 16.5 1.5 4.7 3.8 6.7 9.9 5.1 15.7-1.6 5.8-6.1 9.8-12.4 11-10 1.8-16.6 11.4-14.7 21.4.4 2.8-.2 5.2-1.9 7.1l21.1-11.3c1.4-3.2 3.8-5.7 6.8-7.3.2-.1.3-.3.5-.4 1.1-.9 2.2-1.6 3.5-2.2.9-.5 1.9-.9 2.8-1.2.4-.2.8-.3 1.3-.4.9-.4 1.7-.8 2.7-1.1.5-.2 1-.4 1.5-.5.6-.3 1.3-.6 1.9-.8.3-.2.7-.4 1-.5.5-.6 1.1-1.1 1.8-1.6.7-.7 1.4-1.3 2.2-1.9.5-.5 1-1 1.6-1.5.4-.4.8-.8 1.2-1.1l.4-.4c.5-.7 1.1-1.3 1.7-1.9.3-.3.6-.7 1-1 .5-.6 1.1-1.1 1.7-1.6l.1-.2c.5-1.9 1.3-3.6 2.3-5.2l.2-.4.5-3.7c0-.9 0-1.7.1-2.5-.3-1-.6-1.9-.7-2.9l-.3-.3c-.4-.4-.9-.8-1.2-1.3-.4-.4-.8-.8-1.2-1.3-.1-.1-.2-.2-.4-.3-.6-.5-1.2-1-1.8-1.6-1.4-.6-2.7-1.5-3.8-2.5-.3-.2-.6-.4-1-.7-1.1-.6-2.1-1.4-2.9-2.3-.9-.4-1.8-.9-2.6-1.5-.4-.2-.9-.4-1.3-.6-.4-.2-.8-.3-1.1-.5-.8-.2-1.6-.5-2.3-.8-1.8-.2-3.4-.7-5-1.4-1.4-.4-2.7-1-3.8-1.8l2.3 1.5-5.9-.8c-3.2-.2-5.9-1.5-8.1-3.3" style="fill-rule:evenodd;clip-rule:evenodd;fill:#ffba70"/><path class="st28" d="m483.2 185.8-36.7 19.8c-1.3-10.4 6.7-19.7 17.2-19.8 6.2-.4 11.6-4.5 13.7-10.4 2-5.9.3-12.5-4.4-16.6-4.7-4.2-11.4-5.1-17-2.4-6.3 2.9-13.8-.2-16.2-6.8l13.3-8.8c19.7 11.2 29.6 16.8 29.8 16.9 4.4 2.5 7.4 5.4 9 8.6-.7 1.5-1.2 3-1.4 4.7l-.1 1.1.9-1.5c-.4.8-.8 1.7-1.1 2.6-.2.3-.4.6-.5.9l-.9 1.5c-.3.4-.6.8-.8 1.2-.7 1-1.3 2-1.8 3.1-.5.7-.9 1.5-1.3 2.2-.2.5-.4.9-.6 1.4-.6.8-.9 1.6-1.1 2.3"/><path class="st29" d="M491.2 178.8c-1.7 2.6-4.2 4.8-7.3 6.6l-12.9 6.9c7-3.1 12-9.6 13-17.2.7-5.8 3.1-9.1 7.2-10 .9 1.5 1.6 3.2 1.9 5.3.5 3.1-.2 5.9-1.9 8.4m-38.1-38.1c-8.1 2.5-11.6 4.9-10.5 7.3 1.6 2.2 4.1 3.6 6.8 3.9 2.7.3 5.4-.6 7.5-2.4 3-2.4 7.1-2.7 10.4-.8-9.5-5.3-14.2-8-14.2-8z"/><path class="st16" d="M447 133.5c2-1.7 5-1.4 6.6.6 1.7 2 1.4 5-.6 6.6-5.6 4.6-10.7 9.7-15.4 15.3-4.7 5.6-8.9 11.5-12.6 17.8-1.3 2.2-4.2 3-6.4 1.7s-3-4.2-1.7-6.4c4-6.8 8.5-13.2 13.5-19.1 5.1-6 10.7-11.5 16.6-16.5"/><path class="st35" d="M400.6 222.8c4.8.6 8.1 5 7.5 9.8-.6 4.8-5 8.1-9.8 7.5-4.8-.6-8.1-5-7.5-9.8.7-4.8 5.1-8.1 9.8-7.5"/><path class="st1" d="m406.6 468.1 69.3-12.4c1.7-.3 3.3.8 3.6 2.5l.6 3.4c.3 1.7-.8 3.3-2.5 3.6l-69.3 12.4c-1.7.3-3.3-.8-3.6-2.5l-.6-3.4c-.3-1.7.8-3.3 2.5-3.6"/><path class="st8" d="M580.8 411.4c14-.3 25.7 10.8 26 24.8.3 14-10.8 25.7-24.8 26-14 .3-25.7-10.8-26-24.8-.4-14.1 10.7-25.7 24.8-26"/><path class="st1" d="M581 422.6c7.8-.2 14.3 6 14.5 13.9.2 7.8-6 14.3-13.9 14.5-7.8.2-14.3-6-14.5-13.9-.1-7.8 6.1-14.3 13.9-14.5"/><path class="st8" d="M581.2 431.2c3.1-.1 5.6 2.4 5.7 5.4.1 3.1-2.4 5.6-5.4 5.7-3.1.1-5.6-2.4-5.7-5.4-.1-3.1 2.3-5.6 5.4-5.7"/><path class="st16" d="M142.7 434.7c.1.4-.2.7-.7.8l-.5.1c-.5.1-.9-.1-1-.5l-1.9-8.7c-.1-.4.2-.7.7-.8l.5-.1c.5-.1.9.1 1 .5l1.9 8.7zm-2.9-12.5-1.8.4c-2.6.6-4.4 2.7-3.9 4.8l2 9.1c.5 2 3 3.2 5.6 2.7l1.8-.4c2.6-.6 4.4-2.7 3.9-4.8l-2-9.1c-.5-2.1-3-3.3-5.6-2.7zm-17.4-.4c.1.4-.2.7-.7.8l-.5.1c-.5.1-.9-.1-1-.5l-1.9-8.7c-.1-.4.2-.7.7-.8l.5-.1c.5-.1.9.1 1 .5l1.9 8.7zm-2.9-12.5-1.8.4c-2.6.6-4.4 2.7-3.9 4.8l2 9.1c.5 2 3 3.2 5.6 2.7l1.8-.4c2.6-.6 4.4-2.7 3.9-4.8l-2-9.1c-.5-2.1-3-3.3-5.6-2.7zm6.4 32.9c.5-.1.9-.5.9-.8l12.4-35.4c0-.4-.3-.6-.7-.5l-3.2.7c-.5.1-.9.5-.9.8L122 442.5c0 .4.3.6.7.5l3.2-.8zM184.6 374.5c-.6-.8-1.5-1.3-2.6-1.4-1.1-.1-2.1.2-2.8.8-.8.6-1.3 1.5-1.4 2.6-.1 1.1.2 2.1.8 2.8.6.8 1.5 1.3 2.6 1.4 1.1.1 2.1-.2 2.8-.8.8-.6 1.3-1.5 1.4-2.6.1-1-.2-2-.8-2.8m-2-6.4c2.4.3 4.5 1.5 6 3.3 1.4 1.8 2.2 4.1 1.9 6.6-.3 2.4-1.5 4.5-3.3 6-1.8 1.4-4.1 2.2-6.6 1.9-2.4-.3-4.6-1.5-6-3.3-1.4-1.8-2.2-4.1-1.9-6.6.3-2.4 1.5-4.5 3.3-6 1.8-1.5 4.1-2.2 6.6-1.9zm-31.6 2.6c-.6-.8-1.5-1.3-2.6-1.4-1.1-.1-2.1.2-2.8.8-.8.6-1.3 1.5-1.4 2.6-.1 1.1.2 2.1.8 2.8.6.8 1.5 1.3 2.6 1.4 1.1.1 2.1-.2 2.8-.8.8-.6 1.3-1.5 1.4-2.6.1-1-.2-2-.8-2.8zm-2-6.4c2.4.3 4.6 1.5 6 3.3 1.4 1.8 2.2 4.1 1.9 6.6-.3 2.4-1.5 4.6-3.3 6-1.8 1.4-4.1 2.2-6.6 1.9-2.4-.3-4.6-1.5-6-3.3-1.4-1.8-2.2-4.1-1.9-6.6.3-2.4 1.5-4.5 3.3-6 1.8-1.5 4.2-2.2 6.6-1.9zm69.6-50.1c1.7.2 3 1.8 2.8 3.5-.2 1.7-1.8 3-3.5 2.8l-11.9-1.4-12.2 44-.7 2.6-2.7-.3L142 360c-1.7-.2-3-1.8-2.8-3.5.2-1.7 1.8-3 3.5-2.8l45.7 5.1 3.1-11-51.4-5.7c-1.7-.2-3-1.8-2.8-3.5.2-1.7 1.8-3 3.5-2.8l52.4 5.8 2.8-10.2-56.8-6.5c-1.7-.2-3-1.8-2.8-3.5.2-1.7 1.8-3 3.5-2.8l57.8 6.7 2.9-10.4.7-2.6 2.7.3 14.6 1.6z"/><path class="st1" d="M173.6 462.5c1.9 0 3.4 1.6 3.4 3.5s-1.6 3.4-3.5 3.4-3.4-1.6-3.4-3.5c.1-1.9 1.7-3.5 3.5-3.4M249.8 492.1c1.9 0 3.4 1.6 3.4 3.5s-1.6 3.4-3.5 3.4-3.4-1.6-3.4-3.5 1.6-3.4 3.5-3.4M245.1 472.8c1.5 0 2.6 1.2 2.6 2.7 0 1.5-1.2 2.6-2.7 2.6-1.5 0-2.6-1.2-2.6-2.7 0-1.5 1.2-2.7 2.7-2.6M370.7 509.8c1.5 0 2.6 1.2 2.6 2.7 0 1.5-1.2 2.6-2.7 2.6-1.5 0-2.6-1.2-2.6-2.7 0-1.4 1.2-2.6 2.7-2.6M416.1 512.6c1.1 0 2 .9 2 2s-.9 2-2 2-2-.9-2-2c.1-1.1.9-2 2-2M464 403.4c.7 0 1.3.6 1.3 1.3 0 .7-.6 1.3-1.3 1.3-.7 0-1.3-.6-1.3-1.3-.1-.7.5-1.3 1.3-1.3M438.4 390.5c.6 0 1.1.5 1.1 1.1 0 .6-.5 1.1-1.1 1.1-.6 0-1.1-.5-1.1-1.1 0-.6.5-1.1 1.1-1.1M451 331.5c.6 0 1.1.5 1.1 1.1 0 .6-.5 1.1-1.1 1.1-.6 0-1.1-.5-1.1-1.1-.1-.6.4-1.1 1.1-1.1M512.4 519.1c2 0 3.6 1.7 3.6 3.7s-1.7 3.6-3.7 3.6-3.6-1.7-3.6-3.7 1.7-3.6 3.7-3.6M545.3 535.3c1.4 0 2.5 1.2 2.5 2.6s-1.2 2.5-2.6 2.5c-1.4 0-2.5-1.2-2.5-2.6.1-1.4 1.2-2.5 2.6-2.5M629.7 479.4c1.4 0 2.5 1.2 2.5 2.6 0 1.4-1.2 2.5-2.6 2.5-1.4 0-2.5-1.2-2.5-2.6 0-1.4 1.2-2.5 2.6-2.5M603.6 410.3c1.4 0 2.5 1.2 2.5 2.6 0 1.4-1.2 2.5-2.6 2.5-1.4 0-2.5-1.2-2.5-2.6.1-1.4 1.2-2.5 2.6-2.5"/></svg>