<svg version="1.1" id="Layer_1" xmlns="http://www.w3.org/2000/svg" x="0" y="0" viewBox="0 0 700 509.8" style="enable-background:new 0 0 700 509.8" xml:space="preserve"><style>.st10,.st36,.st47,.st48,.st49{fill-rule:evenodd;clip-rule:evenodd;fill:#964c02}.st36,.st47,.st48,.st49{fill:#1a3d40}.st47,.st48,.st49{fill:#ffb669}.st48,.st49{fill:#eb5500}.st49{fill:#a90b00}.st50{fill:#faac59}.st50,.st61{fill-rule:evenodd;clip-rule:evenodd}.st62{fill:#a90b00}.st63{fill:#361b03}.st115,.st122,.st123,.st124,.st131,.st64{fill-rule:evenodd;clip-rule:evenodd;fill:#fff}.st115,.st122,.st123,.st124,.st131{fill:#245200}.st122,.st123,.st124,.st131{fill:#215600}.st123,.st124,.st131{fill:#1b4500}.st124,.st131{fill:#769623}.st131{fill:#002600}.st160{fill:#1b7726}.st161{fill:#004600}.st162{fill:#348a48}.st163{fill-rule:evenodd;clip-rule:evenodd;fill:#ee3e00}.st170{fill:#b60000}.st171,.st178,.st197,.st204{fill-rule:evenodd;clip-rule:evenodd;fill:#ba0800}.st178,.st197,.st204{fill:#a90000}.st197,.st204{fill:#e96100}.st204{fill:#f29100}</style><path d="M598.4 385.7c-40.5 57-106.7 95.3-182.7 97.8-45.3 1.5-88-9.8-124.4-30.7-24.6-14.4-51.9-22.6-81.8-24.5-39.2-1.6-74.9-17.5-101.5-42.6-28.4-26.8-46.6-64.1-48-106-.6-17.6 1.8-34.7 6.9-50.7.2-.7.5-1.5.7-2.2.1-.3.2-.7.3-1 .2-.5.3-1 .5-1.5.1-.4.2-.7.4-1.1.2-.6.4-1.2.7-1.8.1-.4.3-.7.4-1.1.2-.6.4-1.2.7-1.7.1-.3.3-.7.4-1 .2-.5.4-.9.6-1.4.1-.3.3-.7.4-1 .3-.7.6-1.5.9-2.2.1-.3.3-.6.4-.9.2-.5.5-1 .7-1.5.2-.3.3-.7.5-1 .2-.5.5-1 .7-1.4.1-.3.3-.6.4-.9.4-.7.7-1.4 1.1-2.1.2-.3.3-.6.5-.9.2-.5.5-.9.7-1.4.2-.3.4-.7.5-1 .3-.5.5-1 .8-1.4.1-.3.3-.5.4-.8l1.2-2.1c.2-.3.3-.6.5-.9.3-.5.5-.9.8-1.4.2-.3.4-.6.5-.9.4-.6.7-1.2 1.1-1.7.2-.3.3-.5.5-.8.4-.6.7-1.1 1.1-1.7.2-.3.4-.6.6-.8.3-.4.6-.9.9-1.3.2-.3.4-.6.6-.8.5-.7.9-1.3 1.4-1.9.2-.2.3-.5.5-.7.3-.5.7-.9 1-1.4.2-.3.4-.6.6-.8.3-.4.7-.9 1-1.3.2-.2.4-.5.5-.7.5-.6 1-1.3 1.5-1.9.2-.2.4-.4.5-.7.4-.5.7-.9 1.1-1.4.2-.2.4-.5.6-.7.4-.5.8-1 1.2-1.4.1-.2.3-.3.4-.5.5-.6 1.1-1.2 1.6-1.8.2-.2.4-.4.6-.7.4-.4.8-.9 1.2-1.3.2-.2.4-.4.6-.7.5-.5 1-1.1 1.5-1.6l.5-.5 1.5-1.5c.2-.2.4-.4.7-.6.4-.4.9-.8 1.3-1.2l.6-.6c.6-.6 1.2-1.1 1.8-1.7.1-.1.3-.2.4-.4.5-.5 1-.9 1.5-1.4l.6-.6c.5-.4 1-.9 1.5-1.3.2-.1.3-.3.5-.4.6-.5 1.3-1.1 1.9-1.6.2-.2.4-.3.6-.5l1.5-1.2c.2-.2.5-.4.7-.5.6-.4 1.1-.9 1.7-1.3.1-.1.2-.2.4-.3l2.1-1.5c.2-.2.4-.3.6-.4.5-.4 1-.7 1.6-1.1.2-.2.4-.3.7-.5.7-.5 1.4-1 2.1-1.4l.1-.1c.7-.5 1.4-.9 2.1-1.4.2-.1.4-.3.7-.4.6-.4 1.1-.7 1.7-1.1.2-.1.4-.3.6-.4.7-.5 1.5-.9 2.2-1.4l.3-.2c.7-.4 1.3-.8 2-1.1.2-.1.5-.3.7-.4.6-.3 1.2-.7 1.8-1l.6-.3c.8-.4 1.5-.8 2.3-1.2l.6-.3 1.8-.9.7-.3c.7-.3 1.4-.7 2.1-1l.3-.2c.8-.4 1.6-.7 2.4-1.1.2-.1.4-.2.7-.3.6-.3 1.2-.5 1.9-.8l.7-.3c.8-.3 1.6-.7 2.5-1h.1l1.6-.7 1.6-.7 1.6-.6 1.6-.6 1.6-.6 1.6-.6 1.6-.6 1.6-.6 1.6-.6 1.6-.6 1.6-.6 1.6-.6 1.6-.6 1.6-.6 1.6-.6 1.6-.6 1.6-.6 1.6-.6 1.6-.6 1.6-.6 1.6-.6 1.6-.6 1.6-.6c.5-.2 1-.4 1.6-.6.5-.2 1-.4 1.6-.6l1.5-.6 1.5-.6c.5-.2 1-.4 1.5-.7.5-.2 1-.4 1.5-.7.5-.2 1-.4 1.5-.7.5-.2 1-.4 1.5-.7.5-.2 1-.5 1.5-.7.5-.2 1-.5 1.5-.7.5-.2 1-.5 1.5-.7.5-.2 1-.5 1.5-.7.5-.2 1-.5 1.5-.7.5-.2 1-.5 1.5-.7.5-.2 1-.5 1.5-.7.5-.2 1-.5 1.5-.7.5-.2 1-.5 1.5-.8.5-.3 1-.5 1.5-.8.5-.3 1-.5 1.5-.8.5-.3 1-.5 1.5-.8.5-.3 1-.5 1.5-.8 1-.5 2-1.1 3-1.6.5-.3 1-.6 1.5-.8l1.5-.9c1-.6 2-1.2 2.9-1.8l1.5-.9 1.5-.9c1-.6 1.9-1.2 2.9-1.9.5-.3 1-.6 1.4-1 1-.7 1.9-1.3 2.9-2 .5-.3 1-.7 1.4-1 .5-.3 1-.7 1.4-1 .5-.4 1-.7 1.4-1.1.5-.4 1-.7 1.4-1.1.5-.4.9-.7 1.4-1.1.5-.4.9-.7 1.4-1.1.5-.4.9-.8 1.4-1.1.6-.5 1.2-1.1 1.8-1.6.6-.5 1.2-1 1.9-1.6.6-.5 1.2-1 1.9-1.5.6-.5 1.3-1 1.9-1.5.6-.5 1.3-1 1.9-1.5.6-.5 1.3-1 1.9-1.5.6-.5 1.3-1 1.9-1.5.6-.5 1.3-1 2-1.4.7-.5 1.3-1 2-1.4.7-.5 1.3-.9 2-1.4.7-.5 1.3-.9 2-1.4.7-.5 1.3-.9 2-1.4.7-.5 1.4-.9 2-1.3.7-.4 1.4-.9 2-1.3.7-.4 1.4-.9 2.1-1.3.7-.4 1.4-.9 2.1-1.3.7-.4 1.4-.8 2.1-1.3l2.1-1.2 2.1-1.2 2.1-1.2 2.1-1.2c.7-.4 1.4-.8 2.2-1.2.7-.4 1.4-.8 2.2-1.1.7-.4 1.5-.7 2.2-1.1.7-.4 1.5-.7 2.2-1.1.7-.4 1.5-.7 2.2-1.1.7-.4 1.5-.7 2.2-1 .7-.3 1.5-.7 2.2-1 .8-.3 1.5-.7 2.3-1 .8-.3 1.5-.7 2.3-1 .8-.3 1.5-.6 2.3-1 .8-.3 1.5-.6 2.3-.9.8-.3 1.5-.6 2.3-.9.8-.3 1.5-.6 2.3-.9.8-.3 1.6-.6 2.3-.9.8-.3 1.6-.6 2.3-.8.8-.3 1.6-.5 2.4-.8.8-.3 1.6-.5 2.4-.8.8-.3 1.6-.5 2.4-.8.8-.3 1.6-.5 2.4-.7.8-.2 1.6-.5 2.4-.7.8-.2 1.6-.5 2.4-.7.8-.2 1.6-.4 2.4-.7l2.4-.6 2.4-.6c.8-.2 1.6-.4 2.5-.6.8-.2 1.6-.4 2.5-.6.8-.2 1.7-.4 2.5-.5.8-.2 1.7-.3 2.5-.5s1.7-.3 2.5-.5 1.7-.3 2.5-.5c.8-.1 1.7-.3 2.5-.4.8-.1 1.7-.3 2.5-.4.8-.1 1.7-.3 2.5-.4.8-.1 1.7-.2 2.5-.4.9-.1 1.7-.2 2.6-.3.9-.1 1.7-.2 2.6-.3.9-.1 1.7-.2 2.6-.3.9-.1 1.7-.2 2.6-.2.9-.1 1.7-.1 2.6-.2.9-.1 1.7-.1 2.6-.2.9-.1 1.7-.1 2.6-.2.9 0 1.7-.1 2.6-.1.9 0 1.7-.1 2.6-.1 2-.1 3.9-.1 5.9-.1h5.8c.8 0 1.5 0 2.3.1 1.2 0 2.3.1 3.5.1.8 0 1.6.1 2.4.1 1.1.1 2.2.1 3.3.2.8.1 1.7.1 2.5.2 1.1.1 2.2.2 3.2.3.9.1 1.7.2 2.5.2 1 .1 2.1.2 3.1.3.9.1 1.7.2 2.6.3 1 .1 2 .3 3.1.4.9.1 1.7.2 2.6.4 1 .1 2 .3 3 .5.9.1 1.7.3 2.6.4 1 .2 2 .3 3 .5.9.2 1.7.3 2.6.5 1 .2 2 .4 2.9.6.9.2 1.7.4 2.6.6 1 .2 1.9.4 2.9.7.9.2 1.7.4 2.6.6 1 .2 1.9.5 2.9.7.8.2 1.7.4 2.5.7 1 .3 1.9.5 2.8.8.8.2 1.7.5 2.5.7.9.3 1.9.6 2.8.9.8.3 1.6.5 2.5.8.9.3 1.9.6 2.8.9.8.3 1.6.5 2.4.8.9.3 1.9.7 2.8 1l2.4.9c.9.4 1.9.7 2.8 1.1.8.3 1.6.6 2.3.9.9.4 1.9.8 2.8 1.2.7.3 1.5.6 2.2.9 1 .4 2 .9 3 1.3.7.3 1.3.6 2 .9 1.3.6 2.5 1.2 3.8 1.8.9.4 1.8.9 2.7 1.4 1.1.5 2.2 1.1 3.2 1.6.7.4 1.4.8 2.1 1.1.9.5 1.8.9 2.7 1.4.8.4 1.5.8 2.2 1.3.8.5 1.7.9 2.5 1.4.8.4 1.5.9 2.3 1.4.8.5 1.6.9 2.4 1.4.8.5 1.5 1 2.3 1.4.8.5 1.5 1 2.3 1.4.8.5 1.5 1 2.3 1.5.7.5 1.5 1 2.2 1.5.8.5 1.5 1 2.3 1.6.7.5 1.5 1 2.2 1.5.7.5 1.5 1.1 2.2 1.6.7.5 1.4 1 2.1 1.6.7.6 1.5 1.1 2.2 1.7.7.5 1.4 1.1 2.1 1.6.7.6 1.5 1.2 2.2 1.7.7.5 1.4 1.1 2 1.7l2.1 1.8c.7.6 1.3 1.1 2 1.7.7.6 1.4 1.2 2.1 1.9.6.6 1.3 1.1 1.9 1.7.7.6 1.4 1.3 2.1 1.9.6.6 1.2 1.2 1.8 1.7.7.7 1.4 1.3 2.1 2l1.8 1.8 2 2c.6.6 1.1 1.2 1.7 1.8.7.7 1.4 1.4 2 2.1.5.6 1.1 1.2 1.6 1.7.7.7 1.4 1.5 2 2.2l1.5 1.8c.7.8 1.3 1.5 2 2.3.5.6 1 1.1 1.4 1.7.7.8 1.4 1.6 2 2.4.4.5.7.9 1.1 1.4 2.8 3.5 5.5 7.1 8.1 10.7.1.2.3.4.4.6.7 1 1.4 2 2 3 .3.5.7 1 1 1.5.6.9 1.2 1.9 1.8 2.8.4.6.7 1.1 1.1 1.7.6.9 1.1 1.8 1.7 2.8.4.6.8 1.2 1.1 1.8.6.9 1.1 1.9 1.6 2.8.4.6.7 1.3 1.1 1.9.5.9 1 1.9 1.6 2.8.4.7.7 1.3 1.1 2 .5.9 1 1.9 1.5 2.8.3.7.7 1.3 1 2 .5.9.9 1.9 1.4 2.8.3.7.7 1.4 1 2 .5.9.9 1.9 1.3 2.8.3.7.6 1.4 1 2.1.4 1 .9 1.9 1.3 2.9l.9 2.1c.4 1 .8 2 1.2 2.9.3.7.6 1.4.8 2.1.4 1 .8 2 1.1 3 .3.7.5 1.4.8 2.1.4 1 .7 2 1.1 3 .2.7.5 1.4.7 2.1.3 1 .7 2.1 1 3.1.2.7.4 1.4.7 2.1.3 1.1.6 2.1 1 3.2l.6 2.1c.3 1.1.6 2.2.9 3.2.2.7.4 1.4.5 2.1.3 1.1.6 2.2.8 3.3.2.6.3 1.3.4 2 .3 1.2.5 2.3.8 3.5.1.6.2 1.2.4 1.8.3 1.2.5 2.5.7 3.7.1.3.1.7.2 1 2 10.8 3.2 22 3.6 33.3 2.5 51.2-13.1 99.2-40.9 138.4z" style="fill-rule:evenodd;clip-rule:evenodd;fill:#f2fbfa"/><defs><filter id="Adobe_OpacityMaskFilter" filterUnits="userSpaceOnUse" x="59.8" y="26.1" width="580.5" height="457.6"><feColorMatrix values="1 0 0 0 0 0 1 0 0 0 0 0 1 0 0 0 0 0 1 0"/></filter></defs><mask maskUnits="userSpaceOnUse" x="59.8" y="26.1" width="580.5" height="457.6" id="SVGID_1_"><g style="filter:url(#Adobe_OpacityMaskFilter)"><linearGradient id="SVGID_2_" gradientUnits="userSpaceOnUse" x1="-61.616" y1="365.517" x2="153.253" y2="452.575" gradientTransform="translate(265.871 -169.69)"><stop offset="0" style="stop-color:#000"/><stop offset="1" style="stop-color:#fff"/></linearGradient><path style="fill:url(#SVGID_2_)" d="M59.8 26.1h580.5v457.6H59.8z"/></g></mask><path d="M598.4 385.7c-40.5 57-106.7 95.3-182.7 97.8-45.3 1.5-88-9.8-124.4-30.7-24.6-14.4-51.9-22.6-81.8-24.5-39.2-1.6-74.9-17.5-101.5-42.6-28.4-26.8-46.6-64.1-48-106-.6-17.6 1.8-34.7 6.9-50.7.2-.7.5-1.5.7-2.2.1-.3.2-.7.3-1 .2-.5.3-1 .5-1.5.1-.4.2-.7.4-1.1.2-.6.4-1.2.7-1.8.1-.4.3-.7.4-1.1.2-.6.4-1.2.7-1.7.1-.3.3-.7.4-1 .2-.5.4-.9.6-1.4.1-.3.3-.7.4-1 .3-.7.6-1.5.9-2.2.1-.3.3-.6.4-.9.2-.5.5-1 .7-1.5.2-.3.3-.7.5-1 .2-.5.5-1 .7-1.4.1-.3.3-.6.4-.9.4-.7.7-1.4 1.1-2.1.2-.3.3-.6.5-.9.2-.5.5-.9.7-1.4.2-.3.4-.7.5-1 .3-.5.5-1 .8-1.4.1-.3.3-.5.4-.8l1.2-2.1c.2-.3.3-.6.5-.9.3-.5.5-.9.8-1.4.2-.3.4-.6.5-.9.4-.6.7-1.2 1.1-1.7.2-.3.3-.5.5-.8.4-.6.7-1.1 1.1-1.7.2-.3.4-.6.6-.8.3-.4.6-.9.9-1.3.2-.3.4-.6.6-.8.5-.7.9-1.3 1.4-1.9.2-.2.3-.5.5-.7.3-.5.7-.9 1-1.4.2-.3.4-.6.6-.8.3-.4.7-.9 1-1.3.2-.2.4-.5.5-.7.5-.6 1-1.3 1.5-1.9.2-.2.4-.4.5-.7.4-.5.7-.9 1.1-1.4.2-.2.4-.5.6-.7.4-.5.8-1 1.2-1.4.1-.2.3-.3.4-.5.5-.6 1.1-1.2 1.6-1.8.2-.2.4-.4.6-.7.4-.4.8-.9 1.2-1.3.2-.2.4-.4.6-.7.5-.5 1-1.1 1.5-1.6l.5-.5 1.5-1.5c.2-.2.4-.4.7-.6.4-.4.9-.8 1.3-1.2l.6-.6c.6-.6 1.2-1.1 1.8-1.7.1-.1.3-.2.4-.4.5-.5 1-.9 1.5-1.4l.6-.6c.5-.4 1-.9 1.5-1.3.2-.1.3-.3.5-.4.6-.5 1.3-1.1 1.9-1.6.2-.2.4-.3.6-.5l1.5-1.2c.2-.2.5-.4.7-.5.6-.4 1.1-.9 1.7-1.3.1-.1.2-.2.4-.3l2.1-1.5c.2-.2.4-.3.6-.4.5-.4 1-.7 1.6-1.1.2-.2.4-.3.7-.5.7-.5 1.4-1 2.1-1.4l.1-.1c.7-.5 1.4-.9 2.1-1.4.2-.1.4-.3.7-.4.6-.4 1.1-.7 1.7-1.1.2-.1.4-.3.6-.4.7-.5 1.5-.9 2.2-1.4l.3-.2c.7-.4 1.3-.8 2-1.1.2-.1.5-.3.7-.4.6-.3 1.2-.7 1.8-1l.6-.3c.8-.4 1.5-.8 2.3-1.2l.6-.3 1.8-.9.7-.3c.7-.3 1.4-.7 2.1-1l.3-.2c.8-.4 1.6-.7 2.4-1.1.2-.1.4-.2.7-.3.6-.3 1.2-.5 1.9-.8l.7-.3c.8-.3 1.6-.7 2.5-1h.1l1.6-.7 1.6-.7 1.6-.6 1.6-.6 1.6-.6 1.6-.6 1.6-.6 1.6-.6 1.6-.6 1.6-.6 1.6-.6 1.6-.6 1.6-.6 1.6-.6 1.6-.6 1.6-.6 1.6-.6 1.6-.6 1.6-.6 1.6-.6 1.6-.6 1.6-.6 1.6-.6c.5-.2 1-.4 1.6-.6.5-.2 1-.4 1.6-.6l1.5-.6 1.5-.6c.5-.2 1-.4 1.5-.7.5-.2 1-.4 1.5-.7.5-.2 1-.4 1.5-.7.5-.2 1-.4 1.5-.7.5-.2 1-.5 1.5-.7.5-.2 1-.5 1.5-.7.5-.2 1-.5 1.5-.7.5-.2 1-.5 1.5-.7.5-.2 1-.5 1.5-.7.5-.2 1-.5 1.5-.7.5-.2 1-.5 1.5-.7.5-.2 1-.5 1.5-.7.5-.2 1-.5 1.5-.8.5-.3 1-.5 1.5-.8.5-.3 1-.5 1.5-.8.5-.3 1-.5 1.5-.8.5-.3 1-.5 1.5-.8 1-.5 2-1.1 3-1.6.5-.3 1-.6 1.5-.8l1.5-.9c1-.6 2-1.2 2.9-1.8l1.5-.9 1.5-.9c1-.6 1.9-1.2 2.9-1.9.5-.3 1-.6 1.4-1 1-.7 1.9-1.3 2.9-2 .5-.3 1-.7 1.4-1 .5-.3 1-.7 1.4-1 .5-.4 1-.7 1.4-1.1.5-.4 1-.7 1.4-1.1.5-.4.9-.7 1.4-1.1.5-.4.9-.7 1.4-1.1.5-.4.9-.8 1.4-1.1.6-.5 1.2-1.1 1.8-1.6.6-.5 1.2-1 1.9-1.6.6-.5 1.2-1 1.9-1.5.6-.5 1.3-1 1.9-1.5.6-.5 1.3-1 1.9-1.5.6-.5 1.3-1 1.9-1.5.6-.5 1.3-1 1.9-1.5.6-.5 1.3-1 2-1.4.7-.5 1.3-1 2-1.4.7-.5 1.3-.9 2-1.4.7-.5 1.3-.9 2-1.4.7-.5 1.3-.9 2-1.4.7-.5 1.4-.9 2-1.3.7-.4 1.4-.9 2-1.3.7-.4 1.4-.9 2.1-1.3.7-.4 1.4-.9 2.1-1.3.7-.4 1.4-.8 2.1-1.3l2.1-1.2 2.1-1.2 2.1-1.2 2.1-1.2c.7-.4 1.4-.8 2.2-1.2.7-.4 1.4-.8 2.2-1.1.7-.4 1.5-.7 2.2-1.1.7-.4 1.5-.7 2.2-1.1.7-.4 1.5-.7 2.2-1.1.7-.4 1.5-.7 2.2-1 .7-.3 1.5-.7 2.2-1 .8-.3 1.5-.7 2.3-1 .8-.3 1.5-.7 2.3-1 .8-.3 1.5-.6 2.3-1 .8-.3 1.5-.6 2.3-.9.8-.3 1.5-.6 2.3-.9.8-.3 1.5-.6 2.3-.9.8-.3 1.6-.6 2.3-.9.8-.3 1.6-.6 2.3-.8.8-.3 1.6-.5 2.4-.8.8-.3 1.6-.5 2.4-.8.8-.3 1.6-.5 2.4-.8.8-.3 1.6-.5 2.4-.7.8-.2 1.6-.5 2.4-.7.8-.2 1.6-.5 2.4-.7.8-.2 1.6-.4 2.4-.7l2.4-.6 2.4-.6c.8-.2 1.6-.4 2.5-.6.8-.2 1.6-.4 2.5-.6.8-.2 1.7-.4 2.5-.5.8-.2 1.7-.3 2.5-.5s1.7-.3 2.5-.5 1.7-.3 2.5-.5c.8-.1 1.7-.3 2.5-.4.8-.1 1.7-.3 2.5-.4.8-.1 1.7-.3 2.5-.4.8-.1 1.7-.2 2.5-.4.9-.1 1.7-.2 2.6-.3.9-.1 1.7-.2 2.6-.3.9-.1 1.7-.2 2.6-.3.9-.1 1.7-.2 2.6-.2.9-.1 1.7-.1 2.6-.2.9-.1 1.7-.1 2.6-.2.9-.1 1.7-.1 2.6-.2.9 0 1.7-.1 2.6-.1.9 0 1.7-.1 2.6-.1 2-.1 3.9-.1 5.9-.1h5.8c.8 0 1.5 0 2.3.1 1.2 0 2.3.1 3.5.1.8 0 1.6.1 2.4.1 1.1.1 2.2.1 3.3.2.8.1 1.7.1 2.5.2 1.1.1 2.2.2 3.2.3.9.1 1.7.2 2.5.2 1 .1 2.1.2 3.1.3.9.1 1.7.2 2.6.3 1 .1 2 .3 3.1.4.9.1 1.7.2 2.6.4 1 .1 2 .3 3 .5.9.1 1.7.3 2.6.4 1 .2 2 .3 3 .5.9.2 1.7.3 2.6.5 1 .2 2 .4 2.9.6.9.2 1.7.4 2.6.6 1 .2 1.9.4 2.9.7.9.2 1.7.4 2.6.6 1 .2 1.9.5 2.9.7.8.2 1.7.4 2.5.7 1 .3 1.9.5 2.8.8.8.2 1.7.5 2.5.7.9.3 1.9.6 2.8.9.8.3 1.6.5 2.5.8.9.3 1.9.6 2.8.9.8.3 1.6.5 2.4.8.9.3 1.9.7 2.8 1l2.4.9c.9.4 1.9.7 2.8 1.1.8.3 1.6.6 2.3.9.9.4 1.9.8 2.8 1.2.7.3 1.5.6 2.2.9 1 .4 2 .9 3 1.3.7.3 1.3.6 2 .9 1.3.6 2.5 1.2 3.8 1.8.9.4 1.8.9 2.7 1.4 1.1.5 2.2 1.1 3.2 1.6.7.4 1.4.8 2.1 1.1.9.5 1.8.9 2.7 1.4.8.4 1.5.8 2.2 1.3.8.5 1.7.9 2.5 1.4.8.4 1.5.9 2.3 1.4.8.5 1.6.9 2.4 1.4.8.5 1.5 1 2.3 1.4.8.5 1.5 1 2.3 1.4.8.5 1.5 1 2.3 1.5.7.5 1.5 1 2.2 1.5.8.5 1.5 1 2.3 1.6.7.5 1.5 1 2.2 1.5.7.5 1.5 1.1 2.2 1.6.7.5 1.4 1 2.1 1.6.7.6 1.5 1.1 2.2 1.7.7.5 1.4 1.1 2.1 1.6.7.6 1.5 1.2 2.2 1.7.7.5 1.4 1.1 2 1.7l2.1 1.8c.7.6 1.3 1.1 2 1.7.7.6 1.4 1.2 2.1 1.9.6.6 1.3 1.1 1.9 1.7.7.6 1.4 1.3 2.1 1.9.6.6 1.2 1.2 1.8 1.7.7.7 1.4 1.3 2.1 2l1.8 1.8 2 2c.6.6 1.1 1.2 1.7 1.8.7.7 1.4 1.4 2 2.1.5.6 1.1 1.2 1.6 1.7.7.7 1.4 1.5 2 2.2l1.5 1.8c.7.8 1.3 1.5 2 2.3.5.6 1 1.1 1.4 1.7.7.8 1.4 1.6 2 2.4.4.5.7.9 1.1 1.4 2.8 3.5 5.5 7.1 8.1 10.7.1.2.3.4.4.6.7 1 1.4 2 2 3 .3.5.7 1 1 1.5.6.9 1.2 1.9 1.8 2.8.4.6.7 1.1 1.1 1.7.6.9 1.1 1.8 1.7 2.8.4.6.8 1.2 1.1 1.8.6.9 1.1 1.9 1.6 2.8.4.6.7 1.3 1.1 1.9.5.9 1 1.9 1.6 2.8.4.7.7 1.3 1.1 2 .5.9 1 1.9 1.5 2.8.3.7.7 1.3 1 2 .5.9.9 1.9 1.4 2.8.3.7.7 1.4 1 2 .5.9.9 1.9 1.3 2.8.3.7.6 1.4 1 2.1.4 1 .9 1.9 1.3 2.9l.9 2.1c.4 1 .8 2 1.2 2.9.3.7.6 1.4.8 2.1.4 1 .8 2 1.1 3 .3.7.5 1.4.8 2.1.4 1 .7 2 1.1 3 .2.7.5 1.4.7 2.1.3 1 .7 2.1 1 3.1.2.7.4 1.4.7 2.1.3 1.1.6 2.1 1 3.2l.6 2.1c.3 1.1.6 2.2.9 3.2.2.7.4 1.4.5 2.1.3 1.1.6 2.2.8 3.3.2.6.3 1.3.4 2 .3 1.2.5 2.3.8 3.5.1.6.2 1.2.4 1.8.3 1.2.5 2.5.7 3.7.1.3.1.7.2 1 2 10.8 3.2 22 3.6 33.3 2.5 51.2-13.1 99.2-40.9 138.4z" style="mask:url(#SVGID_1_);fill-rule:evenodd;clip-rule:evenodd;fill:#d5f0ed"/><path d="M62.5 303.5c6.8 34.9 25.5 66.3 52.9 88.9 156.9-3 331.5-41.8 523.8-116.5 1.9-20.7 1-41.7-2.7-62.2l-61.7 3.6v-3.5h6.4l-3.6-6.4h2.5l-3.6-6.5h2l-4.7-8.5-4.7 8.5h2l-3.6 6.5h2.5l-3.6 6.4h6.3v3.6l-40.6 2.4s-52.1-13.9-156.4-41.6h-25l-52.8 31.6v-6.3h7.7l-4.3-7.7h3.1l-4.3-7.8h2.4l-5.7-10.3-5.7 10.3h2.4l-4.3 7.8h3.1l-4.3 7.7h7.6v7.9l-80.2 48s-23.3 2.9-69.9 8.6c-.4 0-27.9 11.9-83 35.5" style="fill-rule:evenodd;clip-rule:evenodd;fill:#c8ebe6"/><path d="m154.1 322.2-5.8 3.1v-3.1h5.8zm-49 60.8c349.4-25.5 522.5-40.5 519.3-45.3 9-22.8 14.3-46.9 15.5-71.4l-34.1 2.1v-8.7h9.3l-5.2-9.4h3.7l-5.3-9.5h2.9l-6.9-12.5-6.9 12.5h2.9l-5.3 9.5h3.7l-5.2 9.4h9.2v8.9l-34.1 2.1s-59-17.1-176.9-51.3c0 0-17.4 1-52.3 3l-.5.3v-4.9h11.6l-6.5-11.7h4.6l-6.6-11.8h3.6l-8.7-15.5-8.7 15.5h3.6l-6.6 11.8h4.6l-6.5 11.7h11.5v7L156 321.1l-4.2-7.5h3.4l-4.9-8.7h2.7l-6.4-11.5-6.4 11.5h2.7l-4.9 8.7h3.4l-4.8 8.7h8.5v4.7l-5.9 3.2s-23.9-2.2-71.7-6.5c8 22.3 20.8 42.6 37.6 59.3z" style="fill-rule:evenodd;clip-rule:evenodd;fill:#a6dbd4"/><path d="M194.9 411.1c237.5-6.3 356.2-9.5 356.2-9.5s22.5-16.8 67.5-50.3c2.1-4.5 4.1-9 5.9-13.6-1-6.9-5.2-12.9-11.4-16.2-6.2-3.3-13.5-3.5-19.8-.5-2.3-5.8-7-10.5-12.8-12.7-5.9-2.2-12.4-1.9-18 .9 0 0-97 7.4-291 22.3-6.1-7.2-16-9.7-24.7-6.2-8.7 3.4-14.3 12-13.9 21.4-6.1-6.7-15.8-8.7-24.1-5-8.3 3.7-13.2 12.4-12.2 21.4-3.7-1.4-7.8-1.2-11.2.6-3.5 1.8-6 5.1-6.9 8.9-10.9-4.4-23.4-2.4-32.4 5.2-13.8-8.2-31.2-7.6-44.4 1.6 8.7 9.3 18.6 17.4 29.3 24.3 42.5 4.9 63.9 7.4 63.9 7.4" style="fill-rule:evenodd;clip-rule:evenodd;fill:#6caf80"/><path d="M282.4 423c148.4-.7 222.6-1.1 222.6-1.1s32.7-14.4 98.2-43.3c5.7-8.7 10.8-17.9 15.3-27.3-10-5.6-22.5-3.9-30.6 4.1-13.2-12.5-32.3-16.7-49.5-10.9l-261.9 23.4c-9.1-7.3-21.5-8.9-32.3-4.3-10.7 4.6-18.1 14.7-19.1 26.3-4.8-3.6-10.9-4.8-16.6-3.4-5.8 1.4-10.6 5.4-13.2 10.7-12.9-9.5-31-6.8-40.6 6-7.1-5.5-17-5.4-23.9.3 13.8 8.8 28.8 15.4 44.6 19.6 68.5 3.6 104.1 3.5 107-.1" style="fill-rule:evenodd;clip-rule:evenodd;fill:#4d9660"/><path d="M264.6 440.1c33.4 8.3 50.1 12.4 50.1 12.4s65.3-3.1 196-9.3c0 0 22.3-10.8 67-32.3 9.5-10 18-20.8 25.5-32.3-5.6-4.2-13.5-3.6-18.3 1.4-2.2-3.6-5.8-6.1-10-6.7-4.2-.7-8.4.6-11.5 3.3-10.5-4.6-22.7-2.9-31.5 4.3 1.7.5-.6-5.7-7-18.6 0 0-72.2 14.9-216.5 44.6-1-.6-2.1-1.1-3.1-1.6 1.3-2.9 1.6-6.1.8-9.3-5-2.2-10.6-2.3-15.6-.1-5 2.2-8.8 6.3-10.6 11.5-5.9-7.5-15.3-11.3-24.7-9.9-9.4 1.4-17.4 7.7-20.8 16.6-7.8-1.8-15.8 1.2-20.6 7.6-12.4-5.1-26.4-4.5-38.2 1.6 9 2.4 18.2 3.9 27.4 4.7 22.6.9 43.1 4.9 61.6 12.1" style="fill-rule:evenodd;clip-rule:evenodd;fill:#317443"/><path d="M291.2 452.8c-8.7-5.1-17.6-9.3-26.6-12.8 14.2-6.3 30.8-3.7 42.4 6.6 25.1-14.8 57-11.4 78.5 8.4 0 0 33.4-5.9 100.2-17.8 4.2-13.7 15.1-24.2 28.8-28.1 13.8-3.9 28.5-.5 39.3 8.9 5.4-7.7 15.3-10.7 24-7.3-10 10.6-21 20.2-32.8 28.7-117.6 27.3-176.4 40.9-176.4 40.9-22.2-3.7-43.8-10.6-64-20.6-8.9-4.5-13.4-6.9-13.4-6.9" style="fill-rule:evenodd;clip-rule:evenodd;fill:#0d3c17"/><path class="st10" d="M451.9 90c27.6.3 52.1 5.3 73.5 15.1-2.9-19.8-11.1-32.5-31.2-38.6-6.6-2-13.6-3.1-18.3-2.1-2.3.5-4.4 1.7-6.4 4.2C457.8 82.8 451.9 90 451.9 90"/><defs><filter id="Adobe_OpacityMaskFilter_1_" filterUnits="userSpaceOnUse" x="494.3" y="69.2" width="27.1" height="33.7"><feColorMatrix values="1 0 0 0 0 0 1 0 0 0 0 0 1 0 0 0 0 0 1 0"/></filter></defs><mask maskUnits="userSpaceOnUse" x="494.3" y="69.2" width="27.1" height="33.7" id="SVGID_3_"><g style="filter:url(#Adobe_OpacityMaskFilter_1_)"><linearGradient id="SVGID_4_" gradientUnits="userSpaceOnUse" x1="-241.422" y1="648.621" x2="-205.538" y2="663.353" gradientTransform="translate(725.446 -572.341)"><stop offset="0" style="stop-color:#000"/><stop offset="1" style="stop-color:#fff"/></linearGradient><path style="fill:url(#SVGID_4_)" d="M494.3 69.2h27.1v33.7h-27.1z"/></g></mask><path d="M502 95.8c6.8 1.9 13.3 4.3 19.4 7.1-2.5-17.2-9.7-28.3-27.1-33.7 4 8.6-6.4 20.3 7.7 26.6" style="mask:url(#SVGID_3_);fill-rule:evenodd;clip-rule:evenodd;fill:#521000"/><path d="M490.3 89.6c40.7 10.8 68.6 38.8 62.3 62.5-6.3 23.7-44.4 34.1-85.1 23.3-40.7-10.8-68.6-38.8-62.3-62.5 6.3-23.7 44.4-34.1 85.1-23.3" style="fill-rule:evenodd;clip-rule:evenodd;fill:#cb832d"/><path class="st10" d="M488.7 95.3c38.3 10.2 64.6 36.6 58.7 58.9-5.9 22.3-41.9 32.2-80.2 21.9-38.3-10.2-64.6-36.6-58.7-58.9 6-22.3 41.9-32.2 80.2-21.9"/><defs><filter id="Adobe_OpacityMaskFilter_2_" filterUnits="userSpaceOnUse" x="495.3" y="126.7" width="43.1" height="51.8"><feColorMatrix values="1 0 0 0 0 0 1 0 0 0 0 0 1 0 0 0 0 0 1 0"/></filter></defs><mask maskUnits="userSpaceOnUse" x="495.3" y="126.7" width="43.1" height="51.8" id="SVGID_5_"><g style="filter:url(#Adobe_OpacityMaskFilter_2_)"><linearGradient id="SVGID_6_" gradientUnits="userSpaceOnUse" x1="-173.395" y1="673.586" x2="-216.579" y2="639.527" gradientTransform="translate(726.49 -492.433)"><stop offset="0" style="stop-color:#000"/><stop offset="1" style="stop-color:#fff"/></linearGradient><path style="fill:url(#SVGID_6_)" d="M495.3 126.7h43.1v51.8h-43.1z"/></g></mask><path d="M513.8 126.7c-22.1 39.3-25 55.4-5.5 51.2 37.3-6.6 35.1-15.4 19.1-39.7-2.9-4.5-8.3-7.6-13.6-11.5" style="mask:url(#SVGID_5_);fill-rule:evenodd;clip-rule:evenodd;fill:#3a0500"/><path d="M399.9 320.5c-18.1-7.7-36.4-15-54.7-21.9 8.5-17.4 29.2-56.6 46.6-79.1 23.4-30.3 44.3-7.5 43 21.6-.9 18.8-9.2 34.4-19.1 51.9-10.6 18.3-15.8 27.5-15.8 27.5" style="fill-rule:evenodd;clip-rule:evenodd;fill:#0e3236"/><path d="M522.1 349.9c25.9-88 48.7-126.4 48.7-126.4-28.2-14.3-54.1-26.5-54.1-26.5-47.4-4-69.6-7.8-69.6-7.8-15.2 6.7-35.6 11.1-43.9 21.5-3.6 4.5-6 10.1-7.2 16.9-9.1 49.5-13.6 74.3-13.6 74.3 4.3 30.9 25.6 56.8 55.1 66.9 29.5 10.1 62.2 2.8 84.6-18.9" style="fill-rule:evenodd;clip-rule:evenodd;fill:#041d21"/><path d="M506 175c3.4 4.9 2.9 11.5-1.2 15.8-1.3 5.9-15.5 19-42.7 39.3 0 0-.8.5-2.5 1.4 0 0-1.7-15.9-5-47.6 1.5-10.4 19.1-18.5 53-24.2 0 .1-.5 5.1-1.6 15.3" style="fill-rule:evenodd;clip-rule:evenodd;fill:#f29b3c"/><defs><filter id="Adobe_OpacityMaskFilter_3_" filterUnits="userSpaceOnUse" x="427.5" y="201.8" width="32.1" height="38.5"><feColorMatrix values="1 0 0 0 0 0 1 0 0 0 0 0 1 0 0 0 0 0 1 0"/></filter></defs><mask maskUnits="userSpaceOnUse" x="427.5" y="201.8" width="32.1" height="38.5" id="SVGID_7_"><g style="filter:url(#Adobe_OpacityMaskFilter_3_)"><linearGradient id="SVGID_8_" gradientUnits="userSpaceOnUse" x1="-231.992" y1="658.809" x2="-209.261" y2="647.093" gradientTransform="translate(654.789 -427.018)"><stop offset="0" style="stop-color:#000"/><stop offset="1" style="stop-color:#fff"/></linearGradient><path style="fill:url(#SVGID_8_)" d="M427.5 201.8h32.1v38.5h-32.1z"/></g></mask><path d="M452.8 214.8c5.5 8.2 7.6 16.8 6.5 25.5-5.9-19.8-49.8-7.9-23.4-31.3 8.8-11.2 14.4-9.3 16.9 5.8" style="mask:url(#SVGID_7_);fill-rule:evenodd;clip-rule:evenodd;fill:#010c0d"/><defs><filter id="Adobe_OpacityMaskFilter_4_" filterUnits="userSpaceOnUse" x="419" y="195.1" width="17.8" height="69.1"><feColorMatrix values="1 0 0 0 0 0 1 0 0 0 0 0 1 0 0 0 0 0 1 0"/></filter></defs><mask maskUnits="userSpaceOnUse" x="419" y="195.1" width="17.8" height="69.1" id="SVGID_9_"><g style="filter:url(#Adobe_OpacityMaskFilter_4_)"><linearGradient id="SVGID_10_" gradientUnits="userSpaceOnUse" x1="-188.865" y1="647.866" x2="-240.067" y2="618.865" gradientTransform="translate(645.819 -401.76)"><stop offset="0" style="stop-color:#000"/><stop offset="1" style="stop-color:#fff"/></linearGradient><path style="fill:url(#SVGID_10_)" d="M419 195.1h17.8v69.1H419z"/></g></mask><path d="M420.6 263.3c8.7.6 13 .9 13 .9s.7-20.5 2-61.5c.1-3.5.5-6 1.2-7.6-3.1 1.1-4.7 1.6-4.7 1.6-11.7 16.3-15.6 38.5-11.5 66.6" style="mask:url(#SVGID_9_);fill-rule:evenodd;clip-rule:evenodd"/><defs><filter id="Adobe_OpacityMaskFilter_5_" filterUnits="userSpaceOnUse" x="453" y="200.1" width="121.3" height="106.9"><feColorMatrix values="1 0 0 0 0 0 1 0 0 0 0 0 1 0 0 0 0 0 1 0"/></filter></defs><mask maskUnits="userSpaceOnUse" x="453" y="200.1" width="121.3" height="106.9" id="SVGID_11_"><g style="filter:url(#Adobe_OpacityMaskFilter_5_)"><linearGradient id="SVGID_12_" gradientUnits="userSpaceOnUse" x1="-234.63" y1="656.766" x2="-161.784" y2="605.64" gradientTransform="translate(681.705 -356.581)"><stop offset="0" style="stop-color:#000"/><stop offset="1" style="stop-color:#fff"/></linearGradient><path style="fill:url(#SVGID_12_)" d="M453 200.1h121.3V307H453z"/></g></mask><path d="M453 262.4c9.4 32.4 43.1 51.2 75.6 42.4 32.5-8.8 52-42.1 43.8-74.8 0 0-19.4-10-58.2-29.9 0 0-6.8 4.7-20.5 14 3.3 2.4 6.1 5.4 8.2 8.7-4.5-1.1-10.4-1.4-17.7-.9-.6-2.5-8.1.3-22.6 8.6-2.4.3-2.6 1.8-.5 4.7 6.4-3.1 14.2-1.4 18.7 4.1 4.5 5.6 4.6 13.5.3 19.2-4.4 5.7-12.1 7.6-18.6 4.6 17.2 9.8 31.7 5.4 43.5-13.2-3.2 9.2-10.4 16.5-19.8 19.7-11.4 3.8-23.7 1-32.2-7.2" style="mask:url(#SVGID_11_);fill-rule:evenodd;clip-rule:evenodd;fill:#010c0d"/><defs><filter id="Adobe_OpacityMaskFilter_6_" filterUnits="userSpaceOnUse" x="454.3" y="167.1" width="51.4" height="40.8"><feColorMatrix values="1 0 0 0 0 0 1 0 0 0 0 0 1 0 0 0 0 0 1 0"/></filter></defs><mask maskUnits="userSpaceOnUse" x="454.3" y="167.1" width="51.4" height="40.8" id="SVGID_13_"><g style="filter:url(#Adobe_OpacityMaskFilter_6_)"><linearGradient id="SVGID_14_" gradientUnits="userSpaceOnUse" x1="-240.676" y1="672.706" x2="-186.458" y2="638.231" gradientTransform="translate(683.11 -461.304)"><stop offset="0" style="stop-color:#000"/><stop offset="1" style="stop-color:#fff"/></linearGradient><path style="fill:url(#SVGID_14_)" d="M454.3 167.1h51.4v40.8h-51.4z"/></g></mask><path d="M458.6 176.5c31.4-6.3 47.1-9.4 47.1-9.4-20 35.7-37.1 48-51.4 36.8 2.9-18.3 4.3-27.4 4.3-27.4" style="mask:url(#SVGID_13_);fill-rule:evenodd;clip-rule:evenodd;fill:#e94f00"/><defs><filter id="Adobe_OpacityMaskFilter_7_" filterUnits="userSpaceOnUse" x="454.8" y="177.3" width="43.1" height="22.3"><feColorMatrix values="1 0 0 0 0 0 1 0 0 0 0 0 1 0 0 0 0 0 1 0"/></filter></defs><mask maskUnits="userSpaceOnUse" x="454.8" y="177.3" width="43.1" height="22.3" id="SVGID_15_"><g style="filter:url(#Adobe_OpacityMaskFilter_7_)"><linearGradient id="SVGID_16_" gradientUnits="userSpaceOnUse" x1="-235.743" y1="672.599" x2="-195.122" y2="652.591" gradientTransform="translate(683.677 -470.164)"><stop offset="0" style="stop-color:#000"/><stop offset="1" style="stop-color:#fff"/></linearGradient><path style="fill:url(#SVGID_16_)" d="M454.8 177.3h43.1v22.3h-43.1z"/></g></mask><path d="M455.7 179.2c28.2-1.3 42.3-1.9 42.3-1.9-20.4 21.5-34.1 27.4-41.2 17.7-2.2-4.5-2.5-9.8-1.1-15.8" style="mask:url(#SVGID_15_);fill-rule:evenodd;clip-rule:evenodd;fill:#9e0800"/><path class="st36" d="M461.6 229.8c-2.1 1.6-.4 1.3 1.5.7 4.6-1.5 5.3-1.9 10.5-1.6 2.6.1 4.8.3 5.7-.5.8-.7 1-1.8.8-3.3-.3-2.4 2-2.5 6.1-.5 2.3 1 6.7 2.7 10.8 3.4 3.8.6 7.4 1.2 9.1-2.2 2.4-5.3 8.8-20.5 10.7-28.6.5-1.9.7-3.3.5-5.2-.7-5.6-6-13.2-9.8-17.2-1.1-1.2-1.8-.7-1.3 1.1 2.4 7.9-21.6 32-28.6 39.1-5.3 5.3-11.1 10.9-16 14.8"/><path class="st36" d="M459.2 241.1c-.1.3 0 .6.2.8.2.2.5.3.8.2.3-.1.4-.3.5-.6 1.5-6.4-2-24.8-2.1-43.2 0-5.4-.5-12.1-.9-19.9l-1.6-.7c-4.1 5.3-8 10.4-11.8 15.3-.5.6-10.1 12.9-11.5 17.8-.7 2.6 1.1 2 2.6 1.5 2.1-.7 5.3-2.1 7.7-3.2 1.9-.9 2.6-.8 2.8-.3.4.9-1.5 3.5-2 6-.8 3.9 2.7 4.2 5.6 6 4.3 2.6 6.8 5.8 8.2 9.7 1.2 3 1.9 6.9 1.5 10.6"/><path d="M545 439.5c-31.1 22.5-67.3 36.9-105.4 42-16.3 2.2-32.7 2.7-49 1.5-7.4-.5-14.7-1.4-22-2.6 0 0 .1-1.2.4-3.7l4.3-61.4 168.9-51.5 2.5 70.6c.1 3.4.3 5.1.3 5.1M380 301.1l2.4.7c69.5 57.9 110.9 79.7 124.1 65.4 11-20.5 14.4-43.6 9.1-69.9-12.2-1.8-20.4-10.9-23.6-26.7-.6-3.3-2.6-5.1-7.8-5.5l-62.7-5.2c-12.7-1.1-10.4 1.1-14.2 10.6-3 7.5-9 12.1-18 13.6-3.3.7-5.2 1.5-6.3 3.4-1.3 2.2-2.4 10.6-3 13.6z" style="fill-rule:evenodd;clip-rule:evenodd;fill:#a95300"/><defs><filter id="Adobe_OpacityMaskFilter_8_" filterUnits="userSpaceOnUse" x="443.7" y="181.8" width="13.2" height="23.8"><feColorMatrix values="1 0 0 0 0 0 1 0 0 0 0 0 1 0 0 0 0 0 1 0"/></filter></defs><mask maskUnits="userSpaceOnUse" x="443.7" y="181.8" width="13.2" height="23.8" id="SVGID_17_"><g style="filter:url(#Adobe_OpacityMaskFilter_8_)"><linearGradient id="SVGID_18_" gradientUnits="userSpaceOnUse" x1="-235.391" y1="666.623" x2="-217.076" y2="654.415" gradientTransform="translate(671.934 -463.702)"><stop offset="0" style="stop-color:#000"/><stop offset="1" style="stop-color:#fff"/></linearGradient><path style="fill:url(#SVGID_18_)" d="M443.7 181.8h13.2v23.8h-13.2z"/></g></mask><path d="M455.2 181.8c1 1.8 1.5 2.6 1.5 2.6l.3 21.2c-5.1-1.9-9.7-5.1-13.2-9.3 7.5-9.6 11.4-14.5 11.4-14.5" style="mask:url(#SVGID_17_);fill-rule:evenodd;clip-rule:evenodd;fill:#041d21"/><defs><filter id="Adobe_OpacityMaskFilter_9_" filterUnits="userSpaceOnUse" x="449.6" y="182.8" width="7.2" height="13"><feColorMatrix values="1 0 0 0 0 0 1 0 0 0 0 0 1 0 0 0 0 0 1 0"/></filter></defs><mask maskUnits="userSpaceOnUse" x="449.6" y="182.8" width="7.2" height="13" id="SVGID_19_"><g style="filter:url(#Adobe_OpacityMaskFilter_9_)"><linearGradient id="SVGID_20_" gradientUnits="userSpaceOnUse" x1="-228.496" y1="663.863" x2="-219.882" y2="662.785" gradientTransform="translate(678.149 -474.075)"><stop offset="0" style="stop-color:#000"/><stop offset="1" style="stop-color:#fff"/></linearGradient><path style="fill:url(#SVGID_20_)" d="M449.6 182.8h7.2v13h-7.2z"/></g></mask><path d="M454.4 182.8c1.5 1.8 2.3 2.6 2.3 2.6s0 3.5.1 10.4c-2.9-1.7-5.3-4.1-7.2-6.9 3.2-4 4.8-6.1 4.8-6.1" style="mask:url(#SVGID_19_);fill-rule:evenodd;clip-rule:evenodd;fill:#00060a"/><defs><filter id="Adobe_OpacityMaskFilter_10_" filterUnits="userSpaceOnUse" x="429.6" y="131" width="18.5" height="35.3"><feColorMatrix values="1 0 0 0 0 0 1 0 0 0 0 0 1 0 0 0 0 0 1 0"/></filter></defs><mask maskUnits="userSpaceOnUse" x="429.6" y="131" width="18.5" height="35.3" id="SVGID_21_"><g style="filter:url(#Adobe_OpacityMaskFilter_10_)"><linearGradient id="SVGID_22_" gradientUnits="userSpaceOnUse" x1="-239.682" y1="665.965" x2="-209.906" y2="649.361" gradientTransform="translate(657.04 -505.242)"><stop offset="0" style="stop-color:#000"/><stop offset="1" style="stop-color:#fff"/></linearGradient><path style="fill:url(#SVGID_22_)" d="M429.6 131h18.5v35.3h-18.5z"/></g></mask><path d="M438.8 131c8.7 16 11.4 27.8 7.9 35.3-19.7-7.6-22.3-19.4-7.9-35.3" style="mask:url(#SVGID_21_);fill-rule:evenodd;clip-rule:evenodd;fill:#3a0500"/><path class="st47" d="M438.8 131c-4.1 1.7-5.1 8.3-2.4 14.7 2.7 6.4 8.2 10.2 12.3 8.5 4.1-1.7 5.1-8.3 2.4-14.7-2.8-6.4-8.3-10.2-12.3-8.5"/><path class="st48" d="M439.3 136.4c-2.3 1-3 4.8-1.4 8.5s4.8 5.9 7.1 4.9 3-4.8 1.4-8.5c-1.5-3.7-4.7-5.9-7.1-4.9"/><path class="st49" d="M441.7 137.5c-1.4.6-1.8 2.9-.8 5.1.9 2.2 2.9 3.5 4.3 3 1.4-.6 1.8-2.9.8-5.1-1-2.2-2.9-3.6-4.3-3"/><path class="st50" d="M443.2 132.5c.4-14.6 2.5-22.5 6.3-23.7 4-10.4 20.1-10.4 48.3 0 15.3 6.5 20.4 20.7 15.4 42.4.6 9.3-5.5 19.3-13.9 26.9-22 20-43.6 19.9-52.5-11.8-3.9-13.5-5.2-18.7-3.6-33.8"/><defs><filter id="Adobe_OpacityMaskFilter_11_" filterUnits="userSpaceOnUse" x="442.5" y="101.1" width="27.9" height="90.8"><feColorMatrix values="1 0 0 0 0 0 1 0 0 0 0 0 1 0 0 0 0 0 1 0"/></filter></defs><mask maskUnits="userSpaceOnUse" x="442.5" y="101.1" width="27.9" height="90.8" id="SVGID_23_"><g style="filter:url(#Adobe_OpacityMaskFilter_11_)"><linearGradient id="SVGID_24_" gradientUnits="userSpaceOnUse" x1="-177.682" y1="641.06" x2="-237.81" y2="614.168" gradientTransform="translate(670.67 -478.25)"><stop offset="0" style="stop-color:#000"/><stop offset="1" style="stop-color:#fff"/></linearGradient><path style="fill:url(#SVGID_24_)" d="M442.5 101.1h27.9v90.8h-27.9z"/></g></mask><path d="M443.2 132.5c.4-14.6 2.5-22.5 6.3-23.7 2.2-5.7 8-8.3 17.5-7.7-6.3 12.7-9.9 27-9.9 42.2 0 17.7 4.9 34.4 13.4 48.5-10.3-.5-18.9-8.4-23.7-25.5-3.9-13.5-5.2-18.7-3.6-33.8" style="mask:url(#SVGID_23_);fill-rule:evenodd;clip-rule:evenodd;fill:#facc8b"/><defs><filter id="Adobe_OpacityMaskFilter_12_" filterUnits="userSpaceOnUse" x="458.3" y="109.4" width="58.7" height="74.4"><feColorMatrix values="1 0 0 0 0 0 1 0 0 0 0 0 1 0 0 0 0 0 1 0"/></filter></defs><mask maskUnits="userSpaceOnUse" x="458.3" y="109.4" width="58.7" height="74.4" id="SVGID_25_"><g style="filter:url(#Adobe_OpacityMaskFilter_12_)"><linearGradient id="SVGID_26_" gradientUnits="userSpaceOnUse" x1="-219.354" y1="644.482" x2="-180.208" y2="622.385" gradientTransform="translate(687.391 -486.78)"><stop offset="0" style="stop-color:#000"/><stop offset="1" style="stop-color:#fff"/></linearGradient><path style="fill:url(#SVGID_26_)" d="M458.3 109.4H517v74.4h-58.7z"/></g></mask><path d="M511 119.9c7.8 14.4 8 26 .6 34.6-2.3 10.4-9.7 20.2-22.4 29.3 3.5-4.3-.9-11 2.6-18.5 9.8-21.4 12.6-24.7-9.5-34.7-9.6-4.3-17.9-11.2-24-20 31.7-3.2 49.2-.1 52.7 9.3" style="mask:url(#SVGID_25_);fill-rule:evenodd;clip-rule:evenodd;fill:#eb5500"/><defs><filter id="Adobe_OpacityMaskFilter_13_" filterUnits="userSpaceOnUse" x="482" y="137.8" width="33.7" height="20.7"><feColorMatrix values="1 0 0 0 0 0 1 0 0 0 0 0 1 0 0 0 0 0 1 0"/></filter></defs><mask maskUnits="userSpaceOnUse" x="482" y="137.8" width="33.7" height="20.7" id="SVGID_27_"><g style="filter:url(#Adobe_OpacityMaskFilter_13_)"><linearGradient id="SVGID_28_" gradientUnits="userSpaceOnUse" x1="-231.238" y1="667.185" x2="-196.829" y2="656.509" gradientTransform="translate(712.442 -513.554)"><stop offset="0" style="stop-color:#000"/><stop offset="1" style="stop-color:#fff"/></linearGradient><path style="fill:url(#SVGID_28_)" d="M482 137.8h33.7v20.7H482z"/></g></mask><path d="M502.3 140.3c.8 5.2-1.4 10.4-5.7 13.3-4.3 3-10 3.2-14.5.6 3.4 3.4 8.3 4.9 13 4.2 4.8-.7 8.9-3.6 11.2-7.8 6.3-2 9.5-3 9.5-3-3-6.5-4.4-9.7-4.4-9.7-6.1 1.5-9.1 2.4-9.1 2.4" style="mask:url(#SVGID_27_);fill-rule:evenodd;clip-rule:evenodd;fill:#a90b00"/><path d="M509.1 147.9c2.3-1.4 6.5-10.7 12.5-14.5-4-14.4-15.5-27.7-29.3-33.5-14.4-6-33.8-7.4-44.1 3.4-4.4 2.6-7 6-7.7 10-.9 4.8 1.2 13.9 1.2 19.8 0 2.2.7 2.9 1.5 2.4 2.5-1.8 3.6-17.4 3.8-20.8 3.5-1.9 6.2-4.9 7.9-8.5 9.9 17.5 56.7 26.2 49 10.2 4.2 2.5 6 7.7 4.1 12.2-2.1 5 .1 9.1-.3 14.7-.3 2.6-.4 5.6 1.4 4.6" style="fill-rule:evenodd;clip-rule:evenodd;fill:#361b03"/><path class="st61" d="M489.9 138.5c1.3 0 2.3 1 2.3 2.3s-1 2.3-2.3 2.3c-1.3 0-2.3-1-2.3-2.3s1-2.3 2.3-2.3M458 135c1.3 0 2.3 1 2.3 2.3s-1 2.3-2.3 2.3c-1.3 0-2.3-1-2.3-2.3s1.1-2.3 2.3-2.3"/><path class="st62" d="M459.9 165.4c-.4-.3-.4-.9-.1-1.3.3-.4.9-.4 1.3-.1 2.3 2 5.2 3.1 8.1 3.3 2.9.2 5.9-.4 8.5-1.9.4-.3 1-.1 1.3.3.3.4.1 1-.3 1.3-3 1.8-6.3 2.5-9.6 2.2-3.4-.3-6.6-1.5-9.2-3.8M462.1 170.5c-.3-.2-.3-.7-.1-.9.2-.3.7-.3.9-.1 1.6 1.4 3.6 2.2 5.7 2.3 2 .2 4.1-.3 6-1.4.3-.2.7-.1.9.2.2.3.1.7-.2.9-2.1 1.2-4.5 1.7-6.8 1.6-2.2-.1-4.5-1-6.4-2.6"/><path class="st63" d="M489 128.2c-.8-.1-1.4-.7-1.3-1.5.1-.8.7-1.4 1.5-1.3 2.1.2 4.1.6 6 1.4 1.9.8 3.7 1.9 5.3 3.2.6.5.7 1.4.2 2-.5.6-1.4.7-2 .2-1.4-1.2-2.9-2.1-4.5-2.8-1.7-.7-3.4-1.1-5.2-1.2M461.4 122.8c.8 0 1.4-.7 1.4-1.5s-.7-1.4-1.5-1.4c-2.1.1-4.1.5-6.1 1.2-1.9.7-3.8 1.7-5.4 3-.6.5-.7 1.4-.2 2 .5.6 1.4.7 2 .2 1.4-1.1 3-2 4.6-2.6 1.7-.5 3.4-.8 5.2-.9"/><path class="st64" d="M484.3 135.6c1.7 0 3 1.3 3 3s-1.3 3-3 3-3-1.3-3-3c0-1.6 1.3-3 3-3M451.5 132.3c1.7 0 3 1.3 3 3s-1.3 3-3 3-3-1.3-3-3 1.3-3 3-3"/><defs><filter id="Adobe_OpacityMaskFilter_14_" filterUnits="userSpaceOnUse" x="446.9" y="95.2" width="74.7" height="40.2"><feColorMatrix values="1 0 0 0 0 0 1 0 0 0 0 0 1 0 0 0 0 0 1 0"/></filter></defs><mask maskUnits="userSpaceOnUse" x="446.9" y="95.2" width="74.7" height="40.2" id="SVGID_29_"><g style="filter:url(#Adobe_OpacityMaskFilter_14_)"><linearGradient id="SVGID_30_" gradientUnits="userSpaceOnUse" x1="-222.554" y1="666.898" x2="-174.557" y2="646.237" gradientTransform="translate(675.266 -538.023)"><stop offset="0" style="stop-color:#000"/><stop offset="1" style="stop-color:#fff"/></linearGradient><path style="fill:url(#SVGID_30_)" d="M446.9 95.2h74.7v40.2h-74.7z"/></g></mask><path d="M519 135.4c.8-.8 1.7-1.4 2.6-2-4-14.4-15.5-27.7-29.3-33.5-14.4-6-33.8-7.4-44.1 3.4-.5.3-.9.6-1.3.9 20.5-.4 40.4 5.8 57.1 17.7.9-1.3 1-3.1-.1-5.5 3.3 1.9 5.1 5.5 4.8 9.1 3.6 3 7.1 6.3 10.3 9.9" style="mask:url(#SVGID_29_);fill-rule:evenodd;clip-rule:evenodd;fill:#0a0000"/><path d="M498 134.7c-2.2-2.1-5.2-3.3-8.5-3.1-3.3.1-6.2 1.6-8.2 3.8-2.1 2.2-3.3 5.2-3.1 8.5.1 3.3 1.6 6.2 3.8 8.2 2.2 2.1 5.2 3.3 8.5 3.1 3.3-.1 6.2-1.6 8.2-3.8 2.1-2.2 3.3-5.2 3.1-8.5-.1-3.2-1.6-6.1-3.8-8.2m-33.3-3.6c-2.2-2.1-5.2-3.3-8.5-3.1-3.3.1-6.2 1.6-8.2 3.8-2.1 2.2-3.3 5.2-3.1 8.5.1 3.3 1.6 6.2 3.8 8.2 2.2 2.1 5.2 3.3 8.5 3.1 3.3-.1 6.2-1.6 8.2-3.8 2.1-2.2 3.3-5.2 3.1-8.5-.2-3.3-1.6-6.2-3.8-8.2zm24.8-1c3.7-.1 7.1 1.2 9.6 3.5 1.6 1.5 2.9 3.4 3.6 5.6l14-3.8.4 1.4-14 3.8c.2.7.3 1.5.3 2.3.1 3.7-1.2 7.1-3.5 9.6s-5.6 4.1-9.3 4.3c-3.7.1-7.1-1.2-9.6-3.5s-4.1-5.6-4.3-9.3c-.1-1.6.2-3.1.6-4.5-.3-.6-.8-1.1-1.3-1.6-.6-.5-1.3-.8-2.1-.9-.8-.1-1.6-.1-2.3.1-.6.2-1.2.5-1.6.9.1.4.1.8.1 1.2.1 3.7-1.2 7.1-3.5 9.6s-5.6 4.1-9.3 4.3c-3.7.1-7.1-1.2-9.6-3.5s-4.1-5.6-4.3-9.3c-.1-3.7 1.2-7.1 3.5-9.6s5.6-4.1 9.3-4.3c3.7-.1 7.1 1.2 9.6 3.5 1.9 1.7 3.2 4 3.9 6.5.5-.3 1-.5 1.5-.7.9-.3 2-.4 3-.2s1.9.6 2.7 1.2c.4.3.8.7 1.1 1.1.6-1.3 1.4-2.5 2.3-3.5 2.2-2.5 5.5-4.1 9.2-4.2z" style="fill:#fff"/><path class="st47" d="M523.6 132.9c4.1 1.7 5.1 8.3 2.4 14.7-2.7 6.4-8.2 10.2-12.3 8.5-4.1-1.7-5.1-8.3-2.4-14.7 2.7-6.4 8.2-10.2 12.3-8.5"/><path class="st48" d="M523 138.3c2.3 1 3 4.8 1.4 8.5s-4.8 5.9-7.1 4.9-3-4.8-1.4-8.5 4.8-5.9 7.1-4.9"/><path class="st49" d="M520.7 139.4c1.4.6 1.8 2.9.8 5.1-.9 2.2-2.9 3.5-4.3 3-1.4-.6-1.8-2.9-.8-5.1 1-2.2 2.9-3.6 4.3-3"/><path class="st48" d="M471.9 137c1.2-.7 2.1.8 2.6 4.3 0 0 .4 3.4 1.3 10.2 3.6 4.1 2.4 6.2-3 6.9-2.4 1.5-5.5 1.3-7.7-.6-4.8-2.2-4.9-4.5-.5-6.9 3.5-5.2 5.1-12.8 7.3-13.9"/><defs><filter id="Adobe_OpacityMaskFilter_15_" filterUnits="userSpaceOnUse" x="490.6" y="179.9" width="24.6" height="34.8"><feColorMatrix values="1 0 0 0 0 0 1 0 0 0 0 0 1 0 0 0 0 0 1 0"/></filter></defs><mask maskUnits="userSpaceOnUse" x="490.6" y="179.9" width="24.6" height="34.8" id="SVGID_31_"><g style="filter:url(#Adobe_OpacityMaskFilter_15_)"><linearGradient id="SVGID_32_" gradientUnits="userSpaceOnUse" x1="-247.085" y1="659.159" x2="-208.988" y2="648.852" gradientTransform="translate(721.473 -454.177)"><stop offset="0" style="stop-color:#000"/><stop offset="1" style="stop-color:#fff"/></linearGradient><path style="fill:url(#SVGID_32_)" d="M490.6 179.9h24.6v34.8h-24.6z"/></g></mask><path d="M508.6 214.7c2.2-5.3 5-12.6 6.1-17.1.3-1.4.5-2.5.4-4-.5-4.3-4.6-10.1-7.5-13.2-.9-.9-1.4-.5-1 .9 1.4 4.5-8.7 16.1-16 23.9l18 9.5z" style="mask:url(#SVGID_31_);fill-rule:evenodd;clip-rule:evenodd;fill:#041d21"/><defs><filter id="Adobe_OpacityMaskFilter_16_" filterUnits="userSpaceOnUse" x="500.1" y="179.9" width="15" height="21"><feColorMatrix values="1 0 0 0 0 0 1 0 0 0 0 0 1 0 0 0 0 0 1 0"/></filter></defs><mask maskUnits="userSpaceOnUse" x="500.1" y="179.9" width="15" height="21" id="SVGID_33_"><g style="filter:url(#Adobe_OpacityMaskFilter_16_)"><linearGradient id="SVGID_34_" gradientUnits="userSpaceOnUse" x1="-234.126" y1="665.05" x2="-219.65" y2="656.634" gradientTransform="translate(731.609 -468.76)"><stop offset="0" style="stop-color:#000"/><stop offset="1" style="stop-color:#fff"/></linearGradient><path style="fill:url(#SVGID_34_)" d="M500.1 179.9h15v21h-15z"/></g></mask><path d="M513.7 200.9c.4-1.2.7-2.3.9-3.3.3-1.4.5-2.5.4-4-.5-4.3-4.6-10.1-7.5-13.2-.9-.9-1.4-.5-1 .9.8 2.6-2.3 7.7-6.4 13l13.6 6.6z" style="mask:url(#SVGID_33_);fill-rule:evenodd;clip-rule:evenodd;fill:#000506"/><defs><filter id="Adobe_OpacityMaskFilter_17_" filterUnits="userSpaceOnUse" x="480.9" y="281.4" width="16.8" height="9.9"><feColorMatrix values="1 0 0 0 0 0 1 0 0 0 0 0 1 0 0 0 0 0 1 0"/></filter></defs><mask maskUnits="userSpaceOnUse" x="480.9" y="281.4" width="16.8" height="9.9" id="SVGID_35_"><g style="filter:url(#Adobe_OpacityMaskFilter_17_)"><linearGradient id="SVGID_36_" gradientUnits="userSpaceOnUse" x1="-212.492" y1="673.915" x2="-227.148" y2="651.553" gradientTransform="translate(711.285 -373.08)"><stop offset="0" style="stop-color:#000"/><stop offset="1" style="stop-color:#fff"/></linearGradient><path style="fill:url(#SVGID_36_)" d="M480.9 281.4h16.8v9.9h-16.8z"/></g></mask><path d="M493.4 282.2c-8.3-.5-12.5-.8-12.5-.8.2 3.9 2.5 7.3 6 9 3.5 1.6 7.7 1.2 10.7-1.2-1.5-2-2.9-4.4-4.2-7" style="mask:url(#SVGID_35_);fill-rule:evenodd;clip-rule:evenodd;fill:#6a0b00"/><defs><filter id="Adobe_OpacityMaskFilter_18_" filterUnits="userSpaceOnUse" x="389.8" y="370.1" width="150.3" height="97"><feColorMatrix values="1 0 0 0 0 0 1 0 0 0 0 0 1 0 0 0 0 0 1 0"/></filter></defs><mask maskUnits="userSpaceOnUse" x="389.8" y="370.1" width="150.3" height="97" id="SVGID_37_"><g style="filter:url(#Adobe_OpacityMaskFilter_18_)"><linearGradient id="SVGID_38_" gradientUnits="userSpaceOnUse" x1="-213.399" y1="680.733" x2="-39.633" y2="475.594" gradientTransform="translate(614.912 -187.291)"><stop offset="0" style="stop-color:#000"/><stop offset="1" style="stop-color:#fff"/></linearGradient><path style="fill:url(#SVGID_38_)" d="M389.8 370.1h150.3v97H389.8z"/></g></mask><path d="m537.7 370.1-147.9 56.4c14.3 20.3 41.5 26.6 63.3 14.8 7.3-11 22.1-14.2 33.4-7.3 11.3 7 15 21.6 8.4 33.1 15.9-6.3 31.1-14.4 45.2-24.1-1.6-48.7-2.4-72.9-2.4-72.9" style="mask:url(#SVGID_37_);fill-rule:evenodd;clip-rule:evenodd;fill:#5b0800"/><defs><filter id="Adobe_OpacityMaskFilter_19_" filterUnits="userSpaceOnUse" x="386.7" y="294.1" width="132" height="70.7"><feColorMatrix values="1 0 0 0 0 0 1 0 0 0 0 0 1 0 0 0 0 0 1 0"/></filter></defs><mask maskUnits="userSpaceOnUse" x="386.7" y="294.1" width="132" height="70.7" id="SVGID_39_"><g style="filter:url(#Adobe_OpacityMaskFilter_19_)"><linearGradient id="SVGID_40_" gradientUnits="userSpaceOnUse" x1="-222.955" y1="573.599" x2="-79.92" y2="688.05" gradientTransform="translate(611.639 -295.32)"><stop offset="0" style="stop-color:#000"/><stop offset="1" style="stop-color:#fff"/></linearGradient><path style="fill:url(#SVGID_40_)" d="M386.7 294.1h132v70.7h-132z"/></g></mask><path d="M482.3 364.9c13.2-3.6 24.3-12.5 30.7-24.6 6.4-12.1 7.4-26.3 2.9-39.2-5.5-1-10.6-3.4-14.9-6.9-5.7 8-15.5 11.9-25.1 10.1 0 0-27.3-3.4-82-10.1-1.6-.3-3.3 0-4.6 1-1.3.9-2.3 2.3-2.6 4 63.8 43.8 95.6 65.7 95.6 65.7" style="mask:url(#SVGID_39_);fill-rule:evenodd;clip-rule:evenodd;fill:#5b0800"/><defs><filter id="Adobe_OpacityMaskFilter_20_" filterUnits="userSpaceOnUse" x="416.6" y="262.4" width="17" height="16.8"><feColorMatrix values="1 0 0 0 0 0 1 0 0 0 0 0 1 0 0 0 0 0 1 0"/></filter></defs><mask maskUnits="userSpaceOnUse" x="416.6" y="262.4" width="17" height="16.8" id="SVGID_41_"><g style="filter:url(#Adobe_OpacityMaskFilter_20_)"><linearGradient id="SVGID_42_" gradientUnits="userSpaceOnUse" x1="-200.72" y1="672.63" x2="-227.678" y2="648.008" gradientTransform="translate(643.272 -385.895)"><stop offset="0" style="stop-color:#000"/><stop offset="1" style="stop-color:#fff"/></linearGradient><path style="fill:url(#SVGID_42_)" d="M416.6 262.4h17v16.8h-17z"/></g></mask><path d="M423.7 262.4c-4.7 10.7-7 16-7 16 6.4 2.3 13.5-.4 16.8-6.3.1-5.9.2-8.8.2-8.8-6.7-.6-10-.9-10-.9" style="mask:url(#SVGID_41_);fill-rule:evenodd;clip-rule:evenodd;fill:#6a0b00"/><path d="M410.8 273.8c1 3.3 4.2 5.1 8.1 4.5 3.8-.6 7.3-3.5 8.7-7.1l2.9-64.1c.2-3.9 1-7.2 2.3-9.8 2.4-5.1 5.2-5-3.7-2.6-9.5 2.6-15.6 4.3-15.9 15.1l-2.4 64z" style="fill-rule:evenodd;clip-rule:evenodd;fill:#ce7f21"/><defs><filter id="Adobe_OpacityMaskFilter_21_" filterUnits="userSpaceOnUse" x="415.2" y="197" width="15.6" height="27.3"><feColorMatrix values="1 0 0 0 0 0 1 0 0 0 0 0 1 0 0 0 0 0 1 0"/></filter></defs><mask maskUnits="userSpaceOnUse" x="415.2" y="197" width="15.6" height="27.3" id="SVGID_43_"><g style="filter:url(#Adobe_OpacityMaskFilter_21_)"><linearGradient id="SVGID_44_" gradientUnits="userSpaceOnUse" x1="-240.366" y1="672.271" x2="-214.061" y2="650.807" gradientTransform="translate(641.8 -443.975)"><stop offset="0" style="stop-color:#000"/><stop offset="1" style="stop-color:#fff"/></linearGradient><path style="fill:url(#SVGID_44_)" d="M415.2 197h15.6v27.3h-15.6z"/></g></mask><path d="m426.8 224.3.8-17.6c.2-2.7.7-4.9 1.6-6.8 1.7-3.5 3.6-3.4-2.5-1.8-6.6 1.8-10.8 3-11 10.4l-.5 12.3 11.6 3.5z" style="mask:url(#SVGID_43_);fill-rule:evenodd;clip-rule:evenodd;fill:#a44900"/><path d="M480.3 274.1c-1.1 4.1.3 8.4 3.4 10.6 3.1 2.2 7.3 1.8 10.4-1l38-64c2.3-3.7 4.6-6.4 7-8.3 4.2-3.2 6.6-1.6 1.5-4.3l-6.9-3.6c-6.7-3.5-11.5-1.3-15.8 6.1l-37.6 64.5z" style="fill-rule:evenodd;clip-rule:evenodd;fill:#d1862c"/><defs><filter id="Adobe_OpacityMaskFilter_22_" filterUnits="userSpaceOnUse" x="512.9" y="204.4" width="26.3" height="25"><feColorMatrix values="1 0 0 0 0 0 1 0 0 0 0 0 1 0 0 0 0 0 1 0"/></filter></defs><mask maskUnits="userSpaceOnUse" x="512.9" y="204.4" width="26.3" height="25" id="SVGID_45_"><g style="filter:url(#Adobe_OpacityMaskFilter_22_)"><linearGradient id="SVGID_46_" gradientUnits="userSpaceOnUse" x1="-244.292" y1="662.169" x2="-209.93" y2="653.082" gradientTransform="translate(745.08 -438.561)"><stop offset="0" style="stop-color:#000"/><stop offset="1" style="stop-color:#fff"/></linearGradient><path style="fill:url(#SVGID_46_)" d="M512.9 204.4h26.3v25h-26.3z"/></g></mask><path d="m523.8 229.4 7.4-12.5c1.6-2.6 3.3-4.5 4.9-5.8 2.9-2.3 4.6-1.1 1-3l-4.9-2.5c-4.7-2.5-8.1-.9-11.1 4.3l-8.3 14.2 11 5.3z" style="mask:url(#SVGID_45_);fill-rule:evenodd;clip-rule:evenodd;fill:#a34a00"/><path d="M251.8 316.9c69.3 45.3 166.4 46.1 236.7 1.9 0 0-47.5-8.1-142.4-24.3-7.3-1.2-11.4-.9-24.5 2.9 0-.1-23.3 6.4-69.8 19.5" style="fill-rule:evenodd;clip-rule:evenodd;fill:#e9d6b4"/><path d="M370.3 414.1c-1.3-.7-2.7-1.1-4-1.4-.5-.2-1-.4-1.6-.6-.6-.2-1.1-.5-1.7-.6h-.1c-.9-.3-1.6-.8-2.5-1.1-1.2-.7-2.5-1.1-3.8-1.4l-.2-.1-4.9-43.7c11.8-2.9 25.3-7 40.5-12.1 2.1 1.1 4.6 1.7 7.2 1.7h1.5c1.2 0 2.4-.1 3.5-.4.7-.1 1.4-.2 2.1-.4.3 0 .5-.1.8-.1 1.3-.1 2.5-.3 3.6-.6.9-.2 1.7-.4 2.5-.8.3-.1.7-.1 1-.2 1.5-.2 2.9-.5 4.3-1.1 1.1-.2 2.2-.6 3.3-1 .6-.1 1.2-.3 1.8-.5l.9-.3c.7-.2 1.4-.5 2-.8.6-.2 1.3-.5 1.9-.8 1.3-.3 2.5-.8 3.6-1.3l1.8-.9.6-.3c1.2-.3 2.3-.8 3.3-1.4l.2-.1 1.5-.6c.8-.3 1.5-.6 2.2-.9l1.2-.6c.4-.2.8-.3 1.1-.5 1.6-.5 3-1.3 4.4-2.3.3-.1.5-.3.8-.4 2-.8 3.8-2.1 5.3-3.6.2-.1.3-.3.5-.5s.5-.3.7-.5c.3-.1.6-.3.9-.4.7-.2 1.4-.5 2.1-.9 1.2-.4 2.3-1 3.4-1.6.2-.1.3-.1.5-.2.8-.2 1.6-.4 2.3-.6l2.1-.6 2.1-.6c1.6-.3 3.1-.9 4.4-1.7.8-.3 1.5-.6 2.2-.9.9-.3 1.7-.7 2.5-1.1l.1-.1c1.5-.5 2.8-1.2 4-2.1.3-.1.6-.2.8-.4.4-.1.8-.2 1.1-.4.7-.2 1.4-.5 2.1-.8.5-.2.9-.3 1.4-.6 1.6-.3 3.2-.8 4.6-1.6h.1c-3 11.3-7.5 30-12.1 46.4-8.8 31.1-8.9 31.9-34.8 42.6-9.8 4-30 12.8-48.5 19-1.7-2.4-4.6-4.6-7.4-5.7-.6-.3-1.1-.6-1.7-.9-.2-.1-.5-.3-.7-.4-1.3-1-2.7-1.7-4.2-2.2-.4-.2-.8-.3-1.2-.5-.6-.3-1.1-.5-1.7-.6h-.1c-1.3-.6-2.7-1-4-1.2-1-.4-2.1-.6-3.1-1-1.1-.2-1.8-.5-2.5-.7" style="fill-rule:evenodd;clip-rule:evenodd;fill:#e9d8bb"/><path d="M393.1 427.9c4.1 0 7.7-1.3 7.7-5.9-.4-9.2-.9-18.5-1.3-27.7-.4-9.3-1-20.9-1.6-34.9-34.5-5.6-84-18.8-148.6-39.4 4.2 9.1 13.1 30.8 21.7 49.4 13.6 29.5 13.8 30.2 41.1 38.7 16.8 5.3 64.8 19.9 81 19.8" style="fill-rule:evenodd;clip-rule:evenodd;fill:#ede1c8"/><defs><filter id="Adobe_OpacityMaskFilter_23_" filterUnits="userSpaceOnUse" x="409.4" y="321.5" width="76.5" height="93.2"><feColorMatrix values="1 0 0 0 0 0 1 0 0 0 0 0 1 0 0 0 0 0 1 0"/></filter></defs><mask maskUnits="userSpaceOnUse" x="409.4" y="321.5" width="76.5" height="93.2" id="SVGID_47_"><g style="filter:url(#Adobe_OpacityMaskFilter_23_)"><linearGradient id="SVGID_48_" gradientUnits="userSpaceOnUse" x1="-250.984" y1="661.684" x2="-117.442" y2="553.664" gradientTransform="translate(635.652 -242.661)"><stop offset="0" style="stop-color:#000"/><stop offset="1" style="stop-color:#fff"/></linearGradient><path style="fill:url(#SVGID_48_)" d="M409.4 321.5h76.5v93.2h-76.5z"/></g></mask><path d="M472.5 380.2c-23.8 31.4-44.8 41.3-63.1 29.8 15.1 2.8 29.7-7.1 32.7-22.2 3-15.1-6.8-29.8-21.8-33 43.8-22.2 65.6-33.4 65.6-33.4-8.9 39.3-13.4 58.8-13.4 58.8" style="mask:url(#SVGID_47_);fill-rule:evenodd;clip-rule:evenodd;fill:#bda16a"/><defs><filter id="Adobe_OpacityMaskFilter_24_" filterUnits="userSpaceOnUse" x="397.9" y="327.6" width="86.6" height="41.4"><feColorMatrix values="1 0 0 0 0 0 1 0 0 0 0 0 1 0 0 0 0 0 1 0"/></filter></defs><mask maskUnits="userSpaceOnUse" x="397.9" y="327.6" width="86.6" height="41.4" id="SVGID_49_"><g style="filter:url(#Adobe_OpacityMaskFilter_24_)"><linearGradient id="SVGID_50_" gradientUnits="userSpaceOnUse" x1="-235.919" y1="669.848" x2="-123.803" y2="605.871" gradientTransform="translate(623.527 -290.974)"><stop offset="0" style="stop-color:#000"/><stop offset="1" style="stop-color:#fff"/></linearGradient><path style="fill:url(#SVGID_50_)" d="M397.9 327.6h86.6V369h-86.6z"/></g></mask><path d="M397.9 355.1c20.6-4.6 49.4-13.7 86.6-27.5 0 0-.8 3.7-2.5 11-21.8 9.5-60.7 30.5-83.6 30.4-.3-9.3-.5-13.9-.5-13.9" style="mask:url(#SVGID_49_);fill-rule:evenodd;clip-rule:evenodd;fill:#a78a50"/><defs><filter id="Adobe_OpacityMaskFilter_25_" filterUnits="userSpaceOnUse" x="314.5" y="345" width="79.7" height="77.3"><feColorMatrix values="1 0 0 0 0 0 1 0 0 0 0 0 1 0 0 0 0 0 1 0"/></filter></defs><mask maskUnits="userSpaceOnUse" x="314.5" y="345" width="79.7" height="77.3" id="SVGID_51_"><g style="filter:url(#Adobe_OpacityMaskFilter_25_)"><linearGradient id="SVGID_52_" gradientUnits="userSpaceOnUse" x1="-226.805" y1="630.896" x2="-109.896" y2="598.576" gradientTransform="translate(535.294 -234.546)"><stop offset="0" style="stop-color:#000"/><stop offset="1" style="stop-color:#fff"/></linearGradient><path style="fill:url(#SVGID_52_)" d="M314.5 345h79.7v77.3h-79.7z"/></g></mask><path d="M390.5 422.3c2.5-4.2 3.7-6.3 3.7-6.3s-.7-19.8-2.2-59.4c5.2.7-20.3-3.1-76.4-11.6 11.3-.9 22.1 4.7 27.8 14.4 5.8 9.7 5.6 21.9-.6 31.4-6.1 9.5-17.1 14.7-28.4 13.4 27.2 7.5 40.7 11.2 40.7 11.2 17.5 4.6 29.3 6.9 35.4 6.9" style="mask:url(#SVGID_51_);fill-rule:evenodd;clip-rule:evenodd;fill:#bda16a"/><path d="M270.5 354.4c4.2-.3 8.5 1.6 12.1 4.5 3.5 2.8 6.3 6.7 7.4 11.3 1.2 4.6.6 9.4-1.1 13.5-1.8 4.3-4.7 7.9-8.5 9.7-3.8 1.8-7.9 1.1-11.4-1.7-3.6-2.9-6.6-7.9-8.1-14.1-1.6-6.1-1.3-12 .4-16.3 1.7-4.1 5-6.6 9.2-6.9" style="fill-rule:evenodd;clip-rule:evenodd;fill:#f9a750"/><defs><filter id="Adobe_OpacityMaskFilter_26_" filterUnits="userSpaceOnUse" x="256.1" y="322.1" width="136.4" height="47.9"><feColorMatrix values="1 0 0 0 0 0 1 0 0 0 0 0 1 0 0 0 0 0 1 0"/></filter></defs><mask maskUnits="userSpaceOnUse" x="256.1" y="322.1" width="136.4" height="47.9" id="SVGID_53_"><g style="filter:url(#Adobe_OpacityMaskFilter_26_)"><linearGradient id="SVGID_54_" gradientUnits="userSpaceOnUse" x1="-246.916" y1="629.895" x2="-41.824" y2="642.557" gradientTransform="translate(473.476 -289.863)"><stop offset="0" style="stop-color:#000"/><stop offset="1" style="stop-color:#fff"/></linearGradient><path style="fill:url(#SVGID_54_)" d="M256.1 322.1h136.4V370H256.1z"/></g></mask><path d="M389.4 356.2c1.8 2.1 2.7 3.2 2.7 3.2s.1 3.5.4 10.6c-26.9-2.9-70.5-11.6-130.7-33.7-3.8-9.5-5.8-14.2-5.8-14.2 61.2 17.9 105.7 29.3 133.4 34.1" style="mask:url(#SVGID_53_);fill-rule:evenodd;clip-rule:evenodd;fill:#a78a50"/><path d="M296.9 283c3.5 33.6 5.7 51.3 5.7 51.3 21.4-5.2 31.5-23.8 24.5-29.1 2.8-8.2 1.2-12.6-4.5-13.1-2.6-13.6-7.3-17.4-14-11.5-5.9-6.4-9.8-5.6-11.7 2.4" style="fill-rule:evenodd;clip-rule:evenodd;fill:#050"/><path d="M269.7 304.6c-3.5 2.9-3 6.8-.1 10.6 16.9 22.6 53 16.8 53-13.8 0-4.5-1.7-7.4-5.2-6.6-3.3-12.6-11.3-13.7-11.4-4.2-17.3-16.7-27.1-14.7-29.6 5.9-5.1-6.9-10.5-2.6-6.7 8.1" style="fill-rule:evenodd;clip-rule:evenodd;fill:#1b7b0a"/><path d="M269.7 316.2c-2.9 3.5-1.6 7.2 1.9 10.4 20.9 18.9 55.2 6.2 49.3-23.8-.9-4.4-3.1-7-6.3-5.5-5.7-11.8-13.7-11.2-12-2-20.2-13.1-29.5-9.2-27.9 11.5-6.4-5.7-10.8-.4-5 9.4" style="fill-rule:evenodd;clip-rule:evenodd;fill:#569e25"/><path d="M291.3 321.1c-2.4-.1-4.8-.5-7-1.2-2.4-.7-4.6-1.7-6.7-3-.5-.3-.6-.9-.3-1.4.3-.5.9-.6 1.4-.3 2 1.2 4.1 2.1 6.3 2.8 1.7.5 3.5.9 5.2 1-.6-1-1.1-2-1.6-3.1-3.3-6.7-5.5-14-6.4-21.5-.1-.6.3-1.1.9-1.1.6-.1 1.1.3 1.1.9.7 5.6 2.1 11 4.2 16.2.9-1.6 1.7-3.3 2.2-5 .7-2.2 1.1-4.4 1.3-6.7 0-.6.5-1 1.1-1 .6 0 1 .5 1 1.1-.1 2.5-.6 4.9-1.4 7.3-.8 2.3-1.8 4.6-3.2 6.7.3.8.7 1.5 1.1 2.3 1.9 3.8 4.1 7.4 6.7 10.8.9-1.6 1.6-3.2 2.2-5 .7-2.2 1.1-4.4 1.3-6.7 0-.6.5-1 1.1-1 .6 0 1 .5 1 1.1-.1 2.5-.6 4.9-1.4 7.3-.7 2.1-1.6 4.1-2.8 6.1 1.4 1.8 3 3.5 4.6 5.1.4.4.4 1 0 1.4-.4.4-1 .4-1.4 0-4.3-4-7.7-8.4-10.5-13.1" style="fill:#f4ecd6"/><path class="st115" d="M426.4 302.8c15.1 3.6 23.5 3.4 25.5-.6-1.2-5.8-6.7-9.9-13-9.8-6.4.2-11.6 4.6-12.5 10.4"/><defs><filter id="Adobe_OpacityMaskFilter_27_" filterUnits="userSpaceOnUse" x="427.5" y="296.6" width="23.5" height="11.9"><feColorMatrix values="1 0 0 0 0 0 1 0 0 0 0 0 1 0 0 0 0 0 1 0"/></filter></defs><mask maskUnits="userSpaceOnUse" x="427.5" y="296.6" width="23.5" height="11.9" id="SVGID_55_"><g style="filter:url(#Adobe_OpacityMaskFilter_27_)"><linearGradient id="SVGID_56_" gradientUnits="userSpaceOnUse" x1="-209.141" y1="649.213" x2="-216.79" y2="659.131" gradientTransform="translate(654.78 -355.027)"><stop offset="0" style="stop-color:#4f4f4f"/><stop offset="1" style="stop-color:#fff"/></linearGradient><path style="fill:url(#SVGID_56_)" d="M427.5 296.6H451v11.9h-23.5z"/></g></mask><path d="M427.5 305.2c7.2 4.4 16.5 4.3 23.5-.4-1.5-5-6.4-8.4-11.9-8.3-5.5.1-10.3 3.7-11.6 8.7" style="mask:url(#SVGID_55_);fill-rule:evenodd;clip-rule:evenodd;fill:#001700"/><path class="st115" d="M445.5 301.4c7.2 4.4 16.5 4.3 23.5-.4-1.5-5-6.4-8.4-11.9-8.3-5.5.1-10.3 3.7-11.6 8.7"/><defs><filter id="Adobe_OpacityMaskFilter_28_" filterUnits="userSpaceOnUse" x="444.4" y="296.3" width="23.5" height="11.9"><feColorMatrix values="1 0 0 0 0 0 1 0 0 0 0 0 1 0 0 0 0 0 1 0"/></filter></defs><mask maskUnits="userSpaceOnUse" x="444.4" y="296.3" width="23.5" height="11.9" id="SVGID_57_"><g style="filter:url(#Adobe_OpacityMaskFilter_28_)"><linearGradient id="SVGID_58_" gradientUnits="userSpaceOnUse" x1="-210.116" y1="649.23" x2="-217.765" y2="659.149" gradientTransform="translate(672.693 -355.346)"><stop offset="0" style="stop-color:#4f4f4f"/><stop offset="1" style="stop-color:#fff"/></linearGradient><path style="fill:url(#SVGID_58_)" d="M444.4 296.3h23.5v11.9h-23.5z"/></g></mask><path d="M444.4 304.9c7.2 4.4 16.5 4.3 23.5-.4-1.5-5-6.4-8.4-11.9-8.3-5.5.1-10.3 3.7-11.6 8.7" style="mask:url(#SVGID_57_);fill-rule:evenodd;clip-rule:evenodd;fill:#001700"/><path class="st122" d="M443.1 301.6c3.6 2.6 8.6 2.7 12.3.2 1.4-.8.7-2.5-2.1-5.1-1.2-2.3-1.2-5-.1-7.3 1.1-2.3 3.2-4.1 5.8-4.9 0 0-1-1.4-3.1-4.1-6.8 3.3-10.9 10-10.4 17.1-2.3 1.6-3.1 2.9-2.4 4.1"/><path class="st123" d="M454.9 301.9c2.8 10.6 4.2 21.5 4.1 32.4 3.5 1.8 7.8 1.6 11-.7 4.3-2.9 4.1-9.3 4.4-15.6.2-5 1.9-10.2-.2-14.3-3.4-6.5-14-7.5-19.3-1.8M439.6 302.2c-2.4 11.7-1.3 23.9 3.2 35.1-16.3 10.4-30.9-28.9-16.2-36.5 4.2-2.2 9.4-1.6 13 1.4"/><path class="st124" d="M456.1 280.2c1-.5 2.3.2 3.1 1.5.7 1.3.6 2.7-.4 3.2s-2.3-.2-3.1-1.5c-.7-1.3-.5-2.7.4-3.2"/><defs><filter id="Adobe_OpacityMaskFilter_29_" filterUnits="userSpaceOnUse" x="423.8" y="303" width="18.1" height="32.2"><feColorMatrix values="1 0 0 0 0 0 1 0 0 0 0 0 1 0 0 0 0 0 1 0"/></filter></defs><mask maskUnits="userSpaceOnUse" x="423.8" y="303" width="18.1" height="32.2" id="SVGID_59_"><g style="filter:url(#Adobe_OpacityMaskFilter_29_)"><linearGradient id="SVGID_60_" gradientUnits="userSpaceOnUse" x1="-236.603" y1="640.605" x2="-198.667" y2="651.148" gradientTransform="translate(650.814 -326.635)"><stop offset="0" style="stop-color:#000"/><stop offset="1" style="stop-color:#fff"/></linearGradient><path style="fill:url(#SVGID_60_)" d="M423.8 303h18.1v32.2h-18.1z"/></g></mask><path d="M439.3 305.3c-1.9 9.6-1 19.4 2.6 28.6-13.3 8.5-25.2-23.6-13.2-29.8 3.4-1.8 7.7-1.3 10.6 1.2" style="mask:url(#SVGID_59_);fill-rule:evenodd;clip-rule:evenodd;fill:#011900"/><defs><filter id="Adobe_OpacityMaskFilter_30_" filterUnits="userSpaceOnUse" x="454.5" y="302.3" width="15.7" height="31.1"><feColorMatrix values="1 0 0 0 0 0 1 0 0 0 0 0 1 0 0 0 0 0 1 0"/></filter></defs><mask maskUnits="userSpaceOnUse" x="454.5" y="302.3" width="15.7" height="31.1" id="SVGID_61_"><g style="filter:url(#Adobe_OpacityMaskFilter_30_)"><linearGradient id="SVGID_62_" gradientUnits="userSpaceOnUse" x1="-199.503" y1="624.776" x2="-232.786" y2="658.39" gradientTransform="translate(683.353 -328.61)"><stop offset="0" style="stop-color:#000"/><stop offset="1" style="stop-color:#fff"/></linearGradient><path style="fill:url(#SVGID_62_)" d="M454.5 302.3h15.7v31.1h-15.7z"/></g></mask><path d="M454.5 305.4c2.3 8.8 3.4 17.9 3.4 27 2.7 1.5 6 1.4 8.5-.5 3.3-2.4 3.1-7.8 3.3-12.9.1-4.2 1.4-8.5-.3-11.9-2.7-5.6-10.9-6.5-14.9-1.7" style="mask:url(#SVGID_61_);fill-rule:evenodd;clip-rule:evenodd;fill:#011900"/><path class="st131" d="M443.1 301.6c3.6 2.6 8.6 2.7 12.3.2.9-.5.9-1.4.1-2.6-3.5-.9-6.9-2.2-10-4-.1.8-.1 1.6 0 2.4-2.3 1.5-3.1 2.8-2.4 4"/><path class="st115" d="M463.5 319.2c-.1 9 .3 19.2-11.8 20.9-21.2 2.9-23.1-31.6-14.7-38.2 4.3-3.4 7.6.3 11.9-.1 2.5-.2 4.7-1.4 7.9-1 8.3 1 6.8 11.6 6.7 18.4"/><defs><filter id="Adobe_OpacityMaskFilter_31_" filterUnits="userSpaceOnUse" x="439.8" y="304.7" width="22.1" height="33.1"><feColorMatrix values="1 0 0 0 0 0 1 0 0 0 0 0 1 0 0 0 0 0 1 0"/></filter></defs><mask maskUnits="userSpaceOnUse" x="439.8" y="304.7" width="22.1" height="33.1" id="SVGID_63_"><g style="filter:url(#Adobe_OpacityMaskFilter_31_)"><linearGradient id="SVGID_64_" gradientUnits="userSpaceOnUse" x1="-223.248" y1="636.203" x2="-208.667" y2="656.987" gradientTransform="translate(667.785 -323.934)"><stop offset="0" style="stop-color:#000"/><stop offset="1" style="stop-color:#fff"/></linearGradient><path style="fill:url(#SVGID_64_)" d="M439.8 304.7h22.1v33.1h-22.1z"/></g></mask><path d="M461.7 319.2c-.1 7.9.3 17-10.4 18.4-1.7.2-3.3.2-4.8-.1-7.3-1.4-8.9-7.6-3.6-12.7 5.9-5.7 18-10.8 16.5-20.2 3.2 3.3 2.4 10 2.3 14.6" style="mask:url(#SVGID_63_);fill-rule:evenodd;clip-rule:evenodd;fill:#010"/><defs><filter id="Adobe_OpacityMaskFilter_32_" filterUnits="userSpaceOnUse" x="432.3" y="300.4" width="28.4" height="26.3"><feColorMatrix values="1 0 0 0 0 0 1 0 0 0 0 0 1 0 0 0 0 0 1 0"/></filter></defs><mask maskUnits="userSpaceOnUse" x="432.3" y="300.4" width="28.4" height="26.3" id="SVGID_65_"><g style="filter:url(#Adobe_OpacityMaskFilter_32_)"><linearGradient id="SVGID_66_" gradientUnits="userSpaceOnUse" x1="-209.391" y1="657.601" x2="-220.275" y2="634.539" gradientTransform="translate(659.837 -335.675)"><stop offset="0" style="stop-color:#000"/><stop offset="1" style="stop-color:#fff"/></linearGradient><path style="fill:url(#SVGID_66_)" d="M432.3 300.4h28.4v26.3h-28.4z"/></g></mask><path d="M433.8 326.7c-2.9-9.6-1.4-21.3 3.2-24.9 4.3-3.4 7.6.3 11.9-.1 2.5-.2 4.7-1.4 7.9-1 1.7.2 3 .8 4 1.7-9.3 11.1-25.5 4.1-27 24.3" style="mask:url(#SVGID_65_);fill-rule:evenodd;clip-rule:evenodd;fill:#3f7600"/><defs><filter id="Adobe_OpacityMaskFilter_33_" filterUnits="userSpaceOnUse" x="416.2" y="378.7" width="122.2" height="58.6"><feColorMatrix values="1 0 0 0 0 0 1 0 0 0 0 0 1 0 0 0 0 0 1 0"/></filter></defs><mask maskUnits="userSpaceOnUse" x="416.2" y="378.7" width="122.2" height="58.6" id="SVGID_67_"><g style="filter:url(#Adobe_OpacityMaskFilter_33_)"><linearGradient id="SVGID_68_" gradientUnits="userSpaceOnUse" x1="-248.171" y1="647.212" x2="-97.77" y2="609.929" gradientTransform="translate(642.834 -218.759)"><stop offset="0" style="stop-color:#000"/><stop offset="1" style="stop-color:#fff"/></linearGradient><path style="fill:url(#SVGID_68_)" d="M416.2 378.7h122.2v58.6H416.2z"/></g></mask><path d="M538 378.7c-71.1 26.7-106.7 40-106.7 40s-5 6-15.1 17.9c8 2.1 18-1 29.9-9.3 61.5-23.8 92.3-35.8 92.3-35.8-.3-8.5-.4-12.8-.4-12.8" style="mask:url(#SVGID_67_);fill-rule:evenodd;clip-rule:evenodd;fill:#631600"/><path class="st36" d="M510.1 323.4c19.8 6.6 39.5 13.5 58.9 20.8 5.1-18.9 15.5-62.5 17-91.3 2.1-38.8-30.3-35.9-49.2-13.1-12.2 14.7-16.3 32.2-20.3 52.1-4.3 21-6.4 31.5-6.4 31.5"/><path class="st50" d="M432.4 394.9c22.5-12.7 57.6-40.7 79.2-57.3 31.6 4.4 49.1 12.4 49.5 24.2-3.5 8.2-27.9 19.2-38.1 23.9-54.1 24.9-81.1 37.4-81.1 37.4-10.1 6.4-19.7 15.7-32.3 13.1-13-2.6-26.4-13.8-30.4-22.2-2-4.1-1-8.5 1.7-10.4 2.3-1.6 5.7-.2 10.1 1.4 10.7 4.1 18.1 4.9 28.5.2 3.5-1.6 5.9-3.5 1.6-4.8-2-.6-5.4-1.1-10.1-1.7-4.3-.6-5.1-2.3-3.8-3.6 2.7-2.5 15.2-4.6 25.2-.2"/><defs><filter id="Adobe_OpacityMaskFilter_34_" filterUnits="userSpaceOnUse" x="516" y="239.5" width="64.4" height="94.5"><feColorMatrix values="1 0 0 0 0 0 1 0 0 0 0 0 1 0 0 0 0 0 1 0"/></filter></defs><mask maskUnits="userSpaceOnUse" x="516" y="239.5" width="64.4" height="94.5" id="SVGID_69_"><g style="filter:url(#Adobe_OpacityMaskFilter_34_)"><linearGradient id="SVGID_70_" gradientUnits="userSpaceOnUse" x1="-227.954" y1="576.747" x2="-179.91" y2="642.388" gradientTransform="translate(748.34 -328)"><stop offset="0" style="stop-color:#000"/><stop offset="1" style="stop-color:#fff"/></linearGradient><path style="fill:url(#SVGID_70_)" d="M516 239.5h64.4V334H516z"/></g></mask><path d="M565.2 334c-35.4-4-51.7-7.5-48.9-10.6 8.6.6 17-3.1 22.4-9.9 8.6-10.9 5-20 2.8-30.1-5.3-24.4 13-45.8 37.6-43.8 3.3 12.2-.5 31.5-2.6 44-2.9 16.7-6.6 33.5-11.3 50.4" style="mask:url(#SVGID_69_);fill-rule:evenodd;clip-rule:evenodd;fill:#001617"/><defs><filter id="Adobe_OpacityMaskFilter_35_" filterUnits="userSpaceOnUse" x="512.3" y="231.1" width="33.5" height="81.2"><feColorMatrix values="1 0 0 0 0 0 1 0 0 0 0 0 1 0 0 0 0 0 1 0"/></filter></defs><mask maskUnits="userSpaceOnUse" x="512.3" y="231.1" width="33.5" height="81.2" id="SVGID_71_"><g style="filter:url(#Adobe_OpacityMaskFilter_35_)"><linearGradient id="SVGID_72_" gradientUnits="userSpaceOnUse" x1="-198.597" y1="614.388" x2="-258.744" y2="643.776" gradientTransform="translate(744.462 -350.847)"><stop offset="0" style="stop-color:#000"/><stop offset="1" style="stop-color:#fff"/></linearGradient><path style="fill:url(#SVGID_72_)" d="M512.3 231.1h33.5v81.2h-33.5z"/></g></mask><path d="M533.2 298.7c-4.3 7.7-12.1 12.9-20.9 13.7 2-9.9 3.4-16.7 4.1-20.4 2.8-17.1 7.4-31.3 13.8-42.7 3.8-6.8 9-12.8 15.6-18.1-30.3 24.2-.8 46-12.6 67.5" style="mask:url(#SVGID_71_);fill-rule:evenodd;clip-rule:evenodd;fill:#3c686b"/><defs><filter id="Adobe_OpacityMaskFilter_36_" filterUnits="userSpaceOnUse" x="432.4" y="344.4" width="75.5" height="54.7"><feColorMatrix values="1 0 0 0 0 0 1 0 0 0 0 0 1 0 0 0 0 0 1 0"/></filter></defs><mask maskUnits="userSpaceOnUse" x="432.4" y="344.4" width="75.5" height="54.7" id="SVGID_73_"><g style="filter:url(#Adobe_OpacityMaskFilter_36_)"><linearGradient id="SVGID_74_" gradientUnits="userSpaceOnUse" x1="-175.649" y1="672.448" x2="-199.6" y2="602.25" gradientTransform="translate(660.008 -259.171)"><stop offset="0" style="stop-color:#000"/><stop offset="1" style="stop-color:#fff"/></linearGradient><path style="fill:url(#SVGID_74_)" d="M432.4 344.4h75.5v54.7h-75.5z"/></g></mask><path d="M502.9 344.4c3.3 2.5 5 3.7 5 3.7-45.2 16.9-28.9 41.4-52.8 49.6-7.6 2.6-15.9 1.6-22.6-2.7 6.3-3.6 13.4-8.2 21.3-13.7 12.8-9.1 22-15.9 27.5-20.2 9.6-7.3 16-12.2 19.1-14.7 1.7-1.4 2.5-2 2.5-2" style="mask:url(#SVGID_73_);fill-rule:evenodd;clip-rule:evenodd;fill:#fbcf91"/><defs><filter id="Adobe_OpacityMaskFilter_37_" filterUnits="userSpaceOnUse" x="463.1" y="345.7" width="88.2" height="63.1"><feColorMatrix values="1 0 0 0 0 0 1 0 0 0 0 0 1 0 0 0 0 0 1 0"/></filter></defs><mask maskUnits="userSpaceOnUse" x="463.1" y="345.7" width="88.2" height="63.1" id="SVGID_75_"><g style="filter:url(#Adobe_OpacityMaskFilter_37_)"><linearGradient id="SVGID_76_" gradientUnits="userSpaceOnUse" x1="-226.93" y1="628.599" x2="-141.253" y2="623.549" gradientTransform="translate(692.458 -248.929)"><stop offset="0" style="stop-color:#000"/><stop offset="1" style="stop-color:#fff"/></linearGradient><path style="fill:url(#SVGID_76_)" d="M463.1 345.7h88.2v63.1h-88.2z"/></g></mask><path d="M551.4 365.3c-20.3-13.1-30.5-19.6-30.5-19.6-38.4 12.9-16.5 45.2-57.8 63.1 41.1-18.9 61.6-28.4 61.6-28.4 12.1-5.4 21-10.5 26.7-15.1" style="mask:url(#SVGID_75_);fill-rule:evenodd;clip-rule:evenodd;fill:#e94f00"/><defs><filter id="Adobe_OpacityMaskFilter_38_" filterUnits="userSpaceOnUse" x="506.4" y="345.7" width="44.2" height="38.7"><feColorMatrix values="1 0 0 0 0 0 1 0 0 0 0 0 1 0 0 0 0 0 1 0"/></filter></defs><mask maskUnits="userSpaceOnUse" x="506.4" y="345.7" width="44.2" height="38.7" id="SVGID_77_"><g style="filter:url(#Adobe_OpacityMaskFilter_38_)"><linearGradient id="SVGID_78_" gradientUnits="userSpaceOnUse" x1="-230.997" y1="643.906" x2="-141.395" y2="626.243" gradientTransform="translate(738.26 -274.639)"><stop offset="0" style="stop-color:#000"/><stop offset="1" style="stop-color:#fff"/></linearGradient><path style="fill:url(#SVGID_78_)" d="M506.4 345.7h44.2v38.7h-44.2z"/></g></mask><path d="M550.6 365.9c-24.5-17.3-39.3-23.5-44.2-18.5 8.8.4 16.3 6.5 18.5 15 2.2 8.5-1.4 17.5-8.9 22 17.4-7.6 28.9-13.8 34.6-18.5" style="mask:url(#SVGID_77_);fill-rule:evenodd;clip-rule:evenodd;fill:#9e0800"/><path d="M510.3 349.1c-6.4-2.6-8-3.6-7.4-6.5 1.4-6.6 2.8-13.6 4.3-21 .5-2 1.8-2.9 4.1-2.6 20.2 2.8 40 6.9 59.4 12.1 2.4.6 3.4 2.1 3 4.4-2.1 10.6-5.1 21-8.9 31.3-1.7 4.2-3.7 3.8-8.5 1.8-14.9-7-30.3-13.5-46-19.5" style="fill-rule:evenodd;clip-rule:evenodd;fill:#295255"/><defs><filter id="Adobe_OpacityMaskFilter_39_" filterUnits="userSpaceOnUse" x="534.7" y="327.7" width="34.1" height="37"><feColorMatrix values="1 0 0 0 0 0 1 0 0 0 0 0 1 0 0 0 0 0 1 0"/></filter></defs><mask maskUnits="userSpaceOnUse" x="534.7" y="327.7" width="34.1" height="37" id="SVGID_79_"><g style="filter:url(#Adobe_OpacityMaskFilter_39_)"><linearGradient id="SVGID_80_" gradientUnits="userSpaceOnUse" x1="-237.014" y1="631.817" x2="-202.596" y2="648.374" gradientTransform="translate(768.197 -295.572)"><stop offset="0" style="stop-color:#000"/><stop offset="1" style="stop-color:#fff"/></linearGradient><path style="fill:url(#SVGID_80_)" d="M534.7 327.7h34.1v37h-34.1z"/></g></mask><path d="M534.7 327.7c10.7 1.9 21.3 4.3 31.7 7.1 1.8.5 2.6 1.6 2.3 3.4-1.6 8.1-3.9 16.1-6.8 24-1.3 3.2-2.9 2.9-6.5 1.3-3.7-1.7-7.4-3.4-11.2-5-13-10.7-4-21.6-9.5-30.8" style="mask:url(#SVGID_79_);fill-rule:evenodd;clip-rule:evenodd;fill:#041d21"/><path class="st160" d="M360.2 291.9c.6-.3.8-1 .5-1.7-.3-.6-1-.8-1.7-.5l-23.8 12.1c-.6.3-.8 1-.5 1.7.3.6 1 .8 1.7.5l23.8-12.1z"/><path class="st161" d="M353.7 284.8c.5-.5.5-1.3 0-1.7-.5-.5-1.3-.5-1.7 0l-19.1 18.7c-.5.5-.5 1.3 0 1.7.5.5 1.3.5 1.7 0l19.1-18.7z"/><path class="st161" d="M345.4 279.9c.3-.6 0-1.3-.7-1.6-.6-.3-1.3 0-1.6.7L333 303.7c-.3.6 0 1.3.7 1.6.6.3 1.3 0 1.6-.7l10.1-24.7z"/><path class="st160" d="M352 279.8c.4-.5.3-1.3-.3-1.7-.5-.4-1.3-.3-1.7.3l-15.9 21.5c-.4.5-.3 1.3.3 1.7s1.3.3 1.7-.3l15.9-21.5z"/><path class="st162" d="M355.6 289.1c.6-.4.7-1.1.3-1.7-.4-.6-1.1-.7-1.7-.3L332 302c-.6.4-.7 1.1-.3 1.7.4.6 1.1.7 1.7.3l22.2-14.9z"/><path class="st163" d="M286.9 335.5c11.8-6.1 20.8-15.9 29.5-26.3 4-4.8 7.3-11.6 14.7-10.2 3.6.6 6.6 3.3 7.7 6.8 4 12.9-18.3 28.2-39 35.1-1.1-1.2-2.6-2-4.4-2h-.4c-.2-.1-.5-.2-.7-.3l-6.9-2.8c-.2-.2-.4-.2-.5-.3"/><defs><filter id="Adobe_OpacityMaskFilter_40_" filterUnits="userSpaceOnUse" x="285.5" y="299.6" width="40.2" height="36.9"><feColorMatrix values="1 0 0 0 0 0 1 0 0 0 0 0 1 0 0 0 0 0 1 0"/></filter></defs><mask maskUnits="userSpaceOnUse" x="285.5" y="299.6" width="40.2" height="36.9" id="SVGID_81_"><g style="filter:url(#Adobe_OpacityMaskFilter_40_)"><linearGradient id="SVGID_82_" gradientUnits="userSpaceOnUse" x1="-189.82" y1="655.438" x2="-203.937" y2="636.867" gradientTransform="translate(504.62 -325.307)"><stop offset="0" style="stop-color:#000"/><stop offset="1" style="stop-color:#fff"/></linearGradient><path style="fill:url(#SVGID_82_)" d="M285.5 299.6h40.2v36.9h-40.2z"/></g></mask><path d="M304.7 322.2c-5.9 6-12.3 10.6-19.2 14 11.6 1.6 11-3.7 16-10 5.8-7.3 15.7-8 20-14 2.6-3.7 1.5-7.7 4.1-12.6-1.6.7-3.2 2-4.8 3.8-1.1 1.3-2.6 3.2-4.6 5.9-3.6 4.6-7.5 8.9-11.5 12.9" style="mask:url(#SVGID_81_);fill-rule:evenodd;clip-rule:evenodd;fill:#ffb259"/><defs><filter id="Adobe_OpacityMaskFilter_41_" filterUnits="userSpaceOnUse" x="292.2" y="302.8" width="45.3" height="38.9"><feColorMatrix values="1 0 0 0 0 0 1 0 0 0 0 0 1 0 0 0 0 0 1 0"/></filter></defs><mask maskUnits="userSpaceOnUse" x="292.2" y="302.8" width="45.3" height="38.9" id="SVGID_83_"><g style="filter:url(#Adobe_OpacityMaskFilter_41_)"><linearGradient id="SVGID_84_" gradientUnits="userSpaceOnUse" x1="-208.194" y1="635.915" x2="-177.095" y2="652.803" gradientTransform="translate(511.686 -319.823)"><stop offset="0" style="stop-color:#000"/><stop offset="1" style="stop-color:#fff"/></linearGradient><path style="fill:url(#SVGID_84_)" d="M292.2 302.8h45.3v38.9h-45.3z"/></g></mask><path d="M292.2 341.7c13.1-3.9 37.7-14.7 44-28 1.3-2.7 1.6-5.2.9-7.6-.7-2.1-2.8-3.4-5-3.3-5.7.4-4.5 8.1-6.8 12.8-2.9 5.9-7.9 5.9-15.4 10.2-10.6 6.2-7.7 12.5-17.7 15.9" style="mask:url(#SVGID_83_);fill-rule:evenodd;clip-rule:evenodd;fill:#c80000"/><path class="st170" d="M325 316.1c.3.1.7 0 .8-.3.1-.3 0-.7-.3-.8-1.5-.6-2.9-1.6-4-2.7s-2.1-2.5-2.7-4c-.1-.3-.5-.5-.8-.3-.3.1-.5.5-.3.8.7 1.7 1.7 3.2 3 4.4 1.2 1.2 2.7 2.2 4.3 2.9M318.1 323.4c.3.1.6 0 .7-.3.1-.3 0-.6-.3-.7-1.4-.6-2.7-1.4-3.7-2.5-1.1-1.1-1.9-2.3-2.5-3.7-.1-.3-.5-.4-.7-.3-.3.1-.4.5-.3.7.6 1.5 1.6 2.9 2.7 4.1 1.2 1.1 2.5 2 4.1 2.7M310.2 330c.3.1.6 0 .7-.3.1-.3 0-.6-.3-.7-1.3-.5-2.4-1.3-3.4-2.3-1-1-1.7-2.1-2.3-3.4-.1-.3-.4-.4-.7-.3-.3.1-.4.4-.3.7.6 1.4 1.4 2.7 2.5 3.7 1.2 1.2 2.4 2.1 3.8 2.6M299.9 337.5c.2.1.5.1.6-.2.1-.2.1-.5-.2-.6-1.1-.6-2.1-1.5-2.8-2.4-.8-1-1.3-2.1-1.7-3.3-.1-.2-.3-.4-.6-.3-.2.1-.4.3-.3.6.4 1.3 1 2.6 1.9 3.6.8 1 1.9 1.9 3.1 2.6"/><path class="st171" d="M339.8 321.4c15.5 1 23.8-.8 24.9-5.3-2.3-5.9-8.5-9.2-14.7-7.9-6.2 1.2-10.5 6.8-10.2 13.2"/><defs><filter id="Adobe_OpacityMaskFilter_42_" filterUnits="userSpaceOnUse" x="341.3" y="312.2" width="23" height="13.1"><feColorMatrix values="1 0 0 0 0 0 1 0 0 0 0 0 1 0 0 0 0 0 1 0"/></filter></defs><mask maskUnits="userSpaceOnUse" x="341.3" y="312.2" width="23" height="13.1" id="SVGID_85_"><g style="filter:url(#Adobe_OpacityMaskFilter_42_)"><linearGradient id="SVGID_86_" gradientUnits="userSpaceOnUse" x1="-205.597" y1="646.462" x2="-211.932" y2="657.913" gradientTransform="translate(563.662 -337.18)"><stop offset="0" style="stop-color:#4f4f4f"/><stop offset="1" style="stop-color:#fff"/></linearGradient><path style="fill:url(#SVGID_86_)" d="M341.3 312.2h23v13.1h-23z"/></g></mask><path d="M341.3 323.7c7.9 3.3 17 1.4 23-4.7-2.4-5-7.9-7.7-13.3-6.6-5.4 1.1-9.4 5.7-9.7 11.3" style="mask:url(#SVGID_85_);fill-rule:evenodd;clip-rule:evenodd;fill:#820000"/><path class="st171" d="M358.3 316.3c7.9 3.3 17 1.4 23-4.7-2.4-5-7.9-7.7-13.3-6.6-5.5 1.2-9.4 5.8-9.7 11.3"/><defs><filter id="Adobe_OpacityMaskFilter_43_" filterUnits="userSpaceOnUse" x="357.9" y="308.7" width="23" height="13.1"><feColorMatrix values="1 0 0 0 0 0 1 0 0 0 0 0 1 0 0 0 0 0 1 0"/></filter></defs><mask maskUnits="userSpaceOnUse" x="357.9" y="308.7" width="23" height="13.1" id="SVGID_87_"><g style="filter:url(#Adobe_OpacityMaskFilter_43_)"><linearGradient id="SVGID_88_" gradientUnits="userSpaceOnUse" x1="-206.552" y1="646.661" x2="-212.887" y2="658.112" gradientTransform="translate(581.203 -340.828)"><stop offset="0" style="stop-color:#4f4f4f"/><stop offset="1" style="stop-color:#fff"/></linearGradient><path style="fill:url(#SVGID_88_)" d="M357.9 308.7h23v13.1h-23z"/></g></mask><path d="M357.9 320.2c7.9 3.3 17 1.4 23-4.7-2.4-5-7.9-7.7-13.3-6.6-5.4 1.2-9.4 5.8-9.7 11.3" style="mask:url(#SVGID_87_);fill-rule:evenodd;clip-rule:evenodd;fill:#820000"/><path class="st122" d="M355.9 317c4 2.1 9 1.3 12.1-2 1.2-1.1.2-2.8-3.1-4.9-1.6-2.2-2.2-5-1.5-7.7.6-2.7 2.3-4.9 4.8-6.2 0 0-1.3-1.2-3.9-3.7-6 4.7-8.7 12.6-6.9 20-1.9 1.8-2.4 3.3-1.5 4.5"/><path class="st178" d="M367.7 315.1c4.9 10.7 8.4 21.9 10.4 33.4 3.8 1.3 8 .2 10.7-2.7 3.6-3.9 2.2-10.6 1.2-17.2-.8-5.3-.2-11.1-3.1-15.1-4.6-6.3-15.2-5.4-19.2 1.6M352.6 318.3c0 10.9 2.5 21.6 7.3 31.3h-2.6l-1.6-.4c-.8-.2-1.5-.4-2.3-.4-.2 0-.5-.1-.7-.1-.6-.3-1.4-.5-2-.6l-.9-.3c-.4-.1-.8-.2-1.3-.3h.1c-.3-.2-.7-.3-1-.4-.6-.5-1.3-.8-2.1-1.1-1.4-.8-3.2-.9-4.7-.4-5.4-9.2-7.5-21.2-1.1-26.5 3.6-3 8.8-3.4 12.9-.8"/><path class="st124" d="M364.5 292c.8-.7 2.3-.2 3.3 1s1.1 2.8.2 3.4c-.8.7-2.3.2-3.3-1-.9-1.2-1-2.7-.2-3.4"/><defs><filter id="Adobe_OpacityMaskFilter_44_" filterUnits="userSpaceOnUse" x="339.1" y="320.2" width="20.8" height="28.9"><feColorMatrix values="1 0 0 0 0 0 1 0 0 0 0 0 1 0 0 0 0 0 1 0"/></filter></defs><mask maskUnits="userSpaceOnUse" x="339.1" y="320.2" width="20.8" height="28.9" id="SVGID_89_"><g style="filter:url(#Adobe_OpacityMaskFilter_44_)"><linearGradient id="SVGID_90_" gradientUnits="userSpaceOnUse" x1="-230.786" y1="635.271" x2="-192.008" y2="658.457" gradientTransform="translate(561.3 -312.017)"><stop offset="0" style="stop-color:#000"/><stop offset="1" style="stop-color:#fff"/></linearGradient><path style="fill:url(#SVGID_90_)" d="M339.1 320.2h20.8v28.9h-20.8z"/></g></mask><path d="M352.9 321.5c0 9.6 2.4 19.1 7 27.5-.2-.1-.4-.2-.7-.2-.2-.1-.4-.1-.6-.2-.5-.2-.9-.3-1.4-.4-.5-.2-1-.3-1.6-.3-.5-.2-1-.2-1.5-.3-.5-.1-1-.3-1.5-.4-.2-.1-.5-.1-.7-.2-2-1.2-4.5-1-6.4.3-6.1-7.6-9.4-20.1-3.3-25.1 3.1-2.4 7.4-2.7 10.7-.7" style="mask:url(#SVGID_89_);fill-rule:evenodd;clip-rule:evenodd;fill:#500000"/><defs><filter id="Adobe_OpacityMaskFilter_45_" filterUnits="userSpaceOnUse" x="367.9" y="314.2" width="18.7" height="33"><feColorMatrix values="1 0 0 0 0 0 1 0 0 0 0 0 1 0 0 0 0 0 1 0"/></filter></defs><mask maskUnits="userSpaceOnUse" x="367.9" y="314.2" width="18.7" height="33" id="SVGID_91_"><g style="filter:url(#Adobe_OpacityMaskFilter_45_)"><linearGradient id="SVGID_92_" gradientUnits="userSpaceOnUse" x1="-195.563" y1="618.692" x2="-224.393" y2="658.263" gradientTransform="translate(591.774 -314.038)"><stop offset="0" style="stop-color:#000"/><stop offset="1" style="stop-color:#fff"/></linearGradient><path style="fill:url(#SVGID_92_)" d="M367.9 314.2h18.7v33h-18.7z"/></g></mask><path d="M367.9 318.8c4 8.9 6.9 18.3 8.7 27.8 3 1.1 6.2.3 8.3-2.1 2.7-3.2 1.5-8.8.6-14.3-.7-4.4-.3-9.2-2.7-12.5-3.7-5.2-11.9-4.6-14.9 1.1" style="mask:url(#SVGID_91_);fill-rule:evenodd;clip-rule:evenodd;fill:#500000"/><path class="st131" d="M355.9 317c4 2.1 9 1.3 12.1-2 .8-.7.6-1.6-.4-2.7-3.6-.2-7.2-1-10.7-2.4.1.8.2 1.7.5 2.5-1.9 1.9-2.4 3.4-1.5 4.6"/><path class="st171" d="M379.5 331.7c1.4 7.9 3.3 16.6-2.8 21.7h-4.2c-.3-.1-.7-.1-1-.1-.7-.2-1.5-.5-2.2-.7-.2-.1-.4-.1-.5-.1l-2.7-.6-1.2-.4-1.8-.6c-.6-.2-1.2-.3-1.9-.4l-.6-.2-.8-.4c-.9-.5-1.9-.8-2.9-.7h-1c-.6 0-1.2.1-1.8.3-6.8-9.6-8.5-25.5-4.2-30.8 3.6-4.4 7.5-1.1 11.6-2.3 2.4-.7 4.4-2.3 7.5-2.5 8.6-.8 9.2 10.7 10.5 17.8"/><defs><filter id="Adobe_OpacityMaskFilter_46_" filterUnits="userSpaceOnUse" x="358.4" y="317.2" width="20.6" height="35.2"><feColorMatrix values="1 0 0 0 0 0 1 0 0 0 0 0 1 0 0 0 0 0 1 0"/></filter></defs><mask maskUnits="userSpaceOnUse" x="358.4" y="317.2" width="20.6" height="35.2" id="SVGID_93_"><g style="filter:url(#Adobe_OpacityMaskFilter_46_)"><linearGradient id="SVGID_94_" gradientUnits="userSpaceOnUse" x1="-219.684" y1="633.85" x2="-204.782" y2="654.983" gradientTransform="translate(581.753 -308.505)"><stop offset="0" style="stop-color:#000"/><stop offset="1" style="stop-color:#fff"/></linearGradient><path style="fill:url(#SVGID_94_)" d="M358.4 317.2H379v35.2h-20.6z"/></g></mask><path d="M377.8 332.1c1.3 7.6 3.2 16.1-4.1 20.3-.6-.4-1.3-.7-2-.8-.3-.1-.5-.1-.8-.2l-1.2-.3-.6-.2c-1-.3-1.8-.7-2.9-.7h-2.9c-1.3 0-2.5.4-3.5 1.2-1.9-2.4-1.9-6.1.6-9.9 4.7-7.1 15.5-14.7 12.2-24.3 3.8 2.8 4.3 10 5.2 14.9" style="mask:url(#SVGID_93_);fill-rule:evenodd;clip-rule:evenodd;fill:#760000"/><defs><filter id="Adobe_OpacityMaskFilter_47_" filterUnits="userSpaceOnUse" x="347.6" y="313.6" width="25.9" height="31.6"><feColorMatrix values="1 0 0 0 0 0 1 0 0 0 0 0 1 0 0 0 0 0 1 0"/></filter></defs><mask maskUnits="userSpaceOnUse" x="347.6" y="313.6" width="25.9" height="31.6" id="SVGID_95_"><g style="filter:url(#Adobe_OpacityMaskFilter_47_)"><linearGradient id="SVGID_96_" gradientUnits="userSpaceOnUse" x1="-203.555" y1="653.579" x2="-219.998" y2="632.162" gradientTransform="translate(570.263 -316.133)"><stop offset="0" style="stop-color:#000"/><stop offset="1" style="stop-color:#fff"/></linearGradient><path style="fill:url(#SVGID_96_)" d="M347.6 313.6h25.9v31.6h-25.9z"/></g></mask><path d="M351.8 345.2c-4.8-9.6-5.6-22.2-1.8-26.8 3.6-4.4 7.5-1.1 11.6-2.3 2.4-.7 4.4-2.3 7.5-2.5 1.7-.1 3.2.3 4.3 1.1-6.8 13.2-24.1 8.9-21.6 30.5" style="mask:url(#SVGID_95_);fill-rule:evenodd;clip-rule:evenodd;fill:#d62502"/><path class="st160" d="M379.1 293.6c.6-.3.8-1 .5-1.7-.3-.6-1-.8-1.7-.5l-23.8 12.1c-.6.3-.8 1-.5 1.7.3.6 1 .8 1.7.5l23.8-12.1z"/><path class="st161" d="M372.6 286.5c.5-.5.5-1.3 0-1.7-.5-.5-1.3-.5-1.7 0l-19.1 18.7c-.5.5-.5 1.3 0 1.7.5.5 1.3.5 1.7 0l19.1-18.7z"/><path class="st161" d="M364.4 281.6c.3-.6 0-1.3-.7-1.6-.6-.3-1.3 0-1.6.7L352 305.4c-.3.6 0 1.3.7 1.6.6.3 1.3 0 1.6-.7l10.1-24.7z"/><path class="st160" d="M370.9 281.5c.4-.5.3-1.3-.3-1.7-.5-.4-1.3-.3-1.7.3L353 301.6c-.4.5-.3 1.3.3 1.7.5.4 1.3.3 1.7-.3l15.9-21.5z"/><path class="st162" d="M374.5 290.8c.6-.4.7-1.1.3-1.7-.4-.6-1.1-.7-1.7-.3L351 303.7c-.6.4-.7 1.1-.3 1.7.4.6 1.1.7 1.7.3l22.1-14.9z"/><path class="st163" d="M303.7 338.3c12.9-5.9 22.4-16.3 31.6-27.3 4-4.8 7.3-11.6 14.7-10.2 3.6.6 6.6 3.3 7.7 6.8C362 321.4 335.8 338 314 344c-.8-1.5-2.2-2.5-3.9-2.9-.1 0-.3-.1-.4-.1-.6-.3-1.2-.4-1.8-.5-.6-.2-1.2-.4-1.8-.4-.6-.7-1.5-1.4-2.4-1.8"/><defs><filter id="Adobe_OpacityMaskFilter_48_" filterUnits="userSpaceOnUse" x="304.4" y="301.3" width="40.2" height="36.9"><feColorMatrix values="1 0 0 0 0 0 1 0 0 0 0 0 1 0 0 0 0 0 1 0"/></filter></defs><mask maskUnits="userSpaceOnUse" x="304.4" y="301.3" width="40.2" height="36.9" id="SVGID_97_"><g style="filter:url(#Adobe_OpacityMaskFilter_48_)"><linearGradient id="SVGID_98_" gradientUnits="userSpaceOnUse" x1="-190.909" y1="655.339" x2="-205.026" y2="636.768" gradientTransform="translate(524.63 -323.492)"><stop offset="0" style="stop-color:#000"/><stop offset="1" style="stop-color:#fff"/></linearGradient><path style="fill:url(#SVGID_98_)" d="M304.4 301.3h40.2v36.9h-40.2z"/></g></mask><path d="M323.6 323.9c-5.9 6-12.3 10.6-19.2 14 11.6 1.6 11-3.7 16-10 5.8-7.3 15.7-8 20-14 2.6-3.7 1.5-7.7 4.1-12.6-1.6.7-3.2 2-4.8 3.8-1.1 1.3-2.6 3.2-4.6 5.9-3.6 4.6-7.5 9-11.5 12.9" style="mask:url(#SVGID_97_);fill-rule:evenodd;clip-rule:evenodd;fill:#ffb259"/><defs><filter id="Adobe_OpacityMaskFilter_49_" filterUnits="userSpaceOnUse" x="311.1" y="304.5" width="45.3" height="38.9"><feColorMatrix values="1 0 0 0 0 0 1 0 0 0 0 0 1 0 0 0 0 0 1 0"/></filter></defs><mask maskUnits="userSpaceOnUse" x="311.1" y="304.5" width="45.3" height="38.9" id="SVGID_99_"><g style="filter:url(#Adobe_OpacityMaskFilter_49_)"><linearGradient id="SVGID_100_" gradientUnits="userSpaceOnUse" x1="-209.283" y1="635.816" x2="-178.184" y2="652.704" gradientTransform="translate(531.695 -318.009)"><stop offset="0" style="stop-color:#000"/><stop offset="1" style="stop-color:#fff"/></linearGradient><path style="fill:url(#SVGID_100_)" d="M311.1 304.5h45.3v38.9h-45.3z"/></g></mask><path d="M311.1 343.4c13.1-3.9 37.7-14.7 44-28 1.3-2.7 1.6-5.2.9-7.6-.7-2.1-2.8-3.4-5-3.3-5.7.4-4.5 8.1-6.8 12.8-2.9 5.9-7.9 5.9-15.4 10.3-10.6 6.1-7.7 12.4-17.7 15.8" style="mask:url(#SVGID_99_);fill-rule:evenodd;clip-rule:evenodd;fill:#c80000"/><path class="st170" d="M344 317.8c.3.1.7 0 .8-.3.1-.3 0-.7-.3-.8-1.5-.6-2.9-1.6-4-2.7s-2.1-2.5-2.7-4c-.1-.3-.5-.5-.8-.3-.3.1-.5.5-.3.8.7 1.7 1.7 3.2 3 4.4 1.1 1.2 2.6 2.2 4.3 2.9M337 325.1c.3.1.6 0 .7-.3.1-.3 0-.6-.3-.7-1.4-.6-2.7-1.4-3.7-2.5-1.1-1.1-1.9-2.3-2.5-3.7-.1-.3-.5-.4-.7-.3-.3.1-.4.5-.3.7.6 1.5 1.6 2.9 2.7 4.1 1.2 1.1 2.6 2.1 4.1 2.7M329.2 331.8c.3.1.6 0 .7-.3.1-.3 0-.6-.3-.7-1.3-.5-2.4-1.3-3.4-2.3-1-1-1.7-2.1-2.3-3.4-.1-.3-.4-.4-.7-.3-.3.1-.4.4-.3.7.6 1.4 1.4 2.7 2.5 3.7 1.1 1.1 2.4 2 3.8 2.6M318.8 339.2c.2.1.5.1.6-.2.1-.2.1-.5-.2-.6-1.1-.6-2.1-1.5-2.8-2.4-.8-1-1.3-2.1-1.7-3.3-.1-.2-.3-.4-.6-.3-.2.1-.4.3-.3.6.4 1.3 1 2.6 1.9 3.6.8 1 1.9 1.9 3.1 2.6"/><path class="st197" d="M381.2 311.8c15.9 4.2 24.9 4 26.9-.5-1.2-6.6-7-11.3-13.7-11.2-6.6.1-12.3 5-13.2 11.7"/><defs><filter id="Adobe_OpacityMaskFilter_50_" filterUnits="userSpaceOnUse" x="382.4" y="304.7" width="24.9" height="13.5"><feColorMatrix values="1 0 0 0 0 0 1 0 0 0 0 0 1 0 0 0 0 0 1 0"/></filter></defs><mask maskUnits="userSpaceOnUse" x="382.4" y="304.7" width="24.9" height="13.5" id="SVGID_101_"><g style="filter:url(#Adobe_OpacityMaskFilter_50_)"><linearGradient id="SVGID_102_" gradientUnits="userSpaceOnUse" x1="-204.818" y1="647.242" x2="-213.696" y2="657.87" gradientTransform="translate(607.031 -344.709)"><stop offset="0" style="stop-color:#4f4f4f"/><stop offset="1" style="stop-color:#fff"/></linearGradient><path style="fill:url(#SVGID_102_)" d="M382.4 304.7h24.9v13.5h-24.9z"/></g></mask><path d="M382.4 314.5c7.6 5 17.4 4.9 24.9-.3-1.5-5.7-6.7-9.6-12.5-9.5-6 .1-11.1 4.1-12.4 9.8" style="mask:url(#SVGID_101_);fill-rule:evenodd;clip-rule:evenodd;fill:#c80400"/><path class="st197" d="M401.4 310.3c7.6 5 17.4 4.9 24.9-.3-1.5-5.7-6.7-9.6-12.5-9.5-5.9.1-11 4.1-12.4 9.8"/><defs><filter id="Adobe_OpacityMaskFilter_51_" filterUnits="userSpaceOnUse" x="400.3" y="304.4" width="24.9" height="13.5"><feColorMatrix values="1 0 0 0 0 0 1 0 0 0 0 0 1 0 0 0 0 0 1 0"/></filter></defs><mask maskUnits="userSpaceOnUse" x="400.3" y="304.4" width="24.9" height="13.5" id="SVGID_103_"><g style="filter:url(#Adobe_OpacityMaskFilter_51_)"><linearGradient id="SVGID_104_" gradientUnits="userSpaceOnUse" x1="-205.85" y1="647.256" x2="-214.728" y2="657.885" gradientTransform="translate(625.994 -344.979)"><stop offset="0" style="stop-color:#4f4f4f"/><stop offset="1" style="stop-color:#fff"/></linearGradient><path style="fill:url(#SVGID_104_)" d="M400.3 304.4h24.9v13.5h-24.9z"/></g></mask><path d="M400.3 314.2c7.5 5 17.4 4.9 24.9-.3-1.5-5.7-6.7-9.6-12.5-9.5-6 .1-11 4.1-12.4 9.8" style="mask:url(#SVGID_103_);fill-rule:evenodd;clip-rule:evenodd;fill:#c80400"/><path class="st122" d="M398.9 310.5c3.8 3 9.1 3.1 13 .3 1.5-.9.7-2.8-2.2-5.8-1.2-2.6-1.2-5.7-.1-8.3 1.2-2.6 3.4-4.7 6.2-5.5 0 0-1.1-1.6-3.3-4.7-7.2 3.7-11.6 11.3-11.1 19.4-2.4 1.7-3.2 3.2-2.5 4.6"/><path class="st204" d="M411.4 310.9c2.9 12 4.3 24.4 4.2 36.8 3.7 2.1 8.2 1.8 11.7-.7 4.5-3.3 4.4-10.6 4.7-17.7.3-5.7 2.1-11.6-.2-16.3-3.6-7.5-14.8-8.6-20.4-2.1M395.1 311.1c-2.6 13.3-1.5 27.1 3.2 39.8-17.3 11.8-32.5-33-16.9-41.6 4.5-2.3 10-1.7 13.7 1.8"/><path class="st124" d="M412.8 286.2c1-.5 2.5.2 3.2 1.7.8 1.5.6 3.1-.4 3.6s-2.5-.2-3.2-1.7c-.8-1.4-.6-3 .4-3.6"/><defs><filter id="Adobe_OpacityMaskFilter_52_" filterUnits="userSpaceOnUse" x="378.3" y="312" width="19.1" height="36.7"><feColorMatrix values="1 0 0 0 0 0 1 0 0 0 0 0 1 0 0 0 0 0 1 0"/></filter></defs><mask maskUnits="userSpaceOnUse" x="378.3" y="312" width="19.1" height="36.7" id="SVGID_105_"><g style="filter:url(#Adobe_OpacityMaskFilter_52_)"><linearGradient id="SVGID_106_" gradientUnits="userSpaceOnUse" x1="-234.74" y1="637.56" x2="-194.251" y2="648.254" gradientTransform="translate(602.78 -312.46)"><stop offset="0" style="stop-color:#000"/><stop offset="1" style="stop-color:#fff"/></linearGradient><path style="fill:url(#SVGID_106_)" d="M378.3 312h19.1v36.7h-19.1z"/></g></mask><path d="M394.8 314.6c-2.1 10.9-1.2 22.1 2.6 32.5-14.1 9.6-26.5-26.9-13.8-33.9 3.7-2 8.2-1.4 11.2 1.4" style="mask:url(#SVGID_105_);fill-rule:evenodd;clip-rule:evenodd;fill:#e94900"/><defs><filter id="Adobe_OpacityMaskFilter_53_" filterUnits="userSpaceOnUse" x="410.9" y="311.3" width="16.6" height="35.3"><feColorMatrix values="1 0 0 0 0 0 1 0 0 0 0 0 1 0 0 0 0 0 1 0"/></filter></defs><mask maskUnits="userSpaceOnUse" x="410.9" y="311.3" width="16.6" height="35.3" id="SVGID_107_"><g style="filter:url(#Adobe_OpacityMaskFilter_53_)"><linearGradient id="SVGID_108_" gradientUnits="userSpaceOnUse" x1="-193.593" y1="620.804" x2="-231.51" y2="656.149" gradientTransform="translate(637.275 -314.57)"><stop offset="0" style="stop-color:#000"/><stop offset="1" style="stop-color:#fff"/></linearGradient><path style="fill:url(#SVGID_108_)" d="M410.9 311.3h16.6v35.3h-16.6z"/></g></mask><path d="M410.9 314.8c2.3 10.1 3.5 20.4 3.5 30.7 2.9 1.8 6.4 1.6 9-.5 3.5-2.7 3.3-8.8 3.5-14.7.2-4.7 1.5-9.6-.3-13.6-2.8-6.2-11.4-7.3-15.7-1.9" style="mask:url(#SVGID_107_);fill-rule:evenodd;clip-rule:evenodd;fill:#e94900"/><path class="st131" d="M398.9 310.5c3.8 3 9.1 3.1 13 .3.9-.6 1-1.6.2-2.9-3.7-1-7.3-2.5-10.6-4.6-.1.9-.1 1.8 0 2.7-2.5 1.6-3.3 3.1-2.6 4.5"/><path d="M420.4 330.5c-.2 10.2.2 21.8-12.6 23.7-22.5 3.2-24.3-36.1-15.4-43.4 4.6-3.8 8 .4 12.6 0 2.7-.3 5-1.6 8.3-1.1 8.9 1.1 7.2 13.1 7.1 20.8" style="fill-rule:evenodd;clip-rule:evenodd;fill:#f5ae00"/><defs><filter id="Adobe_OpacityMaskFilter_54_" filterUnits="userSpaceOnUse" x="395.2" y="314.1" width="23.5" height="37.6"><feColorMatrix values="1 0 0 0 0 0 1 0 0 0 0 0 1 0 0 0 0 0 1 0"/></filter></defs><mask maskUnits="userSpaceOnUse" x="395.2" y="314.1" width="23.5" height="37.6" id="SVGID_109_"><g style="filter:url(#Adobe_OpacityMaskFilter_54_)"><linearGradient id="SVGID_110_" gradientUnits="userSpaceOnUse" x1="-220.963" y1="632.404" x2="-204.132" y2="654.974" gradientTransform="translate(620.646 -309.327)"><stop offset="0" style="stop-color:#000"/><stop offset="1" style="stop-color:#fff"/></linearGradient><path style="fill:url(#SVGID_110_)" d="M395.2 314.1h23.5v37.6h-23.5z"/></g></mask><path d="M418.5 330.6c-.1 9 .2 19.3-11.2 20.9-1.8.3-3.5.2-5.1-.1-7.7-1.7-9.4-8.7-3.7-14.4 6.3-6.4 19.1-12.2 17.6-22.8 3.4 3.5 2.5 11.1 2.4 16.4" style="mask:url(#SVGID_109_);fill-rule:evenodd;clip-rule:evenodd;fill:#eb6a00"/><defs><filter id="Adobe_OpacityMaskFilter_55_" filterUnits="userSpaceOnUse" x="387.4" y="309.1" width="30.2" height="29.8"><feColorMatrix values="1 0 0 0 0 0 1 0 0 0 0 0 1 0 0 0 0 0 1 0"/></filter></defs><mask maskUnits="userSpaceOnUse" x="387.4" y="309.1" width="30.2" height="29.8" id="SVGID_111_"><g style="filter:url(#Adobe_OpacityMaskFilter_55_)"><linearGradient id="SVGID_112_" gradientUnits="userSpaceOnUse" x1="-205.231" y1="656.062" x2="-218.015" y2="630.494" gradientTransform="translate(612.319 -322.75)"><stop offset="0" style="stop-color:#000"/><stop offset="1" style="stop-color:#fff"/></linearGradient><path style="fill:url(#SVGID_112_)" d="M387.4 309.1h30.2v29.8h-30.2z"/></g></mask><path d="M388.9 338.9c-3-10.9-1.4-24.2 3.5-28.2 4.6-3.8 8 .4 12.6 0 2.7-.3 5-1.6 8.3-1.1 1.8.3 3.2 1 4.3 2-9.9 12.4-27 4.4-28.7 27.3" style="mask:url(#SVGID_111_);fill-rule:evenodd;clip-rule:evenodd;fill:#ffdf3c"/><path d="M246.5 322.2c-2.3-.9-3.4-3.5-2.5-5.8.9-2.3 3.5-3.4 5.8-2.5 16.1 6.5 32.5 12.3 49.2 17.3 16.7 5 33.6 9.2 50.5 12.7 25.3 5.1 38.4 7.6 50.6 6.5 12.1-1.1 24-6 46.9-15.7 7.1-3 14.1-6.1 21.2-9.3 7.1-3.2 14-6.5 20.9-9.9 2.2-1.1 4.9-.2 6 2.1 1.1 2.2.2 4.9-2.1 6-7.1 3.4-14.1 6.8-21.1 10-7.1 3.2-14.2 6.4-21.4 9.4-23.7 10-36.1 15.1-49.6 16.3-13.4 1.2-27-1.4-53.1-6.6-17.4-3.5-34.5-7.8-51.4-12.8-16.8-5.3-33.5-11.1-49.9-17.7" style="fill:#f0e2c7"/><path class="st64" d="M127 280.1c1 0 1.8.8 1.8 1.8s-.8 1.8-1.8 1.8-1.8-.8-1.8-1.8.8-1.8 1.8-1.8M153.3 282.4c.5 0 .9.4.9.9s-.4.9-.9.9-.9-.4-.9-.9.4-.9.9-.9M166.5 288.6c.5 0 .9.4.9.9s-.4.9-.9.9-.9-.4-.9-.9.4-.9.9-.9M124.1 303.8c1 0 1.8.8 1.8 1.8s-.8 1.8-1.8 1.8-1.8-.8-1.8-1.8.8-1.8 1.8-1.8M220.5 366.2c1 0 1.8.8 1.8 1.8s-.8 1.8-1.8 1.8-1.8-.8-1.8-1.8c0-.9.8-1.8 1.8-1.8M309 306.5c.8 0 1.4.6 1.4 1.4 0 .8-.6 1.4-1.4 1.4-.8 0-1.4-.6-1.4-1.4 0-.8.7-1.4 1.4-1.4M361.4 328.5c.5 0 .9.4.9.9s-.4.9-.9.9-.9-.4-.9-.9.4-.9.9-.9M404 328.9c.8 0 1.4.6 1.4 1.4 0 .8-.6 1.4-1.4 1.4-.8 0-1.4-.6-1.4-1.4 0-.7.6-1.4 1.4-1.4M390.2 294.3c.5 0 .9.4.9.9s-.4.9-.9.9-.9-.4-.9-.9.4-.9.9-.9M319.1 263.5c1 0 1.8.8 1.8 1.8s-.8 1.8-1.8 1.8-1.8-.8-1.8-1.8.8-1.8 1.8-1.8M477 441.2c1 0 1.8.8 1.8 1.8s-.8 1.8-1.8 1.8-1.8-.8-1.8-1.8.8-1.8 1.8-1.8M532 247.4c1 0 1.8.8 1.8 1.8s-.8 1.8-1.8 1.8-1.8-.8-1.8-1.8.8-1.8 1.8-1.8M507.8 244.3c.6 0 1.1.5 1.1 1.1 0 .6-.5 1.1-1.1 1.1-.6 0-1.1-.5-1.1-1.1 0-.7.5-1.1 1.1-1.1M586.9 354.4c.6 0 1.1.5 1.1 1.1 0 .6-.5 1.1-1.1 1.1-.6 0-1.1-.5-1.1-1.1 0-.7.5-1.1 1.1-1.1M389.8 205.4c1 0 1.8.8 1.8 1.8s-.8 1.8-1.8 1.8-1.8-.8-1.8-1.8.8-1.8 1.8-1.8M560.7 306.9c1.1 0 2 .9 2 2s-.9 2-2 2-2-.9-2-2 .9-2 2-2M570.8 176.6c1 0 1.8.8 1.8 1.8s-.8 1.8-1.8 1.8-1.8-.8-1.8-1.8.8-1.8 1.8-1.8"/><path style="fill-rule:evenodd;clip-rule:evenodd;fill:#79bdb4" d="m320.2 268.8 8.5-15.3H324l11.2-20.2 11.2 20.2h-4.7l8.6 15.3h-6l8.4 15.2h-15.1v33.3h-5V284h-14.8l8.4-15.2z"/></svg>