<svg version="1.1" id="Layer_1" xmlns="http://www.w3.org/2000/svg" x="0" y="0" viewBox="0 0 500 500" style="enable-background:new 0 0 500 500" xml:space="preserve"><style>.st0{fill-rule:evenodd;clip-rule:evenodd;fill:#2eb78d}.st1{fill:#fff}.st2,.st3,.st4,.st5{fill-rule:evenodd;clip-rule:evenodd;fill:#1b966d}.st3,.st4,.st5{fill:#41d8ad}.st4,.st5{fill:#fff}.st5{fill:#8217fd}.st11,.st12,.st13,.st22,.st23,.st24{fill-rule:evenodd;clip-rule:evenodd;fill:#fff2f0}.st12,.st13,.st22,.st23,.st24{fill:#6513d8}.st13,.st22,.st23,.st24{fill:#4b0ba8}.st22,.st23,.st24{fill:#ffc45e}.st23,.st24{fill:#ff6c03}.st24{fill:#c90000}.st38{fill:#4d2700}.st39,.st43{fill-rule:evenodd;clip-rule:evenodd}.st43{fill:#893cf7}.st72{fill:#4b09aa}.st76{fill:#ff5703}.st77{fill-rule:evenodd;clip-rule:evenodd;fill:#e4e6ed}</style><path class="st0" d="M194.1 382.8c-8.9 52.9 16.1 105.8 62.7 132.4 8.3 2 12.5 3 12.5 3 7.8-56.8-22.8-111.9-75.2-135.4z"/><path class="st1" d="M200.1 391.2c-.3-.5-.9-.7-1.5-.5-.5.3-.7.9-.5 1.5l63.9 125c.3.5.9.7 1.5.5.5-.3.7-.9.5-1.5l-63.9-125z"/><path class="st2" d="M108 489.9c39.2 36.6 97.1 45 145 20.8 6.2-5.8 9.4-8.8 9.4-8.8-43.1-37.7-106-42.6-154.4-12z"/><path class="st1" d="m257.8 505.3-139.5-15.7c-.6-.1-1.1.4-1.2 1-.1.6.4 1.1 1 1.2l139.5 15.7c.6.1 1.1-.4 1.2-1 0-.6-.4-1.1-1-1.2z"/><path class="st3" d="M122.7 419.1c17.1 50.8 64.1 85.6 117.7 87.2 8.3-2.2 12.4-3.3 12.4-3.3-19.9-53.7-72.9-87.9-130.1-83.9z"/><path class="st1" d="M131.9 423.7c-.5-.3-1.2-.2-1.5.3s-.2 1.2.3 1.5l115.4 80c.5.3 1.2.2 1.5-.3s.2-1.2-.3-1.5l-115.4-80z"/><path class="st4" d="M190.5 453.2c-1 0-1.8.8-1.8 1.8s.8 1.8 1.8 1.8 1.8-.8 1.8-1.8-.8-1.8-1.8-1.8z"/><path class="st0" d="M359.9 503.6s4.1-1.2 12.3-3.7c45-29.3 66.9-83.5 55-135.8-50.9 26.5-78.3 83.2-67.3 139.5z"/><path class="st1" d="M423.2 372.3c-.5-.2-1.2 0-1.4.6l-56.7 128.4c-.2.5 0 1.2.6 1.4.5.2 1.2 0 1.4-.6l56.7-128.4c.2-.5 0-1.1-.6-1.4z"/><path class="st2" d="M340.4 483.8s2.8 3.2 8.4 9.7c45.2 28.9 103.6 26.6 146.4-5.8-45-35.5-108-37.1-154.8-3.9z"/><path class="st1" d="m485 486.3-140.4 1.2c-.6 0-1.1.5-1.1 1.1s.5 1.1 1.1 1.1l140.4-1.2c.6 0 1.1-.5 1.1-1.1s-.5-1.1-1.1-1.1z"/><path class="st3" d="M359 501.5s4.1 1.1 12.4 3.3c53.6-1.5 100.6-36.3 117.7-87.2-57.1-4-110.1 30.2-130.1 83.9z"/><path class="st1" d="m480 422.2-115.4 80c-.5.3-.6 1-.3 1.5s1 .6 1.5.3l115.4-80c.5-.3.6-1 .3-1.5-.4-.5-1-.6-1.5-.3z"/><path class="st4" d="M423.7 450c-1 0-1.8.8-1.8 1.8s.8 1.8 1.8 1.8 1.8-.8 1.8-1.8-.8-1.8-1.8-1.8zM410.7 458c-1.2 0-2.1.9-2.1 2.1s.9 2.1 2.1 2.1 2.1-.9 2.1-2.1c0-1.1-1-2.1-2.1-2.1zM266.4 84.2c-2.8-.7-5.7.1-7.8 2-.6-5.9-5.1-10.7-10.9-11.6-5.9-.9-11.6 2.2-14 7.7-1.9-15.9-15.6-27.6-31.6-27.1s-28.9 13.2-29.7 29.2c-3.1-2.6-7.1-3.8-11.1-3.4-4 .4-7.7 2.4-10.2 5.5-2.6-2.4-6.2-3.5-9.7-2.8-3.5.7-6.5 2.9-8 6.1l139-.3c-1-2.7-3.2-4.7-6-5.3zM96.6 110.6c-1.5-.4-3 0-4.1 1.1-.3-3.1-2.7-5.7-5.8-6.2s-6.2 1.2-7.4 4.1c-1-8.4-8.3-14.7-16.8-14.4-8.5.3-15.4 7-15.8 15.5-1.6-1.4-3.8-2-5.9-1.8-2.1.2-4.1 1.3-5.4 2.9-1.4-1.3-3.3-1.8-5.2-1.5-1.9.3-3.4 1.6-4.3 3.3 0 0 24.7-.1 74-.2-.7-1.4-1.9-2.5-3.3-2.8z"/><path class="st5" d="M166 6.6c4.2 4.9 6.4 7.3 6.4 7.3 2.4-5.8 3.6-8.8 3.6-8.8-2.7 3.3-4.1 4.9-4.1 4.9s-2-1.1-5.9-3.4zM189.6 32.4c3.1 3.5 4.6 5.2 4.6 5.2 1.7-4.2 2.6-6.3 2.6-6.3-2 2.4-3 3.5-3 3.5l-4.2-2.4zM243 21.2c3.1 3.5 4.6 5.2 4.6 5.2 1.7-4.2 2.6-6.3 2.6-6.3-2 2.4-3 3.5-3 3.5s-1.4-.7-4.2-2.4zM138.8 33.9c2.5 2.8 3.7 4.3 3.7 4.3l2.1-5.1c-1.6 1.9-2.4 2.9-2.4 2.9s-1.2-.7-3.4-2.1zM414.3 39.7c4.2 4.9 6.4 7.3 6.4 7.3 2.4-5.8 3.6-8.8 3.6-8.8-2.7 3.3-4.1 4.9-4.1 4.9s-2-1.1-5.9-3.4z"/><path d="M373.7 367.1c-29.7-16.4-65.3-15.9-93.5 1.1-28.2 17.1-43.4 28.3-41.9 61.7-5 44.4-8.8 86.5-8.8 86.5h85.6c9.7-28.5 14.6-42.7 14.6-42.7 3.7 28.5 5.5 42.7 5.5 42.7h79.6s3-23 9.1-68.9c-1.4-33.4-20.6-64.1-50.2-80.4z" style="fill-rule:evenodd;clip-rule:evenodd;fill:#00213d"/><defs><filter id="Adobe_OpacityMaskFilter" filterUnits="userSpaceOnUse" x="258.1" y="414.6" width="69.3" height="101.9"><feColorMatrix values="1 0 0 0 0 0 1 0 0 0 0 0 1 0 0 0 0 0 1 0"/></filter></defs><mask maskUnits="userSpaceOnUse" x="258.1" y="414.6" width="69.3" height="101.9" id="SVGID_1_"><g style="filter:url(#Adobe_OpacityMaskFilter)"><linearGradient id="SVGID_2_" gradientUnits="userSpaceOnUse" x1="-557.426" y1="649.714" x2="-471.946" y2="584.884" gradientTransform="translate(790.127 -138.662)"><stop offset="0" style="stop-color:#000"/><stop offset="1" style="stop-color:#fff"/></linearGradient><path style="fill:url(#SVGID_2_)" d="M258.1 414.6h69.3v101.9h-69.3z"/></g></mask><path d="M317.1 414.6c2.2 42.6-20.9 82.5-59 101.9h51.3s6-16.1 17.9-48.4c0 0-.8-7.4-2.4-22.1-3.7-6.9-6.4-17.3-7.8-31.4z" style="mask:url(#SVGID_1_);fill-rule:evenodd;clip-rule:evenodd;fill:#001324"/><path d="M317.2 465.4c-12.2-7.6-23.8-16.2-34.7-25.5-10.9-9.3-21.1-19.5-30.5-30.4-.5-.6-1.3-.6-1.9-.1-.6.5-.6 1.3-.1 1.9 9.5 11 19.8 21.2 30.8 30.7 11 9.4 22.7 18 35 25.7.6.4 1.4.2 1.8-.4.5-.7.3-1.5-.4-1.9zM313.8 473.1c-7.6-2.5-15.2-5.1-22.7-7.8s-14.9-5.6-22.4-8.6c-.7-.3-1.5.1-1.7.7-.3.7.1 1.5.7 1.7 7.4 3 14.9 5.9 22.5 8.6 7.6 2.8 15.1 5.4 22.8 7.9.7.2 1.4-.2 1.7-.8.2-.7-.2-1.4-.9-1.7zM386.1 446.8c-6.6 5.9-14.1 10.8-22.1 14.4-8 3.6-16.6 6-25.4 7-.7.1-1.2.7-1.2 1.5.1.7.7 1.2 1.5 1.2 9.1-1.1 17.9-3.5 26.2-7.2s16-8.7 22.8-14.8c.5-.5.6-1.3.1-1.9-.5-.7-1.4-.7-1.9-.2zM326.3 446.5c0-.1-.1-.2-.1-.3-2.9-6.7-4.8-13.7-5.8-20.8-.9-7.1-.9-14.3.2-21.5.1-.7-.4-1.4-1.1-1.5-.7-.1-1.4.4-1.5 1.1-1.1 7.4-1.1 14.8-.2 22.2 1 7.3 3 14.5 5.9 21.4l4.8 26.9c.1.7.8 1.2 1.5 1.1.7-.1 1.2-.8 1.1-1.5l-4.8-27.1z"/><path d="M285.7 164.4s-2.3 69.3-6.8 207.9c25.8 17.6 58.9 20.6 87.4 7.9 8.8-147.5 13.2-221.3 13.2-221.3-30.5-12.8-65.1-10.7-93.8 5.5z" style="fill-rule:evenodd;clip-rule:evenodd;fill:#ffe0db"/><path class="st11" d="M361.3 161.3c-4.9-8.1-15.2-10.9-23.4-6.5l-2.9-1.4c-15.4-19.2-33.7-2.1-30.4 14.9-2.7 4.5-3.3 10.1-1.4 15.2.2.7.4 1.4.7 2 .3.8.6 1.5.9 2.3-.4.2-.7.3-1.1.5-.7.3-1.3.7-2 1-1.9.9-3.5 2.1-4.8 3.6l-1.1 1.1c-3.5 3.5-5.2 8-5.2 12.5v.6c0 9.8 7.9 17.7 17.7 17.7 4.6 0 8.8-1.8 12-4.7 1.2-.1 2.4-.2 3.6-.5.4.2.8.5 1.2.7.2.1.3.2.5.3.4.2.8.5 1.2.7 1.4.9 3.1 1.7 4.6 2.2l.3.1c9.3 3.1 19.3-1.9 22.4-11.2 1.1-3.2 1.2-6.5.4-9.6.2-.3.5-.6.7-.9.7-1 1.3-1.9 1.9-3l.2-.4c2.4-4.7 2.4-10 .6-14.5 6.2-5.9 7.8-15.2 3.4-22.7z"/><path class="st12" d="M453.5 160.2c-5.2-5.1-12.9-9.7-23.6-14.1-16.1-6.6-38.8-17.4-47.8-20.5l-86.3 14.9-42.3 11.6 10.7 260.7c24.4-40.7 36.9-87.5 37.4-140.3 6.4 3.7 17.2 10.5 32.6 20.3 3.1 54.8 18.1 108.3 43.9 156.8 28.8 2.9 57.8-3 83.2-17l-32.5-131.8c18.5-49.9 50.5-115.3 24.7-140.6zm-96.2 37.9-.2.4c-.5 1.1-1.2 2-1.9 3-.2.3-.4.6-.7.9.7 3.1.6 6.4-.4 9.6a17.68 17.68 0 0 1-22.4 11.2l-.3-.1c-1.5-.5-3.3-1.3-4.6-2.2-.4-.2-.8-.5-1.2-.7-.2-.1-.3-.2-.5-.3-.4-.2-.8-.4-1.2-.7-1.2.3-2.3.5-3.6.5-3.2 2.9-7.4 4.7-12 4.7-9.8 0-17.7-7.9-17.7-17.7v-.6c0-4.5 1.7-9.1 5.2-12.5l1.1-1.1c1.4-1.4 3-2.6 4.8-3.6.7-.3 1.3-.7 2-1 .4-.2.7-.4 1.1-.5-.4-.7-.7-1.5-.9-2.3-.3-.7-.5-1.3-.7-2-1.9-5.1-1.2-10.7 1.4-15.2-3.3-17 15-34.1 30.4-14.9l2.9 1.4c8.3-4.4 18.6-1.6 23.4 6.5 4.5 7.4 2.8 16.8-3.4 22.3 1.8 5 1.7 10.2-.6 14.9z"/><path class="st13" d="m329.7 176.6-15.5 47 23.4 12.6 8.8-12.1-3.4-46.7z"/><path d="m319.6 283.4.2.1-.2-.1z" style="fill-rule:evenodd;clip-rule:evenodd;fill:#f24848"/><path class="st13" d="M332.5 290.9c-.6-.1-1.1-.3-1.6-.6-.3-.2-.6-.3-.9-.5-.2-.1-.3-.2-.5-.4-.1-.1-.2-.1-.3-.2-.1-.1-.3-.2-.4-.3-.2-.1-.3-.2-.5-.3-.2-.1-.4-.3-.5-.4-.1-.1-.2-.1-.3-.2-.1-.1-.3-.2-.4-.3-.1-.1-.3-.2-.4-.3-.2-.1-.3-.2-.5-.2-.3-.1-.8-.4-1-.6-.2-.1-.3-.2-.5-.3h-.1l-.6-.3c-.2-.1-.4-.2-.6-.4-.2-.1-.4-.2-.5-.3-.1 0-.2-.1-.2-.2-.2-.1-.3-.2-.5-.3-.3-.1-.5-.3-.7-.4-.3-.1-.5-.2-.7-.4-.2-.1-.4-.2-.7-.4-.2-.1-.3-.2-.5-.3-.3-.2-.6-.3-.8-.5-.4-.2-.7-.3-1.1-.6-.2-.1-.4-.3-.6-.4-.1-.1-.2-.1-.3-.2-.3-.1-.5-.3-.7-.5-.3-.2-.6-.4-1-.6-.2-.1-.3-.2-.5-.3-.4-.2-.7-.3-1-.6-.3-.2-.6-.3-.8-.6-.1-.1-.2-.1-.3-.2-1-.2-1.8-.7-2.3-1.5h-2.5l-7.5 67.9 17.9 17.3 15.7-15.1-1.3-55.9c.1 0 .1-.3 0-.6z"/><path class="st12" d="M335.5 157.6c-5.5.2-10.6 2.7-13.9 6.9.4 5.2 3.5 10 8.2 12.4 4.7 2.5 10.3 2.2 14.6-.6 4.3-2.8 6.6-7.8 6.1-13-4.1-3.8-9.5-5.9-15-5.7z"/><path class="st11" d="M342.4 131.7c-16.8-2.2-27.8-3.4-32.8-3.4-4.3 13.6-6.5 20.4-6.5 20.4s3.6 6.6 10.9 19.7l22.8-9.6c15.7 5.7 23.5 8.6 23.5 8.6 8.9-27.7 13.4-41.6 13.4-41.6-9.1-6.3-19.5-4.3-31.3 5.9z"/><path d="M369 97s-20.5 4.2-61.4 12.6c.7 6.2 1.3 12.4 2 18.6 3.2 13 13.8 23 27 25.5 15.9-3.1 28.8-14.9 33.3-30.5-1.7-8.6-2-17.5-.9-26.2z" style="fill-rule:evenodd;clip-rule:evenodd;fill:#ffc052"/><defs><filter id="Adobe_OpacityMaskFilter_1_" filterUnits="userSpaceOnUse" x="313.1" y="97" width="56.9" height="54.5"><feColorMatrix values="1 0 0 0 0 0 1 0 0 0 0 0 1 0 0 0 0 0 1 0"/></filter></defs><mask maskUnits="userSpaceOnUse" x="313.1" y="97" width="56.9" height="54.5" id="SVGID_3_"><g style="filter:url(#Adobe_OpacityMaskFilter_1_)"><linearGradient id="SVGID_4_" gradientUnits="userSpaceOnUse" x1="-469.732" y1="656.101" x2="-517.622" y2="616.121" gradientTransform="translate(845.083 -503.575)"><stop offset="0" style="stop-color:#000"/><stop offset="1" style="stop-color:#fff"/></linearGradient><path style="fill:url(#SVGID_4_)" d="M313.1 97H370v54.5h-56.9z"/></g></mask><path d="M369 97c-37.3 14.5-56 21.7-56 21.7 20.7 21.9 31 32.8 31 32.8 5.9-2.3 11.2-5.9 15.6-10.4 4.8-5 8.4-11.2 10.3-17.9-1.6-7.9-2-16.7-.9-26.2z" style="mask:url(#SVGID_3_);fill-rule:evenodd;clip-rule:evenodd;fill:#ff6c03"/><defs><filter id="Adobe_OpacityMaskFilter_2_" filterUnits="userSpaceOnUse" x="323.2" y="97" width="46.2" height="37.4"><feColorMatrix values="1 0 0 0 0 0 1 0 0 0 0 0 1 0 0 0 0 0 1 0"/></filter></defs><mask maskUnits="userSpaceOnUse" x="323.2" y="97" width="46.2" height="37.4" id="SVGID_5_"><g style="filter:url(#Adobe_OpacityMaskFilter_2_)"><linearGradient id="SVGID_6_" gradientUnits="userSpaceOnUse" x1="-467.059" y1="649.553" x2="-527.809" y2="630.472" gradientTransform="translate(855.2 -520.707)"><stop offset="0" style="stop-color:#000"/><stop offset="1" style="stop-color:#fff"/></linearGradient><path style="fill:url(#SVGID_6_)" d="M323.2 97h46.2v37.4h-46.2z"/></g></mask><path d="M369 97c-24 12.8-39.3 23.1-45.8 30.7 7 5.4 16 7.7 24.7 6.3 8.8-1.4 16.5-6.4 21.5-13.7-1.2-6.8-1.3-14.5-.4-23.3z" style="mask:url(#SVGID_5_);fill-rule:evenodd;clip-rule:evenodd;fill:#c90000"/><path class="st22" d="M379.3 69.8c-6 .3-11.9 6.4-13.3 13.7-1.3 7.3 2.5 13 8.5 12.8 6-.2 11.9-6.4 13.3-13.7 1.4-7.3-2.4-13.1-8.5-12.8z"/><path class="st23" d="M377.2 75c-3.7.2-7.3 3.9-8.1 8.4-.8 4.5 1.5 8 5.2 7.8 3.7-.2 7.3-3.9 8.1-8.4.8-4.5-1.5-8-5.2-7.8z"/><path class="st24" d="M374.4 79c-1.9.1-3.8 2-4.2 4.3-.4 2.3.8 4.1 2.7 4 1.9-.1 3.8-2 4.2-4.3.4-2.3-.8-4.1-2.7-4z"/><ellipse transform="rotate(-29.784 294.72 85.609)" class="st22" cx="294.7" cy="85.6" rx="10.3" ry="13.9"/><path class="st23" d="M294.1 77.6c-3.7 0-5.9 3.6-4.9 8s4.8 8 8.5 8 5.9-3.6 4.9-8-4.8-8-8.5-8z"/><path class="st24" d="M297.1 81.4c-1.9 0-3 1.9-2.5 4.2.5 2.3 2.5 4.2 4.4 4.2 1.9 0 3-1.9 2.5-4.2-.6-2.3-2.5-4.2-4.4-4.2z"/><path class="st22" d="M356.2 35.7c-13.8-9-31.7-8.7-44.4 1.7-12.4 10-15 26.5-11.5 42.9-1.2 15.6 4.6 30.9 15.9 41.8 4.8 5.6 11.8 8.8 19.2 8.8 7.4 0 14.4-3.2 19.2-8.8 11.5-11.8 17.4-28 16.2-44.4 1.8-19.9-1.6-33.6-14.6-42z"/><defs><filter id="Adobe_OpacityMaskFilter_3_" filterUnits="userSpaceOnUse" x="343.4" y="32.8" width="27.9" height="96.8"><feColorMatrix values="1 0 0 0 0 0 1 0 0 0 0 0 1 0 0 0 0 0 1 0"/></filter></defs><mask maskUnits="userSpaceOnUse" x="343.4" y="32.8" width="27.9" height="96.8" id="SVGID_7_"><g style="filter:url(#Adobe_OpacityMaskFilter_3_)"><linearGradient id="SVGID_8_" gradientUnits="userSpaceOnUse" x1="-544.362" y1="647.611" x2="-494.952" y2="570.771" gradientTransform="translate(875.414 -525.498)"><stop offset="0" style="stop-color:#000"/><stop offset="1" style="stop-color:#fff"/></linearGradient><path style="fill:url(#SVGID_8_)" d="M343.4 32.8h27.9v96.8h-27.9z"/></g></mask><path d="M356.2 35.7c-1.6-1.1-3.4-2-5.1-2.8 6.9 12.6 10.9 27 10.9 42.5 0 20.5-6.9 39.3-18.6 54.3 4.3-1.4 8.2-4 11.3-7.5 11.5-11.8 17.4-28 16.2-44.4 1.7-20-1.7-33.7-14.7-42.1z" style="mask:url(#SVGID_7_);fill-rule:evenodd;clip-rule:evenodd;fill:#ffedb2"/><defs><filter id="Adobe_OpacityMaskFilter_4_" filterUnits="userSpaceOnUse" x="295" y="43.5" width="41.7" height="74.8"><feColorMatrix values="1 0 0 0 0 0 1 0 0 0 0 0 1 0 0 0 0 0 1 0"/></filter></defs><mask maskUnits="userSpaceOnUse" x="295" y="43.5" width="41.7" height="74.8" id="SVGID_9_"><g style="filter:url(#Adobe_OpacityMaskFilter_4_)"><linearGradient id="SVGID_10_" gradientUnits="userSpaceOnUse" x1="-484.5" y1="631.823" x2="-537.54" y2="603.744" gradientTransform="translate(827.03 -536.861)"><stop offset="0" style="stop-color:#000"/><stop offset="1" style="stop-color:#fff"/></linearGradient><path style="fill:url(#SVGID_10_)" d="M295 43.5h41.7v74.8H295z"/></g></mask><path d="M310.6 44.7c-9.6 3.3-16 12.5-15.6 22.6 0 0 2.3 3 6.9 9.1.2 18 4.7 32 13.5 41.8-2.9-11.8 10.9-15 8.5-27.6-1.1-5.9-5.5-10.9-7.4-16.6-4.1-12.6 7.3-23.9 20.2-21-5.9-8.2-16.5-11.6-26.1-8.3z" style="mask:url(#SVGID_9_);fill-rule:evenodd;clip-rule:evenodd;fill:#ff6c03"/><path d="M360.7 22.7c-7.9-18.9-35-17.4-25.9-8.3-20.2-7.8-35 2-42.3 12.7-9.1 13.3-8.3 30.1-.4 25.8-.4 7 .8 14 3.5 20.4 2.6 1.5 4.3 4 4.6 7-1.4-8.6-.5-16.2 2.5-22.8-.7 5.3 16.5-1.4 21.6-7.9 2.9 6.6 23.5 5 35.2-8.6.6 10.7 10.9 14.8 11.3 36.7-.1-3.6 3.1-6.6 6.4-7.5 2.3-6.7 1.9-14.6.8-21.6 5.8 3.4 9.6-11.8 1-20.9-4.6-5-11.7-6.9-18.3-5z" style="fill-rule:evenodd;clip-rule:evenodd;fill:#4d2700"/><defs><filter id="Adobe_OpacityMaskFilter_5_" filterUnits="userSpaceOnUse" x="286" y="7.9" width="69.7" height="72.4"><feColorMatrix values="1 0 0 0 0 0 1 0 0 0 0 0 1 0 0 0 0 0 1 0"/></filter></defs><mask maskUnits="userSpaceOnUse" x="286" y="7.9" width="69.7" height="72.4" id="SVGID_11_"><g style="filter:url(#Adobe_OpacityMaskFilter_5_)"><linearGradient id="SVGID_12_" gradientUnits="userSpaceOnUse" x1="-453.644" y1="589.433" x2="-537.384" y2="646.173" gradientTransform="translate(818.018 -574.843)"><stop offset="0" style="stop-color:#000"/><stop offset="1" style="stop-color:#fff"/></linearGradient><path style="fill:url(#SVGID_12_)" d="M286 7.9h69.7v72.4H286z"/></g></mask><path d="M334.8 14.4c-20.2-7.8-35 2-42.3 12.7-9.1 13.3-8.3 30.1-.4 25.8-.4 7 .8 14 3.5 20.4 2.6 1.5 4.3 4 4.6 7-1.4-8.6-.5-16.2 2.5-22.8-.4 3.3 6.3 1.9 12.6-1.3-1-5.6-.6-11.5 1.3-17.3 5.5-16.6 22.2-26.4 39-23.8-10.5-10.6-28.4-8.3-20.8-.7z" style="mask:url(#SVGID_11_);fill-rule:evenodd;clip-rule:evenodd;fill:#261000"/><defs><filter id="Adobe_OpacityMaskFilter_6_" filterUnits="userSpaceOnUse" x="333" y="7.9" width="51.1" height="69.7"><feColorMatrix values="1 0 0 0 0 0 1 0 0 0 0 0 1 0 0 0 0 0 1 0"/></filter></defs><mask maskUnits="userSpaceOnUse" x="333" y="7.9" width="51.1" height="69.7" id="SVGID_13_"><g style="filter:url(#Adobe_OpacityMaskFilter_6_)"><linearGradient id="SVGID_14_" gradientUnits="userSpaceOnUse" x1="-531.728" y1="617.524" x2="-488.918" y2="622.144" gradientTransform="translate(864.995 -577.489)"><stop offset="0" style="stop-color:#000"/><stop offset="1" style="stop-color:#fff"/></linearGradient><path style="fill:url(#SVGID_14_)" d="M333 7.9h51.1v69.7H333z"/></g></mask><path d="M360.7 22.7c-7.2-17.1-30.1-17.5-27.5-10.6 18.2.2 33.5 14.3 34.8 32.8.3 4.4-.2 8.8-1.4 12.8 2.2 4.7 4.1 10.8 4.3 19.9-.1-3.6 3.1-6.6 6.4-7.5 2.3-6.7 1.9-14.6.8-21.6 5.8 3.4 9.6-11.8 1-20.9-4.7-4.9-11.8-6.8-18.4-4.9z" style="mask:url(#SVGID_13_);fill-rule:evenodd;clip-rule:evenodd;fill:#7a3f04"/><path class="st38" d="M352.3 59.6c-3.8-.5-7.6.2-11.1 2.1-.6.3-.8 1-.5 1.6.3.6 1 .8 1.6.5 3.1-1.7 6.5-2.2 9.8-1.8 3.3.4 6.5 1.8 9 4.2.5.4 1.2.4 1.6-.1.4-.5.4-1.2-.1-1.6-2.9-2.9-6.5-4.5-10.3-4.9zM327.3 62.6c-3.5-1.9-7.4-2.6-11.1-2.1-3.8.5-7.4 2.1-10.3 4.8-.5.4-.5 1.2-.1 1.6.4.5 1.2.5 1.6.1 2.6-2.4 5.7-3.8 9-4.2 3.3-.4 6.7.2 9.8 1.8.6.3 1.3.1 1.6-.5.3-.5.1-1.2-.5-1.5z"/><path class="st39" d="M318 73.8c-1.1 0-2 .9-2 2s.9 2 2 2 2-.9 2-2-.9-2-2-2zM351.2 73.7c-1 0-1.8.8-1.8 1.8s.8 1.8 1.8 1.8 1.8-.8 1.8-1.8c.1-.9-.7-1.8-1.8-1.8z"/><path class="st4" d="M355.1 68.1c-1.5 0-2.7 1.2-2.7 2.7 0 1.5 1.2 2.7 2.7 2.7 1.5 0 2.7-1.2 2.7-2.7 0-1.5-1.2-2.7-2.7-2.7zM323 69.6c-1.5 0-2.7 1.2-2.7 2.7 0 1.5 1.2 2.7 2.7 2.7 1.5 0 2.7-1.2 2.7-2.7 0-1.5-1.2-2.7-2.7-2.7z"/><path class="st24" d="M346.4 101.1c-3.3 3.1-7.2 4.7-11.1 4.7-3.9 0-7.8-1.6-11.1-4.7-.4-.4-1.1-.4-1.5 0-.4.4-.4 1.1 0 1.5 3.7 3.5 8.1 5.3 12.5 5.3s8.8-1.8 12.5-5.3c.4-.4.4-1.1 0-1.5-.2-.4-.8-.4-1.3 0zM340.8 109.8c-1.6 1.5-3.6 2.3-5.5 2.3s-3.8-.8-5.5-2.3c-.2-.2-.5-.2-.7 0-.2.2-.2.5 0 .7 1.8 1.7 4 2.6 6.2 2.6s4.4-.9 6.2-2.6c.2-.2.2-.5 0-.7-.1-.2-.5-.2-.7 0z"/><defs><filter id="Adobe_OpacityMaskFilter_7_" filterUnits="userSpaceOnUse" x="302" y="76.4" width="19.8" height="15.1"><feColorMatrix values="1 0 0 0 0 0 1 0 0 0 0 0 1 0 0 0 0 0 1 0"/></filter></defs><mask maskUnits="userSpaceOnUse" x="302" y="76.4" width="19.8" height="15.1" id="SVGID_15_"><g style="filter:url(#Adobe_OpacityMaskFilter_7_)"><linearGradient id="SVGID_16_" gradientUnits="userSpaceOnUse" x1="-510.069" y1="653.533" x2="-539.309" y2="638.993" gradientTransform="translate(833.979 -563.548)"><stop offset="0" style="stop-color:#000"/><stop offset="1" style="stop-color:#fff"/></linearGradient><path style="fill:url(#SVGID_16_)" d="M302 76.4h19.8v15.1H302z"/></g></mask><path d="M305.8 77.2s-1.3-.3-3.9-.8c0 2.8.2 5.6.4 8.4 1.8 3.4 5 5.7 8.8 6.5 3.7.7 7.6-.2 10.6-2.7-7.4.8-14.2-4.1-15.9-11.4z" style="mask:url(#SVGID_15_);fill-rule:evenodd;clip-rule:evenodd;fill:#c90000"/><path class="st1" d="M376.9 69.3 364 75.8c-.1-3.4-1.5-6.4-3.8-8.6-2.3-2.3-5.6-3.8-9.1-3.8-3.6 0-6.8 1.4-9.1 3.8-1.3 1.3-2.3 2.8-2.9 4.5l-1.2-.9c-1-.6-2.1-.9-3.2-.9s-2.2.3-3.2.9l-1.2.9c-.7-1.7-1.7-3.2-2.9-4.5-2.3-2.3-5.6-3.8-9.1-3.8-3.6 0-6.8 1.4-9.1 3.8-2.3 2.3-3.7 5.5-3.8 9l-12.7-6.3c-.4-.2-1 0-1.2.4-.2.4 0 1 .4 1.2l13.6 6.8c.4 2.8 1.7 5.3 3.6 7.3 2.3 2.3 5.6 3.8 9.1 3.8 3.6 0 6.8-1.4 9.1-3.8 2.3-2.3 3.8-5.6 3.8-9.1 0-.9-.1-1.8-.3-2.6.4-.6.9-1 1.5-1.4.7-.4 1.5-.6 2.3-.6.8 0 1.6.2 2.3.6.6.3 1.1.8 1.5 1.3-.2.9-.3 1.8-.3 2.7 0 3.6 1.4 6.8 3.8 9.1 2.3 2.3 5.6 3.8 9.1 3.8 3.6 0 6.8-1.4 9.1-3.8 2-2 3.3-4.6 3.7-7.6l13.8-6.9c.4-.2.6-.7.4-1.2-.2-.6-.7-.8-1.1-.6zM326 84.1c-2 2-4.8 3.3-7.9 3.3-3.1 0-5.9-1.2-7.9-3.3-2-2-3.3-4.8-3.3-7.9 0-3.1 1.2-5.9 3.3-7.9 2-2 4.8-3.3 7.9-3.3 3.1 0 5.9 1.2 7.9 3.3 2 2 3.3 4.8 3.3 7.9 0 3.1-1.3 5.9-3.3 7.9zm32.9 0c-2 2-4.8 3.3-7.9 3.3-3.1 0-5.9-1.2-7.9-3.3-2-2-3.3-4.8-3.3-7.9 0-3.1 1.2-5.9 3.3-7.9 2-2 4.8-3.3 7.9-3.3 3.1 0 5.9 1.2 7.9 3.3 2 2 3.3 4.8 3.3 7.9 0 3.1-1.3 5.9-3.3 7.9z"/><path class="st23" d="M341.5 85.3c-2.7-6.6-4-9.9-4-9.9-.5-1.2-1.7-2-3-2s-2.4.9-2.8 2.1c0 0-1 3.1-3.2 10-7.7 2.1-7.9 6.5-.6 8.7 4.5 4.2 8.9 4.4 13 .1 7.8-2.4 8.5-7 .6-9z"/><path class="st43" d="M290.9 156.2c8.5 1.7 12.7 2.5 12.7 2.5-12 3.8-18 5.6-18 5.6 8.2 37.1 12.2 55.7 12.2 55.7 6.9 2.5 10.4 3.7 10.4 3.7s.4-31.9 1.3-95.6c-9.2 8.2-13.9 12.3-13.9 12.3-3.1 10.6-4.7 15.8-4.7 15.8z"/><defs><filter id="Adobe_OpacityMaskFilter_8_" filterUnits="userSpaceOnUse" x="337.6" y="130.1" width="67.1" height="124.9"><feColorMatrix values="1 0 0 0 0 0 1 0 0 0 0 0 1 0 0 0 0 0 1 0"/></filter></defs><mask maskUnits="userSpaceOnUse" x="337.6" y="130.1" width="67.1" height="124.9" id="SVGID_17_"><g style="filter:url(#Adobe_OpacityMaskFilter_8_)"><linearGradient id="SVGID_18_" gradientUnits="userSpaceOnUse" x1="-462.769" y1="509.115" x2="-514.909" y2="631.185" gradientTransform="translate(869.593 -400.119)"><stop offset="0" style="stop-color:#000"/><stop offset="1" style="stop-color:#fff"/></linearGradient><path style="fill:url(#SVGID_18_)" d="M337.6 130.1h67.1V255h-67.1z"/></g></mask><path d="M380.5 130.1c-11.2 22.8-16.8 34.3-16.8 34.3-19.1 52.3-27.7 76-25.8 71.2 0 0 13.7 6.5 41.1 19.4 0 0 .1-1.4.3-4.1-18.5-16.7-19.1-45.3-.8-62.4 2.5-2.3 5-4.4 7.6-6.4 10-7.8 19.6-14.5 18.5-29.4-.8-11.7-10-21.5-24.1-22.6z" style="mask:url(#SVGID_17_);fill-rule:evenodd;clip-rule:evenodd;fill:#4b0ba8"/><defs><filter id="Adobe_OpacityMaskFilter_9_" filterUnits="userSpaceOnUse" x="252.8" y="217.2" width="45.5" height="68.3"><feColorMatrix values="1 0 0 0 0 0 1 0 0 0 0 0 1 0 0 0 0 0 1 0"/></filter></defs><mask maskUnits="userSpaceOnUse" x="252.8" y="217.2" width="45.5" height="68.3" id="SVGID_19_"><g style="filter:url(#Adobe_OpacityMaskFilter_9_)"><linearGradient id="SVGID_20_" gradientUnits="userSpaceOnUse" x1="-496.142" y1="673.087" x2="-512.192" y2="609.327" gradientTransform="translate(784.8 -369.614)"><stop offset="0" style="stop-color:#000"/><stop offset="1" style="stop-color:#fff"/></linearGradient><path style="fill:url(#SVGID_20_)" d="M252.8 217.2h45.5v68.3h-45.5z"/></g></mask><path d="M289.9 242.2c2.7-6.1 1.8-13.1-2.3-18.3-4.1-5.2-10.8-7.6-17.3-6.4-6.5 1.3-11.8 6.1-13.6 12.5-5.9 11.7-5 25.6 2.3 36.4 14.8 22 34.4 11.6 39 19 .3-9.7.4-14.5.4-14.5-9.3-6.4-14-9.6-14-9.6 6.8-11.2 8.6-17.6 5.5-19.1z" style="mask:url(#SVGID_19_);fill-rule:evenodd;clip-rule:evenodd;fill:#4b0ba8"/><defs><filter id="Adobe_OpacityMaskFilter_10_" filterUnits="userSpaceOnUse" x="410.6" y="268.3" width="3.8" height="5.7"><feColorMatrix values="1 0 0 0 0 0 1 0 0 0 0 0 1 0 0 0 0 0 1 0"/></filter></defs><mask maskUnits="userSpaceOnUse" x="410.6" y="268.3" width="3.8" height="5.7" id="SVGID_21_"><g style="filter:url(#Adobe_OpacityMaskFilter_10_)"><linearGradient id="SVGID_22_" gradientUnits="userSpaceOnUse" x1="-472.588" y1="530.325" x2="-519.478" y2="633.805" gradientTransform="translate(915.22 -381.075)"><stop offset="0" style="stop-color:#000"/><stop offset="1" style="stop-color:#fff"/></linearGradient><path style="fill:url(#SVGID_22_)" d="M383.2 166.1h54.7V274h-54.7z"/></g></mask><path d="M410.6 268.3c1 2 2.3 4 3.8 5.7-1-2-2.3-4-3.8-5.7z" style="mask:url(#SVGID_21_);fill-rule:evenodd;clip-rule:evenodd;fill:#002342"/><defs><filter id="Adobe_OpacityMaskFilter_11_" filterUnits="userSpaceOnUse" x="383.2" y="166.1" width="54.7" height="102.2"><feColorMatrix values="1 0 0 0 0 0 1 0 0 0 0 0 1 0 0 0 0 0 1 0"/></filter></defs><mask maskUnits="userSpaceOnUse" x="383.2" y="166.1" width="54.7" height="102.2" id="SVGID_23_"><g style="filter:url(#Adobe_OpacityMaskFilter_11_)"><linearGradient id="SVGID_24_" gradientUnits="userSpaceOnUse" x1="-472.588" y1="530.325" x2="-519.478" y2="633.805" gradientTransform="translate(915.22 -381.075)"><stop offset="0" style="stop-color:#000"/><stop offset="1" style="stop-color:#fff"/></linearGradient><path style="fill:url(#SVGID_24_)" d="M383.2 166.1h54.7V274h-54.7z"/></g></mask><path d="M437.9 166.2c-11.3-.9-21.3 7-23 18.2-21.1 48.7-31.7 73.1-31.7 73.1 10.5-1.3 20.8 2.9 27.4 10.8-2.9-5.8-3.6-12.5-1.9-18.9 3.2-12 10.9-15.1 17.6-19.2 14.4-8.6 14.7-22.6 4.1-34.7-3.9-4.4-7.5-8.7-5.5-16.8 1.5-6.3 6.6-11.2 13-12.5z" style="mask:url(#SVGID_23_);fill-rule:evenodd;clip-rule:evenodd;fill:#4b0ba8"/><defs><filter id="Adobe_OpacityMaskFilter_12_" filterUnits="userSpaceOnUse" x="340.5" y="296.5" width="83.8" height="118.3"><feColorMatrix values="1 0 0 0 0 0 1 0 0 0 0 0 1 0 0 0 0 0 1 0"/></filter></defs><mask maskUnits="userSpaceOnUse" x="340.5" y="296.5" width="83.8" height="118.3" id="SVGID_25_"><g style="filter:url(#Adobe_OpacityMaskFilter_12_)"><linearGradient id="SVGID_26_" gradientUnits="userSpaceOnUse" x1="-455.61" y1="633.629" x2="-510.47" y2="566.919" gradientTransform="translate(872.522 -231.642)"><stop offset="0" style="stop-color:#000"/><stop offset="1" style="stop-color:#fff"/></linearGradient><path style="fill:url(#SVGID_26_)" d="M340.5 296.5h83.8v126.9h-83.8z"/></g></mask><path d="M381.3 318.2c-15.3-8.7-28.9-16-40.8-21.6 2.3 38.8 11.2 78.3 26.7 118.3-1.8-6.8-1.9-14 0-20.9 11-40.2 69.8-21.9 54.5-77.8-14.1 12-27.6 12.6-40.4 2z" style="mask:url(#SVGID_25_);fill-rule:evenodd;clip-rule:evenodd;fill:#4b0ba8"/><defs><filter id="Adobe_OpacityMaskFilter_13_" filterUnits="userSpaceOnUse" x="367.2" y="414.8" width="3.4" height="8.6"><feColorMatrix values="1 0 0 0 0 0 1 0 0 0 0 0 1 0 0 0 0 0 1 0"/></filter></defs><mask maskUnits="userSpaceOnUse" x="367.2" y="414.8" width="3.4" height="8.6" id="SVGID_27_"><g style="filter:url(#Adobe_OpacityMaskFilter_13_)"><linearGradient id="SVGID_28_" gradientUnits="userSpaceOnUse" x1="-455.61" y1="633.629" x2="-510.47" y2="566.919" gradientTransform="translate(872.522 -231.642)"><stop offset="0" style="stop-color:#000"/><stop offset="1" style="stop-color:#fff"/></linearGradient><path style="fill:url(#SVGID_28_)" d="M340.5 296.5h83.8v126.9h-83.8z"/></g></mask><path d="M367.2 414.8c.8 3 1.9 5.9 3.4 8.6-1.1-2.8-2.3-5.7-3.4-8.6z" style="mask:url(#SVGID_27_);fill-rule:evenodd;clip-rule:evenodd;fill:#002342"/><defs><filter id="Adobe_OpacityMaskFilter_14_" filterUnits="userSpaceOnUse" x="290.9" y="236.2" width="123.1" height="83.3"><feColorMatrix values="1 0 0 0 0 0 1 0 0 0 0 0 1 0 0 0 0 0 1 0"/></filter></defs><mask maskUnits="userSpaceOnUse" x="290.9" y="236.2" width="123.1" height="83.3" id="SVGID_29_"><g style="filter:url(#Adobe_OpacityMaskFilter_14_)"><linearGradient id="SVGID_30_" gradientUnits="userSpaceOnUse" x1="-460.503" y1="549.158" x2="-475.103" y2="643.127" gradientTransform="translate(822.967 -335.642)"><stop offset="0" style="stop-color:#000"/><stop offset="1" style="stop-color:#fff"/></linearGradient><path style="fill:url(#SVGID_30_)" d="M290.9 236.2H414v83.3H290.9z"/></g></mask><path d="M373.4 278.2c-10.7-4.2-23.7-2.8-35-2.7-8.6.1-16.9-1.4-24.4-8.5-8.3-7.9-11.8-19.7-9-30.9-5.9 6.9-10.7 14.7-14 23.1 26.5 16.7 56.5 34.2 90 52.5 12.9 9.2 23.9 10.1 33.1 2.6-26.8 6.7-16.5-26.6-40.7-36.1z" style="mask:url(#SVGID_29_);fill-rule:evenodd;clip-rule:evenodd;fill:#4b0ba8"/><path class="st43" d="m386.2 149-4.2-23.3-13.4-11c.3 2.9.7 5.8 1.2 8.6l-36.7 110.2 2.8 2.2c.5-.1 1.2-.2 1.7 0l.4.1c.4.1.8.2 1.2.5.3.1.5.2.8.4l.6.3c.3.1.5.3.8.5.2.1.5.3.7.4.4.1.7.3 1 .6.3.1.6.2.9.4.1.1.3.1.4.2 14.2-26.7 29.2-52.9 45-78.7l-20.1-2.9 16.9-8.5z"/><defs><filter id="Adobe_OpacityMaskFilter_15_" filterUnits="userSpaceOnUse" x="417.8" y="163.7" width="45.4" height="131.3"><feColorMatrix values="1 0 0 0 0 0 1 0 0 0 0 0 1 0 0 0 0 0 1 0"/></filter></defs><mask maskUnits="userSpaceOnUse" x="417.8" y="163.7" width="45.4" height="131.3" id="SVGID_31_"><g style="filter:url(#Adobe_OpacityMaskFilter_15_)"><linearGradient id="SVGID_32_" gradientUnits="userSpaceOnUse" x1="-579.16" y1="600.584" x2="-486.98" y2="585.884" gradientTransform="translate(949.833 -360.134)"><stop offset="0" style="stop-color:#000"/><stop offset="1" style="stop-color:#fff"/></linearGradient><path style="fill:url(#SVGID_32_)" d="M417.8 163.7h45.4V295h-45.4z"/></g></mask><path d="M456.5 163.7c-19.7 9.8-5.6 26.4-3.6 43.6 3.5 29.6-30.3 22.9-34.7 54.6-1.8 12.5 3.1 25.1 12.9 33.1 7.5-18.9 14.2-36.4 20-52.5 5-13.9 8.6-26.9 10.7-38.8 1.6-9.3 1.8-17.3.9-24.1-.8-5.9-2.9-11.2-6.2-15.9z" style="mask:url(#SVGID_31_);fill-rule:evenodd;clip-rule:evenodd;fill:#8217fd"/><defs><filter id="Adobe_OpacityMaskFilter_16_" filterUnits="userSpaceOnUse" x="318.8" y="228" width="97" height="59.6"><feColorMatrix values="1 0 0 0 0 0 1 0 0 0 0 0 1 0 0 0 0 0 1 0"/></filter></defs><mask maskUnits="userSpaceOnUse" x="318.8" y="228" width="97" height="59.6" id="SVGID_33_"><g style="filter:url(#Adobe_OpacityMaskFilter_16_)"><linearGradient id="SVGID_34_" gradientUnits="userSpaceOnUse" x1="-559.167" y1="654.915" x2="-445.317" y2="610.365" gradientTransform="translate(850.824 -367.543)"><stop offset="0" style="stop-color:#000"/><stop offset="1" style="stop-color:#fff"/></linearGradient><path style="fill:url(#SVGID_34_)" d="M318.8 228h97v59.6h-97z"/></g></mask><path d="M405.4 263.5c-6.8-5.6-15.8-7.8-24.4-5.9-13.8-8.7-34.5-18.5-62.1-29.6-1.8 20.5 15.1 39.2 36 37.4 8.2-.7 15.5-3.3 23.3.4 13.7 6.6 12.8 27.1 37.6 20.5.2-8.8-3.6-17.2-10.4-22.8z" style="mask:url(#SVGID_33_);fill-rule:evenodd;clip-rule:evenodd;fill:#5d31bc"/><path d="M264 133.5H31.1c-2.9 0-5.3 2.4-5.3 5.3v298.8c0 2.9 2.4 5.3 5.3 5.3H264c2.9 0 5.3-2.4 5.3-5.3V138.8c0-2.9-2.4-5.3-5.3-5.3z" style="fill-rule:evenodd;clip-rule:evenodd;fill:#fff;stroke:#e4e6ed;stroke-miterlimit:10"/><path class="st72" d="m425.8 339.6-59 22.4c-.7.3-1 1-.8 1.7.3.7 1 1 1.7.8l59-22.4c.7-.3 1-1 .8-1.7-.3-.7-1.1-1.1-1.7-.8zM429.3 299.7c-.7-.3-1.5 0-1.7.7-5.5 13.3-12.3 20.7-20.1 23.1-7.8 2.3-16.7-.3-26.7-7h-.1c-9.3-5.4-19.4-11.1-29.4-16.8-20.1-11.4-40.2-22.8-59.7-34.4-.8-.5-1.9-1.2-3.4-2-.8-.5-1.6-.9-2.4-1.5 1-2.5 2.2-5 3.4-7.5 1.4-2.8 2.9-5.5 4.4-8.2.4-.6.2-1.4-.5-1.8-.6-.4-1.4-.2-1.8.5-1.6 2.7-3.1 5.5-4.5 8.4-1.4 2.8-2.7 5.7-3.9 8.7-.3.6 0 1.3.5 1.7 1 .6 2.2 1.3 3.4 2.1.8.5 2 1.2 3.4 2 19.8 11.8 39.8 23.1 59.7 34.4 9.6 5.4 19.2 10.9 29.4 16.8 10.6 7.1 20.2 9.9 28.8 7.3 8.6-2.6 15.9-10.4 21.8-24.6.4-.9.1-1.7-.6-1.9z"/><path class="st72" d="M383.6 311.2c.7.2 1.4-.3 1.6-1 .2-.7-.3-1.4-1-1.6-5.9-1.3-12-7-18.4-17.2-6.5-10.4-13.3-25.4-20.3-44.9-.2-.7-1-1.1-1.7-.8-.7.2-1.1 1-.8 1.7 7 19.7 13.9 34.9 20.5 45.4 6.8 10.9 13.5 17 20.1 18.4z"/><path class="st72" d="M443.8 160.9c-3.8-1.1-7.7-1.4-11.5-.9-3.8.5-7.5 1.8-10.8 3.9-3.3 2.1-6.1 4.8-8.3 8-2.1 3.1-3.6 6.7-4.2 10.5l-30.8 71-63.3-30.4c-.2-.1-.5-.2-.8-.2-.9.1-1.8.2-2.6.5-.8.2-1.7.5-2.5.9-.7.3-.9 1.1-.6 1.8.3.7 1.1.9 1.8.6.6-.3 1.3-.6 2-.8.6-.2 1.2-.3 1.8-.3l66.4 31.9c.2.1.5.1.7.1 5.2-.6 10.3.1 14.9 2s8.8 5 12.1 9c3.3 4 5.4 8.8 6.2 13.7.9 5 .5 10.1-1.2 15-.2.7.1 1.4.8 1.7.7.2 1.4-.1 1.7-.8 1.8-5.3 2.2-11 1.3-16.3-.9-5.4-3.2-10.5-6.8-14.9-3.5-4.4-8.1-7.7-13.1-9.8-4.7-1.9-9.8-2.8-15-2.4 2.9-3.9 6.6-6.9 10.9-9 4.4-2.1 9.4-3.1 14.5-2.8 5.1.3 9.9 1.9 14 4.6 4.1 2.7 7.6 6.4 10 10.9.3.6 1.1.9 1.8.6.6-.3.9-1.1.6-1.8-2.6-4.9-6.4-8.9-10.9-11.8-4.5-2.9-9.7-4.7-15.3-5-5.5-.4-10.9.7-15.8 3.1-3.5 1.7-6.6 3.9-9.3 6.7l29-66.8c0-.1.1-.2.1-.3.6-3.5 1.9-6.8 3.9-9.7 1.9-2.9 4.5-5.4 7.5-7.2 3-1.9 6.4-3.1 9.8-3.5 3.4-.5 7-.2 10.4.8.7.2 1.4-.2 1.6-.9.1-.7-.3-1.4-1-1.7z"/><defs><filter id="Adobe_OpacityMaskFilter_17_" filterUnits="userSpaceOnUse" x="395.8" y="342.3" width="65.5" height="107.2"><feColorMatrix values="1 0 0 0 0 0 1 0 0 0 0 0 1 0 0 0 0 0 1 0"/></filter></defs><mask maskUnits="userSpaceOnUse" x="395.8" y="342.3" width="65.5" height="107.2" id="SVGID_35_"><g style="filter:url(#Adobe_OpacityMaskFilter_17_)"><linearGradient id="SVGID_36_" gradientUnits="userSpaceOnUse" x1="-550.004" y1="530.103" x2="-456.404" y2="661.893" gradientTransform="translate(927.87 -205.658)"><stop offset="0" style="stop-color:#000"/><stop offset="1" style="stop-color:#fff"/></linearGradient><path style="fill:url(#SVGID_36_)" d="M395.8 342.3h65.5v107.2h-65.5z"/></g></mask><path d="M418.4 382.1c-3.3 2.3-6.7 4.5-9.8 7.2-17.8 15.4-16.3 44.5.4 60.2 18.4-2.1 36.2-7.8 52.4-16.7 0 0-7.4-30.2-22.3-90.5-1.9 25.2-11.2 33.1-20.7 39.8z" style="mask:url(#SVGID_35_);fill-rule:evenodd;clip-rule:evenodd;fill:#8217fd"/><path class="st22" d="M141.3 441c-1.1-.2-2.3.3-3 1.2-.5-3-4.2-4.2-6.5-2.2-.4-1.8-1.9-3-3.7-3.2-1.8-.2-3.5.9-4.2 2.5-1-1.3-2.6-2-4.3-2-1.7 0-3.2.8-4.2 2.1l-2.1 3.6H93.8c3.1 5 9 3.9 14 4.1v6.4c.2 1.8 1.3 3.3 3 4a5 5 0 0 0 5-.7c-.4 2.3.8 4.7 3 5.6 2.2.9 4.7.2 6.1-1.7 0 0 .2-.4.7-1.3.8 2 2.8 3.4 5 3.3 2.2 0 4.1-1.4 4.9-3.5 1.3 1.5 3.2 2.2 5.1 2 1.9-.3 3.6-1.5 4.4-3.3 4.9-4 8.8-9.2 11.4-15H144c-.5-1-1.5-1.8-2.7-1.9z"/><path class="st76" d="M124 438.3c-.6-.3-1.3 0-1.5.6l-7.8 16.6c-.3.6 0 1.3.6 1.5.6.3 1.3 0 1.5-.6l7.8-16.6c.3-.5 0-1.2-.6-1.5zM113.9 441.8c-.6-.3-1.3 0-1.5.5l-3.5 7.1c-.3.6 0 1.3.5 1.5.6.3 1.3 0 1.5-.5l3.5-7.1c.3-.5.1-1.2-.5-1.5zM137.4 440.9c-.6-.1-1.2.3-1.3.9l-2.7 16.2c-.1.6.3 1.2.9 1.3.6.1 1.2-.3 1.3-.9l2.7-16.2c.1-.6-.3-1.1-.9-1.3zM131.4 438.9c-.6-.2-1.2.1-1.4.7l-5.9 18.5c-.2.6.1 1.2.7 1.4.6.2 1.2-.1 1.4-.7l5.9-18.5c.2-.5-.1-1.2-.7-1.4zM148.5 446.8c-1 0-2-.2-2.8-.6h-.1c-.8-.4-1.5-.9-2-1.5l.1-1.8c0-.6-.5-1.2-1.1-1.2-.6 0-1.2.5-1.2 1.1l-.5 10.5c0 .3.1.6.3.8l1.5 1.8c.4.5 1.1.6 1.6.1.5-.4.6-1.1.1-1.6l-1.2-1.5.2-5.4c.4.3.8.5 1.2.7h.1c1.2.6 2.5.9 3.8.9.6 0 1.1-.5 1.2-1.1 0-.6-.5-1.2-1.2-1.2z"/><path class="st77" d="M47 170.5h201v80H47zM47 155.1h201v5.2H47zM47 260.7h201v5.2H47z"/><path class="st22" d="M299 179.4c.2-2.4-.8-4.8-2.7-6.4-1.9-1.6-4.4-2.1-6.7-1.5-11.3-3.1-17-4.7-17-4.7-15.4 4.6-23.2 6.9-23.2 6.9-1 1-1.2 2.5-.6 3.8.6 1.3 1.9 2.1 3.2 2 3-.2 4.5-.4 4.5-.4-5.6 6.5-8.4 9.8-8.4 9.8-.3 1.3.2 2.6 1.3 3.4 1 .8 2.5.9 3.6.3-.9 3.8-1.3 5.6-1.3 5.6-.3 1.3.4 2.7 1.5 3.4v3c.5 1.4 1.7 2.3 3.2 2.4 1.5.1 2.8-.7 3.5-2 1-3.7 1.5-5.5 1.5-5.5 1.5 6.8 2.2 10.3 2.2 10.3 1.3 11.7 5.7 18.6 13.2 20.9 9.9 11.8 14.8 17.7 14.8 17.7 6.3-11.7 12.7-19.2 19.2-22.4-7.5-10-11.2-15-11.2-15l-.6-31.6z"/><path class="st76" d="M286.2 172.6c-1.7-.7-3.7-.9-5.6-.3l-16.1-1.8c-.3 0-.6.1-.8.3l-8 7.6c-.4.4-.4 1 0 1.4.4.4 1 .4 1.4 0l7.7-7.3 15.8 1.8c.2 0 .3 0 .5-.1 1.5-.5 3-.4 4.3.2 1.3.6 2.5 1.6 3.1 3.1.2.5.8.7 1.3.5.5-.2.7-.8.5-1.3-.8-1.9-2.3-3.3-4.1-4.1zM261.7 198.5c-.8-.2-1.5-.8-1.9-1.4-.4-.7-.6-1.5-.5-2.3.1-.5-.3-1-.8-1.1-.5-.1-1 .3-1.1.8-.2 1.3.1 2.6.8 3.7.7 1.1 1.7 1.9 3 2.3.5.2 1.1-.1 1.2-.7.1-.6-.2-1.1-.7-1.3z"/><path class="st76" d="M281.1 178.5c-1.4-.5-3-.6-4.5-.2l-15-1.3c-.3 0-.7.1-.9.4l-6.5 8.3c-.1.1-.1.2-.2.4l-1.7 6.3c-.1.5.2 1.1.7 1.2.3.1.5 0 .8-.1l-1.6 8c-.1.5.2 1.1.8 1.2.5.1 1.1-.2 1.2-.8l2.4-12.1 11.8-3.1c.2-.1.4-.2.5-.3.8-1 1.9-1.6 3-1.9 1.2-.3 2.4-.1 3.6.4.5.2 1.1 0 1.3-.5.2-.5 0-1.1-.5-1.3-1.6-.7-3.3-.9-4.8-.5-1.5.3-2.9 1.1-3.9 2.3l-12 3.2.3-1.2 6.1-7.7 14.7 1.3h.4c1.2-.3 2.4-.3 3.5.1s2.1 1.1 2.9 2c.3.4 1 .5 1.4.2.4-.3.5-1 .2-1.4-1.2-1.5-2.5-2.5-4-2.9z"/><defs><filter id="Adobe_OpacityMaskFilter_18_" filterUnits="userSpaceOnUse" x="263.8" y="197.6" width="38.9" height="47.4"><feColorMatrix values="1 0 0 0 0 0 1 0 0 0 0 0 1 0 0 0 0 0 1 0"/></filter></defs><mask maskUnits="userSpaceOnUse" x="263.8" y="197.6" width="38.9" height="47.4" id="SVGID_37_"><g style="filter:url(#Adobe_OpacityMaskFilter_18_)"><linearGradient id="SVGID_38_" gradientUnits="userSpaceOnUse" x1="-508.365" y1="589.172" x2="-515.005" y2="656.032" gradientTransform="translate(795.822 -410.089)"><stop offset="0" style="stop-color:#000"/><stop offset="1" style="stop-color:#fff"/></linearGradient><path style="fill:url(#SVGID_38_)" d="M263.8 197.6h38.9V245h-38.9z"/></g></mask><path d="M290.3 231.6c-3.8-2.2-6.2-6.2-6.5-10.5 2.9-6.2 1.6-13.6-3.2-18.5-4.4-4.5-11-6.1-16.9-4.2 1.5 6.9 2.3 10.4 2.3 10.4 1.3 10.9 5.6 17.6 12.7 20 8.9 10.8 13.4 16.2 13.4 16.2l1.5-.3c3-5.1 6-9.3 9.1-12.6-3.9 1.9-8.6 1.7-12.4-.5z" style="mask:url(#SVGID_37_);fill-rule:evenodd;clip-rule:evenodd;fill:#ff6c03"/><defs><filter id="Adobe_OpacityMaskFilter_19_" filterUnits="userSpaceOnUse" x="289.5" y="171.2" width="19.9" height="56.5"><feColorMatrix values="1 0 0 0 0 0 1 0 0 0 0 0 1 0 0 0 0 0 1 0"/></filter></defs><mask maskUnits="userSpaceOnUse" x="289.5" y="171.2" width="19.9" height="56.5" id="SVGID_39_"><g style="filter:url(#Adobe_OpacityMaskFilter_19_)"><linearGradient id="SVGID_40_" gradientUnits="userSpaceOnUse" x1="-569.293" y1="623.495" x2="-512.193" y2="627.595" gradientTransform="translate(821.558 -427.425)"><stop offset="0" style="stop-color:#000"/><stop offset="1" style="stop-color:#fff"/></linearGradient><path style="fill:url(#SVGID_40_)" d="M289.5 171.2h19.9v56.5h-19.9z"/></g></mask><path d="M299 178.4c-.1-2.3-1.3-4.3-3.1-5.7-1.8-1.3-4.2-1.8-6.3-1.2 2 .3 3.8 1.5 4.7 3.3.9 1.8.9 3.9 0 5.7 0 0-.6 9.4-1.8 28.3-2.1 4.8-1.2 10.3 2.2 14.2 3.4 3.9 8.8 5.6 13.8 4.2.3-.2.5-.3.8-.5.1-1.8.2-2.7.2-2.7s-3.3-4.4-9.8-13.2c-.1.1-.3-10.8-.7-32.4z" style="mask:url(#SVGID_39_);fill-rule:evenodd;clip-rule:evenodd;fill:#ffedb2"/><path class="st77" d="M47 272.5h84.2v91.6H47zM137.7 272.5h109.9v3.8H137.7zM137.7 281.2h109.9v3.8H137.7zM137.7 289.6h106.5v3.8H137.7zM137.7 298.4h109.9v3.8H137.7zM137.7 308.1h104.7v3.8H137.7zM137.7 316.9h109.9v3.8H137.7zM137.7 325.3H238v3.8H137.7zM137.7 334h109.9v3.8H137.7zM137.7 342.8h87.4v3.8h-87.4zM137.7 351.2h103.1v3.8H137.7zM137.7 360h70v3.8h-70z"/><path class="st4" d="M359.9 498.1c-1.4 0-2.6 1.2-2.6 2.6 0 1.4 1.2 2.6 2.6 2.6 1.4 0 2.6-1.2 2.6-2.6 0-1.4-1.2-2.6-2.6-2.6zM350 488c-.7 0-1.3.6-1.3 1.3 0 .7.6 1.3 1.3 1.3.7 0 1.3-.6 1.3-1.3 0-.8-.6-1.3-1.3-1.3zM371.3 428.6c-.7 0-1.3.6-1.3 1.3s.6 1.3 1.3 1.3c.7 0 1.3-.6 1.3-1.3s-.6-1.3-1.3-1.3zM288.1 488.6c-.7 0-1.3.6-1.3 1.3 0 .7.6 1.3 1.3 1.3.7 0 1.3-.6 1.3-1.3 0-.8-.5-1.3-1.3-1.3zM394.4 364c-.9 0-1.7.8-1.7 1.7 0 .9.8 1.7 1.7 1.7s1.7-.8 1.7-1.7c0-.9-.8-1.7-1.7-1.7zM285.9 314.3c-.7 0-1.3.6-1.3 1.3 0 .7.6 1.3 1.3 1.3.7 0 1.3-.6 1.3-1.3-.1-.8-.6-1.3-1.3-1.3zM406.5 279.9c-.7 0-1.3.6-1.3 1.3s.6 1.3 1.3 1.3 1.3-.6 1.3-1.3-.6-1.3-1.3-1.3zM433.4 233.7c-1.2 0-2.1.9-2.1 2.1 0 1.2.9 2.1 2.1 2.1 1.2 0 2.1-.9 2.1-2.1 0-1.1-.9-2.1-2.1-2.1zM370.2 144.5c-.3 0-.6.3-.6.6s.3.6.6.6.6-.3.6-.6c.1-.3-.2-.6-.6-.6zM301.9 172.7c-.3 0-.6.3-.6.6s.3.6.6.6.6-.3.6-.6-.3-.6-.6-.6zM420.3 219.2c-.6 0-1.1.5-1.1 1.1 0 .6.5 1.1 1.1 1.1s1.1-.5 1.1-1.1c-.1-.6-.5-1.1-1.1-1.1zM433.7 198.5c-.3 0-.5.2-.5.5s.2.5.5.5.5-.2.5-.5c0-.2-.2-.5-.5-.5z"/><path class="st77" d="M47 387.9h42.1v9.7H47zM97.4 387.9h42.1v9.7H97.4z"/><path style="fill-rule:evenodd;clip-rule:evenodd;fill:#ffdf97" d="M176.7 387.9h42.1v9.7h-42.1z"/><path d="M179.7 396.5c4.2 0 8.3-1.4 11.6-4 .9-.7 1.9-1.6 2.2-2.8.3-1.2-.2-2.6-1.3-3-.8-.2-1.7.1-2.3.7s-1 1.4-1.3 2.2c-.4.9-.7 1.9-.6 2.8 0 1 .4 2 1.1 2.6.8.6 1.8.8 2.8.8 4.5.1 9.4-1.8 11.7-5.8.5-.9.8-2.3-.2-2.8-.6-.3-1.3 0-1.9.4-1.7 1.1-2.9 3.1-3 5.2-.1.8 0 1.6.5 2.2.5.7 1.3 1 2.1 1.2 2.3.5 4.7-.2 6.9-1.2s4.4-2.3 5.6-4.5c.6-1.1.7-2.6-.3-3.3-1-.6-2.4.2-3.1 1.2-1.2 1.6-1.6 3.7-.9 5.6.7 1.8 2.7 3.1 4.7 2.8" style="fill-rule:evenodd;clip-rule:evenodd;fill:none;stroke:#10111e;stroke-miterlimit:10"/><circle cx="147.5" cy="260.9" r="36.3" style="fill-rule:evenodd;clip-rule:evenodd;fill:#40bf91"/><path d="M144.5 270.6c-.7 0-1.3-.3-1.8-.8l-7.8-8c-1-1-.9-2.6 0-3.5 1-1 2.6-.9 3.5 0l6.1 6.3 14.5-13.5c1-.9 2.6-.9 3.5.1.9 1 .9 2.6-.1 3.5l-16.3 15.1c-.3.6-.9.8-1.6.8z" style="fill:#fcfcfc"/></svg>