<svg version="1.1" id="Layer_1" xmlns="http://www.w3.org/2000/svg" x="0" y="0" viewBox="0 0 800 625" style="enable-background:new 0 0 800 625" xml:space="preserve"><style>.st10,.st11,.st12,.st6,.st7,.st8,.st9{fill-rule:evenodd;clip-rule:evenodd;fill:#4f02bc}.st10,.st11,.st12,.st7,.st8,.st9{fill:#00155c}.st10,.st11,.st12,.st8,.st9{fill:#7886f0}.st10,.st11,.st12,.st9{fill:#7703fc}.st10,.st11,.st12{fill:#b8c0ff}.st11,.st12{fill:#051b5c}.st12{fill:#39038e}.st14,.st15,.st17,.st23,.st25,.st26{fill-rule:evenodd;clip-rule:evenodd;fill:#270170}.st15,.st17,.st23,.st25,.st26{fill:#5e80ee}.st17,.st23,.st25,.st26{fill:#fff}.st23,.st25,.st26{fill:#72a1e8}.st25,.st26{fill:#110f5c}.st26{fill:#8331f7}.st27,.st28,.st29,.st30,.st31,.st35{fill-rule:evenodd;clip-rule:evenodd;fill:#e36200}.st28,.st29,.st30,.st31,.st35{fill:#bd2f00}.st29,.st30,.st31,.st35{fill:#ff9619}.st30,.st31,.st35{fill:#f5660c}.st31,.st35{fill:#001b75}.st35{fill:#4452bd}</style><path d="M607.5 213.1c144.1-27.6 217 98.1 115.6 241.8-3.3 4.5-6.7 8.8-10.3 13.1-11.2 2.9-22.1 7.3-32.6 13-7.1 3.2-14 7-20.7 11.4-3.3.8-6.6 1.7-9.8 2.7-9.7 1.3-19.4 3.7-28.8 7.1-2.9.6-5.9 1.4-8.8 2.2-3.2.7-6.3 1.4-9.5 2.3-8.1.5-16.2 1.6-24.2 3.5-8.3 1.1-16.7 2.9-24.9 5.6l-4.9.7c-7.1.9-14.3 2.4-21.4 4.4-5.3.4-10.5 1.1-15.8 2.2-2.4.3-4.9.7-7.3 1.2-9.6.1-18.7 1.2-27.9 3.1-4.7.4-9.3 1.1-14 2H286.3l5.2 1-3.9-.6c-5.2-1.3-10.5-2.3-15.9-3-2.6-.7-5.2-1.3-7.8-1.9-3.8-1.1-7.7-2-11.6-2.8-4.7-1.9-9.5-3.6-14.5-5-2.4-.9-4.9-1.8-7.3-2.5-8.1-3.7-16.6-6.7-25.5-8.9-1.1-.4-2.2-.8-3.3-1.1-5.4-1.9-11-3.5-16.7-4.7-1.4-.6-2.9-1.2-4.4-1.7-4.4-1.9-9-3.6-13.6-5.1-1.2-.4-2.4-.8-3.5-1.2-7-3.6-14.3-6.6-21.8-9l-1.2-.6c-3.9-2-7.9-3.9-12.1-5.6l-4.5-3c-1.4-1-2.8-1.9-4.2-2.8-3.3-2.7-6.8-5.3-10.4-7.8l-1.5-1.2c-1.5-1.5-3-3-4.5-4.4-.8-1.2-1.7-2.3-2.5-3.4-2.3-3.9-4.8-7.8-7.4-11.5l-.7-1.2c-5.5-9.7-12.1-18.9-19.9-27.2l-2.1-3.3c-5-12.7-12-24.9-20.8-36.1-3.2-4.5-6.7-8.7-10.3-12.8-1.6-5.7-3-11.5-4.3-17.4-42-199.7 158.8-352.7 362.4-206.4 93.8 68.7 149.2 86 209.8 74.9" style="opacity:5.000000e-02;fill-rule:evenodd;clip-rule:evenodd;fill:#f2f3ff"/><path d="M351.8 491c210.1-4.2 328.9-10.1 356.5-17.7 27.3-34.7 44.5-64.4 51.8-89.4-50.5 29-100.7 21-150.5-24.2-88.9-75.8-198.9-66.3-330.1 28.4-45.3 29.8-102.3 35.2-152.4 14.4-50-20.8-86.5-65-97.4-118.1-.3 22.7 1.6 42.8 5.5 60.2C98.1 490.7 203.6 539.5 351.8 491" style="fill-rule:evenodd;clip-rule:evenodd;fill:#d9ddff"/><path d="M94.2 470.4c-34.6-44-56.3-96.6-63-152.1 21.4 73.1 79.8 129.5 153.6 148.3 73.8 18.8 152.1-2.9 205.7-56.9 30.1-32.1 73.4-48.5 117.3-44.4 43.9 4.1 83.3 28.3 106.9 65.5 10.9 19.6 30.4 33 52.6 36.3 22.2 3.3 44.7-3.9 60.8-19.6-11.8 17.5-25.7 33.5-41.4 47.6-307.3 43.6-504.8 35.3-592.5-24.7" style="fill-rule:evenodd;clip-rule:evenodd;fill:#c9cfff"/><path d="M71.5 437.5c22.8 38.3 54 70.9 91.1 95.5 88.9 22.7 249.4 21 481.6-5.1 24.2-15.5 46.1-34.3 65.2-55.8-27.2 12.1-55.2 9.4-83.9-8.3-69.4-48.8-161.2-51.3-233.2-6.5-98.2 69.8-231.9 61.6-320.8-19.8" style="fill-rule:evenodd;clip-rule:evenodd;fill:#aeb7fc"/><path d="M614.9 545c-111.5 58.8-264 70.8-385.7 22.6-17.2-6.7-33.7-14.7-49.6-24.1-.4-.3-.9-.5-1.3-.7-16-9.5-31.3-20.4-45.6-32.5 80.3 25.3 166.2 27.8 247.8 7.1 96.1-23.4 173.7-23.4 232.8 0 15.1 5.4 29.8 5.9 44.1 1.3-13.4 9.9-27.7 18.6-42.5 26.3z" style="fill-rule:evenodd;clip-rule:evenodd;fill:#8e9af2"/><path d="m221.9 315.3 37.1 7.2c2.4.5 3.9 2.8 3.5 5.2l-7.4 38.3c-.5 2.4-2.8 3.9-5.2 3.5l-37.1-7.2c-2.4-.5-3.9-2.8-3.5-5.2l7.4-38.3c.5-2.4 2.8-4 5.2-3.5" style="fill-rule:evenodd;clip-rule:evenodd;fill:#152a94"/><path class="st6" d="m223.3 318 33.3 6.5c2.1.4 3.5 2.5 3.1 4.6l-6.7 34.4c-.4 2.1-2.5 3.5-4.6 3.1l-6.6-1.3c-7.6-9-17.7-14.7-28.5-16.8l5.3-27.5c.5-2 2.6-3.4 4.7-3"/><path class="st7" d="m219.5 370.3 18.5 1.5-5.5 26.3-18.5-1.5zM297.1 370.3l-18.5 1.5 5.5 26.3 18.5-1.5z"/><path class="st8" d="m274.6 367.9 29.9.6c2.4.1 4.4 2.1 4.3 4.5v1.7c-.1 2.4-2.1 4.4-4.5 4.3l-29.9-.6c-2.4-.1-4.4-2.1-4.3-4.5v-1.7c.1-2.4 2.1-4.4 4.5-4.3"/><path class="st7" d="M302.3 410.4v10.7c0 7-5.7 12.8-12.7 13-7 .1-12.7-5.4-12.7-12.4V411c0-7 5.7-12.8 12.7-13 7-.2 12.7 5.4 12.7 12.4M233.2 412.5l-2.1 10.5c-1.4 6.8-8.1 11.5-15 10.2-6.9-1.2-11.4-7.8-10-14.7l2.1-10.5c1.4-6.8 8.1-11.5 15-10.2 6.9 1.3 11.4 7.9 10 14.7"/><path class="st9" d="m223.6 382.5 5.6 1.2c9.2 1.9 15.1 11 13.2 20.2-1.9 9.2-11 15.1-20.2 13.2l-5.6-1.2c-9.2-1.9-15.1-11-13.2-20.2 1.9-9.2 11-15.2 20.2-13.2"/><path class="st8" d="m216.4 361.7 29.3 6.2c2.4.5 3.9 2.8 3.4 5.2l-.3 1.6c-.5 2.4-2.8 3.9-5.2 3.4l-29.3-6.2c-2.4-.5-3.9-2.8-3.4-5.2l.3-1.6c.5-2.4 2.8-3.9 5.2-3.4"/><path class="st9" d="M290.3 385c2 0 4.1-.1 6.2-.1 5.1-.1 9.6 1.9 12.8 5.1 3.2 3.3 5 8 4.8 13-.2 5-2.5 9.5-6.1 12.4-3.5 2.9-8.2 4.4-13.3 3.8-2.1-.2-4.1-.5-6.2-.7-5.1-.5-9.6-2.9-12.8-6-3.2-3.1-5-7.2-4.8-11.5.2-4.3 2.6-8.2 6-11.1 3.6-2.9 8.3-4.9 13.4-4.9"/><path class="st6" d="M228 415c-1.8.3-3.8.3-5.7-.1l-4.9-1c-8.1-1.7-13.3-9.7-11.6-17.8 1.3-6.3 6.5-10.9 12.5-11.8-.6 2.5-1 5-1 7.7 0 9.3 4.1 17.5 10.7 23M308.1 411.6c-.6.8-1.3 1.5-2.1 2.2-3 2.5-7.2 3.8-11.6 3.3l-5.4-.6c-4.4-.5-8.4-2.5-11.2-5.3-2.8-2.7-4.4-6.3-4.2-10 .3-4.9 3.5-8.9 7.6-11.3 3.5 11.9 14.1 20.8 26.9 21.7"/><path class="st10" d="M279.6 388.1c7 0 12.7 6.3 12.7 14 0 7.8-5.7 14-12.7 14-7 0-12.7-6.3-12.7-14 .1-7.7 5.7-14 12.7-14"/><path class="st11" d="M279.6 393.8c4.2 0 7.6 3.7 7.6 8.4 0 4.6-3.4 8.4-7.6 8.4-4.2 0-7.6-3.7-7.6-8.4.1-4.7 3.5-8.4 7.6-8.4"/><path class="st6" d="M275.1 256.1c15.4 0 28 12.5 28 28s-12.5 28-28 28c-15.4 0-28-12.5-28-28s12.6-28 28-28"/><path class="st12" d="M272.1 234.2c15.4 0 28 12.5 28 28 0 15.4-12.5 28-28 28-15.4 0-28-12.5-28-28s12.5-28 28-28"/><path d="M306.4 202.6c3 1.1 5.5 3 6.9 6l17 38.6c2.4 5.4-.1 11.8-5.5 14.1-5.4 2.4-11.8-.1-14.1-5.5l-17-38.6c-2.4-5.3 0-11.6 5.3-14.1-1.1-1-1.7-2.3-1.7-3.8-.8-.2 2.2.9 9.1 3.3z" style="fill-rule:evenodd;clip-rule:evenodd;fill:#6d7ade"/><path class="st14" d="M289.3 199.7c5.4-2.4 11.8.1 14.1 5.5l17 38.6c2.4 5.4-.1 11.8-5.5 14.1-5.4 2.4-11.8-.1-14.1-5.5l-17-38.6c-2.4-5.4.1-11.8 5.5-14.1"/><path class="st10" d="M284 202.4c9.1 2.1 15 11.5 13.1 20.8-1.9 9.4-10.8 15.2-19.9 13-9.1-2.1-15-11.5-13.1-20.8 1.9-9.3 10.8-15.1 19.9-13"/><path class="st12" d="M282.7 209c5.5 1.3 9.1 7 7.9 12.7-1.1 5.7-6.6 9.2-12.1 7.9-5.5-1.3-9.1-7-7.9-12.7 1.1-5.6 6.5-9.2 12.1-7.9"/><path class="st15" d="m299.9 255.8-9.9 15c-10.1-.5-21.7 1.8-32.9 7.6-11.7 6.1-19.6 4.3-23.6-5.6l-5-14.5 1.2-2.3c14.9-7.3 14.5-23.3 4.2-31.1-4.1-3-8.3-8.1 2.9-11.4 30.8 3.6 46.2 5.5 46.2 5.5 9.5 11 15.1 23.2 16.9 36.8"/><path class="st9" d="M296.9 246.3c-7.1 10.7-10.6 16.1-10.6 16.1-10.8-.5-23.3 1.9-35.2 8.2-12.6 6.6-21 4.6-25.3-6l-6.8-17.8 2.7-.2c16-7.8 15.5-25 4.5-33.3-4.4-3.2-8.8-8.7 3.1-12.2 33 3.9 49.5 5.8 49.5 5.8 10.3 11.7 16.3 24.8 18.1 39.4"/><path class="st6" d="M255.1 263.4c-1.4.6-2.7 1.2-4 1.9-11.3 5.9-18.8 4.1-22.7-5.3l-4.8-13.9 1.1-2.2c14.3-7 13.9-22.4 4.1-29.8-3.9-2.9-7.9-7.8 2.8-10.9l13.3 1.6c-3.4 6.7-5.3 14.4-5.3 22.4 0 14.2 5.9 27 15.5 36.2"/><path class="st10" d="M220.2 205.7c11.2 2.6 18.4 14.1 16 25.6-2.3 11.5-13.3 18.7-24.4 16-11.2-2.6-18.4-14.1-16-25.6 2.3-11.5 13.2-18.6 24.4-16"/><path class="st12" d="M218.5 213.9c6.8 1.6 11.2 8.6 9.8 15.5-1.4 7-8.1 11.3-14.9 9.7-6.8-1.6-11.2-8.6-9.8-15.5 1.5-7 8.1-11.3 14.9-9.7"/><path class="st15" d="M254.2 195.9c13.7 1.4 24.8 6.3 24.8 11 0 4.6-11.1 7.3-24.8 5.8-13.7-1.4-24.8-6.3-24.8-11-.1-4.6 11.1-7.2 24.8-5.8"/><path class="st14" d="M254.4 193.5c12.1 1.2 22 5.4 22 9.3 0 3.9-9.8 6.1-22 4.9-12.1-1.2-22-5.4-22-9.3 0-3.9 9.9-6.1 22-4.9"/><path class="st15" d="M264.1 200.1c0 1.7-4.3 2.7-9.7 2.2-5.4-.5-9.7-2.4-9.7-4.1v-.2l.5-5.3c.5.4 1.1.7 1.7 1l.6.3c1.6.9 3.5 1.4 5.4 1.6.9.1 1.9.3 2.8.2l8.7-.7v.7l-.3 4.3z"/><path class="st6" d="M264.5 194.8c0 1.7-4.3 2.7-9.7 2.2-5.4-.5-9.7-2.4-9.7-4.1v-.2l1.7-18.7c0-1.7 4.3-2.7 9.7-2.2 5.4.5 9.7 2.4 9.7 4.1v.2c-.1 1.3-.6 7.5-1.7 18.7"/><path class="st14" d="M258.6 195.8c-1.1.1-2.3 0-3.6-.1-4.8-.5-8.7-2.1-8.7-3.7v-.2l1.6-16.8c0-.8 1-1.4 2.6-1.8.8 8.4.3 18.2 8.1 22.6"/><path d="M261.8 100c24.9 1.4 44 22.1 42.5 46.2-1.4 24.1-22.8 42.6-47.8 41.2-24.9-1.4-44-22.1-42.5-46.2 1.5-24.2 22.9-42.6 47.8-41.2" style="fill-rule:evenodd;clip-rule:evenodd;fill:#4354d1"/><path class="st6" d="M261.7 102.7c5.4.3 10.6 1.6 15.2 3.7-17.6 7.8-29.8 25.4-29.8 45.8 0 12.4-.1 27.7 12 32.5-.8 0-1.5 0-2.3-.1-23.4-1.3-41.2-20.7-39.9-43.3 1.4-22.6 21.4-39.9 44.8-38.6"/><path class="st9" d="M267.6 104.5c21.7 1.2 38.3 19.3 37.1 40.3-1.3 21-19.9 37.1-41.6 35.9-21.7-1.2-38.3-19.3-37.1-40.3 1.3-21.1 19.9-37.1 41.6-35.9"/><path class="st6" d="M267.4 107.7c2.6.1 5.2.6 7.6 1.2-11.7 9.2-19.2 23.4-19.2 39.4 0 10.8-8.1 20.6 9.3 29.1-.6 0-1.3 0-1.9-.1-19.9-1.1-35.1-17.6-33.9-36.9 1.2-19.1 18.2-33.8 38.1-32.7"/><path class="st14" d="m252.5 129 38.4 2.2c6.8.4 12.1 6.3 11.7 13.1l-.2 2.8c-.4 6.8-6.3 12.1-13.1 11.7l-38.4-2.2c-6.8-.4-12.1-6.3-11.7-13.1l.2-2.8c.4-6.9 6.3-12.1 13.1-11.7"/><path class="st17" d="M265.4 140.5c1.8.1 3.2 1.6 3.1 3.4-.1 1.8-1.6 3.2-3.4 3.1-1.8-.1-3.2-1.6-3.1-3.4 0-1.9 1.6-3.2 3.4-3.1M287.7 141.7c1.8.1 3.2 1.6 3.1 3.4-.1 1.8-1.6 3.2-3.4 3.1-1.8-.1-3.2-1.6-3.1-3.4 0-1.8 1.6-3.2 3.4-3.1"/><path d="M221.9 109.7c9.2.9 16.2 14 15.7 29.3-.5 15.1-8.1 26.2-17.2 26.2h-7.5c0-1 .4-1.9 1-2.6-6-4.7-10-15.1-9.6-26.8.4-11 4.6-20.2 10.3-24.1-.2-.6-.2-1.3 0-2H221.9" style="fill-rule:evenodd;clip-rule:evenodd;fill:#d2e1f5"/><path d="M214.6 109.7c9.2.9 16.2 14 15.7 29.3s-8.4 27-17.6 26.1c-9.2-.9-16.2-14-15.7-29.3s8.4-27 17.6-26.1" style="fill-rule:evenodd;clip-rule:evenodd;fill:#8fb4e3"/><path class="st6" d="M214.3 118.6c6.2.6 11 9.5 10.7 19.9-.4 10.4-5.7 18.3-12 17.7-6.2-.6-11-9.5-10.7-19.9.4-10.3 5.7-18.3 12-17.7"/><path class="st17" d="M213.8 132.4c1.7.2 2.9 2.5 2.8 5.3-.1 2.8-1.5 4.9-3.2 4.7-1.7-.2-2.9-2.5-2.8-5.3.1-2.7 1.5-4.8 3.2-4.7"/><path transform="matrix(.02207 -.9998 .9998 .02207 197.282 311.516)" style="fill-rule:evenodd;clip-rule:evenodd;fill:#6088b8" d="M243.2 53h29.3v3.9h-29.3z"/><path class="st17" d="M217.4 106.3c20.3 13.1 44.9 15.2 65 5.6 11.2-26.4.3-40.6-21.7-45.6-23.3-5.4-47.7 10.1-43.3 40"/><path d="M232.8 107.6c19.9 13 43.7 13.3 63.3 3.6 1.4-30.3-10.3-42.5-30.7-45.1-19.1-2.4-38.1 10.7-32.6 41.5" style="fill-rule:evenodd;clip-rule:evenodd;fill:#aac9f7"/><path d="M258.4 27.5c4.7.1 8.4 4 8.3 8.7-.1 4.7-4 8.4-8.7 8.3-4.7-.1-8.4-4-8.3-8.7.1-4.7 4-8.4 8.7-8.3" style="fill-rule:evenodd;clip-rule:evenodd;fill:#203c91"/><path class="st23" d="M236.9 107.5c14.3 10 31 11.8 46 6.8-8-20.4-38-10.7-40.6-36.4-5.1 6.4-7.7 16.1-5.4 29.6"/><path class="st17" d="M217.4 110.3c-.3-.3-.6-.7-.5-1.1v-3.8c1-.8 2.5-.5 3.5.5.7.8.9 1.9.5 2.7 32.2 5.9 59.5 8.6 71.9 6.2 3-.6 5.2.2 6.6.9 11.8 5 18.5 9.9 21.1 14.1.4-.1.9 0 1.3.2v3.7c.4 14.7-57.8 16.6-104.4-23.4"/><path d="M217.4 106.4c-.8-.6-1.3-2.4 2.3-1.9 32.6 6.1 60.5 8.9 73 6.4 3-.6 5.2.2 6.6.9 62.8 26.9-19.8 48-81.9-5.4" style="fill-rule:evenodd;clip-rule:evenodd;fill:#d2dffa"/><path class="st23" d="M225.6 109.7c-.6-.5-1-1.9 1.8-1.5 9.5 1.8 18.5 3.2 26.6 4.1 21.9 2.3 7.1 14.3 22.4 21.7-14-3.4-34-11.8-50.8-24.3"/><path class="st25" d="M315.8 495.9c-18.2-6.7-20.4.1-6.7 20.3 5.3-5.3 7.8-12.9 6.7-20.3"/><path class="st26" d="M349 538.5c-30.3 8.9-57.5 10-81.7 3.4-5.6-4.4-6.3-13.8-2.2-28.4 24.2-9.6 36.4-14.5 36.4-14.5 21.6 14.7 32.5 22.1 32.5 22.1 10.4 6.9 15.4 12.7 15 17.4"/><path class="st6" d="M305.5 544.5c-12.3.5-23.9-.7-34.8-3.8-5-3.9-5.7-12.5-1.9-25.6l19.3-7.7c13.1 10.6 3.6 28.3 17.4 37.1"/><path class="st25" d="M232.5 510.3c-16.8-9.9-36.9-12.4-55.6-7.1-.5 6.7 2.1 13.3 7 18 27.7.2 41.6.2 41.6.2 4.4-1.9 7.2-6.3 7-11.1"/><path class="st26" d="M242.3 538.6c-28.4 10.3-51.9 11.2-70.7 2.8 1.4-12.2 6.7-23.6 16.1-34.1 20.2-17.6 33-16.2 38.4 4.3 1.8 10.9 7.2 19.8 16.2 27"/><path class="st6" d="M204 544.2c-9.9.2-18.9-1.4-26.9-5 1.2-10.8 6-20.9 14.3-30.3 3.3-2.9 6.4-5.2 9.3-6.9-1.4 14.1-.3 28.4 3.3 42.2"/><path class="st9" d="M227.1 512.1c4.2 2.3 7.4 2.4 8.6-.7 8.1-21.4 9.2-47.8 3.1-79.3-.7-4.3-3.8-5.4-10-4-7.2 1.5-14.5-.3-22-5.5-4.5-3.1-7.7-4.2-9.6-1-16.1 26-23.8 54.2-23.1 84.4 0 2.7 2.2 3.3 6.1 2.5 19.7-3.7 35.3-2.5 46.9 3.6M300 429.6c4.1-1.2 6.7-1.8 7.6.9 6.3 21.2 9.8 41.7 10.2 61.7 0 5.8-2.2 9.6-6.8 11.2-8.3 2.6-20.1 7.5-34.8 16.3-9.3 5.5-15.6 4.5-17.5-3.4-6.8-29.2-4.2-57.3 7.8-84.4 2.8-6.4 7.8-6.7 14.8-4.2 7.8 2.7 13.9 3.4 18.7 1.9"/><path class="st6" d="M208.7 428.6c-.5-.3-1.1-.7-1.6-1.1-4-2.7-6.8-3.7-8.6-.9-14.3 23.1-21.1 48.2-20.6 75.1 0 2.4 2 2.9 5.4 2.2 11.5-2.1 21.4-2.4 29.8-.8-18.8-10.7 0-49.4-4.4-74.5M291 507.6c-5.4 2.4-6.8 3.3-13.7 7.5-8.4 4.9-14 4-15.7-3-6.1-26.2-3.8-51.5 7-75.8 2.5-5.7 7-6 13.3-3.8 4.8 1.7 9 2.5 12.5 2.4 3.5 15.8-13.9 57.7-3.4 72.7"/><path class="st11" d="M177.6 538.3h62.7c3.9 0 7.1 3.2 7.1 7.1v5.4c0 3.9-3.2 7.1-7.1 7.1h-62.7c-3.9 0-7.1-3.2-7.1-7.1v-5.4c-.1-3.9 3.2-7.1 7.1-7.1M271 538.3h76.2c3.9 0 7.1 3.2 7.1 7.1v5.4c0 3.9-3.2 7.1-7.1 7.1H271c-3.9 0-7.1-3.2-7.1-7.1v-5.4c-.1-3.9 3.1-7.1 7.1-7.1"/><path class="st17" d="M285.6 220.5h142.1c6.3 0 11.4 5.1 11.4 11.4V346c0 6.3-5.1 11.4-11.4 11.4H285.6c-6.3 0-11.4-5.1-11.4-11.4V231.9c0-6.3 5.1-11.4 11.4-11.4"/><path class="st27" d="M275.2 227.9h49.5c2.7 0 4.9 2.2 4.9 4.9v126.9c0 2.7-2.2 4.9-4.9 4.9h-49.5c-2.7 0-4.9-2.2-4.9-4.9V232.9c0-2.7 2.2-5 4.9-5"/><path class="st28" d="M331.3 240.9c1.5.8 2.6 2.2 2.6 3.9v114.1c0 2.4-2.2 4.4-4.9 4.4h-49.5c-2.7 0-4.9-2-4.9-4.4v-43.2c14.6-37.3 49.5-44.2 56.7-74.8"/><path class="st29" d="M315.9 227.9H430c6.3 0 11.4 5.1 11.4 11.4v114.1c0 6.3-5.1 11.4-11.4 11.4H315.9c-6.3 0-11.4-5.1-11.4-11.4V239.3c0-6.2 5.1-11.4 11.4-11.4"/><path class="st30" d="M431.5 358.7c-1.6.9-3.4 1.5-5.4 1.5H319.7c-5.8 0-10.6-4.8-10.6-10.6v-75.7c63.8 22.4 24.2 71.4 122.4 84.8"/><path class="st17" d="M321.3 226.6h17.2c1.3 0 2.4 1.1 2.4 2.4v98c0 1.3-1.1 2.4-2.4 2.4h-17.2c-1.3 0-2.4-1.1-2.4-2.4v-98c0-1.3 1.1-2.4 2.4-2.4"/><path class="st31" d="M283.7 369.9c8.1-.3 16.2-2 23.8-5.2 1.6-2.2 1.6-5 .1-7.1-9.4 1.7-18.8 2.4-28.2 2 2.9 2.7 4.5 6.4 4.3 10.3"/><path d="M283.2 353.8c-1.8 1.1-3 2.9-3.3 4.9-.3 2 .4 4 1.9 5.3 10.3.8 20.8-1 30.6-5.1 1.6-2.2 1.6-5 .1-7.1-9.6 1.9-19.5 2.5-29.3 2" style="fill-rule:evenodd;clip-rule:evenodd;fill:#02218a"/><path d="M289 346.7c-1.8 1-3 2.7-3.3 4.7-.3 2 .4 4 1.9 5.4 10.3 1.3 20.8.2 30.6-3.4 1.6-2.1 1.6-4.9.1-7.1-9.7 1.3-19.6 1.4-29.3.4" style="fill-rule:evenodd;clip-rule:evenodd;fill:#0b2ea1"/><path class="st25" d="M271 327.1c-4.6 2.9-6.5 8.6-4.4 13.7 2.1 5 7.5 7.7 12.8 6.4 5.3-1.3 8.8-6.2 8.4-11.6 5.7-1.9 11.9-.5 16.2 3.7 1.5.3 3.1-.2 4-1.5.5-.7.8-1.5.8-2.4V330.5c-.9-.2-1.8.1-2.4.7-9-9.9-24.1-11.8-35.4-4.1"/><path class="st9" d="M271 322c-4.6 2.9-6.5 8.6-4.4 13.7 2.1 5 7.5 7.7 12.8 6.4 5.3-1.3 8.8-6.2 8.4-11.6 5.7-1.9 11.9-.5 16.2 3.7 1.5.3 3.1-.2 4-1.5.9-1.2 1.1-2.9.4-4.3-8.8-11.8-25.2-14.6-37.4-6.4"/><path class="st25" d="M298.7 336c-1.9.7-3.3 2.3-3.9 4.3-.5 2-.1 4.1 1.2 5.6 10.1 2.7 20.6 2.9 30.8.7.8-.8 1.3-1.8 1.5-2.8.6 0 1.3-.2 2.2-.6l-2.7-3.6c-9.8-.1-19.6-1.3-29.1-3.6"/><path class="st9" d="M301.4 340c-1.9.7-3.3 2.3-3.8 4.3s0 4.1 1.3 5.6c10.1 2.5 20.7 2.6 30.8.2 1.8-1.9 2.2-4.7.9-7-9.8.2-19.7-.9-29.2-3.1"/><path class="st10" d="M301.8 337c-1.4 12.9-7.1 24.7-16.2 33.6-11.1-1.4-23.7-9.3-37.6-23.8l18.3-17.4c2.1 4 6.2 6.6 10.7 6.9 4.5.2 8.6-2 10.8-5.8 5.2.4 10.2 2.7 14 6.5"/><path d="M293.6 356.8c-2.3 4.1-5.2 7.9-8.6 11.2-10.1-1.3-21.6-8.5-34.3-21.7l5.2-5c6.8 6.8 15.7 11.6 25.6 13.4l.9.3c3.8 1.1 7.5 1.7 11.2 1.8" style="fill-rule:evenodd;clip-rule:evenodd;fill:#8b97ed"/><path class="st6" d="m186.7 264.3 14.1-4.2.1.5 9.4-2.8 11.3 37.9-14.1 4.2-.1-.4-9.4 2.8z"/><path class="st14" d="M210 275.4c2.9-2.2 6.6-3.2 10.6-3.3 5.8 0 12.2 2.1 17.7 6.6 3.8 3.1 7.6 6.1 11.4 9.2 3.8 3.1 7.6 6.1 11.4 9.2 5.6 4.5 9.2 10.7 10.4 17.1 1.2 6.5.1 13.2-3.6 18.5-1 1.4-2.1 2.5-3.3 3.7l-11.8 11c-.2-.9-.3-1.8-.3-2.7l-4.3 2.9c-.6-2.4-.4-4.8.4-6.8-4.6-.8-9.3-3.1-13.3-7-3.6-3.4-7.1-6.8-10.7-10.2-3.6-3.4-7.1-6.8-10.7-10.2-5.2-5-8.6-11.4-10-17.7-.6-3-.8-5.9-.5-8.6-2.5.3-2.8 0-5-1.9.2 0 3.4-3.6 11.6-9.8z"/><path class="st14" d="M196.5 202c9.1-1.2 17.9 7.4 19.6 19.1l4.5 31.8c1.7 11.7-4.4 22.2-13.5 23.3-9.5 1.4-14.2 2.1-14.2 2.1.5-2.3 1.7-4.3 3.3-5.4-4.4-3.4-7.7-9.1-8.6-15.8l-4.5-31.8c-.9-6.3.5-12.3 3.4-16.7-1.5-1-2.8-2.6-3.5-4.6l13.1-2h.4z"/><path class="st9" d="M182.3 204.1c9.1-1.2 17.6 5.3 18.9 14.4l5.8 41.1c1.3 9.1-5.1 17.5-14.2 18.6-9.1 1.2-17.6-5.3-18.9-14.4l-5.8-41.1c-1.3-9.1 5.1-17.4 14.2-18.6M197.9 285.9c3.6-4.1 9-5.7 14.8-5.1 5.8.6 12.1 3.4 17.3 8.5l10.6 10.3 10.6 10.3c5.2 5 8.2 11.5 8.9 18 .6 6.5-1.2 12.9-5.4 17.7-4.2 4.8-10.1 7-16 6.5-5.9-.4-12-3.5-16.8-9-3.3-3.7-6.6-7.5-9.8-11.2-3.3-3.7-6.6-7.5-9.8-11.2-4.8-5.5-7.6-12.2-8.4-18.5-.9-6.3.4-12.2 4-16.3"/><path class="st6" d="M205 263c-1.3 6-6.2 10.9-12.7 11.7-8.2 1.1-15.9-4.8-17.1-13l-5.3-37.2c-.6-4 .5-7.9 2.8-11-.5 6.2.3 12.7 2.4 19 4.9 14.8 10.8 38.6 29.9 30.5"/><path class="st10" d="M179.4 210.8c5.5-.1 10.6 5.1 11.6 12.2l2.9 20.2c1.1 7.4-2.8 14.1-8.6 14.8-.2 0-.5 0-.7.1h-.4c-.7 0-2.3 0-4.8.1 0-.5 0-1 .1-1.5-3.3-2-5.9-6-6.6-10.8l-2.9-20.2c-.8-5.7 1.3-10.9 4.9-13.4-.1-.4-.2-.9-.1-1.4 2.7-.1 4.3-.1 4.6-.1"/><path class="st8" d="M174 211c5.8-.7 11.2 3.4 12 9.1l3.7 26.1c.8 5.8-3.2 11.1-9 11.8-5.8.7-11.2-3.4-12-9.1l-3.7-26.1c-.8-5.8 3.3-11.1 9-11.8"/><path class="st35" d="M188 248.4c-.5 3.9-3.6 7-7.5 7.5-4.8.6-9.3-2.8-10-7.6l-3.1-21.8c-.2-1.7 0-3.4.7-4.9 3.3 11.1 6.5 28.8 19.9 26.8"/><path class="st6" d="M256.5 328.7c0 5-1.6 9.9-4.9 13.6-3.6 4.1-8.8 6.2-14.3 5.8-5.3-.4-10.7-3.1-14.9-8-5.8-6.6-11.7-13.3-17.5-19.9-4-4.6-6.8-10.5-7.5-16.5 3.1 6.4 7.6 12.2 13.5 16.9 13.3 10.6 34 20.7 45.6 8.1"/><path class="st10" d="M199.6 293.3c2.6-2.9 6.4-4 10.5-3.6 4.1.4 8.6 2.4 12.2 6 2.5 2.4 5 4.9 7.5 7.3 2.5 2.4 5 4.9 7.5 7.3 3.7 3.6 5.8 8.2 6.3 12.7.4 4.6-.8 9.2-3.8 12.6-3 3.4-7.1 4.9-11.4 4.6-4.2-.3-8.5-2.5-11.9-6.4-2.3-2.6-4.7-5.3-7-7.9-2.3-2.6-4.6-5.3-7-7.9-3.4-3.9-5.4-8.6-6-13.1-.4-4.5.5-8.7 3.1-11.6"/><path class="st8" d="M195.4 296.2c2.6-2.9 6.4-4 10.5-3.6 4.1.4 8.6 2.4 12.2 6 2.5 2.4 5 4.9 7.5 7.3 2.5 2.4 5 4.9 7.5 7.3 3.7 3.6 5.8 8.2 6.3 12.7.4 4.6-.8 9.2-3.8 12.6-3 3.4-7.1 4.9-11.4 4.6-4.2-.3-8.5-2.5-11.9-6.4-2.3-2.6-4.7-5.3-7-7.9-2.3-2.6-4.6-5.3-7-7.9-3.4-3.9-5.4-8.6-6-13.1-.3-4.5.6-8.7 3.1-11.6"/><path class="st35" d="M235.3 325.6c.1 3.3-1 6.6-3.2 9.1-2.4 2.8-5.8 4-9.3 3.8-3.4-.3-6.9-2-9.7-5.2-3.8-4.3-7.6-8.6-11.4-13-.7-.8-1.3-1.6-1.8-2.4 3.4 2.2 7.1 4 11.2 5.4l.3.1c5.1 1.8 10.6 2.8 16.3 2.8h.4c2.4 0 4.8-.2 7.2-.6"/><path class="st31" d="M204.4 301.3c1.1 1.7.8 3.9-.8 4.9-1.5 1-3.7.4-4.8-1.2-1.1-1.7-.8-3.9.8-4.9 1.5-1 3.7-.5 4.8 1.2"/><path d="M423.4 260.6v-10.9h-3.6l7.1-10.9 7.1 10.9h-3.6v10.9h-7zm-17.8 0v-10.9H402l7.1-10.9 7.1 10.9h-3.6v10.9h-7z" style="fill:#fff"/><path class="st17" d="M505.2 480h72.4c3.4 0 6.2 2.8 6.2 6.2v61.7c0 3.4-2.8 6.2-6.2 6.2h-72.4c-3.4 0-6.2-2.8-6.2-6.2v-61.7c.1-3.5 2.9-6.2 6.2-6.2"/><path class="st27" d="M499.6 487.5h25.5c1.4 0 2.5 1.1 2.5 2.5v65.2c0 1.4-1.1 2.5-2.5 2.5h-25.5c-1.4 0-2.5-1.1-2.5-2.5V490c0-1.4 1.1-2.5 2.5-2.5"/><path class="st28" d="M528.4 494.1c.8.4 1.3 1.1 1.3 2v58.6c0 1.3-1.1 2.3-2.5 2.3h-25.5c-1.4 0-2.5-1-2.5-2.3v-22.2c7.6-19.1 25.5-22.6 29.2-38.4"/><path class="st29" d="M521.1 480H586c3.6 0 6.5 2.9 6.5 6.5v64.9c0 3.6-2.9 6.5-6.5 6.5h-64.9c-3.6 0-6.5-2.9-6.5-6.5v-64.9c0-3.6 2.9-6.5 6.5-6.5"/><path class="st30" d="M586.9 554.4c-.9.5-1.9.8-3.1.8h-60.6c-3.3 0-6-2.7-6-6v-43c36.4 12.7 13.8 40.5 69.7 48.2"/><path class="st17" d="M594.5 506.6v9.8c0 .8-.6 1.4-1.4 1.4h-51.5c-.8 0-1.4-.6-1.4-1.4v-9.8c0-.8.6-1.4 1.4-1.4h51.5c.7 0 1.4.6 1.4 1.4M371.4 443.4h108.3c5 0 9 4.1 9 9V543c0 5-4.1 9-9 9H371.4c-5 0-9-4.1-9-9v-90.6c0-4.9 4-9 9-9"/><path class="st27" d="M363.2 452.9h38c2.1 0 3.8 1.7 3.8 3.8V554c0 2.1-1.7 3.8-3.8 3.8h-38c-2.1 0-3.8-1.7-3.8-3.8v-97.3c0-2.1 1.7-3.8 3.8-3.8"/><path class="st28" d="M406.1 462.8c1.2.6 2 1.7 2 3v87.5c0 1.9-1.7 3.4-3.8 3.4h-38c-2.1 0-3.8-1.5-3.8-3.4v-33.1c11.4-28.6 38.1-33.9 43.6-57.4"/><path class="st29" d="M395.2 441.6H492c5.3 0 9.7 4.3 9.7 9.7v96.8c0 5.3-4.3 9.7-9.7 9.7h-96.8c-5.3 0-9.7-4.3-9.7-9.7v-96.8c.1-5.3 4.4-9.7 9.7-9.7"/><path class="st30" d="M493.4 552.7c-1.3.8-2.9 1.2-4.6 1.2h-90.4c-5 0-9-4.1-9-9v-64.2c54.3 19 20.6 60.6 104 72"/><path class="st17" d="M464.6 440.6h14.6c1.1 0 2 .9 2 2v92.1c0 1.1-.9 2-2 2h-14.6c-1.1 0-2-.9-2-2v-92.1c-.1-1.1.8-2 2-2"/><path class="st9" d="M417.6 37.5c36.2 0 65.5 29.3 65.5 65.5 0 19-8.1 36.2-21.1 48.2-.2.5-.4 1-.7 1.4l-41 56.8c-1.4 1.9-3.6 1.9-5 0l-41-56.8c-.2-.2-.3-.5-.4-.8-13.4-12-21.8-29.4-21.8-48.8 0-36.2 29.3-65.5 65.5-65.5"/><path class="st6" d="m411.1 195-33.6-46.6c-.2-.2-.3-.4-.4-.7a58.996 58.996 0 0 1-19.7-44.1c0-30.9 23.6-56.2 53.7-59V195z"/><path class="st17" d="M417.6 68.9c-18.8 0-34 15.2-34 34s15.2 34 34 34 34-15.2 34-34-15.2-34-34-34zm0 52.3c-10.1 0-18.2-8.2-18.2-18.2 0-10.1 8.2-18.2 18.2-18.2 10.1 0 18.2 8.2 18.2 18.2s-8.1 18.2-18.2 18.2zM90 421c2.2 0 4.1 1.8 4.1 4.1 0 2.2-1.8 4.1-4.1 4.1-2.2 0-4.1-1.8-4.1-4.1 0-2.2 1.9-4.1 4.1-4.1M148.4 431.9c1.4 0 2.5 1.1 2.5 2.5s-1.1 2.5-2.5 2.5-2.5-1.1-2.5-2.5 1.1-2.5 2.5-2.5M210.5 492.8c1.4 0 2.5 1.1 2.5 2.5s-1.1 2.5-2.5 2.5-2.5-1.1-2.5-2.5c-.1-1.4 1.1-2.5 2.5-2.5M314.8 452.8c2.2 0 4.1 1.8 4.1 4.1 0 2.2-1.8 4.1-4.1 4.1-2.2 0-4.1-1.8-4.1-4.1s1.8-4.1 4.1-4.1M230.3 363.7c1 0 1.8.8 1.8 1.8s-.8 1.8-1.8 1.8-1.8-.8-1.8-1.8.8-1.8 1.8-1.8M377.2 327.5c1.8 0 3.3 1.5 3.3 3.3 0 1.8-1.5 3.3-3.3 3.3-1.8 0-3.3-1.5-3.3-3.3 0-1.8 1.5-3.3 3.3-3.3M413.6 562.5c2.2 0 4.1 1.8 4.1 4.1s-1.8 4.1-4.1 4.1c-2.2 0-4.1-1.8-4.1-4.1s1.8-4.1 4.1-4.1M486.2 416.7c1.8 0 3.3 1.5 3.3 3.3 0 1.8-1.5 3.3-3.3 3.3-1.8 0-3.3-1.5-3.3-3.3 0-1.9 1.5-3.3 3.3-3.3M702.4 427.2c1.8 0 3.2 1.4 3.2 3.2s-1.4 3.2-3.2 3.2c-1.8 0-3.2-1.4-3.2-3.2s1.5-3.2 3.2-3.2M644.1 484.2c1.3 0 2.3 1 2.3 2.3 0 1.3-1 2.3-2.3 2.3-1.3 0-2.3-1-2.3-2.3 0-1.3 1-2.3 2.3-2.3M566.3 530.9c.9 0 1.7.7 1.7 1.7 0 .9-.7 1.7-1.7 1.7-.9 0-1.7-.7-1.7-1.7s.8-1.7 1.7-1.7M377.5 477.1c.7 0 1.3.6 1.3 1.3 0 .7-.6 1.3-1.3 1.3-.7 0-1.3-.6-1.3-1.3-.1-.7.5-1.3 1.3-1.3"/><path class="st9" d="M617.2 204.3c22.3 0 40.4 18.1 40.4 40.4 0 11.7-5 22.3-13 29.7-.1.3-.2.6-.4.8l-25.3 35c-.8 1.2-2.2 1.2-3.1 0l-25.3-35c-.1-.1-.2-.3-.3-.5-8.3-7.4-13.4-18.1-13.4-30.1 0-22.2 18.1-40.3 40.4-40.3"/><path class="st17" d="M617.2 223.7c-11.6 0-21 9.4-21 21s9.4 21 21 21 21-9.4 21-21-9.4-21-21-21zm0 32.3c-6.2 0-11.3-5-11.3-11.3 0-6.2 5-11.3 11.3-11.3 6.2 0 11.3 5 11.3 11.3 0 6.3-5.1 11.3-11.3 11.3z"/></svg>