<svg version="1.1" id="Layer_1" xmlns="http://www.w3.org/2000/svg" x="0" y="0" viewBox="0 0 600 400" style="enable-background:new 0 0 600 400" xml:space="preserve"><style>.st0,.st10,.st11,.st14,.st15,.st16{fill-rule:evenodd;clip-rule:evenodd;fill:#fff}.st10,.st11,.st14,.st15,.st16{fill:#e6f4f8}.st11,.st14,.st15,.st16{fill:#387390}.st14,.st15,.st16{fill:#377f98}.st15,.st16{fill:#cc6747}.st16{fill:#19586f}.st17,.st18,.st20,.st21,.st23,.st24{fill-rule:evenodd;clip-rule:evenodd;fill:#142233}.st18,.st20,.st21,.st23,.st24{fill:#4b879d}.st20,.st21,.st23,.st24{fill:#699eb1}.st21,.st23,.st24{fill:#ffe188}.st23,.st24{fill:#f3fafc}.st24{fill:#d4e8ef}</style><path class="st0" d="M-85.8 0h771.7v118.7H-85.8z"/><defs><filter id="Adobe_OpacityMaskFilter" filterUnits="userSpaceOnUse" x="-85.8" y="0" width="771.7" height="118.7"><feColorMatrix values="1 0 0 0 0 0 1 0 0 0 0 0 1 0 0 0 0 0 1 0"/></filter></defs><mask maskUnits="userSpaceOnUse" x="-85.8" y="0" width="771.7" height="118.7" id="SVGID_1_"><g style="filter:url(#Adobe_OpacityMaskFilter)"><linearGradient id="SVGID_2_" gradientUnits="userSpaceOnUse" x1="8.502" y1="633.519" x2="-27.08" y2="462.722" gradientTransform="translate(314.313 -464.896)"><stop offset="0" style="stop-color:#000"/><stop offset="1" style="stop-color:#fff"/></linearGradient><path style="fill:url(#SVGID_2_)" d="M-85.8 0h771.7v118.7H-85.8z"/></g></mask><path style="mask:url(#SVGID_1_);fill-rule:evenodd;clip-rule:evenodd;fill:#f3fafc" d="M-85.8 0h771.7v118.7H-85.8z"/><path class="st0" d="M138.1 13.1c45.7 0 82.8 37.1 82.8 82.8s-37.1 82.8-82.8 82.8c-45.7 0-82.8-37.1-82.8-82.8s37.1-82.8 82.8-82.8"/><path d="M685.9 0v68.2C451 203.1 193.8 205-85.8 73.8V11.7C26.3 54.9 82.4 76.5 82.4 76.5c68.3 18.1 102.4 27.1 102.4 27.1 77.3-.5 116-.8 116-.8 93.9-17.6 140.9-26.4 140.9-26.4C531.3 50.7 576 37.8 576 37.8L637.5 0h48.4" style="fill-rule:evenodd;clip-rule:evenodd;fill:#d8eff6"/><path d="M685.9 27.9v80.5s-180.1 40.7-540.3 122c0 0-77.1-47-231.3-141.1V58.1s52.5 20 157.5 59.9c0 0 34 6.6 101.9 19.7l61.6 1.5c109.3-27.1 163.9-40.6 163.9-40.6 76-10.3 114.1-15.4 114.1-15.4 115-36.8 172.6-55.3 172.6-55.3" style="fill-rule:evenodd;clip-rule:evenodd;fill:#c5e4f0"/><path d="M685.9 54.8v53.7s-99.7 44.7-299.2 134.2c-19.8 23.8-100.1 29.9-240.7 18.5 0 0-77.2-49.1-231.7-147.2V64.8L52 136.2s10.7 10.5 32.2 31.5c0 0 42.7 12.9 128 38.7l47.4-2.4c76.5-35.8 114.7-53.7 114.7-53.7 31.6-23.4 47.4-35.2 47.4-35.2L569 93.2C633.5 69.1 665.8 57 665.8 57c13.3-1.4 20.1-2.2 20.1-2.2" style="fill-rule:evenodd;clip-rule:evenodd;fill:#a9d2e1"/><path d="M685.9 161C462.4 314.5 262.5 359.4 86.1 295.9c0 0-57.3-45-171.9-134.9v-56.1s44.6 19.1 133.7 57.3l43.2 47.1s18.1 7.1 54.4 21.2c0 0 36.4 8.8 109.1 26.4 68.7-14.6 103.1-21.9 103.1-21.9 15.1-12.7 22.6-19.1 22.6-19.1 36.3-17.4 54.4-26.1 54.4-26.1 19.8-19.3 29.7-29 29.7-29 82.9-23.1 124.3-34.6 124.3-34.6 46.1-29.7 69.2-44.5 69.2-44.5 18.7-2.9 28-4.3 28-4.3V161" style="fill-rule:evenodd;clip-rule:evenodd;fill:#8cbccd"/><path d="M685.9 161c-.1 106.1-.1 159.1-.1 159.1s-257.2-3.1-771.6-9.4c0 0 0-55.9-.1-167.7 0 0 50.1 22.5 150.2 67.5 0 0 20.3 19.1 60.9 57.4 0 0 42.7 6.8 128 20.3 85.3-15.9 128-23.8 128-23.8 46.5-32.4 69.7-48.6 69.7-48.6 156.7-36.5 235-54.8 235-54.8" style="fill-rule:evenodd;clip-rule:evenodd;fill:#3e8daa"/><path style="fill-rule:evenodd;clip-rule:evenodd;fill:#c2dfea" d="M-85.8 284.6h771.7v115.2H-85.8z"/><path class="st10" d="m198.1 245.7-6.7-40.9 13.3-66.3-.9-7.1c4.8.9 9.8 1.4 14.9 1.4 6 0 16 5.2 18.2-.5l9.6-25c5.8-.5 8.4 22.6 14.2 20.7l4.1-1.4c3.2-.7 6.3-1.4 9.4-2.3 5.8-1.7 11.6-3.5 17.5-5.2 2-.6 4-1.3 6-1.9 2.7-.3 5.5-.6 8.2-1l5 25 3.2 61.9c-8 11-13.2 24.1-14.5 38.4l-.8 1.6c-.5.8-1 1.5-1.5 2.3-1.5 2.1-2.9 4.4-4.3 6.7l-2 .9c-2.3.7-4.7 1.4-7 2.3l-3.9 1.2c-3.7.7-7.3 1.6-10.9 2.9-3.9.9-7.7 2.1-11.4 3.6l-.5.1c-1.3.1-2.5.3-3.8.5-1.9.2-3.9.5-5.8.9-2.6.2-5.2.5-7.8 1l-.9.1c-2.7-1.5-5.4-2.9-8.3-4.1-9.7-8.1-20.9-13.3-32.6-15.8M113.5 256.9c1.5 1.4 2.3 2.2 2.3 2.2s6-11.1 18-33.2c0 0 14-10.2 42-30.5 0 0 2.3-18.1 6.8-54.4l9.9-37.5h-4.6c-10.9 23.9-16.3 35.9-16.3 35.9-7.9 34.1-11.9 51.1-11.9 51.1-22.5 21.5-33.7 32.3-33.7 32.3-8.3 22.8-12.5 34.1-12.5 34.1M393.6 256.4c-17.1 18.8-25.6 28.2-25.6 28.2h-12.3s3.4-5.6 10.1-16.9c0 0 3.4-15.6 10.2-46.9 0 0-7.2-19.6-21.7-58.8 0 0-12.8-12.4-38.3-37.3 0 0-3.6-7.6-10.8-22.9l4.5-.6c9.2 14.6 13.8 21.8 13.8 21.8 29.3 23.3 43.9 34.9 43.9 34.9 19.1 38.2 28.6 57.3 28.6 57.3-1.6 27.5-2.4 41.2-2.4 41.2"/><path class="st11" d="M257.9 31.7c-4-2.3-6-3.5-6-3.5 4.5 3.9 6.8 5.9 6.8 5.9.6-5.6.9-8.5.9-8.5-1.2 4.1-1.7 6.1-1.7 6.1M441.4 37.7c-4.8-2.8-7.1-4.2-7.1-4.2 5.4 4.7 8.1 7 8.1 7 .7-6.7 1.1-10.1 1.1-10.1-1.4 4.9-2.1 7.3-2.1 7.3M239.5 64.8c-3-1.8-4.6-2.7-4.6-2.7 3.5 3 5.2 4.5 5.2 4.5.5-4.3.7-6.5.7-6.5-.9 3.2-1.3 4.7-1.3 4.7"/><path d="M-85.8 322.4c128.6-11.1 256.9 31.3 385.8 30.3 129-1 257.3-23.2 385.9-30.3v77.4H-85.8v-77.4" style="fill-rule:evenodd;clip-rule:evenodd;fill:#9dd0e2"/><path d="M685.9 363.5c-128.6 4.6-257.2 16-385.8 14.2-128.9-1.7-257.2-10.8-385.9-14.2v36.3h771.7v-36.3" style="fill-rule:evenodd;clip-rule:evenodd;fill:#63b3c3"/><path class="st14" d="m-78.5 301.8-7.4-.2V131.8l8.5 2.1-8.2 142.3 18.2-140 26.2 6.4-33.4 133.5 41.3-126.4 16.4 4.7zM615.2 301.5h70.6V127.9l-23.1 4.2 16.5 154.4-5.5 1.9-23.1-154.7-7 .7 6.1 125.2-14.9 21.1 4.6-143.6-20.3 4.2 3.7 136-13.2-134.1-25.3 5.4 27.9 128.2-35.6-121.7-15.8 4z"/><path class="st15" d="M522 315.9c.6.2 1.1.4 1.7.6 7.5-5.8 15.5-10.8 23.9-14.8l-3.7-13.5-21.9 27.7zM446.9 333.9c5.3-5.3 11.4-9.8 18-13.2-1.7-1.1-3.4-2.1-5.1-3.2l-12.9 16.4zM432.9 351.5c.3.1.5.2.8.3.8-1.6 1.7-3.1 2.6-4.5l-3.4 4.2z"/><path class="st16" d="M74.6 399.8h87.2c-13.7-21.8-39.9-32.3-64.8-26-18 4.5-36.7 2.1-52.7-6.2 2.9-.5 5.8-1.4 9.1-2.7 7.2-3.1 6.5-5.6-1.9-5.9-6.1-.1-12.2.5-18.2 1.6-1.2-.9-2.3-1.8-3.5-2.8 2-2.9 4-5.7 6.1-8.4.6.3 1.4.6 2.4.8 7.6 2 14.3 2.1 23.1-1.9 6.4-3.1 5.8-5.6-1.7-5.9-7-.1-13.9.9-20.6 2.8 3.4-4.3 6.9-8.5 10.5-12.6.6.2 1.3.4 2.2.6 6.9 1.2 12.9.8 20.4-3.4 5.5-3.3 4.8-5.4-1.9-5.1-5.6.4-11.2 1.6-16.5 3.4 3.9-4.1 7.9-8 12-11.8 5 3.4 9.8 5.2 17.1 4.6 5.4-.6 5.6-2.5.3-4.7-4.4-1.6-9.1-2.7-13.8-3.1 2.7-2.4 5.5-4.7 8.4-6.9.5.2 1.2.3 1.9.5 4.7.7 9.5.7 14.2 0 3.7-.7 3.8-1.7.5-3.1-3.5-1.5-6.8-2.2-10.7-1.9 1.7-1.2 3.3-2.4 5-3.5.5-.1 1.2-.2 1.9-.5 4.5-1.5 8.8-3.8 12.6-6.6 2.9-2.3 2.6-3.3-1-3-5.2.4-9.4 1.9-14 6.3-.5.5-.9 1-1.2 1.4-2.6 1.7-5.1 3.5-7.6 5.4 1.7-3.9 2.3-7.8 1.2-13.1-1.1-4.6-2.8-4.6-4.1.2-1.1 4.6-1.5 9.4-1.2 14.2.1.7.1 1.2.3 1.6-3 2.3-5.9 4.7-8.7 7.3 1.9-4.1 2.6-8.2 1.4-13.7-1.1-4.6-2.8-4.6-4.1.2-1.1 4.6-1.5 9.4-1.2 14.2.1 1 .3 1.8.5 2.3-4 3.7-8 7.6-11.8 11.6 1.3-5.2 1.9-10.6 1.8-16-.3-4.6-1.5-5-3.8-1.1-3.3 5.6-4.8 11-3.5 18.8.3 1.4.6 2.5 1 3.2-2.8 3.1-5.4 6.2-8.1 9.5 1.9-7.2 2.9-14.5 3.2-21.8.1-6.3-1.3-6.7-4-1.3-4 7.8-6.1 15.2-5.3 25.8.2 1.9.4 3.3.8 4.3-2.1 2.8-4.2 5.7-6.3 8.7l-.6-.6c.1-6.9-.6-13.8-2.1-20.5-1.5-6-3.1-6.1-4.8-.3-1.2 4.2-1.9 8.2-1.8 12.3-14.4-13-30.8-23.3-48.5-30.6l48.6-120.2L.5 192l-37.7 121.8-.5-.2L-8.1 185l-28.4-5.7L-50 309.6l-.9-.2 3.7-132.1-22.8-4.5 4.5 133.4c-4.9-.8-9.9-1.5-15-1.9l-1.2-1.5 6.9-132.9-7.8-.8-3.5 22.1v156h.2v5.3c56.8 27.3 110.3 43.1 160.5 47.3M685.9 316.5c-.1 34.4-.1 51.6-.1 51.6s-116.7 5.1-350.2 15.3c14-21.8 36.9-34.9 61.3-36.9-7.7-4.8-15.3-9.7-22.8-14.7 2.5-3.9 5.5-7.4 9.1-10.4 0 0 7.6 8 22.9 24 0 0-6.3-10.2-19-30.5 3.4-1.5 6.8-2.8 10.2-4.1 0 0 4.7 11.2 14.2 33.5 0 0-2.4-12.6-7.3-37.8 5.5-1 11-1 16.5 0l-1.5 34.2s2.3-10.5 6.9-31.6c4.6-.3 9.1 1.2 12.7 4.1 0 0-5 11.8-15 35.5l23.5-39.1c-5.6-3.6-11.2-7.2-16.7-10.9 3.5-5.5 7.8-10.4 12.8-14.7l31.2 32.6c.1 0 .2-.1.3-.1l-26-41.8c4.8-2.1 9.6-4 14.5-5.8l19.2 45.3c.1 0 .3-.1.4-.1l-10-51.4c7.7-1.4 15.6-1.4 23.3 0l-2.1 48.3s3.2-14.9 9.7-44.6c6.5-.4 12.9 1.7 18 5.8l-17.1 40.4c.5 0 1.1.1 1.6.1l27.4-45.7c1.6.3 3.1.8 4.6 1.2l-22.2-81.8s.7-1 2-3c0 0 8.2 1 24.5 2.9l13.8 111.4c.4-.2.8-.3 1.2-.5l-2.5-105.4s1.3-.8 4-2.4c0 0 7.6 1.2 22.8 3.5l-12.6 100.5c1.9-.5 3.9-1 5.8-1.5l17.2-97.8s2 .2 6 .5c0 0-1.8 30.6-5.3 91.7l2.2 2.6c3.4-.2 6.8-.3 10.2-.3l-3.5-92s5.8 1 17.5 3.1l-2.8 89.5c.3 0 .6 0 .8.1l10.2-88.2s7.3 1.3 21.8 3.9l-21.9 85.6c.2 0 .5.1.7.1l27.8-81s4.5 1 13.6 2.9L634.3 292c18.4 4.2 36 12.4 51.6 24.5"/><path class="st17" d="M-85.8 399.8h191.2c-19-15.7-44.2-21.5-68.2-15.7-19.4 4.3-39.2-1.6-53.4-15.1-18.8-17.3-44.4-25.2-69.6-21.5v52.3M685.9 357.2v42.6H309.7c26.8-21.5 60.5-32.6 94.8-31.4 37.3 2.3 74.5-5.8 107.5-23.4 55.3-30.7 123.5-25.9 173.9 12.2"/><path class="st17" d="M566.4 399.8h93l26.5-108.5v-82.9l-14.9 1.9-20 179.3 3.7-171.2-5.2-3.4-29.8 5.1 18.5 163.8-6.1 2.1-26-164.3-7.8.8 6.9 132.9-16.8 22.4 5.2-152.4-22.8 4.4 4.1 144.4L560 231.9l-28.4 5.7L563 373.7l-40-129.2-17.7 4.2zM489.7 399.8H467s-20-13.9-60-41.8c0 0-3.3-2.3-10-6.8 0 0 6.6-1.2 19.8-3.5 0 0 17.8 15.7 53.4 47l-60-62.7s-2.3-2.2-6.8-6.5c0 0 8.1-1.6 24.4-4.7 0 0 14.4 21.5 43.3 64.4 0 0-4.5-11.6-13.5-34.7 0 0-6.9-10-20.6-30 0 0 5.8-1 17.4-2.9 0 0 6.6 19.2 19.7 57.7 0 0-3.5-19.1-10.6-57.4l15 .9s1.2 24.8 3.5 74.5c0 0 .9-24.7 2.6-74.2 0 0 5.6.9 16.8 2.6 0 0-4.7 22.5-13.9 67.6 0 0 6.3-23.4 19-70.3 0 0 6.7 1 20 2.9 0 .2-12.3 26.1-36.8 77.9"/><path class="st11" d="M516 294.6c-.7-2.3-1.7-4.5-3-6.8l-4.1 83.9s3.4 4.7 10.1 14.2l-3-91.3zm-39.5-75.9c1.3 1.6 2.5 3.2 3.6 4.8-1-4-1.3-8.2-.9-12.5.6-3.9 1.9-4.2 3.8-.9 3 6 3.2 13.1.6 19.3.1.2.3.5.4.8 1.1 2.1 2 4.3 2.9 6.6.2-4.3 1.3-8.5 3.2-12.5 1.9-3.3 3.2-3 3.9.7.9 6.5-1 12.8-5.3 17.4.4 1.3.7 2.6 1 4v.1c.1.5.2 1 .3 1.6 1.3-3.7 3.5-7 6.6-10 2.7-2.2 4-1.7 3.8 1.5-.8 5.4-4.1 9.9-9.3 12.7.8 2.7 1.8 5.3 3 7.8.7-3.9 2.4-7.3 5.3-10.4 2.3-2 3.5-1.6 3.6 1.3-.2 4.9-2.9 9.1-7.7 11.6 1.7 3 3.6 5.9 5.9 8.5-.3-3.7.5-7.1 2.6-10.3 1.7-2.2 3.1-2 4 .8 1.2 4.6-.4 8.9-4.4 11.9l.5.5c1.5 1.4 2.9 2.8 4.1 4.2-.1-3.2.8-6.2 2.6-9 1.7-2.2 3.1-2 4 .8 1.1 4.4-.3 8.6-3.9 11.5 1.1 1.4 2.1 2.7 2.9 4.1.9 1.4 1.6 2.7 2.3 4.1l13.3 2.8s-.8 30.5-2.5 91.6c0 0 3-30.1 8.9-90.3 0 0 5.7 1.2 17 3.6 0 0-6.3 28.8-18.8 86.3 0 0 8-27.3 24-82 0 0 3.5.9 10.6 2.7 0 0-12.2 32-36.6 95.9H476s-9.2-40-27.7-120.1c0 0 .5-.9 1.6-2.8l19.2 2.7 12 113.7s-.7-36.2-2.2-108.5c0 0 1-.7 3.1-2.2 0 0 6 1.1 17.9 3.2 0 0-3.7 34.6-11.1 103.9 0 0 1.2.4 3.7 1.3 0 0 5.2-34.7 15.6-104.2l4.4.5c-.2-.3-.4-.7-.6-1-.9-1.4-1.8-2.7-2.9-4.1-5.7 1.9-11.1 1-14.8-2.7-1.9-2.3-1.3-3.5 2-3.8 3.2 0 6.1.6 8.7 1.9-.8-.8-1.6-1.6-2.5-2.4-1.7-1.7-3.3-3.4-4.7-5.3-5.8 2-11.2 1.1-15-2.6-1.9-2.3-1.3-3.5 2-3.8 3.9 0 7.4 1 10.4 2.8-.8-1.3-1.6-2.6-2.3-3.9-.1-.2-.2-.5-.4-.7-5.8.8-10.7-1-13.6-5.2-1.4-2.5-.6-3.6 2.6-3.3 3.6.7 6.7 2.1 9.2 4.3-.7-1.8-1.4-3.8-1.9-5.7-5.6-.1-10.4-2.6-13.2-6.9-1.4-2.6-.6-3.4 2.5-2.7 4 1.4 7.3 3.5 9.9 6.4-.2-.7-.3-1.3-.4-2l-1.2-4.8c-6-.3-11.7-3.3-15.6-8.3-2.1-3.1-1.4-4.2 2.3-3.3 4.5 1.5 8.4 3.9 11.7 7-.8-2.1-1.7-4.2-2.7-6.2-.4-.7-.7-1.4-1.1-2.1-5.8-.3-11.2-2.9-14.9-7.4-2-2.7-1.3-3.6 2.1-2.7 3.7 1.2 7 3 9.8 5.3-1.3-1.9-2.7-3.8-4.3-5.5-3.8-2.3-7-5.3-9.6-9.2-1.6-2.9-1-3.7 2-2.6 5 1.8 8.8 6.1 10.5 11.4zm209.4 181.1h-34.1L624.2 252l1.6-3.4 19.1 3.3 11.9 139.9-2.2-133.6 3.1-2.7 17.8 4-11.1 127.9 3.6 1.6 15.5-128.2 2.2.3v62.4l-1.6 41.7 1.9 2.9v28c0 .5.1 2.6-.1 3.7z"/><path class="st18" d="M411.5 399.8h19.9s17.7-12.4 53.1-37.1c0 0-5.9-2.7-17.8-8.1 0 0-11.8 13.6-35.4 40.9l35.8-58.1-11.5-.2-6.7 5.3-22.4 50 19.8-58.1-14.1 1.1-8.8 50.3 2.7-49.1-6.7.7-.8 56.5-4.2-55.5-14.2 2.6 11.2 52.4c-11.7-33.6-17.6-50.4-17.6-50.4-9.6 1.9-14.4 2.9-14.4 2.9l4.6 4.6c18.4 32.9 27.5 49.3 27.5 49.3"/><path d="M603.3 399.8h54s9-33 26.9-99c0 0-.5-.8-1.5-2.3 0 0-6.2.7-18.6 2.2 0 0-3.9 31.2-11.6 93.7l2.1-89.5-3-1.8s-5.8.9-17.3 2.7c0 0 3.6 28.6 10.8 85.7 0 0-1.2.4-3.6 1.1 0 0-5-28.6-15.1-85.9 0 0-1.5.1-4.5.4 0 0 1.3 23.2 4 69.5 0 0-3.2 3.9-9.7 11.7 0 0 1-26.6 3-79.7 0 0-4.4.8-13.2 2.3 0 0 .8 25.2 2.4 75.5 0 0-2.9-24.8-8.6-74.4l-16.5 3s6.1 23.7 18.2 71.2c0 0-7.7-22.5-23.2-67.6 0 0-3.4.7-10.3 2.2-.2 0 11.6 26.4 35.3 79" style="fill-rule:evenodd;clip-rule:evenodd;fill:#59808e"/><path class="st20" d="M385 399.8h22.7c15.7-19.9 23.5-29.8 23.5-29.8-3.3-2.7-7.2-4.6-11.5-5.5-13.1 21.8-19.6 32.6-19.6 32.6 8.4-19.7 12.5-29.6 12.5-29.6-3-2.4-6.8-3.6-10.6-3.4-3.8 17.5-5.7 26.3-5.7 26.3l1.2-28.5c-4.5-.8-9.2-.8-13.8 0 4.1 21 6.1 31.6 6.1 31.6-7.9-18.6-11.8-27.9-11.8-27.9-2.9 1.1-5.7 2.2-8.5 3.4 10.6 17 15.8 25.5 15.8 25.5-12.7-13.3-19.1-20-19.1-20-2.9 2.5-5.5 5.4-7.6 8.6 8.8 5.8 17.5 11.4 26.4 16.7"/><path class="st18" d="M603.3 399.8h54s9-33 26.9-99c0 0-.5-.8-1.5-2.3 0 0-6.2.7-18.6 2.2 0 0-3.9 31.2-11.6 93.7l2.1-89.5-3-1.8s-5.8.9-17.3 2.7c0 0 3.6 28.6 10.8 85.7 0 0-1.2.4-3.6 1.1 0 0-5-28.6-15.1-85.9 0 0-1.5.1-4.5.4 0 0 1.3 23.2 4 69.5 0 0-3.2 3.9-9.7 11.7 0 0 1-26.6 3-79.7 0 0-4.4.8-13.2 2.3 0 0 .8 25.2 2.4 75.5 0 0-2.9-24.8-8.6-74.4l-16.5 3s6.1 23.7 18.2 71.2c0 0-7.7-22.5-23.2-67.6 0 0-3.4.7-10.3 2.2-.2 0 11.6 26.4 35.3 79"/><path class="st17" d="M-67.1 399.8h42c53.7-66.3 80.6-99.4 80.6-99.4-14.5-8.6-21.8-12.9-21.8-12.9l-59.1 100.2C8.7 315.9 25.8 280 25.8 280 13.2 271.7 7 267.6 7 267.6c-20.3 65.8-30.5 98.7-30.5 98.7l20.7-104.7c-12.6-7.8-18.8-11.7-18.8-11.7C-31.2 343-36 389.6-36 389.6c2.5-96.9 3.8-145.4 3.8-145.4-14.1-6.8-21.1-10.2-21.1-10.2 6.4 85.4 9.7 128.1 9.7 128.1-14.2-90.7-21.3-136-21.3-136-5.4-2.5-8.1-3.8-8.1-3.8 4.5 106.4 6.7 159.6 6.7 159.6C-79.3 272.6-85.8 218-85.8 218v139.8c12.5 28 18.7 42 18.7 42"/><path class="st18" d="M-86 399.8h38.3c34.2-54 51.3-81.1 51.3-81.1-14.3-6.1-21.5-9.2-21.5-9.2-21.1 52.1-31.7 78.1-31.7 78.1 14.5-54.5 21.8-81.7 21.8-81.7-6.3-2.4-9.4-3.6-9.4-3.6-17.8 62-26.7 93.1-26.7 93.1 11.2-65.9 16.8-98.8 16.8-98.8-13.4-4.5-20-6.8-20-6.8l-2.1 70.4c-4.4-49.2-6.6-73.7-6.6-73.7-6.8-2.4-10.3-3.6-10.3-3.6.1 77.9.1 116.9.1 116.9"/><path class="st20" d="M21.1 399.8h-32.4c-22.4-28.3-33.6-42.5-33.6-42.5 4.7-3.9 10.3-6.6 16.3-7.9 18.6 31 28 46.6 28 46.6-11.9-28.1-17.9-42.2-17.9-42.2 4.3-3.4 9.6-5.2 15.1-4.9 5.4 25 8.2 37.5 8.2 37.5-1.2-27-1.8-40.6-1.8-40.6 6.5-1.2 13.1-1.2 19.6 0l-8.7 45C25.1 364.3 30.7 351 30.7 351c4.1 1.5 8.2 3.1 12.2 4.9-15.1 24.2-22.6 36.3-22.6 36.3l27.3-28.5c4.2 3.5 7.8 7.7 10.8 12.3-12.3 8.2-24.7 16.2-37.3 23.8M531.5 399.8h32.4c22.4-28.3 33.6-42.5 33.6-42.5-4.7-3.9-10.3-6.6-16.3-7.9-18.6 31-28 46.6-28 46.6 11.9-28.1 17.9-42.2 17.9-42.2-4.3-3.4-9.6-5.2-15.1-4.9-5.4 25-8.2 37.5-8.2 37.5 1.2-27.1 1.7-40.7 1.7-40.7-6.5-1.2-13.1-1.2-19.6 0l8.7 45c-11.2-26.5-16.8-39.8-16.8-39.8-4.1 1.5-8.2 3.1-12.2 4.9 15.1 24.2 22.6 36.3 22.6 36.3l-27.3-28.5c-4.2 3.5-7.8 7.7-10.8 12.3 12.4 8.3 24.8 16.3 37.4 23.9"/><path class="st21" d="M640.1 337.4c6.7 0 12.2 2.6 12.2 5.7 0 3.2-5.4 5.7-12.2 5.7-6.7 0-12.2-2.6-12.2-5.7s5.5-5.7 12.2-5.7M601.3 347.4c5.3-1.5 10.1-.7 10.8 1.8.7 2.5-3 5.7-8.3 7.2-5.3 1.5-10.1.7-10.8-1.8-.7-2.4 3-5.7 8.3-7.2M615.3 333.8c3.8-1.1 7.2-.5 7.8 1.3.5 1.8-2.1 4.1-5.9 5.2-3.8 1.1-7.2.5-7.8-1.3-.5-1.8 2.2-4.1 5.9-5.2M665.5 344.5c3.9.3 7 2.1 6.8 3.9-.2 1.8-3.5 3.1-7.4 2.7-3.9-.3-7-2.1-6.8-3.9.2-1.8 3.5-3 7.4-2.7M628.6 357.4c6.9-1.3 13-.3 13.6 2.3.7 2.6-4.4 5.8-11.2 7.1-6.9 1.3-13 .3-13.6-2.3-.7-2.5 4.3-5.7 11.2-7.1M649.4 322.3c3.5.1 6.3 1.6 6.2 3.2-.1 1.6-2.9 2.9-6.4 2.7-3.5-.1-6.3-1.6-6.2-3.2 0-1.6 2.9-2.8 6.4-2.7M677.5 334.7c2.9.6 5.1 2.1 4.9 3.5-.3 1.4-2.9 2.1-5.8 1.5-2.9-.6-5.1-2.1-4.9-3.5.3-1.3 2.9-2 5.8-1.5M597.7 369.9c-3.4 1.4-5.7 3.6-5 4.8.6 1.3 3.9 1.2 7.3-.2s5.7-3.6 5-4.8c-.6-1.3-3.9-1.2-7.3.2M623.1 309c4.9-1.1 9.2-.1 9.8 2.2.5 2.3-3 5-7.9 6.1-4.9 1.1-9.2.1-9.8-2.2-.5-2.2 3-5 7.9-6.1M575.2 385.2c-2.9 1.2-4.7 3-4.2 4 .5 1.1 3.3 1 6.1-.2 2.9-1.2 4.7-3 4.2-4s-3.3-.9-6.1.2M678.4 364.6c2.9.5 5 2 4.7 3.4-.2 1.3-2.8 2-5.6 1.5-2.9-.5-5-2-4.7-3.4.2-1.3 2.7-2 5.6-1.5"/><path d="M677.1 366.4c.4-.5 1.1-.5 1.5-.2.5.4.5 1.1.2 1.5L653 400h-2.4c0-.3 0-.6.2-.8l26.3-32.8zm-79.2 6.4c-.3-.5-.1-1.2.4-1.5.5-.3 1.2-.1 1.5.4l16.2 27.6c.1.2.2.5.1.7h-2.3l-15.9-27.2zm17.3-35.6c-.1-.6.4-1.1 1-1.2.6-.1 1.1.4 1.2 1l5.4 55.7 3.2 6.6c.1.2.1.4.1.6h-2.2l-21-43.1c-.3-.5 0-1.2.5-1.5.5-.3 1.2 0 1.5.5l15.2 31.1-4.9-49.7zm-40 50.5c-.3-.5-.1-1.2.4-1.5.5-.3 1.2-.1 1.5.4l7.1 12.7c.1.2.2.5.1.7H582l-6.8-12.3zm55.2-25.2c.6-.4 1.4-.1 1.7.6l7.7 23 1.5-42.9c0-.6.5-1.1 1.1-1.1.6 0 1.1.5 1.1 1.1v.8l4.8-19c.1-.6.7-.9 1.3-.8.6.1.9.7.8 1.3l-4.9 19.6c-.2 1-1.5 1.1-2 .3l-1.6 46.9 22.4-44.9c.3-.5.9-.8 1.5-.5.5.3.8.9.5 1.5l-23.4 46.9 1.4 4.2c.1.2.1.3 0 .5h-2.2l-11.3-33.8 3.6 33.6v.3h-2.2l-9.4-86.7c-.1-.6.4-1.1 1-1.2.6-.1 1.1.4 1.2 1l5.4 49.3z" style="fill:#ffe188"/><path class="st21" d="m-48.8 374-14.9 25.3c-.1.2-.2.5-.1.7h2.3l14.8-25.1c3.1 1.1 5.9 1 6.5-.1.6-1.3-1.6-3.4-5-4.8s-6.7-1.5-7.3-.2c-.7 1 1 2.8 3.7 4.2m23 14.6-6 10.7c-.1.2-.2.5-.1.7h2.2l5.9-10.5c2.5.8 4.7.8 5.2-.2.5-1.1-1.3-2.9-4.2-4-2.9-1.2-5.6-1.2-6.1-.2-.4.9.9 2.4 3.1 3.5zm-60.2.3 7.3-22.1h.1l-3.6 32.9v.3h2.2l3.5-32.8c3.4.4 6.4.3 8.5-.4l-2.5 25.9-3.2 6.6c-.1.2-.1.4-.1.6h2.2l21-43.1c0-.1.1-.1.1-.2 4.9 1.1 9.1.3 9.8-2.1.7-2.5-3-5.7-8.3-7.2-5.3-1.5-10.1-.7-10.8 1.8-.7 2.3 2.5 5.3 7.2 6.9l-15.1 31 2.1-21.6c.7-.8.8-1.7.3-2.6l2.1-22.2c3.1.5 5.7-.1 6.1-1.7.5-1.8-2.1-4.1-5.9-5.2-3.8-1.1-7.2-.5-7.8 1.3-.5 1.7 1.9 3.9 5.4 5l-2 20.7c-1.9-1.3-4.7-2.5-8.1-3.2l4.3-40c4.2.6 7.7-.4 8.2-2.5.5-2.3-3-5-7.9-6.1-4.9-1.1-9.2-.1-9.8 2.2-.5 2.2 2.7 4.8 7.3 6l-2.7 24.7c-1.1-2.3-5.2-4.1-10.2-4.4v11.4c4.6-.3 8.4-1.8 9.8-3.8l-1.3 12.2c-3.3-.5-6.3-.5-8.5 0v7.1c1.4.8 3.2 1.5 5.2 2l-5.2 15.7v6.9z"/><path class="st0" d="M510.1 342.8c1.7 0 3.2 1.4 3.2 3.2 0 1.7-1.4 3.2-3.2 3.2-1.7 0-3.2-1.4-3.2-3.2 0-1.7 1.4-3.2 3.2-3.2M464.2 301.9c.9 0 1.6.7 1.6 1.6 0 .9-.7 1.6-1.6 1.6-.9 0-1.6-.7-1.6-1.6 0-.9.8-1.6 1.6-1.6M494.9 298.9c.9 0 1.6.7 1.6 1.6 0 .9-.7 1.6-1.6 1.6-.9 0-1.6-.7-1.6-1.6 0-.9.7-1.6 1.6-1.6M408.3 253.7c.9 0 1.6.7 1.6 1.6 0 .9-.7 1.6-1.6 1.6-.9 0-1.6-.7-1.6-1.6 0-.9.7-1.6 1.6-1.6M60.2 375.7c1.4 0 2.5 1.1 2.5 2.5s-1.1 2.5-2.5 2.5-2.5-1.1-2.5-2.5 1.1-2.5 2.5-2.5M-3.1 351.5c1.1 0 2 .9 2 2s-.9 2-2 2-2-.9-2-2 .9-2 2-2M28.4 310.9c.9 0 1.6.7 1.6 1.6 0 .9-.7 1.6-1.6 1.6-.9 0-1.6-.7-1.6-1.6 0-.8.7-1.6 1.6-1.6M450.7 372.6c.8 0 1.5.7 1.5 1.5s-.7 1.5-1.5 1.5-1.5-.7-1.5-1.5c.1-.8.7-1.5 1.5-1.5M360.9 394.2c.5 0 .9.4.9.9s-.4.9-.9.9-.9-.4-.9-.9.4-.9.9-.9M663.6 277c.8 0 1.5.7 1.5 1.5s-.7 1.5-1.5 1.5-1.5-.7-1.5-1.5c0-.9.7-1.5 1.5-1.5M628.4 201.8c1.4 0 2.6 1.2 2.6 2.6 0 1.4-1.2 2.6-2.6 2.6s-2.6-1.2-2.6-2.6c0-1.4 1.2-2.6 2.6-2.6M615.2 141.3c.7 0 1.3.6 1.3 1.3 0 .7-.6 1.3-1.3 1.3-.7 0-1.3-.6-1.3-1.3 0-.7.6-1.3 1.3-1.3M4 226.3c1.4 0 2.6 1.2 2.6 2.6 0 1.4-1.2 2.6-2.6 2.6s-2.6-1.2-2.6-2.6c0-1.5 1.2-2.6 2.6-2.6M29 232.8c1 0 1.9.8 1.9 1.9 0 1-.8 1.9-1.9 1.9-1 0-1.9-.8-1.9-1.9 0-1.1.8-1.9 1.9-1.9M-63 248.6c1 0 1.9.8 1.9 1.9 0 1-.8 1.9-1.9 1.9-1 0-1.9-.8-1.9-1.9 0-1.1.8-1.9 1.9-1.9M-28.1 209.9c.7 0 1.3.6 1.3 1.3 0 .7-.6 1.3-1.3 1.3-.7 0-1.3-.6-1.3-1.3 0-.7.6-1.3 1.3-1.3M63.3 255c.7 0 1.3.6 1.3 1.3 0 .7-.6 1.3-1.3 1.3-.7 0-1.3-.6-1.3-1.3 0-.7.5-1.3 1.3-1.3"/><path class="st23" d="M230.7 301.6c-53.2-6-79.7-9-79.7-9 155.9-2.9 233.8-4.3 233.8-4.3-104.9 16.1-157.3 24.1-157.3 24.1l123.5 1.5-134.1 30c54.7 6.5 82 9.8 82 9.8-35.7 14.8-53.5 22.3-53.5 22.3 16.3-11.3 24.4-16.9 24.4-16.9-81.2-8.9-121.8-13.3-121.8-13.3 66.3-14.4 99.5-21.6 99.5-21.6-59.9-4.3-89.8-6.5-89.8-6.5 48.6-10.8 73-16.1 73-16.1"/><path class="st24" d="M187.4 277.2c1.3 0 2.4 1.1 2.4 2.4 0 1.3-1.1 2.4-2.4 2.4-1.3 0-2.4-1.1-2.4-2.4 0-1.3 1.1-2.4 2.4-2.4M175 263.5c.7 0 1.2.5 1.2 1.2s-.5 1.2-1.2 1.2-1.2-.5-1.2-1.2c0-.6.5-1.2 1.2-1.2M141.4 255.4c1.9 0 3.5 1.5 3.5 3.5 0 1.9-1.5 3.5-3.5 3.5-1.9 0-3.5-1.5-3.5-3.5.1-1.9 1.6-3.5 3.5-3.5M145.1 242.4c1 0 1.7.8 1.7 1.7 0 1-.8 1.7-1.7 1.7-1 0-1.7-.8-1.7-1.7 0-.9.7-1.7 1.7-1.7M100 222c.7 0 1.3.6 1.3 1.3s-.6 1.3-1.3 1.3c-.7 0-1.3-.6-1.3-1.3s.6-1.3 1.3-1.3M93.1 267.6c.7 0 1.3.6 1.3 1.3 0 .7-.6 1.3-1.3 1.3-.7 0-1.3-.6-1.3-1.3 0-.8.6-1.3 1.3-1.3M348.1 235c1 0 1.7.8 1.7 1.7 0 1-.8 1.7-1.7 1.7-1 0-1.7-.8-1.7-1.7-.1-1 .7-1.7 1.7-1.7M348.5 263.2c.9 0 1.6.7 1.6 1.6 0 .9-.7 1.6-1.6 1.6-.9 0-1.6-.7-1.6-1.6.1-.9.8-1.6 1.6-1.6M460.6 164.5c.9 0 1.6.7 1.6 1.6 0 .9-.7 1.6-1.6 1.6-.9 0-1.6-.7-1.6-1.6.1-.9.8-1.6 1.6-1.6"/><path d="m326 284.6-132.9.8 5.4-37-2.8-17.2c5.8 2.6 11.8 4.5 17.9 5.6l3.1.9c41.1 11.7 83.9-12.1 95.7-53.1l.6-2.1 1.3 24.7 6.4 21.5c-.5 12.8-1 27-1.5 42.6l6.8 13.3z" style="fill-rule:evenodd;clip-rule:evenodd;fill:#d4ecf4"/><path class="st23" d="M247.4 269.5c6.3 0 11.4 5.1 11.4 11.4 0 6.3-5.1 11.4-11.4 11.4-6.3 0-11.4-5.1-11.4-11.4 0-6.3 5.1-11.4 11.4-11.4"/><path class="st23" d="M259.9 280.7c4.3 0 7.9 3.5 7.9 7.9 0 4.3-3.5 7.9-7.9 7.9-4.3 0-7.9-3.5-7.9-7.9.1-4.4 3.6-7.9 7.9-7.9M228.9 279.3c4.3 0 7.9 3.5 7.9 7.9 0 4.3-3.5 7.9-7.9 7.9-4.3 0-7.9-3.5-7.9-7.9s3.5-7.9 7.9-7.9"/><path class="st23" d="M239.6 281.9c4.3 0 7.9 3.5 7.9 7.9s-3.5 7.9-7.9 7.9c-4.3 0-7.9-3.5-7.9-7.9s3.6-7.9 7.9-7.9M228.7 262.9c2.7 0 4.9 2.2 4.9 4.9s-2.2 4.9-4.9 4.9-4.9-2.2-4.9-4.9c.1-2.7 2.2-4.9 4.9-4.9M280.7 263.3c2.4 0 4.4 2 4.4 4.4 0 2.4-2 4.4-4.4 4.4-2.4 0-4.4-2-4.4-4.4 0-2.5 2-4.4 4.4-4.4M284.1 286.4c2 0 3.6 1.6 3.6 3.6s-1.6 3.6-3.6 3.6-3.6-1.6-3.6-3.6 1.6-3.6 3.6-3.6M298.3 250.4c1.2 0 2.2 1 2.2 2.2 0 1.2-1 2.2-2.2 2.2-1.2 0-2.2-1-2.2-2.2 0-1.2 1-2.2 2.2-2.2M207.9 283.8c3.1 0 5.6 2.5 5.6 5.6 0 3.1-2.5 5.6-5.6 5.6-3.1 0-5.6-2.5-5.6-5.6 0-3.1 2.5-5.6 5.6-5.6M192.5 281.6c2.7 0 4.8 2.2 4.8 4.8 0 2.7-2.2 4.8-4.8 4.8-2.7 0-4.8-2.2-4.8-4.8-.1-2.6 2.1-4.8 4.8-4.8"/><path class="st23" d="M277.1 283.1c2.8 0 5.1 2.3 5.1 5.1s-2.3 5.1-5.1 5.1-5.1-2.3-5.1-5.1 2.3-5.1 5.1-5.1M313.3 281.1c2 0 3.6 1.6 3.6 3.6s-1.6 3.6-3.6 3.6-3.6-1.6-3.6-3.6c.1-2 1.7-3.6 3.6-3.6M342.9 206.3c1.1 0 1.9.9 1.9 1.9 0 1.1-.9 1.9-1.9 1.9-1.1 0-1.9-.9-1.9-1.9 0-1 .9-1.9 1.9-1.9"/><path class="st0" d="m195.1 185.6 9.6-47.1-4.8-36.3 103.1.3 7.7 38.7.3 5.9-20.2-21.6-3.3 82.7-14-78.4-15.7 133.1-6.6-140.5-13.8 15.6-10.2 11.7-6 76.7-8.6-64.6z"/></svg>