<svg version="1.1" id="Layer_1" xmlns="http://www.w3.org/2000/svg" x="0" y="0" viewBox="0 0 600 400" style="enable-background:new 0 0 600 400" xml:space="preserve"><style>.st4{fill-rule:evenodd;clip-rule:evenodd}.st4,.st6{fill:#fff}.st7{fill-rule:evenodd;clip-rule:evenodd;fill:#00adb0}.st8{fill:#039393}.st10,.st14,.st21,.st22,.st9{fill-rule:evenodd;clip-rule:evenodd}.st10,.st14,.st21,.st22{fill:#7703fc}.st14,.st21,.st22{fill:#ffaa50}.st21,.st22{fill:#ec6917}.st22{fill:#ae0300}.st29{fill:#2e1a04}.st48{fill-rule:evenodd;clip-rule:evenodd;fill:#ffd942}.st55{fill:#eb3503}.st69{fill-rule:evenodd;clip-rule:evenodd;fill:#d6d6d6}</style><path d="M194.5 3.2c-70.7 0-128 57.3-128 128s57.3 128 128 128c19.8 0 38.5-4.5 55.2-12.5-.2 2.8-.3 5.7-.3 8.6 0 78.2 63.4 141.6 141.6 141.6s141.6-63.4 141.6-141.6S469.2 113.7 391 113.7c-24.9 0-48.2 6.4-68.5 17.7v-.2c-.1-70.7-57.4-128-128-128z" style="fill-rule:evenodd;clip-rule:evenodd;fill:#bfe9ff"/><defs><filter id="Adobe_OpacityMaskFilter" filterUnits="userSpaceOnUse" x="66.5" y="3.2" width="466" height="393.6"><feColorMatrix values="1 0 0 0 0 0 1 0 0 0 0 0 1 0 0 0 0 0 1 0"/></filter></defs><mask maskUnits="userSpaceOnUse" x="66.5" y="3.2" width="466" height="393.6" id="SVGID_1_"><g style="filter:url(#Adobe_OpacityMaskFilter)"><linearGradient id="SVGID_2_" gradientUnits="userSpaceOnUse" x1="-73.34" y1="292.216" x2="261.263" y2="406.097" gradientTransform="translate(255.732 -132.084)"><stop offset="0" style="stop-color:#000"/><stop offset="1" style="stop-color:#fff"/></linearGradient><path style="fill:url(#SVGID_2_)" d="M66.5 3.2h466v393.6h-466z"/></g></mask><path d="M194.5 3.2c-70.7 0-128 57.3-128 128s57.3 128 128 128c19.8 0 38.5-4.5 55.2-12.5-.2 2.8-.3 5.7-.3 8.6 0 78.2 63.4 141.6 141.6 141.6s141.6-63.4 141.6-141.6S469.2 113.7 391 113.7c-24.9 0-48.2 6.4-68.5 17.7v-.2c-.1-70.7-57.4-128-128-128z" style="mask:url(#SVGID_1_);fill-rule:evenodd;clip-rule:evenodd;fill:#a671f4"/><path class="st4" d="M85.7 44.6h211.7v169.3H85.7z"/><path style="fill-rule:evenodd;clip-rule:evenodd;fill:#ededed" d="M92.3 51.1h198.4v156.3H92.3z"/><path class="st4" d="M487.9 299.2c.6 0 1-.4 1-.7 2-6.9-1.6-12.1-7.5-15.2-1.7-.9-3.4-1.4-4.5-1-1.5.5-1.9 2.3-1.7 4.4.6 7.1 5.3 12.7 12.7 12.5z"/><path class="st4" d="M479.3 308.7c.6 0 1-.4 1-.7 2-6.9-1.6-12.1-7.5-15.2-1.7-.9-3.4-1.4-4.5-1-1.5.5-1.9 2.3-1.7 4.4.6 7.1 5.2 12.7 12.7 12.5z"/><path class="st6" d="M448.6 337.9c14.6-8.8 27.6-19.8 38.6-32.5s19.9-27.2 26.4-43c.2-.4 0-.9-.4-1-.4-.2-.9 0-1 .4-6.5 15.6-15.3 29.9-26.2 42.5-10.9 12.6-23.7 23.5-38.2 32.2-.4.2-.5.7-.3 1.1.3.4.7.5 1.1.3z"/><path class="st4" d="M525.3 262.7c1-.9 1.5-1.9 1.1-2.7-.3-.7-1.3-1.1-2.5-1.5-4-1.1-7.8-.2-9.8 3.7-.1.1-.1.5.2.7 3.3 3.4 7.8 2.7 11-.2zM515.2 258.6c3.7-2.4 4.1-6.3 2.6-10.1-.4-1.1-1-2-1.7-2.3-.9-.3-1.8.3-2.6 1.4-2.6 3.5-2.7 8 .9 10.9.3.2.7.2.8.1zM524.3 272.5c1.3-1 2.1-2.1 1.6-3.2-.3-.8-1.5-1.5-2.9-2.1-4.7-1.8-9.5-1.2-12.3 3.4-.1.1-.2.6.1.9 3.7 4.5 9.3 4.3 13.5 1zM511.1 261.4c.4 0 .6-.3.6-.4 1.1-4.3-1.3-7.4-5-9.2-1.1-.5-2.1-.8-2.8-.5-.9.4-1.1 1.5-.9 2.8.5 4.3 3.5 7.7 8.1 7.3zM506.8 270.1c.5 0 .7-.4.8-.5 1.3-5.3-1.6-9.1-6.1-11.2-1.3-.6-2.6-1-3.5-.6-1.1.4-1.3 1.8-1.1 3.4.6 5.2 4.2 9.3 9.9 8.9zM501.5 279.5c.5 0 .8-.4.8-.6 1.4-5.8-1.7-9.9-6.7-12.3-1.4-.7-2.9-1.1-3.8-.7-1.2.5-1.5 2-1.2 3.7.7 5.8 4.7 10.3 10.9 9.9zM520.2 284.4c1.5-.8 2.6-1.9 2.3-3.2-.2-1-1.4-1.9-2.8-2.7-4.8-2.7-10.1-2.8-13.9 1.8-.1.1-.3.6 0 1 3.2 5.3 9.3 5.9 14.4 3.1zM495.2 289.7c.6 0 .9-.4.9-.6 1.8-6.2-1.4-11-6.8-13.8-1.5-.8-3.1-1.3-4.1-.9-1.3.5-1.7 2.1-1.5 4 .5 6.3 4.7 11.5 11.5 11.3zM515.5 296.3c1.8-.7 3-1.8 2.9-3.2-.1-1.1-1.3-2.2-2.7-3.3-4.9-3.5-10.6-4.3-15.4.2-.2.1-.4.6-.1 1.1 2.8 6.3 9.4 7.7 15.3 5.2zM509.5 308c1.9-.8 3.4-1.9 3.2-3.5-.1-1.2-1.4-2.5-2.9-3.6-5.4-3.9-11.6-4.8-16.9.1-.2.1-.5.7-.1 1.2 3 6.8 10.2 8.4 16.7 5.8zM501.1 321.2c2.2-.6 3.8-1.7 3.8-3.3 0-1.3-1.2-2.8-2.7-4.2-5.3-4.8-11.9-6.6-18.2-1.9-.2.1-.6.7-.3 1.3 2.5 7.5 10 10.1 17.4 8.1zM296 258.4c9.3 2.1 16.4-3.9 18.8-12.5.7-2.6.6-4.9-1.1-5.9-1.3-.8-3.6-.5-5.9.2-8.1 2.5-13.8 8.1-12.9 17.1 0 .3.3 1 1.1 1.1z"/><path class="st4" d="M304.6 272.3c9.3 2.1 16.4-3.9 18.8-12.5.7-2.6.6-4.9-1.1-5.9-1.3-.8-3.6-.5-5.9.2-8.1 2.5-13.8 8.1-12.9 17.1-.1.4.3 1.1 1.1 1.1z"/><path class="st6" d="M335.8 316.2c.4.4 1 .3 1.4-.1.4-.4.3-1-.1-1.4-16-14.3-29.4-31-39.9-49.3-10.5-18.4-18.1-38.4-22.4-59.4-.1-.5-.6-.9-1.2-.8-.5.1-.9.6-.8 1.2 4.4 21.2 12.1 41.4 22.7 59.9 10.6 18.6 24.2 35.4 40.3 49.9z"/><path class="st4" d="M271.8 206.9c.4-.2.5-.7.4-.9-1.5-5.4-6.1-7.4-11.3-7-1.5.1-2.9.5-3.4 1.2-.8 1-.3 2.3.7 3.6 3.3 4.6 8.7 6.4 13.6 3.1zM272.7 201.3c5.2-2.7 6.1-8.4 3.7-13.4-.7-1.5-1.7-2.5-2.9-2.3-.9.2-1.9 1.2-2.7 2.5-2.8 4.4-3.2 9.4.9 13.2.2.1.6.3 1 0zM274 218.6c.5-.3.5-.9.4-1.1-2.5-6.4-8.3-8.3-14.5-7.2-1.8.3-3.4.9-4.1 1.9-.8 1.2-.1 2.8 1.3 4.3 4.5 5 11.3 6.6 16.9 2.1zM276.2 205.8c5.7 1.5 10.2-2 11.9-7.2.5-1.6.5-3-.5-3.7-.8-.5-2.2-.4-3.7 0-5 1.3-8.7 4.6-8.4 10.2 0 .1.2.6.7.7zM279.5 217.6c6.9 1.9 12.5-2.4 14.6-8.9.6-1.9.6-3.7-.6-4.5-1-.6-2.7-.5-4.5 0-6.2 1.6-10.7 5.7-10.3 12.5 0 .3.2.8.8.9zM283.9 230.6c7.6 2.1 13.7-2.6 16-9.7.7-2.1.7-4-.7-4.9-1.1-.7-2.9-.6-4.9-.1-6.8 1.8-11.7 6.2-11.3 13.7-.1.3.2.9.9 1zM278 231.9c.5-.4.4-1.1.3-1.3-3.7-6.6-10.2-7.7-16.9-5.5-1.9.6-3.6 1.5-4.1 2.7-.7 1.5.4 3.1 2.1 4.5 5.7 4.7 13.3 5.4 18.6-.4zM289.2 244.8c8.4 1.9 14.9-3.5 17.1-11.4.6-2.3.6-4.4-1-5.3-1.2-.7-3.2-.5-5.4.2-7.3 2.2-12.6 7.3-11.8 15.6.1.2.4.8 1.1.9zM282.7 245.5c.5-.5.3-1.2.1-1.4-4.8-6.7-12.1-7.1-19.1-4-2 .9-3.7 2.1-4.1 3.4-.6 1.7.8 3.3 2.8 4.7 6.8 4.5 15.2 4.3 20.3-2.7zM289.4 261c.5-.6.3-1.4.1-1.5-5.4-7.3-13.4-7.7-21-4.1-2.2 1-4.1 2.3-4.5 3.8-.6 1.9.9 3.7 3.1 5.1 7.5 4.7 16.8 4.4 22.3-3.3zM298 276.6c.5-.7.2-1.5-.1-1.7-6.7-7.2-15.3-6.7-23.1-1.9-2.3 1.4-4.1 3-4.4 4.6-.4 2.1 1.4 3.8 4 5.1 8.7 4.3 18.6 2.9 23.6-6.1z"/><path class="st7" d="M321.2 203.6c-7.5-.7-21-16.3-24.2-23.1-1.2 4.2-1.8 8.5-1.9 12.8 0 3.3.4 8.1 1.5 12.7 4.2 15.8 16.8 13.2 28.2 16.1 1.4.3 2.5.8 2.8 1.6.3.6.1 1.3-.7 2-4.5 3.9-17.7.4-22.5-1.7 8.1 21.5 39.7 31.6 37.6 5.6 16.1 12.4 34.5 3.1 29.5-24.5-1.6 10.8-19.5 22.7-12.9 8 4.8-10.7 11.8-18.6 5.1-31.1-3.8-7.1-10.3-14.3-13.9-17.1 1.8 6.4-.3 28.8-5.2 25.8-1.2-.7-1.1-5.2-.3-10.5 1-6.4 1.8-14.4-1.1-20.2-1.7-3.4-4.6-6.6-9.3-9.7-5.4-3.6-12.8-7.1-22.1-10.3-4.9 7.2-8.4 13.5-10.4 19.1-6.4 17.5 5.9 29 18.7 39.7 3.5 2.8 3.4 5 1.1 4.8z"/><path class="st8" d="M302.1 197c-.3-.4-.9-.5-1.3-.2s-.5.9-.2 1.3c4 5.3 9.1 9.5 14.9 12.3 5.8 2.8 12.2 4.3 18.9 4.1.1 0 .2 0 .3-.1 12.5 30.2 25.9 49.5 40.3 57.8.5.3 1.1.1 1.4-.4.3-.5.1-1.1-.4-1.4-12.3-7.1-23.8-22.4-34.8-46 6.3-6.4 10.9-14.1 13.4-22.4 2.6-8.5 3.1-17.7 1.2-26.7-.1-.5-.6-.8-1.1-.7-.5.1-.8.6-.7 1.1 1.8 8.7 1.3 17.6-1.2 25.8-2.4 7.9-6.6 15.1-12.5 21.2-3.7-8.2-7.4-17.4-11-27.6 4-4.6 6.8-10.1 8.3-15.8 1.5-6 1.6-12.4.1-18.6-.1-.5-.6-.8-1.1-.7-.5.1-.8.6-.7 1.1 1.4 5.9 1.4 12-.1 17.8-1.3 5.2-3.8 10.1-7.2 14.3-5-14.5-9.9-30.8-14.5-49.1-.1-.6-.7-.9-1.3-.8-.6.1-.9.7-.8 1.3 3.4 13.3 6.9 25.7 10.5 37-4.3-2-7.9-5-10.7-8.6-2.9-3.8-4.9-8.4-5.7-13.3-.1-.5-.5-.8-1-.8-.5.1-.8.5-.8 1 .8 5.2 2.9 10.1 6 14.2s7.3 7.4 12.1 9.5c.2.1.4.1.6 0 3.4 10.6 6.9 20.3 10.5 29.1-6.2.1-12.3-1.3-17.7-3.9-5-2.8-9.9-6.8-13.7-11.8z"/><path class="st7" d="M449.4 265.1c-8.1 24.8 25 22.4 37.8 3.3-5.2 1-18.8 1.3-22.3-3.6-.6-.8-.6-1.5-.2-2.1.5-.7 1.7-.9 3.1-.9 11.8-.1 23.5 5.4 31.2-9 2.2-4.1 3.7-8.8 4.5-12 1-4.2 1.4-8.5 1.2-12.9-4.6 5.9-21.5 17.9-28.9 16.8-2.4-.4-2-2.5 2.3-4.5 14.9-7.4 29.5-15.8 27.4-34.2-.7-5.9-2.6-12.8-5.7-21-9.8.9-17.8 2.6-23.9 4.8-5.3 2-8.9 4.4-11.3 7.3-4.1 4.9-5.2 12.9-5.7 19.4-.5 5.3-1.4 9.7-2.7 10.1-5.5 1.8-2.4-20.4.9-26.3-4.2 1.9-12.2 7.3-17.5 13.4-9.4 10.6-4.5 19.9-2.3 31.4 3 15.8-11.7.1-10.7-10.8-11.5 25.8 4.2 39.1 22.8 30.8z"/><path class="st8" d="M406.8 297c-.6.2-.9.7-.7 1.3.2.6.7.9 1.3.7 15.9-4.7 33.5-20.3 52.7-46.8.1.1.2.1.3.1 6.4 1.7 13 1.8 19.3.4 6.3-1.4 12.2-4.3 17.3-8.5.4-.3.4-.9.1-1.3-.3-.4-.9-.4-1.3-.1-4.9 4.1-10.6 6.8-16.6 8.1-5.9 1.3-12.1 1.2-18.1-.3 5.5-7.7 11.2-16.4 17-25.9.2.1.4.2.6.1 5.2-.9 10-3.2 14-6.4s7.2-7.5 9.1-12.4c.2-.5 0-1-.5-1.2-.5-.2-1 0-1.2.5-1.9 4.6-4.9 8.6-8.6 11.7-3.6 2.9-7.8 4.9-12.4 5.9 6.1-10.2 12.4-21.3 18.9-33.5.3-.5.1-1.1-.4-1.4-.5-.3-1.1-.1-1.4.4-8.8 16.7-17.4 31.5-25.6 44.4-2.4-4.9-3.6-10.2-3.7-15.6-.1-5.9 1.3-11.9 4.1-17.3.2-.4.1-1-.4-1.2-.4-.2-1-.1-1.2.4-2.9 5.7-4.3 11.9-4.3 18.1.1 6 1.5 11.9 4.4 17.3-5.8 9.1-11.5 17.1-17.1 24.3-4.3-7.3-6.7-15.3-7.2-23.5-.5-8.6 1.1-17.3 4.9-25.4.2-.5 0-1-.4-1.2-.5-.2-1 0-1.2.4-3.9 8.3-5.6 17.3-5 26.2.5 8.7 3.2 17.3 7.8 24.9-16.1 20.5-31 32.7-44.5 36.8z"/><path class="st9" d="M443.9 386.6c-.8-4.9-1.2-7.4-1.2-7.4H336.8s-.1 2.3-.4 6.8c34.4 14.2 73 14.4 107.5.6z"/><path class="st10" d="M336.9 379.2c34.6 9.5 71.2 9.5 105.9 0l8.1-105.4 5.9 5.3c13.3.8 25.5-7.4 29.7-20-5.1-8.5-10.5-18.3-17.4-26.3-13.7-15.7-24.2-14.6-42.8-18.3l-54.5.8c-11.8 2.3-35 5.7-42.2 11.8-1.7 1.5-3.1 3.1-3.3 4.9l10.3 97.9c-2.1-3.2-3.1-4.8-3.1-4.8s1 18 3.4 54.1z"/><defs><filter id="Adobe_OpacityMaskFilter_1_" filterUnits="userSpaceOnUse" x="331.2" y="218" width="92" height="163.5"><feColorMatrix values="1 0 0 0 0 0 1 0 0 0 0 0 1 0 0 0 0 0 1 0"/></filter></defs><mask maskUnits="userSpaceOnUse" x="331.2" y="218" width="92" height="163.5" id="SVGID_3_"><g style="filter:url(#Adobe_OpacityMaskFilter_1_)"><linearGradient id="SVGID_4_" gradientUnits="userSpaceOnUse" x1="-187.16" y1="526.465" x2="-326.697" y2="396.252" gradientTransform="translate(641.809 -154.453)"><stop offset="0" style="stop-color:#000"/><stop offset="1" style="stop-color:#fff"/></linearGradient><path style="fill:url(#SVGID_4_)" d="M331.2 218h92v163.5h-92z"/></g></mask><path d="M419.5 218.9 373 218c-24.3 4.3-38.3 8.8-41.8 13.7 4.6 66.4 6.9 99.5 6.9 99.5s.7 15 2.2 45c22.6 4.5 45.7 6.1 69.3 4.8-85.8-46.8 35.7-93.7 9.9-162.1z" style="mask:url(#SVGID_3_);fill-rule:evenodd;clip-rule:evenodd;fill:#4c0bb2"/><path class="st4" d="m426.2 214.5-5.5-2.6c-2.1 1.1-4.3 2-6.7 2.7-4.9 2.7-10.5 4.3-16.6 4.3-7.1 0-13.8-2.1-19.6-5.7l-1-.3-5.1 2.5c4.2 10 13.9 16.1 25.3 16 11.3-.3 22.6-6.7 29.2-16.9z"/><path class="st14" d="M396.6 225.8c9.3-.1 18.8-5.3 24.7-13.6-3.9-1.9-5.8-2.8-5.8-2.8-.7-14.6-1-21.9-1-21.9-21.7 6.7-32.5 10.1-32.5 10.1l.3 13.4s-1.8.6-5.5 1.9c2.9 8 10.5 13 19.8 12.9z"/><defs><filter id="Adobe_OpacityMaskFilter_2_" filterUnits="userSpaceOnUse" x="376.7" y="201.4" width="31.8" height="23.8"><feColorMatrix values="1 0 0 0 0 0 1 0 0 0 0 0 1 0 0 0 0 0 1 0"/></filter></defs><mask maskUnits="userSpaceOnUse" x="376.7" y="201.4" width="31.8" height="23.8" id="SVGID_5_"><g style="filter:url(#Adobe_OpacityMaskFilter_2_)"><linearGradient id="SVGID_6_" gradientUnits="userSpaceOnUse" x1="-327.642" y1="608.937" x2="-308.712" y2="588.101" gradientTransform="translate(708.143 -382.278)"><stop offset="0" style="stop-color:#000"/><stop offset="1" style="stop-color:#fff"/></linearGradient><path style="fill:url(#SVGID_6_)" d="M376.7 201.4h31.8v23.8h-31.8z"/></g></mask><path d="M391.4 225.3s5.7-5.5 17.1-16.4l-23.8-5.1c.1-.2.1-.4.1-.7 0-.7-.4-1.3-1.1-1.5-.6-.2-1.3-.1-1.8.4V203.7l.1 6.7s-1.8.6-5.5 1.9c2.6 7 8.1 11.7 14.9 13z" style="mask:url(#SVGID_5_);fill-rule:evenodd;clip-rule:evenodd;fill:#f75f13"/><defs><filter id="Adobe_OpacityMaskFilter_3_" filterUnits="userSpaceOnUse" x="382" y="199" width="31.9" height="17.2"><feColorMatrix values="1 0 0 0 0 0 1 0 0 0 0 0 1 0 0 0 0 0 1 0"/></filter></defs><mask maskUnits="userSpaceOnUse" x="382" y="199" width="31.9" height="17.2" id="SVGID_7_"><g style="filter:url(#Adobe_OpacityMaskFilter_3_)"><linearGradient id="SVGID_8_" gradientUnits="userSpaceOnUse" x1="-336.433" y1="605.411" x2="-310.997" y2="602.222" gradientTransform="translate(715.877 -395.479)"><stop offset="0" style="stop-color:#000"/><stop offset="1" style="stop-color:#fff"/></linearGradient><path style="fill:url(#SVGID_8_)" d="M382 199h31.9v17.2H382z"/></g></mask><path d="M382.2 210.9c4.7 4.7 11.6 6.4 18 4.6 6.4-1.8 11.3-7 12.8-13.4l.9-3c-21.3 2-31.9 2.9-31.9 2.9v1.3l.2 7.6z" style="mask:url(#SVGID_7_);fill-rule:evenodd;clip-rule:evenodd;fill:#eb3503"/><path class="st14" d="M420.4 188.1c3.2-.7 6.1-4.7 6.4-8.9.3-4.2-2-7-5.2-6.3-3.2.7-6.1 4.7-6.4 8.9-.3 4.3 2 7.1 5.2 6.3z"/><path class="st21" d="M418.3 186.5c2.3-.5 4.4-3.4 4.6-6.5.2-3-1.4-5.1-3.8-4.5-2.3.5-4.4 3.4-4.6 6.5-.2 3 1.5 5.1 3.8 4.5z"/><path class="st22" d="M417.8 184.2c1.3-.3 2.4-1.9 2.5-3.5.1-1.6-.8-2.7-2-2.5-1.3.3-2.4 1.9-2.5 3.5-.2 1.7.7 2.8 2 2.5z"/><path class="st14" d="M373.2 188.4c3.2.7 5.5-2.1 5.1-6.3-.4-4.2-3.3-8.2-6.5-8.9-3.2-.7-5.5 2.1-5.1 6.3.4 4.2 3.3 8.2 6.5 8.9z"/><path class="st21" d="M375.3 186.8c2.3.5 4-1.5 3.7-4.6-.3-3-2.4-5.9-4.7-6.4-2.3-.5-4 1.5-3.7 4.6.3 3 2.4 5.9 4.7 6.4z"/><path class="st22" d="M375.8 184.4c1.3.3 2.2-.8 2-2.5-.1-1.6-1.3-3.2-2.5-3.5-1.3-.3-2.2.8-2 2.5.1 1.7 1.2 3.3 2.5 3.5z"/><path class="st14" d="M409 153.6c-7.9-5.3-18.3-5-25.9.8-7.6 5.8-10.6 15.7-7.5 24.7-1.4 8.8 1.8 17.1 9.7 25.1 2.2 4.6 6.8 7.4 11.8 7.4 5 0 9.6-3 11.7-7.6 6.4-7.7 9.5-16.4 9.3-26.3 2.5-9.1-1.2-18.8-9.1-24.1z"/><defs><filter id="Adobe_OpacityMaskFilter_4_" filterUnits="userSpaceOnUse" x="396.7" y="149.8" width="22.1" height="60.7"><feColorMatrix values="1 0 0 0 0 0 1 0 0 0 0 0 1 0 0 0 0 0 1 0"/></filter></defs><mask maskUnits="userSpaceOnUse" x="396.7" y="149.8" width="22.1" height="60.7" id="SVGID_9_"><g style="filter:url(#Adobe_OpacityMaskFilter_4_)"><linearGradient id="SVGID_10_" gradientUnits="userSpaceOnUse" x1="-342.165" y1="591.059" x2="-315.46" y2="575.989" gradientTransform="translate(737.356 -403.796)"><stop offset="0" style="stop-color:#000"/><stop offset="1" style="stop-color:#fff"/></linearGradient><path style="fill:url(#SVGID_10_)" d="M396.7 149.8h22.1v60.7h-22.1z"/></g></mask><path d="M409 153.6c-3.7-2.5-8-3.8-12.3-3.8 11.3 8.3 18.1 22.2 16.4 37.2-1 9.2-5 17.3-10.9 23.5 2.8-1.3 5.2-3.5 6.5-6.4 6.4-7.7 9.5-16.4 9.3-26.3 2.6-9.2-1.1-18.9-9-24.2z" style="mask:url(#SVGID_9_);fill-rule:evenodd;clip-rule:evenodd;fill:#ffdba1"/><defs><filter id="Adobe_OpacityMaskFilter_5_" filterUnits="userSpaceOnUse" x="376" y="153.5" width="27.5" height="55.1"><feColorMatrix values="1 0 0 0 0 0 1 0 0 0 0 0 1 0 0 0 0 0 1 0"/></filter></defs><mask maskUnits="userSpaceOnUse" x="376" y="153.5" width="27.5" height="55.1" id="SVGID_11_"><g style="filter:url(#Adobe_OpacityMaskFilter_5_)"><linearGradient id="SVGID_12_" gradientUnits="userSpaceOnUse" x1="-296.709" y1="601.923" x2="-329.256" y2="579.489" gradientTransform="translate(707.17 -406.623)"><stop offset="0" style="stop-color:#000"/><stop offset="1" style="stop-color:#fff"/></linearGradient><path style="fill:url(#SVGID_12_)" d="M376 153.5h27.5v55.1H376z"/></g></mask><path d="M403.5 156.9c-20.9-8.5-29.9-.9-26.9 22.9-1 8.7 2.2 16.7 9.7 24.1.7 1.9 2 3.5 3.5 4.8-1.4-2.5 4.7-4 .4-11.2-3.8-6.3-12.3-13.2-4.1-24.4 7.2-3.7 13.3-9.3 17.4-16.2z" style="mask:url(#SVGID_11_);fill-rule:evenodd;clip-rule:evenodd;fill:#ec630e"/><path class="st29" d="M402.3 170.1c1.5-.8 3.1-1.2 4.8-1.3 1.7-.1 3.3.3 4.9 1 .4.2.9 0 1.1-.4.2-.4 0-.9-.4-1.1-1.8-.8-3.7-1.2-5.6-1.2-1.9.1-3.8.6-5.5 1.5-.4.2-.5.7-.3 1.1.1.4.6.6 1 .4zM382.1 170.3c1.5-.9 3.1-1.3 4.7-1.4 1.7-.1 3.3.2 4.9.9.4.2.9 0 1.1-.4.2-.4 0-.9-.4-1.1-1.8-.8-3.7-1.1-5.6-1-1.9.1-3.8.7-5.5 1.7-.4.2-.5.7-.3 1.1.2.3.7.5 1.1.2z"/><path class="st9" d="M408.2 177.7c.5 0 .9-.4.9-.9v-.5c0-.5-.4-.9-.9-.9s-.9.4-.9.9v.5c0 .4.4.9.9.9zM386.9 177.8c.5 0 .9-.4.9-.9v-.5c0-.5-.4-.9-.9-.9s-.9.4-.9.9v.5c0 .4.4.9.9.9z"/><path class="st4" d="M390.5 173.8c0-.9-.7-1.6-1.6-1.6-.9 0-1.6.7-1.6 1.6 0 .9.7 1.6 1.6 1.6.8 0 1.6-.7 1.6-1.6zM412.3 173.7c0-.9-.7-1.6-1.6-1.6-.9 0-1.6.7-1.6 1.6 0 .9.7 1.6 1.6 1.6.9 0 1.6-.7 1.6-1.6z"/><path d="M397.5 195.7c1.4 0 2.9-.3 4.2-.9 1.3-.6 2.5-1.4 3.5-2.4.3-.3.3-.8 0-1.1-.3-.3-.8-.3-1.1 0-.9.9-1.9 1.6-3 2.1s-2.3.7-3.6.7c-1.2 0-2.5-.2-3.6-.7-1.1-.5-2.1-1.1-3-2-.3-.3-.8-.3-1.1 0-.3.3-.3.8 0 1.1 1 1 2.2 1.8 3.6 2.4 1.2.5 2.6.8 4.1.8z" style="fill:#ae0300"/><defs><filter id="Adobe_OpacityMaskFilter_6_" filterUnits="userSpaceOnUse" x="375.6" y="175.6" width="15.1" height="11.5"><feColorMatrix values="1 0 0 0 0 0 1 0 0 0 0 0 1 0 0 0 0 0 1 0"/></filter></defs><mask maskUnits="userSpaceOnUse" x="375.6" y="175.6" width="15.1" height="11.5" id="SVGID_13_"><g style="filter:url(#Adobe_OpacityMaskFilter_6_)"><linearGradient id="SVGID_14_" gradientUnits="userSpaceOnUse" x1="-314.398" y1="621.045" x2="-332.286" y2="617.637" gradientTransform="translate(706.525 -438.007)"><stop offset="0" style="stop-color:#000"/><stop offset="1" style="stop-color:#fff"/></linearGradient><path style="fill:url(#SVGID_14_)" d="M375.6 175.6h15.1v11.5h-15.1z"/></g></mask><path d="M382.9 186.9c2.9.5 5.8-.5 7.8-2.7-2.3 1.2-5.1 1.1-7.4-.1-2.3-1.2-4-3.4-4.4-6-2.2-1.7-3.3-2.6-3.3-2.6s.3 1.4 1 4.1c-.1.7-.1 1.4-.2 2.2 1.2 2.8 3.6 4.7 6.5 5.1z" style="mask:url(#SVGID_13_);fill-rule:evenodd;clip-rule:evenodd;fill:#ae0300"/><path d="M375.5 161c-.1.2-.1.3-.2.5-.1.4-.3.8-.5 1.2-.1.2-.1.3-.2.5-.7 1.4-1.9 2.5-3.5 3 .5 4.4 2.2 8.9 4.6 13 .6 1.1 1.7.6 1.4-.4-1.3-4.3-.5-9 2.2-12.6 9.8-.2 19.1-4.2 26.1-11.2 4.4.9 8.2 3.6 10.4 7.5 1.3 2.2 2.1 4.6 2.1 7.1.1 2.6-.3 4.4-.5 5.6-.4 4.7 1 2.9 2.3-.3 3.3-7.9 3.8-26.8-5.7-29.8-11.1-15-28.3-9.7-37.8-2.7 1.5 1.6 1.9 4 .9 6.1l-.3.6c-.2.4-.5.8-.8 1.3l-.3.7c-.3.5-.6.9-.9 1.4-.1.1-.1.2-.2.3-.1.2-.2.4-.3.5h.1l-.6.9c2 1.3 2.9 3.9 2.1 6.2l-.4.6z" style="fill-rule:evenodd;clip-rule:evenodd;fill:#2e1a04"/><defs><filter id="Adobe_OpacityMaskFilter_7_" filterUnits="userSpaceOnUse" x="371" y="135.4" width="30.3" height="44.3"><feColorMatrix values="1 0 0 0 0 0 1 0 0 0 0 0 1 0 0 0 0 0 1 0"/></filter></defs><mask maskUnits="userSpaceOnUse" x="371" y="135.4" width="30.3" height="44.3" id="SVGID_15_"><g style="filter:url(#Adobe_OpacityMaskFilter_7_)"><linearGradient id="SVGID_16_" gradientUnits="userSpaceOnUse" x1="-304.102" y1="593.091" x2="-319.693" y2="614.372" gradientTransform="translate(699.91 -448.686)"><stop offset="0" style="stop-color:#000"/><stop offset="1" style="stop-color:#fff"/></linearGradient><path style="fill:url(#SVGID_16_)" d="M371 135.4h30.3v44.3H371z"/></g></mask><path d="M372.9 163.7c-.2.4-.5.7-.8 1.1l-.4.4-.6.9c.5 4.5 2.2 9 4.6 13 .6 1.1 1.7.6 1.4-.4-1.3-4.3-.5-9 2.2-12.6.8 0 1.7-.1 2.5-.1-1.3-5.2-.9-10.8 1.5-16.1 3.5-7.6 10.4-12.5 18.1-13.8-7-1.8-14.3.1-20.2 3.2.3.6.4 1.3.4 2.1v.2c0 .9-.2 1.8-.6 2.5l-.1.2c-.3.6-.7 1.1-1.1 1.5l-.2.2-.1.2c-.3.5-.7 1-1.2 1.4l-.2.5c-.3.7-.8 1.3-1.2 2l-.4.7v.8c0 1.8-.9 3.4-2.3 4.4.7.9 1.2 2.1 1.2 3.4-.3 1.7-1.1 3.3-2.5 4.3z" style="mask:url(#SVGID_15_);fill-rule:evenodd;clip-rule:evenodd;fill:#0b0200"/><path class="st6" d="M402.7 183c1.5 1.5 3.5 2.3 5.7 2.3s4.2-.9 5.7-2.4c1.4-1.4 2.2-3.3 2.3-5.4l5.3-4.7c.3-.2.3-.6.1-.9-.2-.3-.6-.3-.9-.1l-4.6 4c-.3-1.8-1.1-3.3-2.3-4.5-1.5-1.5-3.5-2.3-5.7-2.3s-4.2.9-5.7 2.4c-.9.9-1.6 2.1-2 3.3-.3-.2-.5-.5-.8-.6-.7-.4-1.5-.7-2.4-.7-.9 0-1.7.3-2.4.7-.3.2-.6.5-.9.7-.4-1.3-1.1-2.5-2.1-3.4-1.5-1.5-3.5-2.3-5.7-2.3s-4.2.9-5.7 2.4c-1.4 1.4-2.2 3.2-2.3 5.3l-4.7-4.1c-.3-.2-.6-.2-.9.1-.2.3-.2.6.1.9l5.6 4.8c.3 1.7 1.1 3.3 2.3 4.5 1.5 1.5 3.5 2.3 5.7 2.3s4.2-.9 5.7-2.4 2.3-3.5 2.3-5.7v-.7c.3-.6.7-1 1.2-1.3.5-.3 1.1-.5 1.8-.5.6 0 1.2.2 1.8.5.5.3.9.7 1.1 1.2v.8c0 2.4.9 4.4 2.4 5.8zm.8-10.5c1.2-1.2 2.9-2 4.8-2s3.6.7 4.9 2c1.2 1.2 2 2.9 2 4.8v.2c0 1.8-.8 3.5-2 4.7a6.8 6.8 0 0 1-4.8 2c-1.9 0-3.6-.7-4.9-2a6.8 6.8 0 0 1-2-4.8c0-2 .8-3.7 2-4.9zm-12.2 9.7a6.8 6.8 0 0 1-4.8 2c-1.9 0-3.6-.7-4.9-2a6.8 6.8 0 0 1-2-4.8c0-1.9.7-3.6 2-4.9 1.2-1.2 2.9-2 4.8-2s3.6.7 4.9 2c1.2 1.2 2 2.9 2 4.8-.1 2-.8 3.7-2 4.9z"/><path d="M395.1 187.2c.3 1 1.2 1.7 2.2 1.7 1 0 1.9-.7 2.2-1.8.4.2.8.2 1.2.1 1.3-.3 2.3-1.6 2.3-3.1 0-1.4-1.1-2.4-2.4-2.1-.1 0-.3.1-.4.1l-.2-1.1c-.2-1.2-.4-2.3-.6-3.5-.1-.5-.4-.9-.7-1.2-.4-.3-.8-.5-1.3-.5s-.9.2-1.3.5-.6.7-.7 1.2c-.2 1.2-.4 2.3-.6 3.5l-.2 1.4c-.3-.2-.6-.3-.9-.3-1.3-.3-2.3.7-2.3 2.1 0 1.4 1.1 2.8 2.4 3 .6.2 1 .1 1.3 0z" style="fill-rule:evenodd;clip-rule:evenodd;fill:#e65b03"/><path class="st4" d="M421.5 163c1.1.6 1.5.4 1.6-.9 1.5-21.1-10.5-30.7-30.8-29.5 16.4 17 24.2 25.9 23.4 26.6 1.6 1.1 3.5 2.3 5.8 3.8z"/><path class="st10" d="M414.3 144.6c-6.4-17.4-35.8-14.7-41.9.3-1.8 4.4-2.1 10-.8 16.8 23.3-2.9 37.6.5 44.6-3.8.1-5.3-.6-9.7-1.9-13.3z"/><path d="M415.3 157.9c-13.9-11.3-43.5-10.9-46.4 12.4 8-8 19.1-9.9 33.2-5.7 7.2 2.2 11.6 0 13.2-6.7z" style="fill-rule:evenodd;clip-rule:evenodd;fill:#a671f4"/><path d="M370.4 171.1c4.3-5.1 8.9-7.2 13.5-7.8 4.6-.6 9.2.3 13.3 1.4.9.2 1.6.4 2.2.6 2.1.6 4 1.1 5.7 1.3 3.5.5 5.8-.3 7.6-1.8 1.7-1.5 2.8-3.5 3.9-5.6.2-.4 0-1-.4-1.2-.4-.2-1 0-1.2.4-1 2-2 3.9-3.4 5.1-1.4 1.2-3.3 1.8-6.2 1.4-1.6-.2-3.5-.7-5.5-1.3-.8-.2-1.6-.4-2.2-.6-4.3-1.1-9.1-2.1-14-1.4-5 .7-10 3-14.6 8.4-.3.4-.3.9.1 1.3.3.2.9.2 1.2-.2z" style="fill:#3f2294"/><defs><filter id="Adobe_OpacityMaskFilter_8_" filterUnits="userSpaceOnUse" x="396.5" y="352.5" width="44.2" height="28.9"><feColorMatrix values="1 0 0 0 0 0 1 0 0 0 0 0 1 0 0 0 0 0 1 0"/></filter></defs><mask maskUnits="userSpaceOnUse" x="396.5" y="352.5" width="44.2" height="28.9" id="SVGID_17_"><g style="filter:url(#Adobe_OpacityMaskFilter_8_)"><linearGradient id="SVGID_18_" gradientUnits="userSpaceOnUse" x1="-339.682" y1="541.577" x2="-309.185" y2="512.665" gradientTransform="translate(737.054 -154.473)"><stop offset="0" style="stop-color:#000"/><stop offset="1" style="stop-color:#fff"/></linearGradient><path style="fill:url(#SVGID_18_)" d="M396.5 352.5h44.2v28.9h-44.2z"/></g></mask><path d="M420.1 356.7c-15.7 16.5-23.6 24.7-23.6 24.7 14.6-.5 29.2-2.6 43.4-6.2.5-9.8.8-14.7.8-14.7-2.8-9.2-9.7-10.5-20.6-3.8z" style="mask:url(#SVGID_17_);fill-rule:evenodd;clip-rule:evenodd;fill:#190063"/><defs><filter id="Adobe_OpacityMaskFilter_9_" filterUnits="userSpaceOnUse" x="338.3" y="335.6" width="51.3" height="41.1"><feColorMatrix values="1 0 0 0 0 0 1 0 0 0 0 0 1 0 0 0 0 0 1 0"/></filter></defs><mask maskUnits="userSpaceOnUse" x="338.3" y="335.6" width="51.3" height="41.1" id="SVGID_19_"><g style="filter:url(#Adobe_OpacityMaskFilter_9_)"><linearGradient id="SVGID_20_" gradientUnits="userSpaceOnUse" x1="-317.463" y1="540.226" x2="-275.441" y2="507.666" gradientTransform="translate(652.211 -161.455)"><stop offset="0" style="stop-color:#000"/><stop offset="1" style="stop-color:#fff"/></linearGradient><path style="fill:url(#SVGID_20_)" d="M338.3 335.6h51.3v41.1h-51.3z"/></g></mask><path d="M389.7 337.4c-17-2.2-34.3-2.4-51.3-.5 1.3 26.2 1.9 39.4 1.9 39.4.8.2 1.5.3 2.3.5 0-.1 15.7-13.2 47.1-39.4z" style="mask:url(#SVGID_19_);fill-rule:evenodd;clip-rule:evenodd;fill:#190063"/><path d="M369.7 236.2v100.9l19.9.3s0-33.9-.1-101.8l-19.8.6z" style="fill-rule:evenodd;clip-rule:evenodd;fill:#ff9719"/><path class="st48" d="M389.4 235.6s-12.3.4-37 1.2c-12.2-4.2-25.3-3.4-38 3.1 0 0-7.9 0-22.2-.7-.4 10.8-.7 16.1-.7 16.1-9.3 53.8-13.9 80.7-13.9 80.7 66.7.9 100.1 1.3 100.1 1.3l11.7-101.7z"/><defs><filter id="Adobe_OpacityMaskFilter_10_" filterUnits="userSpaceOnUse" x="282.7" y="239.3" width="94.5" height="93.8"><feColorMatrix values="1 0 0 0 0 0 1 0 0 0 0 0 1 0 0 0 0 0 1 0"/></filter></defs><mask maskUnits="userSpaceOnUse" x="282.7" y="239.3" width="94.5" height="93.8" id="SVGID_21_"><g style="filter:url(#Adobe_OpacityMaskFilter_10_)"><linearGradient id="SVGID_22_" gradientUnits="userSpaceOnUse" x1="-220.943" y1="547.196" x2="-283.183" y2="436.16" gradientTransform="translate(571.068 -224.967)"><stop offset="0" style="stop-color:#000"/><stop offset="1" style="stop-color:#fff"/></linearGradient><path style="fill:url(#SVGID_22_)" d="M282.7 239.3h94.5v93.8h-94.5z"/></g></mask><path d="M377.2 239.3c-30.6 1.3-45.8 1.9-45.8 1.9-23.5.8-35.3 1.2-35.3 1.2-.6 8.5-.8 12.8-.8 12.8-8.4 51.4-12.5 77.2-12.5 77.2 15.9.5 23.8.8 23.8.8l13.8-63.9c-.1-.1 18.8-10.1 56.8-30z" style="mask:url(#SVGID_21_);fill-rule:evenodd;clip-rule:evenodd;fill:#ff920d"/><defs><filter id="Adobe_OpacityMaskFilter_11_" filterUnits="userSpaceOnUse" x="310.6" y="241.6" width="33.6" height="13.2"><feColorMatrix values="1 0 0 0 0 0 1 0 0 0 0 0 1 0 0 0 0 0 1 0"/></filter></defs><mask maskUnits="userSpaceOnUse" x="310.6" y="241.6" width="33.6" height="13.2" id="SVGID_23_"><g style="filter:url(#Adobe_OpacityMaskFilter_11_)"><linearGradient id="SVGID_24_" gradientUnits="userSpaceOnUse" x1="-307.79" y1="599.678" x2="-279.063" y2="584.581" gradientTransform="translate(611.802 -339.174)"><stop offset="0" style="stop-color:#000"/><stop offset="1" style="stop-color:#fff"/></linearGradient><path style="fill:url(#SVGID_24_)" d="M310.6 241.6h33.6v13.2h-33.6z"/></g></mask><path d="M325.2 254.7c1.6.4 3.4 0 4.7-1 2.4.9 5.1.2 6.8-1.7 4.2-.4 7.5-3.9 7.5-8.1 0 0-8.3-.7-25-2.2 0 0-2.8.1-8.5.3 0 0 3.6 3.2 10.9 9.6.6 1.5 2 2.6 3.6 3.1z" style="mask:url(#SVGID_23_);fill-rule:evenodd;clip-rule:evenodd;fill:#f75f13"/><path class="st14" d="M337.6 229.8c-1-1.1-2.5-1.8-4.1-1.7-1.5.1-3 .8-3.9 2.1-2.4-.9-5.1-.1-6.6 1.9-2.3-.5-4.7.7-5.6 2.9 0 0-1 1.6-3 4.9 2.3 0 3.5-.1 3.5-.1 1.3 1.6 3.4 4.3 4.7 5.8 1.5 1.7 3.2 2.7 4.5-.2 0 4.3 2.5 7.7 5.4 3.7 1.6 3.6 4.7 1.6 5.7-2.4 1.1 4.1 3.7 1.8 5.2-1.2.7-1.3 1.3-2.8 1.8-3.7.7-1.4 1.4-3 2.4-4.9 0 0 1.7-.1 5.2-.2 0 0 0-2.3.1-6.8.4-1.5-.4-2-2.5-1.5-2.1.4-3.5 2.4-3.1 4.5 0 0-1-1.1-3-3.4-2.2-1.3-4.9-1.2-6.7.3z"/><path class="st55" d="M324.3 233.3c-.1-.3-.5-.4-.7-.3-.3.1-.4.5-.3.7l2.2 4.6.9 7.2c0 .3.3.5.6.5s.5-.3.5-.6l-.9-7.3v-.2l-2.3-4.6zM338 247.3c.3.1.6-.1.7-.4l2.3-9.8v-.3l-1.6-4.9c-.1-.3-.4-.5-.7-.4-.3.1-.5.4-.4.7l1.5 4.8-2.2 9.7c-.1.2.1.5.4.6zM332.4 249.7c.3 0 .6-.2.6-.5l1.1-11.6c0-.1 0-.2-.1-.3l-2.8-5.6c-.1-.3-.5-.4-.8-.3-.3.1-.4.5-.3.8l2.7 5.4-1 11.4c0 .4.2.7.6.7zM347.2 237.6c.3.1.6 0 .7-.3.3-.7.4-1.5.3-2.2-.1-.8-.3-1.5-.7-2.3-.1-.3-.5-.4-.8-.2-.3.1-.4.5-.2.8.3.7.5 1.3.6 1.9.1.6 0 1.2-.3 1.7 0 .2.1.5.4.6z"/><path class="st4" d="M370.2 305.6c1.2 0 2.2-1 2.2-2.2 0-1.2-1-2.2-2.2-2.2h-58.8c-1.2 0-2.2 1-2.2 2.2 0 1.2 1 2.2 2.2 2.2h58.8zM340.4 271.4c-15.8 0-28.7 12.6-29 28.4h58c-.3-15.7-13.2-28.4-29-28.4z"/><path class="st48" d="M329.1 306.7c0-4.2-3.4-7.6-7.6-7.6s-7.6 3.4-7.6 7.6c0 4.2 3.4 7.6 7.6 7.6s7.6-3.3 7.6-7.6z"/><path class="st4" d="M327.9 306.7c0-3.6-2.9-6.4-6.4-6.4-3.6 0-6.4 2.9-6.4 6.4 0 3.6 2.9 6.4 6.4 6.4 3.5.1 6.4-2.8 6.4-6.4z"/><path class="st48" d="M324.9 306.7c0-1.9-1.6-3.5-3.5-3.5s-3.5 1.6-3.5 3.5 1.6 3.5 3.5 3.5c2 0 3.5-1.5 3.5-3.5z"/><path class="st4" d="M322.9 306.7c0-.8-.6-1.4-1.4-1.4-.8 0-1.4.6-1.4 1.4 0 .8.6 1.4 1.4 1.4.8.1 1.4-.6 1.4-1.4z"/><path class="st48" d="M358.7 314.4c4.2 0 7.6-3.4 7.6-7.6 0-4.2-3.4-7.6-7.6-7.6-4.2 0-7.6 3.4-7.6 7.6 0 4.2 3.4 7.6 7.6 7.6z"/><path class="st4" d="M358.7 313.2c3.6 0 6.4-2.9 6.4-6.4 0-3.6-2.9-6.4-6.4-6.4-3.6 0-6.4 2.9-6.4 6.4 0 3.5 2.9 6.4 6.4 6.4z"/><path class="st48" d="M362.2 306.7c0-1.9-1.6-3.5-3.5-3.5s-3.5 1.6-3.5 3.5 1.6 3.5 3.5 3.5 3.5-1.5 3.5-3.5z"/><path class="st4" d="M360.2 306.7c0-.8-.6-1.4-1.4-1.4-.8 0-1.4.6-1.4 1.4 0 .8.6 1.4 1.4 1.4.7.1 1.4-.6 1.4-1.4zM341.6 270.4v-2.3c1.2-.5 2-1.7 2-3.1 0-1.8-1.5-3.3-3.3-3.3-1.8 0-3.3 1.5-3.3 3.3 0 1.4.8 2.6 2.1 3.1v2.3h2.5zM315.4 278.8c.6 0 1-.5 1-1s-.5-1-1-1h-19c-.6 0-1 .5-1 1s.5 1 1 1h19zM310 284.9c.6 0 1-.5 1-1s-.5-1-1-1h-7.8c-.6 0-1 .5-1 1s.5 1 1 1h7.8zM308.2 291.8c.6 0 1-.5 1-1 0-.6-.5-1-1-1H299c-.6 0-1 .5-1 1 0 .6.5 1 1 1h9.2zM306.3 298.2c.6 0 1-.5 1-1s-.5-1-1-1H301c-.6 0-1 .5-1 1s.5 1 1 1h5.3z"/><defs><filter id="Adobe_OpacityMaskFilter_12_" filterUnits="userSpaceOnUse" x="457.6" y="251.7" width=".5" height="1.8"><feColorMatrix values="1 0 0 0 0 0 1 0 0 0 0 0 1 0 0 0 0 0 1 0"/></filter></defs><mask maskUnits="userSpaceOnUse" x="457.6" y="251.7" width=".5" height="1.8" id="SVGID_25_"><g style="filter:url(#Adobe_OpacityMaskFilter_12_)"><linearGradient id="SVGID_26_" gradientUnits="userSpaceOnUse" x1="-388.717" y1="517.639" x2="-304.18" y2="482.762" gradientTransform="translate(765.996 -205.065)"><stop offset="0" style="stop-color:#000"/><stop offset="1" style="stop-color:#fff"/></linearGradient><path style="fill:url(#SVGID_26_)" d="M416.3 217.3h70.1v129.5h-70.1z"/></g></mask><path d="M457.6 253.5c.2-.6.3-1.2.5-1.8-.2.6-.3 1.2-.5 1.8z" style="mask:url(#SVGID_25_);fill-rule:evenodd;clip-rule:evenodd;fill:#7657d4"/><defs><filter id="Adobe_OpacityMaskFilter_13_" filterUnits="userSpaceOnUse" x="416.3" y="217.3" width="70.1" height="129.5"><feColorMatrix values="1 0 0 0 0 0 1 0 0 0 0 0 1 0 0 0 0 0 1 0"/></filter></defs><mask maskUnits="userSpaceOnUse" x="416.3" y="217.3" width="70.1" height="129.5" id="SVGID_27_"><g style="filter:url(#Adobe_OpacityMaskFilter_13_)"><linearGradient id="SVGID_28_" gradientUnits="userSpaceOnUse" x1="-388.717" y1="517.639" x2="-304.18" y2="482.762" gradientTransform="translate(765.996 -205.065)"><stop offset="0" style="stop-color:#000"/><stop offset="1" style="stop-color:#fff"/></linearGradient><path style="fill:url(#SVGID_28_)" d="M416.3 217.3h70.1v129.5h-70.1z"/></g></mask><path d="M416.7 315.2c1.8 14.5 12.1 27.4 28.5 31.6l.6-7.5 3.9-51.3c.4-5.8.8-10.1 1-13.1.6-.2.9-.4.9-.4.4-.1 2.4-7.1 6-21.1.1-.6.3-1.2.5-1.8-.2.6-.3 1.2-.5 1.8-.9 4.4.3 9 3.2 12.4 3.3 3.9 8.4 5.9 13.5 5.1 4.6-3.3 8.7-7.4 12-12-2.6-4.6-5.9-10-9.8-16.1-2-3.1-4.5-6.4-7.6-10.1-4-4.6-7.9-8-12-10.3-3.9-2.3-8.9-4.1-15.1-5.2-2.9 4.8 10.2 16.7 8.5 33.1-2.5 26.7-37.8 31.3-33.6 64.9z" style="mask:url(#SVGID_27_);fill-rule:evenodd;clip-rule:evenodd;fill:#a671f4"/><path d="M449.8 273.4c-.2.6 0 1.2.6 1.5.6.2 1.2 0 1.5-.6 2.9-6.6 4.9-13.5 6-20.5 1.1-7 1.2-14.2.4-21.3-.1-.6-.6-1.1-1.2-1-.6.1-1.1.6-1 1.2.8 6.9.7 13.9-.4 20.7-1.1 6.9-3.1 13.6-5.9 20z" style="fill:#4c0bb2"/><path class="st14" d="M420.3 357.9c.4.7 1.3 1 2.1.8 8.7-5.1 13.1-7.7 13.1-7.7-3.4 3-5.2 4.5-5.2 4.5-1.4 1.6-7.1 7.6-7.7 9-.3.9-.3 1.8.6 2.6.8.8 2 .9 3 .3-2.4 2.5-1.7 4.2-.4 4.8 2.5 1.1 10.3-5.6 13.1-7.6-1.4 1.4-6.3 4.5-4 6.8.7.6 1.6.5 2.7.1 2.2-1 10.5-6.6 13-8.5l7.6-2.6c2.9-1 6.6-4.3 8.2-10.2 7.6-11.1 13.9-21.1 19-29.9 4.8-8.4 10-18.7 12-27.6 2.8-12.9-5.3-22.5-11.1-33.5-7.2 10-17.7 17.1-29.7 20l11 11.5-16.5 48.6c-3.4-2-5.2-3-5.2-3-.2 2.1-.2 3.1-.2 3.1-9.7 4.2-14.2 6.2-13.3 6.1-7.9 6.8-11.9 10.2-11.9 10.2-.5.5-.6 1.5-.2 2.2z"/><path class="st55" d="m429.7 371.9 8.9-6.2.6-.4.1-.1 5.6-3.4c.3-.2.4-.6.2-.9-.2-.3-.6-.4-.9-.2l-5.6 3.4-.1.1-.6.4-8.9 6.2c-.3.2-.4.6-.2.9.2.4.6.4.9.2zM425.8 366.9c-.3.2-.3.7-.1.9.2.3.7.3.9.1l8.7-7.7 5.8-3.9c.3-.2.4-.6.2-.9-.2-.3-.6-.4-.9-.2l-5.8 4-.1.1-8.7 7.6zM429.6 355.5c-1 1-3.1 3.3-6.3 6.9-.2.3-.2.7.1.9.3.2.7.2.9-.1 3.1-3.5 5.3-5.8 6.3-6.8l.4-.4h.1c3.2-2.8 4.7-4.2 4.9-4.4.2-.2.3-.6.1-.9-.2-.3-.6-.4-.9-.2l-12.8 7.5c-.3.2-.4.6-.2.9.2.3.6.4.9.2l7.1-4.1h-.2c-.1.1-.2.3-.4.5z"/><defs><filter id="Adobe_OpacityMaskFilter_14_" filterUnits="userSpaceOnUse" x="452.8" y="259" width="33.6" height="81.2"><feColorMatrix values="1 0 0 0 0 0 1 0 0 0 0 0 1 0 0 0 0 0 1 0"/></filter></defs><mask maskUnits="userSpaceOnUse" x="452.8" y="259" width="33.6" height="81.2" id="SVGID_29_"><g style="filter:url(#Adobe_OpacityMaskFilter_14_)"><linearGradient id="SVGID_30_" gradientUnits="userSpaceOnUse" x1="-332.17" y1="566.325" x2="-357.613" y2="489.988" gradientTransform="translate(819.124 -214.566)"><stop offset="0" style="stop-color:#000"/><stop offset="1" style="stop-color:#fff"/></linearGradient><path style="fill:url(#SVGID_30_)" d="M452.8 259h33.6v81.2h-33.6z"/></g></mask><path d="M454.5 340s10.6-27 31.9-80.9c-6.9 9.5-16 16-27.3 19.4l10.5 10.8s-5.6 17-16.8 51.1c0-.2.5-.2 1.7-.4z" style="mask:url(#SVGID_29_);fill-rule:evenodd;clip-rule:evenodd;fill:#f75f13"/><path class="st55" d="M474.5 288.8c2-1.3 3.7-3.1 5-5.2.3-.4.1-1-.3-1.2-.4-.3-1-.1-1.2.3-1.1 1.9-2.7 3.4-4.4 4.6-1.8 1.2-3.8 2-6 2.4-.5.1-.8.5-.7 1s.5.8 1 .7c2.4-.4 4.6-1.3 6.6-2.6z"/><defs><filter id="Adobe_OpacityMaskFilter_15_" filterUnits="userSpaceOnUse" x="459.8" y="268.3" width="38.2" height="87.4"><feColorMatrix values="1 0 0 0 0 0 1 0 0 0 0 0 1 0 0 0 0 0 1 0"/></filter></defs><mask maskUnits="userSpaceOnUse" x="459.8" y="268.3" width="38.2" height="87.4" id="SVGID_31_"><g style="filter:url(#Adobe_OpacityMaskFilter_15_)"><linearGradient id="SVGID_32_" gradientUnits="userSpaceOnUse" x1="-380.047" y1="510.248" x2="-339.513" y2="501.733" gradientTransform="translate(829.436 -192.03)"><stop offset="0" style="stop-color:#000"/><stop offset="1" style="stop-color:#fff"/></linearGradient><path style="fill:url(#SVGID_32_)" d="M459.8 268.3H498v87.4h-38.2z"/></g></mask><path d="M463.9 355.7c1.2-1.7 2.1-3.6 2.6-5.6 2.1-3.1 4.6-6.7 7.4-11.1 8.1-12.3 14.4-23.1 18.6-32.2 2-4.2 3.6-8.7 4.8-13.5.8-3 .9-6.5.3-10.5-.8-4.3-2.8-9.2-6-14.5-12.3 8.9 2.5 20.7-5.1 36.4-8.7 18.2-37.1 24.9-22.6 51z" style="mask:url(#SVGID_31_);fill-rule:evenodd;clip-rule:evenodd;fill:#ffd18c"/><path class="st4" d="M352.8 150.2c0-.7-.5-1.2-1.2-1.2s-1.2.5-1.2 1.2.5 1.2 1.2 1.2 1.2-.5 1.2-1.2zM433.1 192.1c0-.7-.5-1.2-1.2-1.2s-1.2.5-1.2 1.2.5 1.2 1.2 1.2c.6 0 1.2-.5 1.2-1.2zM444.3 174.1c0-.9-.8-1.7-1.7-1.7-.9 0-1.7.8-1.7 1.7s.8 1.7 1.7 1.7c.9 0 1.7-.8 1.7-1.7zM467.7 217.3c0-.7-.5-1.2-1.2-1.2s-1.2.5-1.2 1.2.5 1.2 1.2 1.2c.6 0 1.2-.5 1.2-1.2zM440.4 232.7c0-.7-.5-1.2-1.2-1.2s-1.2.5-1.2 1.2.5 1.2 1.2 1.2 1.2-.5 1.2-1.2zM375.9 226.4c0-.5-.4-.9-.9-.9s-.9.4-.9.9.4.9.9.9.9-.4.9-.9zM375.9 248.8c0-.4-.3-.6-.6-.6-.4 0-.6.3-.6.6s.3.6.6.6c.3.1.6-.2.6-.6zM422.3 292.5c0-.4-.3-.6-.6-.6-.4 0-.6.3-.6.6 0 .4.3.6.6.6.3.1.6-.2.6-.6zM317.4 186.3c0-.5-.4-.9-.9-.9s-.9.4-.9.9.4.9.9.9.9-.4.9-.9zM283.7 172.6c0-.5-.4-.9-.9-.9s-.9.4-.9.9.4.9.9.9.9-.4.9-.9z"/><circle class="st4" cx="379.7" cy="286.5" r="1.2"/><path class="st4" d="M476.6 168.3c0-.5-.4-.9-.9-.9s-.9.4-.9.9.4.9.9.9.9-.4.9-.9zM500.7 254.6c0-.9-.8-1.7-1.7-1.7-.9 0-1.7.8-1.7 1.7 0 .9.8 1.7 1.7 1.7 1 0 1.7-.8 1.7-1.7zM313.2 254.5c0-.9-.8-1.7-1.7-1.7s-1.7.8-1.7 1.7c0 .9.8 1.7 1.7 1.7s1.7-.7 1.7-1.7zM395.3 371.8c0-.9-.8-1.7-1.7-1.7-.9 0-1.7.8-1.7 1.7 0 .9.8 1.7 1.7 1.7.9 0 1.7-.8 1.7-1.7zM414.2 348.7c0-.6-.5-1-1-1-.6 0-1 .5-1 1 0 .6.5 1 1 1s1-.4 1-1zM460.7 338.8c0-.6-.5-1-1-1-.6 0-1 .5-1 1 0 .6.5 1 1 1 .5.1 1-.4 1-1zM340.3 209.5c0-.9-.8-1.7-1.7-1.7s-1.7.8-1.7 1.7.8 1.7 1.7 1.7 1.7-.8 1.7-1.7zM90.4 68.1h117v5.5h-117zM176.7 114.8h117v5.5h-117z"/><path class="st4" d="M205.4 68.1h5.4v48h-5.4zM176.7 114.8h4.9v56.4h-4.9z"/><path class="st4" d="M90.4 169.2h117v5.5h-117z"/><path class="st4" d="M205.4 149.6h5.4v60.9h-5.4z"/><path class="st69" d="M277 125h9.4v7.9H277zM264.3 125h9.4v7.9h-9.4zM251.9 125h9.4v7.9h-9.4zM239.2 125h9.4v7.9h-9.4zM277 135.7h9.4v7.9H277zM264.3 135.7h9.4v7.9h-9.4zM251.9 157.4h9.4v7.9h-9.4zM239.2 157.4h9.4v7.9h-9.4zM277 168.1h9.4v7.9H277zM264.3 168.1h9.4v7.9h-9.4zM239.2 168.1h9.4v7.9h-9.4zM270.1 70.3h13.8v11.5h-13.8zM235.7 55.8h31.1v26h-31.1zM100.1 78.9h100.8v6.6H100.1zM100.1 89.3H112v7.2h-11.9zM117.3 89.3h11.9v7.2h-11.9zM134.5 89.3h11.9v7.2h-11.9zM186.9 183.8H201v11.8h-14.1zM166.4 183.8h14.1v11.8h-14.1zM146 183.8h14.1v11.8H146zM125.6 183.8h14.1v11.8h-14.1z"/><path class="st10" d="M92.3 101h138.4v5.5H92.3z"/><path class="st10" d="M225 51.1h5.7V168H225z"/><path class="st10" d="M170.5 126.6h60.2v5.5h-60.2zM229.2 86.6h61.6v5.5h-61.6zM226.3 142.4 126.8 170v5.6l100.9-27.9z"/><path class="st10" d="M169 104.5h5.7V132H169zM260 30.3c-7.9 0-14.3 6.4-14.3 14.3 0 .7 0 1.4.1 2 .1 1.4.4 2.9 1 4.4 1.6 4 4.3 7.5 6.7 10.1 2.3 2.5 4.3 4.2 6.4 4.2 2 0 4-1.7 6.3-4.2 2.4-2.7 5.1-6.2 6.7-10.1.1-.4.3-.7.4-1.1.7-1.6 1-3.4 1-5.3 0-7.9-6.4-14.3-14.3-14.3zm0 20.1c-3.2 0-5.7-2.6-5.7-5.7 0-3.2 2.6-5.7 5.7-5.7 3.2 0 5.7 2.6 5.7 5.7s-2.6 5.7-5.7 5.7z"/><path class="st7" d="M146.1 123.7c-7.9 0-14.3 6.4-14.3 14.3 0 .7 0 1.4.1 2 .1 1.4.4 2.9 1 4.4 1.6 4 4.3 7.5 6.7 10.1 2.3 2.5 4.3 4.2 6.4 4.2 2 0 4-1.7 6.3-4.2 2.4-2.7 5.1-6.2 6.7-10.1.1-.4.3-.7.4-1.1.7-1.6 1-3.4 1-5.3 0-7.9-6.4-14.3-14.3-14.3zm0 20.1c-3.2 0-5.7-2.6-5.7-5.7 0-3.2 2.6-5.7 5.7-5.7 3.2 0 5.7 2.6 5.7 5.7s-2.6 5.7-5.7 5.7z"/></svg>