<svg version="1.1" id="Layer_1" xmlns="http://www.w3.org/2000/svg" xmlns:xlink="http://www.w3.org/1999/xlink" x="0" y="0" viewBox="0 0 600 400" style="enable-background:new 0 0 600 400" xml:space="preserve"><style>.st2,.st3,.st4,.st5{fill-rule:evenodd;clip-rule:evenodd;fill:#50d6c2}.st3,.st4,.st5{fill:#1b9e88}.st4,.st5{fill:#09705f}.st5{fill:#004d44}.st23{fill:#4c0bb2}.st24,.st25,.st26,.st33,.st34{fill-rule:evenodd;clip-rule:evenodd;fill:#a671f4}.st25,.st26,.st33,.st34{fill:#ffb06b}.st26,.st33,.st34{fill:#fff}.st33,.st34{fill:#ffb778}.st34{fill:#ff5526}.st35{fill:#c91302}.st35,.st46{fill-rule:evenodd;clip-rule:evenodd}.st47{fill:#291900}.st48{fill:#c91302}.st55{fill:#fff}.st59{fill:#ff5526}</style><path d="M385.1 6.7c-61 0-110.4 49.4-110.4 110.4 0 12.1 1.9 23.7 5.5 34.6-15.1-6.3-31.6-9.8-49-9.8-70 0-126.8 56.8-126.8 126.8s56.8 126.8 126.8 126.8S358 338.7 358 268.7c0-16.7-3.2-32.6-9.1-47.2 11.3 3.9 23.5 6.1 36.1 6.1 61 0 110.4-49.4 110.4-110.4.1-61.1-49.3-110.5-110.3-110.5z" style="fill-rule:evenodd;clip-rule:evenodd;fill:#fff8d1"/><defs><path id="SVGID_1_" d="M231.3 141.8c17.4 0 33.9 3.5 49 9.8-3.6-10.9-5.5-22.5-5.5-34.6 0-61 49.4-110.4 110.4-110.4 61 0 110.4 49.4 110.4 110.4 0 61-49.4 110.4-110.4 110.4-12.7 0-24.8-2.1-36.1-6.1 5.9 14.6 9.1 30.5 9.1 47.2 0 70-56.8 126.8-126.8 126.8s-126.8-56.8-126.8-126.8 56.7-126.7 126.7-126.7"/></defs><use xlink:href="#SVGID_1_" style="overflow:visible;fill-rule:evenodd;clip-rule:evenodd;fill:#a671f4"/><clipPath id="SVGID_2_"><use xlink:href="#SVGID_1_" style="overflow:visible"/></clipPath><g style="clip-path:url(#SVGID_2_)"><defs><path id="SVGID_3_" d="M104.5 6.7h391v388.7h-391z"/></defs><clipPath id="SVGID_4_"><use xlink:href="#SVGID_3_" style="overflow:visible"/></clipPath><g style="clip-path:url(#SVGID_4_)"><image style="overflow:visible" width="1766" height="1755" xlink:href="6D5D7332.png" transform="matrix(.2214 0 0 .2215 104.492 6.735)"/></g></g><path class="st2" d="M144.7 308.9c1.4-4.2-.3-8.9-4.1-11.2-3.8-2.3-8.7-1.6-11.8 1.7.3-5.5-2.8-10.6-7.7-13-4.9-2.4-10.8-1.6-15 2 1.4 8.7 3.6 17.3 6.8 25.5 34.5 25.2 59.7 33.2 75.6 23.8 15.8-27.1 1.2-36.7-43.8-28.8zM325.4 257.4c-6.6 1.2-12 7.1-12 13.3 0 6.2 5.4 10.3 12 9.1 6.6-1.2 12-7.1 12-13.3 0-6.2-5.3-10.2-12-9.1zM301.2 240c-5.1-.9-9.3 2.2-9.3 7s4.1 9.4 9.3 10.3c5.1.9 9.3-2.2 9.3-7s-4.2-9.4-9.3-10.3z"/><path class="st2" d="M346.9 272.4c-3 2.9-4.5 6.9-4.2 11-2.5-2.8-6.4-3.9-9.9-2.7-3.5 1.2-6 4.4-6.2 8.2-3.3-4.1-8.7-5.6-13.5-4.1v-33.6c.5 4.2 4.5 6.8 9.2 6 5.1-.9 9.3-5.5 9.3-10.3 0-4.8-4.1-7.9-9.3-7-4.7.8-8.7 4.9-9.2 9.2v-13.3c.9 2.5 3.6 4 6.8 3.4 4-.7 7.2-4.3 7.2-8s-3.2-6.1-7.2-5.4c-3.2.6-5.9 3-6.8 5.8v-8.3c.9 1.5 2.8 2.3 4.9 2 3-.5 5.5-3.3 5.5-6.1s-2.5-4.7-5.5-4.2c-2.1.4-4 1.9-4.9 3.7V213c.8.9 2 1.3 3.4 1.1 2.3-.4 4.2-2.5 4.2-4.7s-1.9-3.6-4.2-3.2c-1.4.3-2.7 1.1-3.4 2.3v-2.2c.6-.3 1.2-.9 1.7-1.6 1.2-2.1.7-4.8-.9-6.2-1.7-1.4-4-.8-5.1 1.2-1.2 2.1-.7 4.8.9 6.2.3.2.6.4.9.5v2.2c-.7-1.2-2.1-2.2-3.6-2.5-2.3-.4-4.2 1-4.2 3.2s1.9 4.3 4.2 4.7c1.5.3 2.8-.2 3.6-1.2v6.1c-.9-1.9-2.8-3.5-5-3.9-3-.5-5.5 1.3-5.5 4.2 0 2.8 2.5 5.6 5.5 6.1 2.2.4 4.2-.5 5-2.2v8.9c-.8-3-3.6-5.6-6.9-6.2-4-.7-7.2 1.7-7.2 5.4s3.2 7.3 7.2 8c3.3.6 6.1-1 6.9-3.8V286c-.1.1-.2.1-.3.2-5.4 3.3-7.6 10-5.1 15.8-1.6-1-3.6-1.3-5.5-.7-1.8.6-3.3 2-3.9 3.9 3.9 9.7 5.9 14.5 5.9 14.5 20.8-3.1 38.7-11.1 53.7-24.2 1.9-8.5 2.8-17.4 2.8-26.8-4.2-.5-8.3.9-11.3 3.7z"/><path class="st2" d="M298.1 257.4c-6.6-1.2-12 2.9-12 9.1 0 6.2 5.4 12.2 12 13.3 6.6 1.2 12-2.9 12-9.1 0-6.1-5.4-12.1-12-13.3z"/><path class="st3" d="M348.3 275.8c-4.5.8-8.2 4.9-8.2 9.1 0 4.2 3.7 7 8.2 6.2 4.5-.8 8.2-4.9 8.2-9.1 0-4.2-3.6-7-8.2-6.2zM329.6 275.8c-4.5-.8-8.2 2-8.2 6.2s3.7 8.3 8.2 9.1c4.5.8 8.2-2 8.2-6.2s-3.6-8.3-8.2-9.1zM153 283.4c-6.4 1.1-11.6 6.9-11.6 12.9s5.2 9.9 11.6 8.8c6.4-1.1 11.6-6.9 11.6-12.9s-5.2-9.9-11.6-8.8zM331.8 263.9c-3.5-.6-6.3 1.5-6.3 4.8s2.8 6.4 6.3 7c3.5.6 6.3-1.5 6.3-4.8s-2.8-6.4-6.3-7zM129.6 266.6c-4.9-.9-8.9 2.2-8.9 6.8s4 9 8.9 9.9c4.9.9 8.9-2.2 8.9-6.8s-4-9.1-8.9-9.9z"/><path class="st3" d="M348.3 293.5c-2.2 1.5-3.7 3.9-4.2 6.5-1.2-1.5-2.7-2.7-4.3-3.6v-24.9c.4 2.9 3 4.7 6.3 4.1 3.5-.6 6.3-3.8 6.3-7 0-3.3-2.8-5.4-6.3-4.8-3.2.6-5.9 3.3-6.3 6.3V261c.6 1.7 2.5 2.7 4.7 2.3 2.7-.5 4.9-2.9 4.9-5.4 0-2.5-2.2-4.2-4.9-3.7-2.2.4-4 2-4.7 4v-5.7c.6 1 1.9 1.6 3.4 1.3 2.1-.4 3.8-2.2 3.8-4.2 0-1.9-1.7-3.2-3.8-2.8-1.5.3-2.7 1.3-3.4 2.5v-3.9c.5.6 1.4.9 2.4.7 1.6-.3 2.9-1.7 2.9-3.2 0-1.5-1.3-2.5-2.9-2.2-1 .2-1.8.8-2.4 1.6v-1.5c.4-.2.8-.6 1.1-1.1.8-1.4.5-3.3-.6-4.3-1.1-.9-2.7-.6-3.5.8-.8 1.4-.5 3.3.6 4.3.2.2.4.3.6.4v1.5c-.5-.8-1.4-1.5-2.4-1.7-1.6-.3-2.9.7-2.9 2.2 0 1.5 1.3 2.9 2.9 3.2 1 .2 1.9-.2 2.4-.8v4.2c-.6-1.3-1.9-2.4-3.4-2.7-2.1-.4-3.8.9-3.8 2.8s1.7 3.8 3.8 4.2c1.5.3 2.8-.4 3.4-1.5v6.1c-.6-2.1-2.5-3.8-4.7-4.2-2.7-.5-4.9 1.2-4.9 3.7s2.2 5 4.9 5.4c2.3.4 4.2-.7 4.7-2.6v34.7c-3.6-1.4-7.7-1.5-11.4.1-6.1 2.6-9.8 8.9-9.1 15.5-4.1-2.4-9.1-2.6-13.4-.6-4.3 2-7.4 5.9-8.3 10.6 8 13.5 25.9 11 53.8-7.4 2.7-7.1 4.8-14.4 6.2-21.9-2.5-.2-5.2.3-7.5 1.8zM175.1 323.4c-2.5 1.6-4.3 4.2-4.9 7.2-1-4.7-5.1-8.2-9.9-8.3-4.8-.1-9.1 3.1-10.4 7.8-.4-2.9-2.4-5.4-5.1-6.6-1.2-.5-2.5-.7-3.8-.7v-45.4c.5 4.1 4.3 6.6 8.9 5.8 4.9-.9 8.9-5.3 8.9-9.9 0-4.6-4-7.6-8.9-6.8-4.6.8-8.4 4.7-8.9 8.9v-12.8c.9 2.4 3.5 3.8 6.6 3.3 3.8-.7 6.9-4.1 6.9-7.7 0-3.6-3.1-5.9-6.9-5.3-3.1.5-5.7 2.9-6.6 5.6v-8c.9 1.5 2.7 2.3 4.7 1.9 2.9-.5 5.3-3.1 5.3-5.9 0-2.7-2.4-4.5-5.3-4-2.1.4-3.9 1.8-4.7 3.6v-5.5c.7.8 2 1.3 3.3 1 2.2-.4 4.1-2.4 4.1-4.5s-1.8-3.5-4.1-3.1c-1.4.2-2.6 1.1-3.3 2.2v-2.1c.6-.3 1.2-.8 1.6-1.6 1.1-2 .7-4.7-.9-6-1.6-1.3-3.8-.8-5 1.2-1.1 2-.7 4.7.9 6 .3.2.6.4.9.5v2.2c-.7-1.2-2-2.1-3.4-2.4-2.2-.4-4.1 1-4.1 3.1s1.8 4.1 4.1 4.5c1.4.3 2.7-.2 3.4-1.2v5.9c-.8-1.9-2.7-3.4-4.8-3.8-2.9-.5-5.3 1.3-5.3 4s2.4 5.4 5.3 5.9c2.2.4 4-.5 4.8-2.1v8.6c-.8-2.9-3.5-5.4-6.7-6-3.8-.7-6.9 1.7-6.9 5.3 0 3.6 3.1 7 6.9 7.7 3.2.6 5.9-1 6.7-3.6v61c-.7.3-1.4.6-2 1 1.1-6.3-1.9-12.6-7.6-15.6-5.7-3-12.6-2-17.2 2.5 2.8 7.7 6.3 15.2 10.5 22.2 56.1 26 76.6 22.2 61.4-11.4-2.9-.7-6-.2-8.5 1.4z"/><path class="st3" d="M126.6 283.4c-6.4-1.1-11.6 2.8-11.6 8.8 0 6 5.2 11.7 11.6 12.9 6.4 1.1 11.6-2.8 11.6-8.8 0-6-5.2-11.7-11.6-12.9z"/><path class="st4" d="M177.3 332.7c-3.5 3.1-5.4 7.7-5.2 12.4-1.7-2.7-4.6-4.4-7.8-4.4s-6.2 1.6-7.9 4.2c-.2-3.6-2.3-6.7-5.5-8.3-3.2-1.6-7-1.3-9.9.7-1-4.3-4.1-7.9-8.3-9.4-4.2-1.5-8.9-.8-12.4 2 5.2 9.4 11.5 18 18.9 25.8 46 18 63 9 50.9-27-4.7-.6-9.4.9-12.8 4zM336.2 307.3c-5.1 2.2-8.4 7.1-8.7 12.6-2.2-3.2-6-4.8-9.8-4.2-3.8.6-7 3.3-8.1 7-14.7 9.5-22 14.2-22 14.2-4.6-2.3-10.1-1.5-13.9 1.9-3.8 3.5-5 8.9-3.1 13.7-14.8 33.4 7.8 27.9 67.9-16.2 5.3-8.4 9.6-17.4 12.8-26.8-4.1-3.6-10-4.4-15.1-2.2z"/><path class="st5" d="M185.5 352.6c-5.2 1.1-9.6 4.7-11.8 9.6.7-5.8-2.7-11.3-8.2-13.2-5.5-1.9-11.6.3-14.6 5.3-1.2-2.9-3.8-4.9-6.9-5.4-3.1-.5-6.2.6-8.3 3 13.2 15.2 29.8 27 48.5 34.5 2 3.2 7.4-6.7 16.1-30-4.1-3.5-9.6-5-14.8-3.8zM333.6 307.2c-3.8.7-6.9 4.1-6.9 7.6s3.1 5.9 6.9 5.2c3.8-.7 6.9-4.1 6.9-7.6s-3.1-5.8-6.9-5.2zM318 320c3.8.7 6.9-1.7 6.9-5.2s-3.1-6.9-6.9-7.6c-3.8-.7-6.9 1.7-6.9 5.2.1 3.6 3.1 7 6.9 7.6zM319.8 307.1c2.9.5 5.3-1.3 5.3-4s-2.4-5.4-5.3-5.9-5.3 1.3-5.3 4c0 2.8 2.4 5.4 5.3 5.9z"/><path class="st5" d="M333.9 332.1c-2.2 1.1-3.6 3.4-3.6 5.9-.4-2.7-1.8-4.9-3.7-6.5v-27.7c.3 2.4 2.5 3.9 5.3 3.4 2.9-.5 5.3-3.1 5.3-5.9 0-2.7-2.4-4.5-5.3-4-2.7.5-4.9 2.8-5.3 5.3V295c.5 1.4 2.1 2.3 3.9 2 2.3-.4 4.1-2.4 4.1-4.5s-1.8-3.5-4.1-3.1c-1.8.3-3.4 1.7-3.9 3.3v-4.8c.5.9 1.6 1.3 2.8 1.1 1.7-.3 3.1-1.9 3.1-3.5s-1.4-2.7-3.1-2.4c-1.2.2-2.3 1.1-2.8 2.1v-3.3c.4.5 1.2.8 2 .6 1.3-.2 2.4-1.4 2.4-2.7 0-1.2-1.1-2.1-2.4-1.8-.8.1-1.5.6-2 1.3V278c.4-.2.7-.5.9-.9.7-1.2.4-2.8-.5-3.5-1-.8-2.3-.5-2.9.7-.7 1.2-.4 2.8.5 3.5.2.1.3.2.5.3v1.3c-.4-.7-1.2-1.3-2-1.4-1.3-.2-2.4.6-2.4 1.8 0 1.2 1.1 2.4 2.4 2.7.9.2 1.6-.1 2-.7v3.5c-.5-1.1-1.6-2-2.9-2.2-1.7-.3-3.1.8-3.1 2.4 0 1.6 1.4 3.2 3.1 3.5 1.3.2 2.4-.3 2.9-1.2v5.1c-.5-1.7-2.1-3.2-4-3.5-2.3-.4-4.1 1-4.1 3.1s1.8 4.1 4.1 4.5c1.9.3 3.5-.6 4-2.1v35.6c-2-1.1-4.3-1.7-6.7-1.4-5.7.7-9.9 5.7-9.5 11.5-6 7-9.1 10.5-9.1 10.5-3.8-.9-7.8.4-10.3 3.5-2.4 3.1-2.8 7.3-1 10.8-6.1-4-14.2-2.4-18.4 3.6 3.5 12.5 5.3 18.7 5.3 18.7 27.4-10.2 50.5-29.6 65.3-54.9a6.06 6.06 0 0 0-6.8-.7z"/><path d="M278.8 336.2v-.2.2z" style="fill-rule:evenodd;clip-rule:evenodd;fill:#02318f"/><path d="M270.4 263.4c-.1 0-.1-.1 0 0-.4-.3-.8-.5-1.1-.7-4-2.2-15.9-3.4-21.3-4.3 0 0-12.8-2.2-38.5-6.5-7 1.1-16.3 2.3-23 3.9-1.2.3-2.3.7-3.6 1.3-8.1 3.6-16.2 8.3-24.3 12.1-5.3 30.6-7.9 45.9-7.9 45.9 7.9 5.1 18.1 3.6 27.7.5l.9 68.6c30.6 13.7 65.4 14.8 96.8 3.1 0 0 1-17.1 2.9-51.2v-.2.2c.3.8 5.8-2.1 16.4-8.6-1.5-4.3-7-23.4-16.4-57-3.6-3.5-6.2-5.7-8.6-7.1z" style="fill-rule:evenodd;clip-rule:evenodd;fill:#7703fc"/><defs><filter id="Adobe_OpacityMaskFilter" filterUnits="userSpaceOnUse" x="234.3" y="258.6" width="55.6" height="135.3"><feColorMatrix values="1 0 0 0 0 0 1 0 0 0 0 0 1 0 0 0 0 0 1 0"/></filter></defs><mask maskUnits="userSpaceOnUse" x="234.3" y="258.6" width="55.6" height="135.3" id="SVGID_5_"><g style="filter:url(#Adobe_OpacityMaskFilter)"><linearGradient id="SVGID_6_" gradientUnits="userSpaceOnUse" x1="-259.585" y1="407.178" x2="-161.684" y2="476.945" gradientTransform="translate(478.078 -112.038)"><stop offset="0" style="stop-color:#000"/><stop offset="1" style="stop-color:#fff"/></linearGradient><path style="fill:url(#SVGID_6_)" d="M234.3 258.6h55.6v135.3h-55.6z"/></g></mask><path d="M270.3 263.3c-1.1-.8-2.9-1.5-5.3-2.1-3.4-.8-8.6-1.7-15.5-2.6-7.3-.6-11.4 4.4-12.3 15-3.6 7.8-3.8 16.8-.4 24.8 8.9 20.7 37.7 17.5 35.9 57.1-.7 15.4-8.6 29.7-21.3 38.4 8.4-1.3 16.7-3.5 24.7-6.5 1.1-19.1 2-34.8 2.7-47.3 16.6-12.3 14.9-37-4.9-74.3-1.2-.9-2.3-1.7-3.6-2.5z" style="mask:url(#SVGID_5_);fill-rule:evenodd;clip-rule:evenodd;fill:#a671f4"/><defs><filter id="Adobe_OpacityMaskFilter_1_" filterUnits="userSpaceOnUse" x="192.7" y="278.2" width=".8" height="5.4"><feColorMatrix values="1 0 0 0 0 0 1 0 0 0 0 0 1 0 0 0 0 0 1 0"/></filter></defs><mask maskUnits="userSpaceOnUse" x="192.7" y="278.2" width=".8" height="5.4" id="SVGID_7_"><g style="filter:url(#Adobe_OpacityMaskFilter_1_)"><linearGradient id="SVGID_8_" gradientUnits="userSpaceOnUse" x1="-144.412" y1="398.15" x2="-202.261" y2="487.03" gradientTransform="translate(393.465 -109.592)"><stop offset="0" style="stop-color:#000"/><stop offset="1" style="stop-color:#fff"/></linearGradient><path style="fill:url(#SVGID_8_)" d="M182.3 278.2h70.8v117.2h-70.8z"/></g></mask><path d="M193.4 283.6c-.1-1.8-.4-3.6-.8-5.4.3 1.9.5 3.7.8 5.4z" style="mask:url(#SVGID_7_);fill-rule:evenodd;clip-rule:evenodd;fill:#001a4f"/><defs><filter id="Adobe_OpacityMaskFilter_2_" filterUnits="userSpaceOnUse" x="182.3" y="283.6" width="70.8" height="111.8"><feColorMatrix values="1 0 0 0 0 0 1 0 0 0 0 0 1 0 0 0 0 0 1 0"/></filter></defs><mask maskUnits="userSpaceOnUse" x="182.3" y="283.6" width="70.8" height="111.8" id="SVGID_9_"><g style="filter:url(#Adobe_OpacityMaskFilter_2_)"><linearGradient id="SVGID_10_" gradientUnits="userSpaceOnUse" x1="-144.412" y1="398.15" x2="-202.261" y2="487.03" gradientTransform="translate(393.465 -109.592)"><stop offset="0" style="stop-color:#000"/><stop offset="1" style="stop-color:#fff"/></linearGradient><path style="fill:url(#SVGID_10_)" d="M182.3 278.2h70.8v117.2h-70.8z"/></g></mask><path d="M193.4 283.6c.8 11.1-3.2 22.1-11.2 30.1 0 0 .1 24 .4 72 14.2 5.9 29.3 9.1 44.6 9.6 14.5-5 25-18.2 25.7-33.6 2.3-44-50.5-28.3-59.5-78.1z" style="mask:url(#SVGID_9_);fill-rule:evenodd;clip-rule:evenodd;fill:#4c0bb2"/><defs><filter id="Adobe_OpacityMaskFilter_3_" filterUnits="userSpaceOnUse" x="158.7" y="251.9" width="54.7" height="27.6"><feColorMatrix values="1 0 0 0 0 0 1 0 0 0 0 0 1 0 0 0 0 0 1 0"/></filter></defs><mask maskUnits="userSpaceOnUse" x="158.7" y="251.9" width="54.7" height="27.6" id="SVGID_11_"><g style="filter:url(#Adobe_OpacityMaskFilter_3_)"><linearGradient id="SVGID_12_" gradientUnits="userSpaceOnUse" x1="-168.907" y1="584.483" x2="-169.208" y2="547.672" gradientTransform="translate(355.116 -298.085)"><stop offset="0" style="stop-color:#000"/><stop offset="1" style="stop-color:#fff"/></linearGradient><path style="fill:url(#SVGID_12_)" d="M158.7 251.9h54.7v27.6h-54.7z"/></g></mask><path d="M209.4 251.9c-3.5.5-8.1 1.2-13.7 2.1-3.7.6-6.8 1.2-9.1 1.8-1.5.4-3.1.9-4.8 1.7-3.2 1.5-7.2 3.4-12 6-3 1.6-5.7 2.9-7.9 4.1-3.5 2-4.1 4.5-1.8 7.4 4.4 3.5 10.2 5.1 15.8 4.3 17.9-2.5 15.5-23.6 36.3-21.2 1.2-1 1.6-2.7.9-4.1-.7-1.5-2.2-2.3-3.7-2.1z" style="mask:url(#SVGID_11_);fill-rule:evenodd;clip-rule:evenodd;fill:#4072d6"/><defs><filter id="Adobe_OpacityMaskFilter_4_" filterUnits="userSpaceOnUse" x="160.3" y="273.1" width="33.1" height="42.5"><feColorMatrix values="1 0 0 0 0 0 1 0 0 0 0 0 1 0 0 0 0 0 1 0"/></filter></defs><mask maskUnits="userSpaceOnUse" x="160.3" y="273.1" width="33.1" height="42.5" id="SVGID_13_"><g style="filter:url(#Adobe_OpacityMaskFilter_4_)"><linearGradient id="SVGID_14_" gradientUnits="userSpaceOnUse" x1="-155.179" y1="520.75" x2="-185.724" y2="536.149" gradientTransform="translate(357.712 -239.366)"><stop offset="0" style="stop-color:#000"/><stop offset="1" style="stop-color:#fff"/></linearGradient><path style="fill:url(#SVGID_14_)" d="M160.3 273.1h33.1v42.5h-33.1z"/></g></mask><path d="M186.8 286.6c-3.5 3.5-8.9 4.6-13.5 2.7-1.2 10-5.8 19.3-13 26.3 8.6 0 17.1-2.1 24.9-5.9 9.1-10 10.8-24.7 4.3-36.5 1.9 4.5.8 9.9-2.7 13.4z" style="mask:url(#SVGID_13_);fill-rule:evenodd;clip-rule:evenodd;fill:#4c0bb2"/><path class="st23" d="M189.6 273c-.4.2-.5.6-.3 1 3.7 7.3 4.3 15.4 2.3 22.7-2 7.4-6.7 14-13.7 18.3-.2.1-.4.4-.4.6l.5 39c0 .4.3.7.8.7.4 0 .7-.3.7-.8L179 316c7.1-4.5 11.9-11.4 14-18.9 2.1-7.7 1.5-16.2-2.4-23.8-.1-.4-.6-.5-1-.3zM264.6 271.9c-.3-.3-.7-.4-1.1-.1-.3.3-.4.7-.1 1.1 6.2 7.6 10.5 16.3 12.9 26.3 2.4 10 2.9 21.1 1.4 33.4 0 .4.3.8.7.8.4 0 .8-.3.8-.7 1.5-12.5 1-23.8-1.5-33.9-2.3-10.2-6.7-19.2-13.1-26.9z"/><path class="st24" d="M306.9 319.9c-7.2 1.4-14.6 1.8-21.9 1.3 0 0-1.8 1.3-5.5 3.9-4.3 8.9-1.1 20 7.5 25.8 8.6 5.8 19.9 4.5 26.2-3.1 6.3-7.6 5.7-19-1.4-26.5-3.3-.9-4.9-1.4-4.9-1.4zM168 279.4c-3.6-.4-5.4-.5-5.4-.5-6.8 4.7-14.7 7.4-23 7.6l-2.7 3.3c-3.1 9.9 1.7 20.5 11.2 24.6 9.5 4.1 20.5.4 25.6-8.5 5.2-9.1 2.7-20.5-5.7-26.5z"/><path class="st25" d="M157.3 206.2c-.7.5-1.1 1.2-1.3 2-3.1 8.7-4.7 13.1-4.7 13.1 9.5-.1 12.2-5.3 8.3-15.6-.8-.2-1.6 0-2.3.5z"/><path class="st26" d="M236 248.7c-7 3.9-15 4.3-22.3 2.5-1.3 0-3.2.4-4.3.8 9 26.2 43.5 30.4 43 14.1-3.4-5.4-11.2-5-16.4-17.4z"/><path class="st25" d="M223.9 234.2c-.7 6-2.9 11.7-6.4 16.7 0 0-1.3.1-3.8.2 7.2 22.4 36.5 26.1 36.1 12.4-.7-1.1-1.1-1.7-1.1-1.7 1-6.2 3.7-11.9 8-16.6-21.8-7.3-32.8-11-32.8-11z"/><defs><filter id="Adobe_OpacityMaskFilter_5_" filterUnits="userSpaceOnUse" x="225.5" y="241.2" width="28.7" height="30.4"><feColorMatrix values="1 0 0 0 0 0 1 0 0 0 0 0 1 0 0 0 0 0 1 0"/></filter></defs><mask maskUnits="userSpaceOnUse" x="225.5" y="241.2" width="28.7" height="30.4" id="SVGID_15_"><g style="filter:url(#Adobe_OpacityMaskFilter_5_)"><linearGradient id="SVGID_16_" gradientUnits="userSpaceOnUse" x1="-207.851" y1="583.837" x2="-233.569" y2="557.301" gradientTransform="translate(463.8 -310.841)"><stop offset="0" style="stop-color:#000"/><stop offset="1" style="stop-color:#fff"/></linearGradient><path style="fill:url(#SVGID_16_)" d="M225.5 241.2h28.7v30.4h-28.7z"/></g></mask><path d="M225.5 241.2c6.7 19.9 10 29.9 10 29.9 3.5.9 7.2.6 10.6-.9 2.5-1.3 3.9-3.9 3.7-6.6-.4-.6-.7-1.1-1.1-1.7 1-5.5 2.9-10 5.5-13.5-19.1-4.8-28.7-7.2-28.7-7.2z" style="mask:url(#SVGID_15_);fill-rule:evenodd;clip-rule:evenodd;fill:#ff591c"/><defs><filter id="Adobe_OpacityMaskFilter_6_" filterUnits="userSpaceOnUse" x="225.5" y="241.2" width="28.7" height="16.1"><feColorMatrix values="1 0 0 0 0 0 1 0 0 0 0 0 1 0 0 0 0 0 1 0"/></filter></defs><mask maskUnits="userSpaceOnUse" x="225.5" y="241.2" width="28.7" height="16.1" id="SVGID_17_"><g style="filter:url(#Adobe_OpacityMaskFilter_6_)"><linearGradient id="SVGID_18_" gradientUnits="userSpaceOnUse" x1="-207.468" y1="595.7" x2="-232.552" y2="576.987" gradientTransform="translate(463.8 -334.19)"><stop offset="0" style="stop-color:#000"/><stop offset="1" style="stop-color:#fff"/></linearGradient><path style="fill:url(#SVGID_18_)" d="M225.5 241.2h28.7v16.1h-28.7z"/></g></mask><path d="M234.3 254.6c4.8 2.9 10.7 3.5 15.9 1.6 1-2.8 2.3-5.4 4-7.8-19.1-4.8-28.7-7.2-28.7-7.2.8 5.6 4 10.5 8.8 13.4z" style="mask:url(#SVGID_17_);fill-rule:evenodd;clip-rule:evenodd;fill:#c91302"/><path class="st33" d="M269.3 227.9c-3.2-.6-6.9 1.7-8.2 5.3-1.4 3.5.1 6.9 3.3 7.5 3.2.6 6.9-1.7 8.2-5.3 1.3-3.5-.1-6.9-3.3-7.5z"/><path class="st34" d="M267.6 230.2c-2-.4-4.2 1.1-5.1 3.3-.8 2.2.1 4.3 2 4.6 2 .4 4.2-1.1 5.1-3.2.8-2.2-.1-4.3-2-4.7z"/><path class="st35" d="M265.5 232c-.9-.2-2 .5-2.4 1.6-.4 1 0 2 1 2.2.9.2 2-.5 2.4-1.6.4-1-.1-2-1-2.2z"/><path class="st33" d="M220.9 218.4c-3.2-.6-5.8 1.9-5.9 5.7-.1 3.8 2.4 7.4 5.6 8 3.2.6 5.8-1.9 5.9-5.7 0-3.8-2.5-7.4-5.6-8z"/><path class="st34" d="M221.6 221.2c-2-.4-3.6 1.2-3.6 3.5s1.5 4.5 3.5 4.9c2 .4 3.6-1.2 3.6-3.5s-1.6-4.5-3.5-4.9z"/><path class="st35" d="M222.8 223.6c-.9-.2-1.7.6-1.7 1.7s.7 2.2 1.7 2.4c.9.2 1.7-.6 1.7-1.7s-.7-2.2-1.7-2.4z"/><path class="st33" d="M236.5 203.3c-8.3 3.7-11 8.2-11.9 22-2.4 7.7-.5 16.2 5 22.1 1.9 3.4 5.1 5.8 8.9 6.5 3.8.7 7.7-.2 10.7-2.6 7.4-2.9 12.5-9.7 13.3-17.6 4.3-9.4 4.3-18.3-1.5-25-6.2-7-16-9.2-24.5-5.4z"/><defs><filter id="Adobe_OpacityMaskFilter_7_" filterUnits="userSpaceOnUse" x="242.8" y="201.5" width="22.7" height="52.4"><feColorMatrix values="1 0 0 0 0 0 1 0 0 0 0 0 1 0 0 0 0 0 1 0"/></filter></defs><mask maskUnits="userSpaceOnUse" x="242.8" y="201.5" width="22.7" height="52.4" id="SVGID_19_"><g style="filter:url(#Adobe_OpacityMaskFilter_7_)"><linearGradient id="SVGID_20_" gradientUnits="userSpaceOnUse" x1="-255.265" y1="573.014" x2="-216.781" y2="560.721" gradientTransform="translate(491.92 -339.774)"><stop offset="0" style="stop-color:#000"/><stop offset="1" style="stop-color:#fff"/></linearGradient><path style="fill:url(#SVGID_20_)" d="M242.8 201.5h22.7v52.4h-22.7z"/></g></mask><path d="M242.8 201.6c1.7.9 3.3 1.9 4.8 3.1l.1.1c12.8 9.9 15.2 28.3 5.3 41.1-2.6 3.4-5.8 6-9.3 7.9 2-.4 3.9-1.3 5.5-2.6 7.4-2.9 12.5-9.7 13.3-17.6 4.3-9.4 4.3-18.3-1.5-25-4.7-5.2-11.5-7.7-18.2-7z" style="mask:url(#SVGID_19_);fill-rule:evenodd;clip-rule:evenodd;fill:#ffefd9"/><defs><filter id="Adobe_OpacityMaskFilter_8_" filterUnits="userSpaceOnUse" x="222.6" y="202.9" width="21" height="42"><feColorMatrix values="1 0 0 0 0 0 1 0 0 0 0 0 1 0 0 0 0 0 1 0"/></filter></defs><mask maskUnits="userSpaceOnUse" x="222.6" y="202.9" width="21" height="42" id="SVGID_21_"><g style="filter:url(#Adobe_OpacityMaskFilter_8_)"><linearGradient id="SVGID_22_" gradientUnits="userSpaceOnUse" x1="-210.986" y1="590.75" x2="-236.501" y2="569.275" gradientTransform="translate(459.044 -354.23)"><stop offset="0" style="stop-color:#000"/><stop offset="1" style="stop-color:#fff"/></linearGradient><path style="fill:url(#SVGID_22_)" d="M222.6 202.9h21v42h-21z"/></g></mask><path d="M235.5 203.2c-4.5-1-9.1.9-11.4 4.9-2.3 4-1.8 9 1.2 12.4-2.4 10.1-1.2 18.3 3.7 24.5.2-3.9 4.6-4.9 6.1-8.9 2.1-5.8-3.9-11.4-.1-18.1 1.8-3.1 5.1-5.1 8.7-5.3-.4-4.6-3.7-8.5-8.2-9.5z" style="mask:url(#SVGID_21_);fill-rule:evenodd;clip-rule:evenodd;fill:#ff5526"/><defs><filter id="Adobe_OpacityMaskFilter_9_" filterUnits="userSpaceOnUse" x="224.5" y="220.1" width="12" height="11.1"><feColorMatrix values="1 0 0 0 0 0 1 0 0 0 0 0 1 0 0 0 0 0 1 0"/></filter></defs><mask maskUnits="userSpaceOnUse" x="224.5" y="220.1" width="12" height="11.1" id="SVGID_23_"><g style="filter:url(#Adobe_OpacityMaskFilter_9_)"><linearGradient id="SVGID_24_" gradientUnits="userSpaceOnUse" x1="-222.403" y1="609.546" x2="-239.8" y2="595.838" gradientTransform="translate(462.093 -376.68)"><stop offset="0" style="stop-color:#000"/><stop offset="1" style="stop-color:#fff"/></linearGradient><path style="fill:url(#SVGID_24_)" d="M224.5 220.1h12v11.1h-12z"/></g></mask><path d="M230.4 227.6c-1.6-1.7-2.2-4.1-1.7-6.3-2.4-.8-3.7-1.2-3.7-1.2-.5.4-.6 2.2-.4 5.2.7 2.4 2.4 4.4 4.8 5.3 2.3.9 5 .7 7.1-.6-2.3.2-4.6-.7-6.1-2.4z" style="mask:url(#SVGID_23_);fill-rule:evenodd;clip-rule:evenodd;fill:#c91302"/><path d="M269 204.1c9.4 4.3 4.1-14.3-9.1-17.3-6.5-1.4-13.2 1-17.2 6.2-6.2-7.2-19.7-2.6-14 3.1-4 1.9-7 5.3-8.3 9.6-1.4 4.2-.9 8.9 1.1 12.9 1.9 1.6 3 4.1 2.9 6.6.5-6.1 2.4-11.2 5.7-15.4 1.6-1.2 3-2.7 4.1-4.3 7 14.8 21.9 20.5 26.4 15.9 2.5 3.6 3.1 8.1 1.7 12.2 1.2-2.2 3-3.4 5.4-3.5 4.2-2.7 6.9-7.4 7.1-12.5.4-5.1-1.8-10.1-5.8-13.5z" style="fill-rule:evenodd;clip-rule:evenodd;fill:#4d2f01"/><path class="st46" d="M235.2 221.2c-.6-.1-1.2.3-1.3.9-.1.6.3 1.2.9 1.3.6.1 1.2-.3 1.3-.9s-.3-1.2-.9-1.3z"/><path class="st47" d="M240.6 214.9c-1.5-.9-3.2-1.4-4.9-1.4-1.7 0-3.4.5-4.8 1.5-.3.2-.3.5-.2.8.2.3.5.3.8.2 1.3-.9 2.7-1.3 4.2-1.3s2.9.4 4.2 1.2c.3.2.6.1.8-.2.3-.3.2-.6-.1-.8z"/><path class="st26" d="M237.9 218.9c-.8-.2-1.6.4-1.7 1.2-.2.8.4 1.6 1.2 1.7.8.2 1.6-.4 1.7-1.2.2-.7-.4-1.5-1.2-1.7z"/><path class="st48" d="M247.8 239.1c-1 .7-2.1 1.2-3.3 1.5-1.2.3-2.4.3-3.6.1-1.2-.2-2.3-.7-3.3-1.4s-1.8-1.6-2.5-2.6c-.2-.3-.5-.4-.8-.2-.3.2-.4.5-.2.8.7 1.2 1.7 2.2 2.8 3 1.1.8 2.4 1.3 3.8 1.6 1.4.3 2.8.2 4.1-.1 1.3-.3 2.6-.9 3.7-1.7.3-.2.3-.6.1-.8-.2-.4-.6-.4-.8-.2zM242.8 243c-.4.3-.8.5-1.2.6-.4.1-.9.1-1.3 0s-.9-.3-1.2-.5c-.4-.3-.7-.6-.9-1-.1-.1-.2-.1-.3-.1-.1.1-.1.2-.1.3.3.4.6.8 1 1.1.4.3.9.5 1.4.6.5.1 1 .1 1.5 0s1-.3 1.4-.6c.1-.1.1-.2 0-.3 0-.2-.2-.2-.3-.1z"/><defs><filter id="Adobe_OpacityMaskFilter_10_" filterUnits="userSpaceOnUse" x="219.7" y="189.4" width="22.1" height="35.9"><feColorMatrix values="1 0 0 0 0 0 1 0 0 0 0 0 1 0 0 0 0 0 1 0"/></filter></defs><mask maskUnits="userSpaceOnUse" x="219.7" y="189.4" width="22.1" height="35.9" id="SVGID_25_"><g style="filter:url(#Adobe_OpacityMaskFilter_10_)"><linearGradient id="SVGID_26_" gradientUnits="userSpaceOnUse" x1="-198.161" y1="583.346" x2="-233.552" y2="597.577" gradientTransform="translate(454.391 -386.269)"><stop offset="0" style="stop-color:#000"/><stop offset="1" style="stop-color:#fff"/></linearGradient><path style="fill:url(#SVGID_26_)" d="M219.7 189.4h22.1v35.9h-22.1z"/></g></mask><path d="M228.8 196.2c-4 1.9-7 5.3-8.3 9.6-1.4 4.2-.9 8.9 1.1 12.9 1.9 1.6 3 4.1 2.9 6.6.5-6.1 2.4-11.2 5.7-15.4 1.6-1.2 3-2.7 4.1-4.3.6 1.3 1.3 2.5 2 3.7-.5-2.4-.6-4.9-.1-7.4.8-3.9 2.8-7.3 5.6-9.8-6.5-5.8-18.4-1.3-13 4.1z" style="mask:url(#SVGID_25_);fill-rule:evenodd;clip-rule:evenodd;fill:#241500"/><defs><filter id="Adobe_OpacityMaskFilter_11_" filterUnits="userSpaceOnUse" x="249.2" y="186.4" width="25.8" height="47.2"><feColorMatrix values="1 0 0 0 0 0 1 0 0 0 0 0 1 0 0 0 0 0 1 0"/></filter></defs><mask maskUnits="userSpaceOnUse" x="249.2" y="186.4" width="25.8" height="47.2" id="SVGID_27_"><g style="filter:url(#Adobe_OpacityMaskFilter_11_)"><linearGradient id="SVGID_28_" gradientUnits="userSpaceOnUse" x1="-251.645" y1="589.503" x2="-227.065" y2="574.726" gradientTransform="translate(502.386 -372.626)"><stop offset="0" style="stop-color:#000"/><stop offset="1" style="stop-color:#fff"/></linearGradient><path style="fill:url(#SVGID_28_)" d="M249.2 186.4H275v47.2h-25.8z"/></g></mask><path d="M269 204.1c9.4 4.3 4.1-14.3-9.1-17.3-3.7-.8-7.4-.4-10.7 1.1 1.2 0 2.5.1 3.8.3l.3.1c9.5 1.9 15.7 11.1 13.9 20.7-1.4 7-6.8 12.2-13.3 13.8 3 .6 5.5.2 6.9-1.3 2.5 3.6 3.1 8.1 1.7 12.2 1.2-2.2 3-3.4 5.4-3.5 4.2-2.7 6.9-7.4 7.1-12.5.2-5.2-2-10.2-6-13.6z" style="mask:url(#SVGID_27_);fill-rule:evenodd;clip-rule:evenodd;fill:#7a4c06"/><path class="st46" d="M254.1 225c-.6-.1-1.1.3-1.2.8-.1.6.3 1.1.8 1.2.6.1 1.1-.3 1.2-.8.1-.6-.2-1.1-.8-1.2z"/><path class="st47" d="M257.6 217.9c-1.6-.7-3.3-.9-5-.6-.3.1-.5.4-.5.7.1.3.4.5.7.5 1.5-.3 3-.1 4.4.5 1.3.6 2.5 1.5 3.4 2.8.2.3.5.3.8.2.3-.2.3-.5.2-.8-1.1-1.5-2.4-2.7-4-3.3z"/><path class="st55" d="m270.8 227.6-9.9-.6c.1-1.6-.4-3.1-1.2-4.4-1-1.5-2.6-2.7-4.6-3-1.9-.4-3.9.1-5.4 1.1-.8.5-1.4 1.2-2 2l-.9-.9c-.5-.4-1.2-.7-1.8-.8-.7-.1-1.4-.1-2 .1-.3.1-.7.2-1 .4-.2-.9-.6-1.7-1-2.4-1-1.5-2.6-2.7-4.6-3-1.9-.4-3.9.1-5.4 1.1-1.3.8-2.3 2.1-2.8 3.6l-9.4-3.2c-.2-.1-.5 0-.6.3-.1.2 0 .5.3.6l9.4 3.3v.1c-.4 1.9.1 3.9 1.1 5.4 1 1.5 2.6 2.7 4.6 3 1.9.4 3.9-.1 5.4-1.1 1.5-1 2.7-2.6 3-4.6.1-.7.2-1.4.1-2 .3-.2.7-.4 1.1-.5.5-.1 1.1-.2 1.6-.1s1 .3 1.5.7c.4.3.7.6.9 1.1-.3.5-.5 1.1-.6 1.8-.4 1.9.1 3.9 1.1 5.4 1 1.5 2.6 2.7 4.6 3 1.9.4 3.9-.1 5.4-1.1 1.5-1 2.7-2.6 3-4.6v-.1l10 .6c.2 0 .4-.2.5-.4.1-.6-.1-.8-.4-.8zm-29.6-3.5c-.3 1.7-1.3 3.1-2.6 4-1.3.9-3 1.3-4.7.9-1.7-.3-3.1-1.3-4-2.6-.9-1.3-1.3-3-.9-4.7.3-1.7 1.3-3.1 2.6-4 1.3-.9 3-1.3 4.7-.9 1.7.3 3.1 1.3 4 2.6.8 1.4 1.2 3 .9 4.7zm18.7 3.7c-.3 1.7-1.3 3.1-2.6 4-1.3.9-3 1.3-4.7.9-1.7-.3-3.1-1.3-4-2.6-.9-1.3-1.3-3-.9-4.7.3-1.7 1.3-3.1 2.6-4 1.3-.9 3-1.3 4.7-.9 1.7.3 3.1 1.3 4 2.6.8 1.3 1.2 3 .9 4.7z"/><path class="st26" d="M257.3 222.8c-.8-.2-1.6.4-1.7 1.2-.2.8.4 1.6 1.2 1.7.8.2 1.6-.4 1.7-1.2.2-.8-.4-1.6-1.2-1.7z"/><path class="st34" d="M246.6 229.8c-.5-4.1-.7-6.2-.7-6.2-.3-2.6-1.2-2.7-2.6-.3 0 0-1 1.8-3 5.3-4.3.4-4.3 2.9-1.3 4.7.7 1 1.7 1.8 2.9 2 1.2.2 2.5 0 3.5-.7 3.8-.7 4.2-2.3 1.2-4.8z"/><path d="m193.6 193.3-27.6-4.9c-1.5-.3-2.9.7-3.2 2.2l-8.9 50.6c-.3 1.5.7 2.9 2.2 3.2l27.6 4.9c1.5.3 2.9-.7 3.2-2.2l8.9-50.6c.3-1.5-.7-2.9-2.2-3.2z" style="fill-rule:evenodd;clip-rule:evenodd;fill:#0f0808"/><path d="m191.7 194.3-26.4-4.7c-1.5-.3-3 .8-3.2 2.3l-8.6 48.6c-.3 1.5.8 3 2.3 3.2l26.4 4.7c1.5.3 3-.8 3.2-2.3l8.6-48.6c.2-1.4-.8-2.9-2.3-3.2z" style="fill-rule:evenodd;clip-rule:evenodd;fill:#332020"/><path d="M167.1 192.9c-1.2-.2-2.3.6-2.5 1.8-.2 1.2.6 2.3 1.8 2.5 1.2.2 2.3-.6 2.5-1.8.2-1.2-.6-2.3-1.8-2.5z" style="fill-rule:evenodd;clip-rule:evenodd;fill:#735252"/><path class="st26" d="M166.9 194.2c-.4-.1-.9.2-.9.7-.1.4.2.9.7.9.4.1.9-.2.9-.7 0-.4-.3-.8-.7-.9z"/><path class="st33" d="m193 231-6.6-3.3s-5.1-.6-15.2-1.8l-10.5 1.5s3.3-1.8 10-5.4c0 0 4.7-1.5 14.2-4.4 0 0 2.5-.4 7.4-1.3.9-.5 1.5-1.6 1.4-2.6-.1-1.1-.7-2-1.7-2.4 0 0-2.6-.2-7.7-.6 0 0-3.2.4-9.9 1.3-2.8.4-4.9.8-6.8 1.4-5.3 1.6-17.5 6.8-21.4 9.9-2.5 1.9-3.6 4.3-4.7 8.9-2.3 9.6-4.1 22.4-5.1 30.7 1.9 18.9 2.9 28.3 2.9 28.3.3 6.4 4.6 11.9 10.8 13.8 6.1 1.9 12.8-.3 16.6-5.4 3.9-5.1 4.2-12.1.7-17.5 0 0-2.5-6.5-7.4-19.6.7-1.9 1.1-3.9 1.2-5.9 0 0 3.5-.3 10.4-.8 0 0 2.9-.7 8.7-2 0 0 1-.5 2.9-1.6.5-.7.6-1.6.2-2.4-.4-.8-1.2-1.3-2.1-1.3 0 0-.7.2-2.2.5 0 0-2.5.1-7.5.2 0 0-3.4-.5-10.2-1.6 0 0 3.9-.7 11.6-2.1 0 0 3.6-.4 10.9-1.2 0 0 2.2.2 6.5.5 1 .1 2-.5 2.3-1.5.3-1-.1-2.1-1-2.6 0 0-2.5-1.1-7.6-3.3 0 0-3.8-.2-11.3-.7l-13.2 1.5s4.1-1 12.3-3.1l13.5-.9s2.1.4 6.4 1.2c1-.1 1.8-.7 2-1.7.5-1.2.1-2.2-.8-2.7z"/><path class="st59" d="m184.8 217.1-14.2 4.4h-.1l-10 5.4c-.3.1-.4.5-.2.7.1.2.3.3.6.3l10.5-1.5c.3 0 .5-.3.5-.6s-.3-.5-.6-.5l-7.5 1.1 7.3-3.9 14.1-4.4c.3-.1.5-.4.4-.7-.2-.3-.6-.4-.8-.3zM185.6 233.4l-13.5.9h-.1l-11.8 3c-.3.1-.5.4-.4.7.1.3.3.4.6.4l12.8-1.4c.3 0 .5-.3.5-.6s-.3-.5-.6-.5l-5 .6 4.3-1.1 13.5-.9c.3 0 .5-.3.5-.6-.2-.3-.5-.6-.8-.5zM190.6 244l-6.5-.5h-.1l-10.4 1.2-12.2 2.2c-.3.1-.5.3-.4.6 0 .3.3.4.5.5l10.1 1.6c.3 0 .6-.2.6-.5s-.2-.6-.5-.6l-7-1.1 8.9-1.6 10.4-1.2 6.5.5c.3 0 .6-.2.6-.5s-.2-.6-.5-.6z"/><path class="st33" d="M297.1 294.6c0-2.2-1-4.5-2.9-7 0 0-2-4.4-6.1-13.3-.7-3.5-3.2-6.3-6.5-7.5-.5-1.6-.7-4.3-.8-8.2-.2-1.6-1.4-2.9-3-3.1-1.6-.2-3.1.7-3.7 2.3-.9 2.7-1 5.7-.2 8.5 0 0-3.6.1-10.9.4 0 0-3.1.6-9.4 1.7-1.3.4-2.1 1.7-1.9 3 .2 1.3 1.4 2.3 2.7 2.3 0 0 3.2-.3 9.6-.8 0 0 4.2.6 12.7 1.7 0 0-3.8.3-11.5.9 0 0-3.6.1-10.9.2-1.6.1-2.9 1.5-2.8 3.1.1 1.6 1.4 2.9 3 2.9 8.6.1 12.9.2 12.9.2-1.4 1-2.1 2.7-1.7 4.3.4 1.6 1.7 2.9 3.3 3.2-1 1.2-1.1 3-.2 4.3.4.6.9 1 1.4 1.3 1.4.7 4.9.4 6.6.4.5 2.9 2.5 5.3 5.3 6.3l1.5 24.6c-1.6 6.2 1.2 12.8 6.9 15.9 5.6 3.1 12.7 2.1 17.1-2.6 4.5-4.6 5.3-11.7 1.9-17.2.1.3-4-9.1-12.4-27.8z"/><path class="st59" d="M275.6 288.9h-6.5c-.3 0-.6.3-.6.6s.3.6.6.6h6.5c.3 0 .6-.3.6-.6s-.3-.6-.6-.6zM278.3 294.9l-5.8.1c-.3 0-.6.3-.6.6s.3.6.6.6l5.8-.1c.3 0 .6-.3.6-.6s-.3-.6-.6-.6zM291.6 300.6c-1.2.8-2.4 1.3-3.8 1.5-1.3.2-2.7.1-4.1-.3-1.3-.4-2.5-1.1-3.6-2-1-.9-1.8-2-2.4-3.3-.1-.3-.5-.4-.8-.3-.3.1-.4.5-.3.8.6 1.4 1.6 2.7 2.7 3.7s2.5 1.8 4 2.2c1.5.4 3.1.5 4.6.3 1.5-.2 3-.8 4.3-1.7.3-.2.4-.6.2-.8-.2-.2-.6-.3-.8-.1z"/><defs><filter id="Adobe_OpacityMaskFilter_12_" filterUnits="userSpaceOnUse" x="284.6" y="301.6" width="21.4" height="42.3"><feColorMatrix values="1 0 0 0 0 0 1 0 0 0 0 0 1 0 0 0 0 0 1 0"/></filter></defs><mask maskUnits="userSpaceOnUse" x="284.6" y="301.6" width="21.4" height="42.3" id="SVGID_29_"><g style="filter:url(#Adobe_OpacityMaskFilter_12_)"><linearGradient id="SVGID_30_" gradientUnits="userSpaceOnUse" x1="-243.955" y1="531.859" x2="-277.304" y2="506.185" gradientTransform="translate(559.792 -193.217)"><stop offset="0" style="stop-color:#000"/><stop offset="1" style="stop-color:#fff"/></linearGradient><path style="fill:url(#SVGID_30_)" d="M284.6 301.6H306v42.3h-21.4z"/></g></mask><path d="M289 311.1c-.8-3.5.5-7.2 3.3-9.5-2.9.8-5.4 1.4-7.7 1.6 0 0 .5 8.2 1.4 24.5-1.2 3-1.5 6.4-.7 9.5 2.1 3.5 5.5 5.9 9.5 6.7 7.9-1.2 12.7-8.2 10.8-15.1-3.1-10.7-14.8-9.2-16.6-17.7z" style="mask:url(#SVGID_29_);fill-rule:evenodd;clip-rule:evenodd;fill:#ff5526"/><defs><filter id="Adobe_OpacityMaskFilter_13_" filterUnits="userSpaceOnUse" x="148.3" y="265.7" width="21.5" height="39.9"><feColorMatrix values="1 0 0 0 0 0 1 0 0 0 0 0 1 0 0 0 0 0 1 0"/></filter></defs><mask maskUnits="userSpaceOnUse" x="148.3" y="265.7" width="21.5" height="39.9" id="SVGID_31_"><g style="filter:url(#Adobe_OpacityMaskFilter_13_)"><linearGradient id="SVGID_32_" gradientUnits="userSpaceOnUse" x1="-159.48" y1="557.427" x2="-191.347" y2="531.236" gradientTransform="translate(338.175 -255.592)"><stop offset="0" style="stop-color:#000"/><stop offset="1" style="stop-color:#fff"/></linearGradient><path style="fill:url(#SVGID_32_)" d="M148.3 265.7h21.5v39.9h-21.5z"/></g></mask><path d="M165.1 282.6s-2.1-5.6-6.4-16.9c-2.7 3.2-6.2 5.2-10.5 6 7.5 1.4 9.8 9 7.2 17.4-1.9 6.2-5.5 10.8-1.2 16.5 4.2.1 8.3-1.6 11.3-4.7 2.9-3.1 4.5-7.2 4.2-11.5-.7-2.8-2.2-5.1-4.6-6.8z" style="mask:url(#SVGID_31_);fill-rule:evenodd;clip-rule:evenodd;fill:#ff5526"/><defs><filter id="Adobe_OpacityMaskFilter_14_" filterUnits="userSpaceOnUse" x="136.4" y="218.9" width="20.6" height="72.2"><feColorMatrix values="1 0 0 0 0 0 1 0 0 0 0 0 1 0 0 0 0 0 1 0"/></filter></defs><mask maskUnits="userSpaceOnUse" x="136.4" y="218.9" width="20.6" height="72.2" id="SVGID_33_"><g style="filter:url(#Adobe_OpacityMaskFilter_14_)"><linearGradient id="SVGID_34_" gradientUnits="userSpaceOnUse" x1="-138.29" y1="529.563" x2="-183.828" y2="535.7" gradientTransform="translate(318.852 -279.092)"><stop offset="0" style="stop-color:#000"/><stop offset="1" style="stop-color:#fff"/></linearGradient><path style="fill:url(#SVGID_34_)" d="M136.4 218.9H157v72.2h-20.6z"/></g></mask><path d="M153.8 218.9c-2.3 1.1-4.7 2.4-7.2 4-2 1.3-3.5 3.5-4.4 6.5-1 3.5-2 8.4-3.1 14.7-1.1 6.9-2 13.2-2.7 18.8.8 8.4 1.8 17.8 2.9 28.3 18.7-12.1-1.4-21.1 5.4-35.4 4.9-10.5 18.4-19.7 9.1-36.9z" style="mask:url(#SVGID_33_);fill-rule:evenodd;clip-rule:evenodd;fill:#ffe7b8"/><defs><filter id="Adobe_OpacityMaskFilter_15_" filterUnits="userSpaceOnUse" x="278.8" y="269.1" width="29.9" height="51.5"><feColorMatrix values="1 0 0 0 0 0 1 0 0 0 0 0 1 0 0 0 0 0 1 0"/></filter></defs><mask maskUnits="userSpaceOnUse" x="278.8" y="269.1" width="29.9" height="51.5" id="SVGID_35_"><g style="filter:url(#Adobe_OpacityMaskFilter_15_)"><linearGradient id="SVGID_36_" gradientUnits="userSpaceOnUse" x1="-276.481" y1="564.941" x2="-249.423" y2="511.74" gradientTransform="translate(550.411 -231.224)"><stop offset="0" style="stop-color:#000"/><stop offset="1" style="stop-color:#fff"/></linearGradient><path style="fill:url(#SVGID_36_)" d="M278.8 269.1h29.9v51.5h-29.9z"/></g></mask><path d="M294.2 287.7c-1.8-3.9-3.7-8.1-5.8-12.8-.3-1.6-1.4-3.5-3.2-5.8-4.8 3.3-7.2 9-6.2 14.7 2.4 13.2 14.1 8.9 16.3 17.2.7 2.5.3 5.4.4 8.2.1 5.2 3.2 12.5 13 11.2-3.9-8.8-7.8-17.4-11.5-25.8-.1-2.1-1.1-4.4-3-6.9z" style="mask:url(#SVGID_35_);fill-rule:evenodd;clip-rule:evenodd;fill:#ffe7b8"/><path class="st59" d="m281.2 274.3-4.4-.2-12.6-1.7h-.2l-2.1.2c-.3 0-.6.3-.6.7 0 .3.3.6.7.6l2-.2 12.6 1.7h.1l4.4.2c.3 0 .6-.2.6-.6.1-.4-.2-.7-.5-.7zM275.8 281.6l-8.3-.3-11.9-.2c-.3 0-.6.3-.6.6s.3.6.6.6l11.9.2 8.3.3c.3 0 .6-.3.6-.6s-.2-.5-.6-.6zM286.3 269.3c-1.2-1.4-2.7-2.4-4.5-3h-.2l-7.6-.5h-.1l-10.9.4c-.3 0-.6.3-.6.6s.3.6.6.6l10.8-.4 7.5.5c1.5.6 2.9 1.5 3.9 2.7 1.1 1.2 1.8 2.7 2.1 4.3.1.3.4.5.7.5.3-.1.5-.4.5-.7-.2-1.9-1-3.6-2.2-5zM146.7 236.6c-.2-1.4.1-2.8.8-4.1.2-.3.1-.6-.2-.8-.3-.2-.6-.1-.8.2-.9 1.5-1.2 3.2-1 4.8.2 1.6 1 3.2 2.2 4.4.2.2.6.2.8 0 .2-.2.2-.6 0-.8-1-1-1.6-2.3-1.8-3.7zM154.4 256c-1-.4-1.7-1.2-2.1-2-.4-.9-.6-1.9-.3-2.9.1-.3-.1-.6-.3-.7-.6-.2-1.1-.5-1.5-1-.4-.4-.8-.9-1-1.5-.2-.6-.3-1.2-.3-1.8 0-.6.2-1.2.4-1.7.1-.3 0-.6-.2-.7-.3-.1-.6 0-.7.2-.3.7-.5 1.4-.6 2.2 0 .8.1 1.5.4 2.2.3.7.7 1.4 1.3 1.9.4.4.9.8 1.5 1-.2 1.1 0 2.2.5 3.2.5 1.1 1.5 2 2.7 2.6.3.1.6 0 .7-.3 0-.3-.2-.6-.5-.7zM161.1 256c-.3 0-.5.3-.5.6.1 2.4-.5 4.6-1.5 6.7-1 2.1-2.5 3.9-4.4 5.3-1.9 1.4-4.1 2.3-6.3 2.6-2.3.4-4.6.2-6.8-.6-.3-.1-.6.1-.7.3-.1.3.1.6.3.7 2.4.8 4.9 1 7.4.6 2.4-.4 4.8-1.3 6.8-2.8 2-1.5 3.7-3.5 4.7-5.7 1.1-2.2 1.7-4.7 1.6-7.2-.1-.2-.3-.5-.6-.5z"/><path d="m262.9 290.4-15.8-1.5c-2-.2-3.9 1.3-4.1 3.4l-.9 9-.5 4.8-.1.7c-.5 5.2 3.4 9.9 8.6 10.5l4.2.4c5.2.5 9.9-3.4 10.5-8.6l.1-.7.5-4.8.9-9c.2-2.2-1.4-4-3.4-4.2z" style="fill-rule:evenodd;clip-rule:evenodd;fill:#4c0bb2"/><path class="st26" d="M214.9 188.4c-.8-.2-1.6.4-1.7 1.2-.2.8.4 1.6 1.2 1.7.8.2 1.6-.4 1.7-1.2.1-.8-.4-1.5-1.2-1.7zM240.1 175.1c-.5-.1-1.1.2-1.2.8-.1.5.2 1.1.8 1.2.5.1 1.1-.2 1.2-.8.1-.5-.3-1-.8-1.2zM283.3 240.3c-.5-.1-1.1.2-1.2.8-.1.5.2 1.1.8 1.2.5.1 1.1-.2 1.2-.8.1-.6-.3-1.1-.8-1.2zM322 252.6c-.5-.1-1.1.2-1.2.8-.1.5.2 1.1.8 1.2.5.1 1.1-.2 1.2-.8 0-.5-.3-1.1-.8-1.2zM220.2 304.1c-.5-.1-1.1.2-1.2.8-.1.5.2 1.1.8 1.2.5.1 1.1-.2 1.2-.8.1-.6-.3-1.1-.8-1.2zM213.7 298.7c-.4-.1-.9.2-1 .6-.1.4.2.9.6 1 .4.1.9-.2 1-.7.1-.4-.2-.8-.6-.9zM258.8 325.7c-.3-.1-.5.1-.6.4-.1.3.1.5.4.6.3.1.5-.1.6-.4.1-.3-.1-.5-.4-.6zM207.8 325.1c-.4-.1-.7.2-.8.6-.1.4.2.7.6.8.4.1.7-.2.8-.6 0-.4-.2-.8-.6-.8zM337.6 316.4c-.5-.1-1.1.2-1.2.8-.1.5.2 1.1.8 1.2.5.1 1.1-.2 1.2-.8.1-.5-.3-1.1-.8-1.2zM166.1 355c-.5-.1-1.1.2-1.2.8-.1.5.2 1.1.8 1.2.5.1 1.1-.2 1.2-.8.1-.5-.3-1.1-.8-1.2zM133.5 315c-.4-.1-.7.2-.8.6-.1.4.2.7.6.8.4.1.7-.2.8-.6 0-.4-.3-.7-.6-.8zM351.8 295.9c-.3-.1-.5.1-.6.4-.1.3.1.5.4.6.3.1.5-.1.6-.4 0-.3-.2-.6-.4-.6zM144 293.9c-.3-.1-.5.1-.6.4-.1.3.1.5.4.6.3.1.5-.1.6-.4.1-.3-.1-.6-.4-.6zM130.1 297.6c-.1 0-.3.1-.3.2s.1.3.2.3.3-.1.3-.2-.1-.2-.2-.3zM189.1 273.2c-.1 0-.3.1-.3.2s.1.3.2.3.3-.1.3-.2c0-.2-.1-.3-.2-.3zM262.2 355.9c-.5-.1-1.1.2-1.2.8-.1.5.2 1.1.8 1.2.5.1 1.1-.2 1.2-.8.1-.5-.3-1-.8-1.2zM282.8 286.4c-.3-.1-.7.2-.7.5-.1.3.2.7.5.7.3.1.7-.2.7-.5.1-.3-.1-.6-.5-.7zM286.5 290.1c-.2 0-.3.1-.4.2 0 .2.1.3.2.4.2 0 .3-.1.4-.2.1-.2 0-.4-.2-.4zM307.6 308.4c-.3-.1-.7.2-.7.5-.1.3.2.7.5.7.3.1.7-.2.7-.5s-.2-.6-.5-.7zM188.3 214.2c-.3-.1-.6.1-.7.5-.1.3.1.6.5.7.3.1.6-.1.7-.5.1-.3-.1-.6-.5-.7zM274.5 217c-.3-.1-.6.1-.7.5-.1.3.1.6.5.7.3.1.6-.1.7-.5 0-.3-.2-.6-.5-.7z"/><path class="st55" d="M394.3 95.9 370 94.2c-1.5-.1-2.9.4-3.9 1.3s-1.7 2.2-1.8 3.7l-1.5 22.6c-.1 1.5.4 2.9 1.3 3.9s2.2 1.7 3.7 1.8l24.3 1.7c1.5.1 2.9-.4 3.9-1.3s1.7-2.2 1.8-3.7l1.5-22.6c.1-1.5-.4-2.9-1.3-3.9s-2.2-1.7-3.7-1.8zm1.5 28.1c-.1.9-.5 1.7-1.2 2.3-.7.6-1.5.9-2.4.8l-24.3-1.7c-.9-.1-1.7-.5-2.3-1.2-.6-.7-.9-1.5-.8-2.4l1.5-22.6c.1-.9.5-1.7 1.2-2.3.7-.6 1.5-.9 2.4-.8l24.3 1.7c.9.1 1.7.5 2.3 1.2.6.7.9 1.5.8 2.4l-1.5 22.6zM344.5 75.4c-.2-1.5-1-2.7-2.1-3.5-1.1-.8-2.5-1.2-4-1l-23.2 3.7c-1.5.2-2.7 1-3.5 2.1-.8 1.1-1.2 2.5-1 4l3.4 21.5c.2 1.5 1 2.7 2.1 3.5 1.1.8 2.5 1.2 4 1l23.2-3.7c1.5-.2 2.7-1 3.5-2.1.8-1.1 1.2-2.5 1-4l-3.4-21.5zm.6 24.2c-.5.6-1.2 1.1-2 1.2l-23.2 3.7c-.8.1-1.7-.1-2.3-.6-.6-.5-1.1-1.2-1.2-2L313 80.4c-.1-.8.1-1.7.6-2.3.5-.6 1.2-1.1 2-1.2l23.2-3.7c.8-.1 1.7.1 2.3.6.6.5 1.1 1.2 1.2 2l3.4 21.5c.1.9-.1 1.7-.6 2.3z"/><path class="st55" d="M338 87.5c-.4-2.3-1.6-4.2-3.4-5.5-1.7-1.3-4-1.9-6.3-1.5l-.8.1c-2.3.4-4.2 1.6-5.5 3.4-1.3 1.7-1.9 4-1.5 6.3.4 2.3 1.6 4.2 3.4 5.5 1.7 1.3 4 1.9 6.3 1.5l.8-.1c2.3-.4 4.2-1.6 5.5-3.4 1.3-1.8 1.9-4 1.5-6.3zm-3.3 4.9c-.9 1.3-2.4 2.2-4 2.5l-.8.1c-1.7.3-3.3-.2-4.6-1.1-1.3-.9-2.2-2.4-2.5-4-.3-1.7.2-3.3 1.1-4.6.9-1.3 2.4-2.2 4-2.5l.8-.1c1.7-.3 3.3.2 4.6 1.1 1.3.9 2.2 2.4 2.5 4 .3 1.7-.2 3.4-1.1 4.6zM401.5 38.5c-.4-1.8-1.4-3.3-2.9-4.2-1.4-.9-3.2-1.4-5-1l-26.5 5.4c-1.8.4-3.3 1.4-4.2 2.9-.9 1.4-1.4 3.2-1 5l2.9 14.3c.4 1.8 1.4 3.3 2.9 4.2 1.4.9 3.2 1.4 5 1l5.7-1.2 6.8 4.9c.1 0 .1.1.1.1.5.3 1.1.4 1.7.3.6-.1 1.1-.4 1.4-.9 0 0 .1-.1.1-.2l4.3-7.1 6.4-1.3c1.8-.4 3.3-1.4 4.2-2.9.9-1.4 1.4-3.2 1-5l-2.9-14.3zm.1 18.1c-.6 1-1.6 1.7-2.8 1.9l-6.8 1.4-.5.1-.3.4-4.6 7.5h-.1l-7.2-5.1-.4-.3-.5.1-6.2 1.3c-1.2.2-2.4 0-3.4-.7-1-.6-1.7-1.6-1.9-2.8L364 46.1c-.2-1.2 0-2.4.7-3.4.6-1 1.6-1.7 2.8-1.9l26.5-5.4c1.2-.2 2.4 0 3.4.7 1 .6 1.7 1.6 1.9 2.8l2.9 14.3c.3 1.2 0 2.4-.6 3.4z"/><path class="st55" d="M385.3 42.6c-1.9.4-2.6 1.5-3.2 3.6-1.3-1.7-2.4-2.4-4.3-2-2.1.4-3.4 2.4-3 4.5.8 3.7 5.3 6.7 9.8 9.7 3-4.5 6-9 5.2-12.8-.4-2.1-2.4-3.4-4.5-3zM437.1 126.4h-.1c-5.2-.9-10.3.3-14.3 2.8-4.1 2.6-7 6.7-7.9 11.7v.1c-.4 2.2-.3 4.3.1 6.4.4 2 1.2 3.9 2.3 5.6l-1.8 6.6c-.2.6-.2 1.1-.1 1.6s.3.9.7 1.2c.3.3.7.5 1.2.7.6.2 1.3.2 2 0l8-1.9c.6.2 1.1.4 1.7.5.7.2 1.4.4 2.1.5h.1c5.2.9 10.3-.3 14.3-2.8 4.1-2.6 7-6.7 7.9-11.7v-.1c.8-4.9-.5-9.7-3.4-13.5-3.1-3.9-7.5-6.8-12.8-7.7zm13.7 20.8c-.8 4.3-3.3 7.8-6.8 10.1-3.6 2.3-8.1 3.3-12.8 2.5-.6-.1-1.2-.2-1.8-.4l-1.8-.6-.3-.1-.4.1-8.3 2c-.4.1-.6.1-.8 0-.1 0-.1 0-.1-.1v-.5l2-7.1.1-.5-.3-.4c-1.1-1.6-1.8-3.4-2.2-5.3-.4-1.8-.4-3.7-.1-5.6.8-4.3 3.3-7.8 6.8-10.1 3.6-2.3 8.1-3.3 12.8-2.5 4.7.8 8.6 3.3 11.1 6.7 2.5 3.3 3.7 7.5 2.9 11.8z"/><path class="st26" d="M426.7 141.3c-.9-.2-1.9.5-2 1.4-.2.9.5 1.9 1.4 2 .9.2 1.9-.5 2-1.4.2-1-.4-1.9-1.4-2zM434.7 142.6c-.9-.2-1.9.5-2 1.4-.2.9.5 1.9 1.4 2 .9.2 1.9-.5 2-1.4.1-.9-.5-1.8-1.4-2zM442 143.9c-.9-.2-1.9.5-2 1.4-.2.9.5 1.9 1.4 2 .9.2 1.9-.5 2-1.4.2-.9-.5-1.8-1.4-2z"/><path class="st55" d="m453.6 75.6-21.9-6.9c-1.3-.4-2.7-.2-3.9.4-1.2.6-2.1 1.6-2.5 3l-6.4 20.3c-.4 1.3-.2 2.7.4 3.9.6 1.2 1.6 2.1 3 2.5l21.9 6.9c1.3.4 2.7.2 3.9-.4 1.2-.6 2.1-1.6 2.5-3L457 82c.4-1.3.2-2.7-.4-3.9-.7-1.1-1.7-2.1-3-2.5zm1.5 5.8-6.4 20.3c-.3.8-.8 1.5-1.6 1.9-.7.4-1.6.5-2.4.2L422.8 97c-.8-.3-1.5-.8-1.9-1.6-.4-.7-.5-1.6-.2-2.4l6.4-20.3c.3-.8.8-1.5 1.6-1.9.7-.4 1.6-.5 2.4-.2l21.9 6.9c.8.3 1.5.8 1.9 1.6.3.6.4 1.5.2 2.3zM388 146.8l-57.2-6.7c-1.5-.2-2.9.3-4 1.1-1.1.9-1.9 2.1-2 3.6l-5.1 43.5c-.2 1.5.3 2.9 1.1 4 .9 1.1 2.1 1.9 3.6 2l57.2 6.7c1.5.2 2.9-.3 4-1.1 1.1-.9 1.9-2.1 2-3.6l5.1-43.5c.2-1.5-.3-2.9-1.1-4-.9-1.1-2.1-1.9-3.6-2zm2.8 5.8-5.1 43.5c-.1 1-.6 1.8-1.3 2.3-.7.6-1.6.8-2.6.7l-57.2-6.7c-1-.1-1.8-.6-2.3-1.3-.6-.7-.8-1.6-.7-2.6l5.1-43.5c.1-1 .6-1.8 1.3-2.3.7-.6 1.6-.8 2.6-.7l57.2 6.7c1 .1 1.8.6 2.3 1.3.5.7.8 1.6.7 2.6z"/><path class="st26" d="m351.9 181.4-10.9-17-15.4 14.8-1 8.5 57.8 6.8.5-3.6 1.5-12.8-11.1-17.2z"/><path class="st26" d="M354.4 154.2c-3.4-.4-6.4 2-6.8 5.4-.4 3.4 2 6.4 5.4 6.8 3.4.4 6.4-2 6.8-5.4.4-3.3-2.1-6.4-5.4-6.8zM345.9 57.8c-.8.1-1.4.9-1.3 1.7.1.8.9 1.4 1.7 1.3.8-.1 1.4-.9 1.3-1.7 0-.8-.8-1.4-1.7-1.3zM361.5 71c-.5.1-.8.5-.7 1 .1.5.5.8 1 .7.5-.1.8-.5.7-1 0-.5-.5-.8-1-.7zM430.9 57.4c-.5.1-.8.5-.7 1 .1.5.5.8 1 .7.5-.1.8-.5.7-1-.1-.4-.6-.8-1-.7zM406.4 170.4c-.8.1-1.4.9-1.3 1.7.1.8.9 1.4 1.7 1.3.8-.1 1.4-.9 1.3-1.7 0-.9-.8-1.5-1.7-1.3zM465.2 116.9c-.8.1-1.4.9-1.3 1.7.1.8.9 1.4 1.7 1.3.8-.1 1.4-.9 1.3-1.7-.1-.8-.9-1.4-1.7-1.3zM382 108l-3.5-3.9-1 5.1-4.8 2.2 4.7 2.5.5 5.2 3.8-3.6 5.2 1-2.3-4.7 2.6-4.5zM432.6 82.6l-1.3 6.9 5.2 4.6 6.7-2.3 1.3-6.8-5.3-4.6z"/></svg>