<svg version="1.1" id="Layer_1" xmlns="http://www.w3.org/2000/svg" x="0" y="0" viewBox="0 0 600 400" style="enable-background:new 0 0 600 400" xml:space="preserve"><style>.st13,.st2,.st21,.st8,.st9{fill-rule:evenodd;clip-rule:evenodd;fill:#fff}.st13,.st21,.st8,.st9{fill:#fac150}.st13,.st21,.st9{fill:#e66d2b}.st13,.st21{fill:#fca800}.st21{fill:#00634c}.st22{fill:#fff}.st25,.st26{fill-rule:evenodd;clip-rule:evenodd;fill:#00ab75}.st26{fill:#3de09c}.st28{fill:#b5301b}.st60{fill-rule:evenodd;clip-rule:evenodd;fill:#ffc285}.st61{fill:#ed401d}.st74{fill:#ff742e}.st74,.st75{fill-rule:evenodd;clip-rule:evenodd}.st75,.st83{fill:#c41400}.st84{fill:#422201}.st85{fill-rule:evenodd;clip-rule:evenodd}</style><path d="M215.6 112.8c24.8 0 48.2 6.4 68.4 17.8 0-1.4-.1-2.8-.1-4.1C283.9 59.9 337.9 6 404.4 6 471 5.9 525 59.9 525 126.4c0 24.1-7.1 46.5-19.2 65.3H89.2c22.9-46.7 70.9-78.9 126.4-78.9" style="fill-rule:evenodd;clip-rule:evenodd;fill:#8ceeff"/><path d="M101.1 171.8c77.4 50.4 130.1 57 158 19.9-.7-8-5.2-15.2-12-19.4-6.8-4.2-15.3-4.9-22.7-1.9-2.5-11.2-11.8-19.6-23.1-20.9-11.4-1.3-22.4 4.7-27.3 15-3.1-3.5-7.5-5.7-12.2-5.9-4.7-.2-9.3 1.6-12.6 4.9-5.8-10.8-18.5-15.9-30.2-12.2-6.7 6.3-12.6 13.2-17.9 20.5m370.3 25.3c27.3-11.2 40.9-16.8 40.9-16.8 6.4-12.8 10.5-26.6 12-40.8-6.1-1.8-12.7-1-18.1 2.2-5.5 3.2-9.3 8.6-10.7 14.8-7.3-4.5-16.7-3.4-22.8 2.6-5.3-10.2-16.6-15.8-28-13.7-11.3 2.1-19.9 11.4-21.1 22.9-4.2-3.5-9.7-5.1-15.2-4.5-5.5.7-10.4 3.5-13.7 8-8.7-9.8-22.3-13.6-34.9-9.7-12.5 3.8-21.7 14.6-23.4 27.6 90 5 135 7.4 135 7.4z" style="fill-rule:evenodd;clip-rule:evenodd;fill:#c4f6ff"/><path class="st2" d="M87.9 194.6c60.4 8.2 90.8 5.2 91.2-8.9-4.3-5.2-12-5.9-17.3-1.7-1.5-5.8-6.6-10-12.6-10.2-6-.3-11.5 3.5-13.5 9.2-1-5.5-6.2-9.1-11.7-8.3-3.4-6.9-11.4-10.4-18.8-8.2-6.8 8.5-12.7 18-17.3 28.1m416 0c-68 10.6-108.3 9.6-120.9-2.9 1.9-9.1 8.8-16.2 17.9-18.4 9-2.1 18.5 1.1 24.2 8.4 5.7-6.7 14.1-10.4 22.9-10.1 8.8.3 17 4.7 22.1 11.8 2.1-7.4 7.1-13.6 13.9-17.2 6.8-3.6 14.8-4.1 22.1-1.6.5-3.5 2.5-6.7 5.5-8.6 3-1.9 6.7-2.4 10.1-1.3-3.5 14.3-9.5 27.8-17.8 39.9z"/><path d="M494.8 206.2c-.3.3-.6.7-.9 1l-.1.1c-.3.3-.5.6-.8.9l-.2.2-.8.8-.1.1c-22 23.1-53 37.6-87.4 37.6-17.5 0-34.2-3.8-49.2-10.5.5 4 .8 8 .9 12.1H75.1c.5-14.8 3.3-29 8-42.3h411.7z" style="fill-rule:evenodd;clip-rule:evenodd;fill:#25d8db"/><path d="M503.9 194.6c-2.5 3.7-5.3 7.2-8.2 10.6l-1.8 2.1-.1.1c-.3.3-.5.6-.8.9l-.2.2-.2.2H82.3c.4-1.2.8-2.3 1.2-3.4 1.3-3.6 2.8-7.1 4.4-10.6h416z" style="fill-rule:evenodd;clip-rule:evenodd;fill:#04a6b8"/><path d="M355.9 242.5c.3 3.6.4 7.2.4 10.9 0 4-.2 7.9-.5 11.8H75.5c-.6-7.6-.7-15.1-.1-22.7h280.5z" style="fill-rule:evenodd;clip-rule:evenodd;fill:#fffdf7"/><path d="M356.3 256c-.5 26.7-8.4 51.6-21.8 72.7H96.9c-13.4-21.1-21.3-46-21.8-72.7h281.2z" style="fill-rule:evenodd;clip-rule:evenodd;fill:#fff2c7"/><path d="M345.2 308.3c-21.4 50.4-71.3 85.8-129.5 85.8s-108.1-35.4-129.5-85.8h259z" style="fill-rule:evenodd;clip-rule:evenodd;fill:#fee8a1"/><path class="st8" d="M102.6 296.3c2.7 0 4.9.8 4.9 1.9 0 1-2.2 1.9-4.9 1.9s-4.9-.8-4.9-1.9c0-1.1 2.2-1.9 4.9-1.9M312.8 355.1c-25.3 24.1-59.5 39-97.2 39s-71.9-14.8-97.2-39h194.4zM123.4 323.6c1.6 0 2.9.5 2.9 1.1 0 .6-1.3 1.1-2.9 1.1-1.6 0-2.9-.5-2.9-1.1 0-.6 1.3-1.1 2.9-1.1M332.8 273.3c1.6 0 2.9.5 2.9 1.1 0 .6-1.3 1.1-2.9 1.1-1.6 0-2.9-.5-2.9-1.1 0-.7 1.3-1.1 2.9-1.1M299.8 341.5c2.2 0 3.9.7 3.9 1.5s-1.8 1.5-3.9 1.5c-2.2 0-3.9-.7-3.9-1.5 0-.9 1.8-1.5 3.9-1.5M317.1 330.8c1.4 0 2.5.4 2.5.9s-1.1.9-2.5.9-2.5-.4-2.5-.9 1.1-.9 2.5-.9M316 285.9c2.1 0 3.8.6 3.8 1.4 0 .8-1.7 1.4-3.8 1.4s-3.8-.6-3.8-1.4c0-.8 1.7-1.4 3.8-1.4M110.7 280c1.8 0 3.2.5 3.2 1.2s-1.4 1.2-3.2 1.2c-1.8 0-3.2-.5-3.2-1.2 0-.6 1.4-1.2 3.2-1.2"/><path class="st9" d="M143.9 362.3c1.8 0 3.2.5 3.2 1.2s-1.4 1.2-3.2 1.2c-1.8 0-3.2-.5-3.2-1.2 0-.6 1.5-1.2 3.2-1.2M283.7 357.1c2.1 0 3.9.7 3.9 1.5s-1.7 1.5-3.9 1.5c-2.1 0-3.9-.7-3.9-1.5s1.7-1.5 3.9-1.5M293 361.8c.9 0 1.5.3 1.5.6s-.7.6-1.5.6c-.9 0-1.5-.3-1.5-.6 0-.4.7-.6 1.5-.6"/><path d="M472.9 225.6c-3.8 2.6-7.8 5.1-11.9 7.3H76.5c.4-2.4.8-4.9 1.3-7.3h395.1z" style="fill-rule:evenodd;clip-rule:evenodd;fill:#7deeff"/><path d="M507 189.8c-1.6 2.5-3.2 5-4.9 7.4H86.7c1.1-2.5 2.3-4.9 3.5-7.4H507z" style="fill-rule:evenodd;clip-rule:evenodd;fill:#057391"/><path d="M490.1 211.2c-1.3 1.3-2.7 2.7-4.1 3.9H80.3l1.2-3.9h408.6z" style="fill-rule:evenodd;clip-rule:evenodd;fill:#a3f3ff"/><path class="st13" d="M232.9 183.2c-10.3 13.7-8.5 32.9 4 44.5 12.6 11.6 36.9 11.9 49.7.6-10.7-18.7-31.1-36.6-53.7-45.1"/><defs><filter id="Adobe_OpacityMaskFilter" filterUnits="userSpaceOnUse" x="224.5" y="184.3" width="59.5" height="48.3"><feColorMatrix values="1 0 0 0 0 0 1 0 0 0 0 0 1 0 0 0 0 0 1 0"/></filter></defs><mask maskUnits="userSpaceOnUse" x="224.5" y="184.3" width="59.5" height="48.3" id="SVGID_1_"><g style="filter:url(#Adobe_OpacityMaskFilter)"><linearGradient id="SVGID_2_" gradientUnits="userSpaceOnUse" x1="-251.385" y1="597.417" x2="-215.226" y2="566.839" gradientTransform="translate(489.33 -375.263)"><stop offset="0" style="stop-color:#000"/><stop offset="1" style="stop-color:#fff"/></linearGradient><path style="fill:url(#SVGID_2_)" d="M224.5 184.3H284v48.3h-59.5z"/></g></mask><path d="M228.4 184.3c10.6 4.9 20.7 11 30.1 18.1 9.3 7.1 17.9 15.2 25.5 24.1l-7.1 6c-7.2-8.5-15.3-16.1-24.1-22.7-8.8-6.7-18.3-12.4-28.4-17.1l4-8.4z" style="mask:url(#SVGID_1_);fill:#ff9"/><path class="st2" d="M252.9 216.4c8.2 3.5 12.3 5.3 12.3 5.3 3.1-3.4 5.8-7.3 8-11.4-2-3.4-5-6.2-8.5-8.1-3.4 5.3-7.3 10-11.8 14.2"/><path d="M136.9 251.2c11.6-4.5 26 7.5 32.2 26.8 6.2 19.3 1.9 38.6-9.6 43.1-11.6 4.5-26-7.5-32.2-26.8-6.2-19.3-1.9-38.6 9.6-43.1" style="fill-rule:evenodd;clip-rule:evenodd;fill:#ffb085"/><defs><filter id="Adobe_OpacityMaskFilter_1_" filterUnits="userSpaceOnUse" x="173.8" y="315.5" width="29.8" height="18.9"><feColorMatrix values="1 0 0 0 0 0 1 0 0 0 0 0 1 0 0 0 0 0 1 0"/></filter></defs><mask maskUnits="userSpaceOnUse" x="173.8" y="315.5" width="29.8" height="18.9" id="SVGID_3_"><g style="filter:url(#Adobe_OpacityMaskFilter_1_)"><linearGradient id="SVGID_4_" gradientUnits="userSpaceOnUse" x1="-205.825" y1="546.608" x2="-228.277" y2="542.884" gradientTransform="translate(411.41 -218.901)"><stop offset="0" style="stop-color:#000"/><stop offset="1" style="stop-color:#fff"/></linearGradient><path style="fill:url(#SVGID_4_)" d="M173.8 315.5h29.8v18.9h-29.8z"/></g></mask><path d="M173.8 327.8c18.5-16.1 28.4-16.5 29.8-1.2 0 0-8.5 2.6-25.5 7.7C188 325.4 193 321 193 321c-12.5 4.2-18.9 6.5-19.2 6.8" style="mask:url(#SVGID_3_);fill-rule:evenodd;clip-rule:evenodd;fill:#fc6900"/><path class="st21" d="M379.3 17.7c5.8 15.5 18.7 39.8 30.3 36-2.1 26.6.8 36.3 13.1 34.5-12.1 44.7 61.7 43.9 26.3-7.5 12.2-3.8 7.9-16.6-22.1-36.7 14.3-2.9 2-15.8-14-26.6-1.6 1.4-3.7 2.2-6 2.2-1.4 0-2.8-.3-4-.9l-.2-.1c-.7-.1-1.3-.3-1.9-.5l.4.2h-1.7c-.7 0-1.3-.1-2-.2h-.2c-.7 0-1.4-.1-2.1-.2h-4.1l-2.7-.2h-9.1z"/><path class="st22" d="M398.4 21.4c8.6 8.7 16.1 18.3 22.6 28.7 10.9 17.5 18.7 37.2 23.6 59.3.1.4.5.7 1 .6.4-.1.7-.5.6-1-4.9-22.2-12.8-42.2-23.8-59.8-6.5-10.4-14.1-20-22.7-28.8-.4.4-.8.7-1.3 1"/><path class="st21" d="M422.3 18.4c.5 15.5-1.7 35.6-11.8 36.8 12.5 22 14 31.4 2.7 34.8 28.4 33.5-35.1 62.5-25.6 4.2-12 1.7-13.5-11 4.2-40.4-15.4 3.8-6.1-17.9 5.7-35.3.1 0 .2.1.3.1.7.2 1.4.4 2.1.5l2 .2c.3 0 .7.1 1 .1h5.5c.7.1 1.3.1 2 .1.6 0 1.2.1 1.9.1h5.7c1.5-.1 3-.5 4.3-1.2"/><path class="st22" d="M409.8 16c-5.3 13.2-8.8 26.7-10.4 40.7-2.3 19.4-1.1 39.5 3.7 60.3.1.4-.2.8-.6.9-.4.1-.8-.2-.9-.6-4.8-21-6-41.3-3.7-60.9 1.7-14.1 5.2-27.7 10.5-41 .4.3.9.4 1.4.6"/><path d="M464.1 231.2c10.3-5.9 19.7-13.3 27.9-21.9l-2.2-2.2-.6-.6-1.9-2.3-.6-.6c-.7-.7-1.4-1.4-1.9-2.3-.5-.6-1-1.2-1.4-1.9l-.2-.2-.9-1.2c-.3-.3-.5-.6-.8-.9-.9-.7-1.8-1.6-2.4-2.7-.6-.7-1.2-1.4-1.6-2.3l-.6-1.3c-.5-.5-1-1-1.5-1.6-1.1-.8-1.9-1.8-2.6-3-.3-.3-.7-.5-1-.9l-.7-.7-.2-.2-.9-.9c-.8-.8-1.5-1.8-2-3-.5-.6-.9-1.4-1.3-2.1l-.1-.1c-.3-.4-.6-.9-.9-1.3-.6-.8-1.1-1.6-1.4-2.5-.3-.4-.5-.8-.7-1.3l-.1-.1c-.8-1-1.4-2.2-1.7-3.5-.2-.4-.3-.9-.4-1.3-.3-.6-.5-1.3-.6-2-.4-.9-.8-1.8-.9-2.9-.1-.3-.2-.7-.3-1.1-.1-.2-.2-.3-.3-.5-1-1-1.7-2.3-2.1-3.6-.5-.7-.9-1.4-1.2-2.2-.5-.8-.9-1.8-1.2-2.8-.1-.2-.2-.4-.2-.6-.9-1.1-1.6-2.4-1.9-3.8-.1-.2-.2-.4-.2-.6l-.4-1.1c-.1-.3-.2-.6-.3-.8-.2-.4-.3-.8-.4-1.3-.5-.9-.9-1.9-1-2.9-.2-.3-.3-.6-.4-1-.7-1.1-1.1-2.3-1.4-3.6-.9-1.4-1.4-3.1-1.4-5v-.2c-.1-.2-.1-.4-.2-.5-.4-.9-.6-1.9-.7-2.9-.1-.2-.1-.4-.2-.6-.4-.9-.6-1.9-.7-2.9-.2-.5-.3-1-.4-1.5-.1-.3-.2-.6-.3-.8 0-.1-.1-.2-.1-.3-.5-.8-.9-1.7-1.2-2.6l-.1-.3c-.2-.3-.3-.7-.5-1-.3-.4-.5-.8-.7-1.3-.2-.3-.3-.6-.4-.9-.2-.3-.3-.6-.4-.9-.2-.3-.3-.6-.4-.9-.2-.3-.3-.6-.4-.9-.7-1.2-1.1-2.5-1.2-3.9-.3-.9-.5-1.9-.5-2.9v-2c-.1-.2-.1-.3-.1-.5-.1-.3-.3-.5-.4-.8-.2-.3-.3-.6-.4-.9-.3-.5-.5-1-.7-1.6-.4-.4-.7-.9-1-1.4-.6-.6-1-1.2-1.4-1.9-1.2-1.5-1.9-3.3-2-5.3-.6-1.2-.9-2.6-.9-4v-.2c-.2-.9-.4-1.7-.4-2.7-.7-2.2-.6-4.6.4-6.6-2.3-9.5-4.2-19.2-5.6-28.9 3.5-4.8 2.9-11.5-1.5-15.6s-9.2-13.9-13.8-10c-4.6 3.9-7.4 20.2-4 25.2 2.5 64.3 22.2 126.9 57.1 181.2" style="fill-rule:evenodd;clip-rule:evenodd;fill:#e86b58"/><path d="M410.3 14.3c.7 1.1.3 3.1-1.3 5.2-6 8-41.7 36.4-52.5 24.7-11.3 24.7-18.7 31.9-28.7 24.1-5.4 21.8-23 24.7-33.7 18.8h-.1l-2.9-1.7c8.4-23.1 23.7-43.2 43.8-57.4 0 0 1.4-.1 4.3-.4 2.1-.2 4.3-.5 6.6-.6-1.1-.9-1.9-1.8-2.5-2.7-.4-.6-.6-1-.7-1.4 9.4-5.6 19.5-9.9 30.1-12.8 0 0 .9 0 2.6-.1 16.4-.9 32.8.6 35 4.3" style="fill-rule:evenodd;clip-rule:evenodd;fill:#007a51"/><path class="st22" d="M407.6 13.9c.5-.1.9.3 1 .7.1.5-.3.9-.7 1-21.4 3-41.3 9.6-59.6 19.8-18.3 10.1-35.1 23.8-50.3 41-.3.3-.8.4-1.2.1-.4-.3-.4-.8-.1-1.2C312 57.9 329 44.2 347.4 33.9c18.5-10.3 38.5-16.9 60.2-20"/><path class="st25" d="M411.8 14.4c.9.8 1.2 2.6.4 5-2.9 8.9-26 44.5-39.1 37.3-2.7 25.2-7.1 33.7-18.2 29.8 3.5 43.8-65.1 30.1-23.2-11.5-10.7-5.7-4.5-16.8 27-30.3-24.1-9.8 46.1-36.3 53.1-30.3"/><path class="st22" d="M409.3 14.9c.4-.2.9 0 1.1.3.2.4 0 .9-.3 1.1-18 9-33.6 20.7-46.8 35.1-13.2 14.4-23.9 31.4-32.3 51.1-.2.4-.6.6-1 .4-.4-.2-.6-.6-.4-1 8.4-19.9 19.3-37 32.6-51.5 13.1-14.5 28.9-26.4 47.1-35.5"/><path class="st26" d="M410.4 15.2c1.1.3 2.1 1.9 2.4 4.4 1 9.3-5.7 51.2-20.5 50 7.8 24.1 7.3 33.6-4.5 34.6 21 38.6-47.2 54-25.9-1.1-12.1-.8-10.9-13.5 12.4-38.7-26.1.9 27.3-51.8 36.1-49.2"/><path class="st22" d="M408.3 16.7c.3-.3.8-.4 1.1-.1.3.3.4.8.1 1.1-12.8 15.6-22.3 32.6-28.5 51.1-6.2 18.5-9.1 38.4-8.7 59.8 0 .4-.3.8-.8.8-.4 0-.8-.3-.8-.8-.4-21.6 2.5-41.7 8.8-60.3 6.3-18.7 15.9-35.9 28.8-51.6"/><path class="st25" d="M415.9 11.9c-.8 1-.8 2.9.4 5.3 4.5 8.7 34.3 41.9 46.6 32.3 6.9 25.6 12.8 33.8 23.8 27.9 1.9 24.7 22.5 28.8 33.4 21.6l1.5-.9c-1.3-5.3-2.9-10.6-5-15.7C510.1 65.9 500 51 487 38.8c-.5-.5-1-.9-1.5-1.4-.5-.2-.8-.3-.8-.3-2.7-.8-5.7-1.6-8.8-2.4 1-.6 1.9-1.3 2.5-1.9.5-.5.8-.7.8-.7-11.3-9-24.2-15.8-37.9-20.3-12.2-2.2-23.2-2.5-25.4.1"/><path class="st22" d="M418.7 12c-.4-.1-.9.1-1 .5-.1.4.1.9.5 1 20.2 6.4 38.2 16 54.2 28.7s30 28.6 41.8 47.7c.2.4.7.5 1.1.3.4-.2.5-.7.3-1.1-12-19.2-26.1-35.3-42.2-48.1-16.1-12.9-34.4-22.5-54.7-29"/><path d="M422.4 49.2c6 2.2 7.5 4.2 4.5 5.9 1.5 9.7 3.9 20.8 7.2 33.3 13.7 45.9 34.4 84.5 62.3 115.9-3.2 3.7-6.5 7.3-10.1 10.6-35.1-48.6-56.5-103.8-63.9-165.7" style="fill-rule:evenodd;clip-rule:evenodd;fill:#fa9776"/><path class="st26" d="M410.1 11.4c-1.1.6-1.7 2.5-1.4 5.1C410 26.3 427 67.7 442 62.8c-2.1 26.6.8 36.3 13.1 34.5-12.1 44.7 61.7 43.9 26.3-7.5 12.2-3.8 7.9-16.6-22.1-36.7 27-5.4-40.8-46.5-49.2-41.7"/><path class="st22" d="M412.6 12.5c-.4-.3-.9-.2-1.2.2-.3.4-.2.9.2 1.2 16.9 12.9 30.8 28 41.7 45.5 10.9 17.5 18.7 37.2 23.6 59.3.1.4.5.7 1 .6.4-.1.7-.5.6-1-4.8-22.3-12.8-42.3-23.7-59.9-11-17.6-25.1-32.9-42.2-45.9"/><path class="st28" d="M453.9 210.3c-.6 0-1.1-.4-1.1-1s.4-1.1 1-1.1c5.5-.3 10.9-1.8 15.6-4.4 4.7-2.6 8.9-6.2 12.2-10.7.3-.5 1-.6 1.4-.2.5.3.6 1 .2 1.4-3.4 4.7-7.8 8.6-12.9 11.3-4.9 2.8-10.5 4.4-16.4 4.7M466.7 177.4c.4-.4 1.1-.4 1.5 0 .4.4.4 1.1 0 1.5-3.3 3.2-7.1 5.8-11.2 7.9-4.1 2-8.5 3.4-13 4.1-.6.1-1.1-.3-1.2-.9-.1-.6.3-1.1.9-1.2 4.3-.7 8.5-2 12.4-3.9 3.9-2 7.5-4.5 10.6-7.5M451.9 152.9c.5-.3 1.1-.2 1.4.2.3.5.2 1.1-.2 1.4-3 2.3-6.3 4.1-9.7 5.5-3.5 1.4-7.1 2.4-10.8 2.9-.6.1-1.1-.3-1.2-.9-.1-.6.3-1.1.9-1.2 3.6-.5 7-1.4 10.3-2.7 3.3-1.3 6.4-3 9.3-5.2M440.5 128.1c.5-.3 1.1-.1 1.4.4.3.5.1 1.1-.4 1.4-2.9 1.7-5.9 3.1-9 4.3-3.1 1.2-6.4 2.1-9.6 2.7-.6.1-1.1-.3-1.2-.8-.1-.6.3-1.1.8-1.2 3.2-.6 6.3-1.4 9.3-2.6 3-1.2 5.9-2.5 8.7-4.2M431.5 102.8c.5-.2 1.1.1 1.3.6.2.5-.1 1.1-.6 1.3-2.5 1-5.1 1.8-7.8 2.5-2.6.7-5.3 1.1-8 1.4-.6.1-1.1-.3-1.1-.9-.1-.6.3-1.1.9-1.1 2.6-.3 5.2-.8 7.8-1.4 2.5-.6 5-1.4 7.5-2.4M425.9 83.8c.6-.1 1.1.4 1.1.9.1.6-.4 1.1-.9 1.1-2.3.2-4.6.6-6.9 1-2.3.4-4.6.9-6.8 1.4-.6.1-1.1-.2-1.2-.8-.1-.6.2-1.1.8-1.2 2.3-.5 4.6-1 7-1.4 2.2-.4 4.5-.8 6.9-1"/><path class="st9" d="M332.7 297.7c1.8 0 3.3.6 3.3 1.2 0 .7-1.5 1.2-3.3 1.2-1.8 0-3.3-.6-3.3-1.2.1-.7 1.5-1.2 3.3-1.2M96.2 263c1.8 0 3.3.6 3.3 1.2 0 .7-1.5 1.2-3.3 1.2-1.8 0-3.3-.6-3.3-1.2.1-.7 1.5-1.2 3.3-1.2"/><path class="st2" d="M302.4 140c.9.1 1.6.9 1.5 1.8-.1.9-.9 1.6-1.8 1.5-.9-.1-1.6-.9-1.5-1.8 0-.8.8-1.5 1.8-1.5M298.9 147c.6.1 1 .6 1 1.2-.1.6-.6 1-1.2 1-.6-.1-1-.6-1-1.2s.6-1.1 1.2-1M337.3 161.3c.6.1 1 .6 1 1.2-.1.6-.6 1-1.2 1-.6-.1-1-.6-1-1.2.1-.6.6-1.1 1.2-1M285.6 202.8c.9.1 1.6.9 1.5 1.8-.1.9-.9 1.6-1.8 1.5-.9-.1-1.6-.9-1.5-1.8.1-.8.9-1.5 1.8-1.5M216.3 154.7c.9.1 1.6.9 1.5 1.8-.1.9-.9 1.6-1.8 1.5-.9-.1-1.6-.9-1.5-1.8 0-.9.8-1.6 1.8-1.5"/><path d="M150.6 378.2c2.6 1.4 5.2 2.6 7.9 3.8 36.4 16.1 77.9 16.2 114.4 0l-4.7-43.9-102.6-6.3c-.9-3.6-3.2-4.3-6.7-2.2l-8.3 48.6zm-.1-152.6c-5.9 30.1 6.2 60.8 31 78.9 24.7 18.1 57.7 20.2 84.6 5.4 21.6-12.4 20.3-42.9-3.9-91.5-7.2-3.3-15.1-5.2-23-5.6-13.7-2.5-25.8-4.1-36.3-4.8-.7 4.4-4.4 7.6-8.8 7.8-.2.1-.3.2-.5.2l-.6.3c-.5.3-1 .5-1.6.7-.1.1-.2.2-.3.2-1.6 1.3-3.7 2.1-5.9 2.1-5.1 0-9.3-4.2-9.3-9.3 0-.6 0-1.2.2-1.9-15.8 2.1-24.2 7.9-25.6 17.5z" style="fill-rule:evenodd;clip-rule:evenodd;fill:#7703fc"/><defs><filter id="Adobe_OpacityMaskFilter_2_" filterUnits="userSpaceOnUse" x="157.7" y="215.8" width="104.9" height="102.3"><feColorMatrix values="1 0 0 0 0 0 1 0 0 0 0 0 1 0 0 0 0 0 1 0"/></filter></defs><mask maskUnits="userSpaceOnUse" x="157.7" y="215.8" width="104.9" height="102.3" id="SVGID_5_"><g style="filter:url(#Adobe_OpacityMaskFilter_2_)"><linearGradient id="SVGID_6_" gradientUnits="userSpaceOnUse" x1="-91.406" y1="498.641" x2="-227.076" y2="517.967" gradientTransform="translate(386.691 -243.847)"><stop offset="0" style="stop-color:#000"/><stop offset="1" style="stop-color:#fff"/></linearGradient><path style="fill:url(#SVGID_6_)" d="M157.7 215.8h104.9v102.3H157.7z"/></g></mask><path d="M166.4 224.7c-15.9 26.6-9.6 61 14.8 80.2 24.4 19.2 59.3 17.3 81.4-4.5-6.6-44.8-44-14.3-61.5-41-5.7-8.7-6.2-19.8-1.3-29-21.4-17.4-32.5-19.3-33.4-5.7" style="mask:url(#SVGID_5_);fill-rule:evenodd;clip-rule:evenodd;fill:#4c0bb2"/><defs><filter id="Adobe_OpacityMaskFilter_3_" filterUnits="userSpaceOnUse" x="222.5" y="213.3" width="53" height="70.5"><feColorMatrix values="1 0 0 0 0 0 1 0 0 0 0 0 1 0 0 0 0 0 1 0"/></filter></defs><mask maskUnits="userSpaceOnUse" x="222.5" y="213.3" width="53" height="70.5" id="SVGID_7_"><g style="filter:url(#Adobe_OpacityMaskFilter_3_)"><linearGradient id="SVGID_8_" gradientUnits="userSpaceOnUse" x1="-303.889" y1="528.99" x2="-212.245" y2="551.026" gradientTransform="translate(486.254 -296.418)"><stop offset="0" style="stop-color:#000"/><stop offset="1" style="stop-color:#fff"/></linearGradient><path style="fill:url(#SVGID_8_)" d="M222.5 213.3h53v70.5h-53z"/></g></mask><path d="M262.1 218.4c14.2 30.8 17.1 52.7 8.7 65.5-5-24.9-12.8-21.9-31.1-27.3-4.1-1.2-8.2-3.3-11.7-7.5-4.8-5.7-6.6-13.4-4.9-20.7 10.4-6.4 17.7-11.3 22-15 5.8.8 11.6 2.5 17 5" style="mask:url(#SVGID_7_);fill-rule:evenodd;clip-rule:evenodd;fill:#a671f4"/><defs><filter id="Adobe_OpacityMaskFilter_4_" filterUnits="userSpaceOnUse" x="156.5" y="329.7" width="110" height="42.1"><feColorMatrix values="1 0 0 0 0 0 1 0 0 0 0 0 1 0 0 0 0 0 1 0"/></filter></defs><mask maskUnits="userSpaceOnUse" x="156.5" y="329.7" width="110" height="42.1" id="SVGID_9_"><g style="filter:url(#Adobe_OpacityMaskFilter_4_)"><linearGradient id="SVGID_10_" gradientUnits="userSpaceOnUse" x1="-145.63" y1="568.204" x2="-187.109" y2="484.601" gradientTransform="translate(384.987 -161.357)"><stop offset="0" style="stop-color:#000"/><stop offset="1" style="stop-color:#fff"/></linearGradient><path style="fill:url(#SVGID_10_)" d="M156.5 329.7h110v42.1h-110z"/></g></mask><path d="M162.4 329.7c29.7 22.4 67.5 31.3 104.1 24.6-33.3 19.7-73.9 23-110 9 4-22.4 5.9-33.6 5.9-33.6" style="mask:url(#SVGID_9_);fill-rule:evenodd;clip-rule:evenodd;fill:#002c6e"/><defs><filter id="Adobe_OpacityMaskFilter_5_" filterUnits="userSpaceOnUse" x="161.9" y="213.5" width="29.5" height="86"><feColorMatrix values="1 0 0 0 0 0 1 0 0 0 0 0 1 0 0 0 0 0 1 0"/></filter></defs><mask maskUnits="userSpaceOnUse" x="161.9" y="213.5" width="29.5" height="86" id="SVGID_11_"><g style="filter:url(#Adobe_OpacityMaskFilter_5_)"><linearGradient id="SVGID_12_" gradientUnits="userSpaceOnUse" x1="-190.92" y1="537.604" x2="-230.374" y2="524.183" gradientTransform="translate(393.182 -272.36)"><stop offset="0" style="stop-color:#000"/><stop offset="1" style="stop-color:#fff"/></linearGradient><path style="fill:url(#SVGID_12_)" d="M161.9 213.5h29.5v86h-29.5z"/></g></mask><path d="M173.2 213.5c-9.8 13.6-13.5 30.7-10 47 3.5 16.4 13.7 30.5 28.2 38.9-21.3-19.6-23.3-52.5-4.6-74.5-2.3-5.5-6.9-9.3-13.6-11.4" style="mask:url(#SVGID_11_);fill-rule:evenodd;clip-rule:evenodd;fill:#001c47"/><defs><filter id="Adobe_OpacityMaskFilter_6_" filterUnits="userSpaceOnUse" x="160.3" y="332.5" width="82.8" height="29.6"><feColorMatrix values="1 0 0 0 0 0 1 0 0 0 0 0 1 0 0 0 0 0 1 0"/></filter></defs><mask maskUnits="userSpaceOnUse" x="160.3" y="332.5" width="82.8" height="29.6" id="SVGID_13_"><g style="filter:url(#Adobe_OpacityMaskFilter_6_)"><linearGradient id="SVGID_14_" gradientUnits="userSpaceOnUse" x1="-208.579" y1="552.585" x2="-193.094" y2="529.592" gradientTransform="translate(390.702 -176.258)"><stop offset="0" style="stop-color:#000"/><stop offset="1" style="stop-color:#fff"/></linearGradient><path style="fill:url(#SVGID_14_)" d="M160.3 332.5h82.8v29.6h-82.8z"/></g></mask><path d="M161.9 332.5c31.2 19.1 58.2 28.7 81.1 28.7-29 3.5-58.3-3.3-82.8-19.2 1.2-6.3 1.7-9.5 1.7-9.5" style="mask:url(#SVGID_13_);fill-rule:evenodd;clip-rule:evenodd;fill:#001c47"/><path class="st13" d="M275.2 270.3c7.1 2.6 12.3 8.9 13.3 16.4 1.1 7.5-2.1 15-8.3 19.4-6.1 4.4-14.3 5.1-21.1 1.8 10.9-9.5 16.8-23.3 16.1-37.6m-70.9 37.8c-2.3-2.2-6.6-5-12.9-8.6-34.9-36.3-28-81.3 8.4-92.7v-3.6c1.2-3.5 1.4-7.2.4-10.7.3-3.5.8-5.1 1.4-4.9-1 .3-2 .7-2.9 1-2-3.9-4.9-9.8-9-11.5-68.7 17.2-76.4 87.1-44.2 135.9 20.7 31.3 57.6 51.1 95.8 48.3 20.6-1.6 38.9-11.6 50.6-29.9-48.7-14.7-73-22-73-22-4.9.3-9.9-.2-14.6-1.3z"/><defs><filter id="Adobe_OpacityMaskFilter_7_" filterUnits="userSpaceOnUse" x="167.3" y="180.1" width="31.1" height="54.3"><feColorMatrix values="1 0 0 0 0 0 1 0 0 0 0 0 1 0 0 0 0 0 1 0"/></filter></defs><mask maskUnits="userSpaceOnUse" x="167.3" y="180.1" width="31.1" height="54.3" id="SVGID_15_"><g style="filter:url(#Adobe_OpacityMaskFilter_7_)"><linearGradient id="SVGID_16_" gradientUnits="userSpaceOnUse" x1="-249.044" y1="589.76" x2="-204.686" y2="575.004" gradientTransform="translate(401.473 -372.382)"><stop offset="0" style="stop-color:#000"/><stop offset="1" style="stop-color:#fff"/></linearGradient><path style="fill:url(#SVGID_16_)" d="M167.3 180.1h31.1v54.3h-31.1z"/></g></mask><path d="M183.2 180.1c6.7 0 12.7 4.4 14.6 10.9 1.9 6.5-.7 13.4-6.4 17-11.6 5-19.1 13.8-22.5 26.3-6.4-11.5 9-17.9 9.4-30.8.3-8-3.6-15 4.9-23.4" style="mask:url(#SVGID_15_);fill-rule:evenodd;clip-rule:evenodd;fill:#fc6900"/><defs><filter id="Adobe_OpacityMaskFilter_8_" filterUnits="userSpaceOnUse" x="183.7" y="180.7" width="13.2" height="28.2"><feColorMatrix values="1 0 0 0 0 0 1 0 0 0 0 0 1 0 0 0 0 0 1 0"/></filter></defs><mask maskUnits="userSpaceOnUse" x="183.7" y="180.7" width="13.2" height="28.2" id="SVGID_17_"><g style="filter:url(#Adobe_OpacityMaskFilter_8_)"><linearGradient id="SVGID_18_" gradientUnits="userSpaceOnUse" x1="-244.456" y1="619.242" x2="-231.966" y2="599.31" gradientTransform="translate(426.636 -411.58)"><stop offset="0" style="stop-color:#000"/><stop offset="1" style="stop-color:#fff"/></linearGradient><path style="fill:url(#SVGID_18_)" d="M183.7 180.7h13.2v28.2h-13.2z"/></g></mask><path d="M191.4 208.1c4.7-8.7 6.4-15.5 5.1-20.3 0-3-2-5.7-4.8-6.7-2.9-1-6 0-7.9 2.3 0 2.9 1.5 5.6 4 7.2 1.3 12.2 2 18.3 2 18.3.4-.3 1-.6 1.6-.8" style="mask:url(#SVGID_17_);fill-rule:evenodd;clip-rule:evenodd;fill:#ed3300"/><path class="st2" d="M177.4 325.9c8.6-5.7 15.7-13.3 20.6-22.4 0 0-2.2-1.3-6.7-4 0 0-1.5-1.6-4.4-4.8-4.8 8.6-11.3 16.1-19.3 22 3.2 3.3 6.4 6.3 9.8 9.2"/><defs><filter id="Adobe_OpacityMaskFilter_9_" filterUnits="userSpaceOnUse" x="190.6" y="318.3" width="98.7" height="31.3"><feColorMatrix values="1 0 0 0 0 0 1 0 0 0 0 0 1 0 0 0 0 0 1 0"/></filter></defs><mask maskUnits="userSpaceOnUse" x="190.6" y="318.3" width="98.7" height="31.3" id="SVGID_19_"><g style="filter:url(#Adobe_OpacityMaskFilter_9_)"><linearGradient id="SVGID_20_" gradientUnits="userSpaceOnUse" x1="-151.601" y1="555.912" x2="-217.05" y2="517.937" gradientTransform="translate(437.348 -195.45)"><stop offset="0" style="stop-color:#000"/><stop offset="1" style="stop-color:#fff"/></linearGradient><path style="fill:url(#SVGID_20_)" d="M190.6 318.3h98.7v31.3h-98.7z"/></g></mask><path d="M289.4 331.5c-46.7-20.2-79.7-17.3-98.7 8.6 17.5-3.5 26.2-5.3 26.2-5.3 17.3 7.2 35.5 12.1 54.1 14.7 7.2-4.6 13.5-10.8 18.4-18" style="mask:url(#SVGID_19_);fill-rule:evenodd;clip-rule:evenodd;fill:#fc6900"/><defs><filter id="Adobe_OpacityMaskFilter_10_" filterUnits="userSpaceOnUse" x="196.6" y="320.7" width="92.8" height="15.8"><feColorMatrix values="1 0 0 0 0 0 1 0 0 0 0 0 1 0 0 0 0 0 1 0"/></filter></defs><mask maskUnits="userSpaceOnUse" x="196.6" y="320.7" width="92.8" height="15.8" id="SVGID_21_"><g style="filter:url(#Adobe_OpacityMaskFilter_10_)"><linearGradient id="SVGID_22_" gradientUnits="userSpaceOnUse" x1="-184.559" y1="569.13" x2="-209.212" y2="536.67" gradientTransform="translate(446.48 -215.631)"><stop offset="0" style="stop-color:#000"/><stop offset="1" style="stop-color:#fff"/></linearGradient><path style="fill:url(#SVGID_22_)" d="M196.6 320.7h92.8v15.8h-92.8z"/></g></mask><path d="M229.7 323.3c-19.4.9-30.5 5.3-33.1 13.1 9-3.7 13.5-5.5 13.5-5.5 6.8 1 13.7.3 20.2-2 26.9 5.2 45.4 7.8 55.4 7.7 1.3-1.6 2.5-3.2 3.7-4.9-36.6-10.9-56.5-13.7-59.7-8.4" style="mask:url(#SVGID_21_);fill-rule:evenodd;clip-rule:evenodd;fill:#ed3300"/><defs><filter id="Adobe_OpacityMaskFilter_11_" filterUnits="userSpaceOnUse" x="129.5" y="249.9" width="26.4" height="72.1"><feColorMatrix values="1 0 0 0 0 0 1 0 0 0 0 0 1 0 0 0 0 0 1 0"/></filter></defs><mask maskUnits="userSpaceOnUse" x="129.5" y="249.9" width="26.4" height="72.1" id="SVGID_23_"><g style="filter:url(#Adobe_OpacityMaskFilter_11_)"><linearGradient id="SVGID_24_" gradientUnits="userSpaceOnUse" x1="-183.278" y1="529.309" x2="-223.363" y2="516.663" gradientTransform="translate(343.486 -237.842)"><stop offset="0" style="stop-color:#000"/><stop offset="1" style="stop-color:#fff"/></linearGradient><path style="fill:url(#SVGID_24_)" d="M129.5 249.9h26.4V322h-26.4z"/></g></mask><path d="M148.2 251.1c-8.6-3.3-14.8.2-18.7 10.5 3.5 22 12.6 42.8 26.4 60.4-11.8-21.7-21.8-53.3-7.7-70.9" style="mask:url(#SVGID_23_);fill-rule:evenodd;clip-rule:evenodd;fill:#fc6900"/><path class="st60" d="M127.7 263c1.1 11.6 4 22.9 8.8 33.5 4.7 10.6 11 20.4 18.7 29.1 1.2 1.3 2.4 2.7 3.7 4-6.2 4.2-11.5 5.7-16 4.6-15.6-3.1-19.3-49.6-22.3-60.8-10.1-10.2-12.3-18.9-9.8-22.6-.1-1.7.6-3.3 1.9-4.4 3.9-3.1 5.9-4.7 5.9-4.7-.9-1.4-.5-3.3.8-4.3 1.4-1 3.3-.6 4.3.7 7.3-1 11-1.4 11-1.4 3.7.6 5.6.9 5.6.9.7.3 1.2 1 1.3 1.7.1.8-.3 1.5-.9 2 3.3.5 4.9.7 4.9.7 1.1.3 1.8 1.4 1.8 2.5s-.8 2.1-1.9 2.4c1.4.1 2.1.2 2.1.2 1 .5 1.5 1.6 1.3 2.7-.1 1.1-.9 2-2 2.3-2.9-.1-4.3-.2-4.3-.2.4.7.5 1.5.2 2.2-.2.7-.8 1.3-1.5 1.6-3.8 1-5.6 1.5-5.6 1.5l-8 5.8z"/><path class="st61" d="M113 246.9c-.3.3-.8.2-1.1-.1-.3-.3-.2-.8.1-1.1l5.9-4.7h.1l5.1-3.5c.1-.1.2-.1.4-.1L134 236c.4-.1.8.2.9.7.1.4-.2.8-.7.9l-10.4 1.4-5 3.4-5.8 4.5zM140.6 240.4c.4 0 .7.4.7.8s-.4.7-.8.7l-6.7-.5-7.2 1.9-7.5 5.8c-.3.3-.8.2-1.1-.1-.3-.3-.2-.8.1-1.1l7.6-5.9c.1-.1.2-.1.3-.2l7.5-2h.3l6.8.6zM145.5 246c.4 0 .7.4.7.9 0 .4-.4.7-.9.7l-10.3-1.1-5 1.6-7 5.5c-.3.3-.8.2-1.1-.1-.3-.3-.2-.8.1-1.1l7.1-5.5c.1-.1.2-.1.3-.2l5.3-1.7h.3l10.5 1zM142.6 251c.4 0 .8.4.8.8s-.4.8-.8.8l-6.8-.1-3.6 1.4-4 2.9c-.3.3-.8.2-1.1-.2-.3-.3-.2-.8.2-1.1l4.1-3c.1 0 .1-.1.2-.1l3.8-1.5c.1 0 .2-.1.3-.1l6.9.2z"/><defs><filter id="Adobe_OpacityMaskFilter_12_" filterUnits="userSpaceOnUse" x="127.7" y="277.1" width="29.3" height="51.5"><feColorMatrix values="1 0 0 0 0 0 1 0 0 0 0 0 1 0 0 0 0 0 1 0"/></filter></defs><mask maskUnits="userSpaceOnUse" x="127.7" y="277.1" width="29.3" height="51.5" id="SVGID_25_"><g style="filter:url(#Adobe_OpacityMaskFilter_12_)"><linearGradient id="SVGID_26_" gradientUnits="userSpaceOnUse" x1="-218.504" y1="530.7" x2="-183.452" y2="530.427" gradientTransform="translate(340.642 -227.698)"><stop offset="0" style="stop-color:#000"/><stop offset="1" style="stop-color:#fff"/></linearGradient><path style="fill:url(#SVGID_26_)" d="M127.7 277.1H157v51.5h-29.3z"/></g></mask><path d="M136.1 295.6c4.8 11.4 11.8 22 20.9 31.9-7.1 3-15.7-.6-17.8-8.2-.5-1.9-.7-4-1.1-6.3-.6-4.5-1.6-9.7-6.2-15.8-3.1-4.1-6.7-11.2-1.9-20.2 1.4 6.5 3.5 12.6 6.1 18.6" style="mask:url(#SVGID_25_);fill-rule:evenodd;clip-rule:evenodd;fill:#f54b29"/><defs><filter id="Adobe_OpacityMaskFilter_13_" filterUnits="userSpaceOnUse" x="135.9" y="187.2" width="41" height="49.6"><feColorMatrix values="1 0 0 0 0 0 1 0 0 0 0 0 1 0 0 0 0 0 1 0"/></filter></defs><mask maskUnits="userSpaceOnUse" x="135.9" y="187.2" width="41" height="49.6" id="SVGID_27_"><g style="filter:url(#Adobe_OpacityMaskFilter_13_)"><linearGradient id="SVGID_28_" gradientUnits="userSpaceOnUse" x1="-179.831" y1="591.251" x2="-220.17" y2="566.305" gradientTransform="translate(353.267 -368.772)"><stop offset="0" style="stop-color:#000"/><stop offset="1" style="stop-color:#fff"/></linearGradient><path style="fill:url(#SVGID_28_)" d="M135.9 187.2h41v49.6h-41z"/></g></mask><path d="M170.1 187.7c2.3-1.2 5.1-.3 6.3 1.9 1.2 2.3.3 5.1-1.9 6.3-7.3 3.9-13.6 9.2-18.6 15.5-5 6.4-8.7 13.8-10.8 21.8-.6 2.5-3.2 4-5.6 3.3-2.5-.6-4-3.2-3.3-5.6 2.4-9.3 6.7-17.9 12.5-25.2 5.6-7.3 12.9-13.5 21.4-18" style="mask:url(#SVGID_27_);fill:#ff9"/><path class="st2" d="M181.5 214.1c-2.8 2.2-5.3 4.9-7.2 7.9-3.8-10.1-12.3-17.7-22.7-20.4 2.2-2.6 4.6-5 7.1-7.3 10.4 2.4 18.9 9.8 22.8 19.8M180.5 218.4c1.4-1.4 2.9-2.8 4.5-4 0 0 18-.6 54.1-1.7 2 .1 4 .3 6 .6-6.2 11.6-17.8 19.2-30.9 20.2-13.1 1.1-25.7-4.6-33.7-15.1"/><path class="st60" d="M229.7 191.8c-12.2 4.8-26 3.2-36.7-4.3 0 0-.7 8.3-1.8 23 0 0-2.9 1.5-6.2 4 6.4 9.2 15.4 12.9 26.4 12.9 11 0 21.3-5.4 27.7-14.6-4.5-1.9-6.8-2.8-6.8-2.8-1.8-12.2-2.6-18.2-2.6-18.2"/><defs><filter id="Adobe_OpacityMaskFilter_14_" filterUnits="userSpaceOnUse" x="195.5" y="196.9" width="43.5" height="30.3"><feColorMatrix values="1 0 0 0 0 0 1 0 0 0 0 0 1 0 0 0 0 0 1 0"/></filter></defs><mask maskUnits="userSpaceOnUse" x="195.5" y="196.9" width="43.5" height="30.3" id="SVGID_29_"><g style="filter:url(#Adobe_OpacityMaskFilter_14_)"><linearGradient id="SVGID_30_" gradientUnits="userSpaceOnUse" x1="-193.44" y1="622.155" x2="-237.145" y2="587.995" gradientTransform="translate(444.847 -383.46)"><stop offset="0" style="stop-color:#000"/><stop offset="1" style="stop-color:#fff"/></linearGradient><path style="fill:url(#SVGID_30_)" d="M195.5 196.9H239v30.3h-43.5z"/></g></mask><path d="M195.5 200.3c23.2-2.3 34.9-3.4 34.9-3.4s.6 4.3 1.9 13c0 0 2.3.9 6.8 2.8-5.6 8.1-14.5 13.4-24.3 14.4-.1.1-6.5-8.9-19.3-26.8" style="mask:url(#SVGID_29_);fill-rule:evenodd;clip-rule:evenodd;fill:#f0590e"/><defs><filter id="Adobe_OpacityMaskFilter_15_" filterUnits="userSpaceOnUse" x="194.7" y="196.9" width="36.9" height="19.1"><feColorMatrix values="1 0 0 0 0 0 1 0 0 0 0 0 1 0 0 0 0 0 1 0"/></filter></defs><mask maskUnits="userSpaceOnUse" x="194.7" y="196.9" width="36.9" height="19.1" id="SVGID_31_"><g style="filter:url(#Adobe_OpacityMaskFilter_15_)"><linearGradient id="SVGID_32_" gradientUnits="userSpaceOnUse" x1="-197.025" y1="624.525" x2="-243.531" y2="600.25" gradientTransform="translate(443.548 -400.674)"><stop offset="0" style="stop-color:#000"/><stop offset="1" style="stop-color:#fff"/></linearGradient><path style="fill:url(#SVGID_32_)" d="M194.7 196.9h36.9V216h-36.9z"/></g></mask><path d="M194.7 198.6c12.6 11 24.5 10.4 35.7-1.7l1.2 8.4c-3.9 7.7-12.4 11.9-20.9 10.3-8.5-1.5-15-8.4-16-17" style="mask:url(#SVGID_31_);fill-rule:evenodd;clip-rule:evenodd;fill:#c41400"/><path class="st60" d="M186.4 168.8c3.4.3 6.4 4.3 6.7 8.9.3 4.6-2.2 8.1-5.6 7.8-3.4-.3-6.4-4.3-6.7-8.9-.3-4.6 2.2-8.1 5.6-7.8"/><path class="st74" d="M187.6 172.4c2 .2 3.7 2.5 3.9 5.2.2 2.7-1.3 4.7-3.2 4.5-2-.2-3.7-2.5-3.9-5.2-.2-2.7 1.3-4.7 3.2-4.5"/><path class="st75" d="M189 174.6c1.1.1 2.1 1.4 2.2 2.9.1 1.5-.7 2.7-1.8 2.6-1.1-.1-2.1-1.4-2.2-2.9-.2-1.6.7-2.7 1.8-2.6"/><path class="st60" d="M240.6 173.6c-3.4-.3-7.1 3.1-8.2 7.6-1.1 4.5.7 8.4 4.1 8.7 3.4.3 7.1-3.1 8.2-7.6 1.1-4.5-.7-8.4-4.1-8.7"/><path class="st74" d="M238.7 176.9c-2-.2-4.1 1.8-4.8 4.4-.7 2.6.4 4.9 2.4 5 2 .2 4.1-1.8 4.8-4.4.6-2.6-.5-4.8-2.4-5"/><path class="st75" d="M237 178.8c-1.1-.1-2.3 1-2.7 2.5-.4 1.5.2 2.7 1.3 2.8 1.1.1 2.3-1 2.7-2.5.4-1.4-.2-2.7-1.3-2.8"/><defs><filter id="Adobe_OpacityMaskFilter_16_" filterUnits="userSpaceOnUse" x="212.6" y="147.9" width="23.7" height="65.5"><feColorMatrix values="1 0 0 0 0 0 1 0 0 0 0 0 1 0 0 0 0 0 1 0"/></filter></defs><mask maskUnits="userSpaceOnUse" x="212.6" y="147.9" width="23.7" height="65.5" id="SVGID_33_"><g style="filter:url(#Adobe_OpacityMaskFilter_16_)"><linearGradient id="SVGID_34_" gradientUnits="userSpaceOnUse" x1="-258.607" y1="599.973" x2="-224.343" y2="557.875" gradientTransform="translate(471.133 -404.633)"><stop offset="0" style="stop-color:#000"/><stop offset="1" style="stop-color:#fff"/></linearGradient><path style="fill:url(#SVGID_34_)" d="M212.6 147.9h23.7v65.5h-23.7z"/></g></mask><path d="M219.2 147.9c2.8.7 5.5 2 7.8 3.8 7.1 5.3 10.5 14.3 8.8 23 .2 13.1-5.3 25.6-15 34-2.1 2.6-5.1 4.2-8.3 4.7 6.1-4.5 11.2-10.6 14.4-18 7.3-16.5 3.7-35-7.7-47.5" style="mask:url(#SVGID_33_);fill-rule:evenodd;clip-rule:evenodd;fill:#ffe7cf"/><path class="st60" d="M190.2 171.1c-.3-8.9 4.4-17.2 12.3-21.3 7.9-4.1 17.4-3.4 24.6 2 7.1 5.3 10.5 14.3 8.8 23 .2 13.1-5.3 25.6-15 34-2.8 3.3-6.9 5.1-11 4.7-4.2-.4-7.9-2.8-10-6.6-7.9-10-11.4-23-9.7-35.8"/><defs><filter id="Adobe_OpacityMaskFilter_17_" filterUnits="userSpaceOnUse" x="190.3" y="153" width="25" height="53.4"><feColorMatrix values="1 0 0 0 0 0 1 0 0 0 0 0 1 0 0 0 0 0 1 0"/></filter></defs><mask maskUnits="userSpaceOnUse" x="190.3" y="153" width="25" height="53.4" id="SVGID_35_"><g style="filter:url(#Adobe_OpacityMaskFilter_17_)"><linearGradient id="SVGID_36_" gradientUnits="userSpaceOnUse" x1="-220.969" y1="602.31" x2="-247.836" y2="587.412" gradientTransform="translate(436.792 -415.382)"><stop offset="0" style="stop-color:#000"/><stop offset="1" style="stop-color:#fff"/></linearGradient><path style="fill:url(#SVGID_36_)" d="M190.3 153h25v53.4h-25z"/></g></mask><path d="M197.7 202.4c1 2.6 2.3 4 4 4-6.2-7.8 4.3-12.1 2.6-21.4-.6-3.5-2.7-6.2-3.9-9.1-3.9-9.4 5.5-16.1 14.9-14-1.5-4.6-5.4-8-10.2-8.7-4.8-.8-9.6 1.2-12.4 5.1-2.8 3.9-3.2 9.1-1 13.4-.8 11.6 1.2 21.8 6 30.7" style="mask:url(#SVGID_35_);fill-rule:evenodd;clip-rule:evenodd;fill:#ff742e"/><path d="M235.8 175.4c1.7-2.7 3.8-9.7 3.2-15.6 5.8 3.6 4.4-9.5-3.6-12.7 1-3.5.3-7.4-2-10.3-4.4-5.7-16.3-6.7-9.8-.2-24.2-13.8-46.5 16.7-33.9 14.8-2.3 5.7-2.6 12-.9 17.9 1.6 5.5 2.9 4.2 2.9 1-.1-5 .1-12.9 10.4-14.9 7.4 7 18.3 8.9 27.7 4.9 6.3 5.9 2.8 20.2 6 15.1" style="fill-rule:evenodd;clip-rule:evenodd;fill:#402000"/><path class="st83" d="M204 194.9c-.2-.2-.2-.4-.2-.6 0-.2.1-.4.3-.6.2-.2.4-.2.6-.2.2 0 .4.1.6.3.8.9 1.8 1.6 2.9 2.1 1.1.5 2.3.9 3.5 1 1.2.1 2.4 0 3.6-.3 1.1-.3 2.2-.9 3.2-1.6.2-.1.4-.2.6-.2.2 0 .4.1.5.3.1.2.2.4.2.6 0 .2-.1.4-.3.5-1.2.9-2.4 1.5-3.7 1.9-1.4.4-2.8.5-4.2.4-1.4-.1-2.8-.5-4-1.1-1.5-.6-2.6-1.4-3.6-2.5"/><path class="st84" d="M218.5 170.1c-.4.1-.7-.2-.8-.6-.1-.4.2-.7.6-.8 2.2-.4 4.4-.2 6.5.4 2.1.7 4 1.8 5.6 3.4.3.3.3.7 0 .9-.3.3-.7.3-.9 0-1.4-1.4-3.2-2.4-5-3-2-.5-4-.6-6-.3M208.9 169.2c.3.1.7-.1.9-.4.1-.3-.1-.7-.4-.9-2.1-.8-4.3-1-6.4-.7-2.1.3-4.2 1.1-6.1 2.3-.3.2-.4.6-.2.9.2.3.6.4.9.2 1.7-1.1 3.5-1.8 5.5-2.1 1.9-.1 3.9.1 5.8.7"/><path class="st85" d="M223.7 177.7c.7.1 1.2.7 1.1 1.4-.1.7-.7 1.2-1.4 1.1-.7-.1-1.2-.7-1.1-1.4.1-.7.7-1.2 1.4-1.1"/><path class="st2" d="M228.2 176.5c1.2.1 2.1 1.2 2 2.3-.1 1.2-1.2 2.1-2.3 2-1.2-.1-2.1-1.2-2-2.3 0-1.2 1.1-2.1 2.3-2M206.4 174.8c1 .1 1.8 1 1.7 2-.1 1-1 1.8-2 1.7-1-.1-1.8-1-1.7-2 .1-1 1-1.7 2-1.7"/><path class="st83" d="M208 199.5c-.1-.1-.1-.3 0-.4.1-.1.3-.1.4 0 .7.8 1.7 1.3 2.8 1.4 1 .1 2.1-.2 3-.8.1-.1.3-.1.4.1.1.1.1.3-.1.4-1 .8-2.2 1.1-3.4 1-1.1-.2-2.2-.7-3.1-1.7"/><path class="st85" d="M202.5 175.8c.7.1 1.2.7 1.1 1.4-.1.7-.7 1.2-1.4 1.1-.7-.1-1.2-.7-1.1-1.4.1-.7.7-1.2 1.4-1.1"/><defs><filter id="Adobe_OpacityMaskFilter_18_" filterUnits="userSpaceOnUse" x="186.1" y="132.9" width="27.4" height="40"><feColorMatrix values="1 0 0 0 0 0 1 0 0 0 0 0 1 0 0 0 0 0 1 0"/></filter></defs><mask maskUnits="userSpaceOnUse" x="186.1" y="132.9" width="27.4" height="40" id="SVGID_37_"><g style="filter:url(#Adobe_OpacityMaskFilter_18_)"><linearGradient id="SVGID_38_" gradientUnits="userSpaceOnUse" x1="-217.266" y1="596.282" x2="-235.303" y2="627.935" gradientTransform="translate(430.422 -466.718)"><stop offset="0" style="stop-color:#000"/><stop offset="1" style="stop-color:#fff"/></linearGradient><path style="fill:url(#SVGID_38_)" d="M186.1 132.9h27.4v40h-27.4z"/></g></mask><path d="M213.5 133.1c-19.7-2.3-34.6 19.9-23.7 18.2-2.3 5.7-2.6 12-.9 17.9 1.6 5.5 2.9 4.2 2.9 1-.1-5 .1-12.9 10.4-14.9 3 2.8 6.4 4.8 10.2 5.9-4.8-3.3-7.7-9-7.1-15.1.4-5.7 3.7-10.4 8.2-13" style="mask:url(#SVGID_37_);fill-rule:evenodd;clip-rule:evenodd;fill:#1f0b00"/><defs><filter id="Adobe_OpacityMaskFilter_19_" filterUnits="userSpaceOnUse" x="219.6" y="132.1" width="22.9" height="44.4"><feColorMatrix values="1 0 0 0 0 0 1 0 0 0 0 0 1 0 0 0 0 0 1 0"/></filter></defs><mask maskUnits="userSpaceOnUse" x="219.6" y="132.1" width="22.9" height="44.4" id="SVGID_39_"><g style="filter:url(#Adobe_OpacityMaskFilter_19_)"><linearGradient id="SVGID_40_" gradientUnits="userSpaceOnUse" x1="-263.62" y1="625.028" x2="-238.504" y2="606.6" gradientTransform="translate(481.887 -461.35)"><stop offset="0" style="stop-color:#000"/><stop offset="1" style="stop-color:#fff"/></linearGradient><path style="fill:url(#SVGID_40_)" d="M219.6 132.1h22.9v44.4h-22.9z"/></g></mask><path d="M235.8 175.4c1.7-2.7 3.8-9.7 3.2-15.6 5.8 3.6 4.4-9.5-3.6-12.7 1-3.5.3-7.4-2-10.3-3-3.9-9.4-5.6-11.2-4.3 7.1 4.2 10.2 13.1 6.8 20.9-1.9 4.3-5.3 7.4-9.4 8.9 3.5 0 6.9-.7 10.2-2.1 6.3 6 2.8 20.3 6 15.2" style="mask:url(#SVGID_39_);fill-rule:evenodd;clip-rule:evenodd;fill:#7d430a"/><defs><filter id="Adobe_OpacityMaskFilter_20_" filterUnits="userSpaceOnUse" x="191.5" y="173" width="14.4" height="17.2"><feColorMatrix values="1 0 0 0 0 0 1 0 0 0 0 0 1 0 0 0 0 0 1 0"/></filter></defs><mask maskUnits="userSpaceOnUse" x="191.5" y="173" width="14.4" height="17.2" id="SVGID_41_"><g style="filter:url(#Adobe_OpacityMaskFilter_20_)"><linearGradient id="SVGID_42_" gradientUnits="userSpaceOnUse" x1="-228.134" y1="626.44" x2="-250.821" y2="617.766" gradientTransform="translate(438.701 -440.368)"><stop offset="0" style="stop-color:#000"/><stop offset="1" style="stop-color:#fff"/></linearGradient><path style="fill:url(#SVGID_42_)" d="M191.5 173h14.4v17.2h-14.4z"/></g></mask><path d="M194 175.3c-.8-1.1-1.6-1.9-2.4-2.3-.2 4.1-.1 8.3.5 12.4 1.2 2.6 3.6 4.3 6.4 4.7 2.8.4 5.6-.7 7.4-2.9-3.4 1.3-7.2.4-9.8-2.1-2.5-2.6-3.4-6.4-2.1-9.8" style="mask:url(#SVGID_41_);fill-rule:evenodd;clip-rule:evenodd;fill:#c41400"/><path class="st22" d="M230.2 175.6c-1.3-1.6-3.2-2.7-5.5-2.8-2.2-.2-4.3.5-5.9 1.8-1.6 1.3-2.7 3.2-2.8 5.5-.2 2.2.5 4.3 1.8 5.9 1.3 1.6 3.2 2.7 5.5 2.8 2.2.2 4.3-.5 5.9-1.8 1.6-1.3 2.7-3.2 2.8-5.5.2-2.2-.5-4.3-1.8-5.9m-22-1.9c-1.3-1.6-3.2-2.7-5.5-2.8s-4.3.5-5.9 1.8c-1.6 1.3-2.7 3.2-2.8 5.5-.2 2.2.5 4.3 1.8 5.9 1.3 1.6 3.2 2.7 5.5 2.8 2.2.2 4.3-.5 5.9-1.8 1.6-1.3 2.7-3.2 2.8-5.5.2-2.2-.5-4.3-1.8-5.9zm16.6-2c2.5.2 4.7 1.4 6.2 3.2.6.8 1.2 1.7 1.5 2.6l3.7-3.1c.2-.2.5-.1.6.1.2.2.1.5-.1.6l-4 3.3c.3 1 .4 2.1.3 3.2-.2 2.5-1.4 4.7-3.2 6.2-1.8 1.5-4.2 2.3-6.7 2.1-2.5-.2-4.7-1.4-6.2-3.2-1.5-1.8-2.3-4.2-2.1-6.7.1-1.1.4-2.2.9-3.2-.2-.3-.5-.6-.9-.8-.4-.3-.9-.4-1.5-.5-.5 0-1.1 0-1.5.2-.4.1-.7.4-1.1.7.3 1 .4 2.1.3 3.2-.2 2.5-1.4 4.7-3.2 6.2-1.8 1.5-4.2 2.3-6.7 2.1-2.5-.2-4.7-1.4-6.2-3.2-1.5-1.8-2.3-4.2-2.1-6.7.1-1 .3-1.9.7-2.8l-4.8-5.7c-.2-.2-.1-.5.1-.6.2-.2.5-.1.6.1l4.6 5.4c.5-1 1.3-1.9 2.1-2.6 1.8-1.5 4.2-2.3 6.7-2.1 2.5.2 4.7 1.4 6.2 3.2.6.8 1.1 1.6 1.5 2.5.3-.2.7-.4 1-.6.6-.2 1.3-.3 1.9-.3.7.1 1.3.3 1.9.6.3.2.6.4.9.7.5-.8 1.2-1.6 1.9-2.2 1.9-1.3 4.2-2.1 6.7-1.9z"/><path class="st74" d="M215.2 186.2c.3-.2.7-.3 1.2-.3 1 .1 1.7 1 1.7 2-.1 1-1 1.7-2 1.6h-.2c-.3 1.4-1.9 2.4-3.7 2.2-1.8-.2-3.2-1.4-3.3-2.9h-.4c-1-.1-1.7-1-1.7-2 .1-1 1-1.7 2-1.6.5 0 .9.3 1.2.6 0-.6.1-1.2.2-1.8.3-1.7.8-3.1 1.4-4.2.6-1.1 1.2-1.7 1.8-1.6.6.1 1.1.8 1.5 1.9.4 1.1.6 2.7.6 4.4-.2.5-.3 1.1-.3 1.7"/><path class="st60" d="m209.3 300.9 16.2 3.6s17.6-1.9 52.7-5.8c-6.7-8.9-9.9-20.1-9-31.3-7.5-15.1-10-32.3-7.1-49 10.4 2.1 18.8 5.6 25.3 10.5 12.2 9.1 13.9 18.4 15 27.2 2 15.9 8.9 24.1 12.7 36.1 3 9.5 7.2 36.2-8.5 36-15.6 8.2-59.2-.8-77.3-3.4-6.6 2.3-13.6 3.6-20.6 3.8-12 7.7-18.1 11.6-18.1 11.6-1 .6-2.2.4-3-.4-.8-.8-1-2-.5-2.9 11-8.8 16.5-13.3 16.5-13.3.3-.3.3-.8.1-1.2-.2-.4-.7-.5-1.1-.3-6.3 2.6-9.4 3.9-9.4 3.9-10.2 5.5-15.3 8.3-15.3 8.3-.9.3-1.9 0-2.4-.8-.6-.8-.6-1.8 0-2.6 9.3-6.7 13.9-10 13.9-10 5.6-2.9 8.4-4.3 8.4-4.3-6.7 2.5-10.1 3.8-10.1 3.8-9 4.7-13.5 7.1-13.5 7.1-1 .7-2.3.5-3.1-.4-.7-.9-.6-2.3.3-3.1 9.3-6.5 13.9-9.8 13.9-9.8 5.7-2.4 8.6-3.6 8.6-3.6.5-.1.8-.6.7-1.1-.1-.5-.5-.9-1-.9-5.1-.2-7.7-.3-7.7-.3-8.7 1.5-13.1 2.2-13.1 2.2-.9 0-1.7-.5-2-1.4-.3-.9.1-1.8.8-2.3 8.9-2.8 13.4-4.2 13.4-4.2 6.6-.5 9.9-.8 9.9-.8l-3.6-2.4 18 1.5"/><path class="st61" d="M197.1 309.2c.4-.1.8.2.9.6.1.4-.2.8-.6.9l-3.1.6h-.1c-.1.1-2.9 1.2-8.4 3.6l-4.3 3c-.3.2-.8.2-1.1-.2-.2-.4-.2-.8.2-1.1l4.3-3c.1 0 .1-.1.2-.1 4.7-2 7.5-3.2 8.6-3.6.1-.1.2-.1.3-.1l3.1-.6z"/><path class="st61" d="M178.8 310.4c-.4.1-.8-.2-.9-.6-.1-.4.2-.8.6-.9l7.4-1.3h.2l9.4.4c.4 0 .8.4.7.8 0 .4-.4.8-.8.7l-9.4-.4-7.2 1.3zM200.2 314.8c.4-.2.8 0 1 .4.2.4 0 .8-.4 1l-12.6 4.9-3.8 2c-.4.2-.8.1-1-.3-.2-.4-.1-.8.3-1l3.8-2h.1l12.6-5zM204.2 320.6c.4-.2.8 0 1 .4.2.4 0 .9-.4 1l-11.1 4.7-4.1 2.2c-.4.2-.8.1-1.1-.3-.2-.4-.1-.8.3-1.1l4.1-2.2h.1l11.2-4.7zM193.7 332.7c-.3.3-.8.2-1.1-.1-.3-.3-.2-.8.1-1.1l10.5-8.5c.3-.3.8-.2 1.1.1.3.3.2.8-.1 1.1l-10.5 8.5z"/><defs><filter id="Adobe_OpacityMaskFilter_21_" filterUnits="userSpaceOnUse" x="260.9" y="220.3" width="40.7" height="77.3"><feColorMatrix values="1 0 0 0 0 0 1 0 0 0 0 0 1 0 0 0 0 0 1 0"/></filter></defs><mask maskUnits="userSpaceOnUse" x="260.9" y="220.3" width="40.7" height="77.3" id="SVGID_43_"><g style="filter:url(#Adobe_OpacityMaskFilter_21_)"><linearGradient id="SVGID_44_" gradientUnits="userSpaceOnUse" x1="-246.118" y1="515.634" x2="-283.417" y2="554.521" gradientTransform="translate(545.263 -275.332)"><stop offset="0" style="stop-color:#000"/><stop offset="1" style="stop-color:#fff"/></linearGradient><path style="fill:url(#SVGID_44_)" d="M260.9 220.3h40.7v77.3h-40.7z"/></g></mask><path d="M261.8 220.3c-2.3 16.7.2 32.5 7.4 47.1.1 10.9 3.8 21 11.2 30.2 6.9-2.3 14.3-2.4 21.2-.5-6.8-.4-12.9-4.3-16.2-10.2-8.6-15.4 7.4-21.9-.2-35.5-4.7-8.4-14.9-13.7-7.8-26.7-5-1.9-10.3-3.4-15.6-4.4" style="mask:url(#SVGID_43_);fill-rule:evenodd;clip-rule:evenodd;fill:#ed401d"/><defs><filter id="Adobe_OpacityMaskFilter_22_" filterUnits="userSpaceOnUse" x="209.4" y="298.1" width="105.9" height="31"><feColorMatrix values="1 0 0 0 0 0 1 0 0 0 0 0 1 0 0 0 0 0 1 0"/></filter></defs><mask maskUnits="userSpaceOnUse" x="209.4" y="298.1" width="105.9" height="31" id="SVGID_45_"><g style="filter:url(#Adobe_OpacityMaskFilter_22_)"><linearGradient id="SVGID_46_" gradientUnits="userSpaceOnUse" x1="-207.158" y1="525.372" x2="-198.582" y2="564.084" gradientTransform="translate(466.11 -226.902)"><stop offset="0" style="stop-color:#000"/><stop offset="1" style="stop-color:#fff"/></linearGradient><path style="fill:url(#SVGID_46_)" d="M209.4 298.1h105.9v31H209.4z"/></g></mask><path d="M229.7 323.3c-8 2.3-14.8 3.5-20.4 3.6 9.5-9.9 16.9-8.6 26.8-5.7 4.2 1.2 8.5 2 12.7.7 7.9-2.6 13.5-10.1 26.3-9.3 14.5.9 31.4 7.8 38.8-14.4 3.3 17.9.6 27.2-8 28-8.9 3.9-26.2 4-51.9.5-16.2-2.3-24.3-3.4-24.3-3.4" style="mask:url(#SVGID_45_);fill-rule:evenodd;clip-rule:evenodd;fill:#ed401d"/><defs><filter id="Adobe_OpacityMaskFilter_23_" filterUnits="userSpaceOnUse" x="197.2" y="295.7" width="103.2" height="18.5"><feColorMatrix values="1 0 0 0 0 0 1 0 0 0 0 0 1 0 0 0 0 0 1 0"/></filter></defs><mask maskUnits="userSpaceOnUse" x="197.2" y="295.7" width="103.2" height="18.5" id="SVGID_47_"><g style="filter:url(#Adobe_OpacityMaskFilter_23_)"><linearGradient id="SVGID_48_" gradientUnits="userSpaceOnUse" x1="-210.618" y1="594.604" x2="-184.266" y2="507.094" gradientTransform="translate(447.413 -249.79)"><stop offset="0" style="stop-color:#000"/><stop offset="1" style="stop-color:#fff"/></linearGradient><path style="fill:url(#SVGID_48_)" d="M197.2 295.7h103.2v18.5H197.2z"/></g></mask><path d="M209.3 300.9c-8-.6-12.1-.9-12.1-.9 4.8 9.8 10.7 8.2 17.7 7.5 13.8-1.3 18.6 8.6 30.4 6.5 9.5-1.7 14.4-10.9 25.9-9.2 10 1.5 19.9 7.9 29.1-6.3-5.3-3.7-12.7-3.7-22.2.2-5.6.6-11.5 1.3-17.7 2-11.1 1.2-22.7 2.5-35 3.9-6.4-1.5-11.8-2.7-16.1-3.7" style="mask:url(#SVGID_47_);fill-rule:evenodd;clip-rule:evenodd;fill:#fff4cf"/><defs><filter id="Adobe_OpacityMaskFilter_24_" filterUnits="userSpaceOnUse" x="288.1" y="230.1" width="28.1" height="66.9"><feColorMatrix values="1 0 0 0 0 0 1 0 0 0 0 0 1 0 0 0 0 0 1 0"/></filter></defs><mask maskUnits="userSpaceOnUse" x="288.1" y="230.1" width="28.1" height="66.9" id="SVGID_49_"><g style="filter:url(#Adobe_OpacityMaskFilter_24_)"><linearGradient id="SVGID_50_" gradientUnits="userSpaceOnUse" x1="-314.51" y1="576.23" x2="-273.298" y2="525.518" gradientTransform="translate(587.084 -276.22)"><stop offset="0" style="stop-color:#000"/><stop offset="1" style="stop-color:#fff"/></linearGradient><path style="fill:url(#SVGID_50_)" d="M288.1 230.1h28.1V297h-28.1z"/></g></mask><path d="M309.9 279.9c3.3 6.8 5.4 12.5 6.3 17-14 1.6-25.6-11.6-21.2-25.3 2.3-7.3 7-13.5-.7-23.3-3.8-4.8-8.1-9.2-5.4-18.1 6.8 5.5 10.8 12 12.2 19.4.4 1.7.7 3.5.9 5.6.7 6.5 2.4 12.7 5 18.7 1 1.8 1.9 3.8 2.9 6" style="mask:url(#SVGID_49_);fill-rule:evenodd;clip-rule:evenodd;fill:#fff4cf"/><path class="st61" d="M261.6 301.6c-.6.1-1.1-.3-1.1-.9-.1-.6.3-1.1.9-1.1l16.5-1.8c3.6-1.7 7.5-2.6 11.4-2.8 4-.2 8 .3 11.8 1.7.5.2.8.8.6 1.3s-.8.8-1.3.6c-3.6-1.2-7.3-1.8-11-1.6-3.7.2-7.3 1.1-10.7 2.7-.1.1-.2.1-.4.1l-16.7 1.8z"/><path class="st2" d="M296.5 216.4c.5 0 .8.5.8.9 0 .5-.5.8-.9.8-.5 0-.8-.5-.8-.9 0-.5.4-.9.9-.8M333.1 204.3c.5 0 .8.5.8.9 0 .5-.5.8-.9.8-.5 0-.8-.5-.8-.9 0-.5.4-.9.9-.8M118.9 221.8c.5 0 .8.5.8.9 0 .5-.5.8-.9.8-.5 0-.8-.5-.8-.9 0-.5.4-.9.9-.8M156.2 272.6c.5 0 .8.5.8.9 0 .5-.5.8-.9.8-.5 0-.8-.5-.8-.9 0-.5.4-.8.9-.8M224.2 296.1c.6.1 1.1.6 1 1.2-.1.6-.6 1.1-1.2 1-.6-.1-1.1-.6-1-1.2 0-.6.6-1.1 1.2-1M293.2 313.1c.6.1 1.1.6 1 1.2-.1.6-.6 1.1-1.2 1-.6-.1-1.1-.6-1-1.2.1-.6.6-1 1.2-1M245.6 208.1c.6.1 1.1.6 1 1.2-.1.6-.6 1.1-1.2 1-.6-.1-1.1-.6-1-1.2 0-.6.6-1 1.2-1M176.4 196.9c.4 0 .6.4.6.7 0 .4-.4.6-.7.6-.4 0-.6-.4-.6-.7 0-.4.3-.6.7-.6M421.9 223.9c.9.1 1.6.9 1.5 1.8-.1.9-.9 1.6-1.8 1.5-.9-.1-1.6-.9-1.5-1.8.1-.8.9-1.5 1.8-1.5M402.3 152.7c1.2.1 2.1 1.2 2 2.4-.1 1.2-1.2 2.1-2.4 2-1.2-.1-2.1-1.2-2-2.4.1-1.2 1.2-2.1 2.4-2M168.6 156c1.2.1 2.1 1.2 2 2.4-.1 1.2-1.2 2.1-2.4 2-1.2-.1-2.1-1.2-2-2.4.1-1.2 1.2-2.1 2.4-2M504.6 140.1c.9.1 1.6.9 1.5 1.8-.1.9-.9 1.6-1.8 1.5-.9-.1-1.6-.9-1.5-1.8.1-.9.9-1.6 1.8-1.5M156.5 140c.5 0 .8.5.8.9 0 .5-.5.8-.9.8-.5 0-.8-.5-.8-.9.1-.5.5-.9.9-.8M385.2 218.3c.5 0 .8.5.8.9 0 .5-.5.8-.9.8-.5 0-.8-.5-.8-.9.1-.5.5-.9.9-.8M458.9 103.3c1.2.1 2.1 1.2 2 2.4-.1 1.2-1.2 2.1-2.4 2-1.2-.1-2.1-1.2-2-2.4.1-1.2 1.1-2.1 2.4-2M390 60.8c.6.1 1.1.6 1 1.2-.1.6-.6 1.1-1.2 1-.6-.1-1.1-.6-1-1.2 0-.6.6-1.1 1.2-1M486.5 62.7c.6.1 1.1.6 1 1.2-.1.6-.6 1.1-1.2 1-.6-.1-1.1-.6-1-1.2 0-.6.6-1.1 1.2-1M148.4 286.2c.9.1 1.6.9 1.5 1.8-.1.9-.9 1.6-1.8 1.5-.9-.1-1.6-.9-1.5-1.8 0-.9.8-1.6 1.8-1.5"/></svg>