<svg xmlns="http://www.w3.org/2000/svg" viewBox="0 0 618 618" style="enable-background:new 0 0 618 618" xml:space="preserve"><circle cx="309" cy="309.3" r="67.7" style="fill:#0b0b0c"/><path d="M309 242.1c37.1 0 67.2 30.2 67.2 67.2S346 376.5 309 376.5s-67.2-30.2-67.2-67.2 30.1-67.2 67.2-67.2m0-1c-37.7 0-68.2 30.5-68.2 68.2s30.5 68.2 68.2 68.2 68.2-30.5 68.2-68.2-30.5-68.2-68.2-68.2z" style="fill:#3c3c42"/><path d="m58.5-150.1-4.8-8.4-4.8 8.4H32.7l21-36.4 21 36.4H58.5z" style="fill:#4dba87" transform="matrix(1.33333 0 0 -1.33333 237.417 86.655)"/><path d="m58.5-150.1-4.8-8.4-4.8 8.4h-7.7l12.6-21.8 12.6 21.8h-7.9z" style="fill:#435466" transform="matrix(1.33333 0 0 -1.33333 237.417 86.655)"/></svg>