<svg version="1.1" id="Layer_1" xmlns="http://www.w3.org/2000/svg" x="0" y="0" viewBox="0 0 256.6 489" style="enable-background:new 0 0 256.6 489" xml:space="preserve"><style>.st0{fill:#f5cfbf}.st2{fill:#f29d9d}.st3{fill:#e32b6b}.st6{fill:#c3b9dd}.st7{fill:#1a1a1a}.st8{fill:#0d1d7e}</style><path class="st0" d="M112.3 125.9c-2.1-7.8-1-51.6-1-51.6L77 75.6s-.4 43.2-1.3 50.1c-.9 6.9-12.7 9.7-26.6 16.7-1.9 1-4 3.2-5.9 4.8 2.2 5 48.4 21.9 51.7 26.2 3.6 4.8 37.9-20.6 41.9-31.6-16.1-8.8-22.5-8.5-24.5-15.9z"/><path d="m109.5 73.6-31.7 1.2s-.1 10.1-.4 22.4c2.4 5.7 7.3 14.9 15.8 14.8 9.8-.2 12.8-8.7 15.9-13.7 0-13 .4-24.7.4-24.7z" style="opacity:.61;fill:#cbc7ff"/><path class="st0" d="M85.7 74.6c-.4 6.1-5.8 10.8-11.9 10.3-6.2-.4-10.8-5.7-10.4-11.9s5.8-10.8 11.9-10.3c6.2.4 10.8 5.7 10.4 11.9z"/><path class="st2" d="M80.4 74.2c-.2 3.2-3 5.7-6.3 5.4-3.2-.2-5.7-3-5.4-6.3.2-3.2 3-5.7 6.3-5.4 3.2.3 5.6 3.1 5.4 6.3z"/><path class="st3" d="M67.7 70.9c-5.1-4.5-6.3-20.5 3.1-27 3.4-2.4 8-3.2 9-6.5 1.8-6.5 11.8-11.4 19.1-7.7 9.4 4.7 14 1.1 19.4-4.4 5.8-5.9 9.5-12.2 25.6-9.4 16.1 2.8 20.8.9 23.8-6.7 3-7.7 17.7-13.9 31.4-4.4 13.6 9.5 18 17 27.2 13.6 9.2-3.4 18.5-8.7 26.7-.2s1.5 25.2-9.2 25c-10.7-.2-5.3 12.5-2.5 20.1 2.9 7.6-5.1 19.3-18.5 14.6-13.4-4.7-16.4-.8-20.8 6.2-4.4 7-15.8 6.7-21.4 2.5-5.6-4.1-12.3-7.4-20.3-2.5s-10.6 8-20 4c-9.4-3.9-11.2-2.5-16.6.3-5.3 2.8-16-1.2-16-1.2l-40-16.3z"/><path d="m94.4 75.9-.7-8.2 31.3 2c12.5-7.3 15.5-7.2 25.4-4.7 9.9 2.6 8.6-9.1 19-12.6s12.4 5.8 22 5.5c9.6-.3 6.7-9.7 18.9-9 11.5.7 12.9 9.3 29 9.1.7 1.9 1.4 3.7 2 5.3 2.9 7.6-5.1 19.3-18.5 14.6-13.4-4.7-16.4-.8-20.8 6.2-4.4 7-15.8 6.7-21.4 2.5-5.6-4.1-12.3-7.4-20.3-2.5s-10.6 8-20 4c-9.4-3.9-10.9-3-16.2-.2-5.3 2.8-15.7.3-15.7.3l-14-12.3z" style="opacity:.71;fill:#e1deff"/><circle transform="rotate(-1.229 113.82 73.795) scale(1.00003)" class="st0" cx="113.8" cy="73.8" r="11.1"/><path class="st2" d="M108 74.2c.2 3.2 3 5.7 6.3 5.4 3.2-.2 5.7-3 5.4-6.3-.2-3.2-3-5.7-6.3-5.4-3.2.3-5.7 3.1-5.4 6.3z"/><path class="st0" d="M73.1 78.5c1.1 15.7 6.5 27 22.4 26.7 10-.2 18.4-11.2 18.3-26.9-.1-16.5-3.5-29.7-22.1-29.7-18 .1-19.7 14.3-18.6 29.9z"/><path class="st2" d="M100.6 87.3c.2 2.7 2.5 4.7 5.2 4.5 2.7-.2 4.7-2.5 4.5-5.2-.2-2.7-2.5-4.7-5.2-4.5-2.6.2-4.7 2.5-4.5 5.2zM76.3 87.2c.2 2.7 2.5 4.7 5.2 4.5 2.7-.2 4.7-2.5 4.5-5.2-.2-2.7-2.5-4.7-5.2-4.5-2.6.2-4.6 2.5-4.5 5.2zM93.7 78.3l-3.8 7.5c-.5.9.2 1.9 1.2 1.9l4.5.1-1.9-9.5z"/><path d="M124.6 76.6c-9 3.7-13.4.4-17.6-2-4.2-2.4-3.7-13.9-9.8-15.8-6.2-1.9-7.7 3-14.3 1.3-7.7-2-9.3 2.7-9.3 2.7S73.4 57 84.8 53s24.4-4.1 31.2 2.9c2.2 2.3 2.1 5.8 4.6 8.1 6.2 5.5 4 12.6 4 12.6z" style="opacity:.58;fill:#cbc7ff"/><path class="st6" d="M109.8 73c-.5-.1-1.1-.2-1.6-.3l-1.5-.3c-1-.1-2-.2-3-.2s-2 .1-3 .3c-1 .2-2 .5-2.9.9h-.1c-.2.1-.5 0-.5-.2-.1-.2 0-.3.1-.5.8-.9 1.9-1.4 3-1.8 1.1-.4 2.3-.6 3.4-.6 1.2 0 2.3.2 3.4.5.6.1 1.1.4 1.6.6.5.2 1 .5 1.5.8.2.1.3.4.1.6-.1.1-.3.2-.5.2z"/><path class="st7" d="M100.8 78.3c.7.1 1.3.3 2 .4.7.1 1.3.1 1.9.1.6 0 1.3-.1 1.9-.2.6-.1 1.3-.3 1.8-.6.1-.1.3 0 .4.1.1.1 0 .2 0 .3-1.1 1.1-2.6 1.6-4.1 1.6-.7 0-1.5-.1-2.2-.3-.4-.1-.7-.2-1-.4-.3-.2-.6-.3-.9-.5-.1-.1-.2-.3-.1-.4.1 0 .2-.1.3-.1zM79 78.3c.7.1 1.3.3 2 .4.7.1 1.3.1 1.9.1.6 0 1.3-.1 1.9-.2.6-.1 1.3-.3 1.8-.6.1-.1.3 0 .4.1.1.1 0 .2 0 .3-1.1 1.1-2.6 1.6-4.1 1.6-.7 0-1.5-.1-2.2-.3-.4-.1-.7-.2-1-.4-.3-.2-.6-.3-.9-.5-.1-.1-.2-.3-.1-.4 0 0 .2-.1.3-.1z"/><path class="st6" d="M88.8 72.7c-.5-.1-.9-.2-1.4-.2-.5-.1-.9-.2-1.4-.2-.9-.1-1.8-.2-2.7-.2-.9 0-1.8 0-2.6.2-.9.1-1.7.4-2.5.7h-.1c-.2.1-.5 0-.5-.2-.1-.2 0-.3.1-.4.8-.8 1.7-1.3 2.7-1.6 1-.3 2-.4 3-.4s2 .2 3 .5c.5.1.9.3 1.4.5.4.2.9.5 1.3.7.2.1.3.4.1.6-.1-.1-.2 0-.4 0z"/><path class="st2" d="M88.4 92.3c0 .7 2.6 1.4 5.7 1.4 3.1-.1 5.6-.7 5.6-1.6 0-1.1-2.5.2-5.6.2-3.2.1-5.7-1.1-5.7 0z"/><path class="st8" d="M71.9 94.8c-.3 0-.6-.2-.6-.6V82.4c0-.3.2-.6.6-.6.3 0 .6.2.6.6v11.8c-.1.3-.3.6-.6.6zM115.2 95.3c-.3 0-.6-.2-.6-.6V82.9c0-.3.2-.6.6-.6.3 0 .6.2.6.6v11.8c0 .3-.3.6-.6.6z"/><path class="st3" d="M124.8 69.7c-9 3.7-12.6 4.7-16.8 2.3-4.2-2.4-3.7-13.9-9.8-15.8-6.2-1.9-7.6 3.7-14.4 2.9-7.3-.9-10.5 2.3-10.5 2.3s-2.4-10.8 9-14.9 27.9-.4 34.7 6.7c6.7 7.1 7.8 16.5 7.8 16.5z"/><path class="st8" d="M56 315.5c-20.9 0-26.2-22-21.8-44.7 5.3-26.5 31.8-39.2 56.4-39.2s50.4 15.2 57.3 41.3c5.4 20.3-1.8 42.6-22.7 42.6H56z"/><path d="M121.8 314.2H54.6c-4.6 0-8.4-3.8-8.4-8.4v-20.7c0-4.6 3.8-8.4 8.4-8.4h67.1c4.6 0 8.4 3.8 8.4 8.4v20.7c.1 4.6-3.7 8.4-8.3 8.4z" style="fill:#292969"/><path d="M68.5 132.8s-20.9 7.6-28.3 15.3c-6.2 6.5-8.8 10.7-8.8 10.7l21.4 69.4h75.9l26.6-69.6s-5.8-10.6-18.8-17.6c-12.9-7-16.6-7.7-18.1-8.6 0 0-18.5 22.6-23.3 22.8-4.6.3-26.6-22.4-26.6-22.4z" style="fill:#7a56e0"/><path class="st3" d="M95.2 157.3c5.8.1 22.2-20.9 24.8-24.2-.7-.3-1.1-.5-1.5-.7 0 0-18.5 22.6-23.3 22.8-4.8.2-26.7-22.5-26.7-22.5s-.6.2-1.6.6c2.4 2.6 22.5 23.9 28.3 24z"/><path class="st0" d="M31.9 158.9c3.2 12.3 15.2 13.6 17.3 29.6C38.7 207.8 28 236.6 28 236.6s40.7 2 57.1 7l-.4 19.4H18.3c-14.6 0-21.5-9.9-16.8-32.3 5.9-28.2 21.8-59.7 30.4-71.8zM154.6 158.9c-1 12.5-20.7 21.2-17.3 29.6 7.7 19.1 19.9 48.6 19.9 48.6s-40.3-1.1-55.3 3.6V263h66.3c14.5 0 21.7-10.9 16.5-33.2-5.2-21.8-15.5-50.4-30.1-70.9zM49.2 279.9C65.5 277.4 72 293.2 78 318s21.6 91.2 29.4 114c7.2 21-1.2 14.4-4.8 25.8-3.3 10.6-8.8 18.5-16.8 18.9-5.7.3-.1-17.1 6.3-30.3-.9-12.4-13.8-36.4-33.9-79.8-19.8-42.8-20.2-49.6-21.4-64-1.2-14.4 6.4-21.8 12.4-22.7z"/><path class="st2" d="M45.8 294.3c0 3.9 3.1 7 7 7s7-3.1 7-7-3.1-7-7-7-7 3.1-7 7zM4.9 249c-1.5 0-2.9.4-4.1 1.2 1.4 6.2 5 10.1 10.2 11.8 1.2-1.4 1.8-3.1 1.8-5.1 0-4.4-3.6-7.9-7.9-7.9zM185.3 251.1c-1.3-.9-2.8-1.4-4.5-1.4-4.4 0-7.9 3.5-7.9 7.9 0 1.7.6 3.4 1.5 4.7 5.4-1.6 9.2-5.3 10.9-11.2z"/><path d="M106.5 279.3c15.3 0 15 30.3 14.1 46.5-.9 16.2-10.5 67.2-22.5 101.7S84.3 467.7 84 477.6c-.3 9.9-11.4 11.7-18.9 11.4-7.5-.3-7.5-2.1.3-23.4 7.8-21.3 17.7-81.3 19.5-116.7 1.8-35.4-6-69.6 21.6-69.6z" style="fill:#f8dbd0"/><path class="st2" d="M96.8 294.6c0 3.9 3.1 7 7 7s7-3.1 7-7-3.1-7-7-7-7 3.1-7 7z"/><path class="st8" d="M34 291.7c6.4-10.7 77.6-10.9 99.1-1.4l-1.4-30.3-91.4 1.7-6.3 30z"/><path d="M137.5 262.3H38.6c-3.4 0-6.2-2.8-6.2-6.2V194c0-3.4 2.8-6.2 6.2-6.2h98.9c3.4 0 6.2 2.8 6.2 6.2v62.1c.1 3.4-2.7 6.2-6.2 6.2z" style="fill:#80a9fd"/><path d="M143.8 263.7H32.4v-68.3c0-3.4 2.8-6.2 6.2-6.2h98.9c3.4 0 6.2 2.8 6.2 6.2v68.3z" style="fill:#4580fc"/><path d="M143.8 263.7H32.4v2.2c0 .7.6 1.4 1.4 1.4h108.7c.7 0 1.4-.6 1.4-1.4v-2.2z" style="fill:#103fcd"/><circle transform="rotate(-80.781 87.612 226.19)" cx="87.6" cy="226.2" style="fill:#246afc" r="9.8"/></svg>