<svg version="1.1" id="Layer_1" xmlns="http://www.w3.org/2000/svg" x="0" y="0" viewBox="0 0 438.8 285.6" style="enable-background:new 0 0 438.8 285.6" xml:space="preserve"><style>.st2{fill:#d8b4a7}.st3{fill:#f5cfbf}.st5{fill:#d6b88d}.st6{fill:#f29d9d}.st8{fill:#292969}.st12{fill:#5010b5}</style><path d="M435.8 285.6H3.1c-1.7 0-3.1-1.8-3.1-4s1.4-4 3.1-4h432.7c1.7 0 3.1 1.8 3.1 4-.1 2.2-1.4 4-3.1 4z" style="fill:#8da7e1"/><path d="M156 97.9c8.2 20.1 11.4 48.7 12.4 69.1l-44.3 4.4L156 97.9z" style="fill:#6614db"/><path class="st2" d="M281.4 162.3s-3.5-8.7-20.6-7.5c-14.8 1-72.5 10.4-87.4 12.8-5.8 9-11.8 18-18.1 26.7 26.4 9.9 81.6-17.9 90.3-20.4 9.8-2.8 14.7-4.8 19.4-5.1s7.6 1.7 8.3.6c.7-1.2-3.6-4.1-3.6-4.1 1.9.2 6.8 4.1 7.3 2.6s-4.4-4.6-4.4-4.6c2.3.2 5.9 4.1 7 3.2 1.2-.9-2.9-5-2.9-5l4.7.8z"/><path class="st3" d="M110.9 94.8c4.4 15.8 24.3 22.7 29.2 22.5 8.9-.5 4.9 2.4 10.9-3-1.2-17-3-21 .4-27.1 3.7-6.7 32.1-34.4 32.1-34.4L159.4 31s-27.5 27.8-32.7 31.9c-3.1 2.5-13.5 3.4-18.9 5.3-1.9 9.6.5 17.1 3.1 26.6z"/><path d="M160.6 70.6c1 .9 2.1 1.7 3.1 2.3 9-10 17.7-19.3 17.7-19.3l-17.7-15.1c-9 11.8-11.5 25-3.1 32.1z" style="opacity:.58;fill:#cbc7ff;enable-background:new"/><path class="st5" d="M166.7 4.3c-7.2 4.7-17.2 8.4-13.3 32.5l11.4 2.8 5.8-23.8-3.9-11.5z"/><path class="st3" d="M198.6 53.5c-5 8-12.2 17.5-19.2 19.3-4.6 1.2-8.4-1.3-15.3-8.4-6.7-6.9-9.3-19.9-.9-33.2s18.5-22 32.9-12.9c15.8 9.9 10.9 21.8 2.5 35.2z"/><path d="M195 45.6c-.5.7-1.4 1-2.2.5-.7-.5-1-1.4-.5-2.2s1.4-1 2.2-.5 1 1.4.5 2.2z"/><path class="st6" d="M165.9 45.4c-5.2-3.3-6.8-10.2-3.5-15.4s10.2-6.8 15.4-3.5l-11.9 18.9z"/><path d="M168.7 40.9c-2.7-1.7-3.6-5.4-1.8-8.1 1.7-2.7 5.4-3.6 8.1-1.8l-6.3 9.9z" style="fill:#bd422a"/><path class="st6" d="M188.9 51.8c-1.4 2.3-4.5 3-6.7 1.5-2.3-1.4-3-4.5-1.5-6.7 1.4-2.3 4.5-3 6.7-1.5 2.3 1.4 3 4.4 1.5 6.7zM200.1 47.5l1 11.3c.1 1.3-1.2 2.3-2.5 1.8l-5.7-2.2 7.2-10.9z"/><path class="st5" d="m176.5 28.9-4.8 7.3 2.5 1.8c1-1.9 4.3-6.1 5.4-7.5l-3.1-1.6z"/><path class="st5" d="M209.4 14.7c-4-7.5-10.8-6.3-23.8-12.6-14.9-7.2-25 5.7-27.2 12.3-3.9 12 14.4 16.7 19 17.4 6.2.9 11.9-3.5 18.3-9.7 0 0 5.3.8 10.9 11 5-.7 8.9-7 2.8-18.4z"/><path class="st6" d="M192 36.4c1.8.2 3.5.8 5.1 1.7.8.4 1.5 1 2.2 1.6.3.3.7.6 1 1 .1.2.3.4.4.6l.2.3.1.1v.1h-.2c-.1 0-.3 0-.4.1.2-.2.5-.1.7.1.2.2.1.5-.1.7-.1.1-.3.1-.4.1-.2 0-.1-.1-.2-.1 0 0-.1 0-.1-.1l-.2-.1-.9-.6c-.3-.2-.7-.4-1-.7l-2.1-1.2-2.2-1.2c-.7-.4-1.5-.8-2.2-1.3-.2-.2-.3-.5-.1-.7.1-.4.2-.4.4-.4zM189.9 63.3c.3.3.7.6 1 .9-.3.4-.6.8-1 1.3-.5-.4-1-.8-1.5-1.3-1.8-1.7-2.7-3.5-1.9-4 .7-.4 1.6 1.4 3.4 3.1z"/><path class="st2" d="M232.2 224.5c1.5 8.3 8.5 42.8 8.6 49.9.1 6.1 16.5 3.2 27.7 3.3 14.3.1 28.2 2.2 27.5-2.8-.5-3.3-23.1-2.7-34.1-18.2l-5.9-30.1-23.8-2.1z"/><path class="st8" d="M123.7 192.8c14-20.5 48.8-78.8 88.4-74.8 36.2 3.7 50.5 110.4 50.5 110.4l-33.8 10.7-23.7-75-65.9 91.5-45.3-17.4 29.8-45.4z"/><path d="M207.5 138.4c22.5.7 36.6 91.8 37.1 95.7l-1.3.2c0-.2-3.6-23.9-9.9-47.2-8.2-30.7-17.2-47-25.9-47.3h-.3c-21.6 0-64.8 74.3-65.3 75l-1.2-.7c1.9-3.1 44.5-76.4 66.8-75.7z" style="opacity:.16;enable-background:new"/><path class="st8" d="M17.7 191.5c-8.9 31-10.9 79.5 20.1 86.3 17 3.8 39.2 1.4 96.5 1.7 56.6.3 93.4 3.1 93.1-28-.3-31-68.9-23.2-83.5-24.6-14.7-1.4-82.5-2-82.5-2l-43.7-33.4z"/><path d="M151.2 87.7s-4.2 7.2-17.7.2c-13.7-7.1-19.3-22.5-19.3-22.5s-41.9 8.9-70.6 61.7c-18.2 33.6-32.7 81.8-32.7 81.8s19.6 23.8 98.7 16.6c0 0 23.8-45.2 36-67.1s22.3-40 5.6-70.7z" style="fill:#8217fd"/><path d="m317.8 125-.5-.2-20.4 65.7h-70.7v.7c0 1.8 1.5 3.3 3.3 3.3h67.4c1.9 0 3.5-1.4 3.9-3.2l19.3-62.1c.5-1.8-.5-3.7-2.3-4.2z" style="fill:#0d1d7e"/><path class="st3" d="M131.3 115.8c7.1 15.7 25.4 85.8 25.4 85.8s69.3-28.3 85.7-33.2 21.7 2.7 21.7 2.7l-4.6.3s4.9 3.1 4 4.2c-1 1.1-5.3-1.9-7.6-1.5 0 0 5.5 1.9 5.3 3.5-.1 1.6-5.9-1.2-7.7-.9 0 0 4.8 1.9 4.4 3.2-.5 1.3-3.8-.1-8.3 1.3-4.5 1.3-8.8 4.4-17.8 9.3s-68.5 54.4-93.3 36.1c-24.7-18.3-54-84.1-52.6-105.9 1.8-27.9 31.8-34.7 45.4-4.9z"/><path class="st6" d="M138.9 227c-2-1.4-3.9-3.2-5.5-5.3.2-.3.4-.6.6-.8 2.7-3 7.4-3.2 10.4-.5 2.7 2.5 3.1 6.5 1.2 9.5-2.5-.6-4.7-1.5-6.7-2.9z"/><path class="st12" d="m62.2 226.4.7.1c3.4-16.9 21.7-70.6 28.6-82.2l-.6-.3c-7 11.6-25.3 65.4-28.7 82.4z"/><path d="M150.7 179.1c-.1-.5-.3-.9-.4-1.4l-6.4-7-37.1 8.4 3.2 10.5 3.6 6.3c20.4-3.7 34.3-14.5 37.1-16.8z" style="opacity:.7;fill:#cbc7ff;enable-background:new"/><path d="M152.3 177.6c-6.5-23.5-15.2-54.1-19.8-64.1C117.7 81 85 88.4 83.1 118.7c-.9 14.2 10.1 45.4 24.8 72.5 12.5-1.4 36.6-9.6 44.4-13.6z" style="fill:#8b41f7"/><path d="m208.9 277.8 5.1-61.6c.7-8.3 7.7-14.8 16.1-14.8h112.4c8.3 0 15.4 6.5 16.1 14.8l5.2 61.6h6.8l-5.2-62.2c-1-11.8-11-21-22.9-21H230.1c-11.8 0-21.9 9.2-22.9 21.1l-5.1 62.1h6.8z" style="fill:#ffcb8a"/><path class="st12" d="m103.6 183.6.1.7c17.8-2.5 46.4-13.5 46.7-13.7l-.2-.6c-.3.1-28.9 11.1-46.6 13.6zM153.4 92.4c0 .1-2.6 5.2-17.1 3-14-2.1-24-15.8-27.7-28.4l-.7.2c1.5 5.2 4.1 10.5 7.5 15.2-5.8 2.2-10.5 6.9-10.9 7.2-1.9.1-3.9.5-5.8 1.1-9.6 2.8-13.5 11.8-15.1 18.8-2.1 9.3-1.1 18.9.5 24.2l.7-.2c-3.7-12.5-2.2-37.3 14.1-42.1 7.2-2.1 14.9-1.2 21.9 2.7 6.7 3.8 10.6 9 11.6 12.5l.7-.2c-1.2-4.4-5.9-9.6-11.9-12.9-4.9-2.8-10.3-4.1-15.6-3.9 1.5-1.4 5.5-4.8 10.2-6.6 5.1 6.7 12 11.9 20.3 13.1 2.6.4 4.9.6 6.8.6 9.2 0 11-3.7 11.1-3.9l-.6-.4z"/></svg>