<svg version="1.1" id="Layer_1" xmlns="http://www.w3.org/2000/svg" x="0" y="0" viewBox="0 0 292.2 248.9" style="enable-background:new 0 0 292.2 248.9" xml:space="preserve"><style>.st0{fill:#f5cfbf}.st1{fill:#f8dbd0}</style><path class="st0" d="M252.4 15.1c-2.5 9.1-4.9 25.8.2 27.8 5 2 6.6-3.2 6.6-3.2s1.4 6.6 6.5 6.2c4.8-.3 5.6-4.7 5.6-4.7s2.7 4.3 7 3.1c3.3-.9 4.9-6.8 4.9-6.8s3.6 1.8 6.2-2 3.8-20.3 1.7-24.6c-2.1-4.3-7.7 5.6-8.1 17.9 0 0 2-22.7-3.7-24.5-4.8-1.5-7.5 23.6-7.5 23.6s2.8-26.5-2.9-27.9-8.3 26.4-8.3 26.4 1.8-17.9-2.4-19.2c-4.1-1.3-5 4.9-5.8 7.9z"/><path class="st1" d="M271.3 3.4c-.2 1.3-.6 3.1-1.8 3.8-1.5.8-3-.5-3.4-1.9-.3-1-.3-2.1-.1-3.2.9-1.5 1.8-2.3 2.9-2 1.1.3 1.9 1.4 2.4 3.2v.1zM291.1 11c.4.9.7 2.2.9 3.8-.4.8-1.1 1.4-2.3 1.2-2.1-.3-2.2-2.6-1.9-4.6 1.3-1.7 2.5-2 3.3-.4zM256.3 13.7c-2.2-.6-1.9-3.1-1.6-5.2.8-1.2 1.9-1.8 3.6-1.3.3.1.5.2.7.5.4 2.3.4 6.9-2.7 6zM281.7 8.4c-.2 1.5-1.3 3.5-3.2 2.9-1.7-.5-2-2.8-2-4.8.8-1.6 1.7-2.4 2.8-2.1 1.1.3 1.9 1.4 2.5 2.9 0 .3-.1.7-.1 1.1z"/><path class="st0" d="M39.8 15.1c2.5 9.1 4.9 25.8-.2 27.8-5 2-6.6-3.2-6.6-3.2s-1.4 6.6-6.5 6.2c-4.8-.3-5.6-4.7-5.6-4.7s-2.7 4.3-7 3.1c-3.3-.9-4.9-6.8-4.9-6.8s-3.6 1.8-6.2-2S-1.1 15.3 1.1 11c2.1-4.3 7.7 5.6 8.1 17.9 0 0-2-22.7 3.7-24.5C17.7 2.9 20.4 28 20.4 28S17.6 1.4 23.2.1s8.3 26.4 8.3 26.4-1.7-18 2.4-19.3 5.1 4.9 5.9 7.9z"/><path class="st1" d="M20.9 3.4c.2 1.3.6 3.1 1.8 3.8 1.5.8 3-.5 3.4-1.9.3-1 .3-2.1.1-3.2-.9-1.5-1.8-2.3-2.9-2-1.1.3-1.9 1.4-2.4 3.2-.1 0 0 .1 0 .1zM1.1 11c-.4.9-.7 2.2-.9 3.8.4.8 1.1 1.4 2.3 1.2 2.1-.3 2.2-2.6 1.9-4.6-1.3-1.7-2.5-2-3.3-.4zM35.9 13.7c2.2-.6 1.9-3.1 1.6-5.2-.8-1.2-1.9-1.8-3.6-1.3-.3.1-.5.2-.7.5-.4 2.3-.4 6.9 2.7 6zM10.5 8.4c.2 1.5 1.3 3.5 3.2 2.9 1.7-.5 2-2.8 2-4.8-.8-1.6-1.7-2.4-2.8-2.1-1.1.3-1.9 1.4-2.5 2.9 0 .3 0 .7.1 1.1z"/></svg>