<svg version="1.1" id="Layer_1" xmlns="http://www.w3.org/2000/svg" x="0" y="0" viewBox="0 0 365.2 488.3" style="enable-background:new 0 0 365.2 488.3" xml:space="preserve"><style>.st1{fill:#faf8dc}.st2{opacity:.3;fill:#3d6acc}.st3{fill:#f5cfbf}.st4{fill:#8217fd}.st6{fill:#f29d9d}.st8{fill:#c3b9dd}</style><path d="M104.6 329.2c-25.9 9.9-38.2 24-45.6 42.2-7.4 18.2 7.4 117.8 7.4 117.8l155.3 7.9s43.7-125.5 35.4-141.8c-8.4-16.3-26.1-19.6-34.8-22.8-8.8-3.2-117.7-3.3-117.7-3.3z" style="fill:#e32b6b"/><path class="st1" d="M180.5 424.9c-21 0-51.9-1.8-76.7-6.8l.4-1.8c19.4 3.9 72 9.1 96.2 5.9l.2 1.8c-4.1.6-11.2.9-20.1.9zM178.5 447.7c-21 0-51.9-1.8-76.7-6.8l.4-1.8c19.4 3.9 72 9.1 96.2 5.9l.2 1.8c-4.2.5-11.3.9-20.1.9zM176.5 470c-21 0-51.9-1.8-76.7-6.8l.4-1.8c19.4 3.9 72 9.1 96.2 5.9l.2 1.8c-4.2.6-11.3.9-20.1.9z"/><path class="st2" d="m82.9 440.9 10.5-51.3s-4.6 27.5 5.1 42.2c9.7 14.7 6.9 62.6 6.9 62.6H77.1l5.8-53.5zM224.5 390.8s-7.4 112.1-8.3 112.3c-.9.2-42.4-3.5-42.4-3.5s.8-29.1 20.6-43.9c19.7-14.9 30.1-64.9 30.1-64.9z"/><path class="st3" d="M210.4 508.3c-8.7-.9-15-30.5-1.8-60.2 13.2-29.7 43.2-101.2 48.6-104.7 5.4-3.6 20.4-6 33.2-12.2 12.8-6.2 26.4-19.4 28.7-17.7 2.3 1.7-11.7 24.6-22.8 31.9-11.2 7.3-22.1 12.9-22.1 12.9s-9.9 37.7-13.4 70.2c-3.6 32.3-27.9 82.2-50.4 79.8zM68.4 503.7c-18.9-3.3-27.7-32.6-28.9-69.2-1.3-36.6-1.5-92.6-1.5-92.6s-14.5-3.6-24.8-12.4-15.8-27.4-11.9-26.6c3.9.8 19.5 15.8 29.9 19 10.4 3.2 22.5 1.5 28.5 8.4 5.9 6.9 11.9 52.2 17.2 76.3 5.4 24.2 15.2 48.9 14.2 68.3-1.1 19.5-8.7 31.2-22.7 28.8z"/><path class="st4" d="M137 227c-10.3-2.1-18.6-15-17.1-23.7 1.1-6.5 7.9-10.8 6.4-16.3-2.9-10.5 6.1-25.3 18.7-26.1 16.2-1 19.2-9.8 21.8-21.8 2.8-12.9 2.4-24.5 25.8-33.6 23.4-9 28-15.5 25.7-28.5-2.3-13.1 11.8-33.5 37.5-31.3 25.7 2.3 37.5 9.1 46.7-3 9.2-12.2 17.1-27 34.8-21.7 17.7 5.3 22.6 33.8 8.5 42.2s3.2 21.7 13.2 30 9.2 30.8-12.2 35.1c-21.4 4.3-22.2 12.1-22.1 25.4 0 13.2-15.3 22-26 20.8-10.7-1.2-22.2-.4-28.7 12.9s-7.4 19.7-22.9 21.7c-15.5 2.1-16.8 5.5-21.4 13.8-4.6 8.2-21.9 11.2-21.9 11.2L137 227z"/><path d="m177.1 228.7-7.6-10.9 36.4-24.1c14.4-21.3 20.5-20.8 35.6-25.2 15.1-4.4 3.8-19.6 14.5-32.8 10.8-13.2 21-1.9 33.3-10 12.3-8.1.8-18.9 17.4-27.7 15.6-8.3 24.5 2.6 45.4-10.7 2.4 2.1 4.9 4.1 7 5.8 10 8.3 9.2 30.8-12.2 35.1-21.4 4.3-22.2 12.1-22.1 25.4 0 13.2-15.3 22-26 20.8-10.7-1.2-22.2-.4-28.7 12.9s-7.4 19.7-22.9 21.7c-15.5 2.1-16.7 4.5-21.3 12.8-4.6 8.2-20.3 13.1-20.3 13.1l-28.5-6.2z" style="opacity:.51;fill:#e1deff"/><path class="st3" d="M222.3 332.5c-5.6 11.7-4.7 65.5-62.2 62.4-55.8-3-53.3-54.4-55.5-65.6 3.6-1.2 29.8-11.3 31.3-16.3 3.5-12.4 4.8-81.3 4.8-81.3l48.5 1.9s-2.3 68.1-1.4 79c.3 4 29.4 17.2 34.5 19.9z"/><path class="st2" d="M180.9 253.9c-3.7 9.4-17.9 35.1-42.3 35.1.4-12.1.7-25 .9-35.5l41.4.4z"/><circle transform="rotate(-43.222 195.529 230.667)" class="st3" cx="195.5" cy="230.7" r="18.7"/><circle transform="rotate(-3.448 195.536 230.653) scale(1.00001)" class="st6" cx="195.5" cy="230.7" r="9.8"/><path class="st3" d="M125.2 228.1c-.8 26.3 6.3 47.7 32.9 48.4 15.3.4 36.3-19.9 37.1-46.2.8-26.3-2.9-45.5-34-48.7-30-3.2-35.2 20.2-36 46.5z"/><path d="M166.3 224.1c0 1.4 1 2.5 2.4 2.5s2.5-1 2.5-2.4-1-2.5-2.4-2.5c-1.3 0-2.5 1.1-2.5 2.4zM132.5 222.4c0 1.4 1 2.5 2.4 2.5s2.5-1 2.5-2.4-1-2.5-2.4-2.5c-1.3 0-2.4 1-2.5 2.4z"/><path class="st6" d="M125.4 227.8c1.2-.5 2.5-.7 3.8-.5 4.5.5 7.8 4.5 7.3 9s-4.5 7.8-9 7.3c-.7-.1-1.3-.2-1.9-.5-.7-4.8-.8-9.9-.2-15.1v-.2zM164.1 237.3c-.1 4.5 3.4 8.3 7.9 8.4 4.5.1 8.3-3.4 8.4-7.9.1-4.5-3.4-8.3-7.9-8.4-4.5-.2-8.3 3.4-8.4 7.9zM150.9 224.2l-7.6 11.8c-.9 1.4 0 3.3 1.6 3.4l7.5.9-1.5-16.1z"/><path d="M196.4 244.2c0 .9.7 1.6 1.5 1.6.9 0 1.6-.7 1.6-1.5 0-.9-.7-1.6-1.5-1.6-.9-.1-1.6.6-1.6 1.5z" style="fill:#103fcd"/><path class="st2" d="M214.2 233c-16.1 2.9-24.3-4.1-30.3-9.5s-1.2-24-10.7-29.2c-9.4-5.3-13.6 2.2-23.9-2.8-12-5.9-17 2.5-17 2.5s3.5-10.7 23.6-13.5c20.1-2.8 40.5 1.5 49.1 15.3 2.8 4.6-1 12.8 2.3 17.3 8.2 11.3 6.9 19.9 6.9 19.9z"/><path class="st4" d="M213.7 225.8c-16.2 1.9-22.4 2-28.1-3.8-5.7-5.8.3-24-8.8-29.9-9.1-5.9-13.4 1.7-24-2.6-11.3-4.6-16.7-.3-16.7-.3s-.9-15.8 19.3-17.3 45.4 9.3 53.1 23.7c7.6 14.5 5.2 30.2 5.2 30.2z"/><path class="st8" d="M177.5 215.6c-1.4-.5-2.8-1.1-4.2-1.5-1.4-.4-2.8-.7-4.3-.8-1.4-.1-2.9-.1-4.3.1s-2.9.6-4.1 1.3c-.2.1-.3 0-.4-.1-.1-.1 0-.3.1-.4 1.3-1 2.7-1.6 4.3-1.9 1.5-.4 3.1-.4 4.7-.3 1.6.2 3.1.5 4.6 1l2.1.9c.7.4 1.3.8 2 1.2.1.1.2.3.1.4-.3.1-.5.1-.6.1zM143.4 214.5c-1.3-.5-2.5-.9-3.8-1.3-1.3-.4-2.6-.7-3.9-.9-1.3-.2-2.6-.3-3.9-.2-1.3.1-2.6.3-3.8.7-.2.1-.3 0-.4-.2-.1-.1 0-.3.1-.4 1.2-.8 2.6-1.2 4-1.4 1.4-.2 2.8-.1 4.3 0 1.4.2 2.8.6 4.1 1.1.7.3 1.3.6 1.9.8.6.3 1.2.7 1.8 1.1.1.1.2.3.1.4-.2.3-.4.3-.5.3z"/><path class="st6" d="M159.8 251.6c.1-.4-4.1-1.7-9.3-2.2s-9.4.1-9.5.6c-.2.6 4.3-.2 9.5.2 5.2.5 9.2 2.1 9.3 1.4z"/></svg>