<svg version="1.1" id="Layer_1" xmlns="http://www.w3.org/2000/svg" x="0" y="0" viewBox="0 0 273 434.7" style="enable-background:new 0 0 273 434.7" xml:space="preserve"><style>.st1{fill:#e32b6b}.st4{opacity:.3;fill:#3d6acc;enable-background:new}.st5{fill:#f5cfbf}.st6{fill:#f29d9d}.st7{fill:#c3b9dd}</style><path d="M51.3 60.7C37.4 31.6 20.5 16.5-.1 7.8-.6 25.8-2 243-1.9 267.3c16.7 1.9 29.4 2 34.1-.9 20.9-12.8 23.4-36.7 26.8-48.7 3.4-11.9-7.7-157-7.7-157z" style="fill:#171733"/><path class="st1" d="M203 92.3c12.3-7 33.2-3.8 40.2 4.3 5.3 6 2.8 15.1 9.7 18.1 13.3 5.8 18.8 24.8 7.1 35.9-15.1 14.3-9.5 23.7-.2 35.2 9.9 12.4 19.1 27.1.5 50.8-16.9 21.6-23.3 34.5-12.9 48.2 9.1 12.1 8 35-12.9 48.5-17.3 11.2-14.1 36.2-6.5 42.6 13.3 11.2 16.2 40.9-1.2 52.9-20.6 14.3-56.4 1.8-61.7-26.5-3.5-18.8-32.6-22.3-50.7-20.4-18.1 1.8-39.4-16.4-22.4-37.7s10-27.9-3-38.3-6.5-29.9 5.3-37.9c11.8-7.9 22.4-18.2 15.8-33.9s-12-21.5 1.3-36c13.4-14.5 11.2-18.3 7.7-28.6s10.7-27.1 10.7-27.1L203 92.3z"/><path d="m161.6 124.4 18.2 2.1-12.5 49.2c6.6 28.7.1 33.3-10.5 49.3s15.5 18.4 17.8 37.7c2.3 19.3-19 19-23.2 35.6-4.2 16.5 17.8 15.5 10 36.1-7.3 19.5-26.9 18.4-34.5 46.2-4.5.4-8.8.9-12.7 1.2-17.9 1.9-39.2-16.3-22.2-37.6s10-27.9-3-38.3-6.5-29.9 5.3-37.9c11.8-7.9 22.4-18.2 15.8-33.9s-12-21.5 1.3-36c13.4-14.5 12.1-17.5 8.6-27.8s7.3-27.2 7.3-27.2l34.3-18.7z" style="opacity:.51;fill:#e1deff;enable-background:new"/><path d="M59 217.7c-10.3-24.4-15.6-47.2-16.9-80.7-1.5-39.3 1.2-58.2 9.1-76.3 1.9 4.7 18.1 38.6 24.9 39.9 16.8 3.4 108.8-1.9 108.8-1.9l2.5 64.8s-90.9 4-105.3 6.2c-5.4.8-20 40.9-23.1 48z" style="fill:#e8c5b8"/><path class="st4" d="M165.3 109.5c-12.4 5.2-46.3 24.9-45.7 57.5 16.1-.9 33.3-1.7 47.4-2.2l-1.7-55.3z"/><circle class="st5" cx="161.5" cy="175.9" r="24.9"/><circle class="st6" cx="161.5" cy="175.9" r="13.1"/><path class="st5" d="M165 82c-35.1-1.1-63.7 8.3-64.6 43.9-.5 20.4 26.6 48.5 61.7 49.6s60.8-3.9 65.1-45.4c4-40.1-27.1-47-62.2-48.1z"/><path d="M171.3 142.8c-1.8-.1-3.3 1.4-3.4 3.2-.1 1.8 1.4 3.3 3.2 3.4 1.8.1 3.3-1.4 3.4-3.2.1-1.8-1.3-3.3-3.2-3.4zM171.1 102c-1.8-.1-3.3 1.4-3.4 3.2-.1 1.8 1.4 3.3 3.2 3.4s3.3-1.4 3.4-3.2c0-1.9-1.4-3.4-3.2-3.4z"/><circle class="st6" cx="152.3" cy="146.3" r="10.9"/><path class="st6" d="M135.5 121.7c-1 0-1.9.8-1.9 1.8s.8 1.9 1.8 1.9 1.9-.8 1.9-1.8c.1-1-.7-1.9-1.8-1.9z"/><circle class="st6" cx="152.3" cy="97.4" r="10.9"/><path class="st6" d="M170.5 125.2 154.7 115c-1.9-1.2-4.4 0-4.6 2.2l-1.2 10.1 21.6-2.1z"/><path class="st4" d="M145.6 194.9c8.3-17.1 11.5-21.4 21.1-27.8 9.9-6.5 29.7-3.2 38.8-15.8 9-12.7-.2-19.5 8.8-33.4 10.4-16.2.1-24.3.1-24.3s13.7 6.2 13.3 35-10.3 57-30.8 67.4c-6.7 3.4-17-2.9-23.8 1.1-1.9 1.1-3.5 2.5-5.4 2.9-15 3.4-22.1-5.1-22.1-5.1z"/><path class="st1" d="M168 200.2c-2.5-21.7-2.7-29.9 5.1-37.5 7.7-7.6 32.1.4 39.9-11.7 7.8-12.1-2.3-17.9 3.5-32.1 6.2-15.1-1.1-25.2-1.1-25.2s22.5 1.6 24.5 28.7-12.5 60.6-31.7 70.9c-19.3 10.2-40.2 6.9-40.2 6.9z"/><path class="st7" d="M181.1 155.1c.7-1.9 1.5-3.7 2-5.6.5-1.9.9-3.8 1.1-5.7.1-1.9.1-3.9-.2-5.8-.3-1.9-.8-3.8-1.7-5.5-.1-.2 0-.5.2-.6s.4 0 .5.1c1.3 1.7 2.1 3.7 2.6 5.7s.6 4.2.4 6.3c-.2 2.1-.6 4.1-1.4 6.1-.3 1-.8 1.9-1.2 2.8-.5.9-1 1.8-1.6 2.7-.1.2-.4.3-.6.1-.1-.2-.1-.4-.1-.6zM186.1 109.1c.1-1.8.2-3.6.2-5.4s-.1-3.6-.4-5.3c-.3-1.7-.7-3.5-1.3-5.1s-1.4-3.3-2.4-4.6c-.1-.2-.1-.5.1-.6.2-.1.4-.1.5 0 1.5 1.3 2.5 2.9 3.3 4.6s1.3 3.6 1.6 5.5.3 3.8.2 5.6c-.1.9-.2 1.9-.3 2.8-.2.9-.4 1.8-.7 2.7-.1.2-.3.4-.5.3-.2-.1-.4-.3-.3-.5z"/></svg>