<svg xmlns="http://www.w3.org/2000/svg" viewBox="0 0 250 250" style="enable-background:new 0 0 250 250" xml:space="preserve"><path d="M185 152.9c-.5-1.6-1.4-3.3-1.9-4.9-1.1-2.4-2.2-4.6-3-6.8-9.3-19.9-19-40.3-29.4-60.1l-.3-.8c-1.1-1.9-2.2-4.1-3.3-6.3-1.4-2.4-2.7-4.9-4.9-7.3-4.4-5.4-10.3-8.2-16.9-8.2-6.5 0-12.5 3-17.1 7.9-1.9 2.4-3.5 4.9-4.9 7.3-1.1 2.2-2.2 4.4-3.3 6.3l-.3.8c-10.3 19.9-20.1 40.3-29.4 60.1v.3c-.8 2.2-1.9 4.4-3 6.8-.5 1.4-1.4 3-1.9 4.9-1.6 4.9-2.2 9.5-1.6 14.4 1.4 10.1 8.2 18.2 17.4 22 3.5 1.4 7.1 2.2 10.9 2.2 1.1 0 2.4 0 3.5-.3 4.4-.5 9-1.9 13.3-4.6 5.4-3 10.6-7.3 16.6-13.9 6 6.3 11.2 10.9 16.6 13.9 4.4 2.4 9 4.1 13.3 4.6 1.1 0 2.4.3 3.5.3 3.8 0 7.3-.5 10.9-2.2 9.3-3.8 15.8-12.2 17.4-22 0-4.9-.6-9.5-2.2-14.4zm-60.2 6.8c-7.1-9-12-17.7-13.3-24.8-.5-3-.8-5.7-.3-8.2.3-2.2 1.1-4.1 2.2-5.7 2.4-3.5 6.8-6 11.7-6 4.9 0 9.3 2.2 11.7 6 1.1 1.6 1.9 3.5 2.2 5.7.3 2.4.3 5.2-.3 8.2-1.9 7.1-6.8 15.8-13.9 24.8zm53.1 6.3c-.8 6.8-5.7 12.8-12 15.5-3.3 1.4-6.5 1.6-10.1 1.4-3.3-.3-6.5-1.4-10.1-3.5-4.9-2.7-9.5-6.8-15.2-12.8 8.7-10.9 14.1-20.7 16.1-29.4.8-4.1 1.1-7.9.5-11.4-.5-3.3-1.6-6.3-3.5-9-4.1-6-11.2-9.5-18.8-9.5-7.6 0-14.7 3.5-18.8 9.5-1.9 2.7-3 5.7-3.5 9-.5 3.5-.3 7.3.5 11.4 1.9 8.7 7.3 18.8 16.1 29.7-5.4 6-10.3 10.3-15.2 12.8-3.5 1.9-6.8 3-10.1 3.5-3.5.3-7.1 0-10.1-1.4-6.5-2.7-11.2-8.7-12-15.5-.3-3.3 0-6.5 1.1-10.3.3-1.4 1.1-2.7 1.6-4.4.8-2.2 1.9-4.4 3-6.5v-.3c9.3-19.9 19-40 29.4-59.9l.3-.8c1.1-1.9 2.2-4.1 3.3-6 1.1-2.2 2.2-4.1 3.8-6 2.7-3.3 6.5-4.9 10.6-4.9s7.9 1.6 10.6 4.9c1.4 1.6 2.7 3.8 3.8 6 1.1 1.9 2.2 4.1 3.3 6l.3.8c10.1 19.9 19.9 40 29.1 59.9 1.1 2.2 1.9 4.6 3 6.5.5 1.6 1.4 3 1.6 4.4 1.7 3.4 2 7 1.4 10.3z" style="fill:#ff5a5f"/></svg>