<svg xmlns="http://www.w3.org/2000/svg" viewBox="0 0 250 250" style="enable-background:new 0 0 250 250" xml:space="preserve"><path d="M190.1 126.4c0-5.5-.5-9.3-1.4-13.5h-62.4v24.7h36.5c-.8 6-4.7 15.4-13.5 21.7v.8l19.8 15.4h1.4c12.5-11.8 19.6-28.8 19.6-49.1" style="fill:#4285f4"/><path d="M126.4 191.5c17.9 0 33-6 44-16.2l-20.9-16.2c-5.5 3.8-13.2 6.6-23.1 6.6-17.6 0-32.4-11.5-37.9-27.8h-.8l-20.3 16.2-.4.9c10.7 21.7 33.3 36.5 59.4 36.5" style="fill:#34a853"/><path d="M88.5 138.2c-1.4-4.1-2.2-8.5-2.2-13.2 0-4.7.8-9.1 2.2-13.2v-.8L67.6 94.8l-.6.2c-4.4 9.1-7.1 19.2-7.1 30s2.5 20.9 7.1 30l21.5-16.8" style="fill:#fbbc05"/><path d="M126.4 84.3c12.4 0 20.9 5.5 25.8 9.9l18.7-18.4c-11.5-10.7-26.7-17.3-44.5-17.3C100.3 58.5 78 73.3 67 95l21.4 16.8c5.3-15.9 20.4-27.5 38-27.5" style="fill:#eb4335"/></svg>