<svg xmlns="http://www.w3.org/2000/svg" viewBox="0 0 250 250" style="enable-background:new 0 0 250 250" xml:space="preserve"><path d="M124.7 169.4c-6.6-.2-12-3.1-15.5-9.1-3.6-6.3-3.4-12.7.4-18.8 9-14.6 18.2-29 27.3-43.6 1.9-3 3.7-6 5.6-8.9 5.4-8.3 16.4-10.8 24.8-5.6 8.6 5.3 11.4 16.3 6.1 24.9-10.9 17.8-22 35.4-33.2 53-3.4 5.3-8.6 8-15.5 8.1z" style="fill:#ffcb00"/><path d="M68.1 169.4c-6.7-.2-12.1-3.2-15.5-9.2-3.5-6.3-3.3-12.7.5-18.8 9.7-15.6 19.5-31.2 29.3-46.7 1.2-2 2.5-4.1 3.8-6 5.7-8.3 17.1-10.4 25.4-4.7 7.9 5.5 10.2 16.2 5.3 24.4C106 125.9 95 143.3 84 160.8c-3.6 5.6-8.8 8.5-15.9 8.6z" style="fill:#ff3d57"/><path d="M181.7 133.8c10 0 18.1 8 18.1 17.8 0 9.9-8.3 17.9-18.5 17.8-10.1-.1-18.1-8-18.1-17.8.1-10 8.3-17.9 18.5-17.8z" style="fill:#00d647"/></svg>