<svg version="1.1" id="Layer_1" xmlns="http://www.w3.org/2000/svg" xmlns:xlink="http://www.w3.org/1999/xlink" x="0" y="0" viewBox="0 0 1346.7 916.7" style="enable-background:new 0 0 1346.7 916.7" xml:space="preserve"><style>.st0{fill:#2e2e47}.st3{fill:#ceccca}.st4{fill:#e1ccff}.st5{fill:#c7a9f7}.st6{fill:#ffcdbb}.st7{fill:#a385e0}.st9{fill:#fff}.st32{fill:#ffe2bd}.st36{fill:#ffe3f1}.st37{fill:#ffa982}.st45{fill:#cc8b70}.st64{fill:#eae6e4}.st65{fill:#fa634b}.st66{fill:#84ceca}.st69{fill:#774237}.st70{fill:#c96b59}.st71{fill:#ffea8f}.st73{fill:#2ba573}.st74{fill:#82664b}.st75{fill:#3ec68c}.st76{fill:#ffc97d}.st79{fill:#ffd3b5}.st80{fill:#7703fc}.st107{fill:#f2836d}.st109{fill:#f7f2f0}</style><path class="st0" d="M1258.9 724.5h-207.5c-.6 0-1-.5-1-1s.5-1 1-1h207.5c.6 0 1 .5 1 1s-.4 1-1 1zM618 724.5H164.6c-.6 0-1-.5-1-1s.5-1 1-1H618c.6 0 1 .5 1 1s-.4 1-1 1zM134.5 724.5h-94c-.6 0-1-.5-1-1s.5-1 1-1h94c.6 0 1 .5 1 1s-.5 1-1 1zM197.3 731.8v8.5c0 2.4 72.4 4.3 161.7 4.3s161.7-1.9 161.7-4.3v-8.5H197.3z"/><ellipse cx="359" cy="731.8" rx="161.7" ry="4.3" style="fill:#42425e"/><path class="st0" d="M569.3 372.5H148.7c-4.3 0-7.8 3.5-7.8 7.8v263.3c0 4.3 3.5 7.8 7.8 7.8h420.6c4.3 0 7.8-3.5 7.8-7.8V380.3c-.1-4.3-3.5-7.8-7.8-7.8z"/><path d="M569.2 626.6H148.7V380.3h420.5v246.3z" style="fill:#ffc0dd"/><path class="st0" d="M323.9 635.1H394v98.7h-70.1z"/><path class="st3" d="M947.3 522H606.1c-3.5 0-6.3 2.8-6.3 6.3v213.6c0 3.5 2.8 6.3 6.3 6.3h341.2c3.5 0 6.3-2.8 6.3-6.3V528.3c0-3.5-2.8-6.3-6.3-6.3z"/><path class="st4" d="M948.2 728.1H607.1V528.4h341.1v199.7z"/><path class="st3" d="M554.3 733.3c0 8.2 6.7 14.9 14.9 14.9h415.1c8.2 0 14.9-6.7 14.9-14.9H554.3z"/><path class="st5" d="M840.7 628.3h106.6v9.3H840.7zM901.7 528.4h3.4v99.9h-3.4zM920.8 612.8s-8.4-13.3-4.1-19.1c4.3-5.8 11-.7 11-.7s3.5-3.6 9.2-1.5-.3 20.1-5.2 22.2c-4.8 2.2-10.9-.9-10.9-.9z"/><path class="st5" d="M916.2 611.9h20.9s2.3 11.3-3.8 17.6h-12.1s-6.8-4.2-5-17.6zM606.2 690.3l4.5-1.8-.2-3.8 10-3.9-.3-3.8 9.4-3.6-3.2-.5-10.6 4.1.3 3.8-9.9 3.8v1.5l.1 2.4-.1.1zM609 707.8l9.9-3.9-.2-3.8 10-3.9-.3-3.8 10-3.9-.2-3.8 10-3.9-.3-3.8 9.4-3.6-3.2-.5-10.6 4.1.3 3.8-10 3.9.2 3.8-10 3.9.3 3.8-10 3.9.2 3.8-8.3 3.2v5.7l3-1.2zM614.5 728.1l2.9-1.1-.3-3.8 10-3.9-.2-3.8 10-3.9-.3-3.8 10-3.9-.2-3.8 10-3.9-.3-3.8 10-3.9-.2-3.8 9.9-3.9-.2-3.8 9.4-3.6-3.2-.5-10.6 4.1.2 3.8-9.9 3.9.2 3.8-10 3.9.3 3.8-10 3.9.2 3.8-10 3.9.3 3.8-10 3.9.2 3.8-9.9 3.9.2 3.8-2.9 1.1zM642.2 728.1l2.9-1.1-.3-3.8 10-3.9-.2-3.8 10-3.9-.3-3.8 10-3.9-.2-3.8 9.9-3.9-.2-3.8 10-3.9-.2-3.8 9.9-3.9-.2-3.8 9.4-3.6-3.2-.5-10.6 4.1.2 3.8-9.9 3.9.2 3.8-10 3.9.2 3.8-9.9 3.9.2 3.8-10 3.9.3 3.8-10 3.9.2 3.8-10 3.9.3 3.8-2.9 1.1z"/><path class="st6" d="m669.9 728.1 2.8-1.1-.2-3.8 10-3.9-.2-3.8 9.9-3.9-.2-3.8 10-3.9-.2-3.8 9.9-3.9-.2-3.8 10-3.9-.3-3.8 10-3.9-.2-3.8 9.4-3.6-3.2-.5-10.6 4.1.2 3.8-9.9 3.9.2 3.8-10 3.9.2 3.8-9.9 3.9.2 3.8-10 3.9.2 3.8-9.9 3.9.2 3.8-10 3.9.3 3.8-2.9 1.1zM697.6 728.1l2.8-1.1-.2-3.8 10-3.9-.2-3.8 9.9-3.9-.2-3.8 10-3.9-.3-3.8 10-3.9-.2-3.8 10-3.9-.3-3.8 10-3.9-.2-3.8 9.4-3.6-3.3-.5-10.5 4.1.2 3.8-10 3.9.3 3.8-10 3.9.2 3.8-9.9 3.9.2 3.8-10 3.9.2 3.8-9.9 3.9.2 3.8-10 3.9.2 3.8-2.8 1.1zM725.2 728.1l2.9-1.1-.2-3.8 10-3.9-.3-3.8 10-3.9-.2-3.8 10-3.9-.3-3.8 10-3.9-.2-3.8 10-3.9-.3-3.8 10-3.9-.2-3.8 9.3-3.6-3.2-.5L782 677l.2 3.8-10 3.9.3 3.8-10 3.9.2 3.8-10 3.9.3 3.8-10 3.9.2 3.8-9.9 3.9.2 3.8-10 3.9.2 3.8-2.8 1.1zM752.9 728.1l2.9-1.1-.2-3.8 10-3.9-.3-3.8 10-3.9-.2-3.8 10-3.9-.3-3.8 10-3.9-.2-3.8 9.9-3.9-.2-3.8 10-3.9-.2-3.8 9.3-3.6-3.2-.5-10.5 4.1.2 3.8-10 3.9.2 3.8-9.9 3.9.2 3.8-10 3.9.3 3.8-10 3.9.2 3.8-10 3.9.3 3.8-10 3.9.2 3.8-2.9 1.1zM780.6 728.1l2.9-1.1-.2-3.8 10-3.9-.3-3.8 10-3.9-.2-3.8 9.9-3.9-.2-3.8 10-3.9-.2-3.8 9.9-3.9-.2-3.8 10-3.9-.3-3.8 9.4-3.6-3.2-.5-10.5 4.1.2 3.8-10 3.9.2 3.8-9.9 3.9.2 3.8-10 3.9.2 3.8-9.9 3.9.2 3.8-10 3.9.3 3.8-10 3.9.2 3.8-2.9 1.1zM808.3 728.1l2.9-1.1-.2-3.8 9.9-3.9-.2-3.8 10-3.9-.2-3.8 9.9-3.9-.2-3.8 10-3.9-.3-3.8 10-3.9-.2-3.8 10-3.9-.3-3.8 9.4-3.6-3.2-.5L865 677l.3 3.8-10 3.9.2 3.8-9.9 3.9.2 3.8-10 3.9.2 3.8-9.9 3.9.2 3.8-10 3.9.2 3.8-9.9 3.9.2 3.8-2.9 1.1z"/><path class="st5" d="m836 728.1 2.9-1.1-.2-3.8 9.9-3.9-.2-3.8 10-3.9-.3-3.8 10-3.9-.2-3.8 10-3.9-.3-3.8 10-3.9-.2-3.8 9.9-3.9-.2-3.8 9.4-3.6-3.2-.5-10.6 4.1.3 3.8-10 3.9.2 3.8-10 3.9.3 3.8-10 3.9.2 3.8-9.9 3.9.2 3.8-10 3.9.2 3.8-9.9 3.9.2 3.8-2.9 1.1zM863.7 728.1l2.9-1.1-.3-3.8 10-3.9-.2-3.8 10-3.9-.3-3.8 10-3.9-.2-3.8 10-3.9-.3-3.8 10-3.9-.2-3.8 9.9-3.9-.2-3.8 9.4-3.6-3.2-.5-10.6 4.1.2 3.8-9.9 3.9.2 3.8-10 3.9.3 3.8-10 3.9.2 3.8-10 3.9.3 3.8-10 3.9.2 3.8-9.9 3.9.2 3.8-2.9 1.1zM891.4 728.1l2.9-1.1-.3-3.8 10-3.9-.2-3.8 10-3.9-.3-3.8 10-3.9-.2-3.8 9.9-3.9-.2-3.8 10-3.9-.2-3.8 4.5-1.8v-1.7l-8.9 3.5.2 3.8-10 3.9.2 3.8-9.9 3.9.2 3.8-10 3.9.3 3.8-10 3.9.2 3.8-10 3.9.3 3.8-2.9 1.1zM947.3 699.8l-.7.3.2 3.8-10 3.9.2 3.8-9.9 3.9.2 3.8-10 3.9.3 3.8-2.9 1.1h4.4l2.8-1.1-.2-3.8 10-3.9-.2-3.8 9.9-3.9-.2-3.8 6.1-2.4z"/><path class="st5" d="M605.7 671.4h341.6v3H605.7zM641.1 598.6s-9.7-1.7-16.3.8c0 0-.2-5-5.7-5s-5.9 8.1-3.9 9.2l2.1 1.1s-3.5 7.9-.6 15.6c2.3 6.1 11.3 8.8 17.6 8.9 6.3.1 15.3-1.8 18.6-8.4 2.6-5 1.7-15.1-2.3-17.7 0 0 5.9-4.6-.4-8.7-6.5-4.2-9.1 4.2-9.1 4.2z"/><ellipse class="st7" cx="643.6" cy="612.7" rx="1.5" ry="2.2"/><path class="st7" d="M625.7 613.4c0 1.2.7 2.2 1.5 2.2.9 0 1.5-1 1.5-2.2s-.7-2.2-1.5-2.2-1.5 1-1.5 2.2zM631.2 618.9c-.7-.8-.5-2.1.3-2.8.9-.7 3-1.7 4.7-1.6 2.7 0 6.1.7 6.7 2.3s-.9 4.7-5.6 4.6c-3.2-.2-5.1-1.3-6.1-2.5z"/><path class="st4" d="M638.6 615.4s.2-.3-.3-.5c-.4-.2-2.4-.3-3.1.1-.6.4.9 2.3 2 2.1 1 0 1.4-1 1.4-1.7z"/><path class="st5" d="M678.8 669c-4.9-5-18.8-11.9-18.8-11.9l-2.8-14s6.4 10.4 14 6.5-8.2-24.9-23.4-26.5c-16.8-1.7-24-.5-30 3.1-3.1 1.9-7.6 5.6-11.6 9.6V657c4.4-2.4 9.1-10.6 9.1-10.6s.3 27.4 6.4 33c4.8 4.4 28.3 17.3 33.1 15.6 7.7-2.6 8.7-8.9 6.5-11.6-2.2-2.7-15.6-8.5-15.6-8.5l6.4-1.3s18.6 11.9 23.6 10.2c5-1.6 8-9.8 3.1-14.8z"/><path class="st0" d="M803.7 198.3h-198c-3.2 0-5.8 2.6-5.8 5.8v295.6c0 3.2 2.6 5.8 5.8 5.8h198c3.2 0 5.8-2.6 5.8-5.8V204.1c-.1-3.2-2.7-5.8-5.8-5.8z"/><path d="M803.6 491.7h-198V211.3h198v280.4z" style="fill:#ffbf66"/><path class="st9" d="M711.1 205.3h-22.4c-.5 0-.9.4-.9.9s.4.9.9.9h22.4c.5 0 .9-.4.9-.9s-.4-.9-.9-.9zM717.9 206.2c0 .5-.4.9-.9.9s-.9-.4-.9-.9.4-.9.9-.9.9.4.9.9z"/><path class="st0" d="M952.2 247.9H846.8c-10.6 0-19.3 8.7-19.3 19.3v213c0 10.6 8.7 19.3 19.3 19.3h105.5c10.6 0 19.3-8.7 19.3-19.3v-213c0-10.6-8.7-19.3-19.4-19.3z"/><path class="st4" d="M951.4 253.9H847.6c-7.9 0-14.2 6.4-14.2 14.2v211.3c0 7.9 6.4 14.2 14.2 14.2h103.7c7.9 0 14.2-6.4 14.2-14.2V268.1c.1-7.9-6.3-14.2-14.1-14.2z"/><defs><path id="SVGID_1_" d="M803.6 491.7h-198l-48.9-120.6 25.3-151 9.2-49 69.5-2.7 19.4 42.9h123.4v280.4z"/></defs><clipPath id="SVGID_2_"><use xlink:href="#SVGID_1_" style="overflow:visible"/></clipPath><path d="M634.2 281c-8.1 25.6 28.6 109.1 28.6 109.1s-67.5 27.3-68.5 37.8 7.5 28.2 21.1 30.2 84.1-15 93.6-35.1c9.6-20.1-67.7-164.8-74.8-142z" style="clip-path:url(#SVGID_2_);fill:#2e2e47"/><defs><path id="SVGID_3_" d="M803.6 491.7h-198l-48.9-120.6 25.3-151 9.2-49 69.5-2.7 19.4 42.9h123.4v280.4z"/></defs><clipPath id="SVGID_4_"><use xlink:href="#SVGID_3_" style="overflow:visible"/></clipPath><path d="M635.7 275.7c7.8-16.8 25.9-32.6 75.4-26.4 49.5 6.1 90.1 63.3 106.9 82.8 16.9 19.5 54.9 127 54.9 134.2 0 7.1 19.9 30.2-27.6 37.6s-138.9-1.2-145.5 0c-6.6 1.2-12.8-96.8-18.4-111.6-5.5-14.8-55.9-94.6-45.7-116.6z" style="clip-path:url(#SVGID_4_);fill:#2e2e47"/><defs><path id="SVGID_5_" d="M803.6 491.7h-198l-48.9-120.6 25.3-151 9.2-49 69.5-2.7 19.4 42.9h123.4v280.4z"/></defs><clipPath id="SVGID_6_"><use xlink:href="#SVGID_5_" style="overflow:visible"/></clipPath><path d="M675.1 249.7s4.2-1.2 6.2.6 13.3 84.3 16.9 101.6c3.6 17.3 1.1 24.4-1.4 23.1-2.5-1.2-43.3-81.3-47.1-96.5-3.7-15.1 2.1-24.4 25.4-28.8z" style="clip-path:url(#SVGID_6_);fill:#fff"/><defs><path id="SVGID_7_" d="M803.6 491.7h-198l-48.9-120.6 25.3-151 9.2-49 69.5-2.7 19.4 42.9h123.4v280.4z"/></defs><clipPath id="SVGID_8_"><use xlink:href="#SVGID_7_" style="overflow:visible"/></clipPath><path d="M653.8 187.3c9.2 3.6 14.2 33.5 6.1 39-13 8.9-23.5-25-22.1-28.8 1.3-3.8 7.3-13.7 16-10.2z" style="clip-path:url(#SVGID_8_);fill:#82664b"/><defs><path id="SVGID_9_" d="M803.6 491.7h-198l-48.9-120.6 25.3-151 9.2-49 69.5-2.7 19.4 42.9h123.4v280.4z"/></defs><clipPath id="SVGID_10_"><use xlink:href="#SVGID_9_" style="overflow:visible"/></clipPath><path d="M654.5 222.2s13 19.8 21.4 28.3c4 4.1-4.7 8.7-12 13.8-7.3 5.2-10-.8-12.9-3.9-4.7-5-7.7-12-8.2-13.8-.4-1.8 8.3-25.1 11.7-24.4z" style="clip-path:url(#SVGID_10_);fill:#ffe2bd"/><defs><path id="SVGID_11_" d="M803.6 491.7h-198l-48.9-120.6 25.3-151 9.2-49 69.5-2.7 19.4 42.9h123.4v280.4z"/></defs><clipPath id="SVGID_12_"><use xlink:href="#SVGID_11_" style="overflow:visible"/></clipPath><path d="M656.3 252.2c3.2-9.9-1.9-22.5-1.9-22.5L643.7 249c1.3 3 3.8 7.7 7.3 11.3.1.1.2.2.2.3 1.9-1.7 3.8-4.4 5.1-8.4z" style="clip-path:url(#SVGID_12_);fill:#2e2e47"/><defs><path id="SVGID_13_" d="M803.6 491.7h-198l-48.9-120.6 25.3-151 9.2-49 69.5-2.7 19.4 42.9h123.4v280.4z"/></defs><clipPath id="SVGID_14_"><use xlink:href="#SVGID_13_" style="overflow:visible"/></clipPath><path d="M606.8 207.8s2.7 14.7 3.5 19.1c.8 4.5.8 9.1 2.8 15.5s3.4 21.4 21.3 18c15.6-3 21.6-18.3 22.3-25.7.6-7.4-.8-10.2-.8-10.2s3.8-.7 4.4-6.1c.6-5.4.8-12.4-3.7-11.8-4.5.6-4.7 3.2-5.8 3.2s-8.7-10.5-14.6-10.5-27.9 1.4-29.4 8.5z" style="clip-path:url(#SVGID_14_);fill:#ffe2bd"/><defs><path id="SVGID_15_" d="M803.6 491.7h-198l-48.9-120.6 25.3-151 9.2-49 69.5-2.7 19.4 42.9h123.4v280.4z"/></defs><clipPath id="SVGID_16_"><use xlink:href="#SVGID_15_" style="overflow:visible"/></clipPath><path class="st0" d="M625.1 219.9h-.2c-.2-.1-.2-.3-.2-.5 0-.1 1.2-2.4 4.1-2.8 2.7-.4 6.7.7 6.9.7s.3.2.2.4c0 .2-.2.3-.4.2 0 0-4-1-6.6-.7-2.5.3-3.5 2.3-3.5 2.4 0 .2-.1.3-.3.3z" style="clip-path:url(#SVGID_16_)"/><defs><path id="SVGID_17_" d="M803.6 491.7h-198l-48.9-120.6 25.3-151 9.2-49 69.5-2.7 19.4 42.9h123.4v280.4z"/></defs><clipPath id="SVGID_18_"><use xlink:href="#SVGID_17_" style="overflow:visible"/></clipPath><path d="M642 231.7c.3 1.6-2 3.4-5.1 4s-5.9-.3-6.1-1.9c-.3-1.6 2-3.4 5.1-4 3-.6 5.8.3 6.1 1.9z" style="clip-path:url(#SVGID_18_);fill:#ffa982"/><defs><path id="SVGID_19_" d="M803.6 491.7h-198l-48.9-120.6 25.3-151 9.2-49 69.5-2.7 19.4 42.9h123.4v280.4z"/></defs><clipPath id="SVGID_20_"><use xlink:href="#SVGID_19_" style="overflow:visible"/></clipPath><path d="M616.1 237.7c.3 1.6-1 3.2-2.8 3.6s-3.6-.7-3.9-2.3c-.3-1.6 1-3.2 2.8-3.6 1.9-.4 3.6.7 3.9 2.3z" style="clip-path:url(#SVGID_20_);fill:#ffa982"/><defs><path id="SVGID_21_" d="M803.6 491.7h-198l-48.9-120.6 25.3-151 9.2-49 69.5-2.7 19.4 42.9h123.4v280.4z"/></defs><clipPath id="SVGID_22_"><use xlink:href="#SVGID_21_" style="overflow:visible"/></clipPath><path class="st0" d="M628.2 224.9c-.1 0-.2 0-.3-.1s-.1-.4 0-.5c2.9-2.5 8.8-2.7 9.1-2.7.2 0 .3.1.3.3s-.1.3-.3.3c-.1 0-6 .2-8.7 2.5.1.2 0 .2-.1.2z" style="clip-path:url(#SVGID_22_)"/><defs><path id="SVGID_23_" d="M803.6 491.7h-198l-48.9-120.6 25.3-151 9.2-49 69.5-2.7 19.4 42.9h123.4v280.4z"/></defs><clipPath id="SVGID_24_"><use xlink:href="#SVGID_23_" style="overflow:visible"/></clipPath><path class="st0" d="M610.3 230.8c-.1 0-.2 0-.3-.1-.1-.2-.1-.4.1-.5 3.2-2.4 7.1-2.3 7.2-2.3.2 0 .3.2.3.4s-.2.3-.4.3c0 0-3.8-.1-6.8 2.1 0 .1 0 .1-.1.1z" style="clip-path:url(#SVGID_24_)"/><defs><path id="SVGID_25_" d="M803.6 491.7h-198l-48.9-120.6 25.3-151 9.2-49 69.5-2.7 19.4 42.9h123.4v280.4z"/></defs><clipPath id="SVGID_26_"><use xlink:href="#SVGID_25_" style="overflow:visible"/></clipPath><path d="M652.4 210.7s.9 8-1.5 9-7.5-11.1-8.8-13.3-4.1-4.5-4.1-4.5 13.3-1.7 14.4 8.8z" style="clip-path:url(#SVGID_26_);fill:#82664b"/><defs><path id="SVGID_27_" d="M803.6 491.7h-198l-48.9-120.6 25.3-151 9.2-49 69.5-2.7 19.4 42.9h123.4v280.4z"/></defs><clipPath id="SVGID_28_"><use xlink:href="#SVGID_27_" style="overflow:visible"/></clipPath><path class="st0" d="M623.7 238.8c-.5 0-1-.1-1.6-.2-1.3-.3-2.1-.8-2.6-1.7-.7-1.2-.6-2.9.3-5.4 1.1-3.2-.9-6.2-2.9-7.7-2.2-1.7-6 1.2-6.1 1.2-.2.1-.4.1-.5-.1-.1-.2-.1-.4.1-.5.2-.1 4.3-3.1 6.9-1.2 2.3 1.7 4.4 4.9 3.2 8.5-.8 2.3-.9 3.9-.3 4.9.4.7 1.1 1.1 2.2 1.4 4.1.9 6.1-2 6.7-3.9.1-.2.2-.3.4-.2s.3.2.2.4c-.6 1.8-2.5 4.5-6 4.5z" style="clip-path:url(#SVGID_28_)"/><defs><path id="SVGID_29_" d="M803.6 491.7h-198l-48.9-120.6 25.3-151 9.2-49 69.5-2.7 19.4 42.9h123.4v280.4z"/></defs><clipPath id="SVGID_30_"><use xlink:href="#SVGID_29_" style="overflow:visible"/></clipPath><path d="m656 203.5 1.1-3.4s-3.2-18.4-18.6-20.6c-15.4-2.2-30.8 4.5-35.8 11.9-8.2 12.2 3.8 23.2 6.4 22.9 2.7-.3 3.4-.4 6.4-1s7.3-5.7 13.6-6.7c6.2-.9 9.5-3 13.4.9 3.9 3.9 12.9-2.1 13.5-4z" style="clip-path:url(#SVGID_30_);fill:#82664b"/><defs><path id="SVGID_31_" d="M803.6 491.7h-198l-48.9-120.6 25.3-151 9.2-49 69.5-2.7 19.4 42.9h123.4v280.4z"/></defs><clipPath id="SVGID_32_"><use xlink:href="#SVGID_31_" style="overflow:visible"/></clipPath><path d="M634.2 238.4s-8 4.3-16.6 6c0 0 3.4 4.3 9.4 3.8 6-.4 7.2-9.8 7.2-9.8z" style="clip-path:url(#SVGID_32_);fill:#fff"/><defs><path id="SVGID_33_" d="M803.6 491.7h-198l-48.9-120.6 25.3-151 9.2-49 69.5-2.7 19.4 42.9h123.4v280.4z"/></defs><clipPath id="SVGID_34_"><use xlink:href="#SVGID_33_" style="overflow:visible"/></clipPath><path d="M698.2 351.9c-.2-.9-.4-2-.6-3.3l-31.8-77s2.7-6.3.3-9.1c-2.5-2.8-10.4.3-11 2.5 0 0 1.5 3.3 3.7 5.4l2.1 2 28.3 89.5c4.1 7.7 7 12.7 7.7 13.1 2.5 1.3 4.9-5.8 1.3-23.1z" style="clip-path:url(#SVGID_34_);fill:#2e2e47"/><defs><path id="SVGID_35_" d="M803.6 491.7h-198l-48.9-120.6 25.3-151 9.2-49 69.5-2.7 19.4 42.9h123.4v280.4z"/></defs><clipPath id="SVGID_36_"><use xlink:href="#SVGID_35_" style="overflow:visible"/></clipPath><path d="M633.6 222.6s2.1 3.2-.8 4.3c-2.9 1.1-3.5-2.5-2.9-3.3.7-.8 3.2-1.3 3.7-1z" style="clip-path:url(#SVGID_36_);fill:#2e2e47"/><defs><path id="SVGID_37_" d="M803.6 491.7h-198l-48.9-120.6 25.3-151 9.2-49 69.5-2.7 19.4 42.9h123.4v280.4z"/></defs><clipPath id="SVGID_38_"><use xlink:href="#SVGID_37_" style="overflow:visible"/></clipPath><path d="M614.9 228.9s1.9 3-.4 3.8c-2.3.8-3-2.4-2.5-3.1.5-.7 2.4-1 2.9-.7z" style="clip-path:url(#SVGID_38_);fill:#2e2e47"/><defs><path id="SVGID_39_" d="M803.6 491.7h-198l-48.9-120.6 25.3-151 9.2-49 69.5-2.7 19.4 42.9h123.4v280.4z"/></defs><clipPath id="SVGID_40_"><use xlink:href="#SVGID_39_" style="overflow:visible"/></clipPath><path style="clip-path:url(#SVGID_40_);fill:#fff" d="m649.8 260.3 9.5.6 12-15.7 8 6.4-5.5 17.2-11.6-1.2-9.1 5.7z"/><defs><path id="SVGID_41_" d="M803.6 491.7h-198l-48.9-120.6 25.3-151 9.2-49 69.5-2.7 19.4 42.9h123.4v280.4z"/></defs><clipPath id="SVGID_42_"><use xlink:href="#SVGID_41_" style="overflow:visible"/></clipPath><path d="M718.5 255.9s19.4 139.6 15.8 139.6c-9.8 0-78.9-44.5-96.3-39.5-17.4 5-24.3 30.3-9.7 45.1 14.6 14.8 106.7 80.2 145.4 50.6 49.1-37.6-32.8-187.1-55.2-195.8z" style="clip-path:url(#SVGID_42_);fill:#2e2e47"/><defs><path id="SVGID_43_" d="M803.6 491.7h-198l-48.9-120.6 25.3-151 9.2-49 69.5-2.7 19.4 42.9h123.4v280.4z"/></defs><clipPath id="SVGID_44_"><use xlink:href="#SVGID_43_" style="overflow:visible"/></clipPath><g style="clip-path:url(#SVGID_44_)"><path class="st32" d="M577.6 365.1s-9.7-9-7.8-11.7c2-2.8 5.2 1.7 5.2 1.7s.1-2.6 1.1-3.4c1-.9 3.7 2 3.7 2s-.2-2.1 2-1.7 11.7 13.4 12.2 15.5c.6 2-10 2.3-16.4-2.4z"/><path class="st32" d="M627.1 382s-36.3-4.4-40.7-6.4c-4.3-1.9-20-9.7-18.1-12.9 1.8-3.2 18.8 5 22.1 4.1s6.2-3.2 4.9-6.7-7.5-6-7.5-10 3.3-4.3 5.9-1.4c2.6 3 10.6 7 19.8 7.8s13.1 4.4 19.7 8.4c6.5 4-3.4 17.4-6.1 17.1z"/></g><defs><path id="SVGID_45_" d="M803.6 491.7h-198l-48.9-120.6 25.3-151 9.2-49 69.5-2.7 19.4 42.9h123.4v280.4z"/></defs><clipPath id="SVGID_46_"><use xlink:href="#SVGID_45_" style="overflow:visible"/></clipPath><path class="st9" d="m734.7 396-.5-.2c-1.5-.6-37.5-14.7-41.3-18.1-3.8-3.5-39.3-19.2-41.1-19.8-.2-.1-.3-.2-.2-.4.1-.2.2-.3.4-.2 1.9.5 37.5 16.4 41.4 19.9 3.5 3.1 36.2 16 40.6 17.8-.2-3.5-1.2-23.5-2.1-32.5-1-9.7-31.9-83.1-32.3-83.8-.1-.2 0-.4.2-.4.2-.1.4 0 .4.2 1.3 3 31.3 74.2 32.3 84 1 9.8 2.1 32.8 2.2 33v.5z" style="clip-path:url(#SVGID_46_)"/><defs><path id="SVGID_47_" d="M803.6 491.7h-198l-48.9-120.6 25.3-151 9.2-49 69.5-2.7 19.4 42.9h123.4v280.4z"/></defs><clipPath id="SVGID_48_"><use xlink:href="#SVGID_47_" style="overflow:visible"/></clipPath><path class="st9" d="M743.7 460.5c-3.1 0-6.2-.3-9.5-.9-21.3-3.9-71.6-31.6-84.7-41.2-12.9-9.6-17.7-13.5-17.7-13.5-.1-.1-.2-.3 0-.5.1-.1.3-.2.5 0 0 0 4.8 3.9 17.7 13.5 13 9.6 63.2 37.3 84.4 41.1 9.9 1.8 19.1.8 27.2-3 7-3.2 12.7-8.3 16.7-14.7 6.1-9.9 7.5-25.1 4.4-47.9-2.4-17.3-17.2-80.4-17.4-81 0-.2.1-.4.3-.4s.4.1.4.3c.1.6 15 63.8 17.4 81.1 2 14.5 3.6 35.2-4.5 48.4-4 6.5-9.9 11.7-17 15-5.6 2.4-11.7 3.7-18.2 3.7z" style="clip-path:url(#SVGID_48_)"/><defs><path id="SVGID_49_" d="M803.6 491.7h-198l-48.9-120.6 25.3-151 9.2-49 69.5-2.7 19.4 42.9h123.4v280.4z"/></defs><clipPath id="SVGID_50_"><use xlink:href="#SVGID_49_" style="overflow:visible"/></clipPath><path class="st9" d="M748 439.3c-.7 0-1.5-.2-2.6-.6-5.2-2-13.4-8.8-13.9-12.2 0-.2.1-.4.3-.4s.4.1.4.3c.4 3.2 8.5 9.8 13.5 11.7 1.6.6 2.8.7 3.3.3.4-.3.5-1 .3-1.9-1-4.9-4.1-11.6-7.1-18.1-2-4.2-3.8-8.3-5.2-11.9-.5-1.4-.6-2-.2-2.2.8-.4 2.5 1.7 10.6 13.1 4.4 6.1 9.3 13.1 12.3 16.3 3.9 4.3 8.3 5.2 10.3 3.7s1.6-5-1-9.4c-6.7-11-34.7-32.1-35-32.3-.2-.1-.2-.3-.1-.5s.3-.2.5-.1c.3.2 28.4 21.4 35.2 32.5 2.9 4.7 3.2 8.5.8 10.3-2.3 1.7-7 1-11.3-3.8-3-3.3-7.9-10.2-12.3-16.4-3.9-5.5-8.3-11.7-9.6-12.7 0 .2.1.6.4 1.2 1.3 3.6 3.2 7.6 5.1 11.8 3 6.5 6.1 13.2 7.1 18.2.3 1.2.1 2.1-.5 2.6-.2.3-.7.5-1.3.5z" style="clip-path:url(#SVGID_50_)"/><path class="st36" d="M170.2 584.7h108.9v5.8H170.2z"/><path class="st36" d="M323.9 626.3h-5.8v-74.4h-145v74.4h-5.8v-80.2h156.6z"/><path class="st37" d="M280 211.2h-61.9c-28.1 0-50.9 22.8-50.9 50.9 0 28.1 22.8 50.9 50.9 50.9h16.2l34.8 26.8V313h11c28.1 0 50.9-22.8 50.9-50.9-.1-28.1-22.9-50.9-51-50.9z"/><circle class="st9" cx="286.8" cy="263" r="6"/><path class="st9" d="M243.1 263c0 3.3 2.7 6 6 6s6-2.7 6-6-2.7-6-6-6-6 2.7-6 6z"/><circle class="st9" cx="211.3" cy="263" r="6"/><defs><path id="SVGID_51_" d="M569.2 626.6H148.7V380.3h136.5l9.2-64.9 111.3-2.4 15 67.3h148.5l48.3 36.2 3.7 113.7z"/></defs><clipPath id="SVGID_52_"><use xlink:href="#SVGID_51_" style="overflow:visible"/></clipPath><path d="M385.5 427.9s119 56.2 129.2 120-108.8 92.4-108.8 92.4-4.6-20.4-4.1-22c.5-1.5 57-69 57-69s-58.2-50.6-73.3-121.4z" style="clip-path:url(#SVGID_52_);fill:#fff"/><defs><path id="SVGID_53_" d="M569.2 626.6H148.7V380.3h136.5l9.2-64.9 111.3-2.4 15 67.3h148.5l48.3 36.2 3.7 113.7z"/></defs><clipPath id="SVGID_54_"><use xlink:href="#SVGID_53_" style="overflow:visible"/></clipPath><path d="M428 510.7c-8.2-23.8-25.3-62.8-25.3-62.8s-1.1 8.8-2.5 20.9c8.1 15.8 18.1 30 27.8 41.9z" style="clip-path:url(#SVGID_54_);fill:#2e2e47"/><defs><path id="SVGID_55_" d="M569.2 626.6H148.7V380.3h136.5l9.2-64.9 111.3-2.4 15 67.3h148.5l48.3 36.2 3.7 113.7z"/></defs><clipPath id="SVGID_56_"><use xlink:href="#SVGID_55_" style="overflow:visible"/></clipPath><path d="M349.5 331.2s-5 .5-13.5-.4-18 3-19 6.7c-.9 3.7-.6 4.3-.6 4.3s-7.4-2.5-7.7 0c-.3 2.5 3 3.5 3 3.5s-3.1 2-2.2 3.4 2.8 1.5 2.8 1.5-3.6 10.6 4.1 20.1c7.7 9.6 20 18 21.8 21.5 1.8 3.5 24.4-54.6 11.3-60.6z" style="clip-path:url(#SVGID_56_);fill:#2e2e47"/><defs><path id="SVGID_57_" d="M569.2 626.6H148.7V380.3h136.5l9.2-64.9 111.3-2.4 15 67.3h148.5l48.3 36.2 3.7 113.7z"/></defs><clipPath id="SVGID_58_"><use xlink:href="#SVGID_57_" style="overflow:visible"/></clipPath><path d="M230.3 626.6s35.2-201.3 105.2-208.5c70-7.1 74.6 48 78.1 70 3.6 22-3.1 138.5-3.1 138.5H230.3z" style="clip-path:url(#SVGID_58_);fill:#fff"/><defs><path id="SVGID_59_" d="M569.2 626.6H148.7V380.3h136.5l9.2-64.9 111.3-2.4 15 67.3h148.5l48.3 36.2 3.7 113.7z"/></defs><clipPath id="SVGID_60_"><use xlink:href="#SVGID_59_" style="overflow:visible"/></clipPath><path d="M353.8 426.7s.7 3.4 3.9 3.7c0 0 3.4 65.9 1.2 110.1-1.5 29.4-4.4 44.7-4.4 44.7l18.3 22 17.1-24.5s-9.1-87.7-13.1-106.5C372 453.6 363 429 363 429s4.9-5.5 1.7-7.5-13.8-6.5-10.9 5.2z" style="clip-path:url(#SVGID_60_);fill:#7703fc"/><defs><path id="SVGID_61_" d="M569.2 626.6H148.7V380.3h136.5l9.2-64.9 111.3-2.4 15 67.3h148.5l48.3 36.2 3.7 113.7z"/></defs><clipPath id="SVGID_62_"><use xlink:href="#SVGID_61_" style="overflow:visible"/></clipPath><path d="M414.3 538.4 320.2 472s25.9 61.7 55.8 76.7c15.6 7.8 28.6 12 37.4 14.2.4-8.2.7-16.5.9-24.5z" style="clip-path:url(#SVGID_62_);fill:#2e2e47"/><defs><path id="SVGID_63_" d="M569.2 626.6H148.7V380.3h136.5l9.2-64.9 111.3-2.4 15 67.3h148.5l48.3 36.2 3.7 113.7z"/></defs><clipPath id="SVGID_64_"><use xlink:href="#SVGID_63_" style="overflow:visible"/></clipPath><g style="clip-path:url(#SVGID_64_)"><path class="st32" d="M612.7 447s-14.1 14.6-18.6 15.5c-3.7.7-19.4-.1-18.1-6.9 1.4-6.7 23.1-20.7 27.3-21.6 4.3-.9 9.4 13 9.4 13z"/><path class="st45" d="M564.8 449.3c9.8-3 26.4-.2 30.2 1.3s7 1.6 8.1 4.4-4.2 6-5.4 7.5c-1.2 1.6-1.2 2.4-2.1 2.8-1 .4-2.9 2.6-3.3 3.3-.5.7-4 2.8-5.2 3.2-1.2.5-12.1-.7-17.1-1.9-5-1.3-9.7-2.4-11-8.7-.8-4.1 1.9-10.7 5.8-11.9z"/><path class="st32" d="M601.4 431.1s-8.2 1.8-14.5 5.3c-4.7 2.6-10.9 4.9-13 11.3s-7.7 12.6-2.7 12.1c4.9-.5 11.4-10.8 11.4-10.8s19.1-3.3 25.3-6.6c6.1-3.4-5.8-12-6.5-11.3z"/><path class="st45" d="M563.7 449.8s-14.2 4.5-14.4 6.6c-.3 2.1 2.8 14.4 6 13.9 3.2-.4 10-5.7 10.6-7 .6-1.2 2.3-13-2.2-13.5z"/><path class="st32" d="M580.7 473.2s-2.3 1-3.4.8c-1.1-.2-1.9-1.5-1.9-1.5s-1.7 1.4-3.4.8c-1.6-.5-2.6-2.1-2.6-2.1s-2.9 1.1-5.2-.4 1.6-4.9 1.6-4.9 4.6-4.7 5.6-3.4c1 1.4-1.4 5.3-1.4 5.3l3.6-2.2s3.9-2.2 5.6-1.9c1.6.3.4 2.2.4 2.2s2.3-1.4 3.7-.5.4 2.2.4 2.2 3.5-2.2 4.4-.4-4.3 6.4-5.7 6.5-1.7-.5-1.7-.5z"/><path class="st9" d="m325.8 431.4 111.3 72.1L551 450.1s6.7 3.2 10.4 9.5c3.9 6.9 5.6 15.2 5.6 15.2s-51.5 72.3-124.2 80.7c-74.7 8.7-147.2-87.3-117-124.1z"/></g><defs><path id="SVGID_65_" d="M569.2 626.6H148.7V380.3h136.5l9.2-64.9 111.3-2.4 15 67.3h148.5l48.3 36.2 3.7 113.7z"/></defs><clipPath id="SVGID_66_"><use xlink:href="#SVGID_65_" style="overflow:visible"/></clipPath><path d="M329.5 418.9c8.9-19.8 7.4-37.5 7.4-37.5l20 8.2s.4 12.5 7.3 29.7c0 .1-32.5 4.3-34.7-.4z" style="clip-path:url(#SVGID_66_);fill:#cc8b70"/><defs><path id="SVGID_67_" d="M569.2 626.6H148.7V380.3h136.5l9.2-64.9 111.3-2.4 15 67.3h148.5l48.3 36.2 3.7 113.7z"/></defs><clipPath id="SVGID_68_"><use xlink:href="#SVGID_67_" style="overflow:visible"/></clipPath><path d="M362.6 338.4s8.8 13.6 11.5 17.7 6.2 7.8 9.4 14.4c3.2 6.6 3.7 21-7.9 28.2-11.5 7.2-25.4-.9-31.4-6.2s-8.8-10.6-8.8-10.6-4.4 3.5-8.2-.9c-3.2-3.8-7.4-11.2-3.3-14.1 4-2.9 9.1 4.6 10 3.7.9-.8-2.2-6.5-3-12.9-.5-3.7 23.3-24.7 31.7-19.3z" style="clip-path:url(#SVGID_68_);fill:#cc8b70"/><defs><path id="SVGID_69_" d="M569.2 626.6H148.7V380.3h136.5l9.2-64.9 111.3-2.4 15 67.3h148.5l48.3 36.2 3.7 113.7z"/></defs><clipPath id="SVGID_70_"><use xlink:href="#SVGID_69_" style="overflow:visible"/></clipPath><path class="st0" d="M342.8 362.1c-.1 0-.2 0-.2-.1-.1-.1-.1-.3 0-.5s3.6-3.9 6.5-5.6c3-1.7 5.4-.7 5.5-.6.2.1.2.3.2.4-.1.2-.3.2-.4.2-.1 0-2.2-.9-4.9.6-2.8 1.6-6.3 5.4-6.3 5.4-.3.1-.3.2-.4.2z" style="clip-path:url(#SVGID_70_)"/><defs><path id="SVGID_71_" d="M569.2 626.6H148.7V380.3h136.5l9.2-64.9 111.3-2.4 15 67.3h148.5l48.3 36.2 3.7 113.7z"/></defs><clipPath id="SVGID_72_"><use xlink:href="#SVGID_71_" style="overflow:visible"/></clipPath><path d="M333.8 368.9c.4.3 2.9 4.7 4 6.9 1.6 2.9 4 5.3 7.1 5.9 4.3.8 11.5-4.2 15.1-7.1 2.6-2.1 3.4-1.5 11.8-3.7 0 0 3.8-3.3 10.7-2.7 2.1 2.4 6.1 7.7 6.8 10.7 1.6 6.2-.1 11.9-5.6 17.4-11.3 11.2-34.1 6.9-39.6 1.2-4.3-4.4-10.8-23.5-11.5-25.7-.8-2.8.7-3.3 1.2-2.9z" style="clip-path:url(#SVGID_72_);fill:#2e2e47"/><defs><path id="SVGID_73_" d="M569.2 626.6H148.7V380.3h136.5l9.2-64.9 111.3-2.4 15 67.3h148.5l48.3 36.2 3.7 113.7z"/></defs><clipPath id="SVGID_74_"><use xlink:href="#SVGID_73_" style="overflow:visible"/></clipPath><path d="M367.3 362s4.3 4.1 4.4 6.5-2.7 4.9-6.6 4.1c-3.8-.8-3.7-2-4.1-3.7-.5-1.6 4.9-8.3 6.3-6.9z" style="clip-path:url(#SVGID_74_);fill:#cc8b70"/><defs><path id="SVGID_75_" d="M569.2 626.6H148.7V380.3h136.5l9.2-64.9 111.3-2.4 15 67.3h148.5l48.3 36.2 3.7 113.7z"/></defs><clipPath id="SVGID_76_"><use xlink:href="#SVGID_75_" style="overflow:visible"/></clipPath><path d="M346.6 374.4c.7 1.7 3.8 2 7 .7s5.2-3.7 4.6-5.4c-.7-1.7-3.8-2-7-.7s-5.3 3.7-4.6 5.4z" style="clip-path:url(#SVGID_76_);fill:#c96b59"/><defs><path id="SVGID_77_" d="M569.2 626.6H148.7V380.3h136.5l9.2-64.9 111.3-2.4 15 67.3h148.5l48.3 36.2 3.7 113.7z"/></defs><clipPath id="SVGID_78_"><use xlink:href="#SVGID_77_" style="overflow:visible"/></clipPath><path d="M372.4 365.6c.6 1.7 3 2.5 5.4 1.7s3.9-2.8 3.3-4.6c-.6-1.7-3-2.5-5.4-1.7s-3.9 2.9-3.3 4.6z" style="clip-path:url(#SVGID_78_);fill:#c96b59"/><defs><path id="SVGID_79_" d="M569.2 626.6H148.7V380.3h136.5l9.2-64.9 111.3-2.4 15 67.3h148.5l48.3 36.2 3.7 113.7z"/></defs><clipPath id="SVGID_80_"><use xlink:href="#SVGID_79_" style="overflow:visible"/></clipPath><path class="st0" d="M365.9 373.4c-1.3 0-2.9-.4-4.3-1.9-.1-.1-.1-.4 0-.5s.4-.1.5 0c1.8 2 4.1 1.8 5.3 1.5 2-.5 3.9-2.1 4.2-3.6.2-.7-.1-1.3-.6-1.7-4.9-4-8.9-11.3-8.6-13.5.6-3.6 6-5.5 6.2-5.6s.4 0 .4.2c.1.2 0 .4-.2.4-.1 0-5.2 1.9-5.8 5.1-.3 1.7 3.5 8.9 8.3 12.8.8.6 1.1 1.5.9 2.4-.4 1.7-2.4 3.5-4.7 4.1-.4.2-1 .3-1.6.3z" style="clip-path:url(#SVGID_80_)"/><defs><path id="SVGID_81_" d="M569.2 626.6H148.7V380.3h136.5l9.2-64.9 111.3-2.4 15 67.3h148.5l48.3 36.2 3.7 113.7z"/></defs><clipPath id="SVGID_82_"><use xlink:href="#SVGID_81_" style="overflow:visible"/></clipPath><path d="M360.9 377.7s11.6-2.5 16.1-4.9c0 0 2.5 5.2-1.8 8.3-4.4 3.2-13.6.4-14.3-3.4z" style="clip-path:url(#SVGID_82_);fill:#fff"/><defs><path id="SVGID_83_" d="M569.2 626.6H148.7V380.3h136.5l9.2-64.9 111.3-2.4 15 67.3h148.5l48.3 36.2 3.7 113.7z"/></defs><clipPath id="SVGID_84_"><use xlink:href="#SVGID_83_" style="overflow:visible"/></clipPath><g style="clip-path:url(#SVGID_84_)"><path class="st0" d="M371.9 363.1c-.9 0-1.7-.2-2.5-.6-1.3-.7-2.7-2.1-3.7-3.8-1.1-1.7-1.2-3.9-.4-5.6l.3-.6c.7-.9 6.5-4.9 8.9-3.3 1.7 1.1 4 5.2 4.3 8.2.1 1.4-.2 2.4-1 3.1-1.9 1.7-4 2.6-5.9 2.6zm1.3-13.6c-2.4 0-6.5 2.8-7 3.4-.1.1-.2.3-.3.4-.7 1.5-.6 3.4.4 4.9.9 1.6 2.2 2.9 3.4 3.5 2.1 1.1 5 .4 7.7-1.9.6-.5.9-1.4.8-2.5-.2-3-2.5-6.8-3.9-7.7-.3 0-.7-.1-1.1-.1zM351.1 375.6c-1 0-2-.2-2.9-.6-1.7-.7-3.5-2.4-4.8-4.4-1.3-2.1-1.4-4.7-.2-6.8.2-.3.3-.5.5-.7 1-1.1 9.4-6.4 12.5-4.7 2.1 1.1 5 5.7 5.3 9.3.2 1.9-.4 3.4-1.6 4.3-2.9 2.3-6.1 3.6-8.8 3.6zm3.6-16.9c-3.3 0-9.6 3.9-10.4 4.8-.1.2-.3.3-.4.6-1.1 1.9-1.1 4.3.1 6.1 1.2 1.9 2.9 3.5 4.5 4.2 2.8 1.2 7.2.1 11-2.9 1-.8 1.4-2 1.3-3.7-.3-3.4-3-7.7-4.9-8.8-.3-.2-.7-.3-1.2-.3z"/><path class="st0" d="M358.5 361.3c-.1 0-.2 0-.2-.1-.1-.1-.1-.3 0-.5 4.2-4.5 7.2-4 7.3-4 .2 0 .3.2.3.4s-.2.3-.4.3c0 0-2.8-.4-6.7 3.8-.1.1-.2.1-.3.1z"/></g><defs><path id="SVGID_85_" d="M569.2 626.6H148.7V380.3h136.5l9.2-64.9 111.3-2.4 15 67.3h148.5l48.3 36.2 3.7 113.7z"/></defs><clipPath id="SVGID_86_"><use xlink:href="#SVGID_85_" style="overflow:visible"/></clipPath><path class="st0" d="M330.5 367.6c-.2 0-.3-.1-.3-.3 0-.2.1-.4.3-.4l12.6-2.3c.2 0 .4.1.4.3 0 .2-.1.4-.3.4l-12.7 2.3z" style="clip-path:url(#SVGID_86_)"/><defs><path id="SVGID_87_" d="M569.2 626.6H148.7V380.3h136.5l9.2-64.9 111.3-2.4 15 67.3h148.5l48.3 36.2 3.7 113.7z"/></defs><clipPath id="SVGID_88_"><use xlink:href="#SVGID_87_" style="overflow:visible"/></clipPath><g style="clip-path:url(#SVGID_88_)"><path class="st0" d="M347.8 365c-.1 0-.2 0-.2-.1-.1-.1-.2-.3 0-.5s4-4.4 8.1-3.3c.2 0 .3.2.2.4 0 .2-.2.3-.4.2-3.7-1-7.4 3.1-7.4 3.1-.1.1-.2.2-.3.2z"/><path class="st0" d="M353.8 361s.4-.2 1.2.1c.8.4 1.4 3 .1 4.6-1.2 1.7-2.8 1.1-3.5-.4-.7-1.5-.6-3.9 2.2-4.3z"/></g><defs><path id="SVGID_89_" d="M569.2 626.6H148.7V380.3h136.5l9.2-64.9 111.3-2.4 15 67.3h148.5l48.3 36.2 3.7 113.7z"/></defs><clipPath id="SVGID_90_"><use xlink:href="#SVGID_89_" style="overflow:visible"/></clipPath><g style="clip-path:url(#SVGID_90_)"><path class="st0" d="M368.2 356c-.1 0-.1 0-.2-.1-.2-.1-.2-.3-.1-.5 0 0 2.2-3.1 5.1-1.7.2.1.2.3.2.5-.1.2-.3.2-.5.2-2.4-1.2-4.1 1.3-4.2 1.5-.1.1-.2.1-.3.1z"/><path class="st0" d="M372 354.1c-.6-.5-.9-.3-.9-.3-2 0-1.9 2.2-1.2 3.6.6 1.5 1.9 2.3 2.6 1 .8-1.4.1-3.8-.5-4.3z"/></g><defs><path id="SVGID_91_" d="M569.2 626.6H148.7V380.3h136.5l9.2-64.9 111.3-2.4 15 67.3h148.5l48.3 36.2 3.7 113.7z"/></defs><clipPath id="SVGID_92_"><use xlink:href="#SVGID_91_" style="overflow:visible"/></clipPath><path d="M331.3 353.9s6.6-5.6 10.6-13.2c4-7.7 8.7-19 19.5-15.9s8.9 11.8 7.9 17.4-14.8 12.4-15.7 11.4c-.9-1 1.3-4.3 1.3-4.3s-18.1 14.9-23.2 15c-5.2-.1-4.5-6.3-.4-10.4z" style="clip-path:url(#SVGID_92_);fill:#2e2e47"/><defs><path id="SVGID_93_" d="M569.2 626.6H148.7V380.3h136.5l9.2-64.9 111.3-2.4 15 67.3h148.5l48.3 36.2 3.7 113.7z"/></defs><clipPath id="SVGID_94_"><use xlink:href="#SVGID_93_" style="overflow:visible"/></clipPath><path d="M327.3 419.9s4-9.2 5.1-8.6 23.4 6.9 23.4 6.9l5.6-6.2s11.4 9.6 9.5 12.2c-1.2 1.7-12.1-.5-12.1-.5s-5.9 8.9-11.1 8c-5-1-20.4-11.8-20.4-11.8z" style="clip-path:url(#SVGID_94_);fill:#fff"/><defs><path id="SVGID_95_" d="M569.2 626.6H148.7V380.3h136.5l9.2-64.9 111.3-2.4 15 67.3h148.5l48.3 36.2 3.7 113.7z"/></defs><clipPath id="SVGID_96_"><use xlink:href="#SVGID_95_" style="overflow:visible"/></clipPath><path class="st0" d="M347.5 432.8h-.8c-6.1-.8-18.8-11.9-19.3-12.3-.1-.1-.2-.3 0-.5.1-.1.3-.2.5 0 .1.1 13.1 11.4 18.9 12.2 5.7.7 11.8-8.5 11.8-8.6l.1-.2h.2c.1 0 9 1.8 11.7 1.7.6 0 .7-.3.7-.3.3-.7-.7-2.4-1.4-3.4-.1-.2-.1-.4.1-.5s.4-.1.5.1c.2.3 2 2.8 1.4 4.1-.1.3-.5.7-1.3.7-2.5.1-10.2-1.4-11.6-1.7-.4.6-1.8 2.6-3.7 4.5-2.7 2.8-5.4 4.2-7.8 4.2z" style="clip-path:url(#SVGID_96_)"/><defs><path id="SVGID_97_" d="M569.2 626.6H148.7V380.3h136.5l9.2-64.9 111.3-2.4 15 67.3h148.5l48.3 36.2 3.7 113.7z"/></defs><clipPath id="SVGID_98_"><use xlink:href="#SVGID_97_" style="overflow:visible"/></clipPath><path class="st0" d="M455.5 553.7c-.2 0-.3-.1-.3-.3s.1-.4.3-.4c.3-.1 30.6-6.3 53.2-23.6.1-.1.4-.1.5.1.1.1.1.4-.1.5-22.7 17.4-53.2 23.6-53.6 23.7.1 0 .1 0 0 0z" style="clip-path:url(#SVGID_98_)"/><defs><path id="SVGID_99_" d="M569.2 626.6H148.7V380.3h136.5l9.2-64.9 111.3-2.4 15 67.3h148.5l48.3 36.2 3.7 113.7z"/></defs><clipPath id="SVGID_100_"><use xlink:href="#SVGID_99_" style="overflow:visible"/></clipPath><path class="st0" d="M429.4 545c-.1 0-.2 0-.3-.1-1.2-.5-.9-4.1 4.1-25 1.8-7.7 3.6-14.9 3.4-16.4-.1-.9-4.1-4.8-29.3-20.3-14.4-8.8-28.9-17.2-29.1-17.3-.2-.1-.2-.3-.1-.5s.3-.2.5-.1c.1.1 14.7 8.5 29.1 17.3 29.3 18 29.5 20.1 29.6 20.8.2 1.6-1.5 8.6-3.4 16.7-1.4 5.6-2.7 11.4-3.7 16-1.4 7.1-1 8.1-.8 8.2 0 0 .3 0 1.2-1.3 4.6-6.6 6.3-20.2 7.2-27.4.6-4.8.7-5.5 1.3-5.6.4 0 .5.4.6.6.3 1 .9 4.2 1.7 8.2.8 4.1 1.7 9.3 2.7 13.4 1.4 6.2 2.1 7 2.4 7.1 0 0 .1-.1.2-.3 1.3-2.9-1.8-19.2-3.7-28.9-1.7-8.9-1.7-8.9-1.3-9.1.6-.3 30.5-14.3 30.5-14.3l.3.6s-27.9 13.1-30.4 14.2c0 .8.7 4.5 1.5 8.5 2 10.4 5 26.1 3.6 29.3-.2.5-.5.7-.9.7-1.5-.2-3-6.9-5.6-21.1-.6-3.4-1.2-6.3-1.5-7.7-.2.9-.4 2.6-.6 4.4-.9 7.3-2.6 21-7.3 27.7-.8 1.2-1.4 1.7-1.9 1.7z" style="clip-path:url(#SVGID_100_)"/><path class="st36" d="M185.8 549h8.3v38.6h-8.3zM196.7 549h8.3v38.6h-8.3z"/><path transform="rotate(-67.803 214.185 568.288)" class="st36" d="M194.9 564.1h38.6v8.3h-38.6z"/><path class="st36" d="M227.1 509c.4.7 3.3 1.2 4.3.7l.9-6.2s25.5-19.4 23.6-24.6c-1.9-5.2-20.1 13.7-20.1 13.7l2.7-10.3s19.3-10.4 17-14.7c-2.3-4.3-15.5 8.5-15.5 8.5l3.9-11.3s12.8-11 10.9-14.8-9.8 7.7-9.8 7.7 3.7-17.2-.4-16.4c-4.1.9-5.1 22.6-5.1 22.6s-1-7.3-3.6-7.5 2.5 13.2 2.5 13.2l-1.4 6.8s-5.3-15.2-8.3-12.8 6.6 18.5 6.6 18.5l-2.7 10s-4.5-14.5-10.1-12.6c-5.6 2 6.8 22.3 6.8 22.3l-2.2 7.2z"/><path class="st36" d="m218.7 509.5-1.6-10s22.3-34.3 14.7-33.5-15.9 26.9-15.9 26.9l-3-6.6s16.5-27.9 11.6-31.5c-5-3.6-13.9 20.7-13.9 20.7l-3-10s14.9-17.5 10-20.1c-5-2.6-11.9 14.1-11.9 14.1l-2.2-11.4s7.6-15.1 3.4-17.5-6.2 11-6.2 11-5.8-16.3-9.8-13.7c-4 2.6 7.4 21.5 7.4 21.5s-5.3-5.8-8.2-4.8 10.2 10.2 10.2 10.2l2.4 6.4s-14.3-10.6-16.3-7.2 17.7 12.7 17.7 12.7l2.8 9.8s-13.1-10.4-18.1-6.2c-5 4.2 20.1 15.9 20.1 15.9l2.4 9.6s-28.5-14.9-32.5-9.4c-4 5.6 33.9 13.9 33.9 13.9l1.6 10 4.4-.8z"/><path class="st36" d="m193.4 506.2 6.8 42.8h38.9l6.1-42.8z"/><path class="st37" d="M989.6 312.9h243.2V490H989.6z"/><path class="st64" d="M989.6 312.9h243.2v16.3H989.6z"/><path class="st65" d="M1004.7 321c0 2.2-1.8 4-4 4s-4-1.8-4-4 1.8-4 4-4c2.2.1 4 1.9 4 4z"/><path class="st66" d="M1016.6 321c0 2.2-1.8 4-4 4s-4-1.8-4-4 1.8-4 4-4c2.2.1 4 1.9 4 4z"/><path d="M1028.5 321c0 2.2-1.8 4-4 4s-4-1.8-4-4 1.8-4 4-4c2.2.1 4 1.9 4 4z" style="fill:#515032"/><path class="st9" d="M1195.5 420.5c-.1 0-.2 0-.3-.1-.3-.1-.5-.4-.5-.7l-.3-8.3h-11.6c-.5 0-.9-.4-.9-.9v-74.2c0-.5.4-.9.9-.9h40.6c.5 0 .9.4.9.9v74.2c0 .5-.4.9-.9.9h-16.9l-10.4 8.9c-.2.2-.4.2-.6.2zm-12-10.7h11.6c.5 0 .8.4.9.8l.3 7.3 9.3-7.9c.2-.1.3-.2.6-.2h16.3v-72.5h-38.9v72.5h-.1z"/><path class="st9" d="M1187 343.9h32.1v3.7H1187zM1187 356.2h27.7v3.7H1187zM1187 350.1h20.2v3.7H1187z"/><defs><path id="SVGID_101_" d="M989.6 312.9h243.2V490H989.6z"/></defs><clipPath id="SVGID_102_"><use xlink:href="#SVGID_101_" style="overflow:visible"/></clipPath><g style="clip-path:url(#SVGID_102_)"><path class="st69" d="M1091.4 386s.4 11.1-9.5 13.6-11.1 9.9-10 19.3 20.7 8.5 34.5 7.4 37.6-6 38.2-18c.5-12-18.5-51-53.2-22.3z"/><path class="st69" d="M1115.4 336.9s16.7-7.3 25.7-1.2c15.1 10.2 15.3 38.4 5.6 48.8-9.7 10.5-20.3 17.7-23.7 17.4-3.4-.4-7.6-65-7.6-65z"/><path class="st9" d="M1075.4 450.1c2.5-7.1 11.1-19.8 22.9-25.6 19.4-9.6 49.6 1.8 57.5 13.3 18.7 27.2 16.6 142.1 16.6 142.1s-118.6 24.2-119.2 2.4c-.7-28.7 8.4-92.5 22.2-132.2z"/><path class="st45" d="M1110.1 430.9c-4.4-2.4-5.9-5.3-6.2-7.8 3-2 5.4-4.4 8.1-10 5.5-11.5 18.6-16.1 18.6-16.1s-1.6 11.5-.3 17.8c.7 3.2 2.5 7.1 5.7 10.1-3.9 2.8-17.4 10.5-25.9 6z"/><path class="st0" d="M1118.5 413.7c7.3-2.4 9.4-9.8 9.4-9.8l-13.7 5.7c-.8 1.1-1.5 2.2-2 3.3-.5 1-1 1.9-1.4 2.7 1.5.3 4.3-.8 7.7-1.9z"/><path class="st69" d="M1153.1 358.5s2.1 15.6 3.7 17.8c1.7 2.2 13-1.1 22.2 7.5s-1.5 18.7-5.4 19.7c-3.8 1-3.9-1.8-5.4-2-1.4-.2.9 12.8-8.6 17.6-9.5 4.8-19.9 4.4-24.4.3s-4.3-12.1-1.8-16.1c2.6-3.9 2.7-12.3 2.6-17.1-.1-4.8 17.1-27.7 17.1-27.7z"/><path class="st45" d="M1136.1 386.2s3.1 0 5.5-2.9c1.9-2.3 1.1-8.8-1.3-10.5s-5-1.3-5.7-1.4c-.6-.1.6-10.9-3.9-17.2-4.5-6.2-11.2-8.8-22.1-6.6s-13.7 5.8-16.6 10.9c-2.9 5.2-1.9 14.8-1.6 19.4s-.6 6.1-1.1 8.7c-1.1 5.9-1.3 10 1.3 16.2 2.6 6.2 10.3 11.6 20.9 9.9 10.5-1.5 23.2-9.1 24.6-26.5z"/><path class="st0" d="M1104 390.5c-1.5 0-2.7-.6-3.4-1.6-.9-1.3-1-3.1-.1-5.1 1.7-3.9 1.3-11.4 1.1-12.3-.2-.8-.8-1.4-1.9-1.7-2.8-.8-7.5.4-8.3 1.2-.1.1-.3.1-.5 0-.1-.1-.1-.3 0-.5 1-1 6-2.2 8.9-1.4 1.3.4 2.1 1.2 2.3 2.3.2 1 .7 8.6-1.1 12.7-.8 1.8-.7 3.3 0 4.4.7.9 1.9 1.4 3.3 1.3.2 0 .4.1.4.3 0 .2-.1.4-.3.4h-.4zM1120.8 370.5c-5.6-2-12.4-1-12.4-1-.2 0-.4-.1-.4-.3s.1-.4.3-.4c.3 0 7-1 12.7 1 .2.1.3.3.2.4-.2.2-.3.3-.4.3zM1111.1 377.1c-.2 0-.4-.2-.3-.4.1-.6.6-1.2 3.7-1.5s3.6.5 3.7.7 0 .4-.2.5-.4 0-.4-.1c0 0-.6-.6-3-.3-2.7.3-3.1.7-3.1.9 0 .1-.2.2-.4.2z"/><path class="st0" d="M1092.6 378.6c-.1 0-.2 0-.3-.1-.1-.1-.1-.3 0-.5.1-.1.9-.8 3-.9 2.1-.2 4.1-.1 4.1-.1.2 0 .3.2.3.4s-.2.3-.4.3c0 0-1.9-.1-4 .1-1.9.2-2.6.7-2.7.8.1 0 0 0 0 0z"/><path class="st70" d="M1116.2 382.6s6.8.6 7.6 3.5c.8 2.9-6.7 2.2-9.9.3-3.1-1.9.6-4.1 2.3-3.8zM1089.7 383.7s6.3-2.7 8.3-.5c2.1 2.2-4.9 5.1-8.5 4.9s-1.4-3.8.2-4.4z"/><path class="st69" d="M1098.9 356.9s17.5 18 35.6 14.5c0 0 5.2-15.7 2.9-23.6-2.3-7.9-11-12.5-21.1-11.1-10.1 1.3-17.4 20.2-17.4 20.2z"/><path class="st69" d="M1098.9 356.9s-8.4 5.3-8.9 7.6c0 0-5.8-10.9 3.6-22.3s20.5-6.1 24.9-4c4.4 2.2-19.6 18.7-19.6 18.7z"/><path class="st0" d="M1094.3 377.7c.9-.2 1.8.4 2 1.3.3 1.1.5 2.7-.7 3.2-1.9.8-2.5-1.5-2.6-2.5-.1-.6.2-1.7 1.3-2zM1113.3 375.6c1.1-.2 2.2.5 2.5 1.7s.5 3-1 3.6c-2.3 1-3-1.7-3.1-2.8-.1-.9.3-2.2 1.6-2.5z"/><path class="st9" d="M1111.8 393.5s-8.1.7-14.5 1.2l.6 3.2s11.3 2 13.9-4.4z"/><path class="st71" d="M1141.6 385.9c0 1.5-1.2 2.8-2.8 2.8s-2.8-1.2-2.8-2.8c0-1.5 1.2-2.8 2.8-2.8s2.8 1.3 2.8 2.8z"/><path class="st70" d="M1037.7 409.4s10-9 23.1-8.1c13 1 20.2 9.6 25.6 21.9s-8.4 26.1-21.5 25.9c-13-.2-27 .2-32-9-5-9.1-3.2-26.9 4.8-30.7z"/><path class="st70" d="M1082.4 438.7s3.7 5.2 4.4 10.5c.8 5.3 2.4 7.1 2.4 7.1s5.7 11.6 9.1 16.1c3.5 4.5 6.4 21.6 5.6 22.7s-75.9 2.4-76.5-.5-1.2-22.2-.8-24.4c.5-2.2 1.6-3.6 1.6-3.6s-1.5-4.5.3-7.8 3.4-6.2 3.4-6.2-1.6-.2-1.6-1.6c-.1-1.4 7.5-6 10.7-7.6 3.3-1.6 39.6-6.1 41.4-4.7z"/><path class="st9" d="M1073.1 415.8s-6.2-3.8-9.6-1.9c-3.4 2-4.1 7.6-2 12 2.2 4.4 4.5 7.7 9.6 6.2 5.1-1.4 6.6-13.4 2-16.3z"/><path class="st71" d="M1049.6 418.6s-5.2-4.7-7.8-1.1c0 0-.7 3.6 1.8 5.1 2.5 1.6 5.6 0 6-4z"/><path class="st0" d="M1043.5 417s-.9 2.7-.2 4.1c.8 1.4 2.5.1 2.8-.9s.4-2.5.4-2.5 0-1.3-1.3-1.3c-1.5-.2-1.7.6-1.7.6z"/><path class="st71" d="M1070.2 418.5s-4.7-4.7-7.8.6c0 0 .1 3.7 2.9 4.6 2.7 1 5.4-1.2 4.9-5.2z"/><path class="st0" d="M1064.2 417.7c-.8.7-.5 2.9.5 4.2 1.1 1.2 2.5-.4 2.6-1.5s0-2-.2-2.6c-.6-1.3-2.3-.6-2.9-.1z"/><path class="st9" d="M1042.6 417.9c-.1 0-.2 0-.3-.1-.1-.1-.1-.4.1-.5.1 0 1.3-1 2.9-.7.2 0 .3.2.3.4s-.2.3-.4.3c-1.3-.2-2.3.6-2.3.6-.2-.1-.2 0-.3 0zM1063.4 419.7c-.1 0-.2 0-.2-.1-.1-.1-.2-.3 0-.5.1-.1 1.5-1.6 3-1.6.2 0 .3.2.3.3 0 .2-.2.3-.3.3-1 0-2.2 1-2.5 1.4-.1.2-.2.2-.3.2z"/><path class="st0" d="M1051.2 435.6c-1.3 0-2.5-.3-3.2-.9-1.1-1-1.2-1.4-1.3-1.5-.1-.2 0-.4.2-.4.2-.1.4 0 .4.2 0 0 .2.3 1.1 1.2 1 .9 4.1.9 5.2.2 1-.7 1.1-1.4 1.1-1.4 0-.2.2-.3.4-.3s.3.2.3.4c0 .1-.1 1-1.4 1.9-.5.4-1.6.6-2.8.6z"/><path class="st0" d="M1059.9 436.7c-.9 0-1.8-.2-2.5-.5-2-.8-2.5-2.8-2.5-2.8 0-.2.1-.4.2-.4.2 0 .4.1.4.2 0 0 .5 1.7 2.1 2.4 1.8.7 4.8.5 5.8-.9.9-1.3.5-1.9.5-1.9-.1-.1-.1-.4.1-.5.1-.1.4-.1.5.1.1.1.7 1-.5 2.7-.9 1.1-2.5 1.6-4.1 1.6z"/><path d="M1053.4 429.1s5.1.1 5.1.6-2.1.5-2.3.8c-.2.3-.6 3.2-1.1 2.8-.4-.4-.2-3-.2-3s-3.2-1.2-1.5-1.2z" style="fill:#ffb7ab"/><path class="st9" d="M1058.5 432.4c-.1 0-.2-.1-.2-.1 0-.1 0-.2.1-.2l18.4-3.2c.1 0 .2 0 .2.1s0 .2-.1.2l-18.4 3.2zM1074.4 435.6l-12.9-1.7c-.1 0-.2-.1-.1-.2 0-.1.1-.2.2-.1l12.9 1.7c.1 0 .2.1.1.2s-.1.1-.2.1z"/><path class="st70" d="M1035.4 411.5s.3-24.2 3.8-24.1c3.5 0 15.6 16 15.4 18.4-.1 2.3-19.2 5.7-19.2 5.7zM1083 418.3s2.5-32.1-1-32.1-15.6 16-15.4 18.4c.2 2.4 16.4 13.7 16.4 13.7z"/><path class="st9" d="M1021.2 436c-.1 0-.1 0-.1-.1-.1-.1 0-.2 0-.2 9.6-6.8 28.3-5.9 28.5-5.9.1 0 .2.1.2.2s-.1.2-.2.2c-.2-.1-18.8-1-28.4 5.8.1 0 0 0 0 0zM1030.4 440.8s-.1 0-.1-.1c-.1-.1-.1-.2 0-.2 8.7-8 20.3-8.1 20.5-8.1.1 0 .2.1.2.2s-.1.2-.2.2c-.3 0-11.7.1-20.4 8z"/><path class="st69" d="M1066.2 402.4c-1.7-.6-3.5-1-5.4-1.1-2.5-.2-4.9 0-7.1.4-.6 3.7-2.4 15.1-.8 13.3 1.9-2.1 4.2-11.5 4.2-11.5s-2.6 13.7-.6 14.2c1.9.5 4.4-12.1 4.4-12.1s-.5 6.2 1.5 6.3c1.4.1 3.9-5.5 3.8-9.5z"/><path class="st9" d="M1042.9 447.7s-7.1 10.4-5 10.4c2.1-.1 3.8-1.4 3.8-1.4s.1 8.2 2.2 12.9c2.1 4.7 6 12.8 8.2 11.6 2.2-1.2 6.9-23.8 7.7-23.4.8.4 4.8 2 4.3-.2-.5-2.3-2.2-8.7-6.2-8.9-4-.1-12.1 1.4-15-1z"/><path class="st45" d="M1106.1 480.3s-7.4-7.7-11.6-13.8c-3.2-4.6-5.3-21.6-7.9-18.3-2.6 3.3-2.2 15-3.4 17.3-1.2 2.3-33.5-10.6-33.7-8.8-.1 1.7 17.1 9.6 16.1 11.4-.9 1.7-20.9-8.7-22.2-6.5-1.3 2.2 19.2 12.5 19 13.1s-19.6-5.2-20.1-3.5 22.1 10.1 22.1 11.6-15.3-2.8-15 .1c.2 2.9 22.6 7.1 25.9 9.3 3.3 2.2 19.8 5.2 25.3.7 5.6-4.7 9.4-10 5.5-12.6zM1155.9 437.8s40.1 31.9 45 62.5c2.6 15.8-26.4 28.6-35.4 16.5s-11.2-71.3-9.6-79z"/><path class="st0" d="M1069.2 450c-.1 0-.3-.1-.3-.2-.1-.2 0-.4.2-.4 6.8-2.6 13.9-9.5 13.9-9.6.1-.1.3-.1.5 0 .1.1.1.3 0 .5-.1.1-7.2 7.1-14.3 9.7.1 0 .1 0 0 0z"/><path class="st45" d="M1109.8 481.2s42.3 14.8 52.9 36.3c10.6 21.4-19.6 16.2-36.8 8.3s-30.7-28.3-31.7-36.9c-.5-4.3.8-12.2 15.6-7.7z"/><path class="st0" d="M1126.1 448.4c-2.6 0-5.7-1.8-9.1-5.4-2.7-2.8-4.9-5.9-5.4-6.8-2.7.7-17.9 4.3-20 1.8-2.2-2.7 7.8-12.3 8.9-13.4.1-.1.4-.1.5 0s.1.4 0 .5c-4.1 4-10.2 10.9-8.8 12.5.3.4 2 1.3 10.3-.2 4.6-.8 9.1-1.9 9.1-1.9l.2-.1.1.2c.1.1 9.2 14.2 15.7 11.8 6.6-2.5 14.2-16.7 14.2-16.9.1-.2.3-.2.5-.1s.2.3.1.5c-.3.6-7.7 14.6-14.6 17.2-.4.1-1.1.3-1.7.3z"/></g><path class="st73" d="M1202.7 623.9c-.2 0-.4 0-.6-.1-.8-.4-1.1-1.3-.7-2 2.2-4.8 13.5-7.1 15.8-7.5.8-.2 1.6.4 1.8 1.2.2.8-.4 1.6-1.2 1.8-4.9.9-12.4 3.3-13.5 5.8-.4.4-1 .8-1.6.8zM1203 602.7c-.2 0-.4 0-.6-.1-2.7-1.3-9.9-1-12.4-.8-.9.1-1.6-.6-1.6-1.4-.1-.8.6-1.6 1.4-1.6 1-.1 10-.7 13.9 1.1.8.4 1.1 1.3.7 2-.2.5-.8.8-1.4.8z"/><path class="st73" d="M1198.7 673.2h-.2c-.8-.1-1.4-.9-1.3-1.7 0-.2 2.9-24.6 3.6-35.2.3-3.8.4-13.4.5-24.5.3-21 .6-44.8 1.9-49.8 1.9-7.4 3.9-35 4-35.2.1-.8.8-1.5 1.6-1.4.8.1 1.5.8 1.4 1.6-.1 1.1-2 28.2-4.1 35.8-1.2 4.7-1.6 30.3-1.8 49.1-.1 11.1-.3 20.7-.5 24.6-.7 10.6-3.6 35.1-3.7 35.3 0 .9-.6 1.4-1.4 1.4z"/><path class="st74" d="m1166.9 670.1 9.1 75.9h52l8.2-75.9z"/><path class="st73" d="M1207.5 541.5s-9.4-1.7-10.8-15.2c-1.5-13.5 3.3-49.6 18.8-46s12.9 61.5-8 61.2z"/><path class="st75" d="M1206.1 535.3s-8.6-9.5-8.2-10.6 2.6.9 4.1 0-1.2-9.5 0-11.9c1.2-2.4 3.6.8 4.1-1.3.5-2-4.1-6.9-1.2-13.8s9.2-15.5 9.7-14.7-2.7 13.3 0 13.7c2.7.4 4.6 1.7 4.9 5.7.3 4.1-1.9 9.2-2.6 11.5s.3 3.1 0 7c-.3 4.1-2.5 13.4-10.8 14.4z"/><path class="st73" d="M1194.4 569.8s-7.3 5.8-19.5-1.5-39.5-33.2-26.8-42.3c12.7-9.2 59.6 28.8 46.3 43.8z"/><path class="st75" d="M1188.4 567.1s-13.3.4-14-.6 2.4-1.3 2.5-3c.2-1.7-8.7-5-9.9-7.4-1.3-2.4 2.9-2.1 1.5-3.8s-8.3-1.3-12.3-7.7-7.2-16.3-6.3-16.2c1 .1 9.4 10.3 11.4 8.5s4.3-2.4 7.9 0c3.6 2.3 6.5 7.1 8 9.1 1.5 1.9 2.7 1.7 5.9 4.4 3.2 2.6 9.6 10 5.3 16.7z"/><path class="st73" d="M1195.3 652.5s-9.1 7.2-24.4-1.9c-15.3-9.2-49.6-41.7-33.7-53.2 15.8-11.5 74.7 36.2 58.1 55.1z"/><path class="st75" d="M1187.7 649.1s-16.7.5-17.6-.8 3-1.7 3.2-3.8-10.9-6.2-12.5-9.3c-1.6-3 3.6-2.7 1.9-4.8s-10.5-1.6-15.5-9.6-9.1-20.5-7.9-20.4 11.8 12.9 14.4 10.7c2.5-2.2 5.4-3 9.9 0 4.5 2.9 8.2 8.9 10.1 11.4 1.9 2.4 3.4 2.1 7.4 5.5s12 12.6 6.6 21.1z"/><path class="st73" d="M1205.5 560.1c-.5 0-1-.3-1.3-.8-.4-.7-.2-1.7.6-2.1.6-.3 14.3-8.2 22.4-8.9.8-.1 1.6.6 1.7 1.4.1.8-.6 1.6-1.4 1.7-7.4.6-21 8.4-21.1 8.5-.4.1-.6.2-.9.2z"/><path class="st73" d="M1219.5 550.3s-.8-7.5 12.6-11.7c13.4-4.3 51.8-9.2 52.5 3.3.6 12.5-59.7 24.2-65.1 8.4z"/><path class="st75" d="M1221.6 550.4s12.2-11.6 12.2-9.3-2.7 5.3-.8 4.8c1.9-.4 13.9-9.8 13.9-7.1s-2.3 3.5.7 2.6c3-1 14.4-5.4 14.2-4.6-.1.8-5.7 3.5-.8 3.2 4.9-.3 14.6-2.6 15-1.5s-4.2 3.9-1.4 3.4c2.9-.4 7.4-1.1 7.8 0s-18.3 2.6-17.4 3.1c1 .5 7 1.7 6.6 2.8s-18.9-.9-18.6-.1c.4.8 5 4.7 2.2 4.9-2.9.2-12.2-2.1-12.6-1.7-.4.4 1.6 3.9-3.1 4.2-4.8.4-17.9-4.7-17.9-4.7z"/><path class="st73" d="M1211.8 617.1s-1.1-11 17-17.3 69.9-13.6 70.8 4.9c.8 18.5-80.4 35.7-87.8 12.4z"/><path class="st75" d="M1214.7 617.3s16.4-17.1 16.4-13.8 5.3 5.1 7.9 4.4c1-.2.8.5 11.2-1.6 2.8-.6 11.5-9 14.4-9.6 4.7-1 3.8 5.9 8 5.1 8.7-1.6 15.3-2.7 15.5-2.1.6 1.6-5.7 5.7-1.8 5.1s9.9-1.6 10.5 0-24.7 3.8-23.4 4.6c1.3.8 9.4 2.5 8.8 4.1s-25.5-1.3-25-.2 6.8 7 2.9 7.3-16.4-3.2-16.9-2.5c-.6.6 2.2 5.7-4.2 6.2-6.6.4-24.3-7-24.3-7z"/><path class="st73" d="M1196.4 599.7s-3-9.3-17.6-9.9c-14.6-.6-52.9 6.5-47.2 21.9 5.6 15.3 67.7 8.9 64.8-12z"/><path class="st75" d="M1194.4 600.5s-17.2-9.8-16-7.1c1.1 2.7 5.2 5.4 3.2 5.6s-17.9-7.1-16.6-3.8c1.4 3.2 4 3.5.7 3.3-3.3-.1-16.1-1.6-15.6-.7.5.9 7.1 2.3 2.4 3.6s-14.9 1.9-14.8 3.3c.2 1.4 5.9 3.2 3 3.7s-7.4 1.2-7.3 2.6c.2 1.4 18.4-3.1 17.7-2.1-.6 1-5.6 4.4-4.7 5.6.9 1.2 17.2-7.5 17.2-6.4s-2.3 7.4.5 6.7 10.2-6.7 10.8-6.3c.6.4.4 5.2 5 4 4.9-1.4 14.5-12 14.5-12z"/><path class="st73" d="M1221.2 652.9h-.3c-3.8-.6-14.5-2-18.9-.4-.8.3-1.7-.1-2-.9-.3-.8.1-1.7.9-2 6-2.2 19.8.2 20.4.3.8.1 1.4.9 1.2 1.8.1.6-.6 1.2-1.3 1.2z"/><path class="st73" d="M1211.6 649.7s5.7-13.4 27.5-12.2c21.8 1.1 77.4 16.9 66.9 38.8-10.6 22-101.5 4-94.4-26.6z"/><path class="st75" d="M1214.3 651.2s26.8-12.2 24.7-8.3c-2.1 3.9-8.4 7.3-5.5 7.8s27.5-8 25-3.4-6.3 4.6-1.4 4.9c4.9.2 24-.2 23.2 1-.9 1.2-10.9 2.5-4 5 6.8 2.6 21.8 4.8 21.4 6.9-.4 2.1-9.2 4-5 5 4.2 1.1 10.8 2.8 10.4 4.9-.4 2.1-26.8-7.1-26-5.6s7.7 7.4 6.2 8.9c-1.5 1.6-24.4-13.4-24.6-11.9s2.4 11.3-1.6 9.8c-4-1.4-14.3-11.4-15.2-10.9-.9.5-1.3 7.7-8 5.2-6.7-2.3-19.6-19.3-19.6-19.3z"/><path class="st73" d="M1203.5 579.1c-.4 0-.8-.1-1.1-.4l-9.8-9.4c-.6-.6-.6-1.6 0-2.2.6-.6 1.6-.6 2.2 0l9.8 9.4c.6.6.6 1.6 0 2.2-.2.2-.7.4-1.1.4zM1208.7 587.2s6.6-12 20.6-13.5c13.9-1.5 36.8-3.3 44.8 1.8 7.8 5.1-62.7 8.1-65.4 11.7z"/><path class="st73" d="M1203.1 595.5c-.2 0-.3 0-.5-.1-.8-.3-1.2-1.2-.9-2 3.2-8.8 17.6-14.6 18.2-14.8.8-.3 1.7.1 2 .9.3.8-.1 1.7-.9 2-.1.1-13.8 5.5-16.5 13-.1.6-.7 1-1.4 1zM1200 662.2c-.8 0-1.5-.6-1.5-1.4-.1-1.6-3.1-6.2-5.2-9-.5-.7-.4-1.6.3-2.1s1.6-.4 2.1.3c.9 1.2 5.6 7.5 5.8 10.6.1.8-.6 1.6-1.4 1.6h-.1z"/><circle class="st65" cx="699.9" cy="452.4" r="24.2"/><path class="st9" d="M690.7 438.6s-3.5 1.2-4.7 4.9c-1.2 3.7 2.4 9.2 4.3 11.5 2 2.3 5.7 7.2 11.9 10.1s9.5.6 11.2-2.3-.9-3.3-1.5-3.7c-.7-.4-5-2.5-5.6-2.7s-1.9 1.1-2.6 1.6c-.7.5-1.1 1.1-1.8.9-.8-.2-6.3-5.5-7.7-8 0 0-.5-.7.4-1.9.9-1.1 1.8-1.8 1.8-2.5s-2.7-5.8-3.1-7c-.6-1.1-1.3-1.6-2.6-.9z"/><circle transform="rotate(-22.5 1111.122 459.294)" class="st65" cx="1111.2" cy="459.3" r="20.8"/><path class="st9" d="M1103.3 447.4s-3 1-4 4.2 2 7.9 3.7 9.9 4.9 6.2 10.2 8.7c5.3 2.5 8.2.5 9.6-2s-.8-2.9-1.3-3.2c-.6-.3-4.3-2.2-4.8-2.3-.5-.2-1.7.9-2.3 1.4-.6.5-.9.9-1.6.8-.7-.2-5.4-4.8-6.7-6.9 0 0-.4-.6.4-1.6s1.5-1.5 1.5-2.1-2.3-5-2.7-6c-.3-1.1-.9-1.5-2-.9zM1062.1 338.5h-36.2c-6 0-10.9 4.9-10.9 10.9V366c0 6 4.9 10.9 10.9 10.9h22.6l8.9 9 1.1-9h3.7c6 0 10.9-4.9 10.9-10.9v-16.6c-.1-6-5-10.9-11-10.9z"/><path class="st76" d="M1034.5 358.1c0 1.1-.9 2-2 2s-2-.9-2-2 .9-2 2-2 2 .9 2 2z"/><circle class="st76" cx="1044" cy="358.1" r="2"/><circle class="st76" cx="1055.5" cy="358.1" r="2"/><defs><path id="SVGID_103_" d="M947.3 728.1H606.2V528.4h89s41.9-35.5 59-34.8c4.7.2 12.5-4.6 19.3 0 15.1 10.3 30.2 34.8 30.2 34.8h143.7l-.1 199.7z"/></defs><clipPath id="SVGID_104_"><use xlink:href="#SVGID_103_" style="overflow:visible"/></clipPath><path d="M851.9 613.7s-31.7-8.5-38.5-11.3c-6.8-2.9-30.9-17.8-39-16.8-8.2.9-3 8.4.4 15.8 3.8 8.4 10 19.4 38.5 24.1 28.4 4.8 41.2 1.9 42.3-3 1-4.9-.5-8.3-3.7-8.8z" style="clip-path:url(#SVGID_104_);fill:#fff"/><defs><path id="SVGID_105_" d="M947.3 728.1H606.2V528.4h89s41.9-35.5 59-34.8c4.7.2 12.5-4.6 19.3 0 15.1 10.3 30.2 34.8 30.2 34.8h143.7l-.1 199.7z"/></defs><clipPath id="SVGID_106_"><use xlink:href="#SVGID_105_" style="overflow:visible"/></clipPath><g style="clip-path:url(#SVGID_106_)"><path class="st74" d="M711.7 585.5s-7 23.7-32.4 58.5c-19.1 26.1-13.7 92.1 28 89.4 41.7-2.7 82.8-113 83.4-141.3.6-28.5-51.6-55.9-79-6.6z"/><path class="st74" d="m780.5 525.8 10.3 5.7s3.9 14.9 3.7 29.3c-.3 14.4-6.2 44.1-6.2 44.1l-23.8-2.1s1.5-82.5 16-77z"/><path class="st70" d="M707.2 620.9c-15.2 17.5-16 82.3-10.7 124.5 2.4 18.5 2.6 38.4 2.6 38.4s27.9-1.5 82.6-6.5c48.5-4.4 52.6-6.1 52-11.9-1.7-15.7-2.1-70.4-2.1-70.4s-4.4-96.5-40.4-101.2c-23.3-3-33.4-2.9-50 4.4-3.7 1.6-11.9 4-15.2 5.9-8.1 4.9-12.1 9.1-18.8 16.8z"/><path class="st79" d="M779.7 602.7c-5-3.6-8.3-6.1-11.4-15.2-4.8-13.8-24.1-23.9-24.1-23.9s6.7 16.4 4.4 23.4c-1.6 4.7-3.8 7.2-7 9.3-5 3.2-3 10.9 2.9 11.3 16.4.9 37.2-.2 35.2-4.9z"/><path class="st0" d="M768.3 587.5c-.6-1.7-1.4-3.3-2.3-4.9l-13.9-4s4.2 5.6 8.8 7.9c2.4 1.2 5.6 2 8 2.6-.2-.5-.4-1-.6-1.6z"/><path class="st79" d="M739.3 564.1s-3.1.5-6-2c-2.3-2-2.6-8.6-.5-10.7 2.1-2.1 4.8-2.2 5.4-2.3.6-.2-1.7-11.6 1.7-18.6s10.1-13.7 21.3-13.3 17 6.3 20.9 10.9c3.8 4.6 3.6 12.3 4.1 16.9.5 4.6 5.9 19.3 4.3 26-1.5 6.6-7.5 14.3-18.4 14.6-10.8.1-28.4-4.5-32.8-21.5z"/><path class="st0" d="M776.7 560.5c-.2 0-.3-.1-.3-.3s.1-.4.3-.4c1.7-.1 3.2-1.3 3.4-2.6.2-1-.5-1.9-1.8-2.6-4-1.9-5.5-5.1-5.6-6.4-.1-.4-.9-4.8 1-7.2.8-1 1.8-1.5 3.2-1.5.7-.1 6.7-.6 8.1.4.2.1.2.3.1.5s-.3.2-.5.1c-.9-.6-5.1-.5-7.6-.2-1.2 0-2.1.5-2.7 1.3-1.7 2.2-.9 6.6-.9 6.6.1.7 1.2 3.9 5.3 5.9 1.6.8 2.4 2 2.2 3.3-.4 1.5-2.2 2.9-4.2 3.1.1 0 0 0 0 0zM757.2 544c-.1 0-.2-.1-.3-.2-.1-.2 0-.4.1-.5.2-.1 4-2.2 9.1-2.3.2 0 .3.1.3.3s-.1.3-.3.3c-4.9.1-8.7 2.2-8.8 2.2.1.2 0 .2-.1.2zM759.7 551.4s-.1 0 0 0c-.3 0-.4-.2-.3-.4 0-.1.5-2.1 3.7-2.7 3.2-.5 4 .5 4.2.9.1.2 0 .4-.2.4-.2.1-.4 0-.4-.2 0-.1-.5-1-3.5-.5-2.7.5-3.1 2.1-3.1 2.1-.1.3-.3.4-.4.4z"/><path class="st0" d="M777.3 547.4c-.3-.1-.4-.2-.3-.4 0-.1.7-2.1 3.9-2.3 3.3-.2 4 .9 4.1 1.3.1.2 0 .4-.2.4-.2.1-.4 0-.4-.2 0-.1-.4-1-3.4-.9-2.7.2-3.3 1.7-3.3 1.8-.1.2-.3.3-.4.3z"/><path class="st37" d="M765.3 556.9s-8.4.3-9.8 3.4c-1.4 3.2 7.9 2.8 12 .9 4.1-1.8-.1-4.4-2.2-4.3zM788.9 551.8s-6.1 0-6.9 2.8c-.8 2.8 6 2.8 8.9 1.2 2.8-1.6-.5-4.1-2-4z"/><path class="st0" d="M783.2 545.4s1.6 2 .2 3.1c-1.3 1.1-2.3-.8-2.5-1.8-.1-1-.8-1.9 2.3-1.3zM765.4 548.8s1.8 2.2.3 3.4-2.7-.8-2.9-2-.9-2 2.6-1.4z"/><path class="st9" d="M785 562.7s-8.8 1.6-16.7 2c0 0 1.3 5 10 4.1 8.2-.9 6.7-6.1 6.7-6.1z"/><path class="st0" d="M859.4 1030.7s-113.8 17.1-175.4 5.5c0 0-8.9-122-4.8-160 4.1-37.9 14.8-114.1 14.8-114.1s21-6.2 25.9-23.3c6.1-21.1-4.8-126.5-4.8-126.5s2.8-4.7 9.6-7.4l43.3 70 30.2-2.7s-6.3-59.8-19.6-79.6c0 0 3.4-.1 7.6.4 6 .7 10.3 5.1 12.8 10.5 5.5 11.9 10.6 28 19.2 59.4 5.8 21.1 12.6 66.7 15.3 88 9.1 69.6 25.9 279.8 25.9 279.8z"/><path class="st74" d="M766.3 525.8s-6.2 9.7-7.8 18.5c-1.5 8.8-2.3 56.4-15.9 65.8-5.1 3.5-36.4 7-36.4 7s11.8-66.4 11.5-72.7c-.3-6.4-.8-21.5 8.7-28.6 6.1-4.5 13.2-2.8 13.2-2.8s11.6-10.9 25.4-5c21.6 9.4 25.8 23.5 25.8 23.5l-24.5-5.7z"/><path class="st80" d="M732.7 551.5s10.9-25.7 23.7-30.9c16.3-6.6 27-.1 27-.1s.5-5.4-12.1-9.2-26 0-31.1 9.3c-5 9.3-7.5 30.9-7.5 30.9z"/><path class="st80" d="M755.7 512.5s-1.3-12.1 5.4-15.9 7.5-4.1 7.5-4.1 2.7 17.7-12.9 20z"/><path class="st80" d="M756.7 511.5s-5.6-11.5-16.8-10.7c-11.1.8 7.6 13.7 11.7 13.4 4.1-.3 5.1-2.7 5.1-2.7z"/></g><defs><path id="SVGID_107_" d="M947.3 728.1H606.2V528.4h89s41.9-35.5 59-34.8c4.7.2 12.5-4.6 19.3 0 15.1 10.3 30.2 34.8 30.2 34.8h143.7l-.1 199.7z"/></defs><clipPath id="SVGID_108_"><use xlink:href="#SVGID_107_" style="overflow:visible"/></clipPath><path d="M803.2 599.5s113.9 70.3 110.3 104.7c-3.6 34.4-42 31.9-55.7 26.8-13.8-5.1-54.5-98.7-54.6-131.5z" style="clip-path:url(#SVGID_108_);fill:#c96b59"/><defs><path id="SVGID_109_" d="M947.3 728.1H606.2V528.4h89s41.9-35.5 59-34.8c4.7.2 12.5-4.6 19.3 0 15.1 10.3 30.2 34.8 30.2 34.8h143.7l-.1 199.7z"/></defs><clipPath id="SVGID_110_"><use xlink:href="#SVGID_109_" style="overflow:visible"/></clipPath><path class="st9" d="M835 625.2s8.2-16.8 31.1-10.5c22.8 6.3 26.3 73 26.5 82.3.5 20.8-15.3 31.4-15.8 37.3-.5 5.9 2.4 43.6 1.7 49.2-.7 5.6-8.2 18.2-15 17.2s-1.8-15.4-1.8-15.4-10.2-20-14.4-38.1c-2.1-9.2-2.9-30-2.9-30s-6 15.5-6.2 22.9c-.2 7.5-1.4 43.4-1.6 47.4-.2 4-6.4 12.6-12.9 12-6.6-.6-1.2-13.5-1.2-13.5s-12.9-33.1-13.7-45c-.9-12.1 18.4-108.2 26.2-115.8z" style="clip-path:url(#SVGID_110_)"/><defs><path id="SVGID_111_" d="M947.3 728.1H606.2V528.4h89s41.9-35.5 59-34.8c4.7.2 12.5-4.6 19.3 0 15.1 10.3 30.2 34.8 30.2 34.8h143.7l-.1 199.7z"/></defs><clipPath id="SVGID_112_"><use xlink:href="#SVGID_111_" style="overflow:visible"/></clipPath><path class="st79" d="M866.2 608.3s1.6 6.6.8 7.9c-.8 1.4-8 3.3-11 2.9-3-.4-.5-4.5-.2-6.4.2-1.9 10.4-4.4 10.4-4.4z" style="clip-path:url(#SVGID_112_)"/><defs><path id="SVGID_113_" d="M947.3 728.1H606.2V528.4h89s41.9-35.5 59-34.8c4.7.2 12.5-4.6 19.3 0 15.1 10.3 30.2 34.8 30.2 34.8h143.7l-.1 199.7z"/></defs><clipPath id="SVGID_114_"><use xlink:href="#SVGID_113_" style="overflow:visible"/></clipPath><path d="M855.8 635.6c-4.2.9-19.2 2.4-26.6 3.1-.9 3-1.9 6.4-2.9 10.1 3.1.7 9 1.5 18-.1 13.7-2.4 23.7-13.9 23.7-13.9s-6.6-.5-12.2.8z" style="clip-path:url(#SVGID_114_);fill:#2e2e47"/><defs><path id="SVGID_115_" d="M947.3 728.1H606.2V528.4h89s41.9-35.5 59-34.8c4.7.2 12.5-4.6 19.3 0 15.1 10.3 30.2 34.8 30.2 34.8h143.7l-.1 199.7z"/></defs><clipPath id="SVGID_116_"><use xlink:href="#SVGID_115_" style="overflow:visible"/></clipPath><path d="M855.7 612.7c-.1 1.1-1 2.8-1.2 4.2.8.2 1.8.3 2.9.1 5.2-1 7.6-5.4 7.6-5.4l-9.3 1.1z" style="clip-path:url(#SVGID_116_);fill:#2e2e47"/><defs><path id="SVGID_117_" d="M947.3 728.1H606.2V528.4h89s41.9-35.5 59-34.8c4.7.2 12.5-4.6 19.3 0 15.1 10.3 30.2 34.8 30.2 34.8h143.7l-.1 199.7z"/></defs><clipPath id="SVGID_118_"><use xlink:href="#SVGID_117_" style="overflow:visible"/></clipPath><path class="st79" d="M874.7 603.6s3.9.6 5.8-2.2c3.9-5.9-1.1-7.9-1.6-8.2-.5-.2 6.3-9.1 4.1-15.6-2.2-6.6-7.4-13.2-17.4-14.1-9.9-.9-15.7 3.7-19.6 7.4-3.9 3.7-4.6 11.8-6.3 13.5-9.3 9.2-5.6 23.5 5.7 28.1 14.8 6 25.8-3.4 29.3-8.9z" style="clip-path:url(#SVGID_118_)"/><defs><path id="SVGID_119_" d="M947.3 728.1H606.2V528.4h89s41.9-35.5 59-34.8c4.7.2 12.5-4.6 19.3 0 15.1 10.3 30.2 34.8 30.2 34.8h143.7l-.1 199.7z"/></defs><clipPath id="SVGID_120_"><use xlink:href="#SVGID_119_" style="overflow:visible"/></clipPath><path class="st0" d="M846 585.1c-.4 1.2-1.4 1.9-2.2 1.7-.8-.3-1.2-1.4-.8-2.6.4-1.2 1.4-1.9 2.2-1.7.8.3 1.2 1.5.8 2.6z" style="clip-path:url(#SVGID_120_)"/><defs><path id="SVGID_121_" d="M947.3 728.1H606.2V528.4h89s41.9-35.5 59-34.8c4.7.2 12.5-4.6 19.3 0 15.1 10.3 30.2 34.8 30.2 34.8h143.7l-.1 199.7z"/></defs><clipPath id="SVGID_122_"><use xlink:href="#SVGID_121_" style="overflow:visible"/></clipPath><path class="st0" d="M859.5 589.9c-.4 1.2-1.4 1.9-2.2 1.7-.8-.3-1.2-1.4-.8-2.6.4-1.2 1.4-1.9 2.2-1.7.8.2 1.1 1.4.8 2.6z" style="clip-path:url(#SVGID_122_)"/><defs><path id="SVGID_123_" d="M947.3 728.1H606.2V528.4h89s41.9-35.5 59-34.8c4.7.2 12.5-4.6 19.3 0 15.1 10.3 30.2 34.8 30.2 34.8h143.7l-.1 199.7z"/></defs><clipPath id="SVGID_124_"><use xlink:href="#SVGID_123_" style="overflow:visible"/></clipPath><path class="st0" d="M847.6 593.5c-.2 0-1.9-.5-2.4-1.9-.4-1.3.4-2.7 2.1-3.5.3-.2.9-.9 1.5-2.7.7-2 1-4.1.7-4.7-.6-1.1-3.4-1.9-4.9-1.3-.2.1-.4 0-.4-.2-.1-.2 0-.4.2-.4 1.9-.7 5.1.2 5.8 1.6.5 1-.1 3.7-.6 5.2-.3 1-1 2.7-1.8 3.1-1.1.5-2.1 1.5-1.7 2.7.4 1.1 1.8 1.5 1.9 1.5.2 0 .3.2.3.4-.4.1-.5.2-.7.2z" style="clip-path:url(#SVGID_124_)"/><defs><path id="SVGID_125_" d="M947.3 728.1H606.2V528.4h89s41.9-35.5 59-34.8c4.7.2 12.5-4.6 19.3 0 15.1 10.3 30.2 34.8 30.2 34.8h143.7l-.1 199.7z"/></defs><clipPath id="SVGID_126_"><use xlink:href="#SVGID_125_" style="overflow:visible"/></clipPath><path class="st0" d="M864 585.9c-.1 0-.2 0-.3-.1 0 0-2-2.6-5.8-2.7-.2 0-.3-.2-.3-.3 0-.2.2-.3.3-.3 4.1.1 6.2 2.9 6.3 3 .1.2.1.4-.1.5 0-.1 0-.1-.1-.1z" style="clip-path:url(#SVGID_126_)"/><defs><path id="SVGID_127_" d="M947.3 728.1H606.2V528.4h89s41.9-35.5 59-34.8c4.7.2 12.5-4.6 19.3 0 15.1 10.3 30.2 34.8 30.2 34.8h143.7l-.1 199.7z"/></defs><clipPath id="SVGID_128_"><use xlink:href="#SVGID_127_" style="overflow:visible"/></clipPath><path d="M855.7 562.2s-2 5.1 2.7 7 11.2 2 13.8 3.2 3.9 3.3 5.6 2.2c1.7-1.1 2.7-4.3.4-7.2-2.3-3-5.4-4.5-5.8-5.8-.3-1.4 2.4-5.9-3.6-7.3-6-1.4-13.4 2.8-13.1 7.9z" style="clip-path:url(#SVGID_128_);fill:#82664b"/><defs><path id="SVGID_129_" d="M947.3 728.1H606.2V528.4h89s41.9-35.5 59-34.8c4.7.2 12.5-4.6 19.3 0 15.1 10.3 30.2 34.8 30.2 34.8h143.7l-.1 199.7z"/></defs><clipPath id="SVGID_130_"><use xlink:href="#SVGID_129_" style="overflow:visible"/></clipPath><path d="M867.2 620.4s-33.8 1.4-41.1-.1-30.2-18.8-38-16.3-3.8 12.9 1 19.5c5.4 7.5 14.8 21.9 43.6 21s39.6-11.1 39.7-16.2c.1-5.1-2-8.1-5.2-7.9z" style="clip-path:url(#SVGID_130_);fill:#fff"/><defs><path id="SVGID_131_" d="M947.3 728.1H606.2V528.4h89s41.9-35.5 59-34.8c4.7.2 12.5-4.6 19.3 0 15.1 10.3 30.2 34.8 30.2 34.8h143.7l-.1 199.7z"/></defs><clipPath id="SVGID_132_"><use xlink:href="#SVGID_131_" style="overflow:visible"/></clipPath><path d="M891.5 739.1s6.4-6.3 7.2-10.3c.8-4.1-1.8-12.5-4.8-13.3s-6.5 3.4-7.8 3.9c-1.4.4-4.3 18 5.4 19.7z" style="clip-path:url(#SVGID_132_);fill:#ffd3b5"/><defs><path id="SVGID_133_" d="M947.3 728.1H606.2V528.4h89s41.9-35.5 59-34.8c4.7.2 12.5-4.6 19.3 0 15.1 10.3 30.2 34.8 30.2 34.8h143.7l-.1 199.7z"/></defs><clipPath id="SVGID_134_"><use xlink:href="#SVGID_133_" style="overflow:visible"/></clipPath><path class="st79" d="M793 604.9s-2.6-2.7-2.8-5.9c-.2-2.4.5-5-1.3-4.1s-1.4 2.6-2.2 3.3-5.7-7.1-6.5-6 1.8 3 .8 3.9c-1.1.8-2.2-2-4.2-1.9s2.8 4.1 1.9 4.6c-.9.5-2.3-2-3.4-1.3-1.1.6 3.5 4 2.4 4s-2.6-1.2-3.4-.2c-.8.9 3.1 2.6 4.2 3.8 1.1 1.2 3.2 4.3 6.4 5 3.3.7 8.9-2.1 8.1-5.2z" style="clip-path:url(#SVGID_134_)"/><defs><path id="SVGID_135_" d="M947.3 728.1H606.2V528.4h89s41.9-35.5 59-34.8c4.7.2 12.5-4.6 19.3 0 15.1 10.3 30.2 34.8 30.2 34.8h143.7l-.1 199.7z"/></defs><clipPath id="SVGID_136_"><use xlink:href="#SVGID_135_" style="overflow:visible"/></clipPath><path d="m715.8 619.2 68.2 92.6s94.1-7.4 105.4 12.4c11.3 19.7-2.7 38.8-53.1 43.8-48.8 4.8-69.4 1.4-91.2-13.8-21.9-15.2-45.6-82.2-44.7-103 .9-21.1 7.1-36.6 15.4-32z" style="clip-path:url(#SVGID_136_);fill:#c96b59"/><defs><path id="SVGID_137_" d="M947.3 728.1H606.2V528.4h89s41.9-35.5 59-34.8c4.7.2 12.5-4.6 19.3 0 15.1 10.3 30.2 34.8 30.2 34.8h143.7l-.1 199.7z"/></defs><clipPath id="SVGID_138_"><use xlink:href="#SVGID_137_" style="overflow:visible"/></clipPath><g style="clip-path:url(#SVGID_138_)"><path class="st79" d="M895.8 701.8s-.9-5.1-8.2-9.6c-4-2.4-6.5-2.4-9.1-4.3-3.9-2.8-8.6-10.5-9.4-6.9-1.1 4.8-.7 7.2 6.4 13.2 1.9 1.6-1.9 3.4 3.5 5 5.3 1.6 16.8 8.8 16.8 2.6z"/><path class="st79" d="M868.2 703.1c1.7-1.3 2.3-2.1 1-2.1-1.4 0-16.3 7.5-18 5.8s10.1-9.9 12.5-11.8c2.4-1.9 13-2.5 18-.6 3 1.1 6.5 2.6 8.7 2.7 7 .5 11.3 20.1 5.8 22.4-3 1.2-1.6 1.9-5 2-4.9.1-5.8-2-10.3-1.8-4.6.2-16.4 5.7-18.4 4.2-2.1-1.5 6.3-8 6.3-8s-10.7 4.7-13.5 3.8.3-4.8.3-4.8-6 3.9-6.2.3c-.4-3.7 17-10.8 18.8-12.1z"/></g><defs><path id="SVGID_139_" d="M947.3 728.1H606.2V528.4h89s41.9-35.5 59-34.8c4.7.2 12.5-4.6 19.3 0 15.1 10.3 30.2 34.8 30.2 34.8h143.7l-.1 199.7z"/></defs><clipPath id="SVGID_140_"><use xlink:href="#SVGID_139_" style="overflow:visible"/></clipPath><path d="M841.7 593.2s6.2 3.8 9.7 4.6c0 0-4.9 2.6-8.3 1.7-3.3-.8-1.4-6.3-1.4-6.3z" style="clip-path:url(#SVGID_140_);fill:#2e2e47"/><defs><path id="SVGID_141_" d="M947.3 728.1H606.2V528.4h89s41.9-35.5 59-34.8c4.7.2 12.5-4.6 19.3 0 15.1 10.3 30.2 34.8 30.2 34.8h143.7l-.1 199.7z"/></defs><clipPath id="SVGID_142_"><use xlink:href="#SVGID_141_" style="overflow:visible"/></clipPath><path d="M843.2 599.5c1.2.3 2.6.2 3.9-.1l-.9-.6c-1.1-.9-2.9-.8-2.9-.8s.1-.3-.4-.8c-.3-.3-1.1-.5-1.8-.7.1 1.3.5 2.6 2.1 3z" style="clip-path:url(#SVGID_142_);fill:#fa634b"/><defs><path id="SVGID_143_" d="M947.3 728.1H606.2V528.4h89s41.9-35.5 59-34.8c4.7.2 12.5-4.6 19.3 0 15.1 10.3 30.2 34.8 30.2 34.8h143.7l-.1 199.7z"/></defs><clipPath id="SVGID_144_"><use xlink:href="#SVGID_143_" style="overflow:visible"/></clipPath><path class="st0" d="M770.9 747.4c-1 0-1.7-.3-2.1-1-1.5-2.4 2.2-8.9 5.7-15.1 2.4-4.2 4.6-8.2 4.6-9.9 0-.4-.1-.5-.1-.5-.5-.2-2.8 2-4.6 3.8-4.9 4.8-12.4 12-19.8 12.7-.6.1-2.2.2-2.6-.8-.4-1.1.8-3.8 15.4-14.2 8-5.6 16.2-10.9 16.3-10.9.2-.1.4-.1.5.1.1.2.1.4-.1.5-.1.1-8.3 5.3-16.3 10.9-14.4 10.2-15.4 12.8-15.2 13.4.1.1.3.5 1.9.3 7.2-.7 14.6-7.8 19.4-12.5 3.1-3 4.5-4.3 5.3-3.9.5.2.5.9.5 1.1-.1 1.9-2.2 5.8-4.7 10.2-3.1 5.5-7 12.4-5.7 14.5.3.5.9.7 1.8.6 3.3-.2 6.8-5.1 10.2-14.2 2.6-7 4.2-14 4.2-14.1l.7.1c0 .1-.6 7.9 2.2 11.8.1.2.1.4-.1.5-.2.1-.4.1-.5-.1-1.8-2.5-2.3-6.5-2.4-9.2-1.9 7.3-7.4 25.5-14.3 25.9h-.2z" style="clip-path:url(#SVGID_144_)"/><defs><path id="SVGID_145_" d="M947.3 728.1H606.2V528.4h89s41.9-35.5 59-34.8c4.7.2 12.5-4.6 19.3 0 15.1 10.3 30.2 34.8 30.2 34.8h143.7l-.1 199.7z"/></defs><clipPath id="SVGID_146_"><use xlink:href="#SVGID_145_" style="overflow:visible"/></clipPath><g style="clip-path:url(#SVGID_146_)"><path class="st80" d="M830 620.7c-1.6-.1-3-.2-3.9-.4-1.2-.2-2.9-.9-4.8-1.9-.1.3-.1.5-.1.5s-5.8-2.2-7 .5 5.3 2.7 5.3 2.7-1.3.7-2.2 2 3.1 3.3 4.9 3 1.2-2.6 1.2-2.6 3.8 1.8 4.8.3c.9-1.5 0-2.6 0-2.6s1.6-.3 1.8-1.5zM855.7 632.6s-.8 1.5.4 2.2 3.3-.9 3.3-.9 1.8 1.8 3.6 1.1c1.8-.8 0-3.8 0-3.8s3.2.5 2.9-2.2-4.1-1-4.1-1 .1-1.7-2.1-1.8c-2.2-.1-2.6 2.4-2.6 2.4s-3.4-.9-3.6 1.3c-.1 2.2 2.2 2.7 2.2 2.7z"/></g><defs><path id="SVGID_147_" d="M947.3 728.1H606.2V528.4h89s41.9-35.5 59-34.8c4.7.2 12.5-4.6 19.3 0 15.1 10.3 30.2 34.8 30.2 34.8h143.7l-.1 199.7z"/></defs><clipPath id="SVGID_148_"><use xlink:href="#SVGID_147_" style="overflow:visible"/></clipPath><g style="clip-path:url(#SVGID_148_)"><path class="st80" d="M850.5 672.9c.9-1.5 0-2.6 0-2.6s2.6-.5 1.7-2.7c-.9-2.2-5.2-.4-5.2-.4s.3-1.9-1.5-2c-1.8-.2-2 1.8-2 1.8s-5.8-2.2-7 .5 5.3 2.7 5.3 2.7-1.3.7-2.2 2c-.8 1.2 3.1 3.3 4.9 3 1.8-.3 1.2-2.6 1.2-2.6s3.9 1.8 4.8.3zM879.2 653.1c-.3-3.2-4.5-1.2-4.5-1.2s.1-2.1-2.3-2.2c-2.4-.1-2.8 3-2.8 3s-3.7-1-4 1.6 2.2 3.2 2.2 3.2-.9 1.8.4 2.7c1.3.8 3.7-1.1 3.7-1.1s2 2.2 4 1.3 0-4.6 0-4.6 3.6.5 3.3-2.7zM838.4 709.8c2.6-1.1 0-5.5 0-5.5s4.7.7 4.3-3.2c-.4-3.8-5.9-1.4-5.9-1.4s.1-2.5-3-2.6-3.7 3.5-3.7 3.5-4.9-1.2-5.2 1.9c-.3 3.2 2.9 3.8 2.9 3.8s-1.2 2.2.5 3.2 4.8-1.3 4.8-1.3 2.7 2.8 5.3 1.6zM890.6 679.7s.3-.2.6-.6l-.3-3.3c-2.4-1.8-3.7 2.3-3.7 2.3s-1.4-1.4-3 .1.2 3.8.2 3.8-3.1 1.8-1.5 3.7 3.6.6 3.6.6.6 1.8 2.1 1.5c1.4-.4 1.6-3.2 1.6-3.2s.7 0 1.5-.2c-.1-1.4-.2-2.9-.4-4.4-.4-.2-.7-.3-.7-.3z"/></g><defs><path id="SVGID_149_" d="M947.3 728.1H606.2V528.4h89s41.9-35.5 59-34.8c4.7.2 12.5-4.6 19.3 0 15.1 10.3 30.2 34.8 30.2 34.8h143.7l-.1 199.7z"/></defs><clipPath id="SVGID_150_"><use xlink:href="#SVGID_149_" style="overflow:visible"/></clipPath><path class="st0" d="M723.7 726.4c-.1 0-.2-.1-.3-.2-13.3-26.1-22.1-62.1-22.2-62.5 0-.2.1-.4.3-.4s.4.1.4.3c.1.4 8.8 36.3 22.1 62.3.1.2 0 .4-.1.5h-.2z" style="clip-path:url(#SVGID_150_)"/><defs><path id="SVGID_151_" d="M947.3 728.1H606.2V528.4h89s41.9-35.5 59-34.8c4.7.2 12.5-4.6 19.3 0 15.1 10.3 30.2 34.8 30.2 34.8h143.7l-.1 199.7z"/></defs><clipPath id="SVGID_152_"><use xlink:href="#SVGID_151_" style="overflow:visible"/></clipPath><path class="st0" d="M714.9 706.8c-.1 0-.2 0-.3-.1-7.1-8.6-13.9-24.9-14-25.1-.1-.2 0-.4.2-.4.2-.1.4 0 .4.2.1.2 6.9 16.4 13.9 24.9.1.1.1.4 0 .5h-.2z" style="clip-path:url(#SVGID_152_)"/><defs><path id="SVGID_153_" d="M947.3 728.1H606.2V528.4h89s41.9-35.5 59-34.8c4.7.2 12.5-4.6 19.3 0 15.1 10.3 30.2 34.8 30.2 34.8h143.7l-.1 199.7z"/></defs><clipPath id="SVGID_154_"><use xlink:href="#SVGID_153_" style="overflow:visible"/></clipPath><path class="st0" d="M870.1 625.6c-.1 0-.3-.1-.3-.2s-.1-.2-.1-.3c-.5-1.3-1.4-3.3-7.4-3.8-6.6-.6-28.2-.1-28.5-.1-.2 0-.3-.1-.3-.3s.1-.3.3-.3 21.9-.5 28.5.1c6.5.6 7.4 2.8 8 4.3 0 .1.1.2.1.3.1.2 0 .4-.2.4l-.1-.1z" style="clip-path:url(#SVGID_154_)"/><path class="st3" d="M1098.7 497.3H1012c-10.5 0-19.1 8.6-19.1 19.1v179.8c0 10.5 8.6 19.1 19.1 19.1h86.7c10.5 0 19.1-8.6 19.1-19.1V516.4c-.1-10.5-8.7-19.1-19.1-19.1z"/><path d="M1098.7 502.5H1012c-7.7 0-13.9 6.2-13.9 13.9v179.8c0 7.7 6.2 13.9 13.9 13.9h86.7c7.7 0 13.9-6.2 13.9-13.9V516.4c0-7.7-6.3-13.9-13.9-13.9z" style="fill:#d2ffe8"/><defs><path id="SVGID_155_" d="M1098.7 502.5H1012c-7.7 0-13.9 6.2-13.9 13.9v36.1l-74.6.4 74.6 143.3c0 7.7 6.2 13.9 13.9 13.9h86.7c7.7 0 13.9-6.2 13.9-13.9V516.4c0-7.7-6.3-13.9-13.9-13.9z"/></defs><clipPath id="SVGID_156_"><use xlink:href="#SVGID_155_" style="overflow:visible"/></clipPath><g style="clip-path:url(#SVGID_156_)"><path class="st37" d="M967.9 563.9c8.2-.7 21.4 52.2 21.4 52.2l7.5-5.4c1.1 4.6 4.8 17.4 11.4 26.2-14.9 8.4-30.4 9.9-36.9-3.5-8.2-17.1-17.9-68.3-3.4-69.5z"/><path class="st65" d="M1040.1 579.4s3.8 25.8-14.2 43.8c-5.3 5.3-11 12.8-17.3 16.3-6.6-8.7-10.7-24.3-11.9-28.9l43.4-31.2z"/><path class="st76" d="M1071.2 522.6s3.1-6.6 9.8-6.2c6.7.4 6.1 3.1 6.5 5.3.4 2.1 2.9 2.1 2.8 4.6s-.1 4.8-2.1 7.2-2.7 7.5-7.2 6.8c-4.5-.8-14-7.4-9.8-17.7z"/><path class="st65" d="M1011.6 671.3c2.6-11.6 4.7-22.2 5.2-29.5.9-12.9-1.9-26.5 2.7-38.1 4.1-10.4 12.5-19.4 20.6-24.3 24.5-14.8 40 10.3 40.5 29.5.6 22.9 5.5 49.3 8.5 63.2-8.2 1.3-51.5 7.4-77.5-.8z"/><path class="st0" d="M995.2 738c1.3-8.8 10.4-40.3 16.3-66.7 26.1 8.2 69.4 2.1 77.5.9 1.3 6.1 2.2 9.8 2.2 9.8s5.4 31.8 11.4 56.3c6.2 24.5-120 87.1-107.4-.3z"/><path class="st76" d="M1070.7 521.7s5.2.2 8.9 5.1c3.7 5 4.1 18.4.5 24.3-3.6 5.9-10.5 11.8-20 11.3-9.4-.4 3.2-41.6 10.6-40.7z"/><path class="st37" d="M1052.2 584.8c-6.8 0-8.2-2.9-6.6-7.8 1.8-1.6 2.3-1.8 3.2-5.4.6-2.4.9-5.8.7-10.8-.4-9.4 12.6-7.4 12.6-7.4s-2 8.9-1.9 11.9 3 11.8 3 11.8-.7 7.7-11 7.7z"/><path class="st0" d="m1049.7 564 10.1-1.3s-4.6 6.6-10.5 7.3c.2-1.6.4-3.6.4-6z"/><path class="st37" d="M1066.9 556.9s1.8.9 4-.1c1.8-.8 3.2-4.8 2.3-6.5-.9-1.7-2.6-2.2-2.9-2.4s3.2-6.8 2.4-11.8c-.8-4.9-3.7-10.3-10.6-12.1-7-1.8-11.7.7-14.9 2.9-3.2 2.1-5.4 8-6.6 10.8s-2.1 3.4-3.2 4.7c-2.4 3.1-3.7 5.4-4 9.8-.3 4.4 2.6 9.7 9.2 11.9s18.4 2.4 24.3-7.2z"/><path class="st0" d="M1047.7 549.7c-.7 0-1.6-.3-2.6-.7-.7-.3-1.5-.7-1.6-1.4s.4-1.4 1.7-2.5c2-1.7 3.3-4.7 3.6-5.5 0 0 1.1-1.8.6-3.2-.2-.6-.7-1-1.5-1.3-1.6-.7-4.1-1.5-4.7-1.3-.2.1-.4 0-.4-.2-.1-.2 0-.4.2-.4 1-.4 4.5 1 5.1 1.3 1 .3 1.6.9 1.9 1.7.6 1.6-.5 3.5-.6 3.7-.5 1.2-1.8 4-3.8 5.8-.4.3-1.6 1.3-1.5 1.9 0 .3.4.6 1.2.9 2.1.8 2.9.9 3.4 0 .1-.2.3-.2.5-.1s.2.3.1.5c-.3.6-.9.8-1.6.8zM1060.2 540.1c-.1 0-.2 0-.2-.1 0 0-2-2-4.9-3-.2-.1-.3-.3-.2-.4.1-.2.3-.3.4-.2 3.1 1 5.1 3.1 5.2 3.1.1.1.1.3 0 .5-.1.1-.2.1-.3.1z"/><path class="st9" d="M1039.9 549.1s0 2.5 3.4 4 6.4-.8 6.4-.8l-9.8-3.2z"/><path class="st0" d="M1055 542.2c-.8-.3-1.6 0-2 .7-.4.6-.7 1.5-.4 2.1.4 1.3 2.1 1.1 2.7.8s.7-2.4.7-2.7c-.2-.4-.4-.7-1-.9z"/><path class="st0" d="M1057.3 544.3c-.1 0-.2 0-.3-.1 0 0-.6-.8-1.9-1.3-1.4-.5-1.5-.5-1.9-.5h-.3c-.2 0-.3-.1-.4-.3 0-.2.1-.3.3-.4h.3c.5 0 .6 0 2.2.5 1.5.6 2.2 1.5 2.2 1.6.1.2.1.4-.2.5.2 0 .1 0 0 0zM1044.3 538.4c-.7-.3-1.5 0-1.9.7-.4.6-.8 1.4-.7 2.1.2 1.3 1.7 1.1 2.3.9.6-.3.9-2.4.9-2.7.1-.5-.1-.8-.6-1z"/><path class="st0" d="M1046.5 540.5c-.1 0-.2 0-.3-.1 0 0-.7-.9-1.9-1.4-.8-.3-1.4-.5-1.9-.6-.2 0-.4-.1-.6-.1-.2-.1-.3-.3-.2-.4.1-.2.3-.3.4-.2.1 0 .3.1.5.1.5.1 1.2.2 2 .6 1.3.6 2.1 1.6 2.1 1.6.1.1.1.4-.1.5.1 0 0 0 0 0z"/><path class="st107" d="M1053.3 548.5s4.9.5 5.7 2.4c.7 1.9-4.8 1.4-7.1.1-2.4-1.3.2-2.7 1.4-2.5zM1037.5 542.2s4.9.5 5.7 2.4c.7 1.9-4.8 1.4-7.1.1-2.4-1.3.1-2.7 1.4-2.5z"/><path class="st76" d="M1057.1 528.4s3.5 1.4 4.2 4.8c.7 3.3-1 4.1.8 7.2 1.8 3 1.9 3.4 3.3 5.9s4.9 1.6 4.9 1.6 6-4.5 7.2-12 .3-10.9-3.9-13.2c-1.9-1.1-4.7-1.1-4.7-1.1s-2.4-4-6.6-3.9-19.6 8.7-18.6 11.9 5.8-4.1 13.4-1.2z"/><path class="st9" d="M1065.9 578.6s-4.8 31.9-4.6 37.2c.2 5.3.8 14.6 1.4 17.4s4.6 6.5 6.6 6.5 14.7-.8 14.7-.8l.4 4.2-12 1.5 15.8 134.2s-50.7 20-90.1.3c0 0 19.9-119.8 19.9-130.6 0-13.5 18.5-58.6 24.9-70.6 0 0 .9-1.2 2.8-1.2l-8.7 21.7 19 2.4 7.1-23.8 2.8 1.6z"/><path class="st76" d="M1061.6 556.2c-.2 0-.3-.2-.4-.4-.3-1.2.4-2.4 1.1-3.6.7-1.2 1.4-2.3 1-3.3-.4-1.1-.7-1.4-1.3-1.9-.6-.5-1.4-1.2-2.6-3-1.7-2.6-1.1-6.1-.6-8.7.2-1.2.4-2.2.4-2.8-.2-2-1.8-3.8-1.9-3.8-.2-.2-.2-.5 0-.7s.5-.2.7 0c.1.1 1.9 2 2.2 4.4.1.8-.1 1.9-.4 3.1-.5 2.5-1.1 5.7.4 7.9 1.1 1.7 1.8 2.3 2.4 2.8s1.2 1 1.6 2.4c.5 1.5-.3 3-1.1 4.2-.6 1-1.2 1.9-1 2.8.1.3-.1.6-.5.6.1 0 0 0 0 0z"/><path class="st9" d="M1070.6 547.7s3.9-11.6-4.1-19.3-18.6-3.9-18.6-3.9 1.5-2.4 4.6-3.8 8.6-3 14-.4 9.5 11.2 9 18.3-2.6 11.1-2.6 11.1-2.4-.9-2.3-2z"/><path class="st37" d="M1050.5 648.8s-9.4-4-13.1-3.6-5.7 1-5.2 6.1 7.8 4.4 9.2 3.8 11-4 9.1-6.3z"/><path class="st0" d="M1017 634.6c-.2 0-.3-.1-.3-.3 0-.1-.7-10 .7-16.1 1.5-6.1 4.8-12.4 7.5-17.6l.1-.3c2.7-5.1 6.8-13.9 6.9-13.9.1-.2.3-.2.5-.2.2.1.2.3.2.5 0 .1-4.2 8.8-6.9 14l-.1.3c-2.7 5.1-6 11.5-7.4 17.4-1.4 6-.7 15.8-.7 15.9-.2.2-.3.3-.5.3z"/><path class="st37" d="M1044.1 653.2c3.1-7.6 57-9 57-9s-6.5-9.6-10.8-16.1c11.6-3.6 16-11.7 17.7-17.2 17.6 18 32.3 49.7 14 58.6-20.7 10.1-81-8.7-77.9-16.3zM974.8 578.4s-4-14.3-5.1-15.3c-6.2-6.2-15.2-5.6-17.3-7.1s-3.5-1-3 .5 3.7 3.2 3.7 3.2-17.2-.9-19.5-.4 6.5 2.6 6.5 2.6-7.2-.8-8.7.8c-1.5 1.5 6.9 2.5 6.9 2.5s-3.3-.1-4.2 1.2 9.3 2 9.3 2-2.5.3-2.9 1.4c-.5 1.1 21.1 2.2 21.1 2.2s1.1 4.9 5.2 10.4c2.2 3.3 10.8-1.2 8-4z"/><path class="st64" d="M1039.9 672c2.4-1.2 1.7-4.6 1.7-4.6l-32.1-80.8 2 1.7 32.2 77.8c1.4 2.6.9 6-1.6 7.9-2.4 1.9-3.9 1-4.4 0-.4-1-.2-.9 2.2-2z"/><path class="st64" d="M1010.3 588.9c-1-1.6-5.6-14.6 6.5-21.8 12.6-7.4 21.3 3.2 22.2 4.8 1 1.6-4.7 6.7-12.7 11.4-7.8 4.8-15 7.3-16 5.6z"/><path d="M1010.3 588.9c-1-1.6 4.7-6.7 12.7-11.4s15.2-7.2 16.1-5.5c1 1.6-4.7 6.7-12.7 11.4-7.9 4.7-15.1 7.2-16.1 5.5z" style="fill:#bab8b6"/><path class="st37" d="M1054.4 648.5s-11.8-1.2-15.8-1c-2.7.1-10.3 1.6-9.2 5.4 1 3.7 2.3 4.4 2.3 4.4s.6 2.8.8 3.4c.2.6 2 2.1 2 2.1s1.5 2.2 1.5 2.6 2.6.9 3.7.4 7.3-5.1 9.8-5.7c2.5-.6 6.8-.4 7.6-2.8.8-2.4-1.4-9.2-2.7-8.8z"/><path class="st65" d="M1088.2 632c-18.1-16.6-21.6-52.8-18.3-50 0 0 17 9.2 35.6 26.5l2.4 2.4c-1.5 5.6-8 17.6-19.7 21.1z"/><path class="st0" d="M1081.5 624.5c-.1 0-.2 0-.3-.1-7.2-10.1-13.4-26.6-13.4-26.7-.1-.2 0-.4.2-.4.2-.1.4 0 .4.2.1.2 6.2 16.6 13.3 26.6.1.2.1.4-.2.4.2 0 .1 0 0 0zM984.3 634.6c-.2 0-.3-.1-.3-.3-.4-9.4 5-18.3 5-18.4.1-.2.3-.2.5-.1s.2.3.1.5c-.1.1-5.4 8.8-4.9 18-.1.2-.2.3-.4.3zM1120.6 655.1c-.1 0-.3-.1-.3-.2-2-6.6-19-10.3-19.2-10.3s-.3-.2-.3-.4.2-.3.4-.3c0 0 4.4.9 9 2.7 6.2 2.4 9.8 5.1 10.7 8.1 0 .2-.1.4-.3.4z"/><path class="st9" d="M1021 638.4s-5.1 1.5-5.1 2.6-1.1 9.1-.7 9.4c.5.3 5.2 2 5.8.8s2-13 0-12.8z"/></g><circle class="st65" cx="1051.5" cy="686" r="15.9"/><path class="st9" d="M1045.4 677s-2.3.8-3.1 3.2c-.8 2.5 1.6 6.1 2.9 7.6s3.7 4.7 7.8 6.7c4.1 1.9 6.3.4 7.4-1.5s-.6-2.2-1-2.5-3.3-1.7-3.7-1.8-1.3.7-1.7 1.1c-.5.3-.7.7-1.2.6-.5-.1-4.2-3.6-5.1-5.3 0 0-.3-.5.3-1.2.6-.8 1.2-1.2 1.2-1.6 0-.4-1.8-3.9-2.1-4.6-.4-.9-.8-1.2-1.7-.7z"/><circle class="st65" cx="795.7" cy="692.8" r="28.8"/><path class="st9" d="M784.8 676.4s-4.2 1.4-5.6 5.9c-1.4 4.5 2.8 10.9 5.2 13.7s6.8 8.6 14.1 12c7.4 3.5 11.4.7 13.4-2.8s-1-4-1.8-4.5-6-3-6.7-3.2-2.3 1.3-3.1 1.9c-.8.6-1.3 1.3-2.2 1-.9-.2-7.5-6.6-9.2-9.5 0 0-.6-.9.5-2.3s2.1-2.1 2.1-2.9-3.2-7-3.7-8.3c-.6-1.2-1.4-1.8-3-1z"/><path class="st109" d="M1007.2 515.6h24v4.7h-24zM1007.2 523.7h24v4.7h-24z"/><defs><path id="SVGID_157_" d="M951.4 253.9H847.6c-7.9 0-14.2 6.4-14.2 14.2v211.3c0 7.9 6.4 14.2 14.2 14.2h103.7c7.9 0 14.2-6.4 14.2-14.2V268.1c.1-7.9-6.3-14.2-14.1-14.2z"/></defs><clipPath id="SVGID_158_"><use xlink:href="#SVGID_157_" style="overflow:visible"/></clipPath><g style="clip-path:url(#SVGID_158_)"><path class="st0" d="M885.5 307s1.8 4 7.4 1.8c5.5-2.2 12.4-12.4 7.8-12-4.6.5-15.6 1.4-15.2 10.2z"/><path class="st66" d="M944.8 394s-12.3-36.3-42.8-39c-44.9-4-59.2 38.7-65.3 49.2s-42.8 92-41.7 163.9c.3 19.8 30 21.4 78.4 22.7 33.2.9 92.3-11.9 92.3-22.7 0-44.5-11.8-145.7-20.9-174.1z"/><path class="st74" d="M894.3 330s-3.8 16.5-9.9 25.7c-3.5 5.4 13.8 19.8 23.7 21.6 9.9 1.8 4.2-17.2 3.8-21.9-.4-4.8 1-18.3.6-20.3-.4-2.2-15-7.4-18.2-5.1z"/><path class="st74" d="M894.5 313.8c.1 5.1-.5 13.2 2.1 17 2.7 3.7 2.8 5 4.9 3.4 2.1-1.6 2.4-4.5 7.5-5.6 5.1-1.2 13.3-1.3 18.2 2.7 4.2 3.5 9.6 3.5 12.2.7-.1-5.5-.6-10.7-.8-13.9-.4-6 2.6-16.4-2.5-26s-27.6-13.5-36.6-7.1-8.2 18.9-8.2 18.9c-.1 1.1-.2 1.9-.5 2.4 1.4 1.3 3.7 4 3.7 7.5z"/><path class="st0" d="M938.8 329.3c-3.5-1.4-7.3 5.5-11.6 2-5-4.1-13.2-3.9-18.2-2.7-5.1 1.2-5.4 4.1-7.5 5.6-2.1 1.6-2.2.3-4.9-3.4-2.7-3.7-2-11.9-2.1-17-.1-3.5-2.4-6.2-3.8-7.5-.2.4-.5.7-.9 1-.1 3.1-.3 9.8-.7 11.3-.4 2-1.2 4.1-1.2 4.1s-1 11.1.8 16.9c1.7 5.8 14.5 20.6 27.9 21.2 13.4.7 21.5-6.2 23.7-14.6 1.1-3.9.7-16-1.5-16.9z"/><path class="st74" d="M915.3 333.5s-8.6-1.2-8.9 1.3c-.3 2.5 3.8 9.1 6.3 8.7 2.4-.4 2.7-3 4-3.4s5.2-.3 6.4 1.7c1.2 2.1 2.4 3.8 3.6 2.3s4-7.8 2.5-9.1-11.8-1.9-13.9-1.5z"/><path class="st0" d="M936 292.1c-5.1-9.6-27.6-13.5-36.6-7.1s-10.1 20.5-10.4 21.1c1 .9 4.1 2.7 4.9 4.7 1.2-2.4 2.9-7.2 3.9-9.8 1.5-3.7 8-8.6 15.1-5.4 0 0 4.1 4.3 9.7 4.7 5.6.4 7.9-3.1 10.3-3.1 1.2 0 3.6.9 5.4 1.4-.4-2.1-1.1-4.3-2.3-6.5z"/><path class="st74" d="M922.4 323.7s3.5 4.7 2.1 7.4-6 2.1-8.4 0c-2.5-2.2 1.5-11.5 6.3-7.4z"/><path class="st0" d="M924.8 329.2c-.2 0-.3-.1-.3-.3 0-.1-1.3-5.3-.9-12 .2-2.9 1.5-6.3 4.6-6.1 2.8.1 8.6 1 8.7 1 .2 0 .3.2.3.4s-.2.3-.4.3c-.1 0-5.9-.9-8.6-1-2.6-.1-3.7 2.9-3.9 5.5-.4 6.5.9 11.7.9 11.8-.1.1-.2.3-.4.4zM907.2 310.1c-.1 0-.3-.1-.3-.2-.1-.2 0-.4.2-.4.3-.1 6.5-1.9 10.6-1 .2 0 .3.2.3.4s-.2.3-.4.3c-3.9-1-10.2.9-10.4.9.1 0 .1 0 0 0zM916.1 315.6c-4.3-1.5-8.5-1-8.5-.9-.2 0-.4-.1-.4-.3 0-.2.1-.4.3-.4s4.4-.6 8.8 1c.2.1.3.3.2.4-.2.1-.3.2-.4.2z"/><path class="st0" d="M914.1 314.8s.5.1 1 .9c.6.8-.2 3.3-2.3 4-2 .6-3.2-.9-3.1-2.5.3-1.8 1.6-3.7 4.4-2.4zM935.6 318.3c-.1 0-.1 0-.2-.1-3.8-2.8-8.2-.9-8.3-.9-.2.1-.4 0-.4-.2-.1-.2 0-.4.2-.4.2-.1 4.8-2 9 1 .2.1.2.3.1.5-.1 0-.2.1-.4.1z"/><path class="st0" d="M934.5 317.2s.5.1 1 .9c.6.8-.2 3.3-2.3 4-2 .6-3.2-.9-3.1-2.5.2-1.7 1.6-3.7 4.4-2.4z"/><path class="st9" d="M928.2 335.8s-3.8 4.6-10.1 3.7-7.6-5.1-7.6-5.1l17.7 1.4z"/><path class="st76" d="M884.5 309.2s16.1-11.1 26.6-12.3c13.1-1.6 26.1 2.7 27.7 4 1.6 1.3 1.9-8.1 1.3-9-.6-.9-1.9-1.8-1.9-1.8s-2-12.6-14.9-15.7c-8.6-2.1-22.5-1.8-28.8 4.7-6.4 6.5-5.6 14.2-5.6 14.2s-3.8 2.4-4.2 6.6c-.5 4.3-.2 9.3-.2 9.3z"/><path class="st69" d="M938.1 327.4c-.4 1.7-2.9 2.5-5.6 1.9-2.6-.7-4.4-2.6-4-4.3.4-1.7 2.9-2.5 5.6-1.9s4.4 2.6 4 4.3zM915.4 323.3c.1 1.7-2.5 3.2-5.7 3.4-3.2.1-5.9-1.2-5.9-2.9-.1-1.7 2.5-3.2 5.7-3.4s5.8 1.1 5.9 2.9z"/><path class="st74" d="M890.7 309.2s-.7-6-5.3-2.2c-2.1 1.8-.9 9.8-1.1 12.5-.2 2.8 1 4.4 3.3 4.7 2.3.3 4.7-4.9 4.3-7-.2-2-1.2-8-1.2-8z"/><path class="st66" d="M927 366.7s46.8 50.8 48.4 61c1.6 10.2 5 60.4 0 64.7-5 4.3-22.7 14.5-27 3.4S927 366.7 927 366.7z"/><path class="st74" d="M804.5 526.9c7.5 3.9 33.4 7.7 43.3 0 5.1-3.9 11.3-44.8 14.5-84-20 0-37.8-10.2-45-14.9-13.8 32.1-20.2 95.1-12.8 98.9z"/><path class="st66" d="M860 368.7s-27.7 26.3-42 58.1c-.2.4-.4.8-.5 1.2 7.2 4.7 25 14.9 45 14.9 3.1-38.2 3.5-74.8-2.5-74.2z"/><path class="st0" d="M862.4 443.2c-.2 0-.4-.2-.3-.4.6-7 8.5-59.4 8.6-59.9 0-.2.2-.3.4-.3s.3.2.3.4c-.1.5-8 52.9-8.6 59.9-.1.2-.2.3-.4.3zM961.4 500.3c-.2 0-.3-.2-.3-.3-.4-43-18.5-109.9-18.7-110.5 0-.2.1-.4.2-.4.2 0 .4.1.4.2.2.7 18.3 67.6 18.7 110.7 0 .1-.2.3-.3.3z"/></g><path class="st80" d="m974.3 282.9 26.4-13.8V293z"/><path class="st80" d="M1081.1 299.4H1018c-14.9 0-27-12.2-27-27v-17c0-14.9 12.2-27 27-27h63.1c14.9 0 27 12.2 27 27v17c0 14.9-12.2 27-27 27z"/><path class="st9" d="M1031.7 263.9c0 2.1-1.7 3.9-3.9 3.9-2.1 0-3.9-1.7-3.9-3.9 0-2.1 1.7-3.9 3.9-3.9 2.2.1 3.9 1.8 3.9 3.9zM1053.4 263.9c0 2.1-1.7 3.9-3.9 3.9s-3.9-1.7-3.9-3.9c0-2.1 1.7-3.9 3.9-3.9s3.9 1.8 3.9 3.9zM1075.1 263.9c0 2.1-1.7 3.9-3.9 3.9-2.1 0-3.9-1.7-3.9-3.9 0-2.1 1.7-3.9 3.9-3.9 2.2.1 3.9 1.8 3.9 3.9z"/><path class="st5" d="m580.8 285.8-35.9-18.7v32.4z"/><path class="st5" d="M435.9 308.2h85.5c20.1 0 36.6-16.5 36.6-36.6v-23.1c0-20.1-16.5-36.6-36.6-36.6h-85.5c-20.1 0-36.6 16.5-36.6 36.6v23.1c0 20.1 16.5 36.6 36.6 36.6z"/><path class="st9" d="M502.9 260.1c0 2.9 2.3 5.2 5.2 5.2 2.9 0 5.2-2.3 5.2-5.2 0-2.9-2.3-5.2-5.2-5.2-2.9-.1-5.2 2.3-5.2 5.2zM473.5 260.1c0 2.9 2.3 5.2 5.2 5.2 2.9 0 5.2-2.3 5.2-5.2 0-2.9-2.3-5.2-5.2-5.2-2.9-.1-5.2 2.3-5.2 5.2zM444.1 260.1c0 2.9 2.3 5.2 5.2 5.2s5.2-2.3 5.2-5.2c0-2.9-2.3-5.2-5.2-5.2s-5.2 2.3-5.2 5.2z"/><circle class="st65" cx="903.4" cy="452.4" r="16.8"/><path class="st9" d="M897 442.8s-2.4.8-3.3 3.4 1.7 6.4 3 8c1.4 1.6 3.9 5 8.3 7 4.3 2 6.6.4 7.8-1.6s-.6-2.3-1.1-2.6c-.5-.3-3.5-1.7-3.9-1.9-.4-.1-1.3.8-1.8 1.1s-.7.7-1.3.6c-.5-.1-4.4-3.9-5.4-5.6 0 0-.3-.5.3-1.3s1.2-1.3 1.2-1.7c0-.5-1.9-4.1-2.2-4.9-.2-.6-.7-1-1.6-.5z"/></svg>