<svg version="1.1" id="Layer_1" xmlns="http://www.w3.org/2000/svg" xmlns:xlink="http://www.w3.org/1999/xlink" x="0" y="0" viewBox="0 0 1346.7 916.7" style="enable-background:new 0 0 1346.7 916.7" xml:space="preserve"><style>.st0{fill:#f2f2ed}.st1{fill:#2ba573}.st2{fill:#fff}.st3{fill:#9c6f43}.st4{fill:#3ec68c}.st5{opacity:7.000000e-02;fill:#2e2e47}.st7{fill:#c8abff}.st8{fill:#71a7ad}.st9{fill:#2e2e47}.st10{fill:#7703fc}.st11{fill:#9858f4}.st12{fill:#e2e2e2}.st13{fill:#eae6e4}.st14{fill:#774237}.st15{fill:#ffe2bd}.st16{fill:#ffa982}.st17{fill:#d8d7d6}.st18{fill:#ffd3b5}.st19{fill:#9e4f60}.st20{fill:#fa634b}.st21{fill:#cc8b70}.st22{fill:#c96b59}.st23{fill:#82664b}.st24{fill:#ffc97d}.st25{fill:#f2836d}.st27{fill:#73e0af}.st28{fill:#898243}.st29{fill:#ffea8f}.st30{fill:#454560}</style><path class="st0" d="M181.9 337.4h-45.1c-2 0-3.7 1.7-3.7 3.7v11.6c0 2 1.7 3.7 3.7 3.7h45.1c2 0 3.7-1.7 3.7-3.7v-11.6c0-2.1-1.7-3.7-3.7-3.7zM236.2 313.1h-45.1c-2 0-3.7 1.7-3.7 3.7v11.6c0 2 1.7 3.7 3.7 3.7h45.1c2 0 3.7-1.7 3.7-3.7v-11.6c0-2-1.6-3.7-3.7-3.7zM344.1 269.6H299c-2 0-3.7 1.7-3.7 3.7V285c0 2 1.7 3.7 3.7 3.7h45.1c2 0 3.7-1.7 3.7-3.7v-11.6c0-2.1-1.6-3.8-3.7-3.8zM1167 541.5h-45c-2 0-3.7 1.7-3.7 3.7v11.6c0 2 1.7 3.7 3.7 3.7h45.1c2 0 3.7-1.7 3.7-3.7v-11.6c-.1-2.1-1.7-3.7-3.8-3.7zM96.5 572.5h-45c-2 0-3.7 1.7-3.7 3.7v11.6c0 2 1.7 3.7 3.7 3.7h45.1c2 0 3.7-1.7 3.7-3.7v-11.6c-.1-2.1-1.7-3.7-3.8-3.7zM265.3 390.9h-45.1c-2 0-3.7 1.7-3.7 3.7v11.6c0 2 1.7 3.7 3.7 3.7h45.1c2 0 3.7-1.7 3.7-3.7v-11.6c0-2-1.7-3.7-3.7-3.7zM178.9 290.8h-45.1c-2 0-3.7 1.7-3.7 3.7v11.6c0 2 1.7 3.7 3.7 3.7h45.1c2 0 3.7-1.7 3.7-3.7v-11.6c0-2-1.7-3.7-3.7-3.7zM1115.4 289.4h-45.1c-2 0-3.7 1.7-3.7 3.7v11.6c0 2 1.7 3.7 3.7 3.7h45.1c2 0 3.7-1.7 3.7-3.7v-11.6c0-2.1-1.7-3.7-3.7-3.7zM1169.8 265.1h-45.1c-2 0-3.7 1.7-3.7 3.7v11.6c0 2 1.7 3.7 3.7 3.7h45.1c2 0 3.7-1.7 3.7-3.7v-11.6c0-2.1-1.7-3.7-3.7-3.7zM1210.6 577.1h-45.1c-2 0-3.7 1.7-3.7 3.7v11.6c0 2 1.7 3.7 3.7 3.7h45.1c2 0 3.7-1.7 3.7-3.7v-11.6c0-2-1.7-3.7-3.7-3.7zM1292.6 471.7h-45.1c-2 0-3.7 1.7-3.7 3.7V487c0 2 1.7 3.7 3.7 3.7h45.1c2 0 3.7-1.7 3.7-3.7v-11.6c0-2-1.6-3.7-3.7-3.7zM1258.7 416h-45.1c-2 0-3.7 1.7-3.7 3.7v11.6c0 2 1.7 3.7 3.7 3.7h45.1c2 0 3.7-1.7 3.7-3.7v-11.6c0-2.1-1.6-3.7-3.7-3.7zM1311.2 394.5h-45.1c-2 0-3.7 1.7-3.7 3.7v11.6c0 2 1.7 3.7 3.7 3.7h45.1c2 0 3.7-1.7 3.7-3.7v-11.6c0-2.1-1.7-3.7-3.7-3.7zM1303 307.4h-45.1c-2 0-3.7 1.7-3.7 3.7v11.6c0 2 1.7 3.7 3.7 3.7h45.1c2 0 3.7-1.7 3.7-3.7v-11.6c0-2-1.7-3.7-3.7-3.7zM1250.5 386.9h-45.1c-2 0-3.7 1.7-3.7 3.7v11.6c0 2 1.7 3.7 3.7 3.7h45.1c2 0 3.7-1.7 3.7-3.7v-11.6c0-2.1-1.6-3.7-3.7-3.7zM1112.4 242.8h-45.1c-2 0-3.7 1.7-3.7 3.7v11.6c0 2 1.7 3.7 3.7 3.7h45.1c2 0 3.7-1.7 3.7-3.7v-11.6c0-2.1-1.7-3.7-3.7-3.7zM107.8 408.2h-45c-2 0-3.7 1.7-3.7 3.7v11.6c0 2 1.7 3.7 3.7 3.7h45.1c2 0 3.7-1.7 3.7-3.7v-11.6c-.1-2.1-1.7-3.7-3.8-3.7z"/><path class="st1" d="M1236.6 502.1s-7-1.4-9.4-8.2c-2.3-6.8 7.8-49.5 31.5-55.8 23.6-6.2.8 48.5-5.1 57.7-5.9 9.3-14.1 6.9-14.1 6.9s1.9 14.7 2.9 26.1c5.7 60.6 10.8 127.1 10.8 127.1h-2.1s-13.4-138.1-14.5-153.8z"/><path class="st2" d="M1238.1 501.5c-.2 0-.3-.2-.3-.3 0-.1 1.5-11.2 4.3-21.5 0-.1.2-.2.3-.2.1 0 .2.2.2.3-2.8 10.3-4.3 21.3-4.3 21.4 0 .2-.1.3-.2.3zM1245.3 471s-.1 0 0 0c-.2 0-.3-.2-.3-.3 0-.1 1.4-7 6.4-14.1s12.7-17.8 12.8-17.9c.1-.1.3-.2.4-.1.1.1.2.3.1.4-.1.1-7.8 10.8-12.8 17.9-5 7-6.3 13.8-6.3 13.9-.1.1-.2.2-.3.2z"/><path class="st3" d="M1224 651.3h55.2s6 29.8-10.1 46.4h-31.9s-17.8-11.1-13.2-46.4z"/><path class="st4" d="M1248.1 651.3s-5.7-57.9-10.2-78.4c-7-32-12.4-47.6-12.4-47.6s5.2-15.7-12.5-32.1c-17.7-16.4-37.7-15.9-34.8-3 2.9 13 17.4 29.8 29 34.2 11.6 4.4 15.7 2.9 15.7 2.9s6.9 19.4 12.7 49.2c1.4 7.3 9.6 65.7 9.9 74.8h2.6z"/><path class="st1" d="M1252.5 651.3s2.8-70.6 1.3-92.6c-1.5-22.1 8.1-55.1 14.2-67.2 6.1-12.1 28.7-47.5 43.8-53.9 15.1-6.4 18-9.6 20.6-4.9 2.6 4.6-4.9 38.2-7.3 41.6-2.3 3.4-19.5-7.6-21.5-5.3s18.6 7.5 17.1 12.8c-1.5 5.2-14.8 27.3-21.5 29.2-6.7 1.9-27.9-8.2-30.5-5.5-2.6 2.7-10.7 23.6-10.7 34.7 0 11-2.3 111.2-2.3 111.2h-3.2z"/><path class="st2" d="M1312.8 491.4c-.1 0-.1 0-.2-.1-.2-.2-17.6-15.4-30.5-15.4-.2 0-.3-.1-.3-.3s.1-.3.3-.3c13.1 0 30.7 15.4 30.9 15.6.1.1.1.3 0 .4-.1.1-.2.1-.2.1zM1326.6 460.9c-.1 0-.1 0 0 0-.3-.1-17.3-6.6-27.1-6.5-.2 0-.3-.1-.3-.3 0-.2.1-.3.3-.3 9.9-.1 27 6.4 27.2 6.5.1.1.2.2.2.4-.1.2-.2.2-.3.2zM1303.1 448c-.1 0-.2-.1-.3-.2-.1-.1 0-.3.1-.4 8.6-3.6 22-1.5 22.1-1.4.2 0 .3.2.2.3 0 .2-.2.3-.3.2-.1 0-13.3-2.1-21.8 1.4.1.1 0 .1 0 .1zM1197.6 497.2h-.2c-6.7-4.4-13-11.9-13.4-12.5-.1-.1-.1-.3.1-.4.1-.1.3-.1.4.1.3.5 6.7 8.1 13.2 12.3.1.1.2.3.1.4-.1.1-.1.1-.2.1zM1224.4 526.9c-.1 0-.2-.1-.2-.2 0 0-2.2-4.7-4.9-8.6-2.7-3.9-13.5-16-13.7-16.1-.1-.1-.1-.3 0-.4.1-.1.3-.1.4 0 .1.1 11 12.2 13.7 16.2 2.7 4 4.9 8.6 4.9 8.7.1.1 0 .3-.1.4h-.1z"/><path class="st1" d="M1260.3 651.3s-.3-62.7 9.3-82c0 0-5.3-4.8-3.9-11.8 1.4-7.1 31.8-38.7 55.4-32.2 23.5 6.6-23.9 42.2-33.6 47.2-9.8 5-15.7-1.2-15.7-1.2s-4.1 6.9-5.2 18.3c-1.1 11.4-3.9 51.6-4.1 55.5-.2 3.9 0 6.2 0 6.2h-2.2z"/><path class="st2" d="M1271.2 569.6c-.1 0-.1 0-.2-.1s-.1-.3 0-.4c.1-.1 6.9-8.9 14.6-16.3.1-.1.3-.1.4 0 .1.1.1.3 0 .4-7.6 7.4-14.5 16.2-14.5 16.3-.1.1-.2.1-.3.1zM1292.8 547c-.1 0-.1 0-.2-.1s-.1-.3 0-.4c0-.1 4.7-5.3 12.7-8.9 7.9-3.6 20-8.9 20.1-8.9.1-.1.3 0 .4.1.1.1 0 .3-.1.4-.1.1-12.2 5.4-20.1 8.9-7.8 3.5-12.4 8.7-12.5 8.8-.1.1-.2.1-.3.1z"/><path class="st4" d="M1241.7 651.3s1-43.1-11.5-69.8c-12.5-26.7-56.2-42.8-70.1-39.7-13.9 3.1 5.3 15.4 7.6 16.3 2.3.9 11-7.9 11.6-6 .6 1.8-5.9 4.2-3.2 8.5 2.8 4.2 11.5 9.8 15.2 7.3 3.7-2.5 8.9-8.8 12.8-7.6s18.1 9.1 24.6 27.8c6.5 18.8 8.6 63.1 8.6 63.1h4.4z"/><path class="st2" d="M1182.1 561.8h-.1c-.1-.1-.2-.2-.2-.4 1.4-3.6 10.4-10.1 10.8-10.4.1-.1.3-.1.4.1.1.1.1.3-.1.4-.1.1-9.2 6.7-10.6 10.2 0 .1-.1.1-.2.1z"/><path class="st5" d="M318 658.1S88.6 683.2 79.9 697.2s155.5 38.3 185.2 36.9c29.7-1.4 78.5-8.3 110.8-9.8 32.4-1.5 83.1 17.8 116.1 23.9 33.1 6.1 94.9 12.1 119.5-2.5s102.2-37 139-41.1c36.8-4.1 59.8 3.3 71.7-3.3 11.9-6.6-85.2-19.4-107.4-22.5-22-3.4-313.9-30.7-396.8-20.7z"/><defs><path id="SVGID_1_" d="M376.9 267.6h623.8v292H376.9z"/></defs><use xlink:href="#SVGID_1_" style="overflow:visible;fill:#e2cfff"/><clipPath id="SVGID_2_"><use xlink:href="#SVGID_1_" style="overflow:visible"/></clipPath><g style="clip-path:url(#SVGID_2_)"><path class="st7" d="M594.8 433.8c0-5.2-13.1-7.3-16.9-8.9-8.4-3.5-15.5-8.3-22.8-13.7-5.8-4.2-11.6-8-18.8-8.9-3.3-.4-6-.9-6.6 2.8-.4 1.9 0 4.3 0 6.2h-2.2v158.9H599.2v-126l-3.9-2.4v-8z"/><path class="st7" d="M688.3 542.5V390.1l-8.3-2.6v-39.9c-5.4-1.7-11.1-4.3-16.7-5.2-4-.6-8.5 0-12.6 0h-38.6v42.4h-8.3v157.6h-5.1v27.4h91.8v-27.4h-2.2z"/><path class="st8" d="M461.3 570.3v-19h10.1v-69.6h12.1V462c0-7.3 5.9-13.3 13.3-13.3 7.3 0 13.3 5.9 13.3 13.3v18.5H523v68.4h10.5v21.3h-72.2z"/><path class="st7" d="M493.6 429.5h6.3v22h-6.3z"/><path class="st8" d="M495.6 411.2h2.3v22h-2.3zM449.7 484.5c-6.7 0-12.1 5.4-12.1 12.1v31h24.2v-31c0-6.7-5.4-12.1-12.1-12.1z"/><path class="st8" d="M449.7 472.8c-3 0-5.5 2.4-5.5 5.5v14h10.9v-14c.1-3-2.4-5.5-5.4-5.5zM449.7 500.6c-10.7 0-19.3 8.6-19.3 19.3v49.6H469v-49.6c0-10.6-8.6-19.3-19.3-19.3z"/><path class="st8" d="M450.4 456H449l-.7 19.4h2.8z"/><path class="st7" d="M693.3 475.4H771v94.1h-77.7z"/><path class="st7" d="M766.6 505.3h53v64.2h-53zM825.8 418.8h42.4v151.6h-42.4zM710.9 413.5h42.4v89.8h-42.4zM945.5 395.6l-59.9 72.3v103.4h85.8V395.6zM948.9 390.7h6.5v4.9h-6.5zM960.8 390.7h6.5v4.9h-6.5z"/></g><path class="st9" d="M1228 600.9h-200.1c-1.1 0-2.1-.9-2.1-2.1s.9-2.1 2.1-2.1H1228c1.1 0 2.1.9 2.1 2.1s-1 2.1-2.1 2.1z"/><path class="st9" d="M1236.2 705.7c-1.1 0-2-.8-2.1-1.9l-30.8-394.5c-.1-1.1.8-2.1 1.9-2.2 1.1-.1 2.1.8 2.2 1.9l30.8 394.5c.1 1.1-.8 2.1-1.9 2.2h-.1zM1107.3 705.7c-1.1 0-2-.8-2.1-1.9l-30.8-394.5c-.1-1.1.8-2.1 1.9-2.2 1.1-.1 2.1.8 2.2 1.9l30.8 394.5c.1 1.1-.8 2.1-1.9 2.2h-.1zM1019.7 705.7h-.2c-1.1-.1-2-1.1-1.9-2.2l30.8-394.5c.1-1.1 1.1-2 2.2-1.9 1.1.1 2 1.1 1.9 2.2l-30.8 394.5c0 1.1-.9 1.9-2 1.9zM1167.8 705.7h-.2c-1.1-.1-2-1.1-1.9-2.2l30.8-394.5c.1-1.1 1.1-2 2.2-1.9 1.1.1 2 1.1 1.9 2.2l-30.8 394.5c0 1.1-.9 1.9-2 1.9z"/><path class="st2" d="M1193.5 507.7h-167l16.1-206.5h167.1z"/><path class="st9" d="M1194.3 508.5h-168.7l16.2-208.1h168.7l-16.2 208.1zm-166.9-1.6h165.4l16-204.8h-165.4l-16 204.8z"/><path class="st9" d="m1063 356.3-7 10.5 28.7-.2 28.7-.2-5.1-10.5z"/><path class="st4" d="m1089 317-12.4 18.8 21.6-.2z"/><path class="st10" d="m1101.2 341.7-1.3-2.8-25.5.2-1.9 2.8-7.3 11.1 41.4-.4z"/><path class="st4" d="m1177.5 317.7-.3 3.1c4.7 0 8.2 3.8 7.7 8.5-.1.7-.2 1.4-.5 2.1l2.9.8c.3-.9.5-1.9.6-2.9.7-6.4-4-11.6-10.4-11.6z"/><path class="st10" d="M1167.9 329.3c.4-4.7 4.6-8.5 9.3-8.5l.3-3.1c-6.4 0-12.1 5.2-12.7 11.6-.4 3.9 1.2 7.3 3.9 9.4l2-2.5c-1.9-1.5-3.1-4-2.8-6.9z"/><path class="st9" d="M1184.5 331.4c-1.3 3.7-4.9 6.4-8.9 6.4-1.9 0-3.5-.6-4.8-1.6l-2 2.5c1.8 1.4 4 2.2 6.5 2.2 5.4 0 10.3-3.7 12.1-8.7l-2.9-.8z"/><path class="st4" d="m1149.8 317.7-.3 3.1c2.6 0 4.7 1.1 6.1 2.9l2.6-1.9c-1.9-2.5-4.9-4.1-8.4-4.1z"/><path class="st9" d="m1158.2 321.8-2.6 1.9c1.2 1.5 1.8 3.5 1.6 5.6-.1.7-.2 1.4-.5 2.1-1.3 3.7-4.9 6.4-8.9 6.4-1.9 0-3.5-.6-4.8-1.6-2-1.5-3.1-4.1-2.9-6.9 0-.2 0-.3.1-.5l-3.1.2v.3c-.4 3.9 1.2 7.3 3.9 9.4 1.8 1.4 4 2.2 6.5 2.2 5.4 0 10.3-3.7 12.1-8.7.3-.9.5-1.9.6-2.9.3-2.9-.5-5.5-2-7.5z"/><path class="st10" d="m1149.5 320.8.3-3.1c-6.3 0-11.9 5-12.7 11.3l3.1-.2c.7-4.4 4.7-8 9.3-8z"/><path class="st4" d="M1120.3 320.9c1.8-.3 3.6 0 5.1.8l1.7-2.7c-2.1-1.1-4.6-1.5-7-1.1-.6.1-1.3.3-1.9.5l.7 2.9c.4-.2.9-.3 1.4-.4z"/><path class="st10" d="m1130 321.3-.2-.2c-.8-.9-1.7-1.6-2.7-2.1l-1.7 2.7c.8.4 1.4.9 2 1.6l.3.3c2.7 3.3 2.1 8.5-1.4 11.7-2 1.8-4.5 2.6-6.8 2.5-2-.1-3.8-1-5.2-2.5-.5-.5-.8-1.1-1.1-1.7-1.6-3.2-.8-7.5 2.2-10.3l-2-2.2c-4.1 3.8-5.2 9.6-3 14 .4.8.9 1.6 1.6 2.3 1.8 2 4.3 3.2 7 3.4 3.2.3 6.7-.9 9.4-3.4 4.7-4.3 5.5-11.5 1.6-16.1z"/><path class="st9" d="M1115.4 323.3c1-1 2.2-1.6 3.5-2l-.7-2.9c-1.7.6-3.3 1.5-4.7 2.8l-.1.1 2 2.2c-.1-.1-.1-.2 0-.2z"/><path class="st4" d="m1059.8 458.7.7-7.1 20.2-8.1 5.8 3.3 4.5-.7h4.8l12.8-9.1 2.2 1.4 13.6-10.4 14.8 8.1 9.3-7.2 6.4 2.6 13.7-13.4-2.3 23.9-52.7 14.5-46.7 6.2z"/><path class="st10" d="m1057.2 485.6 2.6-26.9 10.7-6.9 9.9 6.6 8.5-8.1 6.1 5 19-15.3 10.4 9 16.9-18.8 8.3 9.2 18.3-14.2-5.8 60.4z"/><path class="st11" d="m1058.8 469 11.1-6.1 7.6 6.1 5.3-3.1 2.9 4.4 12.2-11.7 10.4 11.7 4.5-6.7 5.3 4.6 12.2-11.5 10.7 9.9 8.3-7.2 4.1 2.6 12-10.4-3.3 34h-104.9z"/><path d="M1061.8 383.8c-.3-.2-.6-.3-.7-.5-.1-.2-.2-.4-.2-.7 0-.4.2-.7.5-1 .3-.2.7-.4 1.2-.4s.9.1 1.1.4c.3.2.4.6.3 1 0 .3-.1.5-.3.7-.2.2-.5.4-.8.5.4.2.7.3.9.6s.3.5.2.8c0 .5-.2.8-.6 1.1-.3.3-.8.4-1.3.4-.6 0-1-.1-1.3-.4-.3-.3-.4-.6-.4-1.1 0-.3.1-.6.4-.8.2-.2.6-.4 1-.6zm.5.2c-.5.2-.8.3-1 .5-.2.2-.4.4-.4.7 0 .3.1.6.3.8.2.2.6.3 1 .3s.7-.1 1-.3c.3-.2.4-.4.4-.8 0-.3 0-.5-.2-.7-.2-.1-.5-.3-1.1-.5zm.1-.3c.4-.1.7-.3.9-.5.2-.2.3-.4.3-.6 0-.3-.1-.5-.2-.7-.2-.2-.5-.3-.8-.3-.4 0-.6.1-.9.2-.2.2-.4.4-.4.7 0 .2 0 .4.2.6.2.2.5.4.9.6zM1064.9 384c.1-.9.3-1.5.7-2 .4-.5.8-.7 1.4-.7.6 0 1 .2 1.3.7.3.5.4 1.1.3 2-.1.9-.3 1.5-.7 2-.4.5-.8.7-1.4.7-.6 0-1-.2-1.3-.7-.3-.5-.4-1.1-.3-2zm.4 0c-.1.7 0 1.3.2 1.7.2.4.5.6 1 .6s.8-.2 1.1-.6c.3-.4.4-1 .5-1.7.1-.8 0-1.3-.2-1.7-.2-.4-.5-.6-1-.6-.4 0-.8.2-1.1.6-.2.4-.4 1-.5 1.7zM1069.6 382.6c0-.2.1-.3.1-.5.1-.1.2-.3.3-.4.1-.1.3-.2.4-.3.1-.1.3-.1.5-.1s.3 0 .5.1c.1.1.3.2.4.3.1.1.2.2.2.4 0 .1.1.3 0 .5 0 .2-.1.3-.1.5-.1.1-.2.3-.3.4-.1.1-.3.2-.4.3-.2.1-.3.1-.5.1s-.3 0-.4-.1c-.1-.1-.3-.1-.4-.3-.1-.1-.2-.2-.2-.4-.1-.2-.1-.4-.1-.5zm.4 0c0 .2 0 .4.2.6s.3.2.6.2c.2 0 .4-.1.6-.2.2-.2.3-.4.3-.6 0-.2 0-.4-.2-.6s-.3-.2-.6-.2c-.2 0-.4.1-.6.2-.2.1-.3.3-.3.6zm.5 4.1h-.3l3.6-5.5h.3l-3.6 5.5zm1.7-1.3c0-.2.1-.3.1-.5.1-.1.2-.3.3-.4.1-.1.3-.2.4-.3.1-.1.3-.1.5-.1s.3 0 .5.1c.1.1.3.2.4.3.1.1.2.2.2.4 0 .1.1.3.1.5s-.1.3-.1.5c-.1.1-.2.3-.3.4-.1.1-.3.2-.4.3-.2.1-.3.1-.5.1s-.3 0-.5-.1c-.1-.1-.3-.1-.4-.3-.1-.1-.2-.2-.2-.4-.1-.2-.1-.3-.1-.5zm.4 0c0 .2 0 .4.2.6.1.2.3.2.6.2.2 0 .4-.1.6-.2.2-.2.3-.4.3-.6 0-.2 0-.4-.2-.6-.1-.2-.3-.2-.6-.2-.2 0-.4.1-.6.2-.2.2-.3.4-.3.6z"/><path class="st10" d="M1066.6 395.3c-6.2 0-10.8-5.1-10.2-11.3.1-1.5.5-2.9 1.2-4.2.3-.5.9-.8 1.4-.6.5.2.7.8.4 1.3-.5 1.1-.9 2.3-1 3.4-.5 5.1 3.3 9.2 8.4 9.2 5.1 0 9.6-4.1 10.1-9.2s-3.3-9.2-8.4-9.2c-.6 0-1-.5-.9-1 .1-.6.6-1 1.1-1 6.2 0 10.8 5.1 10.2 11.3-.5 6.2-6.1 11.3-12.3 11.3z"/><path class="st9" d="M1074.3 426.5c-.4 0-.7-.2-.8-.5-.3-.5 0-1.1.5-1.4l22.7-13 16.5 10 20-17.9 19.3 7.9 13.1-10.9c.5-.4 1.1-.4 1.5.1.3.4.3 1.1-.2 1.5l-14.1 11.8-19.3-7.8-20.2 18.1-16.8-10.2-21.6 12.4c-.2-.1-.4-.1-.6-.1z"/><path class="st9" d="M1099 412.7c-.1 1.4-1.3 2.5-2.7 2.5-1.4 0-2.3-1.1-2.2-2.5s1.3-2.5 2.7-2.5c1.3.1 2.3 1.2 2.2 2.5zM1115.3 422.6c-.1 1.4-1.3 2.5-2.7 2.5-1.4 0-2.3-1.1-2.2-2.5.1-1.4 1.3-2.5 2.7-2.5 1.3.1 2.3 1.1 2.2 2.5zM1135.7 404.9c-.1 1.4-1.3 2.5-2.7 2.5-1.4 0-2.3-1.1-2.2-2.5.1-1.4 1.3-2.5 2.7-2.5 1.3 0 2.3 1.1 2.2 2.5zM1155.1 412.7c-.1 1.4-1.3 2.5-2.7 2.5s-2.3-1.1-2.2-2.5 1.3-2.5 2.7-2.5c1.3.1 2.3 1.2 2.2 2.5zM1076.8 425.5c-.1 1.4-1.3 2.5-2.7 2.5-1.4 0-2.3-1.1-2.2-2.5.1-1.4 1.3-2.5 2.7-2.5 1.4 0 2.4 1.1 2.2 2.5z"/><path class="st9" d="M1072.6 414.3c-.4 0-.7-.2-.8-.5-.3-.5 0-1.1.5-1.4l22.4-12.8 21.3-2.2 21.7-10.8 13.3 12.6 12.9-10.7c.5-.4 1.1-.4 1.5.1.3.4.3 1.1-.2 1.5l-14.4 12-13.6-12.9-20.7 10.3-21.3 2.2-21.9 12.6c-.4-.1-.6 0-.7 0z"/><path class="st9" d="M1097.3 400.5c-.1 1.4-1.3 2.5-2.7 2.5-1.4 0-2.3-1.1-2.2-2.5.1-1.4 1.3-2.5 2.7-2.5 1.3.1 2.3 1.2 2.2 2.5zM1118.2 398.1c-.1 1.4-1.3 2.5-2.7 2.5-1.4 0-2.3-1.1-2.2-2.5.1-1.4 1.3-2.5 2.7-2.5s2.4 1.1 2.2 2.5zM1139.8 387.8c-.1 1.4-1.3 2.5-2.7 2.5s-2.3-1.1-2.2-2.5c.1-1.4 1.3-2.5 2.7-2.5 1.3 0 2.3 1.1 2.2 2.5zM1153.3 400.5c-.1 1.4-1.3 2.5-2.7 2.5s-2.3-1.1-2.2-2.5c.1-1.4 1.3-2.5 2.7-2.5 1.4.1 2.4 1.2 2.2 2.5zM1075.1 413.2c-.1 1.4-1.3 2.5-2.7 2.5-1.4 0-2.3-1.1-2.2-2.5.1-1.4 1.3-2.5 2.7-2.5 1.3.1 2.3 1.2 2.2 2.5z"/><path class="st12" d="M1170.9 352.4h-50.7l.3-3.9h50.8zM1143.2 358.9h-23.7l.4-3.9h23.7zM1169.7 365.4h-50.8l.4-3.9h50.8zM1099.6 378.6h-17l.3-2.8h17zM1118.6 383.2h-36.4l.3-2.8h36.4z"/><ellipse class="st5" cx="929.7" cy="706.3" rx="121.5" ry="11.1"/><path class="st3" d="M891.8 256.6s1.8-.4 4.9 2.9c3.1 3.3 3.4 9.2.9 13-2.5 3.8-4.1 11.7-9 11.7-2.3 0-6-27.3 3.2-27.6z"/><path class="st9" d="M995.1 690.3s21.4 10.3 21.6 15c.1 4.7-8.9 5-19.4 3.9-10.6-1.1-18.9-6-18.9-6l-2.3-2.4v2.7l-8.4-2.7s-1.9-6.6-.9-12.3c.2-1.3 2.2-4.1 4.4-4.8 5.1-1.4 13.9 1 23.9 6.6z"/><path class="st13" d="M986.1 686.5s-3.7-1.5-5.1-.1c-1.4 1.4-6.9 4.8-7.6 3.3-2.5-4.8-4.3-4.4-4.3-4.7 0-.3-4.6-12.6-1-13.3 3.7-.6 11.7.1 12.5 1.7.7 1.6 4.7 12.7 5.5 13.1z"/><path class="st9" d="M863.5 691.8c-3.2 2.7-8.8 10.4-9.6 12.1-2.5 5.7 1.2 8.5 6.5 8.7 8.4.4 23.6-10.1 23.6-10.1s1.2-3.4.8-9c-.1-1.2-1.7-4.2-3.8-5-4.8-1.8-5.8-6.4-17.5 3.3z"/><path class="st13" d="M866.5 689.8s7-4.2 10.9-.4c4.9 4.7 5.6.9 5.6.6 0-.2 1.6-11.9-1.8-12.8-3.5-1-11.6.3-12.5 1.7-.9 1.4-1.5 10.6-2.2 10.9z"/><path class="st10" d="M857.5 305.5s-52.8 36.1-63.8 60.2c-11.6 25.5 3.1 65.2 13.5 78.9 10.4 13.7 11.7 1 17.6-1.1 5.9-2.1-.6-61.3-.6-61.3s29.3-50.2 33.3-76.7z"/><path class="st14" d="m821.3 438.8 121.3 1.3L960 540.3s3.9 11.3 4.7 15.2c1.7 8.3 3.9 33.9 3.9 33.9l16.9 89.1s-10.7 2.8-13.7 3.2c-14 2.1-20.2-1.2-20.2-1.2s-31-96.1-38.7-114.4c-1.7-4.1-34.6-75.2-34.6-75.2l19.4 188.9s-5.8 2.7-17.6 2.7c-15.2 0-18-2.7-18-2.7s-43.6-219.6-40.8-241z"/><path class="st10" d="M916.5 315.6c-13.8-20.9-38.2-21.1-52.8-14.2-15.5 7.3-23.8 34.4-23.8 34.4s-15.6 28.4-19.3 58.6c-3.7 30.2.8 44.3.8 44.3s21.8 4.8 59.6 4.8c15.5 0 61.8-3.5 61.8-3.5s3.5-5.6 2.4-10.9c-1.3-6.7-7.4-14.3-9.3-26.2-.9-5.4-1.8-11.2-2.6-17.2-3.7-24.5-5.4-52.8-16.8-70.1z"/><path class="st2" d="M872.3 300.5s1.1 23.7 3.1 23.6c2-.1 19.8-23.6 18.8-24.5-1-.9-21.9.9-21.9.9z"/><path class="st3" d="M868.7 260.6c-1 .5-3 3.8-3.2 5.2-.6 3 .7 8.4 1.1 8.8.4.4 9.3-18 2.1-14z"/><path class="st15" d="M874 302.8c-4.6-1.4 1.5-8.9 3.4-11.1 1.9-2.1 12.5-7.2 12.5-7.2s-.6 8.5 3.6 14.1c-2.5 4.3-13.6 5.9-19.5 4.2zM890.1 271.6c.4.5 2 .6 3 1.2 1.8 1 1.1 4.1.1 6-1 1.8-3.9 2.1-3.9 2.1s0-3 .1-3.8c.4-5 .5-4.3.7-5.5z"/><path class="st15" d="M890.4 276.1c0-.8 0-4 .1-5.5-.2-.1-.3-.3-.4-.5-.1-.3-.2-.6-.1-1.2 0 0 .9-6-3.2-9.5-4.1-3.4-15.1-2.5-18 2-2.9 4.5-1.8 9.6-2.3 12.5-.2 1.3-1.2 5-1.9 9.6-1.1 7.3 4.2 10.1 10.6 11.2 6.7 1.1 13.4-5.7 14.5-8.4.8-1.7.8-9 .7-10.2z"/><path class="st9" d="M873.7 281c-.5 0-1-.1-1.6-.5-.4-.3-.6-.6-.7-1-.1-.6.3-1.2.3-1.2.1-.1 2.1-1.3 1.6-4.2-.5-2.9-1.4-4.4-2.7-4.4-1.9 0-3.2 1-3.2 1.1-.1.1-.3.1-.4 0-.1-.1-.1-.3 0-.4.1 0 1.4-1.2 3.6-1.2 1.6 0 2.6 1.6 3.2 4.8.3 1.7-.2 2.9-.7 3.7-.4.7-1 1-1.1 1.1-.1.1-.2.4-.2.7 0 .2.2.5.5.7 1 .7 2.2.2 2.2.2.1-.1.3 0 .4.2.1.1 0 .3-.1.4 0-.2-.4 0-1.1 0zM883.4 271.4s-.1 0 0 0c-.1 0-3.2-.9-5.1-.5-.1 0-.3-.1-.3-.2s.1-.3.2-.3c2.1-.5 5.2.5 5.3.5.1 0 .2.2.2.3-.1.1-.2.2-.3.2zM882.7 274c-.1 0-.2-.1-.2-.1 0-.1-.6-1.1-2.5-1.1-1 0-1.3.5-1.3.5-.1.1-.3.2-.4.1-.1-.1-.2-.2-.1-.4 0 0 .5-.8 1.8-.8 2.2 0 2.9 1.4 2.9 1.4.1.1 0 .3-.1.4h-.1z"/><path class="st9" d="M881.5 273.7s.6 1.7-.9 1.9c-1.5.3-1.8-1.2-1.7-1.8 0-.5 1.3-2 2.6-.1zM868.2 273.5c-.1 0-.1 0-.2-.1s-.1-.3 0-.4c1.9-2 3.9-.4 3.9-.3.1.1.1.3 0 .4-.1.1-.3.1-.4 0-.1-.1-1.6-1.3-3.1.3 0 .1-.1.1-.2.1z"/><path class="st9" d="M870.8 273.2s.7 1.6-.4 2c-1.1.4-1.6-1-1.6-1.5-.2-.5 1-1.9 2-.5z"/><path class="st2" d="M877.6 488.9h-.1c-.3-.2-32.3-15.2-36.6-14.8-.3 0-.7.1-.8.4-.3 1.2 4.3 5 7.4 7.2.1.1.1.2.1.3-.1.1-.2.2-.3.2-2.1-.5-7.7-1.2-8.1.7 0 .1-.2.2-.3.2-.1 0-.2-.2-.2-.3.3-1.2 1.9-1.8 4.7-1.6 1 .1 2.1.2 2.8.3-2.3-1.7-7-5.4-6.6-7 .1-.5.6-.7 1.3-.8 4.4-.4 35.6 14.2 36.9 14.8.1.1.2.2.1.4h-.3zM888 490.9c-.1 0-.3-.1-.3-.3 0-.2.1-.3.3-.3.2 0 17.3-.7 22.7-4.9.5-.4.5-.5.5-.5-.2-.2-1.7-.8-15.4 1.8-7.4 1.4-14.7 3.1-14.8 3.1-.1 0-.3-.1-.3-.2s.1-.3.2-.3 7.5-1.7 14.9-3.1c15.2-2.9 15.7-1.9 15.9-1.5.2.4-.3.9-.6 1.2-2.3 1.8-6.9 3.2-13.6 4.1-5.1.7-9.5.9-9.5.9zM876.3 490.9c-.3 0-20.9-4.3-25.1-4.3-.2 0-.3-.1-.3-.3 0-.2.1-.3.3-.3 4.3 0 24.3 4.2 25.1 4.3.1 0 .2.2.2.3 0 .2-.1.3-.2.3z"/><path class="st11" d="M837.5 340.4c-2.4 4.9-6.3 13.5-9.8 23.9 7.8-.8 25-2.5 41.2-2.5 16.2 0 47.8 9.2 62.9 13.8-1.1-8.7-2.2-17.6-3.7-26.1-12.5-3.6-33.3-8.9-52.4-10.5-17.7-1.6-30.6-.1-38.2 1.4z"/><path class="st2" d="m913 497.7-28.7-4.4c-.2 0-.3-.2-.2-.3 0-.2.2-.3.3-.2l28.7 4.4c.2 0 .3.2.2.3 0 .1-.2.2-.3.2z"/><path class="st9" d="M850.4 443.6v7.2L823 449s-1.3-5.5-.4-8.1c0 0 11.7 2.9 27.8 2.7z"/><path class="st2" d="M876.5 300.6s13.5-4.2 14.9-5.8c.9-1.1 2.8 5 2.8 5s-10.4 5.8-13.1 6.1l-5.2-2.5-4.5 1.3s-.1-3.8 0-4.8 2.1-3.3 2.1-3.3l3 4z"/><path class="st16" d="M878.8 277.6c0 .8 1.1 1.4 2.4 1.4s2.4-.6 2.4-1.4c0-.8-1.1-1.4-2.4-1.4s-2.4.6-2.4 1.4z"/><path class="st15" d="M819.1 449c2.1-.6 3.8-2.8 6.3-2.5 2.5.3 7.8 1.1 7.6-.7-.2-1.8-3.9-3.1-3.9-3.1s7.3 2.8 7.3 1.9c.1-.9-1.1-1.7-1.1-1.7s3.1-.1 2.5-1.1c-.6-1-7.5-3.5-7.5-3.5s8.1-3 6.9-3.8c-1.2-.8-5.6.3-8.8.9-3.1.7-9 0-12.1 5.1-3 5.1 1 9.1 2.8 8.5z"/><path class="st9" d="M819.8 430.2c-.1 0-.2-.1-.3-.2-1.6-9.2.5-33.1 1.4-40.7 1-9.1 11.4-37.9 13.9-43.8 2.4-5.6 8.8-20.1 8.9-20.2.1-.1.2-.2.4-.1.1.1.2.2.1.4-.1.1-6.5 14.6-8.9 20.2-2.5 5.8-12.9 34.6-13.9 43.6-.9 7.6-3 31.5-1.4 40.6.1 0 0 .2-.2.2z"/><path class="st9" d="M822 385.3c-.1 0-.1 0-.2-.1s-12.4-11.6-21.4-12.1c-.2 0-.3-.1-.3-.3 0-.2.1-.3.3-.3 3.8.2 8.7 2.4 14.3 6.4 4.2 3 7.3 5.9 7.4 5.9.1.1.1.3 0 .4.1.1 0 .1-.1.1zM933.1 385.8c-1.6-11.1-2.8-22.9-4.7-34.1-10.1-8.6-23.6-19.9-23.6-19.9s5.7 52.8 29.5 62.2c-.4-2.7-.8-5.4-1.2-8.2zM820.1 387.4c-.1 0-.1 0-.2-.1 0 0-4.9-3.5-10.3-6.5-7-4-11.7-5.4-13.6-4.2-.7.4-.6.8-.6.9.4 2.5 12.3 6.3 16.9 7.6.1 0 .2.2.2.3 0 .1-.2.2-.3.2-1.7-.5-16.8-4.8-17.3-8.1-.1-.6.2-1 .8-1.4 4.9-3.1 23.7 10.2 24.5 10.8.1.1.2.3.1.4-.1 0-.2.1-.2.1zM819.2 379.9c-.1 0-.2 0-.2-.1-.1-.1-7.1-8.5-13.2-9.1-.2 0-.3-.1-.2-.3 0-.2.1-.3.3-.2 2.7.3 5.8 1.9 9.2 4.9 2.6 2.2 4.4 4.4 4.4 4.4.1.1.1.3 0 .4h-.3zM941.1 440.9l1.5 6s-26.2 4-49.4 3.8l-1.1-6.4s32.1-.7 49-3.4z"/><path class="st3" d="M872.1 280.1s-.7-.2-2.3 0c-1.6.2-1.8 1.2-2.4 1.1-.6-.1-.4-6-1.2-5.6-.8.3-2.5 8.6-2.5 10.7 0 2.1-1.2 7.8 1.6 10.1s10.1 3.7 15.5 1.9c5.4-1.8 7.5-8.8 8-10.4.5-1.6 1-11.1.6-12.3-.4-1.2-.8-1.3-1-.9-.3.4-2.8 5.4-3.3 7.2-.5 1.9-2.9 2.5-3.5 1.7-.6-.9-3.1-2.7-4.4-2.6-1.2.1-2.7-.2-2.7-.2s-1.6.3-2.4-.7z"/><path class="st9" d="m888.3 444.6.9 6.9s-20.3 1-35.6-.8l-.4-7.2c0 .1 14.1 2.3 35.1 1.1z"/><path class="st15" d="M868.9 281.8s-.2-.1-.3.8c0 .9.1 5.4 1.4 5.5 1.3.1 2-1.8 3.5-1.2 1.5.6.6 1.7 2.1 1.5 1.5-.2 2.6-2.1 2.8-3.4.2-1.4 0-2.4 0-2.4s-.7.7-3.6.7c-2.8 0-5.9-1.5-5.9-1.5z"/><path class="st3" d="M893.3 257.9s0-5.8-8.9-5.8c-6.6 0-13.3-2.5-13.3-2.5s-9.3 9.2-3.3 13c2.5 1.6 8.8 2.5 10.7 2.4 1.9-.1 10.1 1.5 10.4 3.2.1.4.1.8.2 1.2-.2.8-.2 2.2-.3 2.8-.7 2.7-.8 3.9.5 4.3 1.2.6 4-18.6 4-18.6z"/><path class="st9" d="M868.9 281.8s6.3 1.3 9.6.8c0 0-1.6 4.6-5.5 3.7-3.9-.9-4.1-4.5-4.1-4.5z"/><path class="st2" d="M870.3 283.8c1.3.5 5.1.7 7.2.6.6-.9.9-1.7.9-1.7-3.3.5-9.6-.8-9.6-.8s0 .5.3 1.2c.3.2.7.5 1.2.7z"/><path class="st16" d="M873.2 285.1c-1 0-1.8.1-2.3.2.5.4 1.2.8 2.1 1 1.8.4 3-.3 3.9-1.2-.9.1-2.6.1-3.7 0zM865.8 277c0 .8 1.1 1.4 2.4 1.4 1.3 0 2.4-.6 2.4-1.4 0-.8-1.1-1.4-2.4-1.4-1.3 0-2.4.6-2.4 1.4z"/><path class="st10" d="m908.8 306.8 60.2 45.5s63.6-23.6 70.6-16.2c7 7.4 5 18.3 2.8 22.7 0 0-53.6 39.5-82.2 31.3-28.6-8.3-37.8-22.8-46.2-35.4-8.3-12.5-17-45.2-5.2-47.9z"/><path class="st15" d="M1036.1 346.7s1.2-5 6.2-6.9c5-1.9 8.1-4.6 9.7-5.5s1.6 1.3-.8 3c-2.4 1.8-3.3 2-3.6 3.5-.3 1.5 12.4 4.6 14.6 4.2 2.7-.5 3.7 1.1 2.2 1.6-2.5.9-7 .6-7 .6s8.1 1.1 8.6 2.1-1.4 1-1.4 1 1.3.9.8 1.5c-.5.7-8.9 1.6-8.9 1.6s4 2.2 4.1 3.8-7.4-2-8.6-2.4c-1.2-.4-13.9-1.4-15.9-8.1z"/><path class="st9" d="M962.9 380.8c-.1 0-.2 0-.3-.1-.5-.3-1.8-1 1.5-14.6 1.6-6.6 3.5-13.2 3.5-13.2 0-.1.2-.2.3-.2.1 0 .2.2.2.3 0 .1-1.9 6.6-3.5 13.2-2.9 12.2-2.1 13.8-1.7 13.9h.2c1.9-.9 5-16.3 6-21.3.5-2.6.5-2.6.8-2.5h.2V357.2c-.4 13.9.7 22.5 2.9 23 .2 0 .4 0 .5-.1 2.1-2.1-.9-19.4-2.2-25.9 0-.1.1-.3.2-.3.2 0 .3.1.3.2s1.2 6 2.1 12.1c.4 3.1 1.7 12.6 0 14.3-.3.3-.6.4-1 .3-1.8-.4-3.8-4.4-3.4-21.1-2 10-4.3 20.2-6.2 21.1h-.4z"/><path class="st2" d="M964.4 621.9h-.1c-.4-.1-1.3-.4.2-17.9.7-8.5 1.7-17.1 1.7-17.2 0-.2.2-.3.3-.2.2 0 .3.2.2.3-1.4 12.6-3.3 32.8-2.3 34.4 0-.1.1-.2.2-.4 2.9-5.7 2.8-23.1 2.8-23.3 0-.2.1-.3.3-.3.2 0 .3.1.3.3 0 0 0 4.5-.3 9.5-.4 6.8-1.3 11.5-2.6 14-.1.3-.3.8-.7.8zm.1-.5z"/><path class="st9" d="M881.3 306.3c-.5 0-1.1-.2-1.7-.5-1.2-.6-2.5-1.6-2.8-2.1-.4 0-2.3.4-3.8.9-.1 0-.3 0-.3-.2 0-.1 0-.3.2-.3 1.4-.4 3.8-1.2 4.3-.9.1 0 .2.1.2.2.1.1.8.8 1.9 1.5 1.2.7 2.1 1 2.6.8 1.5-.6 12.1-4.7 12.2-4.8.1-.1.3 0 .4.2.1.1 0 .3-.2.4-.1 0-10.7 4.2-12.2 4.8h-.8zM864.6 353.2c-.1 0-.1 0 0 0-.2 0-.3-.2-.3-.3l5.9-53.8c0-.2.2-.3.3-.2.2 0 .3.2.2.3l-5.9 53.8c0 .1-.1.2-.2.2zM878.1 354.4h-22.8s-.2 1.4-.3 4.3h22.9c.1-2.6.2-4.3.2-4.3z"/><path class="st2" d="M877.9 358.7H855c-.1 2.8-.3 7.1-.3 13 0 4.3.6 17.3.6 17.3h22.8s-.5-12.9-.6-17.3c0-4.9.2-9.7.4-13z"/><path class="st17" d="M863.6 352h4.9v4.9h-4.9zM859.6 367.9h13.1v2h-13.1z"/><path class="st9" d="M867.5 353.2h-.1c-.1-.1-.2-.2-.1-.4l27.2-53.8c.1-.1.2-.2.4-.1.1.1.2.2.1.4l-27.2 53.8c-.1.1-.2.1-.3.1z"/><path class="st18" d="M649.4 404s59.2 51.7 56.1 68.5c-3.1 16.8-27.1 13.9-33.2 8.9s-23.4-69.3-22.9-77.4z"/><path class="st9" d="M575.8 552.1c1 0 2-.5 2.6-1.4.9-1.4.5-3.3-.9-4.2-13.8-8.8-13.8-23.4-13.8-23.5 0-1.7-1.3-3-3-3.1-1.7 0-3 1.3-3 3 0 .7 0 18.1 16.6 28.7.4.4 1 .5 1.5.5zM663.6 537.6c1 0 2-.5 2.6-1.4.9-1.4.5-3.3-.9-4.2-13.8-8.8-13.8-23.4-13.8-23.5 0-1.7-1.3-3-3-3.1-1.7 0-3 1.3-3 3 0 .7 0 18.1 16.6 28.7.4.4.9.5 1.5.5z"/><path class="st9" d="M653.3 516.3c4-1.9 6.6-6 6.6-10.5 0-2.1-.1-4.6-.6-7.2-1.1-7.2-6.1-39.2-7.2-46.2-.2-1.3-.6-2.5-1.2-3.7-1.8-3.3-6.4-9.2-16.7-10.7-14.6-2.2-51-6.8-75.5 3.4-24.6 10.3-23.3 18.6-22.4 28.3.9 9.6 6.3 53.3 10.3 58.1 1.5 1.8 12.4-.3 28.3 3.6 14.7 3.6 50.7-1.8 78.4-15.1zM639.5 699.2l7.8-1.2-16.1-122.3c-1-6.7-5.9-12-12.4-13.7l-36.3-9.1c-4.5-1.1-9.3-.3-13.2 2.2-3.9 2.6-6.5 6.6-7.3 11.2l-15.9 111.4 7.8 1.3 15.9-111.4c.4-2.4 1.8-4.5 3.8-5.9 2.1-1.4 4.5-1.8 6.9-1.2l36.3 9.1c3.4.9 6 3.7 6.5 7.2l16.2 122.4zM742.8 695.2l7.8-1.2-16.1-122.3c-1-6.7-5.9-12-12.4-13.7l-36.3-9.1c-4.5-1.1-9.3-.3-13.2 2.2-3.9 2.6-6.5 6.6-7.3 11.2l-15.9 111.4 7.8 1.3 15.9-111.4c.4-2.4 1.8-4.5 3.8-5.9 2.1-1.4 4.5-1.8 6.9-1.2l36.3 9.1c3.4.9 6 3.7 6.5 7.2l16.2 122.4z"/><path class="st9" d="M617 542c6.2.2 12.4-.5 18.4-1.9 16.5-4.1 28.3-9.8 44.3-5.8 19.2 4.8 50.3 7.2 51.6 25.3 1.3 18.1-38.1 23.4-56.4 23.3-18.3-.1-43.9-8.2-60.2-12.6-16.3-4.4-52.6-13.2-53.8-19.5-1.3-6.3 1.9-11.4 9.9-10.6 5.9.6 32.7 1.4 46.2 1.8zM685.4 685.6s2.9 4.8 3 5.4c.1.6 9.2 7.9 10.2 14.3s-8.4 6.8-18.1 4.3c-2-.5-15.5-4.3-15.2-9.3.3-5.1 1.8-16.5 2.5-18.4 1.5-3.7 15.1-.7 17.6 3.7zM806.2 690.1c-5.6-3-25.1-10.7-25.1-10.7-9.2-8.9-19.5-2.7-18.4 1.7s-2.4 10.7-.4 13.3c2 2.7 32.4 8.1 40.1 6.8 7.5-1.4 9.4-8.2 3.8-11.1z"/><path class="st2" d="M798.6 697.8c-5.7 0-16.3-.4-20.8-1.7-5.3-1.5-13.9-4.1-14-4.1-.1 0-.2-.2-.2-.3 0-.1.2-.2.3-.2.1 0 8.7 2.6 14 4.1 5.4 1.5 19.9 1.8 23.6 1.6.6 0 1.1-.2 1.3-.4.3-.3.2-.8.1-1.4-.1-1-.3-2.4 1.6-3.1l3.5-1.2c.1 0 .3 0 .3.2 0 .1 0 .3-.2.3l-3.5 1.2c-1.5.5-1.4 1.4-1.2 2.5.1.7.2 1.3-.2 1.8-.3.4-.9.6-1.7.6-.6.1-1.7.1-2.9.1z"/><path class="st19" d="M673.3 513.7s72.6 15 82.1 33.9c7.2 14.5 25.4 129.4 25.4 129.4l-8.7.3c-1.8.1-18.2 4.8-19 3.2-7.1-13.6-31.8-83-29.4-108 0 0-55.4-10.9-75.8-19.7-20.5-8.8-14.5-46.8 25.4-39.1z"/><path class="st19" d="M685.2 565c-2-8-32-35-32-35l21.7-4.1s-2.2-11.3-3.2-20.1c-8 1.6-77.5 9.3-84.3 8.9-4.8 13.8 3.6 33.7 10.6 42.8 11.4 14.8 48.1 18.8 48.1 18.8s-.8 12.4 1.4 25c5.4 30 14.9 85.8 17.7 86.7 4.1 1.2 28.1-3.2 28.1-3.2S687.2 573 685.2 565z"/><path class="st9" d="M783 682.5c-.1-.4-.5-7.4-1.8-7.7-1.3-.3-9.3-.3-10.6.3-1.4.5-.8 5.4.7 6.7 1.6 1.3 11.7.7 11.7.7zM673.3 691.2s-1.4-6.2-.7-6.8c.8-.7 12.7-1.6 12.8 0 .2 1.6-.1 7.4-.3 7.8-.3.4-11.6-.2-11.8-1z"/><path class="st2" d="M687.4 707.8c-.4 0-8.2-.9-11.7-2-6.5-2.1-9.1-5.6-9.2-5.8-.1-.1-.1-.3.1-.4.1-.1.3-.1.4.1 0 0 2.6 3.6 9 5.6 3.2 1 10.5 1.9 11.4 2 .6-.4 4.1-2.8 7.1-2.8 3.3 0 4.1 2.1 4.1 2.2.1.1 0 .3-.2.4-.1.1-.3 0-.4-.2 0-.1-.8-1.8-3.6-1.8-3 0-6.8 2.8-6.9 2.8 0-.1 0-.1-.1-.1z"/><path class="st9" d="M678.8 555.9c-.1 0-.2-.1-.3-.2-.3-1.6-.8-4.1-1-4.6-.3-.5-7.8-12.3-11.1-15.3-1.2-1.1-3.2-2.6-5.1-4-3.8-2.9-6.1-4.7-6.1-5.6 0-.2.1-.3.2-.5 1.2-.9 18.1-9.5 18.8-9.9.1-.1.3 0 .4.1.1.1 0 .3-.1.4-.2.1-17.5 9-18.7 9.9-.2.6 3.6 3.5 5.9 5.2 1.9 1.5 3.9 3 5.1 4.1 3.3 3.2 10.8 14.9 11.2 15.5.4.7 1 4.3 1.1 4.7 0 0-.1.1-.3.2 0-.1 0 0 0 0z"/><path class="st18" d="M604.3 397.8s.3-3.1 6.5-5.3c6.2-2.2 13.2 0 15.7 1.5s5.1 6.4 5.1 6.4l-26.6.9c0-.1-1.1-1.5-.7-3.5zM703.5 463.1s-12.4-39.9-29.2-41.7c-16.8-1.8-14.7 17.8-12.1 24.9 2.6 7.1 6.1 34.2 18.1 35.4 12 1.1 27.6-2.8 23.2-18.6z"/><path class="st9" d="M657.4 526.7c-.1 0-.2-.1-.2-.2-.1-.1 0-.3.1-.4 0 0 4.1-2 9-3.9 6.6-2.5 11.5-3.7 14.7-3.6.2 0 .3.1.3.3 0 .2-.1.3-.3.3-7.3-.3-23.2 7.3-23.4 7.4-.1.1-.2.1-.2.1zM597.6 527.7c-.1 0-.2 0-.2-.1-.1-.1 0-.3.1-.4.1 0 6.3-3.9 19.8-5.8 7-1 15.7.1 21.8 1.1 6.5 1.1 11.5 2.5 11.5 2.5.1 0 .2.2.2.3 0 .1-.2.2-.3.2 0 0-5-1.4-11.5-2.5-6-1-14.6-2.1-21.6-1.1-13.3 1.8-19.5 5.6-19.5 5.7-.2 0-.3.1-.3.1zM646 576.5c-.2 0-.3-.1-.3-.3 0-.1.1-2.2.8-5 .7-2.5 2-6 4.6-8.4.1-.1.3-.1.4 0 .1.1.1.3 0 .4-4.9 4.3-5.3 12.9-5.3 13 .1.2 0 .3-.2.3z"/><path class="st18" d="M642.6 524.3c2.2-.3 1.1-11.6 1.1-11.6l13.7-2.6s1.4 9.9 3.1 9.8c11.4-.6 23.1-1 28.3-2.6.8-12.2-19.1-47-23.6-61.1-12-37.7-8.8-58.3-31-60.5-19.6-2-38.4-1.9-49.4 13.6-9.4 13.3-7.4 19.1-7.7 55.2-.1 12.2 10.3 77 13 89.5 7.5-9 35-27.3 52.5-29.7z"/><path class="st9" d="M645.5 449.1c-.1 0-.3-.1-.3-.3-1.4-15.2-3.9-38.4-5-39.6-.8-.9-2.7.2-4.1 1.1-1.1.7-1.9 1.2-2.5 1.1-.3 0-.4-.2-.4-.3-.1-.5.5-1.1 2.2-2.7.9-.8 2.6-2.4 2.5-2.8-.1-.7-4.7-5.2-9-9.1-.1-.1-.1-.3 0-.4.1-.1.3-.1.4 0 1.5 1.4 8.9 8.3 9.1 9.4.1.6-.9 1.7-2.7 3.3-.8.7-1.8 1.7-2 2.1.4 0 1.3-.5 2.1-1 1.7-1 3.7-2.3 4.8-1 1.6 1.7 4.8 36 5.2 39.9 0 .1-.1.3-.3.3zM617.5 459c-.1 0-.2-.1-.3-.2-.7-1.7-17.9-40.6-18.1-44 0-.6.2-1.1.6-1.5 1.4-1.4 5.3-.9 7.4-.6h.4c-1.4-.9-5.4-3.1-8.1-4.2-.5-.2-.8-.5-.9-1-.3-1.2.5-3.4 2.6-6.5 1.5-2.3 3.1-4.2 3.1-4.2.1-.1.3-.1.4 0 .1.1.1.3 0 .4-1.7 2.1-6.1 8.1-5.6 10.2.1.3.3.5.6.7 1.5.6 3.6 1.6 5.7 2.7 3.3 1.8 3.3 2.1 3.3 2.3 0 .1-.1.3-.3.3-.2 0-.5 0-1.2-.1-1.8-.2-5.7-.7-6.9.5-.3.3-.4.6-.4 1.1.2 3.4 17.9 43.5 18.1 43.9.1.1 0 .3-.1.4-.2-.2-.3-.2-.3-.2z"/><path class="st20" d="M626.1 396.4c-5.2-3.7-16 .3-16 .3s-2.8 8.8 6.9 42.2c8.9 30.6 26.7 73.9 26.7 73.9l13.7-2.6c0-.1-26.1-110.2-31.3-113.8z"/><path class="st21" d="M626.3 447.4s3.5-2.8 5.5-5.1 4.9-6.3 7.3-7.2 3.1-.8 2.6.4c-.5 1.2-4.5 8.8-4.7 9.9-.3 1.1-1.2 3.2-3.8 4.2-2.6.9-6.9-2.2-6.9-2.2z"/><path class="st9" d="M619.5 344.9s-2.8.3-7.7-.2c-4.8-.5-10.2 1.7-10.8 3.8-.5 2.1-.3 2.4-.3 2.4s-4.2-1.4-4.3 0c-.1 1.4 1.7 2 1.7 2s-1.7 1.2-1.3 1.9c.5.8 1.6.9 1.6.9s-2 6 2.3 11.4 11.3 10.2 12.4 12.2c1 1.9 13.9-31 6.4-34.4z"/><path class="st21" d="M611.6 396.1c3.6-11 1.2-22.9 1.2-22.9l11.8 4.7s0 7.4.9 18.5c0 .2-12.8 2.4-13.9-.3z"/><path class="st9" d="m624.7 380.6-8.9-2s.8 5.3 4.6 8c1.6 1.1 3.3 1.8 4.7 2.2-.3-3.6-.4-6.4-.4-8.2z"/><path class="st21" d="M627 348.9s5 7.7 6.5 10 3.5 4.4 5.3 8.1c1.8 3.8 2.1 11.9-4.5 16-6.5 4.1-14.4-.5-17.8-3.5-3.4-3-5-6-5-6s-2.5 2-4.6-.5c-1.8-2.2-4.2-6.3-1.9-8 2.3-1.6 5.2 2.6 5.7 2.1s-1.2-3.7-1.7-7.3c-.3-2 13.2-13.9 18-10.9z"/><path class="st9" d="M615.7 362.5c-.1 0-.1 0-.2-.1s-.1-.3 0-.4c.1-.1 2-2.2 3.7-3.2 1.7-1 3.2-.4 3.2-.4.1.1.2.2.1.4-.1.1-.2.2-.4.1-.1 0-1.2-.5-2.7.3-1.6.9-3.6 3-3.6 3.1.1.1 0 .2-.1.2z"/><path class="st21" d="M629.6 362.4s2.5 2.3 2.5 3.7c0 1.4-1.6 2.8-3.7 2.3-2.2-.4-2.1-1.1-2.3-2.1-.3-1 2.7-4.7 3.5-3.9z"/><path class="st22" d="M617.9 369.4c.4 1 2.2 1.1 4 .4 1.8-.7 3-2.1 2.6-3-.4-1-2.2-1.1-4-.4-1.8.7-3 2-2.6 3zM632.5 364.4c.3 1 1.7 1.4 3.1.9 1.4-.5 2.2-1.6 1.9-2.6-.3-1-1.7-1.4-3.1-.9-1.4.4-2.2 1.6-1.9 2.6z"/><path class="st9" d="M628.8 368.9c-.9 0-1.8-.4-2.5-1.1-.1-.1-.1-.3 0-.4.1-.1.3-.1.4 0 1 1.1 2.3 1 2.9.8 1.1-.3 2.1-1.2 2.3-2 .1-.4 0-.7-.3-.9-2.8-2.3-5.1-6.5-4.9-7.7.4-2.1 3.4-3.2 3.6-3.3.1-.1.3 0 .4.2.1.1 0 .3-.2.4 0 0-2.9 1.1-3.2 2.8-.1.8 1.8 4.8 4.7 7.2.5.4.6.9.5 1.5-.2 1-1.4 2-2.7 2.4-.3 0-.7.1-1 .1z"/><path class="st2" d="M626 371.3s6.6-1.4 9.1-2.8c0 0 1.4 2.9-1 4.7s-7.7.2-8.1-1.9z"/><path class="st9" d="M632.2 363c-.5 0-1-.1-1.4-.4-.7-.4-1.5-1.2-2.1-2.2-.6-1-.7-2.3-.2-3.2.1-.1.1-.2.2-.3.4-.5 3.8-2.8 5.2-1.9 1 .6 2.3 3 2.4 4.7.1.8-.1 1.4-.6 1.8-1.2 1-2.4 1.5-3.5 1.5zm.8-7.7c-1.3 0-3.6 1.6-3.9 1.9 0 .1-.1.1-.1.2-.4.8-.3 1.9.2 2.7.5.9 1.3 1.6 1.9 2 1.1.6 2.8.2 4.3-1.1.3-.3.5-.7.4-1.4-.1-1.6-1.4-3.8-2.2-4.3-.2.1-.4 0-.6 0zM620.5 370.1c-.6 0-1.2-.1-1.7-.3-1-.4-2-1.4-2.8-2.5-.8-1.2-.8-2.7-.1-4 .1-.2.2-.3.3-.4.6-.7 5.4-3.7 7.2-2.7 1.2.7 2.9 3.3 3 5.3.1 1.1-.2 2-.9 2.5-1.7 1.4-3.5 2.1-5 2.1zm-4-3.1c.7 1 1.6 1.9 2.5 2.3 1.6.7 4 0 6.2-1.7.5-.4.8-1.1.7-2-.2-1.9-1.7-4.3-2.8-4.9-1.4-.8-6 2-6.5 2.6-.1.1-.1.2-.2.3-.6 1-.6 2.3.1 3.4z"/><path class="st9" d="M624.6 362c-.1 0-.1 0-.2-.1s-.1-.3 0-.4c2.4-2.6 4.1-2.3 4.2-2.3.1 0 .2.2.2.3 0 .1-.2.2-.3.2 0 0-1.5-.2-3.7 2.1 0 .2-.1.2-.2.2zM608.7 365.6c-.1 0-.2-.1-.3-.2 0-.2.1-.3.2-.3l7.2-1.3c.1 0 .3.1.3.2 0 .2-.1.3-.2.3l-7.2 1.3c.1 0 .1 0 0 0zM618.6 364.1c-.1 0-.1 0-.2-.1s-.1-.3 0-.4c.1-.1 2.3-2.6 4.7-1.9.1 0 .2.2.2.3 0 .1-.2.2-.3.2-2.1-.5-4.1 1.7-4.1 1.8-.2.1-.2.1-.3.1z"/><path class="st9" d="M622 361.7s.2-.1.7.1c.5.2.8 1.7.1 2.6-.7.9-1.6.6-2-.2s-.4-2.2 1.2-2.5zM630.1 359h-.2c-.1-.1-.2-.3-.1-.4.4-.6 1.6-1.7 3-1 .1.1.2.2.1.4-.1.1-.2.2-.4.1-1.3-.6-2.2.7-2.3.8.1.1 0 .1-.1.1z"/><path class="st9" d="M632.3 357.9c-.4-.3-.5-.2-.5-.2-1.1 0-1.1 1.2-.7 2.1.4.8 1.1 1.3 1.5.5.4-.8.1-2.2-.3-2.4zM609.2 357.7s3.7-3.2 6-7.5c2.3-4.4 4.9-10.8 11.1-9 6.1 1.8 5 6.7 4.5 9.9-.6 3.2-8.4 7-8.9 6.5-.5-.6.7-2.5.7-2.5s-10.3 8.4-13.1 8.5-2.6-3.6-.3-5.9zM658.9 397.1c-.5.2-.6.8-.4 1.2l18.8 37.3c.2.5.8.6 1.2.4.5-.2.6-.8.4-1.2l-18.8-37.3c-.2-.5-.7-.6-1.2-.4z"/><path class="st2" d="M665.7 470.4h-33.3l16.6-54.6h33.3z"/><path class="st13" d="M649 415.8h33.3v42.1H649zM632.4 470.4l-3.7-4.1s15.9-52.1 20.3-50.5l-16.6 54.6z"/><path class="st9" d="M655.1 418.1c-.1 0-.2-.1-.3-.2-.1-.1 0-.3.2-.4 1.1-.4 1.6-1.6 1.5-2.5 0-.4-.3-1.2-1.4-1.3-.7-.1-1.2 0-1.6.4-.7.6-.7 1.6-.7 1.6 0 .2-.1.3-.3.3-.2 0-.3-.1-.3-.3 0-.1 0-1.2.9-2 .5-.4 1.2-.6 2-.5 1.1.1 1.8.8 1.9 1.8.2 1.3-.7 2.7-1.9 3.1zM662.9 418.1c-.1 0-.2-.1-.3-.2-.1-.1 0-.3.2-.4 1.1-.4 1.6-1.6 1.5-2.5 0-.4-.3-1.2-1.4-1.3-.7-.1-1.2 0-1.6.4-.7.6-.7 1.6-.7 1.6 0 .2-.1.3-.3.3-.2 0-.3-.1-.3-.3 0-.1 0-1.2.9-2 .5-.4 1.2-.6 2-.5 1.1.1 1.8.8 1.9 1.8.2 1.3-.7 2.7-1.9 3.1zM670.7 418.1c-.1 0-.2-.1-.3-.2-.1-.1 0-.3.2-.4 1.1-.4 1.6-1.6 1.5-2.5 0-.4-.3-1.2-1.4-1.3-.7-.1-1.2 0-1.6.4-.7.6-.7 1.6-.7 1.6 0 .2-.1.3-.3.3-.2 0-.3-.1-.3-.3 0-.1 0-1.2.9-2 .5-.4 1.2-.6 2-.5 1.1.1 1.8.8 1.9 1.8.2 1.3-.6 2.7-1.9 3.1.1 0 0 0 0 0zM678.5 418.1c-.1 0-.2-.1-.3-.2-.1-.1 0-.3.2-.4 1.1-.4 1.6-1.6 1.5-2.5 0-.4-.3-1.2-1.4-1.3-.7-.1-1.2 0-1.6.4-.7.6-.7 1.6-.7 1.6 0 .2-.1.3-.3.3-.2 0-.3-.1-.3-.3 0-.1 0-1.2.9-2 .5-.4 1.2-.6 2-.5 1.1.1 1.8.8 1.9 1.8.2 1.3-.6 2.7-1.9 3.1.1 0 0 0 0 0z"/><path class="st21" d="M635.6 440.7s8-3 9.3-3.9c1.2-.9 8.4-4.7 9.3-3.5.9 1.2-4.2 3.5-4.2 3.5s6.7-2.7 7.7-1.7c1 1-7.3 6.2-7.3 6.2s5.7-3.2 6.4-2.7-7.8 8.1-7.8 8.1 7.7-1.3 8.7-.5c1 .8-12 5.1-13.5 6.4-1.5 1.3-12.5 5.5-15 3.6s5.3-14.3 6.4-15.5z"/><path class="st9" d="M724.2 572.1c-.1 0-.1 0 0 0-.2 0-.3-.2-.3-.3 0 0 .8-5 1.8-9.9 2.1-10.2 3-10.3 3.4-10.3.2 0 .5 0 .7.5 1 2-.4 6.2-1.6 9.9-.7 2.1-1.5 4.7-1.2 5.1.6-.2 2.9-3.9 4.6-6.6 3.3-5.2 5.3-8.4 6.5-8.4.2 0 .4.1.5.4 1.3 2.5-8.4 15.8-9.6 17.4-.1.1-.3.1-.4.1-.1-.1-.1-.3-.1-.4 0 0 2.7-3.7 5.2-7.6 4.5-7 4.5-8.7 4.3-9.2 0-.1-.1-.1-.1-.1-.9 0-3.8 4.7-6 8.1-2.9 4.7-4.3 6.7-5.1 6.8-.1 0-.3 0-.4-.1-.6-.6-.1-2.4 1-5.7 1.1-3.4 2.5-7.7 1.6-9.5l-.1-.2c-.8.2-2.7 7.7-4.7 19.8.2.1.1.2 0 .2zM586.7 535.5c28.4-8.9 45.9-60.5 46.2-61.1l-51.6 26.9c1.7 11.8 3.7 24.2 5.4 34.2z"/><path class="st18" d="M580.2 417.1S550 491 569.7 516s75.2-50.9 74.5-58.4-15.6-14.4-24.1-12.1c-8.5 2.3-22.5 17.5-22.5 17.5s-1.9-43.1-5.1-47.3c-3.3-4.2-6.6-8.1-12.3 1.4z"/><path class="st9" d="M566 500.5c-.1 0-.2 0-.2-.1-.4-.2-.2-.7-.2-.9 1.4-4.6 29.7-34.4 31.8-36.6l-.3-6.2c-.3-6.2-3.3-35.9-3.3-36.2 0-.2.1-.3.2-.3.2 0 .3.1.3.2 0 .3 3 30 3.3 36.2l.3 6.4-.1.1c-.3.3-30.4 31.9-31.7 36.5 0 .1 0 .2-.1.2 1.5-.3 11.2-10.5 19.7-20l.4.4c-2.9 3.7-5.8 7.9-6.2 9.1 1.1-.9 4.4-5.4 7.4-9.5 3.4-4.6 7-9.3 9.1-11.6 2-2.1 3.3-4.1 4.4-5.8 1.4-2.2 2.7-4.2 5-5.9 4.1-3.1 11.7-10.3 11.8-10.4.1-.1.3-.1.4 0 .1.1.1.3 0 .4-.1.1-7.7 7.3-11.9 10.4-2.3 1.7-3.5 3.6-4.9 5.8-1.1 1.7-2.4 3.7-4.4 5.9-2.1 2.2-5.6 7-9 11.6-6.3 8.5-7.6 10-8.2 9.8-.1 0-.2-.1-.3-.3-.2-.6 1.3-2.9 2.9-5.2-1.6 1.8-3.6 4-5.7 6.1-8.1 8.8-9.9 9.9-10.5 9.9z"/><path class="st4" d="M45.8 636.9s3.7-101.6 1.6-119.9-5.5-36.5-1.7-55.8c3.8-19.4 20.3-49.3 20.3-49.3s10.9 37.5 14.5 64.9c3.6 27.4-10 68.1-11.6 87.1S58.7 637 58.7 637H45.8z"/><path class="st1" d="M44.1 473.8c3.4-.2 8.6-.2 12.8.7 6.9 1.5 6.7 1.3 12.9.9 3.4-.2 7.6.9 10.7 1.9 0-.2 0-.4-.1-.6-.5-3.8-1.2-7.9-1.9-12-2.9.2-5.3.9-10.4 0-6.6-1.1-4.1-1.5-15.4-3.2-3.1-.5-5.4-.4-7.1-.1-.8 4.2-1.3 8.4-1.5 12.4zM66.6 508.4c-5.1 0-5.4-2.2-11.2-3.7-3.8-1-7.4-.7-9.6-.4.5 4.2 1.1 8.5 1.6 12.7.1.7.1 1.4.2 2.3 2.4.6 5.7 1.4 8.6 2.4 5.4 1.9 4.3 0 9.3-.2 2.7-.1 7.2 1.8 10.9 3.6 1.1-5.3 2-10.7 2.9-16-4.5-.4-10-.7-12.7-.7zM67.3 559.7s-6-1.9-10.5-3.6c-2.5-.9-6.2-1.1-9-1-.1 6.4-.2 13.1-.3 19.8 3.6-.2 8.9-.4 12-.6 2.6-.2 5.6 1 7.8 2.2.6-4.9 1.1-9.3 1.4-12.6.1-1.2.2-2.4.4-3.7l-1.8-.5zM64.4 597.9c-.9-.3-1.9-.7-3.1-1-3.1-.9-8.2-1.5-9.9-2.2-.8-.4-2.7-.5-4.3-.6-.2 6.7-.4 13-.5 18.7 2.3.3 5.5.5 8.8.4 2.9-.1 5.1.9 6.6 2 .7-5.3 1.6-11.3 2.4-17.3z"/><path class="st4" d="M25.9 636.9s-10.2-45.5-8.6-79.3c1.6-33.8 5.3-91.5 5.3-91.5s17 7.3 26.2 100.9l-1 69.8H25.9z"/><path class="st1" d="M26.7 607c-3.3 0-5 1-5.8 2.1.5 3 .9 5.9 1.4 8.6 2.3-.4 5.6-.8 8.8-1.2 4-.4 12.4.6 17.1 1.2l.2-11.3c-2.8.1-6.4.3-9.2.5-5.5.5-5.7.1-12.5.1zM44 575.1c-1.3-.1-15.7 3-21.6 3.9-2 .3-3.5 1.4-4.5 2.7.3 3.7.6 7.4 1 11.1l6.6-2.9 23.1-1 .2-14.6c-2 .4-4.2.8-4.8.8zM30.8 549.2c3.9-1.7 4.6-2.8 9.2-3 2.1-.1 4.5.2 6.5.5-.3-2.3-.6-4.5-.9-6.7-.2-.1-.3-.2-.5-.2-2.5-1.3-3.7-2-8.3-4.1-4.6-2.1-3.2 1.6-6.3 5.1-3.1 3.6-5 .2-8.1-.7-1-.3-2.6.1-4.2.7-.2 3.1-.3 6-.5 8.9 4.4.3 10.6.6 13.1-.5zM33.2 515.3c2.1-.4 6.2 1.1 8.7 2.2-.9-4.6-1.8-8.8-2.7-12.6-1.9.2-4.7.4-6.1.3-2.3-.2-6.9-1.9-8.7-1.5-.9.2-2.7 1.7-4.3 3.2-.2 3.7-.4 7.5-.7 11.3 2-.2 4.3-.4 5.1-.5 1.8-.1 5.6-1.8 8.7-2.4z"/><path class="st4" d="M82.3 636.9s12.5-36.9 14.4-64.2c1.8-27.4 4.3-74.1 4.3-74.1s-14.4 5.9-30.7 81.8L64.6 637h17.7z"/><path class="st1" d="M84.4 612.7c2.7 0 3.9.9 4.5 1.7-.6 2.5-1.3 4.8-1.9 7-1.8-.3-4.4-.7-7-.9-3.2-.3-10.1.5-14 1l.9-9.1c2.2.1 5.1.3 7.4.4 4.5.2 4.7-.1 10.1-.1zM73.5 586.8c1.1-.1 12.4 2.4 17.1 3.2 1.6.3 2.7 1.1 3.4 2.1l-1.8 9-5.1-2.3-18.6-.8 1.2-11.8c1.5.3 3.2.7 3.8.6zM86.6 565.8c-3-1.4-3.5-2.3-7.2-2.4-1.7-.1-3.7.2-5.3.4.5-1.9.9-3.7 1.4-5.4.1-.1.3-.1.4-.2 2.2-1.1 3.2-1.6 7.1-3.3 3.9-1.7 2.5 1.3 4.7 4.2s4.1.2 6.6-.6c.8-.2 2.1 0 3.4.6-.2 2.5-.3 4.9-.5 7.2-3.6.2-8.8.4-10.6-.5zM87.7 538.4c-1.7-.3-5.1.9-7.3 1.8 1.1-3.7 2.3-7.1 3.4-10.2 1.5.2 3.8.4 4.9.3 1.8-.2 5.8-1.5 7.2-1.2.7.1 2 1.4 3.2 2.6-.2 3-.3 6.1-.5 9.2-1.6-.1-3.4-.3-4.1-.4-1.3-.3-4.3-1.7-6.8-2.1z"/><path class="st3" d="M21.2 633.3h65.2s7.1 35.2-12 54.8H36.7S15.6 675 21.2 633.3z"/><path class="st9" d="M291.9 551.2c1 0 2-.5 2.6-1.4.9-1.4.5-3.3-.9-4.2-13.8-8.8-13.8-23.4-13.8-23.5 0-1.7-1.3-3-3-3.1-1.7 0-3 1.3-3 3 0 .7 0 18.1 16.6 28.7.4.4 1 .5 1.5.5zM379.7 536.7c1 0 2-.5 2.6-1.4.9-1.4.5-3.3-.9-4.2-13.8-8.8-13.8-23.4-13.8-23.5 0-1.7-1.3-3-3-3.1-1.7 0-3 1.3-3 3 0 .7 0 18.1 16.6 28.7.4.4.9.5 1.5.5z"/><path class="st9" d="M369.4 515.4c4-1.9 6.6-6 6.6-10.5 0-2.1-.1-4.6-.6-7.2-1.1-7.2-6.1-39.2-7.2-46.2-.2-1.3-.6-2.5-1.2-3.7-1.8-3.3-6.4-9.2-16.7-10.7-14.6-2.2-51-6.8-75.5 3.4-24.6 10.3-23.3 18.6-22.4 28.3.9 9.6 6.3 53.3 10.3 58.1 1.5 1.8 12.4-.3 28.3 3.6 14.7 3.6 50.7-1.8 78.4-15.1zM355.6 698.3l7.8-1.2-16.1-122.3c-1-6.7-5.9-12-12.4-13.7l-36.3-9.1c-4.5-1.1-9.3-.3-13.2 2.2-3.9 2.6-6.5 6.6-7.3 11.2l-15.9 111.4 7.8 1.3 16-111.3c.4-2.4 1.8-4.5 3.8-5.9 2.1-1.4 4.5-1.8 6.9-1.2l36.3 9.1c3.4.9 6 3.7 6.5 7.2l16.1 122.3zM458.9 694.3l7.8-1.2-16.1-122.3c-1-6.7-5.9-12-12.4-13.7L402 548c-4.5-1.1-9.3-.3-13.2 2.2-3.9 2.6-6.5 6.6-7.3 11.2l-15.9 111.4 7.8 1.3 15.9-111.4c.4-2.4 1.8-4.5 3.8-5.9 2.1-1.4 4.5-1.8 6.9-1.2l36.3 9.1c3.4.9 6 3.7 6.5 7.2l16.1 122.4z"/><path class="st9" d="M333.1 541.1c6.2.2 12.4-.5 18.4-1.9 16.5-4.1 28.3-9.8 44.3-5.8 19.2 4.8 50.3 7.2 51.6 25.3 1.3 18.1-38.1 23.4-56.4 23.3-18.3-.1-43.9-8.2-60.2-12.6-16.3-4.4-52.6-13.2-53.8-19.5-1.3-6.3 1.9-11.4 9.9-10.6 5.9.6 32.7 1.4 46.2 1.8z"/><path class="st14" d="M317.1 334.5s-1.9.8-3.4 5.8c-1.6 5.3 6.8 18.1 10.2 17.8 7.1-.6 1.6-27.1-6.8-23.6z"/><path class="st2" d="M417 694.1c-4.3 1.7-5.3.7-6.6-1-.8-1-2.3-1.8-3.6-2.4 1.2-2.1 2.5-9.2 2.9-10.6.7-2.6 13-4.2 13.2.8 0 0 1.1 5.2 1.5 5.5l-.9.3c-3 1.8-2.2 5.7-6.5 7.4z"/><path class="st9" d="M451.8 704.8c-3.3.7-23.3 0-26.1-.2-2.8-.2-9.5-2.3-10.4-2.6-.9-.3-2.2 0-4.1.1-1.4.1-6.4.2-8.5.2.6-3.2 1.5-7 1.7-7.5.2-.4 1.3-2.1 2.4-4 1.3.5 2.8 1.4 3.6 2.4 1.4 1.7 2.3 2.6 6.6 1s3.5-5.6 6.5-7.2c.3-.2.6-.3.9-.3 1.6 1.4 5.7 5 6.2 5.5.7.7 14.1 4.7 22.3 8.7-1.3.6 1.7 3.3-1.1 3.9z"/><path class="st9" d="M402.7 702.3c2.1 0 7-.1 8.5-.2 1.8-.1 3.1-.5 4.1-.1.9.3 7.6 2.4 10.4 2.6 2.8.2 22.8.9 26.1.2 2.9-.6-.2-3.3 1.1-4 .3.2.6.3.9.5 3 1.5 5.6 6.3-9.3 6.1-14.8-.2-30.1-.6-30.1-.6l-.3-2.7-1.7 2.9-10.6-.4c.1-.1.5-2 .9-4.3z"/><path class="st2" d="M449.8 694.9c-4.3 1.6-5.3.6-6.6-1.1-.7-1-2.2-1.9-3.5-2.4 1.3-2.1 1.9-9.4 2.3-10.8.5-1.8 8.7-2.8 12.7-1.5 1.6.5 2.1 6.5 2.1 8l.6.6-.9.3c-3 1.5-2.3 5.4-6.7 6.9z"/><path class="st9" d="M484.3 706.5c-3.3.6-23.3-.6-26.1-.9-2.8-.3-9.4-2.5-10.3-2.9-.9-.4-2.2-.1-4.1 0-1.4.1-6.4 0-8.5 0 .7-3.1 1.7-7 1.9-7.4.2-.4 1.3-2.1 2.5-4 1.3.6 2.8 1.5 3.5 2.4 1.3 1.7 2.2 2.7 6.6 1.1 4.3-1.6 3.7-5.5 6.7-7 .3-.2.6-.2.9-.3 1.6 1.4 5.5 5.1 6.1 5.7.7.7 14 5.1 22 9.3-1.3.8 1.7 3.5-1.2 4z"/><path class="st9" d="M435.4 702.8h8.5c1.8-.1 3.1-.4 4.1 0 .9.4 7.6 2.6 10.3 2.9 2.8.3 22.7 1.5 26.1.9 2.9-.5-.1-3.3 1.2-4 .3.2.6.3.9.5 2.9 1.6 5.4 6.4-9.4 5.9-14.8-.6-30.1-1.4-30.1-1.4l-.2-2.7-1.8 2.8-10.6-.7c0-.1.4-2 1-4.2z"/><path class="st23" d="M394.1 506.1c4.5 2.6 8.6 4.9 23.1 9.5 19.3 6.2 34.1 7.5 39.3 9.3 20.3 7 15.1 25.5 14.8 40.3-.1 5-.3 88.1-7.9 118.2-4.2.3-20.2 6.8-28.9 0l2.2-116.1s-75.9-14.7-80-16.2c-5.6-2.1-9.6-7-10.8-12.8-.9-4.2-5.4-32.5-5.4-32.5-2.4-21.1 47.9-14.4 47.9-14.4s1.4 12.2 5.7 14.7z"/><path class="st23" d="M308.7 503.9s38.6-11.1 59.5-9.4c3.8.3 7 14.6 9.3 14.9 12 1.2 48.8 26.2 57.1 30.8 18.8 10.4 1.6 118.1-6.8 143.2-4.8-1.8-19.6 1-26.4-5 3-11.2-2-108.3-2-108.3s-38.3 4.9-75.4-16.7c-5.1-3-9.4-7.2-12.2-14.6-2-4.9-3.1-34.9-3.1-34.9z"/><path class="st24" d="M307.7 504.6c-1.1-3.3-2.3-18.6-4-37.8-1.9-22.3-4.9-54.2 3.4-70.3 12.7-25 43-22.9 51.8-11.9 18.9 23.6 22.4 55.6 24.4 66.4 4.4 23.3 4 35.2 5 40.5.2 1.1-11.7 5.1-27.6 9.8-25.7 7.6-51.6 7.5-53 3.3z"/><path class="st16" d="M345.5 343.5s2.1-1.4 3.4.1c1.2 1.5 1.2 9.9-.7 10.2-1.8.3-4.6-8.1-2.7-10.3zM323.6 358.8s2.8 22.1 2.9 22.3c.2.3 7.7 4.3 12.5 2.2 4.8-2.1.5-6.7.5-6.7s-3.1-7.9-3.5-10.7c-.4-2.6-6.9-9.2-12.4-7.1z"/><path class="st14" d="M347.1 350.5s-1.1-2.7-1.4-4.3c-.3-1.6-1.8-8.8-2.2-9.9-.4-1.1 0-4.4 1-3.6 1 .7 2.7 2.5 3 4.2.4 1.8 1.4 13.3-.4 13.6z"/><path class="st16" d="M316.9 347c1.3-.5 2.4.4 2.4-.2 0 0-2.1-8 2.4-12.4 4.5-4.3 18.4-4.3 22.1.7s2.9 11 3.6 14.3c.3 1.5 3.4 7.1 3.6 9.7.4 4.9-2.5 12.4-12.4 12.6-14.9.3-19.1-15.4-19.1-15.4s-2 .8-3-1.2c-.9-2.1-1.8-7.2.4-8.1z"/><path class="st9" d="M326.9 348.4c-.1 0-.2 0-.2-.1-.1-.1-.1-.3 0-.4.1-.1 3.1-2.4 5.6-1.3.1.1.2.2.1.4-.1.1-.2.2-.4.1-2.2-1-5 1.2-5.1 1.2.1.1.1.1 0 .1zM340.3 349.4c-.1 0-.1 0-.2-.1s-.1-.3 0-.4c.8-.9 1.6-1.3 2.5-1.4 1.2-.1 2.1.7 2.2.7.1.1.1.3 0 .4-.1.1-.3.1-.4 0 0 0-.8-.7-1.8-.6-.7 0-1.4.5-2.1 1.2 0 .2-.1.2-.2.2z"/><path class="st25" d="M332.7 353.3s-4.1.8-4.1 2.9c0 2.1 4.5 1.2 6.1-.3 1.6-1.5-1-2.9-2-2.6zM346.5 351.4s-3.4-.5-3.7 1.5c-.3 2 3.5 2.5 5 1.5s-.5-2.9-1.3-3z"/><path class="st9" d="M342 348.4s-.6 2 .9 2.5c1.7.6 1.6-2.5 1.2-2.8-.3-.3-1.4-.4-2.1.3zM328.4 351.4c-.1 0-.1 0-.2-.1s-.1-.3 0-.4c.8-.9 1.6-1.3 2.5-1.4 1.2-.1 2.1.7 2.2.7.1.1.1.3 0 .4-.1.1-.3.1-.4 0 0 0-.8-.7-1.8-.6-.7 0-1.4.5-2.1 1.2-.1.2-.1.2-.2.2z"/><path class="st9" d="M330.1 350.4s-.6 2 .9 2.5c1.7.6 1.6-2.5 1.2-2.8-.4-.3-1.4-.4-2.1.3z"/><path class="st14" d="M341.6 357.2s1.3.3 2.6.7c1.3.4 3.9.7 4.5-.9.2-.7-1.8-7.6-1-7.3.9.4 3.4 8.1 3.6 9.7.2 1.6.1 6.5-2.2 9-2.2 2.5-3.3 3.6-5.7 4.2-2.1.5-11.2 1.5-14.6.1-5-2.1-6.8-7.6-7-8.6-.2-1-2.1-4.9-2.3-7.7-.2-2.8 0-8.8.7-8.6.7.2 2.3 8 4.5 11 1.3 1.7 4.1 2.7 5.9 2.3 1.9-.5 7.3-4 11-3.9z"/><path class="st16" d="M339.3 354s1.5.8 1.8 2.1c.3 1.3-.4 2.3-1.7 2.3-1.3 0-1.8-.6-1.8-.6l1.7-3.8z"/><path class="st9" d="M339.1 358.5c-.6 0-1.2-.2-1.9-.6-.1-.1-.2-.2-.1-.4.1-.1.2-.2.4-.1 1.6.9 2.7.4 3.2-.3.4-.6.4-1.4-.2-1.9-.6-.5-1-.9-1.4-1.5-.6-.9-1-2-1.4-3.4-.6-2.2-.5-3.8.2-4.8.4-.5.9-.9 1.6-.9 1.6-.2 4.7-.3 4.7-.3.2 0 .3.1.3.3 0 .2-.1.3-.3.3 0 0-3.1.1-4.7.3-.5.1-.9.3-1.2.7-.4.6-.7 1.8-.1 4.4.3 1.3.8 2.4 1.3 3.2.3.5.7.9 1.3 1.4.8.6.9 1.8.3 2.7-.4.4-1.1.9-2 .9z"/><path class="st14" d="M315.9 334.1s-1-6.6 8.5-10.2c8.2-3 18 .6 19.7 3.6s3 10.8-.2 11.7c-1.7.5-20.8 4.4-22.2 4.3-1.3-.1-4.5.2-5.7-1.7-4.3-6.8-.1-7.7-.1-7.7z"/><path class="st9" d="M342 383s1.3 2 0 2.9l22 88.2-4.5 8-11.7-1.7s-5.1-46.6-6-57.5c-1.4-16.7-2.5-36.3-2.5-36.3s-2.1-.9-2.1-2.4c.2-1.4 2.6-2.9 4.8-1.2z"/><path class="st14" d="M321.4 342.2s-.6 2.1-.6 4.2 1.5 4.4.4 4.8c-1.1.4-3.4-5.1-3.1-8 .2-2.8 3.2-2.3 3.3-1z"/><path class="st24" d="M325.3 377.5c-.9.2-.4 4.6-.3 5 .1.4 10.2 5.1 11 5 .8-.2 4.5-4 4.5-4s6.1 1.2 6.1-.1c.1-1.2-7-7.4-7.4-7.3-.4.2-.4 4.4-.4 4.4s-12.6-3.2-13.5-3z"/><path class="st16" d="M336 362.4s2 .9 4.3.5c2.2-.4 4.1-.5 4.8-1.7.7-1.2-1.4-2.3-2.4-2.1-.9.2-1.6.7-3.5.7-1.5 0-3.1-.4-3.5.5-.4.9-.4 1.7.3 2.1z"/><path class="st2" d="M437.2 638.8c-.2 0-.3-.2-.3-.3.1-.5 5.7-53.6 5.7-60.1v-10.9c0-.2 3.8-18.7-3.1-26.1-5.2-5.6-17.7-9.8-27.8-13.2-3.5-1.2-6.5-2.2-8.7-3.1-8.4-3.4-22.6-10.9-23.8-11.6-12.2 2.1-29.5 5.2-36.1 6.5 8-.8 29.4-3.5 29.6-3.5.2 0 .3.1.3.2 0 .2-.1.3-.2.3-1.2.2-30.3 3.9-32.5 3.7-.3 0-.3-.2-.3-.3 0-.3 0-.4 6.3-1.6 3.2-.6 7.8-1.5 13.4-2.5 9.7-1.7 19.5-3.4 19.6-3.4h.2c.2.1 15.1 8 23.8 11.6 2.3.9 5.2 1.9 8.7 3.1 10.1 3.4 22.7 7.6 28 13.3 3 3.2 4.5 8.6 4.4 16.2-.1 5.4-1 10-1.1 10.4v10.7c0 6.5-5.7 59.6-5.7 60.1-.1.4-.2.5-.4.5z"/><path class="st9" d="M338.8 361.5c-1.5 0-2.5-.2-2.5-.2-.1 0-.2-.2-.2-.3 0-.1.2-.2.3-.2 0 0 3.9.7 7.8-.7.1-.1.3 0 .4.2.1.1 0 .3-.2.4-2.1.6-4.1.8-5.6.8z"/><path class="st16" d="M345.2 376.7c-6.4 3.7-.1 15.1 4.5 22.7s27.7 53.2 35.3 54.4c7.6 1.2 18.1-4.1 18.1-11.7 0-21.9-49.3-70.4-57.9-65.4z"/><path class="st16" d="M334.3 365s4.1-.1 7.2 1.9c3.2 2 6.5 4.8 8.6 7 2.1 2.1 8.5 13.2 8.2 14-.3.9-7.2 3.6-8.7 3.7-1.5.1-6.5-7.8-6.5-7.8s-9.9-3.7-9.9-6.2 4.2-7.7 3.7-8.6c-.5-1-3.6-1.8-4.8-2.2-1-.4 0-1.8 2.2-1.8zM394.2 455.6s7-3.7 9.3-7.3c2.3-3.7 2.1-9.5 1.5-10.4-.6-.9-1.4 1.4-1.4 1.4s1-5.2-.9-6l-1.8-.8s-11.7 12.7-13.3 15.6c-1.7 2.9-3.9 9.9 6.6 7.5z"/><path class="st9" d="M382.9 466.4s-13.2 20.1-37.1 24.9c-23.9 4.8-37.2-11.9-38-18.3-.8-6.4 75.1-6.6 75.1-6.6z"/><path class="st16" d="M397.8 448c-6.9-6.7-65.4 9.4-65.4 9.4l-1-2.8c-3.3 1.9-14.1 7.7-27.7 8.4 2.1 10.1 6.4 18.1 14.4 21.2 31.6 12.2 86.6-29.4 79.7-36.2z"/><path class="st24" d="M309 393.1s-19.6 28.3-6.3 74.9c13.7-.7 28.2-10.6 31.5-12.5L309 393.1z"/><path class="st2" d="M399.3 570.4h-.1c-.1-.1-.2-.2-.1-.4 0 0 2.1-4.7 4.5-9.3 1.2-2.3 4.9-9.5 7-10 .3-.1.6 0 .8.2 2 1.6-1.8 8.6-4.2 12.5 3.8-4 11.8-11.9 14.9-10.7.5.2.6.5.7.8.4 2.9-13 13.3-16.9 16.2l16.6-2.4c.1 0 .3.1.3.2 0 .2-.1.3-.2.3l-17.6 2.5c-.1 0-.2-.1-.3-.2 0-.1 0-.3.1-.3 7.2-5.4 17.9-14.1 17.5-16.4 0-.1-.1-.2-.3-.3-3.1-1.1-12.9 8.9-16.4 12.8-.1.1-.3.1-.4 0-.1-.1-.1-.3-.1-.4 3.2-4.9 7.7-13 6-14.4-.1-.1-.2-.1-.3-.1-2.5.6-8.8 13.9-11.1 19-.2.4-.3.4-.4.4z"/><path class="st9" d="M317 473.8c-.2-.1-.3-.2-.3-.3.7-2.6 2.8-6.7 8.7-11.5 3.5-2.9 6.8-4.7 6.8-4.7.1-.1.3 0 .4.1.1.1 0 .3-.1.4-.1.1-12.9 7.2-15.3 15.9 0 0-.1.1-.2.1zM334.2 453c-.1 0-.2-.1-.3-.2-.2-.5-16.7-49.6-18.1-58.1 0-.2.1-.3.2-.3.2 0 .3.1.3.2 1.4 8.5 17.9 57.6 18.1 58 .1.2 0 .4-.2.4zM310 507.4s8.5 1.6 16.4.8c7.9-.8 22.1-2.5 35-5.9 12.9-3.4 26.2-9.3 26.2-9.3l1.3 5.2s-13.6 7.6-40.5 12c-26.9 4.3-37.8 1.7-37.8 1.7l-.6-4.5z"/><path class="st23" d="m331.6 515.4-1.4-8 5.4-.5 1.7 7.5zM373.8 497.9l2.9 7.9 4.6-1.6-3.3-7.7z"/><path class="st2" d="M446.1 551.9c-.1 0-.2-.1-.3-.2 0-.1 0-.3.2-.4 6-2.1 12.4-4.5 13.3-5.3-1.1-.3-7.2.7-12.9 1.8-.1 0-.3 0-.3-.2-.1-.1 0-.3.1-.3 3.2-2.4 8.3-6.6 8.2-7.8 0-.1 0-.1-.1-.2-.8-.4-4.6 1.1-11.7 6.8-.1.1-.3.1-.4 0-.1-.1-.1-.3 0-.4 1-.8 10-7.9 12.3-6.8.4.2.4.4.5.6.2 1.6-5 5.8-7.4 7.6 3.8-.7 11.5-2.1 12.3-1.4.1.1.1.2.1.4-.1.3-.2.8-7 3.4-3.4 1.2-6.7 2.3-6.9 2.4.1-.1.1 0 0 0z"/><path class="st9" d="M126 573.9c1 0 2-.5 2.6-1.4.9-1.4.5-3.3-.9-4.2-13.8-8.8-13.8-23.4-13.8-23.5 0-1.7-1.3-3-3-3.1-1.7 0-3 1.3-3 3 0 .7 0 18.1 16.6 28.7.4.3 1 .5 1.5.5zM213.8 559.4c1 0 2-.5 2.6-1.4.9-1.4.5-3.3-.9-4.2-13.8-8.8-13.8-23.4-13.8-23.5 0-1.7-1.3-3-3-3.1-1.7 0-3 1.3-3 3 0 .7 0 18.1 16.6 28.7.4.3.9.5 1.5.5z"/><path class="st9" d="M203.5 538.1c4-1.9 6.6-6 6.6-10.5 0-2.1-.1-4.6-.6-7.2-1.1-7.2-6.1-39.2-7.2-46.2-.2-1.3-.6-2.5-1.2-3.7-1.8-3.3-6.4-9.2-16.7-10.7-14.6-2.2-51-6.8-75.5 3.4-24.6 10.3-23.3 18.6-22.4 28.3.9 9.6 6.3 53.3 10.3 58.1 1.5 1.8 12.4-.3 28.3 3.6 14.7 3.6 50.7-1.8 78.4-15.1zM189.7 721l7.8-1.2-16.1-122.3c-1-6.7-5.9-12-12.4-13.7l-36.3-9.1c-4.5-1.1-9.3-.3-13.2 2.2-3.9 2.6-6.5 6.6-7.3 11.2L96.4 699.5l7.8 1.3 15.9-111.4c.4-2.4 1.8-4.5 3.8-5.9 2.1-1.4 4.5-1.8 6.9-1.2l36.3 9.1c3.4.9 6 3.7 6.5 7.2L189.7 721zM293 716.9l7.8-1.2-16.1-122.3c-1-6.7-5.9-12-12.4-13.7l-36.3-9.1c-4.5-1.1-9.3-.3-13.2 2.2-3.9 2.6-6.5 6.6-7.3 11.2l-15.9 111.4 7.8 1.3 15.9-111.4c.4-2.4 1.8-4.5 3.8-5.9 2.1-1.4 4.5-1.8 6.9-1.2l36.3 9.1c3.4.9 6 3.7 6.5 7.2L293 716.9z"/><path class="st9" d="M167.2 563.8c6.2.2 12.4-.5 18.4-1.9 16.5-4.1 28.3-9.8 44.3-5.8 19.2 4.8 50.3 7.2 51.6 25.3 1.3 18.1-38.1 23.4-56.4 23.3-18.3-.1-43.9-8.2-60.2-12.6-16.3-4.4-52.6-13.2-53.8-19.5-1.3-6.3 1.9-11.4 9.9-10.6 5.9.5 32.7 1.4 46.2 1.8zM503.4 395.1s.1 0 .4.1c1.3.2 5.3 1 6.5 3.1 1.4 2.5 0 5.1 0 5.1s4.5.3 6.5 4-8 10.3-8 10.3 3.8.7 2.5 4.8c-1.2 4.1-10.8 13.9-31.3 8.5-20.6-5.5-20-12.8-20-12.8s-11.4-2.9-8.5-12.9c2.9-9.9 30.6-13.7 38.9-13.2 8.3.5 13 3 13 3z"/><path class="st2" d="M505.3 450.4s36.4 58.3 35.4 70.2c-1.1 11.9-13.7 17.7-28.2 13.6-14.4-4.1-9.1-79.2-7.2-83.8z"/><path class="st24" d="M496.5 431c-.9 0-1.9-.2-2.9-.6-3.5-1.3-5.8-4-6-7.2-.2-3.1 1.5-6 4.4-7.7.3-.1.6-.1.8.2.1.3.1.6-.2.8-2.6 1.4-4.1 4-3.9 6.6.2 2.7 2.2 5.1 5.3 6.2 3.6 1.3 6.4-.4 7.9-2.4 1.6-2.1 2.3-5.5.2-8.1-3.7-4.8-6.8-3.4-6.9-3.3-.3.1-.6 0-.7-.3-.1-.3 0-.6.2-.7.2-.1 4-1.9 8.3 3.6 1.7 2.2 2.3 6-.2 9.4-1.4 1.9-3.6 3.5-6.3 3.5z"/><path class="st9" d="M420.2 586.9c1 0 2-.5 2.6-1.4.9-1.4.5-3.3-.9-4.2-13.8-8.8-13.8-23.4-13.8-23.5 0-1.7-1.3-3-3-3.1-1.7 0-3 1.3-3 3 0 .7 0 18.1 16.6 28.7.3.3.9.5 1.5.5zM507.9 572.4c1 0 2-.5 2.6-1.4.9-1.4.5-3.3-.9-4.2-13.8-8.8-13.8-23.4-13.8-23.5 0-1.7-1.3-3-3-3.1-1.7 0-3 1.3-3 3 0 .7 0 18.1 16.6 28.7.4.4 1 .5 1.5.5z"/><path class="st9" d="M497.7 551.1c4-1.9 6.6-6 6.6-10.5 0-2.1-.1-4.6-.6-7.2-1.1-7.2-6.1-39.2-7.2-46.2-.2-1.3-.6-2.5-1.2-3.7-1.8-3.3-6.4-9.2-16.7-10.7-14.6-2.2-51-6.8-75.5 3.4-24.6 10.3-23.3 18.6-22.4 28.3.9 9.6 6.3 53.3 10.3 58.1 1.5 1.8 12.4-.3 28.3 3.6 14.6 3.6 50.6-1.8 78.4-15.1zM483.8 734l7.8-1.2-16.1-122.3c-1-6.7-5.9-12-12.4-13.7l-36.3-9.1c-4.5-1.1-9.3-.3-13.2 2.2-3.9 2.6-6.5 6.6-7.3 11.2l-15.9 111.4 7.8 1.3 15.9-111.4c.4-2.4 1.8-4.5 3.8-5.9 2.1-1.4 4.5-1.8 6.9-1.2l36.3 9.1c3.4.9 6 3.7 6.5 7.2L483.8 734zM587.1 729.9l7.8-1.2-16.1-122.3c-1-6.7-5.9-12-12.4-13.7l-36.3-9.1c-4.5-1.1-9.3-.3-13.2 2.2-3.9 2.6-6.5 6.6-7.3 11.2l-15.9 111.4 7.8 1.3 15.9-111.4c.4-2.4 1.8-4.5 3.8-5.9 2.1-1.4 4.5-1.8 6.9-1.2l36.3 9.1c3.4.9 6 3.7 6.5 7.2l16.2 122.4z"/><path class="st9" d="M461.4 576.8c6.2.2 12.4-.5 18.4-1.9 16.5-4.1 28.3-9.8 44.3-5.8 19.2 4.8 50.3 7.2 51.6 25.3 1.3 18.1-38.1 23.4-56.4 23.3-18.3-.1-43.9-8.2-60.2-12.6-16.3-4.4-52.6-13.2-53.8-19.5-1.3-6.3 1.9-11.4 9.9-10.6 5.8.5 32.6 1.4 46.2 1.8z"/><path class="st23" d="M461.2 574.1s.1 3.4.9 7.4c1.1 5.5 5 10.1 10.3 12.2 3.9 1.5 83.7 15.4 83.7 15.4s-9.6 29.9-11.2 40.2c-2.6 16.7-1.7 64.3-1.7 64.3s11.6 8.6 14.3 1.6c1.4-3.7 4.3-16.6 8.7-33.5 8.4-32.2 18.4-78.2 17.8-82.8-1.6-11.9-2-16.5-21.3-23.2-8.5-3-47.7-22.4-59.1-21.5-14.2 1.1-42.4 19.9-42.4 19.9z"/><path class="st23" d="M439 554.1s-4.1 21.2-3.9 25.2c.2 5.6.6 12.3 5.5 15.2 35.3 20.5 80.1 17.1 80.1 17.1s-5.6 23.4-5.6 54.3c0 12.8 2.8 47.6 2.8 47.6s14.1 7.3 14.5 4.8c2.2-13.8 38-119 20.2-128.9-7.9-4.4-49.1-34.3-60.5-35.4-14.2-1.3-53.1.1-53.1.1z"/><path class="st2" d="M510.6 523.3c-1.8-9.7-3-20-2.2-27.7.9-9 9.5-23.8-3-45.3-6.1-10.4-32.4-23.5-49.1-6.1-16.6 17.3-16.8 44.3-19.1 78.8 0 .2 0 .5-.1.7 27.7 6.1 63 1.3 73.5-.4z"/><path class="st1" d="M516.8 551.4c.2-.1-3.6-13.3-6.2-28-10.5 1.7-45.8 6.5-73.5.5-2.4 34.3-10.7 56-1.2 69.7 7.2 10.4 45.3 17.4 59.8 18.2 14.6.8 24.1 0 24.1 0s4.2-8.4 19.3-18.2c15.1-9.8 36.7-12 36.7-12-3.2-5.6-49.2-26.8-59-30.2z"/><path class="st23" d="M488.9 439.9c-.1-.5-3.1-5-3.5-7.2-.3-1.9-.6-4.7-.6-8.9 0-8.3-10.1-6.8-10.1-6.8s1.3 6.6.1 12.4c-.3 1.4-2 7.1-2.5 8.1 0 0 5.3 7.1 13 4.7 2.6-.7 3.6-2.3 3.6-2.3z"/><path class="st9" d="M484.7 424.1c0 2.9.2 5.1.4 6.8-5.4-1-8.1-9-8.1-9l7.7 2.2zM560.8 709.7s-1.7 11.9 1.9 17.7c3.6 5.8 7.9 8.2 11.2 9.5 3.3 1.3 7.6 2.2 8.2 4.6.7 2.4-11.5 3.5-15.3 3.9-3.8.4-8.1-.7-10.2-1.8-2.2-1.1-6.6-2.1-6.6-2.1l-.2 2.7-9.7-1.8-.3-5.3s-.8-4.6.1-7.8 1.3-2.9 2.2-6.9c1-4 0-14.3 0-14.3s15 .1 18.7 1.6z"/><path class="st23" d="M474 416.5s-1.7.5-3.5-.8c-1.4-1-1.9-4.7-.9-6 1.1-1.3 2.6-1.5 2.9-1.6.3-.1-1-8 .6-12.1 1.5-4.2 2.3-6.1 8.7-6.5 6.4-.4 10 2.7 12.4 5.1 2.4 2.4 3.3 7.9 3.9 10.5.6 2.6 1.3 3.3 1.9 4.6 1.5 3.1 2.3 5.4 1.8 9.2-.5 3.8-3.9 8-10.1 8.7-6.1.6-14.3-1.7-17.7-11.1z"/><path class="st9" d="M490.5 414.2c-.9 0-1.6-.3-1.9-1.1-.1-.1 0-.3.2-.4.1-.1.3 0 .4.2.3.8 1 .9 3 .6.7-.1 1.1-.3 1.2-.5.1-.3-.2-.9-1-1.9-1.5-1.9-2.1-4.6-2.3-5.7 0-.2-.1-.4-.1-.6-.1-.6-.3-1.2-.3-2 0-.1.1-1.4 2.5-1.8.6-.1 3.8-.7 4.7-.2.1.1.2.2.1.4-.1.1-.2.2-.4.1-.5-.3-2.9 0-4.3.3-1.9.3-2 1.2-2 1.2 0 .7.1 1.3.3 1.9.1.2.1.4.1.7.2.8.8 3.6 2.2 5.4 1 1.2 1.3 1.9 1.1 2.5-.2.6-1 .8-1.6.9-.8-.1-1.4 0-1.9 0zM480.1 405c-.1 0-.2 0-.2-.1-.1-.1-.1-.3.1-.4.1-.1 3.1-2.3 6-2.6.2 0 .3.1.3.2 0 .2-.1.3-.2.3-2.7.3-5.7 2.5-5.8 2.5-.1 0-.2.1-.2.1z"/><path class="st9" d="M496 405s.5 1 .1 1.9c-.3.9-1.2.4-1.5.1-.3-.3-.6-1.5-.6-1.7.1-.7 1.4-1.7 2-.3z"/><path class="st9" d="M492.6 406h-.2c-.1-.1-.2-.3-.1-.4 0-.1 1-1.5 2.3-1.7 1.1-.2 1.8.6 2.1 1 .1.1 0 .3-.1.4-.1.1-.3 0-.4-.1 0 0-.5-.9-1.5-.7-1.1.2-2 1.5-2 1.5 0-.1-.1 0-.1 0zM485.6 406.6s.5 1 .1 1.9c-.4.9-1.3.5-1.6.1-.3-.3-.6-1.5-.6-1.7 0-.6 1.5-1.7 2.1-.3z"/><path class="st9" d="M482.2 407.6h-.2c-.1-.1-.2-.3-.1-.4 0-.1 1-1.5 2.3-1.7 1.1-.2 1.8.6 2.1 1 .1.1 0 .3-.1.4-.1.1-.3 0-.4-.1 0 0-.5-.9-1.5-.7-1.1.2-2 1.5-2 1.5h-.1z"/><path class="st14" d="M485.2 410.9s-4.5.2-5 2.1c-.6 2 4.4 1.7 6.5.6 2.1-1.2-.4-2.8-1.5-2.7zM498.9 408.7s-3.8.2-4.2 1.8c-.5 1.6 3.7 1.4 5.4.4 1.7-1-.3-2.3-1.2-2.2z"/><path class="st23" d="M474.2 435.9s-2.5-.2-2.1 3.2c.3 2.1 22.2 25.7 22.2 25.7s-3.7-22.6-5.4-24.9c-1.8-2.2-14.7-4-14.7-4z"/><path class="st9" d="M543.7 677.2c-.2 0-.3-.2-.3-.3 0-.1 3-11.2 6.5-25.2 1.2-4.7 11.5-46.4 10.1-54.3-1.2-6.9-6.4-10.5-6.4-10.6-.1-.1-.2-.3-.1-.4.1-.1.3-.2.4-.1.1 0 5.4 3.9 6.7 10.9.5 3.1-.6 11.4-3.3 24.7-2.5 12.3-5.6 25-6.8 29.8-3.5 13.9-6.4 25.1-6.5 25.2 0 .2-.1.3-.3.3z"/><path class="st2" d="M487.2 416.1s6.3.1 10-1.6c0 0-.8 4-4.4 4.8-3.7.6-5.6-3.2-5.6-3.2z"/><path class="st9" d="M482.2 397.8s4.2 1.9 9.1 1.8c4.9-.2 4.7-2.2 4.7-2.2s5.7 2.1 9.4-2c3.8-4.2 1.3-8.9 0-10.5-1.3-1.7-4.2-1.4-4.2-1.4s-1.2-6.8-9.5-7.8c-8.4-1-14.7 5.2-14.7 5.2s-4-1.4-7.5.5-1.8 7.7-1.8 7.7-7.9 3-7.5 9.2c.3 6.2 9.3 11.3 13.7 9.7 4.3-1.7 8.3-10.2 8.3-10.2z"/><defs><path id="SVGID_3_" d="M516.8 551.4c.2-.1-3.6-13.3-6.2-28-10.5 1.7-45.8 6.5-73.5.5-2.4 34.3-10.7 56-1.2 69.7 7.2 10.4 45.3 17.4 59.8 18.2 14.6.8 24.1 0 24.1 0s4.2-8.4 19.3-18.2c15.1-9.8 36.7-12 36.7-12-3.2-5.6-49.2-26.8-59-30.2z"/></defs><clipPath id="SVGID_4_"><use xlink:href="#SVGID_3_" style="overflow:visible"/></clipPath><g style="clip-path:url(#SVGID_4_)"><path class="st4" d="M445.3 605.7s-.2-11 10.2-19c10.4-8.1 30.5-8 30.5-8s-11 20.5-23 25.4c-12 4.8-17.7 1.6-17.7 1.6z"/><path class="st27" d="M445.8 606c-.1 0-.2 0-.3-.1-.2-.2-.2-.4 0-.6.4-.4 9.4-9.7 15.1-13 5.6-3.2 23.1-13.1 23.3-13.2.2-.1.4 0 .6.2.1.2 0 .4-.2.6-.2.1-17.7 10-23.3 13.2-5.5 3.2-14.8 12.7-14.9 12.8 0 0-.2.1-.3.1z"/><path class="st27" d="M464.2 602.1h-.1l-11.3-3.1-.5-7.8c0-.2.2-.4.4-.4s.4.2.4.4l.4 7.2 10.8 3c.2.1.3.3.3.5-.1.1-.3.2-.4.2zM473.9 593.9l-11.9-1.7.8-7.5c0-.2.2-.4.4-.4s.4.2.4.4l-.7 6.7L474 593c.2 0 .4.2.3.5 0 .2-.2.4-.4.4zM480.1 587l-7.5-.9.5-4.9c0-.2.2-.4.4-.4s.4.2.4.4l-.4 4.1 6.6.8c.2 0 .4.2.4.4 0 .3-.2.5-.4.5z"/><path class="st4" d="M557.8 550s1.7 10.8-7.5 20.3-29.1 12.2-29.1 12.2 8-21.9 19.2-28.4 17.4-4.1 17.4-4.1z"/><path class="st27" d="M557.2 549.7c.1 0 .2 0 .3.1.2.1.2.4.1.6-.3.4-8 10.9-13.1 14.9s-21.1 16.2-21.2 16.4c-.2.1-.4.1-.6-.1-.1-.2-.1-.4.1-.6.2-.1 16.1-12.4 21.2-16.4 5-4 12.9-14.7 13-14.8 0 0 .1 0 .2-.1z"/><path class="st28" d="M539.6 556.1h.1l11.7 1.5 1.5 7.6c0 .2-.1.4-.3.5-.2 0-.4-.1-.5-.3l-1.4-7.1-11.1-1.5c-.2 0-.4-.2-.3-.5 0 0 .1-.2.3-.2z"/><path class="st27" d="M531.1 565.7s.1 0 0 0h12.1l.3 7.5c0 .2-.2.4-.4.4s-.4-.2-.4-.4l-.2-6.7h-11.2c-.2 0-.4-.2-.4-.4-.1-.3 0-.4.2-.4zM525.9 573.4c.1 0 .1 0 0 0l7.5-.2.2 4.9c0 .2-.2.4-.4.4s-.4-.2-.4-.4l-.1-4.1-6.7.1c-.2 0-.4-.2-.4-.4 0-.1.1-.3.3-.3z"/><path class="st4" d="M451.5 515.5s11-.2 19.1 10.2c8.1 10.4 8.1 30.5 8.1 30.5s-20.6-10.9-25.5-22.9c-4.9-12.1-1.7-17.8-1.7-17.8z"/><path class="st27" d="M451.2 516c0-.1 0-.2.1-.3.2-.2.4-.2.6 0 .4.4 9.7 9.4 13 15 3.3 5.6 13.2 23.1 13.3 23.3.1.2 0 .4-.2.6-.2.1-.4 0-.6-.2-.1-.2-10.1-17.7-13.3-23.2-3.2-5.5-12.8-14.8-12.9-14.9v-.3z"/><path class="st28" d="M455.1 534.3v-.1l3.1-11.3 7.8-.5c.2 0 .4.2.4.4s-.2.4-.4.4l-7.2.4-2.9 10.8c-.1.2-.3.3-.5.3s-.3-.2-.3-.4z"/><path class="st27" d="m463.4 544 1.7-12 7.5.7c.2 0 .4.2.4.4s-.2.4-.4.4l-6.7-.7-1.6 11.1c0 .2-.2.4-.5.3-.2.2-.4 0-.4-.2z"/><path class="st28" d="m470.3 550.2.9-7.5 4.9.5c.2 0 .4.2.4.4s-.2.4-.4.4l-4.1-.4-.8 6.6c0 .2-.2.4-.4.4-.3 0-.5-.2-.5-.4z"/><path class="st4" d="M496.4 550s-1.2-10.9 8.5-19.9c9.6-9 29.7-10.7 29.7-10.7s-9.1 21.4-20.6 27.4c-11.6 5.9-17.6 3.2-17.6 3.2z"/><path class="st27" d="M496.9 550.2c-.1 0-.2 0-.3-.1-.2-.1-.2-.4-.1-.6.3-.4 8.5-10.5 13.8-14.3 5.3-3.7 21.8-15.2 22-15.3.2-.1.4-.1.6.1.1.2.1.4-.1.6-.2.1-16.7 11.5-22 15.3-5.2 3.7-13.6 14-13.7 14.1 0 .2-.1.2-.2.2z"/><path class="st27" d="M514.8 544.7h-.1l-11.6-2.1-1.2-7.7c0-.2.1-.4.3-.5.2 0 .4.1.5.3l1.1 7.1 11 2c.2 0 .4.3.3.5 0 .3-.1.4-.3.4zM523.8 535.6s-.1 0 0 0l-12.1-.6.1-7.5c0-.2.2-.4.4-.4s.4.2.4.4l-.1 6.7 11.2.6c.2 0 .4.2.4.4s-.1.4-.3.4z"/><path class="st28" d="m529.3 528.2-7.5-.2.1-4.9c0-.2.2-.4.4-.4s.4.2.4.4l-.1 4.1 6.7.2c.2 0 .4.2.4.4s-.2.4-.4.4z"/><path class="st4" d="M510.9 606.4s-8.9-2.5-12.9-13c-4-10.4 1.1-26.6 1.1-26.6s13.9 13.9 14.9 24.8c.9 11-3.1 14.8-3.1 14.8z"/><path class="st27" d="M511.3 606c0 .1-.1.2-.2.2-.2.1-.4 0-.5-.1-.2-.4-5.5-10-6.8-15.4-1.2-5.3-4.9-21.9-5-22.1 0-.2.1-.4.3-.4.2 0 .4.1.4.3 0 .2 3.7 16.8 5 22.1 1.2 5.3 6.6 15.1 6.7 15.2.1.1.1.2.1.2z"/><path class="st27" d="M512.6 590.3s0 .1 0 0l-5.4 8.5-6.4-1.5c-.2 0-.3-.2-.3-.4s.2-.3.4-.3l5.9 1.4 5.1-8c.1-.2.3-.2.5-.1s.3.3.2.4zM508.4 580.4l-4.3 9.2-5.8-2.5c-.2-.1-.3-.3-.2-.4.1-.2.3-.3.4-.2l5.2 2.2 4-8.6c.1-.2.3-.2.5-.2.1.2.2.3.2.5z"/><path class="st28" d="m504.3 573.7-2.6 5.8-3.8-1.6c-.2-.1-.3-.3-.2-.4.1-.2.3-.3.4-.2l3.2 1.4 2.3-5.2c.1-.2.3-.3.4-.2.3 0 .4.2.3.4z"/><path class="st4" d="M444.8 586.3s-7.4-5.5-7.5-16.6c-.1-11.1 10.3-24.6 10.3-24.6s8.1 17.9 5.2 28.5c-2.8 10.6-8 12.7-8 12.7z"/><path class="st27" d="M445.3 586.1c-.1.1-.1.1-.2.1-.2 0-.4-.1-.4-.3-.1-.5-1.6-11.3-.9-16.8.7-5.4 3.1-22.3 3.1-22.4 0-.2.2-.3.4-.3s.3.2.3.4-2.4 17-3.1 22.4c-.7 5.4.9 16.5.9 16.6 0 .2 0 .3-.1.3z"/><path class="st27" d="M452.2 571.9c-.1 0-.1 0 0 0l-8 6-5.4-3.7c-.2-.1-.2-.3-.1-.5s.3-.2.5-.1l5 3.4 7.5-5.7c.2-.1.4-.1.5.1v.5zM451.6 561.1l-7.3 7.1-4.6-4.4c-.1-.1-.1-.3 0-.5.1-.1.3-.1.5 0l4.1 3.9 6.8-6.6c.1-.1.4-.1.5 0 .1.2.1.4 0 .5z"/><path class="st28" d="m450.2 553.4-4.4 4.6-3-2.8c-.1-.1-.1-.3 0-.5.1-.1.3-.1.5 0l2.5 2.4 3.9-4c.1-.1.3-.1.5 0 .1 0 .1.2 0 .3z"/></g><path class="st2" d="M455.4 445.2s-8.8 3.5-16.3 17.8c-7.1 13.6-15.1 31.1-15.9 52.3-1.6 42.8 49.7 67.3 66.5 61.5 3.7-1.3 8-4.7 5.7-9.5-7.9-16.8-45.2-48.8-45.5-50.7-1-5.4 5.5-71.4 5.5-71.4z"/><path class="st23" d="M491.5 563.8s12.1 1.4 15 3.4c2.8 2 7.5 5.9 7.1 7.1-.4 1.2-6.7-3.3-6.7-3.3s7 6.8 6.7 7.7c-.3.9-1.2.5-1.2.5s.9 1.4.4 2c-.5.6-6.7-2.9-6.7-2.9s4.5 4.1 3.5 4.8c-1 .7-10.8-5.1-10.8-5.1s-9.6-1.3-10.6-5.3c-1.1-4 .5-9.3 3.3-8.9z"/><path class="st2" d="M514.8 507.3s23.1-57.7 33.4-57 13.2 12.5 13.5 18.2c.3 5.7-17.2 61.2-30.5 65-13.3 3.9-20-16-16.4-26.2z"/><path class="st24" d="M474 431c-.9 0-1.9-.2-2.9-.6-3.5-1.3-5.8-4-6-7.2-.2-3.1 1.5-6 4.4-7.7.3-.1.6-.1.8.2.1.3.1.6-.2.8-2.6 1.4-4.1 4-3.9 6.6.2 2.7 2.2 5.1 5.3 6.2 3.6 1.3 6.4-.4 7.9-2.4 1.6-2.1 2.3-5.5.2-8.1-3.7-4.8-6.8-3.4-6.9-3.3-.3.1-.6 0-.7-.3-.1-.3 0-.6.2-.7.2-.1 4-1.9 8.3 3.6 1.7 2.2 2.3 6-.2 9.4-1.3 1.9-3.5 3.5-6.3 3.5z"/><path class="st23" d="M560.4 445.5s2.2-6.2 3.8-10.6c1.2-3.1-6.8 2.7-7.1 4.8-.2 2.1 1.1 8.4 3.3 5.8z"/><path class="st9" d="m564.6 429.2-7.7-4.2c-1.2-.6-2.7-.2-3.3 1l-9.4 17.2c-.6 1.2-.2 2.7 1 3.3l7.7 4.2c1.2.6 2.7.2 3.3-1l9.4-17.2c.6-1.1.2-2.7-1-3.3z"/><path class="st23" d="M558 450.9c1.4-2.4 2.7-5.3 2.6-6.8-.1-1.5-1.7-4.7-2.4-5.4-.6-.8-4-6.4-4.5-6.9s-1.3-3.5-2.3-3.2c-1 .4.4 8 .4 8s-1.9-2.6-3.2-2.3c-1.3.2-1.3 2.4-1.3 2.4s-1.8.8-1.5 1.7l.3.9s-1.2.1-.8 1.4c.3 1.3 2.9 6.6 2.9 8 0 1.4-1.6 7.2-1.6 7.2s4.5 3.2 9.5 3c.2-3.2 1.4-7.1 1.9-8z"/><path class="st2" d="m558.5 427.4-2.5-1.3c-.3-.2-.7 0-.9.3-.2.3 0 .7.3.9l2.5 1.3c.3.2.7 0 .9-.3.2-.4 0-.8-.3-.9z"/><path class="st9" d="M537.8 709s-4.2 13.7-1.6 20.2c2.7 6.5 5.7 7.5 9.1 8.5 3.4 1.1 7.9 1.6 8.8 4 .9 2.4-12.8 6.5-16.7 6.3-3.9-.2-8-2.1-10-3.5s-6.3-3.2-6.3-3.2l-.7 2.6-9.5-3.4.6-5.4s-.1-4.8 1.4-7.8c1.4-3 1.8-2.7 3.4-6.6 1.7-3.9.9-15.8.9-15.8s17.1 2 20.6 4.1zM514.3 522.2c-.1 0-.2 0-.3-.1-1.3-.5-1.6-5.7-.2-11.5 1.7-7.2 10.9-26.6 11-26.8.1-.1.2-.2.4-.1.1.1.2.2.1.4s-9.3 19.6-11 26.7c-1.5 6.1-.8 10.5-.1 10.8.1 0 .3-.1.5-.4.9-1.5 1.7-7.2 2.3-11.8.4-2.8.7-5.3 1-6.5 0-.1.2-.2.3-.2.1 0 .2.2.2.3-.3 1.1-.6 3.6-1 6.4-.6 4.9-1.3 10.5-2.3 12.1-.3.5-.7.7-.9.7zM510.5 523s-.1 0 0 0c-.2 0-.3-.2-.3-.3.5-2.6-.1-6.3-.8-10.3-.7-4.3-1.6-9.2-1.1-13.8.5-4.4 1.7-7.2 2.8-9.9 1.1-2.6 2.2-5.1 2.4-8.8.4-7.5-4.5-20.9-4.5-21-.1-.1 0-.3.2-.4.1-.1.3 0 .4.2.1.1 5 13.6 4.6 21.2-.2 3.8-1.3 6.3-2.4 9-1.1 2.7-2.3 5.5-2.8 9.8-.5 4.5.4 9.3 1.1 13.6.7 4.2 1.3 7.8.8 10.5-.2.1-.3.2-.4.2zM436.6 532.7h-.4c-.6-.1-.9-.4-.9-.7-.6-2 6.1-7.8 12.3-13 .1-.1.2-.2.4-.3-.4.3-.8.5-1.3.8-5.7 3.6-11.5 7.1-13.2 7.1-.3 0-.5-.2-.5-.3-.2-.6 1.2-1.5 6.4-5.1 4.6-3.1 11.5-7.7 11.5-9.2 0-1.2.6-4 1.3-7.6 1.1-5.5 2.6-13 3-19 .6-9.8.7-32.8.7-33.1 0-.2.1-.3.3-.3.2 0 .3.1.3.3 0 .2-.1 23.3-.7 33.1-.4 6-1.9 13.6-3 19.1-.7 3.6-1.3 6.4-1.3 7.5 0 1.6-5.1 5.2-11.8 9.6-2.5 1.7-5.4 3.6-6.1 4.3 2-.3 8.6-4.5 12.7-7 2.6-1.6 3.5-2.2 3.7-2.2h.2l.1.2c.1.3.1.3-2.5 2.4-3.8 3.2-12.6 10.7-12.1 12.5 0 .1.1.2.5.3 2.9.4 8.5-5.8 12.2-9.9 2.7-3 3.7-4 4.2-4 .1 0 .2.1.3.1.8 1 6.7 7.8 6.8 7.8.1.1.1.3 0 .4-.1.1-.3.1-.4 0-.1-.1-5.7-6.6-6.7-7.8-.5.2-2.1 2-3.7 3.8-3.9 4.4-9.1 10.2-12.3 10.2zM472.1 525.1c-.1 0-.2-.1-.3-.2-.4-1.1-4-10.7-3-12.7.1-.2.3-.4.5-.5.6-.2 1.7.1 3.9 5.3 1.2 2.7 2.1 5.6 2.2 5.6 0 .1 0 .3-.2.3-.1 0-.3 0-.3-.2-1.8-5.4-4.4-10.9-5.4-10.6 0 0-.1 0-.2.2-.8 1.6 1.9 9.4 3 12.3.1.2 0 .4-.2.5 0-.1 0 0 0 0zM487.3 523.6c-.1 0-.2-.1-.3-.2-.1-.2-.1-.8.1-3.3.1-2.1.3-5.1.3-7.4-.1-3.7-.7-4-.9-4-.1 0-.2 0-.3.1-1.3 1.2-1.3 9.2-1.2 12.2 0 .2-.1.3-.3.3-.2 0-.3-.1-.3-.3 0-1.1-.4-11 1.3-12.6.2-.2.5-.3.7-.3 1.6.1 1.6 4.5 1.1 12.1 0 .7-.1 1.3-.1 1.9.2-.6.5-1.5.8-2.3 1.6-4.9 3-9 4.1-9.5.1-.1.3 0 .4.1.1.1 0 .3-.1.4-1 .5-2.8 6.2-3.8 9.2-1.1 3.5-1.2 3.6-1.5 3.6z"/><path class="st29" d="M208.7 405s1.9 5.6 1.3 12.3c-.6 6.7-4.9 12.5-2.7 17.4 2.1 4.9 10 11.9 10.7 20 .7 8.1-7 11.4-3.5 17.4s7.2 22.6-9.3 27.2c-16.5 4.5-34.9-1.4-45.4-7.9-10.5-6.4-17.7-19.9-14.9-28.7 2.9-8.7 7.5-19.2 11.9-26 4.4-6.8.1-10.4 1.9-18.4 1.8-8 8.3-14.2 9.9-18.5 1.7-4.3 31.4-8.3 40.1 5.2z"/><path class="st16" d="M206.2 482.1s59.2 20.1 59 29.4c-.2 9.3-28 12.4-46.4 5.5s-12.6-34.9-12.6-34.9zM299.9 603c3.8 20.1.1 38.5-.9 54.7-2.1 31.7-3.9 40.7-10 45.2-5 3.7-7.3-5.2-10.4-20.5-3.6-17.1-7.9-42.4-11.7-67.8 18.7.6 28.2-8 33-11.6z"/><path class="st16" d="M279.9 709.3s1.8-4.4 1.9-4.6c.6-3.9-1.7-15.3-1.7-15.3l16.2-3.2s-2 13.9-.6 15.6c3.7 4.2 22.2 5.1 24.7 10.9 1.7 3.9-12.2 5.3-19.9 5.7-7.7.4-18.1 2.4-20.8-.5-2.6-3 .2-8.6.2-8.6z"/><path class="st9" d="M295.4 716.8c1.1-1-1.7-10.9.1-12.9.7-.8 1.9-1.6 2.7-1.7 6.1 2.9 19.9 5.5 22.1 10.6 1.7 3.9-12.2 5.3-19.9 5.7-7.2.3-16.7 2.2-20.1 0 4.8.1 14.2-.8 15.1-1.7zM280.8 702.3l14.7-.8s.8-3.9 0-4.1c-.8-.1-14.5-.4-14.7.6-.1 1.1 0 4.3 0 4.3z"/><path class="st29" d="M184.8 383.6s-6.7.4-11.5 3.6-4.2 10.3-6.1 13.1c-1.9 2.8 4.7 29.1 7.5 30.9 2.9 1.8 16.3 5.6 20 5.4 3.7-.2 13.6-26.2 14-29.2.4-3-1.4-7.8-4.6-10.6-3.2-2.9-10-11.6-19.3-13.2z"/><path class="st15" d="M205.7 517.9s83 23.7 90.5 39c2.4 4.8 8.4 31.9 8.1 54.7-5.4 2.5-27.3 9.3-45.5 5.1-1.7-20.2-11.7-39.7-11.7-39.7s-74.3-5.8-72.9-24.9c1.5-19.3 31.5-34.2 31.5-34.2z"/><path class="st16" d="M268.9 607.7c3.8 20.1.1 38.5-.9 54.7-2.1 31.7-3.9 40.7-10 45.2-5 3.7-7.3-5.2-10.4-20.5-3.6-17.1-7.9-42.4-11.7-67.8 18.7.6 28.2-8 33-11.6z"/><path class="st15" d="M181.1 522s83 23.7 90.5 39c2.4 4.8 3.4 22.9 3.1 45.6-5.4 2.5-29.9 26.9-48.2 22.7-1.7-20.2-4-48.3-4-48.3s-74.3-5.8-72.9-24.9c1.5-19.2 31.5-34.1 31.5-34.1z"/><path class="st20" d="M205.7 440.7c-8.4-11.1-36.3-16-45.2 4.7-19.3 44.8-13.2 103.5-13.2 103.5s-7.7 30.6 9.5 26.2c6.7-1.7 25.6-28.1 49.9-39.3 20.5-9.4 23.3-8.1 23.2-10.4-.2-5-10.6-21.8-16.2-35.2-5.8-14-1-40.3-8-49.5z"/><path class="st16" d="M189.4 446.1s1-6.4 1.2-8.4c-1-1.4-2.7-5.4-2.4-12.2.3-6.2-8.5-6.8-8.5-6.8s1.4 8.3-3.5 13.7c1.3 2.1 13.2 13.7 13.2 13.7z"/><path class="st9" d="M188.2 428.9c-.1-1-.1-2.2 0-3.4v-.8l-7.7-2.2s1.5 4.4 5.6 5.9c.7.2 1.4.4 2.1.5zM165.3 458.9l-14.5 18.9c-1.7 8.6-2.8 17.2-3.4 25.1 1.6-1.4 3.7-3.6 6.4-7 7.5-9.5 11.5-37 11.5-37zM274.7 606.9c-.1 0-.2-.1-.3-.2-.1-.1 0-.3.1-.4 0 0 1.2-.5 2.3-1.5 1.4-1.3 2-2.8 1.8-4.4-.2-1.5-.8-3.4-1.6-5.5-1.2-3.8-2.8-8.4-3-13.2-.3-7.4-2.8-20.5-2.8-20.7 0-.1.1-.3.2-.3.2 0 .3.1.3.2s2.5 13.3 2.8 20.7c.2 4.7 1.7 9.3 2.9 13.1.7 2.2 1.4 4.1 1.6 5.6.3 1.8-.4 3.4-2 4.9-1.1 1.1-2.3 1.6-2.4 1.6.2.1.2.1.1.1zM222.5 581.3c-.1 0-.1 0-.2-.1s-.1-.3 0-.4c1.3-1.6 13.3-16 16.3-16.1.3 0 .5.1.6.3 1.3 1.5-3.6 6.3-9.3 11.4-.7.6-1.3 1.2-1.8 1.7 2.9-1.4 11.5-5.9 17.4-9.1.1-.1.3 0 .4.1.1.1 0 .3-.1.4-4.2 2.2-17.8 9.5-18.6 9.5-.1 0-.2-.1-.3-.2-.1-.3 0-.4 2.7-2.8 1.9-1.7 4.5-4.1 6.5-6.3 3-3.3 2.9-4.2 2.7-4.4 0 0-.1-.1-.2-.1-2.4 0-12.3 11.5-15.9 15.9 0 .1-.1.2-.2.2zM227.8 581.3c-.1 0-.2-.1-.3-.2 0-.2.1-.3.2-.3l19.8-3.3c.2 0 .3.1.3.2 0 .2-.1.3-.2.3l-19.8 3.3z"/><path class="st16" d="M248.9 714s1.8-4.4 1.9-4.6c.6-3.9-1.7-15.3-1.7-15.3l16.2-3.2s-2 13.9-.6 15.6c3.7 4.2 22.2 5.1 24.7 10.9 1.7 3.9-12.2 5.3-19.9 5.7-7.7.4-18.1 2.4-20.8-.5-2.7-3 .2-8.6.2-8.6z"/><path class="st9" d="M264.4 721.5c1.1-1-1.7-10.9.1-12.9.7-.8 1.9-1.6 2.7-1.7 6.1 2.9 19.9 5.5 22.1 10.6 1.7 3.9-12.2 5.3-19.9 5.7-7.2.3-16.7 2.2-20.1 0 4.8.1 14.1-.8 15.1-1.7zM249.8 707l14.7-.8s.8-3.9 0-4.1c-.8-.1-14.5-.4-14.7.6-.2 1.1 0 4.3 0 4.3z"/><path class="st2" d="M170.2 415.2c1.4-1.9 2.8-3.3 2.8-3.3l1.3.8s-3.9 5.6-4.2 8.5c-.1 1.3.8 2.1 1.9 2.3l-.8 1.8c-.2 0-.3-.1-.5-.1-4.3-1.6-3.1-6.6-.5-10z"/><path class="st16" d="M175.9 414.1s-1.8.1-3.2-1.4c-1.2-1.2-1.1-4.9.2-6 1.2-1.1 2.8-1 3.1-1.1.3-.1-.4-6.5 1.8-10.3 2.2-3.7 6.2-7.2 12.5-6.5 6.2.7 9.2 4.3 11.1 7 1.9 2.8 1.8 8.2 1.9 10.8.1 2.6.7 3.4 1.1 4.8 1 3.3 1.3 5.6.1 9.2-1.2 3.6-5.2 7-11.2 6.7-6.1-.1-15.7-3.5-17.4-13.2z"/><path class="st25" d="M201.3 410.7s3-.2 3.4 1.3c.4 1.5-3 1.8-4.4 1-1.4-.8.3-2.3 1-2.3z"/><path class="st9" d="M196.7 406.4c.3.6.6 6.1 3.3 6.7 2.8.6 4.3-.8 4.4-1.5.1-.8-.2-4.8 0-4.6.3.2 1 .4 1-.4s.3-1.4-.2-1.5c-.5-.1-2-.2-2.9-.3-1.7-.3-5.9.9-5.6 1.6zm1.3-.2c.6-.3 4.1-1.4 5.1-.5s.6 4.7.6 5.2c-.1.5-.6 1.4-2 1.5-1.3.1-3.4.5-3.8-4.2 0 0-.5-1.7.1-2z"/><path class="st9" d="M195.9 414.5c-1.6 0-2-1-2.2-1.9 0-.2.1-.4.3-.5.2 0 .4.1.5.3.2.9.4 1.5 2.1 1.2.7-.1 1.5-.8 1.5-1.3s-.5-.7-.9-.9c-1-.3-1.7-1.4-1.9-2.8-.2-1.5.3-3.8 2.4-5h.1s2.1-.7 4.6-1.3c.2-.1.4.1.5.3.1.2-.1.4-.3.5-2.3.5-4.2 1.1-4.5 1.2-1.7 1-2.1 2.8-1.9 4.1.1 1.1.6 1.9 1.3 2.1 1.4.4 1.5 1.3 1.5 1.7-.1.9-1.1 1.9-2.2 2.1-.4.2-.7.2-.9.2zM185.4 406.2c-.2 0-.3-.1-.4-.2-.1-.2 0-.5.2-.5 2.6-1.1 5.9-1.5 6.1-1.5.2 0 .4.1.5.4 0 .2-.1.4-.4.5 0 0-3.3.4-5.8 1.5 0-.2-.1-.2-.2-.2z"/><path class="st25" d="M187.3 412.5s3.5-1.3 4.6 0c1.1 1.3-2.8 2.7-4.8 2.5-2-.3-.7-2.2.2-2.5z"/><path class="st9" d="M190.1 407.5c.5-.1.8.2 1 .8.2.6.3 1.4.1 1.9-.4 1-1.5.6-1.8.2-.4-.4-.3-2.2-.2-2.5 0-.3.5-.4.9-.4z"/><path class="st9" d="M187.3 409.2h-.2c-.2-.1-.3-.4-.2-.6 0-.1.7-1.2 2.4-1.5 1.3-.2 1.9 0 2.2.7.1.2 0 .5-.2.6-.2.1-.4 0-.5-.2v-.1c-.1-.2-.7-.2-1.3-.2-1.3.2-1.8 1-1.8 1-.1.3-.3.3-.4.3zM200.3 406.6c.5 0 .8.4.9 1 .1.6.1 1.3-.1 1.7-.5.9-1.4.3-1.6-.1-.3-.4 0-2 .1-2.3 0-.2.3-.3.7-.3z"/><path class="st9" d="M197.5 408.2c-.1 0-.2 0-.2-.1-.2-.1-.2-.4-.1-.6 0-.1 1.1-1.4 2.9-1.4.7 0 1.5.2 1.7 1.3.1.2-.1.4-.3.5-.2.1-.4-.1-.5-.3v-.1c-.1-.2-.2-.6-1-.7-1.4 0-2.2 1.1-2.2 1.1 0 .3-.2.3-.3.3zM192.1 407.8s1.7-1 2.9-1.1c1.1-.1 2.1-.2 2.1-.2v1.3l-4.4.8-.6-.8z"/><path class="st9" d="M182 407.9s.8.8.8 1c0 .2 0 2.2.7 3.3 1.5 2.2 3.3 2.2 5.5 2.1 3.5-.1 3.9-1.9 3.8-3.3 0-1.5.4-3.6-.7-4.7s-4.7-.6-5.5-.4c-.8.1-3.9.3-4.4.7-.5.3-.2 1.3-.2 1.3zm2.1-.6c.9-.3 6-1.3 7.3-.4 1.4.8.7 4.8.5 5.3-.1.5-1 1.4-3 1.6-1.9.1-5.1.3-5.3-4.5.1-.1-.3-1.7.5-2z"/><path class="st9" d="M182.8 407.4s-6.8-2.2-7.1-2c-.3.2-.2.5-.1.7.1.2 7.2 3.5 7.2 3.5v-2.2z"/><path class="st25" d="M200.9 415.3h-2.2c-1 .1-1.5.6-1.5.7-.1 0-1.1-.8-2.3-.6-1.2.2-2.5.3-3.3.2-.8-.1-.9 0-.9.5-.1.4 2.3 3 6.3 3.4 3.9.2 3.9-4.2 3.9-4.2z"/><path class="st29" d="M196.6 394.9s-3.7 4.4-6.2 5.6c-2.5 1.1-4.9 2.9-8.3 4.3-3.3 1.4-6 1.4-8.1 1.1-2.2-.3-.9-6.3 1-10.4 1.9-4.1 2.6-6.2 5.3-7.4 2.7-1.2 7.6-1.7 8.8-1.2 1.2.4 11.2-1.1 7.5 8z"/><path class="st29" d="m195.5 393.5 8.8 6.9s3.3-6.9-3.1-10.8c-6.4-3.9-9.9-6.8-16.4-6-6.6.7 10.7 9.9 10.7 9.9z"/><path class="st2" d="M176.3 420.7c1-3.1-.7-6.1-1.3-7.1-.2-.3-.1-.7.2-.9h.1c.3-.1.6 0 .8.2.5.7 1.7 2.6 2.3 5.6.7 3.6-2.9 7.9-7.1 6.8 0 0-.4-.3-.1-1.1.2-.6.8-.7.8-.7 1.6.3 3.5-.5 4.3-2.8z"/><path class="st9" d="M196.2 417.6h-.4c-2.5-.2-4.7-1-4.8-1-.2-.1-.3-.3-.2-.5.1-.2.3-.3.5-.2 0 0 2.2.8 4.5 1 2.3.2 4.3-1.2 4.3-1.2.2-.1.4-.1.6.1.1.2.1.4-.1.6-.1-.1-2 1.2-4.4 1.2z"/><path class="st2" d="m212 555.8-43.5-11.4 66-11.6 47.7 8.6z"/><path class="st9" d="m214 551.2-34-7.1 48.8-9.2 19.6 7.9z"/><path class="st30" d="m192 545.2-6.1-1 9.7-1.9 5.9.9zM203 542.8l-6-1 8.7-1.6 5.9.8zM213.1 540.7l-6-1 9.1-1.7 6.1.8zM224 538.6l-6-1 9.7-1.8 5.9.8zM202.9 545.7l-6-1 9.6-1.8 6 .8zM213.9 543.3l-6-1 8.7-1.6 6 .9zM224.1 541.2l-6.1-1 9.2-1.7 6.1.9zM235 539.1l-6.1-1 9.7-1.8 5.9.8zM205.6 548.3l-6-1.1 9.7-1.8 5.9.9zM216.7 545.9l-6.1-1.1 8.8-1.5 5.9.8zM226.8 543.8l-6-1 9.1-1.7 6.1.8zM237.7 541.7l-6.1-1 9.7-1.8 5.9.8z"/><path style="fill:#c7c3c1" d="m211.9 555.9 80.8-16.6 6.4-61.1-84.4 17.1z"/><path class="st2" d="M260 512.4s-4.1-2.3-6.3.7c-2.2 3.1 1 6.5 4.5 6.2 3.6-.3 2.9-3.3 2.9-3.3s-3.1.8-2.7-.7c.4-1.5 1.6-2.9 1.6-2.9z"/><path class="st16" d="M203 537.5c-.9-.5-1.3-.8-.6-.9.7-.1 8.3 2.2 8.9 1.3.7-.9-5.5-3.9-6.8-4.6-1.3-.7-6.3-.1-8.5 1.2-1.3.8-5.2 1.7-6.2 1.8-3.5.1-4-.9-5.3-1.1-8.4-1.2-4.5 10-1.8 10.6 1.5.3 3.4 2.4 8.7 2 2.3-.2 4.9-1.2 7.1-1.4s8.2 1.4 9 .5c.8-.9-3.6-3.3-3.6-3.3s5.4 1.4 6.6.7c1.3-.7-.5-2.2-.5-2.2s3.1 1.4 2.9-.3c-.2-1.9-9-3.8-9.9-4.3z"/><path class="st16" d="M164 439.5s-69.6 54.8-56.8 79.7c12.8 24.9 83 34.7 84.3 21.1.5-5.2-56.5-33.5-56.5-33.5s18.9-24.8 23.1-35.1c7.2-18 5.9-32.2 5.9-32.2z"/><path class="st20" d="M165.7 437.6s-29.4 22.5-42.9 40.8c0 0 5.5 15.8 23.5 18.7 0 0 12.6-17.1 17.4-32.1 4.8-15 2-27.4 2-27.4z"/><path class="st9" d="M115.1 516.4c-.3 0-.6-.1-.8-.2-.2-.1-.3-.4-.3-.6 0-.5.1-1.7 10.6-5.5 5.1-1.8 10.3-3.4 10.4-3.4.1 0 .3 0 .3.2 0 .1 0 .3-.2.3-14.9 4.5-20.5 7.6-20.6 8.4 0 .1 0 .1.1.2 1.1.7 8.5-2.4 13-4.5.1-.1.3 0 .4.1.1.1 0 .3-.1.4-1.9.8-9.9 4.6-12.8 4.6z"/><path class="st24" d="M185.4 273.1c-3 3-7.9 2.9-10.9-.1s-2.9-7.9.1-10.9 7.9-2.9 10.9.1 3 7.9-.1 10.9z"/><path class="st9" d="M205 262.1c-.3-1.9.6-5.3 1.5-8 .8-2.5.2-5.2-1.6-7.1l-1.9-2-1.9-2c-1.8-1.9-4.5-2.5-7-1.8-2.7.8-6.1 1.7-8 1.4-3.4-.6-20.9 10.6-20.9 10.6l14.4 14.7 14.4 14.7c0 .2 11.6-17.1 11-20.5zM372 234.3H165.2c-1.5 0-2.8-1.2-2.8-2.8 0-1.5 1.2-2.8 2.8-2.8H372c1.5 0 2.8 1.2 2.8 2.8-.1 1.6-1.3 2.8-2.8 2.8z"/><path class="st9" d="M207.2 234.3c-1.5 0-2.8-1.2-2.8-2.8V217c0-1.5 1.2-2.8 2.8-2.8 1.5 0 2.8 1.2 2.8 2.8v14.5c0 1.6-1.3 2.8-2.8 2.8zM329.9 234.3c-1.5 0-2.8-1.2-2.8-2.8V217c0-1.5 1.2-2.8 2.8-2.8 1.5 0 2.8 1.2 2.8 2.8v14.5c0 1.6-1.2 2.8-2.8 2.8z"/><path class="st9" d="M199.5 251.4c-.7 0-1.4-.3-1.9-.8-1.1-1.1-1.1-2.8 0-3.9l7.2-7.3 5.3-9.2c.8-1.3 2.4-1.8 3.8-1 1.3.8 1.8 2.4 1 3.8l-5.7 9.9-7.7 7.8c-.6.4-1.3.7-2 .7z"/><path class="st24" d="M264.2 280.4c.1 4.2 3.6 7.6 7.9 7.5 4.2-.1 7.6-3.6 7.5-7.9-.1-4.2-3.6-7.6-7.9-7.5-4.2.1-7.6 3.7-7.5 7.9z"/><path class="st9" d="M257.9 258.9c1.5-1.1 3.3-4.2 4.5-6.8 1.1-2.3 3.5-3.9 6.1-3.9l2.8-.1 2.8-.1c2.6-.1 5 1.4 6.2 3.7 1.3 2.5 3.2 5.5 4.8 6.6 2.9 1.9 7.5 22.2 7.5 22.2l-20.6.4-20.6.4c-.1.1 3.7-20.4 6.5-22.4z"/><path class="st9" d="M271.3 255.9c-1.5 0-2.8-1.2-2.8-2.8v-10.9l2.9-11c.4-1.5 1.9-2.4 3.4-2 1.5.4 2.4 1.9 2 3.4l-2.7 10.3v10.2c0 1.5-1.2 2.7-2.8 2.8z"/><path class="st24" d="M368.6 273.1c3 3 7.9 2.9 10.9-.1s2.9-7.9-.1-10.9-7.9-2.9-10.9.1-3 7.9.1 10.9z"/><path class="st9" d="M349 262.1c.3-1.9-.6-5.3-1.5-8-.8-2.5-.2-5.2 1.6-7.1l1.9-2 1.9-2c1.8-1.9 4.5-2.5 7-1.8 2.7.8 6.1 1.7 8 1.4 3.4-.6 20.9 10.6 20.9 10.6l-14.4 14.7-14.4 14.9s-11.6-17.3-11-20.7z"/><path class="st9" d="M354.5 251.4c-.7 0-1.4-.3-2-.8l-7.7-7.8-5.7-9.9c-.8-1.3-.3-3 1-3.8 1.3-.8 3-.3 3.8 1l5.3 9.2 7.2 7.3c1.1 1.1 1.1 2.8 0 3.9-.5.6-1.2.9-1.9.9z"/><path class="st24" d="M580.8 273.1c-3 3-7.9 2.9-10.9-.1s-2.9-7.9.1-10.9 7.9-2.9 10.9.1 3 7.9-.1 10.9z"/><path class="st9" d="M600.4 262.1c-.3-1.9.6-5.3 1.5-8 .8-2.5.2-5.2-1.6-7.1l-1.9-2-1.9-2c-1.8-1.9-4.5-2.5-7-1.8-2.7.8-6.1 1.7-8 1.4-3.4-.6-20.9 10.6-20.9 10.6l14.4 14.7 14.4 14.7c0 .2 11.5-17.1 11-20.5zM767.3 234.3H560.6c-1.5 0-2.8-1.2-2.8-2.8 0-1.5 1.2-2.8 2.8-2.8h206.8c1.5 0 2.8 1.2 2.8 2.8-.1 1.6-1.3 2.8-2.9 2.8z"/><path class="st9" d="M602.6 234.3c-1.5 0-2.8-1.2-2.8-2.8V217c0-1.5 1.2-2.8 2.8-2.8 1.5 0 2.8 1.2 2.8 2.8v14.5c-.1 1.6-1.3 2.8-2.8 2.8zM725.3 234.3c-1.5 0-2.8-1.2-2.8-2.8V217c0-1.5 1.2-2.8 2.8-2.8 1.5 0 2.8 1.2 2.8 2.8v14.5c0 1.6-1.3 2.8-2.8 2.8z"/><path class="st9" d="M594.8 251.4c-.7 0-1.4-.3-1.9-.8-1.1-1.1-1.1-2.8 0-3.9l7.2-7.3 5.3-9.2c.8-1.3 2.4-1.8 3.8-1 1.3.8 1.8 2.4 1 3.8l-5.7 9.9-7.7 7.8c-.5.4-1.2.7-2 .7z"/><circle transform="rotate(-36.685 667.38 280.254)" class="st24" cx="667.3" cy="280.2" r="7.7"/><path class="st9" d="M653.3 258.9c1.5-1.1 3.3-4.2 4.5-6.8 1.1-2.3 3.5-3.9 6.1-3.9l2.8-.1 2.8-.1c2.6-.1 5 1.4 6.2 3.7 1.3 2.5 3.2 5.5 4.8 6.6 2.9 1.9 7.5 22.2 7.5 22.2l-20.6.4-20.6.4c-.1.1 3.7-20.4 6.5-22.4z"/><path class="st9" d="M666.7 255.9c-1.5 0-2.8-1.2-2.8-2.8v-10.9l2.9-11c.4-1.5 1.9-2.4 3.4-2 1.5.4 2.4 1.9 2 3.4l-2.7 10.3v10.2c0 1.5-1.2 2.7-2.8 2.8z"/><path class="st24" d="M763.9 273.1c3 3 7.9 2.9 10.9-.1s2.9-7.9-.1-10.9-7.9-2.9-10.9.1-2.9 7.9.1 10.9z"/><path class="st9" d="M744.4 262.1c.3-1.9-.6-5.3-1.5-8-.8-2.5-.2-5.2 1.6-7.1l1.9-2 1.9-2c1.8-1.9 4.5-2.5 7-1.8 2.7.8 6.1 1.7 8 1.4 3.4-.6 20.9 10.6 20.9 10.6l-14.4 14.7-14.4 14.7c0 .2-11.6-17.1-11-20.5z"/><path class="st9" d="M749.9 251.4c-.7 0-1.4-.3-2-.8l-7.7-7.8-5.7-9.9c-.8-1.3-.3-3 1-3.8 1.3-.8 3-.3 3.8 1l5.3 9.2 7.2 7.3c1.1 1.1 1.1 2.8 0 3.9-.5.6-1.2.9-1.9.9z"/></svg>