<svg version="1.1" id="Layer_1" xmlns="http://www.w3.org/2000/svg" x="0" y="0" viewBox="0 0 137.5 262.2" style="enable-background:new 0 0 137.5 262.2" xml:space="preserve"><style>.st0{fill:#00e4ff}.st1{fill:#f5cfbf}.st3{fill:#f29d9d}.st4{fill:#7703fc}.st7{fill:#c3b9dd}.st8{fill:#1a1a1a}.st9{fill:#0d1d7e}.st12{fill:#246afc}</style><path class="st0" d="M1341.6-257.2c-2.7 0-4.9-2.2-4.9-4.9s2.2-4.9 4.9-4.9h.4c1-2.9 3.7-4.9 6.9-4.9s5.9 2.1 6.9 4.9h.6c.8 0 1.5.2 2.1.5 1.1-2 3.1-3.3 5.5-3.3 3.5 0 6.3 2.8 6.3 6.3s-2.8 6.3-6.3 6.3h-22.4zM1224.8-237.2c4.9 0 8.8-4 8.8-8.8 0-4.9-4-8.8-8.8-8.8-1.1 0-2.1.2-3 .5-1.5-5.9-6.9-10.2-13.2-10.2-6.1 0-11.3 4-13 9.6-1.4-.9-3.1-1.3-4.9-1.3-5.3 0-9.5 4.3-9.5 9.5 0 5.3 4.3 9.5 9.5 9.5h34.1z"/><path class="st1" d="M60.1 67.5c-1.1-4.2-.5-27.7-.5-27.7l-18.4.7s-.2 23.2-.7 26.9c-.5 3.7-6.8 5.2-14.3 9-1 .5-2.2 1.7-3.2 2.6 1.2 2.7 26 11.7 27.7 14.1 1.9 2.6 20.4-11.1 22.5-17-8.5-4.8-12-4.6-13.1-8.6z"/><path class="st1" d="M60.5 68.5c-.1-.3-.2-.6-.4-1-1.1-4.2-.5-27.7-.5-27.7l-18.4.7s-.2 23.2-.7 26.9c-.1.6-.3 1.1-.7 1.7l20.7-.6z"/><path d="m58.7 39.4-17 .6s-.1 5.4-.2 12c1.3 3.1 3.9 8 8.5 7.9 5.2-.1 6.9-4.6 8.5-7.4-.1-6.7.2-13.1.2-13.1z" style="opacity:.61;fill:#cbc7ff;enable-background:new"/><path class="st1" d="M45.9 40c-.2 3.3-3.1 5.8-6.4 5.5-3.3-.2-5.8-3.1-5.5-6.4.2-3.3 3.1-5.8 6.4-5.5 3.2.2 5.7 3.1 5.5 6.4z"/><path class="st3" d="M43.1 39.8c-.1 1.7-1.6 3-3.4 2.9-1.7-.1-3-1.6-2.9-3.4.1-1.7 1.6-3 3.4-2.9 1.7.2 3 1.7 2.9 3.4z"/><path class="st4" d="M36.3 38c-2.7-2.4-3.4-11 1.6-14.5 1.8-1.3 4.3-1.7 4.8-3.5 1-3.5 6.3-6.1 10.3-4.1 5.1 2.5 7.5.6 10.4-2.4 3.1-3.2 5.1-6.5 13.7-5s11.2.5 12.8-3.6 9.5-7.4 16.8-2.3 9.7 9.1 14.6 7.3c4.9-1.8 9.9-4.7 14.3-.1 4.4 4.6.8 13.5-4.9 13.4s-2.9 6.7-1.3 10.8c1.5 4.1-2.7 10.3-9.9 7.8s-8.8-.4-11.2 3.3c-2.3 3.8-8.5 3.6-11.5 1.4s-6.6-4-10.9-1.3c-4.3 2.6-5.7 4.3-10.7 2.2-5-2.1-6-1.4-8.9.2-2.9 1.5-8.6-.6-8.6-.6l-21.4-9z"/><path d="m50.6 40.7-.4-4.4L67 37.4c6.7-3.9 8.3-3.9 13.6-2.5s4.6-4.9 10.2-6.8c5.6-1.9 6.7 3.1 11.8 3 5.1-.2 3.6-5.2 10.1-4.8 6.2.4 6.9 5 15.6 4.9.3 1 .7 2 1.1 2.9 1.5 4.1-2.7 10.3-9.9 7.8s-8.8-.4-11.2 3.3c-2.3 3.8-8.5 3.6-11.5 1.4s-6.6-4-10.9-1.3c-4.3 2.6-5.7 4.3-10.7 2.2-5-2.1-5.8-1.6-8.7-.1-2.9 1.5-8.4.2-8.4.2l-7.5-6.9z" style="opacity:.71;fill:#e1deff;enable-background:new"/><circle class="st1" cx="61" cy="39.6" r="6"/><path class="st3" d="M57.8 39.8c.1 1.7 1.6 3 3.4 2.9 1.7-.1 3-1.6 2.9-3.4-.1-1.7-1.6-3-3.4-2.9-1.7.2-3 1.7-2.9 3.4z"/><path class="st1" d="M39.2 42.1c.6 8.4 3.5 14.5 12 14.3 5.3-.1 9.9-6 9.8-14.4-.1-8.8-1.9-15.9-11.9-15.9-9.7 0-10.5 7.6-9.9 16z"/><path class="st3" d="M53.9 46.8c.1 1.4 1.4 2.5 2.8 2.4 1.4-.1 2.5-1.4 2.4-2.8s-1.4-2.5-2.8-2.4-2.5 1.4-2.4 2.8zM40.9 46.8c.1 1.4 1.4 2.5 2.8 2.4s2.5-1.4 2.4-2.8-1.4-2.5-2.8-2.4-2.5 1.3-2.4 2.8zM50.2 42l-2 4c-.2.5.1 1 .6 1h2.4l-1-5z"/><path d="M66.8 41.1c-4.8 2-7.2.2-9.4-1.1s-2-7.4-5.3-8.5c-3.3-1-4.1 1.6-7.7.7-4.1-1.1-5 1.4-5 1.4s-.1-3.1 6-5.3c6.1-2.2 13.1-2.2 16.7 1.6 1.2 1.2 1.1 3.1 2.5 4.3 3.3 3.1 2.2 6.9 2.2 6.9z" style="opacity:.58;fill:#cbc7ff;enable-background:new"/><path class="st7" d="M58.8 39.1c-.3 0-.6-.1-.8-.2-.3 0-.6-.1-.8-.1-.5-.1-1.1-.1-1.6-.1s-1.1.1-1.6.2-1.1.3-1.5.5c-.1.1-.2 0-.3-.1v-.2c.5-.5 1-.8 1.6-1s1.2-.3 1.8-.3 1.2.1 1.8.3l.9.3c.3.1.5.3.8.4.1.1.1.2.1.3-.2 0-.3.1-.4 0z"/><path class="st8" d="M54 42c.4.1.7.1 1.1.2.3 0 .7.1 1 .1s.7 0 1-.1.7-.2 1-.3c.1 0 .2 0 .2.1v.2c-.6.6-1.4.9-2.2.9-.4 0-.8 0-1.2-.2-.2 0-.4-.1-.5-.2-.2-.1-.3-.2-.5-.3-.1 0-.1-.1 0-.2 0-.2 0-.2.1-.2zM42.3 42c.4.1.7.1 1.1.2.3 0 .7.1 1 .1s.7 0 1-.1.7-.2 1-.3c.1 0 .2 0 .2.1v.2c-.6.6-1.4.9-2.2.9-.4 0-.8 0-1.2-.2-.2 0-.4-.1-.5-.2-.2-.1-.3-.2-.5-.3-.1 0-.1-.1 0-.2 0-.2 0-.2.1-.2z"/><path class="st7" d="M47.5 39c-.3 0-.5-.1-.7-.1s-.5-.1-.7-.1c-.5-.1-1-.1-1.4-.1-.5 0-.9 0-1.4.1s-.9.2-1.4.4c-.1 0-.2 0-.3-.1v-.2c.4-.4.9-.7 1.4-.8.5-.2 1.1-.2 1.6-.2s1.1.1 1.6.3c.3.1.5.2.8.3.2.1.5.2.7.4.1.1.1.2.1.3-.1-.2-.1-.2-.3-.2z"/><path class="st3" d="M47.3 49.5c0 .4 1.4.8 3 .7 1.7 0 3-.4 3-.8 0-.6-1.4.1-3 .1s-2.9-.6-3 0z"/><path class="st9" d="M38.5 50.8c-.2 0-.3-.1-.3-.3v-6.4c0-.2.1-.3.3-.3.2 0 .3.1.3.3v6.4c0 .2-.2.3-.3.3zM61.7 51.1c-.2 0-.3-.1-.3-.3v-6.4c0-.2.1-.3.3-.3s.3.1.3.3v6.4c0 .2-.1.3-.3.3z"/><path class="st4" d="M66.9 37.4c-4.8 2-6.7 2.5-9 1.2-2.2-1.3-2-7.4-5.3-8.5-3.3-1-4.1 2-7.7 1.5-3.9-.5-5.7 1.3-5.7 1.3s-1.3-5.8 4.8-8 15-.2 18.6 3.6c3.7 3.8 4.3 8.9 4.3 8.9z"/><path class="st9" d="M30 169.3c-11.2 0-14.1-11.8-11.7-24 2.8-14.2 17-21 30.3-21s27 8.1 30.8 22.1c2.9 10.9-1 22.9-12.2 22.9H30z"/><path d="M61.6 168.5H32.9c-4.5 0-8.1-3.7-8.1-8.1v-3.8c0-4.5 3.7-8.1 8.1-8.1h28.7c4.5 0 8.1 3.7 8.1 8.1v3.8c0 4.5-3.6 8.1-8.1 8.1z" style="fill:#292969"/><path d="M36.7 71.2s-11.2 4.1-15.2 8.2c-3.3 3.5-4.7 5.7-4.7 5.7l11.5 37.3H69l14.3-37.3s-3.1-5.7-10.1-9.5c-6.9-3.8-8.9-4.1-9.7-4.6 0 0-9.9 12.1-12.5 12.3-2.6.1-14.3-12.1-14.3-12.1z" style="fill:#7a56e0"/><path class="st12" d="M51 84.4c3.1.1 11.9-11.2 13.3-13-.4-.1-.6-.3-.8-.4 0 0-9.9 12.1-12.5 12.3-2.6.1-14.3-12.1-14.3-12.1s-.3.1-.8.3c1.2 1.4 11.9 12.8 15.1 12.9z"/><path class="st1" d="M17 85.2c1.7 6.6 8.2 7.3 9.3 15.9C20.7 111.5 15 127 15 127s21.8 1.1 30.6 3.8l-.2 10.4H9.8c-7.8 0-11.5-5.3-9-17.3C3.9 108.6 12.4 91.7 17 85.2zM82.8 85.2c-.6 6.7-11.1 11.4-9.3 15.9 4.1 10.2 10.7 26.1 10.7 26.1s-21.6-.6-29.7 2v12h35.6c7.8 0 11.6-5.9 8.8-17.8-2.7-11.8-8.2-27.2-16.1-38.2zM26.3 150.1c8.8-1.3 12.2 7.1 15.4 20.4 3.2 13.3 11.6 48.9 15.8 61.1 3.9 11.3-.6 7.7-2.6 13.8-1.8 5.7-4.7 9.9-9 10.1-3.1.2-.1-9.2 3.4-16.3-.5-6.6-7.4-19.5-18.2-42.8-10.6-23-10.8-26.6-11.5-34.3-.6-7.5 3.5-11.5 6.7-12z"/><path class="st3" d="M24.5 157.8c0 2.1 1.7 3.7 3.7 3.7 2.1 0 3.7-1.7 3.7-3.7 0-2.1-1.7-3.7-3.7-3.7s-3.7 1.7-3.7 3.7zM2.5 133.5c-.8 0-1.6.2-2.2.6.8 3.4 2.7 5.4 5.5 6.4.6-.7 1-1.7 1-2.7 0-2.4-1.9-4.3-4.3-4.3zM99.3 134.7c-.7-.5-1.5-.8-2.4-.8-2.3 0-4.3 1.9-4.3 4.3 0 .9.3 1.8.8 2.5 3-.9 5-2.8 5.9-6z"/><path d="M57 149.8c8.2 0 8 16.3 7.6 24.9-.5 8.7-5.6 36-12.1 54.5s-7.4 21.6-7.6 26.9c-.2 5.3-6.1 6.3-10.1 6.1-4-.2-4-1.1.2-12.6 4.2-11.4 9.5-43.6 10.5-62.6.9-18.9-3.3-37.2 11.5-37.2z" style="fill:#f8dbd0"/><path class="st3" d="M51.8 158c0 2.1 1.7 3.7 3.7 3.7 2.1 0 3.7-1.7 3.7-3.7 0-2.1-1.7-3.7-3.7-3.7s-3.7 1.6-3.7 3.7z"/><path class="st9" d="M18.1 156.4c3.4-5.7 41.6-5.9 53.2-.7l-.7-16.3-49 .9-3.5 16.1z"/><path d="M70.8 140.7H23.5c-3.4 0-6.2-2.8-6.2-6.2V107c0-3.4 2.8-6.2 6.2-6.2h47.3c3.4 0 6.2 2.8 6.2 6.2v27.5c0 3.4-2.8 6.2-6.2 6.2z" style="fill:#80a9fd"/><path d="M77 141.4H17.2v-33.8c0-3.4 2.8-6.2 6.2-6.2h47.3c3.4 0 6.2 2.8 6.2 6.2l.1 33.8z" style="fill:#4580fc"/><path d="M77 141.4H17.2v.5c0 .7.6 1.4 1.4 1.4h57c.7 0 1.4-.6 1.4-1.4v-.5z" style="fill:#103fcd"/><circle transform="rotate(-80.781 46.871 121.33)" class="st12" cx="46.9" cy="121.3" r="5.2"/></svg>