<svg xmlns="http://www.w3.org/2000/svg" viewBox="0 0 739 157.1" style="enable-background:new 0 0 739 157.1" xml:space="preserve"><path d="M.9 54.4c3.2-1.6 7.8-2.2 11.9-2.2h8.6v71.7c0 3.6-.9 7.9-3.7 10.2H58V20H.9v34.4zm160.9-24.2v93.6c0 3.6-.8 7.3-3.5 10.2h70.8V98.5c-4.9 2.2-11 3.4-16.8 3.4h-15.4V90.2h8.1c4.4 0 8.3.4 12.4 2.2V61.7c-4.2 1.8-8.1 2.2-12.4 2.2h-8.1V50.7h15.4c5.9 0 11.9 1.1 16.8 3.4V20h-71c2.8 2.4 3.7 6.7 3.7 10.2zm147.8 52.7-11.7-32.2h17.6L327.2 20h-81.9c2.5 2.6 5 5.5 6.7 8.9l45.3 105.2H322l37.3-87.8v77.5c0 3.7-.9 7.9-3.7 10.2h71V98.5c-4.8 2.2-11 4.8-16.8 4.8h-15.4V90.2h8.1c4.4 0 8.3.4 12.4 2.2V61.7c-4.2 1.8-8.1 2.2-12.4 2.2h-8.1V52.2h15.4c5.9 0 12 1.1 16.8 3.4V20H333l-23.4 62.9zm-190.2-19h-19V52.2h1.5c4 0 8.6.7 11.7 2.2V20H63.8v114.1H104c-2.8-2.4-3.7-6.7-3.7-10.2V91.7h19v32.2c0 3.6-.9 7.9-3.7 10.2H156V20h-36.6v43.9zM505 82.6c6.1-6.7 9.8-15.6 9.8-24.5 0-26.3-19.6-38.1-40.6-38.1h-45.3c2.7 2.4 3.7 6.6 3.7 10.2v93.7c0 3.5-1 7.4-3.7 10.2h43.6c-2.8-2.9-3.4-6.9-3.4-10.2v-23.3c12.5 2.4 20.8 14 20.8 23.3 0 3.5-.8 7.3-3.6 10.2h43.5c-2.8-2.9-3.4-7.1-3.7-10.6-1.4-20.1-8.3-34.3-21.1-40.9zm-35.9-11.2V50.6c5.9 0 13.3 1.6 13.3 10.4s-7.4 10.4-13.3 10.4zm205.6-20.7c5.9 0 11.9 1.1 16.8 3.4V20h-71c2.8 2.4 3.7 6.7 3.7 10.2v93.6c0 3.6-.8 7.3-3.5 10.2h70.8V98.5c-4.9 2.2-11 3.4-16.8 3.4h-15.4V90.2h8.1c4.4 0 8.3.4 12.4 2.2V61.7c-4.2 1.8-8.1 2.2-12.4 2.2h-8.1V50.7h15.4zm-56.4 59.6V63.9h-43.8c-2.2 0-4.8-.2-7.4-1v28.4c2.6-.8 5.1-1 7.4-1h11.6V99c-1.4 1.3-4.5 2-7.8 2-13.3 0-23.1-10.5-23.1-23.3s9.5-24.2 22.8-24.2c8.1 0 17.1 2.6 27.1 7.3V20h-29.3C544.2 20 519 44.4 519 77.5c0 32.3 25.3 59.6 58.2 59.6 18.1 0 35-7.4 43.8-16.4-1.5-3.3-2.7-6.5-2.7-10.4z" style="fill:#f94a2b"/></svg>