<svg version="1.1" id="Layer_1" xmlns="http://www.w3.org/2000/svg" xmlns:xlink="http://www.w3.org/1999/xlink" x="0" y="0" viewBox="0 0 618 618" style="enable-background:new 0 0 618 618" xml:space="preserve"><style>.st1{fill:#0b0b0c}.st2,.st3{fill:none;stroke:#3c3c42}.st2{stroke-width:1;stroke-miterlimit:9.9998}.st3{stroke-miterlimit:9.9999}.st4{fill:#394d54}.st6{fill:#00acd3}.st7{fill:#20c2ef}.st8{stroke:#394d54;stroke-width:1.56}.st15{fill:#007acc}</style><path d="M309.2 116.7H298.9c-.5 0-1 .1-1.5.1l.1 1c4-.2 8-.4 11.9-.4v-.7h-.2zm-23.9 1.5c-.1 0-.1 0 0 0h-.4c-1.8.2-3.5.5-5.3.7H276.6c-.6.1-1.1.2-1.7.3l.2 1c3.9-.7 7.9-1.4 11.8-1.8l-1.6-.2zm-23.6 4.4-2.4.6c-.1 0-.2 0-.3.1H255.8c-.1 0-.1 0-.2.1h-.1c-.1 0-.2.1-.3.1-1.4.4-2.8.8-4.1 1.3l.3 1c3.8-1.2 7.6-2.3 11.5-3.3l-1.2.1zm-22.8 7.3c-.1.1-.1.1 0 0h-.6c-.1 0-.1 0-.2.1h-.2c-.1 0-.1 0-.2.1h-.1c-.1 0-.1 0-.2.1h-.2c-.1 0-.1 0-.2.1h-.1c-.1 0-.2.1-.2.1h-.1c-.1 0-.1 0-.2.1h-.2c-.1 0-.1 0-.2.1H234.1c-.1 0-.1.1-.2.1h-.1c-.1 0-.2.1-.3.1h-.1c-.1 0-.2.1-.3.1-1.8.8-3.5 1.5-5.3 2.4l.4.9c3.6-1.7 7.3-3.3 11-4.7l-.3.4zm-21.8 10.2c-.1.1-.1.1-.2.1-2 1.1-4 2.2-5.9 3.4h-.1c-.1 0-.1.1-.2.1h-.2s-.1 0-.1.1c-.1 0-.1.1-.2.1h-.1l-3 1.8.5.8c3.4-2.1 6.8-4.1 10.3-6l-.8-.4zm-20.3 12.7c-3.2 2.3-6.4 4.8-9.5 7.3l.6.8c3.1-2.5 6.3-5 9.5-7.3l-.6-.8zm-18.5 15.3c-.1 0-.1 0 0 0-.1 0-.1 0 0 0-.1 0-.1 0 0 0l-.1.1-.1.1-.1.1h-.1c-1 1-2 1.9-3 2.9l-.1.1-.2.2-.1.1h-.1l-.1.1-.1.1-.1.1h-.1l-.1.1-.1.1-.1.1-.1.1c-.2.2-.4.4-.5.6l-.1.1v.2l-.1.1-.1.1v.1l-.1.1-.1.1v.1l-.1.1c-.2.2-.4.4-.5.6l.7.7c1.1-1.1 2.2-2.3 3.3-3.4 1.7-1.7 3.4-3.4 5.2-5l-2.9 1.2zm-16.6 17.3c-1.4 1.6-2.7 3.3-4.1 5l-.1.1v.1l-.1.1v.2l-.2.2-.1.1c-.8 1-1.6 2-2.3 3.1l.8.6c2.4-3.2 4.8-6.3 7.4-9.4l-1.3-.1zm-14.2 19.3s-.1.1 0 0c-.1.1-.1.1 0 0l-.1.1s0 .1-.1.1v.2c-.6 1-1.3 2-1.9 3-.1.1-.1.2-.2.3-.1.1-.1.2-.1.2v.2s0 .1-.1.1v.5c0 .1-.1.1-.1.2v.1c-.9 1.6-1.9 3.2-2.8 4.8l.9.5c1.9-3.5 4-6.9 6.2-10.2l-1.7-.1zm-11.8 20.9-2.1 4.5c0 .1-.1.2-.1.3v.1c0 .1-.1.2-.1.3v.1c0 .1-.1.1-.1.2v.2c0 .1-.1.1-.1.2v.1c0 .1 0 .1-.1.2v.2c0 .1 0 .1-.1.2v.2c0 .1 0 .1-.1.2v.5c0 .1-.1.1-.1.2v.1c0 .1-.1.2-.1.3v.1c-.2.6-.5 1.2-.7 1.8l.9.4c1.5-3.7 3.1-7.3 4.8-10.9l-2 .5zm-9 22.2c-.8 2.4-1.5 4.8-2.2 7.2 0 .1-.1.2-.1.3v.1c0 .1-.1.2-.1.3V258.5c0 .1 0 .2-.1.3v.4c0 .1 0 .2-.1.3 0 .1 0 .2-.1.3l1 .3c1-3.8 2.2-7.7 3.4-11.4l-1.7-.9zm-6.2 23.2V271.3c-.8 3.8-1.4 7.7-1.9 11.6l1 .1c.5-3.9 1.2-7.9 2-11.8l-1.1-.2zm-3.3 23.8c-.2 2.1-.3 4.2-.4 6.2V306h1c.1-4 .2-8 .5-11.9l-1.1.7zm.7 23.9h-1c.2 4 .5 8 1 12l1-.1c-.5-3.9-.8-7.9-1-11.9zm2.7 23.7-1 .2V343.7c.5 2.5 1 5 1.5 7.4 0 .1 0 .2.1.3v1.2c0 .1 0 .2.1.3.1.4.2.9.3 1.3l1-.2c-.5-3.8-1.3-7.7-2-11.6zm5.5 23.2-1 .3V366.7c0 .1 0 .1.1.2v.1c1.1 3.4 2.2 6.8 3.5 10.2l.9-.4c-1-3.6-2.3-7.4-3.5-11.2zm8.5 22.3-.9.4c.4 1 .9 2 1.4 3 0 .1.1.2.1.2V392.9c0 .1.1.1.1.2v.2c0 .1.1.1.1.2v.2s0 .1.1.1v.2c0 .1.1.1.1.2v.2c0 .1.1.1.1.2v.1c0 .1.1.2.1.2v.1c0 .1.1.1.1.2v.2c0 .1.1.1.1.2v.1c0 .1.1.2.1.2v.1c0 .1.1.2.1.3v.1c0 .1.1.1.1.2v.1c0 .1.1.2.1.3v.1c.3.6.7 1.3 1 1.9l.9-.5c-.4-3.3-2.1-7-3.7-10.6zm11.1 21.1-.9.5v.2c0 .1.1.1.1.2v.2l.1.1v.1s0 .1.1.1c0 .1.1.1.1.2v.2c.1.1.1.2.2.2 1.1 1.8 2.3 3.6 3.5 5.3.1.1.1.2.2.2v.2c0 .1.1.1.1.2v.5l.1.1v.2c.3.4.5.8.8 1.2l.8-.6c-.9-2.5-3.1-5.9-5.2-9.3zm13.7 19.6-.8.6c2.5 3.1 5.1 6.2 7.8 9.1l.7-.7c-2.6-2.9-5.2-5.9-7.7-9zm16 17.7-.7.7c1.2 1.2 2.5 2.4 3.7 3.5l.3.3.3.3h.2c.1 0 .1.1.2.1l.1.1.1.1.1.1h.1l.1.1.1.1h.2l.1.1.1.1h.1l.2.2.1.1.1.1 2.1 1.8.7-.8c-2.5-1.5-5.4-4.3-8.3-7zm18.1 15.6-.6.8c.1 0 .1.1.2.1h.2c3.1 2.3 6.2 4.6 9.5 6.7l.6-.8c-3.5-2.1-6.8-4.4-9.9-6.8zm19.8 13.2-.5.9c3.5 2 7 3.9 10.6 5.7l.4-.9c-3.5-1.8-7-3.7-10.5-5.7zm21.4 10.6-.4.9c3.7 1.6 7.4 3 11.2 4.3l.3-.9c-3.7-1.3-7.5-2.8-11.1-4.3zm22.5 7.9-.3 1h.2c3.7 1 7.5 2 11.3 2.8l.2-1c-3.7-.8-7.6-1.7-11.4-2.8zm23.3 5-.1 1H286.1c1.9.2 3.7.4 5.6.6h.5l.1-1c-3.8.5-7.8 0-11.8-.6zm35.8 2c-2.3.1-4.7.1-7 .1-1.6 0-3.3 0-4.9-.1v1c1.1 0 2.2 0 3.3.1H310.4c1.8 0 3.6-.1 5.3-.1l.6-1zm23.7-2.3c-3.9.6-7.9 1.2-11.8 1.5l.1 1c4-.4 7.9-.9 11.9-1.5l-.2-1zm23.3-5.3c-3.8 1.1-7.7 2.1-11.6 3l.2 1h.6c.1 0 .2 0 .3-.1 2.3-.5 4.6-1.1 6.8-1.7h.1c.1 0 .1 0 .2-.1h1.2c.8-.2 1.6-.4 2.3-.7l-.1-1.4zm22.4-8.1c-3.6 1.6-7.4 3.1-11.1 4.4l.3.9c.2-.1.3-.1.5-.2h.7c.1 0 .1 0 .2-.1h.1c.1 0 .2-.1.3-.1 3.1-1.2 6.3-2.4 9.3-3.8l-.3-1.1zm21.2-10.9c-3.4 2-6.9 4-10.4 5.8l.5.9c.6-.3 1.3-.7 1.9-1h.1c.1 0 .1-.1.2-.1h.4c.1 0 .1-.1.2-.1h.1c.1 0 .1-.1.2-.1 2.1-1.1 4.2-2.3 6.2-3.5h.1c.1 0 .1-.1.2-.1H406.9c.1 0 .2-.1.2-.1.1 0 .2-.1.2-.1l-.4-1.6zm19.7-13.4c-3.1 2.4-6.4 4.8-9.6 7l.6.8c1.7-1.1 3.3-2.3 5-3.5h.1c.1 0 .1-.1.2-.1h.4l.1-.1h.2l.2-.2c1.1-.8 2.1-1.6 3.1-2.4l-.3-1.5zm17.9-15.8c-2.8 2.8-5.7 5.6-8.7 8.2l.7.7c1.2-1 2.3-2.1 3.5-3.2.8-.7 1.5-1.4 2.3-2.1l.3-.3.3-.3.1-.1.2-.2s.1-.1.2-.1l.1-.1.1-.1.1-.1h.1l.2-.2.1-.1.7-.7-.3-1.3zm15.9-17.9c-2.4 3.1-5 6.2-7.6 9.2l.7.7c.4-.5.8-.9 1.2-1.4l.2-.2.1-.1.1-.1.2-.2.1-.1.2-.2.1-.1.1-.1.1-.1v-.2l.1-.1v-.2l.1-.1.1-.1v-.2l.1-.1v-.2l.1-.1.1-.1.1-.1v-.2l.1-.1.1-.1.1-.1.1-.1.1-.1.1-.1.2-.2.1-.1c.1-.1.2-.2.2-.3 1.1-1.3 2.2-2.7 3.3-4.1l-.6-.3zm13.4-19.7c-2 3.4-4.2 6.8-6.4 10.1l.8.6c.9-1.3 1.7-2.5 2.5-3.8v-.1c.1-.1.1-.2.2-.2 0 0 0-.1.1-.1V413.4l.1-.1v-.2c0-.1.1-.1.1-.2v-.1c1-1.6 2-3.1 2.9-4.7l-.3-.9zm10.9-21.2c-1.6 3.6-3.3 7.3-5.1 10.8l.9.5c.8-1.6 1.6-3.1 2.3-4.7.1-.1.1-.2.2-.3 0-.1.1-.2.1-.3v-.1c0-.1.1-.2.1-.3.1-.1.1-.2.2-.3 0-.1.1-.2.1-.3.1-.1.1-.2.2-.3.7-1.4 1.3-2.8 1.9-4.3l-.9-.4zm8.2-22.4c-1.1 3.8-2.4 7.6-3.7 11.3l.9.3c1.4-3.8 2.6-7.6 3.8-11.4l-1-.2zm5.3-23.3c-.6 3.9-1.4 7.9-2.3 11.7l1 .2c.3-1.4.6-2.9.9-4.3 0-.1 0-.2.1-.3V345.2c0-.1 0-.2.1-.3v-.4c0-.1 0-.2.1-.3v-2c0-.1 0-.2.1-.4V339.8v.5zm2.4-23.7c-.2 4-.4 8-.8 11.9l1 .1c.3-2.5.5-5 .6-7.6V319.5c.1-.9.1-1.9.1-2.8l-.9-.1zm.4-24-1 .1c.3 3.9.6 8 .7 11.9h1v-1.1c-.1-2.3-.2-4.6-.3-6.8v-1.5c-.2-1-.3-1.8-.4-2.6zm-3.5-23.7-1 .2c.8 3.9 1.5 7.8 2.1 11.7l1-.1c0-.2-.1-.5-.1-.7v-1.3c-.7-3.3-1.3-6.6-2-9.8zm-6.4-23.1-.9.3c1.3 3.7 2.5 7.6 3.6 11.4l1-.3V255.1c0-.1 0-.1-.1-.2v-.1c0-.1 0-.1-.1-.2v-.2c0-.1 0-.1-.1-.2v-.1c0-.1-.1-.2-.1-.3 0-.1-.1-.2-.1-.3v-.1c-1.8-3.4-2.5-5.5-3.2-7.6zm-9.3-22.1-.9.4c1.8 3.5 3.4 7.2 5 10.9l.9-.4c-.9-2.1-1.8-4.1-2.7-6.1 0-.1-.1-.2-.1-.3v-.2s0-.1-.1-.1c0-.1 0-.1-.1-.2V225.9c0-.1-.1-.1-.1-.2v-1.3c-1.9-.6-1.9-.6-1.9-.7 0 .1 0 .1 0 0zm-12-20.8-.8.6c2.2 3.3 4.3 6.7 6.3 10.1l.9-.5c-.2-.4-.4-.7-.6-1.1-.1-.1-.1-.2-.1-.2v-.2c0-.1-.1-.1-.1-.2 0 0 0-.1-.1-.1V210.5s0-.1-.1-.1c0-.1-.1-.1-.1-.2v-.2c0-.1-.1-.1-.1-.2v-.2s0-.1-.1-.1v-.2c0-.1-.1-.2-.1-.2v-.1c0-.1-.1-.1-.1-.2v-.2c0-.1-.1-.1-.1-.2v-.2c0-.1-.1-.1-.1-.2v-.2c0-.1-.1-.1-.1-.2v-.2c0-.1-.1-.1-.1-.2v-.2c0-.1-.1-.1-.1-.2 0 0 0-.1-.1-.1v-.5l-.1-.1v-.2c0-.1-.1-.1-.1-.2v-.1c-3.8-2.2-4-2.5-4.1-2.7zm-14.5-19.1-.8.7c2.6 3 5.1 6.1 7.5 9.3l.8-.6c-.9-1.2-1.9-2.4-2.8-3.6l-.1-.1-.1-.1-.1-.1-.1-.1v-.4s0-.1-.1-.1l-.2-.2v-.1c-1.5-1.7-2.7-3.2-4-4.6zm-16.7-17.2-.7.7c2.3 2.1 4.6 4.2 6.8 6.4.6.6 1.2 1.2 1.8 1.9l.7-.7-.2-.2-.1-.1-.8-.8-.1-.1-.1-.1-.2-.2c-.1-.1-.2-.2-.4-.3l-.3-.3h-.1l-.2-.2-.1-.1h-.2l-.1-.1c-4.9-5.1-5.3-5.4-5.7-5.8zm-18.7-15-.6.8c3.2 2.3 6.4 4.7 9.5 7.2l.6-.8c-.3-.2-.5-.4-.8-.6h-.2l-.1-.1-.1-.1c-2.4-1.9-4.8-3.7-7.2-5.4H420.7c-.5-.8-.7-.9-.8-1zm-20.5-12.5-.5.9c3.5 1.9 7 3.8 10.4 5.9l.5-.9c-1.2-.8-2.5-1.5-3.7-2.2h-.1c-.1 0-.1-.1-.2-.1h-.2c-.1 0-.1-.1-.2-.1H403.1c-.1 0-.1-.1-.2-.1h-.2c-.1 0-.2-.1-.2-.1-1.1-2.3-2.1-2.8-3.1-3.3zm-21.8-9.9-.4.9c3.7 1.4 7.4 2.9 11 4.6l.4-.9h-.1c-.1 0-.1-.1-.2-.1h-.1c-.1 0-.1 0-.2-.1h-.2c-.1 0-.1 0-.2-.1h-.1c-.1 0-.1 0-.2-.1h-.2c-.1 0-.1 0-.2-.1h-.1c-.1 0-.2-.1-.2-.1h-.1c-.1 0-.1 0-.2-.1h-.2c-.1 0-.1 0-.2-.1h-.1c-.1 0-.2-.1-.2-.1h-.1c-.1 0-.1 0-.2-.1h-.1c-.1 0-.2-.1-.3-.1h-.1c-.1 0-.1 0-.2-.1h-.1c-.1 0-.2-.1-.3-.1h-.1c-.1 0-.2-.1-.3-.1-.1 0-.2-.1-.3-.1-.1 0-.2-.1-.3-.1-.1 0-.2-.1-.3-.1-.1 0-.2-.1-.3-.1h-.1c-.1 0-.2-.1-.3-.1-.1 0-.2-.1-.3-.1h-.1c-.1 0-.2-.1-.3-.1h-.1c-.1 0-.1 0-.2-.1h-.2c-.1 0-.1 0-.2-.1h-.1c-.1 0-.1 0-.2-.1H379.6c-.1 0-.1 0-.2-.1h-.2c-.1 0-.1-.1-.2-.1h-.1c0-1.5-.6-1.8-1.3-2zm-22.9-7.1-.2 1c3.9.9 7.7 2 11.5 3.2l.3-1c-2.2-.7-4.3-1.3-6.5-1.9-.1 0-.2 0-.3-.1H358.1c-.1 0-.1 0-.2-.1-1.3-.6-2.3-.9-3.2-1.1zm-23.7-4.2-.1 1c3.9.4 7.9 1 11.8 1.7l.2-1c-.8-.1-1.7-.3-2.5-.4H339.1c-2.4-.4-4.8-.7-7.1-1H331.2c0-.3-.1-.3-.2-.3zm-21.8-1.2v1c3.3 0 6.6.1 9.8.2l.1-1c-2.6-.1-5.3-.2-7.9-.2h-2c.1 0 0 0 0 0z" style="fill:#6625f4"/><ellipse transform="rotate(-45.001 169.382 441.82)" class="st1" cx="169.4" cy="441.8" rx="29.9" ry="30"/><ellipse transform="rotate(-45.001 169.382 441.82)" class="st2" cx="169.4" cy="441.8" rx="29.9" ry="30"/><circle class="st1" cx="445.1" cy="445.1" r="29.9"/><circle class="st3" cx="445.1" cy="445.1" r="29.9"/><circle class="st1" cx="173.8" cy="171.9" r="29.9"/><circle class="st3" cx="173.8" cy="171.9" r="29.9"/><ellipse transform="rotate(-45.001 441.483 169.226)" class="st1" cx="441.5" cy="169.2" rx="29.9" ry="30"/><ellipse transform="rotate(-45.001 441.483 169.226)" class="st2" cx="441.5" cy="169.2" rx="29.9" ry="30"/><path id="path14" class="st4" d="m172 166.1 2.6-2.6 2.7 2.7 1.3-1.3c.6-.6 1.1-1.3 1.5-2.1.2-.4.4-.8.5-1.3-.9-.1-1.6-.5-2.3-1.1-.9-.7-1.8-1.9-1.9-3.1v-.6l.6-.1c1.5-.2 3.1.1 4.3 1 .7-1.3 1.9-2.3 3.3-2.7l.6-.2.2.6c.7 2.2-.4 4.1-2 5.6 3.4 7.8 1.1 15.4-4.8 21.3-3.1 3.1-7 4.7-11.3 3.6-.3-.1-.5-.2-.8-.2-1.7-.7-3.2-1.8-4.4-3.2l-.4-.4 2.2-2.2-2.7-2.7 2.6-2.6-2.6-2.6 5.2-5.2-2.6-2.6 3.1-3.1 5.1 5.1"/><defs><path id="SVGID_1_" d="m159 169.3 5.2 5.2-2.5 2.5 2.6 2.6-2.1 2.1c.1.1.1.2.2.3 1.3 1.5 2.9 2.6 4.5 3.2l.5.2c.3.1.6.1 1 .2.3 0 .5.1.7.1 3.2.2 6.3-1.3 8.8-3.8 5.7-5.7 8.1-13.2 4.5-21 1.7-1.4 2.8-3.2 2.1-5.2-1.7.5-2.8 2-3.3 3.2l-3.9-8-3 13.4-2.6 2.6-5.2-5.2-7.5 7.6z"/></defs><clipPath id="SVGID_2_"><use xlink:href="#SVGID_1_" style="overflow:visible"/></clipPath><g id="g16" style="clip-path:url(#SVGID_2_)"><g id="g18"><g id="g20" transform="translate(0 -22.866)"><path id="path22" class="st6" d="m162 184.3 2.2-2.2 2.2 2.2-2.2 2.2-2.2-2.2z"/><path id="path24" class="st7" d="m164.6 186.9 2.2-2.2 2.2 2.2-2.2 2.2-2.2-2.2z"/><path id="path26" class="st8" d="m164.3 186.1-1.9-1.9m2.3 1.6-1.9-1.9m2.2 1.5-1.9-1.9m2.3 1.6-1.9-1.9m2.2 1.5-1.9-1.9m2.2 1.6-1.9-1.9"/><path class="st8" d="m169.7 168.6-1.9-1.9m2.2 1.5-1.9-1.9m2.2 1.6-1.9-1.9m2.3 1.5-1.9-1.9m2.2 1.6-1.9-1.9m2.3 1.6-1.9-1.9" transform="translate(0 22.866)" id="use28"/></g><g id="use30"><path class="st6" d="m130.9-115.1 2.2 2.2 2.2-2.2-2.2-2.2-2.2 2.2z" transform="matrix(1 0 0 -1 22.866 27.439)"/><path class="st7" d="m133.5-117.7 2.2 2.2 2.2-2.2-2.2-2.2-2.2 2.2z" transform="matrix(1 0 0 -1 22.866 27.439)"/><path class="st8" d="m133.2-116.9-1.9 1.9m2.3-1.6-1.9 1.9m2.2-1.5-1.9 1.9m2.3-1.6-1.9 1.9m2.2-1.5-1.9 1.9m2.2-1.6-1.9 1.9" transform="matrix(1 0 0 -1 22.866 27.439)"/><path class="st8" d="m133.1-139.6-1.9 1.9m2.2-1.6-1.9 1.9m2.3-1.6-1.9 1.9m2.2-1.5-1.9 1.9m2.3-1.6-1.9 1.9m2.2-1.5-1.9 1.9" transform="matrix(1 0 0 -1 22.866 4.573)"/></g></g><g id="use32"><path class="st6" d="m242.8 170.6 2.2-2.2 2.2 2.2-2.2 2.2-2.2-2.2z" transform="translate(-91.464 22.866)"/><path class="st7" d="m245.4 173.2 2.2-2.2 2.3 2.3-2.2 2.2-2.3-2.3z" transform="translate(-91.464 22.866)"/><path class="st8" d="m245.1 172.4-1.9-1.9m2.3 1.5-1.9-1.9m2.2 1.6-1.9-1.9m2.3 1.6-1.9-1.9m2.2 1.5-1.9-1.9m2.2 1.6-1.9-1.9" transform="translate(-91.464 22.866)"/><path class="st8" d="m250.5 154.9-1.9-1.9m2.2 1.5-1.9-1.9m2.3 1.6-1.9-1.9m2.2 1.5-1.9-1.9m2.2 1.6-1.9-1.9m2.3 1.6-1.9-1.9" transform="translate(-91.464 45.732)"/><path class="st6" d="m201.4-91.1 2.2 2.2 2.2-2.2-2.2-2.2-2.2 2.2z" transform="matrix(1 0 0 -1 -68.598 73.17)"/><path class="st7" d="m203.9-93.6 2.2 2.2 2.2-2.2-2.2-2.2-2.2 2.2z" transform="matrix(1 0 0 -1 -68.598 73.17)"/><path class="st8" d="m203.7-92.8-1.9 1.9m2.2-1.6-1.9 1.9m2.3-1.6-1.9 1.9m2.2-1.5-1.9 1.9m2.2-1.6-1.9 1.9m2.3-1.6-1.9 1.9" transform="matrix(1 0 0 -1 -68.598 73.17)"/><path class="st8" d="m203.5-115.6-1.9 1.9m2.3-1.5-1.9 1.9m2.2-1.6-1.9 1.9m2.3-1.5-1.9 1.9m2.2-1.6-1.9 1.9m2.2-1.6-1.9 1.9" transform="matrix(1 0 0 -1 -68.598 50.305)"/></g><g id="use34"><path class="st6" d="m207.7 159.9 2.2-2.2 2.2 2.2-2.2 2.2-2.2-2.2z" transform="translate(-45.732 22.866)"/><path class="st7" d="m210.3 162.5 2.2-2.2 2.3 2.3-2.2 2.2-2.3-2.3z" transform="translate(-45.732 22.866)"/><path class="st8" d="m210.1 161.7-1.9-1.9m2.2 1.6-1.9-1.9m2.2 1.5-1.9-1.9m2.3 1.6-1.9-1.9m2.2 1.5-1.9-1.9m2.3 1.6-1.9-1.9" transform="translate(-45.732 22.866)"/><path class="st8" d="m215.4 144.2-1.9-1.9m2.2 1.5-1.9-1.9m2.3 1.6-1.9-1.9m2.2 1.6-1.9-1.9m2.3 1.5-1.9-1.9m2.2 1.6-1.9-1.9" transform="translate(-45.732 45.732)"/><path class="st6" d="m166.3-80.4 2.2 2.2 2.2-2.2-2.2-2.2-2.2 2.2z" transform="matrix(1 0 0 -1 -22.866 73.17)"/><path class="st7" d="m168.9-83 2.2 2.2 2.2-2.2-2.2-2.2-2.2 2.2z" transform="matrix(1 0 0 -1 -22.866 73.17)"/><path class="st8" d="m168.6-82.2-1.9 1.9m2.3-1.5-1.9 1.9m2.2-1.6-1.9 1.9m2.2-1.6-1.9 1.9m2.3-1.5-1.9 1.9m2.2-1.6-1.9 1.9" transform="matrix(1 0 0 -1 -22.866 73.17)"/><path class="st8" d="m168.5-104.9-1.9 1.9m2.2-1.5-1.9 1.9m2.2-1.6-1.9 1.9m2.3-1.6-1.9 1.9m2.2-1.5-1.9 1.9m2.3-1.6-1.9 1.9" transform="matrix(1 0 0 -1 -22.866 50.305)"/></g><g id="use36"><path class="st6" d="m172.7 149.2 2.2-2.2 2.2 2.2-2.2 2.2-2.2-2.2z" transform="translate(0 22.866)"/><path class="st7" d="m175.3 151.8 2.2-2.2 2.3 2.3-2.2 2.2-2.3-2.3z" transform="translate(0 22.866)"/><path class="st8" d="m175 151-1.9-1.9m2.2 1.6-1.9-1.9m2.3 1.5-1.9-1.9m2.2 1.6-1.9-1.9m2.3 1.6-1.9-1.9m2.2 1.5-1.9-1.9" transform="translate(0 22.866)"/><path class="st8" d="m180.3 133.5-1.9-1.9m2.3 1.6-1.9-1.9m2.2 1.5-1.9-1.9m2.3 1.6-1.9-1.9m2.2 1.5-1.9-1.9m2.3 1.6-1.9-1.9" transform="translate(0 45.732)"/><path class="st6" d="m131.2-69.7 2.2 2.2 2.2-2.2-2.2-2.2-2.2 2.2z" transform="matrix(1 0 0 -1 22.866 73.17)"/><path class="st7" d="M133.8-72.3 136-70l2.2-2.2-2.2-2.2-2.2 2.1z" transform="matrix(1 0 0 -1 22.866 73.17)"/><path class="st8" d="m133.6-71.5-1.9 1.9m2.2-1.5-1.9 1.9m2.2-1.6-1.9 1.9m2.3-1.6-1.9 1.9m2.2-1.5-1.9 1.9m2.3-1.6-1.9 1.9" transform="matrix(1 0 0 -1 22.866 73.17)"/><path class="st8" d="m133.4-94.2-1.9 1.9m2.2-1.6-1.9 1.9m2.3-1.5-1.9 1.9m2.2-1.6-1.9 1.9m2.3-1.5-1.9 1.9m2.2-1.6-1.9 1.9" transform="matrix(1 0 0 -1 22.866 50.305)"/></g></g><defs><path id="SVGID_3_" d="m159 169.3 5.2 5.2-2.5 2.5 2.6 2.6-2.1 2.1c.1.1.1.2.2.3 1.3 1.5 2.9 2.6 4.5 3.2l.5.2c.3.1.6.1 1 .2.3 0 .5.1.7.1 3.2.2 6.3-1.3 8.8-3.8 5.7-5.7 8.1-13.2 4.5-21 1.7-1.4 2.8-3.2 2.1-5.2-1.7.5-2.8 2-3.3 3.2l-3.9-8-3 13.4-2.6 2.6-5.2-5.2-7.5 7.6z"/></defs><clipPath id="SVGID_4_"><use xlink:href="#SVGID_3_" style="overflow:visible"/></clipPath><path id="path38" d="M181.4 158.7c-1.2-1.5-3.3-1.6-4.4-1.4.1 1.6 2.2 3.9 4.2 3.6-.1 1.2-.9 3-2.3 4.4l-16.8 16.8c1.3 1.6 8.3 8.3 8.3 8.3l24.6-24.6-10.5-10.2c-1.5.3-2.7 1.9-3.1 3.1" style="clip-path:url(#SVGID_4_);fill:#17b5eb"/><defs><path id="SVGID_5_" d="m159 169.3 5.2 5.2-2.5 2.5 2.6 2.6-2.1 2.1c.1.1.1.2.2.3 1.3 1.5 2.9 2.6 4.5 3.2l.5.2c.3.1.6.1 1 .2.3 0 .5.1.7.1 3.2.2 6.3-1.3 8.8-3.8 5.7-5.7 8.1-13.2 4.5-21 1.7-1.4 2.8-3.2 2.1-5.2-1.7.5-2.8 2-3.3 3.2l-3.9-8-3 13.4-2.6 2.6-5.2-5.2-7.5 7.6z"/></defs><clipPath id="SVGID_6_"><use xlink:href="#SVGID_5_" style="overflow:visible"/></clipPath><path id="path40" style="opacity:.17;clip-path:url(#SVGID_6_)" d="m164.1 183.9 6.4 6.4 24.6-24.6-6.4-6.4"/><defs><path id="SVGID_7_" d="m159 169.3 5.2 5.2-2.5 2.5 2.6 2.6-2.1 2.1c.1.1.1.2.2.3 1.3 1.5 2.9 2.6 4.5 3.2l.5.2c.3.1.6.1 1 .2.3 0 .5.1.7.1 3.2.2 6.3-1.3 8.8-3.8 5.7-5.7 8.1-13.2 4.5-21 1.7-1.4 2.8-3.2 2.1-5.2-1.7.5-2.8 2-3.3 3.2l-3.9-8-3 13.4-2.6 2.6-5.2-5.2-7.5 7.6z"/></defs><clipPath id="SVGID_8_"><use xlink:href="#SVGID_7_" style="overflow:visible"/></clipPath><path id="path42" d="M178.7 181c-2.3.8-4.1.7-5.6 0l-4.5 4.9 5.6.8 4.5-5.7" style="clip-path:url(#SVGID_8_);fill:#d4edf1"/><defs><path id="SVGID_9_" d="m159 169.3 5.2 5.2-2.5 2.5 2.6 2.6-2.1 2.1c.1.1.1.2.2.3 1.3 1.5 2.9 2.6 4.5 3.2l.5.2c.3.1.6.1 1 .2.3 0 .5.1.7.1 3.2.2 6.3-1.3 8.8-3.8 5.7-5.7 8.1-13.2 4.5-21 1.7-1.4 2.8-3.2 2.1-5.2-1.7.5-2.8 2-3.3 3.2l-3.9-8-3 13.4-2.6 2.6-5.2-5.2-7.5 7.6z"/></defs><clipPath id="SVGID_10_"><use xlink:href="#SVGID_9_" style="overflow:visible"/></clipPath><path id="path44" d="M181.5 158.5c.7 5.4 0 11.5-2.3 16.5-2 4.5-4.8 7.3-7.8 8.3-.3.1-.7.2-1 .3-2.4.4-4.9-.4-7-2.7l-1.1 1.1 8.3 8.3 24.6-24.6-10.9-10.9-2.8 2.8v.9z" style="opacity:8.500000e-02;clip-path:url(#SVGID_10_)"/><path id="path46" d="M168.6 185.7c1.7-1.5 3.4-3.2 4.4-5.2" style="fill:none;stroke:#394d54;stroke-linecap:round"/><path id="path48" d="M173.8 178.2c.4.4.3.9 0 1.2-.4.4-.9.3-1.2 0-.4-.4-.3-.9 0-1.2.3-.4.9-.4 1.2 0z" style="fill:#d4edf1"/><path id="path50" class="st4" d="M173 178.2c0 .1 0 .2.1.2.1.1.3.1.4 0 .1-.1.1-.2.1-.2.1 0 .1.1.2.1.2.2.2.6 0 .9-.2.2-.6.2-.9 0-.2-.2-.2-.6 0-.9-.1 0 0 0 .1-.1z"/><path id="path52" class="st4" d="m160.3 187.9 28.8-28.9c-.8.5-2.4 1.6-3 .6.2 2.5-3 4.8-4.3 4.9.4 1.9-4.6 6-5.8 5.4.2 2.1-2.8 5.1-4.9 5 .6 1.2-3.5 6.1-5.4 5.8 0 1.3-2.4 4.5-4.9 4.3 1.2.5 0 2.1-.5 2.9"/><path class="st15" d="m430.5 163.3 2.9-6.6c1.3-2.9 4.6-4.2 7.5-3l13.2 5.7c2.9 1.3 4.2 4.6 3 7.5l-5.7 13.2c-1.3 2.9-4.6 4.2-7.5 3l-18.4-8"/><path d="m435.9 160.5-.4 1 3.1 1.3-3.8 8.7 2.2.9 3.8-8.7 3.1 1.3.4-1 .4-1s-1.9-.8-4.1-1.8l-4.2-1.8-.5 1.1zm14.2 5c.5.4.9.9 1.1 1.5.1.3.3.9.2 1 0 0-1.3.3-2.1.4 0 0-.1-.1-.1-.3-.1-.6-.3-.9-.8-1.1-.7-.3-1.3-.2-1.6.5-.1.2-.1.3-.1.5 0 .4.2.7 1 1.5 1.4 1.5 1.9 2.3 2.1 3.1.2 1-.2 2.2-1 3-.8.8-2 1.1-3.4.7-.4-.1-1.4-.5-1.8-.8-.9-.6-1.6-1.5-1.9-2.3-.1-.3-.3-1.2-.2-1.2h.3l1.1-.1.8-.1.1.3c.1.4.3 1 .5 1.3.6.7 1.6 1.1 2.4.9.3-.1.5-.3.6-.6.1-.3.1-.4.1-.7-.1-.3-.4-.7-1.2-1.7-1-1.1-1.4-1.6-1.6-2.3-.1-.4-.2-1-.1-1.4.1-.4.4-1.2.6-1.5.8-1.1 2-1.5 3.4-1.2.3-.1 1.3.3 1.6.6z" style="fill:#fff"/><path d="M176.7 452.2c-.3.2-.7.3-1 .3h-3.8c-.6 0-.4-.2-.3-.3.5-.5.5-.6.9-1.3 0-.1.1-.1.2-.1h2.9c.1 0 .2-.1.2-.1l5.6-9.9c.1-.1.1-.2 0-.3l-5.8-9.8c-.1-.1-.2-.2-.3-.2l-11.4.1c-.1 0-.2.1-.2.1l-5.6 9.9c-.1.1 0 .2 0 .3l5.8 9.8c0 .1.2.2.3.2h3.1c1.6-.1 2-1.3 1.5-2.1l-5.7-9.7c-.1-.1 0-.3.1-.4l1.1-.6c.1-.1.3 0 .4.1l5.7 9.7c1 1.7.7 3.2-.9 4.1-.5.3-.9.5-2.3.6l-3 .1c-.7 0-1.4-.4-1.8-1l-5.8-9.8c-.4-.6-.4-1.4 0-2.1l5.6-9.9c.3-.6 1.1-1 1.8-1.1l11.4-.1c.7 0 1.4.4 1.8 1l5.8 9.8c.4.6.4 1.4 0 2.1l-5.6 9.9c-.2.3-.4.5-.7.7zm-1.4-8.3c-3.7 2.2-5.5 1-6.4-.5-.1-.1 0-.3.1-.4l1.1-.7c.1-.1.3-.1.4.1.8 1 1.7 1.3 3.9 0 1.8-1.1 2.3-1.9 1.8-2.9-.3-.6-.8-.8-3.7.5-2.5 1.1-4.2 1.5-5.3-.4-1-1.7-.2-3.6 2.2-5 2.7-1.6 4.6-1.5 6 .5v.2c0 .1-.1.1-.1.2l-1.1.7c-.1.1-.3 0-.3-.1-.9-1-1.8-1-3.6 0-2 1.2-1.8 2-1.5 2.5.4.6.8.6 3.6-.6s4.3-1.5 5.4.4c1.1 1.9.2 3.9-2.5 5.5z" style="fill:#4ebf32"/><path d="m457.6 437.9-3.8-3.7c-.4-.4-1.1-.5-1.7-.3l-19.4 8.5c-.5.2-.7.9-.5 1.4l.8 1.5c.2.4.7.6 1.1.4l22.5-7.5c.8-.3 1.5.5 1.2 1.2v-.1c.4-.4.2-1-.2-1.4z" style="fill:#0065a9"/><path class="st15" d="m451.8 455.2-5.3.7c-.6.1-1.2-.2-1.5-.8l-10.3-18.6c-.3-.5-.1-1.1.5-1.4l1.6-.7c.4-.2.9 0 1.2.3l13.3 19.6c.4.7 1.5.5 1.7-.2v.1c-.2.5-.7.9-1.2 1z"/><path d="M446.5 455.8c-.6.1-1.2-.2-1.5-.8.3.7 1.3.6 1.6-.1l6.7-20c.2-.7-.5-1.4-1.2-1 .6-.3 1.2-.2 1.7.3l3.8 3.7c.4.4.5 1 .4 1.5l-5 14.8c-.2.5-.6.9-1.2 1l-5.3.6z" style="fill:#1f9cf0"/><g style="opacity:.25"><linearGradient id="SVGID_11_" gradientUnits="userSpaceOnUse" x1="444.101" y1="431.166" x2="444.101" y2="454.284" gradientTransform="rotate(18.674 443.176 443.937)"><stop offset="0" style="stop-color:#fff"/><stop offset="1" style="stop-color:#fff;stop-opacity:0"/></linearGradient><path d="M445.4 455.5c.3.3.7.4 1.1.3l5.3-.6c.6-.1 1-.5 1.2-1l5-14.8c.2-.5 0-1.1-.4-1.5l-3.8-3.7c-.4-.4-.9-.5-1.4-.4-.1 0-.1.1-.2.1l-11.4 5-2.8-4.1c-.3-.4-.8-.5-1.2-.3l-1.6.7c-.5.2-.7.9-.5 1.4l2.3 4.1-4.3 1.9c-.5.2-.7.9-.5 1.4l.8 1.5c.2.4.7.6 1.1.4l4.7-1.6 6 10.9c.3 0 .4.2.6.3zm6.3-15.6-8.3 2.8 4.9 7.2 3.4-10z" style="fill-rule:evenodd;clip-rule:evenodd;fill:url(#SVGID_11_)"/></g></svg>