<?xml version="1.0" encoding="UTF-8" standalone="no"?>
<svg
   version="1.1"
   id="Layer_1"
   x="0"
   y="0"
   viewBox="0 0 618 618"
   style="enable-background:new 0 0 618 618"
   xml:space="preserve"
   sodipodi:docname="vulk-chart-2.svg"
   inkscape:version="1.1.2 (0a00cf5339, 2022-02-04)"
   xmlns:inkscape="http://www.inkscape.org/namespaces/inkscape"
   xmlns:sodipodi="http://sodipodi.sourceforge.net/DTD/sodipodi-0.dtd"
   xmlns="http://www.w3.org/2000/svg"
   xmlns:svg="http://www.w3.org/2000/svg"><defs
     id="defs15" /><sodipodi:namedview
     id="namedview13"
     pagecolor="#ffffff"
     bordercolor="#666666"
     borderopacity="1.0"
     inkscape:pageshadow="2"
     inkscape:pageopacity="0.0"
     inkscape:pagecheckerboard="0"
     showgrid="false"
     inkscape:snap-global="false"
     inkscape:zoom="1.1634304"
     inkscape:cx="308.57024"
     inkscape:cy="309"
     inkscape:window-width="3338"
     inkscape:window-height="1411"
     inkscape:window-x="1920"
     inkscape:window-y="0"
     inkscape:window-maximized="1"
     inkscape:current-layer="Layer_1" /><style
     id="style2">.st2{fill:#7703fc}</style><circle
     cx="309"
     cy="309.3"
     r="67.7"
     style="fill:#0b0b0c"
     id="circle4" /><path
     d="M309 242.1c37.1 0 67.2 30.2 67.2 67.2S346 376.5 309 376.5s-67.2-30.2-67.2-67.2 30.1-67.2 67.2-67.2m0-1c-37.7 0-68.2 30.5-68.2 68.2s30.5 68.2 68.2 68.2 68.2-30.5 68.2-68.2-30.5-68.2-68.2-68.2z"
     style="fill:#3c3c42"
     id="path6" /><g
     id="g430"
     transform="matrix(0.19430501,0,0,0.19430501,508.39221,203.52074)"
     inkscape:export-filename="/home/kim/Downloads/q.png"
     inkscape:export-xdpi="200.13667"
     inkscape:export-ydpi="200.13667"><path
       inkscape:export-ydpi="12.45"
       inkscape:export-xdpi="12.45"
       sodipodi:nodetypes="ccccccccccccccccccccccccccscccccsssccc"
       id="path1113"
       style="color:#000000;font-style:normal;font-variant:normal;font-weight:bold;font-stretch:semi-condensed;font-size:88.7253px;line-height:125%;font-family:'DejaVu Sans';-inkscape-font-specification:'DejaVu Sans Bold Semi-Condensed';text-align:start;letter-spacing:-10.8283px;writing-mode:lr-tb;text-anchor:start;display:inline;overflow:visible;visibility:visible;opacity:1;fill:#427641;fill-opacity:0.644231;fill-rule:nonzero;stroke:none;stroke-width:20.0759;marker:none;enable-background:accumulate"
       d="m -1070.799,465.47639 c -11.7356,-6.72674 -21.2747,-8.46553 -28.6175,-5.21628 -2.1187,0.94768 -4.0479,2.31323 -5.7873,4.09666 -5.8185,5.81515 -9.2795,15.8376 -10.3831,30.06736 -0.2891,3.75044 -0.4157,7.72702 -0.3791,11.92973 0.1557,17.62307 3.174,33.16667 9.0542,46.63082 0.8824,2.01163 1.8283,3.97402 2.8376,5.88713 7.5928,14.25532 18.249,25.24166 31.9685,32.95893 0.4991,0.28525 1.0011,0.56461 1.506,0.83843 11.1551,6.35469 20.2616,8.22187 27.3194,5.60149 2.7163,-0.98871 5.1278,-2.61796 7.2343,-4.88774 5.6062,-5.57835 9.0372,-14.9668 10.2931,-28.16537 0.4029,-4.27895 0.5794,-8.86957 0.5294,-13.77179 -0.1769,-16.92267 -3.0436,-31.95303 -8.6002,-45.09111 -1.0937,-2.58315 -2.2913,-5.08885 -3.5928,-7.51706 -7.2191,-13.65211 -17.4662,-24.36335 -30.7414,-32.13376 -0.8655,-0.42367 -1.7459,-0.83309 -2.6412,-1.22763 m 45.6506,165.28782 c -4.772,3.83189 -9.792,6.69213 -15.0598,8.58066 -4.1324,1.46957 -8.4273,2.30677 -12.8847,2.51167 -6.9575,0.74663 -14.5647,-0.16511 -22.8218,-2.73591 -5.5764,-1.70162 -11.4808,-4.12801 -17.7132,-7.27923 -21.6066,-9.95759 -39.9838,-25.62196 -55.1318,-46.99317 -2.3601,-3.23378 -4.6492,-6.59292 -6.867,-10.07744 -17.3176,-27.69366 -26.8629,-57.80956 -28.636,-90.34771 -0.1997,-0.68439 -0.3905,-1.36649 -0.5722,-2.04638 -1.8047,-28.67036 0.604,-52.63105 12.6675,-68.11405 11.9162,-15.29416 31.5676,-24.94569 48.8971,-22.80815 44.9881,15.73957 66.7657,27.77028 102.8695,84.15027 -0.1181,-8.27431 -0.7868,-29.05535 -0.7868,-29.05535 0,0 29.27759,13.47531 46.41624,21.02857 5.95341,2.62373 10.57983,5.16393 11.49093,6.30723 2.59136,3.25166 7.57223,221.53784 7.57223,250.03538 v 5.55773 c 0,10.65415 -45.9414,32.83709 -57.651,27.67647 -1.7103,-0.75374 -2.849,-1.38484 -3.1246,-1.73059 -1.8106,-2.27196 -8.6648,-103.55579 -8.6648,-103.55579 v -0.64889"
       inkscape:connector-curvature="0" /><path
       inkscape:export-ydpi="12.45"
       inkscape:export-xdpi="12.45"
       id="path1665"
       style="color:#000000;font-style:normal;font-variant:normal;font-weight:bold;font-stretch:semi-condensed;font-size:88.7253px;line-height:125%;font-family:'DejaVu Sans';-inkscape-font-specification:'DejaVu Sans Bold Semi-Condensed';text-align:start;letter-spacing:-10.8283px;writing-mode:lr-tb;text-anchor:start;display:inline;overflow:visible;visibility:visible;opacity:0.571;fill:#286058;fill-opacity:0.715385;fill-rule:nonzero;stroke:none;stroke-width:20.0759;marker:none;enable-background:accumulate"
       d="m -1074.437,489.0378 c -15.6725,-5.58133 -27.8391,-4.67818 -36.4998,2.7095 -1.5773,1.37535 -3.0193,2.96603 -4.3259,4.77206 -5.965,8.21257 -9.0894,20.69943 -9.3731,37.46048 -0.065,3.70579 0.01,7.36536 0.2239,10.97869 0.9836,16.7046 4.9466,30.95745 11.8891,42.7585 0.9336,1.56606 1.9152,3.08111 2.9447,4.54504 8.5452,12.13395 20.2167,20.70704 35.0145,25.71936 0.1967,0.0682 0.393,0.13594 0.5889,0.20219 15.6955,5.48596 27.7579,4.57151 36.1873,-2.74342 1.7473,-1.48357 3.3297,-3.22383 4.7475,-5.22084 5.8715,-8.16362 8.9591,-20.45472 9.263,-36.87324 0.075,-3.94756 -0.01,-7.84368 -0.2591,-11.68833 -1.0527,-16.41856 -5.0511,-30.4757 -11.9951,-42.17134 -1.0355,-1.75897 -2.1344,-3.4547 -3.2968,-5.08721 -8.3866,-11.84889 -20.0033,-20.30213 -34.8499,-25.35977 -3e-4,0 -6e-4,1.6e-4 -10e-4,1.6e-4 m 39.4106,131.75828 c -0.268,0.21703 -0.537,0.43109 -0.8067,0.64153 m 11.1037,28.22951 c -9.8451,8.24895 -20.5727,13.17074 -32.1828,14.76538 -3.5599,0.51912 -7.2708,0.73002 -11.1325,0.63263 -9.6611,-0.1285 -20.3563,-2.1243 -32.0858,-5.98693 -4.8727,-1.59386 -9.6712,-3.43048 -14.3955,-5.50999 -24.1022,-10.37299 -44.3715,-27.30906 -60.8081,-50.80821 -1.188,-1.70172 -2.344,-3.42021 -3.468,-5.15534 -16.5072,-25.69736 -25.0901,-53.94905 -25.7486,-84.75508 -0.035,-1.69973 -0.05,-3.40042 -0.04,-5.10194 0.1894,-33.08875 9.4059,-56.88982 27.6493,-71.40334 1.3413,-1.05258 2.7125,-2.04258 4.1137,-2.97004 17.7211,-11.8657 39.698,-13.42074 65.9305,-4.66512 5.5908,1.79717 11.0406,3.8665 16.3494,6.20781 10.4754,4.60808 20.0379,10.23438 28.6878,16.87896 3.9099,2.94897 7.7022,6.16921 11.3768,9.66068 9.0996,8.55848 17.6265,18.84694 25.5805,30.86549 0.3308,0.32925 0.6571,-1.66899 0.9791,-4.59438 0,-7.68924 0,-23.84278 0,-25.72712 0,-0.7535 1.7473,-0.51082 4.6472,0.7672 14.1416,6.23242 66.89121,24.54521 71.05184,24.54521 0.94937,0 1.5324,2.15855 1.5324,6.06934 0,37.64192 0,293.45814 0,297.57527 0,0.1577 -0.30452,0.10526 -0.87041,-0.14435 -7.3989,-3.2608 -73.08963,-26.20965 -75.86923,-26.20965 -0.3159,0 -0.4919,-0.68839 -0.4919,-1.94653 0,-13.34026 0,-113.63164 0,-113.63164"
       inkscape:connector-curvature="0" /><path
       inkscape:export-ydpi="12.45"
       inkscape:export-xdpi="12.45"
       d="m -916.74082,424.62982 q 5.74474,-21.23893 8.84243,-16.38074 3.04132,5.06624 3.04132,36.13387 0,31.06755 -3.04132,58.62205 -3.09769,27.76282 -8.84243,49.00175 -5.85737,21.65532 -8.89874,16.58896 -3.09762,-4.85806 -3.09762,-35.92561 0,-31.06764 3.09762,-58.83036 3.04137,-27.5546 8.89874,-49.20992 z m -11.99636,185.12658 q 3.77351,5.27196 8.27921,-2.45407 4.50565,-7.72603 10.47567,-29.79779 10.47573,-38.72974 17.23431,-95.56098 6.70216,-56.81711 6.70216,-107.10764 0,-50.29064 -6.70216,-57.16197 -6.75858,-6.85725 -17.23431,31.8725 -5.97002,22.07181 -10.47567,47.66169 -4.5057,25.5899 -8.27921,58.76393 v -32.23264 l -18.24808,67.46477 v 300.19027 l 18.24808,-67.46482 z"
       style="color:#000000;font-style:normal;font-variant:normal;font-weight:bold;font-stretch:semi-condensed;font-size:43.3232px;line-height:125%;font-family:'DejaVu Sans';-inkscape-font-specification:'DejaVu Sans Bold Semi-Condensed';text-align:start;letter-spacing:-5.28729px;writing-mode:lr-tb;text-anchor:start;display:inline;overflow:visible;visibility:visible;fill:#4400aa;fill-opacity:0.644231;fill-rule:nonzero;stroke:none;stroke-width:9.80277;marker:none;enable-background:accumulate"
       id="path1380"
       inkscape:connector-curvature="0" /><path
       id="path2592"
       style="color:#000000;font-style:normal;font-variant:normal;font-weight:bold;font-stretch:semi-condensed;font-size:38.8968px;line-height:125%;font-family:'DejaVu Sans';-inkscape-font-specification:'DejaVu Sans Bold Semi-Condensed';text-align:start;letter-spacing:-4.74709px;writing-mode:lr-tb;text-anchor:start;display:inline;overflow:visible;visibility:visible;opacity:1;fill:#5000a1;fill-opacity:0.644231;fill-rule:nonzero;stroke:none;stroke-width:8.80121;marker:none;enable-background:accumulate"
       d="m -927.66261,418.8004 c 2.4041,-14.06123 4.25906,-19.55945 5.565,-16.49465 0.01,0.0198 0.0198,0.0445 0.0247,0.0667 1.27326,3.31065 1.91775,15.0889 1.93342,35.33466 1.5e-4,0.19972 2.5e-4,0.39994 3e-4,0.60069 0.003,20.35591 -0.62175,39.5919 -1.87499,57.70794 -0.0148,0.19181 -0.0247,0.38312 -0.0396,0.57434 -1.30332,18.33592 -3.16422,34.5473 -5.58265,48.63414 -0.005,0.0396 -0.0148,0.0831 -0.0198,0.12458 -2.41892,14.18868 -4.26949,19.77692 -5.5517,16.76471 -0.0247,-0.0549 -0.0445,-0.1132 -0.0697,-0.17401 -1.3005,-3.19734 -1.96052,-14.86362 -1.98004,-34.99885 -2e-4,-0.24421 -3.5e-4,-0.48941 -4e-4,-0.73525 -0.004,-20.31018 0.62892,-39.57297 1.89892,-57.78836 0.0148,-0.23383 0.0346,-0.46766 0.0494,-0.7009 1.27514,-18.14881 3.14014,-34.38936 5.59501,-48.72155 3e-4,-9.9e-4 5.5e-4,-0.002 8.4e-4,-0.003 m 2.05281,35.8261 c -0.01,0.0148 -0.0198,0.0297 -0.0297,0.0395 m -9.59711,148.10127 c 1.48559,3.23051 3.10583,2.5748 4.86075,-1.96713 0.10974,-0.26844 0.21949,-0.55062 0.33022,-0.84679 1.88973,-5.15983 4.08708,-14.8866 6.59198,-29.18028 0.0297,-0.1844 0.0643,-0.36978 0.0964,-0.55556 4.43629,-25.74863 8.08404,-57.44464 10.94324,-95.08799 0.005,-0.0989 0.0148,-0.19774 0.0198,-0.29661 2.81382,-37.58887 4.21903,-72.98676 4.21571,-106.19372 -5e-5,-0.1488 -1e-4,-0.29711 -1.5e-4,-0.44541 -0.0148,-32.18409 -1.31196,-50.81188 -3.88998,-55.88342 -0.0835,-0.1834 -0.16857,-0.34802 -0.25558,-0.49386 -2.83092,-4.1378 -6.44327,6.34233 -10.8371,31.44033 -0.0445,0.26399 -0.0919,0.52896 -0.13842,0.79547 -2.51691,14.58258 -4.72628,30.30233 -6.62801,47.15929 -0.01,0.0954 -0.0198,0.19082 -0.0297,0.28623 -1.90624,16.98391 -3.65729,36.46688 -5.25322,58.44902 7.9e-4,0.01 0.002,-0.0198 0.002,-0.0786 0,-1.76054 0,-31.54058 0,-31.90843 0,-0.003 5e-5,-0.004 1.4e-4,-0.004 0.0198,0.0969 -11.93709,65.68331 -11.59178,67.20276 0.0247,0.10628 0.0346,0.39944 0.0346,0.85751 0,13.83032 0,287.79288 0,297.1703 0,0.20812 -0.005,0.2887 -0.0148,0.23926 -0.23235,-1.02143 11.84771,-66.07666 11.59252,-67.19964 -0.0148,-0.0603 -0.0198,-0.22394 -0.0198,-0.47903 0,-6.43759 0,-113.02101 0,-113.02101"
       inkscape:connector-curvature="0" /><path
       id="path2590"
       style="color:#000000;font-style:normal;font-variant:normal;font-weight:bold;font-stretch:semi-condensed;font-size:38.8968px;line-height:125%;font-family:'DejaVu Sans';-inkscape-font-specification:'DejaVu Sans Bold Semi-Condensed';text-align:start;letter-spacing:-4.74709px;writing-mode:lr-tb;text-anchor:start;display:inline;overflow:visible;visibility:visible;opacity:1;fill:#5c0099;fill-opacity:0.644231;fill-rule:nonzero;stroke:none;stroke-width:8.80121;marker:none;enable-background:accumulate"
       d="m -938.73844,417.68202 c 1.00453,-14.06005 1.78121,-19.57448 2.33005,-16.54339 0.003,0.0247 0.005,0.0445 0.01,0.0687 0.53875,3.27683 0.81401,14.99012 0.82577,35.13983 10e-5,0.19873 2e-4,0.39747 3e-4,0.59704 0.005,20.21753 -0.25113,39.3418 -0.77218,57.3728 -0.005,0.18984 -0.01,0.38016 -0.0148,0.56965 -0.5476,18.21757 -1.33313,34.34793 -2.35659,48.39112 -0.003,0.0395 -0.005,0.0835 -0.01,0.12507 -1.00354,14.20129 -1.77533,19.79002 -2.31546,16.76615 -0.01,-0.0549 -0.0198,-0.11272 -0.0297,-0.17352 -0.56065,-3.19477 -0.84826,-14.79862 -0.8629,-34.81169 -1.9e-4,-0.24272 -3.4e-4,-0.48644 -4.4e-4,-0.7309 -0.01,-20.17156 0.25113,-39.32218 0.77841,-57.4518 0.005,-0.23235 0.0148,-0.4647 0.0198,-0.6964 0.53406,-18.03101 1.31968,-34.18984 2.35699,-48.4765 2e-4,-7.9e-4 4e-4,-0.002 6.4e-4,-0.002 m 4.04096,71.89171 c -0.0198,0.0297 -0.0395,0.0559 -0.0569,0.0826 m -7.19781,111.07597 c 0.59921,3.14721 1.25077,2.3737 1.95473,-2.3205 0.0494,-0.27091 0.0984,-0.55516 0.14732,-0.85321 0.81385,-5.23438 1.76707,-14.94138 2.85964,-29.12092 0.0148,-0.1839 0.0297,-0.36829 0.0395,-0.55298 1.88878,-25.67744 3.43952,-57.2158 4.65218,-94.61499 0.003,-0.0984 0.005,-0.19675 0.01,-0.29463 1.1829,-37.41051 1.77103,-72.60315 1.76431,-105.57796 0,-0.1483 -5e-5,-0.29611 -10e-5,-0.44393 -0.01,-32.23906 -0.51818,-50.75972 -1.52004,-55.56193 -0.0247,-0.17995 -0.0445,-0.33962 -0.0692,-0.47854 -1.20277,-3.75151 -2.75509,6.85082 -4.65683,31.807 -0.0198,0.26299 -0.0396,0.52698 -0.0593,0.7921 -1.07616,14.53325 -2.01984,30.18131 -2.83097,46.94419 -0.005,0.0949 -0.01,0.19033 -0.0148,0.28525 -0.80867,16.90788 -1.55109,36.28595 -2.22727,58.13411 0.002,0.0148 0.003,0.005 0.005,-0.0297 0,-1.32042 0,-31.44364 0,-31.71949 0,-0.002 10e-5,-0.003 3e-4,-0.002 0.0445,0.19428 -5.6261,63.90185 -4.93554,66.9407 0.0494,0.21257 0.0742,0.50385 0.0742,0.84723 0,10.3728 0,288.37844 0,295.41148 0,0.15622 -0.01,0.18439 -0.0346,0.0855 -0.4642,-2.04287 5.44734,-64.68847 4.93692,-66.93452 -0.0297,-0.12013 -0.0396,-0.28277 -0.0396,-0.47359 0,-4.82817 0,-112.35294 0,-112.35294"
       inkscape:connector-curvature="0" /><path
       id="path2588"
       style="color:#000000;font-style:normal;font-variant:normal;font-weight:bold;font-stretch:semi-condensed;font-size:38.8968px;line-height:125%;font-family:'DejaVu Sans';-inkscape-font-specification:'DejaVu Sans Bold Semi-Condensed';text-align:start;letter-spacing:-4.74709px;writing-mode:lr-tb;text-anchor:start;display:inline;overflow:visible;visibility:visible;opacity:1;fill:#680090;fill-opacity:0.644231;fill-rule:nonzero;stroke:none;stroke-width:8.80121;marker:none;enable-background:accumulate"
       d="m -949.81421,416.56359 c -0.39499,-14.05881 -0.69675,-19.5895 -0.90497,-16.59203 -0.002,0.0247 -0.004,0.0445 -0.005,0.0702 -0.19577,3.24297 -0.28969,14.8913 -0.28178,34.94496 10e-5,0.19774 1.5e-4,0.39548 2.4e-4,0.59342 0.01,20.07917 0.12013,39.09166 0.33073,57.03759 0.002,0.18835 0.004,0.3767 0.005,0.56505 0.20812,18.09917 0.49801,34.1485 0.86952,48.14804 10e-4,0.0395 0.002,0.0835 0.004,0.12507 0.4118,14.21389 0.71884,19.80307 0.92078,16.76753 0.004,-0.0549 0.01,-0.11221 0.0148,-0.17302 0.17945,-3.19215 0.26398,-14.73361 0.25409,-34.62447 -9e-5,-0.24174 -2.4e-4,-0.48398 -3.9e-4,-0.72665 -0.01,-20.0329 -0.12606,-39.0713 -0.3421,-57.1152 -0.003,-0.23087 -0.005,-0.46124 -0.01,-0.69185 -0.20714,-17.91325 -0.50073,-33.99042 -0.88104,-48.2315 1.5e-4,-5.4e-4 3e-4,-10e-4 3.9e-4,-0.002 m 6.02911,107.95738 c -0.0297,0.0445 -0.0564,0.0835 -0.085,0.12359 m -4.79856,74.05066 c -0.28722,3.06387 -0.6043,2.17254 -0.95133,-2.67391 -0.01,-0.27289 -0.0247,-0.55966 -0.0346,-0.85969 -0.26201,-5.30887 -0.55298,-14.99606 -0.87273,-29.06149 -0.005,-0.18291 -0.01,-0.36632 -0.0148,-0.55042 -0.65878,-25.6063 -1.20509,-56.98696 -1.63889,-94.14199 -10e-4,-0.0979 -0.002,-0.19527 -0.004,-0.29315 -0.44788,-37.23204 -0.67702,-72.21947 -0.68705,-104.96218 -5e-5,-0.14781 -10e-5,-0.29513 -10e-5,-0.44245 -0.01,-32.29408 0.27585,-50.70757 0.84989,-55.24046 0.0396,-0.17697 0.0781,-0.33121 0.11717,-0.46271 0.42514,-3.36522 0.93304,7.35936 1.5234,32.17371 0.005,0.262 0.0148,0.525 0.0198,0.78874 0.36434,14.48391 0.68656,30.06024 0.96602,46.72905 0.002,0.0949 0.003,0.18983 0.005,0.28475 0.2887,16.83184 0.55516,36.10491 0.79873,57.81921 0.002,0.0247 0.005,0.0346 0.005,0.0247 0,-0.88029 0,-31.3467 0,-31.53065 0,-10e-4 10e-5,-0.002 4e-4,-2.9e-4 0.0662,0.29117 0.68487,62.12029 1.72075,66.67864 0.0727,0.31886 0.11123,0.60801 0.11123,0.83694 0,6.91519 0,288.96396 0,293.65262 0,0.10431 -0.0198,0.0796 -0.0514,-0.0687 -0.69635,-3.06431 -0.95306,-63.30037 -1.71862,-66.6694 -0.0395,-0.18044 -0.0623,-0.34111 -0.0623,-0.46865 0,-3.2188 0,-111.68497 0,-111.68497"
       inkscape:connector-curvature="0" /><path
       id="path2586"
       style="color:#000000;font-style:normal;font-variant:normal;font-weight:bold;font-stretch:semi-condensed;font-size:38.8968px;line-height:125%;font-family:'DejaVu Sans';-inkscape-font-specification:'DejaVu Sans Bold Semi-Condensed';text-align:start;letter-spacing:-4.74709px;writing-mode:lr-tb;text-anchor:start;display:inline;overflow:visible;visibility:visible;opacity:1;fill:#740088;fill-opacity:0.644231;fill-rule:nonzero;stroke:none;stroke-width:8.80121;marker:none;enable-background:accumulate"
       d="m -960.89004,415.44521 c -1.79465,-14.05762 -3.17464,-19.60453 -4.13992,-16.64077 -0.01,0.0247 -0.0148,0.0494 -0.0247,0.0717 -0.93023,3.20915 -1.39339,14.79253 -1.38948,34.75008 5e-5,0.19676 1.5e-4,0.39302 2.4e-4,0.58982 0.0148,19.94079 0.4909,38.84162 1.43353,56.70241 0.01,0.18687 0.0198,0.37373 0.0297,0.5604 0.96389,17.98083 2.3291,33.94914 4.09558,47.90497 0.005,0.0396 0.01,0.0836 0.0148,0.12557 1.82733,14.2265 3.21301,19.81617 4.15698,16.76896 0.0198,-0.0544 0.0346,-0.11221 0.0539,-0.17252 0.91916,-3.18953 1.37629,-14.6686 1.37144,-34.43731 -9e-5,-0.24075 -1.9e-4,-0.48151 -3.9e-4,-0.72231 -0.0148,-19.89427 -0.50385,-38.8205 -1.46265,-56.77864 -0.01,-0.22938 -0.0247,-0.45827 -0.0346,-0.68735 -0.94813,-17.79544 -2.32115,-33.79094 -4.11907,-47.98649 5e-5,-2.5e-4 1.5e-4,-4.9e-4 2e-4,-7.4e-4 m 8.01725,144.02304 c -0.0396,0.0568 -0.0756,0.11173 -0.11321,0.16462 m -2.39925,37.02531 c -1.1736,2.98057 -2.45937,1.97149 -3.85735,-3.02723 -0.0717,-0.27536 -0.14435,-0.56421 -0.21752,-0.86616 -1.33797,-5.38343 -2.87299,-15.05083 -4.60506,-29.00212 -0.0247,-0.18242 -0.0445,-0.36484 -0.0687,-0.54785 -3.20634,-25.53511 -5.84965,-56.75808 -7.92995,-93.66899 -0.005,-0.0969 -0.01,-0.19428 -0.0148,-0.29117 -2.07886,-37.05369 -3.12496,-71.83581 -3.13836,-104.34647 -10e-5,-0.14682 -10e-5,-0.29414 -1.5e-4,-0.44096 -0.004,-32.34906 1.06949,-50.65541 3.21993,-54.91898 0.10036,-0.17401 0.20121,-0.32331 0.30354,-0.4469 2.05335,-2.97893 4.62118,7.86786 7.70358,32.54037 0.0346,0.26102 0.0658,0.52298 0.0984,0.78544 1.80533,14.43452 3.393,29.93912 4.76306,46.5139 0.01,0.0944 0.0148,0.18884 0.0247,0.28376 1.38652,16.75582 2.66141,35.92393 3.82473,57.50431 0.003,0.0346 0.005,0.0583 0.01,0.0746 0,-0.43997 0,-31.24975 0,-31.3417 0,-7e-4 1.9e-4,-2.5e-4 5.4e-4,10e-4 0.088,0.38807 6.99586,60.33884 8.37704,66.41664 0.0969,0.42564 0.14831,0.71216 0.14831,0.82661 0,3.45761 0,289.54947 0,291.89385 0,0.0519 -0.0247,-0.0247 -0.0687,-0.22246 -0.92849,-4.08575 -7.35343,-61.91217 -8.37422,-66.40428 -0.0549,-0.24025 -0.0835,-0.39993 -0.0835,-0.46321 0,-1.60937 0,-111.01689 0,-111.01689"
       inkscape:connector-curvature="0" /><path
       inkscape:export-ydpi="12.45"
       inkscape:export-xdpi="12.45"
       d="m -972.1199,419.03777 q -4.79134,-21.08453 -7.37489,-16.68946 -2.53658,4.6018 -2.53658,34.62866 0,30.02688 2.53658,56.95341 2.58355,27.13321 7.37489,48.2177 4.88532,21.49791 7.42185,16.89611 2.58355,-4.39516 2.58355,-34.42204 0,-30.02687 -2.58355,-57.16009 -2.53653,-26.92642 -7.42185,-48.42429 z m 10.0054,180.08871 q -3.14721,4.72945 -6.9051,-3.17454 -3.75794,-7.9041 -8.73713,-29.81534 -8.73713,-38.44812 -14.37397,-94.03086 -5.58987,-55.56386 -5.58987,-104.16993 0,-48.60612 5.58987,-54.5975 5.63684,-5.9723 14.37397,32.4758 4.97919,21.91125 8.73713,47.08084 3.75789,25.1695 6.9051,57.59824 v -31.15282 l 15.21951,66.97402 v 290.13499 l -15.21951,-66.97402 z"
       style="color:#000000;font-style:normal;font-variant:normal;font-weight:bold;font-stretch:semi-condensed;font-size:38.8968px;line-height:125%;font-family:'DejaVu Sans';-inkscape-font-specification:'DejaVu Sans Bold Semi-Condensed';text-align:start;letter-spacing:-4.74709px;writing-mode:lr-tb;text-anchor:start;display:inline;overflow:visible;visibility:visible;fill:#800080;fill-opacity:0.644231;fill-rule:nonzero;stroke:none;stroke-width:8.80121;marker:none;enable-background:accumulate"
       id="path1392"
       inkscape:connector-curvature="0" /><path
       id="path2436"
       style="color:#000000;font-style:normal;font-variant:normal;font-weight:bold;font-stretch:semi-condensed;font-size:65.7632px;line-height:125%;font-family:'DejaVu Sans';-inkscape-font-specification:'DejaVu Sans Bold Semi-Condensed';text-align:start;letter-spacing:-8.02594px;writing-mode:lr-tb;text-anchor:start;display:inline;overflow:visible;visibility:visible;opacity:1;fill:#8e1671;fill-opacity:0.644231;fill-rule:nonzero;stroke:none;stroke-width:14.8803;marker:none;enable-background:accumulate"
       d="m -981.77508,422.0642 c -3.75828,-12.75446 -6.75323,-18.09661 -8.98485,-16.02644 -0.98752,0.72052 -1.82753,2.52877 -2.51998,5.42475 -1.43026,5.33508 -2.20442,14.61012 -2.32238,27.82497 -0.0198,2.3858 -0.0198,4.78772 0.002,7.20576 0.14287,17.50956 1.25567,34.13674 3.33769,49.88145 0.13595,1.02277 0.27585,2.03932 0.41921,3.04963 2.35496,16.65882 5.64232,31.46208 9.86199,44.40973 0.16709,0.52362 0.33418,1.03667 0.50068,1.53903 3.54374,11.88073 6.36304,16.82745 8.45782,14.84019 1.20974,-0.68256 2.20665,-2.87571 2.9907,-6.57937 1.32126,-5.28604 2.05434,-13.95658 2.19924,-26.01162 0.0297,-2.94433 0.0297,-5.91615 -0.001,-8.91555 -0.1745,-16.90422 -1.27143,-33.03329 -3.29027,-48.38711 -0.20763,-1.58955 -0.42465,-3.16541 -0.65082,-4.72752 -2.27151,-15.89015 -5.46539,-30.21947 -9.58164,-42.98797 -1.5e-4,-1.9e-4 -2.5e-4,-3.4e-4 -3.9e-4,-5.4e-4 m 7.58716,143.53161 c -0.67697,1.01733 -1.38044,1.48662 -2.1104,1.40792 m 5.98179,33.5275 c -1.4891,0.14287 -3.04908,-0.99751 -4.67996,-3.42099 -2.05108,-2.23399 -4.2651,-6.06 -6.64195,-11.47798 -1.83164,-4.04412 -3.79517,-9.0199 -5.89059,-14.92735 -1.85526,-5.4294 -3.7177,-11.26906 -5.5873,-17.51895 -6.25517,-21.14835 -11.57497,-45.87505 -15.95947,-74.18008 -0.805,-5.23448 -1.5644,-10.45936 -2.2785,-15.67461 -4.2121,-31.05839 -6.4107,-60.52951 -6.596,-88.41336 -0.02,-2.8943 -0.015,-5.69506 0.01,-8.4023 0.2433,-26.1404 2.2818,-41.58207 6.1158,-46.32501 2.1002,-2.49081 4.5407,-1.23905 7.3218,3.75517 3.2041,3.72368 6.82862,10.99895 10.87353,21.82582 2.53995,7.18189 5.06669,14.98088 7.58024,23.39688 2.01583,7.00239 3.9062,14.24518 5.67119,21.72838 1.82946,7.59873 3.55911,15.67436 5.18895,24.22685 1.94069,10.071 3.78602,20.89461 5.53593,32.47087 0.49975,1.33214 0.98263,-7.32649 1.44876,-13.19814 0,-4.21255 0,-8.3858 0,-9.45024 0,-1.74122 1.52899,2.6924 3.5033,11.3805 3.59702,15.82889 12.23147,42.62886 14.89783,45.97466 1.59686,2.00382 2.87348,10.40172 2.87348,21.66792 0,54.57481 0,261.68491 0,268.68073 0,0.55436 -0.27436,-0.35446 -0.74098,-2.40741 -2.64075,-11.62066 -17.35147,-57.74294 -19.64256,-60.61781 -0.55001,-0.69022 -0.89107,-3.19664 -0.89107,-6.71576 0,-19.41539 0,-103.78577 0,-103.78577"
       inkscape:connector-curvature="0" /><path
       id="path2434"
       style="color:#000000;font-style:normal;font-variant:normal;font-weight:bold;font-stretch:semi-condensed;font-size:65.7632px;line-height:125%;font-family:'DejaVu Sans';-inkscape-font-specification:'DejaVu Sans Bold Semi-Condensed';text-align:start;letter-spacing:-8.02594px;writing-mode:lr-tb;text-anchor:start;display:inline;overflow:visible;visibility:visible;opacity:1;fill:#9c2d62;fill-opacity:0.644231;fill-rule:nonzero;stroke:none;stroke-width:14.8803;marker:none;enable-background:accumulate"
       d="m -991.83125,425.13256 c -4.32224,-11.45257 -7.85386,-16.57374 -10.59475,-15.36341 -1.3677,0.33912 -2.5495,1.76084 -3.5452,4.26494 -2.166,4.80296 -3.367,14.00488 -3.6029,27.60577 -0.035,2.36465 -0.049,4.77651 -0.035,7.23553 0.1072,17.62682 1.4991,34.28866 4.1754,49.98551 0.174,1.01872 0.3534,2.03156 0.5378,3.03841 3.0066,16.47156 7.22305,31.02576 12.64954,43.66256 0.21059,0.50321 0.42218,0.99771 0.63381,1.48346 4.01144,10.60911 7.29856,15.40203 9.86134,14.37886 1.69876,-0.13891 3.1226,-1.80301 4.27153,-4.99204 2.06002,-4.70972 3.23491,-13.29904 3.52475,-25.76786 0.0593,-2.90745 0.0771,-5.89133 0.0544,-8.95173 -0.13101,-17.01624 -1.48238,-33.18076 -4.05421,-48.4935 -0.26497,-1.58391 -0.54221,-3.15458 -0.83234,-4.71209 -2.87542,-15.71767 -6.94569,-29.81588 -12.21077,-42.29459 -2.5e-4,-3.5e-4 -5.4e-4,-7.4e-4 -7.9e-4,-10e-4 m 5.16893,106.97451 c -0.50776,0.76298 -1.03533,1.11496 -1.58283,1.05594 m 11.96359,67.05495 c -1.62821,0.43107 -3.32582,-0.20467 -5.09285,-1.90747 -2.6617,-1.43838 -5.51467,-4.51727 -8.55891,-9.23673 -2.39945,-3.56637 -4.98913,-8.1526 -7.76899,-13.75864 -2.38867,-5.04212 -4.845,-10.61063 -7.3688,-16.70554 -8.37,-20.47727 -15.487,-44.69784 -21.3509,-72.66162 -1.0758,-5.16037 -2.099,-10.34917 -3.0696,-15.56635 -5.6892,-30.95225 -8.719,-60.43212 -9.0894,-88.43965 -0.039,-2.88521 -0.049,-5.69739 -0.03,-8.43656 0.1824,-25.09751 2.4112,-40.57107 6.6867,-46.42058 2.1496,-2.80902 4.6726,-2.54162 7.5689,0.80229 4.1885,1.91464 9.0044,7.87592 14.4477,17.88389 3.2856,6.46804 6.6638,13.85291 10.13454,22.15456 2.70863,6.75348 5.25238,13.75849 7.63126,21.01513 2.50411,7.46308 4.85185,15.36584 7.04323,23.70827 2.63209,9.89422 5.13254,20.59053 7.50139,32.08893 0.99944,2.66432 1.96526,-2.08138 2.89751,-4.65371 0,-3.15942 0,-7.36134 0,-9.49028 0,-3.48243 1.14671,-3.0256 2.62745,3.49044 2.69779,11.87169 13.62259,37.55432 18.95525,44.24591 3.19378,4.00758 5.74707,12.30849 5.74707,20.75811 0,40.93115 0,255.81251 0,269.80419 0,1.10874 -0.20614,0.80115 -0.5558,-0.73866 -1.98054,-8.71548 -20.40969,-52.588 -24.99177,-58.33774 -1.10009,-1.38039 -1.7822,-3.79521 -1.7822,-6.43453 0,-14.56157 0,-104.21961 0,-104.21961"
       inkscape:connector-curvature="0" /><path
       id="path2432"
       style="color:#000000;font-style:normal;font-variant:normal;font-weight:bold;font-stretch:semi-condensed;font-size:65.7632px;line-height:125%;font-family:'DejaVu Sans';-inkscape-font-specification:'DejaVu Sans Bold Semi-Condensed';text-align:start;letter-spacing:-8.02594px;writing-mode:lr-tb;text-anchor:start;display:inline;overflow:visible;visibility:visible;opacity:1;fill:#ab4354;fill-opacity:0.644231;fill-rule:nonzero;stroke:none;stroke-width:14.8803;marker:none;enable-background:accumulate"
       d="m -1001.8874,428.20087 c -4.8863,-10.15069 -8.9545,-15.05083 -12.2047,-14.70038 -1.7479,-0.0445 -3.2714,0.99301 -4.5704,3.10519 -2.9017,4.27083 -4.5296,13.39969 -4.8835,27.38657 -0.055,2.34349 -0.078,4.76529 -0.068,7.26529 0.072,17.74408 1.7426,34.44057 5.0132,50.08957 0.2121,1.01472 0.4311,2.02379 0.6564,3.02724 3.6582,16.28424 8.8039,30.58939 15.4372,42.91539 0.2541,0.48249 0.51,0.95871 0.767,1.4278 4.47906,9.33747 8.23398,13.9767 11.26477,13.91762 2.18777,0.40439 4.03854,-0.73036 5.5524,-3.40472 2.79874,-4.1335 4.41553,-12.64154 4.85026,-25.52414 0.0885,-2.87057 0.12557,-5.86651 0.11025,-8.98791 -0.0875,-17.12822 -1.69342,-33.32823 -4.81824,-48.59989 -0.32182,-1.57823 -0.65991,-3.1438 -1.01382,-4.69672 -3.47932,-15.54519 -8.42598,-29.41224 -14.83992,-41.60115 -4e-4,-5.5e-4 -8e-4,-10e-4 0,-0.002 m 2.75073,70.41735 c -0.33863,0.50869 -0.69022,0.74331 -1.0552,0.70396 m 17.94533,100.58244 c -1.76737,0.71954 -3.60261,0.58824 -5.50568,-0.394 -3.27238,-0.64271 -6.76435,-2.97453 -10.47592,-6.99547 -2.96722,-3.08868 -6.18306,-7.2853 -9.64736,-12.58988 -2.9222,-4.6549 -5.9723,-9.95231 -9.1504,-15.89218 -10.4849,-19.80623 -19.3989,-43.52058 -26.7422,-71.14311 -1.3467,-5.08637 -2.6335,-10.23908 -3.8606,-15.45818 -7.1664,-30.84607 -11.0273,-60.33474 -11.5829,-88.46591 -0.056,-2.87611 -0.078,-5.69971 -0.066,-8.47082 0.1216,-24.05467 2.5408,-39.56001 7.2576,-46.51618 2.1992,-3.12724 4.8046,-3.8441 7.8161,-2.15059 5.1728,0.10579 11.1801,4.75297 18.0219,13.94199 4.0312,5.7542 8.2608,12.72495 12.6888,20.91221 3.4014,6.50457 6.5985,13.27189 9.5912,20.30192 3.1788,7.32743 6.14468,15.05731 8.89764,23.18969 3.32345,9.71744 6.47907,20.2864 9.4668,31.70694 1.49918,3.99652 2.94789,3.16382 4.34622,3.89077 0,-2.1063 0,-6.33694 0,-9.53027 0,-5.22365 0.76452,-8.74366 1.7517,-4.39966 1.79851,7.91447 15.01366,32.47976 23.01267,42.51709 4.79064,6.01146 8.62056,14.21533 8.62056,19.8484 0,27.28741 0,249.94013 0,270.92762 0,1.66311 -0.13743,1.95661 -0.37077,0.93008 -1.32037,-5.8103 -23.46792,-47.43301 -30.34108,-56.05763 -1.65016,-2.07065 -2.67333,-4.39377 -2.67333,-6.15333 0,-9.7077 0,-104.65351 0,-104.65351"
       inkscape:connector-curvature="0" /><path
       id="path2430"
       style="color:#000000;font-style:normal;font-variant:normal;font-weight:bold;font-stretch:semi-condensed;font-size:65.7632px;line-height:125%;font-family:'DejaVu Sans';-inkscape-font-specification:'DejaVu Sans Bold Semi-Condensed';text-align:start;letter-spacing:-8.02594px;writing-mode:lr-tb;text-anchor:start;display:inline;overflow:visible;visibility:visible;opacity:1;fill:#b95a45;fill-opacity:0.644231;fill-rule:nonzero;stroke:none;stroke-width:14.8803;marker:none;enable-background:accumulate"
       d="m -1011.9435,431.26924 c -5.4503,-8.84886 -10.0552,-13.52798 -13.8147,-14.03741 -2.1281,-0.42317 -3.9933,0.22543 -5.5956,1.94543 -3.6375,3.73871 -5.6921,12.7945 -6.1641,27.16738 -0.074,2.32233 -0.1077,4.75401 -0.1028,7.2951 0.035,17.86124 1.9861,34.59243 5.8509,50.19358 0.2507,1.01071 0.5089,2.01603 0.7752,3.01601 4.3097,16.09699 10.3846,30.15308 18.2247,42.16828 0.298,0.46222 0.5979,0.9197 0.9001,1.37218 4.9468,8.06585 9.1696,12.55128 12.66836,13.4563 2.67674,0.94817 4.95448,0.34258 6.83322,-1.8174 3.53751,-3.55723 5.5961,-11.98401 6.17573,-25.28037 0.11815,-2.8337 0.17352,-5.84175 0.16611,-9.02406 -0.0445,-17.24028 -1.90441,-33.47574 -5.58221,-48.70637 -0.37917,-1.57249 -0.77762,-3.13292 -1.19525,-4.68129 -4.08332,-15.37266 -9.90636,-29.00855 -17.46906,-40.90773 -6e-4,-7.4e-4 0,-0.001 0,-0.002 m 0.3327,33.86025 c -0.1691,0.2541 -0.3451,0.37175 -0.5277,0.35198 m 23.92721,134.10994 c -1.90658,1.00784 -3.87945,1.38103 -5.91857,1.11952 -3.88306,0.15275 -8.01404,-1.4318 -12.39294,-4.75416 -3.535,-2.61099 -7.377,-6.41807 -11.5258,-11.42123 -3.4556,-4.26762 -7.0995,-9.29388 -10.9318,-15.07877 -12.5998,-19.13514 -23.311,-42.34338 -32.1337,-69.62465 -1.6174,-5.01227 -3.168,-10.12889 -4.6516,-15.34992 -8.6435,-30.73998 -13.3356,-60.2374 -14.0764,-88.49225 -0.075,-2.86697 -0.1087,-5.70199 -0.1028,-8.50504 0.061,-23.01177 2.6703,-38.549 7.8284,-46.61173 2.2488,-3.44546 4.9366,-5.14663 8.0633,-5.10348 6.1571,-1.70335 13.3558,1.62999 21.596,10.00001 4.7769,5.0404 9.858,11.59703 15.2432,19.66994 4.0942,6.25567 7.9446,12.78526 11.5512,19.58867 3.8535,7.19177 7.4374,14.74883 10.752,22.67111 4.0148,9.54066 7.82554,19.98233 11.43221,31.325 1.99887,5.3287 3.93056,8.40893 5.79497,12.43516 0,-1.05313 0,-5.31244 0,-9.57027 0,-6.96487 0.38214,-14.46171 0.87585,-12.28967 0.89923,3.95722 16.40477,27.40521 27.07009,40.78829 6.38756,8.01527 11.49414,16.12205 11.49414,18.93859 0,13.64375 0,244.06778 0,272.05109 0,2.21748 -0.0687,3.11211 -0.18538,2.59887 -0.66016,-2.90517 -26.52615,-42.27812 -35.6904,-53.77761 -2.20017,-2.76087 -3.5644,-4.99234 -3.5644,-5.8721 0,-4.85387 0,-105.08735 0,-105.08735"
       inkscape:connector-curvature="0" /><path
       inkscape:export-ydpi="12.45"
       inkscape:export-xdpi="12.45"
       d="m -1026.8405,436.52237 q -14.3225,-17.97223 -22.0454,-12.5887 -7.5826,5.55977 -7.5826,34.27304 0,28.71327 7.5826,53.30248 7.7229,24.76541 22.0454,42.73763 14.6035,18.3247 22.186,12.76494 7.72293,-5.38353 7.72293,-34.09685 0,-28.71328 -7.72293,-53.47868 -7.5825,-24.58916 -22.186,-42.91386 z m 29.90893,167.63739 q -9.40793,5.96104 -20.64133,0.12014 -11.2334,-5.8408 -26.1176,-24.51787 -26.1176,-32.77292 -42.9677,-83.34785 -16.7097,-50.57825 -16.7097,-97.05785 0,-46.47964 16.7097,-54.76364 16.8501,-8.28727 42.9677,24.48564 14.8842,18.67707 26.1176,41.028 11.2334,22.35102 20.64133,51.92265 v -29.79004 l 45.49519,57.08836 v 277.44213 l -45.49519,-57.08841 z"
       style="color:#000000;font-style:normal;font-variant:normal;font-weight:bold;font-stretch:semi-condensed;font-size:65.7632px;line-height:125%;font-family:'DejaVu Sans';-inkscape-font-specification:'DejaVu Sans Bold Semi-Condensed';text-align:start;letter-spacing:-8.02594px;writing-mode:lr-tb;text-anchor:start;display:inline;overflow:visible;visibility:visible;fill:#c87137;fill-opacity:0.644231;fill-rule:nonzero;stroke:none;stroke-width:14.8803;marker:none;enable-background:accumulate"
       id="path1389"
       inkscape:connector-curvature="0" /><path
       inkscape:export-ydpi="12.45"
       inkscape:export-xdpi="12.45"
       sodipodi:nodetypes="ccccccccccccccccccccccccccaacccccscccc"
       id="path1119"
       style="color:#000000;font-style:normal;font-variant:normal;font-weight:bold;font-stretch:semi-condensed;font-size:88.7253px;line-height:125%;font-family:'DejaVu Sans';-inkscape-font-specification:'DejaVu Sans Bold Semi-Condensed';text-align:start;letter-spacing:-10.8283px;writing-mode:lr-tb;text-anchor:start;display:inline;overflow:visible;visibility:visible;opacity:1;fill:#a67239;fill-opacity:0.644231;fill-rule:nonzero;stroke:none;stroke-width:20.0759;marker:none;enable-background:accumulate"
       d="m -1045.7232,448.51676 c -10.0951,-10.66779 -17.9913,-14.24964 -23.6884,-10.7456 -1.6368,1.04862 -3.0644,2.69527 -4.2831,4.93984 -3.3551,5.81525 -5.1706,15.58389 -5.4465,29.30595 -0.072,3.67331 -0.035,7.3657 0.1118,11.07716 0.6238,15.70868 3.2051,30.222 7.744,43.53988 0.6656,1.9298 1.3689,3.82476 2.1101,5.68483 5.6511,14.17335 13.3596,26.19997 23.1255,36.0799 0.3762,0.38658 0.751,0.76487 1.1244,1.13459 9.7224,10.03867 17.2963,13.38837 22.7215,10.04905 2.0272,-1.1869 3.7428,-3.24484 5.1469,-6.17385 3.0375,-5.79725 4.7131,-15.01796 5.0271,-27.66203 0.1008,-4.23306 0.051,-8.49607 -0.1488,-12.7891 -0.7076,-15.0849 -3.2613,-29.09679 -7.6611,-42.03565 -0.8352,-2.46776 -1.7351,-4.88176 -2.6993,-7.24201 -5.4773,-13.49025 -12.9853,-25.10892 -22.5237,-34.85607 -0.2165,-0.10578 -0.4365,-0.20812 -0.6603,-0.307 m 33.8443,167.05 c -1.8912,1.40041 -3.8545,2.49289 -5.8898,3.27743 -1.0342,0.3678 -2.1089,0.57755 -3.2242,0.62921 -5.8596,1.97738 -12.2125,1.40161 -19.0586,-1.72743 -4.0995,-1.83212 -8.4929,-4.59003 -13.1801,-8.27371 -8.7685,-5.60545 -16.975,-13.49969 -24.6193,-23.68277 -3.343,-4.26297 -6.5653,-8.75507 -9.6668,-13.47631 -13.8643,-21.33621 -24.3425,-46.04985 -31.4347,-74.14088 -0.7991,-2.43851 -1.5622,-4.86827 -2.2896,-7.28917 -7.3539,-29.95228 -12.5778,-55.65201 -7.2188,-82.85057 3.4274,-17.39507 6.8502,-44.57164 24.3722,-47.2759 38.4895,-5.94033 69.9045,55.4769 82.3549,82.87464 3.4706,8.27244 6.7556,15.29687 9.8548,23.25628 v -19.90909 c 0,0 32.73527,13.13649 37.0199,15.02478 14.92229,22.80389 11.89047,56.38221 14.4616,90.72821 v 10.40559 c 0,42.61645 -11.48534,207.27471 -14.41276,205.98454 -0.42761,-0.18835 -1.30748,-1.09311 -2.40964,-2.47612 -7.24239,-9.08792 -34.6591,-66.66174 -34.6591,-66.66174 v -2.59575"
       inkscape:connector-curvature="0" /><path
       inkscape:export-ydpi="12.45"
       inkscape:export-xdpi="12.45"
       sodipodi:nodetypes="ccccccccccccccccccccccccccaaccccscccc"
       id="path1117"
       style="color:#000000;font-style:normal;font-variant:normal;font-weight:bold;font-stretch:semi-condensed;font-size:88.7253px;line-height:125%;font-family:'DejaVu Sans';-inkscape-font-specification:'DejaVu Sans Bold Semi-Condensed';text-align:start;letter-spacing:-10.8283px;writing-mode:lr-tb;text-anchor:start;display:inline;overflow:visible;visibility:visible;opacity:1;fill:#85733c;fill-opacity:0.644231;fill-rule:nonzero;stroke:none;stroke-width:20.0759;marker:none;enable-background:accumulate"
       d="m -1071.2221,459.26956 c -10.642,-9.35413 -19.0858,-12.3216 -25.3315,-8.90248 -1.7974,1.01496 -3.3922,2.56787 -4.7845,4.65875 -4.1762,5.81524 -6.5402,15.66848 -7.092,29.55981 -0.1448,3.69895 -0.1621,7.48611 -0.052,11.3613 0.4677,16.34685 3.1948,31.20355 8.1808,44.57021 0.7378,1.95705 1.522,3.87451 2.3526,5.75226 6.2983,14.20064 14.9894,25.88052 26.0732,35.03959 0.4172,0.35296 0.8343,0.69807 1.2515,1.03586 10.2,8.81065 18.2847,11.66619 24.2541,8.56653 2.257,-1.12085 4.2045,-3.03588 5.8428,-5.74514 3.8936,-5.72428 6.1545,-15.00091 6.7824,-27.82981 0.2017,-4.24834 0.2274,-8.62061 0.077,-13.11667 -0.5307,-15.6975 -3.1887,-30.04887 -7.9741,-43.05417 -0.9214,-2.50617 -1.9205,-4.95077 -2.9972,-7.33366 -6.0579,-13.54419 -14.4789,-24.86041 -25.2629,-33.94868 -0.4326,-0.21208 -0.873,-0.41625 -1.3206,-0.61379 m 37.7797,166.4626 c -2.8515,2.21091 -5.8337,3.89261 -8.9465,5.04515 -2.0669,0.73511 -4.215,1.15397 -6.4443,1.2567 -6.2256,1.56715 -12.9966,0.8793 -20.313,-2.06359 -4.5918,-1.78858 -9.4889,-4.43599 -14.6912,-7.94221 -13.0478,-7.05618 -24.6445,-17.54046 -34.79,-31.45289 -3.0155,-3.91994 -5.9267,-8.03436 -8.7337,-12.34335 -15.0153,-23.45536 -25.1825,-49.96979 -30.5017,-79.54319 -0.5993,-1.85379 -1.1717,-3.70099 -1.7171,-5.54158 -5.5041,-29.52495 -9.5278,-53.54397 -0.5901,-77.93841 5.5779,-15.22421 15.5069,-36.16953 31.7048,-36.88921 49.9933,-2.22124 85.5815,68.86136 107.5657,104.728 l -0.6601,-40.84765 c 37.53191,20.46031 72.16395,45.45203 72.16395,45.45203 10.13814,48.14844 -28.13107,75.1994 -26.57894,127.24216 v 8.78964 c 0,31.96236 -22.97065,149.12883 -28.82551,146.54856 -0.8551,-0.37671 -1.8213,-1.19041 -2.6479,-2.22767 -5.4318,-6.81592 -25.9944,-78.95975 -25.9944,-78.95975 v -1.94678"
       inkscape:connector-curvature="0" /><path
       inkscape:export-ydpi="12.45"
       inkscape:export-xdpi="12.45"
       d="m -1069.5594,479.97646 q -23.2418,-10.40991 -35.7742,0.44026 -12.3045,10.95228 -12.3045,42.31114 0,31.35885 12.3045,53.33339 12.5324,22.07655 35.7742,32.48636 23.6977,10.614 36.0021,-0.33828 12.5325,-10.85026 12.5325,-42.20912 0,-31.35884 -12.5325,-53.43546 -12.3044,-21.97444 -36.0021,-32.5884 z m 48.5346,163.83301 q -15.2667,12.56546 -33.4957,13.41656 -18.2289,0.85099 -42.3823,-9.96705 -42.3823,-18.9827 -69.7257,-63.37236 -27.1155,-44.48371 -27.1155,-95.24585 0,-50.76209 27.1155,-70.56411 27.3434,-19.89596 69.7257,-0.91326 24.1534,10.81804 42.3823,27.99833 18.229,17.18023 33.4957,43.42139 v -32.53481 l 73.82711,33.0666 v 303.00493 l -73.82711,-33.0666 z"
       style="color:#000000;font-style:normal;font-variant:normal;font-weight:bold;font-stretch:semi-condensed;font-size:88.7253px;line-height:125%;font-family:'DejaVu Sans';-inkscape-font-specification:'DejaVu Sans Bold Semi-Condensed';text-align:start;letter-spacing:-10.8283px;writing-mode:lr-tb;text-anchor:start;display:inline;overflow:visible;visibility:visible;fill:#217844;fill-opacity:0.644231;fill-rule:nonzero;stroke:none;stroke-width:19.8096;marker:none;enable-background:accumulate"
       id="path1386"
       inkscape:connector-curvature="0" /><path
       inkscape:export-ydpi="12.45"
       inkscape:export-xdpi="12.45"
       id="path1667"
       style="color:#000000;font-style:normal;font-variant:normal;font-weight:bold;font-stretch:semi-condensed;font-size:88.7253px;line-height:125%;font-family:'DejaVu Sans';-inkscape-font-specification:'DejaVu Sans Bold Semi-Condensed';text-align:start;letter-spacing:-10.8283px;writing-mode:lr-tb;text-anchor:start;display:inline;overflow:visible;visibility:visible;opacity:0.571;fill:#2f486c;fill-opacity:0.786538;fill-rule:nonzero;stroke:none;stroke-width:20.0636;marker:none;enable-background:accumulate"
       d="m -1078.9687,487.33906 c -15.5775,-5.79339 -27.7766,-5.41932 -36.5977,1.12222 -1.5978,1.20727 -3.0703,2.61929 -4.4175,4.23616 -6.4098,7.66451 -9.8996,19.6366 -10.4695,35.91624 -0.13,3.62545 -0.1141,7.27393 0.044,10.94503 0.7406,17.05632 4.6255,31.67437 11.6548,43.85408 0.9615,1.64785 1.9778,3.24397 3.0485,4.78841 8.8053,12.65247 20.9651,21.67581 36.4799,27.07018 0.201,0.0722 0.4021,0.14389 0.6028,0.21449 15.598,5.72438 27.7034,5.36768 36.3164,-1.07016 1.7699,-1.29885 3.3854,-2.84314 4.8463,-4.63298 6.3447,-7.60064 9.8223,-19.36894 10.4323,-35.30494 0.1509,-3.85674 0.1331,-7.74086 -0.054,-11.65252 -0.7929,-16.77657 -4.6921,-31.20782 -11.698,-43.29389 -1.0675,-1.84952 -2.2062,-3.63557 -3.4158,-5.35799 -8.6143,-12.38703 -20.6993,-21.3126 -36.2552,-26.77665 -7e-4,-8e-5 0,1.4e-4 0,1.4e-4 m 29.3536,101.36711 c -0.2022,0.14064 -0.4046,0.2793 -0.6077,0.41492 m 22.2973,58.4944 c -9.6024,7.54323 -20.0288,12.03815 -31.2786,13.48482 -3.5209,0.49941 -7.1731,0.70121 -10.9569,0.6054 -9.7261,-0.0704 -20.5107,-2.01065 -32.3538,-5.82086 -4.9448,-1.57479 -9.8841,-3.39598 -14.8175,-5.46338 -25.6863,-10.42561 -47.2442,-27.59983 -64.6738,-51.52266 -1.2809,-1.75288 -2.5307,-3.52839 -3.7489,-5.32641 -17.621,-26.34054 -26.6795,-55.20814 -27.1753,-86.60276 -0.03,-1.70137 -0.03,-3.39621 -0.01,-5.0855 0.3807,-31.94801 9.6163,-54.81229 27.7073,-68.59288 1.2942,-0.96623 2.6197,-1.87722 3.9766,-2.73308 17.5736,-11.29129 39.2917,-12.72894 65.1542,-4.3128 5.6618,1.73788 11.2704,3.77073 16.8259,6.09864 10.9879,4.58718 21.0335,10.16913 30.1372,16.7459 4.2176,2.96932 8.285,6.20598 12.2022,9.7099 9.8592,8.69571 19.0763,19.25013 27.6518,31.66323 0.6642,0.72426 1.3195,-0.27211 1.9662,-1.94522 0,-5.73663 0,-21.88941 0,-25.63827 0,-1.49901 1.3157,-1.83608 3.4994,-0.65422 10.6492,5.76365 64.42453,25.05082 72.77944,25.92473 1.9065,0.19943 3.07725,1.93227 3.07725,4.84996 0,28.08299 0,288.36982 0,296.56078 0,0.31376 -0.22931,0.35222 -0.65543,0.12177 -5.57164,-3.01556 -72.13136,-27.09877 -77.71316,-27.68261 -0.6342,-0.0664 -0.9875,-0.61684 -0.9875,-1.55551 0,-9.95259 0,-113.24396 0,-113.24396"
       inkscape:connector-curvature="0" /><path
       inkscape:export-ydpi="12.45"
       inkscape:export-xdpi="12.45"
       id="path1671"
       style="color:#000000;font-style:normal;font-variant:normal;font-weight:bold;font-stretch:semi-condensed;font-size:88.7253px;line-height:125%;font-family:'DejaVu Sans';-inkscape-font-specification:'DejaVu Sans Bold Semi-Condensed';text-align:start;letter-spacing:-10.8283px;writing-mode:lr-tb;text-anchor:start;display:inline;overflow:visible;visibility:visible;opacity:0.571;fill:#3d1895;fill-opacity:0.928846;fill-rule:nonzero;stroke:none;stroke-width:20.0759;marker:none;enable-background:accumulate"
       d="m -1085.3337,523.18996 c -15.1992,-1.39537 -27.3162,1.77484 -36.3511,9.5105 -1.6196,1.39417 -3.1353,2.93592 -4.5469,4.62509 -7.2221,8.71177 -11.4007,20.94507 -12.5357,36.69992 -0.2585,3.56321 -0.3614,7.24234 -0.308,11.03746 0.2457,17.79658 3.9277,32.15126 11.0454,43.06415 1.0058,1.53408 2.0789,2.99718 3.2194,4.38927 9.2184,11.11251 22.2082,17.34361 38.9694,18.69335 0.2071,0.0197 0.4152,0.0346 0.623,0.0524 15.2143,1.3715 27.2595,-1.69411 36.1356,-9.19674 1.7938,-1.50831 3.4555,-3.19486 4.9851,-5.05956 7.2148,-8.59673 11.4298,-20.60313 12.6451,-36.01919 0.3005,-3.78375 0.4197,-7.69998 0.3579,-11.74875 -0.263,-17.50832 -3.9172,-31.68672 -10.9619,-42.53509 -1.1188,-1.72342 -2.3232,-3.35909 -3.613,-4.90712 -8.9649,-10.94239 -21.8407,-17.14175 -38.6273,-18.59807 -10e-4,-5e-5 0,0 0,-5e-5 m 8.8842,32.93254 c -0.067,0.0543 -0.1344,0.10773 -0.2017,0.16016 m 44.4148,112.91799 c -9.0015,9.28053 -18.699,16.28208 -29.0924,21.00455 -3.3999,1.57857 -6.8909,2.91758 -10.4731,4.01703 -9.7384,3.113 -20.5712,4.6547 -32.4984,4.62508 -5.0293,-10e-4 -10.1902,-0.26299 -15.4826,-0.78261 -28.5438,-2.59323 -52.4181,-13.71548 -71.6228,-33.36677 -1.4515,-1.47907 -2.8733,-3.00257 -4.2654,-4.57051 -19.6355,-22.48594 -29.5355,-50.18564 -29.7002,-83.099 -0.011,-1.72214 0.01,-3.43216 0.052,-5.13001 0.7579,-30.29324 9.9206,-54.55994 27.488,-72.80025 1.1844,-1.217 2.4025,-2.40256 3.6542,-3.55674 17.0664,-15.86528 38.0044,-23.94186 62.8139,-24.22976 5.7351,-0.13942 11.5935,0.0836 17.5753,0.66905 11.8802,1.152 22.7707,3.56484 32.6716,7.23854 4.7819,1.72664 9.3503,3.76437 13.7052,6.11306 11.259,5.99805 21.7457,14.34405 31.4603,25.03799 1.3227,1.31642 2.6281,2.10041 3.9163,2.70189 0,-1.92229 0,-18.32964 0,-25.86698 0,-3.01393 0.437,-4.93093 1.1618,-4.61143 3.5354,1.55811 58.71183,6.13632 75.35439,6.13632 3.79757,0 6.12965,0.53964 6.12965,1.51733 0,9.41049 0,282.76614 0,299.23472 0,0.63036 -0.0761,0.924 -0.21752,0.86166 -1.84973,-0.81518 -69.34262,-6.55242 -80.46102,-6.55242 -1.2636,0 -1.9672,-0.17203 -1.9672,-0.48645 0,-3.33506 0,-114.26456 0,-114.26456"
       inkscape:connector-curvature="0" /><path
       inkscape:export-ydpi="12.45"
       inkscape:export-xdpi="12.45"
       id="path1669"
       style="color:#000000;font-style:normal;font-variant:normal;font-weight:bold;font-stretch:semi-condensed;font-size:88.7253px;line-height:125%;font-family:'DejaVu Sans';-inkscape-font-specification:'DejaVu Sans Bold Semi-Condensed';text-align:start;letter-spacing:-10.8283px;writing-mode:lr-tb;text-anchor:start;display:inline;overflow:visible;visibility:visible;opacity:0.571;fill:#362f81;fill-opacity:0.857692;fill-rule:nonzero;stroke:none;stroke-width:20.0759;marker:none;enable-background:accumulate"
       d="m -1084.827,511.10456 c -15.357,-2.79064 -27.4905,-0.3762 -36.4007,7.24354 -1.6055,1.3879 -3.0966,2.94596 -4.4733,4.67407 -6.803,8.54538 -10.6302,20.86316 -11.4815,36.95343 -0.1942,3.61072 -0.2377,7.28334 -0.1309,11.01784 0.4918,17.43259 4.2673,31.75336 11.3266,42.96231 0.9817,1.54476 2.0243,3.02516 3.1278,4.44119 8.994,11.45296 21.5444,18.46475 37.6511,21.03535 0.2037,0.0346 0.4074,0.0692 0.6116,0.10238 15.3747,2.74297 27.4256,0.39449 36.1528,-7.04565 1.7783,-1.50006 3.4136,-3.20451 4.906,-5.11331 6.767,-8.45239 10.6062,-20.55364 11.5176,-36.30384 0.2255,-3.83837 0.2764,-7.74793 0.1523,-11.72863 -0.5264,-17.14512 -4.2951,-31.28308 -11.3063,-42.41387 -1.091,-1.73524 -2.2602,-3.39093 -3.5076,-4.96714 -8.7722,-11.24454 -21.2282,-18.19522 -37.3681,-20.85198 -10e-4,0 0,4e-5 0,4e-5 m 19.0597,65.87443 c -0.134,0.10878 -0.2684,0.21555 -0.4034,0.32084 m 33.3111,84.6885 c -9.2827,8.93669 -19.3236,15.24496 -30.1226,18.92484 -3.4532,1.22541 -7.0175,2.18841 -10.6928,2.8889 -9.7127,2.03245 -20.4996,2.39501 -32.3609,1.08774 -4.9772,-0.53251 -10.0173,-1.31864 -15.1202,-2.35837 -27.0633,-5.18652 -49.7359,-18.24674 -68.018,-39.18065 -1.3636,-1.55326 -2.6968,-3.14172 -3.9996,-4.76543 -18.5927,-23.55641 -28.0537,-51.4401 -28.3829,-83.65103 -0.02,-1.71468 -0.01,-3.42154 0.02,-5.12063 0.5684,-31.22509 9.749,-55.33661 27.5417,-72.33462 1.2367,-1.16218 2.5058,-2.28258 3.8074,-3.36116 17.2846,-14.53211 38.5688,-20.43486 63.8527,-17.70824 5.687,0.50622 11.4093,1.34465 17.1668,2.51533 11.4118,2.30404 21.8597,5.78801 31.3435,10.45199 4.4913,2.13409 8.801,4.56597 12.9292,7.2956 10.5391,6.85152 20.3726,15.84502 29.5003,26.98051 0.992,0.98732 1.9711,0.84391 2.9372,0.26991 0,-3.8446 0,-20.16736 0,-25.82035 0,-2.26044 0.8737,-3.45757 2.3236,-2.81852 7.0709,3.11622 61.43836,12.27261 73.92023,12.27261 2.84817,0 4.59724,1.07927 4.59724,3.03465 0,18.82098 0,286.33014 0,298.68155 0,0.4726 -0.15225,0.65111 -0.43502,0.52644 -3.69946,-1.63044 -70.59165,-13.10487 -78.93035,-13.10487 -0.9477,0 -1.4755,-0.34407 -1.4755,-0.97323 0,-6.67018 0,-114.05362 0,-114.05362"
       inkscape:connector-curvature="0" /><path
       inkscape:export-ydpi="12.45"
       inkscape:export-xdpi="12.45"
       d="m -1086.9133,535.74341 q -26.5863,0 -40.922,16.35366 -14.0752,16.3536 -14.0752,47.50341 0,31.14979 14.0752,47.50341 14.3357,16.35365 40.922,16.35365 27.1076,0 41.1827,-16.35365 14.3358,-16.35362 14.3358,-47.50341 0,-31.14981 -14.3358,-47.50341 -14.0751,-16.35366 -41.1827,-16.35366 z m 55.5185,141.14748 q -17.4636,19.27397 -38.3156,28.22949 -20.852,8.95559 -48.4808,8.95559 -48.4809,0 -79.759,-31.92855 -31.0174,-32.12324 -31.0174,-82.54694 0,-50.42371 31.0174,-82.15755 31.2781,-31.92855 79.759,-31.92855 27.6288,0 48.4808,8.95559 20.852,8.95552 38.3156,28.22949 v -32.31791 h 84.45062 V 791.3664 h -84.45062 z"
       style="color:#000000;font-style:normal;font-variant:normal;font-weight:bold;font-stretch:semi-condensed;font-size:93.3228px;line-height:125%;font-family:'DejaVu Sans';-inkscape-font-specification:'DejaVu Sans Bold Semi-Condensed';text-align:start;letter-spacing:-11.3894px;writing-mode:lr-tb;text-anchor:start;display:inline;overflow:visible;visibility:visible;fill:#4400aa;fill-opacity:1;fill-rule:nonzero;stroke:none;stroke-width:21.1162;marker:none;enable-background:accumulate"
       id="path1383"
       inkscape:connector-curvature="0" /></g></svg>
