<svg version="1.1" id="Layer_1" xmlns="http://www.w3.org/2000/svg" x="0" y="0" viewBox="0 0 618 618" style="enable-background:new 0 0 618 618" xml:space="preserve"><style>.st2{fill:#7703fc}</style><circle cx="309" cy="309.3" r="67.7" style="fill:#0b0b0c"/><path d="M309 242.1c37.1 0 67.2 30.2 67.2 67.2S346 376.5 309 376.5s-67.2-30.2-67.2-67.2 30.1-67.2 67.2-67.2m0-1c-37.7 0-68.2 30.5-68.2 68.2s30.5 68.2 68.2 68.2 68.2-30.5 68.2-68.2-30.5-68.2-68.2-68.2z" style="fill:#3c3c42"/><path class="st2" d="M309 331.2c-1.1 0-2.2-.3-3.1-.8L288 320c-1.9-1.1-3.1-3.2-3.1-5.4V294c0-2.2 1.2-4.3 3.1-5.4l17.9-10.3c1.9-1.1 4.3-1.1 6.2 0l17.9 10.3c1.9 1.1 3.1 3.2 3.1 5.4v20.7c0 2.2-1.2 4.3-3.1 5.4l-17.9 10.3c-.9.5-2 .8-3.1.8zm0-51.5c-.7 0-1.3.2-1.9.5l-17.9 10.3c-1.2.7-1.9 2-1.9 3.4v20.7c0 1.4.7 2.7 1.9 3.4l17.9 10.3c1.2.7 2.7.7 3.9 0l17.9-10.3c1.2-.7 1.9-2 1.9-3.4V294c0-1.4-.7-2.7-1.9-3.4L311 280.3c-.7-.4-1.3-.6-2-.6z"/><path class="st2" d="M311.7 320.7c-.5 0-1.1-.1-1.6-.2l-10.2-2.7c-2.1-.6-3.8-2.3-4.4-4.4l-2.7-10.2c-.6-2.2.1-4.5 1.6-6l7.5-7.5c1.6-1.6 3.9-2.2 6-1.6l10.2 2.7c2.1.6 3.8 2.3 4.4 4.4l2.7 10.2c.6 2.2-.1 4.5-1.6 6l-7.5 7.5c-1.1 1.2-2.8 1.8-4.4 1.8zm-5.4-30.5c-1 0-2 .4-2.8 1.1l-7.5 7.5c-1 1-1.4 2.4-1 3.8l2.7 10.2c.4 1.3 1.4 2.4 2.7 2.7l10.2 2.7c1.3.3 2.8 0 3.7-1l7.5-7.5c1-1 1.4-2.4 1-3.8l-2.7-10.2c-.4-1.3-1.4-2.4-2.7-2.7l-10.2-2.7c-.2 0-.6-.1-.9-.1z"/></svg>