<svg version="1.1" id="OBJECTS" xmlns="http://www.w3.org/2000/svg" xmlns:xlink="http://www.w3.org/1999/xlink" x="0" y="0" viewBox="0 0 500 500" style="enable-background:new 0 0 500 500" xml:space="preserve"><style>.st0{fill:#05007e}</style><image style="overflow:visible;opacity:.5" width="528" height="436" xlink:href="B0D79CE5.png" transform="translate(-13.956 31.76)"/><path class="st0" d="m467.8 183.1-15.9-65.6c-1.4-5.8-3.9-11.3-7.4-16.3l-.2-.4c-.2-.3-.3-.6-.4-.9l-.1-.2s0-.1-.1-.1v-.1s0-.1-.1-.1v-.1c-.4-.7-.7-1.2-1-1.7l-.5-.8-.1-.1c-.6-.9-1.1-1.6-1.4-2.1-.5-.7-1.1-1.5-1.8-2.3l-.3-.3-.1-.1c-.2-.2-.4-.4-.5-.6l-.7-.7c-.3-.3-.5-.6-.7-.7l-.1-.1c-1.6-1.6-3.3-3.1-5-4.4l-.3-.2c-.2-.2-.4-.3-.7-.5l-.2-.1c-.3-.2-.5-.4-.8-.5-.5-.3-1.2-.7-1.8-1.1-.3-.2-.5-.3-.8-.5l-2.7-1.4c-.6-.3-1.3-.6-2.1-.9-.3-.1-.6-.2-.9-.4-.3-.1-1-.4-1.7-.6l-1.2-.4c-.1 0-.3-.1-.4-.1l-.2-.1c-.4-.1-.9-.3-1.3-.4-.3-.1-.5-.1-.8-.2-2.4-.6-4.9-1-7.2-1.1h-.2c-.7 0-1.4-.1-2.2-.1h-.8c-1.2 0-2.7.1-4.2.2-.7.1-1.4.2-2.2.3-.3 0-.7.1-1 .1l-3 .6c-.2 0-.3.1-.5.1s-.5.1-.7.2h-.1c-28 7.9-55 14.3-82.4 19.6-4.3.8-8.7 1.7-13.1 2.5l-.9.2c-4.6.8-9.1 1.6-13.4 2.3l-1.5.2c-3.6.6-7.4 1.2-11 1.8l-2.1.1v.2-.2c-4.5.7-8.6 1.3-12.5 1.8l-.8.1c-27.7 3.8-55.6 6.5-85.2 8.2h-.5c-.4.1-.9.1-1.3.2l-2.7.4c-1.9.3-2.4.5-5.9 1.5-.8.2-1.7.6-2.8 1l-.2.1c-.1 0-.2.1-.3.1l-.1.1h-.6c-9 1.4-16.9 5.6-23 12L108.6 156l-.3.3c-.1.1-.1.2-.2.2l-4.3 4.6c-9.6 10.1-13.3 24.7-9.8 39.1l4.8 19.8c-7.1 5.4-15.2 9.9-22.3 13.9-19.4 11-38.1 24.5-43.5 49.1-1.2 5.5-1.7 11.6-1.7 19.2-.4.1-.9.8 1 29.9v.8c.2 11.7.4 23.8 3.9 35 5.8 18.5 20.4 35 39 44 17.5 8.5 38 10.6 57.7 10.6 6.2 0 12.4-.2 18.3-.5 25.3-1.3 51.1-6.4 78.6-15.5 5.6-1.8 11.2-3.8 16.6-5.7 17.5-6.1 35.6-12.4 54.1-15.8 7.9-1.5 16.1-2.4 24-3.3 13.4-1.5 27.3-3.1 40.3-7.4 22.8-7.5 37.7-24.2 47-52.7 6.3-19.5 11.9-39.6 17.3-59.1 1.4-4.9 2.7-9.8 4.1-14.7l19.7-20.7 4.9-5.1c9.8-9.9 13.5-24.5 10-38.9zm-314.3 76.2zm29.5 13.3zm6.2.1zm.2-.1zm3.9-.4zm-69.9-102.7zm-12.9 98.7c0 .2.1.3.1.4l.1.4c.1.5.3.9.5 1.4.1.2.1.4.2.6l.2.5c.1.4.3.8.4 1.1l.3.6.3.6c.1.3.3.6.4.9l.3.6.3.6c.1.3.3.6.5.9.1.2.2.4.4.7l.3.5c.2.3.3.6.5.9.1.2.3.5.4.7l.2.4.6.9c.2.2.3.5.5.7l.1.2c.2.3.5.7.7 1 .2.2.3.4.5.6l.3.4c.2.3.4.5.6.8.2.2.4.4.5.7l.2.2c.3.3.5.6.8.9.2.2.4.5.6.7l.1.1c.3.3.5.6.8.9.2.3.5.5.8.8.3.3.6.6.9.8.3.3.5.5.8.7.3.3.6.5.9.8.3.2.5.5.8.7.3.3.6.5.9.8.3.2.6.4.8.7.3.2.6.5 1 .7l.9.6c.3.2.7.5 1 .7l.2.1c.1.1.2.1.3.2.1 0 .1.1.2.1s.1.1.2.1l1.5.9.2.1c.1.1.3.2.4.3.8.5 1.5.8 2.2 1.2l.2.1c.7.3 1.4.7 2.1 1 .2.1.4.2.6.2l.2.1c.5.2 1.1.4 1.6.7l.2.1c.1 0 .2.1.2.1.1 0 .1.1.2.1s.1 0 .2.1c.5.2.9.3 1.4.5l.2.1c.2.1.4.1.7.2.5.2 1 .3 1.6.4l.3.1c.2 0 .3.1.5.1.8.2 1.6.4 2.3.5.7.1 1.5.3 2.4.4H151.7c.7.1 1.5.2 2.2.2.3 0 .5 0 .8.1.8 0 1.5.1 2.3.1h.2c.9 0 1.9 0 3-.1h.8c.7-.1 1.4-.1 2.1-.2h.5c.3 0 .5-.1.8-.1 1.2-.2 2.5-.4 3.7-.7 37.7-10.4 76.6-18.7 115.5-24.9 4-.6 8.1-1.3 13.2-2 .9-.1 1.9-.3 2.8-.4l1-.1c2.8-.4 5.8-.8 9.4-1.3l.8-.1c1.3-.2 2.7-.4 4-.5 3.1-.4 6.4-.8 10.1-1.2l1.4-.2 2.1-.3c4.6-.5 9.2-1 13.6-1.5.6-.1 1.1-.1 1.7-.2l1.4-.1c3.8-.4 7.3-.7 10.6-1l3.9-.3.8-.1c3.1-.3 6.1-.5 9.2-.8 1.7-.1 3.3-.3 5-.4 2.8-.2 5.7-.4 9.5-.6l1.5-.1c1-.1 1.9-.1 2.9-.2 5-.3 9.5-.5 13.8-.8 1-.1 1.9-.2 2.9-.3.3 0 .6-.1.9-.1 2.1-.3 4.2-.8 6.2-1.5-5.3 17.7-12.4 37.4-29 49.5-16.4 11.9-37.9 14.5-55.2 16.6-25.2 3-45.8 7.3-64.6 13.5-6.2 2-12.6 4.2-18.7 6.3-16.1 5.6-32.8 11.3-49.7 15.1-24.4 5.4-49.5 7.4-74.5 6-19-1.1-43.2-4.3-62.3-20.1-7.6-6.3-13.7-13.7-18.2-22.1-.5-1-1-2-1.5-3.1 6-14.8 17.7-26.6 37.8-38.1l2.7-1.5c10.9-6.2 22.1-12.5 30.7-21.2l.4 1.6c-.1.7.1 1.5.3 2.2z"/><linearGradient id="SVGID_1_" gradientUnits="userSpaceOnUse" x1="31.132" y1="303.495" x2="436.943" y2="303.495"><stop offset="0" style="stop-color:#4879ed"/><stop offset=".266" style="stop-color:#3b39ed"/><stop offset=".858" style="stop-color:#1e00d3"/></linearGradient><path d="M436.6 228.2c-.1-6-.3-12.1-.6-18.1-.2-6-.4-12.1-.7-18.1-.1-2.1-1-5.6-.4-7.5-7.2 25.1-14.4 50.3-21.7 75.4-5.8 19.8-12.7 40.6-30.1 53.2-15.9 11.6-36.3 14.3-55.3 16.6-22.1 2.7-43.3 6.5-64.6 13.5-22.7 7.4-45 16.3-68.4 21.4-24.4 5.4-49.6 7.4-74.6 6-22.4-1.2-44.7-5.5-62.4-20.2-7.4-6.1-13.7-13.6-18.2-22.1-.6-1-1.1-2.1-1.6-3.2-1.3-2.7-2.4-5.5-3.3-8.3-.8-2.5-1.3-5-1.9-7.6-.6-3.7-1-5.8-1.3-6.4-.8-1.7-.4 8.1 1 29.5.2 12 .3 24.3 3.9 35.7 6 19.2 20.9 35.1 38.9 43.8 22.9 11.1 51 11.3 76 10.1 26.9-1.4 53-7 78.6-15.5 23.4-7.8 46.4-17 70.8-21.5 21.3-4 43.6-3.9 64.3-10.7 25.5-8.3 38.8-27.9 46.8-52.5 9.2-28.3 16.7-57.4 24.9-86 .6-1.8 0-5.9-.1-7.5z" style="fill:url(#SVGID_1_)"/><path d="M430.1 239.1c-1.2.2-2.5.3-3.7.4-4.6.2-9.2.5-13.8.8-1.5.1-2.9.2-4.3.3-3.2.2-6.3.4-9.5.6-1.6.1-3.3.2-4.9.4-3.1.2-6.1.5-9.2.8-1.6.1-3.1.3-4.7.4-3.6.3-7.1.7-10.7 1l-3 .3c-4.5.5-9.1 1-13.6 1.5-1.2.1-2.4.3-3.5.4-3.4.4-6.7.8-10.1 1.2l-4.8.6-4.8.6c-1.6.2-3.1.4-4.7.7-1.3.2-2.6.4-3.8.5-4.4.6-8.8 1.3-13.2 2-39.1 6.2-77.7 14.5-115.6 24.9-1.2.3-2.4.5-3.7.7-.4.1-.9.1-1.3.2-.7.1-1.4.2-2.1.2-.2 0-.5 0-.7.1-.9.1-1.8.1-2.7.1h-.5c-.8 0-1.5 0-2.3-.1-.3 0-.5 0-.8-.1-.7-.1-1.4-.1-2.2-.2-.2 0-.4 0-.6-.1-.8-.1-1.6-.2-2.4-.4-.8-.2-1.5-.3-2.3-.5-.3-.1-.5-.1-.8-.2-.5-.1-1-.3-1.6-.4l-.9-.3c-.5-.2-.9-.3-1.4-.5l-.9-.3c-.5-.2-1.1-.4-1.6-.7-.2-.1-.5-.2-.7-.3-.7-.3-1.4-.6-2.1-1-.1 0-.1-.1-.2-.1-.8-.4-1.5-.8-2.2-1.2-.2-.1-.4-.3-.7-.4l-1.5-.9c-.3-.2-.6-.4-.8-.5-.3-.2-.7-.4-1-.7l-.9-.6c-.3-.2-.6-.5-1-.7-.3-.2-.6-.4-.8-.7-.3-.2-.6-.5-.9-.8-.3-.2-.5-.5-.8-.7-.3-.3-.6-.5-.9-.8-.3-.2-.5-.5-.8-.7-.3-.3-.6-.6-.9-.8l-.8-.8c-.3-.3-.6-.6-.8-.9-.2-.3-.5-.5-.7-.8-.3-.3-.5-.6-.8-.9-.2-.3-.5-.5-.7-.8-.3-.3-.5-.6-.7-1l-.6-.9c-.2-.3-.5-.7-.7-1l-.6-.9c-.2-.3-.4-.7-.7-1.1l-.6-.9c-.2-.4-.4-.7-.6-1.1-.2-.3-.3-.6-.5-.9l-.6-1.2c-.2-.3-.3-.6-.5-.9-.2-.4-.4-.8-.5-1.2-.1-.3-.3-.6-.4-.9-.2-.4-.3-.9-.5-1.3l-.3-.9c-.2-.5-.3-1-.5-1.5-.1-.3-.2-.5-.2-.8-.2-.8-.4-1.5-.6-2.3l-15.9-65.6c-3.6-15 .5-29.2 9.7-38.9l-24.3 25.6c-9.2 9.7-13.4 23.9-9.7 38.9l15.9 65.6c.2.8.4 1.5.6 2.3.1.3.2.5.2.8.2.5.3 1 .5 1.5l.3.9c.2.4.3.9.5 1.3.1.3.3.6.4.9.2.4.3.8.5 1.2.1.3.3.6.5.9l.6 1.2c.2.3.3.6.5.9.2.4.4.7.6 1.1l.6.9c.2.4.4.7.7 1.1l.6.9c.2.3.5.7.7 1l.6.9c.2.3.5.7.7 1 .2.3.4.6.7.8.3.3.5.6.8.9.2.3.5.5.7.8.3.3.5.6.8.9.2.3.5.5.8.8.3.3.6.6.9.8.3.2.5.5.8.7.3.3.6.5.9.8.3.2.5.5.8.7.3.3.6.5.9.8.3.2.6.4.8.7.3.2.6.5 1 .7l.9.6c.3.2.6.4 1 .7.2.1.3.2.5.3.1.1.2.1.4.2l1.5.9c.2.1.4.3.7.4.7.4 1.5.8 2.2 1.2.1 0 .1.1.2.1.7.3 1.4.7 2.1 1 .2.1.5.2.7.3.5.2 1.1.4 1.6.7.1.1.3.1.4.2.1.1.3.1.4.1.5.2.9.3 1.4.5l.9.3c.5.2 1 .3 1.6.4.3.1.5.1.8.2.8.2 1.5.4 2.3.5.8.2 1.6.3 2.4.4H151.6c.7.1 1.4.2 2.2.2.3 0 .5 0 .8.1.8 0 1.5.1 2.3.1h.5c.9 0 1.8 0 2.7-.1.2 0 .5 0 .7-.1.7-.1 1.4-.1 2.1-.2h.5c.3 0 .5-.1.8-.1 1.2-.2 2.4-.4 3.7-.7 37.9-10.4 76.5-18.7 115.6-24.9 4.4-.7 8.8-1.4 13.2-2 1.3-.2 2.6-.4 3.8-.5 3.1-.4 6.3-.9 9.5-1.3l4.8-.6c3.4-.4 6.7-.8 10.1-1.2 1.2-.1 2.4-.3 3.5-.4 4.5-.5 9.1-1 13.6-1.5 1-.1 2.1-.2 3.1-.3 3.5-.4 7.1-.7 10.6-1 1.6-.1 3.2-.3 4.7-.4 3.1-.3 6.1-.5 9.2-.8 1.7-.1 3.3-.3 5-.4 3.2-.2 6.3-.4 9.5-.6 1.5-.1 2.9-.2 4.3-.3 4.6-.3 9.2-.5 13.8-.8 1-.1 1.9-.2 2.9-.3.3 0 .6-.1.9-.1 9.2-1.5 17.1-5.8 22.9-11.9l24.3-25.6c-6.1 6.1-14 10.4-23.1 11.9z" style="fill:#04008f"/><path d="M397.7 80.4c23.7-3.7 48 12.6 54 37.1l15.9 65.6c5.9 24.5-9 47.1-32.6 50.8-1.2.2-2.5.3-3.7.4-40 1.9-79.6 6-118.7 12.2-39.1 6.2-77.7 14.5-115.6 24.9-1.2.3-2.4.5-3.7.7-23.7 3.8-48-12.6-54-37.1l-15.9-65.6c-5.9-24.5 9-47 32.6-50.8 1.2-.2 2.5-.3 3.7-.4 40-1.9 79.6-6 118.7-12.2 39.1-6.2 77.7-14.5 115.6-24.9 1.2-.2 2.4-.5 3.7-.7z" style="fill:#fafbf5"/><linearGradient id="SVGID_2_" gradientUnits="userSpaceOnUse" x1="151.863" y1="111.854" x2="360.581" y2="320.573"><stop offset="0" style="stop-color:#6200d0"/><stop offset=".345" style="stop-color:#8130ef"/><stop offset=".442" style="stop-color:#8536f0"/><stop offset=".572" style="stop-color:#9047f2"/><stop offset=".722" style="stop-color:#a264f6"/><stop offset=".885" style="stop-color:#bb8bfb"/><stop offset="1" style="stop-color:#d0abff"/></linearGradient><path d="M434.9 234c-1.2.2-2.5.3-3.7.4-4.6.2-9.2.5-13.8.8-1.5.1-2.9.2-4.3.3-3.2.2-6.3.4-9.5.6-1.6.1-3.3.2-4.9.4-3.1.2-6.1.5-9.2.8-1.6.1-3.1.3-4.7.4-3.6.3-7.1.7-10.7 1l-3 .3c-4.5.5-9.1 1-13.6 1.5-1.2.1-2.4.3-3.5.4-3.4.4-6.7.8-10.1 1.2l-4.8.6-4.8.6c-1.6.2-3.1.4-4.7.7-1.3.2-2.6.4-3.8.5-4.4.6-8.8 1.3-13.2 2-39.1 6.2-77.7 14.5-115.6 24.9-1.2.3-2.4.5-3.7.7-.4.1-.9.1-1.3.2-.7.1-1.4.2-2.1.2-.2 0-.5 0-.7.1-.9.1-1.8.1-2.7.1h-.5c-.8 0-1.5 0-2.3-.1-.3 0-.5 0-.8-.1-.7-.1-1.4-.1-2.2-.2-.2 0-.4 0-.6-.1-.8-.1-1.6-.2-2.4-.4-.8-.2-1.5-.3-2.3-.5-.3-.1-.5-.1-.8-.2-.5-.1-1-.3-1.6-.4l-.9-.3c-.5-.2-.9-.3-1.4-.5l-.9-.3c-.5-.2-1.1-.4-1.6-.7-.2-.1-.5-.2-.7-.3-.7-.3-1.4-.6-2.1-1-.1 0-.1-.1-.2-.1-.8-.4-1.5-.8-2.2-1.2-.2-.1-.4-.3-.7-.4l-1.5-.9c-.3-.2-.6-.4-.8-.5-.3-.2-.7-.4-1-.7l-.9-.6c-.3-.2-.6-.5-1-.7-.3-.2-.6-.4-.8-.7-.3-.2-.6-.5-.9-.8-.3-.2-.5-.5-.8-.7-.3-.3-.6-.5-.9-.8-.3-.2-.5-.5-.8-.7-.3-.3-.6-.6-.9-.8l-.8-.8c-.3-.3-.6-.6-.8-.9-.2-.3-.5-.5-.7-.8-.3-.3-.5-.6-.8-.9-.2-.3-.5-.5-.7-.8-.3-.3-.5-.6-.7-1l-.6-.9c-.2-.3-.5-.7-.7-1l-.6-.9c-.2-.3-.4-.7-.7-1.1l-.6-.9c-.2-.4-.4-.7-.6-1.1-.2-.3-.3-.6-.5-.9l-.6-1.2c-.2-.3-.3-.6-.5-.9-.2-.4-.4-.8-.5-1.2-.1-.3-.3-.6-.4-.9-.2-.4-.3-.9-.5-1.3l-.3-.9c-.2-.5-.3-1-.5-1.5-.1-.3-.2-.5-.2-.8-.2-.8-.4-1.5-.6-2.3l-15.9-65.6c-3.6-15 .5-29.2 9.7-38.9l-24.3 25.6c-9.2 9.7-13.4 23.9-9.7 38.9l15.9 65.6c.2.8.4 1.5.6 2.3.1.3.2.5.2.8.2.5.3 1 .5 1.5l.3.9c.2.4.3.9.5 1.3.1.3.3.6.4.9.2.4.3.8.5 1.2.1.3.3.6.5.9l.6 1.2c.2.3.3.6.5.9.2.4.4.7.6 1.1l.6.9c.2.4.4.7.7 1.1l.6.9c.2.3.5.7.7 1l.6.9c.2.3.5.7.7 1 .2.3.4.6.7.8.3.3.5.6.8.9.2.3.5.5.7.8.3.3.5.6.8.9.2.3.5.5.8.8.3.3.6.6.9.8.3.2.5.5.8.7.3.3.6.5.9.8.3.2.5.5.8.7.3.3.6.5.9.8.3.2.6.4.8.7.3.2.6.5 1 .7l.9.6c.3.2.6.4 1 .7.2.1.3.2.5.3.1.1.2.1.4.2l1.5.9c.2.1.4.3.7.4.7.4 1.5.8 2.2 1.2.1 0 .1.1.2.1.7.3 1.4.7 2.1 1 .2.1.5.2.7.3.5.2 1.1.4 1.6.7.1.1.3.1.4.2.1.1.3.1.4.1.5.2.9.3 1.4.5l.9.3c.5.2 1 .3 1.6.4.3.1.5.1.8.2.8.2 1.5.4 2.3.5.8.2 1.6.3 2.4.4H156.4c.7.1 1.4.2 2.2.2.3 0 .5 0 .8.1.8 0 1.5.1 2.3.1h.5c.9 0 1.8 0 2.7-.1.2 0 .5 0 .7-.1.7-.1 1.4-.1 2.1-.2h.5c.3 0 .5-.1.8-.1 1.2-.2 2.4-.4 3.7-.7 37.9-10.4 76.5-18.7 115.6-24.9 4.4-.7 8.8-1.4 13.2-2 1.3-.2 2.6-.4 3.8-.5 3.1-.4 6.3-.9 9.5-1.3l4.8-.6c3.4-.4 6.7-.8 10.1-1.2 1.2-.1 2.4-.3 3.5-.4 4.5-.5 9.1-1 13.6-1.5 1-.1 2.1-.2 3.1-.3 3.5-.4 7.1-.7 10.6-1 1.6-.1 3.2-.3 4.7-.4 3.1-.3 6.1-.5 9.2-.8 1.7-.1 3.3-.3 5-.4 3.2-.2 6.3-.4 9.5-.6 1.4-.1 2.9-.2 4.3-.3 4.6-.3 9.2-.5 13.8-.8 1-.1 1.9-.2 2.9-.3.3 0 .6-.1.9-.1 9.2-1.5 17.1-5.8 22.9-11.9l24.3-25.6c-6 6.1-13.9 10.4-23.1 11.9z" style="fill:url(#SVGID_2_)"/><linearGradient id="SVGID_3_" gradientUnits="userSpaceOnUse" x1="445.026" y1="103.473" x2="445.916" y2="104.363"><stop offset=".001" style="stop-color:#2b39ed"/><stop offset=".318" style="stop-color:#2a00cb"/><stop offset=".708" style="stop-color:#04008f"/><stop offset="1" style="stop-color:#040075"/></linearGradient><path d="M445.2 103.3c.1.4.3.8.5 1.2-.1-.3-.3-.8-.5-1.2z" style="fill:url(#SVGID_3_)"/><linearGradient id="SVGID_4_" gradientUnits="userSpaceOnUse" x1="197.297" y1="72.145" x2="396.454" y2="271.302"><stop offset=".001" style="stop-color:#2b39ed"/><stop offset=".318" style="stop-color:#2a00cb"/><stop offset=".708" style="stop-color:#04008f"/><stop offset="1" style="stop-color:#040075"/></linearGradient><path d="M464.6 182.3v-.2c0-.9-.1-1.8-.2-2.9V178.5c-.1-.6-.2-1.2-.3-1.9 0-.3-.1-.7-.1-1l.2 1.2-.2-1.5V175c-.1-.6-.3-1.3-.4-1.9-.1-.3-.1-.7-.2-1l-1.6-6.3-1.6-6.3-1.6-6.3-1.6-6.3-1.6-6.3-1.6-6.3-1.6-6.3-1.6-6.3-1.6-6.3-1.6-6.3c-.2-.6-.4-1.3-.6-2-.1-.2-.1-.5-.2-.7 0-.1 0-.1-.1-.2 0-.2-.1-.3-.1-.5l-.4-1.1c-.1-.3-.2-.5-.3-.8-.1-.2-.1-.3-.2-.4l-.1-.4v.1c0-.1-.1-.2-.1-.4-.1-.3-.3-.7-.5-1.1-.1-.2-.1-.3-.2-.4-.2-.5-.5-1-.7-1.5l-.1-.2c0-.1-.1-.1-.1-.2s-.1-.1-.1-.2c-.3-.6-.7-1.2-1-1.7l-.2-.4-.3-.4c0-.1-.1-.1-.1-.2-.6-.9-1.1-1.6-1.4-2.1-.5-.8-1.2-1.6-1.8-2.3l-.1-.1s0-.1-.1-.1l-.2-.2c-.2-.3-.4-.5-.6-.7l.1.1-.1-.2c-.1-.2-.3-.3-.4-.4l-.1-.1c-.3-.3-.5-.6-.6-.7l-.1-.1c-1.8-1.9-3.6-3.3-5-4.4-.1-.1-.2-.2-.3-.2-.2-.2-.4-.3-.7-.5-.1 0-.1-.1-.2-.1-.3-.2-.5-.4-.8-.5-.8-.5-1.8-1.1-2.5-1.6l-2.7-1.4c-.8-.4-2-.9-2.9-1.3-.3-.1-.9-.4-1.7-.6-.1 0-.3-.1-.4-.1-.2-.1-.4-.1-.6-.2l-.2-.1c-.1 0-.3-.1-.4-.1-.1 0-.1 0-.2-.1-.4-.1-.9-.3-1.3-.4-.3-.1-.5-.1-.7-.2-2.6-.6-5-1-7.2-1.1h-.1c-.7 0-1.5-.1-2.2-.1h-.8c-1.2 0-2.9.1-4.2.2-.9.1-2.2.3-3.1.4h-2.7c-.2.1-.5.1-.7.2h.1c-.3 0-.5.1-.8.2h-.1c-27.7 7.8-55 14.3-82.4 19.6-4.4.9-8.7 1.7-13.1 2.5l-.9.2c-4.5.8-9 1.6-13.4 2.3-.5.1-1 .2-1.5.2-3.7.6-7.4 1.2-11 1.8-.7.1-1.5.2-2.2.3h-.1c-4.2.6-8.3 1.2-12.5 1.8-.3 0-.5.1-.8.1-27.7 3.8-56 6.5-85.2 8.2h.1-.6c-.5.1-1.1.1-1.6.2H167.1c-.2 0-.3 0-.4.1-1.9.3-2.3.4-5.9 1.4-.9.3-1.8.6-2.8 1h-.2c-.3.1-.6.3-1 .4-2.2.9-4.4 2-6.6 3.3-1.5.9-3 1.9-4 2.7-1 .7-2.3 1.7-3.2 2.6-.3.2-.5.5-.8.7-.5.4-1 .9-1.4 1.3l-2.1 2.1c-8.8 9.4-12.6 23.1-9 37.5l16.1 62.9.6 2.1v.1c0 .1.1.3.1.4.1.2.1.4.2.6.1.2.1.3.2.5s.1.4.2.5v.1c.1.2.2.5.3.7v.1c.1.2.2.4.2.6.1.1.1.3.2.4 0 0 0 .1.1.2 0 .1.1.2.1.2.1.1.1.3.2.4v.1c.1.3.3.7.5 1 0 0 0 .1.1.1 0 0 0 .1.1.1.1.2.2.5.4.7.1.2.2.5.4.7v.1c0 .1.1.1.1.2s.1.2.1.2c0 .1.1.2.1.3.1.2.2.3.3.5.2.3.3.6.5.9.1.1.1.2.2.3.1.1.2.3.3.4.1.1.1.2.2.3.1.1.1.2.2.3.1.1.2.3.3.4.1.1.1.2.2.3.1.2.3.4.4.6.2.3.3.5.5.8l.2.2s0 .1.1.1l.1.1c.1.2.3.4.4.5.2.3.4.5.6.8.1.1.2.3.3.4 0 .1.1.1.1.2.1.1.1.2.2.3l.1.1c.1.1.1.2.2.3l.1.1c.1.1.2.2.3.4.1.1.2.3.3.4.1.2.3.3.4.4l.3.3.4.4.4.4.1.1.1.1c0 .1.1.1.2.2.2.2.4.4.5.6l.3.3.3.3c.1.1.3.2.4.4.2.2.4.3.6.5.1.1.2.2.3.2l.3.3.1.1c.1.1.2.2.3.2.2.2.5.4.7.6.2.2.4.3.6.5.1.1.2.2.4.3.1 0 .1.1.2.1h.1c.2.1.3.3.5.4.2.2.4.3.6.5.1.1.2.2.3.2.2.1.4.3.5.4.1.1.3.2.4.3.1 0 .1.1.2.1 0 0 .1 0 .1.1 0 0 .1 0 .1.1.1.1.3.2.4.3.3.2.7.4 1 .6.2.1.3.2.5.3.1.1.2.1.3.2.1.1.3.2.4.2.1.1.3.2.4.3.1.1.2.1.4.2s.4.2.6.4c0 0 .1 0 .1.1.1.1.2.1.3.1.4.2.7.4 1.1.6.1 0 .2.1.2.1s.1 0 .1.1c.2.1.3.2.5.2.2.1.4.2.7.3.2.1.5.2.7.3.2.1.4.2.6.2h.1c.2.1.3.1.5.2.1 0 .2.1.2.1.2.1.3.1.5.2.3.1.5.2.8.3.4.1.8.3 1.2.4.1 0 .2.1.2.1.1 0 .2.1.3.1.1 0 .2.1.3.1.4.1.8.2 1.1.4.3.1.6.2.9.2.1 0 .3.1.4.1.1 0 .2.1.3.1.1 0 .3.1.4.1.3.1.6.1.9.2.4.1.7.2 1.1.2.2 0 .4.1.6.1h.4c.4.1.7.1 1.1.2.3 0 .6.1.9.1.4 0 .7.1 1.1.1.3 0 .6.1.9.1.4 0 .7.1 1.1.1h4.2c.3 0 .6 0 1-.1h.5-.1c1.1-.1 2.3-.2 3.4-.4 1.2-.2 2.3-.4 3.5-.7 36.3-10.3 73.2-18.5 110.7-24.8 31.3-5.2 63-9 95-11.3 1.5-.1 3-.2 4.6-.3 4.7-.3 9.5-.6 14.3-.9h.1c1.2-.1 2.3-.2 3.5-.4 8.8-1.5 16.3-5.6 21.8-11.5 1.1-1.2 1.7-1.9 2.4-2.8.8-1 1.5-1.9 2.1-2.8v-.1l.1-.2c.3-.4.6-.9.9-1.3.2-.3.4-.7.6-.9l-.3.4v-.1l.3-.4c.1-.2.2-.3.3-.5.2-.3.3-.6.5-.8.2-.4.5-.8.7-1.2.2-.4.5-.9.8-1.5 1.2-2.2 2.1-4.5 2.9-6.8 0 0 0-.1.1-.1.6-1.6 1-3.3 1.4-5.1.1-.2.1-.5.1-.7 0-.2.1-.3.1-.5.1-.4.1-.7.2-1.1.1-.5.2-.9.2-1.4.2-1.2.3-2.8.4-4-1.1.3-1-.6-1.1-1.6zm-50-99.2c.3.1.7.1 1 .2.5.1 1.1.2 1.6.3.8.2 1.6.4 2.4.7h.1c10.1 3.4 18.6 11.9 21.6 22.9 0 .1.1.2.1.3l16.1 62.9c4 15.6-4.9 30.2-19.5 33.6-1.1 0-2.3 0-3.3.5-.4 0-.8.1-1 .2-38.5 2.1-76.9 6.4-114.8 12.7-37.9 6.3-75.3 14.7-112 25.1-.3-.3-1.3.3-2.1.4-7.3 1.2-14.7-.5-21-4.2-1.5-1-2.9-2-4.3-3-5.2-4.3-9.3-10.3-11-17.2l-16.1-62.9c-.3-1-.4-2-.6-2.9-.5-5.3 0-9.8 1.1-13.5v-.1c.1-.3.2-.7.4-1 1.6-4 4.1-7.5 7.3-10.3 5.6-4.6 12-5.9 13.6-6.2.6 0 1.3 0 1.8-.1.1 0 .1 0 .2-.1 0 0 .1 0 .1-.1 35-1.9 69.9-5.6 104.4-11C352.9 99.3 399 85 402.9 83.7c.1 0 .2 0 .3-.1h.2c.4 0 1-.2 1.6-.4.1 0 .2 0 .3-.1h.1c.4-.1.8-.1 1.2-.1 2.6-.3 5.3-.3 8 .1z" style="fill:url(#SVGID_4_)"/><image style="overflow:visible" width="327" height="181" xlink:href="B0D79CE7.png" transform="translate(141.804 72.52)"/><linearGradient id="SVGID_5_" gradientUnits="userSpaceOnUse" x1="151.294" y1="163.053" x2="458.371" y2="163.053"><stop offset="0" style="stop-color:#4879ed"/><stop offset=".266" style="stop-color:#3b39ed"/><stop offset=".858" style="stop-color:#1e00d3"/></linearGradient><path d="M405.1 83.1c15.7-2.6 32.1 8.2 36.2 24.4 5.4 21 10.7 42 16.1 62.9 4.2 16.3-5.6 31.4-21.4 34-.8.1-2.1-.1-2.5.3-38.5 2.1-76.9 6.4-114.8 12.7-37.9 6.3-75.3 14.7-112 25.1-.3-.3-1.3.3-2.1.4-15.8 2.6-32.1-8.2-36.3-24.4-5.4-21-10.7-42-16.1-62.9-4.2-16.3 5.6-31.4 21.3-34 .8-.1 2.1.1 2.5-.3 38.5-2.1 76.9-6.4 114.9-12.7 37.9-6.3 75.3-14.7 112-25.1.3.3 1.4-.3 2.2-.4z" style="fill:url(#SVGID_5_)"/><linearGradient id="SVGID_6_" gradientUnits="userSpaceOnUse" x1="31.518" y1="266.164" x2="121.901" y2="266.164"><stop offset=".001" style="stop-color:#2b39ed"/><stop offset=".318" style="stop-color:#2a00cb"/><stop offset=".708" style="stop-color:#04008f"/><stop offset="1" style="stop-color:#040075"/></linearGradient><path d="M34.7 316.8c.9 2.9 2 5.6 3.3 8.3 6.9-17.1 21.1-28.7 38-38.3 18.4-10.5 39.5-21.5 46-43.1l-9.3-36.6c-9 11.8-23 19.8-36 27.1-20.3 11.5-38.1 24.9-43.4 49-1.4 6.4-1.7 13-1.7 19.6.3.6.7 2.7 1.3 6.4.5 2.6 1 5.1 1.8 7.6z" style="fill:url(#SVGID_6_)"/><path class="st0" d="m128.8 248.7-4.7 4.8-13.2-48.2 4.1-7.2z"/></svg>