<svg version="1.1" id="Layer_1" xmlns="http://www.w3.org/2000/svg" xmlns:xlink="http://www.w3.org/1999/xlink" x="0" y="0" viewBox="0 0 500 351" style="enable-background:new 0 0 500 351" xml:space="preserve"><style>.st0{fill:#ecf1ff}.st1{fill:#7703fc}.st2{fill:#ffdb37}.st3{fill:#9caff1}.st4{fill:#d6dcfd}.st5{fill:#fff}.st10,.st6{fill:none;stroke:#d6dcfd;stroke-width:.9642;stroke-miterlimit:10}.st10{stroke:#000;stroke-width:.9745}.st11{fill:#faa67c}.st12{fill:none;stroke:#fff;stroke-width:1.172;stroke-linecap:round;stroke-linejoin:round;stroke-miterlimit:10}</style><circle class="st0" cx="412" cy="294.1" r="12"/><circle class="st0" cx="92.1" cy="161" r="44.9"/><path class="st1" d="M41.5 229c0 2.3-1.9 4.2-4.2 4.2s-4.2-1.9-4.2-4.2 1.9-4.2 4.2-4.2 4.2 1.9 4.2 4.2z"/><path class="st2" d="M475.5 189.9c0 2.7-2.2 4.9-4.9 4.9s-4.9-2.2-4.9-4.9 2.2-4.9 4.9-4.9 4.9 2.2 4.9 4.9z"/><circle class="st1" cx="256.5" cy="20" r="4.6"/><circle class="st0" cx="151.1" cy="294.6" r="10.5"/><circle transform="rotate(-20.788 418.019 60.218)" class="st0" cx="418" cy="60.2" r="40.2"/><path class="st3" d="m99.6 280-36.2-5.4L76.8 310z"/><path class="st4" d="M415.4 235.8V72.7c0-14.9-12.1-27-27-27H109.6c-14.9 0-27 12.1-27 27v163.1c0 14.9 12.1 27 27 27h278.8c14.9 0 27-12.1 27-27z"/><path class="st5" d="M407.2 238.8V69.6c0-8.7-7-15.7-15.7-15.7H108.2c-8.7 0-15.7 7-15.7 15.7v169.2c0 8.7 7 15.7 15.7 15.7h283.3c8.6 0 15.7-7 15.7-15.7z"/><path class="st6" d="M243.1 224.7H123.7c-4.8 0-8.7-3.9-8.7-8.7V88c0-4.8 3.9-8.7 8.7-8.7H243c4.8 0 8.7 3.9 8.7 8.7v128c.1 4.8-3.8 8.7-8.6 8.7zM382.9 162.8H272c-4.8 0-8.7-3.9-8.7-8.7V88c0-4.8 3.9-8.7 8.7-8.7h110.9c4.8 0 8.7 3.9 8.7 8.7v66.1c0 4.8-3.9 8.7-8.7 8.7zM382.9 224.6H272c-4.8 0-8.7-3.9-8.7-8.7v-32.7c0-4.8 3.9-8.7 8.7-8.7h110.9c4.8 0 8.7 3.9 8.7 8.7v32.7c0 4.8-3.9 8.7-8.7 8.7z"/><path class="st1" d="M230.6 202H136c-2 0-3.6-1.6-3.6-3.6v-20.1c0-2 1.6-3.6 3.6-3.6h94.5c2 0 3.6 1.6 3.6 3.6v20.1c.1 2-1.5 3.6-3.5 3.6z"/><path d="M229.5 164.2h-92.3c-2.6 0-4.7-2.1-4.7-4.7V96.8c0-2.6 2.1-4.7 4.7-4.7h92.3c2.6 0 4.7 2.1 4.7 4.7v62.7c0 2.6-2.1 4.7-4.7 4.7z" style="fill:#e0caff"/><circle class="st2" cx="229.9" cy="94.9" r="10.6"/><path style="fill:none;stroke:#fff;stroke-width:.9931;stroke-linecap:round;stroke-linejoin:round;stroke-miterlimit:10" d="m225.6 95 3.9 2.9 4.7-6"/><path d="M135.3 64.8c0 2.1-1.7 3.9-3.9 3.9s-3.9-1.7-3.9-3.9c0-2.1 1.7-3.9 3.9-3.9s3.9 1.7 3.9 3.9z" style="fill:#fd5100"/><path class="st2" d="M150.4 64.8c0 2.1-1.7 3.9-3.9 3.9s-3.9-1.7-3.9-3.9c0-2.1 1.7-3.9 3.9-3.9s3.9 1.7 3.9 3.9z"/><path class="st3" d="M165.5 64.8c0 2.1-1.7 3.9-3.9 3.9-2.1 0-3.9-1.7-3.9-3.9 0-2.1 1.7-3.9 3.9-3.9s3.9 1.7 3.9 3.9z"/><circle class="st1" cx="80.1" cy="64.9" r="25"/><path class="st5" d="M88.6 58.5c-2-2-5.3-2-7.3.1L80 59.9l-1.4-1.3c-2-2-5.3-2-7.3.1-2 2-2 5.3.1 7.3l5 5c.8.8 1.8 1.3 2.8 1.4 1.6.2 3.3-.3 4.5-1.5l5-5.1c2-2 2-5.3-.1-7.3z"/><path class="st1" d="M457.5 141.9h-23.8c-3.2 0-5.8-2.6-5.8-5.8 0-3.2 2.6-5.8 5.8-5.8h23.8c3.2 0 5.8 2.6 5.8 5.8-.1 3.2-2.7 5.8-5.8 5.8z"/><path class="st5" d="M440.7 136.2c0 .8-.7 1.5-1.5 1.5s-1.5-.7-1.5-1.5.7-1.5 1.5-1.5 1.5.6 1.5 1.5zM447 136.1c0 .8-.7 1.5-1.5 1.5s-1.5-.7-1.5-1.5.7-1.5 1.5-1.5c.9.1 1.5.7 1.5 1.5zM453.3 136.1c0 .8-.7 1.5-1.5 1.5s-1.5-.7-1.5-1.5.7-1.5 1.5-1.5c.9 0 1.5.7 1.5 1.5z"/><circle class="st3" cx="250.6" cy="325.3" r="8.9"/><circle class="st3" cx="197.9" cy="325.3" r="8.9"/><path class="st10" d="m330.9 180.8-20.4 4.2c-4.3.8-7.6 4-8.6 8.2l-18.1 75.7H182.4c-6.3 0-11.8-4.1-13.6-10.1l-10.1-44.2 140.8-11.1"/><path class="st10" d="m165.1 242.7 126.7-7.4-15.2 62.5c-2.6 10.9-12.3 18.6-23.4 18.6h-73.9M269.1 205.8l-12.2 63M189 212.1l6.8 56.7M228.4 209v59.8"/><path class="st11" d="m437.2 260.4 7.6-12.7 29 10.2-6.6 11.3z"/><path d="m468.7 263.8-.1.1c-.8 1.1-2.5 1.9-3.8 1.3-.8-.4-2-.6-3.4-.4-1.3.2-2.2 1.4-2.1 2.7.3 4.5 1.2 15.4-.6 24.7-.4 2.1.2 4.3 1.8 5.9l.8.8 22.7-38.8-12.4-4.1c-1.1-.9-2.7-.9-3.7.2-.9 1-1 2.4-.2 3.5l.8 1c.8.8.9 2.1.2 3.1z"/><path class="st4" d="M484.1 260.1s.6-.3 1.3.2c.8.6 1 1.7.5 2.6l-20.6 35.4c-.8 1.4-2.7 1.7-3.9.6l22.7-38.8z"/><path class="st12" d="M459.8 273.7s.7-1.1 3.5-.6M459.8 276.5s.7-1.1 3.5-.6M459.8 279.9s.7-1.1 3.5-.6"/><path class="st1" d="M479.1 257.9s-9.1 10.1-7.4 23.3l12.3-21.1c.1 0-1.9-1.5-4.9-2.2z"/><path d="m363.5 196.8 14.9 43.3c1.5 4.5 4.8 8.2 9.2 10h.1l61.7 20.2 11.2-24.6-58.2-22.5s-15.1-55.8-20.6-61.3l-18.3 34.9z" style="fill:#7b94de"/><path class="st11" d="m356 290.8 14.8.2 6 30.1h-13.2z"/><path d="M369.1 319.7h-.1c-1.4-.1-2.9-1.2-3.1-2.6-.1-.9-.4-2-1.4-3.1-.8-1-2.3-1.2-3.4-.5-3.7 2.6-12.6 8.8-21.6 12-2.1.7-3.6 2.4-4.2 4.5l-.3 1.1 45-.1-2.8-12.8c.3-1.4-.6-2.8-2-3.1-1.3-.3-2.6.4-3.1 1.6l-.4 1.2c-.4 1.2-1.5 1.9-2.6 1.8z"/><path class="st4" d="M380 331.1s.5.4.5 1.2c-.1 1-1 1.8-2 1.7l-40.9.2c-1.6 0-2.8-1.5-2.5-3l44.9-.1z"/><path class="st12" d="M356 317.1s1.3.1 2.3 2.8M353.5 318.5s1.3.1 2.3 2.8M350.7 320.1s1.3.1 2.3 2.8"/><path class="st1" d="M379.4 325.7s-13.3-2.7-23.8 5.4l24.5-.1c-.1.1.2-2.4-.7-5.3z"/><path class="st3" d="m358.7 175-19.9 55.3c-1.1 3.1-1.4 6.3-1 9.6l15.9 67.1 26.7-3.4-12.6-65.7s27.3-46.6 26.2-65.4l-35.3 2.5z"/><path class="st11" d="m341.4 101.4 7.1 14.7 10.8-8.8-10.6-16.8z"/><path style="opacity:.29;enable-background:new" d="m344.3 107.3 2.7-8.6-5.4 3.2z"/><path class="st11" d="M335.2 70.9s-6.9 1.7-6.7 10.5c0 0 0 3.4.5 12.6.2 4.9 3.7 11 9.8 10.2 3-.4 6-2.3 8.8-4.7l3.8-4.1c8.7-11.3-1.2-27.6-15.1-24.7-.4.1-.8.1-1.1.2z"/><path class="st11" d="m329.4 88.1-2.5 5.1c-.3.4-.1 1.1.5 1.1l3.2.3-1.2-6.5z"/><path id="XMLID_2_" class="st5" d="M331.8 85.4s3.1.7 3.2 2.6c.2 2.3-2.7 1.9-2.7 1.9s-2.7-2.2-.5-4.5z"/><defs><path id="SVGID_1_" d="M331.8 85.4s3.1.7 3.2 2.6c.2 2.3-2.7 1.9-2.7 1.9s-2.7-2.2-.5-4.5z"/></defs><clipPath id="SVGID_2_"><use xlink:href="#SVGID_1_" style="overflow:visible"/></clipPath><path d="M332.2 84.8s1.9 3.3-.4 5.6l-1.3-.1-.2-3.7 1.9-1.8z" style="clip-path:url(#SVGID_2_)"/><path d="M331.2 84.9c.5.1.9.2 1.3.4s.8.4 1.1.6c.4.3.7.6.9.9.3.4.4.8.5 1.2 0 .1 0 .1-.1.1s-.1 0-.1-.1c-.3-.8-.8-1.4-1.5-1.7-.3-.2-.7-.3-1.1-.4s-.8-.2-1.1-.2c-.2 0-.4-.2-.3-.4s.2-.4.4-.4z"/><path class="st5" d="m330.1 96.4 3-.1c0 .1-2 3.1-3 .1z"/><path class="st1" d="M337.9 83.3c-.3.1-.7.1-1 0-.6-.3-2.1-.9-4.2-1.5-3.4-1-1.8-3.1 0-2.8 1.8.3 4.4 1.8 5.4 3.1.4.7.1 1-.2 1.2zM348.5 89.5s-2 5.9 5 8.8c0 0 15.7-21.5-7.4-28.8l-1.3 2.2 3.7 17.8z"/><path class="st1" d="M355.4 72.9c0 1-1.1 8.7-1.1 8.7l-8.5 7.3s-4.8-6.9-3.1-13.8c0 .1 12.8-6 12.7-2.2z"/><path class="st11" d="M352.9 87.8c.4 2.3-1.2 4.5-3.5 4.8-2.3.4-4.5-1.2-4.8-3.5-.4-2.3 1.2-4.5 3.5-4.8 2.3-.4 4.5 1.2 4.8 3.5z"/><path class="st1" d="M344.6 66.6s13.5-.6 16.6 6c4.6 9.9-1.3 16.9-7.8 25.7l.9-16.7-9.7-15z"/><path class="st1" d="M344 77.3s-4.3-3.3-8.9-2.4-9.7 1.4-10.2-4c-.6-6.9 21.1-15.1 34.9-.1l-11 5.8-4.8.7z"/><path class="st11" d="M278.8 114.1c5.8 3.2 10.7 2.9 13-1.6 2.2-4.5.4-10-4.1-12.2s-8.3-1.3-11.3 2.8c-2.3 3.3-2.6 8.2 2.4 11z"/><path class="st11" d="M279.7 100.4s.7-3 5.9-2.3c4.7.6 9.6 5.9 6.2 14.4l-12.1-12.1z"/><path class="st11" d="m280.3 102.7-9.1-6.1c-.8-.5-1.1-1.5-.7-2.3.4-.7 1.2-1 1.9-.7l10.8 4.8-2.9 4.3zM326 120.8l-36.1-12.4-4.6 6.5 34 20.2c4.9 2.8 9.9-.6 11.6-6 1.3-4.1-.9-6.4-4.9-8.3z"/><path class="st11" d="m357.2 113.4-37.1 8.5c-4.8 2-7.6 2.6-6 7.5 1.8 5.2 7.4 8 12.6 6.3l36-5.4c5-1.7 8.4-5.2 7.8-10.4-.8-7.4-6.5-9.4-13.3-6.5z"/><path style="fill:#f2cd31" d="m336.5 118.1 6.7 20.1 22.2-3.3-1.6-23.5z"/><path class="st2" d="m347.9 114.7 7 70.4c29.1 5.2 41.5-8.3 41.5-8.3s-8.1-24-14.1-41.1c-6.3-17.9-15.6-24.5-23-28.3l-11.4 7.3z"/><path class="st11" d="M359.3 107.3s-5.5 11.3-10.8 13.4l-.7-6.2 7.3-5.2 4.2-2zM367.7 156.6 332 170.1l-.1 8.2 41.8-7.8z"/><path class="st11" d="M318.4 178.2c1.8-5.1 7.5-6.5 7.5-6.5l7.7-2.2 3.5 3.7-2.6 2.4c.7 3.4-.3 9-4.3 11.3-4.6 2.5-13.6-3.6-11.8-8.7zM356.5 134l8 31.5c.9 3.5 5.7 5.7 9.2 5 3.7-.7 6.1-4.3 5.4-8l-6-31.8-16.6 3.3z"/><path class="st2" d="M362.4 112c-2.2-.3-4.3.7-5.9 2.2-2 2.1-4.4 5.8-3.6 11.8 1.4 10 5.1 20.3 5.1 20.3l18.6-3c.2.1-1.8-29.8-14.2-31.3z"/><path d="M359.6 146h0s-3.2-11.6-3.9-18" style="fill:none;stroke:#000;stroke-width:.4058;stroke-linecap:round;stroke-linejoin:round;stroke-miterlimit:10"/><path class="st6" d="M14.6 334.2h467.3"/></svg>