<svg xmlns="http://www.w3.org/2000/svg" viewBox="0 0 4800 4200" style="enable-background:new 0 0 4800 4200" xml:space="preserve"><style>.st0{fill:#f5eeff}.st1{fill:#d0b7f9}.st2{fill:#fff}.st3{fill:#660ee5}.st5{fill:#8217fd}.st6{fill:#98d8c9}.st7{opacity:.56}.st8{opacity:.33;fill:#660ee5}.st11{opacity:.57}.st16{fill:#422684}.st26{fill:#240266}.st35{fill:#af86fc}.st41{fill:#f0fffc}.st42{fill:#ffb68e}.st43{fill:#000538}.st44{fill:#3d2084}.st45{fill:#172755}.st46{opacity:.18;fill:#003b64}.st49{fill:#de5f12}.st50{fill:#ffa600}.st51{fill:#001abd}.st56{fill:#ffb600}.st63{fill:#004e15}.st64{fill:#2f375f}.st66{fill:#003b64}.st72{fill:#003351}</style><g id="Ñëîé_1"><path class="st0" d="M3278.9 3450.5c-173.1-720.4 206.6-767.5 295.2-614.4 76.6 132.4 195.4 78.4 240.3 54.6 260-137.8 421.4-269.5 593.7-142.8 136.5 100.5 18.5 383.1 41.6 536.1 9.9 65.8 59.1 118.8 59.1 118.8s-39.5-136.6-18.6-164.5c20.9-27.9 31.3 31.4 53.2 28.6 21.9-2.8-2.7-85.3 43.9-74.7 74 16.7 18.9 157.6 34.2 155.1 15.4-2.5 83.5-89.4 108.3-70.8 90.2 67.3-135.6 176.7-135.6 176.7l-1315.3-2.7z"/><path class="st1" d="M4495.7 3193.2s-5.4-42.1 30.8-68 77.5-3.2 65.1 7.5c-12.4 10.7-46 3-58 28.2-12 25.1-22.7 62.1-37.9 32.3zM4639.2 3273.4s-.8-42.4 38.1-64.2c38.8-21.8 77.4 5.3 63.9 14.6-13.5 9.3-46.1-2.1-60.8 21.6-14.7 23.6-29.4 59.2-41.2 28z"/><path class="st2" d="M4338.1 3469.6h-838.4V2945c0-2.4 1.9-4.3 4.3-4.3h829.7c2.4 0 4.3 1.9 4.3 4.3v524.6z"/><path class="st0" d="M3524 2994.4h791.6v452.4H3524z"/><path class="st3" d="M4154.8 3084.3h-493.5c-3.4 0-6.2-2.8-6.2-6.2 0-3.4 2.8-6.2 6.2-6.2h493.5c3.4 0 6.2 2.8 6.2 6.2.1 3.5-2.7 6.2-6.2 6.2zM4154.8 3140.1h-493.5c-3.4 0-6.2-2.8-6.2-6.2 0-3.4 2.8-6.2 6.2-6.2h493.5c3.4 0 6.2 2.8 6.2 6.2.1 3.4-2.7 6.2-6.2 6.2zM4154.8 3195.9h-493.5c-3.4 0-6.2-2.8-6.2-6.2 0-3.4 2.8-6.2 6.2-6.2h493.5c3.4 0 6.2 2.8 6.2 6.2.1 3.4-2.7 6.2-6.2 6.2zM4154.8 3251.7h-493.5c-3.4 0-6.2-2.8-6.2-6.2 0-3.4 2.8-6.2 6.2-6.2h493.5c3.4 0 6.2 2.8 6.2 6.2.1 3.4-2.7 6.2-6.2 6.2zM4154.8 3307.5h-493.5c-3.4 0-6.2-2.8-6.2-6.2 0-3.4 2.8-6.2 6.2-6.2h493.5c3.4 0 6.2 2.8 6.2 6.2.1 3.4-2.7 6.2-6.2 6.2zM4154.8 3363.2h-493.5c-3.4 0-6.2-2.8-6.2-6.2 0-3.4 2.8-6.2 6.2-6.2h493.5c3.4 0 6.2 2.8 6.2 6.2.1 3.5-2.7 6.2-6.2 6.2z"/><path style="fill:#e2cfff" d="M3499.7 3444.6h985.2v25h-985.2z"/><path class="st5" d="M3778.4 3469.6H4485v39.8h-706.6z"/><path class="st3" d="M3499.7 3469.6h278.7v39.8h-278.7z"/><path class="st1" d="M4571.3 3455.9c-.8 0-1.6-.3-2.1-1-.7-.8-16.9-21.3-12-92.5 5.5-80.1 33.8-144.8 34.1-145.4.6-1.4 2.3-2 3.7-1.4 1.4.6 2 2.3 1.4 3.7-.3.6-28.2 64.5-33.7 143.5-4.7 68.4 10.6 88.4 10.7 88.5 1 1.2.8 3-.4 3.9-.5.5-1.1.7-1.7.7z"/><path class="st1" d="M4564.1 3437.8c-.4 0-.7-.1-1.1-.2-.8-.3-1.4-1-1.6-1.8l-52.2-175.4c-.4-1.5.4-3 1.9-3.5s3 .4 3.5 1.9l51.2 172.1c10.1-5.4 44.2-24.1 80.8-50 43.3-30.6 83.4-85 83.8-85.6.9-1.3 2.7-1.5 3.9-.6 1.2.9 1.5 2.7.6 3.9-.4.6-41.1 55.7-85.1 86.8-43.8 31-84 51.8-84.4 52-.4.3-.8.4-1.3.4zM4367 3370.6c-1.1 0-2.2-.6-2.8-1.5-.7-1.2-.5-2.7.5-3.5 3.3-18 2.6-233.2-30.1-384.2-33.9-156.2-127.2-215.1-128.1-215.6-1.3-.8-1.7-2.5-.9-3.9.8-1.3 2.5-1.8 3.9-.9 1 .6 96.3 60.5 130.7 219.2 30.7 141.6 37.1 386.5 27.8 390.3-.4 0-.7.1-1 .1zm-.2-2.8z"/><path class="st1" d="M4319.7 2923.7c-4.2 0-24.3-2.3-104.9-33.6-90.5-35.1-146.6-76.9-147.2-77.3-1.2-.9-1.5-2.7-.6-3.9 1-1.2 2.7-1.5 3.9-.6.5.4 56.1 41.8 145.8 76.6 87.4 33.9 102.4 33.5 103 33.2 1.3 0 2.9 1 3 2.5.2 1.5-.8 2.9-2.3 3.1 0-.1-.2 0-.7 0zM4347.8 3040c-.8 0-1.6-.3-2.1-1-1-1.2-.9-2.9.3-3.9.5-.5 54.7-48.5 87.7-110.9 26.6-50.5 9.2-116.5 9-117.1-.4-1.5.5-3 2-3.4 1.5-.4 3 .5 3.4 2 .8 2.8 18.2 68.7-9.5 121.2-33.4 63.3-88.3 112-88.9 112.5-.6.3-1.3.6-1.9.6zM4333.8 2968.3c-.4 0-.9-.1-1.3-.3-1.4-.7-1.9-2.4-1.2-3.8.2-.5 24.3-48.9 32.5-120.1 6.7-57.5-18.1-94.4-18.4-94.7-.9-1.3-.5-3 .7-3.9 1.3-.8 3-.5 3.9.7 1.1 1.6 26.2 39 19.3 98.6-8.3 72.2-32.8 121.4-33.1 121.9-.4 1-1.4 1.6-2.4 1.6z"/><path class="st0" d="M1885 1702.8s-49.6-477.5 16.6-492.8c66.2-15.3 70.5 246.1 150.7 250.7 80.1 4.7 210-85.1 309-1.4 76.7 64.8 51.7 148.2 104 179.8 52.2 31.7 122.3-204.2 184.7-170.8 43.3 23.2-34 76.1-2.5 127.3 19.9 32.5 47.4-40.7 128.5-40.7 119.8 0 116.2 136.1 41.6 162.1s-144 15.4-167.6 69.8c-39.2 90.5 124 55.6 198.7 79.1 360.8 113.3 183.5 586.9 340.1 578.1 167.8-9.5-986.6 57.4-986.6 57.4L1885 1702.8z"/><path class="st1" d="M2316.3 2070c-.3 0-.7 0-1-.2-1.7-.6-2.6-2.4-2-4 .7-2.1 70.8-210.8 196-319.5 125.4-108.8 305.5-121.1 307.3-121.2 2.1-.2 3.3 1.2 3.4 3 .1 1.8-1.2 3.3-3 3.4-1.8.1-179.8 12.3-303.5 119.6-123.9 107.5-193.4 314.6-194.1 316.7-.5 1.3-1.8 2.2-3.1 2.2z"/><path class="st6" d="M2571.4 1700c-1.5 0-2.9-1.1-3.2-2.7-.2-1.4-5.4-35.1 13.1-95 18.4-59.6 44.9-99.1 45.1-99.5 1-1.5 3-1.9 4.4-.9 1.5 1 1.8 3 .9 4.4-.3.4-26.2 39.2-44.3 97.9-18 58.3-13 91.7-12.9 92.1.3 1.7-.9 3.4-2.6 3.6-.1.1-.3.1-.5.1z"/><path class="st1" d="m2763.2 2519.5-4.6-4.4 2.3 2.2h-3.2v-1c-1.1-28.6-4.3-177.8 44.9-308.4 54-143.3 175.1-199.9 176.3-200.4 1.5-.7 3.5 0 4.2 1.6.7 1.6 0 3.5-1.6 4.2-1.2.5-119.9 56.1-173 196.9-48.8 129.5-45.6 277.6-44.5 305.9.1 1.6.2 2.4-.8 3.4z"/><path class="st6" d="M2988 2083h-.5l-86.8-13c-1-.1-1.9-.8-2.3-1.6-.5-.9-.5-1.9-.1-2.9l46.8-100.8c.7-1.6 2.7-2.3 4.2-1.5 1.6.7 2.3 2.6 1.5 4.2l-45 96.9 82.6 12.4c1.7.3 2.9 1.9 2.7 3.6-.2 1.5-1.5 2.7-3.1 2.7z"/><path class="st1" d="M2970.6 2156.6h-.1l-135.6-5.4c-1.7-.1-3.1-1.5-3.1-3.3l2.9-108.7c0-1.8 1.4-3.1 3.3-3.1 1.8 0 3.1 1.5 3.1 3.3l-2.9 105.5 132.4 5.2c1.8.1 3.1 1.6 3.1 3.3 0 1.9-1.4 3.2-3.1 3.2zM2794.5 2257.1c-1.4 0-2.7-1-3.1-2.4l-35-130.5c-.5-1.7.5-3.4 2.3-3.9 1.7-.5 3.4.5 3.9 2.3l34.3 128 168.3-4.9c1.8.1 3.2 1.3 3.3 3.1 0 1.8-1.3 3.2-3.1 3.3l-170.9 5z"/><path class="st0" d="M1570.2 1576.7H563c-1.4 0-2.5-1.1-2.5-2.5V954.1c0-1.4 1.1-2.5 2.5-2.5h1007.2c1.4 0 2.5 1.1 2.5 2.5v620.1c-.1 1.3-1.2 2.5-2.5 2.5z"/><path class="st2" d="M669.6 1302.6h78.5v274.5h-78.5zM791.8 1197.5h78.5V1577h-78.5zM1275.9 1198.5h78.5V1578h-78.5zM914 1347.5h78.5V1577H914zM1398.7 1348.5h78.5V1578h-78.5zM1036.1 1192h78.5v385h-78.5zM1152.2 1045.3h90.7v536.9h-90.7z"/><g class="st7"><path class="st8" d="M661.5 1248.5H740v6.4h-78.5zM661.5 1227.7H740v6.4h-78.5zM661.5 1206.8H740v6.4h-78.5z"/></g><g class="st7"><path class="st8" d="M785 1161.3h78.5v6.4H785zM785 1140.4h78.5v6.4H785zM785 1119.6h78.5v6.4H785z"/></g><g class="st7"><path class="st8" d="M907.6 1302.4h78.5v6.4h-78.5zM907.6 1281.5h78.5v6.4h-78.5zM907.6 1260.6h78.5v6.4h-78.5z"/></g><g class="st7"><path class="st8" d="M1031.2 1139h78.5v6.4h-78.5zM1031.2 1118.1h78.5v6.4h-78.5zM1031.2 1097.3h78.5v6.4h-78.5z"/></g><g class="st7"><path class="st8" d="M1158.3 1019.9h78.5v6.4h-78.5zM1158.3 999h78.5v6.4h-78.5zM1158.3 978.2h78.5v6.4h-78.5z"/></g><g class="st7"><path class="st6" d="M1275.9 1153.9h78.5v6.4h-78.5zM1275.9 1133.1h78.5v6.4h-78.5zM1275.9 1112.2h78.5v6.4h-78.5z"/></g><g class="st7"><path class="st6" d="M1398.7 1284.8h78.5v6.4h-78.5zM1398.7 1263.9h78.5v6.4h-78.5zM1398.7 1243.1h78.5v6.4h-78.5z"/></g><path class="st3" d="M1012 1454.2c-47.4 0-80.7-18.4-115.7-37.6-28.2-15.5-57.3-31.5-96.7-39.4-91.2-18.2-164.3 56.4-165 57.2-4.9 5.1-13 5.2-18 .4-5.1-4.9-5.2-13-.4-18 3.4-3.5 83.5-85.5 188.4-64.5 43.3 8.7 75.6 26.4 104 42.1 38.9 21.4 72.6 40 126.2 32.9 41.3-5.4 65.5-30.2 91.1-56.5 31.2-32 66.6-68.3 136-68.3 130.3 0 195.9 112.1 198.6 116.8 3.5 6.1 1.4 13.9-4.7 17.4-6.1 3.5-13.9 1.4-17.4-4.7-.6-1-61.2-104-176.5-104-58.6 0-87.3 29.5-117.7 60.6-27.5 28.2-55.9 57.4-106 64-9.3 1-17.9 1.6-26.2 1.6z" style="opacity:.46"/><path class="st0" d="M4399.5 2568.2h-998c-1.3 0-2.4-1.1-2.4-2.4v-584.2c0-1.3 1.1-2.4 2.4-2.4h998c1.3 0 2.4 1.1 2.4 2.4v584.2c0 1.3-1.1 2.4-2.4 2.4z"/><path class="st2" d="m3428.1 2567.7 165.7-187 43.5 51.6 109.6-179.4 71.1 167.4 165.1-272 108.8 257 162.2-355.5v518z"/><path class="st2" d="m4278.5 2081.1-31.8-56.2-37.8 53.4z"/><path class="st3" d="M3444.5 2512.7c-2.1 0-4.2-.5-6.2-1.6-6.2-3.4-8.4-11.2-4.9-17.3l88.2-158.2c2.5-4.5 7.5-7.1 12.6-6.5 5.1.6 9.4 4.2 10.8 9.2l9.8 34.6 87.3-121.6c2.5-3.4 6.1-5.3 10.7-5.3 4.2.1 8.1 2.4 10.4 6l94 149 126.8-240.1c2.3-4.3 6.9-7 11.8-6.8 4.9.2 9.3 3.2 11.2 7.7l89.3 207.9 184.5-335.1c3.4-6.2 11.1-8.4 17.3-5 6.2 3.4 8.4 11.2 5 17.3l-197 358c-2.3 4.3-6.6 7-11.8 6.6-4.9-.2-9.2-3.2-11.1-7.7l-89.1-207.4-124.6 236c-2.1 4-6.2 6.6-10.8 6.8-4.5.3-8.8-2.1-11.3-5.9l-95.6-151.7-91.6 127.7c-2.9 4-7.7 6-12.6 5.1-4.8-.8-8.7-4.4-10.1-9.1l-8.6-30.4-73.2 131.2c-2.4 4.2-6.7 6.6-11.2 6.6z" style="opacity:.28"/><g class="st11"><path class="st8" d="M3846.7 2112.9h66.5v6.4h-66.5z"/></g><g class="st11"><path class="st8" d="M3712.8 2219.7h66.5v6.4h-66.5z"/></g><g class="st11"><path class="st8" d="M3614.6 2228.8h66.5v6.4h-66.5z"/></g><g class="st11"><path class="st8" d="M3956.3 2101.7h66.5v6.4h-66.5z"/></g><g class="st11"><path class="st8" d="M4166.7 2026.7h66.5v6.4h-66.5z"/></g><g class="st11"><path class="st8" d="M4284.3 2114.2h66.5v6.4h-66.5z"/></g><g class="st11"><path class="st8" d="M4284.3 2152.2h66.5v6.4h-66.5z"/></g><g class="st11"><path class="st8" d="M4284.3 2190.1h66.5v6.4h-66.5z"/></g><g class="st11"><path class="st8" d="M4284.3 2228.1h66.5v6.4h-66.5z"/></g><g class="st11"><path class="st8" d="M4284.3 2266.1h66.5v6.4h-66.5z"/></g><g class="st11"><path class="st8" d="M4284.3 2304h66.5v6.4h-66.5z"/></g><g class="st11"><path class="st8" d="M4284.3 2342h66.5v6.4h-66.5z"/></g><g class="st11"><path class="st8" d="M4284.3 2380h66.5v6.4h-66.5z"/></g><g class="st11"><path class="st8" d="M4284.3 2417.9h66.5v6.4h-66.5z"/></g><g class="st11"><path class="st8" d="M4284.3 2455.9h66.5v6.4h-66.5z"/></g><path class="st0" d="M1237.7 3540.4H950.2S512.7 3064 624.5 2905.3c111.8-158.7 237.4 25.8 289 5.4 51.6-20.4-300.3-388.2-61.1-616.1 196.2-186.9 699.4 48.2 699.4 48.2l110.6 1194.8-424.7 2.8z"/><path class="st0" d="M757.7 2677.6s52.4 86.3 27.3 96.8c-25.1 10.4-107-81.9-84.3-114.3s57 17.5 57 17.5z"/><linearGradient id="SVGID_1_" gradientUnits="userSpaceOnUse" x1="3659.444" y1="2919.343" x2="4339.279" y2="2919.343" gradientTransform="scale(-1 1) rotate(13.244 97.596 -15953.13)"><stop offset=".189" style="stop-color:#ffd234"/><stop offset=".986" style="stop-color:#ffb000"/></linearGradient><path d="M728.3 3103s-196.7-275.7-337.4-157.7c-95.9 80.4 19.8 286.9-6.8 315.1-26.6 28.2-154.9-95.8-267.9.1-113.1 95.8 146 400.4 146 400.4l330.8.8L728.3 3103z" style="fill:url(#SVGID_1_)"/><linearGradient id="SVGID_2_" gradientUnits="userSpaceOnUse" x1="871.709" y1="4120.783" x2="1107.908" y2="4120.783" gradientTransform="rotate(37.786 1965.597 2415.493)"><stop offset=".189" style="stop-color:#ffd234"/><stop offset=".986" style="stop-color:#ffb000"/></linearGradient><path d="M242.1 3238.7s-77.2-165.8-143.2-163.9c-65.8 1.9-61.2 66.6-17.4 103.7 42.9 36.3 160.6 60.2 160.6 60.2z" style="fill:url(#SVGID_2_)"/><linearGradient id="SVGID_3_" gradientUnits="userSpaceOnUse" x1="2056.001" y1="4264.282" x2="2270.597" y2="4264.282" gradientTransform="matrix(.3417 1.3999 -.9715 .2371 3636.9 -945.371)"><stop offset=".189" style="stop-color:#ffd234"/><stop offset=".986" style="stop-color:#ffb000"/></linearGradient><path d="M253.2 3248.4s49.5-221.2-8.7-282.7c-58-61.3-90.2 10.7-73 91.7 16.8 79.1 81.7 191 81.7 191z" style="fill:url(#SVGID_3_)"/><path class="st2" d="M397.8 3664.2c-1.7 0-3.1-1.2-3.4-2.9-.3-1.9 1-3.6 2.9-3.9 12.4-1.8 45.9-9.7 51.6-24.1 1.9-4.9.5-10.2-4.4-16.3-14.8-18.7-73 6.7-94.2 18-1.5.8-3.3.4-4.3-1-1-1.3-.9-3.2.3-4.4 1.1-1.2 112.8-116.5 149.4-171.7 44.7-67.4 41.9-115.9 24.5-138.9-11.8-15.6-30.8-20.5-52-13.6-56.5 18.4-124 275.8-124.6 278.4-.5 1.7-2.2 2.8-4 2.5-1.8-.3-3-2-2.7-3.8.3-2 26.7-205-33.1-275.5-31.7-37.3-77.5-54-109-39.6-27 12.3-38.5 45.1-31.5 89.8 17.5 113.2 165.2 293.9 166.7 295.7 1.2 1.5 1 3.6-.5 4.8-1.5 1.2-3.6 1-4.8-.5-6.1-7.5-150.4-184-168.2-299-7.4-48 5.5-83.4 35.4-97.1 34.8-15.9 82.9 1.2 117 41.4 45.8 54 43.3 177.6 38.5 241.4 21.5-73.9 71.9-229.9 118.5-245 23.8-7.7 46-1.8 59.5 16 18.9 24.8 22.4 76.4-24.2 146.8-29.3 44.2-106 126.3-137 158.8 25.3-11.4 69.9-27.5 85.5-7.8 6.4 8.1 8.2 15.9 5.4 23.1-8.3 21-55 28.1-57 28.3 0 0-.2.1-.3.1z"/><path class="st2" d="M340.2 3672.7c-1.3 0-2.5-.7-3.1-2-.5-1.1-11.8-29.5 50.5-159.2 61.9-128.9 111.7-170.9 113.8-172.7 1.4-1.2 3.6-1 4.8.5 1.2 1.4 1 3.6-.4 4.8-.5.4-50.8 43.1-112 170.4-59.9 124.7-50.5 153.3-50.4 153.6.6 1.7-.2 3.7-1.9 4.4-.4.1-.8.2-1.3.2z"/><path class="st2" d="M340.3 3627.4c-.9 0-1.8-.4-2.5-1.1-1.3-1.5-32.9-36.6-68.1-119.6-35.1-82.7-65.6-210.7-65.9-212-.4-1.8.7-3.7 2.5-4.1 1.8-.4 3.7.7 4.1 2.5.3 1.3 30.7 128.7 65.5 210.9 34.7 81.8 66.5 117.3 66.9 117.7 1.3 1.4 1.2 3.5-.2 4.8-.7.6-1.5.9-2.3.9z"/><path class="st2" d="M234.1 3397.3c-.9 0-1.8-.4-2.5-1.1l-60-62.9c-1.3-1.4-1.3-3.5.1-4.8 1.4-1.3 3.5-1.3 4.8.1l60 62.9c1.3 1.4 1.2 3.5-.1 4.8-.6.7-1.5 1-2.3 1zM261.9 3481.3c-.6 0-1.3-.2-1.9-.6l-62.2-40.8c-1.6-1-2-3.1-1-4.7s3.1-2 4.7-1l62.2 40.8c1.6 1 2 3.1 1 4.7-.6 1.1-1.7 1.6-2.8 1.6zM297.6 3561.2c-.5 0-1-.1-1.5-.4l-48.4-24.5c-1.7-.8-2.4-2.9-1.5-4.6.8-1.7 2.9-2.4 4.6-1.5l48.4 24.5c1.7.8 2.4 2.9 1.5 4.6-.7 1.3-1.9 1.9-3.1 1.9zM325.6 3608.1c-.2 0-.5 0-.7-.1l-28-5.8c-1.8-.4-3-2.2-2.6-4 .4-1.8 2.2-3 4-2.7l28 5.8c1.8.4 3 2.2 2.6 4-.3 1.7-1.7 2.8-3.3 2.8z"/><path class="st5" d="M2599.8 2606.8s27.1-263.1 361.6-217.9c64.6 8.7 68.2 18.9 121.2-19.3 136.4-98.2 267 75.4 190.9 278.2-79.1 211.2-41.9 148.2 30 175.2 71.8 27-78.2 334.9-78.2 334.9l-625.5-551.1z"/><path class="st2" d="M3157.3 2485.3c-.8 0-1.6-.3-2.2-1l-25.4-28.7-24.3 25.6c-1.1 1.1-2.8 1.2-4 .2l-29.2-24.1c-1.3-1-1.4-2.9-.4-4.2 1-1.3 2.9-1.4 4.2-.4l27 22.3 24.7-25.9c.6-.6 1.3-.9 2.2-.9.8 0 1.6.4 2.2 1l27.6 31.2c1.1 1.2 1 3.1-.3 4.2-.7.4-1.4.7-2.1.7zM3203.3 2622.3c-8.5 0-15.5-6.9-15.5-15.5 0-8.5 6.9-15.5 15.5-15.5 8.5 0 15.5 6.9 15.5 15.5s-6.9 15.5-15.5 15.5zm0-25c-5.3 0-9.6 4.3-9.6 9.6s4.3 9.6 9.6 9.6 9.6-4.3 9.6-9.6-4.3-9.6-9.6-9.6zM3216.3 2585.3h-27.1c-1.6 0-3-1.3-3-3 0-1.6 1.3-3 3-3h27.1c1.6 0 3 1.3 3 3-.1 1.7-1.4 3-3 3zM3183.3 2542.3h-64.7c-1.6 0-3-1.3-3-3s1.3-3 3-3h64.7c1.6 0 3 1.3 3 3s-1.4 3-3 3z"/><path class="st5" d="M3133.5 2379.1s32.1-143.5-5.7-183.4c-37.6-39.8-58.5 7-47.4 59.5 10.9 51.3 53.1 123.9 53.1 123.9zM3148.7 2360.8s61-42.6 54.4-70c-6.5-27.3-31.6-16.9-42.4 6.3-10.5 22.7-12 63.7-12 63.7z"/><linearGradient id="SVGID_4_" gradientUnits="userSpaceOnUse" x1="1343.644" y1="2153.433" x2="1958.863" y2="2153.433"><stop offset=".189" style="stop-color:#ffd234"/><stop offset=".986" style="stop-color:#ffb000"/></linearGradient><path style="fill:url(#SVGID_4_)" d="m1958.9 1247.5-327.4-528.3h-79.7l-208.2 590 65.4-.4 309.9 488.2 133.4 1790.7V1247.9z"/><path class="st16" d="M2266.8 1644.9h-414.5l-133.4 53.2v1889.6h547.9zM3073.6 2517.3h-404.8l2.6 1070.4h404.8z"/><path class="st16" d="M3067.5 2919.4h404.6v668.3h-404.6zM2266.8 2066.8h404.6v1520.9h-404.6z"/><path class="st3" d="M1772.6 1702.7h414.5v1885h-414.5z"/><path style="fill:#4d04bf" d="m1877.9 1204.9-326.1-485.7-348.2 489.1 125.7-.4v2379.8h443.3V1205.3z"/><linearGradient id="SVGID_5_" gradientUnits="userSpaceOnUse" x1="1340.211" y1="925.592" x2="1790.627" y2="925.592"><stop offset=".189" style="stop-color:#ffd234"/><stop offset=".986" style="stop-color:#ffb000"/></linearGradient><path d="M1553.2 975.6c-96.5 0-205.2-8.1-212.2-38.9-2.2-9.8 0-18.5 6.5-25.8 20.5-23.1 78.5-23.7 81-23.7l.1 10.2c-.5 0-55.2.6-72.3 19.9-4.3 4.9-5.7 10.5-4.2 17.3 1.3 5.7 15.7 24.7 146.8 29.7 75.9 2.9 160-.5 194.3-5.3 43.6-6.1 74-18.2 83.3-33.2 3.5-5.6 3.8-11.3 1.1-17.5-10-22.6-52-22.7-52.6-22.8v-10.2c1.9 0 50.2.2 63 29.2 4 9 3.4 18.1-1.8 26.4-11.2 18-43.7 31.5-91.4 38.2-20.7 3.1-78.6 6.5-141.6 6.5z" style="fill:url(#SVGID_5_)"/><linearGradient id="SVGID_6_" gradientUnits="userSpaceOnUse" x1="1438.12" y1="818.277" x2="1732.965" y2="818.277"><stop offset=".189" style="stop-color:#ffd234"/><stop offset=".986" style="stop-color:#ffb000"/></linearGradient><path d="M1592.4 863c-77.9 0-149.2-16.7-153.9-40.8-1.3-6.5.3-12.5 4.7-17.8 13.7-16.5 51.6-20.1 53.2-20.3l1.1 10.2c-9.6.9-36.5 5.5-45.4 16.3-2.5 3-3.3 6.2-2.6 9.9 4.1 21.2 111.6 42.6 214.5 27.2 28.1-4.2 47.4-11.8 54.6-21.3 2.9-3.8 3.7-8 2.7-12.7-7.1-30.5-51.8-29.9-52.2-29.9l-.3-10.2c18.8-.4 56.3 7 63.5 38 1.7 7.5.3 14.4-4.4 20.6-11.4 15.2-40 22.3-62 25.6-23.9 3.5-49 5.2-73.5 5.2z" style="fill:url(#SVGID_6_)"/><path style="fill:#9b5cff" d="M2591.6 2559.7h404.8v1028h-404.8z"/><path style="fill:#c3a4ff" d="M2996.5 2981.5h404.6v606.1h-404.6z"/><path class="st5" d="M2187.1 2110.7h404.6v1477h-404.6z"/><defs><filter id="Adobe_OpacityMaskFilter" filterUnits="userSpaceOnUse" x="2809.2" y="2981.5" width="187.3" height="605.5"><feFlood style="flood-color:white;flood-opacity:1" result="back"/><feBlend in="SourceGraphic" in2="back"/></filter></defs><mask maskUnits="userSpaceOnUse" x="2809.2" y="2981.5" width="187.3" height="605.5" id="SVGID_7_"><g style="filter:url(#Adobe_OpacityMaskFilter)"><defs><filter id="Adobe_OpacityMaskFilter_1_" filterUnits="userSpaceOnUse" x="2809.2" y="2981.5" width="187.3" height="605.5"><feFlood style="flood-color:white;flood-opacity:1" result="back"/><feBlend in="SourceGraphic" in2="back"/></filter></defs><linearGradient id="SVGID_8_" gradientUnits="userSpaceOnUse" x1="3263.915" y1="2995.201" x2="2649.717" y2="3659.095"><stop offset="0" style="stop-color:#fff"/><stop offset=".328" style="stop-color:#ccc"/><stop offset=".57" style="stop-color:#5e5e5e"/><stop offset=".702" style="stop-color:#000"/></linearGradient><path style="mask:url(#SVGID_7_);fill:url(#SVGID_8_)" d="M2996.5 2981.5 2809.2 3587h187.3z"/></g></mask><linearGradient id="SVGID_9_" gradientUnits="userSpaceOnUse" x1="3263.915" y1="2995.201" x2="2649.717" y2="3659.095"><stop offset="0" style="stop-color:#004e55"/><stop offset=".328" style="stop-color:#00565e"/><stop offset=".57" style="stop-color:#1f6869"/><stop offset=".702" style="stop-color:#528986"/></linearGradient><path style="opacity:.26;fill:url(#SVGID_9_)" d="M2996.5 2981.5 2809.2 3587h187.3z"/><path class="st26" d="M2050.9 1654.2c-2.3 0-4.4-1.3-5.3-3.4l-291-722.1c-1.1-2.7.4-5.6 3.3-6.6s6.1.4 7.2 3l291 722.1c1.1 2.7-.4 5.6-3.3 6.6-.6.3-1.2.4-1.9.4zM2127.4 1654.2c-2.3 0-4.4-1.3-5.3-3.4l-291-722.1c-1.1-2.7.4-5.6 3.3-6.6s6.1.4 7.2 3l291 722.1c1.1 2.7-.4 5.6-3.3 6.6-.6.3-1.3.4-1.9.4z"/><path class="st26" d="M1862.1 995.9h-76.2c-3.1 0-5.6-2.3-5.6-5.1s2.5-5.1 5.6-5.1h76.2c3.1 0 5.6 2.3 5.6 5.1s-2.5 5.1-5.6 5.1zM1893.5 1075.1h-76.2c-3.1 0-5.6-2.3-5.6-5.1s2.5-5.1 5.6-5.1h76.2c3.1 0 5.6 2.3 5.6 5.1s-2.5 5.1-5.6 5.1zM1925 1154.3h-73.5c-3.1 0-5.6-2.3-5.6-5.1s2.5-5.1 5.6-5.1h73.5c3.1 0 5.6 2.3 5.6 5.1s-2.5 5.1-5.6 5.1zM1956.4 1233.4h-72.2c-3.1 0-5.6-2.3-5.6-5.1s2.5-5.1 5.6-5.1h72.2c3.1 0 5.6 2.3 5.6 5.1s-2.5 5.1-5.6 5.1zM1987.8 1312.6h-74.6c-3.1 0-5.6-2.3-5.6-5.1s2.5-5.1 5.6-5.1h74.6c3.1 0 5.6 2.3 5.6 5.1s-2.5 5.1-5.6 5.1zM2019.3 1391.8h-74.1c-3.1 0-5.6-2.3-5.6-5.1s2.5-5.1 5.6-5.1h74.1c3.1 0 5.6 2.3 5.6 5.1s-2.5 5.1-5.6 5.1zM2050.7 1471h-73.6c-3.1 0-5.6-2.3-5.6-5.1s2.5-5.1 5.6-5.1h73.6c3.1 0 5.6 2.3 5.6 5.1s-2.5 5.1-5.6 5.1zM2083.2 1550.1h-72.4c-3.1 0-5.6-2.3-5.6-5.1s2.5-5.1 5.6-5.1h72.4c3.1 0 5.6 2.3 5.6 5.1 0 2.9-2.5 5.1-5.6 5.1z"/><linearGradient id="SVGID_10_" gradientUnits="userSpaceOnUse" x1="1544.193" y1="689.029" x2="1673.539" y2="689.029"><stop offset=".189" style="stop-color:#ffd234"/><stop offset=".986" style="stop-color:#ffb000"/></linearGradient><path d="M1673.4 784.8c-4.7 0-114.5-1.6-126.2-45.2-6.6-24.5-.4-141.5-.2-146.4l11.2.5c-2.2 41.6-5.1 125.1-.2 143.5 8 29.8 86 37.1 115.4 37.4v10.2z" style="fill:url(#SVGID_10_)"/><linearGradient id="SVGID_11_" gradientUnits="userSpaceOnUse" x1="1462.287" y1="500.104" x2="1649.778" y2="500.104"><stop offset=".189" style="stop-color:#ffd234"/><stop offset=".986" style="stop-color:#ffb000"/></linearGradient><path d="M1649.8 476.9c0-47.2-42-70.1-93.7-70.1-51.8 0-93.7 23-93.7 70.1 0 3.7.3 7.2.8 10.8v.1c.5 8.7 3.6 17.1 8.2 25.5 1.5 2.9 3.1 5.6 5 8.3 8.5 13.4 19.5 26.7 27.5 40.7 14.6 25.7 11.2 31.2 11.2 31.2h82.7s-3.7-5.5 10.9-31.2c14.6-25.7 39.1-48.2 40.5-73.9v-.1c.3-3.7.6-7.5.6-11.4z" style="fill:url(#SVGID_11_)"/><path class="st3" d="M1597.8 586.2s-16.3 7.2-41.6 7.2-41.6-7.2-41.6-7.2-13 9.2-9.7 12.8c3.3 3.6 5 3 5 3s-2.3 36.5 9 46.2c10.5 9 34.8 8.6 38.2 8.5 3.2.1 25.8.5 36.3-8.5 11.3-9.7 9-46.2 9-46.2s1.7.6 5-3c3.4-3.6-9.6-12.8-9.6-12.8z"/><g class="st7"><linearGradient id="SVGID_12_" gradientUnits="userSpaceOnUse" x1="1499.278" y1="538.761" x2="1556.967" y2="538.761"><stop offset=".062" style="stop-color:#fff"/><stop offset="1" style="stop-color:#fff"/></linearGradient><path d="M1529.5 592.9c0-.5-1.7-32.2-5.4-60.2-2.9.5-5.6.5-8.2-.1-5.4-1.1-9.4-4.4-11.6-9.6-8.1-19.1-5.7-34.5 1.1-37.7 1.8-.8 6.5-2 11.9 5.2 4.2 5.6 7.4 20.8 9.9 37.9 4.2-1.3 8.6-3.7 12.5-6.9-1.7-3.3-3-7.1-3.5-10.9-1.2-9.2 1-20.1 6.1-21.5 1.2-.3 2.4-.1 3.4.6 4.5 3.3 3.9 18.1 3.7 21-.3 4.6-2 8.4-5.1 11.5 1.6 2.4 3.4 4.3 5.5 5.7 1.5 1 3.8 2 6.3 1.5l.8 3.3c-3 .6-6.2-.1-9.3-2.1-2.3-1.5-4.3-3.6-6.1-6-4.4 3.4-9.2 5.9-13.9 7.3 3.7 27.7 5.4 58.8 5.5 60.9l-3.6.1zM1508.4 488c-.4 0-.8.1-1.2.3-4 1.9-7.3 14.8.6 33.5 1.7 4.1 4.7 6.6 8.9 7.5 2.1.4 4.4.4 6.9 0-2.3-16.8-5.4-31.7-9.3-36.9-1-1.4-3.5-4.4-5.9-4.4zm35 4.3c-1.8.5-4.6 8.4-3.4 17.8.4 3 1.3 6 2.5 8.7 1.9-2.3 3-5.1 3.2-8.3.7-10.3-.9-17.5-2.3-18.2z" style="fill:url(#SVGID_12_)"/><linearGradient id="SVGID_13_" gradientUnits="userSpaceOnUse" x1="1552.252" y1="538.76" x2="1609.942" y2="538.76"><stop offset=".062" style="stop-color:#fff"/><stop offset="1" style="stop-color:#fff"/></linearGradient><path d="m1579.7 592.9-3.7-.2c.1-2.1 1.8-33.2 5.5-60.9-4.7-1.3-9.5-3.8-13.9-7.3-1.7 2.5-3.8 4.6-6.1 6-3 2-6.2 2.7-9.3 2.1l.8-3.3c2.5.5 4.8-.5 6.3-1.5 2-1.3 3.9-3.3 5.5-5.7-3.1-3.1-4.8-6.9-5.1-11.4-.2-2.9-.8-17.8 3.7-21 1-.7 2.2-.9 3.4-.6 5.1 1.4 7.3 12.2 6.1 21.5-.5 3.9-1.7 7.6-3.4 10.9 3.9 3.2 8.3 5.5 12.5 6.9 2.4-17.1 5.7-32.3 9.9-37.9 5.4-7.2 10.1-6 11.9-5.2 6.8 3.3 9.2 18.6 1.1 37.7-2.2 5.2-6.2 8.5-11.6 9.6-2.5.5-5.3.5-8.2.1-3.7 27.9-5.3 59.7-5.4 60.2zm5.9-63.7c2.5.4 4.8.4 6.9 0 4.2-.8 7.1-3.4 8.9-7.5 7.9-18.7 4.7-31.6.6-33.5-2.7-1.3-5.8 2.4-7.1 4.1-3.9 5.3-7 20.2-9.3 36.9zm-19.9-36.8c-1.3.6-2.9 7.8-2.3 18.2.2 3.3 1.3 6.1 3.2 8.3 1.3-2.7 2.2-5.7 2.5-8.7 1.3-9.4-1.5-17.3-3.4-17.8z" style="fill:url(#SVGID_13_)"/></g><defs><filter id="Adobe_OpacityMaskFilter_2_" filterUnits="userSpaceOnUse" x="1474.2" y="412.7" width="144.1" height="126.9"><feFlood style="flood-color:white;flood-opacity:1" result="back"/><feBlend in="SourceGraphic" in2="back"/></filter></defs><mask maskUnits="userSpaceOnUse" x="1474.2" y="412.7" width="144.1" height="126.9" id="SVGID_14_"><g style="filter:url(#Adobe_OpacityMaskFilter_2_)"><defs><filter id="Adobe_OpacityMaskFilter_3_" filterUnits="userSpaceOnUse" x="1474.2" y="412.7" width="144.1" height="126.9"><feFlood style="flood-color:white;flood-opacity:1" result="back"/><feBlend in="SourceGraphic" in2="back"/></filter></defs><linearGradient id="SVGID_15_" gradientUnits="userSpaceOnUse" x1="1497.006" y1="371.244" x2="1557.476" y2="487.07"><stop offset=".062" style="stop-color:#fff"/><stop offset="1" style="stop-color:#000"/></linearGradient><path d="M1496.9 539.6s-51.2-71.4 0-110.4 121.4 3.8 121.4 3.8-65.5-2.2-96.4 23.9c-31 25.9-27.6 66.8-25 82.7z" style="mask:url(#SVGID_14_);fill:url(#SVGID_15_)"/></g></mask><linearGradient id="SVGID_16_" gradientUnits="userSpaceOnUse" x1="1497.006" y1="371.244" x2="1557.476" y2="487.07"><stop offset=".062" style="stop-color:#fff"/><stop offset="1" style="stop-color:#fff"/></linearGradient><path d="M1496.9 539.6s-51.2-71.4 0-110.4 121.4 3.8 121.4 3.8-65.5-2.2-96.4 23.9c-31 25.9-27.6 66.8-25 82.7z" style="fill:url(#SVGID_16_)"/><path class="st35" d="M1559.7 609.5h-3.8c-27.9-.6-44-5.5-44.7-5.7l1.2-3.2c.2 0 16.3 4.9 43.6 5.5 27.3.6 45.8-5.4 46-5.5l1.3 3.2c-.8.2-17.7 5.7-43.6 5.7zM1554.1 624.7c-17.1 0-31.8-3.9-32.5-4.1l1.1-3.3c.2.1 19.1 5.1 38.3 3.7 19.2-1.4 29.2-5 29.3-5.1l1.4 3.1c-.4.2-10.5 3.9-30.4 5.3-2.4.3-4.9.4-7.2.4z"/><path class="st35" d="M1554.1 632.4c-17.1 0-31.8-3.9-32.5-4.1l1.1-3.3c.2.1 19.1 5.1 38.3 3.7 19.2-1.4 29.2-5 29.3-5.1l1.4 3.1c-.4.2-10.5 3.9-30.4 5.3-2.4.3-4.9.4-7.2.4z"/><path class="st35" d="M1554.1 640.2c-17.1 0-31.8-3.9-32.5-4.1l1.1-3.3c.2.1 19.1 5.1 38.3 3.7 19.2-1.4 29.2-5 29.3-5.1l1.4 3.1c-.4.2-10.5 3.9-30.4 5.3-2.4.3-4.9.4-7.2.4z"/><linearGradient id="SVGID_17_" gradientUnits="userSpaceOnUse" x1="2051.378" y1="399.66" x2="2203.611" y2="399.66" gradientTransform="rotate(-18.666 2097 1621.053)"><stop offset=".189" style="stop-color:#ffd234"/><stop offset=".986" style="stop-color:#ffb000"/></linearGradient><path d="M1673.6 489.6c-1.5 0-3-.3-4.3-1-4.6-2.2-6.3-7.3-3.9-11.5l13.2-22.9c2.4-4.1 7.9-5.7 12.4-3.7l18 8.1 9.9-18.3c1.1-2 3-3.6 5.4-4.3 2.3-.7 4.9-.6 7.1.4l21.5 9.7 10.6-19.5c2.3-4.2 7.9-5.9 12.5-3.9l30.4 13.7c4.6 2.1 6.5 7.2 4.2 11.4s-7.9 5.9-12.5 3.9l-22-9.9-10.6 19.5c-2.3 4.2-7.9 5.9-12.5 3.9l-21.5-9.7-9.9 18.3c-2.3 4.2-7.9 5.9-12.5 3.9l-18.2-8.2-9 15.5c-1.7 3-4.9 4.6-8.3 4.6z" style="fill:url(#SVGID_17_)"/><linearGradient id="SVGID_18_" gradientUnits="userSpaceOnUse" x1="2787.703" y1="648.369" x2="2939.936" y2="648.369" gradientTransform="scale(-1 1) rotate(-18.663 167.74 13362.218)"><stop offset=".189" style="stop-color:#ffd234"/><stop offset=".986" style="stop-color:#ffb000"/></linearGradient><path d="M1407.9 489.6c-3.4 0-6.6-1.7-8.3-4.6l-9-15.5-18.2 8.2c-4.6 2.1-10.2.4-12.5-3.9l-9.9-18.3-21.5 9.7c-4.6 2.1-10.2.4-12.5-3.9l-10.6-19.5-22 9.9c-4.6 2.1-10.2.4-12.5-3.9-2.3-4.2-.4-9.3 4.2-11.4l30.4-13.7c4.6-2.1 10.2-.4 12.5 3.9l10.6 19.5 21.5-9.7c2.2-1 4.8-1.2 7.1-.4 2.3.7 4.3 2.3 5.4 4.3l9.9 18.3 18-8.1c4.6-2.1 10.1-.4 12.4 3.7l13.2 22.9c2.4 4.2.6 9.3-3.9 11.5-1.4.7-2.9 1-4.3 1z" style="fill:url(#SVGID_18_)"/><linearGradient id="SVGID_19_" gradientUnits="userSpaceOnUse" x1="3108.526" y1="1676.287" x2="3249.066" y2="1676.287" gradientTransform="scale(-1 1) rotate(-78.241 -20.156 3924.186)"><stop offset=".189" style="stop-color:#ffd234"/><stop offset=".986" style="stop-color:#ffb000"/></linearGradient><path d="M1574.1 404.7c-1.7 0-3.4-.4-4.9-1.3-4.4-2.5-5.7-7.7-3-11.7l10.2-14.9-17-10.1c-4.3-2.6-5.5-7.9-2.7-11.8l12.3-17.1-20-12c-4.3-2.6-5.5-7.9-2.7-11.8l13.1-18.2-20.5-12.3c-4.3-2.6-5.5-7.9-2.7-11.8 2.8-3.9 8.6-5 12.9-2.5l28.3 16.9c4.3 2.6 5.5 7.9 2.7 11.8l-13.1 18.2 20 12c4.3 2.6 5.5 7.9 2.7 11.8l-12.3 17.1 16.8 10c4.2 2.5 5.5 7.7 2.8 11.6l-15 22c-1.7 2.7-4.7 4.1-7.9 4.1z" style="fill:url(#SVGID_19_)"/><linearGradient id="SVGID_20_" gradientUnits="userSpaceOnUse" x1="1645.824" y1="367.305" x2="1742.216" y2="367.305"><stop offset=".189" style="stop-color:#ffd234"/><stop offset=".986" style="stop-color:#ffb000"/></linearGradient><path d="M1655.2 411.2c-2.4 0-4.8-.8-6.6-2.5-3.7-3.3-3.7-8.7 0-12.1l77.7-70.8c3.6-3.3 9.6-3.3 13.2 0 3.7 3.3 3.7 8.7 0 12.1l-77.7 70.8c-1.8 1.7-4.2 2.5-6.6 2.5z" style="fill:url(#SVGID_20_)"/><linearGradient id="SVGID_21_" gradientUnits="userSpaceOnUse" x1="1398.799" y1="368.786" x2="1483.503" y2="368.786"><stop offset=".189" style="stop-color:#ffd234"/><stop offset=".986" style="stop-color:#ffb000"/></linearGradient><path d="M1474.2 407.4c-2.4 0-4.8-.8-6.6-2.5l-66-60.1c-3.7-3.3-3.7-8.7 0-12.1 3.6-3.3 9.6-3.3 13.2 0l66 60.1c3.7 3.3 3.7 8.7 0 12.1-1.9 1.6-4.3 2.5-6.6 2.5z" style="fill:url(#SVGID_21_)"/><path class="st2" d="M921.5 2027.4H700.4c-53.6 0-101.8-38.1-108.8-91.3-1.9-14.7-.4-29.1 7.1-41.2 55.5-89.6 137.6 28.7 165 0 9.4-9.8-31.4-116.3 61.2-117.7 93.9-1.4 93.7 91.2 56.9 164.9-19.9 39.7 58.2-15.3 84.4 5.2 13.1 10.2 15.4 25.2 11.2 40.1-6.8 24.4-30.7 40-55.9 40z"/><path class="st41" d="M3418.9 1838.1H3640c53.6 0 101.8-38.1 108.8-91.3 1.9-14.7.4-29.1-7.1-41.2-55.5-89.6-137.6 28.7-165 0-9.4-9.8 31.4-116.3-61.2-117.7-93.9-1.4-93.7 91.2-56.9 164.9 19.9 39.7-58.2-15.3-84.4 5.2-13.1 10.2-15.4 25.2-11.2 40.1 6.8 24.3 30.6 40 55.9 40z"/><circle class="st41" cx="3438.7" cy="1884.2" r="18.6"/><path class="st41" d="M3389.8 1694.9c0 16.3-13.2 29.4-29.4 29.4-16.3 0-29.4-13.2-29.4-29.4 0-16.3 13.2-29.4 29.4-29.4 16.3-.1 29.4 13.1 29.4 29.4z"/><path class="st2" d="M873.2 2073.1c0 13.5-10.9 24.4-24.4 24.4-13.5 0-24.4-10.9-24.4-24.4 0-13.5 10.9-24.4 24.4-24.4 13.5-.1 24.4 10.9 24.4 24.4zM971.6 1722.6c0 31.8-25.8 57.6-57.6 57.6s-57.6-25.8-57.6-57.6 25.8-57.6 57.6-57.6c31.8.1 57.6 25.8 57.6 57.6z"/><path class="st42" d="m1972.9 865.6-44.9 60-75.7 38.8s-10.1-2.5-19.1 4.4c-9 6.9-10.2 22.1-7.9 23.8s6.2-1.7 6.2-1.7 9.2-15 23.3-17.4c5.1-.9 75.1-31.8 81.1-34.3 22.4-9.3 57.8-56.2 57.8-56.2l-20.8-17.4z"/><path class="st26" d="m2022.7 1040-39 187.4 16.7 132.7 18.9-2.2s7.8-60.7 7.8-115.6c0-56.3 76.2-176.7 68.7-198.2-7.6-21.4-77.4-54.8-73.1-4.1z"/><path class="st42" d="m2002.6 1375.9 17.2-1.1-.7-19-18.8 4.4z"/><path class="st43" d="m1967.8 1391.8 54-2.2-.8-16.6s-19.2-4.3-30.9 1.4c-11.6 5.8-21.6 8.2-22.3 17.4z"/><path class="st44" d="m2001.1 1023.5-98.1 128.6 44.7 122.6 21.4-6s-.4-44.6-14.2-97.8c-8.5-32.8 147.9-94.1 140.4-115.6-7.3-21.4-98.4-82.5-94.2-31.8z"/><path class="st42" d="m1952.7 1288.9 17.2-1-.7-19.1-18.8 4.4z"/><path class="st43" d="m1917.8 1304.8 54-2.2-.8-16.6s-19.2-4.3-30.9 1.4c-11.6 5.8-21.5 8.3-22.3 17.4z"/><path class="st42" d="M1979.5 758.7s-20.3 28.9-18.3 36.9c1.9 7.3 18.4 7.8 17.1 12.1-1.2 4.3-15.1 26.2-15.1 26.2s17.7-6.1 24.8-.6c3.2 2.5 5.9 5.1 5.9 5.1s19.9-67.3 2.4-77.9c-17.4-10.7-16.8-1.8-16.8-1.8z"/><path class="st5" d="M1996.9 826.2s41.8 5.1 83.1 117.6c19 51.6 15.4 111.6 15.4 111.6l-107.2-29.5c8.8-63.8-42.4-178.1-27.2-196.4 6.4-7.7 29.1-8.2 35.9-3.3z"/><path class="st42" d="M1948.8 844.6s-69.6-49.3-84.9-63.8c-17-16.1-33.9-51.7-37.6-65.1-2.2-7.8 1.1-13.7 1.1-13.7s-8.3-1.5-12.3-14.5c-2.3-7.4-2-17.2-4.7-14.7-2.6 2.5-4.5 19.5 2.1 35 6.5 15.4 16.1 51.4 34.4 81.6 24.3 40 104.9 88.6 104.9 88.6l-3-33.4z"/><path class="st5" d="m1836.1 735.8-16 9.7s17.2 48.3 50.3 82.8c33.9 35.5 81 65.8 89.6 62.8 17-6 38.8-32.9 31.1-48.5-1.7-3.5-56.6-11.5-95.5-40.2-37.1-27.3-59.5-66.6-59.5-66.6z"/><path class="st5" d="M1859.3 960.9s61.2-44.6 68.7-47.6c7.5-3.1 18.4-71 52.1-74.7 33.7-3.8 17.6 57.6 17.6 57.6s-40.4 36-63.4 49.4c-17.5 10.2-79.9 31.4-79.9 31.4l4.9-16.1z"/><path class="st45" d="M2002.2 800s-6.9-6.2-5.6-9.8c1.3-3.7 7.4-12.7 3.9-15.3-3.4-2.6-4.6.5-6.9-.9-2.2-1.3-24.8-6.5-31.3-24.9-6.5-18.5 14.5-25.6 24-18.1 9.4 7.4-1 14.6-1 14.6s14.2 5.3 25.9 16.9c11.7 11.6-9 37.5-9 37.5z"/><ellipse class="st46" cx="2757.7" cy="3706.9" rx="196.7" ry="11.6"/><ellipse class="st46" cx="2350.4" cy="3690.3" rx="190.2" ry="12.3"/><path class="st46" d="M4049 3619.4c0 6.8-85.2 12.3-190.2 12.3-105.1 0-190.2-5.5-190.2-12.3 0-6.8 85.2-12.3 190.2-12.3 105 .1 190.2 5.5 190.2 12.3zM3185.5 3703.3c0 4.4-47.7 8-106.5 8s-106.5-3.6-106.5-8 47.7-8 106.5-8 106.5 3.6 106.5 8z"/><path class="st26" d="m3118.8 3305.2 15.8 186.4-8.6 176.3 32.3-3.6s27.5-148.3 30.7-189.7c1.3-16.9-8.7-242.4-8.7-242.4s-65.7-13.1-61.5 73z"/><path class="st42" d="M3153.8 3689.4s-5.8-2.1-7.5-4.5c-1.8-2.5 4.3-19.7 4.3-19.7l-20.9 2.3v22.7l25.7 6.8-.7-9-.9 1.4z"/><path class="st43" d="M3129.6 3686.7s-2.2 13.3 0 16.1c2.2 2.8 49.9 4 49.9 4l.8-7s-10.1-2.4-15.9-5.4c-5.9-3-8.5-8.5-8.5-8.5l-3.9 6.4-22.4-5.6z"/><path class="st44" d="m3068.1 3289.7 5 201.9-8.6 176.3 32.3-3.6s27.5-148.3 30.7-189.7c1.3-16.9 21.6-258 21.6-258s-85.2-13-81 73.1z"/><path d="M3098.5 3056c-14.2.1-26.4 9.8-29.4 23.6-3.9 17.7-8 46.4-8 88.1 0 77.2 5.9 114.1 5.9 114.1l118.9-18.1s-9.6-84.9 13.6-161.9c12.5-41.6-62-46.2-101-45.8z" style="fill:#342170"/><path class="st42" d="M3148.2 2936s-27 22.4-29.2 47.1c-1 11.2 19.4 16.6 19.4 16.6.3 27.5-29.1 54.8-29.1 54.8s14.6 13 33.8 16.9c29 5.8 27.5-6.4 26.6-9.6-9.4-35.5 27.4-86.7 11.3-110.8-16.1-24-32.8-15-32.8-15z"/><path class="st45" d="M3156.5 2943.4s-7.6-10.1-19.3-16.1c-11.7-6-.6-38.7 3.6-38.2 4.2.6 13.5 20.7 22.2 30.1 8.8 9.4 30.7 23.1 28.3 50.1-2.4 27-24.4 50.7-24.4 50.7s-7.6-9-7.8-13.8c-.2-4.8 12.9-13.3 12-19-.9-5.6-8.1-1-11.2-2.3-3-1.2 11.2-19.2-3.4-41.5z"/><path class="st5" d="m3139 3107.1-29.7-52.5-8.5-.1 15.6-12.5s16.4 8.5 24.3 16.7c8 8.2 11.3 14.1 11.3 14.1l14.7-17.3 15.8 5.2 3.5 7.1-47 39.3z"/><path class="st5" d="M3185.1 3128.2s67.3 24.4 78.9 10.1c9.9-12.2-12.4-62.7-59.4-115.9-16.7-18.9-28.4-26.5-28.4-26.5l-11.1 13.2 63.8 95.9s-36.1-26.9-39.8-30.5c-3.7-3.6-11.3 28.6-4 53.7z"/><path style="fill:#63717d" d="m3165.2 3009.1-16.1-8.7 19.5-44.4 21.3 11.1z"/><path class="st42" d="M3169 3007.3s-8.9-4.9-6.8-13.9c2.1-9.1 5.9-19.6 6.8-24 .9-4.4 5.7-2.2 5.6 1.9-.2 4.1-1.3 9.9-1.3 9.9s6-7.9 6.4-13.9c.4-6.1-2.3-16.7 1.9-15.1 4.2 1.6 10.9 25.5 8.9 32.6-2 7.2-11 14.9-11 14.9l-10.5 7.6zM3092.2 3689.4s-5.8-2.1-7.5-4.5c-1.8-2.5 4.3-19.7 4.3-19.7l-20.9 2.3v22.7l25.7 6.8-.7-9-.9 1.4z"/><path class="st43" d="M3068.1 3686.7s-2.2 13.3 0 16.1c2.2 2.8 49.9 4 49.9 4l.8-7s-10.1-2.4-15.9-5.4c-5.9-3-8.5-8.5-8.5-8.5l-3.9 6.4-22.4-5.6z"/><path class="st5" d="M3084.3 3106.1s-40 52.7-82.9 37.2c-43-15.5-76.1-79.1-76.1-79.1l11.2-12.3s28.3 39.1 70.9 53.2c28.2 9.3 46.3-26.7 61.8-39.7 25.3-21.3 46.5 5.7 15.1 40.7z"/><path class="st42" d="M2409.6 3084.3s-79.4-9.8-93.9-11.4c-14.5-1.6-82.4-56.8-82.4-56.8l-34.2-11.1s18.9-1.4 29.1-2.7c10.1-1.2 11 6.4 11 6.4s68.7 39.5 77 39.7c28.3.9 93.4 6.1 93.4 6.1 5.4 7.3 0 29.8 0 29.8zM2392.9 3261.1s-50.4 192-30.6 251.8c7.4 22.3 18.6 143.2 18.6 143.2s-.6 25.1-12.8 29.7c-7.7 3 13.2 1.6 13.2 1.6s20.8-36.9 11-44.4 9.2-133.5 1.6-147.9c-6.9-13 47-239.4 47-239.4l-48 5.4z"/><path class="st42" d="M2412.2 3262s20.7 193.7 40.5 253.5c7.4 22.3 18.6 143.2 18.6 143.2s-.6 25.1-12.8 29.7c-7.7 3 13.2 1.6 13.2 1.6s20.8-36.9 11-44.4 9.2-133.5 1.6-147.9c-6.9-13-24-241.1-24-241.1l-48.1 5.4z"/><path class="st26" d="m2386.7 3211.2-31.5 221.9s37.8 3.7 62.3 4.4c22.7.6 36.8 2.3 36.8 2.3l5.4-105.4 11.8 106.6 18.5-1.4s-13.5-182.6-29.6-206.1c-16.2-23.5-18-24.6-18-24.6l-55.7 2.3z"/><path class="st2" d="m2383.1 3221.6 67.6-7.8s-12.8-49-14.2-75.2c-.4-6.8-.8-18.3.2-29 1.7-18.2 8.6-49.5-21.6-54.8-7-1.2-13-.9-15.6 4.8-15.6 34.8-25.5 51.3-31 63.2 2.9 10.2 15 16.3 15 16.3 2.7 23.6-2 72.6-.4 82.5z"/><path class="st5" d="M2453.7 3689.8c4-2.5 8.6-4.5 8.6-4.5s.7 4.7 6.4.5c5.7-4.1 14.4-39.3 14.4-39.3s9 1.3 12.1 6.6c2.4 4-1.5 13.9-1.5 13.9s-.3.1-.4.1l-2.9 28.5h-2.6l.6-26.7c-2.3 1.2-4.7 3.2-5.6 6.6-2.8 10.9-4.2 15.3-7.4 18.7-3.2 3.4-24.8-.2-24.8-.2s-.8-1.7 3.1-4.2zM2363.3 3687.2c4-2.5 8.6-4.5 8.6-4.5s.7 4.7 6.4.5c5.7-4.1 14.4-39.3 14.4-39.3s9 1.3 12.1 6.6c2.4 4-1.5 13.9-1.5 13.9s-.3.1-.4.1l-2.9 28.5h-2.6l.6-26.7c-2.3 1.2-4.7 3.2-5.6 6.6-2.8 10.9-4.2 15.3-7.4 18.7-3.2 3.4-24.8-.2-24.8-.2s-.8-1.7 3.1-4.2z"/><path class="st49" d="m2622.8 3259.6-52.5 32.6-13.6-21.8c-8.4-13.5-4.2-31.3 9.3-39.7l3.5-2.2c13.5-8.4 31.3-4.3 39.7 9.2l13.6 21.9zm-49.7 20.9 37.9-23.6-9-14.5c-5.9-9.5-18.4-12.4-27.9-6.5l-3.5 2.2c-9.5 5.9-12.4 18.4-6.5 27.9l9 14.5z"/><path class="st50" d="m2627.9 3233.4-87.3 54.3 32 82.3 112-69.7z"/><path class="st49" d="m2554.1 3321.5-1.7-2.7 35-21.9 6.9 11 27.3-17-6.8-11 34.6-21.5 1.7 2.8-31.8 19.8 6.8 10.9-32.9 20.5-6.8-11z"/><path class="st51" d="M2603.8 3282.1c1.4 2.2.7 5.2-1.5 6.6-2.2 1.4-5.2.7-6.6-1.5-1.4-2.2-.7-5.2 1.5-6.6 2.3-1.4 5.2-.7 6.6 1.5z"/><path transform="rotate(-31.897 2603.112 3290.358)" class="st51" d="M2600.9 3282.1h4.3v16.5h-4.3z"/><path class="st49" d="m2684.6 3300.3 7.3-12.8-59.7-56.7-5.3 3.3z"/><path class="st42" d="M2417 3084.2c24.1 20.2 94.6 74.5 94.6 74.5l46.5 66.7s-6.2 18.5 0 22.5c13.6 8.8 21.7-14.4 21.7-14.4-5.7 0-9.2 4.6-11.9 1.6-.8-.9 1.6-12.3 1.6-12.3l-38.2-79.9s-98.6-89.8-109.1-83.5c-4 2.4-6.6 5.7-8.4 8.9-2.9 5.2-1.4 11.9 3.2 15.9z"/><path class="st42" d="M2435.6 2952.8s-25.7 21.5-29.3 47.4c-1.1 7.6 17.9 16.6 17.9 16.6-1.1 18.8-22.1 38.8-22.1 38.8s9.5-4.7 18.7 5.3c5.3 5.7 12.7 4.4 12.3 2.1-4.9-24.7 32.8-75.5 22.7-92.7-10.1-17.3-20.2-17.5-20.2-17.5z"/><path class="st45" d="M2437.7 2962.1c-1-1-8.4-5.1-17.3 0s0 9.8 0 9.8-22.2-4.7-18.3-19.2c3.9-14.4 21.6-20.9 35.6-13.5 14 7.5 11.7 17.7 11.7 17.7s30.6 4.6 39.3 22.7c11.8 24.6 3.5 46-12.5 53.9-14.3 7-39.8 1.5-39.8 1.5l-12.1-32.8s24.6-2.3 24.6-7.5c0-5.1-7-2.8-7-2.8s5.6-20.6-4.2-29.8z"/><path class="st26" d="m2830.6 3685.3-20-168.5 6.8-229.1s-12.7-51.6 40.4 11c53.1 62.6-8.1 221.7-6.1 229.8 3.1 12.5 6.1 159.8 6.1 159.8l-27.2-3z"/><path class="st43" d="m2924.2 3692.5-18.6-1.1-15.1 9.7s-19.3 4.3-24.4 8.5c-5.1 4.3 59.6-1.1 59.6-1.1l-1.5-16z"/><path class="st44" d="m2898.5 3685.3-20-168.5-37.6-235.5s16.6-28.2 84.8 17.5c6.3 4.2-8.1 221.7-6.1 229.8 3.1 12.5 6.1 159.8 6.1 159.8l-27.2-3.1z"/><path class="st42" d="m2905.1 3686 19.4 2.1-.4 6.4-18.5-3.2z"/><path class="st43" d="m2856.3 3692.5-18.6-1.1-15.1 9.7s-19.3 4.3-24.4 8.5c-5.1 4.3 59.6-1.1 59.6-1.1l-1.5-16z"/><path class="st42" d="m2837.2 3686 19.4 2.1-.4 6.4-18.5-3.2z"/><path class="st2" d="m2616.6 3050.2 97.9 28.8 119.9-37.4 1.2 53.1s-97.6 24.2-112.2 25c-14.6.8-53.9-3.6-81.4-23.1-18-12.7-36.1-27.9-36.1-27.9l10.7-18.5z"/><path class="st42" d="M2835.4 2950.9s-17.4 27.6-12.2 50c2.3 10.2 21.9 9 21.9 9 8.2 24.2-1.4 56.8-1.4 56.8s9.9-2.9 26.3 5.1c9.4 4.6 19.1-19.3 17.4-21.9-18.6-28.6 2.4-78.7-18.7-95.3-21.1-16.5-33.3-3.7-33.3-3.7z"/><path class="st45" d="M2846.1 2956.2s-.6-10.3-14.7-10c-12.2.2-27.8-27.2-13.2-35.5 17-9.7 29.6 8.9 39.7 20.5 12.1 13.7 17.5 14.5 24.6 16.7 5.5 1.7 15.6 4 17.8 15.3 1.3 6.6-5.9 14-8.6 17.6 0 0 7 1.4 9.6 8.6 2.3 6.3-21.3 29-21.3 29s-11.9-3.3-13.5-7.4c-1.6-4.1 7.6-15.5 5.1-20.2-2.5-4.7-8.2-.8-10.5 1.2-1 .9-5-2.7-4.3-11 .2-2.5 4.4-7 4.4-7s-8.9-.5-13-5.5c-5.6-6.8-2.1-12.3-2.1-12.3z"/><path class="st2" d="M2929.5 3190.3c-4.1-41.5.1-109.8-1.9-120.8s-36.1-51.2-91.5-28.3c-5.8 2.4-12.3 6.8-18.7 13-15.3 15-2.6 101.9-3.7 150.9s-3.1 96-3.1 96l19.8 19.5 15.5-33.2 24.5 38.1 66-24.4c.1.1-2.8-69.2-6.9-110.8z"/><path class="st42" d="M2936.5 3051.8s-13.6-9.7-27.7-11.3c-12.1-1.4-23.6 1.7-25.2 4.3-3.3 5.7 30.2 8.9 30.2 8.9s-18.3 1-11.5 5.2c3 1.9 29.7 6.3 29.7 6.3l4.5-13.4z"/><path class="st5" d="m2865.1 3045.2-5.2 17.5 13.3 198.5-24.4-2.1 6.3-195.6-6.3-16.1z"/><path transform="rotate(150.412 3017.603 3358.7)" class="st49" d="M2946.5 3308.6h142.3v100.3h-142.3z"/><path d="m2969 3380.1 93.6-53.1-5.9-47.3-3.8.5 5.6 44.7-89.3 50.7-37-26.9-2.3 3.1z"/><path class="st16" d="m2966.7 3445.3 13.9-7.9-48.4-85.2-4.9 2.8z"/><path transform="rotate(150.412 3015.547 3346.773)" class="st50" d="M3003.3 3337.6h24.6v18.2h-24.6z"/><path class="st49" d="m2944 3307.8 61-34.6 23.3 41-61 34.6-23.3-41zm58.1-24.2-47.6 27 15.7 27.7 47.6-27-15.7-27.7z"/><path class="st42" d="M2987.8 3318.7s18.9-1.3 14.5-25.2c-2.3-12.5-14.2-22.1-14.2-22.1s-24.6-81.2-38-110.2c-6-13.1-30.3 9.5-20.1 13.1 10.3 3.6 37 92.4 40.2 114.3 1.5 10.3-4.4 18.7.3 20.6 6.3 2.6 7.6-20.3 7.6-20.3s2.9 18.4 9.7 29.8z"/><path class="st2" d="m2968.5 3279.7-39.9-85.8-38.2-119.5 34.9-10.3s25 87.6 33 99.8c8 12.2 34.3 108.4 34.3 108.4l-24.1 7.4z"/><path class="st42" d="M2616.6 3050.2s-64.9-27.4-63.3-21.1c1.6 6.4 11 11.9 13.2 16.4 2.1 4.5-.6 19.7 12.7 23.9 13.3 4.2 26.7-.6 26.7-.6l10.7-18.6z"/><path class="st2" d="M439.6 3088.7h1320.3l106 38.5h-1255z"/><path style="fill:#c297ff" d="M1865.9 3708.1h-1255v-580.9h1255v46.4l-78.6 34.1 78.6 28.9v32.9l-21.5 44.5 21.5 30.1v29.5l-70 34.4h70v53.3l-37 24.6 37 46.7-29.3 48.1 29.3 39.8v41.5l-18 16.1 18 17.9z"/><path class="st3" d="m610.9 3708.1-80.5-19.2-5.4-581 85.9 19.3z"/><path class="st41" d="M1014.7 3288.9H610.9l201.9 50.1z"/><path class="st3" d="m610.9 3587.7 147.8-30.7H610.9l24.8-80.7-34.3-51.9zM610.9 3261.4H803l-210.8-24.8zM576.8 3154.6h303l-287.6-21.7zM576.8 3609.3l303-10.8-287.6-10.8zM562.5 3683.7h165.8L578 3662z"/><path class="st3" d="m609.8 3243.7 19.6-37.8-37.2-34.2zM439.6 3669.9v-51.2l90.8 20.2-90.8-27.4v-66l50 2.5-50-13.3v-117l17.9-27.8-19.3-26.6v-38.7l82.6-2.4-84-21.9v-63.7l13.2-22.7-10.4-22.1v-48l77.3 21.4-77.3-38v-38.5l122.9 27.6V3696z"/><path class="st41" d="M1379.4 3587.7H849.1l272.8 32.8zM1802.4 3432.4H1432l345.8 53.5zM1865.9 3236.6l-355.3-2 433.9 34.9zM1159.8 3465.3H629.4l162.9 32.8zM1547.3 3327.7h-380.5l245.3 25.4zM1755 3675.3h-380.6l249.6 12.8z"/><path class="st3" d="m1630.2 3386-704.2-1.9 514.1 20.4z"/><path style="fill:#11b7ae" d="m1870.9 3173.6-452.6-1.9 400.4 20.3z"/><path class="st3" d="m1587.5 3630.3-395.5 1.3 300.9 15.3z"/><path class="st41" d="M985.2 3205.4H629.4l98.9 19.9zM962.2 3668.1H606.4l98.9 20z"/><path class="st2" d="m570.6 3287.4-132.3-35.8-41.9 24.1zM610.9 3484.7l-158.6-35.9 41.9 37.1z"/><path style="opacity:.43;fill:#003b64" d="M1881.7 3902.7 1302 3710.4v-542.2l960.6 490.2-48 131.5z"/><path class="st0" d="M1302 3168.2s-.8 322 124.3 465.7c183.3 210.4 555.2 298.2 555.2 298.2l233.2-142.2 48-242.6c-86-44.7-178.7-105.9-234.8-182.2-119.6-162.4-100.6-318-100.6-318L1302 3168.2z"/><path d="m2180.8 3606.2-67.6 45.3s47.5 9 73.8 58.9c26.3 50 27.6 79.5 27.6 79.5l7.3-176.7-41.1-7z" style="opacity:.14;fill:#003b64"/><path class="st3" d="M1575.5 3196.8c-3.3 0-6.3-2.3-7.1-5.6-.9-3.9 1.5-7.9 5.4-8.8l283.8-67.1c4-1 7.9 1.5 8.8 5.4.9 3.9-1.5 7.9-5.4 8.8l-283.8 67.1c-.6.1-1.2.2-1.7.2zM1601.2 3245.3c-3.2 0-6.2-2.1-7-5.4-1.1-3.9 1.2-7.9 5.1-9l262.6-72.1c3.8-1 7.9 1.2 9 5.1 1.1 3.9-1.2 7.9-5.1 9l-262.6 72.1c-.7.2-1.4.3-2 .3zM1619.6 3292.6c-3.1 0-6-2-7-5.2-1.2-3.9 1-8 4.8-9.1l261.3-80c3.9-1.2 8 1 9.1 4.9 1.2 3.9-1 8-4.8 9.1l-261.3 80c-.6.2-1.4.3-2.1.3zM1435.3 3506.7c-2.9 0-5.7-1.8-6.8-4.7-1.5-3.8.4-8 4.2-9.5l486.1-187.6c3.8-1.4 8 .4 9.5 4.2 1.5 3.8-.4 8-4.2 9.5L1438 3506.2c-.9.4-1.8.5-2.7.5zM1481.9 3588.4c-2.8 0-5.4-1.6-6.7-4.3-1.7-3.7-.1-8 3.6-9.7l462.6-211.4c3.7-1.7 8-.1 9.7 3.6 1.7 3.7.1 8-3.6 9.7L1485 3587.8c-1 .4-2 .6-3.1.6zM1551.9 3644.8c-2.7 0-5.4-1.5-6.6-4.2-1.7-3.6-.2-8 3.5-9.7l434.8-206.9c3.6-1.7 8-.2 9.7 3.5 1.7 3.6.2 8-3.5 9.7L1555 3644.1c-1 .4-2.1.7-3.1.7zM1619.6 3696.4c-2.7 0-5.3-1.5-6.5-4-1.8-3.6-.4-8 3.2-9.8l418.1-210.4c3.6-1.8 8-.4 9.8 3.2 1.8 3.6.4 8-3.3 9.8l-418.1 210.4c-.9.6-2.1.8-3.2.8zM1709.1 3740.1c-2.6 0-5.2-1.4-6.5-3.9-1.9-3.6-.5-8 3.1-9.9l393-207.2c3.6-1.9 8-.5 9.9 3.1 1.9 3.6.5 8-3.1 9.9l-393 207.2c-1.1.6-2.3.8-3.4.8zM1905.2 3866.8c-2.4 0-4.8-1.2-6.2-3.4-2.2-3.4-1.2-7.9 2.2-10.1l177.7-114.1c3.4-2.2 7.9-1.2 10.1 2.2 2.2 3.4 1.2 7.9-2.2 10.1l-177.7 114.1c-1.2.9-2.6 1.2-3.9 1.2z"/><path class="st56" d="M1953.8 3858.1c-8.6 0-17.1-4.4-24.6-13.1-14.8-17-24.2-48.3-22.9-73.7l-37.4 18.7c-3.5 1.8-7.8.4-9.7-3-10.4-19.1-7.1-66.4 11.5-92.2 10.1-14 23.3-19.9 38.2-17.2 21.1 3.8 33 22.8 40.9 43.5 8.8-6.7 17-6.2 22.7-4.4 1.8.6 3.6 1.4 5.4 2.4l23.8-11.9c2-3.7 4.5-6.8 7.7-9.1 4-3 11-6 21-3 2.9.8 5 3.4 5.2 6.4.3 3-1.3 5.9-4 7.2l-18.8 9.4c-4.6 12.3-4.7 33.1-4.8 43.4 0 2.9 0 5.4-.1 7.3-.2 3.7-3 6.7-6.7 7-3.6.3-7-2.2-7.8-5.8-2.2-10.5-9-25.3-17.1-33.6l-11.1 5.6c20.1 22 32.3 66.6 25 86.6-1.1 3.2-4.3 5.2-7.7 4.8-.8-.1-1.6-.2-2.4-.4-.7 8.3-3.6 15.3-9.9 19.8-5.3 3.4-10.8 5.3-16.4 5.3zm-31.9-94.7c-3.9 21 3.7 55.1 18.4 72 10.9 12.6 18.7 7.1 21.7 5.1 3.5-2.4 4.3-8.1 3.8-15.2-10.6-8.9-18.7-24-23.3-38.1-3.1-9.4-5.4-20.6-5.7-31.2l-14.9 7.4zm41.1-.3c.2.4.3.9.4 1.3.7 2 1.7 4.7 2.9 7.9 3.8 10.1 8.6 23.1 11.5 35.8-1.1-13.7-6.8-31.5-14.8-45zm-60.8-71.6c-7.4 0-13.9 3.9-19.6 11.8-13.8 19.1-17 52.7-12.9 69.9l39.8-19.9c1.8-5.3 4.3-10 7.7-13.6 6.2-6.6 12.9-10.3 19.9-11.1-6.6-17.8-15.8-34-30.8-36.7-1.4-.3-2.8-.4-4.1-.4zm87.7 37.9c1.6 1.9 3.1 4 4.5 6.1.3-3.1.7-6 1.2-8.9l-5.7 2.8zM2214.6 3789.9l92.5-214.9s-21.7-21.3-44.4-27.7c-65.3-18.5-139.4 30.8-139.4 30.8s88.9 35.1 91.3 211.8z"/><linearGradient id="SVGID_22_" gradientUnits="userSpaceOnUse" x1="987.552" y1="3691.06" x2="1151.693" y2="3691.06"><stop offset=".189" style="stop-color:#ffd234"/><stop offset=".986" style="stop-color:#ffb000"/></linearGradient><path d="M994.4 3719.8s19.6-82.4 72.4-102.1c52.8-19.7 90.4 30.5 84.2 65.4-6.3 34.9-50.1-16.1-90.4 0-40.3 16.1-72.4 85.8-72.4 85.8s-3.5-7.9 6.2-49.1z" style="fill:url(#SVGID_22_)"/><linearGradient id="SVGID_23_" gradientUnits="userSpaceOnUse" x1="663.503" y1="3584.263" x2="1013.229" y2="3584.263"><stop offset=".189" style="stop-color:#ffd234"/><stop offset=".986" style="stop-color:#ffb000"/></linearGradient><path d="M985.5 3760s-30.4-180.2-127.8-173.9c-80.3 5.2-145.3 41.9-184.5-28.1-48.4-86.6 91.1-214.8 257.3-110.4 145.3 91.3 55 312.4 55 312.4z" style="fill:url(#SVGID_23_)"/><linearGradient id="SVGID_24_" gradientUnits="userSpaceOnUse" x1="794.396" y1="3691.06" x2="987.552" y2="3691.06"><stop offset=".189" style="stop-color:#ffd234"/><stop offset=".986" style="stop-color:#ffb000"/></linearGradient><path d="M826.4 3708.6c-25.5-10.6-38.9-39.7-28.5-65.3 4.2-10.2 11.8-19.1 25.2-23.6 43-14.3 79.6 20.9 124.9 71.8 22.9 25.8 39.5 74.1 39.5 74.1s-105-33.8-161.1-57z" style="fill:url(#SVGID_24_)"/><path class="st2" d="M982.3 3772.8c-.4 0-.9-.1-1.3-.2-2-.7-3-3-2.3-5 .5-1.3 46.1-128.4-41.6-214.5-87.7-86.2-221.3-30.4-222.6-29.9-2 .9-4.3-.1-5.1-2-.8-2 .1-4.3 2-5.1 1.4-.6 139.7-58.3 231.1 31.5 91.3 89.7 43.9 221.4 43.4 222.7-.5 1.5-2 2.5-3.6 2.5z"/><path class="st2" d="M987.6 3769.5c-1.6 0-3-1-3.6-2.5 0-.1-7-16-51.5-53.5-45.4-38.2-107.4-61.7-108-61.9-2-.8-3-3-2.3-5 .8-2 3-3 5-2.3.6.2 63.8 24.1 110.3 63.2 29 24.4 42.6 40.1 48.8 48.6 9-29.1 41.8-123 90.3-132.1 17.6-3.3 32-.7 43 7.9 17.7 13.8 19.3 37.8 19.3 38.8.1 2.1-1.5 4-3.7 4.1-2 .2-4-1.5-4.1-3.6 0-.2-1.5-21.6-16.4-33.2-9.1-7.1-21.4-9.2-36.7-6.3-51.6 9.7-86.4 133.6-86.8 134.9-.4 1.6-1.9 2.8-3.6 2.8.1.1 0 .1 0 .1zM759.4 3588.2c-.8 0-1.6-.2-2.3-.7-1.7-1.3-2.1-3.7-.9-5.4l60.2-83.4c1.3-1.7 3.7-2.1 5.4-.9 1.7 1.3 2.1 3.7.9 5.4l-60.2 83.4c-.7 1-1.9 1.6-3.1 1.6zM861.2 3581c-1.2 0-2.4-.6-3.2-1.7-1.2-1.8-.8-4.2 1-5.4l60.6-42.2c1.8-1.2 4.2-.8 5.4 1 1.2 1.8.8 4.2-1 5.4l-60.6 42.2c-.7.5-1.4.7-2.2.7zM980.4 3614.4h-.4l-51.8-5.5c-2.1-.2-3.7-2.1-3.5-4.3.2-2.1 2.1-3.7 4.3-3.5l51.8 5.5c2.1.2 3.7 2.1 3.5 4.3-.2 2.1-1.9 3.5-3.9 3.5z"/><path class="st2" d="M994.8 3681c-.7 0-1.5-.2-2.1-.6l-34.2-22.4c-1.8-1.2-2.3-3.6-1.1-5.4 1.2-1.8 3.6-2.3 5.4-1.1l34.2 22.4c1.8 1.2 2.3 3.6 1.1 5.4-.8 1.1-2.1 1.7-3.3 1.7zM902.5 3740.9c-1.5 0-3-.9-3.6-2.4-.8-2 .1-4.3 2.1-5.1l39.1-16.1-15.1-36.7c-.8-2 .1-4.3 2.1-5.1 2-.8 4.3.1 5.1 2.1l16.5 40.3c.8 2-.1 4.3-2.1 5.1l-42.7 17.6c-.4.2-.9.3-1.4.3zM809.1 3687c-1.7 0-3.2-1.1-3.7-2.8-.6-2.1.5-4.2 2.6-4.9l52.8-16.1-10.5-40.3c-.5-2.1.7-4.2 2.8-4.7 2.1-.5 4.2.7 4.7 2.8l11.5 43.9c.5 2-.6 4.1-2.6 4.7l-56.4 17.2c-.4.1-.8.2-1.2.2zM838.4 3714.5c-1.7 0-3.3-1.1-3.7-2.9-.6-2.1.6-4.2 2.7-4.8l66.7-18.5-11.1-39.7c-.6-2.1.6-4.2 2.7-4.8 2.1-.6 4.2.6 4.8 2.7l12.1 43.5c.3 1 .1 2.1-.4 3-.5.9-1.4 1.6-2.4 1.8l-70.4 19.5c-.3.1-.7.2-1 .2z"/><linearGradient id="SVGID_25_" gradientUnits="userSpaceOnUse" x1="2343.094" y1="2015.431" x2="2415.544" y2="2015.431"><stop offset=".189" style="stop-color:#ffd234"/><stop offset=".986" style="stop-color:#ffb000"/></linearGradient><path d="M2415.5 2070.9c-8.8 2.6-96.8-78.3-65.9-107.3 24.3-22.8 57.3 64.9 65.9 107.3z" style="fill:url(#SVGID_25_)"/><linearGradient id="SVGID_26_" gradientUnits="userSpaceOnUse" x1="2398.365" y1="1956.092" x2="2480.588" y2="1956.092"><stop offset=".189" style="stop-color:#ffd234"/><stop offset=".986" style="stop-color:#ffb000"/></linearGradient><path d="M2418.7 2075.2s98.8-154.5 46.7-218.6c-52-64.1-93.4 34.5-46.7 218.6z" style="fill:url(#SVGID_26_)"/><linearGradient id="SVGID_27_" gradientUnits="userSpaceOnUse" x1="2432.173" y1="2009.863" x2="2537.166" y2="2009.863"><stop offset=".189" style="stop-color:#ffd234"/><stop offset=".986" style="stop-color:#ffb000"/></linearGradient><path d="M2432.2 2075.2s128.3-33.9 101.2-104.3c-27.1-70.5-67.7 13.1-101.2 104.3z" style="fill:url(#SVGID_27_)"/><path transform="rotate(-30.751 2387.43 2023.395)" class="st2" d="M2384.3 1967.8h5.8v110.9h-5.8z"/><path transform="rotate(-20.836 2507.029 2013.38)" class="st2" d="M2478.7 2010.5h56.5v5.8h-56.5z"/><path transform="rotate(-21.061 2514.645 1987.205)" class="st2" d="M2495.1 1984.3h39.6v5.8h-39.6z"/><path transform="rotate(-30.458 2518.224 1968.457)" class="st2" d="M2505.2 1965.5h26v5.8h-26z"/><path transform="rotate(-10.347 2492.271 2033.084)" class="st2" d="M2472.1 2030.3h40.7v5.8h-40.7z"/><path class="st2" d="M2462 2048.1h28.2v5.8H2462z"/><path transform="rotate(-12.193 2458.992 2064.103)" class="st2" d="M2446.3 2060.9h24.3v5.8h-24.3z"/><path class="st2" d="m2421.5 2075.8-5.7-1.2c.1-.7 13.9-66.4 20.7-130.3 6.4-59.5.1-100.1 0-100.5l5.7-.9c.1.4 6.5 41.7 0 102-6.8 64.2-20.5 130.2-20.7 130.9z"/><path class="st2" d="m2442.7 1904-33.1-34.3 4.1-4 28.7 29.7 25.2-29.6 4.4 3.7zM2439.2 1948.7l-32.1-37.7 4.4-3.7 28.2 33.1 34.5-30.8 3.8 4.3zM2434.9 1983.7l-29.9-25.4 3.8-4.4 26.4 22.5 31.8-22.6 3.3 4.6zM2430.4 2018l-23.1-21.6 3.9-4.3 19.5 18.3 22.8-17.5 3.5 4.5zM2433.2 2077.9l-2.1-5.4c.2-.1 20-8.4 46-49.1 26.4-41.3 33-68.8 33.1-69.1l5.6 1.3c-.3 1.1-6.9 28.6-33.8 70.9-27.2 42.6-47.9 51-48.8 51.4z"/><path class="st43" d="M2646.4 2303.9v-32.6s-5.1-23.9-10.3-26.4c-5.2-2.5-8.6 14.8-8.6 14.8l1.9 44.3h17zM2646 2127.9s2.6-35-3.5-42.6c-2-2.5-7.5-12.3-9-14 0 0-6.1 0-6.7 5.1-.2 1.7-.2 3.8 0 6.3 1.2 13.3.7 45.2.7 45.2h18.5z"/><path class="st26" d="m2646 2125.2 126.1-100.3c41.3 31.2 133.9 140.1 133.9 140.1l45-77.2s-131.8-99.6-175.9-110.9L2646 2101.2v24z"/><path class="st42" d="M2899.2 1917.1s10.8 19 8 16.4c-19.8-18.1-116.8-108.5-118-117-1.9-13.8-42.4-92-50.4-97.8-8-5.8-3.6-5.7-9.1-4.4-5.5 1.4-12.5-26-12.5-26s28.3 9.3 38.6 22.5c1.4 1.8 62.8 85.9 68.3 101.2 3.7 10.3 85.1 69.2 85.1 69.2s36.7 52.7-10 35.9z"/><path class="st42" d="M2912.2 1783.5s-24.3 14.1-29.3 33.3c-2.3 8.7 13.1 15.6 13.1 15.6-3.4 21.8-23.7 42.9-23.7 42.9s8.7 1.7 18.1 14.4c5.4 7.3 22.3-7.1 22.1-9.8-2.8-29.3 33.2-59.2 23.7-80.3-9.6-21.1-24-16.1-24-16.1z"/><path class="st45" d="M2918.2 1791.8s-4.7-9-13.1-15.2c-8.4-6.3 4.6-30.7 7.8-29.7s7.9 18.1 13.6 26.7c5.7 8.6 21.2 22.3 15.7 43.3-5.4 21-25.9 36.8-25.9 36.8s-4.8-8.1-4.4-11.9c.5-3.8 12-8.8 12-13.4s-6.3-1.9-8.5-3.3 11.5-13.8 2.8-33.3z"/><path class="st42" d="M2912.2 1783.5s-24.3 14.1-29.3 33.3c-2.3 8.7 13.1 15.6 13.1 15.6-3.4 21.8-23.7 42.9-23.7 42.9s8.7 1.7 18.1 14.4c5.4 7.3 22.3-7.1 22.1-9.8-2.8-29.3 33.2-59.2 23.7-80.3-9.6-21.1-24-16.1-24-16.1z"/><path class="st45" d="M2918.2 1791.8s-4.7-9-13.1-15.2c-8.4-6.3 4.6-30.7 7.8-29.7s7.9 18.1 13.6 26.7c5.7 8.6 21.2 22.3 15.7 43.3-5.4 21-25.9 36.8-25.9 36.8s-4.8-8.1-4.4-11.9c.5-3.8 12-8.8 12-13.4s-6.3-1.9-8.5-3.3 11.5-13.8 2.8-33.3z"/><path class="st44" d="m2646.4 2283.7 122.7-153.5c38-8.1 168.5-66.3 168.5-66.3s72.9 15.3 35.5 75.4c-24.9 40.1-181.5 45-188.6 44.1-7.1-.9-137.8 120.3-137.8 120.3l-.3-20z"/><path class="st5" d="m2880.9 2047.2-.6 21.7 11.1-8.2 1.9 24.6s16.7 6.3 32.3 9.2c50.6 9.6 68.3-15.5 68.3-15.5s4-122.9-65-193.5c-20.4-20.9-41.5-21.1-52.9-17.4-4.8 1.6-3.3 33.7-3.3 33.7s53.2 84.9 8.2 145.4z"/><path class="st5" d="M2881.6 1867.5h.7c2.3 0 10 .1 19.4 2.3 8.7 2 19.5 12.7 19.5 12.7l5.1-10.1s-7.5-7-21.5-8.5c-6.2-.6-12.9.4-12.9.4l-13.3-7.8-5.6 13 8.6-2z"/><path class="st2" d="m2892 2082.1 104.5-55.2 35.9 70.1-104.4 55.2z"/><path class="st63" d="m2989.8 2040.4 28.2 54.9-28.2-54.9z"/><path transform="rotate(-27.13 3004.316 2067.862)" class="st64" d="M3002.3 2037h3.2v61.7h-3.2z"/><path class="st63" d="m2974.4 2048.4 28.2 54.9-28.2-54.9z"/><path transform="rotate(-27.136 2988.186 2075.814)" class="st64" d="M2986.8 2045h3.2v61.7h-3.2z"/><path class="st63" d="m2959 2056.5 28.2 54.9-28.2-54.9z"/><path transform="rotate(-27.134 2972.73 2083.772)" class="st64" d="M2971.4 2053.1h3.2v61.7h-3.2z"/><path class="st63" d="m2943.5 2064.5 28.2 54.9-28.2-54.9z"/><path transform="rotate(-27.136 2957.262 2091.885)" class="st64" d="M2956 2061.1h3.2v61.7h-3.2z"/><path class="st63" d="m2928.1 2072.6 28.2 54.9-28.2-54.9z"/><path transform="rotate(-27.136 2941.973 2099.99)" class="st64" d="M2940.6 2069.2h3.2v61.7h-3.2z"/><path class="st63" d="m2912.7 2080.6 28.2 54.9-28.2-54.9z"/><path transform="rotate(-27.13 2927.293 2108.172)" class="st64" d="M2925.2 2077.2h3.2v61.7h-3.2z"/><path class="st42" d="M2925.8 1889.1s69.1 68.5 67.8 73.4c-10.3 40.1-46.8 90.8-46.8 90.8s6.6 7.9 9.9 10.9c3.3 2.9 22.7 4 .5 7.6-19.9 3.2-25.6-14-22.7-22.1 4.7-13.4 25.4-66.6 27.3-77.4.5-2.8-85.8-50.8-78.5-79.3 8.6-33.4 42.5-3.9 42.5-3.9zM2659.2 2088.9l5.1 22.1-18.3 14.6v-24zM2660.2 2266.8l1.9 22.9-15.4 14.2-.3-19.9zM2213.3 1167.1c1.4-6.5 3.1-11.8-2.7-15.1-21.9-12.5-77.1-55.7-82.1-64.6-6.2-11-24.1-63.4-24.1-63.4l.9-15.7s-10.1-17.6-13.4-16.8c-3.4.8 3.4 15.3 3.9 26.7.6 12.9 6.9 65.6 23.9 90.2 17 24.6 64 79.9 82.9 72.7 5.3-2.2 9.5-8.5 10.7-14z"/><path class="st26" d="M2230.3 1624.7s-27.8-121.8-31.4-132.5c-3.6-10.7-5.6-162.6-5.6-162.6l49.5 10.3-5.1 141.4 11.7 141.9-19.1 1.5z"/><path class="st44" d="M2174.8 1624.7s-26.2-121.8-29.8-132.5c-3.6-10.7 26.1-169.5 26.1-169.5l71.7 17.2-59.1 141.4 11.7 141.9-20.6 1.5z"/><path class="st42" d="M2174.5 1661.2s-13 .5-7.4-3.2c20.8-13.5 14.1-33.6 14.1-33.6l14.2-2-.3 18.9-11.7 16.2c0 .1 2.9 5-8.9 3.7z"/><path class="st66" d="M2271.2 1664.1c0 5.8-77 10.4-172.1 10.4-95 0-172.1-4.7-172.1-10.4 0-5.8 77-10.4 172.1-10.4s172.1 4.6 172.1 10.4z" style="opacity:.18"/><linearGradient id="SVGID_28_" gradientUnits="userSpaceOnUse" x1="2465.533" y1="1652.211" x2="2475.177" y2="1652.211" gradientTransform="matrix(-1 0 0 1 4663.829 0)"><stop offset=".189" style="stop-color:#ffd234"/><stop offset=".986" style="stop-color:#ffb000"/></linearGradient><path style="fill:url(#SVGID_28_)" d="m2188.7 1665.2.6-15.7 9-10.3-3.7 26z"/><linearGradient id="SVGID_29_" gradientUnits="userSpaceOnUse" x1="2464.306" y1="1651.096" x2="2507.138" y2="1651.096" gradientTransform="matrix(-1 0 0 1 4663.829 0)"><stop offset=".189" style="stop-color:#ffd234"/><stop offset=".986" style="stop-color:#ffb000"/></linearGradient><path d="M2194.6 1635.2s1.5-1.6 4.3 3.1c2.1 3.6-1.3 12.3-1.3 12.3s-6.2.5-10.3 7c-1 1.6-2.9 5.4-5.7 8.4-2.8 3-24.7-.2-24.7-.2s-.8-1.5 2.7-3.7 7.6-4 7.6-4 5.6 4.1 10.7.5c4.9-3.7 16.7-23.4 16.7-23.4z" style="fill:url(#SVGID_29_)"/><path class="st42" d="M2228.7 1661.2s-13 .5-7.4-3.2c20.8-13.5 14.1-33.6 14.1-33.6l14.2-2-.3 18.9-11.7 16.2c0 .1 3 5-8.9 3.7z"/><linearGradient id="SVGID_30_" gradientUnits="userSpaceOnUse" x1="2411.282" y1="1652.211" x2="2420.926" y2="1652.211" gradientTransform="matrix(-1 0 0 1 4663.829 0)"><stop offset=".189" style="stop-color:#ffd234"/><stop offset=".986" style="stop-color:#ffb000"/></linearGradient><path style="fill:url(#SVGID_30_)" d="m2242.9 1665.2.7-15.7 8.9-10.3-3.7 26z"/><linearGradient id="SVGID_31_" gradientUnits="userSpaceOnUse" x1="2410.054" y1="1651.096" x2="2452.886" y2="1651.096" gradientTransform="matrix(-1 0 0 1 4663.829 0)"><stop offset=".189" style="stop-color:#ffd234"/><stop offset=".986" style="stop-color:#ffb000"/></linearGradient><path d="M2248.8 1635.2s1.5-1.6 4.3 3.1c2.1 3.6-1.3 12.3-1.3 12.3s-6.2.5-10.3 7c-1 1.6-2.9 5.4-5.7 8.4-2.8 3-24.7-.2-24.7-.2s-.8-1.5 2.7-3.7 7.6-4 7.6-4 5.6 4.1 10.7.5c5-3.7 16.7-23.4 16.7-23.4z" style="fill:url(#SVGID_31_)"/><linearGradient id="SVGID_32_" gradientUnits="userSpaceOnUse" x1="2413.583" y1="1241.716" x2="2519.945" y2="1241.716" gradientTransform="matrix(-1 0 0 1 4663.829 0)"><stop offset=".189" style="stop-color:#ffd234"/><stop offset=".986" style="stop-color:#ffb000"/></linearGradient><path d="M2188.7 1144.2c-11.8 1.8-16.3 6.9-21.7 17.6-4.1 8.2-13.4 27.7-22.3 37.4-5.9 6.4 22.5 136.1 22.5 136.1l83.1 4.6s-20.6-56.7-22-93.6c-1.4-36.9-2.9-81.9-10-90.3-10.7-12.8-19-13.4-29.6-11.8z" style="fill:url(#SVGID_32_)"/><path class="st42" d="M2180.5 1183c1.8-6.4 3.8-11.6-1.8-15.3-21.1-13.8-73.5-60.3-78-69.5-5.5-11.4-15.4-73.3-15.4-73.3s10.1-13.5 6.6-15.8c-2.6-1.7-9.5 8.7-9.5 8.7s-2.2-20.4-5.6-19.8c-3.4.6-12.9 12.5-6.5 23.7s4.9 71.3 20.4 96.8c15.5 25.6 59 83.7 78.2 77.6 5.5-1.6 10.1-7.7 11.6-13.1z"/><path class="st42" d="M2167.7 1070.5s-11.7 22.8-6.5 42.2c1.5 5.7 17.6 6.4 17.6 6.4 4.9 13.6-6.5 34-6.5 34s8.7-11.1 18.2-6.9c5.5 2.5 12.7-.4 11.7-1.9-10.9-16 13.9-60.3 1.6-69.4-12.3-9-36.1-4.4-36.1-4.4z"/><path class="st45" d="M2172.4 1078.3c-8.8-.4-16.4-7.5-16.2-16.4.1-3.3 1-6.8 3.6-10.6 10.1-15 24.8 4.9 25.2 9.1.3 4.2 12.1-22.1 40.2 1.7s-.3 56.1 10.8 72.7c11.1 16.6 21.9 9.5 24.8 23.8 2.9 14.4-16 15.7-16 15.7s4.9 8.5-5.9 15.7c-10.8 7.2-26.4-2.3-26.4-2.3s-3.7 13.4-15.3 14.4c-11.6.9-24.1-33.3-16.5-62.3 9.2-34.7 17-40.1 17.4-48.6.3-8.5-4.6-2.9-6.9-2.6-2.1.4.9-9.3-18.8-10.3z"/><path class="st2" d="M998.9 2433.4c-.2 1.2 2.1 8.3 7 11.6 4.9 3.3 15.9 3.8 15.9 3.8l1.9 14.6s-11.9-3-18.9-10.1c-7.1-7.1-8.7-10.6-8.7-10.6l2.8-9.3zM1027.9 2452.2s10.1-1.8 12.7-9.5c2.6-7.6-2.4-11.7-2.4-11.7l8.8 10.5s.9 3.9-7.3 10.6c-8.2 6.7-14.1 11.2-14.1 11.2l2.3-11.1z"/><path class="st46" d="M1442.6 3109.6c0 6-165.4 10.8-369.4 10.8-204 0-369.4-4.9-369.4-10.8 0-6 165.4-10.8 369.4-10.8 204 0 369.4 4.8 369.4 10.8z"/><path class="st42" d="M1109 2557.1h-50.5v20.3l46.1 9.9z"/><path class="st72" d="m1206.6 3082.7 5.4-190 25.8-218.2s-12.7-51.6 40.4 11c53.1 62.6-27.1 210.7-25.1 218.8 3.1 12.5-19.3 181.3-19.3 181.3l-27.2-2.9z"/><path class="st43" d="m1232.3 3089.9-18.6-1.1-15.1 9.7s-19.3 4.3-24.4 8.5c-5.1 4.3 59.6-1.1 59.6-1.1l-1.5-16z"/><path class="st42" d="m1213.2 3083.5 19.3 2.1-.3 6.4-18.5-3.2z"/><path class="st72" d="m1371.6 3082.7-31.9-174 14-208.8s15.8-58-53.8-14.4c-41.1 25.8-4.8 192.6-3.6 228.6 1.1 34.5 48 171.6 48 171.6l27.3-3z"/><path class="st43" d="m1368 3089.9-18.6-1.1-15.1 9.7s-19.3 4.3-24.4 8.5c-5.1 4.3 59.6-1.1 59.6-1.1l-1.5-16z"/><path class="st42" d="m1349.1 3085.2 18.1-2 .7 8.8-18.5-3.2z"/><path class="st2" d="m1102.1 2549.3 46.2-8.9 89.3-88.3 25.5 46.6s-75.6 66.3-88.2 73.7c-12.6 7.4-49.5 21.5-82.9 16.9-21.8-3 5 .5 5 .5l5.1-40.5z"/><path class="st42" d="M1256.3 2348.4s-17.4 27.6-12.2 50c2.3 10.2 21.9 9 21.9 9 8.2 24.2-1.4 56.8-1.4 56.8s9.9-2.9 26.3 5.1c9.4 4.6 19.1-19.3 17.4-21.9-18.6-28.6 2.4-78.7-18.7-95.3-21.2-16.5-33.3-3.7-33.3-3.7z"/><path class="st45" d="M1266.9 2353.7s-.6-10.3-14.7-10c-12.2.2-27.8-27.2-13.2-35.5 17-9.7 29.6 8.9 39.7 20.5 12.1 13.7 17.5 14.5 24.6 16.7 5.5 1.7 15.6 4 17.8 15.3 1.3 6.6-5.9 14-8.6 17.6 0 0 7 1.4 9.6 8.6 2.3 6.3-21.3 29-21.3 29s-11.9-3.3-13.5-7.4c-1.6-4.1 7.6-15.5 5.1-20.2-2.4-4.7-8.2-.8-10.5 1.2-1 .9-5-2.7-4.3-11 .2-2.5 4.4-7 4.4-7s-8.9-.5-13-5.5c-5.5-6.9-2.1-12.3-2.1-12.3z"/><path class="st2" d="M1350.3 2587.8c-4.1-41.5.1-109.8-1.9-120.8s-36.1-51.2-91.5-28.3c-5.8 2.4-9.8 4.5-16.1 10.7-15.3 15-5.2 104.2-6.3 153.3-1.1 49-3.1 96-3.1 96l19.8 19.5 15.5-33.2 24.5 38.1 66-24.4c.2 0-2.8-69.4-6.9-110.9z"/><linearGradient id="SVGID_33_" gradientUnits="userSpaceOnUse" x1="3408.827" y1="1824.149" x2="3525.758" y2="1824.149" gradientTransform="scale(-1 1) rotate(28.659 -332.633 -7102.926)"><stop offset=".189" style="stop-color:#ffd234"/><stop offset=".986" style="stop-color:#ffb000"/></linearGradient><path style="fill:url(#SVGID_33_)" d="m1286 2442.7-5.2 17.5 13.2 198.5-24.4-2.2 6.4-195.5-6.4-16.2z"/><path class="st42" d="M1450.2 2696.7s18.1-5.7 8.2-27.9c-5.2-11.6-19-18.2-19-18.2s-43-73.1-62.8-98.2c-9-11.3-30.1 21.3-19.3 22.4 10.8 1.1 60.5 76.1 68.8 96.6 3.9 9.6.2 19.2 5.1 20 6.7 1 2.6-21.5 2.6-21.5s7.2 17.3 16.4 26.8z"/><path class="st2" d="m1381.5 2606.1-35.8-43.1-28.6-100.2 28.8-1.5s31.1 78.8 39.1 91c8 12.2 25.5 45.3 25.5 45.3l-29 8.5z"/><path class="st72" d="m1096.8 3082.7-24.4-211-6.9-197.1s12.7-51.6-40.4 11c-53.1 62.6 8.2 189.7 6.2 197.8-3.1 12.5 38.2 202.3 38.2 202.3l27.3-3z"/><path class="st43" d="m1071.1 3089.9 18.6-1.1 15.1 9.7s19.3 4.3 24.4 8.5c5.1 4.3-59.6-1.1-59.6-1.1l1.5-16z"/><path class="st42" d="m1090.2 3083.5-19.3 2.1.3 6.4 18.5-3.2z"/><path class="st72" d="m931.8 3082.7 17.2-185.5.6-197.2s-15.8-58 53.8-14.4c41.1 25.8-9.9 181-11 217-1.1 34.5-33.4 183.2-33.4 183.2l-27.2-3.1z"/><path class="st43" d="m935.4 3089.9 18.6-1.1 15.1 9.7s19.3 4.3 24.4 8.5c5.1 4.3-59.6-1.1-59.6-1.1l1.5-16z"/><path class="st42" d="m954.3 3085.2-18.1-2-.7 8.8 18.5-3.2z"/><path class="st5" d="M1180.7 2471.1 1142 2487l-93.7-48-1.2 53.1s70.5 34.8 85 35.7c14.6.8 40.1-21 40.1-21l8.5-35.7z"/><path class="st5" d="M953.1 2587.8c4.1-41.5-.1-109.8 1.9-120.8s36.1-51.2 91.5-28.3c5.8 2.4 9.8 4.5 16.1 10.7 15.3 15 5.2 104.2 6.3 153.3 1.1 49 3.1 96 3.1 96l-25 8.5-10.4-22.2-12.8 19.9-77.7-6.2c-.1 0 2.9-69.4 7-110.9z"/><path class="st42" d="M1016.8 2329.2s25 20.9 27 43.8c.9 10.4-18 15.3-18 15.3-.3 25.6 18.8 53.6 18.8 53.6s-.8 2-13.9 14.7c-7.6 7.3-33.7-14.2-32.9-17.2 8.8-33-26.5-74.1-11.5-96.4s30.5-13.8 30.5-13.8z"/><path class="st45" d="M1008.3 2337.5s-5-4.2 8.5-8.3c11.7-3.5 1.7-35.5-14.8-38.9-19.1-4-34.4 5.8-40.3 29.4-4.4 17.8 15.4 16.8 9.3 21.1-4.7 3.3-13.6 8.7-12.2 20.1.8 6.7 9.9 11.5 13.6 14.1 0 0-6.2 3.5-6.5 11.1-.3 6.7 29.2 21 29.2 21s10.3-6.8 10.5-11.2c.2-4.4-12-12.4-11.1-17.6.9-5.2 7.6-3.3 10.4-2.1 1.2.5 4-4.1.7-11.8-1-2.3-6.3-5.3-6.3-5.3s8.3-3.3 10.7-9.3c3.2-8.2-1.7-12.3-1.7-12.3z"/><path class="st2" d="m1017.4 2442.7 5.2 17.5-13.6 112h29.5l-11.1-111.2 6.4-16.2z"/><path class="st42" d="M853.2 2696.7s-18.1-5.7-8.2-27.9c5.2-11.6 19-18.2 19-18.2s43-73.1 62.8-98.2c9-11.3 30.1 21.3 19.3 22.4-10.8 1.1-60.5 76.1-68.8 96.6-3.9 9.6-.2 19.2-5.1 20-6.7 1-2.6-21.5-2.6-21.5s-7.2 17.3-16.4 26.8z"/><path class="st5" d="m931.8 2594.2 25.9-31.2 28.8-100.9c2.6-9-2.4-24.9-10-19.3-15 4.7-26.7 16.4-31.2 31.4-8.3 27.5-21.6 70-26.9 78.2-8 12.2-17.2 17.4-17.2 17.4l30.6 24.4z"/><path class="st42" d="M1177.7 2472.4s59.2-36.9 73.8-36.9c14.6 0 24 5.2 21.1 7.3s-21.3 6.2-25 9.5c-3.8 3.3 11.9 5.6 6.9 9.1s-28.8 2.7-34.9 8.6c-6 5.9-46.4 32.6-46.4 32.6l4.5-30.2z"/><path class="st26" d="m1231.1 2424.3-2.1-176.2-4.4-213s-9.7-88.5-55.9-16.9 20.5 238.9 19.6 247.5c-1.5 13.2 15.2 165.3 15.2 165.3l27.6-6.7z"/><path class="st43" d="m1054.8 2451.2 19.3.6 14.7 11.5s19.5 6.2 24.4 11.1c4.9 4.9-61.5-6.8-61.5-6.8l3.1-16.4z"/><path class="st44" d="m1082 2446.1 36.6-172.3 68.9-180.5s2.8-93.7-72-52.9c-6.9 3.7-37.6 233.4-40.4 241.6-4.3 12.6-21.5 164.7-21.5 164.7l28.4-.6z"/><path class="st42" d="m1075.1 2446.3-20.2.3-.2 6.7 19.4-1.6z"/><path class="st43" d="m1205.6 2435.2 19-3.7 16.9 8s20.4 1.8 26.3 5.5c5.9 3.7-61.5 6.8-61.5 6.8l-.7-16.6z"/><path class="st42" d="m1224.4 2425.9-19.6 4.8 1.2 6.6 18.6-5.8zM1371.4 1665.3s15.8 11.7-1.4 30.1c-9 9.7-24.7 11.4-24.7 11.4s-53.4 108.1-81.3 125.9c-12.6 8.1-119.3 14.5-119.3 14.5l.8-41.8s97.3 2 108.3 4.6c11 2.5 70.5-110.9 85.5-128.3 7.1-8.2 6.7-18.8 11.8-17.9 6.9 1.3-4.7 21.9-4.7 21.9s12.7-14.1 25-20.4z"/><path class="st26" d="m1320.2 1709.4-65.3 95.4-116.1-2.7 1.3 53.6s112.3-3 126.2-9.2c13.8-6.2 36.9-51 52.9-82.1 10.5-20.3 19.8-43 19.8-43l-18.8-12z"/><path class="st2" d="m1325.8 1700.4-5.6 9 18.8 12 4.7-10.9z"/><path class="st42" d="M1106.5 1711.1s25.7 22 27.6 45.8c.8 10.8-18.9 15.7-18.9 15.7-.6 26.5 18.9 55.9 18.9 55.9s-10.7.2-24.5 13.2c-7.9 7.5-24.9-13.2-24-16.3 9.5-34.1-26.7-77.3-10.9-100.2 15.8-23 31.8-14.1 31.8-14.1z"/><path class="st45" d="M1097.6 1719.7s5.1 4.5 16.4-1.1c11.3-5.6 13.7-24.7-.5-34.8-3.9-2.8-19.2-8.4-27.8 13.1 0 0-11-6.1-17.8 1.5-9.6 10.8-2 25.1-2 25.1s-15.6 1.4-14.5 19.2c.4 7 4.9 12.8 8.6 15.5 0 0-6.5 3.5-6.9 11.5-.3 6.9 9.5 14.1 16.3 11.4 0 0 2.4 4.1 4.1 6.2 5 6.4 9.7 4.6 9.7 4.6s10.8-6.9 11.1-11.5c.3-4.6-12.3-13-11.3-18.4 1-5.4 7.9-3.4 10.8-2 1.2.6 5.7-6.1 2.3-14.2-1-2.4-5.2-5.2-5.2-5.2 0-2.5 7.1-5.3 8.4-7.9 3.8-8.5-1.7-13-1.7-13z"/><path class="st2" d="m1111.9 2049 3.2 4s24 23.4 42.9 26.3c61.3 9.2 63.9-39.2 63.9-39.2s-58-198.7-68.4-216.7c-17.5-30.4-52.6-20.5-65.6-14-12.7 6.3-22.3 16.5-29.1 26.1-8.6 12.2-7.3 28.8 3 39.4 27.9 28.7 88.6 117.9 50.1 174.1z"/><path class="st26" d="m1088 1809.2 68.7 113.7-38.2-122.5s6.1-.9 15.2.4c6.4.9 14.3 2.9 22.5 7.2 19.8 10.2 34.1 100.2 50.4 148.4 16.3 48.2 32.7 94.2 32.7 94.2l-23.4 35.5-15.9-38.2-12.5 45.3-85.2-4.4s-6.3-69-15.1-111.4c-8.8-42.4-34.1-108.8-35.5-120.3-1.3-11.4 5.7-39.2 36.3-47.9z"/><linearGradient id="SVGID_34_" gradientUnits="userSpaceOnUse" x1="791.227" y1="2076.576" x2="867.375" y2="2076.576" gradientTransform="rotate(11.333 2064.192 3485.421)"><stop offset=".189" style="stop-color:#ffd234"/><stop offset=".986" style="stop-color:#ffb000"/></linearGradient><path style="fill:url(#SVGID_34_)" d="m1103 1803.5 9.2 10.2 8.6 49.8 35.9 59.4-14.8-63.1-25.5-47.5-.1-9.9z"/><path transform="rotate(-180 1437.168 1818.258)" class="st2" d="M1174.8 1683.1h524.7v270.4h-524.7z"/><path class="st3" d="M1663.3 1942.1c3.1 0 5.6-2.5 5.6-5.6v-216.3c0-3.1-2.5-5.6-5.6-5.6-3.1 0-5.6 2.5-5.6 5.6v216.3c.1 3.1 2.6 5.6 5.6 5.6z"/><path class="st3" d="M1212.3 1913.8h472c3.1 0 5.6-2.5 5.6-5.6 0-3.1-2.5-5.6-5.6-5.6h-472c-3.1 0-5.6 2.5-5.6 5.6 0 3.1 2.5 5.6 5.6 5.6z"/><linearGradient id="SVGID_35_" gradientUnits="userSpaceOnUse" x1="1264.812" y1="1795.54" x2="1631.677" y2="1795.54"><stop offset=".189" style="stop-color:#ffd234"/><stop offset=".986" style="stop-color:#ffb000"/></linearGradient><path d="M1626.1 1887.6c.9 0 1.8-.2 2.6-.6 2.7-1.4 3.8-4.8 2.3-7.5l-28.3-53.6c-.9-1.7-2.6-2.8-4.5-3-1.9-.1-3.8.7-4.9 2.2l-29.2 39-49.7-70.1c-1-1.4-2.7-2.3-4.5-2.4h-.1c-1.7 0-3.4.8-4.4 2.2l-51.1 67.6-50.8-99c-.9-1.8-2.8-3-4.9-3-2.1-.2-4 1.1-5 2.9l-59.2 106.4-58.8-161.6c-1.1-2.9-4.3-4.4-7.1-3.3-2.9 1.1-4.4 4.3-3.3 7.1l62.9 173c.7 2.1 2.6 3.5 4.8 3.7 2.2.2 4.3-.9 5.3-2.8l60.1-108 50.1 97.6c.9 1.7 2.6 2.8 4.5 3 1.9.2 3.8-.7 4.9-2.2l51.9-68.6 49.7 70.1c1 1.5 2.7 2.3 4.5 2.3 1.7.1 3.5-.8 4.5-2.2l28.5-38.1 24.2 45.8c1.1 2.1 3 3.1 5 3.1z" style="fill:url(#SVGID_35_)"/><linearGradient id="SVGID_36_" gradientUnits="userSpaceOnUse" x1="1251.073" y1="1724.383" x2="1311.435" y2="1724.383"><stop offset=".189" style="stop-color:#ffd234"/><stop offset=".986" style="stop-color:#ffb000"/></linearGradient><path d="M1256.7 1749.4c2.3 0 4.4-1.4 5.3-3.7l11.4-32.3 29.6 18.8c2.6 1.7 6 .9 7.7-1.7 1.6-2.6.9-6-1.7-7.7l-35.5-22.5c-1.4-.9-3.2-1.1-4.8-.6-1.6.6-2.9 1.8-3.4 3.4l-13.7 38.9c-1 2.9.5 6.1 3.4 7.1.4.2 1 .3 1.7.3z" style="fill:url(#SVGID_36_)"/><path class="st3" d="M1498.2 1743.4h-42.4c-3.1 0-5.6-2.5-5.6-5.6 0-3.1 2.5-5.6 5.6-5.6h42.4c3.1 0 5.6 2.5 5.6 5.6 0 3.1-2.5 5.6-5.6 5.6zM1487 1779.7h42.4c3.1 0 5.6-2.5 5.6-5.6 0-3.1-2.5-5.6-5.6-5.6H1487c-3.1 0-5.6 2.5-5.6 5.6 0 3.1 2.5 5.6 5.6 5.6zM1582.1 1813.2h42.4c3.1 0 5.6-2.5 5.6-5.6 0-3.1-2.5-5.6-5.6-5.6h-42.4c-3.1 0-5.6 2.5-5.6 5.6 0 3.1 2.5 5.6 5.6 5.6zM1203.5 1787.1h42.4c3.1 0 5.6-2.5 5.6-5.6 0-3.1-2.5-5.6-5.6-5.6h-42.4c-3.1 0-5.6 2.5-5.6 5.6 0 3.1 2.5 5.6 5.6 5.6zM1203.5 1813.2h42.4c3.1 0 5.6-2.5 5.6-5.6 0-3.1-2.5-5.6-5.6-5.6h-42.4c-3.1 0-5.6 2.5-5.6 5.6 0 3.1 2.5 5.6 5.6 5.6zM1203.5 1839.3h42.4c3.1 0 5.6-2.5 5.6-5.6 0-3.1-2.5-5.6-5.6-5.6h-42.4c-3.1 0-5.6 2.5-5.6 5.6 0 3.1 2.5 5.6 5.6 5.6zM1203.5 1865.4h42.4c3.1 0 5.6-2.5 5.6-5.6 0-3.1-2.5-5.6-5.6-5.6h-42.4c-3.1 0-5.6 2.5-5.6 5.6 0 3.1 2.5 5.6 5.6 5.6z"/><path class="st42" d="M1326.9 1947.2s-.9 19.7-25.8 15.7c-13.1-2.1-23.3-14.1-23.3-14.1s-119.4 16.2-149.9 3c-13.7-6-40.5-60.7-40.5-60.7l-.6-38.1s50.1 67 54.2 77.6c4 10.6 131.4-3.6 154.2-.8 10.7 1.3 19.4-5 21.4-.2 2.8 6.4-20.8 8.3-20.8 8.3s19.1 2.5 31.1 9.3z"/><path class="st44" d="m1261.7 1929.4-115.6-.9-76.2-110.2s-9.3 5.3-15.8 23.2c-11.7 31.9 50.9 111.9 63.8 119.8 12.9 8 62.9 2.1 97.7-2 22.7-2.7 46.8-7.6 46.8-7.6l-.7-22.3z"/><path class="st2" d="m1272.4 1929-10.7.4.6 22.2 11.7-2.1z"/><linearGradient id="SVGID_37_" gradientUnits="userSpaceOnUse" x1="1329.211" y1="1410.315" x2="1404.345" y2="1410.315" gradientTransform="rotate(-18.666 2097 1621.053)"><stop offset=".189" style="stop-color:#ffd234"/><stop offset=".986" style="stop-color:#ffb000"/></linearGradient><path d="M1307.9 1674.5c-.7 0-1.4-.2-2.1-.5-2.2-1.2-3.1-3.9-1.9-6.2l6.5-12.3c1.2-2.2 3.9-3.1 6.1-2l8.8 4.4 4.9-9.8c.5-1.1 1.5-1.9 2.6-2.3 1.1-.4 2.4-.3 3.5.2l10.5 5.2 5.2-10.5c1.1-2.3 3.9-3.2 6.1-2.1l14.9 7.4c2.3 1.1 3.2 3.9 2.1 6.1-1.1 2.3-3.9 3.2-6.1 2.1l-10.8-5.3-5.2 10.5c-1.1 2.3-3.9 3.2-6.1 2.1l-10.5-5.2-4.9 9.8c-1.1 2.3-3.9 3.2-6.1 2.1l-8.9-4.4-4.4 8.3c-.9 1.5-2.5 2.4-4.2 2.4z" style="fill:url(#SVGID_37_)"/><linearGradient id="SVGID_38_" gradientUnits="userSpaceOnUse" x1="2629.818" y1="1849.618" x2="2704.95" y2="1849.618" gradientTransform="scale(-1 1) rotate(-18.663 167.74 13362.218)"><stop offset=".189" style="stop-color:#ffd234"/><stop offset=".986" style="stop-color:#ffb000"/></linearGradient><path d="M1177.9 1674.5c-1.6 0-3.2-.9-4.1-2.4l-4.4-8.3-8.9 4.4c-2.3 1.1-5 .2-6.1-2.1l-4.9-9.8-10.5 5.2c-2.3 1.1-5 .2-6.1-2.1l-5.2-10.5-10.8 5.3c-2.3 1.1-5 .2-6.1-2.1-1.1-2.3-.2-5 2.1-6.1l14.9-7.4c2.3-1.1 5-.2 6.1 2.1l5.2 10.5 10.5-5.2c1.1-.5 2.3-.6 3.5-.2 1.1.4 2.1 1.2 2.6 2.3l4.9 9.8 8.8-4.4c2.2-1.1 4.9-.2 6.1 2l6.5 12.3c1.2 2.2.3 5-1.9 6.2-.7.3-1.4.5-2.2.5z" style="fill:url(#SVGID_38_)"/><linearGradient id="SVGID_39_" gradientUnits="userSpaceOnUse" x1="1974.288" y1="2237.791" x2="2049.42" y2="2237.791" gradientTransform="scale(-1 1) rotate(-78.241 -20.156 3924.186)"><stop offset=".189" style="stop-color:#ffd234"/><stop offset=".986" style="stop-color:#ffb000"/></linearGradient><path d="M1259.3 1628.9c-.8 0-1.7-.2-2.4-.7-2.1-1.3-2.8-4.2-1.5-6.3l5-8-8.3-5.4c-2.1-1.4-2.7-4.2-1.3-6.3l6-9.2-9.8-6.4c-2.1-1.4-2.7-4.2-1.3-6.3l6.4-9.8-10-6.6c-2.1-1.4-2.7-4.2-1.3-6.3 1.4-2.1 4.2-2.7 6.3-1.3l13.9 9.1c2.1 1.4 2.7 4.2 1.3 6.3l-6.4 9.8 9.8 6.4c2.1 1.4 2.7 4.2 1.3 6.3l-6 9.2 8.2 5.4c2.1 1.4 2.7 4.1 1.4 6.2l-7.3 11.8c-1 1.3-2.5 2.1-4 2.1z" style="fill:url(#SVGID_39_)"/><linearGradient id="SVGID_40_" gradientUnits="userSpaceOnUse" x1="1294.362" y1="1608.828" x2="1341.528" y2="1608.828"><stop offset=".189" style="stop-color:#ffd234"/><stop offset=".986" style="stop-color:#ffb000"/></linearGradient><path d="M1298.9 1632.4c-1.2 0-2.3-.4-3.2-1.3-1.8-1.8-1.8-4.7 0-6.5l38-38c1.8-1.8 4.7-1.8 6.5 0 1.8 1.8 1.8 4.7 0 6.5l-38 38c-.9.9-2.1 1.3-3.3 1.3z" style="fill:url(#SVGID_40_)"/><linearGradient id="SVGID_41_" gradientUnits="userSpaceOnUse" x1="1173.491" y1="1609.624" x2="1214.937" y2="1609.624"><stop offset=".189" style="stop-color:#ffd234"/><stop offset=".986" style="stop-color:#ffb000"/></linearGradient><path d="M1210.4 1630.3c-1.2 0-2.3-.4-3.2-1.3l-32.3-32.3c-1.8-1.8-1.8-4.7 0-6.5 1.8-1.8 4.7-1.8 6.5 0l32.3 32.3c1.8 1.8 1.8 4.7 0 6.5-1 .9-2.2 1.3-3.3 1.3z" style="fill:url(#SVGID_41_)"/><path class="st42" d="M3601.7 3052.1s-76.3-11.7-114.7-26.7c-16.9-6.6-45.2-73.5-55.1-87.5-5.8-8.2-51.6-18.9-54.2-17.8-5.1 2.2 20.7 13 20.7 13-2.3 1.4-11.2.3-12.1 7.4-.6 4.4 20.5-6.6 34.4 8.6 13.9 15.3 18.6 71.9 52.3 99.4 44.6 36.4 145.6 41.3 145.6 41.3l-16.9-37.7z"/><path class="st26" d="m3697.1 3277.9-17 181.3 113.1 128.1 30.8 12.4s-67.4-100.6-86.6-157.6c-19.2-57 75.3-145.1 66.7-169.8-8.6-24.9-111.8-52.8-107 5.6z"/><path class="st42" d="m3807.6 3601.6 16.5-2-10-15.3-20.9 3z"/><path class="st43" d="m3762.1 3620.7 62.2-2.5-.9-19.1s-22.1-4.9-35.5 1.6c-13.5 6.6-25 9.4-25.8 20zM3916.7 3619.1l62.2-2.5-.9-19.1s-22.1-4.9-35.5 1.6c-13.5 6.6-24.9 9.4-25.8 20z"/><path class="st42" d="M3535.9 2987.3s8.3 42.8 17.1 47.8c8.1 4.6 22.6-9.6 25.4-4.8 2.7 4.8 10.3 35.8 10.3 35.8s9.7-21 20.6-22.6c4.9-.7 9.5-.9 9.5-.9s-42.7-75.2-67-68.8c-24.4 6.5-15.9 13.5-15.9 13.5z"/><path class="st44" d="M3947.8 3588.4S3840 3454 3827.2 3431c-7.6-13.6-87.9-166.2-87.9-166.2h91.7s28.1 62.1 48.5 148.1c1.1 4.7 78.9 154.8 78.9 154.8l-10.6 20.7z"/><path class="st42" d="m3978 3597.4-20.7-.7-7.8-12.7 8.9-16.3z"/><path class="st2" d="M3622.3 3039.2s50.5-11.3 144.8 102.4c43.2 52.2 63.8 123.2 63.8 123.2l-136.4 9.9c-16-77.7-122.5-189.4-112.5-216.9 4.2-11.6 30.4-21.5 40.3-18.6z"/><path class="st42" d="m3602.4 3090.8 57.7 49.4 83.9 65.2s-3.9 12.4 5.4 23.6c9.3 11.1 30.8 12.8 33.2 10 2.4-2.8-2.2-7.7-2.2-7.7s-20.7-11.5-23.6-28.9c-1-6.3-50.6-49.1-68.1-70.9-14.7-18.4-47.5-60.7-71.1-71.9-6.6-3.1-14.5-1.7-19.7 3.5-8.2 8.4-6 22.4 4.5 27.7z"/><path class="st45" d="M3591.8 3002.5s-11.4.9-13.5-3.4c-2.1-4.3-5-17.4-10.2-16.6-5.2.8-3.6 4.5-6.6 5.4-3.1.9-26.9 16.5-48.9 6.5s-10.3-34.8 4.4-36.8c14.7-2 12.2 13.4 12.2 13.4s16.9-8.1 37.1-8.5c20.3-.5 25.5 40 25.5 40z"/><path class="st26" d="M4067.8 3626.5c-3.2.8-6.7-.3-8.6-2.9l-659.6-917.5c-2.4-3.4-1.3-8 2.4-10.4 3.8-2.4 8.8-1.6 11.2 1.8l659.6 917.5c2.4 3.4 1.3 8-2.4 10.4-.8.5-1.6.9-2.6 1.1zM4175.6 3600.1c-3.2.8-6.7-.3-8.6-2.9l-659.6-917.5c-2.4-3.4-1.3-8 2.4-10.4 3.8-2.4 8.8-1.6 11.2 1.8l659.6 917.5c2.4 3.4 1.3 8-2.4 10.4-.8.5-1.7.9-2.6 1.1z"/><path class="st26" d="m3574.3 2763.6-107.4 26.3c-4.4 1.1-8.7-1.3-9.7-5.3s1.8-8.1 6.1-9.1l107.4-26.3c4.4-1.1 8.7 1.3 9.7 5.3 1 3.9-1.8 8-6.1 9.1zM3645.9 2864.4l-107.4 26.3c-4.4 1.1-8.7-1.3-9.7-5.3s1.8-8.1 6.1-9.1l107.4-26.3c4.4-1.1 8.7 1.3 9.7 5.3s-1.7 8-6.1 9.1zM3717.6 2965.1l-103.6 25.4c-4.4 1.1-8.7-1.3-9.7-5.3s1.8-8.1 6.1-9.1l103.6-25.4c4.4-1.1 8.7 1.3 9.7 5.3s-1.7 8.1-6.1 9.1zM3789.2 3065.9l-101.8 24.9c-4.4 1.1-8.7-1.3-9.7-5.3s1.8-8.1 6.1-9.1l101.8-24.9c4.4-1.1 8.7 1.3 9.7 5.3 1.1 3.9-1.7 8-6.1 9.1zM3860.9 3166.7l-105.1 25.7c-4.4 1.1-8.7-1.3-9.7-5.3s1.8-8.1 6.1-9.1l105.1-25.7c4.4-1.1 8.7 1.3 9.7 5.3 1 3.9-1.7 8-6.1 9.1zM3932.6 3267.4l-104.4 25.6c-4.4 1.1-8.7-1.3-9.7-5.3s1.8-8.1 6.1-9.1L3929 3253c4.4-1.1 8.7 1.3 9.7 5.3s-1.8 8.1-6.1 9.1zM4004.2 3368.2l-103.8 25.4c-4.4 1.1-8.7-1.3-9.7-5.3s1.8-8.1 6.1-9.1l103.8-25.4c4.4-1.1 8.7 1.3 9.7 5.3 1 3.9-1.7 8-6.1 9.1zM4077.4 3468.6l-102.1 25c-4.4 1.1-8.7-1.3-9.7-5.3s1.8-8.1 6.1-9.1l102.1-25c4.4-1.1 8.7 1.3 9.7 5.3 1 3.9-1.8 8-6.1 9.1z"/><path class="st42" d="M3682.9 2624s-58.9 56.8-68.1 67.6c-9.2 10.8-66.2 64.6-66.2 64.6l-33.3 7.1s-4.6 1.7 0-7.2c4.6-8.8 29.1-10.7 29.1-10.7s46.2-61.1 50.9-67.6c16.4-22.3 64.3-83.8 64.3-83.8 8.8-.4 23.3 30 23.3 30zM3660.2 2751.3s12.1 255.8 38.4 277.9c17.6 14.7 95.8 107.4 95.8 107.4s-1 30.2-12.9 34.8c-7.6 2.9 12.9 1.6 12.9 1.6s20.3-36 10.7-43.4c-9.6-7.3-61.4-107.5-68.9-121.6-6.7-12.6-3.1-267.2-3.1-267.2l-72.9 10.5z"/><path class="st42" d="M3652 2728.5s86.2 220.9 156.6 289c11.6 11.3 160.6 105.5 160.6 105.5l15.9 19.4s15.3-9.1-8.9-38.8c-11.4-14-16-5.3-16-5.3l-124.5-107.8s-78.6-235.9-89.3-244.9c-51.3-43.2-94.4-17.1-94.4-17.1z"/><linearGradient id="SVGID_42_" gradientUnits="userSpaceOnUse" x1="3619.227" y1="2759.719" x2="3815.28" y2="2759.719"><stop offset=".189" style="stop-color:#ffd234"/><stop offset=".986" style="stop-color:#ffb000"/></linearGradient><path d="M3746 2738.8c-7.3-7.3-13.3-11.6-18.1-14.2l-36.7-26.9s-6.5-17.6-6.8-41.2c-.1-6.6.4-17 1.3-27.4 1.7-17.7 8.4-48.3-21.1-53.4-6.9-1.2-12.7-.8-15.2 4.7-15.3 34-24.9 50.1-30.2 61.7 2.8 10 14.7 15.9 14.7 15.9 6.7 20.2 21.6 80.5 23.1 90.2l17.2 186.1s36.3 10.4 58.5 10.3c22.1-.1 35.8-4.4 35.8-4.4l16.7-2 30.1-8.1c0-.1-49.6-171.6-69.3-191.3z" style="fill:url(#SVGID_42_)"/><path class="st66" d="m4004.1 3127.4-24.4-23.6-.8-8.7 27 30.4z"/><path class="st66" d="M3962 3096.4s6.9-5.6 12.7-4.3c4.5 1 9 10.3 9 10.3s-5.3 6.2 2.7 15.2c7.3 8.2 10.6 13.3 10.9 17.8.3 4.5-16.5 17.6-16.5 17.6s-1.8-.4-1-4.9 2.4-9.2 2.4-9.2 3.8 2.6 4.6-4.3c.9-6.8-24.8-38.2-24.8-38.2zM3810.2 3178.4l.8-33.9 5.9-6.5-4.1 40.4z"/><path class="st66" d="M3805.7 3130.5s8.8 1.3 11.8 6.4c2.3 3.9-1.5 13.6-1.5 13.6s-8.8 1-10.7 8.2c-2.8 10.6-4.1 15-7.2 18.3-3.1 3.3-24.2-.2-24.2-.2s-.9-1.6 2.9-4c3.9-2.4 8.4-4.4 8.4-4.4s.7 4.6 6.3.5c5.7-4.1 14.2-38.4 14.2-38.4z"/><path class="st49" d="m3867.3 2775.4-51.2 31.8-13.2-21.3c-8.2-13.2-4.1-30.6 9-38.8l3.4-2.1c13.2-8.2 30.6-4.1 38.8 9l13.2 21.4zm-48.5 20.3 37-23-8.8-14.2c-5.8-9.3-18-12.1-27.2-6.3l-3.4 2.1c-9.3 5.8-12.1 18-6.3 27.2l8.7 14.2z"/><path class="st50" d="m3872.3 2749.8-85.2 53 31.3 80.3 109.3-68z"/><path class="st49" d="m3800.3 2835.8-1.7-2.7 34.2-21.3 6.7 10.7 26.6-16.6-6.6-10.7 33.8-21 1.6 2.7-31 19.3 6.6 10.7-32.1 20-6.6-10.7z"/><path class="st51" d="M3848.8 2797.4c1.4 2.2.7 5.1-1.5 6.4-2.2 1.4-5.1.7-6.4-1.5-1.4-2.2-.7-5.1 1.5-6.4 2.2-1.4 5-.7 6.4 1.5z"/><path transform="rotate(-31.897 3848.008 2805.295)" class="st51" d="M3845.9 2797.3h4.2v16.1h-4.2z"/><path class="st49" d="m3927.7 2815.1 7-12.5-58.2-55.4-5.2 3.2z"/><path class="st42" d="M3666.5 2604.2c23.6 19.7 92.3 72.7 92.3 72.7l45.4 65.1s-6.1 18 0 21.9c13.3 8.6 21.2-14 21.2-14-5.6 0-9 4.5-11.6 1.5-.8-.9 1.6-12 1.6-12l-37.3-77.9s-96.2-87.6-106.4-81.5c-3.9 2.3-6.5 5.5-8.2 8.6-2.9 5.2-1.5 11.7 3 15.6z"/><path class="st42" d="M3684.6 2476s-25.1 20.9-28.6 46.2c-1 7.4 17.5 16.2 17.5 16.2-1.1 18.4-21.6 37.8-21.6 37.8s9.3-4.6 18.3 5.1c5.2 5.6 12.4 4.2 12 2-4.8-24.1 32-73.7 22.1-90.4-9.8-16.7-19.7-16.9-19.7-16.9z"/><path class="st45" d="M3686.7 2485.1c-1-.9-15.1-19.1 0-22.3 10.4-2.2 26.5 1.3 49.7 39.4 13.9 22.8 7.3 39.9 5.4 65.1-1.1 15.5 1.8 63.8 1.8 63.8l-69.1-52.3s23.1-56.9 23.1-61.9-6.8-2.7-6.8-2.7 5.5-20.1-4.1-29.1z"/><path class="st42" d="M2727.9 1723.8s19.6.4 18.3-21.1c-.7-11.3-11.5-20.7-11.5-20.7s7.3-11.3-2.5-38c-4.4-12.1-12.4-1.9-11.2 7.6 1.6 12.2-7.3 24.5-7 44.2.2 9.2-7 16.2-2.5 18.3 6.1 2.8 10.5-17.3 10.5-17.3s.5 16.3 5.9 27z"/><path class="st26" d="m2717.3 1667.1-26.5-79.3-56.1-105.6 25.4-29.9s56.1 95.6 62.6 107c6.5 11.5 15.5 41.8 16.6 71.7.6 17 0 37.9 0 37.9l-22-1.8z"/><path class="st2" d="m2715.7 1676.2 1.6-9.1 22 1.8-3.4 9.8z"/><path class="st26" d="m2576.6 2060.5-2.1-176.2-4.4-213s-9.7-88.5-55.9-16.9 20.5 238.9 19.6 247.5c-1.5 13.2 15.2 165.3 15.2 165.3l27.6-6.7z"/><path class="st43" d="m2400.3 2087.4 19.3.6 14.7 11.5s19.5 6.2 24.4 11.1c4.9 4.9-61.5-6.8-61.5-6.8l3.1-16.4z"/><path class="st44" d="m2427.5 2082.3 36.6-172.3 68.9-180.5s7.9-112.1-67-71.3c-6.9 3.7-42.7 251.9-45.5 260-4.3 12.6-21.5 164.7-21.5 164.7l28.5-.6z"/><path class="st42" d="m2420.6 2082.5-20.2.3-.2 6.7 19.4-1.5z"/><path class="st43" d="m2551.2 2071.4 19-3.7 16.9 8s20.8 7.9 26.7 11.7c5.9 3.7-61.9.7-61.9.7l-.7-16.7z"/><path class="st42" d="m2569.9 2062.1-19.6 4.8 1.3 6.6 18.5-5.8zM2701.9 1371.8s5.4 33.4-8.7 52.7c-6.4 8.8-24.6-.3-24.6-.3-17.7 19.8-21.8 54.8-21.8 54.8s-8.3-6.8-27.2-5.8c-10.9.6-10.4-26.2-7.7-28 29.4-19.8 29.8-76.1 56.7-83.3 27-7.3 33.3 9.9 33.3 9.9z"/><path class="st45" d="M2689.6 1372.5s1 6.7 13.2 9.8c12.3 3.1 26.5-9.9 22.2-26.9-1.2-4.6-9.2-18.8-29.7-8.1 0 0-4.5-11.8-14.5-10.3-14.4 2-17.9 17.8-17.9 17.8s-12.8-9.1-23.5 5.2c-4.2 5.6-4.6 12.9-3.5 17.4 0 0-7.2-1.5-12.7 4.3-4.8 5.1-1.9 16.9 5 19.3 0 0-.8 4.7-.9 7.3-.4 8.1 4.4 9.8 4.4 9.8s12.7 1.7 15.9-1.6c3.2-3.3-.9-17.9 3.3-21.4 4.3-3.5 8.2 2.5 9.6 5.5.6 1.2 8.3-1 11-9.3.8-2.5-.6-7.3-.6-7.3 1.7-1.9 8.9.6 11.5-.6 8.5-3.9 7.2-10.9 7.2-10.9z"/><path class="st2" d="m2487.1 1632.5-.1 5.1s3.1 33.4 15.6 47.8c40.7 46.7 74.1 11.5 74.1 11.5s84.7-188.9 88.5-209.3c6.4-34.5-26.8-49.7-40.8-53.2-13.8-3.5-27.7-1.9-39.1 1.1-14.4 3.7-24.2 17.2-23.3 32 2.4 39.9-9.2 147.2-74.9 165z"/><path class="st26" d="m2624.3 1434.4-21.4 131.2 50.4-118s5.2 3.3 11.3 10.2c4.3 4.9 9 11.5 12.5 20.1 8.5 20.6-39 98.4-57.9 145.6-18.9 47.3-36.2 93-36.2 93l-40.8 11.9 12.6-39.4-38.9 26.4-62-58.6s40-56.6 60.8-94.6c20.8-38 44.6-104.9 51-114.6 6.3-9.8 29.6-26.4 58.6-13.2z"/><linearGradient id="SVGID_43_" gradientUnits="userSpaceOnUse" x1="1776.931" y1="1497.914" x2="1853.08" y2="1497.914" gradientTransform="rotate(51.75 2215.076 2332.244)"><stop offset=".189" style="stop-color:#ffd234"/><stop offset=".986" style="stop-color:#ffb000"/></linearGradient><path style="fill:url(#SVGID_43_)" d="m2639.4 1439.8.4 13.7-25.8 43.5-11.1 68.6 29.6-57.7 11.4-52.7 6.4-7.6z"/><path class="st42" d="M2718.5 1714.2s-14 13.9-29.6-5.9c-8.2-10.4-7.5-26.2-7.5-26.2s-53.4-38.4-66.8-68.7c-6.1-13.7 28.2-17.2 24-6.7-4.2 10.5 53.7 55.7 68.5 73.3 7 8.2 17.6 9.5 15.9 14.3-2.3 6.6-21-8-21-8s12.2 14.8 16.5 27.9z"/><path class="st44" d="m2682.7 1656.9-54.7-100.8-17.7-119.3s-10.4-2.4-27.3 6.3c-30.2 15.5-9.4 110.2-5.3 124.8 4.1 14.6 22.4 59.2 50.8 79.7 18.5 13.4 39.5 26.1 39.5 26.1l14.7-16.8z"/><path class="st2" d="m2690.8 1663.9-8.1-7-14.7 16.8 10.1 6.3z"/></g></svg>