<svg version="1.1" id="Layer_1" xmlns="http://www.w3.org/2000/svg" x="0" y="0" viewBox="0 0 500 351" style="enable-background:new 0 0 500 351" xml:space="preserve"><style>.st0{fill:#19af2b}.st2{fill:#41d659}.st3{fill:#fff}.st5{fill:#169922}.st6{fill:none;stroke:#e4ecf4;stroke-width:2;stroke-miterlimit:10}.st7{fill:#e4ecf4}.st10{fill:#e8a734}.st16{fill:#240028}.st17{fill:#d97044}.st19{fill:#993b11}.st20{fill:#f99981}.st21{fill:#88220a}.st22{fill:#512b54}.st25{fill:#00459a}.st26{fill:#5f07dd}.st34{fill:#cadde5}</style><path class="st0" d="M475.1 231.7c-5.8 5.5-12.5 7.8-14.9 5.2s.3-9.1 6.1-14.6 14.9-5.2 14.9-5.2-.3 9.2-6.1 14.6zM439 229.1c5.1 6.1 7 12.9 4.2 15.2s-9.1-.8-14.2-6.9c-5.1-6.1-4.2-15.2-4.2-15.2s9.1.8 14.2 6.9z"/><path d="M466.8 189.5s-17.6 61.9-22 90.8" style="fill:none;stroke:#19af2b;stroke-width:2;stroke-linejoin:round;stroke-miterlimit:10"/><path class="st0" d="m476.5 182.9 14.2-3.9c1.5-2.5 2.8-5.3 3.8-8.3.8-2.5 1.5-4.9 1.9-7.3l-12.2 1.7 12.7-5.6c.3-3.7.1-7.3-.6-10.6l-11.1 1.8 9.6-6.6c-2-4.9-5.3-8.6-9.8-10.1l-20.6 59.9c7.7 2.7 16.7-1.8 23.3-10.5l-11.2-.5z"/><path class="st2" d="m475.3 134.1 1.1 13.6-6.7-10.9c-4.1 2.7-8 7-11 12.2l9.7 18.1-12.8-11.6c-.2.5-.4 1.1-.6 1.6-1.4 4-2.1 7.9-2.4 11.7 3.6 5 10.2 14.1 9.6 13.4-.4-.5-5-3.4-9.5-6.1 1 8.7 5.1 15.5 11.7 17.8L485 134c-3-1.1-6.4-1-9.7.1z"/><path class="st3" d="M483.3 139.1c-1.3 4.4-2.7 8.7-4.1 13-1.4 4.3-2.9 8.6-4.3 13l-4.5 12.9-2.3 6.4c-.8 2.1-1.6 4.3-2.4 6.4.6-2.2 1.3-4.4 2-6.5l2.1-6.5c1.4-4.3 2.9-8.6 4.3-13l4.5-12.9c1.5-4.2 3.1-8.5 4.7-12.8z"/><path class="st3" d="M468.6 147.2c.6 1.4 1.2 2.7 1.8 4.1l1.7 4.1c1.1 2.8 2.1 5.5 3.2 8.3l-.6-.2c2.4-1.2 4.8-2.5 7.2-3.7 2.4-1.2 4.8-2.4 7.3-3.4-2.3 1.4-4.6 2.7-7 4.1-2.3 1.3-4.7 2.6-7.1 3.9l-.5.2-.2-.5-3-8.4-1.4-4.2c-.5-1.5-1-2.9-1.4-4.3zM461 166.6c1.5 2.2 2.9 4.4 4.4 6.7 1.4 2.2 2.8 4.5 4.2 6.8l-.6-.2c3-1.3 6-2.6 9-3.8 3-1.2 6.1-2.4 9.1-3.5-2.9 1.5-5.9 2.9-8.8 4.2-3 1.4-5.9 2.7-9 4l-.4.2-.2-.3c-1.4-2.3-2.7-4.6-4-6.9-1.2-2.5-2.5-4.8-3.7-7.2z"/><path d="M443.9 206.6s10.2 12.2 12 22.9" style="fill:none;stroke:#19af2b;stroke-width:2;stroke-linecap:round;stroke-linejoin:round;stroke-miterlimit:10"/><path class="st0" d="m447.2 199.9 4.6-11.7c-1-2.3-2.2-4.6-3.8-6.9-1.3-1.8-2.6-3.5-4.1-5l-5.1 9.2 2.7-11.5c-2.4-2.1-5-3.8-7.5-5l-4.4 8.5.4-10c-4.4-1.2-8.6-.7-12 1.5l30.5 44.8c5.8-3.9 7.3-12.4 4.7-21.4l-6 7.5z"/><path class="st2" d="m413.1 175.8 9.9 6.2-10.9-1c-.2 4.2.7 9 2.7 13.8l17.4 2.6-14.5 2.9c.3.4.5.8.8 1.2 2 3 4.3 5.5 6.8 7.6 5.3.1 14.9.2 14.1.3-.6 0-4.9 1.7-9 3.4 6.5 3.7 13.3 4.4 18.2 1.1L418 169c-2.3 1.6-3.9 4-4.9 6.8z"/><path class="st3" d="M420.7 172.9c2.3 3.1 4.6 6.3 6.8 9.5 2.3 3.2 4.4 6.4 6.7 9.6 2.2 3.2 4.4 6.5 6.5 9.7l3.2 4.9c1 1.6 2.1 3.3 3.1 4.9-1.2-1.6-2.3-3.1-3.5-4.7l-3.4-4.8c-2.2-3.2-4.4-6.4-6.7-9.6-2.2-3.2-4.4-6.5-6.5-9.7-2-3.2-4.2-6.5-6.2-9.8z"/><path class="st3" d="M418.7 187.1c1.2.3 2.5.6 3.7.9l3.7 1c2.5.7 4.9 1.4 7.3 2.1l-.5.3c.4-2.3.7-4.5 1.2-6.8.4-2.3.9-4.5 1.4-6.8-.2 2.3-.5 4.6-.8 6.9-.3 2.3-.6 4.6-1 6.8l-.1.4-.4-.1c-2.4-.7-4.9-1.5-7.3-2.2l-3.6-1.2c-1.2-.5-2.4-.9-3.6-1.3zM428.1 202.3c2.3.1 4.5.2 6.8.4s4.5.4 6.8.6l-.4.3c.6-2.7 1.3-5.4 2-8.1.7-2.7 1.4-5.4 2.2-8.1-.5 2.8-1 5.5-1.6 8.2-.6 2.7-1.2 5.4-1.9 8.2l-.1.3h-.3c-2.3-.2-4.5-.5-6.8-.8-2.2-.3-4.4-.7-6.7-1z"/><path class="st5" d="M472.5 224.9c-4.3 4.7-8.4 9.3-12.2 14.2-1.9 2.4-3.7 5-5.5 7.5-1.8 2.6-3.3 5.3-5 8 .9-3 2.1-6 3.6-8.8l1.2-2.1c.4-.7.8-1.4 1.3-2 .9-1.3 1.8-2.6 2.8-3.9 2-2.5 4.1-4.9 6.4-7.1 2.3-2 4.7-4.1 7.4-5.8zM429.2 227.8c2.9 1.7 5.5 3.8 7.9 6.2 2.4 2.4 4.4 5.1 6.2 8 .4.7.9 1.5 1.2 2.2l1.1 2.3c.4.8.6 1.6.9 2.4l.4 1.2.3 1.2.6 2.5.3 2.5c0 .4.1.8.1 1.3v3.8c-.2-.8-.4-1.6-.5-2.4l-.2-1.2-.3-1.2-.6-2.4-.8-2.3c-1.2-3-2.5-6-4.3-8.8-1.7-2.8-3.6-5.4-5.7-8-1.9-2.5-4.2-4.9-6.6-7.3z"/><path class="st6" d="M375.7 74.6H446v79.7h-70.3z"/><path class="st7" d="M379.8 79.3h62.1v70.4h-62.1z"/><path class="st6" d="M307.6 29.7h49.9v65h-49.9z"/><path class="st7" d="M310.5 33.5h44.1v57.4h-44.1zM241.7 34.7V15.4c0-.9-.7-1.6-1.6-1.6-.9 0-1.6.7-1.6 1.6v19.3c-16.2.8-29.1 14.3-29.1 30.7v1h61.4v-1c0-16.4-12.9-29.9-29.1-30.7z"/><path d="M56.6 249.6c16.1.5 32.2 1.1 48.3 1.6l48.3 1.8 96.6 3.9 96.6 4.2 48.3 2.2c16.1.8 32.2 1.5 48.3 2.4-16.1-.5-32.2-1.1-48.3-1.6l-48.3-1.8-96.6-3.9-96.6-4.2-48.3-2.2c-16.1-.8-32.2-1.5-48.3-2.4z" style="fill:#89909b"/><linearGradient id="SVGID_1_" gradientUnits="userSpaceOnUse" x1="121.269" y1="315.556" x2="390.887" y2="308.837"><stop offset="0" style="stop-color:#000"/><stop offset=".086" style="stop-color:#090909"/><stop offset=".228" style="stop-color:#202122"/><stop offset=".406" style="stop-color:#47474a"/><stop offset=".616" style="stop-color:#7d7d81"/><stop offset=".848" style="stop-color:#c0c1c8"/><stop offset="1" style="stop-color:#f0f1fa"/></linearGradient><path style="fill:url(#SVGID_1_)" d="m302.2 314.4 73 22.8 60.6-42.4-83.1-13z"/><path class="st10" d="m362.1 278.3-59.9 36.1 65.2 19 58-40.9z"/><path d="M302.2 304.4s-3.2 5.1 0 10l3.8-2.2v-6.7l-3.8-1.1z" style="fill:#f9a319"/><linearGradient id="SVGID_2_" gradientUnits="userSpaceOnUse" x1="370.698" y1="323.558" x2="429.975" y2="285.721"><stop offset="0" style="stop-color:#dde1ef"/><stop offset="1" style="stop-color:#fff"/></linearGradient><path d="m367.3 331.7 56.9-39.4s-1.9-4.5 0-8.8l-56.8 39.9s-5.2 4.6-.1 8.3z" style="fill:url(#SVGID_2_)"/><path class="st10" d="m425.4 282.6-58 40.8-65.2-19 11.5-6.9 46.2-27.8c1.5-.9 3.2-1.2 4.9-.8l57.1 12.8 3.5.9z"/><linearGradient id="SVGID_3_" gradientUnits="userSpaceOnUse" x1="304.027" y1="305.64" x2="363.612" y2="329.764"><stop offset="0" style="stop-color:#dde1ef"/><stop offset="1" style="stop-color:#fff"/></linearGradient><path d="M303.8 304.9s-3 4.8 0 8.6l63.5 18.3s-2.7-4.2.1-8.3l-63.6-18.6z" style="fill:url(#SVGID_3_)"/><linearGradient id="SVGID_4_" gradientUnits="userSpaceOnUse" x1="404.075" y1="296.921" x2="372.077" y2="277.278"><stop offset="0" style="stop-color:#dde1ef"/><stop offset="1" style="stop-color:#fff"/></linearGradient><path style="fill:url(#SVGID_4_)" d="m369 275.5-7.9 5.3 30.2 8.6 8.7-5.3z"/><path class="st10" d="m425.4 282.6-58 40.8-65.2-19 11.5-6.9 108.1-15.7z"/><linearGradient id="SVGID_5_" gradientUnits="userSpaceOnUse" x1="211.527" y1="252.706" x2="290.591" y2="276.876"><stop offset="0" style="stop-color:#dde1ef"/><stop offset="1" style="stop-color:#fff"/></linearGradient><path style="fill:url(#SVGID_5_)" d="m253.9 277.4 51.2-7-52.2-16.8-46.3 5z"/><path class="st16" d="M267.7 129.6c-2.9 4.6-6 7.3-11.3 9.1-4.6 1.6-12.7 2.4-15.1 7.3-3.2 6.3.5 15 5.6 19.1 7.7 6 19.1 3.5 25.9-2.8 6.3-5.7 8.4-13.8 7.4-21.9-.2-1.2-.5-2.1-.9-3.2-.6-1.4-.9-2.8-1.5-4.1-.8-1.8-2.3-3.7-3.9-4.8-1.1-.8-2.7-1.2-4-.7-1 .3-1.7 1.1-2.2 2z"/><path class="st17" d="M344.4 151.1s-5 20.4-21 33.1c-15.6 12.4-38.6 9.8-51-5.8-6.6-8.3-10.1-18.3-1.4-35.9l31.4-9.5 14.3-3.2 6.4 15.2s10.3 3 21.3 6.1z"/><linearGradient id="SVGID_6_" gradientUnits="userSpaceOnUse" x1="276.226" y1="148.015" x2="331.473" y2="148.015"><stop offset="0" style="stop-color:#993b11"/><stop offset="1" style="stop-color:#d97044"/></linearGradient><path d="M325.3 142.8c-.1 1.6-.2 3.2-.4 4.6-2.4 22.5-39.7 32.5-48.2 5l-.5-2.1c4.1.5 8.7 1.7 11.8-1 5.9-5.3 14.2-13.2 16.5-17.6l13.8-4.9 7 16z" style="fill:url(#SVGID_6_)"/><path class="st17" d="M266.8 96.4s-5.4 36.2 9.9 54.6c0 0 11.7 18 32.8-8.4 0 0 12.3-12.9 11.5-34.4 0 0-.5-29.9-38.6-25.4-7.4.9-13.5 6.1-15.5 13.3 0 .1 0 .2-.1.3z"/><path class="st19" d="M279.7 126.3c-.1 2.3-.4 4.5-.7 6.8-.1 1.1-.3 2.2-.5 3.4-.2 1.1-.4 2.3-.6 3.3-.1.4 0 .8.2 1.2.2.4.5.7.8 1 .4.2.8.4 1.2.4h.7c.3 0 .5-.1.8-.1 1-.2 2-.7 3-1.2s1.9-1.1 3-1.7c-.8.9-1.6 1.6-2.5 2.4-.9.7-1.9 1.4-3.1 1.8-.3.1-.6.2-.9.2l-.4.1h-.5c-.7 0-1.4-.2-2-.6-.6-.4-1.1-.9-1.4-1.6-.3-.6-.4-1.4-.3-2.1.2-1.2.4-2.2.7-3.4.2-1.1.5-2.2.8-3.3.4-2.3 1-4.5 1.7-6.6z"/><path class="st20" d="M299.4 132.9c-.1 1-1.7 1.7-3.7 1.5-2-.1-3.5-1-3.5-2 .1-1 1.7-1.7 3.7-1.5 2 .1 3.5 1 3.5 2zM275.6 130.1c-.2 1-1.9 1.5-3.8 1.2s-3.4-1.4-3.3-2.3c.2-1 1.9-1.5 3.8-1.2 2 .3 3.5 1.3 3.3 2.3z"/><path class="st16" d="M266.6 117.3c1.1-.5 2.2-.7 3.4-.7 1.2 0 2.3.2 3.5.6.6.2 1.1.5 1.6.8.5.4 1 .6 1.4 1.1.9.8 1.5 1.8 2 2.8-.8-.8-1.6-1.6-2.5-2.2-.4-.3-.9-.6-1.4-.9-.5-.2-1-.5-1.5-.6-1-.4-2.1-.6-3.1-.7-1.2-.2-2.3-.2-3.4-.2z"/><path class="st21" d="M275.6 123c.1-1-.6-1.9-1.5-1.9-.9-.1-1.6.7-1.7 1.7-.1 1 .6 1.9 1.5 1.9s1.6-.7 1.7-1.7z"/><path class="st16" d="M287.2 124.2c1.1-1.2 2.5-2.1 4-2.7 1.5-.6 3.2-1 4.8-1 .4 0 .8 0 1.2.1h.6c.2 0 .4.1.6.1.4.1.8.2 1.2.2.4.1.8.2 1.2.4l.6.2.6.3 1.1.5c.7.4 1.4.9 2 1.3-.8-.3-1.5-.6-2.2-.8l-1.1-.4-.6-.2-.6-.1c-.4-.1-.8-.2-1.1-.3l-1.1-.2c-.2 0-.4-.1-.6-.1h-.6c-.4 0-.8-.1-1.2 0h-1.2l-1.1.1c-.8.1-1.5.3-2.3.5-1.4.6-2.8 1.2-4.2 2.1z"/><path class="st21" d="M294 126.5c0-1-.7-1.8-1.6-1.8-.9 0-1.6.8-1.6 1.8s.7 1.8 1.6 1.8c.9 0 1.6-.8 1.6-1.8zM294.3 144.6c-1.3 1.5-3.4 3.2-6.6 4.1-4.9 1.4-10.1-.9-12.1-5.6.3.3 8.4 6.6 18.7 1.5z"/><path class="st16" d="M291.7 63.3c-2.9-.9-6.2 1.1-8.8 2.2-2.9 1.3-5.6 2.9-8.2 4.7-5.3 3.8-10.4 8.6-12.8 14.7-2.4 6-2.7 12.9-.6 19.1.5 1.4 1.3 3 2.8 3.1 2.8.3 4.7-4 5.8-6 1.4-2.6 3.1-4.9 5.8-6.4 4.5-2.5 9.8-3.7 13.3-7.7 4.1-4.6 5.5-11.6 5.6-17.6 0-1.3 0-2.7-.5-3.9-.4-1.2-1.3-1.9-2.4-2.2z"/><path class="st16" d="M261.9 109.1c2.2-.7 4.2-1.8 6.1-3 1.9-1.3 3.6-2.8 5.1-4.4.7-.9 1.5-1.7 2.1-2.6l.5-.7.3-.4.2-.4c.3-.5.6-1 .9-1.4l.9-1.5.9-1.5c.5-1 1-2.1 1.6-3.1-.2 1.1-.5 2.3-.9 3.4l-.6 1.6c-.2.5-.4 1.1-.7 1.6-.5 1.1-1.1 2.1-1.8 3.1-.3.5-.6 1-1 1.4l-1.1 1.4c-.8.8-1.7 1.7-2.6 2.4l-.7.6-.7.5-.7.5c-.3.2-.5.3-.8.4-2.3 1.2-4.6 2-7 2.1zM309.7 103.9c0 3 .2 6 .5 9 .4 2.9.9 5.8 1.9 8.5.1.3.2.7.4 1 .1.3.3.7.4 1l.5 1 .5.9c.7 1.2 1.6 2.3 2.6 3.4l.8.7.8.7.9.6.9.6 1 .5 1 .4.5.2.5.2 1.1.4c-.4 0-.8-.1-1.1-.1l-.6-.1-.6-.1c-.4-.1-.8-.2-1.1-.2l-1.1-.4c-1.5-.6-2.9-1.3-4.1-2.3-1.2-1-2.3-2.2-3.2-3.5-.9-1.3-1.6-2.8-2.1-4.2-1.1-3-1.5-6.1-1.6-9.1 0-3.1.3-6.2 1.2-9.1z"/><path class="st16" d="M282.3 90.1c.9 3.8 2.4 7.5 4.3 10.8 2 3.3 4.5 6.2 7.6 8.4.8.6 1.6 1 2.4 1.5l1.3.6c.4.2.9.4 1.3.6l.7.3c.2.1.4.2.7.2.4.2.9.3 1.3.5.9.2 1.8.5 2.8.7 3.8.8 7.7 1 11.6.9-3.8.9-7.9 1.2-11.9.7-1-.1-2-.3-3-.5-.5-.1-1-.3-1.5-.4-.2-.1-.5-.1-.7-.2l-.7-.3c-1.9-.7-3.7-1.7-5.4-2.9-1.7-1.2-3.2-2.6-4.5-4.2-1.3-1.6-2.4-3.3-3.3-5.1-.9-1.8-1.6-3.7-2.1-5.7-.5-1.9-.9-3.9-.9-5.9zM299.4 62.5c1.9-.4 3.9-.6 5.8-.5 2 0 3.9.3 5.8.7 3.8.9 7.4 2.7 10.5 5.3 1.5 1.3 2.9 2.7 4.1 4.3l.9 1.2.8 1.2.7 1.3c.2.4.5.9.7 1.3 1.8 3.5 3.1 7.3 4 11.1.2 1 .5 1.9.6 2.9l.2 1.5.1.7c0 .2.1.5.1.6.3.8.9 1.6 1.5 2.3.6.7 1.3 1.4 2 2 1.4 1.3 2.9 2.5 4.5 3.6.8.6 1.6 1.1 2.4 1.7l1.2.8 1.2.9c3.1 2.4 5.5 5.8 6.9 9.5 1.3 3.7 1.5 7.8.5 11.6.3-1.9.5-3.9.3-5.8s-.6-3.8-1.3-5.6c-1.4-3.6-3.8-6.7-6.9-9l-1.2-.8-1.2-.8c-.8-.5-1.6-1.1-2.4-1.7-1.6-1.2-3.1-2.3-4.6-3.7l-2.1-2.1c-.6-.8-1.3-1.5-1.7-2.6-.1-.1-.1-.4-.1-.4l-.1-.4-.1-.7-.2-1.4c-.1-1-.4-1.9-.6-2.8-.9-3.8-2.1-7.5-3.8-10.9-1.7-3.5-4.1-6.6-6.9-9.1-5.8-5.2-14-7.4-21.6-6.2z"/><path class="st16" d="M352.5 133.1c-.3 3-1.4 5.7-3.1 8-4 5.6-11.3 8.8-18.4 7.4-5.7-1.1-11.9-5.2-13.7-10.9-.4-1.2-.7-2.4-.9-3.6-.8-3.9.2-7.8 2.6-10.9l.1-.1c4.3-3.2 3-8.1-2.2-9.1-2.1-.4-4.2-.9-6.2-1.4-1.3-.5-2.8-.8-4-1.1-3.8-1.2-6.7-2.2-7.6-2.6-3.2-1.3-6.2-2.8-9-4.6-4.8-3.2-8.9-7.8-10.9-13.3-2.1-5.6-2.4-12.4-.4-18.1 1.1-3.1 2.9-5.6 5-7.4 5.7-4.9 14.4-5.5 22.3-3.8 3.7.8 7.2 2.1 10.2 3.8 4.4 2.4 8.4 6 10.7 10.5 2.7 5 2.7 10.8 3.6 16.3.7 3.8 2.1 8 5.1 10.6 3 2.6 6.2 4.5 8.8 7.6 3.3 3.9 5.9 8.5 7.2 13.5.9 2.9 1.2 6.1.8 9.2z"/><path class="st22" d="M284.2 75.4c-.6 2.3-.5 4.7 0 7 .3 1.1.6 2.2 1.1 3.3.4 1.1 1 2.1 1.6 3.1 1.2 2 2.7 3.8 4.4 5.4 1.7 1.6 3.5 3.1 5.4 4.5.5.4 1 .7 1.4 1 .5.3 1 .7 1.5 1l3 1.8c1 .6 2 1.2 3.1 1.7l1.6.8 1.6.8c4.3 2 8.7 3.7 13.1 5.3-4.6-1.2-9.1-2.7-13.4-4.6-4.4-1.9-8.6-4.1-12.5-6.9-3.8-2.8-7.4-6.1-9.8-10.3-1.2-2.1-2.1-4.3-2.5-6.7-.2-1.2-.3-2.4-.2-3.6 0-1.3.2-2.5.6-3.6zM287.5 69.9c.8 2.2 1.8 4.3 3 6.2l.9 1.5 1 1.4c.6 1 1.3 1.9 2 2.8 2.8 3.7 6 7 9.4 10.1l2.6 2.2c.4.4.9.7 1.4 1.1l1.4 1c1.8 1.5 3.8 2.7 5.7 4 .9.7 2 1.2 2.9 1.8l3 1.8c2 1.1 4.1 2.2 6.1 3.3-1.1-.5-2.1-.9-3.2-1.4-1.1-.5-2.1-.9-3.2-1.4l-3.1-1.6c-1-.6-2.1-1.1-3-1.7-2-1.2-4-2.5-5.8-3.9l-1.4-1c-.5-.4-.9-.7-1.4-1.1l-2.7-2.3c-3.5-3.1-6.7-6.6-9.4-10.4-.7-1-1.4-1.9-1.9-2.9l-.9-1.5-.8-1.5c-1.1-2.1-2-4.3-2.6-6.5zM324.1 127.3c.1 2.5.5 5 1.3 7.4.8 2.3 2 4.5 3.8 6.2.9.8 1.9 1.5 3 2.1.5.3 1.1.5 1.7.7.6.2 1.2.4 1.8.5 2.4.5 4.9.6 7.5.4-2.5.6-5.1.8-7.6.4-2.6-.4-5.1-1.5-7-3.3-.9-.9-1.7-2-2.4-3.1-.6-1.1-1.1-2.4-1.4-3.6-.8-2.6-1-5.2-.7-7.7z"/><path class="st22" d="M326.9 115c.1 1.5.3 3 .6 4.4.2 1.5.6 2.9.9 4.3.8 2.8 1.7 5.6 3.2 8.2.7 1.3 1.6 2.5 2.5 3.5 1 1.1 2.1 2 3.3 2.8 2.4 1.6 5.4 2.4 8.3 2.6-.7 0-1.5.1-2.2 0l-1.1-.1-1.1-.2c-1.5-.3-2.9-.8-4.3-1.6-1.3-.8-2.5-1.7-3.6-2.8-1.1-1.1-1.9-2.4-2.7-3.7-1.5-2.6-2.5-5.6-3.1-8.5-.6-2.9-.9-5.9-.7-8.9z"/><path class="st17" d="M324.1 119.2c0 2.7-1.4 4.8-3 4.8-1.7 0-3-2.2-3-4.8 0-2.7 1.4-4.8 3-4.8s3 2.2 3 4.8z"/><path d="M422.6 251.7c-8.4-22.1-35.3-65.7-47.8-85.4-4.1-6.5-10.6-11.1-18.1-12.8l-13.6-3.1-6.3-1.4c-4.3 26.7-18.6 35.4-29.6 38-13.5 3.2-27.4-3.7-32.5-16.5-5.2-13.1-2.6-28.2-2.6-28.2l-7.5 2.1-12.6 3.5c-6.7 1.9-12.6 5.8-16.8 11.3-11.8 15.3-36.7 48.2-53.1 73.6-4.4 6.9-1.3 16.1 6.4 19 9.6 3.6 24.9 7.8 47.5 10.1 0 0-1-4.7 1-10.4 1-2.7 2.7-5.7 5.5-8.5l-4.8-.8c-6.5-1.2-18.5-3.8-27.2-7.5-1.8-.8-1.9-3.3-.2-4.2 7.1-4 22-14.4 34-37.5 1.4-2.7 5.4-1.9 5.7 1.1v.4c-.4 16.7.4 43.2 7.1 63.2l91.9 5.2c0 4.6-.8 8.8-.8 8.8l1.6-.2 66.3-8.2c5.1-1 8.5-6.5 6.5-11.6zm-32.6-8-33.6 9.8-.4.1 3.3-15.4 5.3-24.9c.4-1.7 2.6-2 3.4-.5 3.8 7.2 8 12.5 12 16.6 4 4.1 7.9 7 11 9.5 1.7 1.4 1.1 4.1-1 4.8z" style="fill:#7703fc"/><path d="M344.4 151.1c-6.3 52.1-52.8 44.3-52.8 44.3-36.7-7.2-27-51.2-27-51.2l7.5-2.1s-2.6 15.1 2.6 28.2c5.1 12.9 19 19.8 32.5 16.5 11-2.6 25.3-11.3 29.6-38l6.3 1.4 1.3.9z" style="fill:#89cbfb"/><path class="st25" d="M361.7 168.6c-1 3.7-1.6 7.5-2.1 11.3-.5 3.8-.7 7.6-.6 11.4 0 1.9.2 3.8.4 5.7.1.9.3 1.9.4 2.8.1.5.2.9.3 1.4.1.5.2.9.3 1.4.9 3.7 2.3 7.3 4 10.7-2.3-3.1-4.1-6.6-5.2-10.4-1.2-3.7-1.7-7.7-1.8-11.6 0-2 0-3.9.2-5.9.2-1.9.4-3.9.8-5.8.7-3.7 1.8-7.5 3.3-11z"/><path class="st26" d="M250.7 224.7s4.1 16.7 46 8.1l-43.9 20.9-2.1-29zM362.4 223.4s-19.1 21.2-65.6 9.3c0 0 23 26.3 51.9 23.1 2.2-.2 5-1.6 7.3-2.2l6.4-30.2z"/><path class="st25" d="M193.7 230.1c1-.3 2.1-.4 3.1-.4h1.6c.5 0 1.1.1 1.6.1 2.1.2 4.2.7 6.2 1.3l1.5.5 1.5.6c.5.2 1 .4 1.4.6.5.2.9.5 1.4.7.9.5 1.8 1 2.7 1.6.9.6 1.7 1.2 2.5 1.9l-3-.9c-1-.3-2-.7-2.9-1-1.9-.7-3.8-1.3-5.8-1.9-1.9-.6-3.9-1.2-5.8-1.7-1-.2-2-.5-3-.7-.9-.4-1.9-.5-3-.7z"/><path class="st26" d="M390 243.7c2.2-.6 2.7-3.4 1-4.8-3.1-2.5-7-5.4-11-9.5s-8.2-9.3-12-16.5c0 0 24.3 21.5 40 21.5-.1-.1 3.8 4-18 9.3z"/><path class="st25" d="M406.2 238.8c-3.2 1.4-6.6 2.6-9.9 3.7-3.3 1.1-6.7 2.2-10 3.2-3.4 1-6.8 1.9-10.2 2.8-3.4.8-6.8 1.6-10.3 2.2 3.2-1.4 6.6-2.6 9.9-3.8 3.3-1.1 6.7-2.2 10-3.2 3.4-1 6.8-1.9 10.2-2.8 3.4-.7 6.8-1.5 10.3-2.1z"/><path class="st26" d="M252.7 171.4c-.7 3.2-2.8 22.8-2.8 22.8.1-3.2-4.2-4.3-5.7-1.4-4.7-17.8 7.4-35.3 7.8-35.8-1.8 7 .7 14.4.7 14.4z"/><path class="st25" d="M255.9 158.7c-.6 3-1.2 5.9-1.8 8.9-.3 1.5-.6 2.9-.9 4.4-.3 1.5-.6 2.9-.8 4.4-.3 1.5-.5 2.9-.8 4.4-.3 1.5-.5 3-.7 4.4-.4 3-.8 5.9-1.1 9-.3-3-.3-6.1-.1-9.1.1-1.5.3-3 .5-4.5s.5-3 .7-4.5c.3-1.5.6-3 .9-4.4.3-1.5.7-2.9 1.1-4.4.9-3 1.8-5.8 3-8.6z"/><path class="st19" d="M257.4 242s11.3-1.7 15.6 4.6c0 0 5.2 7.9-.1 8.2 0 .1-11-8.3-15.5-12.8z"/><path style="fill:#ff7b7a" d="m243.2 225.5 31.1 31.1 4.8 6.3-.6.5-6.6-4.3-30.9-31.6z"/><path class="st17" d="m242.3 242.8 10.7-1.6c.9-.1 1.9-.1 2.8.3l9.5 3.3c.8.3 1.5.8 1.9 1.5l4.8 6.9c1.1 1.6.9 4-.4 5.4-1.5 1.7-3.3 3-5.3 4.1l-.6.3c-1.2 1.5-2.8 2.7-4.5 3.5l-.5.2c-.9.6-1.9 1-3 1h-3.1c-6.7 0-13.3-2-18.9-5.9.1 0-3.9-10.3 6.6-19z"/><path class="st19" d="M257.4 250.5c1.4.1 2.8.4 4.1.9 1.3.5 2.6 1 3.8 1.7.3.2.6.4.9.5l.9.6c.6.4 1.1.8 1.7 1.3 1.1.9 2 1.9 2.9 3-1.1-.8-2.2-1.6-3.4-2.4-1.1-.8-2.3-1.5-3.5-2.1-1.2-.7-2.4-1.3-3.6-1.9-1.2-.5-2.5-1.1-3.8-1.6zM254 257.2c1.1.2 2.2.5 3.2.8 1 .3 2.1.8 3.1 1.2 1 .5 2 1 2.9 1.6.9.6 1.8 1.3 2.6 2.1l-3-1.4-2.9-1.4c-1-.5-2-.9-2.9-1.4-1-.4-2-.9-3-1.5zM251.1 262.9c.9 0 1.8.2 2.6.4.9.2 1.7.4 2.5.7.8.3 1.6.7 2.4 1.1.8.4 1.5.9 2.2 1.6-.9-.2-1.7-.5-2.5-.8l-2.4-.9-2.4-.9c-.9-.4-1.7-.7-2.4-1.2z"/><path class="st17" d="m348 271.4-8.8 3s-14.2 1.8-14.5 1.6c-.3-.2-7.6-3.3-7.6-3.3-3-1.7-3.7-5.1-3.7-5.1s-2.2-2.8 0-5.1c0 0-3.3-1.1-2.2-4.9 0 0-.5-.4-.8-1.2-.9-2.1.4-4.5 2.6-5.2 3.8-1.1 12-3.3 17.7-3.6 0 0 4.6-1 8 3.2 0 0 6.5 3.7 10.1 4.9-.1.1.7 8.7-.8 15.7z"/><path class="st19" d="M311 257.7c1.7-.1 3.4-.2 5-.3 1.7-.1 3.3-.3 5-.4.8-.1 1.7-.2 2.5-.3l1.2-.1c.4-.1.8-.1 1.2-.1 1.7-.2 3.3-.4 5-.5-1.6.6-3.2 1-4.9 1.3-1.6.4-3.3.6-5 .8-1.7.2-3.4.2-5.1.2-1.5-.2-3.2-.3-4.9-.6zM313.2 262.6c1.4-.1 2.8-.1 4.3 0 1.4 0 2.8.2 4.2.3.7.1 1.4.2 2.1.2h2.1c1.4 0 2.8 0 4.3.1-1.4.3-2.8.5-4.2.7-.4 0-.7.1-1.1.1-.4 0-.7.1-1.1.1-.7 0-1.5-.1-2.2-.1-1.4-.1-2.8-.3-4.2-.5-1.4-.3-2.8-.5-4.2-.9zM313.2 267.7c1.4.2 2.8.4 4.1.8 1.4.3 2.7.7 4 .9 1.3.3 2.7.5 4.1.6 1.4.1 2.8.2 4.2.4-1.4.2-2.8.4-4.2.4-1.4 0-2.8-.1-4.2-.4-.7-.1-1.4-.3-2.1-.5-.7-.2-1.3-.4-2-.7-1.3-.4-2.6-.9-3.9-1.5zM339.1 274.4s.3-6-1-14.4c0 0 10.6 4.4 9.8 11.3l-8.8 3.1z"/><g style="opacity:.77"><path d="m127.1 127.6 96.4 18c2.5.5 4.5 2.5 4.9 5l11.4 74.2c.6 4.2-3.1 7.7-7.3 6.9l-94.1-19.8c-2.4-.5-4.3-2.4-4.7-4.8L120 134.7c-.8-4.2 2.9-7.9 7.1-7.1z" style="fill:#cfdeff"/></g><path style="fill:#4a04b7" d="m195.9 293.9 50.6-15.3v-4.2l-51.2 15.5z"/><path style="fill:#6d80f2" d="m246.5 274.4-55.2-11 4 26.5z"/><path class="st26" d="m195.9 293.9-43.2-9.1-63.5-13.4-10-52.8-2.2-12.1-1.8-9.7c-1-5 3.4-9.4 8.5-8.5l14.2 2.6 40.8 7.6 38.9 7.3c3 .6 5.4 3 5.8 6l6.2 40.1 6.3 42z"/><linearGradient id="SVGID_7_" gradientUnits="userSpaceOnUse" x1="209.033" y1="286.764" x2="96.1" y2="164.321"><stop offset="0" style="stop-color:#c9eef1;stop-opacity:0"/><stop offset=".449" style="stop-color:#e3f6f8;stop-opacity:.4485"/><stop offset="1" style="stop-color:#fff"/></linearGradient><path d="m81.4 190.5 93.9 17.5c3 .6 5.4 3 5.8 6l12.2 79.3 2.6.6-12.6-82c-.5-3-2.8-5.5-5.8-6l-93.9-17.5c-3.1-.6-5.9.9-7.4 3.2 1.4-1 3.3-1.4 5.2-1.1z" style="fill:url(#SVGID_7_)"/><linearGradient id="SVGID_8_" gradientUnits="userSpaceOnUse" x1="107.773" y1="359.249" x2="245.338" y2="288.718"><stop offset="0" style="stop-color:#000"/><stop offset=".086" style="stop-color:#090909"/><stop offset=".228" style="stop-color:#202122"/><stop offset=".406" style="stop-color:#47474a"/><stop offset=".616" style="stop-color:#7d7d81"/><stop offset=".848" style="stop-color:#c0c1c8"/><stop offset="1" style="stop-color:#f0f1fa"/></linearGradient><path style="fill:url(#SVGID_8_)" d="m195.9 293.9 93.7-7.7-43.1-7.6z"/><circle class="st34" cx="463" cy="258.1" r="1.1"/><circle class="st34" cx="470.4" cy="258.1" r="1.1"/><circle class="st34" cx="477.9" cy="258.1" r="1.1"/><circle class="st34" cx="463" cy="265.6" r="1.1"/><circle class="st34" cx="470.4" cy="265.6" r="1.1"/><circle class="st34" cx="477.9" cy="265.6" r="1.1"/><circle class="st34" cx="463" cy="273" r="1.1"/><circle class="st34" cx="470.4" cy="273" r="1.1"/><circle class="st34" cx="477.9" cy="273" r="1.1"/><circle class="st34" cx="463" cy="280.5" r="1.1"/><circle class="st34" cx="470.4" cy="280.5" r="1.1"/><circle class="st34" cx="477.9" cy="280.5" r="1.1"/><circle class="st34" cx="463" cy="288" r="1.1"/><circle class="st34" cx="470.4" cy="288" r="1.1"/><circle class="st34" cx="477.9" cy="288" r="1.1"/><circle class="st34" cx="463" cy="295.5" r="1.1"/><circle class="st34" cx="470.4" cy="295.5" r="1.1"/><circle class="st34" cx="477.9" cy="295.5" r="1.1"/><circle class="st34" cx="463" cy="303" r="1.1"/><circle class="st34" cx="470.4" cy="303" r="1.1"/><circle class="st34" cx="477.9" cy="303" r="1.1"/><circle class="st34" cx="463" cy="310.5" r="1.1"/><circle class="st34" cx="470.4" cy="310.5" r="1.1"/><circle class="st34" cx="477.9" cy="310.5" r="1.1"/><circle class="st34" cx="463" cy="318" r="1.1"/><circle class="st34" cx="470.4" cy="318" r="1.1"/><circle class="st34" cx="477.9" cy="318" r="1.1"/><circle class="st34" cx="463" cy="325.5" r="1.1"/><circle class="st34" cx="470.4" cy="325.5" r="1.1"/><circle class="st34" cx="477.9" cy="325.5" r="1.1"/><circle class="st34" cx="167.7" cy="17.4" r="1.1"/><circle class="st34" cx="175.2" cy="17.4" r="1.1"/><circle class="st34" cx="182.7" cy="17.4" r="1.1"/><circle class="st34" cx="167.7" cy="24.9" r="1.1"/><circle class="st34" cx="175.2" cy="24.9" r="1.1"/><circle class="st34" cx="182.7" cy="24.9" r="1.1"/><circle class="st34" cx="167.7" cy="32.3" r="1.1"/><circle class="st34" cx="175.2" cy="32.3" r="1.1"/><circle class="st34" cx="182.7" cy="32.3" r="1.1"/><circle class="st34" cx="167.7" cy="39.8" r="1.1"/><circle class="st34" cx="175.2" cy="39.8" r="1.1"/><circle class="st34" cx="182.7" cy="39.8" r="1.1"/><circle class="st34" cx="167.7" cy="47.3" r="1.1"/><circle class="st34" cx="175.2" cy="47.3" r="1.1"/><circle class="st34" cx="182.7" cy="47.3" r="1.1"/><circle class="st34" cx="167.7" cy="54.8" r="1.1"/><circle class="st34" cx="175.2" cy="54.8" r="1.1"/><circle class="st34" cx="182.7" cy="54.8" r="1.1"/><circle class="st34" cx="167.7" cy="62.3" r="1.1"/><circle class="st34" cx="175.2" cy="62.3" r="1.1"/><circle class="st34" cx="182.7" cy="62.3" r="1.1"/><circle class="st34" cx="167.7" cy="69.8" r="1.1"/><circle class="st34" cx="175.2" cy="69.8" r="1.1"/><circle class="st34" cx="182.7" cy="69.8" r="1.1"/><circle class="st34" cx="167.7" cy="77.3" r="1.1"/><circle class="st34" cx="175.2" cy="77.3" r="1.1"/><circle class="st34" cx="182.7" cy="77.3" r="1.1"/><circle class="st34" cx="167.7" cy="84.8" r="1.1"/><circle class="st34" cx="175.2" cy="84.8" r="1.1"/><circle class="st34" cx="182.7" cy="84.8" r="1.1"/><circle class="st34" cx="72.5" cy="268.8" r="1.1"/><circle class="st34" cx="72.5" cy="276.3" r="1.1"/><circle class="st34" cx="72.5" cy="283.7" r="1.1"/><circle class="st34" cx="65" cy="268.8" r="1.1"/><circle class="st34" cx="65" cy="276.3" r="1.1"/><circle class="st34" cx="65" cy="283.7" r="1.1"/><circle class="st34" cx="57.5" cy="268.8" r="1.1"/><circle class="st34" cx="57.5" cy="276.3" r="1.1"/><circle class="st34" cx="57.5" cy="283.7" r="1.1"/><circle class="st34" cx="50" cy="268.8" r="1.1"/><circle class="st34" cx="50" cy="276.3" r="1.1"/><circle class="st34" cx="50" cy="283.7" r="1.1"/><circle class="st34" cx="42.5" cy="268.8" r="1.1"/><circle class="st34" cx="42.5" cy="276.3" r="1.1"/><circle class="st34" cx="42.5" cy="283.7" r="1.1"/><circle class="st34" cx="35" cy="268.8" r="1.1"/><circle class="st34" cx="35" cy="276.3" r="1.1"/><circle class="st34" cx="35" cy="283.7" r="1.1"/><circle class="st34" cx="27.5" cy="268.8" r="1.1"/><circle class="st34" cx="27.5" cy="276.3" r="1.1"/><circle class="st34" cx="27.5" cy="283.7" r="1.1"/><circle class="st34" cx="20" cy="268.8" r="1.1"/><circle class="st34" cx="20" cy="276.3" r="1.1"/><circle class="st34" cx="20" cy="283.7" r="1.1"/><circle class="st34" cx="12.6" cy="268.8" r="1.1"/><circle class="st34" cx="12.6" cy="276.3" r="1.1"/><circle class="st34" cx="12.6" cy="283.7" r="1.1"/><circle class="st34" cx="5.1" cy="268.8" r="1.1"/><circle class="st34" cx="5.1" cy="276.3" r="1.1"/><circle class="st34" cx="5.1" cy="283.7" r="1.1"/><circle class="st34" cx="72.5" cy="291.2" r="1.1"/><circle class="st34" cx="65" cy="291.2" r="1.1"/><circle class="st34" cx="57.5" cy="291.2" r="1.1"/><circle class="st34" cx="50" cy="291.2" r="1.1"/><circle class="st34" cx="42.5" cy="291.2" r="1.1"/><circle class="st34" cx="35" cy="291.2" r="1.1"/><circle class="st34" cx="27.5" cy="291.2" r="1.1"/><circle class="st34" cx="20" cy="291.2" r="1.1"/><circle class="st34" cx="12.6" cy="291.2" r="1.1"/><circle class="st34" cx="5.1" cy="291.2" r="1.1"/><circle class="st34" cx="452.3" cy="35.5" r="1.1"/><circle class="st34" cx="452.3" cy="43" r="1.1"/><circle class="st34" cx="452.3" cy="50.5" r="1.1"/><circle class="st34" cx="444.8" cy="35.5" r="1.1"/><circle class="st34" cx="444.8" cy="43" r="1.1"/><circle class="st34" cx="444.8" cy="50.5" r="1.1"/><circle class="st34" cx="437.3" cy="35.5" r="1.1"/><circle class="st34" cx="437.3" cy="43" r="1.1"/><circle class="st34" cx="437.3" cy="50.5" r="1.1"/><circle class="st34" cx="429.8" cy="35.5" r="1.1"/><circle class="st34" cx="429.8" cy="43" r="1.1"/><circle class="st34" cx="429.8" cy="50.5" r="1.1"/><circle class="st34" cx="422.3" cy="35.5" r="1.1"/><circle class="st34" cx="422.3" cy="43" r="1.1"/><circle class="st34" cx="422.3" cy="50.5" r="1.1"/><circle class="st34" cx="414.8" cy="35.5" r="1.1"/><circle class="st34" cx="414.8" cy="43" r="1.1"/><circle class="st34" cx="414.8" cy="50.5" r="1.1"/><circle class="st34" cx="407.3" cy="35.5" r="1.1"/><circle class="st34" cx="407.3" cy="43" r="1.1"/><circle class="st34" cx="407.3" cy="50.5" r="1.1"/><circle class="st34" cx="399.8" cy="35.5" r="1.1"/><circle class="st34" cx="399.8" cy="43" r="1.1"/><circle class="st34" cx="399.8" cy="50.5" r="1.1"/><circle class="st34" cx="392.3" cy="35.5" r="1.1"/><circle class="st34" cx="392.3" cy="43" r="1.1"/><circle class="st34" cx="392.3" cy="50.5" r="1.1"/><circle class="st34" cx="384.9" cy="35.5" r="1.1"/><circle class="st34" cx="384.9" cy="43" r="1.1"/><circle class="st34" cx="384.9" cy="50.5" r="1.1"/><circle class="st34" cx="452.3" cy="58" r="1.1"/><circle class="st34" cx="444.8" cy="58" r="1.1"/><circle class="st34" cx="437.3" cy="58" r="1.1"/><circle class="st34" cx="429.8" cy="58" r="1.1"/><circle class="st34" cx="422.3" cy="58" r="1.1"/><circle class="st34" cx="414.8" cy="58" r="1.1"/><circle class="st34" cx="407.3" cy="58" r="1.1"/><circle class="st34" cx="399.8" cy="58" r="1.1"/><circle class="st34" cx="392.3" cy="58" r="1.1"/><circle class="st34" cx="384.9" cy="58" r="1.1"/></svg>