<svg version="1.1" id="_1" xmlns="http://www.w3.org/2000/svg" x="0" y="0" viewBox="0 0 3300 2100" style="enable-background:new 0 0 3300 2100" xml:space="preserve"><style>.st0{fill:#3ec68c}.st2{fill:#87ddb6}.st3{opacity:.22;fill:#2e2e47}.st4{fill:#7703fc}.st5{fill:#82664b}.st6{fill:#9751fc}.st7{fill:#eae6e4}.st9{fill:#2e2e47}.st10{fill:#e32b6b}.st11{fill:#ffd3b5}.st12{fill:#fff}.st13{fill:#84ceca}.st14{fill:#ffa982}.st15{fill:#ffc0dd}</style><path class="st0" d="M2655.3 918.2c-.9 0-1.9-.2-2.8-.6-3.3-1.6-4.8-5.5-3.2-8.8 4.5-9.7 17.4-18 39.3-25.1 15.2-5 29-7.5 29.6-7.6 3.6-.7 7.1 1.7 7.7 5.4.7 3.6-1.7 7.1-5.4 7.7-21.5 3.9-54.1 14.4-59.1 25.3a6.92 6.92 0 0 1-6.1 3.7zM2656.5 825.9c-.9 0-1.9-.2-2.8-.6-12-5.6-43.2-4.6-54.2-3.7-3.6.3-6.9-2.4-7.2-6.1-.3-3.7 2.4-6.9 6.1-7.2 4.4-.4 43.6-3.2 60.9 4.9 3.3 1.6 4.8 5.5 3.2 8.9-1.1 2.3-3.5 3.8-6 3.8z"/><path class="st0" d="M2637.7 1133.9h-.8c-3.7-.4-6.3-3.7-5.8-7.4.1-1.1 12.8-107.5 15.9-153.6 1.1-16.6 1.7-58.4 2.3-106.8 1.2-91.6 2.5-195.5 8.3-217.6 8.5-32.1 17.2-152.6 17.3-153.9.3-3.7 3.5-6.4 7.1-6.2 3.7.3 6.4 3.4 6.2 7.1-.4 5-8.9 123-17.7 156.3-5.4 20.5-6.8 132.5-7.8 214.3-.6 48.6-1.1 90.6-2.3 107.5-3.2 46.5-15.8 153.2-15.9 154.3-.6 3.5-3.5 6-6.8 6z"/><path style="fill:#705640" d="m2498.9 1120.2 39.6 331.3h227l35.8-331.3z"/><path class="st0" d="M2676.2 558.5s-40.9-7.6-47.2-66.3c-6.4-58.8 14.3-216.4 82-200.8 67.6 15.6 56.1 268.7-34.8 267.1z"/><path class="st2" d="M2669.7 531.7s-37.6-41.3-35.8-46.3c1.8-5 11.3 3.9 17.9 0 6.6-3.9-5.4-41.3 0-51.9 5.4-10.6 15.5 3.3 17.9-5.6 2.4-8.9-17.9-30.1-5.4-60.2 12.5-30.1 40-67.5 42.4-64.1 2.4 3.3-11.9 58 0 59.7 11.9 1.7 20.3 7.3 21.5 25.1 1.2 17.8-8.4 40.2-11.3 50.2s1.2 13.4 0 30.7c-1.2 17.3-10.8 58-47.2 62.4z"/><path class="st0" d="M2619 682.4s-31.8 25.2-85-6.8c-53.2-31.9-172.4-145.2-117.2-184.9 55.3-39.8 260.2 126.1 202.2 191.7z"/><path class="st2" d="M2592.6 670.4s-58 1.8-61.1-2.6c-3.1-4.4 10.3-5.8 11.1-13.1.8-7.3-37.9-21.7-43.4-32.3-5.5-10.5 12.5-9.3 6.5-16.6-6-7.3-36.4-5.6-53.8-33.6-17.4-27.9-31.6-71.3-27.4-70.9 4.3.3 41.2 44.8 50 37.1 8.8-7.7 18.7-10.3 34.4-.1 15.7 10.2 28.4 31.1 35 39.5 6.6 8.4 12 7.5 25.7 19.1 13.8 11.8 42 44.1 23 73.5z"/><path class="st0" d="M2622.6 1043.3s-39.9 31.6-106.7-8.5c-66.8-40.1-216.4-182.3-147.1-232.2 69.3-49.9 326.6 158.4 253.8 240.7z"/><path class="st2" d="M2589.5 1028.3s-72.8 2.3-76.7-3.3c-3.9-5.6 12.9-7.3 14-16.4 1-9.1-47.6-27.3-54.6-40.5-6.9-13.2 15.7-11.7 8.2-20.8-7.5-9.2-45.7-7.1-67.6-42.1-21.9-35-39.7-89.5-34.3-89 5.4.4 51.7 56.3 62.8 46.6 11.1-9.7 23.5-13 43.2-.1 19.7 12.9 35.7 39.1 43.9 49.6 8.2 10.6 15 9.4 32.3 24 17.2 14.5 52.5 55.1 28.8 92z"/><path class="st0" d="M2667.4 639.8c-2.3 0-4.5-1.2-5.8-3.3-1.8-3.2-.7-7.3 2.4-9.1 2.5-1.5 62.6-35.8 97.7-38.7 3.7-.3 6.9 2.4 7.2 6.1.3 3.7-2.4 6.9-6.1 7.2-32.1 2.6-91.5 36.6-92.1 37-1.1.5-2.2.8-3.3.8z"/><path class="st0" d="M2728.4 597.1s-3.6-32.6 54.9-51.2c58.6-18.6 226.3-40.1 229.2 14.5 2.9 54.7-260.3 105.6-284.1 36.7z"/><path class="st2" d="M2737.6 597.5s53.2-50.5 53.2-40.7c0 9.8-11.9 23-3.6 21.1 8.4-1.9 60.9-42.6 60.9-30.9s-10.1 15.5 3 11.2c13.1-4.2 62.7-23.4 62.1-20.1-.6 3.3-25.1 15.5-3.6 14.1 21.5-1.4 63.9-11.2 65.7-6.6 1.8 4.7-18.5 16.8-6 15 12.5-1.9 32.2-4.7 34 0 1.8 4.7-80 11.3-75.8 13.6 4.2 2.3 30.4 7.5 28.7 12.2-1.8 4.7-82.7-3.7-81-.5 1.6 3.3 21.9 20.5 9.4 21.5-12.5 1-53.1-9.3-54.9-7.5-1.8 1.9 7.2 16.9-13.7 18.3-21.1 1.4-78.4-20.7-78.4-20.7z"/><path class="st0" d="M2695 888.8s-4.9-48.1 74-75.6c78.9-27.5 305.1-59.3 309 21.4 3.9 80.7-350.9 156.1-383 54.2z"/><path class="st2" d="M2707.4 889.4s71.7-74.6 71.7-60.1c0 14.5 23.2 22.1 34.5 19.4 4.3-1.1 3.3 2.4 48.9-7.1 12.4-2.6 50-39.3 62.9-42 20.6-4.2 16.4 25.9 34.8 22.4 37.9-7.1 66.7-11.7 67.5-9.3 2.4 6.9-24.9 24.9-8 22.1 16.9-2.7 43.4-7 45.9 0 2.4 7-107.8 16.6-102.2 20.1 5.6 3.5 41 11.1 38.6 18-2.4 6.9-111.4-5.5-109.2-.7 2.2 4.8 29.6 30.4 12.7 31.8-16.9 1.4-71.6-13.8-74-11-2.4 2.8 9.7 24.9-18.5 27-28.3 2.1-105.6-30.6-105.6-30.6z"/><path class="st0" d="M2627.4 812.7s-13.1-40.6-77-43.2c-64-2.6-231.1 28.4-206.2 95.5 24.9 67.1 295.9 39.2 283.2-52.3z"/><path class="st2" d="M2619 816.4s-75.1-43-70.1-31.1c5 11.9 22.7 23.7 14 24.3-8.7.6-78.3-30.8-72.3-16.7 5.9 14.2 17.3 15.2 2.9 14.6-14.4-.6-70.2-7-68-3.2 2.2 3.8 31.2 10.2 10.4 15.8-20.7 5.6-65.2 8.1-64.5 14.4.7 6.3 25.7 14 13.1 16.1-12.6 2-32.4 5.3-31.7 11.6.7 6.3 80.2-13.6 77.5-9.3-2.7 4.3-24.6 19.4-20.5 24.5 4 5.1 75.1-32.6 75.2-28.1.1 4.5-10 32.3 2.1 29.2 12.2-3.1 44.8-29.4 47.4-27.7 2.6 1.7 1.9 22.8 22 17.4 20.3-5.6 62.5-51.8 62.5-51.8z"/><path class="st0" d="M2735.9 1044.9c-.4 0-.8 0-1.1-.1-16.4-2.8-63.2-8.7-82.4-1.8-3.5 1.2-7.3-.5-8.5-4-1.2-3.5.5-7.3 4-8.5 26.4-9.5 86.6.8 89.1 1.2 3.6.6 6.1 4.1 5.4 7.7-.5 3.3-3.4 5.5-6.5 5.5z"/><path class="st0" d="M2694 1031.2s24.9-58.3 119.9-53.4c95 4.9 338.2 73.7 292.1 169.6s-443.2 17.5-412-116.2z"/><path class="st2" d="M2705.9 1037.7s117-53.4 108-36.4c-9 16.9-36.9 32-24 34 12.8 2 120.1-35 109.4-14.8s-27.6 20.2-6.3 21.2 104.9-.8 101.1 4.5c-3.8 5.3-47.5 10.8-17.6 21.9 29.9 11.1 95.4 20.9 93.5 30.1-1.9 9.2-40 17.3-21.6 22 18.4 4.7 47.2 12.2 45.3 21.5-1.9 9.2-116.8-31.1-113.4-24.4 3.4 6.7 33.7 32.1 27 39-6.7 6.9-106.7-58.6-107.5-51.9-.8 6.7 10.4 49.2-7.2 42.9-17.6-6.2-62.2-49.6-66.3-47.5s-5.9 33.5-35 22.8c-29.2-10.6-85.4-84.9-85.4-84.9z"/><path class="st0" d="M2658.8 722.7c-1.7 0-3.3-.6-4.6-1.9l-42.6-40.9c-2.6-2.5-2.7-6.8-.2-9.4 2.5-2.7 6.8-2.7 9.4-.2l42.6 40.9c2.6 2.5 2.7 6.8.2 9.4-1.3 1.4-3.1 2.1-4.8 2.1zM2681.1 758.3s28.9-52.2 89.8-58.7 160.9-14.2 195.5 7.7c34.7 21.9-273.3 35.3-285.3 51z"/><path class="st0" d="M2657 794.4c-.7 0-1.5-.1-2.2-.4-3.5-1.2-5.3-5.1-4-8.5 13.8-38.5 77-63.5 79.6-64.6 3.4-1.3 7.3.4 8.6 3.8 1.3 3.4-.3 7.3-3.8 8.6-.6.2-60.2 23.9-72 56.7-.9 2.7-3.5 4.4-6.2 4.4zM2643.2 1085.5c-3.4 0-6.3-2.6-6.6-6.1-.6-7-13.7-27.2-22.9-39.2-2.2-2.9-1.6-7.1 1.3-9.3 2.9-2.2 7.1-1.6 9.3 1.3 4.1 5.4 24.5 32.9 25.5 46.2.3 3.7-2.4 6.9-6.1 7.2-.1-.1-.3-.1-.5-.1z"/><path class="st3" d="M583.1 1451.9s-130.1 3.7-95.3 20.8 145.4 5.3 233.3 13.1c87.8 7.8 734-3.5 799.7-3.6 65.8-.2 956.1 3.6 1010 3.6 53.9.1 106.2-3.1 102.3-18.9-3.9-15.8-436.2-18-541.2-15-105 3-789.8.9-874.9-3.8-85-4.8-633.9 3.8-633.9 3.8z"/><path class="st4" d="M2345.5 837.3s227.6-9.8 236.3-2.7c8.7 7.1 10.6 63.7 0 68.9-10.6 5.2-248.6 19-255.3 4.4-6.8-14.6 19-70.6 19-70.6z"/><path class="st5" d="m2479.9 1283.9 19.4 188.6h59.3l23.2-188.6zM1986.6 1283.9l19.4 188.6h59.3l23.3-188.6zM1251.8 1283.9l19.4 188.6h59.3l23.2-188.6z"/><path class="st4" d="M2528.8 1064.4c-71.9-57.7-312.8-5.1-312.8-5.1s-33.2-450.7-127.2-522.6c-94-71.9-240.6-66.4-240.6-66.4H396.6l304 675 344.3 159.7 1545.3-19.8c0 .2 10.4-163.1-61.4-220.8z"/><path class="st6" d="m396.6 470.3 135.5 813.6 512.8 21.2s22.1-163.1-49.7-220.8c-71.9-57.7-297.5-25.1-297.5-25.1s-33.2-450.7-127.2-522.6c-94.1-71.8-173.9-66.3-173.9-66.3z"/><path class="st5" d="m532.1 1283.9 19.4 188.6h59.3l23.2-188.6z"/><path class="st7" d="M2092.7 729.9s54.8-65 61.3-82.5c6.4-17.5 134.7 13.5 185.3 26.4 50.7 12.9 118.4 48.4 126.1 48.4 7.7 0 29.7-11.6 43.2-2.6s-52.2 134.1-61.9 150.3c-9.7 16.1-49.7 146.4-133.5 181.2-83.8 34.8-137.4 5.2-167.7-12.3-30.2-17.4-115.3-233.5-52.8-308.9z"/><path d="M2240.2 1057.9s12 40.6-2.4 62.1-57.5 29.1-100.2 27.4c-42.7-1.7-96-44.5-96-44.5s-101 25.6-147.6 31.6c-46.7 6-92.9-5.2-92.9-5.2s-105.8 22.4-188.8 15.5c-83-6.9-136.4-22.9-156.1-19.2-19.8 3.7-343.1 8-362 8.8-18.9.9-87.7-1.7-110.9 0-23.2 1.7-92 19.6-117.8 13.2-25.8-6.4 120.4-60.5 202.9-57.1 82.5 3.4 1060.4-48.4 1069.3-45.7 8.8 2.8 102.5 13.1 102.5 13.1z" style="fill:#5a03d6"/><path class="st9" d="m1628.4 946.6-19.8-3.9s-18.3 0-23.1 17.7c-4.8 17.7 9.9 172.3 69.1 174 59.3 1.8 19.3-177.8-26.2-187.8z"/><path class="st10" d="M2241.7 567.1 2222 589s-27.7 76.5-44.1 108c-16.5 31.6-66.5 134.3-22.9 200.3 43.5 66 152.7 59.3 171.1 48 18.5-11.3 46.2-94.9 39.7-162.3-6.4-67.4-30-196.4-48-209.6-18.1-13.1-54.2-27-76.1-6.3z"/><path class="st11" d="M1891.6 913.7c-20.3-102-50.5-137.8-50.5-137.8l-247.7-125.8c-38.5-19.4-66.3-32.4-89.7-31-50.5 3-98.6 43-163.1 137.6-73.7 108.1-134.7 218.7-116.4 233.6 9.3 7.6 21.3 37.5 55.4 15.7 95.3-60.9 220.5-241.8 230.7-236.4 26.2 29.7 187 207.9 267.7 212.9 149.9 9.4 133.9 33.2 113.6-68.8z"/><path class="st9" d="m1908.9 1114.6-15.5 8.6s-28.1 16.1-43.4-36.1c-15.3-52.2-23.7-270.5 39.5-213.9 63.3 56.6 44.6 230.5 19.4 241.4z"/><path class="st12" d="M1891.6 913.7c-20.3-102-50.5-137.8-50.5-137.8l-126-85.3c-15.6 8.2-43.5 30.3-66.2 73.1-24.3 46-40.8 97.5-40.2 119.2 54.2 60.4 128.2 97.1 169.2 99.6 150 9.4 134 33.2 113.7-68.8z"/><path class="st13" d="M1690.6 708.4c15 8.8 40.4 23.9 48.6 30.9 10.6 9.1 32.7 27.9 49.1 35.4 6.9 3.1 11.7 2.5 15.6 2 5.5-.7 9.5-1.2 19.4 9.9 10.5 11.8 23.8 17.6 36.7 22.9-1.4-3.2-2.8-6.1-4.1-8.7-10.1-4.4-19.9-9.6-27.8-18.4-11.3-12.7-17.5-12.9-25.1-12-3.6.5-6.9.9-12.1-1.5-15.6-7.1-37.2-25.6-47.6-34.5-8.3-7.1-32.3-21.5-47.7-30.5-1.6 1.4-3.3 2.9-5 4.5zM1693.8 770.7c13.5 8.6 21.1 16.2 28.4 23.6 7.9 7.9 15.4 15.5 29.1 23 14.9 8.2 27.2 12.4 39.1 16.4 9 3.1 17.5 6 26.8 10.5 5.8 2.8 10.7 4.9 15 6.8 12.4 5.4 21.4 9.3 39.2 23.4 4.3 3.4 8.8 6.4 13.3 9-.8-3.1-1.5-6.1-2.3-9-2.4-1.6-4.7-3.2-7-5-18.5-14.6-28.3-18.9-40.7-24.2-4.3-1.9-9.1-4-14.7-6.7-9.7-4.7-18.3-7.6-27.6-10.8-11.6-4-23.7-8.1-38.1-16-12.9-7.1-20.1-14.3-27.7-21.9-7.6-7.6-15.5-15.5-29.5-24.4-14.1-9-27.7-15.1-38.1-19.1-1.2 1.8-2.3 3.7-3.5 5.6 10.4 3.7 24.2 9.8 38.3 18.8zM1682.8 850.1c11.9 6.8 18.7 12.7 24.8 17.9 9.9 8.5 17.7 15.3 40.8 19.8 15.1 3 28 3.5 39.3 4 16.1.7 30 1.3 45 8.4 10.9 5.1 23.3 9.9 35.3 14.5 9.2 3.5 18.2 6.9 25.8 10.3-.5-2.5-1.1-5.1-1.6-7.7-6.8-2.8-14.3-5.7-21.9-8.6-11.9-4.5-24.2-9.2-34.9-14.3-16.2-7.6-30.7-8.3-47.5-9-11.1-.5-23.8-1-38.4-3.9-21.4-4.2-28.3-10.2-37.8-18.4-6.3-5.4-13.4-11.5-25.8-18.6-22.8-12.9-47.9-24.4-60.3-29.8-.8 2-1.5 4-2.3 6 12.5 5.5 37.2 16.7 59.5 29.4zM1893.8 991.2c-2.4-1.1-4.8-2.1-7.4-3.3-10.5-4.6-22.5-9.8-38.5-18.4-24.2-13-48-22.7-71.1-32.1-10.4-4.2-21.1-8.6-31.7-13.2-33.3-14.4-48.9-24.3-71.7-39.2-14-9.1-41.2-24.1-59.6-33.9-.6 2.2-1.1 4.4-1.6 6.5 18.3 9.8 44.5 24.2 57.7 32.9 23.1 15.1 38.9 25.1 72.7 39.8 10.7 4.6 21.4 9 31.8 13.2 22.9 9.3 46.6 19 70.5 31.8 13.5 7.2 24.5 12.3 33.6 16.3 6.4.3 11.5.3 15.3-.4z"/><path class="st12" d="M1182.1 996.5s-79.6 13.5-96.1 11.6c-16.6-1.9-41.1-16.3-58.4-6-17.3 10.3 10.5 55.9 53.9 65.1 43.4 9.2 48.8-7 75.3 8.8 26.5 15.9 49.7 15 68.6 8.2 18.9-6.8 38.3-50.7 57.8-72.1 24.7-27 57-50.6 35.6-52.4-33.6-2.8-72-75.1-87.1-45.6-15.4 30.1-49.6 82.4-49.6 82.4z"/><path class="st11" d="M1992.7 1031.6c-5.3-27.7-76.7-137.2-76.7-137.2s-900.2 157.8-935.4 162.2c-28.6 3.6-60.2 52.7 1.5 62.3 37.4 5.8 872.7-14.3 894.6-15.7 92-5.7 121.4-43.9 116-71.6z"/><path class="st12" d="M1992.7 1031.6c-5.3-27.7-81.4-162-81.4-162s-63.2 28.8-161.6 46c-39.8 7-93.4 18.8-141 27.1 14.2 18.9 24.5 30.1 27.1 64.5 3.1 41.1 4.3 103.9 18.9 127.2 122.3-2.8 215-30.7 222-31.2 92-5.7 121.4-43.9 116-71.6z"/><path class="st13" d="M1866.9 934.1c21.7-3.8 49.1-14.9 67.6-22.6-1.1-1.9-2.1-3.8-3.1-5.7-18.2 7.6-44.8 18.3-65.6 22-26.3 4.6-104.8 15.6-167.3 18.4-44.8 2-69.4 7.2-79.9 10 1.3 1.9 2.6 3.8 3.8 5.7 11.1-2.8 35.1-7.4 76.4-9.3 62.8-2.8 141.7-13.9 168.1-18.5zM1698.5 1010.4c40.7 3.4 64.9 2.3 90.9-.4 12.5-1.3 27.6-5.9 42.1-10.4 18.1-5.5 36.8-11.3 50.2-10.6 17 .9 49.9-10.8 71.6-18.4 3.7-1.3 7.4-2.6 10.7-3.7-1-1.9-2-3.9-3-5.8-2.7.9-5.9 2.1-9.8 3.4-21.3 7.5-53.4 18.9-69.1 18.1-14.6-.8-33.9 5.1-52.5 10.8-14.2 4.4-29 8.9-40.9 10.1-25.6 2.7-49.5 3.7-89.7.4-23.6-1.9-47.3 4.1-62.8 9.4.1 2.2.3 4.4.4 6.7 14.9-5.1 38.8-11.5 61.9-9.6zM1934.8 1028.9c-17.4.8-51.8 5.7-88.1 10.9-45.9 6.6-98 14.1-125.3 14.4-31.2.4-62.6 8.4-81.5 14.2.2 2.2.4 4.4.6 6.5 18.3-5.7 49.7-13.9 80.9-14.3 27.7-.4 80-7.9 126.1-14.5 36.2-5.2 70.3-10.1 87.5-10.9 21.6-.9 40.9-8.1 54.2-14.6-.7-1.9-1.5-3.9-2.4-6.1-12.8 6.5-31.5 13.5-52 14.4zM1982.7 1064.8c2.9-3.5 5.2-7.1 6.9-10.7-12.6 6.8-34.1 16.3-58.2 17.3-31.8 1.4-46.8 5.8-65.7 11.3-4.9 1.4-9.9 2.9-15.6 4.4-27.1 7.3-79.5 9-132 9.7-26.7.4-53.5 6.2-72.5 11.6.5 2.2.9 4.3 1.5 6.3 18.6-5.2 45-11.1 71.2-11.4 53-.7 105.8-2.4 133.6-9.9 5.8-1.6 10.8-3 15.7-4.4 19.3-5.6 33.2-9.7 64.2-11 19.8-1 37.8-7.2 50.9-13.2z"/><path class="st9" d="M2123.3 713.1c45.2-11.4 87.3-11.8 114.5.6 60.5 27.7 67.1 109.1 12.8 204.4-93.9 165.2-357.1 205.1-357.1 205.1s3.9-105.1-7.1-182.5c-15.6-110.3-45.3-164.9-45.3-164.9s76 27.5 170.1 3.2c35.7-9.1 76.5-56.9 112.1-65.9z"/><path class="st11" d="M2287.2 679.9s-9.1 21.4-16.7 40.6c-4.9 12.3-6.9 24.7-12.8 27.1-37.2 15.1-69.9 2.4-72-13.9-2.6-20.5 31.2-21.1 31.2-21.1s22.6-22.1 37.1-41.2c11.2-14.5 33.2 8.5 33.2 8.5z"/><path class="st9" d="M2223.8 705.7c8.2 2.6 29.9 7.4 49.4-5.9l-38.6-5.5c-4 4.4-7.7 8.3-10.8 11.4z"/><path class="st11" d="M2336.2 642.1c-4-3.3-7.4-4.7-8.9-6.9-.5-.8-.7-1.6-.7-2.7 0-1.3.5-3 1.4-5.1 0 0 14.1-23.2 3-44.5s-58.1-36.2-77.5-22.8c-19.4 13.4-24 36.4-30.8 47.5-3.1 5.1-21 21.7-25.1 31-7.5 17.2-6.1 48 29.6 60.9 53.6 19.3 88.3-32.8 88.3-32.8s9.5 4.8 15.6-1.3c6.1-6.2 12.1-17.5 5.1-23.3z"/><path class="st9" d="M2250.6 670.1c-.6 0-13.7-.3-26.6-11.1-.6-.5-.7-1.5-.2-2.1.5-.6 1.5-.7 2.1-.2 12.1 10.1 24.6 10.4 24.8 10.4.8 0 1.5.7 1.5 1.5-.1.8-.8 1.5-1.6 1.5z"/><path class="st11" d="M1990.8 709.8s37.4-11.3 49-3c11.6 8.2.6 19.5 3.9 27.4 3.2 7.9 9.8-32.5 19.5-24.7 9.7 7.8-2.1 40.4-15.6 48.7-13.5 8.4-38 29.2-56.7 23.6s-24.8-66.7-.1-72z"/><path class="st9" d="M2245.3 648.9h-.3c-8.7-2-11.3-5.7-12-8.3-.6-2.6.4-5.3 2.8-7.3 1.1-1 2.4-1.8 3.7-2.7 3.5-2.4 7.4-5 11.5-11.3 3.2-5 4.5-8.7 3.8-11.1-.6-2-2.4-3.2-5.3-4.5-5.3-2.4-16.5-5.6-16.6-5.6-.8-.2-1.2-1-1-1.8.2-.8 1-1.2 1.8-1 .5.1 11.5 3.2 17 5.8 2.8 1.3 5.9 2.9 6.9 6.3s-.3 7.7-4.2 13.6c-4.4 6.8-8.8 9.8-12.3 12.2-1.2.8-2.4 1.6-3.4 2.5-1.5 1.3-2.2 2.9-1.8 4.4.6 2.6 4.2 4.8 9.8 6.1.8.2 1.3 1 1.1 1.8-.2.4-.8.9-1.5.9zM2294.6 624.4c-.3 0-.7-.1-.9-.3-.1-.1-8-6.5-14.1-7.6-.8-.1-1.3-.9-1.2-1.7.1-.8.9-1.3 1.7-1.2 6.8 1.2 15.1 7.9 15.4 8.2.6.5.7 1.4.2 2.1-.3.4-.7.5-1.1.5zM2289.5 639.3c-.2 0-.5-.1-.7-.2-9.5-5-18.8-9.3-18.9-9.3-.7-.3-1.1-1.2-.7-2 .3-.7 1.2-1.1 2-.7.1 0 9.5 4.4 19.1 9.4.7.4 1 1.3.6 2-.4.5-.9.8-1.4.8z"/><path class="st9" d="M2244.2 620.6c-.3 0-.5-.1-.7-.2-6.4-3.7-14.4-7.4-14.5-7.5-.7-.3-1.1-1.2-.7-2 .3-.7 1.2-1.1 2-.7.1 0 8.3 3.9 14.7 7.6.7.4.9 1.3.5 2-.2.5-.7.8-1.3.8z"/><path class="st14" d="M2269.2 642.7s13.9 7.8 11.4 15.5-18-1.1-22-8.5c-4.1-7.5 7.3-9.2 10.6-7zM2219.3 618s13 2.5 11.7 10.1c-1.3 7.6-15.7 4.8-20-.6-4.4-5.2 5.2-10.3 8.3-9.5z"/><path class="st12" d="m1993.5 684.6-47.9-8.2c-6.9-1.2-12.1 3.7-11.7 11l6.7 117.1c.4 7.2 6.3 14.1 13.2 15.2l47.9 8.2c6.9 1.2 12.1-3.7 11.7-11l-6.7-117.1c-.5-7.2-6.3-14-13.2-15.2z"/><path class="st9" d="m1965.1 688.3-16.4-3.2c-1.9-.4-3.5 1-3.4 3 .1 2 1.7 4 3.6 4.4l16.4 3.2c1.9.4 3.5-1 3.4-3-.1-2-1.7-4-3.6-4.4z"/><path class="st11" d="M2017.4 785c-4.7-25.3 2.3-45.6-6.3-40.4-8.1 4.9-6.2 27.6-11.1 30.5-4.9 2.9-49.5-45.3-54.4-37.3-4 6.7 20.8 25.9 17 28-3.8 2.1-21.8-28.8-26.8-26.1-5 2.7 14 33.7 12.9 34.5-1.1.8-10.7-15.5-13.9-8.2-3.8 8.7 8.3 15.3 6.6 17.5-1.7 2.2-5.4-3.9-8.4.9s17.5 23.4 21.3 28.9c7.4 10.7 31.7 36.3 47.8 33.8 28.7-4.4 16.4-56 15.3-62.1z"/><path class="st12" d="M1058.4 1126.2s-73.7-3.5-82.2-1.9c-8.5 1.5-107.1 33.6-119.8 30.8-29.4-6.5-45.6-26.7-49.6-39.3-9.3-29.9 4.5-40 29.5-48.2 25-8.2 118.1-37.9 143.1-34.4 25.1 3.5 43 15.2 74.1 6.3 31.2-8.9 49.2 79.5 4.9 86.7z"/><path class="st9" d="M2273 629.6s-3.3 7.3 2.6 9.1c5.9 1.8 6.1-4.9 6.1-4.9l-8.7-4.2zM2231.5 612.6s-3.3 7.3 2.6 9.1c5.9 1.8 6.1-4.9 6.1-4.9l-8.7-4.2z"/><path class="st10" d="M2276.8 571.3s17.1 26.8 27.1 58.4c10 31.6-1 109.3 11.3 142.2 12.3 32.9 23.9 81.9 21.3 111.9-2.6 30-19.7 59.3-17.7 62.2 1.9 2.9 37.3-17.8 52.3-62.6 17.9-53.3 21.3-112.4 14.1-146.3-11.1-52.2-10.6-65.8-14.2-118-1.7-24.3-17.4-70.7-35.1-74.5-17.8-4-57.1 22.8-59.1 26.7z"/><path class="st10" d="M2276.8 571.3s-31.9-.3-54.8 17.7c0 0 11.3-31.7 37.4-44.9 26.1-13.2 68.7-20.6 68 3-.6 23.5-50.6 24.2-50.6 24.2z"/><path class="st10" d="M2326.5 547.8c-1.5 0-2.9-.9-3.5-2.4-1.1-2.9-7.7-17.6-32.3-24.8-2-.6-3.1-2.6-2.5-4.6.6-2 2.6-3.1 4.6-2.5 4.9 1.4 29.8 9.6 37.1 29.3.7 1.9-.3 4-2.2 4.8-.3.1-.8.2-1.2.2z"/><path class="st10" d="M2374.3 560.2c-1.6 0-3.1-1.1-3.6-2.7-1.4-4.8-6.6-17.2-14.3-17.6-10.6-.6-25.1 9.3-25.2 9.4-1.7 1.2-4 .7-5.1-.9-1.2-1.7-.7-4 .9-5.1.7-.5 16.7-11.5 29.8-10.8 14.5.8 20.7 22.1 21 23 .6 2-.6 4-2.5 4.6-.3.1-.6.1-1 .1zM2237.8 590.6c-1.3 0-2.6-.7-3.2-1.9-1-1.8-.3-4 1.4-5 13.6-7.5 53.2-18.2 54.9-18.6 2-.5 4 .6 4.5 2.6s-.6 4-2.6 4.5c-.4.1-40.4 10.8-53.2 17.9-.6.4-1.2.5-1.8.5z"/><path class="st9" d="m2238.5 1089.7-3.1 18.1s-27.4 26.2-64.4-5.6c-37-31.8-55.9-123.8-4.7-110.5 51.1 13.3 70.9 77.4 72.2 98z"/><path class="st11" d="M2143 988.9s-113.7-195.8-149.9-169.3c-26.3 19.2 52.7 318.4 141.8 318.3 40.7 0 72.5-32.7 95.6-60.2 9.6-116.6-13.8-143.4-73.8-106.6-1.1 3.6-13.7 17.8-13.7 17.8z"/><path class="st9" d="M2287.2 792.1c-95.5 60.6-136.6 174.3-144.2 196.8 10.2 28.8 62.8 54.4 92.3 118.9 75.8-90.4 51.9-315.7 51.9-315.7z"/><path class="st10" d="M2394.6 734.8c-1.9 0-3.5-1.5-3.7-3.4-.1-1.1-.2-2.3-.2-3.7-.9-12.9-2.3-34.4-7.6-50.3-4.1-12.4-4.6-28.8-5.1-46.1-.3-8.7-.5-17.7-1.3-26.2-2.5-27.8-22.7-40.3-30.4-45-2.9-1.8-4.5-2.8-4.5-5.1 0-2 1.7-3.7 3.7-3.7 1.2 0 2.2.6 2.9 1.4.4.3 1.1.7 1.8 1.1 7.7 4.7 31 19.2 33.8 50.6.8 8.7 1 17.8 1.3 26.6.5 16.8 1 32.7 4.8 44 5.6 16.8 7.1 38.9 8 52.2.1 1.3.2 2.5.2 3.6.1 2-1.4 3.8-3.4 4h-.3zM2349.2 555zm0 0z"/><path class="st6" d="M440.3 882.8c-1.2-22.7 13.9-42 33.1-42.4 121.3-2.8 528.2-11.8 544.5-5.8 19.2 7.1 23.3 63.7 0 68.9-23.3 5.2-550.4 53.8-565.3 39.2-7.8-7.7-11-35.4-12.3-59.9z"/><path class="st9" d="M1663.7 933.8c-.7 0-1.3-.5-1.5-1.2-.1-.8.4-1.6 1.2-1.7 1-.2 96.5-15.2 133.8-26.5 37.4-11.2 68.1-22.4 68.4-22.5.8-.3 1.6.1 1.9.9.3.8-.1 1.6-.9 1.9-.3.1-31.1 11.3-68.6 22.5-37.5 11.3-133.2 26.4-134.2 26.6h-.1zM1510.2 771.1c-.6 0-1.2-.4-1.4-1l-16.5-48.4c-.3-.8.1-1.6.9-1.9.8-.3 1.6.1 1.9.9l16.5 48.4c.3.8-.1 1.6-.9 1.9-.2 0-.4.1-.5.1z"/><path class="st12" d="M2143 990.3c-.2 0-.4 0-.6-.1-.7-.3-1.1-1.2-.7-2 .5-1.1 52.7-114.6 70.5-147.8 18.2-33.7 49.6-49.9 54.4-49.9h.1c.8 0 1.4.7 1.4 1.5s-.7 1.5-1.5 1.4c-3.1 0-33.8 15-51.8 48.3-17.8 33-69.9 146.5-70.5 147.6-.2.7-.7 1-1.3 1z"/><path class="st7" d="M2605.3 1588.5v17.3l-179.9 82.9-339.7-146.6v-21.4z"/><path class="st10" d="m2085.7 1520.7 233.2-45.2 286.4 113-180.4 80.5z"/><path class="st15" d="m2426.9 1653.1 146-64.8-11.2-4.4-146.8 63.9zM2418.3 1632.1l117.1-51.9-15.3-5.9-117.8 51.3z"/><path class="st9" d="m2424.5 1690.4-339.4-144.7c-.8-.3-1.1-1.2-.8-1.9.3-.8 1.2-1.1 1.9-.8l338.2 144.2 180.2-78.8c.7-.3 1.6 0 1.9.8.3.7 0 1.6-.8 1.9l-181.2 79.3z"/><path class="st13" d="M2295.2 1503.4s-72.7 12.1-86.9 27c-14.2 14.8 67.7 23.2 92.9 41.9 25.1 18.7 23.9 19.6 58 17.2 34.2-2.4 49-19.8 47.1-33.4-2-13.5-71.9-55.2-111.1-52.7z"/><path d="M2434.2 1586.6c16.8-7.8 17.9-31.3 1.8-40.5-12.1-6.9-28.3-14.4-49.1-20.9-55.5-17.4-52.9-30.3-82.5-23.9-29.7 6.4-51.6 12.9-36.1 25.8s62.9-9 95.8 6.4c32.9 15.5 44.8 63.8 66.1 54.8 1.3-.5 2.6-1.1 4-1.7z" style="fill:#ffc97d"/><path class="st12" d="M2404 1552.6s-10.6 18.2-40.6 21.7-44.6 1.6-38.1 14 66.8 20.8 92.6 7.5c25.8-13.2 28.4-18.1 25.8-29.7-2.6-11.6-36.4-17.7-39.7-13.5z"/><path class="st3" d="M1854.2 1551.7c0 7.2-39.4 13-88.1 13-48.7 0-88.1-5.8-88.1-13s39.4-13 88.1-13c48.6 0 88.1 5.8 88.1 13z"/><path class="st7" d="M1665.6 1352.1s-4.3 143.4 49.5 184.8v9l16.9 2.6c20 3 40.4 3.1 60.5.2l18.7-2.7v-9s27.9-19.6 37.3-82.9c9.4-63.3 4.1-101.9 4.1-101.9h-187z"/><ellipse cx="1759.2" cy="1352.1" rx="93.5" ry="13" style="fill:#ccc8c6"/><path class="st5" d="M1675.5 1357.9c15.3 4.3 47.1 7.2 83.7 7.2 36.7 0 68.4-2.9 83.7-7.2-15.3-4.3-47.1-7.2-83.7-7.2-36.7 0-68.4 3-83.7 7.2z"/><path class="st7" d="M1854.1 1501.6c-1.8 0-3.5-.2-5.2-.6-12.7-2.9-18.7-15.5-19.3-16.9-1.4-3.2.2-6.9 3.7-8.2 3.5-1.3 7.4.2 8.9 3.4 1 2.2 4.9 8.4 10.1 9.6 3.3.7 7.2-.6 11.7-4 7.4-5.6 17.9-22.2 25.5-40.5 8.7-20.7 12.4-39.9 9.8-51.3-1.8-8.2-6.1-10.2-9.2-11-8.4-2.3-15.3-1.8-21 1.4-10.9 6.2-14.1 20.7-14.2 20.8-.7 3.4-4.2 5.6-7.9 5-3.7-.6-6.1-3.9-5.4-7.3.2-.8 4.3-20 20.4-29.2 9-5.1 19.8-6.1 31.9-2.8 6.8 1.8 15.6 6.9 18.7 20.5 6.8 30.6-21.1 89.6-40 104-6.3 4.8-12.5 7.1-18.5 7.1z"/><path class="st10" d="m1818.4 1408.7-33.7 2.7c-3.3.3-6 3.2-6 6.6v43.2c0 3.4 2.7 5.9 6 5.6l33.7-2.7c3.3-.3 6-3.2 6-6.6v-43.2c0-3.4-2.7-5.9-6-5.6z"/><path class="st12" d="M1801.5 1415.9c-1.2 0-2.2-1-2.2-2.2v-50c0-1.2 1-2.2 2.2-2.2 1.2 0 2.2 1 2.2 2.2v50c.1 1.2-.9 2.2-2.2 2.2z"/><path d="M1154.1 1692c25.6-15 89.6-117.7 75.7-122.8-13.9-5.1-58.3-.6-79-3.7-145.9-21.7-233.4-61-233.4-61s-29.6 8.2-30.1 11.4c-.5 3.2-136.1 84.3-167.6 93.6s-301 222.2-301 222.2l94.8 33.5s258.6-149.7 281.4-162.9c22.8-13.2 177.2-75.7 177.2-75.7s-18.7 42.7-30.6 56.4c-11.9 13.7-49.1 47.5-72.8 67.3S560 1920.5 560 1920.5c16.3 43 78 75 78 75s224.9-95.7 278.1-114.6c53.3-18.9 81.4-28 111.2-39.9 29.7-12 101.2-134 126.8-149z" style="fill:#82a7af"/><path class="st9" d="M1225.2 1595h-.1c-.7-.1-68.6-6.3-85.9-7.5-32.4-2.3-75.1-5.9-94.4-10.3-7.5-1.7-14.6-3.2-21.4-4.6-13.6-2.8-26.5-5.5-40.4-9.7-20.7-6.2-94.7-43.1-97.8-44.7-.7-.4-1-1.3-.7-2 .4-.7 1.3-1 2-.7.8.4 76.8 38.4 97.3 44.5 13.8 4.1 26.6 6.8 40.1 9.6 6.9 1.4 14 2.9 21.5 4.6 15.1 3.5 47.6 7 93.9 10.2 17.3 1.2 85.2 7.4 85.9 7.5.8.1 1.4.8 1.3 1.6.1.9-.6 1.5-1.3 1.5z"/><path class="st9" d="M972 1628.1c-.2 0-.5-.1-.7-.2-.7-.4-1-1.3-.7-2l30.4-60.1c.4-.7 1.3-1 2-.7.7.4 1 1.3.7 2l-30.4 60.1c-.2.6-.7.9-1.3.9z"/><path class="st9" d="M985.7 1600.9c-.3 0-.5-.1-.8-.2-.5-.3-11.7-7.3-14.1-13.2-2.4-5.9 7-23.9 8.9-27.4.4-.7 1.3-1 2-.6s1 1.3.6 2c-4.2 7.7-10.2 21.3-8.8 24.9 1.7 4.2 9.9 10 12.9 11.8.7.4.9 1.3.5 2-.2.5-.7.7-1.2.7zM559.9 1920.5c16.3 43 78 75 78 75s-15.4-20.5-28.1-33.9c-12.8-13.5-49.9-41.1-49.9-41.1zM645.6 1993.4c-.5 0-.9-.2-1.2-.6-.2-.3-19.9-28-37-44.9-17-16.9-40.4-31.3-40.6-31.4-.7-.4-.9-1.3-.5-2s1.3-.9 2-.5c.2.1 23.9 14.7 41.2 31.8 17.2 17.1 37.1 45 37.3 45.3.5.7.3 1.6-.3 2.1-.3.2-.6.2-.9.2zM418.6 1831.7s20.3-4.6 49.1 8.4 45.7 25.1 45.7 25.1-54.2-12.5-94.8-33.5zM521 1857.6c-.3 0-.6-.1-.8-.3-.3-.2-34.5-23.5-57.3-32.6-22.2-8.9-35.8-2.3-35.9-2.2-.7.4-1.6.1-2-.6-.4-.7-.1-1.6.6-2 .6-.3 14.8-7.4 38.4 2.1 23.1 9.3 57.5 32.7 57.8 32.9.7.5.8 1.4.4 2.1-.3.4-.7.6-1.2.6z"/><path class="st9" d="M634.2 1976.4c-.6 0-1.1-.3-1.4-.9-.3-.8 0-1.6.8-1.9l8.2-3.4c.8-.3 1.6 0 1.9.8.3.8 0 1.6-.8 1.9l-8.2 3.4c-.1 0-.3.1-.5.1zM659 1966.1c-.6 0-1.1-.3-1.4-.9-.3-.8 0-1.6.8-1.9l16.7-6.9c.8-.3 1.6.1 1.9.8.3.8-.1 1.6-.8 1.9l-16.7 6.9c-.1.1-.3.1-.5.1zm33.4-13.7c-.6 0-1.1-.3-1.4-.9-.3-.8.1-1.6.8-1.9 5.3-2.2 10.9-4.5 16.7-6.8.8-.3 1.6.1 1.9.8.3.8-.1 1.6-.8 1.9-5.8 2.4-11.4 4.6-16.7 6.8-.1.1-.3.1-.5.1zm33.4-13.6c-.6 0-1.1-.3-1.4-.9-.3-.8.1-1.6.8-1.9 5.5-2.2 11-4.5 16.7-6.8.8-.3 1.6.1 1.9.8.3.8-.1 1.6-.8 1.9-5.7 2.3-11.2 4.6-16.7 6.8-.1 0-.3.1-.5.1zm33.4-13.6c-.6 0-1.1-.3-1.4-.9-.3-.8.1-1.6.8-1.9 5.5-2.2 11.1-4.5 16.7-6.8.8-.3 1.6.1 1.9.8.3.8-.1 1.6-.8 1.9-5.6 2.3-11.2 4.5-16.7 6.8-.1 0-.3.1-.5.1zm33.4-13.5c-.6 0-1.1-.4-1.4-.9-.3-.8.1-1.6.8-1.9 5.6-2.3 11.2-4.5 16.7-6.7.8-.3 1.6.1 1.9.8.3.8-.1 1.6-.8 1.9-5.5 2.2-11.1 4.5-16.7 6.7-.1 0-.3.1-.5.1zm33.5-13.4c-.6 0-1.1-.4-1.4-.9-.3-.8.1-1.6.8-1.9 5.7-2.3 11.3-4.5 16.8-6.6.8-.3 1.6.1 1.9.8.3.8-.1 1.6-.8 1.9-5.5 2.2-11.1 4.4-16.8 6.6-.1 0-.3.1-.5.1zm33.5-13.3c-.6 0-1.2-.4-1.4-.9-.3-.8.1-1.6.8-1.9 5.9-2.3 11.5-4.5 16.8-6.5.8-.3 1.6.1 1.9.8.3.8-.1 1.6-.8 1.9-5.3 2-10.9 4.2-16.8 6.5-.1.1-.3.1-.5.1zm33.7-12.9c-.6 0-1.2-.4-1.4-1-.3-.8.1-1.6.9-1.9 6.6-2.5 12.3-4.6 17-6.2.8-.3 1.6.1 1.9.9s-.1 1.6-.9 1.9c-4.6 1.6-10.3 3.7-16.9 6.2-.2.1-.4.1-.6.1zm34.2-11.6c-.6 0-1.2-.4-1.4-1.1-.2-.8.2-1.6 1-1.8 5.5-1.5 11.3-3.2 17.3-4.9.8-.2 1.6.2 1.8 1 .2.8-.2 1.6-1 1.8-6 1.8-11.8 3.4-17.3 5h-.4zm34.6-10.1c-.6 0-1.2-.4-1.4-1-.2-.8.2-1.6 1-1.8 5.9-1.8 11.7-3.6 17.2-5.4.8-.3 1.6.2 1.9 1 .3.8-.2 1.6-1 1.9-5.5 1.8-11.3 3.6-17.2 5.4-.2-.1-.4-.1-.5-.1zm34.3-11c-.6 0-1.2-.4-1.4-1-.3-.8.1-1.6.9-1.9 6.4-2.2 12.1-4.2 16.9-6.1.8-.3 1.6.1 1.9.8.3.8-.1 1.6-.8 1.9-4.9 1.9-10.6 3.9-17 6.1-.2.1-.4.2-.5.2zm33.4-13.4c-.5 0-1-.3-1.3-.8-.4-.7-.1-1.6.6-2 1.4-.7 2.5-1.4 3.2-2 1.7-1.3 4.6-4.8 8.6-10.5.5-.7 1.4-.8 2.1-.3.7.5.8 1.4.3 2.1-4.3 6-7.3 9.6-9.2 11.1-.9.7-2.1 1.5-3.6 2.3-.2 0-.4.1-.7.1zm22.5-27.9c-.3 0-.6-.1-.8-.2-.7-.4-.9-1.4-.4-2 2.9-4.4 6.1-9.4 9.7-15.2.4-.7 1.4-.9 2-.5.7.4.9 1.4.5 2-3.7 5.8-6.9 10.8-9.8 15.2-.3.5-.7.7-1.2.7zm19.3-30.4c-.3 0-.5-.1-.8-.2-.7-.4-.9-1.3-.5-2 3.2-5.1 6.4-10.3 9.5-15.3.4-.7 1.3-.9 2-.5s.9 1.3.5 2c-3.1 5.1-6.3 10.2-9.5 15.3-.2.4-.7.7-1.2.7zm19-30.7c-.3 0-.5-.1-.8-.2-.7-.4-.9-1.3-.5-2 3.4-5.5 6.7-10.7 9.6-15.3.4-.7 1.4-.9 2-.5.7.4.9 1.4.5 2-2.9 4.6-6.2 9.8-9.6 15.3-.2.5-.7.7-1.2.7zm19.5-30.4c-.3 0-.6-.1-.8-.3-.7-.5-.8-1.4-.4-2.1 1.3-1.9 2.4-3.3 3.2-4.4 1.9-2.3 4.8-5.5 8.6-9.5.6-.6 1.5-.6 2.1-.1.6.6.6 1.5.1 2.1-3.8 4-6.6 7.1-8.4 9.4-.8 1-1.8 2.4-3.1 4.2-.3.5-.8.7-1.3.7zm24.3-26.6c-.4 0-.8-.1-1.1-.4-.6-.6-.6-1.5 0-2.1 4-3.9 8.3-8.2 12.9-12.6.6-.6 1.5-.5 2.1 0 .6.6.5 1.5 0 2.1-4.6 4.4-8.9 8.7-12.9 12.6-.2.3-.6.4-1 .4zm26-25c-.4 0-.8-.2-1.1-.5-.6-.6-.5-1.5.1-2.1 4.6-4.4 9.2-8.6 13.2-12.3.6-.6 1.5-.5 2.1.1.6.6.5 1.5-.1 2.1-4 3.7-8.6 7.9-13.2 12.2-.3.4-.6.5-1 .5zm26.8-24.2c-.4 0-.9-.2-1.2-.6-.5-.6-.4-1.6.2-2.1l.4-.3c3-2.3 6.4-6.8 10.2-13.4.4-.7 1.3-1 2-.5.7.4 1 1.3.5 2-4 6.9-7.7 11.7-10.9 14.3l-.4.3c-.2.2-.5.3-.8.3zM1205.7 1601.7c-.2 0-.4 0-.6-.1-.7-.3-1.1-1.2-.7-2 2.1-4.7 3.5-8.1 3.5-8.1.3-.8 1.2-1.1 1.9-.8.8.3 1.1 1.2.8 1.9 0 0-1.4 3.5-3.5 8.2-.3.6-.8.9-1.4.9zM499.3 1843.7c-.5 0-1.1-.3-1.3-.8-.4-.7-.1-1.6.7-2l16.1-7.9c.7-.4 1.6-.1 2 .7.4.7.1 1.6-.7 2l-16.1 7.9c-.3.1-.5.1-.7.1zm32-15.8c-.5 0-1.1-.3-1.3-.8-.4-.7-.1-1.6.7-2l16-7.9c.7-.4 1.6-.1 2 .7.4.7.1 1.6-.7 2l-16 7.9c-.3 0-.5.1-.7.1zm31.9-15.8c-.5 0-1.1-.3-1.3-.8-.4-.7-.1-1.6.7-2l15.9-7.9c.7-.4 1.6-.1 2 .7.4.7.1 1.6-.7 2l-15.9 7.9c-.2 0-.5.1-.7.1zm31.9-15.9c-.5 0-1.1-.3-1.3-.8-.4-.7-.1-1.6.7-2l15.9-7.9c.7-.4 1.6-.1 2 .7.4.7.1 1.6-.7 2l-15.9 7.9c-.3.1-.5.1-.7.1zm31.9-15.9c-.5 0-1.1-.3-1.3-.8-.4-.7-.1-1.6.7-2 5.4-2.7 10.7-5.3 15.9-8 .7-.4 1.6-.1 2 .7.4.7.1 1.6-.7 2-5.2 2.6-10.6 5.3-15.9 8-.3.1-.5.1-.7.1zm31.8-15.9c-.5 0-1.1-.3-1.3-.8-.4-.7-.1-1.6.7-2 5.5-2.8 10.8-5.4 15.9-8 .7-.4 1.6-.1 2 .7.4.7.1 1.6-.7 2-5.1 2.6-10.4 5.3-15.9 8-.2 0-.5.1-.7.1zm31.8-16.1c-.5 0-1.1-.3-1.3-.8-.4-.7-.1-1.6.6-2 5.8-2.9 11.1-5.7 15.8-8.1.7-.4 1.6-.1 2 .6.4.7.1 1.6-.6 2-4.7 2.4-10.1 5.2-15.9 8.1-.2.2-.4.2-.6.2zm31.6-16.4c-.5 0-1-.3-1.3-.8-.4-.7-.1-1.6.6-2 2.8-1.5 4.9-2.7 6.1-3.4 2.6-1.6 5.8-3.5 9.2-5.5.7-.4 1.6-.2 2 .5.4.7.2 1.6-.5 2-3.5 2-6.6 3.9-9.2 5.5-1.3.8-3.4 1.9-6.3 3.5-.1.2-.3.2-.6.2zm30.9-17.7c-.5 0-1-.3-1.3-.8-.4-.7-.1-1.6.6-2 5.1-2.8 10.3-5.7 15.6-8.6.7-.4 1.6-.1 2 .6.4.7.1 1.6-.6 2-5.2 2.9-10.5 5.8-15.5 8.6-.3.1-.6.2-.8.2zm31.1-17.1c-.5 0-1-.3-1.3-.8-.4-.7-.1-1.6.6-2 5.6-3.1 10.9-5.9 15.5-8.4.7-.4 1.7-.2 2.1.6.4.7.2 1.6-.5 2-4.7 2.5-10 5.4-15.6 8.4-.3.2-.5.2-.8.2zm31.4-16.8c-.5 0-1-.3-1.3-.8-.4-.7-.1-1.6.6-2 5.3-2.8 10.6-5.5 15.8-8.2.7-.4 1.6-.1 2 .6.4.7.1 1.6-.6 2-5.2 2.6-10.5 5.4-15.8 8.2-.2.2-.5.2-.7.2zm31.7-16.1c-.5 0-1.1-.3-1.3-.8-.4-.7-.1-1.6.7-2 5.7-2.8 11.1-5.4 16-7.7.7-.3 1.6 0 2 .7.3.7 0 1.6-.7 2-5 2.3-10.3 4.9-16 7.7-.3 0-.5.1-.7.1zm32.2-15c-.6 0-1.1-.3-1.4-.9-.3-.8 0-1.6.8-1.9 6.6-2.8 12.2-5 16.7-6.5.8-.3 1.6.2 1.9.9.3.8-.2 1.6-.9 1.9-4.4 1.4-9.9 3.6-16.5 6.4-.2 0-.4.1-.6.1zm33.9-10.3c-.7 0-1.3-.4-1.4-1.1-.2-.8.3-1.6 1-1.8 4.5-1.2 10.1-3.1 16.7-5.7.8-.3 1.6.1 1.9.8.3.8-.1 1.6-.8 1.9-6.6 2.6-12.3 4.6-17 5.8-.1.1-.2.1-.4.1zm33.2-12.7c-.6 0-1.1-.3-1.3-.9-.3-.7 0-1.6.7-2 7.1-3.2 13.1-6.1 16-7.6.7-.4 1.6-.1 2 .7.4.7.1 1.6-.7 2-3 1.5-9 4.4-16.1 7.6-.2.2-.4.2-.6.2z"/></svg>