<svg version="1.1" id="Layer_1" xmlns="http://www.w3.org/2000/svg" x="0" y="0" viewBox="0 0 800 905" style="enable-background:new 0 0 800 905" xml:space="preserve"><style>.st2,.st6,.st7,.st8{fill-rule:evenodd;clip-rule:evenodd;fill:#fff}.st6,.st7,.st8{fill:#3f0069}.st7,.st8{fill:#591607}.st8{fill:#ffaa69}.st9{fill:#fa480d}.st11,.st12{fill-rule:evenodd;clip-rule:evenodd;fill:#5f07dd}.st12{fill:#8c4bea}.st13{fill:#4a06cc}.st14,.st15,.st16{fill-rule:evenodd;clip-rule:evenodd;fill:#ff571f}.st15,.st16{fill:#d41200}.st16{fill:#ffb57d}.st18{fill:#591607}.st19{fill-rule:evenodd;clip-rule:evenodd}.st21{fill:#fff}</style><path style="fill:#a6adff" d="M0 0h800v905H0z"/><circle cx="621.5" cy="68.5" style="opacity:.63;fill-rule:evenodd;clip-rule:evenodd;fill:#6e269e;enable-background:new" r="35.5"/><path class="st2" d="M624.7 79.5c3.2 0 5.9-2.7 5.9-5.9v-8.3c0-3.2-2.7-5.9-5.9-5.9h-17.1c-3.2 0-5.9 2.7-5.9 5.9v8.3c0 3.2 2.7 5.9 5.9 5.9h17.1zM636.6 77.2c.7.4 1.4.7 2.1 1.1 1.1.5 2-.6 2-2.5V64c0-1.9-.9-3-2-2.5-.7.3-1.4.7-2.1 1.1-.7.4-1.4.7-2.1 1.1-1.1.5-2 1.9-2 3v6.6c0 1.1.9 2.4 2 2.9.7.3 1.4.6 2.1 1z"/><circle cx="721.5" cy="68.5" r="35.5" style="opacity:.69;fill-rule:evenodd;clip-rule:evenodd;fill:#c92c88;enable-background:new"/><path class="st2" d="M710.3 64.3c-1-.2-1.9.4-2.1 1.4-.5 2.8-.2 5.6.8 8.1s2.8 4.7 5.2 6.3c1.8 1.2 3.8 2 5.9 2.2v4.4h-4.4c-.9 0-1.7.8-1.7 1.7 0 .9.8 1.7 1.7 1.7h12.4c.9 0 1.7-.8 1.7-1.7 0-.9-.8-1.7-1.7-1.7h-4.4v-4.4c2.1-.3 4.2-1 6.1-2.3 2.4-1.6 4.1-3.8 5.2-6.3 1-2.5 1.4-5.3.8-8.1-.2-1-1.1-1.6-2.1-1.4s-1.6 1.1-1.4 2.1c.4 2.1.2 4.2-.6 6.1s-2.1 3.5-3.9 4.7c-1.8 1.2-3.8 1.8-5.9 1.8-2 0-4.1-.6-5.9-1.8-1.8-1.2-3.1-2.8-3.9-4.7-.8-1.9-1-4-.6-6.1.4-.9-.3-1.8-1.2-2z"/><path class="st2" d="M721.8 75.6c3.7 0 6.7-3 6.7-6.7V54.3a6.7 6.7 0 0 0-13.4 0v14.6c.1 3.7 3.1 6.7 6.7 6.7z"/><path d="M224.8 273.1c0 .1.1 0 0 0z" style="fill-rule:evenodd;clip-rule:evenodd;fill:#8c0e57"/><path d="M438.1 972.6c6.4 1.2 12.8 2.3 19.2 3.2 110.2 15.9 222.5-11.7 312.9-77.3l6-148.2s8.7 40.8 26.2 122.3c31.9-28.2 59.5-61 81.9-97.2-6.9-32.7-29.4-139.4-48.3-198.8-6.6-20.8-11.8-33.3-20.4-42.8-22-24.2-90.6-43.3-122.5-54.9-56.8 11.6-109.8 11.1-158.9-1.5-28.9 2.5-65.4 3.2-93.1 8.5-17 3.3-32.5 10-48.9 26.3 0 0-43.3 32-129.8 96l-71.7-84c-59.7 46.1-89.5 69.2-89.5 69.2 17.5 23.2 82.1 124.6 114.3 131.1 27 5.5 165.3-50.3 204.9-63.9l8.5 122c-.8.4-1.7.8-2.6 1.2 7.9 125.9 11.8 188.8 11.8 188.8z" style="fill-rule:evenodd;clip-rule:evenodd;fill:#7703fc"/><path class="st6" d="M184.8 524.6c-18.1 8.3-17 10.7 3.4 7 4.3-8.9 3.1-11.2-3.4-7zM123.7 591.4c14.4-14.4 11-26.1-10.3-34.9-22.9 33.4-19.5 45 10.3 34.9z"/><path class="st2" d="M213.1 437.8c7 0 13.7-5.7 15-12.7l29.1-157.7c1.3-7-3.4-12.7-10.4-12.7h-67.1c-7 0-13.7 5.7-15 12.7l-29.1 157.7c-1.3 7 3.4 12.7 10.4 12.7h67.1z"/><path class="st7" d="M213.8 430.8c4.2 0 8.2-3.4 9-7.6l29.5-162.1c.8-4.2-2-7.6-6.2-7.6h-72.9c-4.2 0-8.2 3.4-9 7.6l-29.5 162.1c-.8 4.2 2 7.6 6.2 7.6h72.9z"/><path class="st8" d="M97.8 503.4s8.6 29.3 25.9 88c29.1-9.7 52.6-31.5 64.5-59.8-16.1-33.4-24.2-50-24.2-50 7.5-7.8 14.8-15.9 21.7-24.2 0 0 7.2.5 21.5 1.5 0 0 7.2 0 21.6-.1 3.8-1.1 6.3-4.6 6.2-8.5s-2.9-7.3-6.7-8.1c0 0-5.8-.7-17.3-2.1 0 0-9.7-3-29.1-9.1 0 0-5.3-1-15.8-2.9 0 0-6.1-5.8-18.3-17.5l18-6s14.4 2 43.3 5.9c0 0 6.4 1.5 19.1 4.4 3.7-.6 6.7-3.3 7.7-6.9s-.1-7.5-2.9-10c0 0-5.7-2.2-17.2-6.5l-49.2-12.9s-8.3.6-25 1.7c0 0 9-4.5 27-13.4 0 0 11.5 3.1 34.6 9.4 0 0 6 2.6 18.1 7.7 4 1.2 8.3-.2 10.8-3.5s2.6-7.9.4-11.3c0 0-6.8-4.1-20.5-12.2 0 0-16.2-6.2-48.7-18.6 0 0 7-1.8 21-5.5 0 0 7.1.4 21.2 1.3 3.3-.4 6.1-2.8 6.9-6.1.9-3.3-.3-6.7-3-8.8 0 0-7.6-1.9-22.9-5.8 0 0-10.8.8-32.5 2.4-3.7.8-7 3.1-8.9 6.4s-2.4 7.3-1.3 10.9c0 0-1.3 6-4 18 0 0-5.7 5.2-17.2 15.6-9.4 5.8-12.4 18-6.9 27.5-5.7 6.6-7.3 15.9-4.1 24 0 0-5.1 19.6-15.2 58.8-4.7 9.1-4.2 18 1.4 26.3z"/><path class="st9" d="m150.7 352.9 13.6-13 20.2-5.3 20.9 1.3c1 .1 2-.7 2-1.8.1-1-.7-2-1.8-2l-21.2-1.3c-.2 0-.5 0-.7.1l-20.9 5.5c-.3.1-.6.3-.9.5L148 350.2c-.8.7-.8 1.9-.1 2.7.8.7 2 .7 2.8 0zM142.4 381.9l26.4-13.1 33.9 9.2c1 .3 2.1-.3 2.3-1.3.3-1-.3-2.1-1.3-2.3l-34.6-9.4c-.5-.1-1-.1-1.5.2l-26.9 13.4c-.9.5-1.3 1.6-.9 2.5.5.8 1.7 1.2 2.6.8zM142.4 414.8l23.6-8.3 42.9 5.8c1 .1 2-.6 2.1-1.6s-.6-2-1.6-2.1l-43.3-5.9c-.3 0-.6 0-.9.1l-23.9 8.4c-1 .3-1.5 1.4-1.2 2.4.2 1 1.3 1.5 2.3 1.2zM167.5 430.3h.1l13.7 2.5 29 9c1 .3 2.1-.2 2.4-1.2.3-1-.2-2.1-1.2-2.4l-29.1-9.1c-.1 0-.2-.1-.3-.1l-13.8-2.5h-.2l-1.1-.2-.6-.1h-.1l-30.4-5.3c-1-.2-2 .5-2.2 1.5s.5 2 1.5 2.2l32.3 5.7zM147.6 463.7c4.2-1.7 8.1-3.9 11.8-6.5l47.6 3.6c1 .1 2-.7 2-1.8.1-1-.7-2-1.8-2l-48.3-3.6c-.5 0-1 .1-1.3.4-3.6 2.6-7.4 4.8-11.5 6.4-4.1 1.7-8.4 2.8-12.8 3.4-1 .1-1.8 1.1-1.6 2.1.1 1 1.1 1.8 2.1 1.6 4.8-.6 9.4-1.8 13.8-3.6zM118.7 429c.6-.8.5-2-.3-2.7-.8-.6-2-.5-2.7.3-1.6 2.1-2.8 4.5-3.4 7s-.7 5.2-.3 7.8c.5 2.6 1.4 5.1 2.9 7.2 1.4 2.2 3.3 4 5.6 5.5.9.6 2.1.3 2.6-.6.6-.9.3-2.1-.6-2.6-1.8-1.1-3.3-2.6-4.4-4.4-1.1-1.7-1.9-3.7-2.3-5.8-.4-2.1-.3-4.2.2-6.2.5-1.9 1.5-3.8 2.7-5.5z"/><path class="st2" d="M172.1 281.9c2.9 0 5.8-2.4 6.3-5.4l2-10.8c.5-2.9-1.4-5.4-4.4-5.4-2.9 0-5.8 2.4-6.3 5.4l-2 10.8c-.5 3 1.5 5.4 4.4 5.4z"/><path d="M105.3 509.1c16.3 53.4 24.5 80 24.5 80 17.3-7 32.4-18.4 44-33-18.8-16.9-24.5-44-14-67-13.4 15.9-34.1 23.5-54.5 20z" style="fill-rule:evenodd;clip-rule:evenodd;fill:#fa480d"/><path class="st9" d="M137.2 504c-1 .4-1.4 1.5-1 2.5s1.5 1.4 2.5 1c10.3-4.3 18.2-12 22.7-21.4s5.7-20.4 2.6-31.1c-.3-1-1.3-1.6-2.4-1.3-1 .3-1.6 1.3-1.3 2.4 2.8 9.8 1.7 19.8-2.4 28.4-4.2 8.5-11.3 15.7-20.7 19.5z"/><path class="st11" d="M808.9 866.8c11.7-10.7 22.7-22.1 33.2-34.1 0 0-9.5-88.2-28.4-264.6 3.7 56.8-6.9 114.1-31.7 172 0 0 8.9 42.2 26.9 126.7zM227.5 715.8c38.9-1.9 147.3-46.1 184-60.5-16.6-32.6-28.9-62.9-37.1-91-66.4 21.7-67.5 73.1-83.3 103.2-10.7 20.5-31.8 26.8-49.9 21.5-49.6-14.5-23.2-103.4-122.9-86.9 17.7 28.1 61.7 91.6 88.1 107.5 7 4.1 14.1 6.6 21.1 6.2z"/><path class="st11" d="M480 978.8c98.3 8.5 196.5-16.9 278.3-72l5.7-173.1c29-63 37-127.6 24.3-193.8 7.1-14.1-24.3-31.6-94.3-52.6-6.5 40.9-34.3 60.9-83.2 59.9-89.3 123.8 124.3 189 22.6 351.3-33.4 53.1-92.4 83-153.4 80.3z"/><path class="st12" d="M384.3 593.8c12 28.9 24 51.2 36.1 67 0 0 2 41.1 5.9 123.2 2.7 42.9 6.6 105.7 11.8 188.6 15.9 3 32 5.1 48.2 6.4 78-15 121.5-116.5 66.9-174-15.1-15.9-35.8-27.3-57.1-42.3-13.6-9.6-25.1-20.8-30.5-37.7-7.2-22.6 1-42.2 6.1-61 15-56-42.2-92.2-87.4-70.2z"/><path class="st12" d="M285.6 642.3c3.8-5.7 6.4-12.7 9.1-20.2 11.3-30.6 33-52.4 58.9-60.8 65.5-21.1 86.6 52.3 158.3 19.8 28.6-13 48-40.2 50.9-71.5-9.3-14.4-18.8-25-28.7-32.1-9.5.8-21.3 1.6-35.6 2.4-7.4.4-20.6 1.5-39.5 3.4-10.2 1.1-19.4 2.8-27.6 5.1-14.9 4.4-28 12.5-39.2 24-73.9 54.7-110.9 82-110.9 82-5.1 3.8-10.4 7.7-15.9 11.8-.9.9-2.7.7-5.5-.6-18.7-21.9-41.7-48.9-69.2-81.1-.1 1.3-.6 2.9-1.4 4.8-.8 1.7-1.6 3.4-2.4 5.3-2.1 4.7-4.9 9.8-8.6 15.3 31.6 20.6 36.9 54.7 45.8 78.8 11.6 31.1 44.5 39.3 61.5 13.6z"/><path class="st13" d="M238.7 701.4c-1.7 1.3-2 3.7-.7 5.3 1.3 1.7 3.7 2 5.3.7 15.5-11.9 25.6-28.4 29.6-46.3s1.9-37.2-7.1-54.5c-1-1.9-3.3-2.6-5.1-1.6-1.9 1-2.6 3.3-1.6 5.1 8.1 15.7 10.1 33.1 6.5 49.3-3.7 16.3-12.9 31.3-26.9 42z"/><path class="st2" d="M652.4 413.8c.4-.6.8-1.2 1.2-1.7.8-1.5 1.8-2.9 2.9-4.2.1-.3.3-.5.4-.8 1-3 2.5-5.7 4.5-8l.4-.5c.7-1.4 1.6-2.7 2.5-3.9.8-1.6 1.7-3.1 2.8-4.5l.2-.4c.5-1.1 1.2-2.1 1.8-3 1.1-2.1 2.4-3.8 3.8-5.7 2.3-3.1 5.2-5.4 8.4-7-19.8-1.5-46.8 8.3-80.9 29.4l4.2 2.5c.5.3 1.1.7 1.6 1 3.4.7 6.5 2.1 9.2 4.1.7.3 1.3.6 2 .9l3 1.2c1.9.4 3.6 1 5.3 1.8 5.2 1.7 9.7 5.2 12.6 9.7l1 1.5c3.2 4.8 4.5 10.4 3.9 15.8 1.5-.9 3.2-1.7 4.9-2.2-1.2-2.9-1.9-6-1.9-9.3 0-4.1 1-7.9 2.8-11.3.9-2 2-3.8 3.4-5.4zM549.9 474.8c-.5.3-1.4-.4-2-.3-4.7.9-9.3 1.8-13.7 3 45 99.5 172.5 94.6 158.9 1.5-3.8-1.2-7.7-2.3-11.9-3.3-5.1 9.3-15 15-25.8 12.3l-.7-.2c-1.4-.3-2.8-.8-4.2-1.4l-1.5-.6c-1-.4-2.1-.8-3.1-1.4-.3-.1-.6-.3-.9-.4-9.1-4.4-14.4-14-13.4-24-8.3 5-18.5 4.4-26-.9l-.5-.3c-1.1-.4-2.2-.8-3.3-1.3l-1-.5c-.3 6.1-3 11.7-7.1 15.7-1.2 1.2-2.5 2.3-4 3.3l-.3.2c-.6.5-1.2 1-1.9 1.5-1.4 1.2-2.8 2.2-4.4 3-1.6 1-3.4 1.8-5.2 2.3l-.5.2c-2.7.9-5.4 1.3-8.1 1.2h-.2c-8 0-14.9-3.3-19.2-9.6zM559.6 438.5c-1.6-.7-3.2-1.5-4.6-2.5l-.3 1.8c.6.7 1.2 1.5 1.8 2.3 1-.5 2-1.1 3.1-1.6z"/><path class="st8" d="m566.2 440.6-4.7 31.7-13.7 2.2c37.1 85.7 146.7 81.3 133.2 1.2-6.5-2.5-9.8-3.7-9.8-3.7-2-27.1 1.6-54.3 10.5-79.9-22.5-9-61 7.2-115.5 48.5z"/><path class="st14" d="M661.1 415.6c-3.4-2.5-35.8 11.1-97.2 40.8 0 0-.8 5.3-2.4 16 0 0-4.6.7-13.7 2.2 13.1 27.8 30.9 46.5 53.5 56 .1-.2 20-38.4 59.8-115z"/><path class="st15" d="M673.4 399.8c-8.2-11.8-44.7 7.1-109.5 56.6 0 0-.8 5.3-2.4 16 51 4.3 88.3-19.9 111.9-72.6z"/><path class="st16" d="M538.9 428.9c0 7 1.9 12.7 5.7 17 7.8 9 21.3 11.5 35.6 10.6 45.7-2.9 76.4-30.9 100.8-67.5 23.6-33 20.9-78.1-6.4-108.1-27.3-30-71.8-37-107-16.7-17.1 12.8-35 35.3-31.9 57.6.5 3.8 1.3 8.1 1.8 14 .8 8.3-3.8 12.1-8.1 20.2-9.7 18.6 4.2 53 9.5 72.9z"/><path d="M538.9 428.9c0 7 1.9 12.7 5.7 17 6.8 7.8 18 10.8 30.2 10.8-34-46.4-37.3-111-3.5-161.6 11.8-17.8 27-32 44.1-42.3-16.2-.9-32.8 2.8-47.7 11.4-17.1 12.8-35 35.3-31.9 57.6.5 3.8 1.3 8.1 1.8 14 .8 8.3-3.8 12.1-8.1 20.2-9.8 18.6 4.1 53 9.4 72.9z" style="fill-rule:evenodd;clip-rule:evenodd;fill:#ffecd1"/><path class="st14" d="M620.8 356c-21.3 32.1 15.8 56.9-1.1 83.8 23.4-13.5 41.9-32.5 55.7-57 19-20.3 24-50 12.6-75.4s-37-41.4-64.8-40.6c15.4 5.8 26.1 19.9 27.6 36.3 1.2 13.2-2.9 21.9-8.7 29.2-6.6 8.3-15.4 14.7-21.3 23.7z"/><path class="st15" d="M656.8 364.2c14.1 1.9 21.2 2.9 21.2 2.9 15.8-16 5.4-24.8-31.1-26.4-.6 13.2-9 24.7-21.3 29.3-12.4 4.6-26.2 1.3-35.2-8.4 6.6 11.9 18.9 19.5 32.5 20.1 13.5.4 26.4-6.2 33.9-17.5z"/><path class="st7" d="M610.7 209.2c-1-4.7-4.6-7.7-9.5-8.9-32.7-8.5-64.1 36.8-33.5 64 37.6-10.8 77.8 4.8 98.3 38.1-13.3 22.5 21.9 32.2 6 67.2 10.1-12.4 20.9-21.5 38.3-20.2 18.6-31.2 15.6-70.6-7.3-98.7-22.9-28.1-61-38.9-95.2-27 2.9-6 3.7-10.8 2.9-14.5z"/><path class="st18" d="M593.7 306.3c6.8-2 13.8-2 20.4-.3 6.6 1.7 12.8 5.1 17.7 10.1 1 1 2.6 1 3.6 0s1-2.6 0-3.6c-5.7-5.6-12.6-9.5-20.1-11.4s-15.4-1.8-23.1.4c-1.4.4-2.1 1.8-1.7 3.2.4 1.2 1.9 2 3.2 1.6zM532.1 309.4c3.8-2.9 8.1-4.8 12.6-5.7 4.5-.9 9.3-.8 13.8.4 1.4.4 2.8-.5 3.1-1.8.4-1.4-.5-2.8-1.8-3.1-5.3-1.4-10.8-1.5-16.1-.5s-10.3 3.3-14.7 6.6c-1.1.8-1.3 2.5-.5 3.6.9 1.1 2.5 1.4 3.6.5z"/><circle class="st19" cx="608.8" cy="336.3" r="4"/><path class="st19" d="M550.8 334.4c0-2.2-1.8-3.9-3.9-3.9-2.2 0-3.9 1.8-3.9 3.9 0 2.2 1.8 3.9 3.9 3.9s3.9-1.8 3.9-3.9z"/><path class="st2" d="M538 324.5c0-3.2-2.6-5.8-5.8-5.8s-5.8 2.6-5.8 5.8c0 3.2 2.6 5.8 5.8 5.8 3.3-.1 5.8-2.7 5.8-5.8zM602.9 329.8c0-3.2-2.6-5.8-5.8-5.8s-5.8 2.6-5.8 5.8c0 3.2 2.6 5.8 5.8 5.8 3.2-.1 5.8-2.7 5.8-5.8z"/><path class="st15" d="M569.7 401.9c9.5-.6 18.7-4.6 25.7-12 1-1 .9-2.6-.1-3.6s-2.6-.9-3.6.1c-6.1 6.4-14.1 9.9-22.3 10.4s-16.6-2-23.4-7.7c-1.1-.9-2.7-.8-3.6.3-.9 1.1-.8 2.7.3 3.6 7.9 6.5 17.6 9.4 27 8.9zM581.8 408c.4-.5.4-1.2 0-1.6-.5-.4-1.2-.4-1.6 0-2.7 2.9-6.4 4.5-10.1 4.7-3.7.2-7.5-.9-10.6-3.5-.5-.4-1.2-.3-1.6.1-.4.5-.3 1.2.1 1.6 3.5 2.9 7.9 4.2 12.2 4 4.3-.1 8.5-1.9 11.6-5.3z"/><path d="M660.2 294.1c2.1 2.6 4 5.4 5.8 8.3-13.3 22.5 21.9 32.2 6 67.2 10.1-12.4 20.9-21.5 38.3-20.2 18.6-31.2 15.6-70.6-7.3-98.7-3.5-4.3-7.4-8.3-11.6-11.8 2 7.2 2.2 15 .2 22.7-4.1 16.2-16.4 28.2-31.4 32.5z" style="fill-rule:evenodd;clip-rule:evenodd;fill:#300200"/><path class="st21" d="M592.5 364c5.9 5.9 14.1 9.6 23.1 9.6s17.2-3.7 23.1-9.6c5.7-5.7 9.3-13.5 9.5-22.2l54.7 8.1 17.6 10.9c.9.6 2.1.3 2.6-.6.6-.9.3-2.1-.6-2.6l-17.9-11.1c-.2-.2-.5-.3-.8-.3l-55.8-8.3c-.7-7.8-4.2-14.8-9.4-20.1-5.9-5.9-14.1-9.6-23.1-9.6s-17.2 3.7-23.1 9.6c-2.2 2.2-4.1 4.7-5.6 7.5-.7-.7-1.5-1.3-2.4-1.8-1.8-1.1-3.8-1.9-6-2.1-2.1-.3-4.3 0-6.3.6-1 .3-2.1.8-3 1.4-1.5-3.6-3.6-6.8-6.3-9.5-5.4-5.7-12.9-9.1-21.2-9.1s-15.7 3.5-21.2 9.1c-5.4 5.6-8.7 13.4-8.7 22s3.3 16.3 8.7 22 12.9 9.1 21.2 9.1 15.7-3.5 21.2-9.1c5.4-5.6 8.7-13.4 8.7-22 0-3-.4-5.9-1.2-8.7.9-.6 1.9-1.1 2.9-1.5 1.5-.5 3.1-.6 4.7-.5 1.6.2 3.1.7 4.4 1.6 1 .6 1.9 1.4 2.6 2.3-1.4 3.7-2.2 7.6-2.2 11.8.2 9.1 3.9 17.2 9.8 23.1zm-32.3-8.8c-4.7 4.9-11.2 8-18.4 8s-13.7-3-18.4-8c-4.7-4.9-7.7-11.8-7.7-19.3s2.9-14.4 7.7-19.3c4.7-4.9 11.2-8 18.4-8s13.7 3 18.4 8c4.7 4.9 7.7 11.8 7.7 19.3s-3 14.4-7.7 19.3zm35-34.6c5.2-5.2 12.4-8.4 20.4-8.4s15.1 3.2 20.4 8.4c5.2 5.2 8.4 12.4 8.4 20.4s-3.2 15.1-8.4 20.4c-5.2 5.2-12.4 8.4-20.4 8.4s-15.2-3.2-20.4-8.4c-5.2-5.2-8.4-12.4-8.4-20.4s3.2-15.2 8.4-20.4z"/><path class="st14" d="M576.3 328.8c-9.3 4.5-55.7 49-10.8 45.5 2.4-2.5 6-3.5 9.4-2.7 3.2 1.3 6.8.3 9-2.3 2.2-2.6 2.5-6.3.7-9.3-1.8-2.9-5.2-4.4-8.6-3.6 2.6-14.6 3.8-21.8 3.8-21.8.6-5.4-.6-7.3-3.5-5.8z"/><path class="st16" d="M709.3 383.8c9.4-11.7 9.8-27 1-34.1s-23.6-3.3-33 8.4c-9.4 11.7-9.8 27-1 34.1 8.9 7.1 23.6 3.3 33-8.4z"/><path class="st14" d="M705.5 382c5.7-7.1 5.9-16.2.6-20.5-5.3-4.3-14.2-2-19.9 5.1s-5.9 16.2-.6 20.5c5.3 4.2 14.2 1.9 19.9-5.1z"/><path class="st15" d="M697.4 373.4c2.9-3.7 3.1-8.5.3-10.7s-7.4-1-10.4 2.7c-2.9 3.7-3.1 8.5-.3 10.7 2.8 2.2 7.4 1 10.4-2.7z"/><path d="M608.8 204.9c-1.7-2.3-4.4-3.8-7.6-4.6-32.7-8.5-64.1 36.8-33.5 64 7.3-2.1 14.7-3.2 22-3.3-3.2-7.8-4.2-16.5-2.5-25.4 2.4-13.5 10.6-24.3 21.6-30.7z" style="fill-rule:evenodd;clip-rule:evenodd;fill:#ab410c"/><path class="st21" d="M420.6 666.1c.1 1.7 0 3.4-.3 5.1l20.8 22.2c2.2 2.3 5.9 2.5 8.2.4l.1-.1 54.1-50.9c1.2-1.1 1.8-2.6 1.9-4.1 0-1.5-.5-3.1-1.6-4.2L453 580.2c-2.2-2.4-6-2.5-8.4-.3l-48.1 45.2c1 .8 1.8 1.6 2.7 2.6l48-45.1c.9-.8 2.3-.8 3.2.1l50.9 54.1c.4.4.6 1 .6 1.6 0 .6-.3 1.1-.7 1.6L447 690.9c-.9.9-2.3.8-3.2-.1l-23.2-24.7z"/><path class="st21" d="M502 638.4c-.1 1.5.5 3.1 1.6 4.2l50.9 54.1c1.1 1.2 2.6 1.8 4.1 1.9 1.5 0 2.9-.4 4.1-1.5l.1-.1 54.1-50.9c1.2-1.1 1.8-2.6 1.9-4.1 0-1.5-.5-3.1-1.6-4.2l-50.9-54.1c-1.1-1.2-2.6-1.8-4.1-1.9-1.5 0-3.1.5-4.2 1.6l-54.1 50.9c-1.2 1.1-1.8 2.6-1.9 4.1zm4.4-1.4 54.1-50.9c.4-.4 1-.6 1.6-.6s1.1.3 1.6.7l50.9 54.1c.4.4.6 1 .6 1.6 0 .6-.3 1.1-.7 1.6l-54.1 50.9-.1.1c-.4.4-1 .5-1.5.5-.6 0-1.1-.2-1.6-.7l-50.9-54.1c-.4-.4-.6-1-.6-1.6 0-.6.3-1.2.7-1.6zM728.7 645.4c0 1.5.5 3.1 1.6 4.2l50.9 54.1c2.2 2.4 6 2.5 8.4.3l14.6-13.8v-1.1c0-1.5.2-3 .5-4.5L787 701.2c-.9.8-2.3.8-3.2-.1l-50.8-54c-.4-.4-.6-1-.6-1.6 0-.6.3-1.1.7-1.6l54.1-50.9c.9-.8 2.3-.8 3.2.1l23.9 25.4v-3.3c0-.7 0-1.4.1-2l-21.3-22.7c-2.2-2.4-6-2.5-8.4-.3l-54.1 50.9c-1.1 1.2-1.8 2.7-1.9 4.3z"/><path class="st21" d="m792.9 590.8 21.7 23c.1-.2.1-.5.2-.7l-21.6-23c-2.4-2.3-6.2-2.3-8.6-.1l-53.9 50.7-50.9-54.1c-2.4-2.3-6.2-2.3-8.6-.1l-53.8 50.6-50.8-54.1c-2.4-2.3-6.2-2.3-8.6-.1l-53.9 50.7-51.1-53.9c-2.4-2.3-6.2-2.3-8.6-.1l-48 45.1c.2.1.3.3.5.4l47.9-45.1c1.7-1.6 4.1-2 6.2-1 .8.4 1.4.8 2 1.5l50.5 53.7c-.8.8-1.3 1.8-1.6 2.9-.1-.2-.3-.5-.4-.6l-50.7-53.9-.2-.2c-1-1-2.6-1.1-3.6-.1l-47.9 45c.1.2.3.3.4.5l47.9-45.1c.7-.7 1.9-.7 2.6 0l51 54.2c.3.3.5.8.5 1.2 0 .6-.1 1-.6 1.5l-54.1 50.9c-.7.7-1.8.7-2.5.1l-.2-.2-25-26.5c.1.4.2.8.2 1.1l24.1 25.6c.3.3.6.6 1 .8.9.4 2.1.2 2.8-.5l54.1-50.9c.2-.2.3-.4.4-.6.2 1.1.7 2.2 1.4 3l-53.9 50.7-.1.1c-2.3 2-5.7 1.9-7.8-.3l-21.9-23.2c0 .3 0 .6-.1.9l21.7 23c2.3 2.3 6 2.3 8.5.2l.1-.1 53.9-50.7 50.8 54.2.1-.1c2.3 2.3 6.1 2.3 8.5.2l.1-.1 53.8-50.6 50.8 54.1h.1c2.3 2.3 6 2.3 8.5.2l.1-.1 53.9-50.7 50.9 54.1c1.1 1.1 2.6 1.7 4.1 1.7 1.7.1 3.2-.6 4.5-1.7l13.1-12.4v-.9l-13.6 12.8-.1.1c-1.7 1.5-4 1.8-6 .9-.8-.4-1.4-.8-2-1.5l-50.5-53.7c.8-.8 1.3-1.8 1.6-2.9.1.2.3.4.4.6l50.7 53.9c.3.3.6.6 1 .8.9.4 2.1.2 2.8-.5l16.6-15.6c.1-.4.3-.8.4-1.3L786.6 701c-.6.5-1.4.6-2.1.3-.1-.1-.5-.3-.6-.4L733 646.7c-.2-.2-.3-.4-.4-.6-.1-.2-.1-.5-.1-.7 0-.6.2-.9.6-1.3l54.1-50.9c.6-.5 1.4-.7 2.1-.3.2.1.3.2.5.3l23.5 24.9c0-.3.1-.5.1-.8L790.6 593c-.3-.3-.6-.6-1-.8-.6-.3-1.3-.3-2-.1-.3.1-.6.3-.8.5l-53.9 50.7c-.3.3-.5.5-.7.8-.2-1.1-.7-2.2-1.4-3l53.9-50.7c2.5-1.9 6.1-1.8 8.2.4zm-289 43.9c1.4 1.6 1.7 4 .8 5.9-.3.6-.6 1.1-1.1 1.6-1.8-2.1-1.7-5.4.3-7.5zm58.8 62.2c-2.4 2.1-5.8 2-7.9-.2l-.2-.2-50.5-53.7c.8-.8 1.3-1.8 1.6-2.9.1.2.3.4.4.6l50.7 53.9c.3.4.6.6 1 .8.9.4 2.1.2 2.8-.5l54.1-50.9c.1-.1.3-.3.4-.5.2 1.1.7 2.1 1.4 3l-53.8 50.6zm-56-59.7 54.1-50.9c.6-.5 1.4-.7 2.1-.3.2.1.3.2.5.3l50.9 54.2c.4.4.6.9.6 1.5 0 .5-.2 1-.6 1.3l-54.1 50.9c-.5.5-1.4.6-2.1.3-.2-.1-.5-.3-.6-.4l-50.9-54.2c-.2-.2-.3-.4-.4-.6-.1-.2-.1-.5-.1-.7 0-.6.2-1 .6-1.4zm110.1.6c-.8.8-1.3 1.8-1.5 2.8-.1-.1-.2-.3-.3-.4 0 0-46.4-49.4-50.8-54-.3-.3-.6-.6-1-.8-.6-.3-1.3-.3-2-.1-.3.1-.6.3-.8.5l-53.9 50.7c-.3.3-.5.5-.7.8-.2-1.1-.7-2.2-1.4-3l53.9-50.7c2.3-2.1 5.8-2 7.9.2l.2.2 50.4 53.8zm110.8 8.9-54.1 50.9c-.7.7-1.8.7-2.5.1l-.2-.2-50.8-54c-.5-.5-.6-.9-.6-1.6.1-.5.3-.8.6-1.2l54.1-50.9c.2-.2.4-.3.6-.4.7-.3 1.4-.1 2 .4l51 54.2c.3.3.5.7.5 1.2 0 .7-.1 1.1-.6 1.5z"/><path class="st13" d="M394.2 607.9c-7.2-18-11.9-37.1-13.8-56.6-.2-2.1-2-3.6-4.1-3.4-2.1.2-3.6 2-3.4 4.1 2 20.3 6.8 40 14.3 58.7 7.4 18.4 17.3 35.7 29.5 51.4l8.3 119.2c.1 2.1 2 3.7 4 3.5 2.1-.1 3.7-2 3.5-4l-8.4-120.4c-.1-.8-.3-1.5-.8-2.1-12-15.3-21.8-32.4-29.1-50.4zM767.8 864.1c-.1 2.1 1.5 3.9 3.6 3.9 2.1.1 3.9-1.5 3.9-3.6l4.6-113.1c16.1-29 27-60.3 32.6-92.5 5.6-32.5 5.6-65.9-.1-98.9-.4-2.1-2.3-3.5-4.4-3.1-2.1.4-3.5 2.3-3.1 4.4 5.6 32.1 5.5 64.7.1 96.3-5.4 31.7-16.2 62.4-32.1 90.8-.3.5-.5 1.1-.5 1.7l-4.6 114.1z"/><path class="st11" d="M485 367.6v-18.4c0-15.2-12.5-27.7-27.7-27.7h-144c-15.2 0-27.7 12.5-27.7 27.7v18.4c0 15.2 12.5 27.7 27.7 27.7H418l66.7 53.4-23-53.7c13.1-2.1 23.3-13.6 23.3-27.4z"/><path class="st2" d="M361.7 359.2c0-3.4-2.8-6.2-6.2-6.2-3.4 0-6.2 2.8-6.2 6.2 0 3.4 2.8 6.2 6.2 6.2 3.4 0 6.2-2.8 6.2-6.2zM389.9 359.2c0-3.4-2.8-6.2-6.2-6.2-3.4 0-6.2 2.8-6.2 6.2 0 3.4 2.8 6.2 6.2 6.2 3.5 0 6.2-2.8 6.2-6.2zM416.9 359.2c0-3.4-2.8-6.2-6.2-6.2-3.4 0-6.2 2.8-6.2 6.2 0 3.4 2.8 6.2 6.2 6.2 3.5 0 6.2-2.8 6.2-6.2zM405 279.2c0-3.4-2.8-6.2-6.2-6.2-3.4 0-6.2 2.8-6.2 6.2 0 3.4 2.8 6.2 6.2 6.2 3.4 0 6.2-2.8 6.2-6.2zM443.8 294.2c0-1.7-1.4-3.1-3.1-3.1s-3.1 1.4-3.1 3.1 1.4 3.1 3.1 3.1c1.7 0 3.1-1.4 3.1-3.1zM497.7 280.9c0-1.4-1.2-2.6-2.6-2.6s-2.6 1.2-2.6 2.6 1.2 2.6 2.6 2.6 2.6-1.2 2.6-2.6zM473.5 501.5c0-1.4-1.2-2.6-2.6-2.6s-2.6 1.2-2.6 2.6 1.2 2.6 2.6 2.6 2.6-1.2 2.6-2.6zM560.5 535.8c0-1.7-1.4-3.1-3.1-3.1-1.7 0-3.1 1.4-3.1 3.1 0 1.7 1.4 3.1 3.1 3.1 1.7 0 3.1-1.4 3.1-3.1zM329.8 472c0-3.4-2.8-6.2-6.2-6.2-3.4 0-6.2 2.8-6.2 6.2 0 3.4 2.8 6.2 6.2 6.2 3.4-.1 6.2-2.8 6.2-6.2zM743.1 462.1c0-3.4-2.8-6.2-6.2-6.2s-6.2 2.8-6.2 6.2c0 3.4 2.8 6.2 6.2 6.2 3.5 0 6.2-2.8 6.2-6.2zM734.8 540.4c0-1.7-1.4-3.1-3.1-3.1-1.7 0-3.1 1.4-3.1 3.1 0 1.7 1.4 3.1 3.1 3.1 1.8 0 3.1-1.4 3.1-3.1zM690.6 771.1c0-1.7-1.4-3.1-3.1-3.1-1.7 0-3.1 1.4-3.1 3.1 0 1.7 1.4 3.1 3.1 3.1 1.7-.1 3.1-1.4 3.1-3.1zM516.5 776.3c0-1.7-1.4-3.1-3.1-3.1-1.7 0-3.1 1.4-3.1 3.1 0 1.7 1.4 3.1 3.1 3.1 1.7 0 3.1-1.4 3.1-3.1zM196 621.7c0-1.7-1.4-3.1-3.1-3.1-1.7 0-3.1 1.4-3.1 3.1 0 1.7 1.4 3.1 3.1 3.1s3.1-1.4 3.1-3.1zM67.8 484.3c0-3.4-2.8-6.2-6.2-6.2-3.4 0-6.2 2.8-6.2 6.2 0 3.4 2.8 6.2 6.2 6.2 3.4-.1 6.1-2.8 6.2-6.2zM160.8 90.2c0-3.4-2.8-6.2-6.2-6.2s-6.2 2.8-6.2 6.2c0 3.4 2.8 6.2 6.2 6.2 3.5-.1 6.2-2.8 6.2-6.2z"/></svg>