<svg version="1.1" id="Layer_1" xmlns="http://www.w3.org/2000/svg" x="0" y="0" viewBox="0 0 700 933" style="enable-background:new 0 0 700 933" xml:space="preserve"><style>.st2{fill-rule:evenodd;clip-rule:evenodd;fill:#1b324f}.st11,.st12,.st13,.st14,.st3,.st6,.st7{fill-rule:evenodd;clip-rule:evenodd;fill:#797979}.st11,.st12,.st13,.st14,.st6,.st7{fill:#0b427d}.st11,.st12,.st13,.st14,.st7{fill:#001944}.st11,.st12,.st13,.st14{fill:#f6773e}.st12,.st13,.st14{fill:#d82e10}.st13,.st14{fill:#e13719}.st14{fill:#bb1d02}.st15{fill:#ff8b55}.st15,.st18,.st19{fill-rule:evenodd;clip-rule:evenodd}.st19{fill:#fff}.st20{fill:#bb1d02}.st22{fill-rule:evenodd;clip-rule:evenodd;fill:#316cab}.st24{fill:#000a1a}.st27{fill:#e13719}.st28,.st29,.st30,.st31{fill-rule:evenodd;clip-rule:evenodd;fill:#e4e4e4}.st29,.st30,.st31{fill:#235c98}.st30,.st31{fill:#5e99d8}.st31{fill:#00204e}.st32{fill:#265787}</style><path d="M570.4 920.4c-7 7-9.4 16.9-7.2 26.8 2.2 9.8 9.2 19.7 19.7 27.8 10.4 8.1 22 13.2 32 15.5 9.8 2.2 18 1.7 22.6-3 4.7-4.7 5.2-12.9 3-22.6-2.3-10-7.4-21.6-15.5-32s-18-17.4-27.8-19.7c-9.9-2.2-19.8.3-26.8 7.2" style="fill-rule:evenodd;clip-rule:evenodd;fill:#008d69"/><path d="M558.3 1088.4c2.1-1.3 4.1-2.7 6.2-4 0 0-5.5-37.4-16.4-112.3-34.1-84.3-116.5-139-207.4-137.7S169 892.6 137.2 977.8c-16.9 137.3-25.3 206-25.3 206 74.1 11 149.5 9.2 222.9-5.2l16.2-66c10.4 39.8 15.3 59.5 14.7 59.1 68.4-17.2 133.4-45.3 192.6-83.3" style="fill-rule:evenodd;clip-rule:evenodd;fill:#000d1e"/><path class="st2" d="M437.7 916.2c76 54.1 114.1 81.2 114.1 81.2s4.2 29 12.7 87c-24.7 16.3-50.5 30.8-77.1 43.5-.1 0-16.6-70.6-49.7-211.7M320.3 995.1c14 47.7 24 88 29.9 120.8l-15.6 62.7c-21.9 4.3-44 7.5-66.3 9.5 0 0 17.4-64.4 52-193"/><path class="st3" d="M241.4 850.4c147.8-7.3 218.8 12 213.1 58-79.5 40.8-174.8 35.9-249.7-12.8-10.4-10.6-11.1-27.4-1.8-38.9s25.8-14.2 38.4-6.3"/><path d="M250.9 364.6c82.6-35.4 189.2-62.7 216.2 35l-10.2 467.6c-77.9 44.6-174.7 39.3-247.2-13.6 27.5-326 41.2-489 41.2-489" style="fill-rule:evenodd;clip-rule:evenodd;fill:#e6e6e6"/><path d="M236.5 741.7c-10.5-51.2 16.5-102.6 64.6-123s103.9-4.1 133.3 39.1c29.5 43.1 24.5 101-12 138.4 0 0-14.9-6.6-44.8-19.7L291.2 724s-18.2 5.9-54.7 17.7" style="fill-rule:evenodd;clip-rule:evenodd;fill:#b3b3b3"/><path class="st6" d="M121.9 365.3c-13.1 180.3-12.2 288.2 2.6 323.8-11.2 81.9-25.7 165.4-35.6 247.1-1.7 14.2-2.6 25.7-1.8 31.1.9 6.3 3.8 9.5 7.8 11.1 16.3 6.6 89.8-5.6 103.6-23.2 7.6-9.6 7.3-24.6 14.9-64.8 0 0 8.4-53.7 25.2-161 .1-132 .8-232.9 2-302.8 23.3-64.4 10.5-94.4-38.5-90.2-.2-.1-26.8 9.5-80.2 28.9"/><path class="st7" d="M232.4 584.2c9 19.8 8.9 43.1-1.8 63.3-92.6 55.5-127-33.7-103.1-267.8-2 64 24.3 125.2 71.4 167.7l-24.8-185.1s11.1-1.9 33.3-5.6c0 0-5.7-5.4-17.2-16.2 3.2-1.2 4.8-1.7 4.8-1.7 43.2-2.8 56.2 8.6 39.1 34 17.7 127.1 17.2 197.6-1.7 211.4M239.6 716.7c-9.5-54.7-51.1-41.6-124.9 39.5 0 0-1.4 9.3-4.2 27.8 0 0 42-14.1 125.9-42.2 2.2-16.8 3.2-25.1 3.2-25.1"/><path d="M270.7 285.3c3.2 40.4 37 71.5 77.5 71.5s74.3-31.1 77.5-71.5c-43.7-40.6-111.3-40.6-155 0" style="fill-rule:evenodd;clip-rule:evenodd;fill:#f6ead1"/><path d="M363.6 405.9c-20.3 6.6-30.4 9.9-30.4 9.9-38.6 284-58 426-58 426 35.4 33.2 53 49.8 53 49.8 34.6-32.3 52-48.5 52-48.5-11.1-291.4-16.6-437.2-16.6-437.2" style="fill-rule:evenodd;clip-rule:evenodd;fill:#690fea"/><path d="M375.2 712.6c-49.3-57-74.6-72.6-76.1-46.6 0 0-2.6 19.3-7.9 58 8.3 16.4 37.1 33.9 86.4 52.5l-2.4-63.9" style="fill-rule:evenodd;clip-rule:evenodd;fill:#520ac4"/><path class="st11" d="M424.5 303.8c1.8 28.4-12.6 55.3-37.3 69.5a74.453 74.453 0 0 1-78.8-2.8c-23.6-15.9-36.1-43.8-32.3-71.9 3.1-19.1 4.6-28.6 4.6-28.6 90.1 0 135.1.1 135.1.1 5.8 22.4 8.7 33.7 8.7 33.7"/><path class="st12" d="M424.3 316.3c-.8 18.1-9.8 34.8-24.4 45.5s-33.3 14.1-50.7 9.4c0 0-17.7-24.7-53.2-74.2l117.6-21.6c7.1 27.3 10.7 40.9 10.7 40.9"/><path class="st11" d="M442.8 170c-13.6.9-27 15.6-30 32.7-3 17.2 5.6 30.4 19.2 29.5s27-15.6 30-32.7c3-17.2-5.6-30.4-19.2-29.5"/><path class="st13" d="M437.3 182.3c-8.2.5-16.4 9.4-18.2 19.8-1.8 10.4 3.4 18.4 11.6 17.8 8.2-.5 16.4-9.4 18.2-19.8 1.9-10.4-3.3-18.4-11.6-17.8"/><path class="st14" d="M431.7 190c-4.9.3-9.8 5.6-10.8 11.8-1.1 6.2 2 11 7 10.7 4.9-.3 9.8-5.6 10.8-11.8 1-6.3-2.1-11-7-10.7"/><path class="st11" d="M251.3 174.5c13.6.9 27 15.6 30 32.7 3 17.2-5.6 30.4-19.2 29.5s-27-15.6-30-32.7c-3-17.2 5.6-30.4 19.2-29.5"/><path class="st13" d="M256.7 186.8c8.2.5 16.4 9.4 18.2 19.8 1.8 10.4-3.4 18.4-11.6 17.8-8.2-.5-16.4-9.4-18.2-19.8-1.8-10.4 3.4-18.4 11.6-17.8"/><path class="st14" d="M262.4 194.5c4.9.3 9.8 5.6 10.8 11.8 1.1 6.2-2 11-7 10.7-4.9-.3-9.8-5.6-10.8-11.8-1.1-6.3 2.1-11 7-10.7"/><path class="st15" d="M431.3 177.6c5.2-34.2-12.1-68-43.6-84.9s-70.5-13.5-98.3 8.7c-27.7 22.1-38.3 58.4-26.6 91.1.7 48.2 29.1 136 86.5 136.5 61.2.5 86-100.5 82-151.4"/><path d="M431.3 177.6c5.2-34.2-12.1-68-43.6-84.9s-70.5-13.5-98.3 8.7c-4.5 3.6-8.5 7.6-12.1 11.8 74.2 4.5 132.9 66 132.9 141.3 0 12.7-1.7 25-4.8 36.6 20.3-33.9 28.3-82.8 25.9-113.5" style="fill-rule:evenodd;clip-rule:evenodd;fill:#ffac80"/><path class="st13" d="M389.7 115.5c-22-32.3-65.6-41.2-98.5-20.1-32.8 21.1-42.9 64.5-22.7 97.9 3.6 47.2 17.8 85.8 42.7 115.8-15.2-31-18.2-66.6-8.6-99.8 43.6-13.7 76.6-49.4 87.1-93.8"/><path d="M427.9 179c11 .3 45.6-122.6-34.4-126-36.1-26-85.3-23.6-118.7 5.7-68.8 60.5-2.4 166.4-7.6 124.9-1-8.1-1.4-19.5 4-30.2C289.6 194 359 178.3 397 102c.1 33.1 26.1 30.2 28.6 63.2.7 7.9.2 13.7 2.3 13.8" style="fill-rule:evenodd;clip-rule:evenodd;fill:#031626"/><path class="st18" d="M306.4 203.5c2 0 3.7 1.7 3.7 3.7v4.2c0 2-1.7 3.7-3.7 3.7s-3.7-1.7-3.7-3.7v-4.2c-.1-2 1.6-3.7 3.7-3.7M387.6 203.5c2 0 3.7 1.7 3.7 3.7v4.2c0 2-1.7 3.7-3.7 3.7s-3.7-1.7-3.7-3.7v-4.2c0-2 1.7-3.7 3.7-3.7"/><path class="st19" d="M399.2 190.8c3.7 0 6.6 3 6.6 6.6 0 3.7-3 6.6-6.6 6.6-3.7 0-6.6-3-6.6-6.6 0-3.7 2.9-6.6 6.6-6.6M318.2 190.8c3.7 0 6.6 3 6.6 6.6 0 3.7-3 6.6-6.6 6.6-3.7 0-6.6-3-6.6-6.6 0-3.7 3-6.6 6.6-6.6"/><path class="st13" d="M357.3 233.4c.6-.1 1.2-.2 1.8-.2 2.4 0 4.5.9 6 2.4s2.3 3.6 2.2 5.9c-.1 2.3-1.1 4.4-2.6 5.9s-3.5 2.4-5.6 2.4c-.3 0-.7 0-1-.1-.6 1.7-1.6 3.2-2.9 4.5-2.1 2.1-4.9 3.4-7.9 3.4s-5.8-1.3-7.9-3.4c-1.3-1.3-2.3-2.8-2.9-4.6-.4.1-.9.1-1.3.1-2.2 0-4.2-.9-5.6-2.4-1.5-1.5-2.5-3.6-2.6-5.9-.1-2.3.7-4.4 2.2-5.9s3.6-2.4 6-2.4c.5 0 1 0 1.5.1 0-2 .1-4.2.4-6.3.9-6.4 2.7-12.2 4.5-16.5 1.8-4.2 3.6-6.8 5.4-6.8 1.9 0 3.7 2.7 5.4 6.8 1.8 4.3 3.6 10.1 4.5 16.5.2 2.3.4 4.5.4 6.5"/><path class="st20" d="M320.9 270.2c-.9-1-.8-2.4.1-3.3 1-.9 2.4-.8 3.3.1 3 3.2 6.5 5.6 10.4 7.3 3.9 1.7 8.1 2.6 12.4 2.6s8.6-.9 12.4-2.6c3.9-1.7 7.4-4.2 10.4-7.3.9-1 2.4-1 3.3-.1 1 .9 1 2.4.1 3.3-3.4 3.6-7.5 6.5-11.9 8.4-4.5 2-9.4 3-14.3 3-5 0-9.8-1-14.3-3-4.4-1.9-8.5-4.7-11.9-8.4M333.4 285.6c-.5-.5-.4-1.3.1-1.8s1.3-.4 1.8.1c1.6 1.7 3.5 3 5.5 3.9 2.1.9 4.3 1.4 6.6 1.4s4.6-.5 6.6-1.4c2.1-.9 4-2.2 5.5-3.9.5-.5 1.3-.5 1.8-.1.5.5.5 1.3.1 1.8-1.8 1.9-4 3.5-6.4 4.5s-5 1.6-7.6 1.6-5.2-.6-7.6-1.6-4.6-2.6-6.4-4.5"/><path d="M349.1 371.2c14.6 0 26.4 11.8 26.4 26.4S363.7 424 349.1 424s-26.4-11.8-26.4-26.4c.1-14.6 11.9-26.4 26.4-26.4" style="fill-rule:evenodd;clip-rule:evenodd;fill:#7703fc"/><path class="st19" d="M390.8 413c25.5-28.6 43.9-62.6 53.7-99.1-.4-12.5-7.6-23.5-18.7-28.7-12.4 35.8-37.1 64.6-74.1 86.3 13.8 13.1 26.9 26.9 39.1 41.5M305.7 413c-25.5-28.6-43.9-62.6-53.7-99.1.4-12.5 7.6-23.5 18.7-28.7 12.4 35.8 37.1 64.6 74.1 86.3-13.9 13.1-26.9 26.9-39.1 41.5"/><path class="st6" d="M540.9 996.4c45.4 4.4 89.6 3.8 100-5.5 7.2-6.4 4-21.4-5.2-58.4-9.2-37.4-23-92.5-41.4-165.9 0 0-1.9-137 12.2-414.3-2.5.5-57.1-15.6-163.9-48.2-.3 144.9-.5 217.3-.5 217.3-16 86-30.5 160.1-43.4 222.5 8.3 60.1 14.7 140.3 33.2 197.3 12.4 37.8 34 47.9 109 55.2"/><path class="st22" d="M187.7 370.7c33.8 239.1 50.7 358.6 50.7 358.6 4.4-46.6 35.4-362 35.9-362.4l-17.9-66.2-67.5 34 40.9 27.8-42.1 8.2z"/><path class="st19" d="m320.8 527.1 68.3-11.8c6.4-1.1 11.6 3.4 11.6 10v115c0 6.6-5.2 12.9-11.6 14L320.8 666c-6.4 1.1-11.6-3.4-11.6-10V541c0-6.5 5.2-12.8 11.6-13.9"/><path d="m323.2 530.9 72.6-12.6c5.2-.9 9.4 2.7 9.4 8.1v119.5c0 5.3-4.2 10.5-9.4 11.4l-72.6 12.6c-5.2.9-9.4-2.7-9.4-8.1V542.3c-.1-5.4 4.2-10.5 9.4-11.4" style="fill-rule:evenodd;clip-rule:evenodd;fill:#0e0e0e"/><path class="st19" d="M332 544c2.8-.4 5 1.5 5 4.3v14c0 2.8-2.3 5.5-5 6-2.8.4-5-1.5-5-4.3v-14c-.1-2.9 2.2-5.6 5-6M307 888.5l47.2 2.2c9.3.4 16.6 8.4 16.1 17.7l-.8 17.7c-.4 9.3-8.4 16.6-17.7 16.1l-47.2-2.2c-9.3-.4-16.6-8.4-16.1-17.7l.8-17.7c.4-9.2 8.4-16.5 17.7-16.1"/><path class="st3" d="m309.7 893.8 41.2 1.9c7.4.3 13.3 6.7 12.9 14.2l-.6 14.2c-.3 7.4-6.7 13.3-14.2 12.9l-41.2-1.9c-7.4-.3-13.3-6.7-12.9-14.2l.6-14.2c.4-7.4 6.8-13.2 14.2-12.9"/><path class="st19" d="m294.5 911.3 36.8 1.7c.9 0 1.6.8 1.6 1.7l-.1 1.7c0 .9-.8 1.6-1.7 1.6l-36.8-1.7c-.9 0-1.6-.8-1.6-1.7l.1-1.7c0-1 .8-1.7 1.7-1.6"/><path d="M354.5 1111.6c.4 1.9-.8 3.8-2.7 4.2-1.9.4-3.8-.8-4.2-2.7L320.3 995c-.4-1.9.8-3.8 2.7-4.2 1.9-.4 3.8.8 4.2 2.7l27.3 118.1z"/><path class="st24" d="M369.9 177.4c-1.8.8-3.9-.1-4.6-1.9-.8-1.8.1-3.9 1.9-4.6 6.2-2.6 12.9-3.6 19.4-2.9 6.5.7 12.9 2.9 18.4 6.8 1.6 1.1 2 3.3.9 4.9-1.1 1.6-3.3 2-4.9.9-4.6-3.1-9.8-5-15.1-5.6-5.4-.6-10.9.2-16 2.4"/><path d="M427.9 179c11 .3 45.6-122.6-34.4-126-10.2-7.3-21.4-12.4-33-15.3 20.1 30.7 21.2 71.7-.4 104.1-8 12-18.3 21.5-29.8 28.5 23.5-9.3 48.7-31.9 66.8-68.3.1 33.1 26.1 30.2 28.6 63.2.6 7.9.1 13.7 2.2 13.8" style="fill-rule:evenodd;clip-rule:evenodd;fill:#082e4e"/><path d="M407.3 189.2c-5.1-5.1-12.2-8.3-20-8.3s-14.8 3.2-19.9 8.3-8.3 12.2-8.3 20 3.2 14.8 8.3 19.9c5.1 5.1 12.2 8.3 19.9 8.3 7.8 0 14.8-3.2 20-8.3 5.1-5.1 8.3-12.2 8.3-19.9 0-7.8-3.2-14.8-8.3-20m-81 0c-5.1-5.1-12.2-8.3-19.9-8.3-7.8 0-14.8 3.2-20 8.3-5.1 5.1-8.3 12.2-8.3 20s3.2 14.8 8.3 19.9c5.1 5.1 12.2 8.3 20 8.3s14.8-3.2 19.9-8.3 8.3-12.2 8.3-19.9c0-7.8-3.2-14.8-8.3-20zm91.3 9.7c0 .1-.1.1-.1.1 1.1 3.2 1.7 6.6 1.7 10.1 0 8.8-3.6 16.7-9.3 22.5-5.7 5.7-13.7 9.3-22.5 9.3s-16.7-3.6-22.5-9.3c-5.7-5.7-9.3-13.7-9.3-22.5 0-3 .4-5.9 1.2-8.7-1-1.3-2.3-2.3-3.7-3.1-1.8-1-4-1.6-6.1-1.5-2.2 0-4.3.6-6.1 1.7-1.5.9-2.8 2-3.8 3.5.7 2.6 1.1 5.4 1.1 8.2 0 8.8-3.6 16.7-9.3 22.5-5.7 5.7-13.7 9.3-22.5 9.3s-16.7-3.6-22.5-9.3c-5.7-5.7-9.3-13.7-9.3-22.5 0-3.1.5-6.2 1.3-9.1-.1-.1-.3-.2-.4-.3l-23.8-22.1c-.7-.7-.8-1.8-.1-2.5s1.8-.8 2.5-.1l23.1 21.4c1.6-3.7 3.9-7 6.7-9.9 5.7-5.7 13.7-9.3 22.5-9.3s16.7 3.6 22.5 9.3c2.9 2.9 5.3 6.5 6.9 10.4 1-1 2.1-1.9 3.4-2.6 2.3-1.4 5-2.1 7.8-2.2 2.8 0 5.5.7 7.9 2 1.2.7 2.3 1.5 3.4 2.4 1.6-3.8 3.9-7.1 6.8-10 5.7-5.7 13.7-9.3 22.5-9.3s16.7 3.6 22.5 9.3c2.4 2.4 4.5 5.3 6 8.4l17.3-25c.6-.8 1.7-1 2.5-.4s1 1.7.4 2.5l-18.7 26.8z" style="fill:#fff"/><path class="st24" d="M323 178.4c1.8.8 3.9-.1 4.6-1.9.8-1.8-.1-3.9-1.9-4.6-6.2-2.6-12.9-3.6-19.4-2.9-6.5.7-12.9 2.9-18.4 6.8-1.6 1.1-2 3.3-.9 4.9 1.1 1.6 3.3 2 4.9.9 4.6-3.1 9.8-5 15.1-5.6 5.4-.6 10.9.2 16 2.4"/><path class="st7" d="M413.9 716.3C537.4 762.8 599.2 786 599.2 786s5.3 21.2 15.9 63.5c-13.8 3.1-84.1-17.3-210.7-61.3-3.7-29.6-5.6-44.4-5.6-44.4 1.7-20.4 6.8-29.5 15.1-27.5"/><path class="st11" d="M312.2 545.7c15.3 38.2 16.1 80.7 2.2 119.4 0 0-10 .6-29.9 1.7 0 0-6.2 3.8-18.7 11.3-16.7-2.3-30.5-14.3-35.1-30.5s.8-33.7 13.8-44.4c6.7-14.5 10.1-21.7 10.1-21.7.9-10.2 9.6-18 19.9-17.7 4-8.4 13-13.2 22.2-11.8 3.1-5.4 9.5-8 15.5-6.3"/><path class="st27" d="M265 599.9c-1.8-.8-2.6-2.8-1.8-4.6.8-1.8 2.8-2.6 4.6-1.8l19 8.2c.3.1.5.3.8.5l21.3 16.6c1.5 1.2 1.8 3.4.6 4.9-1.2 1.5-3.4 1.8-4.9.6l-21-16.4-18.6-8zM273.4 578.7c-1.7-.9-2.5-3-1.6-4.7s3-2.5 4.7-1.6l22.2 11c.2.1.4.2.6.4l15.5 11.8c1.5 1.2 1.8 3.4.7 4.9-1.2 1.5-3.4 1.8-4.9.7l-15.2-11.6-22-10.9zM293.4 564.1c-1.6-1.1-2-3.3-1-4.9 1.1-1.6 3.3-2 4.9-1l17 11.5c1.6 1.1 2 3.3 1 4.9-1.1 1.6-3.3 2-4.9 1l-17-11.5z"/><path class="st12" d="M238.6 653.7c1 11.9 10 21.5 21.8 23.3 0 0 7.6-4.7 22.7-14 0 0 6.1-.4 18.4-1.1 0 0 1.9-9.9 5.6-29.7-4.5-8.4-14.1-12.7-23.4-10.6-9.3 2.1-16.1 10.1-16.5 19.7 0-.1-9.5 4.1-28.6 12.4"/><path class="st28" d="M225.7 609c-15.5 10.4-23.8 28.5-21.7 47s14.4 34.2 31.8 40.8c0 0 13.2-5.5 39.5-16.4-17.1-2.3-31.6-13.6-38-29.6s-3.7-34.2 7.2-47.6c-.1-.1-6.3 1.9-18.8 5.8"/><path class="st29" d="M252.2 695.8c-16.8-8-28.8-23.5-32.6-41.7-3.7-18.2 1.3-37.1 13.6-51.1 0 0-26.9 8.3-80.6 25l-25.1-248.2c-.2-16.6-7.7-19.3-16.8-6.6-10.6 14.7-27.5 62.8-44.5 116.4-8.7 27.6-21.7 63-33.3 98.3-8.3 25.3-18.5 54.8-21.4 83.7-3.3 33 5 72.5 34.5 91.8 11.5 7.5 24.8 7 38.5 3.1 19-5.4 41.7-14.4 65.1-24.6 35.6-15.5 73.1-33.8 102.6-46.1"/><path class="st30" d="M152.3 624.4c2.6 1.5 3.9 2.4 3.8 2.6 27.3-8.6 53.1-16.6 77.2-24.1-8.5 9.7-13.7 22-14.6 34.8 0 0-18.5 6.9-55.6 20.6-5.3 12.9-17.9 21.1-31.8 20.8-13.9-.4-26.1-9.3-30.7-22.4-4.6-13.1-.6-27.7 10.1-36.7l18.6-224.4c7.8 76.9 15.1 149.4 22 217.4.6 7.7 1 11.4 1 11.4"/><path class="st31" d="M215 664.9c3.4 11 9.8 20.9 18.4 28.7-33 16.3-124 60.1-156.5 63.5-16.5 1.7-28.7-4.5-37.2-14.8-22.3-26.8-18.8-71.3-11.8-102.9 4-17.9 9.4-34.8 13.9-48.6 15-46.1 37.9-113.8 68.8-203.2l-2.7 30.4-18.2 217.5c-17.3 4.2-29.8 19.4-30.6 37.2s10.3 34 27.2 39.7 35.6-.5 45.7-15.1l83-32.4z"/><path class="st32" d="M151.7 624.6c1.9-.5 3.8.6 4.3 2.5s-.6 3.8-2.5 4.3l-37.7 10.3c-.5.1-1 .2-1.4.1-10.4-1.6-20.9-.6-30.7 2.5-9.8 3.2-18.8 8.5-26.3 15.9s-13.1 16.3-16.5 26c-3.4 9.7-4.5 20.1-3.2 30.6.2 1.9-1.1 3.7-3.1 3.9-1.9.2-3.7-1.1-3.9-3.1-1.4-11.5-.1-23.1 3.6-33.8s9.9-20.6 18.3-28.7c8.3-8.1 18.3-14.1 29.1-17.6 10.6-3.4 21.9-4.5 33.2-2.9l36.8-10z"/><path class="st31" d="M413.2 672.6c16.5 26.6 46.9 41.3 78 37.6s57.3-25 67.2-54.7 1.7-62.5-21-84c-37.6-26.3-59.7-69.4-59-115.3.7-45.8 24-88.4 62.4-113.5-54.4-15.4-81.6-23-81.6-23-30.7 235.3-46 352.9-46 352.9"/><path class="st22" d="M423.4 366.6c-16.4 251.5-24.7 377.2-24.7 377.2S435.8 619.4 510 370.7c0 0-14-2.7-42.1-8.2 0 0 13.6-9.3 40.9-27.8 0 0-22.5-11.3-67.5-34-11.9 43.9-17.9 65.9-17.9 65.9"/><path class="st15" d="M435.1 636.4c11.5 13.9 14.9 32.8 9 49.9-6 17.1-20.4 29.7-38.1 33.4 0 0-10.3-2.4-30.8-7.1-25.2-5.8-37.4-8.7-48.5-18.4-13-11.4-39.7-42.9-25.4-60.5-2.6-6.8-1.8-14.4 2.2-20.5-2.7-4-3.2-9.1-1.4-13.6 1.8-4.5 5.7-7.8 10.4-8.9-22.7-14.4-14.4-31.1 8.2-20 24.7 14 46 33.4 70.5 47.3 7.8 4.4 12.2 5.6 13.1-1.5 1.4-10.6-5.3-45.2 0-51.4 2.2-2.6 6.3.3 9.7 4.6 13.7 16.9 16.3 45.6 21.1 66.7"/><path class="st27" d="M310.5 595.2c-1.6-1.2-1.9-3.4-.7-4.9 1.2-1.6 3.4-1.9 4.9-.7l61.9 46.4c1.6 1.2 1.9 3.4.7 4.9-1.2 1.6-3.4 1.9-4.9.7l-61.9-46.4zM302.7 618.5c-1.4-1.3-1.5-3.6-.1-5 1.3-1.4 3.6-1.5 5-.1l16.9 16 26.6 18.4c1.6 1.1 2 3.3.9 4.9-1.1 1.6-3.3 2-4.9.9l-26.8-18.5c-.2-.1-.3-.2-.5-.4l-17.1-16.2zM298 641.9c-1.1-1.6-.7-3.8 1-4.9 1.6-1.1 3.8-.7 4.9 1l7.6 11.4 28.4 18.1c1.6 1.1 2.1 3.2 1.1 4.9-1.1 1.6-3.2 2.1-4.9 1.1L307 655c-.4-.3-.7-.6-1-1l-8-12.1z"/><path class="st12" d="M441.5 665.6c3.6 10.5 2.5 22.1-3 31.8-5.6 9.7-15 16.5-25.9 18.7-44.6-9.3-70.8-17.3-78.7-23.9 71.7-17.7 107.6-26.6 107.6-26.6"/><path class="st28" d="M445.4 735.7c13.8-11.7 22.2-28.5 23.2-46.6 1.1-18-5.2-35.7-17.4-49 0 0-5.4-1.2-16.1-3.7 8.1 16.3 8.6 35.3 1.3 52-7.2 16.7-21.5 29.3-38.9 34.5 32 8.5 47.9 12.8 47.9 12.8"/><path class="st29" d="M441.3 634c12 16.7 16.4 37.6 12.3 57.7-4.1 20.1-16.4 37.6-34 48.2 44.5 11 168 49.6 206.1 48.9 61.1-1.1 66.5-39.9 59.4-107.4-4.3-41.1-35.6-398.9-101.8-317.8-11.8 14.4-24.5 45.4-34.3 79.1-26.1 89.6-13.1 121.4-2.4 212C482 642.9 441.3 634 441.3 634"/><path class="st31" d="M453.2 727.8c15.9-24.5 17.1-55.7 3.2-81.4 68.8 12.9 103.2 19.4 103.2 19.4-25.9-136.6-17.8-169.4 19.5-266.9l43.5 298.5c-16-15.7-40.8-18.2-59.6-5.9s-26.5 36-18.5 57c-60.8-13.8-91.3-20.7-91.3-20.7"/><path class="st30" d="M599.4 786c-6.7-1-12.7-2.2-18.2-3.5-10.9-20.4-6.6-45.7 10.5-61.3 17.1-15.7 42.6-17.7 62-5.1-13.8-115.2-26.7-220.4-39-315.6-2.6-16.5-.1-28 7.2-34.7 8.3 12.5 15.9 31.5 22.9 57.1 16.8 65.4 29.8 147.2 38.8 245.6 5 43.1 4.8 71.6-.5 85.3-4.2 14.3-13.3 24.3-27.3 29.9-10.8 3.5-20.7 5.3-29.7 5.1-5.7.2-14.6-.7-26.7-2.8"/><path class="st32" d="M545.9 658.2c-1.9-.4-3.1-2.3-2.7-4.2.4-1.9 2.3-3.1 4.2-2.7 6.6 1.4 13.9 2.8 21.3 4.2 19.9 3.8 40.8 7.8 58.1 13.8 11.6 4 22.4 9.4 30.5 17.2 8.3 7.9 13.8 18.3 14.4 31.9.1 1.9-1.4 3.6-3.4 3.7-1.9.1-3.6-1.4-3.7-3.4-.5-11.6-5.1-20.4-12.2-27.1-7.3-6.9-17.2-11.9-28-15.6-16.9-5.8-37.6-9.8-57.2-13.5-7.2-1.4-14.4-2.8-21.3-4.3"/></svg>