<svg version="1.1" id="_1" xmlns="http://www.w3.org/2000/svg" xmlns:xlink="http://www.w3.org/1999/xlink" x="0" y="0" viewBox="0 0 4621.6 2075.4" style="enable-background:new 0 0 4621.6 2075.4" xml:space="preserve"><style>.st0{fill:#ffa982}.st2{fill:#3ec68c}.st3{fill:#ffea8f}.st4{fill:#7703fc}.st5{fill:#f2836d}.st6{fill:#fff}.st7{fill:#2e2e47}.st8{fill:#ffd3b5}.st10{fill:#f22547}.st11{fill:#515032}.st12{fill:#cc8b70}.st13{fill:#eae6e4}.st14{fill:#9c6f43}.st15{fill:#82664b}.st17{fill:#ffc97d}.st18{fill:#c96b59}.st19{fill:#ffe2bd}.st20{fill:#82a7af}.st21{fill:#946255}.st22{fill:#ce6f5f}.st23{fill:#774237}</style><path class="st0" d="M2975.9 230.4h117v427.9h-117z"/><ellipse cx="677.6" cy="1985.5" rx="293.2" ry="32.7" style="opacity:.27;fill:#ffe2bd"/><path class="st0" d="M3375.7 1576.7h822.4v361.6h-822.4z"/><path class="st2" d="m982.4 1393.3 157.3 272.5 157.4 272.5H667.7l157.4-272.5z"/><path class="st3" d="M2693 1938.3h-176.3c0-89.8-73-162.8-162.8-162.8-89.8 0-162.8 73-162.8 162.8h-176.3c0-45.7 9-90.2 26.7-132 17.1-40.4 41.5-76.7 72.6-107.8 31.1-31.1 67.4-55.6 107.8-72.6 41.9-17.7 86.3-26.7 132-26.7s90.2 9 132 26.7c40.4 17.1 76.7 41.5 107.8 72.6 31.1 31.1 55.6 67.4 72.6 107.8 17.7 41.9 26.7 86.3 26.7 132z"/><path class="st4" d="M2354 896.5h339v703.7h-339z"/><path class="st5" d="M2014.9 896.5h339v703.7h-339z"/><circle class="st3" cx="2354" cy="1248.3" r="177.7"/><circle transform="rotate(-45.001 3034.383 236.39)" class="st4" cx="3034.4" cy="236.4" r="177.7"/><circle class="st0" cx="3034.4" cy="236.4" r="58.5"/><circle class="st0" cx="1182.4" cy="1518.3" r="112.1"/><circle class="st5" cx="1655.9" cy="1794.5" r="143.9"/><path class="st3" d="M3375.7 834.5c0-187.8-153.6-341.4-341.4-341.4-187.8 0-341.4 153.6-341.4 341.4v282.6h682.7V834.5z"/><path class="st0" d="M2693 1938.3h682.7L2693 1117.1z"/><path class="st2" d="m2693 1117.1 682.7 821.2v-821.2z"/><path class="st6" d="m3004.5 1057.2-135.3-67.6s-71.8-100.5-83.8-98.9c-12 1.7-27.7-3.7-35 7-7.3 10.7-16.3 31.9-11.7 42.3 4.7 10.4 44.5 79.8 89.2 114.2 28.7 22.1 128.6 43.3 157.8 36.7 29.1-6.7 36.4-17.7 18.8-33.7z"/><path class="st7" d="M2911.4 795.5h-358.3v358.3z"/><path class="st8" d="M2766 893.3s-8.2-12.5-11.9-21.5c-3.7-9-3.2-15.4-10.5-17.9-7.3-2.5-25-12.8-24.6-8.6s16.8 13.8 16.8 13.8-24.4-8.9-25.8-4.2c-1.4 4.7 1.2 5.8 1.2 5.8s-5.5 1.6-5 3.8c.5 2.2 18.6 12.4 18.6 12.4s-17.7-2.4-18.1 1.6c-.3 4 17.5 9.2 17.5 9.2s9 15.9 17.8 20.5 17.7 1.6 21.5-1.5c3.9-3.1 5.5-11.5 2.5-13.4z"/><path class="st8" d="M2761.9 886.7s.1-16.6 1.9-22.1c1.8-5.5 6.8-11.2 3.7-13-3.2-1.8-10.7 7-11.9 10.2-1.2 3.2-5.1 6.8-4.7 12.6.4 5.8 9 14 11 12.3z"/><path class="st7" d="m3179.9 1665.5 16.8 9.1s11.2 19.5-5.7 25.3c-16.9 5.8-70.7-7-133.7-1.4s-82 28.5-125.7 32.4c-43.7 3.9-70.3-19.1-62.8-31.9 7.5-12.7 235.7-56.1 311.1-33.5z"/><path class="st8" d="M3063.2 1096.7c-11-29.5-58.6-58.1-107.4-33.7-48.8 24.5-54.9 136.8-57.3 183.8-1.7 31.9-10 64.1-6.5 200.2 3.2 126.2 38.9 491.4 38.9 491.4l35.7.8 22.9-477.9 213.4 432.4 37.1-8.2s-112-296.3-147.8-474.7c-9.1-45.4-50.8-157.6-51.9-165.5-5.3-39.3 38-108.2 22.9-148.6z"/><defs><path id="SVGID_1_" d="M2885.3 1448.9c-3.5-136.1 11.5-170.2 13.2-202 2.5-46.9 8.6-159.3 57.3-183.8 48.8-24.5 96.3 4.1 107.4 33.7 15.1 40.4-10.8 107.9-5.4 147.1 1.1 8 26.6 28.4 48.8 111.4 37.1 138.9 29.9 203.4 90.2 319.3-1.9.2-59.6-11.9-90.7 8.2-41.4 26.8-49.8 54.3-143.4 23-27.8-9.3-69.7 9.1-99.4-1.2 22.7-117.4 24.2-170.2 22-255.7z"/></defs><use xlink:href="#SVGID_1_" style="overflow:visible;fill:#fff"/><clipPath id="SVGID_2_"><use xlink:href="#SVGID_1_" style="overflow:visible"/></clipPath><g style="clip-path:url(#SVGID_2_)"><path class="st10" d="M3139.6 1496.2s-12.2-4.2-15.3 6.1c-3.1 10.3 5.2 30.4 25.6 18.7 20.4-11.7 7.1-32.5-1.7-31.6-5.2.5-8.6 6.8-8.6 6.8z"/><path class="st11" d="M3139.6 1496.2s-.3-10 4.7-15c5-5.1 8.9-7.3 8.9-7.3s2.3 9.3-2.3 17c-2.8 4.6-12 8.6-11.3 5.3z"/><path class="st10" d="M3007.2 1488.3s-12.2-4.2-15.3 6.1c-3.1 10.3 5.2 30.4 25.6 18.7s7.1-32.5-1.7-31.6c-5.2.5-8.6 6.8-8.6 6.8z"/><path class="st2" d="M3007.2 1488.3s-.3-10 4.7-15c5-5.1 8.9-7.3 8.9-7.3s2.3 9.3-2.3 17c-2.8 4.6-11.9 8.6-11.3 5.3z"/><path class="st10" d="M3019.3 1207.4s-12.2-4.2-15.3 6.1c-3.1 10.3 5.2 30.4 25.6 18.7 20.4-11.7 7.1-32.5-1.7-31.6-5.3.5-8.6 6.8-8.6 6.8z"/><path class="st2" d="M3019.3 1207.4s-.3-10 4.7-15c5-5.1 8.9-7.3 8.9-7.3s2.3 9.3-2.3 17c-2.8 4.6-12 8.6-11.3 5.3z"/><path class="st10" d="M2880.7 1459.5s-11.3-3.9-14.2 5.7c-2.9 9.6 4.8 28.2 23.8 17.4 18.9-10.8 6.6-30.1-1.6-29.3-4.9.4-8 6.2-8 6.2z"/><path class="st11" d="M2879.7 1459.7s-5.5-7.5-4.4-13.9c1.1-6.5 2.9-10.3 2.9-10.3s6.7 5.8 7.2 14.2c.4 5-4.4 12.9-5.7 10z"/><path class="st10" d="M3049.9 1338.9s-4.1-11.3-13.4-7.4c-9.2 3.8-18.8 21.6 1.6 29.4s27.5-13.9 21.7-19.8c-3.4-3.4-9.9-2.2-9.9-2.2z"/><path class="st2" d="M3049.2 1338.2s2.3-9 8-12.2c5.7-3.2 9.9-4.3 9.9-4.3s-.3 8.9-6.4 14.6c-3.8 3.5-13 4.7-11.5 1.9z"/><path class="st10" d="M3040.7 1651.5s-4.1-11.3-13.4-7.4c-9.2 3.8-18.8 21.6 1.6 29.4 20.4 7.8 27.5-13.9 21.7-19.8-3.4-3.4-9.9-2.2-9.9-2.2z"/><path class="st2" d="M3040 1650.8s2.3-9 8-12.2c5.7-3.2 9.9-4.3 9.9-4.3s-.3 8.9-6.4 14.6c-3.8 3.5-13 4.7-11.5 1.9z"/><path class="st10" d="M2925.6 1128.5s-12 .1-11.5 10.1 13.9 25 28.2 8.5-3.8-30.6-11.2-27.1c-4.5 2-5.5 8.5-5.5 8.5z"/><path class="st2" d="M2924.7 1129s-7.6-5.2-8.7-11.7c-1.1-6.5-.7-10.7-.7-10.7s8.2 3.3 11.5 11c2 4.6.1 13.7-2.1 11.4z"/><path class="st10" d="M2905.1 1336.4s-10.4 6-5 14.5c5.4 8.4 24.5 14.8 28.7-6.6 4.2-21.4-18.5-24.7-23.2-17.9-2.8 3.9-.5 10-.5 10z"/><path class="st2" d="M2904.6 1337.3s-9.2-.7-13.4-5.8c-4.2-5.1-5.9-9-5.9-9s8.8-1.2 15.5 3.8c4 3.1 6.8 11.9 3.8 11z"/><path class="st10" d="M2925.3 1596.4s-12 .6-11.1 10.5c.9 10 14.9 24.4 28.5 7.4 13.6-17.1-5-30.4-12.3-26.6-4.3 2.1-5.1 8.7-5.1 8.7z"/><path class="st2" d="M2924.4 1596.9s-7.8-4.9-9.2-11.3-1.1-10.7-1.1-10.7 8.4 2.9 12 10.5c2.2 4.5.6 13.7-1.7 11.5z"/></g><path class="st7" d="M2977.4 982.3s-23.5 1-27.9 18c-3.4 13-1.1 20.6 5.2 25.1 6.2 4.5 18.1 5.9 18.1 5.9s.9 8.3 17.8 15.9c11.1 5 38.8 4.8 45.2 1.4 6.4-3.4-7.2-65.2-58.4-66.3z"/><path class="st8" d="M2978.6 1055.9c4-3.6 12.6-8.9 13.2-22.3.9-22.1 27.9-23.8 27.9-23.8s-7.2 25.4-4.1 36.5c.8 3 9.3 15.8 9.3 15.8l-41.4 23.8c0-.2-5.5-26.2-4.9-30z"/><path class="st7" d="M2991.4 1037.7c.2-1.4.4-2.7.5-4.2.1-2.9.7-5.4 1.6-7.6l17.1 1.5c-.1 0-10.4 6.3-19.2 10.3z"/><path class="st8" d="M3035 1012.8s1.5 2.7 6.2.8c3.7-1.5 10-13.2 8.4-16.8-1.7-3.6-5.8-1.9-6.5-2.4-.7-.5 7.2-13.9 6.1-24.2-1.2-10.3-6.6-21.7-20.9-26.2-14.3-4.5-24.2.4-31.1 4.6-6.9 4.1-12 16.1-14.7 21.7-2.7 5.6-4.8 6.8-7 9.5-5.3 6.2-8.2 10.9-9.2 19.9-1 9 4.5 20.4 18 25.5 13.3 5.1 37.6 7.1 50.7-12.4z"/><path class="st7" d="M2993.9 994.8h-.3c-2.5-.1-5.7-.9-6.8-2.7-2.3-3.6-.2-5 2.6-6.7.9-.6 1.9-1.2 3-2.1 3.4-2.6 8.1-10.1 7.5-14.4-.2-1.3-.9-2.2-2.1-2.7-3.7-1.7-8.4-3.4-9.4-3.1-.5.2-1.1-.1-1.2-.7-.2-.5.1-1.1.7-1.2 2.2-.7 8.8 2.2 10.7 3.2 1.9.7 3 2.2 3.3 4.3.7 5.2-4.4 13.3-8.2 16.3-1.2.9-2.2 1.6-3.1 2.2-2.9 1.9-3.1 2.1-2 4 .6.9 2.9 1.8 5.2 1.8 1.6 0 2.8-.3 3.2-.9.3-.4.9-.6 1.4-.2.4.3.6.9.2 1.4-1.2 1.3-3.4 1.5-4.7 1.5zM3022.3 980.7c-.3 0-.5-.1-.7-.3 0 0-3.9-4.3-9.8-6.6-.5-.2-.8-.8-.6-1.3.2-.5.8-.8 1.3-.6 6.4 2.5 10.4 6.9 10.6 7.1.4.4.3 1-.1 1.4-.2.2-.4.3-.7.3z"/><path class="st6" d="M2981.7 995.9s-1.1 5 4.5 8.5 12.2-.5 12.2-.5l-16.7-8z"/><path class="st7" d="M3012.2 983.3c-1.6-.6-3.3-.1-4.2 1.2-.8 1.2-1.5 2.9-1.1 4.2.8 2.6 4.2 2.4 5.4 1.9 1.2-.5 1.7-4.7 1.6-5.4 0-.8-.5-1.4-1.7-1.9z"/><path class="st7" d="M3017.6 989.4c-.4 0-.7-.2-.9-.6 0 0-1-2.1-3.4-3.3l-.2-.1c-1.1-.5-2.7-1.3-3.8-1-.5.2-1.1-.1-1.2-.7-.2-.5.1-1.1.7-1.2 1.8-.6 3.9.4 5.3 1.1l.2.1c3.1 1.5 4.3 4.1 4.3 4.2.2.5 0 1.1-.5 1.3-.2.2-.3.2-.5.2zM2988.5 972.3c-1.6-.6-3.3-.2-4.1 1-.7 1.1-1.4 2.6-.9 3.9.9 2.4 4.2 2.4 5.4 1.9 1.2-.5 1.5-4.4 1.4-5-.1-.8-.6-1.4-1.8-1.8z"/><path class="st7" d="M2993.9 978.2c-.4 0-.8-.2-.9-.6 0-.1-1.1-2.5-3.5-3.4-2.5-.9-3.5-.7-4.3-.6-.5.1-1.1-.3-1.1-.8-.1-.5.3-1.1.8-1.1 1.2-.2 2.5-.3 5.3.7 3.2 1.1 4.6 4.3 4.7 4.4.2.5 0 1.1-.5 1.3-.3 0-.4.1-.5.1z"/><path class="st0" d="M3007.8 992.3s10.2 1.5 11.5 5.5c1.3 4.1-10 2.4-14.8-.5-4.7-2.9.8-5.5 3.3-5zM2977.8 979s7.3 1.7 7.3 5.4-8.1 1.7-11-1.1 1.9-4.8 3.7-4.3z"/><path class="st7" d="M3036 1010.3c-.5 1.1 0 2.3 1.1 2.8s2.3 0 2.8-1.1 0-2.3-1.1-2.8c-1.1-.4-2.3 0-2.8 1.1z"/><path class="st7" d="M2992.8 942.3s-6.3 11.9-1.1 17.2c5.2 5.3 12.4 8.6 12.9 7.2.5-1.3-1.8-5.5-.4-5.5 1.4.1 5.8 6.2 8.6 8.5s13.9 7.9 15.9 9.5c2 1.6-11.9 36.8-14.9 54.4-2.9 17.6 26.8 29.2 34.7 25.3 8-3.8 5.4-9.7 5.4-9.7s12.5 3 19.8.1c7.3-2.9 9.6-9.8 8.8-16-.8-6.1-3.4-9.3-8.7-10.2-5.3-.9-12.1-7.1-10.8-12.7 1.3-5.7 2.2-16.9-3.2-28.9s-39.8-36.1-51.2-38.6c-11.3-2.4-12.9-4.7-15.8-.6zM2931.2 1087.3c-4.6 7.4-8.5 15.9-11.9 25.1 6.1 1.1 14.5 2.5 25.6 4.3 28.5 4.8 66.1-7.6 66.1-7.6l-79.8-21.8z"/><path class="st7" d="M3063.6 1007.4s6.9-35 7.4-44c.8-14.8-2.9-17.2-8-22.6-5.1-5.4-15-5.4-15-5.4s-7.1-9.8-20-7.4c-12.8 2.4-31.3 5.7-34.5 13.4-3.2 7.7 33.7 22.3 39.4 26 5.7 3.8 30.7 40 30.7 40z"/><path class="st6" d="m3032.2 1075.1-135.3-67.6s-99.5-122.2-111.5-120.5c-12 1.7-16.8-5.2-35 7-10.8 7.2-16.3 31.9-11.7 42.3 4.7 10.4 72.2 101.5 116.9 135.9 28.7 22.1 128.6 43.3 157.8 36.7 29.1-6.8 36.4-17.8 18.8-33.8z"/><path class="st8" d="M2923.4 1957.2c-.9-4.2-5.2-9.2-7.1-11.3 4.9-2.2 8.9-4.5 11-6.5 8.9-8.6 11.2-18.2 11.2-18.2 7.2-13.8 28.3-3.4 27.2 4.5-.6 4.5 2 19.1 2.7 31.5l-43.9 5.3c.1.1.1.1-1.1-5.3z"/><path class="st7" d="M2869.8 1960c4.2-.8 30.4-6.8 46.5-14.1 1.9 2.1 6.2 7.1 7.1 11.3l1.2 5.4 43.9-5.3c.5 9.5-.1 17.7-4.2 19.4-9.3 3.8-81.1 2.8-91.8 2.3-10.7-.6-16.2-16.4-2.7-19z"/><path class="st8" d="M3213.8 1907.6c3.7 4 15.2 16.3 19.3 19.7 4.2 3.3 10.3 7.2 17.8 6.2s7.3-5.3 8-6.2c.5-.6-3.6-13.9-6-21.7-7.9-12.7-13.7-21.9-19.3-36.9-5.9-15.9-33.6-11.6-35.4 1.4-1 7.5 3 22.2 7.5 34.8 1.9-.3 5.4-.3 8.1 2.7z"/><path class="st7" d="M3256.1 1910.5c-1.1-1.7-2.1-3.4-3-4.9 2.4 7.8 6.4 21.1 6 21.7-.7.8-.5 5.2-8 6.2s-13.7-2.8-17.8-6.2c-4.2-3.3-15.7-15.7-19.3-19.7-2.7-3-6.3-3-7.9-2.8 3.3 9.4 6.8 17.6 8.6 20.8 4.2 7.5 37.9 36.4 46.4 38.7 8.5 2.3 22.2-.2 23.2-5.5s-18.7-32.8-28.2-48.3zM3009 1064.5c-.1 0-.3 0-.4-.1l-112.3-56.1-4.8-5.9c-.3-.4-.3-1.1.1-1.4.4-.4 1.1-.3 1.4.1l4.5 5.5 111.9 55.9c.5.2.7.8.4 1.3-.1.5-.5.7-.8.7z"/><path class="st12" d="M2174.9 845.9z"/><path class="st13" d="M2172.4 819.4c0 7.8 2.5 20.6 2 20.6 1.4 0 62.5 21.9 84.5 31.1 2.9-19.3 11.3-33 14.3-49.7-21-9.4-87-18.1-89.6-19.1-4.1 3.8-11.2 11.5-11.2 17.1z"/><path class="st14" d="M2462.4 645s-94.4-15.5-118.5 0c-8.8 5.7-7.6 29.7-2.5 57.7-43.9 11.7-122.2 59.9-119 62.7 21.4 18.7 94.8 16.6 136.9 10.4 6 20.7 10.9 35.4 10.9 35.4s-134.7-8.8-150.1-5.5c-15.5 3.3-12.4 54.5-6.4 72.5s249.2 39.5 257.8 1.7c8.6-37.8-9.1-234.9-9.1-234.9z"/><path class="st12" d="M2132.1 862.6c-.2-17 15.2-59.6 19.3-70.7-3.3-.4-6.1-.4-8.2.4l-5.9 20.4s-6.1 20.1-10.6 41c-4.8 22.4 14.2 46.8 22 44.3 1.1-.4 2.1-.8 2.9-1.3.1-.1.2-.1.3-.2-5.5-4.4-19.6-18-19.8-33.9z"/><path class="st7" d="M2183.6 802.2c-6.4-2.6-21.6-8.9-32.3-10.2-4.1 11.1-19.5 53.7-19.3 70.7.2 15.9 14.4 29.4 19.7 34 4.8-3.1 5-11.1 4-18.2-1.1-8.3 1.7-16.7 7.6-22.6 5.1-5 10.3-9.9 11.4-9.9.5 0 8.1.6 7-9.4-1.2-10.3-9.5-9.3-9.5-17.1.2-5.7 7.3-13.4 11.4-17.3z"/><path class="st0" d="M2557.4 765.6s9.1 8.4 14.3 16.8c5.2 8.4 24 13.7 21.9 20.6-2.1 6.9-21.2-6.2-25.7-5.3-4.5.9-21.2 43.2-23.7 43.8-2.5.6-7.3-9.8-7.3-9.8s-7.7-7.7-9.3-10.8c-1.6-3.1-2.2-7.4-2.2-7.4s-2.6-1.9-3.9-4.4c-1.3-2.4 4.1-34.5 4.2-35.1.1-.7-14.5-10.3-13.2-19.2 1.4-8.9 22.3-14 22.3-14l22.6 24.8z"/><path class="st7" d="M2527.2 435.8s15.7 104.1 21.1 132.8c6.1 32.4 56.5 141.9 50.7 153.4-5.7 11.4-43.9 25.9-51.9 24-8-1.9-55.7-122.1-66.4-178.5-10.7-56.5 5.3-105.3 12-123.6 6.7-18.4 34.5-8.1 34.5-8.1zM2437.2 330.4s9.2-4.6 26-1.3 31.4 12.1 39 24.6 6.5 25.3 5.4 30.3c-1.1 5-23.2 11.3-34.2-.5s-40.8-48.8-36.2-53.1z"/><path class="st12" d="M2427.3 858.6z"/><path class="st13" d="M2401.8 866.6c7.7-1.6 19.6-6.7 19.7-6.2-.2-1.3 8.4-65.7 12.8-89.1-19.5 1.2-34.6-4.2-51.6-3.6-4.8 22.5.5 88.9 0 91.6 4.7 3.1 13.7 8.4 19.1 7.3z"/><path class="st7" d="M2467.2 898c17.2-.4 22-4.9 23.4-7-2.9-10.7-18.2-8-35.3-14-19.7-7-27.4-16-27.9-18.3-.1-.5-1.2-8.1-10.7-4.9-9.9 3.3-7.1 11.2-14.8 12.9-5.5 1.2-14.4-4.2-19.2-7.4-1.2 6.8-4.2 23-3.3 33.7 17.5 3.7 66 5.5 87.8 5z"/><path class="st12" d="M2490.5 891c-1.3 2.1-6.2 6.6-23.4 7-21.8.5-70.3-1.3-87.8-5 .3 3.3.9 6.1 2.1 8l21.2 1.5s89.1 7.5 88.3-8.4c.1-1.2-.1-2.2-.4-3.1z"/><path class="st7" d="M2514.8 400.6s-37.8-51.5-105.6-49.8c-67.8 1.7-155.5 87.7-197.5 158.6-25.4 43-53.2 150.4-32.6 165.8 20.6 15.5 231.8-31.8 268.7-29.2 36.9 2.6 29.2-84.1 38.6-105.6 9.5-21.3 66.2-78 28.4-139.8z"/><path class="st14" d="M2181.8 671s62.8-50.1 131.5-96.4c5.2-3.5 10.5-13.8 15.8-17.3 11.3-7.4 22.6-7.7 33.7-14.5 46-27.8 88.4-48 109.9-44.1 60.9 11.2 36.7 86.3 33.6 123.3-3.3 39.3-59.7 222.9-59.7 222.9s-55.8 0-78.1-6.9c-22.3-6.9-2.9-145.7-2.9-145.7s-64.5 80.7-122.9 85c-58.4 4.4-85.1-78.7-60.9-106.3z"/><path class="st7" d="M2411.4 379.4s38.9 165.4 52.1 188.3c13.2 22.9 99.6 156.8 95.6 175.1-4 18.3-55.5 36.2-59.5 32.7s-105.1-149.4-115-188.3c-9.9-38.9-40-134.9-34.4-175.1 5.6-40.3 36.1-56.2 61.2-32.7z"/><path class="st0" d="M2489.1 329.7s-8.4 11.1-16.5 20.9c-4 4.9-10.2 9.5-11 12.3-.7 2.4 1.7 21.5 18.7 21.1 6.5-.2 11.4-13.7 14-17.9 2.8-4.5 4.3-9.5 4.3-9.5l-9.5-26.9z"/><path class="st7" d="m2496.7 357.7-11.1-14.9s-3.5 12.4 2.5 20.3c1.5 2 3.4 3.6 5.4 4.4.3-.5.5-.9.7-1.3 1.4-2.2 2.4-4.6 3.2-6.4l-.7-2.1z"/><path class="st15" d="M2497 295.4s-12.9 1.8-16.2 11.5-2 20.1 5.9 25.1c7.8 5 22-22.4 19.2-28.3-2.9-5.8-4.8-9-8.9-8.3z"/><path class="st0" d="M2537.7 299.6c10.6 5.2 12.7 10.7 9.6 22.1l-3.2 11.9c-1.5 5.6-2 11.4-5.2 19.4-3.3 7.9-8.4 26.2-27 19.9-23.8-8.1-27.5-25-27.5-34.4 0-9.4 2.9-15.5 2.9-15.5s-5-2-4.9-6.5c0-4.7 3.7-13.3 6.7-13 5.5.5 4 4.1 5.4 4.2 1.4.1 2.4-10.7 20.9-11 2.3-.1 19 1.3 22.3 2.9z"/><path class="st7" d="M2530.5 320.7c-.5 0-.9-.3-1-.8 0-.1-.5-2.5-3.5-3.9-3.3-1.6-9.2-2.5-9.3-2.5-.5-.1-.9-.6-.8-1.1.1-.5.6-.9 1.1-.8.3 0 6.2.9 9.8 2.7 3.9 1.9 4.6 5.2 4.6 5.4.1.5-.3 1.1-.8 1.2 0-.2-.1-.2-.1-.2z"/><path class="st6" d="m2515.4 344.9 17.7 8.7s-4.4 5.3-8.8 4.5c-10-2-8.9-13.2-8.9-13.2z"/><path class="st5" d="M2508.1 329.7c-.5 1.9 2 4.2 5.5 5.1 3.5 1 6.8.2 7.3-1.6s-2-4.2-5.5-5.1c-3.5-1-6.8-.3-7.3 1.6zM2536.8 338.1c-.5 1.5.9 3.4 3.1 4.2 2.2.8 4.5.2 5-1.4.5-1.5-.9-3.4-3.1-4.2-2.2-.7-4.5-.1-5 1.4z"/><path class="st15" d="M2493.5 300.2s.1 3.6-.5 7.7c-.5 2.8-1.4 5.8-.5 9.1.8 2.9 5.6 3.3 7.4.2.8-1.3 8.9-10.7 8.9-10.7s-14.2-6.1-15.3-6.3z"/><path class="st7" d="M2526.2 325.9c-4.7-.3-9.3-4.1-9.5-4.2-.4-.4-.5-1-.1-1.4.3-.4 1-.5 1.4-.1 0 0 4.4 3.5 8.3 3.8.6 0 1 .5.9 1.1 0 .4-.4.8-1 .8zM2544.1 331.8s-.1 0 0 0c-4.5-.3-7.2-1.7-7.3-1.8-.5-.3-.7-.9-.4-1.4.3-.5.9-.7 1.4-.4.1 0 2.5 1.3 6.4 1.6.6 0 1 .5.9 1.1-.1.5-.5.9-1 .9z"/><path class="st7" d="M2521 323.9s-3.2 2.9-.5 5c2.6 2 5.2-2.8 4.3-3.7s-3.8-1.3-3.8-1.3zM2539.1 330.4s-3.2 2.9-.7 4.8c2.4 1.8 5-2.9 4.2-3.7-.8-.8-3.5-1.1-3.5-1.1z"/><path class="st15" d="M2525.1 344.4s-13.3-3-12.3-1.3 10.2 6.2 11.6 5.8c2.8-.8 3.9-3.9.7-4.5zM2531.5 346.9s8.2 4.6 5.9 6.1c-3.1 2-8.6-1-9.4-2.2-1.4-2.2.8-5.3 3.5-3.9z"/><path class="st7" d="M2530.7 346.7c-2.5 0-6.1-.8-7.3-2.4-.3-.4-.2-1.1.2-1.4.4-.3 1.1-.2 1.4.2.9 1.2 5.4 2 7.1 1.5 2-.6 2.5-1.6 1.3-6.2-1.2-4.5 0-13.4 3.9-15.8 4-2.5 9.4 2.2 9.6 2.4.4.4.5 1 .1 1.4-.4.4-1 .5-1.4.1-1.2-1.1-4.9-3.6-7.2-2.2-2.8 1.8-4.1 9.4-3 13.6 1 3.8 1.5 7.3-2.6 8.6-.6.2-1.3.2-2.1.2z"/><path class="st15" d="M2504.5 309.7s9.9-4.4 19.1-3.1 14.6 5.9 22.6 7.3c8 1.3 11.9 1 16.9-6.2 5-7.2 1-27.9-10.2-32.1-11.2-4.1-26.3-.7-33-3.2-6.7-2.5-7.6-7.7-9-2.9-1.3 4.8.1 6.6.1 6.6s-15.8-6.5-20.6.7c-4.8 7.2-9.6 30.2-9.9 31.9-.3 1.7 3-4.7 9.2-5.8 6.2-1.1 14.8 6.8 14.8 6.8z"/><path class="st7" d="M2482.3 374.2s-19-25.8-23.3-34.6c-4.4-8.8-10.3-11.4-17.9-10.4s-19 14.1-19.1 22 44.1 45.2 49.4 45.8c5.3.6 32.6-2.3 34.9-8.6 2.3-6.3 3.9-11.8-.5-14.1-4.5-2.4-23.5-.1-23.5-.1zM2360 758.9c-.6 0-1-.5-1-1.1 0-.4 2.9-41.9 4-52.7.2-2 1.5-6.3 3.4-12.2l-.2.2c-.3.4-35.2 39.5-53.7 52.6-.4.3-1.1.2-1.4-.2-.3-.5-.2-1.1.2-1.4 17.7-12.5 50.6-49.3 53.2-52.2 1-3.6 13.6-48.6 15.5-61.7 1.7-11.6 15.5-31.1 19.8-32.7.9-.3 1.5 0 1.8.2.8.7.7 2 .5 3-.9 4.2-7.4 21.6-15.1 41.8-10 26.5-21.4 56.6-22 62.8-1.1 10.8-4 52.3-4 52.7 0 .5-.5.9-1 .9zm40.3-159.3c-3.4 1.9-16.6 19.9-18.2 31-2 13.6-15 60.2-15.6 62.2l-.1.2c4.3-12.8 11.8-32.8 18.7-51.1 7.3-19.2 14.1-37.4 15-41.5.1-.4.2-.7.2-.8z"/><path class="st7" d="M2366.2 673.9h-.3c-.5-.2-.8-.7-.7-1.2l18.4-63.8c.2-.5.7-.8 1.2-.7.5.2.8.7.7 1.2l-18.4 63.8c0 .5-.4.7-.9.7z"/><path class="st6" d="M2438.1 619.2c-.6 0-1.1-.1-1.6-.2-1.8-.5-2.5-1.7-2.8-2.6-1-3.4 1.2-10.8 26.2-37.6-.2.1-.3.2-.5.3-9.2 6-24.5 16.1-33.7 18.7-1 .3-2.8.8-3.4-.5-.5-1.1-1.1-2.5 20-16.9 8.6-5.9 17.4-11.6 19.9-13.2l-5.9-14.4c-.2-.5-12.5-41.4-14.1-47.3-1.6-5.9-31.5-124.7-31.8-125.9-.1-.5.2-1.1.7-1.2.5-.1 1.1.2 1.2.7.3 1.2 30.2 120 31.8 125.9 1.6 5.9 14 46.8 14.1 47.2l6.5 15.9-.7.4c-17 10.9-35.3 23.4-39.2 27.5.1 0 .2 0 .3-.1 8.8-2.4 24.6-12.8 33.1-18.4 7-4.6 7-4.6 7.8-3.8.1.1.6.7 0 1.5-.3.4-1.2 1.4-3 3.3-7.2 7.7-29.2 31-27.3 37.4.1.4.4.9 1.4 1.2 8.9 2.4 24.4-24.2 29.6-34.7.2-.5.8-.7 1.3-.4.5.2.7.8.4 1.3-1.9 3.8-18.3 35.9-30.3 35.9zM2371.3 538.8c-.5 0-.9-.3-1-.8-.1-.5-12.3-51.7-14.6-61.9-2.3-10.2-11-61.4-11.1-61.9-.1-.5.3-1.1.8-1.2.5-.1 1.1.3 1.2.8.1.5 8.8 51.6 11 61.8 2.3 10.2 14.5 61.3 14.6 61.8.1.5-.2 1.1-.7 1.2-.1.2-.2.2-.2.2zM2502.6 515.6c-.2 0-.4-.1-.6-.2-.5-.3-.6-.9-.3-1.4.1-.2 12.8-19.2 17.2-32.4 4.9-14.9 7.7-26.8 7.6-33.6 0-.6.4-1 1-1 .5 0 1 .4 1 1 .1 9-4.2 23.6-7.7 34.2-4.5 13.5-16.9 32.1-17.4 32.9-.2.3-.5.5-.8.5zM2468.7 391.6s-3.5-.9-4.3 0c-.8.9-4.6 48.6-4.6 57.7 0 9.1-2.3 59.5-1.3 60 1 .5 4.8 0 5-.7.2-.7 1.2-59.2 1.8-66.4.5-7.3 3.4-50.6 3.4-50.6zM2475.3 393s-3.6-.5-4.3.3c-.7.8-1.4 42.4-.8 50.3.6 7.8 1.6 51.7 2.6 52 1 .4 4.7-.4 4.9-.9s-2.7-51.3-2.6-57.6c.2-6.3.2-44.1.2-44.1z"/><path class="st0" d="M2589 719s3.6 18.2 7.5 20.5c3.9 2.3 18.9 10.8 24.2 17.3 5.3 6.5 16.4 35 14.8 34.8-1.6-.2-3.3-2.6-3.3-2.6s5 10.5 3.8 12.8l-2.7 1s0 3.4-2.7 4.4c-2.7 1-16.4-20-17.1-19.7s12.5 17.8 8.9 20c-3.6 2.1-26-33.1-28.5-30.1s6.8 20.7 1.8 26.5c-5.1 5.8-6.2-6.2-8-10.7-1.7-4.5-15.6-28.3-18.3-35.8-2.6-7.6-8.9-25.3-5.8-31.6 2.9-6.4 22.6-10.7 25.4-6.8z"/><ellipse cx="3811.9" cy="1943.3" rx="385.3" ry="29.4" style="opacity:.27;fill:#ffea8f"/><path class="st4" d="M3954.3 1059.8s-18.9-3.9-42.6 7.4c-21.1 10-58.1 64.6-72.2 80s-129.7 185.4-133.3 199.5c-3.5 14.1 53.7 81.8 89.9 80 36.1-1.7 158.2-366.9 158.2-366.9z"/><path class="st4" d="M3926 1067.1c-60.6 25.9-134.3 268.3-134.3 268.3l178.8 57.5c27.6-77 66.8-291.3 66.8-291.3s-50.7-60.3-111.3-34.5z"/><path class="st6" d="M3569.9 1918.3c13.4 5.1 16.4 2.1 20.6-3.2 2.4-3 9.7-5.7 13.7-7.5-3.9-6.5-4.8-12.6-4.5-29.6.2-8.4-47.1-13-47.5 2.7 0 0-4.4 13.2-5.6 14.3.9.2 1.8.5 2.7 1 9.4 5 7.2 17.2 20.6 22.3z"/><path class="st14" d="M3461.9 1952.7c10.4 2 72.6-.8 81.3-1.6 8.6-.8 29.5-7.4 32.4-8.5 2.9-1.1 6.9-.1 12.7.2 4.5.2 19.8.4 26.4.5-2.1-9.8-4.8-21.8-5.5-23.3-.6-1.2-1.3-6.5-4.9-12.5-4.1 1.8-11.4 4.4-13.7 7.5-4.2 5.3-7.1 8.3-20.6 3.2-13.4-5.1-11.2-17.3-20.6-22.3-.9-.5-1.8-.8-2.7-1-4.9 4.4-17.5 15.6-19.2 17.5-2.1 2.2-43.9 15.1-69.2 27.9 4.1 2.3-5.5 10.7 3.6 12.4z"/><path class="st7" d="M3614.6 1943.4c-6.6-.1-22-.2-26.4-.5-5.7-.3-9.8-1.3-12.7-.2-2.9 1.1-23.7 7.7-32.4 8.5-8.6.8-70.9 3.6-81.3 1.6-9-1.8.5-10.1-3.7-12.4-1 .5-1.9 1-2.8 1.5-9.2 4.9-17.1 19.8 29 18.8 46.2-1.1 93.8-3 93.8-3l.7-8.4 5.4 8.8 33.1-1.6c.1 0-1.2-6-2.7-13.1z"/><path class="st6" d="M4107.2 1856.6c10-9.8 8.5-13.7 5.5-19.5-1.7-3.3-2.2-8.5-2.1-12.8-7.3.8-19.7-8.9-23.9-9.5-8.1-1.3-43.7 19.3-32.8 30.1 10.3 10.1 22.7 21.5 23.2 23 .5-.7 1.2-1.4 2-2 8.3-6.5 18.2.5 28.1-9.3z"/><path class="st14" d="M4133.1 1865.3c.1 2-12.7 45.6-19 54-6.3 8.5-31.1 21.7-35.7 23.7-3.5 1.5-7-3-11.9-2.3 12.1-11.1 17.6-19.4 17.6-19.4s1.2-28.3.8-29.5c-.9-2.3-5.8-18-7.7-24.1.5-.7 1.2-1.4 2-2 8.3-6.4 18.1.6 28.1-9.2s8.5-13.7 5.5-19.5c-1.7-3.3-2.2-8.5-2.1-12.8 6.8-.7 12.8-1.6 14.1-1.6 1 0 13.9 6 23.4 10.4-3.1 5.4-11.9 20.8-12.6 23.1-1 2.9-2.5 7.2-2.5 9.2z"/><path class="st7" d="M4064.1 1942.8c.8-.7 1.6-1.4 2.3-2.1 4.9-.7 8.4 3.8 11.9 2.3 4.6-2 29.4-15.3 35.7-23.7 6.3-8.5 19.1-52 19-54-.1-2 1.5-6.3 2.3-9.1.7-2.3 9.5-17.7 12.6-23.1 5.6 2.7 10 4.8 10 4.8l-11.1 24.2-7-.1 4.1 5.2s-9 22.9-21.7 53c-4 9.4-25.2 22-34.7 27-39.8 20.5-30.9 2.4-23.4-4.4z"/><path class="st15" d="M3791.7 1335.4s-137.8 141.5-166.2 192.7c-43 77.4-87.8 356.1-87.8 356.1s9.4 5.4 34.8 11.5c35.3 8.4 46.8 5.3 46.8 5.3l106.3-293.6 189-232.5-122.9-39.5z"/><path class="st15" d="M3815.5 1673.9c30 66 233.4 188.1 233.4 188.1s16.3 11 41.5-17.3c19.5-21.8 11.4-37.8 11.4-37.8l-172.2-183.3s53.4-185.9 54.4-238.2c.1-5.5-.8-13.2-2.5-22.6l-189.8-27.4s-3.4 278.6 23.8 338.5z"/><path class="st13" d="M3926 1067.1c22.2-9.5 45.7-13.6 68.2 5.1-9.9 20.4-51.9 86.8-65.4 134-15.8 55.5-16.3 168.3-16.3 168.3l-120.7-39.2s5.9-39.5 24.5-88.9c2.7-7.3 11.9-15.5 14.9-23 2.1-5.2.1-14 2.3-19.3 25.7-62.7 62.7-124.2 92.5-137z"/><path class="st6" d="M3795 1522.9c-.6 0-1-.5-1-1 0-.6 1.1-60.7-4.7-71.4-.4-.6-.6-.9-.7-1.1-.8.9-2 5.9-2.2 19.7-.1 9.7.3 19.5.8 21.2.1.5-.2 1.1-.7 1.2-.5.1-1.1-.2-1.2-.7-.6-2.3-2.5-41.3 2.6-43.4 1.1-.4 2.2.2 3.2 2 6.1 11.1 5 69.9 4.9 72.4 0 .7-.5 1.1-1 1.1z"/><path class="st7" d="M3836.4 1343.1c-.4 0-.7-.2-.9-.6-.5-1-1.3-2.3-2.3-3.9-4.1-6.3-10.9-16.9-3.7-28.7 8.2-13.4 13.4-23.7 17.5-39.6 2-7.7 12.1-25.9 22.8-45.2 11.2-20.2 22.8-41.1 25.7-51 3.1-10.7 10.7-21.5 18-32 6.3-9.1 12.3-17.7 15-25.4 2.2-6.3 8.2-11.4 14.1-16.4 2.5-2.1 4.8-4 6.8-6 10.3-10.2 17-19.1 17.1-19.1.3-.4 1-.5 1.4-.2.4.3.5 1 .2 1.4-.1.1-6.9 9-17.2 19.4-2.1 2.1-4.4 4.1-7 6.2-5.7 4.8-11.6 9.7-13.5 15.5-2.7 8-8.8 16.7-15.2 25.9-7.2 10.4-14.7 21.1-17.7 31.4-3 10.2-14.6 31.2-25.9 51.5-10.6 19.2-20.7 37.3-22.6 44.7-4.2 16.2-9.5 26.6-17.7 40.1-6.6 10.7-.4 20.3 3.7 26.6 1 1.6 1.9 3 2.4 4.1.2.5 0 1.1-.5 1.3h-.5z"/><path class="st4" d="M3912.5 1374.6s11 132.5 28.7 135.8c17.7 3.3 92-56.6 93.4-70.1 1.4-13.5-37.3-127.7-40.1-164.6-2.8-36.8-34.7-79.1-51.5-58.1-16.7 21-30.5 110.3-30.5 157z"/><circle class="st17" cx="3758.3" cy="1256.4" r="225.5"/><path class="st12" d="M3849.2 1454.1s-13.5-2.3-23.3-6.6-18.4-23.7-25.5-20.4c-7.1 3.4 9.9 21.8 9.6 26.8-.3 4.9-40.5 25.2-40.5 28 0 7.3 8.6 10.5 8.6 10.5s9.5 7.1 13 8.3c3.5 1.2 8.3 1.2 8.3 1.2s2.5 2.5 5.3 3.5 23.2-.8 39.1-12.2c23.7-16.9 29.8-37.7 29.8-37.7l-24.4-1.4z"/><path class="st4" d="M4029.2 1093.3c-16.2-5.5-55.5 163.1-81.7 214.1-20.6 40.2-115.6 138.7-115.6 138.7s13.2 35.6 53.2 43.2c0 0 107.7-87.3 139.3-157.3 41.6-92 45-225 4.8-238.7z"/><path class="st7" d="M4011.8 1011.7s-7.8 15.1-17.5 16.3c-9.7 1.2 5.5-24.5 9.3-23.8 3.8.7 8.5 6.9 8.2 7.5z"/><path class="st12" d="M3997.2 1021s-3.5 21-2.9 29.4c.6 8.5 2 24-2.5 25.9-4.5 1.9-28.7-4.7-33.6-5.9-4.9-1.2-.1-9.8 2.4-14.9 2.5-5.2 6.2-21.2 6.1-23.3-.2-2.1 22-17.4 30.5-11.2zM3957.6 972.2s-3.5-4.1-7-2.8c-3.5 1.3-8.4 14.4-4.8 16.4 3.7 2.1 14.5-8.4 11.8-13.6z"/><path class="st12" d="M3948 978.6c4.6-6.5 8.3-20.3 20.7-27.7 12.4-7.4 40.4 3.7 46.3 17.1 5.9 13.4-3.7 27-3.7 27-.7 1.3-1 2.3-1.1 3.1-.1.7.1 1.2.3 1.7-2 3.5-6.2 11.4-7 13.3-1.3 3-10.3 20.7-13.9 24-5.9 5.4-27.2 10.5-42.8 2.1-15.6-8.4-19.5-22.9-16.3-34 1.5-5 15.4-23.7 17.5-26.6z"/><path class="st7" d="M3971.4 933.8c16-8 40.4-.7 48.1 18.4 2.3 5.7 1.7 9.2 1.7 9.2s4.5 1.2 6.6 6.1c5.7 13.5-8.6 29.7-8.6 29.7-.7 1.3-3.5 6.2-3.6 7-1.8-1.8-9.9-5.1-12.2-3.3.3-3.6 1.6-10.1 2.3-13.8.9-5.2-1.4-18.9-11.6-20.2 0 0-23.3-4.5-27.1-12.5-1.3-2.7-3.9 2.5-6.7 3.5-.8-2.9 3.2-20.1 11.1-24.1z"/><path class="st7" d="M3999.6 1018.9c1.4-4.1 8.9-26.2 5.5-23.9 0 0-8.9 16.7-15.9 23.2s-10 7.8-13.9 4.8c-2-1.5-.6-3.8-.5-4.5.6-5.4-10.8-13.5-10.8-13.5-.9-1.4-8.5-4.7-9.2-5.2-.7-.5-3.5-.8-4.7-1.6-1.2-.8-7-.3-7 .5-2.5-1.1-2.1-2.4-2.1-4 0-2.2 8.6-16.6 7.5-16.8-1.1-.2-14.4 18.4-17.6 21.6-3.2 3.2-5.1 10-6 14.6-.9 4.5 1.8 8.5 1.8 8.5s-.7 4.8 6.8 12.1 15.4 7.9 15.4 7.9 8.2 5.5 16.3 4.7c8.1-.8 17.9.2 25.1-7.7 7.2-8.1 7.9-16.6 9.3-20.7z"/><path class="st12" d="M3942 1004.6s.2-5.9 4.5-4.6c4.2 1.3 7.8 4.6 13.1 7 5.2 2.4 10.6 4.6 10.4 7s-4.6 8.8-9.2 9.5c-4.6.7-3-4.5-5.8-5.9s-3.9-2.2-6.8-1.4c-3 .7-7.8-4.8-6.2-11.6zM3962.3 992.5s-8.5 1.7-8.5 5.9c0 4.1 6.5 7.1 11.2 6.6 4.6-.5 6.5-13.3-2.7-12.5z"/><path class="st7" d="M3963.2 1005.7c-3.3 0-7.9-1.6-9.7-5.1-1-2-.7-3.7-.3-4.7.7-1.7 2.3-2.8 3.5-3.1.6-.2 1.2-.3 1.7-.4 2.7-.5 5.2-.9 6.7-6.6 1.8-6.9 1.3-10.9-1.6-12.4-4.7-2.3-8.8-1.6-8.8-1.6-.6.1-1.1-.3-1.2-.8-.1-.5.3-1.1.8-1.2.2 0 4.8-.9 10.1 1.8 3.9 1.9 4.8 6.7 2.7 14.7-1.8 6.9-5.4 7.5-8.2 8-.5.1-1.1.2-1.5.3-.7.2-1.8 1-2.2 2-.4.9-.3 1.9.2 3 1.5 3 6.1 4.3 8.8 4 .6-.1 1 .3 1.1.9.1.5-.3 1-.9 1.1-.5.1-.8.1-1.2.1zM3992.4 993.3c-.2 0-.5-.1-.7-.3-.1-.1-6.5-6-11.6-7.3-.5-.1-.9-.7-.7-1.2.1-.5.7-.9 1.2-.7 5.7 1.4 12.2 7.5 12.5 7.8.4.4.4 1 0 1.4-.2.2-.4.3-.7.3zM3988.3 997.5c-.5 0-.9-.3-1-.8 0-.1-.6-2.6-5.4-4.6-1.9-.8-3.7-.2-3.7-.2-.5.2-1.1-.1-1.3-.6-.2-.5.1-1.1.6-1.3.1 0 2.5-.9 5.1.3 5.9 2.5 6.6 5.7 6.6 6.1.1.5-.3 1.1-.8 1.1h-.1z"/><path class="st7" d="M3984.7 994.7c-.4 1.6-2 4.3-5 2.6-3-1.7-.9-5.2.3-6.4 1.2-1.1 5.6.2 4.7 3.8zM3962.5 982.1c-.2 0-.4-.1-.6-.2-4.5-3-8.4-3.3-8.4-3.3-.5 0-1-.5-.9-1.1 0-.5.5-1 1.1-.9.2 0 4.5.3 9.4 3.7.5.3.6.9.3 1.4-.2.3-.6.4-.9.4z"/><path class="st7" d="M3959.7 981.1c0 1.5-1.2 4.3-4.2 3.5-3.1-.7-1.6-4.3-.8-5.6.8-1.3 5-1.3 5 2.1z"/><path class="st18" d="M3974.3 1000.6c-1.1 2.2 1.2 5.5 5.1 7.4 3.9 2 7.9 1.8 9-.4 1.1-2.2-1.2-5.5-5.1-7.4-3.9-1.9-8-1.7-9 .4z"/><ellipse transform="rotate(-63.417 3951.099 987.734)" class="st18" cx="3951" cy="987.8" rx="4.4" ry="7"/><path class="st12" d="M4004.5 1000.7c6.9-3.5 12.7.3 13.6 1.7 4.2 7.1-2.5 12.4-6.4 15.9-3.9 3.5-12.1.6-12.1.6s.6-5.9 1.2-7.7c2.1-6.6 2.2-7.9 3.7-10.5z"/><path class="st6" d="M3945.8 1002.8c11.6 6.6 21.6 10.8 21.6 10.8s-2.7 9.3-14.9 3.9c-12.3-5.5-6.7-14.7-6.7-14.7zM3952.4 1060.7s5.9-6.9 7.3-6.9c1.4 0 13.5 8.6 13.5 8.6s23.1-1.7 23.9.1c4.3 9-10.8 22.5-10.8 22.5l-17.5-11.8-22.4-.8s2.3-7.4 6-11.7zM3714.7 1617.2h-.1c-.1 0-14.2-1.8-28.3-4-29-4.6-30-6.6-30.5-7.5-.2-.5-.2-1 .1-1.4.6-.9 1.7-2.4 29.2-.3 7.6.6 15.2 1.3 20.4 1.8-13.3-6-43.5-20.1-45.8-27.2-.4-1.1-.1-1.9.2-2.3.3-.6.9-1 1.7-1.2 9.4-2.4 58.9 28.1 64.5 31.5.5.3.6.9.3 1.4-.3.5-.9.6-1.4.3-15.1-9.3-55.7-33.1-63-31.3-.3.1-.4.2-.5.3 0 .1-.1.3 0 .7 2.2 6.5 37.2 22.8 50.5 28.6.5.2.7.7.6 1.2-.1.5-.6.8-1.1.7-23-2.5-48.5-4.3-53.4-3.2 4.6 2.5 31.8 6.9 56.7 10 .5.1.9.6.9 1.1-.1.5-.5.8-1 .8zM3931.5 1697.4h-.4c-2.7-.4-6.1-3.9-4.9-29.1.2-4.9.6-9.9 1-14.2-4.5 16.5-12 41.6-16.4 43.2-.6.2-1.2.1-1.7-.2-1.2-.8-3.7-2.6 7.7-38.7 5.5-17.5 11.8-34.9 11.8-35 .2-.5.8-.8 1.3-.6.5.2.8.8.6 1.3-11.8 32.7-22.5 68.1-20.3 71.4 2.5-1.1 10-21.5 18.4-54.4.1-.5.6-.8 1.2-.7.5.1.9.6.8 1.1-3.3 26-3.9 53.3.8 54 .2 0 .4 0 .8-.3 4.5-4.1 4.6-35.9 3.6-56.3 0-.6.4-1 .9-1s1 .4 1 .9c.3 5.3 2.4 51.9-4.3 57.9-.6.4-1.2.7-1.9.7zm-21.2-2zM3922.6 1457.3c-.3 0-.7-.2-.9-.5-.3-.5-.1-1.1.4-1.4 46.9-26.6 89.1-101.3 89.5-102.1.3-.5.9-.7 1.4-.4.5.3.7.9.4 1.4-.4.8-42.9 75.9-90.3 102.8-.2.2-.4.2-.5.2zM3900.4 1371.6c-.2 0-.5-.1-.7-.2-.4-.4-.5-1-.1-1.4 7.4-8.6 33.8-42.3 35.2-44.3.9-1.3 4.5-.7 25.4 4.7 11.8 3 29.3 7.4 32.8 6.9-1.9-2.3-14.2-6.5-22.5-9.4-12.3-4.3-19.9-7-20.9-9.3-.2-.5-.2-1 .1-1.4 1.1-1.7 6.4-1.8 20-1.6 9.7.1 26 .3 27.4-2.1 0 0 .1-.1-.1-.4-2.8-5.2-33.6-3.4-52.2-1.2-.4.1-.8-.1-1-.5-.2-.3-.2-.8 0-1.1 0-.1 4.3-6.3 8.4-15.6 4.2-9.4 32.2-94.5 32.5-95.4.2-.5.7-.8 1.3-.6.5.2.8.7.6 1.3-1.2 3.5-28.3 86.1-32.5 95.6-2.9 6.5-5.9 11.6-7.5 14.1 10.3-1.2 48.1-4.9 52.1 2.4.5.8.5 1.7 0 2.4-1.9 3.1-12.8 3.3-29.2 3.1-7.1-.1-15.8-.2-18 .6 1.9 1.8 12 5.3 19.5 7.9 15.7 5.5 23.2 8.4 24 11.2.1.5 0 1.1-.4 1.4-1.8 1.8-10.7-.1-35-6.3-10.1-2.6-21.4-5.4-23.5-5.2-2.6 3.5-27.9 35.8-35.1 44.2-.1.1-.3.2-.6.2z"/><path class="st19" d="m2014.7 1938.3-358.8-340.8-358.8 340.8v-681.7h717.6z"/><path class="st20" d="M806.3 978.7s171-4.2 189.4-6.5c18.4-2.3 152-67.3 168.2-51.5 16.1 15.8 17.3 32.8 18.5 42.2 1.2 9.4-111.2 80.7-176.5 89.4-100.8 13.4-170.2-17.6-199.7-26.8-29.3-9.3-8.3-42.3.1-46.8z"/><path class="st21" d="M1296.6 705.5s-10.3 4.6-15.2 10.2c-4.9 5.6-30.3 11.3-26.7 15.4 3.7 4.1 19.4-5.3 22.1-3.3s-23.3 43.4-21.1 44c2.2.6 16.4-19.9 18.4-18.3s-16.1 25.1-13.5 27.3c2.6 2.1 20.6-22.1 21.4-21.6.7.4-11.2 24.2-9.1 25.2 2.1 1.1 18.2-26.3 20-26 1.8.4-7.1 19.1-3.3 19.5 3.9.3 14.4-27.6 18-31.4 3.6-3.8 11.3-24.4 6.7-32.7-4.7-8.2-13.4-12.7-17.7-8.3z"/><path class="st21" d="M1387.4 560.4s-116.1 152.6-98.1 167.7c27.6 23 126.2-109 145.3-131.9 6.5-7.8 18-28.5 30-53.3-20.3-3.8-43.6-16.5-55.4-23.4l-21.8 40.9z"/><path class="st8" d="M1513.8 412.9c-5.3-25.1-41.6-26.9-44.7-20.5l-65 128.8c15.1 14.1 47.9 28.4 68.5 30.2 23.1-47.8 44.6-122 41.2-138.5z"/><path class="st4" d="M1013.3 729.9c-142.1 126.8-154.6 344.8-27.8 487l514.8-459.2c-126.8-142.2-344.9-154.6-487-27.8z"/><path class="st6" d="M1421.4 532.7c.4.1.8.2 1.3.2 2.5 0 4.5-2 4.5-4.4 0-4.5 2-11.6 2.8-13.9.8-2.3-.5-4.9-2.8-5.6-2.3-.8-4.9.5-5.6 2.8-.1.4-3.2 9.8-3.3 16.6 0 2 1.3 3.7 3.1 4.3zM1460.3 533.1c.8-2.3-.5-4.8-2.8-5.6-2.3-.7-4.8.5-5.6 2.8-.1.4-2.9 8.8-3.2 15.5 2.9 1 5.7 1.9 8.5 2.7.2-.5.3-1 .3-1.6.1-4.4 2-11.4 2.8-13.8zM1497.1 448.9c0 .1-1.2 6.7-3.4 11.2-1.1 2.2-.2 4.9 2 6 .2.1.4.2.7.3 2.1.6 4.3-.3 5.3-2.3 2.8-5.6 4.2-13.2 4.2-13.5.4-2.4-1.2-4.7-3.6-5.2-2.4-.5-4.7 1.1-5.2 3.5z"/><path class="st21" d="m1474.4 1202.4 38.9 6.4s52.5-84.1 73.8-185.5c2.1-9.8 2.6-52 2.6-52l24.3-93.6c-36.8-1.5-69.9-4.4-94.2-6.9l-45.4 331.6z"/><path class="st7" d="M1758.3 612.1c-4.3-13-14.2-33.3-27.8-56.5-30.7 18.2-90.4 50.5-140.1 58.2-16 2.5-29.6 4.1-41 5 1.4 25.2-.9 43.4-.9 43.4l-28.6 208.6c24.3 2.5 57.5 5.3 94.2 6.9l44.4-146 48 146.4c32.5-1.3 64.6-4.3 93.4-10-16.2-118.5-32.9-229.8-41.6-256z"/><path class="st21" d="M1841.9 1194.9s-20.6-169.7-42-326.9c-28.8 5.7-60.9 8.8-93.4 10 0 0 16.6 75.1 24 99.6 17 56 80.6 219.9 80.6 219.9l30.8-2.6z"/><path class="st8" d="M1768.2 614.8c-23.7-77.2-77-103.8-77-103.8 1.3-20 .2-36.8-20.7-59.3-49.4-53.5-84-80.8-117.3-91.5-27.2-8.8-75.9 4.1-86.4 34.7-3.8 11-2.1 38.3 0 56.5 2.8 24.6 15.2 106.3 54.7 127 0 0 6 182.7 3 210.7-1.3 12 264.8-24.5 267.3-33.5s-12.8-105.4-23.6-140.8z"/><path class="st19" d="M1460.7 249.4s1.3-19.1 16.2-20.3c14.9-1.2 25.8 8.8 23.6 22.3-2.1 13.5-24.5 18.2-31.3 15.6-6.8-2.6-8.8-15.4-8.5-17.6z"/><path class="st6" d="M1590.8 540.7c-2.2 1.1-3.2 3.7-2.1 5.9.2.4 4.4 9.3 9.1 14.3 1.4 1.5 3.5 1.8 5.2 1 .4-.2.7-.4 1.1-.7 1.8-1.7 1.9-4.5.2-6.3-3.1-3.3-6.5-9.8-7.5-12-1.1-2.3-3.8-3.3-6-2.2zM1550.5 512.5c.4-.2.7-.4 1.1-.7 1.8-1.7 1.9-4.5.2-6.3-3.1-3.3-6.5-9.8-7.5-12-1.1-2.2-3.7-3.2-5.9-2.1s-3.2 3.7-2.1 5.9c.2.4 4.4 9.3 9.1 14.3 1.2 1.4 3.3 1.7 5.1.9zM1662.9 539.1c.4-.2.7-.4 1.1-.7 1.8-1.7 1.9-4.5.2-6.3-3.1-3.3-6.5-9.8-7.5-12-1.1-2.2-3.7-3.2-5.9-2.1s-3.2 3.7-2.1 5.9c.2.4 4.4 9.3 9.1 14.3 1.3 1.4 3.4 1.8 5.1.9zM1637.7 554.3c.4-.2.7-.4 1.1-.7 1.8-1.7 1.9-4.5.2-6.3-3-3.3-6.4-9.7-7.5-11.9-1-2.2-3.7-3.2-5.9-2.1-2.2 1-3.2 3.7-2.1 5.9.2.4 4.4 9.2 9 14.2 1.4 1.5 3.5 1.8 5.2.9zM1627.6 634.9c1.4 1.5 3.5 1.8 5.2 1 .4-.2.7-.4 1.1-.7 1.8-1.7 1.9-4.5.2-6.3-3.1-3.3-6.5-9.8-7.5-12-1.1-2.2-3.7-3.2-5.9-2.1s-3.2 3.7-2.1 5.9c.2.3 4.4 9.2 9 14.2zM1617.5 513.1c.2-.1.4-.2.7-.3 1.9-1 2.9-3.2 2.3-5.3-1.9-6-6.1-12.4-6.2-12.7-1.3-2.1-4.1-2.6-6.2-1.3-2.1 1.3-2.6 4.1-1.3 6.2 0 .1 3.7 5.7 5.2 10.5.6 2.3 3.1 3.6 5.5 2.9zM1611.1 462.4c.2-.1.4-.2.7-.3 1.9-1 2.9-3.2 2.3-5.3-1.9-6-6.1-12.4-6.2-12.7-1.3-2.1-4.1-2.6-6.2-1.3-2.1 1.3-2.6 4.1-1.3 6.2 0 .1 3.7 5.7 5.2 10.5.6 2.3 3.1 3.6 5.5 2.9zM1670.1 596.1c.2 0 .5-.1.7-.2 2-.7 3.3-2.8 2.9-5-1.1-6.2-4.5-13.1-4.7-13.4-1.1-2.2-3.8-3.1-6-2s-3.1 3.8-2 6c0 .1 3 6.1 3.9 11 .4 2.4 2.8 4 5.2 3.6zM1638.7 418.9c-.3 1-.3 2.2.2 3.2.2.4 4.4 9.3 9.1 14.3 1.4 1.5 3.5 1.8 5.2 1 .4-.2.7-.4 1.1-.7.4-.4.7-.8.9-1.2-5.7-6-11.2-11.5-16.5-16.6zM1595.4 387c1.4 1.5 3.5 1.8 5.2 1 .4-.2.7-.4 1.1-.7l.3-.3c-4.4-3.3-8.7-6.4-13-9.2 1.7 3 4 6.6 6.4 9.2zM1668.8 496.1c.2.4 4.4 9.3 9.1 14.3 1.4 1.5 3.5 1.8 5.2 1 .4-.2.7-.4 1.1-.7 1.8-1.7 1.9-4.5.2-6.3-3.1-3.3-6.5-9.8-7.5-12-1.1-2.2-3.7-3.2-5.9-2.1-2.3.9-3.3 3.6-2.2 5.8zM1521.8 377.4c-2.2 1.1-3.2 3.7-2.1 5.9.2.4 4.4 9.3 9.1 14.3 1.4 1.5 3.5 1.8 5.2 1 .4-.2.7-.4 1.1-.7 1.8-1.7 1.9-4.5.2-6.3-3.1-3.3-6.5-9.8-7.5-12-1.2-2.3-3.8-3.2-6-2.2zM1508.7 413.8c.4-.2.7-.4 1.1-.7 1.8-1.7 1.9-4.5.2-6.3-3-3.3-6.4-9.7-7.5-11.9-1-2.2-3.7-3.2-5.9-2.1-2.2 1-3.2 3.7-2.1 5.9.2.4 4.4 9.2 9 14.2 1.4 1.4 3.5 1.8 5.2.9zM1506.8 466c1.4 1.5 3.5 1.8 5.2 1 .4-.2.7-.4 1.1-.7 1.8-1.7 1.9-4.5.2-6.3-3.1-3.3-6.5-9.8-7.5-12-1.1-2.2-3.7-3.2-5.9-2.1s-3.2 3.7-2.1 5.9c.1.2 4.4 9.2 9 14.2zM1534 435c-2.2 1.1-3.1 3.8-2 6 0 .1 3 6.1 3.9 11 .4 2.4 2.8 4 5.2 3.6.2 0 .5-.1.7-.2 2-.7 3.3-2.8 2.9-5-1.1-6.2-4.5-13.1-4.7-13.4-1.1-2.2-3.8-3.1-6-2zM1752.9 614.6c.4-.2.7-.4 1.1-.7 1.8-1.7 1.9-4.5.2-6.3-3.1-3.3-6.5-9.8-7.5-12-1.1-2.2-3.7-3.2-5.9-2.1s-3.2 3.7-2.1 5.9c.2.4 4.4 9.3 9.1 14.3 1.2 1.4 3.4 1.8 5.1.9zM1700.4 565.2c.4-.2.7-.4 1.1-.7 1.8-1.7 1.9-4.5.2-6.3-3.1-3.3-6.5-9.8-7.5-12-1.1-2.2-3.7-3.2-5.9-2.1s-3.2 3.7-2.1 5.9c.2.4 4.4 9.3 9.1 14.3 1.2 1.4 3.4 1.8 5.1.9zM1735.5 638.4c.2.4 4.4 9.3 9.1 14.3 1.4 1.5 3.5 1.8 5.2 1 .4-.2.7-.4 1.1-.7 1.8-1.7 1.9-4.5.2-6.3-3.1-3.3-6.5-9.8-7.5-12-1.1-2.2-3.7-3.2-5.9-2.1-2.3.9-3.3 3.6-2.2 5.8zM1566.3 610.5c.4-.2.7-.4 1.1-.7 1.8-1.7 1.9-4.5.2-6.3-3-3.3-6.4-9.7-7.5-11.9-1-2.2-3.7-3.2-5.9-2.1-2.2 1-3.2 3.7-2.1 5.9.2.4 4.4 9.2 9 14.2a4.6 4.6 0 0 0 5.2.9zM1779.7 665.1c-1.1-5.7-2.2-11.2-3.3-16.5-.2.1-.4.1-.6.2-2.2 1.1-3.2 3.7-2.1 5.9.2.3 2.7 5.7 6 10.4zM1705.4 653.6c.7 2.4 3.2 3.7 5.6 2.9.2-.1.4-.2.7-.3 1.9-1 2.9-3.2 2.3-5.3-1.9-6-6.1-12.4-6.2-12.7-1.3-2.1-4.1-2.6-6.2-1.3-2.1 1.3-2.6 4.1-1.3 6.2 0 .1 3.6 5.8 5.1 10.5zM1699 602.9c.7 2.4 3.2 3.7 5.6 2.9.2-.1.4-.2.7-.3 1.9-1 2.9-3.2 2.3-5.3-1.9-6-6.1-12.4-6.2-12.7-1.3-2.1-4.1-2.6-6.2-1.3-2.1 1.3-2.6 4.1-1.3 6.2 0 .1 3.6 5.7 5.1 10.5zM1548 553.2c.4 2.4 2.8 4 5.2 3.6.2 0 .5-.1.7-.2 2-.7 3.3-2.8 2.9-5-1.1-6.2-4.5-13.1-4.7-13.4-1.1-2.2-3.8-3.1-6-2s-3.1 3.8-2 6c0 0 3 6 3.9 11zM1602.9 740.1c.6 2.4 3 3.9 5.4 3.3 2.4-.6 3.9-3 3.3-5.4-.1-.4-2.4-10-5.9-15.9-1-1.7-3.1-2.5-4.9-2-.4.1-.8.3-1.2.5-2.1 1.3-2.8 4-1.6 6.1 2.4 3.9 4.3 11 4.9 13.4zM1659.6 674.7c1.1 2.2 3.7 3.2 6 2.1 2.2-1.1 3.2-3.7 2.1-6-.2-.4-4.5-9.3-9.2-14.2-1.4-1.5-3.5-1.8-5.2-.9-.4.2-.7.4-1.1.7-1.8 1.7-1.9 4.5-.2 6.3 3 3.3 6.5 9.8 7.6 12zM1629.8 715c3.5 2.8 7.8 8.8 9.1 10.9 1.3 2.1 4.1 2.6 6.2 1.3 2-1.4 2.6-4.1 1.3-6.2-.2-.3-5.7-8.6-11-12.9-1.6-1.3-3.7-1.3-5.3-.2-.4.2-.7.5-1 .9-1.4 1.8-1.2 4.6.7 6.2zM1478.9 494.8c1-6.2 0-13.8 0-14.2-.3-2.4-2.5-4.2-5-3.9-1.2.2-2.3.8-3 1.7 1.2 6.3 2.6 13 4.4 20 1.8-.2 3.3-1.7 3.6-3.6zM1584.1 482.6c.4-.2.7-.4 1.1-.7 1.8-1.7 1.9-4.5.2-6.3-3.1-3.3-6.5-9.8-7.6-12-1.1-2.2-3.7-3.2-5.9-2.1s-3.2 3.7-2.1 5.9c.2.4 4.5 9.3 9.1 14.2 1.3 1.5 3.5 1.8 5.2 1zM1473.9 464.1c.4 0 .9-.1 1.3-.2 2.4-.7 3.7-3.2 3-5.6-1.3-4.3-1.5-11.7-1.5-14.1 0-2.5-1.9-4.5-4.4-4.5-2.4 0-4.5 1.9-4.5 4.4 0 .4-.1 10.3 1.9 16.8.5 2 2.3 3.2 4.2 3.2zM1517 574.2c.4 0 .9-.1 1.3-.2 2.4-.7 3.7-3.2 3-5.6-1.3-4.3-1.5-11.7-1.5-14.1 0-2.5-1.9-4.5-4.4-4.5-2.4 0-4.5 1.9-4.5 4.4 0 .4-.1 10.3 1.9 16.8.5 2 2.3 3.2 4.2 3.2zM1601.5 667.8c-.4.1-.8.2-1.2.4-2.2 1.2-3 3.9-1.9 6 2.1 4 3.7 11.1 4.2 13.6.4 2.4 2.8 4 5.2 3.6 2.4-.4 4-2.8 3.6-5.2-.1-.4-1.9-10.1-5.1-16.2-1-1.7-2.9-2.6-4.8-2.2zM1525.2 670.2c-.7-2.4-1.1-5.7-1.3-8.5.1 4.2.2 8.5.3 12.8 1-1.1 1.4-2.8 1-4.3zM1650.9 780.4c-.2-.4-5-9-10-13.7-1.5-1.4-3.6-1.6-5.3-.6-.4.2-.7.5-1 .8-1.7 1.8-1.6 4.6.2 6.3 2.4 2.2 5 6.1 6.7 8.9l9.6-1.2c0-.2-.1-.4-.2-.5zM1550.2 664.7c-2.1 1.2-2.8 4-1.5 6.1 2.3 3.8 4.2 10.9 4.8 13.2.6 2.4 2.9 3.9 5.3 3.3 2.4-.6 3.9-2.9 3.3-5.3-.1-.4-2.3-9.9-5.8-15.8-1-1.7-3-2.5-4.9-2-.4.1-.8.2-1.2.5zM1615.1 782c-.1-.4-3.7-9.6-7.9-15-1.3-1.6-3.4-2.1-5.1-1.4-.4.2-.8.4-1.1.7-1.9 1.5-2.3 4.3-.7 6.3 2.8 3.5 5.7 10.3 6.6 12.6.1.3.3.7.5.9l7.8-.9c.3-1 .3-2.1-.1-3.2zM1568.1 730.1c2.4-.6 3.8-3 3.2-5.4 0-.1-1.6-6.6-1.5-11.6.1-2.5-1.9-4.5-4.3-4.6h-.7c-2.1.3-3.8 2.1-3.9 4.3-.2 6.3 1.7 13.7 1.8 14.1.5 2.4 3 3.8 5.4 3.2zM1731.5 684.9c.2.4 4.4 9.3 9.1 14.3 1.4 1.5 3.5 1.8 5.2 1 .4-.2.7-.4 1.1-.7 1.8-1.7 1.9-4.5.2-6.3-3.1-3.3-6.5-9.8-7.5-12-1.1-2.2-3.7-3.2-5.9-2.1-2.3.9-3.3 3.6-2.2 5.8zM1708.5 694.4c-2.2 1-3.2 3.7-2.1 5.9.2.4 4.4 9.2 9 14.2 1.4 1.5 3.5 1.8 5.2 1 .4-.2.7-.4 1.1-.7 1.8-1.7 1.9-4.5.2-6.3-3-3.3-6.4-9.7-7.5-11.9-1.1-2.3-3.7-3.3-5.9-2.2zM1711.7 747.3c-2.2 1.1-3.2 3.7-2.1 5.9.2.4 4.4 9.3 9.1 14.3 1.4 1.5 3.5 1.8 5.2 1 .4-.2.7-.4 1.1-.7 1.8-1.7 1.9-4.5.2-6.3-3.1-3.3-6.5-9.8-7.5-12-1.1-2.3-3.7-3.2-6-2.2zM1747.7 753.6c.4 2.4 2.8 4 5.2 3.6.2 0 .5-.1.7-.2 2-.7 3.3-2.8 2.9-5-1.1-6.2-4.5-13.1-4.7-13.4-1.1-2.2-3.8-3.1-6-2s-3.1 3.8-2 6c.1 0 3 6.1 3.9 11zM1684.1 741.3c-2.4 0-4.5 1.9-4.5 4.4 0 .4-.1 10.3 1.9 16.8.6 1.9 2.4 3.2 4.3 3.2.4 0 .9-.1 1.3-.2 2.4-.7 3.7-3.2 3-5.6-1.3-4.3-1.5-11.7-1.5-14.1-.1-2.5-2-4.5-4.5-4.5z"/><path class="st19" d="M1472.3 257.1c13.3-1.4 35.9 8.3 43 31.7 7.1 23.4.1 40.9-17.9 42.9-27.9 3-65.5-70.2-25.1-74.6z"/><path class="st21" d="M1483.6 390.1c2.4-8.6 4.5-19.6-1.6-31.4-11.2-21.8 13.1-35.3 13.1-35.3s5.7 15.8 12.9 22.3c6.5 5.9 10.4 11.6 21.3 14 .3.9-1.3 6.4-3.6 13.1-5.5 16.8-24.3 25.4-40.5 18.3-.9-.5-1.5-.8-1.6-1z"/><path class="st7" d="m1497.2 337.2-18.1 11.4c.2 3.1 1.1 6.4 2.9 10 .3.5.5 1 .7 1.5 8.8-4.1 14.5-22.9 14.5-22.9z"/><path class="st21" d="M1499.9 319.7s4.1-.6 6.7-4.9c2.1-3.4-.2-11.8-3.6-13.6s-6.9-.8-7.7-.8c-.8 0-5.2-17.9-12.2-25.3-7.1-7.4-10.5-11-24.5-6-13.9 5-18.8 14.8-21.8 22.1-3 7.3.2 19.9 1.3 25.9 1.2 6 .3 8.2.1 11.7-.4 8 0 13.5 4.6 21.2 4.6 7.7 15.6 13.4 29.4 9.3 13.7-4.1 29-16.4 27.7-39.6z"/><path class="st7" d="M1456.8 331.9c-.9 0-1.7-.2-2.3-.8-1.2-1.2-.9-3.5-.1-6.4.2-4.6-.2-16.3-4.4-18.3-1.6.2-10.1 1.4-12 1.9-.5.2-1.1-.2-1.2-.7-.2-.5.2-1.1.7-1.2 2.3-.6 12.1-2 12.6-2h.3l.2.1c6.5 2.5 5.9 18.6 5.8 20.4v.2c-.9 3.4-.7 4.4-.4 4.6.2.2.8.4 2.8-.1 4.4-1 5.6-1.8 5.6-3.6 0-.6.4-1 1-1 .5 0 1 .4 1 1 .1 3.7-3 4.7-7.1 5.6-.9.1-1.7.3-2.5.3zM1460.9 303.8c-.4 0-.7-.2-.9-.6-.2-.5 0-1.1.5-1.3 7.5-3.4 17.5-.5 18-.3s.8.7.7 1.2c-.2.5-.7.8-1.2.7-.1 0-9.7-2.8-16.6.2-.2.1-.4.1-.5.1z"/><path class="st7" d="M1441.4 318.1c-.2 1.1-.3 3.2 1.4 4.9 1.7 1.6 3.6-.3 4-1.4.4-1.1 0-3.9-.7-5-.3-.5-4-2.3-4.7 1.5zM1467.8 312.1c-.7.9-1.3 3.8.5 5.5 1.8 1.7 4.2-.1 4.8-1.2.6-1.1.4-4.5-.3-4.7-.6-.2-3.2-1.9-5 .4z"/><path class="st7" d="M1466.1 312.5h-.2c-.5-.1-.9-.7-.8-1.2.2-1 2-3.2 6.4-3.4 3.2-.1 4.1-.9 4.1-.9.3-.4.9-.5 1.4-.2.4.3.5 1 .2 1.4-.2.3-1.4 1.4-5.5 1.6-3.2.1-4.4 1.5-4.5 1.8-.3.6-.7.9-1.1.9zM1440.5 315.6c-.4 0-.8-.2-.9-.6-.2-.5 0-1.1.5-1.3.1 0 1.8-.7 4.8-.5 2.6.2 4.8.4 4.9.4.5.1.9.6.9 1.1-.1.5-.6.9-1.1.9 0 0-2.2-.3-4.8-.4-2.5-.2-3.9.4-3.9.4h-.4z"/><path class="st22" d="M1471.6 319.7s9.9-2.3 12.6 1-8.4 5.8-13.8 4.8-1.3-5.4 1.2-5.8zM1439.3 328.4s7.9-4.9 11.2-2.5c3.3 2.4-5.5 7.8-10.5 8.4-5 .5-2.7-4.8-.7-5.9z"/><path class="st19" d="M1450.3 287.7s18.1 12.5 28.9 15.5c10.8 3 21.6-6.1 21.6-6.1s-7.4-33.5-23.2-38.9c-15.8-5.4-24.7 10.6-26.2 14.6s-1.1 14.9-1.1 14.9z"/><path class="st19" d="M1452.6 285.1s-10.7 31-16.7 29.7c-3.9-.8-9.7-9.2-9.5-18.5.1-3.6 4.8-8.1 5.3-11.2.2-1.3.4-2.4.7-3.5 2.5-10.6 8.6-18.4 14.3-19.6 5.7-1.2 12.7.1 11.7 4.3s-5.8 18.8-5.8 18.8z"/><path class="st19" d="M1474.3 305.5c.5-.1.9-.4 1-.9.2-.7-.2-1.5-.9-1.8-.1 0-7-2.4-12-5.9-5.1-3.6-12.3-10.6-12.4-10.6-.6-.5-1.5-.5-2 0-.5.6-.5 1.5 0 2 .3.3 7.4 7.1 12.7 10.9 5.3 3.8 12.5 6.2 12.8 6.3.3 0 .6.1.8 0z"/><path class="st6" d="M1449.1 337.3s19.4-3.1 23.9-6.1c0 0 .7 13-10.7 13.7-11.4.7-13.2-7.6-13.2-7.6z"/><path class="st21" d="M1810.7 1187.5c-.4-3.5 28.7-4.6 29.6 0 0 0 1.5 8.7 3 12.9.4 1 1 2.3 1.8 3.7-.9 4.3-2.3 9.8-2.9 9-.9-1.4 4.4-6.4-1.8-9.1-6.2-2.6-17.4-2.1-19.3 1.1-1.9 3.1-.1 8.5-1.8 8.5-1.1 0-5.5-4.3-8.6-7.5.3-.7.5-1.2.5-1.2s-.1-13.8-.5-17.4z"/><path class="st6" d="M1825.2 1256.5c7.5 0 10-8.6 18.1-8.7s9.5 8 13.4 2c3.9-6 2.2-11.5 2.2-11.5s6.2-1.1 6.6 4c.5 5.1 1.1 17.3-7.2 23.1-8.3 5.8-19.9 9.9-29.6 6.8-9.7-3.1-22.3-8.9-25.1-15.2-2.8-6.2 2.2-19.9 2.2-19.9 6.7 13.2 11.8 19.3 19.4 19.4z"/><path class="st7" d="M1810.7 1206.1c3.1 3.2 7.5 7.5 8.6 7.5 1.7 0-.1-5.3 1.8-8.5 1.9-3.1 13.1-3.7 19.3-1.1 6.2 2.6.9 7.7 1.8 9.1.6.9 2-4.7 2.9-9 2.5 4.4 6.4 10.5 8.3 15.8 2.5 7 5.3 18.3 5.3 18.3s1.7 5.6-2.2 11.5c-3.9 6-5.2-2.2-13.4-2s-10.6 8.7-18.1 8.7c-7.5 0-12.7-6.1-19.4-19.3 0 0 1.9-14.8 1.8-19.3.2-3.4 2.3-9.3 3.3-11.7z"/><path class="st21" d="M1480.4 1212.7c2.2 4.5-8.7 10.5-2.9 12.3 5.8 1.8 13.4.5 18.3-3.8 4.9-4.4 11.2-11.6 18.5-7.7-1.1-4.3-2.2-14.9-1.6-17.7.8-3.3-31.8-7.4-32.8-5.3l-8.5 18.3s6.7-.6 9 3.9z"/><path class="st7" d="M1423.7 1249.6c9.5 7.1 18.2-4.3 25-2.6 6.9 1.7 10.9-4.2 17.7-.4 6.8 3.8 2.6 5.6 8.5 4.3 5.9-1.3 30.8-26.6 45.5-15.8-1.2-3.2-4.4-18.1-5.7-19.9-.2-.3-.4-.9-.6-1.6-7.3-3.9-13.6 3.3-18.5 7.7s-12.6 5.6-18.3 3.8c-5.8-1.8 5.1-7.8 2.9-12.3-2.2-4.5-8.9-3.9-8.9-3.9s-3.7-.3-7.9 4.7-12 7.2-14.7 7.4c-2.7.2-30.4 12.8-30.4 12.8s-4 8.7 5.4 15.8z"/><path class="st6" d="M1520.6 1235.1c-14.8-10.8-39.6 14.5-45.5 15.8-5.9 1.3-1.7-.4-8.5-4.3-6.8-3.8-10.9 2-17.7.4-6.9-1.7-15.6 9.8-25 2.6-9.5-7.1-5.3-15.9-5.3-15.9s-3-5.8-11.9-3c-8.8 2.8-15.7 9-11.1 18.8s26.5 15 37.9 16.4 14.7-2.9 14.7-2.9 1.5-7 5.8-3.3c4.3 3.8 2.9 5.4 2.9 5.4l21.7.5s2.9-11.1 7.5-8.5c4.6 2.6-1.6 8.8 5 11.3 6.5 2.5 37.9-5.1 39.1-12.7 1-7.6-8.5-17.4-9.6-20.6z"/><path class="st7" d="m1521.7 588.5-7.1-14.7c62.7-7.3 110-29.3 134.5-42.9 26.5-14.7 42.4-29.1 42.5-29.3l10.2 15.5c-2.1 2.4-52.4 56.5-180.1 71.4z"/><path class="st7" d="M1579.7 410.3s-45.9 59.3-50.4 73.7c-2.9 9.3-16.8 50.8-26.1 78.6 5.3 6.7 11.4 12.1 18.3 15.7 0 0 .3 9.9.8 25.4 10.1-15.1 50.9-51.4 60.9-114.1 8.7-54.6-3.5-79.3-3.5-79.3zM1579.1 755.5l-18.7-3.5s0 .1-.1.4c0-.3.8-7.2-.1-43.7-1-39.4-6.9-131.3-7-132.2l19-1.2c.1.9 6 93.2 7 133 1 36.9.3 45.3-.1 47.2z"/><path class="st21" d="M1393.9 697.8s-9.8 5.5-14.2 11.5c-4.4 6-29.2 14-25.2 17.7 4 3.8 18.8-7 21.7-5.2 2.9 1.8-19.3 45.3-17.1 45.7 2.2.4 14.6-21.3 16.7-19.8 2.1 1.4-13.8 26.4-11 28.3 2.8 1.9 18.6-23.8 19.3-23.5.8.3-9.1 25.1-6.9 26 2.2.9 15.8-27.8 17.6-27.7s-5.4 19.7-1.5 19.7c3.9 0 11.9-28.8 15.1-32.9 3.2-4.1 9.1-25.3 3.7-33.1-5.2-7.8-14.3-11.6-18.2-6.7z"/><path class="st21" d="M1471.4 545.1s-102.1 162.3-82.8 175.7c29.5 20.5 116-119.8 133-144.3 5.8-8.4 15.3-30 25.1-55.8-20.6-2-44.9-12.5-57.2-18.4l-18.1 42.8z"/><path class="st8" d="M1584.2 387c-7.5-24.5-43.8-23.1-46.3-16.4l-53.2 134.1c16.3 12.7 50.2 24 70.9 24 18.7-49.8 33.5-125.6 28.6-141.7z"/><path class="st7" d="M1481.2 515.1c-.3 0-.7-.2-.9-.5-.9-1.5-21.1-36-19.1-53.6 2-17.3 2.8-56.3 2.8-56.6 0-.6.5-1 1-1 .6 0 1 .5 1 1 0 .4-.9 39.5-2.9 56.8-1.9 17 18.7 52 18.9 52.4.3.5.1 1.1-.4 1.4-.1 0-.2.1-.4.1zM1486.3 501.4c-.1 0-.3 0-.4-.1-.5-.2-.7-.8-.5-1.3.3-.7 31.3-73 35-88.2 3.8-15.3 13.5-36.4 13.6-36.6.2-.5.8-.7 1.3-.5.5.2.7.8.5 1.3-.1.2-9.7 21.1-13.4 36.2-3.8 15.3-33.8 85.5-35.1 88.5-.2.5-.6.7-1 .7z"/><path class="st6" d="M1515.3 478.8c.4.1.8.2 1.3.2 2.5 0 4.5-2 4.5-4.4 0-4.5 2-11.6 2.8-13.9.8-2.3-.5-4.9-2.8-5.6-2.3-.8-4.9.5-5.6 2.8-.1.4-3.2 9.8-3.3 16.6 0 2 1.3 3.8 3.1 4.3zM1550.7 366.4c-.5 2.6-.9 5.4-1 7.9 0 2 1.3 3.7 3.1 4.3.4.1.8.2 1.3.2 2.4 0 4.4-1.9 4.5-4.4 0-2.1.5-4.7 1-7.2-3.1-.6-6.1-.9-8.9-.8zM1547.6 431.1l.6.3c2 .9 4.3.2 5.6-1.6 3.4-5.3 5.7-12.6 5.8-12.9.7-2.4-.6-4.8-2.9-5.6-2.4-.7-4.8.6-5.6 2.9 0 .1-2 6.5-4.8 10.7-1.3 2.1-.7 4.8 1.3 6.2zM1495.9 493c-2.4-.7-4.8.6-5.6 2.9 0 .1-1.8 5.7-4.2 9.8 2.2 1.6 4.8 3.2 7.5 4.8 3.1-5.2 5.1-11.7 5.2-12 .8-2.3-.6-4.8-2.9-5.5zM1560.3 480.3c.4.1.8.2 1.3.2 2.5 0 4.5-2 4.5-4.4 0-4.5 2-11.6 2.7-13.9.8-2.3-.5-4.9-2.9-5.6-2.3-.7-4.9.5-5.6 2.9-.1.4-3.1 9.8-3.2 16.6.1 1.9 1.4 3.6 3.2 4.2z"/><path class="st0" d="m600.5 1608.5-127 211.1 41 29s124.7-93.8 169.8-213.1c6.6-17.3 12.2-46.6 17-63.9-49-1.1-75.1 1.3-92.7 0l-8.1 36.9zM753.5 1918.1s6.5 16.8 23.3 14.7c18.8-2.4 19.1-13.2 19.1-13.2l35.6-336.2c-27.7 2.3-62.9 3.4-92.3 3.4 0 0 .2 79.3 0 101.6-.6 60.8 14.3 229.7 14.3 229.7z"/><path class="st17" d="M761.4 1278.9c-46.9-1.4-105.5-15.1-105.5-15.1s-27.4 80.8-33.4 108.5c-11.2 51.4-27.1 208.7-27.1 208.7 17.6 1.3 69.9 11.4 119 12.5 15.8-73.8 13.7-101.2 21.8-131.8l-6 131.1c29.5 0 89.4 1.9 117.1-.4l17.6-324.2c-.1 0-36.7 12.7-103.5 10.7z"/><path class="st7" d="m857.3 1406.1-61.3 9.2s37.6 25.3 59.1 31.2l2.2-40.4zM736.1 1462.7c-.6 0-1-.5-1-1.1.2-3 4.9-74 20.1-82.6 15-8.5 69.3-6.7 71.6-6.6.6 0 1 .5 1 1 0 .6-.4 1-1 1s-56.1-1.9-70.6 6.4c-5.8 3.3-11 18.3-14.9 43.4-3 19.1-4.2 37.5-4.2 37.7 0 .4-.4.8-1 .8z"/><path class="st7" d="M736.1 1428.6c24.5-15.7 10.5-139.2 10.5-139.2s-94.5 58.5-122.7 76.6c-.6 2.3-1.1 4.4-1.5 6.3-2.8 13.1-6 33.1-9.1 55.6 27.7 4 103 13.5 122.8.7z"/><path class="st0" d="M1063.7 988.6s8.2-7.8 15.2-10.2c7-2.5 21.9-23.9 24.3-18.9 2.4 5-12.2 16-11.3 19.3.9 3.3 49-5.4 48.7-3.1-.3 2.3-24.6 7.8-23.8 10.2.7 2.5 29.3-5.5 30.3-2.3s-28.2 10.9-28.1 11.7c.1.8 26.6-1.4 26.8 1 .2 2.4-31.2 7-31.6 8.8-.4 1.8 20.4.5 19.3 4.3-1.1 3.7-31 3-35.8 4.9-4.9 1.9-26.9 1.3-32.8-6.1-6-7.5-6.9-17.3-1.2-19.6z"/><path class="st2" d="M793.2 959.8s-5.1-6.3-28.8-7.8-54 1.9-63 9.1c-9 7.2 10.6 16 37.6 17.6 27 1.7 30.5 4.6 37.5 0s24.6-16 16.7-18.9z"/><path class="st20" d="M564.2 1403.2c-13.6-2.7 51.3-186.2 52.3-200.4 7.8-106.4 40.7-166.9 59.2-191.6 18.2-24.4 58.2-44.4 143.5-32.9 56.5 7.6 45.7 299.9 59.2 438.6-17.5 10.7-51.7-3.6-82.3-1.7-4.2.3-2.5-129.3-2.5-129.3l-42.2 3.3s-24.2 123.4-30.1 122.9c-32.5-2.3-131.9 4.6-157.1-8.9z"/><path class="st2" d="M747.5 1066.2c.4-14.1-12.8-92.8-7.9-97 .6-.5 1.4-1 2.2-1.3 3-.5 6.1-.9 9.2-1.1 4.4.2 9.4 1 14.5 1.6 10.5 1.2 17.8-5 22.8 10 5.2 15.8 5.1 307.6 5.1 307.6-4.3.1-37.8 3.4-42.2 3.3.1.1-4-208.9-3.7-223.1z"/><path class="st23" d="M707 885.8s5.4 32.5 26 31.7 2.2-41.7-2.3-44.6c-4.5-2.9-22.1 7.7-23.7 12.9z"/><path class="st0" d="M739.5 904.6s-1.9 38.1-5.4 56.5c-1.4 7.3 24.7 18.5 35.8 15.1 8.6-2.6 1.7-15.4-1.9-26.3-.8-2.4-5.3-32.7-6.2-35-.9-2.4-19.1-13.6-22.3-10.3z"/><path class="st7" d="M764.5 929.9c-7.9-2.8-17.1-6.5-20.4-9.4 0 0 5 17.7 19.7 21.9 1 .3 2 .6 2.9.8-.6-3.7-1.4-8.6-2.2-13.3z"/><path class="st0" d="M771.2 852.9s10.2 19.3 13.1 24.5c2.8 5.2 6.6 9.9 9.8 18.2 3.2 8.3 5 24.3-9.5 31.8-14.6 7.5-34.7 3-41.4-4-6.7-7-7.6-11-7.6-11s-4.5 2.4-9.4-2.6c-5-5-11-12-5.9-15s7.4-.6 8.5-1.5c1.1-.9.3-17.9 6.4-22.7s28.6-23.6 36-17.7z"/><path class="st7" d="M748.9 884.3c-.3 0-.7-.2-.8-.5-.3-.5-.2-1.1.3-1.4 0 0 4.4-2.8 7.8-4.9 3.5-2.1 6.2-2.9 6.3-3 .5-.2 1.1.1 1.2.7.2.5-.1 1.1-.7 1.2 0 0-2.5.8-5.8 2.8-3.4 2.1-7.7 4.8-7.8 4.9-.2.2-.4.2-.5.2z"/><path class="st5" d="M755.1 901.9c.9 1.8 4.4 1.7 7.7-.1s5.3-4.7 4.3-6.4c-.9-1.8-4.4-1.7-7.7.1-3.3 1.7-5.2 4.6-4.3 6.4zM783.8 888.1c.9 1.8 3.3 2.3 5.3 1.2 2-1.1 2.8-3.4 1.9-5.1-.9-1.8-3.3-2.3-5.3-1.2-2 1.1-2.8 3.4-1.9 5.1z"/><path class="st7" d="M755.7 886.9c-.2 0-.5-.1-.7-.2-.4-.4-.5-1-.1-1.4.2-.2 3.8-4.3 8.7-3.3.5.1.9.6.8 1.2-.1.5-.6.9-1.2.8-3.7-.8-6.8 2.7-6.8 2.7-.1.1-.4.2-.7.2z"/><path class="st7" d="M761.6 882.8s.4-.2 1.3.3c.8.4 1.3 2.9-.2 4.4-1.4 1.4-3.1.7-3.7-.8-.7-1.5-.4-3.8 2.6-3.9zM776.4 879.2c-.2 0-.4-.1-.5-.2-.5-.3-.6-.9-.3-1.4.1-.2 3-4.7 6.6-3.9.5.1.9.6.8 1.2-.1.5-.6.9-1.2.8-1.8-.4-3.8 2.1-4.5 3-.3.3-.6.5-.9.5z"/><path class="st7" d="M780.6 874.7s.3-.2.9.2c.5.4 1.7 2.4.6 4-1.1 1.5-2.9.4-3.2-1-.4-1.5-.3-2.9 1.7-3.2z"/><path class="st23" d="M725.7 891s6.2 9.2 11.3 8.3c5.1-1-1.9-17.5-2.5-20.9s-3.5-7-3.5-7-14 2.9-5.3 19.6z"/><path class="st7" d="M778.5 898.9c-.5 0-.9-.3-1-.8-.1-.5.3-1.1.8-1.2 5.3-.9 6.2-2.5 6.3-3.1.2-1-.8-2.3-2.5-3.4-4-2.5-12.6-13.9-11.4-18.5 1.2-4.7 8.5-5 8.8-5 .6 0 1 .4 1 1s-.4 1-1 1c-1.7.1-6.3.8-7 3.5-.9 3.3 6.8 14 10.5 16.3 2.5 1.6 3.8 3.6 3.4 5.4-.4 2.3-3.1 3.8-7.9 4.7.1.1 0 .1 0 .1z"/><path class="st7" d="M765.5 881.6s3.3-2.8 5.7-3.8c2.4-.9 3.7-1.1 3.7-1.1l1 1.9s-6.4 1.9-7.6 3.7c-1.2 1.8-2.8-.7-2.8-.7z"/><path class="st7" d="M747.9 888.9s1.9.9 2 1.2c.1.3 1.3 3.9 3.3 5.5 4.1 3.2 7.4 1.9 11.3.5 6.3-2.4 5.9-5.7 5-8.4-1-2.7-1.4-6.8-4.1-8.2-2.7-1.4-8.9 1.8-10.3 2.6-1.4.7-6.9 2.8-7.5 3.9-.8 1.2.3 2.9.3 2.9zm3.6-2.5c1.4-1.1 10.1-5.9 13.1-5.2 3 .7 4.1 8.3 4.1 9.3s-1 3.3-4.5 4.6c-3.5 1.4-9.1 3.6-12.4-5 0 0-1.7-2.5-.3-3.7zM772.8 876.5c.8 1 4.2 11 10.2 10.5 6-.5 8.4-4.1 8.3-5.6-.1-1.5-2.9-8.7-2.2-8.5.7.2 2.3.1 1.9-1.5-.4-1.6-.2-2.8-1.1-2.6-1 .2-4.3.9-6.1 1.2-3.8.7-11.8 5.5-11 6.5zm2.7-1.1c1.1-.9 7.9-5.1 10.3-4.1 2.4 1 3.7 8.4 3.8 9.3.1.9-.6 3-3.4 3.9-2.7.9-6.8 3.1-9.9-5.4 0 0-1.9-2.8-.8-3.7z"/><path class="st7" d="M749.7 885.1s-23.1 7.5-23.5 7.9c-.4.4-.1 1 .2 1.4.3.3 24.5-5.2 24.5-5.2l-1.2-4.1zM724.2 976.8s66.4 81 74.1 86.2c7.6 5.2 65 60.2 65 60.2s1.9.9 1.1 9.2c-1 10.1-3.3 12.9-3.3 12.9l-24.8-18.4s-32.6 11.9-52.1.6c-19.4-11.3-34-51.1-33.4-67.9.6-16.8 4-27.4 4-27.4l-40.5-46.5s3.2-7.4 9.9-8.9z"/><path class="st2" d="M765.6 972.3s-48-9.8-58.1-12.2c-10.1-2.4-12.6 12.6-16.1 17.6-3.5 5 1.7 14.4 1.7 14.4s39.1-6.3 50-2.2c10.9 4.2 23.1 4 30.2 2.9 7.1-1.1 11.3-8.5 13.4-10.5 2.1-2 18.1-5.3 18.1-5.3s-.8-13-8.6-16.2c-7.8-3.2-16.2-2.2-17.4-.9-1.1 1.2-13.2 12.4-13.2 12.4z"/><path class="st7" d="m772.8 903.6 19.2-7.9s2.6 9.4-4.8 12.8c-5.4 2.5-12.6-1.2-14.4-4.9z"/><path class="st6" d="M790.6 900c.8-1.2.7-2.8.4-3.9l-18.2 7.5c1.1 2.2 3.8 3.2 6.2 2.4 4.4-1.6 10.7-4.6 11.6-6z"/><path class="st4" d="M728.6 876.8s21.2-10.7 30-14.4c8.8-3.8 14.2-5.9 16.5-15 2.3-9.2-10.8-24.5-18-25.6-7.2-1.1-5.3 8.3-5.3 8.3s-9-5.9-12.5-2c-3.5 3.9-1.6 9.2-1.6 9.2s-15.9 0-15.9 5.9 2.8 6.5 2.8 6.5-18.7-1.7-20.4 3.6c-1.7 5.3 0 6.6 0 6.6s-9.9 10.6-5 18.5c5 7.8 5 9.7 11.4 8.7 6.7-1.1 18-10.3 18-10.3z"/><path class="st6" d="M665.8 1339.3c-5.9 0-11.2-1-14.6-3.2-3.9-2.5-7.1-10.3-9.6-23.3-2.4-13-4.7-40.3-2.7-43 1.8-2.5 48.1-9.2 67.8-12 .3 0 .5 0 .7.2.2.2.3.4.3.7l-.3 7.2v.1c-.1.4-6.2 40.6-8.4 55.6-.8 5.3-5 9.8-12.2 13.1-6.2 3.1-14 4.6-21 4.6zm-25.4-68.3c-.6 1.6-.5 15.4 1.4 30.5 2.3 18.2 6.1 30.3 10.4 33.1 7 4.4 22.8 3.8 34-1.3 4.6-2.1 10.2-5.9 11.1-11.7 2.2-14.8 8.2-53.9 8.4-55.6l.2-6.1c-24.4 3.4-62.6 9.2-65.5 11.1zm-.1 0zM850.2 1362.2c-1.1 0-2.3-.3-3.4-.9-12.5-6.5-23.7-48.5-25.2-58.6-1.7-11.6-3.7-44.3-3.8-44.6 0-.4.2-.7.5-.9.3-.2.7-.1 1 .1 16.6 12.1 41.6 30.2 43.2 31.2 0 0 .1 0 .1.1.4.3.7.4 1.1 11.3.2 5.7.4 14.3 0 23.5-.9 22.1-4.4 34.9-10.5 38.1-.9.4-2 .7-3 .7zm-30.4-102.3c.5 7.3 2.2 32.6 3.6 42.5 1.4 9.6 12.5 51.2 24.2 57.2 1.7.9 3.3.9 4.8.1 12.6-6.5 9.6-64.4 8.9-69.9-.9-.6-2.8-1.9-6.6-4.6-4.1-2.9-9.5-6.9-14.9-10.8-8.3-5.9-16.6-12-20-14.5zM736.1 1135.4c0 2.6 1.2 4.7 2.7 4.7s2.7-2.1 2.7-4.7-1.2-4.7-2.7-4.7-2.7 2.1-2.7 4.7zM736.1 1191.8c0 2.6 1.2 4.7 2.7 4.7s2.7-2.1 2.7-4.7-1.2-4.7-2.7-4.7-2.7 2.1-2.7 4.7zM736.1 1248.2c0 2.6 1.2 4.7 2.7 4.7s2.7-2.1 2.7-4.7-1.2-4.7-2.7-4.7-2.7 2.1-2.7 4.7zM736.1 1304.6c0 2.6 1.2 4.7 2.7 4.7s2.7-2.1 2.7-4.7-1.2-4.7-2.7-4.7-2.7 2.1-2.7 4.7z"/><path class="st13" d="M753.9 1957.4s-3.9-51.8-3.2-76.4c.5-17.7 50-21.4 50.8-10.7 1.3 17.4-7.6 65.9-.7 73.1 6.8 7.2-36.3 31.2-46.9 14z"/><path class="st7" d="M872.2 1976.3c-2.2-6.3-16.1-7.2-29.1-10.8-13-3.6-19.3-12.5-25.5-19.3-6.3-6.7-16.1-5.4-16.1-5.4s-3.1 2.7-10.8 6.3c-7.6 3.6-5.4 8.1-16.1 5.8-10.8-2.2-17 0-17 0l-4.9 1.3c-2.3.6-2.9 6.6-2.6 13.1 7.7 3.5 24.3 10.5 35.7 11.5 15.2 1.3 66.3 4.5 74.4 2.2 3.7-1 8.4-2.7 12.3-4.2-.1 0-.2-.3-.3-.5z"/><path class="st13" d="M860.1 1981.2c-8.1 2.2-59.1-.9-74.4-2.2-11.4-1-28.1-8-35.7-11.5.3 7.2 1.6 15 2.6 16.9 1.8 3.6 17.5 5.4 25.5 6.7 8.1 1.3 85.2 1.3 88.8.4 3.4-.9 7.3-8.3 5.6-14.5-4 1.5-8.6 3.2-12.4 4.2zM437.7 1868s25.2-41.6 42.1-61c11.7-13.4 67.7 14.4 60.8 22.6-10.7 12.7-49.6 40.7-55.1 48.9-5.6 8.3-46.9 9.7-47.8-10.5z"/><path class="st7" d="M532 1942c1.1-6.6-10.6-14.1-20.2-23.5s-10.7-20.3-13-29.2c-2.2-8.9-11.5-12.5-11.5-12.5s-4 .8-12.4.2-8.6 4.4-16.9-2.7c-8.3-7.2-14.9-8.3-14.9-8.3l-5-1.2c-2.4-.6-5.7 4.4-8.6 10.2 5 6.8 16.2 21 25.6 27.4 12.7 8.6 55.8 36.1 63.9 38.1 3.7.9 8.6 1.7 12.8 2.3.1-.3.1-.6.2-.8z"/><path class="st13" d="M519 1940.4c-8.1-2-51.3-29.5-63.9-38.1-9.5-6.4-20.6-20.6-25.6-27.4-3.2 6.4-5.9 13.9-6 16-.2 4 12.7 13.2 19.1 18.3 6.4 5.1 73.8 42.5 77.4 43.5 3.4.9 10.4-3.7 11.9-9.9-4.3-.7-9.2-1.5-12.9-2.4z"/><path class="st20" d="M699.1 993.5s170.2 17.5 188.7 17.5 159.3-47.5 173.3-29.8 13 34.7 13 44.2-120.5 66-186.3 66.3c-101.7.6-166.7-39-194.7-51.8-27.9-12.9-2.9-43 6-46.4z"/><path class="st7" d="M872.1 1066.5c-.4 0-.8-.2-1.1-.7-1.1-2 .7-10.6 4.8-28.3 1.9-8.1 4.1-17.7 4.5-21.9-1.6 3.3-4.2 10.4-6.3 15.9-6.2 16.6-7.6 19.5-9.2 19.4-.3 0-1-.2-1.3-1.3-.6-2.5 1.5-8.2 4.9-17.3 3.1-8.2 7.3-19.4 5.7-21.9-.1-.2-.3-.3-.5-.3-3.7-.5-13.3-1-22.7-1.4-8.2-.4-16.8-.8-21.6-1.2-10.2-1-73.1-7.1-73.8-7.1-.5-.1-1-.5-.9-1.1.1-.5.5-1 1.1-.9.6.1 63.6 6.2 73.8 7.1 4.8.4 13.3.8 21.5 1.2 9.8.5 19.1.9 22.9 1.4.8.1 1.5.6 1.9 1.3 1.9 3.1-1 11.4-5.6 23.7-2 5.3-4.2 11.3-4.8 14.4 1.7-3.3 4.4-10.8 6.6-16.6 5.8-15.5 7.1-18.5 8.6-18.8.4-.1.9.1 1.2.4 1.1 1.4 0 7-4.2 25.6-2 8.6-4.6 19.9-5 24.7 3.1-7.8 10-35.3 12.5-45.1.9-3.7 1.6-6.2 1.8-6.9 1.2-4 9.6-2.6 11.3-2.3.5.1.9.6.8 1.2-.1.5-.6.9-1.2.8-3.3-.6-8.5-.8-9 .9-.2.6-.8 3.2-1.7 6.8-11.2 44.6-13.2 48.2-14.8 48.4-.1-.1-.2-.1-.2-.1zM748.8 1066.5c-.1 0-.2 0-.4-.1-14.1-5.3-58.3-27-58.7-27.3-.5-.2-.7-.8-.5-1.3.2-.5.8-.7 1.3-.5.4.2 44.5 21.9 58.5 27.2.5.2.8.8.6 1.3 0 .5-.4.7-.8.7zM704.4 1579.5c-53.2 0-107.2-12.4-107.7-12.5-.5-.1-.9-.7-.7-1.2.1-.5.7-.9 1.2-.7.6.1 62.1 14.3 118.3 12.3.6-.1 1 .4 1 1s-.4 1-1 1c-3.6.1-7.3.1-11.1.1zM787.8 1582.2c-31 0-56.8-2.6-57.2-2.7-.5-.1-.9-.5-.9-1.1.1-.5.5-1 1.1-.9.7.1 68.9 7 117-1.8.5-.1 1.1.3 1.2.8.1.5-.3 1.1-.8 1.2-18.8 3.4-40.6 4.5-60.4 4.5z"/></svg>