<svg xmlns="http://www.w3.org/2000/svg" viewBox="0 0 1340.4 180.7" style="enable-background:new 0 0 1340.4 180.7" xml:space="preserve"><path d="M435.4 118.5h23.2c-2.6 12.8-15 19.1-27.2 19.1-32 0-38.4-31.2-38.4-47.3 0-11.8-1.2-47.3 34.9-47.3 12.5 0 23 9.2 24.8 21.5H503C495.3 23.9 467.8 0 424.4 0c-38.4 0-84.1 24.1-84.1 90.2 0 66 44.8 90.3 81.4 90.3 18.6 0 36.7-6.5 48.4-21.8l1.7 17.6H505V81.6h-69.7l.1 36.9zm159.1-1.3c0 20-10.7 24.1-18.8 24.1-13.9 0-15.5-10.1-15.5-24.6V51.1H513V137c0 28.7 20.3 42.4 42.5 42.4 18.9 0 31.5-6.5 40.4-19h.4v15.9h45.6V51.1h-47.3v66.1h-.1zM964 64.9h-.5C956.4 54.3 943.7 48 929.7 48c-41.5 0-52.8 35.7-52.8 65.1 0 31.3 17 66.3 52.1 66.3 20.5 0 30.3-8.9 36.3-16.9h.5v13.7h45.9V4.1H964v60.8zm-19.1 79.8c-16.9 0-20.8-16.2-20.8-31.1 0-14.7 3.8-30.9 20.8-30.9 16.9 0 20.8 16.2 20.8 30.9 0 14.9-3.9 31.1-20.8 31.1zm75.5-107.1h47.2V4.1h-47.2v33.5zm0 138.7h47.2V51.1h-47.2v125.2zM1202.1 97c0-36-16.3-49-60.8-49-41.5 0-62.6 12.8-63.8 41h43.9c.3-5.3 3.1-12.8 17.7-12.8 7.6 0 15.6 3.1 15.6 11.6 0 8-6.5 9.9-12.9 11.1-24.1 4.6-69.9 3.1-69.9 42.7 0 26.3 19.8 37.8 43.7 37.8 15.2 0 29.9-3.4 39.9-14.9h.5c0 3.2 1 9.3 1.7 11.8l50.4.1c-5.2-8-5.7-18.6-5.7-28l-.3-51.4zm-47.4 34.6c0 13.3-9.1 19.5-19.9 19.5-8.6 0-14.8-4.1-14.8-11.1 0-8.4 5.5-11.6 16-14 6.4-1.4 12.6-3.4 18.7-6v11.6zM776.2 97c0-36-16.3-49-60.8-49-41.5 0-62.6 12.8-63.7 41h44c.2-5.3 3.1-12.8 17.6-12.8 7.7 0 15.5 3.1 15.5 11.6 0 8-6.4 9.9-12.9 11.1-24.1 4.6-69.9 3.1-69.9 42.7 0 26.3 19.8 37.8 43.7 37.8 15.3 0 29.9-3.4 39.9-14.9h.5c0 3.2 1 9.3 1.7 11.8l50.4.1c-5.3-8-5.8-18.6-5.8-28l-.2-51.4zm-47.5 34.6c0 13.3-9 19.5-19.8 19.5-8.6 0-14.8-4.1-14.8-11.1 0-8.4 5.5-11.6 16-14 6.5-1.5 13.2-3.6 18.6-6v11.6zM1300.6 48c-18.9 0-34.2 6.5-43 19.1h-.4v-16h-45.6v125.1h47.3v-66c0-20 10.7-24.1 18.9-24.1 10.5 0 15.5 6.6 15.5 19.6v70.5h47.1v-89c0-28.7-17.6-39.2-39.8-39.2zM833.4 68.2c-.8 1.3-1.5 2.7-2 4.1V51.1H786v125.2h47.6v-49.4c0-22.2 10.6-37.9 28.1-37.9 4.5 0 10.3 1.8 12.7 3.2V48.6c-2.1-.3-4-.6-7.7-.6-15.8 0-25.9 6.2-33.3 20.2zM141 23.4c2.1 4.4 2.3 14.8 1.3 22.5l4.9.9 12.4-41.4H13.1L.5 45.9l4.6 1c5.1-9.6 13.2-21.1 20.9-27.1 7.6-5.9 19.5-8.5 31.1-8.5h17.5S36.2 149.1 36.2 149c-3.4 12.3-6.8 15.8-13.6 18.7-4.6 2-14.2 3.1-21.2 3.1L0 176.3c12.9 0 27.6-.9 39.8-.9 19.5 0 28.2.9 42.7.9l1-5.6c-4.4-.2-15.2-1.1-19.3-1.8-7-1.1-9.3-4.2-9.3-8.2 0-3.3 1.2-8.5 2.8-14.2l38-135.3h14c17.2 0 26.9 3.2 31.3 12.2zM225.5 48c-21.3 0-47.7 33.8-59.4 54.1h-.5c1.6-4.9 4.7-14.7 8.7-27S187.8 31.9 196.4 5l-.9-1.3c-10.4 1-20.8 1.6-31.2 1.9l-.8 3.8c1.9.1 4.2.3 5.9 1 2.9 1 4.7 2.8 4.7 5.3 0 2.7-.7 4.9-1.8 8.3-2.2 7.2-34.2 107.5-45.1 142.1-1.2 3.9-2.9 8.3-2.9 9.9 0 2.3 3.1 3.7 7.5 3.7 6.1 0 7.8-1.3 9-4.4 1.9-5.2 10-26.5 12-31.5 20.9-50.8 53.1-87 68.2-87 5.7 0 8.2 4.8 8.2 11.8 0 20.7-19 79.6-33.5 100.5-1.9 2.7-3.5 4.3-6.1 4.3-3 0-4.1-2.2-5.4-6.7-1.1-3.8-3.9-7.2-9.2-7.2-4.8 0-9.1 3.1-9.1 9.3s5.3 11.9 15.4 11.9c8.5 0 15.4-3.5 22.5-10 21.5-19.5 42.5-60.8 42.5-103.2.1-13.1-8.7-19.5-20.8-19.5zm105.8 19.8c0-12.4-6.4-19.7-22.9-19.7-29.1 0-68.1 50-68.1 92.6 0 27.5 10.1 39.7 27.3 39.7 24 0 46.1-24.6 53.9-44.4l-4.8-2.1c-9 20-25.3 33.4-37.6 33.4-12.1 0-19.2-10.2-19.2-28.2 0-5.7 1.5-14.1 4.2-23.4 38.9-5.4 67.2-24.2 67.2-47.9zm-25.9-13.5c5.1 0 8.2 2.2 8.2 9.8 0 26.4-27.2 41.2-47.5 45.9 8.4-25.9 24.4-55.7 39.3-55.7z" style="fill-rule:evenodd;clip-rule:evenodd;fill:#3b445b"/></svg>