<svg version="1.1" id="Layer_1" xmlns="http://www.w3.org/2000/svg" x="0" y="0" viewBox="0 0 1292.3 182.2" style="enable-background:new 0 0 1292.3 182.2" xml:space="preserve"><style>.st0{fill:#0a9600}.st1{fill:#3b445b}</style><path class="st0" d="M485.7 71.2v80.7h-29.5V71.2h-29.8V45.5h89v25.7h-29.7zM584.3 119.8h-46.8c.9 8.8 6.1 12.8 13.5 12.8 7 0 12.8-1.5 20.7-5.6l10.5 17.5c-9.9 5.8-20 9.1-32.5 9.1-24 0-37.2-17-37.2-41.5 0-27.5 15.5-41.6 36.5-41.6 21.9 0 35.5 14.4 35.5 44 0 2.3 0 3.9-.2 5.3zm-36.1-29.2c-6.2 0-9.7 4.3-10.6 12.1h22.8c-1.5-8-4.2-12.1-12.2-12.1zM635.2 153.5c-23.4 0-37.4-14.9-37.4-41.8 0-24.5 12.5-41.3 38-41.3 15 0 23.7 7 30.7 18.2l-18.8 14.3c-3.8-7-6.4-10.3-12.3-10.3-7 0-10.5 7-10.5 19.6s3.8 19.1 11.2 19.1c5.2 0 8.8-2.9 13.8-10.3l17.3 13.5c-9.2 13.7-17.9 19-32 19zM728.4 151.9v-45.3c0-10.3-3.5-13.1-9.1-13.1-5.8 0-9.3 2.7-9.3 12.8v45.6h-27.3V52.1l27.3-11v36.3c5-3.8 10.6-7 20-7 17.5 0 25.8 11.7 25.8 32.7v48.8h-27.4z"/><path class="st1" d="M821.4 153.5c-31.6 0-48.5-23.4-48.5-54.8 0-34.2 20-54.8 48.6-54.8 26.1 0 36.5 11.2 43.7 31.3l-26.7 10.5c-3.8-9.9-7.4-16.1-17.2-16.1-12.3 0-17.6 12.3-17.6 29.2 0 16.3 5.2 29.2 17.9 29.2 9.3 0 13.2-5 19-15l24.9 13.2c-7.1 13.8-18.9 27.3-44.1 27.3zM932.8 102.2c-3.5-3.8-7.4-6.7-12.8-6.7-6.7 0-10.8 3.2-10.8 12.9v43.4h-27.3V72.1h27.3v5.8c4.7-4.6 10-7.4 17-7.4 5.8 0 9.7 1.4 12.9 3.3l-6.3 28.4zM997.8 151.9v-5.3c-4.9 3.8-10.6 7-19.9 7-17.5 0-25.8-11.7-25.8-32.7V72.1h27.5v45.3c0 10.3 3.5 13.1 9.1 13.1s9.1-2.7 9.1-12.8V72.1h27.5v79.7h-27.5v.1zM1090.7 151.9v-45.3c0-10.3-3.5-13.1-9.1-13.1-5.8 0-9.3 2.7-9.3 12.8v45.6H1045V72.1h27.3v5.3c5-3.8 10.6-7 20-7 17.5 0 25.8 11.7 25.8 32.7v48.8h-27.4zM1171.5 153.5c-23.4 0-37.4-14.9-37.4-41.8 0-24.5 12.5-41.3 38-41.3 15 0 23.7 7 30.7 18.2l-18.8 14.3c-3.8-7-6.4-10.3-12.3-10.3-7 0-10.5 7-10.5 19.6s3.8 19.1 11.2 19.1c5.2 0 8.8-2.9 13.8-10.3l17.3 13.5c-9.2 13.7-17.8 19-32 19zM1264.8 151.9v-45.3c0-10.3-3.5-13.1-9.1-13.1-5.8 0-9.3 2.7-9.3 12.8v45.6H1219V52.1l27.3-10.9v36.3c5-3.8 10.6-7 20-7 17.5 0 25.8 11.7 25.8 32.7V152h-27.3v-.1z"/><path class="st0" d="M0 0v60.7h60.7v121.5h60.8V60.7h60.7V0zM243 121.5V60.7h-60.8v121.5h182.3v-60.7zM243 0h121.5v60.7H243z"/></svg>