<svg xmlns="http://www.w3.org/2000/svg" viewBox="0 0 1368.7 181.1" style="enable-background:new 0 0 1368.7 181.1" xml:space="preserve"><path d="M5.4 158c-2.5-3.6 7.4-5.6 9.1-9.6 9-16.9-6.9-10-13.6-48.9C-12 25.9 113.9 25.9 130.6 23c15.4-2.7-.2-23 11.9-23 4.2 0 0 10.5 4.2 12.1 4.2 1.5 6.7-9.6 10.9-6 5.8 4.9-5.6 9.4-2.5 12.5 2.1 2.3 7.5-1.9 9.3 1 3.1 4.7-5.4 7.8-13 9.1-27.7 4.7 31.6 125.9-64.8 142.7-25.5 4.7-37.4-17.7-56.3-6.7-4.7 2.7-8.1 13-11 8.7-1.8-2.7 2.9-6.9 0-8.7-2-1.1-4.9 3.8-6.9 2s.7-4.2-.9-6c-1.7-2-4.5-.4-6.1-2.7zM42.8 57c15.4-11.2 44.5-20.3 38.4-20.1C60 37.4 16.6 55 14.8 81.8c-.6 8.5 13-13.6 28.2-24.8h-.2zm26.9 33.5c27.7-38 68.6-51.6 63.9-56.3-5.6-5.6-30.2 2-30.2 2C65.1 49.7 23.6 74.9 20.8 106c-.9 9.1 1.8 26.4 13.4 33.5 8.1 4.9 22-30.2 35.6-48.9l-.1-.1zm30.1 60.4c35.8-12.8 35.3-59.3 29.5-46.3-5.8 13-9.6 23-22.1 30.2-9.9 5.6-16.6 6.3-28.9 6-10.1-.2-19.2-8.3-22.1 4.2-2.9 13.8 30.6 10.6 43.6 5.9zM71 125.5c10.3 1.8 43.2-5.8 54.3-45 11.4-40.3 5.6-32.2-27.5 2-17.7 18.5-31.8 42-26.7 42.9l-.1.1z" style="fill:#048d52"/><path d="M262 178.3c-29.8 0-35.3-22.5-35.3-44.9v-24.1l-16.1.6V80.8l16.1.4V43.5l36.5-3.7v41.6l23.8-.5V110l-23.7-.8v23.5c0 10.6 3.1 14.5 10.8 14.5 4 .2 8-.7 11.6-2.5l8 25.3c-3.7 2.4-10 8.3-31.7 8.3zm81-91.2c11.7-6.4 24.9-9.6 38.3-9.4 17.7 0 26.5 15.7 26.5 33.3v65.4h-36.5V132c0-16.1 0-27.1-13.1-27.1-5.4.5-10.5 2.3-15.1 5.1v66.3h-36.7V23.5l36.7-2.7v66.5-.2zm129.6 92.6c-32.9 0-52-22-52-55.1 0-29.6 25-48.8 56.3-48.8 27.7 0 49.2 19 49.2 49.4v7.9h-71.6c0 11.4 13.3 16.6 23.2 16.6 11.6 0 17.8-3 21.6-6.1l17.6 19.2c-12 11.1-27.9 17.2-44.3 16.9zm4.5-77.7c-9 0-20.8 5.5-22.4 11.4h30c3.3 0 7.4 0 7.4-3 .1-6.8-6.6-8.4-15-8.4zM674 181.1c-44.3 0-77.8-34.3-77.8-82.4.4-42.7 35.1-77.2 77.8-77.3 39.6 0 77.9 32.2 77.9 77.3 0 48-33.5 82.4-77.9 82.4zm0-52.6c15.8-.6 28.1-13.9 27.4-29.7v-.1C700.4 83.5 687.2 72 672 73c-13.8.9-24.8 11.9-25.7 25.7-.7 15.8 11.6 29.2 27.4 29.8h.3zm189.9-40.1V26.9l49.9-3.3v156.1l-96.5-66.5v62.4h-49.9V19.2l96.5 69.2zm70.6 87.3V26.9h50.2v148.9h-50.2v-.1zm143.8 5.4c-44.3 0-77.8-34.3-77.8-82.4.4-42.7 35.1-77.2 77.8-77.3 39.6 0 77.9 32.2 77.9 77.3-.2 48-33.4 82.4-77.9 82.4zm0-52.6c15.8-.6 28.1-13.9 27.4-29.7v-.1c-1-15.2-14.2-26.7-29.4-25.7-13.8.9-24.8 11.9-25.7 25.7-.7 15.8 11.6 29.2 27.4 29.8h.3zm190-40.1V26.9l49.9-3.3v156.1l-96.5-66.5v62.4h-49.9V19.2l96.5 69.2zm70.3-49.8c0-8.3 6.8-15.1 15.1-15.1s15.1 6.8 15.1 15.1-6.8 15.1-15.1 15.1c-8.3.1-15-6.6-15.1-14.8v-.3zm28.4 0c0-7.4-6-13.3-13.3-13.3-7.4 0-13.3 6-13.3 13.3s6 13.3 13.3 13.3c7.3.1 13.3-5.8 13.3-13.1v-.2zm-5.7 8.3h-2.5l-4.9-7.9h-3.7v7.9h-2.2V30.2h7.4c1.4-.1 2.9.1 4.2.8 1.3.8 2 2.2 2 3.7.1 2.5-1.8 4.5-4.3 4.6-.3 0-.7 0-1-.1l5 7.7zm-8-9.3c2.4 0 6.1.4 6.1-3.1-.2-1.9-1.9-3.2-3.8-3-.1 0-.3 0-.4.1h-4.9v6.2h3.1l-.1-.2z"/></svg>