<svg xmlns="http://www.w3.org/2000/svg" viewBox="0 0 421 167.1" style="enable-background:new 0 0 421 167.1" xml:space="preserve"><path d="M165.3 48c-6.4-6.4-15-10-24.2-10H91.2v91.2h34.2v-57h11c2.9 0 5.9 1.1 8 3.4l11.8 11.8c2.1 2.1 3.4 5 3.4 8v33.7h34.2V90.6c0-9.1-3.7-17.8-10-24.2 0 .1-18.5-18.4-18.5-18.4zm176.8-10v33.7c0 2.9-1.1 5.9-3.4 8l-11.8 11.8c-2.1 2.1-5 3.4-8 3.4h-16.5c3.4-5.5 5.5-11.8 5.5-18.4V38h-34.2v33.7c0 2.9-1.1 5.9-3.4 8l-11.8 11.8c-2.1 2.1-5 3.4-8 3.4h-11V38h-34.2v91.2h49.9c9.1 0 17.8-3.7 24.2-10l11.4-11.4v21.5h32.9c9.1 0 17.8-3.7 24.2-10l18.4-18.4c6.4-6.4 10-15.1 10-24.2V38h-34.2zM0 72.2h22.8v57H57v-57h22.8V38H0v34.2z" style="fill:#f42"/></svg>