<svg version="1.1" id="Layer_1" xmlns="http://www.w3.org/2000/svg" x="0" y="0" viewBox="0 0 500 500" style="enable-background:new 0 0 500 500" xml:space="preserve"><style>.st0,.st1,.st2{fill-rule:evenodd;clip-rule:evenodd;fill:#8217fd}.st1,.st2{fill:#4b0ba8}.st2{fill:#2eb78d}.st3{fill:#fff}.st4,.st5{fill-rule:evenodd;clip-rule:evenodd;fill:#1b966d}.st5{fill:#41d8ad}.st33{fill:#4b09aa}.st34,.st37{fill-rule:evenodd;clip-rule:evenodd;fill:#fff}.st37{fill:#ffc2a8}.st62{fill:#2a2944}.st63,.st64,.st65{fill-rule:evenodd;clip-rule:evenodd;fill:#3376e2}.st64,.st65{fill:#d90804}.st65{fill:#ff592b}.st75{fill:#f98267}.st86{opacity:.75;fill-rule:evenodd;clip-rule:evenodd;fill:#ffbf00}</style><path class="st0" d="m346.1 34.8 14.4 15.6c4.5-12.7 6.7-19.1 6.7-19.1-5.1 7.5-8.1 11.3-8.1 11.3-8.9-5.2-13-7.8-13-7.8zM399.9 39.3l7.2 7.8c2.3-6.4 3.4-9.6 3.4-9.6-2.6 3.8-4.1 5.7-4.1 5.7-4.4-2.6-6.5-3.9-6.5-3.9zM319.3 69.2c6.1 6.6 9.2 10 9.2 10 2.9-8.1 4.3-12.2 4.3-12.2-3.3 4.8-5.2 7.2-5.2 7.2-5.7-3.3-8.3-5-8.3-5zM466.4 97.3c6.1 6.6 9.2 10 9.2 10 2.9-8.1 4.3-12.2 4.3-12.2-3.3 4.8-5.2 7.2-5.2 7.2-5.7-3.4-8.3-5-8.3-5z"/><path class="st1" d="M39.8 43.2c7.7 8.4 11.6 12.6 11.6 12.6 3.6-10.3 5.4-15.4 5.4-15.4-4.1 6.1-6.5 9.1-6.5 9.1-7.3-4.3-10.5-6.3-10.5-6.3z"/><path class="st0" d="M80.6 45.9c6 6.5 9 9.8 9 9.8l4.2-12c-3.2 4.7-5.1 7.1-5.1 7.1-5.6-3.2-8.1-4.9-8.1-4.9zM8.1 88.5c6 6.5 9 9.8 9 9.8l4.2-12c-3.2 4.7-5.1 7.1-5.1 7.1-5.5-3.3-8.1-4.9-8.1-4.9z"/><path class="st2" d="M132.8 368.5c-8.9 52.9 16.1 105.8 62.7 132.4 8.3 2 12.5 3 12.5 3 7.8-56.8-22.8-111.9-75.2-135.4z"/><path class="st3" d="M138.8 376.9c-.3-.5-.9-.7-1.5-.5-.5.3-.7.9-.5 1.5l63.9 125c.3.5.9.7 1.5.5.5-.3.7-.9.5-1.5l-63.9-125z"/><path class="st4" d="M46.7 475.6c39.2 36.6 97.1 45 145 20.8 6.2-5.8 9.4-8.8 9.4-8.8-43.1-37.7-106-42.6-154.4-12z"/><path class="st3" d="M196.5 491 57 475.3c-.6-.1-1.1.4-1.2 1-.1.6.4 1.1 1 1.2l139.5 15.7c.6.1 1.1-.4 1.2-1 0-.6-.4-1.1-1-1.2z"/><path class="st5" d="M61.4 404.8c17.1 50.8 64.1 85.6 117.7 87.2 8.3-2.2 12.4-3.3 12.4-3.3-19.9-53.7-72.9-87.9-130.1-83.9z"/><path class="st3" d="M70.6 409.4c-.5-.3-1.2-.2-1.5.3-.3.5-.2 1.2.3 1.5l115.4 80c.5.3 1.2.2 1.5-.3.3-.5.2-1.2-.3-1.5l-115.4-80z"/><path class="st2" d="M364.5 497.9s4.1-1.2 12.3-3.7c45-29.3 66.9-83.5 55-135.8-50.9 26.5-78.3 83.2-67.3 139.5z"/><path class="st3" d="M427.8 366.6c-.5-.2-1.2 0-1.4.6l-56.7 128.4c-.2.5 0 1.2.6 1.4.5.2 1.2 0 1.4-.6L428.4 368c.2-.5 0-1.1-.6-1.4z"/><path class="st4" d="M345 478.1s2.8 3.2 8.4 9.7c45.2 28.9 103.6 26.6 146.4-5.8-45-35.5-108-37.1-154.8-3.9z"/><path class="st3" d="m489.6 480.6-140.4 1.2c-.6 0-1.1.5-1.1 1.1 0 .6.5 1.1 1.1 1.1l140.4-1.2c.6 0 1.1-.5 1.1-1.1 0-.6-.5-1.1-1.1-1.1z"/><path class="st5" d="M363.6 495.8s4.1 1.1 12.4 3.3c53.6-1.5 100.6-36.3 117.7-87.2-57.1-4-110.1 30.2-130.1 83.9z"/><path class="st3" d="m484.6 416.5-115.4 80c-.5.3-.6 1-.3 1.5s1 .6 1.5.3l115.4-80c.5-.3.6-1 .3-1.5-.4-.5-1-.6-1.5-.3z"/><path d="M289.9 404.9c-66.5-7.9-99.7-11.9-99.7-11.9-12.3 79.1-18.5 118.7-18.5 118.7h84.7c22.6-53.5 33.9-80.3 33.9-80.3l-10.9 7 10.5-33.5z" style="fill-rule:evenodd;clip-rule:evenodd;fill:#151521"/><path class="st3" d="M264.2 426.8c-.4-.1-.9.1-1 .6l-24 84.2v.2h1.7l23.9-84c.1-.4-.2-.9-.6-1z"/><path d="M367.4 394.7s-36.9 6.4-110.6 19.1c33.7 65.3 50.6 98 50.6 98h87.1l-14.1-55.2c-1.9-21.1-6.2-41.8-13-61.9z" style="fill-rule:evenodd;clip-rule:evenodd;fill:#1c1c2d"/><defs><filter id="Adobe_OpacityMaskFilter" filterUnits="userSpaceOnUse" x="299.7" y="397.2" width="89.3" height="114.6"><feColorMatrix values="1 0 0 0 0 0 1 0 0 0 0 0 1 0 0 0 0 0 1 0"/></filter></defs><mask maskUnits="userSpaceOnUse" x="299.7" y="397.2" width="89.3" height="114.6" id="SVGID_1_"><g style="filter:url(#Adobe_OpacityMaskFilter)"><linearGradient id="SVGID_2_" gradientUnits="userSpaceOnUse" x1="-556.884" y1="652.776" x2="-450.384" y2="586.916" gradientTransform="translate(836.48 -158.284)"><stop offset="0" style="stop-color:#000"/><stop offset="1" style="stop-color:#fff"/></linearGradient><path style="fill:url(#SVGID_2_)" d="M299.7 397.2H389v114.6h-89.3z"/></g></mask><path d="M362.3 397.2s-20.9 5.7-62.6 17.1c68 9.4 34.2 75.7 51.3 97.5h38s-5-19.1-15-57.2c-.4-12.5-4.3-31.7-11.7-57.4z" style="mask:url(#SVGID_1_);fill-rule:evenodd;clip-rule:evenodd;fill:#25253d"/><path class="st3" d="m361.8 459.1-19.4-66.4c-.1-.4-.6-.7-1-.6-.4.1-.7.6-.6 1l19.4 66.4 16.2 52.1h1.7v-.2l-16.3-52.3z"/><path d="M360.2 144.9c-3-2.9-6.3-5.4-10-7.7-14.8-9-48.2-13.7-65-17.2-54.6 18.6-81.9 28-81.9 28-6.2 3.4-15.6 8.3-23.3 12.2-16.9 8.6-18.8 13.1-32.3 23.1-13.2 57.3 1.9 100.1 45.2 128.5l-17.8-.2c10.1 54.3 15.1 81.5 15.1 81.5 55.7 29 121 29.6 177.2 1.7l-10.8-80.7-44-.6c26.7-7.3 46.1-16.9 58.3-28.8 0 0 8.5-12.5 25.6-37.4 1.5.7 3.2.5 4.6-.4-14.2-50.3-20.9-83-40.9-102z" style="fill-rule:evenodd;clip-rule:evenodd;fill:#6513d8"/><defs><filter id="Adobe_OpacityMaskFilter_1_" filterUnits="userSpaceOnUse" x="210.3" y="331.7" width="150.4" height="73.4"><feColorMatrix values="1 0 0 0 0 0 1 0 0 0 0 0 1 0 0 0 0 0 1 0"/></filter></defs><mask maskUnits="userSpaceOnUse" x="210.3" y="331.7" width="150.4" height="73.4" id="SVGID_3_"><g style="filter:url(#Adobe_OpacityMaskFilter_1_)"><linearGradient id="SVGID_4_" gradientUnits="userSpaceOnUse" x1="-506.712" y1="692.276" x2="-432.122" y2="594.766" gradientTransform="translate(747.088 -264.997)"><stop offset="0" style="stop-color:#000"/><stop offset="1" style="stop-color:#fff"/></linearGradient><path style="fill:url(#SVGID_4_)" d="M210.3 331.7h150.4v73.4H210.3z"/></g></mask><path d="M210.3 349.7c54.1 1.1 86.5 19.5 97.3 55.3 17.9-2.9 35.6-8 53.1-15.4-5.3-38.6-7.9-57.9-7.9-57.9-44.4-1-91.9 5-142.5 18z" style="mask:url(#SVGID_3_);fill-rule:evenodd;clip-rule:evenodd;fill:#4b0ba8"/><defs><filter id="Adobe_OpacityMaskFilter_2_" filterUnits="userSpaceOnUse" x="223.7" y="189.1" width="124.4" height="115.3"><feColorMatrix values="1 0 0 0 0 0 1 0 0 0 0 0 1 0 0 0 0 0 1 0"/></filter></defs><mask maskUnits="userSpaceOnUse" x="223.7" y="189.1" width="124.4" height="115.3" id="SVGID_5_"><g style="filter:url(#Adobe_OpacityMaskFilter_2_)"><linearGradient id="SVGID_6_" gradientUnits="userSpaceOnUse" x1="-575.874" y1="529.275" x2="-437.434" y2="642.865" gradientTransform="translate(760.501 -365.607)"><stop offset="0" style="stop-color:#000"/><stop offset="1" style="stop-color:#fff"/></linearGradient><path style="fill:url(#SVGID_6_)" d="M223.7 189.1h124.4v115.3H223.7z"/></g></mask><path d="M338.2 265c-1.7.4-3.4.5-5.1.5-7.7-16.1-14-35.3-19-57.8-2.8-3.3-5.9-9.4-9.5-18.6 2.4 21.7-5.6 43.3-21.4 58.4-15.8 15.1-37.8 21.9-59.4 18.4 32.6 33.3 64.5 45 95.6 35.1 9.8 4.5 21.5.5 26.5-9.1 4.9-9.5 1.6-21.4-7.7-26.9z" style="mask:url(#SVGID_5_);fill-rule:evenodd;clip-rule:evenodd;fill:#4b0ba8"/><defs><filter id="Adobe_OpacityMaskFilter_3_" filterUnits="userSpaceOnUse" x="165.2" y="147.9" width="85.3" height="105.5"><feColorMatrix values="1 0 0 0 0 0 1 0 0 0 0 0 1 0 0 0 0 0 1 0"/></filter></defs><mask maskUnits="userSpaceOnUse" x="165.2" y="147.9" width="85.3" height="105.5" id="SVGID_7_"><g style="filter:url(#Adobe_OpacityMaskFilter_3_)"><linearGradient id="SVGID_8_" gradientUnits="userSpaceOnUse" x1="-482.483" y1="560.269" x2="-499.253" y2="641.97" gradientTransform="translate(702.05 -416.706)"><stop offset="0" style="stop-color:#000"/><stop offset="1" style="stop-color:#fff"/></linearGradient><path style="fill:url(#SVGID_8_)" d="M165.2 147.9h85.3v105.5h-85.3z"/></g></mask><path d="M203.3 147.9c-7.7 4.3-16.1 8.7-25.1 13.2-11.6 7.7-16.1 22.6-10.7 35.4 2.4 9.2 6.6 17.4 12.6 24.8 23.7 21.4 35.5 32 35.5 32 15.9-5.9 28-18.9 32.7-35.2 4.7-16.2 1.5-33.8-8.7-47.2-17.9-1.3-30-9-36.3-23z" style="mask:url(#SVGID_7_);fill-rule:evenodd;clip-rule:evenodd;fill:#8217fd"/><defs><filter id="Adobe_OpacityMaskFilter_4_" filterUnits="userSpaceOnUse" x="177.6" y="318.8" width="86.4" height="95.7"><feColorMatrix values="1 0 0 0 0 0 1 0 0 0 0 0 1 0 0 0 0 0 1 0"/></filter></defs><mask maskUnits="userSpaceOnUse" x="177.6" y="318.8" width="86.4" height="95.7" id="SVGID_9_"><g style="filter:url(#Adobe_OpacityMaskFilter_4_)"><linearGradient id="SVGID_10_" gradientUnits="userSpaceOnUse" x1="-464.195" y1="583.561" x2="-521.605" y2="658.911" gradientTransform="translate(714.4 -255.534)"><stop offset="0" style="stop-color:#000"/><stop offset="1" style="stop-color:#fff"/></linearGradient><path style="fill:url(#SVGID_10_)" d="M177.6 318.8H264v95.7h-86.4z"/></g></mask><path d="M202.9 350.9c-3.5-6.5-3.6-14.4-.2-21-3.1-13-12.9-14.7-25.1-5 0 0 4.2 22.7 12.6 68 22.8 11.9 47.8 19.2 73.4 21.5 1.6-12.7-2.1-25.5-10.3-35.4-18.9-22.6-40.3-9.6-50.4-28.1z" style="mask:url(#SVGID_9_);fill-rule:evenodd;clip-rule:evenodd;fill:#8217fd"/><defs><filter id="Adobe_OpacityMaskFilter_5_" filterUnits="userSpaceOnUse" x="304.8" y="144.8" width="47.9" height="120.2"><feColorMatrix values="1 0 0 0 0 0 1 0 0 0 0 0 1 0 0 0 0 0 1 0"/></filter></defs><mask maskUnits="userSpaceOnUse" x="304.8" y="144.8" width="47.9" height="120.2" id="SVGID_11_"><g style="filter:url(#Adobe_OpacityMaskFilter_5_)"><linearGradient id="SVGID_12_" gradientUnits="userSpaceOnUse" x1="-486.592" y1="553.204" x2="-531.752" y2="650.694" gradientTransform="translate(841.579 -405.052)"><stop offset="0" style="stop-color:#000"/><stop offset="1" style="stop-color:#fff"/></linearGradient><path style="fill:url(#SVGID_12_)" d="M304.8 144.8h47.9V265h-47.9z"/></g></mask><path d="M334.4 200.6c-29.8-25.2.3-40-4.5-55.9-11.4 4.7-20.1 14.3-23.5 26.2-3.4 11.9-1.3 24.6 5.9 34.7 4.3 14 6.4 21.1 6.4 21.1s4.8 12.8 14.5 38.3c12.2-6.4 19.8-19.2 19.5-33-.4-16.6-10-24.3-18.3-31.4z" style="mask:url(#SVGID_11_);fill-rule:evenodd;clip-rule:evenodd;fill:#8217fd"/><path class="st3" d="m314.1 207.9-8.6 11.8c-1.4 1.9-4 2.3-5.8.9l-11.9-8.7c-.7-.5-1.2-1.2-1.5-2 0-.5-.1-1-.2-1.5 0-.8.3-1.6.8-2.3l8.7-11.9c1.4-1.9 4-2.3 5.8-.9l6.4 4.7c-.2-.7-.2-1.4 0-2.1l-5.4-3.9c-2.6-1.9-6.3-1.3-8.2 1.3l-8.7 11.9c-.3.4-.5.7-.6 1.1-.3-.3-.6-.6-1-.9l-11.9-8.7c-2.6-1.9-6.3-1.3-8.2 1.3l-8.7 11.9c-.3.4-.6.9-.7 1.3-.3-.4-.7-.7-1.1-1.1l-11.9-8.7c-2.6-1.9-6.3-1.3-8.2 1.3l-8.7 11.9c-.3.4-.5.7-.6 1.1-.3-.3-.6-.6-1-.9l-11.9-8.7c-2.6-1.9-6.3-1.3-8.2 1.3l-8.7 11.9c-.3.4-.6.9-.7 1.3-.3-.4-.7-.7-1.1-1.1l-11.9-8.7c-2.2-1.6-5.1-1.4-7.1.1.4.3.8.8 1.2 1.2 1.4-1.1 3.4-1.1 4.9 0l11.9 8.7c1.9 1.4 2.3 4 .9 5.8l-8.7 11.9c-1.4 1.9-4 2.3-5.8.9l-8-5.8c-.4.4-1 .7-1.5.9l8.5 6.2c2.6 1.9 6.3 1.3 8.2-1.3l8.7-11.9c.3-.4.6-.9.7-1.3.3.4.7.7 1.1 1.1l11.9 8.7c2.6 1.9 6.3 1.3 8.2-1.3l8.7-11.9c.3-.4.5-.7.6-1.1.3.3.6.6 1 .9l11.9 8.7c2.6 1.9 6.3 1.3 8.2-1.3l8.7-11.9c.3-.4.6-.9.7-1.3.3.4.7.7 1.1 1.1l11.9 8.7c2.6 1.9 6.3 1.3 8.2-1.3l8.7-11.9c.3-.4.5-.7.6-1.1.3.3.6.6 1 .9l11.9 8.7c2.6 1.9 6.3 1.3 8.2-1.3l8-11c-.3-.5-.5-1-.6-1.6-.1.1-.2 0-.2-.1zm-91.2 14.2-8.7 11.9c-1.4 1.9-4 2.3-5.8.9l-11.9-8.7c-1.9-1.4-2.3-4-.9-5.8l8.7-11.9c1.4-1.9 4-2.3 5.8-.9l11.9 8.7c.7.5 1.2 1.2 1.5 2 0 .5.1 1 .2 1.5 0 .8-.3 1.6-.8 2.3zm30.3-4.7-8.7 11.9c-1.4 1.9-4 2.3-5.8.9l-11.9-8.7c-.7-.5-1.2-1.2-1.5-2 0-.5-.1-1-.2-1.5 0-.8.3-1.6.8-2.3l8.7-11.9c1.4-1.9 4-2.3 5.8-.9l11.9 8.7c1.9 1.3 2.3 3.9.9 5.8zm30.6-4.8-8.7 11.9c-1.4 1.9-4 2.3-5.8.9l-11.9-8.7c-1.9-1.4-2.3-4-.9-5.8l8.7-11.9c1.4-1.9 4-2.3 5.8-.9l11.9 8.7c.7.5 1.2 1.2 1.5 2 0 .5.1 1 .2 1.5 0 .8-.3 1.6-.8 2.3z"/><defs><filter id="Adobe_OpacityMaskFilter_6_" filterUnits="userSpaceOnUse" x="128.6" y="224.6" width="23.8" height="5.6"><feColorMatrix values="1 0 0 0 0 0 1 0 0 0 0 0 1 0 0 0 0 0 1 0"/></filter></defs><mask maskUnits="userSpaceOnUse" x="128.6" y="224.6" width="23.8" height="5.6" id="SVGID_13_"><g style="filter:url(#Adobe_OpacityMaskFilter_6_)"><linearGradient id="SVGID_14_" gradientUnits="userSpaceOnUse" x1="-544.91" y1="618.315" x2="-500.24" y2="664.065" gradientTransform="translate(665.427 -439.85)"><stop offset="0" style="stop-color:#000"/><stop offset="1" style="stop-color:#fff"/></linearGradient><path style="fill:url(#SVGID_14_)" d="M128.6 193.7h49.2v36.5h-49.2z"/></g></mask><path d="M152.4 224.6c-15.9 3.2-23.8 4.9-23.8 4.9 8.3 1.8 17 0 23.8-4.9z" style="mask:url(#SVGID_13_);fill-rule:evenodd;clip-rule:evenodd;fill:#003d33"/><defs><filter id="Adobe_OpacityMaskFilter_7_" filterUnits="userSpaceOnUse" x="152.4" y="193.7" width="25.4" height="30.9"><feColorMatrix values="1 0 0 0 0 0 1 0 0 0 0 0 1 0 0 0 0 0 1 0"/></filter></defs><mask maskUnits="userSpaceOnUse" x="152.4" y="193.7" width="25.4" height="30.9" id="SVGID_15_"><g style="filter:url(#Adobe_OpacityMaskFilter_7_)"><linearGradient id="SVGID_16_" gradientUnits="userSpaceOnUse" x1="-544.91" y1="618.315" x2="-500.24" y2="664.065" gradientTransform="translate(665.427 -439.85)"><stop offset="0" style="stop-color:#000"/><stop offset="1" style="stop-color:#fff"/></linearGradient><path style="fill:url(#SVGID_16_)" d="M128.6 193.7h49.2v36.5h-49.2z"/></g></mask><path d="M156.2 221.4c-1.2 1.2-2.4 2.3-3.8 3.2 6.9-1.4 15.4-3.1 25.4-5.2 0 0-4.6-8.6-13.9-25.8 2.4 10-.5 20.5-7.7 27.8z" style="mask:url(#SVGID_15_);fill-rule:evenodd;clip-rule:evenodd;fill:#4b0ba8"/><path class="st33" d="M326.9 312.3c-.4-.1-.8-.1-1.1 0-.3.1-.6.4-.7.8-4.3 11.4-10.6 21.5-18.3 30.2-7.9 8.9-17.4 16.3-27.8 21.8-10.4 5.5-21.9 9.1-33.7 10.5-11.5 1.4-23.4.8-35.2-2.1-.4-.1-.8 0-1.1.2-.3.2-.5.5-.6.9-.1.4 0 .8.2 1.1.2.3.5.5.9.6 12.2 3 24.4 3.6 36.2 2.2 12.2-1.5 23.9-5.2 34.7-10.8 10.7-5.6 20.5-13.2 28.6-22.4 7.9-8.9 14.3-19.3 18.8-31 .1-.4.1-.8 0-1.1-.2-.5-.5-.7-.9-.9zM295.4 219.2c-.3 0-.6.2-.9.4-4.4 5.1-9.4 9.5-14.9 13.1-5.5 3.7-11.5 6.7-17.8 8.8-6.3 2.1-12.8 3.4-19.5 3.8-6.5.4-13.2-.1-19.8-1.4-6.6-1.4-12.9-3.6-18.7-6.6-6-3-11.4-6.8-16.4-11.3-4.9-4.4-9.2-9.5-12.8-15.2-3.5-5.5-6.4-11.6-8.4-18-.1-.3-.3-.6-.6-.7-.3-.1-.6-.2-1-.1-.3.1-.6.3-.7.6-.1.3-.2.6-.1 1 2.1 6.6 5 12.9 8.7 18.6 3.7 5.8 8.2 11.1 13.3 15.7 5.1 4.6 10.8 8.5 16.9 11.6 6 3.1 12.5 5.4 19.4 6.8 6.8 1.4 13.7 1.9 20.5 1.5 6.9-.4 13.7-1.7 20.1-3.9 6.5-2.2 12.7-5.2 18.4-9.1 5.6-3.8 10.8-8.3 15.4-13.6.2-.3.3-.6.3-.9 0-.3-.2-.6-.4-.9-.3-.2-.6-.3-1-.2z"/><path class="st33" d="M337.7 140.7c-.1-.4-.3-.6-.6-.8-.3-.2-.6-.2-.9-.1-3.5.9-6.8 2.3-9.9 4-3.1 1.8-6 3.9-8.6 6.3-2.6 2.4-4.9 5.2-6.8 8.2-1.9 3-3.5 6.2-4.6 9.6-1.2 3.4-1.9 6.9-2.2 10.4-.3 3.6-.1 7.2.4 10.7.5 2.8 1.2 5.5 2.2 8.1 1 2.6 2.2 5.1 3.6 7.5-.4 5.6-1.3 11-2.8 16.3-1.5 5.4-3.5 10.6-6 15.5-2.5 5-5.6 9.7-9.1 14.1s-7.4 8.4-11.7 12c-4.3 3.6-9 6.8-13.9 9.4-5 2.7-10.2 4.8-15.5 6.4-5.4 1.6-10.9 2.7-16.5 3.2-5.5.5-11.2.4-16.8-.2-.3 0-.7.1-.9.3-.2.2-.4.5-.5.8 0 .3.1.7.3.9.2.2.5.4.8.5 5.8.7 11.6.7 17.3.2 5.8-.5 11.5-1.6 17-3.3 5.5-1.7 10.9-3.9 16-6.6 5.1-2.7 9.9-6 14.3-9.7 4.5-3.7 8.5-7.9 12.1-12.4 3.6-4.5 6.7-9.4 9.4-14.6 2.4-4.7 4.3-9.6 5.8-14.6 1.4-4.9 2.4-9.9 3-15l.2.3c1.2 4.8 2.5 9.6 3.8 14.4 1.4 4.8 2.8 9.6 4.3 14.3 1.5 4.8 3.1 9.5 4.7 14.2 1.7 4.7 3.4 9.4 5.2 14.1.1.3.4.6.7.7.3.1.6.1 1 0 .3-.1.6-.4.7-.7.1-.3.1-.6 0-1-1.8-4.6-3.5-9.3-5.2-14-1.6-4.7-3.2-9.4-4.7-14.2-1.5-4.8-2.9-9.6-4.3-14.3-1.4-4.8-2.6-9.6-3.8-14.4 0-.1-.1-.2-.1-.3 0-.1-.1-.2-.1-.2-.4-.5-.8-1-1.1-1.6-.4-.5-.7-1.1-1.1-1.6-1.4-2.3-2.6-4.7-3.6-7.3-1-2.5-1.7-5.2-2.1-7.8-.5-3.3-.7-6.7-.4-10.1.3-3.3 1-6.6 2-9.9 1.1-3.2 2.6-6.3 4.4-9.1 1.8-2.8 4-5.4 6.4-7.7 2.4-2.3 5.2-4.3 8.1-5.9 2.9-1.6 6-2.9 9.3-3.8.3-.1.6-.3.7-.6.1.1.2-.3.1-.6z"/><path class="st34" d="M183.7 88.5c-1.5-1.6-4.1-1.6-5.6-.1l-29 28c-1.6 1.5-1.6 4.1-.1 5.6l22.7 23.6c1.5 1.6 4.1 1.6 5.6.1l29-28c1.6-1.5 1.6-4.1.1-5.6l-22.7-23.6z"/><path d="M177.7 89.4c-1.5-1.6-4.1-1.6-5.6-.1l-29 28c-1.6 1.5-1.6 4.1-.1 5.6l22.7 23.6c1.5 1.6 4.1 1.6 5.6.1l29-28c1.6-1.5 1.6-4.1.1-5.6l-22.7-23.6z" style="fill-rule:evenodd;clip-rule:evenodd;fill:#4d4d4d"/><path d="M177 92.9c-1.3-1.4-3.6-1.4-4.9-.1l-25.4 24.5c-1.4 1.3-1.4 3.6-.1 4.9l19.9 20.7c1.3 1.4 3.6 1.4 4.9.1l25.4-24.5c1.4-1.3 1.4-3.6.1-4.9L177 92.9z" style="fill-rule:evenodd;clip-rule:evenodd;fill:#1a1a1a"/><path class="st37" d="M180.6 134.3c-7.8 5.5-11.7 8.2-11.7 8.2-6.8-4.5-10.2-6.8-10.2-6.8s2.1-3.9 6.4-11.7c.9.3 1.9.3 2.7-.2.9-.4 1.5-1.2 1.8-2.1l-1.8-9.9s-2.2-2.3-6.5-6.9c-1-.9-2.5-1.3-3.8-1-1.4.3-2.5 1.2-3 2.5-2.7-1.3-6-.3-7.5 2.3-3-1.3-6.5-.1-8.1 2.8 0 0-4.2 3.1-12.6 9.4-2.9 1.7-3.7 4.4-2.4 8.2 0 0 0 10.8-.1 32.3-14.1 39.6-21.1 59.4-21.1 59.4 27.2 8.5 43.2 7.3 48-3.7 3.7-33.8 5.6-50.8 5.6-50.8 4.4-1.2 8.2-3.2 11.5-5.9l17.7-18.9c1.5-1.5 1.7-3.9.5-5.7-1.1-1.6-3.4-2.3-5.4-1.5zM89.2 291.1c3.3 8.4 10.4 13.4 20.8 9.9 2.9-15.1-3.9-31.7-20.3-49.7-3.5 13-5.5 27.1-.5 39.8z"/><path class="st34" d="M321.6 296.2s0-.1 0 0c0-.6-.1-2-.2-4.4-2.8 1.2-4.3 2.1-4.4 2.8h-.3l-44.4-.6 13.2 31.4c.1 0 .1-.1.2-.1.4-.4 1-.4 1.5-.3l33-26.6c.9-.9 1.4-1.6 1.4-2.2 0 .1 0 .1 0 0z"/><path d="m316.5 290.2-44.4-.6 13.5 32.1s11.5-9.2 34.4-27.7c2.7-2.4 1.5-3.7-3.5-3.8z" style="fill-rule:evenodd;clip-rule:evenodd;fill:#daf5f0"/><path class="st34" d="M263.1 129.2c-3.7 0-7-1.5-9.4-4-.8-.8-1.5-1.6-2-2.5-.8-1.1-1.4-2.2-1.8-3.5-.4-.7-.7-1.4-1-2.2l-1.4-2.7c-.9-1.8-1.4-3.8-1.4-5.8-.5-.7-.9-1.4-1.3-2.2-.1-.2-.2-.3-.2-.5-.7-1.3-1.2-2.7-1.4-4.2 0-.2-.1-.4-.1-.5-.1-.4-.3-.7-.4-1.1l-.3-.9c-.2-.7-.4-1.3-.6-2.1l-2.1-6.4c-.5-1.1-.8-2.2-1.1-3.4l-.4-1.3-.5-1.5-.6-1.5c-.4-1-.7-2.1-1-3.2l-.2-.5c-.7-1.4-1.1-2.9-1.3-4.4-.5-1.2-.8-2.4-1-3.6-1.6-4.2-.9-8.8 1.6-12.3-3.3.3-6.5 1.7-9.1 4.1-4.6 4.4-6.1 11.1-3.7 17L204 126.1c3.3 2.4 5.5 6.3 5.5 10.7 0 4.7-2.4 8.8-6.1 11.1l-.1.1c.8 21.1 19.6 32 42.1 24.3 22.5-7.7 40.3-31 39.8-52.3l-9.4-1c-1.3 5.8-6.5 10.2-12.7 10.2z"/><path d="M248 80.9c.4-5.4-1.2-10.5-6.1-12.8-4.9-2.4-10.8-1.4-14.7 2.3-4 3.7-5.2 9.5-3.2 14.5-11.7 29.4-17.6 44.1-17.6 44.1 3.2 4 3.7 9.6 1.3 14.1.6 18.1 16.8 27.4 36.1 20.8 19.3-6.6 34.5-26.6 34.1-44.8-8.1-.9-12.1-1.3-12.1-1.3-9.3-10.2-16.4-23.2-17.8-36.9z" style="fill-rule:evenodd;clip-rule:evenodd;fill:#ffbb9e"/><defs><filter id="Adobe_OpacityMaskFilter_8_" filterUnits="userSpaceOnUse" x="207.7" y="62.2" width="39.2" height="103.9"><feColorMatrix values="1 0 0 0 0 0 1 0 0 0 0 0 1 0 0 0 0 0 1 0"/></filter></defs><mask maskUnits="userSpaceOnUse" x="207.7" y="62.2" width="39.2" height="103.9" id="SVGID_17_"><g style="filter:url(#Adobe_OpacityMaskFilter_8_)"><linearGradient id="SVGID_18_" gradientUnits="userSpaceOnUse" x1="-545.04" y1="692.008" x2="-504.4" y2="583.978" gradientTransform="translate(744.51 -503.949)"><stop offset="0" style="stop-color:#000"/><stop offset="1" style="stop-color:#fff"/></linearGradient><path style="fill:url(#SVGID_18_)" d="M207.7 62.2h39.2v103.9h-39.2z"/></g></mask><path d="M208.4 132.5c1.3 3.5 1.1 7.1-.7 10.6 0 5.8 2.2 11.4 6.1 15.7 2.9 3.1 6.6 5.3 10.7 6.3 3.8.9 7.7 1.2 11.5.6 3.7-.5 7.2-1.5 10.6-2.9 1.3-.2-2.1-32.7-5.2-88.7 2.1-28.1-6.5-5.8-33 58.4z" style="mask:url(#SVGID_17_);fill-rule:evenodd;clip-rule:evenodd;fill:#ff592b"/><defs><filter id="Adobe_OpacityMaskFilter_9_" filterUnits="userSpaceOnUse" x="207.7" y="88.6" width="29.9" height="56.7"><feColorMatrix values="1 0 0 0 0 0 1 0 0 0 0 0 1 0 0 0 0 0 1 0"/></filter></defs><mask maskUnits="userSpaceOnUse" x="207.7" y="88.6" width="29.9" height="56.7" id="SVGID_19_"><g style="filter:url(#Adobe_OpacityMaskFilter_9_)"><linearGradient id="SVGID_20_" gradientUnits="userSpaceOnUse" x1="-536.817" y1="641.672" x2="-506.959" y2="641.672" gradientTransform="translate(744.51 -524.752)"><stop offset="0" style="stop-color:#000"/><stop offset="1" style="stop-color:#fff"/></linearGradient><path style="fill:url(#SVGID_20_)" d="M207.7 88.6h29.9v56.7h-29.9z"/></g></mask><path d="M208.4 132.5c1.3 3.5 1.1 7.1-.7 10.6 0 .7.1 1.4.2 2.1 21.7-9.8 33.6-33.4 28.6-56.6-10.3-1.3-19.6 13.3-28.1 43.9z" style="mask:url(#SVGID_19_);fill-rule:evenodd;clip-rule:evenodd;fill:#d90804"/><path class="st37" d="M212.9 39.6c-15.1-7.8-33.5-5.1-45.7 6.8-6.9 10.9-8.4 17.5-7.8 22.3.3 2.8 1.2 5 2.3 7.1 1.9 3.7 2.2 7.2 2.1 10.5-.2 5.6-.9 8.4-.2 11.5 1.6 7.9 14.4 22.7 19.4 29.7 6.8 18.1 25.8 9.2 36.4 1.1 20.7-16 18.3-43.3 14.9-51.8 2.6-16.8-6.3-29.4-21.4-37.2z"/><defs><filter id="Adobe_OpacityMaskFilter_10_" filterUnits="userSpaceOnUse" x="195.9" y="52.7" width="37.5" height="70.4"><feColorMatrix values="1 0 0 0 0 0 1 0 0 0 0 0 1 0 0 0 0 0 1 0"/></filter></defs><mask maskUnits="userSpaceOnUse" x="195.9" y="52.7" width="37.5" height="70.4" id="SVGID_21_"><g style="filter:url(#Adobe_OpacityMaskFilter_10_)"><linearGradient id="SVGID_22_" gradientUnits="userSpaceOnUse" x1="-526.022" y1="660.416" x2="-507.912" y2="602.316" gradientTransform="translate(732.764 -546.934)"><stop offset="0" style="stop-color:#000"/><stop offset="1" style="stop-color:#fff"/></linearGradient><path style="fill:url(#SVGID_22_)" d="M195.9 52.7h37.5v70.4h-37.5z"/></g></mask><path d="M197.9 52.9c-12.6 49 40.3 25.7 23 70.2 8.4-11.4 12.3-23.7 11.7-36.9 4.3-24-7.3-35.1-34.7-33.3z" style="mask:url(#SVGID_21_);fill-rule:evenodd;clip-rule:evenodd;fill:#ff592b"/><defs><filter id="Adobe_OpacityMaskFilter_11_" filterUnits="userSpaceOnUse" x="188.5" y="69.4" width="41.1" height="22.6"><feColorMatrix values="1 0 0 0 0 0 1 0 0 0 0 0 1 0 0 0 0 0 1 0"/></filter></defs><mask maskUnits="userSpaceOnUse" x="188.5" y="69.4" width="41.1" height="22.6" id="SVGID_23_"><g style="filter:url(#Adobe_OpacityMaskFilter_11_)"><linearGradient id="SVGID_24_" gradientUnits="userSpaceOnUse" x1="-536.715" y1="660.188" x2="-497.075" y2="657.388" gradientTransform="translate(725.27 -578.048)"><stop offset="0" style="stop-color:#000"/><stop offset="1" style="stop-color:#fff"/></linearGradient><path style="fill:url(#SVGID_24_)" d="M188.5 69.4h41.1V92h-41.1z"/></g></mask><path d="M199.1 69.4c2.7 4.1 3 9.3.8 13.6-2.2 4.4-6.6 7.2-11.4 7.5 4.4 2.1 9.6 1.9 13.8-.5 4.2-2.4 7-6.8 7.4-11.7 13.3-.3 19.9-.5 19.9-.5s-1.4-2.7-4.1-8.1c0 .1-8.8 0-26.4-.3z" style="mask:url(#SVGID_23_);fill-rule:evenodd;clip-rule:evenodd;fill:#d90804"/><defs><filter id="Adobe_OpacityMaskFilter_12_" filterUnits="userSpaceOnUse" x="159.3" y="36" width="37.3" height="102.1"><feColorMatrix values="1 0 0 0 0 0 1 0 0 0 0 0 1 0 0 0 0 0 1 0"/></filter></defs><mask maskUnits="userSpaceOnUse" x="159.3" y="36" width="37.3" height="102.1" id="SVGID_25_"><g style="filter:url(#Adobe_OpacityMaskFilter_12_)"><linearGradient id="SVGID_26_" gradientUnits="userSpaceOnUse" x1="-468.529" y1="633.812" x2="-542.5" y2="611.692" gradientTransform="translate(696.127 -531.904)"><stop offset="0" style="stop-color:#000"/><stop offset="1" style="stop-color:#fff"/></linearGradient><path style="fill:url(#SVGID_26_)" d="M159.3 36h37.3v102.1h-37.3z"/></g></mask><path d="M187 36c-7.3 1.5-14.2 5-19.8 10.4-6.9 10.9-8.4 17.5-7.8 22.3.3 2.8 1.2 5 2.3 7.1 1.9 3.7 2.2 7.2 2.1 10.5-.2 5.6-.9 8.4-.2 11.5 1.6 7.9 14.4 22.7 19.4 29.7 2.9 7.6 7.9 10.5 13.6 10.6-13.1-15.7-21-36-21-58.1 0-15.9 4.2-30.9 11.4-44z" style="mask:url(#SVGID_25_);fill-rule:evenodd;clip-rule:evenodd;fill:#ffd8c4"/><path d="M228 28.8c-2.4-14.4-21.2-14.6-56.4-.5-16.9-20.7-31.8 40.4 3.9 20.7 29.6-16.3 23.5-6 22.5 2.9-1.8 15.8 25 3.4 25.5 19 6.8-3.8 14.1-3.3 18.4 3.2 4.5 7.2 6.7 10.5 7.5 5.8 7.4-37.9-4.2-54.3-21.4-51.1z" style="fill-rule:evenodd;clip-rule:evenodd;fill:#1c1c30"/><defs><filter id="Adobe_OpacityMaskFilter_13_" filterUnits="userSpaceOnUse" x="212" y="18.1" width="39.6" height="63.9"><feColorMatrix values="1 0 0 0 0 0 1 0 0 0 0 0 1 0 0 0 0 0 1 0"/></filter></defs><mask maskUnits="userSpaceOnUse" x="212" y="18.1" width="39.6" height="63.9" id="SVGID_27_"><g style="filter:url(#Adobe_OpacityMaskFilter_13_)"><linearGradient id="SVGID_28_" gradientUnits="userSpaceOnUse" x1="-572.126" y1="617.265" x2="-506.346" y2="642.105" gradientTransform="translate(748.8 -588.02)"><stop offset="0" style="stop-color:#000"/><stop offset="1" style="stop-color:#fff"/></linearGradient><path style="fill:url(#SVGID_28_)" d="M212 18.1h39.6V82H212z"/></g></mask><path d="M228 28.8c-1-6.2-5-9.7-12.1-10.7 4.6 5.3 7.5 12.3 7.5 19.9 0 9.6-4.4 18.1-11.4 23.7 5.8.8 11.2 2.2 11.4 9.1 6.8-3.8 14.1-3.3 18.4 3.2 4.5 7.2 6.7 10.5 7.5 5.8 7.5-37.8-4.1-54.2-21.3-51z" style="mask:url(#SVGID_27_);fill-rule:evenodd;clip-rule:evenodd;fill:#0e0e19"/><defs><filter id="Adobe_OpacityMaskFilter_14_" filterUnits="userSpaceOnUse" x="153.6" y="22.2" width="34.7" height="30.6"><feColorMatrix values="1 0 0 0 0 0 1 0 0 0 0 0 1 0 0 0 0 0 1 0"/></filter></defs><mask maskUnits="userSpaceOnUse" x="153.6" y="22.2" width="34.7" height="30.6" id="SVGID_29_"><g style="filter:url(#Adobe_OpacityMaskFilter_14_)"><linearGradient id="SVGID_30_" gradientUnits="userSpaceOnUse" x1="-494.577" y1="668.269" x2="-542.027" y2="642.449" gradientTransform="translate(690.448 -617.157)"><stop offset="0" style="stop-color:#000"/><stop offset="1" style="stop-color:#fff"/></linearGradient><path style="fill:url(#SVGID_30_)" d="M153.6 22.2h34.7v30.6h-34.7z"/></g></mask><path d="M172 50.6v-1.5c0-11.7 6.6-21.8 16.3-26.9-5.1 1.6-10.7 3.6-16.7 6-16.3-20-30.8 36.3.4 22.4z" style="mask:url(#SVGID_29_);fill-rule:evenodd;clip-rule:evenodd;fill:#2a2944"/><path class="st62" d="M194.7 61.7c-3.9-1-7.9-1.1-11.8-.4-3.9.7-7.6 2.2-10.9 4.5-.7.5-.9 1.4-.4 2.1.5.7 1.4.9 2.1.4 3-2.1 6.3-3.4 9.7-4 3.5-.6 7-.5 10.5.4.8.2 1.6-.3 1.8-1.1.3-.9-.2-1.7-1-1.9zM165.2 68.8c-1.8.5-3.6 1.3-5.1 2.3-1.6 1-3 2.3-4.2 3.7-.5.6-.5 1.6.2 2.1.6.5 1.6.5 2.1-.2 1-1.2 2.2-2.3 3.5-3.1 1.3-.8 2.8-1.5 4.3-1.9.8-.2 1.3-1.1 1.1-1.9-.3-.7-1.1-1.2-1.9-1z"/><path class="st63" d="M186.1 75.2c-1.1 0-1.9.9-1.9 1.9 0 1.1.9 1.9 1.9 1.9s1.9-.9 1.9-1.9c0-1.1-.9-1.9-1.9-1.9zM166.1 83.1c-1 0-1.8.8-1.8 1.8s.8 1.8 1.8 1.8 1.8-.8 1.8-1.8-.8-1.8-1.8-1.8z"/><path class="st3" d="M173.1 84.4v-.1c-.5-3.5-2.3-6.6-4.7-8.6-2.4-2-5.6-3.1-8.8-2.6h-.1c-3.2.5-5.9 2.4-7.7 5.1-1.7 2.6-2.5 6-2 9.6v.1c.5 3.5 2.3 6.6 4.7 8.6 2.4 2 5.6 3.1 8.8 2.6h.1c3.2-.5 5.9-2.4 7.7-5.1 1.7-2.7 2.5-6.1 2-9.6zm-3.6 8.5c-1.5 2.2-3.7 3.8-6.3 4.2-2.7.4-5.2-.5-7.3-2.2-2.1-1.7-3.6-4.3-4-7.3v-.1c-.4-3.1.2-6 1.7-8.2 1.5-2.2 3.7-3.8 6.3-4.2 2.7-.4 5.2.5 7.3 2.2 2.1 1.7 3.6 4.3 4 7.3v.1c.4 3-.3 5.9-1.7 8.2z"/><path class="st34" d="M159.4 79.6c-1.6 0-2.9 1.3-2.9 2.9 0 1.6 1.3 2.9 2.9 2.9 1.6 0 2.9-1.3 2.9-2.9.1-1.6-1.2-2.9-2.9-2.9zM180.3 72.7c-1.6 0-2.9 1.3-2.9 2.9 0 1.6 1.3 2.9 2.9 2.9s2.9-1.3 2.9-2.9c0-1.6-1.3-2.9-2.9-2.9z"/><path class="st64" d="M193.7 100.6c-3.4 3.4-6.5 5.8-9.3 7.3-2.8 1.4-5.3 1.9-7.5 1.6-.6-.1-1.2.3-1.3.9-.1.6.3 1.2.9 1.3 2.8.5 5.7-.1 8.9-1.8 3.1-1.6 6.4-4.2 9.9-7.7.4-.4.4-1.2 0-1.6-.5-.4-1.2-.4-1.6 0z"/><path class="st65" d="M182.4 91.2c-1.2-.8-2.7-.9-3.9-.2-.2-.6-4.2-16.5-6.9-14-2.6 2.3-3.5 16-3.5 17.9-.2 6.2 1.6 10.9 9.5 5.2.7-1.6 2-2.4 3.8-2.3 1.4-.4 2.4-1.5 2.6-2.9.1-1.4-.5-2.8-1.6-3.7z"/><path class="st64" d="M191.7 108.5c-1.7 1.7-3.3 3-4.8 3.7-1.4.7-2.7 1-3.8.8-.3-.1-.6.2-.7.5-.1.3.2.6.5.7 1.4.2 2.9-.1 4.6-.9 1.6-.8 3.3-2.1 5.1-3.9.2-.2.2-.6 0-.8-.3-.4-.6-.4-.9-.1z"/><path class="st3" d="m245.5 72.3-10.2-3.8c-.1 0-.2-.1-.3-.1l-35 .2c-.5-.7-1-1.4-1.7-2-2.5-2.5-6-4.1-9.9-4.1s-7.4 1.6-9.9 4.1c-2.5 2.5-4.1 6-4.1 9.9 0 1.8.3 3.5.9 5.1-1.6-.1-3-.1-4.1.1-1.7.3-2.9.9-3.6 1.9-.4.5-.2 1.2.3 1.6.5.4 1.2.2 1.6-.3.3-.5 1-.8 2-.9 1.2-.2 2.9-.2 5 .1.6.9 1.2 1.7 1.9 2.4 2.5 2.5 6 4.1 9.9 4.1s7.4-1.6 9.9-4.1c2.5-2.5 4.1-6 4.1-9.9 0-2.1-.5-4.1-1.3-5.9l33.7-.2 10.1 3.7c.5.2 1.1-.1 1.3-.6.2-.6-.1-1.2-.6-1.3zM197 85c-2.2 2.2-5.2 3.5-8.5 3.5s-6.3-1.3-8.5-3.5-3.5-5.2-3.5-8.5 1.3-6.3 3.5-8.5 5.2-3.5 8.5-3.5 6.3 1.3 8.5 3.5 3.5 5.2 3.5 8.5-1.4 6.3-3.5 8.5z"/><path class="st37" d="M232.5 58.1c-5.5.4-10 6.9-10.1 14.5-.1 7.6 4.2 13.4 9.6 13 5.5-.4 10-6.9 10.1-14.5.1-7.6-4.2-13.4-9.6-13z"/><path class="st65" d="M234.5 64.2c-3.3.3-6 4.2-6.1 8.7-.1 4.6 2.5 8.1 5.8 7.8 3.3-.3 6-4.2 6.1-8.7.1-4.6-2.5-8.1-5.8-7.8z"/><path class="st64" d="M232 67.1c-1.9.1-3.5 2.4-3.5 5.1 0 2.6 1.5 4.7 3.4 4.5 1.9-.1 3.5-2.4 3.5-5.1.1-2.6-1.5-4.6-3.4-4.5z"/><defs><filter id="Adobe_OpacityMaskFilter_15_" filterUnits="userSpaceOnUse" x="340.9" y="146.2" width="53.8" height="102.6"><feColorMatrix values="1 0 0 0 0 0 1 0 0 0 0 0 1 0 0 0 0 0 1 0"/></filter></defs><mask maskUnits="userSpaceOnUse" x="340.9" y="146.2" width="53.8" height="102.6" id="SVGID_31_"><g style="filter:url(#Adobe_OpacityMaskFilter_15_)"><linearGradient id="SVGID_32_" gradientUnits="userSpaceOnUse" x1="-573.137" y1="593.502" x2="-486.687" y2="628.012" gradientTransform="translate(877.672 -421.21)"><stop offset="0" style="stop-color:#000"/><stop offset="1" style="stop-color:#fff"/></linearGradient><path style="fill:url(#SVGID_32_)" d="M340.9 146.2h53.8v102.6h-53.8z"/></g></mask><path d="M341.2 169.6c3.2 27.6 30.3 21.3 33 49.7 1.1 11.5-3.9 22.6-13.2 29.5 12.4-5.3 23.6-7.4 33.7-6.5-7.5-25.8-15.7-64.2-32-85.9-16.6-22-23.5-3.8-21.5 13.2z" style="mask:url(#SVGID_31_);fill-rule:evenodd;clip-rule:evenodd;fill:#4b0ba8"/><defs><filter id="Adobe_OpacityMaskFilter_16_" filterUnits="userSpaceOnUse" x="104.7" y="129.2" width="27.7" height="92.5"><feColorMatrix values="1 0 0 0 0 0 1 0 0 0 0 0 1 0 0 0 0 0 1 0"/></filter></defs><mask maskUnits="userSpaceOnUse" x="104.7" y="129.2" width="27.7" height="92.5" id="SVGID_33_"><g style="filter:url(#Adobe_OpacityMaskFilter_16_)"><linearGradient id="SVGID_34_" gradientUnits="userSpaceOnUse" x1="-472.987" y1="630.906" x2="-523.147" y2="623.756" gradientTransform="translate(641.541 -448.356)"><stop offset="0" style="stop-color:#000"/><stop offset="1" style="stop-color:#fff"/></linearGradient><path style="fill:url(#SVGID_34_)" d="M104.7 129.2h27.7v92.5h-27.7z"/></g></mask><path d="M128.4 156.3c5.3-8.9 3.4-20.4-4.5-27.1 0 10.8-.1 21.5-.1 32.3-12.8 35.9-19.1 53.9-19.1 53.9.4 4.2.7 6.3.7 6.3 10.3-1 19.4-7.3 24-16.6 10.5-21.8-10.9-32.4-1-48.8z" style="mask:url(#SVGID_33_);fill-rule:evenodd;clip-rule:evenodd;fill:#ffe0d1"/><defs><filter id="Adobe_OpacityMaskFilter_17_" filterUnits="userSpaceOnUse" x="115.1" y="164.7" width="38.9" height="66.3"><feColorMatrix values="1 0 0 0 0 0 1 0 0 0 0 0 1 0 0 0 0 0 1 0"/></filter></defs><mask maskUnits="userSpaceOnUse" x="115.1" y="164.7" width="38.9" height="66.3" id="SVGID_35_"><g style="filter:url(#Adobe_OpacityMaskFilter_17_)"><linearGradient id="SVGID_36_" gradientUnits="userSpaceOnUse" x1="-548.141" y1="610.657" x2="-491.011" y2="659.317" gradientTransform="translate(651.948 -439.035)"><stop offset="0" style="stop-color:#000"/><stop offset="1" style="stop-color:#fff"/></linearGradient><path style="fill:url(#SVGID_36_)" d="M115.1 164.7H154V231h-38.9z"/></g></mask><path d="M115.1 231c21.1-6.9 31.6-10.4 31.6-10.4s2.4-18.1 7.3-54.2c0 0-1.7-.6-5.2-1.7 1.7 26.6-11.2 51.9-33.7 66.3z" style="mask:url(#SVGID_35_);fill-rule:evenodd;clip-rule:evenodd;fill:#ff592b"/><path class="st75" d="M162.5 116.9c0-.1-.1-.2-.2-.3l-6.6-8.1c-.4-.4-1-.5-1.5-.1-.4.4-.5 1-.1 1.5l6.6 8 1 2.2.7 7c.1.6.6 1 1.1 1 .6-.1 1-.6 1-1.1l-.1-1.5c.3.1.6.2.9 0 .5-.2.8-.9.5-1.4l-3.3-7.2zM140.6 134c-.4-.4-1.1-.4-1.5 0-.4.4-.4 1.1 0 1.5 3.3 3.3 5.3 7.5 6 12 .6 4.4-.1 9-2.4 13.2-.3.5-.1 1.2.4 1.4.5.3 1.2.1 1.4-.4 2.5-4.5 3.4-9.6 2.7-14.5-.7-4.9-3-9.6-6.6-13.2zM156.4 164.6l-6.4-.8c-.6-.1-1.1.3-1.2.9-.1.6.3 1.1.9 1.2l6.4.8c.6.1 1.1-.3 1.2-.9.1-.6-.3-1.1-.9-1.2zM165.1 144.6c-4 .3-7.7 2-10.6 4.5-2.9 2.6-5 6-5.8 10-.1.6.3 1.1.8 1.2.6.1 1.1-.3 1.2-.8.7-3.5 2.5-6.6 5.1-8.8 2.5-2.3 5.8-3.7 9.4-4 .6 0 1-.6 1-1.1 0-.6-.5-1.1-1.1-1z"/><path class="st75" d="M162.8 127.9c-.5-.3-1.1-.1-1.4.4-.2.3-.4.5-.7.7-.3.2-.6.3-.9.3-.3 0-.7 0-1-.2-.2-.1-.4-.2-.6-.4l-1.4-7.4c0-.2-.1-.4-.2-.5l-8.2-9.6c-.4-.4-1-.5-1.5-.1-.4.4-.5 1-.1 1.5l8 9.4 1.4 7.3c0 .4-.1.9-.3 1.2-.2.4-.6.7-1 .8-.4.2-.9.2-1.3.1s-.7-.3-1-.6l-2.3-6.1c-.1-.2-.2-.3-.3-.4l-7-5.5c-.5-.4-1.1-.3-1.5.2-.4.5-.3 1.1.2 1.5l2.5 2c-1 .1-1.9.2-2.9.2-1.7 0-3.5-.1-5.2-.5-.6-.1-1.1.3-1.2.8-.1.6.3 1.1.8 1.2 1.9.4 3.7.5 5.6.5 1.7 0 3.4-.2 5.1-.5l1.9 1.5 2.3 5.9c0 .1.1.2.2.3.6.7 1.3 1.2 2.2 1.4.8.2 1.7.2 2.6-.1.9-.3 1.6-.9 2-1.7l.3-.6c.6.3 1.3.4 1.9.3.7 0 1.3-.3 1.9-.6.6-.3 1-.8 1.4-1.4.4-.4.2-1-.3-1.3z"/><path class="st34" d="M254 222.7c-.8-2.4-3.4-4.3-5.7-4.4l-168.5-3.4c-2.3 0-3.6 1.8-2.8 4.2l33.8 98.9c.8 2.4 3.4 4.3 5.7 4.4l168.5 3.4c2.3 0 3.6-1.8 2.8-4.2L254 222.7z"/><path d="M250.2 225.8c-.6-1.7-2.5-3.2-4.2-3.2l-165.9-3.4c-1.7 0-2.6 1.4-2.1 3.1l33.6 98.2c.6 1.7 2.5 3.2 4.2 3.2l165.9 3.4c1.7 0 2.6-1.4 2.1-3.1l-33.6-98.2z" style="fill-rule:evenodd;clip-rule:evenodd;fill:#c7e4f9"/><path class="st34" d="M174.3 263.3c-5.2.3-8.5 4.6-7.4 9.7s6.1 9 11.3 8.8c5.2-.3 8.5-4.6 7.4-9.7s-6.2-9-11.3-8.8z"/><defs><filter id="Adobe_OpacityMaskFilter_18_" filterUnits="userSpaceOnUse" x="111.5" y="224.7" width="167.9" height="100"><feColorMatrix values="1 0 0 0 0 0 1 0 0 0 0 0 1 0 0 0 0 0 1 0"/></filter></defs><mask maskUnits="userSpaceOnUse" x="111.5" y="224.7" width="167.9" height="100" id="SVGID_37_"><g style="filter:url(#Adobe_OpacityMaskFilter_18_)"><linearGradient id="SVGID_38_" gradientUnits="userSpaceOnUse" x1="-508.626" y1="559.309" x2="-426.046" y2="649.279" gradientTransform="translate(648.34 -345.322)"><stop offset="0" style="stop-color:#000"/><stop offset="1" style="stop-color:#fff"/></linearGradient><path style="fill:url(#SVGID_38_)" d="M111.5 224.7h167.9v100H111.5z"/></g></mask><path d="M247.1 228c-.6-1.7-2.4-3-4-3.1l-8.1-.2c-3.6 27.7-18.7 53.7-43.8 70.4-24.4 16.3-53.3 20.4-79.7 13.9l3.2 9.4c.6 1.7 2.4 3 4 3.1l158.5 3.2c1.6 0 2.5-1.3 2-3L247.1 228z" style="mask:url(#SVGID_37_);fill-rule:evenodd;clip-rule:evenodd;fill:#b1d9f2"/><path class="st37" d="M338.2 265c.9 5.7 3 11.2 6.3 16-12.1 7.4-62.6 25.4-84.4 32.2-1.4-4.2-4.3-6.9-8.5-7.9-3.1-.7-11.7-3.7-14.4-2.4-1.3.6-1.9 1.7-1.8 2.8.2 2.7 4 6 7.9 7.7-2 2.3-4.3 4.4-6.6 6.3l-16.7 3.6-17.2-3.4c-1.4-.1-2.7.6-3.4 1.8-.7 1.2-.6 2.7.2 3.9l-9.4-1.2c-1.3-.2-2.7.5-3.2 1.7-.6 1.2-.3 2.7.7 3.6-1.4-.1-2.6.9-2.9 2.3-.3 1.4.5 2.7 1.9 3.2l1.6.5c-.7 2.1-.2 3.5 1.5 4.3 8.8 4.6 20.2 11.8 29.7 11.5 4.2.1 27.5-5.5 31.1-6.5 21.6-2 101.3-9.3 133-20.6 10.7-3.8 16.3-6.9 19.1-12.4 6.7-13.3-2.6-50.2-6.2-64.5-10.6-2.1-39.8 5.8-58.3 17.5z"/><path class="st75" d="m252.3 316.2-8.5-3.9c-.6-.3-1.3 0-1.6.6-.3.6 0 1.3.6 1.6l4 1.8-27 5.9c-.6.1-1 .8-.9 1.4.1.6.8 1 1.4.9l27-5.9c.6-.1 1-.8.9-1.4 0-.1-.1-.2-.1-.3l3.2 1.5c.6.3 1.3 0 1.6-.6.2-.7-.1-1.4-.6-1.6zM235.9 332.3l-16-.4-20-7.4c-.6-.2-1.3.1-1.5.7-.2.6.1 1.3.7 1.5l20.2 7.5c.1 0 .3.1.4.1l16.1.4c.6 0 1.2-.5 1.2-1.1.1-.7-.4-1.3-1.1-1.3zM227 339.1l-15.5-1.7-23.5-8.8c-.6-.2-1.3.1-1.5.7-.2.6.1 1.3.7 1.5l23.6 8.9c.1 0 .2.1.3.1l15.6 1.7c.6.1 1.2-.4 1.3-1 .1-.7-.4-1.3-1-1.4zM208.9 343.2l-20.2-8.7c-.6-.3-1.3 0-1.5.6-.3.6 0 1.3.6 1.5l20.2 8.7c.6.3 1.3 0 1.5-.6.3-.6 0-1.3-.6-1.5z"/><defs><filter id="Adobe_OpacityMaskFilter_19_" filterUnits="userSpaceOnUse" x="250" y="247" width="150.6" height="94.8"><feColorMatrix values="1 0 0 0 0 0 1 0 0 0 0 0 1 0 0 0 0 0 1 0"/></filter></defs><mask maskUnits="userSpaceOnUse" x="250" y="247" width="150.6" height="94.8" id="SVGID_39_"><g style="filter:url(#Adobe_OpacityMaskFilter_19_)"><linearGradient id="SVGID_40_" gradientUnits="userSpaceOnUse" x1="-536.797" y1="621.4" x2="-327.096" y2="624.88" gradientTransform="translate(786.78 -328.22)"><stop offset="0" style="stop-color:#000"/><stop offset="1" style="stop-color:#fff"/></linearGradient><path style="fill:url(#SVGID_40_)" d="M250 247h150.6v94.8H250z"/></g></mask><path d="M362.2 253.7c.6 11.9 22.4 17.7 20.8 37.6-.6 7.4-4.7 14.3-11.2 18.6-13.7 8.9-27.5.8-40.5-.5-22.3-2.3-20.9 18.3-40.9 24.9-15.6 5.1-28.4-4.8-40.4 7.6 65.2-6.4 108.3-13.5 129.2-21.2 9.2-3.7 14.7-6.5 17.9-10.6 8.8-11.2-1.4-49.9-5.1-63-9.3.5-19.2 2.7-29.8 6.6z" style="mask:url(#SVGID_39_);fill-rule:evenodd;clip-rule:evenodd;fill:#ff592b"/><defs><filter id="Adobe_OpacityMaskFilter_20_" filterUnits="userSpaceOnUse" x="261" y="266.1" width="98" height="51.9"><feColorMatrix values="1 0 0 0 0 0 1 0 0 0 0 0 1 0 0 0 0 0 1 0"/></filter></defs><mask maskUnits="userSpaceOnUse" x="261" y="266.1" width="98" height="51.9" id="SVGID_41_"><g style="filter:url(#Adobe_OpacityMaskFilter_20_)"><linearGradient id="SVGID_42_" gradientUnits="userSpaceOnUse" x1="-410.292" y1="707.03" x2="-496.952" y2="636.64" gradientTransform="translate(797.82 -351.963)"><stop offset="0" style="stop-color:#000"/><stop offset="1" style="stop-color:#fff"/></linearGradient><path style="fill:url(#SVGID_42_)" d="M261 266.1h98v52h-98z"/></g></mask><path d="M338.4 266.2c.9 4.9 2.8 9.6 5.5 13.9.3.5.2.9-.4 1.4-2.4 1.5-6 3.2-10.6 5.2-13.8 5.7-25.9 10.4-36.3 14.1-13.4 4.8-25.2 8.9-35.5 12.2 30.1 16.1 31.3-10.2 52.6-11.9 14-1.2 25.7 9.2 37.7.1 6.8-5.2 9.4-14.2 6.4-22.2-3-8.3-10.9-13.4-19.4-12.8z" style="mask:url(#SVGID_41_);fill-rule:evenodd;clip-rule:evenodd;fill:#ffdfcf"/><path class="st75" d="M382.7 279.2c-3.8-2.5-8.1-4.2-12.7-5-4.6-.8-9.2-.7-13.6.3s-8.7 2.8-12.5 5.5c-.5.3-.6 1-.3 1.5s1 .6 1.5.3c3.6-2.5 7.5-4.2 11.7-5.2 4.2-.9 8.5-1 12.8-.3 4.3.8 8.3 2.4 11.9 4.7 3.6 2.3 6.7 5.3 9.2 8.9.3.5 1 .6 1.5.3s.6-1 .3-1.5c-2.7-3.8-6-7-9.8-9.5z"/><path class="st1" d="M57.1 69H37.6c-1 0-1.9.8-1.9 1.9v39.4c0 1 .8 1.9 1.9 1.9h19.5c1 0 1.9-.8 1.9-1.9V70.9c0-1-.9-1.9-1.9-1.9z"/><path class="st34" d="M88.1 74.1H42.8c-1.7 0-3.2 1.4-3.3 3.1l-2.7 32c-.1 1.7 1.1 3.1 2.8 3.1h45.2c1.7 0 3.2-1.4 3.3-3.1l2.7-32c.2-1.8-1-3.1-2.7-3.1z"/><path class="st0" d="M94.4 73.1H49.3c-1.7 0-3.4 1.4-3.8 3.1L39 109.1c-.3 1.7.8 3.1 2.5 3.1h45.1c1.7 0 3.4-1.4 3.8-3.1L97 76.3c.3-1.8-.8-3.2-2.6-3.2zM468.4 144.7h-45.8c-2.2 0-4 1.8-4 4v25.4c0 2.2 1.8 4 4 4h45.8c2.2 0 4-1.8 4-4v-25.4c0-2.2-1.8-4-4-4z"/><path class="st3" d="M470 146.6c-.2-.3-.7-.4-1-.2l-23.4 17-23.4-17c-.3-.2-.8-.2-1 .2-.2.3-.2.8.2 1l18.8 13.6-18.8 13.6c-.3.2-.4.7-.2 1 .2.3.7.4 1 .2l19.2-13.9 3.8 2.8c.1.1.3.1.4.1.2 0 .3 0 .4-.1l3.8-2.8L469 176c.3.2.8.2 1-.2.2-.3.2-.8-.2-1L451 161.2l18.8-13.6c.3-.2.4-.7.2-1z"/><circle transform="rotate(-67.5 471.153 142.902)" class="st86" cx="471.2" cy="142.9" r="7.8"/><path class="st3" d="M472.8 142.5c.6-.2 1.1-.5 1.4-.8.3-.3.4-.8.4-1.4 0-.6-.3-1.2-.8-1.6-.6-.4-1.3-.6-2.3-.6-1 0-2 .2-2.8.5v1.8c.9-.4 1.7-.6 2.5-.6 1 0 1.5.3 1.5.9 0 .4-.2.7-.5.9-.4.2-1 .3-1.8.3h-.5v1.7h.5c.9 0 1.6.1 1.9.3.3.2.5.5.5.8 0 .4-.1.6-.4.8-.3.2-.6.3-1.1.3-.8 0-1.7-.2-2.6-.6v1.8c.8.3 1.7.5 2.7.5 1.1 0 2-.2 2.6-.7.6-.5.9-1.2.9-2 0-.6-.2-1.1-.5-1.5-.5-.5-.9-.7-1.6-.8z"/><path d="M393.2 62.8h-.5v59H444v-59h-50.8zm49.8 58h-49.3v-57H443v57z" style="fill:#8217fd"/><path class="st0" d="M389 68h50.3v58H389z"/><path class="st34" d="M392.4 85.9h43.5v2h-43.5zM392.4 92.5h43.5v2h-43.5zM392.4 99.7h43.5v2h-43.5zM392.4 106.5h43.5v2h-43.5zM399.5 113.6h29.3v2h-29.3z"/><path class="st86" d="M67.9 106.5c-10.5 0-19.1 8.5-19.1 19.1 0 10.5 8.5 19.1 19.1 19.1 10.5 0 19.1-8.5 19.1-19.1 0-10.6-8.5-19.1-19.1-19.1z"/><path class="st3" d="M70.1 123.7v-4.1c1.1.3 2.3.9 3.4 1.6l1.8-3.2c-1.5-1-3.1-1.7-5.1-2v-1.7h-2.8v1.6c-3.4.4-5.7 2.3-5.7 5.3v.1c0 3.2 1.9 4.7 5.8 5.8v4.3c-1.6-.3-3-1.1-4.4-2.2l-2.1 3.1c1.8 1.4 4.1 2.3 6.4 2.6v2.7h2.8V135c3.4-.4 5.8-2.3 5.8-5.4v-.1c0-3-1.8-4.7-5.9-5.8zm-2.6-.7c-1.5-.5-1.9-1.1-1.9-2 0-.9.5-1.5 1.9-1.7v3.7zm4.5 6.8c0 1-.7 1.6-1.9 1.7v-3.8c1.4.6 1.9 1.2 1.9 2.1z"/><path class="st34" d="M110.8 356.2c-1.6 0-2.9 1.3-2.9 2.9 0 1.6 1.3 2.9 2.9 2.9 1.6 0 2.9-1.3 2.9-2.9.1-1.6-1.2-2.9-2.9-2.9zM115.8 345.7c-.7 0-1.3.6-1.3 1.3 0 .7.6 1.3 1.3 1.3.7 0 1.3-.6 1.3-1.3-.1-.7-.6-1.3-1.3-1.3zM104.6 320.4c-1.1 0-2 .9-2 2s.9 2 2 2 2-.9 2-2-.9-2-2-2zM92.5 339.4c-1.1 0-2 .9-2 2s.9 2 2 2 2-.9 2-2-.9-2-2-2zM50.3 367.9c-1.6 0-2.9 1.3-2.9 2.9 0 1.6 1.3 2.9 2.9 2.9 1.6 0 2.9-1.3 2.9-2.9 0-1.6-1.3-2.9-2.9-2.9zM129.2 438.9c-1 0-1.8.8-1.8 1.8s.8 1.8 1.8 1.8 1.8-.8 1.8-1.8-.8-1.8-1.8-1.8zM232.4 395.8c-1.3 0-2.4 1.1-2.4 2.4 0 1.3 1.1 2.4 2.4 2.4 1.3 0 2.4-1.1 2.4-2.4.1-1.3-1-2.4-2.4-2.4zM171 464.4c-1.3 0-2.4 1.1-2.4 2.4 0 1.3 1.1 2.4 2.4 2.4 1.3 0 2.4-1.1 2.4-2.4 0-1.3-1-2.4-2.4-2.4zM361.3 478.1c-1 0-1.8.8-1.8 1.8s.8 1.8 1.8 1.8 1.8-.8 1.8-1.8-.8-1.8-1.8-1.8zM428.3 444.3c-1 0-1.8.8-1.8 1.8s.8 1.8 1.8 1.8 1.8-.8 1.8-1.8-.8-1.8-1.8-1.8zM445.2 333.6c-1.6 0-2.9 1.3-2.9 2.9 0 1.6 1.3 2.9 2.9 2.9s2.9-1.3 2.9-2.9c0-1.6-1.3-2.9-2.9-2.9zM657.9 251.6c-2.3 0-4.2 1.9-4.2 4.2s1.9 4.2 4.2 4.2 4.2-1.9 4.2-4.2-1.9-4.2-4.2-4.2zM297.7 271.4c-1.2 0-2.1.9-2.1 2.1 0 1.2.9 2.1 2.1 2.1 1.2 0 2.1-.9 2.1-2.1 0-1.2-1-2.1-2.1-2.1zM344.9 222.2c-1.2 0-2.1.9-2.1 2.1 0 1.2.9 2.1 2.1 2.1 1.2 0 2.1-.9 2.1-2.1 0-1.1-1-2.1-2.1-2.1zM229.6 196.9c-.8 0-1.4.6-1.4 1.4 0 .8.6 1.4 1.4 1.4s1.4-.6 1.4-1.4c-.1-.8-.7-1.4-1.4-1.4zM52.5 116.3c-.2 0-.4.2-.4.4s.2.4.4.4.4-.2.4-.4c.1-.2-.1-.4-.4-.4zM41.3 88.5c-.2 0-.4.2-.4.4s.2.4.4.4.4-.2.4-.4-.1-.4-.4-.4zM68.7 86.6c-.2 0-.4.2-.4.4s.2.4.4.4.4-.2.4-.4c.1-.2-.1-.4-.4-.4zM56.4 91.7c-.3 0-.6.3-.6.6s.3.6.6.6.6-.3.6-.6-.3-.6-.6-.6zM177 183.8c-1.2 0-2.1.9-2.1 2.1 0 1.2.9 2.1 2.1 2.1 1.2 0 2.1-.9 2.1-2.1 0-1.1-1-2.1-2.1-2.1zM415.3 452.3c-1.2 0-2.1.9-2.1 2.1 0 1.2.9 2.1 2.1 2.1 1.2 0 2.1-.9 2.1-2.1 0-1.1-1-2.1-2.1-2.1zM387.8 427.8c-1.2 0-2.1.9-2.1 2.1 0 1.2.9 2.1 2.1 2.1 1.2 0 2.1-.9 2.1-2.1 0-1.1-.9-2.1-2.1-2.1zM457.3 53.6c-1.2 0-2.1.9-2.1 2.1s.9 2.1 2.1 2.1c1.2 0 2.1-.9 2.1-2.1s-1-2.1-2.1-2.1zM357.4 9.1c-1.7 0-3 1.4-3 3 0 1.7 1.4 3 3 3 1.7 0 3-1.4 3-3 0-1.7-1.3-3-3-3zM310.9 132.5c-1.1 0-2 .9-2 2s.9 2 2 2 2-.9 2-2c0-1-.9-2-2-2z"/></svg>