<svg version="1.1" id="Layer_1" xmlns="http://www.w3.org/2000/svg" xmlns:xlink="http://www.w3.org/1999/xlink" x="0" y="0" viewBox="0 0 800 625" style="enable-background:new 0 0 800 625" xml:space="preserve"><style>.st2{fill:#fff}.st3{fill-rule:evenodd;clip-rule:evenodd;fill:#217373}.st4{fill:#004545}.st5{fill-rule:evenodd;clip-rule:evenodd;fill:#1b223a}.st6,.st8{fill:#7703fc}.st8,.st9{fill-rule:evenodd;clip-rule:evenodd}.st11,.st9{fill:#350777}.st14,.st15,.st17,.st18{fill-rule:evenodd;clip-rule:evenodd;fill:#fb9242}.st15,.st17,.st18{fill:#f03900}.st17,.st18{fill:#f5f4ff}.st18{fill:#ffa35e}.st22{fill:#100801}.st23,.st24{fill-rule:evenodd;clip-rule:evenodd}.st24{fill:#fff}.st25{fill:#a00}</style><defs><path id="SVGID_1_" d="M650 509.3c.6-.9 1.2-1.7 1.8-2.6.5-.8 1.1-1.6 1.6-2.4.7-1.1 1.5-2.2 2.2-3.3.4-.6.7-1.1 1.1-1.7l2.4-3.9.6-.9c17.6-29.1 29.4-62 33.9-97.3v-.2c.2-1.9.5-3.9.7-5.8 0-.3.1-.6.1-.9.2-1.8.3-3.6.5-5.4 0-.5.1-.9.1-1.4.1-1.7.2-3.3.3-5 0-.7.1-1.4.1-2.1.1-1.5.1-2.9.2-4.4 0-1.5.1-3.1.1-4.6v-2.1c0-138.3-112.1-250.4-250.4-250.4-14.9 0-29.5 1.3-43.7 3.8C382.6 56.4 324.7 11 256.2 11c-83.9 0-151.8 68-151.8 151.8 0 64.8 40.7 120.2 97.9 141.9-4.8 19.4-7.4 39.6-7.4 60.4 0 138.3 112.1 250.4 250.4 250.4 82.4 0 155.6-39.9 201.2-101.3.4-.5.8-1.1 1.2-1.6.7-1 1.5-2.1 2.3-3.3z"/></defs><clipPath id="SVGID_2_"><use xlink:href="#SVGID_1_" style="overflow:visible"/></clipPath><g style="clip-path:url(#SVGID_2_)"><path d="M445.9 115.2c137.9 0 249.7 111.8 249.7 249.7 0 77.4-35.2 146.5-90.4 192.3H286.7c-55.2-45.8-90.4-114.9-90.4-192.3 0-20.7 2.5-40.9 7.3-60.2-57.9-21.4-99.2-77.1-99.2-142.5 0-83.9 68-151.8 151.8-151.8 68.9 0 127 45.8 145.6 108.7 14.3-2.5 29.1-3.9 44.1-3.9" style="opacity:.39;fill-rule:evenodd;clip-rule:evenodd;fill:#dcdcff"/><path class="st2" d="M236.8 383.6c-.9 0-1.6-.7-1.6-1.6s.7-1.6 1.6-1.6h42.7L404 285.6c.3-.2.7-.3 1.1-.3l27.8.4 78.2-76.9c.3-.3.7-.5 1.1-.5l28.1-.5 24.6-34.7-4.7-3.2 11.8-4.4.4 12.6-4.9-3.3-25 35.4c-.3.4-.8.7-1.3.7l-28.3.5-78.2 76.9c-.3.3-.7.5-1.1.5l-28-.4L281 383.2c-.3.2-.6.4-1 .4h-43.2z"/><path class="st3" d="M549.9 443.5c-4.4 4.4-6 10.7-4.5 17 1.4 6.2 5.8 12.5 12.4 17.6 6.6 5.1 13.9 8.3 20.3 9.8 6.2 1.4 11.4 1.1 14.3-1.9 3-3 3.3-8.1 1.9-14.3-1.4-6.3-4.7-13.7-9.8-20.3-5.1-6.6-11.4-11-17.6-12.5-6.3-1.4-12.6.1-17 4.6M643.6 443.5c4.4 4.4 6 10.7 4.5 17-1.4 6.2-5.8 12.5-12.4 17.6-6.6 5.1-13.9 8.3-20.3 9.8-6.2 1.4-11.4 1.1-14.3-1.9-3-3-3.3-8.1-1.9-14.3 1.4-6.3 4.7-13.7 9.8-20.3 5.1-6.6 11.4-11 17.6-12.5 6.3-1.4 12.6.1 17 4.6M561.8 410c-3.3 3.3-4.4 7.9-3.3 12.5 1 4.6 4.3 9.2 9.2 13s10.3 6.1 15 7.2c4.6 1 8.4.8 10.6-1.4 2.2-2.2 2.4-6 1.4-10.6-1.1-4.7-3.4-10.1-7.2-14.9-3.8-4.9-8.4-8.1-13-9.2-4.8-1.1-9.4.1-12.7 3.4M631 410c3.3 3.3 4.4 7.9 3.3 12.5-1 4.6-4.3 9.2-9.2 13s-10.3 6.1-15 7.2c-4.6 1-8.4.8-10.6-1.4-2.2-2.2-2.4-6-1.4-10.6 1.1-4.7 3.4-10.1 7.2-14.9 3.8-4.9 8.4-8.1 13-9.2 4.8-1.1 9.4.1 12.7 3.4M537.5 487.2c-5.6 5.6-7.6 13.5-5.7 21.5 1.8 7.8 7.4 15.8 15.7 22.3 8.4 6.5 17.6 10.5 25.6 12.4 7.8 1.8 14.4 1.4 18.1-2.4 3.7-3.7 4.2-10.3 2.4-18.1-1.8-8-5.9-17.3-12.4-25.6s-14.4-14-22.2-15.7c-8-2-15.9 0-21.5 5.6"/><path class="st3" d="M656 487.2c1.9 1.9 3.1 3.6 4.3 5.8-11.2 18.7-24.8 35.9-40.4 51-5.3.9-13.1 1.3-17.6-3.1-3.7-3.7-4.2-10.3-2.4-18.1 1.8-8 5.9-17.3 12.4-25.6s14.4-14 22.2-15.7c8-1.9 15.9.1 21.5 5.7M572.9 385.7c-2.2 2.2-3 5.3-2.3 8.5.7 3.1 2.9 6.3 6.2 8.8 3.3 2.6 7 4.2 10.2 4.9 3.1.7 5.7.5 7.2-.9 1.5-1.5 1.7-4.1.9-7.2-.7-3.2-2.3-6.8-4.9-10.2-2.6-3.3-5.7-5.5-8.8-6.2-3.1-.7-6.3.1-8.5 2.3M619.9 385.7c2.2 2.2 3 5.3 2.3 8.5-.7 3.1-2.9 6.3-6.2 8.8-3.3 2.6-7 4.2-10.2 4.9-3.1.7-5.7.5-7.2-.9-1.5-1.5-1.7-4.1-.9-7.2.7-3.2 2.3-6.8 4.9-10.2 2.6-3.3 5.7-5.5 8.8-6.2 3.1-.7 6.3.1 8.5 2.3M595.3 360.1c-3.1.2-5.8 2-7.4 4.8-1.6 2.8-2 6.6-1.3 10.7s2.4 7.8 4.2 10.5c1.8 2.6 3.9 4.2 6 4.1s4-1.9 5.5-4.7c1.6-2.8 2.9-6.6 3.2-10.8.3-4.2-.5-7.9-2.4-10.5-1.8-2.7-4.6-4.2-7.8-4.1"/><path class="st4" d="M580.8 389.5c-.7-.7-1.8-.7-2.5 0s-.7 1.8 0 2.5l15.4 15.5.1 33.1-26.1-26.2c-.7-.7-1.8-.7-2.5 0s-.7 1.8 0 2.5l28.6 28.7.1 39.9-26.2-26.3c-.7-.7-1.8-.7-2.5 0s-.7 1.8 0 2.5l28.7 28.9.2 50.7-38.9-39c-.7-.7-1.8-.7-2.5 0s-.7 1.8 0 2.5l41.4 41.5.1 29.8v.4c1.3.6 2.9 1.3 4.7 2.2v-1.2l-.1-30.8 41.7-41.9c.7-.7.7-1.8 0-2.5s-1.8-.7-2.5 0l-39.3 39.4-.2-50.3 29.5-29.6c.7-.7.7-1.8 0-2.5s-1.8-.7-2.5 0l-27 27.1-.1-39.6L628 417c.7-.7.7-1.8 0-2.5s-1.8-.7-2.5 0l-27.2 27.3-.1-32.9 16.7-16.8c.7-.7.7-1.8 0-2.5s-1.8-.7-2.5 0l-14.3 14.3-.1-35.3c0-1.3-1.1-2.3-2.3-2.3-1.3 0-2.3 1.1-2.3 2.3l.1 33.9-12.7-13z"/><path class="st3" d="M245.4 447.9c-4.4 4.4-6 10.7-4.5 17 1.4 6.2 5.8 12.5 12.4 17.6 6.6 5.1 13.9 8.3 20.3 9.8 6.2 1.4 11.4 1.1 14.3-1.9 3-3 3.3-8.1 1.9-14.3-1.4-6.3-4.7-13.7-9.8-20.3-5.1-6.6-11.4-11-17.6-12.5-6.4-1.3-12.6.2-17 4.6M339.1 447.9c4.4 4.4 6 10.7 4.5 17-1.4 6.2-5.8 12.5-12.4 17.6s-13.9 8.3-20.3 9.8c-6.2 1.4-11.4 1.1-14.3-1.9-3-3-3.3-8.1-1.9-14.3 1.4-6.3 4.7-13.7 9.8-20.3 5.1-6.6 11.4-11 17.6-12.5 6.3-1.3 12.5.2 17 4.6M257.3 414.4c-3.3 3.3-4.4 7.9-3.3 12.5 1 4.6 4.3 9.2 9.2 13s10.3 6.1 15 7.2c4.6 1 8.4.8 10.6-1.4 2.2-2.2 2.4-6 1.4-10.6-1.1-4.7-3.4-10.1-7.2-14.9-3.8-4.9-8.4-8.1-13-9.2-4.8-1-9.4.2-12.7 3.4M326.4 414.4c3.3 3.3 4.4 7.9 3.3 12.5-1 4.6-4.3 9.2-9.2 13-4.9 3.8-10.3 6.1-15 7.2-4.6 1-8.4.8-10.6-1.4-2.2-2.2-2.4-6-1.4-10.6 1.1-4.7 3.4-10.1 7.2-14.9 3.8-4.9 8.4-8.1 13-9.2 4.8-1 9.5.2 12.7 3.4M233 491.7l-.5.5-.9.9c12.2 20.4 27.2 38.9 44.6 55 1 .6 2.1.8 3.2.6 3-.4 5.5-1.4 7.3-3.2 3.7-3.7 4.2-10.3 2.4-18.1-1.8-8-5.9-17.3-12.4-25.6s-14.4-14-22.2-15.7c-8-2-15.9 0-21.5 5.6M351.5 491.7c5.6 5.6 7.6 13.5 5.7 21.5-1.8 7.8-7.4 15.8-15.7 22.3-8.4 6.5-17.6 10.5-25.6 12.4-7.8 1.8-14.4 1.4-18.1-2.4-3.7-3.7-4.2-10.3-2.4-18.1 1.8-8 5.9-17.3 12.4-25.6s14.4-14 22.2-15.7c8-2 15.9 0 21.5 5.6M268.4 390.2c-2.2 2.2-3 5.3-2.3 8.5.7 3.1 2.9 6.3 6.2 8.8 3.3 2.6 7 4.2 10.2 4.9 3.1.7 5.7.5 7.2-.9 1.5-1.5 1.7-4.1.9-7.2-.7-3.2-2.3-6.8-4.9-10.2-2.6-3.3-5.7-5.5-8.8-6.2-3.2-.7-6.3.1-8.5 2.3M315.4 390.2c2.2 2.2 3 5.3 2.3 8.5-.7 3.1-2.9 6.3-6.2 8.8-3.3 2.6-7 4.2-10.2 4.9-3.1.7-5.7.5-7.2-.9-1.5-1.5-1.7-4.1-.9-7.2.7-3.2 2.3-6.8 4.9-10.2 2.6-3.3 5.7-5.5 8.8-6.2 3.1-.7 6.2.1 8.5 2.3M290.8 364.6c-3.1.2-5.8 2-7.4 4.8s-2 6.6-1.3 10.7 2.4 7.8 4.2 10.5c1.8 2.6 3.9 4.2 6 4.1s4-1.9 5.5-4.7c1.6-2.8 2.9-6.6 3.2-10.8.3-4.2-.5-7.9-2.4-10.5-1.8-2.7-4.7-4.3-7.8-4.1"/><path class="st4" d="M276.2 394c-.7-.7-1.8-.7-2.5 0s-.7 1.8 0 2.5l15.4 15.5.1 33.1-26.1-26.2c-.7-.7-1.8-.7-2.5 0s-.7 1.8 0 2.5l28.6 28.7.1 39.9-26.2-26.3c-.7-.7-1.8-.7-2.5 0s-.7 1.8 0 2.5l28.7 28.9.2 50.7-38.9-39c-.7-.7-1.8-.7-2.5 0s-.7 1.8 0 2.5l41.4 41.5.1 29.8v.4c1.3.6 2.9 1.3 4.7 2.2V582l-.1-30.8 41.7-41.9c.7-.7.7-1.8 0-2.5s-1.8-.7-2.5 0l-39.3 39.4-.2-50.3 29.5-29.6c.7-.7.7-1.8 0-2.5s-1.8-.7-2.5 0l-27 27.1-.1-39.6 29.6-29.8c.7-.7.7-1.8 0-2.5s-1.8-.7-2.5 0L294 446.1l-.1-32.9 16.7-16.8c.7-.7.7-1.8 0-2.5s-1.8-.7-2.5 0l-14.3 14.3-.1-35.3c0-1.3-1.1-2.3-2.3-2.3-1.3 0-2.3 1.1-2.3 2.3l.1 33.9-13-12.8z"/><path class="st5" d="M575.2 242.7c16.2 0 29.4 13.1 29.4 29.4s-13.1 29.4-29.4 29.4-29.4-13.1-29.4-29.4 13.1-29.4 29.4-29.4"/><path class="st6" d="M587.5 278.5c0-7-5.9-8.4-10.4-9.6-2.9-.7-5.2-1.3-5.2-3 0-1.3 1.5-1.9 3-1.9 1.7 0 3.2.9 3.2 2.6h8.4c0-5.1-2.9-8.5-8.1-9.5v-3h-6.8v3c-5.2.9-8.3 4.1-8.3 9.1 0 6.9 5.6 8.3 10.1 9.4 2.9.7 5.3 1.3 5.3 3.2 0 1.6-1.7 2.5-3.5 2.5-1.9 0-3.5-1-3.5-3.1H563c0 5.6 3.4 9.2 9 10.2v3.1h6.8v-3.2c5.2-1.1 8.7-4.4 8.7-9.8z"/><path class="st5" d="M352.3 242.7c16.2 0 29.4 13.1 29.4 29.4s-13.1 29.4-29.4 29.4-29.4-13.1-29.4-29.4 13.2-29.4 29.4-29.4"/><path class="st6" d="M343.2 288.4c.2 0 .7-.2.8-.3 7.4-9.5 15.4-19.8 22.8-29.4.4-.5 0-1.2-.7-1.2h-4.6c-.2 0-.7.2-.8.3-7.4 9.5-15.4 19.8-22.8 29.4-.4.6 0 1.2.7 1.2h4.6zm16.3-8.4c1 0 1.9.9 1.9 2s-.9 2-1.9 2-1.9-.9-1.9-2 .8-2 1.9-2zm0 8.9c3.9 0 7-3.1 7-6.9s-3.1-6.9-7-6.9-7.1 3.1-7.1 6.9c0 3.9 3.1 6.9 7.1 6.9zm-13.9-27c1 0 1.9.9 1.9 2.1 0 1.1-.9 2-1.9 2s-1.9-.9-1.9-2c0-1.2.9-2.1 1.9-2.1zm0 8.8c3.8 0 7-3.1 7-6.8 0-3.8-3.2-6.9-7-6.9-3.9 0-7 3.1-7 6.9-.1 3.7 3.1 6.8 7 6.8z"/><path d="M388.9 572c98.5 1.1 147.8 1.7 147.8 1.7h5.5s-3-31.4-8.9-94.3c-.5-.5-1.1-.9-1.6-1.2l37.7-143.7c-.9-.3-18.2-8.6-51.9-24.8-22.9 3.4-34.6 13.5-35.1 30.4l-29 41.3c-11.5-25.6-30.2-47.8-54.6-63.6l-29.1 11.1c-14.3 101.7-21.4 152.5-21.4 152.5l11.1.6s-5.5 29.5-16.4 88.5c.2 0 15.4.5 45.9 1.5" style="fill-rule:evenodd;clip-rule:evenodd;fill:#4f02bc"/><path class="st8" d="M539.9 549.9c-52.3 17.3-90.7 17.3-115.2 0 46.8-13.7 70.2-20.5 70.2-20.5-1.9-11.6 5.9-22.5 17.5-24.6 11.6-2 22.6 5.6 24.9 17.1 1.8 18.7 2.6 28 2.6 28"/><path class="st9" d="M528.7 472.3c-83.3 1.9-137.8 6.7-163.4 14.2 0 0-3.8 21.8-11.5 65.5 0 0 3.8-.7 11.5-2.1l102.6-28.5c1.4-13.7 10.5-25.4 23.4-30 13-4.6 27.4-1.3 37.1 8.4 1.9-.8 2.8-1.1 2.8-1.1-1.6-17.6-2.5-26.4-2.5-26.4"/><path d="M593.7 566.1c-41.4 30.4-92.5 48.4-147.8 48.4s-106.4-18-147.8-48.4h295.6z" style="fill-rule:evenodd;clip-rule:evenodd;fill:#966822"/><path transform="rotate(-83.697 417.158 511.708)" class="st11" d="M371.4 510.2h91.5v3h-91.5z"/><path d="M413 421.7c53.5-75.8 80.3-113.6 80.3-113.6s-23.8 3.9-71.3 11.6l-9 102" style="fill-rule:evenodd;clip-rule:evenodd;fill:#dfdcf0"/><path d="M434.7 313.5c-6.1 1.4-11.3 5.4-14.2 11-2.9 5.6-3.1 12.2-.6 17.9 0 0 7.9-5.2 23.7-15.7 10.5 19.6 15.7 29.4 15.7 29.4 19-26.9 28.5-40.3 28.5-40.3-5.5-7.2-9.5-8.9-11.9-5-21.2 6-34.9 6.8-41.2 2.7" style="fill-rule:evenodd;clip-rule:evenodd;fill:#aca8d8"/><path class="st9" d="M419.3 349.9c1.6 75.7-6.8 102.1-25.4 79.2 0 0-4.9-19.7-14.6-59.1 7.6-5.7 11.4-8.6 11.4-8.6 9-2.6 14.5-11.8 12.4-21s-11-15.1-20.3-13.4c18.2-6.9 27.3-10.4 27.3-10.4 8.3 8.4 11.3 19.5 9.2 33.3M548.1 329.7c-25.4 101.6-63.7 134.3-114.8 98.1 2.9-26 26.2-44.8 52.2-42.2 11.1-22.3 16.7-33.4 16.7-33.4 10.5-20.8 25.8-28.3 45.9-22.5"/><path class="st14" d="M436.5 294.9c-.2 7.4 5.8 15.8 12.7 18.2-.2 1.2 13-5.8 39.8-21l1.8-12.6s-21.2-7.7-55.5-14.7c0 0 1.3 15 1.2 30.1"/><path class="st15" d="M439.7 280.7c5-10.1 16.6-15 27.4-11.6 10.7 3.5 17.3 14.2 15.5 25.4-1.8 11.1-11.5 19.2-22.8 19.1 0-.1-6.7-11-20.1-32.9"/><path class="st3" d="m420.5 370.4-1.2 48.6s10.5-14.5 31.4-43.6c0 0 .1-15.7.2-47.1 0 0-3.1-.6-9.3-1.9-14.1 29.3-21.1 44-21.1 44"/><path d="M454 313.9c2.4 1.9 3.9 4.9 3.9 8.2 0 5.9-4.8 10.6-10.6 10.6-5.9 0-10.6-4.8-10.6-10.6 0-5.4 4.1-9.9 9.3-10.5 2.3 1.6 5.1 2.4 8 2.3" style="fill-rule:evenodd;clip-rule:evenodd;fill:#3b9999"/><path class="st17" d="M463.5 338.6c22.4-28.1 33.7-42.1 33.7-42.1-.6-4.3-3.2-8-7.1-10 0 0-13.6 8.9-40.8 26.8 9.4 16.9 14.2 25.3 14.2 25.3M428.1 301.9c-.9 18.5-1.4 27.7-1.4 27.7s7.5-5.4 22.5-16.3c-7.7-11-12.8-18.4-12.8-18.4-2.1 1.1-9.4 5.5-8.3 7"/><path class="st8" d="M418.8 424.4c-4.5 4.4-6.7 6.6-6.7 6.6s-5.5-27.7-16.5-83.2c0 0 6-5.6 18.1-16.8 0 0-6.5.6-19.4 1.9 0 0 2-6.7 6-20 0 0 10.3-5.4 30.8-16.2-8.2 85.1-12.3 127.7-12.3 127.7"/><path class="st8" d="M402.6 437.8c12.4-3.3 18.6-4.9 18.6-4.9s27.1-28.3 81.3-84.8c0 0-4.8-7.3-14.5-22l28.5 6 2.7-24.6s-7.6-4.8-22.9-14.4c-62.5 96.4-93.7 144.7-93.7 144.7"/><path class="st18" d="M501.2 241.1c.5-2.5 1.4-4.7.8-7 .7-17.3-9.9-33.1-26.2-38.9-16.3-5.8-34.5-.3-44.9 13.6a39.456 39.456 0 0 0-.3 46.9c.5 8.4 2.3 17.1 9 24.9 12.8 14.8 36.3 24.2 50.3 5.6 6.5-8.6 12.3-21.4 11.9-32-.1-4.6-1.6-8.5-.6-13.1"/><path d="M501.2 241.1c.5-2.5 1.4-4.7.8-7 .7-17.3-9.9-33.1-26.2-38.9-6.4-2.3-13.1-2.8-19.4-1.8 7.5 4.5 22.2 8.9 19.7 17.2-5 16.6 16.2 28.8 16.2 46.3 0 13-3.4 25.3-9.3 35.9 2.5-1.6 4.9-3.8 7-6.6 6.5-8.6 12.3-21.4 11.9-32-.2-4.6-1.7-8.5-.7-13.1" style="fill-rule:evenodd;clip-rule:evenodd;fill:#ffd3a6"/><path class="st15" d="M467.6 220.1c-9.3-8-23-7.7-32 .6-8.9 8.3-10.2 22-2.9 31.8 2 18.6 10.6 31.4 25.9 38.4-14.3-10 .2-16.8-.8-27-.7-7.4-6.7-9-7.4-15.7-.7-7.6 12.4-18.7 17.2-28.1"/><path d="M435.1 241c-.9 5.3-1.3 8-1.3 8l7.8 2.1c2.2 5.6 7.5 9.3 13.5 9.5 6 .1 11.5-3.3 13.9-8.8-3.7 3.8-9.3 5-14.3 3.2-5-1.9-8.4-6.5-8.7-11.8-7.2-1.5-10.9-2.2-10.9-2.2" style="fill-rule:evenodd;clip-rule:evenodd;fill:#ce0000"/><path d="m421.2 238.8 10.1 11.6c6 9.8 5.7-4.9 5-17.1 15.9 1.1 30.6-7.7 36.5-21.9 18.6-4.2 28.1 3.6 28.5 23.3 0 1 .6 1.1 1.5.5 4.9-3.3 18.7-27.9-2.7-38.6-8.3-13.1-23-20.8-38.5-20.3-34.7 1.2-53.8 34.4-40.4 62.5" style="fill-rule:evenodd;clip-rule:evenodd;fill:#2c1e11"/><path class="st22" d="M485.3 227.8c-.6.1-1.3-.2-1.4-.9-.1-.6.2-1.3.9-1.4 2.3-.5 4.7-.5 7 0s4.4 1.6 6.3 3.1c.5.4.6 1.1.2 1.6s-1.1.6-1.6.2c-1.6-1.3-3.4-2.2-5.3-2.6-2.1-.5-4.2-.5-6.1 0M467.5 226.1c.6.1 1 .7.9 1.4-.1.6-.7 1-1.4.9-2.5-.5-5.1-.4-7.5.2-2.4.6-4.7 1.8-6.7 3.4-.5.4-1.2.3-1.6-.2s-.3-1.2.2-1.6c2.3-1.9 4.9-3.2 7.6-3.9 2.7-.7 5.6-.8 8.5-.2"/><path class="st23" d="M493.2 239c.9 0 1.7.8 1.7 1.7v2.2c0 .9-.8 1.7-1.7 1.7-.9 0-1.7-.8-1.7-1.7v-2.2c0-1 .7-1.7 1.7-1.7M460.9 239.3c1 0 1.7.8 1.7 1.7v2.3c0 1-.8 1.7-1.7 1.7-1 0-1.7-.8-1.7-1.7V241c-.1-1 .7-1.7 1.7-1.7"/><path class="st24" d="M464.2 234.5c1.7 0 3 1.3 3 3s-1.3 3-3 3-3-1.3-3-3 1.3-3 3-3M496.7 234.5c1.7 0 3 1.3 3 3s-1.3 3-3 3-3-1.3-3-3 1.3-3 3-3"/><path class="st25" d="M468.1 270.3c-.2-.3-.3-.6-.3-.9s.2-.6.4-.8c.3-.2.6-.3.9-.3s.6.2.8.4c.5.5 1 1 1.6 1.5.6.4 1.2.8 1.8 1.1.6.3 1.3.5 2 .7.7.1 1.4.2 2.1.2s1.4-.1 2.1-.2c.7-.2 1.4-.4 2-.7.6-.3 1.3-.7 1.8-1.1.6-.4 1.1-.9 1.6-1.5.2-.3.5-.4.8-.4s.6.1.9.3c.3.2.4.5.4.8s-.1.6-.3.9c-.6.7-1.2 1.3-1.9 1.8s-1.5 1-2.3 1.4-1.7.7-2.5.8c-.9.2-1.7.3-2.6.3s-1.8-.1-2.6-.3c-.9-.2-1.7-.5-2.5-.8-.8-.4-1.6-.8-2.3-1.4-.6-.5-1.3-1.1-1.9-1.8M472.4 276.4c-.1-.1-.2-.3-.2-.5s.1-.3.2-.4.3-.2.5-.2.3.1.4.2c.3.3.5.6.8.8.3.2.6.4 1 .6.3.2.7.3 1.1.4s.8.1 1.2.1c.4 0 .8 0 1.2-.1.4-.1.7-.2 1.1-.4.3-.2.7-.4 1-.6s.6-.5.8-.8c.1-.1.3-.2.4-.2.2 0 .3 0 .5.2.1.1.2.3.2.4 0 .2 0 .3-.2.5-.3.4-.7.7-1.1 1s-.8.5-1.2.7c-.4.2-.9.4-1.4.5s-.9.2-1.4.2-1-.1-1.4-.2c-.5-.1-.9-.3-1.4-.5-.4-.2-.9-.4-1.2-.7-.2-.3-.6-.6-.9-1"/><path d="M482 210.4c12.5.1 18.9 8.3 19.2 24.4 0 1 .6 1.1 1.5.5 4.9-3.3 18.7-27.9-2.7-38.6-8.3-13.1-23-20.8-38.5-20.3-.7 0-1.4.1-2.1.1 13.2 2.1 23.3 13.5 23.3 27.3 0 2.3-.2 4.5-.7 6.6" style="fill-rule:evenodd;clip-rule:evenodd;fill:#735a3f"/><path d="m421.2 238.8 10.1 11.6c6 9.8 5.7-4.9 5-17.1 7 .5 13.7-.9 19.6-3.9-13.8-1.6-24.6-13.3-24.6-27.5 0-7.8 3.2-14.8 8.4-19.8-20.1 10.9-28.7 35.3-18.5 56.7" style="fill-rule:evenodd;clip-rule:evenodd;fill:#100801"/><path class="st2" d="M500.3 234.8c-2-2-4.8-3.3-7.9-3.3s-5.9 1.3-7.9 3.3-3.3 4.8-3.3 7.9c0 3.1 1.3 5.9 3.3 7.9s4.8 3.3 7.9 3.3 5.9-1.3 7.9-3.3 3.3-4.8 3.3-7.9c0-3.1-1.2-5.9-3.3-7.9m-33-.6c-2.2-2.2-5.2-3.5-8.5-3.5s-6.3 1.3-8.5 3.5-3.5 5.2-3.5 8.5 1.3 6.3 3.5 8.5 5.2 3.5 8.5 3.5 6.3-1.3 8.5-3.5 3.5-5.2 3.5-8.5-1.3-6.4-3.5-8.5zm25.1-4.3c3.5 0 6.7 1.4 9 3.7s3.7 5.5 3.7 9-1.4 6.7-3.7 9c-2.3 2.3-5.5 3.7-9 3.7s-6.7-1.4-9-3.7-3.7-5.5-3.7-9c0-1.9.4-3.7 1.2-5.3-.5-.7-1.2-1.2-1.9-1.6-.9-.4-1.8-.7-2.8-.7s-1.9.3-2.8.7c-.7.4-1.4.9-1.9 1.6.7 1.6 1.1 3.4 1.1 5.3 0 3.8-1.5 7.2-4 9.6-2.5 2.5-5.9 4-9.6 4-3.8 0-7.2-1.5-9.6-4-2.2-2.2-3.6-5.1-3.9-8.4l-21.9-4.9.3-1.4 21.5 4.8c.1-3.7 1.6-7 4-9.4 2.5-2.5 5.9-4 9.6-4 3.8 0 7.2 1.5 9.6 4 .9.9 1.6 1.9 2.3 3 .6-.6 1.2-1.1 1.9-1.5 1-.6 2.2-.9 3.5-.9 1.2 0 2.4.3 3.5.8.7.4 1.4.9 2 1.5.5-.9 1.2-1.7 1.9-2.4 2-2.1 5.2-3.5 8.7-3.5z"/><path class="st18" d="M420.7 235.3c5.1 0 10.3 5.9 11.7 13.3 1.3 7.3-1.7 13.3-6.8 13.3s-10.3-5.9-11.7-13.3c-1.4-7.4 1.7-13.3 6.8-13.3"/><path d="M420.9 241.5c3.1 0 6.2 3.6 7 8s-1 8-4.1 8-6.2-3.6-7-8 1-8 4.1-8" style="fill-rule:evenodd;clip-rule:evenodd;fill:#f5640b"/><path d="M423.5 243.9c1.8 0 3.7 2.2 4.2 4.8.5 2.7-.6 4.8-2.5 4.8-1.8 0-3.7-2.2-4.2-4.8-.4-2.7.7-4.8 2.5-4.8" style="fill-rule:evenodd;clip-rule:evenodd;fill:#a00"/><path class="st15" d="M473.9 239.4c0-14 12.9 12.2 13.9 14.5 4.1 9.2-2.4 9.6-10.5 8.7-.3-1.3-2.3-1.9-3.9-.2-1.4-.1-2.7-.9-3.3-2.2-.6-1.3-.4-2.8.5-3.9s2.3-1.6 3.7-1.3c-.3-10.4-.4-15.6-.4-15.6"/><path class="st8" d="M372.3 428.3c62 39.4 93 59.2 93 59.2-38.7 1.3-51.2 4.2-126.7 4.2-8.2 0-15.7-2.7-20.3-8-5.7-6.7-14.3-24.3-14.2-33.3.1-4.8 1.7-9.4 5-15.4 0 0 17.4-31.3 52.3-93.9 9.4-16.8 10.7-16.5 10.6 1.6l.3 85.6"/><path class="st9" d="M348.9 401.5c-3.2 5.9-2.6 13.2 1.5 18.5s10.9 7.8 17.5 6.3c0 0 .6-28.8 1.7-86.3-.1.1-7 20.5-20.7 61.5M317.9 432c65.1 11.8 101.5 28 109.5 48.6 0 0-26.1-1.3-78.3-4-2.7-6.7-8.2-12-15-14.4s-14.4-1.8-20.8 1.7c-6.9-10.4-5.3-21 4.6-31.9"/><path class="st11" d="M366.1 428.8c.7.2 1.1 1 .9 1.8-.2.7-1 1.1-1.8.9-8.6-2.9-17.7-2.3-25.5 1.1s-14.4 9.6-18.1 17.9c-.3.7-1.1 1-1.9.7-.7-.3-1-1.1-.7-1.9 4-9 11.1-15.7 19.6-19.3 8.4-3.7 18.2-4.3 27.5-1.2"/><path class="st14" d="M363.3 423.8c-1.2 11.7-4.8 23-10.6 33.2l-8.9-6.5c-4.3.5-8.7-.7-12.1-3.4-12.7-10.1-13.5-24.9-24.3-8.7-9-15.8 7.1-42.5 24.2-43.3 3.5-.2 6.9.6 10.1 2.1 12 5.4 16.3 15.6 21.6 26.6"/><path class="st15" d="M353.2 440.3c-.6 9.6-.4 14.3.5 14.1 0 0-3.2-2.2-9.6-6.7-4.2 1.4-9.2-.8-15-6.6-4.9-4.9-9.9-15.7-17.4-10.8 3.2-6.1 7.5-7 13-2.6 10.4 10 19.9 14.3 28.5 12.6"/><path class="st24" d="M350.6 462.6c-1.7-14.2 3-28.4 12.8-38.8l13.7.9c-6.1 12.6-10 26.5-11.2 41.2-5.3-1.1-10.4-2.2-15.3-3.3"/><path class="st8" d="M362 466.4c-1.8-15.5 3.3-31 14-42.5 0 0 35.5 2.4 106.6 7.2 15.4-32.9 23.7-60.1 36.5-80.4 4.2-6.7 9.2-12.4 15.7-16.3 12.4-7.3 27.6-7.5 39 3.4 8.3 7.9 10.8 17.8 10.2 28.3-1.5 23.9-33.5 91.1-48.2 110.2-11.1 14.4-22.4 16.1-42.3 14.4-43.7-3.5-91.3-15.8-131.5-24.3"/><path class="st9" d="M485 425.9c12.2-19.5 18.3-29.2 18.3-29.2 7.7-19.1 21.2-63 47.2-60.2 8 .9 15.2 6.1 18.1 15.3 3 9.6-.7 20-9.1 25.6-8.4 5.6-19.4 4.9-27.1-1.6l-24.7 56.9c-19.7 0-27.3-2.3-22.7-6.8"/><path class="st14" d="M481.2 431.1c4.3-.7 6.4-1 6.4-1 61.2-42.1-11.4-46.9-35-1 19 1.3 28.6 2 28.6 2"/><path class="st11" d="M482.5 432.6c-.8 0-1.4-.7-1.3-1.5 0-.8.7-1.4 1.5-1.3l23.6 1.5c.8 0 1.4.7 1.3 1.5 0 .8-.7 1.4-1.5 1.3l-23.6-1.5z"/><path class="st9" d="M368.1 461.8c39.3 10.9 77 18.8 113.1 23.7 35.8 4.3 43.4 1.2 60.2-26.2-5.4 8-13.9 13.8-24 15.3-16.5 2.5-32.5-6.9-38.4-22.6l-106.5-12.8c-3.2 7.2-4.7 14.9-4.4 22.6"/><path class="st8" d="M583.8 358.1c1.3 5.5-.4 15.4-4.9 29.7-9.2 26.5-21.5 52.9-36.8 79.2-8.4 2.7-17.5.1-23.3-6.5s-7-16.1-3.2-24 12-12.8 20.8-12.4c9.8-21.7 14.7-32.6 14.7-32.6 13.6-1.4 24.8-11.2 28.1-24.4 3.3-13.2-2-27.1-13.3-34.8 10 5.1 16.7 14.8 17.9 25.8"/><path d="M298.2 566.1c25.4 18.7 54.2 32.4 84.7 40.4C491.6 579.6 546 566.1 546 566.1H298.2" style="fill-rule:evenodd;clip-rule:evenodd;fill:#6b4003"/><path d="M613.6 549.9c-7.1 6.4-14.5 12.4-22.3 18H300.6c-7.8-5.6-15.2-11.6-22.3-18h335.3z" style="fill-rule:evenodd;clip-rule:evenodd;fill:#bd9c53"/><path class="st5" d="M140.2 94.5H381c1.9 0 3.5 1.6 3.5 3.5v132.8c0 1.9-1.6 3.5-3.5 3.5H140.2c-1.9 0-3.5-1.6-3.5-3.5V98c0-2 1.5-3.5 3.5-3.5"/><path class="st8" d="M137.2 89.7H384c.3 0 .5.2.5.5v19.6c0 .3-.2.5-.5.5H137.2c-.3 0-.5-.2-.5-.5V90.2c0-.3.2-.5.5-.5"/><path class="st24" d="M148.4 97.4c1.2 0 2.2 1 2.2 2.2s-1 2.2-2.2 2.2-2.2-1-2.2-2.2 1-2.2 2.2-2.2M158.8 97.4c1.2 0 2.2 1 2.2 2.2s-1 2.2-2.2 2.2-2.2-1-2.2-2.2.9-2.2 2.2-2.2M170.6 97.4c1.2 0 2.2 1 2.2 2.2s-1 2.2-2.2 2.2-2.2-1-2.2-2.2c0-1.2.9-2.2 2.2-2.2"/></g><defs><path id="SVGID_3_" d="M650 509.3c.6-.9 1.2-1.7 1.8-2.6.5-.8 1.1-1.6 1.6-2.4.7-1.1 1.5-2.2 2.2-3.3.4-.6.7-1.1 1.1-1.7l2.4-3.9.6-.9c17.6-29.1 29.4-62 33.9-97.3v-.2c.2-1.9.5-3.9.7-5.8 0-.3.1-.6.1-.9.2-1.8.3-3.6.5-5.4 0-.5.1-.9.1-1.4.1-1.7.2-3.3.3-5 0-.7.1-1.4.1-2.1.1-1.5.1-2.9.2-4.4 0-1.5.1-3.1.1-4.6v-2.1c0-138.3-112.1-250.4-250.4-250.4-14.9 0-29.5 1.3-43.7 3.8C382.6 56.4 324.7 11 256.2 11c-83.9 0-151.8 68-151.8 151.8 0 64.8 40.7 120.2 97.9 141.9-4.8 19.4-7.4 39.6-7.4 60.4 0 138.3 112.1 250.4 250.4 250.4 82.4 0 155.6-39.9 201.2-101.3.4-.5.8-1.1 1.2-1.6.7-1 1.5-2.1 2.3-3.3z"/></defs><clipPath id="SVGID_4_"><use xlink:href="#SVGID_3_" style="overflow:visible"/></clipPath><circle cx="260.6" cy="170.6" r="34" style="clip-path:url(#SVGID_4_);fill:none;stroke:#7703fc;stroke-width:3;stroke-miterlimit:10"/><defs><path id="SVGID_5_" d="M650 509.3c.6-.9 1.2-1.7 1.8-2.6.5-.8 1.1-1.6 1.6-2.4.7-1.1 1.5-2.2 2.2-3.3.4-.6.7-1.1 1.1-1.7l2.4-3.9.6-.9c17.6-29.1 29.4-62 33.9-97.3v-.2c.2-1.9.5-3.9.7-5.8 0-.3.1-.6.1-.9.2-1.8.3-3.6.5-5.4 0-.5.1-.9.1-1.4.1-1.7.2-3.3.3-5 0-.7.1-1.4.1-2.1.1-1.5.1-2.9.2-4.4 0-1.5.1-3.1.1-4.6v-2.1c0-138.3-112.1-250.4-250.4-250.4-14.9 0-29.5 1.3-43.7 3.8C382.6 56.4 324.7 11 256.2 11c-83.9 0-151.8 68-151.8 151.8 0 64.8 40.7 120.2 97.9 141.9-4.8 19.4-7.4 39.6-7.4 60.4 0 138.3 112.1 250.4 250.4 250.4 82.4 0 155.6-39.9 201.2-101.3.4-.5.8-1.1 1.2-1.6.7-1 1.5-2.1 2.3-3.3z"/></defs><clipPath id="SVGID_6_"><use xlink:href="#SVGID_5_" style="overflow:visible"/></clipPath><path style="clip-path:url(#SVGID_6_);fill:none;stroke:#7703fc;stroke-width:3;stroke-miterlimit:10" d="m247.2 170 12 7.6 14.8-16.2"/></svg>