<svg version="1.1" id="Layer_1" xmlns="http://www.w3.org/2000/svg" x="0" y="0" viewBox="0 0 938 527" style="enable-background:new 0 0 938 527" xml:space="preserve"><style>.st4{opacity:.42}.st4,.st5,.st6{fill-rule:evenodd;clip-rule:evenodd;fill:#fff}.st6{fill:#fffff7}.st10,.st11,.st12,.st14,.st7,.st8,.st9{fill-rule:evenodd;clip-rule:evenodd;fill:#abf7ff}.st10,.st11,.st12,.st14,.st8,.st9{fill:#7fddff}.st10,.st11,.st12,.st14,.st9{fill:#42c5e3}.st10,.st11,.st12,.st14{fill:#24abc9}.st11,.st12,.st14{fill:#0f88a3}.st12,.st14{fill:#005b70}.st14{fill:#008594}.st15{fill:#fff}.st19{fill:#b89378}.st24,.st46,.st47{fill-rule:evenodd;clip-rule:evenodd;fill:#ffbc6b}.st46,.st47{fill:#ff5b1f}.st47{fill:#d61200}.st64{fill:#4f290d}.st65{fill:#301603}.st66{fill:#4c0bb2}.st71{fill:#e34c00}.st85{fill:#db3a04}.st89{fill-rule:evenodd;clip-rule:evenodd;fill:#017a76}</style><path style="fill-rule:evenodd;clip-rule:evenodd;fill:#fffce3" d="M-.2-17.9H938v423.2H-.2z"/><defs><filter id="Adobe_OpacityMaskFilter" filterUnits="userSpaceOnUse" x="-.2" y="-17.9" width="938.2" height="423.2"><feColorMatrix values="1 0 0 0 0 0 1 0 0 0 0 0 1 0 0 0 0 0 1 0"/></filter></defs><mask maskUnits="userSpaceOnUse" x="-.2" y="-17.9" width="938.2" height="423.2" id="SVGID_1_"><g style="filter:url(#Adobe_OpacityMaskFilter)"><linearGradient id="SVGID_2_" gradientUnits="userSpaceOnUse" x1="340.711" y1="624.878" x2="333.764" y2="108.423" gradientTransform="translate(130.458 -263.335)"><stop offset="0" style="stop-color:#000"/><stop offset="1" style="stop-color:#fff"/></linearGradient><path style="fill:url(#SVGID_2_)" d="M-.2-17.9H938v423.2H-.2z"/></g></mask><path style="mask:url(#SVGID_1_);fill-rule:evenodd;clip-rule:evenodd;fill:#11d8db" d="M-.2-17.9H938v423.2H-.2z"/><path class="st4" d="M-.2 183.4H938V204H-.2zM-.2 159.5H938v10.2H-.2z"/><path class="st5" d="M549.7 59.4c-3.1-.3-6.1 1.4-7.4 4.2-1.4-5.8-6.3-10.2-12.3-10.9-5.9-.7-11.7 2.3-14.4 7.6 0-21.3-17-38.7-38.3-39.3-21.3-.5-38.9 16.1-39.6 37.4-2.5-8.1-10.5-13.1-18.8-11.8-8.3 1.3-14.3 8.6-14.1 17-3.3-2.9-7.6-4.2-11.9-3.8-4.3.5-8.2 2.7-10.8 6.2 0 0-8.5.6-25.6 1.7 145.6.5 218.4.7 218.4.7s-6.2-1.2-18.7-3.5c-.8-2.9-3.4-5.2-6.5-5.5zM685.2 121.4c-1.7-.2-3.2.7-4 2.2-.8-3.1-3.4-5.4-6.5-5.8-3.2-.4-6.2 1.2-7.6 4.1 0-11.3-9-20.6-20.3-20.8-11.3-.3-20.6 8.6-21 19.8-1.3-4.3-5.6-7-10-6.3-4.4.7-7.6 4.5-7.5 9-1.7-1.5-4-2.2-6.3-2-2.3.2-4.4 1.4-5.7 3.3 0 0-4.5.3-13.6.9 77.3.3 115.9.4 115.9.4l-9.9-1.8c-.4-1.7-1.8-2.9-3.5-3zM354.7 90.9c-1.8-.2-3.5.8-4.3 2.4-.8-3.4-3.7-5.9-7.1-6.3-3.4-.4-6.8 1.3-8.3 4.4 0-12.3-9.8-22.4-22.1-22.7-12.3-.3-22.5 9.3-22.9 21.6-1.4-4.7-6.1-7.6-10.9-6.8-4.8.8-8.3 5-8.1 9.8-1.9-1.7-4.4-2.4-6.9-2.2-2.5.3-4.8 1.6-6.2 3.6 0 0-4.9.3-14.8 1 84.1.3 126.2.4 126.2.4s-3.6-.7-10.8-2c-.5-1.8-2-3.1-3.8-3.2z"/><path class="st6" d="M914.9 133.6c-7.9 3.8-12.2 12.4-10.7 21-13.1-13.8-34.1-16.6-50.4-6.8-16.3 9.8-23.7 29.6-17.7 47.6-15.9-11.5-37.7-10.4-52.4 2.5-14.8 12.9-18.7 34.3-9.4 51.6-9.9-3.9-21.2-1.9-29.3 5-8.1 7-11.7 17.8-9.4 28.2-14.5-20.8-42.4-27.2-64.5-14.8-22.1 12.3-31.3 39.4-21.3 62.7-15.7-22.8-44.7-32.2-70.8-23.1-26.1 9.1-43 34.5-41.1 62.1-50.9 142.9 82.5 90.9 400.2-156v-75.4c-5.9-6.5-15.3-8.4-23.2-4.6zM358.9 307.5c-26.1-9.1-55.1.4-70.8 23.1 10-23.3.8-50.3-21.3-62.7-22.1-12.3-50-5.9-64.5 14.8 2.3-10.4-1.3-21.3-9.4-28.2-8.1-7-19.3-8.9-29.3-5 9.2-17.3 5.3-38.7-9.4-51.6-14.8-12.9-36.5-14-52.4-2.5 5.9-18.1-1.4-37.9-17.7-47.6-16.3-9.8-37.2-7-50.4 6.8 1.6-8.6-2.8-17.2-10.7-21-7.9-3.8-17.3-1.9-23.1 4.6v75.4c317.7 246.9 451.1 299 400.2 156 1.7-27.6-15.1-53-41.2-62.1z"/><path class="st7" d="M359.6 366.6c-14.9-12.4-36.9-10.8-50 3.5 3.8-18.7-5.5-37.5-22.6-45.8-17.1-8.3-37.7-3.9-50 10.6 6.9-15.9 2.2-34.5-11.5-45.1-13.7-10.6-32.9-10.6-46.6 0 .9-11-4.7-21.5-14.3-27-9.6-5.4-21.5-4.8-30.5 1.6 4.2-14.6-1.2-30.3-13.5-39.3-12.3-9-28.8-9.4-41.6-1.1 2.2-7.7.4-15.9-4.8-22s-13.1-9.1-21-8.1c2.5-14-2.9-28.2-14.1-37.1C27.9 148 12.8 146-.2 151.7V218C128 356.4 249.9 422.5 365.5 416.3c11.6-15.5 9-37.4-5.9-49.7zM898.7 156.8c-11.2 8.8-16.6 23.1-14.1 37.1-7.9-1-15.8 2-21 8.1-5.2 6.1-7 14.3-4.8 22-12.7-8.4-29.3-7.9-41.6 1.1s-17.6 24.7-13.5 39.3c-9-6.4-20.9-7-30.5-1.6-9.6 5.4-15.2 16-14.3 27-13.7-10.7-32.9-10.7-46.6 0-13.7 10.6-18.5 29.2-11.5 45.1-12.3-14.6-32.9-18.9-50-10.6-17.1 8.3-26.5 27.2-22.6 45.8-13.1-14.3-35.1-15.8-50-3.5-14.9 12.4-17.5 34.2-5.9 49.8 115.6 6.2 237.5-59.9 365.7-198.2v-66.3c-13-5.8-28.1-3.9-39.3 4.9z"/><path class="st8" d="M213.1 318.1c-13.1-5.9-28.5-2.7-38.1 8 9.5-16 5.4-36.7-9.6-47.7-15-11.1-36-8.9-48.4 5-.3-9.6-5.8-18.2-14.3-22.6-8.5-4.4-18.7-3.8-26.7 1.4 8.7-14.1 6.1-32.3-6.1-43.5-12.2-11.1-30.6-12-43.8-2 1.6-7.5-.6-15.2-5.8-20.8-5.2-5.6-12.8-8.2-20.4-7.1v61.6C73.5 353.9 151 387.8 232.5 351.9c1.6-14.2-6.3-27.9-19.4-33.8z"/><path class="st9" d="M245.4 345.6c-14.5-7.2-31-7.5-45.4-1.5v-362h-12.4v369.2c-1.8 1.4-3.5 2.9-5.2 4.5-.1-9.7-5.3-18.7-13.8-23.5-1.4-.8-3-1.5-4.5-2V-17.9h-17.8v348.3c-1.7.6-3.4 1.4-4.9 2.3 3.2-16-4.5-32.1-18.9-39.7-14.4-7.5-32.1-4.6-43.4 7.1 3.1-8.7.3-18.5-6.9-24.3-7.2-5.8-17.3-6.5-25.2-1.6 2.9-12.8-1.4-26.2-11.2-34.9-9.8-8.7-23.6-11.4-36-7.1v62.5l146.5 84.4v8.6h15l42.5 24.5 71.4-10.2c3.2-23.3-8.8-45.9-29.8-56.4z"/><path class="st10" d="M198.1 367.4c-14-6.9-30.7-5.4-43.1 4 1.2-9.7-3.3-19.2-11.5-24.5-8.3-5.2-18.8-5.2-27 0 4.8-13.4-.6-28.2-12.6-35.3V-17.9H77.8v327.4c-6.1 2.4-11.4 6.8-14.9 12.9.8-6.5-2-13-7.3-16.9-5.2-3.9-12.2-4.8-18.3-2.3.6-9.2-4-18-12-22.6-8-4.6-17.9-4.4-25.6.7v53.1C55.3 399 129 422.3 220.9 404.2c0-15.7-8.8-29.9-22.8-36.8z"/><path class="st11" d="M146.7 360.2c-20.2-7.1-42.5 2.5-51.2 22 2.7-7.6.5-16.1-5.7-21.4-6.1-5.3-14.9-6.3-22-2.5.7-9.7-4-18.7-11.9-23.8V-17.9H17.3v348.6c-.7-1-1.6-1.8-2.6-2.6-4.3-3.2-10.1-3.7-14.8-1.2v85.5s57.6-.9 172.9-2.8c5.4-20.8-5.9-42.3-26.1-49.4z"/><path class="st12" d="M94.9 379.4c-12.9-4.3-26.8 2.5-31.3 15.3 1.1-10.3-4.5-20.1-13.9-24.4-9.4-4.3-20.5-2.1-27.5 5.5-.5-5.1-3.4-9.7-7.7-12.5-4.3-2.8-9.7-3.4-14.6-1.8V406s36.9 1.5 110.7 4.6c4.2-13-2.8-26.9-15.7-31.2z"/><path class="st8" d="M917.9 199.8c-5.1 5.5-7.3 13.1-5.7 20.5-13-9.8-31.2-9-43.2 2-12.1 11-14.6 29-6 42.8-7.9-5.2-17.9-5.7-26.3-1.4-8.4 4.3-13.8 12.8-14.1 22.2-12.3-13.7-32.9-15.8-47.7-4.9-14.8 10.9-18.9 31.3-9.5 47-9.5-10.5-24.7-13.7-37.6-7.9-12.9 5.8-20.6 19.3-19.1 33.4 80.3 35.3 156.8 2 229.4-100.1v-60.7c-7.5-1-15 1.6-20.2 7.1z"/><path class="st9" d="M902.5 242.4c-9.7 8.6-13.9 21.8-11 34.4-7.8-4.8-17.7-4.1-24.9 1.6-7.1 5.7-9.8 15.3-6.8 24a36.005 36.005 0 0 0-42.8-7c-14.2 7.4-21.8 23.4-18.6 39.1-1.8-1.1-3.7-1.9-5.6-2.5V-17.9H775v350.5c-1.2.5-2.3 1-3.4 1.6-8.4 4.7-13.6 13.5-13.6 23.1-2-2-4.2-3.8-6.4-5.5V-17.9h-12.4v363.1c-13.8-5.2-29.4-4.7-43.2 2.1-20.7 10.3-32.5 32.7-29.4 55.6 47 6.7 70.4 10.1 70.4 10.1l43.8-25.3h12.1v-7L938 297.1v-61.6c-12.2-4.4-25.8-1.7-35.5 6.9z"/><path class="st10" d="M912.8 283.1c-7.9 4.6-12.4 13.2-11.8 22.3-6-2.5-12.8-1.6-18 2.3-5.2 3.9-7.9 10.2-7.1 16.7-3.4-5.9-8.5-10.2-14.5-12.6V-17.9h-25.9v331.8c-11.7 7.1-17 21.6-12.3 34.7-8.1-5.1-18.5-5.1-26.7 0-8.1 5.2-12.6 14.6-11.4 24.1-12.3-9.3-28.8-10.8-42.5-4-13.8 6.8-22.6 20.9-22.6 36.2 90.6 17.8 163.3-5.1 218.1-68.9v-52.3c-7.7-4.9-17.5-5.2-25.3-.6z"/><path class="st11" d="M923.4 330c-.6.4-1.1.9-1.5 1.4V-17.9h-38.5v354c-8.1 4.9-12.9 14-12.2 23.7-7.1-3.7-15.7-2.8-21.7 2.4-6 5.2-8.3 13.6-5.6 21.1-8.6-19.3-30.6-28.7-50.5-21.7s-31.1 28.2-25.7 48.6c113.7 1.8 170.5 2.8 170.5 2.8v-84.3c-4.9-2.4-10.6-1.9-14.8 1.3z"/><path class="st12" d="M923.6 364.7c-4.3 2.7-7.1 7.3-7.6 12.3-6.9-7.5-17.9-9.7-27.2-5.4-9.3 4.2-14.8 13.9-13.7 24.1-4.4-12.6-18.2-19.3-30.9-15.1-12.7 4.3-19.6 18-15.4 30.7l109.2-4.5V363c-4.8-1.7-10.1-1.1-14.4 1.7z"/><path d="M631.6 403s28.9-7.1 86.6-21.2c-4.4-12.8-11.7-24.4-21.1-34L624.8 394s21.8-19.1 65.5-57.4c-6.4-8.7-14.9-15.6-24.6-20.3 0 0-17.4 25-52.3 75.1l38.7-84.9c-16.5-8.8-35.2-12.6-53.8-10.8.3 64.1.5 96.1.5 96.1l-18.3-92.7c-8.5.4-16.8 2.9-24.3 7.1 20.4 57.5 30.6 86.2 30.6 86.2-30.7-50.7-46-76-46-76-10 4.8-18.8 11.9-25.5 20.8 43.6 41.3 65.4 62 65.4 62-47.3-31.5-71-47.3-71-47.3-4.7 6-8 12.9-9.9 20.2l73 31.1h-162l73-31.1c-1.9-7.4-5.3-14.2-9.9-20.2 0 0-23.7 15.8-71 47.3 0 0 21.8-20.7 65.4-62-6.7-8.8-15.5-16-25.5-20.8 0 0-15.3 25.3-46 76 0 0 10.2-28.7 30.6-86.2-7.4-4.2-15.7-6.6-24.3-7.1l-18.3 92.7s.2-32 .5-96.1c-18.6-1.8-37.3 2-53.8 10.8l38.7 84.9c-34.9-50.1-52.3-75.1-52.3-75.1-9.7 4.6-18.2 11.6-24.6 20.3 43.7 38.3 65.5 57.4 65.5 57.4l-72.3-46.2c-9.5 9.7-16.7 21.3-21.1 34C323 396 351.8 403 351.8 403l.1.2H-.2v55.4H938v-55.4H631.5l.1-.2z" style="fill-rule:evenodd;clip-rule:evenodd;fill:#0facba"/><path class="st14" d="M339.9 417.6c5.1 4.1 12 5.3 18.2 3.2 6.2-2.1 10.9-7.3 12.4-13.7 0 0 12.4-12.4 37.1-37.3-2.8-3.7-6.3-6.9-10.3-9.2 0 0-9.8 14.4-29.4 43.1l22.8-50.1c-5.8-3.5-12.4-5.5-19.2-5.9 0 0-2.9 17.9-8.6 53.6 0 0-.8-18.6-2.5-55.9-5.2-.7-10.4-.1-15.4 1.6 0 0 3.6 18.9 10.9 56.7 0 0-7.3-18.2-21.8-54.6-10.9 3.2-20.7 9.7-28 18.4l41.4 39.3c-31.3-20.4-46.9-30.6-46.9-30.6-4.5 4.9-7.6 10.8-9.3 17.1 33.5 11.7 50.3 17.5 50.3 17.5-34.4-6.4-51.5-9.6-51.5-9.6-3.1 7.6-4.6 15.9-4.2 24.1 36.1-5.1 54-7.7 54-7.7zM635 427.9c6.5 2.2 13.7 1 19-3.3 0 0 18.8 2.7 56.3 8.2.4-8.6-1-17.2-4.3-25.2 0 0-17.9 3.3-53.8 10l52.5-18.3c-1.7-6.7-5.1-12.8-9.7-17.9 0 0-16.3 10.6-49 31.9 0 0 14.4-13.7 43.2-41-7.6-9.2-17.8-15.9-29.2-19.3-15.2 38-22.7 57-22.7 57 7.6-39.5 11.4-59.2 11.4-59.2-5.1-1.8-10.6-2.3-16-1.6-1.7 38.9-2.6 58.3-2.6 58.3-6-37.3-9-56-9-56-7.1.4-14 2.6-20.1 6.2 15.9 34.9 23.8 52.4 23.8 52.4-20.4-30-30.7-45-30.7-45-4.2 2.4-7.8 5.7-10.7 9.6 25.8 26 38.7 38.9 38.7 38.9 1.6 6.6 6.5 12 12.9 14.3zM-.2 440.5H938v51.3H-.2z"/><path class="st15" d="M753.9 374.4c1.9.3 3.7-1.3 5-3.9 1.3-2.7 2.2-6.5 2.3-10.8.2-4.3-.3-8.3-1.2-11.3-.8-2.9-2-4.9-3.5-5.1-1.4-.2-2.9 1.4-4.2 4-1.3 2.7-2.5 6.4-3.1 10.7-.6 4.3-.4 8.2.4 11.2.9 3 2.4 4.9 4.3 5.2zM740.7 362.2c1.7-.1 3.3-1.8 4.2-4.5 1-2.6 1.4-6.3 1.2-10.2-.2-4-1-7.5-2.1-10-1-2.5-2.3-4.1-3.6-4-1.3.1-2.6 1.8-3.5 4.4-1 2.7-1.7 6.3-1.9 10.3-.2 4 .3 7.6 1.4 10.1 1 2.5 2.6 4 4.3 3.9zM723.3 350c1.1 2.4 2.7 3.8 4.3 3.7 1.6-.1 2.9-1.8 3.6-4.4.7-2.6.8-6 .3-9.8-.5-3.8-1.5-7.1-2.7-9.5-1.1-2.4-2.4-3.8-3.7-3.7-1.2.1-2.2 1.8-3 4.3-.7 2.6-1.1 6.1-1 9.9.4 3.7 1.1 7.1 2.2 9.5zM765.7 386.6c1.9.7 4.1-.4 6.1-2.8 1.9-2.4 3.6-6.1 4.7-10.4 1.1-4.4 1.4-8.5 1.1-11.8-.3-3.2-1.1-5.4-2.6-6-1.5-.5-3.4.7-5.3 3.1-2 2.4-4 6-5.5 10.2-1.5 4.2-2.2 8.3-1.9 11.5.4 3.2 1.5 5.5 3.4 6.2zM776.6 401.7c2 1 4.6 0 7.1-2.4s4.9-6.4 6.8-11.1c1.9-4.7 2.9-9.4 3.1-13 .2-3.6-.3-6.2-1.9-7-1.5-.8-3.8.4-6.3 2.8-2.5 2.5-5.3 6.2-7.6 10.7-2.3 4.5-3.7 9-3.9 12.6-.2 3.6.7 6.4 2.7 7.4zM706.5 345.2c2.3 2.1 4.7 3.6 6.7 4.3 2.1.7 3.9.6 4.8-.3.9-1 .8-2.7-.2-4.5-1-1.9-2.9-3.9-5.4-5.8-2.5-1.9-5-3.2-7.1-3.9-2.1-.7-3.7-.8-4.4-.1-.7.8-.4 2.3.6 4.1 1 1.9 2.8 4.1 5 6.2zM764.1 402.6c-3.5-.3-8 .4-12.9 2.1-4.8 1.7-9 4-11.9 6.2-2.9 2.2-4.5 4.3-4.1 6 .4 1.7 2.8 2.6 6.3 2.9 3.5.3 8.1 0 13.1-1.3 4.9-1.2 9.2-3.1 12.1-5.3 2.9-2.2 4.4-4.7 3.9-6.9-.6-2.1-3-3.4-6.5-3.7zM755.3 397.4c2.7-2 4-4.3 3.5-6.3s-2.7-3.2-5.9-3.5c-3.2-.3-7.4.4-11.8 2s-8.2 3.6-10.9 5.7c-2.6 2-4.1 4-3.7 5.5.4 1.5 2.5 2.4 5.7 2.7 3.2.3 7.5 0 12-1.2 4.5-1.1 8.5-2.9 11.1-4.9z"/><path class="st15" d="M725.5 354c-.5-.3-1.2-.2-1.5.3-.3.5-.2 1.2.3 1.5 22.8 15.5 41.5 35.8 54.9 59.1 13.4 23.3 21.7 49.6 23.6 77.1 0 .6.6 1.1 1.2 1 .6 0 1.1-.6 1-1.2-2-27.9-10.3-54.5-23.9-78.1-13.6-23.5-32.5-44-55.6-59.7zM710.7 363.1c3.6-.1 6.9-.8 9.3-2 2.4-1.1 3.8-2.7 3.7-4.2-.1-1.6-1.6-2.9-4-3.6-2.4-.7-5.7-.9-9.3-.4-3.6.5-6.9 1.5-9.2 2.6-2.3 1.1-3.8 2.4-3.7 3.6 0 1.2 1.6 2.2 4 3 2.3.7 5.6 1.2 9.2 1z"/><path class="st15" d="M732.3 371.8c2.3-1.6 3.6-3.5 3.2-5.2-.3-1.7-2.2-2.8-4.9-3.2-2.7-.3-6.3.1-10.1 1.2-3.8 1.2-7.1 2.8-9.5 4.4-2.3 1.6-3.6 3.2-3.4 4.5.3 1.3 2.1 2.1 4.8 2.5 2.7.3 6.4.2 10.2-.5 4-.8 7.4-2.1 9.7-3.7zM744.3 383.7c2.5-1.9 3.7-4 3.3-5.8-.4-1.8-2.5-3-5.5-3.2-3-.3-6.8.4-10.9 1.8-4.1 1.4-7.6 3.4-10.1 5.2-2.4 1.9-3.8 3.7-3.5 5.1.3 1.4 2.4 2.2 5.3 2.5 3 .3 6.9 0 11.1-1.1 4.2-1 7.8-2.6 10.3-4.5zM814.6 402c-1.5-1.1-3.7-2.1-6.4-2.7-2.6-.6-5.2-.8-7.1-.6-1.9.2-3.2.7-3.5 1.5-.3.9.5 2 2 3.1s3.7 2.3 6.2 3.2c2.6.9 5 1.2 6.9 1.1 1.9-.2 3.3-.9 3.7-2 .4-1.2-.3-2.5-1.8-3.6zM802 385.3c2 1.2 3.9 1.9 5.5 2.1 1.6.2 2.9-.1 3.4-1s.1-2.1-.9-3.2c-1-1.2-2.7-2.4-4.8-3.4-2.1-1-4.1-1.5-5.8-1.7-1.6-.2-2.8 0-3.2.6-.4.7.1 1.7 1.1 2.9 1.1 1.2 2.7 2.5 4.7 3.7zM809.1 409.5c-2.9-.7-5.6-.9-7.7-.7-2.1.2-3.5.7-3.8 1.6-.3.9.5 2.1 2.1 3.3 1.6 1.2 4 2.5 6.7 3.4 2.8.9 5.4 1.3 7.5 1.2 2.1-.2 3.6-.9 4-2.1.4-1.2-.4-2.6-2-3.8-1.5-1.1-4-2.2-6.8-2.9zM819.9 385.6c-1.4 2-2.4 4.1-2.7 5.8-.3 1.7 0 3 .9 3.5s2.3.2 3.7-.9c1.4-1.1 2.9-2.8 4.1-5 1.2-2.2 2-4.3 2.3-6 .3-1.7.2-2.9-.6-3.3-.7-.4-1.9.1-3.4 1.1-1.3 1-2.9 2.7-4.3 4.8zM807.9 378.9c.9 1.1 1.8 1.6 2.6 1.4.8-.2 1.3-1.1 1.4-2.5.1-1.3-.2-3.1-.9-4.9-.7-1.8-1.6-3.4-2.4-4.5-.9-1.1-1.7-1.7-2.3-1.5-.6.2-1 1.1-1.1 2.4-.1 1.3.1 3.1.6 5s1.3 3.6 2.1 4.6zM814.1 386c.9.5 2.1 0 3.4-1.1 1.2-1.1 2.5-2.9 3.5-5.1 1-2.2 1.6-4.3 1.8-5.9.2-1.7 0-2.8-.7-3.2-.7-.4-1.8.2-3 1.3s-2.6 2.8-3.9 4.9c-1.2 2.1-2 4.1-2.2 5.8-.1 1.6.2 2.9 1.1 3.3zM812.4 392.1c-1.3-1.1-3.4-2.1-5.8-2.8-2.4-.7-4.7-.9-6.5-.9-1.8.1-3 .5-3.3 1.3-.3.8.4 1.8 1.7 2.9 1.3 1.1 3.3 2.3 5.6 3.2 2.3.9 4.6 1.3 6.3 1.3 1.8-.1 3.1-.7 3.5-1.7.4-.9-.2-2.1-1.5-3.3zM827.3 416.8c1.8-.6 4-2 6-3.9s3.6-4 4.6-5.8c.9-1.8 1.3-3.2.7-4-.6-.8-2-.8-3.8-.2-1.8.6-4.1 1.8-6.3 3.5s-3.9 3.6-4.9 5.4c-.9 1.8-1.1 3.4-.4 4.4.7 1.1 2.2 1.3 4.1.6zM838.8 414.6c-2.2.5-4.9 1.5-7.6 3.1-2.7 1.6-5 3.5-6.3 5.4-1.3 1.8-1.8 3.6-1.1 4.8.7 1.2 2.4 1.6 4.6 1.1 2.1-.4 4.8-1.7 7.3-3.6 2.6-1.9 4.7-4 6-5.8 1.3-1.8 1.9-3.4 1.4-4.3-.6-1-2.2-1.1-4.3-.7zM814.6 430.6c2.3-.2 3.9-1 4.4-2.3.4-1.3-.4-2.8-2.1-4.2-1.7-1.3-4.4-2.5-7.5-3.2-3.1-.7-6.1-.9-8.4-.7-2.3.2-3.8.8-4.2 1.8-.3 1 .6 2.3 2.3 3.6 1.8 1.3 4.3 2.7 7.3 3.7 3.1 1.1 6 1.5 8.2 1.3zM829.8 400.5c1.5-2.2 2.6-4.5 3.2-6.4.6-1.8.6-3.3-.1-3.8-.7-.6-2-.3-3.6.7s-3.5 2.6-5.2 4.6c-1.7 2.1-3 4.2-3.6 6.1-.6 1.9-.4 3.4.5 4.2.9.8 2.4.6 4-.4 1.5-1 3.3-2.8 4.8-5z"/><path class="st15" d="M812 385.1c-.4.2-.5.6-.4.9 6.8 15.9 9.8 32.9 9 49.8-.8 16.9-5.3 33.5-13.6 48.7-.2.3-.1.8.3.9.3.2.8.1.9-.3 8.4-15.4 13-32.3 13.7-49.3.8-17.1-2.2-34.3-9.2-50.4 0-.3-.4-.5-.7-.3zM198.5 388.1c1.9 4.7 4.3 8.7 6.8 11.1 2.5 2.5 5.1 3.4 7.1 2.4s2.9-3.8 2.7-7.4c-.2-3.6-1.6-8.1-3.9-12.6s-5.1-8.3-7.6-10.7c-2.5-2.4-4.8-3.6-6.3-2.8-1.5.8-2.1 3.4-1.9 7 .3 3.6 1.3 8.3 3.1 13zM217.1 383.8c2 2.4 4.2 3.5 6.1 2.8 1.9-.7 3.1-3.1 3.3-6.3.3-3.2-.4-7.3-1.9-11.5s-3.5-7.8-5.5-10.2c-1.9-2.4-3.8-3.6-5.3-3.1s-2.3 2.8-2.6 6c-.3 3.2 0 7.4 1.1 11.8 1.2 4.4 2.9 8.1 4.8 10.5zM230.1 370.5c1.3 2.7 3.1 4.2 5 3.9 1.9-.3 3.4-2.2 4.2-5.2.8-2.9 1-6.9.4-11.2-.6-4.3-1.7-8-3.1-10.7-1.3-2.7-2.8-4.2-4.2-4-1.4.2-2.6 2.1-3.5 5.1-.8 3-1.3 7-1.2 11.3.2 4.3 1.1 8.1 2.4 10.8zM248.3 362.2c1.7.1 3.3-1.4 4.3-4 1-2.5 1.5-6.1 1.4-10.1-.2-4-.9-7.6-1.9-10.3-1-2.6-2.2-4.3-3.5-4.4-1.3-.1-2.6 1.5-3.6 4s-1.8 6.1-2.1 10c-.2 4 .2 7.6 1.2 10.2.9 2.8 2.5 4.5 4.2 4.6zM275.7 349.5c2.1-.7 4.5-2.3 6.7-4.3 2.3-2.1 4-4.3 5-6.2 1-1.9 1.3-3.4.6-4.1-.7-.8-2.3-.7-4.4.1-2.1.7-4.6 2.1-7.1 3.9-2.5 1.9-4.4 3.9-5.4 5.8s-1.2 3.6-.2 4.5c1 1 2.7 1 4.8.3zM261.3 353.7c1.6.1 3.2-1.3 4.3-3.7 1.1-2.4 1.9-5.8 2-9.6.1-3.8-.3-7.3-1-9.9-.7-2.6-1.7-4.2-3-4.3-1.2-.1-2.5 1.3-3.7 3.7-1.1 2.4-2.2 5.8-2.7 9.5-.5 3.8-.4 7.3.3 9.8.9 2.7 2.2 4.4 3.8 4.5zM258.7 395.3c-2.6-2-6.5-4.1-10.9-5.7-4.4-1.6-8.6-2.2-11.8-2-3.2.3-5.4 1.5-5.9 3.5s.9 4.3 3.5 6.3 6.6 3.8 11.1 4.9c4.5 1.1 8.8 1.4 12 1.2 3.2-.3 5.4-1.1 5.7-2.7.4-1.5-1-3.5-3.7-5.5zM287.8 355.6c-2.4-1.1-5.6-2.1-9.2-2.6-3.6-.5-6.9-.3-9.3.4-2.4.7-3.9 2-4 3.6-.1 1.6 1.4 3.1 3.7 4.2 2.3 1.1 5.6 1.8 9.3 2 3.6.1 6.9-.3 9.4-1 2.4-.7 3.9-1.7 4-3-.1-1.3-1.5-2.5-3.9-3.6zM277.9 369.1c-2.3-1.6-5.7-3.3-9.5-4.4-3.8-1.2-7.4-1.6-10.1-1.2-2.7.3-4.6 1.5-4.9 3.2-.3 1.7.9 3.6 3.2 5.2 2.3 1.6 5.7 3 9.6 3.7 3.9.8 7.5.9 10.2.5 2.7-.3 4.5-1.2 4.8-2.5.3-1.3-1-2.9-3.3-4.5zM267.9 381.8c-2.5-1.9-6-3.8-10.1-5.2-4.1-1.4-8-2.1-10.9-1.8-3 .3-5 1.4-5.5 3.2-.4 1.8.8 3.9 3.3 5.8 2.4 1.9 6.1 3.5 10.2 4.5 4.2 1 8.1 1.3 11.1 1.1 3-.3 5-1.1 5.3-2.5.4-1.5-1-3.3-3.4-5.1zM249.6 410.9c-2.9-2.2-7.1-4.5-11.9-6.2-4.8-1.7-9.4-2.4-12.9-2.1-3.5.3-5.9 1.6-6.5 3.8-.5 2.1 1 4.7 3.9 6.9s7.2 4.1 12.1 5.3c4.9 1.2 9.6 1.6 13.1 1.3 3.5-.3 5.8-1.2 6.3-2.9.4-1.8-1.2-3.9-4.1-6.1z"/><path class="st15" d="M264.7 355.8c.5-.3.6-1 .3-1.5s-1-.6-1.5-.3c-23.1 15.7-42 36.2-55.6 59.8a182.35 182.35 0 0 0-23.9 78.1c0 .6.4 1.1 1 1.2.6 0 1.1-.4 1.2-1 2-27.5 10.2-53.8 23.6-77.1 13.4-23.4 32.1-43.7 54.9-59.2zM168.5 401.6c-.6-1.8-1.8-4-3.6-6.1-1.7-2.1-3.6-3.7-5.2-4.6-1.6-1-2.9-1.3-3.6-.7-.7.6-.7 2-.1 3.8.6 1.9 1.6 4.1 3.2 6.4 1.5 2.2 3.3 4 4.9 4.9 1.6 1 3.1 1.1 4 .4.8-.7.9-2.2.4-4.1zM157.8 417.7c-2.7-1.6-5.5-2.7-7.6-3.1-2.1-.4-3.7-.3-4.3.6-.5.9 0 2.5 1.4 4.3 1.3 1.8 3.4 4 6 5.8 2.6 1.9 5.2 3.1 7.3 3.6 2.2.5 3.9.1 4.6-1.1.7-1.2.3-3-1.1-4.8-1.3-1.8-3.5-3.7-6.3-5.3zM160.6 406.4c-2.2-1.7-4.5-2.9-6.3-3.5-1.8-.6-3.2-.6-3.8.2-.6.8-.3 2.3.7 4 .9 1.8 2.5 3.9 4.6 5.8 2 1.9 4.2 3.3 6 3.9 1.8.6 3.4.4 4.2-.6.8-1 .6-2.7-.4-4.4-1-1.7-2.8-3.7-5-5.4zM163 389c1.2 2.2 2.7 3.9 4.1 5 1.4 1.1 2.8 1.5 3.7.9.9-.5 1.3-1.9.9-3.5-.3-1.7-1.3-3.7-2.7-5.8-1.4-2-3-3.7-4.5-4.8-1.4-1.1-2.6-1.6-3.4-1.1-.7.4-.9 1.6-.6 3.3.5 1.7 1.3 3.8 2.5 6zM178.4 380.4c.8.2 1.8-.3 2.6-1.4.9-1.1 1.6-2.7 2.1-4.6.5-1.9.6-3.6.6-5-.1-1.3-.4-2.2-1.1-2.4-.6-.2-1.4.4-2.3 1.5-.9 1.1-1.7 2.7-2.4 4.5-.7 1.8-1 3.6-.9 4.9.1 1.3.6 2.3 1.4 2.5zM168 379.9c1 2.2 2.3 4 3.5 5.1 1.2 1.1 2.5 1.6 3.4 1.1.9-.5 1.2-1.7 1-3.4-.2-1.7-1-3.7-2.2-5.8-1.2-2.1-2.6-3.8-3.9-4.9-1.2-1.1-2.3-1.6-3-1.3-.7.4-.9 1.6-.7 3.2.3 1.7.9 3.8 1.9 6zM189.5 378c-1.6.2-3.7.8-5.8 1.7-2.1 1-3.8 2.2-4.8 3.4-1 1.2-1.4 2.4-.9 3.2.5.9 1.8 1.2 3.4 1 1.6-.2 3.6-.9 5.5-2.1 2-1.2 3.6-2.5 4.6-3.7 1-1.2 1.5-2.2 1.1-2.9-.3-.6-1.5-.8-3.1-.6zM168.3 435.8c-.8-16.9 2.2-33.9 9-49.8.2-.4 0-.8-.4-.9-.4-.2-.8 0-.9.4-6.9 16.1-9.9 33.3-9.2 50.4.8 17.1 5.4 33.9 13.7 49.3.2.3.6.5.9.3.3-.2.5-.6.3-.9-8.1-15.3-12.6-32-13.4-48.8z"/><path class="st15" d="M192.1 389.8c-.3-.8-1.5-1.2-3.3-1.3-1.8-.1-4.1.2-6.5.9-2.4.7-4.4 1.7-5.8 2.8-1.3 1.1-1.9 2.3-1.5 3.3.4 1 1.7 1.6 3.5 1.7 1.8.1 4-.4 6.3-1.3s4.3-2.1 5.6-3.2c1.4-1.1 2-2.1 1.7-2.9zM188 420.2c-2.3-.2-5.2 0-8.4.7-3.1.7-5.8 1.9-7.5 3.2-1.8 1.3-2.6 2.9-2.1 4.2.4 1.3 2.1 2.1 4.4 2.3 2.3.2 5.2-.3 8.2-1.3 3-1 5.6-2.4 7.3-3.7 1.7-1.3 2.7-2.6 2.3-3.6-.4-1-1.9-1.6-4.2-1.8zM171 416.3c.4 1.2 1.9 2 4 2.1 2.1.2 4.7-.2 7.5-1.2 2.8-.9 5.1-2.2 6.7-3.4 1.6-1.2 2.4-2.4 2.1-3.3-.3-.9-1.8-1.5-3.8-1.6-2.1-.2-4.8 0-7.7.7-2.9.7-5.3 1.7-6.9 2.9-1.5 1.2-2.3 2.6-1.9 3.8zM176.2 407.5c1.9.2 4.4-.2 6.9-1.1 2.6-.9 4.7-2 6.2-3.2 1.5-1.1 2.3-2.2 2-3.1-.3-.9-1.6-1.4-3.5-1.5-1.9-.2-4.4 0-7.1.6-2.6.6-4.9 1.6-6.4 2.7s-2.2 2.4-1.8 3.5c.4 1.2 1.8 1.9 3.7 2.1z"/><path d="M888.1 479.2c-1.8-6.5-5-12.5-9.5-17.7L846 479.6h-1.4l31-23.9c-2.9-4.5-6.9-8.3-11.6-10.9l-27.6 34.8h-.3l21.4-40.1c-7.9-4.9-17.1-7.4-26.5-7.1l-2.7 47.2h-.2l-6.1-46c-4.3 0-8.5.9-12.3 2.8l12.3 43.3h-.2L801.6 441c-5.2 2.1-9.7 5.4-13.4 9.6l27.1 29.1h-1.5l-28.8-22c-2.5 2.8-4.4 6.2-5.6 9.8l24.1 12.1h-27.7c-1.2-7.1-3.5-13.9-7-20.2 0 0-18.9 5.8-56.8 17.3 0 0 18.1-8.7 54.4-26-2.7-7-7-13.2-12.6-18.1 0 0-16.3 13.4-48.9 40.3 0 0 13.9-16.5 41.6-49.4-9.3-9-21.1-15-33.8-17.2-11.8 42.7-17.6 64.1-17.6 64.1 3.4-43.4 5.1-65.2 5.1-65.2-5.8-1.3-11.7-1.2-17.5.2 2.8 42.1 4.2 63.2 4.2 63.2-11-39.5-16.4-59.3-16.4-59.3-7.6 1.3-14.7 4.4-20.9 9.1 21.3 35.7 32 53.5 32 53.5-25.6-29.8-38.5-44.8-38.5-44.8-4.2 3.1-7.8 7.1-10.4 11.6 30.9 24.9 46.4 37.3 46.4 37.3.5 1.3 1 2.5 1.7 3.6H290.6c3.4-2.9 5.9-6.9 6.9-11.4 0 0 14-14.1 42-42.2-3.1-4.2-7.1-7.8-11.6-10.4 0 0-11.1 16.3-33.3 48.8 0 0 8.6-18.9 25.8-56.8-6.6-3.9-14.1-6.2-21.7-6.7 0 0-3.3 20.2-9.8 60.7 0 0-.9-21.1-2.8-63.2-5.9-.8-11.8-.2-17.4 1.8l12.3 64.2s-8.2-20.6-24.7-61.8c-12.4 3.7-23.4 10.9-31.7 20.9 31.2 29.6 46.9 44.4 46.9 44.4-35.4-23.1-53.1-34.6-53.1-34.6-5 5.5-8.7 12.2-10.5 19.4l57 19.8c-38.9-7.2-58.4-10.9-58.4-10.9-2.4 5.8-3.9 11.8-4.5 18h-31.6l24.1-12.1c-1.2-3.6-3.1-6.9-5.6-9.8l-28.8 21.9h-1.5l27.1-29.1c-3.6-4.2-8.2-7.5-13.4-9.6l-20.2 38.7h-.1l12.3-43.3c-3.8-1.9-8.1-2.8-12.3-2.8l-6.1 46h-.2l-2.7-47.2c-9.3-.3-18.5 2.1-26.5 7.1l21.4 40.1h-.3L110 444.8c-4.7 2.6-8.7 6.4-11.6 10.9l31 23.9H128l-32.6-18.1c-4.4 5.1-7.7 11.1-9.5 17.7l2.2.4H-.2V527H938v-47.4h-52.1l2.2-.4z" style="fill-rule:evenodd;clip-rule:evenodd;fill:#005869"/><ellipse cx="480.1" cy="492.3" rx="269.5" ry="15.1" style="fill-rule:evenodd;clip-rule:evenodd;fill:#00313b"/><path d="M686.2 425.7c-13.4-8.2-108.6-18.8-123.8-19.9-46.3-4.5-77.2.7-77.2.7l-3.4 6-1.1-6s-27.4-8.3-73.6-3.8c-15.3 1.1-114 14.8-127.4 22.9-16 9.7-22 33.3-4.8 46.8 4.6 3.7 10.5 6.6 16.5 9.1 35.6 15 64.3 18.5 105.3 16.3L430 496l52.9-6.7 52.9 6.7 33.3 1.8c41 2.2 69.7-1.3 105.3-16.3 6.1-2.6 11.9-5.5 16.5-9.1 17.3-13.4 11.3-37-4.7-46.7z" style="fill-rule:evenodd;clip-rule:evenodd;fill:#f7ede6"/><path class="st19" d="M581.6 423.5c-16.5 2.6-32.3 7.8-46.9 15.3-14.6 7.5-28.1 17.4-39.7 29.2-.4.4-.4 1.1 0 1.6.4.4 1.1.4 1.6 0 11.5-11.7 24.8-21.4 39.2-28.8 14.4-7.4 30-12.5 46.2-15.1.6-.1 1-.7.9-1.3-.1-.6-.7-1-1.3-.9zM557 418.8c-8.7 4.9-17.7 9.2-27 12.6-9.3 3.4-18.9 6.1-28.7 8-.6.1-1 .7-.9 1.3.1.6.7 1 1.3.9 9.9-1.9 19.6-4.6 29.1-8.1 9.4-3.5 18.6-7.7 27.4-12.8.5-.3.7-1 .4-1.5-.4-.5-1.1-.7-1.6-.4zM441.6 463.4l-39.1-8.2c-9-8.2-20-13.3-31.5-15.1-11.5-1.8-23.5-.3-34.5 4.8l-18.4-6.2c-.6-.2-1.2.1-1.4.7-.2.6.1 1.2.7 1.4l18.8 6.4c.3.1.6.1.8 0 10.7-5 22.4-6.5 33.6-4.8 11.2 1.7 21.8 6.7 30.5 14.7.1.2.3.3.6.3l39.4 8.3c.6.1 1.2-.3 1.3-.9.1-.7-.2-1.3-.8-1.4zM433.1 438.8c-14.6-7.5-30.4-12.7-46.9-15.3-.6-.1-1.2.3-1.3.9-.1.6.3 1.2.9 1.3 16.2 2.6 31.8 7.7 46.2 15.1 14.4 7.4 27.7 17.1 39.2 28.8.4.4 1.1.4 1.6 0 .4-.4.4-1.1 0-1.6-11.6-11.9-25.1-21.7-39.7-29.2zM466.6 439.4c-9.8-1.9-19.4-4.6-28.7-8-9.3-3.4-18.4-7.7-27-12.6-.5-.3-1.2-.1-1.5.4-.3.5-.1 1.2.4 1.5 8.8 5 17.9 9.3 27.4 12.8 9.4 3.5 19.2 6.2 29.1 8.1.6.1 1.2-.3 1.3-.9 0-.6-.4-1.2-1-1.3z"/><defs><filter id="Adobe_OpacityMaskFilter_1_" filterUnits="userSpaceOnUse" x="537.2" y="405.8" width="164.2" height="67.8"><feColorMatrix values="1 0 0 0 0 0 1 0 0 0 0 0 1 0 0 0 0 0 1 0"/></filter></defs><mask maskUnits="userSpaceOnUse" x="537.2" y="405.8" width="164.2" height="67.8" id="SVGID_3_"><g style="filter:url(#Adobe_OpacityMaskFilter_1_)"><linearGradient id="SVGID_4_" gradientUnits="userSpaceOnUse" x1="-79.654" y1="689.306" x2="-9.477" y2="568.26" gradientTransform="translate(667.29 -195.016)"><stop offset="0" style="stop-color:#000"/><stop offset="1" style="stop-color:#fff"/></linearGradient><path style="fill:url(#SVGID_4_)" d="M537.2 405.8h164.2v67.8H537.2z"/></g></mask><path d="M685.2 425.1c-2-.9-4-1.6-6-2.2-3.4-1-6.9-1.8-10.5-2.6-18-3.5-35.8-6.4-53.4-8.6-14.8-2-32.4-4-52.9-6 0 0-8.4 1.6-25.2 4.9 27.6-.8 54.2 10.5 72.8 31 5.9-1 12.8.4 20.9 4.2 13.5-4.4 20.3-6.6 20.3-6.6 10.1-6.9 23.6-6 32.6 2.2 9.1 8.1 11.4 21.4 5.7 32.2 3.5-2.6 6.2-5.3 7.9-8.1 2.3-3.6 3.6-7.5 3.9-11.9.2-5-.7-9.8-2.8-14.2-2.9-6.1-7.3-10.8-13.3-14.3z" style="mask:url(#SVGID_3_);fill-rule:evenodd;clip-rule:evenodd;fill:#fff"/><path class="st19" d="m649.8 438.6-18.4 6.2c-11-5-23-6.6-34.5-4.8-11.5 1.8-22.5 6.9-31.5 15.1l-39.1 8.2c-.6.1-1 .7-.9 1.3.1.6.7 1 1.3.9l39.4-8.3c.2 0 .4-.2.6-.3 8.7-8 19.3-13 30.5-14.7 11.2-1.7 22.9-.2 33.6 4.8.3.1.6.1.8 0l18.8-6.4c.6-.2.9-.8.7-1.4-.1-.5-.8-.8-1.3-.6z"/><path d="M576.7 224c-4.2-3.7-9.4-6.8-16.7-9.5-10.6-3.9-25.9-6.5-33.6-8.7l-5.6-.7c-3.7-.3-7.2-.3-10.5.1l-24.5.2-45.1.6c-8.4 2.9-18.5 4.5-29.1 8.5-7.2 2.7-12.5 5.8-16.7 9.5-10.2 8.9-28.2 47.3-36.5 62 12.2 9.3 24.9 17.1 38.1 22.6 7.1-8.5 10.3-12.5 10.3-12 7.4 61.7.2 106.2.2 106.2 50.5 14.1 106.5 14.8 155.3 3.1 0 0-5.3-41.8 2.5-109.3 0 0 3.4 5.2 10.3 12 13.2-5.5 25.9-13.3 38.1-22.6-8.2-14.7-26.3-53.1-36.5-62z" style="fill-rule:evenodd;clip-rule:evenodd;fill:#7703fc"/><path class="st24" d="M726.9 419.1c-7.1-4.8-10.6-7.2-10.6-7.2-4-1.6-6.1-2.4-6.1-2.4 1.5-3.2 4.4-9.3.5-11.5-.4-.2-.9-.5-1.5-.7 1.8-1 2.8-2.9 2.7-5 0-.8-.1-1.9-.3-3-.7-4.1-3.7-5.1-7.4-5.3-9-.6-19.6-.4-28.7-.6-10.3-17.9-28-56.6-40.5-69.4-3.4-3.4-7.5-7.1-12.5-10.9 0 0-3.1-5.7-9.3-17.2-16.4-1.9-32 7.3-38.1 22.6l11.1 12.9c.5 1.1.9 7 4.3 11.2 18.5 22.8 43.1 48.2 64.9 66.7 12.9 11.9 19.3 17.9 19.3 17.9 2.1 1.7 6 2.9 11.8 3.7 15.6 4.9 23.4 7.4 23.4 7.4.9.3 2 .1 2.8-.5.8-.6 1.3-1.5 1.3-2.5 2.7 1.1 4.1 1.7 4.1 1.7 1.1.5 2.5.3 3.4-.5.9-.9 1.2-2.2.8-3.4 1.2.5 1.8.8 1.8.8 1.3.7 3 .2 3.7-1.1.8-1.3.4-2.8-.9-3.7zM358.5 286c-6.2 11.5-9.3 17.2-9.3 17.2-5 3.8-9.1 7.4-12.5 10.9-12.5 12.8-30.3 51.5-40.5 69.4-9.1.2-19.7 0-28.7.6-3.7.2-6.6 1.3-7.4 5.3-.2 1.1-.3 2.2-.3 3-.1 2 1 3.9 2.7 5-.6.2-1.1.4-1.5.7-3.9 2.3-.9 8.4.5 11.5 0 0-2 .8-6.1 2.4 0 0-3.5 2.4-10.6 7.2-1.3.9-1.7 2.4-.9 3.7.7 1.3 2.4 1.8 3.7 1.1 0 0 .6-.3 1.8-.8-.5 1.2-.1 2.5.8 3.4.9.9 2.3 1.1 3.4.5 0 0 1.4-.6 4.1-1.7 0 1 .5 1.9 1.3 2.5.8.6 1.8.8 2.8.5 0 0 7.8-2.5 23.4-7.4 5.8-.8 9.7-2.1 11.8-3.7 0 0 6.4-6 19.3-17.9 21.8-18.5 45.8-45.9 64.3-68.7 3.4-4.2 4.5-8.1 4.9-9.2l11.1-12.9c-6.2-15.3-21.8-24.6-38.1-22.6z"/><defs><filter id="Adobe_OpacityMaskFilter_2_" filterUnits="userSpaceOnUse" x="559.6" y="230.1" width="34.8" height="73.6"><feColorMatrix values="1 0 0 0 0 0 1 0 0 0 0 0 1 0 0 0 0 0 1 0"/></filter></defs><mask maskUnits="userSpaceOnUse" x="559.6" y="230.1" width="34.8" height="73.6" id="SVGID_5_"><g style="filter:url(#Adobe_OpacityMaskFilter_2_)"><linearGradient id="SVGID_6_" gradientUnits="userSpaceOnUse" x1="-75.804" y1="649.393" x2="-131.458" y2="622.667" gradientTransform="translate(689.72 -364.74)"><stop offset="0" style="stop-color:#000"/><stop offset="1" style="stop-color:#fff"/></linearGradient><path style="fill:url(#SVGID_6_)" d="M559.6 230.1h34.8v73.6h-34.8z"/></g></mask><path d="M571.5 230.1c-1 16-5 29.2-11.9 39.4 0 0 1.4 7.6 4.2 22.7 0 0 3.3 3.9 9.9 11.6 3.5-8.6 10.4-14.6 20.7-18.2-17.2-9.2-24.8-27.6-22.9-55.5z" style="mask:url(#SVGID_5_);fill-rule:evenodd;clip-rule:evenodd;fill:#4c0bb2"/><defs><filter id="Adobe_OpacityMaskFilter_3_" filterUnits="userSpaceOnUse" x="498.6" y="205.9" width="108.5" height="183.2"><feColorMatrix values="1 0 0 0 0 0 1 0 0 0 0 0 1 0 0 0 0 0 1 0"/></filter></defs><mask maskUnits="userSpaceOnUse" x="498.6" y="205.9" width="108.5" height="183.2" id="SVGID_7_"><g style="filter:url(#Adobe_OpacityMaskFilter_3_)"><linearGradient id="SVGID_8_" gradientUnits="userSpaceOnUse" x1="-203.731" y1="611.246" x2="-10.996" y2="559.557" gradientTransform="translate(628.713 -279.47)"><stop offset="0" style="stop-color:#000"/><stop offset="1" style="stop-color:#fff"/></linearGradient><path style="fill:url(#SVGID_8_)" d="M498.6 205.9h108.5v183.2H498.6z"/></g></mask><path d="M578.7 226c-4-4.2-9.4-7.7-16.2-10.5-5.5-2.2-12.2-4.2-19.9-5.9-5.8-1.3-11.2-2.5-16.2-3.8-2.1.3-3.6 2.2-4.5 5.7 68.4 59.8-51.4 85.6-17.1 150 10.8 20.3 33.7 31 56.2 26.4-1.1-29.3.1-59.3 3.6-90-.8 1-2.5-8.5-5.1-28.5 5.8-8.7 9.7-19.6 11.6-32.7 1.4 19.5 16.5 35.2 35.8 37.5-3.6-7-6.8-13-9.4-17.9-8.9-16.6-15.2-26.7-18.8-30.3z" style="mask:url(#SVGID_7_);fill-rule:evenodd;clip-rule:evenodd;fill:#a671f4"/><defs><filter id="Adobe_OpacityMaskFilter_4_" filterUnits="userSpaceOnUse" x="382" y="235" width="29.4" height="68.2"><feColorMatrix values="1 0 0 0 0 0 1 0 0 0 0 0 1 0 0 0 0 0 1 0"/></filter></defs><mask maskUnits="userSpaceOnUse" x="382" y="235" width="29.4" height="68.2" id="SVGID_9_"><g style="filter:url(#Adobe_OpacityMaskFilter_4_)"><linearGradient id="SVGID_10_" gradientUnits="userSpaceOnUse" x1="-151.31" y1="641.334" x2="-97.448" y2="630.844" gradientTransform="translate(512.27 -365.273)"><stop offset="0" style="stop-color:#000"/><stop offset="1" style="stop-color:#fff"/></linearGradient><path style="fill:url(#SVGID_10_)" d="M382 235h29.4v68.2H382z"/></g></mask><path d="M382 287.6c6.2 2.9 11.4 8.1 15.8 15.6l9.3-11.4c2.8-14.9 4.2-22.3 4.2-22.3-7.1-8.9-11.4-20.4-13-34.5 2.3 19.1-3.6 38.2-16.3 52.6z" style="mask:url(#SVGID_9_);fill-rule:evenodd;clip-rule:evenodd;fill:#4c0bb2"/><defs><filter id="Adobe_OpacityMaskFilter_5_" filterUnits="userSpaceOnUse" x="506.3" y="407.9" width="13.4" height=".9"><feColorMatrix values="1 0 0 0 0 0 1 0 0 0 0 0 1 0 0 0 0 0 1 0"/></filter></defs><mask maskUnits="userSpaceOnUse" x="506.3" y="407.9" width="13.4" height=".9" id="SVGID_11_"><g style="filter:url(#Adobe_OpacityMaskFilter_5_)"><linearGradient id="SVGID_12_" gradientUnits="userSpaceOnUse" x1="-19.308" y1="458.679" x2="-115.05" y2="653.675" gradientTransform="translate(535.887 -259.563)"><stop offset="0" style="stop-color:#000"/><stop offset="1" style="stop-color:#fff"/></linearGradient><path style="fill:url(#SVGID_12_)" d="M405.6 208.8h114V409h-114z"/></g></mask><path d="M519.7 407.9c-4.5.4-8.9.6-13.4.8 4.4.2 8.9-.1 13.4-.8z" style="mask:url(#SVGID_11_);fill-rule:evenodd;clip-rule:evenodd;fill:#4c0bb2"/><defs><filter id="Adobe_OpacityMaskFilter_6_" filterUnits="userSpaceOnUse" x="405.6" y="208.8" width="100.7" height="200.2"><feColorMatrix values="1 0 0 0 0 0 1 0 0 0 0 0 1 0 0 0 0 0 1 0"/></filter></defs><mask maskUnits="userSpaceOnUse" x="405.6" y="208.8" width="100.7" height="200.2" id="SVGID_13_"><g style="filter:url(#Adobe_OpacityMaskFilter_6_)"><linearGradient id="SVGID_14_" gradientUnits="userSpaceOnUse" x1="-19.308" y1="458.679" x2="-115.05" y2="653.675" gradientTransform="translate(535.887 -259.563)"><stop offset="0" style="stop-color:#000"/><stop offset="1" style="stop-color:#fff"/></linearGradient><path style="fill:url(#SVGID_14_)" d="M405.6 208.8h114V409h-114z"/></g></mask><path d="M442.8 314.1c3.4-8.9 7.9-17.3 12.2-25 13.5-23.9 23.7-47-12.3-80.2-10.5 2.5-18.8 5.3-24.8 8.4-5.4 2.8-8.6 5.3-10.4 8.2-5.7 9.8 2.4 32.2 8.9 40.3-3.4 22.3-5.1 33.4-5.1 33.4 4.1 38 4.4 71.4 1.1 99.9 31.5 7.7 62.8 10.9 93.9 9.7-46-1.4-81.7-46.8-63.5-94.7z" style="mask:url(#SVGID_13_);fill-rule:evenodd;clip-rule:evenodd;fill:#4c0bb2"/><path class="st15" d="M541.8 247.2c-.5-.5-1.1-.9-1.7-1.2-.6-.3-1.3-.4-2-.4s-1.4.1-2 .4c-.6.3-1.2.6-1.7 1.2L513 268.6c-.1.1-.3.3-.4.5-.1.1-.1.2-.2.3-.1-.1-.1-.2-.2-.3-.1-.2-.3-.3-.4-.5l-21.4-21.4c-.5-.5-1.1-.9-1.7-1.2-.7-.3-1.4-.4-2-.4-.7 0-1.4.1-2 .4-.6.3-1.2.6-1.7 1.2l-21.4 21.4c-.1.1-.3.3-.4.5-.1.1-.1.2-.2.3-.1-.1-.1-.2-.2-.3-.1-.2-.3-.3-.4-.5L439 247.2c-.5-.5-1.1-.9-1.7-1.2-.6-.3-1.3-.4-2-.4s-1.4.1-2 .4c-.6.3-1.2.6-1.7 1.2L411 267.8l-.1.1v.1c.1.3.2.5.3.8.1.3.1.5.2.8l.1.3.2-.2 21.1-21.1c.3-.3.7-.6 1.1-.8.4-.2.9-.3 1.3-.3.5 0 .9.1 1.3.3.4.2.8.4 1.1.8L459 270c.3.3.5.6.6.9.2.3.3.7.3 1v1.2c-.1.4-.2.7-.3 1l-.6.9-21.4 21.4c-.3.3-.7.6-1.1.8-.4.2-.9.3-1.3.3-.5 0-.9-.1-1.3-.3-.4-.2-.8-.4-1.1-.8l-21.2-21.2-.2-.2-.1.3c-.1.3-.1.5-.2.8-.1.3-.2.5-.3.8v.1l.1.1 20.7 20.7c.5.5 1.1.9 1.7 1.2.7.3 1.3.4 2 .4s1.4-.1 2-.4c.6-.3 1.2-.6 1.7-1.2l21.4-21.4c.1-.1.3-.3.4-.5.1-.1.1-.2.2-.3.1.1.1.2.2.3.1.2.3.3.4.5l21.4 21.4c.5.5 1.1.9 1.7 1.2.7.3 1.3.4 2 .4s1.4-.1 2-.4c.6-.3 1.2-.6 1.7-1.2l21.4-21.4c.1-.1.3-.3.4-.5.1-.1.1-.2.2-.3.1.1.1.2.2.3.1.2.3.3.4.5l21.4 21.4c.5.5 1.1.9 1.7 1.2.7.3 1.3.4 2 .4s1.4-.1 2-.4c.6-.3 1.2-.6 1.7-1.2l19.3-19.3.1-.1-.1-.1c-.1-.2-.2-.5-.3-.7-.1-.2-.2-.5-.3-.7l-.1-.3-.2.2-19.7 19.7c-.3.3-.7.6-1.1.8-.4.2-.9.3-1.3.3s-.9-.1-1.3-.3c-.4-.2-.8-.4-1.1-.8l-21.4-21.4c-.3-.3-.5-.6-.6-.9-.2-.3-.3-.7-.3-1V272c.1-.3.2-.7.3-1l.6-.9 21.4-21.4c.3-.3.7-.6 1.1-.8.4-.2.9-.3 1.3-.3.5 0 .9.1 1.3.3.4.2.8.4 1.1.8l19.9 19.9.2.2.1-.3c.1-.2.2-.5.3-.7.1-.2.2-.5.4-.7l.1-.1-.1-.1-19.6-19.7zm-30.4 25.4v.3c-.1.3-.2.7-.3 1l-.6.9-21.5 21.4c-.3.3-.7.6-1.1.8-.4.2-.9.3-1.3.3-.5 0-.9-.1-1.3-.3-.4-.2-.8-.4-1.1-.8l-21.4-21.4c-.3-.3-.5-.6-.6-.9-.2-.3-.3-.7-.3-1v-1.2c.1-.4.2-.7.3-1l.6-.9 21.4-21.4c.3-.3.7-.6 1.1-.8.4-.2.9-.3 1.3-.3.5 0 .9.1 1.3.3.4.2.8.4 1.1.8l21.4 21.4c.3.3.5.6.6.9.2.3.3.7.3 1v.6c.1.1.1.2.1.3z"/><path class="st5" d="M501.7 202.2c-2.2-.7-4.3-1.6-6.2-2.7-8.8-4.2-15.2-12.6-16.5-22.6l-18.5.9v.5c0 10.2-4.3 21-13.1 24.5-2.4 1-4.6 2.2-6.7 3.3 9.7 14.1 25.7 22.6 42.8 22.6 17.2 0 33.3-8.5 42.9-22.8-2.7-1.2-5.5-2.2-8.3-3.3-5.2 1.4-10.9 1.3-16.4-.4z"/><path class="st24" d="M504.6 177.2c-31.7 1.6-47.5 2.4-47.5 2.4-1.5 12.1-4.7 19.8-9.7 23 8 11.8 21.4 18.9 35.7 18.9 14.3 0 27.6-7.1 35.7-18.9-9.3-.9-14-9.3-14.2-25.4z"/><defs><filter id="Adobe_OpacityMaskFilter_7_" filterUnits="userSpaceOnUse" x="461.4" y="176.3" width="57.3" height="45.3"><feColorMatrix values="1 0 0 0 0 0 1 0 0 0 0 0 1 0 0 0 0 0 1 0"/></filter></defs><mask maskUnits="userSpaceOnUse" x="461.4" y="176.3" width="57.3" height="45.3" id="SVGID_15_"><g style="filter:url(#Adobe_OpacityMaskFilter_7_)"><linearGradient id="SVGID_16_" gradientUnits="userSpaceOnUse" x1="-73.834" y1="670.117" x2="-116.865" y2="632.291" gradientTransform="translate(591.562 -446.849)"><stop offset="0" style="stop-color:#000"/><stop offset="1" style="stop-color:#fff"/></linearGradient><path style="fill:url(#SVGID_16_)" d="M461.4 176.3h57.3v45.3h-57.3z"/></g></mask><path d="M504.6 177.2c-14.3-2.7-28.7.1-43.2 8.3l21.6 36c14.3 0 27.6-7.1 35.7-18.9-9.2-.9-13.9-9.3-14.1-25.4z" style="mask:url(#SVGID_15_);fill-rule:evenodd;clip-rule:evenodd;fill:#ff6219"/><defs><filter id="Adobe_OpacityMaskFilter_8_" filterUnits="userSpaceOnUse" x="461.2" y="177.2" width="45.8" height="24.2"><feColorMatrix values="1 0 0 0 0 0 1 0 0 0 0 0 1 0 0 0 0 0 1 0"/></filter></defs><mask maskUnits="userSpaceOnUse" x="461.2" y="177.2" width="45.8" height="24.2" id="SVGID_17_"><g style="filter:url(#Adobe_OpacityMaskFilter_8_)"><linearGradient id="SVGID_18_" gradientUnits="userSpaceOnUse" x1="-63.296" y1="668.004" x2="-121.552" y2="652.519" gradientTransform="translate(591.403 -466.983)"><stop offset="0" style="stop-color:#000"/><stop offset="1" style="stop-color:#fff"/></linearGradient><path style="fill:url(#SVGID_18_)" d="M461.2 177.2H507v24.2h-45.8z"/></g></mask><path d="M504.6 177.2c-28.9 1.5-43.4 2.2-43.4 2.2s.1 2 .2 6.1c0 0 .2.4.7 1.2 4.3 7.8 12.1 13.2 20.9 14.4 8.9 1.2 17.8-1.8 24-8.2-1.7-5-2.6-10.3-2.4-15.7z" style="mask:url(#SVGID_17_);fill-rule:evenodd;clip-rule:evenodd;fill:#d61200"/><path class="st24" d="M518.2 137.1c-5.6 0-11.6 6-13.3 13.5-1.7 7.4 1.5 13.5 7.1 13.5s11.6-6 13.3-13.5c1.8-7.5-1.4-13.5-7.1-13.5z"/><path class="st46" d="M514.7 142.5c-3.4 0-6.9 3.6-8 8.1-1 4.5.9 8.1 4.3 8.1s6.9-3.6 8-8.1c1-4.5-.9-8.1-4.3-8.1z"/><path class="st47" d="M512.4 145.8c-2 0-4.1 2.1-4.7 4.7-.6 2.6.5 4.7 2.5 4.7s4.1-2.1 4.7-4.7c.6-2.6-.6-4.7-2.5-4.7z"/><path class="st24" d="M440.6 137.1c-5.3 0-8.4 6-6.7 13.5 1.6 7.4 7.3 13.5 12.6 13.5s8.4-6 6.7-13.5c-1.6-7.5-7.3-13.5-12.6-13.5z"/><path class="st46" d="M443.9 142.5c-3.2 0-5 3.6-4 8.1s4.4 8.1 7.6 8.1c3.2 0 5-3.6 4-8.1s-4.4-8.1-7.6-8.1z"/><path class="st47" d="M446.2 145.8c-1.9 0-2.9 2.1-2.4 4.7.6 2.6 2.6 4.7 4.4 4.7 1.9 0 2.9-2.1 2.4-4.7-.6-2.6-2.6-4.7-4.4-4.7z"/><path class="st24" d="M498.7 108.4c-11.2-8.4-26.6-8.4-37.9-.1-11.3 8.3-15.8 23-11.1 36.2-3.4 16.3 2 33.2 14.2 44.6 4 5.2 10.1 8.2 16.6 8.2 6.5 0 12.7-3 16.6-8.2 11.7-11.6 16.4-28.4 12.5-44.4 4.8-13.2.3-28-10.9-36.3z"/><defs><filter id="Adobe_OpacityMaskFilter_9_" filterUnits="userSpaceOnUse" x="475.7" y="102.1" width="35.8" height="87.4"><feColorMatrix values="1 0 0 0 0 0 1 0 0 0 0 0 1 0 0 0 0 0 1 0"/></filter></defs><mask maskUnits="userSpaceOnUse" x="475.7" y="102.1" width="35.8" height="87.4" id="SVGID_19_"><g style="filter:url(#Adobe_OpacityMaskFilter_9_)"><linearGradient id="SVGID_20_" gradientUnits="userSpaceOnUse" x1="-79.856" y1="653.512" x2="-140.444" y2="599.671" gradientTransform="translate(605.883 -478.956)"><stop offset="0" style="stop-color:#000"/><stop offset="1" style="stop-color:#fff"/></linearGradient><path style="fill:url(#SVGID_20_)" d="M475.7 102.1h35.8v87.4h-35.8z"/></g></mask><path d="M498.7 108.4c-6.8-5-15-7.1-23-6.1 17.3 12.5 28.6 32.9 28.6 55.9 0 11.3-2.7 21.9-7.5 31.3l.3-.3c11.7-11.6 16.4-28.4 12.5-44.4 4.8-13.3.3-28.1-10.9-36.4z" style="mask:url(#SVGID_19_);fill-rule:evenodd;clip-rule:evenodd;fill:#fff6c4"/><defs><filter id="Adobe_OpacityMaskFilter_10_" filterUnits="userSpaceOnUse" x="445" y="109.5" width="33.1" height="79"><feColorMatrix values="1 0 0 0 0 0 1 0 0 0 0 0 1 0 0 0 0 0 1 0"/></filter></defs><mask maskUnits="userSpaceOnUse" x="445" y="109.5" width="33.1" height="79" id="SVGID_21_"><g style="filter:url(#Adobe_OpacityMaskFilter_10_)"><linearGradient id="SVGID_22_" gradientUnits="userSpaceOnUse" x1="-84.242" y1="655.605" x2="-139.175" y2="605.647" gradientTransform="translate(575.168 -479.882)"><stop offset="0" style="stop-color:#000"/><stop offset="1" style="stop-color:#fff"/></linearGradient><path style="fill:url(#SVGID_22_)" d="M445 109.5h33.1v79H445z"/></g></mask><path d="M478.1 122.2c-1.8-7.1-7.9-12.2-15.2-12.6-7.3-.5-14 3.8-16.7 10.6-2.7 6.8-.7 14.5 4.9 19.2-3.1 19.6 1.7 36 14.5 49.3-2.1-7.8 9.9-9.8 1.2-27-4.4-8.6-10.9-17.5-5.4-28.4 3.3-6.5 9.6-10.7 16.7-11.1z" style="mask:url(#SVGID_21_);fill-rule:evenodd;clip-rule:evenodd;fill:#ff5b1f"/><path d="M494.6 92.9c8.9-9.5-14-18.5-28.4-11.2-6.9 3.5-12 9.7-14.1 17.1-16.1 3.2-22.5 23.1-7.9 22.6-.9 5.8-1.2 11.6-.7 17.5 2.7 1.6 4.9 4.1 6.1 7-.9-7.7 5.2-7.6 3.6-19.2-1.3-9.2 6.2-16 14.8-13.4 8.8 14.1 33.9 15.9 34.2 8.6.6 11.6 10 12.7 7.3 22.8 1.3-3.7 3.4-6 6.4-7 4.4-8.7 4.5-18.9.3-27.6-4.1-8.8-12.1-15.2-21.6-17.2z" style="fill-rule:evenodd;clip-rule:evenodd;fill:#4f290d"/><defs><filter id="Adobe_OpacityMaskFilter_11_" filterUnits="userSpaceOnUse" x="501.1" y="95" width="18.3" height="49.6"><feColorMatrix values="1 0 0 0 0 0 1 0 0 0 0 0 1 0 0 0 0 0 1 0"/></filter></defs><mask maskUnits="userSpaceOnUse" x="501.1" y="95" width="18.3" height="49.6" id="SVGID_23_"><g style="filter:url(#Adobe_OpacityMaskFilter_11_)"><linearGradient id="SVGID_24_" gradientUnits="userSpaceOnUse" x1="-147.686" y1="653.069" x2="-115.275" y2="641.478" gradientTransform="translate(631.25 -523.665)"><stop offset="0" style="stop-color:#000"/><stop offset="1" style="stop-color:#fff"/></linearGradient><path style="fill:url(#SVGID_24_)" d="M501.1 95h18.3v49.6h-18.3z"/></g></mask><path d="M501.1 95c5.2 9.1 6.7 20.3 3.1 31.1-.2.6-.4 1.2-.6 1.7 2.6 6.5 8.2 8.8 6.1 16.8 1.3-3.7 3.4-6 6.4-7 4.4-8.7 4.5-18.9.3-27.6-3.3-6.7-8.7-11.9-15.3-15z" style="mask:url(#SVGID_23_);fill-rule:evenodd;clip-rule:evenodd;fill:#914814"/><defs><filter id="Adobe_OpacityMaskFilter_12_" filterUnits="userSpaceOnUse" x="436.1" y="79" width="52.3" height="66.8"><feColorMatrix values="1 0 0 0 0 0 1 0 0 0 0 0 1 0 0 0 0 0 1 0"/></filter></defs><mask maskUnits="userSpaceOnUse" x="436.1" y="79" width="52.3" height="66.8" id="SVGID_25_"><g style="filter:url(#Adobe_OpacityMaskFilter_12_)"><linearGradient id="SVGID_26_" gradientUnits="userSpaceOnUse" x1="-73.351" y1="588.717" x2="-110.497" y2="644.641" gradientTransform="translate(566.347 -522.484)"><stop offset="0" style="stop-color:#000"/><stop offset="1" style="stop-color:#fff"/></linearGradient><path style="fill:url(#SVGID_26_)" d="M436.1 79h52.3v66.8h-52.3z"/></g></mask><path d="M466.3 81.7c-6.9 3.5-12 9.7-14.1 17.1-16.1 3.2-22.5 23.1-7.9 22.6-.9 5.8-1.2 11.6-.7 17.5 2.7 1.6 4.9 4.1 6.1 7-.9-7.7 5.2-7.6 3.6-19.2-.8-5.8 1.9-10.6 6.1-12.8 1.7-16.2 13.5-29.4 29-33.2-6.3-2.2-15.2-2.5-22.1 1z" style="mask:url(#SVGID_25_);fill-rule:evenodd;clip-rule:evenodd;fill:#2e1503"/><defs><filter id="Adobe_OpacityMaskFilter_13_" filterUnits="userSpaceOnUse" x="450.1" y="144.3" width="23.5" height="15.2"><feColorMatrix values="1 0 0 0 0 0 1 0 0 0 0 0 1 0 0 0 0 0 1 0"/></filter></defs><mask maskUnits="userSpaceOnUse" x="450.1" y="144.3" width="23.5" height="15.2" id="SVGID_27_"><g style="filter:url(#Adobe_OpacityMaskFilter_13_)"><linearGradient id="SVGID_28_" gradientUnits="userSpaceOnUse" x1="-104.235" y1="666.749" x2="-133.283" y2="654.557" gradientTransform="translate(580.307 -508.893)"><stop offset="0" style="stop-color:#000"/><stop offset="1" style="stop-color:#fff"/></linearGradient><path style="fill:url(#SVGID_28_)" d="M450.1 144.3h23.5v15.2h-23.5z"/></g></mask><path d="M461.8 155.8c-4-1.4-7-4.6-8.1-8.7-.6-1.3-1.8-2.2-3.4-2.8-.3 2.9-.3 5.8-.2 8.7 2.6 3.9 6.8 6.3 11.5 6.4 4.6.2 9.1-1.9 12-5.5-3.4 2.6-7.8 3.3-11.8 1.9z" style="mask:url(#SVGID_27_);fill-rule:evenodd;clip-rule:evenodd;fill:#d61200"/><path class="st64" d="M502.4 133.2c-2.2-1-4.7-1.5-7.1-1.6-2.4 0-4.8.5-7.1 1.5-.5.2-.8.8-.5 1.4.2.5.8.8 1.4.5 2-.9 4.1-1.3 6.2-1.3 2.1 0 4.2.5 6.2 1.4.5.2 1.1 0 1.4-.5.2-.6 0-1.2-.5-1.4zM471.5 132.8c-2.3-.9-4.7-1.3-7.1-1.1-2.4.1-4.8.8-7 1.9-.5.3-.7.9-.4 1.4.3.5.9.7 1.4.4 1.9-1 4-1.6 6.1-1.7 2.1-.1 4.3.2 6.3 1 .5.2 1.1-.1 1.3-.6.2-.5-.1-1.1-.6-1.3z"/><path class="st5" d="M498.8 138.7c-1.5 0-2.6 1.2-2.6 2.6 0 1.5 1.2 2.6 2.6 2.6 1.5 0 2.6-1.2 2.6-2.6 0-1.4-1.2-2.6-2.6-2.6zM468.9 138.7c-1.5 0-2.6 1.2-2.6 2.6 0 1.5 1.2 2.6 2.6 2.6 1.5 0 2.6-1.2 2.6-2.6 0-1.4-1.1-2.6-2.6-2.6z"/><path class="st47" d="M490 169.3c-2.9 2.5-6.4 3.7-10 3.7-3.6 0-7.1-1.2-10-3.7-.5-.4-1.1-.3-1.5.1-.4.5-.3 1.1.1 1.5 3.3 2.8 7.3 4.2 11.4 4.2 4.1 0 8.1-1.4 11.4-4.2.5-.4.5-1.1.1-1.5-.4-.4-1.1-.5-1.5-.1zM484.1 176.6c-1.2 1-2.7 1.5-4.1 1.5-1.5 0-2.9-.5-4.1-1.5-.2-.2-.5-.1-.6 0-.2.2-.1.5 0 .6 1.4 1.2 3 1.7 4.7 1.7 1.7 0 3.4-.6 4.7-1.7.2-.2.2-.4 0-.6-.1-.2-.4-.2-.6 0z"/><path class="st15" d="m515.6 137-9.3 7.6c-.2-2.8-1.5-5.3-3.4-7.2-2.1-2.1-5-3.4-8.2-3.4-3.2 0-6.1 1.3-8.2 3.4-.4.4-.8.9-1.2 1.4-.5-.5-1.1-.9-1.8-1.2-1-.5-2.2-.8-3.4-.8-1.2 0-2.3.3-3.4.8-.7.3-1.3.8-1.9 1.3-.4-.5-.8-1-1.3-1.5-2.1-2.1-5-3.4-8.2-3.4-3.2 0-6.1 1.3-8.2 3.4-1.9 1.9-3.2 4.6-3.4 7.5l-10.1-8.2c-.3-.3-.8-.2-1.1.1-.3.3-.2.8.1 1.1l11.1 9.1c.3 2.7 1.5 5.1 3.3 6.9 2.1 2.1 5 3.4 8.2 3.4 3.2 0 6.1-1.3 8.2-3.4 2.1-2.1 3.4-5 3.4-8.2 0-1.9-.5-3.7-1.3-5.4.5-.5 1.1-.9 1.7-1.3.8-.4 1.7-.6 2.7-.6.9 0 1.9.2 2.7.6.6.3 1.1.7 1.6 1.1-.9 1.6-1.4 3.5-1.4 5.5 0 3.2 1.3 6.1 3.4 8.2 2.1 2.1 5 3.4 8.2 3.4 3.2 0 6.1-1.3 8.2-3.4 1.9-1.9 3.1-4.4 3.4-7.2l10.3-8.4c.3-.3.4-.8.1-1.1.1-.3-.4-.3-.8-.1zm-43.2 15.8c-1.8 1.8-4.3 2.9-7.1 2.9s-5.3-1.1-7.1-2.9c-1.8-1.8-2.9-4.3-2.9-7.1s1.1-5.3 2.9-7.1c1.8-1.8 4.3-2.9 7.1-2.9s5.3 1.1 7.1 2.9c1.8 1.8 2.9 4.3 2.9 7.1.1 2.8-1 5.3-2.9 7.1zm29.4 0c-1.8 1.8-4.3 2.9-7.1 2.9s-5.3-1.1-7.1-2.9c-1.8-1.8-2.9-4.3-2.9-7.1s1.1-5.3 2.9-7.1c1.8-1.8 4.3-2.9 7.1-2.9s5.3 1.1 7.1 2.9c1.8 1.8 2.9 4.3 2.9 7.1.1 2.8-1.1 5.3-2.9 7.1z"/><path class="st46" d="M485.4 155.4c-5.1-18.1-5.1-25.1-10.5 0-5.3 1.5-5.5 3.7-.7 5.8 4.1 3.2 7.9 3.2 11.5 0 4.7-2.1 4.6-4.1-.3-5.8z"/><path class="st65" d="M470.6 145.3c-.2-.1-.5-.1-.8 0-.8.3-1.5.6-2.4.8-.8.2-1.6.3-2.5.3-.8 0-1.7-.1-2.5-.3-.8-.2-1.6-.4-2.4-.8-.2-.1-.5-.1-.7 0-.2.1-.4.3-.6.5-.1.2-.1.5 0 .7.1.2.3.4.5.6.9.4 1.8.7 2.7.9.9.2 1.9.3 2.9.3s1.9-.1 2.9-.3c.9-.2 1.9-.5 2.8-.9.2-.1.4-.3.5-.6.1-.2.1-.5 0-.8 0-.2-.2-.3-.4-.4zM500 145.2c-.2-.1-.5-.1-.8 0-.8.3-1.5.6-2.4.8-.8.2-1.6.3-2.5.3-.8 0-1.7-.1-2.5-.3-.8-.2-1.6-.4-2.4-.8-.2-.1-.5-.1-.7 0-.2.1-.4.3-.6.5-.1.2-.1.5 0 .7.1.2.3.4.5.6.9.4 1.8.7 2.7.9.9.2 1.9.3 2.9.3s1.9-.1 2.9-.3c.9-.2 1.9-.5 2.8-.9.2-.1.4-.3.5-.6.1-.2.1-.5 0-.8 0-.1-.2-.3-.4-.4z"/><path class="st66" d="M402.5 249.2c-2-7.3-2.5-15.1-1.4-22.9.1-.6-.3-1.1-.9-1.2-.6-.1-1.2.4-1.2 1-1.2 8.1-.6 16.2 1.4 23.8 2 7.5 5.5 14.5 10.3 20.6l-4.5 26.8c-.1.6.3 1.2.9 1.2.6.1 1.2-.4 1.3-1l4.5-27.3c.1-.3 0-.7-.3-.9-4.7-5.9-8.2-12.8-10.1-20.1zM569.6 224.6c-.6.1-1 .6-.9 1.2 1.3 7.8 1 15.6-.8 22.9-1.8 7.3-5.1 14.2-9.7 20.2-.2.2-.3.6-.2.9l5.2 27.3c.1.6.7 1 1.3 1 .6-.1 1-.6.9-1.2l-5.1-26.8c4.7-6.1 8-13.1 9.8-20.6 1.9-7.6 2.2-15.7.8-23.8-.1-.7-.7-1.2-1.3-1.1z"/><defs><filter id="Adobe_OpacityMaskFilter_14_" filterUnits="userSpaceOnUse" x="299.7" y="285.7" width="95.6" height="98.3"><feColorMatrix values="1 0 0 0 0 0 1 0 0 0 0 0 1 0 0 0 0 0 1 0"/></filter></defs><mask maskUnits="userSpaceOnUse" x="299.7" y="285.7" width="95.6" height="98.3" id="SVGID_29_"><g style="filter:url(#Adobe_OpacityMaskFilter_14_)"><linearGradient id="SVGID_30_" gradientUnits="userSpaceOnUse" x1="-59.303" y1="662.793" x2="-112.354" y2="563.828" gradientTransform="translate(430.092 -284.57)"><stop offset="0" style="stop-color:#000"/><stop offset="1" style="stop-color:#fff"/></linearGradient><path style="fill:url(#SVGID_30_)" d="M299.7 285.7h95.6V384h-95.6z"/></g></mask><path d="M361.7 285.7c-5.6 11.5-8.4 17.2-8.4 17.2-12.1 7.4-22.7 18.6-37.4 48.4-10.8 21.1-16.2 31.7-16.2 31.7 6.7.7 10.1 1 10.1 1 30.8-41.1 46.2-61.6 46.2-61.6-2.9-10.4 2.4-21.3 12.4-25.5 9.9-4.2 21.4-.4 26.9 8.9-6.3-12.7-19.4-20.5-33.6-20.1z" style="mask:url(#SVGID_29_);fill-rule:evenodd;clip-rule:evenodd;fill:#eb5105"/><path d="m308.8 382.9-11.7.1c-.6 0-1.1.5-1.1 1.1 0 .6.5 1.1 1.1 1.1l11.7-.1c.6 0 1.1-.5 1.1-1.1 0-.6-.5-1.1-1.1-1.1z" style="fill:#eb5105"/><path class="st71" d="M270.1 414.3c.5-.2.8-.9.5-1.4-.2-.5-.9-.8-1.4-.5l-11.5 5.2h-.1l-8.8 4.6c-.5.3-.7.9-.4 1.4.3.5.9.7 1.4.4l8.8-4.6 11.5-5.1zM274.3 415.6l-16.6 7.5c-.2.1-.3.2-.4.3-.2.3-.4.6-.5.9-.1.3-.2.7-.2 1 0 .6.4 1.1 1 1.1s1.1-.4 1.1-1c0-.1 0-.3.1-.4 0 0 0-.1.1-.1l16.3-7.3c.5-.2.8-.9.5-1.4-.2-.6-.9-.8-1.4-.6zM296 392.4c-3 2.4-5.4 5.4-7 8.7-1.6 3.4-2.4 7.1-2.4 10.9 0 .6.5 1 1.1 1 .6 0 1-.5 1-1.1-.1-3.5.7-6.9 2.2-10 1.5-3.1 3.6-5.8 6.4-8 .5-.4.5-1 .2-1.5-.3-.3-1-.4-1.5 0zM290.9 396.2c-.1-.6-.7-.9-1.3-.8-1.9.5-3.8.6-5.6.4-1.6-.2-3.1-.7-4.5-1.3 0-.1.1-.2.1-.3.2-1 .1-2.1-.5-3-.6-.9-1.5-1.6-2.4-1.8-1-.3-2-.2-3 .3l-3.8 1.7-.9-2.4c-.2-.5-.8-.8-1.3-.6-.5.2-.8.8-.6 1.3l1.2 3.4c0 .6-.1 1.1-.4 1.7-.3.5-.7 1-1.2 1.4-.5.4-1.1.6-1.7.6-.6.1-1.2 0-1.8-.3-.5-.2-1.2 0-1.4.5-.2.5 0 1.2.5 1.4.9.4 1.9.6 2.9.5 1-.1 1.9-.4 2.7-1 .8-.6 1.5-1.3 1.9-2.2.3-.7.5-1.4.6-2.1l4.3-1.9h.1c.5-.2 1-.3 1.5-.2.5.1.9.4 1.2.9.3.5.4 1 .3 1.5-.1.5-.4.9-.8 1.2l-11.5 8c-.5.3-.6 1-.3 1.5s1 .6 1.5.3l.8-.6c.4 1.2.7 2.1.9 2.5 0 .1 0 .1.1.2 0 .3.2.6.4.7.7 1.3 1.3 1.2 1.7-.4.1-.2.1-.4.1-.6v-.2c0-.2-.1-.4-.2-.5-.2-.5-.5-1.5-1-3l8.9-6.2c.2-.1.4-.3.5-.4 1.7.8 3.5 1.4 5.3 1.6 2.1.3 4.3.1 6.4-.4.1-.3.5-.9.3-1.4zM371.2 301.6c-3.7-1.2-7.5-1.7-11.3-1.6-3.8.1-7.6.8-11.2 2.2-.5.2-.8.8-.6 1.4.2.5.8.8 1.4.6 3.4-1.3 6.9-2 10.5-2.1 3.6-.1 7.1.4 10.6 1.6.6.2 1.1-.1 1.3-.7.2-.6-.1-1.2-.7-1.4z"/><defs><filter id="Adobe_OpacityMaskFilter_15_" filterUnits="userSpaceOnUse" x="623.4" y="303.8" width="52.2" height="81.7"><feColorMatrix values="1 0 0 0 0 0 1 0 0 0 0 0 1 0 0 0 0 0 1 0"/></filter></defs><mask maskUnits="userSpaceOnUse" x="623.4" y="303.8" width="52.2" height="81.7" id="SVGID_31_"><g style="filter:url(#Adobe_OpacityMaskFilter_15_)"><linearGradient id="SVGID_32_" gradientUnits="userSpaceOnUse" x1="-177.821" y1="609.239" x2="-69.637" y2="636.294" gradientTransform="translate(753.448 -283.066)"><stop offset="0" style="stop-color:#000"/><stop offset="1" style="stop-color:#fff"/></linearGradient><path style="fill:url(#SVGID_32_)" d="M623.4 303.8h52.2v81.7h-52.2z"/></g></mask><path d="M640.2 320.2c-3.9-5.4-9.4-10.9-16.8-16.4 18.2 18.8 1.1 32.5 12.4 48.1 11.5 15.8 31.8 2.3 29.6 33.6l10.2-2.1c-7.6-14.2-15.3-28.7-23.2-43.4-3.9-7.1-8-13.7-12.2-19.8z" style="mask:url(#SVGID_31_);fill-rule:evenodd;clip-rule:evenodd;fill:#ffe2b0"/><defs><filter id="Adobe_OpacityMaskFilter_16_" filterUnits="userSpaceOnUse" x="306.6" y="302.8" width="90" height="105.5"><feColorMatrix values="1 0 0 0 0 0 1 0 0 0 0 0 1 0 0 0 0 0 1 0"/></filter></defs><mask maskUnits="userSpaceOnUse" x="306.6" y="302.8" width="90" height="105.5" id="SVGID_33_"><g style="filter:url(#Adobe_OpacityMaskFilter_16_)"><linearGradient id="SVGID_34_" gradientUnits="userSpaceOnUse" x1="-130.329" y1="616.652" x2="-50.422" y2="615.26" gradientTransform="translate(436.97 -260.318)"><stop offset="0" style="stop-color:#000"/><stop offset="1" style="stop-color:#fff"/></linearGradient><path style="fill:url(#SVGID_34_)" d="M306.6 302.8h90v105.5h-90z"/></g></mask><path d="M372.4 306.2c-7.5 5.3-10 15.3-5.9 23.6-39.9 52.3-59.8 78.4-59.8 78.4 7.5-6.8 11.2-10.3 11.2-10.3 16.6-14.8 33-31.8 49-50.9 8.5-10.3 12.8-15.4 12.8-15.4 2.9-3.4 4.8-6.9 5.8-10.3 4.9-5.7 8.6-10 11.1-12.9-6.4-6.5-16.7-7.5-24.2-2.2z" style="mask:url(#SVGID_33_);fill-rule:evenodd;clip-rule:evenodd;fill:#ffe2b0"/><defs><filter id="Adobe_OpacityMaskFilter_17_" filterUnits="userSpaceOnUse" x="576.6" y="288" width="83.5" height="110.1"><feColorMatrix values="1 0 0 0 0 0 1 0 0 0 0 0 1 0 0 0 0 0 1 0"/></filter></defs><mask maskUnits="userSpaceOnUse" x="576.6" y="288" width="83.5" height="110.1" id="SVGID_35_"><g style="filter:url(#Adobe_OpacityMaskFilter_17_)"><linearGradient id="SVGID_36_" gradientUnits="userSpaceOnUse" x1="8.9" y1="619.456" x2="-174.446" y2="608.295" gradientTransform="translate(706.661 -270.493)"><stop offset="0" style="stop-color:#000"/><stop offset="1" style="stop-color:#fff"/></linearGradient><path style="fill:url(#SVGID_36_)" d="M576.6 288h83.5v110.1h-83.5z"/></g></mask><path d="M620.1 351.3c-8.3-19.1 8.6-31.6-2.7-50.1-4.6-7.5-12.4-12.4-21.1-13.2-8.5 3.2-15.5 9.4-19.7 17.5 8.9 10.1 13.4 15.1 13.4 15.1 0 3.9 1.1 7.4 3.2 10.5 21.3 25.9 43.1 48.2 65.5 67.1 9.4-34.2-28.5-23.8-38.6-46.9z" style="mask:url(#SVGID_35_);fill-rule:evenodd;clip-rule:evenodd;fill:#eb5105"/><path class="st71" d="M702.8 402.9c-.5 1.5-.8 2.5-1 3-.1.1-.2.3-.2.5v.2c0 .2 0 .4.1.6.4 1.6.9 1.7 1.7.4.2-.1.3-.4.4-.7 0 0 0-.1.1-.2.2-.4.5-1.3.9-2.5l.8.6c.5.3 1.1.2 1.5-.3.3-.5.2-1.1-.3-1.5l-11.5-8c-.4-.3-.7-.8-.8-1.2-.1-.5 0-1 .3-1.5s.7-.8 1.2-.9c.5-.1 1-.1 1.5.2h.1l4.3 1.9c.1.7.3 1.5.6 2.1.4.9 1.1 1.6 1.9 2.2.8.6 1.8.9 2.7 1 1 .1 1.9-.1 2.9-.5.5-.2.8-.9.5-1.4-.2-.5-.9-.8-1.4-.5-.6.3-1.2.4-1.8.3-.6-.1-1.2-.3-1.7-.6-.5-.4-.9-.8-1.2-1.4-.3-.5-.4-1.1-.4-1.7l1.2-3.4c.2-.5-.1-1.2-.6-1.3-.5-.2-1.2.1-1.3.6l-.9 2.4-3.8-1.7c-1-.5-2-.6-3-.3s-1.9.9-2.4 1.8c-.6.9-.7 2-.5 3 0 .1 0 .2.1.3-1.4.7-3 1.1-4.5 1.3-1.9.2-3.8.1-5.6-.4-.6-.1-1.1.2-1.3.8-.1.6.2 1.1.8 1.3 2.1.6 4.3.7 6.4.4 1.8-.2 3.6-.8 5.3-1.6.2.2.3.3.5.4l8.4 6.3zM675.7 392.4c-.5-.4-1.1-.3-1.5.2-.4.5-.3 1.1.2 1.5 2.7 2.2 4.9 4.9 6.4 8 1.5 3.1 2.2 6.5 2.2 10 0 .6.5 1.1 1 1.1.6 0 1.1-.5 1.1-1 .1-3.8-.8-7.6-2.4-10.9-1.6-3.5-4-6.5-7-8.9zM623 302.2c-3.6-1.4-7.4-2.1-11.2-2.2-3.8-.1-7.6.5-11.3 1.6-.6.2-.9.8-.7 1.3.2.6.8.9 1.3.7 3.4-1.1 7-1.6 10.6-1.6 3.6.1 7.1.8 10.5 2.1.5.2 1.2-.1 1.4-.6.2-.5-.1-1.1-.6-1.3zM714.4 423.4c-.1-.1-.3-.3-.4-.3l-16.6-7.5c-.5-.2-1.2 0-1.4.5-.2.5 0 1.2.5 1.4l16.3 7.3s0 .1.1.1c0 .1.1.3.1.4 0 .6.5 1 1.1 1 .6 0 1-.5 1-1.1 0-.3-.1-.7-.2-1-.1-.2-.3-.5-.5-.8zM722.8 422.2l-8.8-4.6h-.1l-11.5-5.2c-.5-.2-1.2 0-1.4.5-.2.5 0 1.2.5 1.4l11.5 5.1 8.8 4.6c.5.3 1.2.1 1.4-.4.4-.5.2-1.1-.4-1.4zM675.3 383.4l-11.7-.1c-.6 0-1.1.5-1.1 1.1 0 .6.5 1.1 1.1 1.1l11.7.1c.6 0 1.1-.5 1.1-1.1 0-.6-.5-1.1-1.1-1.1z"/><defs><filter id="Adobe_OpacityMaskFilter_18_" filterUnits="userSpaceOnUse" x="269.7" y="442.2" width="145.3" height="54.3"><feColorMatrix values="1 0 0 0 0 0 1 0 0 0 0 0 1 0 0 0 0 0 1 0"/></filter></defs><mask maskUnits="userSpaceOnUse" x="269.7" y="442.2" width="145.3" height="54.3" id="SVGID_37_"><g style="filter:url(#Adobe_OpacityMaskFilter_18_)"><linearGradient id="SVGID_38_" gradientUnits="userSpaceOnUse" x1="-172.186" y1="553.483" x2="-33.563" y2="660.135" gradientTransform="translate(400.08 -172.223)"><stop offset="0" style="stop-color:#000"/><stop offset="1" style="stop-color:#fff"/></linearGradient><path style="fill:url(#SVGID_38_)" d="M269.7 442.2H415v54.3H269.7z"/></g></mask><path d="M270.2 443.1c-1.2 7-.3 13.2 2.5 18.6 15.1 28.5 95.8 36.8 123.3 33.5 8.6 3.5 15-.2 19-11.3-86.5 32.1-99.4-51.3-144.8-40.8z" style="mask:url(#SVGID_37_);fill-rule:evenodd;clip-rule:evenodd;fill:#d9c6b9"/><path d="M441.2 476.8c21-7.7 31.5-11.5 31.5-11.5s-10.4-.5-31.1-1.6c1.3 4.3 1.2 8.9-.4 13.1z" style="fill-rule:evenodd;clip-rule:evenodd;fill:#ffb254"/><path class="st24" d="M526.5 464.5c-19.1 1.4-28.6 2.1-28.6 2.1-2.8-5.3-7.8-9.1-13.7-10.3-5.9-1.2-12 .2-16.7 4-10.2 7.9-21.7 14-33.9 18.2-9.2 0-18 3.7-24.5 10.2-3.1 1.4-8.8 3.3-11.3 4.8-5 3.2-2.1 8.7 2.4 8.6 12.3-2.5 18.4-3.8 18.4-3.8 40-.5 60-.7 60-.7s19-.5 57.1-1.4c-6.5-9.2-9.8-20.4-9.2-31.7z"/><path class="st85" d="M460.7 463.8c-3 2.1-6.2 4-9.4 5.7-3.2 1.8-6.6 3.4-9.9 4.8-.6.2-.8.9-.6 1.4.2.6.9.8 1.4.6 3.5-1.5 6.8-3.1 10.1-4.9 3.3-1.8 6.5-3.7 9.6-5.8.5-.3.6-1 .3-1.5-.4-.5-1-.6-1.5-.3zM497.5 465.5c-1.9.7-3.7 1.8-5.4 3-1.6 1.3-3.1 2.7-4.3 4.4-.4.5-.2 1.2.3 1.5.5.4 1.2.2 1.5-.3 1.1-1.5 2.4-2.8 3.8-4 1.4-1.1 3.1-2 4.8-2.7.6-.2.9-.8.6-1.4-.1-.4-.7-.7-1.3-.5z"/><defs><filter id="Adobe_OpacityMaskFilter_19_" filterUnits="userSpaceOnUse" x="475" y="469.8" width="59.1" height="26"><feColorMatrix values="1 0 0 0 0 0 1 0 0 0 0 0 1 0 0 0 0 0 1 0"/></filter></defs><mask maskUnits="userSpaceOnUse" x="475" y="469.8" width="59.1" height="26" id="SVGID_39_"><g style="filter:url(#Adobe_OpacityMaskFilter_19_)"><linearGradient id="SVGID_40_" gradientUnits="userSpaceOnUse" x1="-129.913" y1="652.873" x2="-62.278" y2="659.349" gradientTransform="translate(605.227 -172.827)"><stop offset="0" style="stop-color:#000"/><stop offset="1" style="stop-color:#fff"/></linearGradient><path style="fill:url(#SVGID_40_)" d="M475 469.8h59.1v26H475z"/></g></mask><path d="M491.1 486c-3.1 6.1-9.4 9.8-16 9.9 39.4-1.5 59.1-2.2 59.1-2.2-4.7-7.4-7.2-15.4-7.6-23.8-7 12.6-21.4 19.2-35.5 16.1z" style="mask:url(#SVGID_39_);fill-rule:evenodd;clip-rule:evenodd;fill:#eb5105"/><path class="st85" d="M493.6 480.3c-.6 0-1.1.5-1.1 1.1-.1 2.2-.9 4.2-2.3 5.8-1.4 1.5-3.3 2.6-5.5 2.9-.6.1-1 .6-.9 1.2.1.6.6 1 1.2.9 2.7-.4 5.1-1.7 6.8-3.6 1.7-1.9 2.8-4.4 2.9-7.2 0-.5-.5-1-1.1-1.1z"/><path class="st89" d="m303.8 155.3 12.6 17.1c4-12.6 6.1-18.9 6.1-18.9-4.7 7.9-7.1 11.8-7.1 11.8-7.8-6.7-11.6-10-11.6-10zM337.9 135.1c5.7 7.8 8.6 11.6 8.6 11.6 2.8-8.6 4.1-12.9 4.1-12.9l-4.8 8.1c-5.3-4.5-7.9-6.8-7.9-6.8zM235.6 144c4.5 6.1 6.8 9.2 6.8 9.2l3.3-10.2c-2.5 4.2-3.8 6.4-3.8 6.4l-6.3-5.4zM608.4 189.9s2.4 6.3 7.1 18.9c0 0 4-6 11.9-17.9 0 0-3.7 3.6-11.2 10.7 0-.1-2.6-3.9-7.8-11.7zM585.8 154.2s1.2 3.2 3.5 9.5l6-9s-1.9 1.8-5.6 5.3c0 0-1.3-1.9-3.9-5.8zM693.5 134.5s1 2.6 2.9 7.7c0 0 1.6-2.4 4.8-7.3 0 0-1.5 1.4-4.6 4.3 0 .1-1-1.5-3.1-4.7zM352.7 43.8c3.9 5.3 5.8 7.9 5.8 7.9 1.9-5.9 2.8-8.8 2.8-8.8-2.2 3.7-3.3 5.5-3.3 5.5-3.5-3-5.3-4.6-5.3-4.6zM586.7 79.8s1.1 2.9 3.2 8.6c0 0 1.8-2.7 5.4-8.2 0 0-1.7 1.6-5.1 4.9 0 0-1.1-1.8-3.5-5.3z"/><path class="st5" d="M50.2 352.2c-1.9 0-3.4 1.5-3.4 3.4s1.5 3.4 3.4 3.4 3.4-1.5 3.4-3.4c0-1.8-1.5-3.4-3.4-3.4zM67.8 362.8c-.9 0-1.7.8-1.7 1.7 0 .9.8 1.7 1.7 1.7.9 0 1.7-.8 1.7-1.7.1-.9-.7-1.7-1.7-1.7zM103.2 347.8c-.9 0-1.7.8-1.7 1.7 0 .9.8 1.7 1.7 1.7.9 0 1.7-.8 1.7-1.7 0-.9-.7-1.7-1.7-1.7zM121.8 410.3c-1.9 0-3.4 1.5-3.4 3.4s1.5 3.4 3.4 3.4 3.4-1.5 3.4-3.4-1.5-3.4-3.4-3.4zM66.5 447.2c-1.6 0-2.8 1.3-2.8 2.8 0 1.6 1.3 2.8 2.8 2.8 1.6 0 2.8-1.3 2.8-2.8 0-1.5-1.2-2.8-2.8-2.8zM230.5 449.1c-1.6 0-2.8 1.3-2.8 2.8 0 1.6 1.3 2.8 2.8 2.8 1.6 0 2.8-1.3 2.8-2.8.1-1.5-1.2-2.8-2.8-2.8zM212.5 430.8c-.8 0-1.4.6-1.4 1.4 0 .8.6 1.4 1.4 1.4.8 0 1.4-.6 1.4-1.4 0-.8-.7-1.4-1.4-1.4zM332.4 356.9c-.8 0-1.4.6-1.4 1.4 0 .8.6 1.4 1.4 1.4.8 0 1.4-.6 1.4-1.4.1-.8-.6-1.4-1.4-1.4zM389.2 393.8c-.6 0-1.1.5-1.1 1.1 0 .6.5 1.1 1.1 1.1.6 0 1.1-.5 1.1-1.1 0-.6-.5-1.1-1.1-1.1zM424.8 337.2c-.6 0-1.1.5-1.1 1.1 0 .6.5 1.1 1.1 1.1.6 0 1.1-.5 1.1-1.1 0-.6-.5-1.1-1.1-1.1zM710 478.7c-1.6 0-2.8 1.3-2.8 2.8 0 1.6 1.3 2.8 2.8 2.8 1.6 0 2.8-1.3 2.8-2.8.1-1.6-1.2-2.8-2.8-2.8zM706.1 444c-.8 0-1.4.6-1.4 1.4 0 .8.6 1.4 1.4 1.4.8 0 1.4-.6 1.4-1.4.1-.8-.6-1.4-1.4-1.4zM810.8 439.1c-.8 0-1.4.6-1.4 1.4 0 .8.6 1.4 1.4 1.4.8 0 1.4-.6 1.4-1.4.1-.8-.6-1.4-1.4-1.4zM637.8 404.8c-1.1 0-2.1.9-2.1 2.1 0 1.1.9 2.1 2.1 2.1 1.1 0 2.1-.9 2.1-2.1 0-1.2-1-2.1-2.1-2.1zM600.8 398.4c-.9 0-1.7.8-1.7 1.7 0 .9.8 1.7 1.7 1.7.9 0 1.7-.8 1.7-1.7 0-.9-.7-1.7-1.7-1.7zM801.3 476.8c-.9 0-1.7.8-1.7 1.7 0 .9.8 1.7 1.7 1.7.9 0 1.7-.8 1.7-1.7 0-.9-.7-1.7-1.7-1.7zM548.9 376.8c-1.2 0-2.2 1-2.2 2.2 0 1.2 1 2.2 2.2 2.2 1.2 0 2.2-1 2.2-2.2 0-1.2-1-2.2-2.2-2.2zM538.4 328.8c-.7 0-1.4.6-1.4 1.4 0 .7.6 1.4 1.4 1.4.7 0 1.4-.6 1.4-1.4-.1-.8-.7-1.4-1.4-1.4zM539.6 230.6c-.6 0-1.1.5-1.1 1.1 0 .6.5 1.1 1.1 1.1.6 0 1.1-.5 1.1-1.1 0-.6-.5-1.1-1.1-1.1z"/><circle class="st5" cx="893.5" cy="396.1" r="3.5"/><path class="st5" d="M837.5 357.6c-1.2 0-2.1.9-2.1 2.1 0 1.2.9 2.1 2.1 2.1 1.2 0 2.1-.9 2.1-2.1 0-1.1-.9-2.1-2.1-2.1zM901.2 314.1c-1.2 0-2.1.9-2.1 2.1 0 1.2.9 2.1 2.1 2.1s2.1-.9 2.1-2.1c0-1.2-.9-2.1-2.1-2.1zM789.3 316.5c-.6 0-1 .5-1 1 0 .6.5 1 1 1 .6 0 1-.5 1-1 .1-.6-.4-1-1-1zM891.8 452.9c-1.6 0-2.8 1.3-2.8 2.8 0 1.6 1.3 2.8 2.8 2.8 1.6 0 2.8-1.3 2.8-2.8.1-1.6-1.2-2.8-2.8-2.8zM151.8 482.1c-1.6 0-2.8 1.3-2.8 2.8 0 1.6 1.3 2.8 2.8 2.8 1.6 0 2.8-1.3 2.8-2.8 0-1.5-1.3-2.8-2.8-2.8z"/></svg>