<svg version="1.1" id="Layer_1" xmlns="http://www.w3.org/2000/svg" x="0" y="0" viewBox="0 0 800 625" style="enable-background:new 0 0 800 625" xml:space="preserve"><style>.st0,.st1{fill-rule:evenodd;clip-rule:evenodd;fill:#ebeeff}.st1{fill:#fff}.st10,.st11,.st12,.st14,.st4,.st6,.st8{fill-rule:evenodd;clip-rule:evenodd;fill:#7703fc}.st10,.st11,.st12,.st14,.st6,.st8{fill:#a686d9}.st10,.st11,.st12,.st14,.st8{fill:#623c9e}.st10,.st11,.st12,.st14{fill:#9cc2f0}.st11,.st12,.st14{fill:#709dd4}.st12,.st14{fill:#3470ba}.st14{fill:#f29718}.st15,.st17,.st18,.st21,.st23,.st27{fill-rule:evenodd;clip-rule:evenodd;fill:#e86705}.st17,.st18,.st21,.st23,.st27{fill:#ffda6b}.st18,.st21,.st23,.st27{fill:#4d4d4d}.st21,.st23,.st27{fill:#350777}.st23,.st27{fill:#f59b00}.st27{fill:#0f335e}.st28{fill:#6394cf}.st28,.st29,.st30{fill-rule:evenodd;clip-rule:evenodd}.st30{fill:#ed6e1f}</style><path class="st0" d="M205.7 397.2c-85.7 53.4-46 137.9 40.9 178 4.8-5.4 11.9-8.9 19.7-8.9 3.3 0 6.4.6 9.3 1.7l.4.1c2.9.6 5.6 1.6 8 3 .8.3 1.5.7 2.2 1.1 4.1 1.3 7.7 3.5 10.6 6.5l-7-7h53.6c1.9-.4 3.9-.7 5.9-.7h9.7c2-.4 3.9-.9 6-1.2l6-.7c1-.1 1.9-.2 2.9-.2h12.4c1.3-.2 2.5-.4 3.8-.6l3.5-.3c3.2-1.3 6.6-1.8 9.8-1.8l1.1-.3c1.8-.5 3.6-.8 5.4-1l2.3-.8c2.6-1.2 5.3-2 8-2.4.1 0 .5-.1.4-.1h-.1c1.4-.7 2.7-1.4 4.1-2 1.6-.8 3.4-1.5 5.1-2.2l7.8-3.2c.1-.1.3-.1.4-.2 1.8-1.1 3.7-2 5.6-2.6 1.9-1 7.8-3.2 5.7-2.6l-.5.2 2.4-1.4c1.1-.6 2.3-1.2 3.4-1.8l5.3-3c1.9-1.1 3.8-2.3 5.8-3.3l6.1-3.1 3-2.1c1.2-.9 2.5-1.6 3.8-2.3 2.2-2.2 4.5-3.9 7.3-5.2 1-.9 2.1-1.7 3.2-2.4.6-.4 1.2-.8 1.9-1.2.6-.5 1.2-1 1.9-1.5l5.9-4.2 2.7-2.1c2.4-1.9 5.2-3.3 7.9-4.8l4.4-3.4c1.7-1.3 3.5-2.5 5.3-3.8s3.6-2.7 5.4-4c3.1-2.2 6.1-4.5 9.2-6.6l2.4-1.9c1.7-1.4 3.7-2.6 5.5-3.8l8.9-6.4c1.6-1.1 3.3-2.1 5-3.2l3.1-2.7c1.3-1.1 2.7-2.2 4-3.2.5-.4 1.1-.8 1.7-1.2l.2-.2c2.2-2.2 4.5-3.6 7-5.3l1.6-1.9c1.7-2 3.8-3.8 6-5.2l2.8-1.7 1.2-1.2c3.6-3.6 7.9-5.9 12.5-7 1.4-.3 2.7-.7 4.1-1 2.1-3.2 4.2-6.4 6.2-9.8 59.9-108.7 38.8-208.3 3.8-275.3C527 4 296-3.1 298.3 231.6c-.6 69.4-26.6 124.2-92.6 165.6"/><path class="st1" d="M438.2 161.2c-6.9 0-13.4 3.5-17.3 9.2s-4.7 13-2.2 19.5c0 0 43.3-25 129.9-75.1-6.4-4.1-14.3-5.2-21.5-2.9-7.2 2.3-13.1 7.7-16 14.7-10.4-18.6-33.4-25.9-52.6-16.8-19.3 9.2-28.2 31.7-20.3 51.4"/><path d="M174.3 517.4c18.5 25.4 43.5 45.3 72.4 57.8 150.7-19.1 268.4-61.7 353-128 17.1-27.3 29.6-57.3 36.9-88.7-33.6-6.6-67.1 11.8-79.5 43.7-2.2 6.1-7.4 10.5-13.8 11.5-6.3 1-12.7-1.5-16.7-6.5-21.9-27.9-58.4-39.9-92.5-30.4s-59.2 38.7-63.5 73.8c-4.8 10.4-14.8 17.6-26.2 18.7-11.4 1.1-22.6-3.9-29.4-13.2-20.9-31.5-61.4-43.4-96-28.3-34.8 15.1-53.6 52.9-44.7 89.6" style="fill-rule:evenodd;clip-rule:evenodd;fill:#daddfa"/><path d="M288.7 590.1c-18.1-4.6-35.6-11.2-52.2-19.9-8.9-21.5-.7-46.2 19.4-58s45.7-6.9 60.1 11.3c5.4 7.3 15.1 9.8 23.5 6.2 8.3-3.6 13.1-12.5 11.4-21.4-2.2-39.5 22.7-75.5 60.4-87.5 37.8-11.9 78.8 3.3 99.7 36.9 3.9 6.1 10.8 9.6 18 9.2 7.2-.5 13.6-4.8 16.7-11.3 5.4-10.5 14.9-18.4 26.2-21.8s23.5-2.1 33.9 3.6c-21.9 36.4-49.6 68.9-82.1 96.2-6.9.2-13.2 3.1-17.8 7.7l-.2.1c-2.9 1.5-5.5 3.5-7.6 5.8-.4.4-.9.8-1.3 1.3l-.9.9c-.9.6-1.8 1.3-2.6 2-.7.3-1.4.7-2.1 1-1.2.4-2.4.9-3.6 1.5-.7.2-1.5.4-2.2.7l-1.6.5c-1 .1-2 .3-3 .5-2.1.1-4.2.4-6.1.9l-1.7.4c-2.9 0-5.6.4-8.4 1.3-3.9.1-7.5 1-10.8 2.5l2.6-1.3c-3.9 0-8 1-11.9 1.9h-7.2c-2.6 0-5.3.5-7.9.9l-3.2.4h-7.9c-2.7 0-5.5.5-8.1.9-2.2.3-4.5.9-6.7 1.4l-3.2.5-3.3.6h-2.2c-2.7 0-5.2.4-7.6 1.1-.9.2-1.8.4-2.7.7l.7-.2-5.6.4c-.5 0-.9.1-1.4.1-2.5.3-5.1.6-7.6 1.1h-.6c-3.9 0-7.6.8-10.9 2.3l-.4.2c-2.2 0-4.3.4-6.3.9-1.4.4-2.8.7-4.2 1.1-1 .1-2 .3-3 .5-1.1 0-2.2.1-3.2.2-2 .3-4.1.5-6.1.8-1.9.3-4 .6-5.9 1.1l-5.1 1.3c-.7.2-1.3.4-1.9.6l2.1-.7H311c-9.3-.1-17.7 5-22.3 12.6" style="fill-rule:evenodd;clip-rule:evenodd;fill:#bfc6f2"/><path class="st0" d="M237.2 199.5c32.2 14.1 43.4 60.8 25 104.3s-59.4 67.4-91.6 53.3-43.4-60.8-25-104.3 59.4-67.3 91.6-53.3"/><path class="st4" d="M329.2 27.2c-44.4-1.9-82 32.5-83.9 76.8-.9 21.6 6.7 41.6 19.9 56.6l50 76.4c2.6 3.9 7.2 4 10.2.1l58.3-73.8c13-13.6 21.4-31.9 22.3-52.2 2-44.4-32.4-81.9-76.8-83.9zm41.7 82.4c-1.1 25-22.3 44.4-47.3 43.3-25-1.1-44.4-22.3-43.3-47.3 1.1-25 22.3-44.4 47.3-43.3 25 1.1 44.4 22.3 43.3 47.3z"/><path class="st4" d="M326.3 92.9c8.1.4 14.4 7.2 14.1 15.4-.4 8.1-7.2 14.4-15.4 14.1-8.1-.4-14.4-7.2-14.1-15.4.4-8.2 7.2-14.5 15.4-14.1"/><path d="M436.5 583.3c-49.2 17.2-102.4 19.2-152.7 5.5 3.3-22.8 19.1-41.8 40.8-49.4 21.8-7.6 45.9-2.4 62.6 13.5 4.5 4.2 10.9 5.9 16.9 4.3 6-1.5 10.8-6 12.7-11.9 6.3-24 26.3-42 50.9-45.7s49 7.6 62.1 28.7a271.89 271.89 0 0 1-93.3 55" style="fill-rule:evenodd;clip-rule:evenodd;fill:#9fb1eb"/><path class="st6" d="M413.7 268.9c1.9 2 4 3.8 6.2 5.3l-62.8 42.9c-37 8.5-66.4 36.7-76.5 73.3-9.7 35.6-23.2 60.4-37.1 75.1-22.6 24.7-27.5 61.2-7 77.7 7.2 5.9 8.2 4.7 12-2.1 17-33.6 44.1-43.3 79.1-39.6 21.6 1.9 23.1-18.1 36.5-22.7 23.7-8.1 50.2-6.9 73.7 4.6 29.8 10.9 59.3 7.2 88.4-11.3 4.3-2.7 7.6-5.6-1-12.6-28.1-22.5-41.2-53.9-41-88.5-13.2-38.3-26.9-68.4-41-90.3 2.4-.1 4.9-.5 7.3-1.1 13.3-3.4 23.6-13.8 27-27.1-10.4-7.3-23.4-9.7-35.7-6.5-12.4 3.1-22.6 11.5-28.1 22.9"/><path d="M358.7 456.9c-1.7 22.1-46 44.1-59.2 24.4-2.6-3.9-3-8.8-1-13.1 3.8-7.6 5.1-16.1 3.8-25.2-3.4-15.1-20.4 3.5-49.1 16 10.3-12.5 23.4-31.4 39.2-56.7.9.2 1.8.4 2.7.8 1.5-22.9 15.1-44.2 36.8-54.7 57.6 14.4 91 31.3 100.3 50.8-1.8 1-3.5 2.3-5 4l-2.8 3.3c-.3.3-.5.6-.8 1-2.2 3-4.3 6-6.4 9-.2.3-.4.5-.5.8l-4.2 6.7-6.1 9.5-6.1 8.8c-.1.1-.1.2-.2.3l-5.4 8.1-5.3 7.5c-9.9-3-20.5-3.4-30.7-1.3" style="fill-rule:evenodd;clip-rule:evenodd;fill:#845fbf"/><path class="st8" d="M381 415.3c14.4-8.4 19.6-16.8 15.7-25.3-9.1-25.9-36.3-40.6-62.9-34.1s-43.9 32.2-40 59.3c8.5-16.2 25.3-26.3 43.6-26.3s35.1 10.2 43.6 26.4"/><path d="M268.5 425.3c-7.7 17.4-16 30.8-25 40.3 25.1-16 45.4-38.4 58.7-65 12.5-26.9 29.8-41 52-42.5-3.2-23.2-7.3-35.3-12.2-36.3-29.2 9.8-52.9 35.3-62.1 65.3-5.2 18.1-8 31.1-11.4 38.2" style="fill-rule:evenodd;clip-rule:evenodd;fill:#cbb1f5"/><path class="st10" d="M511.1 255.8c-3.4 41.2-4.8 61.9-4.1 62 9.4.5 17.5-1 22.8-6.9 0 0 34.7-38.7 104-116-12.3.4-22.6-9.3-23-21.6 0 0-33.3 27.5-99.7 82.5"/><path class="st11" d="m539.7 293 74.1-81.7c-18.3 15.3-32.2 24.1-41.5 26.6-12.3 3.7-20.2 7.1-23.7 10.2-2.9 2.2-6.7 2.7-10.1 1.4-3.4-1.3-5.8-4.3-6.5-7.8l-4.7 3.1c-3.8 9-6.8 16.6-9 22.8 9.4 6.2 16.9 15 21.4 25.4"/><path class="st12" d="M513.7 287.2c2.7 12.2 4.6 20.9 5.7 26.1 1.1-.6 2.4-1.5 4-2.8 3.7-3.4 9.2-9.2 16.4-17.5 4.7-6.3 4.2-15.1-1.3-20.7-2.6-4.2-3.8-7.9-3.5-11.1.4-6.4-1.5-12.7-5.4-17.8-1.7 1.3-2.5 1.9-2.5 1.9-13.4 25.1-17.9 39.1-13.4 41.9"/><path class="st11" d="M504.6 343.9c-55.9 14.9-86.5 14.3-91.8-1.9.3-15.6 2.1-27.2 5.3-34.9-6-20.2-1.7-33.6 14.6-41.5 7.9-3.8 16.5-8.1 32.1-8.1 33 10.9 49.6 16.4 49.6 16.4-.7 6 3 7.5 3 7.5 13.5 17.9-2.3 41.4-12.8 62.5"/><path class="st12" d="M450.2 292.3c-8.6 4.7-13 14.5-10.7 24 2.2 9.5 10.6 16.3 20.3 16.7 9.8.3 18.5-5.9 21.4-15.2-5.3-1-9.9-4.3-12.6-9s-3.2-10.3-1.4-15.4c-1.1-3.7-4.3-6.3-8.2-6.5-3.7-.2-7.3 1.9-8.8 5.4M610.8 173.3c-2.2 6.4-.4 13.6 4.5 18.2 5 4.7 12.2 6 18.5 3.4 1.6-6.4-.4-13.1-5.2-17.6-4.7-4.5-11.6-6-17.8-4"/><path d="M624.2 163.8c-10.7 25-9.7 36.3 3 34 4.5-3.6 8.4-7.3 11.9-10.9 10.9-1.1 19.9-9 22.4-19.7-17.5-8-26.2-12.1-26.2-12.1-11.4-1.5-15.2 1.4-11.1 8.7" style="fill-rule:evenodd;clip-rule:evenodd;fill:#f5c151"/><path class="st14" d="M615.5 187c-1.1 4 1.4 8.2 5.5 9 6.7-2.2 9.1-8.5 7.3-19l-.9-6.4 3.7 2.7c1.1.7 2.2 1.1 3.1 1.1l2.9 3.7c3.1 4 9 4.7 12.9 1.5 4-3.1 4.7-9 1.5-12.9l-7.6-9.6c-3.1-4-9-4.7-12.9-1.5-.9.7-1.7 1.6-2.2 2.5-1.8-1.1-4-1.2-5.9-.4-2.2.9-3.7 3-4 5.4l-3.4 23.9z"/><path class="st15" d="m628.2 170.1-1.4-3.3 4.3 1.6c1.2.4 2.4.5 3.3.2l3.8 2.8c4.1 3 9.9 2.1 12.9-2s2.1-9.9-2-12.9l-9.9-7.2c-4.1-3-9.9-2.1-12.9 2-.7.9-1.2 2-1.4 3-2-.5-4.2-.1-5.8 1.2-1.9 1.5-2.8 3.9-2.4 6.2l.5 3.5c3.7 1.4 7.5 3 11 4.9"/><path d="M632.7 138c5.4-4.3 13.3-3.3 17.6 2.1l10.3 13c4.3 5.4 3.3 13.3-2.1 17.6-5.4 4.3-13.3 3.3-17.6-2.1l-10.3-13c-4.2-5.4-3.3-13.3 2.1-17.6" style="fill-rule:evenodd;clip-rule:evenodd;fill:#fcd358"/><path class="st17" d="M611.5 180.7c-1.5 5.5 1.9 11.2 7.5 12.3 9.1-3 12.4-11.6 9.9-25.8l-1.2-8.7 5 3.6c6 4.2 12.4-.9 6.3-8.4l-8.4-11.6c-2.6-2-6-2.4-9-1.2-3 1.3-5.1 4.1-5.4 7.3l-4.7 32.5z"/><path class="st18" d="M401.9 489.9c2.3 1.3 3.9 3.6 4.6 6.4.8 2.8.7 6-.5 8.9l-3.6 9-3.6 9c-1.1 2.9-3.3 4.9-5.8 5.9-2.5.9-5.5.7-8.2-.8-2.7-1.5-4.6-4-5.5-6.9-.9-2.8-.7-6 .7-8.7 1.4-2.9 2.8-5.8 4.2-8.6 1.4-2.9 2.8-5.8 4.3-8.6 1.4-2.8 3.6-4.8 6-5.7 2.5-1.2 5.1-1.1 7.4.1"/><path class="st1" d="M406.2 489.1c2.3 1.3 3.9 3.6 4.6 6.4.8 2.8.7 6-.5 8.9l-3.6 9-3.6 9c-1.1 2.9-3.3 4.9-5.8 5.9-2.5.9-5.5.7-8.2-.8-2.7-1.5-4.6-4-5.5-6.9-.9-2.8-.7-6 .7-8.7 1.4-2.9 2.8-5.8 4.2-8.6 1.4-2.9 2.8-5.8 4.3-8.6 1.4-2.8 3.6-4.8 6-5.7 2.5-1.2 5.1-1.2 7.4.1"/><path class="st18" d="M337.9 518.7c2.7 0 5.2 1.3 7.3 3.3 2 2.1 3.6 4.9 4 8.1.5 3.3.9 6.5 1.4 9.7s.9 6.5 1.3 9.7c.2 1.4.1 2.8-.2 4 .5.1.9.4 1.2.7l-3.5 3.5-.5.5c-1.8 1.6-4.2 2.6-6.9 2.6-3.1 0-6.1-1.3-8.3-3.3-2.2-2.1-3.6-4.9-3.8-8.1-.2-3.2-.4-6.5-.6-9.7s-.4-6.5-.6-9.7c-.2-3.1.8-6 2.4-8.1.2-.2.4-.5.6-.7l.3-.3 3.6-3.6c.4.4.6.8.7 1.3.6.1 1.1.1 1.6.1"/><path class="st1" d="M341.6 514.9c2.7 0 5.2 1.3 7.3 3.3 2 2.1 3.6 4.9 4 8.1.5 3.3.9 6.5 1.4 9.7s.9 6.5 1.3 9.7c.4 3.1-.4 6-2.2 8.1-1.8 2.1-4.5 3.3-7.6 3.3-3.1 0-6.1-1.3-8.3-3.3-2.2-2.1-3.6-4.9-3.8-8.1-.2-3.2-.4-6.5-.6-9.7s-.4-6.5-.6-9.7c-.2-3.1.8-6 2.4-8.1 1.7-2 4-3.3 6.7-3.3M462.3 260.8c35 9.1 52.5 13.6 52.5 13.6.5 12.1-6.8 23.3-18.1 27.6-11.3 4.4-24.2 1.1-32-8.3-7.7-9.3-8.7-22.5-2.4-32.9"/><path d="M469 263.6c27.6 7.1 41.4 10.7 41.4 10.7.4 9.6-5.3 18.3-14.3 21.8-8.9 3.5-19.1.8-25.2-6.5-6.1-7.3-6.8-17.8-1.9-26" style="fill-rule:evenodd;clip-rule:evenodd;fill:#fcc44b"/><path d="M488.7 363.7c-5 5.2-5.3 7.2-4 15.9 3.3 18.2 5.3 38.5 6 61.1.5 16.6-8.2 26.2-22.4 34-17.6 9.6-37.6 19.5-59.8 29.3-3.2-.5-6.1-2.3-7.9-4.9-1.8-2.7-2.4-6-1.6-9.1 0 0 7.6-8.7 22.3-25.7 10.2-12 18.2-17.4 28-22.3 2.5-1.3 1.6-2.1-1.5-6.5-3.3-4.8-6.5-13.9-9.1-25.3-1.3-4.9-2.3-5-3.5-1.7-9.9 22.1-43.6 65.5-83.5 116-6.1 1.9-12.8-.4-16.5-5.6 3.5-30.2 11.7-52.4 22.4-68.2 4.3-6.3 11.5-19.5 14.9-42 3.3-25.5 14.5-47.2 33.1-65.6 3.3-3.3 5.6-5.4 8.3-4 6.1 3.3 13.4 3.9 20 1.6 7.5-2.7 13.3-8.8 15.5-16.5.6-2.2 1.6-3.5 3-3.8 17.1-3.9 34.9-3.3 51.6 1.8 2.7.9 3.6 3.3 2.6 6-2.8 6.7-3.7 11.1-2.6 13.5.9 2.2.7 3-.5 4.9-3.5 5.1-9.7 12.2-14.8 17.1" style="fill-rule:evenodd;clip-rule:evenodd;fill:#4a1799"/><path class="st8" d="M453.8 318.4c1.2 5.8 4.3 7.7 9.3 5.6 4.2-16.5 1.5-39.6-8.3-69.3-3.1-.9-6.5-.1-8.8 2.1 8.3 17.9 10.9 38.4 7.8 61.6M513.1 277.4c3.7 1.6 6.6 4.8 8 8.6-2.2 10.6-9.9 27.4-23 50.2-3.7 1.9-6.4.5-8-4.2 13.6-23.5 21.3-41.7 23-54.6M455.6 339c-5.5 28.8-8.3 43.2-8.3 43.2 10 2.7 20.7-.4 27.6-8.1 6.2-10.8 11.4-22.3 15.3-34.2-11.5-1.9-23.1-2.2-34.6-.9"/><path class="st14" d="M466.9 268.3c6.6-5.9 19.2-2.6 37.7 9.7-3.9 6.2-10.3 10.4-17.6 11.3-7.3.9-14.6-1.5-19.9-6.5-1.7-4.6-1.8-9.8-.2-14.5"/><path class="st15" d="M470.3 257c7.5-4.7 19.3.6 35.5 15.9-4.8 5.5-11.9 8.5-19.2 8.2-7.3-.3-14.1-3.9-18.5-9.7-.8-4.9-.1-10 2.2-14.4"/><path class="st21" d="M443.5 398.3c-2.9.2-3.5 3.6-1.7 11.2 3.1 12.1 6.1 20.4 9.2 24.7 3.4 5.4 3.2 8.3-.4 10.1-12.4 5.9-23.7 16.7-35.4 31.4-3.7 4.4-7.2 8.3-10.4 11.9-1.3 1.3-.1 2.5 2.2.6 6.9-6.1 16-11.2 27.4-15.1 25.9-8 35.9-20.4 30.2-37.3-1.7-6.3-2.1-11.4-1.1-15.1 1.3-5.8-.3-11.9-4.2-16.3-4-4.5-9.9-6.8-15.8-6.1M341.9 494.2c6.2-17.5 11.3-31.6 19.3-42.3 7.3-9.8 12-25.7 15.7-42 2-8.7 3.6-15.8 4.8-21.2 35.4-2.5 53.2-3.8 53.2-3.8-6.2 18.3-20.1 33-37.9 40.3-8.9 4.7-15.2 13.4-18.9 26.2-6.5 20.3-17.9 35.6-34.1 45.8-2.1 1.4-3.1.1-2.1-3"/><path class="st14" d="M359.6 382.8c16.4-14.1 25.3-13.1 26.6 2.8-2.1 6-8.1 9.9-14.4 9.2-6.4-.7-11.4-5.7-12.2-12"/><path d="m385.1 320.8 43.6 34.7c-.2-.9-.4-1.8-.5-2.8 0 0 13.2-7.6 39.7-22.9-10 28.7-15.4 43.9-16 45.8 0 .1 0 .1-.1.2-.2.5-.5.9-1 1.3l-40.6 29.7c-1.4 1-3.7 1-5 0L334 350.1c-.9-.7-1.1-1.7-.8-2.6 0 0 0-.1.1-.1.6-1.6 5.9-16.7 15.8-45.2 25.5 10.8 38.2 16.1 38.2 16.1-.8.9-1.5 1.7-2.2 2.5" style="fill-rule:evenodd;clip-rule:evenodd;fill:#f7c42a"/><path class="st23" d="m395.7 270.6 71.2 56.7c1.3 1.1 1.3 2.8-.2 3.9l-40.6 29.7c-1.4 1-3.7 1-5 0l-71.2-56.7c-1.3-1.1-1.3-2.8.2-3.9l40.6-29.7c1.4-1.1 3.7-1 5 0"/><path d="M372.5 322.2c2.4 1.9 3.6 2.8 3.6 2.8s2.2 1.7 6.5 5.2c8-3.2 16.8-3.4 25-.7 7.5 2.8 16 1.9 22.7-2.5s11-11.8 11.4-19.8c-46.2 10-69.2 15-69.2 15" style="fill-rule:evenodd;clip-rule:evenodd;fill:#e66220"/><path class="st1" d="M381.7 388.7c8.1 6.5 12.2 9.7 12.2 9.7s5.4-15.5 16.1-46.6c0 0 .6-2-1.6-3.7-2-1.6-4-5-10.5-5.9-10.9 31-16.2 46.5-16.2 46.5"/><path d="M443.7 308.2c7.8 6.2 11.6 9.3 11.6 9.3s-15.1 11.4-45.4 34.3c0 0-4-3.2-12.1-9.6 30.6-22.6 45.9-34 45.9-34" style="fill-rule:evenodd;clip-rule:evenodd;fill:#ffc"/><path class="st23" d="M353 331c8.8 20.5 9.5 32.5 2.2 36 0 0-2.2-1.7-6.6-5.2-6-10-4.2-22.9 4.4-30.8m26.3-3.4c-7.9 16.3-9.3 35.1-3.8 52.4 8.3-7 10.4-17 6.4-30-2.3-6.4-2.1-13.5.6-19.8-2.1-1.7-3.2-2.6-3.2-2.6z"/><path class="st6" d="M427.8 255.9c25.4-10.8 41.4-6.7 48.1 12.3-7.1 7.4-17.7 10.4-27.6 7.8a28.89 28.89 0 0 1-20.5-20.1"/><path class="st17" d="M483.8 215.9c-14.5 6-19.7 17.3-15.7 33.9.9 3.5 2.3 8.2 4.2 14 3.9 11.3 14.5 19.3 26.7 20.4s24.9-4.2 29.7-14.9c4.8-10.4 2.4-23.8-5.8-32.7-3.8-4.3-5.6-9.1-6-14.1-.5-3.8-1.2-6.8-2.2-8.8-8.7-13.9-19-13.2-30.9 2.2"/><path d="M484.8 217.8c-13.5 5.6-18.4 16.1-14.6 31.7.9 3.3 2.2 7.6 3.9 13 3.3 9.3 11.4 16.3 21.2 18.5-5.8-6.7-9.4-15.4-9.4-25 0-17.9 12.3-32.8 29-36.9-.3-1.3-.7-2.5-1.2-3.4-8.1-13-17.7-12.3-28.9 2.1" style="fill-rule:evenodd;clip-rule:evenodd;fill:#fab02f"/><path class="st15" d="M484.8 217.8c-13.5 5.6-18.4 16.1-14.6 31.7.9 3.3 2.2 7.6 3.9 13 1 2.9 2.5 5.5 4.3 7.8-2.5-17.2 2.9-35.2 16.1-48.5 4.7-4.7 9.9-8.3 15.5-11-7.3-7.6-15.7-5.3-25.2 7"/><path class="st27" d="M456.4 243.2c4.8-10.6 11.1-16.1 18.8-16.5-1.2 1.1-1.5 2.7-.3 4.5 2 3.4 1.5 7.8-1.4 10.5-2.8 2.8-3.2 5.9-1.8 9.5 1.5 4.1 1.1 5.3-.8 3.5-3.4-3.2-6.2-4.3-8.5-3.7-2.4.6-3.8-.4-4.3-2.7-.1-.8-.4-1.3-.8-1.6-1.3-1.1-1.5-2.3-.9-3.5M496.6 209.7c10-7.1 16.4-8.3 19.4-3.5 1 2.1.9 4.7-.7 7.8-.4.9-.8 1-1.1.3-.9-2.2-1.8-3-2.8-2.3-1.5 1-2.7.7-3.6-.8-1.1-2.3-2.8-2.4-4.5-.5-.9 1-2.3 1.5-3.6 1.3a4.8 4.8 0 0 1-3.1-2.3"/><path class="st28" d="M474.4 181.3c-6 13.6-7.9 30.3-5.7 50-3.1 1.8-6.3 5.5-9.4 11.3-1.3 2.6-2.9 2.5-5.1-.5-16.5-23.3-9.8-43.6 20.2-60.8"/><path class="st1" d="M513.2 198.4c-15.3 1.2-30.5 11.7-45.4 31.5-8.1-11.5-12.1-21.8-8.2-30.9 8.3-19.7 24-25.3 43-17.2 4.3 2 7.6 7 10.6 16.6"/><path class="st29" d="M498.1 240.9c1.1-.5 2.5 0 2.9 1.2.5 1.1 0 2.5-1.2 2.9-1.1.5-2.5 0-2.9-1.2-.5-1.1 0-2.4 1.2-2.9M516.4 233.1c1.1-.5 2.5 0 3 1.2.5 1.1 0 2.5-1.2 3-1.1.5-2.5 0-3-1.2-.5-1.1 0-2.5 1.2-3"/><path transform="rotate(-17.801 472.397 249.041)" d="M462.2 247.9h20.4v2.3h-20.4z"/><path class="st17" d="M469.1 253c10.4 11 7.1 18.2-7.3 14.3-3.5-.8-6.4-3.4-6.9-7-.6-3.6 1.2-7.1 4.4-8.8 3.2-1.6 7.2-1 9.8 1.5"/><path class="st30" d="M467.9 256.1c5.4 5.7 3.7 9.4-3.8 7.5-1.8-.4-3.3-1.8-3.6-3.6-.3-1.9.6-3.7 2.3-4.6 1.8-.9 3.8-.6 5.1.7"/><path class="st27" d="M486.6 228.3c0 .9.7 1 1.2.1 1.3-2.3 3.5-3.9 6-4.4.8-.2 1.3-.8 1.3-1.6-.1-.8-.7-1.4-1.5-1.3-3.9.2-6.9 3.3-7 7.2M514 216.9c.5.6.1 1.1-.7.8-2.1-.7-4.5-.5-6.4.6-.6.4-1.3.2-1.7-.3-.4-.5-.3-1.3.2-1.7 2.5-2.1 6.3-1.8 8.6.6"/><path class="st30" d="M521.2 245.1c-11.9-12.9-15.8-10-8.6 3.8-1.1-.3-2.2.2-2.8 1.2-.6 1-.5 2.2.3 3s2 1.1 3 .6c1.3-1.1 2.5-1.1 3.6 0 6.5 0 8.9-6.7 4.5-8.6"/><path d="M498.9 231.9c-2.7-1.1-5.9-1.2-8.8 0s-5 3.6-6.1 6.3c-1.1 2.8-1.1 6 .2 9s3.6 5.2 6.4 6.3c2.7 1.1 5.9 1.2 8.8 0s5-3.6 6.1-6.3c1.1-2.8 1.1-6-.2-9s-3.7-5.2-6.4-6.3m23.6-9.6c-2.2-1.1-4.8-1.4-7-.4s-3.8 2.9-4.5 5.3c-.7 2.5-.6 5.4.6 8.2 1.2 2.8 3.2 4.9 5.5 6.1 2.2 1.1 4.8 1.4 7 .4s3.8-2.9 4.5-5.3c.7-2.5.6-5.4-.6-8.2-1.2-2.8-3.2-4.9-5.5-6.1zm-33.3 7.5c3.5-1.5 7.3-1.4 10.6 0 2.7 1.1 5.2 3.2 6.8 5.9.3-.2.6-.3.9-.5.4-.2.9-.4 1.3-.6-.8-2.7-.8-5.5 0-7.9.9-3.1 2.9-5.6 5.8-6.8 2.9-1.2 6.1-1 9 .5 2.8 1.4 5.2 3.9 6.6 7.3 1.4 3.3 1.6 6.8.7 9.8-.9 3.1-2.9 5.6-5.8 6.8-2.9 1.2-6.1 1-9-.5-2.7-1.4-5.1-3.8-6.5-6.9-.4.2-.7.3-1.1.5-.3.2-.6.3-.9.5 1.4 3.4 1.3 7.1 0 10.3-1.3 3.3-3.8 6.1-7.3 7.6s-7.3 1.4-10.6 0-6.1-4-7.6-7.5c-1.5-3.6-1.5-7.4-.2-10.7 1.3-3.5 3.8-6.3 7.3-7.8z"/><path d="M523.5 254.8c.3-.8.9-.7 1.4.4 1 2.7.5 5.7-1.4 7.9-1.8 2.2-4.7 3.2-7.6 2.7-2.8-.5-5.1-2.5-6.1-5.2-.5-1.1-.2-1.5.9-1.1 4.9 1.9 11.2-.5 12.8-4.7" style="fill-rule:evenodd;clip-rule:evenodd;fill:#cc370e"/><path class="st0" d="M483.7 213.3c-4.6 4.1-9.3 9.2-13.9 15.3-7.1-10-10.6-19.1-7.2-27 2.3-5.5 5.4-9.8 8.9-12.8.7 9.5 5.1 18.3 12.2 24.5"/><path class="st28" d="M493.2 209.4c-.8 2.1-.9 3.8-.5 5 8.5-8.5 17.9-11.1 22.5-7.6.6.5 1.4.4 2.3.1 3.3-1.2 6.1-2.5 8.6-3.9 2.5-2 2.4-3.3-.3-4.1-13.6-2.1-24.5 1.4-32.6 10.5"/><path class="st1" d="M525.6 200.8c.9.1 1.5.4 1.7.8l.2-.1.1-.2c.1-.2.2-.4.4-.6-.2-.5-.4-.9-.5-1.4-.5-.2-1-.4-1.7-.5-23.8-4.4-44.9 5.9-56.2 28.7-.4-.1-1.2.4-2.4 1.2 0 0 .3.8 1 2.3.2.3.8.2 1.9-.4 4.9-2.9 9.8-5.7 14.5-8.5 3.4-2 5.3-4.2 6.6-6 8.8-12.6 20.2-17.7 34.4-15.3"/><path d="M525.2 200c2.2.4 2.4 1.4.6 3.1 4.1-2.1 3.8-4.2-.4-5.1-24.7-5-46.5 5.4-57.7 29.1-1 2-.5 2.4 1.5 1.3 5-2.8 9.9-5.5 14.7-8.2 3.4-1.9 5.4-4.1 6.7-5.8 8.8-12.3 20.3-17.2 34.6-14.4" style="fill-rule:evenodd;clip-rule:evenodd;fill:#a2bee0"/><path class="st11" d="M486.9 211.8h-1.5c-1.6 0-3.1-.1-4.7-.3-3.3 3.2-6.2 7.3-8.4 12-.7 1.4-.4 1.7 1.1.9 3.6-2 7.1-3.9 10.5-5.8 2.4-1.4 3.9-2.9 4.8-4.1.7-1 1.5-2 2.3-2.9-1.4.1-2.7.2-4.1.2"/><path class="st10" d="M356.5 380.3c2.4 2.8 5.9 4.4 9.6 4.3s7.2-1.7 9.5-4.6c0 0 1.4-17 3.7-51 .3-3.5 1.7-5.5 4.6-6l57.3-13.8c9.1-2.2 15.6-7.8 18.9-16 4.1-10.3 1.5-22-6.6-29.5s-20.3-9.6-29.9-4.3c-21.5 11.7-41.7 23.7-60.8 36.2-9.1 5.6-13.4 13-12.1 24.2 3.8 40.3 5.8 60.5 5.8 60.5"/><path class="st28" d="M365.4 333.8c1.4 2.6 2.6 5.5 3.6 8.9 1.3 5 5.5 9.6 6.2-10.7l.3-4.4c.3-4.5 3.2-7.4 8-8.6l7.9-2c4.9-3 10.4-5.3 16.2-6.8 2.8-.7 5.6-1.2 8.5-1.5 2.7-.5 5.4-.8 8.1-.9l2.1-.6c.8-.2 1.6-.4 2.5-.6 1.4-.5 2.9-.9 4.3-1.3.7-.2 1.4-.4 2-.6.7-.2 1.5-.5 2.2-.7.5-.2 1-.3 1.5-.5 2.5-1.6 5.1-2.9 7.8-4.1 1.9-1.5 3.8-2.9 5.8-4.1 4.6-6.8 5.4-15.5 2.3-23-3.8 11.2-14.5 18.6-26.3 18.1-18.7-1.5-32.7 3.6-42.1 15.5-4.2 5.4-9 7.2-12.7 8.4-8.3 2.9-12.5 11.7-8.2 19.5"/><path class="st12" d="M443.5 298.2c1.6-4.4 6.2-6.9 10.8-5.9-2.8 5.9-7.8 10.5-13.9 12.6-15 3.8-33.9 8.5-56.8 14.1 6.7-2.9 11.4-6.2 14.1-9.6 7.6-9.7 21-12.8 32-7.3 2.3 1.5 5.2 1.9 7.8 1.1 2.6-.7 4.8-2.5 6-5"/><path d="M547.4 395.2c1.7.5 3.3 1.2 4.6 2.2s2.4 2.1 3.1 3.4c.8 1.3 1.3 2.8 1.5 4.4s0 3.3-.4 5c-.5 1.9-1.3 3.5-2.3 4.9s-2.2 2.5-3.6 3.3c-1.4.8-3 1.3-4.7 1.5s-3.5 0-5.4-.5c-1.7-.5-3.3-1.2-4.6-2.2s-2.4-2.1-3.1-3.5c-.8-1.3-1.2-2.8-1.4-4.5-.2-1.6 0-3.3.4-5 .5-1.8 1.3-3.4 2.3-4.8s2.2-2.4 3.6-3.2c1.4-.8 2.9-1.3 4.7-1.4 1.6-.3 3.4-.1 5.3.4m-2.1 5.7c-2.2-.6-3.9 1.1-5 5.2-.5 2-.6 3.6-.3 4.8.3 1.3 1.1 2 2.2 2.4 1.2.3 2.2.1 3-.7.8-.8 1.5-2.3 2.1-4.4 1.2-4.2.5-6.6-2-7.3zm23.3 30.1c1.8.5 3.3 1.2 4.6 2.2s2.4 2.1 3.1 3.4c.8 1.3 1.3 2.8 1.5 4.4s0 3.3-.4 5c-.5 1.9-1.3 3.5-2.3 4.9s-2.2 2.5-3.6 3.3c-1.4.8-3 1.3-4.7 1.5s-3.5 0-5.4-.5c-1.7-.5-3.3-1.2-4.6-2.2s-2.3-2.1-3.1-3.5c-.7-1.3-1.2-2.8-1.4-4.5-.2-1.6-.1-3.3.4-5 .5-1.9 1.3-3.5 2.3-4.8 1-1.4 2.2-2.4 3.6-3.2 1.4-.8 3-1.3 4.7-1.4 1.6-.3 3.4-.1 5.3.4zm-2.1 5.7c-2.2-.6-3.9 1.1-5 5.2-.5 2-.6 3.6-.3 4.8.4 1.2 1.1 2 2.2 2.3 1.2.3 2.2.1 3-.7.8-.8 1.5-2.3 2.1-4.4 1.2-4.1.5-6.5-2-7.2zm-29.8 10.6-7.2-2 42.3-42.4 7.2 2-42.3 42.4z" style="fill:#fff"/><path class="st1" d="M348.3 271.8c-2.7 0-5.2 1.3-6.7 3.5s-1.8 5-.9 7.5c0 0 16.7-9.6 50-28.9-2.5-1.6-5.5-2-8.3-1.1s-5 2.9-6.1 5.6c-4-7.1-12.9-10-20.2-6.4-7.4 3.6-10.8 12.2-7.8 19.8M529.8 359.1c-4 0-7.7 2-10 5.3s-2.7 7.5-1.3 11.2c0 0 25-14.4 74.9-43.3-3.7-2.4-8.2-3-12.4-1.7s-7.5 4.4-9.2 8.5c-6-10.7-19.3-14.9-30.3-9.7-11.1 5.3-16.2 18.3-11.7 29.7M209.5 506.5c2.5 0 4.5 2 4.5 4.5s-2 4.5-4.5 4.5-4.5-2-4.5-4.5 2.1-4.5 4.5-4.5M252.6 512.8c1.8 0 3.2 1.4 3.2 3.2s-1.4 3.2-3.2 3.2-3.2-1.4-3.2-3.2c0-1.8 1.4-3.2 3.2-3.2M322.3 462.3c1.4 0 2.4 1.1 2.4 2.4 0 1.4-1.1 2.4-2.4 2.4-1.4 0-2.4-1.1-2.4-2.4-.1-1.3 1-2.4 2.4-2.4M270.6 547.2c1.3 0 2.3 1 2.3 2.3s-1 2.3-2.3 2.3-2.3-1-2.3-2.3 1-2.3 2.3-2.3M387.2 567.2c1 0 1.8.8 1.8 1.8s-.8 1.8-1.8 1.8-1.8-.8-1.8-1.8c.1-1 .9-1.8 1.8-1.8M584.2 407.1c1.8 0 3.2 1.4 3.2 3.2 0 1.8-1.4 3.2-3.2 3.2s-3.2-1.4-3.2-3.2 1.4-3.2 3.2-3.2M423.8 387.3c.9 0 1.6.7 1.6 1.6s-.7 1.6-1.6 1.6-1.6-.7-1.6-1.6c0-.9.7-1.6 1.6-1.6M302.9 375.8c.8 0 1.5.7 1.5 1.5s-.7 1.5-1.5 1.5-1.5-.7-1.5-1.5c-.1-.8.6-1.5 1.5-1.5M429.1 302.1c.8 0 1.4.6 1.4 1.4s-.6 1.4-1.4 1.4-1.4-.6-1.4-1.4c0-.7.7-1.4 1.4-1.4M492.5 339c.8 0 1.4.6 1.4 1.4s-.6 1.4-1.4 1.4-1.4-.6-1.4-1.4.7-1.4 1.4-1.4M191.4 441.9c1.4 0 2.5 1.1 2.5 2.5s-1.1 2.5-2.5 2.5-2.5-1.1-2.5-2.5c-.1-1.4 1.1-2.5 2.5-2.5M519 514.9c1.7 0 3.1 1.4 3.1 3.1 0 1.7-1.4 3.1-3.1 3.1-1.7 0-3.1-1.4-3.1-3.1 0-1.8 1.4-3.1 3.1-3.1M547.4 261.9c1.3 0 2.3 1 2.3 2.3s-1 2.3-2.3 2.3-2.3-1-2.3-2.3c0-1.3 1-2.3 2.3-2.3M398.4 214.9c1.7 0 3.1 1.4 3.1 3.1 0 1.7-1.4 3.1-3.1 3.1s-3.1-1.4-3.1-3.1c0-1.7 1.4-3.1 3.1-3.1M575.7 208.6c.8 0 1.5.7 1.5 1.5s-.7 1.5-1.5 1.5-1.5-.7-1.5-1.5c-.1-.8.6-1.5 1.5-1.5"/></svg>