<svg version="1.1" id="Layer_1" xmlns="http://www.w3.org/2000/svg" xmlns:xlink="http://www.w3.org/1999/xlink" x="0" y="0" viewBox="0 0 600 400" style="enable-background:new 0 0 600 400" xml:space="preserve"><style>.st12,.st17,.st27{fill-rule:evenodd;clip-rule:evenodd;fill:#36bbac}.st17,.st27{fill:#fff}.st27{fill:#fdf6e3}.st28,.st29,.st30,.st31,.st37,.st43{fill-rule:evenodd;clip-rule:evenodd;fill:#bbd76b}.st29,.st30,.st31,.st37,.st43{fill:#e3e88a}.st30,.st31,.st37,.st43{fill:#f6f9f0}.st31,.st37,.st43{fill:#31af82}.st37,.st43{fill:#63c08c}.st43{fill:#a9d7b5}.st47,.st53,.st55,.st57,.st59,.st61{fill-rule:evenodd;clip-rule:evenodd;fill:#029d71}.st53,.st55,.st57,.st59,.st61{fill:#2bb57a}.st55,.st57,.st59,.st61{fill:#0da875}.st57,.st59,.st61{fill:#128b7a}.st59,.st61{fill:#24a592}.st61{opacity:.27;fill:#c2e5e3}</style><path style="fill-rule:evenodd;clip-rule:evenodd;fill:#f3f9fa" d="M-170.3-.1H602v238.3h-772.3z"/><defs><filter id="Adobe_OpacityMaskFilter" filterUnits="userSpaceOnUse" x="-170.3" y="-.1" width="772.3" height="238.3"><feColorMatrix values="1 0 0 0 0 0 1 0 0 0 0 0 1 0 0 0 0 0 1 0"/></filter></defs><mask maskUnits="userSpaceOnUse" x="-170.3" y="-.1" width="772.3" height="238.3" id="SVGID_1_"><g style="filter:url(#Adobe_OpacityMaskFilter)"><linearGradient id="SVGID_2_" gradientUnits="userSpaceOnUse" x1="-15.487" y1="596.388" x2="-121.693" y2="222.126" gradientTransform="translate(261.62 -370.602)"><stop offset="0" style="stop-color:#000"/><stop offset="1" style="stop-color:#fff"/></linearGradient><path style="fill:url(#SVGID_2_)" d="M-170.3-.1H602v238.3h-772.3z"/></g></mask><path style="mask:url(#SVGID_1_);fill-rule:evenodd;clip-rule:evenodd;fill:#c2e5e3" d="M-170.3-.1H602v238.3h-772.3z"/><defs><filter id="Adobe_OpacityMaskFilter_1_" filterUnits="userSpaceOnUse" x="-170.3" y="10.8" width="643.7" height="267.6"><feColorMatrix values="1 0 0 0 0 0 1 0 0 0 0 0 1 0 0 0 0 0 1 0"/></filter></defs><mask maskUnits="userSpaceOnUse" x="-170.3" y="10.8" width="643.7" height="267.6" id="SVGID_3_"><g style="filter:url(#Adobe_OpacityMaskFilter_1_)"><linearGradient id="SVGID_4_" gradientUnits="userSpaceOnUse" x1="-717.952" y1="356.083" x2="13.292" y2="505.746" gradientTransform="translate(261.62 -335.906)"><stop offset="0" style="stop-color:#000"/><stop offset="1" style="stop-color:#fff"/></linearGradient><path style="fill:url(#SVGID_4_)" d="M-170.3 10.8h643.7v267.6h-643.7z"/></g></mask><path d="M-170.3 138.5C223 289.8 437.6 318.4 473.4 224.3c-49.4-20.5-104.5-22.4-155.1-5.4-31.8 11-66.3 13.2-99.8 5.9-49.1-10.6-91.9-40.8-118.4-83.5C43 49.1-62.8-1-170.3 13.2v125.3" style="mask:url(#SVGID_3_);fill-rule:evenodd;clip-rule:evenodd;fill:#c2e5e3"/><path d="M-170.3 254.4c262.6 78.1 439.9 84.8 531.9 20.2-48.8-34.8-109.1-49.5-168.4-41.3-58.2 9.4-118.1-8.3-162.1-48.7-54.2-50.8-127.3-76.5-201.4-70.8v140.6" style="fill-rule:evenodd;clip-rule:evenodd;fill:#c2e5e3"/><defs><filter id="Adobe_OpacityMaskFilter_2_" filterUnits="userSpaceOnUse" x="-170.3" y="113" width="531.9" height="205.5"><feColorMatrix values="1 0 0 0 0 0 1 0 0 0 0 0 1 0 0 0 0 0 1 0"/></filter></defs><mask maskUnits="userSpaceOnUse" x="-170.3" y="113" width="531.9" height="205.5" id="SVGID_5_"><g style="filter:url(#Adobe_OpacityMaskFilter_2_)"><linearGradient id="SVGID_6_" gradientUnits="userSpaceOnUse" x1="-99.582" y1="494.677" x2="-362.545" y2="583.118" gradientTransform="translate(261.62 -301.25)"><stop offset="0" style="stop-color:#000"/><stop offset="1" style="stop-color:#fff"/></linearGradient><path style="fill:url(#SVGID_6_)" d="M-170.3 113h531.9v205.5h-531.9z"/></g></mask><path d="M-170.3 254.4c262.6 78.1 439.9 84.8 531.9 20.2-48.8-34.8-109.1-49.5-168.4-41.3-58.2 9.4-118.1-8.3-162.1-48.7-54.2-50.8-127.3-76.5-201.4-70.8v140.6" style="mask:url(#SVGID_5_);fill-rule:evenodd;clip-rule:evenodd;fill:#87cfc8"/><path d="M-170.3 241.3c210.3 60.1 332.7 71.7 367 34.8-44.6 17.9-96.1 6.2-127.7-29C8.9 182.2-81.2 151.3-170.3 165v76.3" style="fill-rule:evenodd;clip-rule:evenodd;fill:#63c4b7"/><path class="st12" d="M-170.3 309.5c317.1 39.2 497.2 26.2 540.3-38.9-67.3-22-139.7-23.1-207.7-3.1-60.1 18.9-125.4 12.7-180.8-17.2-46.4-25.2-99-37-151.8-34.2v93.4"/><defs><path id="SVGID_7_" d="M-170.3 309.5c317.1 39.2 497.2 26.2 540.3-38.9-67.3-22-139.7-23.1-207.7-3.1-60.1 18.9-125.4 12.7-180.8-17.2-46.4-25.2-99-37-151.8-34.2v93.4"/></defs><clipPath id="SVGID_8_"><use xlink:href="#SVGID_7_" style="overflow:visible"/></clipPath><g style="clip-path:url(#SVGID_8_)"><defs><path id="SVGID_9_" d="M-170.3 215.7H370v115.8h-540.3z"/></defs><clipPath id="SVGID_10_"><use xlink:href="#SVGID_9_" style="overflow:visible"/></clipPath><g style="clip-path:url(#SVGID_10_)"><image style="overflow:visible" width="1296" height="277" xlink:href="A63F24C.png" transform="matrix(.4169 0 0 .418 -170.286 215.747)"/></g></g><path class="st12" d="M-170.3 299.9h494.9v100h-494.9z"/><defs><path id="SVGID_11_" d="M-170.3 299.9h494.9v100h-494.9z"/></defs><clipPath id="SVGID_12_"><use xlink:href="#SVGID_11_" style="overflow:visible"/></clipPath><g style="clip-path:url(#SVGID_12_)"><defs><path id="SVGID_13_" d="M-170.3 299.9h494.9v100h-494.9z"/></defs><clipPath id="SVGID_14_"><use xlink:href="#SVGID_13_" style="overflow:visible"/></clipPath><g style="clip-path:url(#SVGID_14_)"><image style="overflow:visible" width="1187" height="240" xlink:href="A63F24D.png" transform="matrix(.417 0 0 .4168 -170.286 299.95)"/></g></g><defs><path id="SVGID_15_" d="M-170.3 365.1c82.5-6 165-12 247.4-17.9 82.5-6 165-12 247.5-17.9V401c-82.5-6-165.1-12-247.5-17.9-82.4-6-164.9-12-247.4-18"/></defs><clipPath id="SVGID_16_"><use xlink:href="#SVGID_15_" style="overflow:visible"/></clipPath><g style="clip-path:url(#SVGID_16_)"><defs><path id="SVGID_17_" d="M-170.3 329.3h494.9V401h-494.9z"/></defs><clipPath id="SVGID_18_"><use xlink:href="#SVGID_17_" style="overflow:visible"/></clipPath><g style="clip-path:url(#SVGID_18_)"><image style="overflow:visible" width="1187" height="172" xlink:href="A63F253.png" transform="matrix(.417 0 0 .4168 -170.286 329.274)"/></g></g><defs><path id="SVGID_19_" d="M97.7 322.6c37.8-2.8 75.6-5.5 113.4-8.3 37.8-2.8 75.7-5.5 113.5-8.3v33c-37.8-2.8-75.7-5.5-113.5-8.3-37.7-2.6-75.6-5.3-113.4-8.1"/></defs><clipPath id="SVGID_20_"><use xlink:href="#SVGID_19_" style="overflow:visible"/></clipPath><g style="clip-path:url(#SVGID_20_)"><defs><path id="SVGID_21_" d="M97.7 306.1h226.9v33.1H97.7z"/></defs><clipPath id="SVGID_22_"><use xlink:href="#SVGID_21_" style="overflow:visible"/></clipPath><g style="clip-path:url(#SVGID_22_)"><image style="overflow:visible" width="544" height="79" xlink:href="A63F255.png" transform="matrix(.4172 0 0 .4187 97.721 306.078)"/></g></g><path class="st17" d="M82.8 76.8c23.3 4.2 34.9 6.4 34.9 6.4h-258.3c14.2-3.1 21.3-4.6 21.3-4.6 2.1-6 7.1-10.6 13.2-12.3 6.1-1.7 12.7-.3 17.7 3.7 1-10.5 7.5-19.6 17.2-23.8 9.6-4.2 20.8-2.8 29.1 3.6 10.8-18.1 31.9-27.4 52.5-23C31 31.1 46.6 48 49.2 68.9c5.2-4.3 12.2-6 18.8-4.4 6.6 1.6 12.1 6.1 14.8 12.3M302.1 108.4l16.5 5.1H155.2c24.9-3.3 37.4-4.9 37.4-4.9 3.6-8.6 12.6-13.7 21.8-12.2 6.3-13.8 20.3-22.3 35.4-21.5 15.1.8 28.2 10.7 33 25.1 7.5-2.6 15.9 1 19.3 8.4"/><path d="M279.8-.1h112.9l111 91.8c8.8-3.7 18.9-2.7 26.8 2.8 2.1 1.5 4 3.2 5.6 5.2L602 62.3v62.9c-12.1 8.3-27.2 10.6-41.2 6.2-7-2.2-13.2-5.9-18.4-10.8-6.1 10-17.2 15.8-28.9 15.1-8.7-.6-16.6-4.7-22.1-11.2-3.5 1.9-7.3 3.4-11.3 4.3-15.5 3.4-31.5-2.4-41.3-14.9-24.3 16-55.8 16.2-80.4.5-24.5-15.7-37.6-44.3-33.3-73.2-12.1 6.4-27 4.5-37.1-4.8-10.1-9.2-13.4-23.8-8.2-36.5" style="fill-rule:evenodd;clip-rule:evenodd;fill:#1e9d49"/><path d="M524 226.3c37-17.5 55.6-26.3 55.6-26.3s-2.5-44.2-7.4-132.7c0 0-13.5 5.5-40.6 16.4-4.9 94.4-7.4 142-7.6 142.6" style="fill-rule:evenodd;clip-rule:evenodd;fill:#434e22"/><defs><path id="SVGID_23_" d="M524 226.3c37-17.5 55.6-26.3 55.6-26.3s-2.5-44.2-7.4-132.7c0 0-13.5 5.5-40.6 16.4-4.9 94.4-7.4 142-7.6 142.6"/></defs><clipPath id="SVGID_24_"><use xlink:href="#SVGID_23_" style="overflow:visible"/></clipPath><g style="clip-path:url(#SVGID_24_)"><defs><path id="SVGID_25_" d="M524 67.2h55.6v159H524z"/></defs><clipPath id="SVGID_26_"><use xlink:href="#SVGID_25_" style="overflow:visible"/></clipPath><g style="clip-path:url(#SVGID_26_)"><image style="overflow:visible" width="133" height="381" xlink:href="A63F257.png" transform="matrix(.4178 0 0 .4174 523.985 67.247)"/></g></g><path d="M312.5-.1H602v57.6c-1.1 6.7-5.6 12.4-11.9 15.1-6.3 2.7-13.5 2-19.1-1.9-5 18.1-18.7 32.5-36.6 38.4-17.9 5.9-37.5 2.4-52.2-9.2-20.2 20.4-51.6 24.6-76.5 10.3s-37-43.6-29.6-71.3c-13.6 4-28.3 2.1-40.5-5.3-12-7.5-20.5-19.7-23.1-33.7" style="fill-rule:evenodd;clip-rule:evenodd;fill:#2ea74c"/><defs><filter id="Adobe_OpacityMaskFilter_3_" filterUnits="userSpaceOnUse" x="312.5" y="-.1" width="289.5" height="118.6"><feColorMatrix values="1 0 0 0 0 0 1 0 0 0 0 0 1 0 0 0 0 0 1 0"/></filter></defs><mask maskUnits="userSpaceOnUse" x="312.5" y="-.1" width="289.5" height="118.6" id="SVGID_27_"><g style="filter:url(#Adobe_OpacityMaskFilter_3_)"><linearGradient id="SVGID_28_" gradientUnits="userSpaceOnUse" x1="-142.045" y1="553.282" x2="-356.367" y2="499.329" gradientTransform="translate(678.813 -474.003)"><stop offset="0" style="stop-color:#000"/><stop offset="1" style="stop-color:#fff"/></linearGradient><path style="fill:url(#SVGID_28_)" d="M312.5-.1H602v118.6H312.5z"/></g></mask><path d="M312.5-.1H602v57.6c-1.1 6.7-5.6 12.4-11.9 15.1-6.3 2.7-13.5 2-19.1-1.9-5 18.1-18.7 32.5-36.6 38.4-17.9 5.9-37.5 2.4-52.2-9.2-20.2 20.4-51.6 24.6-76.5 10.3s-37-43.6-29.6-71.3c-13.6 4-28.3 2.1-40.5-5.3-12-7.5-20.5-19.7-23.1-33.7" style="mask:url(#SVGID_27_);fill-rule:evenodd;clip-rule:evenodd;fill:#bbd76b"/><path d="M602-.1H429.6c.9 16.7 10.9 31.5 26.1 38.6 15.1 7.1 32.9 5.4 46.4-4.5-9.7 26.9 2.8 56.8 28.7 68.9 25.9 12.1 56.8 2.4 71.2-22.3V-.1" style="fill-rule:evenodd;clip-rule:evenodd;fill:#8dc247"/><defs><path id="SVGID_29_" d="M602-.1H429.6c.9 16.7 10.9 31.5 26.1 38.6 15.1 7.1 32.9 5.4 46.4-4.5-9.7 26.9 2.8 56.8 28.7 68.9 25.9 12.1 56.8 2.4 71.2-22.3V-.1"/></defs><clipPath id="SVGID_30_"><use xlink:href="#SVGID_29_" style="overflow:visible"/></clipPath><g style="clip-path:url(#SVGID_30_)"><defs><path id="SVGID_31_" d="M429.6-.1H602v108.2H429.6z"/></defs><clipPath id="SVGID_32_"><use xlink:href="#SVGID_31_" style="overflow:visible"/></clipPath><g style="clip-path:url(#SVGID_32_)"><image style="overflow:visible" width="413" height="259" xlink:href="A63F254.png" transform="matrix(.4173 0 0 .4176 429.643 -.059)"/></g></g><path class="st27" d="M387.7 69.7c.5 5.7-1.3 11.3-5.2 15.6-3.8 4.2-9.3 6.7-15 6.7-1-5.8.7-11.7 4.6-16.1 4-4.4 9.8-6.7 15.6-6.2"/><path class="st28" d="M434.2 66.5c-1.9 3.8-2.2 8.2-.6 12.2 1.5 4 4.6 7.1 8.6 8.7 2.3-3.7 2.7-8.3 1.2-12.4-1.7-4.1-5.1-7.3-9.2-8.5"/><path class="st29" d="M485.8 26.8c3 4.9 3.8 10.8 2.1 16.4-1.6 5.5-5.5 10.1-10.6 12.6-3.5-4.8-4.5-10.9-2.9-16.6 1.6-5.7 5.8-10.3 11.4-12.4"/><path class="st27" d="M331 10.6c1.3 2.5 1.4 5.5.4 8.2-1 2.7-3.1 4.8-5.8 5.8-1.5-2.5-1.8-5.6-.8-8.3 1.2-2.7 3.4-4.8 6.2-5.7"/><path class="st29" d="M524 101.1c2 3.3 2.5 7.2 1.4 10.9s-3.6 6.7-7.1 8.4c-2.3-3.2-3-7.2-1.9-11s3.9-6.9 7.6-8.3"/><path class="st27" d="M406.7 102.1c2.1 2.3 3.1 5.3 2.8 8.4-.3 3.1-1.8 5.9-4.3 7.8-2.3-2.2-3.5-5.3-3.2-8.5.3-3.2 2-6 4.7-7.7"/><path class="st29" d="M580.7 32.7c-1.7 2.7-2.1 6-1.2 9.1.9 3.1 3.1 5.6 5.9 7 1.9-2.7 2.5-6.1 1.6-9.2-.9-3.1-3.2-5.7-6.3-6.9"/><path class="st30" d="M338.3 54.2c.7 0 1.2.6 1.2 1.2 0 .7-.6 1.2-1.2 1.2-.7 0-1.2-.6-1.2-1.2-.1-.6.5-1.2 1.2-1.2M401.4 60.8c1.2 0 2.2 1 2.2 2.2 0 1.2-1 2.2-2.2 2.2-1.2 0-2.2-1-2.2-2.2-.1-1.2.9-2.2 2.2-2.2M381 107.6c.7 0 1.2.5 1.2 1.2s-.5 1.2-1.2 1.2-1.2-.5-1.2-1.2c.1-.6.6-1.2 1.2-1.2M536.8 21.8c.7 0 1.2.5 1.2 1.2s-.5 1.2-1.2 1.2-1.2-.5-1.2-1.2.5-1.2 1.2-1.2M563.6 83.6c1.2 0 2.2 1 2.2 2.2 0 1.2-1 2.2-2.2 2.2s-2.2-1-2.2-2.2c-.1-1.2.9-2.2 2.2-2.2M361.2 16.8c1.2 0 2.2 1 2.2 2.2 0 1.2-1 2.2-2.2 2.2-1.2 0-2.2-1-2.2-2.2-.1-1.2.9-2.2 2.2-2.2M290.1 22.1c.6 0 1.1.5 1.1 1.1 0 .6-.5 1.1-1.1 1.1-.6 0-1.1-.5-1.1-1.1 0-.6.5-1.1 1.1-1.1M589.8 19.4c1.7 0 3.1 1.4 3.1 3.1 0 1.7-1.4 3.1-3.1 3.1s-3.1-1.4-3.1-3.1c0-1.7 1.4-3.1 3.1-3.1M476.3 111.4c.6 0 1.1.5 1.1 1.1 0 .6-.5 1.1-1.1 1.1-.6 0-1.1-.5-1.1-1.1 0-.6.5-1.1 1.1-1.1M457.4 16.8c.8 0 1.5.7 1.5 1.5s-.7 1.5-1.5 1.5-1.5-.7-1.5-1.5.6-1.5 1.5-1.5"/><path class="st29" d="M450 110.7c-1.8 2.9-2.2 6.4-1.3 9.7 1 3.3 3.2 6 6.3 7.4 2.1-2.8 2.7-6.4 1.7-9.8-1-3.3-3.5-6-6.7-7.3"/><path class="st30" d="M537.4 151.7c.3 0 .5.2.5.5s-.2.5-.5.5-.5-.2-.5-.5.2-.5.5-.5M571.5 147.8c1 0 1.9.8 1.9 1.9s-.8 1.9-1.9 1.9c-1 0-1.9-.8-1.9-1.9s.9-1.9 1.9-1.9M533.5 164.1c.4 0 .8.3.8.8 0 .4-.3.8-.8.8-.4 0-.8-.3-.8-.8 0-.4.4-.8.8-.8M546.2 196.1c.5 0 .9.4.9.9s-.4.9-.9.9-.9-.4-.9-.9c0-.4.4-.9.9-.9"/><path class="st31" d="M602 232.5C362.7 338.1 233.2 372 211 337.2c12.1-.9 22-15.1 29.9-24.3 22.6-27.5 56.6-43.2 92.2-42.5 19.2 1.1 37.7-7 49.9-21.8 51.6-65.6 141.4-99.2 219.1-65.4-.1 26.2-.1 49.3-.1 49.3"/><defs><filter id="Adobe_OpacityMaskFilter_4_" filterUnits="userSpaceOnUse" x="211" y="169.9" width="391" height="180.5"><feColorMatrix values="1 0 0 0 0 0 1 0 0 0 0 0 1 0 0 0 0 0 1 0"/></filter></defs><mask maskUnits="userSpaceOnUse" x="211" y="169.9" width="391" height="180.5" id="SVGID_33_"><g style="filter:url(#Adobe_OpacityMaskFilter_4_)"><linearGradient id="SVGID_34_" gradientUnits="userSpaceOnUse" x1="-159.993" y1="545.159" x2="-331.055" y2="466.473" gradientTransform="translate(591.057 -273.735)"><stop offset="0" style="stop-color:#000"/><stop offset="1" style="stop-color:#fff"/></linearGradient><path style="fill:url(#SVGID_34_)" d="M211 169.9h391v180.5H211z"/></g></mask><path d="M602 232.5C362.7 338.1 233.2 372 211 337.2c12.1-.9 22-15.1 29.9-24.3 22.6-27.5 56.6-43.2 92.2-42.5 19.2 1.1 37.7-7 49.9-21.8 51.6-65.6 141.4-99.2 219.1-65.4-.1 26.2-.1 49.3-.1 49.3" style="mask:url(#SVGID_33_);fill-rule:evenodd;clip-rule:evenodd;fill:#e3e88a"/><path d="M590.1 295.4C477.4 354.2 331.2 389.1 151.6 400H15.5c14.8-25.7 45-38.3 73.7-30.7 37.9 9 77.9 0 108.2-24.5 27.9-22.6 63.6-33.4 99.4-30 32.4 3.2 64.5-8.5 87.3-31.8 55.8-59 140.4-81 217.9-56.6v10.8c-1.2 2.1-2 4.5-2 7.1v7.3c-.3 1.7-.5 3.4-.7 5.1-.2.9-.4 1.7-.5 2.6l-.2 1.9-.2 1.6c-.3 2-.6 3.9-.8 5.8-4.5 2.2-7.6 6.9-7.6 12.2v14.6z" style="fill-rule:evenodd;clip-rule:evenodd;fill:#1c846b"/><defs><path id="SVGID_35_" d="M590.1 295.4C477.4 354.2 331.2 389.1 151.6 400H15.5c14.8-25.7 45-38.3 73.7-30.7 37.9 9 77.9 0 108.2-24.5 27.9-22.6 63.6-33.4 99.4-30 32.4 3.2 64.5-8.5 87.3-31.8 55.8-59 140.4-81 217.9-56.6v10.8c-1.2 2.1-2 4.5-2 7.1v7.3c-.3 1.7-.5 3.4-.7 5.1-.2.9-.4 1.7-.5 2.6l-.2 1.9-.2 1.6c-.3 2-.6 3.9-.8 5.8-4.5 2.2-7.6 6.9-7.6 12.2v14.6z"/></defs><clipPath id="SVGID_36_"><use xlink:href="#SVGID_35_" style="overflow:visible"/></clipPath><g style="clip-path:url(#SVGID_36_)"><defs><path id="SVGID_37_" d="M15.5 216.6H602v183.3H15.5z"/></defs><clipPath id="SVGID_38_"><use xlink:href="#SVGID_37_" style="overflow:visible"/></clipPath><g style="clip-path:url(#SVGID_38_)"><image style="overflow:visible" width="1407" height="440" xlink:href="A63F25C.png" transform="matrix(.4168 0 0 .4167 15.532 216.646)"/></g></g><path class="st37" d="M309.9 352.1c9.7 3.5 18.8 5.3 24.5 5.2-.4 1.5-.3 2.6.3 3.2 2.5 2.3 12.1-4 21.4-14.1 9.4-10.1 15-20.1 12.5-22.4-2.5-2.3-12.1 4-21.4 14.1-.1.1-.2.2-.2.3.9-2.7 1.7-5.8 2.3-9 2.6-13.5 1.4-25.1-2.6-25.9-4.1-.8-9.5 9.5-12.1 23.1l-.6 3.3c-4.9-12.5-11.9-21.4-15.6-19.9-3.9 1.5-3 13.1 1.9 25.9.7 1.7 1.4 3.4 2.1 5-2.1-.9-4.3-1.8-6.6-2.6-15.2-5.5-28.9-6.9-30.5-3.1-1.6 3.9 9.4 11.4 24.6 16.9"/><defs><path id="SVGID_39_" d="M309.9 352.1c9.7 3.5 18.8 5.3 24.5 5.2-.4 1.5-.3 2.6.3 3.2 2.5 2.3 12.1-4 21.4-14.1 9.4-10.1 15-20.1 12.5-22.4-2.5-2.3-12.1 4-21.4 14.1-.1.1-.2.2-.2.3.9-2.7 1.7-5.8 2.3-9 2.6-13.5 1.4-25.1-2.6-25.9-4.1-.8-9.5 9.5-12.1 23.1l-.6 3.3c-4.9-12.5-11.9-21.4-15.6-19.9-3.9 1.5-3 13.1 1.9 25.9.7 1.7 1.4 3.4 2.1 5-2.1-.9-4.3-1.8-6.6-2.6-15.2-5.5-28.9-6.9-30.5-3.1-1.6 3.9 9.4 11.4 24.6 16.9"/></defs><clipPath id="SVGID_40_"><use xlink:href="#SVGID_39_" style="overflow:visible"/></clipPath><g style="clip-path:url(#SVGID_40_)"><defs><path id="SVGID_41_" d="M285.2 303.6h84.1v57.5h-84.1z"/></defs><clipPath id="SVGID_42_"><use xlink:href="#SVGID_41_" style="overflow:visible"/></clipPath><g style="clip-path:url(#SVGID_42_)"><image style="overflow:visible" width="201" height="138" xlink:href="A63F25D.png" transform="matrix(.4186 0 0 .4168 285.18 303.553)"/></g></g><path d="M250.4 400H137.6c25-.7 59.3-9.9 79.7-23.9 41.4-28.4 93-38 141.9-26.2 22.6 4.8 46.7-1.7 63.9-18.5 45.9-45.4 110.6-66.1 174.1-56.1-2.8 2.5-4.6 6.2-4.6 10.2v10.7l-1.1 7c0 .3-.1.6-.1.9l-.4 4.6c0 .4-.1.8-.1 1.2v20.7c0 1.4.2 2.8.4 4.2v8c0 6.5 4.6 11.9 10.7 13.3V400H250.4z" style="fill-rule:evenodd;clip-rule:evenodd;fill:#006454"/><defs><filter id="Adobe_OpacityMaskFilter_5_" filterUnits="userSpaceOnUse" x="137.6" y="272.7" width="464.4" height="127.2"><feColorMatrix values="1 0 0 0 0 0 1 0 0 0 0 0 1 0 0 0 0 0 1 0"/></filter></defs><mask maskUnits="userSpaceOnUse" x="137.6" y="272.7" width="464.4" height="127.2" id="SVGID_43_"><g style="filter:url(#Adobe_OpacityMaskFilter_5_)"><linearGradient id="SVGID_44_" gradientUnits="userSpaceOnUse" x1="-51.117" y1="590.803" x2="-375.521" y2="519.108" gradientTransform="translate(527.616 -230.859)"><stop offset="0" style="stop-color:#000"/><stop offset="1" style="stop-color:#c7c6c5"/></linearGradient><path style="fill:url(#SVGID_44_)" d="M137.6 272.7H602v127.2H137.6z"/></g></mask><path d="M250.4 400H137.6c25-.7 59.3-9.9 79.7-23.9 41.4-28.4 93-38 141.9-26.2 22.6 4.8 46.7-1.7 63.9-18.5 45.9-45.4 110.6-66.1 174.1-56.1-2.8 2.5-4.6 6.2-4.6 10.2v10.7l-1.1 7c0 .3-.1.6-.1.9l-.4 4.6c0 .4-.1.8-.1 1.2v20.7c0 1.4.2 2.8.4 4.2v8c0 6.5 4.6 11.9 10.7 13.3V400H250.4z" style="mask:url(#SVGID_43_);fill-rule:evenodd;clip-rule:evenodd;fill:#8dc247"/><path class="st37" d="M527.7 299.3c-3.7 15.5-9 28.8-14 36.1 2.3.8 3.7 1.9 3.9 3.2.9 5.1-15.4 12.2-36.4 15.8-21 3.6-38.7 2.4-39.5-2.7-.9-5.1 15.4-12.2 36.4-15.8.2 0 .3-.1.5-.1-4.3-1.2-8.9-2.7-13.5-4.7-19.7-8.1-33.7-19.4-31.2-25.3 2.4-5.9 20.3-4.1 40 3.9 1.6.7 3.2 1.3 4.7 2-12-16.9-17.6-33.4-12.5-37.1 5.2-3.7 19.5 7.2 31.9 24.5 1.7 2.3 3.3 4.7 4.7 7 .6-3.5 1.3-7.1 2.2-10.8 5.8-24.3 15.6-43.1 21.9-42 6.2 1 6.7 21.7.9 46"/><path class="st43" d="M584 287.3c-5.9-2.4-15.8-13.1-24.9-27.4-11.4-18-17.1-34.8-12.7-37.5 4.4-2.8 17.2 9.5 28.6 27.5.1.1.2.3.3.4-.6-4.4-.9-9.2-.9-14.3-.1-21.3 5-38.5 11.3-38.6 6.4 0 11.6 17.2 11.8 38.4 0 1.7 0 3.4-.1 5.1 1.5-2.4 3-4.7 4.6-6.8v33.5c-1.7-.7-3.5-1.1-5.4-1.1-6.5 0-12 4.6-13.3 10.7-1 3.3-.8 7 .7 10.1"/><defs><filter id="Adobe_OpacityMaskFilter_6_" filterUnits="userSpaceOnUse" x="433.6" y="253.2" width="98.2" height="103.2"><feColorMatrix values="1 0 0 0 0 0 1 0 0 0 0 0 1 0 0 0 0 0 1 0"/></filter></defs><mask maskUnits="userSpaceOnUse" x="433.6" y="253.2" width="98.2" height="103.2" id="SVGID_45_"><g style="filter:url(#Adobe_OpacityMaskFilter_6_)"><linearGradient id="SVGID_46_" gradientUnits="userSpaceOnUse" x1="-288.3" y1="575.283" x2="-346.235" y2="566.14" gradientTransform="translate(783.393 -268.538)"><stop offset="0" style="stop-color:#000"/><stop offset="1" style="stop-color:#fff"/></linearGradient><path style="fill:url(#SVGID_46_)" d="M433.6 253.2h98.2v103.2h-98.2z"/></g></mask><path d="M527.7 299.3c-3.7 15.5-9 28.8-14 36.1 2.3.8 3.7 1.9 3.9 3.2.9 5.1-15.4 12.2-36.4 15.8-21 3.6-38.7 2.4-39.5-2.7-.9-5.1 15.4-12.2 36.4-15.8.2 0 .3-.1.5-.1-4.3-1.2-8.9-2.7-13.5-4.7-19.7-8.1-33.7-19.4-31.2-25.3 2.4-5.9 20.3-4.1 40 3.9 1.6.7 3.2 1.3 4.7 2-12-16.9-17.6-33.4-12.5-37.1 5.2-3.7 19.5 7.2 31.9 24.5 1.7 2.3 3.3 4.7 4.7 7 .6-3.5 1.3-7.1 2.2-10.8 5.8-24.3 15.6-43.1 21.9-42 6.2 1 6.7 21.7.9 46" style="mask:url(#SVGID_45_);fill-rule:evenodd;clip-rule:evenodd;fill:#a9d7b5"/><path class="st37" d="m525.2 343.8 71.8 5.3c-.8-1.7-1.2-3.6-1.2-5.7v-10l-.3-3.4c-.1-1.1 0-2.2 0-3.3-.6-2.7-1.1-5.3-1.6-8l-.9-3.6c-.1-.2-.1-.4-.1-.6-.2-1-.4-2-.5-3.1l-.3-3.6c0-.4-.1-.8-.1-1.2v-19.8c0-6.3 4.3-11.6 10.1-13.2v-7.5c-12.4-18-33.7-27.6-55.3-25.2h-.1c-.3.1-.6.3-.9.4-.4.2-.9.3-1.3.5-.7.3-1.4.5-2.2.6-.6.1-1.1.2-1.7.3-.2 0-.5.1-.7.1-.8.1-1.1.4-1.8.7-.5.3-1 .6-1.6.8-.6.3-1.2.6-1.9.8-.3.2-.7.3-1 .5-.6.3-1.2.5-1.8.7-.4.4-.8.7-1.2 1l-1.8 1.5c-.3.3-.7.5-1 .8-.3.2-.5.4-.8.6-.9 1-2 1.8-3.2 2.5-.4.3-.8.6-1.2.8-.6.6-1.3 1.1-2 1.5-.4.3-.8.5-1.2.8-.7.6-1.5 1-2.3 1.4-.7.7-1.6 1.4-2.5 1.9-.5.5-1.1.9-1.6 1.4-.2.2-.4.3-.6.5-.3.5-.6.9-1 1.3-.2.6-.5 1.1-.9 1.7-.4.9-.9 1.8-1.5 2.7-.1.2-.2.4-.3.5-.5 1.2-1.2 2.3-2.1 3.4-.4.7-.9 1.3-1.3 1.9-.4.6-.8 1.3-1.2 1.8l-.6 2.1V290c0 1-.1 2-.3 2.9v4.8c.3.9.5 1.7.6 2.7.3.8.4 1.6.7 2.3l.3 1c.3.8.4 1.6.6 2.4.2.7.5 1.3.6 2l.2.4c.4.7.9 1.3 1.3 2 .8.9 1.4 1.8 2 2.9.3.6.6 1.3 1 1.9.2.4.4.8.5 1.3l.2.4c.7 1.1 1.1 2.2 1.5 3.4.1.4.2.7.3 1.1l.1.2c.4.5.8 1.1 1.2 1.7l.9 1.5c.6.8 1.1 1.7 1.5 2.7l.6 1.2c.5.6.9 1.2 1.3 1.9 1 1.3 1.8 2.7 2.3 4.2l.1.3c.5.7.9 1.5 1.3 2.2.2.3.4.5.5.8.4.6.8 1.2 1.2 1.9l.2.4c.4 1.3.8 2.3 1 3.3"/><path class="st43" d="M512.3 342.9c14.1-3 21.1-4.6 21.1-4.6-18.4-11.5-28-33-24.3-54.4 3.6-21.4 19.8-38.5 41-43.3-23.7 1.3-44.3 16.5-52.5 38.7-8.3 22.3-2.5 47.2 14.7 63.6"/><path class="st47" d="M559.4 339.3c28.4 2.6 42.6 4 42.6 4v-70.9c-18.3-9.7-41-3.7-52.1 13.8-11.2 17.5-7 40.6 9.5 53.1"/><path d="M525.1 257.5c-.7-1.1-.4-2.6.7-3.4 1.1-.7 2.6-.4 3.4.7L554 293l17.4-42c.5-1.2 1.9-1.8 3.2-1.3 1.2.5 1.8 1.9 1.3 3.2L557.2 298l18.2 28 18-43.4c.5-1.2 1.9-1.8 3.2-1.3 1.2.5 1.8 1.9 1.3 3.2L578.6 331l5.2 8c.7 1.1.4 2.6-.7 3.4-1.1.7-2.6.4-3.4-.7l-18.7-29-50.7 2.1c-1.3.1-2.5-1-2.5-2.3-.1-1.3 1-2.5 2.3-2.5l47.9-2-32.9-50.5z" style="fill:#fff"/><path d="M415.4 378.1c-37.8-15.2-80.9-6.6-110.1 21.9H516c1.3-1.4 2.7-2.5 4.4-3.3.1-.1.3-.2.5-.3.7-.5 1.4-.9 2.1-1.2.8-.4 1.6-.7 2.5-1 .2-.1.5-.2.7-.2.6-.2 1.3-.4 1.9-.6.5-.2 1-.3 1.6-.4.5-.2 1-.3 1.6-.4.8-.2 1.6-.4 2.3-.5h.2c1.1-.3 2.3-.5 3.5-.5.1 0 .3 0 .4-.1.7-.2 1.5-.4 2.3-.6h.2c.7-.3 1.5-.6 2.2-.7 1.7-.8 3.5-1.3 5.3-1.4 1.2-.4 2.4-.7 3.6-.8.8-.2 1.7-.3 2.5-.3.8-.2 1.7-.3 2.6-.3h35.1c1.3-.3 2.4-.5 3.7-.5h.3V384c0-1.3.2-2.5.4-3.8.7-3.9 2.9-7.2 6-9.2v-34.8c-44.8-11.8-92.5-.4-127 30.3-16.4 14.9-39.5 18.9-59.5 11.6" style="fill-rule:evenodd;clip-rule:evenodd;fill:#013634"/><defs><filter id="Adobe_OpacityMaskFilter_7_" filterUnits="userSpaceOnUse" x="305.3" y="331.7" width="296.7" height="68.3"><feColorMatrix values="1 0 0 0 0 0 1 0 0 0 0 0 1 0 0 0 0 0 1 0"/></filter></defs><mask maskUnits="userSpaceOnUse" x="305.3" y="331.7" width="296.7" height="68.3" id="SVGID_47_"><g style="filter:url(#Adobe_OpacityMaskFilter_7_)"><linearGradient id="SVGID_48_" gradientUnits="userSpaceOnUse" x1="-110.903" y1="630.706" x2="-409.882" y2="536.535" gradientTransform="translate(672.567 -230.859)"><stop offset="0" style="stop-color:#000"/><stop offset="1" style="stop-color:#d5d5d5"/></linearGradient><path style="fill:url(#SVGID_48_)" d="M305.3 331.7H602V400H305.3z"/></g></mask><path d="M415.4 378.1c-37.8-15.2-80.9-6.6-110.1 21.9H516c1.3-1.4 2.7-2.5 4.4-3.3.1-.1.3-.2.5-.3.7-.5 1.4-.9 2.1-1.2.8-.4 1.6-.7 2.5-1 .2-.1.5-.2.7-.2.6-.2 1.3-.4 1.9-.6.5-.2 1-.3 1.6-.4.5-.2 1-.3 1.6-.4.8-.2 1.6-.4 2.3-.5h.2c1.1-.3 2.3-.5 3.5-.5.1 0 .3 0 .4-.1.7-.2 1.5-.4 2.3-.6h.2c.7-.3 1.5-.6 2.2-.7 1.7-.8 3.5-1.3 5.3-1.4 1.2-.4 2.4-.7 3.6-.8.8-.2 1.7-.3 2.5-.3.8-.2 1.7-.3 2.6-.3h35.1c1.3-.3 2.4-.5 3.7-.5h.3V384c0-1.3.2-2.5.4-3.8.7-3.9 2.9-7.2 6-9.2v-34.8c-44.8-11.8-92.5-.4-127 30.3-16.4 14.9-39.5 18.9-59.5 11.6" style="mask:url(#SVGID_47_);fill-rule:evenodd;clip-rule:evenodd;fill:#2ea74c"/><path class="st53" d="M549.4 377c7.3.1 13.9-.7 17.7-2.1.1 1.1.4 1.9 1 2.1 2.2 1 7.2-5.5 11.2-14.4 4-8.9 5.5-17 3.3-18s-7.2 5.5-11.2 14.4c0 .1-.1.1-.1.2 0-2.1-.2-4.3-.5-6.6-1.3-9.7-4.8-17.3-7.7-16.9-2.9.4-4.2 8.6-2.8 18.3.1.8.2 1.6.4 2.3-6.2-7.3-12.9-11.7-15.1-9.9-2.3 1.9 1 9.5 7.3 17.1.9 1 1.7 2 2.6 2.9-1.6-.1-3.3-.2-5.1-.3-11.5-.2-21.1 2-21.3 5-.4 3.1 8.7 5.7 20.3 5.9"/><path d="M602 368.1V400h-90.1c22.2-25.9 56.5-38 90.1-31.9" style="fill-rule:evenodd;clip-rule:evenodd;fill:#072221"/><path class="st28" d="M254.3 364.8c1.7-.2 3.5 3.5 4.1 8.2 2.8-4 6.1-6.4 7.5-5.4 1.4 1 .3 5-2.5 9.1-2.4 3.5-5.3 5.9-6.9 5.8-1.7.2-3.5-3.6-4.1-8.5-.7-4.9.2-9.1 1.9-9.2M234.9 369.7c-1.2 1.2.6 5 4.1 8.5 3.5 3.5 7.3 5.4 8.5 4.2 1.2-1.2-.6-5-4.1-8.5-3.5-3.6-7.3-5.4-8.5-4.2M112.8 383c-.8.7 0 3.2 1.9 5.6 1.9 2.4 4.1 3.9 5 3.2.8-.7 0-3.2-1.9-5.6-1.9-2.4-4.2-3.9-5-3.2M203.7 356.5c1.4-.5 3.7 2.1 5.3 6 1.4-4 3.6-6.8 5-6.3s1.4 4.2 0 8.2c-1.2 3.5-3.1 6.2-4.5 6.5-1.4.6-3.8-2.2-5.4-6.2-1.6-4-1.8-7.7-.4-8.2M166.3 375.4c1 .6.4 3.5-1.4 6.5-1.8 3-4.1 4.9-5.1 4.2-1-.6-.4-3.5 1.4-6.5 1.8-2.9 4.1-4.8 5.1-4.2"/><path class="st28" d="M151.4 377.2c-.8.8.4 3.5 2.9 6 2.4 2.4 5.1 3.8 6 2.9.8-.8-.4-3.5-2.9-6-2.4-2.4-5.1-3.7-6-2.9"/><path class="st55" d="M388.7 368.3c2.3 0 4.2 5.3 4.3 12 4.4-5 9.4-7.9 11.2-6.3 1.8 1.6-.4 7-4.9 12.2-3.9 4.5-8.3 7.3-10.5 6.9-2.4 0-4.3-5.5-4.3-12.4s1.8-12.4 4.2-12.4"/><path class="st53" d="M345.1 371.8c-1.9 1.5 0 7 4.2 12.4s9.1 8.6 11 7.1c1.9-1.5 0-7-4.2-12.4s-9.1-8.6-11-7.1"/><path class="st47" d="M414.6 339.6c1.3-.7 4 1.8 6 5.5 1-4.2 3-7.2 4.5-6.9 1.5.4 1.8 4.1.8 8.4-.9 3.7-2.5 6.6-3.9 7.1-1.3.7-4.1-1.9-6.1-5.8-2.1-3.9-2.6-7.6-1.3-8.3"/><path class="st55" d="M497.5 370.9c-1.8 0-3.3 4.2-3.3 9.3-3.5-3.9-7.3-6.1-8.7-4.9-1.4 1.2.3 5.4 3.8 9.5 3 3.5 6.4 5.7 8.2 5.4 1.8 0 3.3-4.3 3.3-9.6.1-5.3-1.4-9.7-3.3-9.7"/><path class="st31" d="M387.2 330.5c.8-.4 2.3 1 3.4 3.2.6-2.4 1.7-4.2 2.6-4 .8.2 1.1 2.3.5 4.8-.5 2.1-1.5 3.8-2.2 4-.8.4-2.3-1.1-3.5-3.3-1.3-2.2-1.6-4.3-.8-4.7M473.2 238.9c.8-.8 3.3.3 5.7 2.5-.3-3.3.4-6 1.5-6.1 1.2-.1 2.4 2.5 2.7 5.8.3 2.9-.2 5.4-1.1 6.1-.8.8-3.4-.3-5.8-2.7-2.5-2.2-3.8-4.8-3-5.6"/><path d="M264 300.2c.7-.5 2.4.6 3.9 2.6.2-2.5 1-4.4 1.9-4.3.9.1 1.4 2.2 1.3 4.7-.2 2.2-.8 4-1.6 4.4-.7.5-2.5-.7-4-2.7-1.5-2.1-2.2-4.1-1.5-4.7" style="fill-rule:evenodd;clip-rule:evenodd;fill:#ebed9a"/><path class="st17" d="M479.2 261.1c1.1 0 2 .9 2 2s-.9 2-2 2-2-.9-2-2 .9-2 2-2M553 322.5c.9 0 1.7.8 1.7 1.7s-.8 1.7-1.7 1.7c-.9 0-1.7-.8-1.7-1.7s.8-1.7 1.7-1.7M501.6 350.5c.9 0 1.7.8 1.7 1.7 0 .9-.8 1.7-1.7 1.7-.9 0-1.7-.8-1.7-1.7-.1-1 .7-1.7 1.7-1.7M307.7 381.1c1.3 0 2.4 1.1 2.4 2.4 0 1.3-1.1 2.4-2.4 2.4-1.3 0-2.4-1.1-2.4-2.4 0-1.3 1.1-2.4 2.4-2.4M553.6 384.6c1.5 0 2.8 1.2 2.8 2.8 0 1.5-1.2 2.8-2.8 2.8s-2.8-1.2-2.8-2.8c0-1.5 1.3-2.8 2.8-2.8M401.8 300.5c1.1 0 2 .9 2 2s-.9 2-2 2-2-.9-2-2 .9-2 2-2M371.7 307.4c.9 0 1.7.7 1.7 1.7 0 .9-.7 1.7-1.7 1.7-.9 0-1.7-.7-1.7-1.7 0-.9.7-1.7 1.7-1.7M238.8 333.6c.9 0 1.7.7 1.7 1.7s-.7 1.7-1.7 1.7c-.9 0-1.7-.7-1.7-1.7s.8-1.7 1.7-1.7M491.7 210c.6 0 1.1.5 1.1 1.1 0 .6-.5 1.1-1.1 1.1-.6 0-1.1-.5-1.1-1.1 0-.7.5-1.1 1.1-1.1M439.1 217.7c.5 0 .8.4.8.8 0 .5-.4.8-.8.8-.5 0-.8-.4-.8-.8-.1-.4.3-.8.8-.8M570.6 227.9c.9 0 1.7.7 1.7 1.7 0 .9-.7 1.7-1.7 1.7-.9 0-1.7-.7-1.7-1.7s.8-1.7 1.7-1.7M582.9 284.5c1.2 0 2.2 1 2.2 2.2 0 1.2-1 2.2-2.2 2.2-1.2 0-2.2-1-2.2-2.2 0-1.2 1-2.2 2.2-2.2"/><path class="st57" d="M112.5 109.4c4.2.9 6.3 1.4 6.3 1.4s1.5-1.4 4.4-4.2c0 0-1.4 2-4.1 6.1.1 0-2.1-1.1-6.6-3.3M194.3 184.2l9.6 2.1s2.3-2.1 6.8-6.4c0 0-2.1 3.1-6.2 9.3 0 0-3.4-1.7-10.2-5M229.8 133.5c4.2.9 6.3 1.4 6.3 1.4s1.5-1.4 4.4-4.2c0 0-1.4 2-4.1 6.1l-6.6-3.3"/><path d="M-8.2 271.1c.6-.3 1.1-.7 1.6-1.1l.6-.3c.4-.1.9-.2 1.3-.4.7-.2 1.4-.4 2.1-.7.9 0 1.7-.2 2.5-.4l1.2-.3c.5-.1 1.1-.2 1.6-.3l1.2-.3c.3-.1.5-.1.8-.2.4-.1.7-.2 1.1-.4 1.1-.2 2.1-.6 3-1.2.6-.2 1.2-.5 1.8-.7.4-.1.7-.3 1-.5.5-.2.9-.4 1.4-.6 1-.3 1.9-.7 2.8-1.2.4-.2.9-.4 1.3-.6.4-.1.7-.3 1-.5.3-.1.7-.2 1-.4l1.8-.6c.6-.1 1.2-.3 1.8-.6.8-.2 1.5-.6 2.3-1 .6-.2 1.2-.5 1.7-.8.2-.1.4-.2.5-.3.9-.2 1.8-.5 2.7-1 .2-.1.4-.2.6-.2 1.2-.4 2.3-1 3.4-1.9.2-.1.4-.3.6-.4.6-.4 1.3-.8 1.8-1.3 1-.7 1.9-1.6 2.8-2.5h13.5c1.2 1.2 2.6 2 4.1 2.5.6.5 1.2.9 1.9 1.3.8.6 1.7 1 2.7 1.3.7.4 1.4.7 2.1.9l.5.2c.2.1.3.1.5.2 1 .5 2.1.9 3.1 1.1.6.2 1.1.3 1.7.4.4.1.7.2 1.1.2l.4.2c.7.4 1.4.7 2.1.9l.6.3c.2.1.5.3.7.4.8.5 1.6 1 2.4 1.3.9.5 1.8.9 2.8 1.2.3.1.5.3.8.4.9.5 1.9.9 2.9 1.1.2 0 .3.1.5.1.4.2.8.3 1.3.4.7.2 1.4.4 2.2.5.9.4 1.8.6 2.7.7.4.2.9.3 1.3.4.5.2 1 .4 1.5.5.4.2.9.4 1.4.5l.6.3c1 .7 2.1 1.2 3.3 1.4.1.1.3.1.4.2 1 .6 1.9 1.1 2.9 1.5.5.3 1 .5 1.6.6.4.2.7.4 1.1.5.9.5 1.9.9 2.9 1.2.3.2.7.3 1 .4.4.2.8.3 1.2.4.8.5 1.7.9 2.6 1.1l.1.1c.8.4 1.6.7 2.5.9v24H-22.7v-22.4c1.7 0 3.2-.3 4.8-1.2l.3-.2c.5-.2 1-.3 1.4-.6 1-.3 2-.7 3-1.4h.1c.5-.2 1.1-.5 1.6-.9.7-.4 1.3-.8 2-1.4.4-.2.8-.5 1.3-.8" style="fill-rule:evenodd;clip-rule:evenodd;fill:#014745"/><path class="st59" d="M-21.1 292.1h133.3v2.4H-21.1zM-21.1 284.7h133.3v2.4H-21.1zM-21.1 277.1h133.3v2.4H-21.1zM-8.4 269.4h108v2.4h-108zM11.1 261.8h69v2.4h-69zM27.2 254.7H64v2.4H27.2z"/><path class="st17" d="m-33.7 281.2 80-36.9c.1-.1.3-.1.4-.1.1 0 .3 0 .4.1l80 36.9c.8.4 1.3 1.8 1.1 3.3-.2 1.4-1.1 2.3-1.9 1.9l-79.6-36.7-79.6 36.7c-.8.4-1.7-.5-1.9-1.9-.2-1.4.3-2.9 1.1-3.3"/><path class="st17" d="M49.1 265.9h9.6V281h-9.6zM35.6 265.9h9.6V281h-9.6z"/><defs><path id="SVGID_49_" d="M-34.4 299.6h162.9v56.3H-34.4z"/></defs><clipPath id="SVGID_50_"><use xlink:href="#SVGID_49_" style="overflow:visible"/></clipPath><g style="clip-path:url(#SVGID_50_)"><defs><path id="SVGID_51_" d="M-34.4 299.6h162.9v56.3H-34.4z"/></defs><clipPath id="SVGID_52_"><use xlink:href="#SVGID_51_" style="overflow:visible"/></clipPath><g style="opacity:.13;clip-path:url(#SVGID_52_)"><image style="overflow:visible" width="391" height="135" xlink:href="A63F25F.png" transform="matrix(.4167 0 0 -.4168 -34.385 355.854)"/></g></g><path class="st61" d="M-32.3 202.3c24.7 0 44.7 20 44.7 44.7 0 24.7-20 44.7-44.7 44.7-24.7 0-44.7-20-44.7-44.7-.1-24.7 20-44.7 44.7-44.7"/><path d="M-75.9 193.8c13.9 0 25.1 11.3 25.1 25.1 0 13.9-11.3 25.1-25.1 25.1s-25.1-11.3-25.1-25.1c0-13.9 11.2-25.1 25.1-25.1" style="opacity:.23;fill-rule:evenodd;clip-rule:evenodd;fill:#c2e5e3"/><path class="st61" d="M-127.8 161.2c6.7 0 12.1 5.4 12.1 12.1 0 6.7-5.4 12.1-12.1 12.1-6.7 0-12.1-5.4-12.1-12.1-.1-6.7 5.4-12.1 12.1-12.1"/><path d="M191.3 229.7c23.3 0 42.2 18.9 42.2 42.2 0 23.3-18.9 42.2-42.2 42.2-23.3 0-42.2-18.9-42.2-42.2 0-23.3 18.9-42.2 42.2-42.2" style="opacity:.12;fill-rule:evenodd;clip-rule:evenodd;fill:#c2e5e3"/></svg>