<svg version="1.1" id="Layer_1" xmlns="http://www.w3.org/2000/svg" x="0" y="0" viewBox="0 0 600 400" style="enable-background:new 0 0 600 400" xml:space="preserve"><style>.st4,.st6{fill-rule:evenodd;clip-rule:evenodd;fill:#fff}.st6{fill:#071311}.st10,.st17,.st25,.st31,.st7,.st8,.st9{fill-rule:evenodd;clip-rule:evenodd;fill:#934120}.st10,.st17,.st25,.st31,.st8,.st9{fill:#c8852a}.st10,.st17,.st25,.st31,.st9{fill:#8d351d}.st10,.st17,.st25,.st31{fill:#c27529}.st17,.st25,.st31{fill:#b46b28}.st25,.st31{fill:#044a3e}.st31{fill:#ca942b}</style><path style="fill-rule:evenodd;clip-rule:evenodd;fill:#fdfced" d="M-104.1.2h771.8v314.1h-771.8z"/><defs><filter id="Adobe_OpacityMaskFilter" filterUnits="userSpaceOnUse" x="-104.1" y=".2" width="771.8" height="314.1"><feColorMatrix values="1 0 0 0 0 0 1 0 0 0 0 0 1 0 0 0 0 0 1 0"/></filter></defs><mask maskUnits="userSpaceOnUse" x="-104.1" y=".2" width="771.8" height="314.1" id="SVGID_1_"><g style="filter:url(#Adobe_OpacityMaskFilter)"><linearGradient id="SVGID_2_" gradientUnits="userSpaceOnUse" x1="-89.433" y1="507.679" x2="241.028" y2="337.851" gradientTransform="translate(315.473 -321.73)"><stop offset="0" style="stop-color:#000"/><stop offset="1" style="stop-color:#fff"/></linearGradient><path style="fill:url(#SVGID_2_)" d="M-104.1.2h771.8v314.1h-771.8z"/></g></mask><path style="mask:url(#SVGID_1_);fill-rule:evenodd;clip-rule:evenodd;fill:#fbf8cd" d="M-104.1.2h771.8v314.1h-771.8z"/><path class="st4" d="M21.8 54c43.2 0 78.1 35 78.1 78.1 0 43.1-35 78.1-78.1 78.1-43.2 0-78.1-35-78.1-78.1 0-43.1 35-78.1 78.1-78.1"/><path d="m22.4 214.3 232 40c-15.5 17.8-27.6 39.1-34.8 63.1L555 375.3c4.3-86.5-56.7-162.6-142.1-177.4-23-4-45.8-3.1-67.3 1.8-21.6-53.6-69.7-94.5-129.9-104.9C130.4 80 47.4 131.3 22.4 214.3" style="fill-rule:evenodd;clip-rule:evenodd;fill:#faf6c0"/><path class="st6" d="M40.8 144.7h4.6v74.6h-6.8c0-12.4-.3-24.9 0-37.3.3-12.4 1.6-24.9 2.2-37.3"/><path class="st7" d="M35.5 134.9c1.2-.5 2.5-1 3.9-1.6l-.2 5.6-6.1 3.3-.3.6c-.3.6-.8 1-1 1.6-.5 1.3-.9 2.5-1.9 3.6-.2 1-.6 2.1-1.2 3-.1.1-.1.3-.2.4-.4 1.5-1.2 2.9-2.4 3.9l-.3.6c-.1 1.3-.5 2.5-1.2 3.6-.2.6-.5 1.1-.8 1.6-.1.4-.4.7-.5 1.2l-.2.7c-.1.4-.3.8-.5 1.1 1.4.6 2.6 1.7 3.4 3l14.1-1.4-13.1 4c.1.6.1 1.1.1 1.6 0 2.9-1.6 5.4-4 6.7l-1 1c-.3.4-.5.8-.9 1.2-.3.8-.8 1.6-1.4 2.3-.3.9-.8 1.8-1.4 2.6-.1.2-.2.5-.3.7 0 .1 0 .2-.1.3.7.2 1.4.4 2 .8 2.4 1 4.2 3.3 4.6 6l48.1.2-10.3-45.6-20.1-9.1 19.2 3.3-5.6-21.5-14.7-3.2v-5.4h12.5l-6.5-24.9-1.4-.7c-.5.5-.9.9-1.5 1.2-.3.5-.7.9-1.1 1.4l-.4.4-.4.4c-.3.6-.8 1.2-1.2 1.6-.1.3-.3.6-.4.9-.2.4-.3.7-.5 1.1-.4.9-1 1.6-1.6 2.3-.2.7-.5 1.3-.9 1.9l-.8 1.3-1.1 2.9c-.2.5-.4 1-.7 1.5-.1 1.3-.5 2.6-1.3 3.7l-.2.4-.1.3c0 .7-.2 1.3-.4 2 0 1.3-.4 2.7-1.1 3.9l-.1.2v2.3c0 .8-.4 1.6-.4 2.5v.4c0 1.2-.3 2.2-.6 3.3-.1.3-.2.7-.3 1-.1.4-.3 1.9-.3 1.4v-.6c0 .8-.2 1.6-.4 2.3 0 .7-.2 1.3-.4 2v.6c3 .6 5.4 3.1 5.9 6.3"/><path class="st8" d="m32.5 168-19.9 6.3L8.1 193l19.8.1 4.6-25.1zm5.3-28.4L19 149.7l-4.4 18.4 18.2-1.7 5-26.8zm3.6-76.9-19.9 77.6c.2.2 6-2 17.5-6.8l3-16.1-.9-.2v-5.4H43L47.4 88l-.3-1.1-6.3-3.3-.1-3.6 5.6 3.4-4.9-20.7z"/><path class="st6" d="M-5.1 162.2h3v47.4h-4.4c0-7.9-.2-15.8 0-23.7.2-7.9 1.1-15.8 1.4-23.7"/><path class="st7" d="M-8.4 155.9c.8-.3 1.6-.7 2.5-1l-.1 3.5-3.9 2.1-.2.4c-.2.4-.5.6-.6 1-.3.8-.6 1.6-1.2 2.3-.1.7-.4 1.3-.7 1.9 0 .1-.1.2-.1.3-.2 1-.8 1.8-1.5 2.5-.1.1-.1.2-.2.4-.1.8-.3 1.6-.8 2.3-.1.4-.3.7-.5 1-.1.3-.2.5-.3.7l-.1.4c-.1.3-.2.5-.3.7.9.4 1.7 1.1 2.2 1.9l9-.9-8.3 2.6c.1.4.1.7.1 1 0 1.8-1 3.4-2.5 4.3l-.6.6c-.2.3-.3.5-.6.8-.2.5-.5 1-.9 1.4-.2.6-.5 1.2-.9 1.7-.1.2-.1.3-.2.5v.2c.4.1.9.3 1.3.5 1.5.7 2.7 2.1 2.9 3.8l30.6.1-6.6-29-12.8-5.8L8 160.4l-3.5-13.7-9.4-2.1v-3.4h8L-1 125.4l-.9-.5c-.3.3-.6.6-1 .8-.2.3-.4.6-.7.9l-.3.3-.2.2c-.2.4-.5.7-.8 1l-.3.6c-.1.2-.2.5-.3.7-.3.5-.6 1-1 1.4-.1.4-.3.8-.5 1.2l-.4.8-.7 1.8c-.1.3-.3.6-.5.9-.1.8-.3 1.6-.8 2.4l-.2.2-.1.2c0 .4-.1.9-.2 1.3 0 .8-.2 1.7-.7 2.5l-.1.1v1.5c0 .5-.3 1-.3 1.6v.2c0 .7-.2 1.4-.4 2.1 0 .2-.1.4-.2.6 0 .3-.2 1.2-.2.9v-.4c0 .5-.1 1-.3 1.5 0 .4-.1.8-.2 1.3v.4c2 .4 3.6 2 3.9 4"/><path class="st8" d="m-10.3 177-12.7 4-2.9 11.9 12.6.1 3-16zm3.3-18.1-11.9 6.4-2.8 11.7 11.6-1.1 3.1-17zm2.3-48.9-12.7 49.3c.1.1 3.8-1.3 11.1-4.3l1.9-10.2-.5-.1v-3.4h1.2l2.8-15.1-.2-.7-4-2.1-.1-2.3 3.6 2.1-3.1-13.2z"/><path class="st9" d="M78 192.9h89.7v45.5H78z"/><path class="st10" d="M194.5 162.8c2.6-.1 5-1.4 6.6-3.3.9.8 1.9 1.4 3 1.8.7.9 1.6 1.7 2.6 2.3.9.6 1.8 1.3 2.8 1.7l.8.4c.5.3.9.5 1.3.7.5.3 1 .6 1.5.8.6.4 1.3.7 1.9 1 .3.2.5.3.8.4.6.6 1.3 1.1 2 1.5.4.4.9.7 1.4 1 .5.5 1.1.9 1.7 1.3.2.2.4.3.6.5.1.1.1.2.2.3.5.8 1.1 1.6 1.8 2.2.1.1.2.2.2.3.3.4.7.9 1.1 1.3.2.4.4.9.6 1.2.2.5.5.9.8 1.4.3.8.8 1.5 1.3 2.2l.1.2c.3.6.7 1.2 1.1 1.8.3.7.7 1.4 1.3 2l.6.9c.2.3.5.7.8 1v51h-68.6v-60.8c3 .6 6.1-.2 8.3-2.4.9-.6 1.6-1.4 2.2-2.3.4-.4.8-.9 1.2-1.4l.3-.4c.5-.6.8-1.3 1.1-1.9.5-.1.9-.1 1.4-.3.9-.2 1.8-.6 2.6-1 .2-.1.5-.2.7-.3.6-.2 1.2-.4 1.7-.7.1-.1.3-.1.4-.1.4-.1.7-.2 1-.4.6-.1 1.2-.3 1.8-.5.8-.2 1.6-.4 2.4-.7l.6-.3c1.2-.3 2.3-.9 3.5-1.2.7-.2 1.3-.4 1.9-.7.2-.4.4-.5.6-.5"/><path class="st4" d="M118.3 160.4h71.1c3.6 1.1 7.4-.1 9.8-2.9l1.1.6 2.2-.8 1.3 2.9 21 12.7 11.4 19.3-2.1 3-11.2-19.3-22.2-13.6-26.8 16.4-11.1 19.3H77.4l-3.8-3 5.1-2.4c.6.1 1.2.1 1.7.2l8.1-14.2h-.1l29.9-18.2z"/><path style="fill-rule:evenodd;clip-rule:evenodd;fill:#27160d" d="M115.2 157.4h87.2L172 175.7h-.1L160.6 195h-87l11.3-19.3h-.1z"/><path class="st4" d="M177.8 196h41.9v42.4h-41.9z"/><path class="st10" d="M181.6 200h34.2v38.4h-34.2z"/><path class="st4" d="M211.1 198.3h4.9l-29.2 40.1h-5zM92.8 207.5h21.8V224H92.8z"/><path class="st9" d="M95.9 210.2h15.8v11.2H95.9z"/><path class="st4" d="M124.6 207.5h21.8V224h-21.8z"/><path class="st9" d="M127.6 210.2h15.8v11.2h-15.8z"/><path class="st4" d="M186.8 198.3h-5l29.3 40.1h4.9z"/><path d="M667.8 314.3c-1.1 22.9-1.6 34.4-1.6 34.4S409.5 321.9-104 268.3v-88.7l337.5 58.9c-.8-1.5-1.5-3-2.1-4.5v-12.5c3.7 5.7 6.9 11.7 9.4 18-1.4-10.5-1.5-21.2-.5-31.7 3.7 10.2 5.6 21 5.8 31.9 1.4-9.7 4.4-19.2 8.9-28-.1 9-1.4 18-3.8 26.6 3.6-7.2 8.6-13.7 14.7-18.9-2.4 7.5-5.7 14.6-9.8 21.3 4.3-5.4 9.7-9.9 15.8-13.2-2 5.5-5.2 10.5-9.5 14.5 5.3-2.4 10.9-3.9 16.7-4.4-2.8 2.8-5.9 5.2-9.2 7.2l397.9 69.5z" style="fill-rule:evenodd;clip-rule:evenodd;fill:#f4ee9f"/><path d="M667.8 338v32.6S410.5 360.1-104 339.2v-84.7l24 2.6c-2-3.8-3.9-7.6-5.5-11.6 0 0-9.1-17.2-14.9-40.5 8.1 12.2 29.7 38.8 35.1 52.4-3-22.6-3.3-45.5-1.1-68.2 7.9 22 12.1 45.2 12.4 68.6 3.1-21 9.6-41.3 19.2-60.2-.1 19.4-2.9 38.7-8.3 57.3 7.7-15.6 18.4-29.4 31.6-40.8-5.1 16.1-12.2 31.5-21.2 45.8 9.3-11.7 20.9-21.3 34-28.4-4.2 11.9-11.3 22.7-20.5 31.3 11.4-5.2 23.6-8.4 36-9.4-4.7 4.7-9.8 8.9-15.2 12.5L667.8 338z" style="fill-rule:evenodd;clip-rule:evenodd;fill:#d8d46c"/><path d="M667.8 370.6V400H331.2c-.9-.4-1.9-.7-2.9-.8-.9-.2-1.7-.1-2.6-.1-.3-.1-.6-.1-.9-.2-.5-.1-1-.2-1.5-.2H317c-1.5 0-2.9.4-4.1 1.2h-.2l1.1-1.1h-1.6c-.4 0-.8 0-1.2.1-.6 0-1.2 0-1.8.2-.3 0-.6-.1-.9-.1h-4.4c-.8-.3-1.6-.4-2.4-.4-.8-.3-1.6-.4-2.5-.4h-6.1c-.8 0-1.6-.4-2.5-.4h-.4c-.8-.3-1.6-.4-2.5-.4h-3.7l-1.1-.2-.3-.2c-1-.5-2-.7-3-.8-.8-.3-1.7-.4-2.5-.4l-1.8-.2c-.4-.2-.9-.3-1.4-.5-1.1-.3-2.2-.6-3.4-.6h-.4c-.8-.2-1.5-.4-2.3-.4h.3c.6 0-1.2-.2-1.7-.5l-1.5-.6c-.6-.2-1.2-.4-1.8-.5-.3-.1-.7-.2-1.1-.3l-1.6-.3-.8-.3c-.7-.2-1.5-.4-2.3-.4h.9l-.4-.1-.5-.3c-1.1-.5-2.2-.8-3.4-.8h-98.2c-4.2 0-7.7 3.4-7.7 7.7 0 .7.1 1.5.3 2.2h-252.3v-83.4l4 4.4 10.8.7-14.8-21.8v-31.6l26.8 54.2 2.5.2-19.4-57.1 9.4-3.3 16.8 60.9 2.8.2-11-63.6 16.4-5 5.1 69.2 3.9.2 1.1-72.9 6.9-2 .4 75.4 1.5.1 6.3-79.8c.1.1 2.4-.4 6.7-1.3l-1.9 77.1 12.5-79.8 10-1.9-13.2 87.2 255.4 16.5c0-.5 0-1 .1-1.4.5-4.6 3.5-8.6 7.9-10.4-1.3 4.7 1.1 9.6 5.6 11.5-3.3-8.6-.6-18.4 6.6-24-.9 5.1 1 10.2 4.9 13.6-1.6-4.7-1.1-9.9 1.4-14.2 2.5-4.3 6.7-7.4 11.6-8.4-3.1 4.6-3.1 10.6.2 15.1.2-4.6 2.4-8.8 6-11.7 3.5-2.9 8.1-4.1 12.7-3.5 2 3.7 2.2 8 .7 11.9-1.5 3.9-4.6 6.9-8.6 8.3 5.8.8 11.4-2.2 14.1-7.4 1.2 5.1 0 10.5-3.3 14.7-3.3 4.1-8.2 6.6-13.5 6.7 6.1 2.3 13 .4 17.2-4.7.4 2.7-.1 5.5-1.3 7.9l370.7 23.9z" style="fill-rule:evenodd;clip-rule:evenodd;fill:#b3aa38"/><path d="M-104.1 353.1v47h253.5c.7-2.6 2.7-4.8 5.6-5.5 1.2-.3 2.3-.6 3.5-.6h91.7c.8 0 1.6.4 2.5.4h3.2c.8 0 1.7.1 2.5.4h1.6c.9 0 1.6.4 2.6.4h1.5c.9 0 1.7.4 2.6.4h1.1c.9 0 1.8.2 2.7.5.5.1 1 .2 1.4.3h.4c.8 0 1.7.1 2.5.4.9 0 1.7.2 2.5.4.8 0 1.6.1 2.4.4.7 0 1.3.2 2 .4H305c1.3 0 2.5.3 3.5.9.7-.2 1.3-.3 2.1-.3h5.7c.6 0 1.2.1 1.7.2h1.5c.6 0 1.2.1 1.8.2.8 0 1.6.1 2.3.3.1 0 .2 0 .3.1.8 0 1.6.2 2.3.4.2 0 .4-.1.5-.1.5-.1 1-.1 1.4-.1h2.7c.6 0 1.2.1 1.8.2l1.2.3h273.5L29.4 361.9l19.7-43.4-13.8-5.6L19 361.2l-3.5-.2 12.3-52.1-4.4-1.4-20.7 52.6-1.2-.1 15.4-55.2-3.4-1.2-22 55.7-2.3-.2 15.3-57.8-12-3.3-12.9 60.5-1.9-.1 9-63.9-3.7-.8-14 51.5-3.4 12.5-3.3-.2 7.9-67.7-15.6-4.3-1.6 71.3-57.1-3.7z" style="fill-rule:evenodd;clip-rule:evenodd;fill:#8f7c2f"/><path d="M667.6 121.4c-3.8-1.1-7.1-3.3-9.6-6.5-2.3-3.6-1.1-5.3 3.6-5 2.1.3 4.1.8 6 1.5v10zm-22.3-96.5c1.5 2.5 2.8 5 4.1 7.6-.6-5.9-.2-11.9 1.3-17.9 1.7-5.4 3.6-5.6 5.6-.5 3 9.2 1.8 19.2-3.1 27.4 1.3 3.6 2.3 7.3 3.2 11 1.2-6.1 3.5-11.8 7.1-17.1 2-2.5 3.4-3.3 4.3-2.5v12.5c-1.7 6.1-5.1 11.4-9.9 15.2.3 1.9.5 3.9.6 5.8v.1c0 .8.1 1.5.1 2.3 2.2-4.2 5.3-7.9 9.2-11.1V70c-2.4 2.1-5.3 3.8-8.5 4.9.6 4 1.5 7.9 2.6 11.6 1.2-3.8 3.2-7.2 5.9-10.1v11.8c-1.4.9-2.9 1.6-4.6 2.2 1.3 3.4 2.8 6.7 4.6 9.9v5.8c-1-1.4-1.8-2.9-2.7-4.4-8.6 1.7-16.1-.8-20.7-6.8-2.3-3.6-1.1-5.3 3.6-5 5.6.9 10.3 2.9 14.2 6.1-1-2.3-2-4.7-2.8-7.1-8.3 0-15-3.7-18.2-10.1-1.5-3.9-.1-5.2 4.3-4.1 5 1.7 9 4.4 12.1 7.9-.7-2.8-1.2-5.6-1.6-8.5-7.9-1.3-14.2-5.8-17.3-12.5-1.5-3.9-.1-5 4.1-3.2 5.4 2.8 9.7 6.5 12.7 11.1-.1-1-.1-2-.2-3-.2-2.4-.4-4.7-.8-7-8.5-1.7-15.8-7.1-20.3-15-2.4-4.9-1.1-6.3 3.9-4.2 6 3.1 11.1 7.2 15.2 12.3-.9-4.2-2.2-8.4-3.8-12.5-8.1-1.6-15.3-6.5-19.6-13.5-2.2-4.2-1-5.3 3.5-3.4 5 2.5 9.2 5.7 12.8 9.6-1.5-3-3.1-5.9-4.9-8.7-4.9-4-8.8-9-11.7-15-1.7-4.4-.6-5.5 3.3-3.3 6.6 4.5 11.1 11.3 12.4 19.1z" style="fill:#ca942b"/><path class="st8" d="M566.8 218.8c-9.3-2.4-18.9-3.6-28.6-3.5-10.1.4-10.9 3.4-2.3 7.2 10.4 4.2 18.8 4.6 27.7 2.9.5-1.4 1.2-2.8 1.9-4.1.4-.8.9-1.7 1.3-2.5m-90-89.1c-4.3-.3-4.8.9-1.2 3.6 4.6 3.4 9.8 6.1 15.2 8 .8.3 1.6.4 2.2.6 2 1.4 4.1 2.8 6 4.2-4.7-.5-8.7.5-12.9 2.2-4 1.7-3.8 3 .6 3.8 5.7.9 11.5.9 17.2 0 .9-.2 1.7-.4 2.3-.6 3.4 2.7 6.8 5.5 10.1 8.3-5.7.5-11.3 1.8-16.6 3.8-6.4 2.6-6.2 4.9.4 5.7 8.8.8 14.7-1.4 20.7-5.5 5 4.5 9.8 9.3 14.5 14.2-6.4-2.3-13.1-3.6-19.9-4.1-8.1-.3-8.9 2.3-2.3 6.2 9 5.1 16.3 5.6 24.6 4.1 1.1-.2 2-.4 2.7-.7 4.4 4.9 8.6 9.9 12.7 15.2-8.1-2.3-16.4-3.5-24.8-3.4-9.1.4-9.7 3.4-2 7.1 10.5 4.8 18.7 4.7 27.8 2.3 1.2-.3 2.2-.7 2.9-1 3.5 4.7 6.9 9.4 10.2 14.3l.2-.3c.3-.5.5-.9.7-1.5 2.5-4.9 5.9-9 10-12.1.6-6.3-.3-12.2-2-18.4-2-7.1-4-6.9-5.8.3-1.9 8.6-2.8 17.6-2.5 26.5-2.7-3.9-5.5-7.8-8.4-11.6.4-1.2.7-2.9.9-5.1.9-12.8-1.6-21.7-6.4-31.1-3.4-6.5-5-6-4.9 1.6.3 8.8 1.6 17.7 3.9 26.3-3.2-3.9-6.4-7.7-9.7-11.4.5-.9.9-2.2 1.2-3.9 1.6-9.4-.3-15.9-4.2-22.7-2.8-4.7-4.3-4.2-4.6 1.4-.2 6.5.5 13 2.1 19.3-4.6-4.9-9.3-9.5-14.2-14 .3-.6.4-1.5.6-2.8.4-5.7-.1-11.5-1.4-17.1-1.6-5.8-3.6-5.8-4.9-.3-1.4 6.7-.5 11.6 1.7 16.6-3.4-3-7-5.9-10.5-8.7.1-.5.2-1.2.3-2 .4-5.7-.1-11.5-1.4-17.1-1.6-5.8-3.6-5.8-4.9-.3-1.3 6.4-.6 11.1 1.4 15.8-3-2.3-6.1-4.4-9.2-6.5-.4-.5-.9-1.1-1.5-1.7-5.6-5.3-10.7-7-16.9-7.5z"/><path class="st17" d="M667.8 118.3c-.6 66.2 0 99.6 0 99.6s-5.3-7.6-15.9-22.7c0 0 4.4-11.6 13.3-34.7 0 0-6 6.9-17.9 20.6 0 0-1.5-2.2-4.6-6.7 0 0 3.3-12.6 9.8-37.8l-14.7 20.7s-2.2-4.1-6.6-12.2c0 0 5-8.5 14.9-25.4 0 0-8.6 7-25.9 20.9 0 0-8-12.8-23.9-38.5 0 0 4.7-6.6 14.2-19.9 0 0-6 4.2-18.1 12.5 0 0-2.2-4.9-6.6-14.6l6.9-12.9s-3.2 2.5-9.5 7.5l-2.7-8.7s2.5-4.3 7.6-13c0 0-3.6 1.8-10.7 5.4 0 0-1.4-5-4.1-14.9 0 0 .8-2.1 2.3-6.2 62.1 54.2 92.2 81 92.2 81M667.8 298l-3.6 102h-47.5l-28.4-132.3 26.1-18.3-29.6 6.4-3.9-16.8-5.9-17-8.1-47.5 11.3-24.7-14.8 13.7-1.1-11.7 9.9-21.1-11.7 11-3.2-43.8 4.3-8.3c.8 1.8 1.7 3.5 2.8 5.2.3.6.7 1.1 1 1.7l.2.5c.1.4.2.9.3 1.3.8 3.5 2.1 7 3.9 10.2.1.4.3.7.5 1.1.5 1.9 1.2 3.8 2 5.6.5 1.7 1.1 3.3 1.9 4.9l.1.2c.5 1.6 1.1 3.2 1.8 4.7.1.2.2.5.2.7.9 3.4 2.2 6.6 3.9 9.7.4.8.7 1.6 1.1 2.4.1.2.2.4.2.7.3 1.3.7 2.6 1.1 3.8.4 1.4.8 2.8 1.3 4.2 1 3.3 2.4 6.5 4.2 9.5.5 1 1.1 2 1.7 2.9.8 1.5 1.6 2.9 2.6 4.2 1.1 1.7 2.3 3.3 3.7 4.8.3 1.7.6 3.5 1.1 5.2l.3 1c1 3.8 2.6 7.5 4.7 11 .7 1.9 1.5 3.9 2.6 5.7.2.4.3.8.5 1.1.4 1 .8 2 1.2 2.9.9 2.6 2.1 5.2 3.5 7.6.6 2.3 1.3 4.6 2.3 6.8.5 1.3 1 2.7 1.7 4 .6 2 1.4 3.9 2.4 5.8l.3.5c2.8 5.6 6.8 10.3 11.4 13.9l12.8 28 26.9 36.6z"/><path class="st7" d="m651.6 137.6-14 19.7-6.6-12.2 14.9-25.4-25.9 20.9-2.1-3.4V94.9c0-14.7-7.9-27.6-19.7-34.6-.1-.2-.1-.4-.2-.6l-1.1-3.5 42.7 37.5 12 43.9zm7.9 29.4-12.3 14.1-4.6-6.7 9.2-35.8 7.7 28.4zm8.5 31.3-.2 19.6-15.9-22.7 9-23.5 7.1 26.6zM667.8 298l-3.3 93.5L560.6 91.4l1.2-2.5 79.1 172.6z"/><path d="M656.8 400h11V269.9c-2.1-4.9-3.2-10.2-3.2-15.8v-5.4c-.4-1.1-.7-2.2-1-3.3l-.4-1c-1-2.4-1.7-4.8-2.1-7.2-1.3-2.1-2.3-4.2-3.2-6.5-1.5-3-2.5-6.2-3.2-9.4-.6-2.2-1.1-4.4-1.4-6.5l-.1-.6c-1-3.7-1.5-7.5-1.4-11.3v-4.1c-.2-1.4-.3-2.9-.4-4.4-.2-.7-.4-1.4-.6-2.2-.9-2.6-1.4-5.2-1.7-7.9-.1-.5-.3-.9-.4-1.4-1-3-1.6-6.1-1.9-9.2-.7-1.3-1.3-2.7-1.8-4.1l-.6-1.4c-.8-2-1.4-4-2.1-6-.3-.9-.5-1.7-.8-2.6-3.3-3.9-5.8-8.5-7.4-13.6-.1-.3-.2-.7-.3-1-.2-.4-.3-.9-.4-1.3-.5-1.3-1-2.7-1.4-4.1-1.2-3.3-2-6.6-2.4-10-.1-.4-.2-.8-.2-1.2-.6-2.1-1-4.3-1.2-6.5l-.1-.3c-.4-1.7-.6-3.5-.8-5.2-.2-.7-.3-1.4-.4-2.1-.2-.9-.5-1.9-.6-2.8-.3-1.1-.5-2.2-.7-3.4-.5-1.8-.8-3.7-1.1-5.5l-.1-.5c-.7-1.5-1.3-3-1.8-4.6-.4-1.3-.8-2.6-1.1-3.8-.4-1.4-.7-2.8-.9-4.3-.7-2.8-1.1-5.6-1.2-8.5L594.8.2l-3.9 9.1-.5 17.2 9.6.9-9.1 5.5-.2 11.9 10.9-6.4-10 10.8 1.5 10.7 8.7-5.4-7.7 12.1 2.5 13.2 11-.3-9.4 8.4.1 4.2 12.8-5.6-11.9 16.9 7.9 45 25.3 2.5-24.3 14.1 8.9 40.4 25.1-7.7-22.7 17.8L656.8 400z" style="fill-rule:evenodd;clip-rule:evenodd;fill:#deb051"/><path class="st10" d="M667.8 355.5V239L614.6 65l15.7 85.7 2 .2-1.8 1.1 8.5 46.6 3.1-.9-2.8 2.2z"/><path class="st4" d="M592 187.7c.9 0 1.6.7 1.6 1.6 0 .9-.7 1.6-1.6 1.6-.9 0-1.6-.7-1.6-1.6 0-.9.7-1.6 1.6-1.6M639 228.8c.9 0 1.6.7 1.6 1.6s-.7 1.6-1.6 1.6c-.9 0-1.6-.7-1.6-1.6s.7-1.6 1.6-1.6M656.5 128.2c.8 0 1.5.7 1.5 1.5s-.7 1.5-1.5 1.5-1.5-.7-1.5-1.5.6-1.5 1.5-1.5M624.8 105.8c.6 0 1 .5 1 1 0 .6-.5 1-1 1-.6 0-1-.5-1-1-.1-.5.4-1 1-1M569.8 117.6c.4 0 .7.3.7.7 0 .4-.3.7-.7.7-.4 0-.7-.3-.7-.7 0-.4.3-.7.7-.7M495.3 168.6c.9 0 1.6.7 1.6 1.6 0 .9-.7 1.6-1.6 1.6-.9 0-1.6-.7-1.6-1.6 0-.9.7-1.6 1.6-1.6M534.2 197c.7 0 1.2.5 1.2 1.2s-.5 1.2-1.2 1.2-1.2-.5-1.2-1.2.5-1.2 1.2-1.2M651.5 27.9c.7 0 1.2.5 1.2 1.2s-.5 1.2-1.2 1.2-1.2-.5-1.2-1.2.5-1.2 1.2-1.2M567.6 146.3c.4 0 .8.3.8.8 0 .4-.3.8-.8.8-.4 0-.8-.3-.8-.8.1-.5.4-.8.8-.8"/><path d="M370.2 400c-1.8-3.5-2.9-7.2-3.2-11.2l9.2 8.5c-.2.9-.4 1.8-.7 2.6h-5.3zm-59.7-31.3c3 .6 6 1.4 8.9 2.3-5-3.8-9.4-8.4-13-13.9-3-5.2-1.8-6.8 3.6-4.7 9.3 4.3 16.2 12.5 19.1 22.3 3.7 1.6 7.4 3.5 10.9 5.5-3.9-5.3-6.6-11.3-8.1-17.9-.5-3.3-.1-5 1.2-5.1l9.7 9c3.5 5.7 5.2 12.2 4.7 18.8 1.7 1.2 3.3 2.5 5 3.8.6.6 1.3 1.1 2 1.6-1.7-4.8-2.3-9.8-2-15.2l9.6 8.9c-.1 3.4-.9 6.8-2.3 10.2 3.1 2.1 6.2 4 9.4 5.6h-6.7c-1.9-1.1-3.7-2.3-5.5-3.6-2 1.5-4.1 2.7-6.2 3.6h-17.7c-2.4-1.5-1.7-3.1 2-4.8 6.1-2.2 12-2.8 17.9-1.8-.8-.6-1.6-1.3-2.4-2-2-1.6-4-3.1-6-4.5-7.4 5.4-17 7.2-26.4 4.9-5.5-1.7-5.7-3.7-.5-6.1 6.7-2.4 13.6-3.4 20.6-2.9-4-2.3-8.1-4.4-12.4-6.1-7.1 5.2-16.1 7.2-24.7 5.4-4.9-1.3-4.9-3.1-.1-5.2 5.5-2 11.1-3.1 16.7-3.1-3.4-1-6.8-1.9-10.4-2.5-6.7.9-13.4.3-20.2-1.8-4.7-1.8-4.7-3.5-.1-4.9 7.9-1.9 16.5-.4 23.4 4.2z" style="fill:#012821"/><path d="m395 371.6 1.4-1.4c-1-2.7-1.6-5.6-2-8.6-.8-.7-1.5-1.4-2.2-2.1-.8-.8-1.5-1.5-2.2-2.4-.4-.4-.8-.8-1.3-1.2-2.5-2-4.9-4.3-6.9-7-.2-.2-.4-.5-.7-.8-1.3-1.1-2.6-2.3-3.7-3.6-.8-.7-1.5-1.4-2.2-2.2-1.2-.8-2.3-1.7-3.3-2.7l-.1-.1c-1.5-.8-2.9-1.6-4.3-2.6l-.9-.6c-1.3-.9-2.6-1.8-3.8-2.8-.7-.5-1.5-1.1-2.2-1.6-.5-.2-1-.5-1.5-.8-2.1-1-4.2-2.2-6.1-3.6-.8-.4-1.5-.7-2.3-1.1-4.2-2-8.1-4.8-11.4-8.1l-.7-.7c-.2-.2-.4-.4-.7-.6-6.5-1.3-13.3-2.2-20.2-3-26.1-2.6-32.4.8-18.9 10.3 9.6 6.4 15 8.7 22.3 20 19.9 32.9 39.9 51.4 62.1 54.9.2-10.7 4.7-20.5 11.8-27.6" style="fill-rule:evenodd;clip-rule:evenodd;fill:#28a17c"/><path d="M390.5 400h48c5.5-10.5 3.2-21.6-6.7-33.3-22.4-25.5-56.3-43-97.3-50.2 17.4 18.5 31.2 41 39.7 66.6 1.7 5 3.1 10.1 4.3 15.2 3.9 1.1 7.9 1.7 12 1.7" style="fill-rule:evenodd;clip-rule:evenodd;fill:#047652"/><path d="M302.2 321.9c-1.1-.3-1.6-1.5-1.3-2.5.3-1.1 1.5-1.6 2.5-1.3 22.5 7.4 42.6 15.9 59.7 24.9-.2-1.8-.5-3.6-.9-5.4-.7-2.9-1.7-5.8-2.9-8.5-.5-1 0-2.2 1-2.7s2.2 0 2.7 1c1.4 3 2.5 6.1 3.2 9.3.6 2.8 1 5.6 1.2 8.5 6.8 3.7 13.2 7.5 18.9 11.3.2-2.7.2-5.4-.1-8-.3-3.4-1-6.9-2.1-10.2-.3-1.1.2-2.2 1.3-2.5 1.1-.3 2.2.2 2.5 1.3 1.2 3.6 1.9 7.3 2.3 11 .4 3.6.3 7.3-.1 10.9 6.8 4.7 12.7 9.3 17.8 13.9.6.5 1.2 1.4 1.5 1.9.1.1-.1-.7-.1-.6 9.5 9 15.6 17.6 17.5 25.3 0 .2.1.4.1.6h-4.1c-1.8-6.8-7.3-14.5-15.9-22.7-3.1 1.7-6.3 3.1-9.6 4.2-3.9 1.3-7.9 2.2-11.9 2.7-1.1.1-2.1-.7-2.2-1.8-.1-1.1.7-2.1 1.8-2.2 3.8-.4 7.5-1.3 11.1-2.5 2.7-.9 5.3-2 7.8-3.3-3.3-2.9-7.1-5.9-11.2-8.9-5.1 2.5-10.5 4.6-16 6.1-5.6 1.6-11.4 2.7-17.3 3.3-1.1.1-2.1-.7-2.2-1.8-.1-1.1.7-2.1 1.8-2.2 5.6-.6 11.2-1.6 16.6-3.2 4.6-1.3 9-3 13.3-4.9-1.5-1.1-3.1-2.1-4.7-3.2-3.6-2.4-7.5-4.8-11.5-7.1-4.5 1.6-9 2.8-13.6 3.7-4.6.9-9.3 1.5-14.1 1.8-1.1.1-2.1-.8-2.1-1.9-.1-1.1.8-2.1 1.9-2.1 4.5-.3 9-.8 13.5-1.7 3.3-.7 6.5-1.5 9.7-2.5-1-.6-2-1.1-3.1-1.7-.2-.1-.5-.2-.7-.4-6.4-3.5-13.3-6.8-20.6-10.1-2.6 1.1-5.2 2-7.9 2.7-2.9.7-5.9 1.2-8.9 1.4-1.1.1-2.1-.8-2.1-1.9-.1-1.1.8-2.1 1.9-2.1 2.8-.2 5.5-.6 8.2-1.3 1.2-.3 2.4-.7 3.6-1.1-11.2-4.7-23.3-9.3-36.2-13.5"/><path class="st4" d="M399.1 388.8c.7 0 1.2.5 1.2 1.2s-.5 1.2-1.2 1.2-1.2-.5-1.2-1.2c0-.6.5-1.2 1.2-1.2M336.2 355.3c.3 0 .6.3.6.6s-.3.6-.6.6-.6-.3-.6-.6c-.1-.3.2-.6.6-.6M351.6 322.3c.7 0 1.2.5 1.2 1.2s-.5 1.2-1.2 1.2-1.2-.5-1.2-1.2.6-1.2 1.2-1.2"/><path d="M435.4 173.9c2 3.4 3.9 6.9 5.6 10.4-.9-8.1-.3-16.3 1.7-24.6 2.4-7.4 4.9-7.7 7.6-.8 4.1 12.6 2.5 26.4-4.2 37.8.2.5.4 1 .5 1.6 1.5 4.4 2.8 9 3.8 13.6 1.6-8.4 4.9-16.2 9.7-23.5 4.6-5.8 7.1-5 7.5 2.5-.1 13-5.7 24.7-15.2 32.3.4 2.7.6 5.3.8 8v.2c.1 1 .1 2.1.2 3.1 3.6-6.8 8.8-12.7 15.7-17.6 5.9-3.6 8.3-2.3 6.9 4-3 10.2-10.9 18.2-21.7 22.2.8 5.5 2 10.9 3.6 16 2.4-7.4 6.8-13.6 13.4-18.7 5-3.3 7.2-2.1 6.7 3.6-1.7 9.6-8.3 17-18.3 20.4 2.4 6.4 5.4 12.5 9.1 18.2.4-7.2 3-13.7 7.9-19.3 4-3.8 6.6-2.9 7.6 2.6 1 9.4-3.3 17.3-11.9 22l.9 1.2c2.5 3.1 4.8 6.3 6.9 9.3.8-6.2 3.4-11.8 7.7-16.8 4-3.8 6.6-2.9 7.6 2.6 1 9-3 16.6-10.8 21.3 1.7 3 3.3 5.9 4.6 8.8 3.7 8.2 5.7 16.1 6 23.7.1 1.2-.9 2.1-2 2.2-1.2.1-2.1-.9-2.2-2-.3-7-2.2-14.4-5.7-22.1-1.3-2.9-2.8-5.8-4.6-8.8-11.6 2.2-21.9-1.3-28.1-9.5-3.1-5-1.5-7.3 5-6.8 6.2 1 11.7 3 16.4 6.1-1.3-1.8-2.7-3.6-4.1-5.4-2.9-3.7-5.5-7.6-7.7-11.7-11.8 2.3-22.2-1.1-28.5-9.4-3.1-5-1.5-7.3 5-6.8 7.7 1.2 14.2 4 19.6 8.5-1.2-2.7-2.3-5.4-3.3-8.2-.2-.5-.3-1-.5-1.5-11.5 0-20.6-5-25.1-13.9-2.1-5.3-.1-7.2 5.9-5.6 6.8 2.4 12.4 6 16.7 10.9-.9-3.8-1.6-7.7-2.2-11.7-10.9-1.8-19.6-8-23.9-17.2-2-5.4-.1-6.9 5.7-4.5 7.4 3.8 13.3 8.9 17.5 15.3-.1-1.4-.2-2.7-.3-4.1v-.1c-.2-3.3-.6-6.5-1.1-9.6-11.7-2.3-21.8-9.7-28-20.7-3.3-6.7-1.5-8.7 5.4-5.8 8.2 4.2 15.2 9.9 20.9 17-1-4.4-2.2-8.6-3.6-12.8-.5-1.5-1-2.9-1.6-4.4-11.2-2.1-21-8.9-27-18.6-3.1-5.8-1.4-7.3 4.9-4.7 6.8 3.5 12.7 7.8 17.7 13.2-2-4.1-4.3-8.1-6.8-12-6.8-5.5-12.2-12.4-16.1-20.7-2.4-6-.9-7.5 4.6-4.5 9.3 5.7 15.4 15.1 17.2 25.8" style="fill:#0a5d4f"/><path d="M433.6 344.1c-.4.3-.9.7-1.5 1-11.6 6.4-26 6.1-37.8-.6-7.8-4.8-5.6-11.6 4.3-10.6 12.6 1.6 22 2.7 29.5 2.1 1.8-.1 3.3 0 4.5.3-2.8-5-5.8-10.1-9.2-15.2-.3 1.2-1.4 2.5-3.2 3.7-9.9 6.3-22.9 7.2-34.1 2.4-7.4-3.5-6-9.4 3-9.4 11.5.4 20.1.6 26.8-.5 2.2-.3 3.9-.2 5.1.2-2.2-3.3-4.6-6.6-7.1-9.9-.4 1-1.3 2.1-2.8 3.2-8.9 5.7-20.6 6.5-30.6 2.2-6.7-3.1-5.4-8.4 2.7-8.4 10.3.4 18 .5 24-.5 1.6-.2 3-.2 4 0-1.4-1.8-2.7-3.5-4.2-5.3-.3-.4-.7-.9-1-1.3-.4.8-1.2 1.6-2.5 2.4-7.9 4.3-17.9 4.3-26.2.1-5.5-3.1-4.1-7.5 2.8-7 8.8.9 15.4 1.5 20.5 1 1.1-.1 2-.1 2.8.1-1-1.3-1.9-2.6-2.8-3.9-.5.4-1.2.7-2.1 1-8.2 2.4-17.4.4-24.2-5.1-4.4-3.9-2.3-7.7 4-5.9 7.9 2.6 13.8 4.4 18.7 5h.2c-.9-1.3-1.7-2.7-2.5-4.1-.5-.2-1.1-.5-1.7-.9-7-4.9-11.2-13.3-11.1-22.1.3-5.9 4.6-6.6 7.1-.6 2.9 7.8 5.2 13.6 7.8 17.7.9 1.5 1.3 2.8 1.3 3.8 1.2 2 2.4 4 3.7 5.9-.2-4.6-1.3-10.3-2.9-17.6-1.1-6.4 2.9-8.1 6.3-3.3 4.8 7.4 5.8 16.7 2.5 24.6-.5 1.1-1.1 1.9-1.7 2.4 1.3 1.8 2.7 3.6 4.2 5.5.8 1 1.6 2 2.3 2.9 0-.3 0-.6.1-.8.8-6.8.3-15.5-.6-27-.4-9.1 5.5-10.7 9.3-3.4 5.3 11.1 4.9 24.2-1 34.5-1 1.5-2 2.6-3 3.1 2.2 2.9 4.2 5.8 6.2 8.6-.1-1.4.1-3.1.7-5.1 2.3-7.4 3.5-17.3 4.9-30.5 1.4-10.3 8.4-11 11.2-1.9 3.7 13.6.5 28.2-8.3 38.6-2.1 2.3-4.2 3.3-5.8 3.1 3 4.5 5.7 8.9 8.2 13.3.1-.8.3-1.6.6-2.6.1 2.7.8 5.3 1.9 7.6-.6 1-1.1 2-1.5 3.1-.2.4-.4.8-.6 1.1-.3.7-.8 1.9-1.2 3m-10.4 26.2c-6.6-.1-13.2-1.8-19.1-5.2-7.8-4.8-5.6-11.6 4.3-10.6 7.7 1 14.3 1.8 20 2.1-.1.6-.2 1.3-.3 1.9-.1.3-.1.6-.2.9-.5.7-.9 1.5-1.2 2.3-.3.5-.5 1-.7 1.5-.6 1.1-1 2.3-1.4 3.5-.2.6-.4 1.3-.6 1.9-.4.5-.6 1.1-.8 1.7zm-7.1 17.3c-2.2-.8-4.4-1.8-6.5-3-7.8-4.8-5.6-11.6 4.3-10.6 3 .4 5.8.7 8.4 1v2c0 2.5.4 4.8 1.3 7-.3 1.1-.7 2.3-1 3.4h-.8l.3.1c-.2-.1-.5-.2-.8-.2-.2 0-.4-.1-.7-.1-.2-.1-.4-.1-.6-.1h-.3c-.2-.1-.4-.1-.7-.1-.1 0-.2-.1-.3-.1-.3-.1-.7-.2-1.1-.2-.5.1-1.1.4-1.5.9z" style="fill:#1d9d76"/><path d="M455.9 400v.2h-4v-.1c-.1-5.6-.7-11.3-1.8-17-.7.8-1.6 1.5-2.8 2.2-9.7 5.3-21.3 6-31.8 2.2 1.7-4.2 3.4-8.4 5-12.6 9.3 1.1 16.7 1.7 22.8 1.2 2.3-.2 4.1.1 5.4.6-1.1-4.5-2.4-9-4-13.5-.7.9-1.7 1.7-3 2.5-6 3.3-12.8 4.8-19.5 4.6 1.7-4.6 3.2-9.2 4.7-13.8 4 .3 7.6.3 10.8 0 1.9-.1 3.4 0 4.6.3-2-5.1-4.3-10-6.8-14.9-.7 1.1-1.8 2.2-3.5 3.2-.6.3-1.3.7-1.9 1 1.5-4.9 2.8-9.9 4.1-14.9l.2.3c.2-1.3.6-2.8 1.4-4.5 3.5-7 6.1-16.7 9.4-29.5 2.9-10 10.6-9.6 12.4-.3 2.2 14-3.1 28.1-14.1 37-2.5 1.9-4.7 2.6-6.4 2.3 3.1 5.7 5.9 11.6 8.4 17.6.4-1.2 1-2.6 2-4 4.7-6.8 8.8-16.4 14-29.2 4.4-9.9 12.3-8.5 12.9 1.5.3 14.8-7.3 28.6-19.9 36.3-2.7 1.5-5 1.9-6.6 1.5 1.6 4.3 2.9 8.6 4 12.8.6-.8 1.3-1.7 2.2-2.6 5.9-5.7 11.8-14.3 19.4-25.9 6.3-8.9 13.8-5.9 12.4 4-2.6 14.6-12.7 26.7-26.6 31.8-2.2.7-4.1.9-5.6.6 1.4 6.5 2.1 12.8 2.2 19.1" style="fill:#01362c"/><path class="st4" d="M462.8 333c1 0 1.9.8 1.9 1.9 0 1-.8 1.9-1.9 1.9-1 0-1.9-.8-1.9-1.9 0-1 .8-1.9 1.9-1.9M443.1 322.7c.5 0 .9.4.9.9s-.4.9-.9.9-.9-.4-.9-.9.4-.9.9-.9M410.3 322.3c.6 0 1.2.5 1.2 1.2 0 .6-.5 1.2-1.2 1.2-.6 0-1.2-.5-1.2-1.2s.6-1.2 1.2-1.2M426.4 383.7c.5 0 .9.4.9.9s-.4.9-.9.9-.9-.4-.9-.9.4-.9.9-.9M413.4 343.4c.6 0 1 .5 1 1 0 .6-.5 1-1 1s-1-.5-1-1 .4-1 1-1M386.5 268.7c.6 0 1.1.5 1.1 1.1 0 .6-.5 1.1-1.1 1.1-.6 0-1.1-.5-1.1-1.1 0-.6.5-1.1 1.1-1.1"/><path class="st25" d="M459.6 400h78.7l21.3-45.5c17.3-21 13.6-31.4-11.3-31-16.9.3-14.5-11.4 7.8-14.9 13.3-1.7 22.1-14.1 25.8-33.1 2.3-13.4.3-16.1-10.7-13.4-6.8 2-11 .1-11.7-2.6-2.9 2.4-5.9 4.7-8.9 6.9-3.8 3.5-7.6 6.9-11.6 10.2-1.2 1.1-2.5 2.2-3.7 3.3-5.5 7.1-11.3 14.1-17.3 20.8-.5.8-1 1.6-1.5 2.3 1.2 2.6 2.3 5.3 3.2 8.1 3.5 10.8-4.8 14.3-10.3 2.7-3.8 5.6-7.8 11.1-11.9 16.5-2.6 3.5-5.2 6.9-7.9 10.3 2.3 4.8 5.2 8.8 8.3 11.4 4.9 3.9 3.5 9.9-.2 9.8-4.3-.2-8.3-4.3-12-12.4-.4-.9-.7-1.6-1.1-2.4-1 1.4-2.1 2.8-3.1 4.2-5.3 9-11 17.9-17.1 26.6.1.4.2.7.2 1.1v2c0 .4-.1.7-.1 1 0 .3 0 .7-.1 1v-.2c0 .2 0 .4-.1.7 0 .4 0 .8-.1 1.2 0 .3-.1.6-.2.8 0 .6-.2 1.1-.4 1.6-.1.3-.3.6-.4.9l-.5 1c-.1.2-.2.5-.3.7-.1.2-.2.4-.4.6-.1.2-.2.5-.4.7-.1.3-.3.6-.5.8-.1.1-.1.3-.2.4 0 .1-.1.2-.1.3l-.3.6v.1c-.4 2.5-.7 4.8-.9 6.9"/><path d="M486.2 350.6c-.1-.3-.3-.6-.4-.9-3.7-8.5-7.7-9.6-10.9-4.4-8.4 14.5-12.6 33.6-14.9 51.7 7.7-16.1 16.5-31.5 26.2-46.4m24.7-33.7c-1.7-2.6-3.3-6.4-4.4-11.7-2.3-10.4-13.3-14.4-20.4 3.3-4 9.8-1 24.7 4.8 35 6.4-9.1 13-18 20-26.6zm53.2-53.9c-7.7-1.1-6.8-9.9 8.2-11.5 5.7-.5 9.2-4 12.6-8.2 4.1-5 10-15.3 17.6-30.9 12.3-22.7-6.1-22.8-48.7 4.7-10.7 7.3-13.7 17.7-9.6 35.2 2.1 10.8-9.1 11.6-10.1-3.8-.6-14.4-11.8-12.4-26.2 13.6-5.7 10.3-5.2 20 1.4 29 3.3 4.8 6.7 10.4 9.2 16.8 14-16.2 29.3-31.2 45.6-44.9z" style="fill-rule:evenodd;clip-rule:evenodd;fill:#349072"/><path d="M594.9 200.8c.8-.7 2.1-.7 2.8.1.7.8.7 2.1-.1 2.8-20.9 18.8-38.8 44.6-53.7 77.3 4.8-.7 9.5-2 13.9-3.8 5.5-2.3 10.6-5.3 15.2-9.2.9-.7 2.1-.6 2.8.3.7.9.6 2.1-.3 2.8-4.9 4.1-10.4 7.4-16.3 9.8-5.5 2.3-11.4 3.8-17.4 4.4-8.7 19.8-16.4 42-22.9 66.7 6.9-.9 13.6-3 19.8-6 6.9-3.4 13.2-8 18.5-13.7.8-.8 2-.8 2.8-.1.8.8.8 2 .1 2.8-5.7 6-12.3 10.9-19.7 14.5-7.1 3.5-14.7 5.7-22.6 6.6-3.6 13.8-6.9 28.4-9.8 43.8h-4v-.4c.2-1.3.5-2.5.7-3.8-6.9-3.5-13-8.2-18-13.9-5.3-6.1-9.4-13.2-11.9-21.1-.3-1.1.2-2.2 1.3-2.5 1.1-.3 2.2.2 2.5 1.3 2.4 7.3 6.2 14 11.1 19.6 4.4 5 9.7 9.3 15.8 12.5 3-14.8 6.3-28.9 9.9-42.3-6.7-5.2-12.2-11.6-16.1-18.9-4.2-7.6-6.7-16.2-7.3-25.1-.1-1.1.8-2.1 1.9-2.1 1.1-.1 2.1.8 2.1 1.9.6 8.3 2.9 16.3 6.8 23.4 3.5 6.3 8.1 12 13.8 16.6 5.1-18.4 10.8-35.3 17.1-51-5-5.1-8.8-11.1-11.2-17.6-2.5-6.8-3.6-14.1-3.1-21.5.1-1.1 1-1.9 2.2-1.9 1.1.1 1.9 1 1.9 2.2-.5 6.8.5 13.5 2.8 19.8 2.1 5.5 5.1 10.6 9.2 15 1.5-3.7 3.1-7.3 4.7-10.9 15.2-33 33.4-59.2 54.7-78.4"/><path class="st4" d="M514.5 278.9c.7 0 1.3.6 1.3 1.3 0 .7-.6 1.3-1.3 1.3-.7 0-1.3-.6-1.3-1.3.1-.7.6-1.3 1.3-1.3M506.5 357c.7 0 1.2.5 1.2 1.2s-.5 1.2-1.2 1.2-1.2-.5-1.2-1.2c0-.6.5-1.2 1.2-1.2M575.6 235.5c.7 0 1.2.5 1.2 1.2s-.5 1.2-1.2 1.2-1.2-.5-1.2-1.2.5-1.2 1.2-1.2M468.5 393.6c.6 0 1 .4 1 1s-.4 1-1 1-1-.4-1-1c0-.5.4-1 1-1M524.3 381.5c.8 0 1.5.7 1.5 1.5s-.7 1.5-1.5 1.5-1.5-.7-1.5-1.5.6-1.5 1.5-1.5M546.8 223.4c1.1 0 2 .9 2 2s-.9 2-2 2-2-.9-2-2 .9-2 2-2"/><path d="M651.1 326.2c-4.3 3.1-9.2 6.3-14.9 9.6-8.9 5.1-7.6 11.8-.1 10.4 1.9-.4 3.7-.8 5.4-1.4-2.7 5.7-5 11.7-6.9 17.8l-1.1 1.1c-1.3 1.2-2.5 2.4-3.7 3.7-1.4 1.4-2.8 2.7-4.1 4.2-.6.6-1.2 1.1-1.8 1.7-.7.5-1.3.9-2 1.4-1.8 1.1-3.5 2.2-5.2 3.4l-.9.6c-2.7 1.3-5.4 2.8-8 4.3-2 .8-3.9 1.7-5.9 2.7-2.7 1.1-5.4 2.3-8 3.5-2.1.8-4.2 1.6-6.3 2.5-2.9 1-5.8 2.1-8.7 3.3-1.3.5-2.6 1-4 1.6-2.8 1.1-5.6 2.2-8.3 3.5h-38.8c-.6-21.7 5.4-43 17.1-61.3 3.4-5.2 7.2-4.2 10.1 2.4 3.4 7.6 7.5 12.8 12.5 15.9 5.4 3.5 8.4 1.7 6.9-3.5-2.3-7.5-5.2-13.1-8.7-16.9-5-6.1-6.9-12.5-5.8-19.1 4.8-3.7 9.3-7.7 13.6-12l3.1-3.1c2.6-2.6 5.2-5.3 7.7-8 1.7-.4 3.3-.8 5-1.3.3 2.4.3 5.6 0 9.5-.4 10.6 3.2 16.6 10.9 18.1 8.4 1.4 11.1-3.7 6.5-13-3.5-6.8-5.6-12.9-6.3-18.2 3.8-1.3 7.5-2.8 11.2-4.4 8.2-3.4 16.1-7.6 23.4-12.4 5.6.6 11.2.8 16.8.7h.9c3.8 0 7.5-.2 11.2-.4-.6 6.7-.8 13.4-.4 20.1-2.1 6.1-3.8 12.4-5 18.9-2.7 4.6-5.2 9.3-7.4 14.1" style="fill-rule:evenodd;clip-rule:evenodd;fill:#127363"/><path d="M600.8 291.8c-1.6-8.6.3-15.3 5.9-20.1 3.5-3.1 7.3-5 11.4-6.5 12.8-4.5 22.1-12 27.9-22.5 4.7-8.9 7.9-8 10.5 2.8 2.8 11.7 5.3 20.7 7.6 27.1-.2 2.1-.4 4.2-.5 6.3-21.6-.6-43.1 3.8-62.8 12.9m-41 28.7c.2-6.6 3.5-13.3 9.8-20.4 13.5-15.7 20.2-16.6 20.1-2.6-10.8 6.2-20.9 13.9-29.9 23z" style="fill-rule:evenodd;clip-rule:evenodd;fill:#39af89"/><path class="st25" d="M630.3 344.7c.8 1.4 2.8 2.1 5.7 1.6 13-2.6 24.1-10.3 31.7-20.9v35.1c-6 7.6-15.6 13.9-28.8 18.9-9.7 3.8-11.1 8.1-4.9 9.9 10.8 3.1 25.4-3.4 33.7-13.3v24H528v-1.3c41.6-2.5 78.2-23.1 102.3-54m37.5-63.5v29c-4.5 7.4-14.8 15.8-30.8 25.3 14.4-22 22.9-48.3 23-76.6 2.9 11.1 5.5 18.5 7.8 22.3z"/><path d="M580.4 322.1c-.2-1.1.6-2.1 1.7-2.3 1.1-.2 2.1.6 2.3 1.7 1.4 8.7 4.7 16.9 9.4 24.1 4.3 6.6 9.8 12.3 16.3 16.9 4.6-10.7 8.7-21.4 12.5-32.1 3.6-10.3 6.8-20.7 9.7-31-4.1-2.9-7.4-6.7-9.6-11.1-2.4-4.8-3.4-10.3-2.9-15.8.1-1.1 1.1-1.9 2.2-1.8 1.1.1 1.9 1.1 1.8 2.2-.5 4.8.4 9.5 2.5 13.7 1.7 3.4 4.1 6.3 7.1 8.7 3-11.2 5.5-22.5 7.6-33.8.2-1.1 1.2-1.8 2.3-1.6 1.1.2 1.8 1.2 1.6 2.3-3.1 16.7-7.1 33.4-12.2 50 3.7-1.9 7.1-4.3 10.1-7.2 4-3.8 7.3-8.4 9.6-13.6.5-1 1.6-1.5 2.6-1s1.5 1.6 1 2.6c-2.5 5.6-6.1 10.7-10.5 14.8-4.2 4-9.1 7.2-14.5 9.4-1.5 4.8-3.1 9.6-4.8 14.3-5.1 14.6-11 29.2-17.6 43.8 8.3-2.1 16.3-5.1 23.8-9 8.7-4.5 16.9-10.1 24.3-16.8.8-.7 2.1-.7 2.8.1.7.8.7 2.1-.1 2.8-7.6 6.9-16.1 12.7-25.1 17.3-8.8 4.5-18.1 7.9-27.8 10.1-3.1 6.7-6.4 13.4-9.8 20h-4.2c0-.4 0-.7.2-1.1 3.7-7.1 7.2-14.3 10.5-21.5 0-.1.1-.1.1-.2 1.7-3.7 3.4-7.5 5.1-11.2-7.2-5-13.3-11.3-18.1-18.5-4.9-7.3-8.4-16-9.9-25.2"/><path class="st4" d="M649.4 264.4c.7 0 1.2.5 1.2 1.2s-.5 1.2-1.2 1.2-1.2-.5-1.2-1.2.5-1.2 1.2-1.2M569.6 325.2c1 0 1.8.8 1.8 1.8s-.8 1.8-1.8 1.8-1.8-.8-1.8-1.8.8-1.8 1.8-1.8M612.2 386.8c.7 0 1.2.5 1.2 1.2s-.5 1.2-1.2 1.2-1.2-.5-1.2-1.2.6-1.2 1.2-1.2M579.8 380.5c1.3 0 2.4 1.1 2.4 2.4 0 1.3-1.1 2.4-2.4 2.4s-2.4-1.1-2.4-2.4c-.1-1.3 1-2.4 2.4-2.4M647.5 319.3c1.4 0 2.5 1.1 2.5 2.5s-1.1 2.5-2.5 2.5-2.5-1.1-2.5-2.5c.1-1.4 1.2-2.5 2.5-2.5M546.5 328.8c.6 0 1.1.5 1.1 1.1 0 .6-.5 1.1-1.1 1.1-.6 0-1.1-.5-1.1-1.1 0-.6.5-1.1 1.1-1.1M490 309.2c.7 0 1.3.6 1.3 1.3 0 .7-.6 1.3-1.3 1.3-.7 0-1.3-.6-1.3-1.3 0-.7.6-1.3 1.3-1.3M478.8 281.7c.4 0 .6.3.6.6 0 .4-.3.6-.6.6-.4 0-.6-.3-.6-.6-.1-.3.2-.6.6-.6M450.5 272.2c.3 0 .5.2.5.5s-.2.5-.5.5-.5-.2-.5-.5.2-.5.5-.5M-91 373.5c1.2 0 2.2 1 2.2 2.2 0 1.2-1 2.2-2.2 2.2-1.2 0-2.2-1-2.2-2.2 0-1.2 1-2.2 2.2-2.2M-2.5 390.2c.6 0 1.1.5 1.1 1.1 0 .6-.5 1.1-1.1 1.1-.6 0-1.1-.5-1.1-1.1-.1-.6.4-1.1 1.1-1.1"/><path d="M-96.7 400h57.6c15.2-5.1 29-13.7 40.3-25-12.8 1.1-25.3 4.3-37 9.7 9.5-8.9 16.7-19.9 21-32.2-13.5 7.3-25.4 17.2-34.9 29.2 9.3-14.7 16.6-30.5 21.8-47-13.5 11.6-24.6 25.9-32.5 41.9 5.5-19.1 8.4-38.9 8.5-58.8-9.9 19.4-16.6 40.3-19.7 61.8-.3-24-4.6-47.8-12.7-70.5-2.3 23.3-1.9 46.8 1.1 70.1-5.5-14-12.4-27.3-20.7-39.8v27.7c3.5 8.7 8.1 16.9 13.5 24.5-4.2-4-8.7-7.7-13.5-11.1v14.9c2.1 1.7 4.6 3.3 7.2 4.6" style="fill-rule:evenodd;clip-rule:evenodd;fill:#43431a"/><path class="st4" d="M-74.8 391.4c.9 0 1.6.7 1.6 1.6 0 .9-.7 1.6-1.6 1.6-.9 0-1.6-.7-1.6-1.6.1-.9.8-1.6 1.6-1.6M-11.7 382.5c.6 0 1.1.5 1.1 1.1 0 .6-.5 1.1-1.1 1.1-.6 0-1.1-.5-1.1-1.1 0-.6.5-1.1 1.1-1.1M-38.5 323.4c.3 0 .6.3.6.6s-.3.6-.6.6-.6-.3-.6-.6.2-.6.6-.6"/><path d="M134.6 221.2c6.4 1.1 9.5 1.7 9.5 1.7-18 18.4-6 31 36.2 37.8 69.4 10.9 84.1 31.6 44 62.2-37.5 30.7 1.1 57.2 110.3 77.1H146.7c-19.2-35.1-6-66.8 33.2-85.2 35-18.2 32.9-27.2-6.4-35.8-47.6-9.6-61.8-33-38.9-57.8" style="fill-rule:evenodd;clip-rule:evenodd;fill:#fdfcec"/><path class="st31" d="M337 78.8c-6.5-5.4-9.5-8-9.5-8 7 8.6 10.5 13 10.5 13 2.2-9.8 3.4-14.7 3.4-14.7-2.8 6.5-4.4 9.7-4.4 9.7M429.8 97.4c-5.1-4.2-7.5-6.3-7.5-6.3 5.5 6.8 8.3 10.2 8.3 10.2 1.8-7.7 2.6-11.6 2.6-11.6-2.2 5.2-3.4 7.7-3.4 7.7M530.4 36.1c-3-2.5-4.4-3.7-4.4-3.7 3.3 4 4.9 6 4.9 6 1-4.6 1.6-6.8 1.6-6.8l-2.1 4.5"/></svg>