<svg version="1.1" id="Layer_1" xmlns="http://www.w3.org/2000/svg" x="0" y="0" viewBox="0 0 600 400" style="enable-background:new 0 0 600 400" xml:space="preserve"><style>.st0,.st3{fill-rule:evenodd;clip-rule:evenodd;fill:#7674af}.st3{fill:#fff}.st16,.st17,.st18,.st19,.st20,.st21{fill-rule:evenodd;clip-rule:evenodd;fill:#f7a79e}.st17,.st18,.st19,.st20,.st21{fill:#e66657}.st18,.st19,.st20,.st21{fill:#bc3526}.st19,.st20,.st21{fill:#ee7b27}.st20,.st21{fill:#2d225c}.st21{fill:#654c99}.st23{fill:#fff}.st26,.st28{fill-rule:evenodd;clip-rule:evenodd;fill:#392a6f}.st28{fill:#7b87c2}</style><path class="st0" d="m406.7 90.3-7.8-1.8c6.5 3.7 9.7 5.5 9.7 5.5.4-7.3.5-10.9.5-10.9-1.6 4.9-2.4 7.2-2.4 7.2M316.6 62.4c-3.5-.8-5.2-1.2-5.2-1.2 4.4 2.5 6.5 3.7 6.5 3.7.2-4.9.4-7.3.4-7.3-1.2 3.2-1.7 4.8-1.7 4.8"/><path style="fill-rule:evenodd;clip-rule:evenodd;fill:#f1eef6" d="M-86 .2h771.5v199.2H-86z"/><path d="M45.7 87.6c107.5 127.2 200.8 140.5 279.9 39.9-4.8-18.8-21.2-32.3-40.6-33.5-19.4-1.1-37.2 10.4-44.2 28.5-5.5-10-16-16.2-27.4-16.2-11.4 0-21.9 6.2-27.4 16.2.6-10.7-5.3-20.8-14.9-25.6-9.6-4.8-21.2-3.3-29.4 3.7-1.4-23.6-19.2-42.9-42.6-46.1-23.4-3.1-45.7 10.7-53.4 33.1" style="fill-rule:evenodd;clip-rule:evenodd;fill:#f6f5fa"/><path class="st3" d="M546.7 72.3C397.7 223.1 291.1 261.8 227 188.2c-4.8-17.2 3.5-35.4 19.7-43 16.2-7.6 35.5-2.3 45.6 12.4-2.5-17.9 6.8-35.4 23.1-43.3 16.3-7.9 35.8-4.5 48.4 8.5-2.3-16.1 4.7-32.1 18.2-41.2 13.5-9.1 31-9.7 45-1.5-1.3-18.2 11.5-34.3 29.5-37.3s35.3 8.2 39.9 25.8c4.3-10.7 15-17.4 26.5-16.5 11.6.7 21.2 9 23.8 20.2"/><path d="M-86 43.7c237.7 200 368.3 252 391.9 155.8L185.3 153c-13.6 2.5-20.4 3.8-20.4 3.8-42.6-26.9-64-40.3-64-40.3-11-21.4-16.5-32-16.5-32-25.9-8.8-38.8-13.2-38.8-13.2C24.4 46 13.8 33.4 13.8 33.4-31.7 11.3-54.5.2-54.5.2h-31.6c.1 29 .1 43.5.1 43.5" style="fill-rule:evenodd;clip-rule:evenodd;fill:#d8d3e9"/><path d="M-86 143.1c176.2 167.7 296.6 202.7 361.2 105-49.9-41-74.9-61.5-74.9-61.5-14.3 1.7-21.4 2.6-21.4 2.6-37.5-21.2-56.3-31.8-56.3-31.8-5.8-13.6-8.8-20.5-8.8-20.5-19.7-8.6-29.6-12.9-29.6-12.9-13.4-11.2-20.1-16.9-20.1-16.9-68.6-40.6-102.9-61-102.9-61-31.5-6.4-47.2-9.7-47.2-9.7v106.7" style="fill-rule:evenodd;clip-rule:evenodd;fill:#c1badc"/><path d="M559.1 31.8c53.1 45.6 95.4 53.4 126.9 23.5 0 0-.2-18.4-.5-55.1h-72.2s-18.1 10.6-54.2 31.6" style="fill-rule:evenodd;clip-rule:evenodd;fill:#e8dfee"/><path d="M475.1 97.8c109.9 55.6 180 61.7 210.4 18.5 0 0 .2-25.8.5-77.3 0 0-10.2-1-30.5-2.9 0 0-4.8 1.9-14.3 5.7l-11.1-9s-10.8 2.8-32.3 8.4c0 0 9.1-8.1 27.3-24.2 0 0-22 4.9-66 14.8 0 0-5.9 7-17.7 21.1-.1 0-22.2 15-66.3 44.9" style="fill-rule:evenodd;clip-rule:evenodd;fill:#b6afd6"/><path d="M560 185.4c76.1-18.3 118.1-31.4 126-39.6 0 0-.2-9.8-.5-29.5 0 0-24.2-3.6-72.7-10.7 0 0-6.3 2-18.8 6.1 0 0-4.6-.1-13.7-.4 0 0-29-7.1-87-21.2l-137.9-3.3C491.8 152.5 560 185.4 560 185.4" style="fill-rule:evenodd;clip-rule:evenodd;fill:#d2cbe5"/><path d="M-85.9 276.2c143.2-9.9 214.8-14.9 214.8-14.9-50.6-50.7-75.9-76-75.9-76-15.1-8.8-22.6-13.1-22.6-13.1C-47.2 138.5-86 121.6-86 121.6c0 103.1.1 154.6.1 154.6" style="fill-rule:evenodd;clip-rule:evenodd;fill:#8372b3"/><path d="M145.5 286.6C296.2 411.1 443.4 371.2 587 166.8c0 0-8.8-5.3-26.3-15.9 0 0-39.6-12.1-118.8-36.4 0 0 3.4-2.4 10.1-7.1 0 0-32.2-6.9-96.5-20.6 0 0 4.6 9.5 13.8 28.6 0 0 3.5 1 10.4 3 0 0 2.1 9.9 6.2 29.7 0 0-7.5 4.8-22.6 14.4 0 0-6-.6-18-1.9 0 0-12.5 6.7-37.4 20.2 0 0-14.5 16.2-43.4 48.7-.1-.1-39.7 19-119 57.1" style="fill-rule:evenodd;clip-rule:evenodd;fill:#a297c9"/><path d="M83.8 293.9v18.7H65.6v-9.7c1.9-.9 3.7-1.8 5.5-2.9l1.6-1 9.5-4.5-.8.3c-.9.3 1.6-.6 2.4-.9m80.3-37.1v55.8h-18.5v-51.8c6.3-.4 12.5-1.7 18.5-4zm80-17.9v73.8h-18.2v-69.8c6.2-.5 12.3-1.8 18.2-4zm84.6-19c-3.9 5.2-6.1 11.5-6.1 18.4v74.3h-.1v53.6h-16.6V238.3c0-5.9-1.7-11.5-4.6-16.2 1.9-.1 3.8-.4 5.7-.7 1.9-.1 3.8-.4 5.7-.7h6.4c3.2 0 6.4-.3 9.6-.8zm132.6-34.5h178.8v127.2h-17.3v-74.3c0-17-13.9-30.9-30.9-30.9S561 221.3 561 238.3v74.3h-18.2v-74.3c0-17-13.9-30.9-30.9-30.9S481 221.3 481 238.3v74.3h-16.8v-74.3c0-17-13.9-30.9-30.9-30.9s-30.9 13.9-30.9 30.9v74.3h-18.2v-74.3c0-14.4-10-26.6-23.4-30 .8-.5 1.6-1.1 2.4-1.7 5.3-.9 10.6-2.5 15.6-4.8 1.5-.4 2.9-.8 4.4-1.3 2.5-.5 4.9-1.2 7.2-2 1.3-.3 2.6-.7 3.9-1.1.3-.1.7-.2 1-.3 2.2-.5 4.4-1.1 6.5-1.9 1.8-.5 3.6-1 5.3-1.6l1.8-.6c2.2-.2 4.4-.5 6.5-.9 1.4-.2 2.7-.4 4.1-.7 2.2-.2 4.4-.5 6.6-.9h6.9c3.4 0 6.6-.3 9.9-.8 6.6-.4 12.7-1.9 18.4-4.3zM3.8 311.2v1.4h-25.3v-4c5.3 1.7 10.9 2.6 16.8 2.6h8.5z" style="fill-rule:evenodd;clip-rule:evenodd;fill:#3b3470"/><path d="M83.8 308.1v4.5H65.6v-.3l18.2-4.2zm-80-42.9v30.7l-25.3 5.8v-23.5c6.4-1.5 12.6-4.1 18.4-8l1.7-1.1c1.8-1.2 3.5-2.5 5.2-3.9zm80-27.5v39.6l-18.2 4.2v-43.2c0-1.3-.1-2.6-.2-3.8 5.8 2.1 12 3.2 18.4 3.2zm155-52.3h243.1l-113.1 26.1c-4.7-2.7-9.9-4.1-15.3-4.1-10.6 0-19.9 5.4-25.5 13.5l-24.4 5.6c-4.8-11.5-16.1-19.1-28.6-19.1-17 0-30.9 13.9-30.9 30.9v2l-18.2 4.2v-6.2c0-17-13.9-30.9-30.9-30.9s-30.9 13.9-30.9 30.9v20.5l-18.5 4.3v-24.7c0-9.3-4.2-17.7-10.7-23.4 6.7-6.1 12-13.8 15.2-22.5h43.8c7.3 0 14.4-1.4 21.1-4.1 8 .7 16.1-.3 23.8-3z" style="fill-rule:evenodd;clip-rule:evenodd;fill:#6e599b"/><path d="M-21.5 185.4h278.1l-120.8 30.5c-5.5-5.2-13-8.4-21.2-8.4-13.6 0-25.2 8.9-29.3 21.2l-20.1 5.1c-2.3-14.8-15.1-26.2-30.5-26.2-17 0-30.9 13.9-30.9 30.9v10.9l-25.3 6.4v-70.4z" style="fill-rule:evenodd;clip-rule:evenodd;fill:#a392c5"/><path d="M685.5 131.7v128.6S541.9 300.5 254.7 381c0 0-113.5-43.9-340.6-131.6 0 0 0-10.7-.1-32 .6-6.6 4.8-12.3 10.8-15 6-2.7 13-2 18.4 1.8.4-6 3.8-11.4 9-14.3 5.2-3 11.5-3.1 16.9-.4 3.5-6.4 10.7-9.8 17.9-8.3 7.1 1.5 12.4 7.5 13 14.8 5.5-2.2 11.8-1.3 16.5 2.3 4.7 3.7 7 9.6 6.1 15.5 3.3-4.2 8.8-6.2 14-5 5.3 1.1 9.4 5.1 10.7 10.4 5-3.9 11.8-4.5 17.5-1.7 5.7 2.8 9.2 8.7 9.1 15 4.4-6.1 12.2-8.8 19.4-6.8 7.3 2 12.5 8.3 13.1 15.8 5.9-3.7 13.6-3.1 18.8 1.5 5.2 4.6 6.7 12.2 3.7 18.5 5.2-4.4 12.6-5.3 18.8-2.3 6.1 3 9.9 9.4 9.6 16.3 4.4-8.4 13.6-13.2 23-12.1 9.4 1.1 17.2 7.9 19.5 17.1 6.5-7.6 17.9-8.7 25.7-2.4 7.8 6.3 9.2 17.6 3.1 25.6 7.8-1.9 16 .7 21.3 6.9 5.2 6.1 6.6 14.6 3.5 22.1 2.6-5.4 8-8.8 14-8.6 6 .2 11.3 3.8 13.5 9.3.6-8 4.7-15.2 11.3-19.8 6.6-4.5 14.8-5.8 22.5-3.6-.8-10.1 4.8-19.5 13.9-23.9 9.1-4.3 19.9-2.6 27.2 4.3-.1-6 3.4-11.5 8.8-14 5.4-2.6 11.8-1.7 16.4 2.1-2.5-7.8 1-16.3 8.2-20.1 7.2-3.8 16.2-1.9 21.2 4.6.3-5.3 3.5-10.1 8.3-12.4 4.8-2.4 10.5-2 14.9 1-3.2-7-2-15.3 3-21.1 5-5.9 13-8.3 20.4-6.2-.3-6.4 3.4-12.3 9.4-14.6 6-2.3 12.8-.6 16.8 4.4.6-6.9 5-12.9 11.4-15.7 6.4-2.7 13.8-1.7 19.2 2.7a21.1 21.1 0 0 1 8.7-20.2c6.5-4.6 14.9-5.1 21.9-1.4.4-6.4 4.2-12.1 9.9-15 5.7-2.9 12.5-2.5 17.9.9 2.7-5.5 8.5-8.8 14.6-8.3s11.3 4.7 13 10.6c.1-6.3 4.2-11.9 10.2-13.8 6-1.9 12.6.2 16.3 5.3-.1-6.6 3.7-12.5 9.6-15.3 5.9-2.8 12.9-1.9 18 2.3.5-7.3 4.9-13.8 11.6-16.8 6.4-2.9 14.2-2.1 20 2.3" style="fill-rule:evenodd;clip-rule:evenodd;fill:#fce0d7"/><path d="M354.2 399.9c202.8-50.2 313.3-89.1 331.4-116.8v-45.6c-2.3-8.2-9.7-13.9-18.3-13.9-8.5 0-16 5.7-18.3 13.9-1.7-13.6-12.7-24.1-26.4-25.2-13.7-1.1-26.2 7.6-30 20.8-11.3-6.6-25.8-3.7-33.7 6.7-2.1-11.1-12.1-19-23.4-18.5-11.3.5-20.5 9.2-21.7 20.5-4.9-4.1-11.5-5.2-17.5-3.1s-10.3 7.3-11.5 13.5c-3.5-3.4-8.3-5.1-13.2-4.6-4.8.4-9.3 3-12.1 7-7.2-3.6-15.8-2.6-22 2.4-6.2 5-9 13.2-7 21-5.8.2-11.3 3-14.9 7.6-3.6 4.6-5 10.5-3.8 16.3-6.4-4.4-14.6-5.4-22-2.8-7.4 2.6-13 8.6-15.2 16.1-9.9-3.2-20.7.4-26.7 8.9-10.3-5-22.6-4-31.9 2.8-9.3 6.8-14.1 18.1-12.5 29.5-7.8-3.7-17.1-2.4-23.7 3.2-.6.5-1.2 1.1-1.8 1.7-1.4-5.3-4.7-10-9.5-13.1-8.2-5.3-19-4.7-26.5 1.6 2-5.4.9-11.4-2.9-15.7-3.8-4.3-9.7-6.1-15.2-4.7 3.4-7.1 2.2-15.6-3-21.4-5.2-5.9-13.5-8-20.9-5.4-3.7-6.7-10.6-11.1-18.3-11.7-7.7-.6-15.1 2.7-19.8 8.8-2.3-7.3-8.8-12.4-16.4-12.9-7.6-.5-14.7 3.7-18 10.6 1-7.6-2.6-15-9-19-6.5-4-14.7-3.9-21 .4-1.8-7.1-7.4-12.5-14.5-14.1-7.1-1.6-14.5 1-19.1 6.7-2.9-4.2-7.8-6.4-12.9-5.8-5 .6-9.3 3.9-11.2 8.6-.3-5.9-4-11.1-9.6-13.2-5.6-2.1-11.8-.6-15.9 3.7-.1-5.9-3.7-11.2-9.2-13.5-5.5-2.2-11.8-1-16 3.2-2-3.6-5.8-5.9-9.9-6-4.1-.1-8 2-10.2 5.5-.7-4-3.7-7.2-7.6-8.2-3.9-1-8.1.5-10.6 3.6-.5-4.2-3.4-7.8-7.4-9.3-4-1.5-8.5-.6-11.7 2.3-1.1-3.7-4.3-6.5-8.2-6.9-3.9-.4-7.6 1.5-9.5 5v62.3c209.5 65 314.2 97.4 314.2 97.4H354.2z" style="fill-rule:evenodd;clip-rule:evenodd;fill:#f9c4bf"/><path class="st16" d="M131.4 399.9h110.2c.4-5.3-1.9-10.3-6.1-13.5-4.2-3.2-9.7-4-14.7-2.1 2.3-6.9-.2-14.5-6.1-18.8-5.9-4.3-13.9-4.3-19.7 0 .5-5.5-1.9-10.9-6.3-14.3-4.5-3.3-10.3-4.1-15.5-2-2.5-5.6-7.8-9.4-13.8-10-6.1-.6-12 2.1-15.6 7 .3-6.2-3.1-12-8.6-14.8-5.6-2.8-12.2-2-17 1.9.1-6.9-3.6-13.4-9.6-16.8-6-3.4-13.4-3.3-19.3.3 1.7-4.7.5-10-3-13.5-3.6-3.5-8.9-4.6-13.6-2.8.1-7-5.2-12.9-12.2-13.6-7-.7-13.3 4.1-14.6 11-1.4-3.2-4.1-5.7-7.5-6.8-3.4-1.1-7-.6-10 1.3-.5-3.8-3.2-6.9-6.9-7.9-3.7-.9-7.6.5-9.9 3.6-2.9-3.8-7.7-5.7-12.4-5-4.8.7-8.8 3.9-10.5 8.4-4.4-6.2-11.9-9.5-19.5-8.5s-14 6-16.7 13.2c-9 19.9-7 35.1 5.7 45.6 126.6 38.7 173.2 58.1 173.2 58.1M340.8 399.9h344.8V273.2c-3.5-1.2-7.3-.1-9.7 2.7-2.4 2.8-2.9 6.7-1.3 10-2.6-5.7-8.5-9.2-14.8-8.5-6.2.7-11.3 5.3-12.6 11.5-.4-5.2-3.8-9.6-8.7-11.4-4.9-1.8-10.3-.7-14.1 2.9-.6-6.2-5.9-11-12.2-10.8-6.3.2-11.3 5.2-11.5 11.5-4-3.1-9.3-3.9-14.1-2.2-4.8 1.7-8.3 5.8-9.4 10.7-3.8-1.5-8.1-.9-11.5 1.5-3.3 2.4-5.2 6.3-5 10.4-3.2-5.7-9.5-9-16-8.2-6.5.8-11.9 5.4-13.7 11.7-2.8-4.6-8.6-6.5-13.6-4.3-5 2.1-7.6 7.5-6.3 12.8-5.3-1.8-11.2.1-14.5 4.7-3.3 4.6-3.3 10.7 0 15.3-3.7-3.4-9-4.6-13.9-3.1-4.8 1.5-8.5 5.5-9.6 10.5-2.9-6.8-10.1-10.7-17.3-9.3-7.3 1.4-12.6 7.6-12.7 15-5-4-11.6-5.2-17.7-3.1-6 2-10.6 7-12.2 13.2-4.2-6.6-12.6-9.2-19.8-6.1-7.2 3.1-11.1 11-9.1 18.6-4.7-.3-9.2 1.6-12.4 5.1-3.1 3.5-4.5 8.2-3.8 12.9-5.2-3.3-11.7-3.7-17.3-1-5.5 2.3-9.3 7.6-10 13.7"/><path class="st17" d="M-26.5 338.1C-47.5 379.3-58 400-58 400h195.6c1.2-3.8.1-7.9-2.7-10.6-2.9-2.7-7-3.6-10.7-2.2 1.1-5.3-1.2-10.8-5.8-13.7-4.6-2.9-10.5-2.8-14.9.3-1.7-3.7-5.1-6.4-9.1-7.3-4-.9-8.2.2-11.3 2.9.3-5.2-2.4-10.1-6.9-12.7-4.5-2.6-10.1-2.4-14.5.5 1.4-4.5-.4-9.3-4.4-11.8-4-2.4-9.2-1.8-12.5 1.5 1.5-6.1-1.5-12.4-7.2-15-5.7-2.6-12.5-.8-16.1 4.3.6-3.1-.8-6.3-3.5-8-2.7-1.7-6.1-1.7-8.7.1-1.4-3-4.1-5.3-7.3-6.2-3.2-.9-6.7-.3-9.5 1.5-12.6 9.6-19 14.5-19 14.5M427.4 399.9h258.1v-94.8c-2.6-.9-5.5-.1-7.3 2-1.8 2.1-2.2 5-1 7.5-1.9-4.3-6.4-6.9-11.1-6.4-4.7.5-8.5 4-9.4 8.6-.3-3.9-2.9-7.2-6.5-8.6-3.6-1.4-7.7-.5-10.5 2.2-.4-4.7-4.4-8.2-9.1-8.1-4.7.2-8.5 3.9-8.6 8.6-3-2.3-7-3-10.6-1.7-3.6 1.3-6.2 4.3-7.1 8-2.9-1.1-6.1-.7-8.6 1.1s-3.9 4.7-3.8 7.8c-2.4-4.3-7.1-6.7-12-6.2-4.9.6-8.9 4-10.3 8.8-2.1-3.4-6.4-4.8-10.2-3.2-3.7 1.6-5.7 5.6-4.7 9.6-4-1.3-8.4.1-10.9 3.5s-2.5 8 0 11.4c-2.8-2.6-6.8-3.5-10.4-2.3-3.6 1.1-6.4 4.1-7.2 7.9-2.1-5.1-7.5-8-13-7-5.4 1-9.4 5.7-9.5 11.2-3.7-3-8.7-3.9-13.2-2.3-4.5 1.5-8 5.2-9.1 9.9-3.1-5-9.4-6.9-14.8-4.6-5.4 2.3-8.3 8.2-6.8 13.9-3.5-.2-6.9 1.2-9.3 3.8-2.3 2.6-3.4 6.2-2.8 9.6-3.9-2.5-8.8-2.8-12.9-.8-4 2.1-6.8 6.1-7.4 10.6"/><path class="st18" d="M556.4 175.8c-1.2 12.6 2.1 18.1 2.1 18.1 3 5.3 7.3 7 10.9 6.3 1.2 2.1 2.3 4.2 3.5 6.3-2.8-2.8-7.2-4.5-13.1-3.5-8.4 1.5-18.3 8.4-18.3 8.4-3.9 2.8-3.3 3.9-.4 6.4 12.9 10.7 20.9 10.5 20.9 10.5 11.5.2 16-9 13.9-16.4 3.1 5.4 6.3 10.7 9.6 15.9 1.8 2.9 3.6 5.7 5.4 8.5-2.6-1.5-6-2.3-10.1-2.1-9.9.7-22.5 7.9-22.5 7.9-5 2.9-4.4 4.3-1.4 7.8 13.3 14.7 22.7 15.5 22.7 15.5 13.3 1.7 19.9-8.8 18.6-18.1 3.3 4.9 6.6 9.7 10.1 14.4.5.7 1.5.8 2.1.3.7-.5.8-1.5.3-2.1-4.8-6.7-9.5-13.4-14-20.3 6.5 5.7 18.5 3.8 22.6-10.6 2.5-9.5.7-23 .7-23-.8-5.3-2.1-5.1-5.8-3-16.1 9.3-19.6 18-19.6 18-2.4 5.2-2.6 9.7-1.4 13.2l-5.1-8.1c-2.2-3.6-4.5-7.2-6.6-10.9 7.3 5.1 19.2-.3 17.2-15.1-1.3-8.5-7.5-18.7-7.5-18.7-2.5-4-3.5-3.4-5.8-.4-9.6 13.2-9.4 21.4-9.4 21.4 0 1.4.1 2.7.3 3.9-1.4-2.4-2.7-4.8-4.1-7.3 4.1-2.6 5.9-8.9.6-15.7-4.3-5.2-12.5-9.6-12.5-9.6-3.1-1.6-3.5-.8-3.9 2.1"/><path class="st19" d="M554 282.3c.4-.2 1-.2 1.4-.1 4-7.3 11.3-11.9 19.7-13.2 4.9-.6 5.5 3.7-1.3 10.4-4.8 4.5-11.4 6-17.6 6.2-.6 6.7-2.6 13.7-7.6 18.7-8.1 7.7-13 6.9-12.2 1.2 1.9-10.2 8-18.9 17.6-23.2m-41-38.8c6.3-1.8 12.8-5.1 16.6-11 5.5-9 3.8-13.4-1.3-11.5-8.7 3.6-15.3 10.6-17.6 19.6-1.6-2-3.2-4.1-4.8-6.2 5-3.1 9.7-7.4 11.5-13.4 2.4-8.8-.1-12-3.9-9.2-6.1 4.9-9.8 11.9-9.8 19.6-1.4-1.9-2.7-3.9-4.1-5.9.5-5.5-.1-11.5-3.5-16.3-5.4-7.3-9.5-7.3-9.6-2.6.1 8.4 3.8 16.1 10.6 20.8l3.3 4.8c-7.4-3.2-15.6-2.3-22.7 1.7-4 2.5-1.9 6 7.2 6.9 6.4.5 12.3-2.5 17-6.2l.2-.2c1 1.4 2 2.7 3 4-9-.3-17.5 4.2-23.5 11.6-3.3 4.4.2 7.3 10.1 4.4 6.7-2.1 11.8-7.6 15.5-13.4 2 2.6 4.1 5.1 6.1 7.4-9 .3-17.2 5.2-22.8 13-3.1 4.6.6 7.3 10.4 3.8 6.6-2.5 11.3-8.3 14.7-14.3 1.2 1.4 2.4 2.7 3.6 3.9-7.5 3-12.7 9.8-14.7 18.2-1 4.7 2.9 5.6 9.6-.3 4.4-4.1 6.3-10.1 7.1-15.8 2.6 2.7 5.3 5.2 8 7.5-7.8 4-12.9 11.4-14.5 20.2-.7 5.1 3.7 5.8 10.9-1.1 4.4-4.4 6.2-10.5 6.7-16.4 2.6 2.2 5.3 4.2 8 6-9 4.4-14.8 12.8-16.6 22.8-.8 5.7 4.1 6.5 12.2-1.2 5.2-5.2 7.1-12.5 7.6-19.4 1.5 1 3.1 1.9 4.6 2.8.7.4 1.7.2 2.1-.6.4-.7.2-1.7-.6-2.1l-2.1-1.2c5.3-2.6 10.4-6.5 12.9-12.2 3.6-8.9 1.4-12.6-2.9-10.1-7.4 4.6-12.3 11.9-12.9 20.5-4.5-2.9-8.9-6.2-13.2-10 6-1.3 12.4-3.9 16.3-9.3 5.5-7.9 4.1-12-.6-10.5-8.5 3-15 9.4-17.4 18.1v.2c-2.4-2.2-4.8-4.5-7.2-7-.6-.6-1.2-1.3-1.8-1.9 6.2-.8 12.7-2.9 17.2-7.8 6.6-7.6 5.6-12 .5-11-9 2.1-16.4 7.9-19.9 16.5-2-2.1-3.8-4.1-5.5-6.2z"/><path class="st20" d="M515.4 329c32.4 18.9 43.2 19.5 32.3 1.9-32.5-31.8-57.7-46-75.5-42.7 4.9 2.1 8.4 6.3 8.8 14.3.8 9.7 7.5 15.2 17.3 18.3 9.1 2.9 14.8 5.7 17.1 8.2"/><path class="st21" d="M549.1 335.5c-.8 1.7-1.1 2.6-1.1 2.6-7.2-15.8-16.3-23.6-27.2-23.5-9.6 0-16.2-2.3-20.2-10-6.2-12.1-14.3-16.6-24.3-13.3-9.9 3.3-18.3 2-27.2-7.4-4.9-5-7-8.8-1.2-9.1 42.9-2.4 83 21.7 101.2 60.7"/><path class="st20" d="M481.9 335.5c-27.6 16.3-43.1 28.1-46.6 35.2 20 4 34.1-.5 42.6-13.6 9.5-4.1 14.3-6.1 14.3-6.1 3.5 2.4 7.1 3.8 10.8 4.2.6.1 1.2.1 1.7.1 7.8.3 13.3 5.1 16.8 12.9 27.4-.8 50.2 5.4 50.2 5.4-1-6.6-9.1-23.2-15-26.2-17.2-16.2-45.7-17.3-74.8-11.9"/><path class="st21" d="M556.9 347.5c1.1 2.2 1.6 3.3 1.6 3.3-7.9 3.5-17.3 1.5-28-6.1-10.6-8.2-25.8-6.9-34.4 3.7-7.4 9-17.2 16.2-28.6 13.1-11.2-3.2-23.3-.2-28.2 11-7.6 17.5-14.1 16.9-19.6-1.8-4.3-16 14.1-31.5 52.1-40.8 35.6-9.2 64-3.4 85.1 17.6"/><path d="M661.5 367c-19.4 5.4-28.6 16.4-27.4 32.8h37.2c6.2-1.4 11-3.3 14.2-5.9v-31.8c-8.3-1-16.7.7-24 4.9m-84 12.8 8.4 20.4h-36c-5.6-5.5-13.4-8.1-21.2-7-13.5 2-27.6-1.4-37.6-10.9-8.2-7.7-7.6-13.5-1.9-14 6.4-.7 16.5-1.6 31.9-6.7 20.8-7.3 43.9.1 56.4 18.2z" style="fill-rule:evenodd;clip-rule:evenodd;fill:#6e589a"/><path class="st23" d="M582.8 394c.5.7.3 1.7-.4 2.2-.7.5-1.7.3-2.2-.4-5.6-8.4-13.6-14.3-22.6-17.4-9-3.1-19-3.3-28.5 0-5.4 1.8-10.7 2.7-15.8 2.8-5.1.1-10.1-.7-14.8-2.4-.8-.3-1.3-1.2-1-2 .3-.8 1.2-1.3 2-1 4.4 1.6 9 2.3 13.7 2.3 4.8-.1 9.7-.9 14.9-2.6 10.2-3.4 20.9-3.3 30.5 0 9.7 3.1 18.3 9.5 24.2 18.5"/><path d="M660.4 223.9c-1.3 2.1-2.5 4.1-3.8 6.2 2.3-2.3 5.9-3.8 10.7-3.6 7.8.5 17.6 5.8 17.6 5.8l.4.2v6.1c-10.5 10.6-17.6 11.2-17.6 11.2-11 1.4-15.9-7.2-14.1-14.4-4.4 8-8.3 16.1-11.5 24.4 2.6-2.6 6.5-4.6 11.8-5.2 10.2-1 24 3.9 24 3.9 5.4 2 5 3.5 2.4 7.4-11.7 16.6-21.2 18.9-21.2 18.9-12.7 3.7-20.6-4.4-21.3-13.2-4.4 13.4-7.4 27.1-8.8 41.2-.1.8-.8 1.5-1.7 1.4-.8-.1-1.5-.8-1.4-1.7 1.6-15.5 5-30.5 10.2-45.3-5.8 5.4-15.8 6.2-22.9-3.4 0 0-5.9-7.3-5.1-26.8.3-4.5.9-5.9 6.2-4.2 0 0 13.4 4.4 20.6 11.1 3.8 3.6 5.6 7.5 5.9 11.1 2.5-5.8 5.2-11.6 8.2-17.4-5.5 4.9-14.7 5.6-21.2-3.4 0 0-5.5-6.8-4.7-25 .3-4.2.8-5.5 5.8-3.9 0 0 12.5 4.1 19.2 10.4 4.7 4.6 6.2 9.6 5.5 13.9 1.4-2.4 2.8-4.7 4.3-7.1-4.6-3.4-6.7-10.3-1-17.3 4.7-5.5 14.2-9.9 14.2-9.9 3.8-1.7 4.3-.7 4.9 2.6 2.2 14.3-1.5 20.1-1.5 20.1-3.9 6.3-9.5 7.6-14.1 5.9m19.1 81.3c-15.2 13.4-25 13.5-25 13.5-24.6 1.2-23.5-33.6 1.9-30.5 10.2 1.4 22.4 9.3 22.4 9.3 4.9 3.1 4.2 4.5.7 7.7z" style="fill-rule:evenodd;clip-rule:evenodd;fill:#d8422f"/><path d="M611.3 399.9h27.6c.6-7.7 4.7-14.4 11-19.1 16.5-12.2 26.8-27.3 31-45.4 1.1-5.1 2.7-8.1 4.6-10.5v-19.5c-8.1.3-16 3.4-22.2 8.6-3.2 2.6-6.9 4.5-11.7 5.7-11.3 2.7-18.3 9-21 18.9-12.9 40.9-19.3 61.3-19.3 61.3" style="fill-rule:evenodd;clip-rule:evenodd;fill:#8a73b3"/><path class="st23" d="M678.5 315.4c.9-.2 1.7.3 1.9 1.2.2.9-.3 1.7-1.2 1.9-4.4 1.1-8.1 6-10.3 9.7-3.5 5.9-7.1 11.2-11.1 16.3-4 5-8.5 9.8-13.8 14.4-12.2 10.8-18.5 24.3-18.9 40.7v.3H622v-.4c.4-17.3 7.1-31.7 20-43 5.2-4.5 9.5-9.1 13.4-14 3.9-4.9 7.4-10.1 10.9-15.9 2.7-4.6 6.8-9.9 12.2-11.2"/><path class="st21" d="M592.3 312.7c-6.3 18.4 1.3 44.5 23.1 78.5 19.4-14.3 27.3-33.7 20.5-58.7-3-10.7-2.4-17.1-.4-23.9 3.1-11.9.9-22.9-6.6-33-6.3-8.6-8.3-16.8-7.3-24.6 1.1-10-9.6-8.1-20.7 6.8-6.4 8.9-8.5 19.7-6.4 32.2 1.6 9.5.6 17-2.2 22.7"/><path class="st23" d="M685.6 373.2c-7.7 1-14.7 4.8-19.7 10.7-3.2 3.7-6.5 7.4-9.9 10.7-2 1.9-4 3.7-5.9 5.3h-5.4c2.9-1.9 6-4.5 9.1-7.6 3.3-3.2 6.5-6.8 9.7-10.5 5.6-6.6 13.5-10.9 22.1-11.8v3.2zM611.8 260.6c.3-.8 1.2-1.2 2-.9.8.3 1.2 1.2.9 2-1.6 4.3-2.6 8.6-2.7 13-.2 4.4.5 8.9 2 13.6 2.4 7.3 3.8 13.8 4.3 19.6.5 5.9-.1 11-1.6 15.3-2.8 7.7-4.6 14.4-5 20.2-.4 5.7.5 10.6 3.2 15.1.4.8.2 1.7-.6 2.2-.8.4-1.7.2-2.2-.6-3-5.1-4.1-10.6-3.6-16.9.4-6.2 2.3-13.1 5.2-21.1 1.4-3.9 1.9-8.6 1.5-14-.4-5.5-1.8-11.8-4.1-18.9-1.7-5.1-2.4-10-2.2-14.7.2-4.7 1.2-9.4 2.9-13.9"/><path class="st26" d="M617.3 399.9H582c-7.9-4.9-12.7-14.1-14.3-27.7-.9-6.9-4.4-13.6-11.4-20.3-10.9-10-14.6-23.4-10.7-43.2 1-4.4 1.8-14.7 2.4-31.1.2-18.4 12.8-21.6 18.3-3.2 2.2 7.4 7.8 14.4 16.6 20.8 6 4.5 8.6 9.5 9.5 19.3.8 9 3.7 16.6 12.2 24.5 11 10.1 15.2 30.4 12.7 60.9"/><path class="st23" d="M601.2 399.9H598v-.1c.2-16.5-4-31.9-13.4-45.6-3.7-5.3-6.6-10.2-8.6-14.8-2-4.7-3.1-9.1-3.3-13.6-.2-4.9-1-8.9-2.3-12.4-1.3-3.6-3.1-6.8-5.5-10.1-6.6-8.9-10.1-18.8-9.2-29.9.1-.9.8-1.5 1.7-1.5.9.1 1.5.8 1.5 1.7-.8 10.4 2.5 19.6 8.6 27.9 2.5 3.5 4.5 6.9 5.9 10.8 1.4 3.9 2.2 8.2 2.5 13.4.1 4 1.1 8.1 3 12.4 1.9 4.4 4.7 9.1 8.3 14.2 9.9 14.4 14.3 30.4 14 47.6"/><path class="st3" d="M478.9 337.8c1.3 0 2.3 1 2.3 2.3 0 1.3-1 2.3-2.3 2.3-1.3 0-2.3-1-2.3-2.3 0-1.3 1.1-2.3 2.3-2.3M564.2 344.7c.9 0 1.6.7 1.6 1.6 0 .9-.7 1.6-1.6 1.6-.9 0-1.6-.7-1.6-1.6 0-.9.7-1.6 1.6-1.6M652.9 379.8c.9 0 1.6.7 1.6 1.6 0 .9-.7 1.6-1.6 1.6s-1.6-.7-1.6-1.6c0-.9.7-1.6 1.6-1.6M498.2 387.2c.6 0 1.1.5 1.1 1.1 0 .6-.5 1.1-1.1 1.1-.6 0-1.1-.5-1.1-1.1 0-.6.5-1.1 1.1-1.1M340.9 374.1c.9 0 1.6.7 1.6 1.6 0 .9-.7 1.6-1.6 1.6-.9 0-1.6-.7-1.6-1.6.1-.9.8-1.6 1.6-1.6M610.1 220.4c.8 0 1.5.7 1.5 1.5s-.7 1.5-1.5 1.5-1.5-.7-1.5-1.5c0-.9.7-1.5 1.5-1.5M653.7 268.9c.7 0 1.2.6 1.2 1.2 0 .7-.6 1.2-1.2 1.2-.7 0-1.2-.6-1.2-1.2-.1-.7.5-1.2 1.2-1.2M501.9 258.3c.7 0 1.2.6 1.2 1.2 0 .7-.6 1.2-1.2 1.2s-1.2-.6-1.2-1.2c0-.7.5-1.2 1.2-1.2"/><path class="st18" d="M40.8 285.9c.7 7.5-1.3 10.7-1.3 10.7-1.8 3.2-4.3 4.1-6.5 3.7-.7 1.3-1.4 2.5-2.1 3.7 1.6-1.7 4.2-2.6 7.7-2.1 5 .9 10.9 5 10.9 5 2.3 1.6 1.9 2.3.2 3.8-7.6 6.4-12.4 6.2-12.4 6.2-6.8.1-9.5-5.3-8.2-9.7-1.8 3.2-3.7 6.3-5.7 9.4-1.1 1.7-2.1 3.4-3.2 5.1 1.6-.9 3.5-1.3 6-1.2 5.9.4 13.3 4.7 13.3 4.7 2.9 1.7 2.6 2.6.8 4.6C32.6 338.6 27 339 27 339c-7.9 1-11.8-5.2-11-10.7-1.9 2.9-3.9 5.7-6 8.5-.3.4-.9.5-1.3.2s-.5-.9-.2-1.3c2.8-3.9 5.6-7.9 8.3-12-3.8 3.4-10.9 2.3-13.4-6.3-1.5-5.6-.4-13.6-.4-13.6.4-3.2 1.2-3 3.5-1.8 9.5 5.5 11.6 10.7 11.6 10.7 1.4 3.1 1.5 5.7.8 7.8l3-4.8c1.3-2.1 2.6-4.3 3.9-6.5-4.3 3-11.4-.2-10.2-8.9.8-5.1 4.4-11.1 4.4-11.1 1.5-2.4 2.1-2 3.4-.2 5.7 7.8 5.6 12.7 5.6 12.7 0 .8 0 1.6-.2 2.3.8-1.4 1.6-2.9 2.4-4.3-2.4-1.6-3.5-5.3-.3-9.3 2.5-3.1 7.4-5.7 7.4-5.7 2-1 2.3-.5 2.5 1.2"/><path class="st19" d="M-1.1 267.9c-5.2-1.5-10.4-4.2-13.5-9-4.5-7.3-3.1-11 1.1-9.4 7.1 3 12.5 8.6 14.4 16 1.3-1.6 2.6-3.3 3.9-5.1-4-2.5-7.9-6.1-9.4-10.9-1.9-7.1.1-9.8 3.2-7.5 5 4 8 9.7 8 16l3.3-4.8c-.4-4.5.1-9.4 2.9-13.3 4.4-5.9 7.7-6 7.8-2.1-.1 6.8-3.1 13.1-8.7 16.9l-2.7 3.9c6-2.6 12.7-1.9 18.5 1.4 3.2 2 1.5 4.9-5.8 5.6-5.2.4-10-2.1-13.9-5-.1 0-.1-.1-.1-.1l-2.4 3.3c7.4-.2 14.3 3.4 19.2 9.5 2.7 3.6-.1 5.9-8.2 3.6-5.5-1.7-9.6-6.2-12.6-10.9-1.6 2.1-3.3 4.1-5 6.1 7.4.2 14 4.3 18.6 10.6 2.5 3.7-.5 5.9-8.4 3.1-5.4-2-9.2-6.8-11.9-11.6-1 1.1-2 2.2-3 3.2 6.1 2.5 10.3 8 12 14.8.8 3.8-2.3 4.6-7.8-.3-3.6-3.3-5.1-8.2-5.8-12.9-2.2 2.2-4.3 4.2-6.5 6.2 6.4 3.2 10.5 9.3 11.8 16.4.6 4.1-3 4.7-8.9-.9-3.6-3.6-5-8.6-5.5-13.4-2.1 1.8-4.3 3.4-6.5 4.9 7.3 3.6 12 10.5 13.5 18.5.6 4.1-2.5 5.1-7.7.9.1-.9.2-1.8.2-2.6 0-6.2-3.5-11.6-8.6-14.4 0-.2 0-.5-.1-.7l-.6.4c-.9-.5-1.9-.8-3-1.1l.3-.2c-4.3-2.1-8.5-5.3-10.5-10-2.9-7.3-1.1-10.3 2.4-8.3 6 3.8 10 9.7 10.5 16.7 3.6-2.4 7.2-5.1 10.8-8.2-4.9-1.1-10.1-3.2-13.2-7.6-4.5-6.4-3.4-9.8.5-8.6 6.9 2.4 12.3 7.7 14.1 14.8v.1c2.6-2.3 5-4.8 7.4-7.3-5.1-.6-10.4-2.3-14-6.4-5.4-6.2-4.6-9.8-.4-9 7.3 1.7 13.4 6.5 16.2 13.4 1.2-1.3 2.7-3 4.1-4.7"/><path d="M-42.1 228.6c14-.4 24.9.9 32.5 5.7 4 2.7 3.1 3.4-2.7 2.8-9.3-.9-19.9-3.4-30.9-7.3h-.1c-2.5 2.6-4.8 5.2-7.1 7.9 13.7-1 24.4-.4 32.1 4 4.1 2.5 3.3 3.2-2.5 3-9.2-.4-19.8-2.3-30.9-5.5-2.6 3.1-5.1 6.3-7.5 9.4 12.8-3.1 22.9-3.6 30.5.7 4.2 2.6 3.4 3.7-2.4 4.3-9 .8-19.3.1-30.1-2.2-2.2 3.1-4.3 6.2-6.3 9.5 13.3-3.3 23.7-3.9 31.4.5 4.2 2.6 3.4 3.7-2.4 4.3-9.1.9-19.5.1-30.5-2.3-1.9 3.1-3.6 6.2-5.2 9.4 12.1-3.1 21.6-3.8 28.6.1 3.7 2.3 3 3.3-2.1 3.7-8.2.8-17.5 0-27.4-2.2-3.2 6.4-5.9 12.8-8.2 19.4-.8-.6-1.8-1.1-2.7-1.6 1.2-3.6 2.6-7.1 4.1-10.6-1.4-1.8-2.7-3.6-4-5.4v-9.9c1.8 3.9 3.3 8.5 4.7 13.8 1.6-3.6 3.4-7.2 5.3-10.7l-.2-.3c-3.8-4.9-7-9.8-9.8-14.6v-10.2c4.6 5.2 7.8 13.2 10.7 23.8 1.8-3.3 3.8-6.7 5.9-9.9-.2-.2-.5-.5-.7-.8-6.5-8.4-11.9-17-15.8-25.2v-8.7l.2.1c7.8 5.9 12.7 17.4 17 33.4l.1.2c1.5-2.3 3-4.5 4.6-6.8 0-.1.1-.2.2-.3l.4-.5-.2-.3c-5.2-11.4-8.7-22.7-10.4-32.9-1-6.3-.3-7.5 3-3.7 6.1 7.4 8.2 19.3 8.8 35.2 2.5-3.4 5.2-6.8 8-10.1-4.2-9.4-6.8-18.7-7.7-27-.5-5.2.3-6.1 3.3-2.9 5.3 6.1 6.6 15.5 6 27.9 2.1-2.4 4.2-4.8 6.4-7.2-4.8-10.6-7.7-21-8.7-30.3-.6-5.8.3-6.8 3.7-3.2 6 6.9 7.4 17.6 6.6 31.8 2-2.1 4.1-4.2 6.3-6.3-1.2-11.2-.9-21.6.9-30.6 1.2-5.7 2.3-6.4 4.5-1.9 3.4 7.7 2 17.4-2.1 29.4 2-1.9 4.1-3.8 6.2-5.6 0-9.4 1.2-18 3.5-25.2 1.5-4.6 2.5-5.1 3.9-1.2 2.2 6.8.1 14.9-4.6 24.7.1 0 .3.1.4.1 10.6-8.9 19.8-14.6 28.9-15.6 4.9-.4 4.6.6-.2 3.7-7.6 4.9-16.3 9.8-27 13.6-.5.3-.9.6-1.3.9l-1.3 1.1c11.1-3.6 20-5 27-2.6 3.8 1.4 3.1 2.3-1.6 3.1-7.7 1.4-16.8 1.8-26.5 1-.2 0-.4 0-.5-.1-2.4 2.2-4.8 4.3-7.1 6.5 13.6-2.8 24.3-3.7 32.5-.8 4.4 1.7 3.5 2.5-2.2 3-9.3.9-20.1.6-31.5-.8h-.2c-2.1 1.7-3.9 3.5-5.6 5.3" style="fill-rule:evenodd;clip-rule:evenodd;fill:#ce4c27"/><path class="st21" d="M-86 291.9c.1 54.3.1 81.5.1 81.5 23.4-15 41.9-44.1 47.1-87.3.7-6.6 1.7-12.8 5.5-18.2 4.5-6.3-.2-9.9-7.1-8.5-19.1 3.7-34.7 16.3-45.6 32.5M-11.1 339.1c-22.3 9.9-30.2 23.2-23.6 39.9-6.6.6-5.3 7.6 4 20.9h65.6c10.4-2.1 12.6-9.9 8.2-12.7 11.2-4 14.8-15.1 6.6-19.4 10.5-7.5 8-21.3-2-24.5 3.5-17.4-2.7-22.2-18.5-14.6-5.9-7.4-13.4-6.4-22.2 2.9-6.1-3.4-12.1-.9-18.1 7.5"/><path class="st23" d="M-26.3 356.5c-.1-.8.4-1.6 1.3-1.8.8-.1 1.6.4 1.8 1.3l7.1 43.5v.5h-3l-7.2-43.5zm19 39.6 41.5-7c.8-.1 1.6.4 1.8 1.3.1.8-.4 1.6-1.3 1.8l-44.7 7.5-.2.3h-3.9L-4 386.7l-4.4-46.9c-.1-.8.5-1.6 1.4-1.7.8-.1 1.6.5 1.7 1.4l4.1 43.5 4.8-6.3.1-.1 8.3-11-.9-33.6c0-.8.7-1.6 1.5-1.6s1.6.7 1.6 1.5l.8 29.7 23.4-30.9c.5-.7 1.5-.8 2.2-.3.7.5.8 1.5.3 2.2l-16.7 22.1 25.3-2.8c.8-.1 1.6.5 1.7 1.4.1.8-.5 1.6-1.4 1.7l-28.2 3.1-13.4 17.6 32.4-3.9c.8-.1 1.6.5 1.7 1.3.1.8-.5 1.6-1.4 1.7l-35.4 4.3-12.8 17z"/><path class="st26" d="M-86 399.9h41.8c13-1.7 15.3-12 3.4-17.1 27.8-9.2 37.1-28.4 21.5-32.5C1.8 339.1 7 321.9-6.4 322c12-8.4 11.2-23 2.2-22.2 10.6-14.2.3-25.7-11-7.8-5.5-7.1-16-2.2-19.8 13-8.6-8-19.4-.8-17.7 24.9-13-9.2-24.2 2.3-19.8 34.1-6.1-6.1-12.5-1.6-13.4 11-.1 16.6-.1 24.9-.1 24.9"/><path class="st23" d="M-8 289.7c.5-.7 1.4-.9 2.1-.4.7.5.9 1.4.4 2.1C-48 353.7-74 390.6-80.7 400.1h-3.8c3.8-5.4 30.5-43 76.5-110.4M-41.9 266.7c.6-.6 1.6-.6 2.2.1.6.6.6 1.6-.1 2.2-14.6 13.7-26.3 28.7-35.2 44.8-4.3 7.8-7.9 15.9-10.9 24.2v-8.6c2.4-5.8 5.1-11.5 8.2-17.1 9.1-16.4 21-31.6 35.8-45.6"/><path class="st3" d="M-66.3 325.9c1 0 1.7.8 1.7 1.7s-.8 1.7-1.7 1.7c-1 0-1.7-.8-1.7-1.7s.8-1.7 1.7-1.7M-40.6 353.8c.8 0 1.5.6 1.5 1.5 0 .8-.7 1.5-1.5 1.5s-1.5-.6-1.5-1.5c0-.8.7-1.5 1.5-1.5M26.8 365.5c.6 0 1 .4 1 1s-.4 1-1 1-1-.4-1-1c0-.5.4-1 1-1M-55.7 380.7c.5 0 .9.4.9.9s-.4.9-.9.9-.9-.4-.9-.9c.1-.5.5-.9.9-.9M-46.9 287c.7 0 1.2.6 1.2 1.2 0 .7-.6 1.2-1.2 1.2-.7 0-1.2-.6-1.2-1.2s.5-1.2 1.2-1.2M27.6 323.4c.5 0 .9.4.9.9s-.4.9-.9.9-.9-.4-.9-.9.4-.9.9-.9M-67.3 232c.7 0 1.2.5 1.2 1.2s-.5 1.2-1.2 1.2-1.2-.5-1.2-1.2.6-1.2 1.2-1.2M91.4 375.4c.8 0 1.4.6 1.4 1.4s-.6 1.4-1.4 1.4c-.8 0-1.4-.6-1.4-1.4s.6-1.4 1.4-1.4M138.4 373.6c.6 0 1 .4 1 1s-.4 1-1 1-1-.4-1-1 .4-1 1-1M648.1 164c.8 0 1.5.7 1.5 1.5s-.7 1.5-1.5 1.5-1.5-.7-1.5-1.5.7-1.5 1.5-1.5M417.5 310.2c.7 0 1.3.6 1.3 1.3 0 .7-.6 1.3-1.3 1.3-.7 0-1.3-.6-1.3-1.3 0-.7.6-1.3 1.3-1.3M135.1 326.8c1.3 0 2.3 1 2.3 2.3 0 1.3-1 2.3-2.3 2.3-1.3 0-2.3-1-2.3-2.3 0-1.2 1.1-2.3 2.3-2.3M577.1 270.3c9.5-4.7 18.7-5.4 20.5-1.7 1.8 3.7-4.4 10.5-13.9 15.1-9.5 4.7-18.7 5.4-20.5 1.7s4.4-10.5 13.9-15.1"/><path class="st17" d="M578.8 273.8c4.5-2.2 8.9-2.6 9.8-.8.9 1.8-2.1 5-6.7 7.2-4.5 2.2-8.9 2.6-9.8.8-.8-1.8 2.1-5 6.7-7.2"/><path class="st3" d="M626.9 280c6.5-3.2 12.8-3.7 14.1-1.2 1.2 2.5-3 7.2-9.6 10.4-6.5 3.2-12.8 3.7-14.1 1.2-1.2-2.6 3-7.2 9.6-10.4"/><path class="st17" d="M628 282.4c3.1-1.5 6.1-1.8 6.7-.6.6 1.2-1.5 3.4-4.6 5-3.1 1.5-6.1 1.8-6.7.6-.5-1.3 1.5-3.5 4.6-5"/><path class="st3" d="M551.9 306.9c7.2-.6 13.3 1.2 13.5 4.1.2 2.8-5.5 5.6-12.7 6.1-7.2.6-13.3-1.2-13.5-4.1-.2-2.8 5.5-5.6 12.7-6.1"/><path class="st17" d="M552.1 309.5c3.5-.3 6.4.6 6.5 1.9.1 1.3-2.6 2.7-6.1 2.9-3.5.3-6.4-.6-6.5-1.9 0-1.3 2.7-2.6 6.1-2.9"/><path class="st3" d="M547 343.9c5.7-2.8 11.2-3.3 12.3-1 1.1 2.2-2.7 6.3-8.4 9.1s-11.2 3.3-12.3 1c-1.1-2.3 2.7-6.3 8.4-9.1"/><path class="st17" d="M548 346c2.7-1.3 5.4-1.6 5.9-.5s-1.3 3-4 4.4c-2.7 1.3-5.4 1.6-5.9.5s1.3-3.1 4-4.4"/><path class="st3" d="M-45.4 306.4c7 4.1 11.4 9.6 9.8 12.3-1.6 2.7-8.6 1.6-15.6-2.4-7-4.1-11.4-9.6-9.8-12.3 1.6-2.7 8.6-1.6 15.6 2.4"/><path class="st17" d="M-46.9 309c3.4 1.9 5.5 4.6 4.7 5.9-.8 1.3-4.1.8-7.4-1.2-3.4-1.9-5.5-4.6-4.7-5.9.7-1.3 4-.7 7.4 1.2"/><path class="st3" d="M-8 321.7c5.6 3.3 9.1 7.7 7.9 9.9-1.3 2.2-6.9 1.3-12.5-1.9-5.6-3.3-9.1-7.7-7.9-9.9 1.3-2.3 6.9-1.4 12.5 1.9"/><path class="st17" d="M-9.2 323.7c2.7 1.6 4.4 3.7 3.8 4.7-.6 1-3.3.6-6-.9-2.7-1.6-4.4-3.7-3.8-4.7.6-1 3.3-.6 6 .9"/><path class="st3" d="M-58.6 340.5c4.4 2.6 7.2 6 6.2 7.8-1 1.7-5.4 1-9.8-1.5-4.4-2.6-7.2-6-6.2-7.8 1-1.7 5.4-1 9.8 1.5"/><path class="st17" d="M-59.5 342.1c2.1 1.2 3.4 2.9 3 3.7-.5.8-2.6.5-4.7-.7s-3.4-2.9-3-3.7c.5-.8 2.6-.5 4.7.7"/><path class="st28" d="M161.9 47.7c-5.3-3-8-4.6-8-4.6 6.2 5.6 9.2 8.4 9.2 8.4l1.8-11.4c-2 5.1-3 7.6-3 7.6M121 85.8c-6.6-3.8-9.9-5.6-9.9-5.6 7.6 7 11.4 10.4 11.4 10.4 1.5-9.4 2.2-14.1 2.2-14.1-2.5 6.2-3.7 9.3-3.7 9.3M238.9 89.5c-4.4-2.5-6.5-3.7-6.5-3.7 5.1 4.6 7.6 6.9 7.6 6.9l1.5-9.3c-1.7 4-2.6 6.1-2.6 6.1"/></svg>