<svg version="1.1" id="Layer_1" xmlns="http://www.w3.org/2000/svg" x="0" y="0" viewBox="0 0 800 625" style="enable-background:new 0 0 800 625" xml:space="preserve"><style>.st10,.st12,.st35,.st36,.st37,.st6,.st7{fill-rule:evenodd;clip-rule:evenodd;fill:#217373}.st10,.st12,.st35,.st36,.st37,.st7{fill:#004545}.st10,.st12,.st35,.st36,.st37{fill:#350777}.st12,.st35,.st36,.st37{fill:#6b4003}.st35,.st36,.st37{fill:#fff}.st36,.st37{fill:#7703fc}.st37{fill:#f2b332}.st38{fill:#e96300}.st42{fill:#4f02bc}.st42,.st73{fill-rule:evenodd;clip-rule:evenodd}.st74{fill:#191002}.st75{fill:#fff}.st76{fill-rule:evenodd;clip-rule:evenodd;fill:#e96300}.st77{fill:#b50c00}</style><path d="M563.5 503.2c42-3.2 79.9-21.2 108.4-48.7 31.4-30.3 51.5-85.7 52.2-118.9.7-33.2-2.5-38.7-8.4-56.5-16.1-49.1-53.8-88.3-101.8-107.1l-2-.8c-8.4-3.2-16.8-6.4-25.3-9.5-7.6-2.9-15.2-5.8-22.8-8.9-1.7-.7-3.4-1.4-5.2-2.2-1.7-.7-3.4-1.5-5.1-2.2-4.6-2-9.1-4.2-13.5-6.4-5.1-2.6-10.1-5.3-14.9-8.3-3.9-2.4-7.7-4.8-11.4-7.4-.5-.4-1.1-.8-1.6-1.1l-1.6-1.2c-.5-.4-1.1-.8-1.6-1.2-.5-.4-1.1-.8-1.6-1.2-.5-.4-1.1-.8-1.6-1.2-.5-.4-1.1-.8-1.6-1.3A257.9 257.9 0 0 0 447 82.3c-6.7-3.1-13.4-6-20.3-8.6-10.5-3.9-21.2-7.1-32.1-9.7-1.8-.4-3.7-.8-5.5-1.2-2.8-.6-5.6-1.1-8.4-1.6-4.7-.8-9.4-1.5-14.1-2.1-2.9-.3-5.7-.6-8.6-.9-5.8-.5-11.6-.8-17.4-.9-2.2 0-4.4-.1-6.5-.1H332c-1.5 0-2.9 0-4.3.1-.9 0-1.7.1-2.6.1-1.3 0-2.6.1-3.9.2-.9 0-1.8.1-2.7.2-1.2.1-2.5.2-3.7.2-.9.1-1.9.2-2.8.2-3.3.3-6.6.6-9.9 1-19.6 2.5-39 7.1-57.5 13.9-3 1.1-5.9 2.2-8.9 3.4-.9.4-1.7.7-2.6 1.1-1.1.4-2.1.9-3.1 1.4-.8.4-1.7.7-2.5 1.1l-3.3 1.5c-.7.3-1.5.7-2.2 1l-7.2 3.6c-1.2.6-2.4 1.2-3.6 1.9-.8.4-1.6.9-2.4 1.3-1 .5-2 1.1-2.9 1.6-.8.5-1.7 1-2.5 1.5-2.7 1.6-5.3 3.1-7.9 4.8-19.6 12.4-37.6 27.4-53.2 44.5-28.1 30.8-48.4 68-58.6 108.5-.2.8-.4 1.5-.6 2.3-.3 1.2-.6 2.5-.9 3.7-.2.7-.3 1.5-.5 2.2-.7 3.3-1.4 6.7-2 10-.1.4-.1.8-.2 1.1-2.1 12.1-3 9-3.6 37.2-.6 28.2 9.3 85.1 28.2 121.5 7.8-3 17-2.3 24.5 2.7 1.9 1.3 3.9 2.5 5.6 4l7.1 6.1c2.5 2.2 4.4 5 6.6 7.5 2.9 3.2 6 6 9.1 9.1.7.7 1.4 1.4 2 2.2l4 5.1c1.2 1.5 4.5 6.3 3.1 4.9l-.1-.1 4 4c1.6 1.6 2.7 3.1 3.9 4.9l4.2 4.2c2.6 2.6 4.6 5.6 6 9 1.2 1.3 2.3 2.8 3.2 4.4 3 2.5 5.5 5.6 7.2 9.2.9.8 1.8 1.6 2.7 2.6 2.8 1.4 5.2 3.1 7.4 5.3 2.4 1 4.7 2.3 6.8 4 3.3.9 6.5 2.4 9.4 4.5l.6.4-1.1-.4c-1.5-.5 2.8 1.6 4.3 1.9l1.5.3c2 .4 4 1.1 5.9 1.7 1.3.4 2.6.9 3.9 1.6l2.3 1.2c1.1.4 2.2.7 3.3 1.2l1.7.3c2.1.4 4.3.8 6.3 1.3l8.1 2c.3.1.6.1.9.2l7.1 2c.4.1.7.2 1.1.3l7.5 2.5 8.5 1.7c1.6.3 3.2.8 4.7 1.4l6.5 2.6 7.2.7c1.4.1 2.7.4 4.1.7l8.1 2 1.2.3 9.5 2.9 12.4 3.1h1.7c2.8 0 5 1 7.7 1h30.7l-6.6 6.6c3.3-3.2 7.4-5.6 12.2-6.8l3.6-.9 2.6-.7-.5.3c-1.7 1.2 3.4-2 5.2-2.7.9-.7 1.8-1.3 2.8-1.9.2-.2.4-.4.7-.6 2.8-3.3 6.4-5.9 10.5-7.5 1.2-.7 2.3-1.3 3.5-1.9.9-.5 1.8-.9 2.8-1.3 1.4-1.1 3-2.1 4.7-3l4.6-2.3c1.1-.7 2.1-1.4 3.2-2.1 1.3-1 2.8-1.9 4.4-2.7l2-1c1.3-.7 2.6-1.4 4-1.9 1.8-1.6 3.8-3 6.1-4.2 1.8-.9 3.6-1.8 5.5-2.5l1.7-.6c2.1-1.3 4.4-2.3 6.9-2.9h.1c3.7-2.3 8-3.6 12.5-3.9.7-.2 1.5-.4 2.2-.5 3.6-2 7.6-3.3 12-3.5 1.2-.3 2.4-.6 3.6-.8 3.1-1.7 6.5-2.8 10.2-3.2 2.5-.7 5.1-1.1 7.8-1.1H522l-6.9 6.9c4.3-4.3 9.9-7.1 16.3-7.7.3-.1.5-.2.8-.2 3.1-1.2 6.5-1.9 10-1.9h6.1c5.6 0 10.9 1.8 15.2 4.9" style="fill-rule:evenodd;clip-rule:evenodd;fill:#e2f6ed"/><defs><filter id="Adobe_OpacityMaskFilter" filterUnits="userSpaceOnUse" x="75.8" y="57.1" width="648.3" height="487.7"><feColorMatrix values="1 0 0 0 0 0 1 0 0 0 0 0 1 0 0 0 0 0 1 0"/></filter></defs><mask maskUnits="userSpaceOnUse" x="75.8" y="57.1" width="648.3" height="487.7" id="SVGID_1_"><g style="filter:url(#Adobe_OpacityMaskFilter)"><linearGradient id="SVGID_2_" gradientUnits="userSpaceOnUse" x1="193.017" y1="363.363" x2="-6.489" y2="611.793" gradientTransform="translate(311.078 -192.066)"><stop offset="0" style="stop-color:#000"/><stop offset="1" style="stop-color:#fff"/></linearGradient><path style="fill:url(#SVGID_2_)" d="M75.8 57.1h648.3v487.7H75.8z"/></g></mask><path d="M142.1 449.7c.4.5.7 1.1 1 1.6.5.7 1 1.4 1.4 2.1 1.3 1.8 2.4 3.8 3.3 5.8 1 1.3 1.9 2.6 2.8 3.9.5.7.9 1.4 1.3 2.1.9 1.1 1.7 2.2 2.6 3.4.7 1 1.4 2 2 3.1 1.5 1.2 2.8 2.6 3.9 4.1l2.3 2.9c.1.1.6.8.5.6 1.1.9 2.1 1.7 3 2.7.5.3 1 .7 1.5 1.1l2.3 1.7c1 .8 2 1.6 2.9 2.5 1.4 1.1 2.8 2.1 4 3.4l2.4 2.4c2.3 1.3 4.3 2.9 6.1 4.7l1.8 1.8c1.3.9 2.5 1.8 3.7 2.8.4.3.9.7 1.3 1 1.6 1.1 3.1 2.2 4.4 3.6 2.1 1.4 3.9 3.1 5.5 5 .4.3.8.7 1.2 1.1l.5.3c1.7.8 3.1 1.6 4.7 2.7l1.2.6c2 1 3.6 2.1 5.3 3.5 2.4 1 4.5 2.1 6.8 3.3 1.8.9 3.4 1.9 4.8 3.1.9.4 1.7.9 2.5 1.4 2.8 1.1 5.3 2.6 7.4 4.5 1.9.7 3.6 1.6 5.4 2.5.9.5 1.9 1 2.8 1.6 1.4.5 2.7 1.1 3.9 1.8 1 .3 1.9.6 3 .9l1.3.3c1.7.1 3.4.3 5.1.8l2.2.5h1.4c1.4 0 2.8.1 4.2.3l4.3.6c2.5.4 4.6 1 6.9 1.9 2.3.4 4.6.7 6.8 1.2H389l.8-.2c2-.4 3.7-.5 5.6-.5 1.4-.5 2.9-.8 4.3-1l3.7-.6c3.2-.5 6.6-.4 9.8-.4l9.6-3.1 2.6-1.1c1.5-.6 3.1-1 4.7-1.4 1.6-.8 3.1-1.6 4.8-2.2 2.6-1.7 5.3-2.9 8.2-3.6.7-.3 1.4-.6 2.2-.8 1.2-.6 2.4-1 3.6-1.4 1.2-.4 2.4-.8 3.6-1.1.4-.2.9-.4 1.3-.5 2.1-1.3 4.4-2.4 6.6-3.5 1.7-.9 3.5-1.5 5.3-2 1.1-.6 2.3-1 3.5-1.5l1.5-.9c1.9-1.1 3.8-2 5.8-2.6.6-.2 1.3-.4 1.9-.6 1.6-.9 3.2-1.6 4.9-2.1l1.6-.5c1.2-.4 2.3-.7 3.5-.9 1.6-.6 3.2-1.1 4.9-1.4l1.3-.3c.7-.3 1.5-.5 2.2-.7 1.9-1 3.9-1.7 6.1-2.2l2.2-.6 2-.7c2.3-.8 4.6-1.1 7.1-1.5 1.6-.4 3-.7 4.6-1l2.5-.8c1.2-.4 2.4-.7 3.7-1l2.3-.8 2.6-1.1c2-.8 4.1-1.3 6.2-1.8l1.5-.3c3.1-1.2 6.4-1.8 9.7-1.8h2.7c6.7 0 12.8 2.4 17.5 6.5 40.4-4 76.9-21.7 104.5-48.3 31.4-30.3 51.2-72.2 52.2-118.9.4-19.7-2.5-38.7-8.4-56.5-16.1-49.1-53.8-88.3-101.8-107.1l-2-.8c-8.4-3.2-16.8-6.4-25.3-9.5-7.6-2.9-15.2-5.8-22.8-8.9-1.7-.7-3.4-1.4-5.2-2.2-1.7-.7-3.4-1.5-5.1-2.2-1.7-.8-3.4-1.5-5.1-2.3-2.8-1.3-5.6-2.7-8.4-4.1-5.1-2.6-10.1-5.3-14.9-8.3-3.9-2.4-7.7-4.8-11.4-7.4-.5-.4-1.1-.8-1.6-1.1-.5-.4-1.1-.8-1.6-1.2-.5-.4-1.1-.8-1.6-1.2-.5-.4-1.1-.8-1.6-1.2-.5-.4-1.1-.8-1.6-1.2-.5-.4-1.1-.8-1.6-1.3-23-19.5-49.2-34.8-77.4-45.4-6.1-2.3-12.3-4.3-18.5-6.1-6.3-1.8-12.7-3.4-19.1-4.8-2.8-.6-5.6-1.1-8.4-1.6-1.9-.3-3.7-.6-5.6-.9-.9-.1-1.9-.3-2.8-.4-1.9-.3-3.8-.5-5.7-.7-2.9-.3-5.7-.6-8.6-.9-5.8-.5-11.6-.8-17.4-.9-2.2 0-4.4-.1-6.5-.1h-2.1c-1.5 0-2.9 0-4.3.1-.9 0-1.7.1-2.6.1-1.3 0-2.6.1-3.9.2-.9 0-1.8.1-2.7.2-1.2.1-2.5.2-3.7.2-.9.1-1.9.2-2.8.2-3.3.3-6.6.6-9.9 1-19.6 2.5-39 7.1-57.5 13.9-3 1.1-5.9 2.2-8.9 3.4-.9.4-1.7.7-2.6 1.1-1.1.4-2.1.9-3.1 1.4-.8.4-1.7.7-2.5 1.1l-3.3 1.5c-.7.3-1.5.7-2.2 1l-7.2 3.6c-1.2.6-2.4 1.2-3.6 1.9-.8.4-1.6.9-2.4 1.3-1 .5-2 1.1-2.9 1.6-.8.5-1.7 1-2.5 1.5-2.7 1.6-5.3 3.1-7.9 4.8-19.6 12.4-37.6 27.4-53.2 44.5-28.1 30.8-48.4 68-58.6 108.5-.2.8-.4 1.5-.6 2.3-.3 1.2-.6 2.5-.9 3.7-.2.7-.3 1.5-.5 2.2-.7 3.3-1.4 6.7-2 10-.1.4-.1.8-.2 1.1-2.1 12.1-3.3 24.6-3.6 37.2-.9 40.7 8 79.4 24.5 114 2.6-.9 5.4-1.3 8.4-1.3 11.1 0 20.6 6.7 24.7 16.2 1 1.7 1.8 3.6 2.4 5.5l.6.9c2.1 2 4.1 4.6 5.5 7.4" style="mask:url(#SVGID_1_);fill-rule:evenodd;clip-rule:evenodd;fill:#c2e1d4"/><path d="M499.6 115.1c-.6-.4-1.1-.9-1.7-1.3-.7-.6-1.4-1.1-2.1-1.7-.7-.6-1.4-1.1-2.1-1.7-.7-.5-1.4-1.1-2.2-1.6-.7-.5-1.5-1.1-2.2-1.6-.7-.5-1.5-1.1-2.2-1.6-.7-.5-1.5-1-2.2-1.6-.7-.5-1.5-1-2.2-1.5-.7-.5-1.5-1-2.3-1.5-.8-.5-1.5-1-2.3-1.5-.8-.5-1.5-1-2.3-1.5-.8-.5-1.5-1-2.3-1.5l-.6-.3L223 517.4l28 16.6 248.6-418.9zM371.8 565.4l3.9-.6 231.7-395.4-.9-.4-1.8-.7-1.8-.7-1.9-.6-1.8-.7-1.8-.7-1.8-.7-1.8-.7-1.8-.7-1.8-.7-1.8-.7-1.8-.7-1.8-.7-1.8-.7-1.8-.7-1.8-.7-1.8-.7-1.8-.7-1.8-.7-1.7-.7c-.6-.2-1.2-.5-1.7-.7-.6-.2-1.2-.5-1.7-.7-.6-.2-1.2-.5-1.7-.7-.6-.2-1.2-.5-1.7-.7-.6-.2-1.2-.5-1.7-.7-.6-.2-1.2-.5-1.7-.7-.6-.2-1.1-.5-1.7-.7-.6-.2-1.1-.5-1.7-.7-.6-.2-1.1-.5-1.7-.7-.6-.2-1.1-.5-1.7-.7-.6-.3-1.1-.5-1.7-.8-.6-.3-1.1-.5-1.7-.8-.6-.3-1.1-.5-1.7-.8-.6-.3-1.1-.5-1.7-.8-.6-.3-1.1-.5-1.7-.8-.6-.3-1.1-.5-1.7-.8-.5-.3-1.1-.5-1.6-.8L315.7 532.5l56.1 32.9z" style="opacity:.62;fill-rule:evenodd;clip-rule:evenodd;fill:#fff"/><path d="M344.9 87.6C246.8 124 163 167.9 93.5 219.4c-8.7 22-14.3 45.2-16.6 68.8 4.1 2.9 9.4 3.4 14 1.4 4.6-2.1 7.7-6.4 8.2-11.4 1.5 3.2 4.5 5.4 7.9 6 3.5.6 7-.6 9.4-3.2 2.9 2.1 6.7 2.6 10.1 1.3 3.4-1.3 5.9-4.1 6.7-7.7 4.1 1.7 8.8 1.4 12.7-.8 3.9-2.2 6.6-6.1 7.3-10.5 2.4 1.5 5.3 1.9 7.9 1.1 2.7-.8 4.9-2.7 6-5.3 2.6 4.7 7.2 7.8 12.5 8.4 5.3.6 10.5-1.4 14-5.4 2.6 2.2 5.9 3.2 9.3 2.7 3.3-.4 6.3-2.3 8.2-5.1 3 3.4 7.4 5.1 11.8 4.7 4.5-.4 8.4-2.9 10.7-6.8 4.7 2.2 10.3 1.1 13.8-2.8s4-9.6 1.3-14c5.3.5 10.5-1.3 14.4-4.9 3.9-3.6 6-8.7 5.9-14 0 0 24.1-20.9 72.3-62.6 3.5-.8 6.6-3.1 8.3-6.2 1.8-3.2 2.1-6.9 1-10.4 2.4-1.9 3.8-4.8 3.9-7.9.1-3.1-1.1-6.1-3.4-8.1 2.6-3 3.8-6.9 3.4-10.9-.4-3.9-2.5-7.5-5.7-9.9 4.2-6.1 2.3-14.3-3.9-18.3" style="fill-rule:evenodd;clip-rule:evenodd;fill:#3b9999"/><path class="st6" d="M152.8 130.8c-27.2 26.5-48.2 58.7-61.4 94.3 2.7 3.4 7.2 4.8 11.4 3.8s7.5-4.4 8.4-8.6c4.8 2.8 10.8 2.8 15.6 0 .1 5 3.2 9.3 7.8 11.1 4.6 1.8 9.9.5 13.2-3.1 8 7.3 19.6 9.2 29.5 4.9 6.8 3.8 15 3.8 21.8 0 6.8-3.8 11.1-10.8 11.4-18.6 4.2 1.1 8.8 0 12-2.9 3.2-3 4.7-7.4 3.9-11.7 12.5 2.4 24.9-5 28.6-17.2 0 0 15.3-14 46-41.9 6.6-3 10-10.4 7.8-17.4 3.1 1.1 6.5.8 9.4-.8 2.9-1.6 5-4.3 5.8-7.5 5.6-.2 10.7-3.3 13.4-8.2 2.7-4.9 2.8-10.8 0-15.7 5.7-.6 10.1-5.4 10.1-11.2 4.3-1.6 7.6-5.2 8.7-9.6 1.2-4.4.2-9.2-2.7-12.7-32-2.3-64.1 1.3-94.8 10.5-39.6 12-76 33.4-105.9 62.5"/><path class="st7" d="M218.7 227.4c-1.7 3.3-4.5 5.2-6.3 4.3-1.7-.9-1.7-4.3 0-7.6s4.5-5.2 6.3-4.3c1.8.9 1.8 4.3 0 7.6M150.2 250c2.2 2.3 3 5 1.8 6.2-1.2 1.2-4 .3-6.2-2s-3-5-1.8-6.2c1.2-1.2 4-.3 6.2 2M133.5 320.3c-1.4 2.1-3.5 3.2-4.6 2.4-1.1-.8-.8-3.1.6-5.2s3.5-3.2 4.6-2.4c1.1.8.8 3.1-.6 5.2M349.3 79.1c3.7 0 6.7 1.6 6.7 3.5 0 2-3 3.5-6.7 3.5s-6.7-1.6-6.7-3.5 3-3.5 6.7-3.5M328.7 91.3c2.7 1.5 4.3 3.9 3.5 5.3-.8 1.4-3.6 1.4-6.4-.1-2.7-1.5-4.3-3.9-3.5-5.3.8-1.4 3.6-1.4 6.4.1M391.3 100.3c2.5-1 5-.8 5.6.6.5 1.3-1.1 3.2-3.6 4.3-2.5 1-5 .8-5.6-.6-.6-1.4 1.1-3.3 3.6-4.3M200.5 94.1C229.7 76.6 262.1 65 295.7 60c2.1 2.2 3.2 5.2 2.9 8.3-.2 3-1.8 5.9-4.2 7.7 2.8 3.4 3.5 8 1.9 12-1.6 4.1-5.3 6.9-9.6 7.5 1.5 2.8 1.7 6 .5 8.9-1.2 2.9-3.6 5.1-6.6 6 2.6 4.1 3 9.2.9 13.6s-6.2 7.4-11 7.9c-1.2 5.1-4.9 9.3-9.9 11.1-4.9 1.8-10.5 1.1-14.7-2-1.4 4.5-4.5 8.2-8.6 10.4-4.2 2.1-9 2.5-13.5 1-2 5.9-8.1 9.3-14.2 7.9 1.6 3.4.5 7.5-2.5 9.7-3 2.2-7.2 2-10-.6-2.4 7.2-8.7 12.3-16.2 13.1-7.5.8-14.8-2.8-18.7-9.2-2.1 3-5.4 4.9-9.1 5.1-3.6.3-7.2-1.2-9.7-3.8-.8 5.5-5.2 9.8-10.7 10.5 2.1 3.5 2.1 7.7.2 11.3-1.9 3.5-5.5 5.8-9.6 6-.7 3-2.9 5.5-5.8 6.5s-6.2.5-8.6-1.4c-.1 3.2-1.9 6.2-4.7 7.8-2.8 1.6-6.3 1.6-9.1.1 8.1-19.4 18.5-37.6 31.1-54.4 20.2-26.9 45.4-49.6 74.3-66.9"/><path d="M469.9 530.9c2.9-1.7 5.8-3.3 8.8-4.9V190.9h170.9l-.4-.3c-.3-.2-.5-.3-.8-.5-.8-.5-1.6-1-2.3-1.6h-.1l-.1-.1-2.4-1.5c-.2-.2-.5-.3-.8-.5-.6-.4-1.2-.8-1.9-1.2-.2-.1-.5-.3-.7-.4-.8-.5-1.7-1-2.5-1.5l-.4-.2-.7-.4h-158v-83l-.5-.3c-.8-.5-1.5-1-2.3-1.5-.8-.5-1.5-1-2.3-1.5-.8-.5-1.5-1-2.3-1.4-.5-.3-.9-.6-1.4-.8v88.5H111.6l-.2.3-1.2 2.1c-.6 1-1.2 2.1-1.8 3.1l-1.2 2.1-.2.4h362.9v340.2z" style="fill-rule:evenodd;clip-rule:evenodd;fill:#63460e"/><path d="M433.3 421.8c-53.4 17-80.2 25.4-80.2 25.4s35.9 7.8 107.8 23.3c0 0-9.2-16.2-27.6-48.7" style="fill-rule:evenodd;clip-rule:evenodd;fill:#242e05"/><path class="st10" d="m307.6 324.3 13.2 80.4c43.7 13.7 84-30.9 120.9-133.8 0 0-22.4-10.2-67.3-30.5-62.4 22.2-84.6 50.2-66.8 83.9"/><path d="m282.9 562.7 6.9-6.3c3.9-9-30.1-20.3-102.1-33.8 28.7 19.5 61.1 33.2 95.2 40.1" style="fill-rule:evenodd;clip-rule:evenodd;fill:#2c1600"/><path class="st12" d="M461.6 535.6c9-5.2 15.3-8.8 18.9-10.6-1.7-11.8-69.3-4.8-202.8 21 .1 10.4.2 15.6.2 15.6 30.6 6.8 62.2 8.1 93.2 3.9 19.4-2.6 38.4-7.4 56.7-14.3 11.6-4.4 22.9-9.6 33.8-15.6"/><path d="M502.1 507.6c43.4-15 65.1-22.4 65.1-22.4-165.1-32.6-247.6-48.8-247.6-48.8-80.9-29-121.3-43.4-121.3-43.4l-13.2 18.9c-.2-6.4.2-7.3 1-2.9-58.7 4.6-88.1 6.9-88.1 6.9 10 22.1 23.1 42.7 38.9 61.2 79.4 39.3 134.5 57.7 165.2 55.1 133.3-16.4 200-24.6 200-24.6" style="fill-rule:evenodd;clip-rule:evenodd;fill:#bd9c53"/><path d="m266 519.2-124.8-42.6c-4.5-1.6-6.8-2.5-6.8-2.5 11.3 13.6 23.9 25.9 37.7 36.9 8.3 6.6 17 12.8 26.1 18.3 22.4 8.3 45.1 15.8 67.8 23.5 2.4.8 4.3-.7 4.3-3.3v-24.1c0-2.6-1.9-5.4-4.3-6.2" style="fill-rule:evenodd;clip-rule:evenodd;fill:#553100"/><path d="m268.4 519.5 298.8-34.3c2.6-.3 4.7 1.6 4.7 4.2V502.3c-3.7.5-9.1 1-16.2 1.4 0 0-1.3.1-3.9.4-7.4.8-15.3 2.1-23.6 3.9-10.4 2.3-20.1 5.3-29 8.7-10.6 4.2-19.9 8.6-27.8 13.3 0 0-3.4.4-10.2 1.1l-192.7 22.1c-2.6.3-4.7-1.6-4.7-4.2v-24.1c-.1-2.7 2-5.1 4.6-5.4" style="fill-rule:evenodd;clip-rule:evenodd;fill:#966822"/><defs><filter id="Adobe_OpacityMaskFilter_1_" filterUnits="userSpaceOnUse" x="116.6" y="415" width="251.7" height="49.1"><feColorMatrix values="1 0 0 0 0 0 1 0 0 0 0 0 1 0 0 0 0 0 1 0"/></filter></defs><mask maskUnits="userSpaceOnUse" x="116.6" y="415" width="251.7" height="49.1" id="SVGID_3_"><g style="filter:url(#Adobe_OpacityMaskFilter_1_)"><linearGradient id="SVGID_4_" gradientUnits="userSpaceOnUse" x1="-376.858" y1="700.783" x2="152.675" y2="715.551" gradientTransform="translate(349.837 -268.7)"><stop offset="0" style="stop-color:#000"/><stop offset="1" style="stop-color:#fff"/></linearGradient><path style="fill:url(#SVGID_4_)" d="M116.6 415h251.7v49.1H116.6z"/></g></mask><path d="M176.1 415c113.7 18.6 170.6 27.9 170.6 27.9 42.4 4.9 19.1 19.7-39.9 21-4.5.1-9.2.2-14.1.2-44.4 0-79.6-1.2-105.5-3.7-68.5-6.5-111.8-29.8-11.1-45.4" style="mask:url(#SVGID_3_);fill-rule:evenodd;clip-rule:evenodd;fill:#6b4003"/><defs><filter id="Adobe_OpacityMaskFilter_2_" filterUnits="userSpaceOnUse" x="317.4" y="247" width="62.4" height="72"><feColorMatrix values="1 0 0 0 0 0 1 0 0 0 0 0 1 0 0 0 0 0 1 0"/></filter></defs><mask maskUnits="userSpaceOnUse" x="317.4" y="247" width="62.4" height="72" id="SVGID_5_"><g style="filter:url(#Adobe_OpacityMaskFilter_2_)"><linearGradient id="SVGID_6_" gradientUnits="userSpaceOnUse" x1="-140.817" y1="641.656" x2="-226.75" y2="722.21" gradientTransform="translate(540.551 -406.612)"><stop offset="0" style="stop-color:#000"/><stop offset="1" style="stop-color:#fff"/></linearGradient><path style="fill:url(#SVGID_6_)" d="M317.4 247h62.4v72h-62.4z"/></g></mask><path d="M317.4 306.9c8.3 8 12.4 12.1 12.4 12.1 17.5.7 33.9-8.2 43-23.1 9.1-14.9 9.4-33.6.7-48.8-7 8-10.6 11.9-10.6 11.9-4.8 23.3-22.4 41.9-45.5 47.9" style="mask:url(#SVGID_5_);fill-rule:evenodd;clip-rule:evenodd;fill:#161c04"/><defs><filter id="Adobe_OpacityMaskFilter_3_" filterUnits="userSpaceOnUse" x="368.8" y="242" width="24.8" height="23.9"><feColorMatrix values="1 0 0 0 0 0 1 0 0 0 0 0 1 0 0 0 0 0 1 0"/></filter></defs><mask maskUnits="userSpaceOnUse" x="368.8" y="242" width="24.8" height="23.9" id="SVGID_7_"><g style="filter:url(#Adobe_OpacityMaskFilter_3_)"><linearGradient id="SVGID_8_" gradientUnits="userSpaceOnUse" x1="-171.084" y1="705.698" x2="-219.103" y2="712.551" gradientTransform="translate(589.414 -457)"><stop offset="0" style="stop-color:#000"/><stop offset="1" style="stop-color:#fff"/></linearGradient><path style="fill:url(#SVGID_8_)" d="M368.8 242h24.8v23.9h-24.8z"/></g></mask><path d="M372.8 242c-5.7 6.8-5.4 14.8.9 23.9 7.6-2.9 14.5-7.6 19.9-13.7-13.8-6.8-20.8-10.2-20.8-10.2" style="mask:url(#SVGID_7_);fill-rule:evenodd;clip-rule:evenodd;fill:#161c04"/><defs><filter id="Adobe_OpacityMaskFilter_4_" filterUnits="userSpaceOnUse" x="304.2" y="324.4" width="89.3" height="87.2"><feColorMatrix values="1 0 0 0 0 0 1 0 0 0 0 0 1 0 0 0 0 0 1 0"/></filter></defs><mask maskUnits="userSpaceOnUse" x="304.2" y="324.4" width="89.3" height="87.2" id="SVGID_9_"><g style="filter:url(#Adobe_OpacityMaskFilter_4_)"><linearGradient id="SVGID_10_" gradientUnits="userSpaceOnUse" x1="-114.166" y1="619.218" x2="-216.193" y2="725.002" gradientTransform="translate(528.077 -318.634)"><stop offset="0" style="stop-color:#000"/><stop offset="1" style="stop-color:#fff"/></linearGradient><path style="fill:url(#SVGID_10_)" d="M304.2 324.4h89.3v87.2h-89.3z"/></g></mask><path d="M393.5 334.2c-2.3 35.6-3.5 53.4-3.5 53.4-9.5 17.5-29.2 26.8-48.7 23.1-19.5-3.7-34.4-19.6-36.8-39.4-2.4-19.7 8.2-38.8 26.3-47-1.5 16.7 10.2 31.7 26.7 34.3 16.6 2.7 32.4-8 36-24.4" style="mask:url(#SVGID_9_);fill-rule:evenodd;clip-rule:evenodd;fill:#161c04"/><path class="st10" d="M207.3 266.5c14 131 54.3 177.7 121.4 141 0 0 .3-26.4 1-79.1-.3-9.7-8.6-20.2-25-31.7-14.3-15.9-24-35.4-28-56.5 0 0-22.9 9-69.4 26.3"/><path d="M332.6 298.4c18.7-17.2 26.9-31.2 24.7-41.8 3.7-5.8-12.1-16-47.5-30.7-3.2-3.2-7.5-5-12-4.9-4.5 0-8.8 1.8-11.9 5 0 0-1.1 5-3.3 15.1-2 24.5 9.5 48.1 30 61.6 7 1.8 14.5.3 20-4.3" style="fill-rule:evenodd;clip-rule:evenodd;fill:#f4b73d"/><defs><filter id="Adobe_OpacityMaskFilter_5_" filterUnits="userSpaceOnUse" x="295.7" y="220.5" width="63.7" height="58.3"><feColorMatrix values="1 0 0 0 0 0 1 0 0 0 0 0 1 0 0 0 0 0 1 0"/></filter></defs><mask maskUnits="userSpaceOnUse" x="295.7" y="220.5" width="63.7" height="58.3" id="SVGID_11_"><g style="filter:url(#Adobe_OpacityMaskFilter_5_)"><linearGradient id="SVGID_12_" gradientUnits="userSpaceOnUse" x1="-154.247" y1="724.757" x2="-223.402" y2="669.812" gradientTransform="translate(519.937 -444.83)"><stop offset="0" style="stop-color:#000"/><stop offset="1" style="stop-color:#fff"/></linearGradient><path style="fill:url(#SVGID_12_)" d="M295.7 220.5h63.7v58.3h-63.7z"/></g></mask><path d="M350.4 278.8c19.5-23.1 7.5-42.6-36-58.3 0 0-6.3.9-18.8 2.7.5 30.2 24.6 54.7 54.8 55.6" style="mask:url(#SVGID_11_);fill-rule:evenodd;clip-rule:evenodd;fill:#e96300"/><defs><filter id="Adobe_OpacityMaskFilter_6_" filterUnits="userSpaceOnUse" x="302" y="223.7" width="59.4" height="43.2"><feColorMatrix values="1 0 0 0 0 0 1 0 0 0 0 0 1 0 0 0 0 0 1 0"/></filter></defs><mask maskUnits="userSpaceOnUse" x="302" y="223.7" width="59.4" height="43.2" id="SVGID_13_"><g style="filter:url(#Adobe_OpacityMaskFilter_6_)"><linearGradient id="SVGID_14_" gradientUnits="userSpaceOnUse" x1="-161.138" y1="738.39" x2="-209.746" y2="684.119" gradientTransform="translate(525.934 -456.087)"><stop offset="0" style="stop-color:#000"/><stop offset="1" style="stop-color:#fff"/></linearGradient><path style="fill:url(#SVGID_14_)" d="M302 223.7h59.4v43.2H302z"/></g></mask><path d="M302 223.7c44.4.6 63.9 15 58.5 43.2-27.2 1-53.8-15.1-58.5-43.2" style="mask:url(#SVGID_13_);fill-rule:evenodd;clip-rule:evenodd;fill:#b50c00"/><path class="st35" d="m338.4 292.5 11.7-12.5c-9.7 6.4-21.5 8.6-32.8 6.1-11.3-2.5-21.1-9.4-27.2-19.2 1.8 6.2 3.7 11.6 5.8 16.2-2.7-2.5-5.1-5.5-7.2-8.7 3.4 11.8 7.4 20.7 11.9 26.8 1.8-1.2 4.3-1.1 6 .4h.1l.4.2c.2.1.5.2.7.4h-.1c.3.1.6.3.9.4 0 0 .6.2.8.3.2.1.7.3.7.3.3.1.6.3.9.4l.7.2c.3.1.7.2 1 .4.5.1.9.3 1.3.4.7 0 1.4.2 2 .4h.6l-.2.1c.4-.2.8-.2 1.2-.3l1.2-.6.7-.2c.3-.1.5-.1.8-.2.5-.3 1-.4 1.6-.5l.1-.1c.7-.5 1.4-.8 2.3-.9.1 0 .2-.1.3-.1.4-.2.8-.3 1.3-.4.5-.3 1.1-.4 1.7-.5.4-.2.9-.3 1.3-.4.9-.4 1.6-.5 2.6-.5 1.4 0 2.7.6 3.6 1.5l13.7-14.5c-3.3 2.3-6.8 3.9-10.4 5.1"/><path class="st36" d="M316.8 303.3c1 1.9 1.5 2.9 1.5 2.9 6.1-.3 26.7-5.9 33.8-12.7 3.5-3.3 1.6-8 5.8-7.5 2.5.3 6.2 2.4 11.3 6.5 3.1 2.4 5.1 2.2 5.2-3.4.4-13.7-.8-27.4-3.3-40.8 0 0-5.6 1.4-16.7 4.3-4 21.7-17.9 40.5-37.6 50.7"/><path class="st37" d="m360.8 418.9-4.2 28.1s12.5.6 37.4 1.9c9.1 2.1 34.8 7.5 37.6-6.8 2.9-2.8 4.5-6.9 4.4-11.2 3-3.6 4.2-8.8 3.1-13.7.5-4.5-.7-8-3.4-10.5-2-1.9-4.3-2.5-7.2-3.3-2.8-.8-7.3-2-13.6-3.7-2.4-.6-4.1-.6-6.2-.1-4.7 1.1-9.1 4.4-12.5 6.9l-12 8.8c-17.8-2.5-26.7-3.7-26.7-3.7-1.3 3-.2 5.5 3.3 7.3"/><path class="st38" d="M437 418.4c.7.2 1.4-.2 1.6-.8.2-.7-.2-1.4-.8-1.6l-14.5-4.5c-.7-.2-1.4.2-1.6.8-.2.7.2 1.4.8 1.6l14.5 4.5zM435.4 429.5c.7.2 1.4-.2 1.6-.8.2-.7-.2-1.4-.8-1.6l-15.4-4.9c-.7-.2-1.4.2-1.6.8-.2.7.2 1.4.8 1.6l15.4 4.9zM431.3 440.4c.7.2 1.4-.2 1.6-.8.2-.7-.2-1.4-.8-1.6l-12-3.8c-.7-.2-1.4.2-1.6.8-.2.7.2 1.4.8 1.6l12 3.8z"/><defs><filter id="Adobe_OpacityMaskFilter_7_" filterUnits="userSpaceOnUse" x="214.7" y="245.4" width="112.4" height="156.9"><feColorMatrix values="1 0 0 0 0 0 1 0 0 0 0 0 1 0 0 0 0 0 1 0"/></filter></defs><mask maskUnits="userSpaceOnUse" x="214.7" y="245.4" width="112.4" height="156.9" id="SVGID_15_"><g style="filter:url(#Adobe_OpacityMaskFilter_7_)"><linearGradient id="SVGID_16_" gradientUnits="userSpaceOnUse" x1="-124.729" y1="609.382" x2="-206.357" y2="681.674" gradientTransform="translate(443.052 -327.478)"><stop offset="0" style="stop-color:#000"/><stop offset="1" style="stop-color:#fff"/></linearGradient><path style="fill:url(#SVGID_16_)" d="M214.7 245.4h112.4v156.9H214.7z"/></g></mask><path d="M214.7 270.1c8.2 100.3 39.2 143.5 92.9 129.6 5.9-7.6 7.8-17.5 5.1-26.7-4.4-15-17.2-18.3-26.5-24.5-19.9-13.2-10-43.9 12.8-46.6 12.3-1.5 24 5.7 28.1 17.4-35-38-50.7-62.7-47.3-73.9-43.3 16.5-65.1 24.7-65.1 24.7" style="mask:url(#SVGID_15_);fill-rule:evenodd;clip-rule:evenodd;fill:#131800"/><path class="st42" d="M183.3 408.7c40.2 14.9 78 15.7 113.3 2.4 18.7 1 32.3-1.4 40.9-7.5 0 0-24.9-5.5-74.8-16.6-6.5-1.3-8.3-2.4-8.3-8.7.4-30 2.8-52.9-7.8-76.3-13.2-29.2-42.8-58.8-53.1-11.6-7.5 34.6-10.6 99-10.2 118.3"/><defs><filter id="Adobe_OpacityMaskFilter_8_" filterUnits="userSpaceOnUse" x="188.5" y="297.4" width="101" height="121.8"><feColorMatrix values="1 0 0 0 0 0 1 0 0 0 0 0 1 0 0 0 0 0 1 0"/></filter></defs><mask maskUnits="userSpaceOnUse" x="188.5" y="297.4" width="101" height="121.8" id="SVGID_17_"><g style="filter:url(#Adobe_OpacityMaskFilter_8_)"><linearGradient id="SVGID_18_" gradientUnits="userSpaceOnUse" x1="-159.791" y1="631.05" x2="-205.999" y2="723.467" gradientTransform="translate(418.088 -311.433)"><stop offset="0" style="stop-color:#000"/><stop offset="1" style="stop-color:#fff"/></linearGradient><path style="fill:url(#SVGID_18_)" d="M188.5 297.4h101v121.8h-101z"/></g></mask><path d="M188.5 407.9c37.2 14.7 70.8 15 101 .9-19.6-29-43.6 2.5-62.6-16.5-14.5-14.5.8-30.9-4.8-48.5-5.5-17.4-29.9-23.2-25.6-46.4-4.7 33.6-7.4 70.5-8 110.5" style="mask:url(#SVGID_17_);fill-rule:evenodd;clip-rule:evenodd;fill:#29300e"/><path class="st37" d="m258 418.9 4.2 28.1-4.3.2 3.9 3.1s-12.3-.5-37-1.4c-9.1 2.1-34.8 7.5-37.6-6.8-2.9-2.8-4.5-6.9-4.4-11.2-3-3.6-4.2-8.8-3.1-13.7-.5-4.5.7-8 3.4-10.5 2-1.9 4.3-2.5 7.2-3.3 2.8-.8 7.3-2 13.6-3.7 2.4-.6 4.1-.6 6.2-.1 4.7 1.1 9.1 4.4 12.5 6.9l12 8.8c17.8-2.5 26.7-3.7 26.7-3.7 1.2 3 .1 5.5-3.3 7.3"/><path class="st38" d="M183.4 429.5c-.7.2-1.4-.2-1.6-.8-.2-.7.2-1.4.8-1.6l15.4-4.9c.7-.2 1.4.2 1.6.8.2.7-.2 1.4-.8 1.6l-15.4 4.9zm4 10.9c-.7.2-1.4-.2-1.6-.8s.2-1.4.8-1.6l12-3.8c.7-.2 1.4.2 1.6.8.2.7-.2 1.4-.8 1.6l-12 3.8zm-5.7-22c-.7.2-1.4-.2-1.6-.8-.2-.7.2-1.4.8-1.6l14.5-4.5c.7-.2 1.4.2 1.6.8.2.7-.2 1.4-.8 1.6l-14.5 4.5z"/><path class="st42" d="M265.9 409.9c.6 14.3 3.3 28.4 7.9 42 38.3-.4 75.1-1 113.1-5.2 30.8-3.4 46.1-10 54.6-49.8 8.2-38.1 14.2-101.2 10.3-114.9-2.8-10.1-9.6-13.6-20-10.5-14.4 4.3-32.6 20.8-38.8 33.6-2.3 4.8-4.3 10.4-6.4 17.8-4.3 14.3-8.3 28.6-12.8 42.8-7.7 24.2-6.1 25.1-36.2 30.8-47.8 9-71.7 13.4-71.7 13.4"/><defs><filter id="Adobe_OpacityMaskFilter_9_" filterUnits="userSpaceOnUse" x="218.1" y="271.8" width="44.5" height="117.6"><feColorMatrix values="1 0 0 0 0 0 1 0 0 0 0 0 1 0 0 0 0 0 1 0"/></filter></defs><mask maskUnits="userSpaceOnUse" x="218.1" y="271.8" width="44.5" height="117.6" id="SVGID_19_"><g style="filter:url(#Adobe_OpacityMaskFilter_9_)"><linearGradient id="SVGID_20_" gradientUnits="userSpaceOnUse" x1="-236.897" y1="680.276" x2="-176.174" y2="660.74" gradientTransform="translate(446.29 -339.717)"><stop offset="0" style="stop-color:#000"/><stop offset="1" style="stop-color:#fff"/></linearGradient><path style="fill:url(#SVGID_20_)" d="M218.1 271.8h44.5v117.6h-44.5z"/></g></mask><path d="M257.8 385.7c1.5.6 3.1 1 4.8 1.3-7.8 4.2-17.5 2.7-23.8-3.6-13-13.3.6-27.3 2.2-42.2 2.5-23.2-39-34.1-15.9-69.4 11.8 11 20.4 24.9 25.2 40.3 2.8 8.8 4.3 20.2 4.5 34.3 0 7.2-.1 15.6-.4 25.3 0 1.9-.1 4.1-.1 6.7 0 1.1 0 2.2.3 3.5.8 2.2 1.8 3.5 3.2 3.8" style="mask:url(#SVGID_19_);fill-rule:evenodd;clip-rule:evenodd;fill:#7703fc"/><defs><filter id="Adobe_OpacityMaskFilter_10_" filterUnits="userSpaceOnUse" x="258.6" y="245.5" width="67.3" height="74.1"><feColorMatrix values="1 0 0 0 0 0 1 0 0 0 0 0 1 0 0 0 0 0 1 0"/></filter></defs><mask maskUnits="userSpaceOnUse" x="258.6" y="245.5" width="67.3" height="74.1" id="SVGID_21_"><g style="filter:url(#Adobe_OpacityMaskFilter_10_)"><linearGradient id="SVGID_22_" gradientUnits="userSpaceOnUse" x1="-153.619" y1="737.462" x2="-206.732" y2="670.602" gradientTransform="translate(484.706 -406.057)"><stop offset="0" style="stop-color:#000"/><stop offset="1" style="stop-color:#fff"/></linearGradient><path style="fill:url(#SVGID_22_)" d="M258.6 245.5h67.3v74.1h-67.3z"/></g></mask><path d="M325.9 319.6c-33-34.9-50.4-59.6-52.1-74.1-20.6 38.4-20.3 60 .7 64.8 17.4 3.9 38.1-7.1 51.4 9.3" style="mask:url(#SVGID_21_);fill-rule:evenodd;clip-rule:evenodd;fill:#161c04"/><path class="st36" d="M328.3 326.9c0 1.8.9 2.2 1.7 1.2 1.4-1.9.9-5.4.3-7.5-2.7-9.9-14.2-22.2-24.6-34.4-13.5-15.7-22.2-28-21.6-49.7.1-3.9-1.3-4-4.5-.2-12.4 14.4-20.9 58.9-10.8 55.6.7-.2 1.5-.8 2.5-1.5 9.9-7.7 14.1-8.3 12.5-1.6-2.9 10.7 44.4 18.6 44.5 38.1"/><defs><filter id="Adobe_OpacityMaskFilter_11_" filterUnits="userSpaceOnUse" x="352.7" y="249.7" width="19" height="17.3"><feColorMatrix values="1 0 0 0 0 0 1 0 0 0 0 0 1 0 0 0 0 0 1 0"/></filter></defs><mask maskUnits="userSpaceOnUse" x="352.7" y="249.7" width="19" height="17.3" id="SVGID_23_"><g style="filter:url(#Adobe_OpacityMaskFilter_11_)"><linearGradient id="SVGID_24_" gradientUnits="userSpaceOnUse" x1="-172.678" y1="709.934" x2="-224.507" y2="715.818" gradientTransform="translate(574.137 -456.027)"><stop offset="0" style="stop-color:#000"/><stop offset="1" style="stop-color:#fff"/></linearGradient><path style="fill:url(#SVGID_24_)" d="M352.7 249.7h19V267h-19z"/></g></mask><path d="M356.8 251.9c8.5-1.4 12.7-2.2 12.7-2.2s.7 5.5 2.2 16.6c-6.3.7-12.7.8-19 .3 1.4-4 2.8-8.9 4.1-14.7" style="mask:url(#SVGID_23_);fill-rule:evenodd;clip-rule:evenodd;fill:#29300e"/><path class="st10" d="m358.8 161.3 16.2 11.4c18.2-11.7 24.6-20.7 19.1-27-13.5-.3-26.4 5.4-35.3 15.6"/><defs><filter id="Adobe_OpacityMaskFilter_12_" filterUnits="userSpaceOnUse" x="358.8" y="146.8" width="24.2" height="25.9"><feColorMatrix values="1 0 0 0 0 0 1 0 0 0 0 0 1 0 0 0 0 0 1 0"/></filter></defs><mask maskUnits="userSpaceOnUse" x="358.8" y="146.8" width="24.2" height="25.9" id="SVGID_25_"><g style="filter:url(#Adobe_OpacityMaskFilter_12_)"><linearGradient id="SVGID_26_" gradientUnits="userSpaceOnUse" x1="-175.929" y1="695.668" x2="-215.211" y2="707.172" gradientTransform="translate(579.894 -545.622)"><stop offset="0" style="stop-color:#000"/><stop offset="1" style="stop-color:#fff"/></linearGradient><path style="fill:url(#SVGID_26_)" d="M358.8 146.8H383v25.9h-24.2z"/></g></mask><path d="m358.8 161.3 16.2 11.4c2.3-1.5 4.3-2.9 6.2-4.2 4.3-7.4-6-9.9 1.8-21.7-9.3 2.1-17.8 7.1-24.2 14.5" style="mask:url(#SVGID_25_);fill-rule:evenodd;clip-rule:evenodd;fill:#131800"/><path d="M302 223.7c-1.2-35.7 25.9-66 61.4-68.9 9.8 8.9 14.2 17.3 13.4 25.3-2 12 6.5 10.8 6.1 25.4-.5 13.5-1.1 23.8-1.4 31.4-1.1 28.6-47.4 17.1-62.1 9.1-9.4-5.1-15.1-12.5-17.4-22.3" style="fill-rule:evenodd;clip-rule:evenodd;fill:#f8c358"/><defs><filter id="Adobe_OpacityMaskFilter_13_" filterUnits="userSpaceOnUse" x="345.7" y="154.8" width="37.2" height="97.2"><feColorMatrix values="1 0 0 0 0 0 1 0 0 0 0 0 1 0 0 0 0 0 1 0"/></filter></defs><mask maskUnits="userSpaceOnUse" x="345.7" y="154.8" width="37.2" height="97.2" id="SVGID_27_"><g style="filter:url(#Adobe_OpacityMaskFilter_13_)"><linearGradient id="SVGID_28_" gradientUnits="userSpaceOnUse" x1="-219.138" y1="681.558" x2="-186.708" y2="665.507" gradientTransform="translate(567.48 -470.24)"><stop offset="0" style="stop-color:#000"/><stop offset="1" style="stop-color:#fff"/></linearGradient><path style="fill:url(#SVGID_28_)" d="M345.7 154.8h37.2V252h-37.2z"/></g></mask><path d="M345.7 158.7c5.6-2.1 11.5-3.4 17.7-3.9 9.8 8.9 14.2 17.3 13.4 25.3-2 12 6.5 10.8 6.1 25.4-.5 13.5-1.1 23.8-1.4 31.4-.3 7.6-3.8 12.4-9 15.1 4-17.4 3.5-36-2.6-54.2-5.1-15.2-13.5-28.4-24.2-39.1" style="mask:url(#SVGID_27_);fill-rule:evenodd;clip-rule:evenodd;fill:#ffe28d"/><defs><filter id="Adobe_OpacityMaskFilter_14_" filterUnits="userSpaceOnUse" x="303.4" y="159" width="68" height="93.5"><feColorMatrix values="1 0 0 0 0 0 1 0 0 0 0 0 1 0 0 0 0 0 1 0"/></filter></defs><mask maskUnits="userSpaceOnUse" x="303.4" y="159" width="68" height="93.5" id="SVGID_29_"><g style="filter:url(#Adobe_OpacityMaskFilter_14_)"><linearGradient id="SVGID_30_" gradientUnits="userSpaceOnUse" x1="-161.494" y1="681.326" x2="-209.638" y2="671.495" gradientTransform="translate(527.333 -469.793)"><stop offset="0" style="stop-color:#000"/><stop offset="1" style="stop-color:#fff"/></linearGradient><path style="fill:url(#SVGID_30_)" d="M303.4 159h68v93.5h-68z"/></g></mask><path d="M365.5 159c-24.5 8.7-36.8 13.1-36.8 13.1-21.7 6.3-29.4 23.9-23.1 52.8 3.7 14.5 20 23.7 48.9 27.7-6.3-2-11.3-6.8-13.8-12.9-7.2-17.7 13-27.2.3-51.6 0 0 10.2-7.6 30.5-22.8-1.6-2.3-3.6-4.3-6-6.3" style="mask:url(#SVGID_29_);fill-rule:evenodd;clip-rule:evenodd;fill:#e96300"/><defs><filter id="Adobe_OpacityMaskFilter_15_" filterUnits="userSpaceOnUse" x="320.6" y="160.2" width="46.3" height="27.5"><feColorMatrix values="1 0 0 0 0 0 1 0 0 0 0 0 1 0 0 0 0 0 1 0"/></filter></defs><mask maskUnits="userSpaceOnUse" x="320.6" y="160.2" width="46.3" height="27.5" id="SVGID_31_"><g style="filter:url(#Adobe_OpacityMaskFilter_15_)"><linearGradient id="SVGID_32_" gradientUnits="userSpaceOnUse" x1="-160.985" y1="699.634" x2="-231.171" y2="709.833" gradientTransform="translate(543.663 -531.334)"><stop offset="0" style="stop-color:#000"/><stop offset="1" style="stop-color:#fff"/></linearGradient><path style="fill:url(#SVGID_32_)" d="M320.6 160.2h46.3v27.5h-46.3z"/></g></mask><path d="M327 187.7c-15.7-4.8-2.4-14 39.9-27.5 0 0-7.8 6.9-23.4 20.8-4.4 3.7-9.9 6-16.5 6.7" style="mask:url(#SVGID_31_);fill-rule:evenodd;clip-rule:evenodd;fill:#b50c00"/><defs><filter id="Adobe_OpacityMaskFilter_16_" filterUnits="userSpaceOnUse" x="315.9" y="190.2" width="46.4" height="17.7"><feColorMatrix values="1 0 0 0 0 0 1 0 0 0 0 0 1 0 0 0 0 0 1 0"/></filter></defs><mask maskUnits="userSpaceOnUse" x="315.9" y="190.2" width="46.4" height="17.7" id="SVGID_33_"><g style="filter:url(#Adobe_OpacityMaskFilter_16_)"><linearGradient id="SVGID_34_" gradientUnits="userSpaceOnUse" x1="-162.13" y1="702.615" x2="-230.537" y2="718.088" gradientTransform="translate(539.182 -512.154)"><stop offset="0" style="stop-color:#000"/><stop offset="1" style="stop-color:#fff"/></linearGradient><path style="fill:url(#SVGID_34_)" d="M315.9 190.2h46.4v17.7h-46.4z"/></g></mask><path d="M319.9 195.1c-2.1.5-3.7 2.2-3.9 4.4-.2 2.2 1 4.2 3 5.1 15.8-3 23.7-4.4 23.7-4.4 4.3 6.3 12.2 9.2 19.6 7.1-8-1.4-13.4-9-12-17.1-20.3 3.2-30.4 4.9-30.4 4.9" style="mask:url(#SVGID_33_);fill-rule:evenodd;clip-rule:evenodd;fill:#b50c00"/><path d="M310.1 215.7c-11.1-12.9-16.7-19.4-16.7-19.4 4.3-12.8 17.3-20.6 30.6-18.4 2.6 3.9 3.5 8.6 2.6 13.1-.9 4.5-3.7 8.5-7.6 11l-.3 11.3c0 2.1-1.4 4-3.5 4.5-2 .6-4.1-.3-5.1-2.1m-44 1.3c1.6-7.4 8.8-12.2 16.2-11 7.5 1.2 12.7 8.1 11.8 15.6-6 18.3-15.4 16.8-28-4.6z" style="fill-rule:evenodd;clip-rule:evenodd;fill:#191002"/><path class="st10" d="M284.5 129.8c1.9 0 3.5 1.6 3.5 3.5s-1.6 3.5-3.5 3.5-3.5-1.6-3.5-3.5 1.5-3.5 3.5-3.5"/><path d="M300.7 198.9c3.8 5.5 6.5 8 8.1 7.6 6.8-1.3 10.1-1.9 10.1-1.9 0-1.6.1-2.5.1-2.5 2.7-1.8 4.9-4.3 6.3-7.2l-24.6 4c7.7-6.4 16.8-10.1 26.3-11.2 0-3.5-1-6.9-2.9-9.8-13.3-2.2-26.3 5.6-30.6 18.4l4.5 5.2c.8-.9 1.8-1.8 2.7-2.6M266.1 217c1.6-7.4 8.8-12.2 16.2-11 3.3.5 6.1 2.2 8.2 4.5-4.7 7.3-7.2 15.4-7.8 23.7-4.7-.7-10.2-6.4-16.6-17.2z" style="fill-rule:evenodd;clip-rule:evenodd;fill:#030000"/><path class="st36" d="M287.9 131.3c19.7 31.9 29.6 47.9 29.6 47.9s-13.7 11.9-41.1 35.8c-6.5 5.5-10.9 5.9-14.4-.8-15.8-30.1-4.1-67.1 25.9-82.9"/><path class="st35" d="M313.9 181.5c32.5-20.7 48.7-31.1 48.7-31.1-12.9-23.4-41.2-33.5-66-23.6-11.2 4.7-12.8 7-9.9 13.4 11.4 22.1 27.2 41.3 27.2 41.3"/><path class="st36" d="M390.5 143c4.8 1.2 5.8 3.4 3.9 3.7-1.1.2-2.2-.3-3.5-.1-1.6.2-3.4 1-6 2.3-13.1 6.4-36.6 25.7-44.1 30-2.7 1.6-5.7 2.8-9.2 3.4-2.9.5-6 .5-9.1.4-1.5-.1-7.7-.3-8.7-1.2-.7-.7-.1-1.8 1.9-3.4 33.5-27.3 58.4-39 74.8-35.1"/><path class="st73" d="M361 189.6c1.5 0 2.7 1.2 2.7 2.7 0 1.5-1.2 2.7-2.7 2.7-1.5 0-2.7-1.2-2.7-2.7 0-1.5 1.2-2.7 2.7-2.7M377.8 186c1.4 0 2.5 1.1 2.5 2.5s-1.1 2.5-2.5 2.5-2.5-1.1-2.5-2.5 1.1-2.5 2.5-2.5"/><path class="st74" d="M358.6 175.4c.8-.2 1.6.3 1.8 1.1.2.8-.3 1.6-1.1 1.8-1.5.4-2.9 1-4.1 1.8-1.3.8-2.4 1.8-3.4 3-.5.6-1.5.7-2.1.2-.6-.5-.7-1.5-.2-2.1 1.2-1.4 2.5-2.6 4.1-3.6 1.6-1 3.3-1.8 5-2.2M372.8 175.6c-.8.2-1.6-.2-1.9-1-.2-.8.2-1.6 1-1.9 1.3-.4 2.6-.6 3.9-.5 1.3.1 2.6.4 3.9.9.8.3 1.1 1.2.8 2-.3.8-1.2 1.1-2 .8-.9-.4-1.9-.6-2.8-.7-1 0-1.9.1-2.9.4"/><path class="st75" d="M384.8 183.5c-1.4-1.7-3.1-2.7-4.9-2.5-1.8.1-3.4 1.4-4.5 3.2-1.2 2-1.8 4.6-1.6 7.6.2 2.9 1.2 5.5 2.6 7.2 1.4 1.7 3.1 2.7 4.9 2.5 1.8-.1 3.4-1.4 4.5-3.2 1.2-2 1.8-4.6 1.6-7.6-.2-2.9-1.2-5.4-2.6-7.2m-5.1-4.4c2.5-.2 4.8 1.1 6.5 3.2 1.7 2.1 2.8 5 3.1 8.3.2 3.3-.5 6.4-1.8 8.6-1.4 2.4-3.5 4-6 4.1-2.5.2-4.8-1.1-6.5-3.2-1.7-2.1-2.8-5-3.1-8.3-.2-3.3.5-6.4 1.8-8.6 1.4-2.4 3.5-4 6-4.1z"/><path class="st76" d="M370.7 190.7c-1.4-6.7.5-7.5 4.6-2.2 6.3 8.2 9.5 12.4 9.5 12.4 3.8 5.2 2.6 8.6-3.8 10.2-3.1.8-1.7-.5-3.9-.7-.8-.1-1.7.2-2.8.7-1.5.8-1.8 1.5-3.8 1.1-1.2-.3-2.2-.9-2.9-2-1.1-1.6-1.1-3.8.1-5.4 1.2-1.6 3.2-2.3 5.1-1.8-1.4-8.3-2.1-12.3-2.1-12.3"/><path class="st75" d="M367.8 184.9c-1.8-2.1-4.2-3.5-6.9-3.5s-5.1 1.3-6.9 3.5c-1.8 2.2-2.9 5.2-2.9 8.6 0 3.4 1.1 6.4 2.9 8.6 1.8 2.1 4.2 3.5 6.9 3.5s5.1-1.3 6.9-3.5c1.8-2.2 2.9-5.2 2.9-8.6 0-3.4-1.1-6.4-2.9-8.6zm-6.9-5.4c3.3 0 6.2 1.6 8.4 4.1 1.1 1.4 2 3 2.6 4.8.3-.2.6-.5.9-.6.9-.4 1.9-.6 3-.4.5.1.8.6.7 1.1-.1.5-.6.8-1.1.7-.6-.1-1.2 0-1.7.2-.5.3-1 .7-1.2 1.3.1.9.2 1.7.2 2.6 0 3.8-1.3 7.3-3.4 9.8-2.1 2.6-5.1 4.1-8.4 4.1-3.3 0-6.2-1.6-8.4-4.1-2.1-2.5-3.4-6-3.4-9.8 0-.9.1-1.9.2-2.7l-54.8 9.5-.3-1.8 55.6-9.7c.6-1.9 1.5-3.6 2.7-5 2.1-2.5 5.1-4.1 8.4-4.1z"/><path class="st35" d="M382.6 183.6c1.1 0 2 .9 2 2s-.9 2-2 2-2-.9-2-2c-.1-1.1.8-2 2-2M365.6 185.6c1.4 0 2.6 1.2 2.6 2.6 0 1.4-1.2 2.6-2.6 2.6-1.4 0-2.6-1.2-2.6-2.6 0-1.4 1.2-2.6 2.6-2.6"/><path class="st77" d="M364.8 224.8c-.6-.2-1-.9-.9-1.5.1-.7.7-1.1 1.2-.9 2.6.8 6 1.2 9 .7 2.3-.4 4.5-1.2 5.9-2.9.4-.5 1.1-.4 1.5.1.4.5.5 1.3.1 1.8-1.7 2-4.3 3.1-7 3.5-3.3.4-6.9 0-9.8-.8M370.6 229.9c-.3-.1-.5-.5-.5-.8.1-.4.3-.6.7-.5 1.4.4 3.2.6 4.8.4 1.3-.2 2.4-.7 3.1-1.5.2-.2.6-.2.8 0 .2.3.2.7 0 .9-.9 1.1-2.3 1.6-3.7 1.9-1.8.2-3.7 0-5.2-.4"/><defs><filter id="Adobe_OpacityMaskFilter_17_" filterUnits="userSpaceOnUse" x="257.5" y="171.7" width="51.3" height="43.4"><feColorMatrix values="1 0 0 0 0 0 1 0 0 0 0 0 1 0 0 0 0 0 1 0"/></filter></defs><mask maskUnits="userSpaceOnUse" x="257.5" y="171.7" width="51.3" height="43.4" id="SVGID_35_"><g style="filter:url(#Adobe_OpacityMaskFilter_17_)"><linearGradient id="SVGID_36_" gradientUnits="userSpaceOnUse" x1="-209.61" y1="671.396" x2="-198.684" y2="704.184" gradientTransform="translate(483.693 -505.331)"><stop offset="0" style="stop-color:#000"/><stop offset="1" style="stop-color:#fff"/></linearGradient><path style="fill:url(#SVGID_36_)" d="M257.5 171.7h51.3v43.4h-51.3z"/></g></mask><path d="M308.9 182.8 276 211.5c-5.6 4.8-9.4 5.1-12.4-.7-6.5-12.5-7.6-26.5-4-39.1 14.9 18.3 29.7-3.5 49.3 11.1" style="mask:url(#SVGID_35_);fill-rule:evenodd;clip-rule:evenodd;fill:#350777"/><path d="M287.2 199.7c5-4.4 13.7-2.7 19.5 3.8 5.7 6.5 6.3 15.4 1.3 19.8s-13.7 2.7-19.5-3.8c-5.7-6.5-6.3-15.3-1.3-19.8" style="fill-rule:evenodd;clip-rule:evenodd;fill:#fac354"/><path class="st76" d="M290.4 205.2c3.1-2.7 8.5-1.7 12.1 2.3 3.6 4 3.9 9.5.8 12.3-3.1 2.7-8.5 1.7-12.1-2.3-3.6-4-3.9-9.5-.8-12.3"/><path d="M295.4 206.4c1.8-1.6 5-1 7.1 1.4 2.1 2.4 2.3 5.6.5 7.2-1.8 1.6-5 1-7.1-1.4-2.1-2.4-2.3-5.6-.5-7.2" style="fill-rule:evenodd;clip-rule:evenodd;fill:#b50c00"/><defs><filter id="Adobe_OpacityMaskFilter_18_" filterUnits="userSpaceOnUse" x="319" y="162.4" width="39" height="17.9"><feColorMatrix values="1 0 0 0 0 0 1 0 0 0 0 0 1 0 0 0 0 0 1 0"/></filter></defs><mask maskUnits="userSpaceOnUse" x="319" y="162.4" width="39" height="17.9" id="SVGID_37_"><g style="filter:url(#Adobe_OpacityMaskFilter_18_)"><linearGradient id="SVGID_38_" gradientUnits="userSpaceOnUse" x1="-184.66" y1="693.908" x2="-218.542" y2="722.212" gradientTransform="translate(542.06 -538.404)"><stop offset="0" style="stop-color:#000"/><stop offset="1" style="stop-color:#fff"/></linearGradient><path style="fill:url(#SVGID_38_)" d="M319 162.4h39v17.9h-39z"/></g></mask><path d="M357.9 164.6c-7.4 5.3-14.4 10.8-17.6 12.6-2.1 1.3-4.4 2.2-7.2 2.7-2.3.4-4.7.4-7.1.3-1.2-.1-6.1-.2-6.8-.9-.6-.5-.1-1.4 1.5-2.6 6.8-5.6 13.2-10.3 19.1-14.2 5.7 2.1 12 2.8 18.1 2.1" style="mask:url(#SVGID_37_);fill-rule:evenodd;clip-rule:evenodd;fill:#350777"/><defs><filter id="Adobe_OpacityMaskFilter_19_" filterUnits="userSpaceOnUse" x="197.4" y="422.3" width="58.4" height="27.2"><feColorMatrix values="1 0 0 0 0 0 1 0 0 0 0 0 1 0 0 0 0 0 1 0"/></filter></defs><mask maskUnits="userSpaceOnUse" x="197.4" y="422.3" width="58.4" height="27.2" id="SVGID_39_"><g style="filter:url(#Adobe_OpacityMaskFilter_19_)"><linearGradient id="SVGID_40_" gradientUnits="userSpaceOnUse" x1="-214.496" y1="699.108" x2="-185.793" y2="737.527" gradientTransform="translate(426.619 -282.661)"><stop offset="0" style="stop-color:#000"/><stop offset="1" style="stop-color:#fff"/></linearGradient><path style="fill:url(#SVGID_40_)" d="M197.4 422.3h58.4v27.2h-58.4z"/></g></mask><path d="M224.3 446.6c-11.9 2.7-20.8 3.5-26.8 2.3 4.6-9.8 16-2.9 23.8-3.6 12.7-1.2 14.2-16.7 22.5-21.2 3.7-2 8.1-2.4 12.2-1-.6 16.2-.8 24.2-.8 24.2-20.7-.4-30.9-.7-30.9-.7" style="mask:url(#SVGID_39_);fill-rule:evenodd;clip-rule:evenodd;fill:#ea6b0b"/><defs><filter id="Adobe_OpacityMaskFilter_20_" filterUnits="userSpaceOnUse" x="312.8" y="351.3" width="70.2" height="63.9"><feColorMatrix values="1 0 0 0 0 0 1 0 0 0 0 0 1 0 0 0 0 0 1 0"/></filter></defs><mask maskUnits="userSpaceOnUse" x="312.8" y="351.3" width="70.2" height="63.9" id="SVGID_41_"><g style="filter:url(#Adobe_OpacityMaskFilter_20_)"><linearGradient id="SVGID_42_" gradientUnits="userSpaceOnUse" x1="-139.62" y1="701.343" x2="-246.026" y2="695.101" gradientTransform="translate(536.247 -315.249)"><stop offset="0" style="stop-color:#000"/><stop offset="1" style="stop-color:#fff"/></linearGradient><path style="fill:url(#SVGID_42_)" d="M312.8 351.3H383v63.9h-70.2z"/></g></mask><path d="M312.8 406.4c11.6-2.1 50.9 28.6 65.4-13.8 4.5-13.3-.3-27.2 4.8-41.3-5.6 18.1-8.4 27.2-8.4 27.2-6.7 24.3-18.1 17.4-61.8 27.9" style="mask:url(#SVGID_41_);fill-rule:evenodd;clip-rule:evenodd;fill:#242c0c"/><defs><filter id="Adobe_OpacityMaskFilter_21_" filterUnits="userSpaceOnUse" x="270.7" y="413.4" width="126.9" height="35.1"><feColorMatrix values="1 0 0 0 0 0 1 0 0 0 0 0 1 0 0 0 0 0 1 0"/></filter></defs><mask maskUnits="userSpaceOnUse" x="270.7" y="413.4" width="126.9" height="35.1" id="SVGID_43_"><g style="filter:url(#Adobe_OpacityMaskFilter_21_)"><linearGradient id="SVGID_44_" gradientUnits="userSpaceOnUse" x1="-153.639" y1="696.572" x2="-177.88" y2="748.159" gradientTransform="translate(496.181 -283.577)"><stop offset="0" style="stop-color:#000"/><stop offset="1" style="stop-color:#fff"/></linearGradient><path style="fill:url(#SVGID_44_)" d="M270.7 413.4h126.9v35.1H270.7z"/></g></mask><path d="M270.7 415.4c1.4 22.1 2.1 33.1 2.1 33.1 43.6-.5 85.2-2.8 124.8-6.8-19.1-19.5-34 2.3-60.2-2-27.5-4.6-38.4-34.2-66.7-24.3" style="mask:url(#SVGID_43_);fill-rule:evenodd;clip-rule:evenodd;fill:#242c0c"/><path class="st36" d="M266.2 456.9c2 0 4 0 6-.1 9.3-.2 8.3.4 6.3-12-1.8-11.3-3.6-22.3-4.9-33.3-.9-7.2-1.4-7.2-6.8-7-3 .1-6.1.5-9.1 1-5.6.9-7.6 1.4-8.1 3.9-1.1 5.9 5.1 40.4 7.4 44.8 1.3 2.6 3.4 2.9 9.2 2.7"/><defs><filter id="Adobe_OpacityMaskFilter_22_" filterUnits="userSpaceOnUse" x="389.6" y="270.5" width="63.4" height="175.5"><feColorMatrix values="1 0 0 0 0 0 1 0 0 0 0 0 1 0 0 0 0 0 1 0"/></filter></defs><mask maskUnits="userSpaceOnUse" x="389.6" y="270.5" width="63.4" height="175.5" id="SVGID_45_"><g style="filter:url(#Adobe_OpacityMaskFilter_22_)"><linearGradient id="SVGID_46_" gradientUnits="userSpaceOnUse" x1="-201.653" y1="634.88" x2="-156.087" y2="665.699" gradientTransform="translate(609.152 -285.885)"><stop offset="0" style="stop-color:#000"/><stop offset="1" style="stop-color:#fff"/></linearGradient><path style="fill:url(#SVGID_46_)" d="M389.6 270.5H453V446h-63.4z"/></g></mask><path d="M391.8 446.1c27.5-3.6 41.6-11.6 49.7-49.2 8.2-38.1 14.2-101.2 10.3-114.9-2-7-5.9-10.8-11.6-11.5.2 131.2-63.2 128.1-48.4 175.6" style="mask:url(#SVGID_45_);fill-rule:evenodd;clip-rule:evenodd;fill:#7703fc"/><defs><filter id="Adobe_OpacityMaskFilter_23_" filterUnits="userSpaceOnUse" x="225.3" y="481.2" width="128.3" height="23.4"><feColorMatrix values="1 0 0 0 0 0 1 0 0 0 0 0 1 0 0 0 0 0 1 0"/></filter></defs><mask maskUnits="userSpaceOnUse" x="225.3" y="481.2" width="128.3" height="23.4" id="SVGID_47_"><g style="filter:url(#Adobe_OpacityMaskFilter_23_)"><linearGradient id="SVGID_48_" gradientUnits="userSpaceOnUse" x1="-301.525" y1="731.875" x2="-99.767" y2="719.159" gradientTransform="translate(453.095 -230.306)"><stop offset="0" style="stop-color:#000"/><stop offset="1" style="stop-color:#fff"/></linearGradient><path style="fill:url(#SVGID_48_)" d="M225.3 481.2h128.3v23.4H225.3z"/></g></mask><path d="M289.4 481.2c35.4 0 64.1 5.2 64.1 11.7 0 6.5-28.7 11.7-64.1 11.7s-64.1-5.2-64.1-11.7c0-6.5 28.7-11.7 64.1-11.7" style="mask:url(#SVGID_47_);fill-rule:evenodd;clip-rule:evenodd;fill:#6b4003"/><path d="M301.1 421h44.6c3.3 0 5.8 2.7 5.5 6-.8 9.9-1.7 19.7-2.5 29.6-.8 9.9-1.7 19.7-2.5 29.6-.3 3.3-2.7 5.3-5.3 5.9-11.3 3-25.6 2-35.2 0-2.6-.5-5-2.7-5.3-5.9-.8-9.9-1.7-19.7-2.5-29.6-.8-9.9-1.7-19.7-2.5-29.6-.2-3.3 2.3-6 5.7-6" style="fill-rule:evenodd;clip-rule:evenodd;fill:#eddebb"/><path class="st12" d="M323 417.2c16.2 0 29.4 2.5 29.4 5.5 0 3.1-13.2 5.5-29.4 5.5s-29.4-2.5-29.4-5.5 13.2-5.5 29.4-5.5"/><path class="st75" d="M343.5 420.2c-5.2-1-12.5-1.6-20.5-1.6s-15.3.6-20.5 1.6c-4.6.9-7 1.8-7 2.5 0 .8 2.4 1.7 7 2.5 5.2 1 12.5 1.6 20.5 1.6s15.3-.6 20.5-1.6c4.6-.9 6.8-1.7 6.8-2.5 0-.7-2.2-1.7-6.8-2.5m-20.5-4.4c8.2 0 15.6.6 21 1.6 6 1.1 9.7 3 9.7 5.3s-3.7 4.1-9.7 5.3c-5.4 1-12.9 1.6-21 1.6-8.2 0-15.6-.6-21-1.6-6-1.1-9.7-3-9.7-5.3s3.7-4.1 9.7-5.3c5.4-1 12.8-1.6 21-1.6z"/><path class="st12" d="M323.6 446.1c5.6 0 10.1 5 10.1 11.2 0 6.2-4.5 11.2-10.1 11.2s-10.1-5-10.1-11.2c-.1-6.2 4.5-11.2 10.1-11.2"/><path d="M327.5 444.5c-2.5 1.6-3.5 3.5-3.6 5.6-.2 2.3.6 4.9 1.3 7.5.6 2.2 1.1 4.4.7 6.7-.4 2.3-1.8 4.6-4.8 6.8l-1.5-2.1c2.4-1.7 3.5-3.4 3.8-5.1.3-1.8-.1-3.6-.7-5.5-.8-2.9-1.6-5.7-1.4-8.4.2-2.9 1.5-5.5 4.8-7.5l1.4 2z" style="fill:#eddebb"/><path d="M324.3 408.6c2.5 5.6 3.5 11.5.7 13.9-2.4 2-4.8.1-5-2.6-.2-2-.2-4.5-1.2-7.2-1.5-3.6-4.3-5.6-7.2-7.9-8.9-7.2-9.8-18.9-4-27.1 3.7-5.3 11-6.7 9.7-13.8-1.4-7.6-12.7-8.4-12.3-22.6.2-7.5 6.2-14.3 14.5-16.2 5.9-1.3 12.3.3 16.7 5.9 5.9 7.5 7.9 20.1 5 30.2-2.4 8.2-8.1 12.6-15.3 16.7-4.1 2.3-7.8 4.8-9.3 10.1-3 10.3 4.2 12.9 7.7 20.6" style="opacity:.12;fill-rule:evenodd;clip-rule:evenodd;fill:#fff"/><path class="st35" d="M106.5 233.4c1.2 0 2.1.9 2.1 2.1 0 1.2-.9 2.1-2.1 2.1-1.2 0-2.1-.9-2.1-2.1 0-1.1.9-2.1 2.1-2.1M170.8 213.6c.7 0 1.3.6 1.3 1.3 0 .7-.6 1.3-1.3 1.3-.7 0-1.3-.6-1.3-1.3 0-.7.6-1.3 1.3-1.3M206.1 287.6c.7 0 1.3.6 1.3 1.3 0 .7-.6 1.3-1.3 1.3-.7 0-1.3-.6-1.3-1.3 0-.8.6-1.3 1.3-1.3M245.6 300.2c.9 0 1.6.7 1.6 1.6 0 .9-.7 1.6-1.6 1.6-.9 0-1.6-.7-1.6-1.6 0-.9.7-1.6 1.6-1.6M172.6 441.1c.7 0 1.3.6 1.3 1.3 0 .7-.6 1.3-1.3 1.3-.7 0-1.3-.6-1.3-1.3 0-.7.5-1.3 1.3-1.3M360.6 387.1c1.2 0 2.1.9 2.1 2.1 0 1.2-.9 2.1-2.1 2.1-1.2 0-2.1-.9-2.1-2.1 0-1.1.9-2.1 2.1-2.1M410.2 495.8c1.1 0 2 .9 2 2s-.9 2-2 2-2-.9-2-2 .9-2 2-2M374.8 472c.7 0 1.2.6 1.2 1.2 0 .7-.6 1.2-1.2 1.2-.7 0-1.2-.6-1.2-1.2 0-.7.5-1.2 1.2-1.2M433 526.1c.7 0 1.2.6 1.2 1.2 0 .7-.6 1.2-1.2 1.2-.7 0-1.2-.6-1.2-1.2s.5-1.2 1.2-1.2M290 468.5c.8 0 1.4.6 1.4 1.4 0 .8-.6 1.4-1.4 1.4-.8 0-1.4-.6-1.4-1.4 0-.8.6-1.4 1.4-1.4M306.2 73.2c.8 0 1.5.7 1.5 1.5s-.7 1.5-1.5 1.5-1.5-.7-1.5-1.5.7-1.5 1.5-1.5M234 498.8c1.1 0 2 .9 2 2s-.9 2-2 2-2-.9-2-2 .9-2 2-2"/><path class="st7" d="M496.7 224.2c2 .8 3.9.6 4.3-.4.4-1-.8-2.5-2.8-3.3-2-.8-3.9-.6-4.3.4-.4 1 .9 2.5 2.8 3.3M506.8 304c-.5 1.8-.2 3.6.8 3.9 1 .3 2.2-1 2.7-2.8.5-1.8.2-3.6-.8-3.9-.9-.4-2.2.9-2.7 2.8M655.3 325.1c1.3.6 2.7.5 3-.2.3-.7-.5-1.7-1.8-2.3-1.3-.6-2.7-.5-3 .2-.3.7.5 1.7 1.8 2.3M622.9 487.9c-1.4.6-2.7 1.2-4 1.8.3-1.6.4-3.3.5-4.9 1.3-13.2 1.6-26.5 1.1-39.8-.6-15.4-2.5-29.1-5.6-41.2-.2-.9.3-1.9 1.3-2.1.9-.2 1.9.3 2.1 1.3 3.2 12.3 5.1 26.3 5.7 41.9.2 4.2.3 8.5.2 12.9 4.2-16.4 10.8-32.2 19.4-46.8.5-.8 1.6-1.1 2.4-.6.8.5 1.1 1.6.6 2.4-13.4 22.6-21.6 47.7-23.7 73.9v1.2m-11.9 2.5c-1.2-15.6-7.5-28.6-20.5-37.9-.8-.6-1-1.7-.4-2.4.6-.8 1.7-1 2.4-.4 13.9 9.8 20.7 23.7 22 40.4 0 .4.1.8.1 1.3-1.2.5-2.4.9-3.6 1.4.1-.6.1-1.4 0-2.4z"/><path class="st6" d="M597 462.3c9.2-7.2 16.3-17.6 13.9-28.7-2.2-10.4-12.1-16.3-22.7-10.3.9-8.6-6.2-11.9-14.3-11.1-24.3 2.4-29.3 30.7-19.4 49.7 3 6.2 4.9 11.6 5.6 16.1.5 3.3 2.5 3.6 5.9.8 9.9-8.3 19.9-7.8 31-16.5"/><defs><filter id="Adobe_OpacityMaskFilter_24_" filterUnits="userSpaceOnUse" x="578.3" y="420.9" width="33.1" height="50.9"><feColorMatrix values="1 0 0 0 0 0 1 0 0 0 0 0 1 0 0 0 0 0 1 0"/></filter></defs><mask maskUnits="userSpaceOnUse" x="578.3" y="420.9" width="33.1" height="50.9" id="SVGID_49_"><g style="filter:url(#Adobe_OpacityMaskFilter_24_)"><linearGradient id="SVGID_50_" gradientUnits="userSpaceOnUse" x1="-196.456" y1="708.92" x2="-163.594" y2="696.089" gradientTransform="translate(788.422 -261.462)"><stop offset="0" style="stop-color:#000"/><stop offset="1" style="stop-color:#fff"/></linearGradient><path style="fill:url(#SVGID_50_)" d="M578.3 420.9h33.1v50.9h-33.1z"/></g></mask><path d="M597 462.3c9.2-7.2 16.3-17.6 13.9-28.7-2-9.7-10.7-15.4-20.4-11.5-16.4 18.9 10 28.4-12.3 49.6 6.1-2.3 12.2-4.2 18.8-9.4" style="mask:url(#SVGID_49_);fill-rule:evenodd;clip-rule:evenodd;fill:#3b9999"/><path class="st6" d="M646 423.8c-6.8-5.6-12.1-12.9-11.1-21.4.9-8.1 9.4-12.2 21.4-7.8-7.6-11.9 1.6-21.3 13.6-18.1 21.5 5.7 27.2 33.5 21.3 55l-.3 1.2c-3.2 4.3-6.9 8.9-11.1 13.6 0 0-.4-.5-1.3-1.6-7.9-9.4-22.4-12.5-32.5-20.9M643.4 475c-3.2-5.9-4.3-12.7-1.3-18.8 3.6-7.4 12-10 18.5-3.9 1.1-6.5 6.9-7.8 12.6-5.9.8.3 1.6.6 2.3.9 1.5.7 2.2 1.1 2.2 1.1-10 10.6-21.1 19.9-33.4 27.7-.3-.2-.6-.6-.9-1.1"/><path class="st6" d="M625.4 409.6c7.6-5.7 13.3-14.3 11.6-24-1.7-9.2-9.6-14.8-18.3-10.3.8-7.4-4.9-10.7-11.5-10.5-19.7.7-24 24.9-16.2 41.8 2.4 5.5 3.9 10.3 4.4 14.2.4 2.9 2 3.3 4.8 1.1 8.1-6.4 16.2-5.4 25.2-12.3"/><defs><filter id="Adobe_OpacityMaskFilter_25_" filterUnits="userSpaceOnUse" x="606.7" y="373.7" width="30.6" height="44.4"><feColorMatrix values="1 0 0 0 0 0 1 0 0 0 0 0 1 0 0 0 0 0 1 0"/></filter></defs><mask maskUnits="userSpaceOnUse" x="606.7" y="373.7" width="30.6" height="44.4" id="SVGID_51_"><g style="filter:url(#Adobe_OpacityMaskFilter_25_)"><linearGradient id="SVGID_52_" gradientUnits="userSpaceOnUse" x1="-206.983" y1="707.395" x2="-173.353" y2="709.837" gradientTransform="translate(815.403 -312.449)"><stop offset="0" style="stop-color:#000"/><stop offset="1" style="stop-color:#fff"/></linearGradient><path style="fill:url(#SVGID_52_)" d="M606.7 373.7h30.6v44.4h-30.6z"/></g></mask><path d="M625.4 409.6c7.6-5.7 13.3-14.3 11.6-24-1.6-8.6-8.7-14.1-16.8-10.9-12.2 17.5 5.7 27.6-13.5 43.5 5.9-2.7 12.1-3.5 18.7-8.6" style="mask:url(#SVGID_51_);fill-rule:evenodd;clip-rule:evenodd;fill:#3b9999"/><defs><filter id="Adobe_OpacityMaskFilter_26_" filterUnits="userSpaceOnUse" x="656.1" y="375.9" width="37.3" height="50.9"><feColorMatrix values="1 0 0 0 0 0 1 0 0 0 0 0 1 0 0 0 0 0 1 0"/></filter></defs><mask maskUnits="userSpaceOnUse" x="656.1" y="375.9" width="37.3" height="50.9" id="SVGID_53_"><g style="filter:url(#Adobe_OpacityMaskFilter_26_)"><linearGradient id="SVGID_54_" gradientUnits="userSpaceOnUse" x1="-192.825" y1="717.109" x2="-173.394" y2="674.1" gradientTransform="translate(862.379 -304.228)"><stop offset="0" style="stop-color:#000"/><stop offset="1" style="stop-color:#fff"/></linearGradient><path style="fill:url(#SVGID_54_)" d="M656.1 375.9h37.3v50.9h-37.3z"/></g></mask><path d="M686 416c-1.1 2.3-1.1 4.9.2 7.1 1.3 2.2 3.6 3.6 6.1 3.6 1-5.2 1.3-10.5 1-15.8-.3-4.7-1.2-9.4-2.8-13.9-1.8-5.1-4.3-9.3-7.4-12.7-3.6-3.9-8-6.5-13.2-8-2.8-.8-5.8-.8-8.7-.1-3.6 1.2-5.7 4.9-5 8.6.7 3.7 4 6.4 7.7 6.3 6.9-.5 14.2 0 19 5.3 4.8 5.5 6 13.1 3.1 19.6" style="mask:url(#SVGID_53_);fill-rule:evenodd;clip-rule:evenodd;fill:#3b9999"/><defs><filter id="Adobe_OpacityMaskFilter_27_" filterUnits="userSpaceOnUse" x="640.3" y="448.9" width="18.5" height="24.1"><feColorMatrix values="1 0 0 0 0 0 1 0 0 0 0 0 1 0 0 0 0 0 1 0"/></filter></defs><mask maskUnits="userSpaceOnUse" x="640.3" y="448.9" width="18.5" height="24.1" id="SVGID_55_"><g style="filter:url(#Adobe_OpacityMaskFilter_27_)"><linearGradient id="SVGID_56_" gradientUnits="userSpaceOnUse" x1="-195.435" y1="733.614" x2="-199.814" y2="710.647" gradientTransform="translate(847.345 -260.261)"><stop offset="0" style="stop-color:#000"/><stop offset="1" style="stop-color:#fff"/></linearGradient><path style="fill:url(#SVGID_56_)" d="M640.3 448.9h18.5V473h-18.5z"/></g></mask><path d="M642.2 472.6c-2.2-5.3-2.8-11-.2-16.3 3.3-6.7 10.6-9.5 16.8-5.3-2.7 4.8-4.5 10-5.3 15.4-2.1 5.4-6 7.7-11.3 6.2" style="mask:url(#SVGID_55_);fill-rule:evenodd;clip-rule:evenodd;fill:#004545"/><defs><filter id="Adobe_OpacityMaskFilter_28_" filterUnits="userSpaceOnUse" x="587.4" y="365" width="22.5" height="58.5"><feColorMatrix values="1 0 0 0 0 0 1 0 0 0 0 0 1 0 0 0 0 0 1 0"/></filter></defs><mask maskUnits="userSpaceOnUse" x="587.4" y="365" width="22.5" height="58.5" id="SVGID_57_"><g style="filter:url(#Adobe_OpacityMaskFilter_28_)"><linearGradient id="SVGID_58_" gradientUnits="userSpaceOnUse" x1="-189.982" y1="697.206" x2="-209.633" y2="707.384" gradientTransform="translate(797.087 -307.391)"><stop offset="0" style="stop-color:#000"/><stop offset="1" style="stop-color:#fff"/></linearGradient><path style="fill:url(#SVGID_58_)" d="M587.4 365h22.5v58.5h-22.5z"/></g></mask><path d="M605.8 365c-18.5 1.7-22.4 25.2-14.8 41.8 2.4 5.5 3.9 10.3 4.4 14.2.4 2.9 2 3.3 4.8 1.1 3.2-2.6 6.4-4 9.7-5.2-6-7.1-9.8-16.1-10.4-26.1-.6-9.4 1.8-18.4 6.3-25.8" style="mask:url(#SVGID_57_);fill-rule:evenodd;clip-rule:evenodd;fill:#004545"/><defs><filter id="Adobe_OpacityMaskFilter_29_" filterUnits="userSpaceOnUse" x="634.8" y="393" width="49.2" height="52.5"><feColorMatrix values="1 0 0 0 0 0 1 0 0 0 0 0 1 0 0 0 0 0 1 0"/></filter></defs><mask maskUnits="userSpaceOnUse" x="634.8" y="393" width="49.2" height="52.5" id="SVGID_59_"><g style="filter:url(#Adobe_OpacityMaskFilter_29_)"><linearGradient id="SVGID_60_" gradientUnits="userSpaceOnUse" x1="-173.472" y1="700.899" x2="-196.692" y2="712.877" gradientTransform="translate(842.12 -286.42)"><stop offset="0" style="stop-color:#000"/><stop offset="1" style="stop-color:#fff"/></linearGradient><path style="fill:url(#SVGID_60_)" d="M634.8 393H684v52.5h-49.2z"/></g></mask><path d="M646 423.8c-6.8-5.6-12.1-12.9-11.1-21.4.6-5 4-8.5 9.5-9.4 6.2 3.3 7.7 10.1 9.4 17.1 3.8 15 15.8 24.1 30.2 28-.7 1-1.3 2.1-1.9 3.2-.2.3-.4.6-.5.9-.1.2-.3.3-.4.5-.7.8-1.4 1.7-2 2.7-7.7-9.9-22.8-12.9-33.2-21.6" style="mask:url(#SVGID_59_);fill-rule:evenodd;clip-rule:evenodd;fill:#004545"/><path class="st6" d="M609.2 451c-1.9-5.3-2.2-11.1 1.7-15.4 3.8-4.1 10.6-3.6 16.3 2.8 0-9 9.5-11.1 15.6-5.4 13.5 12.7-1.4 35.9-18.2 42.6-2.6 1.2-3.8.7-3.6-1.7-.7-8-8.8-14.7-11.8-22.9"/><defs><filter id="Adobe_OpacityMaskFilter_30_" filterUnits="userSpaceOnUse" x="607.8" y="433" width="25.8" height="43.3"><feColorMatrix values="1 0 0 0 0 0 1 0 0 0 0 0 1 0 0 0 0 0 1 0"/></filter></defs><mask maskUnits="userSpaceOnUse" x="607.8" y="433" width="25.8" height="43.3" id="SVGID_61_"><g style="filter:url(#Adobe_OpacityMaskFilter_30_)"><linearGradient id="SVGID_62_" gradientUnits="userSpaceOnUse" x1="-180.579" y1="716.108" x2="-224.219" y2="703.772" gradientTransform="translate(816.528 -257.128)"><stop offset="0" style="stop-color:#000"/><stop offset="1" style="stop-color:#fff"/></linearGradient><path style="fill:url(#SVGID_62_)" d="M607.8 433h25.8v43.3h-25.8z"/></g></mask><path d="M609.2 451c-1.9-5.3-2.2-11.1 1.7-15.4 1.6-1.7 3.6-2.6 5.9-2.6 5.5 6.5-7.4 28.8 16.7 37.4-2.8 2.2-5.9 4-9 5.3-2.6 1.2-3.8.7-3.6-1.7-.6-8.1-8.7-14.8-11.7-23" style="mask:url(#SVGID_61_);fill-rule:evenodd;clip-rule:evenodd;fill:#004545"/><defs><filter id="Adobe_OpacityMaskFilter_31_" filterUnits="userSpaceOnUse" x="628.9" y="429.9" width="19.2" height="38"><feColorMatrix values="1 0 0 0 0 0 1 0 0 0 0 0 1 0 0 0 0 0 1 0"/></filter></defs><mask maskUnits="userSpaceOnUse" x="628.9" y="429.9" width="19.2" height="38" id="SVGID_63_"><g style="filter:url(#Adobe_OpacityMaskFilter_31_)"><linearGradient id="SVGID_64_" gradientUnits="userSpaceOnUse" x1="-204.091" y1="715.899" x2="-182.208" y2="709.173" gradientTransform="translate(836.519 -265.12)"><stop offset="0" style="stop-color:#000"/><stop offset="1" style="stop-color:#fff"/></linearGradient><path style="fill:url(#SVGID_64_)" d="M628.9 429.9h19.2v38h-19.2z"/></g></mask><path d="M628.9 432.9c3-4 9.4-4.1 13.9.2 10.1 9.5 4.3 24.9-6.3 34.8 11.6-23.8-7.7-19.6-7.6-35" style="mask:url(#SVGID_63_);fill-rule:evenodd;clip-rule:evenodd;fill:#3b9999"/><defs><filter id="Adobe_OpacityMaskFilter_32_" filterUnits="userSpaceOnUse" x="549.8" y="412.8" width="30.1" height="67.8"><feColorMatrix values="1 0 0 0 0 0 1 0 0 0 0 0 1 0 0 0 0 0 1 0"/></filter></defs><mask maskUnits="userSpaceOnUse" x="549.8" y="412.8" width="30.1" height="67.8" id="SVGID_65_"><g style="filter:url(#Adobe_OpacityMaskFilter_32_)"><linearGradient id="SVGID_66_" gradientUnits="userSpaceOnUse" x1="-180.394" y1="698.323" x2="-225.802" y2="702.428" gradientTransform="translate(761.335 -253.082)"><stop offset="0" style="stop-color:#000"/><stop offset="1" style="stop-color:#fff"/></linearGradient><path style="fill:url(#SVGID_66_)" d="M549.8 412.8h30.1v67.8h-30.1z"/></g></mask><path d="M570 412.8c-20.8 4.9-24.8 31.2-15.4 49 3 6.2 4.9 11.6 5.6 16.1.5 3.3 2.5 3.6 5.9.8 4.5-3.8 9.1-5.7 13.8-7.6-17-13.6-21.9-37.9-10.6-57.2.2-.3.4-.7.7-1.1" style="mask:url(#SVGID_65_);fill-rule:evenodd;clip-rule:evenodd;fill:#004545"/></svg>