<svg version="1.1" id="Layer_1" xmlns="http://www.w3.org/2000/svg" x="0" y="0" viewBox="0 0 800 625" style="enable-background:new 0 0 800 625" xml:space="preserve"><style>.st10,.st11,.st12,.st13,.st14,.st8,.st9{fill-rule:evenodd;clip-rule:evenodd;fill:#fcfaff}.st10,.st11,.st12,.st13,.st14,.st9{fill:#ffc9c9}.st10,.st11,.st12,.st13,.st14{fill:#f08282}.st11,.st12,.st13,.st14{fill:#ebe6f2}.st12,.st13,.st14{fill:#7d60ab}.st13,.st14{fill:#a793c9}.st14{fill:#7962a1}.st15,.st16,.st21,.st22,.st24,.st27{fill-rule:evenodd;clip-rule:evenodd;fill:#fff}.st16,.st21,.st22,.st24,.st27{fill:#5a3791}.st21,.st22,.st24,.st27{fill:#29114f}.st22,.st24,.st27{fill:#ed7171}.st24,.st27{fill:#1d1726}.st27{fill:#a62e2e}.st58{fill:#fff}</style><path d="M733.5 291.2c-24.3-144.1-105.2-216.8-187.9-175-70 35.6-154.4 27.1-216-21.7-40.6-31.3-86-37.1-136.2-17.2C59.3 131.4 26.6 207 95.3 304.2c24.9 37.5 30.3 74.3 16.2 110.6-12.9 33-3 68.1 36 102.5 76 65.8 164.4 77.9 264.4 31.4 73.2-34.2 135.9-50.4 188.4-50.7 116.1-.1 155.8-74.6 133.2-206.8" style="fill-rule:evenodd;clip-rule:evenodd;fill:#f6f0ff"/><defs><filter id="Adobe_OpacityMaskFilter" filterUnits="userSpaceOnUse" x="60.4" y="65.7" width="679.1" height="510.9"><feColorMatrix values="1 0 0 0 0 0 1 0 0 0 0 0 1 0 0 0 0 0 1 0"/></filter></defs><mask maskUnits="userSpaceOnUse" x="60.4" y="65.7" width="679.1" height="510.9" id="SVGID_1_"><g style="filter:url(#Adobe_OpacityMaskFilter)"><linearGradient id="SVGID_2_" gradientUnits="userSpaceOnUse" x1="-311.285" y1="349.112" x2="286.733" y2="739.255" gradientTransform="translate(350.812 -263.124)"><stop offset="0" style="stop-color:#000"/><stop offset="1" style="stop-color:#fff"/></linearGradient><path style="fill:url(#SVGID_2_)" d="M60.4 65.7h679.1v510.9H60.4z"/></g></mask><path d="M733.5 291.2c-24.3-144.1-105.2-216.8-187.9-175-70 35.6-154.4 27.1-216-21.7-40.6-31.3-86-37.1-136.2-17.2C59.3 131.4 26.6 207 95.3 304.2c24.9 37.5 30.3 74.3 16.2 110.6-12.9 33-3 68.1 36 102.5 76 65.8 164.4 77.9 264.4 31.4 73.2-34.2 135.9-50.4 188.4-50.7 116.1-.1 155.8-74.6 133.2-206.8" style="mask:url(#SVGID_1_);fill-rule:evenodd;clip-rule:evenodd;fill:#b697e8"/><path d="M223.6 153.8c8.3 0 15.5 4.3 19.7 10.7 0 .1.1.1.1.2.1.1.1.2.2.3.1.1.1.2.2.3 2 3.5 3.2 7.5 3.2 11.8 0 13-10.6 23.6-23.6 23.6-10.4 0-19.2-6.7-22.3-16.1 0-.1-.1-.3-.1-.4-.7-2.2-1.1-4.6-1.1-7.1.1-12.8 10.7-23.3 23.7-23.3" style="fill-rule:evenodd;clip-rule:evenodd;fill:#350777"/><defs><filter id="Adobe_OpacityMaskFilter_1_" filterUnits="userSpaceOnUse" x="200" y="153.8" width="47.1" height="47.1"><feColorMatrix values="1 0 0 0 0 0 1 0 0 0 0 0 1 0 0 0 0 0 1 0"/></filter></defs><mask maskUnits="userSpaceOnUse" x="200" y="153.8" width="47.1" height="47.1" id="SVGID_3_"><g style="filter:url(#Adobe_OpacityMaskFilter_1_)"><linearGradient id="SVGID_4_" gradientUnits="userSpaceOnUse" x1="-242.747" y1="712.15" x2="-210.421" y2="728.111" gradientTransform="translate(454.014 -540.867)"><stop offset="0" style="stop-color:#000"/><stop offset="1" style="stop-color:#fff"/></linearGradient><path style="fill:url(#SVGID_4_)" d="M200 153.8h47.1v47.1H200z"/></g></mask><path d="M223.6 153.8c8.3 0 15.5 4.3 19.7 10.7 0 .1.1.1.1.2.1.1.1.2.2.3.1.1.1.2.2.3 2 3.5 3.2 7.5 3.2 11.8 0 13-10.6 23.6-23.6 23.6-10.4 0-19.2-6.7-22.3-16.1 0-.1-.1-.3-.1-.4-.7-2.2-1.1-4.6-1.1-7.1.1-12.8 10.7-23.3 23.7-23.3" style="mask:url(#SVGID_3_);fill-rule:evenodd;clip-rule:evenodd;fill:#8b6bbf"/><path class="st8" d="M132.8 247.3c10.7 0 19.4 8.7 19.4 19.4s-8.7 19.4-19.4 19.4-19.4-8.7-19.4-19.4 8.7-19.4 19.4-19.4M467.6 473.9c-4.9-12.7-7.3-19-7.3-19-28.6-9.1-59.6 3.2-74.3 29.3-18.3 33.1-57.7 48.2-93.4 35.8-35.7-12.4-57.2-48.8-50.9-86.1 6.3-37.3 38.5-64.6 76.3-64.7 36.5 6.6 73.1-10.8 91-43.3 12.3-21.5 34.6-35.4 59.3-37.1 24.7-1.7 48.6 9.1 63.7 28.8 25.8 39 76.2 53.4 118.8 34 7.7-3.8 15.5-2.6 20.8 3.2 5.3 5.8 6 14.5 1.5 21s-12.9 9-20.2 6c0 0 4.6 4 13.7 12 11-1 20.6-8.2 24.6-18.6 4-10.3 1.8-22.1-5.7-30.3s-19-11.4-29.6-8.4c-30.9 7.1-55.5-4.6-73.9-35.3-23.7-25.8-57.3-40.2-92.3-39.6-35 .6-68.1 16.1-90.9 42.7-22.2 27.6-49.5 37.8-81.9 30.8-55.7-10.6-110.3 23.1-125.9 77.6-15.6 54.5 12.9 111.9 65.8 132.4s112.6-2.7 137.9-53.5c5.9-13.6 17.7-23.6 32.1-27.1 14.2-3.4 29.4.1 40.8 9.4"/><path class="st9" d="M324.4 421.7c3.6-12.6 5.3-19 5.3-19a63.43 63.43 0 0 0-40.1-35.8c-7.1-1.4-17 .1-23.1 6-13 11.5-7.8 22.7 4 24.3 36.2 2.3 46.2 17.2 33.4 20.7-5.1 1.3-10.4.9-15.3-.6-2.3-1-5-.2-6.4 1.9-1.4 2.1-1 4.9.8 6.6 12.9 9.1 30.5 7.3 41.4-4.1"/><path class="st10" d="M305.1 417.6c-4 1.2-8.1 1.5-12.3.8 5.3 3.7 12 5.2 18.4 4.1 6.4-1.1 12.1-4.8 15.9-10.2-10.5-17-29.3-22-56.6-15 11.8.5 22.3 3 31.5 7.5 5.2 3 7.5 6 7.1 8.9-.3 1.6-1.6 2.9-4 3.9"/><path class="st11" d="M512.6 461.4c30.9-32.5 39.2-49.3 39.2-49.3s-18-12.2-59.5-27.1c-11.4 19.1-17.2 28.6-17.2 28.6-2.8 4.4-7.6 6.3-13.8 4.7-93.7-21.9-140.6-32.8-140.6-32.8-2.8 27.1 3.4 33.6-2.6 50.9 87.1 22.3 130.7 33.5 130.7 33.5 33.3 8.1 47.7 8.6 63.8-8.5"/><path class="st12" d="M445.4 396.4c31.7 20.4 52.8 33.2 61.7 39.2 0 0 13.3-22.1 30.8-52 8.8-14.2 4.9-32.1-7.8-42.4-12.7-10.3-33.1-11-43.1 1.3-24.2 30.8-41.6 53.9-41.6 53.9"/><path class="st13" d="m513.8 407.6 19.5 8.8c-1.9 2.4-3.4 5.2-4.2 8.3l-.1.4c-.6 1.1-1.2 2.2-1.7 3.4-.3.6-.7 1.2-1 1.8-.5.9-.9 1.8-1.3 2.8-.3.7-.4 1-.7 1.5-.8 1.1-1.4 2.4-2 3.7-.8 1.3-1.6 2.6-2.1 4-1 1.1-1.8 2.3-2.5 3.6-.4.5-.7 1-1 1.5-.5.4-.9.9-1.3 1.4-.3.4-.7.8-1 1.2l-.4.5c-.8.7-1.6 1.4-2.3 2.2-.4.3-.8.6-1.1 1-1.2.8-2.3 1.6-3.4 2.6-.5.3-.9.7-1.4 1l-2.6 1.5c-1 .6-1.9 1.2-2.7 1.9l-3.5 2.1c-3 .7-5.9 2.1-8.4 4-10.2 1.6-23 .1-38.4-4.5l-122.3-30.4c1.6-3.3 2-7 1.3-11.3l122 24c18 2.8 30.5.3 37.5-7.5l25.1-29.5z"/><path class="st14" d="m524.3 401.8 13.1 3.6c-7.8 14.7-16.5 28.8-25.9 42.2-4.7 6.9-12.1 11.5-22 13.8l34.8-59.6z"/><path class="st15" d="M489.1 399.5c6.5 3.5 10.3 4.9 10.3 4.9s-5 8-11.9 19.7c-5.9 9.4-18.2 12.8-30 9.9 0 0-43.8-10.8-131.5-32.4-.2-3.1-.2-6.3.1-9.6L459 422.9c9.1 2.2 15.8.2 20-6l10.1-17.4z"/><path class="st16" d="M435.6 537.9c20.3-8.6 39.3-15.6 57.5-21.3 4.3-25.2 21.9-46 45.3-54.8 4.2-2 8.7-3.7 13.3-4.8 5.1-2.1 10.5-3.7 16.1-4.6l.3-.2c2.9-2 6-3.8 9.1-5.4l3.6-1.8c5.2-3.7 10.8-6.6 16.6-8.7 1.6-3.6 3.4-7 5.5-10.2.7-1.5 1.5-3.1 2.3-4.5.7-1.7 1.6-3.3 2.4-4.9 2-4.3 4.4-8.5 7.1-12.3 1.8-4.5 4.1-8.7 6.7-12.6.3-.9.6-1.7.9-2.6.2-.8.5-1.6.8-2.3.7-2.3 1.5-4.5 2.5-6.7l2.1-5.2c.5-1.6 1-3.2 1.6-4.8 1.2-3.6 2.7-7.1 4.4-10.3l1.8-3.6c-.6-.7-1.3-1.4-1.9-2.1L560.3 338c-34-2.4-57.7 2-62.9 16.8l-14.1 41.7c3.5 6.6 5.5 14.2 5.5 22.2 0 19.2-11.3 35.7-27.7 43.3l-25.5 75.9z"/><path class="st9" d="M425.8 350.3c-9.4 16.5-14.2 24.8-14.2 24.8s-2.5-2.5-7.5-7.4c-8.8-3.2-13.4-12.5-13.6-27.7-5-6.8-13.5-10.7-23.3-10.8-7.5-.1-5.9-11.1 2.1-26.3 3.6-7 7.7-9.2 15.7-10.5 10.2-1.5 19.7 1.3 25.5 7.5-.5-9.3-4.9-17.4-12.2-22.9-1.4-.9-1.3-2.9-.3-4.4 1.1-1.6 3.2-2.9 4.9-2.3 16.6 7.1 23.9 24 18.1 42 0-.1 1.6 12.6 4.8 38"/><path class="st10" d="m414.8 359.5-2.6 3.3c.3.4.5.9.5 1.5.2 1.7-.8 3.3-2.4 3.9 0 0-1.6-1.6-4.8-4.7-6.3-2.5-9.8-10.5-10.4-23.8-3-7.5-11.7-11.9-26.1-13.2 11-5.4 24.2-3.7 33.5 4.3 4.8 17.9 8.9 27.4 12.3 28.7"/><path d="M584.2 319.8c18.3-11.7 32.7-20.1 43.4-25.1-1.3 1.5-2.4 3.1-3.3 4.9-.3.7-.7 1.3-1 2-.7 1.3-1.3 2.8-1.7 4.2-.4.9-.8 1.7-1.1 2.7l-.1.2c-.5.9-1 1.9-1.4 3-.8 1.4-1.4 3-1.9 4.6-.1.3-.2.6-.3 1-.9 2.5-1.4 5.2-1.4 8v10.4c0 3.8.8 7 2.4 10.4 1.2 2.6 2.7 4.8 4.7 6.8-.6.2-1.2.4-1.9.6-.6.2-1.3.4-1.9.7-.8.2-1.6.5-2.4.8-1 .3-2.1.7-3 1.1-.5.2-1.1.4-1.6.6-.6.2-1.2.4-1.9.7-1.5.4-2.9.9-4.3 1.6-.4.1-.8.3-1.2.4-.4.1-.7.2-1.1.3-.8.2-1.5.4-2.2.6-.9.2-1.7.5-2.5.7-1.3.1-2.6.4-3.9.7-1.5-.3-3.1-.5-4.7-.5-.3-.1-.6-.1-.9-.1-.9-.2-1.8-.3-2.6-.4-.6-.1-1.3-.2-1.9-.3-.5-.1-.9-.2-1.4-.3l-.7-.2c-.3-.1-.5-.2-.8-.4-.3-.2-.6-.4-1-.5-.6-.5-1.2-1-1.9-1.4-.6-.6-1.3-1.1-1.9-1.6-.9-.8-1.9-1.5-2.9-2.2-.3-.2-.6-.5-.9-.7-1.8-1.6-3.9-2.9-6-3.8-.5-.3-1-.5-1.5-.8.4-3.7 0-7.5-1.4-11l9-1.3 11.1-16.4z" style="fill-rule:evenodd;clip-rule:evenodd;fill:#fcb6b6"/><path d="m626.3 284.8-44.9 34 34.9 38.3c2.3-1.7 4.8-2.9 7.4-3.6l.1-.1c1-.5 2-.9 3-1.2h.1c.4-.9.9-1.8 1.4-2.7l-6.1-5.7 4.8-10.4c32.9-46.3 32.7-62.5-.7-48.6" style="fill-rule:evenodd;clip-rule:evenodd;fill:#e66c6c"/><path d="M591.1 324.7c-11.9-11.4-12.4-30.3-1.1-42.3 11.3-12 30.2-12.6 42.3-1.4 12.1 11.3 12.8 30.2 1.7 42.3 0 0-14.3.5-42.9 1.4" style="fill-rule:evenodd;clip-rule:evenodd;fill:#c73737"/><path class="st9" d="M617.6 221.5c29.1 47 18.1 49.7-32.9 8.2 7.9-9.7 21.3-13 32.9-8.2M565.3 261c14.1-9.3 32.9-7.4 44.9 4.5s11.8 27.6 2.7 41.8c-2.6 6.8-9.9 14.2-15.9 16-11.9 3.5-29.1 4-40.1 3.6-6.5-.3-11.9-4.5-13.4-10.7-1.5-6.2 1.4-12.7 7.1-15.7 4.8-24 9.7-37.1 14.7-39.5z"/><path d="M615.9 224c.5.9 1 1.7 1.5 2.5-.7-.3-1.4-.5-2.2-.7-8.8-2.2-17.7 2.7-20.8 11.2-.3.6-.5 1.1-.7 1.7-2.7-2.1-5.6-4.5-8.6-6.9 7.5-9.3 20-12.4 30.8-7.8M567 261.3c5.2-3.4 11-5.3 16.9-5.5-18.1 34.4-38.4 58.9-26.9 67.5-5.1-1-9.1-4.7-10.4-9.9-1.4-5.9 1.3-12 6.6-14.8 4.6-22.6 9.2-35.1 13.8-37.3z" style="fill-rule:evenodd;clip-rule:evenodd;fill:#fff7f7"/><path class="st10" d="M619.9 228c18.2 30.8 15 37.9-9.6 21.4 4.7-6.2 8-13.5 9.6-21.4m-18.6 30.7c2.7 1.5 5.3 3.4 7.6 5.7 11.7 11.5 11.4 26.7 2.6 40.5-2.5 6.6-9.6 13.7-15.4 15.5-11.2 3.3-27.3 3.9-38 3.5 4.1-1.5 8-3.5 11.6-6l.5-.3c18.1-12 26.3-33.3 22.6-53.4 3-1.5 5.9-3.4 8.5-5.5z"/><path class="st16" d="M638.4 293.7c.6-7-1.4-12.8-7.1-18.5l-14.4 14.2c-5.6 8.7-9.1 19.8-16.5 27-1.9 1.9-2.9 2.2-5.8 1.2 0 0-3.1-.8-6.7-4.3-1.5-1.6.6-3.2 2.8-5.5 10.6-11.5 13.3-27.9 14.5-38.4 0-.2 0-.5.1-.7 4.3-3.2 7.8-7.3 10.3-12.1.6-.2 1.2-.3 1.8-.4 9.8-2.4 12.9-7 8-11.5-2.1-2-4-4-5.8-6.3-.1-2.3-.5-4.7-1.1-6.9.8-2.9 1.2-5.9 1.2-8.9v-9.4c.8-.6 1.5-1.1 2.2-1.8 1.3-.9 2.5-1.9 3.7-2.9.2-.1.4-.3.6-.5 2.8-2 5.3-4.4 7.3-7 2.5-2.4 4.6-5.2 6.3-8.1l.6-.6h2.3c.6.1 1.1.2 1.7.2.3.1.7.2 1 .3.3.1.7.2 1 .3.9.3 1.9.6 2.8.8 1.3.5 2.6.9 3.9 1.2.6.1 1.1.3 1.7.4 1.5.6 3 1.1 4.5 1.4 2.2.8 4.4 1.4 6.7 1.7.9 1.3 1.7 2.7 2.4 4.2 2.4 5.5.9 6.5-4.6 2.9-4.8-2.7-10.8-1.1-13.6 3.6-2.8 4.7-1.2 10.3 3.5 13.6 25.5 17.4 38.8 32.8 38.5 47.3-1.9 2.6-3.5 5.5-4.6 8.7-.6 1.1-1.2 2.3-1.7 3.4-.8 1.4-1.4 2.8-2 4.3l-1.2 1.2c-.4.3-.7.6-1.1.9-.9.6-1.8 1.1-2.6 1.8-2.3.9-4.4 2.1-6.5 3.5l-.7.4c-1.4.7-2.8 1.5-4.1 2.4-1.2.8-2.4 1.6-3.5 2.4h-.1c-5.5-3.6-12.2-5.8-19.3-5.8h-.4c-2.1-.2-4.1 0-6 .3"/><path class="st21" d="M686.6 285.4c-35.5 48-71.9 60.9-59.7 38.9 8.7-17.3 13.6-28.9 10.9-38.7.5-.7 1-1.5 1.5-2.2 1.1-1.4 2.2-2.8 3.1-4.3l.2-.3c2.4 1.5 5 2.8 7.8 3.7 16.2 5.4 33.5-1.6 41.7-15.9.8 6.4-1 12.6-5.5 18.8"/><path class="st22" d="m574.9 260.6-9 11.7c2.2-.6 4.6.4 5.6 2.5 1.1 2 .6 4.5-1.2 6-1.8 1.5-4.3 1.5-6.1.1-1.8-3-4.7-3.8-8.8-2.4-4.6 1-12.1-7.9-1.3-14.5 0 0 3.1-2.7 9.2-8.1 8.1 3.4 11.6 4.7 11.6 4.7"/><path class="st9" d="M617.3 281.2c-15.8 33.7-8.9 40.1 20.6 19.2 5.9-4.2 8.4-9.5 7.2-15.7-1.2-6.2-6.3-11-12.6-11.8-6.4-.7-12.5 2.6-15.2 8.3"/><path class="st22" d="M620.6 284.3c-9.9 21.1-5.6 25.1 12.9 12 3.7-2.6 5.3-5.9 4.5-9.8-.8-3.9-4-6.9-7.9-7.4-3.9-.5-7.8 1.6-9.5 5.2"/><path class="st15" d="M619.8 286.5c-7.2 11.6-4.9 14.2 6.7 7.8 2.3-1.3 3.5-3.1 3.3-5.4-.2-2.3-1.8-4.3-4.1-4.8s-4.7.5-5.9 2.4z"/><path d="M619.8 286.5c-7.2 11.6-4.9 14.2 6.7 7.8 2.3-1.3 3.5-3.1 3.3-5.4-.2-2.3-1.8-4.3-4.1-4.8s-4.7.5-5.9 2.4z" style="fill:none;stroke:#000;stroke-width:.6321;stroke-miterlimit:22.9256"/><path class="st24" d="M620.2 276.4c8.7 0 15.7 7 15.7 15.7s-7 15.7-15.7 15.7-15.7-7-15.7-15.7 7.1-15.7 15.7-15.7"/><path d="M620.2 282.6c5.3 0 9.5 4.3 9.5 9.5 0 5.3-4.3 9.5-9.5 9.5-5.3 0-9.5-4.3-9.5-9.5s4.3-9.5 9.5-9.5" style="fill-rule:evenodd;clip-rule:evenodd;fill:#4b405c"/><path class="st24" d="m563.9 220.1 47.6 17.9c7.3 2.6 12.7 8.9 14 16.5 1.3 7.6-1.6 15.4-7.6 20.3s-14.2 6.1-21.4 3.2l-47.6-17.9c-2.7-1-4.1-4.1-3.1-6.8l11.3-30.2c1-2.6 4.1-4 6.8-3"/><path d="m564.6 221.4.6-.2c.6.1 1.3.2 1.9.3l.8.3c1.3.5 2.7.8 4 1 1.2.5 2.3.8 3.5 1l1.7.3c.8.2 1.5.5 2.3.7l.6.3c1.6.7 3.2 1.1 4.8 1.3h.2c2.1.7 4.2 1.1 6.3 1.1h2.8c1.1 0 2.1-.1 3.1-.3l12.1 4.5c7.3 2.6 12.7 8.9 14 16.5 1.3 7.6-1.6 15.4-7.6 20.3s-14.2 6.1-21.4 3.2L546.5 254c-2.7-1-4.1-4.1-3.1-6.8l4.3-11.5c3.8-.6 7.3-2.4 9.9-5l.5-.5c1.4-1.3 2.5-2.9 3.4-4.6.5-.6.9-1.2 1.2-1.9.2-.3.5-.6.7-.9.5-.4.9-.8 1.2-1.4" style="fill-rule:evenodd;clip-rule:evenodd;fill:#4a3e5c"/><path class="st27" d="M575.9 295.8c-6.7 5.9-15.2 7.6-23 4.7.7-4.4 1.6-9.2 2.7-14.3 2.1-.4 3.2-.6 3.2-.6 7 2.4 12.3 2.6 15.8.6 1.5 2.9 1.9 6.4 1.3 9.6"/><path class="st15" d="M574 289.4c-.1 1.7-.6 3.4-1.4 4.8-5.2 1.2-10.6.9-15.7-.8 0-1.8.3-3.5.9-5.1 5.3 2.1 10.8 2.4 16.2 1.1"/><path class="st27" d="M552.3 303.9c2.2 3.3 5.5 5.2 8.9 5.2 3.4.1 6.7-1.8 9-5-5.8 2.6-12.1 2.5-17.9-.2"/><path d="M620.7 239.9c-3.6-4.1-6.6-8.7-9.2-13.9-6.8-14.4 2.3-32.2 17.4-38.4 14-5.8 29.9-.5 37.8 12.1-.3-.1-.7-.2-1-.2-14.5-4.5-30.8.8-39.7 14.1-5.4 8.1-7 17.5-5.3 26.3" style="fill-rule:evenodd;clip-rule:evenodd;fill:#a58bcf"/><path d="m577 219.7 21.8 8.2-51.4 8.5 4-10.6c1-.6 1.9-1.3 2.8-2 .5-.2.9-.5 1.3-.8.7-.4 1.4-.8 2-1.2.8-.5 1.6-1 2.3-1.6h12.8c1.6 0 3-.1 4.4-.5" style="fill-rule:evenodd;clip-rule:evenodd;fill:#a296b3"/><path d="m566.2 229.9 64.2 24.1c1.7.6 2.6 2.6 1.9 4.3l-2.6 7c-.6 1.7-2.6 2.6-4.3 1.9l-64.2-24.1c-1.7-.6-2.6-2.6-1.9-4.3l2.6-7c.7-1.6 2.6-2.5 4.3-1.9" style="fill-rule:evenodd;clip-rule:evenodd;fill:#807491"/><path d="M621.7 262.8c1.2 0 2.4-.1 3.6-.4.3-.1.7-.1 1-.2v29.9c0 1.9-1.6 3.5-3.5 3.5h-5c-1.9 0-3.5-1.6-3.5-3.5V269c2.1-1.7 3.8-3.9 4.9-6.4.8.1 1.6.2 2.5.2" style="fill-rule:evenodd;clip-rule:evenodd;fill:#a49bb0"/><path d="m575 233.9-4.8 4.8h9.6c1.2.2 2.4.3 3.6.3h1.3c2.3 0 4.5-.4 6.5-1.2l9.2 3.5c2 .8 3.1 3 2.3 5.1l-3.1 8.3c-.8 2-3 3.1-5.1 2.3l-33-12.4c3-1.5 5.6-3.8 7.3-6.6 2.3-1 4.5-2.4 6.2-4.1" style="fill-rule:evenodd;clip-rule:evenodd;fill:#b8b1c2"/><path d="m566.1 228.4 27.2 10.2-30.9 6.3-2.3-.9c-2-.8-3.1-3-2.3-5.1l3.1-8.3c.9-1.9 3.1-2.9 5.2-2.2" style="fill-rule:evenodd;clip-rule:evenodd;fill:#ddd7e3"/><path d="M617.7 253.7h5c1.9 0 3.5 1.6 3.5 3.5v5.9l-12.1 7.5v-13.4c.1-1.9 1.7-3.5 3.6-3.5" style="fill-rule:evenodd;clip-rule:evenodd;fill:#c6bfcf"/><path d="M555 266.6c3 0 5.4 2.4 5.4 5.4 0 3-2.4 5.4-5.4 5.4-3 0-5.4-2.4-5.4-5.4.1-3 2.5-5.4 5.4-5.4" style="fill-rule:evenodd;clip-rule:evenodd;fill:#ffa8a8"/><path d="M553.1 266.8c1.7 0 3.1 1.4 3.1 3.1 0 1.7-1.4 3.1-3.1 3.1-1.7 0-3.1-1.4-3.1-3.1-.1-1.8 1.3-3.1 3.1-3.1" style="fill-rule:evenodd;clip-rule:evenodd;fill:#ffebeb"/><path d="m561.6 213.9 17.3 6.5L551 227l3.8-10c1-2.7 4-4.1 6.8-3.1" style="fill-rule:evenodd;clip-rule:evenodd;fill:#c4bad1"/><path class="st21" d="M490.1 517.6c39.2-12.5 74.6-18.6 111.5-19.6 4.6-.1 8.8-.5 13.5-.4l45.6-74.4c10.7-17 .2-39.8-27.2-68.9l-8.2-1.8c-8.4 4-17.7 6.4-27.2 6.9-4.4 20.6-17.8 39.1-38.1 49.2l-3.1 1.5c-9.9 5.2-21.2 8.1-33.1 8.1h-28c-6.4 0-12.8-.9-19-2.6L461.2 462c17.7 13.2 28.2 33.6 28.9 55.6"/><path d="M499.3 456.5c6.7-2.6 11.1-8.9 11.3-16-18.4-12.2-40.7-26.4-67-42.6-6.4 2.6-10.7 8.7-11.1 15.7 44.6 28.6 66.8 42.9 66.8 42.9" style="fill-rule:evenodd;clip-rule:evenodd;fill:#ab99c7"/><path class="st15" d="M627.6 348.8c3.9 3.6 5.8 5.4 5.8 5.4-51.7 17.1-76.1 11.7-73.1-16.3 5.3-.7 8-1.1 8-1.1-2 20.1 17.8 24.1 59.3 12"/><path class="st12" d="M576.5 413.7c21.3 31.1 35.9 51 41.7 60 0 0 20.8-15.3 48.5-36 13.5-9.7 17-27.7 9.3-42.1-7.7-14.4-26.3-23-40.2-15.5-34.3 19-59.3 33.6-59.3 33.6"/><path class="st11" d="M555.8 494.5c43.1-12.2 58.9-22.5 58.9-22.5s-9.3-19.7-37.4-53.6C557.7 429 548 434.3 548 434.3c-4.6 2.4-9.8 1.6-14.3-3-69.5-66.6-104.3-99.9-104.3-99.9-16.2 21.9-14.2 30.6-28.2 42.4l95.4 95.4c24.4 24.1 36.6 31.8 59.2 25.3"/><path d="M602.7 448.7c4.9 7 8.9 12.6 11.8 16.9 3-5.1 8-8.8 13.9-10.1 1.6-.8 3.3-1.5 5-2 .7-.4 1.4-.7 2-.9l2.1-.9c.6-.3 1.2-.5 1.9-.8.7-.3 1.5-.6 2.2-.9.3-.2.5-.4.8-.5.2-.2.4-.3.6-.4l-.2.1c.5-.4 1-.8 1.6-1.1l.3-.2c.5-.4 1-.9 1.5-1.3 1.2-1.2 2.6-2.3 4.1-3.1l.8-.6c.6-.6 1.3-1.1 1.9-1.6 1.4-1.1 2.9-2 4.4-2.6l1.2-.6c.6-.3 1.1-.6 1.6-.9l1.1-1.1c.2-.3.4-.6.6-.8.4-.6.8-1.3 1.2-1.9 1.9-3.6 4.9-6.6 8.4-8.7 2.5-6.5 2.6-13.7.3-20.5l-69.1 44.5z" style="fill-rule:evenodd;clip-rule:evenodd;fill:#43217a"/><path d="M580.2 417.6c3.7 5.4 7.2 10.4 10.4 15.1l67.3-40c-7.8-6.1-18.2-8.5-26.7-3.9-29.5 16.2-51 28.8-51 28.8" style="fill-rule:evenodd;clip-rule:evenodd;fill:#a78fcf"/><path class="st13" d="m584.2 448.8 12.3 17.5c-2.9 1-5.6 2.7-7.9 5l-.3.3c-1.1.6-2.2 1.3-3.2 2.1-.6.3-1.2.7-1.8 1-.9.5-1.7 1.1-2.5 1.8-.6.5-.8.6-1.4.9-1.2.6-2.4 1.3-3.6 2.2-1.4.7-2.6 1.4-3.9 2.3-1.4.4-2.7 1-4 1.8-.6.2-1.1.5-1.6.8-.6.1-1.2.3-1.9.5-.5.2-1 .3-1.5.5l-.6.2c-1.1.2-2.1.4-3.2.7l-1.5.3c-1.4 0-2.8.2-4.2.5h-.1c-.6 0-1.1.1-1.7.2h-3c-1.2 0-2.2.1-3.3.3h-4.1c-3-.9-6.1-1.2-9.2-.8-9.6-3.8-19.9-11.6-30.7-23.4L411.6 375c3.1-2 5.3-5 6.8-9.1l92.7 82.8c14 11.5 26.1 15.8 36.1 12.7l37-12.6z"/><path d="M610.8 460.4c2.9 4.2 5.2 7.5 6.8 9.9 0 0 18.9-13.8 44-32.7 5.5-3.9 9.2-9.4 10.9-15.4l-61.7 38.2z" style="fill-rule:evenodd;clip-rule:evenodd;fill:#1d0d36"/><path class="st14" d="m592.9 461.3 7.8 11.1c-15.4 6.4-31 11.8-46.8 16.2-8.1 2.3-16.6 1.2-25.8-3.4l64.8-23.9z"/><path class="st15" d="M567.1 429.3c3.8 6.3 6.4 9.5 6.4 9.5s-8.4 4.3-20.3 10.9c-9.9 5.1-22.1 1.7-30.9-6.7l-96.7-94.9c1.4-2.8 3-5.5 5-8.2l98.6 94.2c6.7 6.5 13.4 8.2 20.2 5l17.7-9.8z"/><path d="M604.9 485.3c7.1.2 13.7-3.9 16.6-10.4-12.3-18.3-27.4-40.1-45.2-65.2-6.9 0-13.3 3.9-16.3 10.2 30 43.6 44.9 65.4 44.9 65.4" style="fill-rule:evenodd;clip-rule:evenodd;fill:#b9a5d9"/><path d="M553.4 343.5c-34.2.2-46.6 4.7-51.1 17.4l-7.4 22c7-1.7 14.3-1.6 21.2.1 3.9-15.7 18-27.7 34.8-28.2h.2c1.6-.1 3.2 0 4.8.1-1.4-3.6-2.2-7.4-2.5-11.4" style="fill-rule:evenodd;clip-rule:evenodd;fill:#8b6bbf"/><path class="st15" d="M694.6 311.6c2 0 3.6 1.6 3.6 3.6s-1.6 3.6-3.6 3.6-3.6-1.6-3.6-3.6 1.6-3.6 3.6-3.6M706.5 362.3c1.3 0 2.3 1 2.3 2.3 0 1.3-1 2.3-2.3 2.3-1.3 0-2.3-1-2.3-2.3 0-1.2 1-2.3 2.3-2.3M626.7 326.9c1 0 1.8.8 1.8 1.9 0 1-.8 1.8-1.8 1.8s-1.8-.8-1.8-1.8c0-1.1.8-1.9 1.8-1.9M666.6 264.8c.5 0 .9.4.9.9s-.4.9-.9.9-.9-.4-.9-.9c0-.4.4-.9.9-.9M544 352c1 0 1.8.8 1.8 1.8s-.8 1.8-1.8 1.8-1.9-.8-1.9-1.8.9-1.8 1.9-1.8M639.6 253.3c1.1 0 2 .9 2 2s-.9 2-2 2-2-.9-2-2c-.1-1 .9-2 2-2M595 249.7c1 0 1.7.8 1.7 1.7 0 1-.8 1.7-1.7 1.7-1 0-1.7-.8-1.7-1.7 0-1 .8-1.7 1.7-1.7M667.2 439.3c1.7 0 3 1.3 3 3s-1.3 3-3 3-3-1.3-3-3c.1-1.7 1.4-3 3-3M646.3 465.3c.8 0 1.5.7 1.5 1.5s-.7 1.5-1.5 1.5-1.5-.7-1.5-1.5c0-.9.7-1.5 1.5-1.5M532.3 415.5c1.1 0 2 .9 2 2s-.9 2-2 2-2-.9-2-2 .9-2 2-2M526 233c2 0 3.6 1.6 3.6 3.6s-1.6 3.6-3.6 3.6-3.6-1.6-3.6-3.6 1.6-3.6 3.6-3.6M449.4 243.3c1 0 1.8.8 1.8 1.8s-.8 1.8-1.8 1.8-1.8-.8-1.8-1.8c-.1-1 .7-1.8 1.8-1.8M482.9 326c2 0 3.6 1.6 3.6 3.6s-1.6 3.6-3.6 3.6-3.6-1.6-3.6-3.6c0-1.9 1.6-3.6 3.6-3.6M398.5 508.8c2 0 3.6 1.6 3.6 3.6s-1.6 3.6-3.6 3.6-3.6-1.6-3.6-3.6 1.6-3.6 3.6-3.6"/><path class="st8" d="M159.8 216.4c5.4 0 9.8 4.4 9.8 9.8s-4.4 9.8-9.8 9.8-9.8-4.4-9.8-9.8 4.4-9.8 9.8-9.8"/><path d="M448.7 48.6c32.7 1.9 58.3 20.2 57.1 41-1.2 20.8-28.7 36.1-61.4 34.2-32.7-1.9-58.3-20.2-57.1-41 1.1-20.8 28.6-36.1 61.4-34.2" style="fill-rule:evenodd;clip-rule:evenodd;fill:#efe7fd"/><path d="M342.9 163.5c23.6 0 44.4 12.2 56.5 30.6.1.2.3.4.4.6l.1.1.6.9.1.1c.2.3.4.7.6 1l.1.1c5.8 9.9 9.1 21.5 9.1 33.9 0 37.2-30.2 67.4-67.4 67.4-29.7 0-54.9-19.2-63.9-45.9-.1-.4-.3-.8-.4-1.1v-.1c-2-6.4-3.1-13.2-3.1-20.2-.1-37.2 30.1-67.4 67.3-67.4" style="fill-rule:evenodd;clip-rule:evenodd;fill:#d1a3e0"/><defs><filter id="Adobe_OpacityMaskFilter_2_" filterUnits="userSpaceOnUse" x="275.5" y="163.5" width="134.8" height="134.8"><feColorMatrix values="1 0 0 0 0 0 1 0 0 0 0 0 1 0 0 0 0 0 1 0"/></filter></defs><mask maskUnits="userSpaceOnUse" x="275.5" y="163.5" width="134.8" height="134.8" id="SVGID_5_"><g style="filter:url(#Adobe_OpacityMaskFilter_2_)"><linearGradient id="SVGID_6_" gradientUnits="userSpaceOnUse" x1="-202.144" y1="682.398" x2="-109.697" y2="728.02" gradientTransform="translate(509.81 -468.9)"><stop offset="0" style="stop-color:#000"/><stop offset="1" style="stop-color:#fff"/></linearGradient><path style="fill:url(#SVGID_6_)" d="M275.5 163.5h134.8v134.8H275.5z"/></g></mask><path d="M342.9 163.5c23.6 0 44.4 12.2 56.5 30.6.1.2.3.4.4.6l.1.1.6.9.1.1c.2.3.4.7.6 1l.1.1c5.8 9.9 9.1 21.5 9.1 33.9 0 37.2-30.2 67.4-67.4 67.4-29.7 0-54.9-19.2-63.9-45.9-.1-.4-.3-.8-.4-1.1v-.1c-2-6.4-3.1-13.2-3.1-20.2-.1-37.2 30.1-67.4 67.3-67.4" style="mask:url(#SVGID_5_);fill-rule:evenodd;clip-rule:evenodd;fill:#964ab0"/><path d="M371 169.6c-31.8-14.6-69.4-2.5-86.7 27.9 7.1 5.4 16.3 7.1 24.8 4.8 8.6-2.4 15.5-8.6 18.8-16.9 1.7-4.7 5.4-8.3 10-10 4.7-1.7 9.8-1.1 14.1 1.5 3.4 1.9 7.5 2.2 11.1.8 3.8-1.4 6.7-4.4 7.9-8.1" style="fill-rule:evenodd;clip-rule:evenodd;fill:#e0b6ed"/><path d="M290.8 215.6c4.3 0 7.8 3.5 7.8 7.8s-3.5 7.8-7.8 7.8-7.8-3.5-7.8-7.8 3.5-7.8 7.8-7.8" style="fill-rule:evenodd;clip-rule:evenodd;fill:#dfb9eb"/><path d="M402.6 262.1a67.51 67.51 0 0 1-52.7 35.8c-22.4 2.4-44.6-6.7-59-24 5.4-7.7 14.1-12.4 23.5-12.6 9.4-.2 18.3 4 24 11.5 3.1 4.1 8.2 6.4 13.3 6 5.2-.4 9.8-3.5 12.1-8.1 3.5-6.8 9.9-11.7 17.3-13.3 7.7-1.7 15.5 0 21.5 4.7" style="fill-rule:evenodd;clip-rule:evenodd;fill:#9e56b7"/><path d="M209.2 275c15.1 0 28.4 7.8 36.1 19.5.1.1.2.3.3.4l.1.1c.1.2.3.4.4.6l.1.1c.1.2.3.4.4.6v.1c3.7 6.4 5.8 13.7 5.8 21.6 0 23.8-19.3 43-43 43-19 0-35.1-12.3-40.8-29.3-.1-.2-.2-.5-.2-.7v-.1c-1.3-4.1-2-8.4-2-12.9-.2-23.7 19-43 42.8-43" style="fill-rule:evenodd;clip-rule:evenodd;fill:#ffc4e2"/><defs><filter id="Adobe_OpacityMaskFilter_3_" filterUnits="userSpaceOnUse" x="166.2" y="283" width="86" height="78"><feColorMatrix values="1 0 0 0 0 0 1 0 0 0 0 0 1 0 0 0 0 0 1 0"/></filter></defs><mask maskUnits="userSpaceOnUse" x="166.2" y="283" width="86" height="78" id="SVGID_7_"><g style="filter:url(#Adobe_OpacityMaskFilter_3_)"><linearGradient id="SVGID_8_" gradientUnits="userSpaceOnUse" x1="-241.372" y1="732.788" x2="-184.741" y2="763.599" gradientTransform="translate(428.979 -422.468)"><stop offset="0" style="stop-color:#000"/><stop offset="1" style="stop-color:#fff"/></linearGradient><path style="fill:url(#SVGID_8_)" d="M166.2 283h86v78h-86z"/></g></mask><path d="M234.2 283c4.4 3.1 8.1 7 11 11.5 4.6 7 7 15.1 7 23.5 0 23.8-19.3 43-43 43-18.8 0-35.3-12.2-41-30-1.3-4.2-2-8.5-2-13 0-12.6 5.4-23.9 14-31.8 6.9 1.9 14.1 2.8 21.2 2.8h2.1c10.9.1 21.2-2.1 30.7-6" style="mask:url(#SVGID_7_);fill-rule:evenodd;clip-rule:evenodd;fill:#b04b81"/><path d="M167.3 308.1c3.4-14.1 13.6-25.6 27.3-30.5 13.7-4.9 28.9-2.6 40.5 6.1-3.9 6.3-10.2 10.6-17.5 12.1-7.2 1.5-14.8 0-20.8-4.2-3-2.1-6.9-2.4-10.1-.7-3.2 1.7-5.2 5.1-5.1 8.7.2 3.5-1.5 6.9-4.6 8.7-2.9 1.8-6.7 1.7-9.7-.2" style="fill-rule:evenodd;clip-rule:evenodd;fill:#ffdeef"/><path d="M210.5 165.3c4 0 7.2 3.2 7.2 7.2s-3.2 7.2-7.2 7.2-7.2-3.2-7.2-7.2c.1-4 3.3-7.2 7.2-7.2" style="opacity:.29;fill-rule:evenodd;clip-rule:evenodd;fill:#ffc"/><path class="st15" d="M597.7 153.4c1.5 0 2.7 1.2 2.7 2.7 0 1.5-1.2 2.7-2.7 2.7-1.5 0-2.7-1.2-2.7-2.7-.1-1.5 1.2-2.7 2.7-2.7M555.1 180.8c.8 0 1.4.6 1.4 1.4 0 .8-.6 1.4-1.4 1.4-.8 0-1.4-.6-1.4-1.4 0-.8.6-1.4 1.4-1.4M360.4 216c1.5 0 2.7 1.2 2.7 2.7 0 1.5-1.2 2.7-2.7 2.7-1.5 0-2.7-1.2-2.7-2.7 0-1.5 1.2-2.7 2.7-2.7M299.6 270.6c.9 0 1.7.7 1.7 1.7 0 .9-.7 1.7-1.7 1.7-.9 0-1.7-.7-1.7-1.7.1-.9.8-1.7 1.7-1.7M235.4 179.3c.9 0 1.7.7 1.7 1.7 0 .9-.7 1.7-1.7 1.7-.9 0-1.7-.7-1.7-1.7.1-1 .8-1.7 1.7-1.7M206.5 171.3c.5 0 .9.4.9.9s-.4.9-.9.9-.9-.4-.9-.9.4-.9.9-.9M236.5 330c1.2 0 2.2 1 2.2 2.2 0 1.2-1 2.2-2.2 2.2-1.2 0-2.2-1-2.2-2.2 0-1.2 1-2.2 2.2-2.2M176.5 299.6c.6 0 1.1.5 1.1 1.1 0 .6-.5 1.1-1.1 1.1-.6 0-1.1-.5-1.1-1.1 0-.6.5-1.1 1.1-1.1M339.6 315.5c1.2 0 2.2 1 2.2 2.2 0 1.2-1 2.2-2.2 2.2-1.2 0-2.2-1-2.2-2.2 0-1.2 1-2.2 2.2-2.2M293.3 467.9c1.5 0 2.7 1.2 2.7 2.7 0 1.5-1.2 2.7-2.7 2.7-1.5 0-2.7-1.2-2.7-2.7 0-1.4 1.2-2.7 2.7-2.7M153.4 448.9c1.5 0 2.7 1.2 2.7 2.7 0 1.5-1.2 2.7-2.7 2.7-1.5 0-2.7-1.2-2.7-2.7 0-1.5 1.2-2.7 2.7-2.7"/><path class="st58" d="m459 186 7.8 40.4 31.9-29.6L459 186zm6.3 42.3-8.3-43.4-.3-1.4 1.4.4 42.6 11.6 1.6.4-1.2 1.1-34.3 31.8-1.2 1.1-.3-1.6zM338.6 461.4c-2.8-2.8-6.6-4.5-10.8-4.5-4.2 0-8 1.7-10.8 4.5-2.8 2.8-4.5 6.6-4.5 10.8 0 4.2 1.7 8 4.5 10.8 2.8 2.8 6.6 4.5 10.8 4.5 4.2 0 8-1.7 10.8-4.5 2.8-2.8 4.5-6.6 4.5-10.8 0-4.2-1.7-8.1-4.5-10.8m-10.8-6.2c4.7 0 8.9 1.9 12 5 3.1 3.1 5 7.3 5 12s-1.9 8.9-5 12c-3.1 3.1-7.3 5-12 5s-8.9-1.9-12-5c-3.1-3.1-5-7.3-5-12s1.9-8.9 5-12c3.1-3.1 7.3-5 12-5z"/></svg>