<svg version="1.1" id="Layer_1" xmlns="http://www.w3.org/2000/svg" x="0" y="0" viewBox="0 0 64.7 32" style="enable-background:new 0 0 64.7 32" xml:space="preserve"><style>.st1{fill-rule:evenodd;clip-rule:evenodd}</style><g style="opacity:.3"><path class="st1" d="M39 19.4c-3.2 2.4-7.9 3.6-11.9 3.6-5.6 0-10.7-2.1-14.5-5.5-.3-.3 0-.7.3-.5 4.2 2.4 9.2 3.9 14.6 3.9 3.6 0 7.5-.7 11.1-2.2.5-.3 1 .3.4.7" transform="translate(0 5)"/><path class="st1" d="M40.3 17.9c-.4-.5-2.7-.3-3.8-.1-.3.1-.4-.3-.1-.5 1.8-1.3 4.9-.9 5.2-.5.3.5-.1 3.5-1.8 4.9-.3.2-.5.1-.4-.2.5-.9 1.4-3.1.9-3.6M36.7 8.2V6.9c0-.2.1-.3.3-.3h5.6c.2 0 .3.1.3.3V8c0 .2-.1.4-.4.8l-3 4.2c1.1 0 2.2.1 3.2.7.2.1.3.3.3.5v1.3c0 .2-.2.4-.4.3-1.7-.9-4-1-5.9 0-.2.1-.4-.1-.4-.3v-1.2c0-.2 0-.5.2-.9L40 8.5h-3c-.1 0-.3-.2-.3-.3M16.2 16h-1.7c-.1 0-.3-.1-.3-.3V6.9c0-.2.1-.3.3-.3H16c.2 0 .3.1.3.3V8c.4-1.1 1.2-1.6 2.2-1.6 1.1 0 1.7.5 2.2 1.6.4-1.1 1.4-1.6 2.4-1.6.7 0 1.5.3 2 1s.5 1.8.5 2.8v5.5c0 .2-.1.3-.3.3h-1.7c-.2 0-.3-.1-.3-.3V11c0-.4.1-1.3-.1-1.6-.1-.6-.5-.7-1-.7-.4 0-.9.3-1.1.7-.1.4-.1 1.2-.1 1.7v4.7c0 .2-.1.3-.3.3H19c-.2 0-.3-.1-.3-.3v-4.7c0-1 .1-2.4-1.1-2.4-1.3 0-1.2 1.4-1.2 2.4v4.7c.1.1 0 .2-.2.2M47.8 6.4c2.6 0 3.9 2.2 3.9 4.9s-1.5 4.8-3.9 4.8c-2.5 0-3.9-2.2-3.9-4.9.1-2.6 1.5-4.8 3.9-4.8m.1 1.9c-1.3 0-1.3 1.7-1.3 2.8s0 3.4 1.3 3.4 1.4-1.8 1.4-3c0-.7 0-1.6-.3-2.3-.2-.7-.6-.9-1.1-.9M55 16h-1.7c-.2 0-.3-.1-.3-.3V6.9c0-.1.1-.3.3-.3h1.6c.1 0 .3.1.3.3v1.3c.5-1.2 1.1-1.8 2.3-1.8.8 0 1.5.3 2 1.1.5.7.5 1.8.5 2.7v5.5c0 .1-.1.3-.3.3H58c-.1 0-.3-.1-.3-.3V11c0-1 .1-2.4-1.1-2.4-.4 0-.8.3-1 .7-.3.5-.3 1.1-.3 1.6v4.7c.1.3-.1.4-.3.4M32.2 11.8c0 .7 0 1.3-.3 1.8s-.7.8-1.2.8c-.7 0-1.1-.5-1.1-1.3 0-1.5 1.3-1.7 2.6-1.7v.4zM34 16c-.1.1-.3.1-.4.1-.6-.5-.7-.7-1-1.1-.9 1-1.6 1.3-2.8 1.3-1.5 0-2.6-.9-2.6-2.7 0-1.4.7-2.3 1.8-2.8.9-.4 2.2-.5 3.2-.6v-.4c0-.4 0-.9-.2-1.3-.3-.3-.7-.4-1-.4-.7 0-1.3.3-1.4 1.1 0 .1-.1.3-.3.3l-1.6-.2c-.1 0-.3-.1-.3-.3.4-2 2.2-2.6 3.8-2.6.9 0 1.9.2 2.6.9.9.8.7 1.8.7 3V13c0 .8.3 1.2.7 1.6.1.1.1.3 0 .5-.3.1-.9.6-1.2.9M9.8 11.8c0 .7 0 1.3-.3 1.8s-.7.7-1.2.7c-.7 0-1.1-.5-1.1-1.3 0-1.5 1.3-1.7 2.6-1.7v.5zm1.7 4.2c-.1.1-.3.1-.4.1-.6-.5-.7-.7-1-1.1-1 .9-1.6 1.3-2.8 1.3-1.5 0-2.6-.9-2.6-2.7 0-1.4.7-2.3 1.8-2.8.9-.4 2.2-.5 3.2-.6v-.4c0-.4 0-.9-.2-1.3-.3-.3-.7-.4-1-.4-.7 0-1.3.3-1.4 1.1 0 .1-.1.3-.3.3l-1.6-.2c-.1 0-.3-.1-.3-.3.4-2 2.2-2.6 3.8-2.6.9 0 1.9.2 2.6.9.9.8.7 1.8.7 3V13c0 .8.3 1.2.7 1.6.1.1.1.3 0 .5-.2.1-.9.6-1.2.9" transform="translate(0 5)"/></g></svg>