<svg xmlns="http://www.w3.org/2000/svg" viewBox="0 0 108.5 32" style="enable-background:new 0 0 108.5 32" xml:space="preserve"><g style="opacity:.3"><path d="M45.1 10.4v8.9c0 3.1 1.3 5.6 6.3 5.6h12.3V10.4H59v10.7h-6.5c-2 0-2.8-.8-2.8-2.5v-8.2h-4.6zm8.5 0V7.1H50v3.4h3.6zm5.2 0V7.1h-3.5v3.4h3.5zm27.1 14.5V16c0-3.1-1.3-5.6-6.3-5.6H66.9v14.5h4.6V14.2h6.9c2 0 2.8.8 2.8 2.5v8.2h4.7zm7-3.8c-.5 0-.9-.4-.9-.9s.4-.9.9-.9h7.8V16h-8c-2.5 0-4.5 2-4.5 4.5s2 4.5 4.5 4.5H107v-9.5c0-1.8-1.2-5-4.9-5H89v3.8h11.1c1.4 0 2.3.5 2.3 2.4v4.5l-9.5-.1zm-54.6 0c.5 0 .9-.4.9-.9s-.4-.9-.9-.9h-8.4c-2.5 0-4.5-2-4.5-4.5s2-4.5 4.4-4.5h12.3v3.8H30.5c-.5 0-.9.4-.9.9s.4 1 .9 1h8.2c2.5 0 4.5 2 4.5 4.5s-2 4.5-4.5 4.5H24.6v-3.8l13.7-.1zm-27.2-8.6h6.7V16H8.3v3.4h9.5V25h4.8V8.2H11.2c-7.9 0-9.9 5-9.9 8.2v8.5h4.8v-8.7c0-2 2-3.6 5-3.7z" style="fill-rule:evenodd;clip-rule:evenodd"/></g></svg>