<svg version="1.1" id="Layer_1" xmlns="http://www.w3.org/2000/svg" x="0" y="0" viewBox="0 0 52.6 32" style="enable-background:new 0 0 52.6 32" xml:space="preserve"><style>.st0{opacity:.3}</style><path class="st0" d="M34.5 19.5c-1.2 0-2.2-1-2.2-2.2 0-1.2 1-2.2 2.2-2.2.3 0 .7.1 1 .2l1.2-2.4c-.7-.4-1.4-.5-2.2-.5-2.3 0-4.2 1.5-4.7 3.7-.5-2.1-2.4-3.7-4.7-3.7-.5 0-.9 0-1.4.1v2.9c.4-.3.9-.4 1.4-.4 1.2 0 2.2 1 2.2 2.2 0 1.2-1 2.2-2.2 2.2-1.2 0-2.2-1-2.2-2.2V8.9h-2.7v6.7c-.7-1.9-2.5-3.2-4.6-3.2-2.3 0-4.3 1.6-4.8 3.8-.5-2.2-2.5-3.8-4.8-3.8-.5 0-.9 0-1.4.1v2.9c.5-.2 1-.4 1.5-.4 1.2 0 2.2.9 2.2 2.2v.1c0 1.2-1 2.2-2.2 2.2H6c-1.2 0-2.2-1-2.2-2.2V8.9H1.1l.1 8.4c0 2.7 2.1 4.8 4.7 4.9H6c2.3 0 4.3-1.6 4.8-3.8.5 2.2 2.5 3.8 4.8 3.8s4.2-1.6 4.7-3.7c.5 2.1 2.5 3.7 4.8 3.7s4.2-1.5 4.7-3.7c.5 2.1 2.4 3.7 4.7 3.7.9 0 1.7-.2 2.4-.6l-1.2-2.4c-.4.2-.8.3-1.2.3zm-18.9 0c-1.2 0-2.2-1-2.2-2.2v-.1c0-1.2.9-2.2 2.2-2.2h.1c1.2 0 2.2 1 2.2 2.2-.1 1.3-1.1 2.2-2.3 2.3z"/><path class="st0" d="M49.9 12.5V8.9h-2.6v3.6h-1.8v2.1c-.9-1.4-2.4-2.3-4.1-2.3-2.7 0-4.9 2.2-4.9 4.9 0 2.4 1.7 4.3 3.9 4.8.3.1.7.1 1 .1h.3c.2 0 .4 0 .5-.1h.4c2.1-.6 3.6-2.5 3.6-4.7 0-.7-.2-1.4-.4-2h1.5V19c0 1.7 1.3 4 4.3 3.1v-2.6c-.4.4-1.7.4-1.6-1v-3.2h1.6v-2.7h-1.7zm-8.6 7c-1.2 0-2.2-1-2.2-2.2s1-2.2 2.2-2.2 2.2 1 2.2 2.2-1 2.2-2.2 2.2z"/></svg>