<svg version="1.1" id="Layer_1" xmlns="http://www.w3.org/2000/svg" x="0" y="0" viewBox="0 0 123.8 32" style="enable-background:new 0 0 123.8 32" xml:space="preserve"><style>.st0{opacity:.3}</style><path class="st0" d="M112.4 23.3v-8.8c0-3.9-2.5-5.9-5.3-5.9-1.9 0-3.3.7-4.1 1.7V9h-4.3v14.3h4.3v-7.8c0-2 1.1-3 2.7-3 1.4 0 2.5.8 2.5 2.6v8.2h4.2zM122.3 21.2c-1.5 0-1.5-1.3-1.5-1.3v-5.1h3v-4.1h-3v-4L116.5 8v2.7h-2.3v4.1h2.3V20c0 4 1.6 5.7 7.2 5.1l-1.4-3.9zM77.9 23.3v-8.8c0-3.9-2.5-5.9-5.3-5.9-1.9 0-3.3.7-4.1 1.7V9h-4.3v14.3h4.3v-7.8c0-2 1.1-3 2.7-3 1.4 0 2.5.8 2.5 2.6v8.2h4.2zM95.5 23.2V8.9h-4.3v1.4c-.9-1.1-2.3-1.7-4.3-1.7-3.7 0-6.8 3.3-6.8 7.6s3.1 7.6 6.8 7.6c1.9 0 3.3-.7 4.3-1.7v1.4l4.3-.3zm-7.7-3.7c-2 0-3.4-1.3-3.4-3.5 0-2.1 1.4-3.5 3.4-3.5s3.4 1.3 3.4 3.5-1.4 3.5-3.4 3.5zM41.3 23.2l5.3-14.4h-4.8l-3 9.1-2.9-9.1h-4.8l5.3 14.4zM21.1 19.4 18.7 18l-2 3.6s3.1 3 6.6 2.6c3.5-.4 5.1-1.7 5.1-1.7s5.3-3.8 2.8-9.6-9-5-9-5-3.7.6-5 2c0 0-.9.7-1.7 2s-3.7 6.7-3.7 6.7-1.3 1.7-4.2 1.2-2.7-4.2-2.7-4.2-.2-2.6 2.7-3.1 4.1 1 4.1 1l2.3-4s-4.3-3.1-9.2-.9-5 7.2-5 7.2.4 4.4 2.6 6 3.1 2.6 8.1 2.3c5-.3 6.8-6.1 6.8-6.1l2-3.8s1.8-3.2 6-1.3c0 0 2.8 2.4.9 5.1s-5.1 1.4-5.1 1.4zM61.7 16c0-4.3-3.1-7.6-7.3-7.6-4.5 0-7.6 3.3-7.6 7.6s3 7.6 7.9 7.6c2.7 0 4.8-1 6.2-3l-3.4-2c-.6.6-1.6 1.1-2.8 1.1-1.6 0-2.9-.5-3.4-2h10.2c.2-.5.2-1.1.2-1.7zm-10.4-1.5c.4-1.5 1.5-2.3 3.1-2.3 1.3 0 2.6.6 3 2.3h-6.1z"/></svg>