<?xml version="1.0" standalone="no"?>
<!DOCTYPE svg PUBLIC "-//W3C//DTD SVG 1.1//EN" "http://www.w3.org/Graphics/SVG/1.1/DTD/svg11.dtd">
<svg width="100%" height="100%" viewBox="0 0 600 200" version="1.1" xmlns="http://www.w3.org/2000/svg" xmlns:xlink="http://www.w3.org/1999/xlink" xml:space="preserve" style="fill-rule:evenodd;clip-rule:evenodd;stroke-miterlimit:1.41421;">
    <g id="Ebene2">
        <path d="M210.881,5L320.266,5L309.684,48.3854L250.067,48.3854L242.934,75.3915L300.006,75.3915L288.852,118.994L233.78,118.994L224.932,149.176L287.767,149.176L277.603,194L166,194L210.881,5Z" style="fill:rgb(31,70,147);fill-rule:nonzero;"/>
        <path d="M371.689,5L451.1,5C468.396,5 480.156,10.028 486.38,20.0839C492.605,30.1398 493.513,44.4502 489.104,63.015C484.574,82.0955 476.339,101.051 464.402,111.795C452.465,122.538 436.865,131.954 417.6,131.954L391.446,131.954L374.792,194L326.808,194L371.689,5ZM400.539,90.631L412.245,90.631C421.455,90.631 428.388,88.6757 433.043,84.765C437.698,80.8544 440.75,75.8479 442.199,69.7456C443.607,63.8152 443.184,58.7872 440.929,54.6617C438.675,50.5362 433.083,48.4734 424.154,48.4734L410.55,48.4734L400.539,90.631Z" style="fill:rgb(31,70,147);fill-rule:nonzero;"/>
        <path d="M549.192,5L594.961,5L550.08,194L504.311,194L549.192,5Z" style="fill:rgb(31,70,147);fill-rule:nonzero;"/>
        <path d="M197,72L123,72L123,7L69,7L69,72L7,72L7,127L69,127L69,191L123,191L123,127L183,127" style="fill:none;stroke-width:5.56px;stroke:rgb(31,70,147);"/>
    </g>
</svg>
