<svg xmlns="http://www.w3.org/2000/svg" viewBox="0 0 81.8 32" style="enable-background:new 0 0 81.8 32" xml:space="preserve"><g style="opacity:.3"><path d="M12.7 12.8V22c0 .8.2 1.5.5 2 .4.5.9.8 1.6.8.3 0 .6-.1 1-.2 0 0 .7 0 1.7-.6v.6h3.2v-8.5H23V21.4c0 .3.1.6.1.9.1.3.1.6.2.8.1.2.2.4.3.7.1.2.3.4.5.5.2.1.4.3.7.3.3.1.6.1 1 .2h.3c.6 0 1.2-.1 1.9-.2V22H27.1c-.7 0-1-.3-1-1v-6h1.6v-2.2h-1.6V9.2h-3.2v3.6h-5.4v8.6c-.8.5-1.3.4-1.6.2v-8.8h-3.2zM10.8 13.7v-1.1c0-.6 0-1.1-.1-1.6s-.3-.9-.5-1.3-.5-.7-.9-1c-.4-.3-.8-.5-1.3-.6-.6-.2-1.2-.3-1.9-.3s-1.3.1-1.9.3c-.5.2-1 .4-1.4.7-.3.4-.6.8-.8 1.2-.2.5-.4 1-.5 1.6-.1.6-.2 1.2-.2 2v5.5c0 .9.1 1.7.2 2.4s.4 1.3.7 1.8c.3.5.8.9 1.4 1.2s1.3.4 2.1.4c1.2 0 2.1-.5 2.6-1.6l.2 1.4h2.3V16H6.2v2.2h1.5V20c0 1.5-.5 2.2-1.4 2.2-.5 0-.8-.2-1-.6-.2-.3-.3-.8-.3-1.5v-8.2c0-.2 0-.3.1-.6 0-.2.1-.4.2-.5.1-.1.2-.2.4-.3.2-.1.3-.1.6-.1.2 0 .4 0 .6.1.2.1.3.2.3.3.1.1.1.3.2.4 0 .2.1.4.1.5v1.9l3.3.1zM41 21.1l-2.1-8.5h-2.6l-2.2 8.5-2.2-8.5h-2.6l3.5 12.2h2.7l2.1-8.1 2.2 8.1h2.7l3.4-12.2h-2.6zM78.9 12.6h-2.7c-.8 4.3-4.1 3.6-4.1 3.6V6.9h-2.7v17.9h2.7v-5.7c1 0 1.4.7 1.4.7l3.6 5h3.3l-4.7-6.5c3.3-2.1 3.2-5.7 3.2-5.7zM63.3 24.8v-6.5c.7-3.5 4.3-2.9 4.3-2.9v-2.7c-3.3 0-4.3 1.8-4.3 1.8v-1.8h-2.7v12.1h2.7zM60.5 12.6zM52.3 25.1c3.5 0 6.4-2.8 6.4-6.3s-2.9-6.3-6.4-6.3-6.4 2.8-6.4 6.3 2.9 6.3 6.4 6.3zm0-9.7c1.9 0 3.4 1.5 3.4 3.4s-1.5 3.4-3.4 3.4-3.4-1.5-3.4-3.4 1.5-3.4 3.4-3.4z"/></g></svg>