<svg version="1.1" id="Layer_1" xmlns="http://www.w3.org/2000/svg" x="0" y="0" viewBox="0 0 62.5 32" style="enable-background:new 0 0 62.5 32" xml:space="preserve"><style>.st1{fill-rule:evenodd;clip-rule:evenodd}</style><g style="opacity:.3"><path class="st1" d="M44 11.9h2.8V9.2H44v2.7zM27.9 18c0-3.1-2.4-4.4-4.5-4.4-3 0-5.3 2.6-5.3 5.2 0 3.3 2.4 5.2 5.6 5.2 2.7 0 3.7-1.7 4-2.8l-.3-.1c-.1.5-1 2.7-3.4 2.7-2.7 0-2.9-2.5-2.9-4.7V18h6.8zm-4.5-4c1.4 0 1.4 1.6 1.4 2.2v1.5h-3.7c.2-1.5.2-3.7 2.3-3.7z"/><path class="st1" d="M61 14.3V14h-2.9V8.6l-.4.5-.4.4c-.2.2-.4.4-.5.4l-.5.5c-.1.1-.4.2-.6.4l-.4.3V14h-3V8.6l-.3.5-.4.4-.4.4c-.2.2-.4.3-.6.5-.1.1-.4.2-.6.4-.3.1-.5.3-.5.3V14h-9v.3h1.6l-2.2 6-2.4-6H39V14h-5.7v.3h1.1l.6 1.6-1.7 4.4-2.3-6h1.4V14h-5.8v.3H28l3.9 10.1h.1l3-8.1 3.2 8.1h.1L42 14.3h2v9.2h-1.5v.3h5.8v-.3h-1.5v-9.2h2.8v7s0 2.7 3.2 2.8h.1c.6 0 1.1-.1 1.4-.3.4-.1.6-.3.7-.5.3-.3.5-.7.6-1.1.3.8 1 1.8 2.9 1.9h.1c.6 0 1-.1 1.4-.3.4-.1.6-.3.7-.5.4-.5.7-1.4.8-1.7v-.1h-.3c-.4 1.2-.9 1.8-1.4 1.9-.1.1-.3.1-.5.1-1 0-1.1-.8-1.1-1.7v-7.7M54 23.6c-.1.1-.3.1-.4.1-1.1 0-1.2-.8-1.2-1.7v-7.7h3v7s0 .2.1.4c-.4 1.2-.9 1.7-1.5 1.9zM16.4 7.9h2.1v-.3H11v.3h2.1v7.5H6.5V7.9h2.1v-.3H1.1v.3h2.1v15.6H1.1v.3h7.5v-.3H6.5v-7.8h6.6v7.8H11v.3h7.5v-.3h-2.1V7.9z"/></g></svg>