<svg xmlns="http://www.w3.org/2000/svg" viewBox="0 0 85.3 32" style="enable-background:new 0 0 85.3 32" xml:space="preserve"><g style="opacity:.3"><path d="M14.6 8.3c0-1.5-.6-2.7-1.7-3.8S10.3 3 8.6 3c-2.3 0-4.3.8-6 2.6S0 9.3 0 11.6c0 1.5.5 2.9 1.4 4 .9 1.1 2 1.7 3.3 1.7.7 0 1.2-.2 1.7-.6s.7-.9.7-1.4c0-.7-.4-1.2-1.2-1.5-1.3-.5-2-1.3-2-2.5 0-1.1.4-2.1 1.3-3C6 7.4 7 7 8.1 7c.6 0 1.1.2 1.6.6.4.4.7.8.7 1.3 0 .6-.3 1.6-.9 3.2l-4.1 10-.2.5c-.2.4-.3.8-.3 1.2 0 .4.2.8.5 1.1.3.3.8.5 1.2.5 1.2 0 2-.8 2.7-2.3l3.2-8L16.7 26c.5 1.2 1 2 1.5 2.4.6.4 1.5.6 2.9.6h5.2c.9 0 1.6-.2 2.2-.6s.8-1 .8-1.7c0-1-.7-1.5-2.2-1.5H22c-1 0-1.6-.4-1.9-1.2l-3.3-9 7.5-7.8c.9-.9 1.3-1.6 1.3-2.2 0-.5-.2-.9-.5-1.2-.3-.3-.7-.5-1.2-.5-.7 0-1.5.5-2.4 1.4l-8.2 8.6.5-1.3c.5-1.5.8-2.7.8-3.7zM41.9 24.7c1 0 1.9-.1 2.4-.2.6-.2 1.1-.5 1.7-.9.8-.7 1.5-1.5 2-2.6s.8-2.2.8-3.3c0-1.5-.5-2.7-1.5-3.7s-2.2-1.4-3.7-1.4c-1.9 0-3.6.7-5.1 2.2-1.4 1.4-2.1 3.2-2.1 5.1 0 1.9.7 3.3 2.1 4.3.5.3 1.7.5 3.4.5zm-.8-7.7c.6-.8 1.3-1.1 2.1-1.1.6 0 1 .2 1.3.6.3.4.5.8.5 1.4 0 1-.4 1.9-1.1 2.7-.4.5-1 .7-1.8.7-1.4 0-2-.6-2-1.8 0-.9.3-1.7 1-2.5z"/><path d="m32.7 16.3.2-.2c1.7 0 2.6-.7 2.6-2 0-1-.7-1.4-2-1.4h-3.7c-.5 0-.8 0-.9-.1-.1-.1-.2-.2-.3-.5l-.1-.5c-.2-.7-.7-1.1-1.4-1.1-.8 0-1.4.5-1.8 1.6l-1.8 4.4c-.2.6-.3 1-.3 1.2 0 .4.2.8.5 1s.7.4 1.2.4c.8 0 1.4-.6 1.9-1.7l.5-1.3h1.6c-.9 1-1.5 1.8-1.9 2.5-.4.7-.5 1.4-.5 2.1 0 1.2.3 2.1 1 2.8.7.7 1.5 1.1 2.6 1.1H33c.8 0 1.5-.2 1.9-.5.5-.4.7-.9.7-1.5 0-.9-.7-1.4-2-1.4h-2c-1 0-1.4-.4-1.4-1.3 0-.8.9-2 2.5-3.6zM70.4 15.5c0-.8-.3-1.6-1-2.1-.7-.6-1.5-.9-2.5-.9-1.5 0-2.8.6-3.9 1.8-.7-1.2-1.7-1.8-3.1-1.8-.6 0-1.2.1-1.6.3-.4.2-1 .6-1.7 1.2-.2-.9-.8-1.3-1.7-1.3-.9 0-1.5.5-2 1.6L49.7 22l-.2.4c-.2.4-.2.8-.2 1.1 0 .4.1.7.5 1s.7.4 1.1.4c1.1 0 1.9-.7 2.5-2.1l1.8-4.5c.7-1.6 1.5-2.4 2.7-2.4.3 0 .5.1.7.3.2.2.3.4.3.6 0 .2-.1.5-.2.9L56.9 22l-.2.4c-.2.4-.2.8-.2 1.1 0 .4.2.7.5 1 .3.3.7.4 1.1.4 1.1 0 1.9-.7 2.5-2.1l1.7-4.3c.3-.8.7-1.4 1.2-1.9s1-.7 1.6-.7c.7 0 1 .3 1 1 0 .2 0 .4-.1.6l-1.5 3.6c-.3.7-.4 1.2-.4 1.7 0 .6.2 1.1.6 1.4.4.4 1 .5 1.7.5h3.2c.8 0 1.5-.2 1.9-.5.5-.4.7-.9.7-1.5 0-.9-.7-1.4-2-1.4h-1.9l1.7-4.1c.3-.6.4-1.2.4-1.7zM80.1 12.5c-1.9 0-3.6.7-5.1 2.2-1.4 1.4-2.1 3.2-2.1 5.1 0 1.9.7 3.3 2.1 4.3.6.4 1.7.6 3.4.6 1 0 1.9-.1 2.4-.2.6-.2 1.1-.5 1.7-.9.8-.7 1.5-1.5 2-2.6s.8-2.2.8-3.3c0-1.5-.5-2.7-1.5-3.7s-2.2-1.5-3.7-1.5zm.4 8.1c-.4.5-1 .7-1.8.7-1.4 0-2-.6-2-1.8 0-.9.3-1.8 1-2.5.6-.8 1.3-1.1 2.1-1.1.5 0 1 .2 1.3.6.3.4.5.8.5 1.4 0 1-.4 1.9-1.1 2.7z"/></g></svg>