<svg xmlns="http://www.w3.org/2000/svg" viewBox="0 0 105.5 32" style="enable-background:new 0 0 105.5 32" xml:space="preserve"><g style="opacity:.3"><path d="M46.7 7.5v14.1h1.8V14c.9-.3 1.7-.5 2.6-.5 1.4 0 1.9.5 1.9 1.9v6.2h1.8v-6.2c0-2.3-1.3-3.6-3.7-3.6-.9 0-1.7.2-2.6.6V7.5h-1.8zM59.6 15.4c-2 0-3.4 1.1-3.4 2.8v.3c0 2 1.8 3.2 3.8 3.2.9 0 1.8-.2 2.6-.7v.6h1.8v-6.7c0-2-1.3-3.1-3.7-3.1-1.3 0-2.7.2-3.5.6v1.7c1.1-.4 2.4-.7 3.6-.7 1.5 0 1.9.5 1.9 1.4v.5c-.1.1-3.1.1-3.1.1zm3 4.1c-.9.4-1.8.6-2.7.6-1.4 0-2-.6-2-1.5v-.3c0-.6.5-1.1 1.7-1.1h3v2.3zM15.2 13.5v-1.1c0-1.5-.5-2-2.8-2H8V16h4c2.3-.1 3.2-.7 3.2-2.5z"/><path d="M29.1 28.7c1.5 0 2.7-1.2 2.6-2.6V6c0-1.5-1.2-2.7-2.7-2.7H2.7C1.2 3.3 0 4.5 0 6v20c0 1.5 1.2 2.7 2.7 2.7h26.4zM24.5 8.2h3.7l-6.3 7.7 6.8 7.8H25l-6.6-7.8 6.1-7.7zm-18.9 0h6.8c3.4 0 5.1 1.4 5.1 4.1v1.1c0 3.2-2.2 4.5-5.5 4.5H8v5.8H5.6V8.2zM69.5 13.4c1.2 0 2.1.1 3.5.7v-1.7c-.9-.4-2.1-.6-3.5-.6-1.9 0-3.4.9-3.4 2.7v.3c0 3.7 5.8 2.2 5.8 3.9v.3c0 .4-.1 1-2 1-1.2 0-2.5-.2-3.7-.6v1.7c1.1.3 2.2.5 3.7.5 2.6 0 3.8-1.2 3.8-2.7v-.4c0-3.5-5.8-1.8-5.8-3.8v-.4c0-.5.3-.9 1.6-.9zM36.5 11.9v14.5h1.8v-5.1c.7.3 1.4.5 2.3.5 2.4 0 4-1.3 4-3.9v-2.5c0-2.3-1.7-3.6-3.7-3.6-1 0-1.8.2-2.6.6v-.5h-1.8zm4.4 1.6c1.1 0 1.9.5 1.9 1.9v2.5c0 1.7-.8 2.2-2.3 2.2-.7 0-1.6-.3-2.2-.5V14c.9-.3 1.6-.5 2.6-.5zM94.9 11.9h1.8v9.7h-1.8zM94.9 9.2h1.8v1.6h-1.8zM100.2 9v2.9h-1.4v1.6h1.4v5.4c0 1.8 1.1 2.8 3 2.8.9 0 1.6-.1 2.3-.2v-1.7c-.8.2-1.4.3-2.3.3s-1.2-.3-1.2-1.2v-5.3h2.5V12H102V9h-1.8zM83.1 17.4v-2.8c0-1.6-1.3-2.8-3-2.8h-1.4c-2.4 0-3.7 1.2-3.7 3.4v2.9c0 2.3 1.7 3.5 4 3.5 1.3 0 2.4-.2 3.3-.6v-1.7c-1.3.5-2 .7-3.3.7-1.5 0-2.2-.6-2.2-1.8v-.8h6.3zm-6.3-2.1c0-1.3.4-1.7 1.9-1.7h1.4c.8 0 1.2.4 1.2 1.1v1.2h-4.5v-.6zM85.1 7.5v14.1h1.8v-4.5l.6-.5 3.5 5h2.3l-4.4-6.1 4.4-3.6h-2.8L86.9 15V7.5z"/></g></svg>