<svg xmlns="http://www.w3.org/2000/svg" viewBox="0 0 68.9 32" style="enable-background:new 0 0 68.9 32" xml:space="preserve"><path d="M14.1 4.3c-2.4.5-3.1 3-3.1 3L6.9 27.7s43 .5 45.3.4c2.3-.1 2.7-.4 2.7-.4 2.5-.8 2.8-2.7 2.8-2.7L62 4H19.4s-2.9-.2-5.3.3zM41 19.1h-1.3v-6H41v6zm9.4-7.1h1.4v.9h-1.4V12zm0 3h.9v.9h-.9V15zm0 3.2h1.4v.9h-1.4v-.9zM48.9 12h1.3v7.1h-1.3V12zm-.5 0L47 19.1h-1l1.2-7.1h1.2zm-2.8 0 .7 4.1-.5 3-1.4-7.1h1.2zm-3 0h1.3v7.1h-1.3V12zm-4 0h3.5v1h-3.5v-1zm-2.2-.2c.3 0 .6.1.9.2.2.1.4.3.6.5.1.2.2.5.3.7s.1.6.1.9v.5H37v-1c0-.1 0-.3-.1-.4s-.1-.2-.2-.3c-.1-.1-.2-.1-.3-.1v-1zm.3 6.3c.1-.1.1-.2.2-.3s.1-.3.1-.4v-1.1h1.2v.5c0 .3 0 .6-.1.9-.1.3-.2.5-.3.8s-.3.4-.6.5c-.2.1-.5.2-.9.2v-1c.3 0 .4 0 .4-.1zm-2.4-3.8c0-.3 0-.6.1-.9.1-.3.2-.5.3-.8.1-.2.3-.4.6-.5.2-.1.5-.2.9-.2v1c-.1 0-.2.1-.3.1s-.1.2-.2.3c0 .1-.1.2-.1.4v3.9c0 .1 0 .2.1.4 0 .1.1.2.2.3.1.1.2.1.3.1v1c-.4 0-.7-.1-.9-.2-.2-.1-.4-.3-.6-.5s-.3-.5-.3-.8c-.1-.3-.1-.6-.1-.9v-2.7zm-.5 4.8h-1.3l-.3-1.6h-.9l.1-.7h.7l-.3-2.1.5-2.7 1.5 7.1zM31.2 12h1l-.5 2.6-.8 4.5h-1.2l1.5-7.1zm-4 6.3c.1 0 .3-.1.3-.1.1-.1.2-.2.2-.3s.1-.2.1-.4v-3.9c0-.1 0-.3-.1-.4 0-.1-.1-.2-.2-.3s-.2-.1-.3-.1v-1c.4 0 .7.1.9.2.2.1.4.3.6.5.1.2.3.5.3.8.1.3.1.6.1.9v2.5c0 .3 0 .6-.1.9-.1.3-.2.5-.3.8-.1.2-.3.4-.6.5-.2.1-.6.2-.9.2v-.8zm-2.1-4c0-.3 0-.6.1-.9.1-.3.2-.5.3-.8.1-.2.3-.4.6-.5.2-.1.5-.2.9-.2v1c-.1 0-.2.1-.3.1-.1.1-.2.2-.2.3 0 .1-.1.2-.1.4v3.9c0 .1 0 .2.1.4 0 .1.1.2.2.3.1.1.2.1.3.1v1c-.4 0-.7-.1-.9-.2-.2-.1-.4-.3-.6-.5-.1-.2-.3-.5-.3-.8-.1-.3-.1-.6-.1-.9v-2.7zm-1.9-.7c0-.1 0-.2-.1-.3 0-.1-.1-.2-.2-.3-.1-.1-.2-.1-.3-.1h-.5V12h.2c.3 0 .6 0 .9.1s.5.2.7.3c.2.1.3.3.4.6s.1.5.1.8v.5c0 .2 0 .3-.1.5s-.1.3-.3.4c-.1.1-.3.3-.5.3l1 3.5h-1.3l-.8-3.3h-.3v-.8h.4c.1 0 .2 0 .3-.1.1-.1.1-.2.2-.3 0-.1.1-.2.1-.3v-.3c.1-.1.1-.2.1-.3zM20.7 12H22v7.1h-1.3V12zm-1 .5.3.6c.1.2.1.5.1.8 0 .4 0 .7-.1 1-.1.3-.2.5-.4.6-.2.2-.4.3-.6.4-.2.1-.5.1-.9.1v-.9h.1c.2 0 .3 0 .4-.1.1 0 .2-.1.2-.2s.1-.2.1-.4v-.9c0-.1-.1-.2-.1-.3s-.2-.2-.3-.2c-.1 0-.3-.1-.5-.1v6.2h-1.3V12H18v.9h.2V12h.3c.3 0 .6 0 .8.1.1.1.3.2.4.4z" style="opacity:.3"/></svg>