<svg xmlns="http://www.w3.org/2000/svg" viewBox="0 0 68.3 32" style="enable-background:new 0 0 68.3 32" xml:space="preserve"><g style="opacity:.3"><path d="M1.4 8.8h12.3V12H9.6v12.2H5.4V12.1h-4V8.8zM14.3 8.9h12.3l-1.2 3.3h-6.8V15h6.8v3.2h-6.8V21h8.1l-1.2 3.4H14.3V8.9zM35.4 22.4v6.8l-4.2 1.5V12.1h-4V8.8l10.6.1v3.2h-2.4v10.3zM42.7 24.3h-4.2V8.8h10.1c.6 0 1.1.1 1.5.4.4.3.6.7.7 1.4V15.7c-.1.5-.3 1-.6 1.2-.3.3-.6.5-1.1.5v.1h-1.6l3.2 6.8h-4.3l-3.1-6.7V15h3.1v-2.9h-3.8l.1 12.2zM51.4 24.3 57 8.7h4.5l5.3 15.6h-8.7V21h3.4l-2.3-7-3.7 10.3h-4.1z"/></g></svg>