<svg version="1.1" id="e37c00f5-ff96-45aa-87ea-1a24b78ba7bd" xmlns="http://www.w3.org/2000/svg" x="0" y="0" viewBox="0 0 1176.6 803.7" style="enable-background:new 0 0 1176.6 803.7" xml:space="preserve"><style>.st2{fill:#ffe40e}.st4{fill:#acff1d}.st6{fill:#fab301}.st7{fill:#ff821d}.st8{fill:#f26200}.st11{fill:#cfff73}.st12{fill:#98b718}.st14{fill:#dae638}.st15{fill:#00eef0}</style><path d="M263.4 433.5c22-43.3 58-84.3 101.9-105.6-30.3-23.1-47.4-66.8-53.8-103-1.7-9.8 5.8-6.1 8.4-3.9 25.8 21.8 59.3 11.8 89.3 22.1-2.4-5.6-4.7-11.1-7-16.5-18.7-44.3-50.8-87.6-103.4-89.3-3.4-.1-9.3-5.2-.7-8.7 89.9-36.6 205.5-17 262.2 57.8 5.4-42.4 42.3-82.2 71.2-110 34.9-33.6 75.4-51.1 121.4-64.3 5.3-1.5 8.4 2.2 4.5 6.9-27.9 33.4-18.6 85-16.7 125 1.8 39.9.1 81.2-22.6 115.2 26.5-1.1 53.5 3.4 76.9 11.8 50 17.8 102.2 63.9 118.8 115.8 2.1 6.6-1.2 8.7-6.3 6.6-46.7-19.5-99.7 5.2-149.6 10.4C801.2 456 819 534.3 810 601.1c-.9 6.7-6.2 6.2-8.1 1.4-16.4-42.7-75.1-52.8-113-65.9-22-7.6-48.2-18.1-68.8-33.6 1.5 29 1.9 58 2.4 87 13.8.1 72.9 0 104.1 8.3 4.4 1 8.6 2.3 12.1 4.2 6.4 3.5 8.1 8.9 7.6 16.1-.8 11.6-6.7 26.6-8.1 32.9-6.8 30.3-14.2 60.5-21 90.9-3.2 14.2-1.5 32.1-17.1 38.3-19.6 7.8-41.7 8.5-62.4 10-30.9 2.1-61.9 1.6-92.8-.4-16.3-1.1-67.6.1-68.2-25.1-.5-23.7-10.6-49.8-16-72.7-5.9-24.7-12.9-49.6-16.8-74.7-1.1-6.9.7-13.3 14.8-17.5 33.8-10.2 72.5-9.2 107.5-10.1.4-23 1.3-46.1 2.8-69-8.1 3.6-16.4 6.8-24.7 9.9-35.2 13.3-63.5 28.6-88 57.5-2.1 2.5-6.8 3.3-7.7-2.1-4.8-28.7-3.1-61.9 5.6-90-18.2 4.3-35 11.2-47.5 24.7-3.1 3.3-7.5 2.5-7.4-3 .5-24.1 9.7-44.3 18-65.3-42.9-25.1-105-44-148.8-12.6-4.7 4.4-8.1-.9-5.1-6.8z" style="fill:#68182b"/><path d="M610 494.4c-8.6 8.7-18.5 15.4-29.1 20.9-2.8 1.5-4.2 4.2-4.4 7.3-1.5 23.5-3 90.1-3 99.3 7.4.1 14.8.2 22.1.2 6.5 0 13.2.1 20 .1-1.3-41.9-1.1-84-3.5-125.8-.7-.7-1.4-1.4-2.1-2z" style="fill:#b4d345"/><path class="st2" d="M757 483.4c-25-30-63.1-44.9-90.3-72.6-4.5 7.5-9.8 14.4-15.6 20.5-14.1 14.9-33 25.2-53.3 33 10.7 26.2 39.8 41.6 64.1 53.2 23 11 47.9 18 72.1 25.6 24.4 7.6 52.2 21.3 67.5 43.1-5.9-36.5-21.1-74.7-44.5-102.8zM349.1 369.3c28.6-13 61.8-22.1 92.6-11.8 3.6-11.6 8.1-23 14-34-71.9-15.6-135.2 32.8-172.6 91.2 18.6-19.3 41.5-34.3 66-45.4zM392 188.2c23.4 37.5 30.2 97.8 75.5 116.7 18.5-23.7 49.2-42.9 80-47.4-.7-1.9-1.4-3.9-2-5.5-2.3-5.2-4.9-10.3-7.8-15.2-5.9-10.4-13.3-19.9-21.4-28.8-15.8-17.4-35.4-31-56-42.2-23.1-12.5-48.5-22.1-74-28.1-13.7-3.2-27.5-4.3-41.5-5.2-8.9-.6-17.9-1.1-26.8-.3 30.8 7.4 57.3 29.3 74 56z"/><path class="st2" d="M324.9 127.6c18.7-1 38.6 1.9 55.9 5.1 26.4 4.9 52.3 15.3 76.3 27.2 21.4 10.7 41.2 24.5 58.1 41.4 8 8 15.1 17 21.4 26.4 3.7 5.5 6.8 11.3 9.8 17.2 1.6 3.3 2.9 8.7 4.8 12.2 11.1-1.2 22.2-.4 32.7 2.8-22-118.6-152.2-162.3-259-132.3zM749.3 405.4c-.3-.3-.4-.6-.5-1-24.7 1.3-48.4-3.2-70-21.3-2.3 8.4-5.8 16.6-10.1 24.2 28.7 29.7 68.8 45.4 94.9 78.1 20.7 26 34.4 60.9 40.7 94.4 3.2-61.1-15.6-129.3-55-174.4zM428.1 417.7c3.7-19.4 7.1-38.3 12.5-56.5-31.9-10.6-65.9.2-95.2 14-25.2 11.9-48.5 28.7-66.7 49.9 44.2-20.7 100.7-3.3 141.3 20.2 3.3-8.8 6.2-17.9 8.1-27.6z"/><path d="M467.4 664.7c16.7 9.4 37 9.5 56.2 9.8 26 .5 52 1.5 78.1 1.3 26.3-.2 52.7-1.2 78.7-4.8 11.5-1.6 32.1-3.7 44.3-12 3.4-2.3 5.4-5.7 6.3-9.6 2.2-9.6 4.2-19.2 6-28.9-7.7 2.8-18.3 3.4-22.4 3.9-31.3 3.9-63 4.8-94.6 5.1h-.5c-5.7.1-11.3.1-16.9.1-10.9.1-21.9 0-32.8-.1h-.1c-26.3-.3-52.7-1.3-78.9-3.4-8.1-.6-26.9-.4-38.4-5.3 2.1 11.6 4.7 23.2 7.4 34.7 1 5 2.9 6.6 7.6 9.2z" style="fill:#67d8eb"/><path class="st4" d="M450.9 446.3c20-22.9 35.1-49.3 52.9-73.8 15.3-21.1 32.4-40.9 52.2-57.8 14-12 32.4-26.6 51.5-31.9-24-23.5-61-21.1-89.9-8.5-26.8 11.7-46 34.3-59.1 59.8-14.8 28.8-18.2 60.8-24.3 92.1-3.1 16-8.5 30.9-16.3 45.1-5.8 10.5-8.7 20.8-10 31.7 3.3-7.6 7-15 12.3-21.3 9.9-12.1 20.5-23.6 30.7-35.4zM701.4 66.2c-17 18.6-32.8 38.3-46.1 59.7-13.8 22.1-23.5 46.1-31.3 70.8-7.4 23.7-17 50-17.4 75.1 2.2 1.7 4.4 3.6 6.5 5.7 9.3.6 18.2 3.6 26.3 8.3 19.5-15.5 43.7-23.5 68.9-26 .1-.2.2-.5.4-.7 30-41.1 25.4-92.9 22.9-141-1.6-30.1-3.2-63.3 10.8-90.4-13.2 13.2-28.3 24.6-41 38.5z"/><path class="st4" d="M474.5 486.4c39.8-4.9 79.3-14.8 116.9-28.8 38.5-14.4 70.2-38.1 80.7-79.5 8.3-32.7-10.1-76.6-43-89.4-10.3-4-17.8-3.6-27.4.7-5.7 2.5-11.2 5.8-16.6 9-11.9 7.1-22.8 15.7-33.1 24.9-19.2 17.2-35.3 37.6-50.2 58.5-14.7 20.7-27.5 42.6-43.9 62.2-8.6 10.2-17.7 20-26.4 30.1-9.1 10.5-15.6 21-21.1 33.2 18.2-14 40.8-18 64.1-20.9zM567.3 196.3c12.3 19.1 21.1 41.4 25 66.8 3.6 1.6 7.2 3.6 10.6 6 1-23.7 9.7-47.7 16.4-70 7.6-25.3 17.4-49.5 30.9-72.2 12.5-21 27.8-40.2 44-58.4 14.5-16.3 32.1-29.4 47.2-44.9-37.6 11.9-71.2 27.6-101.1 55-31 28.4-72.8 72.7-73 117.7z"/><path d="M595.4 784.4c27.1.1 54.8-1.1 81.6-5.4 11.4-1.8 26.4-3.6 28.3-16.6 3.4-24.1 10.4-48.1 16-71.8 2.3-9.7 4.6-19.5 6.9-29.3-8.3 5.9-20.1 8.2-29.5 10.4-27.9 6.5-57.3 7.2-85.8 7.9-30.9.7-61.8-.6-92.7-1.3-20.2-.4-41.1-1.3-58-12.3 2 8.1 4 16.2 6 24.4 5.5 23.3 11.9 46.6 15.8 70.2 2.1 12.6 10.1 14.5 22.6 17.4 28.4 6.5 59.7 6.2 88.8 6.4z" style="fill:#ad8353"/><path class="st6" d="M392 188.2c23.4 37.5 30.2 97.8 75.5 116.7 18.5-23.7 49.2-42.9 80-47.4-.7-1.9-1.4-3.9-2-5.5-2.3-5.2-4.9-10.3-7.8-15.2-5.9-10.4-13.3-19.9-21.4-28.8-1.3-1.4-2.7-2.9-4.1-4.3 5.2 9.7 5.4 16.8 2.8 27.2-2.5 9.9-7.1 18.6-14.6 25.6-19 17.6-37.4 12.1-52.4-4.3-11.6-12.8-20.7-27.1-28.6-42.4-4.5-8.7-8.8-17.5-15-25.1-5.4-6.5-10.9-12.5-17.6-17.7-7.5-5.7-16.7-10.9-26.5-14.1 12.6 9.8 23.4 21.9 31.7 35.3zM413.6 353c9.4 0 18.9 1.4 28.1 4.5 3.6-11.6 8.1-23 14-34-6.7-1.5-13.3-2.4-19.9-2.7 13.5 10.3-12.2 26.3-22.2 32.2zM666.7 410.8c-4.5 7.5-9.8 14.4-15.6 20.5-14.1 14.9-33 25.2-53.3 33 10 24.5 36.2 39.6 59.5 51-2.5-8.3-4.4-16.9-4.6-25.4-.2-16.3 4.3-47.9 103.8-7.1-25-29.6-62.8-44.5-89.8-72zM749.3 405.4c-.3-.3-.4-.6-.5-1-24.7 1.3-48.4-3.2-70-21.3-2.3 8.4-5.8 16.6-10.1 24.2 10.7 11.1 23.1 20.3 35.7 29.1 6.3-21.3 25.7-23.5 59.3-12.3-4.5-6.6-9.2-12.8-14.4-18.7zM387.1 429.4c11.7 4.6 22.8 10.1 32.9 16 3.3-8.9 6.2-18 8.1-27.7 3.7-19.4 7.1-38.3 12.5-56.5-25.1-8.4-51.5-3.4-75.9 5.8 5.3-1.4 10.7-2.3 16.2-2.2 13.6.2 27.6 4.3 31.1 19 3.1 13.1-3.5 24.9-12.3 34-4 4.1-8.3 7.9-12.6 11.6zM546.1 224.9c-2.9-1.1-5.7-2.5-8.5-3.7-2.7-1.1-5-2.9-7.9-3.3 2.4 3.2 4.7 6.4 6.9 9.7 3.7 5.5 6.8 11.3 9.8 17.2 1.6 3.3 2.9 8.7 4.8 12.2 11.1-1.2 22.2-.4 32.7 2.8-2.5-13.5-6.4-26-11.6-37.6-2.6 2.1-5.5 3.6-8.8 4.3-6 1.6-11.7.5-17.4-1.6z"/><path class="st7" d="M519.1 532.5c29.6-12.5 62.3-20.2 85.6-43.7-5.8-6.5-10.7-13.8-14-21.9-20.2 7.2-41.4 12.2-60.2 16.8-4.2 1-8.5 1.9-12.9 2.7-17.4 9-31.2 22.6-41.5 39.5-5.5 9-9.6 18.9-13 28.9-2.2 6.6-3.4 13.4-5 20.1 17.3-18.5 36.8-32.1 61-42.4zM373.3 324.3c17.9-7.5 37.1-11.7 57-11.4-10.4-7.2-22.5-11.5-33.8-16.9-12.3-5.9-24.1-12.7-35.2-20.6-13.3-9.6-30.2-22.2-39.3-37.5 8.1 32.4 24.4 68.2 51.3 86.4z"/><path class="st7" d="M459.6 316.5c.8-1.4 1.6-2.8 2.5-4.1.3-.4.5-.8.8-1.2-22.8-10.5-36.6-31.2-47.2-53.5-1.5-3.1-3.5-5.4-7.9-7.1-18.6-7.1-37.8-5-57.5-7.1-9.8-1-18.3-4.4-26-9.4 9.7 18 31.3 33.1 46.8 43.4 20.7 13.8 46.7 19.9 65.9 35.6 7.5.5 15 1.6 22.6 3.4zM454.5 573.3c2.1-8.2 3.7-16.5 6.5-24.5 3.7-10.3 8.6-20 14.5-29.2 8.2-12.8 19-23.4 31.6-31.4-14.5 2.1-29.7 3.6-44.4 6.4-8.1 24-10.8 52.6-8.2 78.7zM902.3 383.5c-29.2-26.1-60.1-50.6-96.9-65.1-42.7-16.9-95.1-19.3-139.6-7.7 5.9 8.3 10.4 17.5 13.1 26.5 3.7 12.4 4 25.1 1.8 37.5 62.9 57.7 149.9-12.5 221.6 8.8z"/><path class="st7" d="M802.8 282.3c-46-21.3-114.6-24.4-156.7 8 6.5 4.8 12.3 10.6 17.2 17 45-12.1 96.7-9.6 140.4 6.3 37.4 13.6 69.2 38.5 98.7 64.8-18-42.3-59.6-77.6-99.6-96.1z"/><path class="st8" d="M364.1 317c2.9 2.7 6 5.1 9.2 7.3 17.9-7.5 37.1-11.7 57-11.4-10.4-7.2-22.5-11.5-33.8-16.9-4.9-2.3-9.7-4.8-14.5-7.5 7.5 13.7 7.3 22.6-17.9 28.5zM548.9 494.5c15.8-5 32.4-9.4 48-15.7-2.4-3.7-4.5-7.6-6.2-11.7-20.2 7.2-41.4 12.2-60.2 16.8-4.2 1-8.5 1.9-12.9 2.7-17.4 9-31.2 22.6-41.5 39.5-3.4 5.6-6.3 11.6-8.8 17.6 6.4-5.4 27.1-24.3 38.5-30.9 13.4-8 28.2-13.6 43.1-18.3zM646.1 290.3c6.5 4.8 12.3 10.6 17.2 17 20.8-5.6 43-8 65.2-7.5-20.8-9.4-59-4.2-57.2-23.7-9 3.7-17.6 8.4-25.2 14.2zM784.1 385.9c-15 0-30.5-2.2-43.9-9.4-13.5-7.2-21.6-18.9-27.7-32.6-3.2-7.2-6.1-14.6-9.4-21.8-2.7-5.9-5.7-12.3-10.7-16.5-9 1.2-17.9 2.9-26.4 5.1 5.9 8.3 10.4 17.5 13.1 26.5 3.7 12.4 4 25.1 1.8 37.5 45 41.3 102.2 17.1 157.4 7.8h-.4c-18.1.5-35.9 3.4-53.8 3.4zM418.1 300.5c-.8-.2-1.5-.5-2.3-.7 7.5 3.8 14.8 8 21.2 13.2 7.4.5 15 1.6 22.6 3.4.8-1.4 1.6-2.8 2.5-4.1.3-.4.5-.8.8-1.2-22.8-10.5-36.6-31.2-47.2-53.5-1.5-3.1-3.5-5.4-7.9-7.1-2.9-1.1-5.8-2-8.8-2.7 1.2 5.4 1.5 10.9 2.4 16.6 2 13.3 8.2 25.8 16.7 36.1zM484.2 507.9c6.6-7.7 14.4-14.3 22.9-19.8-14.5 2.1-29.7 3.6-44.4 6.4-3 8.8-5.2 18.1-6.7 27.7 7.3-4.5 14.8-8.5 22.6-12 1.9-.8 3.7-1.5 5.6-2.3z"/><path d="M551.5 512c-6.6 2.8-13 5.7-19.8 8-6.5 2.2-12.9 4.7-19.2 7.5-5.4 2.4-10.8 4.9-16 7.8-4.8 2.7-9.1 6.1-13.9 9-.3.2-.8-.1-.6-.5 1.7-5.2 6.6-9 10.9-12.1 5.6-4 11.5-7.5 17.8-10.4 6.7-3.1 13.7-5.9 20.8-8 6.7-2 13-2.5 19.9-2.7.8 0 .8 1.1.1 1.4zm10.8-5.1c-.8-.3-1.5-.7-2.4-.7-1-.1-2.1.2-2.9.6-.8.4-3.1 1.9-2.1 3.2 1.1 1.3 2.8 1.2 4.2.7 1.8-.5 2.6-1.5 3.5-3 .3-.3.1-.7-.3-.8zm-180.7-237c-4-2.3-8-4.6-11.9-7.1-3.8-2.4-7.6-4.9-11.3-7.6-3.3-2.3-6.3-5.4-10.4-6.4-.3-.1-.5.2-.5.5.7 3.9 3.6 6.9 6.3 9.6 3.4 3.5 7.2 6.5 11.1 9.3 3.7 2.7 7.8 5.1 11.8 7.1 1.9 1 3.9 1.9 5.9 2.6 2.4.8 4.7.6 7.2.9.7.1 1-.9.6-1.4-2.9-2.8-5.2-5.3-8.8-7.5zm-27.2 18.8c-3.9-4.4-6.9-10.1-11.6-13.6-.2-.1-.4 0-.4.2-.4 5.7 3.6 11.3 6.9 15.6 3.7 4.8 7.6 9.8 13.8 11.2.4.1 1-.3.8-.8-2.1-5.1-5.9-8.5-9.5-12.6zM821 301.1c-4.8-3.3-9.9-6.1-15.1-8.7-10.7-5.3-22.1-9.2-33.7-12.1-10.9-2.7-22.2-4.3-33.3-5.3-11.8-1.1-23.1-.3-34.6 2.8-.6.2-.5 1.2.2 1.2 11.1-.8 22.6 1.2 33.5 2.9 10.8 1.6 21.6 3.5 32.2 6 11 2.6 21.7 6.5 32 10.9 4.9 2.1 9.8 4.3 14.6 6.6 5.2 2.6 10.8 4.6 16 7.3.8.4 1.7-.7 1-1.3-4.3-3.5-8.2-7.1-12.8-10.3zm22.9 16.3c-.3-1.1-1.4-2.1-2.4-2.7-1-.6-2.2-1.1-3.3-.8-.5.1-1.3.3-1.5.9-.5 1.8 1.7 3.2 2.9 4 .7.5 2.1 1.1 3 .8-.4.1.6.2.8.1.2-.1.5-.1.6-.4.4-.5.1-1.4-.1-1.9zm-23.7 16.3c-8.8-6.2-17.8-9.9-28.2-12.8-9.5-2.6-19.9-4.2-29.5-1.4-.3.1-.3.6 0 .7 9.2 2.6 18.7 4 27.9 6.4 9.8 2.6 19.3 6.1 29.2 8.4.9.2 1.3-.9.6-1.3z" style="fill:#fdce1a"/><path d="M376.4 380.1c-9 4.5-18.9 6.5-28.2 10.2-9.4 3.7-18.3 8.3-27.7 11.7-.5.2-.8-.5-.5-.9 6.7-7.7 15.7-13.1 25.2-16.9 9.8-3.9 20.1-7.3 30.8-5.9.8.2 1.3 1.3.4 1.8zm47.5-53.1c-4.5-.8-8.9-1.6-13.5-.8-5.3.9-10.4 2.3-15.5 4.1-4.8 1.7-9.6 3.7-14.3 5.8-4.5 2.1-8 4.8-11.8 7.8-.5.4.1 1.2.6 1 4.6-1 8.8-2.2 13.3-3.9 4.6-1.7 9.1-3.6 13.7-5.2s9.3-2.8 14.1-4c4.5-1.1 8.9-2.7 13.4-3.6.7-.1.7-1.1 0-1.2zm41.7-146.9c-5.7-3.5-11.5-6.4-17.7-8.7-5.9-2.1-12.3-4.3-18.6-4.3-.4 0-.5.5-.2.7 5 3.7 10.9 6.2 16.3 9.4s10.8 6.4 16.1 9.8c10.6 6.9 19.7 16 31.3 21.2.8.4 1.5-.4 1.1-1.1-5.5-12.2-17.2-20.1-28.3-27zm65.4-1.3c-7.9-6.2-16.1-10.9-25.4-14.4-.4-.2-.7.4-.4.7 6.6 6.6 13.6 12.7 20.6 19 6.9 6.2 13.1 13.4 21.5 17.6.7.3 1.5-.2 1.3-1-2.6-9.4-10.2-16.1-17.6-21.9zm24 27.9c-3.6-2.5-5.8.5-2.3 3.6 3.8 3.5 6.7-.6 2.3-3.6zm196 301.9c-5.8-5.1-11.7-10-17.9-14.7-11.6-8.7-26.9-17.3-41.9-16.2-.5 0-.7.7-.3 1 6.1 3.5 12.5 6.3 18.7 9.6 6.4 3.5 12.5 7.5 18.3 11.9 5.9 4.5 11.6 9.3 17.2 14.2 2.6 2.2 5.2 4.3 8 6.3 3.2 2.3 6.9 3.7 10.4 5.6.8.4 1.9-.5 1.3-1.3-4.4-5.8-8.2-11.5-13.8-16.4zm26.6 26c-.4-1.1-1-1.9-1.8-2.7-1.5-1.7-3.2-2.7-5.5-2.9-1-.1-1.7 1.1-1.5 2 .5 1.8 1.4 3.1 2.7 4.5.7.7 1.4 1.5 2.3 1.9.9.5 1.7.2 2.7.4.4.1.8-.2.8-.6.2-.9.6-1.7.3-2.6zm-26.5-96.5c3 3.4 5.9 6.8 8.5 10.5 4.8 6.8 8.4 14.4 13.8 20.8.4.5 1.4.1 1.3-.6-.6-8.7-5-16.3-9.9-23.3-2.7-3.8-5.7-7.2-9.1-10.3-2.4-2.2-6.1-4.9-9.5-4.5-.2 0-.4.2-.3.4.8 2.7 3.3 4.9 5.2 7z" style="fill:#fbf686"/><path class="st11" d="M514.1 402.4c14.7-15.4 29.2-31.1 44.3-46.1 7.7-7.6 15.8-14.8 24.2-21.7 8.5-6.9 17.8-13.4 25.2-21.4.7-.7 0-1.9-1-1.7-10.4 2.2-20.3 8.5-28.7 14.9-9.3 7.1-17.9 15.1-26.1 23.5-7.7 7.8-14.8 16.3-22 24.6-7 8.1-14.1 16.9-16.7 27.3 0 .6.5.9.8.6zM473 338.5c5.9-6.9 11.4-14.2 18-20.5 7.4-7 15.6-13 24.3-18.2 16.8-10.1 35.7-14 53.7-21.3.8-.3 1-1.5 0-1.8-20-5.8-41.7 4.7-58.4 15.1-8.9 5.5-17.1 12.4-23.9 20.3-6.6 7.6-12.5 16-14.5 26 0 .4.5.8.8.4zM688.6 104.4c-15.6 16.1-24.1 36.7-31.8 57.4-3.7 10-6.7 20.2-8.2 30.8-1.3 8.7-2.2 19.4 4.6 26.2.5.5 1.4.3 1.5-.4 1.7-8.6 1.4-17.3 3-25.9 1.7-9.6 4.7-19 7.8-28.2 6.7-20.2 14.1-40.2 23.7-59.3.3-.5-.2-.9-.6-.6zM640.9 94.3c-6.3 2.8-11.3 9.4-15.8 14.5-5.2 5.7-9.9 11.8-14.2 18.2-4.4 6.5-8.5 13.3-12 20.4-3.6 7.2-5.9 14.5-8 22.3-.3 1 1 1.4 1.5.6 4.7-6.2 9.3-12.2 13.3-18.9 3.9-6.3 7.6-12.8 11.5-19.1 3.9-6.2 8-12.4 12-18.5 4-6 10-12 12.4-18.9.2-.5-.4-.8-.7-.6zM613.5 309.8c2.4-.3 4.2-.7 6.4-1.7 2.4-1.1 3.7-2.5 5.1-4.7.2-.3 0-.9-.4-.9-2.5-.4-4.1-.3-6.5.9-2.5 1.3-3.9 3.2-5.3 5.5-.3.6.2 1 .7.9z"/><path class="st12" d="M624 196.7c-7.4 23.7-17 50-17.4 75.1 2.2 1.7 4.4 3.6 6.5 5.7 9.3.6 18.2 3.6 26.3 8.3 19.5-15.5 43.7-23.5 68.9-26 .1-.2.2-.5.4-.7 7.3-10 12.6-20.7 16.3-31.8-7.9 8.3-19 12.5-28.9 15.5-3.9 1.2-11.6 3.2-20.4 5.1-30.3 6.4-49.5 2.1-50.3-21.1-.1-4.1-.9-19 2.8-43.1-1.4 4.3-2.8 8.6-4.2 13zM474.5 486.4c39.8-4.9 79.3-14.8 116.9-28.8 38.5-14.4 70.2-38.1 80.7-79.5 2.8-11.2 2.5-23.6-.4-35.7-.2.7-.5 1.4-.8 2.1-3.8 9.3-9.2 18.2-15.3 26.2-13.2 17.4-31 30.7-50 41-19.7 10.6-40.7 18.4-62 25.2-23.6 7.6-47.6 13.8-71.9 18.4-9 1.7-18.1 3.1-27.2 4.4 1.2-1.4 2.3-2.8 3.4-4.2-5.5 6.2-11 12.3-16.5 18.5-9.1 10.5-15.6 21-21.1 33.2 18.3-13.9 40.9-17.9 64.2-20.8zM450.9 446.3c18.3-21 32.5-44.8 48.4-67.5-34.3 36.6-57.6 63-67 55.6-3.2 12.9-8 25.2-14.5 36.9-5.8 10.5-8.7 20.8-10 31.7 3.3-7.6 7-15 12.3-21.3 10-12.1 20.6-23.6 30.8-35.4zM592.3 263c3.6 1.6 7.2 3.6 10.6 6 .6-14.4 4.1-29 8.2-43.2-3.7-8-8.1-15.7-13.1-22.9-4.9-7.2-10.2-14-16.1-20.4-2.9-3.2-6-6.2-9.4-9-.5-.4-.9-.8-1.4-1.1-2.4 7.9-3.8 15.9-3.8 24 12.3 18.9 21 41.2 25 66.6z"/><path d="M610 494.4c-8.6 8.7-18.5 15.4-29.1 20.9-2.8 1.5-4.2 4.2-4.4 7.3-.3 4.1-.5 8.2-.7 12.3 5-2.4 10.3-4.2 15.6-4.6 9.9-.7 17 6.1 22.6 13.5-.4-15.8-.9-31.6-1.8-47.4-.8-.7-1.5-1.4-2.2-2z" style="fill:#aeae38"/><path class="st14" d="M573.8 593.3v.9c-.2 9.3-.3 18.5-.3 27.7 2.3 0 4.6.1 6.9.1-1.4-9.5-3.8-34.7-5.8-61.6-.3 11-.6 21.9-.8 32.9zM606.3 622.1c3.1 0 6.2.1 9.3.1-.6-21.5-.9-43-1.4-64.5-2 6.8-1.9 9.5-2.2 12.1-.8 7-3.6 44.2-5.7 52.3z"/><path class="st15" d="M730.1 608c-6.1-2-27.6-8-107.4-10.3l.6 24.6c36.4.3 74.6.2 108.7-8.9 7.5-2 3.2-3.7-1.9-5.4zM461.3 614.6c18.2 4.9 38.6 4.7 57 5.6 15.8.8 31.7 1.2 47.5 1.5 0-8 .1-16 .2-24.1-65.3 1.8-93.1 7-101.4 8.8-12.8 3-12.9 5.6-3.3 8.2z"/><path d="M714.6 624.5c-31.3 3.9-63 4.8-94.6 5.1h-.5c-5.7.1-11.3.1-16.9.1-10.9.1-21.9 0-32.8-.1h-.1c-26.3-.3-52.7-1.3-78.9-3.4-8.1-.6-26.9-.4-38.4-5.3.3 1.5.5 2.9.8 4.4 6.9 1.6 13.9 2.8 20.7 4 11 2 22.1 3.4 33.3 4.4 22.4 1.9 44.9 2.8 67.3 3.2 22.5.4 45 .7 67.5.3 22.4-.3 44.3-3.7 66.4-6.7 9.2-1.3 18.5-2.7 27.6-4.9.3-1.7.7-3.4 1-5.1-7.8 2.9-18.3 3.5-22.4 4z" style="fill:#d1ffff"/><path d="M698.7 671.7c-27.9 6.5-57.3 7.2-85.8 7.9-30.9.7-61.8-.6-92.7-1.3-20.2-.4-41.1-1.3-58-12.3.4 1.7.8 3.3 1.2 5 4.4 2.9 9.4 5.2 14 7.1 23.2 9.7 45.8 7.2 88.1 7.9 22.9.4 62.6 0 85.5-.4 32.8-.6 65.9-3.2 74.8-14.3.8-3.3 1.6-6.7 2.4-10-8.3 5.9-20.1 8.2-29.5 10.4z" style="fill:#d7bd8c"/><path d="M663.3 754c-49.2 9.7-105.4 7.6-141-2-19.3-5.2-37.7-14.4-46.9-32.2 3.2 13.5 6.3 27 8.5 40.6 2.1 12.6 10.1 14.5 22.6 17.4 28.5 6.6 59.8 6.3 88.9 6.5 27.1.1 54.8-1.1 81.6-5.4 11.4-1.8 26.4-3.6 28.3-16.6 1.4-10 3.5-20.1 5.8-30-5.9 8.6-21.8 16.6-47.8 21.7z" style="fill:#895725"/></svg>