<svg version="1.1" id="e37c00f5-ff96-45aa-87ea-1a24b78ba7bd" xmlns="http://www.w3.org/2000/svg" x="0" y="0" viewBox="0 0 1176.6 803.7" style="enable-background:new 0 0 1176.6 803.7" xml:space="preserve"><style>.st0{fill:#68182b}.st1{fill:#fdc435}.st2{fill:#00eef0}.st4{fill:#65b3bc}.st9{fill:#fee434}.st10{fill:#f1a12b}</style><path class="st0" d="M243.9 284.4c33.2-20 52.9-55.3 74.7-87.8.5-.8 1.3-3.8 1.6-4.6C337.3 131.7 378 78.4 436.1 53.2c34.3-14.9 108.7-18.5 107.7 35.2.8.2 1.7.3 2.5.5 5.1 1.2 10.3 2.9 15.3 4.8 10.2-15.1 24.1-25 41.2-32 20.3-8.4 45.8-15.8 50-40.5.8-4.6 5.1-5.8 8.1-2 20 24.2 34.5 52.7 33.5 84.3 3.7-2.6 7.7-5 12.2-6.8 34.1-14 75.1-10.5 108.8 3 37.5 15.1 59.6 46.2 70.3 84 12.2 42.8 6.9 102.3 47.9 130.4 4.5 3.1 3 6.4-.6 8.9-14.5 10.5-31.2 12.4-48.9 11.5 8.2 59.4-26.8 124.5 1.7 182 2.3 4.6.3 6.8-4.5 7.4-27.6 3.2-56.3-3.3-80.3-17.3-.2 10.1-.3 20.2-.2 30.3.1 4 1.4 8.7-1 12.4-6.7 10.2-20.5 13.8-31.5 16.9-4.4 1.2-8.8 2.3-13.3 3.3l-.3 117.1c0 17.7 2.9 37.9.3 55.5-2.7 18-23.2 26.3-38.2 31.6-34.4 12.3-73.7 11.5-109.8 12.7-37.8 1.2-76.2 0-113.8-3.5-25.5-2.4-53.6-7.7-74-24-11.6-9.2-10-21.8-10-35 0-33.6-.3-67.2-.4-100.8-4 2.6-8.1 5.1-12.3 7.5-3.6 2-6.5 1-7.7-4-10.1-41.6-59.3-67.4-85.5-98.7-30.8-36.8-54.3-80.9-56.4-129.5-1.3-29.3 7.8-60.9 23.8-89.3-9.7-4.3-19-9.4-27.7-15.5-4-2.8-3.9-6.3.9-9.2z"/><path class="st1" d="M627.2 161.4c-12.8 16.1-36.4 26.9-57.5 25.6 12.9 11 22.8 26 29.9 41.8 1-23.2 12.8-44.4 32.8-56.1-1.5-3.9-3.3-7.7-5.2-11.3zM754.6 299.6c-6.8-19.3-26.4-32.9-42.9-43.4-18.4-11.6-39.3-25.5-61.4-27.9-4.4 10.2-.3 25.3 5.1 35.4 6-.2 12 .1 18 1 32.1 4.4 59.3 22.3 77.4 47.1.9-4.3 2.2-8.4 3.8-12.2zM730.5 188.8c9 8.4 17 18.3 24 28.9-.2-11.9-.6-23.7-4.2-35.1-6.6.2-15 1.7-19.8 6.2zM526.2 349.6c1.2 14.4 1.3 29 .8 42.9 7.9-8.7 17.8-15.4 28.7-19.7-.2-8.2.3-16.5 1.6-24.8 0-.2.1-.4.1-.7-10.4-.6-20.8.1-31.2 2.3zM479 246.8c2-4.3 3.8-8.6 5.3-13.1-9.3-20.8-30.5-35.2-52.2-40.7.2 9.9-4 19.4-8.7 28.1 20.7 3.6 39.6 12.3 55.6 25.7zM557.1 185.4c-19.9 0-43.2.5-58.7 14 .2 5.8-.1 11.7-1 17.5.3.3.7.6 1 1 7.2 10.2 11.9 20.4 15.8 31 8.8-4.6 15.9-13.5 21.7-21.2 9.7-12.5 16.6-27.1 21.2-42.3z"/><path class="st1" d="M482.2 152.3c9.4 13.1 14.4 27.3 15.8 41.8 15.9-12 38-13 57.6-13.1-20.6-18.1-48.1-29.3-75.5-31.4.7.9 1.5 1.8 2.1 2.7zM417.6 311.4c15.7-8.2 35.5-10.4 52.7-10.6 12.6-.1 28.5 1.5 39.5 9.2-3.7-11.6-8.6-22.8-15.1-33-7.9-12.4-17.8-22.2-29.1-29.7-26.3 10.9-39.2 38.2-48 64.1zM652.4 489.8c-1.4-17.7-3.6-35.4-4.7-53.2-1.8-30.5 1.2-61 16.6-87.6-20.5 6.5-33.4 26.4-42.2 45.2-12.6 26.9-15.7 60-6.7 88.4 13.6 15.9 27.4 30.4 37 49.3 3.7-12.9 1-29.3 0-42.1zM386.9 196.8c-9 7.2-14.6 18-20 28.3 10.7-3.5 21.7-5.5 33-5.7 6.5-.1 12.8.3 19 1.1 4.9-8.9 9.9-19.2 8.8-29.5-13-8-29.6-3.2-40.8 5.8zM428.1 182.4c1.6-17.7 0-34.1-10.4-49.4-17.3 1.5-34.4 8.9-48.5 18.7 23.8 1.5 44.3 11.2 58.9 30.7z"/><path class="st1" d="M414.4 307.1c8.9-25.3 22-50.9 46.7-62.7-21.2-12.6-46.8-17.5-72.8-15.8-4.6.3-9.1 1.1-13.5 2.1 10.6 6.6 18.1 18.6 23.9 29.2 8.1 14.4 13.6 30.7 15.7 47.2zM515.7 253.1c2.3 6.6 4.5 13.5 6.9 20.6 2.8 8.2 7.6 14.3 13.6 19 24.4-25.7 27.4-66.4 23.4-100.7-7.8 22.9-22.2 50.6-43.9 61.1zM422.7 132.6c10.2 16.1 11.5 33.3 9.6 52 11.2-14.4 27.3-23.9 45.4-23.1-4.5-6.7-10.3-12.8-17.8-18-11.5-8-24.3-11.1-37.2-10.9z"/><path class="st1" d="M539.9 295.2c10.2 6.3 23 9 35.3 9.3 9.6-13.1 22.3-23.4 36.8-30.4-.3-.3-.6-.5-.8-.9-6.1-10.2-9.7-21-11.1-31.6-7.5-20.4-19.4-41-36.6-54 4.7 36.1 2.3 79.9-23.6 107.6zM483.2 104.1c-10 6.4-17.7 16.3-21.4 30.2 5.2 3 10 6.5 14.2 10.7 29.2 1.2 58.9 12.6 81.2 31.6-2.4-38.4-37.4-67.8-74-72.5zM301 283.8c17.9-6.2 38.2-4.3 56.4-.1 17.9 4.2 39 12 52.9 25.3-1.9-15.4-7-30.3-13.9-44.3-5.9-11.8-14.8-26.9-27.6-32.5-27.1 8.3-49.8 29-67.8 51.6zM434.3 189.1c21.1 5.7 41.2 19.3 51.7 38.6 5.6-21.1 4.8-43.2-5.5-61.6-18.7-2.3-35.3 7.9-46.2 23zM790.1 320.7c-1.4 9.4-2 19.3-2.2 29.1 22.1 8.8 35.6 32.8 46.4 52.7 12.5 23.1 22.8 46.3 31.9 70.4-.7-13.8.3-27.8 2.1-41.8-.3-26.8-11.4-53.2-26.6-74.9-10-14.2-32.2-39.8-51.6-35.5zM875.9 336.9c-3.2-22.6-12.9-43.6-32.1-58.3-8.1-6.2-16.9-9.4-25.6-10.2-.3.3-.5.6-1 .9-9.5 5.7-16.1 14.9-20.6 26 12.1-6.4 28.4-.4 40.2 5.3 16.6 7.9 29.8 20.8 39.1 36.3zM517.4 406.8c2.8-28.7 2.3-59.9-5.3-88.7-10.5-12.6-31.9-13.2-46.9-12.8-15.7.5-33.9 3.3-47.9 11.4 32.6 16.9 50 51.9 60.2 85.8 10.7 35.7 14.3 74.3 11.9 111.6 15.3-33.6 24.4-70.3 28-107.3zM749.5 176.3c-6.9-23.6-13.2-60.1 4-79.5-11.9.1-23.7 1.7-35.1 4.9-6.3 1.8-12.4 4.7-17.8 8.5 1 29.4 22.2 55.1 48.9 66.1zM578.5 577.6c1.1-.8 2.2-1.6 3.3-2.5 12.5-38.9 10.4-82.9.6-122.2-2.1-3-4.1-6.1-5.9-9.2-6.5-11-11.5-22.4-15-34.3-17.3 28.5-23.5 61.7-21.9 94.9 1.6 33.6 17.1 65.2 15.4 98.9 6-9.9 14.1-18.5 23.5-25.6zM429 472.3c3.5-50.5-3.1-101.3-16.8-149.9-27.2 33.1-41.6 75.3-49.8 116.9-4.5 22.6-6.6 45.6-6.8 68.7-.1 9.7.4 19.3 1.2 29 1.1 12.2 1.9 25.9 7.2 37 .1.2 2.5 2.8 3.6 4 11.7 11.3 21.9 23.8 27.4 39 7-21.2 14.8-42.2 20.9-63.7 7.4-26.4 11.2-53.8 13.1-81zM637.6 55.4c-17.2 24.4-9.2 57.8-12.8 86.2 3.4 4.5 6.4 9.2 9.1 14 22.9-34.9 41.8-83.1 25-123.7-4 10.3-11.8 17.6-21.3 23.5zM676.3 507.1c22.2-48.4 23.8-112.2-7.4-157.1-17.7 29.6-18.7 63.6-16.1 97.3 1.2 16.5 3.3 33 4.5 49.5.6 8.8 1.9 19.1.9 28.6 5.5-6.8 11.6-12.8 18.1-18.3zM737.3 309.7c-14.8-16.2-34.2-28.5-56.4-34.6-2.9-.8-5.8-1.4-8.7-1.9-11.8 18.1-7.4 44.5-3.5 65.3 11.9-20.8 44.9-35.8 68.6-28.8z"/><path class="st1" d="M559.2 338.7c2.3-9.3 5.8-17.9 10.4-25.7-16.2-1.2-31.4-6.3-43.8-17.7-7.1-6.6-10.5-15.9-13.5-24.9-5.1-15-9.3-28.5-17.3-41.6-2.2 8.2-5.3 16.3-9.3 24.2 4.2 4.1 8.1 8.4 11.8 13.2 16.5 21.3 24.4 47.7 27.7 74.8 11.3-2.4 22.6-3.2 34-2.3zM607.1 472.5c.6.7 1.1 1.4 1.7 2.1-6.1-27.5-1.9-57.2 9.6-82.6 8.8-19.6 23.2-40.2 44.3-47.1-22.1-12.3-44.1-.8-60.2 17.6-16.9 19.3-27.2 45-22.2 70.3 7.7 14.3 17.1 27.6 26.8 39.7zM667.5 272.4c-30.9-4-57.9 8.1-76.6 29.1 26.8-8.2 57.2 11.5 72.9 34.4-3.8-20.7-7.1-45.5 3.7-63.5zM645.5 228.8c-16.7 7.5-29.2 23.3-25.2 41.7 9.6-3.6 19.8-5.9 30.3-6.6-5.2-10.4-8.5-24.3-5.1-35.1z"/><path class="st1" d="M612.8 209.5c-6.2 15.6-6.2 34.3 2.4 52.4.8-15.7 12-28.8 26.6-36.1-10.4-1.9-23.6-7.7-29-16.3zM585.1 308.7c-13.8 18.8-21.6 42.9-20.9 68.5.4 15.2 4.4 30 10.5 44-.4-23.4 10.8-45.7 26.5-63.8 15.7-18 38.1-27.6 59.3-18.4-15.9-23.6-48.7-44.6-75.4-30.3zM668.6 172c-15.8 5.9-22.4 34.2-18.6 50 10.4-9.6 25.9-13.1 39.5-14.4 19.6-1.9 39.1 2.9 56.1 12.5-13.1-18.5-29.7-33.9-52.4-42.9-8.5-3.5-16.8-5-24.6-5.2zM520.6 61c-.4 9.3-4.6 17.5-9.6 25.3 7.8-.8 15.9-.6 23.9.5-.4-11.9-6.1-20.2-14.3-25.8zM477.8 51.5c7 14.7 3.4 31.1-1 46.6 8.3-5.7 18.1-9.2 28.5-11 5.8-8.7 11.3-17.9 10.9-28.7-11.2-5.8-25.8-7.5-38.4-6.9zM489.3 100.7c37.3 7.4 71.3 38.3 72.3 78.1 18.3-14.6 22.5-49.3 11.3-69.4-2.9-1.6-5.9-3.2-8.9-4.7-22.6-11.1-52.6-14.5-74.7-4zM456.7 122.5c1.1-2.4 2.2-4.7 3.5-6.8-14.6-17.2-35.6-32.3-58.7-31.8-.3 0-.6-.1-.8-.1-11.8 8.9-22.4 19.5-31.7 31.3 29.6-6.1 60.2-6.3 87.7 7.4z"/><path class="st1" d="M406.5 79.6c22 1.5 42 15.7 56.2 32.3 2.4-3.4 5.2-6.4 8.2-9.1 4.9-16.6 10.6-35 2.1-50.9-23 2.3-45 13.5-63.9 25.9-.9.5-1.7 1.2-2.6 1.8zM882.6 218.3c-16.2-16-31.2-31.2-53.5-39.1-21.6-7.6-45.3-6.6-67 0 33.3 7.2 63 36.7 83.7 61.4 12.7 15.1 21.6 32.7 33.8 48 10.5 13.1 24.6 21.1 40.2 25.7-25.5-23.8-31-60.2-37.2-96zM770.5 97.7c-3.6-.4-7.2-.7-10.8-.8-19.5 17.2-12.9 54.3-6.1 77.8 18.9-29.9 65.7-52 99.6-37.7-20.2-23.9-51.9-35.7-82.7-39.3zM595.6 112.7c9.4 7 18 15.1 25.3 24 2.5-25.7-2.7-53.8 9-77-12 6.1-24.1 10.4-35.1 16.3-3.5 12-1.5 24.6.8 36.7zM590.5 109c-1.8-9.9-2.9-20.1-1-29.9-7.4 4.6-14.1 10.2-19.8 18.1 7.2 3.3 14.2 7.3 20.8 11.8zM875.9 515.8c-3.4-7.9-5.8-15.9-7.4-23.9-10-28.5-21.2-55.9-35.6-82.7-10.6-19.8-23.2-45.1-45-54.6 0 10.2.6 20.1 1.2 29 14.7 20.3 20.1 46.5 29.4 69.5 10.7 26.4 24.8 49.9 50 63.1 2.5-.1 5-.2 7.4-.4z"/><path class="st1" d="M798.4 494.9c.6.2 1.2.6 1.7 1.1 4.8 3.2 9.9 6 15.2 8.4-22.5-25-29.4-68.5-32.9-98.1-4.3-37.1-9.8-106.2 20.8-136.9-23.7 5.2-43.7 27.2-44.9 53.7 10 17.3 16 37.2 16.6 57.7.7 22.4-6.3 44.1-17.5 63.4.2.3.5.6.6 1 7.7 20.5 22.3 37.4 40.4 49.7zM257.7 285.7c10-1.4 20.2-1.3 30.3-2.3 19.7-25.2 45-45.7 73-56.2 7.5-14.2 14.9-28.1 28.4-37.6 9.7-6.8 23.6-9 35-4.9-14.8-19.6-36.2-28.5-60.8-28.7-.1.1-.2.1-.3.2-14 11.2-25.1 24.9-35.1 39.3-.2.3-.3.5-.5.7-21.8 31.3-38.8 66.4-70 89.5zM922.6 319.6c-13.1-3.2-25-8.7-35.7-17.4-13.9-11.3-21.8-27.8-31.8-42.2-12-17.3-26.3-32.7-42.1-46.5-14.7-12.8-33-26.1-52.6-30.2 23.6 20.1 29.1 55.2 47.3 77.9 21.6-2.1 44.6 6.5 59.6 28.6 7.9 11.6 12.7 23.6 15.3 36 13.9.8 27.9.3 40-6.2zM484.2 524.6c3.7-37.7.7-76.2-8.6-112.8-8.9-35-26.1-72.7-59.1-90.6 13.8 49.2 20 100 17 151.1-1.5 25-5.3 50-11.2 74.3-6 24.6-15.3 48.2-23.2 72.2 37.7-23.1 65.7-56.1 85.1-94.2zM281.2 482.5c-.4-9.3.8-18.9 1.6-27.2 2.2-23.5 9.7-46.4 20.9-67.2 20.1-37.3 62.1-72.2 106-73.2-12.9-13.9-33.1-21.5-50.7-26.3-20.2-5.5-44.3-7.5-63.5 2.2-3.6 4.8-7 9.7-10.1 14.5-27.5 41.7-36.5 90.1-21.5 137.9 4.1 13.5 10.1 26.7 17.3 39.3z"/><path class="st1" d="M340 553.5c5.5 4.9 11.3 9.7 17 14.7-5.5-16.9-5.6-37.3-5.9-54.3-.4-23.2 1.9-46.5 5.8-69.4 7.6-44.4 23.1-90 52.1-125.2-41.5 1.3-79.4 33.7-99.8 67.9-11.8 19.6-18.7 42.2-21.7 64.8-1.5 11.6-3.6 26.6-1 39.3 14.8 23.5 33.7 44.7 53.5 62.2zM666.7 41.7c10.2 40.2-8.2 85.1-30.5 118.3 1.4 2.9 2.8 5.8 3.9 8.7 6.1-2.6 12.9-4.3 20.1-5.1 5.9-4.6 10-11.8 13.1-18.6-1-12 3.4-23.8 11.8-33.2 0-.2-.1-.3 0-.4 2.9-25.5-5.1-48.9-18.4-69.7zM511.3 563.9c-4.2-11-6.6-22.6-8.9-34.2-1.1-5.3-2-10.8-2.6-16.3-4.8 10.8-10.3 21.3-16.4 31.4 8.4 6.3 18.2 12.4 27.9 19.1zM877 348.2c-8-16.8-19.9-30.4-35.9-40.3-12.4-7.7-34.9-17.6-47-5.1-1.3 4.3-2.4 8.8-3.2 13.5 19.6-2.9 38.3 18.3 49.6 31.4 15.1 17.6 26.3 41 30.4 64.8 2.3-15 4.7-30.1 5.8-45.1.6-6.5.7-12.9.3-19.2zM564.6 182c21.3 3.7 47.9-7.6 60.2-24.7-10.8-18.1-27.1-32.8-45.2-43.9 8.6 21.9 3 53.9-15 68.6zM637.4 522.5c-13.8-21.6-32.7-39.9-48.4-60.5 7.5 35.4 8.6 73.7-1.3 108.5 18.6-14 36.3-28.2 49.7-48zM518 568.6c13.2 9.6 25.4 20.3 32.7 33.8 1-19.5-4.1-38.5-8.9-57.4-4.2-16.9-6.8-33.7-7-51.1-.4-31.6 7.9-63.5 25.1-90.1-2.2-8.6-3.5-17.4-4-26.4-11.4 4.7-21.8 12.4-29.3 22.3-1.9 35.5-9.6 71.2-23 104.4 0 8.2 1.3 16.4 2.9 24.4 2.7 13.7 5.6 27.4 11.5 40.1zM615.2 204.3c3.2 9.8 20 16.5 30.3 17.7-3.3-15 1.7-38.6 13.9-49.4-19.8 2.6-35.7 14.9-44.2 31.7zM781 269.7c6.7-3.9 14-6.6 21.6-7.9-17.8-24-22.6-58-47-76.7 3.4 12.9 3.2 26.4 3.4 39.8 9 14.6 16.2 30.3 22 44.8zM667.1 163.2c.8 0 1.6-.1 2.5-.1 3.4 0 6.8.3 10 .7-2.3-3.8-3.9-7.6-5-11.5-2 3.9-4.5 7.6-7.5 10.9zM727.3 376.4c-9.3-14.7-36-36-55-29.4 30.9 43.8 30.9 105.3 11.4 154.2 4.8-3.7 9.8-7.2 14.9-10.6 15.7-10.6 29.5-22 40.5-35.7 7.3-27.3 3.7-53.8-11.8-78.5zM275.2 301.7c2.9-4.6 5.9-9.2 9.2-13.5-10 .8-20.2.7-30.1 2.5 6.6 4.1 13.6 7.8 20.9 11z"/><path class="st1" d="M745.4 446.4c5.8-8.4 10.6-17.7 14.5-28.2 13.3-36.3 5.1-73.1-16.1-100.8-21.9-13.7-61.6 2.9-72.2 25.3 19.2-5.7 43.9 11.7 55.1 25.5 18.3 22.3 23.5 50.8 18.7 78.2zM364.8 120.3c-11.9 16-21.5 33.7-28.7 52 18.2-22.7 39.9-41.1 72.1-47 14.8-2.7 31.2-.9 45.6 5.1.4-1.3.7-2.6 1.2-3.8-28.2-14.3-59.8-13.1-90.2-6.3zM842.7 512.7c2.2.8 10.5 3.2 16.9 3.3-18.1-11.6-30.2-28.5-39.8-49.1-11.2-23.8-16.3-51.8-29.9-74.4.3 3.1.5 6 .8 8.8 3.1 35.7 12.2 97.5 52 111.4zM859.6 145.4c-31.9-21.1-81.7.5-101.6 30.6 23.5-7.7 48.4-8.5 72.2-1 21 6.6 36 20.9 51 35.8-3.9-21.6-8.5-42.7-18.5-60.4-.9-1.7-2-3.3-3.1-5zM773.6 274.7c-6.2-15.9-13.3-31.6-22.1-45.9-16.8-11.5-35.8-17.3-56.3-17.1-13.7.1-30.4 3.4-41.3 12.7 22.6 3.6 43.5 17.6 62.5 29.6 15.6 9.8 32.9 22.9 40.8 40.3 4.2-7.8 9.8-14.4 16.4-19.6zM696.4 113.5c-14.7 12.7-21.4 32.2-5.9 50.6.5.7 3.2 2.7 4.3 3 12.1 3.9 22.9 10.5 32.6 18.8 4.4-4.2 10.8-6.3 17.2-7.2-25.9-11.9-45.9-36.6-48.2-65.2z"/><path class="st2" d="M468.1 567.4c11.8.7 23.5 1.1 35.3 1.5-8.6-5.8-17.3-11.2-24.7-16.7-3.4 5.2-6.9 10.3-10.6 15.2zM792.4 501.2c-17.5-12.1-31.8-28.5-40.5-48.3-3.6 5.3-7.4 10.3-11.5 15.1-24.8 28.8-62 40.5-82.9 73.4-3.1 4.8-7.3 6.3-10 .1-1.6-3.7-3.4-7.2-5.3-10.6-9.8 13.5-21.4 25-34.4 35.7-1.6 1.3-3.2 2.6-4.8 3.8 47.6-.2 95.9-.5 142.8-8.2 14.3-2.3 29.6-5.5 42.1-13 9.6-5.9 5-35.8 4.5-48z"/><path d="M746.2 571.4c-50.2 9.8-104.4 7.5-154.8 7.7-14.4 10.9-28.1 22.2-34.6 40.1-1.7 4.8-7.6 5.6-9.1-.6-4.1-16.8-16.8-29.6-31.4-40.6-18.3-.5-36.6-1-54.8-2.3-12.8 15.5-27.4 29.5-44 41.4.2 29.7.3 59.3.4 89 0 12.8-4.1 33.9 5.1 44.3 18.5 21.1 60.5 23.2 85.7 25 30.7 2.1 61.6 3 92.3 2.4 34.1-.6 69.2-1.3 102.5-9.3 17.4-4.2 43.2-12.3 42.6-33.6-1.4-54.4-.1-109 .1-163.5z" style="fill:#67d8eb"/><path class="st4" d="M528.3 610.4c.9.5 1.7 1 2.6 1.5 2.3 1 4.4 2.4 6.7 3.4 2.9 1.2 6.3 2.1 9.8 2.4-4.4-16.4-16.8-28.8-31.1-39.6-18.3-.5-36.6-1-54.8-2.3-12.8 15.5-27.4 29.5-44 41.4 0 6.3.1 12.7.1 19 42-27.4 79.5-43.3 110.7-25.8zM591.4 579.1c-13.8 10.5-27 21.3-33.8 38.1 18.7-18.6 44.5-24.2 74-21.3 18.6 1.8 37.7 3.2 56.4 2.5 18.4-.7 36.8-2.7 54.8-6.1 1-.2 2.1-.4 3.1-.7.1-6.7.1-13.5.1-20.2-50 9.8-104.2 7.5-154.6 7.7z"/><path d="M751.9 452.9c-3.6 5.3-7.4 10.3-11.5 15.1-24.8 28.8-62 40.5-82.9 73.4-.1.1-.2.2-.3.4 5.3-3 10.2-7.4 15.2-10.6 6.5-4.3 13.1-8.5 19.8-12.6 13.4-8.1 26.9-16.2 39.7-25.3 12.2-8.7 15.3-4.3 26.5 3.4 6.1 4.2 12.9 7.6 19.7 10.6 4.9 2.1 9.9 4.1 15.2 5.2-.3-4.3-.7-8.3-.8-11.2-17.6-12.2-31.9-28.6-40.6-48.4z" style="fill:#00b2b6"/><path d="M745.4 741.8c-41 42.7-236.6 32.5-278.9 23.9-22.2-4.5-40.6-13.6-47.8-23.5.9 3.1 2.3 6 4.3 8.3 18.5 21.1 60.5 23.2 85.7 25 30.7 2.1 61.6 3 92.3 2.4 34.1-.6 69.2-1.3 102.5-9.3 15.5-3.8 37.4-10.5 41.9-26.8z" style="fill:#a9f7ff"/><path d="M675.8 559c3.4 1.1 7.3.6 10.9.5 4-.2 8.1-.5 12.1-.8 7.5-.6 14.9-1.4 22.3-2.5 7.7-1.1 15.4-2.5 23-4.5 7.9-2 15.4-5.1 23.1-7.6.3-.1.2-.5-.1-.5-7.5 1.5-15 2.2-22.5 3.3-7.7 1.2-15.5 2.5-23.2 3.6-7.8 1.1-15.6 2.1-23.4 2.9-3.7.4-7.5.6-11.3.9-3.5.3-7.5.1-10.9 1.4-1.5.6-1.7 2.7 0 3.3z" style="fill:#8bfcfc"/><path d="M756.6 196.8c.2 1.5.3 2.9.5 4.4.3-1 .4-2.1.3-3.2-.1-.5-.4-.9-.8-1.2z" style="fill:#f26200"/><path class="st9" d="M417.9 373.4c-.6-5.2-1.6-10.3-3.1-15.3-.7-2.3-1.8-4.5-3-6.5-1.2-2.1-3-2.8-4.4-4.6-.4-.5-1.2.1-1 .6.2 1.2-.3 2.8-.3 4-.1 2.5.3 5.1.4 7.6.3 5.2.6 10.5.9 15.7.6 10.7 1.2 21.4 1.4 32.2.3 11.1.4 22.3.2 33.4-.1 5.8-.1 11.5 0 17.3.1 5.5-.4 11.3.1 16.7.1.9 1.4 1.5 1.9.5 4.9-9.4 6.8-21 8.2-31.4 1.7-12.1 1.9-24.3 1.5-36.5-.2-11.3-1.4-22.5-2.8-33.7zM455.6 387.5c-3.5-10.2-8.3-18.7-14.2-27.6-.3-.5-1.2-.2-1 .4 2.4 9.2 4 18.6 6.3 27.9 2.5 9.9 4.2 20 5.8 30.1 1.5 9.6 2.3 19.4 2.8 29.1.6 10.2 2.4 20.3 3.4 30.5.1 1.1 1.6 1.4 1.9.3 2.7-9.6 4.7-19.1 5.2-29 .6-10.6-1.1-21.5-2.7-32-1.5-10.1-4.2-20-7.5-29.7zM358.8 346.6c-15.6 4.9-26.1 20.1-34.5 33.3-8.5 13.4-16.4 29.8-18 45.7-.1.7.9.9 1.3.3 8.1-13.3 14.2-27.6 22.7-40.8 8.6-13.4 20.7-24 29.6-37.2.5-.6-.3-1.6-1.1-1.3zM370.6 339.1c-1.6-1-4.2-.4-5.5 1-1.1 1.2-2.8 3.6-.8 4.9 1.9 1.2 4.1-.2 5.5-1.4.8-.8 2.2-3.6.8-4.5zM352.5 293.2c-9.3-1.4-18.8-.9-27 4.1-.3.2-.3.7.1.8 8.3 1.1 16.6.9 24.9 2.5 8.5 1.6 16.4 6.4 25.1 7 .8.1 1.1-.8.8-1.4-4.5-8.6-15.1-11.7-23.9-13zM372.2 250.6c-.4-.1-.7.4-.4.7 7.7 9 12.1 20.2 19.1 29.6.4.6 1.3.4 1.3-.4 1.1-11.6-7.7-28-20-29.9zM441.2 251.4c-11.7-3.6-21.4 10-21.7 20.5 0 .4.5.7.8.3 6.4-7.3 13.8-13.3 21.2-19.4.6-.4.3-1.2-.3-1.4zM463.6 292.9c.4-.2.5-.9.2-1.2-4.7-4-10.2-3.1-16-1.9-5.3 1.1-12.2 3.2-14.4 8.7-.1.2.1.4.3.4 4.8.2 9.6-1.9 14.2-2.9 5.5-1.1 10.6-.5 15.7-3.1zM367.7 168.8c-9.6 2.3-20.2 7.8-23 18-.1.3.3.7.6.5 7.6-5.2 15.2-9.5 24.4-11 4.6-.7 9.4-.8 14.1-.4 4.4.3 8.7-.3 13-.8.8-.1 1.6-1.2.8-1.9-8.7-7.1-19.5-6.9-29.9-4.4zM417.5 196.3c.4-.2.4-.7.1-1-2-2-3.6-2.5-6.4-2.4-2.3.1-4.3 1-5.7 2.9-.2.2-.1.7.2.8 1.8.8 3.5 1.1 5.5 1.2 2.6.1 4.1-.4 6.3-1.5zM439.1 202.7c3.2 3.3 7.2 5.8 10.4 9.1 1.1 1.2 5.6 6.4 7.4 3.3 2.2-3.8-3.3-8.4-5.8-10.3-3.4-2.7-7.5-4.2-11.7-2.8-.4.1-.5.5-.3.7zM459.5 179.8c-2.7-1.1-5.8-.1-8.4.9-2.6 1.1-3.8 2.8-4.9 5.3-.2.4.1.9.6.7 4.2-1.4 9.3-.3 13.3-2.5 2.1-1.1 1.3-3.7-.6-4.4zM441.1 165.8c1.6-.3 3.2-.8 4.8-1.3 1.9-.5 3.9-1 4.6-3 .2-.5 0-1.2-.4-1.6-3.1-2.5-10.9 1.1-9.7 5.5.1.3.4.5.7.4zM413.7 149.8c-.1 0-.3.1-.3.3.4 2.7 1.5 5.2 2.5 7.8.5 1.3.7 2.7 1.4 4 .7 1.4 1.6 2.2 2.6 3.3.3.3.9.2 1.1-.1 1.6-3.4 1.2-5.7-.3-9.2-1.3-3-3.7-5.8-7-6.1zM529.5 147.8c1.9 2.5 4.1 3.8 6.6 5.5.6.4 1.3-.1 1.3-.8.1-8.2-5.7-13.8-11.6-19-5.8-5.1-12.5-9.2-20.4-9-.4 0-.6.6-.2.8 6.1 3.8 11.8 8.9 16.9 14 2.7 2.7 5.1 5.6 7.4 8.5zM564.3 156.9c.2.5.9.9 1.3.4 4.6-5.5 4-12.3 2.3-18.9-1.3-5.1-4.9-13.2-11.1-13.2-.3 0-.5.3-.4.5.9 5 4 9.3 5.1 14.4 1.3 5.7.8 11.3 2.8 16.8zM602.7 162.1c-3.6 1.4-6.8 3.3-10.1 5.1-3.9 2.1-7.5 3.2-10.9 6.1-.2.2-.1.6.2.6 7.5 2.8 21.8-1.4 21.8-11.2-.1-.4-.6-.8-1-.6zM545.3 192.7c-8.4-4.5-19.4.9-25.2 7.1-.3.3-.1.9.3.8 8-1 19.1-.3 25.1-6.5.3-.3.3-1.1-.2-1.4zM552.1 230c-.2-.3-.6-.1-.8.1-1.6 2.2-2.2 5-2.9 7.6-.9 3.4-2.1 6.8-3.5 10.1-2.7 6.3-5.6 12.1-6.9 18.9-.1.6.5 1.3 1.1.9 5.8-4.3 9.9-10.1 12.3-17 2.1-5.9 5.1-15.2.7-20.6zM573.3 212.7c-.2-.2-.6 0-.5.3 1.8 5.9 3.7 11.9 5 18 .6 2.9.9 5.8 1.2 8.7.3 3.5 1 5.4 2.8 8.3.3.5 1.1.7 1.5.2 9.4-10.9-1.6-27.5-10-35.5zM655.2 60.2c.1 9-2 18.2-4.9 26.6-1.5 4.4-3.5 8.6-5.2 12.9-1.8 4.4-2.7 8.8-4 13.3-.2.8.8 1.4 1.3.8 3.1-3.3 6.1-6.1 8.2-10.1 2.5-4.8 4.2-10 5.7-15.1 2.7-9.5 3.5-19.4-.6-28.5 0-.4-.5-.2-.5.1zM616.9 91.7c1.5-3 1.6-6 1.8-9.3.2-3.5.7-7.7-1.4-10.7-.2-.4-.7-.3-.9 0-2.1 3-2.6 7.2-3.1 10.7-.4 3.5-.3 6.9 2.4 9.4.3.4.9.3 1.2-.1zM489.5 56.9c-.4 0-.6.5-.3.8 6 5.8 6.4 14.7 11.5 20.8.4.5 1.1.2 1.2-.3 2.8-8.2-3.3-20.6-12.4-21.3zM429.7 74.4c6.6-1.9 13.4-3.8 20.2-5.1 7.1-1.4 14.2-.5 21.3-1.4.8-.1 1.4-1 .7-1.7-5.5-5.8-13.4-4.8-20.8-3.6-8.3 1.3-16 5-21.9 10.9-.4.4-.1 1.1.5.9zM394.2 99.2c4.9-1 9.9-1.5 14.8-1.7 4.7-.2 8.7.6 13.2-1.2.6-.2 1-1 .4-1.5-7.6-6.5-23-4.3-29 3.4-.4.5-.1 1.2.6 1zM368 131.2c2.2.1 4.5-1.2 6.4-2.1 2.6-1.2 4.7-2.2 7-4 .8-.6.1-1.7-.7-1.7-3.3-.3-5.8.1-8.7 1.5-2.1 1-4.9 3.3-4.4 5.9-.1.2.2.4.4.4zM790.6 121.1c-5.4-4.1-10.9-5.4-17.6-5.6-5.6-.1-12.2.5-15.9 5.2-.2.3-.2.8.2.9 5.1 1.2 10.5.4 15.6.8 6.2.5 11.3 1.6 17.4 0 .8 0 .8-.9.3-1.3zM815.6 155.1c3.5-.4 5.4-1.9 8.5-3.2.8-.3.9-1.2.2-1.7-3-2.1-4.9-3.4-8.7-3.6-3.7-.1-7.9 1-11.5 2.1-7.5 2.2-14.6 5.8-19.7 11.7-.4.4 0 1 .6.9 6.7-1.1 13.2-3 19.8-4.5 3.5-.7 7.1-1.3 10.8-1.7zM796.9 180.4c-.3.2-.4.6-.1.9 2.5 2.4 6.4 3.2 9.6 4.3 4.7 1.6 9.7 2.7 14.4 4.3 9.2 3.1 17.6 8.1 26.3 12.3.8.4 2-.3 1.7-1.3-3.2-9.9-12.5-14.7-21.7-18-5.2-1.9-10.6-3-16.1-3.8-4.3-.6-10.3-1.1-14.1 1.3zM804.5 212.3c-5.4-4.9-10.9-8.4-18.1-9.7-.2 0-.4.2-.2.3 4.9 4.2 9.6 8.9 14.1 13.5 3.9 4.1 7.4 9.2 12.8 11.3.5.2 1.2-.3 1.1-.9-.6-6-5.4-10.6-9.7-14.5zM679.2 220.7c9.3 2.2 19.2 1.6 28.6 3.2 9.5 1.6 19 4.3 28.4 6.5.7.2 1.2-.7.7-1.2-7.7-7.4-16.9-10.2-27.3-11.8-9.7-1.5-21.7-2.8-30.6 2.3-.3.3-.2.9.2 1zM836.5 283.6c3.2 4.2 7.3 7.5 10.8 11.5 3.7 4.2 6.4 8.4 11.4 11.2.6.3 1.4-.2 1.2-.9-1.7-5.7-4.9-9.7-8.8-14.1-3.8-4.2-8.2-8.4-14.2-8.4-.4 0-.7.4-.4.7zM852.4 325.1c-7-7-16.6-12.5-26.7-12.6-.3 0-.6.5-.3.7 7.2 5.7 14.7 11.1 21.2 17.7 6.6 6.6 10.7 15.2 17.6 21.6.6.5 1.3.1 1.4-.6 1.2-10.7-6-19.6-13.2-26.8zM818.7 346.6c6.3 7.1 12 15.4 16.8 23.6s8.2 16.7 13.9 24.4c.5.7 1.7.5 1.7-.5-.3-10.3-4.3-18.8-9.6-27.5-5.6-9.2-12.4-16.3-22.1-20.9-.6-.1-1.1.5-.7.9zM846.4 470.4c-.3-6.2-.8-12-2.7-18-2.1-6.8-4.7-13.5-7.3-20.1-2.5-6.3-5.4-12.5-8.2-18.6-2.7-5.7-5.7-12.3-10.5-16.5-.2-.2-.6-.1-.6.3.3 5.9 3.1 11.4 5.2 16.9 2.5 6.6 5.3 13.2 7.8 19.8 4.7 12.5 8.6 25 15 36.7.4.4 1.3.1 1.3-.5zM847.1 475.1c-.2 0-.3 0-.4.2-1.1 1.4-.7 3.2-.3 4.8.5 2 1.9 4 4.1 4 .8 0 1.5-.5 1.7-1.3.5-2-.6-3.6-1.8-5.1-1-1.1-1.7-2.3-3.3-2.6zM669.2 369.1c-.3-.3-.7 0-.6.4 1.3 7.4 3.3 14.6 4.5 21.9 1.3 8.1 1.6 16.5 1.6 24.7 0 8.1-.6 16.2-1.2 24.4-.6 7.2-1.2 15.4.5 22.5.2.9 1.5 1 2 .3 4.1-6.5 5.7-15.2 6.7-22.8 1.1-8.6 1.4-17.3.9-26-1-15.3-4-33.5-14.4-45.4zM639.6 377.9c-4.3 4.2-7.7 8-10.5 13.5-2.9 5.9-5 12.1-6.5 18.5-1.5 6.5-2.4 13.2-2.7 19.9-.3 6.5 1.2 12.3 2.6 18.5.2.9 1.6.9 1.8 0 1.2-5.2 2.8-10.3 3.3-15.6.7-6.4 1.2-12.9 2.2-19.3 1.7-11.7 4.9-24.4 10.6-34.8.5-.6-.3-1.2-.8-.7zM716.3 384.7c-2-6-5.2-11.8-9-16.8-4.2-5.5-9.7-9.3-14.8-13.8-.4-.4-.9.1-.7.5 2.5 5.5 5.6 10.2 8.9 15.3 3.4 5.3 5.8 10.9 7.8 16.9 1.8 5.6 2.7 11.3 3.6 17.1 1 6.4 2.7 12.3 4.2 18.6.2.8 1.4.8 1.5 0 1.4-6.1 3-11.7 2.6-18.1-.6-6.6-2.1-13.3-4.1-19.7zM717.4 319.5c-9.1.5-18.4 3.6-23.9 11.2-.3.5.3 1 .8.8 7.3-4.1 16.2-5.3 24.4-5.6 7.9-.2 15.5 2.8 23.3 2 .7-.1 1.4-.9.9-1.6-5.4-7.5-17.2-7.2-25.5-6.8zM705.1 304.7c.3-.4.4-1 0-1.3-4.4-4.1-12.1-.6-16.7 1.4-5.7 2.5-13.3 6.6-14.9 13.1-.1.3.2.7.6.6 5.2-1.5 10-4.8 14.9-7 4.9-2.3 12.7-2.4 16.1-6.8zM652.9 282.9c-.1-.4-.6-.5-.9-.2-4.2 4.1-4.2 12-3.7 17.5.6 5.9 2.4 12.2 7.8 15.4.6.3 1.4-.1 1.3-.8-.1-5.4-2.4-10.2-3.4-15.4-.9-5.4.4-11.3-1.1-16.5zM636.7 330.6c-5-5.4-12.2-3.2-18.3-.7-7.3 3-12.5 7.6-15.9 14.5-.2.4.2.9.7.7 4.8-2.9 10.2-5.5 15.2-7.9 5.7-2.7 11.9-3.1 17.8-4.8.8-.3 1-1.2.5-1.8zM563.3 510.4c-1.9-8.1-3.4-16.2-4.1-24.5-1.5-16-.6-32.3 1.4-48.2.1-.5-.7-.7-.9-.3-7.6 15.1-10.5 31.6-9.6 48.5.5 8.5 1.7 17.1 4.3 25.3 2.2 7.1 5.4 16 11.4 20.8.6.5 1.6.2 1.6-.7.1-6.8-2.6-14.3-4.1-20.9zM568.8 536.2c-.4-.1-.9 0-1.1.5-.8 1.6-.3 3.6.4 5.1.9 1.9 1.8 3.9 4.1 4.1.4 0 1-.3 1.2-.7.9-1.9-.1-3.6-.9-5.3-.8-1.5-2-3.3-3.7-3.7zM467.8 318.7c-8.5-4.3-19.6-6.9-28-1.2-.5.3-.3 1 .3 1.1 17.6.2 32.9 8.7 44.8 21.3.6.6 1.4 0 1.3-.8-1.5-10.1-9.8-16-18.4-20.4zM672.7 80c-.2-.3-.7-.2-.7.2.5 13.1-5.3 25.1-5.4 38.1 0 .8.9.9 1.3.4 7.6-9.9 12.9-27.7 4.8-38.7z"/><path class="st10" d="M587 357.7c-.8-8.4.7-16.9 5.3-24 5.6-8.5 15-15.7 23.8-20.7 3-1.7 6-3 9.2-4.1-13.1-5.8-27.3-7.1-40.2-.2-13.8 18.8-21.6 42.9-20.9 68.5.4 15.2 4.4 30 10.5 44-.3-17.5 5.9-34.4 15.6-49.4-1.7-4.6-2.9-9.5-3.3-14.1zM590.9 301.5c5.9-1.8 11.9-2.2 17.9-1.6 1-1.6 2.1-3.2 3.4-4.6 4.9-5.9 11.2-10.3 18.2-13.6 7.4-3.4 15.5-5.3 23.7-5.5 3.7-.1 7.4.2 11.1.8.7-1.6 1.5-3.1 2.4-4.6-31-4-58 8.2-76.7 29.1zM637.7 257.2c-1.6-.4-3.3-.8-4.9-1.4-3-1.1-5.6-2.7-8.3-4.2-.7-.4-1.4-.8-2-1.3-2.8 6.1-3.8 13-2.2 20.2 9.6-3.6 19.8-5.9 30.3-6.6-1.2-2.3-2.2-4.9-3.2-7.5-1.4.4-2.9.7-4.2.9-1.7.2-3.8.4-5.5-.1z"/><path class="st10" d="M597.6 431.6c-5-6.9-8.9-14.7-12.2-22.6-1.3-3.1-2.4-6.1-3.4-9.3-3 10.7-3.7 21.9-1.5 33.1 7.6 14.2 17 27.6 26.7 39.7.6.7 1.1 1.4 1.7 2.1-2.5-11.1-3.2-22.7-2.5-34.1-3.5-2.4-6.4-5.5-8.8-8.9zM525.3 340.9l4.8-.9c-.1-.3-.3-.6-.4-1-3.2-8.9-5.6-18.1-7.6-27.3-2.1-9.4-3.8-18.8-4.9-28.4-2-4.1-3.5-8.5-5-12.8-5.1-15-9.3-28.5-17.3-41.6-2.2 8.2-5.3 16.3-9.3 24.2 4.2 4.1 8.1 8.4 11.8 13.2 16.7 21.1 24.6 47.5 27.9 74.6zM472.4 200.5c-.9 2.3-2.1 4.4-3.5 6.4 7 5.9 12.9 12.8 17.3 20.8 5.6-21.1 4.8-43.2-5.5-61.6-4.9-.6-9.6-.3-14.1.6 3.3 5.2 5.8 10.9 6.9 17 .8 5.7 1 11.3-1.1 16.8zM674.9 258.3c-5.9-.4-12.1-1.6-17.8-3-2.2-.5-4.4-1.7-6.4-3 1.2 4.1 2.9 8 4.7 11.4 6-.2 12 .1 18 1 32.1 4.4 59.3 22.3 77.4 47.1.9-4.3 2.2-8.4 3.8-12.2-6.8-19.3-26.4-32.9-42.9-43.4-3.3-2.1-6.7-4.2-10.1-6.4-2.2 1.8-4.5 3.7-7 5.1-6 3.3-13 3.9-19.7 3.4zM612.8 209.5c-6.2 15.6-6.2 34.3 2.4 52.4.4-8.7 4.1-16.7 9.9-23.3-.6-2-.9-4-1-6-.1-3.3.7-6.4 1.4-9.7.2-.9.4-1.7.6-2.6-5.6-2.7-10.5-6.3-13.3-10.8zM484.2 233.7c-2.2-4.9-5-9.4-8.3-13.5-3.5 2-7.2 3.7-11.1 4.9-4.7 1.4-9.7 2.2-14.5 2.5-1.1.1-2.1.1-3.2.2 11.5 4.6 22.3 11 31.9 19 2-4.2 3.8-8.6 5.2-13.1zM693.2 177.1c-8.6-3.4-16.8-5-24.7-5.1-4.9 1.8-9 5.9-12.1 11 6.9-.2 13.3 1.8 20.1 3.9 8.8 2.8 17.1 6.6 25.2 11 6.5 3.5 13.4 7.1 18.9 12.1 8.7 2.2 17.1 5.6 24.9 10-12.9-18.5-29.6-33.9-52.3-42.9zM422.7 132.6c1.6 2.4 2.9 4.9 4 7.4 5.9.4 11.5 2.5 16.6 5.6 5.5 3.3 10.3 7.7 14.4 12.6 1.4 1.7 2.9 3.4 4.3 5.1 5-1.5 10.2-2.2 15.7-1.9-4.5-6.7-10.3-12.8-17.8-18-11.5-7.9-24.3-11-37.2-10.8zM667.1 163.2c.8 0 1.6-.1 2.5-.1 3.4 0 6.8.3 10 .7-2.3-3.8-3.9-7.6-5-11.5-2 3.9-4.5 7.6-7.5 10.9zM512.1 156.3c-10.4-3.5-21.2-5.8-32-6.6.7.9 1.4 1.7 2.1 2.7 9.4 13.1 14.4 27.3 15.8 41.8 5.8-4.4 12.4-7.3 19.4-9.2-2.7-3-4.3-6.8-5.2-10.8-1.2-5.2-1.6-11-.6-16.2.2-.6.4-1.2.5-1.7zM527.5 301.2c1.6 3.6 3.2 7.6 5.6 10.8 2.3 3.2 5.5 5.4 9.6 5.5s8.1-1.5 12-2.5 7.9-1.7 11.8-2.3c-15-1.6-29-6.7-40.6-17.3v.2c-.1 1.9.8 3.8 1.6 5.6z"/><path class="st10" d="M696.2 293.2c8.3 1.5 15.9 5.7 21.8 11.6 1 1 2 2.1 3 3.2 5.7-.4 11.2.1 16.4 1.6-14.8-16.2-34.2-28.5-56.4-34.6-2.9-.8-5.8-1.4-8.7-1.9-5.3 8.1-7.3 17.8-7.6 28 1.8-1.5 3.7-2.8 5.7-3.9 7.7-4.2 17.1-5.5 25.8-4zM630.8 217.9c.7.3 1.5.6 2.2.9-.5-.5-1.2-.9-2.2-.9zM512.4 191.1c-5.1 2-9.8 4.7-14 8.3.2 5.8-.1 11.7-1 17.5.3.3.7.6 1 1 7.2 10.2 11.9 20.4 15.8 31 3.1-1.6 5.9-3.7 8.6-6.1-.6-.8-1.2-1.7-1.7-2.6-3.4-5.5-6-11.5-7.6-17.7-1.9-7.4-2.5-15-2-22.7.1-2.8.5-5.7.9-8.7zM633.9 484.1c-8.1-6.8-13.4-17.8-17-27.6-3.3-9.1-4.8-18.6-5-28.2-2.8 18.2-1.8 37.2 3.6 54.4 13.6 15.9 27.4 30.4 37 49.3 3.6-12.9.9-29.3-.1-42.1-.1-.8-.1-1.6-.2-2.4-1 .3-2 .6-2.9.7-5.6 1.1-11.1-.5-15.4-4.1zM270.4 290.2c-.4-.4-.7-.8-1-1.2-5.1.3-10.1.8-15.2 1.7 6.7 4.2 13.7 7.8 20.9 11l3.3-5.1c-2.9-1.7-5.7-3.9-8-6.4zM385.6 132c6.9-3 14.4-5.3 22.6-6.8 14.8-2.7 31.2-.9 45.6 5.1.4-1.3.7-2.6 1.2-3.8-14.6-7.3-30.1-10.6-45.9-11.1-.8.7-1.6 1.3-2.5 2-4.6 3.7-9.5 7-14.4 10.2-2.1 1.6-4.3 3-6.6 4.4zM816.5 297.6c-8.3-1.6-16.6-.8-22.4 5.2-1.3 4.3-2.4 8.8-3.2 13.5 9.3-1.4 18.4 2.7 26.7 8.8-1.2-3.1-2.1-6.3-2.7-9.6-.9-4.9-.9-10.2.5-15 .2-1.1.6-2.1 1.1-2.9zM809.3 371.3c-6.1-7.1-13-13.1-21.4-16.7 0 10.2.6 20.1 1.2 29 8.6 11.9 14 25.8 18.9 39.9-.1-.5-.3-.9-.4-1.4-2-7.7-3.5-15.5-3.6-23.5-.1-7.3 1.2-14.1 3.2-21.1.3-.8 1.3-3.4 2.1-6.2z"/><path class="st10" d="M822.8 269c-1.5-.3-3-.5-4.6-.6-.3.3-.5.6-1 .9-9.5 5.7-16.1 14.9-20.6 26 12.1-6.4 28.4-.4 40.2 5.3l2.4 1.2c-.4-.3-.8-.5-1.2-.8-4.8-3.3-10-7-13.2-12-2.8-4.5-4-9.9-3.4-15.2.4-1.7.8-3.2 1.4-4.8zM422.3 525.8c-12.5 18.8-47 37.2-66.6-6.1.2 5.7.5 11.5 1 17.2 1.1 12.2 1.9 25.9 7.2 37 .1.2 2.5 2.8 3.6 4 11.7 11.3 21.9 23.8 27.4 39 7-21.2 14.8-42.2 20.9-63.7 2.6-9 4.7-18.2 6.5-27.4zM707.7 137.7c.4-.9.8-1.9 1.2-2.8 3-5.8 7.5-10.7 13-14.2 5.6-3.7 12-6.4 18.5-8.4 1.7-.5 3.5-1 5.2-1.4 1.8-5.3 4.3-10.1 7.9-14.1-11.9.1-23.7 1.7-35.1 4.9-6.3 1.8-12.4 4.7-17.8 8.5.3 9.7 2.9 19 7.1 27.5zM534.9 86.8c-.3-7-2.4-12.8-5.7-17.5-.6.6-1.3 1.3-2 1.8-2.3 1.9-5 3.3-7.9 4.1-.8.2-1.7.4-2.5.6-1.6 3.6-3.6 7.1-5.8 10.5 7.9-.8 15.9-.6 23.9.5zM754.6 217.8c-.1-5.5-.2-10.9-.7-16.3-2.7-1.3-5.2-2.8-7.6-4.5-3.1-2.3-6-4.9-8.6-7.8-.9-1.1-1.8-2.2-2.6-3.3-1.7.8-3.3 1.8-4.6 3 9.1 8.3 17 18.2 24.1 28.9zM388.4 228.6c-4.6.3-9.1 1.1-13.5 2.1 7.8 4.9 14 12.7 19 20.7 5.5-4 11.7-7 18.3-8.5 8.6-2 17.7-1.1 26.1 1.4 4.4 1.3 8.7 2.9 12.7 5.1.3.2.6.3.9.5 2.9-2 6-3.9 9.3-5.4-21.3-12.7-46.8-17.6-72.8-15.9zM536.7 366.2c-1.1-5.9-1.1-12.1-.5-18.3-3.3.4-6.7 1-10 1.7 1.2 14.4 1.3 29 .8 42.9 4.4-4.8 9.4-9 14.9-12.6-.4-.6-.7-1.2-1.1-1.8-2-3.7-3.3-7.8-4.1-11.9zM615.2 204.3c1.9 5.7 8.3 10.3 15.4 13.4-.7-3.2-1.3-6.4-1.3-9.6 0-5.9 1.5-11.6 4.2-16.9 2.6-5 6.1-9.5 10.1-13.4.5-.5 1-.9 1.5-1.4-13.2 5.4-23.6 15.4-29.9 27.9zM471.6 300.8c12.4 0 27.6 1.7 38.1 9.2-3.7-11.6-8.6-22.8-15.1-33-7.9-12.4-17.8-22.2-29.1-29.7-2.7 1.1-5.2 2.4-7.7 3.9.6.3 1.1.7 1.7 1.1 2.7 1.9 5 4.7 7.1 7.2 4.3 5.1 7.5 11.4 8.6 18 1 5.7.7 11.6-1 17.2-.6 2.2-1.5 4.2-2.6 6.1zM374.7 235.7c-1.9-1.3-3.8-2.5-5.9-3.4-27.1 8.2-49.8 28.9-67.8 51.5 11.6-4 24.2-4.6 36.6-3.4-16.5-16.2 29.2-40.6 37.1-44.7zM757.2 339.8c2.4 8.7 3.6 17.7 2.3 26.7-1.1 7.6-4.1 15-9.3 20.8-2.6 2.9-5.5 5-8.7 6.7 6.1 16.6 7.1 34.8 4 52.4 5.8-8.4 10.6-17.7 14.5-28.2 9.9-27.2 7.8-54.7-2.8-78.4zM755.9 248.7c-2.2 3.2-5.9 5.3-9.7 6.1-9.7 1.8-20-3.3-28.8-6.6-8.3-3.1-16.7-6-25.1-8.9 8.3 4.7 16.3 9.9 24.1 14.8 15.6 9.8 32.9 22.9 40.8 40.3 4.2-7.8 9.8-14.3 16.4-19.5-4.4-11.3-9.3-22.5-14.9-33.2-.2.5-.5 1-.7 1.7-.5 1.8-.9 3.5-2.1 5.3zM257.7 285.7c10-1.4 20.2-1.3 30.3-2.3 19.7-25.2 45-45.7 73-56.2.2-.4.5-.9.7-1.3-1.5.2-2.9.5-4.4.6-7.4.8-14.7.5-21.8-1.6-6.2-1.9-11.2-5.3-15.7-9.8-1-1-1.8-2-2.5-3.1-17.4 26.7-33.5 54.4-59.6 73.7zM597.4 99.4c-1.7-1.3-3-3-4.4-4.6.4 6 1.4 12 2.6 17.9 9.4 7 18 15.1 25.3 24 1.1-11.4.7-23.3 1-35.1-3.5 1-7 1.7-10.9 1.9-4.8.2-9.7-1.2-13.6-4.1zM434.7 114.5c7.5 1.8 14.9 4.4 22 8 1.1-2.4 2.2-4.7 3.5-6.8-4.9-5.8-10.5-11.3-16.7-16.1 2.7 5.1 2.5 9.8-8.8 14.9zM490.5 81.9c-3.2-1.1-6.3-2.7-9.1-4.6-.8 7-2.6 14-4.5 20.8 8.3-5.7 18.1-9.2 28.5-11 .5-.7.9-1.4 1.4-2.1-.7 0-1.4-.1-2.2-.1-4.9-.4-9.6-1.4-14.1-3zM457.2 92.3c-4.7 1.3-9.8 1.6-14.8 1 7.5 5.3 14.4 11.7 20.3 18.5 2.4-3.4 5.2-6.4 8.2-9.1 2.3-7.7 4.7-15.8 5.8-23.8-1.5 1.5-3 3-4.7 4.5-4.2 3.8-9.2 7.3-14.8 8.9zM489.3 100.7c13.7 2.7 27 8.6 38.4 17 10.4-6.7 26-16.2 50.9 9.7-.9-6.6-2.7-12.8-5.6-18-2.9-1.6-5.9-3.2-8.9-4.7-22.7-11.1-52.7-14.5-74.8-4zM690.4 164.1c.5.7 3.2 2.7 4.3 3 9.1 2.9 17.5 7.4 25.2 13 .2-.7-.1-1.7-1.2-2.7-2-1.9-4.6-3.3-6.6-5.2-2.2-2-4.2-4.2-6.1-6.5-3.6-4.6-6.7-9.7-9.2-14.9-2.9-6-4.9-12.4-6.1-18.9-.7-3.6-1.2-7.6-1-11.5-9.6 12.2-12.1 28.4.7 43.7zM640.1 168.7c6.1-2.6 12.9-4.3 20.1-5.1 5.9-4.6 10-11.8 13.1-18.6-1-12 3.4-23.8 11.8-33.2 0-.2-.1-.3 0-.4.1-.6.1-1.2.2-1.8-6.2 3.5-11.1 14-12.9 17.1-5.9 10-11.7 18.7-17.3 12.8-1.6-1.7-2.6-4.1-3.3-6.5-4.7 9.6-10.1 18.6-15.6 27 1.4 2.9 2.8 5.8 3.9 8.7zM636 129.6c-3.6-4.8-6.5-10.2-9.2-15.5-.3-.7-.6-1.3-.9-2 0 10 .1 20-1.1 29.5 3.4 4.5 6.4 9.2 9.1 14 3.7-5.7 7.3-11.7 10.7-18-3.4-1.9-6.3-4.8-8.6-8zM340 553.5c5.5 4.9 11.3 9.7 17 14.7-5.5-16.9-5.6-37.3-5.9-54.3-.2-11.1.2-22.3 1.1-33.4-28 39.7-55.6 6.8-61.8-44.9-1.2 5.5-2.2 11-2.9 16.5-1.5 11.6-3.6 26.6-1 39.3 14.8 23.4 33.7 44.6 53.5 62.1zM844.8 231.9c-8.4-7.4-16.5-15.1-25.9-21.4-2-1.3-4-2.6-6.1-3.7 12.5 10.6 23.7 22.7 33 33.8 12.7 15.1 21.6 32.7 33.8 48 10.5 13.1 24.6 21.1 40.2 25.7-19.2-17.8-27.1-42.8-32.5-69.3-9.4 13.2-34.1-5.7-42.5-13.1zM806.7 460.1c-1.1-8.6-1.8-17.2-1.8-25.9 0-2.3.1-4.6.1-6.9-4.2-12.1-8.7-24.1-15.2-34.9.3 3.1.5 6 .8 8.8 2.1 24 6.9 59.7 21.8 84.8-.1-.2-.1-.4-.2-.6-2.3-8.3-4.4-16.8-5.5-25.3z"/><path class="st10" d="M281.2 482.5c-.4-9.3.8-18.9 1.6-27.2 1.4-14.9 4.9-29.6 10.2-43.7-16-19.2-12.2-90.9 35.3-127.6-11.4-.1-22.8 1.8-32.8 6.8-3.6 4.8-7 9.7-10.1 14.5-27.5 41.7-36.5 90.1-21.5 137.9 4.1 13.5 10.1 26.7 17.3 39.3zM590.5 109c-.6-3.1-1.1-6.3-1.4-9.4-2.4.3-4.9.3-7.3-.1-2.9-.5-5.7-1.5-8.2-3-.8-.5-1.5-1-2.2-1.6-.6.7-1.2 1.5-1.7 2.3 7.2 3.3 14.2 7.3 20.8 11.8zM922.6 319.6c-13.1-3.2-25-8.7-35.7-17.4-13.9-11.3-21.8-27.8-31.8-42.2-4.5-6.6-9.4-12.8-14.6-18.9-.4.2-.8.3-1.3.5-3.2.9-6.6 1.2-9.9 1-7.1-.3-14.1-2.4-20.5-5.5-6.3-3-12-7.1-17.2-11.7-2.2-2-4.3-4.1-6.3-6.2-1.7-3.5-3.5-7.1-5.2-10.6-.3-.7-.8-1.2-1.3-1.6 10.1 18.1 16.6 38.9 28.8 54.2 21.6-2.1 44.6 6.5 59.6 28.6 7.9 11.6 12.7 23.6 15.3 36 14 .8 28 .3 40.1-6.2zM770.5 97.7c-3.6-.4-7.2-.7-10.8-.8-5 4.4-8.3 10.2-10.3 16.7 2.6-1.4 5.3-2.7 8.2-3.7 8.3-2.7 17.2-3 25.6-.9 8 2 17.1 6.4 21.7 13.5 2.6 3.9 3.8 8.2 2.9 12.9 0 .2-.1.3-.1.4 15.5-4.4 31.6-4.7 45.5 1.1-20.2-23.8-51.9-35.6-82.7-39.2zM798.4 494.9c.6.2 1.2.6 1.7 1.1 4.8 3.2 9.9 6 15.2 8.4-22.5-25-29.4-68.5-32.9-98.1-.1-1.1-.2-2.2-.4-3.3-2.6-6.2-5-12.5-7.1-18.9 0 21.3-6.8 41.8-17.5 60.1.2.3.5.6.6 1 7.7 20.5 22.3 37.4 40.4 49.7zM484.2 524.6c1.8-18.4 2-36.9.6-55.4-6.3 40.6-41.2 98.2-67.4 94.6-5.6 18.5-12.4 36.7-18.5 55 37.9-23.1 65.9-56.1 85.3-94.2zM605.8 188.8c-3.5 3.2-7.1 6.3-10.9 9.1-2 1.4-4 2.8-6.2 3.9-1.3.7-2.5 1.2-3.6 1.9 5.7 7.7 10.5 16.3 14.5 25.1 1-23.2 12.8-44.4 32.8-56.1-1.5-3.9-3.2-7.7-5.2-11.3-3 3.8-6.7 7.3-10.8 10.5-.3 1.9-1 3.8-1.8 5.5-2.3 4.3-5.2 8-8.8 11.4zM616.9 513.5c4.1 7.7 6.7 16.1 8 24.7 4.4-4.9 8.6-10 12.4-15.7-13.8-21.6-32.7-39.9-48.4-60.5 1.6 7.4 2.8 14.8 3.8 22.4 12.5 9.8 19.8 20.7 24.2 29.1zM567.2 553.7c-9.3-8.5-13.6-21.7-17.1-33.4-4.1-13.4-6.8-27.4-7.7-41.4-.4-5.3-.5-10.5-.4-15.8-2.3 13.5-3 27.4-2.4 41.3 1.6 33.6 17.1 65.2 15.4 98.9 6-10 14.1-18.6 23.6-25.7 1.1-.8 2.2-1.6 3.3-2.5 1.6-4.9 2.9-10 4.1-15-6.7.6-13.1-1.1-18.8-6.4zM658.2 525.3c5.5-6.7 11.6-12.7 18.2-18.3 4.4-9.5 7.9-19.6 10.6-30.1-3.1 2.7-6.2 5.3-9.6 7.6-4.5 3-9.4 5.7-14.4 8-1.9.8-3.8 1.6-5.8 2.3 0 .7.1 1.3.2 2 .5 8.7 1.8 19 .8 28.5z"/><path class="st10" d="M518 568.6c13.2 9.6 25.4 20.3 32.7 33.8.6-11.7-1-23.2-3.4-34.6-3.7-.1-7.5-1-11.2-3.1-9.7-5.3-15.7-15.5-19.1-25.6-3.2-9.7-4.2-19.9-5.3-30 6.5-16.1 11-33.1 14.1-49.9 2.2-12 3.6-24.1 3.8-36.3.1-6.6-.1-13.2-.7-19.8 0-.4-.1-.9-.1-1.4 1-1.5 1.1-3.4.2-5-.8 1-1.6 1.9-2.4 3-1.9 35.5-9.6 71.2-23 104.4-.1 8.2 1.3 16.4 2.9 24.4 2.7 13.7 5.6 27.4 11.5 40.1zM399.9 219.4c6.5-.1 12.8.3 19 1.1.7-1.3 1.5-2.7 2.2-4.1-6.3-.2-13.7-.9-19.1-4.4-4.9-3.3-9.1-9.3-11.1-14.9-.3-.9-.5-1.8-.7-2.7-1.2.8-2.3 1.6-3.3 2.4-9 7.2-14.6 18-20 28.3 10.7-3.5 21.8-5.5 33-5.7zM737.3 397c-.2 2.8-.5 5.5-.9 8.3-1.7 10.6-5 21.1-10.9 30.1-5.7 8.7-13.6 15.7-23.2 19.7-2.3.9-4.6 1.7-7 2.2-2.1 15.2-6.1 30.1-11.7 43.9 4.8-3.7 9.8-7.2 14.9-10.6 15.7-10.6 29.5-22 40.5-35.7 5.4-19.9 4.9-39.3-1.7-57.9zM575.2 304.6c9.6-13.1 22.3-23.4 36.8-30.4-.3-.3-.6-.5-.8-.9-6.1-10.2-9.7-21-11.1-31.6-.2-.4-.3-.9-.5-1.3-1.5 2.1-2.9 4.3-4.5 6.3-4.6 5.7-9.8 11.1-15.7 15.4-5.6 4.2-11.9 7.6-18.5 9.9-2.2.8-4.4 1.4-6.6 1.9-3.7 7.8-8.4 15.1-14.4 21.5 10.2 6.2 23 8.8 35.3 9.2zM808.6 337.9c.1-4.3.4-8.7 1.6-12.8-6.6-3.8-13.6-5.8-20.1-4.3-1.4 9.4-2 19.3-2.2 29.1 10.5 4.2 19 11.8 26.3 20.7-.3-1-.7-2.1-1-3.1-2.6-9.7-4.7-19.6-4.6-29.6zM403.1 146.1c5.1-2.9 10.8-5.1 16.6-5.9.7-.1 1.4-.1 2.1-.2-1.2-2.4-2.5-4.7-4.1-7-17.3 1.5-34.4 8.9-48.5 18.7 7.6.5 14.9 1.8 21.8 4 3.5-3.8 7.5-7.1 12.1-9.6zM501.8 530.1c.2-.3.3-.5.5-.8-1-5.2-2-10.6-2.5-15.9-4.8 10.8-10.3 21.3-16.4 31.4 3.6 2.7 7.5 5.3 11.5 8 .3-2.9.7-5.9 1.4-8.7 1.2-4.9 3-9.6 5.5-14zM765.8 338.7c-.4-5.8-.6-11.5-.6-17.3 0-5.9.3-11.7.9-17.5.3-2.9.8-5.8 1.1-8.7-5.2 8.2-8.5 17.8-9 28.1 2.9 4.8 5.5 10 7.6 15.4zM493.7 428.5c-2.1 4.5-4.7 8.8-7.4 12.9 3.7 24 4.7 48.6 3.1 72.6 15.3-33.5 24.4-70.2 28-107.2 2.8-28.7 2.3-59.9-5.3-88.7-6.5-7.7-17.1-11-27.7-12.2 2.4 3.9 4.7 7.7 6.6 12 3.2 7.2 5.5 14.9 7.5 22.5 4.1 15.3 6.4 31.2 5.5 47.1-.9 14-4.3 28.1-10.3 41zM859.6 145.4c-8.8-5.8-18.9-8.4-29.4-8.4.1.2.2.3.3.5 1.1 2.4 2.5 4.8 3.4 7.2 2.1 5.4 2.3 11.2.9 16.7-1.3 5.1-3.5 9-7.5 12.5l-.1.1 3 .9c21 6.6 36 20.9 51 35.8-3.9-21.6-8.5-42.7-18.5-60.4-.9-1.6-2-3.2-3.1-4.9zM774.6 238.7c-5-6.3-8.9-13.6-12.1-20.9-1.5-3.4-2.7-6.9-3.9-10.4.3 5.8.3 11.7.4 17.5 8.9 14.7 16.1 30.3 22 44.9 6.7-3.9 14-6.6 21.6-7.9-2.3-3.1-4.4-6.4-6.3-9.8-1.3-.2-2.6-.4-4-.7-7.1-2-13.1-7-17.7-12.7zM500.2 108.1c-5.6-1.9-11.3-3.3-17-4-10 6.4-17.7 16.3-21.4 30.2 5.2 3 10 6.5 14.2 10.7 4.5.2 9 .6 13.5 1.3-1.8-5-2.5-10.5-1.6-15.6 1.4-9 6.4-16.1 12.3-22.6zM583.5 133.8c3 .9 6 2 8.8 3.5 5.8 3 10.9 6.9 15.1 12 4.5 5.4 6.7 11.4 7.7 18.2 3.8-3.1 7.1-6.5 9.8-10.1-10.8-18.1-27.1-32.8-45.2-43.9 2.4 6 3.7 13.1 3.8 20.3z"/><path class="st0" d="M504.2 757.1c63.7-.9 128 4.1 191.3-4.7 6.7-.9 7 .1.4 1.7-29.3 7.2-60.2 8-90.1 9-33.8 1.2-68 1.7-101.5-3.2-7.2-1-7.2-2.7-.1-2.8zM483.6 758.7c-3.3.3-6.6 0-9.7-.9-.6-.2-.6-1 0-1.2 3-.9 6.5-1.7 9.6-.9 3.7.9 3.7 2.6.1 3z"/></svg>