<svg version="1.1" id="e37c00f5-ff96-45aa-87ea-1a24b78ba7bd" xmlns="http://www.w3.org/2000/svg" x="0" y="0" viewBox="0 0 1176.6 803.7" style="enable-background:new 0 0 1176.6 803.7" xml:space="preserve"><style>.st0{fill:#67d8eb}.st1{fill:#fdc435}.st2{fill:#f1a12b}.st5{fill:#e23f58}.st10{fill:#68182b}</style><path class="st0" d="M688 614.4c-.2 0-.4-.1-.6-.2l-.3-.2c-6-4.1-12.6-4.2-19.6-4.2-5 0-10.1-.1-15.1-1.6-.3-.1-.6-.3-.7-.6-.1-.3-.1-.6.1-.9 6.3-10 13.1-17 25.6-18.5.8-.1 1.7-.1 2.5-.1h1c.5 0 .9.3 1 .8.1.5-.1.9-.5 1.2-.4.2-.8.5-1.2.7-2.2 1.4-3.9 3.4-4.9 5.6 1.4-2.2 3-4.3 5.7-5.8 1.6-.9 3.2-1.3 5-1.6h.5c6.9 2.1 12.2 7.5 16.1 12 .2.2.3.6.2.9-.1.3-.2.6-.5.7-4.7 2.6-9.2 6.5-13.5 11.4-.2.3-.5.4-.8.4zM703.2 633.1c-.4 0-.8-.3-1-.7-2.2-5.3-5.2-9.8-9.2-13.7-.4-.4-.4-1-.1-1.5 7.7-8.6 15.6-12.8 24.1-12.8 6.9 0 14.3 2.8 22.5 8.5.4.2.5.7.4 1.1-.1.4-.4.7-.9.8-1.6.3-3.1.6-4.5 1 .7 0 1.5-.1 2.2-.1 2.1-.1 4.1-.2 6.2-.2h1.8c1.5.1 2.8.1 4.2.1h10.3c6 0 9 .3 14.1 3.7.3.2.5.6.5 1-.1.4-.3.7-.7.9-15.5 4.8-39.1 8.8-70 11.8.2.1.1.1.1.1zM623.3 637.3c-.4 0-.7-.2-.9-.5-5.6-8.8-11.3-12.9-19.9-14.2-1.4-.2-2.7-.5-4.1-.7-.4-.1-.7-.4-.8-.7-.1-.4 0-.8.3-1.1 6.4-6.4 12.2-10.5 18.7-13.2 3.3-1.4 6.4-2 9.7-2 7.4 0 13.8 3.5 20.5 7.2 1 .6 2.1 1.1 3.1 1.7.6.3 1.1.6 1.7.8.4.2.7.7.6 1.1-.1.5-.5.8-1 .9-2 .1-4 .2-5.9.2-3.3 0-6.5-.2-9.5-.4 4.1 1.2 9 1.9 14.5 1.9 4.3 0 8.7-.4 13.2-1.1 2.1.1 3.9.1 5.8.1 10.6.1 20.6.1 27.1 15.1.1.3.1.7-.1 1-.2.3-.5.5-.8.5-19.7 1.8-34.9 2.5-36.5 2.5-11.2.5-23.2.8-35.7.9zM512.9 630.1c-6.7-1-12.2-1.9-17.4-2.8-2.7-.5-9.7-1.8-17.5-4.1-.8-.2-1-.9-.6-1.5 2.9-5.4 6.2-8.7 10.2-10.1 2-.7 4-.8 6-.8h3.2c5 0 7.7-1.2 10.6-2.7 3.7-1.9 6.8-4.5 10.1-7.2 1.9-1.6 3.9-3.2 6-4.7 1.4-1 2.4-1 2.9.2 2.7 5.6 5.8 10.8 9.2 15.6.6.8.5 1.2-.4 1.6-8.5 3.6-15.8 9.3-20 15.5-.8 1-1.1 1.2-2.3 1zM613.8 637.3c-32.2-.1-63.1-2.1-91.9-6-.9-.1-1.2-1-.7-1.7 7-8.6 19.4-13.9 32.3-13.9 7.5 0 14.4 1.7 20.1 5 4 2.3 11.9 4.9 18.1 5.7 8.2 1.7 16.7 3.4 22.8 9.1 1.5 1.4.5 1.8-.7 1.8z"/><path class="st1" d="M562.1 777.2c-11.7-2.3-22.9-5.9-32.9-11.4-7.9-4.3-12.3-13.1-16.6-21.5-2.6-5-5.2-10.2-8.5-14.3-1.4-1.8-1-3 1.6-1.8 11.7 5.2 26.5 11.1 41.3 12.4-4.9-1.8-9.8-3.5-14.6-5.1-8.5-2.9-17.2-5.9-25.7-9.4-5.1-2.1-9.2-3.9-12.8-5.7-2.8-2.1-5.6-4-8.5-5.9-14.3-9.2-15.6-24.4-16.8-39.1 0-2.9-.2-3.2 3.2-2 2.9 1 6.1 2 10.1 3.1 41.9 11.3 88.7 12.8 129 12.8 7.6 0 15.2-.1 22.7-.1 45.1-.4 92.6-2.5 135.3-14.5 1.9-.5 3.7-1.1 5.5-1.9.1-.1.3-.1.4-.1.2 0 .4.1.6.2.3.2.4.6.4.9l-.1 1.6c-1.7 21.5-3.3 28.8-15.8 37.6-9.3 6.5-25.4 12.9-36.2 16.7-8 2.9-16.1 5.4-24 7.9-2.2.7-4.5 1.4-6.7 2.1-2.1.7-1.3 1.3.2 1.1 7.9-.7 23.2-5.8 23.2-5.8 7.7-2.5 15.8-5.2 23.4-8.2 2.1-.8 2.5.5 1.1 2-5.4 5.7-10.2 12.8-14.2 21.2-.5 1.1-1 2.2-1.4 3.1-2 4.6-3.5 7.9-8.5 11.3-5.5 3.8-11.8 6.7-18.5 8.9-32.6 11.2-108 9.5-136.2 3.9z"/><path class="st2" d="M740 727.1c-7.7 3.1-15.7 5.7-23.5 8.2 0 0-7.1 2.4-14.2 4.1 9.3 2.2 17.4 6 14.1 13.7-2.8 6.5-12.1 9.8-18.1 12-8.5 3.2-17.4 5.2-26.4 6.7-24.3 4.2-49.5 4.2-73.9 2-11.8-1.1-23.5-2.9-35.2-5.2-7.2-1.4-14.5-2.9-21.4-5.5-6.1-2.3-16-7-14.9-15 .7-5.1 5.7-7.7 11.1-8.9-11.6-2.4-22.8-6.9-32-11-2.6-1.1-3 0-1.6 1.8 3.3 4.1 6 9.3 8.5 14.3 4.3 8.4 8.7 17.2 16.6 21.5 10 5.5 21.2 9 32.9 11.4 28.2 5.6 103.6 7.3 136.4-3.6 6.7-2.2 13-5.1 18.5-8.9 5-3.4 6.5-6.7 8.5-11.3.4-1 .9-2 1.4-3.1 4-8.4 8.7-15.5 14.2-21.2 1.5-1.5 1.1-2.8-1-2z"/><path d="M620.2 684.1c-33.5 0-67.4-2.1-100.8-6.2l-5.2-.6c-19-2.2-42.6-5-56.9-17.8-10-8.9-8.8-28.3-8-42.4.1-1.5 1.2-1.2 1.7-.7 1 .9 2.2 1.8 3.5 2.7 18.9 13.5 46.8 16 71.3 18.2 4.2.4 8.3.7 12.1 1.1 26 2.7 52.8 4.1 82 4.1 12.5 0 25.7-.3 39.1-.8 28.9-1.1 66.8-3.4 102.8-11.9 10.9-2.5 23-6 30.8-12.5 1.2-1 1.9-.1 1.9 1 .1 9.7.1 19.1-1.3 28.4-2.6 18.3-22.9 22.8-37.8 26.1l-2.3.5c-38.7 8.7-80.3 10-119.5 10.7-4.4 0-8.9.1-13.4.1z" style="fill:#ff821d"/><path class="st1" d="M470.7 620.8c-12.1-4.3-18.8-9.1-20.1-14.3-.7-3.1.5-6.2 3.5-9.3 13.4-13.6 39.7-17.4 58.9-20.2 0 0 1.1-.2 2.3-.3 3.4-.5 3.5.8 4.2 3 .8 2.6 1.7 5.1 2.6 7.5.9 2.3 1 2.6-.9 3.9-4.6 3.1-10.8 9.5-15.4 11.7-4.7 2.3-9.7 2.7-15.3 2.9-9.8.4-15.5 8.1-18.6 14.5-.2.8-.6.8-1.2.6zm307-5c-9.4-7.1-11.1-7.4-19.5-6.5-8 .9-13.5 1-21.6-5-4.8-3.6-9.6-6-18.2-6-2.6 0-5.3.3-7.8 1-2 .5-1.7 1-3.3-.8-17.1-20.2-34.7-17.1-44.4-11.3-5.2 3.1-10.2 8.3-15.3 16.4-.9 1.5-1.5 1.8-3 .8s-3.1-1.8-4.7-2.5c-1.5-.6-2-1.4-.9-3.2 5.2-8.2 9.4-17.8 12.5-28.6.1-.5.5-.8 1-.8 14 .6 27.4 1.6 40.4 2.9 25.4 2.6 61.9 5.7 83.7 15.5 7.9 3.5 13.8 8 16.7 13.5 1.5 2.9 1.8 5.7 0 8.7-1.6 2.8-4.9 5.2-9.8 7.5-3.1 1.5-3.2.3-5.8-1.6z"/><path class="st2" d="M783.6 617.4c1.7-.8 3.2-1.6 4.5-2.5-.4-1.5-1.1-2.9-2.2-4.2-5.1-6.4-14-9.3-21.5-11.6-12.2-3.8-24.9-5.9-37.4-7.7-10.5-1.5-21.1-2.7-31.8-3.6 4 2.4 8 5.9 12 10.7 1.6 1.9 1.3 1.3 3.3.8 2.6-.7 5.2-1 7.8-1 8.6 0 13.4 2.5 18.2 6 8.1 6 13.6 5.9 21.6 5 8.4-1 10.1-.6 19.5 6.5 2.7 1.9 2.8 3.1 6 1.6zM521.4 591.2c-14.7 2-29.3 4.7-43.4 9.1-7.7 2.4-17.2 5.5-22.2 12.2-.2.2-.3.4-.4.6 3.4 2.8 8.5 5.4 15.4 7.8.6.2 1 .1 1.3-.5 3.1-6.4 8.9-14.1 18.6-14.5 5.6-.2 10.6-.6 15.3-2.9 4.5-2.3 10.8-8.8 15.4-11.8zM665.3 585.8c-6.4-.3-12.8-.5-19.3-.7-2.1 4.8-4.5 9.3-7.1 13.5-1.1 1.8-.6 2.6.9 3.2 1.7.7 3.2 1.5 4.7 2.5s2.1.7 3-.8c5.1-8.1 10.1-13.2 15.3-16.4.9-.5 1.7-.9 2.5-1.3z"/><path d="M648.5 485.7c-.8-1.9-1.7-3.7-2.7-5.5-.3-.6-.1-1.3.7-1.5 13-3.1 26.1-10.7 37.7-17.4l4.9-2.8c14.8-8.4 29.8-18.6 48.8-32.9 23.3-17.6 52.2-39.4 66.9-70 .3-.6 1.7-1 2 .2 2.8 11.9 3.2 24.8 1 37.4 0 .2-.1.3-.2.4-31.7 45.5-92.2 81-158 92.8-.3 0-.8-.2-1.1-.7zm-27.1 113c3.2-8.3 4.4-17.8 5.5-26.9l.5-4.3c2-15.6 2.6-30.2 1.6-44.5-1.7-25.5-9.4-48.6-22.3-66.8-.6-.8.2-1.9 1.1-1.6 17.8 5.2 31 18.4 38.2 38.2 11.4 31.7 5.3 78.4-13.8 106.3-.3.4-.7.5-1 .5-.9-.1-1.7-.1-2.6-.1-2 0-4.1.2-6.1.6-.6.1-1.4-.6-1.1-1.4zm-60.1-130c-22.2-18-42.4-43.4-61.7-77.7-6.8-12.1-12.9-25-18.7-37.4-1.4-2.9-2.7-5.8-4.1-8.7-7.4-15.6-14.5-32.4-16.4-50.2 0-.3.1-.6.3-.9 5.4-5.3 11.3-9.8 17.5-13.4.3-.2.7-.1.8-.1 27.3 8.6 48.2 32.3 63.9 72.5 6 15.3 10.4 31.2 14.3 46 2.9 11 4.9 20.1 6.5 28.7 1.1 6.1 2 12.5 2.7 20.4.1 1.5.3 3 .5 4.6.5 4.6 1.1 9.3.5 13.9 0 .4-.3.7-.6.8-1.5.7-3 1.2-4.6 1.5-.4.3-.6.2-.9 0zm8-4.5c.5-6.6-.5-13.7-1.5-20.5-.3-2-.6-3.9-.8-5.8-1.5-12.5-4.5-24.8-7.1-35.2-3.7-14.6-8.9-33.6-16.1-52.1-14.6-37.3-35-61-60.9-70.5-.8-.3-.9-1.5-.1-1.9 7.3-3.7 15.1-6.2 23.2-7.5.8-.1.9-.1 1.5.2 27.7 11.8 48.6 37.1 62 75.3 4.9 14 8.7 29.8 11.4 48.1 2.7 18.3 5.3 39.4 1.1 58.8 0 .1-.1.2-.1.3-3.3 5.2-7 9.2-11 11.9-.7.3-1.7-.2-1.6-1.1zm-72.7-197c-14.1-32.1-23.3-66.8-30.4-96.5C453.8 119.4 447.7 73 447.5 29c0-.5.3-.9.8-1 3-.7 6-1 9.1-1h.6c.3 0 .6.1.8.4 8.7 10 13.9 23.5 18.5 35.4 6.9 18 12.7 37.9 18.3 62.7 12.2 54.3 15.7 100 10.6 139.7-.1.5-.4.8-.9.9-2.6.4-5.1 1-7.5 1.6-.2.2-.9.2-1.2-.5zM590 619.9c-6.4-1.8-12.4-4-17.4-6-.3-.1-.5-.3-.6-.6-16.5-41.5-11.3-90.6-6.7-133.8l.5-4.9c0-.4.3-.8.7-.9 6.6-1.9 12.3-6.7 17.6-14.5.6-.8 1.5-.4 1.8.1 11.2 21 16.9 46 17.9 78.7.4 12.1-.1 25.2-1.5 40-.2 1.8-.3 3.7-.5 5.6-.8 9.8-1.8 22-6 31.1-.1.1-.1.2-.2.3-1.6 1.5-3.2 3-4.6 4.6-.3.4-.7.4-1 .3zm-22.8-8.2c-3.7-1.5-8-2.3-12.6-2.3-.9 0-1.9 0-2.9.1-.4 0-.9-.1-1.1-.7-1.3-4.1-3-8.2-4.7-12.1-2.3-5.4-4.6-11-6.1-16.9-2.7-10.8-4-22.6-4.1-38.2-.2-22.6 4.8-45.4 14.5-66 .2-.4.5-.6.9-.6h.1c1.3.1 2.5.1 3.8.1 2.8 0 5.5-.2 8-.6.8-.1 1.3.6 1.2 1.1l-.3 2.9c-4.5 42.6-9.6 90.8 5.5 132.1.4 1.3-.9 2-2.2 1.1zm76.6-136.2c25.1-40.9 47.9-71.9 71.8-97.6 19.7-21.1 46.3-46 77.7-50.6h.2c.3 0 .7.2.9.4 4.8 6.8 8.5 14.4 11 22.6.1.3.1.6-.1.8-14 31.8-42.6 53.6-67.9 72.9-14.5 11-29 21-43.3 29.7l-3.1 1.9c-13.3 8.2-30 18.3-45.7 21.8-1.2.3-2-1.2-1.5-1.9zM834.9 351c-9 0-17.3-1.4-24.6-4.1-.3-.1-.5-.3-.6-.6-.5-1.3-.9-2.5-1.4-3.8-.2-.4-.1-.8.2-1.1 12.2-12.8 31.3-19.9 54-19.9 4.8 0 9.7.3 14.5.9.4 0 .7.3.8.6.7 1.5 1.3 3 1.7 4.5 1.3 4.4 1.3 8.9 0 13.4-.1.3-.3.6-.6.7-14.6 6-30.2 9.4-44 9.4zm-27.5-11.6c-.3-.1-.6-.3-.8-.6-.7-1.6-1.5-3.1-2.3-4.6-.2-.4-.2-.8.1-1.1 13.4-17.5 28.2-27 44.2-28.2.7-.1 1.4-.1 2.1-.1 9.8 0 19 5.3 24.7 14.2.6.9-.1 1.8-1 1.6-4-.4-8.1-.6-12.1-.6-22.5 0-41.7 6.8-54.1 19.2-.2.2-.5.3-.7.3.1-.1 0-.1-.1-.1zM641.6 473.1c-1.2-1.7-2.4-3.3-3.9-5.1-.3-.3-.3-.7-.2-1.1 4.6-30.2 15.6-60.8 32.8-91 18.5-32.6 37.6-51.4 58.1-57.5h.5c1.9.4 3.8.6 5.7.6 9.7 0 19.7-5.3 29.8-15.6.3-.3.9-.4 1.2-.2 10.3 5 19.2 12.2 26.2 21.2.7.8.4 1.5-.6 1.7-28.3 5.1-51.7 25.3-70.8 44.5-32.4 32.4-58.2 71.9-77.1 102.6-.4.6-1.3.5-1.7-.1zm116.9-174.4c10.8-15.6 18.9-36.8 24.1-62.9 5-25 4.7-52.7-.7-84.7-.2-1.2.8-1.7 1.7-1 2.6 2.2 5.1 4.5 7.3 6.9 13.4 14.5 17.3 34 12 61.5-3.3 17.5-20.5 59.7-42.9 81.4-.9 1.2-2.5.2-1.5-1.2zm-22.9 14.4c-.5 0-1-.4-1-.9-5.2-32.7-.9-65.9 3.5-91.2 1-5.6 1.9-11.3 2.8-17 3.6-22.2 7.3-45.2 14.9-66.7.3-.7.7-.8 1.2-.7 7.7 1.7 15.2 5 22.2 10.1.2.2.4.4.4.7 5.8 32.3 6.3 61 1.5 87.9-3.3 18.5-12.1 52.7-33.5 74.2-4.2 2.1-8.1 3.3-12 3.6.1 0 .1 0 0 0zm-3.8-.1c-3.4-.3-6.8-1.4-10-3.3-.2-.1-.3-.2-.4-.4-7.9-11-10.5-24.4-12.6-38.3-2.6-17.4-3.4-35.7-2.2-55.9 1.3-23.5 5-57 22-76.2.1-.1.3-.2.5-.3 1.7-.6 3.3-1.1 4.9-1.5 4-1.1 8.2-1.6 12.4-1.6 2.3 0 4.6.2 7 .5.9.1 1 .8.8 1.4-7.7 21.8-11.5 45.3-15.1 68.1-1 6.2-2 12.3-3 18.4-6 34.6-6.9 62.5-3 87.9.1.3-.1.6-.3.9-.2.2-.5.3-.8.3h-.2zm-18-10.5c-.3 0-.6-.1-.8-.4-24.2-29.4-36.2-78.2-28-113.6 5.2-22.3 18-38.6 37-47.2 1.8-.8 1.9.6 1.3 1.6-13.4 19.3-16.3 49.2-17.8 65.2-1.8 19-1.4 39.4 1.4 60.7 1.4 10.9 3.3 22.3 7.9 32.3.2.5 0 1-.4 1.3-.2.1-.4.1-.6.1zm-79.1 162.2c-3.8-3.9-8.1-7.2-12.9-9.9-.4-.2-.6-.7-.5-1.1l.1-.5c1.5-45.4 14.4-125 83.3-150.1 1.4-.5 2.1-.2 2.9.9 1.4 1.8 2.9 3.5 4.4 5.1 3.6 3.3 7.5 5.8 11.4 7.5 1 .4.8 1.6 0 1.9-22.3 9-38.8 31.7-49.2 48-19 29.6-32.3 64.3-37.6 97.6-.2 1-1.3 1.2-1.9.6zm-35.2 144.7c1.6-5.7 2.3-11.9 2.9-17.8.2-1.9.4-3.8.7-5.6 2-15.3 2.8-31.4 2.4-47.8-.7-32.4-7.2-59.7-19.1-81.3-.2-.3-.2-.7 0-1 .5-.9 1-1.7 1.5-2.6.4-.7 1-1 2.1-1 4.1 0 8.2.4 12.2 1.1.3 0 .5.2.6.4 14.5 18.7 22.9 43 24.8 72 .7 10.8.3 22.8-1.1 36.6l-.4 3.5c-1.2 11.5-2.5 24.5-7.3 34.8-.1.3-.4.5-.6.6-5.6 1.8-11.3 4.9-17 9.3-.9.6-1.9-.4-1.7-1.2zm-14.3-166.7c1.5-15.1-.3-30.6-2.4-46.4-2.5-18.5-6.7-36.3-12.6-52.9-8.4-23.8-25.1-55.6-57.1-71.7-.8-.4-.8-1.9.4-2 3.5-.2 7.4-.1 10.9.4 20.2 2.5 40.3 15.2 55.7 35.5 32 42.2 19 100.9 12 124.2-1.5 4.9-3.2 9.5-4.9 13.5-.4.9-2.1.6-2-.6zm-40.3-313.4c-6.6 0-15.6-.9-21-5.2-.8-.6-.3-2 .8-1.9 1.6.2 3.1.2 4.7.2 11.4 0 23.4-3.8 34.7-7.9 15.9-5.8 28.4-12.6 38.1-20.7 1.1-1 2-.2 1.6 1.6l-.3 2.4c-3.5 17.4-21.8 24.5-35.3 28.3-5 1.5-14.1 3.2-23.3 3.2zm-15.1-8.5c-3.1 0-6-.3-8.8-.8-.3-.1-.6-.3-.8-.6-.2-.5-.4-.9-.5-1.4-.1-.3 0-.7.2-1 19.2-24 50.5-40 79.5-40.6.4 0 .7.2.9.5 2.3 3.6 3.6 7.8 3.8 12.6 0 .3-.1.6-.3.8-12.5 11.5-28.8 18.5-39.9 22.7-9.6 3.6-22.2 7.8-34.1 7.8zm-10.5-8.6c.3-2.8 1.2-5.9 2.8-9.2 8.9-14.2 20.3-24.9 34.9-32.9 6.1-3.3 12.7-5.1 19.3-5.1 8.5 0 15.9 2.8 21 8 .8.8.4 1.7-.7 1.8-27.4 1.5-56.4 16.1-75.6 38.1-.4.8-1.8.5-1.7-.7zm-11.4 152.2c5.1-40.1 1.5-85.2-11.3-141.9-5.3-23.7-11.6-44.4-19-63.4-4.1-10.4-8.6-21.3-15.3-30-.8-1 .1-1.8 1-1.7 30.1 4.3 51 41.2 60.8 62.8.2.4.1.8-.1 1.1-2.4 3.1-4.5 6.1-6.3 9-4.4 9.4-5 17.6-1.6 23.6 3.4 6.1 10.7 9.8 21.1 10.8.5.1.9.5.9 1v.5c8.4 49.2 1.3 92.3-21.3 128.3-.2.3-.5.5-.9.5-2 .1-4.2.3-6.8.6-.5.1-1.3-.3-1.2-1.2zm-23 7.2c-27.8-30.1-42-73.7-50.3-103.8-13.7-49.6-15.6-93.4-5.6-130.2.1-.2.2-.4.4-.5 4.5-3.6 9.6-6.3 15.1-8 .7-.2 1.5.3 1.5 1 .3 43 6.4 89.2 18.7 141.2 6.4 27.1 15.7 62.6 30.3 96.2.3.6-.1 1.2-.6 1.4-2.8.9-5.6 1.9-8.3 3.1-.3 0-.9 0-1.2-.4zm-11.8 6.4c-48.9-32.2-69.7-110.2-68.7-173.2.3-19.4 4-46.1 19.8-62.9.7-.7 2-.1 1.8 1-8.4 35.6-6.1 76.7 7 125.5 12.4 46.3 28.7 80.1 49.9 103.5.5.5.4 1.3-.3 1.7-2.8 1.4-5.7 2.9-8.4 4.5-.4.1-.7.1-1.1-.1zm82.6 191.6c-2.3 0-4.7-.1-7.4-.4-11.4-3.4-21.5-10.2-30.4-16.1-11.6-7.7-22.7-17.1-33.9-28.6-20.6-21.1-35.2-45.5-42.2-70.7-.1-.4 0-.8.4-1.1 10.2-8.2 7.2-22.9 4.1-33.3-.5-1.4-1.1-2.9-1.8-4.4-.1-.3-.1-.7.1-1 4-6.1 8.3-11.7 12.9-16.6.6-.6 1.7-.3 1.8.6 2.1 14.6 7.3 28 12.2 39.2 7.5 17.1 15.4 33.6 23.6 49.1 18.5 34.9 39.5 62.3 62.4 81.5.7.6.6 1.8-.7 1.9l-1.1-.1zM424.8 353.4c-11.8 0-24.2-3.8-35.2-7.2l-3.3-1c-14.7-4.4-28.8-10.8-41.8-18.8-27.8-17.1-43-34.2-46.5-52.3v-.4c1.3-5.9 3.3-11.4 6-16.3.1-.1.2-.3.3-.4 4.3-3 9.4-4.5 15.7-4.5 6.9 0 13.9 1.8 20.5 3.7 11 3.2 22.2 8.6 35 17 25.7 16.7 48.2 41.9 64.8 72.9.2.4.1.9-.2 1.2-2.1 2.2-5 4-8.6 5.6-2.4.4-4.5.5-6.7.5zm16-9.6c-16.9-31-39.6-55.7-67.2-73.6-11.3-7.3-33.1-19.6-52.2-19.6-4.5 0-8.6.7-12.2 2.1-.1.1-.3.1-.4.1-.3 0-.6-.1-.8-.4-.3-.4-.3-.9 0-1.3 8.7-11.7 21.3-18.2 35.4-18.2 8.5 0 17.4 2.3 26.5 6.9 28.8 14.5 59.3 49.2 71.2 80.9 1.8 6.2 2.9 10.8 3 16.5.1 2.4-.4 4.6-1.5 6.6-.4.7-1.4.7-1.8 0zm-50.2 16.8c-11 0-22.9-1.5-35.5-4.6-36.3-8.8-57.2-31-58.8-62.5-.2-3.6-.1-7.2.2-10.8 0-.5.4-.9.9-.9h.1c.4 0 .8.3 1 .7 7.4 19.2 27.2 33.5 45.1 45.4 11.7 7.7 26.1 14 45.4 19.9 9.2 2.8 19.7 5.9 29.9 6.9 1.2.1 1.3 1.8.2 2.1l-3.2.8c-7.8 2-16.3 3-25.3 3zM531 465.8c-6.7-1.8-13.2-4.1-18.1-5.9-53.9-19.5-85.2-56.8-83.8-99.8 0-.4.2-1 .6-1.1 3.7-1.4 6.6-2.8 9.3-4.3.6-.4 1.3 0 1.5.6 7 24.5 21.2 48.2 42.2 70.3 9 9.5 19.5 18.4 32 27.3 4.9 3.5 10.8 7.5 17.1 11 1.3.7.3 2.2-.8 1.9zm10 144.9c-26.1-36-32.9-99.6-1.3-136.8.3-.4.7-.4 1-.4 2.2.4 4.5.7 6.7 1 1 .1 1.1.9.8 1.5-8.8 19.2-13.6 40.7-14.1 62.2-.2 11.8.7 23.8 2.8 35.7 1 5.5 2.5 11.5 4.9 18.6 1 3 2.4 6 3.8 8.9 1.1 2.3 2.2 4.7 3.1 7.1.3.7-.1 1.3-.8 1.4-2 .3-4 .7-5.8 1.2-.3.1-.8.1-1.1-.4zm110.9-118.2c-.4 0-.8-.3-1-.7 0 0-.7-2.1-.9-2.6-.3-.7.3-1.3.8-1.4 62.8-11.4 120-43.6 153.1-86.3.6-.7 2.2-.4 1.8.9-2.2 7.9-5.2 15.3-9 22-24.8 43.1-91.6 66.9-144.8 68.1zM842.7 364c-9.8 0-20.3-2.6-29.6-7.2-.3-.1-.5-.4-.6-.7-.4-1.8-.9-3.7-1.4-5.5-.3-.9.5-1.6 1.3-1.3 6.7 2.2 14.2 3.3 22.2 3.3 16.5 0 31.7-4.6 41.6-8.4.7-.3 1.8.6 1.3 1.5-2.7 5.1-7.2 9.7-12.8 12.9-6.2 3.6-13.6 5.4-22 5.4z" style="fill:#ff5671"/><path class="st5" d="M562.2 468.9c1.6-.4 3.2-.9 4.6-1.5.3-.1.6-.5.6-.8.6-4.6.1-9.3-.5-13.9-.2-1.5-.4-3.1-.5-4.6-.3-3.4-.6-6.6-1-9.5-21 4.9-54.8-36.2-73.2-61.4 2.4 4.7 4.8 9.3 7.3 13.9 19.3 34.3 39.5 59.7 61.7 77.7.4.2.6.2 1 .1z"/><path class="st5" d="M570.9 465.1c4-2.7 7.7-6.7 11-11.9.1-.1.1-.2.1-.3 1.7-8.1 2.3-16.4 2.1-24.8-9.2 1-14.3-14.7-22.9-45.4-6.5-23-19.5-43-27.3-53.6 3.5 6.5 6.8 13.6 9.8 21.4 7.2 18.5 12.4 37.5 16.1 52.1 2.6 10.4 5.6 22.7 7.1 35.2.2 1.9.5 3.8.8 5.8 1 6.8 2 13.9 1.5 20.5 0 .9.9 1.5 1.7 1zM530.6 440.3c-17.9 5.4-58.5-36.3-76.5-56 7.6 14.2 17.6 27.7 29.7 40.1 11.3 11.5 22.4 20.9 33.9 28.6 8.9 6 19 12.8 30.4 16.1 2.7.3 5.1.4 7.4.4h1.2c.4 0 .8-.3 1-.7.1-.4 0-.9-.3-1.2-9.2-7.7-18.1-16.9-26.8-27.3zM520 113.3c.1.1.3.1.4.1.3 0 .6-.1.8-.4 6.9-7.9 15.1-14.9 23.9-20.6-6.9 2.8-14.5 5.3-18.8 4.6-1.4 2-2.8 4-4.1 6.1-1.6 3.3-2.5 6.4-2.8 9.2-.1.4.1.8.6 1zM484.9 271.6c.2.2.5.3.8.3.1 0 .3 0 .4-.1 2.7-1.2 5.5-2.2 8.3-3.1.3-.1.5-.3.6-.6.1-.3.1-.6 0-.9-4.9-11.2-9.1-22.5-12.9-33.8-16.6 3-38.7-45.9-49.1-71.6.5 1.9 1 3.9 1.5 5.8 8.4 30.4 22.6 73.9 50.4 104zM507.9 264.4c0 .3.1.6.3.9.2.2.5.3.7.3h.1c2.5-.3 4.7-.5 6.8-.6.3 0 .7-.2.9-.5 5.1-8.1 9.4-16.6 12.9-25.5-9.6-3-16.2-19.7-20.4-36.1 1.5 22.2 1.1 42.4-1.3 61.5z"/><path class="st5" d="M587.3 443.2c1.8-4 3.4-8.6 4.9-13.5 1.8-5.8 3.9-13.8 5.6-23.2-5.6-2.1-11.5-8.7-13.8-22.8-1.9-11.8-6.9-24.2-11.7-34.2 4.8 14.8 8.4 30.5 10.6 46.7 2.1 15.8 3.9 31.3 2.4 46.4-.2 1.3 1.5 1.6 2 .6zM603.9 95.4l.1-.7c.2-1.4-.9-1.6-1.7-.9-1.3 1.1-2.7 2.2-4.1 3.2-.5 2.5-4.7 18.6-25.2 24.2-17.4 4.8-30 2.9-38.3 1-1.8.2-3.6.3-5.3.3-1.6 0-3.2-.1-4.7-.2h-.1c-.4 0-.8.3-1 .7-.2.4 0 .9.3 1.2 5.4 4.3 14.4 5.2 21 5.2 9.1 0 18.3-1.7 23.3-3.1 13.5-3.8 31.9-11 35.3-28.3.2-1 .3-1.8.4-2.6zM722.8 310.2c2.9 1.5 6 2.5 9 2.8.2 0 1.2-.5 1.1-1.2-3.9-25.4-2.9-53.3 3-87.9 1.1-6.1 2-12.3 3-18.4.5-3 .9-5.9 1.4-8.9-4.5 13.4-10.8 33.5-12 43.8-1.6 13.7-2.5 42.6-17 45.1 1.9 8.2 4.5 15.9 9.2 22.7.9 1.2 1.2 1.4 2.3 2zM665.8 456.4c-4.2-6.8 4.2-20.8 4.2-20.8l-.4.2c-8.4 12.1-17 25.3-25.8 39.7-.2.4.1 2.2 1.4 2 15.7-3.5 32.3-13.6 45.7-21.8l3.1-1.9c14.3-8.7 28.9-18.7 43.3-29.7 13.7-10.4 28.4-21.7 41.2-34.8-2.2 1.5-58.3 43.1-74.4 53.8-18.9 12.6-34.1 20.1-38.3 13.3z"/><path class="st5" d="m523.2 113.1-3.3 3.9c-.2.3-.3.6-.2 1 .1.5.3 1 .5 1.4.1.3.4.5.7.6 2.7.6 5.7.8 8.8.8 11.9 0 24.5-4.2 34.1-7.9 11.2-4.2 27.5-11.2 39.9-22.7.2-.2.4-.5.3-.8-.2-4.8-1.5-9-3.8-12.6-.2-.3-.5-.5-.9-.5h-.9c-.5 6.2-4.2 17.7-22.8 24.5-21.5 7.9-35.8 13.4-52.4 12.3zM734.6 312.2c.1.5.5.9 1 .9h.1c3.8-.2 7.7-1.4 11.9-3.6 21.4-21.5 30.2-55.7 33.5-74.2 1.9-10.7 3-21.7 3.2-33.1-5 26.3-23.1 108.8-52 86.2.3 7.9 1 15.8 2.3 23.8zM621.8 454.8c4.8 2.7 9.1 6.1 12.9 9.9.6.6 1.6.3 1.8-.6 2.6-16.6 7.3-33.6 13.6-50.1-16.4 31.4-24.8 27.5-27.8 24-.5 5.3-.7 10.4-.9 15.1 0 .3 0 1.5.4 1.7zM643.8 438.5c-2.7 9.5-4.8 19-6.2 28.4-.2.4-.1.8.2 1.1 1.5 1.7 2.7 3.4 3.9 5.1.4.6 1.4.6 1.8 0 18.9-30.7 44.7-70.1 77.1-102.6l2.9-2.9c-18.3 14.6-45.6 44.8-61 65.8-13.5 18.1-17.7 8.3-18.7 5.1zM714.8 301c-4.6-9.9-6.5-21.4-7.9-32.3-2.2-17.1-2.9-33.7-2.2-49.4-2.6 17.8-7.1 42.2-12.5 45.5 5.2 13.9 12.2 26.9 20.8 37.3.8 1 2.4.2 1.8-1.1zM496.6 267.2c.2.4.6.6 1 .6h.3c2.4-.6 4.9-1.2 7.5-1.6.5-.1.8-.4.9-.9 1.4-10.7 2.1-21.8 2.2-33.3-12.9 17.3-34.8-41.6-43.9-68.5.6 2.5 1.1 4.9 1.7 7.3 7.1 29.6 16.3 64.3 30.3 96.4zM689 466.9c-1.5-2.9.5-7.1 1.9-9.4-.6.3-1.1.7-1.7 1l-4.9 2.8c-11.6 6.7-24.7 14.3-37.7 17.4-.7.2-1 .9-.7 1.5 1 1.8 1.8 3.6 2.7 5.5.2.5.8.7 1.1.6 54.5-9.8 105.3-35.8 139.1-70.3-66.8 47-97.8 55.1-99.8 50.9z"/><path class="st5" d="M778.5 253.2c-5 18.3-11.7 33.5-20 45.5-1 1.4.5 2.4 1.6 1.4 22.4-21.7 39.6-63.9 42.9-81.4.1-.3.1-.6.2-.9-7.3 19.3-18.7 45.5-24.7 35.4zM705.6 472c-17.4 7-35.9 12.3-54.8 15.8-.6.1-1 .8-.8 1.4.2.5.9 2.6.9 2.6.1.4.5.7 1 .7 35.4-.8 76.9-11.6 107.9-31.6-38 19.4-51.1 13.3-54.2 11.1zM627.1 570.3l-.2 1.4c-1.1 9.1-2.3 18.5-5.5 26.9-.3.9.5 1.5 1.2 1.4 2.1-.4 4.1-.6 6.1-.6.9 0 1.7 0 2.6.1.2 0 .7 0 1-.5 8.9-13.1 15-30.2 17.7-48-5.6 15.9-16.1 27.9-22.9 19.3zM824.7 345.3c-7.3-1.3-7.5-7.3-6.3-12.2-3.6 2.4-7 5.1-9.9 8.1-.3.3-.4.7-.2 1.1.5 1.3 1 2.5 1.4 3.8.1.3.3.5.6.6 7.3 2.7 15.6 4.1 24.6 4.1 13.8 0 29.4-3.4 44-9.5.3-.1.5-.4.6-.7.4-1.4.6-2.8.8-4.2-15.9 11.8-43.3 11.1-55.6 8.9zM626.5 562.2c1.2-11.2 1.6-21.2 1.4-30.4-2.7 15.8-11.2 59-24.1 47.7-.2 2.1-.4 4.3-.7 6.4-.2 1.8-.4 3.7-.7 5.6-.7 5.9-1.3 12.1-2.9 17.8-.3.9.8 1.7 1.7 1.1 5.7-4.4 11.4-7.5 17-9.3.3-.1.5-.3.6-.6 4.8-10.3 6.1-23.4 7.3-34.8l.4-3.5z"/><path class="st5" d="M862.5 319.9c3.7 0 7.5.2 11.3.6-.2-.1-.3-.2-.5-.2-14-4.7-36.4-1.9-51 4.4-7.8 3.4-8.5.4-7.5-3.2-3.5 3.4-6.9 7.2-10.2 11.6-.3.3-.3.8-.1 1.1.8 1.5 1.6 3 2.3 4.6.3.8 1.2.8 1.7.3 12.2-12.4 31.4-19.2 54-19.2zM876.2 344.2c-2.3.9-4.8 1.8-7.6 2.7-9.9 11.3-20.6 12.6-32.6 12.5-11.8-.1-17.2-7.7-17.5-8.4-2.1-.5-4.1-1-6.1-1.6-1.1-.3-1.5.8-1.3 1.3.5 1.8 1 3.6 1.4 5.5.1.3.3.6.6.7 9.3 4.6 19.8 7.2 29.6 7.2 8.4 0 15.8-1.8 22.1-5.4 5.5-3.2 10.1-7.7 12.8-12.9.4-1.1-.7-1.9-1.4-1.6zM419 354.7c-10.3-1-20.7-4.1-29.9-6.9-1.5-.5-3-.9-4.5-1.4-30 12-60.6-6.5-78-20.7 9.8 14.5 26.2 25 48.5 30.4 12.6 3 24.5 4.6 35.5 4.6 9 0 17.6-1 25.4-3.1l3.2-.8c.5-.1.8-.6.8-1.1-.1-.6-.5-1-1-1zM473.1 278c.2.1.4.2.6.2.2 0 .4-.1.5-.2 2.7-1.6 5.6-3.2 8.4-4.5.3-.1.5-.4.6-.7.1-.3 0-.7-.3-.9-9.1-10-17.2-21.9-24.6-35.9-.1 0-.2-.1-.4-.1-13.4-2.7-27.6-18.5-37.7-32.3 11.3 31.1 28.6 58.4 52.9 74.4zM441.1 320.6c-1.8-4.9-4.2-10-6.9-15-5.8 2.3-12.6-3.1-24.6-12.4-36.2-28.3-56.7-34.6-57.1-34.6 8.4 3.8 15.8 8.2 21 11.6 27.6 17.9 50.3 42.7 67.2 73.6.2.3.5.5.9.5s.7-.2.9-.6c1-2 1.5-4.3 1.5-6.6 0-5.7-1.1-10.3-2.9-16.5z"/><path class="st5" d="M440.1 347.4c.3-.3.4-.8.2-1.2-5.2-9.8-11.1-18.8-17.4-27.4-5.4 6.9-15.8 13.8-33.8 14.7-24.1 1.1-65.7-26.8-81-37.7 7.8 10.4 19.9 20.6 36.5 30.8 13 8 27.1 14.3 41.8 18.8l3.3 1c11 3.4 23.4 7.2 35.2 7.2 2.2 0 4.3-.1 6.6-.5 3.6-1.7 6.5-3.6 8.6-5.7zM545.7 601.4c-1.4-2.9-2.8-5.9-3.8-8.9-2.4-7.1-3.9-13-4.9-18.6-2.1-11.9-3.1-24-2.8-35.7.3-17.8 3.8-35.6 9.9-52.1-1.9 3.8-18 38.5-13.6 71.2 2 14.8-.1 22.5-3.7 26.3 3.7 10 8.5 19.2 14.2 27.1.3.4.8.5 1.1.4 1.8-.5 3.8-.9 5.8-1.2.6-.1 1.1-.8.8-1.4-.8-2.4-2-4.8-3-7.1z"/><path class="st5" d="m563.9 478.6.3-2.9c.1-.7-.6-1.2-1.2-1.1-2.5.4-5.2.6-8 .6-.6 0-2.5 0-3-.1-.4 0-.7-.1-1 0-.7.2-.7.5-.6 1 .4 1.1 1.6 3.9 4.2 6.1 3.3 2.8 4.7 8 4 19.9-.7 11.9-5.6 40.9-2.1 68 3.1 23.6-8.3 23.1-14 17.8 1.1 3 2.4 6 3.6 8.9 1.7 3.9 3.4 8 4.7 12.1.1.4.5.7 1 .7h.1c1-.1 1.9-.1 2.9-.1 4.6 0 8.8.8 12.5 2.2.2.1.9.5 1.4.5.7-.1 1.2-.6.9-1.4-15.3-41.4-10.2-89.7-5.7-132.2zM531.8 463.9c-3.5-1.9-6.8-4-9.9-6.1-47.3-10.4-73.8-48.4-79.9-65.4-5.7-15.7-1-31-.3-33.3-.4-1.3-.9-2.5-1.2-3.8-.1-.3-.3-.6-.6-.7-.1-.1-.3-.1-.4-.1-.2 0-.4 0-.5.1-2.7 1.5-5.6 2.8-9.3 4.3-.4.2-.6.7-.6 1.1-1.4 43.1 29.9 80.4 83.8 99.8 4.9 1.8 11.4 4 18.1 5.9 1 .4 2.1-1.1.8-1.8z"/><path class="st5" d="M602.3 579.4c-18.5 19.7-31.5 3.3-34.7-8.4-3.5-13.1-3.3-88.1 6.3-94.4 7.8-5.2 10.8-14.3 11.7-17.6-.5-.3-1.1-.2-1.4.3-5.3 7.8-11 12.5-17.6 14.5-.4.1-.7.5-.7.9l-.5 4.9c-4.6 43.2-9.8 92.3 6.7 133.8.1.3.3.5.6.6 5 2 11 4.3 17.4 6 .3.1.7.1 1-.3 1.5-1.5 3-3.1 4.6-4.6.1-.1.2-.2.2-.3 4.2-9.1 5.2-21.3 6-31.1.2-1.5.3-2.9.4-4.3z"/><path d="M793.3 646.3c-12 21.5-60.3 25.6-89.9 27.6-52.8 3.7-123 3.9-174.1-1.1-40.6-4-73.2-9.7-80.4-40.9.1 10.8 1.8 21.6 8.5 27.6 14.3 12.7 37.9 15.5 56.9 17.8l5.2.6c33.4 4.1 67.3 6.2 100.8 6.2 4.5 0 8.9 0 13.4-.1 31.3-.5 64.1-1.5 95.7-6.3 18.7-2.8 60.2-4.8 63.9-31v-.4z" style="fill:#f26200"/><path d="M774.6 673c-.3 0-4.1 1.3-5.6 1.7-42.7 12-90.3 14.1-135.3 14.5-7.5.1-15 .1-22.7.1-40.3 0-87.1-1.5-129-12.8-3.2-.9-5.9-1.7-8.3-2.5h-.1c11.8 8.9 32.7 15.5 58.3 20 54.6 9.6 100.4 5.6 136.6 2.8 61.9-4.5 92.3-15.5 106.1-23.8z" style="fill:#fee434"/><path d="M790 619.2c-7.7 5.3-18.5 8.3-28.2 10.6-36 8.4-73.8 10.8-102.8 11.9-13.4.5-26.5.8-39.1.8-29.2 0-56-1.3-82-4.1-3.9-.4-7.9-.8-12.1-1.1-24.5-2.2-52.2-4.7-71.1-18.1 4.1 5.5 9.9 10 15.5 12.9 12.4 6.5 25.9 9.6 39.6 11.7 29.7 4.6 60 6.1 89.9 6.9 52.2 1.4 127.3-1.8 163.6-16.2 11.8-4.7 21.3-10 26.7-15.3z" style="fill:#fdce1a"/><path d="M723.3 142.9c-1.7 2.5-3.2 5.1-4.6 7.9-7.9 7.9-28 19.4-36.1 57.5.2-6.9 1-13.5 2.5-19.7 5.2-22.2 17.9-38.5 36.8-47.1.1 0 .1-.1.2-.1 1.2-.6 2.2 0 1.2 1.5zm21-7.3c-3.5.1-7 .6-10.4 1.5-1.1.3-2.1.6-3.2 1-1.6.5-2 .7-2.8 1.6-16.4 19.3-20 52.2-21.3 75.4-.4 7.9-.5 15.4-.4 22.8 1.6-18.4 8.7-76 38.1-102.3zm19.2 2.9c-2.1-.7-4.3-1.4-6.5-1.9-.5-.1-1 .1-1.2.7-7.7 21.4-11.3 44.4-14.9 66.7-.9 5.7-1.8 11.4-2.8 17-6.5 34-5.8 62.8-5.8 62.8 3.9-53.7 13.5-86.7 16.3-102.1 2.4-13.4 8.5-34.9 14.9-43.2zm17.9 103.2c12.8-46.6 5.2-82.8 4.1-89.9-.6-.5-1.2-1.1-1.8-1.6-1.1-.9-1.9-.1-1.7 1 5.4 32 5.7 59.7.7 84.7-.5 2-.9 3.9-1.3 5.8zm69.4 63c-.7 0-1.4 0-2.1.1-7.6.6-15 3.1-22.1 7.5l-.4.7s19.8-6.6 38.6-4.4c-4.3-2.5-9.1-3.9-14-3.9zm11.7 16.7c-15.4 0-29.1 3.3-40.2 9.4 5.9-1.1 27-7.2 57-4.1-.4-1.3-.9-2.5-1.5-3.8-.2-.3-.5-.6-.8-.6-4.9-.6-9.8-.9-14.5-.9zm-27.8 31.2c-2.4 0-4.7-.1-7-.3 6.2 3.1 21.7 3 34.4-3.5-8.1 2.2-17.5 3.8-27.4 3.8zm-129.8-49.5c-49.2 17.8-69.9 63.5-78.3 104.7 8.3-17.8 22.8-44.9 34-63.6 12.9-21.7 43.4-36.7 48.1-39-.4-.5-.9-1-1.3-1.6-.5-.6-1.3-.9-2.5-.5zm72.2 6.9c-3.4-2.5-7.5-5-11.4-6.9-.1-.1-.7-.3-1.2.2-10.1 10.4-20.1 15.6-29.8 15.6-1.2 0-2.4-.1-3.6-.2-2.6-.3-1.6-.6-4 .1-19.5 6.4-37.6 24.3-55.2 54.6 14.9-16.4 38.2-40.6 48.5-44.7 15.8-6.3 27.7-6 35.1-9.8 5.6-3 14.1-8.9 21.6-8.9zm-14.4 35.2c20-8.1 28.1-11.4 35.4-11.6-1.1-1.9-2.2-3.7-3.4-5.4-.4-.6-.6-1.1-1.8-.9-31.3 4.8-57.7 29.5-77.3 50.5-9.6 10.3-19.1 21.6-28.6 34 20.8-22.1 57.3-59.1 75.7-66.6zm44.1 10.5c-.3-1.3-1.7-.8-2-.2-14.7 30.6-43.7 52.5-66.9 70-14.3 10.8-26.3 19.2-37.7 26.3l-.3.4s50.1-25.9 78.2-50.8c14.8-13.1 24.4-27.2 30.2-37.6-.4-2.8-.9-5.4-1.5-8.1zm-37.1 86.7c10.8-6.9 23.7-19.5 31.9-28.1 1.6-3.8 3-7.8 4.1-11.9.1-.5-.1-1-.5-1.2-.2-.1-.3-.1-.5-.1-.3 0-.6.1-.8.4-19.4 25-47.1 46.4-79.2 62.1 11.4-4.6 32.7-13.3 45-21.2zM587.7 67c-3.4-1.2-7.2-1.9-11.3-1.9-6.6 0-13.3 1.8-19.3 5.1-6.9 3.8-13.1 8.2-18.7 13.3 11.4-6.5 30.2-15.4 49.3-16.5zm-60.8 42.1c8.5-5.2 41.6-24.7 68-32.6-24.4 1.9-49.8 14.2-68 32.6zm37.3 5.4c-3.7 1.3-7.4 2.6-11.2 3.8 4.4-.2 12.4-1 20.7-3.7 9.6-3.1 15.9-9.3 19.1-13.9-8 5.2-17.4 9.8-28.6 13.8zm-43-19.5c.9-1.2 1.8-2.5 2.8-3.7.2-.3.3-.7.1-1.1-9.8-21.6-30.6-58.5-60.8-62.8-.1 0 29.1 12 57.9 67.6zm-25.5 30.5c-5.6-24.9-11.4-44.8-18.3-62.7-4.6-11.9-9.8-25.4-18.5-35.4-.4-.4-.8-.3-1.3-.4-2.1 0-4.2.2-6.3.5 8.2 6.2 14.9 17.8 20.5 33.3 7 19.3 20 64.2 23.5 80 2.5 11.3 8.6 40 11.8 55.5-2-21.9-5.7-45.4-11.4-70.8zm-31 45.7C452.4 119.2 446.3 73 446 30c0-.8-.9-1.1-1.5-1-1.1.3-2.1.7-3.1 1.1-.3 7.7-.7 27.8 1.5 49.2 2.8 27.4 8.4 63.8 16.5 89.8 4.7 15.2 9.9 26.7 13.4 33.7-3.1-11.2-5.8-21.9-8.1-31.6zm-31.7-2.9c-13.1-48.9-15.4-89.9-7-125.5.3-1.1-1.1-1.7-1.8-1-3.6 3.9-6.6 8.3-9.1 13-.9 12.8-1.6 30.2-.6 43.9 1.5 21.8 14.3 73.6 28.5 101.9-3.6-10-6.9-20.8-10-32.3zm-63.1 71.4c-9.1-4.5-18-6.9-26.5-6.9s-16.4 2.4-23.2 6.8c8.1-1.3 19.6-2 32.6.8 18.5 3.9 49.1 27.5 64.7 40.1-13.9-17.3-31-32.4-47.6-40.8zm-16.4 30.1c27.9 11.5 52.7 31.6 62.3 40-12.1-14.6-25.7-27-40.4-36.5-12.9-8.3-24-13.7-35-17-6.6-1.9-13.6-3.7-20.5-3.7-6.2 0-11.4 1.5-15.7 4.5-.1.1-.2.2-.3.4-.6 1.1-1.2 2.3-1.7 3.4 7.5-1.2 25-1.9 51.3 8.9zm-9.8 58.1c-18-11.9-37.8-26.2-45.1-45.4-.5-1.2-1.9-.6-2 .3-.2 2.5-.3 4.9-.3 7.4 4.3 7.7 12.9 22 21.4 27.8 10.9 7.4 32.5 20.2 50.6 22.7-9.5-4-17.5-8.1-24.6-12.8zm232.5-16.3c7.4 12.9 17.3 32.8 24.3 51.1-1.4-19.4-7-39.7-20.2-57.2-16.9-22.2-39.2-35.3-61.4-36H517c-1.1 0-2.2 0-3.3.1-.1 0 51.6 23 62.5 42zm-27 3.1c13.3 21.9 28.9 75.3 33.4 91.4-.5-4.1-1.1-8.1-1.6-12-2.7-18.4-6.5-34.1-11.4-48.1-13.6-38.4-34.6-63.8-62.6-75.5-.1-.1-.3-.1-.4-.1h-.2c-4.4.7-8.7 1.8-12.9 3.2 7.7 3.1 41.7 18.1 55.7 41.1zm8.1 84.2c-3.9-14.9-8.3-30.7-14.3-46-15.7-40.2-36.6-63.9-63.9-72.5h-.3c-.2 0-.4 0-.5.1-2.6 1.5-5.2 3.3-7.7 5.1 10.8 6.2 41.4 25.4 54 51.2 10.6 21.7 25.4 50.5 34.5 69.3-.6-2.3-1.2-4.7-1.8-7.2zm-62.2-12.8c-8.2-15.5-16.2-32-23.6-49.1-4.9-11.2-10.2-24.6-12.2-39.2-.1-.4-.3-.7-.7-.9h-.3c-.3 0-.6.1-.8.3-1.7 1.8-3.3 3.8-5 5.7 3.1 11.9 12.8 45.4 29.7 73.7 11.7 19.5 23.9 33.4 32.5 42-6.8-9.9-13.4-20.7-19.6-32.5zm-12.3 39.4c-14.6-15.3-25.8-31.4-33.7-48 1 6.9 3.7 18.9 11.4 29.4 10.5 14.3 19.9 22.8 32.3 28.2-3.6-3.1-6.9-6.3-10-9.6zM646 492.8c-7.1-19.9-20.3-33.1-38.2-38.2-.8-.2-1.7.6-1.1 1.6.7 1.2 1.5 2.3 1.8 2.8 33 12.7 40.1 49.5 43.2 69.8 0-12.8-1.8-25.3-5.7-36zm-43.2-39.2c-.2-.2-.4-.3-.6-.4-2-.4-4-.6-6-.8 12.5 11.3 21.4 33.2 30.2 61.2-3.2-23.8-11.1-43.9-23.6-60zM542 473.8c-.4-.1-.9-.1-1.3-.2h-.2c-.3 0-.6.1-.8.4-13.6 16-20 36.9-21 58.3 6-31 21.8-55.9 23.3-58.5zm-4.4 94.5c-.7-23.7 4.5-66.9 9.6-85.9-7.7 18.7-11.6 39-11.5 59.1.1 10.4.7 19 1.9 26.8zm66.3-30.3c-1-29.7-5.8-53-15-72.7 0 0 7.4 21.8 11.1 60.5 2.1 15.1 1.9 57.8 1.9 57.8.2-2 .3-3.8.5-5.6 1.4-14.8 1.9-27.8 1.5-40z" style="fill:#ff9a83"/><path class="st10" d="M873.9 360.1c9-6.6 14.3-17.1 12.2-32.1-2-14.7-16.1-27.5-30.6-29.1-3.2-.4-6.3-.4-9.3-.1.5-1.3 1-2.6 1.7-3.7.3-.5-.4-1.1-.9-.7-1.6 1.5-3.4 3.1-4.8 4.9-16.4 2.9-30.3 14.5-40.9 27.5-3.3-5.2-7.2-10-11.6-14.3l3.6-3.3c.3-.3 0-.9-.4-.7-1.8.7-3.6 1.2-5.4 1.9-5.1-4.7-10.9-8.7-17.3-12 7.1-8.5 13.5-18.5 18.8-28.2 2.2-.5 4.3-1.4 6.3-2.6.4-.2.2-.9-.2-.9h-4.2c4.4-8.3 8-16.1 10.6-22.3 8.3-19.6 11.6-40.7 8.2-59.7.7-1.4 1.3-2.9 2.2-4.2.4-.6-.3-1.1-.9-.9-.7.3-1.4.7-2.1 1.1-4.4-19.1-16-35.6-36.4-45.5 1.1-1.3 1.9-2.7 2.6-4.2.2-.6-.6-.9-.9-.6-1 .8-2.1 1.5-3.2 2.1-.6.3-1.2.7-1.7 1.2-1.5-.7-3.1-1.3-4.8-1.9-29-10.5-55.1 4.5-71.1 27-.9-1.3-1.9-2.5-2.9-3.7-.4-.5-1.3-.1-1.3.5.1 2.4.2 5 1.5 7.1-4.4 6.9-7.8 14.3-10.2 21.8-5.8 18.5-6.3 38.6-2.5 58-1-.3-2-.5-2.9-.8-.8-.3-1.1.7-.7 1.2 1.3 1.6 2.7 3.4 4.7 4.2 4.2 18.1 12 35.4 22.5 50.3-9.9 3.7-18.7 8.5-26.6 14.3-.1-.4-.2-.9-.3-1.3-.5-1.6-.2-3.4-.5-5-.1-.4-.6-.4-.8-.1-.7 1.4-.9 3-1.3 4.5s-.9 3-.8 4.6c-11.5 9.1-20.9 20.2-28.5 32.6-1.2-1.7-2.8-3.2-4.3-4.4-.3-.3-1 0-.8.5.9 2.4 1.6 5.2 3.2 7.2-16.9 29.3-24.1 65.4-25.6 99.9-3.5-1.4-7.3-2.5-11.3-3.3.2-2.6-.5-5.3-.7-8 0-.8-1.2-.8-1.2 0-.1 2.6-.9 5-1.5 7.4-2.6-.4-5.2-.6-7.9-.7 1.5-3.3 2.8-6.5 4-9.5 5-12.7 8.3-26.3 9.9-40.1 2.9 0 5.8-.3 8.5-1.4.3-.1.4-.6 0-.7-2.6-.6-5.4-.8-8.2-.9 3.6-37.5-5.9-76.2-32-103.8l-2.1-2.1c1.6-1.4 2.8-3.2 3.2-5.3.1-.5-.4-.9-.9-.7-1.7.8-3.4 2-5 3.1l-.2.2c-13.9-12.8-29.7-19.2-45.6-20.4 3.7-6.3 7-12.7 9.8-19.2 2.7-1.3 5.2-2.9 8-4.1.9-.4.2-1.8-.6-1.5-1.9.5-3.9 1-5.8 1.6 7.7-19.6 11.4-40.3 11.9-61.3 1.4-.9 2.7-1.9 3.8-3.2 1.5-1.6 2.8-3.5 4.3-5.1.4-.4-.2-1-.6-.6-2.2 1.9-4.8 3.3-7.4 4.7 0-13.1-1.1-26.2-3.3-39.4 10.5 0 21.9-1.7 32.3-5.4 1.9.7 3.9 1.1 5.9 1.5.8.2 1.3-.7.8-1.3-.6-.8-1.4-1.4-2.3-1.9 11.6-5 21.5-12.8 26.8-24.2 10-21.4-3.2-42-25-46.1-5.4-1-10.9-.7-16.2.5v-.1c.1-1.5.8-2.9.9-4.5 0-.6-.7-.7-1-.3-.9 1.3-1.7 2.7-2.7 4-.5.7-1 1.3-1.4 2-12.9 4.2-24.9 13.7-34.2 24.2-4.8-10.3-10.8-21.3-18.1-31.2.1-.2.2-.3.3-.6.4-1.6.9-3.1 1.3-4.6.5-1.6 1.1-3.7.9-5.4-.1-.5-.7-.7-.9-.3-1 1.5-1.6 3.1-2.7 4.5-.7.9-1.2 1.8-1.6 2.7-11.2-13.9-25.4-24.7-43.2-27.2.1-2.1-.9-4.4-1.9-5.9-.4-.6-1.5-.4-1.5.4 0 1.4.1 2.7-.2 4.1-.1.4-.1.7-.2 1.1-.4 0-.9-.1-1.3-.1-31.1-1.3-48.3 21-56 47.7-.6-.7-1.2-1.5-1.6-2.4-.4-.8-1.4-.2-1.3.6.3 2.1.6 4.1 1.9 5.8-.5 2.1-1 4.2-1.4 6.3-5.7 28.8-2.1 59.6 4.5 88.6h-1.2c-1.6.1-3.3-.1-4.9-.1-.9 0-1.2 1.2-.4 1.6 1.3.8 2.9 1.2 4.4 1.8 1 .3 2 .7 3.1.9 1.3 5.5 2.7 10.9 4.2 16.2 5.5 19.8 14 41.1 26.1 59.5-2.4.1-4.8.2-7.2 0-.6-.1-.8.8-.3 1.1 3.2 1.8 6.8 2.8 10.4 3.2 7.8 11.2 17 21.1 27.7 28.7-9.5 6.8-18.1 15.3-25.2 25.2-11.2-22.7-30.1-46.1-52-62.1-.2-1.1-.4-2.1-.7-3.1-.5-1.8-.6-3.7-.4-5.6.1-.6-.9-.7-1.1-.1-.4 1.7-.7 3.4-1.1 5-.1.4-.2.9-.3 1.3-11.4-7.8-23.7-13.5-36-16-5.5-1.1-10.7-1.3-15.4-.8-.7-1.7-1.7-3.4-2.8-4.8-.4-.5-1.2-.2-1.1.4.4 1.6.7 3.2 1 4.8-16.8 3-28.2 15.7-34.8 31.4-.5-.2-.9-.4-1.4-.6-1.3-.6-2.6-1.3-4-1.9-.8-.3-1.1.7-.7 1.2 1.3 1.6 2.9 3.5 4.7 4.8-4.4 12-6.2 25.4-5.6 37.5.9 19.1 9.6 33.4 22.2 43.9-2 .5-4 1.2-5.8 1.9-.4.1-.6.9 0 1 3.4.5 6.9.3 10.4.6 15.6 11.2 35.8 17.4 55 20.2 5 .7 10.2 1.1 15.5 1.2-.5.6-1 1.1-1.6 1.7-.4.4 0 1.1.5.9 1.3-.4 4.3-1.2 5.9-2.6 10.3-.2 20.7-1.6 30.5-4.5-.2 31.4 14.9 55.7 36.8 74.1-2.2.8-4.1 2.1-6.3 3.6-.4.3-.2 1 .3.8 3-.8 6.3-1.4 9.4-1.6 14.3 11.2 31.1 20 48.3 26.7 6.5 2.5 13.7 5 21.1 6.9-3.9 5.1-7.2 10.7-10 16.5-1.2-1.3-2.4-2.6-3.7-3.8-.7-.7-1.9 0-1.6.9.7 2.5 2 4.9 3.5 7.1-7.1 17.3-9.6 37-7.9 56.3-2.9-.4-6.2.5-8.9.6-.7 0-.7.9-.1 1.1 2.8 1 6.2 2 9.4 2.1.6 5.6 1.6 11.1 2.9 16.6-18.4 3.4-76.5 16.2-72.4 36.6-.2 14.6-3 32.8 2.7 46.3 3.4 8 8.9 13.2 15.5 16.9 2.1 21.5 3.3 38.9 22.8 51.4 13.5 8.7 23.4 21.4 29 36.4 1.7 4.5 4.5 7.7 8.2 10.6 25.1 19.4 68.5 18.9 98.4 19.2 31.6.3 74.2 0 101.5-18.6 3.4-2.3 6.1-5.3 8.1-8.9 7.9-14.8 13.5-26.5 27.2-36.8 8.5-6.4 15.1-10 19.9-20 4.7-10 4.6-22.5 5.6-33.3 19.5-12.1 18.4-34.5 18.2-58.8 0-1.9 0-8.2-.1-8.9-1.5-13.6-24.9-20.6-34.7-23.8-35.2-11.5-74.7-14-111.6-15.6l1.2-5.7c2.5-.7 4.4-2.3 6.3-4.2.5-.5 0-1.4-.7-1.2-1.6.5-3.3.9-4.9 1.4 1-6.5 1.6-13.1 1.8-19.7 1.9-.9 3.9-2 5.4-3.4.7-.6-.1-1.5-.8-1.4-1.5.3-3.1.5-4.6.9-.1-10.6-1.3-21.1-4-30.8 31.3-1.1 67.5-9.7 97.9-26.5 2.9.9 5.9.8 8.9 1.4.7.1.9-.8.3-1-1.8-.7-3.6-1.7-5.3-2.6 21.6-12.6 39.8-29.5 50.6-50.8.6-1.1 1.1-2.2 1.6-3.3 2.6-.6 5.2-2.1 7.2-3.8.4-.3 0-.9-.4-.9-1.7 0-3.4.3-5.1.6 5.9-15 7.6-31.5 5.3-47.4 5 1.9 10.5 3.2 16.1 3.9 1.4 1.9 3.2 3.6 5.2 4.8.3.2.7-.1.6-.5-.5-1.4-1.3-2.7-2.2-4 12.7 1.1 25.9-.9 35.7-6.8 2.6.9 5.4 2 8.2 2.1.5 0 .6-.6.4-.9-1.2-1.3-3.2-2.2-5.2-2.9zm-67.1 32.8c-34.8 50-98.3 81.8-157.3 92.4-.8-1.9-1.7-3.8-2.7-5.6 15-3.6 29.9-13 42.9-20.4 17.1-9.8 33.2-21.1 48.9-33 26-19.6 52.9-40.5 67.3-70.4 2.7 12 3 24.7.9 37zM631.4 598.5c-3-.3-6.1-.1-9 .5 3.7-9.8 4.8-21.3 6.1-31.4 1.9-14.9 2.6-29.7 1.6-44.7-1.6-24.1-8.6-47.7-22.5-67.3 54.1 15.7 51.8 102 23.8 142.9zm42.5 2.2c2.3-3.6 3.7-7.1 7.6-9.3 1.4-.8 3.1-1.2 4.7-1.5 6.2 1.9 11.2 6.6 15.6 11.7-5 2.8-9.6 6.8-13.8 11.7-.2-.1-.3-.2-.5-.4-10.3-7-23.1-2.2-34.7-5.8 6-9.6 12.5-16.6 24.8-18 1.2-.1 2.3-.2 3.3-.1-.4.2-.9.5-1.3.8-3.6 2.3-6.4 6.4-6.2 10.8.1.3.4.4.5.1zm56.7 16.3c4.8 0 9.5-.6 14.3-.4 1.5.1 2.8.1 4.2.1h2.3c12.4.1 15-.9 21.7 3.5-18.5 5.7-46.2 9.5-69.8 11.8-2.2-5.6-5.4-10.1-9.5-14 14-15.7 28.3-16 45.3-4.2-3.1.5-6.1 1.4-8.5 2.8-.3.1-.2.4 0 .4zm-81.1-2.2 1.8.9c-7.2.5-14 0-21.3-.8-.1 0-.2.2-.1.2 8.8 4.9 22.4 5.1 33.9 3.2 12.5.6 24.4-2.3 31.8 14.5-17.9 1.6-32.3 2.3-36.5 2.5-11.9.5-23.8.8-35.7.9-5.1-8-10.9-13.2-20.6-14.6-1.4-.2-2.7-.5-4-.7 5.4-5.4 11.1-9.9 18.4-13 12.6-5.3 21.9 1.2 32.3 6.9zm-148.8-3.2c1.4.1 2.8.1 4.2.2 4.7.2 9.6.8 14.2-.5.3-.1.2-.5-.1-.6-3.8-.4-7.5-1-11.2-1.7 6.1-3.2 10.8-8.2 16.7-12.4.2-.1.4-.3.6-.5 2.8 5.8 6 11.3 9.6 16.4-8.7 3.7-16.4 9.6-20.9 16.5-6.1-.9-12.1-1.9-18.1-2.9-3-.6-9.9-1.9-17.4-4.1 2.2-4.1 5.2-8.1 9.6-9.6 3.9-1.2 8.6 0 12.8-.8zm72.4 10c2 1.1 4.1 2 6.3 2.8-5.9 1-11.8 2.5-17.9 2.7-.2 0-.3.3-.1.4 5.2 1.6 10.3 1.1 15.7.1 5.6-1 10.6-.7 13.9-.2 2.4.3 17.8 4.1 22.8 8.9-30.7-.1-61.5-1.9-91.8-6 11.5-14.1 35.7-17.6 51.1-8.7zm-94.3-340.2c32.9 10.4 51.3 41.4 63.2 71.9 5.8 14.9 10.2 30.4 14.2 45.9 2.5 9.5 4.7 19 6.5 28.6 1.2 6.7 2 13.5 2.6 20.3.5 6 1.8 12.3 1 18.3-1.4.6-2.9 1.1-4.5 1.5-25.7-20.8-45.3-48.8-61.4-77.4-8.4-14.9-15.4-30.6-22.7-46-7.5-15.8-14.4-32.3-16.3-49.8 5.4-5.2 11.2-9.7 17.4-13.3zm27.8-9.9c31.8 13.3 50.8 43.3 61.9 74.9 5.5 15.5 9 31.7 11.4 48 2.8 19 5.2 39.4 1.1 58.4-3 4.6-6.5 8.7-10.7 11.6.6-8.7-1.3-18.2-2.3-26.6-1.5-12-4.2-23.7-7.1-35.4-4.5-17.7-9.5-35.2-16.1-52.2-11.7-29.9-30.3-59.6-61.5-71.1 7.1-3.7 14.9-6.3 23.3-7.6zM458 28.1c8.6 9.9 13.8 23.3 18.4 35.3 7.8 20.2 13.5 41.3 18.2 62.4 10.2 45.1 16.5 93.2 10.5 139.4-2.5.4-5.1 1-7.6 1.7-13.5-30.8-22.5-63.8-30.3-96.3-11.1-46.2-18.4-93.8-18.6-141.4 3.3-.9 6.4-1.2 9.4-1.1zm132.3 590.8c-5.9-1.6-11.4-3.7-17.2-6-17-42.8-10.9-93.2-6.1-138.2 7.6-2.3 13.5-8 18.1-14.9 12.7 23.9 16.9 51.4 17.8 78.2.4 13.3-.3 26.6-1.5 39.9-1 10.8-1.5 25.6-6.4 36.3l-4.7 4.7zm-27.1-143.4c-4.7 44.3-10.3 93 5.3 135.5-.3-.1-.5-.2-.8-.3-4.9-2-10.4-2.6-15.9-2.3-3.1-9.7-8.3-18.9-10.8-29-3.1-12.4-4-25.2-4.1-38-.2-22.5 4.8-45.2 14.4-65.5 3.9.3 8 .2 11.9-.4zm241.1-124.9c0 .1-.1.1-.1.1-13.7 31.2-41.1 52.3-67.5 72.4-13.9 10.6-28.3 20.6-43.3 29.7-14.2 8.6-31.7 19.9-48.5 23.6-.1-.1-.2-.3-.3-.4 21.1-34.4 44.1-67.8 71.7-97.4 20.3-21.8 46.4-45.8 77.1-50.3 4.9 6.8 8.5 14.4 10.9 22.3zm4.9-8.6c16.8-17.7 44.1-21.7 67.6-18.6.6 1.4 1.2 2.8 1.6 4.3 1.3 4.5 1.2 8.8 0 12.8-20.4 8.6-46.6 13.3-67.8 5.4-.4-1.3-.9-2.6-1.4-3.9zm39.6-36.2c10.7-.8 20.3 5 25.9 13.6-23.5-2.5-50 1.8-67 18.9-.7-1.6-1.5-3.1-2.3-4.7 10.6-13.9 25.2-26.4 43.4-27.8zM791.1 325c-28.2 5-51.8 25.1-71.4 44.8-30.2 30.3-54.8 66.4-77.2 102.8-1.2-1.8-2.6-3.5-3.9-5.1.1-.1.1-.3.2-.5 4.7-31.8 16.7-62.6 32.6-90.5 12.5-22 31.6-49.3 57.5-57.1 13.2 2.8 25.6-4.2 36.4-15.3 10.5 5.2 19.1 12.4 25.8 20.9zm-.9-167.2c15.7 16.9 15.8 39.4 11.7 60.6-3.4 17.9-20.8 59.7-42.6 80.9 12.9-18.5 20.2-42.4 24.3-63.3 5.6-28.1 4.1-57-.7-85.1 2.6 2.2 5.1 4.5 7.3 6.9zm-11.6-10.2c5.2 29 6.7 58.3 1.5 87.5-4.5 25.1-14.7 55-33.3 73.6-3.7 1.9-7.4 3.1-11.2 3.3-4.8-30.2-1.7-60.9 3.5-90.8 4.8-27.9 8.1-56.7 17.7-83.5 7.8 1.7 15.2 5.2 21.8 9.9zM753.1 137c-9.9 27.7-13.2 57.8-18.2 86.7-5 29.1-7.5 59-3 88.3-2.6-.3-5.2-1-7.9-2.3-1.2-.6-1.9-1.1-2.6-2.2-7.3-10.8-9.7-23.9-11.6-36.6-2.8-18.4-3.3-37.1-2.2-55.7 1.3-22.3 4.6-54.1 19.9-73.3 1.4-1.8 3.2-2.8 6.7-3.7 6.4-1.8 12.8-2 18.9-1.2zm-30.6 5.3c-12.7 18.3-16 45.2-18 65.7-1.9 20.3-1.2 40.7 1.4 60.9 1.4 11 3.3 22.4 8 32.6-34.3-41.7-49.5-133 8.6-159.2zm-100 310.9c2-60 21.7-127.6 83.6-149.5 1.7 2.1 3.4 4.1 5.1 6.1 4 3.6 7.9 6.1 11.7 7.8-21.5 8.6-37.7 29.7-49.7 48.4-18.7 29.2-32.3 63.7-37.8 98-3.8-3.9-8.2-7.3-13.1-10.1.1-.2.2-.4.2-.7zm-33.2-.1c4.5 0 8.7.4 12.7 1.2 15.9 20.5 22.9 45.7 24.6 71.5.8 12.1.2 24.3-1.1 36.4-1.3 12-2.4 26.8-7.6 38.1-6.1 2-12 5.4-17.3 9.5 2.1-7.7 2.7-16.2 3.6-23.6 2.1-15.9 2.8-32 2.4-48-.6-28.1-5.5-57.1-19.3-81.8.6-1.1 1.2-2.1 1.8-3.2.1-.1.1-.1.2-.1zm-9.9-146.9c26.4 34.7 23.8 83.6 11.8 123.2-1.3 4.2-2.9 8.8-4.9 13.4 1.5-15.5-.4-31.3-2.4-46.6-2.4-18.1-6.5-35.9-12.6-53.1-10.6-30-29-57.9-57.6-72.3 1.4-.1 2.8-.1 4.3-.1h.8c24.4.6 46.1 16.5 60.6 35.5zm-11.5-181c-10.5 3-33.7 5.8-43.3-1.9 13.4 1.3 27.8-3.3 39.9-7.7 13.5-4.9 27.3-11.5 38.4-20.9-.1 1-.2 2-.4 3-3.2 16.2-20.5 23.4-34.6 27.5zm35.2-35.8c-11.2 10.3-25.6 17.2-39.6 22.5-12.7 4.8-28.5 9.8-42.3 7-.2-.4-.3-.9-.5-1.3 18.5-23.1 48.9-39.6 78.7-40.2 2.2 3.3 3.5 7.3 3.7 12zm-45.6-18.3c13.9-7.6 30.2-6.2 39.1 2.8-28.8 1.6-57.4 16.8-76.3 38.5.3-2.6 1.1-5.5 2.7-8.8 8.8-14.1 20.1-24.7 34.5-32.5zm-34.4 19.6c-2.4 3.1-4.6 6.1-6.4 9.1-10.1 21.3-.2 34 20.2 36 0 .2-.1.4 0 .6 7.6 44.5 3.1 88.9-21.1 127.6-2.3.1-4.6.3-6.9.6 6-47.2-.9-96.2-11.3-142.3-4.9-21.6-11-43-19.1-63.6-4-10.2-8.6-21.3-15.4-30.2 28.5 4.1 49.2 38.2 60 62.2zM445 30c.3 47.7 7.8 95.1 18.7 141.4 7.7 32.6 17 65.6 30.4 96.4-2.8.9-5.6 1.9-8.4 3.1-25.8-28-40.2-67.4-50.1-103.4-11.4-41.4-17-87.6-5.5-129.7 4.2-3.4 9.1-6 14.8-7.8h.1zm-39.6 74.8c.3-21.2 4.8-46.5 19.6-62.2-9.7 41.3-3.8 85.6 7 126 9.7 36.1 24.6 75.7 50.1 104-2.9 1.4-5.7 2.9-8.5 4.6-51-33.7-69.1-115.5-68.2-172.4zm52.8 193.3c1.9 13.7 6.7 26.7 12.3 39.4 7.3 16.6 15.2 33.1 23.7 49.1 15.9 30 36.4 59.8 62.6 81.9-2.8.1-5.6-.1-8.4-.4-10.8-3.2-20.7-9.7-30-16-12.3-8.2-23.5-17.9-33.8-28.5-19.2-19.6-34.6-43.6-41.9-70.3 10.2-8.3 7.9-22.8 4.5-34.4l-1.8-4.5c3.9-5.9 8.1-11.4 12.8-16.3zM431 352c-14.5 1.9-30.7-3.6-44.4-7.7-14.6-4.4-28.6-10.7-41.6-18.7-18.6-11.4-41.6-28.9-46-51.6 1.3-5.8 3.3-11.2 5.9-16 10.2-7.2 24.1-3.9 35.2-.6 12.4 3.6 23.9 9.8 34.8 16.8 27.6 17.8 49 43.8 64.5 72.5-2.3 2.2-5.2 3.9-8.4 5.3zm-61.6-111.3c29.4 14.8 59.3 49.8 70.7 80.3 1.7 5.5 2.9 10.3 3 16.2.1 2.3-.5 4.4-1.4 6.1-16.3-29.8-38.8-55.4-67.6-74-15.9-10.3-45.1-25.5-65.3-17.6 12.7-17.1 34.8-24 60.6-11zM355.3 355c-31.7-7.7-56.3-27.1-58-61.5-.2-3.7-.1-7.2.2-10.7 7.7 20.1 28.4 34.6 45.5 45.9 13.8 9.2 29.9 15.2 45.7 20 9.5 2.9 19.9 6 30.1 7-1.1.3-2.2.5-3.2.8-19.6 5.2-40.7 3.3-60.3-1.5zm74.9 5.1v-.2c3.2-1.3 6.4-2.7 9.4-4.3 7.7 26.9 23.3 50.5 42.5 70.7 9.7 10.2 20.6 19.2 32.1 27.4 5.4 3.8 11.1 7.7 17.2 11.1-6.2-1.7-12.2-3.8-18-5.9-43.5-15.7-84.9-48.8-83.2-98.8zm110.3 114.6c2.3.4 4.5.7 6.8 1-9 19.6-13.7 41-14.1 62.6-.2 12 .8 24.1 2.8 35.9 1.1 6.4 2.9 12.6 4.9 18.7 1.8 5.5 4.9 10.6 6.9 16-2 .3-4 .7-6 1.2-26.7-36.8-32-99.2-1.3-135.4zM455 598c14.2-14.5 43-17.6 62.9-20.6.9 2.9 1.8 5.8 2.9 8.7 1.1 2.9.4 3.8-.9 4.9-3.2 2.3-6.1 4.9-9.1 7.5-6.1 5.3-12.4 6-20.1 6.3-9.3.4-15.7 7.1-19.5 15.1-13.7-4.9-25.8-12.2-16.2-21.9zm314.9 102.6c-1.1 2.1-2.4 4.1-4.1 6-6 7-16.3 11.5-24.5 15.2-17.8 8-36.6 13.2-55 19.2-.3.1-.4.6 0 .7 9.7 1.9 20.2-2.1 29.3-5 8.5-2.8 16.9-5.5 25.2-8.8-6.2 6.4-11 13.9-14.8 21.9-3 6.3-3.8 10-9.6 14-24.6 16.8-63.9 16.2-92.3 16.5-30.3.3-67.1-.4-94.4-15.4-12.5-6.9-16.1-25.2-25.3-36.1 14.6 6.6 30.9 12.6 46.5 13.1.6 0 .6-.7.1-.9-14.6-5.5-29.5-10-44-15.9-4.2-1.7-8.5-3.6-12.7-5.6-2.7-2.1-5.5-4-8.4-5.9-14.4-9.2-15.2-24.7-16.5-39.9 3.9 1.5 8 2.7 12.2 3.8 48.4 13 102.3 13.2 152 12.7 44.7-.4 92.3-2.3 135.6-14.5 2-.6 3.9-1.2 5.6-1.9-.7 9.3-1.3 18.7-4.9 26.8zm22.3-54.1c-2.6 18.5-24.1 22.3-39.3 25.7-38.7 8.7-79.8 10-119.3 10.7-38.1.6-76.3-1.4-114.1-6.1-19.5-2.4-46.1-4.4-61.5-18.1-9.4-8.3-8.5-26.9-7.6-41.6 1 .9 2.2 1.8 3.5 2.8 22.5 16 57.6 16.8 83.9 19.5 40.2 4.2 80.8 4.8 121.2 3.3 34.3-1.3 69.4-4 103-11.9 8.8-2.1 22.9-5.6 31.4-12.9.2 9.6.2 19.3-1.2 28.6zM735.8 579c14 2.4 46.4 6.6 55.8 21.2 2.4 3.7 3.4 6.6 0 10.5-1.7 2-4.5 3.8-8 5.5-2 .9-2.5.7-3.9-.3-5-3.7-11.2-8.9-18-8.1-7.7.9-14.9 2.4-22.5-3-3.2-2.3-6-4.8-9.9-6-7.4-2.2-14.2-2.1-20.4-.2-9.4-11.4-19.4-18.2-34.6-16.4-13.4 1.5-21.5 11.1-28.1 21.8-2.3-1.6-4.6-2.8-6.9-3.6 5.6-8.7 10.1-19 13.4-30 27.7 1.2 55.5 3.9 83.1 8.6zm-83.9-87.6-.9-2.7c57-10.3 117.6-40.2 153.8-86.7-2.1 7.5-5 14.9-8.9 21.7-26 45.1-95.7 66.7-144 67.7zm161.7-135.6c-.4-1.9-.9-3.7-1.5-5.5 20.4 6.6 44.6 2.6 64.5-5.1-2.7 5.1-7.1 9.5-12.3 12.5-15.2 8.6-35.8 5.6-50.7-1.9z"/><path class="st10" d="M549.7 339.9c1.9-1.4 2.1-3.4 2.9-5.4.2-.6-.7-1.1-1.1-.6-1.2 1.4-3 2.2-3.9 3.9-.7 1.2.8 3.1 2.1 2.1zM514.7 349.8c-.2-2.2-1.1-4.1-2.3-5.9-.3-.5-1.1-.3-1.1.3-.1 1.9-.4 3.7-.4 5.6 0 2.4 4 2.4 3.8 0zM433.7 98.9c.7 1.4 2 2.6 3.1 3.7 1.3 1.3 2.8 3 4.6 3.4 1.1.2 2.5-.8 2-2-.7-1.7-2.1-2.4-3.6-3.3-.9-.5-1.9-.7-2.8-1.2-.9-.4-1.7-1-2.6-1.3-.5-.2-.9.2-.7.7zM473.3 108.3c.5-2.5.2-5.7-.8-8-.1-.3-.7-.2-.7.1-.2 1.1-.2 2.1-.4 3.2-.2 1.3-.7 2.6-1 3.9-.6 1.9 2.4 2.8 2.9.8zM486.8 179.5c1.2-1.9 2.2-4.3 2.3-6.6 0-.5-.8-.9-1.1-.5-1.4 1.8-3.3 3.2-4.7 5-1.6 2.1 2.1 4.5 3.5 2.1zM387.4 312.6c-.4-.5-1.3-.1-1.2.5 0 1.8.4 3.3 1.3 4.8 1.2 1.9 3.8.3 2.9-1.7-.7-1.6-2-2.4-3-3.6zM341.9 291.2c-1.9-.7-3.9-.7-6-.8-.7 0-.8.9-.3 1.2 1.6 1.2 3.5 1.9 5.5 2.5 1.9.7 2.6-2.2.8-2.9zM375.2 258.1c-.5-1.5-1.7-2.6-2.7-3.7-.3-.3-1-.1-.9.4.1 1.4.4 3.2 1.3 4.4.7 1.1 2.8.4 2.3-1.1zM539.8 422.8c.7-.2 1.2-.8 1.2-1.5 0-2.6-3.5-2.6-5.3-3-1-.2-1.7.9-1 1.7 1.1 1.2 3.2 3.2 5.1 2.8zM488.4 323.9c1.8 1.4 3.8-1.2 1.9-2.5-1.4-.9-3.1-1.2-4.7-1.2-.8 0-.9 1-.4 1.4 1.1.8 2.2 1.5 3.2 2.3zM591 373.4c1.5-1.9.2-4.1-.6-6.1-.2-.6-1-.5-1.1.1-.1 1.8-.8 3.7-.4 5.4.4.9 1.6 1.3 2.1.6zM477.1 385.7c1.8.6 3-2.3 1.3-3.1-2.3-1.1-5-1.2-7.5-.6-.5.1-.4.7-.1.9 1.8 1.3 4.2 2.1 6.3 2.8zM518.7 290.1c-.7-1.4-1.8-2-2.8-3.2-.3-.4-1-.3-.9.3.1 1.5 0 2.9.5 4.3.7 2.4 4.3 1 3.2-1.4zM671.9 355.6c.4-2.7-.7-4.8-1.7-7.3-.1-.3-.7-.4-.8 0-.3 2.1-.4 4.3-.8 6.4-.4 2.2 3 3 3.3.9zM747.6 390.9c1-.5 1.7-1.1 2.5-1.9.9-.9 2.2-1.3 3.1-2.1.3-.3 0-.8-.3-.8-1 0-1.8.2-2.8.4-1.4.3-2.7.2-4 .7-2.7 1.1-1.1 5 1.5 3.7zM771.8 364.6c1.9-1.2 3.5-2.9 4.8-4.7.3-.4-.3-.9-.7-.7-1.9.9-3.8 1.8-5.6 2.9-1.6.8-.1 3.5 1.5 2.5zM678.4 398.9c-.5 1-1.3 1.2-2 1.9-.6.5-1 1.1-1.5 1.8-1.4 1.8 1.9 3.9 3.1 1.8.4-.7.7-1.3 1-2.1.3-1 0-2.1.2-3.1.1-.4-.6-.8-.8-.3zM719.8 343c-1.4 1.1-2.9 2.5-3.8 4-.9 1.6 1.4 2.8 2.4 1.4 1.1-1.4 1.6-3.3 2-5 .1-.2-.3-.6-.6-.4zM752.7 245.4c-1.8 1.4-4.4 1.9-5.2 4.4-.3 1.1.8 2.1 1.8 1.8 2.5-.7 3.4-3.5 4.3-5.7.2-.6-.6-.8-.9-.5zM767.2 200.8c3.2-4.1 2.7-7 0-4.6-.9.8-1.8 1.7-2.6 2.6-1.6 1.8 1.1 3.9 2.6 2zM724.4 194.9c-.3-.6-1.5-.5-1.6.2-.3 1.7-.3 3.6.2 5.3.7 1.9 3.6 1.1 3-.8-.3-1.6-.9-3.2-1.6-4.7zM522.2 212.9c.1 1.2 1.4 1.8 2.3 1 1.1-1.1 1.4-2.8 1.4-4.3 0-1.7-.1-3.5-.4-5.1-.1-.6-1-.5-1.1 0-.4 1.4-.6 2.8-1.1 4.1-.5 1.3-1.2 2.9-1.1 4.3zM524.1 158.2c.6-2.7 0-5.5 0-8.3 0-.5-.7-.6-.9-.1-.9 2.6-1.6 5.3-2 8-.2 1.7 2.5 2 2.9.4zM501.6 81.9c.8-2.5.6-4.8 0-7-.7-2.7-2-2.6-2.3.2-.2 2-.5 4.1-.9 6-.4 2 2.5 2.9 3.2.8zM449.2 166.8c1.6 1.2 3.2-1.5 1.6-2.7-2.2-1.6-4.4-3.4-6.5-5.1-.4-.4-.9.2-.6.6 2 2.4 2.9 5.2 5.5 7.2zM745.3 438.7c-1.5-.6-3.5-.6-5.2-.5-1.6.1-3.6.2-4.7 1.4-.6.6-.5 1.8.3 2.2 1.6.8 3.3.2 4.9-.4 1.6-.6 3.3-1.1 4.8-1.8.4-.2.2-.8-.1-.9zM589.7 543.1c-.8 3.4-1 7.4-3.1 10.4-1.4 2.1 1.9 3.9 3.3 1.9 2.5-3.4 1.7-8.5.9-12.3-.2-.5-1-.5-1.1 0zM576.8 512.9c-.3-.4-1-.4-1.1.1-.5 2.2-.9 4.9-.7 7.1.3 3.3 5.2 2.4 4.3-.6-.6-2.1-1.2-4.8-2.5-6.6zM612.9 511.3c.5-1.5.6-2.9.6-4.6 0-.5-.7-.9-1-.4-1.1 1.3-1.8 2.6-2.4 4.2-.7 1.7 2.2 2.6 2.8.8zM640.5 506c-.1-.3-.5-.2-.7 0-.6.9-1.2 1.7-1.9 2.4-1.4 1.5 1.1 3.4 2.2 1.7.8-1.2 1-2.7.4-4.1zM585.4 586.6c-1.5.4-3.1 1.5-4 2.8-1.6 2.3 2.6 4.6 3.7 2.1.6-1.3 1.2-2.9 1.1-4.3 0-.4-.4-.7-.8-.6zM547.8 548.8c-.9-1.7-2-3.2-2.9-5-.3-.5-1.1-.3-1.1.3.1 2.3 0 4.3.9 6.4.9 2.2 4.1.4 3.1-1.7zM584.9 488.2h.2c.5-.1 1-.6 1.1-1.1.4-1.8 0-3.3-.5-5-.2-.6-.9-.5-1.1 0-.5 1.4-1.2 2.7-1.5 4.1-.1.5 0 1.2.4 1.6.4.3.8.5 1.4.4zM525.9 390.2c-.2-1.1-.8-1.8-1.5-2.6-.2-.3-.7-.4-.9 0-.5.9-.6 2-.6 3 .2 2.1 3.3 1.7 3-.4zM579.2 327.6c.5-1.6.3-3.6-.3-5.1-.1-.4-.6-.3-.7 0-.6 1.5-1.1 2.9-1.6 4.4-.6 1.6 2.1 2.4 2.6.7zM366.9 321.3c-1.4-.6-2.6-.7-4.1-.6-1.4.1-3.2 0-4.6.4-.4.1-.5.6-.2.8.9.9 2.8 1.3 4 1.5 1.7.3 3.4.7 4.9-.3.6-.3.8-1.4 0-1.8zM347.3 340c-2-1-3.9-.7-6-1-.5-.1-.8.6-.6 1 1.2 1.8 3 2.9 5.2 3.2 1.8.3 3.3-2.3 1.4-3.2zM414.1 296.3c.3.5.9.7 1.1.9.1 0 .1.1.2.1.2.1.5 0 .6-.2 2.2-2.4-1.5-6.6-3.1-8.5-.4-.5-1.3-.1-1.2.5.1 1.6.7 3.1 1.2 4.6.3 1 .7 1.9 1.2 2.6zM414.4 332.5c-2.3-.8-4.7-.9-7-.2-.4.1-.4.7 0 .9 2 .7 3.8 1.6 5.8 2.4 2.1.9 3.4-2.3 1.2-3.1zM438.9 212.3c-1.1-1-2.2-2.1-3.2-3.2-.5-.5-1.5 0-1.2.7.6 1.3 1.4 2.6 1.9 4 .4 1.2 1.5 3 2.8 3.3.9.2 1.7-.4 1.8-1.3.1-1.2-1.2-2.7-2.1-3.5zM493.9 225.7c1-2.3.8-4 .5-6.4-.1-.5-.9-.8-1.1-.1-.3 1.7-1.5 3.4-2.2 4.9-.8 1.9 2 3.5 2.8 1.6zM459.5 62c.3 1.1 2.1 1.5 2.7.4 1-2.1-.3-5-1.7-6.6-.2-.3-.7 0-.7.3 0 1.1 0 2-.3 3.1-.2.9-.3 1.9 0 2.8zM551.2 104.3c-.9.4-1.9.7-2.6 1.5-1.9 2.5 2.5 3.9 2.8 1.6.1-.9.1-1.6.4-2.5.2-.3-.2-.7-.6-.6zM582.2 95.5c-1.1-.1-2.2 0-3.2.3-2 .6-1.1 3.8.8 3.1 1.3-.5 2.3-1.2 2.9-2.4.2-.5 0-.9-.5-1zM686.7 441.7c-2.3.2-4.7.7-7 1.3-2.2.6-1.2 4.2 1 3.5 2.3-.8 4.5-2.2 6.4-3.8.4-.4.1-1.1-.4-1zM838.9 341.7c.9-.8 1.9-1.5 2.6-2.5.9-1.1 1.6-2.3 2.4-3.5.3-.4-.3-.9-.7-.7-1.1.7-2.4 1.1-3.6 1.6-1.2.5-2.3 1.5-3.3 2.5-1.7 1.7.9 4.3 2.6 2.6zM842.2 317.1c1.5-.8 2.7-1.4 3.9-2.7.4-.5.1-1.1-.5-1.2-1.9-.1-3.4.1-5 1.2-1.6 1.2-.2 3.6 1.6 2.7zM747.2 282.3c-1.4.7-2.8 1.8-3.8 3-.4.5-.6 1.2-.2 1.8.1.2.2.4.4.5h.1c.5.3 1.3.3 1.8-.2 1.1-1.3 1.9-2.7 2.6-4.2.1-.7-.4-1.2-.9-.9zM733.5 160.3c.4 2.2.4 4.5.5 6.8 0 1.9 2.9 1.9 2.9 0 0-2.7-.9-5-2.3-7.2-.4-.6-1.2-.2-1.1.4zM716.1 244.8c.4 3 .8 6.1 1.6 9.1.3 1.2 2.2 1 2.2-.3-.2-3.2-1.8-6.1-3.1-9-.1-.3-.7-.2-.7.2zM690 207.4c-.1 2.8-.2 5.9.8 8.6.6 1.7 3.3 1.5 3.2-.4-.1-3-1.7-5.6-2.8-8.4-.3-.6-1.2-.6-1.2.2zM772.3 177.5c1.5-2.9 2.5-6.7.6-9.7-.2-.4-.8-.2-.8.2-.1 2.9-1 5.5-2.1 8.1-.8 1.6 1.4 3 2.3 1.4zM555 741.4c-.4 0-.5.5-.2.7 1.9.9 4.1 1 6.2.7.3-.1.4-.6.1-.8-1.9-.8-4.1-.4-6.1-.6z"/></svg>