<svg version="1.1" id="e37c00f5-ff96-45aa-87ea-1a24b78ba7bd" xmlns="http://www.w3.org/2000/svg" x="0" y="0" viewBox="0 0 1176.6 803.7" style="enable-background:new 0 0 1176.6 803.7" xml:space="preserve"><style>.st0{fill:#ff5671}.st1{fill:#fdc435}.st4{fill:#86e4c7}.st8{fill:#39b78a}.st9{fill:#f1a12b}.st10{fill:#cfff73}.st11{fill:#b7f2da}.st12{fill:#fee434}.st16{fill:#895725}.st17{fill:#68182b}</style><path class="st0" d="M723.3 392.2c-.3 0-.5-.1-.7-.3-.3-.3-.5-.7-.4-1.1 2.8-13.9 5.2-28.5 7.3-43.5.1-.4.3-.8.7-.9 52.8-21.4 92.6-75.2 94.8-128 0-.4.3-.8.6-1 .2-.1.4-.1.5-.1.2 0 .4.1.6.2 2.2 1.4 4.2 3 6.1 4.8.2.2.3.3.3.6 3.6 15.4.3 32.9-2.6 48.3l-.2.9c-2.9 15.6-9.3 30.7-19.3 46.2-20.9 32.1-52.7 59-87.3 73.8-.1.1-.3.1-.4.1z"/><path class="st1" d="M522.5 529.9c-15.9-.8-31.3-2.1-45.6-3.7-.4 0-.7-.3-.9-.7-.2-.4-.1-.8.1-1.1 4.7-7 11.4-10.8 21-11.8 1.3-.1 2.7-.2 4.2-.2 3.9 0 13.5.6 18.9 6.3 2.6 2.7 3.8 6.1 3.5 10.1 0 .3-.2.6-.4.8-.2.2-.5.3-.8.3z"/><path class="st0" d="M522 510h-.3c-.4-.1-.7-.4-.8-.7-19.6-57.8-33.7-118.5-41.8-180.3 0-.4.1-.8.4-1 1-.9 2.1-1.8 3.1-2.8 21.4-21.6 23.8-55.1 23.8-78.4 0-8.4-.9-16.4-2.8-24.5-.1-.3 0-.6.2-.9l.5-.8c.6-1 1.2-2.2 1.6-3.4-.3.6-.7 1.3-1 1.9-.2.4-.6.6-1 .6h-.1c-.5-.1-.9-.4-1-.9-3.8-14.7-10.5-28.8-21-44.5-.2-.3-.2-.6-.2-.9C492 123.6 512 79.1 541.1 41.1c.1-.2.3-.3.5-.4 8.7-3.8 17.4-6.9 25.9-9.4h.3c.4 0 .7.2.9.5.3.4.3.9 0 1.3-20.1 30.4-27 69.8-31.4 107.9-3.8 32.9-5 68.3-3.7 111.2 1 35.2 4.3 70.9 7.5 105.5l.4 4.7c3.8 41.3 8.8 89.9 16.8 138l.4 2.5c.1.4-.1.8-.4 1.1-.2.2-.5.2-.7.2-.2 0-.3 0-.5-.1-4-1.8-8.2-2.7-12.6-2.7-8 0-15.8 3-21.9 8.4-.1.1-.3.2-.6.2z"/><path class="st1" d="M566.2 531.3c-12.3-.2-24.3-.5-35.7-1-.3 0-.6-.2-.8-.4-.2-.2-.3-.6-.3-.9 0-.1.1-.3.1-.4.2-4.5-1.1-8.6-3.9-12.1-.4-.5-.3-1.1.1-1.5 5.1-5 11.8-7.7 18.7-7.7 5 0 10.1 1.4 14.6 4.2 4.9 3 6.8 8.6 7.8 12.5.3 1.2.3 2.4.4 3.6 0 .8 0 1.6.2 2.4.1.3 0 .7-.3.9-.3.3-.6.4-.9.4z"/><path class="st0" d="M587.2 531.5h-12.6c-.6 0-1.1-.5-1.1-1.1 0-.7-.3-1.3-.8-1.8-.4-.5-.4-1.2 0-1.6.1-.1.2-.2.4-.2 0-.7-.2-1.9-.6-4.1-.4-2.4-1.3-4.5-2.3-6.7l-.2-.4c-1.5-3.5-4.4-6.5-8.4-9.1-.3-.2-.5-.5-.5-.8-8.2-46.5-13.1-93.8-17-134.5-3.5-36.6-7-75.9-8.6-115.2-1.5-35.3-.7-70.5 2.5-104.6 4-43.2 11-87.8 35-121.3.2-.2.4-.4.7-.4 8.6-2.2 17.1-3.6 25.3-4.3h.1c.3 0 .6.1.9.4.2.3.3.6.3 1-4.9 22.7-7 46.4-8.6 66.8 0 .3-.2.6-.4.8-.2.2-.5.3-.7.3h-.1c-1.5-.1-2.9-.2-4.4-.2-7.4 0-17.5 1.7-23.9 10-7.3 9.4 3.1 24.4 11.4 31.6 5.9 5.1 13.6 9.3 24.3 13.2.5.2.8.7.8 1.2-.1.5-.5.9-1 1-23 3.1-37.7 13.5-40.4 28.6-.8 4.2.1 8 2.5 11.3 5 6.8 15.8 10.5 24.2 11.6 2.4.3 5 .5 7.8.5h.4c.5 0 .9.3 1.1.7.2.4.1.9-.3 1.3-10.7 10.6-13.5 23.5-7.6 34.4.2.4.4.7.7 1l.4.5c.1.2.2.4.2.6.2 46.2 1.4 93.6 3.8 144.9 1.1 23.1 2.4 47.5 4.2 74.5.8 12.7 2.2 25.6 3.5 38.1 1.1 10.2 2.2 20.7 3 31.2 0 .3-.1.6-.3.9-.2.2-.5.4-.8.4-.4-.6-9.7-.5-12.9-.5z"/><path d="M683.2 194.7c-10.9 0-21.9-7.1-26.7-17.3-5.8-16.5-1.1-31.3 12.7-40.7 5-3.4 10.6-5.2 16.3-5.2 8.9 0 17.1 4.2 22.6 11.7 9.9 13.3 3.7 32.1-7.4 43.9-4.7 5-10.8 7.6-17.5 7.6z" style="fill:#ff821d"/><path class="st0" d="M737.1 289c-.2 0-.5-.1-.7-.2-.3-.2-.5-.6-.4-1 .5-6.6 1-13.1 1.5-19.6 0-.4.2-.7.5-.9.2-.1.4-.2.7-.2.1 0 .2 0 .3.1 2.4.7 4.7 1.1 6.9 1.1 4.1 0 7.7-1.4 10.6-4 13.2-12.1 9.4-26.8 3.9-37.1-.2-.4-.2-.8.1-1.2.2-.3.6-.5 1-.5h.1c.8.1 1.7.1 2.5.1 9 0 18.9-3.8 25.1-9.6.5-.5 1.1-1 1.6-1.6.1-.2.3-.3.5-.3 5.3-1.5 10.4-2.2 15.3-2.2.7 0 1.5 0 2.2.1.4 0 .7.2.9.5.2.3.2.7.1 1-15.2 38.5-39.5 63.8-72.1 75.5h-.6z"/><path class="st0" d="M731.2 344c-.2 0-.5-.1-.7-.2-.3-.2-.5-.7-.4-1.1 2.2-16 4-33 5.5-50.5 0-.5.3-.8.8-1 34.2-11.6 59.5-37.9 75.2-78.1.2-.4.6-.7 1.1-.7h.2c3.4.5 6.7 1.5 9.8 2.9.4.2.7.6.7 1.1-1.2 52-39.7 105.7-91.6 127.6h-.6zM641.7 515.4c-.2 0-.4 0-.5-.1-.4-.2-.7-.7-.6-1.2 8.7-74.8 16.4-155.1 14-235.4 0-.4.2-.7.5-1 3.5-2.5 6.6-5.5 8.7-8.4.9-1.2 1.7-2.5 2.6-3.8.2-.3.6-.5 1-.5h.2c.4.1.8.4.9.8 4.1 13.2 15.4 26.5 29.1 26.5 1.1 0 2.3-.1 3.4-.3 1.3-.2 2.5-.5 3.7-.9.1 0 .2-.1.3-.1.2 0 .5.1.7.2.3.2.5.6.5.9-.2 32.3-3.9 66.6-11.7 107.9-3.4 18.3-7.5 36.8-11.5 54.1-.9 3.9-1.7 7.9-2.6 11.8-2.4 11.4-4.9 23.2-8.6 34.3-.1.4-.5.7-.9.8-10.7 2.1-21 7.2-28.3 13.8-.3.5-.6.6-.9.6z"/><path class="st0" d="M603.7 531.4c-.6 0-1.1-.5-1.1-1.1-.8-10.4-1.9-21-3-31.2-1.3-12.4-2.7-25.3-3.5-38-1.6-24.1-3-49.2-4.2-74.5-2.3-47.6-3.5-94.9-3.8-140.5 0-.4.2-.8.6-1 .2-.1.3-.1.5-.1s.5.1.7.2c3.3 2.6 7.7 3.9 12.9 3.9 9.3 0 18.9-4.1 23.9-6.5.2-.1.3-.1.5-.1.3 0 .6.1.8.3.4.3.5.8.3 1.3-5.8 16.1-6 27.5-.4 34.7 2.7 3.5 6.4 5.3 10.8 5.3 3.7 0 8.1-1.3 12.4-3.8.2-.1.4-.2.6-.2.2 0 .4.1.6.1.4.2.6.6.6 1 2.3 80.7-5.7 162.1-14.6 238.1 0 .2-.1.4-.2.6-2.7 3.3-4.6 6.8-5.8 10.5-.2.5-.6.8-1.1.8-8.2.1-16.3.1-24.3.2h-3.2z"/><path class="st1" d="M639.9 531c-.4 0-.7-.2-1-.5-.2-.3-.3-.7-.1-1.1 5.7-13.9 19.5-19.9 30.1-22.5 2.8-.7 6-1 9.2-1 13.4 0 27.8 6.1 29.8 19.7 0 .3 0 .6-.2.9-.2.2-.5.4-.8.4-19.1 2.4-39.7 3.7-67 4.1z"/><path d="M466.4 525c-3.4-.4-6.8-.9-10.2-1.3-.3 0-34.1-5-35.7-12.8-.4-1.7.7-3.4 3-4.8 13.5-8.3 33.4-10.3 49.3-12 2.4-.3 4.8-.5 7.1-.8h.1c.4 0 .8.2 1 .6 2.5 4.3 5.1 8.6 7.8 12.9.2.3.2.7.1 1s-.4.6-.7.7c-8.3 2.8-14.9 8.3-19 15.8-.2.4-.7.9-1.2.9.1 0-1.6-.2-1.6-.2zm248.6.8c8.4-1.2 16.1-2.6 23.4-4.2 21-4.6 23.6-8.6 23.7-11.2.1-3-3.5-5.5-11.4-8-18.5-5.7-37.6-8.1-57.1-10.2h-.1c-.5 0-.9.3-1.1.7-.9 2.2-1.7 4.3-2.6 6.5-.1.3-.1.7 0 1 .2.3.5.5.8.6 12.9 2.6 21.1 11.1 23.1 23.8.1.6.6 1 1.1 1h.2z" style="fill:#ad8353"/><path class="st0" d="M675.1 500.5c-.3 0-.7-.2-.9-.4-.3-.3-.3-.7-.2-1.1 3.3-10.4 5.6-21.3 7.9-31.9.9-4.1 1.7-8.2 2.7-12.2 4.6-20 8.3-37.6 11.4-54 7.8-40.7 11.7-76.5 11.8-109.6-.1-.5.1-1.3.6-1.6 10.2-4.8 16.9-15.6 17.2-27.5 0-.4.3-.8.6-1 .2-.1.3-.1.5-.1s.5.1.7.2c1.2.9 2.5 1.7 3.8 2.5.4.2.6.6.6 1.1-3.9 61.5-13.2 152.7-48.1 234.2 0 .1 0 .2-.1.4-.2.5-.6.8-1.1.8h-.9c-2.1 0-4.3.1-6.4.4 0-.2 0-.2-.1-.2z"/><path class="st1" d="M647.8 157.6c-.2 0-.4 0-.5-.1-6.3-3.2-14.5-5.4-23.9-6.6-.2 0-.6-.2-.7-.3-2.2-.7-4.4-1.3-6.8-2-18.7-5.4-42-12.2-49.2-31.6-1.6-4.4-1.5-8 .4-10.7 2.4-3.4 7.5-5.2 14.8-5.2 13.4 0 31.2 5.9 36.8 12.1 8.1 11.9 18.8 23.8 27.9 31.1.4.3.5.9.3 1.4-.2.4-.6.7-1.1.7h-.2l-1.6-.3c-3.7-.6-7.6-1.2-11.2-2.5-4.8-1.6-9.3-4-13.7-6.3 8.4 5.8 19.9 11.2 29.5 11.2h1.2c.4 0 .7.2.9.5.2.3.3.7.1 1.1-.9 2.2-1.6 4.4-2 6.7-.1.4-.3.7-.6.8h-.4zm7.6-15.6c2.5-3.4 5.5-6.4 9-8.9.3-.2.4-.5.5-.8 0-.2 0-.4-.1-.6.1.1.3.2.5.3.1 0 .2.1.4.1s.4-.1.6-.2c1.9-1.2 3.6-2.2 5.3-3 .3-.1.6-.2.9-.4l.6-.2c.5-.2.8-.7.7-1.3-2.8-16.6-8.5-31.3-17-43.8-6.5-9.7-17.5-25.8-30.7-27.7-1.3-.2-2.5-.3-3.6-.3-5 0-8.6 1.8-10.7 5.4-6.9 12.2 6.9 40.9 9.7 45.7.8 1.4 1.7 2.8 2.6 4.2 0 0 .3.4.4.4.2.2.3.4.5 1 8.8 13.6 18.2 23.5 28.8 30.3.2.1.4.2.6.2.4.1.8-.1 1-.4zm-7.8-41.6c2 3.3 3.9 6.6 5.7 10l.3.6c1.1 2 2.3 3.9 3.4 5.9 2.8 4.7 5.7 9.5 7.5 14.4v.1c-3.2-4.1-5.5-9-7.8-13.9-1-2.2-2.1-4.4-3.2-6.4l-4.8-8.7c-.4-.7-.8-1.3-1.1-2zm100.8 161.5c7.5-2.8 11.5-7.6 11.7-14.4.8-21-35.4-54.8-49.9-61.5-.2-.1-.3-.1-.5-.1-.3 0-.7.2-.9.4-1.9 2.4-3.9 4.5-6.1 6.3-.3.2-.4.5-.4.9 0 .3.1.6.4.9 1.7 1.6 3.4 3.1 5.1 4.7 3.1 2.8 6.4 5.8 9.4 8.8l.8.8c2.7 2.7 5.6 5.6 7.5 8.9-3-3.7-6.2-7.5-9.9-10.9l-6-5.4c-2.5-2.3-5-4.5-7.5-6.9-.2-.2-.4-.2-.7-.2-.4 0-.7.1-1 .3-.5.4-1 .8-1.5 1.1-.4.3-.6.7-.5 1.2 2.3 13.4 7.9 27.3 17.3 42.4 3.4 5.5 15.7 23.6 28.2 23.6 1.6-.1 3.1-.4 4.5-.9zm-42.1 22.5c11.7-7.1 16.3-19.3 12-31.8 0-.1-.1-.3-.2-.4-12.2-14.1-21.6-33.7-24.9-52.3-.1-.3-.3-.6-.5-.8-.2-.1-.4-.2-.6-.2-.1 0-.2 0-.4.1-1.1.4-2.3.7-3.4.9-.3.1-.6.3-.8.6-.2.3-.2.7 0 1 1.6 3.5 2 8.1 2.4 12 .7 7.7 1 14.3 1 20.3-.3-2.8-.4-5.6-.5-8.4 0-1.6-.1-3.2-.2-5.1-.2-3.8-.4-7.7-1.2-11.4-.1-.5-.6-.9-1.1-.9h-.1c-.6.1-1 .6-1 1.2.1 17.5-8.7 36.3-14 45.9-.1.2-.1.4-.1.6.1 12.1 11.8 31.3 25.4 31.3 2.7-.1 5.5-1 8.2-2.6zm-74.7-51.3c.2-.2.5-.3.8-.4.3-.1.6-.3.7-.6 4.6-11 9.9-23.4 17.2-33.6.3-.5.3-1.1-.1-1.5-.2-.2-.5-.4-.8-.4-.2 0-.4.1-.6.2-2.2 1.5-4.5 2.8-6.7 4.1l-2.3 1.4c-5.5 3.3-10.6 6.3-15.7 8.7 2.5-1.6 5.1-3 7.6-4.5 2.7-1.5 5.3-3 7.9-4.6 2.5-1.6 5-3.4 7.4-5.2 3-2.2 6.2-4.6 9.4-6.3.3-.2.5-.5.6-.8.1-.3 0-.7-.3-1-.9-1-1.8-2.1-2.6-3.4-.2-.3-.6-.5-.9-.5-.1 0-.2 0-.4.1-5.7 1.9-11.4 4.3-16.9 6.5-8.5 3.5-17.3 7-26.4 9.3-7.8 2.8-20.3 13.8-22.3 24.7-1 5.3.7 10 4.9 13.6 3.4 2.9 7.5 4.3 12.4 4.3 9.6.1 20-5.4 27.1-10.1zm-21.4-38.5c9.1-2.1 17.5-5.7 25.6-9.1 4.6-2 9.3-4 14.1-5.7.6-.2.9-.9.7-1.5-.9-2.6-1.5-5.2-1.9-7.7-.1-.3-.2-.6-.5-.8-.2-.1-.4-.2-.6-.2h-.3l-1.8.5c-10.7 3.2-22.8 6.8-34.2 6.8-1.1 0-2.1 0-3.2-.1 14.1-2.2 26.6-4.5 39.4-8 .5-.1.9-.7.8-1.2 0-.5-.1-1.1-.1-1.6v-.6c0-.4-.2-.7-.5-.9-8.4-5.4-22-8.7-35.5-8.7-5.9 0-11.3.6-15.8 1.9-9 2.4-27.6 7.4-32.4 18.8-2.1 4.9-2.1 9.1.1 12.4 4.3 6.5 16.2 7.8 25.5 7.8 8.7-.1 17.1-1.3 20.6-2.1zm55.8 60.2c5.4-10.8 17.9-36 13.9-53.6-.1-.5-.5-.8-1-.9-3-.3-5.9-1.1-8.7-2.2-.1-.1-.3-.1-.4-.1-.4 0-.8.2-1 .5-2.9 4.5-5.1 8.7-6.8 13l-.3.7c1.9-5.5 4.1-10 6.6-13.7.2-.3.2-.6.2-.9-.1-.3-.3-.6-.6-.7-1.6-.8-3.2-1.8-4.8-2.9-.2-.1-.4-.2-.7-.2-.3 0-.6.1-.8.3-15.5 15.1-27.4 44-30.8 63.7-.9 5.3-3 17.9 5.6 19.5 1.1.2 2.2.3 3.3.3 12.3.2 21.1-12.3 26.3-22.8zm123.2-47.9c2.8-5.3 3-11.1.8-19-.3-1.1-.7-2.3-1.2-3.4-.3-.8-.6-1.6-.9-2.5-.1-.3-.3-.5-.6-.7-.2-.1-.3-.1-.5-.1-.1 0-.2 0-.4.1-5 1.7-9.7 2.5-12.7 2.9-3.8.5-7.7.7-11.6.7-15.3 0-31-3.5-45.3-10-.2-.1-.3-.1-.5-.1-.1 0-.3 0-.4.1-.3.1-.5.3-.6.6-.6 1.5-1.4 2.9-2.2 4.3-.2.3-.2.6-.1.9.1.3.3.5.6.7 5.7 3 10.8 7.7 15.7 12.2 1 .9 3.6 3.3 3.6 3.3 7.3 6.5 14.8 13.2 20.8 20.8.2.2.5.4.8.4.4.1.7.1 1 .2 2.2 1.1 4.9 1.6 8 1.6 10.6 0 22-5.9 25.7-13zm-25.7-27.8c6-.2 26.1-1.4 34-10.4 2.4-2.8 3.5-6 3.1-9.6C799.2 144.8 778 141 767 141h-1c-15.6.3-30.6 3.3-47.2 9.4-.5.2-.9.8-.7 1.3.5 2.2.8 4.5.8 6.8 0 .6.5 1.1 1.1 1.1l5 .2c7.5.3 15.2.6 22.8 1.3-.8 0-1.5-.1-2.3-.1-3.6-.2-7.2-.3-10.9-.3H732c-1 0-2 .1-3.1.1-1.4.1-2.9.2-4.4.2-1.7 0-3.1-.1-4.4-.4h-.2c-.3 0-.5.1-.7.2-.3.2-.4.5-.4.8-.2 2.2-.5 4.2-.9 6.1-.1.5.1 1.1.6 1.3 13.2 6.3 28.8 10 42.7 10 .8.2 1.6.1 2.3.1zm-44.4-34.9c8.5-2.8 30-8.2 50.3-8.2 4 0 7.8.2 11.3.7h.1c.3 0 .7-.2.9-.4.4-.5.8-1 1.2-1.4.6-.7 1.2-1.4 1.7-2.1 3.6-5.1 8.5-12.1 7.8-19.7-1.3-13.7-12.3-22.9-27.3-22.9-.9 0-1.7 0-2.6.1-.4 0-.7.2-.9.6-7.8 13.2-22 25.3-34.6 35.9-5.1 4.4-10 8.5-14 12.3-.4.4-.5 1-.1 1.5.6.8 1.1 1.7 1.7 2.6.2.3.5.6.9.6h.1c.4 0 .7-.2.9-.5 4.9-6.4 14.9-10.6 23.2-13.1-3.4 1.5-6.8 3-10.2 4.7-3.5 1.8-6.7 4-9.7 6.1l-1.8 1.2c-.5.3-.6.9-.4 1.5.2.4.6.6 1 .6.3 0 .4 0 .5-.1zm-9.7-9.6c3.7-3.4 8.7-7.3 13.9-11.3 20.2-15.6 45.3-35 37.3-58.3-4.2-12.2-11.8-14.8-17.4-14.8-11.9 0-25.9 11.4-32.9 22.1-12.1 18.4-18.5 36.2-19 53 0 .6.4 1 .9 1.2 2.9.6 5.6 1.6 8.1 2.9.2.1.3.1.5.1s.3 0 .5-.1c.3-.1.6-.4.7-.7 3.5-11.7 10.1-23.8 17.8-32.9-1.2 2-2.4 4-3.6 5.9-1.8 2.9-3.7 6-5.4 9.1-3.3 6.1-5.9 12.3-8.5 18.6-.2.5 0 1.1.5 1.4 1.8 1.1 3.6 2.5 5.2 4 .2.2.5.3.8.3.1-.2.4-.3.6-.5zm-28.9-8.5c1.3-.2 2.5-.4 3.8-.4.6 0 1.1-.5 1.1-1.1.5-13.9 4.6-29 11.5-42.3.1-.2.1-.6.1-.8 0-.3-.1-.5 0-.7 2.7-15.7.2-27.7-7.7-36.8-2.5-2.9-6.2-4.4-10.7-4.4-2.6 0-5.4.5-8.2 1.6-.2.1-.4.2-.9.3-3 1.2-5.5 2.8-7.4 4.7-6.5 6.5-8.8 14.1-6.8 22.8.1.5.1 1-.1 1.6-.1.4-.1.8.2 1.1 9.9 12.8 17 26.8 21.2 41.5.1.5.6.8 1.1.8h.2c.6-.1 1-.6 1-1.1v-5c0-1.7.1-3.4 0-5v-4.7c0 1.1.1 4.8.1 4.8.1 1.8.1 3.5.2 5.3.3 5.1.5 10.4-.2 15.7l.3 1.3c.1.6.6 1 1.1 1 0-.1 0-.2.1-.2z"/><path class="st0" d="M647.9 62.5c-.3 0-.6-.1-.8-.3-3.6-3.5-7.4-6.6-11-8.8-.3-.2-.5-.5-.5-.8-1.3-9.1-2.7-17.1-4.2-24.5-.1-.4 0-.8.3-1 .2-.2.5-.3.8-.3h.2c10.2 2 20 5.6 28.9 10.6.3.2.6.5.6.9s-.1.8-.5 1c-7.1 5.2-11.9 13.6-12.7 22.3 0 .4-.3.8-.8 1-.1-.1-.2-.1-.3-.1zM608.6 99.1c-.2 0-.3 0-.5-.1-4.5-2-9.2-3.4-14-4.2-.6-.1-1-.6-1-1.2 1.7-21.8 3.8-45 8.8-67.9.1-.5.5-.9 1.1-.9 2.5-.1 5-.2 7.5-.2 6.1 0 12.1.4 17.8 1.3.5.1.9.4 1 .9 1.4 6.7 2.6 14.1 4 23.1.1.4-.1.8-.4 1.1-.2.2-.5.2-.7.2-.2 0-.3 0-.5-.1-3.2-1.4-6.3-2.1-9.1-2.1s-5.3.7-7.7 2.1c-17.9 10.6-12.8 31.1-5.4 46.4.2.4.1 1-.2 1.3-.1.2-.4.3-.7.3zM479.5 170c-.4 0-.7-.2-.9-.5-1.8-2.6-3.7-5.2-5.7-7.7l-.3-.3c-.1-.1-.3-.4-.4-.5-6.1-7.2-16-18.2-28.5-29.2-.4-.3-.5-.9-.3-1.4 18.8-36.1 46.6-63.9 82.8-82.6 2.5-1.3 5-2.5 7.6-3.8.2-.1.3-.1.5-.1.3 0 .7.1.9.4.3.4.4 1 0 1.4-26.2 36.1-44.6 77.6-54.6 123.4-.1.4-.4.8-.9.9h-.2zM493.9 217.9c-.1 0-.3 0-.4-.1-39.5-14.9-74-50.6-105.5-109-.2-.4-.2-.9.1-1.3.2-.3.6-.4.9-.4h.3c7.1 2.1 14.7 5 23.2 9.1 22.4 10.8 39.7 30 55.5 48.8 12.4 16.5 21.4 33.8 26.9 51.4.1.4 0 .9-.3 1.2-.1.2-.4.3-.7.3z"/><path class="st0" d="M494.7 289.4c-.1 0-.2 0-.3-.1-35.5-11.2-61.1-47.3-82.3-80.3-16.4-25.5-39.3-63.9-49.1-103.2-.1-.3 0-.7.2-.9.2-.3.5-.4.8-.5 1.9-.3 3.9-.4 6-.4 4.3 0 9 .6 14 1.7.3.1.6.3.8.6 32.9 62.1 69.2 99.5 111 114.2.4.1.6.4.7.8 6.3 23.2 6.1 45.9-.7 67.3-.2.5-.6.8-1.1.8z"/><path class="st0" d="M471.7 321.2c-19 0-40.3-20.4-51.8-31.4l-.5-.4c-14.5-13.9-27.4-31.4-39.3-53.5-20.5-38.3-31.8-81-32.6-123.6 0-.4.2-.7.4-.9l.4-.3c.7-.6 1.5-1.2 2.3-1.7 2.6-1.8 5.6-3.1 9.1-4h.3c.2 0 .4.1.6.2.3.2.5.4.5.7 10.1 40.8 33.8 80.1 53.3 109.9 20.4 31.1 45.7 64.3 79.3 75 .3.1.5.3.7.6.1.3.2.6.1.9-1.9 5.3-4.2 10.5-6.7 15.4-2.3 4.4-4.8 8.2-7.7 11.7-.1.2-.3.3-.5.4-2.5.6-5.2 1-7.9 1z"/><path class="st0" d="M453 333.4c-38 0-80.8-62.5-88.9-75.1-16.7-25.7-56.4-107.1-20.2-143.4.2-.2.5-.3.8-.3.1 0 .3 0 .4.1.4.2.7.6.7 1 1.4 43.6 13.6 86.4 36.3 127.3 12 21.6 27.6 40.8 46.5 57 9.4 8 26.8 23 43.2 23 .7 0 1.4 0 2.1-.1h.1c.5 0 .9.3 1.1.7.2.5.1 1-.3 1.3-6.4 5.7-13.7 8.5-21.8 8.5z"/><path class="st0" d="M517.8 510.2c-.2 0-.3 0-.5-.1-3.4-1.7-7.3-2.8-11.3-3.3-1.6-.2-3.2-.3-4.9-.3-1.6 0-3.1.1-4.7.2h-.1c-.4 0-.8-.2-1-.5-36.8-56.8-56.8-124.2-67.1-170.7-.1-.4.1-.9.4-1.1.2-.2.5-.3.7-.3.2 0 .3 0 .5.1 7.4 3.4 14.6 5.1 21.3 5.1 8.7 0 17.1-2.9 24.7-8.6.2-.2.4-.2.7-.2.1 0 .3 0 .4.1.4.2.6.5.7.9 8.2 61.1 22 120.7 41.1 177.2.1.4 0 .9-.3 1.2-.1.2-.4.3-.6.3z"/><path class="st4" d="M467.9 768.2c-.1 0-.3 0-.4-.1-15.8-6-26.9-14.5-33.8-26-8.9-14.8-8.1-35.3-7.3-53.3.2-4.8.4-9.4.4-13.6v-70.5c0-.4.2-.7.4-.9.2-.2.5-.2.7-.2h.3c7.9 2.1 15.8 3.3 22.2 4.3l2.8.4c3.8.6 7.5 1.1 11.3 1.6l1.3.2c.6.1 1 .6 1 1.2-1.7 33.4-2.7 67.1-3.1 100.1 0 2.9-.1 5.9-.2 9-.5 15.4-1 32.8 5.4 46.2.2.4.1.9-.2 1.3-.2.1-.5.3-.8.3z"/><path class="st1" d="M537 781.9c-13.4-1.4-26.6-3.4-39.5-5.9-6.8-1.3-12.3-2.5-17.3-3.9-.2-.1-.4-.2-.5-.3-13.3-13.6-11.6-42.7-10.4-63.9.3-4.7.5-9.1.6-12.8.5-26.7 1.4-54.6 2.9-83 0-.3.2-.6.4-.8.2-.2.5-.3.7-.3h.1c18.2 2.1 37.9 3.6 60.2 4.4.6 0 1.1.5 1.1 1.2-.1 17.5-.6 35.3-1.1 52.4-.4 13.3-.8 26.5-1 39.8-.1 4.9-.3 9.7-.5 14.5-.8 19.8-1.5 38.5 5.6 57 .1.4.1.8-.2 1.1-.2.3-.6.5-.9.5h-.2z"/><path class="st4" d="M588.2 784.7c-13.7 0-27.8-.6-42-1.9-.4 0-.8-.3-.9-.7-9.2-19.7-8-41.3-6.9-62.1.3-5.7.6-11.6.7-17.3.2-12.5.6-25 .9-37.5.5-15.9 1-32.2 1.1-48.4 0-.3.1-.6.4-.8.2-.2.5-.3.8-.3 13.7.4 28.5.6 46.7.6h10c14.4 0 27.5-.2 39.9-.6.3 0 .6.1.8.3.2.2.3.5.4.8.1 14.3.6 28.9 1 43 .4 11.7.8 23.7.9 35.6.1 6.4.5 13.1.9 19.6 1.3 22.8 2.7 46.5-7.1 67.3-.2.4-.5.6-1 .7-13.7 1-27.9 1.6-43.5 1.7h-3.1z"/><path class="st1" d="M643.8 782.2c-.4 0-.7-.2-.9-.5-.2-.3-.3-.7-.2-1.1 7.8-20 6.8-40.7 5.6-62.6l-.2-3c-1.8-34.9-2.2-69.4-2.4-98.5 0-.6.5-1.1 1.1-1.2 22.9-.8 43.2-2.2 61.9-4.4h.1c.3 0 .5.1.7.3.2.2.4.5.4.8 1.3 26.6 2.3 53.8 2.9 83 .1 3.7.3 7.9.6 12.5 1.2 21.2 2.8 50.3-10.3 64.1-.1.2-.3.3-.5.3-3.7 1-7.3 1.9-10.7 2.7-14.9 3.4-30.6 5.9-48.2 7.6h.1z"/><path class="st4" d="M715 768.1c-.3 0-.6-.1-.9-.4-.3-.3-.4-.8-.2-1.3 6.3-13.2 5.8-30.5 5.3-45.7-.1-3.3-.2-6.4-.2-9.4-.3-31-1.3-63.8-3.1-100.2 0-.6.4-1.1 1-1.2 9.5-1.2 17.3-2.4 24.5-3.7 4.9-.9 9.2-1.9 13.3-3h.3c.3 0 .5.1.7.2.3.2.5.6.5.9v64.8c0 4.8.1 9.6.3 14.6.5 17.5 1 35.6-4.3 52-4.7 14.3-16.7 24.9-36.8 32.2-.1.1-.3.2-.4.2z"/><path d="M589.1 610.4c-30.5 0-62.2-1.2-94.2-3.6-3.7-.3-7.6-.5-11.7-.7-25.4-1.4-56.9-3.2-75.6-19.3-6.9-5.9-6.6-15.3-6.4-23.6 0-1.5.1-3 .1-4.5v-18.8c0-8.3.1-16.7 0-25-.1-29.6 39.6-34.4 63.3-37.2 2.2-.3 4.3-.5 6.2-.8h.2c.4 0 .8.2 1 .6 1.5 3 3.1 5.9 4.7 8.8.2.3.2.7 0 1.1-.2.3-.5.6-.9.6-28.2 4.5-61.8 13.2-63.8 22.6-.5 2.4 1.3 5 5.4 7.6 15.7 10.1 37.4 11.9 56.5 13.5 3.1.3 6.1.5 9 .8 33 3.2 68.2 4.6 110.9 4.6h2.9c34.3-.1 69-1.6 103.3-4.7 3-.3 6.3-.5 9.8-.7 19.1-1.3 42.9-2.9 56-14 3.5-3 4.9-5.8 4.1-8.4-3.2-10.7-40.2-18.7-73.7-22.6-.4 0-.7-.2-.8-.5-.2-.3-.2-.7-.1-1 1.1-3 2.3-6 3.3-9 .2-.5.6-.8 1.1-.8h.2l-.1 1.2.5-1.1c2.6.3 5.7.6 8.9.9 23.5 2.2 55.7 5.3 69.1 23.5 4.4 6.1 3.9 15.4 3.3 23.6-.1 2.4-.3 4.6-.3 6.6v12.7c0 9.9.1 19.8 0 29.7-.2 24.7-39.4 28.8-60.4 31-2.1.2-3.9.4-5.5.6-40.2 4.9-81.6 5.8-116.7 6.1-3 .2-6.3.2-9.6.2z" style="fill:#acff1d"/><path class="st0" d="M718.2 415.7c-.3 0-.6-.1-.8-.3-.3-.3-.4-.7-.3-1.1 1.3-5.7 2.7-11.8 4.1-18.7.1-.4.3-.7.7-.8 35.4-14.6 67.6-41.5 90.7-75.7 10-14.7 16.5-30.7 19.9-48.9 2.6-13.5 4.9-27.9 3.5-41-.1-.5.2-1 .7-1.2.1-.1.3-.1.4-.1.4 0 .7.2.9.5 4.4 6.4 7.8 14.4 10 24 5 21.7-.7 47-17.3 77.6-23.6 43.3-65.5 75.3-112.3 85.7h-.2z"/><path d="M425.3 165.6c15.6 12.8 45.4 34.3 57.3 21.9 5.2 9.5 9.4 19.2 12.5 28.9.1.4 0 .9-.3 1.2-.2.2-.5.3-.8.3-.1 0-.3 0-.4-.1-24.6-9.2-47.2-26.5-68.3-52.2zm-19.4 33.7c2.1 3.4 4.2 6.7 6.2 9.7 21.2 33 46.8 69.1 82.3 80.3.1 0 .2.1.3.1.5 0 .9-.3 1.1-.8 6.8-21.4 7-44.1.7-67.3-.1-.4-.4-.7-.7-.8-2.8-1-5.6-2.1-8.4-3.3-7 53.2-52.3 13.8-81.5-17.9zm73.6 120.6c.2-.1.4-.2.5-.4 2.8-3.5 5.4-7.3 7.7-11.7 2.6-4.9 4.9-10.1 6.7-15.4.1-.3.1-.6-.1-.9-.1-.3-.4-.5-.7-.6-6.3-2-12.4-4.8-18.2-8.3-32.6 23.2-86.7-44-107.5-72.5 3.6 8.7 7.6 17.3 12.1 25.6 11.9 22.1 24.7 39.6 39.3 53.5l.5.4c11.5 11 32.8 31.4 51.8 31.4 2.8.2 5.5-.2 7.9-1.1zM453 333.4c8 0 15.3-2.8 21.8-8.4.4-.3.5-.9.3-1.3s-.6-.7-1.1-.7h-.1c-.7.1-1.4.1-2.1.1-9.4 0-19.2-5-27.6-10.7-42.3 5.1-92.5-85.1-108.6-116.5 7.7 26.2 20.6 50.5 28.5 62.5 8.2 12.5 50.9 75 88.9 75zM762.8 256c-1.4 2.8-3.5 5.6-6.4 8.2-2.9 2.7-6.5 4-10.6 4-2.2 0-4.5-.4-6.9-1.1-.1 0-.2-.1-.3-.1-.2 0-.5.1-.7.2-.3.2-.5.5-.5.9-.4 6.5-.9 13.1-1.5 19.6 0 .4.1.8.4 1 .2.2.5.2.7.2.1 0 .3 0 .4-.1 15.6-5.6 29.3-14.4 41-26.2-8.5 2.8-13.2-1.8-15.6-6.6zm-14.4 30.3c-3.9 1.8-7.9 3.5-12 4.9-.4.1-.7.5-.8 1-1.5 17.6-3.3 34.6-5.5 50.5-.1.4.1.8.4 1.1.2.2.5.2.7.2.2 0 .3 0 .4-.1 33.1-14 60.7-40.9 76.7-72.1-14.8 18.4-42.8 45.6-59.9 14.5zm2.9 49.3c-6.8 4.1-13.8 7.8-21.2 10.8-.4.2-.7.5-.7.9-2.1 15-4.6 29.6-7.3 43.5-.1.4.1.8.4 1.1.2.2.5.3.7.3.2 0 .3 0 .5-.1 34.6-14.8 66.5-41.7 87.3-73.8 3.6-5.6 6.8-11.2 9.5-16.7-11.9 17.1-47.6 63.3-69.2 34zm-5.3 47c-7.8 4.7-15.9 8.8-24.2 12.2-.4.1-.6.5-.7.8-1.4 6.9-2.8 13.1-4.1 18.7-.1.4 0 .8.3 1.1.2.2.5.3.8.3h.3c46.8-10.4 88.7-42.4 112.3-85.7 6.2-11.3 10.8-21.9 14-31.9-13.8 26-55.4 96.2-98.7 84.5zm-59.1 62.1c-.7 3.3-1.5 6.7-2.3 10.2-.9 4-1.8 8.1-2.7 12.2-2.3 10.6-4.6 21.5-7.9 31.9-.1.4 0 .8.2 1.1.2.3.5.4.9.4h.1c2.1-.3 4.3-.4 6.4-.4h.9c.5 0 .9-.3 1.1-.8 0-.1.1-.3.1-.4 34.9-81.5 44.2-172.7 48.1-234.2 0-.4-.2-.8-.6-1.1-1.3-.8-2.6-1.6-3.8-2.5-.2-.1-.4-.2-.7-.2-.2 0-.3 0-.5.1-.4.2-.6.6-.6 1-.3 12-7.1 22.8-17.2 27.5-.5.2-.7 1-.6 1.6 0 0 8.8-2.8 13.4-5.9 4.4-2.8 4.6 117.5-34.3 159.5zm-2.1-140.9c9.7 9.2 8.2 72.3 2.6 102.1-4.6 24.1-15.2 63.2-42.1 65.9-1.5 14.3-3.1 28.4-4.7 42.3-.1.5.2.9.6 1.2.2.1.3.1.5.1.3 0 .6-.1.8-.3 7.3-6.7 17.7-11.7 28.3-13.8.4-.1.7-.4.9-.8 3.7-11.2 6.2-22.9 8.6-34.3.8-4 1.7-7.9 2.6-11.8 3.9-17.3 8-35.8 11.5-54.1 7.8-41.3 11.5-75.6 11.7-107.9 0-.4-.2-.7-.5-.9-.2-.2-.4-.2-.7-.2-.1 0-.2 0-.3.1-1.2.4-2.4.6-3.7.9-1.1.2-2.3.3-3.4.3-9.7 0-18.2-6.7-23.7-15.3l-2.2.1c-.1-.3 3.5 17.2 13.2 26.4zm-85.2 195.3c1.1 10.2 2.2 20.8 3 31.2 0 .6.5 1.1 1.1 1.1h3.1c8 0 16.2-.1 24.3-.2.5 0 .9-.3 1.1-.8 1.2-3.7 3.1-7.2 5.8-10.5.1-.2.2-.4.2-.6 8.9-76 16.9-157.4 14.6-238.1 0-.4-.2-.8-.6-1-.2-.1-.4-.1-.6-.1-.2 0-.4.1-.6.2-4.4 2.5-8.7 3.8-12.4 3.8-4.2 0-7.6-1.7-10.3-4.9 2.1 4.7 6.1 12.4 9.3 12.4 4.6 0 10.3 15.4 6.7 64.1-3.2 44.1 5.2 145.6-46.6 125.5.6 6 1.2 12 1.9 17.9zm-5.3-38.2c-1.7-27-3.1-51.4-4.2-74.5-1.7-35.7-2.8-69.4-3.3-102.2-2.3 31-6.1 92.3-5 146.8 1 51.4-9.8 61.6-23.9 55.2 1 6.4 2.1 12.9 3.2 19.3.1.3.2.6.5.8 4 2.6 6.9 5.6 8.4 9.1l.2.4c1 2.2 1.9 4.3 2.3 6.7.4 2.2.6 3.5.6 4.1-.1.1-.2.1-.4.2-.4.4-.4 1.2 0 1.6.5.5.8 1.1.8 1.8 0 .6.5 1.1 1.1 1.1h25.1c.3 0 .6-.1.8-.4.2-.2.3-.6.3-.9-.8-10.4-1.9-21-3-31.2-1.3-12.3-2.7-25.2-3.5-37.9zm-72.6 49h.3c.3 0 .6-.1.8-.3 6.1-5.4 13.8-8.4 21.9-8.4 4.4 0 8.6.9 12.6 2.7.1.1.3.1.5.1.3 0 .5-.1.7-.2.3-.3.5-.7.4-1.1l-.4-2.5c-2.8-16.5-5.1-33-7.3-49.3-32.8 52.7-46.5-35.3-54-74.2-5.8-30.7-2.6-59.2-.2-73.2-3.4 7.8-8 15.2-14.3 21.5-1 1-2.1 1.9-3.1 2.8-.3.3-.4.6-.4 1 8.1 61.9 22.2 122.5 41.8 180.3 0 .5.3.7.7.8zm-44-178.4c-.1-.4-.3-.7-.7-.9-.1-.1-.3-.1-.4-.1-.2 0-.5.1-.7.2-7.6 5.7-15.9 8.6-24.7 8.6-6.8 0-13.9-1.7-21.3-5.1-.2-.1-.3-.1-.5-.1-.3 0-.5.1-.7.3-.3.3-.5.7-.4 1.1v.2c5.9 5.8 18.4 16.9 30.3 21 12.9 4.4 31.8 90.2 21.6 123.8 4.7 8.7 9.7 17.4 15.2 25.7.2.3.6.5 1 .5h.1c1.5-.2 3.1-.2 4.7-.2 1.7 0 3.3.1 4.9.3 3.9.5 7.8 1.7 11.3 3.3.2.1.3.1.5.1.3 0 .5-.1.8-.3.3-.3.5-.8.3-1.2-19.2-56.5-33.1-116.1-41.3-177.2z" style="fill:#e23f58"/><path d="M779.9 572.8c-9.7 10.2-21.7 16.4-35.3 19.7-13.6 3.3-27.8 4-41.7 4.9-16.8 1.1-33.6 1.9-50.4 2.5-32.9 1.2-65.9 1.4-98.9.7-16.8-.3-33.6-.9-50.4-1.7-15.4-.7-30.8-1.4-46-4-15.4-2.6-31.9-6.8-44.5-16.5-5.1-3.9-8.6-8.5-11.4-13.5-.2 7.8-.1 16.4 6.4 22 18.7 16 50.3 17.8 75.6 19.3 4.1.2 8.1.5 11.7.7 32 2.4 63.7 3.6 94.2 3.6h9.9c35.1-.3 76.5-1.3 116.7-6.1 1.6-.2 3.5-.4 5.5-.6 21-2.2 60.2-6.4 60.4-31V571c-.7.5-1.2 1.2-1.8 1.8z" style="fill:#98b718"/><path class="st8" d="M756.1 604.4c0-.4-.2-.7-.5-.9-.2-.2-.4-.2-.7-.2h-.3c-4 1.1-8.4 2.1-13.3 3-7.2 1.3-14.9 2.5-24.5 3.7-.6.1-1 .6-1 1.2.6 10.9 1 21.5 1.4 31.8l3.6.3c6.4.4 12.6 1.2 18.7 3 5.8 1.7 11.3 4.3 16.5 7.5.1-16.5.1-32.9.1-49.4zM465.9 610l-1.3-.2c-3.8-.5-7.6-1-11.3-1.6l-2.8-.4c-6.4-1-14.3-2.2-22.2-4.3h-.3c-.3 0-.5.1-.7.2-.3.2-.4.6-.4.9v33.2c5.5-2.7 11.6-4.4 17.6-5.4 6.4-1 13.4-1.7 19.9-.8.6.1 1.1.3 1.7.4.3-7 .6-13.9 1-20.9-.2-.5-.6-1-1.2-1.1zM640 616.8c0-.3-.1-.6-.4-.8-.2-.2-.5-.3-.8-.3-12.4.3-25.4.5-39.9.6h-10c-18.2 0-33.1-.2-46.7-.6-.3 0-.6.1-.8.3-.2.2-.3.5-.4.8-.1 9.1-.3 18.2-.5 27.3.6-.1 1.2-.1 1.8-.2 5.4-.9 10.7-1.8 16.1-2.3 12.8-1.2 25.7-1.6 38.6-.9 11.4.6 23.3 1.4 34.4 4 3.1.7 6.2 1.7 9.2 3-.2-10.3-.5-20.6-.6-30.9z"/><path class="st9" d="M709.8 611.3c-.2-.2-.5-.3-.7-.3h-.1c-18.8 2.2-39 3.6-61.9 4.4-.6 0-1.1.5-1.1 1.2.1 11.3.2 23.3.4 35.9 2.5-.4 5.1-.7 7.6-.8 10.5-.5 21.1.8 31.4 2.3 8.7 1.3 17.3 2.8 25.6 5.7.4.1.8.3 1.2.5-.5-16.4-1.2-32.4-1.9-48.1-.1-.3-.3-.6-.5-.8zM534.1 615.4c-22.3-.8-42-2.2-60.2-4.4h-.1c-.3 0-.5.1-.7.3-.2.2-.4.5-.4.8-.9 17.1-1.5 34-2 50.6 3.9-2.6 8.2-4.8 12-6.8 7.5-4 15.6-6.9 23.8-9 8.3-2.1 16.7-3.1 25.2-3 1.1 0 2.1.1 3.2.1.2-9.2.4-18.3.5-27.5-.1-.6-.6-1.1-1.3-1.1z"/><path class="st10" d="M693.8 539c12.8-.7 25.6-1.2 38.3-2.4 11.4-1.1 23.1-3.9 31.2-12.6 2.7-2.9 5-6.5 6.3-10.4-.7 1.4-1.9 2.8-3.6 4.3-13.1 11.1-36.9 12.7-56 14-3.5.2-6.7.5-9.8.7-34.3 3-69 4.6-103.3 4.7H594c-42.7 0-77.9-1.5-110.9-4.6-2.9-.3-5.9-.5-9-.8-18.3-1.5-38.9-3.3-54.4-12.3 1.7 3.8 5 7.4 8.3 9.7 9.2 6.6 23.1 8.1 34 10.1 25 4.5 50.4 5.8 75.7 5.8 52-.1 104.2-3.2 156.1-6.2zM763 500.6c-1 0-1.9.2-2.7.6 5.3 2.5 8.8 5.3 9.7 8.2.2.6.2 1.1.2 1.7.8-4.5-2-10.4-7.2-10.5z"/><path class="st11" d="M635.8 782.3c9.8-20.8 8.4-44.4 7.1-67.3 0-.5 0-.9-.1-1.4-.3 1.8-.5 3.6-.8 5.4-1.1 6.4-2.6 12.8-4.8 18.8-5.2 13.7-15.1 23.7-29.7 26.9-14.7 3.3-30.5 3-45.2.3-7.6-1.4-15-3.2-22.4-5.6-.4-.1-.7-.3-1.1-.4 1.1 7.8 3.1 15.5 6.5 23 .2.4.5.6.9.7 14.2 1.3 28.3 1.9 42 1.9h3.1c15.6-.1 29.8-.7 43.5-1.7.4.1.8-.2 1-.6zM752.2 735.8c3.9-12 4.7-25 4.6-37.9-1.1 3.6-2.2 7.1-3.7 10.5-3.1 7.1-6.6 14.1-11 20.5-3.9 5.7-8.7 9.6-15.5 11.1-2.4.5-4.8.7-7.2.7-.4 9.1-1.8 18.1-5.4 25.7-.2.4-.1.9.2 1.3.2.2.5.4.9.4.1 0 .3 0 .4-.1 20-7.3 32-17.9 36.7-32.2zM467.5 768.1c.1 0 .3.1.4.1.3 0 .6-.1.8-.4.3-.3.4-.9.2-1.3-6.4-13.3-5.9-30.8-5.4-46.2.1-3.1.2-6.1.2-9 .1-4.6.1-9.1.2-13.7-1.2 1.8-1.9 3.9-2.4 6.2-1 4.5-1.9 8.9-2.6 13.5-.7 4.3-1.5 8.6-2.2 12.8-.6 3.6-1.2 7.6-3 10.9-1.5 2.6-3.1 4.6-5.7 6a15.5 15.5 0 0 1-6.2 2c-.7.1-1.4.1-2.1.2.6-.1 0 0-.8.1 6.9 7.9 16.3 14.1 28.6 18.8z"/><path class="st12" d="M707.5 746.6c-4.4 5.6-11.4 8.1-18.1 9.8-7.9 2-16.4 2.9-24.6 3.2-5.6.2-11.2-.2-16.8-.5-.9 7.3-2.6 14.4-5.3 21.5-.1.4-.1.8.1 1.1.2.3.6.5.9.5h.1c17.5-1.7 33.3-4.2 48.2-7.6 3.5-.8 7.1-1.7 10.7-2.7.2-.1.4-.2.5-.3 8.8-9.3 10.9-25.5 11-41.6-1 6.1-2.8 11.6-6.7 16.6zM532.7 723.4c0-.6 0-1.3.1-1.9-.3.5-.5 1.1-.8 1.6-4.5 8.1-11.3 15.7-19.5 20.2-7.3 4-15.2 5-23.4 4.5-4.1-.3-8.1-1.1-12-2.3-2.8-.9-5.4-2.3-8.1-3 1.1 11.8 4 22.6 10.7 29.5.1.1.3.3.5.3 5.1 1.4 10.6 2.6 17.3 3.9 12.9 2.4 26.1 4.4 39.5 5.9h.1c.4 0 .7-.2.9-.5.2-.3.3-.7.2-1.1-7.1-18.6-6.3-37.3-5.5-57.1z"/><path d="M412.5 116.2c22.4 10.8 39.7 30 55.5 48.8 2.1 2.7 4 5.5 5.9 8.3-11-9.4-23.1-19-28.8-24.3-7.8-7.2-37-29.7-50.9-40.4 5.8 2 11.8 4.5 18.3 7.6zM394 136.7c13.3 18.3 29.7 51.9 68 66-28.1-19.8-53.6-51.7-77.3-96.5-.2-.3-.4-.5-.8-.6-1.3-.3-2.6-.5-3.9-.7 1.3 6.7 4.8 19.2 14 31.8zm-24.6 17.7c11.5 27.3 18.1 41.9 40 68.9 19.9 24.4 35.3 39.6 48.6 46.3-16.8-14.9-31.1-34.6-43.5-53.6-19.5-29.8-43.2-69.2-53.3-109.9-.1-.3-.3-.6-.5-.7-.2-.1-.4-.2-.6-.2h-.3c-1.4.4-2.6.8-3.8 1.3 1.4 9.4 5.1 28.4 13.4 47.9zm12.7 88.7c-22.7-40.9-34.9-83.8-36.3-127.3 0-.5-.3-.9-.7-1-.1-.1-.3-.1-.4-.1-.3 0-.6.1-.8.3-1.1 1.1-2.1 2.3-3.1 3.5-.4 11.9-.3 31.3 3.2 44.9 4.5 17.2 18.7 58.3 45.7 92.2-2.7-4.1-5.2-8.3-7.6-12.5zm409-29c-.2.1-.4.2-.5.3-.5.5-1 1.1-1.6 1.6-6.2 5.8-16.1 9.6-25.1 9.6-.8 0-1.7 0-2.5-.1h-.1c-.4 0-.8.2-1 .5-.2.4-.2.8-.1 1.2.6 1.1 1.2 2.3 1.7 3.5 3.9-.1 18.9-1.7 36.6-18.1-2.3.2-4.8.8-7.4 1.5zm22.6-1.6c-.3-.1-.6-.1-.9-.2h-.2c-.5 0-.9.3-1.1.7-14.2 36.3-36.2 61.2-65.5 74.3 14.4-2.8 26.3-8.2 31.1-11.3 5.8-3.8 21.5-22.3 29.6-37.3 5.8-10.6 6.9-21 7-26.2zm12.4 4.8c-.2 0-.4 0-.5.1-.4.2-.6.6-.6 1-1.5 36.7-21.3 73.8-50.8 100.3 29.7-13.8 48.2-54.8 51.1-69.6 2.2-11.3 2-24.6 1.8-31.4-.1-.1-.2-.1-.3-.2-.2-.1-.5-.2-.7-.2zm12.6 59.8c3.8-13.8 1.8-36.6.6-46.6-.4-.7-.8-1.5-1.3-2.1-.2-.3-.6-.5-.9-.5-.1 0-.3 0-.4.1-.5.2-.8.7-.7 1.2 1.5 13.1-.9 27.4-3.5 41-3.4 18.2-9.9 34.1-19.9 48.9-9.4 13.9-20.3 26.5-32.2 37.6 28.8-13.1 53.7-62.8 58.3-79.6zM540.8 336c.2-44.3 2.7-91.4 3.2-121.9.8-52.3 6.2-101.6 15.4-135.4 6.3-23.1 16.2-41.5 21.8-50.9-2.6.5-5.1 1.1-7.7 1.7-.3.1-.5.2-.7.4-24 33.5-31 78.1-35 121.3-3.1 34.1-4 69.3-2.5 104.6 1.2 27 3.3 54 5.5 80.2zm.6-295.5c-.2.1-.3.2-.5.4-29.1 38-49.1 82.6-59.5 132.3-.1.3 0 .6.2.9 2.6 3.9 5 7.6 7.1 11.4 4.2-27.7 11.4-55.6 18.1-74.5 7.7-22 31.2-57.4 42.3-73.6-2.5 1-5.1 2-7.7 3.1zm-98 89.8c-.2.5-.1 1.1.3 1.4 1.9 1.7 3.8 3.4 5.6 5 9.9-20.3 26-44.7 39.8-64.1-18.7 15.9-33.9 35.2-45.7 57.7zM610.5 24.6c-2.5 0-5 .1-7.5.2-.5 0-.9.4-1.1.9-2.7 12.1-4.5 24.3-5.9 36.4 5.6-23.5 15.8-33.2 22.4-37.2-2.5-.2-5.2-.3-7.9-.3zm-11.6 224.2c-3.5-.5-6.5-1.7-9-3.6-.2-.2-.5-.2-.7-.2-.2 0-.3 0-.5.1-.4.2-.6.6-.6 1 .2 45.6 1.5 92.8 3.8 140.5.7 14.3 1.4 28.5 2.2 42.5-.1-44.5 3.4-143.7 4.8-180.3zm46.4 223S661 404.9 661 366.4c0-32.2-2.2-77.3-2.9-91.2-1 .8-2 1.7-3.1 2.5-.3.2-.5.6-.5 1 2.1 65.4-2.7 130.7-9.2 193.1z" style="fill:#ff9a83"/><path class="st10" d="M541.3 566.3c22.6 13.2 52 10.8 77.1 9.2 27.3-1.7 52.8-5.3 77.1-18.2 1.9-1 .8-3.4-1-3.7-25.8-3.4-50.4-.1-76.1 1.8-25.1 1.9-52.7-1.2-76.6 7.5-1.5.5-2 2.5-.5 3.4zM708 557.1c2.9 3 7.1 3.2 11 2.7 3.4-.5 9.8-3.2 8-7.9-3.2-8.5-16.9-3.8-19.6 2.8-.4.8 0 1.8.6 2.4z"/><path class="st9" d="M624.1 110.7s.3.4.4.4c.2.2.3.4.5 1 8.8 13.6 18.2 23.5 28.8 30.3.2.1.4.2.6.2.4 0 .7-.2.9-.5 2.5-3.4 5.5-6.4 9-8.9.3-.2.4-.5.5-.8 0-.2 0-.4-.1-.6.1.1.3.2.5.3.1 0 .2.1.4.1s.4-.1.6-.2c.1-.1.2-.1.3-.2-.7-.2-1.4-.3-2-.5v.2c0-.1-.1-.1-.1-.2-4.7-1.2-8.8-2.2-10.8-3.2-15.2-7.4-27.6-20.4-35.8-35-3.8-6.8-5.2-16.9-7.7-25.8-1.2 13.8 9.1 35.2 11.5 39.3.8 1.3 1.6 2.7 2.5 4.1zM710.3 185.9c-.2-.1-.3-.1-.5-.1-.3 0-.7.2-.9.4-1.9 2.4-3.9 4.5-6.1 6.3-.3.2-.4.5-.4.9 0 .3.1.6.4.9 1.7 1.6 3.4 3.1 5.1 4.7l.3.3c23.3 10.4 40.3 32.8 49.4 56.1 1.6-2.2 2.4-4.8 2.6-7.8.8-21.1-35.4-54.9-49.9-61.7zM679.9 201.3c-.1-.5-.5-.8-1-.9-3-.3-5.9-1.1-8.7-2.2-.1 0-.2 0-.3-.1 1.3 16-2.2 32.3-6.5 47.7-.5 1.7-8.9 16.8-12.6 28.4 6.6-4.5 11.7-12.3 15.2-19.3 5.4-10.9 18-36.1 13.9-53.6zM610.2 194.6c9.1-2.1 17.5-5.7 25.6-9.1 4.6-2 9.3-4 14.1-5.7.6-.2.9-.9.7-1.5-.9-2.6-1.5-5.2-1.9-7.7-.1-.3-.2-.6-.5-.8-.2-.1-.4-.2-.6-.2h-.3l-1.8.5c-2.4.7-4.9 1.5-7.4 2.2-3 2.1-5.9 4.1-9 5.8-16.3 8.9-32.6 13.3-49.5 17.9 3.3.5 6.7.6 9.8.6 8.9 0 17.3-1.2 20.8-2zM767 141.1h-1c-15.6.3-30.6 3.3-47.2 9.4-.5.2-.9.8-.7 1.3.5 2.2.8 4.5.8 6.8 0 .6.5 1.1 1.1 1.1l2 .1c16.4-7.6 32.2-12.3 52.8-12.1 6.8.1 14.5 1 21.8 3-6.8-7.4-21.1-9.6-29.6-9.6zM710.3 72.2c-12.1 18.4-18.5 36.2-19 53 0 .6.4 1 .9 1.2 2.9.6 5.6 1.6 8.1 2.9.2.1.3.1.5.1s.3 0 .5-.1c.3-.1.6-.4.7-.7.5-1.8 1.2-3.5 1.8-5.3-.1-.9-.1-1.7-.1-2.4-.1-19.2 6.5-38.5 15.9-55 1.8-3.1 3.8-6.1 6-9.1-6.2 4.2-11.7 9.9-15.3 15.4zM679.1 108.2c.3 5.1.5 10.4-.2 15.7l.3 1.3c.1.6.6 1 1.1 1h.2c1.3-.2 2.5-.4 3.8-.4.6 0 1.1-.5 1.1-1.1.1-3.1.4-6.2.9-9.4-2.7-3.7-5.1-7.5-7.3-11.3 0 1.4.1 2.8.1 4.2zM622.7 150.6c.1.1.5.3.7.3 9.4 1.1 17.6 3.4 23.9 6.6.2.1.3.1.5.1s.3 0 .5-.1c.3-.2.6-.5.6-.8.5-2.3 1.1-4.5 2-6.7.1-.4.1-.8-.1-1.1-.2-.3-.6-.5-.9-.5h-1.2c-8.4 0-18.3-4.2-26.3-9.2-3.4-.2-6.9-.4-10.3-.7-12-1.1-23.9-4-35.2-7.9-.4-.1-.8-.3-1.3-.5 10.5 9.8 26.6 14.5 40.3 18.5 2.3.7 4.6 1.3 6.8 2zM655 70.6c-.1.4-.1.8.2 1.1 9.9 12.8 17 26.8 21.2 41.5.1.5.6.8 1.1.8h.2c.6-.1 1-.6 1-1.1v-9.2c-5.8-10-10.3-20.4-14.1-32.6-2.2-7.1-3.1-15-4.8-22.6-4.9 6-6.5 12.9-4.8 20.6.3.4.2.9 0 1.5zM739.7 130.2c-3.4 1.5-6.8 3-10.1 4.7-3.5 1.8-6.7 4-9.7 6.1l-1.8 1.2c-.5.3-.6.9-.4 1.5.2.4.6.6 1 .6.1 0 .2 0 .4-.1 8.5-2.8 30-8.2 50.3-8.2 4 0 7.8.2 11.3.7h.1c.3 0 .7-.2.9-.4.4-.5.8-1 1.2-1.4.6-.7 1.2-1.4 1.7-2.1 3.6-5.1 8.5-12.1 7.8-19.7 0-.5-.2-.9-.2-1.3-9.6 6-21 9.5-31.7 12.8-6.8 2.1-13.8 3.9-20.8 5.6zM718.1 252.2c-12.2-14.1-21.6-33.7-24.9-52.3-.1-.3-.3-.6-.5-.8-.2-.1-.4-.2-.6-.2-.1 0-.2 0-.4.1-1.1.4-2.3.7-3.4.9-.3.1-.6.3-.8.6-.2.3-.2.7 0 1 1.6 3.5 2 8.1 2.4 12 .2 2.4.4 4.6.5 6.8 3.9 4.7 7.4 9.8 10.6 15.8 5.8 10.9 8.7 27 14.6 39.5 4.5-6.6 5.7-14.8 2.8-23.1-.1 0-.2-.1-.3-.3z"/><path class="st9" d="M688.9 208.9c-.1-.5-.6-.9-1.1-.9h-.1c-.6.1-1 .6-1 1.2 0 2.2-.1 4.4-.3 6.6 1.3 1.4 2.5 2.8 3.8 4.3-.4-3.7-.6-7.5-1.3-11.2zM757.2 206.6c-12.9-6.2-21-16.2-28.1-27.2-4.1-1.3-8.2-2.9-12.1-4.7-.2-.1-.3-.1-.5-.1-.1 0-.3 0-.4.1-.3.1-.5.3-.6.6-.6 1.5-1.4 2.9-2.2 4.3-.2.3-.2.6-.1.9.1.3.3.5.6.7 5.7 3 10.8 7.7 15.7 12.2 1 .9 3.6 3.3 3.6 3.3 7.3 6.5 14.8 13.2 20.8 20.9.2.2.5.4.8.4.4.1.7.1 1 .2 2.2 1.1 4.9 1.6 8 1.6 6.9 0 14.2-2.6 19.5-6.5-8.8-1-17.5-2.6-26-6.7zM631.6 233.1c.2-.2.5-.3.8-.4.3-.1.6-.3.7-.6 4.6-11 9.9-23.4 17.2-33.6.3-.5.3-1.1-.1-1.5-.2-.2-.5-.4-.8-.4-.2 0-.4.1-.6.2-2.2 1.5-4.5 2.8-6.7 4.1l-1.6.9c-3.8 5.7-8.3 10.9-12.9 15.7-9.2 9.6-21.8 16.6-34.4 22.3 3.1 2.3 6.9 3.5 11.2 3.5 9.7 0 20.1-5.5 27.2-10.2zM656.5 190.4c.3-.2.5-.5.6-.8.1-.3 0-.7-.3-1-.9-1-1.8-2.1-2.6-3.4-.2-.3-.6-.5-.9-.5-.1 0-.2 0-.4.1-1.5.5-3 1.1-4.5 1.6-1.8 5.1-4.2 9.9-7.2 14.4 2-1.3 4-2.7 5.9-4.1 3-2.2 6.2-4.5 9.4-6.3zM644.1 146l1.6.3h.2c.4 0 .9-.3 1.1-.7.2-.5.1-1-.3-1.4-1.8-1.5-3.7-3.2-5.6-4.9-5.9.3-11.9.3-17.8 0 3.1 1.6 6.3 3.1 9.7 4.2 3.6 1.3 7.4 1.9 11.1 2.5z"/><path d="M700.7 187.1c7.4-7.8 12.6-18.9 12.3-29.3-5.9 8.3-15.9 13.9-25.4 16.7-14.3 4.3-23.6-8.8-24.4-21.6-.3-4.4.5-8.7 1.7-12.8-10.5 9.4-13.6 22.7-8.5 37.3 4.8 10.2 15.8 17.3 26.7 17.3 6.8 0 12.9-2.6 17.6-7.6z" style="fill:#f26200"/><path class="st12" d="M645.7 238.1c-4.4 1.5-5.4 6.9-6.4 11-1.6 6.5-1.9 12.3-.6 18.8.1.7 1.1.8 1.4.2 2.7-5 3.8-9.8 4.8-15.4.8-4.5 3.5-10 1.3-14.4-.1-.1-.4-.2-.5-.2zM685.3 256c-3.5 2.9.2 8.8 2.1 11.6 3 4.4 6.2 7.6 11.6 8.3.4 0 .8-.4.8-.8-.4-4.5-2.7-6.8-5.8-9.9-1.8-1.8-3.2-3.9-4.6-6-1-1.4-1.6-2.8-3.3-3.4-.3-.1-.6.1-.8.2zM720.7 229.9c-.6 5.7 4.1 11.4 8.2 14.8 4.3 3.6 10.1 7.6 16 6.7.5-.1.9-.8.7-1.3-1.5-4.9-6.3-6.7-10.3-9.1-5.2-3.1-8.5-9.1-13.8-11.7-.5 0-.8.2-.8.6zM749.9 193.9c3.3 5.2 7.8 8.1 13.6 10.2 4.7 1.7 11.8 3.5 15.5-1.1.4-.5.4-1.2-.2-1.5-3.9-2.6-9.1-2.3-13.6-3.5-4.9-1.3-10-3-14.7-4.7-.4-.3-.8.2-.6.6zM760.7 156.6c4 2.2 8.8 1.8 13.3 2.4 5.8.7 11.3 3.1 17 .7.6-.3.9-.9.4-1.5-4-4.5-9.6-4.7-15.3-5.3-5.1-.5-11.4-.8-15.5 2.7-.4.3-.3.8.1 1zM756 113.4c3.1.8 5.7-1.7 8.3-3.1 1.8-.9 3.9-1.4 5.6-2.4 1.6-1 2.5-2.4 4-3.5.4-.3.6-1.1 0-1.4-2-.9-3.3-1.7-5.7-1.6-2.9.2-5.8 2-8.1 3.5-1.8 1.1-4.3 2.8-4.8 5-.3 1-.6 3.2.7 3.5zM748.1 60.5c-1.8 6.5-2.4 12.7-5.3 19C740 85.8 737 91 735 97.6c-.3.9.8 1.7 1.6 1.2 7.9-4.4 11.7-9.8 14.8-18.4 2.3-6.2 2.4-15.3-2.6-20.2-.2-.1-.6 0-.7.3zM730.3 100.9c-2.2 1-4.8 4.8-1.8 6.5 3.3 1.9 5.4-2.7 4.8-5.3-.3-1.4-1.9-1.7-3-1.2zM675.6 48.2c1 3.3 3.6 6 5.2 9 .8 1.5 1.4 3.1 2.2 4.6.9 1.7 2.3 2.8 3.6 4.1.6.5 1.3.2 1.6-.4 1.7-4.4.9-7.7-1.4-11.8-2-3.5-5.5-7.3-9.8-7.4-.8-.1-1.7 1-1.4 1.9zM621.4 64.8c3.6 3.7 7.9 6.5 11.5 10.2 3.5 3.6 6.1 7.7 11.4 8.3.5.1.8-.5.7-1-1-5.6-5.6-9.6-9.7-13.3-3.7-3.4-8.7-6.6-13.8-4.9-.2.1-.3.4-.1.7zM646.3 87c-.1 1.8.7 3.2 2.2 4.1 1.4.9 3.3-.3 3.2-1.9-.1-1.7-.9-3.2-2.5-3.9-1.3-.6-2.9.2-2.9 1.7zM577.7 113.2c4.7 3.3 10.9 4.1 16.3 5.7 6.9 2.1 12.8 4.3 20 3.4 1-.1 1.7-1.3.9-2.1-5.4-5.4-11.4-7.2-18.8-9-5.8-1.5-13.2-2.5-18.5 1-.3.2-.3.7.1 1zM572.9 181.2c6.3-.6 12.2-5.2 18-7.5 5.8-2.3 12.5-3.2 17.2-7.5.5-.4.4-1.3-.2-1.6-6.3-2.9-13.8-.1-19.7 2.7-5.8 2.7-14.3 6.3-15.8 13.3 0 .3.2.6.5.6zM611.7 165.8c1.6 1.1 4 .8 5.3-.7.7-.8.9-2.1 0-2.9-1.9-1.5-4.8-1.3-5.9 1-.5 1-.2 2 .6 2.6zM596.2 225.6c1.2.3 2.1-.4 3-1.2 1.5-1.4 3-2.7 4.5-4.1 2.7-2.8 5.6-4.7 6.9-8.6.2-.7-.3-1.2-1-1.3-4.7-.3-7.9 2.9-10.8 6.2-.9 1-5.7 8.3-2.6 9zM720.3 223.8c-.3-1-.7-1.6-1.4-2.4-2.4-2.9-6.5.8-5 3.8.5.9 1 1.5 1.9 2 2.3 1.5 5.2-.9 4.5-3.4z"/><path d="M676.5 148.9c1.3 1 2.5.8 4.1.7 3.2-.2 6.3.2 9.3 1.1 2.9.8 7 .6 7.5-2.3.2-1.2.1-2.8-1-3.7-4.1-3.3-9.4-3.2-14.2-1.6-.7.2-8.1 3.8-5.7 5.8z" style="fill:#fdce1a"/><path class="st16" d="M714.8 525.8h.2c8.4-1.2 16.1-2.6 23.4-4.2 7.2-1.6 12.2-3.1 15.7-4.5-15.6-4.8-32.3-7.5-49.1-9 4.6 4.2 7.6 9.8 8.7 16.8.1.5.5.9 1.1.9zM477.4 510.3c-10 1-29 2.7-43.3 8.6 10 3 21.9 4.8 22.1 4.8 3.4.5 6.8.9 10.2 1.3l1.7.2c.5 0 1-.5 1.2-.9 3.7-6.7 9.2-11.7 16.2-14.8-2.7.3-5.4.5-8.1.8z"/><path class="st17" d="M653.2 234c1.9-2.1 2.9-4.1 3.8-6.8.2-.5-.4-.8-.8-.6-2.9 1.3-3.7 4.1-3.7 7.1 0 .4.4.6.7.3zM756.9 125c.2-.1.1-.4-.1-.4-1.8-.2-3.5.3-4.9 1.4-.1.1-.1.3.1.3 1.7.3 3.4-.4 4.9-1.3zM678.9 73.3c1.2-1.3.8-3.4 0-4.8-.1-.2-.5-.2-.6 0-.7 1.4-1.1 3.5 0 4.8.2.1.4.1.6 0z"/><path class="st17" d="M859.4 251.3c0-.4-.5-.6-.8-.3-1.5 1.6-2.9 3.3-4.4 5.1-3.6-27.4-18.2-50.7-46.3-51.3 0-.1.1-.1.1-.2 1.2-2 2.5-4 3.8-5.9.2-.2-.2-.6-.4-.4-1.7 1.2-3.2 2.5-4.4 4.2-.5.7-1 1.4-1.5 2.3-2.6.1-5.3.4-8.1.8.6-1.7.9-3.5 1-5.3.2-3.3-.1-6.5-.6-9.8-.6-3.5-3-7.7-3.5-11.3 6.6-3.6 11.9-8.8 12.9-16.3 1.9-14.5-5.9-22.1-17.7-25.6 1.4-1.6 3-3.5 3.2-3.8 2.1-3 3.5-6.3 5-9.7 2.9-7 2.2-16.2-1.3-22.8-6.1-11.3-17.3-17.4-29.7-17.7 4-11.1 2.8-22.9-8-35.2-12.6-14.3-33.9 0-44.2 9.2-3.4 3-6.5 6.4-9.4 10.2-.1-5.8-1.1-11.5-3.5-17-2.5-6-7.4-14.1-13.9-16.3-6.3-2.2-12.4-2-18-.2-7.6-4.8-15.4-8.5-23.5-11.1.2-3.9-2.1-8.3-4.7-10.7-.3-.3-.9 0-.7.4.7 2.3 1.4 4.5 2 6.8.2.9.3 1.8.4 2.7-35.6-10.3-74.2-.8-109 14.6-16.1 7.1-30.8 15.9-44 26.3.3-4.4.7-8.8 1.9-13.1.2-.6-.6-.9-1-.4-3 4.4-5.3 10.5-3.5 15.6-20.1 16.4-36.7 36.7-49.4 60.6-7-5.7-14.4-11.1-22.2-15.6.3-3.6-1.5-7.8-4-9.9-.4-.3-.9.1-.7.5.9 2.2 1.6 4.1 1.9 6.5 0 .4.1.8.1 1.2-22.8-12.6-47.7-17.6-69.6-2.7-11.1 7.6-16.3 20.7-18.4 34.6-.6-.5-1.1-1-1.7-1.5-2.2-1.9-4-3.7-5.6-6.1-.2-.3-.7-.2-.7.2-.1 2.8 1.5 5.4 3.3 7.3 1.1 1.2 2.6 2.5 4.2 3.2-1.3 11.5-.6 23.3.6 32.9 4.2 32.5 18.5 63.9 36.3 91.1 8.1 12.3 19.7 28.2 33.2 42-2.3.2-4.6.4-6.9.5-.4 0-.6.6-.2.8 3.1 1.7 6.7 2.2 10.2 1.8 7 6.8 14.4 13 22.1 17.8v.4c2 9.5 4.3 19.1 6.7 28.8-1.8-.8-3.7-1.6-5.6-2.1-.4-.1-.8.5-.4.8 1.7 1.7 3.6 2.9 5.8 3.9.3.1.6.3 1 .4 5 19.3 11.1 38.8 18.1 58-2.5-.8-5.1-1.5-7.5-2.8-.4-.2-.8.3-.5.6 2.2 2.4 5.5 4.4 8.8 4.5 6.1 16.4 13 32.5 20.6 47.9-23.5 2.9-57.1 6.2-70 28.1-5.2 8.9-2.8 22-2.8 31.6 0 15.9-2 33 .7 48.7 2 11.9 12.6 18.9 24.7 23.2 0 28.2-.1 56.3-.1 84.5 0 21.5-1.7 43.2 9.9 62.3 9.9 16.3 29.1 24.2 47 29.3.2.1.3.1.5.1 2 .6 3.9 1.1 5.9 1.6 35 9.2 72.3 11.5 108.3 11.7 34.4.2 69-3.3 102.7-10.3 20.2-4.2 44.4-11.7 57.1-29.3 12.9-18 12.1-38.8 12.1-60 0-30.1-.1-60.1-.1-90.2 12.8-4.8 24.5-12.7 25.3-26.5 1-16.8.1-33.8.1-50.5 0-10.9 1.3-21.1-5.5-30.3-15.9-21.6-55.8-23.1-80.5-25.6 2.4-7 4.7-14.1 6.8-21.2 2.8-.8 5.4-1.9 7.7-3.9.3-.2 0-.7-.4-.6-2.3.9-4.6 1.7-6.8 2.7 2.2-7.5 4.2-15 6.1-22.6h.5c33.8-6.6 64-24 87.9-47.9 2.4.7 4.9.6 7.3-.5.4-.2.2-.8-.2-.8-1.9-.1-3.8-.1-5.7-.1 17.6-18 31.9-39.5 41.6-62.8 6.4-15.5 9.1-34.6 7.2-52.2 3.1-1.6 5-4.8 5-7.9zM832 223.1c3.7 15.5.1 33.5-2.8 48.8-3.2 16.7-10 31.6-19.2 45.8-20.5 31.5-52.1 58.5-86.8 73.4 2.9-14.4 5.3-29 7.3-43.6 50.6-20.5 93.2-73.1 95.5-129 2.2 1.3 4.2 2.8 6 4.6zM487.9 507.4c-8.2 2.8-15.2 8.2-19.6 16.4-.1.1-.1.2-.1.3-3.9-.5-7.9-1-11.8-1.5-5.1-.7-45.1-7.6-32.2-15.5 15.3-9.3 38.7-10.6 55.9-12.6 2.5 4.3 5.1 8.6 7.8 12.9zm9.2 6.4c10-1.1 26.1 1.7 25.4 15-15.2-.8-30.5-2-45.6-3.7 4.8-7 11.3-10.3 20.2-11.3zm-13.7-188c20.3-20.5 24.2-51.8 24.1-79.2 0-8.7-1-16.9-2.8-24.8l.6-.9c1.6-2.5 2.6-5.9 2.8-8.9 0-.4-.5-.5-.7-.2-1.2 2.1-2.4 4.3-3.6 6.4-4.2-16-11.7-30.7-21.2-44.8 10-47.9 29.5-92.9 59.3-131.9 8.3-3.6 17-6.8 25.8-9.3-20.8 31.4-27.3 71.8-31.6 108.4-4.3 36.9-4.8 74.3-3.7 111.4 1.1 36.8 4.6 73.6 8 110.3 4.3 46.2 9.2 92.4 16.9 138.1.1.8.3 1.7.4 2.5-12.1-5.4-26-2.6-35.6 5.9-19.8-58.4-33.7-119-41.7-180.1.9-.9 1.9-1.8 3-2.9zm43.1 190c8.8-8.5 21.3-9.7 31.9-3.4 4.2 2.5 6.2 7.3 7.3 11.8.5 1.9.2 4 .5 5.9-11.9-.1-23.7-.5-35.6-1 0-.1.1-.2.1-.4.2-5.1-1.4-9.4-4.2-12.9zm48.1 14.5c0-.9-.3-1.8-1.1-2.6 1.5 1.5.1-5.3 0-5.5-.4-2.5-1.5-4.9-2.5-7.2-1.8-4.1-5.1-7.3-8.8-9.6-7.9-44.5-12.7-89.5-17-134.4-3.7-38.3-7-76.7-8.6-115.1-1.5-34.8-.7-69.8 2.5-104.5 3.7-40.6 10.4-86.7 34.8-120.7 8.3-2.1 16.7-3.6 25.1-4.3-4.7 22-6.9 44.6-8.6 67-11.5-1-22.8 1.7-29.3 10.2-8.2 10.6 3.9 26.5 11.5 33.1 6.9 6 15.6 10.1 24.6 13.4-20.2 2.7-38.2 11.8-41.4 29.6-2.8 15.7 15.8 22.6 27.7 24.2 2.8.4 5.6.5 8.4.5-9.5 9.5-14.7 23-7.8 35.8.3.6.7 1.1 1.1 1.7.2 48.3 1.6 96.6 3.8 144.9 1.2 24.8 2.6 49.7 4.2 74.5 1.5 23.2 4.8 46.1 6.6 69.3H597c-7.5-.3-14.9-.3-22.4-.3zm43.3-416.4c8.8 12.9 19.6 24.4 28.1 31.2-4.3-.7-8.6-1.3-12.7-2.7-8.1-2.8-15.3-7.5-22.9-11.4-.2-.1-.4.1-.2.3 8.2 8.2 26.1 18.9 39.7 18.2-.9 2.2-1.6 4.5-2.1 6.9-6.4-3.3-15-5.6-24.3-6.7-.2-.1-.3-.2-.6-.3-19.2-5.9-47.3-11.6-55.2-32.9-8.8-23.8 40.8-13 50.2-2.6zm37.8-30c8.9 13.1 14.1 27.8 16.8 43.3l-1.5.6c-1.9.9-3.8 2-5.5 3.1-2.6-7.2-7.4-14-11-20.5-4.2-7.7-8.4-15.4-14.2-22-.2-.2-.4.1-.3.3 3.8 7.8 8.4 15.3 12.4 23 3.5 6.7 6.5 14.5 11.2 20.6-3.7 2.6-6.7 5.7-9.2 9.2-11.8-7.5-21-18.3-28.5-29.9-.1-.3-.3-.7-.6-1l-.3-.3c-.9-1.4-1.7-2.8-2.6-4.2-4.5-7.7-25.3-53.2 3.3-49.1 12.7 1.5 23.5 17.4 30 26.9zm51.5 60c9.8 13.3 2.8 31.7-7.3 42.4-13.3 14-35.1 6-42.4-9.4-5.4-15.4-1.4-29.9 12.3-39.2 12.5-8.6 28.4-5.8 37.4 6.2zm82.6 72.9c.6-.5 1.1-1.1 1.6-1.6h.1c6.2-1.7 11.8-2.4 17-2.1-13.6 34.4-36.1 62.2-71.4 74.8.5-6.6 1-13.1 1.5-19.6 6.5 2 13.3 1.7 18.6-3.2 12.4-11.4 11-25.6 4.1-38.5 10.2.8 21.5-3.3 28.5-9.8zm32.3-.5c-1.3 54.2-42.1 105.9-90.9 126.6 2.3-16.8 4.1-33.7 5.5-50.6 37.7-12.8 61.6-42.2 75.9-78.8 3.5.5 6.6 1.4 9.5 2.8zM748 260.8c-12.5 4.6-26.1-13.9-31.3-22.3-8.1-13-14.6-26.9-17.1-42 .6-.4 1.2-.9 1.8-1.3 4.4 4.2 9.1 8.2 13.5 12.3 5 4.7 9 10 13.4 15.2.1.2.4 0 .3-.2-1.1-6.2-6.4-11.2-10.6-15.5-4.6-4.7-9.7-9-14.5-13.5 2.3-1.9 4.3-4.1 6.2-6.5 18.6 8.6 72.2 61.3 38.3 73.8zm-42.3 22.6c-16.3 9.9-31.9-14.3-32.1-27.8 7.7-14.1 14.2-31.5 14.1-46.5.7 3.8.9 7.8 1.2 11.6.4 6.8 0 13.8 2.3 20.2.1.3.5.2.5-.1.5-9.1 0-18.4-.8-27.4-.3-3.7-.7-8.5-2.5-12.3 1.2-.2 2.4-.6 3.6-1 3.4 18.7 12.6 38.3 25.2 52.8 4.2 12.1-.3 23.7-11.5 30.5zm-64 230.8c9.1-77.8 16.4-157.3 14-235.6 3.7-2.7 6.9-5.8 9-8.7.9-1.2 1.8-2.5 2.7-3.9 4.6 14.9 17.8 29.6 33.8 27 1.3-.2 2.6-.5 3.8-.9-.3 36.3-5 72.1-11.7 107.7-3.4 18.1-7.4 36.1-11.4 54.1-3.5 15.3-6.2 31.1-11.2 46-10.8 2.3-21.3 7.3-29 14.3zm-31.8-312.5c.1 0 .1 0 0 0 14.8-3.8 28.8-10.9 43.3-15.8.8 1.2 1.7 2.4 2.7 3.5-5.9 3.2-11.2 8-16.9 11.6-7.4 4.6-15.4 8.4-22.4 13.7-.2.2-.1.7.2.6 8.3-2.9 16-7.4 23.5-11.9 2.9-1.7 6-3.5 9-5.5-7.4 10.2-12.7 22.8-17.4 33.8-.4.1-.7.3-1.1.5-9.8 6.5-27.2 15.4-38.1 6-13.7-12 6.1-32.4 17.2-36.5zm37.2-36.3c0 .8 0 1.5.1 2.3-15.3 4.2-30.3 6.7-46.1 9-.2 0-.1.3 0 .3 15.1 3.3 31.8-1.9 46.5-6.3.4 2.6 1.1 5.3 2 7.9-13.3 4.8-25.4 11.6-39.5 14.8-9.1 2.1-55.2 7.3-45-16.6 4.5-10.5 21.8-15.5 31.7-18.1 14.2-3.9 37.5-1.5 50.3 6.7zM632 258.1c3.4-20 15.3-48.3 30.4-63 1.6 1.1 3.2 2.1 4.9 3-5 7.4-8 17.2-10 25.5 0 .1.2.2.2.1 2.4-3.6 3.9-7.5 5.5-11.6 1.9-4.6 4.1-8.8 6.7-12.8 2.9 1.2 5.9 1.9 9 2.3 3.7 16.2-6.8 38.8-13.8 52.8-5.2 10.4-14.9 24.6-28.4 22-7.5-1.5-5.4-13.3-4.5-18.3zm-28.3 272.1c-1.8-23.1-5.1-46.1-6.6-69.2-1.6-24.8-3-49.7-4.2-74.5-2.2-46.8-3.5-93.6-3.8-140.4 10 7.7 26.2 3.3 38-2.5-4.3 11.9-7.5 26.3-.2 35.8 6.3 8.2 16.3 6.6 24.7 1.8 2.2 79.1-5.4 159.4-14.6 237.9-2.7 3.3-4.7 7-6 10.9-9.1.1-18.2.2-27.3.2zm65.5-22.1c13.5-3.3 35.2 1.1 37.6 17.6-22 2.7-44.6 3.7-66.9 4.2 5-12.1 16.9-18.7 29.3-21.8zm45.6 16.6c-2.2-14.6-11.9-22.3-24-24.8.9-2.2 1.8-4.3 2.6-6.5 19.2 2.1 38.4 4.4 56.9 10.1 24.7 7.7-.2 14.2-12.3 16.9-7.6 1.7-15.3 3.1-23.2 4.3zm-32.1-26.2c-.1.2-.1.3-.1.5-2.4 0-4.9.1-7.5.4 4.6-14.4 7.2-29.6 10.6-44.2 4.1-18 8-36 11.4-54.1 6.9-36.2 11.7-72.9 11.8-109.8 0-.2-.1-.4-.1-.5 10.9-5.1 17.6-16.7 17.9-28.6 1.2.9 2.5 1.7 3.9 2.5-5 79-16.6 160.6-47.9 233.8zm106.2-310.3c1.7 6.1 2.3 12.3-.7 18.1-4.8 9.2-22.7 15.4-32 10.9-.5-.2-.9-.3-1.4-.4-6.3-8-14.1-14.9-21.6-21.6-5.8-5.1-11.9-11.3-19-15 .8-1.4 1.6-2.9 2.2-4.4 17.6 8.1 38.3 11.8 57.5 9.4 3.9-.5 8.5-1.4 12.9-2.9.8 2.1 1.6 4.1 2.1 5.9zm10.6-29c1.5 15.7-25.9 18.4-36 18.7-14.8.4-31.1-3.5-44.4-9.8.5-2.1.8-4.2.9-6.3 3.9.8 8.3.2 12.1.1 9.8-.3 19.6 1.1 29.4.5.3 0 .4-.5.1-.6-13.6-2.5-27.7-2.8-41.5-3.3 0-2.4-.3-4.7-.9-7 15.4-5.6 30.4-9 46.9-9.3 10.8-.2 32.1 3.4 33.4 17zm-8.2-46c.7 7-3.8 13.5-7.6 18.9-.8 1.1-1.9 2.2-2.9 3.4-21.5-2.8-50 3.6-62.1 7.6 3.7-2.5 7.3-5.2 11.4-7.3 6.3-3.2 13-5.8 19.4-8.7.5-.2.1-.9-.3-.8-9.9 2.5-26.5 7-33.6 16.2-.5-.9-1.1-1.8-1.7-2.7 13.6-13.1 37.6-29.6 48.7-48.4 14.2-1 27.2 6.6 28.7 21.8zm-80-40.4c10.7-16.2 38.7-35.1 48.3-7.5 9.8 28.6-33.2 52.1-50.9 68.4-1.7-1.5-3.4-2.9-5.3-4.1 2.6-6.3 5.2-12.5 8.4-18.5 3.9-7.3 8.9-14 12.4-21.5.1-.2-.1-.4-.3-.2-10.1 9.8-18.8 24.8-23 38.8-2.7-1.4-5.5-2.4-8.4-3 .5-18.8 8.5-36.8 18.8-52.4zm-22.9-28.1c8.7 10.1 9.6 23.1 7.4 35.9-.1.4 0 .8 0 1.2-7 13.5-11.1 28.8-11.6 42.8-1.3.1-2.6.2-3.9.4-.1-.4-.2-.9-.3-1.3 1-6.8.2-14 0-20.9-.3-9-.5-17.9-1.3-26.8 0-.2-.2-.2-.3 0-.8 8.9-.9 17.8-.8 26.8 0 3.3-.1 6.7-.1 10-4.3-15.3-11.6-29.2-21.4-41.9.2-.7.3-1.4.1-2.2-1.9-8.5.4-15.6 6.5-21.7 1.8-1.8 4.3-3.4 7.1-4.5.4-.1.7-.2 1.1-.4 6.2-2.2 13.4-2.1 17.5 2.6zm-40.5 16.7c-3.2-3.2-7.1-6.4-11.2-8.9-1.2-8.2-2.6-16.4-4.2-24.6 9.8 1.9 19.4 5.3 28.6 10.4-7.4 5.3-12.4 13.8-13.2 23.1zm-19.7-34.3c1.5 7.6 2.8 15.3 4 23-5.9-2.6-12.2-3.3-17.8 0-16.9 10-15 29-5.8 47.9-4.5-2-9.3-3.4-14.2-4.2 1.8-22.7 3.9-45.5 8.8-67.8 8.4-.5 16.8-.2 25 1.1zM444.4 130.9c18.7-36 46.2-63.4 82.3-82.1 2.5-1.3 5-2.5 7.6-3.7-26.9 37.1-45 79.1-54.8 123.8-1.8-2.6-3.7-5.2-5.7-7.8-.1-.2-.3-.3-.5-.5-.1-.1-.1-.2-.2-.3-7.4-8.8-17.3-19.4-28.7-29.4zm22.8 34.9c11.8 15.7 21.1 32.9 26.7 51-48-18.1-81.4-64.9-104.9-108.5 8.5 2.5 16.6 6 23 9.1 22.3 10.6 39.5 29.8 55.2 48.4zm-83.5-59c24.5 46.3 60 96.6 111.6 114.7 5.9 21.7 6.4 44.4-.6 66.7-36.3-11.5-62.2-49.6-81.6-79.8-20-31.1-39.9-66.7-49-102.9 6.2-.8 12.9-.2 19.6 1.3zm-23.6-.4c9.7 39 31.7 77 53.4 110.3 19.1 29.2 44.9 64.3 79.9 75.5-1.8 5.1-4 10.2-6.7 15.3-2.4 4.5-4.9 8.3-7.6 11.5-20.3 7-45.8-17.7-59-30.3-16.1-15.4-28.5-33.7-39-53.3-20.4-38-31.7-80-32.5-123 .9-.7 1.7-1.4 2.6-2 2.8-2 5.8-3.2 8.9-4zm-15.4 9.4c1.5 45.1 14.5 88.3 36.4 127.9 12.1 21.9 27.8 41 46.8 57.3 11.6 9.9 29.4 24.5 46.2 23.2-35.8 31.3-88.8-35.4-109-66.4-20.6-31.6-54-108.2-20.4-142zm131.9 215.9c8.1 60.2 21.7 119.9 41.2 177.4-3.6-1.8-7.7-3-11.6-3.5-3.3-.4-6.6-.4-9.8-.1-32.4-49.9-54.1-112.1-67-170.3 15.6 7.2 31.9 7.8 47.2-3.5zm-41.9 409.8c-11.1-18.4-6.8-45.9-6.8-66.4 0-23.5.1-47 .1-70.5 9.2 2.4 18.5 3.7 25.1 4.7 4.2.7 8.5 1.2 12.7 1.8-1.7 33.4-2.7 66.8-3.1 100.2-.2 17-2.6 39.3 5.3 55.7-13.5-5.1-25.7-12.8-33.3-25.5zm45.8 29.6c-15.7-16.2-9.9-54.9-9.5-75.9.5-27.7 1.5-55.3 2.9-82.9 19.9 2.3 40.1 3.6 60.3 4.4-.2 30.7-1.6 61.5-2.1 92.2-.4 24.8-3.8 48.7 5.2 72-13.2-1.4-26.4-3.4-39.4-5.8-5.8-1.3-11.6-2.5-17.4-4zm65.8 10.6c-11.6-24.8-6.5-52.5-6.1-78.9.5-28.6 1.8-57.3 2-85.9 19 .5 38 .6 56.8.5 13.2 0 26.5-.2 39.9-.6.2 26.2 1.6 52.4 2 78.6.4 28.4 6.3 59.8-6.1 86.4-14.5 1.1-29 1.6-43.4 1.7-15.1.2-30.1-.5-45.1-1.8zm145.5-8.2c-15.8 3.6-31.9 6-48 7.6 8.3-21.2 6.7-43.4 5.6-66.1-1.7-32.7-2.2-65.7-2.4-98.4 20.7-.7 41.5-2 62-4.4 1.4 27.6 2.3 55.3 2.9 83 .4 20.9 6.1 59.4-9.4 75.7-3.6.9-7.2 1.8-10.7 2.6zM755 669.2c0 21.5 2.8 45.4-4 66.2-5.4 16.5-20.2 25.7-36.1 31.5 7.8-16.3 5.4-38.5 5.2-55.6-.3-33.4-1.4-66.8-3.1-100.2 8.2-1.1 16.4-2.3 24.5-3.7 4-.7 8.6-1.7 13.4-3 .1 21.6.1 43.2.1 64.8zm-54.8-192.4c22.2 2.5 62.4 3.6 77.4 24 5.5 7.5 2.8 20.9 2.8 29.5 0 14.1.1 28.3 0 42.4-.2 26-47.4 28.4-64.9 30.5-38.6 4.7-77.7 5.8-116.6 6.1-34.7.3-69.4-1-104-3.6-26.3-2-65.3-1.4-86.7-19.8-7.7-6.6-5.9-18.1-5.9-27.2 0-14.6.1-29.2.1-43.8-.1-31.2 45.5-33.8 68.5-36.8 1.5 3 3.1 5.9 4.8 8.8-18.9 3.1-85 15.5-58.8 32.4 18.4 11.8 44.9 12.4 66 14.4 37.8 3.6 75.9 4.7 113.9 4.6 34.5-.1 69-1.6 103.4-4.7 19.4-1.7 50.6-1.6 66.4-15 24.2-20.6-51.4-30.9-70.2-33.1 1.1-3 2.3-6 3.3-9 .3.2.4.2.5.3zm129.5-147.3c-22.9 42.1-64.7 74.7-111.5 85.1 1.5-6.2 2.8-12.5 4.1-18.8 36.9-15.2 69-43.2 91.3-76.1 10.2-15.1 16.7-31.4 20.1-49.3 2.5-13 5-27.7 3.5-41.3 4.4 6.3 7.7 14.3 9.8 23.6 5.9 26.2-5 54.2-17.3 76.8z"/></svg>