<svg version="1.1" id="e37c00f5-ff96-45aa-87ea-1a24b78ba7bd" xmlns="http://www.w3.org/2000/svg" x="0" y="0" viewBox="0 0 1176.6 803.7" style="enable-background:new 0 0 1176.6 803.7" xml:space="preserve"><style>.st0{fill:#ffe40e}.st2{fill:#ff821d}.st5{fill:#f07493}.st8{fill:#f26200}.st9{fill:#fdce1a}.st12{fill:#895725}.st13{fill:#68182b}</style><path class="st0" d="M696.2 523.5c-.3 0-.6-.2-.8-.4-.3-.4-.3-.9 0-1.3 10.5-12.3 18.2-28.5 24.4-41.5l.2-.4c15.4-32.3 23.9-70.4 25.2-113.1 2.3-73.8-28.5-159.3-82.3-228.7-.2-.3-.3-.6-.2-.9.8-3.4 1.1-7.6.8-13 0-.4.2-.8.6-1 .1-.1.3-.1.4-.1.3 0 .5.1.8.3 46.3 46.6 79.5 110.3 91.1 174.7 8.6 48 1.2 94.4-6.6 124.9-5 19.7-13.6 38.4-21.1 55l-1.8 4c-6.2 13.9-15.6 34.9-30.3 41.5h-.4z"/><path d="M596 560.8c-30.5 0-61.5-1.3-92.3-3.8-16.8-1.4-36.3-3.3-54.7-8.8-5.3-1.6-7.9-3.5-7.9-6 0-4.8 10.7-8.5 15.3-9.9 10.2-3.1 21.1-4.5 31.6-5.9l1-.1c.3 0 .5-.1.8-.3.2-.1.3-.1.5-.1s.4 0 .6.2c5.6 3.5 11.4 5.5 17.9 6.1.2 0 .4.1.6.2 8 6.4 16.4 9.5 25.8 9.5 2.5 0 5.1-.2 7.7-.7h.2c.2 0 .4.1.6.2 6 3.8 12.2 5.6 19.2 5.6 4.4 0 9.1-.8 14-2.3.2-.1.4-.1.7-.1.2 0 .4 0 .5.1 5 3.5 10.6 5.1 16.9 5.1 1.6 0 3.2-.1 4.8-.3 2.2-.3 4.1-1 5.6-2.1.2-.1.4-.2.6-.2h.2c2.9.5 5.7.8 8.3.8 6 0 11.1-1.4 15.2-4.2.2-.1.4-.2.6-.2h.3l.5 1.2v-1.1c.9 0 1.7.1 2.6.1 7.7 0 15-1.7 21.6-4.9.1-.1.3-.1.5-.1s.3 0 .5.1c.4.2.6.3.9.3 1.6.2 3.3.3 4.9.3 8.4 0 16.4-2.9 23.8-8.6.2-.1.4-.2.6-.2h.1c.1 0 .3 0 .4.1h.7c5.4 0 10.7-1.6 15.8-4.8.2-.1.4-.2.6-.2.1 0 .3 0 .4.1.4.2.6.3.8.3 15.3 2 30.7 4.1 44.6 10.1 3.8 1.6 5.5 3.4 5.3 5.4-.3 3.6-7.1 6.6-22.1 9.8l-.7.1c-34.5 7.6-71.4 8.2-107.1 8.7l-9.6.2c-6.6.2-13.1.3-19.7.3z" style="fill:#ad8353"/><path class="st0" d="M534.7 536.7c-26.6-.4-44.5-32.8-55.7-57.1-.1-.3-.1-.5 0-.8.3-.9.6-1.8.8-2.7 0 .1-.1.3-.1.4-.1.4-.5.7-1 .7-.4 0-.8-.2-1-.6-2.2-4.9-4.2-9.6-6.1-14-1.4-3.2-2.7-6.2-3.9-8.9-16.3-36.6-27.3-76.3-32.7-118.1-.2-1.7-.4-3.4-.6-5.2 0-.2 0-.8.1-1 .4-.6.8-1.3 1.1-1.9-.2.1-.4.2-.6.2h-.2c-.5-.1-.8-.5-.9-.9-3.7-36.9.1-71.1 11.5-104.6 13.3-39.1 40.5-68 62.7-88.8.2-.2.5-.3.7-.3.1 0 .3 0 .4.1.4.2.6.5.7.9l.1 1.4c0 .3-.1.6-.3.8l-.4.4c-45.3 62.7-62.6 158.2-44 243.1 9.7 44.2 29.9 86.6 48.4 122.2 5.9 11.3 12.9 24.1 21.8 33 .3.3.4.8.2 1.2-.2.2-.6.5-1 .5z"/><path class="st2" d="M547.2 65.3c-.2 0-.3 0-.4-.1-2.6-1.2-5.1-2.2-7.6-2.9-.3-.1-.5-.3-.7-.6-.1-.3-.1-.6 0-.9 6.2-13.6 29.8-15 37.5-15.4 1.5-.1 3.5-.2 5.9-.2 11.7 0 19.3 2.2 22.5 6.4.2.3.3.6.2.9-.1.3-.3.6-.6.7-2.8 1.4-4.9 2.9-6.1 4.4-.2.3-.5.4-.8.4h-.2c-1-.2-2-.3-3-.3-3.8 0-7.6 1.7-10.8 3.3-5.1 2.6-10.1 2.9-13.9 2.9-1.8 0-3.6-.1-5.5-.2-1.8-.1-3.6-.2-5.4-.2-4.2 0-7.5.5-10.6 1.6-.2.2-.4.2-.5.2z"/><path class="st0" d="M666.7 533.7c-.4 0-.8-.2-1-.6-.2-.4-.1-.9.3-1.3 14.5-12.5 25.7-34.8 33.2-66.4 11.4-47.6 7.5-98.4 1.6-146.2-4-32.3-13.4-66.3-28.7-103.9-11.9-29.2-31.6-71.2-65.1-98-.3-.2-.4-.6-.4-.9 0-.4.2-.7.5-.8 2-1.1 3.9-2.3 5.8-3.4.2-.1.4-.1.5-.1.3 0 .6.1.8.4 3 3.3 5.7 7 8.3 10.6 2.9 4 5.7 7.7 8.6 10.7 4.7 4.9 13.7 13.1 21.4 13.1 1.7 0 3.3-.4 4.7-1.2.7-.4 1.3-.9 2-1.6.2-.2.5-.3.8-.3h.1c.3 0 .6.2.8.4 34.2 44.8 59.7 98.9 71.6 152.5.1.4-.1.9-.5 1.1-.2.1-.4.2-.6.2-.2 0-.5-.1-.7-.2-1.3-1.1-2.7-2.3-4.1-3.6 1.4 2.5 3.5 4.6 6 5.8.3.1.5.4.6.7 3.6 17.1 5.8 33.7 6.5 49.5 1.5 32.6-3.2 66.5-14 100.6-9 28.5-28.6 77.3-58.8 82.9h-.2zM562.6 541.7c-16.5 0-26.6-12.4-35-25.9-8.5-13.7-15.6-28.5-22.5-42.9l-1.7-3.6c-.9-1.9-1.8-3.7-2.6-5.6l-.9-2c-.2-.4-.1-.8.1-1.1 1.1-1.5 1.9-3.2 2.1-4.9-.4 1.2-1 2.3-1.5 3.4-.2.3-.5.6-.9.6s-.8-.3-.9-.6c-11.6-25.5-20.5-50.7-26.6-74.9-.1-.2 0-.4 0-.6.8-2 1.1-4.1 1-6-.1.5-.2 1-.2 1.5-.1.5-.5.9-1 .9s-.9-.3-1-.8c-1.8-7.7-3.1-14-4.2-20.1-7.9-45-.8-89.1 7.2-126.3 7.2-33.4 18.8-61.8 35.5-86.8.2-.3.5-.5.9-.5h.2c.4.1.8.4.8.8 1.5 8.4 4 15.1 7.4 19.9.2.2.2.5.2.8-13 69.7-10.3 145.2 8 224.3.6 2.5 1.2 5 1.8 7.6l1.1 4.8c.1.5-.1 1-.5 1.2-.2.1-.3.1-.5.1-.3 0-.6-.1-.8-.4-.4-.4-.8-.9-1.3-1.5 1 1.9 2.4 3.5 3.8 4.6.2.1.3.4.4.6 8.4 35.3 16.5 66.8 24.8 96.4 3.1 11.1 7.8 25 15.9 34.3.2.3.3.7.2 1-.1.4-.4.6-.8.7-3 .7-5.9 1-8.5 1z"/><path class="st0" d="M592.5 545c-10.9 0-19.5-8.3-26.3-25.5-5-12.7-8.3-26.2-11.4-39.3l-.7-2.9c-3.1-12.8-6.5-25.7-9.7-38.3-5.3-20.7-10.9-42.1-15.5-63.3-8.6-39.3-12.9-79.1-12.9-118.3 0-.2 0-.3.1-.5.4-.9.8-1.8 1.1-2.8h-.4c-.5-.1-.8-.5-.8-1 .3-27.3 2.7-54.4 7.3-80.3.1-.3.3-.6.6-.8.1-.1.3-.1.4-.1.2 0 .4.1.5.2 2.6 1.6 5.6 2.4 8.7 2.4h.4c8.9-.2 15.6-5.4 21.1-16.4.2-.4.5-.6.9-.6h.2c.5.1.8.5.9 1 5.2 64.4 14.3 129 22.4 184.6.1.5-.2 1-.7 1.2-.1 0-.2.1-.4.1-.4 0-.7-.2-.9-.5-.1-.2-.2-.4-.3-.5.5 2.2 1.4 4.9 3.1 6.8.1.2.2.3.3.5l3.1 20.8c7.5 51.1 15.3 104 21.2 156.3l.1.8c.8 7.1 1.7 15.1-9.7 16.5-.9-.2-1.8-.1-2.7-.1zM614.3 542.8c-1.2 0-2.5-.1-3.8-.2-.3 0-.6-.2-.8-.5-.2-.3-.2-.6-.1-.9 2.8-8.4.5-21.1-1.2-30.4-.5-2.6-.9-4.9-1.1-6.7l-1.6-13c-4.4-35-9-71.2-14.8-106.7-15-91.8-24.4-168.4-29.6-240.9l-.2-.6c-.1-.2-.1-.4 0-.6 1.1-3.4 2-6.9 3-10.3.7-2.6 1.4-5.1 2.1-7.5.1-.5.5-.8 1-.8h.1c1.4.1 2.9.3 4.3.6 1.1.2 2.2.4 3.3.5.8.1 1.6.1 2.4.1 1.8 0 3.8-.2 6.2-.6h.2c.4 0 .7.2.9.5 16.9 29.5 29.3 65.4 39.1 112.8.1.4-.1.8-.4 1.1-.2.1-.4.2-.6.2-.2 0-.4 0-.5-.1-.7-.4-1.4-.8-2-1.3-.6-.5-1.2-1.1-1.8-1.7.5.8 1.1 1.5 1.9 2.2 1 .9 2.3 1.7 3.5 2.1.4.1.6.4.7.8 5.1 25.6 8.9 51.2 12.6 75.9l.3 2c6 40.6 8 79.6 6.1 119.2l-.3 6.3c-.7 15.4-1.5 31.4-3 47.1-.3 2.8-.4 6-.6 9.2-1.4 18.8-2.7 42.2-25.3 42.2z"/><path class="st0" d="M637.3 538.4c-.4 0-.7-.2-.9-.5-.2-.3-.2-.8 0-1.1 4.7-7.4 7.2-18.6 7.7-34.3.5-15.4 1.4-31 2.3-46.1.6-9 1.1-17.9 1.6-26.9 0-.3.1-.5.3-.7.6-.6 1.1-1.2 1.5-1.9-.2.1-.4.2-.6.2-.1 0-.2 0-.4-.1-.4-.2-.7-.6-.7-1 .8-16.2 1.5-37.6.1-59.6-1.1-17.3-3.1-35.5-6.2-55.6 0-.3 0-.6.3-.9 1.3-1.4 2.2-3 2.7-4.6-.4 1-.9 1.9-1.4 2.9-.2.4-.6.6-.9.6h-.2c-.5-.1-.8-.4-.9-.9-3.4-22.2-8-45.6-13.9-71.7-9-39.7-18.6-78.2-37.4-111.9-.2-.3-.2-.6 0-.9.1-.3.4-.5.7-.6 2.9-.7 5.9-1.8 9.1-3.3.1-.1.3-.1.5-.1s.4.1.6.2c32.1 24.1 51.2 62.6 65.7 97 1.9 4.5 3.8 9.2 6 15 .2.4 0 .9-.3 1.2-.2.2-.4.2-.7.2-.1 0-.2 0-.3-.1.7.5 1.4 1 2.2 1.5.2.1.4.3.5.5 8.9 23.8 15.3 46.9 19.2 68.7 5.4 31.1 7.9 63.1 7.4 95.3 0 .5-.3.9-.8 1h-.3c-.3 0-.7-.2-.9-.5l-.6-.9c.6 1.2 1.4 2.4 2.3 3.6.1.2.2.4.2.7-.2 9-.6 16.9-1.1 24.2-2.4 32.1-13.2 107.4-62.4 111.4.1 0 .1 0 0 0z"/><path d="M535.5 168.2c-8.7 0-15.7-12.5-18-21.3-2.9-11.4-4.4-28.5 0-42.7.1-.3.3-.5.5-.6 3.8-1.9 7.1-2.8 10.6-2.8 3.4 0 6.9.8 11.1 2.6l.4.2c3 1.3 5.8 2.5 8.8 3.3.3.1.6.4.7.7.1.3 0 .7-.2 1-8.2 10.4-11.8 24.2-9.5 35.6.3-1.8.5-3.6.7-5.3 1.5-11.5 2.9-22.4 12.5-30.9.2-.2.4-.3.7-.3 3.8-.1 7.3-1.9 10.8-5.5.2-.2.5-.3.8-.3.3 0 .5.1.7.3.6.6 1.2 1.1 1.8 1.7.4.3.5.9.2 1.4-5.4 8.2-8.3 18.1-11.1 27.8-2.7 9.3-5.4 18.9-10.5 27.1-3.2 5.2-6.9 8-11 8zm-49.6-36.8c.5-.3.9-.6 1.1-.7 6.9-3.9 14.1-6.6 22.1-8.6.4-.1.7-.5.7-1 .2-3.7.5-7.1.9-10.3.1-.4-.2-.9-.5-1.1-.2-.1-.3-.1-.5-.1s-.5.1-.7.3l-1.8 1.5c-7.6 6.5-15.5 13.3-24.7 13.3-1.2 0-2.5-.1-3.7-.4h-.2c-.4 0-.7.2-.9.6-1.9 3.5-2.4 6.5-1.4 8.9.3.8 1.1 1.2 2 1.2 1.8.1 4.8-1.7 7.6-3.6zm-3.6-11.7c-3.4 0-7.6-1.8-8.3-10.3-.5-6.3 3-13.2 5.6-18.2 8.2-16 24.9-25.9 43.7-25.9 7.8 0 15.6 1.8 22.4 5.3.4.3.5.4.7.4 1.2.6 2 1.2 2.7 1.8.4.3.5.9.2 1.3-.2.4-.6.6-.9.6h-.3c-2.7-.7-5.6-1.1-8.8-1.1-11.9 0-26.1 5.4-30.9 14.6 2-1.1 3.8-2.3 5.6-3.4 5.1-3.3 9.9-6.3 16.7-7.7 2.8-.6 5.4-.8 7.7-.8 3.8 0 7.3.7 10.6 2.1 3.2 1.4 5.4 3.8 7.1 5.9.6 1.4 1.1 2.6 1.5 3.7.7 1.8 1.3 3.5 2 5.1.5 1.2 1.2 2.3 1.9 3.4.3.4.2 1-.1 1.3-2.6 2.7-5.6 4-9 4-4 0-8.1-1.8-12-3.5-2.6-1.1-5.3-2.3-8-2.9-1.2-.3-2.6-.5-3.9-.5-6.4 0-12.9 3.7-17.1 6.4-2.7 2-5.3 4.2-7.9 6.3-3 2.4-6 4.9-9.2 7.2-2.1 1.5-7.3 4.9-12 4.9zm102.8-14.1c-8.7 0-17.2-8-20.9-15.5-1-2-1.8-4.1-2.7-6.3-1.9-4.5-3.8-9.2-6.8-12.9-.3-.3-.3-.7-.2-1.1.2-.4.5-.6.9-.6h1.5c2.4 0 4.9.3 7.3.5 2 .2 3.9.4 6 .5h.5c.7 0 1.3 0 2-.1h.1c.1 0 .3 0 .4.1.5.2.7.3.9.3 2.5 1.3 4.8 3.1 7 4.8 1.4 1.1 2.8 2.2 4.3 3.2-1.4-3.1-3.8-5.6-7.3-7.8-.3-.2-.5-.6-.5-1s.3-.7.7-.9c2.7-.9 5.2-2.1 7.4-3.2 3.2-1.6 6-2.4 8.3-2.4 2.9 0 5.2 1.2 6.6 3.6 4.4 7.1.5 23.1-2.8 29.7-3.7 7.5-9 9.1-12.7 9.1zm-4.8 13.3c-2.2 0-4.5-.2-6.6-.4-1.4-.1-2.7-.2-4.1-.3-.3 0-.6-.2-.8-.5-.2-.3-.2-.6-.1-.9 1.2-3.4 2.4-6.1 3.7-8.4.1-.2.4-.4.7-.5h.3c.2 0 .4.1.5.2 3.4 2 6.8 3 10.2 3 5.9 0 11.5-3.1 15.9-8.6.2-.3.5-.4.8-.4.1 0 .3 0 .4.1 2.5 1.1 5 2.6 7.5 4.7.3.2.4.6.4.9 0 .3-.2.7-.5.8-6.2 3.6-12.8 7.2-20.4 9.3-2.5.7-5 1-7.9 1zm72.4 22.1c-5.9 0-16.5-9.9-17.7-11-3.9-3.8-7.4-8.4-10.8-12.8-5.7-7.6-11.6-15.4-19.9-19.4-.5-.3-.7-.9-.5-1.4l.4-.7c.9-2.1 1.8-4.5 2.5-6.9.1-.3.3-.5.5-.6.9-.5 1.8-.9 2.7-1.3.1-.1.3-.1.4-.1h.3c9.8 2.7 17.3 6.9 23.3 13.4 2.9 3.1 5.6 6.9 8.1 11.5.9 1.7 1.5 3.5 2 5.2.4 1.2.7 2.3 1.2 3.4.8-4.7-2.3-11.7-8.9-19.9-5.1-6.3-11.2-11-17.9-14-.4-.2-.7-.6-.6-1.1.1-.5.4-.8.9-.9 2.3-.4 4.6-.6 7-.6 5.1 0 10.4.9 15.7 2.6.2.1.3.1.4.3 9.3 9.5 15.1 22.1 16.2 35.4.4 5 0 10.4-1.2 15.6-.5 2.1-2 3.3-4.1 3.3zm18.9-45.2c-2.3 0-5-1.3-8.1-4l-.3-.2c-.1-.1-.2-.2-.4-.3-11.1-8.2-24.6-12.8-37.1-12.8-5.6 0-10.9.9-15.8 2.7-.1 0-.2.1-.4.1s-.5-.1-.7-.2c-.3-.2-.4-.6-.4-.9.4-3.5.3-6.7-.3-9.5-.1-.5.2-1.1.7-1.2 6-1.8 12.3-2.8 18.7-2.8 9.8 0 20.2 2.1 31.1 6.4-6.7-6.4-17-9.9-29.5-9.9-7.1 0-14.7 1.2-21.5 3.3-.1 0-.2.1-.3.1-.4 0-.8-.2-.9-.6-.9-1.8-2.2-3.3-3.7-4.5-.3-.2-.4-.5-.4-.8 0-.3.2-.6.4-.8 3-2.3 16.5-5.3 16.7-5.4 2.9-.7 6-1 9.2-1 5.5 0 11.6 1 18.4 3 9.2 2.7 18.5 9.8 25.7 19.3 3.9 5.2 5.4 13.1 3.3 17.3-.9 1.6-2.4 2.7-4.4 2.7zm-14.7-41.3c-.2 0-.3 0-.5-.1-8.3-4.1-18.1-6.3-28.3-6.3-2 0-4 .1-6 .3-2.4.2-6.9 1-11.3 2.3h-.3c-.4 0-.7-.2-.9-.5l-.9-1.5c-.2-.3-.3-.6-.2-.9.1-.3.3-.6.6-.7 7-3.2 15.5-5.2 23.2-5.3h.8c11.3 0 20 3.9 24.6 11.1.3.4.2.9-.1 1.3-.1.2-.4.3-.7.3zM603.2 44c-.2 0-.3 0-.5-.1-1.4-.7-2.9-1.3-4.6-1.8-.4-.1-.7-.4-.7-.9-.1-.4.1-.8.5-1 .8-.5 1.5-1 2.3-1.5.5-.3 1-.6 1.6-.9.9-.5 1.9-1.1 2.7-1.7-3.5.4-7.1 2.7-9.9 4.7-.2.1-.4.2-.6.2h-.2c-2.3-.4-4.9-.7-7.6-.8-.4 0-.8-.3-.9-.6-.2-.4-.1-.8.2-1.1 5.7-6.8 12.3-10 20.6-10h.8c6.5.2 12.8 2.5 18.4 6.8.3.3.5.7.4 1.1-.1.4-.5.7-.9.8-7.5 1-14.9 3.4-20.8 6.7-.4.1-.6.1-.8.1zm-50.5-.1c-.4 0-.8-.3-1-.7-1.2-3.5-4.3-7.1-8.3-10.1-.3-.2-.4-.5-.4-.9 0-.3.2-.7.4-.9 5.7-4.1 14.6-6.5 24.5-6.5 6.7 0 13.1 1.1 18.1 3.2.3.1.6.4.6.8.1.4-.1.7-.4 1-3 2.6-5.8 5.9-8.6 9.8-.2.3-.5.5-.9.5h-.7c-2.9 0-5.9.3-9 .6h-.1c-.4 0-.8-.2-1-.6-1.9-4.2-4.2-7.4-7-9.6-.4-.3-.7-.4-1.2-.4-.9 0-1.7.7-1.9 1.3-.2.5 0 1 .5 1.4 2.3 1.9 4.2 4.3 5.8 7.3.2.3.2.6 0 1-.1.3-.4.5-.8.6-3 .6-5.8 1.3-8.4 2.2h-.2zm-16.4 9.9c-.2 0-.4-.1-.6-.2-9.2-5.9-19.6-8.8-30.9-8.8h-1.1c-.5 0-.9-.3-1-.7-.1-.4 0-.9.4-1.2 4.4-3.2 9.7-5.8 16.2-8 3.2-1.1 6.1-1.6 8.9-1.6 3.4 0 6.6.8 9.7 2.4 2.3 1.2 7.9 6.3 9 9.7.2.5-.1 1-.5 1.3-1.3.7-2.6 1.4-3.8 2.3-.2.1-.4.2-.6.2-.2 0-.4-.1-.6-.2-5.5-4-10.5-6-14.3-6h-.2c1.1.5 2.2 1 3.3 1.4 1.1.4 2.2.8 3.2 1.3 1.9.9 3.8 2.1 6.3 3.8.3.2.4.5.4.8 0 .3-.1.6-.4.9-.9.8-1.7 1.5-2.5 2.4-.4.1-.7.2-.9.2zm-86.9 49.7c-5.2 0-6.4-2.8-6.5-5.2-.4-9.7 5.8-20.6 18.2-32.6 7.8-7.6 19.2-12.7 32.1-14.6h.5c.2 0 .4 0 .6-.1 3-.4 5.9-.6 8.7-.6 11.3 0 21.6 2.7 29.9 7.7.4.3.6.8.4 1.3-.2.4-.8 1.2-1.3 1.2h-.1c-2.7-.4-5.5-.6-8.3-.6-9.1 0-18.1 2.2-26.2 6.4-.1.1-.3.1-.4.1-4.3.4-9 2.1-12.7 3.5l-1.1.4c-6.3 2.3-11 5.1-14.1 8.5 1.8-.9 3.6-1.9 5.4-2.8 3.5-1.9 7-3.8 11-5.1l2.1-.6h.3c.4 0 .8.2 1 .6.2.4.1 1-.3 1.3-7.6 6.1-13.4 14.1-16.7 23.1l-.6 1.8c-.1.3-.4.6-.7.7-1.1.3-2.6.8-4.4 1.5-5.2 1.7-11.9 4.1-16.8 4.1z" style="fill:#ffa3bc"/><path class="st0" d="M498.3 524c-.2 0-.3 0-.5-.1-19.6-9.3-33.5-37.3-43.7-57.7-2.3-4.6-4.5-9-6.5-12.7-15.8-29.2-27.4-63.1-34.6-100.8-15.9-82.9 7.3-160.1 63.6-211.8.2-.2.5-.3.7-.3H478.1c3.1 0 6.7-2.2 9.5-3.9.7-.5 1.4-.9 2.1-1.3 3.3-1.9 6.8-3.5 10.6-5 .1 0 .2-.1.4-.1.4 0 .7.2.9.5.3.4.2 1-.2 1.3-32.1 30.8-51.6 60-63.4 94.8-12.4 36.5-14.1 76.2-5.6 128.6 6.9 42.3 22 86.4 45 131 6.1 11.8 12.9 25.1 21.7 35.8.3.4.3.9 0 1.3-.2.2-.5.4-.8.4z"/><path d="M595.2 779c-45.7 0-82.9-5.8-113.5-17.7-17.1-6.6-28.1-15-33.5-25.5-3.8-7.4-3.2-17.2-2.7-25.9.2-2.9.3-5.6.3-8.2V647.4c0-.4.2-.7.5-.9.2-.1.4-.2.6-.2.1 0 .3 0 .4.1 3.1 1.3 6.1 2.5 9 3.6 22.8 8.7 47.8 12.5 71.4 15.3 23.6 2.8 47.5 4.2 71 4.2 35 0 69.2-3.1 101.7-9.3 15-2.8 32.3-6.4 47-13.2.1-.1.3-.1.4-.1.2 0 .4.1.6.2.3.2.5.5.5.9v47.3c0 3.2.2 6.6.3 10 .5 9.5.9 19.3-1.7 27.9-3.9 12.6-17.6 20.4-30.5 26.3-36.7 16.8-81.1 19.2-119.6 19.3l-2.2.2z" style="fill:#ff5671"/><path class="st2" d="M590.8 663.8c-48.9 0-104.6-3-147.4-25.3-21.1-11-21-23.9-21-45.4V577c0-11.7.1-23.4 0-35.1-.2-21.6 32.4-26.5 49.9-29.2 0 0 3.1-.5 3.2-.5.3 0 .6.1.8.4 2.2 2.7 4.4 5.2 6.7 7.4.3.3.4.7.3 1.1-.1.4-.5.7-.9.7l-.6.1c-16.5 2-35.2 4.2-46.8 14.8-1.8 1.7-2.6 3.4-2.2 5.4.8 4.3 6.7 8.4 10.5 9.8 20.8 7.8 43.9 9.5 66.2 11l7 .5c24.6 1.8 50.7 2.7 79.9 2.7 6.4 0 12.8 0 19.1-.1 29.1-.4 58.6-1.9 87.5-4.7 2.3-.2 4.8-.4 7.4-.6 16-1.3 35.8-2.9 47.2-12.3 3.4-2.8 4.8-5.5 4.1-7.9-1.9-7-20.8-14-50.5-18.6-.4-.1-.7-.3-.8-.7-.1-.4 0-.8.3-1.1 2.2-2.2 4.4-4.7 6.5-7.6.2-.3.5-.4.8-.4.1 0 3.5.5 3.5.5 17.7 2.6 44.4 6.4 50.1 24.6 3.1 9.9 2.1 23.3 1.3 35.2-.4 5.4-.8 10.5-.8 15 0 2.1 0 4.1.1 6.1.2 19 .4 32.7-19.1 44.1-43.9 25.7-105 26-154 26.3-2.7-.1-5.5-.1-8.3-.1z"/><path class="st5" d="M604.3 36.2c-.8.6-1.7 1.1-2.7 1.7-.5.3-1 .6-1.6.9-.7.5-1.5.9-2.3 1.5-.3.2-.5.6-.5 1 .1.4.4.7.7.9 1.7.5 3.2 1.1 4.6 1.8.2.1.3.1.5.1s.4 0 .5-.1c5.9-3.3 13.3-5.6 20.8-6.7.4-.1.8-.4.9-.8.1-.4 0-.8-.4-1.1-2.7-2-5.5-3.6-8.4-4.7-.4.1-.8.2-1.3.3-5.4 1.1-13.1 3.9-18.4 8.4 2.5-1.7 5.1-3 7.6-3.2zM656.8 137.5c.3-1.2.5-2.4.7-3.7-7 0-13-2.8-18.1-10.9-4.5-7-7.2-15-11.7-22-3-4.7-6.6-8.9-10.8-12.1-2-.8-4.1-1.5-6.3-2.1h-.3c-.1 0-.3 0-.4.1-.9.4-1.8.8-2.7 1.3-.3.1-.4.4-.5.6-.7 2.4-1.6 4.8-2.5 6.9l-.4.7c-.2.5 0 1.2.5 1.4 8.3 4 14.2 11.8 19.9 19.4 3.4 4.5 6.9 9.1 10.8 12.8 1.2 1.1 11.7 11 17.7 11 2.1.1 3.6-1.1 4.1-3.4zM447 103.2c.7.2 1.5.3 2.4.3 4.8 0 11.6-2.4 16.5-4.2 1.8-.6 3.3-1.2 4.4-1.5.3-.1.6-.4.7-.7l.6-1.8c3.3-9 9-16.9 16.5-22.9-6.8 2.5-13.3 6.4-18.6 9.4-8.4 4.9-17.1 12.5-22.5 21.4zM568.1 105.2c.3-.4.2-1-.2-1.4-.6-.5-1.2-1.1-1.8-1.7-.2-.2-.5-.3-.7-.3-.3 0-.6.1-.8.3-3.5 3.6-7 5.4-10.8 5.5-.3 0-.5.1-.7.3-2.1 1.8-3.7 3.8-5.1 5.8 1.5 3 2.5 6.5 2.7 10.9.7 16.6-6.1 32.3-17.6 43.2.8.2 1.6.3 2.4.3 4.1 0 7.8-2.7 11.1-8.1 5-8.3 7.8-17.9 10.5-27.1 2.7-9.6 5.6-19.6 11-27.7zM503 42.9c-.4.3-.5.8-.4 1.2.1.4.5.7 1 .7h1.1c11.4 0 21.8 3 30.9 8.8.2.1.4.2.6.2.3 0 .6-.1.8-.4.6-.7 1.3-1.3 2-2-8.9-5.3-21.2-10.9-32.3-11-1.2.9-2.5 1.7-3.7 2.5zM482.3 119.7c4.7 0 9.9-3.4 12-4.9 3.2-2.3 6.2-4.8 9.2-7.2 2.6-2.2 5.3-4.3 7.9-6.3 4.3-2.8 10.7-6.4 17.1-6.4 1.3 0 2.6.2 3.9.5 2.6.6 5.4 1.8 8 2.9 4 1.7 8.1 3.5 12 3.5 3.4 0 6.4-1.3 9-4 .3-.3.4-.9.1-1.3-.7-1.1-1.3-2.2-1.9-3.4-.7-1.5-1.3-3.1-1.9-4.8-5.9 3.1-13.4 2.1-20.2.2-7.9-2.2-16-.8-23.4 2.2-13.6 5.4-24.9 21.6-39 24.1 1.6 3.9 4.6 4.9 7.2 4.9zM585.1 105.6c3.8 0 9-1.6 12.8-9.1 1.7-3.3 3.5-9 4.3-14.8-3 5.2-5 10.9-10.5 14.7-6.3 4.3-17.3 1.5-21.6-4.3-3.3-4.4-3.5-11.1-5.7-16-.9-2-2.5-4.5-4.4-6.8-1-.1-2-.1-3-.1h-1.5c-.4 0-.8.3-.9.6-.2.4-.1.8.2 1.1 3 3.6 4.9 8.3 6.8 12.9.9 2.1 1.8 4.3 2.7 6.3 3.5 7.5 12.1 15.5 20.8 15.5zM676.1 92.9c.2-.4.4-.9.5-1.4-3.6-.1-7.4-1-11.5-3.3-8.6-4.8-16.2-12-25.8-15-9-2.8-20.9-4-31-1.3.4 2.5.5 5.2.2 8.1 0 .4.1.7.4.9.2.1.4.2.7.2.1 0 .2 0 .4-.1 4.9-1.8 10.2-2.7 15.8-2.7 12.5 0 26.1 4.7 37.1 12.8.1.1.2.2.4.3l.3.2c3.1 2.6 5.8 4 8.1 4 1.9.2 3.4-.9 4.4-2.7zM588.7 117.8c-.2-.1-.5-.1-.7-.2-5.3-1.5-9.4-4.5-12.5-8.6-.5-.3-1.1-.5-1.6-.8-.2-.1-.4-.2-.5-.2h-.3c-.3.1-.5.3-.7.5-1.3 2.2-2.5 5-3.7 8.4-.1.3-.1.7.1.9.2.3.5.5.8.5 1.4.1 2.7.2 4.1.3 2.2.2 4.4.4 6.6.4 2.9 0 5.5-.3 7.9-1 .2-.1.3-.2.5-.2z"/><path class="st5" d="M510.7 110.9c.1-.4-.2-.9-.5-1.1-.2-.1-.3-.1-.5-.1s-.5.1-.7.3l-1.8 1.5c-3.2 2.7-6.4 5.5-9.8 7.8-.7.9-1.5 1.9-2.3 2.7-3.1 3.5-6.5 6.7-9.9 9.9.2-.1.5-.3.7-.4.5-.3.9-.6 1.1-.7 6.9-3.9 14.1-6.6 22.1-8.6.4-.1.7-.5.7-1 .1-3.6.4-7.1.9-10.3z"/><path d="M726.9 482c-6.2 13.9-15.6 34.9-30.3 41.5-.1.1-.3.1-.4.1-.3 0-.6-.2-.8-.4-.3-.4-.3-.9 0-1.3 10.5-12.3 18.2-28.5 24.4-41.5l.2-.4c15.4-32.3 23.9-70.4 25.2-113.1.9-30.4-3.8-62.8-13.4-95.2 7.3 18.7 21.3 61.4 17.4 104.2-1.8 20.1-.4 32 3 36.9-.8 3.6-1.6 7-2.4 10.3-5 19.7-13.6 38.4-21.1 55l-1.8 3.9zm2.3-43.2c-7.4-1.7-13.7-10.8-14-34.2-.3-31.1-10.2-74.8-16.4-99 .8 4.6 1.5 9.2 2 13.7 5.9 47.8 9.8 98.6-1.6 146.2-7.5 31.6-18.7 53.9-33.2 66.4-.4.3-.5.8-.3 1.3.2.4.6.6 1 .6h.2c30.2-5.6 49.8-54.4 58.8-82.9 1.3-4.1 2.4-8.1 3.5-12.1zm-86.7-130H642.8c-1.1-5-2.2-9.6-3.1-13.4.7 4.2 1.4 8.4 2 12.5 0 .5.4.8.8.9zm14.2 119.4c1.8-40.4-7.2-89-13.9-118.9-.2.2-.3.5-.5.7-.2.2-.3.6-.3.9 3 20.1 5.1 38.3 6.2 55.6 1.4 22 .7 43.4-.1 59.6 0 .5.3.9.7 1 .1 0 .2.1.4.1s.4-.1.6-.2c-.4.7-.9 1.3-1.5 1.9-.2.2-.3.4-.3.7-.4 9-1 17.9-1.6 26.9-.9 15.1-1.9 30.6-2.3 46.1-.5 15.6-3 26.8-7.7 34.3-.2.3-.2.8 0 1.1.2.3.5.5.9.5h.1c31.9-2.6 47.6-35.3 55.3-66.7-16.5 8-38 1.8-36-43.6zm-49.4 76c.2 1.8.7 4.1 1.1 6.7 1.7 9.3 4 21.9 1.2 30.4-.1.3-.1.6.1.9.2.3.5.4.8.5 1.3.1 2.6.2 3.8.2 22.6 0 23.9-23.5 25-42.4-17.8 7.3-34.4-47.9-45.1-94.5 4.3 28.5 8 57.3 11.5 85.3l1.6 12.9zm-52.5-24c3.2 13.1 6.5 26.6 11.4 39.3 6.7 17.2 15.3 25.5 26.3 25.5.9 0 1.8-.1 2.7-.2 11.4-1.4 10.5-9.4 9.7-16.5l-.1-.8c-2.1-18.8-4.5-37.6-7-56.5-24.7 26.1-58-69.8-74.8-126 1.7 10.2 3.6 20.4 5.8 30.6 4.7 21.2 10.2 42.6 15.5 63.3 3.2 12.5 6.6 25.5 9.7 38.3l.8 3zm16.2 60.6c.4-.1.7-.3.8-.7.1-.4 0-.7-.2-1-8.1-9.3-12.8-23.2-15.9-34.3-2.2-7.7-4.3-15.6-6.5-23.6-7.8 7.3-20.4 7.6-40.2-15.6-30.8-36.2-42.2-132.2-45.3-164.6-1.1 18.9-.6 38.4 2.9 58.2 1.1 6 2.4 12.4 4.2 20.1.1.5.5.8 1 .8s.9-.4 1-.9c.1-.5.2-1 .2-1.5.1 2-.3 4-1 6-.1.2-.1.4 0 .6 6.1 24.3 15 49.5 26.6 74.9.2.4.5.6.9.6s.8-.2.9-.6c.6-1.1 1.1-2.2 1.5-3.4-.3 1.6-1 3.3-2.1 4.9-.2.3-.3.7-.1 1.1l.9 2c.9 1.9 1.7 3.8 2.6 5.6l1.7 3.6c6.9 14.4 14 29.2 22.5 42.9 8.4 13.5 18.5 25.9 35 25.9 2.8-.1 5.7-.4 8.6-1zm-92.5-63.6c.1 0 .1 0 0 0 .5 0 .9-.3 1-.7 0-.1.1-.3.1-.4-.2.9-.4 1.8-.8 2.7-.1.3-.1.5 0 .8 11.2 24.3 29.1 56.7 55.7 57.1.4 0 .8-.3 1-.6.2-.4.1-.9-.2-1.2-8.9-8.9-15.9-21.7-21.8-33-9.2-17.6-18.7-36.9-27.2-57.3 0 15-3.1 25.3-16.1 4.8-12-18.8-26.6-73.9-33.8-102.9 5.9 37.8 16.3 73.8 31.1 107.1 1.2 2.7 2.5 5.7 3.9 8.9 1.9 4.3 3.9 9.1 6.1 14 .2.4.6.7 1 .7zM413 352.6c7.2 37.8 18.9 71.7 34.6 100.8 2 3.7 4.2 8.1 6.5 12.7 10.1 20.4 24 48.4 43.7 57.7.1.1.3.1.5.1.3 0 .6-.1.8-.4.3-.4.3-.9 0-1.3-6.4-7.8-11.8-17-16.6-26-45.4-38.3-68.4-159.5-74.3-195.3-.1 16.9 1.5 34.2 4.8 51.7z" style="fill:#fab301"/><path d="M748.9 648.1c0-.4-.2-.7-.5-.9-.2-.1-.4-.2-.6-.2-.2 0-.3 0-.4.1-14.7 6.8-32 10.4-47 13.2-32.5 6.2-66.7 9.3-101.7 9.3-23.5 0-47.4-1.4-71-4.2-23.6-2.8-48.6-6.6-71.4-15.3-2.9-1.1-5.9-2.3-9-3.6-.1-.1-.3-.1-.4-.1-.2 0-.4.1-.6.2-.3.2-.5.5-.5.9v16.6c3.8 1 7.6 1.9 11.5 2.8 12.2 2.9 24.5 5.7 36.8 8.3 24.4 5 49.3 8.1 74.1 10.1 48.1 3.9 97 1.7 144.3-7.8 12.2-2.5 24.4-5.5 36.3-9.1.1-6.9 0-13.6.1-20.3z" style="fill:#e23f58"/><path class="st8" d="M772.2 605.9c-7.6 7.9-16.1 14.9-25.5 20.7-11.1 6.8-23.2 11.7-35.9 14.7-16.6 3.8-33.8 4.6-50.6 6.1-65 5.5-133 9.4-195.3-13.8-13.3-4.9-27.3-12.6-32.3-26.8-3.1-9-3.9-18.6-6.7-27.6-1.4-4.5-2.4-9.2-3.6-13.8v27.8c0 15.5 0 26.5 7.9 35.6.5.6 1.1 1.2 1.6 1.7.4.4.8.8 1.3 1.2.3.2.5.5.8.7 2.5 2.1 5.6 4.2 9.4 6.2 42.8 22.3 98.5 25.3 147.4 25.3h8.4c49-.3 110.1-.6 154-26.3 15.1-8.9 18.5-19 19.1-31.7z"/><path class="st9" d="m759.1 547.1-1.3 1.3c-11.4 9.4-31.3 11-47.2 12.3-2.6.2-5.1.4-7.4.6-28.9 2.8-58.4 4.4-87.5 4.7-6.4.1-12.8.1-19.1.1-29.2 0-55.3-.9-79.9-2.7l-7-.5c-22.3-1.6-45.5-3.2-66.2-11-2.8-1-6.7-3.5-8.9-6.5.4 11.7 15.2 14.5 24 16.6 28.4 6.5 57.9 9.3 87 11.4 57.7 4.1 115.8 2.8 173.3-3.5 12.4-1.4 30-1.1 37.5-13.2 1.5-2.8 2.4-6.2 2.7-9.6zM754.1 533.4c-1.1-.8-2.3-1.4-3.8-1.8 1.4.6 2.7 1.2 3.8 1.8z"/><path d="M747.5 733.3c0-.1 0-.2.1-.3-6.5 4.9-13.4 9.3-20.9 12.7-11.6 5.4-24.3 8.1-36.9 10.3-13.4 2.3-26.8 4.2-40.3 6.1-28.2 3.9-56.7 6.7-85.1 5.8-26-.8-52.8-4.3-76.9-14.5-12.1-5.1-23.8-12.2-33.5-21.1-3.1-2.8-6.1-5.9-8.9-9.1.3 4.5 1.1 8.8 3 12.4 5.5 10.5 16.4 18.9 33.5 25.5 30.6 11.9 67.8 17.7 113.5 17.7h2.2c38.5-.1 82.9-2.6 119.6-19.3 13-5.8 26.8-13.5 30.6-26.2z" style="fill:#ff9a83"/><path d="M752.3 279.1c-24.9-76.2-76.5-130.8-89.3-143.5.5-3.1.7-6.8.5-11.4 0-.4.2-.8.6-1 .1-.1.3-.1.4-.1.3 0 .5.1.8.3 41.7 42 72.8 97.9 87 155.7zm-12.6 71.1c-.7-15.7-2.9-32.4-6.5-49.5-.1-.3-.3-.6-.6-.7-2.6-1.2-4.7-3.3-6-5.8 1.3 1.3 2.7 2.5 4.1 3.6.2.2.4.2.7.2.2 0 .4-.1.6-.2.4-.2.6-.7.5-1.1-11.9-53.6-37.4-107.8-71.6-152.5-.2-.2-.5-.4-.8-.4h-.1c-.3 0-.6.1-.8.3-.7.7-1.3 1.2-2 1.6-1.4.8-3 1.2-4.7 1.2-2.1 0-4.3-.6-6.5-1.6 10.2 11.8 42.6 50.8 52.1 78.1 11.3 32.6 28.3 71.3 33 106.7 3.3 25.1 5.3 54.3 6.1 69.3 2.5-16.6 3.3-33.1 2.5-49.2zm-46.3-46.6c-3.8-21.8-10.3-44.8-19.2-68.7-.1-.2-.2-.4-.5-.5-.7-.4-1.5-.9-2.2-1.5.1 0 .2.1.3.1.2 0 .5-.1.7-.2.4-.3.5-.8.3-1.2-2.2-5.8-4.1-10.5-6-15-14.5-34.5-33.6-73-65.7-97-.2-.1-.4-.2-.6-.2-.2 0-.3 0-.5.1-2 1-3.9 1.7-5.8 2.3 8.2 7.3 35.1 33 50.6 69.3 18.4 43.2 49.4 124.8 55.9 207.9.6-32.3-1.9-64.3-7.3-95.4zm-56.6 13.1c-3.6-24.7-7.4-50.3-12.6-75.9-.1-.4-.4-.7-.7-.8-1.1-.4-2.4-1.1-3.5-2.1-.7-.6-1.3-1.4-1.9-2.2.6.6 1.2 1.1 1.8 1.7.6.5 1.3.9 2 1.3.2.1.3.1.5.1s.4-.1.6-.2c.3-.2.5-.7.4-1.1-9.7-47.5-22.1-83.3-39.1-112.8-.2-.3-.5-.5-.9-.5h-.2c-2.4.4-4.4.6-6.2.6h-.8c5.5 12.4 17.6 41 24.6 66.3 9.2 33.3 29 135.2 34.7 168.5 4 23.5 6.6 54 7.8 69.9 1.2-36.7-.8-73-6.4-110.7l-.1-2.1zm-80.4-59.1c5.7 43.2 21.9 126 34.7 170.6.5 1.8 1 3.1 1.4 4.1-2.9-20.5-5.9-40.9-8.8-61l-3.1-20.8c0-.2-.1-.4-.3-.5-1.7-1.9-2.6-4.6-3.1-6.8.1.2.2.4.3.5.2.3.5.5.9.5.1 0 .2 0 .4-.1.5-.2.8-.7.7-1.2-8.1-55.5-17.2-120.2-22.4-184.6 0-.5-.4-.9-.9-1h-.2c-.4 0-.8.2-.9.6-1.9 3.8-4 6.9-6.2 9.4 1.2 22.3 3.7 61.1 7.5 90.3zm-37.5-90.7c.1-.3 0-.6-.2-.8-1.2-1.7-2.2-3.7-3.2-5.8-3.9 12.3-12.1 41.7-14.3 73.9-2.2 33.3 6.4 94 23.6 147.6-16.3-75.6-18.4-147.9-5.9-214.9zm-9.6-30.4c.1-.2.2-.3.4-.4.2-.2.3-.5.3-.8l-.1-1.4c0-.4-.3-.8-.7-.9-.1-.1-.3-.1-.4-.1-.3 0-.5.1-.7.3-3.5 3.3-7.2 6.8-10.9 10.6-10.3 16.4-25.4 43.4-32.1 69.3-9.2 35.7-18.7 99.5-.8 161.7-16.9-83.7.5-176.7 45-238.3zm-8.6-6.2c-.1 0-.2 0-.4.1-3.8 1.4-7.3 3.1-10.6 5-.6.4-1.3.8-2.1 1.3-2 1.3-4.4 2.7-6.8 3.5-11.4 14.7-31 41.4-37 56.7-7.6 19.7-28.9 60-15.8 123.4-2.8-35.7.5-65.4 9.9-93.2 11.8-34.7 31.4-64 63.4-94.8.4-.3.4-.9.2-1.3-.1-.5-.4-.7-.8-.7z" style="fill:#fbf686"/><path class="st9" d="M457.7 584.7c21 16.2 49.8 19.2 75.4 21.6 29.2 2.7 57.1 1 85.8-4.8 1.2-.2.8-2-.3-2.1-26.3-1.8-52.6-1.8-78.9-3.3-27.8-1.5-54.3-9.9-81.7-12.3-.6 0-.6.6-.3.9zM629.2 601c3 3 7.3 2.6 11.3 2.3 5.4-.3 10-1.7 14.7-4.6.7-.4.6-1.5-.2-1.7-4.6-1.3-8.9-1.5-13.6-.8-4.1.6-9 .5-12.1 3.6-.4.4-.4.9-.1 1.2z"/><path class="st12" d="M509.3 532.5c-.2-.1-.4-.2-.6-.2-6.5-.6-12.3-2.6-17.9-6.1-.2-.1-.4-.2-.6-.2-.2 0-.3 0-.5.1-.3.1-.5.2-.8.3l-1 .1c-10.5 1.4-21.4 2.9-31.6 5.9-4.6 1.4-15.3 5.1-15.3 9.9 0 2.4 2.6 4.4 7.9 6 3.9 1.1 7.7 2.1 11.6 3 18.8-6.5 38.4-10.4 58.4-12.7-3.2-1.6-6.4-3.6-9.6-6.1zM755 541.7c.2-2-1.5-3.8-5.3-5.4-13.9-6-29.3-8-44.6-10.1-.2 0-.4-.1-.8-.3-.1-.1-.3-.1-.4-.1-.2 0-.4.1-.6.2-5 3.2-10.3 4.8-15.8 4.8h-.7c-.1 0-.3-.1-.4-.1h-.1c-.2 0-.5.1-.6.2-4.6 3.5-9.4 6-14.4 7.4 8.6.5 17.3 1 25.9 1.7 15.7 1.2 30.1 4.9 44 9.4 9.2-2.4 13.6-4.8 13.8-7.7z"/><path class="st8" d="M545.1 53.3c-2.9 2-5.2 4.4-6.6 7.6-.1.3-.1.6 0 .9.1.3.4.5.7.6 2.5.7 5.1 1.7 7.6 2.9.1.1.3.1.4.1.1 0 .2 0 .4-.1 3.1-1.1 6.3-1.6 10.6-1.6 1.8 0 3.6.1 5.4.2 1.8.1 3.6.2 5.5.2 3.8 0 8.8-.3 13.9-2.9 3.2-1.6 7.1-3.3 10.8-3.3 1 0 2 .1 3 .3h.2c.3 0 .6-.1.8-.4 1.2-1.6 3.3-3.1 6.1-4.4.3-.1.5-.4.6-.7.1-.3 0-.6-.2-.9-1.7-2.3-4.7-3.9-8.9-5-8.6 4.2-17.4 7.6-27 8.9-5.6.7-15.4.5-23.3-2.4z"/><path class="st13" d="M778 535.5c-3.7-21.2-36.7-26.4-55.3-29.2 7-11.2 12.4-24.4 16.9-35.6 1.8.1 3.9-.5 5.4-.8 1.9-.4 4.6-1.2 5.4-3.3.1-.3-.2-.6-.5-.5-2 .5-4 1.1-6 1.6-1 .2-2.1.3-3.2.4 1.6-4.1 3.1-7.9 4.5-11.1 5.1-12.1 9.2-24.7 12.3-37.4 2.9-.7 5.6-2.3 7.2-4.5.2-.3-.1-.7-.5-.6-1.8.7-3.5 1.4-5.3 2.2-.3.1-.5.2-.8.3 6.9-29.6 8.9-60.5 7.6-90.8-.4-8.5-1.2-17-2.5-25.4 0 0 .1 0 .1-.1.2-.3.6-.3.8-.6.4-.7.8-1.3 1.2-2 1.1-1.7 2-3.1 2.5-5.1.1-.3-.3-.7-.6-.4-1.5 1.1-2.4 2.2-3.4 3.9-.3.5-.7 1.1-1 1.6-.2-1.4-.5-2.8-.7-4.2 2-3.1 3.2-6.9 2.9-10.3 0-.4-.5-.5-.7-.2-1.1 2.1-2 4.3-2.9 6.6-7.3-39-23.2-77.6-44.8-112 1.2-3.8.6-8.5-.2-12.2-.1-.4-.6-.4-.7 0-.6 2.6-1.1 5.6-1.4 8.6-14.7-22.8-31.8-43.7-50.6-61.5-.2-.2-.3-.2-.5-.3-1.3-6.4-4-12.6-7.4-18.3l3.6 2.4c5 4.1 17.9 13.2 22.6 3.4 6.4-13-1.5-26.3-10.5-36-1.3-1.4-2.7-2.7-4.2-3.9-2.8-17.4-17.1-24.2-32.7-24.6-7.9-9.2-19.1-13.2-31.2-13.5-3.9-.1-7.5.8-10.7 2.3-14.3-8.9-43-8.1-55.7 4.1-2-.8-3.9-1.3-5.6-1.4-14.5-.9-31 7.1-40.2 18.2-18.1 3.7-35.1 14.2-45.8 28.9-4.9 6.8-13.1 23.5-7.6 32 7 10.8 20 2.5 30.4-1-.8 6.3-.3 13 3.7 17-2.4 4.7-3.5 11-1 15.3-6.8 6.4-13.2 13-18.9 20l-.1-.1c-1.5-1.7-2.4-3.9-3.5-5.9-.2-.3-.7-.3-.8.1-.5 2.7.5 5.3 2.2 7.4.2.2.3.4.5.6-11.5 14.3-20.8 29.6-28 45.8l-.3-1.8c-.6-2.6-.9-5.2-1.6-7.8-.1-.4-.7-.4-.8 0-.6 2.8-.7 5.7-.2 8.5.3 1.7.8 2.8 1.6 4-12.7 29.6-18.6 61.7-18.6 94.7-1.8-1.5-3.7-2.8-5.3-4.5-.2-.2-.6 0-.5.3 1.1 2.8 3 5.5 5.8 6.7.1 16.2 1.7 32.7 4.5 49.1 3.4 19.8 8.8 39.2 15.7 58.1-2.3-1.1-4.5-2.2-6.9-2.9-.3-.1-.6.4-.4.6 2.1 2 5.2 4.3 8.4 5.5 7.4 19.5 16.4 38.3 26.9 56.1 1 1.6 1.9 3.3 2.9 5.1-2.4-.6-5-.8-7.4-1.2-.3 0-.5.3-.2.5 2.3 1.5 5.5 2.5 8.4 2.1 5 9.1 10.1 19.2 16.2 28.3-25.4 4.3-54.7 10.6-54.6 40.9.1 17.7-.1 35.4-.1 53.1 0 8.6-.8 16.7 3 24.6 4 8.3 11.9 14.2 20.4 18.7 0 21.4 0 42.7-.1 64.1 0 9.5-1.2 19.6 2.2 28.6 4.7 12.5 17 20.6 28.3 26.4 38 19.4 85.7 22.2 127.5 22.4 41.7.2 86.9-3.8 125.3-21.3 12.2-5.6 24.5-14 30.1-26.6 3.3-7.4 2.5-15.5 2.6-23.5 0-23.3-.1-46.6-.1-69.9 13.5-7.9 23.4-19.2 23.5-36.2.3-23.4 3.5-49.5-.5-72.6zm-22.7-237.2c7.3 40.7 3.6 84.6-6.5 124.4-4.9 19.1-12.9 37-21.1 54.8-6.1 13.4-15.8 37.9-31.5 44.9 10.7-12.5 18.6-29.2 24.8-42.2 16.8-35.2 24.1-74.7 25.3-113.5 2.5-80.1-34-166.7-82.6-229.3 1-4.2 1-9.1.8-13.3 46 46.4 79.3 110.3 90.8 174.2zm-50.3 229c14.8 2 30.4 4 44.3 10 15.5 6.7-11.7 12.2-17.2 13.4-37.5 8.2-78.1 8.2-116.4 8.9-37.3.7-74.6-.6-111.8-3.6-18.4-1.5-36.8-3.5-54.5-8.7-16.7-4.9 0-11.6 7.4-13.8 10.5-3.1 21.7-4.6 32.4-6 .4-.1.8-.2 1.1-.4 5.4 3.4 11.4 5.7 18.4 6.3 9.3 7.4 20.5 11.4 34.3 9 9.1 5.8 20.1 7.8 34.1 3.5.1 0 .1-.1.2-.1 5.9 4.1 13.2 6.2 22.5 5 2.5-.3 4.5-1.1 6.1-2.3 10.7 1.9 18.5.3 24.3-3.6.3.1.5.2.8.2 9.4.4 17.6-1.4 24.7-5 .4.2.8.4 1.3.4 11.5 1.5 21.2-2.2 29.4-8.5h.2c6.4.2 12.1-1.7 17.3-5 .4.1.7.3 1.1.3zm-224.3-57.1c-.1-.4-.7-.3-.7.1-.2 2-.8 3.9-1.4 5.8-3.9-8.6-7.1-16.6-10-22.9-16.6-37.3-27.4-77.3-32.6-117.8l-.6-5.4c1.9-2.9 3.1-6.7 3.1-9.7 0-.4-.6-.5-.7-.1-.8 2.2-1.7 4.3-2.7 6.4-3.5-35.6-.2-69.9 11.4-104.2 12-35.4 35.6-63.3 62.5-88.4 0 .5 0 .9.1 1.4l-.5.5c-48.6 67.3-61.7 164-44.2 243.9 9.4 43 28.3 83.7 48.5 122.5 6.4 12.3 13.2 24.5 22 33.3-25.3-.4-42.7-30.2-54.8-56.5.8-2.9 1.4-6 .6-8.9zm28-349c-7.9 1.9-15.1 4.7-22.2 8.7-1.4.8-8.3 5.9-9.3 3.6-1.1-2.5 0-5.6 1.3-8 12 2.5 22.1-7 31.1-14.7-.4 3.1-.7 6.6-.9 10.4zm36.5-49.7c.3.2.6.4.9.5.8.5 1.6 1 2.3 1.6-14.9-4.1-37.4 3.2-41.9 16.3-.1.2.2.3.3.2C515.3 85.8 521.1 80 531 78c6.1-1.2 11.9-1.3 17.7 1.2 2.8 1.2 4.8 3.3 6.7 5.6 1.2 3 2.2 6 3.4 8.6.6 1.3 1.2 2.4 1.9 3.5-8.4 8.5-18.2-.3-28-2.7-7.7-1.9-15.6 2-21.8 6.1-5.9 4.4-11.3 9.3-17.2 13.6-4.9 3.5-17.3 10.5-18.6-4.6-.5-6 2.9-12.6 5.5-17.7 11.9-23.4 41.7-31.6 64.6-20.1zm30.9-25c6.2-.3 22.4-.8 27.4 5.8-2.7 1.3-5.1 2.9-6.5 4.8-4.9-1.2-9.5.5-14.5 3-12 6-23.3-.2-35.2 4.1-2.5-1.2-5.1-2.2-7.8-2.9 5.4-12.1 25.5-14.2 36.6-14.8zm83.9 98.3c33 43.2 59.2 97.2 71.4 152.1-2.1-1.7-4.2-3.5-6-5.7-.3-.4-1 0-.9.5 1.1 4 4 7.4 7.7 9.2 3.5 16.5 5.7 33 6.5 49.3 1.5 33.9-3.8 68-14 100.3-8 25.3-27.3 76.4-58 82.2 18.3-15.7 28-43.7 33.6-66.9 11.3-47.6 7.5-98.6 1.6-146.6-4.4-36-15.1-70.6-28.8-104.2-14.7-36.2-34.4-73.6-65.4-98.4 2-1.1 3.9-2.3 5.8-3.4 6.2 7 11.4 15.5 16.9 21.3 5.6 5.9 18.2 17.4 27.3 12.1.9-.5 1.6-1.1 2.3-1.8zM528.5 515.3c-9.2-14.7-16.7-30.7-24.2-46.4-1.2-2.5-2.4-5.1-3.5-7.6 2.2-3 3.2-6.9 1.7-10.5-.2-.4-.7-.2-.7.2.1 2.9-.9 5.3-2.1 7.7-11-24.2-20.1-49.1-26.5-74.7 1.4-3.5 1.6-7.4.2-10.9-.2-.4-.7-.4-.7.1-.1 2-.3 3.8-.6 5.7-1.6-6.6-3-13.3-4.2-20-7.4-42.2-1.7-84.5 7.2-125.9 6.8-31.4 17.6-59.9 35.4-86.5 1.4 7.8 3.8 15 7.6 20.3-13.8 74.5-9 151.2 8 224.8.9 4.1 1.9 8.2 2.9 12.4-1.4-1.5-2.7-3-3.9-4.7-.3-.4-.9-.2-.7.3.8 3.3 2.8 7 5.7 9.1 7.6 32.2 15.8 64.6 24.8 96.4 3.5 12.3 8.1 25.6 16.1 34.7-20.5 4.3-31.8-7.4-42.5-24.5zm11.3-367.6c.1.3.6.4.7 0 2.5-14.4 1.7-28.7 13.4-39 4.6-.1 8.4-2.5 11.6-5.8.6.6 1.2 1.2 1.9 1.7-10.7 16.1-11.3 38.1-21.6 54.9-10.8 17.8-23.7.5-27.1-12.9-3.3-12.8-4-29.3 0-42.1 6.8-3.4 12.8-3.6 20.8-.1 3.1 1.3 6.1 2.7 9.3 3.5-8.7 10.8-13.2 26.8-9 39.8zm30.3-76.4c.9 0 1.8 0 2.7-.1.3.1.5.2.8.3 4.5 2.3 8 6.2 12.4 8.7.4.3 1.1-.2.9-.7-1.6-4.3-4.6-7.4-8.3-9.7 2.6-.9 5.2-2.1 7.6-3.3 21.7-10.9 15.5 19.8 10.7 29.4-8.3 16.6-25.9 5.8-31.8-6.4-3.1-6.4-5.1-13.9-9.7-19.4 4.9-.1 9.6 1 14.7 1.2zm-2.9 447.8c-5.3-13.6-8.7-27.9-12.1-42.1-8.3-33.9-17.7-67.5-25.2-101.6-8.5-38.5-12.9-78.4-12.9-118.1.8-1.7 1.4-3.5 1.8-5.4.1-.5-.6-.9-.9-.4-.3.5-.6 1-.8 1.5.3-26.9 2.6-53.7 7.3-80.1 2.8 1.7 6 2.6 9.7 2.5 10.5-.2 17.2-7.3 22-16.9 5 61.9 13.5 123.3 22.5 184.6-.6-1.1-1.2-2.1-1.8-3.2-.2-.5-1.1-.3-1 .3.4 3.3 1.5 7.7 3.9 10.5 8.6 58.9 17.6 117.8 24.2 177 .8 7.6 2 14.8-8.7 16.1-15.4 1.9-23.5-13.4-28-24.7zm41.2-15.1c-5.1-40-10-79.9-16.5-119.7-13-79.9-23.8-160.1-29.6-240.9 0-.3-.2-.6-.2-.9 1.8-6 3.5-12.2 5.1-17.9 2.5.2 5.2.8 7.6 1 2.9.3 5.9 0 8.8-.5 19.3 33.7 30.8 72.9 38.9 112.5-.7-.4-1.3-.8-1.9-1.2-1.6-1.3-2.9-2.8-4.3-4.4-.3-.3-.8 0-.7.4.5 2.3 1.9 4.5 3.7 6.1 1 .9 2.4 1.8 3.9 2.3 5.3 26.3 9.1 52.8 12.8 77.9 5.9 39.8 8 78.8 6.1 119-.9 17.8-1.6 35.6-3.3 53.3-1.9 20.2 1.1 53.5-28.2 50.4 3.8-10.9-1.2-29.2-2.2-37.4zm36.8-1.4c.7-24.5 2.7-48.7 3.9-72.9 1.8-1.7 2.9-4.1 2.8-6.6 0-.3-.5-.5-.6-.2-.6 1.2-1.3 2.3-2 3.3.9-19.8 1.3-39.6.1-59.7-1.2-18.5-3.4-37.1-6.2-55.7 2.4-2.7 3.9-6.2 3.1-9.8-.1-.4-.6-.3-.7 0-.7 2.5-1.8 4.7-2.9 6.9-3.8-24.2-8.6-48.3-13.9-71.8-8.6-38-18.4-77.9-37.5-112.2 3.2-.8 6.3-2 9.3-3.4 31.4 23.6 50.5 61.2 65.3 96.6 2.1 4.9 4 9.9 6 15-1.3-.8-2.6-1.6-4-2.3-.3-.1-.8.2-.5.5 1.5 2 3.5 3.8 5.8 5.1 8.3 22.2 15 45.2 19.1 68.5 5.4 31.1 7.9 63.3 7.4 95.1-1.1-1.7-2.4-3.4-3.7-4.8-.3-.3-.7 0-.6.4.8 2.8 2.3 5.7 4.2 8.3-.2 8.1-.5 16.1-1.1 24.1-2.7 37.1-15.2 106.6-61.2 110.5 5.7-9 7.5-21.7 7.9-34.9zm-57.3-385.7c-6.5 1.8-12.2.6-18.3.3 1.1-3.1 2.3-5.9 3.6-8.2 10.7 6.4 20.9 2.6 27.5-5.8 2.6 1.1 5 2.6 7.2 4.5-6.3 3.7-12.7 7.2-20 9.2zm69 5.1c.4 5.1 0 10.3-1.2 15.2-2.1 8.7-19-7.1-20-8.1-10.5-10-17.5-25.9-31-32.4.1-.3.3-.5.4-.8.9-2.1 1.8-4.4 2.6-7 .9-.5 1.7-.9 2.6-1.3 8.9 2.4 16.4 6.3 22.8 13.1 3.2 3.4 5.8 7.2 8 11.3 1.8 3.3 2.2 7.1 4.1 10.3.1.2.4.2.5 0 3.3-7.1-4.3-17.6-8.5-22.8-5.1-6.3-11.2-11.1-18.3-14.3 7.3-1.2 14.9-.4 22.2 2 9.1 9.5 14.7 21.8 15.8 34.8zm15-45.8c6.8 9 5.6 26-7.7 14.8-.1-.1-.2-.1-.3-.2-.1-.1-.3-.3-.5-.4-15.1-11.1-36-16.8-53.9-10.3.4-3.4.3-6.7-.4-9.9 17.3-5.3 35.1-2.4 51.8 4.7.4.2.7-.4.4-.7-12.3-14.5-36.9-14.4-54-8.9-1-1.8-2.2-3.5-3.9-4.9 2.6-1.9 14.4-4.8 16.3-5.2 9.1-2 18.3-.6 27 2 10.2 3 19.1 10.8 25.2 19zm-15-22.8c-10.7-5.3-23-7.2-34.8-6.2-2.4.2-6.9 1-11.5 2.4-.3-.6-.6-1.1-1-1.6 6.5-3 14.8-5.1 22.8-5.2h.3c9.9-.1 19.3 2.8 24.2 10.6zm-50.3-23.8c6.5.2 12.7 2.7 17.8 6.6-7.7 1.1-15.2 3.5-21.1 6.8-1.5-.8-3.1-1.4-4.8-1.9.7-.5 1.5-1 2.2-1.4 2.1-1.3 4.2-2.2 5.8-3.9.2-.2 0-.6-.2-.6-4.3-.4-8.9 2.4-12.4 4.9-2.6-.4-5.2-.7-7.8-.8 5.2-6.3 11.4-10 20.5-9.7zm-21.1-.6c-3.4 2.9-6.3 6.4-8.7 10h-.7c-2.8 0-5.9.2-9.1.6-1.8-3.8-4-7.3-7.3-10-2.8-2.3-6.8 1.7-4 4 2.4 1.9 4.1 4.3 5.5 7-2.8.6-5.7 1.3-8.5 2.2-1.4-3.9-4.7-7.7-8.7-10.6 10.2-7.4 29.8-8 41.5-3.2zm-66 6.9c6.1-2.1 12-2.3 17.7.7 2.1 1.1 7.4 5.9 8.5 9.1-1.4.7-2.7 1.5-4 2.3-4.9-3.5-11.9-7.4-17.6-5.9-.2.1-.2.3-.1.4 2.5 1.8 5.8 2.6 8.6 4 2.1 1 4.2 2.3 6.1 3.7-.9.8-1.8 1.6-2.5 2.5-10-6.4-21.3-9.2-32.6-9 4.8-3.4 10.3-5.8 15.9-7.8zM444 98.3c-.4-12.1 9.9-24.2 17.9-31.8 8-7.7 19.5-12.6 31.5-14.3.4 0 .8 0 1.2-.1 13.3-1.6 27.1.6 37.7 7-.1.2-.1.4-.2.6-12.1-1.8-24.5.3-35.2 5.9-4.9.4-10.1 2.5-14.1 4-6.1 2.2-12.5 5.6-16.4 11-.3.4.2.7.6.6 6.5-2.7 12-6.8 18.8-9 .6-.2 1.3-.4 2-.6-7.5 6-13.5 13.9-17.1 23.6l-.6 1.8c-5.9 1.4-25.8 10.7-26.1 1.3zm4.6 354.6c-16.9-31.3-27.9-65.7-34.5-100.5-14.8-77.3 4.2-156.5 63.2-210.8 4.5.5 9.4-3.3 12.9-5.3 3.4-2 6.9-3.5 10.5-4.9-28.5 27.4-50.7 56.9-63.7 95.2-14.3 42.2-12.7 85.7-5.6 129.1 7.5 45.9 23.9 90.1 45.1 131.3 6.1 11.8 13 25.2 21.8 35.9-23.6-11.1-38.6-49.5-49.7-70zm299.2 242.5c0 12 2.2 26-1.3 37.6-3.9 12.9-18.7 20.5-30 25.6-36.3 16.6-79.9 19.1-119.2 19.2-38.6.1-79.1-3.5-115.3-17.6-12.7-5-26.4-12.4-33-25-5-9.5-2.2-23.4-2.2-33.6 0-18.1.1-36.2.1-54.3 3.1 1.3 6.1 2.5 9 3.6 22.8 8.7 47.5 12.5 71.7 15.3 57 6.8 116.5 5.6 173-5.1 13.9-2.6 32-6.3 47.2-13.3v47.6zm4.9-58.8c-43.4 25.4-104.8 25.9-153.5 26.2-50.2.3-109.7-1.4-155.3-25.1-20.9-10.9-20.5-23.9-20.4-45.6 0-16.7.2-33.4 0-50.1-.2-21.9 35.5-26 52-28.6 2.1 2.7 4.4 5.2 6.8 7.5-16.5 2-35.9 4.2-48 15.1-7.5 6.8 2.8 14.7 8.6 16.9 23.1 8.7 49.2 9.8 73.6 11.6 33 2.5 66.1 3 99.2 2.6 29.2-.4 58.5-1.9 87.6-4.7 16.5-1.6 41.6-2 55.2-13.2 19.7-16.3-28.4-25.5-46.9-28.3 2.3-2.3 4.5-4.9 6.6-7.7 17.1 2.6 46.7 5.7 52.7 24.4 4.4 14 .4 35.2.5 49.8-.1 22.5 2.2 36.9-18.7 49.2z"/><path class="st13" d="M597.3 655.4c-27.5-2.8-55.2-3.4-82.6-7.3-24.6-3.5-53.7-9.5-74.1-24.2-.2-.2-.5.2-.3.4 8.2 8.7 20 12.8 31 16.6 13 4.5 26.1 8.1 39.7 10.5 28.1 5 57.9 7.7 86.4 5 .6-.1.5-.9-.1-1zM608.2 654.6c-1.9.2-3.9.2-5.9.4-.2 0-.4.3-.2.5 2.9 2.6 8.9 1.5 12.1.1.3-.1.3-.5 0-.7-1.9-.7-3.9-.6-6-.3zM688.2 758.2c-17.9 3.5-36.9 4.8-55.1 6.3-20.8 1.7-42.3 3.4-63.1 2-.2 0-.2.3 0 .3 21 3.2 42 2.8 63.2 1.4 18.7-1.3 37.5-2.9 55.3-9.2.5-.1.3-.9-.3-.8z"/></svg>