<svg version="1.1" id="e37c00f5-ff96-45aa-87ea-1a24b78ba7bd" xmlns="http://www.w3.org/2000/svg" x="0" y="0" viewBox="0 0 1176.6 803.7" style="enable-background:new 0 0 1176.6 803.7" xml:space="preserve"><style>.st0{fill:#68182b}.st1{fill:#ff5671}.st2{fill:#acff1d}.st5{fill:#8bfcfc}.st8{fill:#98b718}.st9{fill:#cfff73}.st10{fill:#e23f58}</style><path class="st0" d="M721.1 564.1c-2.3-.8-2.9-1.7-1.8-4.7 2.7-7 5.2-14.1 7.8-21.1 17.1-46.8 30-95.2 39-144.2 8.3-45.3 11.9-91.2 9.2-137.3-2.1-35.6-6.3-76.6-40.6-95.8 5.8-6.6 10.5-13.9 13.3-19 5.4-9.9 20.4-35.8 2.5-41.8-4.6-1.5-9.2.6-13.5 4.2.4-2.3.7-4.5 1-6.7.8-5.9 1-12.8-3.9-17.1-8.6-7.6-16.4-1.4-21.6 9.2-1.5-2.7-3.5-4.7-6.2-5.5-6.4-1.7-10.5 1.8-13.1 7.8-4.2-6.8-10.4-13.4-17.8-12.5-11 1.4-11.9 13.4-9.9 22.9-10-.4-12.5 11.1-10.6 21.2 3.4 17.3 14.7 31 27.7 42.2-21.9 17.1-33.9 44.7-37.3 72-3.8-4-8.1-7.5-12.8-10.4 2.7-3.3 4.9-7.1 6.7-10.6 4.3-8.6 11-24.5 6.8-34.2-5.5-12.7-14.1-7.6-22 2.5.2-11.7-2.5-25.9-13.2-28.1-10-2.1-15.4 10.9-17.1 20.3-6.4-1.7-14 2.2-16.5 9.3-4.4 12.6-1.3 26.6 5.5 38.2-4.5 2.1-8.5 4.5-12.1 7.2-.6-31.1-8.7-62.3-20.5-90.9-9.9-24-24.8-49.9-49.2-61.4 2.4-3 4.6-5.9 6.6-8.6 7.7-10.2 18.6-23.8 18.9-37.3.3-14.5-15.6-10.3-23.1-5.2-4.1 2.8-8 6.2-11.6 10.1-.2-2.4-.4-4.8-.7-7.1-.7-5.6-2-11.5-6.7-15-5.3-4-12.3 2-15.3 6-3.1 4-5.5 8.9-6.8 13.9-1.5-2.7-3.3-5.3-5.2-7.5-8.6-9.7-18.4-6-19.6 7-1.8 18.5 5.9 35.6 16.9 49.9-34.5 25.9-45.2 71.4-50.2 112.2-6.4 52.1-3.4 107.4 2.3 159.4 5.8 52.5 18.1 104 35 154 6 17.6 12.7 35 19.9 52.2-13.7 4.2-34.4 13.5-42.3 26.4-4.5 7.4-2.3 15.2-.7 24.7 4.4 26.5 8.2 53.1 12.2 79.6 3 19.8 4 45.6 18.5 61.1 15.1 16.1 38.1 21.4 59 25.6 26.6 5.4 54.1 7 81.2 7.2 27.3.2 54.8-1.9 81.7-6.6 20.5-3.6 42.9-8.9 59.1-22.7 16.6-14.1 18.1-40.4 21.2-60.4 4.6-29.7 8.8-59.5 13.7-89.2 11.7-21.3-25.2-39.3-43.8-45.4z"/><path class="st1" d="M444.6 48.6c.9 4.3 1.9 8.7 3.5 12.8 4.4 10.8 10.8 19.9 18.7 28.4 5.9 5.3 3-7.8 2.5-10.3-1-4.8-2.1-9.6-3.6-14.3-3.3-10.6-7.1-25.5-15.7-33.2-7.3-6.5-5.9 14-5.4 16.6zM694.1 166.1c6.1 4.1 9.2 2.4 5.9-5.6-3.4-8.1-8-15.2-12.2-22.8-2.8-5.1-6.4-14.7-11.4-21.2-1.2-1.6-3.4-4.3-6-5.9-.4-.1-.9-.3-1.4-.7-2-.9-4.2-1-6.3.8-5.1 4.4 2.1 21.8 4 25.5 6 12 16.8 21.7 27.4 29.9zM677.1 86.6c-7.9-1.3-5.4 12-3.6 18.3 6.3 3.6 10.9 11.1 14.3 17.4 1 1.9 1.4 2.3 1.4-.5-.1-5.3.1-11 .7-16.3.3-2.8.2-4.2-1-6.6-2.4-4.9-6.9-11.5-11.8-12.3zM716 101c.6 3.3.9 6.3 1.2 8.5.7 5.1.9 10.2.7 15.3-.1 2.9.3 3.6 1.8 1.4.7-1 4.1-6.2 5.5-8.2 3.2-5.4 4.4-12.2 5.3-18.4.6-3.9 2.1-9.9-.7-13.4-5.5-7-12.4 10.5-13.8 14.8zM698.8 99.5c-.9 4.5-1.7 9-2.1 13.5-.8 8.9-.8 17.6.9 26.5 2.1 3.5 4.1 7.1 5.8 10.7 1.5 3.1 2.3 2.3 3.3-.1.4-1.1 2.1-7.8 2.4-9.6 2.4-14.5 3.2-30.4-2-44.2-2.8-7.7-7.3-2-8.3 3.2zM468.1 44.2c-.3 3.7 0 5.1 1.5 9.2.3 1 2.3 6.8 3 8.8 1.2 3.5 2.2 3.4 3.5.6 2-4.4 4.3-8.7 7-12.8.5-.8 2-5.2 2.1-6.7.4-6.5-.6-15.2-3.5-19.5-2.7-4.1-8.5 5.3-9.6 7.5-2.2 4-3.7 8.4-4 12.9zM712.1 168.6c7.7-1.8 17-12.8 21.1-17.5 4.7-5.5 8.3-11.5 11.2-18.1 1.7-3.7 13-26.5 4-26-3.7.2-7 3.3-9.4 5.8-4.6 4.8-14.1 17.2-20.4 28.1-1.3 2.3-7.5 14.8-9.1 23.9-.4 2.2-.5 4.5 2.6 3.8zM600.3 182.2c.2.2.3.5.5.7 4.8 8.2 4.5 18 6.8 27 .7 2.7 1.3 1 2.1-.8 1.5-3.1 3.3-6.5 5.2-10 .5-.9 1-4.2 1.2-5.1 1.2-6.1 2.1-28.2-6.2-29.9-6.3-1.3-9.5 13.6-9.6 18.1zM611.8 222.4c.9 2.7 1.5 5.4 1.7 7.9 14.7.6 24.9-23.4 26.2-37.5.8-9.1-6.2-10.3-9.3-5.8-1.4 1.5-2.6 3.2-3.6 5-1.8 2.7-12.6 22.5-15 30.4zM661.8 315.5c1.2 12.6-.2 25.5 5.1 37.2 2.6-7.4 4.3-15.1 7.5-22.3.8-1.9 2-4.3 3.4-6.6.1-4.6-.1-11-3.4-14.2-4.7-4.5-10.3 1.8-12.6 5.9zM476.6 252.7c-3.9-6.1-7.9-5.3-9.1 3-.6 4.1-.8 8.9.8 12.8 5.4 13.2 13.1 24.3 23.6 34 13.2 10.6 6.2-6 3.7-11.6-.2-.4-.4-.9-.6-1.3-1.6-3.6-8.9-19.3-10.7-22.9-2.3-4.7-4.8-9.5-7.7-14zM690 325.8c-5.7-5-10.2 10.2-11.1 12.8-2.8 8.7-5 17.4-9.2 25.6-1.1 2.2-4.7 8.1.4 6.2 2.8-1 5.1-2.6 7.3-4.7 6.6-6.5 15.9-17 16.1-27 .1-4.1-.2-10-3.5-12.9zM516.5 30.4c-7.6.7-14.6 8.1-19.3 13.6-7.4 8.6-13.8 18.4-17.5 29.1-2 5.8-1.8 8.5-1.4 12.7.3 3.4.9 4 4 2.2 6.5-4 12-11.1 16.3-16.6 6.5-8.4 12.9-17.3 17.6-26.8.8-1.9 6.6-14.8.3-14.2zM584.7 187.5c-2.5 5-2.4 10.9-1.7 16.4 1.5 11.7 6.9 21.3 15.4 29.3 1.4 1.2 8.1 4.3 7.8-.5-.3-5.1-2.8-9.9-4.1-14.7-2.2-8.3-2.7-17-5.1-25.2-1.4-5.2-7.9-14-12.3-5.3zM654.1 311.7c-1.3-4.9-5.4-11.2-11.3-6.9-6.4 4.7-4.9 14.9-3.5 21.7 2.2 4.5 2.8 10 4.4 14.6 2.4 6.4 5.1 12.7 8.9 18.4.6 1 1.3 1.9 1.9 2.8 1.1 1.7 2.2 2.1 3.9 2 1.8-.1 2.9-.6 3.8-1.6 1.1-1.3.8-1.9 0-3.3-8.9-15.3-3.9-31.3-8.1-47.7zM617.9 331.6c-.8 5.6.7 11.9 3.5 16.8 5 8.9 11.9 15.6 20.4 21.2 3.7 1.9 10.9 3 6.6-3.5-2.6-4-5.2-8-7.2-12.3-2.9-6.3-4.7-12.7-6.8-19.2-.9-3.2-2.6-6.3-5.4-7.7-5.7-3-9.5-1.5-11.1 4.7zM534.4 247.5c-4.8-.9-8.2 6.6-9.7 9.8-5.2 11.1-8.2 23-11.1 34.8-2 12.4 6.3 6.7 9.2 1.2 1.7-3.1 3.3-6.3 4.7-9.6 3.5-7.8 6.9-16 8.4-24.4.5-2.2 2.3-11.1-1.5-11.8zM503.9 233.4c-13.5-2.6-9.5 28.8-7.9 39.6 2.9 6.1 5.5 12.3 7.9 18.4.6 1.6 2.2 2.5 2.8-1.2.9-4 1.9-7.9 3-11.9.3-1.3.7-4.7.7-5.2 0-6.2.1-12.4-.4-18.5-.2-3.9-.6-20.2-6.1-21.2z"/><path class="st2" d="M510.8 306.3c-1.6-1.3-3.1.2-3.8 1.9-5.7 15.2-4.6 34.7-4.9 50.5-.3 13.7-.5 27.5-.1 41.3.6 21.2 2.2 42.3 4.2 63.4 4.4 45.6 9.7 92 21.4 136.4 3.5.4 7 .7 10.5.7 1.5-20.8.1-41.9-.9-62.6-1.6-31-4-61.9-6.9-92.8-2.8-30.1-5.9-60.2-9.9-90.2-2-15.2-3.1-32-8-46.8.1-.3-1.1-1.5-1.6-1.8z"/><path class="st2" d="M551.2 599.9c4.6-56.6 4.8-113.8 1.6-170.6-2.3-42.1-5.7-88.5-29.3-124.9-2.5 2.3-4.9 3.4-7.1 3.6 4.5 14.4 5.6 30.7 7.6 45.3 4 29.8 7.1 59.8 9.9 89.7 2.9 31.6 5.4 63.2 7.1 94.9 1.1 20.7 2.5 41.8.9 62.6 1.7 0 5.9-.1 9.3-.6zM706.4 175.5c-.5-.1-.8-.3-1.2-.6-.7.5-1.5.9-2.3 1.1-5.5 23-7.5 47-9.7 70.5-2.2 23.6-4.1 47.4-4.3 71.1 12.1 2.1 13.2 19.6 10.1 29-1.7 5.3-5.2 11.8-9.6 17.5 18.1 14.7 22.3 39.7 23.4 62 .1 2.5.2 5 .3 7.4.4-4 .7-8 1.1-12 2.5-26.8 4.4-53.6 5.6-80.5 2.4-54.4 5.2-111.8-5.7-165.5-2.6.6-5.2.7-7.7 0zM523.9 599.3c-11.9-45.9-17.3-93.9-21.6-140.9-2-21.6-3.7-43.4-3.9-65.1-.1-16.1-.1-32.3.6-48.5.5-10.4.5-21.7 3.1-32.1-2.9.7-6.6.1-10.4-1.9-10.7 21.5-12.5 46.2-13.7 69.8-1.3 26.4-1.3 52.6 1.1 78.9 2.3 25.2 5.6 50.3 11.2 75 2.8 12.5 6 24.9 10 37 2.8 8.3 7.3 16.7 9.5 25.3 3.9 1.2 12 2.2 14.1 2.5zM620.6 360c-.6 9.1-1.3 18.3-2.4 27.4 3.6-6.1 7.8-11.9 12.8-17-3.9-3.1-7.4-6.6-10.4-10.4z"/><path class="st2" d="M483.1 550c4.9 13.6 10.4 27.2 17.3 40 1.3 2.4 3.1 4.1 5.3 5.2-2.8-9.6-7.8-19.2-10.7-28.8-3.7-12.3-6.9-24.7-9.5-37.2-4.9-24-8.2-48.3-10.2-72.7-2.4-28.7-2.4-57.7-.2-86.5 1.6-21 4.2-42.1 13.7-61-.6-.4-2.3-1.8-3.4-2.8-37.2 40.4-29.8 115.3-21.8 165.1 4.3 26.7 10.3 53.2 19.5 78.7zM690.2 490c1.6-17 2.9-34.2 2.3-51.3-.8-21.4-2-43.9-12.3-63.1-.3-.6-.8-1.7-2.3-.8-2.2 1.3-4.4 2.3-6.6 2.8 3.4 40.7-1.4 80.8-3.8 121.5-2 34-3.2 68.8-10.5 102.2 3.1.1 9.5-1.5 12.4-2.9 11.9-34.7 17.3-72.2 20.8-108.4zM529 297.4c-.6 1-1.3 2.1-2 3-.3.5-.7.9-1.1 1.3 23.6 35.6 27.8 81.3 30.2 122.8 3.3 58.2 3.3 116.8-1.3 174.9 2.6-.5 5.1-1.2 7.1-2.5 6.8-4.3 5.8-17.7 6.5-25.2 3.2-34.2 5.1-68.6 3.6-103-2.1-51.4 10.5-140.8-43-171.3zM449.9 210.9c-2.3 44.3.7 88.4 7.3 132.3 4.7-15.8 12.1-30.2 23.1-42.1-11.4-12.1-22.4-28.6-20-44.9 1.4-9.6 10.2-20.2 18.1-12.9-2.1-19.1-3.7-38.4-4.8-57.6-1.7-29-2.9-58.5.5-87.4-1.5.7-3.2.8-5 .4-7.1 14.2-10 31-12.4 46.5-3.5 21.7-5.6 43.7-6.8 65.7zM653.9 376.8c-2.4 1.1-5.7 1.3-8.8.9-21.2 35.3-24.6 81.1-25.5 121.3-.7 32.8.2 66.5 5.6 98.9 2.3.9 7.9 2 10.9 2.4-1.9-12-1.5-24.7-1.7-36.8-.3-15.4.2-30.7.9-46.1 2-47 4.9-94.5 19.4-139.5.1-.5-.3-1.3-.8-1.1z"/><path class="st2" d="M660.8 371.3c-.1 0-.1 0 0 0-16.7 47-19.8 96.9-21.9 146.3-.7 15.4-1.2 30.7-.9 46.1.3 12.2-.3 25.2 1.8 37.3 4.5.5 9 .8 13.5.6 7.8-35.2 8.8-72 10.9-107.8 2.3-38.8 6.8-76.9 3.5-115.7-4.9-.2-6.8-3-6.9-6.8zM706 434.8c-.8-22.1-2.2-50.7-21.3-65.4-.5.5-1 .9-1.5 1.4-1.1 1-.5 1.7-.1 2.6 10.2 18.9 11.9 40.7 12.8 61.8.8 17.4-.3 34.9-1.9 52.3-3.4 36.1-8.5 73.1-19.8 107.8 3.8-3.5 6.2-8.7 9-16.4 9-25.1 15.9-51.1 19.6-77.5 3.1-22.1 3.9-44.4 3.2-66.6zM609.1 558c1.8 12 1.9 30.4 12.2 37.9-5.1-32.6-6.2-66.3-5.2-99.2 1.2-39.8 4.6-84.6 25.3-119.8-.8-.2-3-.9-4.6-2.2-28.3 28.3-31.3 78.5-31.7 116.1-.3 22.4.7 45 4 67.2zM673.3 228.5c-3.5 16-6 32.3-7.3 48.7 2 7.9 3.2 15.9 3.5 23.6 2.5-.5 5.2 0 7.8 2 4.8 3.5 6.7 9.2 7.4 15 .2-.1.4-.1.6-.2.2-25.3 2.3-50.7 4.8-75.9 2.1-21.8 4.1-44.1 9.1-65.5-1.6-.3-3.3-.9-5.2-1.8-11.2 15.5-16.7 35.7-20.7 54.1zM620.2 236.7c-1.3.4-2.7.7-4.2.8 10.7 24.7 8.9 53.9 7.4 80.4 2.8-.4 5.6-.1 8.3 1.1.1-9.9 3.1-20.7 11.7-22.4.6-21.6-6.6-45.4-23.2-59.9z"/><path class="st2" d="M627.4 232.7c-1.1.9-2.3 1.8-3.6 2.5 16.5 15.1 23.8 39.4 23.2 61.3 1.4.1 3 .4 4.7.9 4.4 1.5 6.9 5.1 8.4 9.3.8-.8 1.6-1.6 2.5-2.3-.5-26.5-11-58-35.2-71.7zM768.6 265.8c-2.1-36-2.8-80.4-39-99.6-.5.4-1 .9-1.4 1.3 15.6 21.6 20 50.6 22.4 76.4 2.8 29.3 2.5 58.8 1.5 88.2-1.8 52.6-6.1 106.3-16.8 158.4 10.4-34.3 19-69.1 24.9-104.5 6.6-39.5 10.7-80 8.4-120.2zM409.3 222.2c-1.8 40.7-1.2 82.2 2.9 122.7 4.4 43.5 12.4 86.7 24.7 128.7 5.9 20.2 12.4 40.2 19.9 59.9 4.5 11.7 9 23.3 14 34.8 1.2 2.7 2.1 5.1 3 7.3.2.3.3.6.4.9 3.1 7.1 6.4 11.2 16.7 10.7-1.6-3.1-3.3-6.7-5.1-10.9-13.5-31.2-22.9-64.1-28.4-97.7-.4-2.6-.8-5.2-1.2-7.9-11-37.2-18.6-75.4-24-113.7-3.6-25.7-6.6-51.6-6.9-77.6-.4-32-.2-64.2 4.2-96 4.3-31.4 12-64.1 31-90.1-.6-.6-1.2-1.3-1.7-1.9l-.1.1c-38.8 28.5-47.4 85.8-49.4 130.7zM496.6 85.5c-.1 0-.2-.1-.3-.2-.7.7-1.3 1.4-2 2.1 15.5 19.7 26.4 42 32 66.6 6.5 28 10.1 57.8 10.4 86.6 7 2.3 7.8 13.3 6.3 20.5-2.1 9.7-5.5 20.6-10.4 30 3.2 1.8 6.2 3.9 9 6.1 1.8-22.1 7.4-43.8 22-59 .4-27.8-5.6-56.2-15.2-82.2-9.7-26.2-24.2-59-51.8-70.5z"/><path class="st2" d="M548.2 303.7c5.9 6.3 10.6 13.7 14.3 21.7.6-32 4.6-67 30.1-88-2.1-2-4.1-4.2-5.9-6.6-29.5 13.4-37 43-38.5 72.9zM651.7 245.6c4.8 6.8 8.6 14.4 11.4 22.4 1.6-15.2 4.2-30.4 7.8-45.2 4.2-17.3 9.6-35.5 20-50.2-.2-.1-1.8-1.1-2.8-2.1-23 16.9-34.7 47.3-36.4 75.1z"/><path class="st2" d="M566 333.7c4.4 11.7 7.1 24.2 8.7 36.1 5 37.2 4.5 75.4 4.8 112.9.2 22.9-.4 45.9-2.2 68.7-.7 9.4-.3 21-1.7 31.5 5.1 2.2 10.5 3.1 16 2.9-4.7-62-5.9-124.5-4.3-186.6.7-28 1.8-56 4.2-83.9 2.1-24.1 4.3-49.9 12.1-73.1-2.7-.1-5.6-1-8.1-2.5-27.4 21.8-29.4 60.9-29.5 94zM491.6 89.9c-1.8 1.6-3.7 3-5.7 4.3 9.1 20.3 12.2 43.6 15 65.5 2.8 22 4.9 44.4 4.6 66.6 9.4 1.4 11.8 16.2 12.2 29.2 2.5-5.4 6.2-12.8 12.2-14.7 1.1-.3 2.2-.5 3.1-.6-.3-28.3-3.6-57.8-10.3-85.3-5.7-23.9-15.9-45.7-31.1-65z"/><path class="st2" d="M607.5 241.5c-8.8 24.7-10.9 52.7-12.9 78.5-2.2 28.3-3.4 56.6-4 85-1.2 60.2-.1 120.5 4.5 180.5 3.8-.4 7.6-1.4 11.4-2.5-.4-1.7-.8-3.4-1.1-5.3-4.7-24.1-7.1-48.8-7.4-73.4-.3-33 .4-74.9 15.4-107.5 2.3-13.6 3.1-27.7 4.1-41.5-4.1-6.6-6.7-14-6.8-22.3-.1-6.9 3.9-12 9.1-14.2 1.6-26.7 3.7-56.5-7.6-81.3-1.3 2.1-2.8 3.4-4.7 4zM432.4 188.9c-3.6 30.7-3.8 61.5-3.4 92.3.3 26.8 3.6 53.6 7.5 80.1 4.1 27.7 9.3 55.2 16.1 82.4-3.2-28.6-4.4-60 1.5-88.3.3-1.3.2-7.3 0-8.7-7.1-46.5-10.4-93.3-7.5-140.2 1.4-22.2 3.4-44.5 7.4-66.4 2.5-14.2 5.4-29.3 11.8-42.5-.9-.5-1.8-1-2.7-1.7-19.3 26.7-26.9 60.7-30.7 93zM747.6 251.1c-2.2-27-5.7-58.7-22.2-81.3-2.6 2-5.3 3.5-8 4.6 11 54.1 8.4 111.9 5.9 166.6-1.3 28-3.2 56-5.9 83.9-1.2 12-2.1 24.4-4.2 36.4-.4 15.9-1.8 31.7-4.4 47.4-3.2 19-7.4 37.8-13.3 56.1-2.3 7-4.4 17-8 25.1 5.1.4 11 .3 13-4.3 4.1-9.4 8.1-18.9 11.8-28.6 3-7.7 5.8-15.4 8.6-23.2 18.5-64.3 25.1-132.4 27.4-198.8 1-27.8 1.6-55.9-.7-83.9zM482.8 95.8c-1.5.7-3.1 1.3-4.8 1.7h-.3c-3.5 29.1-2.3 59-.6 88.2 1.3 21.1 2.9 42.1 5.4 63.1 1.5 2.3 3 4.7 4.5 7.2-.6-13.9 1.7-28.3 14.8-29.7.3-21.4-1.6-43-4.3-64.2-2.7-22-5.6-45.8-14.7-66.3z"/><path d="M695.1 640.8c-34.4 5.3-70 6.4-104.7 6.3-34.7-.1-70-1-104.3-6.3-19.2-3-44.5-7.1-59.8-21 3.4 21.2 6.5 42.4 9.7 63.7 2.9 19.5 3.3 47.4 15.7 63.9 14.6 19.5 43.5 24.8 66.3 28.4 25.1 4 50.5 5.7 75.9 5.5 26.4-.3 53.1-1.8 79.1-7.1 20.9-4.2 49.7-9.7 60.1-30.9 9.6-19.6 10.7-43.3 13.9-64.6 3-19.8 5.9-39.6 9.1-59.3-17.1 13.6-40 18.2-61 21.4z" style="fill:#00eef0"/><path d="M469.8 583.8c-.2-.5-.5-1.1-.7-1.6-9.3 3.7-26.5 12.4-11.6 20.5 12.3 6.7 26.6 9.5 40.4 11.5 32.2 4.6 64.8 6.6 97.3 6.3 31.4-.3 63.5-1.5 94.4-7.3 11.4-2.1 29.2-4.1 37.7-13.1 8.8-9.3-10.1-16.1-17-18.6-1.3 2.9-2.5 5.7-3.8 8.6-3.9 8.1-15.1 7.3-22.7 6.8-.5.7-1 1.5-1.6 2.1-11.4 12.6-35.3 11-50.3 8-14.4-2.9-20-7.3-23.4-17.1-11.3 3.6-23.2 4.4-34.2.2-.7 2.6-1.5 5.2-2.6 7.5-6.9 14.3-36.7 10.3-48.5 8.8-14.9-1.8-22.2-4.9-27.9-12.5-10.4 1.3-20.7.7-25.5-10.1z" style="fill:#ad8353"/><path class="st5" d="M624.2 671.6c-20.6 1.3-41.3 1.5-61.9.4-18.8-1-37.5-3.1-56.3-4.5-6.3-.5-13.6-1.9-20.9-2.9-25.7-3.5-30.2 6.6-5.7 16.5 4.8 2 9.9 3.4 13.8 4.5 20 5.8 42.4 7.9 63.1 9.6 23.5 2 47.7 2.1 71.1-1.1 65.5-8.9 60.3-26.5-3.2-22.5z"/><path class="st5" d="M698 680.6c15.2-3.7 7.6-18.4-7-14.3-5.8 1.6-13.2 6.1-10 11.1 2.7 4.3 11.8 4.5 17 3.2zM695.1 640.8c-34.4 5.3-70 6.4-104.7 6.3-34.7-.1-70-1-104.3-6.3-19.2-3-44.5-7.1-59.8-21 .7 4.3 1.4 8.6 2 12.9 28.1 19.3 100.5 25.4 129.1 26.3 91.4 2.8 156.7-5.8 195.5-19.6 1-6.7 2.1-13.3 3.1-20-17 13.6-39.9 18.2-60.9 21.4z"/><path d="M739.7 724.3c-15.2 21.1-81.9 30.6-95.9 31.6-29.5 2.1-59.5 4.5-89 2.8-68.2-4-105.2-17.9-116.5-56.1 1.9 16 4.7 33.2 13.4 44.8 14.6 19.5 43.5 24.8 66.3 28.4 25.1 4 50.5 5.7 75.9 5.5 26.4-.3 53.1-1.8 79.1-7.1 20.9-4.2 49.7-9.7 60.1-30.9 2.8-6 5-12.4 6.6-19z" style="fill:#00b2b6"/><path d="M749.8 585c-8.8-7.2-20.7-11.1-31.3-14.2-1.6-.5-3.5-.5-4.3 1.4-.4.9-.8 1.9-1.1 2.8 16.6 6.6 37.2 23.7 11.3 35.5-34 15.4-79.9 17.2-129.7 16.9-54.7-.3-107.3-6-124.3-11.1-5.9-1.8-11.5-4.2-16.4-7.4-20.4-13.5-3.1-26.7 12.4-33.2-.4-1-.8-1.9-1.3-2.9-.7-1.5-1.9-2.1-5.2-1.1-9.7 3-24.2 8-31.8 16.3-6.9 7.6-5.4 18.3.6 24.5 6.3 6.4 16.5 10.8 23.5 13.1 45.2 15.3 97.9 14.9 145.1 14.4 26.3-.3 52.6-1.3 78.7-4 21.2-2.2 44.6-4.6 63.8-14.6 4-2.1 9.2-5.2 13.3-9 7.7-7.5 6.3-19.5-3.3-27.4z" style="fill:#73ffdb"/><path class="st8" d="M620.6 360c-.6 9.1-1.3 18.3-2.4 27.4 3.6-6.1 7.8-11.9 12.8-17-3.9-3.1-7.4-6.6-10.4-10.4zM517.3 506.8c-1.8 1.7-3.7 2.8-5.9 3.5 3.7 30.2 8.6 60.3 16.3 89.5 3.5.4 7 .7 10.5.7 1.5-20.8.1-41.9-.9-62.6-1.2-23.5-2.9-47-4.9-70.5-.7 5.8-2 15.1-3.8 20.2-2.3 7-5.9 14.1-11.3 19.2zM637.8 550.8c0 4.3 0 8.5.1 12.8.3 12.2-.3 25.2 1.8 37.3 4.5.5 9 .8 13.5.6 4.3-19.2 6.5-38.8 8-58.6-4 4.3-18.2 18.4-23.4 7.9zM691.5 510.6c-3.4 28.6-8.4 57.4-17.3 84.6 3.8-3.5 6.2-8.7 9-16.4 8.5-23.6 15.1-48.1 18.9-73-3.1 6.5-8 11.8-10.6 4.8zM621.3 595.9c-3.1-19.8-4.7-39.9-5.3-60.1-2.1 2.2-6 4.2-9.2 2.6.6 6.6 1.4 13.1 2.3 19.6 1.8 12 1.9 30.4 12.2 37.9zM620 545.2c.8 17.7 2.4 35.4 5.3 52.7 2.3.9 7.9 2 10.9 2.4-1.9-12-1.5-24.7-1.7-36.8-.2-7.8-.1-15.5.1-23.2-2.7 3.6-9 10.4-14.6 4.9zM669.4 598.3c9-26.4 14.4-54.4 17.9-82.3-4 9-14.8 31.3-21.7 15.4-1.5 23.4-3.6 47-8.6 69.8 3 .1 9.5-1.5 12.4-2.9zM457.2 343.2c4.7-15.8 12.1-30.2 23.1-42.1-11.4-12.1-22.4-28.6-20-44.9 1.4-9.6 10.2-20.2 18.1-12.9-1-8.9-1.9-17.9-2.6-26.8-3.9 9-20 43.4-26 51.1 1 25.3 3.6 50.5 7.4 75.6zM562.5 325.4c.2-9.6.7-19.4 1.9-29-5.9-1.7-10.7-12.2-10.7-26.8-3.4 10.7-4.9 22.4-5.5 34.2 5.9 6.3 10.6 13.6 14.3 21.6z"/><path class="st8" d="M720.6 386.6c-.9 12.8-2 25.6-3.2 38.4-1.2 12-2.1 24.4-4.2 36.4-.4 15.9-1.8 31.7-4.4 47.4-3.2 19-7.4 37.8-13.3 56.1-2.3 7-4.4 17-8 25.1 5.1.4 11 .3 13-4.3 4.1-9.4 8.1-18.9 11.8-28.6 3-7.7 5.8-15.4 8.6-23.2 15.6-54 22.7-110.9 26-167-4.7 13.2-18.6 28.9-26.3 19.7zM509.8 596.8c3.9 1.2 12 2.3 14.1 2.6-9-34.6-14.3-70.4-18.1-106-.2 16.8-2.1 47.9-13.3 50.4 2.3 9.4 4.8 18.7 7.9 27.8 2.7 8.3 7.2 16.6 9.4 25.2zM691.2 318.3c-.3-1.3-.6-2.5-.9-3.8-.7-3.2-1-6.4-1.2-9.6l-.3 12.8c.9.1 1.7.3 2.4.6z"/><path class="st8" d="M700.1 341.6c-.3 1.8-.6 3.5-1.1 5-1.7 5.3-5.2 11.8-9.6 17.5 18.1 14.7 22.3 39.7 23.4 62 .1 2.5.2 5 .3 7.4.4-4 .7-8 1.1-12 1.8-19.3 3.3-38.7 4.4-58.1-6.1 1.3-14.5-8.6-18.5-21.8zM456.8 533.5c4.5 11.7 9 23.3 14 34.8 1.2 2.7 2.1 5.1 3 7.3.2.3.3.6.4.9 3.1 7.1 6.4 11.2 16.7 10.7-1.6-3.1-3.3-6.7-5.1-10.9-13.5-31.2-22.9-64.1-28.4-97.7-.4-2.6-.8-5.2-1.2-7.9-11-37.2-18.6-75.4-24-113.7-2.2-15.6-4.2-31.2-5.4-46.9-2.3 15.1-1.3 26.9-1.5 33.2-.4 12.3 4.7 42.1-4.8 60.6 4.3 23.5 9.7 46.7 16.4 69.6 5.9 20.3 12.4 40.3 19.9 60zM514.2 218.1c-2.3-3.7-4.8-7.5-7.9-10.6-.4-.4-.8-.7-1.2-1.1.3 6.6.4 13.2.3 19.8 9.4 1.4 11.8 16.2 12.2 29.2 2.5-5.4 6.2-12.8 12.2-14.7 1.1-.3 2.2-.5 3.1-.6-.1-4.9-.2-9.8-.4-14.8-9.7 13.8-16-3.5-18.3-7.2zM749.4 383c-2.6 36-6.9 72.2-14.1 107.6 10.4-34.3 19-69.1 24.9-104.5.8-4.9 1.6-9.7 2.3-14.6-4.9 12.3-9.6 18-13.1 11.5zM554.8 599.4c2.6-.5 5.1-1.2 7.1-2.5 6.8-4.3 5.8-17.7 6.5-25.2 3.2-34.2 5.1-68.6 3.6-103-.7-17.6.3-39.5-.3-62.1-1.3 74.1-3.9 109.7-13.5 121-.4 24-1.5 47.9-3.4 71.8zM536.3 228.8c.2 3.9.3 7.9.3 11.8 7 2.3 7.8 13.3 6.3 20.5-2.1 9.7-5.5 20.6-10.4 30 3.2 1.8 6.2 3.9 9 6.1 1.8-22.1 7.4-43.8 22-59 .1-6-.1-12-.6-18-5.6 13-15.1 23.4-26.6 8.6zM592 361c-.7 14.7-1.2 29.4-1.4 44.1-1.2 60.2-.1 120.5 4.5 180.5 3.8-.4 7.6-1.4 11.4-2.5-.4-1.7-.8-3.4-1.1-5.3-4.7-24.1-7.1-48.8-7.4-73.4-.3-33 .4-74.9 15.4-107.5 2.3-13.6 3.1-27.7 4.1-41.5-.5-.8-1-1.7-1.5-2.5-4.9 16-18.2 38.2-24 8.1zM487.3 219.5c-2.2 2.1-4.7 4-7.2 5.6.7 7.9 1.5 15.8 2.5 23.6 1.5 2.3 3 4.7 4.5 7.2-.6-13.9 1.7-28.3 14.8-29.7.1-9-.1-17.9-.7-26.9-.2.4-.3.8-.3 1.3-.9 2.1-1.9 4.2-3.1 6.1-2.8 4.8-6.6 9.1-10.5 12.8zM539.7 517.8c.4 6.7.8 13.4 1.2 20.2 1.1 20.7 2.5 41.8.9 62.6 1.7 0 6-.1 9.3-.6 4-49.3 4.6-99 2.7-148.4-1.3 63.3-9.8 65.4-14.1 66.2z"/><path class="st8" d="M500.4 589.9c1.3 2.4 3.1 4.1 5.3 5.2-2.8-9.6-7.8-19.2-10.7-28.8-3.7-12.3-6.9-24.7-9.5-37.2-1.8-9-3.4-18-4.8-27.1-.7 7.3-2 17.1-6.1 20.6 2.5 9.2 5.4 18.4 8.6 27.3 4.9 13.7 10.3 27.3 17.2 40zM574.7 369.8c5 37.2 4.5 75.4 4.8 112.9.2 22.9-.4 45.9-2.2 68.7-.7 9.4-.3 21-1.7 31.5 5.1 2.2 10.5 3.1 16 2.9-4.7-62-5.9-124.5-4.3-186.6.4-15.7.9-31.3 1.7-47-.1 0-.2 0-.4-.1-5.5-1.1-10.5-4.5-14.4-8.3-3.7-3.6-6.1-7.9-8.1-12.4v2.3c4.3 11.7 7 24.2 8.6 36.1zM436.3 359.8c.1.5.1 1 .2 1.5 4.1 27.7 9.3 55.2 16.1 82.4-3.2-28.6-4.4-60 1.5-88.3.3-1.3.2-7.3 0-8.7-2.1-13.7-3.8-27.4-5.2-41.2-1.7 10.6-6.1 35.2-8.9 44-1.1 3.4-2.3 6.8-3.7 10.3z"/><path class="st9" d="M684.6 369.4c-.5.5-1 .9-1.5 1.4-1.1 1-.5 1.7-.1 2.6 2 3.6 3.6 7.4 5 11.2 4.4 5 11.4 14.7 16.6 30-1.7-17.2-6.3-34.7-20-45.2zM692.2 432.3c-.8-19.4-2.8-39.4-12-56.7-.3-.6-.8-1.7-2.3-.8-2.2 1.3-4.4 2.3-6.6 2.8.4 4.9.7 9.8.9 14.7 5.6 5 14.8 16.6 20 40zM653.9 376.8c-2.4 1.1-5.7 1.3-8.8.9-11.1 18.4-17.3 39.7-20.8 61.5 8.8-32.5 20.9-45.2 27-49.7 1.1-3.8 2.2-7.6 3.4-11.4.1-.7-.3-1.5-.8-1.3zM517.6 331.4c-1.1-8-2.6-15.9-5.1-23.3-.1-.3-1.3-1.5-1.7-1.9-1.6-1.3-3.1.2-3.8 1.9-5.7 15.2-4.6 34.7-4.9 50.5 0 2.4-.1 4.8-.1 7.2 4.6-26 13.3-32.9 15.6-34.4zM660.8 371.3c-.1 0-.1 0 0 0-7.2 19.9-11.8 40.4-14.9 61.1 8.3-27.9 20.1-34.6 22.9-35.9-.2-6.2-.5-12.4-1-18.6-5 0-6.9-2.8-7-6.6zM432.4 188.9c-.1.7-.1 1.3-.2 2 4.5-23.2 13-57.1 26.9-75 1.7-6.3 3.8-12.5 6.7-18.3-.9-.5-1.8-1-2.7-1.7-19.3 26.7-26.9 60.7-30.7 93zM516.3 308c4.5 14.4 5.6 30.7 7.6 45.3.8 5.8 1.5 11.6 2.2 17.5.9-25.6 4.6-39.8 7.6-47.2-2.9-6.6-6.3-13-10.3-19.1-2.4 2.2-4.8 3.3-7.1 3.5zM452.1 181.3c4.7-31.8 12.5-74 20.5-66.8.3-5.4.8-10.8 1.4-16.2-1.5.7-3.2.8-5 .4-7.1 14.2-10 31-12.4 46.5-1.9 11.9-3.3 24-4.5 36.1zM476.8 107.3c3.6 5 10.6 15.3 17.4 29.7-2.3-14.2-5.6-28.3-11.4-41.2-1.5.7-3.1 1.3-4.8 1.7h-.2c-.4 3.3-.8 6.5-1 9.8zM520.4 146c-6.1-20.5-15.5-39.2-28.8-56.2-1.8 1.6-3.7 3-5.7 4.3.8 1.8 1.5 3.6 2.2 5.4 6 5.6 19.8 20.3 32.3 46.5zM499.5 334.7c.3-7.4.9-14.9 2.6-22-2.9.7-6.6.1-10.4-1.9-10.7 21.5-12.6 46.1-13.7 69.8-.6 11.7-.9 23.4-.9 35.1 3.4-35.9 10-74.9 22.4-81zM569.7 286c4.2-15.1 13.4-36.5 32.5-39.7.4-1.4.9-2.8 1.3-4.2-2.7-.1-5.6-1-8.1-2.5-14.6 11.8-22 28.4-25.7 46.4zM641.4 376.9c-.8-.2-3-.9-4.6-2.2-17.3 17.3-25.2 42.9-28.7 68.7 6.5-19.9 15.3-34.1 22.5-43.3 2.9-8.1 6.5-15.8 10.8-23.2zM561 253.4c7.2-6.8 19.4-16.3 30.3-14.8.4-.4.9-.8 1.3-1.2-2.1-2-4.1-4.2-5.9-6.6-11.7 5.3-19.9 13.2-25.7 22.6zM683.9 184.3c2.1-4.1 4.4-8.1 7-11.8-.2-.1-1.8-1.1-2.8-2.1-13.3 9.8-22.8 24.1-28.8 39.7 9.7-15 18.9-22.3 24.6-25.8zM729.6 166.2c-.5.4-1 .9-1.4 1.3 2.7 3.7 5.1 7.7 7.2 11.8 6.9 5.2 21.1 19.1 30.6 50.5-3.5-25.7-11.7-50.5-36.4-63.6zM627.4 232.7c-1.1.9-2.3 1.8-3.6 2.5 2.1 1.9 4.1 4 5.9 6.2 10.4 4.9 18.3 13.5 23.9 21.8-5.7-12.7-14.3-23.8-26.2-30.5zM452.2 105.3l1-.8c2.2-3.8 4.6-7.6 7.3-11.2-.6-.6-1.2-1.3-1.7-1.9l-.1.1c-29 21.3-41.1 58.7-46.2 95 17.2-67.8 39.7-81.2 39.7-81.2zM496.6 85.5c-.1 0-.2-.1-.3-.2-.7.7-1.3 1.4-2 2.1 1 1.2 1.9 2.4 2.8 3.7 7 3.4 20.1 11.3 34.4 27.8-8.7-14.4-19.8-27.1-34.9-33.4zM488.7 309c-.6-.4-2.3-1.8-3.4-2.8-23.1 25-29 63.4-28.3 100.8 4.6-36.9 15.1-59.8 22.7-72.3 2.1-8.9 4.9-17.5 9-25.7zM616 237.5c2.4 5.5 4.1 11.2 5.4 17 4.3-12.5 12.6 1.4 18.6 14.8-3.6-12.5-10.1-24.2-19.8-32.6-1.4.5-2.8.7-4.2.8zM607.5 241.5c-6.1 17.2-9 36-10.9 54.6 4.4-18.8 11.3-40.7 20-46.1-1.2-4.3-2.7-8.4-4.5-12.5-1.2 2.1-2.7 3.4-4.6 4zM673.6 226.9c8.5-26.1 17.8-34.8 22.9-37.6.8-4.4 1.7-8.9 2.7-13.2-1.6-.3-3.3-.9-5.2-1.8-10.9 15.2-16.3 34.6-20.4 52.6zM745.8 232.5c-2.6-22.1-7.6-45.2-20.4-62.8-2.6 2-5.3 3.5-8 4.6 1.1 5.4 2.1 10.9 2.9 16.3 7.6 5.8 18.6 17.7 25.5 41.9zM529 297.4c-.6 1-1.3 2.1-2 3-.3.5-.7.9-1.1 1.3 9.6 14.6 16.1 30.8 20.4 47.8.3-14.2 2-25.8 6.2-29.5-5.9-9.2-13.5-16.9-23.5-22.6zM706.4 175.5c-.5-.1-.8-.3-1.2-.6-.7.5-1.5.9-2.3 1.1-1.5 6.3-2.7 12.6-3.8 19 5.3 3.5 15.7 13.7 22.2 42.7-1-21-3.1-41.9-7.3-62.3-2.5.7-5.1.8-7.6.1z"/><path class="st10" d="M474.7 281.3c4.6 7.8 10.4 14.9 17.3 21.3 13.2 10.6 6.2-6 3.7-11.6-.2-.4-.4-.9-.6-1.3-.2-.4-.4-.9-.7-1.6-4.8-3.8-15.2-8.2-19.7-6.8zM504 291.6c.7 1.4 2.2 2 2.7-1.4.9-4 1.9-7.9 3-11.9.3-1.3.7-4.7.7-5.2v-3.2c-4 1.9-6.9 13.2-6.4 21.7zM621.6 348.7c5 8.7 11.8 15.4 20.3 20.9 3.7 1.9 10.9 3 6.6-3.5-.9-1.3-1.8-2.7-2.6-4.1-6.4-5.5-19.2-14.4-24.3-13.3zM666.9 352.6c1.6-4.4 2.8-9 4.2-13.4-2.4 1.1-5.1 5.8-5.6 10 .4 1.1.8 2.3 1.4 3.4zM448.2 61.4c4.4 10.8 10.8 19.9 18.7 28.4 5.9 5.3 3-7.8 2.5-10.3-.2-1.2-.5-2.4-.8-3.6-4.4-6.2-15.5-15.6-20.7-15 .2.2.2.4.3.5zM643.5 340.4c.1.2.2.5.2.7 2.4 6.4 5.1 12.7 8.9 18.4.6 1 1.3 1.9 1.9 2.8 1.1 1.7 2.2 2.1 3.9 2 1.8-.1 2.9-.6 3.8-1.6 1.1-1.3.8-1.9 0-3.3-.8-1.3-1.5-2.7-2-4-5.3-6.1-13.5-13.3-16.7-15zM598.4 233.2c1.4 1.2 8.1 4.3 7.8-.5-.3-4.1-1.9-8-3.2-11.9-4.1-3.7-14.1-11.1-18.8-10.5 2.5 8.9 7.3 16.4 14.2 22.9zM670.2 370.3c2.8-1 5.1-2.6 7.3-4.7 5.4-5.3 12.4-13.2 15-21.3-4.8-.2-15 8.4-20.5 14.9-.7 1.6-1.4 3.3-2.2 4.9-1.2 2.3-4.7 8.1.4 6.2zM667.3 137.1c6.1 11.7 16.5 21 26.8 28.9 6.1 4.1 9.2 2.4 5.9-5.6-.6-1.4-1.2-2.8-1.9-4.2-7.1-7.4-24.7-20.1-30.8-19.1zM470 54.4h-.1c.7 2 2.1 6.1 2.6 7.8 1.1 3.2 2 3.4 3.1 1.3-.2-4.5-2.6-9.5-5.6-9.1zM514.9 287l-1.2 5.1c-2 12.4 6.3 6.7 9.2 1.2 1.7-3.1 3.3-6.3 4.7-9.6 1.9-4.2 3.7-8.5 5.3-12.9-4.5.7-13.7 9.2-18 16.2zM719.3 126.9c-.4-.1-.9-.2-1.3-.2.1 1.1.5 1.2 1.3.2zM611.8 222.4c.9 2.7 1.5 5.4 1.7 7.9 9.1.3 16.4-8.6 21-18.9-5.1-1.8-16.4 2.5-21.4 7.3-.5 1.5-1 2.7-1.3 3.7zM712.1 168.6c7.7-1.8 17-12.8 21.1-17.5 3.8-4.4 6.8-9.2 9.4-14.3-9-4.6-25.8 11.9-32 23.4-.5 1.6-.9 3.2-1.1 4.7-.4 2.1-.5 4.4 2.6 3.7zM696.3 127c.1 4.2.6 8.3 1.4 12.5 2.1 3.5 4.1 7.1 5.8 10.7 1.5 3.1 2.3 2.3 3.3-.1.4-.9 1.6-5.8 2.2-8.4-1.7-6.6-8.2-14.4-12.7-14.7zM606.5 204.8c.3 1.8.6 3.5 1.1 5.3.6 2.4 1.1 1.3 1.9-.2-.4-2.2-1.6-4.5-3-5.1zM478.8 76c-1 3.9-.8 6.3-.5 9.8.3 3.4.9 4 4 2.2 6.5-4 12-11.2 16.3-16.6 2.9-3.7 5.7-7.5 8.4-11.4-6.3-1.3-22.2 8-28.2 16z"/><path class="st0" d="M669.2 539.3c2.1-8.5 2.1-17.5 1.2-26.2 0-.2-.3-.2-.3 0-.9 8.6-1.9 17.5-1.5 26.1.1.3.6.4.6.1zM514.2 498.1c0-8.9-1.8-17.8-3-26.6 0-.2-.4-.2-.4.1-.2 8.8.1 18.2 2.8 26.7.1.2.6.2.6-.2zM513.8 501c-.8 1.7-.3 4.2 1 5.5.1.1.4.1.4-.1.5-1.6 0-3.9-.8-5.4-.1-.2-.5-.2-.6 0zM457.9 182.3c-2.7 16.1-5.1 33.8-3.4 50.1.1.5.7.5.8 0 2-16.4 3-33.6 2.9-50.1 0-.1-.3-.2-.3 0zM454.3 235.8c-.1 2.4-.4 4.7-.1 7.2 0 .2.3.4.5.1 1.2-2.4.9-4.9-.1-7.3-.1-.2-.3-.2-.3 0zM575.6 282.6c-3.4 15.7-5.7 32.5-4.4 48.5 0 .4.6.4.6 0 1.6-16.1 2.6-32.3 4.1-48.5.1-.1-.2-.2-.3 0zM576.5 275.7c-.5 1.3-.7 2.8-.4 4.1 0 .2.3.2.4.1.7-1.2.9-2.8.5-4.2-.2-.2-.4-.2-.5 0zM700.8 225c-4.2 28.8-7.2 59.4-6.4 88.5 0 .5.7.5.7 0 3.5-29.1 5.5-59.2 6-88.5 0-.2-.3-.2-.3 0zM736.4 428c4.4-18.5 5.4-39 4.9-57.9 0-.2-.3-.2-.3 0-.9 19.3-3.7 38.6-5 57.9 0 .1.4.2.4 0zM647.4 450c-2 7.7-3.7 16.4-2.8 24.4 0 .3.4.3.5.1 2.2-7.8 1.7-16.4 2.6-24.4 0-.2-.3-.2-.3-.1zM644 476.7c-.6 1.5-.5 3.2.2 4.6.1.2.3.2.4 0 .7-1.4.8-3.1.2-4.6-.2-.3-.6-.3-.8 0zM547.4 402.2c1-16.3-3.4-33.7-8.2-49.2 0-.2-.3-.1-.2.1 3.6 16.3 5.6 32.7 7.9 49.2.1.3.5.2.5-.1zM616.7 287.6c.7-8.2-.4-16.2-.7-24.4 0-.2-.3-.2-.3 0-.6 8.2-.2 16.2.6 24.4 0 .3.3.3.4 0zM556.6 216.8c1-8.3-1-17.1-2.4-25.2-1.9-10.6-4.2-21.2-8.3-31.2-.1-.1-.3-.1-.2.1 4.8 18.6 7.3 37.5 10.3 56.4.1.3.6.1.6-.1zM429.3 370.3c2.4 27.7 7.7 56.4 17.5 82.5.1.4.7.2.6-.2-5.9-27.5-14-54.3-17.8-82.3-.1-.1-.3-.1-.3 0zM471.8 368.7c-2.8 8.4-2.7 17.2-1.8 26 0 .4.6.4.7 0 .8-8.6.4-17.3 1.3-25.9 0-.2-.2-.2-.2-.1zM727.5 643.1c-25.5 5.4-51 9.6-77 11.5-23.2 1.7-46.5.5-69.6 2.2-.1 0-.2.2 0 .2 22.8 3.7 46.7 2.8 69.7 1.6 26.1-1.4 53-4.4 77.2-14.6.6-.2.4-1-.3-.9z"/></svg>