<?xml version="1.0" encoding="UTF-8" standalone="no"?>
<svg
   data-name="Layer 1"
   width="280.00253"
   height="195.76958"
   viewBox="0 0 280.00253 195.76958"
   version="1.1"
   id="svg72"
   sodipodi:docname="qatent-vision-simple.svg"
   inkscape:version="1.1.2 (0a00cf5339, 2022-02-04)"
   xmlns:inkscape="http://www.inkscape.org/namespaces/inkscape"
   xmlns:sodipodi="http://sodipodi.sourceforge.net/DTD/sodipodi-0.dtd"
   xmlns="http://www.w3.org/2000/svg"
   xmlns:svg="http://www.w3.org/2000/svg">
  <defs
     id="defs76" />
  <sodipodi:namedview
     id="namedview74"
     pagecolor="#ffffff"
     bordercolor="#666666"
     borderopacity="1.0"
     inkscape:pageshadow="2"
     inkscape:pageopacity="0.0"
     inkscape:pagecheckerboard="0"
     showgrid="false"
     inkscape:zoom="2.7351932"
     inkscape:cx="140.57508"
     inkscape:cy="194.319"
     inkscape:window-width="2432"
     inkscape:window-height="1399"
     inkscape:window-x="0"
     inkscape:window-y="0"
     inkscape:window-maximized="1"
     inkscape:current-layer="svg72"
     fit-margin-top="0"
     fit-margin-left="0"
     fit-margin-right="0"
     fit-margin-bottom="0" />
  <g
     id="s1"
     style="fill:#4400aa;fill-opacity:1;stroke:#4400aa"
     transform="matrix(3.4984331,0,0,3.4984331,-317.88413,-515.57557)">
    <path
       transform="scale(1.05)"
       style="fill-rule:nonzero;stroke-width:0.5px;shape-rendering:geometricPrecision"
       d="m 127.6,149.5 q -4.4,0 -7,2.8 -2.4,2.8 -2.4,8.2 0,5.3 2.4,8.1 2.6,2.8 7,2.8 4.7,0 7.1,-2.8 2.6,-2.8 2.6,-8.1 0,-5.4 -2.6,-8.2 -2.4,-2.8 -7.1,-2.8 z m 9.7,24.2 q -3.1,3.4 -6.7,4.9 -3.7,1.5 -8.3,1.5 -8.4,0 -13.8,-5.5 -5.3,-5.5 -5.3,-14.1 0,-8.7 5.3,-14.2 5.4,-5.5 13.8,-5.5 4.6,0 8.3,1.6 3.6,1.5 6.7,4.8 v -5.5 h 14.4 v 51.7 h -14.4 z"
       id="path1050" />
  </g>
  <path
     d="M 133.9972,111.51725 C 58.85706,111.51025 -0.00157997,97.888464 3.1809435e-8,80.505164 9.2003181e-4,70.083284 20.85773,60.786334 57.22229,54.999084 a 1.0000042,1.0000042 0 1 1 0.33069,1.97248 l -0.004,6.2e-4 -0.0126,0.002 c -34.25537,5.452 -55.5357,14.46863 -55.53656,23.53113 -10e-4,15.71973 60.44587,29.005456 131.99738,29.011906 71.55151,0.006 132.00122,-13.268376 132.00262,-28.988106 8e-4,-9.10058 -21.41388,-18.143 -55.88751,-23.59781 a 1.00008,1.00008 0 1 1 0.30249,-1.97715 l 0.003,5e-4 0.007,0.001 c 36.59051,5.78992 57.5758,15.11114 57.57483,25.57355 -0.002,17.38328 -58.86272,30.994676 -134.00285,30.987946 z"
     fill="#3f3d56"
     id="path8" />
  <path
     d="M 137.48233,99.985097 C 72.73318,138.11104 15.10384,156.24273 6.2836099,141.26332 0.99554986,132.28268 14.24919,113.68749 42.64642,90.246687 a 1.0000002,1.0000002 0 1 1 1.28592,1.5318 l -0.003,0.002 -0.01,0.008 C 17.16934,113.87006 3.4085699,132.43863 8.0068299,140.24791 15.98299,153.79378 74.81054,134.56614 136.46733,98.261057 c 61.65679,-36.30508 107.00762,-78.42029 99.03146,-91.9661472 -4.61764,-7.84207 -27.65875,-4.7662 -60.13169,8.0280972 a 1.0000827,1.0000827 0 1 1 -0.74271,-1.85716 l 0.003,-10e-4 0.007,-0.003 C 209.10145,-1.1179603 231.91406,-3.7356902 237.22263,5.2798998 246.04284,20.259327 202.23168,61.858357 137.48254,99.984327 Z"
     fill="#3f3d56"
     id="path10" />
  <path
     d="M 146.00008,90.117434 C 73.563797,53.527104 12.819597,65.416694 12.002887,59.105354 c 9.1e-4,-10.42188 20.85772,-19.71884 57.22229,-25.50609 a 1,1 0 1 1 0.33069,1.97247 l -0.004,6.3e-4 -0.0126,0.002 c -34.25537,5.452 -55.53571,14.46862 -55.53656,23.53112 -10e-4,15.71973 60.44586,29.00545 131.997373,29.01191 71.55151,0.006 132.00119,-13.26838 132.00263,-28.98812 7.9e-4,-9.10059 -21.41388,-18.143 -55.88751,-23.59781 a 1.0000827,1.0000827 0 1 1 0.30249,-1.97716 l 0.003,5.1e-4 0.007,10e-4 c 36.59051,5.78992 57.57581,15.11115 57.57483,25.57355 -0.002,17.38337 -66.93388,64.867096 -134.00285,30.98798 z"
     fill="#3f3d56"
     id="path70" />
</svg>
