<?xml version="1.0" encoding="UTF-8" standalone="no"?>
<svg
   width="600.82147"
   height="557.35559"
   viewBox="0 0 600.82147 557.3556"
   version="1.1"
   id="svg80"
   sodipodi:docname="qatent-values.svg"
   inkscape:version="1.1.2 (0a00cf5339, 2022-02-04)"
   xmlns:inkscape="http://www.inkscape.org/namespaces/inkscape"
   xmlns:sodipodi="http://sodipodi.sourceforge.net/DTD/sodipodi-0.dtd"
   xmlns="http://www.w3.org/2000/svg"
   xmlns:svg="http://www.w3.org/2000/svg">
  <defs
     id="defs84" />
  <sodipodi:namedview
     id="namedview82"
     pagecolor="#ffffff"
     bordercolor="#666666"
     borderopacity="1.0"
     inkscape:pageshadow="2"
     inkscape:pageopacity="0.0"
     inkscape:pagecheckerboard="0"
     showgrid="false"
     inkscape:snap-global="false"
     fit-margin-top="0"
     fit-margin-left="0"
     fit-margin-right="0"
     fit-margin-bottom="0"
     inkscape:zoom="0.53078798"
     inkscape:cx="-170.50122"
     inkscape:cy="475.70783"
     inkscape:window-width="2432"
     inkscape:window-height="1399"
     inkscape:window-x="0"
     inkscape:window-y="0"
     inkscape:window-maximized="1"
     inkscape:current-layer="svg80" />
  <path
     id="uuid-207e1ec5-f316-41d7-bdda-8b0dd0a2bd60-371"
     d="m 283.44574,417.21882 c 8.89671,1.36364 15.40463,7.05944 14.53588,12.72122 -0.86876,5.66178 -8.78434,9.14461 -17.68405,7.7793 -3.56255,-0.49662 -6.95436,-1.83918 -9.89166,-3.91538 l -37.62277,-6.25382 2.511,-14.87153 37.53792,5.31177 c 3.42552,-1.10114 7.06497,-1.36572 10.61369,-0.77157 z"
     fill="#ffb6b6" />
  <polygon
     points="330.71947,453.89578 329.19546,439.2792 395.14843,425.48908 462.82463,393.50814 479.50058,395.00508 464.91227,425.96119 391.57489,450.64909 "
     fill="#e6e6e6"
     id="polygon3"
     transform="matrix(-1,0,0,1,600.82149,-24.142342)" />
  <rect
     x="-296.37604"
     y="299.69733"
     width="2.0005"
     height="173.77644"
     transform="matrix(-0.99975795,-0.02200089,-0.02200089,0.99975795,0,0)"
     fill="#3f3d56"
     id="rect5" />
  <path
     d="m 287.66769,383.02563 c 0.18115,-0.61621 4.32715,-15.26855 -4.65088,-29.6709 l -1.69727,1.05859 c 8.48975,13.61816 4.47021,27.90723 4.42871,28.05078 l 1.91943,0.56152 z"
     fill="#3f3d56"
     id="path7" />
  <path
     d="m 282.31498,354.46681 c 0,0 2.72937,-18.65506 -22.41425,-23.77492 -5.23825,-1.06664 -10.16278,-1.79561 -14.67694,-2.28132 -5.32851,-0.57333 -7.40701,6.72083 -2.59337,9.0768 6.97123,3.41197 13.52893,7.71085 16.94694,12.80161 9.42681,14.04022 22.73764,4.17784 22.73764,4.17784 z"
     fill="#4400aa"
     id="path9" />
  <path
     d="m 285.08126,436.97289 1.91943,-0.56152 c -0.0415,-0.14355 -4.06104,-14.43262 4.42871,-28.05078 l -1.69727,-1.05859 c -8.97803,14.40234 -4.83203,29.05469 -4.65088,29.6709 z"
     fill="#3f3d56"
     id="path11" />
  <path
     d="m 290.43379,408.41371 c 0,0 -2.72937,-18.65506 22.41425,-23.77492 5.23825,-1.06664 10.16278,-1.79561 14.67694,-2.28132 5.32851,-0.57333 7.40701,6.72083 2.59337,9.0768 -6.97123,3.41197 -13.52893,7.71085 -16.94694,12.80161 -9.42681,14.04022 -22.73764,4.17784 -22.73764,4.17784 z"
     fill="#4400aa"
     id="path13" />
  <path
     d="m 542.31228,539.45498 c 0,0.66003 -0.53003,1.19 -1.19006,1.19 H 18.832242 c -0.65997,0 -1.19,-0.52997 -1.19,-1.19 0,-0.65997 0.53003,-1.19 1.19,-1.19 H 541.12222 c 0.66003,0 1.19006,0.53003 1.19006,1.19 z"
     fill="#3f3d56"
     id="path21" />
  <polygon
     points="324.20774,499.44869 344.23894,512.546 331.14162,545.67451 314.19215,534.11806 "
     fill="#ffb6b6"
     id="polygon23"
     transform="matrix(-1,0,0,1,600.82149,-24.142342)" />
  <polygon
     points="304.17655,520.25031 289.53838,500.21912 254.86901,533.34763 268.73676,547.9858 "
     fill="#ffb6b6"
     id="polygon25"
     transform="matrix(-1,0,0,1,600.82149,-24.142342)" />
  <polygon
     points="447.47661,380.03198 452.86962,403.91532 485.99813,392.35886 485.61291,389.66236 476.75296,372.32767 "
     fill="#ffb6b6"
     id="polygon27"
     transform="matrix(-1,0,0,1,600.82149,-24.142342)" />
  <path
     d="m 127.15025,483.78108 -0.90036,11.57162 c 0,0 -3.72223,48.52195 26.32456,52.3741 30.04679,3.85215 43.1441,7.7043 60.864,-22.34248 l 27.73549,-49.30754 16.20027,19.27593 21.55082,-16.96463 c 0,0 -15.40861,-60.09357 -27.73549,-62.40486 -1.54086,-0.28891 -3.08172,-0.43337 -4.59851,-0.46497 -10.20508,-0.21261 -19.82492,4.77897 -25.93085,12.95861 l -34.95723,46.82949 -12.7121,-5.77823 -45.84061,14.25296 z"
     fill="#2f2e41"
     id="path29" />
  <path
     d="m 293.56321,519.99131 -6.93387,-13.09732 -20.03119,13.86775 c 0,0 -4.62258,16.94947 2.31129,19.26076 6.93387,2.31129 26.19463,-0.77043 26.19463,-0.77043 0,0 35.4398,7.7043 36.21023,0.77043 0.77043,-6.93387 -16.17904,-8.47473 -16.17904,-8.47473 z"
     fill="#2f2e41"
     id="path31" />
  <path
     d="m 218.06104,510.74615 53.54491,-33.73818 27.35028,24.49301 18.49033,-21.57205 c 0,0 -33.89894,-50.07798 -43.91453,-52.38927 -10.01559,-2.31129 -26.19463,-3.85215 -26.19463,-3.85215 l -49.30754,45.45539 20.03119,41.60324 z"
     fill="#2f2e41"
     id="path33" />
  <path
     d="m 346.72291,506.12356 -17.7199,19.26076 2.33678,1.99887 c 0,0 4.59709,20.02209 15.38312,13.24898 10.78603,-6.77311 11.55646,-8.31398 11.55646,-8.31398 0,0 30.81722,6.93387 33.89894,-5.39301 3.08172,-12.32689 -5.39301,-10.0156 -5.39301,-10.0156 l -7.6952,4.62258 -32.36718,-15.40861 z"
     fill="#2f2e41"
     id="path35" />
  <circle
     cx="-144.09972"
     cy="339.7106"
     r="24.65377"
     fill="#ffb6b6"
     id="circle37"
     transform="scale(-1,1)" />
  <path
     d="m 149.87795,374.76518 -35.4398,-10.78603 c 0,0 -13.86775,32.35808 -11.55646,46.99625 2.31129,14.63818 23.3682,84.37729 23.3682,84.37729 l 46.74096,-25.82458 c 0,0 0.77043,-15.40861 3.08172,-22.34248 2.31129,-6.93387 9.63038,-28.12071 -6.54866,-45.84061 -16.17904,-17.7199 -19.64597,-26.57985 -19.64597,-26.57985 z"
     fill="#e6e6e6"
     id="path39" />
  <rect
     x="-500.75754"
     y="120.89249"
     width="1.9995199"
     height="409.099"
     transform="matrix(-0.99975798,-0.0219995,-0.0219995,0.99975798,0,0)"
     fill="#3f3d56"
     id="rect41" />
  <path
     d="m 493.22287,312.51782 c 0.10254,-0.34961 10.01758,-35.3584 -10.79932,-68.75146 l -1.69727,1.05811 c 20.34814,32.6416 10.67773,66.78906 10.57764,67.13086 l 1.91895,0.5625 z"
     fill="#3f3d56"
     id="path43" />
  <path
     d="m 481.92074,245.66669 c 0,0 6.42539,-43.91713 -52.76688,-55.97014 -12.33172,-2.51104 -23.92488,-4.22717 -34.55197,-5.3706 -12.54419,-1.34971 -17.43734,15.82195 -6.10524,21.36829 16.41144,8.03236 31.84935,18.15263 39.89591,30.13712 22.19228,33.05303 53.52818,9.83533 53.52818,9.83533 z"
     fill="#4400aa"
     id="path45" />
  <path
     d="m 489.73165,439.51782 1.91895,-0.5625 c -0.0996,-0.34082 -9.75146,-34.52051 10.57764,-67.13086 l -1.69727,-1.05859 c -20.81689,33.39355 -10.90186,68.40234 -10.79932,68.75195 z"
     fill="#3f3d56"
     id="path47" />
  <path
     d="m 501.03378,372.66669 c 0,0 -6.42539,-43.91713 52.76688,-55.97014 12.33172,-2.51104 23.92488,-4.22717 34.55197,-5.3706 12.54419,-1.34971 17.43734,15.82195 6.10524,21.36829 -16.41144,8.03236 -31.84935,18.15263 -39.89591,30.13712 -22.19228,33.05303 -53.52818,9.83533 -53.52818,9.83533 z"
     fill="#4400aa"
     id="path49" />
  <rect
     x="-40.730671"
     y="441.36469"
     width="2.00002"
     height="97.749252"
     transform="matrix(-0.99975788,-0.02200403,-0.02200403,0.99975788,0,0)"
     fill="#3f3d56"
     id="rect57" />
  <path
     d="m 29.842494,485.51293 c 0.104,-0.35449 2.48779,-8.7793 -2.66504,-17.04492 l -1.69727,1.05859 c 4.66504,7.48242 2.46533,15.34668 2.44287,15.4248 l 1.91943,0.56152 z"
     fill="#3f3d56"
     id="path59" />
  <path
     d="m 26.411584,469.32531 c 0,0 1.53527,-10.49347 -12.60802,-13.3734 -2.94652,-0.59998 -5.7165601,-1.01003 -8.2557801,-1.28324 -2.99728,-0.3225 -4.16644,3.78047 -1.45877,5.1057 3.92132,1.91924 7.6100201,4.33735 9.5326501,7.2009 5.30258,7.89763 12.78992,2.35003 12.78992,2.35003 z"
     fill="#4400aa"
     id="path61" />
  <path
     d="m 27.547574,515.85766 1.91943,-0.56152 c -0.0225,-0.0781 -2.22217,-7.94141 2.44287,-15.42383 l -1.69727,-1.05859 c -5.15283,8.26562 -2.76904,16.68945 -2.66504,17.04395 z"
     fill="#3f3d56"
     id="path63" />
  <path
     d="m 30.978414,499.67044 c 0,0 -1.53527,-10.49347 12.60802,-13.3734 2.94652,-0.59998 5.71656,-1.01003 8.25578,-1.28324 2.99728,-0.3225 4.16644,3.78047 1.45877,5.1057 -3.92132,1.91924 -7.61002,4.33735 -9.53265,7.2009 -5.30258,7.89763 -12.78992,2.35003 -12.78992,2.35003 z"
     fill="#4400aa"
     id="path65" />
  <g
     id="g76"
     transform="matrix(-1,0,0,1,600.82149,-24.142342)">
    <path
       id="uuid-fcc96ddd-8a9b-4008-9e3e-ba4d42e134c9-372"
       d="m 372.9429,560.6837 c -5.76763,6.90981 -6.87749,15.48672 -2.47944,19.15655 4.39805,3.66983 12.6373,1.04277 18.40606,-5.87027 2.34226,-2.72987 3.99672,-5.98097 4.82492,-9.48131 l 24.06795,-29.58576 -11.72388,-9.48778 -24.62774,28.82333 c -3.29686,1.44132 -6.20051,3.65139 -8.46786,6.44523 z"
       fill="#ffb6b6" />
    <polygon
       points="403.65242,555.32266 390.08694,544.06849 432.29671,491.54901 464.29146,423.87933 478.12744,414.451 486.50417,447.63127 445.50568,513.25891 "
       fill="#e6e6e6"
       id="polygon74" />
  </g>
  <path
     d="m 166.82741,335.47323 c -6.32276,-0.0151 -6.68173,0.027 -7.7043,0 -7.84218,-0.20681 -9.89286,-3.2921 -13.86775,-3.08172 -7.09451,0.37553 2.26916,35.94511 6.16344,52.38927 3.81924,16.12741 -9.08811,30.5789 -10.0156,31.58765 -13.10117,14.24835 -36.11364,16.85373 -40.06238,10.78603 -3.196178,-4.91121 8.13109,-12.37871 5.39301,-23.11291 -2.67657,-10.49307 -15.035618,-9.3757 -18.490328,-19.26076 -3.61798,-10.35219 8.54038,-15.57338 16.179038,-40.83281 4.3869,-14.50661 3.61083,-17.20961 7.7043,-26.19463 10.94177,-24.01645 64.57358,-13.7909 58.55271,8.47473 -1.16467,4.307 1.93482,9.25899 -3.85215,9.24516 z"
     fill="#2f2e41"
     id="path78" />
  <g
     id="s1"
     style="fill:#4400aa;fill-opacity:1;stroke:#4400aa"
     transform="matrix(2.7030561,0,0,2.7030561,86.744433,-398.91026)">
    <path
       transform="scale(1.05)"
       style="fill-rule:nonzero;stroke-width:0.5px;shape-rendering:geometricPrecision"
       d="m 127.6,149.5 q -4.4,0 -7,2.8 -2.4,2.8 -2.4,8.2 0,5.3 2.4,8.1 2.6,2.8 7,2.8 4.7,0 7.1,-2.8 2.6,-2.8 2.6,-8.1 0,-5.4 -2.6,-8.2 -2.4,-2.8 -7.1,-2.8 z m 9.7,24.2 q -3.1,3.4 -6.7,4.9 -3.7,1.5 -8.3,1.5 -8.4,0 -13.8,-5.5 -5.3,-5.5 -5.3,-14.1 0,-8.7 5.3,-14.2 5.4,-5.5 13.8,-5.5 4.6,0 8.3,1.6 3.6,1.5 6.7,4.8 v -5.5 h 14.4 v 51.7 h -14.4 z"
       id="path1050" />
  </g>
  <g
     id="g1160"
     style="fill:#4400aa;fill-opacity:1;stroke:#4400aa"
     transform="matrix(1.466742,0,0,1.466742,64.629444,11.831695)">
    <path
       transform="scale(1.05)"
       style="fill-rule:nonzero;stroke-width:0.5px;shape-rendering:geometricPrecision"
       d="m 127.6,149.5 q -4.4,0 -7,2.8 -2.4,2.8 -2.4,8.2 0,5.3 2.4,8.1 2.6,2.8 7,2.8 4.7,0 7.1,-2.8 2.6,-2.8 2.6,-8.1 0,-5.4 -2.6,-8.2 -2.4,-2.8 -7.1,-2.8 z m 9.7,24.2 q -3.1,3.4 -6.7,4.9 -3.7,1.5 -8.3,1.5 -8.4,0 -13.8,-5.5 -5.3,-5.5 -5.3,-14.1 0,-8.7 5.3,-14.2 5.4,-5.5 13.8,-5.5 4.6,0 8.3,1.6 3.6,1.5 6.7,4.8 v -5.5 h 14.4 v 51.7 h -14.4 z"
       id="path1158" />
  </g>
  <g
     id="g1251"
     style="fill:#4400aa;fill-opacity:1;stroke:#4400aa"
     transform="matrix(0.67961138,0,0,0.67961138,-73.464291,304.79973)">
    <path
       transform="scale(1.05)"
       style="fill-rule:nonzero;stroke-width:0.5px;shape-rendering:geometricPrecision"
       d="m 127.6,149.5 q -4.4,0 -7,2.8 -2.4,2.8 -2.4,8.2 0,5.3 2.4,8.1 2.6,2.8 7,2.8 4.7,0 7.1,-2.8 2.6,-2.8 2.6,-8.1 0,-5.4 -2.6,-8.2 -2.4,-2.8 -7.1,-2.8 z m 9.7,24.2 q -3.1,3.4 -6.7,4.9 -3.7,1.5 -8.3,1.5 -8.4,0 -13.8,-5.5 -5.3,-5.5 -5.3,-14.1 0,-8.7 5.3,-14.2 5.4,-5.5 13.8,-5.5 4.6,0 8.3,1.6 3.6,1.5 6.7,4.8 v -5.5 h 14.4 v 51.7 h -14.4 z"
       id="path1249" />
  </g>
</svg>
