<?xml version="1.0" encoding="UTF-8" standalone="no"?>
<svg
   data-name="Layer 1"
   width="469.82086"
   height="509.13242"
   viewBox="0 0 469.82088 509.1324"
   version="1.1"
   id="svg92"
   sodipodi:docname="qatent-target-simple.svg"
   inkscape:version="1.1.2 (0a00cf5339, 2022-02-04)"
   xmlns:inkscape="http://www.inkscape.org/namespaces/inkscape"
   xmlns:sodipodi="http://sodipodi.sourceforge.net/DTD/sodipodi-0.dtd"
   xmlns="http://www.w3.org/2000/svg"
   xmlns:svg="http://www.w3.org/2000/svg">
  <defs
     id="defs96" />
  <sodipodi:namedview
     id="namedview94"
     pagecolor="#ffffff"
     bordercolor="#666666"
     borderopacity="1.0"
     inkscape:pageshadow="2"
     inkscape:pageopacity="0.0"
     inkscape:pagecheckerboard="0"
     showgrid="false"
     inkscape:snap-global="false"
     inkscape:zoom="1.8881229"
     inkscape:cx="151.20838"
     inkscape:cy="164.97867"
     inkscape:window-width="2432"
     inkscape:window-height="1399"
     inkscape:window-x="0"
     inkscape:window-y="0"
     inkscape:window-maximized="1"
     inkscape:current-layer="svg92"
     fit-margin-top="0"
     fit-margin-left="0"
     fit-margin-right="0"
     fit-margin-bottom="0" />
  <g
     id="s1"
     style="fill:#4400aa;fill-opacity:1;stroke:#4400aa"
     transform="matrix(9.1316008,0,0,9.1316008,-987.10322,-1347.6188)">
    <path
       transform="scale(1.05)"
       style="fill-rule:nonzero;stroke-width:0.5px;shape-rendering:geometricPrecision"
       d="m 127.6,149.5 q -4.4,0 -7,2.8 -2.4,2.8 -2.4,8.2 0,5.3 2.4,8.1 2.6,2.8 7,2.8 4.7,0 7.1,-2.8 2.6,-2.8 2.6,-8.1 0,-5.4 -2.6,-8.2 -2.4,-2.8 -7.1,-2.8 z m 9.7,24.2 q -3.1,3.4 -6.7,4.9 -3.7,1.5 -8.3,1.5 -8.4,0 -13.8,-5.5 -5.3,-5.5 -5.3,-14.1 0,-8.7 5.3,-14.2 5.4,-5.5 13.8,-5.5 4.6,0 8.3,1.6 3.6,1.5 6.7,4.8 v -5.5 h 14.4 v 51.7 h -14.4 z"
       id="path1050" />
  </g>
  <ellipse
     cx="206.45856"
     cy="188.26186"
     rx="137"
     ry="134.9084"
     fill="#e6e6e6"
     id="ellipse22" />
  <path
     d="m 319.97284,188.26186 a 109.94456,109.94456 0 0 1 -10.403,46.80581 c -0.21075,0.45163 -0.42908,0.90331 -0.64736,1.35494 a 113.02372,113.02372 0 0 1 -48.74035,50.33625 c -0.4441,0.23335 -0.88824,0.46669 -1.33238,0.69251 a 114.38967,114.38967 0 0 1 -52.39119,12.59349 116.19926,116.19926 0 0 1 -18.86384,-1.53563 c -0.4968,-0.0828 -0.99363,-0.16558 -1.48294,-0.25591 a 113.817,113.817 0 0 1 -61.37145,-32.41333 c -0.34628,-0.35382 -0.69251,-0.71512 -1.04633,-1.07643 A 110.76474,110.76474 0 0 1 94.111003,204.36313 c -0.0678,-0.49684 -0.143,-0.99363 -0.20325,-1.49047 a 110.60178,110.60178 0 0 1 12.292397,-67.0698 c 0.23335,-0.44414 0.48177,-0.88824 0.72266,-1.32484 a 112.9171,112.9171 0 0 1 34.83712,-38.073997 c 0.414,-0.286 0.82805,-0.56456 1.24205,-0.84308 a 113.942,113.942 0 0 1 46.20363,-17.802441 c 0.49679,-0.0678 0.99363,-0.143 1.49042,-0.21079 a 115.812,115.812 0 0 1 15.76253,-1.06885 114.524,114.524 0 0 1 48.093,10.500831 c 0.45916,0.21075 0.91079,0.42154 1.36247,0.63982 a 113.57027,113.57027 0 0 1 36.90717,28.107597 c 0.33121,0.37638 0.66242,0.76024 0.97861,1.14415 a 110.4881,110.4881 0 0 1 24.28359,50.9836 v 0.007 c 0.0979,0.4893 0.18069,0.97861 0.26348,1.4754 a 110.44741,110.44741 0 0 1 1.62596,18.92411 z"
     fill="#ffffff"
     id="path24" />
  <path
     d="m 263.01663,230.62925 c -3.58183,6.08762 -20.33236,18.13583 -23.02657,18.99603 l 19.45156,37.87098 c 12.94302,-6.14241 30.35199,-22.41657 39.26448,-32.59576 z"
     fill="#4400aa"
     id="path4740"
     inkscape:transform-center-x="-24.580653"
     inkscape:transform-center-y="12.300703"
     style="stroke-width:1.12743"
     sodipodi:nodetypes="ccccc" />
  <path
     d="m 237.13626,124.8858 c 2.54125,1.28281 22.23552,15.68884 23.79166,18.05042 l 32.20309,-26.64844 c -7.8244,-10.94576 -25.24484,-23.068732 -37.45347,-28.899502 z"
     fill="#4400aa"
     id="path4009"
     inkscape:transform-center-x="-6.0451057"
     inkscape:transform-center-y="-26.376064"
     style="stroke-width:1.12743"
     sodipodi:nodetypes="ccccc" />
  <path
     d="m 276.40727,176.29913 c 0.33263,2.82717 0.78249,25.1939 -0.32815,27.79489 l 41.37293,10.04263 c 3.8147,-13.80938 2.71021,-31.83221 0.83524,-45.2312 z"
     fill="#4400aa"
     id="path4009-3"
     inkscape:transform-center-x="-22.06939"
     inkscape:transform-center-y="-9.1366683"
     style="stroke-width:1.12743"
     sodipodi:nodetypes="ccccc" />
  <path
     d="m 214.85176,190.40681 c -0.43386,2.44998 2.25123,4.29838 0.63083,6.18649 l 48.00364,33.6276 c 7.34953,-9.26505 7.62264,-13.80994 11.20448,-25.54677 z"
     fill="#4400aa"
     id="path2302"
     sodipodi:nodetypes="ccccc" />
  <path
     d="m 318.84026,213.31597 c -0.11859,0.5036 -0.24488,1.00883 -0.37111,1.51401 l -42.52962,-9.51647 -1.52454,-0.34495 -57.44005,-12.85239 0.34495,-1.52454 57.47383,12.86135 1.52454,0.34498 z"
     fill="#cccccc"
     id="path2300"
     style="stroke-width:1.03808" />
  <path
     d="m 210.46401,197.31751 c -2.66377,1.00393 -3.2257,-1.99195 -6.01764,-2.44327 l -10.19181,61.21554 c 14.79673,2.56861 27.88374,1.46672 44.15672,-6.74614 z"
     fill="#4400aa"
     id="path1720"
     inkscape:transform-center-x="-21.332071"
     inkscape:transform-center-y="14.714752"
     style="stroke-width:1.12743"
     sodipodi:nodetypes="ccccc" />
  <path
     d="m 197.79433,196.24044 c -1.75078,-2.24462 1.14998,-1.26184 0.75043,-4.06166 l -61.61703,7.44683 c 2.40509,13.23807 10.50428,26.66167 19.05714,37.14485 z"
     fill="#4400aa"
     id="path1581"
     inkscape:transform-center-x="12.29682"
     inkscape:transform-center-y="27.849157"
     style="stroke-width:1.12743"
     sodipodi:nodetypes="ccccc" />
  <path
     d="m 217.66661,179.76464 a 13.89558,13.89558 0 0 1 2.9361,6.71854 l 54.693,-10.31586 a 68.11841,68.11841 0 0 0 -14.942,-31.52506 z"
     fill="#4400aa"
     id="path26" />
  <path
     d="m 194.22255,182.1467 c 1.21825,-2.16945 2.99666,-3.97201 5.14948,-5.21941 l -32.61286,-45.06173 c -9.99585,6.31979 -16.85593,12.96701 -22.41208,23.40665 z"
     fill="#4400aa"
     id="path1480"
     sodipodi:nodetypes="ccccc" />
  <path
     d="m 204.70465,176.17274 c 2.84554,-0.0803 2.3997,2.93503 4.89181,4.27221 l 28.44738,-55.30847 c -12.0889,-5.90674 -27.70124,-7.33659 -41.21379,-6.65867 z"
     fill="#4400aa"
     id="path1265"
     inkscape:transform-center-x="6.5574248"
     inkscape:transform-center-y="-18.82569"
     style="stroke-width:1.12743"
     sodipodi:nodetypes="ccccc" />
  <path
     d="m 193.4821,256.97746 c -19.94285,-2.60835 -36.79317,-17.61738 -38.30686,-20.00641 l -31.05835,29.14272 c 9.21645,10.96849 37.469,28.62985 63.02978,32.07093 z"
     fill="#4400aa"
     id="path5168"
     inkscape:transform-center-x="7.7369233"
     inkscape:transform-center-y="25.172723"
     style="stroke-width:1.12743"
     sodipodi:nodetypes="ccccc" />
  <path
     d="m 166.22372,129.54767 c 2.3462,-1.6121 26.32054,-10.45073 29.13937,-10.68052 l -5.84046,-40.949053 c -13.3591,1.102482 -35.66815,9.340747 -46.64852,17.907244 z"
     fill="#4400aa"
     id="path5834"
     inkscape:transform-center-x="23.508396"
     inkscape:transform-center-y="-15.369836"
     style="stroke-width:1.12743"
     sodipodi:nodetypes="ccccc" />
  <path
     d="m 277.01355,177.12869 c -0.0677,-0.49679 -0.15805,-0.98609 -0.24838,-1.47535 v -0.008 a 69.65311,69.65311 0 0 0 -15.25066,-32.21 c -0.32368,-0.38391 -0.65489,-0.76782 -0.9861,-1.13666 a 71.76461,71.76461 0 0 0 -22.47708,-17.1622 h -0.007 c -0.45167,-0.21832 -0.89577,-0.4366 -1.355,-0.6474 a 72.43432,72.43432 0 0 0 -40.16658,-5.92411 c -0.49679,0.0602 -0.99363,0.13549 -1.49043,0.21832 a 71.53889,71.53889 0 0 0 -27.79895,10.67395 c -0.42153,0.271 -0.84307,0.54949 -1.25712,0.83554 a 71.19287,71.19287 0 0 0 -22.29637,24.374 q -0.36126,0.65491 -0.72261,1.33238 a 69.34039,69.34039 0 0 0 -7.27156,41.97315 q 0.0903,0.75655 0.22586,1.49047 a 69.65476,69.65476 0 0 0 18.43477,36.89964 c 0.3387,0.36135 0.685,0.72265 1.04629,1.07642 a 71.65053,71.65053 0 0 0 37.675,19.96287 c 0.4968,0.0979 0.99364,0.18065 1.49043,0.26349 a 72.51265,72.51265 0 0 0 44.64544,-6.85 c 0.44414,-0.22581 0.8807,-0.45916 1.32484,-0.7 h 0.008 a 71.24741,71.24741 0 0 0 30.14752,-31.02073 q 0.33873,-0.67744 0.65489,-1.35493 a 69.256,69.256 0 0 0 5.6757,-40.61073 z m -7.04571,39.98593 q -0.31611,0.68883 -0.65488,1.355 a 69.81865,69.81865 0 0 1 -29.49263,30.32062 c -0.44415,0.23335 -0.88824,0.4667 -1.33238,0.69252 a 70.83588,70.83588 0 0 1 -43.67437,6.69193 c -0.49683,-0.0753 -1.00116,-0.15805 -1.49047,-0.25591 a 70.12838,70.12838 0 0 1 -36.82438,-19.5037 c -0.3613,-0.35377 -0.70758,-0.71512 -1.05386,-1.07643 a 68.27972,68.27972 0 0 1 -18.04333,-36.05656 c -0.0828,-0.48931 -0.1581,-0.98615 -0.22582,-1.48294 a 67.91119,67.91119 0 0 1 7.10594,-41.06989 c 0.22581,-0.44414 0.4667,-0.88823 0.71507,-1.33238 a 69.72837,69.72837 0 0 1 21.85981,-23.87712 c 0.414,-0.286 0.828,-0.56456 1.24954,-0.828 a 70.08541,70.08541 0 0 1 27.13653,-10.418 c 0.4893,-0.0828 0.9861,-0.1581 1.49047,-0.21828 a 70.85319,70.85319 0 0 1 39.30844,5.80365 c 0.45916,0.20326 0.91084,0.42154 1.35494,0.63986 a 70.14769,70.14769 0 0 1 21.97269,16.75612 c 0.33121,0.37637 0.66242,0.76028 0.97861,1.14419 a 68.1184,68.1184 0 0 1 14.942,31.52506 c 0.0903,0.4893 0.17312,0.97856 0.24842,1.48289 a 67.8427,67.8427 0 0 1 -5.57035,39.70741 z"
     fill="#cccccc"
     id="path28" />
  <path
     d="m 201.22696,177.03086 -1.227,0.87322 -33.14342,-46.38432 -0.88075,-1.227 -24.21586,-33.888667 c 0.414,-0.286 0.82805,-0.56456 1.24205,-0.84308 l 24.23093,33.896227 0.87317,1.23447 z"
     fill="#cccccc"
     id="path30" />
  <path
     d="m 136.22799,199.04432 c -3.89929,-19.7311 5.76242,-40.90602 7.5427,-43.1036 l -37.53756,-20.12091 c -7.449435,12.2375 -16.462213,40.05523 -12.035703,67.43074 z"
     fill="#4400aa"
     id="path5558"
     inkscape:transform-center-x="23.147625"
     inkscape:transform-center-y="2.3634521"
     style="stroke-width:1.12743"
     sodipodi:nodetypes="ccccc" />
  <path
     d="m 195.30284,183.03025 -0.73014,1.32485 -50.291,-27.62584 -1.32485,-0.73014 -36.7567,-20.19626 c 0.23335,-0.44414 0.48177,-0.88824 0.72266,-1.32484 l 36.75661,20.18868 1.31731,0.73014 z"
     fill="#cccccc"
     id="path32" />
  <path
     d="m 194.66303,192.56755 -57.26149,6.71454 -1.49043,0.18065 -41.800077,4.90039 c -0.0678,-0.49684 -0.143,-0.99363 -0.20325,-1.49047 l 41.777467,-4.90039 1.49047,-0.17312 57.31414,-6.722 z"
     fill="#cccccc"
     id="path34" />
  <path
     d="m 198.35899,197.62603 -41.86026,38.78905 -1.10656,1.02372 -30.65184,28.40119 c -0.34628,-0.35382 -0.69251,-0.71512 -1.04633,-1.07643 l 30.65189,-28.40118 1.099,-1.02373 41.8904,-38.81918 z"
     fill="#cccccc"
     id="path36" />
  <path
     d="m 255.91407,87.619543 -17.86274,37.516937 h -0.007 l -0.64739,1.36247 -24.41912,51.29217 -1.35493,-0.64736 24.41912,-51.28467 0.64735,-1.37 17.86273,-37.509357 c 0.45916,0.21074 0.91079,0.42153 1.36247,0.63981 z"
     fill="#cccccc"
     id="path38" />
  <path
     d="m 293.79985,116.87129 -32.28534,26.56448 -1.16675,0.96349 -44.13358,36.31252 -0.956,-1.15922 44.111,-36.29749 1.15926,-0.956 32.29283,-26.572 c 0.33118,0.37645 0.66239,0.76031 0.97858,1.14422 z"
     fill="#cccccc"
     id="path40" />
  <path
     d="m 318.34692,169.33778 -41.33337,7.79091 -1.47536,0.27852 -56.56144,10.66646 -0.27851,-1.4754 56.59153,-10.67395 1.4754,-0.271 v -0.008 l 41.31827,-7.78342 c 0.0979,0.48932 0.18069,0.97863 0.26348,1.47542 z"
     fill="#cccccc"
     id="path42" />
  <path
     d="m 299.59043,254.37567 c -0.30931,0.42982 -0.62655,0.85818 -0.94372,1.2865 l -36.49416,-25.65081 -1.3067,-0.9231 -49.2888,-34.64329 0.9231,-1.30669 49.31725,34.66498 1.30668,0.92313 z"
     fill="#cccccc"
     id="path44"
     style="stroke-width:1.06251" />
  <path
     d="m 260.18213,286.75886 c -0.4441,0.23335 -0.88824,0.46669 -1.33238,0.69251 l -19.64668,-36.6362 -0.71512,-1.33237 -26.85048,-50.07272 1.32484,-0.70758 26.858,50.08778 0.70758,1.32484 h 0.008 z"
     fill="#cccccc"
     id="path46" />
  <path
     d="m 204.27558,200.62195 -9.462,55.55274 -0.25595,1.49047 -6.96291,40.844 c -0.4968,-0.0828 -0.99363,-0.16558 -1.48294,-0.25591 l 6.95542,-40.85161 0.25591,-1.48289 9.462,-55.55278 z"
     fill="#cccccc"
     id="path48" />
  <path
     d="m 204.70465,176.17274 -1.49043,0.21074 -7.97161,-56.10976 -0.21075,-1.49043 -5.82625,-41.024718 c 0.49679,-0.0678 0.99363,-0.143 1.49042,-0.21079 l 5.82626,41.017188 0.21079,1.49047 z"
     fill="#cccccc"
     id="path50" />
  <ellipse
     cx="206.45856"
     cy="188.26186"
     rx="14.3022"
     ry="14.08384"
     fill="#3f3d56"
     id="ellipse52" />
</svg>
