<?xml version="1.0" encoding="UTF-8" standalone="no"?>
<svg
   data-name="Layer 1"
   width="543.18829"
   height="530.63867"
   viewBox="0 0 543.18831 530.63866"
   version="1.1"
   id="svg92"
   sodipodi:docname="qatent-target.svg"
   inkscape:version="1.1.2 (0a00cf5339, 2022-02-04)"
   xmlns:inkscape="http://www.inkscape.org/namespaces/inkscape"
   xmlns:sodipodi="http://sodipodi.sourceforge.net/DTD/sodipodi-0.dtd"
   xmlns="http://www.w3.org/2000/svg"
   xmlns:svg="http://www.w3.org/2000/svg">
  <defs
     id="defs96" />
  <sodipodi:namedview
     id="namedview94"
     pagecolor="#ffffff"
     bordercolor="#666666"
     borderopacity="1.0"
     inkscape:pageshadow="2"
     inkscape:pageopacity="0.0"
     inkscape:pagecheckerboard="0"
     showgrid="false"
     inkscape:snap-global="false"
     inkscape:zoom="0.47203072"
     inkscape:cx="-113.34008"
     inkscape:cy="808.21011"
     inkscape:window-width="2432"
     inkscape:window-height="1399"
     inkscape:window-x="0"
     inkscape:window-y="0"
     inkscape:window-maximized="1"
     inkscape:current-layer="svg92"
     fit-margin-top="0"
     fit-margin-left="0"
     fit-margin-right="0"
     fit-margin-bottom="0" />
  <g
     id="s1"
     style="fill:#4400aa;fill-opacity:1;stroke:#4400aa"
     transform="matrix(9.1316008,0,0,9.1316008,-913.73576,-1326.1125)">
    <path
       transform="scale(1.05)"
       style="fill-rule:nonzero;stroke-width:0.5px;shape-rendering:geometricPrecision"
       d="m 127.6,149.5 q -4.4,0 -7,2.8 -2.4,2.8 -2.4,8.2 0,5.3 2.4,8.1 2.6,2.8 7,2.8 4.7,0 7.1,-2.8 2.6,-2.8 2.6,-8.1 0,-5.4 -2.6,-8.2 -2.4,-2.8 -7.1,-2.8 z m 9.7,24.2 q -3.1,3.4 -6.7,4.9 -3.7,1.5 -8.3,1.5 -8.4,0 -13.8,-5.5 -5.3,-5.5 -5.3,-14.1 0,-8.7 5.3,-14.2 5.4,-5.5 13.8,-5.5 4.6,0 8.3,1.6 3.6,1.5 6.7,4.8 v -5.5 h 14.4 v 51.7 h -14.4 z"
       id="path1050" />
  </g>
  <polygon
     points="100.308,394.612 82.612,386.071 60.29,432.317 72.279,438.104 "
     fill="#ffb6b6"
     id="polygon2"
     transform="translate(-0.00344063,-3.1123822e-5)" />
  <path
     d="m 53.826019,444.62018 36.86931,17.79716 0.22509,-0.46626 a 15.93587,15.93587 0 0 0 -7.42271,-21.27777 l -8.9e-4,-4.3e-4 -4.268,-8.36029 -15.032,-0.956 -3.21844,-1.55358 z"
     fill="#2f2e41"
     id="path4" />
  <polygon
     points="169.182,397.176 149.533,397.177 149.536,448.529 162.848,448.528 "
     fill="#ffb6b6"
     id="polygon6"
     transform="translate(-0.00344063,-3.1123822e-5)" />
  <path
     d="m 149.06323,462.41733 40.94,-0.002 v -0.51775 a 15.93587,15.93587 0 0 0 -15.935,-15.93475 h -0.001 l -7.47822,-5.67337 -13.9527,5.67423 -3.5738,1.3e-4 z"
     fill="#2f2e41"
     id="path8" />
  <path
     d="m 162.7266,210.36693 15.25581,105.20412 1.29622,23.64689 -8.0006,73.79078 3.24761,7.14992 -9.07382,5.59609 h -18.46393 l -0.9799,-77.94754 -13.84561,-65.28223 -2.14165,73.99261 -2.96423,5.71761 c -11.04148,25.05138 -25.91529,33.25375 -36.430451,51.97907 l -18.4647,-10.00171 0.38718,-7.45905 c -3.70945,-1.87807 5.56931,-7.3671 6.46092,-11.42818 l 1.61489,-7.2711 10.77107,-22.31151 0.411,-7.85727 -2.94789,-53.44107 1.38712,-71.965 24.219941,-18.52068 z"
     fill="#2f2e41"
     id="path10" />
  <circle
     cx="139.52466"
     cy="37.230648"
     r="23.988831"
     fill="#ffb6b6"
     id="circle12" />
  <path
     d="m 142.82479,229.78218 c -31.625,7.5e-4 -55.348281,-11.91047 -55.672851,-12.07689 l -0.281,-0.14425 0.0864,-0.30354 c 0.849,-2.97339 1.65331,-7.96147 0.198,-8.68876 a 0.99687,0.99687 0 0 1 -0.62022,-0.73217 c -0.0834,-0.59769 0.515,-1.1439 1.34338,-1.90049 1.60784,-1.46848 3.81,-3.47942 2.51846,-6.70751 -2.27691,-5.6917 4.12518,-34.85836 4.53916,-36.728 l -2.73447,-46.49159 A 38.67443,38.67443 0 0 1 120.79949,76.485179 l 0.0609,-0.0161 0.0627,0.004 c 0.8892,0.05 1.83062,-2.96963 2.54476,-5.17929 1.05487,-3.266 1.75135,-5.27284 2.93958,-5.18757 9.19892,0.59318 15.32865,0.98124 19.41326,1.23482 7.74471,0.48122 9.10161,9.901 9.26841,11.40482 a 46.33818,46.33818 0 0 1 21.00457,50.139671 l -3.86,16.598 -3.411,7.975 1.124,15.73361 c 5.29087,4.39942 3.77469,13.39961 3.4734,14.9203 5.04143,5.21536 1.94557,11.35336 1.19462,12.65316 a 12.29112,12.29112 0 0 1 2.2168,11.46005 l 4.64322,15.0901 -0.35012,0.12209 a 115.90154,115.90154 0 0 1 -38.2998,6.34434 z"
     fill="#3f3d56"
     id="path14" />
  <path
     d="m 291.44473,72.320779 a 9.33922,9.33922 0 0 0 -14.30995,-0.5526 l -75.85328,0.41282 -21.55132,10.4116 -2.79539,11.93291 34.82353,-1.45588 66.46977,-7.59208 a 9.38986,9.38986 0 0 0 13.2166,-13.15677 z"
     fill="#ffb6b6"
     id="path16" />
  <path
     d="m 206.21166,97.268519 -29.52615,13.967411 -27.37359,-11.458841 -0.0274,-0.22133 a 20.39734,20.39734 0 0 1 10.35172,-20.4211 55.85065,55.85065 0 0 1 18.39832,-6.36964 c 18.10677,-2.69349 21.77914,-3.728 21.81411,-3.73834 l 0.39833,-0.11544 z"
     fill="#3f3d56"
     id="path18" />
  <path
     d="m 119.18379,52.309179 a 2.70122,2.70122 0 0 1 -0.87117,-0.14049 5.70955,5.70955 0 0 1 -2.63266,-2.34 c -4.25178,-6.11508 -6.30479,-14.26815 -6.10118,-24.233 0.086,-4.21571 0.56312,-9.60576 3.51548,-13.90224 2.48277,-3.6127701 7.505,-6.4798501 12.18545,-5.0406801 a 5.05935,5.05935 0 0 1 2.5241,-4.67064 13.258,13.258 0 0 1 5.78938,-1.46247002 c 4.75366,-0.44554 9.66774,-0.9061 14.48114,0.006 5.39719,1.02369002 9.81013,3.80549002 12.10732,7.63200002 l 0.047,0.12021 0.46695,2.2675201 a 2.1533,2.1533 0 0 0 2.86708,1.58155 1.95371,1.95371 0 0 1 2.62176,2.109 l -0.13035,0.902 1.35765,-0.254 a 1.95463,1.95463 0 0 1 2.192,2.59848 l -0.38355,1.03721 a 2.05614,2.05614 0 0 1 1.49477,0.65817 1.8899,1.8899 0 0 1 0.2562,2.22657 17.70607,17.70607 0 0 1 -6.25445,6.29277 14.782,14.782 0 0 1 -4.57072,1.79755 87.78569,87.78569 0 0 1 -31.847,0.95758 17.95459,17.95459 0 0 1 0.71189,6.44641 6.77566,6.77566 0 0 1 -4.06658,5.71537 9.82,9.82 0 0 1 -1.48613,0.35839 8.71283,8.71283 0 0 0 -1.41889,0.34486 4.15228,4.15228 0 0 0 -1.21565,7.09669 l 1.05111,-1.09544 -0.34195,1.39263 a 1.99806,1.99806 0 0 1 -1.01881,1.26863 2.79991,2.79991 0 0 1 -1.33019,0.32937 z"
     fill="#2f2e41"
     id="path20" />
  <ellipse
     cx="279.82602"
     cy="209.76817"
     rx="137"
     ry="134.9084"
     fill="#e6e6e6"
     id="ellipse22" />
  <path
     d="m 393.3403,209.76818 a 109.94456,109.94456 0 0 1 -10.403,46.80581 c -0.21075,0.45163 -0.42908,0.90331 -0.64736,1.35494 a 113.02372,113.02372 0 0 1 -48.74035,50.33625 c -0.4441,0.23335 -0.88824,0.46669 -1.33238,0.69251 a 114.38967,114.38967 0 0 1 -52.39119,12.59349 116.19926,116.19926 0 0 1 -18.86384,-1.53563 c -0.4968,-0.0828 -0.99363,-0.16558 -1.48294,-0.25591 a 113.817,113.817 0 0 1 -61.37145,-32.41333 c -0.34628,-0.35382 -0.69251,-0.71512 -1.04633,-1.07643 a 110.76474,110.76474 0 0 1 -29.583,-60.40043 c -0.0678,-0.49684 -0.143,-0.99363 -0.20325,-1.49047 a 110.60178,110.60178 0 0 1 12.2924,-67.0698 c 0.23335,-0.44414 0.48177,-0.88824 0.72266,-1.32484 a 112.9171,112.9171 0 0 1 34.83712,-38.074 c 0.414,-0.286 0.82805,-0.56456 1.24205,-0.84308 a 113.942,113.942 0 0 1 46.20363,-17.802441 c 0.49679,-0.0678 0.99363,-0.143 1.49042,-0.21079 a 115.812,115.812 0 0 1 15.76253,-1.06885 114.524,114.524 0 0 1 48.093,10.500831 c 0.45916,0.21075 0.91079,0.42154 1.36247,0.63982 a 113.57027,113.57027 0 0 1 36.90717,28.1076 c 0.33121,0.37638 0.66242,0.76024 0.97861,1.14415 a 110.4881,110.4881 0 0 1 24.28359,50.9836 v 0.007 c 0.0979,0.4893 0.18069,0.97861 0.26348,1.4754 a 110.44741,110.44741 0 0 1 1.62596,18.92411 z"
     fill="#ffffff"
     id="path24" />
  <path
     d="m 288.21922,211.91313 c -0.43386,2.44998 2.25123,4.29838 0.63083,6.18649 l 48.00364,33.6276 c 7.34953,-9.26505 7.62264,-13.80994 11.20448,-25.54677 z"
     fill="#4400aa"
     id="path2302"
     sodipodi:nodetypes="ccccc" />
  <path
     d="m 392.20772,234.82229 c -0.11859,0.5036 -0.24488,1.00883 -0.37111,1.51401 l -42.52962,-9.51647 -1.52454,-0.34495 -57.44005,-12.85239 0.34495,-1.52454 57.47383,12.86135 1.52454,0.34498 z"
     fill="#cccccc"
     id="path2300"
     style="stroke-width:1.03808" />
  <path
     d="m 283.83147,218.82383 c -2.66377,1.00393 -3.2257,-1.99195 -6.01764,-2.44327 l -8.85438,61.56201 c 14.79673,2.56861 31.4307,-1.29654 42.81929,-7.09261 z"
     fill="#4400aa"
     id="path1720"
     inkscape:transform-center-x="-21.332071"
     inkscape:transform-center-y="14.714752"
     style="stroke-width:1.12743"
     sodipodi:nodetypes="ccccc" />
  <path
     d="m 271.16179,217.74676 c -1.75078,-2.24462 1.14998,-1.26184 0.75043,-4.06166 l -61.61703,7.44683 c 2.40509,13.23807 10.50428,26.66167 19.05714,37.14485 z"
     fill="#4400aa"
     id="path1581"
     inkscape:transform-center-x="12.29682"
     inkscape:transform-center-y="27.849157"
     style="stroke-width:1.12743"
     sodipodi:nodetypes="ccccc" />
  <path
     d="m 291.03407,201.27096 a 13.89558,13.89558 0 0 1 2.9361,6.71854 l 54.693,-10.31586 a 68.11841,68.11841 0 0 0 -14.942,-31.52506 z"
     fill="#4400aa"
     id="path26" />
  <path
     d="m 278.07211,197.67906 c 2.84554,-0.0803 2.3997,2.93503 4.89181,4.27221 L 311.4113,146.6428 c -12.0889,-5.90674 -27.70124,-7.33659 -41.21379,-6.65867 z"
     fill="#4400aa"
     id="path1265"
     inkscape:transform-center-x="6.5574248"
     inkscape:transform-center-y="-18.82569"
     style="stroke-width:1.12743"
     sodipodi:nodetypes="ccccc" />
  <path
     d="m 350.38101,198.63501 c -0.0677,-0.49679 -0.15805,-0.98609 -0.24838,-1.47535 v -0.008 a 69.65311,69.65311 0 0 0 -15.25066,-32.21 c -0.32368,-0.38391 -0.65489,-0.76782 -0.9861,-1.13666 a 71.76461,71.76461 0 0 0 -22.47708,-17.1622 h -0.007 c -0.45167,-0.21832 -0.89577,-0.4366 -1.355,-0.6474 a 72.43432,72.43432 0 0 0 -40.16658,-5.92411 c -0.49679,0.0602 -0.99363,0.13549 -1.49043,0.21832 a 71.53889,71.53889 0 0 0 -27.79895,10.67395 c -0.42153,0.271 -0.84307,0.54949 -1.25712,0.83554 a 71.19287,71.19287 0 0 0 -22.29637,24.374 q -0.36126,0.65491 -0.72261,1.33238 a 69.34039,69.34039 0 0 0 -7.27156,41.97315 q 0.0903,0.75655 0.22586,1.49047 a 69.65476,69.65476 0 0 0 18.43477,36.89964 c 0.3387,0.36135 0.685,0.72265 1.04629,1.07642 a 71.65053,71.65053 0 0 0 37.675,19.96287 c 0.4968,0.0979 0.99364,0.18065 1.49043,0.26349 a 72.51265,72.51265 0 0 0 44.64544,-6.85 c 0.44414,-0.22581 0.8807,-0.45916 1.32484,-0.7 h 0.008 a 71.24741,71.24741 0 0 0 30.14752,-31.02073 q 0.33873,-0.67744 0.65489,-1.35493 a 69.256,69.256 0 0 0 5.6757,-40.61073 z m -7.04571,39.98593 q -0.31611,0.68883 -0.65488,1.355 a 69.81865,69.81865 0 0 1 -29.49263,30.32062 c -0.44415,0.23335 -0.88824,0.4667 -1.33238,0.69252 a 70.83588,70.83588 0 0 1 -43.67437,6.69193 c -0.49683,-0.0753 -1.00116,-0.15805 -1.49047,-0.25591 a 70.12838,70.12838 0 0 1 -36.82438,-19.5037 c -0.3613,-0.35377 -0.70758,-0.71512 -1.05386,-1.07643 A 68.27972,68.27972 0 0 1 210.769,220.78841 c -0.0828,-0.48931 -0.1581,-0.98615 -0.22582,-1.48294 a 67.91119,67.91119 0 0 1 7.10594,-41.06989 c 0.22581,-0.44414 0.4667,-0.88823 0.71507,-1.33238 A 69.72837,69.72837 0 0 1 240.224,153.02608 c 0.414,-0.286 0.828,-0.56456 1.24954,-0.828 a 70.08541,70.08541 0 0 1 27.13653,-10.418 c 0.4893,-0.0828 0.9861,-0.1581 1.49047,-0.21828 a 70.85319,70.85319 0 0 1 39.30844,5.80365 c 0.45916,0.20326 0.91084,0.42154 1.35494,0.63986 a 70.14769,70.14769 0 0 1 21.97269,16.75612 c 0.33121,0.37637 0.66242,0.76028 0.97861,1.14419 a 68.1184,68.1184 0 0 1 14.942,31.52506 c 0.0903,0.4893 0.17312,0.97856 0.24842,1.48289 a 67.8427,67.8427 0 0 1 -5.57035,39.70741 z"
     fill="#cccccc"
     id="path28" />
  <path
     d="m 267.59001,203.65302 c 1.21825,-2.16945 2.99666,-3.97201 5.14948,-5.21941 l -32.61286,-45.06173 c -9.99585,6.31979 -15.43463,13.2339 -20.99078,23.67354 z"
     fill="#4400aa"
     id="path1480"
     sodipodi:nodetypes="ccccc" />
  <path
     d="m 274.59442,198.53718 -1.227,0.87322 -33.14342,-46.38432 -0.88075,-1.227 -24.21586,-33.88867 c 0.414,-0.286 0.82805,-0.56456 1.24205,-0.84308 l 24.23093,33.89623 0.87317,1.23447 z"
     fill="#cccccc"
     id="path30" />
  <path
     d="m 268.6703,204.53657 -0.73014,1.32485 -50.291,-27.62584 -1.32485,-0.73014 -36.7567,-20.19626 c 0.23335,-0.44414 0.48177,-0.88824 0.72266,-1.32484 l 36.75661,20.18868 1.31731,0.73014 z"
     fill="#cccccc"
     id="path32" />
  <path
     d="m 268.03049,214.07387 -57.26149,6.71454 -1.49043,0.18065 -41.80008,4.90039 c -0.0678,-0.49684 -0.143,-0.99363 -0.20325,-1.49047 l 41.77747,-4.90039 1.49047,-0.17312 57.31414,-6.722 z"
     fill="#cccccc"
     id="path34" />
  <path
     d="m 271.72645,219.13235 -41.86026,38.78905 -1.10656,1.02372 -30.65184,28.40119 c -0.34628,-0.35382 -0.69251,-0.71512 -1.04633,-1.07643 l 30.65189,-28.40118 1.099,-1.02373 41.8904,-38.81918 z"
     fill="#cccccc"
     id="path36" />
  <path
     d="m 329.28153,109.12586 -17.86274,37.51694 h -0.007 l -0.64739,1.36247 -24.41912,51.29217 -1.35493,-0.64736 24.41912,-51.28467 0.64735,-1.37 17.86273,-37.50936 c 0.45916,0.21074 0.91079,0.42153 1.36247,0.63981 z"
     fill="#cccccc"
     id="path38" />
  <path
     d="m 367.16731,138.37761 -32.28534,26.56448 -1.16675,0.96349 -44.13358,36.31252 -0.956,-1.15922 44.111,-36.29749 1.15926,-0.956 32.29283,-26.572 c 0.33118,0.37645 0.66239,0.76031 0.97858,1.14422 z"
     fill="#cccccc"
     id="path40" />
  <path
     d="m 391.71438,190.8441 -41.33337,7.79091 -1.47536,0.27852 -56.56144,10.66646 -0.27851,-1.4754 56.59153,-10.67395 1.4754,-0.271 v -0.008 l 41.31827,-7.78342 c 0.0979,0.48932 0.18069,0.97863 0.26348,1.47542 z"
     fill="#cccccc"
     id="path42" />
  <path
     d="m 372.95789,275.88199 c -0.30931,0.42982 -0.62655,0.85818 -0.94372,1.2865 l -36.49416,-25.65081 -1.3067,-0.9231 -49.2888,-34.64329 0.9231,-1.30669 49.31725,34.66498 1.30668,0.92313 z"
     fill="#cccccc"
     id="path44"
     style="stroke-width:1.06251" />
  <path
     d="m 333.54959,308.26518 c -0.4441,0.23335 -0.88824,0.46669 -1.33238,0.69251 l -19.64668,-36.6362 -0.71512,-1.33237 -26.85048,-50.07272 1.32484,-0.70758 26.858,50.08778 0.70758,1.32484 h 0.008 z"
     fill="#cccccc"
     id="path46" />
  <path
     d="m 277.64304,222.12827 -9.462,55.55274 -0.25595,1.49047 -6.96291,40.844 c -0.4968,-0.0828 -0.99363,-0.16558 -1.48294,-0.25591 l 6.95542,-40.85161 0.25591,-1.48289 9.462,-55.55278 z"
     fill="#cccccc"
     id="path48" />
  <path
     d="m 278.07211,197.67906 -1.49043,0.21074 -7.97161,-56.10976 -0.21075,-1.49043 -5.82625,-41.024721 c 0.49679,-0.0678 0.99363,-0.143 1.49042,-0.21079 l 5.82626,41.017191 0.21079,1.49047 z"
     fill="#cccccc"
     id="path50" />
  <ellipse
     cx="279.82602"
     cy="209.76817"
     rx="14.3022"
     ry="14.08384"
     fill="#3f3d56"
     id="ellipse52" />
  <path
     d="m 249.39593,445.92391 -7.71,-12.39 -1.54,7.08008 c -0.27,1.24 -0.54,2.5 -0.79,3.75 -2.18994,-1.87012 -4.52,-3.6001 -6.79981,-5.26 q -10.5,-7.62012 -20.99023,-15.26 l 2.18994,12.69995 c 1.3501,7.82007 2.76025,15.80005 6.1001,22.95 0.37011,0.81006 0.77,1.61011 1.20019,2.39014 h 32.54 a 10.48759,10.48759 0 0 0 0.54,-2.24012 0.77391,0.77391 0 0 0 0.01,-0.15 c 0.51029,-4.85008 -2.16989,-9.42002 -4.74996,-13.57005 z"
     fill="#f0f0f0"
     id="path84" />
  <path
     d="M 276.93724,463.1016 1.1872394,463.40893 a 1.19069,1.19069 0 0 1 0,-2.38137 L 276.93724,460.72023 a 1.19069,1.19069 0 1 1 0,2.38137 z"
     fill="#cacaca"
     id="path86" />
  <path
     d="m 149.40149,233.2029 a 9.33922,9.33922 0 0 1 -5.351,-13.28333 l -25.21838,-71.53966 2.525,-23.801 10.28873,-6.65963 10.3855,33.2707 15.29285,65.13063 a 9.38986,9.38986 0 0 1 -7.92267,16.88225 z"
     fill="#ffb6b6"
     id="path88" />
  <polygon
     points="142.946,136.474 110.982,146.603 105.247,99.545 129.098,90.313 "
     fill="#3f3d56"
     id="polygon90"
     transform="translate(-0.00344063,-3.1123822e-5)" />
</svg>
