<?xml version="1.0" encoding="UTF-8" standalone="no"?>
<svg
   data-name="Layer 1"
   width="310.9718"
   height="192.43221"
   viewBox="0 0 310.97181 192.43221"
   version="1.1"
   id="svg76"
   sodipodi:docname="qatent-generation-options.svg"
   inkscape:version="1.1.2 (0a00cf5339, 2022-02-04)"
   xmlns:inkscape="http://www.inkscape.org/namespaces/inkscape"
   xmlns:sodipodi="http://sodipodi.sourceforge.net/DTD/sodipodi-0.dtd"
   xmlns="http://www.w3.org/2000/svg"
   xmlns:svg="http://www.w3.org/2000/svg">
  <defs
     id="defs80" />
  <sodipodi:namedview
     id="namedview78"
     pagecolor="#ffffff"
     bordercolor="#666666"
     borderopacity="1.0"
     inkscape:pageshadow="2"
     inkscape:pageopacity="0.0"
     inkscape:pagecheckerboard="0"
     showgrid="false"
     inkscape:snap-global="false"
     fit-margin-top="0"
     fit-margin-left="0"
     fit-margin-right="0"
     fit-margin-bottom="0"
     inkscape:zoom="0.54150514"
     inkscape:cx="-745.14529"
     inkscape:cy="84.025057"
     inkscape:window-width="2432"
     inkscape:window-height="1399"
     inkscape:window-x="0"
     inkscape:window-y="0"
     inkscape:window-maximized="1"
     inkscape:current-layer="svg76" />
  <polygon
     points="578.074,567.804 845.871,567.804 845.475,569.989 578.074,569.989 "
     fill="#3f3d56"
     id="polygon60"
     transform="translate(-198.97046,-148.1659)" />
  <path
     d="m 163.54152,0.18317 a 9.1776929,9.1776929 0 0 0 -9.16731,9.16733 v 167.51188 a 9.1776929,9.1776929 0 0 0 9.16731,9.16732 h 4.16697 a 9.1776929,9.1776929 0 0 0 9.16732,-9.16732 V 9.3505 a 9.1776929,9.1776929 0 0 0 -9.16732,-9.16733 z"
     fill="#e6e6e6"
     id="path46"
     style="fill:#000000;stroke-width:0.833393" />
  <path
     d="m 163.54152,3.93344 a 5.4233267,5.4233267 0 0 0 -5.41704,5.41706 v 167.51188 a 5.4233184,5.4233184 0 0 0 5.41704,5.41705 h 4.16697 a 5.4233267,5.4233267 0 0 0 5.41704,-5.41705 V 9.3505 a 5.4233267,5.4233267 0 0 0 -5.41704,-5.41706 z"
     fill="#ffffff"
     id="path48"
     style="stroke-width:0.833393" />
  <path
     d="m 178.7991,88.96338 h -28.80055 a 9.3705667,9.3705667 0 0 1 -9.36018,-9.36019 v -1.44002 a 9.3705667,9.3705667 0 0 1 9.36018,-9.36018 h 28.80055 a 9.3705667,9.3705667 0 0 1 9.36018,9.36018 v 1.44002 a 9.3705667,9.3705667 0 0 1 -9.36018,9.36019 z"
     fill="#4400aa"
     id="path58"
     style="stroke-width:0.913864" />
  <g
     id="g1211"
     transform="translate(-114.66998,258.55566)">
    <path
       d="m 204.30037,-213.78724 h -67.15262 a 22.38421,22.38421 0 1 1 0,-44.76842 h 67.15262 a 22.38421,22.38421 0 0 1 0,44.76842 z m -67.15262,-41.78386 a 19.39965,19.39965 0 1 0 0,38.7993 h 67.15262 a 19.39965,19.39965 0 1 0 0,-38.7993 z"
       fill="#3f3d56"
       id="path1185"
       style="stroke-width:0.658359" />
    <g
       id="g1189"
       style="fill:#4400aa;fill-opacity:1;stroke:#4400aa"
       transform="matrix(0.80566158,0,0,0.80566158,99.047843,-371.75542)">
      <path
         transform="scale(1.05)"
         style="fill-rule:nonzero;stroke-width:0.5px;shape-rendering:geometricPrecision"
         d="m 127.6,149.5 q -4.4,0 -7,2.8 -2.4,2.8 -2.4,8.2 0,5.3 2.4,8.1 2.6,2.8 7,2.8 4.7,0 7.1,-2.8 2.6,-2.8 2.6,-8.1 0,-5.4 -2.6,-8.2 -2.4,-2.8 -7.1,-2.8 z m 9.7,24.2 q -3.1,3.4 -6.7,4.9 -3.7,1.5 -8.3,1.5 -8.4,0 -13.8,-5.5 -5.3,-5.5 -5.3,-14.1 0,-8.7 5.3,-14.2 5.4,-5.5 13.8,-5.5 4.6,0 8.3,1.6 3.6,1.5 6.7,4.8 v -5.5 h 14.4 v 51.7 h -14.4 z"
         id="path1187" />
    </g>
  </g>
  <path
     d="m 94.007199,186.46551 h -67.15262 a 22.38421,22.38421 0 1 1 0,-44.76842 h 67.15262 a 22.38421,22.38421 0 0 1 0,44.76842 z m -67.15262,-41.78386 a 19.39965,19.39965 0 1 0 0,38.7993 h 67.15262 a 19.39965,19.39965 0 1 0 0,-38.7993 z"
     fill="#3f3d56"
     id="path1191"
     style="font-variation-settings:normal;vector-effect:none;fill:#b7b7b7;fill-opacity:1;stroke-width:0.658359;stroke-linecap:butt;stroke-linejoin:miter;stroke-miterlimit:4;stroke-dasharray:none;stroke-dashoffset:0;stroke-opacity:1;-inkscape-stroke:none;stop-color:#000000" />
  <g
     id="g1195"
     style="font-variation-settings:normal;vector-effect:none;fill:#b7b7b7;fill-opacity:1;stroke:#e6e6e6;stroke-width:0.817166;stroke-linecap:butt;stroke-linejoin:miter;stroke-miterlimit:4;stroke-dasharray:none;stroke-dashoffset:0;stroke-opacity:1;-inkscape-stroke:none;stop-color:#000000"
     transform="matrix(0.80566158,0,0,0.80566158,-72.733711,28.49733)">
    <path
       transform="scale(1.05)"
       style="font-variation-settings:normal;vector-effect:none;fill:#b7b7b7;fill-opacity:1;fill-rule:nonzero;stroke:#e6e6e6;stroke-width:0.778253;stroke-linecap:butt;stroke-linejoin:miter;stroke-miterlimit:4;stroke-dasharray:none;stroke-dashoffset:0;stroke-opacity:1;-inkscape-stroke:none;shape-rendering:geometricPrecision;stop-color:#000000;stop-opacity:1"
       d="m 127.6,149.5 q -4.4,0 -7,2.8 -2.4,2.8 -2.4,8.2 0,5.3 2.4,8.1 2.6,2.8 7,2.8 4.7,0 7.1,-2.8 2.6,-2.8 2.6,-8.1 0,-5.4 -2.6,-8.2 -2.4,-2.8 -7.1,-2.8 z m 9.7,24.2 q -3.1,3.4 -6.7,4.9 -3.7,1.5 -8.3,1.5 -8.4,0 -13.8,-5.5 -5.3,-5.5 -5.3,-14.1 0,-8.7 5.3,-14.2 5.4,-5.5 13.8,-5.5 4.6,0 8.3,1.6 3.6,1.5 6.7,4.8 v -5.5 h 14.4 v 51.7 h -14.4 z"
       id="path1193" />
  </g>
  <g
     id="g1206"
     transform="translate(-117.2228,176.18504)">
    <path
       d="m 206.76436,-60.568079 h -67.15262 a 22.384211,22.384211 0 1 1 0,-44.768421 h 67.15262 a 22.38421,22.38421 0 0 1 0,44.768421 z m -67.15262,-41.783861 a 19.39965,19.39965 0 1 0 0,38.799301 h 67.15262 a 19.399651,19.399651 0 1 0 0,-38.799301 z"
       fill="#3f3d56"
       id="path1197"
       style="stroke-width:0.658359" />
    <g
       id="g1201"
       style="fill:#4400aa;fill-opacity:1;stroke:#4400aa"
       transform="matrix(0.80566158,0,0,0.80566158,101.51183,-218.53626)">
      <path
         transform="scale(1.05)"
         style="fill-rule:nonzero;stroke-width:0.5px;shape-rendering:geometricPrecision"
         d="m 127.6,149.5 q -4.4,0 -7,2.8 -2.4,2.8 -2.4,8.2 0,5.3 2.4,8.1 2.6,2.8 7,2.8 4.7,0 7.1,-2.8 2.6,-2.8 2.6,-8.1 0,-5.4 -2.6,-8.2 -2.4,-2.8 -7.1,-2.8 z m 9.7,24.2 q -3.1,3.4 -6.7,4.9 -3.7,1.5 -8.3,1.5 -8.4,0 -13.8,-5.5 -5.3,-5.5 -5.3,-14.1 0,-8.7 5.3,-14.2 5.4,-5.5 13.8,-5.5 4.6,0 8.3,1.6 3.6,1.5 6.7,4.8 v -5.5 h 14.4 v 51.7 h -14.4 z"
         id="path1199" />
    </g>
  </g>
  <path
     d="m 221.45098,1.32158 a 9.1776929,9.1776929 0 0 0 -9.16731,9.16733 v 167.51187 a 9.1776929,9.1776929 0 0 0 9.16731,9.16733 h 4.16697 a 9.1776929,9.1776929 0 0 0 9.16732,-9.16733 V 10.48891 a 9.1776929,9.1776929 0 0 0 -9.16732,-9.16733 z"
     fill="#e6e6e6"
     id="path1277"
     style="fill:#000000;stroke-width:0.833393" />
  <path
     d="m 221.45098,5.07185 a 5.4233267,5.4233267 0 0 0 -5.41704,5.41706 v 167.51187 a 5.4233184,5.4233184 0 0 0 5.41704,5.41706 h 4.16697 a 5.4233267,5.4233267 0 0 0 5.41704,-5.41706 V 10.48891 a 5.4233267,5.4233267 0 0 0 -5.41704,-5.41706 z"
     fill="#ffffff"
     id="path1279"
     style="stroke-width:0.833393" />
  <path
     d="m 238.06128,37.73525 h -28.80055 a 9.3705667,9.3705667 0 0 1 -9.36018,-9.36019 v -1.44002 a 9.3705667,9.3705667 0 0 1 9.36018,-9.36018 h 28.80055 a 9.3705667,9.3705667 0 0 1 9.36018,9.36018 v 1.44002 a 9.3705667,9.3705667 0 0 1 -9.36018,9.36019 z"
     fill="#4400aa"
     id="path1281"
     style="stroke-width:0.913864" />
  <path
     d="m 285.00133,1.32158 a 9.1776929,9.1776929 0 0 0 -9.16731,9.16733 v 167.51187 a 9.1776929,9.1776929 0 0 0 9.16731,9.16733 h 4.16697 a 9.1776929,9.1776929 0 0 0 9.16732,-9.16733 V 10.48891 A 9.1776929,9.1776929 0 0 0 289.1683,1.32158 Z"
     fill="#e6e6e6"
     id="path1288"
     style="fill:#000000;stroke-width:0.833393" />
  <path
     d="m 285.00133,5.07185 a 5.4233267,5.4233267 0 0 0 -5.41704,5.41706 v 167.51187 a 5.4233184,5.4233184 0 0 0 5.41704,5.41706 h 4.16697 a 5.4233267,5.4233267 0 0 0 5.41704,-5.41706 V 10.48891 A 5.4233267,5.4233267 0 0 0 289.1683,5.07185 Z"
     fill="#ffffff"
     id="path1290"
     style="stroke-width:0.833393" />
  <path
     d="m 301.61163,158.81348 h -28.80055 a 9.3705667,9.3705667 0 0 1 -9.36018,-9.36019 v -1.44002 a 9.3705667,9.3705667 0 0 1 9.36018,-9.36018 h 28.80055 a 9.3705667,9.3705667 0 0 1 9.36018,9.36018 v 1.44002 a 9.3705667,9.3705667 0 0 1 -9.36018,9.36019 z"
     fill="#4400aa"
     id="path1292"
     style="stroke-width:0.913864" />
</svg>
