<?xml version="1.0" encoding="UTF-8" standalone="no"?>
<svg
   data-name="Layer 1"
   width="781.72276"
   height="638.34614"
   viewBox="0 0 781.72276 638.34614"
   version="1.1"
   id="svg72"
   sodipodi:docname="qatent-vision.svg"
   inkscape:version="1.1.2 (0a00cf5339, 2022-02-04)"
   xmlns:inkscape="http://www.inkscape.org/namespaces/inkscape"
   xmlns:sodipodi="http://sodipodi.sourceforge.net/DTD/sodipodi-0.dtd"
   xmlns="http://www.w3.org/2000/svg"
   xmlns:svg="http://www.w3.org/2000/svg">
  <defs
     id="defs76" />
  <sodipodi:namedview
     id="namedview74"
     pagecolor="#ffffff"
     bordercolor="#666666"
     borderopacity="1.0"
     inkscape:pageshadow="2"
     inkscape:pageopacity="0.0"
     inkscape:pagecheckerboard="0"
     showgrid="false"
     inkscape:zoom="1.3675966"
     inkscape:cx="390.83162"
     inkscape:cy="319.17307"
     inkscape:window-width="2432"
     inkscape:window-height="1399"
     inkscape:window-x="0"
     inkscape:window-y="0"
     inkscape:window-maximized="1"
     inkscape:current-layer="svg72" />
  <path
     d="M323.85617,674.9065c49.33789-25.57617,151.32971-68.48291,280.06924-68.48291s230.7312,42.90674,280.06909,68.48291c48.03223,24.89966,86.66126,54.25775,104.85785,78.2113,6.633-9.02789-3.10223-169.64245-30.04388-233.33972A516.23463,516.23463,0,0,0,482.7452,204.22292,273.27037,273.27037,0,0,0,288.23983,284.7898q-1.62354,1.62355-3.21667,3.26932c-57.01738,58.89944-83.64048,140.84439-73.92029,222.24249,6.92036,57.952,23.97575,179.16519,48.07419,204.86612A458.81386,458.81386,0,0,1,323.85617,674.9065Z"
     transform="translate(-209.13862 -130.82693)"
     fill="#f2f2f2"
     id="path2" />
  <g
     id="s1"
     style="fill:#4400aa;fill-opacity:1;stroke:#4400aa"
     transform="matrix(3.4984331,0,0,3.4984331,31.90882,-515.19683)">
    <path
       transform="scale(1.05)"
       style="fill-rule:nonzero;stroke-width:0.5px;shape-rendering:geometricPrecision"
       d="m 127.6,149.5 q -4.4,0 -7,2.8 -2.4,2.8 -2.4,8.2 0,5.3 2.4,8.1 2.6,2.8 7,2.8 4.7,0 7.1,-2.8 2.6,-2.8 2.6,-8.1 0,-5.4 -2.6,-8.2 -2.4,-2.8 -7.1,-2.8 z m 9.7,24.2 q -3.1,3.4 -6.7,4.9 -3.7,1.5 -8.3,1.5 -8.4,0 -13.8,-5.5 -5.3,-5.5 -5.3,-14.1 0,-8.7 5.3,-14.2 5.4,-5.5 13.8,-5.5 4.6,0 8.3,1.6 3.6,1.5 6.7,4.8 v -5.5 h 14.4 v 51.7 h -14.4 z"
       id="path1050" />
  </g>
  <ellipse
     cx="-202.75789"
     cy="546.03223"
     rx="80.630722"
     ry="17.1001"
     fill="#f2f2f2"
     id="ellipse6"
     transform="scale(-1,1)"
     style="stroke-width:0.991803" />
  <path
     d="M692.92877,242.72292c-75.14014-.00677-133.99878-13.62878-133.9972-31.01208.00092-10.42188,20.85773-19.71883,57.22229-25.50608a1,1,0,1,1,.33069,1.97248l-.00378.00062-.01264.002c-34.25537,5.452-55.5357,14.46863-55.53656,23.53113-.0014,15.71973,60.44587,29.00545,131.99738,29.0119s132.00122-13.26837,132.00262-28.9881c.0008-9.10058-21.41388-18.143-55.88751-23.59781a1.00008,1.00008,0,1,1,.30249-1.97715l.00324.0005.007.0011c36.59051,5.78992,57.5758,15.11114,57.57483,25.57355C826.93,229.11826,768.0689,242.72965,692.92877,242.72292Z"
     transform="translate(-209.13862 -130.82693)"
     fill="#3f3d56"
     id="path8" />
  <path
     d="M698.2843,230.81126c-64.74915,38.12594-122.37849,56.25763-131.19872,41.27822-5.28806-8.98064,7.96558-27.57583,36.36281-51.01663a1,1,0,1,1,1.28592,1.5318l-.00294.00246-.00987.00813c-26.75,22.08157-40.51077,40.65014-35.91251,48.45942,7.97616,13.54587,66.80371-5.68177,128.4605-41.98685s107.00762-78.42029,99.03146-91.96615c-4.61764-7.84207-27.65875-4.7662-60.13169,8.0281a1.00008,1.00008,0,1,1-.74271-1.85716l.003-.0012.0066-.00262c34.46706-13.57981,57.27967-16.19754,62.58824-7.18195C806.8446,151.08626,763.03344,192.68529,698.2843,230.81126Z"
     transform="translate(-209.13862 -130.82693)"
     fill="#3f3d56"
     id="path10" />
  <ellipse
     cx="-200.47591"
     cy="545.88568"
     rx="54.696896"
     ry="9.2179003"
     fill="#e6e6e6"
     id="ellipse12"
     transform="scale(-1,1)"
     style="stroke-width:0.991803" />
  <ellipse
     cx="217.51991"
     cy="585.24891"
     rx="93.55163"
     ry="19.51648"
     fill="#f2f2f2"
     id="ellipse14" />
  <ellipse
     cx="598.52003"
     cy="609.24604"
     rx="139.49066"
     ry="29.1001"
     fill="#f2f2f2"
     id="ellipse16" />
  <ellipse
     cx="217.23514"
     cy="584.62159"
     rx="71.71089"
     ry="11.88794"
     fill="#e6e6e6"
     id="ellipse18" />
  <ellipse
     cx="598.5508"
     cy="607.39741"
     rx="122.60254"
     ry="20.32446"
     fill="#e6e6e6"
     id="ellipse20" />
  <circle
     cx="57.78679"
     cy="316.89595"
     r="7"
     fill="#fff"
     id="circle22" />
  <circle
     cx="547.78682"
     cy="418.89595"
     r="7"
     fill="#fff"
     id="circle24" />
  <path
     d="m 293.05964,242.7623 c -16.7172,4.84979 -16.0748,15 -35.90409,15 -19.82929,0 -35.9041,2.67312 -35.9041,-15 0,-17.67312 7.89241,-50.52667 35.9041,-49 30.14877,1.64316 46.03955,46.05963 35.90409,49 z"
     fill="#2f2e41"
     id="path26"
     style="stroke-width:0.991803" />
  <path
     d="m 337.05495,392.41556 a 10.567273,10.74266 0 0 0 -6.15075,-15.23975 l -41.13346,-88.459 -18.81565,13.413 46.34932,82.73466 a 10.624572,10.80091 0 0 0 19.7505,7.551 z"
     fill="#ffb8b8"
     id="path28"
     style="stroke-width:0.991803" />
  <path
     d="m 301.80801,300.46109 a 4.7330644,4.81162 0 0 0 -0.54308,-3.97272 l -12.78917,-20.38208 a 13.158968,13.37737 0 0 0 -24.05661,10.84993 l 6.44221,23.35315 a 4.7382681,4.81691 0 0 0 6.49624,3.09632 l 21.84598,-9.93085 a 4.7329759,4.81153 0 0 0 2.60443,-3.01375 z"
     fill="#4400aa"
     id="path30"
     style="stroke-width:0.991803" />
  <polygon
     points="399.658,471.141 415.837,515.575 404.317,519.77 382.656,477.332 "
     fill="#ffb8b8"
     id="polygon32"
     transform="matrix(-0.98367378,0,0,1,596.73896,47.786147)" />
  <path
     d="m 208.29638,567.26031 -21.85428,-8.08923 v 0 l -5.01005,13.98846 v 0 l 35.61436,13.18244 v 0 a 14.643863,14.88691 0 0 0 -8.75003,-19.08167 z"
     fill="#2f2e41"
     id="path34"
     style="stroke-width:0.991803" />
  <path
     d="m 218.62676,536.51745 43.17057,-76.802 a 4.743275,4.822 0 0 0 -0.0512,-4.868 l -19.43975,-32.9371 a 4.7379041,4.81654 0 0 0 -8.51937,0.84149 l -36.75376,103.46817 a 4.7203062,4.79865 0 0 0 2.42821,5.98968 l 13.02311,6.27088 a 4.6953602,4.77329 0 0 0 2.01051,0.45892 4.761168,4.84019 0 0 0 4.13163,-2.42204 z"
     fill="#2f2e41"
     id="path36"
     style="stroke-width:0.991803" />
  <ellipse
     cx="-258.68777"
     cy="232.2419"
     fill="#ffb8b8"
     id="circle38"
     rx="24.160051"
     ry="24.561041"
     transform="scale(-1,1)"
     style="stroke-width:0.991803" />
  <path
     d="m 293.05257,343.49334 c 19.02634,-42.88855 -0.15478,-66.85885 -9.28462,-75.17337 a 14.319261,14.55692 0 0 0 -9.57125,-3.72134 h -34.03455 a 14.338029,14.576 0 0 0 -12.82469,21.09459 l 22.75197,46.25867 42.778,11.95954 z"
     fill="#4400aa"
     id="path40"
     style="stroke-width:0.991803" />
  <polygon
     points="336.7,479.884 336.698,527.172 324.438,527.171 318.606,479.883 "
     fill="#ffb8b8"
     id="polygon42"
     transform="matrix(-0.98367378,0,0,1,596.73896,47.786147)" />
  <path
     d="m 286.21182,571.45428 h -23.25785 v 14.88684 h 37.90165 a 14.643765,14.88681 0 0 0 -14.6438,-14.88684 z"
     fill="#2f2e41"
     id="path44"
     style="stroke-width:0.991803" />
  <path
     d="m 270.64787,556.90545 19.30808,-2.26416 a 4.7392518,4.81791 0 0 0 4.16381,-5.339 c -0.003,-0.027 -0.006,-0.054 -0.01,-0.0809 l -17.2323,-131.8999 a 3.6884127,3.74963 0 0 1 0.0717,-1.37668 l 17.3202,-72.64475 a 4.6832709,4.761 0 0 0 -0.74135,-3.92623 c -2.68584,-3.76423 -11.88845,-12.53656 -39.26272,-12.70276 h -0.0295 a 4.7554627,4.83439 0 0 0 -4.32537,2.82654 l -3.65161,8.16607 a 3.7013972,3.76283 0 0 1 -1.23236,1.51258 c -5.02614,3.61682 -29.37446,23.918 -15.07757,68.48852 14.05163,43.80734 32.05514,128.85483 35.52165,145.45877 a 4.7130565,4.79128 0 0 0 4.621,3.81439 4.8376388,4.91793 0 0 0 0.55622,-0.0325 z"
     fill="#2f2e41"
     id="path46"
     style="stroke-width:0.991803" />
  <path
     d="m 174.60363,238.40652 a 10.356009,10.52789 0 0 1 -0.26813,1.635 l 32.80273,36.7077 11.58534,-2.53825 6.0534,17.27377 -20.07994,6.5198 a 7.8693903,8 0 0 1 -8.92094,-3.15139 l -31.00644,-46.79547 a 10.325761,10.49714 0 1 1 9.83411,-9.65113 z"
     fill="#ffb8b8"
     id="path48"
     style="stroke-width:0.991803" />
  <path
     d="m 208.13127,278.30514 7.60488,21.37219 a 4.426532,4.5 0 0 0 6.2618,2.431 l 19.62218,-10.74711 a 12.293375,12.49741 0 0 0 -8.43123,-23.47918 l -21.77483,4.48211 a 4.4264337,4.4999 0 0 0 -3.2828,5.94095 z"
     fill="#4400aa"
     id="path50"
     style="stroke-width:0.991803" />
  <path
     d="m 229.12085,230.7623 h 9.55577 l 4.21567,-12 0.84294,12 h 4.56726 l 2.45919,-7 0.49184,7 c 11.95178,5.12668 23.28167,5.26828 33.93674,0 a 25.575518,26 0 0 0 -25.57552,-26 h -4.91837 a 25.575518,26 0 0 0 -25.57552,26 z"
     fill="#2f2e41"
     id="path52"
     style="stroke-width:0.991803" />
  <path
     d="M323.42538,570.72291h-3.5v-3.5a4.5,4.5,0,0,0-9,0v3.5h-3.5a4.5,4.5,0,0,0,0,9h3.5v3.5a4.5,4.5,0,0,0,9,0v-3.5h3.5a4.5,4.5,0,0,0,0-9Z"
     transform="translate(-209.13862 -130.82693)"
     fill="#fff"
     id="path54" />
  <path
     d="M838.58538,484.88291h-1.82v-1.82a2.34,2.34,0,0,0-4.68,0v1.82h-1.82a2.34,2.34,0,0,0,0,4.68h1.82v1.82a2.34,2.34,0,0,0,4.68,0v-1.82h1.82a2.34,2.34,0,0,0,.00824-4.68Z"
     transform="translate(-209.13862 -130.82693)"
     fill="#ff6584"
     id="path56" />
  <path
     d="M307.58538,363.88291h-1.82v-1.82a2.34,2.34,0,0,0-4.68-.0087v1.82871h-1.82a2.34,2.34,0,0,0-.00821,4.68h1.82821v1.82a2.34,2.34,0,0,0,4.68.0087v-1.82868h1.82a2.34,2.34,0,0,0,.01325-4.68h-.005Z"
     transform="translate(-209.13862 -130.82693)"
     fill="#4400aa"
     id="path58" />
  <path
     d="m 367.1035,280.84213 h 1.79029 v -1.82 a 2.3018006,2.340004 0 0 1 4.60359,-0.009 v 1.82871 h 1.79029 a 2.3018002,2.3400036 0 0 1 0.008,4.68 h -1.79836 v 1.82 a 2.3018006,2.340004 0 0 1 -4.60359,0.009 v -1.82868 h -1.79029 a 2.3018059,2.3400094 0 0 1 -0.013,-4.68 h 0.005 z"
     fill="#ffffff"
     id="path60"
     style="stroke-width:0.991803" />
  <path
     d="M907.58538,603.88288h-1.82v-1.82a2.34,2.34,0,0,0-4.68,0v1.82h-1.82a2.34,2.34,0,0,0,0,4.68h1.82v1.82a2.34,2.34,0,0,0,4.68,0v-1.82h1.82a2.34,2.34,0,0,0,0-4.68Z"
     transform="translate(-209.13862 -130.82693)"
     fill="#fff"
     id="path62" />
  <path
     d="m 116.26669,325.84213 h 1.79028 v -1.82 a 2.3018,2.3400034 0 0 1 4.6036,0 v 1.82 h 1.79028 a 2.3017967,2.34 0 0 1 0,4.68 h -1.79028 v 1.82 a 2.3018,2.3400034 0 0 1 -4.6036,0 v -1.82 h -1.79028 a 2.3018002,2.3400036 0 1 1 -0.008,-4.68 z"
     fill="#ffffff"
     id="path64"
     style="stroke-width:0.991803" />
  <path
     d="M376.58538,458.88291h-1.82v-1.82a2.34,2.34,0,0,0-4.68-.0087v1.82871h-1.82a2.34,2.34,0,1,0-.00821,4.68h1.82821v1.82a2.34,2.34,0,0,0,4.68.0087v-1.82868h1.82a2.34,2.34,0,0,0,.00821-4.68Z"
     transform="translate(-209.13862 -130.82693)"
     fill="#fff"
     id="path66" />
  <path
     d="M382.58538,292.88291h-1.82v-1.82a2.34,2.34,0,0,0-4.68-.0087v1.82871h-1.82a2.34,2.34,0,0,0-.00821,4.68h1.82821v1.82a2.34,2.34,0,0,0,4.68.0087v-1.82868h1.82a2.34,2.34,0,0,0,.00821-4.68h0Z"
     transform="translate(-209.13862 -130.82693)"
     fill="#fff"
     id="path68" />
  <path
     d="M693.42663,228.32616c-72.43628-36.59033-133.18048-24.70074-133.99719-31.01208.00091-10.42188,20.85772-19.71884,57.22229-25.50609a1,1,0,1,1,.33069,1.97247l-.00379.00063-.01263.002c-34.25537,5.452-55.53571,14.46862-55.53656,23.53112-.00141,15.71973,60.44586,29.00545,131.99737,29.01191S825.428,213.05774,825.42944,197.338c.00079-9.10059-21.41388-18.143-55.88751-23.59781a1.00008,1.00008,0,1,1,.30249-1.97716l.00323.00051.007.00109c36.59051,5.78992,57.57581,15.11115,57.57483,25.57355C827.42791,214.72155,760.4956,262.20527,693.42663,228.32616Z"
     transform="translate(-209.13862 -130.82693)"
     fill="#3f3d56"
     id="path70" />
</svg>
