<svg version="1.1" id="Layer_1" xmlns="http://www.w3.org/2000/svg" x="0" y="0" viewBox="0 0 720 400" style="enable-background:new 0 0 720 400" xml:space="preserve"><style>.st0{fill:#7703fc}.st2,.st3,.st4{fill:none;stroke:#1a2e35;stroke-linecap:round;stroke-linejoin:round;stroke-miterlimit:10}.st3,.st4{fill:#1a2e35}.st4{fill:#fff}.st5{fill:#1a2e35}.st7{fill:#7703fc;stroke:#1a2e35;stroke-linecap:round;stroke-linejoin:round;stroke-miterlimit:10}</style><path class="st0" d="M0 0h720v400H0z"/><path style="opacity:.7;fill:#fff" d="M0 0h720v400H0z"/><path class="st0" d="M496.6 349.5s-25.6-39-21.7-47.9c3.8-8.9 17.3 6.4 17.3 6.4s-19.8-52.4-6.4-63.9 17.9 47.3 17.9 47.3 12.1-33.9 21.7-21.1c9.6 12.8-14.7 39.6-14.7 39.6s16.6.6 12.1 11.5c-4.5 10.9-16.6 22.4-16.6 22.4l-9.6 5.7z"/><path class="st2" d="M489.6 340.5s-15.3-21.7-7.7-26.2c7.7-4.5 11.5 8.9 11.5 8.9s.6-58.8 12.8-54.3c12.1 4.5 7.7 40.3 7.7 40.3s15.3-10.2 14.7 4.5c-.6 14.7-21.1 27.5-21.1 27.5M503.6 341.8l-13.4-14.7M504.3 348.8l-.7-36.4M504.9 336.7l12.2-16"/><path class="st3" d="M515.8 338h-33.9l3.4 30h27.1z"/><path class="st4" d="M463.8 368H305.4c-4.2 0-7.7-3.4-7.7-7.7V47.6c0-4.2 3.4-7.7 7.7-7.7h158.3c4.2 0 7.7 3.4 7.7 7.7v312.7c0 4.3-3.4 7.7-7.6 7.7z"/><path class="st5" d="M401.8 58.1h-34.4c-1.3 0-2.3-1-2.3-2.3 0-1.3 1-2.3 2.3-2.3h34.4c1.3 0 2.3 1.1 2.3 2.3 0 1.2-1 2.3-2.3 2.3z"/><path d="M394 346.4c0-5.2-4.2-9.4-9.4-9.4s-9.4 4.2-9.4 9.4 4.2 9.4 9.4 9.4 9.4-4.2 9.4-9.4z" style="fill:#fff;stroke:#1a2e35;stroke-width:.7043;stroke-linecap:round;stroke-linejoin:round;stroke-miterlimit:10"/><path class="st5" d="M379.8 341.7h9.5v9.5h-9.5z"/><path id="XMLID_2_" class="st7" d="M305.5 76h158.2v256H305.5z"/><path class="st3" d="M305.5 76h158.2v16.4H305.5z"/><path class="st2" d="M377.1 96.4h17.7M365.9 99.7h42.3"/><path class="st5" d="M331.1 124.8c-.1 0-.3 0-.4-.1-.5-.2-.7-.8-.4-1.3L344 95.7c.2-.3.5-.5.9-.5s.7.2.8.5l12.5 27.2c.2.5 0 1-.5 1.2-.5.2-1 0-1.2-.5l-11.7-25.4-12.9 25.9c-.1.5-.5.7-.8.7z"/><path class="st4" d="M327.2 121.2h34l8.5 28.3c.8 2.8.3 5.8-1.4 8.2h0c-1.7 2.4-4.5 3.7-7.4 3.7h-32.3c-3 0-5.7-1.4-7.5-3.8l-.4-.5c-1.7-2.3-2.2-5.2-1.4-8l7.9-27.9zM446 161.4h-42.4c-4.3 0-7.7-3.5-7.7-7.7V125h57.8v28.6c0 4.3-3.5 7.8-7.7 7.8z"/><path class="st2" d="m395.9 125 6.2 16.3c1 2.7 3.6 4.4 6.5 4.4h32.9c2.9 0 5.6-1.9 6.5-4.6l5.6-16.1"/><path class="st4" d="M419.5 142.8h12.8v5.5h-12.8zM415.4 124.8l-22.9 23.8 1.5 2.2 24.8-25.5z"/><path class="st5" d="M353.7 176.5h-19.3c-2.6 0-4.7-2.1-4.7-4.7s2.1-4.7 4.7-4.7h19.3c2.6 0 4.7 2.1 4.7 4.7s-2.1 4.7-4.7 4.7zM433.2 176.5h-19.3c-2.6 0-4.7-2.1-4.7-4.7s2.1-4.7 4.7-4.7h19.3c2.6 0 4.7 2.1 4.7 4.7s-2.1 4.7-4.7 4.7zM361 205.1c-.4 0-.8-.3-.9-.7 0-.2-3.8-15.2-15.1-14.5-11.8.8-16 13.8-16.1 14-.2.5-.7.8-1.2.6-.5-.2-.8-.7-.6-1.2 0-.1 4.6-14.4 17.7-15.3 12.9-.8 17 15.7 17.1 15.9.1.5-.2 1-.7 1.1 0 .1-.1.1-.2.1z"/><path class="st4" d="M326.8 201.5s12.5 4.1 34.9 0L366 228c.3 1.9-.1 3.8-1.3 5.4l-.4.6c-1.3 1.9-3.5 3-5.8 3h-28.4c-2.8 0-5.3-1.6-6.5-4.1h0c-.6-1.3-.8-2.7-.6-4.1l3.8-27.3z"/><path class="st2" d="M361.7 201.5s-.5 18.5-16.6 18.5-18.3-18.5-18.3-18.5"/><path class="st2" d="M340.5 216.2h8.7v7.5h-8.7z"/><path class="st5" d="M409.7 200.3c-.1 0-.3 0-.4-.1-.5-.2-.7-.8-.4-1.3l13.7-20.3c.2-.3.5-.5.9-.5s.7.2.8.5l12.5 19.8c.2.5 0 1-.5 1.2-.5.2-1 0-1.2-.5l-11.7-18-12.9 18.5c-.2.5-.5.7-.8.7z"/><path class="st4" d="M405.8 196.7h34l8.5 28.3c.8 2.8.3 5.8-1.4 8.2h0c-1.7 2.4-4.5 3.7-7.4 3.7h-32.3c-3 0-5.7-1.4-7.5-3.8l-.4-.5c-1.7-2.3-2.2-5.2-1.4-8l7.9-27.9z"/><path class="st5" d="m402.4 208.8-2.3 8.2h45.8l-2.5-8.2zM397.9 224.7c-.7 2.4-.3 5 .9 7.2h48.8c1.1-2.1 1.3-4.6.6-6.9l-.4-1.3h-49.7l-.2 1zM405.8 196.7l-1.5 5.3h37.1l-1.6-5.3zM353.7 250.5h-19.3c-2.6 0-4.7-2.1-4.7-4.7s2.1-4.7 4.7-4.7h19.3c2.6 0 4.7 2.1 4.7 4.7s-2.1 4.7-4.7 4.7zM433.2 250.5h-19.3c-2.6 0-4.7-2.1-4.7-4.7s2.1-4.7 4.7-4.7h19.3c2.6 0 4.7 2.1 4.7 4.7s-2.1 4.7-4.7 4.7zM332.7 280.8c-.5 0-.9-.4-.9-.9v-8.5c0-6.6 5.3-11.9 11.9-11.9h.2c6.6 0 11.9 5.3 11.9 11.9v8.1c0 .5-.4.9-.9.9s-.9-.4-.9-.9v-8.1c0-5.5-4.5-10-10-10h-.2c-5.5 0-10 4.5-10 10v8.5c-.1.5-.6.9-1.1.9z"/><path class="st4" d="M325.6 276.3s11 3.3 37.4 0l4.6 28.3c.3 2-.2 4.1-1.3 5.7l-.5.7c-1.4 2-3.8 3.2-6.2 3.2h-30.4c-3 0-5.6-1.7-6.9-4.4h0c-.7-1.4-.9-2.9-.7-4.4l4-29.1z"/><path class="st5" d="M332.5 309c0-5.5-4.4-9.9-9.9-9.9h-.2l-.9 6.3c-.2 1.5 0 3 .7 4.4 1.3 2.7 4 4.4 6.9 4.4h1.9c.9-1.5 1.5-3.3 1.5-5.2zM356.1 309c0 1.9.5 3.6 1.5 5.1h1.9c2.5 0 4.8-1.2 6.2-3.2l.5-.7c1.2-1.7 1.7-3.7 1.3-5.7l-.9-5.4h-.7c-5.4.1-9.8 4.5-9.8 9.9z"/><path class="st2" d="M343.6 278v36.3"/><path class="st4" d="M446.8 314.3h-47.4c-1.4 0-2.6-1.2-2.6-2.6v-25.4c0-1.4 1.2-2.6 2.6-2.6h47.4c1.4 0 2.6 1.2 2.6 2.6v25.4c0 1.5-1.2 2.6-2.6 2.6z"/><path class="st2" d="m397.1 285.2 23.4 17.5c1.4 1 3.3 1 4.6 0l23.2-18"/><path class="st4" d="M422.6 308.1h0c-1.5 0-2.6-1.2-2.6-2.6V284h5.3v21.4c0 1.5-1.2 2.7-2.7 2.7z"/><path class="st5" d="M353.7 327.8h-19.3c-2.6 0-4.7-2.1-4.7-4.7s2.1-4.7 4.7-4.7h19.3c2.6 0 4.7 2.1 4.7 4.7s-2.1 4.7-4.7 4.7zM433.2 327.8h-19.3c-2.6 0-4.7-2.1-4.7-4.7s2.1-4.7 4.7-4.7h19.3c2.6 0 4.7 2.1 4.7 4.7s-2.1 4.7-4.7 4.7z"/><path class="st4" d="M216.2 216.7s-5.6 9.8-7.3 29.5c-1.6 19.6 9.1 38.6 15 48 5.8 9.4-1.4 17.8-2.3 23.4-.9 5.6-.5 15.7 5.1 22.5 5.6 6.8 7 18.5 6.8 22.5-.2 4 .5 4.9 1.6 4.9 1.2 0 22.5 1.4 26 0l5.6-.5s.9-2.1-.9-3-7.5-2.8-9.4-6.3c-1.9-3.5-2.1-9.6-1.4-12.4.7-2.8 5.1-16.8 6.1-25.5.9-8.7 1.4-23.9 1.4-27.4s8.7-14.5 9.8-27.6c1.2-13.1-3.3-39.5-3.3-39.5l-52.8-8.6z"/><path class="st7" d="M265.8 363.9c-1.9-.9-7.5-2.8-9.4-6.3-.5-.9-.9-2.1-1.2-3.3-.8.1-3.7.5-4.7 2.1-1.2 1.9-3.3 2.6-3.3 2.6l-5.1-.5s-.2 4.9.7 7.3c.3.6-.9.9.1 1.6 6.6.2 18.4.8 21.4.2l2.4-.7s1-2.1-.9-3z"/><path class="st7" d="M257.8 364.6c-3.7-1.2-8.9-5.1-10.3-6.8-1.4-1.6-2.8-2.3-2.8-2.3s-3-1.2-4 1.2l-.9 2.3-6.5-.5c.2 1.7.2 3.1.2 4-.2 4 .5 4.9 1.6 4.9 1 0 18.1 1.1 24.2.4.4-1.4.2-2.7-1.5-3.2z"/><path class="st3" d="M255 345.2c.7-2.8 5.1-16.8 6.1-25.5.9-8.7 1.4-23.9 1.4-27.4s8.7-14.5 9.8-27.6c1.2-13.1-3.3-39.5-3.3-39.5l-52.9-8.4s-5.6 9.8-7.3 29.5c-1.6 19.6 9.1 38.6 15 48 5.8 9.4-1.4 17.8-2.3 23.4-.9 5.6-.5 15.7 5.1 22.5 1.8 2.2 3.2 4.8 4.2 7.6 2.5 1.2 6.6 1.7 12.7-1.7 0 0 4.3 3.4 11.2 1.2.1-.9.2-1.6.3-2.1z"/><path d="m255.5 254.4-6.3 3.5s-.9 31.6-.9 42.8c0 11.2-3 14.5-4 29.9-.9 15.4.5 24.8.5 24.8" style="fill:none;stroke:#7d7d7d;stroke-linecap:round;stroke-linejoin:round;stroke-miterlimit:10"/><path class="st7" d="M267.5 165.3s8 2.7 11 10.2 3.7 21.4 3.7 28.5c0 7.1 2.4 13-.8 17.5-3.1 4.5-9.4 3.9-12.4-.2-2.9-4.1-2.6-6.7-1.4-15.9 1.2-9.2.8-26.9-.2-30.4s-4.5-9.8-4.5-9.8 2.9-1.1 4.6.1z"/><path class="st4" d="M282.6 209.5c-.2-.3-.5-.5-.8-.8-5.6-4.5-11.1-2.4-11.1-2.4l-3.6 4.1c-.6 5.2-.3 7.5 2 10.7 2.9 4.1 9.2 4.7 12.4.2 2.2-3.1 1.6-7.2 1.1-11.8z"/><path class="st4" d="M268.3 215.2s1.4-5.9 4.3-6.9 8.6 1.8 10.6 5.3-2 8.6-2 8.6 3.5-.8 3.9-8c.4-7.3-7.9-10-11.8-10.2-3.8-.2-6 8.4-5 11.2z"/><path class="st0" d="M272 179.6c.8 2.7 2.2 12.2 2 19.2-.2 7.1-3.9 12-4.1 15.7-.2 3.7 1.6 10.4 1 11.4s-10.6 6.7-23.8 5.3c-13.2-1.4-28.7-4.9-31.2-9.4-2.6-4.5 2.6-36.1 2.7-39.7.2-3.5 3.3-19.2 9.4-21.2 6.1-2 20.4-1.8 20.4-1.8s15.7 4.7 16.3 4.9c.6.2-2.6-1.2 1.8.8 4.3 2 5.1 8 5.3 9"/><path class="st4" d="M244.7 155.3s-4.7 2.9-4.7 4.9c0 2 2.2 19.8 2.2 19.8l14.1-5.9 11.2 6.5s-2.4-10.6-4.5-15.5c-2.2-4.9-5.9-8.4-10.6-10-4.7-1.6-7.7.2-7.7.2z"/><path class="st4" d="M244.9 156.6s1.6 8.6 3.1 12.6c2 4.9 5.9 13.9 5.9 13.9s3.9-6.3 5.1-11.6c1.2-5.3 2.4-13.9 2.4-13.9s-13.2-3.7-13.7-4.1c-.6-.4-3.5 1.2-2.8 3.1z"/><path class="st3" d="M281.7 118.4s-10.6-11.4-20-10.4-20 14.9-24.9 23.4c-4.9 8.4 2 24.7 11.8 27.9 9.8 3.1 14.5 1.2 14.5 1.2s7.1 5.3 13.7 1.4c6.7-3.9 6.9-9.6 6.3-14.5-.6-4.9 5.1-5.7 7.1-11.8 1.9-6.2-8.5-17.2-8.5-17.2z"/><path class="st4" d="M275.4 129.4s-.8 2.6 2 8c2.7 5.5 3.1 8.6 2.7 12.2-.4 3.5-2.9 7.1-5.7 9.6-2.7 2.6-6.7 4.5-10.4 3.9-3.7-.6-6.9-6.1-6.9-6.9 0-.7-4.3-20.6 18.3-26.8z"/><path class="st2" d="m276.5 143.9-1.4 1.8s-1 5.5-1.6 5.5-2.9-.8-2.9-.8M268.7 154.5s-3.5-.2-3.1-2.9"/><path class="st5" d="M270.2 143.4c-.5 1-1.3 1.7-1.8 1.4-.5-.2-.6-1.3-.1-2.3.5-1 1.3-1.7 1.8-1.4.5.3.5 1.3.1 2.3zM278.6 146.2c-.5 1-1.3 1.7-1.8 1.4-.5-.2-.6-1.3-.1-2.3.5-1 1.3-1.7 1.8-1.4.5.2.6 1.3.1 2.3z"/><path class="st2" d="M267.5 138.6s2.9-2 5.7.2M277.3 142.1s1.2-.8 2.4.6"/><path class="st4" d="M235.3 160.3s-11.1.3-17.4 2.4c-6.3 2.2-8 13.2-8 18.7s-1.8 38.5-.6 40.8c1.2 2.4 42-15.9 42-15.9s.8.8 2.9.8c2.2 0 3.7-1 3.7-1l-.4 2.6s-3.3 1.4-2 2.4c1.4 1 6.5-1 7.1-1.4.6-.4 5.9-2 6.9-3.5 1-1.6-.8-5.9-.8-5.9s2.9 1.6 4.5 2.7c1.6 1.2 2.9 2.2 3.7 0 .8-2.2-4.7-4.3-6.7-5.5-2-1.2-3.5-2-6.5-1.8-2.9.2-16.3 4.9-16.3 4.9s-.8.2-5.9.6c-5.2.4-16.7.8-16.7.8l5.1-21.6"/><path class="st5" d="M244.1 200.8s-1.1 5 1.9 7.6l2.6-.8s-2.4-4-1.1-7c.2-.4-2.4-.5-3.4.2z"/><ellipse class="st4" cx="245.4" cy="203.6" rx="2.2" ry="2.1"/><path class="st2" d="M261.2 202.4s3.1 5.9 1.4 7.3M264.8 200.2s3.5 4.1 1.8 7.3"/><path class="st7" d="M235.3 160.3c-3.5.2-13.5 1.1-17.4 2.4-6.3 2.2-8 13.2-8 18.7 0 4.7-1.3 29-.9 37.8 3.7-12.6 16.1-17.2 16.1-17.2l6-23.8"/><path class="st4" d="M224.9 202s-6.7 5.7-8.8 12.4c-2.2 6.7-1.2 6.7-1.2 6.7s-.4 2.2-2.6 2.9c-2.2.8-6.3-1.4-6.7-4.1-.4-2.7.8-5.1 5.7-11.8 5-6.7 11.3-7.9 13.6-6.1z"/><path class="st3" d="M283.8 199.4 273.4 215l10.4.7 11.8-15.5z"/><path class="st4" d="M276.4 215s-3.1 1.2-.6 3.1c2.6 2 6.7 1.2 8-1.4 1.4-2.5-7.4-1.7-7.4-1.7z"/><path class="st4" d="M284.6 215s-7.1-2.2-8.2 0c-1.2 2.2 6.3 2.9 8 2.9 1.8 0 1.2-2.5.2-2.9z"/><path class="st4" d="M287.3 213.2s-7.1-2.2-8.2 0c-1.2 2.2 6.3 2.9 8 2.9 1.8 0 1.2-2.5.2-2.9z"/><path class="st4" d="M289.3 210.1s-7.1-2.2-8.2 0c-1.2 2.2 6.3 2.9 8 2.9 1.8 0 1.2-2.6.2-2.9z"/><path class="st2" d="M199.2 368h344.2M176.6 368h10.9"/></svg>