<svg version="1.1" id="Layer_1" xmlns="http://www.w3.org/2000/svg" x="0" y="0" viewBox="0 0 720 400" style="enable-background:new 0 0 720 400" xml:space="preserve"><style>.st0{fill:#7703fc}.st3{opacity:.2;enable-background:new}.st4{fill:#af0}.st5{fill:#263238}.st7{fill:#7703fc;stroke:#263238;stroke-linecap:round;stroke-linejoin:round}.st8{opacity:.1;enable-background:new}.st11,.st12,.st9{stroke:#263238;stroke-linecap:round;stroke-linejoin:round}.st9{fill:none;stroke-miterlimit:10}.st11,.st12{fill:#fff}.st12{fill:none}.st13{opacity:.2;fill:#fff;enable-background:new}.st14{fill:#e6ebed}</style><path class="st0" d="M0 0h720v400H0z"/><path style="opacity:.7;fill:#fff;enable-background:new" d="M0 0h720v400H0z"/><ellipse cx="341.1" cy="356.2" rx="204.4" ry="24.7" style="fill:#cdaeff"/><ellipse class="st3" cx="341.1" cy="356.2" rx="204.4" ry="24.7"/><g id="Plants--inject-125_3_"><path class="st4" d="M529.7 248.8c1.7-1.5 3.6-3.9 3.5-6.7-.1-2.7-2.1-5.2-4.5-5.1-3.4.2-6.1 6.1-6.6 9.5-.1.3-.3 5-.2 5-.1.1 5.7-1 7.8-2.7z"/><path class="st0" d="M531.9 333.5c.6.4 5.4 3.5 7.9 3.9 2.3.3 5.2 0 6.6-2 1.5-2.2 1.1-5.2-.9-6.9-2.9-2.4-8.5-.3-10.8 1.7-.1.1-1.7 1.9-2.5 2.8.5-.9.9-1.8 1.5-2.8.7-1.4 1.5-2.8 2.3-4.2l1.3-2.1c.4-.7.9-1.3 1.4-2 .7-1 1.5-1.9 2.2-3 1.2 1.1 4.9 4.2 7.1 4.9 2.2.7 5.2.9 6.9-.8 1.8-1.9 1.8-4.9 0-6.9-2.6-2.9-8.5-1.8-11.1-.3-.1.1-.6.4-1.2.9.8-.9 1.5-1.9 2.3-2.8 2.2-2.6 4.6-5.1 7.1-7.6l1.5-1.6c1 .9 5.1 4.3 7.3 5s5.2.9 6.9-.8c1.8-1.9 1.8-4.9 0-6.9-2.6-2.9-8.5-1.8-11.1-.3-.1.1-.7.5-1.4 1.1 1.3-1.4 2.6-2.8 3.8-4.3 2.1-2.5 4.1-5.2 5.8-8 .4.3 5 4.4 7.5 5.2 2.2.7 5.2.9 6.9-.8 1.8-1.9 1.8-4.9 0-6.9-2.6-2.9-8.5-1.8-11.1-.3-.2.1-2.4 1.8-3.1 2.5l.1-.1c1.7-2.9 3.1-5.9 4.3-9.1 1.1-2.9 2-5.8 2.7-8.7.7-2.8 1.2-5.4 1.7-7.7.2-1.3.4-2.4.6-3.5v.1c0 .1 2.3-3.6 2.4-3.9 1.4-2.9 2.5-9.8.1-12.8-.2-.3-.5-.7-.9-.9-1.6-1.2-3.9-.9-5.1.8-1.5 1.9-1.5 5.3-.9 8s3.5 7.4 4.2 8.6c-.2 1.1-.4 2.3-.7 3.6-.5 2.3-1 4.9-1.8 7.6-.2.7-.4 1.5-.7 2.3.2-1.4.3-3.3.3-3.5 0-3.5-1.8-10.4-5-12-2.3-1.2-4.5.4-5 3s.9 5.7 2.4 7.9c1.6 2.2 6 5.2 7 5.8-.5 1.7-1.1 3.3-1.8 5-1.2 3.1-2.7 6-4.4 8.8l-.2-.1c.3-1.2.8-3.9.8-4.1.3-3.4-.8-10.5-4-12.4-2.2-1.4-4.6-.2-5.4 2.4-.7 2.5.4 5.8 1.7 8.1 1.5 2.6 6.5 6.6 6.6 6.7-1.7 2.6-3.7 5.2-5.8 7.6-1.5 1.8-3.1 3.4-4.8 5.1.2-.9.9-4.3.9-4.6.3-3.4-.8-10.5-4-12.5-2.2-1.4-4.6-.1-5.4 2.4-.7 2.5.4 5.8 1.7 8.1 1.5 2.6 6.2 6.4 6.6 6.7l-2.2 2.3c-2.5 2.4-4.9 4.9-7.3 7.5l-2.4 2.7c.3-1.3.8-3.7.8-3.9.3-3.4-.8-10.5-4-12.5-2.2-1.4-4.6-.1-5.4 2.4-.7 2.5.4 5.8 1.7 8.1 1.3 2.3 5.2 5.6 6.4 6.5-1.3 1.5-2.5 3-3.7 4.6-.4.7-1 1.4-1.5 2.1l-1.3 2.1c-.9 1.5-1.7 2.8-2.4 4.2-.4.7-.7 1.3-1.1 2 .5-1.3 1.2-3.3 1.2-3.5.8-3.3.5-10.4-2.3-12.8-.3-.3-.7-.6-1.2-.7-1.8-.7-3.9.2-4.6 2.1l-.3.9c-2 1.9-3.5 4.4-4.3 7.1-.1.2-.5 2.8-.6 4.1-.1-1.1-.2-2.2-.2-3.4-.1-1.7-.2-3.5-.2-5.2v-2.7c0-.9.1-1.8.1-2.7.1-1.3.2-2.7.3-4 1.5.2 5.7.6 7.9-.2 2.1-.8 4.5-2.6 5-5.2s-.8-5.5-3.3-6.2c-3.4-.9-7.5 3.9-8.8 6.9 0 .1-.3.8-.5 1.6.2-1.3.3-2.6.5-4 .5-3.8 1.2-7.5 1.8-11.4.1-.8.3-1.6.4-2.4 1.2.1 5.9.6 8.1-.2 2.1-.8 4.5-2.6 5-5.2s-.8-5.5-3.3-6.2c-3.4-.9-7.5 3.9-8.8 6.9-.1.1-.3.9-.6 1.8.3-2.1.6-4.2.9-6.2.4-3.6.7-7.2.7-10.8.4.1 6 .8 8.3-.2 2.1-.8 4.5-2.6 5-5.2s-.8-5.5-3.3-6.2c-3.4-.9-7.5 3.9-8.8 6.9-.1.2-1 3.1-1.3 4.2v-.1c-.1-3.6-.4-7.2-1-10.8-.5-3.2-1.2-6.4-2.1-9.5-.8-2.9-1.6-5.6-2.4-7.9-.4-1.3-.8-2.4-1.2-3.5h.1v-5c-.3-3.5-2.7-10.3-6-11.4-2.4-.8-4.5 1-4.7 3.7s1.4 5.7 3.1 7.7 6.2 4.4 7.4 5c.4 1.1.8 2.3 1.2 3.6.7 2.3 1.5 5 2.2 7.9l.6 2.4c-.6-1.3-1.3-3.1-1.4-3.3-1.6-3.1-6.4-8.1-9.7-7.4-2.4.5-3.4 3.3-2.5 6s3.4 4.5 5.7 5.5c2.3 1 7.2.8 8.2.7.4 1.8.7 3.7 1 5.6.5 3.5.8 7.1.8 10.7h-.2c-.4-1.3-1.2-4-1.3-4.2-1.4-3.3-5.7-8.8-9.1-8.6-2.4.2-3.7 2.8-3 5.6.6 2.7 3.1 4.9 5.2 6.1 2.4 1.4 8.2 1.7 8.4 1.7-.1 3.5-.4 7-.8 10.4-.3 2.5-.8 5.1-1.2 7.6-.3-.9-1.4-4.4-1.5-4.7-1.4-3.3-5.7-8.8-9.1-8.6-2.4.2-3.7 2.8-3 5.6.6 2.7 3.1 4.9 5.2 6.1 2.4 1.4 7.9 1.7 8.4 1.7-.2 1.2-.4 2.3-.6 3.5-.7 3.8-1.5 7.6-2.1 11.3l-.6 3.9c-.4-1.4-1.2-3.8-1.3-4-1.4-3.3-5.7-8.8-9.1-8.6-2.4.2-3.7 2.8-3 5.6.6 2.7 3.1 4.9 5.2 6.1s6.8 1.6 8.1 1.7c-.3 2.2-.5 4.3-.7 6.5 0 .9-.1 1.9-.1 2.8v2.7c0 1.9.1 3.6.1 5.3 0 .9.1 1.7.1 2.5-.2-1.4-.7-3.7-.7-3.9-1-3.4-4.6-9.6-8-9.9-2.4-.2-4.1 2.1-3.8 4.9.3 2.8 2.5 5.3 4.4 6.9 2.2 1.7 7.5 3 8.1 3.2.1 2.1.2 4.1.3 6 .4 5.4.9 10 1.3 13.4h2.3c-.5-3.3-1-8-1.5-13.4-.2-1.7-.3-3.5-.4-5.4.6 0 5.6-.3 7.8-1.5 1.2 1.6 2.4 3 3.8 4.5-.9 1.7-1.8 3.3-2.6 4.9-2.2 4.3-3.9 8.1-5.2 11h2.6c1.1-2.7 2.6-6 4.4-9.7.9-1.4 1.6-3 2.2-4.3z"/><path class="st0" d="M586 275.1c1.3-2.3.6-5.3-1.5-6.8-3.1-2-8.4.8-10.5 3.1-.2.2-2.6 3.7-2.6 3.7s5.7 2.9 8.3 2.9c2.3 0 5.1-.7 6.3-2.9z"/><path class="st3" d="M529.7 248.8c1.7-1.5 3.6-3.9 3.5-6.7-.1-2.7-2.1-5.2-4.5-5.1-3.4.2-6.1 6.1-6.6 9.5-.1.3-.3 5-.2 5-.1.1 5.7-1 7.8-2.7z"/><path class="st3" d="M531.9 333.5c.6.4 5.4 3.5 7.9 3.9 2.3.3 5.2 0 6.6-2 1.5-2.2 1.1-5.2-.9-6.9-2.9-2.4-8.5-.3-10.8 1.7-.1.1-1.7 1.9-2.5 2.8.5-.9.9-1.8 1.5-2.8.7-1.4 1.5-2.8 2.3-4.2l1.3-2.1c.4-.7.9-1.3 1.4-2 .7-1 1.5-1.9 2.2-3 1.2 1.1 4.9 4.2 7.1 4.9 2.2.7 5.2.9 6.9-.8 1.8-1.9 1.8-4.9 0-6.9-2.6-2.9-8.5-1.8-11.1-.3-.1.1-.6.4-1.2.9.8-.9 1.5-1.9 2.3-2.8 2.2-2.6 4.6-5.1 7.1-7.6l1.5-1.6c1 .9 5.1 4.3 7.3 5s5.2.9 6.9-.8c1.8-1.9 1.8-4.9 0-6.9-2.6-2.9-8.5-1.8-11.1-.3-.1.1-.7.5-1.4 1.1 1.3-1.4 2.6-2.8 3.8-4.3 2.1-2.5 4.1-5.2 5.8-8 .4.3 5 4.4 7.5 5.2 2.2.7 5.2.9 6.9-.8 1.8-1.9 1.8-4.9 0-6.9-2.6-2.9-8.5-1.8-11.1-.3-.2.1-2.4 1.8-3.1 2.5l.1-.1c1.7-2.9 3.1-5.9 4.3-9.1 1.1-2.9 2-5.8 2.7-8.7.7-2.8 1.2-5.4 1.7-7.7.2-1.3.4-2.4.6-3.5v.1c0 .1 2.3-3.6 2.4-3.9 1.4-2.9 2.5-9.8.1-12.8-.2-.3-.5-.7-.9-.9-1.6-1.2-3.9-.9-5.1.8-1.5 1.9-1.5 5.3-.9 8s3.5 7.4 4.2 8.6c-.2 1.1-.4 2.3-.7 3.6-.5 2.3-1 4.9-1.8 7.6-.2.7-.4 1.5-.7 2.3.2-1.4.3-3.3.3-3.5 0-3.5-1.8-10.4-5-12-2.3-1.2-4.5.4-5 3s.9 5.7 2.4 7.9c1.6 2.2 6 5.2 7 5.8-.5 1.7-1.1 3.3-1.8 5-1.2 3.1-2.7 6-4.4 8.8l-.2-.1c.3-1.2.8-3.9.8-4.1.3-3.4-.8-10.5-4-12.4-2.2-1.4-4.6-.2-5.4 2.4-.7 2.5.4 5.8 1.7 8.1 1.5 2.6 6.5 6.6 6.6 6.7-1.7 2.6-3.7 5.2-5.8 7.6-1.5 1.8-3.1 3.4-4.8 5.1.2-.9.9-4.3.9-4.6.3-3.4-.8-10.5-4-12.5-2.2-1.4-4.6-.1-5.4 2.4-.7 2.5.4 5.8 1.7 8.1 1.5 2.6 6.2 6.4 6.6 6.7l-2.2 2.3c-2.5 2.4-4.9 4.9-7.3 7.5l-2.4 2.7c.3-1.3.8-3.7.8-3.9.3-3.4-.8-10.5-4-12.5-2.2-1.4-4.6-.1-5.4 2.4-.7 2.5.4 5.8 1.7 8.1 1.3 2.3 5.2 5.6 6.4 6.5-1.3 1.5-2.5 3-3.7 4.6-.4.7-1 1.4-1.5 2.1l-1.3 2.1c-.9 1.5-1.7 2.8-2.4 4.2-.4.7-.7 1.3-1.1 2 .5-1.3 1.2-3.3 1.2-3.5.8-3.3.5-10.4-2.3-12.8-.3-.3-.7-.6-1.2-.7-1.8-.7-3.9.2-4.6 2.1l-.3.9c-2 1.9-3.5 4.4-4.3 7.1-.1.2-.5 2.8-.6 4.1-.1-1.1-.2-2.2-.2-3.4-.1-1.7-.2-3.5-.2-5.2v-2.7c0-.9.1-1.8.1-2.7.1-1.3.2-2.7.3-4 1.5.2 5.7.6 7.9-.2 2.1-.8 4.5-2.6 5-5.2s-.8-5.5-3.3-6.2c-3.4-.9-7.5 3.9-8.8 6.9 0 .1-.3.8-.5 1.6.2-1.3.3-2.6.5-4 .5-3.8 1.2-7.5 1.8-11.4.1-.8.3-1.6.4-2.4 1.2.1 5.9.6 8.1-.2 2.1-.8 4.5-2.6 5-5.2s-.8-5.5-3.3-6.2c-3.4-.9-7.5 3.9-8.8 6.9-.1.1-.3.9-.6 1.8.3-2.1.6-4.2.9-6.2.4-3.6.7-7.2.7-10.8.4.1 6 .8 8.3-.2 2.1-.8 4.5-2.6 5-5.2s-.8-5.5-3.3-6.2c-3.4-.9-7.5 3.9-8.8 6.9-.1.2-1 3.1-1.3 4.2v-.1c-.1-3.6-.4-7.2-1-10.8-.5-3.2-1.2-6.4-2.1-9.5-.8-2.9-1.6-5.6-2.4-7.9-.4-1.3-.8-2.4-1.2-3.5h.1v-5c-.3-3.5-2.7-10.3-6-11.4-2.4-.8-4.5 1-4.7 3.7s1.4 5.7 3.1 7.7 6.2 4.4 7.4 5c.4 1.1.8 2.3 1.2 3.6.7 2.3 1.5 5 2.2 7.9l.6 2.4c-.6-1.3-1.3-3.1-1.4-3.3-1.6-3.1-6.4-8.1-9.7-7.4-2.4.5-3.4 3.3-2.5 6s3.4 4.5 5.7 5.5c2.3 1 7.2.8 8.2.7.4 1.8.7 3.7 1 5.6.5 3.5.8 7.1.8 10.7h-.2c-.4-1.3-1.2-4-1.3-4.2-1.4-3.3-5.7-8.8-9.1-8.6-2.4.2-3.7 2.8-3 5.6.6 2.7 3.1 4.9 5.2 6.1 2.4 1.4 8.2 1.7 8.4 1.7-.1 3.5-.4 7-.8 10.4-.3 2.5-.8 5.1-1.2 7.6-.3-.9-1.4-4.4-1.5-4.7-1.4-3.3-5.7-8.8-9.1-8.6-2.4.2-3.7 2.8-3 5.6.6 2.7 3.1 4.9 5.2 6.1 2.4 1.4 7.9 1.7 8.4 1.7-.2 1.2-.4 2.3-.6 3.5-.7 3.8-1.5 7.6-2.1 11.3l-.6 3.9c-.4-1.4-1.2-3.8-1.3-4-1.4-3.3-5.7-8.8-9.1-8.6-2.4.2-3.7 2.8-3 5.6.6 2.7 3.1 4.9 5.2 6.1s6.8 1.6 8.1 1.7c-.3 2.2-.5 4.3-.7 6.5 0 .9-.1 1.9-.1 2.8v2.7c0 1.9.1 3.6.1 5.3 0 .9.1 1.7.1 2.5-.2-1.4-.7-3.7-.7-3.9-1-3.4-4.6-9.6-8-9.9-2.4-.2-4.1 2.1-3.8 4.9.3 2.8 2.5 5.3 4.4 6.9 2.2 1.7 7.5 3 8.1 3.2.1 2.1.2 4.1.3 6 .4 5.4.9 10 1.3 13.4h2.3c-.5-3.3-1-8-1.5-13.4-.2-1.7-.3-3.5-.4-5.4.6 0 5.6-.3 7.8-1.5 1.2 1.6 2.4 3 3.8 4.5-.9 1.7-1.8 3.3-2.6 4.9-2.2 4.3-3.9 8.1-5.2 11h2.6c1.1-2.7 2.6-6 4.4-9.7.9-1.4 1.6-3 2.2-4.3z"/><path class="st3" d="M586 275.1c1.3-2.3.6-5.3-1.5-6.8-3.1-2-8.4.8-10.5 3.1-.2.2-2.6 3.7-2.6 3.7s5.7 2.9 8.3 2.9c2.3 0 5.1-.7 6.3-2.9z"/></g><g id="Plants--inject-125_2_"><path class="st4" d="M190.3 254.4c-1.7-1.5-3.6-3.9-3.5-6.7.1-2.7 2.1-5.2 4.5-5.1 3.4.2 6.1 6.1 6.6 9.5.1.3.3 5 .2 5 .1.1-5.7-1-7.8-2.7z"/><path class="st0" d="M188.1 339.1c-.6.4-5.4 3.5-7.9 3.9-2.3.3-5.2 0-6.6-2-1.5-2.2-1.1-5.2.9-6.9 2.9-2.4 8.5-.3 10.8 1.7.1.1 1.7 1.9 2.5 2.8-.5-.9-.9-1.8-1.5-2.8-.7-1.4-1.5-2.8-2.3-4.2l-1.3-2.1c-.4-.7-.9-1.3-1.4-2-.7-1-1.5-1.9-2.2-3-1.2 1.1-4.9 4.2-7.1 4.9-2.2.7-5.2.9-6.9-.8-1.8-1.9-1.8-4.9 0-6.9 2.6-2.9 8.5-1.8 11.1-.3.1.1.6.4 1.2.9-.8-.9-1.5-1.9-2.3-2.8-2.2-2.6-4.6-5.1-7.1-7.6l-1.5-1.6c-1 .9-5.1 4.3-7.3 5s-5.2.9-6.9-.8c-1.8-1.9-1.8-4.9 0-6.9 2.6-2.9 8.5-1.8 11.1-.3.1.1.7.5 1.4 1.1-1.3-1.4-2.6-2.8-3.8-4.3-2.1-2.5-4.1-5.2-5.8-8-.4.3-5 4.4-7.5 5.2-2.2.7-5.2.9-6.9-.8-1.8-1.9-1.8-4.9 0-6.9 2.6-2.9 8.5-1.8 11.1-.3.2.1 2.4 1.8 3.1 2.5l-.1-.1c-1.7-2.9-3.1-5.9-4.3-9.1-1.1-2.9-2-5.8-2.7-8.7-.7-2.8-1.2-5.4-1.7-7.7-.2-1.3-.4-2.4-.6-3.5v.1c0 .1-2.3-3.6-2.4-3.9-1.4-2.9-2.5-9.8-.1-12.8.2-.3.5-.7.9-.9 1.6-1.2 3.9-.9 5.1.8 1.5 1.9 1.5 5.3.9 8s-3.5 7.4-4.2 8.6c.2 1.1.4 2.3.7 3.6.5 2.3 1 4.9 1.8 7.6.2.7.4 1.5.7 2.3-.2-1.4-.3-3.3-.3-3.5 0-3.5 1.8-10.4 5-12 2.3-1.2 4.5.4 5 3s-.9 5.7-2.4 7.9c-1.6 2.2-6 5.2-7 5.8.5 1.7 1.1 3.3 1.8 5 1.2 3.1 2.7 6 4.4 8.8l.2-.1c-.3-1.2-.8-3.9-.8-4.1-.3-3.4.8-10.5 4-12.4 2.2-1.4 4.6-.2 5.4 2.4.7 2.5-.4 5.8-1.7 8.1-1.5 2.6-6.5 6.6-6.6 6.7 1.7 2.6 3.7 5.2 5.8 7.6 1.5 1.8 3.1 3.4 4.8 5.1-.2-.9-.9-4.3-.9-4.6-.3-3.4.8-10.5 4-12.5 2.2-1.4 4.6-.1 5.4 2.4.7 2.5-.4 5.8-1.7 8.1-1.5 2.6-6.2 6.4-6.6 6.7l2.2 2.3c2.5 2.4 4.9 4.9 7.3 7.5l2.4 2.7c-.3-1.3-.8-3.7-.8-3.9-.3-3.4.8-10.5 4-12.5 2.2-1.4 4.6-.1 5.4 2.4.7 2.5-.4 5.8-1.7 8.1-1.3 2.3-5.2 5.6-6.4 6.5 1.3 1.5 2.5 3 3.7 4.6.4.7 1 1.4 1.5 2.1l1.3 2.1c.9 1.5 1.7 2.8 2.4 4.2.4.7.7 1.3 1.1 2-.5-1.3-1.2-3.3-1.2-3.5-.8-3.3-.5-10.4 2.3-12.8.3-.3.7-.6 1.2-.7 1.8-.7 3.9.2 4.6 2.1l.3.9c2 1.9 3.5 4.4 4.3 7.1.1.2.5 2.8.6 4.1.1-1.1.2-2.2.2-3.4.1-1.7.2-3.5.2-5.2v-2.7c0-.9-.1-1.8-.1-2.7-.1-1.3-.2-2.7-.3-4-1.5.2-5.7.6-7.9-.2-2.1-.8-4.5-2.6-5-5.2s.8-5.5 3.3-6.2c3.4-.9 7.5 3.9 8.8 6.9 0 .1.3.8.5 1.6-.2-1.3-.3-2.6-.5-4-.5-3.8-1.2-7.5-1.8-11.4-.1-.8-.3-1.6-.4-2.4-1.2.1-5.9.6-8.1-.2s-4.5-2.6-5-5.2.8-5.5 3.3-6.2c3.4-.9 7.5 3.9 8.8 6.9.1.1.3.9.6 1.8-.3-2.1-.6-4.2-.9-6.2-.4-3.6-.7-7.2-.7-10.8-.4.1-6 .8-8.3-.2-2.1-.8-4.5-2.6-5-5.2s.8-5.5 3.3-6.2c3.4-.9 7.5 3.9 8.8 6.9.1.2 1 3.1 1.3 4.2v-.1c.1-3.6.4-7.2 1-10.8.5-3.2 1.2-6.4 2.1-9.5.8-2.9 1.6-5.6 2.4-7.9.4-1.3.8-2.4 1.2-3.5h-.1v-5c.3-3.5 2.7-10.3 6-11.4 2.4-.8 4.5 1 4.7 3.7s-1.4 5.7-3.1 7.7c-1.7 2-6.2 4.4-7.4 5-.4 1.1-.8 2.3-1.2 3.6-.7 2.3-1.5 5-2.2 7.9l-.6 2.4c.6-1.3 1.3-3.1 1.4-3.3 1.6-3.1 6.4-8.1 9.7-7.4 2.4.5 3.4 3.3 2.5 6s-3.4 4.5-5.7 5.5-7.2.8-8.2.7c-.4 1.8-.7 3.7-1 5.6-.5 3.5-.8 7.1-.8 10.7h.2c.4-1.3 1.2-4 1.3-4.2 1.4-3.3 5.7-8.8 9.1-8.6 2.4.2 3.7 2.8 3 5.6-.6 2.7-3.1 4.9-5.2 6.1-2.4 1.4-8.2 1.7-8.4 1.7.1 3.5.4 7 .8 10.4.3 2.5.8 5.1 1.2 7.6.3-.9 1.4-4.4 1.5-4.7 1.4-3.3 5.7-8.8 9.1-8.6 2.4.2 3.7 2.8 3 5.6-.6 2.7-3.1 4.9-5.2 6.1-2.4 1.4-7.9 1.7-8.4 1.7.2 1.2.4 2.3.6 3.5.7 3.8 1.5 7.6 2.1 11.3l.6 3.9c.4-1.4 1.2-3.8 1.3-4 1.4-3.3 5.7-8.8 9.1-8.6 2.4.2 3.7 2.8 3 5.6-.6 2.7-3.1 4.9-5.2 6.1-2.1 1.2-6.8 1.6-8.1 1.7.3 2.2.5 4.3.7 6.5 0 .9.1 1.9.1 2.8v2.7c0 1.9-.1 3.6-.1 5.3 0 .9-.1 1.7-.1 2.5.2-1.4.7-3.7.7-3.9 1-3.4 4.6-9.6 8-9.9 2.4-.2 4.1 2.1 3.8 4.9s-2.5 5.3-4.4 6.9c-2.2 1.7-7.5 3-8.1 3.2-.1 2.1-.2 4.1-.3 6-.4 5.4-.9 10-1.3 13.4h-2.3c.5-3.3 1-8 1.5-13.4.2-1.7.3-3.5.4-5.4-.6 0-5.6-.3-7.8-1.5-1.2 1.6-2.4 3-3.8 4.5.9 1.7 1.8 3.3 2.6 4.9 2.2 4.3 3.9 8.1 5.2 11h-2.6c-1.1-2.7-2.6-6-4.4-9.7-.9-1.4-1.6-3-2.2-4.3z"/><path class="st0" d="M134 280.7c-1.3-2.3-.6-5.3 1.5-6.8 3.1-2 8.4.8 10.5 3.1.2.2 2.6 3.7 2.6 3.7s-5.7 2.9-8.3 2.9c-2.3 0-5.1-.7-6.3-2.9z"/><path class="st3" d="M190.3 254.4c-1.7-1.5-3.6-3.9-3.5-6.7.1-2.7 2.1-5.2 4.5-5.1 3.4.2 6.1 6.1 6.6 9.5.1.3.3 5 .2 5 .1.1-5.7-1-7.8-2.7z"/><path class="st3" d="M188.1 339.1c-.6.4-5.4 3.5-7.9 3.9-2.3.3-5.2 0-6.6-2-1.5-2.2-1.1-5.2.9-6.9 2.9-2.4 8.5-.3 10.8 1.7.1.1 1.7 1.9 2.5 2.8-.5-.9-.9-1.8-1.5-2.8-.7-1.4-1.5-2.8-2.3-4.2l-1.3-2.1c-.4-.7-.9-1.3-1.4-2-.7-1-1.5-1.9-2.2-3-1.2 1.1-4.9 4.2-7.1 4.9-2.2.7-5.2.9-6.9-.8-1.8-1.9-1.8-4.9 0-6.9 2.6-2.9 8.5-1.8 11.1-.3.1.1.6.4 1.2.9-.8-.9-1.5-1.9-2.3-2.8-2.2-2.6-4.6-5.1-7.1-7.6l-1.5-1.6c-1 .9-5.1 4.3-7.3 5s-5.2.9-6.9-.8c-1.8-1.9-1.8-4.9 0-6.9 2.6-2.9 8.5-1.8 11.1-.3.1.1.7.5 1.4 1.1-1.3-1.4-2.6-2.8-3.8-4.3-2.1-2.5-4.1-5.2-5.8-8-.4.3-5 4.4-7.5 5.2-2.2.7-5.2.9-6.9-.8-1.8-1.9-1.8-4.9 0-6.9 2.6-2.9 8.5-1.8 11.1-.3.2.1 2.4 1.8 3.1 2.5l-.1-.1c-1.7-2.9-3.1-5.9-4.3-9.1-1.1-2.9-2-5.8-2.7-8.7-.7-2.8-1.2-5.4-1.7-7.7-.2-1.3-.4-2.4-.6-3.5v.1c0 .1-2.3-3.6-2.4-3.9-1.4-2.9-2.5-9.8-.1-12.8.2-.3.5-.7.9-.9 1.6-1.2 3.9-.9 5.1.8 1.5 1.9 1.5 5.3.9 8s-3.5 7.4-4.2 8.6c.2 1.1.4 2.3.7 3.6.5 2.3 1 4.9 1.8 7.6.2.7.4 1.5.7 2.3-.2-1.4-.3-3.3-.3-3.5 0-3.5 1.8-10.4 5-12 2.3-1.2 4.5.4 5 3s-.9 5.7-2.4 7.9c-1.6 2.2-6 5.2-7 5.8.5 1.7 1.1 3.3 1.8 5 1.2 3.1 2.7 6 4.4 8.8l.2-.1c-.3-1.2-.8-3.9-.8-4.1-.3-3.4.8-10.5 4-12.4 2.2-1.4 4.6-.2 5.4 2.4.7 2.5-.4 5.8-1.7 8.1-1.5 2.6-6.5 6.6-6.6 6.7 1.7 2.6 3.7 5.2 5.8 7.6 1.5 1.8 3.1 3.4 4.8 5.1-.2-.9-.9-4.3-.9-4.6-.3-3.4.8-10.5 4-12.5 2.2-1.4 4.6-.1 5.4 2.4.7 2.5-.4 5.8-1.7 8.1-1.5 2.6-6.2 6.4-6.6 6.7l2.2 2.3c2.5 2.4 4.9 4.9 7.3 7.5l2.4 2.7c-.3-1.3-.8-3.7-.8-3.9-.3-3.4.8-10.5 4-12.5 2.2-1.4 4.6-.1 5.4 2.4.7 2.5-.4 5.8-1.7 8.1-1.3 2.3-5.2 5.6-6.4 6.5 1.3 1.5 2.5 3 3.7 4.6.4.7 1 1.4 1.5 2.1l1.3 2.1c.9 1.5 1.7 2.8 2.4 4.2.4.7.7 1.3 1.1 2-.5-1.3-1.2-3.3-1.2-3.5-.8-3.3-.5-10.4 2.3-12.8.3-.3.7-.6 1.2-.7 1.8-.7 3.9.2 4.6 2.1l.3.9c2 1.9 3.5 4.4 4.3 7.1.1.2.5 2.8.6 4.1.1-1.1.2-2.2.2-3.4.1-1.7.2-3.5.2-5.2v-2.7c0-.9-.1-1.8-.1-2.7-.1-1.3-.2-2.7-.3-4-1.5.2-5.7.6-7.9-.2-2.1-.8-4.5-2.6-5-5.2s.8-5.5 3.3-6.2c3.4-.9 7.5 3.9 8.8 6.9 0 .1.3.8.5 1.6-.2-1.3-.3-2.6-.5-4-.5-3.8-1.2-7.5-1.8-11.4-.1-.8-.3-1.6-.4-2.4-1.2.1-5.9.6-8.1-.2s-4.5-2.6-5-5.2.8-5.5 3.3-6.2c3.4-.9 7.5 3.9 8.8 6.9.1.1.3.9.6 1.8-.3-2.1-.6-4.2-.9-6.2-.4-3.6-.7-7.2-.7-10.8-.4.1-6 .8-8.3-.2-2.1-.8-4.5-2.6-5-5.2s.8-5.5 3.3-6.2c3.4-.9 7.5 3.9 8.8 6.9.1.2 1 3.1 1.3 4.2v-.1c.1-3.6.4-7.2 1-10.8.5-3.2 1.2-6.4 2.1-9.5.8-2.9 1.6-5.6 2.4-7.9.4-1.3.8-2.4 1.2-3.5h-.1v-5c.3-3.5 2.7-10.3 6-11.4 2.4-.8 4.5 1 4.7 3.7s-1.4 5.7-3.1 7.7c-1.7 2-6.2 4.4-7.4 5-.4 1.1-.8 2.3-1.2 3.6-.7 2.3-1.5 5-2.2 7.9l-.6 2.4c.6-1.3 1.3-3.1 1.4-3.3 1.6-3.1 6.4-8.1 9.7-7.4 2.4.5 3.4 3.3 2.5 6s-3.4 4.5-5.7 5.5-7.2.8-8.2.7c-.4 1.8-.7 3.7-1 5.6-.5 3.5-.8 7.1-.8 10.7h.2c.4-1.3 1.2-4 1.3-4.2 1.4-3.3 5.7-8.8 9.1-8.6 2.4.2 3.7 2.8 3 5.6-.6 2.7-3.1 4.9-5.2 6.1-2.4 1.4-8.2 1.7-8.4 1.7.1 3.5.4 7 .8 10.4.3 2.5.8 5.1 1.2 7.6.3-.9 1.4-4.4 1.5-4.7 1.4-3.3 5.7-8.8 9.1-8.6 2.4.2 3.7 2.8 3 5.6-.6 2.7-3.1 4.9-5.2 6.1-2.4 1.4-7.9 1.7-8.4 1.7.2 1.2.4 2.3.6 3.5.7 3.8 1.5 7.6 2.1 11.3l.6 3.9c.4-1.4 1.2-3.8 1.3-4 1.4-3.3 5.7-8.8 9.1-8.6 2.4.2 3.7 2.8 3 5.6-.6 2.7-3.1 4.9-5.2 6.1-2.1 1.2-6.8 1.6-8.1 1.7.3 2.2.5 4.3.7 6.5 0 .9.1 1.9.1 2.8v2.7c0 1.9-.1 3.6-.1 5.3 0 .9-.1 1.7-.1 2.5.2-1.4.7-3.7.7-3.9 1-3.4 4.6-9.6 8-9.9 2.4-.2 4.1 2.1 3.8 4.9s-2.5 5.3-4.4 6.9c-2.2 1.7-7.5 3-8.1 3.2-.1 2.1-.2 4.1-.3 6-.4 5.4-.9 10-1.3 13.4h-2.3c.5-3.3 1-8 1.5-13.4.2-1.7.3-3.5.4-5.4-.6 0-5.6-.3-7.8-1.5-1.2 1.6-2.4 3-3.8 4.5.9 1.7 1.8 3.3 2.6 4.9 2.2 4.3 3.9 8.1 5.2 11h-2.6c-1.1-2.7-2.6-6-4.4-9.7-.9-1.4-1.6-3-2.2-4.3z"/><path class="st3" d="M134 280.7c-1.3-2.3-.6-5.3 1.5-6.8 3.1-2 8.4.8 10.5 3.1.2.2 2.6 3.7 2.6 3.7s-5.7 2.9-8.3 2.9c-2.3 0-5.1-.7-6.3-2.9z"/></g><path class="st5" d="M296.9 52c0-17.4-14.1-31.5-31.5-31.6-17.4 0-31.5 14.1-31.6 31.5 0 14.4 9.7 27 23.7 30.6l7.5 13.1 7.2-12.8c14.5-3.3 24.7-16.1 24.7-30.8z"/><path class="st0" d="M268.4 68.4v5.2h-4.6v-5c-4.1-.1-8.1-1.4-11.6-3.7l2.6-5.7c2.7 1.9 5.8 3 9 3.3v-7.8c-5.1-1.2-11-3-11-9.6 0-4.9 3.6-9.1 11-10V30h4.6v5c3.3.2 6.5 1.2 9.4 2.8l-2.3 5.7c-2.2-1.3-4.6-2.1-7.1-2.4V49c5.1 1.2 10.8 2.9 10.8 9.5 0 4.8-3.5 9-10.8 9.9zm-4.7-20.5v-6.6c-2.5.5-3.4 1.9-3.4 3.4s1.4 2.5 3.4 3.2zm8 11.1c0-1.6-1.3-2.5-3.3-3.2v6.4c2.3-.5 3.3-1.7 3.3-3.2z"/><g id="character-2--inject-1_2_"><path style="fill:#7703fc;stroke:#1a2e35;stroke-linecap:round;stroke-linejoin:round;stroke-miterlimit:10" d="m199 132 17 237 177.4-20.7-49.8-226z"/><path class="st7" d="m199 132-25.6 224.8L216 369z"/></g><path class="st8" d="m216 369-17-237-25.6 224.8z"/><path class="st9" d="M248.9 144.5s10.1 42.9 38.1 47c28.1 4.1 36.3-56.8 36.3-56.8"/><circle class="st5" cx="248.9" cy="143.4" r="5.3"/><g id="Device--inject-1_1_"><path d="M362.7 38.5h156.9c6 0 10.8 4.9 10.8 10.8v300.1c0 6-4.9 10.8-10.8 10.8H362.7c-6 0-10.8-4.9-10.8-10.8v-300c-.1-6 4.8-10.9 10.8-10.9z" style="fill:#263238;stroke:#263238;stroke-linecap:round;stroke-linejoin:round"/><path class="st11" d="M354.4 38.5h156.9c6 0 10.8 4.9 10.8 10.8v300.1c0 6-4.9 10.8-10.8 10.8H354.4c-6 0-10.8-4.9-10.8-10.8v-300c0-6 4.8-10.9 10.8-10.9z"/><path class="st5" d="M445.2 57.7H423c-1.3 0-2.3-1-2.3-2.3 0-1.3 1-2.3 2.3-2.3h22.2c1.3 0 2.3 1 2.3 2.3 0 1.3-1 2.3-2.3 2.3zM510.8 58.1v273.4h-156V58h37l4.1 3.4c1.5 1.2 3.3 1.9 5.2 1.9h65.2c2 0 3.9-.7 5.3-2l3.8-3.2h35.4z"/><path class="st12" d="M510.8 331.5h-156V58h37l4.1 3.4c1.5 1.2 3.3 1.9 5.2 1.9h65.2c2 0 3.9-.7 5.3-2l3.8-3.2h35.4v273.4h0z"/><path class="st5" d="M437.8 339.9c0-2-1.6-3.6-3.6-3.6s-3.6 1.6-3.6 3.6 1.6 3.6 3.6 3.6 3.6-1.6 3.6-3.6c0 .1 0 .1 0 0z"/></g><path class="st13" d="M510.8 189.3v35L403.6 331.5h-35.1zM510.8 75.9v57.6l-156 155.9v-57.5z"/><path class="st11" d="M533 244.1H321.9c-4.7 0-8.5-3.8-8.5-8.5V116.5c0-4.7 3.8-8.5 8.5-8.5H533c4.7 0 8.5 3.8 8.5 8.5v119.1c-.1 4.7-3.9 8.5-8.5 8.5z"/><path class="st0" d="M368.1 131.5h-4.5v-2.1H375v2.1h-4.5v11.3H368v-11.3h.1zM388.8 129.4v13.4h-2.5V137h-6.9v5.8h-2.5v-13.4h2.5v5.5h6.9v-5.5h2.5zM401.2 139.8h-6.7l-1.3 3.1h-2.6l6-13.4h2.5l6.1 13.4h-2.6l-1.4-3.1zm-.9-2-2.5-5.9-2.5 5.9h5zM418.8 129.4v13.4h-2.1l-7.4-9.1v9.1h-2.5v-13.4h2.1l7.4 9.1v-9.1h2.5zM427 137.2l-2.1 2.2v3.4h-2.5v-13.4h2.5v6.9l6.6-6.9h2.8l-5.6 6 6 7.4h-2.9l-4.8-5.6zM447.4 138.1v4.7H445v-4.7l-5.3-8.7h2.7l3.9 6.5 4-6.5h2.5l-5.4 8.7zM456.3 142.2c-1.1-.6-2-1.4-2.6-2.5s-.9-2.2-.9-3.5.3-2.5.9-3.5c.6-1.1 1.5-1.9 2.6-2.5s2.3-.9 3.7-.9 2.6.3 3.7.9c1.1.6 2 1.4 2.6 2.5s.9 2.2.9 3.5-.3 2.5-.9 3.5-1.5 1.9-2.6 2.5-2.3.9-3.7.9-2.6-.3-3.7-.9zm6.2-1.9c.7-.4 1.3-1 1.7-1.7s.6-1.5.6-2.4-.2-1.7-.6-2.4-1-1.3-1.7-1.7-1.5-.6-2.4-.6-1.7.2-2.4.6c-.7.4-1.3 1-1.7 1.7s-.6 1.5-.6 2.4.2 1.7.6 2.4 1 1.3 1.7 1.7 1.5.6 2.4.6 1.6-.2 2.4-.6zM471.4 141.5c-1-1-1.6-2.5-1.6-4.5v-7.6h2.5v7.5c0 2.6 1.1 4 3.4 4s3.4-1.3 3.4-4v-7.5h2.5v7.6c0 1.9-.5 3.4-1.5 4.5-1 1-2.5 1.6-4.3 1.6s-3.4-.6-4.4-1.6zM484.8 142.6c-.3-.3-.4-.6-.4-1.1 0-.4.1-.8.4-1.1s.7-.4 1.1-.4.8.1 1.1.4c.3.3.4.6.4 1.1 0 .4-.1.8-.4 1.1s-.6.4-1.1.4c-.4 0-.8-.1-1.1-.4zm-.3-13.2h2.8l-.5 9H485l-.5-9z"/><path d="M359.3 164.6v2.9h-.6v-2.9l-3.4-5.6h.7l3.1 5 3.1-5h.6l-3.5 5.6zM364.2 167.2c-.5-.3-.9-.7-1.1-1.1s-.4-1-.4-1.7c0-.6.1-1.2.4-1.7s.7-.9 1.1-1.1c.5-.3 1-.4 1.6-.4s1.1.1 1.6.4c.5.3.9.7 1.1 1.1.3.5.4 1 .4 1.7 0 .6-.1 1.2-.4 1.7s-.7.9-1.1 1.1c-.5.3-1 .4-1.6.4s-1.1-.1-1.6-.4zm2.9-.5c.4-.2.7-.5.9-.9s.3-.9.3-1.4-.1-1-.3-1.4-.5-.7-.9-.9-.8-.3-1.3-.3-.9.1-1.3.3-.7.5-.9.9-.3.9-.3 1.4.1 1 .3 1.4.5.7.9.9.8.3 1.3.3 1-.1 1.3-.3zM376.4 161.2v6.3h-.6v-1.4c-.2.4-.5.8-.9 1s-.9.4-1.5.4c-.8 0-1.5-.2-1.9-.7-.5-.5-.7-1.1-.7-2v-3.7h.6v3.7c0 .7.2 1.3.5 1.6.4.4.9.6 1.5.6.7 0 1.3-.2 1.7-.7.4-.4.6-1 .6-1.8v-3.4l.7.1zM380.5 161.5c.4-.2.9-.4 1.5-.4v.6h-.1c-.7 0-1.3.2-1.6.7-.4.4-.6 1.1-.6 1.8v3.3h-.7v-6.3h.6v1.4c.2-.5.5-.8.9-1.1zM387.7 167.2c-.5-.3-.9-.7-1.1-1.1s-.4-1-.4-1.7c0-.6.1-1.2.4-1.7s.7-.9 1.1-1.1c.5-.3 1-.4 1.6-.4s1.1.1 1.6.4c.5.3.9.7 1.1 1.1.3.5.4 1 .4 1.7 0 .6-.1 1.2-.4 1.7s-.7.9-1.1 1.1c-.5.3-1 .4-1.6.4s-1.1-.1-1.6-.4zm3-.5c.4-.2.7-.5.9-.9s.3-.9.3-1.4-.1-1-.3-1.4-.5-.7-.9-.9-.8-.3-1.3-.3-.9.1-1.3.3-.7.5-.9.9-.3.9-.3 1.4.1 1 .3 1.4.5.7.9.9.8.3 1.3.3.9-.1 1.3-.3zM395.9 161.5c.4-.2.9-.4 1.5-.4v.6h-.1c-.7 0-1.3.2-1.6.7-.4.4-.6 1.1-.6 1.8v3.3h-.6v-6.3h.6v1.4c.1-.5.4-.8.8-1.1zM404.7 158.6v9h-.6v-1.5c-.2.5-.6.9-1.1 1.1-.5.3-1 .4-1.5.4-.6 0-1.1-.1-1.6-.4s-.9-.7-1.1-1.1c-.3-.5-.4-1-.4-1.7 0-.6.1-1.2.4-1.7s.6-.9 1.1-1.1 1-.4 1.6-.4 1.1.1 1.5.4c.4.3.8.6 1.1 1.1v-4.1h.6zm-1.9 8.1c.4-.2.7-.5.9-.9s.3-.9.3-1.4-.1-1-.3-1.4-.5-.7-.9-.9-.8-.3-1.3-.3-.9.1-1.3.3-.7.5-.9.9-.3.9-.3 1.4.1 1 .3 1.4.5.7.9.9.8.3 1.3.3.9-.1 1.3-.3zM412.6 164.5h-5.4c0 .5.1.9.4 1.3.2.4.6.7 1 .9s.9.3 1.4.3c.4 0 .8-.1 1.1-.2.4-.1.6-.4.9-.7l.4.4c-.3.3-.6.6-1 .8s-.9.3-1.4.3c-.6 0-1.2-.1-1.7-.4-.5-.3-.9-.7-1.2-1.1-.3-.5-.4-1-.4-1.7 0-.6.1-1.2.4-1.7s.6-.9 1.1-1.1 1-.4 1.6-.4 1.1.1 1.5.4.8.6 1.1 1.1c.3.5.4 1 .4 1.6l-.2.2zm-4.2-2.5c-.4.2-.6.5-.9.8-.2.4-.3.8-.4 1.2h4.9c0-.5-.1-.9-.4-1.2-.2-.4-.5-.6-.9-.8s-.8-.3-1.2-.3c-.4 0-.8.1-1.1.3zM415.9 161.5c.4-.2.9-.4 1.5-.4v.6h-.1c-.7 0-1.3.2-1.6.7-.4.4-.6 1.1-.6 1.8v3.3h-.6v-6.3h.6v1.4c.1-.5.4-.8.8-1.1zM422.3 159.5c-.1-.1-.1-.2-.1-.3s0-.3.1-.4c.1-.1.2-.1.4-.1.1 0 .3 0 .4.1s.1.2.1.3 0 .3-.1.4c-.1.1-.2.1-.4.1-.2.1-.3 0-.4-.1zm.1 1.7h.6v6.3h-.6v-6.3zM425.7 167.4c-.5-.2-.8-.3-1.1-.6l.3-.5c.3.2.6.4 1 .5s.8.2 1.3.2c.6 0 1.1-.1 1.4-.3s.5-.5.5-.9c0-.3-.1-.5-.2-.6-.2-.2-.4-.3-.6-.3-.2-.1-.6-.1-1-.2-.5-.1-.9-.2-1.2-.3-.3-.1-.6-.3-.8-.5-.2-.2-.3-.6-.3-1 0-.5.2-.9.6-1.2s1-.5 1.8-.5c.4 0 .8.1 1.2.2s.7.3 1 .4l-.3.5c-.3-.2-.6-.3-.9-.4-.3-.1-.7-.1-1-.1-.6 0-1 .1-1.3.3s-.4.5-.4.9c0 .3.1.5.3.7s.4.3.6.4c.2.1.6.2 1 .2.5.1.9.2 1.2.3s.6.3.8.5c.2.2.3.5.3.9 0 .5-.2.9-.7 1.3s-1.1.5-1.8.5c-.8-.2-1.3-.3-1.7-.4zM435.3 167.2c-.5-.3-.9-.7-1.1-1.1s-.4-1-.4-1.7c0-.6.1-1.2.4-1.7s.7-.9 1.1-1.1 1-.4 1.6-.4c.5 0 1 .1 1.4.3s.8.5 1 .9l-.4.3c-.2-.3-.5-.6-.8-.7s-.7-.2-1.1-.2c-.5 0-.9.1-1.3.3s-.7.5-.9.9-.3.9-.3 1.4.1 1 .3 1.4c.2.4.5.7.9.9s.8.3 1.3.3c.4 0 .8-.1 1.1-.2s.6-.4.8-.7l.4.3c-.3.4-.6.7-1 .9s-.9.3-1.4.3c-.6 0-1.1-.1-1.6-.4zM441.9 167.2c-.5-.3-.9-.7-1.1-1.1s-.4-1-.4-1.7c0-.6.1-1.2.4-1.7s.7-.9 1.1-1.1c.5-.3 1-.4 1.6-.4s1.1.1 1.6.4c.5.3.9.7 1.1 1.1.3.5.4 1 .4 1.7 0 .6-.1 1.2-.4 1.7s-.7.9-1.1 1.1c-.5.3-1 .4-1.6.4s-1.1-.1-1.6-.4zm2.9-.5c.4-.2.7-.5.9-.9s.3-.9.3-1.4-.1-1-.3-1.4-.5-.7-.9-.9-.8-.3-1.3-.3-.9.1-1.3.3-.7.5-.9.9-.3.9-.3 1.4.1 1 .3 1.4.5.7.9.9.8.3 1.3.3 1-.1 1.3-.3zM453.6 161.9c.5.5.7 1.1.7 2v3.7h-.6v-3.7c0-.7-.2-1.3-.5-1.6-.4-.4-.9-.6-1.5-.6-.7 0-1.3.2-1.8.7s-.6 1-.6 1.8v3.4h-.6v-6.3h.6v1.4c.2-.4.5-.8 1-1 .4-.3.9-.4 1.5-.4.7-.1 1.3.1 1.8.6zM457.5 160.3v.9h2v.5h-2v5.8h-.6v-5.8h-1.2v-.5h1.2v-1c0-.5.2-1 .5-1.3s.7-.5 1.3-.5c.2 0 .5 0 .7.1l.6.3-.2.5c-.3-.2-.6-.4-1-.4-.9.1-1.3.6-1.3 1.4zm4.1-.8c-.1-.1-.1-.2-.1-.3s0-.3.1-.4c.1-.1.2-.1.4-.1s.3 0 .4.1.1.2.1.3 0 .3-.1.4c-.1.1-.2.1-.4.1s-.3 0-.4-.1zm.1 1.7h.6v6.3h-.6v-6.3zM466.4 161.5c.4-.2.9-.4 1.5-.4v.6h-.1c-.7 0-1.3.2-1.6.7-.4.4-.6 1.1-.6 1.8v3.3h-.6v-6.3h.6v1.4c0-.5.3-.8.8-1.1zM479.3 161.9c.4.5.7 1.1.7 2v3.7h-.6v-3.7c0-.7-.2-1.3-.5-1.6-.3-.4-.8-.6-1.5-.6s-1.3.2-1.7.7c-.4.4-.6 1-.6 1.8v3.4h-.6v-3.7c0-.7-.2-1.3-.5-1.6-.3-.4-.8-.6-1.5-.6s-1.3.2-1.7.7c-.4.4-.6 1-.6 1.8v3.4h-.6v-6.3h.6v1.4c.2-.4.5-.8.9-1s.9-.4 1.5-.4 1.1.1 1.5.4.7.6.9 1.1c.2-.5.5-.8 1-1.1s1-.4 1.6-.4c.6-.1 1.2.1 1.7.6zM487.8 164.5h-5.4c0 .5.1.9.4 1.3.2.4.6.7 1 .9s.9.3 1.4.3c.4 0 .8-.1 1.1-.2.4-.1.6-.4.9-.7l.4.4c-.3.3-.6.6-1 .8s-.9.3-1.4.3c-.6 0-1.2-.1-1.7-.4-.5-.3-.9-.7-1.2-1.1-.3-.5-.4-1-.4-1.7 0-.6.1-1.2.4-1.7s.6-.9 1.1-1.1 1-.4 1.6-.4 1.1.1 1.5.4.8.6 1.1 1.1c.3.5.4 1 .4 1.6l-.2.2zm-4.2-2.5c-.4.2-.6.5-.9.8-.2.4-.3.8-.4 1.2h4.9c0-.5-.1-.9-.4-1.2-.2-.4-.5-.6-.9-.8s-.8-.3-1.2-.3c-.3 0-.7.1-1.1.3zM495.3 158.6v9h-.6v-1.5c-.2.5-.6.9-1.1 1.1-.5.3-1 .4-1.5.4-.6 0-1.1-.1-1.6-.4s-.9-.7-1.1-1.1c-.3-.5-.4-1-.4-1.7 0-.6.1-1.2.4-1.7s.6-.9 1.1-1.1 1-.4 1.6-.4 1.1.1 1.5.4c.4.3.8.6 1.1 1.1v-4.1h.6zm-1.8 8.1c.4-.2.7-.5.9-.9s.3-.9.3-1.4-.1-1-.3-1.4-.5-.7-.9-.9-.8-.3-1.3-.3-.9.1-1.3.3-.7.5-.9.9-.3.9-.3 1.4.1 1 .3 1.4.5.7.9.9.8.3 1.3.3.9-.1 1.3-.3z"/><path class="st0" d="M497.5 214.8H404c-7.3 0-13.3-6-13.3-13.3 0-7.3 6-13.3 13.3-13.3h93.5c7.3 0 13.3 6 13.3 13.3 0 7.4-6 13.3-13.3 13.3z"/><path class="st14" d="M406.4 204c-.5-.3-.9-.7-1.2-1.2-.3-.5-.4-1.1-.4-1.7s.1-1.2.4-1.7.7-.9 1.2-1.2 1.1-.4 1.8-.4c.5 0 1 .1 1.4.3s.8.4 1.1.8l-.8.7c-.5-.5-1-.8-1.7-.8-.4 0-.8.1-1.2.3-.3.2-.6.5-.8.8-.2.3-.3.7-.3 1.2s.1.8.3 1.2c.2.3.5.6.8.8s.7.3 1.2.3c.7 0 1.3-.3 1.7-.8l.8.7c-.3.3-.7.6-1.1.8s-.9.3-1.4.3c-.7 0-1.2-.1-1.8-.4zM419.4 197.9v6.4h-1.2v-2.8h-3.3v2.8h-1.2v-6.4h1.2v2.7h3.3v-2.7h1.2zM427.8 203.3v1H423v-6.4h4.7v1h-3.5v1.7h3.1v1h-3.1v1.8h3.6v-.1zM432.2 204c-.5-.3-.9-.7-1.2-1.2-.3-.5-.4-1.1-.4-1.7s.1-1.2.4-1.7.7-.9 1.2-1.2 1.1-.4 1.8-.4c.5 0 1 .1 1.4.3s.8.4 1.1.8l-.8.7c-.5-.5-1-.8-1.7-.8-.4 0-.8.1-1.2.3-.3.2-.6.5-.8.8-.2.3-.3.7-.3 1.2s.1.8.3 1.2c.2.3.5.6.8.8s.7.3 1.2.3c.7 0 1.3-.3 1.7-.8l.8.7c-.3.3-.7.6-1.1.8s-.9.3-1.4.3c-.7 0-1.3-.1-1.8-.4zM441.7 201.7l-1 1v1.6h-1.2v-6.4h1.2v3.3l3.2-3.3h1.3l-2.7 2.9 2.9 3.6H444l-2.3-2.7zM452.9 204.2c-.5-.1-.8-.3-1.1-.6l.4-.9c.3.2.6.4 1 .5s.8.2 1.2.2c.5 0 .8-.1 1.1-.2.2-.2.4-.4.4-.6 0-.2-.1-.3-.2-.5-.1-.1-.3-.2-.5-.3s-.5-.1-.8-.2c-.5-.1-.9-.2-1.2-.3-.3-.1-.6-.3-.8-.5-.2-.2-.3-.6-.3-1s.1-.7.3-1c.2-.3.5-.5.9-.7s.9-.3 1.4-.3c.4 0 .8 0 1.2.1.4.1.7.2 1 .4l-.4.9c-.3-.2-.6-.3-.9-.4-.3-.1-.6-.1-.9-.1-.5 0-.8.1-1.1.2s-.3.4-.3.6c0 .2.1.3.2.4.1.1.3.2.5.3s.5.1.8.2c.5.1.9.2 1.2.3.3.1.6.3.8.5.2.2.3.6.3 1s-.1.7-.3 1c-.2.3-.5.5-.9.7s-.9.3-1.4.3c-.6.2-1.1.2-1.6 0zM461.2 198.9h-2.1v-1h5.5v1h-2.1v5.4h-1.2l-.1-5.4zM471.1 202.9h-3.2l-.6 1.5H466l2.9-6.4h1.2l2.9 6.4h-1.2l-.7-1.5zm-.4-1-1.2-2.8-1.2 2.8h2.4zM476.6 198.9h-2.1v-1h5.5v1h-2.1v5.4h-1.2l-.1-5.4zM483.3 203.7c-.5-.5-.7-1.2-.7-2.1V198h1.2v3.6c0 1.3.5 1.9 1.6 1.9s1.6-.6 1.6-1.9V198h1.2v3.6c0 .9-.2 1.6-.7 2.1s-1.2.7-2.1.7-1.6-.2-2.1-.7zM492.2 204.2c-.5-.1-.8-.3-1.1-.6l.4-.9c.3.2.6.4 1 .5s.8.2 1.2.2c.5 0 .8-.1 1.1-.2.2-.2.4-.4.4-.6 0-.2-.1-.3-.2-.5-.1-.1-.3-.2-.5-.3s-.5-.1-.8-.2c-.5-.1-.9-.2-1.2-.3-.3-.1-.6-.3-.8-.5-.2-.2-.3-.6-.3-1s.1-.7.3-1c.2-.3.5-.5.9-.7s.9-.3 1.4-.3c.4 0 .8 0 1.2.1.4.1.7.2 1 .4l-.4.9c-.3-.2-.6-.3-.9-.4-.3-.1-.6-.1-.9-.1-.5 0-.8.1-1.1.2s-.3.4-.3.6c0 .2.1.3.2.4.1.1.3.2.5.3s.5.1.8.2c.5.1.9.2 1.2.3.3.1.6.3.8.5.2.2.3.6.3 1s-.1.7-.3 1c-.2.3-.5.5-.9.7s-.9.3-1.4.3c-.6.2-1.1.2-1.6 0z"/><circle class="st0" cx="361.7" cy="201.5" r="17"/><circle class="st13" cx="361.7" cy="201.5" r="17"/><circle cx="361.8" cy="201.5" style="fill:#fff;stroke:#263238;stroke-width:1;stroke-miterlimit:9.9999" r="11"/><path class="st12" d="m356.8 200.2 4.2 5.9 7.6-9.7"/><g id="character-2--inject-1_3_"><path class="st7" d="m267.7 244.1 9.2 128.3 96.1-11.1-27-122.5z"/><path class="st7" d="m267.7 244.1-13.8 121.8 23 6.5z"/></g><path class="st8" d="m276.9 372.4-9.4-126.8-13.6 120.3z"/><path class="st9" d="M296.1 250.2s7.3 22.4 22.5 23.3 13-25.9 13-25.9"/><path class="st5" d="M298.1 250.2c0 1.1-.9 2-2 2s-2-.9-2-2 .9-2 2-2 2 .9 2 2zM333.3 247.6c0 1.1-.9 2-2 2s-2-.9-2-2 .9-2 2-2 2 .9 2 2z"/></svg>