<svg width="16" height="16" viewBox="0 0 16 16" fill="none" xmlns="http://www.w3.org/2000/svg">
<path d="M14.5707 6.86875C14.628 7.23808 14.6667 7.61408 14.6667 8.00008C14.6667 12.0501 11.3833 15.3334 7.33333 15.3334C3.28333 15.3334 0 12.0501 0 8.00008C0 3.95008 3.28333 0.666748 7.33333 0.666748C8.898 0.666748 10.3453 1.16075 11.536 1.99541L10.588 2.96675C9.64933 2.35808 8.53333 2.00008 7.33333 2.00008C4.02533 2.00008 1.33333 4.69208 1.33333 8.00008C1.33333 11.3081 4.02533 14.0001 7.33333 14.0001C10.596 14.0001 13.2527 11.3814 13.3267 8.13675L14.5707 6.86875ZM13.936 1.44475L7.66667 7.87075L5.10467 5.46141L3.04133 7.52675L7.66667 12.0001L16 3.50875L13.936 1.44475V1.44475Z" fill="#4400AA"/>
</svg>
