<?xml version="1.0" encoding="UTF-8" standalone="no"?>
<svg
   xmlns:dc="http://purl.org/dc/elements/1.1/"
   xmlns:cc="http://creativecommons.org/ns#"
   xmlns:rdf="http://www.w3.org/1999/02/22-rdf-syntax-ns#"
   xmlns:svg="http://www.w3.org/2000/svg"
   xmlns="http://www.w3.org/2000/svg"
   xmlns:sodipodi="http://sodipodi.sourceforge.net/DTD/sodipodi-0.dtd"
   xmlns:inkscape="http://www.inkscape.org/namespaces/inkscape"
   id="aa99ff36-6623-4fd3-8334-3402d1c0f727"
   data-name="Layer 1"
   width="854.63024"
   height="686"
   viewBox="0 0 854.63024 686"
   version="1.1"
   sodipodi:docname="getting-started.svg"
   inkscape:version="0.92.5 (2060ec1f9f, 2020-04-08)">
  <metadata
     id="metadata53">
    <rdf:RDF>
      <cc:Work
         rdf:about="">
        <dc:format>image/svg+xml</dc:format>
        <dc:type
           rdf:resource="http://purl.org/dc/dcmitype/StillImage" />
        <dc:title>runner_start</dc:title>
      </cc:Work>
    </rdf:RDF>
  </metadata>
  <defs
     id="defs51" />
  <sodipodi:namedview
     pagecolor="#ffffff"
     bordercolor="#666666"
     borderopacity="1"
     objecttolerance="10"
     gridtolerance="10"
     guidetolerance="10"
     inkscape:pageopacity="0"
     inkscape:pageshadow="2"
     inkscape:window-width="2416"
     inkscape:window-height="1409"
     id="namedview49"
     showgrid="false"
     inkscape:zoom="0.34402332"
     inkscape:cx="427.31512"
     inkscape:cy="343"
     inkscape:window-x="0"
     inkscape:window-y="0"
     inkscape:window-maximized="1"
     inkscape:current-layer="aa99ff36-6623-4fd3-8334-3402d1c0f727" />
  <title
     id="title2">runner_start</title>
  <rect
     y="600"
     width="821"
     height="9.0526304"
     id="rect4"
     x="-854.63019"
     transform="scale(-1,1)"
     style="fill:#3f3d56" />
  <rect
     y="676.94739"
     width="821"
     height="9.0526304"
     id="rect6"
     x="-854.63019"
     transform="scale(-1,1)"
     style="fill:#3f3d56" />
  <path
     d="m 104.45235,608.32765 c 0.49067,-0.80178 12.06007,-20.1196 16.071,-60.23352 3.679,-36.80241 1.31333,-98.83576 -30.858003,-185.36715 C 28.717747,198.79898 103.71107,66.5329 104.47735,65.2154 l -3.69987,-2.14643 c -0.19418,0.33408 -19.545413,34.05675 -30.977003,87.75495 a 382.84576,382.84576 0 0 0 15.856,213.39386 C 146.49973,527.866 101.2661,605.3356 100.8026,606.09979 Z"
     id="path8"
     inkscape:connector-curvature="0"
     style="fill:#3f3d56" />
  <circle
     cx="-128.28433"
     cy="27.79495"
     r="27.79495"
     id="circle10"
     transform="scale(-1,1)"
     style="fill:#3f3d56" />
  <circle
     cx="-40.623383"
     cy="130.42244"
     r="27.79495"
     id="circle12"
     transform="scale(-1,1)"
     style="fill:#3f3d56" />
  <circle
     cx="-100.48941"
     cy="198.84077"
     r="27.79495"
     id="circle14"
     transform="scale(-1,1)"
     style="fill:#4400aa" />
  <circle
     cx="-27.79495"
     cy="256.56873"
     r="27.79495"
     id="circle16"
     transform="scale(-1,1)"
     style="fill:#4400aa" />
  <circle
     cx="-121.87015"
     cy="346.3678"
     r="27.79495"
     id="circle18"
     transform="scale(-1,1)"
     style="fill:#3f3d56" />
  <path
     d="m 87.660967,609.35075 c 0,0 27.794943,-68.41833 -55.5899,-119.73208 z"
     id="path20"
     inkscape:connector-curvature="0"
     style="fill:#3f3d56" />
  <path
     d="m 121.84444,608.10967 c 0,0 12.64973,-72.75721 110.55654,-72.13362 z"
     id="path22"
     inkscape:connector-curvature="0"
     style="fill:#3f3d56" />
  <circle
     cx="-718.13019"
     cy="387.5"
     r="41"
     id="circle24"
     transform="scale(-1,1)"
     style="fill:#a0616a" />
  <path
     d="m 710.70191,336.50393 c 7.84095,-1.92541 16.27241,-2.24666 23.8686,0.48934 7.82332,2.81781 14.26307,8.70853 18.99966,15.54294 4.73659,6.83441 7.91769,14.6126 10.76728,22.4244 a 78.44181,78.44181 0 0 1 3.84443,13.13982 44.99218,44.99218 0 0 1 -8.16687,34.32543 c 1.20064,-3.16564 -1.82223,-6.61689 -5.13777,-7.30246 -3.31554,-0.68557 -6.693,0.474 -9.96284,1.35215 a 61.559,61.559 0 0 1 -17.68,2.07852 c -2.28419,-0.0647 -4.67886,-0.2947 -6.57841,-1.5649 -5.95161,-3.97978 -2.80132,-14.26366 -7.75373,-19.43414 -1.76742,-1.84524 -4.28949,-2.70812 -6.56745,-3.86552 -8.20045,-4.16651 -13.60409,-12.57547 -16.15533,-21.41283 -1.599,-5.53888 -5.56732,-21.4494 -2.1851,-26.598 3.05653,-4.65268 17.51624,-7.89999 22.70753,-9.17475 z"
     id="path26"
     inkscape:connector-curvature="0"
     style="fill:#2f2e41" />
  <path
     d="m 606.56373,342.29118 a 24.39569,24.39569 0 0 1 18.67736,1.04125 c 10.69477,5.01556 29.6079,17.167 28.88913,40.16757 -1,32 -12,53 -12,53 l 2,65 10,118 c 0,0 49,40 30,50 -19,10 -51,-48 -51,-48 l -25,-67 -9,-65 c 0,0 -15,-68 0,-98 0,0 -17.32844,-40.17047 7.43351,-49.20882 z"
     id="path28"
     inkscape:connector-curvature="0"
     style="fill:#a0616a" />
  <path
     d="m 487.13022,445.5 c 0,0 17,72 -43,92 -60,20 -139,54 -139,54 l -10,17 -23,-31 4,-24 39,-11 c 0,0 73,-56 105,-60 l -4,-37 z"
     id="path30"
     inkscape:connector-curvature="0"
     style="fill:#a0616a" />
  <path
     d="M 327.3231,387.717 306.13022,422.5 c 0,0 -70,40 -88,67 -18,27 -61,56 -61,56 l 19,45 c 0,0 54,-63 77,-69 23,-6 125,-88 125,-88 z"
     id="path32"
     inkscape:connector-curvature="0"
     style="fill:#a0616a" />
  <path
     d="m 516.06191,265.81879 c 7.80567,1.22636 15.61761,2.4539 23.32959,4.17376 17.91807,3.99593 35.14787,10.61624 51.96679,17.97482 a 608.4047,608.4047 0 0 1 68.44723,35.267 132.25462,132.25462 0 0 1 16.96877,11.52223 c 3.55981,2.96479 6.911,6.36338 8.82048,10.58428 a 33.40584,33.40584 0 0 1 2.32964,9.22124 c 1.55047,11.11993 1.47826,22.59448 -1.53455,33.41019 -3.01281,10.81571 -9.12353,20.95468 -18.11834,27.67407 a 29.8797,29.8797 0 0 1 -7.84122,4.34736 45.67529,45.67529 0 0 1 -11.67415,1.95731 c -12.61732,1.0033 -25.79808,1.92307 -37.47387,-2.96358 -7.41963,-3.10532 -13.70126,-8.3547 -20.52849,-12.6071 -28.91252,-18.00838 -65.6459,-17.24158 -97.26049,-29.92044 -3.07335,-1.23254 -6.20327,-2.67 -8.353,-5.18856 a 22.57757,22.57757 0 0 1 -3.61973,-7.18764 q -5.99545,-16.59368 -11.99092,-33.18736 c -2.53264,-7.00959 -5.06682,-14.02386 -7.19258,-21.16737 -2.2235,-7.47193 -3.99546,-15.0694 -5.766,-22.66143 -1.52358,-6.53317 -3.0928,-13.37591 -2.507,-20.1298 0.864,-9.96222 3.16626,-10.36663 12.316,-8.92459 q 24.83903,3.91476 49.68184,7.80561 z"
     id="path34"
     inkscape:connector-curvature="0"
     style="fill:#4400aa" />
  <path
     d="m 636.56373,342.29118 a 24.39569,24.39569 0 0 1 18.67736,1.04125 c 10.69477,5.01556 29.6079,17.167 28.88913,40.16757 -1,32 -12,53 -12,53 l 2,65 10,118 c 0,0 49,40 30,50 -19,10 -51,-48 -51,-48 l -25,-67 -9,-65 c 0,0 -15,-68 0,-98 0,0 -17.32844,-40.17047 7.43351,-49.20882 z"
     id="path36"
     inkscape:connector-curvature="0"
     style="fill:#a0616a" />
  <path
     d="m 462.97042,257.5437 c 0,0 -88.8402,-8.0437 -84.8402,46.9563 4,55 34,150 34,150 l 77,4 c 0,0 10,-65 -4,-87 z"
     id="path38"
     inkscape:connector-curvature="0"
     style="fill:#2f2e41" />
  <path
     d="m 401.13022,275.5 c 0,0 -22,14 -34,42 -12,28 -48,83 -48,83 l 59,42 44,-45 z"
     id="path40"
     inkscape:connector-curvature="0"
     style="fill:#2f2e41" />
  <path
     d="m 295.13022,587.5 c 0,0 19,7 6,21 a 126.6093,126.6093 0 0 0 -20,29 c 0,0 4,26 -13,25 -17,-1 -24,-36 -20,-48 4,-12 9,-69 9,-69 0,0 35,3 34,8 -1,5 -6,30 4,34 z"
     id="path42"
     inkscape:connector-curvature="0"
     style="fill:#2f2e41" />
  <path
     d="m 176.13022,567.5 c 0,0 18,9 13,17 -5,8 -21,31 -21,31 0,0 6,30 -11,33 -17,3 -27,-36 -24,-44 3,-8 3,-39 3,-39 0,0 -1,-31 9,-31 10,0 27,4 27,4 0,0 -4,28 4,29 z"
     id="path44"
     inkscape:connector-curvature="0"
     style="fill:#2f2e41" />
  <rect
     x="-758.63019"
     y="617.87079"
     width="29"
     height="50.612438"
     id="rect46"
     transform="scale(-1,1)"
     style="fill:#4400aa" />
</svg>
