<?xml version="1.0" encoding="UTF-8" standalone="no"?>
<svg
   xmlns:dc="http://purl.org/dc/elements/1.1/"
   xmlns:cc="http://creativecommons.org/ns#"
   xmlns:rdf="http://www.w3.org/1999/02/22-rdf-syntax-ns#"
   xmlns:svg="http://www.w3.org/2000/svg"
   xmlns="http://www.w3.org/2000/svg"
   xmlns:sodipodi="http://sodipodi.sourceforge.net/DTD/sodipodi-0.dtd"
   xmlns:inkscape="http://www.inkscape.org/namespaces/inkscape"
   id="af68f4ca-3b92-43b5-826f-d4785abba14f"
   data-name="Layer 1"
   width="745.24585"
   height="410.93927"
   viewBox="0 0 745.24593 410.93927"
   version="1.1"
   sodipodi:docname="lightbulb.svg"
   inkscape:version="0.92.5 (2060ec1f9f, 2020-04-08)">
  <metadata
     id="metadata57">
    <rdf:RDF>
      <cc:Work
         rdf:about="">
        <dc:format>image/svg+xml</dc:format>
        <dc:type
           rdf:resource="http://purl.org/dc/dcmitype/StillImage" />
        <dc:title></dc:title>
      </cc:Work>
    </rdf:RDF>
  </metadata>
  <defs
     id="defs55" />
  <sodipodi:namedview
     pagecolor="#ffffff"
     bordercolor="#666666"
     borderopacity="1"
     objecttolerance="10"
     gridtolerance="10"
     guidetolerance="10"
     inkscape:pageopacity="0"
     inkscape:pageshadow="2"
     inkscape:window-width="2416"
     inkscape:window-height="1409"
     id="namedview53"
     showgrid="false"
     fit-margin-top="0"
     fit-margin-left="200"
     fit-margin-right="200"
     fit-margin-bottom="0"
     inkscape:zoom="0.42673576"
     inkscape:cx="1103.0248"
     inkscape:cy="445.50204"
     inkscape:window-x="0"
     inkscape:window-y="0"
     inkscape:window-maximized="1"
     inkscape:current-layer="af68f4ca-3b92-43b5-826f-d4785abba14f" />
  <g
     id="g271"
     transform="matrix(1.1414926,0,0,1.1414926,-169.99257,-86.314097)">
    <polygon
       style="fill:#3f3d56"
       transform="matrix(0.52542373,0,0,0.52542373,324.27902,1.0804127e-6)"
       id="polygon2"
       points="656.693,776.134 398.955,776.134 398.955,774.028 657.075,774.028 " />
    <rect
       style="fill:#fbbebe;stroke-width:0.52542371"
       id="rect4"
       height="15.762712"
       width="7.3559322"
       y="386.11929"
       x="581.64807" />
    <rect
       style="fill:#fbbebe;stroke-width:0.52542371"
       id="rect6"
       height="15.762712"
       width="7.3559322"
       y="386.64471"
       x="638.91931" />
    <path
       style="fill:#2f2e41;stroke-width:0.52542371"
       inkscape:connector-curvature="0"
       id="path8"
       d="m 647.06332,394.26336 -8.93221,-1.05085 -23.11864,-106.66102 -25.22034,107.18644 -8.9322,-1.05085 c -1.47384,-48.50016 2.83361,-97.01976 6.56779,-137.3983 l 53.33051,-4.4661 c 10.04812,39.78908 10.46024,89.30886 6.30509,143.44068 z" />
    <path
       style="fill:#fbbebe;stroke-width:0.52542371"
       inkscape:connector-curvature="0"
       id="path10"
       d="m 641.51701,257.13308 c 0,0 -12.42139,12.96147 -5.4006,16.20184 7.0208,3.24037 11.34128,-14.58165 11.34128,-14.58165 z" />
    <path
       style="fill:#fbbebe;stroke-width:0.52542371"
       inkscape:connector-curvature="0"
       id="path12"
       d="m 577.94074,258.18393 c 0,0 -12.42139,12.96146 -5.4006,16.20184 7.0208,3.24037 11.34127,-14.58165 11.34127,-14.58165 z" />
    <circle
       style="fill:#fbbebe;stroke-width:0.52542371"
       id="circle14"
       r="14.711864"
       cy="149.6786"
       cx="615.8006" />
    <path
       style="fill:#fbbebe;stroke-width:0.52542371"
       inkscape:connector-curvature="0"
       id="path16"
       d="m 632.87688,180.4159 -26.27119,2.62712 c 2.42833,-10.93152 3.01693,-21.14446 0,-29.94916 h 18.38983 c -0.99902,7.33668 2.73507,16.98454 7.88136,27.32204 z" />
    <path
       style="opacity:1;vector-effect:none;fill:#4400aa;fill-opacity:1;stroke-width:0.52542371;stroke-linecap:butt;stroke-linejoin:miter;stroke-miterlimit:4;stroke-dasharray:none;stroke-dashoffset:0;stroke-opacity:1"
       inkscape:connector-curvature="0"
       id="path18"
       d="m 640.23281,256.60234 c -9.81629,11.80805 -30.44488,7.86013 -54.11864,-0.52543 6.71775,-21.92766 5.67611,-45.06191 -0.36045,-68.97289 a 5.6223597,5.6223597 0 0 1 3.15221,-6.52778 l 19.27604,-8.56713 7.35593,1.57627 12.61017,-3.15254 17.90008,3.66138 a 6.213598,6.213598 0 0 1 4.95956,6.4019 c -1.49712,29.34849 -4.14556,56.5093 -10.7749,76.10622 z" />
    <path
       style="opacity:1;vector-effect:none;fill:#4400aa;fill-opacity:1;stroke-width:0.52542371;stroke-linecap:butt;stroke-linejoin:miter;stroke-miterlimit:4;stroke-dasharray:none;stroke-dashoffset:0;stroke-opacity:1"
       inkscape:connector-curvature="0"
       id="path20"
       d="m 645.48705,266.05997 -4.72882,-7.88136 8.93221,-33.62712 -4.72882,-50.44068 v 0 a 14.452536,14.452536 0 0 1 12.69989,11.38186 l 7.17395,33.81999 a 23.430583,23.430583 0 0 1 -1.8446,15.09885 z" />
    <path
       style="opacity:1;vector-effect:none;fill:#4400aa;fill-opacity:1;stroke-width:0.52542371;stroke-linecap:butt;stroke-linejoin:miter;stroke-miterlimit:4;stroke-dasharray:none;stroke-dashoffset:0;stroke-opacity:1"
       inkscape:connector-curvature="0"
       id="path22"
       d="m 584.01247,260.2803 -10.77119,1.83899 6.86841,-67.23512 a 17.080002,17.080002 0 0 1 10.73328,-15.51911 v 0 l 3.41525,44.3983 z" />
    <path
       style="fill:#2f2e41;stroke-width:0.52542371"
       inkscape:connector-curvature="0"
       id="path24"
       d="m 586.20699,407.39051 -19.82606,3.48212 a 4.4207576,4.4207576 0 0 1 -2.65267,-0.35676 v 0 a 4.4207629,4.4207629 0 0 1 -1.11436,-7.24225 l 8.49295,-7.85805 2.21417,-3.86933 a 7.8215943,7.8215943 0 0 1 6.17242,-3.99322 c 3.78632,-0.26249 5.03604,2.61866 4.24438,8.02956 2.87575,2.11541 3.33032,1.79049 5.2662,-1.0565 l 0.87866,8.91969 a 4.473321,4.473321 0 0 1 -3.67569,3.94474 z" />
    <path
       style="fill:#2f2e41;stroke-width:0.52542371"
       inkscape:connector-curvature="0"
       id="path26"
       d="m 643.47818,407.39051 -19.82606,3.48212 a 4.4207576,4.4207576 0 0 1 -2.65267,-0.35676 v 0 a 4.4207629,4.4207629 0 0 1 -1.11436,-7.24225 l 8.49295,-7.85805 2.21417,-3.86933 a 7.8215943,7.8215943 0 0 1 6.17242,-3.99322 c 3.78632,-0.26249 5.03603,2.61866 4.24437,8.02956 2.87576,2.11541 3.33033,1.79049 5.2662,-1.0565 l 0.87867,8.91969 a 4.473321,4.473321 0 0 1 -3.67569,3.94474 z" />
    <path
       style="fill:#2f2e41;stroke-width:0.52542371"
       inkscape:connector-curvature="0"
       id="path28"
       d="m 604.12027,141.29611 c 6.63121,-3.79389 13.27136,-1.36995 19.92302,8.98187 l 1.35989,11.02711 c 9.98305,-9.45763 9.47837,-22.36431 -1.71695,-27.61382 -1.10064,-0.51608 -2.16721,-1.10305 -3.36498,-0.89562 a 10.548055,10.548055 0 0 0 -13.96251,3.75089 c -2.06839,0.3582 -5.03364,4.46755 -4.92692,6.56403 z" />
    <ellipse
       style="fill:#fbbebe;stroke-width:0.52542371"
       id="ellipse30"
       ry="2.3644068"
       rx="1.8389831"
       cy="150.46675"
       cx="623.41925" />
  </g>
  <path
     d="m 350.53048,208.24379 h 23.47107 v 0 a 9.2648963,9.2648963 0 0 1 -9.2649,9.26489 h -4.94128 a 9.2648963,9.2648963 0 0 1 -9.2649,-9.26489 v 0 z"
     id="path32"
     inkscape:connector-curvature="0"
     style="fill:#3f3d56;stroke-width:0.40282154" />
  <path
     d="m 379.48566,187.50051 v -8.6098 c 0,-10.40352 11.31472,-20.2438 18.65457,-27.26438 10.34611,-9.89051 15.78463,-23.17831 15.78463,-38.74411 a 51.659216,51.659216 0 0 0 -103.31762,-0.28739 q -4.1e-4,0.1437 0,0.28739 c 0,15.00975 5.6717,29.198 15.78463,38.74411 7.3004,6.89143 18.65457,16.75325 18.65457,27.26438 v 8.6098"
     id="path34"
     inkscape:connector-curvature="0"
     style="fill:#4400aa;stroke-width:0.40282154" />
  <path
     d="m 379.48575,188.7089 a 1.2084003,1.2084003 0 0 1 -1.20846,-1.20846 v -8.6099 c 0,-10.1209 9.98163,-19.56911 17.26999,-26.4678 0.60482,-0.57277 1.19292,-1.12939 1.75762,-1.66951 10.08234,-9.6386 15.41147,-22.73404 15.41147,-37.87093 0,-28.289965 -22.1603,-50.450459 -50.45026,-50.450459 -0.0474,-1.92e-4 -0.095,-1.92e-4 -0.1424,-1.92e-4 a 50.364971,50.364971 0 0 0 -50.30805,50.166601 v 0.28146 c 0,14.82455 5.61511,28.6259 15.40576,37.86798 0.49605,0.46852 1.01119,0.9508 1.54008,1.44568 7.38258,6.91208 17.49344,16.37799 17.49344,26.69715 v 8.60991 a 1.20847,1.20847 0 1 1 -2.41694,0 v -8.60991 c 0,-9.27079 -9.6687,-18.32288 -16.7283,-24.93285 -0.53146,-0.49723 -1.04895,-0.98187 -1.54736,-1.45235 -10.27215,-9.69683 -16.16362,-24.13881 -16.16362,-39.62305 v -0.28993 c 0.081,-29.021245 23.72005,-52.577657 52.72144,-52.577657 0.0515,0 0.0979,0 0.14929,1.99e-4 a 52.591265,52.591265 0 0 1 52.86383,52.867388 c 0,15.81271 -5.58738,29.51239 -16.1579,39.61793 -0.56745,0.54247 -1.1587,1.10226 -1.76668,1.67775 -6.96952,6.59701 -16.5145,15.63176 -16.5145,24.71256 v 8.60991 a 1.2084003,1.2084003 0 0 1 -1.20845,1.20848 z"
     id="path36"
     inkscape:connector-curvature="0"
     style="fill:#3f3d56;stroke-width:0.40282154" />
  <path
     d="m 373.74574,204.21557 h -22.95945 a 2.01411,2.01411 0 0 1 0,-4.02822 h 22.95945 a 2.01411,2.01411 0 1 1 0,4.02822 z"
     id="path38"
     inkscape:connector-curvature="0"
     style="fill:#4400aa;stroke-width:0.40282154" />
  <path
     d="m 308.85134,65.405571 a 2.0059668,2.0059668 0 0 1 -1.32372,-0.496835 L 290.23086,49.810395 a 2.0140595,2.0140595 0 1 1 2.64902,-3.034534 l 17.29676,15.098334 a 2.0141079,2.0141079 0 0 1 -1.32528,3.531376 z"
     id="path40"
     inkscape:connector-curvature="0"
     style="fill:#e6e6e6;stroke-width:0.40282154" />
  <path
     d="m 412.81098,65.405571 a 2.0141079,2.0141079 0 0 1 -1.32529,-3.531376 l 17.29655,-15.098334 a 2.0140597,2.0140597 0 0 1 2.64902,3.034534 l -17.29658,15.098341 a 2.0059548,2.0059548 0 0 1 -1.3237,0.496835 z"
     id="path42"
     inkscape:connector-curvature="0"
     style="fill:#e6e6e6;stroke-width:0.40282154" />
  <path
     d="m 379.48575,197.06667 h -34.43928 a 2.01411,2.01411 0 0 1 0,-4.02822 h 34.43928 a 2.01411,2.01411 0 1 1 0,4.02822 z"
     id="path44"
     inkscape:connector-curvature="0"
     style="fill:#4400aa;stroke-width:0.40282154" />
  <path
     d="m 362.26611,189.51455 a 2.0140837,2.0140837 0 0 1 -2.01411,-2.01411 v -45.9189 a 2.01411,2.01411 0 0 1 4.02822,0 v 45.9189 a 2.0140837,2.0140837 0 0 1 -2.01411,2.01411 z"
     id="path46"
     inkscape:connector-curvature="0"
     style="fill:#ffffff;stroke-width:0.40282154" />
  <path
     d="m 362.26611,143.59564 c -6.50769,0 -14.49745,-5.88732 -14.83438,-6.13791 a 2.0141284,2.0141284 0 1 1 2.40435,-3.23202 c 2.00171,1.48521 8.13904,5.34172 12.43003,5.34172 4.29099,0 10.42832,-3.85651 12.43102,-5.3425 a 2.0141459,2.0141459 0 0 1 2.40336,3.2328 c -0.33693,0.25059 -8.32669,6.13791 -14.83438,6.13791 z"
     id="path48"
     inkscape:connector-curvature="0"
     style="fill:#ffffff;stroke-width:0.40282154" />
  <path
     d="M 362.26591,45.300484 A 2.0142086,2.0142086 0 0 1 360.2518,43.286383 V 8.8471005 a 2.01411,2.01411 0 0 1 4.02822,0 V 43.286383 a 2.0142086,2.0142086 0 0 1 -2.01411,2.014101 z"
     id="path50"
     inkscape:connector-curvature="0"
     style="fill:#e6e6e6;stroke-width:0.40282154" />
  <path
     inkscape:connector-curvature="0"
     style="fill:#cccccc;stroke-width:0.76666039"
     d="m 360.4898,217.03143 c 3.22942,2.63462 4.21351,6.78691 3.61264,10.79633 a 18.746495,18.746495 0 0 1 -6.43534,11.25526 c -3.84039,3.41342 -8.52458,5.71993 -13.04433,8.08178 a 94.875859,94.875859 0 0 0 -11.94096,7.24855 c -14.53637,10.56527 -25.51838,25.60885 -31.80364,42.39632 -6.27465,16.75915 -7.9582,35.78133 -3.19028,53.15049 2.35901,8.59362 7.13123,17.86554 16.02176,21.09918 7.08677,2.57759 16.76226,0.91718 20.37069,-6.38664 3.87618,-7.84575 -1.53178,-16.66506 -8.4979,-20.56004 -9.02991,-5.04891 -19.81614,-1.35956 -27.93796,3.75111 -8.94161,5.62652 -16.12953,13.70065 -25.46489,18.74353 a 31.999455,31.999455 0 0 1 -13.68003,3.99074 34.261716,34.261716 0 0 1 -12.96346,-2.00275 43.908696,43.908696 0 0 1 -21.2071,-16.46119 c -5.92956,-8.6195 -8.58374,-19.1855 -9.06778,-29.53568 -1.083,-23.15789 8.06513,-44.82272 15.40495,-66.29881 a 202.55986,202.55986 0 0 0 8.83134,-34.39208 178.17643,178.17643 0 0 0 1.9514,-35.56413 c -0.48581,-10.51372 -1.52295,-21.50789 -6.16326,-31.1102 -4.08029,-8.44349 -11.53739,-15.35404 -20.96544,-17.09628 a 20.912411,20.912411 0 0 0 -12.60345,1.44774 c -1.34484,0.6135 -0.17727,2.59639 1.16085,1.98596 8.34342,-3.80612 18.20485,-0.10283 24.36737,6.04268 7.19625,7.17638 9.83891,17.77409 11.01236,27.55278 a 172.95036,172.95036 0 0 1 -6.10886,68.99407 c -6.39914,21.73648 -16.4648,42.56575 -18.78747,65.33921 -1.05986,10.39172 -0.51538,21.13466 2.80622,31.09941 a 48.574837,48.574837 0 0 0 15.39317,22.66692 c 6.77892,5.48029 15.1184,9.21412 23.89758,9.63006 9.85493,0.46689 18.49697,-3.92651 26.14279,-9.77094 8.1888,-6.25947 15.72307,-13.98285 25.64249,-17.49264 4.52224,-1.60009 9.67295,-2.34652 14.31612,-0.80653 a 17.963083,17.963083 0 0 1 9.54669,7.67581 c 2.01665,3.35325 2.76053,7.54583 0.92024,11.14808 -1.73025,3.38686 -5.10749,5.34588 -8.76348,6.01632 a 17.004344,17.004344 0 0 1 -11.28826,-1.91802 c -4.00508,-2.28738 -6.93571,-6.12625 -8.98885,-10.18209 -4.09425,-8.08788 -5.46991,-17.71555 -5.67874,-26.69255 a 88.385887,88.385887 0 0 1 3.33377,-25.954 91.582447,91.582447 0 0 1 27.66813,-44.10506 81.236349,81.236349 0 0 1 10.71356,-7.88817 c 4.12464,-2.54225 8.52725,-4.5736 12.73209,-6.97235 4.1375,-2.36033 8.21512,-5.18048 11.06432,-9.06458 a 19.499755,19.499755 0 0 0 3.74687,-11.46206 12.853874,12.853874 0 0 0 -4.44959,-10.02183 c -1.13758,-0.92806 -2.77426,0.68983 -1.62633,1.62633 z"
     id="path6" />
  <path
     inkscape:connector-curvature="0"
     style="fill:#3f3d56;stroke-width:0.76666039"
     d="m 88.514726,351.03326 a 66.959576,66.959576 0 0 0 34.093554,10.68725 15.984663,15.984663 0 0 1 -0.72848,1.50265 19.218145,19.218145 0 0 1 -5.82669,6.55495 19.142874,19.142874 0 0 1 -30.160301,-15.65521 v -3.08964 z"
     id="path8-3" />
  <path
     inkscape:connector-curvature="0"
     style="fill:#3f3d56;stroke-width:0.76666039"
     d="m 160.02115,351.93791 v 2.18499 a 19.136312,19.136312 0 0 1 -35.94094,9.16159 15.983536,15.983536 0 0 1 -0.75917,-1.54099 c 0.55966,0.0153 1.1118,0.023 1.67145,0.023 a 67.057157,67.057157 0 0 0 35.02866,-9.82859 z"
     id="path10-6" />
  <path
     inkscape:connector-curvature="0"
     style="fill:#3f3d56;stroke-width:0.76666039"
     d="m 185.81172,120.88179 c -0.575,-0.0843 -1.15785,-0.138 -1.74032,-0.17633 a 64.384908,64.384908 0 0 1 1.28026,48.07727 c 0.58286,-0.069 1.15785,-0.161 1.73285,-0.26833 a 24.151551,24.151551 0 0 0 -1.27278,-47.63261 z"
     id="path12-7" />
  <path
     inkscape:connector-curvature="0"
     style="fill:#3f3d56;stroke-width:0.76666039"
     d="m 65.913592,120.70548 c -0.582478,0.0383 -1.165323,0.092 -1.740319,0.17633 a 24.151543,24.151543 0 0 0 -1.272771,47.63261 c 0.574995,0.10733 1.149991,0.19933 1.732844,0.26833 a 64.384908,64.384908 0 0 1 1.280262,-48.07727 z"
     id="path14" />
  <path
     inkscape:connector-curvature="0"
     style="fill:#3f3d56;stroke-width:0.76666039"
     d="m 185.81172,120.88179 a 65.930319,65.930319 0 1 0 5.11356,25.45313 66.020808,66.020808 0 0 0 -5.11356,-25.45313 z m -0.46008,47.90094 a 64.384908,64.384908 0 1 1 4.0403,-22.44781 64.493007,64.493007 0 0 1 -4.0403,22.44784 z"
     id="path16-5" />
  <path
     inkscape:connector-curvature="0"
     style="opacity:1;vector-effect:none;fill:#4400aa;fill-opacity:1;stroke-width:0.40282154;stroke-linecap:butt;stroke-linejoin:miter;stroke-miterlimit:4;stroke-dasharray:none;stroke-dashoffset:0;stroke-opacity:1"
     d="M 158.72554,131.38506 H 91.259432 a 13.416557,13.416557 0 0 0 0,26.83311 h 67.466108 a 13.416557,13.416557 0 0 0 0,-26.83311 z"
     id="path18-3" />
  <path
     inkscape:connector-curvature="0"
     style="fill:#3f3d56;stroke-width:0.76666039"
     d="m 124.99249,225.30095 a 68.996945,68.996945 0 0 0 -3.11269,137.92221 c 0.72848,0.0383 1.46444,0.0613 2.20041,0.0613 0.30659,0.0153 0.60566,0.0153 0.91228,0.0153 a 68.99944,68.99944 0 0 0 0,-137.99888 z m 35.02866,126.63697 a 67.057157,67.057157 0 0 1 -35.02866,9.82859 c -0.55966,0 -1.11181,-0.008 -1.67145,-0.023 q -0.35657,0 -0.71276,-0.023 a 67.505369,67.505369 0 1 1 37.41287,-9.78259 z"
     id="path20-5" />
  <path
     inkscape:connector-curvature="0"
     style="fill:#3f3d56;stroke-width:0.76666039"
     d="m 173.41993,277.30621 h -30.15544 a 7.92229,7.92229 0 0 1 0,-15.84458 h 30.15544 a 7.92229,7.92229 0 0 1 0,15.84458 z"
     id="path22-6" />
  <circle
     style="fill:#f2f2f2;stroke-width:0.76666039"
     cx="145.27492"
     cy="269.38391"
     r="4.0207047"
     id="circle24" />
  <circle
     style="fill:#f2f2f2;stroke-width:0.76666039"
     cx="158.34221"
     cy="269.38391"
     r="4.0207047"
     id="circle26" />
  <circle
     style="fill:#4400aa;stroke-width:0.76666039"
     cx="171.40955"
     cy="269.38391"
     r="4.0207047"
     id="circle28" />
</svg>
