<?xml version="1.0" encoding="UTF-8" standalone="no"?>
<svg
   xmlns:dc="http://purl.org/dc/elements/1.1/"
   xmlns:cc="http://creativecommons.org/ns#"
   xmlns:rdf="http://www.w3.org/1999/02/22-rdf-syntax-ns#"
   xmlns:svg="http://www.w3.org/2000/svg"
   xmlns="http://www.w3.org/2000/svg"
   xmlns:sodipodi="http://sodipodi.sourceforge.net/DTD/sodipodi-0.dtd"
   xmlns:inkscape="http://www.inkscape.org/namespaces/inkscape"
   viewBox="-43.94 24 345.20251 74.199417"
   width="345.20251"
   height="74.199417"
   version="1.1"
   preserveAspectRatio="xMidYMid meet"
   id="svgqatent"
   sodipodi:docname="qatent-logo.svg"
   inkscape:version="0.92.5 (2060ec1f9f, 2020-04-08)">
  <metadata
     id="metadata41">
    <rdf:RDF>
      <cc:Work
         rdf:about="">
        <dc:format>image/svg+xml</dc:format>
        <dc:type
           rdf:resource="http://purl.org/dc/dcmitype/StillImage" />
        <dc:title />
      </cc:Work>
    </rdf:RDF>
  </metadata>
  <sodipodi:namedview
     pagecolor="#ffffff"
     bordercolor="#666666"
     borderopacity="1"
     objecttolerance="10"
     gridtolerance="10"
     guidetolerance="10"
     inkscape:pageopacity="0"
     inkscape:pageshadow="2"
     inkscape:window-width="2416"
     inkscape:window-height="1409"
     id="namedview39"
     showgrid="false"
     fit-margin-top="0"
     fit-margin-left="0"
     fit-margin-right="0"
     fit-margin-bottom="0"
     inkscape:zoom="10.834221"
     inkscape:cx="83.375514"
     inkscape:cy="36.743188"
     inkscape:window-x="0"
     inkscape:window-y="0"
     inkscape:window-maximized="1"
     inkscape:current-layer="svgqatent" />
  <!-- viewBox="-10 24 297 224" width="297mm" height="210mm" -->
  <defs
     id="defs7">
    <symbol
       id="qsym">
      <path
         transform="scale(1.05)"
         style="fill-rule:nonzero;stroke-width:0.5px;shape-rendering:geometricPrecision"
         d="m 127.6,149.5 q -4.4,0 -7,2.8 -2.4,2.8 -2.4,8.2 0,5.3 2.4,8.1 2.6,2.8 7,2.8 4.7,0 7.1,-2.8 2.6,-2.8 2.6,-8.1 0,-5.4 -2.6,-8.2 -2.4,-2.8 -7.1,-2.8 z m 9.7,24.2 q -3.1,3.4 -6.7,4.9 -3.7,1.5 -8.3,1.5 -8.4,0 -13.8,-5.5 -5.3,-5.5 -5.3,-14.1 0,-8.7 5.3,-14.2 5.4,-5.5 13.8,-5.5 4.6,0 8.3,1.6 3.6,1.5 6.7,4.8 v -5.5 h 14.4 v 51.7 h -14.4 z"
         id="path2"
         inkscape:connector-curvature="0" />
    </symbol>
    <style
       id="style5">
      svg { background: none; /* none, #00b140, black */ }
			#bq { opacity: 1; fill: #1c2224; }
			.letter { opacity: 1; }
		</style>
  </defs>
  <g
     id="s7-3"
     style="fill:#800080;fill-opacity:0.64420004"
     transform="matrix(-0.0327,0.49892,0,1,12.45636,-184.77255)">
    <path
       inkscape:connector-curvature="0"
       id="path898"
       d="m 127.6,149.5 q -4.4,0 -7,2.8 -2.4,2.8 -2.4,8.2 0,5.3 2.4,8.1 2.6,2.8 7,2.8 4.7,0 7.1,-2.8 2.6,-2.8 2.6,-8.1 0,-5.4 -2.6,-8.2 -2.4,-2.8 -7.1,-2.8 z m 9.7,24.2 q -3.1,3.4 -6.7,4.9 -3.7,1.5 -8.3,1.5 -8.4,0 -13.8,-5.5 -5.3,-5.5 -5.3,-14.1 0,-8.7 5.3,-14.2 5.4,-5.5 13.8,-5.5 4.6,0 8.3,1.6 3.6,1.5 6.7,4.8 v -5.5 h 14.4 v 51.7 h -14.4 z"
       style="fill-rule:nonzero;stroke-width:0.5px;shape-rendering:geometricPrecision"
       transform="scale(1.05)" />
  </g>
  <g
     id="s6-3"
     style="fill:#740088;fill-opacity:0.64420004"
     transform="matrix(-0.09852,0.49529,0,1,22.94034,-184.19389)">
    <path
       inkscape:connector-curvature="0"
       id="path902"
       d="m 127.6,149.5 q -4.4,0 -7,2.8 -2.4,2.8 -2.4,8.2 0,5.3 2.4,8.1 2.6,2.8 7,2.8 4.7,0 7.1,-2.8 2.6,-2.8 2.6,-8.1 0,-5.4 -2.6,-8.2 -2.4,-2.8 -7.1,-2.8 z m 9.7,24.2 q -3.1,3.4 -6.7,4.9 -3.7,1.5 -8.3,1.5 -8.4,0 -13.8,-5.5 -5.3,-5.5 -5.3,-14.1 0,-8.7 5.3,-14.2 5.4,-5.5 13.8,-5.5 4.6,0 8.3,1.6 3.6,1.5 6.7,4.8 v -5.5 h 14.4 v 51.7 h -14.4 z"
       style="fill-rule:nonzero;stroke-width:0.5px;shape-rendering:geometricPrecision"
       transform="scale(1.05)" />
  </g>
  <g
     id="s5-3"
     style="fill:#680090;fill-opacity:0.64420004"
     transform="matrix(-0.16554,0.48766,0,1,33.61574,-182.97893)">
    <path
       inkscape:connector-curvature="0"
       id="path906"
       d="m 127.6,149.5 q -4.4,0 -7,2.8 -2.4,2.8 -2.4,8.2 0,5.3 2.4,8.1 2.6,2.8 7,2.8 4.7,0 7.1,-2.8 2.6,-2.8 2.6,-8.1 0,-5.4 -2.6,-8.2 -2.4,-2.8 -7.1,-2.8 z m 9.7,24.2 q -3.1,3.4 -6.7,4.9 -3.7,1.5 -8.3,1.5 -8.4,0 -13.8,-5.5 -5.3,-5.5 -5.3,-14.1 0,-8.7 5.3,-14.2 5.4,-5.5 13.8,-5.5 4.6,0 8.3,1.6 3.6,1.5 6.7,4.8 v -5.5 h 14.4 v 51.7 h -14.4 z"
       style="fill-rule:nonzero;stroke-width:0.5px;shape-rendering:geometricPrecision"
       transform="scale(1.05)" />
  </g>
  <g
     id="s4-3"
     style="fill:#5c0099;fill-opacity:0.64420004"
     transform="matrix(-0.23883,0.48431,0,1,45.29046,-182.4441)">
    <path
       inkscape:connector-curvature="0"
       id="path910"
       d="m 127.6,149.5 q -4.4,0 -7,2.8 -2.4,2.8 -2.4,8.2 0,5.3 2.4,8.1 2.6,2.8 7,2.8 4.7,0 7.1,-2.8 2.6,-2.8 2.6,-8.1 0,-5.4 -2.6,-8.2 -2.4,-2.8 -7.1,-2.8 z m 9.7,24.2 q -3.1,3.4 -6.7,4.9 -3.7,1.5 -8.3,1.5 -8.4,0 -13.8,-5.5 -5.3,-5.5 -5.3,-14.1 0,-8.7 5.3,-14.2 5.4,-5.5 13.8,-5.5 4.6,0 8.3,1.6 3.6,1.5 6.7,4.8 v -5.5 h 14.4 v 51.7 h -14.4 z"
       style="fill-rule:nonzero;stroke-width:0.5px;shape-rendering:geometricPrecision"
       transform="scale(1.05)" />
  </g>
  <g
     id="s3-3"
     style="fill:#5000a1;fill-opacity:0.64420004"
     transform="matrix(-0.31389,0.46978,0,1,57.2466,-180.12953)">
    <path
       inkscape:connector-curvature="0"
       id="path914"
       d="m 127.6,149.5 q -4.4,0 -7,2.8 -2.4,2.8 -2.4,8.2 0,5.3 2.4,8.1 2.6,2.8 7,2.8 4.7,0 7.1,-2.8 2.6,-2.8 2.6,-8.1 0,-5.4 -2.6,-8.2 -2.4,-2.8 -7.1,-2.8 z m 9.7,24.2 q -3.1,3.4 -6.7,4.9 -3.7,1.5 -8.3,1.5 -8.4,0 -13.8,-5.5 -5.3,-5.5 -5.3,-14.1 0,-8.7 5.3,-14.2 5.4,-5.5 13.8,-5.5 4.6,0 8.3,1.6 3.6,1.5 6.7,4.8 v -5.5 h 14.4 v 51.7 h -14.4 z"
       style="fill-rule:nonzero;stroke-width:0.5px;shape-rendering:geometricPrecision"
       transform="scale(1.05)" />
  </g>
  <g
     id="s2-3"
     style="fill:#4400aa;fill-opacity:0.64420004"
     transform="matrix(-0.3989,0.45486,0,1,70.78694,-177.75344)">
    <path
       inkscape:connector-curvature="0"
       id="path918"
       d="m 127.6,149.5 q -4.4,0 -7,2.8 -2.4,2.8 -2.4,8.2 0,5.3 2.4,8.1 2.6,2.8 7,2.8 4.7,0 7.1,-2.8 2.6,-2.8 2.6,-8.1 0,-5.4 -2.6,-8.2 -2.4,-2.8 -7.1,-2.8 z m 9.7,24.2 q -3.1,3.4 -6.7,4.9 -3.7,1.5 -8.3,1.5 -8.4,0 -13.8,-5.5 -5.3,-5.5 -5.3,-14.1 0,-8.7 5.3,-14.2 5.4,-5.5 13.8,-5.5 4.6,0 8.3,1.6 3.6,1.5 6.7,4.8 v -5.5 h 14.4 v 51.7 h -14.4 z"
       style="fill-rule:nonzero;stroke-width:0.5px;shape-rendering:geometricPrecision"
       transform="scale(1.05)" />
  </g>
  <g
     id="s8-3"
     style="fill:#8e1671;fill-opacity:0.64420004"
     transform="matrix(0.03302,0.50391,0,1,1.98653,-185.56727)">
    <path
       inkscape:connector-curvature="0"
       id="path922"
       d="m 127.6,149.5 q -4.4,0 -7,2.8 -2.4,2.8 -2.4,8.2 0,5.3 2.4,8.1 2.6,2.8 7,2.8 4.7,0 7.1,-2.8 2.6,-2.8 2.6,-8.1 0,-5.4 -2.6,-8.2 -2.4,-2.8 -7.1,-2.8 z m 9.7,24.2 q -3.1,3.4 -6.7,4.9 -3.7,1.5 -8.3,1.5 -8.4,0 -13.8,-5.5 -5.3,-5.5 -5.3,-14.1 0,-8.7 5.3,-14.2 5.4,-5.5 13.8,-5.5 4.6,0 8.3,1.6 3.6,1.5 6.7,4.8 v -5.5 h 14.4 v 51.7 h -14.4 z"
       style="fill-rule:nonzero;stroke-width:0.5px;shape-rendering:geometricPrecision"
       transform="scale(1.05)" />
  </g>
  <g
     id="s9-3"
     style="fill:#9c2d62;fill-opacity:0.64420004"
     transform="matrix(0.10047,0.5051,0,1,-8.75612,-185.75613)">
    <path
       inkscape:connector-curvature="0"
       id="path926"
       d="m 127.6,149.5 q -4.4,0 -7,2.8 -2.4,2.8 -2.4,8.2 0,5.3 2.4,8.1 2.6,2.8 7,2.8 4.7,0 7.1,-2.8 2.6,-2.8 2.6,-8.1 0,-5.4 -2.6,-8.2 -2.4,-2.8 -7.1,-2.8 z m 9.7,24.2 q -3.1,3.4 -6.7,4.9 -3.7,1.5 -8.3,1.5 -8.4,0 -13.8,-5.5 -5.3,-5.5 -5.3,-14.1 0,-8.7 5.3,-14.2 5.4,-5.5 13.8,-5.5 4.6,0 8.3,1.6 3.6,1.5 6.7,4.8 v -5.5 h 14.4 v 51.7 h -14.4 z"
       style="fill-rule:nonzero;stroke-width:0.5px;shape-rendering:geometricPrecision"
       transform="scale(1.05)" />
  </g>
  <g
     id="s10-3"
     style="fill:#ab4354;fill-opacity:0.64420004"
     transform="matrix(0.17357,0.51134,0,1,-20.40077,-186.74973)">
    <path
       inkscape:connector-curvature="0"
       id="path930"
       d="m 127.6,149.5 q -4.4,0 -7,2.8 -2.4,2.8 -2.4,8.2 0,5.3 2.4,8.1 2.6,2.8 7,2.8 4.7,0 7.1,-2.8 2.6,-2.8 2.6,-8.1 0,-5.4 -2.6,-8.2 -2.4,-2.8 -7.1,-2.8 z m 9.7,24.2 q -3.1,3.4 -6.7,4.9 -3.7,1.5 -8.3,1.5 -8.4,0 -13.8,-5.5 -5.3,-5.5 -5.3,-14.1 0,-8.7 5.3,-14.2 5.4,-5.5 13.8,-5.5 4.6,0 8.3,1.6 3.6,1.5 6.7,4.8 v -5.5 h 14.4 v 51.7 h -14.4 z"
       style="fill-rule:nonzero;stroke-width:0.5px;shape-rendering:geometricPrecision"
       transform="scale(1.05)" />
  </g>
  <g
     id="s11-3"
     style="fill:#b95a45;fill-opacity:0.64420004"
     transform="matrix(0.24989,0.50673,0,1,-32.55673,-186.01556)">
    <path
       inkscape:connector-curvature="0"
       id="path934"
       d="m 127.6,149.5 q -4.4,0 -7,2.8 -2.4,2.8 -2.4,8.2 0,5.3 2.4,8.1 2.6,2.8 7,2.8 4.7,0 7.1,-2.8 2.6,-2.8 2.6,-8.1 0,-5.4 -2.6,-8.2 -2.4,-2.8 -7.1,-2.8 z m 9.7,24.2 q -3.1,3.4 -6.7,4.9 -3.7,1.5 -8.3,1.5 -8.4,0 -13.8,-5.5 -5.3,-5.5 -5.3,-14.1 0,-8.7 5.3,-14.2 5.4,-5.5 13.8,-5.5 4.6,0 8.3,1.6 3.6,1.5 6.7,4.8 v -5.5 h 14.4 v 51.7 h -14.4 z"
       style="fill-rule:nonzero;stroke-width:0.5px;shape-rendering:geometricPrecision"
       transform="scale(1.05)" />
  </g>
  <g
     id="s12-3"
     style="fill:#c87137;fill-opacity:0.64420004"
     transform="matrix(0.33611,0.50303,0,1,-46.29138,-185.42716)">
    <path
       inkscape:connector-curvature="0"
       id="path938"
       d="m 127.6,149.5 q -4.4,0 -7,2.8 -2.4,2.8 -2.4,8.2 0,5.3 2.4,8.1 2.6,2.8 7,2.8 4.7,0 7.1,-2.8 2.6,-2.8 2.6,-8.1 0,-5.4 -2.6,-8.2 -2.4,-2.8 -7.1,-2.8 z m 9.7,24.2 q -3.1,3.4 -6.7,4.9 -3.7,1.5 -8.3,1.5 -8.4,0 -13.8,-5.5 -5.3,-5.5 -5.3,-14.1 0,-8.7 5.3,-14.2 5.4,-5.5 13.8,-5.5 4.6,0 8.3,1.6 3.6,1.5 6.7,4.8 v -5.5 h 14.4 v 51.7 h -14.4 z"
       style="fill-rule:nonzero;stroke-width:0.5px;shape-rendering:geometricPrecision"
       transform="scale(1.05)" />
  </g>
  <g
     id="s13-3"
     style="fill:#a67239;fill-opacity:0.64420004"
     transform="matrix(0.42527,0.48493,0,1,-60.492921,-182.54371)">
    <path
       inkscape:connector-curvature="0"
       id="path942"
       d="m 127.6,149.5 q -4.4,0 -7,2.8 -2.4,2.8 -2.4,8.2 0,5.3 2.4,8.1 2.6,2.8 7,2.8 4.7,0 7.1,-2.8 2.6,-2.8 2.6,-8.1 0,-5.4 -2.6,-8.2 -2.4,-2.8 -7.1,-2.8 z m 9.7,24.2 q -3.1,3.4 -6.7,4.9 -3.7,1.5 -8.3,1.5 -8.4,0 -13.8,-5.5 -5.3,-5.5 -5.3,-14.1 0,-8.7 5.3,-14.2 5.4,-5.5 13.8,-5.5 4.6,0 8.3,1.6 3.6,1.5 6.7,4.8 v -5.5 h 14.4 v 51.7 h -14.4 z"
       style="fill-rule:nonzero;stroke-width:0.5px;shape-rendering:geometricPrecision"
       transform="scale(1.05)" />
  </g>
  <g
     id="s14-3"
     style="fill:#85733c;fill-opacity:0.64420004"
     transform="matrix(0.52252,0.45824,0,1,-75.983484,-178.29218)">
    <path
       inkscape:connector-curvature="0"
       id="path946"
       d="m 127.6,149.5 q -4.4,0 -7,2.8 -2.4,2.8 -2.4,8.2 0,5.3 2.4,8.1 2.6,2.8 7,2.8 4.7,0 7.1,-2.8 2.6,-2.8 2.6,-8.1 0,-5.4 -2.6,-8.2 -2.4,-2.8 -7.1,-2.8 z m 9.7,24.2 q -3.1,3.4 -6.7,4.9 -3.7,1.5 -8.3,1.5 -8.4,0 -13.8,-5.5 -5.3,-5.5 -5.3,-14.1 0,-8.7 5.3,-14.2 5.4,-5.5 13.8,-5.5 4.6,0 8.3,1.6 3.6,1.5 6.7,4.8 v -5.5 h 14.4 v 51.7 h -14.4 z"
       style="fill-rule:nonzero;stroke-width:0.5px;shape-rendering:geometricPrecision"
       transform="scale(1.05)" />
  </g>
  <g
     id="s15-3"
     style="fill:#217844;fill-opacity:0.64420004"
     transform="matrix(0.6236,0.41667,0,1,-92.082982,-171.67108)">
    <path
       inkscape:connector-curvature="0"
       id="path950"
       d="m 127.6,149.5 q -4.4,0 -7,2.8 -2.4,2.8 -2.4,8.2 0,5.3 2.4,8.1 2.6,2.8 7,2.8 4.7,0 7.1,-2.8 2.6,-2.8 2.6,-8.1 0,-5.4 -2.6,-8.2 -2.4,-2.8 -7.1,-2.8 z m 9.7,24.2 q -3.1,3.4 -6.7,4.9 -3.7,1.5 -8.3,1.5 -8.4,0 -13.8,-5.5 -5.3,-5.5 -5.3,-14.1 0,-8.7 5.3,-14.2 5.4,-5.5 13.8,-5.5 4.6,0 8.3,1.6 3.6,1.5 6.7,4.8 v -5.5 h 14.4 v 51.7 h -14.4 z"
       style="fill-rule:nonzero;stroke-width:0.5px;shape-rendering:geometricPrecision"
       transform="scale(1.05)" />
  </g>
  <g
     id="s16-3"
     style="fill:#2f486c;fill-opacity:0.71538541"
     transform="matrix(0.72646,0.35825,0,1,-108.46779,-162.36504)">
    <path
       inkscape:connector-curvature="0"
       id="path954"
       d="m 127.6,149.5 q -4.4,0 -7,2.8 -2.4,2.8 -2.4,8.2 0,5.3 2.4,8.1 2.6,2.8 7,2.8 4.7,0 7.1,-2.8 2.6,-2.8 2.6,-8.1 0,-5.4 -2.6,-8.2 -2.4,-2.8 -7.1,-2.8 z m 9.7,24.2 q -3.1,3.4 -6.7,4.9 -3.7,1.5 -8.3,1.5 -8.4,0 -13.8,-5.5 -5.3,-5.5 -5.3,-14.1 0,-8.7 5.3,-14.2 5.4,-5.5 13.8,-5.5 4.6,0 8.3,1.6 3.6,1.5 6.7,4.8 v -5.5 h 14.4 v 51.7 h -14.4 z"
       style="fill-rule:nonzero;stroke-width:0.5px;shape-rendering:geometricPrecision"
       transform="scale(1.05)" />
  </g>
  <g
     id="s17-3"
     style="fill:#286058;fill-opacity:0.786539"
     transform="matrix(0.82382,0.27965,0,1,-123.97614,-149.845)">
    <path
       inkscape:connector-curvature="0"
       id="path958"
       d="m 127.6,149.5 q -4.4,0 -7,2.8 -2.4,2.8 -2.4,8.2 0,5.3 2.4,8.1 2.6,2.8 7,2.8 4.7,0 7.1,-2.8 2.6,-2.8 2.6,-8.1 0,-5.4 -2.6,-8.2 -2.4,-2.8 -7.1,-2.8 z m 9.7,24.2 q -3.1,3.4 -6.7,4.9 -3.7,1.5 -8.3,1.5 -8.4,0 -13.8,-5.5 -5.3,-5.5 -5.3,-14.1 0,-8.7 5.3,-14.2 5.4,-5.5 13.8,-5.5 4.6,0 8.3,1.6 3.6,1.5 6.7,4.8 v -5.5 h 14.4 v 51.7 h -14.4 z"
       style="fill-rule:nonzero;stroke-width:0.5px;shape-rendering:geometricPrecision"
       transform="scale(1.05)" />
  </g>
  <g
     id="s18-3"
     style="fill:#362f81;fill-opacity:0.85769199"
     transform="matrix(0.91703,0.1824,0,1,-138.8223,-134.35567)">
    <path
       inkscape:connector-curvature="0"
       id="path962"
       d="m 127.6,149.5 q -4.4,0 -7,2.8 -2.4,2.8 -2.4,8.2 0,5.3 2.4,8.1 2.6,2.8 7,2.8 4.7,0 7.1,-2.8 2.6,-2.8 2.6,-8.1 0,-5.4 -2.6,-8.2 -2.4,-2.8 -7.1,-2.8 z m 9.7,24.2 q -3.1,3.4 -6.7,4.9 -3.7,1.5 -8.3,1.5 -8.4,0 -13.8,-5.5 -5.3,-5.5 -5.3,-14.1 0,-8.7 5.3,-14.2 5.4,-5.5 13.8,-5.5 4.6,0 8.3,1.6 3.6,1.5 6.7,4.8 v -5.5 h 14.4 v 51.7 h -14.4 z"
       style="fill-rule:nonzero;stroke-width:0.5px;shape-rendering:geometricPrecision"
       transform="scale(1.05)" />
  </g>
  <g
     id="s1"
     style="fill:#4400aa;fill-opacity:1;stroke:#4400aa"
     transform="translate(-152.0375,-105.30058)">
    <path
       inkscape:connector-curvature="0"
       id="path894"
       d="m 127.6,149.5 q -4.4,0 -7,2.8 -2.4,2.8 -2.4,8.2 0,5.3 2.4,8.1 2.6,2.8 7,2.8 4.7,0 7.1,-2.8 2.6,-2.8 2.6,-8.1 0,-5.4 -2.6,-8.2 -2.4,-2.8 -7.1,-2.8 z m 9.7,24.2 q -3.1,3.4 -6.7,4.9 -3.7,1.5 -8.3,1.5 -8.4,0 -13.8,-5.5 -5.3,-5.5 -5.3,-14.1 0,-8.7 5.3,-14.2 5.4,-5.5 13.8,-5.5 4.6,0 8.3,1.6 3.6,1.5 6.7,4.8 v -5.5 h 14.4 v 51.7 h -14.4 z"
       style="fill-rule:nonzero;stroke-width:0.5px;shape-rendering:geometricPrecision"
       transform="scale(1.05)" />
  </g>
  <path
     d="m 115.1925,65.19942 q -4.8,0 -7.23,1.3 -2.41,1.4 -2.41,4 0,2.4 1.94,3.8 1.95,1.4 5.42,1.4 4.33,0 7.26,-2.6 2.99,-2.6 2.99,-6.4 v -1.5 z m 23.37,-4.8 v 22.7 h -15.4 v -5.9 q -3.13,3.6 -6.97,5.3 -3.85,1.6 -9.36,1.6 -7.47,0 -12.11,-3.6 -4.62,-3.6 -4.62,-9.4 0,-6.9 5.8,-10.2 5.79,-3.3 18.2,-3.3 h 9.06 v -0.9 q 0,-3.1 -2.94,-4.5 -2.84,-1.4 -8.88,-1.4 -4.94,0 -9.17,0.9 -4.23,0.8 -7.88,2.4 v -9.7 q 4.93,-1 9.88,-1.5 4.98,-0.5 9.93,-0.5 12.96,0 18.76,4.2 5.7,4.3 5.7,13.8 z"
     style="opacity:1;fill:#1c2224;fill-opacity:1;fill-rule:nonzero;stroke:#1c2224;stroke-width:0;stroke-dasharray:263.4364;stroke-dashoffset:256.36221313"
     id="ba"
     class="letter"
     inkscape:connector-curvature="0" />
  <path
     d="m 157.6625,32.09942 v 11.2 h 15.7 v 9.1 h -15.7 v 16.9 q 0,2.7 1.2,3.8 1.4,0.9 5.3,0.9 h 7.9 v 9.1 h -13.1 q -9,0 -12.8,-3.1 -3.8,-3.2 -3.8,-10.7 v -16.9 h -7.7 v -9.1 h 7.7 v -11.2 z"
     style="opacity:1;fill:#1c2224;fill-opacity:1;fill-rule:nonzero;stroke:#1c2224;stroke-width:0;stroke-dasharray:202.9392;stroke-dashoffset:197.48950195"
     id="bt1"
     class="letter"
     inkscape:connector-curvature="0" />
  <path
     d="m 218.6625,63.09942 v 3.6 h -35.8 q 0.6,4.5 3.9,6.7 3.3,2.3 9.3,2.3 4.9,0 9.9,-1.2 5.1,-1.2 10.4,-3.6 v 9.8 q -5.4,1.7 -10.9,2.5 -5.4,0.9 -10.8,0.9 -13,0 -20.2,-5.4 -7.2,-5.5 -7.2,-15.5 0,-9.6 7,-15.2 7.2,-5.6 19.5,-5.6 11.3,0 18.1,5.6 6.8,5.6 6.8,15.1 z m -15.7,-4.2 q 0,-3.7 -2.6,-5.8 -2.5,-2.3 -6.7,-2.3 -4.4,0 -7.1,2.1 -2.9,2.1 -3.6,6 z"
     style="opacity:1;fill:#1c2224;fill-opacity:1;fill-rule:nonzero;stroke:#1c2224;stroke-width:0;stroke-dasharray:259.7533;stroke-dashoffset:252.77799988"
     id="be"
     class="letter"
     inkscape:connector-curvature="0" />
  <path
     d="m 266.5625,58.89942 v 24.2 h -15.5 v -4 -14.5 q 0,-5.2 -0.2,-7.1 -0.3,-2 -0.9,-2.9 -1,-1.2 -2.5,-1.9 -1.6,-0.7 -3.5,-0.7 -4.9,0 -7.6,3.1 -2.7,3 -2.7,8.5 v 19.5 h -15.3 v -39.8 h 15.3 v 5.9 q 3.5,-3.5 7.3,-5.2 4,-1.6 8.7,-1.6 8.2,0 12.5,4.2 4.4,4.2 4.4,12.3 z"
     style="opacity:1;fill:#1c2224;fill-opacity:1;fill-rule:nonzero;stroke:#1c2224;stroke-width:0;stroke-dasharray:244.2892;stroke-dashoffset:237.72909546"
     id="bn"
     class="letter"
     inkscape:connector-curvature="0" />
  <path
     d="m 285.5625,32.09942 v 11.2 h 15.7 v 9.1 h -15.7 v 16.9 q 0,2.7 1.3,3.8 1.3,0.9 5.3,0.9 h 7.8 v 9.1 h -13.1 q -9,0 -12.8,-3.1 -3.8,-3.2 -3.8,-10.7 v -16.9 h -7.6 v -9.1 h 7.6 v -11.2 z"
     style="opacity:1;fill:#1c2224;fill-opacity:1;fill-rule:nonzero;stroke:#1c2224;stroke-width:0;stroke-dasharray:202.9392;stroke-dashoffset:197.48950195"
     id="bt2"
     class="letter"
     inkscape:connector-curvature="0" />
  <path
     d="m 65.3925,51.59942 q -4.83,0 -7.45,3 -2.57,2.9 -2.57,8.6 0,5.7 2.57,8.7 2.62,3 7.45,3 4.95,0 7.51,-3 2.61,-3 2.61,-8.7 0,-5.7 -2.61,-8.6 -2.56,-3 -7.51,-3 z m 10.12,25.8 q -3.17,3.5 -6.98,5.1 -3.8,1.6 -8.83,1.6 -8.83,0 -14.54,-5.8 -5.65,-5.8 -5.65,-15.1 0,-9.1 5.65,-14.9 5.71,-5.8 14.54,-5.8 5.03,0 8.83,1.6 3.81,1.6 6.98,5.2 v -6 h 15.4 v 54.9 h -15.4 z"
     style="opacity:1;fill:#1c2224;fill-opacity:1;fill-rule:nonzero;stroke:#1c2224;stroke-width:0;stroke-dasharray:292.7429;stroke-dashoffset:284.88171387"
     id="bq"
     inkscape:connector-curvature="0" />
</svg>
