<svg xmlns:svg="http://www.w3.org/2000/svg" xmlns="http://www.w3.org/2000/svg" xmlns:xlink="http://www.w3.org/1999/xlink" viewBox="-43.94 24 365.44 224" width="100%" height="100%" version="1.1" preserveAspectRatio="xMidYMid meet" id="svgqatent"><!-- viewBox="-10 24 297 224" width="297mm" height="210mm" -->
  <defs>
		<symbol id="qsym">
			<path transform="scale(1.05)" style="fill-rule:nonzero;stroke-width:0.5px;shape-rendering:geometricPrecision" d="m 127.6,149.5 q -4.4,0 -7,2.8 -2.4,2.8 -2.4,8.2 0,5.3 2.4,8.1 2.6,2.8 7,2.8 4.7,0 7.1,-2.8 2.6,-2.8 2.6,-8.1 0,-5.4 -2.6,-8.2 -2.4,-2.8 -7.1,-2.8 z m 9.7,24.2 q -3.1,3.4 -6.7,4.9 -3.7,1.5 -8.3,1.5 -8.4,0 -13.8,-5.5 -5.3,-5.5 -5.3,-14.1 0,-8.7 5.3,-14.2 5.4,-5.5 13.8,-5.5 4.6,0 8.3,1.6 3.6,1.5 6.7,4.8 v -5.5 h 14.4 v 51.7 h -14.4 z"></path>
		</symbol>
    <style>
      svg { background: none; /* none, #00b140, black */ }
			#bq { opacity: 1; fill: #1c2224; }
			.letter { opacity: 1; }
		</style>
  </defs>
  <g transform="translate(0,-87)">
   	<g id="card2" transform="translate(-141.8,46.3)">
			<use id="s7-3" class="qpl" xlink:href="#qsym" style="fill: rgb(128, 0, 128); --rot:5; --roty:-0.61; --tan:0.77; fill-opacity: 0.6442; transform-origin: 0px 0px 0px;" data-svg-origin="159.2849884033203 203.06997680664062" transform="matrix(-0.0327,0.49892,0,1,164.4938567438024,-79.4719735081053)"></use>
			<use id="s6-3" class="qpl" xlink:href="#qsym" style="fill: rgb(116, 0, 136); --rot:4; --roty:-0.5; --tan:0.58; fill-opacity: 0.6442; transform-origin: 0px 0px 0px;" data-svg-origin="159.2849884033203 203.06997680664062" transform="matrix(-0.09852,0.49529,0,1,174.9778430416895,-78.8933078676638)"></use>
			<use id="s5-3" class="qpl" xlink:href="#qsym" style="fill: rgb(104, 0, 144); --rot:3; --roty:-0.38; --tan:0.41; fill-opacity: 0.6442; transform-origin: 0px 0px 0px;" data-svg-origin="159.2849884033203 203.06997680664062" transform="matrix(-0.16554,0.48766,0,1,185.65323637745985,-77.67835366812199)"></use>
			<use id="s4-3" class="qpl" xlink:href="#qsym" style="fill: rgb(92, 0, 153); --rot:2; --roty:-0.26; --tan:0.27; fill-opacity: 0.6442; transform-origin: 0px 0px 0px;" data-svg-origin="159.2849884033203 203.06997680664062" transform="matrix(-0.23883,0.48431,0,1,197.3279608052451,-77.14351668651574)"></use>
			<use id="s3-3" class="qpl" xlink:href="#qsym" style="fill: rgb(80, 0, 161); --rot:1; --roty:-0.13; --tan:0.13; fill-opacity: 0.6442; transform-origin: 0px 0px 0px;" data-svg-origin="159.2849884033203 203.06997680664062" transform="matrix(-0.31389,0.46978,0,1,209.2840973432432,-74.8289545676281)"></use>
			<use id="s2-3" class="qpl" xlink:href="#qsym" style="fill: rgb(68, 0, 170); --rot:0; --roty:0; --tan:0; fill-opacity: 0.6442; transform-origin: 0px 0px 0px;" data-svg-origin="159.2849884033203 203.06997680664062" transform="matrix(-0.3989,0.45486,0,1,222.82444216307562,-72.45286098434332)"></use>
			<use id="s8-3" class="qpl" xlink:href="#qsym" style="fill: rgb(142, 22, 113); --rot:6; --roty:-0.71; --tan:1; fill-opacity: 0.6442; transform-origin: 0px 0px 0px;" data-svg-origin="159.2849884033203 203.06997680664062" transform="matrix(0.03302,0.50391,0,1,154.02403137943338,-80.26669324318641)"></use>
			<use id="s9-3" class="qpl" xlink:href="#qsym" style="fill: rgb(156, 45, 98); --rot:7; --roty:-0.79; --tan:1.3; fill-opacity: 0.6442; transform-origin: 0px 0px 0px;" data-svg-origin="159.2849884033203 203.06997680664062" transform="matrix(0.10047,0.5051,0,1,143.2813841681517,-80.45555158781553)"></use>
			<use id="s10-3" class="qpl" xlink:href="#qsym" style="fill: rgb(171, 67, 84); --rot:8; --roty:-0.87; --tan:1.73; fill-opacity: 0.6442; transform-origin: 0px 0px 0px;" data-svg-origin="159.2849884033203 203.06997680664062" transform="matrix(0.17357,0.51134,0,1,131.63672839160117,-81.44914753550654)"></use>
			<use id="s11-3" class="qpl" xlink:href="#qsym" style="fill: rgb(185, 90, 69); --rot:9; --roty:-0.92; --tan:2.41; fill-opacity: 0.6442; transform-origin: 0px 0px 0px;" data-svg-origin="159.2849884033203 203.06997680664062" transform="matrix(0.24989,0.50673,0,1,119.48076727908418,-80.71497579237291)"></use>
			<use id="s12-3" class="qpl" xlink:href="#qsym" style="fill: rgb(200, 113, 55); --rot:10; --roty:-0.97; --tan:3.73; fill-opacity: 0.6442; transform-origin: 0px 0px 0px;" data-svg-origin="159.2849884033203 203.06997680664062" transform="matrix(0.33611,0.50303,0,1,105.74611953844715,-80.1265796697611)"></use>
			<use id="s13-3" class="qpl" xlink:href="#qsym" style="fill: rgb(166, 114, 57); --rot:11; --roty:-0.99; --tan:4; fill-opacity: 0.6442; transform-origin: 0px 0px 0px;" data-svg-origin="159.2849884033203 203.06997680664062" transform="matrix(0.42527,0.48493,0,1,91.5445790230853,-77.24313278496106)"></use>
			<use id="s14-3" class="qpl" xlink:href="#qsym" style="fill: rgb(133, 115, 60); --rot:12; --roty:-1; --tan:16; fill-opacity: 0.6442; transform-origin: 0px 0px 0px;" data-svg-origin="159.2849884033203 203.06997680664062" transform="matrix(0.52252,0.45824,0,1,76.05401586758708,-72.99160390583461)"></use>
			<use id="s15-3" class="qpl" xlink:href="#qsym" style="fill: rgb(33, 120, 68); --rot:13; --roty:-0.99; --tan:-7.6; fill-opacity: 0.6442; transform-origin: 0px 0px 0px;" data-svg-origin="159.2849884033203 203.06997680664062" transform="matrix(0.6236,0.41667,0,1,59.9545177383272,-66.37049859281797)"></use>
			<use id="s16-3" class="qpl" xlink:href="#qsym" style="fill: rgb(47, 72, 108); --rot:14; --fo:0.71538469; --roty:-0.97; --tan:-3.73; fill-opacity: 0.715385; transform-origin: 0px 0px 0px;" data-svg-origin="159.2849884033203 203.06997680664062" transform="matrix(0.72646,0.35825,0,1,43.56971337354675,-57.064458602887214)"></use>
			<use id="s17-3" class="qpl" xlink:href="#qsym" style="fill: rgb(40, 96, 88); --rot:15; --fo:0.78653846; --roty:-0.92; --tan:-2.41; fill-opacity: 0.786539; transform-origin: 0px 0px 0px;" data-svg-origin="159.2849884033203 203.06997680664062" transform="matrix(0.82382,0.27965,0,1,28.06136181833753,-44.54441890776971)"></use>
			<use id="s18-3" class="qpl" xlink:href="#qsym" style="fill: rgb(54, 47, 129); --rot:16; --fo:0.85769228; --roty:-0.87; --tan:-1.73; fill-opacity: 0.857692; transform-origin: 0px 0px 0px;" data-svg-origin="159.2849884033203 203.06997680664062" transform="matrix(0.91703,0.1824,0,1,13.215200569130928,-29.05508730074297)"></use>
			<use id="s19-3" class="qpl" xlink:href="#qsym" style="fill: rgb(61, 24, 149); --rot:17; --fo:0.92884617; --roty:-0.79; --tan:-1.3; fill-opacity: 1; transform-origin: 0px 0px 0px;" data-svg-origin="159.2849884033203 203.06997680664062" transform="matrix(0.99785,0.0654,0,1,0.34104138710966936,-10.417736680964197)"></use>
			<!--use id="s1" xlink:href="#qsym" style="fill: #4400aa; stroke: #4400aa; fill-opacity: 0.6442"></use-->
			<use id="s1" xlink:href="#qsym" style="transform: translate(-0.5px); fill: rgb(68, 0, 170); stroke: rgb(68, 0, 170); fill-opacity: 1; opacity: 1;"></use>
		</g><!-- card2 -->
    <g id="qatent" transform="translate(32,0)">
      <path d="m 93.43,216.8 q -4.8,0 -7.23,1.3 -2.41,1.4 -2.41,4 0,2.4 1.94,3.8 1.95,1.4 5.42,1.4 4.33,0 7.26,-2.6 2.99,-2.6 2.99,-6.4 v -1.5 z M 116.8,212 v 22.7 h -15.4 v -5.9 q -3.13,3.6 -6.97,5.3 -3.85,1.6 -9.36,1.6 -7.47,0 -12.11,-3.6 -4.62,-3.6 -4.62,-9.4 0,-6.9 5.8,-10.2 5.79,-3.3 18.2,-3.3 h 9.06 v -0.9 q 0,-3.1 -2.94,-4.5 -2.84,-1.4 -8.88,-1.4 -4.94,0 -9.17,0.9 -4.23,0.8 -7.88,2.4 V 196 q 4.93,-1 9.88,-1.5 4.98,-0.5 9.93,-0.5 12.96,0 18.76,4.2 5.7,4.3 5.7,13.8 z" style="fill:#1c2224;fill-opacity:1;fill-rule:nonzero;stroke:#1c2224;stroke-width:0;stroke-dasharray:263.4364;stroke-dashoffset:256.3622" id="ba" class="letter"></path>
      <path d="m 135.9,183.7 v 11.2 h 15.7 v 9.1 h -15.7 v 16.9 q 0,2.7 1.2,3.8 1.4,0.9 5.3,0.9 h 7.9 v 9.1 h -13.1 q -9,0 -12.8,-3.1 -3.8,-3.2 -3.8,-10.7 V 204 h -7.7 v -9.1 h 7.7 v -11.2 z" style="fill:#1c2224;fill-opacity:1;fill-rule:nonzero;stroke:#1c2224;stroke-width:0;stroke-dasharray:202.9392;stroke-dashoffset:197.4895" id="bt1" class="letter"></path>
      <path d="m 196.9,214.7 v 3.6 h -35.8 q 0.6,4.5 3.9,6.7 3.3,2.3 9.3,2.3 4.9,0 9.9,-1.2 5.1,-1.2 10.4,-3.6 v 9.8 q -5.4,1.7 -10.9,2.5 -5.4,0.9 -10.8,0.9 -13,0 -20.2,-5.4 -7.2,-5.5 -7.2,-15.5 0,-9.6 7,-15.2 7.2,-5.6 19.5,-5.6 11.3,0 18.1,5.6 6.8,5.6 6.8,15.1 z m -15.7,-4.2 q 0,-3.7 -2.6,-5.8 -2.5,-2.3 -6.7,-2.3 -4.4,0 -7.1,2.1 -2.9,2.1 -3.6,6 z" style="fill:#1c2224;fill-opacity:1;fill-rule:nonzero;stroke:#1c2224;stroke-width:0;stroke-dasharray:259.7533;stroke-dashoffset:252.778" id="be" class="letter"></path>
      <path d="m 244.8,210.5 v 24.2 h -15.5 v -4 -14.5 q 0,-5.2 -0.2,-7.1 -0.3,-2 -0.9,-2.9 -1,-1.2 -2.5,-1.9 -1.6,-0.7 -3.5,-0.7 -4.9,0 -7.6,3.1 -2.7,3 -2.7,8.5 v 19.5 h -15.3 v -39.8 h 15.3 v 5.9 q 3.5,-3.5 7.3,-5.2 4,-1.6 8.7,-1.6 8.2,0 12.5,4.2 4.4,4.2 4.4,12.3 z" style="fill:#1c2224;fill-opacity:1;fill-rule:nonzero;stroke:#1c2224;stroke-width:0;stroke-dasharray:244.2892;stroke-dashoffset:237.7291" id="bn" class="letter"></path>
      <path d="m 263.8,183.7 v 11.2 h 15.7 v 9.1 h -15.7 v 16.9 q 0,2.7 1.3,3.8 1.3,0.9 5.3,0.9 h 7.8 v 9.1 h -13.1 q -9,0 -12.8,-3.1 -3.8,-3.2 -3.8,-10.7 V 204 h -7.6 v -9.1 h 7.6 v -11.2 z" style="fill:#1c2224;fill-opacity:1;fill-rule:nonzero;stroke:#1c2224;stroke-width:0;stroke-dasharray:202.9392;stroke-dashoffset:197.4895" id="bt2" class="letter"></path>
      <path d="m 43.63,203.2 q -4.83,0 -7.45,3 -2.57,2.9 -2.57,8.6 0,5.7 2.57,8.7 2.62,3 7.45,3 4.95,0 7.51,-3 2.61,-3 2.61,-8.7 0,-5.7 -2.61,-8.6 -2.56,-3 -7.51,-3 z M 53.75,229 q -3.17,3.5 -6.98,5.1 -3.8,1.6 -8.83,1.6 -8.83,0 -14.54,-5.8 -5.65,-5.8 -5.65,-15.1 0,-9.1 5.65,-14.9 5.71,-5.8 14.54,-5.8 5.03,0 8.83,1.6 3.81,1.6 6.98,5.2 v -6 h 15.4 v 54.9 h -15.4 z" style="fill-opacity:1;fill-rule:nonzero;stroke:#1c2224;stroke-width:0;stroke-dasharray:292.7429;stroke-dashoffset:284.8817" id="bq"></path>
    </g><!-- qatent -->
  </g>
</svg>