<svg width="926" height="174" viewBox="0 0 926 174" fill="none" xmlns="http://www.w3.org/2000/svg">
<g id="roadmap 1">
<path id="Vector" d="M711.102 82.0398H21.1026V84.0398H711.102V82.0398Z" fill="#3F3D56"/>
<path id="lineOne" d="M242.388 123.89H63.261V125.902H242.388V123.89Z" fill="#3F3D56"/>
<path id="lineTwo" d="M242.388 137.978H63.261V139.991H242.388V137.978Z" fill="#3F3D56"/>
<path id="lineThree" d="M242.388 152.067H63.261V154.08H242.388V152.067Z" fill="#3F3D56"/>
<path id="rectOne" d="M107.194 73.3357H66.904V106.072H107.194V73.3357Z" fill="#D0CDE1"/>
<path id="Vector_2" d="M101.319 101.035H59.3496V66.6206H101.319V101.035ZM61.0283 99.3565H99.6399V68.2994H61.0283V99.3565Z" fill="#3F3D56"/>
<path id="Vector_3" d="M27 92.1786C31.4183 92.1786 35 88.5969 35 84.1786C35 79.7603 31.4183 76.1786 27 76.1786C22.5817 76.1786 19 79.7603 19 84.1786C19 88.5969 22.5817 92.1786 27 92.1786Z" fill="#4400AA"/>
<path id="oneLine" d="M925.388 123.89H746.261V125.902H925.388V123.89Z" fill="#3F3D56"/>
<path id="twoLine" d="M925.388 137.978H746.261V139.991H925.388V137.978Z" fill="#3F3D56"/>
<path id="threeLine" d="M925.388 152.067H746.261V154.08H925.388V152.067Z" fill="#3F3D56"/>
<path id="rectThree" d="M790.194 73.3357H749.904V106.072H790.194V73.3357Z" fill="#D0CDE1"/>
<path id="Vector_4" d="M784.319 101.035H742.35V66.6206H784.319V101.035ZM744.028 99.3565H782.64V68.2994H744.028V99.3565Z" fill="#3F3D56"/>
<path id="Vector_5" d="M710 92.1786C714.418 92.1786 718 88.5969 718 84.1786C718 79.7603 714.418 76.1786 710 76.1786C705.582 76.1786 702 79.7603 702 84.1786C702 88.5969 705.582 92.1786 710 92.1786Z" fill="#4400AA"/>
<path id="line3" d="M584.388 40.1772H405.261V42.1899H584.388V40.1772Z" fill="#3F3D56"/>
<path id="line2" d="M584.388 26.0886H405.261V28.1013H584.388V26.0886Z" fill="#3F3D56"/>
<path id="line1" d="M584.388 12H405.261V14.0127H584.388V12Z" fill="#3F3D56"/>
<path id="rectTwo" d="M449.194 60.0082H408.904V92.744H449.194V60.0082Z" fill="#D0CDE1"/>
<path id="Vector_6" d="M443.319 99.4591H401.35V65.0444H443.319V99.4591ZM403.028 97.7803H441.64V66.7232H403.028V97.7803Z" fill="#3F3D56"/>
<path id="Vector_7" d="M369 89.9011C373.418 89.9011 377 86.3194 377 81.9011C377 77.4828 373.418 73.9011 369 73.9011C364.582 73.9011 361 77.4828 361 81.9011C361 86.3194 364.582 89.9011 369 89.9011Z" fill="#4400AA"/>
<path id="Vector_8" d="M153.102 100.04C163.044 100.04 171.102 91.9809 171.102 82.0398C171.102 72.0987 163.044 64.0398 153.102 64.0398C143.161 64.0398 135.102 72.0987 135.102 82.0398C135.102 91.9809 143.161 100.04 153.102 100.04Z" fill="white"/>
<path id="Vector_9" d="M153.087 61.7653C149.148 61.7653 145.298 62.9332 142.023 65.1213C138.749 67.3094 136.196 70.4194 134.689 74.0581C133.182 77.6968 132.787 81.7007 133.556 85.5636C134.324 89.4264 136.221 92.9746 139.006 95.7595C141.791 98.5445 145.339 100.441 149.202 101.209C153.065 101.978 157.068 101.583 160.707 100.076C164.346 98.569 167.456 96.0167 169.644 92.7419C171.832 89.4672 173 85.6171 173 81.6786C173 79.0636 172.485 76.4741 171.484 74.0581C170.483 71.6421 169.017 69.4469 167.168 67.5977C165.318 65.7486 163.123 64.2818 160.707 63.2811C158.291 62.2803 155.702 61.7653 153.087 61.7653ZM149.651 90.5898L141.086 82.0242L143.488 79.6216L149.66 85.7927L162.685 72.7674L165.087 75.17L149.651 90.5898Z" fill="#4400AA"/>
</g>
</svg>
