<?xml version="1.0" encoding="UTF-8" standalone="no"?>
<svg
   xmlns:dc="http://purl.org/dc/elements/1.1/"
   xmlns:cc="http://creativecommons.org/ns#"
   xmlns:rdf="http://www.w3.org/1999/02/22-rdf-syntax-ns#"
   xmlns:svg="http://www.w3.org/2000/svg"
   xmlns="http://www.w3.org/2000/svg"
   xmlns:sodipodi="http://sodipodi.sourceforge.net/DTD/sodipodi-0.dtd"
   xmlns:inkscape="http://www.inkscape.org/namespaces/inkscape"
   id="bebdbc02-5f56-4bd5-9ad9-bce5f07a2c3e"
   data-name="Layer 1"
   width="933.44272"
   height="783.89357"
   viewBox="0 0 933.44272 783.89357"
   version="1.1"
   sodipodi:docname="undraw_selecting_1lx3.svg"
   inkscape:version="0.92.5 (2060ec1f9f, 2020-04-08)">
  <metadata
     id="metadata173">
    <rdf:RDF>
      <cc:Work
         rdf:about="">
        <dc:format>image/svg+xml</dc:format>
        <dc:type
           rdf:resource="http://purl.org/dc/dcmitype/StillImage" />
      </cc:Work>
    </rdf:RDF>
  </metadata>
  <defs
     id="defs171" />
  <sodipodi:namedview
     pagecolor="#ffffff"
     bordercolor="#666666"
     borderopacity="1"
     objecttolerance="10"
     gridtolerance="10"
     guidetolerance="10"
     inkscape:pageopacity="0"
     inkscape:pageshadow="2"
     inkscape:window-width="2416"
     inkscape:window-height="1409"
     id="namedview169"
     showgrid="false"
     inkscape:zoom="5.8487768"
     inkscape:cx="720.98235"
     inkscape:cy="164.33971"
     inkscape:window-x="0"
     inkscape:window-y="0"
     inkscape:window-maximized="1"
     inkscape:current-layer="bebdbc02-5f56-4bd5-9ad9-bce5f07a2c3e" />
  <title
     id="title2">lists</title>
  <path
     inkscape:connector-curvature="0"
     style="fill:#3f3d56;stroke-width:1.89547956"
     d="m 281.2958,281.27441 h 345.58389 a 18.757826,10.860397 0 0 0 18.73646,-10.84802 V 17.30557 A 18.757826,10.860397 0 0 0 626.87969,6.4575379 H 281.2958 A 18.757826,10.860397 0 0 0 262.55933,17.305647 V 270.42646 a 18.757826,10.860397 0 0 0 18.73647,10.84795 z M 626.87969,8.8682819 a 14.589154,8.4468213 0 0 1 14.57279,8.4373651 V 270.42646 a 14.58918,8.4468358 0 0 1 -14.57279,8.43735 H 281.2958 a 14.589205,8.4468503 0 0 1 -14.57283,-8.43735 V 17.305647 A 14.58918,8.4468358 0 0 1 281.2958,8.8682819 Z"
     id="path60" />
  <g
     id="g258"
     transform="matrix(0.75889448,0,0,0.86271593,65.257834,-125.48851)">
    <ellipse
       id="ellipse6"
       ry="24"
       rx="154"
       cy="947.17938"
       cx="362.58887"
       style="fill:#f2f2f2" />
    <ellipse
       id="ellipse8"
       stroke-miterlimit="10"
       ry="24"
       rx="154"
       cy="938.17938"
       cx="387.58887"
       style="fill:none;stroke:#3f3d56;stroke-miterlimit:10" />
  </g>
  <path
     d="m 2305.6882,590.06253 c 0,15.28692 -94.5782,27.67192 -211.447,27.7519 h -1.0626 c -57.0462,0 -108.8483,-2.93629 -147.02,-7.7006 -1.6338,-0.21709 -3.2448,-0.42273 -4.8215,-0.63981 -6.4896,-0.8569 -12.5564,-1.78234 -18.1433,-2.74209 -26.7008,-4.65009 -42.5248,-10.41982 -42.5248,-16.6694 0,-5.06144 10.3513,-9.79144 28.4375,-13.8817 9.5515,-2.15939 21.2509,-4.1245 34.7327,-5.86116 q 3.719,-0.497 7.6321,-0.93688 c 37.6005,-4.39869 87.266,-7.07223 141.7073,-7.07223 10.5798,0 20.9882,0.10286 31.1567,0.29707 102.5873,1.96511 181.3529,13.50465 181.3529,27.4549 z"
     id="path4"
     inkscape:connector-curvature="0"
     style="fill:#3f3d56" />
  <rect
     x="2047.6464"
     y="276.55914"
     width="314.75412"
     height="161.31149"
     id="rect6"
     style="fill:#f2f2f2" />
  <rect
     x="1710.9771"
     y="-422.51822"
     width="314.75412"
     height="161.31149"
     id="rect8"
     style="fill:#f2f2f2" />
  <path
     d="m 2026.7148,-260.22311 h -316.7213 v -163.27871 h 316.7213 z m -314.7541,-1.96722 h 312.7869 v -159.34428 h -312.7869 z"
     id="path10"
     inkscape:connector-curvature="0"
     style="fill:#4400aa" />
  <rect
     x="2047.6464"
     y="-138.52287"
     width="314.75412"
     height="161.31149"
     id="rect12"
     style="fill:#f2f2f2" />
  <rect
     x="2047.6464"
     y="69.018135"
     width="314.75412"
     height="161.31149"
     id="rect16"
     style="fill:#f2f2f2" />
  <circle
     cx="2151.1938"
     cy="-292.03873"
     r="40.327869"
     id="circle20"
     style="fill:#f2f2f2" />
  <path
     d="m 2264.3085,-332.36659 a 40.32788,40.32788 0 1 0 40.3279,40.32787 40.32787,40.32787 0 0 0 -40.3279,-40.32787 z m 17.4763,55.31058 -3.4772,3.47721 -14.4909,-14.49091 -14.4909,14.49091 -3.4772,-3.47721 14.4909,-14.4909 -16.4581,-16.45816 3.4772,-3.4772 16.4581,16.4582 16.4582,-16.45812 3.4772,3.4772 -16.4582,16.45813 z"
     id="path22"
     inkscape:connector-curvature="0"
     style="fill:#f2f2f2" />
  <polygon
     points="21.634,73.271 36.531,92.988 78.311,45.105 82.017,48.338 36.256,100.783 17.71,76.237 "
     id="polygon24"
     transform="translate(2110.8659,-373.67807)"
     style="fill:#4400aa" />
  <circle
     cx="363.07578"
     cy="354.71716"
     r="23.272972"
     id="circle28"
     style="fill:#ff6584;stroke-width:0.669016" />
  <polygon
     points="747.757,452.112 805.67,452.112 805.67,470.057 768.149,495.343 728.996,475.767 724.918,472.504 "
     id="polygon30"
     transform="translate(1429.9414,-139.50648)"
     style="fill:#3f3d56" />
  <polygon
     points="808.54,452.52 808.54,455.221 805.67,452.112 786.909,472.504 779.568,477.398 768.186,560.56 785.352,577.726 825.246,577.726 825.246,473.32 816.229,463.551 816.229,452.52 "
     id="polygon32"
     transform="translate(1429.9414,-139.50648)"
     style="fill:#cccccc" />
  <rect
     x="2154.8596"
     y="332.99747"
     width="61.991211"
     height="105.22193"
     id="rect34"
     style="fill:#f2f2f2" />
  <rect
     x="2178.9219"
     y="412.5257"
     width="11.41943"
     height="25.693729"
     id="rect36"
     style="fill:#cccccc" />
  <polygon
     points="731.851,555.295 731.851,559.373 736.338,559.373 736.745,559.373 736.745,555.295 "
     id="polygon38"
     transform="translate(1429.9414,-139.50648)"
     style="fill:#3f3d56" />
  <polygon
     points="731.851,566.714 736.745,566.714 736.745,562.636 736.338,562.636 731.851,562.636 "
     id="polygon40"
     transform="translate(1429.9414,-139.50648)"
     style="fill:#3f3d56" />
  <rect
     x="2169.9495"
     y="415.78839"
     width="4.8940401"
     height="4.0783701"
     id="rect42"
     style="fill:#3f3d56" />
  <rect
     x="2169.9495"
     y="423.12946"
     width="4.8940401"
     height="4.0783701"
     id="rect44"
     style="fill:#3f3d56" />
  <polygon
     points="765.294,555.295 765.294,559.373 769.78,559.373 770.188,559.373 770.188,555.295 "
     id="polygon46"
     transform="translate(1429.9414,-139.50648)"
     style="fill:#3f3d56" />
  <polygon
     points="765.294,566.714 770.188,566.714 770.188,562.636 769.78,562.636 765.294,562.636 "
     id="polygon48"
     transform="translate(1429.9414,-139.50648)"
     style="fill:#3f3d56" />
  <rect
     x="2203.3921"
     y="415.78839"
     width="4.8940401"
     height="4.0783701"
     id="rect50"
     style="fill:#3f3d56" />
  <rect
     x="2203.3921"
     y="423.12946"
     width="4.8940401"
     height="4.0783701"
     id="rect52"
     style="fill:#3f3d56" />
  <polygon
     points="799.552,473.727 799.552,477.806 804.038,477.806 804.446,477.806 804.446,473.727 "
     id="polygon54"
     transform="translate(1429.9414,-139.50648)"
     style="fill:#3f3d56" />
  <polygon
     points="799.552,485.147 804.446,485.147 804.446,481.069 804.038,481.069 799.552,481.069 "
     id="polygon56"
     transform="translate(1429.9414,-139.50648)"
     style="fill:#3f3d56" />
  <rect
     x="2237.6504"
     y="334.22101"
     width="4.8940401"
     height="4.0783701"
     id="rect58"
     style="fill:#3f3d56" />
  <rect
     x="2237.6504"
     y="341.56207"
     width="4.8940401"
     height="4.0783701"
     id="rect60"
     style="fill:#3f3d56" />
  <polygon
     points="799.552,496.566 799.552,500.645 804.038,500.645 804.446,500.645 804.446,496.566 "
     id="polygon62"
     transform="translate(1429.9414,-139.50648)"
     style="fill:#3f3d56" />
  <polygon
     points="799.552,507.986 804.446,507.986 804.446,503.907 804.038,503.907 799.552,503.907 "
     id="polygon64"
     transform="translate(1429.9414,-139.50648)"
     style="fill:#3f3d56" />
  <rect
     x="2237.6504"
     y="357.05988"
     width="4.8940401"
     height="4.0783701"
     id="rect66"
     style="fill:#3f3d56" />
  <rect
     x="2237.6504"
     y="364.40094"
     width="4.8940401"
     height="4.0783701"
     id="rect68"
     style="fill:#3f3d56" />
  <polygon
     points="799.552,519.405 799.552,523.484 804.038,523.484 804.446,523.484 804.446,519.405 "
     id="polygon70"
     transform="translate(1429.9414,-139.50648)"
     style="fill:#3f3d56" />
  <polygon
     points="799.552,530.825 804.446,530.825 804.446,526.746 804.038,526.746 799.552,526.746 "
     id="polygon72"
     transform="translate(1429.9414,-139.50648)"
     style="fill:#3f3d56" />
  <rect
     x="2237.6504"
     y="379.89874"
     width="4.8940401"
     height="4.0783701"
     id="rect74"
     style="fill:#3f3d56" />
  <rect
     x="2237.6504"
     y="387.23981"
     width="4.8940401"
     height="4.0783701"
     id="rect76"
     style="fill:#3f3d56" />
  <polygon
     points="799.552,542.244 799.552,546.322 804.038,546.322 804.446,546.322 804.446,542.244 "
     id="polygon78"
     transform="translate(1429.9414,-139.50648)"
     style="fill:#3f3d56" />
  <polygon
     points="799.552,553.664 804.446,553.664 804.446,549.585 804.038,549.585 799.552,549.585 "
     id="polygon80"
     transform="translate(1429.9414,-139.50648)"
     style="fill:#3f3d56" />
  <rect
     x="2237.6504"
     y="402.73761"
     width="4.8940401"
     height="4.0783701"
     id="rect82"
     style="fill:#3f3d56" />
  <rect
     x="2237.6504"
     y="410.07867"
     width="4.8940401"
     height="4.0783701"
     id="rect84"
     style="fill:#3f3d56" />
  <rect
     x="2161.7927"
     y="338.29935"
     width="47.309078"
     height="9.7880898"
     id="rect86"
     style="fill:#3f3d56" />
  <rect
     x="2161.7927"
     y="357.87555"
     width="47.309078"
     height="9.7880898"
     id="rect88"
     style="fill:#3f3d56" />
  <rect
     x="2161.7927"
     y="377.45172"
     width="47.309078"
     height="9.7880898"
     id="rect90"
     style="fill:#3f3d56" />
  <rect
     x="2161.7927"
     y="397.02789"
     width="47.309078"
     height="9.7880898"
     id="rect92"
     style="fill:#3f3d56" />
  <rect
     x="345.39725"
     y="365.67078"
     width="1.6818022"
     height="66.431313"
     transform="rotate(-0.10771594)"
     id="rect98"
     style="fill:#3f3d56;stroke-width:0.6690172" />
  <path
     d="m 363.3015,373.45499 c 0.15065,23.22909 -16.15692,42.16654 -16.15692,42.16654 0,0 -16.5518,-18.72435 -16.70245,-41.95344 -0.15064,-23.22909 16.15693,-42.16654 16.15693,-42.16654 0,0 16.5518,18.72435 16.70244,41.95344 z"
     id="path100"
     inkscape:connector-curvature="0"
     style="fill:#4400aa;stroke-width:0.669016" />
  <path
     d="m 363.3015,373.45499 c 0.15065,23.22909 -16.15692,42.16654 -16.15692,42.16654 0,0 -16.5518,-18.72435 -16.70245,-41.95344 -0.15064,-23.22909 16.15693,-42.16654 16.15693,-42.16654 0,0 16.5518,18.72435 16.70244,41.95344 z"
     id="path102"
     inkscape:connector-curvature="0"
     style="opacity:0.1;stroke-width:0.669016" />
  <rect
     x="323.53375"
     y="365.67081"
     width="1.6818022"
     height="66.431313"
     transform="rotate(-0.10771594)"
     id="rect104"
     style="fill:#3f3d56;stroke-width:0.6690172" />
  <path
     d="m 341.4381,373.49604 c 0.15065,23.22909 -16.15691,42.16654 -16.15691,42.16654 0,0 -16.5518,-18.72435 -16.70245,-41.95344 -0.15065,-23.22909 16.15692,-42.16655 16.15692,-42.16655 0,0 16.5518,18.72433 16.70244,41.95345 z"
     id="path106"
     inkscape:connector-curvature="0"
     style="fill:#4400aa;stroke-width:0.669016" />
  <rect
     x="1727.7457"
     y="52.726284"
     width="1.9901299"
     height="78.610321"
     id="rect108"
     style="fill:#3f3d56" />
  <path
     d="m 1748.1026,62.744264 c 0.1267,27.48807 -19.2126,49.861156 -19.2126,49.861156 0,0 -19.5447,-22.193876 -19.6714,-49.681946 -0.1267,-27.48807 19.2126,-49.86116 19.2126,-49.86116 0,0 19.5447,22.19387 19.6714,49.68195 z"
     id="path110"
     inkscape:connector-curvature="0"
     style="fill:#4400aa" />
  <circle
     cx="2200.5503"
     cy="152.13289"
     r="68.40773"
     id="circle112"
     style="fill:#3f3d56" />
  <polygon
     points="735.823,294.807 728.132,304.034 729.01,294.807 725.269,294.807 725.269,266.171 777.45,266.171 777.45,294.807 "
     id="polygon114"
     transform="translate(1429.9414,-139.50648)"
     style="fill:#4400aa" />
  <rect
     x="2188.6187"
     y="136.52827"
     width="18.77235"
     height="18.77235"
     id="rect116"
     style="opacity:0.1" />
  <polygon
     points="814.994,308.807 811.252,308.807 812.131,318.034 804.441,308.807 762.813,308.807 762.813,280.171 814.994,280.171 "
     id="polygon118"
     transform="translate(1429.9414,-139.50648)"
     style="fill:#4400aa" />
  <ellipse
     cx="2158.3918"
     cy="168.02766"
     rx="11.45432"
     ry="1.1174901"
     id="ellipse120"
     style="opacity:0.1" />
  <ellipse
     cx="2242.072"
     cy="182.98189"
     rx="13.04519"
     ry="1.2727"
     id="ellipse122"
     style="opacity:0.1" />
  <path
     d="m 2239.3843,-118.47488 h -45.2035 a 9.60936,9.60936 0 0 0 -9.3741,7.496 l -22.8404,101.3100296 a 7.76645,7.76645 0 0 0 7.1941,9.46512999 l 46.4695,2.28955001 a 10.2603,10.2603 0 0 0 10.6014,-8.42156 l 12.9565,-71.6273396 0.9639,0.2754 2.4791,-13.576061 -0.9922,-0.24805 3.6166,-19.993759 a 5.91643,5.91643 0 0 0 -5.8709,-6.96934 z"
     id="path124"
     inkscape:connector-curvature="0"
     style="fill:#3f3d56" />
  <path
     d="m 2200.1318,-116.29091 h -5.2766 a 6.64081,6.64081 0 0 0 -6.4882,5.22521 l -21.9236,100.4835 a 4.11488,4.11488 0 0 0 3.7511,4.9832296 l 46.3192,3.03571 a 5.32916,5.32916 0 0 0 5.5933,-4.37305 l 18.7076,-103.8594796 a 4.66768,4.66768 0 0 0 -4.5937,-5.49512 h -5.0057 a 2.20288,2.20288 0 0 0 -2.1272,1.6302 v 0 a 1.94476,1.94476 0 0 1 -1.8778,1.43917 h -23.7638 a 3.32434,3.32434 0 0 1 -3.3146,-3.06937 z"
     id="path126"
     inkscape:connector-curvature="0"
     style="fill:#4400aa" />
  <circle
     cx="1874.6943"
     cy="-341.71332"
     r="65.460922"
     id="circle128"
     style="fill:#4400aa" />
  <path
     d="m 1931.6941,-300.61382 c -12.5685,7.8e-4 -40.3231,-12.90833 -65.0069,-28.02709 -30.6303,-18.761 -60.3785,-43.28289 -55.1779,-51.77425 1.47,-2.39963 5.1135,-3.02717 11.1406,-1.92079 l -0.4322,2.35291 c -4.6672,-0.85879 -7.8256,-0.559 -8.6684,0.81675 -1.2294,2.00722 1.4812,7.83423 12.7751,18.16852 10.2923,9.41867 25.0704,20.18508 41.6125,30.31694 16.5416,10.13186 32.8477,18.40443 45.9137,23.294 14.3378,5.36608 20.7601,5.13172 21.9887,3.12606 0.844,-1.37811 -0.3286,-4.33132 -3.2176,-8.10362 l 1.899,-1.45441 c 3.7307,4.87167 4.8293,8.40649 3.3585,10.8069 -1.0098,1.64908 -3.1568,2.39808 -6.1851,2.39808 z"
     id="path130"
     inkscape:connector-curvature="0"
     style="fill:#3f3d56" />
  <circle
     cx="1866.6143"
     cy="-375.3609"
     r="13.38973"
     id="circle132"
     style="fill:#ffffff" />
  <circle
     cx="1870.4924"
     cy="-301.95889"
     r="8.9264898"
     id="circle134"
     style="fill:#ffffff" />
  <circle
     cx="1901.2313"
     cy="-332.56137"
     r="8.9264898"
     id="circle136"
     style="fill:#ffffff" />
  <path
     d="M 2363.3842,438.85423 H 2046.6628 V 275.57552 h 316.7214 z M 2048.63,436.88702 h 312.787 V 277.54274 H 2048.63 Z"
     id="path138"
     inkscape:connector-curvature="0"
     style="fill:#4400aa" />
  <path
     d="M 2361.417,232.29684 H 2044.6956 V 69.01813 h 316.7214 z m -314.7542,-1.96722 h 312.7869 V 70.98534 h -312.7869 z"
     id="path140"
     inkscape:connector-curvature="0"
     style="fill:#4400aa" />
  <path
     d="m 2044.3132,476.62679 c 5.3698,19.85008 23.7626,32.14374 23.7626,32.14374 0,0 9.6867,-19.88969 4.3169,-39.73977 -5.3698,-19.85008 -23.7627,-32.14374 -23.7627,-32.14374 0,0 -9.6866,19.88968 -4.3168,39.73977 z"
     id="path142"
     inkscape:connector-curvature="0"
     style="fill:#3f3d56" />
  <path
     d="m 2052.2037,472.36079 c 14.7349,14.3438 16.5347,36.39356 16.5347,36.39356 0,0 -22.0902,-1.20614 -36.825,-15.54994 -14.7349,-14.3438 -16.5347,-36.39355 -16.5347,-36.39355 0,0 22.0902,1.20613 36.825,15.54993 z"
     id="path144"
     inkscape:connector-curvature="0"
     style="fill:#4400aa" />
  <path
     d="m 314.95507,480.52312 -10.5058,1.16732 c 0,0 -4.66924,21.01159 0,49.02704 4.66924,28.01544 10.5058,56.03089 10.5058,56.03089 0,0 4.66924,91.05021 7.00385,92.21753 2.33462,1.16731 23.34622,8.17117 24.51352,1.16731 1.16731,-7.00387 1.16731,-166.9254 1.16731,-166.9254 l 16.34235,77.0425 c 0,0 2.33462,96.88676 7.00386,96.88676 4.66925,0 19.84428,-1.16732 19.84428,-9.33849 0,-8.17117 3.50193,-115.56376 3.50193,-115.56376 0,0 -1.16731,-79.3771 -5.83655,-81.71172 -4.66925,-2.33464 -73.54055,2e-5 -73.54055,2e-5 z"
     id="path146"
     inkscape:connector-curvature="0"
     style="fill:#2f2e41;stroke-width:0.669016" />
  <path
     d="m 324.29354,675.46396 c 0,0 -10.50578,-1.16731 -12.84042,0 -2.33463,1.16731 -5.83656,9.33848 0,14.00772 5.83656,4.66925 21.01158,11.67311 25.68085,11.67311 4.66926,0 9.33848,-2.33462 9.33848,-2.33462 l -2.33462,-19.84427 z"
     id="path148"
     inkscape:connector-curvature="0"
     style="fill:#2f2e41;stroke-width:0.669016" />
  <path
     d="m 370.98596,681.30051 1.16731,16.34235 c 0,0 15.17504,2.33462 16.34235,0 1.16731,-2.33462 12.84042,-8.17118 14.00772,-9.33849 1.1673,-1.16731 2.33463,-14.00772 -4.66924,-15.17503 -7.00386,-1.16732 -9.33848,2.33462 -9.33848,2.33462 z"
     id="path150"
     inkscape:connector-curvature="0"
     style="fill:#2f2e41;stroke-width:0.669016" />
  <path
     d="m 398.11252,341.623 c 0,0 25.52095,-16.41155 24.9303,-27.6866 -0.59064,-11.27506 -15.97578,-46.82564 -15.97578,-46.82564 0,0 -12.0357,-25.02334 -16.82046,-14.79682 -4.78475,10.22652 6.28869,21.11236 6.28869,21.11236 l 7.14729,34.87368 -19.4244,18.53074 z"
     id="path152"
     inkscape:connector-curvature="0"
     style="fill:#a0616a;stroke-width:0.669016" />
  <circle
     cx="334.79935"
     cy="297.2554"
     r="21.011585"
     id="circle154"
     style="fill:#a0616a;stroke-width:0.669016" />
  <path
     d="m 324.29354,310.09581 3.50194,22.1789 25.68084,-4.66924 c 0,0 -1.1673,-22.17891 -1.1673,-24.51352 0,-2.33462 -28.01548,7.00386 -28.01548,7.00386 z"
     id="path156"
     inkscape:connector-curvature="0"
     style="fill:#a0616a;stroke-width:0.669016" />
  <path
     d="m 323.12624,332.27471 c 0,0 29.18276,-7.00386 32.68468,-4.66924 3.50194,2.33461 21.01159,4.66924 21.01159,4.66924 l 19.84428,30.35007 -5.83655,38.52124 c 0,0 -1.16731,61.86745 1.16731,72.37325 2.33462,10.50578 15.17503,11.67309 -11.67311,14.00772 -26.84814,2.33462 -31.51734,-1.16731 -50.19434,3.50193 -18.677,4.66923 -33.85201,-2.33462 -29.18276,-7.00387 4.66924,-4.66924 12.84042,-79.3771 3.50193,-86.38096 -9.3385,-7.00387 -12.84042,-43.19048 -12.84042,-43.19048 0,0 31.51739,-16.34235 31.51739,-22.1789 z"
     id="path158"
     style="opacity:1;vector-effect:none;fill:#4400aa;fill-opacity:1;stroke-width:0.669016;stroke-linecap:butt;stroke-linejoin:miter;stroke-miterlimit:4;stroke-dasharray:none;stroke-dashoffset:0;stroke-opacity:1"
     inkscape:connector-curvature="0" />
  <path
     d="m 373.32059,335.77663 3.50192,-3.50192 7.00386,-7.00386 c 0,0 22.76255,9.92213 21.59525,13.42406 -1.16731,3.50193 -8.75483,23.92987 -8.75483,23.92987 L 386.161,366.1267 Z"
     id="path160"
     style="opacity:1;vector-effect:none;fill:#4400aa;fill-opacity:1;stroke-width:0.669016;stroke-linecap:butt;stroke-linejoin:miter;stroke-miterlimit:4;stroke-dasharray:none;stroke-dashoffset:0;stroke-opacity:1"
     inkscape:connector-curvature="0" />
  <path
     d="m 342.13207,271.79964 -0.21533,-1.6832 a 13.231992,13.231992 0 0 0 -4.20517,0.66079 6.908694,6.908694 0 0 1 0.25957,-3.02467 13.449229,13.449229 0 0 0 -3.89221,1.69216 l -0.84888,-3.07186 -11.66937,5.75108 c -4.18887,2.06441 -8.60521,4.333 -10.99978,8.34231 -2.66958,4.46976 -2.20501,10.2142 -0.38011,15.0902 1.82491,4.87599 4.8573,9.19103 7.28798,13.79511 a 34.465376,34.465376 0 0 0 3.31206,5.63712 c 4.40472,5.49096 12.97871,6.60031 19.18914,3.28629 2.29199,-1.22306 4.37442,-3.0511 5.31733,-5.47184 0.56382,-1.44748 0.69275,-3.02257 1.06216,-4.53141 0.7682,-3.13777 1.65997,-9.61489 4.20856,-11.59993 1.12147,-0.8735 3.34499,2.02218 4.27434,0.94654 2.38832,-2.76424 1.88707,-7.02721 0.40381,-10.36574 a 75.634031,75.634031 0 0 0 -4.97922,-9.71188 c -0.8014,-1.25158 -8.15071,-5.94296 -8.12488,-5.74107 z"
     id="path162"
     inkscape:connector-curvature="0"
     style="fill:#2f2e41;stroke-width:0.669016" />
  <path
     d="m 272.93189,382.46905 c 0,0 -28.01544,26.84812 -24.51352,40.85587 3.50193,14.00776 31.51738,54.86359 31.51738,54.86359 0,0 26.84814,14.00772 30.35007,0 3.50194,-14.00773 -18.67697,-10.5058 -18.67697,-10.5058 l -17.50965,-42.02318 19.84427,-28.01544 z"
     id="path164"
     inkscape:connector-curvature="0"
     style="fill:#a0616a;stroke-width:0.669016" />
  <path
     d="m 305.61658,356.78822 -14.00773,-2.33461 c 0,0 -10.50579,11.67309 -14.00772,16.34235 -3.50193,4.66924 -10.50579,16.34233 -10.50579,16.34233 l 24.51351,17.50966 18.67697,-19.84427 z"
     id="path166"
     style="opacity:1;vector-effect:none;fill:#4400aa;fill-opacity:1;stroke-width:0.669016;stroke-linecap:butt;stroke-linejoin:miter;stroke-miterlimit:4;stroke-dasharray:none;stroke-dashoffset:0;stroke-opacity:1"
     inkscape:connector-curvature="0" />
  <path
     inkscape:connector-curvature="0"
     style="fill:#a0616a"
     d="m 2727.1376,480.81625 c 0,0 9.4109,33.87907 -2.5096,38.89819 -11.9204,5.01912 -8.156,-37.64341 -8.156,-37.64341 z"
     id="path54" />
  <path
     inkscape:connector-curvature="0"
     style="fill:#3f3d56"
     d="m 2616.0896,473.91496 c 0,0 -4.3918,99.12764 -1.8822,104.14676 2.5095,5.01912 11.293,89.71678 10.0382,94.73591 -1.2547,5.01913 -7.5287,25.723 0,28.85994 7.5287,3.13694 23.8408,0 23.8408,0 0,0 4.3918,-25.0956 2.5096,-38.2708 -1.8822,-13.1752 -2.5096,-68.38552 -2.5096,-68.38552 l 12.5478,-57.71989 4.3918,54.58294 c 0,0 1.2547,74.65942 -7.5287,89.71679 -8.7835,15.05737 3.1369,21.33126 3.1369,21.33126 0,0 23.8409,3.13695 26.3504,2.50956 2.5096,-0.62739 -1.8821,-25.0956 0,-35.76124 1.8822,-10.66564 6.2739,-70.26769 10.0383,-84.69766 3.7643,-14.42997 25.0956,-94.73591 9.4108,-111.048 -15.6847,-16.31209 -90.3441,-5e-5 -90.3441,-5e-5 z"
     id="path60-7" />
  <circle
     style="fill:#a0616a"
     cx="2661.8889"
     cy="251.81883"
     r="21.958651"
     id="circle62" />
  <path
     inkscape:connector-curvature="0"
     style="fill:#a0616a"
     d="m 2645.5769,261.8571 c 0,0 3.7643,30.11473 1.8821,30.74212 -1.8821,0.62739 33.2517,0 33.2517,0 0,0 -6.9013,-18.19431 0,-32.62429 z"
     id="path64-9" />
  <path
     inkscape:connector-curvature="0"
     style="fill:#f2f2f2"
     d="m 2645.5769,286.32532 c 0,0 15.2911,-15.05736 33.3686,0 l 1.1704,4.48832 -9.4434,-0.0966 h -25.0956 z"
     id="path66-2" />
  <path
     inkscape:connector-curvature="0"
     style="opacity:1;vector-effect:none;fill:#4400aa;fill-opacity:1;stroke-width:0.52542371;stroke-linecap:butt;stroke-linejoin:miter;stroke-miterlimit:4;stroke-dasharray:none;stroke-dashoffset:0;stroke-opacity:1"
     d="m 2720.2363,478.93408 c -1.4493,0.28858 -5.0003,0.87832 -9.6305,1.581 -15.4149,2.32763 -42.7315,5.85356 -43.6977,3.43812 -1.2547,-3.13695 -5.6465,-14.43 -8.7834,-9.41085 -3.137,5.01915 -1.2548,9.41085 -14.43,10.03824 -8.9655,0.42662 -21.9963,-0.89092 -29.2113,-2.9613 -3.3879,-0.97245 -5.496,-2.108 -5.2952,-3.3126 0.6274,-3.76434 7.5287,-75.28681 7.5287,-82.1881 0,-6.90129 2.5096,-40.153 2.5096,-40.153 l -18.0312,-35.4789 -1.4179,-2.7919 c 0,0 1.8821,-6.90129 7.5287,-8.15607 5.6465,-1.25478 32.6243,-16.93947 32.6243,-16.93947 0,0 5.6465,-8.78346 16.3121,-8.15607 10.6656,0.62739 13.1752,-3.76434 27.6052,8.15607 0,0 17.5669,7.52868 23.8408,11.293 6.2739,3.76432 13.1752,3.76434 13.8026,10.03824 0.1254,1.26106 -0.5585,3.68906 -1.7316,6.757 -4.2976,11.24286 -15.1577,31.13737 -16.858,34.23668 -0.1506,0.26977 -0.2321,0.4141 -0.2321,0.4141 0,0 -0.3263,11.28046 0.019,24.487 v 0.0314 c 0.3389,12.667 1.2925,27.10326 3.7455,35.08368 5.0192,16.31212 20.0766,62.73894 13.8027,63.99377 z"
     id="path68" />
  <path
     inkscape:connector-curvature="0"
     style="fill:#3f3d56"
     d="m 2690.3954,242.80488 a 14.95811,14.95811 0 0 0 -2.4816,-5.54561 29.96345,29.96345 0 0 0 -4.4731,-12.90477 13.53957,13.53957 0 0 0 -4.0074,-4.62543 11.83,11.83 0 0 0 -6.3049,-1.57192 c -0.4002,-0.007 -1.1203,0.11472 -1.7685,0.14425 -0.4146,-0.1284 -0.8332,-0.243 -1.2529,-0.35077 -0.2449,-0.54483 -0.7303,-2.13268 -0.8657,-2.02515 l -1.8295,1.45367 c -0.7735,-0.13437 -1.5511,-0.23906 -2.3315,-0.32208 q -0.4262,-1.21571 -0.8525,-2.43141 a 16.66052,16.66052 0 0 0 -1.2088,2.27177 q -1.1652,-0.0571 -2.332,-0.04 l -1.5549,-1.49373 a 2.193,2.193 0 0 1 -1.7155,1.68029 c -0.7155,0.0734 -1.4282,0.1693 -2.1384,0.28356 -0.058,-3.8e-4 -0.1165,0 -0.1732,-0.001 -3.8294,-0.0955 -7.95,-0.2672 -11.1522,1.83515 a 10.98929,10.98929 0 0 0 -3.55,4.02929 c -0.392,0.26648 -0.7854,0.531 -1.1664,0.81353 a 12.74754,12.74754 0 0 0 -3.2847,3.25643 13.80875,13.80875 0 0 0 -1.4534,3.52187 33.76072,33.76072 0 0 0 -1.6732,11.5335 17.11735,17.11735 0 0 0 4.2079,10.68276 c 1.6423,1.76462 3.7301,3.06768 5.3747,4.83023 3.3864,3.62916 4.0211,8.69067 6.9175,12.53068 3.0635,4.06153 8.6549,6.73418 13.5654,7.50023 a 22.65988,22.65988 0 0 0 16.8804,-4.21 10.44317,10.44317 0 0 0 2.8741,-3.01334 c 1.7044,-2.948 0.982,-6.65327 1.6147,-9.99915 1.1862,-6.27148 7.1714,-11.53441 6.1356,-17.83243 z"
     id="path70" />
  <path
     inkscape:connector-curvature="0"
     style="fill:#a0616a"
     d="m 2606.6787,482.69842 c 0,0 9.4109,33.87907 -2.5096,38.89819 -11.9204,5.01912 -8.156,-37.64341 -8.156,-37.64341 z"
     id="path72" />
  <path
     inkscape:connector-curvature="0"
     style="opacity:0.1"
     d="m 2617.9654,405.81801 c 0,0 -4.1157,61.08273 -3.482,75.80128 -3.3879,-0.97245 -5.496,-2.108 -5.2951,-3.3126 0.6273,-3.76434 7.5286,-75.28681 7.5286,-82.1881 0,-6.90129 2.5096,-40.153 2.5096,-40.153 l -18.0312,-35.4789 c 0.2886,-1.75673 0.4643,-2.7919 0.4643,-2.7919 l 9.0971,19.1354 12.8615,3.45065 z"
     id="path74" />
  <path
     inkscape:connector-curvature="0"
     style="opacity:1;vector-effect:none;fill:#4400aa;fill-opacity:1;stroke-width:0.52542371;stroke-linecap:butt;stroke-linejoin:miter;stroke-miterlimit:4;stroke-dasharray:none;stroke-dashoffset:0;stroke-opacity:1"
     d="m 2604.1691,313.93048 -4.3917,3.76434 c 0,0 -5.6465,33.25168 -5.0191,41.40775 0.6274,8.15607 -13.1752,131.75192 -2.5096,131.75192 10.6656,0 22.5861,-1.88217 20.7039,-6.2739 -1.8822,-4.39173 3.1333,-78.76242 3.1333,-78.76242 l 5.6502,-65.5373 z"
     id="path76" />
  <path
     inkscape:connector-curvature="0"
     style="opacity:0.1"
     d="m 2719.7595,320.68745 c -4.2976,11.24286 -15.1577,31.13737 -16.858,34.23668 0.05,-8.0243 0.082,-13.70218 0.082,-13.70218 l 13.1752,-26.97777 2.8232,-2.19587 c 0,0 0.3012,3.31888 0.778,8.63914 z"
     id="path78" />
  <path
     inkscape:connector-curvature="0"
     style="opacity:0.1"
     d="m 2720.2363,478.93408 c -1.4493,0.28858 -5.0003,0.87832 -9.6305,1.581 -2.4028,-17.76766 -8.8273,-68.86231 -8.4195,-73.67442 0.2008,-2.37151 0.3702,-14.09115 0.5019,-26.98405 0.3388,12.667 1.2925,27.10326 3.7455,35.08368 5.0191,16.31214 20.0765,62.73896 13.8026,63.99379 z"
     id="path80" />
  <path
     inkscape:connector-curvature="0"
     style="opacity:1;vector-effect:none;fill:#4400aa;fill-opacity:1;stroke-width:0.52542371;stroke-linecap:butt;stroke-linejoin:miter;stroke-miterlimit:4;stroke-dasharray:none;stroke-dashoffset:0;stroke-opacity:1"
     d="m 2712.0802,309.53875 9.4109,2.50956 c 0,0 6.2739,69.6403 6.9013,81.56072 0.6274,11.92042 8.156,85.32505 6.9013,88.462 -1.2548,3.13695 -20.7039,7.52868 -21.3313,4.39173 -0.6274,-3.13695 -9.7479,-73.92136 -9.2657,-79.6232 0.4822,-5.70184 -2.6547,-64.67652 -2.6547,-64.67652 z"
     id="path82" />
  <circle
     style="fill:#2f2e41;stroke-width:1.8209157"
     cx="-692.51929"
     cy="569.33185"
     id="circle116"
     transform="scale(-1,1)"
     r="76.500916" />
  <rect
     style="fill:#2f2e41;stroke-width:1.8209157"
     x="-964.30316"
     y="230.88858"
     width="41.639893"
     height="23.240856"
     transform="matrix(-0.8941465,-0.44777454,-0.44777454,0.8941465,0,0)"
     id="rect118" />
  <ellipse
     style="fill:#2f2e41;stroke-width:1.8209157"
     cx="-957.71198"
     cy="-278.50308"
     rx="7.2627764"
     ry="19.367353"
     transform="matrix(-0.55046296,-0.83485958,-0.83485958,0.55046296,0,0)"
     id="ellipse120-5" />
  <rect
     style="fill:#2f2e41;stroke-width:1.8209157"
     x="-874.31476"
     y="-315.76416"
     width="23.240856"
     height="41.639893"
     transform="matrix(-0.44777454,-0.8941465,-0.8941465,0.44777454,0,0)"
     id="rect122" />
  <ellipse
     style="fill:#2f2e41;stroke-width:1.8209157"
     cx="-877.80951"
     cy="195.29945"
     rx="19.367353"
     ry="7.2627764"
     transform="matrix(-0.83485958,-0.55046296,-0.55046296,0.83485958,0,0)"
     id="ellipse124" />
  <circle
     style="fill:#ffffff;stroke-width:1.8209157"
     cx="-697.87512"
     cy="550.6192"
     id="circle126"
     transform="scale(-1,1)"
     r="26.145872" />
  <path
     inkscape:connector-curvature="0"
     style="fill:#3f3d56;stroke-width:1.8209157"
     d="m 713.18427,551.25136 c -9.32855,-7.10521 -19.87364,3.43999 -12.76847,12.76846 9.32847,7.10518 19.87365,-3.43999 12.76847,-12.76846 z"
     id="path128" />
  <path
     inkscape:connector-curvature="0"
     style="fill:#cccccc;stroke-width:1.8209157"
     d="m 632.17077,486.10697 c -1.15042,-28.32177 23.2588,-52.31054 54.51966,-53.58032 31.26087,-1.26979 57.53535,20.66012 58.68583,48.9819 1.15044,28.3218 -20.57985,34.75666 -51.8407,36.02656 -31.26088,1.26988 -60.21428,-3.10635 -61.36479,-31.42814 z"
     id="path130-3" />
  <ellipse
     style="fill:#2f2e41;stroke-width:1.82091582"
     cx="-843.14594"
     cy="41.074402"
     rx="12.007993"
     ry="38.25045"
     transform="matrix(-0.75875814,-0.65137247,-0.65137247,0.75875814,0,0)"
     id="ellipse132" />
  <ellipse
     style="fill:#2f2e41;stroke-width:1.82091582"
     cx="-943.11096"
     cy="-207.60127"
     rx="38.25045"
     ry="12.007993"
     transform="matrix(-0.65137247,-0.75875814,-0.75875814,0.65137247,0,0)"
     id="ellipse134" />
  <path
     inkscape:connector-curvature="0"
     style="fill:#ffffff;stroke-width:1.8209157"
     d="m 671.50829,599.47987 a 17.430615,17.430615 0 1 0 34.29754,6.24361 l 0.005,-0.0336 c 1.71489,-9.47269 -5.60912,-12.8247 -15.08181,-14.53955 -9.47267,-1.71482 -17.50708,-1.14306 -19.22186,8.32963 z"
     id="path136" />
  <ellipse
     style="fill:#2f2e41;stroke-width:1.82091582"
     cx="-490.83102"
     cy="-477.37085"
     rx="39.211037"
     ry="12.309517"
     transform="matrix(-0.3570287,-0.93409342,-0.93409342,0.3570287,0,0)"
     id="ellipse176" />
  <circle
     style="fill:#2f2e41;stroke-width:1.8209157"
     cx="-453.89099"
     cy="-629.05273"
     transform="matrix(-0.16018234,-0.98708744,-0.98708744,0.16018234,0,0)"
     id="circle178"
     r="78.42202" />
  <rect
     style="fill:#2f2e41;stroke-width:1.8209157"
     x="-729.37189"
     y="408.81317"
     width="23.824389"
     height="42.685379"
     id="rect180"
     transform="scale(-1,1)" />
  <rect
     style="fill:#2f2e41;stroke-width:1.8209157"
     x="-681.72302"
     y="408.81317"
     width="23.824389"
     height="42.685379"
     id="rect182"
     transform="scale(-1,1)" />
  <ellipse
     style="fill:#2f2e41;stroke-width:1.8209157"
     cx="-709.51807"
     cy="451.9949"
     rx="19.853699"
     ry="7.4451413"
     id="ellipse184"
     transform="scale(-1,1)" />
  <ellipse
     style="fill:#2f2e41;stroke-width:1.8209157"
     cx="-661.86932"
     cy="451.00217"
     rx="19.853699"
     ry="7.4451413"
     id="ellipse186"
     transform="scale(-1,1)" />
  <circle
     style="fill:#ffffff;stroke-width:1.8209157"
     cx="-700.96875"
     cy="306.95551"
     transform="matrix(-0.9995685,-0.02937368,-0.02937368,0.9995685,0,0)"
     id="circle188"
     r="26.80246" />
  <circle
     style="fill:#3f3d56;stroke-width:1.8209157"
     cx="-691.64978"
     cy="327.41312"
     id="circle190"
     transform="scale(-1,1)"
     r="8.9341955" />
  <path
     inkscape:connector-curvature="0"
     style="fill:#4400aa;stroke-width:1.8209157"
     d="m 769.70718,274.33662 c 6.33219,-28.35856 -13.90938,-57.01365 -45.21081,-64.00302 -31.30142,-6.98934 -61.8096,10.33389 -68.14181,38.69235 -6.33219,28.35845 14.41241,38.8176 45.71386,45.80694 31.30144,6.98935 61.30657,7.8623 67.63876,-20.49627 z"
     id="path192" />
  <ellipse
     style="fill:#2f2e41;stroke-width:1.8209157"
     cx="-615.98224"
     cy="-573.30603"
     rx="12.309517"
     ry="39.211037"
     transform="matrix(-0.42852927,-0.9035279,-0.9035279,0.42852927,0,0)"
     id="ellipse194" />
  <path
     inkscape:connector-curvature="0"
     style="fill:#ffffff;stroke-width:1.8209157"
     d="m 732.15589,375.5583 c 0,7.67541 -19.76288,22.83168 -41.69272,22.83168 -21.9298,0 -42.4913,-21.60883 -42.4913,-29.28414 0,-7.67534 20.56164,1.48905 42.4913,1.48905 21.9297,0 41.69272,-2.71203 41.69272,4.96341 z"
     id="path196" />
  <path
     inkscape:connector-curvature="0"
     style="fill:#ff6584;stroke-width:1.8209157"
     d="m 542.29628,330.45811 57.72576,11.26806 a 6.2641141,6.2641141 0 0 0 5.31708,-1.40619 6.3695632,6.3695632 0 0 0 2.2155,-5.13522 150.94276,150.94276 0 0 1 13.43101,-68.80481 6.3711475,6.3711475 0 0 0 -0.12194,-5.59148 6.2640777,6.2640777 0 0 0 -4.39801,-3.30261 l -57.72572,-11.26808 a 6.3466562,6.3466562 0 0 0 -7.15328,4.02279 247.0846,247.0846 0 0 0 -14.40583,73.7999 6.346638,6.346638 0 0 0 5.11549,6.41764 z"
     id="path198" />
  <path
     inkscape:connector-curvature="0"
     style="fill:#cccccc;stroke-width:1.8209157"
     d="m 795.40354,383.26466 57.72576,11.2681 a 6.2641141,6.2641141 0 0 0 5.31724,-1.40621 6.3695632,6.3695632 0 0 0 2.21535,-5.13524 150.94276,150.94276 0 0 1 13.43103,-68.80482 6.3711475,6.3711475 0 0 0 -0.12194,-5.59146 6.2640777,6.2640777 0 0 0 -4.3981,-3.30261 l -57.72572,-11.26807 a 6.3466562,6.3466562 0 0 0 -7.15329,4.02277 247.0846,247.0846 0 0 0 -14.40569,73.7999 6.346638,6.346638 0 0 0 5.11538,6.41764 z"
     id="path200" />
  <path
     inkscape:connector-curvature="0"
     style="fill:#4400aa;stroke-width:1.8209157"
     d="m 718.68675,648.97932 57.72575,11.26808 a 6.2641141,6.2641141 0 0 0 5.31718,-1.40621 6.3695632,6.3695632 0 0 0 2.21541,-5.13521 150.94276,150.94276 0 0 1 13.43105,-68.80482 6.371093,6.371093 0 0 0 -0.12193,-5.59147 6.2640777,6.2640777 0 0 0 -4.39802,-3.30261 l -57.72574,-11.26807 a 6.3466562,6.3466562 0 0 0 -7.15326,4.02278 247.0846,247.0846 0 0 0 -14.40575,73.79989 6.346638,6.346638 0 0 0 5.11538,6.41764 z"
     id="path204" />
  <path
     inkscape:connector-curvature="0"
     style="fill:#4400aa;stroke-width:1.23282504"
     d="m 565.0565,150.36759 h 37.64675 a 4.6414505,4.6414505 0 0 0 4.63631,-4.63628 v -44.4257 a 4.6414628,4.6414628 0 0 0 -4.63631,-4.636323 H 565.0565 a 4.6414628,4.6414628 0 0 0 -4.63631,4.636323 v 44.4257 a 4.6414505,4.6414505 0 0 0 4.63631,4.63628 z"
     id="path62" />
  <path
     inkscape:connector-curvature="0"
     style="fill:#cccccc;stroke-width:1.23282504"
     d="m 540.06888,230.76188 h 37.64679 a 4.6414628,4.6414628 0 0 0 4.63629,-4.63632 v -44.4257 a 4.6414505,4.6414505 0 0 0 -4.63629,-4.63628 h -37.64679 a 4.6414505,4.6414505 0 0 0 -4.63629,4.63628 v 44.4257 a 4.6414628,4.6414628 0 0 0 4.63629,4.63632 z"
     id="path64" />
  <path
     inkscape:connector-curvature="0"
     style="fill:#ff6584;stroke-width:1.23282504"
     d="m 490.84395,155.76383 h 37.64677 a 4.6414628,4.6414628 0 0 0 4.63631,-4.63628 v -44.42572 a 4.6414505,4.6414505 0 0 0 -4.63631,-4.6363 h -37.64677 a 4.6414505,4.6414505 0 0 0 -4.63631,4.6363 v 44.42572 a 4.6414628,4.6414628 0 0 0 4.63631,4.63628 z"
     id="path66" />
  <g
     id="g547"
     transform="matrix(-1.232825,0,0,1.232825,-179.12764,945.82137)">
    <path
       style="fill:#3f3d56;stroke-width:0.32412288"
       inkscape:connector-curvature="0"
       id="path32-0"
       d="m -473.07889,-599.14232 h 18.88556 v 0 a 7.4548265,7.4548265 0 0 1 -7.45483,7.45482 h -3.97591 a 7.4548265,7.4548265 0 0 1 -7.45482,-7.45482 z" />
    <path
       style="fill:#4400aa;stroke-width:0.32412288"
       inkscape:connector-curvature="0"
       id="path34-2"
       d="m -449.78064,-615.83302 v -6.92771 c 0,-8.371 9.10417,-16.2888 15.01005,-21.93778 8.3248,-7.95821 12.70081,-18.64999 12.70081,-31.17473 a 41.566627,41.566627 0 0 0 -83.1326,-0.23124 q -3.3e-4,0.11563 0,0.23124 c 0,12.07732 4.56362,23.49363 12.70081,31.17473 5.87413,5.54506 15.01005,13.48019 15.01005,21.93778 v 6.92771" />
    <path
       style="fill:#3f3d56;stroke-width:0.32412288"
       inkscape:connector-curvature="0"
       id="path36-3"
       d="m -449.78057,-614.8607 a 0.97231678,0.97231678 0 0 1 -0.97237,-0.97237 v -6.9278 c 0,-8.14359 8.03154,-15.74592 13.89598,-21.29682 0.48666,-0.46087 0.95986,-0.90875 1.41424,-1.34334 8.11256,-7.75552 12.40055,-18.29252 12.40055,-30.47214 0,-22.76299 -17.83088,-40.59402 -40.59386,-40.59402 -0.0381,-1.5e-4 -0.0764,-1.5e-4 -0.11459,-1.5e-4 a 40.525237,40.525237 0 0 0 -40.47943,40.36561 v 0.22648 c 0,11.92829 4.51809,23.03329 12.39596,30.46976 0.39914,0.37699 0.81363,0.76505 1.2392,1.16324 5.94025,5.56168 14.07577,13.17825 14.07577,21.48137 v 6.9278 a 0.972375,0.972375 0 1 1 -1.94475,0 v -6.9278 c 0,-7.45957 -7.77974,-14.74316 -13.46011,-20.06175 -0.42763,-0.40009 -0.84402,-0.79005 -1.24506,-1.16861 -8.26529,-7.80238 -13.00575,-19.42285 -13.00575,-31.88195 v -0.23329 c 0.0652,-23.3514 19.08589,-42.30563 42.42132,-42.30563 0.0414,0 0.0788,0 0.12012,1.6e-4 a 42.316583,42.316583 0 0 1 42.5359,42.53876 c 0,12.7234 -4.49578,23.74659 -13.00115,31.87783 -0.45659,0.43649 -0.93233,0.88691 -1.42153,1.34997 -5.60789,5.30816 -13.28808,12.5778 -13.28808,19.8845 v 6.9278 a 0.97231678,0.97231678 0 0 1 -0.97236,0.97239 z" />
    <path
       style="fill:#4400aa;stroke-width:0.32412288"
       inkscape:connector-curvature="0"
       id="path38-7"
       d="m -454.39916,-602.38355 h -18.4739 a 1.6206153,1.6206153 0 0 1 0,-3.24123 h 18.4739 a 1.6206153,1.6206153 0 1 1 0,3.24123 z" />
    <path
       style="fill:#e6e6e6;stroke-width:0.32412288"
       inkscape:connector-curvature="0"
       id="path40-5"
       d="m -506.61523,-714.07443 a 1.6140639,1.6140639 0 0 1 -1.06511,-0.39977 l -13.91752,-12.1486 a 1.6205755,1.6205755 0 1 1 2.13149,-2.44168 l 13.91751,12.14859 a 1.6206145,1.6206145 0 0 1 -1.06636,2.84146 z" />
    <path
       style="fill:#e6e6e6;stroke-width:0.32412288"
       inkscape:connector-curvature="0"
       id="path42-9"
       d="m -422.96605,-714.07443 a 1.6206145,1.6206145 0 0 1 -1.06637,-2.84146 l 13.91735,-12.14859 a 1.6205757,1.6205757 0 0 1 2.13149,2.44168 l -13.91737,12.1486 a 1.6140542,1.6140542 0 0 1 -1.0651,0.39977 z" />
    <path
       style="fill:#4400aa;stroke-width:0.32412288"
       inkscape:connector-curvature="0"
       id="path44-2"
       d="m -449.78057,-608.13578 h -27.71092 a 1.6206153,1.6206153 0 0 1 0,-3.24123 h 27.71092 a 1.6206153,1.6206153 0 1 1 0,3.24123 z" />
    <path
       style="fill:#ffffff;stroke-width:0.32412288"
       inkscape:connector-curvature="0"
       id="path46-2"
       d="m -463.63603,-614.21246 a 1.620595,1.620595 0 0 1 -1.62062,-1.62061 v -36.94779 a 1.6206153,1.6206153 0 0 1 3.24123,0 v 36.94779 a 1.620595,1.620595 0 0 1 -1.62061,1.62061 z" />
    <path
       style="fill:#ffffff;stroke-width:0.32412288"
       inkscape:connector-curvature="0"
       id="path48-8"
       d="m -463.63603,-651.16025 c -5.23629,0 -11.6651,-4.73713 -11.93621,-4.93875 a 1.6206314,1.6206314 0 1 1 1.93461,-2.60059 c 1.61064,1.19504 6.54893,4.29811 10.0016,4.29811 3.45266,0 8.39095,-3.10307 10.00238,-4.29874 a 1.6206484,1.6206484 0 0 1 1.93382,2.60122 c -0.2711,0.20162 -6.69991,4.93875 -11.9362,4.93875 z" />
    <path
       style="fill:#e6e6e6;stroke-width:0.32412288"
       inkscape:connector-curvature="0"
       id="path50-9"
       d="m -463.63619,-730.25162 a 1.6206955,1.6206955 0 0 1 -1.62062,-1.6206 v -27.71093 a 1.6206153,1.6206153 0 0 1 3.24123,0 v 27.71093 a 1.6206955,1.6206955 0 0 1 -1.62061,1.6206 z" />
  </g>
  <path
     inkscape:connector-curvature="0"
     id="path1383"
     style="color:#000000;font-style:normal;font-variant:normal;font-weight:bold;font-stretch:semi-condensed;font-size:93.32275391px;line-height:125%;font-family:'DejaVu Sans';-inkscape-font-specification:'DejaVu Sans Bold Semi-Condensed';text-align:start;letter-spacing:-11.38939762px;writing-mode:lr-tb;text-anchor:start;display:inline;overflow:visible;visibility:visible;fill:#ffffff;fill-opacity:1;fill-rule:nonzero;stroke:none;stroke-width:3.60325885;marker:none;enable-background:accumulate"
     d="m 577.93321,275.93836 c -2.9519,-0.65846 -5.42621,-0.25734 -7.42294,1.20337 -1.96781,1.46715 -3.33745,3.93002 -4.10894,7.38861 -0.77149,3.45859 -0.57836,6.27006 0.57939,8.43441 1.18667,2.17081 3.25596,3.58545 6.20785,4.24391 3.00978,0.67137 5.49857,0.27348 7.46637,-1.19368 1.99675,-1.4607 3.38087,-3.92034 4.15236,-7.37893 0.77149,-3.45859 0.56388,-6.27329 -0.62281,-8.44409 -1.15774,-2.16436 -3.2415,-3.58223 -6.25128,-4.2536 z m 4.00271,25.57012 c -2.41635,1.70749 -4.89304,2.80018 -7.43006,3.27807 -2.53702,0.47791 -5.33935,0.37472 -8.407,-0.30956 -5.38288,-1.20073 -9.41535,-3.96095 -12.0974,-8.28067 -2.6483,-4.33488 -3.34803,-9.30161 -2.09918,-14.90019 1.24884,-5.59859 3.98818,-9.77549 8.21803,-12.53072 4.2636,-2.77039 9.08684,-3.55522 14.46972,-2.35449 3.06765,0.68428 5.64817,1.78181 7.74158,3.2926 2.09342,1.51078 3.87095,3.55243 5.33259,6.12496 l 1.20063,-5.38243 14.06493,3.13738 c -6.55127,14.82661 -11.2436,30.89251 -11.18173,50.12789 l -14.06492,-3.13738 z"
     inkscape:export-xdpi="12.45"
     inkscape:export-ydpi="12.45"
     sodipodi:nodetypes="scscscscsccscccsccccccc" />
  <path
     inkscape:connector-curvature="0"
     id="path1383-7"
     style="color:#000000;font-style:normal;font-variant:normal;font-weight:bold;font-stretch:semi-condensed;font-size:93.32275391px;line-height:125%;font-family:'DejaVu Sans';-inkscape-font-specification:'DejaVu Sans Bold Semi-Condensed';text-align:start;letter-spacing:-11.38939762px;writing-mode:lr-tb;text-anchor:start;display:inline;overflow:visible;visibility:visible;fill:#ffffff;fill-opacity:1;fill-rule:nonzero;stroke:none;stroke-width:3.60325885;marker:none;enable-background:accumulate"
     d="m 752.34558,595.17298 c -2.98295,-0.72511 -5.44347,-0.3801 -7.38156,1.03503 -1.90882,1.42225 -3.1771,3.85346 -3.80483,7.29364 -0.62775,3.44025 -0.31678,6.25539 0.93291,8.44542 1.27894,2.19715 3.40989,3.65827 6.39284,4.38338 3.04147,0.73934 5.51662,0.39789 7.42544,-1.02436 1.93808,-1.41513 3.22099,-3.84282 3.84874,-7.28307 0.62773,-3.44018 0.30213,-6.25884 -0.97681,-8.45599 -1.24969,-2.19003 -3.39527,-3.65472 -6.43673,-4.39405 z m 3.19641,24.79929 c -2.34786,1.65241 -2.9011,3.54364 -5.42119,3.96393 -2.5201,0.42035 -5.33011,0.25376 -8.43004,-0.49978 -5.43961,-1.32229 -9.59237,-4.17311 -12.4583,-8.55245 -2.83281,-4.39373 -3.74113,-9.37504 -2.72497,-14.94393 1.01615,-5.56883 3.58408,-9.68265 7.70377,-12.34145 4.15279,-2.67312 8.94899,-3.34853 14.3886,-2.02624 3.09993,0.75354 5.72946,1.90922 7.8886,3.46703 2.15916,1.55775 2.82742,2.78423 4.39844,5.38919 l 2.17375,-4.49898 14.21309,3.455 c -6.9376,13.93608 -9.4479,30.91593 -9.09835,49.86192 l -14.2131,-3.45499 z"
     inkscape:export-xdpi="12.45"
     inkscape:export-ydpi="12.45"
     sodipodi:nodetypes="scscccscsccccsccccccccc" />
</svg>
