<svg version="1.1" id="Layer_1" xmlns="http://www.w3.org/2000/svg" x="0" y="0" viewBox="0 0 426.5 372.6" style="enable-background:new 0 0 426.5 372.6" xml:space="preserve"><style>.st1{fill:#292969}.st3{fill:#5f48dc}.st4{opacity:.3;fill:#3d6acc}.st5{fill:#7703fc}.st6{fill:#171733}.st8{fill:#cbc7ff}.st12{fill:#9c5f2d}.st15{fill:#7aba8e}.st16{opacity:.18;fill:#fff}.st17{fill:#ffd6a3}.st19{fill:#590cc6}.st20{fill:#f5cfbf}.st25{fill:#e3f5ff}</style><path d="M404 363.6H14.6c-1.7 0-3.2-1.4-3.2-3.2 0-1.7 1.4-3.2 3.2-3.2H404c1.7 0 3.2 1.4 3.2 3.2-.1 1.8-1.5 3.2-3.2 3.2z" style="opacity:.41;fill:#bbcbed"/><path class="st1" d="M222.7 68.9v-26c0-6.3-5.1-11.3-11.3-11.3-6.3 0-11.3 5.1-11.3 11.3v26c-12.5 0-22.6 10.1-22.6 22.6h67.9c-.1-12.5-10.2-22.6-22.7-22.6z"/><path class="st1" d="M209.9 0h2.9v33.9h-2.9z"/><path d="M293 220.8c0 38-34.6 56.3-77.2 56.3s-77.2-18.3-77.2-56.3 21.5-81.1 77.2-81.1c59.3 0 77.2 43.2 77.2 81.1z" style="fill:#aca0ed"/><path class="st3" d="M293.2 225.2c0 38-34.6 56.3-77.2 56.3-42.7 0-77.2-18.3-77.2-56.3s21.5-81.1 77.2-81.1c59.3-.1 77.2 43.1 77.2 81.1z"/><path class="st4" d="M138.7 225.2c0 38 34.6 56.3 77.2 56.3 42.7 0 77.2-18.3 77.2-56.3 0-2.8-.1-5.7-.3-8.5H139.1c-.3 2.8-.4 5.7-.4 8.5z"/><path class="st4" d="M154.4 223.1c0 29.3 26.7 43.5 59.7 43.5s59.7-14.2 59.7-43.5c0-2.2-.1-4.4-.2-6.6H154.7c-.2 2.3-.3 4.5-.3 6.6z"/><path class="st1" d="M208.5 275.5h9.9v66.6h-9.9z"/><path class="st4" d="M208.5 275.5h9.9v8.6h-9.9z"/><path class="st1" d="M248.8 352.1h-3.7v-2.3c0-3-2.4-5.4-5.4-5.4h-52.4c-3 0-5.4 2.4-5.4 5.4v2.3h-3.7v-2.3c0-5 4.1-9.1 9.1-9.1h52.4c5 0 9.1 4.1 9.1 9.1v2.3z"/><circle class="st5" cx="190.6" cy="351.8" r="5.9"/><circle transform="rotate(-80.781 190.603 351.778)" class="st6" cx="190.6" cy="351.8" r="3.1"/><circle class="st5" cx="236.5" cy="351.8" r="5.9"/><circle transform="rotate(-80.781 236.533 351.777)" class="st6" cx="236.5" cy="351.8" r="3.1"/><g style="opacity:.7"><path class="st8" d="M231.2 349.3h10.7c-.9-2-3-3.4-5.4-3.4-2.4 0-4.4 1.4-5.3 3.4zM185.2 349.3H196c-.9-2-3-3.4-5.4-3.4s-4.4 1.4-5.4 3.4z"/><linearGradient id="SVGID_1_" gradientUnits="userSpaceOnUse" x1="236.527" y1="345.881" x2="236.527" y2="349.33"><stop offset="0" style="stop-color:#56bff0"/><stop offset=".562" style="stop-color:#6e98ff"/><stop offset="1" style="stop-color:#8566ff"/></linearGradient><path d="M231.2 349.3h10.7c-.9-2-3-3.4-5.4-3.4-2.4 0-4.4 1.4-5.3 3.4z" style="fill:url(#SVGID_1_)"/><linearGradient id="SVGID_2_" gradientUnits="userSpaceOnUse" x1="190.597" y1="345.881" x2="190.597" y2="349.33"><stop offset="0" style="stop-color:#56bff0"/><stop offset=".562" style="stop-color:#6e98ff"/><stop offset="1" style="stop-color:#8566ff"/></linearGradient><path d="M185.2 349.3H196c-.9-2-3-3.4-5.4-3.4s-4.4 1.4-5.4 3.4z" style="fill:url(#SVGID_2_)"/></g><path class="st1" d="M213.4 316.9c-4.2 0-7.6-3.4-7.6-7.6V308c0-4.2 3.4-7.6 7.6-7.6 4.2 0 7.6 3.4 7.6 7.6v1.2c0 4.3-3.4 7.7-7.6 7.7zM241 261h-58.6c-7.5 0-13.9-2.4-13.4-15.7.5-13.3 13.5-27.8 13.5-27.8h59.8s11.5 16.9 12 27.6c.4 10.8-5.8 15.9-13.3 15.9z"/><linearGradient id="SVGID_3_" gradientUnits="userSpaceOnUse" x1="2866.532" y1="202.28" x2="2892.452" y2="202.28" gradientTransform="matrix(-1 0 0 1 3006.777 0)"><stop offset=".004" style="stop-color:#d6925a"/><stop offset=".33" style="stop-color:#c37b40"/><stop offset="1" style="stop-color:#804b1f"/></linearGradient><path d="M131.7 213.4h-8.8c-3.2 0-5.9-2.4-6.3-5.5l-2.2-16.6h25.9l-2.2 16.6c-.5 3.1-3.2 5.5-6.4 5.5z" style="fill:url(#SVGID_3_)"/><path class="st12" d="M124 192.2c-.3 0-.3-.4 0-.4s.3.4 0 .4zM121.1 192.3c.3-.3 1.1.4.1.4-.2-.2-.2-.3-.1-.4zM115.5 192.4c0 .2.1.2 0 .2.1 0 0 0 .1.1.1.2-.3.4-.5-.1-.5-.7.4-1.1.4-.2zM138.1 191.5c.1.2 0 .8-.2.5-.5-.5-.3-1.1.2-.5zM138.9 191.3c0-.1.3-.1.4.1.1.3-.5.7-.4-.1zM132.2 191.2h.5c.1.3-.4.3-.5 0zM126.7 191.2c.3 0 .3 0 .3.1 0 .2-.3.3-.3-.1zM129.3 209.1c.2-.2.6.2.4.6-.1 1.1-1.2 0-.4-.6zM129.3 207.1c-.1-.2 0-.5.2-.6.2-.2.5.2.2.4-.1 0-.1.1 0 .1.2.2-.2.4-.4.1zM128.7 209.4c0 .2-.4.2-.4 0-.6-.5.5-1.2.4 0zM126.9 204.9c.1.1.3.2.3.5s-.5.4-.8-.3c0-.2.4-.5.5-.2zM128.6 203.7c.1.6-.8.2-.4-.1.2-.2.4 0 .4.1zM127.4 202.4c.1-.1.1 0 .2-.1.3-.2.6.2.5.6-.3 1.3-1.4.3-.7-.5zM125.2 203c0-.3.5-.5.5.1.1.4-.5.5-.5-.1zM123.9 206.6c-.2.5-.5.2-.5-.1.1-.5.7-.4.5.1zM125.8 210.8c-.1.3-.3.4-.3.6 0 .3-.4.3-.4 0 0-.4.3-.5.3-.7.1-.2.5-.2.4.1zM121.2 202.8c.3 0 .3.4 0 .4s-.3-.4 0-.4zM131.3 208c.2-.2.5 0 .4.3-.2.7-.9-.1-.4-.3zM133.2 209.6c-.2.8-1 .3-.7-.7.2-.6 1-.8.7.7zM131.6 211.3c.3-.3.6.3.3.6-.4.3-.7-.6-.3-.6zM131.4 213.1c.1 0 .5.2-.2.2 0-.1.1-.2.2-.2zM129 211.3c.3 0 .3.4 0 .4-.3.1-.3-.4 0-.4zM136.7 210.2c0-.1 0-.1.1-.2 0 0 .3-.3-.1.2zM134.4 205.8c-.2 0-.3-.5-.2-.6.2-.5.8.9.2.6zM137.6 202.9c-.1.1-.3.2-.3-.3-.1-.2.5-.1.3.3zM133.6 197.7c-.2-.4.5.2.5.4.2.5-.2.8-.4.6-.4 0-.8-1.1-.1-1zM132.7 200.7c.2.6-.6.4-.5-.2 0-.3.4-.2.5.2zM132 203.8c-.1.1-.2.1-.3 0-.4.5-.8-.1-.6-.6 0-.8 1.2 0 .9.6zM136.7 196.9c.2-.3.8.2.5.6 0 .6-.8 0-.5-.6zM139.2 196.9c.2 0 .1.7-.3.2-.1-.1.1-.5.3-.2zM138.4 198c.4-.4.6.8.1.7-.3.1-.7-.6-.1-.7zM136.9 198.2c.1.1 0 .3-.2.2-.3-.1 0-.5.2-.2zM134.1 194.7c-.7-.1-.6-1.3 0-.8.1-.1.3.8 0 .8zM129.9 194.2s-.2-.4.1-.4c.6 0 0 .8-.1.4zM130 195.8c.3-.2.6.7.2.8-.4.3-.6-.4-.2-.8zM128.4 200.1c-.2-.3 0-.5.1-.4.5.2.1.6-.1.4zM127 199.2c0-.3.5-.1.6.2.4.7-.7.8-.6-.2zM127.9 198.5c0-.3.4-.2.3.1.2.5-.4.2-.3-.1zM118.5 208.9c.5-.2 1 .2 1 .2.3.4 0 .9-.3.4-.2 0-.4-.1-.4-.2-.5 0-.5-.3-.3-.4zM117.1 207.3c.8 1.1-.2.9-.2.6-.4-.4 0-.9.2-.6zM118.4 208c.3 0 0 .8-.3.1-.1-.2.1-.3.3-.1zM122.2 207.7c.4.3 0 .9-.3.1 0-.1.2-.3.3-.1zM118.9 199.7c-.1-.2-.2-.6 0-.7.2-.7.9.3.5.8-.1.5-.7.2-.5-.1zM117.1 197.4c-.1.1-.3.1-.3-.1-.2 0-.3-.2-.3-.3.1-.7 1-.1.6.4zM125.1 195.2c.1-.4.7.2.3.7-.2.3-.6-.4-.3-.7zM122.1 195.2c.1.1 0 .4-.2.2-.1 0-.2-.1-.1-.2-.1-.4.5-.4.3 0zM123.7 195.7c0-.2.2-.2.4-.1.8.5-.6 1.9-.4.1zM123.7 194.9c-.1.1-.3.1-.3-.1-.2 0-.2-.3-.2-.4 0-.4.7.2.5.5zM124.6 194.7c-.1 0-.3-.3-.2-.4.2-.2.5.3.2.4zM115 195.4s0 1-.2-.3c.1 0 .2.1.2.3zM118.6 195.2c.2.5-.5.6-.5.2-.2-.4.3-.8.5-.2zM116.9 195.6c0 .3-.5.1-.4-.2.1-.2.4-.3.4.2zM122 192.7c.1-.4.6-.4.6-.1 0 .1 0 .1-.1.1 0 .4-.6.4-.5 0z"/><path class="st12" d="M121.5 192.7c-.1 0-.2.1-.3 0h.3zM116.3 192.6c.1 0 .2.1.2.2.1.2-.2.4-.3.2-.1-.2-.1-.4.1-.4zM138.6 192.7c0-.1.1-.2.3-.2.1-.2.2-.1.3 0 .2.1.2.1-.1.1.2 0 .4.1 0 .5-.2.2-.7-.1-.5-.4z"/><circle transform="rotate(-13.286 127.252 190.06)" cx="127.3" cy="190.1" style="fill:#d28d54" r="13"/><circle cx="127.3" cy="190.1" r="11.3" style="fill:#60423a"/><path class="st15" d="M130.4 170.4c.2 0 0 .4 2.8-5.8.1-.2-.3-.4-.4-.2-2.7 6-2.8 6-2.4 6zM132.1 171.3c6.3-6.3 6-5.9 5.8-6.1-.2-.2.1-.3-6.1 5.8-.2.2.1.5.3.3zM133.4 172.9c5.4-3.3 5.3-3.2 5.2-3.4-.2-.2 0-.3-5.4 3.1-.3.1 0 .5.2.3z"/><path class="st5" d="m132.8 191.2 1.6-14c.5-4.1-2.7-7.7-6.9-7.7s-7.3 3.6-6.9 7.7l1.6 14c2.2 4.7 8.3 4.5 10.6 0z"/><path class="st16" d="M126 191.3c-.9-17.3-.7-16.5-1.2-16.5-.6 0-.4-.5.4 16.5 0 .6.9.5.8 0zM128.9 191.6c.6 0 .3.8 1.2-16.5 0-.5-.8-.6-.8 0-.9 17.2-1 16.5-.4 16.5z"/><path class="st17" d="M109 357.2h-9.1l24.8-136.1h9.1z"/><path class="st4" d="M121 241.4h9.1l3.7-20.3h-9.1z"/><path class="st17" d="M343.7 357.2h9.1l-24.9-136.1h-9.1z"/><path class="st4" d="M331.6 241.4h-9.1l-3.7-20.3h9.1z"/><path style="fill:#ffcb8a" d="M94 211.7h261.5v9.9H94z"/><path class="st19" d="M201.4 178.2c-19.4 1.2-52.9 10.5-54.2 24.4-1.1 11.6 8 8.8 17.5 9.2 9.5.4 53.2-.2 53.2-.2l-16.5-33.4zM229.1 177.8c19.4 1.2 60.1 11.2 60.6 25.1.4 9.8-9.1 9.5-21 9-9.5-.4-49.4-.3-49.4-.3l9.8-33.8z"/><path class="st20" d="M151.7 209.4c-3.8-2.9-3.7-7.9-.4-11.3 2.9-3 8.4-4.7 14-4.1 12 1.1 42.7 8.1 42.7 8.1l-.4 8.9s-17.4.4-33.4.6c-9 0-18.1 1.1-22.5-2.2zM196.3 240.9c9.7 1.1 17.6 7.2 11.8 23.8-5.3 15.3-39.7 70.8-45.1 79.4-.4.7-.5 1.6-.3 2.4l2.9 9.3h-25.9s2.1-7.5 5-13c2.9-5.6 39.9-79.1 39.9-79.1s-6.6-4.6-7.9-6.6c-1.1-2.1.5-18.3 19.6-16.2z"/><path class="st4" d="M196.3 240.9c-19-2.1-20.7 14.1-19.5 16.1 1.2 2.1 7.9 6.6 7.9 6.6s-7.7 15.2-16.3 32.3c7.5-.3 15.9 2.1 21.2 4 8.4-14.6 16.1-28.6 18.4-35.2 5.9-16.6-2-22.7-11.7-23.8z"/><path class="st5" d="M154.9 347.3c-3.3.3-6.3 1.6-8.1 2.6-1.2.7-2.7.7-3.9 0l-1-.5c-1.3 3.5-2.1 6.4-2.1 6.4h25.9l-2-6.5-.2-.2c-.1.1-3.3-2.3-8.6-1.8z"/><path class="st1" d="M163.8 357.6h-22.1c-1 0-1.9-.8-1.9-1.9h25.8c0 1-.8 1.9-1.8 1.9z"/><path class="st20" d="M225.5 240.9c-9.7 1.1-17.6 7.2-11.8 23.8 5.3 15.3 39.7 70.8 45.1 79.4.4.7.5 1.6.3 2.4l-2.9 9.3H282s-2.1-7.5-5-13c-2.9-5.6-39.9-79.1-39.9-79.1s6.6-4.6 7.9-6.6c1.2-2.1-.5-18.3-19.5-16.2z"/><path class="st4" d="M225.5 240.9c19-2.1 20.7 14.1 19.5 16.1-1.2 2.1-7.9 6.6-7.9 6.6s7.7 15.2 16.3 32.3c-7.5-.3-15.9 2.1-21.2 4-8.4-14.6-16.1-28.6-18.4-35.2-5.9-16.6 2-22.7 11.7-23.8z"/><path class="st5" d="M266.9 347.3c3.3.3 6.3 1.6 8.1 2.6 1.2.7 2.7.7 3.9 0l1-.5c1.3 3.5 2.1 6.4 2.1 6.4h-25.9l2-6.5.2-.2c0 .1 3.3-2.3 8.6-1.8z"/><path class="st1" d="M258 357.6h22c1 0 1.9-.8 1.9-1.9h-25.8c0 1 .8 1.9 1.9 1.9z"/><path class="st20" d="M285.6 209.4c3.8-2.9 3.7-7.9.4-11.3-2.9-3-8.4-4.7-14-4.1-12 1.1-42.7 8.1-42.7 8.1l.4 8.9s17.4.4 33.4.6c9.1 0 18.1 1.1 22.5-2.2z"/><path class="st4" d="M199 181.6c-3.6 3.6-7.5 6.5-8.7 11.2-1.2 4.7-.8 5.6-.8 5.6s-3.7 1.4-4.7 6.5c-.9 5.1.3 7.1.3 7.1l67.4-.5s1.7-3.3-1.4-8.1c-3.1-4.8-6.5-4.8-6.5-4.8s-5.1-2.3-6.1-5.6c-.9-3.3-7.1-11.8-7.1-11.8l-32.4.4z"/><path d="M243.1 238.6c-4.8-2.8-5.6-6.1-2.1-16 3.5-9.9-.4-13-3.7-17.4-3.1-4.1-5.1-7.4-1-12.9 3.2-4.3.9-11.2-3.3-13.1-2.2-1-1.7-4.4-3.5-6.5-2-2.4-6.8-3.4-10.4-2-1-.4-2.1-.7-3.2-1-9.2-1.8-18 4.1-19.8 13.2-.6 2.9-.3 5.8.6 8.4-.6 1-3.5 6.5-2.3 9.9 1.4 3.7 2.1 5.1-1.4 10.6-3.6 5.5-1.8 7.6.7 13.2 2.5 5.7-.4 9.6-3.7 12.7-3.3 3.1-4.7 10.4-.4 14 4.2 3.6 6.5 6 2.1 14s2.5 14.4 7.9 13.5c5.4-.9 14.4-2.9 13.2 3.9-1.2 6.8 9.3 13 15.8 8.8 6.5-4.2 3.9-10.8 2.5-17-1.4-6.3 4-8.2 11.8-15.8 7.8-7.6 5.1-17.7.2-20.5z" style="fill:#e32b6b"/><path class="st4" d="M209.2 202.8c2.2 4.6 1.1 12.2-1.6 18.2s5.2 6.5 6.5 13.6c1.3 7-5.1 7.2-5.9 13.4-.8 6.1 5.8 5.4 4.1 13.1-1.6 7.3-7.5 7.1-8.9 17.4-1.3.2-2.6.4-3.8.6-5.4.9-12.4-5.4-7.9-13.5 4.4-8 2.1-10.4-2.1-14-4.2-3.6-2.9-10.9.4-14 3.3-3.1 6.2-7 3.7-12.7-2.5-5.7-4.3-7.7-.7-13.2 3.6-5.5 3.1-6.6 1.7-10.3-1.4-3.7 1.3-10.1 1.3-10.1s10.9 6.9 13.2 11.5z"/><path class="st3" d="M348.5 207.4H288l5.8-35.1c.4-2.2 2.2-3.7 4.4-3.7h53.2c1.9 0 3.3 1.7 3 3.5l-5.9 35.3z"/><path d="M349.6 207.4h-60.5l5.8-35.1c.4-2.2 2.2-3.7 4.4-3.7h53.2c1.9 0 3.3 1.7 3 3.5l-5.9 35.3z" style="fill:#786edb"/><path d="M273.3 212h76.3v-4.6h-71.8c-2.5 0-4.5 2-4.5 4.6z" style="fill:#9788e8"/><circle cx="324.6" cy="188.6" r="5.3" style="fill:#ffd39c"/><path class="st25" d="M315.9 209.1c0 .8-1.5 2.4-2.2 2.9h-16c-1-.6-2-2.4-2.2-2.9h20.4z"/><linearGradient id="SVGID_4_" gradientUnits="userSpaceOnUse" x1="305.703" y1="211.868" x2="305.703" y2="209.945"><stop offset="0" style="stop-color:#cbc7ff"/><stop offset="1" style="stop-color:#fff"/></linearGradient><path d="M315.9 209.1c0 .8-1.5 2.4-2.2 2.9h-16c-1-.6-2-2.4-2.2-2.9h20.4z" style="opacity:.72;fill:url(#SVGID_4_)"/><path class="st25" d="M313.3 198.1h-.2l.5-2.4c0-.2-.1-.4-.4-.4h-15.1c-.2 0-.4.2-.4.4l2.7 13.5h10.5l.5-2.5.3.1c.2 0 .5.1.7.1 1.8 0 3.4-1.3 3.8-3.1l.2-1.1c.4-2.2-1-4.2-3.1-4.6zm1.6 4.2-.2 1.1c-.2 1.3-1.5 2.1-2.8 1.9h-.3l1.1-5.7h.2c1.4.2 2.3 1.4 2 2.7z"/><linearGradient id="SVGID_5_" gradientUnits="userSpaceOnUse" x1="299.544" y1="202.154" x2="305.683" y2="202.154"><stop offset="0" style="stop-color:#cbc7ff"/><stop offset="1" style="stop-color:#fff"/></linearGradient><path d="M313.3 198.1h-.2l.5-2.4c0-.2-.1-.4-.4-.4h-15.1c-.2 0-.4.2-.4.4l2.7 13.5h10.5l.5-2.5.3.1c.2 0 .5.1.7.1 1.8 0 3.4-1.3 3.8-3.1l.2-1.1c.4-2.2-1-4.2-3.1-4.6zm1.6 4.2-.2 1.1c-.2 1.3-1.5 2.1-2.8 1.9h-.3l1.1-5.7h.2c1.4.2 2.3 1.4 2 2.7z" style="opacity:.72;fill:url(#SVGID_5_)"/><circle class="st25" cx="305.7" cy="195.3" r="7.9"/><circle class="st4" cx="305.7" cy="195.3" r="7"/><linearGradient id="SVGID_6_" gradientUnits="userSpaceOnUse" x1="305.707" y1="202.041" x2="305.707" y2="190.365"><stop offset="0" style="stop-color:#996b5a"/><stop offset="1" style="stop-color:#5a3c37"/></linearGradient><ellipse cx="305.7" cy="196.3" rx="6.9" ry="6" style="fill:url(#SVGID_6_)"/><path d="m308.6 196.9.5-.9c.3-.6-.1-1.3-.5-1.7-.4-.4-1.9-1.2-2.5-1.3-.6-.1-1.3.1-1.7.5-.4.5-1.2 2.2-1.3 2.5-.1.3-.2.6-.1.9.8.1 1.7.1 2.6.1 1.1 0 2.1 0 3-.1z" style="fill:#f2f2f2"/></svg>