<svg version="1.1" id="svg2" xmlns="http://www.w3.org/2000/svg" x="0" y="0" viewBox="0 0 4096 4096" style="enable-background:new 0 0 4096 4096" xml:space="preserve"><style>.st2{opacity:.3}.st3{fill:#6b184e}.st4{fill:#fff}.st5{opacity:.25}.st6{fill:#000072}.st9{fill:#ff67a0}</style><path style="fill-rule:evenodd;clip-rule:evenodd;fill:#e7c0ff" d="M0 0h4096v4096H0z"/><path d="M1715.9 2745.9c-.5 0-.9-.3-1.6-.8 2.2.5 2.8.9 1.6.8z" style="fill:#ef5050"/><g class="st2"><path class="st3" d="M1138.4 2670.3c.2.2.3.4.4.5l.6.9-1-1.4zM1165.1 2703.2c-8.9-10.2-17.5-20.7-25.7-31.6l25.7 31.6zM2931.4 2706l25.7-31.3c-8.1 10.8-16.7 21.2-25.7 31.3z"/></g><path class="st4" d="M1165.6 2714.2c-8.9-10.3-17.6-20.9-26-31.8l26 31.8zM2929.7 2717l26-31.7c-8.3 10.9-17 21.4-26 31.7z"/><g class="st5"><path class="st3" d="M2956.2 2660.8c-.2.3-.3.7-.5 1 .2-.3.3-.6.4-.9 0 0 .1 0 .1-.1z"/></g><path class="st4" d="M3172.7 2500.7c-5 43.4-93.6 2.2-112.9-7.4-1.5-.7-3.2.9-2.8 2.7 1.8 7.5 6.5 24.3 18.6 51.3 14.9 33.3 27.1 59.1 20.3 76.6-7.3 18.5-37.4 25.6-75 21.3-21-2.4-43.5 15.9-63.7 38.1l-.2.2-.2.3c-5.4 5.9-10.5 12-15.3 18.1-4.2 5.2-8.2 10.3-11.9 15.2-33.8 38.5-71.9 72.6-113.5 102.7-53.6 37.5-112.6 67.1-174.9 90.2v-.5s-85.4 31.4-211.7 60.1c0 0-112.8 23.9-216 37.1 0 0-78.9 9.3-165.7 9.1-86.7-.1-167-9.6-167-9.6-103-13.4-215.8-37.8-215.8-37.8-126.2-29.1-211.5-60.8-211.5-60.8v.5c-62.1-23.3-121.1-53.1-174.6-90.8-41.4-30.2-79.4-64.4-113.1-103.1-4.3-5.8-9-11.8-13.9-17.8-4.3-5.4-8.9-10.8-13.5-15.9.4.6.9 1.1 1.2 1.7l-1.5-1.9c.1.1.2.1.2.2-20.1-22.3-42.6-40.8-63.7-38.5-37.6 4.2-67.7-3-74.9-21.6-6.8-17.5 5.5-43.3 20.4-76.5 12.2-27 17-43.8 18.8-51.3.3-1.9-1.3-3.5-2.8-2.7-19.3 9.5-108 50.5-113 7-2.7-24 36.4-96.8 50.1-171.3 39.8-215.9 51.3-258.6 51.3-258.6.3-1.4 38.7-156.3 96-270.2-56.8-152.1-93.5-595.8 2.2-688.2 70.3-68 317.6 57.4 441.7 163.1 11.4 9.7 21.9 19.3 31 28.6 92.4-38.4 213.5-58.3 308.1-68.3 73-7.7 130.2-9.6 146.4-9.5 12.8.1 51.1 1.3 102.7 5.7 31.5 2.7 67.9 6.6 106.3 12.1 81.5 11.8 172.3 30.8 245.1 61.4 20-20.1 46.1-41.8 75.9-63.4 131.7-95.2 335-187.5 397.5-126.7 95.3 92.8 57.3 536.3-.1 688.2 36 72.2 64.4 160.6 80.5 216.2 9.3 32.4 14.6 53.8 14.7 54.4 0 0 11.3 42.6 50.4 258.7 13.7 74.7 52.6 147.5 49.8 171.6z"/><g class="st2"><path class="st6" d="M2941.4 2701.9c-4.2 5.2-8.2 10.3-11.9 15.2-33.8 38.5-71.9 72.6-113.4 102.7-53.6 37.5-112.6 67.1-174.9 90.2v-.4s-85.4 31.4-211.7 60.1c0 0-112.9 23.9-216 37.1 0 0-78.9 9.2-165.7 9.1-86.7-.1-166.9-9.6-166.9-9.6-103-13.5-215.9-37.8-215.9-37.8-126.1-29.1-211.5-60.7-211.5-60.7v.4c-62.2-23.3-121.2-53.1-174.6-90.8-41.4-30.2-79.4-64.5-113-103.1-4.4-5.8-9-11.8-13.9-17.8 122.9 59 456.5 213.6 897.1 214.3 434.2.7 765-148.9 892.3-208.9z"/></g><path d="M3058 2016.1c-32.7 4-66 6-99.7 5.9-440.8-.7-798.6-354.7-805.6-793.7 98.3 8.5 244.3 28.6 351.5 73.5 108.3-109 396.8-264.7 473.4-190.2 95.4 92.8 57.3 536.3 0 688.3 35.9 72.2 64.3 160.6 80.4 216.2z" style="fill:#ff6f03"/><path class="st4" d="M2977.6 1111.7c11.8 11.5 21.6 28.4 29.5 49.4-81.2-59.8-330 65.4-460.5 173.7-23.7 19.7-56 26.1-85.3 16.4-98.8-32.9-216.1-50-305-58.6-2-21.2-3.2-42.6-3.6-64.2 98.2 8.5 244.3 28.6 351.4 73.5 108.4-109.1 396.9-264.7 473.5-190.2z" style="opacity:.6"/><g class="st2"><path class="st3" d="m1139.8 2682.5 25.8 31.6c-8.9-10.2-17.5-20.7-25.8-31.6zM2929.7 2716.9l25.9-31.5c-8.3 10.9-17 21.4-25.9 31.5z"/></g><g class="st2"><path class="st3" d="M1138.6 2579.2c.5.7 1 1.3 1.4 1.9l-1.7-2.1c.1 0 .2.1.3.2zM1140 2581.1l25.8 31.6c-8.9-10.3-17.5-20.7-25.8-31.6zM2957.2 2582c.1-.1.2-.1.2-.2l-1.7 2.1c.5-.6 1-1.2 1.5-1.9z"/></g><path class="st9" d="M1335.5 1495.8c-75.8 76.7-123.5 183.9-130.2 171.4-.7-1.2-1.3-2.6-2-4.3-14.4-35.1-38.2-174.3-37.9-298.4.1-20 .7-37.7 1.8-53.2 2.9-42 9.3-69 17-86.2 9.6-21.1 31.2-27.5 50.3-20.4 50.8 18.9 194.9 109 241.8 166.7 8.3 10.2-65 47.7-140.8 124.4z"/><g class="st2"><path class="st6" d="M1335.5 1495.8c-75.8 76.7-123.5 183.9-130.2 171.4-.7-1.2-1.3-2.6-2-4.3 16.9-65.1 63.5-155 99.2-219.9 48.8-88.7-18.2-159.4-76.3-180.6-19.9-7.3-43.6 23.8-59 48.9 2.9-42 9.3-69 17-86.2 9.6-21.1 31.2-27.5 50.3-20.4 50.8 18.9 194.9 109 241.8 166.7 8.3 10.2-65 47.7-140.8 124.4z"/></g><path class="st6" d="M1207.1 1689.6h-1.2c-8.3-.3-15.6-4.9-19.5-12.3-17-31.5-42.7-184.2-42.4-312.9.2-69.3 6.9-117.8 20.7-148.2 13.6-30 46.1-43.3 77.3-31.6 52 19.4 201 111.8 251 173.2 4.2 5.2 6.1 11.7 5.3 18.4-1.8 14.8-14.4 24.3-44.8 47.3-27.2 20.6-64.4 48.7-102.7 87.4-42.1 42.6-75.6 95.6-97.8 130.8-23 36.3-30.3 47.9-45.9 47.9zm17.1-32.6zm-37.3-292.5c-.2 97.7 15 204 27.2 258.4l2.7-4.2c23.2-36.7 58.2-92.1 103.6-138 40.4-40.9 80.7-71.3 107.3-91.5 7.4-5.6 15.3-11.6 21.3-16.4-53.2-54.6-179.3-132.2-221.9-148.1-7.9-2.9-18.1-2.1-23.2 9.2-11.2 24.4-16.9 68.4-17 130.6z"/><path class="st9" d="M2757.7 1498c75.5 76.9 122.9 184.3 129.7 171.8.7-1.2 1.3-2.6 2-4.3 14.5-35.1 38.7-174.2 38.9-298.2 0-20-.5-37.7-1.6-53.2-2.8-42-9.1-69-16.8-86.3-9.5-21.1-31.1-27.6-50.2-20.6-50.8 18.8-195.2 108.4-242.3 165.9-8.5 10.2 64.7 48 140.3 124.9z"/><g class="st2"><path class="st6" d="M2757.7 1498c75.5 76.9 122.9 184.3 129.7 171.8.7-1.2 1.3-2.6 2-4.3-16.7-65.1-63-155.2-98.5-220.3-48.5-88.9 18.7-159.3 76.9-180.3 20-7.2 43.6 23.9 58.9 49.1-2.8-42-9.1-69-16.8-86.3-9.5-21.1-31.1-27.6-50.2-20.6-50.8 18.8-195.2 108.4-242.3 165.9-8.5 10.3 64.7 48.1 140.3 125z"/></g><path class="st6" d="M2885.6 1692.3c-15.7 0-22.9-11.6-45.8-48.1-22.1-35.2-55.4-88.3-97.4-131.1-38.1-38.8-75.3-67.1-102.4-87.7-30.3-23.1-42.9-32.6-44.6-47.4-.8-6.7 1.1-13.2 5.3-18.4 50.2-61.3 199.5-153.2 251.5-172.4 31.2-11.5 63.6 1.9 77.1 31.8 13.7 30.5 20.3 79.1 20.2 148.4h-21.4 21.4c-.1 128.7-26.3 281.3-43.4 312.7-4 7.4-11.3 11.9-19.6 12.2-.2-.1-.5 0-.9 0zm-240.9-317.6c6 4.8 13.9 10.9 21.2 16.5 26.6 20.2 66.7 50.8 107 91.8 45.2 46 80.1 101.6 103.1 138.3.9 1.4 1.8 2.8 2.6 4.2 12.4-54.4 27.9-160.6 28-258.3.1-62.2-5.5-106.2-16.5-130.7-5.1-11.2-15.3-12.1-23.2-9.2-42.5 15.8-168.8 93-222.2 147.4z"/><path class="st6" d="M2073.2 3028.7h-2.8l-46.7-.1c-120.5-.2-241-12.8-358.3-37.4l-5.1-1.1c-112.4-26-191.7-53.4-210.4-60.2-1.4-.2-2.8-.6-4.2-1.1-66.7-25-127.2-56.4-179.6-93.4-43.9-32-83.2-67.8-117-106.6l-.3-.3c-9.9-11.4-18.8-22.3-27.1-33.3l-.1-.1c-15.1-16.7-32.7-32.4-44.7-31.1-51.2 5.7-86.9-7.3-97.9-35.5-9.9-25.4 2.9-53.7 19.1-89.5l1.8-4c1.1-2.4 2.1-4.8 3.1-7-29.9 10.4-60.4 15.5-80.5 4.5-12.1-6.6-19.7-18.3-21.4-32.8-1.9-16.8 6.3-39.2 18.8-73.2 11-30.2 24.8-67.7 31.6-104.6 39.5-214.4 51.1-258.6 51.6-260.4 4.1-16.5 40.4-157.1 93.4-265.9-51.6-151.6-96.6-598.9 10.7-702.7 93.5-90.4 384.5 79.8 493.2 181.7 181.3-70.2 446.3-74.1 449.4-74.1 2.6 0 267.8 4.7 449.1 75.5 109-101.6 400.6-270.8 493.8-180.2 107 104.1 60.6 551.3 8.5 702.7 52.8 109.2 88.5 249.6 92.6 266.1.5 1.8 12 46 50.8 260.5 6.7 36.9 20.3 74.5 31.2 104.7 12.3 34.1 20.5 56.5 18.5 73.3-1.7 14.5-9.3 26.2-21.5 32.8-20.2 10.9-50.7 5.7-80.5-4.8 1 2.3 2 4.6 3.1 7l1.8 4c16.1 35.9 28.8 64.3 18.9 89.6-11.1 28.2-46.8 41-98 35.2-12.1-1.4-29.6 14.3-44.7 30.9l-.1.1c-8.4 11-17.3 21.9-27.3 33.3 0 0 0 .1-.1.1-.1.2-.3.3-.4.4-33.7 38.4-73.1 74.1-116.8 105.7-52.8 37-113.4 68.2-180.2 93-1.4.5-2.9.9-4.3 1.1-18.9 6.7-98.2 33.9-210.2 59.4l-5.5 1.1c-116.1 24.5-235.7 36.7-355.3 36.7zm-615.9-142.6c1.3.2 2.6.6 3.9 1 .8.3 85.7 31.5 208.8 60l4.6 1c114.3 24 231.9 36.3 349.3 36.5l46.7.1h2.7c116.6 0 233.2-11.9 346.7-35.4l4.9-1c122.9-28 207.8-58.9 208.7-59.2 1.3-.5 2.6-.8 3.9-1 61.7-23.2 117.5-52.2 165.9-86.1 40.6-29.4 77.3-62.7 109-98.6 31.6-41.3 68.8-84.6 110.9-79.8 35.4 4 50.7-4.2 52-7.5 3.2-8.1-8.6-34.4-18-55.5l-1.8-4.1c-12.8-28.6-18-46.9-19.9-55.3-2.1-9.2 1.2-18.9 8.6-24.8 7.3-5.8 17.1-6.8 25.4-2.7 42.6 21.1 72.6 26.8 81.3 24.3.2-7.6-8.9-32.6-16.2-52.8-11.5-31.7-25.8-71.3-33.2-111.8-38.2-211.1-49.9-256.7-50-257.1-.1-.3-.1-.5-.2-.8-.7-3-37.8-153.9-93.4-265.4-2.7-5.5-3.1-11.9-.9-17.6 61.1-162 86-586.1 5.3-664.7-26.1-25.4-102.9-13.7-200.3 30.5-91.2 41.4-188.5 105.5-242.1 159.4-6.3 6.4-15.9 8.3-24.2 4.8-151.6-63.6-393.8-77.5-445.6-77.6-51.8-.3-294.1 13-445.9 76.1-8.3 3.4-17.8 1.5-24.1-4.9-53.4-54.1-150.5-118.5-241.6-160.1-97.3-44.5-174-56.5-200.2-31.2-81 78.3-57.4 502.6 3.2 664.7 2.1 5.7 1.8 12.1-1 17.6-55.9 111.1-93.4 261.7-94.2 265.1-.1.3-.1.6-.2.9-.1.4-12 45.9-50.8 256.9-7.5 40.6-21.9 80-33.5 111.7-7.4 20.1-16.5 45-16.4 52.7 8.7 2.5 38.7-3.1 81.4-24 8.2-4 18.2-3 25.4 2.8 7.3 5.9 10.7 15.6 8.5 24.8-2 8.4-7.2 26.8-20.1 55.2l-1.8 4.1c-9.5 21.1-21.4 47.3-18.2 55.4 1.3 3.3 16.6 11.6 51.9 7.7 42.1-4.7 79.2 38.8 110.7 80.2 31.5 36.1 68.2 69.4 108.9 99.2 47.8 33.7 103.6 62.9 165.2 86.3zm-512-390.6z"/><path class="st4" d="M2174.4 2531.8c10.3 36.3-18.7 69.7-54.6 69.2-71.8-.8-71.8-86.1-71.8-86.1s0 85.3-71.8 86.1c-35.9.4-64.9-33-54.6-69.2 0 0 7.9-136.7 126.4-136.7s126.4 136.7 126.4 136.7z"/><path class="st6" d="M1571.5 1822c-9.3-15.6 74.8-182.3 197.4-142 44.9 14.7 36.2 54.5 9.6 66.4-25.3 11.3-63.9 9.3-96.2 21.7-63.2 24.2-101.5 69.4-110.8 53.9zM2531.6 1831.3c10.3-14.9-62.7-186.7-187.7-154.6-45.8 11.8-39.7 52-13.9 65.6 24.5 12.9 63.1 13.4 94.6 28 61.4 28.2 96.7 75.9 107 61z"/><ellipse transform="rotate(-89.908 1519.738 2532.734)" class="st9" cx="1519.7" cy="2532.7" rx="52.1" ry="108.6"/><ellipse transform="rotate(-89.908 2585.727 2534.444)" class="st9" cx="2585.7" cy="2534.4" rx="52.1" ry="108.6"/><g class="st2"><path class="st3" d="M2856.5 2519c-.5.8-.8 1.6-1.3 2.4l1.5-2.6c0 .1-.1.1-.2.2z"/></g><path class="st4" d="M1891.9 2502.8s26.9 72 91.2 55.8c73.1-18.4 64.9-105.5 64.9-105.5"/><path class="st6" d="M2568.5 2400c-2.7-39.7-10.5-81.1-27.5-112.6-17.1-31.9-43-51.6-78.1-59.5-17.3-4.2-34.3-5.6-50.5-2.9-16.1 2.7-31.5 9.3-45.4 19.8-28.2 20.8-49.3 55.4-62.2 93.4l-.1.3c-2.9 8.4-12 12.9-20.4 10-6.8-2.3-11.1-8.8-10.9-15.6.6-23.4 6-46.8 15.2-69.2 9.5-22.2 23.1-43.7 41.9-61.5 18.8-17.7 43-31.4 69.3-37.3 26.2-6.1 53.2-4.6 77.8 1.2 24.4 5.2 49.8 16.5 70.3 33.9 10.2 8.6 19.4 18.6 27 29.3 7.5 10.8 13.6 22.3 18.3 34 9.6 23.5 13.6 47.7 14.5 71.3.3 11.8-.1 23.5-1.3 35.1-.7 5.8-1.5 11.5-2.5 17.2-1.2 5.8-2.2 11.1-4 17.4-2.4 8.5-11.3 13.4-19.8 11-6.7-1.9-11.1-7.8-11.6-14.3v-1zM1509.9 2397.8c-1.7-6.3-2.7-11.7-3.8-17.5-.9-5.7-1.6-11.5-2.3-17.3-1-11.6-1.3-23.3-.8-35.1 1.2-23.6 5.5-47.7 15.4-71.1 4.8-11.7 11.1-23 18.7-33.8 7.7-10.7 17-20.5 27.3-29 20.7-17.1 46.2-28.1 70.7-33.1 24.6-5.5 51.6-6.8 77.8-.3 26.2 6.2 50.3 20.2 68.8 38.1 18.7 18 32 39.6 41.2 62 8.9 22.5 14 46 14.3 69.4.1 8.9-6.9 16.2-15.8 16.3-7.2.1-13.4-4.5-15.5-11l-.1-.3c-12.5-38.2-33.1-73.1-61.1-94.2-13.8-10.6-29.1-17.4-45.1-20.4-16.1-2.9-33.2-1.8-50.5 2.2-35.1 7.5-61.3 26.8-78.8 58.5-17.4 31.3-25.7 72.5-28.9 112.2l-.1 1.2c-.7 8.8-8.4 15.4-17.2 14.7-6.9-.3-12.5-5.1-14.2-11.5z"/><path class="st4" d="M2206.1 2504.8s-27.8 71.7-91.9 54.7c-72.9-19.3-63.6-106.3-63.6-106.3"/><path class="st4" d="M1891.9 2503.2s26.9 72 91.2 55.8c73.1-18.4 64.9-105.5 64.9-105.5"/><path class="st6" d="M2161.6 2551.5c0 18.1-4.1 39.4-11.5 60.4-17.7 50.2-54.4 98.7-99.8 98.7s-82.1-48.5-99.8-98.7c-7.4-21-11.5-42.3-11.5-60.4l112.6-69 110 69z"/><path class="st9" d="M2150 2612c-17.7 50.2-54.4 98.7-99.8 98.7s-82.1-48.5-99.8-98.7c13.3-11.6 30.6-18.6 49.6-18.6 19.3 0 36.9 7.2 50.1 19 13.3-11.8 30.9-19 50.1-19 19.2 0 36.6 7 49.8 18.6z"/><path class="st6" d="M2050.3 2728c-74.6 0-128.7-105.4-128.7-176.5 0-70.9 57.7-128.7 128.7-128.7 70.9 0 128.7 57.7 128.7 128.7-.1 71.1-54.1 176.5-128.7 176.5zm0-270.5c-51.8 0-94 42.2-94 94 0 54.7 43 141.9 94 141.9s94-87.1 94-141.9c0-51.8-42.2-94-94-94z"/><path class="st4" d="M1891.9 2503.2s26.9 72 91.2 55.8c73.1-18.4 64.9-105.5 64.9-105.5s4.3-96.2-78.2-96.2c-82.5.1-77.9 145.9-77.9 145.9z"/><path class="st4" d="M2206.1 2505.2s-27.8 71.7-91.9 54.7c-72.9-19.3-63.6-106.3-63.6-106.3s-29.1-102.3 65.6-102.3c94.8-.1 89.9 153.9 89.9 153.9z"/><path class="st6" d="M2216.6 2509.3c-1.9 6.3-3.8 11.3-6.5 16.7-2.6 5.3-5.5 10.3-8.9 15.3-6.8 9.8-15.5 18.9-26.4 25.9-10.9 6.9-23.9 11.5-37.3 12.4-6.5-.1-13.3.2-19.5-1.3-3.1-.6-6.4-1-9.4-2l-8.9-3.1c-23.9-8.1-44.2-28.7-53.1-51.4-5-11.3-7.3-23.1-8.5-34.6-.6-5.8-.8-11.6-.6-17.3.2-5.9.7-11.2 1.8-17.5 1.1-6.1 7-10.2 13.1-9.1 5.3.9 9 5.4 9.3 10.5l.1 1c.5 8.9 1.8 19 4 28.1 2.2 9.2 5.2 18 9.3 25.7 8.3 15.5 20.4 26.9 36.6 32.3l6.1 2c2 .6 4 .7 6 1.2 4.1 1.2 7.9.8 11.9 1.2 7.7-.5 15.2-2.3 22.4-6.2 7.2-3.7 14.1-9.3 20.4-15.9 3.1-3.4 6.2-6.9 9-10.7 2.9-3.6 5.7-8 7.9-11.4l.8-1.2c3.4-5.2 10.4-6.7 15.6-3.3 4.4 2.8 6.2 8 4.8 12.7z"/><path class="st6" d="M1902.7 2501.1c2.2 3.4 5.1 7.8 7.9 11.4 2.8 3.8 5.9 7.3 9 10.7 6.3 6.6 13.2 12.2 20.4 15.9 7.2 3.9 14.7 5.7 22.4 6.2 3.9-.4 7.8 0 11.9-1.2 2-.5 4-.6 6.1-1.2l6.1-2c16.2-5.4 28.3-16.8 36.6-32.3 4.2-7.7 7.2-16.5 9.3-25.7 2.2-9 3.5-19.2 4-28.1l.1-1c.3-6.2 5.7-11 11.9-10.7 5.3.3 9.6 4.2 10.5 9.3 1.1 6.4 1.6 11.7 1.8 17.5.2 5.7 0 11.5-.6 17.3-1.2 11.5-3.5 23.3-8.5 34.6-9 22.7-29.2 43.3-53.1 51.4l-8.9 3.1c-3 .9-6.2 1.4-9.4 2-6.2 1.5-13 1.2-19.5 1.3-13.4-.9-26.4-5.5-37.3-12.4-10.9-7-19.6-16.1-26.4-25.9-3.4-4.9-6.3-10-8.9-15.3-2.6-5.4-4.6-10.4-6.4-16.7-1.8-6 1.6-12.3 7.6-14 4.9-1.5 10 .6 12.7 4.7l.7 1.1z"/><path class="st6" d="M2137.5 2408.5c-.1 20.6-27.1 38.6-51.8 50.8-25.9 12.8-54.8 12.6-80.5-.5-24.6-12.5-51.3-30.9-51.2-51.5.4-62.1 183.9-60.9 183.5 1.2z"/><path class="st4" d="M2082.2 2396c0 5.9-10.7 11.1-20.5 14.6-10.2 3.7-21.7 3.6-31.9-.2-9.8-3.6-20.4-8.9-20.3-14.9.1-17.9 72.8-17.4 72.7.5z" style="opacity:.5"/><g class="st5"><path class="st6" d="M2200.5 2516.6c-11 19.5-38.6 55.9-86.3 43.3-72.9-19.4-63.6-106.4-63.6-106.4l17.4 5.8c13 25.4 35.3 49 73.8 59.2 22.8 6 42.2 4.3 58.7-1.9z"/></g><g class="st5"><path class="st6" d="M1983 2559.1c-47.5 12-74.6-24.4-85.5-44.1 16.3 6.1 35.4 8 57.8 2.3 38.4-9.7 61-32.7 74.3-57.9l18.4-5.9c0 .1 8.2 87.1-65 105.6z"/></g><path class="st6" d="M2070.3 2599.1s-13.3 3.9-20.1 37.8c-6.8-34-20.1-37.8-20.1-37.8l20.1-17.2 20.1 17.2z"/></svg>