<svg version="1.1" id="svg2" xmlns="http://www.w3.org/2000/svg" x="0" y="0" viewBox="0 0 4096 4096" style="enable-background:new 0 0 4096 4096" xml:space="preserve"><style>.st3{fill:#000072}.st4{fill:#f95c3d}.st5{opacity:.49}.st6{fill:#fff}</style><path style="fill-rule:evenodd;clip-rule:evenodd;fill:#ffd133" d="M0 0h4096v4096H0z"/><path d="M1946.9 2976.9c-337.3-16.3-691.4-118.2-864-397.1-105-169.6-140.4-382.2-81.5-574.3 84.1-274.4 305.5-394.5 544.4-493.2 14.3-6 28.7-11.9 43.4-18 7.1-3.1 14.3-6 21.5-8.9 7.3-2.9 14.6-5.7 22-8.5 25.1-11.1 52.1-17.2 77.2-28.5 19.5-8.8 45.4-22.3 53.2-43.8 7.3-20.1-8.7-32.3-20.3-45.9-10.6-12.5-21-25.2-28.9-39.7-5.4-9.9-9.6-20.5-10.9-31.8-1.4-11.7 4.1-21.5 4.1-32.4 10.2-24 28.3-42.3 50-54.1 7.3-4 14.9-7.2 22.9-9.7 45.6-17 87.2-5.4 118.7 21.1 7.9 6.6 15.1 14.2 21.6 22.6 19.1 27.1 33.1 58.5 34.8 91.7-22.7-38.4-29.7-85.6-14.2-127.2 3.4-9.7 8-19 13.7-27.6 17-25.8 43.8-45.3 79.3-52.2 7.6-2 15.3-3.2 22.9-3.2 15.1 0 29.9 4.7 43.3 16.3 16.3 13.4 26.8 30.1 33.1 48.4 3.2 9.2 5.3 18.8 6.6 28.7 2.2 31.2 2.2 60.9-6.5 90.5 8.7-17.5 12.2-36.7 26-50.8 5.5-7.7 11.6-14.8 18.2-21.3 19.8-19.4 44.5-33.2 72.2-37.3 8.7-1.2 17.5-1.4 26.1-.5 17.2 1.7 33.8 7.9 47.8 19.2 42 35.8 33 91.5 5.3 133.8-18.1 27.8-48.9 68.6-6.8 92.1 15.9 8.9 36 12.5 53.4 18 244 76.8 502.7 175.8 644.4 407.6 168.7 275.9 129.7 635.9-112.1 855.4-251.7 228.6-634.2 276.4-960.9 260.6z" style="fill:#fffbf5"/><path d="M3021.1 1860.8c-141.7-231.8-400.5-330.9-644.4-407.6-8.7-2.7-18.1-5-27.4-7.7-6.6-1.2-13.5-3.5-19.9-6.6-15.1-7.1-30.8-19.3-28.4-37.8 1.1-9.5 5.5-19.1 9.9-27 5.7-11 13.2-21.8 19.2-31 27.7-42.3 36.7-98-5.3-133.8-14-11.4-30.6-17.5-47.8-19.2-8.6-.9-17.4-.7-26.1.5-27.6 4.1-52.4 17.9-72.2 37.3-6.6 6.5-12.7 13.6-18.2 21.2-7.8 5.8-11.7 13.9-15 22.5-3.3 8.7-6.2 18-11.9 26 4-10.7 6-21.7 7-32.6 1-10.9 1.1-21.8 1.5-32.3-.2-7.6-.6-15.3-1.1-23.1-1.3-9.9-3.4-19.5-6.6-28.7-6.3-18.4-16.8-35.1-33.1-48.4-13.4-11.6-28.1-16.3-43.3-16.3-7.6 0-15.2 1.2-22.9 3.2-26.6 5.2-48.3 17.4-64.7 34.1-5.5 5.6-10.3 11.6-14.6 18.1-38 47.2-17 104.9.5 155.5-14-90.8-101.3-185.1-198-126.4-10.9 5.9-20.8 13.4-29.4 22.5-8.5 9-15.6 19.6-20.7 31.6-10.5 54.9 26.2 110.8 64.6 147.4 8.7 10.5 26.2 5.2 38.4-1.7 19.2-12.2 12.2-38.4 24.4-54.1 14-22.7 45.4-17.5 66.4-7 47.2 29.7 55.9 87.3 68.1 136.2 2.6 8.7 9.2 16.1 17.7 21.4 66.1 43.2 90.6-33.7 122-79.1 5.2-8.7 22.7-3.5 22.7 5.2 7 99.5 94.3 141.5 181.1 144.7 7.2 1.9 14.3 4 21.3 6.6 7 2.6 14 5.6 20.8 9.1 9.3 4.2 18.5 8.4 27.7 12.6 210.8 96.5 406.6 195.6 520.1 418.1 65.2 127.9 53.7 250-25.4 368.9-64.3 96.6-163.6 165.4-254.9 233.7-95.7 71.5-199.6 130.9-315 163.9-93.2 26.6-189.3 45.2-286.5 32.1-105.9-14.3-91.5-127.7-113.7-206.8-31.7-113.2-115.9-198.8-206.2-269.5-46.9-36.7-96.5-67.4-147.8-94.4-17.1-9-34.4-17.6-51.9-25.9-110.2-52.6-227.3-84-337.3-145.2-26.2-14-41.9-50.6-22.7-76.8 50.6-64.6 47.2-150.2-31.4-183.4-145 82.1-153.7 281.2-135.6 430.8 1.4 19.9 3.5 39.7 6.4 59.3 14.6 98.4 49.7 193.9 102.2 278.7 172.7 278.9 526.8 380.8 864 397.1 326.8 15.8 709.3-32 961.1-260.6 242-219.4 280.9-579.4 112.3-855.3z" style="fill:#ffeedc"/><path class="st3" d="M1948 2955c-173.9-8.5-351.2-38.1-511.1-109.2-76.3-33.9-148.9-77.3-211.6-132.8-65.6-58.1-118.2-127.8-156.9-206.4-85.2-172.9-98.4-381.2-21.6-559.6 32.4-75.3 79.9-142.3 139.2-198.6 57.7-54.8 124.5-98.3 194.8-135.6 78.6-41.8 161.3-77 244.2-109.3 25.8-10.1 52.2-18.6 78.1-28.5 22.2-8.5 44.7-18.6 62.3-34.9 18.9-17.4 28.8-43.4 17.1-67.6-9.5-19.8-29-34.5-41.2-52.7-6.5-9.7-12.8-20.3-14.9-31.9-2-10.9 3.2-22.3 3.8-33.2-1 3.7-2 7.3-3 11 19.7-44.6 74.4-71.2 121.8-57.3 49.2 14.4 82.3 68.6 85.5 117.9 13.6-3.7 27.1-7.3 40.7-11-27.9-48.3-27.3-112.7 16.4-151.8 8.5-7.6 18.8-13.7 29.5-17.6 13.2-4.8 28.9-9.5 43-7.7 23.8 3.1 42 27.3 49.3 48.5 11.5 33.2 9.5 74.1.1 107.6-6.6 23.2 28.9 39.6 39.9 16.8 6.2-12.9 10.1-27 17.4-39.4 6.9-11.6 17-22.6 26.9-31.7 19.6-18 45.1-29.4 72-28.6 24.3.7 48 13.7 57.7 36.4 8.2 19.2 4.8 41.5-3.5 61.3-9 21.6-25.3 39.1-34.8 60.4-10.9 24.5-12.9 51.9 7.2 72.5 21 21.5 54.4 25.8 81.8 34.5 25.2 8 50.3 16.1 75.2 24.5 100 33.8 198.6 72.9 289.9 126.4 90 52.7 172.4 120.2 233.4 205.5 60.3 84.4 100.3 182.5 117.3 284.8 16.2 97.3 9.8 198.6-18.1 293.3-28.5 96.6-79.9 185.8-149.7 258.4-74.1 77.1-166 135.8-263.4 179-99.3 44-205.8 71.4-312.8 88.3-107 16.9-215.8 22.5-324 20.9-26.1-.5-52.1-1.3-77.9-2.6-28.1-1.3-28 42.3 0 43.7 111.1 5.3 222.7 3.3 333.3-9.1 113.7-12.8 226.6-35.8 334.1-75.4 106-39 205.9-93.6 291.9-167.2 82.8-70.9 147.2-160.3 188.4-261.2 39.5-96.6 55.8-202.9 48.8-307-7.3-108.1-39-214-92.3-308.3-55.3-97.8-134.3-178.6-226.4-242.3-90.7-62.7-192.4-108.2-295.5-146.2-51.1-18.9-103-37.3-155.5-52.1-13.5-3.8-28-6.5-40.4-13.5-4.5-2.5-8.2-5.7-9.6-8.5 1.2 2.5-.6-2-.8-3 .7 3.3.1-3.4.3-5.1-.4 3.2.7-2.3 1-3.2.6-2 1.9-5.8 2.2-6.5 1.5-3.6 5-9.8 7.6-14.3 5.9-9.9 12.8-19.2 18.6-29.2 28.6-49.3 32.6-116.3-16-154.9-53.8-42.7-130.2-23.6-175.6 21.9-10.5 10.6-21.4 23.2-29 36-7.4 12.4-11.2 26.5-17.4 39.4l39.9 16.8c20-70.7 11.3-180-70.9-207.5-19.8-6.6-40.3-3.6-60.1.9-17 3.9-33.8 11.1-48.2 21-30.5 21.1-51.8 53.1-60.1 89.3-10.1 43.7-1 89.3 21.2 127.7 10.4 18 42.1 11.1 40.7-11-3.8-58.6-36.2-119.1-88.6-147.9-52.5-28.9-118-18.8-164 18.2-10.8 8.6-20 19.2-27.5 30.8-3.3 5.2-6.2 10.6-8.6 16.3-3.1 7-3.5 15.2-5.1 22.7-6.5 31.5 7.7 60.8 26.4 85.5 8.8 11.6 18.2 22.4 27.8 33.2 2.3 2.6 4.7 5.9 5.4 7.8.7 1.9 0 4.6-2 8-11 18.2-38.4 27.8-57.4 34.7-103.5 37.1-206.5 78.6-304.6 128.6-82.9 42.3-162.5 93.1-229.6 158.1-70.4 68.2-123.8 151.2-157.4 243.2-39.5 108-48.9 224.4-32.6 338 16.1 111.7 58.4 221.2 122.5 314.2 56 81.2 129 148.7 212 201.7 84.1 53.6 177.6 92.3 273.2 119.8 99.2 28.6 201.6 45.4 304.4 54.4 25.2 2.2 50.4 3.9 75.7 5.1 11.8.6 21.8-10.4 21.8-21.8-.2-12.2-10.2-21.2-22-21.8z"/><path class="st3" d="M2116.9 1399.1c-17 79.1 49.5 159.3 125.6 174.9 9.2 1.9 18.9-2.7 21.5-12.2 2.4-8.6-2.9-19.6-12.2-21.5-56.4-11.5-114.3-70.9-101.2-131.9 4.7-21.9-29-31.3-33.7-9.3zM1944.9 1417.5c6.3 50.8-29.9 97.5-78.4 110.3-21.7 5.7-12.5 39.4 9.3 33.7 62-16.4 112.2-78.3 104.1-144-1.2-9.4-7.2-17.5-17.5-17.5-8.6.1-18.6 8.1-17.5 17.5zM2083 2151.6c5.2.9 10 2.2 14.7 4 4.6 1.8 9 4 13.2 6.6 8.3 5 15.8 11.2 22.7 18.2 0 0 11.5-28.3 12.3-31.4 3.6-14.7 10.3-44.4-2.3-56.6-3.7-3.6-9.2-4.8-14.5-5-12.9-.6-25.2 3.5-37.7 5.8-11.6 2.1-23.5 2.7-35.3 3.2-18.9.8-37.9.1-56.6-2.2-13.7-1.7-35.9-10.1-45.7 4.5-10.5 14-7 31.4-1.8 49.6.9 3 1.9 6 3 8.9 3.3 8.8 7.4 17.3 12.4 25.2 5-5.1 10.3-9.6 16-13.5 22.8-17.8 52.4-16.1 78.8-18.7 7 0 13.9.4 20.8 1.4z"/><path class="st4" d="M2083 2151c-41.4-8.3-85.8.7-115.6 31.4 9.8 15.5 22.7 28.8 38.6 37.7 45.8 25.7 102 5.5 127.1-39 .1-.2.3-.5.4-.7-13.8-14-29.8-24.9-50.5-29.4z"/><path class="st3" d="M1799 2056.3c-5.8-41.6-36.9-89.5-82.6-92.3-48.2-3-79 50.6-85.2 91.7-1.4 9.3 2.3 18.8 12.2 21.5 8.2 2.3 20.1-2.8 21.5-12.2 2.4-16.3 7.6-31.7 17-45.3 7.5-10.9 20.3-22.3 34.5-20.7 13 1.5 24.7 12.3 32 22.5 9.4 13.1 14.7 28.2 16.9 44.1 1.3 9.3 13.2 14.5 21.5 12.2 10.1-2.8 13.5-12.2 12.2-21.5zM2449.6 2056.3c-5.8-41.6-36.9-89.5-82.6-92.3-48.2-3-79 50.6-85.2 91.7-1.4 9.3 2.3 18.8 12.2 21.5 8.2 2.3 20.1-2.8 21.5-12.2 2.4-16.3 7.6-31.7 17-45.3 7.5-10.9 20.3-22.3 34.5-20.7 13 1.5 24.7 12.3 32 22.5 9.4 13.1 14.7 28.2 16.9 44.1 1.3 9.3 13.2 14.5 21.5 12.2 10-2.8 13.5-12.2 12.2-21.5z"/><path class="st4" d="M1830.5 2164.8c1.2 23.5-17.2 44.6-35.6 59.2-36.8 25.9-81.9 34-126.2 22.4-8.4-2.2-16.6-5.3-24.3-9.4-23.4-11.3-38.5-37.3-35.1-64.8 5.6-41.9 46-65.7 86.4-72.5 8.1-1.4 16.2-2 24-2 36.8 1.6 76.9 9.7 100.8 38.9 6.3 8.4 9.8 18 10 28.2zM2267.7 2164.8c-1.2 23.5 17.2 44.6 35.6 59.2 36.8 25.9 81.9 34 126.2 22.4 8.4-2.2 16.6-5.3 24.3-9.4 23.4-11.3 38.5-37.3 35.1-64.8-5.6-41.9-46-65.7-86.4-72.5-8.1-1.4-16.2-2-24-2-36.8 1.6-76.9 9.7-100.8 38.9-6.3 8.4-9.8 18-10 28.2z"/><path class="st3" d="M1952.1 2146.1c11.5 45.8 49.8 87.2 99.5 87.7 50.1.5 89.5-43.3 94.7-90.9.8-7-6.6-13.1-13.1-13.1-7.7 0-12.3 6-13.1 13.1-3.8 34.7-35.4 66.6-71.3 64.6-36.8-2-63-34.9-71.4-68.4-4.2-16.3-29.5-9.4-25.3 7z"/><g class="st5"><path class="st6" d="M1860.6 908.5c-9-11.1-12.6-23-12.3-34.8.1-5.9 1.2-11.9 3.1-17.7 4.7-14 13.4-26.3 23.6-38.3 2-2.4 4.2-4.8 6.3-7.2 8.9-13.6 37.2-30.6 20.2-46.3-16.2-15-42.9-15.7-60.3-28.5-2.6-2.1-4.9-4.3-6.9-6.6-17.8-20.6 11.3-38.3 21.1-56 1.6-2.7 2.4-6.1.8-7.5-8.1-10.9-24.3-14.3-31.8-24.9l-3.9-5.1c-.7-2.3-1.1-4.7-.8-7.2.2-2.5 1-5.1 2.5-7.8 2.7-5.2 6.3-10 10-14.6 1.9-2.3 3.8-4.6 5.6-7 8.6-7.7 11.1-17.9 13.5-28.1.4-2 .8-4.1 1.1-6.1 2.1-10.3 2.9-20.5 6.2-30.7 0 10.2 3.2 20.4 5.1 30.8.5 2.4.9 4.9 1.3 7.3 1.7 12 1 23.6-10.2 33.5-1.6 2-3.2 3.9-4.8 5.9-4.6 5.9-8.3 11.9-8.2 18.5.1 2.6.7 5.4 2.2 8.2 2.4 3.4 5.6 6.1 8.9 8.2 11.3 6.1 25.9 9.5 29.1 20.4 4 12.9-12.9 20.4-21 30-6.5 6.8-11.3 19.1.4 23.9 2.5 1.3 5.1 2.5 7.9 3.6 20 9.2 46.7 7.9 62.9 23.5 17 17 12.1 42.2-3.2 58.6-2.1 2.1-4.3 4.2-6.6 6.1-15.8 13.7-34.1 24-47.4 39.3-4.2 4.9-7.9 10.1-10.7 15.6-5.5 11-7.2 23.1-2.7 36.6.4 2.1 0 3.5-1 4.4z"/><path class="st6" d="M1863.5 905.6c-12.1-15.3-13.9-34.5-6.8-52.4 6.6-16.5 18.8-28.7 29.5-42.5 7.5-9.7 18.7-17.1 23.3-28.8 5.3-13.5-6.3-23.3-17.3-29-17.5-9-74.3-18.2-55.4-48.9 6.7-10.9 18.2-19.2 23.2-31.2 6-14.1-17.6-22.4-26.2-28.8-3.4-2.5-6.4-5.8-8.7-9.3-3.3-5.2.1-11.4 2.9-16 2.9-4.8 6.5-9.1 10-13.5 2.9-3.6 6.4-6.8 9-10.8 5-7.5 7.3-16.9 8.9-25.7 2-11.2 3.4-22.8 6.7-33.7-2.6-.4-5.3-.7-7.9-1.1.1 9.8 2.8 19.3 4.7 28.9 1.7 8.3 3.7 17.2 1.6 25.6-2.2 8.9-9.4 14.5-14.8 21.5-5.5 7.2-10 15.8-7.6 25.1 4.6 17.5 25.9 16.8 36.7 28 11.2 11.6-9 22.2-15.8 29.4-8.3 8.7-14.6 23.9-1.1 31.2 14.6 7.9 30.5 10.5 46.2 14.7 15.2 4.1 30.1 11.8 33.6 28.5 3.5 16.6-6.2 31.7-18.1 42.2-15.4 13.6-33.8 23.8-47.5 39.3-6.8 7.8-12.7 16.7-15.6 26.7-1.4 4.7-2.1 9.6-2 14.4 0 2.7.4 5.5.8 8.1.2 1.3 2.4 7.3 1.8 7.9-3.5 3.8 2.2 9.5 5.7 5.7 2.7-2.9 2.6-6.3 1.6-9.9-1.4-5.3-2.3-10.5-1.8-16 .8-9.5 5.1-18.2 10.7-25.8 11.3-15.4 27.9-25.7 42.8-37.3 13.4-10.4 25.8-22.3 29.3-39.6 3.1-15.3-1.9-31.1-14.4-40.9-12.8-10-29.3-12.2-44.6-16-8.2-2.1-16-4.9-23.5-8.7-2.8-1.4-5-2.7-5.1-6-.1-3.1 1.6-6.3 3.3-8.8 7.1-10.3 23-16 24.9-29.5 2.2-16.1-16-22.4-27.4-27.9-4.7-2.2-10.4-5.4-12.4-10.6-1.9-5.2-.2-10.3 2.6-14.8 5.4-8.9 14.4-15.1 18.2-25 7.5-19.6-4.5-40.6-4.8-60.5-.1-4.6-6.6-5.5-7.9-1.1-3.1 10-4.3 20.4-6.2 30.7-1.5 8.3-3.1 17.1-7.3 24.6-2.2 3.9-5.4 6.7-8.1 10.1-3 3.7-6.1 7.5-8.9 11.4-5.4 7.4-10.3 15.9-7.9 25.4.9 3.7 4.2 7.1 6.6 9.9 2.4 2.8 5.4 5.1 8.5 7.2 6 4 12.9 7.1 18.3 12 .7.7 3.6 3 3.7 4 0 .2-1.7 3-2.1 3.8-1.7 3-3.9 5.7-6 8.3-4.3 5.2-9 10.2-12.9 15.8-7.9 11-10.6 23.5-1.5 34.8 10.2 12.6 25.8 17.3 40.6 22.3 7.3 2.5 14.7 5.1 21.3 9.2 4.7 2.9 11 7.4 10.1 13.8-.8 5.9-5.8 11-9.7 15.1-4.3 4.6-9 9-12.9 14-12.3 15.6-25.9 29.7-32.4 48.9-6.8 20.1-3 40.6 10.1 57.1 2.9 4.3 8.6-1.5 5.4-5.5z"/></g><g class="st5"><path class="st6" d="M2053.2 996.6c-2-33.9 15-64.6 26.3-96.2 9.2-25.3-7.6-40.3-26-54.1-4.6-3.5-9.3-6.9-13.7-10.4-4.4-3.5-8.6-7.1-12-10.8-5.7-8-5.7-16.9-2.5-25.8 11.3-26.7 52.6-45.3 35.6-77.7-2.8-5.7-6.2-11-9.9-16.1-3.7-5.1-7.7-10-11.8-14.7-4.5-4.6-9-9.5-13.2-14.7-3.5-3.4-6.4-7-8.7-10.7-2.3-3.7-3.9-7.5-5.1-11.3-4.3-14.9-.3-30.3 5.4-44 7.3-14.6 21.8-25.1 25.1-41.3.9-4.7 1.7-9.4 2.3-14.1 2.6-19 3.4-38.4 8.2-57.1 3.2 17 3.2 34.8 3.8 51.5.2 4.9.4 9.9.5 14.9.5 24.9-1.1 49.4-14.5 71.1-1.8 3.6-2.2 7.4-1.5 11.1 2 11.3 13.2 22.6 21.8 31.6 5.2 5.3 10.6 10.5 15.9 15.5 5.3 5 10.3 9.9 14.8 14.6 6.5 6.5 12.5 14.6 14.9 23 2.3 8.4.9 17.1-7.6 24.8-19.4 18.6-68 41.3-40.4 71.2 4.6 4 10.4 7.7 16.4 11.3 17.9 10.9 37.4 21.7 31.3 42.9-11.3 38.8-39.6 68.8-50.8 107.6-1.2 3.8-2.7 6.4-4.6 7.9z"/><path class="st6" d="M2057.3 996.6c-1.1-21.1 5.1-41.2 12.6-60.6 3.8-9.8 7.8-19.4 11.5-29.2 3.1-8.1 5.5-16.2 4.3-24.9-2.2-16.2-15.2-27.6-27.4-37-8.5-6.6-17.6-12.6-25.3-20.1-7.3-7.2-7.3-17.9-2.8-26.7 11.7-22.4 43.8-39.1 37.9-68.1-1.8-8.8-7.1-16.9-12.1-24.2-6.1-8.8-13.1-16.6-20.3-24.5-6.8-7.5-14.6-15-18.4-24.5-4.1-10.3-3.5-21.4-.7-32 1.5-5.4 3.2-11.1 6-15.9 2.5-4.4 5.7-8.3 8.8-12.3 5.9-7.5 11.9-15.1 14.5-24.5 3.1-11.5 3.8-23.9 5.1-35.6 1.4-12.7 2.8-25.4 6-37.9h-7.8c2.3 12.2 2.9 24.6 3.3 36.9.4 11.3.9 22.6 1 33.9.1 21.9-2.6 42.8-13.3 62.2-10.8 19.7 10.5 39.4 23.3 52.1 8.1 8.1 16.6 15.7 24.6 23.8 7.3 7.4 15.3 15.8 17.3 26.4 1.7 9.4-3.9 16.1-10.6 21.8-5.4 4.6-11.1 8.7-16.7 13-10.9 8.4-23.6 18-28.2 31.6-2.1 6.1-1.7 12.6.9 18.4 3.7 8.5 10.6 13.9 18.2 18.7 7.9 5.1 16.3 9.5 23.7 15.1 6.3 4.8 12.5 11.1 13 19.4.3 5.3-1.7 10.5-3.4 15.4-2 5.5-4.3 10.9-6.8 16.1-5 10.3-10.7 20.2-16.4 30.2-5.6 9.7-11.2 19.5-15.9 29.7-2.4 5.1-4.6 10.3-6.5 15.6-1.7 4.7-2.4 11-6.3 14.5-3.8 3.6 1.9 9.3 5.7 5.7 3.2-3 4.8-7.1 6.1-11.1 1.6-5.2 3.4-10.3 5.5-15.3 4.1-9.7 9.2-19 14.4-28.2 10.2-17.9 21-35.6 28-55.1 2.9-8.2 5.3-16.8 2.2-25.3-2.9-7.8-8.9-13.7-15.4-18.6-7.9-5.9-16.7-10.5-24.9-15.9-6.8-4.5-13.8-10.2-15-18.8-1.9-13.2 11.8-24.2 20.8-31.5 6-4.8 12.2-9.3 18.2-14.1 6.3-4.9 12.9-10.2 16-17.7 8.6-20.5-11-39.2-24.3-52-8.1-7.8-16.4-15.4-24.1-23.6-6.9-7.3-15.7-15.8-17.9-25.9-1.5-7 2.8-11.9 5.6-17.9 2.5-5.3 4.5-10.9 6-16.5 3.2-11.9 4.2-24.3 4.4-36.6.2-12.7-.5-25.4-.9-38-.4-13.6-1.1-27.2-3.6-40.6-.7-4-6.9-3.7-7.8 0-5.6 21.8-5.9 44.4-9.6 66.5-1.6 9.5-5.3 16.9-11.1 24.5-5.2 6.9-11.3 13.5-14.8 21.5-8.1 18.6-11 40.5.1 58.5 2.6 4.3 5.9 7.8 9.3 11.5 3.8 4.2 7.2 8.5 11.1 12.6 7.4 7.7 14.1 16.5 19.6 25.7 4 6.7 7.6 13.8 6.9 21.8-.6 6.3-3.7 12-7.2 17-7.9 11.3-18.6 20.3-26.4 31.7-4.6 6.6-7.8 14-8.1 22.1-.3 10.7 5.4 18.4 13.2 25 13.6 11.7 31.9 20.8 41.4 36.6 4.7 7.8 5.4 16.6 2.8 25.3-3.4 11.3-8.5 22.1-12.8 33.1-8.4 21.3-15.7 43.5-14.5 66.7.2 5.3 8.3 5.3 8 .1z"/></g><g class="st5"><path class="st6" d="M2250.3 902.9c-2-27.4-25.4-46-47-58.2-2.1-1.5-4.1-3.1-6-4.8-17.4-17-14-33.2-3-47.5 2.2-2.9 4.8-5.7 7.6-8.4 11.1-10.8 24.7-17.1 36.9-25.4 2.4-1.7 4.8-3.5 7-5.5 17.9-22.4-2.4-47.5-18.4-64.1-2.3-3.8-3.9-7.9-4.7-12.3-1.9-18.8 3-37.4 12.7-53.6-2.4 18.6.8 38 10.5 53.2 2 3.1 4 6.1 6.1 9.1 8.4 11.9 17.6 23.4 24.6 36.4 11.3 21.8.8 46.9-23.8 53.8-3.4 1.5-6.9 2.9-10.3 4.4-10.3 4.4-20.3 9.1-28.6 17.2-2.3 2.6-4.3 5.4-5.7 8.6-1.4 3.2-2.4 6.7-2.8 10.7-.4 4 .8 7.9 3 11.2 22.9 15.5 59.3 34.9 43.1 68.4-.3 2.3-.8 4.6-1.2 6.8z"/><path class="st6" d="M2254.3 902.9c-1.8-21.5-15.3-38.2-32.1-50.8-8.7-6.5-19-10.9-26.1-19.5-6.8-8.4-8.8-18.6-4.3-28.6 10.5-22.9 35.5-31 53.9-45.7 8.6-6.9 12.1-18.6 10.7-29.2-1.5-10.7-7.2-20.3-13.7-28.7-3.7-4.9-8.5-9.1-12.1-14-4.2-5.8-4.5-13.4-4.3-20.2.4-14.6 5.1-28.5 12.5-41-2.5-.7-5-1.4-7.5-2-1.6 12.9-.7 26.3 3.4 38.7 4.3 13.1 12.7 24.1 20.7 35.1 4.2 5.7 8.3 11.5 12.1 17.4 3.3 5.2 6.7 10.5 8.4 16.5 2.6 9.3 1 19.4-4.5 27.3-6.8 9.8-18 12.8-28.5 17.2-11.5 4.9-24.3 10.2-32.7 19.9-7.4 8.6-13.1 24.3-5.3 34.4 2.5 3.3 7.5 5.5 10.9 7.7 4.1 2.7 8.1 5.4 12.1 8.3 8.2 6.1 16.7 13.4 21.1 22.9 2.1 4.5 2.9 9.6 2.3 14.5-.3 2.8-1.1 5.5-2.1 8.1-1.4 3.6-2.1 6.9-2.9 10.7-1.1 5.1 6.7 7.3 7.8 2.2 2.2-10.7 7-20.1 4.7-31.2-1.8-8.9-7.4-16.7-13.7-23-7-7-15.3-12.7-23.5-18.2-3.2-2.1-8.7-4.5-10.7-7.6-3.7-5.6-.6-14.4 2.6-19.5 6.9-11.3 21.3-16.9 33-21.8 10.6-4.5 21.4-7.6 29.1-16.7 6.3-7.5 9.8-17.1 9.6-27-.3-12-6.2-22-12.7-31.7-8.8-13.2-20-25.5-27-39.9-6.6-13.7-8-29.3-6.1-44.2.5-4.2-5.7-5.2-7.5-2-6.4 10.8-10.9 22.6-12.7 35-1.7 11.4-2.2 25.1 4.7 35 3.2 4.6 7.7 8.3 11.2 12.7 3.6 4.5 6.8 9.3 9.4 14.4 4.9 9.9 6.3 22-1 31.2-3.9 4.9-10.6 8.3-15.9 11.6-5.2 3.2-10.5 6.3-15.5 9.7-9.7 6.6-18.8 14.8-24.9 24.9-5 8.3-7.5 17.9-5.1 27.5 2.8 10.9 11.4 20.7 21 26.3 20.1 11.6 41 28.8 43 53.6.6 4.8 8.7 4.9 8.2-.3z"/></g></svg>