<svg version="1.1" id="svg2" xmlns="http://www.w3.org/2000/svg" x="0" y="0" viewBox="0 0 4096 4096" style="enable-background:new 0 0 4096 4096" xml:space="preserve"><style>.st1{fill:#ffadc8}.st2{fill:#fff}.st3{fill:#939598}.st4{fill:#666a70}.st6{fill:#000072}.st7{fill:#020202}.st9{opacity:.22;fill:#666a70}</style><path style="fill-rule:evenodd;clip-rule:evenodd;fill:#e4deff" d="M0 0h4096v4096H0z"/><path class="st1" d="M3033.7 1791v.3c-3.1 11.5-57 40.9-162.7 40.9-12 0-23.7-.4-35.3-1.2-5.5-26.2-13-51.9-22.3-77.1 18.4-2.3 37.9-3.4 57.6-3.4 105.5-.1 159.6 29.5 162.7 40.5z"/><path class="st2" d="M3029.5 1728.3c-41.5-18.8-101.2-27.7-158.5-27.7-26.7 0-53.2 1.9-77.7 5.7-30.8-64.8-74.3-125.3-129-179.2 76.2-20.2 146-18.9 208 3.7 111.5 40.7 146.5 134.6 157.2 197.5z"/><path class="st3" d="M2600.6 1108.5c86.2 179.6 12.9 280.1-48.4 328.2-54-35.8-112.9-65.2-176.1-88 87.9-60.2 147.5-160 183.7-239.2 5.6-12.2 17.2-13.3 20.6-13.3 4.1-.2 14.7 1 20.2 12.3zM1740.8 1348.7c-63.2 22.8-122.2 52.3-176.1 88-61.3-48.1-134.6-148.6-48.4-328.2 5.5-11.3 15.9-12.6 20.2-12.4 3.4 0 15 1.1 20.6 13.3 36.2 79.3 95.8 179.1 183.7 239.3z"/><path class="st2" d="M1541.7 1106.8c37.2 81.2 97.6 182.8 186 246.8 4.4-1.7 8.7-3.4 13.1-5-87.9-60.2-147.5-160-183.7-239.2-5.6-12.2-17.2-13.3-20.6-13.3-1 0-2.4 0-3.9.2 3.4 2.2 6.7 5.4 9.1 10.5z"/><path class="st4" d="M1536.3 1102.6c.5-2.4 1.2-4.5 2.1-6.4-.8-.1-1.5-.1-2-.1-4.3-.2-14.7 1.1-20.2 12.4-86.2 179.6-12.9 280.1 48.4 328.2 16.9-11.2 34.4-21.7 52.2-31.7-60.6-50.5-110.7-141-80.5-302.4z"/><path class="st2" d="M2575.2 1106.8c-37.2 81.2-97.6 182.8-186 246.8-4.4-1.7-8.7-3.4-13.1-5 87.9-60.2 147.5-160 183.7-239.2 5.6-12.2 17.2-13.3 20.6-13.3 1 0 2.4 0 3.9.2-3.4 2.2-6.8 5.4-9.1 10.5z"/><path class="st4" d="M2580.6 1102.6c-.5-2.4-1.2-4.5-2.1-6.4.8-.1 1.5-.1 2-.1 4.3-.2 14.7 1.1 20.2 12.4 86.2 179.6 12.9 280.1-48.4 328.2-16.9-11.2-34.4-21.7-52.2-31.7 60.6-50.5 110.6-141 80.5-302.4z"/><path class="st1" d="M1303.4 1753.9c-9.3 25.2-16.8 51-22.3 77.1-11.5.9-23.3 1.2-35.3 1.2-105.8 0-159.7-29.5-162.7-40.6v-.2c3.1-11.4 57.1-41 162.7-41 19.7 0 39.2 1.2 57.6 3.5z"/><path class="st2" d="M1452.5 1527.1c-54.8 53.8-98.2 114.4-129 179.2l-2.1-.3c-23.9-3.6-49.7-5.4-75.6-5.4-57.3 0-116.9 8.9-158.4 27.7 9-53.1 35.3-128.1 110.3-174.7 13.9-8.7 29.4-16.3 46.8-22.7 62-22.7 131.8-24 208-3.8zM2538.8 1487.8c20.8 14.5 40.5 29.8 59 45.8.8.7 1.6 1.5 2.4 2.1 69.1 60.3 121.7 131 155.2 207.6 16.3 37.3 28 75.8 34.9 115.3 4.9 27.9 7.4 56.2 7.4 84.8 0 14.3-.6 28.7-1.9 42.9l-4-4c-3.4-3.4-6.8-6.7-10.2-9.8-2.7-2.6-5.4-5.2-8.2-7.7-9.3-8.6-18.9-17-28.8-25.2-3.2-2.7-6.4-5.4-9.7-7.9-7-5.7-14.2-11.3-21.6-16.8-2.7-2.1-5.5-4.1-8.2-6.1-3.4-2.6-6.8-5-10.2-7.4-6.9-4.9-13.8-9.7-20.9-14.4-3.6-2.4-7.1-4.7-10.7-7l-10.8-6.9c-5.9-3.7-11.8-7.4-17.9-10.9-1.9-1.2-3.9-2.3-5.8-3.4-3.4-2.1-6.9-4-10.4-6-10.5-6-21.2-11.8-32-17.4-13-6.7-26.1-13.1-39.5-19.3-2.7-1.2-5.5-2.5-8.2-3.7-8.6-3.9-17.3-7.7-26.2-11.3-3.5-1.5-7-2.9-10.5-4.4-4.7-1.9-9.3-3.7-14-5.5-2.9-1.2-5.8-2.2-8.7-3.4-19-7.2-38.4-13.9-58.2-20.1-3.4-1.1-6.9-2.2-10.3-3.2-4.4-1.4-8.8-2.7-13.2-3.9-4.4-1.3-8.8-2.6-13.3-3.8-4.3-1.2-8.6-2.4-13-3.5-2.7-.7-5.4-1.4-8.2-2.1-3.6-.9-7.2-1.9-10.9-2.7l-8.4-2.1c-4.1-1-8.2-1.9-12.3-2.9-31.8-7.2-64.3-13.2-97.4-17.9-2.8-.4-5.6-.8-8.5-1.2-2.4-.3-4.9-.6-7.3-.9-4.7-.6-9.5-1.2-14.3-1.7-13-1.5-26.1-2.8-39.2-3.9-3.7-.3-7.3-.6-11-.9-2.7-.2-5.4-.4-8-.6-3.7-.2-7.5-.5-11.3-.7-8-.5-16.1-.9-24.2-1.2-3.6-.1-7.3-.2-10.9-.4-8.8-.3-17.6-.5-26.4-.6-4.9-.1-9.8-.1-14.8-.1s-9.9 0-14.8.1c-8.8.1-17.6.3-26.4.6-3.6.1-7.3.2-10.9.4-8.1.3-16.2.7-24.2 1.2-3.7.2-7.5.4-11.3.7-2.7.2-5.4.4-8 .6-3.7.2-7.3.6-11 .9-13.1 1.1-26.3 2.4-39.2 3.9-4.8.6-9.5 1.1-14.3 1.7-2.4.3-4.9.6-7.3.9-2.9.4-5.7.8-8.5 1.2-33.1 4.7-65.5 10.7-97.4 17.9-4.1.9-8.2 1.9-12.3 2.9l-8.4 2.1c-3.7.9-7.3 1.8-10.9 2.7-2.7.7-5.5 1.4-8.2 2.1-4.4 1.1-8.7 2.3-13 3.5-4.5 1.2-8.9 2.5-13.3 3.8-4.4 1.2-8.8 2.6-13.2 3.9-3.4 1-6.9 2.1-10.3 3.2-19.7 6.2-39.2 12.9-58.2 20.1-2.9 1.1-5.9 2.2-8.7 3.4-4.7 1.8-9.3 3.7-14 5.5-3.5 1.4-7 2.9-10.5 4.4-8.8 3.7-17.6 7.4-26.2 11.3-2.7 1.2-5.5 2.5-8.2 3.7-13.4 6.2-26.5 12.6-39.5 19.3-10.8 5.6-21.5 11.4-32 17.4-3.5 2-7 4-10.4 6-1.9 1.1-3.9 2.2-5.8 3.4-6 3.6-12 7.2-17.9 10.9-3.6 2.2-7.2 4.5-10.8 6.9-3.6 2.3-7.1 4.6-10.7 7-7.1 4.7-14.1 9.5-20.9 14.4-3.4 2.4-6.9 4.9-10.2 7.4-2.7 2-5.5 4-8.2 6.1-7.4 5.5-14.5 11.1-21.6 16.8-3.2 2.6-6.5 5.2-9.7 7.9-9.8 8.2-19.4 16.6-28.8 25.2-2.7 2.5-5.5 5-8.2 7.7-3.4 3.2-6.9 6.5-10.2 9.8-1.4 1.3-2.7 2.6-4 4-1.2-14.2-1.9-28.6-1.9-42.9 0-28.6 2.5-56.9 7.4-84.8 6.9-38.8 18.3-76.7 34.1-113.4 33.5-77.4 86.3-148.8 156-209.6.9-.6 1.6-1.4 2.4-2.1 18.5-16 38.2-31.3 59-45.8.1 0 .2-.1.2-.1 68.5-47.6 146.2-84.3 230.9-108.8.2-.1.5-.2.7-.2 79.6-23.1 163.2-34.8 248.6-34.8 85.3 0 168.9 11.7 248.6 34.8.2.1.5.1.7.2 84.7 24.5 162.3 61.2 230.9 108.8.5.1.6.2.6.2zm-166.4 157.1c0-36.8-29.7-66.5-66.5-66.5-36.7 0-66.5 29.7-66.5 66.5 0 36.7 29.8 66.5 66.5 66.5 36.8 0 66.5-29.8 66.5-66.5zm-495.1 0c0-36.8-29.8-66.5-66.5-66.5-36.8 0-66.5 29.7-66.5 66.5 0 36.7 29.7 66.5 66.5 66.5 36.7 0 66.5-29.8 66.5-66.5z"/><path class="st1" d="M2058.4 1763.2c301.8 0 577 110.2 736 294.8 83.8 97.1 128.1 209.1 128.1 323.6 0 54.8-10.2 108.5-29.5 159.9-66.7 177.7-242.5 328.4-484.9 405.5-.4.1-.7.2-1.1.3l-1.4.5c-2.7.9-5.4 1.7-8.1 2.5-.7.2-1.4.4-2 .7-74.3 22.6-152.4 37.5-232.2 44.4-34.7 3-69.9 4.5-104.8 4.5-21.7 0-44.4-.6-67.3-1.8-93.3-5.2-184-21.1-269.6-47.1-.6-.2-1.3-.4-2-.7-3.2-.9-6.4-1.9-9.8-3.1-242.8-76.9-419.1-227.8-485.8-405.7-19.4-51.5-29.5-105.1-29.5-159.9 0-114.4 44.2-226.1 127.6-323.2.2-.1.3-.2.4-.4 10-11.5 20.3-22.8 31.1-33.8 5.4-5.4 10.9-10.8 16.6-16.2 2.8-2.6 5.6-5.3 8.5-7.9 5.7-5.2 11.6-10.4 17.5-15.5 23.7-20.4 49.1-39.5 75.9-57.3 3.4-2.2 6.7-4.4 10.2-6.6 10.2-6.5 20.6-12.9 31.1-19.1 7-4.1 14.1-8.2 21.4-12.1 14.5-7.9 29.2-15.4 44.3-22.7 139.2-66.8 304.8-103.6 479.3-103.6zm592.1 586.3c32.3-22.5 30.9-80.2-3.1-128.8-33.9-48.7-87.6-69.9-119.9-47.4-32.3 22.5-30.9 80.2 3.1 128.8 34 48.8 87.7 69.9 119.9 47.4zm-1064.4-47.4c34-48.7 35.3-106.3 3.1-128.8-32.3-22.5-86-1.2-119.9 47.4-34 48.7-35.3 106.3-3.1 128.8 32.4 22.5 86.1 1.4 119.9-47.4z"/><path d="M2794.4 2057.9c-33.3-38.6-71.7-74-114.3-105.7 62.9 87.1 96 184.1 96 283 0 54.8-10.2 108.5-29.5 159.9-66.7 177.7-242.5 328.4-484.9 405.5-.4.1-.7.2-1.1.3l-1.4.5c-2.7.9-5.4 1.7-8.1 2.5-.7.2-1.4.4-2 .7-74.3 22.6-152.4 37.5-232.2 44.4-34.7 3-69.9 4.5-104.8 4.5-21.7 0-44.4-.6-67.3-1.8-93.3-5.2-184-21.1-269.6-47.1-.6-.2-1.3-.4-2-.7-3.2-.9-6.4-1.9-9.8-3.1-104.5-33.1-196.6-79.9-273-136.7 88.8 123.4 234.8 224.6 419.4 283.1 3.4 1.1 6.6 2.2 9.8 3.1.7.2 1.4.4 2 .7 85.7 26 176.3 41.9 269.6 47.1 22.9 1.2 45.6 1.8 67.3 1.8 34.9 0 70.1-1.6 104.8-4.5 79.8-6.9 157.9-21.7 232.2-44.4.6-.2 1.3-.4 2-.7 2.7-.7 5.4-1.6 8.1-2.5l1.4-.5c.4-.1.7-.2 1.1-.3 242.4-77.1 418.2-227.8 484.9-405.5 19.4-51.4 29.5-105.1 29.5-159.9 0-114.6-44.3-226.5-128.1-323.7z" style="fill:#c07290"/><path class="st6" d="M2889.4 1484c197.7 72.1 194.9 286.4 194.1 307.3 0-27.5-21.4-48.3-54-63-10.7-62.9-45.7-156.7-157.2-197.4-62-22.7-131.8-23.9-208-3.7-13.7-13.5-28.2-26.6-43.2-39.2 96.8-31.4 189.3-32.8 268.3-4z"/><path class="st6" d="M3083.5 1791.3c0 1-.1 1.5-.1 1.6-.8 13.2-11.8 23.3-24.8 23.3-.6 0-1.1 0-1.7-.1-13.1-.8-23.3-11.8-23.3-24.9.1-.1.1-.1.1-.2s0-.1-.1-.1c0-.4 0-.9.1-1.3.2-2.7 1.4-27.6-4.2-61.4 32.6 14.8 54 35.6 54 63.1z"/><path class="st6" d="M3058.6 1816.2c13 0 24-10.1 24.8-23.3-1.9 61.2-111 89.1-212.4 89.1-9 0-18.1-.2-26.9-.7-2-16.9-4.7-33.8-8.3-50.4 11.5.9 23.3 1.2 35.3 1.2 105.7 0 159.5-29.5 162.7-40.9 0 13 10.2 24 23.3 24.9.4.1 1 .1 1.5.1zM3029.5 1728.3c5.7 33.8 4.4 58.7 4.2 61.4-.1.4-.1.9-.1 1.3-3.1-11-57.1-40.6-162.7-40.6-19.7 0-39.2 1.1-57.6 3.4-6-16.1-12.6-32-20.1-47.6 24.5-3.7 51-5.7 77.7-5.7 57.4.1 117.1 9 158.6 27.8z"/><path class="st7" d="m3033.7 1791 .1.1c0 .1 0 .1-.1.2v-.3z"/><path class="st6" d="M2892.9 2541.5c19.4-51.4 29.5-105.1 29.5-159.9 0-114.6-44.3-226.5-128.1-323.6 4.8 5.5 11.7 8.6 18.9 8.6 2.1 0 4.3-.2 6.4-.8 9.2-2.4 16.2-9.9 18.1-19.3.7-3.9 1.5-7.8 2.2-11.8 86.7 104.2 132.4 223.9 132.4 347 0 54.8-9.1 108.4-26.5 160-5-4.2-10.2-8.2-15.5-11.8-11.4-7.7-26.9-4.7-34.6 6.8-1.1 1.6-1.9 3.2-2.6 5l-.2-.2z"/><path class="st6" d="M1214.4 2571.1c9.8-6.6 13.5-19 9.4-29.6l.1-.1c66.7 177.9 243 328.8 485.8 405.7 3.4 1.1 6.6 2.2 9.8 3.1.7.2 1.4.4 2 .7 85.7 26 176.3 41.9 269.6 47.1 22.9 1.2 45.6 1.8 67.3 1.8 34.9 0 70.1-1.6 104.8-4.5 79.8-6.9 157.9-21.7 232.2-44.4.6-.2 1.3-.4 2-.7 2.7-.7 5.4-1.6 8.1-2.5l1.4-.5c.4-.1.7-.2 1.1-.3 242.4-77.1 418.2-227.8 484.9-405.5l.1.1c-4 10.6-.4 23 9.4 29.6 7.7 5.2 14.8 11.4 21.1 18.4.7.9 1.5 1.7 2.2 2.6-80.4 177.5-260.8 325.6-503.6 402.6-.2.1-.5.1-.7.2l-.6.2c-2.6.9-5.3 1.7-7.9 2.5-.5.2-1 .4-1.5.5-78.1 23.9-160.2 39.6-244.1 46.8-36.1 3.1-72.8 4.7-109.1 4.7-22.6 0-46.2-.6-70-1.9-98-5.5-193.2-22.2-283.1-49.7-.5-.1-1-.3-1.5-.5-3.1-.9-6.2-1.9-9.3-2.9-242.6-76.9-423-225-503.4-402.5.7-.9 1.4-1.7 2.2-2.6 6.4-7 13.6-13.2 21.3-18.4zM2835.7 1831c3.6 16.6 6.4 33.5 8.3 50.4-10.8-.5-21.6-1.3-32-2.5-11.2-1.2-19.7-9.7-21.7-20.2-.5-2.4-.6-4.8-.3-7.4 1.6-13.6 13.9-23.5 27.6-21.9 6.1.7 12 1.2 18.1 1.6z"/><path class="st6" d="M2832.1 2025.4c-12.7-14.8-26.2-29.1-40.2-43 1.4 1.3 2.7 2.6 4 4 1.2-14.2 1.9-28.6 1.9-42.9 0-28.6-2.5-56.9-7.4-84.8h.1c1.9 10.5 10.5 19 21.7 20.2 10.4 1.2 21.1 2 32 2.5 2.4 20.5 3.6 41.2 3.6 62 0 30.7-2.6 61.3-7.7 91.1-2.7-3-5.4-6.1-8-9.1zM2793.3 1706.3c7.5 15.6 14.1 31.5 20.1 47.6-10.3 1.2-20.4 2.7-29.8 4.7-12 2.4-23.7-4.2-28.1-15.3-.5-1.4-.9-2.8-1.2-4.3-2.7-13.5 6-26.6 19.6-29.3 6.3-1.3 12.8-2.4 19.4-3.4z"/><path class="st6" d="M2790.4 1858.7c-6.9-39.5-18.7-78.1-34.9-115.3l.1-.1c4.4 11 16.1 17.6 28.1 15.3 9.5-1.9 19.5-3.5 29.8-4.7 9.3 25.2 16.8 51 22.3 77.1-6.1-.4-12.1-.9-18-1.6-13.7-1.6-26 8.3-27.6 21.9-.3 2.6-.2 5 .2 7.4z"/><path class="st7" d="M2781.7 1972.5c-2.7-2.6-5.4-5.1-8.2-7.7 2.8 2.6 5.5 5.1 8.2 7.7z"/><path class="st6" d="M2755.4 1743.3c-33.5-76.6-86.1-147.3-155.2-207.6 6.5 5 15.3 6.8 23.6 3.9 13.6-4.8 27.2-9 40.4-12.5 54.8 53.8 98.2 114.4 129 179.2-6.7 1-13.1 2.1-19.5 3.4-13.5 2.7-22.2 15.8-19.6 29.3.5 1.5.9 2.9 1.3 4.3z"/><path class="st7" d="M2744.7 1939.7c-3.2-2.7-6.4-5.3-9.7-7.9 3.3 2.5 6.6 5.2 9.7 7.9zM2713.5 1915c-2.7-2.1-5.5-4.1-8.2-6.1 2.7 2 5.5 4 8.2 6.1zM2705.3 1908.9c-3.4-2.5-6.8-5-10.2-7.4 3.4 2.4 6.8 4.8 10.2 7.4zM2674.1 1887.1c-3.5-2.4-7-4.7-10.7-7 3.6 2.2 7.2 4.5 10.7 7zM2663.5 1880l-10.8-6.9 10.8 6.9z"/><path class="st6" d="M2647.5 2220.7c34 48.7 35.3 106.3 3.1 128.8-32.3 22.5-86 1.3-119.9-47.4-34-48.7-35.3-106.3-3.1-128.8 32.3-22.5 86-1.2 119.9 47.4zM2645.4 1086.9c97.9 203.8 13 323.9-51.2 379.6-8.8-6.7-17.9-13.3-27.2-19.7-4.9-3.4-9.9-6.8-14.9-10 61.3-48.1 134.6-148.6 48.4-328.2-5.5-11.3-16.1-12.5-20.2-12.4-3.4 0-15 1.1-20.6 13.3-36.3 79.2-95.8 179-183.7 239.2-17.9-6.5-36.2-12.5-54.8-17.8-3-.9-6-1.7-9-2.6 98-47.4 163.8-155.8 202.2-239.6 11.8-25.9 36.9-42.1 65.5-42.4 28.5-.2 53.4 15.3 65.5 40.6z"/><path class="st7" d="M2652.7 1873.2c-5.9-3.7-11.8-7.4-17.9-10.9 6.1 3.5 12.1 7.1 17.9 10.9zM2634.8 1862.3c-1.9-1.2-3.9-2.3-5.8-3.4 2 1.1 3.9 2.2 5.8 3.4z"/><path class="st6" d="M2664.3 1527.1c-13.3 3.5-26.8 7.7-40.4 12.5-8.3 2.9-17.1 1.2-23.6-3.9l-2.4-2.1c-2.5-2.6-4.5-5.7-5.7-9.2-4.5-13 2.2-27.2 15.3-31.8 4.6-1.6 9.2-3.2 13.7-4.6 14.9 12.5 29.4 25.6 43.1 39.1z"/><path class="st7" d="m2597.8 1533.6 2.4 2.1c-.8-.6-1.6-1.4-2.4-2.1zM2586.6 1835.4c10.8 5.6 21.5 11.4 32 17.4-10.5-5.9-21.1-11.7-32-17.4z"/><path class="st6" d="M2567.1 1446.7c9.3 6.4 18.3 13 27.2 19.7-9.8 8.5-19.2 15.6-27.3 21.2-4.3 3-9.2 4.4-14.1 4.4s-9.8-1.4-14-4.3c-2.5-1.7-4.7-3.9-6.5-6.5-7.8-11.3-5-26.9 6.4-34.6 4.4-3.1 8.9-6.4 13.5-10 4.9 3.4 9.8 6.7 14.8 10.1z"/><path class="st6" d="M2552.9 1492.1c4.9 0 9.8-1.4 14.1-4.4 8.1-5.6 17.4-12.6 27.3-21.2 9.2 7 18.1 14.1 26.9 21.4-4.5 1.4-9.1 3-13.7 4.6-13 4.6-19.8 18.8-15.3 31.8 1.2 3.6 3.2 6.7 5.7 9.2-18.5-16-38.2-31.3-59-45.8 4.1 3 9 4.4 14 4.4z"/><path class="st7" d="M2547.1 1816.1c-2.7-1.2-5.5-2.5-8.2-3.7 2.7 1.2 5.5 2.5 8.2 3.7zM2512.7 1801c-3.5-1.5-7-2.9-10.5-4.4 3.5 1.5 7.1 2.9 10.5 4.4zM2488.2 1791.1c-2.9-1.2-5.8-2.2-8.7-3.4 2.9 1.2 5.8 2.2 8.7 3.4zM2421.3 1767.6c-3.4-1.1-6.9-2.1-10.3-3.2 3.4 1.1 6.9 2.2 10.3 3.2zM2411 1764.5zM2397.8 1760.5c-4.4-1.3-8.8-2.6-13.3-3.8 4.5 1.3 8.9 2.5 13.3 3.8zM2384.5 1756.7c-4.3-1.2-8.6-2.4-13-3.5 4.4 1.2 8.7 2.4 13 3.5zM2363.4 1751.1c-3.6-.9-7.2-1.9-10.9-2.7 3.6.9 7.2 1.8 10.9 2.7z"/><path class="st6" d="M2336.4 1629.8c7.2 0 13.1-5.9 13.1-13 0-7.2-5.9-13.1-13.1-13.1-7.2 0-13 5.9-13 13.1 0 7.2 5.9 13 13 13zm-30.4-51.4c36.8 0 66.5 29.7 66.5 66.5 0 36.7-29.7 66.5-66.5 66.5-36.7 0-66.5-29.8-66.5-66.5s29.8-66.5 66.5-66.5z"/><path class="st2" d="M2349.5 1616.8c0 7.2-5.9 13-13.1 13-7.2 0-13-5.9-13-13 0-7.2 5.9-13.1 13-13.1 7.3 0 13.1 5.9 13.1 13.1z"/><path class="st6" d="M2376.1 1348.7c-16.3 11.1-33.5 20.9-51.6 28.9-5.5 2.4-11.3 2.7-16.7 1.2-.2-.1-.5-.2-.7-.2-6.7-2.1-12.4-6.9-15.4-13.8-5.5-12.6.2-27.3 12.8-32.8 2.7-1.2 5.4-2.4 8-3.7 3 .8 6 1.7 9 2.6 18.4 5.3 36.6 11.3 54.6 17.8z"/><path class="st7" d="M2344 1746.3c-4-1-8.2-1.9-12.3-2.9 4.1 1 8.2 1.9 12.3 2.9z"/><path class="st6" d="M2538.6 1487.7c-68.5-47.6-146.2-84.3-230.9-108.8 5.4 1.4 11.2 1.2 16.7-1.2 18.2-8 35.4-17.8 51.6-28.9 63.2 22.8 122.1 52.3 176.1 88-4.6 3.6-9.1 6.9-13.5 10-11.3 7.8-14.1 23.3-6.4 34.6 1.8 2.6 4 4.8 6.5 6.5.1-.1 0-.2-.1-.2zM2307 1378.6c-79.6-23.1-163.2-34.8-248.6-34.8-85.3 0-168.9 11.7-248.6 34.8 6.7-2.1 12.4-6.9 15.4-13.8 5.5-12.6-.2-27.3-12.8-32.8-2.7-1.2-5.4-2.4-8-3.7 81.5-22.8 166.9-34.4 253.9-34.4s172.4 11.6 253.9 34.4c-2.6 1.2-5.3 2.5-8 3.7-12.6 5.5-18.3 20.2-12.8 32.8 3.2 6.9 8.9 11.7 15.6 13.8z"/><path class="st7" d="M2234.3 1725.6c-2.8-.4-5.6-.8-8.5-1.2 2.9.4 5.7.8 8.5 1.2zM2218.6 1723.5c-4.7-.6-9.5-1.2-14.3-1.7 4.8.5 9.5 1 14.3 1.7zM2165.1 1717.8c-3.6-.3-7.3-.6-11-.9 3.7.3 7.3.6 11 .9zM2146.1 1716.3c-3.7-.2-7.5-.5-11.3-.7 3.7.2 7.5.5 11.3.7zM2110.6 1714.4c-3.6-.1-7.2-.2-10.9-.4 3.6.1 7.2.2 10.9.4zM2073.2 1713.4z"/><path class="st6" d="M2058.4 1713.3c5 0 9.9 0 14.8.1 8.8.1 17.6.3 26.4.6 3.7.1 7.3.2 10.9.4 8.1.3 16.2.7 24.2 1.2 3.7.2 7.5.4 11.3.7 2.7.2 5.4.4 8 .6 3.7.2 7.4.6 11 .9 13.1 1.1 26.3 2.4 39.2 3.9 4.7.6 9.5 1.1 14.3 1.7 2.4.3 4.9.6 7.3.9 2.9.4 5.7.8 8.5 1.2 33.1 4.7 65.5 10.7 97.4 17.9 4.2.9 8.3 1.9 12.3 2.9l8.4 2.1c3.7.9 7.3 1.8 10.9 2.7 2.7.7 5.5 1.4 8.2 2.1 4.4 1.1 8.7 2.3 13 3.5 4.5 1.2 8.9 2.5 13.3 3.8 4.4 1.2 8.8 2.6 13.2 3.9 3.4 1.1 6.9 2.1 10.3 3.2 19.7 6.2 39.2 12.9 58.2 20.1 2.9 1.1 5.9 2.2 8.7 3.4 4.7 1.8 9.3 3.7 14 5.5 3.6 1.4 7 2.9 10.5 4.4 8.8 3.7 17.6 7.4 26.2 11.3 2.7 1.2 5.5 2.5 8.2 3.7 13.4 6.2 26.5 12.6 39.5 19.3 10.8 5.7 21.5 11.5 32 17.4 3.5 2 7 4 10.4 6 1.9 1.1 3.9 2.2 5.8 3.4 6 3.6 12 7.2 17.9 10.9 3.6 2.2 7.2 4.5 10.8 6.9 3.6 2.3 7.2 4.7 10.7 7 7.1 4.7 14.1 9.5 20.9 14.4 3.4 2.4 6.9 4.9 10.2 7.4 2.7 2 5.5 4 8.2 6.1 7.4 5.5 14.5 11.1 21.6 16.8 3.2 2.6 6.5 5.2 9.7 7.9 9.8 8.2 19.4 16.6 28.8 25.2 2.7 2.6 5.5 5.1 8.2 7.7 3.4 3.2 6.9 6.5 10.2 9.8 14.1 13.9 27.5 28.2 40.2 43 2.6 3.1 5.2 6.1 7.8 9.2-.7 4-1.4 7.9-2.2 11.8-1.9 9.4-8.8 16.9-18.1 19.3-2.1.6-4.3.8-6.4.8-7.2 0-14.1-3.1-18.9-8.6-159-184.6-434.1-294.8-736-294.8-174.5 0-340.1 36.8-479.4 103.6-15.1 7.2-29.8 14.8-44.3 22.7-7.2 3.9-14.3 8-21.4 12.1-10.6 6.2-21 12.5-31.1 19.1l-10.2 6.6c-26.8 17.8-52.1 36.9-75.9 57.3-5.9 5-11.8 10.2-17.5 15.5-2.9 2.6-5.7 5.3-8.5 7.9-5.7 5.3-11.2 10.7-16.6 16.2-10.8 11-21.2 22.2-31.1 33.8-.1.2-.2.3-.4.4-6.2 6.9-15.8 9.7-24.9 7.4-9.2-2.4-16.2-9.9-18.1-19.3-.7-3.9-1.5-7.8-2.2-11.8 2.6-3.1 5.2-6.2 7.8-9.2 12.7-14.8 26.2-29.1 40.2-43 3.4-3.4 6.8-6.7 10.2-9.8 2.7-2.6 5.4-5.1 8.2-7.7 9.3-8.6 18.9-17 28.8-25.2 3.2-2.7 6.4-5.3 9.7-7.9 7-5.7 14.2-11.3 21.6-16.8 2.7-2.1 5.5-4.1 8.2-6.1 3.4-2.5 6.8-5 10.2-7.4 6.9-4.9 13.8-9.7 20.9-14.4 3.5-2.4 7-4.7 10.7-7l10.8-6.9c5.9-3.7 11.8-7.4 17.9-10.9 1.9-1.2 3.9-2.3 5.8-3.4 3.4-2.1 6.9-4 10.4-6 10.5-5.9 21.2-11.7 32-17.4 13-6.7 26.1-13.1 39.5-19.3 2.7-1.2 5.5-2.5 8.2-3.7 8.6-3.9 17.3-7.7 26.2-11.3 3.5-1.5 7-2.9 10.5-4.4 4.7-1.9 9.3-3.7 14-5.5 2.9-1.2 5.8-2.2 8.7-3.4 19-7.2 38.4-13.9 58.2-20.1 3.4-1.1 6.9-2.1 10.3-3.2 4.4-1.4 8.8-2.7 13.2-3.9 4.4-1.3 8.8-2.6 13.3-3.8 4.3-1.2 8.6-2.4 13-3.5 2.7-.7 5.4-1.4 8.2-2.1 3.6-.9 7.2-1.9 10.9-2.7l8.4-2.1c4-1 8.2-1.9 12.3-2.9 31.8-7.2 64.3-13.2 97.4-17.9 2.8-.4 5.6-.8 8.5-1.2 2.4-.3 4.9-.6 7.3-.9 4.7-.6 9.5-1.2 14.3-1.7 13-1.5 26.1-2.8 39.2-3.9 3.6-.3 7.3-.6 11-.9 2.7-.2 5.4-.4 8-.6 3.7-.2 7.5-.5 11.3-.7 8-.5 16.1-.9 24.2-1.2 3.6-.1 7.2-.2 10.9-.4 8.8-.3 17.6-.5 26.4-.6 4.9-.1 9.8-.1 14.8-.1z"/><path class="st7" d="M2043.6 1713.4zM2017.2 1714c-3.7.1-7.3.2-10.9.4 3.6-.2 7.3-.3 10.9-.4zM1982 1715.6c-3.7.2-7.5.4-11.3.7 3.8-.2 7.6-.5 11.3-.7zM1962.7 1716.9c-3.7.2-7.4.6-11 .9 3.7-.3 7.4-.6 11-.9zM1912.5 1721.7c-4.7.6-9.5 1.1-14.3 1.7 4.8-.6 9.5-1.1 14.3-1.7zM1891 1724.4c-2.9.4-5.7.8-8.5 1.2 2.8-.4 5.6-.8 8.5-1.2z"/><path class="st6" d="M1812.5 1332c12.6 5.5 18.3 20.2 12.8 32.8-3.1 6.9-8.8 11.7-15.4 13.8-.2.1-.5.1-.7.2-5.4 1.4-11.2 1.2-16.7-1.2-18.2-8-35.4-17.8-51.6-28.9 17.9-6.5 36.2-12.5 54.8-17.8 3-.9 6-1.7 9-2.6 2.5 1.3 5.2 2.5 7.8 3.7z"/><path class="st6" d="M1804.6 1328.3c-3 .8-6 1.7-9 2.6-18.6 5.4-36.8 11.3-54.8 17.8-87.9-60.2-147.5-160-183.7-239.2-5.6-12.2-17.2-13.3-20.6-13.3-4.3-.2-14.7 1.1-20.2 12.4-86.2 179.6-12.9 280.1 48.4 328.2-5 3.2-9.9 6.5-14.8 10-9.3 6.5-18.4 13.1-27.3 19.8-64.2-55.8-149-175.8-51.2-379.6 12.1-25.1 36.9-40.6 64.9-40.6h.7c28.5.3 53.6 16.6 65.5 42.4 38.2 83.7 104.1 192.1 202.1 239.5z"/><path class="st2" d="M1780.4 1603.7c7.2 0 13 5.9 13 13.1 0 7.2-5.9 13-13 13-7.2 0-13.1-5.9-13.1-13 0-7.2 5.9-13.1 13.1-13.1z"/><path class="st7" d="M1785.1 1743.5c-4.2.9-8.3 1.9-12.3 2.9 4.1-1.1 8.2-2 12.3-2.9z"/><path class="st6" d="M1780.4 1603.7c-7.2 0-13.1 5.9-13.1 13.1 0 7.2 5.9 13 13.1 13 7.2 0 13-5.9 13-13 0-7.2-5.9-13.1-13-13.1zm-36 41.2c0-36.8 29.7-66.5 66.5-66.5 36.7 0 66.5 29.7 66.5 66.5 0 36.7-29.8 66.5-66.5 66.5-36.8 0-66.5-29.8-66.5-66.5z"/><path class="st7" d="M1764.4 1748.4c-3.7.9-7.3 1.8-10.9 2.7 3.6-.9 7.2-1.8 10.9-2.7zM1745.3 1753.2c-4.4 1.1-8.7 2.3-13 3.5 4.4-1.1 8.7-2.3 13-3.5zM1732.4 1756.7c-4.5 1.2-8.9 2.5-13.3 3.8 4.3-1.3 8.8-2.5 13.3-3.8zM1719 1760.5c-4.4 1.2-8.8 2.6-13.2 3.9l13.2-3.9zM1705.8 1764.5c-3.4 1.1-6.9 2.1-10.3 3.2 3.5-1.1 6.9-2.2 10.3-3.2zM1637.4 1787.8c-2.9 1.1-5.9 2.2-8.7 3.4 2.8-1.3 5.7-2.3 8.7-3.4zM1614.6 1796.7c-3.6 1.4-7 2.9-10.5 4.4 3.5-1.6 7-3 10.5-4.4z"/><path class="st6" d="M1589.2 2173.3c32.3 22.5 30.9 80.2-3.1 128.8-33.9 48.7-87.6 69.9-119.9 47.4-32.3-22.5-30.9-80.2 3.1-128.8 33.9-48.6 87.6-69.9 119.9-47.4zM1578.2 1446.7c11.3 7.8 14.1 23.3 6.4 34.6-1.8 2.6-4 4.8-6.5 6.5-4.2 2.9-9.1 4.3-14 4.3s-9.8-1.4-14.1-4.4c-8.2-5.6-17.5-12.6-27.3-21.2 8.9-6.7 18-13.3 27.3-19.8 4.9-3.4 9.8-6.7 14.8-10 4.5 3.6 8.9 6.9 13.4 10z"/><path class="st6" d="M1809.1 1378.8c-84.7 24.5-162.3 61.2-230.9 108.8-.1.1-.2.1-.2.1 2.5-1.7 4.7-3.9 6.5-6.5 7.8-11.3 5-26.9-6.4-34.6-4.4-3.1-8.9-6.4-13.5-10 53.9-35.8 112.9-65.2 176.1-88 16.3 11.2 33.5 20.9 51.6 28.9 5.6 2.5 11.4 2.8 16.8 1.3z"/><path class="st7" d="M1577.9 1812.4c-2.7 1.2-5.5 2.5-8.2 3.7 2.7-1.2 5.5-2.5 8.2-3.7zM1534.7 1889.4c14.5-7.9 29.2-15.5 44.3-22.7-15.1 7.3-29.9 14.8-44.3 22.7z"/><path class="st6" d="M1564 1492.1c4.9 0 9.8-1.4 14-4.3-20.8 14.5-40.5 29.8-59 45.8 2.5-2.6 4.5-5.7 5.7-9.2 4.5-13-2.2-27.2-15.3-31.8-4.6-1.6-9.2-3.2-13.7-4.6 8.7-7.4 17.6-14.5 26.8-21.4 9.8 8.5 19.2 15.6 27.3 21.2 4.4 2.9 9.3 4.3 14.2 4.3z"/><path class="st6" d="M1509.5 1492.5c13 4.6 19.8 18.8 15.3 31.8-1.2 3.6-3.2 6.7-5.7 9.2l-2.4 2.1c-6.5 5-15.3 6.8-23.6 3.9-13.6-4.8-27.2-9-40.4-12.5 13.7-13.5 28.1-26.6 43.2-39.2 4.4 1.6 8.9 3.1 13.6 4.7z"/><path class="st7" d="m1516.6 1535.7 2.4-2.1c-.8.7-1.6 1.5-2.4 2.1zM1498.2 1852.8c10.5-6 21.2-11.8 32-17.4-10.8 5.7-21.5 11.5-32 17.4zM1482.2 1920.6c10.2-6.6 20.6-13 31.1-19.1-10.6 6.2-21 12.6-31.1 19.1zM1487.8 1858.8c-1.9 1.1-3.9 2.2-5.8 3.4 1.9-1.1 3.8-2.2 5.8-3.4zM1482 1862.3c-6 3.6-12 7.2-17.9 10.9 5.9-3.8 11.8-7.4 17.9-10.9zM1464.1 1873.2z"/><path class="st6" d="M1495.8 1487.9c-15.1 12.6-29.5 25.7-43.2 39.2-76.2-20.2-146-18.9-208 3.7-111.4 40.7-146.5 134.5-157.1 197.4-32.6 14.7-54.1 35.6-54.1 63-.8-20.6-3.7-235.1 194.1-307.3 78.9-28.7 171.4-27.3 268.3 4z"/><path class="st7" d="M1453.3 1880c-3.6 2.3-7.2 4.7-10.7 7 3.6-2.4 7.2-4.7 10.7-7zM1421.7 1901.4c-3.4 2.4-6.9 4.9-10.2 7.4 3.4-2.5 6.8-4.9 10.2-7.4zM1411.5 1908.9c-2.7 2-5.5 4-8.2 6.1 2.7-2.1 5.5-4.1 8.2-6.1zM1396.1 1984.6c23.7-20.4 49.1-39.5 75.9-57.3-26.8 17.8-52.1 36.9-75.9 57.3zM1378.6 2000.1c5.7-5.3 11.6-10.5 17.5-15.5-5.9 5.1-11.7 10.2-17.5 15.5zM1381.8 1931.8c-3.2 2.6-6.5 5.2-9.7 7.9 3.2-2.7 6.4-5.4 9.7-7.9z"/><path class="st6" d="M1516.6 1535.7c-69.7 60.8-122.5 132.2-156 209.6l-.1-.1c.9-1.9 1.7-4 2.1-6.2 2.7-13.5-6-26.6-19.6-29.3-6.4-1.3-12.8-2.4-19.5-3.4 30.8-64.8 74.3-125.3 129-179.2 13.3 3.5 26.8 7.7 40.4 12.5 8.3 2.9 17.2 1.2 23.7-3.9z"/><path class="st6" d="M1343 1709.7c13.5 2.7 22.2 15.8 19.6 29.3-.4 2.2-1.2 4.3-2.1 6.2-4.9 9.8-16 15.6-27.2 13.3-9.5-1.9-19.5-3.5-29.8-4.7 6-16.1 12.6-32 20.1-47.6 6.6 1.1 13 2.2 19.4 3.5z"/><path class="st7" d="M1353.6 2024.2c5.4-5.5 10.9-10.9 16.6-16.2-5.7 5.3-11.2 10.8-16.6 16.2zM1343.3 1964.9c-2.7 2.6-5.5 5.1-8.2 7.7 2.7-2.7 5.5-5.2 8.2-7.7z"/><path class="st6" d="M1360.6 1745.3c-15.8 36.6-27.3 74.6-34.1 113.4h-.1c.5-2.4.6-4.8.3-7.4-1.6-13.6-13.9-23.5-27.6-21.9-5.9.7-11.9 1.2-18 1.6 5.5-26.2 13-51.9 22.3-77.1 10.3 1.2 20.4 2.7 29.8 4.7 11.2 2.3 22.3-3.5 27.2-13.3h.2z"/><path class="st6" d="M1326.7 1851.3c.2 2.6.2 5-.3 7.4-1.9 10.5-10.5 19-21.7 20.2-10.4 1.2-21.1 2-32 2.5 2-16.9 4.7-33.8 8.3-50.4 6.1-.4 12.1-.9 18-1.6 13.8-1.6 26.1 8.3 27.7 21.9z"/><path class="st6" d="M1326.4 1858.7c-4.9 27.9-7.4 56.2-7.4 84.8 0 14.3.6 28.7 1.9 42.9l4-4c-14.1 13.9-27.5 28.2-40.2 43-2.6 3.1-5.2 6.1-7.8 9.2-5.1-29.8-7.7-60.5-7.7-91.1 0-20.8 1.2-41.6 3.6-62 10.8-.5 21.6-1.3 32-2.5 11-1.3 19.6-9.8 21.6-20.3zM1281.1 1831c-3.6 16.6-6.4 33.5-8.3 50.4-8.8.5-17.9.7-26.9.7-101.4 0-210.6-27.9-212.4-89.1.8 13.2 11.8 23.3 24.8 23.3.6 0 1.1-.1 1.6-.1 13.1-.8 23.1-11.6 23.4-24.5 2.9 11 56.8 40.6 162.7 40.6 11.8-.1 23.6-.4 35.1-1.3zM1194.4 2381.6c0 54.8 10.2 108.5 29.5 159.9l-.1.1c-.7-1.7-1.6-3.4-2.6-5-7.7-11.5-23.2-14.5-34.6-6.8-5.4 3.6-10.5 7.6-15.5 11.9-17.4-51.6-26.5-105.3-26.5-160.1 0-123.1 45.7-242.8 132.4-347 .7 4 1.4 7.9 2.2 11.8 1.9 9.4 8.8 16.9 18.1 19.3 9.1 2.4 18.6-.4 24.9-7.4-83.7 97.1-127.8 208.9-127.8 323.3zM1245.8 1750.4c-105.5 0-159.6 29.6-162.7 41 0-.6 0-1.1-.1-1.7-.2-2.8-1.4-27.7 4.3-61.5 41.5-18.8 101.2-27.7 158.4-27.7 26.7 0 53.2 1.9 77.7 5.7-7.5 15.6-14.1 31.5-20.1 47.6-18.3-2.2-37.8-3.4-57.5-3.4z"/><path class="st7" d="M1083.1 1791.6c0-.1 0-.1.1-.1v.2l-.1-.1z"/><path class="st6" d="M1083.1 1789.8c.1.6.1 1.1.1 1.7l-.1.1c0 .1 0 .1.1.1-.2 12.9-10.3 23.7-23.4 24.5-.6 0-1.1.1-1.6.1-13 0-24-10.1-24.8-23.3 0-.1-.1-.6-.1-1.6 0-27.5 21.4-48.3 54.1-63-5.7 33.7-4.5 58.5-4.3 61.4z"/><path d="M1258.2 2575.7c-19.4-51.5-29.5-105.1-29.5-159.9 0-114.4 44.2-226.1 127.6-323.2.2-.1.3-.2.4-.4 10-11.5 20.3-22.8 31.1-33.8 5.4-5.4 10.9-10.8 16.6-16.2 2.8-2.6 5.6-5.3 8.5-7.9 5.7-5.2 11.6-10.4 17.5-15.5 23.7-20.4 49.1-39.5 75.9-57.3 3.4-2.2 6.7-4.4 10.2-6.6 10.2-6.5 20.6-12.9 31.1-19.1 7-4.1 14.1-8.2 21.4-12.1 14.5-7.9 29.2-15.4 44.3-22.7 139.4-66.8 304.9-103.6 479.4-103.6 271.6 0 521.5 89.3 684.7 241.6-161.1-173.2-427.6-275.9-719-275.9-174.5 0-340.1 36.8-479.4 103.6-15.1 7.2-29.8 14.8-44.3 22.7-7.2 3.9-14.3 8-21.4 12.1-10.6 6.2-21 12.6-31.1 19.1l-10.2 6.6c-26.8 17.8-52.1 36.9-75.9 57.3-5.9 5.1-11.8 10.3-17.5 15.5-2.9 2.6-5.7 5.3-8.5 7.9-5.7 5.4-11.2 10.8-16.6 16.2-10.8 11-21.2 22.2-31.1 33.8-.1.2-.2.3-.4.4-83.5 97.1-127.6 208.8-127.6 323.2 0 54.8 10.2 108.5 29.5 159.9 29.6 78.9 80.8 152.5 149.7 216.7-51.8-55.6-91-117.1-115.4-182.4z" style="opacity:.66;fill:#fff"/><path class="st9" d="M1321.4 1706c-23.9-3.6-49.7-5.4-75.6-5.4-57.3 0-116.9 8.9-158.4 27.7 9-53.1 35.3-128.1 110.3-174.7 28.2 55.4 73.5 113.3 123.7 152.4zM2795.4 1706c23.9-3.6 49.7-5.4 75.6-5.4 57.3 0 116.9 8.9 158.4 27.7-9-53.1-35.3-128.1-110.3-174.7-28.2 55.4-73.4 113.3-123.7 152.4z"/></svg>