<svg version="1.1" id="svg2" xmlns="http://www.w3.org/2000/svg" x="0" y="0" viewBox="0 0 4096 4096" style="enable-background:new 0 0 4096 4096" xml:space="preserve"><style>.st0{fill-rule:evenodd;clip-rule:evenodd;fill:#7807e5}</style><path class="st0" d="M0 0h4096v4096H0z"/><g id="layer6"><path id="path3178" d="M1236 1659c-231.5 439.1-96.8 1002.1 242 1235.1s917.7 230.6 1268.4-175.8 362.3-1450.8-126.5-1680.7C2131.4 808 1467.7 1219.6 1236 1659z" style="fill-rule:evenodd;clip-rule:evenodd;fill:#fff"/></g><g id="layer5"><path id="path3203" class="st0" d="M1483.7 1341.4c91.4 85.6 190.3 353 94 553.7s-256.1 284.7-461 285c-.8-348.8 124.2-610.1 367-838.7z"/><path id="path3205" class="st0" d="M2322.6 1533c-162.2-222.4-51.7-525.8 192.5-535.3 270.8 48.3 438.1 386.6 456.8 593.2-49.8 198.9-487.1 164.4-649.3-57.9z"/><path id="path3207" class="st0" d="M2621.4 2399.3c-18.7 267.9-218.1 451.8-473.4 466.3-255.2 14.6-490.7-202-470-472.2 20.6-269.7 244.2-451.2 493.8-439.1 249.5 12.1 468.3 177.1 449.6 445z"/></g><g id="layer1"><path id="path2383" d="M1236 1659c-231.5 439.1-96.8 1002.1 242 1235.1s917.7 230.6 1268.4-175.8 362.3-1450.8-126.5-1680.7C2131.4 808 1467.7 1219.6 1236 1659z" style="fill:none;stroke:#000;stroke-width:100"/></g></svg>