<svg version="1.1" id="svg2" xmlns="http://www.w3.org/2000/svg" x="0" y="0" viewBox="0 0 4096 4096" style="enable-background:new 0 0 4096 4096" xml:space="preserve"><style>.st1{fill:#fcfcfc}.st2{fill:none}.st3{fill:#eaf4f4}.st4{fill:#000072}.st5{fill:#440502}.st6{fill:#ffd133}.st7{fill:#fff}.st8{fill:#a4d4fc}.st10{fill:#ffb3a4}</style><path style="fill-rule:evenodd;clip-rule:evenodd;fill:#ffb3a4" d="M0 0h4096v4096H0z"/><path class="st1" d="M3124.6 2078.6c-3.7-85.8-21.5-171.9-43.9-254.6-21.2-78.3-49.1-154.7-83.4-228.2-67.9-145.3-162.9-278.6-281.9-386.5-15.4-13.9-31.1-27.5-47.3-40.5-11.7-9.4-24-17.8-36.3-26.3 33.9-17.7 67.5-35.7 91.2-66.6 18.4-23.8 27.6-53.1 25.2-83.2-2.6-32.6-18.3-60.5-40.8-83.6-46.7-48-117.1-80.1-184.4-62.6-31.3 8.1-59.3 26.3-77 53.6-17.7 27.2-23.3 62.9-22.8 94.8.2 9.3.9 18.5 2.2 27.7-40.5-17.3-82.3-31.9-124.8-43.4 1-6.4 1-13.2-.1-19.9-3.6-21.5-19.1-39-38.9-47.1-19.4-8-41.1-5.3-60 2.6-11 4.6-21.3 10.7-30.8 17.9-.2-.7-.5-1.4-.8-2.1-6.7-16.6-22.8-26.9-40.1-29.5-30.4-4.6-62.2 10.1-83.3 31.5-1.3 1.4-2.6 2.7-3.9 4.2-8.5-16.4-24.3-29.5-42.6-34.3-18.3-4.9-38.2-3.5-55.9 3.2-17.6 6.7-35.3 17.5-47.9 31.6-9.9 11.1-16 25-16.9 39.4-12 3.1-24 6.5-35.9 10-31.6 9.5-62.3 22.1-92.7 34.9-6 2.5-12 5.1-17.9 7.7v-.2c5.7-33.7 4-68.7-6.5-101.4-9.3-28.9-29.9-53.8-56.7-68.2-31.4-16.9-67.3-21.3-102.1-15.1-34.2 6.1-65.5 22.6-92.5 43.9-24.2 19.1-45.5 42.5-56.8 71.5-11.8 30.3-9.2 66 5 95 14.3 29.2 39.9 50.2 67.8 65.8 14.1 7.9 28.7 15 43.4 21.8 1 .4 1.9.9 2.9 1.3-135.8 93.2-244.5 227.6-324 370.6-81.7 146.9-134.6 309.4-159.9 475.4-27.3 179 5.6 366.9 87.1 528.5-10.6 21.7-17.6 45.1-20.7 69.5-6 47.1 3.2 95.6 23.8 138.2 41.3 85 127.3 148.6 220.3 164.4 22.3 3.8 44.9 5.1 67.4 3.2 12-1 24.1-2.8 35.8-5.5 6.9-1.6 13.7-4.5 20.2-8 1.2.6 2.3 1.3 3.5 1.9 83.9 45.5 175.3 73.3 270.7 79.2 95.5 5.9 187.6-14.2 280.4-33.5 11.3-2.4 22.7-4.8 34.1-6.7 11.3-1.9 22 1 33.1 3.2 24.2 4.8 48.2 10.1 72.3 15.2 45.3 9.5 91.1 17.6 137.4 21.1 94.8 7.2 192-6.7 280.5-41.6 29.5-11.6 58.1-25.2 85.9-40.6 3.4 1.9 7 3.8 10.6 5.4 10.9 4.8 22.4 6.7 34.2 8.3 21.6 2.9 43.5 3.2 65.2.6 91.3-10.8 172.6-64.6 222.1-141.4 45.9-71.2 53.5-164.8 13.9-239.9 22.5-46 40.9-94 55.8-143.2 28.8-92.9 41.7-192.1 37.5-289.4zm-1104.5 827.3c3.4-.6 6.8-1.1 10.2-1.7-10.7 2.2-21.3 4.5-31.9 6.8 7.1-1.8 14.4-3.5 21.7-5.1zm535.2 1.1c.9-.4 1.9-.7 2.8-1.1 4.6-1.8 9.3-3.7 13.9-5.5 24.9-8.5 49-18.5 72.4-29.7-28.9 14.2-58.6 26.4-89.1 36.3z"/><path class="st1" d="M2547.6 1179.8c26.7-23 59.3-38.3 90-55.3 4.4-2.2 8.7-4.5 13-6.8 12.9-7 25.4-14.6 37-23.6 4.6-3.8 8.9-7.6 12.9-11.7 24.3-24.3 39.3-54.7 34.5-94.8-4.6-42.2-38.2-75.3-71.4-99-11.8-8.1-24.3-15-37.3-20.5-39-16.4-82.3-19.8-122.6-1.3-28.5 12.5-50.6 37.2-59.3 67.2-15.1 49.5-9.5 103.2 12.7 148.8 5.5 11.4 12.1 22.3 19.7 32.4 3.8 5.1 7.8 10 12.1 14.8s8.7 9.4 13.5 13.8c9.8 9.8 21 18 32.6 27.3 4.1 3 8.3 5.9 12.6 8.7z"/><path class="st2" d="M2625.7 950.7c-16-14.4-39.7-20.3-58.9-8.8-24.1 13.8-31.2 42.7-30.8 68.6"/><path class="st3" d="M2555.9 1158.7c-4.7-4.4-9.2-9-13.5-13.8s-8.3-9.7-12.1-14.8c-7.6-10.2-14.2-21.1-19.7-32.5-16.6-34.2-23.9-72.9-20.2-111.1.6-6.4 1.6-12.7 2.8-19 2.8-14.1 8.1-27.9 15.7-40 2.6-4 5.4-7.9 8.5-11.6 13.1-16.1 29.1-25.2 46.3-29 5.8-1.3 11.6-1.9 17.6-2 6.6.3 13.2 1.1 19.6 2.3 6.4 1.2 12.8 2.8 19.1 4.8 27.5 9.1 53 22.3 74.4 41.7-14.3-22.4-34.6-38.7-57-51.6-4.2-2.4-8.5-4.7-12.9-6.8-6.5-3.1-13-5.8-19.7-8.1-6.7-2.3-13.4-4.2-20.2-5.8-6.6-1.3-13.3-2.1-20-2.5-20.2-1.3-40.5.9-59.4 6.8-4.8 2-9.5 4.4-14.1 7.3-4.6 2.9-9.1 6.3-13.5 10.1-3.9 3.3-7.6 6.9-11 10.7-10.2 11.5-17.9 25.1-22.2 40.2-15.1 49.5-9.5 103.2 12.7 148.8 5.5 11.4 12.1 22.3 19.7 32.5 3.8 5.1 7.8 10 12.1 14.8 4.3 4.8 8.7 9.4 13.5 13.8 9.8 9.8 21 18 32.6 27.3 4.1 2.9 8.3 5.8 12.6 8.6 5.4-4.7 11-9 16.9-13.1-3-2.5-5.9-5.2-8.6-8z"/><path class="st2" d="M2704.3 992.2c-34.3-4.4-74-26.8-105.3-2.3-4.3 5-6.9 10.8-8.3 17-1.4 6.1-1.7 12.5-1.3 18.6"/><path class="st2" d="M2735 987.6c-4.6-42.2-38.2-75.3-71.4-99-11.8-8.1-24.3-15-37.3-20.5-39-16.4-82.3-19.8-122.6-1.3-28.5 12.5-50.6 37.2-59.3 67.2-15.1 49.5-9.5 103.2 12.7 148.8 5.5 11.4 12.1 22.3 19.7 32.5 3.8 5.1 7.8 10 12.1 14.8 4.3 4.8 8.7 9.4 13.5 13.8 9.8 9.8 21 18 32.6 27.3 4.1 2.9 8.3 5.8 12.6 8.6 26.7-23 59.3-38.3 90-55.3 4.4-2.2 8.7-4.5 13-6.8 12.9-7 25.4-14.6 37-23.6 4.6-3.8 8.9-7.6 12.9-11.7 24.3-24.3 39.3-54.7 34.5-94.8z"/><path class="st1" d="M1609.1 1160.3c-21.7-13.7-47.2-18.7-69.6-29.4-4.6-2.1-9.2-4.3-13.8-6.6-32.1-15.8-63.7-32-83.9-63.1-2.7-4.1-5.2-8.3-7.3-12.7-8.6-17.5-12.5-37.6-9.7-61 4.6-42.2 38.2-75.3 71.4-99 11.8-8.1 24.3-15 37.3-20.5 39-16.4 82.3-19.8 122.6-1.3 28.5 12.5 50.6 37.2 59.3 67.2 15.1 49.5 9.5 103.2-12.7 148.8-2.8 5.7-5.8 11.3-9.1 16.7-3.3 5.4-6.8 10.7-10.7 15.8-14 21.1-36.4 31.3-59.8 39.6-4.6 1.8-9.2 3.6-14 5.5z"/><path class="st2" d="M1534.1 950.7c16-14.4 39.7-20.3 58.9-8.8 24.1 13.8 31.2 42.7 30.8 68.6"/><path class="st3" d="M1599.2 1158.7c4.7-4.4 9.2-9 13.5-13.8 4.3-4.8 8.3-9.7 12.1-14.8 7.6-10.2 14.2-21.1 19.7-32.5 16.6-34.2 23.9-72.9 20.2-111.1-.6-6.4-1.6-12.7-2.8-19-2.8-14.1-8.1-27.9-15.7-40-2.6-4-5.4-7.9-8.5-11.6-13.1-16.1-29.1-25.2-46.3-29-5.8-1.3-11.6-1.9-17.6-2-6.6.3-13.2 1.1-19.6 2.3-6.4 1.2-12.8 2.8-19.1 4.8-27.5 9.1-53 22.3-74.4 41.7 14.3-22.4 34.6-38.7 57-51.6 4.2-2.4 8.5-4.7 12.9-6.8 6.5-3.1 13-5.8 19.7-8.1 6.7-2.3 13.4-4.2 20.2-5.8 6.6-1.3 13.3-2.1 20-2.5 20.2-1.3 40.5.9 59.4 6.8 4.8 2 9.5 4.4 14.1 7.3 4.6 2.9 9.1 6.3 13.5 10.1 3.9 3.3 7.6 6.9 11 10.7 10.2 11.5 17.9 25.1 22.2 40.2 15.1 49.5 9.5 103.2-12.7 148.8-5.5 11.4-12.1 22.3-19.7 32.5-3.8 5.1-7.8 10-12.1 14.8-4.3 4.8-8.7 9.4-13.5 13.8-9.8 9.8-21 18-32.6 27.3-4.1 2.9-8.3 5.8-12.6 8.6-5.4-4.7-11-9-16.9-13.1 3-2.5 5.8-5.2 8.6-8z"/><path class="st2" d="M1450.8 992.2c34.3-4.4 74-26.8 105.3-2.3 4.3 5 6.9 10.8 8.3 17 1.4 6.1 1.7 12.5 1.3 18.6"/><path class="st4" d="M2556.6 1188.8c51.2-43.8 124.2-58.1 166.4-112.9 18.4-23.8 27.6-53.1 25.2-83.2-2.6-32.6-18.3-60.5-40.8-83.6-46.7-48-117.1-80.1-184.4-62.6-31.3 8.1-59.3 26.3-77 53.6-17.7 27.2-23.3 62.9-22.8 94.8.6 34.5 9.4 68.7 25.3 99.2 16.7 32.2 41.6 57.9 69.9 80.2 7.4 5.8 14.9 11.3 22.7 16.5 5.7 3.8 14.1 1.1 17.4-4.6 3.6-6.2 1.2-13.6-4.6-17.4-26.7-17.6-52.1-39.4-70.4-65.9-17.6-25.5-29.2-55.1-33.3-85.9-3.9-29.2-1.4-60.8 9.4-88.4 9.1-23.3 28.7-41.5 52.2-51.7 57.5-24.9 122-.1 166 39 20 17.8 37.6 39.2 43.3 65.6 5.4 24.9.3 50.7-13.4 71.9-15.5 24-41.1 41.1-66.9 54.9-27.9 14.9-56.8 28.9-82.8 47.2-6.7 4.7-13.3 9.8-19.5 15.2-5.2 4.5-4.6 13.4 0 18 5.3 5.3 12.9 4.6 18.1.1z"/><path class="st4" d="M2632.9 943.5c-11.5-10.1-25.4-16.7-40.8-17.7-14.7-1-28.6 4.6-39.8 13.9-20.5 17-26.9 45.4-26.6 70.9.1 13.1 20.5 13.1 20.4 0-.2-18.9 3.2-40 17.4-53.7 15.9-15.3 38.9-13 54.9 1 4.1 3.6 10.3 4.1 14.4 0 3.8-3.7 4.3-10.7.1-14.4zM1615.6 1149.3c-13.5-8.3-28.5-13.9-43.4-19.2-14.5-5.2-28.4-11.1-42.2-17.9-24.5-12-49.1-24.7-67.6-45-19.8-21.8-27.8-48.6-25.1-77.7 2.4-25.2 18.2-47.9 36.4-65.8 41.4-40.7 102.9-69 161.5-51.1 25.4 7.7 46.7 22.9 59.6 45.6 13.7 24 17.3 55.9 15.9 83.9-1.5 29.8-10.2 59.4-24.9 85.4-7.2 12.8-15.3 25.7-26.5 35.2-8.8 7.4-21.4 13.3-32.2 17.4-7.1 2.7-14.3 5.3-21.3 8.1-6.4 2.6-10.9 8.5-8.9 15.7 1.7 6.1 9.2 11.5 15.7 8.9 14.8-5.9 30.2-10.7 44.4-18.2 14.1-7.4 26.4-17.6 35.6-30.6 20.2-28.5 34.9-60 40.7-94.6 5.7-33.7 4-68.7-6.5-101.4-9.3-28.9-29.9-53.8-56.7-68.2-31.4-16.9-67.3-21.3-102.1-15.1-34.2 6.1-65.5 22.6-92.5 43.9-24.2 19.1-45.5 42.5-56.8 71.5-11.8 30.3-9.2 66 5 95 14.3 29.2 39.9 50.2 67.8 65.8 14.1 7.9 28.7 15 43.4 21.8 15.4 7.1 31.6 11.9 47.3 18.2 7.2 2.9 14.2 6.4 20.8 10.5 13.7 8.5 26.5-13.5 12.6-22.1z"/><path class="st4" d="M1541.3 957.9c16-14 38.9-16.3 54.9-1 14.2 13.7 17.7 34.8 17.4 53.7-.1 13.1 20.2 13.1 20.4 0 .3-25.4-6-54-26.6-70.9-11.2-9.2-25-14.8-39.8-13.9-15.4 1-29.3 7.7-40.8 17.7-4.1 3.6-3.7 10.7 0 14.4 4.2 4.1 10.3 3.7 14.5 0z"/><path class="st1" d="M1578.3 1110.5c9.1-11.8 21.4-22 36.6-26 23.4-6.1 46.8-5.1 68.5-14.4 6.9-3 13.5-6.5 20.2-10 120.1-61.4 255.8-90.3 391-88.7 218.5 1.5 418.3 87.1 581.7 221.5 54.5 44.8 104.8 95.1 150.5 149.5 243.5 291 342.2 700.4 232.3 1072.1-54 179.2-176.2 323.9-340.2 413.5-135.5 73.3-284.1 146.7-444 110-82.5-19.4-160.9-45.8-243.9-34-50.8 8.2-100.4 18.5-150 25.4s-99.1 10.4-149.9 5.1c-21.2-2-42.1-5.1-62.9-9.2-62.2-12.3-122.4-33.5-178.8-64.3-21.6-11.5-42.7-24.1-63.2-37.6-164.2-108.4-292.3-279.5-344-467.1-8.8-29.1-15.9-58.5-21.4-88.3-11-59.6-15.4-120.5-13.2-182.3.9-35.3 3.9-70.5 8.8-105.3 9.3-65.3 25.3-129.8 46.4-193 21.1-63.2 47.3-125.2 77-185.8 74.5-161.7 183.5-311.4 334.9-409.5 3.5-2.8 7-5.6 10.4-8.3 3.4-2.8 6.7-5.4 9.8-8.2 16.9-13.8 24-35.2 35.7-52.9 4.8-7.9 7.7-12.2 7.7-12.2z"/><path class="st3" d="M2411.3 1034.4c-2.1-.9-4.2-1.7-6.4-2.5 2.1 1.1 4.3 2.2 6.4 3.4v-.9zM3005.1 1632.1c-15.1-34.8-31.8-68.9-50.1-102.1-36.6-66.4-79.5-129.4-128.2-187.6-36.5-43.5-76.1-84.4-118.3-121.9-5.3-4.7-10.6-9.3-16-14-25.5-23.2-46.9-54.8-85.6-54.8 30.6 26.5 51.9 62.1 81 89.8 5.5 5.8 10.9 11.6 16.3 17.4 58.9 64.6 109.8 136.7 151.4 213.8 18.5 34.4 35.2 69.9 49.9 106.3 146.5 318.3 97.6 698.1-97.4 983.5-11.9 19.4-24.4 38.4-37.4 57-15.1 19.6-31.3 38.3-48.7 55.8-17.4 17.5-35.9 33.8-55.7 48.6-18.5 13-37.7 24.7-57.5 34.9-19.8 10.3-40.1 19.1-60.9 26.6-20.9 7.3-42 12.4-63.3 15.7-21.3 3.2-42.7 4.6-64.2 4.3-94.5-2.7-180.1-43.4-267.7-79.1-93.7-37.7-185.4 25.5-271.9 60.1-46.8 18.3-95.7 33.6-146.9 30.8-21-.8-42.2-4-63.5-10.5-12.8-3.6-25.3-8-37.6-13.5s-24.4-11.8-36.1-19.1c-91.7-56-179.2-103.9-282.2-123.6-12.9-4-25.8-8.2-38.5-13-12.7-4.7-25.3-10-37.6-15.9-13.8-7.3-27.4-14.7-40.8-22.3 10.2 14.7 20.9 29.1 32.1 43.2 12 13.5 24.5 26.3 37.5 38.5s26.4 23.7 40 34.9c85 72 175 145 277.9 187.6 17.2 7.1 34.7 13.4 52.6 18.7 44.7 14.5 89.6 20.9 134.7 21.8 22.6.5 45.2-.4 67.9-2.4 78.3-4.5 150.6-33 229-45.3 33.6-5.1 65.2 2 97.8 10.2 68.2 18.3 132.4 43.8 202.5 41.3 15.5-.3 31-1.5 46.2-3.4 45.9-5.8 90.7-18.6 134.4-35.3 7.3-2.8 14.6-5.7 21.8-8.6 68.5-23.4 130.6-58.1 190.6-98.1 7.1-4.5 14.1-9.2 21-13.9 109.5-75 195.4-177.1 248-298.6 10.5-24.3 19.7-49.4 27.5-75.2 77.4-256.8 53.9-537.9-54-782.6z"/><path class="st4" d="M1560.7 1128.6c-146.6 93.5-263.1 234.9-347.1 385.9-81.7 146.9-134.6 309.4-159.9 475.4-28.1 184.6 7.7 378.9 95 543.8 76.9 145.4 197.8 269.8 342.5 348.3 83.9 45.5 175.3 73.3 270.7 79.2 95.5 5.9 187.6-14.2 280.4-33.5 11.3-2.4 22.7-4.8 34.1-6.7 11.3-1.9 22 1 33.1 3.2 24.2 4.8 48.2 10.1 72.3 15.2 45.3 9.5 91.1 17.6 137.4 21.1 94.8 7.2 192-6.7 280.5-41.6 156.7-61.7 291.3-180.2 382.8-320.5 46.3-71.1 80.4-149 105-230.1 28.3-93.2 41.2-192.4 37-289.7-3.7-85.8-21.5-171.9-43.9-254.6-21.2-78.3-49.1-154.7-83.4-228.2-67.9-145.3-162.9-278.6-281.9-386.5-15.4-13.9-31.1-27.5-47.3-40.5-17.8-14.2-36.7-26.3-55.1-39.5-13.3-9.6-26 12.5-12.9 22 18.7 13.5 37.9 25.7 55.8 40.2 16.3 13.3 32.1 27.1 47.5 41.3 29 26.7 56.5 54.9 82.6 84.4 51.2 58.1 96.4 121.3 135.3 188.2 79.5 136.5 132.8 287.4 161.6 442.6 8 43.2 14.4 86.7 16.3 130.6 2.1 48.6-.6 97.5-6.6 145.8-11 88.8-37.5 177.3-75.1 258.5-66.4 143.3-175.2 267.5-308.9 351.7-79.5 50.1-165.9 83.8-259.2 96.9-92.9 13-184.9-.5-275.7-19.9-23-4.9-45.9-10-69-14.3-10.3-1.9-19.5-3.1-29.9-1.6-11.2 1.6-22.3 4-33.3 6.3-45.9 9.4-91.6 20.4-138 27.1-93.3 13.3-187.1 9.2-277.7-17.6-158.7-47-298.8-160.3-394.6-293.4-102.2-141.9-158.1-316.7-161.4-491.2-1.7-88 13.6-175.4 34.5-260.7 19.6-80 45.7-158.4 79.1-233.7 66.5-149.8 161.2-290.3 283.9-399.8 33.7-30.1 68.3-57.7 106.4-82 13.7-8.9 1-31-12.9-22.1zM2516.1 1066.5c-98.5-53.8-207.5-93.1-319-108.5-58.3-8.1-117.8-9.7-176.6-5.3-60.1 4.5-119.2 16.7-176.9 34-31.6 9.5-62.3 22.1-92.7 34.9-30.5 12.8-60.6 26.7-89.7 42.5-14.4 7.8-1.6 29.8 12.9 22 25.3-13.7 51.4-26 77.8-37.4 25.7-11 51.9-22.3 78.4-31.1 55.3-18.2 112.7-31.7 170.6-37.6 57.3-5.9 115.9-5.7 173.1.6 55.9 6.2 111.1 19.6 164.6 36.9 57 18.5 112 42.3 164.5 71 14.6 7.9 27.4-14.1 13-22z"/><path class="st5" d="M1566.6 1849.7c41.2-16.7 99.2-54.4 129.8-19.7 13.2 14.3-2 53-25.5 64.2-31.6 14.3-66.2 3.1-98.8-7.1-9.2-3.1-7.1-15.3-7.1-24.2.3-4 .8-8.3 1.6-13.2z"/><path class="st5" d="M1569.3 1859.5c20.8-8.5 40.7-19.4 61.9-26.8 9.6-3.4 19.6-6.3 29.6-6.7 8.7-.3 16.6 1 23.7 6.6 3.4 2.6 4.7 4.2 5.9 6.9-1-2.3.7 4.5.5 2.1.2 2.1.2 4.2 0 6.3-.5 6.9-4.5 16.1-9.1 23-12.8 19-37.2 21.9-59 18.8-15.7-2.2-31.3-6.9-46.2-11.9-4.1-1.4-1.4-.6-1.1-.3.9.8 0-1.2.1-.2-.1-2.4-.6-4-.5-7 .1-6 .4-11.9 1.4-17.8.9-5.4-1.4-11-7.1-12.5-4.9-1.3-11.6 1.7-12.5 7.1-2 12.1-5 28.7.9 40.2 3.7 7.2 10.6 9.3 17.8 11.6 7.9 2.5 15.9 4.9 24 6.9 29 7.2 65.1 10.2 88.9-11.4 15.7-14.2 29.2-41.9 20.5-63-4.5-11-15.7-18.7-26.6-22.6-11.5-4.1-24.1-3.4-35.9-1.2-29.2 5.4-55.3 21.4-82.5 32.5-5.1 2.1-8.7 6.8-7.1 12.5 1.2 4.7 7.3 9 12.4 6.9z"/><path class="st6" d="M1602.7 1868.3c22.6-64.1 69-118.8 131.3-147.1 20.5-8.6 42.4-14 64.7-15.7 44.6-3.6 90.7 7.1 133.5 36.9 66.6 45.2 111.8 115.4 95.2 195.1-5.9 29.7-30.9 52.3-58.3 63.1-33.9 13.1-68.7 13.4-102.8 6.1-17-3.6-33.9-9.2-50.2-15.9-58.8-23.5-106.4-65.1-163.5-96.1-7.1-3.6-13.1-4.8-19.6-8.5-9.7-5.9-19.8-11.8-30.3-17.9z"/><path class="st4" d="M1612.5 1871c21.5-60.3 66.9-115.8 126.8-141 34.1-14.4 73.5-18.8 109.9-11.9 36.6 6.9 69.7 24.7 98.2 48.4 48.1 40 82.6 99.4 71 163.7-2.8 15.8-9.5 29.1-21 40.4-11.8 11.6-26.5 19.2-42.2 24-39.4 12-80.8 6.3-119-7-36.3-12.7-69.1-32.3-101.1-53.3-16.1-10.6-32.1-21.4-48.5-31.5-8.4-5.2-17-10.3-25.7-15.1-8.5-4.7-17.8-7.2-26.1-12.2-9-5.3-18-10.6-27.1-15.9-11.3-6.6-21.6 11-10.3 17.6 9.6 5.6 19.1 11.3 28.7 16.9 9.1 5.3 19.2 8.2 28.4 13.4 17.7 10 34.8 21.1 51.8 32.2 33.9 22.3 67.7 44.8 105.4 60.2 41 16.8 85.1 26.5 129.3 18.9 36.3-6.2 73.9-25.6 90-60.6 7.5-16.3 9.8-35 9.9-52.8.1-17-2.4-34.1-7.4-50.3-10.1-33.1-29.8-62.7-54.2-87-27.5-27.5-61.2-50.3-98.2-62.7-38-12.8-79.5-13.8-118.3-4.4-71.3 17.4-129.7 73.6-159.8 139.3-3.8 8.3-7.2 16.7-10.3 25.3-1.8 5.2 2.1 11.1 7.1 12.5 5.9 1.6 10.9-1.9 12.7-7.1zM2562.4 1829.4c-34.6-12.9-68.2-31.7-106.3-29.9-6.8.3-11.3 6.2-9.8 12.9 1.8 7.8 4.3 15.6 9.6 21.8 5.7 6.7 14.3 9.1 22.8 9.9 15 1.4 32.1-7.3 45.6 1.9 1.7-6.3 3.4-12.7 5.1-19-5.4-.1-10.8-.7-15.9 1.4-4.2 1.7-7.5 4.9-7.5 9.8 0 4.5 3.2 8.6 7.5 9.8 3 .8 6.2 1.1 9.3 1.7 5.4 1 11-1.5 12.5-7.1 1.4-5-1.7-11.5-7.1-12.5-3.1-.6-6.2-.9-9.3-1.7v19.6c3.4-1.4 6.9-.7 10.5-.7 10.7.2 13.1-13.6 5.1-19-14.1-9.6-29.4-6.4-45.1-4.9-5.2.5-13 1.4-17.5-1.9-3.8-2.9-5-10-6-14.6-3.3 4.3-6.5 8.6-9.8 12.9 35.9-1.7 68.2 17.1 100.9 29.2 5.2 1.9 11.2-2.1 12.5-7.1 1.6-5.7-1.9-10.6-7.1-12.5z"/><path class="st4" d="M1672.6 1874.1c17.4-37.8 48.3-69.2 86.5-85.8 38.6-16.8 82.6-15.2 118.8 6.8 37.4 22.7 69.6 61.2 68.2 107.1-.3 11.3-2.2 22.7-8.8 32.2-6.2 8.9-15.8 15.8-25.8 19.8-25.2 10.1-53 7.8-78.5-.2-30-9.4-56.4-26.3-82.5-43.4-12.6-8.2-25.2-16.5-38.4-23.8-6.9-3.9-14.2-7-21.2-10.7-7.2-3.8-14.1-8.3-21.1-12.4-8.5-5-16.2 8.2-7.7 13.2 6.5 3.8 12.9 7.8 19.5 11.5 6.9 3.8 14.3 6.9 21.2 10.7 12.7 6.9 24.8 14.8 36.9 22.7 25.3 16.5 50.5 32.7 78.9 43.4 27.4 10.3 57.7 14.9 86.4 7.2 24.6-6.6 48.1-23.6 53.8-49.8 10.9-50.5-15.9-97.7-55-128-19.4-15-41.4-26.5-65.7-30.8-22.3-4-45.4-2.5-67.1 4-49 14.7-90.4 52.4-111.6 98.7-1.7 3.8-1 8.2 2.7 10.5 3.3 1.8 8.7.8 10.5-2.9z"/><path class="st4" d="M1734.3 1916.3c19.1-41.3 70-69.7 112.6-44 20.8 12.6 38.7 34.1 37.3 59.6-1.7 31.7-39.5 32.2-62.5 24.4-16.4-5.6-30.9-15.1-45.3-24.5-14.5-9.5-29.9-17.2-44.9-26-8.5-5-16.2 8.2-7.7 13.2 15 8.7 30.3 16.5 44.9 26 14.8 9.7 29.7 19.1 46.4 25.2 15.9 5.8 33.4 8.1 49.8 3.7 14.5-3.9 28.1-13.6 32.5-28.6 8.5-29.4-7.8-59.4-30.5-77.4-22.7-18.1-50.9-25.5-79.2-17.4-29.2 8.4-54 30.7-66.7 58.1-4 8.9 9.2 16.6 13.3 7.7z"/><path class="st1" d="M1701.3 1893.7c13.8-29.9 38.1-54.7 68.3-68 30.4-13.3 65.1-12.1 93.6 5.1 29.9 18 55.6 48.8 54 85.4-.4 8.7-1.9 17.3-7 24.5-4.8 6.6-11.9 11.7-19.4 14.8-20 8.2-42.3 6.1-62.5-.3-23.4-7.5-44-20.6-64.5-33.9-10.3-6.7-20.6-13.5-31.3-19.5-5.3-3-10.8-5.5-16.2-8.2-6.1-3-11.9-6.9-17.7-10.3-8.5-5-16.2 8.2-7.7 13.2 5.6 3.3 11.1 6.9 16.9 10 5.4 2.8 11 5.2 16.3 8.2 10.5 5.8 20.6 12.3 30.6 18.9 20.1 13.1 40.2 25.8 62.8 34.1 22.4 8.3 47.2 11.7 70.5 5 19.1-5.5 37.3-18.9 42.3-39.1 10.2-40.8-12.1-80.4-43.6-105-15.9-12.4-33.8-21.9-53.8-25.4-17.9-3.2-36.3-2.1-53.8 3-39.9 11.7-73.6 42.3-90.9 79.9-4.2 8.8 9 16.6 13.1 7.6z"/><path class="st3" d="M2725.7 1676.7c-32.2-8.6-64.8-19.8-96-31.2-8.4-3.4-16.9-7.1-25.4-10.7-34-14.3-68.4-27.5-106.4-20.7-10.4 2-20.5 5.8-29.8 10.9-36.4 18.6-70 65.4-43.5 105.2 27 40.7 67.2 65.2 111.2 75 11 2.5 22.2 4 33.5 4.7 62.1 8.9 126.3-34.9 134.9-98.3 10.3-17.7 21.5-34.9 21.5-34.9z"/><path class="st1" d="M1644 1868.1c11.8-27.9 28.3-53.7 50.5-74.5 18.4-17.3 40.2-31.4 63.9-40.1 23.6-8.7 48.9-12.3 73.9-9.2 26.9 3.4 51.4 15 73.1 30.9 40.4 29.6 71.7 77 63.6 129-2 13-6.8 24-16.3 33.3-9.3 9.2-21 15.1-33.4 18.8-29.7 8.7-60.8 4.3-89.5-5.7-30.5-10.7-57.8-27.6-84.7-45.1-13.5-8.8-26.9-18.1-41.1-26-13-7.2-27.4-6.8-41.5-10.1-7.7-1.8-13.9-5.2-19.8-10.4-7.4-6.4-18.2 4.3-10.8 10.8 6.5 5.7 13.4 10.4 21.6 13 7.2 2.3 14.8 3 22.3 4.1 7.8 1.1 15.1 2.7 22 6.7 7.2 4.2 14.3 8.7 21.3 13.2 29.4 18.9 58 38.6 90.3 52.3 30.4 12.8 63.3 20.5 96.3 15.8 28.6-4.1 58.8-18.5 71.8-45.8 11.7-24.6 9.8-56.5 1.4-81.8-8.7-26.5-25.4-49.8-45.8-68.6-21.5-19.9-47-36.1-75.3-44.3-26.8-7.8-55.4-8-82.5-1.7-26.6 6.2-51.8 18.6-73.6 35.1-24.9 18.9-44.3 42.1-59.5 69.3-4.3 7.6-8.1 15.5-11.6 23.6-1.6 3.8-1.1 8.1 2.7 10.5 3.4 1.6 9.1.7 10.7-3.1z"/><path class="st6" d="M2088 1932.2c23-71.9 78.7-133 147.1-163.4 9.8-4.3 19.8-8 29.9-10.8 53.4-12 113.5-5.9 164 17.9 12.6 5.9 24.7 13 35.7 21.2 15.9 12 31.4 25.1 36.1 44.1 22.7 75-20.2 157.1-92.7 185.6-82.1 32.1-163-14.3-235.1-48.9-16.4-8.5-32.7-17.2-48.9-25.6-11.7-6.5-23.7-13.2-36.1-20.1z"/><path class="st4" d="M2097.8 1934.9c19.8-61.1 63.6-113.8 119.3-145.5 15.4-8.8 31.8-16.3 48.9-21.1 17.1-4.8 35.6-6.1 53.2-6.1 36.5-.1 73.5 7.4 106.4 23.2 16.5 7.9 32.2 17.8 45.9 29.9 6 5.3 11.5 11.1 15.5 18 3.7 6.6 5.5 14.3 7.1 21.6 5.9 27.4 2.5 56.6-8.4 82.4-11.3 26.7-30.5 50.2-54.7 66.1-29.2 19.2-63.7 26.3-98.3 23-37.3-3.6-72.9-18.5-106.5-34.3-35.6-16.7-70.7-34.5-105.2-53.4-9.3-5.1-18.5-10.2-27.8-15.4-11.4-6.4-21.7 11.2-10.3 17.6 37.5 21.1 75.6 41 114.3 59.9 36 17.5 73.1 35 112.7 42.7 39.5 7.7 80.2 4.5 116.5-13.9 28.6-14.5 52.7-38 68.7-65.8 15.8-27.6 24-60.1 21.7-91.9-1.2-16.7-4.3-35.6-13.1-50.1-9.6-15.9-25.2-28-40.4-38.2-33.6-22.7-73.4-35.5-113.5-40-19.1-2.2-38.5-2.3-57.7-.2-10 1.1-20.2 2.4-29.9 4.8-10.5 2.7-20.7 6.8-30.6 11.1-63.8 27.7-116.8 81.6-144.2 145.4-3.5 8.1-6.6 16.4-9.4 24.8-3.9 12.5 15.8 17.8 19.8 5.4z"/><path class="st4" d="M2261.9 1920.7c-9.6-17.6-9.4-39-1.2-57.1 7.9-17.6 22.3-30.7 39.9-38.2 33.9-14.5 74.4-7.4 105.3 11.1 38.8 23.1 63.4 66.4 60.8 111.9-1.1 19.8-9.3 38.6-25.4 50.7-19.8 15-44.7 21.2-69.3 19.1-25.7-2.2-47.5-18.4-63.9-37.2-8.7-9.9-16-20.9-23-32-3.3-5.2-6.6-10.5-10-15.7-4.2-6.5-9.7-10.6-15.9-15.2-3.3-2.5-8.5-.5-10.5 2.7-2.3 3.9-.6 8 2.7 10.5 2.8 2.1 6.3 4.2 8.6 6.9 1.7 2.1 3.1 4.8 4.5 7.1 3.6 5.8 7.3 11.5 11 17.2 7 10.7 14.3 21.1 22.8 30.6 17 19 39.2 35 64.8 39.3 49.5 8.2 107.9-17.8 117.2-70.8 9-50.9-16.2-102.8-57.5-132.2-33.6-24-80.1-34.4-119.9-21.1-23.2 7.8-43.7 23.4-54.6 45.7-11.5 23.6-12.4 51.3.3 74.6 4.8 8.4 18 .7 13.3-7.9z"/><path class="st1" d="M2297.7 1918.4c-12.4-23 2.1-50 24.7-59.5 21.8-9.2 47.8-4.3 67.5 7.7 24.5 14.8 39.8 42.3 38.2 71-.7 12.4-5.8 24.2-15.8 31.8-12.7 9.6-29.1 13.7-44.8 12-16.5-1.8-30.2-12.6-40.6-24.8-5.6-6.6-10.3-13.9-14.9-21.2-2.1-3.4-4.2-6.8-6.4-10.1-2.7-4-6.7-6.8-10.6-9.6-3.3-2.5-8.5-.5-10.5 2.7-2.3 3.9-.6 8 2.7 10.5 7.1 5.3 10.9 13.5 15.7 20.8 4.8 7.3 10 14.6 16 21 11.9 12.8 27.2 23 44.7 25.5 33.9 4.9 72.9-13.7 78.7-49.9 5.6-34.5-11.2-69-39.1-89.1-22.9-16.5-55-23.6-82.1-14.2-16 5.6-30.2 16.5-37.4 32.1-7.6 16.3-8 34.9.7 50.9 4.7 8.8 17.9 1.1 13.3-7.6z"/><path class="st1" d="M2235.1 1922.3c-12.1-22.1-12-48.9-2.3-71.9 9.7-22.9 28-39.8 50.5-49.9 42.6-19.3 94.5-10.3 133.8 12.6 49.3 28.8 80.9 82.9 78.7 140.3-1 25.6-10.8 49.9-30.9 66.3-24.3 19.7-56.1 27.8-86.9 26-29.9-1.7-55.6-17.9-76.3-38.6-20.9-21-35.6-46.9-51.6-71.6-4.3-6.7-11.3-11.3-17.7-16-3.3-2.5-8.5-.5-10.5 2.7-2.3 3.9-.6 8 2.7 10.5 3.2 2.4 6.4 4.8 9.5 7.4 3.1 2.7 5.1 6.7 7.3 10.2l12.9 20.4c8.7 13.5 18 26.7 28.6 38.8 21.1 24 48.9 44.3 81 49.8 33.5 5.7 68.8-1.2 97.7-19 25.1-15.5 42.2-39.2 47.4-68.4 11.1-63-20.3-127.4-71.4-163.8-41.6-29.6-98.9-42.6-148.2-26.3-25.5 8.4-48.6 24.5-62.9 47.5-14.7 23.7-20.3 53.5-12.9 80.6 1.9 7 4.8 13.7 8.2 20.1 4.8 8.6 18 .9 13.3-7.7z"/><path class="st5" d="M2249.5 1978.1c10.6-23.6 27.9-44.6 50.8-57 22.8-12.3 50-13.4 73-1 10.9 5.8 20.5 14.1 27.1 24.6 6.5 10.4 11.3 23.7 6.9 35.8-10 27.4-45.3 32.8-70.1 26.8-15.8-3.9-30.6-10.9-45.2-18.2-15-7.5-30.1-14.5-45.4-21.5-3.8-1.7-8.2-1-10.5 2.7-2 3.3-1 8.7 2.7 10.5 15.2 7 30.4 14 45.4 21.5 15 7.4 30.3 14.8 46.5 19.1 30.9 8.2 69.3 2 86.9-27.5 16.7-27.9-1.7-61.6-24.8-79.2-24.3-18.5-56.5-23.8-85.3-13.5-32.2 11.5-57.5 38.4-71.4 69.2-1.7 3.8-1.1 8.2 2.7 10.5 3.5 1.8 9 .9 10.7-2.8z"/><path class="st7" d="M2660.7 1526.3c-163 97.9-331.9 183.5-487.8 290.5"/><path class="st4" d="M2654.3 1515.3c-63.4 38.1-127.9 74.4-192.2 110.9-64.1 36.4-128.1 72.9-190.9 111.6-35.4 21.9-70.4 44.4-104.7 67.9-5.7 3.9-8.2 11.2-4.6 17.4 3.3 5.6 11.7 8.5 17.4 4.6 60.8-41.6 123.6-80.2 187.1-117.3 63.7-37.3 128.2-73.2 192.3-109.8 36.3-20.8 72.5-41.8 108.4-63.3 14.1-8.4 1.3-30.4-12.8-22z"/><path class="st5" d="M1995.1 1482.9c10.6-5.1 20.6-5.2 30.3-3 3.3.7 6.5 1.6 9.8 2.6 37.2 15.5 73.8 4.3 109.5-8.9-1.4-3.5-3.1-6.5-5-9.1s-4.2-4.7-6.6-6.4c-12.9-9-29.2-8-43.4-2.9-15.3 5.1-30.6 9.2-47.2 9.8-3.8.2-7.5.5-11.2.9-11.1 1.4-21.4 4.3-30 12.3-2.2 1.7-4.3 3.3-6.2 4.7z"/><path class="st5" d="M2000.3 1491.7c10.4-4.7 21.7-3 32.3.6 12.8 4.3 25.1 7.6 38.8 7.9 26.3.5 51.8-7.8 76.1-16.8 4.6-1.7 9.4-7.1 7.1-12.5-6.4-15.4-18.2-26.3-35.1-28.9-15.9-2.5-29.7 3-44.8 7.3-7.4 2.1-15 3.9-22.7 4.9-8.3 1-16.7 1.1-25 2.3-7.1 1-13.9 2.9-20.3 6-6.9 3.3-12.7 8.7-18.7 13.4-4.3 3.4-3.5 10.9 0 14.4 4.3 4.3 10 3.4 14.4 0 4.5-3.5 8.8-7.4 13.9-9.9 4.6-2.2 9.8-3.4 14.8-4.1 6.9-1 14-.9 20.9-1.7 7.1-.8 14-2 20.9-3.7 18.8-4.6 51.1-20.6 62 5.5 2.4-4.2 4.7-8.4 7.1-12.5-24.4 9-49.9 17.7-76.2 15.8-13-.9-24.3-6.5-36.8-9.3-13.6-3.1-26.3-1.8-39 3.9-5 2.3-6.2 9.5-3.7 13.9 3 5 8.9 5.8 14 3.5z"/><path class="st6" d="M2203.4 1923.5c-55.6-61 27.7-120.4 50.3-175.2 4.5-10.7 5.5-21.1 4.2-31.2-1.4-10.1-5.1-19.9-10.3-29.3-10.8-18.5-26.1-34.4-39.5-51.2-4.5-5.6-8.7-11.4-12.5-17.4-5-6.9-8.5-13.8-10.9-20.7-2.4-6.9-3.6-13.9-3.9-20.8-1.6-47.1 47.3-88.8 35.1-125.5-7.1-23.4-60.1 9.2-93.7 7.7-4.8.6-9.5 1.1-14.3 1.7-7.3.6-14.6 1.1-21.9 1.4-7.3.4-14.6.7-21.9 1-9.1.5-18.2 1.2-27.4 2.4-14.3 2-28.5-1-42.8 1-6.1 2-12.2 2-17.2 4.4-3.3 1.1-6.6 2.3-9.8 3.8-39.1 18.1-65.3 62.1-65.3 104.9-1.2 35.7 27.4 63.1 45.1 91.4 3.8 6.2 7.1 12.6 9.6 19.2 3 7.7 4 15.4 3.6 22.9 1.2 9.3-3.6 17.6-7.1 25.9-4.7 8.7-10.9 17-17.7 25.1-6.8 8.1-14.3 16.1-21.6 24.1-13.4 13.2-23.4 29.9-29.3 47.9-2 6-3.5 12.2-4.5 18.4-3.5 25.7-.7 52.3 12 74.9 2.5 4.5 5.5 8.9 8.9 13 10.7 10.7 26.1 15.4 41.2 16.6 5 .4 10 .4 14.8.1 34.5-2.4 70.2 19 103.5 3.6 6.1-3 12.1-6.4 17.8-10.1 24.8-19.4 54.5-39.1 86.8-36.7 6.4.5 13 1.9 19.6 4.3 6.8 1.4 13.3 2.2 19.1 2.4z"/><path class="st4" d="M2210.6 1916.3c-7.6-8.4-13.1-17.9-15.2-29-1.7-8.7-.1-18.5 3-27.7 7-21.1 21.6-40 34.5-58 13.6-19 30.5-40.1 34.5-63.7 5.8-33.9-13.7-62.2-34.3-87-18.5-22.2-43.1-46.4-42.2-77.4.7-23.8 14.5-45.2 24.4-66 4.9-10.2 9.8-21 11.6-32.3 1.6-10.2 1.8-22.4-3.9-31.5-11.1-17.7-37.9-8.4-53.6-3.8-10.9 3.2-21.8 6.6-33 8.7-4.7.9-8.6 1-13.8 1.2-7.9.3-15.9 1.8-23.8 2.3-17.1 1.2-34.4 1.3-51.5 2.9-8.5.8-16.8 2.1-25.4 2-8.4-.1-16.9-.9-25.3 0-57.3 5.6-99.5 58.1-104.8 113.3-1.3 13.5-.3 27.1 4.4 39.8 4.7 12.9 11.8 24.6 19.6 35.8 7.5 10.7 15.6 21 22.4 32.1 7.5 12.4 13.5 26.7 11.3 41.6-1 6.5-4.6 13.6-7.9 19.2-3.9 6.6-8.5 12.7-13.4 18.5-10.1 12.1-21.8 22.9-31.6 35.3-19.5 24.8-29.6 55.2-28.8 86.7.8 28.8 10.7 65.4 37.4 80.8 13.1 7.5 28.6 10.4 43.6 10.5 7.5 0 14.9-.6 22.4.1 7 .7 14 2.1 20.9 3.4 14.6 2.9 29.6 6.2 44.6 5.4 16.3-.9 30.8-7.2 44.3-16 12.4-8.1 23.6-17.7 36.8-24.7 12.5-6.7 26.2-11.6 40.4-11.7 7.4-.1 14.1 1.4 21.1 3.5 7.6 2.3 16 3 23.9 3.3 13.1.4 13.1-19.9 0-20.4-15.1-.5-29-6.7-44.1-6.8-15.3-.1-30 4.3-43.8 10.6-13.2 6.1-25.3 14.2-36.9 23-11.2 8.5-23.8 16.8-38.1 18.6-13.7 1.7-27.7-1.4-41.1-4-14.2-2.8-28.5-5.5-43.1-4.8-13.5.7-27.8-.4-39.9-7.1-11.7-6.5-18.4-19.6-22.5-31.9-9.1-27.1-7.3-58.4 5.3-84.2 13.1-26.9 37.8-45.4 54.8-69.5 8.5-12.1 16.4-27.1 16.1-42.2-.2-7.8-.4-15.4-2.8-22.9-2.3-7.4-5.8-14.6-9.6-21.3-12.6-22.2-31.9-40.7-41.3-64.8-8.8-22.5-4.7-48.8 5.4-70.1 10.3-21.9 27.3-40.8 49.4-51.1 6.7-3.1 13.5-4.7 20.6-6.3 7.8-1.7 15.3-1.6 23.2-1.4 16.4.6 32.4-2.2 48.8-3 16.4-.8 32.9-1.1 49.2-3 11.8-1.4 23.4-1.6 35-4.2 10.7-2.5 21.1-5.8 31.6-8.8 4.7-1.3 9.5-2.6 14.3-3.5 1-.2 2.1-.4 3.1-.5-1.6.2.7-.1 1.2-.1 2.1-.1 4.1-.2 6.1 0-1.7-.2-.7-.1.3.2 2.2.6.4-.2.2 0 .1-.1.8.5.9.5 1.1.3-.9-.4-.7-.6l.7.7c.5.3-.4-1.1-.3-.4 0 .3.4.7.5.9 0-.1-.7-1.8-.3-.7.3 1 .7 2.1.9 3.1.7 2.7.7 2.7.8 5.7.3 8.8-2.7 17.8-6.4 26.5-9.5 22.1-23.2 42.6-28.4 66.3-3.1 14-3 28.4 1.1 42.2 4.5 15.1 13.7 28.2 23.2 40.5 17.7 23 42.5 44.7 49.6 73.9 6 24.7-8.4 45.5-21.9 65-23.8 34.3-61.6 76.1-47.4 121.4 3.7 11.9 10.5 22.2 18.8 31.5 9.2 9.6 23.6-4.9 14.9-14.6z"/><path class="st1" d="M2168.4 1481.7c-24.2 23-37.5 56.4-34.2 89.9 3.2 32.4 17.4 63.9 39.6 87.6 10 10.6 18.6 21.8 23.1 35.9 4.1 12.8 4.7 26.3.3 39.1-5 14.7-17.1 25.5-27.8 36.1-11.5 11.5-23.1 22.9-32.2 36.4-23.2 34.2-15.9 76.9-7.4 114.8 2.2 9.6 16.9 5.5 14.7-4.1-7.1-31.7-15-69.4 3.2-98.9 8.3-13.5 19.6-24.6 30.7-35.7 10.8-10.7 22.7-21.6 29.6-35.4 12.8-25.9 7.8-56.2-7.7-79.9-8.4-12.8-20.3-22.7-28.7-35.5-8.6-13-14.9-27.4-18.8-42.5-9-35.5-.6-71.6 26.3-97.1 7.2-6.7-3.6-17.5-10.7-10.7z"/><path class="st4" d="M2123.8 1489c-19 27.1-41.4 57.2-40.3 92.1.9 28.8 18.8 52.1 35 74.4 7.9 10.9 15.9 22.1 21.4 34.5 3.5 8 4.5 15.4 4.6 24 .1 8.3-2.7 15.4-6.5 22.8-7.6 14.8-19.7 27.2-30.9 39.4-12 13.1-24.3 26.2-33.5 41.4-20.5 33.9-6.5 72.8 1.6 108.2 2.2 9.6 16.9 5.5 14.7-4.1-6.7-29-20.7-64.2-5.3-92.7 16.1-29.9 45.2-50.4 63.3-79 4.3-6.8 8-14.6 10.4-22.4 2.4-8 2.1-17 1-25.2-1.9-14.4-9.1-27.6-17-39.6-14.5-22.2-34.8-42.7-41.6-69-9.3-36.1 16.9-69.6 36.3-97.3 5.6-7.8-7.6-15.5-13.2-7.5z"/><path class="st7" d="M2674.1 1575.5c-126.8 50.2-246.9 112.1-369.8 172.4-14.6 7-29.2 14.2-43.8 21.4-43.6 21.6-86.9 44.1-129.6 67.7"/><path class="st4" d="M2670.7 1563.3c-73.3 29.1-144.9 62.1-215.9 96.4-70.6 34.2-141.1 68.8-211.3 103.9-40.1 20-79.8 40.7-119 62.4-14.3 7.9-1.5 29.9 12.9 22 68.7-38 139.3-72.2 209.7-106.9 69.7-34.5 139.3-69.2 210.1-101.6 39.7-18.2 79.8-35.5 120.4-51.7 6.4-2.5 10.9-8.5 8.9-15.7-1.8-6-9.3-11.4-15.8-8.8z"/><path class="st1" d="M2740.8 1679.9c-9.3-5.5-18.2-11.4-27-17.5-65.2-44.2-130.4-107.3-215.9-98.2-39.7 5.1-79.4 33.6-77.4 76.4 3.1 114.1 143.6 136.5 234.7 149 7.8 1.2 15.6 2.4 23.3 3.6 7.7 1.2 15.4 2.2 23.1 3.3"/><path class="st5" d="M2746 1671.1c-50.5-30.1-93.8-71.5-147.1-97-50.1-24-114.7-33.1-160.5 5.2-10.2 8.5-18.2 19.5-23.2 31.8-4.9 12.2-5.6 25.3-4.4 38.3 2 21.6 8.9 42.6 21.6 60.3 25.4 35.2 66.2 54.7 106.7 67.2 43.5 13.4 88.9 19 133.8 25.7 8.7 1.3 17.3 2.5 26 3.7 5.4.7 10.9-1.3 12.5-7.1 1.3-4.7-1.6-11.8-7.1-12.5-25.7-3.5-51.4-7.3-77.1-11.3-20.4-3.2-40.7-7-60.7-12-38-9.5-77.2-23.5-104.9-50.7-13-12.8-22.4-28.1-27.2-45.7-5.5-20.3-6.6-43.3 6.9-61.6 13.4-18 36.9-29.2 58.9-31.3 26.8-2.6 53.4 2.7 78.1 12.9 50.1 20.8 91.9 58.2 136.4 88.4 6.8 4.6 13.7 9 20.8 13.3 11.5 6.7 21.7-10.9 10.5-17.6z"/><path class="st4" d="M2746 1671.1c-50.5-30.1-93.8-71.5-147.1-97-50.1-24-114.7-33.1-160.5 5.2-10.2 8.5-18.2 19.5-23.2 31.8-4.9 12.2-5.6 25.3-4.4 38.3 2 21.6 8.9 42.6 21.6 60.3 25.4 35.2 66.2 54.7 106.7 67.2 43.5 13.4 88.9 19 133.8 25.7 8.7 1.3 17.3 2.5 26 3.7 5.4.7 10.9-1.3 12.5-7.1 1.3-4.7-1.6-11.8-7.1-12.5-25.7-3.5-51.4-7.3-77.1-11.3-20.4-3.2-40.7-7-60.7-12-38-9.5-77.2-23.5-104.9-50.7-13-12.8-22.4-28.1-27.2-45.7-5.5-20.3-6.6-43.3 6.9-61.6 13.4-18 36.9-29.2 58.9-31.3 26.8-2.6 53.4 2.7 78.1 12.9 50.1 20.8 91.9 58.2 136.4 88.4 6.8 4.6 13.7 9 20.8 13.3 11.5 6.7 21.7-10.9 10.5-17.6zM2031.2 1482.2c-21.5 24.5-39 53.8-42.9 86.7-2 17.2 1.2 33 8.9 48.5 7.3 14.6 17.5 27.6 27 40.8 9.4 13 19.7 27.1 23.2 43 1.6 7.3 2 16.2-.4 23.3-2.5 7.8-6.5 15.1-11.1 21.8-9.8 14.3-22.2 26.7-33.8 39.6-10.9 12.1-21.5 24.2-27.2 39.7-11.3 30.6-4.5 65.1 2.5 95.9 2.2 9.6 16.9 5.5 14.7-4.1-5.9-26.3-11.9-55-4.5-81.6 4-14.5 12.9-25.2 22.7-36.3 11.5-13 23.7-25.3 34.2-39.1 4.9-6.5 9.4-13.2 12.7-20.6 3.3-7.4 6.8-15 6.6-23.3-.1-8.4-.4-16.7-3.1-24.8-2.5-7.5-6-14.7-10-21.5-8-13.6-17.9-25.9-26.9-38.8-8.9-12.8-18.4-27.4-20.5-43.3-4.5-35.1 16.5-70.1 38.7-95.3 6.5-7.2-4.3-18-10.8-10.6z"/><path class="st1" d="M1985.1 1482.2c-21.5 24.5-39 53.8-42.9 86.7-2 17.2 1.2 33 8.9 48.5 7.3 14.6 17.5 27.6 27 40.8 9.4 13 19.7 27.1 23.2 43 1.6 7.3 2 16.2-.4 23.3-2.5 7.8-6.5 15.1-11.1 21.8-9.8 14.3-22.2 26.7-33.8 39.6-10.9 12.1-21.5 24.2-27.2 39.7-11.3 30.6-4.5 65.1 2.5 95.9 2.2 9.6 16.9 5.5 14.7-4.1-5.9-26.3-11.9-55-4.5-81.6 4-14.5 12.9-25.2 22.7-36.3 11.5-13 23.7-25.3 34.2-39.1 4.9-6.5 9.4-13.2 12.7-20.6 3.3-7.4 6.8-15 6.6-23.3-.1-8.4-.4-16.7-3.1-24.8-2.5-7.5-6-14.7-10-21.5-8-13.6-17.9-25.9-26.9-38.8-8.9-12.8-18.4-27.4-20.5-43.3-4.5-35.1 16.5-70.1 38.7-95.3 6.4-7.2-4.3-18-10.8-10.6z"/><path class="st3" d="M1670.5 2327.9c4-4.9 7.9-10 11.8-15.2 2.8-4.2 6-8.8 9.3-13.6 11.9-27.1 39.4-38.3 60.8-58.6 5.1-5.1 8.1-12.2 7.1-19.4-6.9-26-28.1-43.3-52.4-47.4-8.1-1.4-16.6-1.2-25 .6-80.5 24.4-179.2 14.3-237.3-52.4-4.6-5.5-8.9-11.4-12.8-17.7-3.9-6.2-7.4-12.8-10.6-19.5-6.5-12.3-12-25.1-16.4-37.7-5.1-13.2 19.4-16.3 31.6-15.3 37.7 0 65.2 26.5 99.8 37.7 6.1 1.9 12.3 3.4 18.5 4.6 34.4 7.6 68-8.6 101.6-12.7 40.7-5.1 75.4 23.4 112 37.7 18.3 7.1 37.7 12.2 57.8 13.8 7.3.5 14.6.7 22.1.4 10.6-.6 21.2-1.7 31.9-3.5 7.1-1.1 14-2.3 20.8-3.4 47.5-7.9 93.8-12.8 141.4-10.8 14.9 1.7 29.9 2.9 44.9 4 12.7-.9 25.4-1.1 37.9-.8 35.2-.7 67.8 11.5 102.5 16.6 60.1 10.2 109-28.5 158.4-55.1 8.5-4.7 16.8-9.7 24.8-15.1 31.8-21.5 56.7-50 64.3-90.8 7.1-37.7 15.3-79.4 49.9-98.8 8.1-4.1 22.4-10.2 24.4-2 28.8 93-6.4 186.4-70.1 256.1-7.1 7.7-14.5 15.2-22.2 22.3-30.9 28.1-61.5 54.6-97.1 80.1-7.1 5.1-5.1 17.3 3.1 23.4 21.4 13.2 42.8 20.4 59.7 38 5.6 5.8 10.5 12.5 14.6 20.1 9.2 17.3 18.3 33.6 29.5 48.9-9.2-7.6-18.8-14.5-28.8-21s-20.2-12.5-30.5-18.4c-77.1-36-162.7-52.3-248.7-57.6-10.3-1.4-20.5-2.6-30.7-3.6-79-7.8-158.6-5.6-235.6 9.6-6.4 1.3-12.8 2.6-19.2 4.1-41.9 11.5-83.7 23.7-123.6 39.9-4.3 1.8-8.6 3.7-12.8 5.6-8.5 3.9-16.9 7.9-25.2 12-6.6 2.4-13.4 4.8-20.4 7.3-6.8 2.4-13.9 5-21.1 7.6z"/><path class="st1" d="M2082.8 1482.2c-21.5 24.5-39 53.8-42.9 86.7-2 17.2 1.2 33 8.9 48.5 7.3 14.6 17.5 27.6 27 40.8 9.4 13 19.7 27.1 23.2 43 1.6 7.3 2 16.2-.4 23.3-2.5 7.8-6.5 15.1-11.1 21.8-9.8 14.3-22.2 26.7-33.8 39.6-10.9 12.1-21.5 24.2-27.2 39.7-11.3 30.6-4.5 65.1 2.5 95.9 2.2 9.6 16.9 5.5 14.7-4.1-5.9-26.3-11.9-55-4.5-81.6 4-14.5 12.9-25.2 22.7-36.3 11.5-13 23.7-25.3 34.2-39.1 4.9-6.5 9.4-13.2 12.7-20.6 3.3-7.4 6.8-15 6.6-23.3-.1-8.4-.4-16.7-3.1-24.8-2.5-7.5-6-14.7-10-21.5-8-13.6-17.9-25.9-26.9-38.8-8.9-12.8-18.4-27.4-20.5-43.3-4.5-35.1 16.5-70.1 38.7-95.3 6.5-7.2-4.3-18-10.8-10.6z"/><path class="st1" d="M1910.2 1430c-.5 34.4 32.1 61.9 64.7 65.9 42.8 4.1 91.7-16.3 103.9-60.1 23.4 49.9 84.5 77.4 133.4 45.8 10.7-5.6 19.4-13.5 25.7-23 6.3-9.5 10.4-20.5 11.8-32.4"/><path class="st4" d="M1900 1430c-.1 36.5 30.3 66.3 64.5 74.4 30.9 7.3 67.7-1.5 92.8-20.7 15-11.5 26-26.9 31.3-45.1l-18.6 2.4c13.5 28.3 38.8 50.9 68.9 60.1 32 9.8 65.5 1.4 91.3-19.2 17.4-13.8 26.8-33.9 29.6-55.6.7-5.5-5.2-10.2-10.2-10.2-6.1 0-9.5 4.7-10.2 10.2-3.9 29.7-29.1 50.7-57.2 57.1-23.5 5.3-48.9-2.6-67.5-17.8-11.6-9.5-20.7-21.3-27.2-34.9-3.9-8.2-16.3-5.5-18.6 2.4-7.4 25.4-29.2 42.1-54 49.1-25.7 7.3-54.1 5.6-75-12.6-11.7-10.2-19.6-23.8-19.6-39.6.1-13.1-20.3-13.1-20.3 0z"/><path class="st8" d="M1888.8 2226.3c-74.5-25-149.7-65-210.1-118.9-12.1-10.8-23.6-22.1-34.2-34-50-61.1-98.9-146.7-75.4-227.1 24.4 14.3 53 22.4 80.6 29.6 14 3.3 28.2 6.1 42.5 8.9 14.3 2.8 28.6 5.5 42.8 8.6 10.5 2.2 21.1 4.3 31.7 6.2 74 13.7 149.1 21.5 224.5 22.1 21.5.2 43.1-.3 64.7-1.3 19.2-.8 38.4-1.9 57.6-3.1 108.9-11 220.3-11.7 326.4-40.2 8.2-2.2 16.3-4.5 24.4-6.9 33.5-8.5 66.1-17.6 98.7-27.8 5.1 22.4 3.1 45.8-2.8 67.5-3.3 8.9-6.8 17.7-10.6 26.4-102.2 233.3-388.5 357.2-632 297.8-9.7-2.6-19.3-5.1-28.8-7.8z"/><path class="st5" d="M1891.5 2216.5c-65.3-22-128.3-54-182.4-96.8-27.5-21.8-52.8-46-73.5-74.3-19.8-27.1-37.6-56.5-49.2-88.2-12.7-34.7-17.7-72.1-7.4-108.1-5 2-10 4.1-15 6.1 26.9 15.5 57.7 24.8 87.8 31.7 32.9 7.5 66.2 13.7 99.3 20.2 66.3 12.9 133.6 21.2 201.1 23.9 33.9 1.4 67.8 1.3 101.7-.3 33.5-1.6 66.7-4.2 100.1-6.9 65.3-5.4 130.8-8.9 195.7-18.3 32.2-4.7 64.3-10.8 95.7-19.4 32.3-8.8 64.7-17.2 96.8-26.8 7.9-2.3 15.7-4.7 23.5-7.2-4.2-2.4-8.4-4.7-12.5-7.1 3.9 17.8 3.1 36.2-.8 53.9-3.5 16-10.9 31.4-18 46.2-11.8 24.6-25.8 48.2-41.7 70.4-31 43.3-69.5 81.4-112.5 112.7-43.7 31.9-92 57.4-142.8 75.8-51.1 18.4-104.8 30-159.1 33.4-53.9 3.4-108.4-.7-160.8-14-8.6-2.2-17.3-4.5-26-6.9-12.6-3.6-18 16.1-5.4 19.6 56.9 16 115.2 24.4 174.4 22.5 56.3-1.8 112.5-11.8 166-29.3 53.7-17.6 105.2-42.6 151.7-74.7 46.5-32 88-70.7 122.3-115.5 17-22.2 32.2-45.8 45-70.6 7.3-14.2 13.9-28.7 19.8-43.5 7.1-17.9 10.8-36.9 10.8-56.2 0-9.8-1.2-19.6-3.3-29.1-1.1-5.3-7.5-8.7-12.5-7.1-31.4 9.8-63 18.7-94.8 26.8-15.7 4-31.2 8.9-47.1 12.6-15.7 3.7-31.5 6.9-47.4 9.7-63.4 11-127.8 14.9-192 19.8-32.5 2.5-64.8 5.8-97.4 7.6-33.8 1.8-67.7 3-101.6 2.4-66.4-1.1-132.6-7.8-198-19.3-32.8-5.8-65.3-12.8-98-19.2-30.3-6-61.2-13-89.7-25.2-7-3-13.7-6.4-20.3-10.2-5.7-3.3-13.2-.3-15 6.1-20 70 10.6 142.1 49.8 199.5 9.9 14.4 20.3 29 32.1 41.8 13.2 14.3 27.5 27.7 42.4 40.2 28.1 23.5 58.5 44.1 90.5 61.9 35.7 19.8 73.3 36.2 112 49.2 12.8 4 18.1-15.7 5.7-19.8z"/><path class="st8" d="M1888.8 2226.3c-74.5-25-149.7-65-210.1-118.9-12.1-10.8-23.6-22.1-34.2-34-50-61.1-98.9-146.7-75.4-227.1 24.4 14.3 53 22.4 80.6 29.6 14 3.3 28.2 6.1 42.5 8.9 14.3 2.8 28.6 5.5 42.8 8.6 10.5 2.2 21.1 4.3 31.7 6.2 74 13.7 149.1 21.5 224.5 22.1 21.5.2 43.1-.3 64.7-1.3 19.2-.8 38.4-1.9 57.6-3.1 108.9-11 220.3-11.7 326.4-40.2 8.2-2.2 16.3-4.5 24.4-6.9 33.5-8.5 66.1-17.6 98.7-27.8 5.1 22.4 3.1 45.8-2.8 67.5-3.3 8.9-6.8 17.7-10.6 26.4-102.2 233.3-388.5 357.2-632 297.8-9.7-2.6-19.3-5.1-28.8-7.8z"/><path d="M2563.1 1842.2c-8.1 2.5-16.3 5-24.5 7.5-23.3 4.5-49.5 7.7-73.3 14.8-28.3 8.4-51.9 20.8-66.5 47.6-10.6 19.3-15.9 40.9-23.5 61.6-36.9 100.6-126.9 178.9-235.6 184.8-75.3 4.1-147.8 4.2-222.4 16.1-5.5 1.2-11 2.5-16.5 3.9s-10.9 2.8-16.4 4.3c-20.1 5.6-40 11.9-60 17.9 21.3 9.7 43 18.3 64.6 25.5 9.4 2.7 19.1 5.2 28.9 7.6 11.4 2.8 22.9 5.2 34.5 7.2 11.6 2 23.2 3.6 34.9 4.8 121.7 11.9 247-23.8 352.4-82.4 10.6-6.3 21-12.9 31.3-19.8 30.7-20.7 59.6-44.1 86.3-69.9 7.2-7.1 14.1-14.4 20.7-22.1 6.6-7.7 12.8-15.6 18.5-24 4.5-6 8.9-12.1 13.1-18.3 4.2-6.2 8.2-12.6 12.1-19 8-12.8 14.1-26 21.4-39.7 3.2-6.8 6.3-13.6 9.2-20.4 2.9-6.8 5.7-13.7 8.3-20.6 2.9-10.9 4.9-22.1 5.5-33.5.3-11.2-.5-22.7-3-33.9z" style="fill:#80c6ed"/><path class="st3" d="M2511.4 1994.1c-12.7-11.5-28.3-19-45.7-19-16 0-31.5 5.8-45 14-14 8.5-26.5 19.5-37.4 31.7-5.4 6.1-10.1 12.7-15.9 18.4-6.6 6.5-13.5 12.6-21.5 17.3-7.5 4.4-15.1 6.3-22.7 6.1l-16.3 18c3.2 1 6.5 1.7 9.9 2.2 19.2 2.5 36.7-5.6 51.5-17.2 7.6-6 15.1-12.8 21-20.5 4.3-5.6 9-10.9 13.9-16 18.6-19.1 47.1-40.6 75.4-31.8 6.9 2.2 13.1 6.2 18.4 11.1 9.7 8.9 24.1-5.5 14.4-14.3z"/><path class="st1" d="M2299.3 2054.7c-12.2-7.7-22-18.7-33.4-27.4-12-9.1-26.5-15.6-41.9-14-19.7 2-36.5 11.9-50.9 25.1-6.6 6.1-12.7 12.8-18.7 19.4-6.1 6.6-11.9 13.8-19.4 18.7-15.9 10.4-34.5 10.6-52.2 4.8-17-5.6-32.5-15.9-46.5-27-15-11.8-28.1-25.7-47-30.9-34.3-9.3-68.2 10-94.5 30.1-13.2 10.1-25.8 22.7-42 27.8-12.4 3.9-24.7 2.6-36.1-3.2-25.2-12.7-42.8-37.6-59-59.8-9.3-12.8-22-22.2-37.7-25.6-14.7-3.2-30.5-1.7-44.5 3.9-7.1 2.8-13.8 6.3-19.9 10.9-4.4 3.3-6.7 8.8-3.7 13.9 2.5 4.3 9.5 7 13.9 3.7 20.4-15.2 51.4-20.8 70.6-.9 4.7 4.9 8.4 10.8 12.5 16.2 4.6 6.1 9.3 12.2 14.2 18 9.7 11.5 20.3 22.2 32.7 30.8 11.8 8.2 25.5 13.8 40 14.6 16.8.9 32.3-5.7 46-14.7 14-9.3 26.1-21 40.3-30.1 12.9-8.3 27.5-15.9 43-17.4 16.5-1.6 30 4.6 42.3 15.1 14.5 12.4 29.5 24.5 46.3 33.7 16.5 9 35.3 15.8 54.3 15.3 20-.6 39-9.9 52.5-24.4 11.7-12.5 22.6-26.6 36.8-36.5 12.5-8.8 28.4-14.8 43.3-9.1 12.1 4.7 21.9 15 31.6 23.5 10.4 9.1 21.7 17.3 34.8 21.4l16.3-18c-8.2-.2-16.2-2.9-24-7.9z"/><path class="st4" d="M1891.5 2216.5c-65.3-22-128.3-54-182.4-96.8-27.5-21.8-52.8-46-73.5-74.3-19.8-27.1-37.6-56.5-49.2-88.2-12.7-34.7-17.7-72.1-7.4-108.1-5 2-10 4.1-15 6.1 26.9 15.5 57.7 24.8 87.8 31.7 32.9 7.5 66.2 13.7 99.3 20.2 66.3 12.9 133.6 21.2 201.1 23.9 33.9 1.4 67.8 1.3 101.7-.3 33.5-1.6 66.7-4.2 100.1-6.9 65.3-5.4 130.8-8.9 195.7-18.3 32.2-4.7 64.3-10.8 95.7-19.4 32.3-8.8 64.7-17 96.8-26.7 7.9-2.4 15.7-4.8 23.5-7.3-4.2-2.4-8.4-4.7-12.5-7.1 5.4 30.3-1.7 61.3-13.8 89.1-12.8 29.6-29.8 58.2-48.7 84.2-31.7 43.6-71.2 81.9-115 113.2-43.8 31.3-92 56.3-142.8 74.1-50.6 17.8-103.5 28.8-157 32-53.8 3.2-107.9-1.3-160.2-14.6-8-2.1-16.1-4.3-24.2-6.5-12.6-3.6-18 16.1-5.4 19.6 55.9 15.7 113.1 24.1 171.2 22.6 56.1-1.5 112-11.1 165.4-28.2 53.4-17.1 104.6-41.5 151-72.9 45.9-31 87.6-68.6 121.8-112.2 20.9-26.6 39.2-55.5 54.3-85.8 14.6-29.4 25.8-61.3 25.5-94.5-.1-8.6-1.1-17.1-2.6-25.5-.9-5.3-7.6-8.6-12.5-7.1-31.4 9.8-63 18.7-94.8 26.8-15.7 4-31.2 8.9-47.1 12.6-15.7 3.7-31.5 6.9-47.4 9.7-63.4 11-127.8 14.9-192 19.8-32.5 2.5-64.8 5.8-97.4 7.6-33.8 1.8-67.7 3-101.6 2.4-66.4-1.1-132.6-7.8-198-19.3-32.8-5.8-65.3-12.8-98-19.2-30.3-6-61.2-13-89.7-25.2-7-3-13.7-6.4-20.3-10.2-5.7-3.3-13.2-.3-15 6.1-20 70 10.6 142.1 49.8 199.5 9.9 14.4 20.3 29 32.1 41.8 13.2 14.3 27.5 27.7 42.4 40.2 28.1 23.5 58.5 44.1 90.5 61.9 35.7 19.8 73.3 36.2 112 49.2 12.9 4.1 18.2-15.6 5.8-19.7z"/><path class="st8" d="M1597.9 2009.2c-30.6-8.4-62.2-18-89.1-34.2-7.4 24.2-9 48.9-6.1 73.4 1.2-9.7 3.2-19.3 6.1-28.8 26.9 16.3 58.5 25.8 89.1 34.2 12.5 3.2 25.2 6 37.9 8.7-12.6-16.3-24.9-34-35.7-52.7-.7-.2-1.4-.4-2.2-.6z"/><path class="st5" d="M1600 2001.9c-30.1-8.3-60.3-17.3-87.3-33.5-4.3-2.6-9.8-.1-11.2 4.6-7.4 24.5-9.2 50.1-6.4 75.4 1.1 9.9 14 9.7 15.3 0 1.2-9.1 3.2-18 5.9-26.8-3.7 1.5-7.5 3-11.2 4.6 39 23.3 84.8 34.3 128.8 43.7 8 1.7 12-6.9 7.4-12.8-7.2-9.3-14-18.8-20.5-28.6-3.1-4.7-6.2-9.5-9.1-14.4-3.4-5.3-5.2-10.6-11.7-12.2-9.5-2.3-13.6 12.4-4.1 14.7.7.2 1.5.4 2.2.5-1.5-1.2-3-2.3-4.6-3.5 11 19 23.5 36.9 36.9 54.2 2.5-4.3 5-8.5 7.4-12.8-42.7-9.1-87.3-19.5-125.2-42.1-4.3-2.6-9.8-.1-11.2 4.6-3 10.1-5.1 20.4-6.4 30.8h15.3c-2.7-24.1-1.1-48.1 5.9-71.3-3.7 1.5-7.5 3-11.2 4.6 28.1 16.8 59.6 26.4 91 35 9.4 2.6 13.4-12.1 4-14.7zM2051.3 1409.4c-3.6 13.1 18.1 15.2 26.3 15.3 7.1.1 14.4-1.4 20.6-5 2.2-1.3 4.3-2.9 5.6-5.1 2.4-4.1.6-8.1-3.2-10.3-1.6-.9-3.7-1.8-6.1-2.4-12-1.8-27.6-5.8-38.6 1.6-2.6 1.6-4.1 3.7-4.6 5.9z"/><path class="st4" d="M2041.4 1406.7c-3.4 15 8.5 24 21.8 26.7 14.6 2.9 31.4 2.3 43.6-7.3 8.1-6.4 11-17.8 3.9-26.1-5.7-6.6-14.3-8-22.5-9.2-16.7-2.8-39.8-3.6-46.8 15.9-1.9 5.2 2.1 11.1 7.1 12.5 5.6 1.6 10.7-1.9 12.5-7.1-.1.3 1.8-1 2.8-1.4 1.7-.7 3.6-1 5.4-1.2 4.2-.4 8.6.1 12.8.7 2.5.4 4.9.8 7.4 1.2 1.2.2 4.9 2 5.8 1.7-.6.1-.3-1.8-.5-2.3-1.4-3.1.8-.8-.4-.8-1.1 0-5 2.7-6.4 3.1-4.1 1.2-8.1 1.6-12.3 1.4l-3.9-.3c-3-.3 1.1.2-.7-.1-.8-.1-1.7-.3-2.5-.4-1.5-.3-3-.7-4.5-1.1-1.9-.5-.5-.1-2.6-1.1-2.6-1.3.9.5-.5-.2-1.5-.7 0-1.2-.3-.2-.2.7.7 1.4.1.2.3.6-.3 3.1.2.8 3.1-12.8-16.5-18.2-19.5-5.4z"/><path class="st10" d="M2294.5 1398.6c4.3-2.2 9-3.8 13.8-5.2 5-1.4 10.2-2.6 15.5-3.5 42.8-7.1 94.5 4.1 98.5 39.5 2.5 25.3-24.9 37.9-52.2 42.2-24.9 3-53.4-1.5-74.3-13.9-19-11.3-28.3-33.3-13.3-50.2 3.3-3.7 7.5-6.6 12-8.9zM1863.1 1398.6c-4.3-2.2-9-3.8-13.8-5.2-5-1.4-10.2-2.6-15.5-3.5-42.8-7.1-94.5 4.1-98.5 39.5-2.5 25.3 24.9 37.9 52.2 42.2 24.9 3 53.4-1.5 74.3-13.9 19-11.3 28.3-33.3 13.3-50.2-3.3-3.7-7.4-6.6-12-8.9z"/><path class="st4" d="M2374.5 1369c-2.7-29.2-19.9-62.4-52.4-64.9-34.8-2.8-52.7 30.8-60.7 59.4-4.4 15.8 20.2 22.6 24.6 6.8 3.2-11.5 5.9-19.7 12.7-29.5 5.2-7.5 12.4-11.2 22.2-11.4 3.2 0-1.5-.6 1.6.2 1.2.3 2.3.6 3.5.9 1.4.5 1.5.5.3 0 .5.2 1.1.5 1.6.8l3.6 2.1c2.8 1.7-1.2-1.3 1.2 1 .9.8 1.8 1.6 2.7 2.5 1 1 2 2.1 2.9 3.2.6.7.5.6-.1-.1.5.7 1 1.4 1.4 2.1 1.4 2.1 2.7 4.4 3.8 6.6 1.2 2.4 1.4 2.9 2.6 6.5.8 2.4 1.5 4.9 2 7.4.3 1.2.5 2.5.7 3.7.2 1.5.3 1.6.1.3.1.8.2 1.6.2 2.4.6 6.8 5.4 12.7 12.7 12.7 6.5.1 13.4-5.8 12.8-12.7zM1898.8 1369c-2.7-29.2-19.9-62.4-52.4-64.9-34.8-2.8-52.7 30.8-60.7 59.4-4.4 15.8 20.2 22.6 24.6 6.8 3.2-11.5 5.9-19.7 12.7-29.5 5.2-7.5 12.4-11.2 22.2-11.4 3.2 0-1.5-.6 1.6.2 1.2.3 2.3.6 3.5.9 1.4.5 1.5.5.3 0 .5.2 1.1.5 1.6.8l3.6 2.1c2.8 1.7-1.2-1.3 1.2 1 .9.8 1.8 1.6 2.7 2.5 1 1 2 2.1 2.9 3.2.6.7.5.6-.1-.1.5.7 1 1.4 1.4 2.1 1.4 2.1 2.7 4.4 3.8 6.6 1.2 2.4 1.4 2.9 2.6 6.5.8 2.4 1.5 4.9 2 7.4.3 1.2.5 2.5.7 3.7.2 1.5.3 1.6.1.3.1.8.2 1.6.2 2.4.6 6.8 5.4 12.7 12.7 12.7 6.5.1 13.5-5.8 12.8-12.7z"/><path class="st1" d="M1682.1 2321.7c229.9-149.2 552.3-143.2 773 22.4"/><path class="st4" d="M1687.3 2330.5c44.2-28.6 91.9-51.7 141.7-68.7 49.8-17 101.6-28.3 154-33.5 52.8-5.2 106.2-4.6 158.9 2 51.9 6.5 103.2 19.2 152.2 37.5 49.4 18.4 96.5 43.1 139.6 73.3 5.5 3.8 10.9 7.8 16.3 11.8 4.4 3.3 11.4.7 13.9-3.7 3-5.2.8-10.6-3.7-13.9-43.5-32.6-91.2-59.1-141.5-79.7-49.8-20.4-102-34.6-155.1-42.7-53.7-8.2-108.1-10.5-162.3-6.6-54.1 4-107.7 13.8-159.5 29.9-51.7 16-101.6 38.1-147.9 66.1-5.7 3.4-11.4 7-17 10.6-10.9 7.1-.7 24.7 10.4 17.6z"/><path class="st10" d="M2578.7 1854.8c-3.5-10.6-14.9-18.4-26.3-14.8-61.7 19.3-124.6 34.4-188.2 45.9-15.9 2.8-31.8 5.5-47.8 7.9l-22.8 3.3c-.2 0-1.4.2-2 .3-2 .3-4 .5-6.1.8-4.2.5-8.4 1.1-12.6 1.6-31.7 3.8-63.5 6.8-95.4 9.1-64.5 4.5-129.3 5.8-193.9 4.5-31.9-.7-63.7-2.2-95.5-5.4-16.1-1.6-32.1-3.4-48.1-5.5-.9-.1-4.6-.6-4.4-.6-1.5-.2-3.1-.4-4.6-.7-3.9-.5-7.7-1.1-11.6-1.7-8.5-1.3-17-2.6-25.5-4-72.6-12.1-144.2-29.6-214.3-51.9-10.7-3.4-23.8 4-26.3 14.8-2.7 11.6 3.5 22.5 14.9 26.1 63 20 127.3 36.1 192.4 48 65.9 12 132.9 20.6 200 22.6 130.4 4 261.3-2.8 390.1-23.9 72.1-11.8 143.4-28.4 213.2-50.1 10.5-3.5 18.5-15.1 14.8-26.3z"/><path class="st4" d="M2586.1 1852.8c-5-13.8-18.4-23.7-33.5-20.7-8.4 1.7-16.7 5-24.9 7.4-8.9 2.6-17.7 5.1-26.6 7.6-35 9.6-70.3 18-105.8 25.1-70.9 14.2-142.6 23.5-214.6 28.6-74.3 5.3-149 6.7-223.5 3.9-70.5-2.7-140.6-11.8-209.7-25.8-35.4-7.1-70.6-15.5-105.4-25.1-17.1-4.7-34.1-9.7-51.1-14.9-7.6-2.4-14.7-5-22.7-3.4-6.3 1.3-12.3 4.8-16.5 9.6-9.3 10.8-8.6 27.1.6 37.7 5.2 5.9 12.2 8.3 19.5 10.5 8.5 2.7 17.1 5.3 25.6 7.8 34.9 10.3 70.1 19.4 105.6 27.3 71.4 15.8 144.2 27.2 217.2 32.1 73.7 5 148.1 4.1 221.7.2 73.5-3.8 146.8-11.6 219.3-23.9 35.7-6 71.2-13.2 106.4-21.7 17.6-4.2 35.1-8.7 52.6-13.6 8.6-2.4 17.1-4.8 25.6-7.4 8-2.4 16.7-4.2 24.3-7.8 12.6-5.7 19.7-20 15.9-33.5-2.7-9.4-17.4-5.4-14.7 4.1 4.3 15.3-15.5 18.5-25.7 21.6-16.4 4.9-32.9 9.5-49.4 13.9-33.4 8.8-67.1 16.4-101.1 23-69 13.3-138.8 22.2-208.9 27.4-70.4 5.2-141.1 6.7-211.7 5-70.6-1.7-140.6-9.8-210.1-22.4-34.2-6.2-68.1-13.6-101.8-22.1-17-4.3-33.9-8.9-50.8-13.7-8.3-2.4-16.5-4.8-24.7-7.3-4.1-1.3-8.2-2.5-12.3-3.8-3.2-1-6.6-1.8-9.3-3.9-9.1-6.9-5.9-20.7 4.7-23.8 6.4-1.8 13.3 2 19.4 3.8 8.2 2.5 16.3 5 24.5 7.4 33.1 9.6 66.5 18.2 100.2 25.7 65.2 14.4 131.4 24.9 198 29.9 71.1 5.3 142.9 4.9 214.1 1.7 69.9-3.1 139.7-9.7 208.9-20.8 68.6-11 136.4-26.2 202.9-46.2 3.8-1.1 7.6-2.3 11.3-3.5 3.3-1 6.6-2.5 10.1-2 5.3.7 9.8 5.1 11.6 10 3.4 9.2 18.1 5.3 14.8-4z"/><path class="st1" d="M1510.1 2680.5c-3.6-4.1-6.7-8.2-9.3-12.5s-4.8-8.7-6.7-13.6c-1.9-4.9-3.5-10-4.8-15.2-3.8-15.5-5-31.9-4.2-48 .3-7.4.8-14.8 1.7-22.2 5.2-39.2 36.5-74.4 77-74.4 19.6 1.3 39.2 10.4 51.1 27.9 7.6 9.4 13.7 20.4 18.5 31.8 2.4 5.7 4.4 11.6 6.1 17.3 1.7 5.8 3 11.5 4 17"/><path class="st1" d="M1510.1 2680.5c-3.6-4.1-6.7-8.2-9.3-12.5s-4.8-8.7-6.7-13.6c-1.9-4.9-3.5-10-4.8-15.2-3.8-15.5-5-31.9-4.2-48 .3-7.4.8-14.8 1.7-22.2 5.2-39.2 36.5-74.4 77-74.4 19.6 1.3 39.2 10.4 51.1 27.9 7.6 9.4 13.7 20.4 18.5 31.8 2.4 5.7 4.4 11.6 6.1 17.3 1.7 5.8 3 11.5 4 17"/><path class="st3" d="M1643.5 2588.8c-1-5.5-2.3-11.2-4-17-1.7-5.8-3.7-11.6-6.1-17.3-4.7-11.4-10.9-22.4-18.5-31.8-11.9-17.5-31.5-26.6-51.1-27.9-40.5 0-71.8 35.2-77 74.4-.9 7.4-1.5 14.8-1.7 22.2-.8 16 .3 32.5 4.2 48 1.3 5.2 2.9 10.2 4.8 15.2 1.8 4.8 4 9.3 6.7 13.6s5.7 8.4 9.3 12.5c0 0 30-117.6 79.7-113.1 0-.3 37.5 4 53.7 21.2z"/><path class="st4" d="M1522.2 2688c-15.6-35.1-27.8-78.9-20.8-117.5 3.5-19.3 11.7-36.5 26.3-49.7 18.3-16.5 43.8-20.7 65.6-8.3 12.3 7 20.9 19.1 27.7 31.2 8.4 14.9 13.7 31.2 16.7 48 1 5.4 7.6 8.5 12.5 7.1 5.7-1.6 8.1-7.1 7.1-12.5-3-16.7-8.5-33.1-16.3-48.2-6.7-13-15.7-26.7-27.2-36-11.2-9-24.4-14.8-38.7-16.8-16.3-2.3-33.5 1.9-47.7 10.3-20.9 12.4-35.8 33.8-42.7 56.8-6.9 22.8-6.6 47-3.2 70.3 3.8 26.2 12.2 51.4 22.9 75.5 2.2 5 9.6 6.2 13.9 3.7 5.4-3 6.2-8.8 3.9-13.9z"/><path class="st3" d="M2534.3 2588.8c1-5.5 2.3-11.2 4-17 1.7-5.8 3.7-11.6 6.1-17.3 4.7-11.4 10.9-22.4 18.5-31.8 11.9-17.5 31.5-26.6 51.1-27.9 40.5 0 71.8 35.2 77 74.4.9 7.4 1.5 14.8 1.7 22.2.8 16-.3 32.5-4.2 48-1.3 5.2-2.9 10.2-4.8 15.2-1.8 4.8-4 9.3-6.7 13.6s-5.7 8.4-9.3 12.5c0 0-30-117.6-79.7-113.1.1-.3-37.5 4-53.7 21.2z"/><path class="st4" d="M2673.2 2698.3c18.8-42.3 32.3-91.8 21.8-138.1-5.2-23.2-17.9-44.2-36.7-58.9-12.5-9.7-27.3-15.3-43.1-16.6-14.2-1.1-29.5 3.4-41.7 10.6-14.7 8.6-25.5 22.8-33.9 37.4-9.5 16.5-15.9 34.9-19.2 53.6-1 5.4 1.5 11 7.1 12.5 4.9 1.4 11.5-1.7 12.5-7.1 2.7-15 7.2-29.8 14.2-43.3 5.8-11.3 13.3-23.4 23.4-31.4 19.7-15.6 47.2-15.6 67.2-.5 32.7 24.6 37.2 67.7 31 105.4-3.8 22.7-11.1 45.8-20.1 66.1-2.2 5-1.5 10.9 3.7 13.9 4.2 2.6 11.6 1.5 13.8-3.6z"/><path class="st1" d="M1551.4 2735.4c2.4 53-19 110-68.1 135.2-5 2.7-10.1 5-15.4 6.9-93.4 22.6-193.7-13.2-260.9-80.9-13.4-13.5-25.5-28.3-36-44.2-41.8-60.5-54.9-140.2-30.1-209.3 22.2-58.7 67.9-107 129.2-126.6 102.9-33.5 204.7 37.2 244.9 129.2 3.7 8.4 6.8 16.9 9.4 25.6 3.9 12.8 8.5 25.6 12 38.7 1.2 4.3 2.3 8.7 3.2 13.1 1.8 8.6 2.9 17.7 3.1 25.8"/><path class="st4" d="M1541.2 2735.4c1.5 37.1-8.3 76.7-34.1 104.5-13.7 14.7-31.5 26-51.3 29.9-20.4 4.1-41.4 5.1-62.1 3.8-87.6-5.8-167.4-57-215.7-129.1-24.5-36.5-38.5-79.9-39.3-123.9-.8-42 10.9-82.4 34-117.4 21.4-32.3 52.5-58.8 88.7-72.9 37.1-14.5 76.9-15.9 114.7-3.4 37.3 12.3 69.8 36.8 94.9 66.7 12.5 14.9 23.1 31.5 31.6 49.1 5.1 10.7 9.1 21.7 12.7 33 3.8 12.3 8.1 24.4 11.4 36.8 3.3 11.9 5.5 23.8 5.9 36.1.5 13.1 20.8 13.1 20.4 0-1-27.9-10.5-53.8-18.7-80.2-7-22.5-16.9-44.1-29.9-63.8-23.6-35.9-56.2-66.6-94.8-85.7-38.9-19.3-82.9-26.2-125.5-16.8-42.2 9.3-81 33.1-109.5 65.4-29.8 33.9-48.9 75.6-54.6 120.3-6 47.1 3.2 95.6 23.8 138.2 41.3 85 127.3 148.6 220.3 164.4 22.3 3.8 44.9 5.1 67.4 3.2 12-1 24.1-2.8 35.8-5.5 11.3-2.6 22.7-9 32.4-15.4 35.9-24.2 55.3-64.9 60.5-107 1.3-10 1.6-20.1 1.2-30.3-.3-13.1-20.7-13.2-20.2 0z"/><path class="st10" d="M1394.1 2758.6c-50.8-16.8-125.2-29.8-134.3-92.5-2.6-19.6 10.4-44.4 31.3-47 19.6-2.6 35.2 13.1 47 27.4-2.6-20.9 1.3-44.4 16.9-60 6.6-5.9 14.4-7.8 22.1-6.8s15.2 4.9 21 10.8c6.7 7.4 11.6 15.3 15.1 23.6 17.6 44.3-4.6 90-13.8 134.4-1.5 3.5-3.2 6.9-5.3 10.1z"/><path class="st4" d="M1396.8 2748.8c-31.9-10.5-65.7-17.4-93.9-35.7-12.3-8-23.5-19.3-28.9-32.7-6.1-15.3-6.5-32.6 6.3-45 17.7-17.1 39 4.4 50.6 18.4 5.4 6.5 18.4 1.4 17.4-7.2-1.7-14.6-.7-30.1 6.7-43.2 3.4-6 7.8-11.9 14.9-13.4 6.6-1.4 13.5 1.3 18.7 5.4 12.9 10.4 19.4 29.4 20.7 45.3 1.5 18.3-1.9 36.3-6.4 53.9-2.6 10.2-5.5 20.4-8.3 30.5-2.6 9.7-3.8 19.7-9.2 28.3-7 11.1 10.6 21.3 17.6 10.3 2.8-4.4 5.4-9.3 6.7-14.4 1.3-5.3 2.5-10.7 3.9-16.1 2.8-10.8 6-21.5 8.7-32.3 5.5-21.3 9.6-43.6 6.8-65.6-2.8-21.4-12.1-44.4-30.1-57.5-18.1-13.3-42.2-10.6-56.1 7.2-13.5 17.3-17.5 40.1-14.9 61.5l17.4-7.2c-16.2-19.6-40.2-38.8-66.8-27-20.9 9.2-31.8 34.7-28.6 56.5 6.3 42.5 43.1 65.9 80.2 79.9 20.1 7.6 40.9 13 61.2 19.7 12.4 4.1 17.8-15.6 5.4-19.6z"/><path class="st1" d="M2626.7 2739.9c.1 7.3.4 14.6 1 21.9.6 7.3 1.5 14.6 2.8 21.7 5.3 28.6 17 55.3 41.2 73 5.4 4.5 11.1 8.5 17.2 12s12.5 6.5 19.1 9c93.4 22.6 193.7-13.2 260.9-80.9 13.4-13.5 25.5-28.3 36-44.2 41.8-60.5 54.9-140.2 30.1-209.3-22.2-58.7-67.9-107-129.2-126.6-74.2-24.2-147.9 5.9-198.2 59-7.2 7.6-13.9 15.7-20.1 24.1-29.6 43.4-50 95.3-55.6 146.9"/><path class="st4" d="M2616.5 2739.9c.4 24.6 2.8 49.9 11.5 73.1 7.9 21 20.3 38 37.9 51.8 9.5 7.5 19.4 14 30.5 18.8 10.9 4.8 22.4 6.7 34.2 8.3 21.6 2.9 43.5 3.2 65.2.6 91.3-10.8 172.6-64.6 222.1-141.4 49-75.9 54.3-177.4 5.4-254.6-21.8-34.3-52.8-63.1-89.8-80.3-41.4-19.2-87.6-24-131.7-11.4-42.9 12.3-81.3 39-110.2 72.8-31.8 37.3-53.3 85.3-64.1 132.9-2.7 11.8-4.6 23.7-5.9 35.7-.6 5.5 5.1 10.2 10.2 10.2 6 0 9.6-4.7 10.2-10.2 5.1-44.8 21.3-88.4 44.6-126.8 22.1-36.4 54.8-66.5 93.3-84.7 36.8-17.4 79-21.7 118.2-10.2 36.5 10.7 68.4 32.5 92.6 61.7 24.6 29.6 40.8 66.5 45.2 104.7 4.6 41.1-2.3 83.4-19.7 120.9-35.3 76-107.4 133.6-188.2 154.2-19.6 5-39.7 7.7-60 7.9-10.1.1-20.1-.4-30.1-1.5-9.5-1.1-19.9-2.3-28.9-5.5-10-3.6-19.8-9.5-28.1-16.1-7.5-5.9-14.8-12-20.6-19.8-11.7-15.9-17.6-35-20.7-54.3-2-12.2-2.6-24.7-2.8-37-.1-12.9-20.5-12.9-20.3.2z"/><path class="st10" d="M2781.9 2758.6c50.8-16.8 125.2-29.8 134.3-92.5 2.6-19.6-10.4-44.4-31.3-47-19.6-2.6-35.2 13.1-47 27.4 1.3-10.4 1-21.5-1.6-32-2.6-10.4-7.5-20.2-15.3-28.1-20.6-18.1-48.1 1.2-57.3 22.6-19.4 46.8 3.1 94.7 12.9 139.3 1.4 3.7 3.2 7.1 5.3 10.3z"/><path class="st4" d="M2784.6 2768.4c37-12.2 77.2-20.3 108.5-44.8 15.3-11.9 26.8-28.2 31.5-47.2 5.6-22.6-1.6-47.7-21.5-61.1-11.3-7.6-26.2-8.4-38.7-3.4-13.8 5.5-24.4 16.2-33.7 27.5l17.4 7.2c2.6-22.4-1.9-46-16.6-63.6-13.1-15.7-34.6-17.3-51.6-7.1-39.3 23.5-37.3 77.5-28.5 116.4 2.8 12.2 6.3 24.3 9.6 36.4 3.3 12.1 5.2 24.4 12 35.2 7 11 24.6.8 17.6-10.3-4.8-7.5-6-15.7-8.3-24.2-2.4-9.1-5.1-18.2-7.5-27.3-4.8-18.2-9-36.8-8.6-55.8.4-15.8 3.8-33.7 15-45.5 8.1-8.5 21-15.7 31.5-7.7 6.5 4.9 10.5 13.6 12.8 21.2 3.1 10.6 3.4 21.5 2.1 32.4-1 8.6 12 13.8 17.4 7.2 10.6-12.9 28.6-32.6 46.6-21.5 14.6 9 16.6 27.8 12.2 42.4-4.3 14.3-14.2 26.6-26 35.1-13.7 9.9-28.9 16.5-44.6 22-17.9 6.3-36.2 11.2-54.2 17.1-12.2 3.8-6.9 23.5 5.6 19.4z"/><path class="st1" d="M1609.5 1882.5c9.1 2.4 18.2 4.9 27.4 7.4 9.5 2.6 13.5-12.1 4.1-14.7-9.1-2.5-18.2-5-27.4-7.4-9.5-2.5-13.6 12.3-4.1 14.7zM1668.1 1898.3c18.7 4.7 37.6 8.5 56.9 10.4 4.1.4 7.6-3.8 7.6-7.6 0-4.5-3.5-7.2-7.6-7.6-17.8-1.8-35.4-5.6-52.8-9.9-9.6-2.4-13.6 12.3-4.1 14.7zM1287.1 2647.9c-11.1 23.9 5.2 46.3 25 59.2 8.3 5.4 15.9-7.9 7.7-13.2-11.9-7.7-26.7-22.8-19.5-38.3 4.1-8.8-9.1-16.6-13.2-7.7zM2804.5 2601.1c-15.6-1.4-22.9 13.5-26 26.4-2 8.3-3 16.5-1.9 25 1.3 10.3 4.7 20.1 7 30.3 2.1 9.6 16.8 5.5 14.7-4.1-3.3-14.8-9-28.8-5.7-44.1 1.4-6.6 3.2-19 12-18.2 9.6.9 9.6-14.4-.1-15.3zM1450.7 1896.5c80.1 19.8 176.4 40 212.1 123.3 19 41.6 2.4 98.7-42.8 111.8-107.1 34.5-193.9-69-253.1-146.5"/><path class="st4" d="M1448 1906.3c42.7 10.6 86.7 20.1 126.4 39.8 37.3 18.5 73.1 49.1 83.7 90.8 4.6 18.3 2.6 39-6.3 55.7-4.2 7.9-9.8 15.1-16.7 20.3-8.4 6.4-17.8 9.3-27.9 11.8-44.7 11-88-5.4-124.2-31.4-42.3-30.4-75.9-72.2-107.3-113.3-3.3-4.4-8.8-6.7-13.9-3.7-4.3 2.5-7 9.5-3.7 13.9 30.4 39.8 62.2 79.5 101.6 110.8 38.6 30.6 85.5 53 135.9 46.4 24.1-3.1 48.3-10.8 64.1-30.3 14.6-17.9 21.9-41.1 21-64.2-1.7-48.1-37.5-89.5-76.7-113.8-40.6-25.1-87.9-37.1-133.8-48.4-5.6-1.4-11.2-2.8-16.8-4.1-12.8-3.1-18.2 16.5-5.4 19.7z"/><path class="st3" d="M2218.2 1024.5c21.1-2.1 42.4-7.2 55.7-25.5 14.3-20.4 15.3-49.9-2-68.2-36.7-36.7-93.7-11.2-118.1 27.5 10.2-12.2 13.2-32.6-2-42.8-13.2-7.1-27.5-6.1-42.2-2.7-8.7 2-17.2 4.9-25.2 8.7-8 3.8-15.5 8.6-22.1 14.2-3.3 2.8-6.5 5.9-9.4 9.1-4.6 4.2-8.1 9.1-10.8 14.3-.7 3.1-2.1 6-3.3 8.8-1.2 2.8-2.2 5.6-2.2 8.6 1-4 1.5-8.4 1.4-12.7-.1-4.4-.9-8.8-2.4-13.1-1.3-4-3-7.9-5.2-11.5s-4.9-6.8-7.9-9.7c-3.1-3.2-6.7-6.1-10.5-8.4s-8.1-4.3-12.5-5.7c-25.2-7.6-50.4-1-71.8 12.7-3.6 2.3-7 4.8-10.3 7.4-17.8 10.4-26.4 31.2-19.9 49 1.3 3.6 3.2 7 5.7 10.2 19.3 16.3 46.8 1 69.3 1 20.4 0 35.6 14.3 53 24.4 5.1 2 10.2 4.1 16.8 5.2 2.9.5 5.8.7 8.7.9 13.6.7 27.2-1.6 40.7-4.4 6.8-1.4 13.6-3 20.4-4.4 29.5-7.5 61.1-6.5 89.9 6.2 5.2.8 10.7 1 16.2.9z"/><path class="st4" d="M1906.7 991.4c-3.8-12.1-1.5-24.8 6.8-35 8.5-10.6 21.7-19 34-24.7 12-5.6 25.8-8.2 38.6-6.4 12.9 1.8 22.8 6.8 30.7 16.9-.6-.8 1.7 2.5 2 3 .8 1.4 1.6 2.8 2.3 4.2 1 2.1.6 1 1.3 3.2.4 1.5.9 3 1.2 4.6.2.9.4 1.8.5 2.7-.2-1.4 0 .1 0 .7 0 1.8.1 3.6 0 5.5 0-.1-.2 2.2-.1 1.1.1-.8-.3 1.5-.4 1.8-.5 2.1-1.1 4.2-1.9 6.2 8.2 2.3 16.4 4.5 24.6 6.8 7-24.6 28.1-44.5 52.3-52.7 13-4.4 28-6.4 40.3 1.7 5.5 3.6 7.7 7 8.7 13.2-.1-1-.1-.7 0 .9 0 1 .1 1.9 0 2.9-.1 3.7.5-1.4-.3 2.3-.6 3-1.6 5.6-2.8 7.2-4.2 5.4-5.3 12.7 0 18 4.6 4.6 13.5 5.2 18 0 11.2-12.9 23.2-23.6 37.9-31.8 7.1-4 13.1-6.7 20.9-8.7 7.2-1.9 14-2.7 21.1-1.8 13.2 1.8 26.1 11.1 31.1 23.5 2.4 5.9 3.4 12.6 2.4 18.8-1 6-3.9 11.8-8 16.2-5.1 5.5-11.5 9.4-18 11.5-2 .7-4.1 1.2-6.1 1.7-.9.2-1.8.4-2.8.5-1.9.3-.4.1-1.5.2-2.1.2-4.2.3-6.3.2-.9 0-1.9-.1-2.8-.1-.4 0-4.1-.5-2.2-.2-6.8-1-13.7 1.7-15.7 8.9-1.7 6 2.1 14.6 8.9 15.7 20.9 3.2 41.6-1.6 58.3-14.8 17.1-13.5 24.4-34.5 20.9-55.8-3.6-21.5-19.1-39-38.9-47.1-19.4-8-41.1-5.3-60 2.6-22.1 9.3-41.4 24.5-57.1 42.6l18 18c10-12.8 13.7-29.4 7.5-44.8-6.7-16.6-22.8-26.9-40.1-29.5-30.4-4.6-62.2 10.1-83.3 31.5-11.7 11.9-20.5 26.5-25 42.6-1.9 6.6 2.3 13.8 8.9 15.7 7.1 1.9 13.3-2.4 15.7-8.9 12.6-34.3-12.5-70.6-46-79.5-18.3-4.9-38.2-3.5-55.9 3.2-17.6 6.7-35.3 17.5-47.9 31.6-14.8 16.6-21.1 39.5-14.4 60.9 4.9 15.4 29.5 8.8 24.6-7z"/><path class="st1" d="M1937 981.7c-3.6-22.6 27.9-30.7 44.6-32.8 4.1-.5 7.6-3.1 7.6-7.6 0-3.7-3.5-8.2-7.6-7.6-28.1 3.5-64.8 17.4-59.3 52.1.6 4.1 5.7 6.4 9.4 5.3 4.3-1.2 6-5.3 5.3-9.4zM2080.2 989.4c.5-21.9 21.8-32 41.2-32.4 9.8-.2 9.9-15.5 0-15.3-28 .6-55.8 17.2-56.5 47.7-.2 9.9 15.1 9.9 15.3 0z"/><path class="st4" d="M2049.2 2795.9c18.9 16.4 38.7 31.9 56.6 49.5 9.3 9.2 23.8-5.2 14.4-14.4-17.9-17.6-37.7-33.1-56.6-49.5-4.1-3.6-10.3-4.1-14.4 0-3.7 3.6-4.2 10.7 0 14.4z"/><path class="st4" d="M2105.8 2781.5c-18.9 16.4-38.7 31.9-56.6 49.5-9.4 9.2 5.1 23.6 14.4 14.4 17.9-17.6 37.7-33.1 56.6-49.5 4.2-3.6 3.7-10.7 0-14.4-4.1-4.2-10.3-3.7-14.4 0z"/></svg>