<svg version="1.1" id="svg2" xmlns="http://www.w3.org/2000/svg" x="0" y="0" viewBox="0 0 4096 4096" style="enable-background:new 0 0 4096 4096" xml:space="preserve"><style>.st1{fill:#edc391}.st2{fill:#390075}.st3{fill:#f8e9d4}.st4{fill:#cb975c}.st5{fill:#fef2f4}.st6{fill:#b9bbcc}.st7{fill:#979caf}.st9{fill:#d9e3ef}.st13{fill:#fff}</style><path style="fill-rule:evenodd;clip-rule:evenodd;fill:#feebcd" d="M0 0h4096v4096H0z"/><path class="st1" d="M1846.6 2951.6s-75.7 91.2-16.4 134.4c59.3 43.1 129.7-63.1 148.1-96.8"/><path class="st2" d="M1860.1 3098.6c-11.1 0-21.6-3.5-31.4-10.6-13.4-9.8-21.2-22.7-23.2-38.5-5.6-44.9 37.3-97.3 39.2-99.5l3.8 3.2c-.4.5-43.4 52.9-38 95.7 1.8 14.3 8.9 26.1 21.2 35.1 12.1 8.8 25.4 11.6 39.7 8.4 53.5-12 102.7-100.5 104.7-104.3l4.4 2.4c-2.1 3.8-52.3 94.3-108 106.8-4.2.9-8.4 1.3-12.4 1.3z"/><path class="st2" d="M1860.2 3117.5c-15.1 0-29.6-4.8-42.5-14.2-17.6-12.8-28.2-30.5-30.9-51.4-6.5-52 38.2-107.7 43.4-113.9 7.5-9.1 21-10.3 30.1-2.8 9.1 7.5 10.3 21 2.8 30.1-10.6 12.9-37.5 52.7-33.8 81.4 1.2 9.2 5.5 16.2 13.6 22.1 7.7 5.6 15.5 7.2 24.5 5.2 33.6-7.5 73.6-60.9 92.3-95 5.7-10.3 18.7-14.1 29-8.5 10.3 5.7 14.1 18.7 8.5 29-5.7 10.4-57.6 102-120.4 116.1-5.7 1.3-11.2 1.9-16.6 1.9z"/><path class="st1" d="M1739.9 1246.4s-79.3-292.5-276.6-240.2c-141.8 37.6-81.5 317.4 66.7 370.2"/><path class="st3" d="M1463.3 1006.2c-37.8 10-61.1 37.3-72.3 72.8l5.3 9.2s48.8-74.7 124.8-51.1c76.1 23.6 136.4 117.1 136.4 117.1l39.8-11.2c-42.1-78.4-117.5-167.7-234-136.8z"/><path class="st4" d="M1468.2 1096.9c-69 31.3 19.5 206.8 92.4 236.2 73 29.5-23.4-267.4-92.4-236.2z"/><path class="st2" d="M1530 1397.7c-2.4 0-4.8-.4-7.2-1.2-105-37.4-165.4-170.1-161.2-271.6 3-73.2 38.1-124 96.2-139.4 90.3-23.9 171.8 13.9 235.5 109.3 45.9 68.7 66.3 142.9 67.2 146 3.1 11.4-3.6 23.1-15 26.2-11.4 3.1-23.1-3.6-26.2-15-.7-2.7-76.1-271.4-250.5-225.2-53 14-63.1 68.6-64.4 99.8-3.6 86.7 48.9 199.7 132.8 229.6 11.1 4 16.9 16.2 13 27.3-3.2 8.8-11.4 14.2-20.2 14.2z"/><path class="st5" d="M1304.4 1924.1s-476.2 697.2 160.6 952 1330.8 143.1 1423.7-285.3c88.1-406.5-38.7-681.3-38.7-681.3"/><path class="st6" d="M2888.8 2590.8c88.1-406.5-38.7-681.3-38.7-681.3s18.3 203.2 9 338.4 53.1 329.4-265.2 527.4c-318.4 198-451.5-4.8-699.9-27.9s-328.6 46.1-487.9-59.5c-147.1-97.4-287.3-200.1-187.2-606.5-99.9 221-199.6 616.2 246.2 794.6 636.8 254.9 1330.8 143.2 1423.7-285.2z"/><path class="st7" d="M1133.5 2434.2c1.3 169.5 78.5 340.6 331.6 441.8 636.8 254.8 1330.8 143.1 1423.7-285.3l.3-1.5c-146.9 319.1-685.3 439.8-1259.8 269.4-574.9-170.5-489.6-435.2-489.6-435.2l-6.2 10.8z"/><path class="st2" d="M2138.4 3032.7c-216.5 0-453.9-45.8-681.2-136.8-171.8-68.7-280.8-175.6-324.1-317.7-91.8-301.7 143.6-651.5 153.7-666.2 6.7-9.7 19.9-12.3 29.7-5.6 9.7 6.7 12.3 19.9 5.6 29.7-2.3 3.4-234 347.8-148.1 629.8 39.3 129 139.9 226.7 299 290.3 418 167.2 869.5 178.9 1150.4 29.7 132.7-70.5 217.2-174.1 244.4-299.6 85.4-393.9-36-665.2-37.2-667.9-4.9-10.7-.2-23.4 10.5-28.3 10.7-4.9 23.4-.3 28.3 10.5 5.3 11.5 128.7 286 40.1 694.8-30 138.2-122 251.7-266.2 328.3-136.9 72.8-312.6 109-504.9 109z"/><path class="st5" d="M2771 2177.1c46.2-52.7 79.4-108.8 96-165.2 18.3-47.1 30.7-96.7 36.4-148.5 41.9-379-289.1-726.8-739.2-776.7-436.7-48.4-825.1 201.3-886.1 562.4-41.6 51.8-67.2 119.8-73.4 208.1-24.1 348 350.3 554.5 786.3 602.8 40 4.4 79.9 6.1 119.3 5.2 272.4 3 516.5-109.1 660.7-288.1z"/><path d="M1700.2 2114.5s-112.7 221.7 145.9 333.6c258.6 111.8 392.9-102.8 383.6-261.8l-529.5-71.8z" style="fill:#beb9bf"/><path class="st2" d="M2037.7 1661.2s-54.5-53.3-25.4-56.9c29.1-3.6 85.7 3.3 73 19.7-18 23.1-41.3 45.1-47.6 37.2z"/><path class="st6" d="M2164.2 1086.8c-436.7-48.4-825.1 201.3-886.1 562.4-2.5 3.2-5 6.4-7.5 9.7 37.9-12.5 84.8-41.1 136.5-40.1 279.2 5.3 298.2 144 390.8 90.7 92.6-53.3 140-148 265.6-118.3 153.9 36.4 179.9 172.6 291.3 200.6s169.2-104.9 395.8-9.2c95.6 40.4 105.6 130.3 127.4 198.1 12.2-37.6 20.8-76.7 25.3-117.2 42-379.1-289-726.8-739.1-776.7z"/><path class="st9" d="M2164.2 1086.8c-359.3-39.8-685.8 122.1-824.3 381.9l10.6 8.5s445.7-636.2 1238.2-211.8l-5.6-27.4c-117.7-79.5-260.9-133.7-418.9-151.2z"/><path class="st7" d="M2164.2 1086.8c-47.4-5.3-94.2-7-140.2-5.5-5.7 143.3-3.3 365.4 77.1 378.1 81 12.8 142.2-202.6 192.5-342.5-50.2-14.2-75.2-24.1-129.4-30.1z"/><path class="st6" d="M2119 1082.9c-8-.5-15.9-1-23.8-1.3-4.1-.2-8.2-.2-12.2-.3-7.3-.2-14.7-.4-21.9-.4-4.3 0-8.6.1-12.9.1-7 .1-14 .1-20.9.3-1.1 0-2.1.1-3.2.1-.5 12.4-.9 25.4-1.3 38.9 80.2-3.5 167 3.9 260.4 26.2 3.5-10.1 7-20 10.4-29.6-45-12.7-69.8-21.9-113.4-28.1-5.3-.7-10.6-1.4-16-2-11.6-1.3-23.1-2.3-34.6-3.2-3.5-.3-7-.4-10.6-.7z"/><path class="st2" d="M1244.8 2091.1c-7.9 0-15.6-4.4-19.2-12.1-33.4-68.9-47.6-144-42.1-223.2 6-86.9 31.1-159.4 74.5-215.6 66.2-371.9 464-624 908.6-574.7 461.1 51.1 801.2 410.1 758.1 800.3-5.8 52.6-18.5 104.3-37.7 153.9-4.3 11-16.6 16.5-27.7 12.2-11-4.3-16.5-16.6-12.2-27.7 17.9-46.1 29.7-94.2 35.1-143.1 40.5-366.7-282.7-704.6-720.4-753.1-424.2-47-803.2 192.2-862.7 544.7-.6 3.6-2.1 7-4.4 9.8-40.6 50.6-63.1 114.7-68.7 196.2-5 71.6 7.8 139.4 37.9 201.6 5.1 10.6.7 23.4-9.9 28.6-2.9 1.5-6.1 2.2-9.2 2.2z"/><path d="M1876.8 2400.6c-426.5-161.7 131.6-694.4 230.2-635.9 127.2 75.4 156.3 782.5-230.2 635.9z" style="fill:#706f6b"/><path class="st2" d="M1974.8 2423.2c-28.9 0-61.6-6.1-98.8-20.2-97.4-36.9-150.9-95.5-159.1-174.3-16.2-155.9 152.8-352.6 281-434.7 50.7-32.4 89.9-43.6 110.5-31.4 86.3 51.2 122.9 365.7 39.6 538.7-29.1 60.1-81.3 121.8-173.2 121.9zm113.5-660.4c-20.9 0-51.5 12.2-87.8 35.4-127.1 81.4-294.7 276.1-278.7 430 8 76.7 60.4 133.9 155.9 170.1 36.4 13.8 68.5 19.7 96.7 19.7 89.8 0 140.7-60.2 169-118.9 38-78.9 54-196.3 42.9-314.1-10.3-109.6-42-195.3-80.6-218.2-4.6-2.7-10.5-4-17.4-4z"/><g style="opacity:.48"><path d="M2166.8 2255.5c-48.1 71-156 171.4-298.1 86.3-164.9-98.8-68.6-318-22.7-407.6-130 155.2-208.1 368.9 35.8 461.4 155.2 58.9 243.3-19.9 285-140.1z" style="fill:#2f2d30"/></g><path class="st1" d="M1872.4 2391.5s226.4-668 230.4-636.4c4 31.6-189.4 642-208.9 647.1s-21.5-10.7-21.5-10.7zM2127.4 1771.3s13.4 457.6-126.8 642.4c0 0 67.3 8.7 90.3-17.3-.1 0 129.2-502.1 36.5-625.1zM2059.4 1761.4c-154.9 69.9-289.2 409-330.5 522.8 14.2 29.7 37.7 56.8 72.8 79.9l6.6-1.5c-26.1-278.3 230.5-560 273-604.6-6.6 0-13.9 1.2-21.9 3.4z"/><path class="st2" d="M1974.3 2441.8c-32.6 0-67.7-7-105.1-21.1-104.6-39.7-162.2-103.6-171.2-190-17-163.4 157.3-367.8 289.6-452.6 58.6-37.5 102.5-48.2 130.3-31.7 94 55.8 135.5 379.4 47 563.1-42.1 87.3-108 132.3-190.6 132.3zm114.1-660.2c-13.1 0-39.4 7.9-77.7 32.5-119.9 76.8-285.1 267.7-270.1 412.1 7.2 69 55.6 121 143.8 154.4 111.5 42.3 192.9 12.1 242-89.7 80.7-167.6 38.6-467-30.2-507.8-1.7-1-4.3-1.5-7.8-1.5z"/><path class="st1" d="M2595.7 1347.4s157.5-232 322.2-111.4c118.4 86.6-16.7 313.7-174 308.9"/><path class="st3" d="m2951.7 1311.9 7.7-14.3c-5.8-23.9-19.1-45.2-41.5-61.6-120.4-88.1-236.9 12.1-290.9 72.4l.8 7.8s178.5-165.6 323.9-4.3z"/><path class="st2" d="M2589.8 1343.4c1.3-21.1 10.7-36.9 21.8-51.1 10.9-14.4 24.4-26.7 38.5-38.1 14.2-11.3 28.4-22.8 43.8-32.9 15.4-10.1 31.8-19 49.4-26.1 17.5-7 36.2-12.1 55.6-14.2 4.9-.3 9.7-1 14.6-1l14.7.2 14.7 1.5c4.9.6 9.6 1.8 14.5 2.8 19 4.5 37.3 11.9 53.8 21.6 4.2 2.3 8 5.1 12 7.7 3.9 2.6 7.9 5.1 11.8 8.6 3.9 3.3 8 6.3 11.4 10.2 3.6 3.7 7.3 7.3 10.3 11.6 12.9 16.3 21.3 36.1 25 56 3.7 20 3 40-.3 59-7 38.1-23.9 72.4-45.7 102.5-22.2 29.8-49.9 55.7-82.4 74.9-8.2 4.6-16.6 9.1-25.4 12.8-4.3 2.1-8.7 3.8-13.1 5.7l-6.6 2.9c-2.3.8-4.6 1.6-6.9 2.3-4.6 1.5-9.3 2.9-14.2 3.3-4.9.5-9.7 1.1-14.7.5-4.9-.6-9.9-1.3-14.7-3.3-4.8-2.1-9.6-4.7-13.9-8.8-3.8-3.6-4-9.5-.5-13.3l.2-.2.7-.7c4.2-4.2 8.1-7 11.9-9.2 3.8-2.3 7.4-4.4 11-5.7 3.6-1.2 7.2-2.8 10.8-3.8 3.6-.9 7.2-2 10.9-2.8 1.8-.4 3.7-.7 5.6-1.1l5.5-1.5c3.7-1 7.4-2 10.9-3.7 7.1-2.9 14-6.6 20.8-10.4 26.9-15.8 50.6-37.9 69.5-63.3 18.6-25.5 32.7-54.8 38.1-84.6 5.5-29.8.9-59.8-16.2-81.2-1.9-2.9-4.5-5.2-6.9-7.7-2.2-2.7-5.2-4.7-7.8-7-2.5-2.3-5.9-4.4-9.1-6.6-3.3-2.1-6.3-4.5-9.7-6.3-13.2-7.8-27.3-13.4-41.7-16.8-28.9-7.2-59.7-2.7-88.5 8.8-14.4 5.8-28.4 13.4-41.9 22.1-13.4 8.8-26.4 18.7-38 30.2-11.7 11.5-22.7 23.6-34.8 34.8-6 5.6-12 11.4-19.1 16.3-7 5-14.6 9.7-24 13.1l-.8.3c-4.3 1.5-9-.7-10.6-5-.2-1.1-.4-2.2-.3-3.3zM1709.8 1539.7c19.9-48.6 68.6-75.1 108.9-59.1 40.2 16 56.7 68.4 36.8 117.1-19.9 48.6-68.6 75.1-108.9 59.1-40.2-16.1-56.7-68.5-36.8-117.1z"/><path class="st2" d="M1771 1664c-8.6 0-17.2-1.6-25.4-4.8-17.5-7-31.5-21.1-39.5-39.9-10.3-24.2-9.8-53.6 1.3-80.6l2.4 1-2.4-1c20.4-49.9 70.8-77.1 112.3-60.6 17.5 7 31.5 21.1 39.5 39.9 10.3 24.2 9.8 53.6-1.3 80.7-16.4 39.9-52 65.3-86.9 65.3zm23.1-185.4c-32.7 0-66.4 24.2-81.9 62.1-10.5 25.8-11 53.7-1.3 76.6 7.4 17.4 20.4 30.6 36.6 37 38.8 15.5 86.1-10.4 105.4-57.7 10.6-25.8 11-53.7 1.3-76.6-7.4-17.4-20.4-30.6-36.6-37-7.5-3-15.5-4.4-23.5-4.4z"/><path class="st13" d="M1771.4 1536.2c8.6-21 28.9-32.7 45.3-26.1 16.5 6.5 22.8 28.9 14.3 49.9-8.6 21-28.9 32.7-45.4 26.1-16.4-6.6-22.8-28.9-14.2-49.9z"/><path class="st2" d="M1795.2 1590.3c-3.5 0-7-.6-10.4-2-7.3-2.9-13-8.7-16.4-16.6-4.6-10.7-4.3-24 .8-36.3 9.1-22.1 30.8-34.4 48.4-27.4 7.3 2.9 13 8.7 16.4 16.6 4.6 10.7 4.3 24-.8 36.3-7.3 17.9-23 29.4-38 29.4zm-21.6-53.2c-4.6 11.2-4.9 23.1-.8 32.7 2.9 6.8 7.6 11.6 13.7 14.1 15.2 6.1 34.2-5.1 42.3-24.8 4.6-11.2 4.9-23.1.8-32.7-2.9-6.8-7.6-11.6-13.7-14.1-15.3-6.1-34.2 5.1-42.3 24.8z"/><path class="st4" d="M2885.4 1325.3c50.5 56.4-101.1 181.4-179.7 179-78.6-2.4 129.2-235.4 179.7-179z"/><path class="st2" d="M2907.6 1344.7c-3.4-4.6-7.9-9.2-12.5-12.6-4.6-3.5-9.7-5.9-14.8-7.3-10.3-2.5-21-.9-31.7 3.3-10.4 4.2-21.6 10.9-32.2 17.7-10.7 6.9-21.1 14.3-31.2 22.2-20.2 15.8-39.2 33.3-55.8 52.5-8.1 9.7-15.9 19.8-21.9 30.7-6.2 10.8-10.7 22.4-12.2 34.7v.2c-.3 2.6-2.7 4.5-5.3 4.2-2.2-.3-3.8-1.9-4.2-4-2.4-14.4.3-29.3 5.2-42.6 2.3-6.8 5.4-13.2 8.7-19.4 3.2-6.3 7-12.3 11-18 15.8-23.2 35.4-43 56.9-60.5 10.8-8.7 22.1-16.8 34.1-23.9 12.1-7.2 24.4-13.5 39.2-17.9 3.8-.8 7.5-1.8 11.4-2.3l5.9-.5c2-.2 3.9-.3 6-.1 2 .1 4 .2 6 .4s4 .8 6 1.2c4 .7 7.8 2.5 11.5 3.9 7.3 3.6 13.5 8.8 18.3 14.6 4.8 6.1 8.4 12.3 10.5 19.8.7 2.5-.7 5.2-3.3 5.9-2 .6-4-.2-5.1-1.7l-.5-.5zM1427.2 1114.7c1.6-4.4 3.7-8.4 6.7-12.1 1.4-1.9 3.1-3.5 4.9-5.2 1.9-1.4 3.8-3.1 6-4.3 8.6-5.2 19.6-6.4 29.3-4.7 2.5.4 4.9.8 7.2 1.6 2.3.7 4.7 1.4 6.9 2.2 4.2 2 8.9 3.7 12.7 6.2 4 2.4 8.1 4.7 11.7 7.4 3.8 2.6 7.5 5.3 10.9 8.4 14 11.9 26.4 26.2 35.3 42.4 4.7 8 8.4 16.5 11.4 25.2 1.6 4.3 2.8 8.8 3.9 13.3 1.1 4.7 1.9 8.8 2.4 14.4.8 7.8-4.9 14.8-12.7 15.6-6.8.7-13-3.6-15-9.9l-.5-1.5c-.9-2.8-2.1-6.9-3.4-10.4-1.2-3.6-2.6-7.3-4-10.9-2.9-7.2-5.9-14.4-9.5-21.2-7-13.8-15.5-26.9-25.9-38.6-2.5-3-5.3-5.7-8.1-8.5-2.7-2.9-5.7-5.3-8.7-7.8-1.5-1.3-3-2.5-4.6-3.5l-4.6-3.3c-1.6-1-3.2-1.7-4.8-2.7-1.6-1-3.3-1.6-4.9-2.2-6.6-2.7-13.6-3.5-20.6-1.6-6.9 1.8-13.6 6.9-18.5 13.1l-.2.2c-.7.9-2 1-2.9.3-.4-.2-.7-1.2-.4-1.9z"/><path class="st1" d="M1618.1 2034s154.5-111.9 207.3-30.5-57.9 173.9-154.8 173.6"/><path class="st2" d="M1671.1 2179.6h-.4v-5h.4c60.4 0 128.1-37.5 154.3-85.5 11-20.1 19.6-51.1-2-84.3-9.6-14.7-23.3-23.9-40.9-27.2-64.7-12.1-161.8 57.6-162.8 58.3l-2.9-4c4-2.9 99.8-71.6 166.7-59.1 19 3.5 33.9 13.4 44.2 29.4 18.1 27.9 18.8 58.8 2.2 89.4-27.6 50.2-95.7 88-158.8 88z"/><path class="st2" d="M1616.4 2031.6c7-8.8 14.8-16.6 23.2-23.8 8.3-7.3 17.2-13.8 26.5-19.9 18.6-12 39-21.8 61.5-27.8 11.3-3 23.1-5 35.5-5.2 12.4-.2 25.5 1.6 38.2 6.6 12.7 5 24.3 13.6 32.8 24l5.9 8.1 4.8 8.2c3 5.6 5.6 11.5 7.6 17.7 3.9 12.4 5.5 25.8 4.2 38.7-1.2 13-5 25.4-10.3 36.7-10.8 22.6-27.4 40.6-45.9 54.8-9.3 7.1-19.2 13.3-29.6 18.4-10.3 5.2-21 9.5-32.2 12.5-22.2 5.8-46.1 6.8-67.9-.6-1.6-.5-2.5-2.3-1.9-3.9.3-.9 1-1.6 1.8-1.9h.1c20.7-7.6 39.1-15 56.8-23.8 8.8-4.4 17.5-8.9 25.7-13.9 8.2-5.1 16.1-10.7 23.5-16.7 14.7-12 27.6-26 35.9-41.5 8.3-15.5 11-32.4 6.1-48.2-1.2-4-2.9-7.8-4.8-11.6l-3.3-5.6c-1.2-1.6-2.4-3.1-3.6-4.7-5.1-5.9-11.3-10.1-18.5-12.5-14.6-5-33.2-3-51.8 1.2-18.7 4.2-37.8 10.8-57.1 17.9-19.4 7-39 14.7-59.7 21.6h-.1c-1.6.5-3.3-.3-3.8-1.9-.4-1.1-.2-2.1.4-2.9z"/><path class="st1" d="M2364.6 2166.1s-95-165.4-176.6-112.8c-81.6 52.6-18.5 182.3 70 221.8"/><path class="st2" d="M2257 2277.4c-57.7-25.8-104.6-88.3-109-145.6-2.7-34.7 10.7-62.6 38.6-80.6 16-10.3 33.6-13.2 52.4-8.6 66.1 16.1 125.3 118 127.7 122.3l-4.3 2.5c-.6-1-60.6-104.4-124.6-119.9-17.4-4.2-33.7-1.5-48.5 8-33.2 21.4-38.1 53.2-36.3 76 4.2 54.6 50.8 116.7 106 141.4l-2 4.5z"/><path class="st2" d="M2362 2167.5c-16-14.8-30.8-29.9-45.6-44.2-14.7-14.4-29.4-28.3-44.8-39.8-15.2-11.4-31.4-20.9-46.8-22.3-7.6-.7-15 .5-22 3.8-1.7 1-3.5 1.9-5.2 2.9l-5.3 3.7c-3.3 2.7-6.4 5.5-9.1 8.6-11 12.4-15.4 28.9-14.2 46.5 1.2 17.5 7.3 35.6 15.8 52.6 4.2 8.5 9.2 16.8 14.6 24.9 5.5 8 11.6 15.6 17.8 23.3 12.6 15.3 26.3 29.5 42.1 45l.1.1c1.2 1.2 1.2 3.1.1 4.4-.7.7-1.6 1-2.5.9-22.9-2.2-44.3-12.9-62.2-27.3-8.9-7.2-16.9-15.6-24.2-24.6-7.4-8.9-13.9-18.6-19.5-28.9-11.1-20.6-18.9-43.8-19.4-68.8-.3-12.5 1.4-25.4 5.6-37.7 4.1-12.4 11.1-23.9 19.7-33.6 4.3-4.9 9.1-9.1 14.1-13l7.7-5.5 8.7-4.9c12-6 26.2-9.2 39.7-8.5 13.6.6 26.3 4.4 37.5 9.6 11.3 5.2 21.3 11.9 30.3 19.3 18.1 14.8 32.6 32.1 44.7 50.6 6 9.3 11.4 18.9 16 29 4.7 10 8.6 20.3 11.4 31.2.4 1.6-.6 3.3-2.2 3.7-1 .1-2.1-.2-2.9-1z"/><path class="st7" d="M2446.5 1393.8c41.7 69.7-93.3 117.8-121.8 56.9-28.4-60.8 89-111.5 121.8-56.9zM1764.9 1310.7c-57.3 57.6 62.3 136.8 104.5 84.5 42.3-52.2-59.6-129.6-104.5-84.5z"/><path class="st1" d="M2222.6 2607.9s39.8-186.6 133.6-161.5c93.8 25.1 73.4 167.9 1.3 232.6"/><path class="st2" d="m2359.1 2680.9-3.3-3.7c45.1-40.4 70.4-113.8 57.6-167.1-5.3-22.3-19.7-51-57.9-61.3-17-4.5-33.3-2.1-48.6 7.2-56.2 34.4-81.6 151.1-81.9 152.3l-4.9-1c1-4.9 26.2-120 84.2-155.5 16.5-10.1 34.1-12.7 52.5-7.8 32.1 8.6 53.4 31 61.5 64.9 13.3 55.9-12.1 129.8-59.2 172z"/><path class="st2" d="M2219.7 2607.3c-.7-11.2-.1-22.3 1.3-33.2 1.3-11 3.5-21.8 6.4-32.5 5.8-21.4 14.4-42.3 27-61.9 6.4-9.8 13.8-19.2 22.9-27.6 9.1-8.4 20-15.9 32.8-20.6 12.7-4.8 27.1-6.1 40.4-4.1l9.8 2 9 2.9c6 2.2 11.8 4.8 17.5 8.1 11.2 6.6 21.3 15.4 29.1 25.9 7.8 10.5 13.3 22.2 16.9 34.2 7.2 24 6.9 48.5 2.6 71.5-2.2 11.5-5.3 22.7-9.7 33.5-4.2 10.8-9.2 21.2-15.5 30.8-12.6 19.1-29.7 35.9-50.8 45-1.6.7-3.4-.1-4-1.6-.4-.9-.3-1.8.1-2.6v-.1c10.3-19.5 19-37.3 26.3-55.7 3.6-9.2 7-18.3 9.8-27.6 2.7-9.3 4.9-18.7 6.3-28.2 2.8-18.8 3.1-37.8-1.1-54.9s-13.5-31.5-27.8-39.9c-3.5-2.1-7.4-3.9-11.4-5.4l-6.2-1.9c-2-.3-3.9-.7-5.8-1.1-7.7-1-15.1.1-22.2 3.1-14.2 6.1-26.7 20-37.7 35.6-11.1 15.7-20.8 33.4-30.4 51.6-9.7 18.2-19.1 37-29.8 56v.1c-.8 1.5-2.7 2-4.1 1.1-1-.5-1.6-1.5-1.7-2.5z"/><path class="st2" d="m2401.6 2493.1-41.1 49.3 15.7-62.2c2-7.8 9.9-12.6 17.7-10.6 7.8 2 12.6 9.9 10.6 17.7-.5 2.2-1.5 4.2-2.9 5.8zM2344.7 2467.5l-35.8 54.7 9.1-64.7c1.1-8 8.5-13.5 16.5-12.4 8 1.1 13.5 8.5 12.4 16.5-.3 2.2-1.1 4.2-2.2 5.9z"/><path class="st1" d="M1589.4 2520.8s-13.3-190.3-109.7-178.5c-96.4 11.7-96.2 156-33.8 230.1"/><path class="st2" d="M1444.1 2574c-40.7-48.4-55.5-125.1-34.5-178.5 12.8-32.4 36.9-51.7 69.9-55.7 18.9-2.3 36 2.8 50.9 15.1 52.5 43.3 61.2 160.8 61.6 165.8l-5 .3c-.1-1.2-9-120.3-59.8-162.3-13.8-11.4-29.7-16.1-47.1-14-39.2 4.8-57.5 31.2-65.9 52.6-20.1 51-5.3 127.2 33.7 173.5l-3.8 3.2z"/><path class="st2" d="M1586.8 2521c-8.1-9.8-12.6-19.6-16.5-29.3-3.8-9.8-5.8-19.8-8.7-29.5-5.6-19.5-11.9-38.6-20.3-55.8-8.1-17.1-18.6-32.8-31.8-40.7-6.6-4-13.7-6-21.4-6.2-2 .1-4 .2-5.9.3l-6.4 1c-4.2.9-8.2 2-12.1 3.6-15.3 6.2-27.1 18.8-34.2 35.2-7.1 16.3-10.1 35.6-8.5 54.7.7 9.6 2.2 19.1 3.9 28.6 1.6 9.5 3.4 19.1 5.5 28.7 4.3 19.3 10.2 38.3 17.7 59.1v.1c.5 1.5-.2 3.1-1.7 3.6-.8.3-1.7.2-2.4-.2-19.6-11.9-34.5-30.7-44.6-51.4-5.1-10.4-8.9-21.4-11.4-32.7-2.5-11.3-3.4-23-3.3-34.7.4-23.2 2.9-47.1 12.9-69.9 4.9-11.3 11.8-22.2 20.8-31.6 8.9-9.4 20-17 32-21.9 6-2.5 12.2-4.3 18.4-5.7 3.1-.6 6.2-1.1 9.3-1.6l10-.6c13.5-.3 27.6 3.2 39.5 9.7 12 6.5 21.7 15.5 29.6 25 8 9.6 14.1 19.9 19.4 30.3 10.3 21 16.6 42.8 20.8 64.6 4.2 21.7 7 44.1-5.1 66.9-.8 1.5-2.7 2.1-4.3 1.3-.4-.2-.7-.5-.9-.8l-.3-.1z"/><path class="st2" d="m1502.2 2347.6 6.1 72.1-33.4-64.2c-3.7-7.1-.9-15.9 6.2-19.6 7.1-3.7 15.9-.9 19.6 6.2.8 1.7 1.4 3.7 1.5 5.5zM1457.1 2369l3 65.4-30.5-58c-3.8-7.1-1-16 6.1-19.7 7.1-3.8 16-1 19.7 6.1 1.1 2 1.6 4.2 1.7 6.2zM1751 2070.5c11.4-7.1 23-13.9 34.9-20.4 6-3.2 12-6.4 18.3-9.3 3.2-1.5 6.3-2.9 9.9-4.2 1.7-.7 3.5-1.3 5.7-1.8 1.7-.6 4.8-.9 7.6-1 5.9-.1 10.8 4.5 11 10.5.1 5.9-4.5 10.8-10.5 11h-1.2l-1.9-.2c-.5 0-.8-.5-2.3-.4h-1.9l-2.2.2c-2.9.2-6.1.7-9.3 1.2-6.4 1.1-12.8 2.5-19.3 4-13.1 3-26 6.5-38.8 10.4zM1737 2026.3c12.2-7.2 24.7-14 37.7-20.2 6.5-3.1 13.2-6 20.3-8.4 3.6-1.2 7.3-2.3 11.4-3.1 2.1-.4 4.4-.6 6.9-.6 2.7.2 5.8.3 9.9 2.6 4.9 3.3 6.3 9.9 3 14.8s-9.9 6.3-14.8 3c1.1.4.7-.2-.1-.5-1-.3-2.2-.5-3.6-.7-2.8-.2-6.1-.2-9.4.1-6.6.5-13.5 1.6-20.3 2.9-13.7 2.7-27.4 6.2-41 10.1zM2163.5 2087.6c6.6 3.7 12.7 7.5 18.8 11.6 6.1 4 12.1 8.3 17.8 12.8 5.8 4.5 11.3 9.3 16.4 14.7 4.8 5.4 9.9 11.5 10.7 18.8-2.6-6.7-8.5-10.9-14.2-14.7-5.8-3.7-12.1-6.8-18.4-9.6-6.4-2.8-12.9-5.3-19.5-7.6-6.5-2.3-13.3-4.4-19.8-6.2-5.7-1.5-9.2-7.5-7.6-13.2 1.5-5.7 7.5-9.2 13.2-7.6 1 .3 1.8.6 2.6 1zM2193.2 2056.4c10.3 6.8 20.5 13.7 30.5 20.8 5 3.6 10 7.2 14.9 10.9 4.8 3.8 9.9 7.5 13.7 12.4-4.9-3.6-10.7-5.5-16.3-7.8-5.6-2.2-11.4-4.1-17.1-6.1-11.5-3.8-23.1-7.5-34.6-10.9-5.7-1.7-9-7.7-7.3-13.4 1.7-5.7 7.7-9 13.4-7.3 1 .4 2 .8 2.8 1.4zM2042.4 1668.7h-1.1c-25.9-.9-44.5-37.1-47.9-44.4-3.4-7.1-.4-15.6 6.7-19 7.1-3.4 15.6-.4 19 6.7 6.6 13.8 18.3 28 23.1 28.1h.3c7.8 0 22.1-11.2 29.5-19.4 5.3-5.8 14.3-6.3 20.1-1.1 5.8 5.3 6.3 14.3 1.1 20.1-4.5 5-27.2 29-50.8 29z"/><path class="st2" d="M2038.5 1694.3c-.6 0-1.2 0-1.7-.1-7.8-1-13.4-8.1-12.4-15.9l3-24.6c1-7.8 8-13.4 15.9-12.4 7.8 1 13.4 8.1 12.4 15.9l-3 24.6c-1 7.2-7.1 12.5-14.2 12.5z"/><path class="st2" d="M2076.1 1715.4c-17.7 0-33.5-10.3-42.4-17.6-11.1 8.4-22.1 11.4-32.9 8.9-22.3-5.1-32.4-31.7-33.4-34.7-2-5.6.9-11.7 6.5-13.7 5.5-2 11.6.9 13.6 6.5 1.7 4.8 8.8 19 18.1 21.1 7.1 1.6 15.2-4.5 20.7-9.9 2.1-2 4.9-3.2 7.7-3 2.9.1 5.6 1.3 7.6 3.4 5.1 5.3 21.5 19 36.5 17.7 8.1-.7 15.2-5.8 21.6-15.5 3.3-4.9 9.9-6.3 14.8-3s6.3 9.9 3 14.8c-10.1 15.3-22.8 23.7-37.7 25h-3.7z"/><ellipse transform="rotate(-8.969 1853.473 1166.27)" class="st9" cx="1854" cy="1166.5" rx="60.8" ry="35.6"/><path class="st2" d="M1338.8 1604c-11.8-2.2-22.3-6.4-32.6-11.1-10.2-4.8-19.8-10.4-29.1-16.6-9.3-6.1-18.4-12.7-27.1-19.8-8.7-7.2-17-14.8-24.6-23.8-1.8-2.1-1.5-5.2.6-7 1.3-1.1 3-1.4 4.5-1 11.3 2.9 21.8 7.2 32.1 11.9 10.2 4.7 20 10 29.6 15.8 9.6 5.7 18.8 12 27.5 19.1 8.7 7.2 17 14.8 24.1 24.5 1.7 2.3 1.2 5.5-1.1 7.1-1.2.9-2.6 1.2-3.9.9zM1316.6 1655.1c-10.2 2.6-19.9 2.9-29.6 2.7-9.6-.4-19.1-1.7-28.4-3.6-9.3-1.9-18.6-4.3-27.7-7.5-9.1-3.1-18.1-6.8-26.9-12-2.4-1.4-3.2-4.5-1.8-7 .8-1.3 2.1-2.1 3.5-2.4 10-1.8 19.8-2.1 29.4-1.8 9.6.3 19.1 1.3 28.6 2.8 9.4 1.5 18.7 3.5 27.9 6.6 9.1 3.1 18.1 6.9 26.7 12.9 2.4 1.7 2.9 4.9 1.3 7.3-.8 1-1.9 1.7-3 2zM1316.9 1720.1c-11.1 5.4-22.4 8.4-33.8 10.9-11.4 2.3-22.8 3.7-34.3 4.5-11.5.8-23 1.1-34.7.6-11.6-.5-23.3-1.5-35.1-4-2.7-.6-4.4-3.2-3.8-5.9.4-1.7 1.5-3 3-3.6 11.2-4.5 22.5-7.5 33.8-10 11.4-2.4 22.8-4.1 34.2-5.4 11.5-1.2 23-1.9 34.6-1.5 11.6.5 23.3 1.5 35.1 4.9 2.7.8 4.3 3.6 3.5 6.3-.3 1.5-1.3 2.6-2.5 3.2zM2842.3 1787.6c9.2-7.7 19.2-13.1 29.3-18 10.2-4.8 20.6-8.6 31.3-11.9 10.7-3.3 21.5-6.1 32.5-8.2 11.1-2.1 22.3-3.7 34-3.8 2.8 0 5 2.2 5 4.9 0 1.7-.8 3.2-2.1 4.1-9.5 6.9-19.4 12.3-29.6 17.2-10.1 4.9-20.5 9-31 12.7-10.5 3.7-21.2 6.9-32.2 9.1-11.1 2.1-22.3 3.6-34.3 2.9-2.8-.2-5-2.6-4.8-5.4.1-1.4.8-2.7 1.9-3.6zM2855.1 1842.1c9.8-3.8 19.4-5.2 29-6.1 9.6-.8 19.1-.5 28.6.3s19 2.1 28.4 4.2c9.4 2 18.8 4.7 28.1 8.8 2.6 1.1 3.7 4.1 2.6 6.7-.6 1.4-1.8 2.4-3.2 2.8-9.7 3-19.4 4.4-29 5.2-9.6.9-19.2 1-28.7.6-9.5-.3-19-1.3-28.4-3.3-9.4-2.1-18.8-4.7-28-9.7-2.5-1.4-3.5-4.6-2.1-7.1.6-1.2 1.6-2 2.7-2.4zM2841.7 1905.6c12.3-.5 23.9 1.3 35.3 3.7 11.3 2.4 22.4 5.8 33.2 9.8 10.8 3.9 21.5 8.3 32 13.4 10.4 5.1 20.7 10.7 30.5 17.8 2.2 1.6 2.7 4.7 1.1 6.9-1 1.4-2.6 2.1-4.2 2-12.1-.4-23.6-2.2-35-4.5-11.4-2.3-22.5-5.4-33.5-8.9s-21.8-7.6-32.2-12.6c-10.4-5.1-20.7-10.8-30.2-18.7-2.2-1.8-2.4-5-.7-7.2.9-1 2.3-1.6 3.7-1.7zM2460.7 1647.4c-4.7-52.4-43.5-92-86.7-88.5-43.1 3.5-74.3 48.7-69.6 101.1 4.7 52.3 43.5 92 86.7 88.5s74.3-48.8 69.6-101.1z"/><path class="st2" d="M2385.9 1751.3c-42.3 0-79.4-39.6-84.1-91.1-2.6-29.1 5.6-57.4 22.5-77.5 13.1-15.6 30.7-25 49.5-26.5 44.6-3.6 84.7 37.2 89.5 90.9 2.6 29.1-5.6 57.4-22.5 77.4-13.1 15.6-30.7 25-49.5 26.5-1.7.2-3.6.3-5.4.3zm-6.6-190c-1.7 0-3.3.1-5 .2-17.4 1.4-33.6 10.1-45.9 24.6-16 19-23.8 45.8-21.3 73.6 4.6 50.8 42.2 89.4 83.8 86.1 17.4-1.4 33.6-10.1 45.9-24.6 16-19 23.8-45.8 21.3-73.6-4.4-48.8-39.2-86.3-78.8-86.3z"/><path class="st13" d="M2402.9 1626c-2-22.6-18-39.7-35.7-38.3-17.7 1.4-30.3 20.9-28.3 43.5s18 39.7 35.7 38.3c17.6-1.5 30.3-20.9 28.3-43.5z"/><path class="st2" d="M2372.5 1671.9c-18 0-33.9-17.7-36-40.5-1.2-13.3 2.4-26 9.9-35 5.6-6.6 12.7-10.4 20.5-11.1 19-1.6 36.1 16.6 38.2 40.5 1.2 13.3-2.4 26-9.9 35-5.6 6.6-12.7 10.4-20.5 11.1-.7-.1-1.4 0-2.2 0zm-3.3-81.9c-.6 0-1.2 0-1.9.1-6.6.5-12.5 3.8-17.3 9.4-6.7 8-9.9 19.4-8.8 31.5 1.9 21.2 16.8 37.5 33.1 36.2 6.6-.5 12.5-3.8 17.3-9.4 6.7-8 9.9-19.4 8.8-31.5-1.8-20.6-15.6-36.3-31.2-36.3z"/></svg>