<svg version="1.1" id="svg2" xmlns="http://www.w3.org/2000/svg" x="0" y="0" viewBox="0 0 4096 4096" style="enable-background:new 0 0 4096 4096" xml:space="preserve"><style>.st2{fill:#000072}.st4{fill:#6d4c41}.st5{fill:#f75c4c}.st6{opacity:.2}.st9{fill:#fff}</style><path style="fill-rule:evenodd;clip-rule:evenodd;fill:#f75c4c" d="M0 0h4096v4096H0z"/><path d="M1738 2973.3s-577.8 43.4-688.4-306.9c0 0-218.3-545.1 230.1-1086.9 0 0 458.4-574 1160.7-661.9 0 0 159.1-45.7 224.7 38.4 0 0-94.7 136.5-41.7 298.4 15.7 47.9 45.5 89.9 84.3 122.1 78 64.7 260.3 257.2 279.5 653.6 3.2 66.3-1.3 132.7-11 198.4-11.5 77.5-16.4 227.6 82.3 351.9 0 0 305 335.5-749.3 419.5-.1-.1-309.3 5.7-571.2-26.6z" style="fill:#6c7a89"/><path class="st2" d="M2252.7 3028.7c-101.7 0-322-3.1-515.5-26.8-50.3 3.4-600.8 31.3-714.5-326-5.6-14.3-56.2-149.9-54.7-350 1.4-190.8 52.8-478.3 289.7-764.6 4.5-5.6 118.8-147.6 321.7-302.5 187.1-142.8 487.2-322.7 855.4-369.3 21.8-5.8 180.1-44.3 252.8 48.9 7.7 9.8 8.1 23.5.9 33.8-.8 1.2-85.8 127.5-38 273.3 13.7 41.7 39.7 79.4 75.4 109 80.5 66.8 270 266.3 289.7 674.2 3.1 64.7-.6 131.4-11.3 203.9-10.9 73.5-15.4 213.9 76 329.4 8.4 9.6 74 89.2 35.9 185.5-58.7 148.4-329.5 242.8-804.8 280.7-.6 0-1.1.1-1.7.1-.8 0-21.8.4-57 .4zm-514.7-83.9c1.2 0 2.3.1 3.5.2 250.2 30.9 548.2 26.6 566.2 26.3 590.8-47.1 726.8-173.2 755.2-244.2 27-67.4-23.6-125.3-25.7-127.7-.4-.4-.8-.9-1.1-1.4-105.2-132.5-100.4-291-88.2-373.8 10.2-68.8 13.7-131.9 10.7-192.8-18.7-385.2-194.5-571.1-269.2-633.1-43.9-36.5-76.2-83.2-93.2-135.1-45.1-137.6 7.4-256.9 33-303.2-49.9-39.9-145.4-25.3-181.1-15.1-1.4.4-2.9.7-4.3.9-682.1 85.4-1137.4 645.8-1142 651.4-225.8 272.8-275.2 545.6-276.9 726.5-1.9 196.7 50.5 330.8 51.1 332.1.3.6.5 1.3.7 2 102.5 324.6 653.5 287.5 659.1 287.1.8-.1 1.5-.1 2.2-.1z"/><path class="st4" d="M3058.5 2580.3c-98.7-124.3-93.8-274.3-82.3-351.9 9.7-65.7 14.2-132.1 11-198.4-19.2-396.4-201.5-588.9-279.5-653.6-38.8-32.2-68.6-74.2-84.3-122.1-15.5-47.4-18.3-92.5-14.6-132.8-10.1 9.8-93.7 98.3-24.7 274.6 0 0 158.8 500.9-566.1 419.5-749.3-8.1 240.3 916.3 240.3 916.3l-687.3 49.2s-79 169.7-388.2 56.2c-7.9-2.9-15.3-5.3-22.5-7.4 203.8 171.4 577.7 143.4 577.7 143.4 261.9 32.4 571.1 26.5 571.1 26.5 1054.3-84 749.4-419.5 749.4-419.5z" style="opacity:.3"/><path class="st5" d="M1350.6 2713.1s-255-14.1-172.8-279.1c0 0 72.2-524.9 867.1-602.5 0 0 598.1-37.7 851.5 757.7 0 0 128.7 164.9-215.4 223.8.1 0-530.4 156.6-1330.4-99.9z"/><path class="st4" d="M2244 2885.6c-228.1 0-534.7-32.2-898.1-148.4-20.1-1.8-121.2-14.3-175.4-92.4-38.1-54.8-43.7-127.6-16.5-216.3 3-18.6 26.8-145.8 140.6-282.3 110.1-132.1 329.2-298.2 748-339 7.2-.5 159-8.8 344 83 169.1 84 398.3 271.5 532 687.9 9.9 14.4 40.2 65.7 18 123-25.5 65.8-109.6 111.5-250 135.7-20 5.7-178.7 48.8-442.6 48.8zm-187.2-1030c-6.5 0-10.1.2-10.3.2-316.2 30.9-562.8 141.3-712.4 319.3-112.7 134.1-131.8 261-132 262.2-.2 1.3-.5 2.6-.9 3.9-23.1 74.4-19.9 133.5 9.4 175.7 45.7 65.7 140.4 71.7 141.4 71.7 2.1.1 4.1.5 6.1 1.1 782.5 251 1310.8 101.3 1316.1 99.7.9-.3 1.9-.5 2.8-.6 152.9-26.2 200.7-71.6 213.9-105.1 15.8-40.3-13.4-79.4-13.7-79.8-1.7-2.2-3.1-4.8-3.9-7.5-101.2-317.6-276.1-546.3-505.9-661.4-147.2-73.6-274.3-79.4-310.6-79.4z"/><path class="st5" d="M1350.6 2713.1s-255-14.1-172.8-279.1c0 0 72.2-524.9 867.1-602.5 0 0 598.1-37.7 851.5 757.7 0 0 128.7 164.9-215.4 223.8.1 0-530.4 156.6-1330.4-99.9z"/><path class="st2" d="M2244 2885.6c-228.1 0-534.7-32.2-898.1-148.4-20.1-1.8-121.2-14.3-175.4-92.4-38.1-54.8-43.7-127.6-16.5-216.3 3-18.6 26.8-145.8 140.6-282.3 110.1-132.1 329.2-298.2 748-339 7.2-.5 159-8.8 344 83 169.1 84 398.3 271.5 532 687.9 9.9 14.4 40.2 65.7 18 123-25.5 65.8-109.6 111.5-250 135.7-20 5.7-178.7 48.8-442.6 48.8zm-187.2-1030c-6.5 0-10.1.2-10.3.2-316.2 30.9-562.8 141.3-712.4 319.3-112.7 134.1-131.8 261-132 262.2-.2 1.3-.5 2.6-.9 3.9-23.1 74.4-19.9 133.5 9.4 175.7 45.7 65.7 140.4 71.7 141.4 71.7 2.1.1 4.1.5 6.1 1.1 782.5 251 1310.8 101.3 1316.1 99.7.9-.3 1.9-.5 2.8-.6 152.9-26.2 200.7-71.6 213.9-105.1 15.8-40.3-13.4-79.4-13.7-79.8-1.7-2.2-3.1-4.8-3.9-7.5-101.2-317.6-276.1-546.3-505.9-661.4-147.2-73.6-274.3-79.4-310.6-79.4z"/><g class="st6"><path class="st4" d="M2344.5 1897.4c-67.3-19.3-144.6-34.7-233.1-43.6-10-1-20.7-.9-30.8.5-472.1 63-629.4 272.5-635.9 281.4-2.6 3.6-4.2 7.8-4.6 12.3-21.4 247.6 19.7 434.5 122.1 555.6 50.1 59.2 103.1 87.4 136 100.3 346 69.7 618.7 62.4 788.2 43.4 1.2-14.3.9-27.5 0-38 32.5-8.6 91.8-31.5 147.6-91.1 88.1-94.1 131.8-238.2 131-428.8-127.6-217.2-285.2-331.8-420.5-392z"/></g><path d="M2646 2128.6s-140.4-250.7-626.5-299.4c-3.6-.4-7.3-.5-10.9-.5-4.7 0-9.5.3-14.2.9-467.1 62.3-619.3 271.5-619.3 271.5-50.2 580.8 270.5 639.9 270.5 639.9s-33.4 156.2 104.7 156.2c0 0 79.5 9.8 71.1-119.3h25.1s-.2 113.4 79.5 113.4c0 0 62.9 6.4 62.9-104.2h37.8c0 110.6 62.9 104.2 62.9 104.2 79.6 0 79.5-113.4 79.5-113.4h25.1c-8.4 129.1 71.1 119.3 71.1 119.3 138.1 0 104.7-156.2 104.7-156.2s326.2-31.5 276-612.4z" style="fill:#fdfdfe"/><path class="st2" d="M2261.3 2921.8c-11.8 0-36.2-2.8-57.7-23-11.9-11.2-20.7-25.8-26.5-43.6-5.6 12.3-13.1 24.3-23.1 34.4-16.9 16.9-39 26-63.9 26.2-6.8.3-30.2-.2-51.7-19.6-14.7-13.3-25-32.1-30.8-56.2-5.8 24.1-16.1 42.9-30.8 56.2-21.5 19.4-44.9 19.9-51.7 19.6-24.9-.2-46.9-9.2-63.9-26.2-10.1-10.1-17.6-22.1-23.1-34.4-5.8 17.8-14.6 32.4-26.5 43.6-25.2 23.7-54.4 23.5-62.5 22.9-44.5-.2-78.7-14.8-101.7-43.2-30.6-37.8-31.5-90.2-28.9-119.8-31.4-10.9-90.4-38.6-145.7-104-102.4-121.1-143.5-308-122.1-555.6.4-4.4 2-8.7 4.6-12.3 6.5-8.9 163.8-218.4 635.8-281.4 10.1-1.3 20.6-1.5 30.8-.5 493.1 49.4 639.4 301.1 645.4 311.8 1.7 3 2.7 6.4 3 9.8 21.5 248.1-20.8 430.7-125.7 542.8-55.8 59.6-115.1 82.5-147.6 91.1 2.4 29.9.9 81-29.1 118-23 28.4-57.2 42.9-101.7 43.2-1.2.1-2.8.2-4.9.2zm-92.4-168.3h25.1c6.8 0 13.2 2.8 17.8 7.7 4.6 4.9 7 11.6 6.6 18.3-2.6 40.7 3.9 69.6 18.9 83.8 11.3 10.6 24.8 9.7 24.9 9.7 1-.1 2-.2 3-.2 29.9 0 51.1-8.2 64.7-24.9 29.4-36.1 16.2-101.1 16.1-101.8-1.4-6.8.1-13.9 4.2-19.5 4.1-5.6 10.4-9.2 17.3-9.9 12.2-1.3 299.4-38.4 254.6-580.2-20.9-31.9-173.3-239.8-605.1-283-6.5-.6-13.1-.5-19.5.3-409.6 54.6-572.2 225.6-598.8 256.8-44.3 542.4 239.2 604 251.4 606.3 6.4 1.3 12.2 5.1 15.8 10.5 3.6 5.5 4.9 12.2 3.6 18.6-.1.6-13.3 65.6 16.1 101.7 13.6 16.8 34.8 24.9 64.7 24.9 1 0 2 .1 3 .2.1 0 14 1 25.4-10.2 14.6-14.3 20.9-43.1 18.3-83.2-.4-6.7 1.9-13.4 6.6-18.3 4.6-4.9 11.1-7.7 17.8-7.7h25.1c6.5 0 12.7 2.6 17.3 7.2 4.6 4.6 7.2 10.8 7.1 17.3 0 .8.9 89 55 89 .8 0 1.7 0 2.5.1-.4 0 8.3.2 16.5-7.8 12.5-12.1 19.4-37.7 19.4-72.1 0-13.5 10.9-24.4 24.4-24.4h37.7c13.5 0 24.4 10.9 24.4 24.4 0 34.4 6.9 60 19.4 72.1 8.3 8 16.9 7.8 17.3 7.8.8-.1.9-.1 1.8-.1 54.1 0 55-88.1 55-89 .2-13.5 11.1-24.4 24.6-24.4z"/><path class="st2" d="M1917.3 2288.7c-.7-19.2-16.5-34.3-35.7-34.3h-322.4c-19.2 0-35 15.2-35.7 34.3-9 251.1 161.8 262.3 196.9 261.9 35.1.4 205.9-10.8 196.9-261.9zM2491.9 2288.7c-.7-19.2-16.5-34.3-35.7-34.3h-322.4c-19.2 0-35 15.2-35.7 34.3-9 251.1 161.8 262.3 196.9 261.9 35.1.4 205.9-10.8 196.9-261.9zM1982.7 2516.9 1927 2568c-14.4 13.2-16.3 36.8-4.3 52.6 11.4 15 31.3 17.8 45.8 6.5l18.8-14.8c6-4.7 14.1-4.7 20.1 0l18.8 14.8c14.4 11.4 34.4 8.5 45.8-6.5 12-15.8 10-39.4-4.3-52.6l-55.7-51.1c-8.7-7.8-20.9-7.8-29.3 0z"/><path class="st9" d="M2448.2 944.9c-1.4.4-2.9.7-4.3.9-273 34.2-509.7 144.5-695.7 264.9-120 77.7-219 159.5-292.9 227.8-97.7 90.2-151.8 156.8-153.3 158.8-225.8 272.8-275.2 545.6-276.9 726.5-1.9 196.7 50.5 330.8 51.1 332.1.3.6.5 1.3.7 2 24.4 77.2 74.1 133.8 135.8 175.5-46.5-38.7-83.3-88-103.2-151-.2-.7-.5-1.3-.7-2-.5-1.3-52.9-135.4-51.1-332.1 1.7-180.9 51.1-453.6 276.9-726.5 1.6-2 60.9-75 167.6-171.8 44.5-.1 101.5-23 152.6-65.3 46.4-38.4 78-84.5 89.7-125.4 191.1-129.5 440.9-252.5 732.1-289 1.5-.2 2.9-.5 4.3-.9 1.1-.3 83.1-22.5 145.2-3.3 1.1-2.1 2.2-4.2 3.3-6.1-59.6-48-179.9-15.5-181.2-15.1z" style="opacity:.5"/><g class="st6"><path class="st2" d="M2646 2128.6s-140.4-250.7-626.5-299.4c-3.6-.4-7.3-.5-10.9-.5-4.7 0-9.5.3-14.2.9-467.1 62.3-619.3 271.5-619.3 271.5-2.5 29.2-4.1 57-4.8 83.6 61.9-60.3 234.8-193.5 591.5-241.1 4.7-.6 9.5-.9 14.2-.9 3.6 0 7.3.2 10.9.5 190.8 19.1 335.6 78.1 436.2 136.7 62.4 36.4 101.1 103 101.2 175.2.3 163.2-46.9 406.7-245.7 456.4 0 0 25.1 143.1-79.1 142.8l54.2 51 70.1-15.9 54.2-89.3-5.8-60.1s165.2-22.5 240.7-271.8c-2.3 21.1-5.3 41-8.8 59.9 36.5-90 57.6-217.9 41.9-399.5z"/></g><g class="st6"><path class="st4" d="m2164.6 2760.4-26.8 4.5c-12.9 2.1-23.4 11.4-27.2 23.8-7.7 25.4-24.9 65.5-55.7 63.8 0 0 7.9 17.9 16 26s66.4-9.6 66.4-9.6l28.8-45.3-1.5-63.2z"/></g><g class="st6"><path class="st4" d="m1977.2 2768.5-30.2 5c-10.4 1.7-17.9 10.6-18.2 21.1-.7 26.5-8.2 72.6-52.6 68.8l56.1 23.2 32.6-32.6 25.3-45.6-13-39.9z"/></g><g class="st6"><path class="st4" d="m1814.3 2752.2-29.6 1.3c-16.4.7-30.2 12.9-32.7 29.1-4.9 32.4-21.4 80.9-76.2 75.4 0 0 45.9 37.1 53.5 36.9s67.3-16.5 67.3-16.5l22-48.1-4.3-78.1z"/></g><ellipse transform="rotate(-32.691 2135.14 1331.412)" class="st9" cx="2135.2" cy="1331.4" rx="253.1" ry="130.8" style="opacity:5.000000e-02"/></svg>