<svg version="1.1" id="svg2" xmlns="http://www.w3.org/2000/svg" x="0" y="0" viewBox="0 0 4096 4096" style="enable-background:new 0 0 4096 4096" xml:space="preserve"><style>.st1{fill-rule:evenodd;clip-rule:evenodd;fill:#000072}.st10,.st11,.st12,.st17,.st4,.st6,.st9{fill-rule:evenodd;clip-rule:evenodd;fill:#fff}.st10,.st11,.st12,.st17,.st6,.st9{fill:#748792}.st10,.st11,.st12,.st17,.st9{fill:#455763}.st10,.st11,.st12,.st17{fill:#798088}.st11,.st12,.st17{fill:#e7bf00}.st12,.st17{fill:#ebeef1}.st17{fill:#fffcee}</style><path style="fill-rule:evenodd;clip-rule:evenodd;fill:#02e9b8" d="M0 0h4096v4096H0z"/><path class="st1" d="M1918.6 864.3c-30.1 35.9-48.1 33.1-71.7 75.7l214.4 52.3c-51.7 116.8-91.4 38.3-371.8 119.8-61.3 17.8-123.8 42.6-170.8 74.4-89.3 60.5-53.5 79-91 166.7-10.9 25.4-75.8 77.6-110.3 135.1-32.7 54.7-51.6 119.7-51.3 194.9.6 175.4 91.1 249 175.7 327.5-14.6 46.3-48.6 66.4-77.7 109.2-90 132.5-125 272.1-143.9 441.2-234.8 48.2-207.7 326.5-47.2 384.7 40.8-28 54.9-46.7 95.2-81.2-4.7-91.8-46.6-129.3 83-107.5-.4 67.7-15.8 54.5-27.4 110.5l104.3 81.6c259.8-195.7 44.7-338.4 24.9-365.3 20.2-55.9 44.5-97 80.9-125.8 38.7 98.9 40.1 93.8 94 162.4 54.7 69.6 23 377.2 422 371.3 164.5-2.4 282.8-76.2 333.5-191.7 29.2-66.6 32.6-143.2 70.5-186.8 57.9-66.7 62.1-121.9 99.1-166.7 39.4 32.9 77.8 86.4 90.3 149-48.8 46.2-121.3 80.1-97.5 194.2 14.7 70.5 89.9 146.6 135.5 166.3 27.1-29.3 58.2-54.9 92.4-91.4-13.2-46.2-67.7-102.5 13.6-109.3 90.5-7.6 48.2 57.7 39.7 109.3 23 24.8 74.5 68.9 100.4 83.9 72.4-32.8 133.7-104.4 117.6-223.6-16.7-123.2-89.7-119.3-170-168.3-11.5-118.8-37.9-224-78.9-321.1-52-123.3-110.7-158.4-160.4-236.5 22.7-29.4 36.7-31.1 62.4-53.8 184.3-162.4 213-404 84-596.5-114.8-171.4-455.4-263.9-670.5-289.9l32-99c-38.1-8.4-72.4-14.4-111-20.6-38.3-6.1-82.4-7.8-111.3-30.3 57.1-46.9 124.5 62.4 232.2-34.7 155.5-140-63.5-370.4-213.5-238.1-79.9 70.5-51.8 140.6-21.4 228.1m86.1-201.2c129.3-64.6 199.8 141.9 81.2 190.6-121.2 49.8-215-123.8-81.2-190.6zm-374.5 634.6-81.2 12.6-55.3 14.1c18.3-93.7 67.9-107.7 151.4-139.5 219.7-83.8 473.2-99.4 693.2-23.1-241 49-293 217.7-354.9 342.8-58.1-116.6-174.3-196.5-353.2-206.9zm412.7 225.7c15.1-167.5 182.3-312.6 369.9-316.2 211.5-4.1 334.1 132.6 385.1 288.8l28.7 61.2c2.2 11.9 2.2 45.7.7 67.1-15.5 225-187.4 389.2-426.6 375.4-12.4-.7-95.3-6-100.4-18.5-1.7-4.1-6.3-2.9-9.2-4.9-93.7-30.8-163.4-96.7-204.3-166.1-35.4-59.8-102.3-217.1-43.9-286.8zm-731 144c21.3-103.9 31.3-156 93.4-219.8 120.2-123.5 303.3-133.1 443.3-31.1 70.9 51.7 73.7 86 117.5 173 21.5 29 22.8 51.2 23.6 55 .2.7 1.9 44.9 1.9 51.6-.1 44.1-.9 60.8-14.9 100.5-22.2 62.6-54.5 107.9-92.1 141.9-60.9 55-258.9 132.9-347.7 58.1-124.8-29.5-226.8-163.4-225-329.2zm282.5 793.6c-31.3-86.7-76-317.4-85.2-417.5 67 12.3 102.9 25.5 178.9 17.9 61.4-6.1 91.8-28.8 138.2-36.4 34.5-36.9 74.3-57.4 112.7-102.2 30.4-35.5 45.9-92.1 76.2-134 33 36.2 54.4 85.8 88.1 122 141.8 152.5 299.4 143.2 472.1 110.2-6.1 113.6-44.1 298.4-77.7 402.6-44.3 137.6-99.1 201.5-229.2 249.6-124.4 46-281.2 50.8-413.6 13.3-138.5-39.2-222.8-101.3-260.5-225.5zm-154.6-299c44.9 32.7 39 31.7 53.1 96.4 8.4 40.4 44.8 153.2-6.4 156.7-65.4 4.5 32.5 6.3-16.3 0l-89.9-41.4-31.7-21.9-33.2-15.9c2.5-52.8 39.8-127.8 69.7-171.5 1.4-2.1 14.8-19.8 15.2-20.2 13.6-15.1 4.2-5.5 19.7-16.4l19.8 34.2zm1266.3 221.6-94.6 44.7-46.2-43.5 34.4-152.9c10.7-20 63.2-86.6 82.2-103.1 50.6 39.9 81.4 125.5 102.1 197.6-26.6 30.9-38.6 38-77.9 57.2zm-1366.8 207.1-56-20.4c-17.4-13.6-27.8 18.8-6.8-104.6 6-35.1 13.4-67.5 18.7-102.7l38.8 19.3 49.9 23.9c25.2 12.4 51.3 24.6 81.8 35.9l-70.6 156.3-55.8-7.7zM2707 2418.2l88.1-53.1c19.6 58 39.3 150.4 33.5 213.2l-76.7 21.4-46.6 6.5c-15.7-28.7-60.4-129.4-69.2-152.9l70.9-35.1zm-1507.2 428.2-37.4 21.1c-126.9-122.9 7.2-296.3 130.1-240.8 335.6 41 164.9 236.8 122.6 230.9-19.3-39.8 11.1-68.1-4.8-113.4-11.6-33.1-45.4-50.4-86.5-54.4-119.9-11.6-137.4 49.3-124 156.6zm1574.4-201.9c12.4-8.4-11.1-3 25.7-14l87.9 3.7c110.7 36 118.2 176 38.4 240.7l-26.8-19.8c-11.6-36.2 36.2-175.9-135.5-156.7-143.1 16-59.3 121.4-86.5 173.1-82.4-5.1-165-226.1 96.8-227zm-522.4 92 112.2-45.2c-54 355-572 295.6-630.6 76.4l-21.7-77.2c241.3 79.2 265.8 93.5 540.1 46z"/><path d="M1826.3 2025c41.1 27.4 68.5 75.2 119.1 113.9 116.4 89.1 362.2 218 310.6 357.3-47.1 126.9-362.6 152.5-532.3 63.3-65-34.2-68.8-40.8-115.3-85.4l-14-13.1c37.7 124.2 122 186.4 260.4 225.6 132.4 37.5 289.2 32.7 413.6-13.3 130.1-48.1 184.9-112 229.2-249.6 33.6-104.2 71.6-289 77.7-402.6-172.7 33-330.3 42.2-472.1-110.2-33.7-36.2-55.1-85.8-88.1-122-30.3 41.9-45.8 98.5-76.2 134-38.2 44.7-78.1 65.2-112.6 102.1" style="fill-rule:evenodd;clip-rule:evenodd;fill:#bc9615"/><path d="m1594.4 2461 14 13.1c46.5 44.6 50.3 51.3 115.3 85.4 169.7 89.2 485.2 63.6 532.3-63.3 51.6-139.2-194.2-268.2-310.6-357.3-50.6-38.7-78-86.5-119.1-113.9-46.4 7.6-76.8 30.3-138.2 36.4-76 7.6-111.9-5.6-178.9-17.9 9.3 100.1 53.9 330.7 85.2 417.5" style="fill-rule:evenodd;clip-rule:evenodd;fill:#e9c000"/><path class="st4" d="M2712.3 1659.7c40.6-176.1-94.1-324-230.5-351.5-183.1-36.9-327.2 95.1-353.3 240.9-68.3 380.5 492.7 505.9 583.8 110.6m-144.6-105.3c43.6 167.9-135.5 270.2-249.5 164.9-112.6-104-25.4-305.8 148-265-22.9 41.3-20.4 46.2-9.5 92.5 77 33.1 75-12.2 111 7.6zM1590 1438.5c-351.4 102.1-183 573.7 120.2 489.3 321.4-89.4 182-577.2-120.2-489.3m177.2 195.5c24.5 163-117 235.4-210.1 144.6-92.8-90.6-17.2-250.5 125.2-219.2-48.1 92 19 85.8 84.9 74.6z"/><path d="M1549 1310.3c18.3-62.4 44.5-69.1 105.9-92.5 47.8-18.2 97.7-41.3 147-48.1-46.1 45.6-134.9 62.2-171.8 128 178.9 10.4 295.1 90.2 353.2 206.9 61.9-125.1 113.9-293.8 354.9-342.8-220-76.3-473.5-60.7-693.2 23.1-83.5 31.8-133.1 45.8-151.4 139.5l55.4-14.1z" style="fill-rule:evenodd;clip-rule:evenodd;fill:#e8bf00"/><path class="st1" d="M2576.1 1907.4c32.7-49.6 57.4-34.8 108.1-93.6 113.2-131.4 91.8-315.8-21.6-447.7-166.7-197.6-509.5-98.4-569.8 160.6-35.7 153.5 42.5 282.6 121 344 109.5 85.5 226.5 88.2 362.3 36.7m136.2-247.7c-91.1 395.3-652.1 269.9-583.8-110.6 26.2-145.8 170.2-277.8 353.3-240.9 136.3 27.5 271 175.4 230.5 351.5z"/><path class="st1" d="M2567.7 1554.4c-36.1-19.8-34.1 25.5-111-7.7-10.9-46.3-13.4-51.2 9.5-92.5-173.4-40.7-260.6 161.1-148 265 114.1 105.4 293.1 3.1 249.5-164.8M1690.1 1969.5c24-14.8 218.6-33.7 243.1-251.9 8.4-74.5-13.3-150-44.6-200-47.9-76.6-83.6-59.7-154-107.5-191.5-91.1-358.8 81-378.1 237.5-23.7 191.1 140.1 358.4 333.6 321.9m-100.1-531c302.2-87.9 441.6 399.9 120.2 489.3-303.2 84.3-471.5-387.2-120.2-489.3z"/><path class="st6" d="M2042.9 1523.4c-58.4 69.7 8.5 227 43.9 286.9 40.9 69.4 110.7 135.2 204.3 166.1 108 12.8 226.5-14.3 285-69-135.8 51.5-252.8 48.8-362.3-36.7-78.5-61.3-156.7-190.4-121-344 60.3-258.9 403.1-358.2 569.8-160.6.6-37.6-6.2-12.6 18.5-20.1-145.6-193.1-592.8-120.6-636 209.7l-2.2-32.3z"/><path class="st1" d="M1686.3 3192.1c95.4 62.4 631.1 66.1 726 0-41.8-83.9-554.2-55.3-655.9-37.1-43.9 7.9-53.4 6.2-70.1 37.1"/><path d="M2251.8 2736.5c28.2 16.3 25.6.1-10.2 36.4-50.4 51-153.2 81.3-233 66.5l-56.2.1c-101.5 16-73.5-17-100.9-54.2-87.6 32.8 5.3 50.7-118.1-17.6 58.7 219.1 576.6 278.6 630.6-76.4l-112.2 45.2z" style="fill-rule:evenodd;clip-rule:evenodd;fill:#43525e"/><path d="M2662.6 1366.1c113.5 131.9 134.8 316.3 21.6 447.7-50.7 58.9-75.5 44-108.1 93.6-58.5 54.7-177 81.8-285 69 2.9 1.9 7.5.7 9.2 4.9 5.1 12.5 88 17.8 100.4 18.5 239.2 13.8 411.1-150.4 426.6-375.4 1.5-21.4 1.5-55.3-.7-67.1l-28.7-61.2-6.1 33.8c-17.2-83.9-61.5-140.5-110.7-183.8-24.8 7.4-17.9-17.6-18.5 20" style="fill-rule:evenodd;clip-rule:evenodd;fill:#455866"/><path class="st1" d="M1767.2 1634c-65.9 11.2-133 17.4-84.8-74.6-142.5-31.3-218 128.6-125.2 219.2 93 90.8 234.6 18.4 210-144.6"/><path class="st9" d="M1690.1 1969.5c-16.1 13.8 3.9 5.3-33 20.3-13.1 5.3-25 7.6-39.9 9.4-35.3 4.3-46.2 2.8-80.3-2.6 88.8 74.8 286.8-3.1 347.7-58.1 37.6-34 69.9-79.3 92.1-141.9 14.1-39.7 14.9-56.4 14.9-100.5 0-6.7-1.8-50.9-1.9-51.6-.8-3.8-2.1-26-23.6-55l-1.3 55.3c-27.3-105.4-93.4-225.1-203.5-234.4l-26.8-.4c70.4 47.8 106.1 30.9 154 107.5 31.3 50.1 53 125.6 44.6 200-24.4 218.3-219 237.2-243 252"/><path class="st10" d="M1733.3 2767.7c123.5 68.3 30.5 50.4 118.1 17.6 27.5 37.2-.6 70.2 100.9 54.2l56.2-.1c79.8 14.8 182.6-15.5 233-66.5 35.9-36.3 38.4-20.1 10.2-36.4-274.3 47.5-298.7 33.2-540.2-46l21.8 77.2z"/><path class="st11" d="M2004.7 663.1c-133.8 66.8-40 240.4 81.2 190.6 118.6-48.7 48.1-255.2-81.2-190.6m49.3 49.3 54 4.4-2.5 54.6-56.6-2.9 5.1-56.1z"/><path class="st6" d="M1311.9 1667.4c-1.7 165.7 100.2 299.7 225 329.3 34.1 5.3 45.1 6.9 80.3 2.6 15-1.8 26.8-4.1 39.9-9.4 36.9-15 16.9-6.5 33-20.3-193.5 36.5-357.3-130.8-333.7-322 19.3-156.5 186.6-328.6 378.1-237.5l26.8.4c-64.3-80.7-238.9-17.9-299.2 24-23.5 16.3-78 75.1-94.7 103.1-25.3 42.7-35.4 95.1-55.5 129.8"/><path class="st11" d="M2899.4 2855.1c2.7-1.5 40.6 7.4 30.6-83.8-9.3-84.4-64.9-125.2-155.9-126.8-261.7.9-179.1 221.9-96.7 227 27.2-51.7-56.6-157.1 86.5-173.1 171.8-19.3 123.9 120.4 135.5 156.7M1199.8 2846.4c-13.4-107.3 4-168.2 124-156.5 41.1 4 74.9 21.2 86.5 54.4 15.9 45.4-14.6 73.7 4.8 113.4 42.3 5.9 213-190-122.6-230.9-21.7 17.5-4.1 5.1-32 20.6-40.1 22.4-96.2 43.9-94.9 135.7.8 51.4 2 49.8 34.2 63.3"/><path class="st10" d="M2599.6 2231.9c9.6 40.2 28.9 54.8 46.8 83.1 9.2 14.5 12 24 20.7 37.5 31.1 48.4-2.6 21.7 39 31.1 39.3-19.3 51.4-26.4 77.9-57.2-20.7-72.1-51.5-157.7-102.1-197.6-19.1 16.5-71.5 83.2-82.3 103.1"/><path class="st12" d="m2042.9 1523.4 2.2 32.4c43.2-330.3 490.4-402.8 635.9-209.7 49.2 43.2 93.5 99.9 110.7 183.8l6.2-33.8c-51.1-156.2-173.6-292.9-385.1-288.8-187.7 3.5-354.9 148.6-369.9 316.1M1311.9 1667.4c20.1-34.7 30.2-87.1 55.6-129.8 16.7-28 71.2-86.7 94.7-103.1 60.3-41.9 234.9-104.7 299.2-24 110.1 9.3 176.2 129 203.5 234.4l1.3-55.3c-43.8-87.1-46.6-121.3-117.5-173-140-102.1-323.1-92.4-443.3 31.1-62.2 63.7-72.3 115.8-93.5 219.7"/><path class="st10" d="m2707 2418.2 44.9 181.5 76.7-21.4c5.8-62.8-13.8-155.2-33.5-213.2l-88.1 53.1z"/><path d="M1199.8 2846.4c-32.2-13.6-33.5-12-34.2-63.3-1.3-91.8 54.8-113.3 94.9-135.7 27.9-15.6 10.3-3.1 32-20.6-122.9-55.5-257 117.9-130.1 240.8l37.4-21.2z" style="fill-rule:evenodd;clip-rule:evenodd;fill:#bb9715"/><path class="st10" d="m1348.6 2351.9 31.7 21.9c56.7 8.5 8.5 7 34-16.5.3-.3 22.1-33.5 23.3-35.5 21.8-36.4 20.9-38.8 55.3-63.5-14.1-64.7-8.2-63.7-53.1-96.4l-91.2 190z"/><path d="m2899.4 2855.1 26.8 19.8c79.7-64.7 72.3-204.7-38.4-240.7l-87.9-3.7c-36.8 11.1-13.3 5.6-25.7 14 91 1.6 146.6 42.4 155.9 126.8 9.9 91.2-28 82.3-30.7 83.8" style="fill-rule:evenodd;clip-rule:evenodd;fill:#bb9815"/><path class="st9" d="m1339.3 2590.7 55.8 7.7 70.6-156.3c-30.5-11.3-56.6-23.5-81.8-35.9l-44.6 184.5zM2706.1 2383.6c-41.6-9.3-7.9 17.4-39-31.1-8.7-13.5-11.5-23-20.7-37.5-17.9-28.3-37.2-42.9-46.8-83.1l-34.4 152.9 46.2 43.5 94.7-44.7z"/><path d="m2751.9 2599.7-44.9-181.5-71 35.1c8.8 23.5 53.5 124.2 69.2 152.9l46.7-6.5z" style="fill-rule:evenodd;clip-rule:evenodd;fill:#495765"/><path d="m1348.6 2351.9 91.2-189.8-19.9-34.1c-15.4 10.8-6 1.3-19.7 16.4-.3.4-13.7 18.1-15.2 20.2-29.9 43.7-67.2 118.7-69.7 171.5l33.3 15.8z" style="fill-rule:evenodd;clip-rule:evenodd;fill:#f3f7f8"/><path class="st9" d="m1380.3 2373.8 89.9 41.4c48.8 6.2-49.1 4.4 16.3 0 51.2-3.5 14.8-116.4 6.4-156.7-34.4 24.6-33.5 27.1-55.3 63.5-1.1 1.9-22.9 35.2-23.3 35.5-25.5 23.3 22.7 24.8-34 16.3"/><path class="st10" d="m1283.3 2570.3 56 20.4 44.5-184.4-49.9-24-37.3 179z"/><path class="st17" d="m1549 1310.3 81.2-12.6c36.8-65.8 125.6-82.4 171.8-128-49.4 6.8-99.3 30-147 48.1-61.5 23.4-87.7 30.1-106 92.5"/><path d="m1283.3 2570.3 13.4-9.1 37.3-178.9-38.8-19.3c-5.4 35.1-12.8 67.6-18.7 102.7-21 123.4-10.6 91.1 6.8 104.6" style="fill-rule:evenodd;clip-rule:evenodd;fill:#eff2f5"/><path class="st17" d="m2048.9 768.6 56.6 2.9 2.5-54.7-54-4.4z"/></svg>