<svg version="1.1" id="Layer_1" xmlns="http://www.w3.org/2000/svg" x="0" y="0" viewBox="0 0 410.3 130" style="enable-background:new 0 0 410.3 130" xml:space="preserve"><style>.st1{fill:#29ef95}</style><path d="M63.6 63.4 54 54c-2.4-2.4-6.3-2.3-8.7.1-2.4 2.4-2.3 6.3.1 8.7L55.7 73l3.2 3.1c3.1 3 8 2.9 11-.1l3.1-3.2 5.1-5.3c2.4-2.4 2.3-6.3-.1-8.7-2.4-2.4-6.3-2.3-8.7.1l-4.4 4.5c-.2.4-.9.4-1.3 0z" style="fill:#fff"/><path class="st1" d="M53.5 37.3 60 48.6l2.9 5 17.4 30.1 28.2-.1-46.4-79-13.4 24.3 4.8 8.4zm49.4 46.3-16.8.1M29.2 112.7l9.2-16 2.1-3.7 2.9-5 17.4-30.1-14.2-24.6-45.3 79.4h27.9zm20.3-74.3 2 3.3L58 52.9v.1l-8.5-14.6zM33.3 112.7h92.4l-15-24.7-63 .1-14.4 24.6zm11.3-19.6-8.3 14.6 6.2-10.9 2.1-3.7z"/><path d="M157.1 29.1h18.4l-18 69.3h-.3l.1.1H139v-.1h-.2l-18-69.3h18.4l9 34.4 8.9-34.4zM233.4 98.1h-54.9V29h18.7l.2 54.6h16.7V29.3h.3V29h18.7l.3 69.1zM236.5 29h54.9L286 43.9h-30.6v12.6H286V71h-30.6v12.2l36-.1-5.3 15.1h-49.5V29zM313.4 98.3h-18.8V64.9l-.1-.1.1-.1V29l45.2-.1c2.7 0 4.9.6 6.5 1.9 1.6 1.3 2.7 3.3 3.3 6.2v23c-.5 2.4-1.4 4.3-2.6 5.5-1.2 1.3-2.8 2.1-4.8 2.4v.3h-7.1l14.4 30.3h-19.4l-14.1-30V56.6h13.7V43.7h-17.1l.8 54.6zM362.6 98.3c-5.5 0-8.8-2.3-9.9-7 .1-9.7.1-19 .1-27.8 0-8.9 0-17.7-.1-26.5.6-2.9 1.7-5 3.3-6.2 1.6-1.3 3.8-1.9 6.5-1.9H398c2.7 0 4.9.6 6.5 1.9 1.6 1.3 2.7 3.3 3.3 6.2-.1 8.8-.1 17.6-.1 26.5 0 8.9 0 18.1.1 27.8-1.1 4.7-4.4 7-9.9 7h-35.3zm10-15.2h15.5V43.8h-15.5v39.3z"/></svg>