<svg version="1.1" id="Layer_1" xmlns="http://www.w3.org/2000/svg" x="0" y="0" viewBox="0 0 256 77" style="enable-background:new 0 0 256 77" xml:space="preserve"><style>.st0{fill:#fff}</style><path class="st0" d="M40.2.2h20.4L40.7 76.9h-.4l.1.1H20.1v-.1h-.2L0 .2h20.4l9.9 38 9.9-38zM124.6 76.6H63.9V.1h20.7l.2 60.5h18.5V.5h.4V.1h20.7l.2 76.5zM148.9 60.2h33.8l6 16.4H128V.1h20.7l.2 60.1zM224.4 39.4 256 76.6h-24.4l-19.1-20.7V76.6h-20.6V52.2l-.1-.1.1-.1V.1h20.7l-.1 21.8L227.6 0h24.8l-.6.7h.4l-27.8 38.7z"/></svg>