<svg version="1.1" id="Layer_1" xmlns="http://www.w3.org/2000/svg" x="0" y="0" viewBox="0 0 394.1 130" style="enable-background:new 0 0 394.1 130" xml:space="preserve"><style>.st0{fill:#7703fc}</style><path d="M178.3 26.9h20.4l-19.9 76.7h-.4l.1.1h-20.3v-.1h-.2l-19.9-76.7h20.4l9.9 38 9.9-38zM262.7 103.3H202V26.8h20.7l.2 60.5h18.5V27.2h.4v-.4h20.7l.2 76.5zM287 86.9h33.8l6 16.4h-60.7V26.8h20.7l.2 60.1zM362.5 66.1l31.6 37.2h-24.4l-19.1-20.7V103.3H330V78.9l-.1-.1.1-.1V26.8h20.7l-.1 21.8 15.1-21.9h24.8l-.6.7h.4l-27.8 38.7z"/><path class="st0" d="M58.3 130c-2.6 0-5.2-.7-7.5-2L7.5 103C2.9 100.3 0 95.3 0 90V40c0-5.3 2.9-10.3 7.5-13L50.7 2c4.6-2.7 10.4-2.7 15 0L109 27c4.6 2.7 7.5 7.7 7.5 13v49.9c0 5.4-2.9 10.4-7.5 13.1l-43.2 25c-2.3 1.3-4.9 2-7.5 2zm0-124.3c-1.6 0-3.2.4-4.7 1.3L10.4 32c-2.9 1.7-4.7 4.8-4.7 8.1V90c0 3.3 1.8 6.4 4.7 8.1l43.2 25c2.9 1.7 6.5 1.7 9.3 0l43.2-25c2.9-1.7 4.7-4.8 4.7-8.1V40c0-3.3-1.8-6.4-4.7-8.1l-43.2-25c-1.4-.8-3-1.2-4.6-1.2z"/><path class="st0" d="M64.8 104.6c-1.3 0-2.6-.2-3.8-.5l-24.6-6.6c-5.2-1.4-9.2-5.5-10.6-10.6l-6.6-24.6c-1.4-5.2.1-10.8 3.9-14.5l18-18c3.8-3.8 9.4-5.3 14.5-3.9l24.6 6.6c5.2 1.4 9.2 5.5 10.6 10.6l6.6 24.6c1.4 5.2-.1 10.8-3.9 14.5l-18 18c-2.9 2.8-6.8 4.4-10.7 4.4zM51.7 31c-2.5 0-4.9 1-6.6 2.8l-18 18c-2.4 2.4-3.3 5.8-2.4 9.1l6.6 24.6c.9 3.2 3.4 5.7 6.6 6.6l24.6 6.6c3.2.8 6.7-.1 9-2.4l18-18c2.4-2.4 3.3-5.8 2.4-9.1l-6.6-24.6c-.9-3.2-3.4-5.7-6.6-6.6l-24.6-6.6c-.8-.3-1.6-.4-2.4-.4z"/></svg>