<?xml version="1.0" encoding="UTF-8" standalone="no"?>
<svg
   data-name="Layer 1"
   width="804.18506"
   height="488.65353"
   viewBox="0 0 804.18507 488.65354"
   version="1.1"
   id="svg94"
   sodipodi:docname="qatent-description-editor.svg"
   inkscape:version="1.1.2 (0a00cf5339, 2022-02-04)"
   xmlns:inkscape="http://www.inkscape.org/namespaces/inkscape"
   xmlns:sodipodi="http://sodipodi.sourceforge.net/DTD/sodipodi-0.dtd"
   xmlns="http://www.w3.org/2000/svg"
   xmlns:svg="http://www.w3.org/2000/svg">
  <defs
     id="defs98" />
  <sodipodi:namedview
     id="namedview96"
     pagecolor="#ffffff"
     bordercolor="#666666"
     borderopacity="1.0"
     inkscape:pageshadow="2"
     inkscape:pageopacity="0.0"
     inkscape:pagecheckerboard="0"
     showgrid="false"
     inkscape:snap-global="false"
     fit-margin-top="0"
     fit-margin-left="0"
     fit-margin-right="0"
     fit-margin-bottom="0"
     inkscape:zoom="1.2728608"
     inkscape:cx="405.77886"
     inkscape:cy="348.42774"
     inkscape:window-width="2432"
     inkscape:window-height="1399"
     inkscape:window-x="0"
     inkscape:window-y="0"
     inkscape:window-maximized="1"
     inkscape:current-layer="svg94" />
  <path
     d="m 522.17886,417.03923 h -218.533 A 22.11531,22.11531 0 0 1 281.55565,394.9489 V 105.58633 a 22.1153,22.1153 0 0 1 22.09021,-22.090332 h 218.533 a 22.11533,22.11533 0 0 1 22.09033,22.090332 V 394.9489 a 22.11533,22.11533 0 0 1 -22.09033,22.09033 z"
     fill="#e6e6e6"
     id="path2" />
  <path
     d="M 506.81779,398.6281 H 319.00697 A 19.63607,19.63607 0 0 1 299.3932,379.01433 V 121.5209 a 19.63607,19.63607 0 0 1 19.61377,-19.61377 h 187.81082 a 19.636,19.636 0 0 1 19.61377,19.61377 v 257.49343 a 19.636,19.636 0 0 1 -19.61377,19.61377 z"
     fill="#ffffff"
     id="path4" />
  <path
     d="M 488.0823,150.84113 H 337.74245 a 4.90308,4.90308 0 1 1 0,-9.80615 H 488.0823 a 4.90308,4.90308 0 1 1 0,9.80615 z"
     fill="#e4e4e4"
     id="path6" />
  <path
     d="M 488.0823,170.21564 H 337.74245 a 4.90332,4.90332 0 0 1 0,-9.80664 H 488.0823 a 4.90332,4.90332 0 0 1 0,9.80664 z"
     fill="#e4e4e4"
     id="path8" />
  <path
     d="m 402.91116,189.59015 h -65.16871 a 4.90332,4.90332 0 0 1 0,-9.80664 h 65.16871 a 4.90332,4.90332 0 0 1 0,9.80664 z"
     fill="#e4e4e4"
     id="path10" />
  <path
     d="M 488.0823,230.16757 H 337.74245 a 4.90308,4.90308 0 1 1 0,-9.80615 H 488.0823 a 4.90308,4.90308 0 1 1 0,9.80615 z"
     fill="#e4e4e4"
     id="path12" />
  <path
     d="M 488.0823,249.54209 H 337.74245 a 4.90332,4.90332 0 0 1 0,-9.80664 H 488.0823 a 4.90332,4.90332 0 0 1 0,9.80664 z"
     fill="#e4e4e4"
     id="path14" />
  <path
     d="m 402.91116,268.91657 h -65.16871 a 4.90333,4.90333 0 0 1 0,-9.80665 h 65.16871 a 4.903325,4.903325 0 0 1 0,9.80665 z"
     fill="#e4e4e4"
     id="path16" />
  <path
     d="M 488.0823,309.49403 H 337.74245 a 4.90308,4.90308 0 1 1 0,-9.80615 H 488.0823 a 4.90308,4.90308 0 1 1 0,9.80615 z"
     fill="#e4e4e4"
     id="path18" />
  <path
     d="M 488.0823,328.86857 H 337.74245 a 4.90332,4.90332 0 1 1 0,-9.80664 H 488.0823 a 4.90332,4.90332 0 1 1 0,9.80664 z"
     fill="#e4e4e4"
     id="path20" />
  <path
     d="m 402.91116,348.24306 h -65.16871 a 4.90332,4.90332 0 0 1 0,-9.80664 h 65.16871 a 4.90332,4.90332 0 0 1 0,9.80664 z"
     fill="#e4e4e4"
     id="path22" />
  <polygon
     points="207.032,102.448 370.946,242.651 369.608,244.215 206.272,104.506 96.539,104.506 96.539,102.448 "
     fill="#2f2e41"
     id="polygon24"
     transform="translate(0,4.6022476)" />
  <path
     d="M 155.24317,163.46244 H 4.90332 a 4.90308,4.90308 0 1 1 0,-9.80616 h 150.33985 a 4.90308,4.90308 0 1 1 0,9.80616 z"
     fill="#4400aa"
     id="path28" />
  <path
     d="M 155.24317,182.83695 H 4.90332 a 4.90332,4.90332 0 0 1 0,-9.80664 h 150.33985 a 4.90332,4.90332 0 0 1 0,9.80664 z"
     fill="#4400aa"
     id="path30" />
  <path
     d="M 70.07202,202.21146 H 4.90332 a 4.90332,4.90332 0 0 1 0,-9.80664 h 65.1687 a 4.90332,4.90332 0 0 1 0,9.80664 z"
     fill="#4400aa"
     id="path32" />
  <polygon
     points="577.586,17.494 414.25,157.203 412.912,155.639 576.826,15.436 687.319,15.436 687.319,17.494 "
     fill="#2f2e41"
     id="polygon34"
     transform="translate(0,4.6022476)" />
  <path
     d="M 799.27496,75.873438 H 648.93511 a 4.90308,4.90308 0 1 1 0,-9.80615 h 150.33985 a 4.90308,4.90308 0 1 1 0,9.80615 z"
     fill="#4400aa"
     id="path38" />
  <path
     d="M 799.27496,95.247948 H 648.93511 a 4.90332,4.90332 0 0 1 0,-9.80664 h 150.33985 a 4.90332,4.90332 0 1 1 0,9.80664 z"
     fill="#4400aa"
     id="path40" />
  <path
     d="m 714.10386,114.62247 h -65.1687 a 4.903325,4.903325 0 0 1 0,-9.80665 h 65.1687 a 4.903325,4.903325 0 1 1 0,9.80665 z"
     fill="#4400aa"
     id="path42" />
  <g
     id="s1"
     style="fill:#4400aa;fill-opacity:1;stroke:#4400aa"
     transform="matrix(0.89830849,0,0,0.89830849,589.21678,-132.57012)">
    <path
       transform="scale(1.05)"
       style="fill-rule:nonzero;stroke-width:0.5px;shape-rendering:geometricPrecision"
       d="m 127.6,149.5 q -4.4,0 -7,2.8 -2.4,2.8 -2.4,8.2 0,5.3 2.4,8.1 2.6,2.8 7,2.8 4.7,0 7.1,-2.8 2.6,-2.8 2.6,-8.1 0,-5.4 -2.6,-8.2 -2.4,-2.8 -7.1,-2.8 z m 9.7,24.2 q -3.1,3.4 -6.7,4.9 -3.7,1.5 -8.3,1.5 -8.4,0 -13.8,-5.5 -5.3,-5.5 -5.3,-14.1 0,-8.7 5.3,-14.2 5.4,-5.5 13.8,-5.5 4.6,0 8.3,1.6 3.6,1.5 6.7,4.8 v -5.5 h 14.4 v 51.7 h -14.4 z"
       id="path1050" />
  </g>
  <g
     id="g1185"
     transform="translate(4.5433728,103.78693)">
    <circle
       id="a4ecd73b-08d8-48cc-a4e8-61145e733de3"
       data-name="Ellipse 44"
       cx="697.90912"
       cy="359.5105"
       r="25.356119"
       fill="#4400aa" />
    <path
       id="e1436a23-a259-49e2-b8fe-799bdd526759-1494"
       data-name="Path 395"
       d="m 695.39649,369.1831 a 2.62978,2.62978 0 0 1 -1.5821,-0.52581 l -0.0283,-0.0212 -5.959,-4.55847 a 2.64815,2.64815 0 1 1 3.22237,-4.20322 l 3.85978,2.95986 9.12086,-11.89918 a 2.647,2.647 0 0 1 3.71127,-0.49021 l 7.6e-4,5.8e-4 -0.0566,0.0786 0.0581,-0.0786 a 2.65023,2.65023 0 0 1 0.48963,3.712 l -10.72813,13.98979 a 2.64863,2.64863 0 0 1 -2.10632,1.03272 z"
       fill="#ffffff" />
  </g>
  <g
     id="g1179"
     style="fill:#4400aa;fill-opacity:1;stroke:#4400aa"
     transform="matrix(0.89830849,0,0,0.89830849,-44.692052,-46.091512)">
    <path
       transform="scale(1.05)"
       style="fill-rule:nonzero;stroke-width:0.5px;shape-rendering:geometricPrecision"
       d="m 127.6,149.5 q -4.4,0 -7,2.8 -2.4,2.8 -2.4,8.2 0,5.3 2.4,8.1 2.6,2.8 7,2.8 4.7,0 7.1,-2.8 2.6,-2.8 2.6,-8.1 0,-5.4 -2.6,-8.2 -2.4,-2.8 -7.1,-2.8 z m 9.7,24.2 q -3.1,3.4 -6.7,4.9 -3.7,1.5 -8.3,1.5 -8.4,0 -13.8,-5.5 -5.3,-5.5 -5.3,-14.1 0,-8.7 5.3,-14.2 5.4,-5.5 13.8,-5.5 4.6,0 8.3,1.6 3.6,1.5 6.7,4.8 v -5.5 h 14.4 v 51.7 h -14.4 z"
       id="path1177" />
  </g>
  <polygon
     points="96.539,104.506 96.539,102.448 207.032,102.448 370.946,242.651 369.608,244.215 206.272,104.506 "
     fill="#2f2e41"
     id="polygon1181"
     transform="rotate(180,386.57763,282.24024)" />
</svg>
