<?xml version="1.0" encoding="UTF-8" standalone="no"?>
<svg
   data-name="Layer 1"
   width="705.56531"
   height="353.99557"
   viewBox="0 0 705.56529 353.99557"
   version="1.1"
   id="svg74"
   sodipodi:docname="qatent-claim-editor.svg"
   inkscape:version="1.1.2 (0a00cf5339, 2022-02-04)"
   xmlns:inkscape="http://www.inkscape.org/namespaces/inkscape"
   xmlns:sodipodi="http://sodipodi.sourceforge.net/DTD/sodipodi-0.dtd"
   xmlns="http://www.w3.org/2000/svg"
   xmlns:svg="http://www.w3.org/2000/svg">
  <defs
     id="defs78" />
  <sodipodi:namedview
     id="namedview76"
     pagecolor="#ffffff"
     bordercolor="#666666"
     borderopacity="1.0"
     inkscape:pageshadow="2"
     inkscape:pageopacity="0.0"
     inkscape:pagecheckerboard="0"
     showgrid="false"
     inkscape:snap-global="false"
     inkscape:zoom="0.60520022"
     inkscape:cx="80.138768"
     inkscape:cy="275.11557"
     inkscape:window-width="2432"
     inkscape:window-height="1399"
     inkscape:window-x="0"
     inkscape:window-y="0"
     inkscape:window-maximized="1"
     inkscape:current-layer="svg74"
     fit-margin-top="0"
     fit-margin-left="0"
     fit-margin-right="0"
     fit-margin-bottom="0" />
  <rect
     id="e53b7fd6-ae48-4231-a6bf-c74c7a6312f6"
     data-name="Rectangle 62"
     x="0.30072021"
     y="19.335297"
     width="705.26459"
     height="334.66028"
     fill="#e6e6e6" />
  <rect
     id="e27b5d17-8fe1-40fd-abc5-ff1fb7c5af81"
     data-name="Rectangle 75"
     x="20.467987"
     y="48.03302"
     width="664.93097"
     height="279.21753"
     fill="#ffffff" />
  <rect
     id="f11de06d-5237-47a5-bdcf-7ab24c90f6f6"
     data-name="Rectangle 80"
     width="705.26459"
     height="29.961729"
     fill="#4400aa"
     x="0"
     y="0" />
  <circle
     id="a8620065-6204-4575-b165-05df1e96cc70"
     data-name="Ellipse 90"
     cx="267.43185"
     cy="145.233"
     r="2.3988435"
     fill="#ffffff"
     style="stroke-width:0.431967" />
  <circle
     id="b36f18db-17cf-43fd-9307-66e7abd9e79c"
     data-name="Ellipse 91"
     cx="43.34375"
     cy="15.627777"
     r="5.5532999"
     fill="#ffffff" />
  <circle
     id="f951b331-c7b3-4c65-b7ff-4fae542bffe1"
     data-name="Ellipse 92"
     cx="64.423218"
     cy="15.627777"
     r="5.5532999"
     fill="#ffffff" />
  <path
     id="f1fe0bb1-d2c3-44f1-a2df-b8ed042349d0-1041"
     data-name="Path 142"
     d="m 341.8564,78.704982 c -1.60823,0.005 -2.90941,2.05262 -2.90625,4.57349 0.003,2.51383 1.3025,4.55046 2.90625,4.55542 h 299.60093 c 1.60823,-0.005 2.90941,-2.05262 2.90624,-4.57349 -0.003,-2.51383 -1.3025,-4.55047 -2.90624,-4.55542 z"
     fill="#e6e6e6"
     style="stroke-width:1.0373" />
  <path
     id="b5b576d4-2c69-432d-bba9-c1d1eb12c444-1042"
     data-name="Path 143"
     d="m 341.8564,106.77838 c -1.60823,0.005 -2.90941,2.05262 -2.90625,4.57349 0.003,2.51383 1.3025,4.55046 2.90625,4.55542 h 221.38857 c 1.60824,-0.005 2.90941,-2.05262 2.90625,-4.57349 -0.003,-2.51383 -1.30251,-4.55046 -2.90625,-4.55542 z"
     fill="#e6e6e6"
     style="stroke-width:1.0373" />
  <path
     id="e1a4eb85-7f76-47c7-ae93-e7842353edb9-1043"
     data-name="Path 142"
     d="m 341.8564,162.92518 c -1.60823,0.005 -2.90941,2.05263 -2.90625,4.57349 0.003,2.51384 1.3025,4.55047 2.90625,4.55543 h 299.60093 c 1.60823,-0.005 2.90941,-2.05263 2.90624,-4.57349 -0.003,-2.51383 -1.3025,-4.55047 -2.90624,-4.55543 z"
     fill="#e6e6e6"
     style="stroke-width:1.0373" />
  <path
     id="bd9e3462-ca4d-47f6-a5ea-71b97a8587f8-1044"
     data-name="Path 143"
     d="m 341.8564,134.85177 c -1.60823,0.005 -2.90941,2.05263 -2.90625,4.5735 0.003,2.51383 1.3025,4.55046 2.90625,4.55542 h 221.38857 c 1.60824,-0.005 2.90941,-2.05262 2.90625,-4.57349 -0.003,-2.51383 -1.30251,-4.55047 -2.90625,-4.55543 z"
     fill="#e6e6e6"
     style="stroke-width:1.0373" />
  <path
     d="m 184.81843,172.56587 c 0,16.69121 -5.83156,30.9418 -16.92879,41.5466 -7.87477,7.52919 -20.00441,18.08215 -20.00441,29.23986 v 9.23114 h -36.93319 v -9.23114 c 0,-11.27434 -12.177151,-21.8489 -20.004401,-29.23986 -10.84669,-10.23331 -16.9288,-25.45151 -16.9288,-41.5466 v -0.34126 a 55.400058,55.400058 0 0 1 110.799591,0.34126 z"
     fill="#4400aa"
     id="path5"
     style="stroke-width:0.431967" />
  <path
     id="ecc2cf6c-8ee8-498c-972d-3c77e28b77e9-1324"
     data-name="Path 2546"
     d="m 147.8848,253.87959 a 1.2959016,1.2959016 0 0 1 -1.2959,-1.2959 v -9.23286 c 0,-10.85318 10.70372,-20.98497 18.51973,-28.38284 0.64796,-0.61426 1.27906,-1.20951 1.88467,-1.7905 10.81171,-10.33612 16.52664,-24.37894 16.52664,-40.61097 0,-30.33663 -23.76382,-54.10087 -54.10044,-54.10087 h -0.15292 a 54.00886,54.00886 0 0 0 -53.947951,53.79633 v 0.30238 c 0,15.89639 6.0212,30.69688 16.52059,40.60794 0.53176,0.50238 1.08424,1.01944 1.65141,1.55033 7.916661,7.41213 18.759041,17.56293 18.759041,28.62863 v 9.23243 a 1.295905,1.295905 0 0 1 -2.59181,0 v -9.23286 c 0,-9.94173 -10.367201,-19.64846 -17.938721,-26.73877 q -0.85465,-0.79957 -1.65919,-1.55725 c -11.01516,-10.39831 -17.33312,-25.8852 -17.33312,-42.49002 v -0.31101 c 0.0864,-31.12108 25.43639,-56.38167 56.535871,-56.38167 h 0.16026 a 56.396342,56.396342 0 0 1 56.68881,56.10235 q 0.001,0.29601 -3e-5,0.59205 c 0,16.95688 -5.99181,31.64765 -17.32706,42.48441 -0.60864,0.58186 -1.24234,1.18186 -1.89461,1.79915 -7.47303,7.07432 -17.71066,16.76292 -17.71066,26.50075 v 9.23287 a 1.2959016,1.2959016 0 0 1 -1.29589,1.2959 z"
     fill="#3f3d56"
     style="stroke-width:0.431967" />
  <path
     id="b22bef41-3cd7-4c1e-881c-c9a642005cb0-1325"
     data-name="Path 2547"
     d="m 141.73014,270.50817 h -24.62213 a 2.159836,2.159836 0 1 1 0,-4.31967 h 24.62213 a 2.159836,2.159836 0 0 1 0,4.31967 z"
     fill="#4400aa"
     style="stroke-width:0.431967" />
  <path
     d="m 132.06656,284.97901 h -5.29898 a 10.128179,10.128179 0 0 1 -5.22426,-1.44735 1.2067177,1.2067177 0 0 1 -0.54788,-1.38848 1.2468733,1.2468733 0 0 1 1.21022,-0.92532 h 14.42292 a 1.2469338,1.2469338 0 0 1 1.21026,0.92532 1.2066399,1.2066399 0 0 1 -0.54797,1.38848 10.12751,10.12751 0 0 1 -5.22431,1.44735 z"
     fill="#3f3d56"
     id="path9"
     style="stroke-width:0.431967" />
  <path
     d="m 141.73436,277.33057 -24.7682,-0.003 -0.0767,-0.16452 a 2.041477,2.041477 0 0 1 0.38868,-1.75297 2.0974729,2.0974729 0 0 1 1.65136,-0.79855 h 20.97532 a 2.0972008,2.0972008 0 0 1 1.65152,0.79876 2.0293819,2.0293819 0 0 1 0.39347,1.73103 l -0.0389,0.16684 z"
     fill="#3f3d56"
     id="path11"
     style="stroke-width:0.431967" />
  <path
     id="e0eb6627-54a4-4797-861b-0d156b8b485b-1326"
     data-name="Path 2548"
     d="m 72.140219,121.65486 a 2.1511967,2.1511967 0 0 1 -1.41944,-0.53262 l -18.54824,-16.19056 a 2.159836,2.159836 0 0 1 2.84062,-3.25401 l 18.54824,16.19056 a 2.159836,2.159836 0 0 1 -1.42118,3.78706 z"
     fill="#e4e4e4"
     style="stroke-width:0.431967" />
  <path
     id="e13fc22b-cd18-4b6e-a2d4-df4b74c6b7e7-1327"
     data-name="Path 2549"
     d="m 183.62147,121.65486 a 2.159836,2.159836 0 0 1 -1.42117,-3.78706 l 18.54777,-16.19186 a 2.159836,2.159836 0 0 1 2.84062,3.25401 l -18.54824,16.19057 a 2.1511967,2.1511967 0 0 1 -1.41898,0.53434 z"
     fill="#e4e4e4"
     style="stroke-width:0.431967" />
  <path
     id="a74da646-4683-465e-97fe-dd817e7fc328-1328"
     data-name="Path 2550"
     d="m 147.8848,262.84292 h -36.93319 a 2.15984,2.15984 0 0 1 0,-4.31968 h 36.93319 a 2.15984,2.15984 0 0 1 0,4.31968 z"
     fill="#4400aa"
     style="stroke-width:0.431967" />
  <path
     d="m 128.5115,206.41914 -7.68037,46.16433 h -4.38447 l 7.80133,-46.87276 a 2.1609858,2.1609858 0 0 1 4.26351,0.70843 z"
     fill="#e6e6e6"
     id="path16"
     style="stroke-width:0.431967" />
  <path
     d="m 143.27182,252.58347 h -4.38446 l -7.68038,-46.16433 a 2.160988,2.160988 0 0 1 4.26352,-0.70843 z"
     fill="#e6e6e6"
     id="path18"
     style="stroke-width:0.431967" />
  <path
     id="be3a5c8a-fbb4-472c-819b-e8dd06032f6a-1329"
     data-name="Path 2551"
     d="m 115.38166,204.87701 a 2.159836,2.159836 0 0 1 2.15983,-2.15984 h 23.75518 a 2.15984,2.15984 0 0 1 0,4.31968 h -23.75518 a 2.159836,2.159836 0 0 1 -2.15983,-2.15984 z"
     fill="#e6e6e6"
     style="stroke-width:0.431967" />
  <path
     id="e9f776ed-f4b6-47dc-b212-c247d99ecb23-1330"
     data-name="Path 2553"
     d="m 129.41907,100.09495 a 2.159836,2.159836 0 0 1 -2.15984,-2.159838 v -36.9332 a 2.159836,2.159836 0 0 1 4.31967,0 v 36.9332 a 2.159836,2.159836 0 0 1 -2.15983,2.159838 z"
     fill="#e4e4e4"
     style="stroke-width:0.431967" />
  <path
     id="path1107"
     data-name="Path 142"
     d="m 341.07686,190.99859 c -1.17686,0.005 -2.12902,2.05262 -2.12671,4.57349 0.002,2.51383 0.95313,4.55046 2.12671,4.55542 h 219.23971 c 1.17686,-0.005 2.12903,-2.05262 2.12671,-4.57349 -0.002,-2.51383 -0.95313,-4.55047 -2.12671,-4.55542 z"
     fill="#e6e6e6"
     style="stroke-width:0.887344" />
  <path
     id="path1109"
     data-name="Path 143"
     d="m 341.8564,219.07199 c -1.60823,0.005 -2.90941,2.05262 -2.90625,4.57349 0.003,2.51383 1.3025,4.55046 2.90625,4.55542 h 221.38857 c 1.60824,-0.005 2.90941,-2.05262 2.90625,-4.57349 -0.003,-2.51383 -1.30251,-4.55046 -2.90625,-4.55542 z"
     fill="#e6e6e6"
     style="stroke-width:1.0373" />
  <path
     id="path1111"
     data-name="Path 142"
     d="m 341.8564,247.14538 c -1.60823,0.005 -2.90941,2.05263 -2.90625,4.57349 0.003,2.51384 1.3025,4.55047 2.90625,4.55543 h 299.60093 c 1.60823,-0.005 2.90941,-2.05263 2.90624,-4.57349 -0.003,-2.51383 -1.3025,-4.55047 -2.90624,-4.55543 z"
     fill="#e6e6e6"
     style="stroke-width:1.0373" />
  <path
     id="path1113"
     data-name="Path 143"
     d="m 341.8564,275.21879 c -1.60823,0.005 -2.90941,2.05263 -2.90625,4.5735 0.003,2.51383 1.3025,4.55046 2.90625,4.55542 h 221.38857 c 1.60824,-0.005 2.90941,-2.05262 2.90625,-4.57349 -0.003,-2.51383 -1.30251,-4.55047 -2.90625,-4.55543 z"
     fill="#e6e6e6"
     style="stroke-width:1.0373" />
  <g
     id="g7858"
     transform="matrix(0.29631677,0,0,0.29631677,442.59779,155.14801)">
    <g
       id="s1"
       style="fill:#4400aa;fill-opacity:1;stroke:#4400aa"
       transform="matrix(3.4204904,0,0,3.4204904,-958.98084,-779.68995)">
      <path
         transform="scale(1.05)"
         style="fill-rule:nonzero;stroke-width:0.5px;shape-rendering:geometricPrecision"
         d="m 137.3,173.7 c -2.06667,2.26667 -4.3,3.9 -6.7,4.9 -2.46667,1 -5.23333,1.5 -8.3,1.5 -5.6,0 -10.2,-1.83333 -13.8,-5.5 -3.53333,-3.66667 -5.3,-8.36667 -5.3,-14.1 0,-5.8 1.76667,-10.53333 5.3,-14.2 3.6,-3.66667 8.2,-5.5 13.8,-5.5 3.06667,0 5.83333,0.53333 8.3,1.6 2.4,1 4.63333,2.6 6.7,4.8 v -5.5 h 14.4 v 51.7 h -14.4 z"
         id="path1050"
         sodipodi:nodetypes="ccscscsccccccc" />
    </g>
    <text
       xml:space="preserve"
       style="font-size:149.194px;line-height:1.25;font-family:'DejaVu Sans';-inkscape-font-specification:'DejaVu Sans';fill:#ffffff;stroke-width:3.72983"
       x="-572.26111"
       y="-153.27988"
       id="text2368"><tspan
         sodipodi:role="line"
         id="tspan2366"
         x="-572.26111"
         y="-153.27988"
         style="font-weight:bold;fill:#ffffff;stroke-width:3.72983">1</tspan></text>
  </g>
  <g
     id="g7864"
     transform="matrix(0.29631677,0,0,0.29631677,439.08487,153.9324)">
    <g
       id="g4984"
       style="fill:#4400aa;fill-opacity:1;stroke:#4400aa"
       transform="matrix(3.4204904,0,0,3.4204904,-957.13089,-476.44754)">
      <path
         transform="scale(1.05)"
         style="fill-rule:nonzero;stroke-width:0.5px;shape-rendering:geometricPrecision"
         d="m 137.3,173.7 c -2.06667,2.26667 -4.3,3.9 -6.7,4.9 -2.46667,1 -5.23333,1.5 -8.3,1.5 -5.6,0 -10.2,-1.83333 -13.8,-5.5 -3.53333,-3.66667 -5.3,-8.36667 -5.3,-14.1 0,-5.8 1.76667,-10.53333 5.3,-14.2 3.6,-3.66667 8.2,-5.5 13.8,-5.5 3.06667,0 5.83333,0.53333 8.3,1.6 2.4,1 4.63333,2.6 6.7,4.8 v -5.5 h 14.4 v 51.7 h -14.4 z"
         id="path4982"
         sodipodi:nodetypes="ccscscsccccccc" />
    </g>
    <text
       xml:space="preserve"
       style="font-size:149.194px;line-height:1.25;font-family:'DejaVu Sans';-inkscape-font-specification:'DejaVu Sans';fill:#ffffff;stroke-width:3.72983"
       x="-570.41113"
       y="149.96252"
       id="text4988"><tspan
         sodipodi:role="line"
         id="tspan4986"
         x="-570.41113"
         y="149.96252"
         style="font-weight:bold;fill:#ffffff;stroke-width:3.72983">2</tspan></text>
  </g>
  <g
     id="g7870"
     transform="matrix(0.29631677,0,0,0.29631677,435.81649,136.44686)">
    <g
       id="g6102"
       style="fill:#4400aa;fill-opacity:1;stroke:#4400aa"
       transform="matrix(3.4204904,0,0,3.4204904,-946.10087,-134.40173)">
      <path
         transform="scale(1.05)"
         style="fill-rule:nonzero;stroke-width:0.5px;shape-rendering:geometricPrecision"
         d="m 137.3,173.7 c -2.06667,2.26667 -4.3,3.9 -6.7,4.9 -2.46667,1 -5.23333,1.5 -8.3,1.5 -5.6,0 -10.2,-1.83333 -13.8,-5.5 -3.53333,-3.66667 -5.3,-8.36667 -5.3,-14.1 0,-5.8 1.76667,-10.53333 5.3,-14.2 3.6,-3.66667 8.2,-5.5 13.8,-5.5 3.06667,0 5.83333,0.53333 8.3,1.6 2.4,1 4.63333,2.6 6.7,4.8 v -5.5 h 14.4 v 51.7 h -14.4 z"
         id="path6100"
         sodipodi:nodetypes="ccscscsccccccc" />
    </g>
    <text
       xml:space="preserve"
       style="font-size:149.194px;line-height:1.25;font-family:'DejaVu Sans';-inkscape-font-specification:'DejaVu Sans';fill:#ffffff;stroke-width:3.72983"
       x="-559.3811"
       y="492.00833"
       id="text6106"><tspan
         sodipodi:role="line"
         id="tspan6104"
         x="-559.3811"
         y="492.00833"
         style="font-weight:bold;fill:#ffffff;stroke-width:3.72983">3</tspan></text>
  </g>
</svg>
