<svg version="1.1" id="Layer_1" xmlns="http://www.w3.org/2000/svg" x="0" y="0" viewBox="0 0 1409.1 914.4" style="enable-background:new 0 0 1409.1 914.4" xml:space="preserve"><style>.blue_x0020_shade_x0020_29{opacity:.17;fill:#134c83}.st1{fill:#e4bb5f}.st3{fill:#82a675}.st8{fill:#3b5b4f}.st13{fill:#558b6f}.st71{fill:#273137}.st72{fill:#453956}.st73{fill:#8217fd}.st74{fill:#eed59c}.st75{fill:#e27d59}.st77{fill:#2e2e2e}.st79{fill:#fff}.st83{fill:#4b4b4b}.st90{fill:#b8c4c0}.st91{fill:#c0b3a2}.st112{fill:#22362f}.st113{fill:#db5c30}.st114{fill:#d69b6b}.st116{fill:#714736}.st117{opacity:.38;fill:#134c83}.st118{fill:#e8e1d3}.st131{fill:#f1c0cd}.st145{fill:#da4126}.st146{opacity:.17;fill:#134c83}.st147{fill:#e2e2e2}.st148{opacity:.37;fill:#fff}</style><path style="fill:#b0c7a8" d="m118.3 423.4-55.5-32.1 9.5-16.5 46 26.6 50.7-29.3 50.7 29.3 50.7-29.3 50.7 29.3 45.9-26.6 9.6 16.5-55.5 32.1-50.7-29.3-50.7 29.3-50.7-29.3z"/><path class="st1" d="m1176.5 546.2 85.5-22.8 6.8 25.4-70.8 18.9-20.9 78.1-78.1 20.9-20.9 78.1-78.2 20.9-18.9 70.8-25.4-6.8 22.8-85.5 78.2-20.9 20.9-78.1 78.1-20.9z"/><path d="M549.8 759.7c0-18.8-12.1-35.4-30.2-44.7-10-5.1-15.3-14.8-12.8-24.3.7-2.6 1-5.4 1-8.2 0-18.8-16-34.5-37.4-38.4-5.7-1-9.5-5.4-8.9-10.1.2-2.1.3-4.1.1-5.8-1.7-10.9-9.2-16.8-19.9-21.6-5.5-2.5-8.2-7.7-6.7-12.7.8-2.5 1.2-5.1 1.3-7.7.6-20-12.5-28.3-21.6-32-4.5-1.8-7.7-5.2-9-9.1-3.5-10.7-15.9-18.4-30.2-17.7-14 .8-25.6 9.8-27.1 21.3v.3c-.5 3.9-4.6 6.8-9.4 6.6-1.6-.1-3.2 0-4.8.1-17.8 1.2-32.1 13.1-33.4 27.7-.2 2.3-.1 4.6.4 6.8 1 5.1-1.8 10.1-7 12.9-10 5.2-17.8 13-21.9 22.3-1.6 3.6-5.2 6.3-9.7 7.4-20 4.6-34.7 19.7-34.7 37.6 0 4.8 1.1 9.4 3 13.7 3 6.6-.9 13.9-8.8 16.6-21.3 7.3-36.2 24.5-36.2 44.6 0 8.1 2.5 15.8 6.8 22.5 6.6 10.2 4.1 22.8-6.3 30.5-14.7 10.9-24 26.7-24 44.3v21.7h393.7v-21.7c0-8.8-6.8-17.2-14.8-24.7-8.7-8.2-9.3-20.1-2-29.2 6.6-8.3 10.5-18.3 10.5-29z" style="fill:#9dba93"/><path class="st3" d="M1084.5 708c3.5 8.1 1.8 11.3 1.1 20.2-.7 8.8 4.6 10.6 7.1 18.1 2.5 7.4.7 11 1.4 20.2s3.5 9.9 6 18.4c2.5 8.5 0 20.2-1.8 36.1-1.1 9.9 1.5 28.1 3.6 40.6h32.5c-2.5-23.6-6-61.6-3.9-70 3.2-12.4-1.8-32.9-5-39.3-3.2-6.4-3.9-14.2-3.2-19.8.7-5.7-2.5-7.8-6.4-12-3.9-4.2-3.9-13.5-5.7-21.2-1.8-7.8-9.6-11-10.6-17.7-1.1-6.7-17.9-19.3-22.7-14-5.2 5.8 4.8 12.7 5.8 19.1 1.3 6.3-1.7 13.2 1.8 21.3z"/><defs><filter id="Adobe_OpacityMaskFilter" filterUnits="userSpaceOnUse" x="1075.6" y="667.5" width="47.6" height="194"><feFlood style="flood-color:white;flood-opacity:1" result="back"/><feBlend in="SourceGraphic" in2="back"/></filter></defs><mask maskUnits="userSpaceOnUse" x="1075.6" y="667.5" width="47.6" height="194" id="SVGID_1_"><g style="filter:url(#Adobe_OpacityMaskFilter)"><defs><filter id="Adobe_OpacityMaskFilter_1_" filterUnits="userSpaceOnUse" x="1075.6" y="667.5" width="47.6" height="194"><feFlood style="flood-color:white;flood-opacity:1" result="back"/><feBlend in="SourceGraphic" in2="back"/></filter></defs><linearGradient id="SVGID_2_" gradientUnits="userSpaceOnUse" x1="1064.656" y1="756.119" x2="1147.397" y2="784.143"><stop offset="0" style="stop-color:#fff"/><stop offset="1" style="stop-color:#000"/></linearGradient><path d="M1084.5 708c3.5 8.1 1.8 11.3 1.1 20.2-.7 8.8 4.6 10.6 7.1 18.1 2.5 7.4.7 11 1.4 20.2s3.5 9.9 6 18.4c2.5 8.5 0 20.2-1.8 36.1-1.1 9.9 1.5 28.1 3.6 40.6h20.7c-1.4-13.5-2.5-28.2-2-35.6 1.1-15.7 4.8-23.4.8-33.7-4-10.4-10.6-9.6-8.8-23.6 1.9-14.1 1.6-23.4-8-33.4-9.6-10.1-3.2-20.2-3.7-28.4s-7.7-10.1-9-18.3c-1.3-8.2-1.6-10.4-14.9-21-5.2 5.8 4.8 12.7 5.8 19.1 1.2 6.3-1.8 13.2 1.7 21.3z" style="mask:url(#SVGID_1_);fill:url(#SVGID_2_)"/></g></mask><linearGradient id="SVGID_3_" gradientUnits="userSpaceOnUse" x1="1064.656" y1="756.119" x2="1147.397" y2="784.143"><stop offset="0" style="stop-color:#3b5b4f"/><stop offset="1" style="stop-color:#fff"/></linearGradient><path d="M1084.5 708c3.5 8.1 1.8 11.3 1.1 20.2-.7 8.8 4.6 10.6 7.1 18.1 2.5 7.4.7 11 1.4 20.2s3.5 9.9 6 18.4c2.5 8.5 0 20.2-1.8 36.1-1.1 9.9 1.5 28.1 3.6 40.6h20.7c-1.4-13.5-2.5-28.2-2-35.6 1.1-15.7 4.8-23.4.8-33.7-4-10.4-10.6-9.6-8.8-23.6 1.9-14.1 1.6-23.4-8-33.4-9.6-10.1-3.2-20.2-3.7-28.4s-7.7-10.1-9-18.3c-1.3-8.2-1.6-10.4-14.9-21-5.2 5.8 4.8 12.7 5.8 19.1 1.2 6.3-1.8 13.2 1.7 21.3z" style="opacity:.26;fill:url(#SVGID_3_)"/><path class="st8" d="M1145.8 861.6c10.1-23.4 17.1-62.4 16.2-73-1.1-13.3 7.2-36.4 11.1-47.3 4-10.9 1.9-20.4 1.9-27.3 0-6.9 7.4-11.1 10.6-19.6 3.2-8.5-2.9-14.3-2.9-21.8s2.1-23.6 0-23.6c0 0-8.8 6.4-13.8 13.8s-3.7 19.1-9.8 23.9c-6.1 4.8-9.6 9-10.9 19.1-1.3 10.1-4.2 10.4-9.3 21.8-5 11.4 1.9 20.7-.8 33.2-2.7 12.5-8.5 11.4-18.1 33.2-6.8 15.4-4.7 49.3-3 67.7h28.8z"/><defs><filter id="Adobe_OpacityMaskFilter_2_" filterUnits="userSpaceOnUse" x="1126.8" y="648.9" width="59.8" height="212.6"><feFlood style="flood-color:white;flood-opacity:1" result="back"/><feBlend in="SourceGraphic" in2="back"/></filter></defs><mask maskUnits="userSpaceOnUse" x="1126.8" y="648.9" width="59.8" height="212.6" id="SVGID_4_"><g style="filter:url(#Adobe_OpacityMaskFilter_2_)"><defs><filter id="Adobe_OpacityMaskFilter_3_" filterUnits="userSpaceOnUse" x="1126.8" y="648.9" width="59.8" height="212.6"><feFlood style="flood-color:white;flood-opacity:1" result="back"/><feBlend in="SourceGraphic" in2="back"/></filter></defs><linearGradient id="SVGID_5_" gradientUnits="userSpaceOnUse" x1="1150.514" y1="753.792" x2="1179.018" y2="763.447"><stop offset="0" style="stop-color:#fff"/><stop offset="1" style="stop-color:#000"/></linearGradient><path d="M1145.8 861.6c10.1-23.4 17.1-62.4 16.2-73-1.1-13.3 7.2-36.4 11.1-47.3 4-10.9 1.9-20.4 1.9-27.3 0-6.9 7.4-11.1 10.6-19.6 3.2-8.5-2.9-14.3-2.9-21.8s2.1-23.6 0-23.6c-2.4 13.3-10.1 14.1-10.4 24.2-.3 10.1 5 14.9-4 22.8s-6.9 10.6-9.3 25.8c-2.4 15.1-13.9 17.1-11.8 31.3 2.5 16.5.3 31.9-7.8 43.2-9.9 13.8-6.3 37.5-11.5 53.5.2 4.8-.4 8.6-1.2 11.8h19.1z" style="mask:url(#SVGID_4_);fill:url(#SVGID_5_)"/></g></mask><linearGradient id="SVGID_6_" gradientUnits="userSpaceOnUse" x1="1150.514" y1="753.792" x2="1179.018" y2="763.447"><stop offset="0" style="stop-color:#3b5b4f"/><stop offset="1" style="stop-color:#fff"/></linearGradient><path d="M1145.8 861.6c10.1-23.4 17.1-62.4 16.2-73-1.1-13.3 7.2-36.4 11.1-47.3 4-10.9 1.9-20.4 1.9-27.3 0-6.9 7.4-11.1 10.6-19.6 3.2-8.5-2.9-14.3-2.9-21.8s2.1-23.6 0-23.6c-2.4 13.3-10.1 14.1-10.4 24.2-.3 10.1 5 14.9-4 22.8s-6.9 10.6-9.3 25.8c-2.4 15.1-13.9 17.1-11.8 31.3 2.5 16.5.3 31.9-7.8 43.2-9.9 13.8-6.3 37.5-11.5 53.5.2 4.8-.4 8.6-1.2 11.8h19.1z" style="opacity:.26;fill:url(#SVGID_6_)"/><path class="st13" d="M1256.3 665.1c-4.2-.5-13.8 7.7-18.1 13-4.2 5.3-15.7 6.1-20.4 14.3-4.8 8.2-1.3 15.4-13.8 22s-19.8 14.5-29.5 29.7c-7.4 11.7-16.7 34-18.1 47-1.3 13-8.5 25.8-17.3 39-4.8 7.3-6.7 20.8-7.4 31.3h20.8c5.3-7 14.1-14.7 16-21.2 2.7-9 1.1-23.6 6.9-32.4 5.8-8.8 22.6-22.6 23.1-31.9.5-9.3 10.9-19.9 19.1-25 8.2-5 9-20.7 13.8-28.1 4.8-7.4 15.1-10.6 15.7-19.1.5-8.5 1.9-15.1 6.6-19.6 5-4.4 6.8-18.4 2.6-19z"/><defs><filter id="Adobe_OpacityMaskFilter_4_" filterUnits="userSpaceOnUse" x="1152.4" y="665.1" width="106.3" height="196.4"><feFlood style="flood-color:white;flood-opacity:1" result="back"/><feBlend in="SourceGraphic" in2="back"/></filter></defs><mask maskUnits="userSpaceOnUse" x="1152.4" y="665.1" width="106.3" height="196.4" id="SVGID_7_"><g style="filter:url(#Adobe_OpacityMaskFilter_4_)"><defs><filter id="Adobe_OpacityMaskFilter_5_" filterUnits="userSpaceOnUse" x="1152.4" y="665.1" width="106.3" height="196.4"><feFlood style="flood-color:white;flood-opacity:1" result="back"/><feBlend in="SourceGraphic" in2="back"/></filter></defs><linearGradient id="SVGID_8_" gradientUnits="userSpaceOnUse" x1="1192.053" y1="759.183" x2="1225.477" y2="770.504"><stop offset="0" style="stop-color:#fff"/><stop offset="1" style="stop-color:#000"/></linearGradient><path d="m1257.4 665.7-1.1-.6c-4.8 11.7-12.7 14.9-16.2 23.4-3.5 8.5-10.9 7.4-16.2 20.2-5.3 12.7-22.8 18.3-30.3 35.8-7.4 17.5-17.3 30.8-24.7 67.4-3.4 16.6-10.2 34.7-16.6 49.6h.3c5.3-7 14.1-14.7 16-21.2 2.7-9 1.1-23.6 6.9-32.4 5.8-8.8 22.6-22.6 23.1-31.9.5-9.3 10.9-19.9 19.1-25 8.2-5 9-20.7 13.8-28.1 4.8-7.4 15.1-10.6 15.7-19.1.5-8.5 1.9-15.1 6.6-19.6 4.4-4 6.3-15.7 3.6-18.5z" style="mask:url(#SVGID_7_);fill:url(#SVGID_8_)"/></g></mask><linearGradient id="SVGID_9_" gradientUnits="userSpaceOnUse" x1="1192.053" y1="759.183" x2="1225.477" y2="770.504"><stop offset="0" style="stop-color:#3b5b4f"/><stop offset="1" style="stop-color:#fff"/></linearGradient><path d="m1257.4 665.7-1.1-.6c-4.8 11.7-12.7 14.9-16.2 23.4-3.5 8.5-10.9 7.4-16.2 20.2-5.3 12.7-22.8 18.3-30.3 35.8-7.4 17.5-17.3 30.8-24.7 67.4-3.4 16.6-10.2 34.7-16.6 49.6h.3c5.3-7 14.1-14.7 16-21.2 2.7-9 1.1-23.6 6.9-32.4 5.8-8.8 22.6-22.6 23.1-31.9.5-9.3 10.9-19.9 19.1-25 8.2-5 9-20.7 13.8-28.1 4.8-7.4 15.1-10.6 15.7-19.1.5-8.5 1.9-15.1 6.6-19.6 4.4-4 6.3-15.7 3.6-18.5z" style="opacity:.26;fill:url(#SVGID_9_)"/><path class="st3" d="M1165.8 861.6c4.5-9.6 7.6-20.6 7.6-27.3 0-11.1.8-26 4.8-31.6 4-5.6 5.3-12.2 4.2-17-1.1-4.8 1.1-11.4 2.4-17.5 1.3-6.1-.3-10.1-.3-10.1-1.9 4-3.5 4.2-7.2 9.3-3.7 5-2.1 7.4-7.4 15.4-5.3 8-10.1 16.2-11.9 26-1.9 9.8-9.3 20.2-15.7 29.5-4.5 6.5-7.4 14.7-9.1 23.3h32.6z"/><defs><filter id="Adobe_OpacityMaskFilter_6_" filterUnits="userSpaceOnUse" x="1145.6" y="758" width="39.8" height="103.5"><feFlood style="flood-color:white;flood-opacity:1" result="back"/><feBlend in="SourceGraphic" in2="back"/></filter></defs><mask maskUnits="userSpaceOnUse" x="1145.6" y="758" width="39.8" height="103.5" id="SVGID_10_"><g style="filter:url(#Adobe_OpacityMaskFilter_6_)"><defs><filter id="Adobe_OpacityMaskFilter_7_" filterUnits="userSpaceOnUse" x="1145.6" y="758" width="39.8" height="103.5"><feFlood style="flood-color:white;flood-opacity:1" result="back"/><feBlend in="SourceGraphic" in2="back"/></filter></defs><linearGradient id="SVGID_11_" gradientUnits="userSpaceOnUse" x1="1165.355" y1="809.878" x2="1181.814" y2="815.453"><stop offset="0" style="stop-color:#fff"/><stop offset="1" style="stop-color:#000"/></linearGradient><path d="M1165.8 861.6c4.5-9.6 7.6-20.6 7.6-27.3 0-11.1.8-26 4.8-31.6 4-5.6 5.3-12.2 4.2-17-1.1-4.8 1.1-11.4 2.4-17.5 1.3-6.1-.3-10.1-.3-10.1-1.5 13.2-6.5 11.9-7.3 19.7-.9 7.8-.9 13.1-4.8 18.4-3.9 5.3-3.5 12.2-8.8 25-5.3 12.7-15 24.6-16.8 33.3-.4 1.7-.8 4.3-1.2 7.1h20.2z" style="mask:url(#SVGID_10_);fill:url(#SVGID_11_)"/></g></mask><linearGradient id="SVGID_12_" gradientUnits="userSpaceOnUse" x1="1165.355" y1="809.878" x2="1181.814" y2="815.453"><stop offset="0" style="stop-color:#bebebe"/><stop offset="1" style="stop-color:#fff"/></linearGradient><path d="M1165.8 861.6c4.5-9.6 7.6-20.6 7.6-27.3 0-11.1.8-26 4.8-31.6 4-5.6 5.3-12.2 4.2-17-1.1-4.8 1.1-11.4 2.4-17.5 1.3-6.1-.3-10.1-.3-10.1-1.5 13.2-6.5 11.9-7.3 19.7-.9 7.8-.9 13.1-4.8 18.4-3.9 5.3-3.5 12.2-8.8 25-5.3 12.7-15 24.6-16.8 33.3-.4 1.7-.8 4.3-1.2 7.1h20.2z" style="opacity:.14;fill:url(#SVGID_12_)"/><path class="st8" d="M1222 766c-2.1 4.8-9 8-19.4 12.5-10.4 4.5-15.4 7.6-24.7 22.3-5 8-11.1 20.7-15.4 39-1.9 8.4-4.4 16-6.6 21.8h20.1V860c0-12.7 17.8-27.1 22-38.2 4.2-11.1 11.9-23.1 17.8-27.9 5.8-4.8 13.5-17.5 14.3-25 .8-7.4 4-13 4-13-4.1 1.3-9.9 5.3-12.1 10.1z"/><defs><filter id="Adobe_OpacityMaskFilter_8_" filterUnits="userSpaceOnUse" x="1166.1" y="755.9" width="68.2" height="105.6"><feFlood style="flood-color:white;flood-opacity:1" result="back"/><feBlend in="SourceGraphic" in2="back"/></filter></defs><mask maskUnits="userSpaceOnUse" x="1166.1" y="755.9" width="68.2" height="105.6" id="SVGID_13_"><g style="filter:url(#Adobe_OpacityMaskFilter_8_)"><defs><filter id="Adobe_OpacityMaskFilter_9_" filterUnits="userSpaceOnUse" x="1166.1" y="755.9" width="68.2" height="105.6"><feFlood style="flood-color:white;flood-opacity:1" result="back"/><feBlend in="SourceGraphic" in2="back"/></filter></defs><linearGradient id="SVGID_14_" gradientUnits="userSpaceOnUse" x1="1188.713" y1="804.861" x2="1215.07" y2="813.788"><stop offset="0" style="stop-color:#fff"/><stop offset="1" style="stop-color:#000"/></linearGradient><path d="M1222 777.2c-4.2 8-11.1 4.2-23.4 15.4-12.2 11.1-6.4 12.2-17.3 28.9s-12.7 23.4-14.6 36.1c-.2 1.2-.4 2.5-.8 4h10.1V860c0-12.7 17.8-27.1 22-38.2 4.2-11.1 11.9-23.1 17.8-27.9 5.8-4.8 13.5-17.5 14.3-25 .8-7.4 4-13 4-13-8.6 10.1-7.8 13.3-12.1 21.3z" style="mask:url(#SVGID_13_);fill:url(#SVGID_14_)"/></g></mask><linearGradient id="SVGID_15_" gradientUnits="userSpaceOnUse" x1="1188.713" y1="804.861" x2="1215.07" y2="813.788"><stop offset="0" style="stop-color:#3b5b4f"/><stop offset="1" style="stop-color:#fff"/></linearGradient><path d="M1222 777.2c-4.2 8-11.1 4.2-23.4 15.4-12.2 11.1-6.4 12.2-17.3 28.9s-12.7 23.4-14.6 36.1c-.2 1.2-.4 2.5-.8 4h10.1V860c0-12.7 17.8-27.1 22-38.2 4.2-11.1 11.9-23.1 17.8-27.9 5.8-4.8 13.5-17.5 14.3-25 .8-7.4 4-13 4-13-8.6 10.1-7.8 13.3-12.1 21.3z" style="opacity:.26;fill:url(#SVGID_15_)"/><path class="st3" d="M661.6 678.9c-4.3 9.8-2.1 13.7-1.3 24.3.9 10.7-5.5 12.8-8.5 21.8s-.9 13.2-1.7 24.3c-.9 11.1-4.3 11.9-7.3 22.2-3 10.2 0 24.3 2.1 43.5 1.3 11.9-1.8 33.9-4.3 48.9h-39.2c3-28.5 7.3-74.2 4.7-84.4-3.8-14.9 2.1-39.7 6-47.4 3.8-7.7 4.7-17.1 3.8-23.9-.9-6.8 3-9.4 7.7-14.5s4.7-16.2 6.8-25.6c2.1-9.4 11.5-13.2 12.8-21.3 1.3-8.1 21.5-23.3 27.3-16.9 6.3 7-5.8 15.4-7 23-1.2 7.9 2.4 16.2-1.9 26z"/><defs><filter id="Adobe_OpacityMaskFilter_10_" filterUnits="userSpaceOnUse" x="615" y="630.1" width="57.4" height="233.9"><feFlood style="flood-color:white;flood-opacity:1" result="back"/><feBlend in="SourceGraphic" in2="back"/></filter></defs><mask maskUnits="userSpaceOnUse" x="615" y="630.1" width="57.4" height="233.9" id="SVGID_16_"><g style="filter:url(#Adobe_OpacityMaskFilter_10_)"><defs><filter id="Adobe_OpacityMaskFilter_11_" filterUnits="userSpaceOnUse" x="615" y="630.1" width="57.4" height="233.9"><feFlood style="flood-color:white;flood-opacity:1" result="back"/><feBlend in="SourceGraphic" in2="back"/></filter></defs><linearGradient id="SVGID_17_" gradientUnits="userSpaceOnUse" x1="5216.257" y1="736.891" x2="5316.002" y2="770.675" gradientTransform="matrix(-1 0 0 1 5901.845 0)"><stop offset="0" style="stop-color:#fff"/><stop offset="1" style="stop-color:#000"/></linearGradient><path d="M661.6 678.9c-4.3 9.8-2.1 13.7-1.3 24.3.9 10.7-5.5 12.8-8.5 21.8s-.9 13.2-1.7 24.3c-.9 11.1-4.3 11.9-7.3 22.2-3 10.2 0 24.3 2.1 43.5 1.3 11.9-1.8 33.9-4.3 48.9h-25c1.6-16.2 3-34 2.4-42.9-1.3-18.9-5.8-28.2-1-40.6 4.8-12.5 12.8-11.5 10.6-28.5-2.2-17-1.9-28.2 9.6-40.3 11.5-12.2 3.8-24.3 4.5-34.2.6-9.9 9.3-12.2 10.9-22.1 1.6-9.9 1.9-12.5 17.9-25.3 6.3 7-5.8 15.4-7 23-1.2 7.8 2.4 16.1-1.9 25.9z" style="mask:url(#SVGID_16_);fill:url(#SVGID_17_)"/></g></mask><linearGradient id="SVGID_18_" gradientUnits="userSpaceOnUse" x1="5216.257" y1="736.891" x2="5316.002" y2="770.675" gradientTransform="matrix(-1 0 0 1 5901.845 0)"><stop offset="0" style="stop-color:#3b5b4f"/><stop offset="1" style="stop-color:#fff"/></linearGradient><path d="M661.6 678.9c-4.3 9.8-2.1 13.7-1.3 24.3.9 10.7-5.5 12.8-8.5 21.8s-.9 13.2-1.7 24.3c-.9 11.1-4.3 11.9-7.3 22.2-3 10.2 0 24.3 2.1 43.5 1.3 11.9-1.8 33.9-4.3 48.9h-25c1.6-16.2 3-34 2.4-42.9-1.3-18.9-5.8-28.2-1-40.6 4.8-12.5 12.8-11.5 10.6-28.5-2.2-17-1.9-28.2 9.6-40.3 11.5-12.2 3.8-24.3 4.5-34.2.6-9.9 9.3-12.2 10.9-22.1 1.6-9.9 1.9-12.5 17.9-25.3 6.3 7-5.8 15.4-7 23-1.2 7.8 2.4 16.1-1.9 25.9z" style="opacity:.26;fill:url(#SVGID_18_)"/><path class="st8" d="M587.7 864c-12.2-28.2-20.6-75.2-19.5-88 1.3-16-8.6-43.8-13.4-57-4.8-13.1-2.2-24.6-2.2-33 0-8.3-9-13.4-12.8-23.7-3.8-10.2 3.5-17.3 3.5-26.2s-2.6-28.5 0-28.5c0 0 10.6 7.7 16.6 16.6 6.1 9 4.5 23 11.8 28.8 7.4 5.8 11.5 10.9 13.1 23 1.6 12.2 5.1 12.5 11.2 26.2 6.1 13.8-2.2 25 1 40s10.2 13.8 21.8 40c8.2 18.6 5.7 59.4 3.6 81.6h-34.7z"/><defs><filter id="Adobe_OpacityMaskFilter_12_" filterUnits="userSpaceOnUse" x="538.6" y="607.7" width="72.1" height="256.3"><feFlood style="flood-color:white;flood-opacity:1" result="back"/><feBlend in="SourceGraphic" in2="back"/></filter></defs><mask maskUnits="userSpaceOnUse" x="538.6" y="607.7" width="72.1" height="256.3" id="SVGID_19_"><g style="filter:url(#Adobe_OpacityMaskFilter_12_)"><defs><filter id="Adobe_OpacityMaskFilter_13_" filterUnits="userSpaceOnUse" x="538.6" y="607.7" width="72.1" height="256.3"><feFlood style="flood-color:white;flood-opacity:1" result="back"/><feBlend in="SourceGraphic" in2="back"/></filter></defs><linearGradient id="SVGID_20_" gradientUnits="userSpaceOnUse" x1="5319.76" y1="734.086" x2="5354.123" y2="745.725" gradientTransform="matrix(-1 0 0 1 5901.845 0)"><stop offset="0" style="stop-color:#fff"/><stop offset="1" style="stop-color:#000"/></linearGradient><path d="M587.7 864c-12.2-28.2-20.6-75.2-19.5-88 1.3-16-8.6-43.8-13.4-57-4.8-13.1-2.2-24.6-2.2-33 0-8.3-9-13.4-12.8-23.7-3.8-10.2 3.5-17.3 3.5-26.2s-2.6-28.5 0-28.5c2.9 16 12.2 17 12.5 29.1.3 12.2-6.1 17.9 4.8 27.5 10.9 9.6 8.3 12.8 11.2 31 2.9 18.2 16.8 20.7 14.2 37.7-3 19.9-.3 38.4 9.4 52.1 11.9 16.7 7.6 45.2 13.9 64.5-.2 5.7.4 10.4 1.5 14.2h-23.1z" style="mask:url(#SVGID_19_);fill:url(#SVGID_20_)"/></g></mask><linearGradient id="SVGID_21_" gradientUnits="userSpaceOnUse" x1="5319.76" y1="734.086" x2="5354.123" y2="745.725" gradientTransform="matrix(-1 0 0 1 5901.845 0)"><stop offset="0" style="stop-color:#3b5b4f"/><stop offset="1" style="stop-color:#fff"/></linearGradient><path d="M587.7 864c-12.2-28.2-20.6-75.2-19.5-88 1.3-16-8.6-43.8-13.4-57-4.8-13.1-2.2-24.6-2.2-33 0-8.3-9-13.4-12.8-23.7-3.8-10.2 3.5-17.3 3.5-26.2s-2.6-28.5 0-28.5c2.9 16 12.2 17 12.5 29.1.3 12.2-6.1 17.9 4.8 27.5 10.9 9.6 8.3 12.8 11.2 31 2.9 18.2 16.8 20.7 14.2 37.7-3 19.9-.3 38.4 9.4 52.1 11.9 16.7 7.6 45.2 13.9 64.5-.2 5.7.4 10.4 1.5 14.2h-23.1z" style="opacity:.26;fill:url(#SVGID_21_)"/><path class="st13" d="M454.6 627.2c5.1-.6 16.6 9.3 21.8 15.7 5.1 6.4 18.9 7.4 24.6 17.3 5.8 9.9 1.6 18.6 16.6 26.6 15 8 23.8 17.5 35.5 35.8 9 14.1 20.2 41 21.8 56.6 1.6 15.7 10.2 31 20.8 47 5.8 8.9 8.1 25 8.9 37.7h-25.1c-6.4-8.4-17-17.7-19.3-25.6-3.2-10.9-1.3-28.5-8.3-39-7-10.6-27.2-27.2-27.8-38.4-.6-11.2-13.1-24-23-30.1s-10.9-25-16.6-33.9c-5.8-9-18.2-12.8-18.9-23-.6-10.2-2.2-18.2-8-23.7-5.9-5.4-8.1-22.4-3-23z"/><defs><filter id="Adobe_OpacityMaskFilter_14_" filterUnits="userSpaceOnUse" x="451.7" y="627.2" width="128.1" height="236.8"><feFlood style="flood-color:white;flood-opacity:1" result="back"/><feBlend in="SourceGraphic" in2="back"/></filter></defs><mask maskUnits="userSpaceOnUse" x="451.7" y="627.2" width="128.1" height="236.8" id="SVGID_22_"><g style="filter:url(#Adobe_OpacityMaskFilter_14_)"><defs><filter id="Adobe_OpacityMaskFilter_15_" filterUnits="userSpaceOnUse" x="451.7" y="627.2" width="128.1" height="236.8"><feFlood style="flood-color:white;flood-opacity:1" result="back"/><feBlend in="SourceGraphic" in2="back"/></filter></defs><linearGradient id="SVGID_23_" gradientUnits="userSpaceOnUse" x1="5369.835" y1="740.585" x2="5410.129" y2="754.232" gradientTransform="matrix(-1 0 0 1 5901.845 0)"><stop offset="0" style="stop-color:#fff"/><stop offset="1" style="stop-color:#000"/></linearGradient><path d="m453.2 627.9 1.4-.7c5.8 14.1 15.4 17.9 19.5 28.2 4.2 10.2 13.1 9 19.5 24.3 6.4 15.4 27.5 22.1 36.5 43.2s20.8 37.1 29.8 81.3c4.1 20 12.2 41.8 20 59.8h-.4c-6.4-8.4-17-17.7-19.3-25.6-3.2-10.9-1.3-28.5-8.3-39-7-10.6-27.2-27.2-27.8-38.4-.6-11.2-13.1-24-23-30.1s-10.9-25-16.6-33.9c-5.8-9-18.2-12.8-18.9-23-.6-10.2-2.2-18.2-8-23.7-5.3-4.9-7.6-19-4.4-22.4z" style="mask:url(#SVGID_22_);fill:url(#SVGID_23_)"/></g></mask><linearGradient id="SVGID_24_" gradientUnits="userSpaceOnUse" x1="5369.835" y1="740.585" x2="5410.129" y2="754.232" gradientTransform="matrix(-1 0 0 1 5901.845 0)"><stop offset="0" style="stop-color:#3b5b4f"/><stop offset="1" style="stop-color:#fff"/></linearGradient><path d="m453.2 627.9 1.4-.7c5.8 14.1 15.4 17.9 19.5 28.2 4.2 10.2 13.1 9 19.5 24.3 6.4 15.4 27.5 22.1 36.5 43.2s20.8 37.1 29.8 81.3c4.1 20 12.2 41.8 20 59.8h-.4c-6.4-8.4-17-17.7-19.3-25.6-3.2-10.9-1.3-28.5-8.3-39-7-10.6-27.2-27.2-27.8-38.4-.6-11.2-13.1-24-23-30.1s-10.9-25-16.6-33.9c-5.8-9-18.2-12.8-18.9-23-.6-10.2-2.2-18.2-8-23.7-5.3-4.9-7.6-19-4.4-22.4z" style="opacity:.26;fill:url(#SVGID_24_)"/><path class="st3" d="M563.6 864c-5.4-11.6-9.2-24.8-9.2-32.9 0-13.4-1-31.4-5.8-38.1-4.8-6.7-6.4-14.7-5.1-20.5 1.3-5.8-1.3-13.8-2.9-21.1-1.6-7.4.3-12.2.3-12.2 2.2 4.8 4.2 5.1 8.6 11.2 4.5 6.1 2.6 9 9 18.6 6.4 9.6 12.2 19.5 14.4 31.4 2.2 11.8 11.2 24.3 18.9 35.5 5.4 7.9 8.9 17.7 10.9 28.1h-39.1z"/><defs><filter id="Adobe_OpacityMaskFilter_16_" filterUnits="userSpaceOnUse" x="540" y="739.2" width="48" height="124.8"><feFlood style="flood-color:white;flood-opacity:1" result="back"/><feBlend in="SourceGraphic" in2="back"/></filter></defs><mask maskUnits="userSpaceOnUse" x="540" y="739.2" width="48" height="124.8" id="SVGID_25_"><g style="filter:url(#Adobe_OpacityMaskFilter_16_)"><defs><filter id="Adobe_OpacityMaskFilter_17_" filterUnits="userSpaceOnUse" x="540" y="739.2" width="48" height="124.8"><feFlood style="flood-color:white;flood-opacity:1" result="back"/><feBlend in="SourceGraphic" in2="back"/></filter></defs><linearGradient id="SVGID_26_" gradientUnits="userSpaceOnUse" x1="5337.651" y1="801.699" x2="5357.493" y2="808.419" gradientTransform="matrix(-1 0 0 1 5901.845 0)"><stop offset="0" style="stop-color:#fff"/><stop offset="1" style="stop-color:#000"/></linearGradient><path d="M563.6 864c-5.4-11.6-9.2-24.8-9.2-32.9 0-13.4-1-31.4-5.8-38.1-4.8-6.7-6.4-14.7-5.1-20.5 1.3-5.8-1.3-13.8-2.9-21.1-1.6-7.4.3-12.2.3-12.2 1.8 15.9 7.8 14.4 8.9 23.8 1.1 9.4 1.1 15.8 5.8 22.2 4.7 6.4 4.3 14.7 10.7 30.1 6.4 15.4 18.1 29.7 20.3 40.1.4 2.1.9 5.1 1.4 8.6h-24.4z" style="mask:url(#SVGID_25_);fill:url(#SVGID_26_)"/></g></mask><linearGradient id="SVGID_27_" gradientUnits="userSpaceOnUse" x1="5337.651" y1="801.699" x2="5357.493" y2="808.419" gradientTransform="matrix(-1 0 0 1 5901.845 0)"><stop offset="0" style="stop-color:#bebebe"/><stop offset="1" style="stop-color:#fff"/></linearGradient><path d="M563.6 864c-5.4-11.6-9.2-24.8-9.2-32.9 0-13.4-1-31.4-5.8-38.1-4.8-6.7-6.4-14.7-5.1-20.5 1.3-5.8-1.3-13.8-2.9-21.1-1.6-7.4.3-12.2.3-12.2 1.8 15.9 7.8 14.4 8.9 23.8 1.1 9.4 1.1 15.8 5.8 22.2 4.7 6.4 4.3 14.7 10.7 30.1 6.4 15.4 18.1 29.7 20.3 40.1.4 2.1.9 5.1 1.4 8.6h-24.4z" style="opacity:.14;fill:url(#SVGID_27_)"/><path class="st8" d="M495.9 748.8c2.6 5.8 10.9 9.6 23.4 15 12.5 5.4 18.5 9.1 29.8 26.9 6.1 9.6 13.4 25 18.6 47 2.3 10.1 5.4 19.2 7.9 26.2h-24.3V862c0-15.4-21.4-32.6-26.6-46.1-5.1-13.4-14.4-27.8-21.4-33.6-7-5.8-16.3-21.1-17.3-30.1s-4.8-15.7-4.8-15.7c5.1 1.7 12.1 6.5 14.7 12.3z"/><defs><filter id="Adobe_OpacityMaskFilter_18_" filterUnits="userSpaceOnUse" x="481.1" y="736.6" width="82.2" height="127.3"><feFlood style="flood-color:white;flood-opacity:1" result="back"/><feBlend in="SourceGraphic" in2="back"/></filter></defs><mask maskUnits="userSpaceOnUse" x="481.1" y="736.6" width="82.2" height="127.3" id="SVGID_28_"><g style="filter:url(#Adobe_OpacityMaskFilter_18_)"><defs><filter id="Adobe_OpacityMaskFilter_19_" filterUnits="userSpaceOnUse" x="481.1" y="736.6" width="82.2" height="127.3"><feFlood style="flood-color:white;flood-opacity:1" result="back"/><feBlend in="SourceGraphic" in2="back"/></filter></defs><linearGradient id="SVGID_29_" gradientUnits="userSpaceOnUse" x1="5365.81" y1="795.65" x2="5397.583" y2="806.412" gradientTransform="matrix(-1 0 0 1 5901.845 0)"><stop offset="0" style="stop-color:#fff"/><stop offset="1" style="stop-color:#000"/></linearGradient><path d="M495.9 762.3c5.1 9.6 13.4 5.1 28.2 18.6 14.7 13.4 7.7 14.7 20.8 34.9 13.1 20.2 15.4 28.2 17.6 43.5.2 1.4.5 3 .9 4.8h-12.1v-1.9c0-15.4-21.4-32.6-26.6-46.1-5.1-13.4-14.4-27.8-21.4-33.6-7-5.8-16.3-21.1-17.3-30.1s-4.8-15.7-4.8-15.7c10.5 12.1 9.5 15.9 14.7 25.6z" style="mask:url(#SVGID_28_);fill:url(#SVGID_29_)"/></g></mask><linearGradient id="SVGID_30_" gradientUnits="userSpaceOnUse" x1="5365.81" y1="795.65" x2="5397.583" y2="806.412" gradientTransform="matrix(-1 0 0 1 5901.845 0)"><stop offset="0" style="stop-color:#3b5b4f"/><stop offset="1" style="stop-color:#fff"/></linearGradient><path d="M495.9 762.3c5.1 9.6 13.4 5.1 28.2 18.6 14.7 13.4 7.7 14.7 20.8 34.9 13.1 20.2 15.4 28.2 17.6 43.5.2 1.4.5 3 .9 4.8h-12.1v-1.9c0-15.4-21.4-32.6-26.6-46.1-5.1-13.4-14.4-27.8-21.4-33.6-7-5.8-16.3-21.1-17.3-30.1s-4.8-15.7-4.8-15.7c10.5 12.1 9.5 15.9 14.7 25.6z" style="opacity:.26;fill:url(#SVGID_30_)"/><path class="st3" d="M1018.2 604.9c-7.2 13.6-3.6 18.9-2.2 33.7 1.4 14.8-9.4 17.8-14.4 30.2-5 12.4-1.4 18.3-2.9 33.7-1.4 15.4-7.2 16.6-12.3 30.8-5 14.2 0 33.7 3.6 60.4 2.2 16.5-3 47-7.3 67.9h-66.2c5.1-39.5 12.3-103 7.9-117-6.5-20.7 3.6-55 10.1-65.7 6.5-10.7 7.9-23.7 6.5-33.1-1.4-9.5 5-13 13-20.1 7.9-7.1 7.9-22.5 11.5-35.5 3.6-13 20.6-18.2 21.6-29.6 1.8-19.9 25.1-38 37.9-38 10.6 9.7-1.5 35.9-3.7 46.5-2 10.6 4.1 22.2-3.1 35.8z"/><defs><filter id="Adobe_OpacityMaskFilter_20_" filterUnits="userSpaceOnUse" x="939.4" y="522.5" width="90" height="339"><feFlood style="flood-color:white;flood-opacity:1" result="back"/><feBlend in="SourceGraphic" in2="back"/></filter></defs><mask maskUnits="userSpaceOnUse" x="939.4" y="522.5" width="90" height="339" id="SVGID_31_"><g style="filter:url(#Adobe_OpacityMaskFilter_20_)"><defs><filter id="Adobe_OpacityMaskFilter_21_" filterUnits="userSpaceOnUse" x="939.4" y="522.5" width="90" height="339"><feFlood style="flood-color:white;flood-opacity:1" result="back"/><feBlend in="SourceGraphic" in2="back"/></filter></defs><linearGradient id="SVGID_32_" gradientUnits="userSpaceOnUse" x1="4855.216" y1="677.595" x2="5003.867" y2="727.944" gradientTransform="matrix(-1 0 0 1 5901.845 0)"><stop offset="0" style="stop-color:#fff"/><stop offset="1" style="stop-color:#000"/></linearGradient><path d="M1018.2 604.9c-7.2 13.6-3.6 18.9-2.2 33.7 1.4 14.8-9.4 17.8-14.4 30.2-5 12.4-1.4 18.3-2.9 33.7-1.4 15.4-7.2 16.6-12.3 30.8-5 14.2 0 33.7 3.6 60.4 2.2 16.5-3 47-7.3 67.9h-42.2c2.8-22.5 5.1-47.1 4.1-59.4-2.2-26.2-9.7-39.1-1.6-56.4 8.1-17.3 21.6-16 17.8-39.5-3.8-23.5-3.2-39.1 16.2-55.9 19.5-16.9 6.5-33.7 7.6-47.5 1.1-13.8 15.7-16.9 18.4-30.6 2.7-13.8 1.2-30.8 22.1-49.6 10.6 9.7-1.5 35.9-3.7 46.5-2.1 10.5 4 22.1-3.2 35.7z" style="mask:url(#SVGID_31_);fill:url(#SVGID_32_)"/></g></mask><linearGradient id="SVGID_33_" gradientUnits="userSpaceOnUse" x1="4855.216" y1="677.595" x2="5003.867" y2="727.944" gradientTransform="matrix(-1 0 0 1 5901.845 0)"><stop offset="0" style="stop-color:#3b5b4f"/><stop offset="1" style="stop-color:#fff"/></linearGradient><path d="M1018.2 604.9c-7.2 13.6-3.6 18.9-2.2 33.7 1.4 14.8-9.4 17.8-14.4 30.2-5 12.4-1.4 18.3-2.9 33.7-1.4 15.4-7.2 16.6-12.3 30.8-5 14.2 0 33.7 3.6 60.4 2.2 16.5-3 47-7.3 67.9h-42.2c2.8-22.5 5.1-47.1 4.1-59.4-2.2-26.2-9.7-39.1-1.6-56.4 8.1-17.3 21.6-16 17.8-39.5-3.8-23.5-3.2-39.1 16.2-55.9 19.5-16.9 6.5-33.7 7.6-47.5 1.1-13.8 15.7-16.9 18.4-30.6 2.7-13.8 1.2-30.8 22.1-49.6 10.6 9.7-1.5 35.9-3.7 46.5-2.1 10.5 4 22.1-3.2 35.7z" style="opacity:.26;fill:url(#SVGID_33_)"/><path class="st8" d="M937.9 861.5c8-32.6 7-86.8 2.7-101.5-5.3-18.4 0-50.6 2.7-65.7 2.7-15.1-3.1-28.4-5.1-38-2-9.6 7.6-15.5 9.8-27.3 2.2-11.8-8.3-19.9-10.4-30.3-2.1-10.3-3.6-32.8-6.7-32.8 0 0-10.9 8.9-16.1 19.2-5.2 10.3 0 26.6-7.5 33.2-7.5 6.7-11.3 12.6-10.4 26.6.9 14-3.2 14.4-7.3 30.3s8.6 28.8 8.3 46.1c-.3 17.3-9.1 15.9-16.8 46.2-5.4 21.5 7.2 68.5 14.9 94h41.9z"/><defs><filter id="Adobe_OpacityMaskFilter_22_" filterUnits="userSpaceOnUse" x="905.8" y="565.8" width="42.7" height="295.7"><feFlood style="flood-color:white;flood-opacity:1" result="back"/><feBlend in="SourceGraphic" in2="back"/></filter></defs><mask maskUnits="userSpaceOnUse" x="905.8" y="565.8" width="42.7" height="295.7" id="SVGID_34_"><g style="filter:url(#Adobe_OpacityMaskFilter_22_)"><defs><filter id="Adobe_OpacityMaskFilter_23_" filterUnits="userSpaceOnUse" x="905.8" y="565.8" width="42.7" height="295.7"><feFlood style="flood-color:white;flood-opacity:1" result="back"/><feBlend in="SourceGraphic" in2="back"/></filter></defs><linearGradient id="SVGID_35_" gradientUnits="userSpaceOnUse" x1="-785" y1="738.363" x2="-744.619" y2="752.041" gradientTransform="matrix(1.0252 -.0018 .2011 .9813 1570.282 -14.294)"><stop offset="0" style="stop-color:#fff"/><stop offset="1" style="stop-color:#000"/></linearGradient><path d="M937.9 861.5c8-32.6 7-86.8 2.7-101.5-5.3-18.4 0-50.6 2.7-65.7 2.7-15.1-3.1-28.4-5.1-38-2-9.6 7.6-15.5 9.8-27.3 2.2-11.8-8.3-19.9-10.4-30.3-2.1-10.3-3.6-32.8-6.7-32.8.3 18.5-10.6 19.6-8.2 33.6s11.6 20.7.7 31.7c-10.8 11.1-7 14.8-6.2 35.8.8 21-15.3 23.9-8.2 43.5 8.3 22.9 9.5 44.3 1 60.1-10.4 19.2 1.5 52.1-1.5 74.4 1.6 6.6 2 12 1.6 16.4h27.8z" style="mask:url(#SVGID_34_);fill:url(#SVGID_35_)"/></g></mask><linearGradient id="SVGID_36_" gradientUnits="userSpaceOnUse" x1="-785" y1="738.363" x2="-744.619" y2="752.041" gradientTransform="matrix(1.0252 -.0018 .2011 .9813 1570.282 -14.294)"><stop offset="0" style="stop-color:#3b5b4f"/><stop offset="1" style="stop-color:#fff"/></linearGradient><path d="M937.9 861.5c8-32.6 7-86.8 2.7-101.5-5.3-18.4 0-50.6 2.7-65.7 2.7-15.1-3.1-28.4-5.1-38-2-9.6 7.6-15.5 9.8-27.3 2.2-11.8-8.3-19.9-10.4-30.3-2.1-10.3-3.6-32.8-6.7-32.8.3 18.5-10.6 19.6-8.2 33.6s11.6 20.7.7 31.7c-10.8 11.1-7 14.8-6.2 35.8.8 21-15.3 23.9-8.2 43.5 8.3 22.9 9.5 44.3 1 60.1-10.4 19.2 1.5 52.1-1.5 74.4 1.6 6.6 2 12 1.6 16.4h27.8z" style="opacity:.26;fill:url(#SVGID_36_)"/><path class="st13" d="M1090.8 583.3c-5.3-.8-17.1 10.9-22.4 18.4-5.3 7.5-19.5 8.6-25.4 20.3-5.9 11.7-1.6 21.8-17.1 31.2-15.5 9.4-24.6 20.5-36.6 42.1-9.2 16.5-20.8 48.1-22.4 66.6-1.6 18.4-10.6 36.5-21.4 55.3-6 10.4-8.3 29.4-9.1 44.3h25.9c6.6-9.9 17.5-20.8 19.9-30.1 3.3-12.8 1.3-33.5 8.6-45.9 7.3-12.4 28-32 28.7-45.1.7-13.2 13.5-28.2 23.7-35.3 10.2-7.1 11.2-29.3 17.1-39.9 5.9-10.5 18.8-15 19.5-27.1.7-12 2.3-21.4 8.2-27.8 5.8-6.3 8.1-26.2 2.8-27z"/><defs><filter id="Adobe_OpacityMaskFilter_24_" filterUnits="userSpaceOnUse" x="947.9" y="583.3" width="145.9" height="278.2"><feFlood style="flood-color:white;flood-opacity:1" result="back"/><feBlend in="SourceGraphic" in2="back"/></filter></defs><mask maskUnits="userSpaceOnUse" x="947.9" y="583.3" width="145.9" height="278.2" id="SVGID_37_"><g style="filter:url(#Adobe_OpacityMaskFilter_24_)"><defs><filter id="Adobe_OpacityMaskFilter_25_" filterUnits="userSpaceOnUse" x="947.9" y="583.3" width="145.9" height="278.2"><feFlood style="flood-color:white;flood-opacity:1" result="back"/><feBlend in="SourceGraphic" in2="back"/></filter></defs><linearGradient id="SVGID_38_" gradientUnits="userSpaceOnUse" x1="-786.545" y1="714.096" x2="-725.271" y2="734.85" gradientTransform="matrix(.8768 0 0 1 1687.567 -.002)"><stop offset="0" style="stop-color:#fff"/><stop offset="1" style="stop-color:#000"/></linearGradient><path d="m1092.2 584.2-1.4-.8c-5.9 16.5-15.8 21.1-20.1 33.1-4.3 12-13.5 10.5-20.1 28.6-6.6 18-32.7 24.7-37.6 50.8-5.7 30.6-35.8 26.7-34.7 84.1.5 25-17.4 27.4-26.1 49.2-6 14.9-4.1 32.5-4.1 32.5h14c6.6-9.9 17.5-20.7 19.9-30 3.3-12.8 1.3-33.5 8.6-45.9 7.3-12.4 28-32 28.7-45.1.7-13.2 13.5-28.2 23.7-35.3 10.2-7.1 11.2-29.3 17.1-39.9 5.9-10.5 18.8-15 19.5-27.1.7-12 2.3-21.4 8.2-27.8 5.3-5.9 7.8-22.5 4.4-26.4z" style="mask:url(#SVGID_37_);fill:url(#SVGID_38_)"/></g></mask><linearGradient id="SVGID_39_" gradientUnits="userSpaceOnUse" x1="-786.545" y1="714.096" x2="-725.271" y2="734.85" gradientTransform="matrix(.8768 0 0 1 1687.567 -.002)"><stop offset="0" style="stop-color:#3b5b4f"/><stop offset="1" style="stop-color:#fff"/></linearGradient><path d="m1092.2 584.2-1.4-.8c-5.9 16.5-15.8 21.1-20.1 33.1-4.3 12-13.5 10.5-20.1 28.6-6.6 18-32.7 24.7-37.6 50.8-5.7 30.6-35.8 26.7-34.7 84.1.5 25-17.4 27.4-26.1 49.2-6 14.9-4.1 32.5-4.1 32.5h14c6.6-9.9 17.5-20.7 19.9-30 3.3-12.8 1.3-33.5 8.6-45.9 7.3-12.4 28-32 28.7-45.1.7-13.2 13.5-28.2 23.7-35.3 10.2-7.1 11.2-29.3 17.1-39.9 5.9-10.5 18.8-15 19.5-27.1.7-12 2.3-21.4 8.2-27.8 5.3-5.9 7.8-22.5 4.4-26.4z" style="opacity:.26;fill:url(#SVGID_39_)"/><path class="st3" d="M1066.1 861.6c6.9-13.6 11.7-29.2 11.7-38.7 0-15.8 1.2-36.9 7.3-44.7 6.1-7.9 8.1-17.3 6.5-24.1-1.6-6.8 1.6-16.2 3.7-24.8 2-8.6-.4-14.3-.4-14.3-2.9 5.6-5.3 6-11 13.2-5.7 7.1-3.3 10.5-11.4 21.8-8.1 11.3-15.5 22.9-18.3 36.9-2.9 13.9-14.3 28.6-24 41.7-6.9 9.3-11.3 20.8-13.9 33.1h49.8z"/><defs><filter id="Adobe_OpacityMaskFilter_26_" filterUnits="userSpaceOnUse" x="1035.1" y="714.9" width="61.1" height="146.6"><feFlood style="flood-color:white;flood-opacity:1" result="back"/><feBlend in="SourceGraphic" in2="back"/></filter></defs><mask maskUnits="userSpaceOnUse" x="1035.1" y="714.9" width="61.1" height="146.6" id="SVGID_40_"><g style="filter:url(#Adobe_OpacityMaskFilter_26_)"><defs><filter id="Adobe_OpacityMaskFilter_27_" filterUnits="userSpaceOnUse" x="1035.1" y="714.9" width="61.1" height="146.6"><feFlood style="flood-color:white;flood-opacity:1" result="back"/><feBlend in="SourceGraphic" in2="back"/></filter></defs><linearGradient id="SVGID_41_" gradientUnits="userSpaceOnUse" x1="-144.217" y1="788.357" x2="-120.903" y2="796.253" gradientTransform="matrix(1.0835 0 0 1 1221.624 -.003)"><stop offset="0" style="stop-color:#fff"/><stop offset="1" style="stop-color:#000"/></linearGradient><path d="M1066.1 861.6c6.9-13.6 11.7-29.2 11.7-38.7 0-15.8 1.2-36.9 7.3-44.7 6.1-7.9 8.1-17.3 6.5-24.1-1.6-6.8 1.6-16.2 3.7-24.8 2-8.6-.4-14.3-.4-14.3-2.3 18.7-9.9 16.9-11.3 28-1.4 11-1.4 18.6-7.3 26.1-6 7.5-5.4 17.3-13.6 35.3-8.1 18-23.1 34.8-25.8 47.1-.5 2.5-1.2 6-1.8 10.1h31z" style="mask:url(#SVGID_40_);fill:url(#SVGID_41_)"/></g></mask><linearGradient id="SVGID_42_" gradientUnits="userSpaceOnUse" x1="-144.217" y1="788.357" x2="-120.903" y2="796.253" gradientTransform="matrix(1.0835 0 0 1 1221.624 -.003)"><stop offset="0" style="stop-color:#bebebe"/><stop offset="1" style="stop-color:#fff"/></linearGradient><path d="M1066.1 861.6c6.9-13.6 11.7-29.2 11.7-38.7 0-15.8 1.2-36.9 7.3-44.7 6.1-7.9 8.1-17.3 6.5-24.1-1.6-6.8 1.6-16.2 3.7-24.8 2-8.6-.4-14.3-.4-14.3-2.3 18.7-9.9 16.9-11.3 28-1.4 11-1.4 18.6-7.3 26.1-6 7.5-5.4 17.3-13.6 35.3-8.1 18-23.1 34.8-25.8 47.1-.5 2.5-1.2 6-1.8 10.1h31z" style="opacity:.14;fill:url(#SVGID_42_)"/><path class="st13" d="M867.9 861.6c-6.8-19.3-11.5-41.3-11.5-54.9 0-22.4-1.2-52.2-7.2-63.4-6-11.2-8-24.5-6.4-34.1 1.6-9.6-1.6-22.9-3.6-35.2-2-12.3.4-20.3.4-20.3 2.8 8 5.2 8.5 10.8 18.7 5.6 10.1 3.2 14.9 11.2 30.9 8 16 15.3 32.5 18.1 52.2 2.8 19.7 14.1 40.5 23.7 59.2 6.8 13.1 11.1 29.5 13.7 46.9h-49.2z"/><defs><filter id="Adobe_OpacityMaskFilter_28_" filterUnits="userSpaceOnUse" x="838.3" y="653.7" width="60.2" height="207.9"><feFlood style="flood-color:white;flood-opacity:1" result="back"/><feBlend in="SourceGraphic" in2="back"/></filter></defs><mask maskUnits="userSpaceOnUse" x="838.3" y="653.7" width="60.2" height="207.9" id="SVGID_43_"><g style="filter:url(#Adobe_OpacityMaskFilter_28_)"><defs><filter id="Adobe_OpacityMaskFilter_29_" filterUnits="userSpaceOnUse" x="838.3" y="653.7" width="60.2" height="207.9"><feFlood style="flood-color:white;flood-opacity:1" result="back"/><feBlend in="SourceGraphic" in2="back"/></filter></defs><linearGradient id="SVGID_44_" gradientUnits="userSpaceOnUse" x1="4808.569" y1="757.498" x2="4840.922" y2="768.456" gradientTransform="matrix(-1.0638 0 0 1 5984.77 -.005)"><stop offset="0" style="stop-color:#fff"/><stop offset="1" style="stop-color:#000"/></linearGradient><path d="M867.9 861.6c-6.8-19.3-11.5-41.3-11.5-54.9 0-22.4-1.2-52.2-7.2-63.4-6-11.2-8-24.5-6.4-34.1 1.6-9.6-1.6-22.9-3.6-35.2-2-12.3.4-20.3.4-20.3 2.3 26.5 9.8 24 11.1 39.6 1.3 15.6 1.3 26.3 7.2 37s5.4 24.5 13.4 50.1 22.8 49.4 25.4 66.8c.5 3.5 1.2 8.5 1.8 14.4h-30.6z" style="mask:url(#SVGID_43_);fill:url(#SVGID_44_)"/></g></mask><linearGradient id="SVGID_45_" gradientUnits="userSpaceOnUse" x1="4808.569" y1="757.498" x2="4840.922" y2="768.456" gradientTransform="matrix(-1.0638 0 0 1 5984.77 -.005)"><stop offset="0" style="stop-color:#bebebe"/><stop offset="1" style="stop-color:#fff"/></linearGradient><path d="M867.9 861.6c-6.8-19.3-11.5-41.3-11.5-54.9 0-22.4-1.2-52.2-7.2-63.4-6-11.2-8-24.5-6.4-34.1 1.6-9.6-1.6-22.9-3.6-35.2-2-12.3.4-20.3.4-20.3 2.3 26.5 9.8 24 11.1 39.6 1.3 15.6 1.3 26.3 7.2 37s5.4 24.5 13.4 50.1 22.8 49.4 25.4 66.8c.5 3.5 1.2 8.5 1.8 14.4h-30.6z" style="opacity:.14;fill:url(#SVGID_45_)"/><path class="st8" d="M1062.5 726.2c-2.9 6.8-12.4 11.3-26.6 17.7-14.2 6.4-21.1 10.7-33.9 31.6-6.9 11.3-15.3 29.3-21.1 55.3-2.7 11.9-6.1 22.6-9 30.8h27.6v-2.2c0-18 24.4-38.4 30.2-54.1 5.8-15.8 16.4-32.7 24.4-39.5 8-6.8 18.6-24.8 19.7-35.3 1.1-10.5 5.5-18.4 5.5-18.4-5.9 1.7-13.9 7.3-16.8 14.1z"/><defs><filter id="Adobe_OpacityMaskFilter_30_" filterUnits="userSpaceOnUse" x="985.7" y="711.9" width="93.6" height="149.6"><feFlood style="flood-color:white;flood-opacity:1" result="back"/><feBlend in="SourceGraphic" in2="back"/></filter></defs><mask maskUnits="userSpaceOnUse" x="985.7" y="711.9" width="93.6" height="149.6" id="SVGID_46_"><g style="filter:url(#Adobe_OpacityMaskFilter_30_)"><defs><filter id="Adobe_OpacityMaskFilter_31_" filterUnits="userSpaceOnUse" x="985.7" y="711.9" width="93.6" height="149.6"><feFlood style="flood-color:white;flood-opacity:1" result="back"/><feBlend in="SourceGraphic" in2="back"/></filter></defs><linearGradient id="SVGID_47_" gradientUnits="userSpaceOnUse" x1="-987.738" y1="779.456" x2="-937.779" y2="796.378" gradientTransform="matrix(.8076 0 0 1 1812.812 -.002)"><stop offset="0" style="stop-color:#fff"/><stop offset="1" style="stop-color:#000"/></linearGradient><path d="M1062.5 742c-5.8 11.3-15.3 6-32.1 21.8s-8.7 17.3-23.7 41c-14.9 23.7-17.5 33.1-20 51.1-.2 1.7-.6 3.6-1.1 5.6h13.8v-2.2c0-18 24.4-38.4 30.2-54.1 5.8-15.8 16.4-32.7 24.4-39.5 8-6.8 18.6-24.8 19.7-35.3 1.1-10.5 5.5-18.4 5.5-18.4-11.9 14.2-10.9 18.7-16.7 30z" style="mask:url(#SVGID_46_);fill:url(#SVGID_47_)"/></g></mask><linearGradient id="SVGID_48_" gradientUnits="userSpaceOnUse" x1="-987.738" y1="779.456" x2="-937.779" y2="796.378" gradientTransform="matrix(.8076 0 0 1 1812.812 -.002)"><stop offset="0" style="stop-color:#3b5b4f"/><stop offset="1" style="stop-color:#fff"/></linearGradient><path d="M1062.5 742c-5.8 11.3-15.3 6-32.1 21.8s-8.7 17.3-23.7 41c-14.9 23.7-17.5 33.1-20 51.1-.2 1.7-.6 3.6-1.1 5.6h13.8v-2.2c0-18 24.4-38.4 30.2-54.1 5.8-15.8 16.4-32.7 24.4-39.5 8-6.8 18.6-24.8 19.7-35.3 1.1-10.5 5.5-18.4 5.5-18.4-11.9 14.2-10.9 18.7-16.7 30z" style="opacity:.26;fill:url(#SVGID_48_)"/><path d="M1175.7 794.5H724.6c-33 0-52.4-15-62.9-27.6-11.3-13.6-14.8-27.3-14.9-27.9-.9-3.5 1.6-4.8 5.1-5.6 3.5-.9 6.7-1 7.6 2.5.5 1.8 12.2 45.6 65.1 45.6h451.1c44.8 0 70.2-55.5 70.5-56 1.5-3.3 4.5-2.9 7.9-1.4 3.3 1.5 5.6 3.4 4.1 6.7-.3.6-7.3 16-20.6 31.5-18.3 21-39.6 32.2-61.9 32.2z" style="fill:#9753f9"/><circle class="st71" cx="1132.7" cy="829.4" r="30.9"/><circle class="st13" cx="1132.7" cy="829.4" r="16.2"/><circle class="st71" cx="750.2" cy="829.4" r="30.9"/><circle class="st13" cx="750.2" cy="829.4" r="16.2"/><path class="st72" d="M445.2 453.5H388V348.6c0-8.6 3.3-17.1 9.5-24.5 1.7-2 2.7-4.6 2.7-7.3v-38.2H433v38.2c0 2.7.9 5.3 2.7 7.3 6.2 7.4 9.5 15.9 9.5 24.5v104.9zm-55.4-1.7h53.7V348.6c0-8.2-3.2-16.3-9.1-23.4-2-2.4-3.1-5.3-3.1-8.4v-36.5H402v36.5c0 3.1-1.1 6.1-3.1 8.4-6 7.1-9.1 15.2-9.1 23.4v103.2z"/><path class="st73" d="M434.4 290.2h-35.6v-9.4c0-2.7 2.2-4.9 4.9-4.9h25.7c2.7 0 4.9 2.2 4.9 4.9v9.4z"/><path class="st72" d="M388.9 347.7h55.5v1.8h-55.5z"/><path class="st74" d="M998.5 458h-34.2c-5.9 0-10.8-4.8-10.8-10.8v-56.1c0-.7.6-1.3 1.3-1.3h53.2c.7 0 1.3.6 1.3 1.3v56.1c-.1 6-4.9 10.8-10.8 10.8z"/><path class="st74" d="M1014.3 437.7h-5.7c-8.8 0-15.9-7.1-15.9-15.9v-8.4c0-8.8 7.1-15.9 15.9-15.9h5.7c8.8 0 15.9 7.1 15.9 15.9v8.4c0 8.8-7.1 15.9-15.9 15.9zm-5.7-33.2c-4.9 0-8.9 4-8.9 8.9v8.4c0 4.9 4 8.9 8.9 8.9h5.7c4.9 0 8.9-4 8.9-8.9v-8.4c0-4.9-4-8.9-8.9-8.9h-5.7z"/><path class="st75" d="M965.5 424.1h32.4v3.2h-32.4zM965.5 433h32.4v3.2h-32.4z"/><circle transform="rotate(-48.792 981.46 388.397)" cx="981.4" cy="388.4" style="fill:#f7ecd2" r="27.8"/><path class="st74" d="M1005.5 388.4c0 1.6-.1 3.1-.4 4.6-2.1-11.1-11.9-19.5-23.7-19.5-11.7 0-21.5 8.4-23.7 19.5-.3-1.5-.4-3-.4-4.6 0-13.3 10.8-24.1 24.1-24.1s24.1 10.8 24.1 24.1z"/><path class="st77" d="M1005.1 393c-2.1 11.1-11.9 19.5-23.7 19.5-11.7 0-21.5-8.4-23.7-19.5 2.1-11.1 11.9-19.5 23.7-19.5 11.7-.1 21.5 8.3 23.7 19.5z"/><g style="opacity:.39"><path class="st79" d="M967.2 370.6c.3 1.4.5 3.7 1.5 7.1 1.2 4 2.7 6.3 3.1 7.4 2.1 5.7-.6 11.8-3.9 13.4-.7.4-.4.3-.4-.8 0-3-.7-7.7-2.3-10.4-3.9-7.2-1.8-13.9 2-16.7zM994.5 398.7c.3-12.6-5.4-12.6-4.2-20.9.3-2.5 1.4-4.8 3.2-6.6 2.1-2-.6 1.3 5.1 13.2 2.7 5.9-.2 12.8-4.1 14.3zM981 390c.3-12.5-5.4-12.6-4.2-20.9.3-2.5 1.4-4.8 3.2-6.6 2.1-2-.6 1.3 5.1 13.2 2.6 5.9-.3 12.7-4.1 14.3z"/></g><path class="st79" d="M924.3 135.4v227.9c0 11.1-9 20.1-20.1 20.1H513.1c-11.1 0-20.1-9-20.1-20.1V135.4c0-11.1 9-20.1 20.1-20.1h391.1c11.1 0 20.1 9 20.1 20.1z"/><path style="fill:#636363" d="M685.9 381.5h54.6v67.4h-54.6z"/><path style="fill:#7f7f7f" d="M685.9 381.5h54.6v67.4h-54.6z"/><path class="st83" d="M685.9 381.5h54.6v15.3h-54.6z" style="opacity:.27"/><path style="fill:#717171" d="M648 448.5h130.6v4.6H648z"/><path style="fill:#989898" d="M648 447.1h130.6v1.4H648z"/><path class="st71" d="M904.9 123.1c6.8 0 12.3 5.5 12.3 12.3v227.9c0 6.8-5.5 12.3-12.3 12.3H513.8c-6.8 0-12.3-5.5-12.3-12.3V135.4c0-6.8 5.5-12.3 12.3-12.3h391.1zm0-7.8H513.8c-11.1 0-20.1 9-20.1 20.1v227.9c0 11.1 9 20.1 20.1 20.1h391.1c11.1 0 20.1-9 20.1-20.1V135.4c0-11.1-9-20.1-20.1-20.1z"/><path d="M904.9 116c10.7 0 19.4 8.7 19.4 19.4v227.9c0 10.7-8.7 19.4-19.4 19.4H513.8c-10.7 0-19.4-8.7-19.4-19.4V135.4c0-10.7 8.7-19.4 19.4-19.4h391.1zm0-.7H513.8c-11.1 0-20.1 9-20.1 20.1v227.9c0 11.1 9 20.1 20.1 20.1h391.1c11.1 0 20.1-9 20.1-20.1V135.4c0-11.1-9-20.1-20.1-20.1z" style="fill:silver"/><path class="st79" d="M904.9 123.1c6.8 0 12.3 5.5 12.3 12.3v227.9c0 6.8-5.5 12.3-12.3 12.3H513.8c-6.8 0-12.3-5.5-12.3-12.3V135.4c0-6.8 5.5-12.3 12.3-12.3h391.1z"/><path d="M668.1 283.6c-5.4-6.6-4.9-12.8-4.6-17.3.3-3.8.4-5.9-1.9-8.8-2.3-2.9-4.4-3.2-8.2-3.7-4.5-.6-10.6-1.5-16-8.1s-4.9-12.8-4.6-17.3c.3-3.8.4-5.9-1.9-8.8-2.3-2.9-4.4-3.2-8.2-3.7-4.5-.6-10.6-1.5-16-8.1s-4.9-12.8-4.6-17.3c.3-3.8.4-5.9-1.9-8.8-2.3-2.9-4.4-3.2-8.2-3.7-4.5-.6-10.6-1.5-16-8.1s-4.9-12.8-4.6-17.3c.3-3.8.4-5.9-1.9-8.8l9.5-7.7c5.4 6.6 4.9 12.8 4.6 17.3-.3 3.8-.4 5.9 1.9 8.8 2.3 2.9 4.4 3.2 8.2 3.7 4.5.6 10.6 1.5 16 8.1s4.9 12.8 4.6 17.3c-.3 3.8-.4 5.9 1.9 8.8 2.3 2.9 4.4 3.2 8.2 3.7 4.5.6 10.6 1.5 16 8.1s4.9 12.8 4.6 17.3c-.3 3.8-.4 5.9 1.9 8.8 2.3 2.9 4.4 3.2 8.2 3.7 4.5.6 10.6 1.5 16 8.1s4.9 12.8 4.6 17.3c-.3 3.8-.4 5.9 1.9 8.8 2.3 2.9 4.4 3.2 8.2 3.7 4.5.6 10.6 1.5 16 8.1l-9.5 7.7c-2.3-2.9-4.4-3.2-8.2-3.7-4.5-.6-10.6-1.5-16-8.1z" style="fill:#b9cdb2"/><path d="M846.1 266.6c0 66.4-53.8 120.1-120.1 120.1s-120.1-53.8-120.1-120.1S659.7 146.5 726 146.5s120.1 53.7 120.1 120.1zM725.9 200c-36.8 0-66.6 29.8-66.6 66.6s29.8 66.6 66.6 66.6 66.6-29.8 66.6-66.6-29.8-66.6-66.6-66.6z" style="opacity:.56;fill:#f0daa9"/><circle cx="808.8" cy="226" r="51.8" style="opacity:.17;fill:#e68f70"/><path class="st90" d="M501.5 155.6h43.4v30.8h-43.4zM501.5 191.2h43.4v48.4h-43.4zM501.5 244.5h43.4v64.9h-43.4zM873.8 268h43.4v30.8h-43.4zM873.8 214.7h43.4v48.4h-43.4zM873.8 145h43.4v64.9h-43.4zM549 156h13.5v50.2H549zM873.8 305.3h33v14.8h-33z"/><path class="st77" d="M733.8 295.6c-6.2 0-12.3-.3-18.1-.9-33.3-3.5-59.9-15.5-66.2-30-11.2-25.7-22.8-22.2-35.2-18.5-2.6.8-5.2 1.6-7.8 2.1-7.2 1.4-13.2.3-17.6-3.3-4.1-3.4-6.4-8.8-6.4-15.1 0-14.2 13.9-16.8 27.3-19.3 9.2-1.7 18.6-3.5 22.9-9 3.7-4.7 5.6-11.9 7.7-19.4 3.9-14.5 8.4-31 26.7-40 28.3-13.8 54.6-6.5 80.4 22.5 17.8 20 29.9 12.3 43.8 3.3 4.8-3.1 9.8-6.3 15.2-8.4 14-5.3 29.6-4.5 38.8 2 6 4.2 9 10.6 8.8 18.4-.4 13.4-12.4 17.7-24.1 21.8-8.5 3-16.5 5.9-19.5 12-2.9 6-.2 11.5 2.9 17.9 4.3 9 9.2 19.2-.5 32.9-16.1 23.1-48.9 31-79.1 31zm-106.6-53.8c8.2 0 16.3 4.6 24 22.2 6 13.9 32 25.5 64.7 28.9 33.8 3.5 76.6-2.3 95.7-29.1 9.1-12.8 4.7-22.1.4-31-3.1-6.6-6.1-12.8-2.9-19.5 3.3-6.8 11.6-9.8 20.5-13 11.1-4 22.5-8 22.9-20.2.2-7.2-2.6-13-8.1-16.9-8.8-6.2-23.7-6.9-37.1-1.8-5.2 2-10.1 5.2-14.9 8.2-14 9-27.3 17.5-46.1-3.6-25.2-28.3-50.8-35.5-78.3-22.1-17.6 8.6-21.9 24.7-25.8 38.8-2.1 7.7-4.1 15-8 20-4.7 6.1-14.6 7.9-24 9.7-13.3 2.5-25.8 4.8-25.8 17.5 0 5.8 2 10.7 5.8 13.7 3.9 3.2 9.5 4.2 16.1 2.9 2.5-.5 5.2-1.3 7.7-2.1 4.2-1.3 8.7-2.6 13.2-2.6z"/><path transform="rotate(-67.685 809.956 213.58)" class="st83" d="M786.7 212.7h46.5v1.8h-46.5z"/><circle class="st79" cx="809.4" cy="215.3" r="2.4"/><path class="st83" d="M809.4 218.6c-1.8 0-3.3-1.5-3.3-3.3 0-1.8 1.5-3.3 3.3-3.3 1.8 0 3.3 1.5 3.3 3.3 0 1.8-1.4 3.3-3.3 3.3zm0-4.8c-.8 0-1.5.7-1.5 1.5s.7 1.5 1.5 1.5 1.5-.7 1.5-1.5-.6-1.5-1.5-1.5zM820.4 192.4c0 1-.8 1.8-1.8 1.8s-1.8-.8-1.8-1.8.8-1.8 1.8-1.8 1.8.8 1.8 1.8zM803 235c0 1-.8 1.8-1.8 1.8s-1.8-.8-1.8-1.8.8-1.8 1.8-1.8c1-.1 1.8.8 1.8 1.8z"/><path class="st91" d="M1057.7 452.8c-.5 0-1.1-.1-1.6-.4-1.8-.9-2.5-3-1.7-4.8l8-16.3c.9-1.8 3-2.5 4.8-1.7 1.8.9 2.5 3 1.7 4.8l-8 16.3c-.6 1.4-1.9 2.1-3.2 2.1zM1156.4 452.8c-1.3 0-2.6-.7-3.3-2l-8-16.3c-.9-1.8-.1-4 1.7-4.8 1.8-.9 4-.1 4.8 1.7l8 16.3c.9 1.8.1 4-1.7 4.8-.4.2-.9.3-1.5.3z"/><path class="st91" d="M1107 441.7c-53.2 0-96.5-43.3-96.5-96.5s43.3-96.5 96.5-96.5 96.5 43.3 96.5 96.5-43.3 96.5-96.5 96.5zm0-189.4c-51.2 0-92.9 41.7-92.9 92.9s41.7 92.9 92.9 92.9 92.9-41.7 92.9-92.9c0-51.3-41.7-92.9-92.9-92.9z"/><path class="st91" d="M1190.8 302.3c-4.9 0-7.3-2-9.7-3.8-2.2-1.8-4.3-3.4-8.6-3.4s-6.4 1.7-8.6 3.4c-2.4 1.9-4.8 3.8-9.7 3.8-4.9 0-7.3-2-9.7-3.8-2.2-1.8-4.3-3.4-8.6-3.4s-6.4 1.7-8.6 3.4c-2.4 1.9-4.8 3.8-9.7 3.8-4.9 0-7.3-2-9.7-3.8-2.2-1.8-4.3-3.4-8.6-3.4s-6.4 1.7-8.6 3.4c-2.4 1.9-4.8 3.8-9.7 3.8-4.9 0-7.3-2-9.7-3.8-2.2-1.8-4.3-3.4-8.6-3.4s-6.4 1.7-8.6 3.4c-2.4 1.9-4.8 3.8-9.7 3.8-4.9 0-7.3-2-9.7-3.8-2.2-1.8-4.3-3.4-8.6-3.4v-1.8c4.9 0 7.3 2 9.7 3.8 2.2 1.8 4.3 3.4 8.6 3.4s6.4-1.7 8.6-3.4c2.4-1.9 4.8-3.8 9.7-3.8 4.9 0 7.3 2 9.7 3.8 2.2 1.8 4.3 3.4 8.6 3.4s6.4-1.7 8.6-3.4c2.4-1.9 4.8-3.8 9.7-3.8 4.9 0 7.3 2 9.7 3.8 2.2 1.8 4.3 3.4 8.6 3.4s6.4-1.7 8.6-3.4c2.4-1.9 4.8-3.8 9.7-3.8 4.9 0 7.3 2 9.7 3.8 2.2 1.8 4.3 3.4 8.6 3.4s6.4-1.7 8.6-3.4c2.4-1.9 4.8-3.8 9.7-3.8 4.9 0 7.3 2 9.7 3.8 2.2 1.8 4.3 3.4 8.6 3.4v1.8z"/><path class="st3" d="M445.3 631.6c-5.4 12.3-2.7 17.1-1.6 30.5 1.1 13.4-7 16.1-10.7 27.3-3.8 11.3-1.1 16.6-2.1 30.5-1.1 13.9-5.4 15-9.1 27.9-3.8 12.9 0 30.5 2.7 54.7 1.7 14.9-2.2 42.6-5.4 61.5h-49.2c3.8-35.7 9.1-93.2 5.9-105.9-4.8-18.8 2.7-49.8 7.5-59.5 4.8-9.6 5.9-21.4 4.8-30-1.1-8.6 3.8-11.8 9.6-18.2s5.9-20.4 8.6-32.2c2.7-11.8 14.5-16.6 16.1-26.8 1.6-10.2 27.1-29.2 34.3-21.2 7.9 8.7-7.2 19.3-8.8 28.9-1.8 9.7 2.8 20.2-2.6 32.5z"/><defs><filter id="Adobe_OpacityMaskFilter_32_" filterUnits="userSpaceOnUse" x="386.7" y="570.2" width="72.1" height="293.8"><feFlood style="flood-color:white;flood-opacity:1" result="back"/><feBlend in="SourceGraphic" in2="back"/></filter></defs><mask maskUnits="userSpaceOnUse" x="386.7" y="570.2" width="72.1" height="293.8" id="SVGID_49_"><g style="filter:url(#Adobe_OpacityMaskFilter_32_)"><defs><filter id="Adobe_OpacityMaskFilter_33_" filterUnits="userSpaceOnUse" x="386.7" y="570.2" width="72.1" height="293.8"><feFlood style="flood-color:white;flood-opacity:1" result="back"/><feBlend in="SourceGraphic" in2="back"/></filter></defs><linearGradient id="SVGID_50_" gradientUnits="userSpaceOnUse" x1="5426.422" y1="704.37" x2="5551.686" y2="746.799" gradientTransform="matrix(-1 0 0 1 5901.845 0)"><stop offset="0" style="stop-color:#fff"/><stop offset="1" style="stop-color:#000"/></linearGradient><path d="M445.3 631.6c-5.4 12.3-2.7 17.1-1.6 30.5 1.1 13.4-7 16.1-10.7 27.3-3.8 11.3-1.1 16.6-2.1 30.5-1.1 13.9-5.4 15-9.1 27.9-3.8 12.9 0 30.5 2.7 54.7 1.7 14.9-2.2 42.6-5.4 61.5h-31.4c2.1-20.4 3.8-42.7 3-53.8-1.6-23.7-7.2-35.4-1.2-51 6-15.7 16.1-14.5 13.3-35.8-2.8-21.3-2.4-35.4 12.1-50.6 14.5-15.3 4.8-30.5 5.6-43 .8-12.5 11.7-15.3 13.7-27.7 2-12.5 2.4-15.7 22.5-31.8 7.9 8.7-7.2 19.3-8.8 28.9-1.8 9.6 2.8 20.1-2.6 32.4z" style="mask:url(#SVGID_49_);fill:url(#SVGID_50_)"/></g></mask><linearGradient id="SVGID_51_" gradientUnits="userSpaceOnUse" x1="5426.422" y1="704.37" x2="5551.686" y2="746.799" gradientTransform="matrix(-1 0 0 1 5901.845 0)"><stop offset="0" style="stop-color:#3b5b4f"/><stop offset="1" style="stop-color:#fff"/></linearGradient><path d="M445.3 631.6c-5.4 12.3-2.7 17.1-1.6 30.5 1.1 13.4-7 16.1-10.7 27.3-3.8 11.3-1.1 16.6-2.1 30.5-1.1 13.9-5.4 15-9.1 27.9-3.8 12.9 0 30.5 2.7 54.7 1.7 14.9-2.2 42.6-5.4 61.5h-31.4c2.1-20.4 3.8-42.7 3-53.8-1.6-23.7-7.2-35.4-1.2-51 6-15.7 16.1-14.5 13.3-35.8-2.8-21.3-2.4-35.4 12.1-50.6 14.5-15.3 4.8-30.5 5.6-43 .8-12.5 11.7-15.3 13.7-27.7 2-12.5 2.4-15.7 22.5-31.8 7.9 8.7-7.2 19.3-8.8 28.9-1.8 9.6 2.8 20.1-2.6 32.4z" style="opacity:.26;fill:url(#SVGID_51_)"/><path class="st8" d="M352.5 864c-15.3-35.4-25.8-94.5-24.5-110.5 1.6-20.1-10.9-55.1-16.9-71.5-6-16.5-2.8-30.9-2.8-41.4 0-10.4-11.3-16.9-16.1-29.7-4.8-12.9 4.4-21.7 4.4-33s-3.2-35.8 0-35.8c0 0 13.3 9.6 20.9 20.9 7.6 11.3 5.6 28.9 14.9 36.2 9.2 7.2 14.5 13.7 16.5 28.9 2 15.3 6.4 15.7 14.1 33 7.6 17.3-2.8 31.3 1.2 50.2 4 18.9 12.9 17.3 27.3 50.2 10.3 23.4 7.2 74.6 4.5 102.5h-43.5z"/><defs><filter id="Adobe_OpacityMaskFilter_34_" filterUnits="userSpaceOnUse" x="290.8" y="542.1" width="90.5" height="321.9"><feFlood style="flood-color:white;flood-opacity:1" result="back"/><feBlend in="SourceGraphic" in2="back"/></filter></defs><mask maskUnits="userSpaceOnUse" x="290.8" y="542.1" width="90.5" height="321.9" id="SVGID_52_"><g style="filter:url(#Adobe_OpacityMaskFilter_34_)"><defs><filter id="Adobe_OpacityMaskFilter_35_" filterUnits="userSpaceOnUse" x="290.8" y="542.1" width="90.5" height="321.9"><feFlood style="flood-color:white;flood-opacity:1" result="back"/><feBlend in="SourceGraphic" in2="back"/></filter></defs><linearGradient id="SVGID_53_" gradientUnits="userSpaceOnUse" x1="5556.406" y1="700.848" x2="5599.56" y2="715.465" gradientTransform="matrix(-1 0 0 1 5901.845 0)"><stop offset="0" style="stop-color:#fff"/><stop offset="1" style="stop-color:#000"/></linearGradient><path d="M352.5 864c-15.3-35.4-25.8-94.5-24.5-110.5 1.6-20.1-10.9-55.1-16.9-71.5-6-16.5-2.8-30.9-2.8-41.4 0-10.4-11.3-16.9-16.1-29.7-4.8-12.9 4.4-21.7 4.4-33s-3.2-35.8 0-35.8c3.6 20.1 15.3 21.3 15.7 36.6.4 15.3-7.6 22.5 6 34.6 13.7 12.1 10.4 16.1 14.1 39 3.6 22.9 21.1 25.9 17.8 47.4-3.7 24.9-.4 48.3 11.8 65.5 14.9 20.9 9.6 56.8 17.5 81.1-.2 7.2.5 13.1 1.8 17.9h-28.8z" style="mask:url(#SVGID_52_);fill:url(#SVGID_53_)"/></g></mask><linearGradient id="SVGID_54_" gradientUnits="userSpaceOnUse" x1="5556.406" y1="700.848" x2="5599.56" y2="715.465" gradientTransform="matrix(-1 0 0 1 5901.845 0)"><stop offset="0" style="stop-color:#3b5b4f"/><stop offset="1" style="stop-color:#fff"/></linearGradient><path d="M352.5 864c-15.3-35.4-25.8-94.5-24.5-110.5 1.6-20.1-10.9-55.1-16.9-71.5-6-16.5-2.8-30.9-2.8-41.4 0-10.4-11.3-16.9-16.1-29.7-4.8-12.9 4.4-21.7 4.4-33s-3.2-35.8 0-35.8c3.6 20.1 15.3 21.3 15.7 36.6.4 15.3-7.6 22.5 6 34.6 13.7 12.1 10.4 16.1 14.1 39 3.6 22.9 21.1 25.9 17.8 47.4-3.7 24.9-.4 48.3 11.8 65.5 14.9 20.9 9.6 56.8 17.5 81.1-.2 7.2.5 13.1 1.8 17.9h-28.8z" style="opacity:.26;fill:url(#SVGID_54_)"/><path class="st13" d="M185.3 566.6c6.4-.8 20.9 11.7 27.3 19.7 6.4 8 23.7 9.2 30.9 21.7 7.2 12.5 2 23.3 20.9 33.4 18.9 10 29.9 22 44.6 45 11.3 17.7 25.3 51.4 27.3 71.1 2 19.7 12.9 39 26.1 59.1 7.3 11.1 10.1 31.4 11.1 47.4H342c-8-10.6-21.3-22.2-24.2-32.1-4-13.7-1.6-35.8-10.4-49-8.8-13.3-34.2-34.2-35-48.2-.8-14.1-16.5-30.1-28.9-37.8-12.5-7.6-13.7-31.3-20.9-42.6-7.2-11.3-22.9-16.1-23.7-28.9-.8-12.9-2.8-22.9-10-29.7-7.2-7-10-28.3-3.6-29.1z"/><defs><filter id="Adobe_OpacityMaskFilter_36_" filterUnits="userSpaceOnUse" x="181.7" y="566.6" width="160.9" height="297.4"><feFlood style="flood-color:white;flood-opacity:1" result="back"/><feBlend in="SourceGraphic" in2="back"/></filter></defs><mask maskUnits="userSpaceOnUse" x="181.7" y="566.6" width="160.9" height="297.4" id="SVGID_55_"><g style="filter:url(#Adobe_OpacityMaskFilter_36_)"><defs><filter id="Adobe_OpacityMaskFilter_37_" filterUnits="userSpaceOnUse" x="181.7" y="566.6" width="160.9" height="297.4"><feFlood style="flood-color:white;flood-opacity:1" result="back"/><feBlend in="SourceGraphic" in2="back"/></filter></defs><linearGradient id="SVGID_56_" gradientUnits="userSpaceOnUse" x1="5619.293" y1="709.01" x2="5669.896" y2="726.149" gradientTransform="matrix(-1 0 0 1 5901.845 0)"><stop offset="0" style="stop-color:#fff"/><stop offset="1" style="stop-color:#000"/></linearGradient><path d="m183.6 567.5 1.7-.9c7.2 17.7 19.3 22.5 24.5 35.4 5.2 12.9 16.5 11.3 24.5 30.5 8 19.3 34.6 27.7 45.8 54.3 11.3 26.5 26.1 46.6 37.4 102.1 5.1 25.1 15.4 52.6 25.1 75.1h-.5c-8-10.6-21.3-22.2-24.2-32.1-4-13.7-1.6-35.8-10.4-49-8.8-13.3-34.2-34.2-35-48.2-.8-14.1-16.5-30.1-28.9-37.8-12.5-7.6-13.7-31.3-20.9-42.6-7.2-11.3-22.9-16.1-23.7-28.9-.8-12.9-2.8-22.9-10-29.7-6.6-6.3-9.5-23.9-5.4-28.2z" style="mask:url(#SVGID_55_);fill:url(#SVGID_56_)"/></g></mask><linearGradient id="SVGID_57_" gradientUnits="userSpaceOnUse" x1="5619.293" y1="709.01" x2="5669.896" y2="726.149" gradientTransform="matrix(-1 0 0 1 5901.845 0)"><stop offset="0" style="stop-color:#3b5b4f"/><stop offset="1" style="stop-color:#fff"/></linearGradient><path d="m183.6 567.5 1.7-.9c7.2 17.7 19.3 22.5 24.5 35.4 5.2 12.9 16.5 11.3 24.5 30.5 8 19.3 34.6 27.7 45.8 54.3 11.3 26.5 26.1 46.6 37.4 102.1 5.1 25.1 15.4 52.6 25.1 75.1h-.5c-8-10.6-21.3-22.2-24.2-32.1-4-13.7-1.6-35.8-10.4-49-8.8-13.3-34.2-34.2-35-48.2-.8-14.1-16.5-30.1-28.9-37.8-12.5-7.6-13.7-31.3-20.9-42.6-7.2-11.3-22.9-16.1-23.7-28.9-.8-12.9-2.8-22.9-10-29.7-6.6-6.3-9.5-23.9-5.4-28.2z" style="opacity:.26;fill:url(#SVGID_57_)"/><path class="st3" d="M322.2 864c-6.8-14.5-11.5-31.2-11.5-41.4 0-16.9-1.2-39.4-7.2-47.8-6-8.4-8-18.5-6.4-25.7 1.6-7.2-1.6-17.3-3.6-26.5s.4-15.3.4-15.3c2.8 6 5.2 6.4 10.9 14.1 5.6 7.6 3.2 11.3 11.3 23.3 8 12.1 15.3 24.5 18.1 39.4 2.8 14.9 14.1 30.5 23.7 44.6 6.8 9.9 11.1 22.2 13.7 35.3h-49.4z"/><defs><filter id="Adobe_OpacityMaskFilter_38_" filterUnits="userSpaceOnUse" x="292.6" y="707.3" width="60.2" height="156.7"><feFlood style="flood-color:white;flood-opacity:1" result="back"/><feBlend in="SourceGraphic" in2="back"/></filter></defs><mask maskUnits="userSpaceOnUse" x="292.6" y="707.3" width="60.2" height="156.7" id="SVGID_58_"><g style="filter:url(#Adobe_OpacityMaskFilter_38_)"><defs><filter id="Adobe_OpacityMaskFilter_39_" filterUnits="userSpaceOnUse" x="292.6" y="707.3" width="60.2" height="156.7"><feFlood style="flood-color:white;flood-opacity:1" result="back"/><feBlend in="SourceGraphic" in2="back"/></filter></defs><linearGradient id="SVGID_59_" gradientUnits="userSpaceOnUse" x1="5578.874" y1="785.76" x2="5603.792" y2="794.2" gradientTransform="matrix(-1 0 0 1 5901.845 0)"><stop offset="0" style="stop-color:#fff"/><stop offset="1" style="stop-color:#000"/></linearGradient><path d="M322.2 864c-6.8-14.5-11.5-31.2-11.5-41.4 0-16.9-1.2-39.4-7.2-47.8-6-8.4-8-18.5-6.4-25.7 1.6-7.2-1.6-17.3-3.6-26.5s.4-15.3.4-15.3c2.3 20 9.8 18.1 11.1 29.9 1.3 11.8 1.3 19.8 7.2 27.9 5.9 8 5.4 18.5 13.4 37.8 8 19.3 22.8 37.2 25.5 50.4.5 2.6 1.2 6.4 1.8 10.8h-30.7z" style="mask:url(#SVGID_58_);fill:url(#SVGID_59_)"/></g></mask><linearGradient id="SVGID_60_" gradientUnits="userSpaceOnUse" x1="5578.874" y1="785.76" x2="5603.792" y2="794.2" gradientTransform="matrix(-1 0 0 1 5901.845 0)"><stop offset="0" style="stop-color:#bebebe"/><stop offset="1" style="stop-color:#fff"/></linearGradient><path d="M322.2 864c-6.8-14.5-11.5-31.2-11.5-41.4 0-16.9-1.2-39.4-7.2-47.8-6-8.4-8-18.5-6.4-25.7 1.6-7.2-1.6-17.3-3.6-26.5s.4-15.3.4-15.3c2.3 20 9.8 18.1 11.1 29.9 1.3 11.8 1.3 19.8 7.2 27.9 5.9 8 5.4 18.5 13.4 37.8 8 19.3 22.8 37.2 25.5 50.4.5 2.6 1.2 6.4 1.8 10.8h-30.7z" style="opacity:.14;fill:url(#SVGID_60_)"/><path class="st8" d="M237.1 719.3c3.2 7.2 13.7 12.1 29.3 18.9 15.7 6.8 23.3 11.5 37.4 33.8 7.6 12.1 16.9 31.3 23.3 59.1 2.9 12.7 6.7 24.2 10 32.9h-30.5v-2.4c0-19.3-26.9-41-33.4-57.9-6.4-16.9-18.1-35-26.9-42.2-8.8-7.2-20.5-26.5-21.7-37.8-1.2-11.3-6-19.7-6-19.7 6.5 2.1 15.3 8.1 18.5 15.3z"/><defs><filter id="Adobe_OpacityMaskFilter_40_" filterUnits="userSpaceOnUse" x="218.7" y="704.1" width="103.2" height="159.9"><feFlood style="flood-color:white;flood-opacity:1" result="back"/><feBlend in="SourceGraphic" in2="back"/></filter></defs><mask maskUnits="userSpaceOnUse" x="218.7" y="704.1" width="103.2" height="159.9" id="SVGID_61_"><g style="filter:url(#Adobe_OpacityMaskFilter_40_)"><defs><filter id="Adobe_OpacityMaskFilter_41_" filterUnits="userSpaceOnUse" x="218.7" y="704.1" width="103.2" height="159.9"><feFlood style="flood-color:white;flood-opacity:1" result="back"/><feBlend in="SourceGraphic" in2="back"/></filter></defs><linearGradient id="SVGID_62_" gradientUnits="userSpaceOnUse" x1="5614.237" y1="778.163" x2="5654.139" y2="791.679" gradientTransform="matrix(-1 0 0 1 5901.845 0)"><stop offset="0" style="stop-color:#fff"/><stop offset="1" style="stop-color:#000"/></linearGradient><path d="M237.1 736.2c6.4 12.1 16.9 6.4 35.4 23.3s9.6 18.5 26.1 43.8c16.5 25.3 19.3 35.4 22.1 54.7.3 1.8.7 3.8 1.2 6h-15.2v-2.4c0-19.3-26.9-41-33.4-57.9-6.4-16.9-18.1-35-26.9-42.2-8.8-7.2-20.5-26.5-21.7-37.8-1.2-11.3-6-19.7-6-19.7 13.2 15.3 12 20.2 18.4 32.2z" style="mask:url(#SVGID_61_);fill:url(#SVGID_62_)"/></g></mask><linearGradient id="SVGID_63_" gradientUnits="userSpaceOnUse" x1="5614.237" y1="778.163" x2="5654.139" y2="791.679" gradientTransform="matrix(-1 0 0 1 5901.845 0)"><stop offset="0" style="stop-color:#3b5b4f"/><stop offset="1" style="stop-color:#fff"/></linearGradient><path d="M237.1 736.2c6.4 12.1 16.9 6.4 35.4 23.3s9.6 18.5 26.1 43.8c16.5 25.3 19.3 35.4 22.1 54.7.3 1.8.7 3.8 1.2 6h-15.2v-2.4c0-19.3-26.9-41-33.4-57.9-6.4-16.9-18.1-35-26.9-42.2-8.8-7.2-20.5-26.5-21.7-37.8-1.2-11.3-6-19.7-6-19.7 13.2 15.3 12 20.2 18.4 32.2z" style="opacity:.26;fill:url(#SVGID_63_)"/><path class="st112" d="M1110.6 860.3h-27.8l-12.6-386.1h27.7zM334.2 860.3H362l12.7-386.1h-27.8z"/><path class="blue_x0020_shade_x0020_29" d="M346.2 497.2h27.7l.8-23h-27.8zM1097.9 474.2h-27.7l.7 23h27.8z"/><path class="st112" d="M219.8 452.6h1010.5v29.6H219.8z"/><circle class="st1" cx="123.8" cy="648.8" r="31.6"/><path class="st113" d="M685.8 158.3c-13.9 0-25.1-7.2-25.1-23.1 0-15.4 11.2-23.1 25.1-23.1v46.2zM763.1 121.9c13.7 1.9 23.9 10.5 21.7 26.3-2.1 15.3-14.3 21.4-28 19.5l6.3-45.8z"/><path class="st114" d="m690.6 167.8-9.1 66.5 70.8 2.7v-71.9zM938.1 451.9l-12.2 1.8s-387.1 4.3-402.2.7c-12.6-3-20.5-27.8-6.8-67.4 20.7 19.9 50.8 20.4 50.8 20.4l261.8 4.8s43.4 7.1 71.1-20.3c0 .1.1.3.1.4 6.6 21.7 7.9 27.1 7.9 27.1s15.1 0 22.3 9c7.2 9 7.2 23.5 7.2 23.5z"/><path d="M900.5 391.8c-27.7 27.3-71.1 20.3-71.1 20.3l-261.8-4.8s-30.1-.5-50.8-20.4c2.8-7.9 6.4-16.4 11-25.5 27.8-54.3 49.5-80.2 84.5-104.4 35-24.1 64.5-27.9 102.5-29.6 57.3-2.4 108 25.3 133.9 61.5 25.9 36.1 45.1 81.1 51.8 102.9z" style="fill:#6e14ef"/><path class="st116" d="M700.4 79.4c6-6.1 15.4-8.1 21.8-8.7 3.7-.3 7-2.4 8.7-5.7 1.6-3 4.9-5.8 12-3.4 0 0 3-14.2 21.4-8.4 0 0 10.6-8.7 19-1.5 4.6 3.9 4.6 10.1 3.7 15-.7 3.8.2 7.8 2.6 10.8 1.7 2.1 2.9 5.4 2.1 10.4-.9 5.6-3.5 8.7-5.8 10.5-2.9 2.2-4.8 5.4-5.8 8.8-1.2 4.2-3.3 9.4-7.1 13.2-7.2 7.2-7.5 18.4-10.3 30.8-2.1 9.5-8.7 30.1-24.7 37.9-4.9 2.4-10.7 2.4-17.5 2-9-.6-15.7-1-21-4.4-11.6-7.6-15.4-22.9-16.4-38.1-1.4-22.1-1.7-49.9 17.3-69.2z"/><path class="st73" d="M611.9 812.5c24.4 0 45.7 31.2 44.8 48.9h-90.9s-1.4-18.1 3.2-24c4.4-5.9 5.3-24.9 42.9-24.9z"/><path class="st71" d="M573.9 634.7c17.8 6.6 85.4 13 85.7 3.9.3-9-32-20.2-47.7-20.5-15.7-.3-38 16.6-38 16.6z"/><path class="st114" d="M582.9 614.8c-8.4 39.2-5.4 115.4-3.6 146.1 1.2 20.1-2.6 53-5.3 73.3-1.3 9.9 5.6 18.9 15.5 20.1l38.7 4.8s0-56.1 5.4-115.8c5.4-59.7 21.7-127.3 19.3-151.4-2.4-24.2-70 22.9-70 22.9z"/><path class="st112" d="M573.9 634.7s19.6-11.2 44.3-8.7c24.7 2.4 41.3 12.7 41.3 12.7 2.8-11.1 7.8-42.3 5.4-54l-86.4-11.2c-2.1 10.8-7.3 50.8-4.6 61.2z"/><path class="st73" d="M572.2 844.6c5.7 6.9 18.4 6.6 31.4 6.6s22.3.3 26.2-5.7l.6 15.8h-60.3l2.1-16.7z"/><path class="st117" d="M578.5 573.5c-2.1 10.8-7.3 50.9-4.7 61.2 1.6.6 3.5 1.2 5.8 1.7-2.6 24.7-2.7 55.4-2.1 81.6 29.9-9.1 45.6-1.3 57.9 7.4 3.4-28.7 8.7-58 12.5-82.6 6.9-.6 11.4-1.9 11.5-4.2 2.8-11.1 7.8-42.3 5.4-54l-86.3-11.1z"/><path class="st73" d="M785.7 812.5c-24.4 0-45.7 31.2-44.8 48.9h90.9s1.4-18.1-3.2-24c-4.4-5.9-5.3-24.9-42.9-24.9z"/><path class="st71" d="M823.7 634.7c-17.8 6.6-85.4 13-85.7 3.9-.3-9 32-20.2 47.7-20.5 15.7-.3 38 16.6 38 16.6z"/><path class="st114" d="M814.7 614.8c8.4 39.2 5.4 115.4 3.6 146.1-1.2 20.1 2.6 53 5.3 73.3 1.3 9.9-5.6 18.9-15.5 20.1l-38.7 4.8s0-56.1-5.4-115.8c-5.4-59.7-21.7-127.3-19.3-151.4 2.4-24.2 70 22.9 70 22.9z"/><path class="st112" d="M823.7 634.7s-19.6-11.2-44.3-8.7c-24.7 2.4-41.3 12.7-41.3 12.7-2.8-11.1-7.8-42.3-5.4-54h90.5c2 10.8 3.2 39.6.5 50z"/><path class="st73" d="M825.4 844.6c-5.7 6.9-18.4 6.6-31.4 6.6s-22.3.3-26.2-5.7l-.6 15.8h60.3l-2.1-16.7z"/><path class="st117" d="M823.1 584.6c2.1 10.8 3.3 39.7.6 50.1-1.6.6-3.5 1.2-5.8 1.7 2.6 24.7 2.7 55.4 2.1 81.6-15.3-7.3-43-9.7-57.9 7.4-3.4-28.7-8.7-58-12.5-82.6-6.9-.6-11.4-1.9-11.5-4.2-2.8-11.1-7.8-42.3-5.4-54h90.4z"/><path class="st118" d="M715.7 210.1c36.8-6.3 64 3.2 78.2 16.2 14.2 13 29.3 40.4 18.1 63.3s-29.3 17.5-38 17.2-110.4-10-112.8-22.3c-2.4-12.4-1.4-30.1 7.2-44.8 8.6-14.7 31.3-26.9 47.3-29.6z"/><defs><filter id="Adobe_OpacityMaskFilter_42_" filterUnits="userSpaceOnUse" x="660.1" y="208.1" width="155.8" height="99.5"><feFlood style="flood-color:white;flood-opacity:1" result="back"/><feBlend in="SourceGraphic" in2="back"/></filter></defs><mask maskUnits="userSpaceOnUse" x="660.1" y="208.1" width="155.8" height="99.5" id="SVGID_64_"><g style="filter:url(#Adobe_OpacityMaskFilter_42_)"><defs><filter id="Adobe_OpacityMaskFilter_43_" filterUnits="userSpaceOnUse" x="660.1" y="208.1" width="155.8" height="99.5"><feFlood style="flood-color:white;flood-opacity:1" result="back"/><feBlend in="SourceGraphic" in2="back"/></filter></defs><linearGradient id="SVGID_65_" gradientUnits="userSpaceOnUse" x1="751.304" y1="212.606" x2="738.636" y2="267.801"><stop offset="0" style="stop-color:#fff"/><stop offset=".011" style="stop-color:#f9f9f9"/><stop offset=".129" style="stop-color:silver"/><stop offset=".251" style="stop-color:#8d8d8d"/><stop offset=".373" style="stop-color:#616161"/><stop offset=".495" style="stop-color:#3e3e3e"/><stop offset=".618" style="stop-color:#232323"/><stop offset=".743" style="stop-color:#0f0f0f"/><stop offset=".869" style="stop-color:#040404"/><stop offset="1" style="stop-color:#000"/></linearGradient><path d="M715.7 210.1c36.8-6.3 64 3.2 78.2 16.2 14.2 13 29.3 40.4 18.1 63.3s-29.3 17.5-38 17.2-110.4-10-112.8-22.3c-2.4-12.4-1.4-30.1 7.2-44.8 8.6-14.7 31.3-26.9 47.3-29.6z" style="mask:url(#SVGID_64_);fill:url(#SVGID_65_)"/></g></mask><linearGradient id="SVGID_66_" gradientUnits="userSpaceOnUse" x1="751.304" y1="212.606" x2="738.636" y2="267.801"><stop offset="0" style="stop-color:#fff"/><stop offset=".021" style="stop-color:#fff"/><stop offset="1" style="stop-color:#fff"/></linearGradient><path d="M715.7 210.1c36.8-6.3 64 3.2 78.2 16.2 14.2 13 29.3 40.4 18.1 63.3s-29.3 17.5-38 17.2-110.4-10-112.8-22.3c-2.4-12.4-1.4-30.1 7.2-44.8 8.6-14.7 31.3-26.9 47.3-29.6z" style="fill:url(#SVGID_66_)"/><defs><filter id="Adobe_OpacityMaskFilter_44_" filterUnits="userSpaceOnUse" x="733.4" y="236.7" width="55.8" height="60.3"><feFlood style="flood-color:white;flood-opacity:1" result="back"/><feBlend in="SourceGraphic" in2="back"/></filter></defs><mask maskUnits="userSpaceOnUse" x="733.4" y="236.7" width="55.8" height="60.3" id="SVGID_67_"><g style="filter:url(#Adobe_OpacityMaskFilter_44_)"><defs><filter id="Adobe_OpacityMaskFilter_45_" filterUnits="userSpaceOnUse" x="733.4" y="236.7" width="55.8" height="60.3"><feFlood style="flood-color:white;flood-opacity:1" result="back"/><feBlend in="SourceGraphic" in2="back"/></filter></defs><linearGradient id="SVGID_68_" gradientUnits="userSpaceOnUse" x1="737.178" y1="256.392" x2="773.823" y2="270.191"><stop offset="0" style="stop-color:#fff"/><stop offset=".011" style="stop-color:#f9f9f9"/><stop offset=".129" style="stop-color:silver"/><stop offset=".251" style="stop-color:#8d8d8d"/><stop offset=".373" style="stop-color:#616161"/><stop offset=".495" style="stop-color:#3e3e3e"/><stop offset=".618" style="stop-color:#232323"/><stop offset=".743" style="stop-color:#0f0f0f"/><stop offset=".869" style="stop-color:#040404"/><stop offset="1" style="stop-color:#000"/></linearGradient><path d="M789.2 252.4c-8.1-12-24-20.4-39.1-12.9-15.2 7.5-17.9 19.7-16.3 32.1 1.6 12.4 9.7 18.1 9.7 18.1l42.8 7.2 2.9-44.5z" style="mask:url(#SVGID_67_);fill:url(#SVGID_68_)"/></g></mask><linearGradient id="SVGID_69_" gradientUnits="userSpaceOnUse" x1="737.178" y1="256.392" x2="773.823" y2="270.191"><stop offset="0" style="stop-color:#fff"/><stop offset=".021" style="stop-color:#fff"/><stop offset="1" style="stop-color:#fff"/></linearGradient><path d="M789.2 252.4c-8.1-12-24-20.4-39.1-12.9-15.2 7.5-17.9 19.7-16.3 32.1 1.6 12.4 9.7 18.1 9.7 18.1l42.8 7.2 2.9-44.5z" style="fill:url(#SVGID_69_)"/><defs><filter id="Adobe_OpacityMaskFilter_46_" filterUnits="userSpaceOnUse" x="672" y="229.3" width="57.7" height="52.5"><feFlood style="flood-color:white;flood-opacity:1" result="back"/><feBlend in="SourceGraphic" in2="back"/></filter></defs><mask maskUnits="userSpaceOnUse" x="672" y="229.3" width="57.7" height="52.5" id="SVGID_70_"><g style="filter:url(#Adobe_OpacityMaskFilter_46_)"><defs><filter id="Adobe_OpacityMaskFilter_47_" filterUnits="userSpaceOnUse" x="672" y="229.3" width="57.7" height="52.5"><feFlood style="flood-color:white;flood-opacity:1" result="back"/><feBlend in="SourceGraphic" in2="back"/></filter></defs><linearGradient id="SVGID_71_" gradientUnits="userSpaceOnUse" x1="700.492" y1="243.473" x2="701.16" y2="282.37"><stop offset="0" style="stop-color:#fff"/><stop offset=".011" style="stop-color:#f9f9f9"/><stop offset=".129" style="stop-color:silver"/><stop offset=".251" style="stop-color:#8d8d8d"/><stop offset=".373" style="stop-color:#616161"/><stop offset=".495" style="stop-color:#3e3e3e"/><stop offset=".618" style="stop-color:#232323"/><stop offset=".743" style="stop-color:#0f0f0f"/><stop offset=".869" style="stop-color:#040404"/><stop offset="1" style="stop-color:#000"/></linearGradient><path d="M675.5 248.6c-.2-.6-1.1-14.8 1.8-15.5 2.9-.8 9.7 11.3 9.7 11.3s4.7-3 13.9-3.9c9.2-.9 14.3 1.1 14.3 1.1s3.2-12.1 6.6-12.2 5.7 14.3 5.7 18.7c0 4.4 3.6 16.3 1.5 22.6-2.1 6.3-12.1 11.2-12.1 11.2s-41.8-2.4-43.7-8c-3.6-10.7 2.3-25.3 2.3-25.3z" style="mask:url(#SVGID_70_);fill:url(#SVGID_71_)"/></g></mask><linearGradient id="SVGID_72_" gradientUnits="userSpaceOnUse" x1="700.492" y1="243.473" x2="701.16" y2="282.37"><stop offset="0" style="stop-color:#fff"/><stop offset=".021" style="stop-color:#fff"/><stop offset="1" style="stop-color:#fff"/></linearGradient><path d="M675.5 248.6c-.2-.6-1.1-14.8 1.8-15.5 2.9-.8 9.7 11.3 9.7 11.3s4.7-3 13.9-3.9c9.2-.9 14.3 1.1 14.3 1.1s3.2-12.1 6.6-12.2 5.7 14.3 5.7 18.7c0 4.4 3.6 16.3 1.5 22.6-2.1 6.3-12.1 11.2-12.1 11.2s-41.8-2.4-43.7-8c-3.6-10.7 2.3-25.3 2.3-25.3z" style="fill:url(#SVGID_72_)"/><path class="st118" d="M660.3 270.2c13.7-2.9 34.4-4.2 46.1-1.8 11.7 2.4 22.8 4.7 23.4 11.1.7 6.3-67 7-67 7l-2.5-16.3z"/><path d="M711.8 266.3c-.9 0-2-.1-3.2-.5-.2-.1-.4-.3-.3-.6.1-.2.3-.4.6-.3 5.6 1.5 7.9-1.5 8-1.6.1-.2.4-.2.6-.1.2.1.2.4.1.6-.2.2-1.9 2.5-5.8 2.5zM690 266.1c-1.7 0-3.5-.4-5.2-1.6-.2-.1-.2-.4-.1-.6.1-.2.4-.2.6-.1 2.7 2 6.4 1.5 8.2.7.2-.1.5 0 .6.2.1.2 0 .5-.2.6-.8.4-2.2.8-3.9.8z"/><path class="st131" d="M718.3 242.7s1.8-12.1 3.5-12.2c1.7-.2 4.6 12.7 5 17.1 0 0-2.7-.8-4.8-1.2-2.2-.5-3.7-3.7-3.7-3.7zM677.3 234.1c1.8-.6 7.3 11.5 7.3 11.5s-2.1.3-3.6 2.2c-1.5 1.9-3.8 1.7-4.7 1.5 0 0-.6-3.7-.5-7.9.1-4.3.6-7 1.5-7.3z"/><defs><filter id="Adobe_OpacityMaskFilter_48_" filterUnits="userSpaceOnUse" x="660.3" y="267.1" width="69.5" height="19.3"><feFlood style="flood-color:white;flood-opacity:1" result="back"/><feBlend in="SourceGraphic" in2="back"/></filter></defs><mask maskUnits="userSpaceOnUse" x="660.3" y="267.1" width="69.5" height="19.3" id="SVGID_73_"><g style="filter:url(#Adobe_OpacityMaskFilter_48_)"><defs><filter id="Adobe_OpacityMaskFilter_49_" filterUnits="userSpaceOnUse" x="660.3" y="267.1" width="69.5" height="19.3"><feFlood style="flood-color:white;flood-opacity:1" result="back"/><feBlend in="SourceGraphic" in2="back"/></filter></defs><linearGradient id="SVGID_74_" gradientUnits="userSpaceOnUse" x1="696.43" y1="269.244" x2="693.06" y2="283.077"><stop offset="0" style="stop-color:#fff"/><stop offset=".011" style="stop-color:#f9f9f9"/><stop offset=".129" style="stop-color:silver"/><stop offset=".251" style="stop-color:#8d8d8d"/><stop offset=".373" style="stop-color:#616161"/><stop offset=".495" style="stop-color:#3e3e3e"/><stop offset=".618" style="stop-color:#232323"/><stop offset=".743" style="stop-color:#0f0f0f"/><stop offset=".869" style="stop-color:#040404"/><stop offset="1" style="stop-color:#000"/></linearGradient><path d="M660.3 270.2c13.7-2.9 34.4-4.2 46.1-1.8 11.7 2.4 22.8 4.7 23.4 11.1.7 6.3-67 7-67 7l-2.5-16.3z" style="mask:url(#SVGID_73_);fill:url(#SVGID_74_)"/></g></mask><linearGradient id="SVGID_75_" gradientUnits="userSpaceOnUse" x1="696.43" y1="269.244" x2="693.06" y2="283.077"><stop offset="0" style="stop-color:#fff"/><stop offset=".021" style="stop-color:#fff"/><stop offset="1" style="stop-color:#fff"/></linearGradient><path d="M660.3 270.2c13.7-2.9 34.4-4.2 46.1-1.8 11.7 2.4 22.8 4.7 23.4 11.1.7 6.3-67 7-67 7l-2.5-16.3z" style="fill:url(#SVGID_75_)"/><path d="M720.9 822.3c0-21.1-2.4-129.1 0-150.2 2.4-21.1 9-42.8 41-64.5l-51.9 4.2-51.9-4.2c32 21.7 38.6 43.4 41 64.5 2.4 21.1 0 129.1 0 150.2 0 21.1-62.1 33.8-62.1 33.8v5.4h146v-5.4s-62.1-12.7-62.1-33.8z" style="fill:#a36141"/><path d="M658.2 607.6c32 21.7 38.6 43.4 41 64.5.9 8 1.1 28.7 1.1 52.4 2.1.1 4.3.1 6.5.1 4.4 0 8.8-.1 13.1-.4-.1-23.5.1-44.1 1.1-52.1 2.4-21.1 9-42.8 41-64.5l-51.9 4.2-51.9-4.2z" style="opacity:.48;fill:#134c83"/><path d="M925.8 453.7c0 62.7-81.9 165.6-219.9 165.6C569 619.3 486 517 486 453.7l14.3-1.4c18.8-1.8 33.8-16.5 35.8-35.2 8.6-79.3 81.9-140.7 169.8-140.7 88.2 0 161.2 61.6 169.7 140.7 2 18.7 17 33.5 35.8 35.2l14.4 1.4z" style="fill:#620fd8"/><path d="M500.4 457.8c18.8-1.8 33.8-16.5 35.8-35.2 8.6-79.3 81.9-140.7 169.8-140.7 88.2 0 161.2 61.6 169.7 140.7 2 18.7 17 33.5 35.8 35.2l14.1 1.3c.1-1.8.2-3.6.2-5.4l-14.3-1.4c-18.8-1.8-33.8-16.5-35.8-35.2-8.6-79.1-81.6-140.7-169.7-140.7-87.9 0-161.2 61.4-169.8 140.7-2 18.7-17 33.4-35.8 35.2l-14.3 1.4c0 1.8.1 3.6.2 5.4l14.1-1.3z" style="opacity:.51;fill:#fff"/><path class="blue_x0020_shade_x0020_29" d="M739 552.4c-104.8-2.9-181-65.1-203-133.8-2.6 18-17.3 32-35.6 33.8l-14.3 1.4c0 63.3 83 165.6 219.9 165.6 124.8 0 203.8-84.3 217.7-146.8-33.4 56.3-118.6 81.6-184.7 79.8z"/><path class="st83" d="M784 290.5c-9.8 14-27.7 20-40.4 32.4-14.4 13.9-16.2 27.2-14.8 39.1 1.5 11.9 12.8 31.5 22.8 24.1 10-7.4-4.6-16.8-4.3-29.5.2-12.8 7.1-20.3 17.2-25.8 10-5.6 35-21.9 40.4-30.3 5.3-8.6-20.9-10-20.9-10z" style="opacity:.17"/><path class="st118" d="M783.9 288.7c-11.5 12.7-29.9 16.5-44 27.1-16 12.1-19.5 25-19.5 36.9 0 12 8.8 32.8 19.7 26.7 10.9-6.1-2.5-17.2-.7-29.9s9.6-19.2 20.2-23.5c10.6-4.3 37.5-17.4 43.8-25.1s-19.5-12.2-19.5-12.2z"/><defs><filter id="Adobe_OpacityMaskFilter_50_" filterUnits="userSpaceOnUse" x="720.5" y="288.7" width="84" height="91.9"><feFlood style="flood-color:white;flood-opacity:1" result="back"/><feBlend in="SourceGraphic" in2="back"/></filter></defs><mask maskUnits="userSpaceOnUse" x="720.5" y="288.7" width="84" height="91.9" id="SVGID_76_"><g style="filter:url(#Adobe_OpacityMaskFilter_50_)"><defs><filter id="Adobe_OpacityMaskFilter_51_" filterUnits="userSpaceOnUse" x="720.5" y="288.7" width="84" height="91.9"><feFlood style="flood-color:white;flood-opacity:1" result="back"/><feBlend in="SourceGraphic" in2="back"/></filter></defs><linearGradient id="SVGID_77_" gradientUnits="userSpaceOnUse" x1="731.918" y1="367.897" x2="770.826" y2="306.368"><stop offset="0" style="stop-color:#fff"/><stop offset=".011" style="stop-color:#f9f9f9"/><stop offset=".129" style="stop-color:silver"/><stop offset=".251" style="stop-color:#8d8d8d"/><stop offset=".373" style="stop-color:#616161"/><stop offset=".495" style="stop-color:#3e3e3e"/><stop offset=".618" style="stop-color:#232323"/><stop offset=".743" style="stop-color:#0f0f0f"/><stop offset=".869" style="stop-color:#040404"/><stop offset="1" style="stop-color:#000"/></linearGradient><path d="M783.9 288.7c-11.5 12.7-29.9 16.5-44 27.1-16 12.1-19.5 25-19.5 36.9 0 12 8.8 32.8 19.7 26.7 10.9-6.1-2.5-17.2-.7-29.9s9.6-19.2 20.2-23.5c10.6-4.3 37.5-17.4 43.8-25.1s-19.5-12.2-19.5-12.2z" style="mask:url(#SVGID_76_);fill:url(#SVGID_77_)"/></g></mask><linearGradient id="SVGID_78_" gradientUnits="userSpaceOnUse" x1="731.918" y1="367.897" x2="770.826" y2="306.368"><stop offset="0" style="stop-color:#fff"/><stop offset=".021" style="stop-color:#fff"/><stop offset="1" style="stop-color:#fff"/></linearGradient><path d="M783.9 288.7c-11.5 12.7-29.9 16.5-44 27.1-16 12.1-19.5 25-19.5 36.9 0 12 8.8 32.8 19.7 26.7 10.9-6.1-2.5-17.2-.7-29.9s9.6-19.2 20.2-23.5c10.6-4.3 37.5-17.4 43.8-25.1s-19.5-12.2-19.5-12.2z" style="fill:url(#SVGID_78_)"/><path class="st145" d="M442.1 861h-10.9l2.2-90h16zM327.8 772.5l-15.6-3.6-11.4 89.8 10.5 2.5z"/><path class="st146" d="M432.5 806.4h1.2c4.4 0 8.7-.5 12.8-1.2l2.8-34.2h-16l-.8 35.4zM327.8 772.5l-15.6-3.6-3.3 25.5c3.9 3.7 8.2 7.1 12.9 9.9l6-31.8z"/><path class="st145" d="M427.9 796h-68.7c-33.2 0-60.4-27.2-60.4-60.4s27.2-60.4 60.4-60.4h68.7c33.2 0 60.4 27.2 60.4 60.4 0 33.3-27.2 60.4-60.4 60.4z"/><path class="st145" d="M461.3 861h-10.8l4-90h16zM354.2 861h-10.9l-7.3-90h16z"/><path class="st79" d="m487.2 624.2 2.4.9c1.1.4 2.1-.6 1.8-1.7l-1.9-6.2 5.8 2.7c1 .5 2.1-.5 1.9-1.6l-1.8-7.1 6.4 1.5c1 .2 1.9-.8 1.6-1.8l-1.8-5.2 6.2 1c.9.2 1.8-.7 1.5-1.6l-1.3-5.7 5 1.6c1 .3 1.9-.6 1.7-1.6l-1.1-4.9 3.7 1.4c1.1.4 2.1-.6 1.7-1.7l-1.3-3.6-21 16.6-10.5 11.5 1 5.5zM491.4 634.1l-.3-6.2c-.1-1.1 1.2-1.9 2.1-1.2l5.4 3.6-.9-6.4c-.2-1.1 1-1.9 2-1.4l6.3 3.7.4-6.5c.1-1.1 1.3-1.6 2.1-1l4.4 3.2.8-6.3c.1-1 1.2-1.5 2-1l5.1 2.9-.1-5.2c0-1 1.1-1.7 2-1.2l4.4 2.4-.3-3.9c-.1-1.2 1.2-1.9 2.2-1.2l3.1 2.3-21.9 15.4-14 6.8-4.8 1.2z"/><path class="st145" d="M312.6 712.8c-6.3-3.4-11.5-8.1-15.4-13.3-3.9-5.2-6.7-10.7-8.9-16.4-2.2-5.6-3.7-11.4-4.7-17.1-1-5.8-1.5-11.5-1.4-17.4l5.8-.4c.9 5.2 2.5 10.4 4.4 15.3 1.9 4.9 4.3 9.7 7 14 2.7 4.3 5.9 8.2 9.4 11.3 3.5 3.1 7.4 5.3 11.2 6.3l-7.4 17.7zM456.4 621.9l-7.8-33.6 18 28.6z"/><path class="st145" d="m414.7 680.6 36.9-59.2 63.5-39.8 1.3 1.6c2.2 2.6 2 6.4-.3 8.9L487 622.4c-2.6 2.7-2.5 7 .3 9.6 2.2 2 5.5 2.3 8 .8l39.5-24.4.3 2.2c.5 3.7-.7 7.4-3.2 10.1l-25 26.7c-5.6 6-9.5 13.4-11.2 21.5l-11.6 53.8-69.4-42.1z"/><path class="st145" d="m450.9 627-15.7-30.7 24.4 23.4z"/><path class="st71" d="M311 716.1c0 1-.6 1.8-1.3 1.8-.7 0-1.3-.8-1.3-1.8s.6-1.8 1.3-1.8c.8-.1 1.3.8 1.3 1.8zM467.1 627.2c0 1.1-.9 1.9-1.9 1.9-1.1 0-1.9-.9-1.9-1.9 0-1.1.9-1.9 1.9-1.9 1.1 0 1.9.9 1.9 1.9z"/><path class="st145" d="M491.9 635.2c-2 0-4-.7-5.5-2.1-1.6-1.5-2.6-3.5-2.6-5.7-.1-2.2.7-4.3 2.3-5.9l29.1-30.2c1.8-1.9 2.9-4.7 2.9-4.7.7 1.6 1 4.9-.8 6.7l-29.1 30.2c-1 1-1.5 2.4-1.5 3.8s.6 2.7 1.7 3.7c1.7 1.6 4.3 1.8 6.3.6l40-24.7.5 3.1-39 24.1c-1.4.7-2.9 1.1-4.3 1.1z"/><path class="st71" d="M517.5 581.5c.1 2-1.1 3.7-2.5 3.8-1.5.1-2.8-1.5-2.8-3.5-.1-2 1.1-3.7 2.5-3.8 1.5-.1 2.7 1.5 2.8 3.5z"/><path class="st116" d="m489.1 708.2 1.9-9c.2-.8-.4-1.7-1.2-1.8-20.9-4.2-45-12.6-64-34.4-.7-.8-1.9-.7-2.5.2l-5.1 8.1c-.4.6-.3 1.4.2 1.9 21 22.9 46.6 31.8 68.8 36.3 1 .1 1.8-.5 1.9-1.3z"/><circle class="st147" cx="426.2" cy="672.2" r="1.7"/><circle class="st147" cx="436.3" cy="681.3" r="1.7"/><path class="st147" d="M462.1 695.7c0 .9-.8 1.7-1.7 1.7-.9 0-1.7-.8-1.7-1.7 0-.9.8-1.7 1.7-1.7.9 0 1.7.7 1.7 1.7zM474.5 700.1c0 .9-.8 1.7-1.7 1.7-.9 0-1.7-.8-1.7-1.7 0-.9.8-1.7 1.7-1.7.9 0 1.7.7 1.7 1.7z"/><circle class="st147" cx="485.6" cy="703.1" r="1.7"/><path class="st147" d="M449.7 689.4c0 .9-.8 1.7-1.7 1.7-.9 0-1.7-.8-1.7-1.7 0-.9.8-1.7 1.7-1.7.9 0 1.7.7 1.7 1.7z"/><path class="st148" d="M330.3 783.8c-13.8-9.8-23.8-32.4-30.2-60.4-.8 4-1.3 8.1-1.3 12.3 0 25.6 16.2 47.6 38.8 56.3-.7-2.3-2.8-5-7.3-8.2zM374.7 790.7c-16.9.7-22.2 4.6-22.2 4.6l.6.3c2 .2 4 .3 6.1.3h68.7c8.4 0 16.4-1.8 23.7-4.9l1.4-1.4c-21.6 1.8-61.4.5-78.3 1.1z"/><path class="st91" d="M60.5 860.2h1288v9.5H60.5z"/><path class="st145" d="M1121.9 352.1c.3-3.5-1.2-11.5-11-11s-17.8-3.2-17.8-3.2 0 8.9 6.7 10.9 15.7-.1 16.8 3l5.3.3z"/><path class="st145" d="M1137.3 360.6c0 5.5-5.7 9.9-17.9 9.9s-26.4-9.9-26.4-9.9 14.2-9.9 26.4-9.9 17.9 4.4 17.9 9.9z"/><circle class="st71" cx="1127.8" cy="360.1" r="3.2"/><path class="st145" d="M1094.4 360.6c-1.5-6.7-13-9.2-13-9.2-.6 3 4.2 6 5.2 9.3-1.2 3.4-5.7 5.6-5.2 9.6.1-.1 11.1-3.8 13-9.7z"/></svg>