<svg version="1.1" id="Layer_1" xmlns="http://www.w3.org/2000/svg" xmlns:xlink="http://www.w3.org/1999/xlink" x="0" y="0" viewBox="0 0 1000 208.9" style="enable-background:new 0 0 1000 208.9" xml:space="preserve"><style>.st0{opacity:.1;fill:#d9cafc}.st1{fill:#0a0a11;stroke-linecap:round;stroke-linejoin:round}.st1,.st2,.st3{stroke:#111b49;stroke-miterlimit:10}.st2{fill:none;stroke-linecap:round;stroke-linejoin:round}.st3{opacity:.77;fill:#8221fd}.st3,.st4,.st5{stroke-linecap:round;stroke-linejoin:round}.st4{fill:#8221fd;stroke:#111b49;stroke-miterlimit:10}.st5{fill:#fff}.st5,.st6,.st8,.st9{stroke:#111b49;stroke-miterlimit:10}.st6{fill:#11111c;stroke-linecap:round;stroke-linejoin:round}.st8,.st9{fill:none}.st9{fill:#33b58d;stroke-linecap:round;stroke-linejoin:round}</style><path class="st0" d="M141.6 82.8v124.8h43.3V82.8h-43.3zm38.7 89h-34.2v-5.2h34.2v5.2zm0-8.9h-34.2v-5.2h34.2v5.2zm0-8.9h-34.2v-5.2h34.2v5.2zm0-8.8h-34.2V140h34.2v5.2zm0-8.9h-34.2v-5.2h34.2v5.2zm0-8.9h-34.2v-5.2h34.2v5.2zm0-8.8h-34.2v-5.2h34.2v5.2zm0-8.9h-34.2v-5.2h34.2v5.2zm0-8.9h-34.2v-5.2h34.2v5.2zm0-8.9h-34.2v-5.2h34.2v5.2zM93.3 49.3H57v159.1h53.2V63.5L93.3 49.3zM71.8 191.7h-8.5v-8.5h8.5v8.5zm0-14.8h-8.5v-8.5h8.5v8.5zm0-14.9h-8.5v-8.5h8.5v8.5zm0-14.7h-8.5v-8.5h8.5v8.5zm0-14.9h-8.5v-8.5h8.5v8.5zm0-14.7h-8.5v-8.5h8.5v8.5zm0-14.8h-8.5v-8.5h8.5v8.5zm0-14.9h-8.5v-8.5h8.5V88zm0-14.7h-8.5v-8.5h8.5v8.5zm13.6 118.4h-8.5v-8.5h8.5v8.5zm0-14.8h-8.5v-8.5h8.5v8.5zm0-14.9h-8.5v-8.5h8.5v8.5zm0-14.7h-8.5v-8.5h8.5v8.5zm0-14.9h-8.5v-8.5h8.5v8.5zm0-14.7h-8.5v-8.5h8.5v8.5zm0-14.8h-8.5v-8.5h8.5v8.5zm0-14.9h-8.5v-8.5h8.5V88zm0-14.7h-8.5v-8.5h8.5v8.5zm13.5 118.4h-8.5v-8.5h8.5v8.5zm0-14.8h-8.5v-8.5h8.5v8.5zm0-14.9h-8.5v-8.5h8.5v8.5zm0-14.7h-8.5v-8.5h8.5v8.5zm0-14.9h-8.5v-8.5h8.5v8.5zm0-14.7h-8.5v-8.5h8.5v8.5zm0-14.8h-8.5v-8.5h8.5v8.5zm0-14.9h-8.5v-8.5h8.5V88zm0-14.7h-8.5v-8.5h8.5v8.5z"/><path class="st1" d="M167.4 99.1h49.1v109.3h-49.1zM162.7 93.8h58.2v5.3h-58.2z"/><path class="st2" d="M191.9 91v2.8M195.4 91v2.8M199 91v2.8M202.6 91v2.8M206.1 91v2.8M209.7 91v2.8M213.4 91v2.8"/><path class="st3" d="M172.2 104h10.6v17.2h-10.6zM186.4 104H197v17.2h-10.6z"/><path class="st4" d="M200.4 104H211v17.2h-10.6z"/><path class="st3" d="M172.2 124.8h10.6V142h-10.6z"/><path class="st4" d="M186.4 124.8H197V142h-10.6zM200.4 124.8H211V142h-10.6zM172.2 145.5h10.6v17.2h-10.6zM186.4 145.5H197v17.2h-10.6zM200.4 145.5H211v17.2h-10.6z"/><path class="st5" d="M172.2 166.3h10.6v17.2h-10.6z"/><path class="st4" d="M186.4 166.3H197v17.2h-10.6zM200.4 166.3H211v17.2h-10.6z"/><path class="st0" d="M812.9 103.8V91.6h-5.3v12.1h-5.2v104h40.8v-104c0 .1-30.3.1-30.3.1zm26 98.8H807v-4h31.9v4zm0-6.5H807v-4h31.9v4zm0-6.5H807v-4h31.9v4zm0-6.4H807v-4h31.9v4zm0-6.5H807v-4h31.9v4zm0-6.4H807v-4h31.9v4zm0-6.5H807v-4h31.9v4zm0-6.4H807v-4h31.9v4zm0-6.6H807v-4h31.9v4zm0-6.5H807v-4h31.9v4zm0-6.4H807v-4h31.9v4zm0-6.5H807v-4h31.9v4zm0-6.5H807v-4h31.9v4zm0-6.4H807v-4h31.9v4zM932.7 33.2 885 80.1v127.2l49.3.1-1.6-174.2zM896.9 192h-6.6v-14h6.6v14zm0-19h-6.6v-14h6.6v14zm0-19h-6.6v-14h6.6v14zm0-19h-6.6v-13.9h6.6V135zm0-19h-6.6v-13.9h6.6V116zm0-19h-6.6V83.1h6.6V97zm9.2 95h-6.6v-14h6.6v14zm0-19h-6.6v-14h6.6v14zm0-19h-6.6v-14h6.6v14zm0-19h-6.6v-13.9h6.6V135zm0-19h-6.6v-13.9h6.6V116zm0-19h-6.6V83.1h6.6V97zm9.4 95h-6.6v-14h6.6v14zm0-19h-6.6v-14h6.6v14zm0-19h-6.6v-14h6.6v14zm0-19h-6.6v-13.9h6.6V135zm0-19h-6.6v-13.9h6.6V116zm0-19h-6.6V83.1h6.6V97zm9.6 95h-6.6v-14h6.6v14zm0-19h-6.6v-14h6.6v14zm0-19h-6.6v-14h6.6v14zm0-19h-6.6v-13.9h6.6V135zm0-19h-6.6v-13.9h6.6V116zm0-19h-6.6V83.1h6.6V97z"/><path class="st2" d="M233.2 38.5h6.5s.4-5.3 5.4-4.6c0 0 3.4-7.2 9.4-3.3 0 0 4.3-.1 5.2 4.3 0 0 3.7.2 3.9 3.5h4.1M328.4 96h-5.1s-.3-4.1-4.2-3.6c0 0-2.6-5.5-7.2-2.5 0 0-3.3-.1-4.1 3.3 0 0-2.9.2-3 2.7h-3.2M713.5 90.7h-5.1s-.3-4.1-4.2-3.6c0 0-2.6-5.5-7.2-2.5 0 0-3.3-.1-4.1 3.3 0 0-2.9.2-3 2.7h-3.2M492.1 133.4h5.6s.4-4.6 4.7-4c0 0 2.9-6.2 8.1-2.8 0 0 3.7-.1 4.5 3.7 0 0 3.2.2 3.4 3.1h3.5M785.1 43h6.5s.4-5.3 5.4-4.6c0 0 3.4-7.2 9.4-3.3 0 0 4.3-.1 5.2 4.3 0 0 3.7.2 3.9 3.5h4.1"/><path class="st1" d="M9.3 21.2h59.8v187.1H9.3z"/><path class="st6" d="M21.1 16.2h19.5v5H21.1z"/><path class="st2" d="M58.5 9.8v11.4M54.8 16.2v5M9.3 32h59.8"/><path class="st5" d="M16.5 38h8.9v145h-8.9zM28.7 38h8.9v145h-8.9zM40.7 38.6h8.7v145h-8.7zM53.6 38.6h8.7v145h-8.7z"/><path class="st3" d="M16.5 38h8.9v6.2h-8.9z"/><path class="st1" d="M16.5 44.2h8.9v18.7h-8.9z"/><path class="st6" d="M28.7 38h8.9v50.9h-8.9zM40.6 38h8.9v22.5h-8.9z"/><path class="st1" d="M53.5 38h8.9v41.7h-8.9z"/><path class="st3" d="M53.5 79.9h8.9v16.5h-8.9z"/><path class="st4" d="M53.5 158.2h8.9v4.6h-8.9z"/><path class="st1" d="M53.5 162.8h8.9v20.8h-8.9z"/><path class="st6" d="M53.5 96.4h8.9v61.9h-8.9z"/><path class="st3" d="M40.6 60.5h8.9v27.1h-8.9z"/><path class="st6" d="M40.6 87.8h8.9v48.7h-8.9z"/><path class="st3" d="M40.6 136.5h8.9v7h-8.9z"/><path class="st1" d="M40.6 143.4h8.9v24h-8.9z"/><path class="st3" d="M40.6 167.2h8.9v16.4h-8.9z"/><path class="st4" d="M28.7 88.9h8.9v9.7h-8.9z"/><path class="st1" d="M28.7 98.6h8.9v27.3h-8.9z"/><path class="st4" d="M28.7 125.9h8.9v24.9h-8.9z"/><path class="st1" d="M28.7 150.9h8.9v12h-8.9z"/><path class="st3" d="M28.7 162.8h8.9v3.6h-8.9z"/><path class="st1" d="M28.7 166.4h8.9v16.7h-8.9z"/><path class="st4" d="M16.5 63h8.9v7.4h-8.9z"/><path class="st6" d="M16.5 70.5h8.9v15.2h-8.9z"/><path class="st3" d="M16.5 85.6h8.9v26.1h-8.9z"/><path class="st6" d="M16.5 111.7h8.9v71.4h-8.9z"/><path class="st5" d="M9.3 190.7h59.8v17.7H9.3z"/><path class="st1" d="M9.3 190.7h8v2.8h-8zM9.3 193.5h8v14.9h-8zM61.3 193.5H69v14.9h-7.7z"/><path class="st6" d="M17.3 193.5h11.4v14.9H17.3z"/><path class="st1" d="M49.3 193.5h11.9v14.9H49.3z"/><path class="st1" d="M28.7 193.5h20.8v14.9H28.7zM17.3 190.7h11.4v2.8H17.3zM49.3 190.7h11.9v2.8H49.3zM61.3 190.7h7.5v2.8h-7.5z"/><path class="st1" d="M28.7 190.7h20.8v2.8H28.7z"/><path class="st2" d="M37.6 199.1v4.4M41.1 199.1v4.4"/><path class="st1" d="M208.6 126.8h43.7v81.6h-43.7zM214.7 110.8h31.5v11.9h-31.5z"/><path class="st1" d="M221 122.8h18.5v4.1H221z"/><circle class="st6" cx="230.4" cy="116.7" r="3.5"/><path class="st6" d="M213.8 131.4H247v10.5h-33.2z"/><path class="st3" d="M213.8 139.3H247v2.6h-33.2z"/><path class="st6" d="M213.8 145.5H247V156h-33.2z"/><path class="st3" d="M213.8 153.4H247v2.6h-33.2z"/><path class="st6" d="M213.8 158.4H247v10.5h-33.2z"/><path class="st3" d="M213.8 166.3H247v2.6h-33.2z"/><path class="st6" d="M213.8 172.6H247v10.5h-33.2z"/><path class="st3" d="M213.8 180.5H247v2.6h-33.2z"/><path class="st5" d="M213.8 189.4H247v19h-33.2z"/><path class="st1" d="M238.2 189.4h8.9v19h-8.9zM213.8 189.4h8.9v19h-8.9z"/><path class="st3" d="M222.7 189.4h15.5v19h-15.5z"/><path class="st6" d="M820.6 182.9h-62v-9.2c0-5.8 4.8-10.6 10.6-10.6H810c5.8 0 10.6 4.8 10.6 10.6v9.2z"/><path class="st1" d="M760.8 182.9h56.8v25.4h-56.8z"/><path class="st6" d="M764.4 185.6h34.5v22.7h-34.5z"/><path class="st6" d="M764.4 185.6h34.5v6.2h-34.5zM764.4 191.8h34.5v6.2h-34.5zM764.4 198h34.5v6.2h-34.5z"/><path class="st5" d="M802.4 185.6h12.7v15.5h-12.7z"/><path class="st4" d="M802.4 185.6h12.7V197h-12.7z"/><path class="st1" d="M802.4 197h12.7v4.3h-12.7z"/><path class="st3" d="M802.4 203.5h12.7v4.6h-12.7z"/><path class="st2" d="M774.2 163.2s-7.7 1.5-5.7 19.8M804.6 163.2s7.7 1.5 5.7 19.8M789.2 163.2v19.7M797.1 163.2s3.9 2.1 2.5 19.8M781.7 163.2s-3.9 2.1-2.5 19.8"/><path class="st3" d="M778.9 159.7h20.4v3.5h-20.4z"/><path class="st1" d="M773.6 148.1h31.5v11.5h-31.5z"/><circle class="st6" cx="789.6" cy="153.7" r="3.4"/><path class="st1" d="M866.5 94.5h54.4v114.2h-54.4z"/><path class="st5" d="M871.5 99.6h44.3v83.8h-44.3z"/><path class="st6" d="M875.6 89h20.7v5.6h-20.7z"/><path class="st2" d="M903.9 89h8.3M908 94.5V89"/><path class="st3" d="M871.5 100.3H886V121h-14.5zM886 100.3h14.5V121H886zM900.8 100.3h14.5V121h-14.5z"/><path class="st3" d="M871.5 120.8H886v20.7h-14.5zM886 120.8h14.5v20.7H886z"/><path class="st4" d="M900.8 120.8h14.5v20.7h-14.5z"/><path class="st3" d="M871.5 141.6H886v20.7h-14.5z"/><path class="st4" d="M886 141.6h14.5v20.7H886zM900.8 141.6h14.5v20.7h-14.5zM871.5 162.4H886v20.7h-14.5zM886 162.4h14.5v20.7H886zM900.8 162.4h14.5v20.7h-14.5z"/><path class="st5" d="M871 190.9h44.3v17.8H871z"/><path class="st6" d="M871 193.7h15.4v14.9H871z"/><path class="st1" d="M871 190.9h15.4v2.7H871z"/><path class="st1" d="M886.3 190.9h15.4v2.7h-15.4z"/><path class="st1" d="M901.6 190.9h13.7v2.7h-13.7z"/><path class="st6" d="M886.3 193.7h15.4v14.9h-15.4z"/><path class="st6" d="M901.6 193.7h13.7v14.9h-13.7z"/><path class="st1" d="M873.2 208.2H833v-74.1l20.1-20.7 20.1 20.6z"/><circle class="st1" cx="853.5" cy="128.7" r="5.3"/><path class="st3" d="m829.5 137.3 23.6-23.9 23.4 23.9 3.3-3.2-26.7-26-26.7 26z"/><path class="st5" d="M841.9 141.1h8.3v11h-8.3z"/><path class="st3" d="M841.9 141.1h8.3v3.1h-8.3z"/><path class="st6" d="M841.9 144.3h8.3v7.9h-8.3z"/><path class="st2" d="M846 141.1v11"/><path class="st5" d="M856.2 141.1h8.3v11h-8.3z"/><path class="st3" d="M856.2 141.1h8.3v3.1h-8.3z"/><path class="st6" d="M856.2 144.3h8.3v7.9h-8.3z"/><path class="st2" d="M860.4 141.1v11"/><path class="st5" d="M841.9 156.1h8.3v11h-8.3z"/><path class="st3" d="M841.9 156.1h8.3v3.1h-8.3z"/><path class="st6" d="M841.9 159.2h8.3v7.9h-8.3z"/><path class="st2" d="M846 156.1V167"/><path class="st5" d="M856.2 156.1h8.3v11h-8.3z"/><path class="st3" d="M856.2 156.1h8.3v3.1h-8.3z"/><path class="st6" d="M856.2 159.2h8.3v7.9h-8.3z"/><path class="st2" d="M860.4 156.1V167"/><path class="st5" d="M841.9 171h8.3v11h-8.3z"/><path class="st3" d="M841.9 171h8.3v3.1h-8.3z"/><path class="st6" d="M841.9 174.1h8.3v7.9h-8.3z"/><path class="st2" d="M846 171v11"/><path class="st5" d="M856.2 171h8.3v11h-8.3z"/><path class="st3" d="M856.2 171h8.3v3.1h-8.3z"/><path class="st6" d="M856.2 174.1h8.3v7.9h-8.3z"/><path class="st2" d="M860.4 171v11"/><path class="st3" d="M848.5 189.4h9v18.9h-9z"/><path class="st6" d="M845.8 197h2.7v11.4h-2.7zM857.5 197h2.7v11.4h-2.7z"/><path class="st1" d="M930.6 32.6h60.3v175.9h-60.3z"/><path class="st4" d="M930.6 32.6h60.3v6.6h-60.3z"/><path class="st5" d="M936.2 43.8h14.5v27.1h-14.5z"/><path class="st6" d="M936.2 43.8h14.5v22.1h-14.5z"/><path class="st1" d="M936.2 66.1h14.5V71h-14.5z"/><path class="st5" d="M953.6 43.8h14.5v27.1h-14.5z"/><path class="st6" d="M953.6 43.8h14.5v22.1h-14.5z"/><path class="st1" d="M953.6 66.1h14.5V71h-14.5z"/><path class="st5" d="M972 43.8h14.5v27.1H972z"/><path class="st6" d="M972 43.8h14.5v22.1H972z"/><path class="st1" d="M972 66.1h14.5V71H972z"/><path class="st3" d="M930.6 76h60.3v5.6h-60.3z"/><path class="st6" d="M958.3 16.6h25.8v16h-25.8z"/><path class="st1" d="M963.2 20.7h8v11.9h-8z"/><path class="st2" d="M940.5 32.6v-3.9M936.5 28.7h7.6M936.5 26.7v3.7M944.1 26.7v3.7M979.7 2.1v14.5M975.2 8.5v8.1"/><path class="st5" d="M936.2 87.4h14.5v95.7h-14.5z"/><path class="st6" d="M936.2 87.4h14.5V119h-14.5zM936.2 119h14.5v31.6h-14.5zM936.2 150.7h14.5v32.4h-14.5z"/><path class="st5" d="M953.6 87.4h14.5v95.7h-14.5z"/><path class="st6" d="M953.6 87.4h14.5V119h-14.5zM953.6 119h14.5v31.6h-14.5zM953.6 150.7h14.5v32.4h-14.5z"/><path class="st5" d="M972 87.4h14.5v95.7H972z"/><path class="st6" d="M972 87.4h14.5V119H972zM972 119h14.5v31.6H972zM972 150.7h14.5v32.4H972z"/><path class="st5" d="M936.2 189.9h50.2v18.7h-50.2z"/><path class="st6" d="M936.2 189.9h7v18.7h-7zM979.7 189.9h7v18.7h-7z"/><path class="st1" d="M943.2 189.9h18.3v5.3h-18.3z"/><path class="st1" d="M961.4 189.9h18.3v5.3h-18.3z"/><path class="st3" d="M943.2 195.2h18.2v13.7h-18.2zM961.5 195.2h18.2v13.7h-18.2z"/><path class="st1" d="M79.2 208.5V86.3h29.4l83.1 83.2v39H79.2"/><path class="st3" d="M85.6 76.7h15.5v9.7H85.6z"/><circle class="st6" cx="90.5" cy="81.7" r="2.1"/><path class="st5" d="M154 190.7h30.9v17.7H154z"/><path class="st1" d="M154 190.7h30.9v2.8H154z"/><path class="st6" d="M154 193.5h8.1v14.9H154zM176.7 193.5h8.1v14.9h-8.1z"/><path class="st1" d="M162.1 193.5h14.6v14.9h-14.6z"/><path class="st5" d="M120.4 190.7h30.9v17.7h-30.9z"/><path class="st1" d="M120.4 190.7h30.9v2.8h-30.9z"/><path class="st6" d="M120.4 193.5h8.1v14.9h-8.1zM143.1 193.5h8.1v14.9h-8.1z"/><path class="st1" d="M128.5 193.5h14.6v14.9h-14.6z"/><path class="st5" d="M85.6 190.7h30.9v17.7H85.6z"/><path class="st1" d="M85.6 190.7h30.9v2.8H85.6z"/><path class="st6" d="M85.6 193.5h8.1v14.9h-8.1zM108.4 193.5h8.1v14.9h-8.1z"/><path class="st1" d="M93.6 193.5h14.6v14.9H93.6z"/><defs><path id="SVGID_2_" d="M106.4 93.8H85.6v89.3h100.5V174z"/></defs><clipPath id="SVGID_3_"><use xlink:href="#SVGID_2_" style="overflow:visible"/></clipPath><g style="clip-path:url(#SVGID_3_)"><path class="st5" d="M85.6 93.8h100.5V183H85.6z"/><path class="st6" d="M85.6 93.8h14.3v22.3H85.6zM100 93.8h14.3v22.3H100zM114.3 93.8h14.3v22.3h-14.3z"/><path class="st5" d="M128.6 93.8h14.3v22.3h-14.3zM143 93.8h14.3v22.3H143zM157.3 93.8h14.3v22.3h-14.3zM171.8 93.8h14.3v22.3h-14.3z"/><path class="st6" d="M85.6 116.2h14.3v22.3H85.6zM100 116.2h14.3v22.3H100zM114.3 116.2h14.3v22.3h-14.3zM128.6 116.2h14.3v22.3h-14.3z"/><path class="st1" d="M143 116.2h14.3v22.3H143z"/><path class="st5" d="M157.3 116.2h14.3v22.3h-14.3zM171.8 116.2h14.3v22.3h-14.3z"/><path class="st6" d="M85.6 138.4h14.3v22.3H85.6z"/><path class="st1" d="M100 138.4h14.3v22.3H100zM114.3 138.4h14.3v22.3h-14.3zM128.6 138.4h14.3v22.3h-14.3zM143 138.4h14.3v22.3H143zM157.3 138.4h14.3v22.3h-14.3z"/><path class="st5" d="M171.8 138.4h14.3v22.3h-14.3z"/><path class="st1" d="M85.6 160.9h14.3v22.3H85.6zM100 160.9h14.3v22.3H100zM114.3 160.9h14.3v22.3h-14.3zM128.6 160.9h14.3v22.3h-14.3zM143 160.9h14.3v22.3H143zM157.3 160.9h14.3v22.3h-14.3zM171.8 160.9h14.3v22.3h-14.3z"/></g><path id="SVGID_1_" class="st8" d="M106.4 93.8H85.6v89.3h100.5V174z"/><path class="st9" d="M115 202.2h12.6l-6.2-23z"/><path class="st2" d="M121.4 193v15.4M121.4 198.4l2-2"/><path class="st9" d="M286.9 202.2h12.6l-6.2-23z"/><path class="st2" d="M293.3 193v15.4M293.3 198.4l2-2"/><path class="st9" d="M414.9 202.2h12.6l-6.4-23z"/><path class="st2" d="M421.1 193v15.4M421.1 198.4l2.1-2"/><path class="st9" d="M570.9 202.2h12.6l-6.4-23z"/><path class="st2" d="M577.1 193v15.4M577.1 198.4l2.1-2"/><path class="st3" d="M91.1 203.3h13.4v5H91.1z"/><path class="st4" d="M219.8 203.3h13.4v5h-13.4zM347.4 203.5h13.4v5h-13.4zM599.2 203.3h13.4v5h-13.4z"/><path class="st2" d="M110.6 208.4v-9.3"/><circle class="st9" cx="110.6" cy="197.5" r="1.7"/><path class="st2" d="M496.7 208.4v-9.3"/><circle cx="496.7" cy="197.5" r="1.7" style="fill:#3f3f4f;stroke:#111b49;stroke-linecap:round;stroke-linejoin:round;stroke-miterlimit:10"/><path class="st8" d="M238.1 208.4v-17.3M234.1 191.1h8.8"/><circle class="st8" cx="243" cy="192.1" r=".6"/><circle class="st8" cx="233.8" cy="192.1" r=".6"/><path class="st8" d="M319.9 208.4v-17.3M315.7 191.1h8.9"/><circle class="st8" cx="324.8" cy="192.1" r=".6"/><circle class="st8" cx="315.6" cy="192.1" r=".6"/><path class="st5" d="M-221.6 202.2h12.6l-6.2-23z"/><path class="st2" d="M-215.2 193v15.4M-215.2 198.4l2-2"/><path class="st9" d="M-49.7 202.2h12.6l-6.2-23z"/><path class="st2" d="M-43.3 193v15.4M-43.3 198.4l2-2"/><path class="st4" d="M-245.5 203.3h13.4v5h-13.4zM-116.8 203.3h13.4v5h-13.4z"/><path class="st2" d="M-225.9 208.4v-9.3"/><circle cx="-225.9" cy="197.5" r="1.7" style="fill:#fff;stroke:#111b49;stroke-miterlimit:10"/><path class="st8" d="M-98.5 208.4v-17.3M-102.6 191.1h8.9"/><circle class="st8" cx="-93.6" cy="192.1" r=".6"/><circle class="st8" cx="-102.7" cy="192.1" r=".6"/><path class="st8" d="M-16.8 208.4v-17.3M-20.8 191.1h8.9"/><circle class="st8" cx="-11.8" cy="192.1" r=".6"/><circle class="st8" cx="-21" cy="192.1" r=".6"/><path class="st9" d="M739.4 202.2h12.5l-6.2-23z"/><path class="st2" d="M745.7 193v15.4M745.7 198.4l2.1-2"/><path class="st9" d="M911.3 202.2h12.5l-6.2-23z"/><path class="st2" d="M917.6 193v15.4M917.6 198.4l2.1-2"/><path class="st4" d="M715.5 203.3h13.4v5h-13.4zM844.1 203.3h13.4v5h-13.4z"/><path class="st2" d="M735 208.4v-9.3"/><circle class="st9" cx="735" cy="197.5" r="1.7"/><path class="st8" d="M862.4 208.4v-17.3M858.3 191.1h8.9"/><circle class="st8" cx="867.4" cy="192.1" r=".6"/><circle class="st8" cx="858.2" cy="192.1" r=".6"/><path class="st8" d="M944.1 208.4v-17.3M940.1 191.1h8.9"/><circle class="st8" cx="949.1" cy="192.1" r=".6"/><circle class="st8" cx="939.9" cy="192.1" r=".6"/><path class="st8" d="M388.1 208.4v-17.3M384.1 191.1h8.7"/><circle class="st8" cx="393" cy="192.1" r=".6"/><circle class="st8" cx="383.9" cy="192.1" r=".6"/><path class="st8" d="M503.3 208.4v-17.3M499.3 191.1h8.7"/><circle class="st8" cx="508.2" cy="192.1" r=".6"/><circle class="st8" cx="499" cy="192.1" r=".6"/></svg>