<svg version="1.1" id="_1" xmlns="http://www.w3.org/2000/svg" x="0" y="0" viewBox="0 0 3300 2100" style="enable-background:new 0 0 3300 2100" xml:space="preserve"><style>.st1{fill:#3ec68c}.st2{fill:#2e2e47}.st3{fill:#7703fc}.st4{fill:#fff}.st5{fill:#9c6f43}.st6{fill:#eae6e4}.st7{fill:#ffd3b5}.st8{fill:#ffa982}.st10{fill:#cc8b70}.st12{fill:#e32b6b}.st13{fill:#82664b}.st14{fill:#c96b59}.st15{fill:#f2836d}.st17{fill:#4c4c66}.st18{fill:#ffea8f}.st19{fill:#774237}</style><ellipse cx="1650" cy="1878.7" rx="1339" ry="48.9" style="opacity:.34;fill:#2e2e47"/><path class="st1" d="M2664.8 545.4s75.7 50.3 112.4 98.9c5.4 7.2 21.3 25.2 38.2 46.8 4.3 5.5 15.1 8.4 19.4 14.2 6.2 8.6 5.8 20.3 11.1 29 8.2 13.3 14.8 26.4 18.1 38 17.2 60.5-47.4 275.5-103 254.2-21.4-8.2-39.2-78-37.2-92.1s31.9-128.6 31.9-128.6-49.9-78.9-65.2-112.2c-15.3-33.2-25.7-148.2-25.7-148.2z"/><path class="st2" d="M2745.5 789.6c-3.8-31.2-19.3-121.2-24.7-136.7-9.1-26-24.7-47-24.7-47s15.2 95.7 14.9 126.2c11.9 20.6 25.4 42.8 34.5 57.5z"/><path class="st3" d="M2603.8 380.7s13.8 26 3.6 36.1c-10.2 10.1-30.3-31.8-18.6-33.1 11.8-1.3 15-3 15-3z"/><path class="st2" d="M2757.9 1020.8s5.3 7.5 12.3 3.1c7-4.3-3.3-19-15.3-29s-26-38.4-31.7-33.7c-5.7 4.7 10.3 35.5 34.7 59.6z"/><path class="st4" d="M2408.5 1833.2c-3.1-.9-4-11.5-15.4-16.7-9.2-4.3-27.2-6.2-40.4-4.8 4-7 6.7-15.6 8.2-27.8 4.4-36.1 74.4-18.9 59.5 6.6 0 0-8.4 26.3-6.2 33.4.1.3.2.7.3 1.2-2 4.3-4.4 8.6-6 8.1zM2670.5 1814.9c-16.2 4.6-19.3.9-23.7-5.8-2.5-3.8-7.6-7.3-12.2-9.8 5.1-7.2 10.7-15.4 12.5-20.2 3.5-9.2 51.8-9.8 50.8 8.7 0 0 .8.9 2.1 2.2-1.1.1-2.2.4-3.3.9-11.5 5-10 19.4-26.2 24z"/><path class="st5" d="M2793.1 1865.7c-12.3 1.3-84.6-8.1-94.6-9.8-10-1.7-33.7-11.5-36.9-13.1-3.3-1.5-8.1-.8-14.8-1-5.2-.1-23.2-1.5-30.9-2 3.4-11.2 7.7-24.9 8.7-26.6.8-1.4 5.3-7.2 10-13.9 4.6 2.4 9.7 6 12.2 9.8 4.3 6.6 7.5 10.4 23.7 5.8s14.7-19 26.3-24c1.1-.5 2.2-.8 3.3-.9 5.3 5.6 18.8 19.9 20.7 22.3 2.2 2.8 49.7 21.9 77.9 39.3-5.2 2.2 5.1 13-5.6 14.1z"/><path class="st2" d="M2615.9 1839.8c7.7.6 25.6 1.9 30.9 2 6.7.2 11.5-.6 14.8 1 3.3 1.5 26.9 11.4 36.9 13.1 10 1.7 82.3 11.2 94.6 9.8 10.7-1.2.4-11.9 5.5-14.1 1.1.7 2.1 1.3 3.2 2 10.2 6.6 18 24.8-35.7 19-53.7-5.8-109.1-12.7-109.1-12.7v-9.8l-7.1 9.8-38.5-5.2c-.1.1 2-6.7 4.5-14.9z"/><path class="st6" d="m2370.7 1609.3-.8-68.4 17.1-88.9 60.4-466.7 295.8 12.5-21.7 789.8s-18.1 6.2-50.3 5.9c-23.6-.2-50.9-2.5-50.9-2.5s-2.7-19.6-.9-25.8c.8-2.7 2.5-11.4 3.5-16.9.5-3 .8-6 .7-9.1l-6.4-186.7s-13.1-24.5-13.9-38.6c-.9-14.1 9.5-33.5 9.5-33.5L2592 1128c-29.6 123.5-70.6 323.5-85.2 381-2.5 9.7-18.9 76-24.9 96.3-24.1 81.6-46.7 185.7-46.7 185.7s-11.1 18.2-52.2 15.7c-31.1-1.9-31.1-15.7-31.1-15.7l18.8-181.7z"/><path class="st1" d="M2656.5 538.3c76.1 51 89 420.6 89 461.8 0 20.1-338.3 72-332.5-19.5 1-15.2 5-70.3 10.7-122.8 6-55.3 2-116 4.7-171 2.1-44.6-3.5-81.2 22-115.7 37.3-50.8 130.1-83.8 206.1-32.8z"/><path class="st4" d="M2580.5 598.3c28.6-6.5 41.9-51.4 39.6-65-1-5.9-3.4-10.9-6.9-15-38.4-10.7-77.5-4.9-109.4 10.3-1.8 5.3-3.3 12.9-1.7 21.8 3 16.9 49.8 54.4 78.4 47.9z"/><path class="st7" d="M2534.1 457.2s0 35.5-4.7 68.4c-.6 4 29.1 23.5 44.4 19.2 4.5-1.3 15.1-7 13-13.8-6.7-21.7-9-44.4-9-44.4l-43.7-29.4z"/><path class="st2" d="m2577.8 486.6-9.9-6.7-27.9-3.7s5.8 14.9 24.1 20.8c5.8 1.9 11.1 3 15.7 3.6-1.5-8.4-2-14-2-14z"/><path class="st3" d="M2502.4 393.5c-4.3 6.4-3.3 16.4 1.7 34.7 5 18.3 17.4 32.8 33.8 31.7 16.5-1 5.6-66.5-4.4-72.3-10-5.7-26.9-.4-31.1 5.9z"/><path class="st7" d="M2570.5 371.8c17.6-.5 32.9 11.9 36.8 29l4 18c1.9 8.4 4.3 24.4 5.5 37.2 1.2 12.8-1.9 26.2-25.2 31-23.3 4.8-47.3-1.6-53.8-14-6.6-12.4-8.2-24.4-8.2-24.4s-5.4 8.9-12.2-7.4c-4-9.5-10.6-21-2.3-23.3 8.3-2.3 10.6 2.1 12.5 1.2 1.9-.9 5.2-31.1 29.5-44.4 3-1.8 7.9-2.7 13.4-2.9z"/><path class="st2" d="M2593.9 441.9c-.6 0-1.2-.1-1.7-.3-.5-.2-.7-.8-.5-1.3.2-.5.8-.7 1.3-.5 1.1.5 3.6-.3 4.9-1.9 1.1-1.4 1-3-.3-4.6-.4-.5-.9-1.1-1.3-1.6-5-6-11.1-13.4-3.1-23.5 4.1-5.2 15.3-2.4 15.7-2.2.5.1.9.7.7 1.2-.1.5-.7.9-1.2.7-2.9-.7-10.9-1.9-13.7 1.5-7 8.8-1.9 15 3.1 21 .5.6.9 1.1 1.4 1.7 1.9 2.4 2 5 .3 7.1-1.3 1.6-3.7 2.7-5.6 2.7zM2556.2 416.2c-.3 0-.6-.1-.8-.4-.3-.4-.3-1.1.2-1.4.3-.2 6.4-4.9 11.3-6.5 5.2-1.6 10.6 1.3 10.8 1.4.5.3.7.9.4 1.4-.3.5-.9.7-1.4.4 0 0-4.9-2.6-9.3-1.3-4.6 1.4-10.6 6.1-10.7 6.2 0 .1-.2.2-.5.2z"/><path class="st3" d="M2521.7 395.9s4.9 29.2 8.6 31.7c3.7 2.5 4.4.3 7.1.1 2.7-.2 3-2.4 3.6-4.7.5-2.3 4.7-23.6 4.3-26.4-.4-2.7-22-1.1-23.6-.7z"/><path class="st2" d="M2562.5 423.4c-.3 0-.5-.1-.7-.3-.4-.4-.3-1 .1-1.4.3-.2 6.6-5.8 15.9-2.1.5.2.8.8.5 1.3-.2.5-.8.8-1.3.5-8-3.3-13.5 1.5-13.8 1.7-.3.2-.5.3-.7.3zM2597 418.8c-.4 0-.8-.2-.9-.6-.2-.5 0-1.1.5-1.3.1 0 2.3-1 4.7-1.6 2.5-.6 6.3-.4 7.9 1.2.4.4.4 1 0 1.4-.4.4-1 .4-1.4 0-.9-.9-3.9-1.2-6-.7-2.2.5-4.3 1.5-4.3 1.5-.3.1-.4.1-.5.1z"/><path class="st8" d="M2574.5 439.4s-12.2 2.1-14-3.7c-1.8-5.8 11.8-8.1 17.6-5.6 5.9 2.5-.5 9-3.6 9.3zM2612 433.2s-10.4 2-11.8-3.2c-1.5-5.1 10.1-7.3 15-5.1s-.6 8-3.2 8.3z"/><path class="st2" d="M2574 419.2c1.5 1.2 3.1 8.1-2.3 8.1s-4.3-6.7-3-7.9c1.4-1.2 4.4-.9 5.3-.2zM2606.4 416.2c1.3 1 2.7 7.6-2.1 8.1-4.8.6-3.7-6.1-2.6-7.4 1.3-1.3 4-1.2 4.7-.7z"/><path class="st7" d="M2749.5 1000.5s-14-2.4-23.1 1.9c-9 4.3-12.9 7.5-19.5 9.2-9.8 2.6-29 0-24.2 6.1 6.4 8.2 11 10.9 30.4 7.3 5.3-1 3.1 7.7 13.1 1 9.9-6.5 25.9-25.1 23.3-25.5z"/><path class="st5" d="M2318.4 1883.2c-8.5 3.1-8-6.7-16.2-6.2-2.8.2-6 1.2-9.1 2.5 3.4-7.2 10.5-16.8 22.1-28.7 17.4-17.8 29.9-25.6 37.6-39.2 13.1-1.5 31.2.5 40.4 4.8 11.5 5.3 12.3 15.9 15.4 16.7 1.6.4 4-3.8 6.1-8.2 1.2 4.3 2.9 13.4 3.5 22-6.8 3.6-20.3 10.7-30.5 16.1-14.3 7.9-60.9 17.2-69.3 20.2z"/><path class="st2" d="M2302.2 1877.1c8.1-.5 7.7 9.2 16.2 6.2 8.5-3.1 55-12.3 69.3-20 10.2-5.5 23.6-12.6 30.5-16.1.6 9.2 0 17.9-4.2 19.6-8.4 3.5-30.5 8.4-36.6 11.9-6.2 3.5-61.2 18.9-76.7 18.1-9.3-.5-12.6-6.2-7.6-17.1 3-1.4 6.3-2.4 9.1-2.6z"/><path class="st3" d="M2542.7 403.4s5.8-9.6 23.5-13.1c17.8-3.5 32.6.2 39.9-4.9 7.4-5.1 10.5-19.1 2-32.8-8.6-13.7-11.5-23.5-26.9-23.1-15.4.4-17.1 12.3-13.7 14.2 0 0-8.3-7.5-26.4-3.5s-19.8 21.1-19.8 21.1-14.7 4.8-13.9 17c.8 12.1 17.2 34.7 35.3 25.1z"/><path class="st7" d="M2568.9 548.8s.2 11.8 4.1 15c3.9 3.3 13.5.3 14.1-2.5.6-2.8 1.9-13.3-1.8-15.9-3.7-2.6-15.1-4.9-16.4 3.4z"/><path class="st7" d="m2585.3 559.1-10.7 2.2-2.4 37.7c2.9.1 5.7-.1 8.3-.7 6.9-1.6 12.9-5.4 18-10.4l-13.2-28.8zM2762.2 1018.9s-16.3 62.4-30 56.4-17.4-26.7-16.4-34.7c1-8 6.4-21.7 6.4-21.7s19.9-18.8 27.3-18.4c7.4.4 14.5 12 12.7 18.4z"/><path class="st4" d="M2529.4 515.9s27.4 16.5 34.6 20 9 4.2 9 4.2l8.9-28s3.6 2.4 5.1 5.4c1.6 3 5.6 15 5.6 15l-1.5 19.3-16.3-6.4-14.4 13.7-35.3-30.9 4.3-12.3z"/><path class="st1" d="M2460.4 559.1s-50.4 32.8-65.8 121.1-16.9 209.1-19.2 220.7c-2.3 11.5-12.3 93.7-10.7 105.2 1.5 11.5-12.8 145.7-8.4 149.3 13.2 10.8 59 16.3 90.5 7.9 31.4-8.5 23.8-56.2 26.1-67.1 2.3-10.9 8.4-99.8 8.4-116.7 0-16.9 8.4-146.9 8.4-188.4 0-104.2-.3-256.6-29.3-232z"/><path class="st2" d="M2359.7 1153.2s23 11.5 41.3 11.3c18.3-.3 35-.5 46.5-5.6s20-8.6 12.8-9.4c-7.3-.8-43.5.3-58.5 1.3-15.1.9-49.7-1-42.1 2.4z"/><path d="M2395.2 1205.6s-6.3 21.5-4.5 31.1c1.7 9.6 11.4 34.4 11.4 34.4s3.3-.6 4.2-3.9c.9-3.3-2-12.6-2.9-18.8-1-6.2-8.2-42.8-8.2-42.8z" style="fill:#f2c3a2"/><path class="st7" d="M2397.2 1161.5s-5.1 62.2-3.4 70.1c1.7 7.9 9.3 36.7 15.3 34.8s-1.8-33.1.9-38.3c2.7-5.3 2.2-12.5 7.6-9.2 5.4 3.3-3 28.9 3.7 30.3 6.6 1.4 7.6-1.6 7.8-8.3.6-19.2 4.2-32 6.1-47.7 1.8-15.7-2.8-23.4-7.2-35.8-4.6-12.4-30.3-.5-30.8 4.1z"/><path class="st2" d="M2477 1053.6c-.6 0-1-.5-1-1.1 1.4-17.3 3.4-51 4.5-82 .5-14.3 2.3-51.2 4-86.9 2-42 4.1-85.3 4.2-92.5.2-13.1-2.3-140.4-2.3-141.7v-.2l.1-.2 12.3-34.8c.2-.5.8-.8 1.3-.6.5.2.8.8.6 1.3l-12.2 34.6c.1 5.5 2.5 128.7 2.3 141.6-.1 7.2-2.2 50.6-4.2 92.5-1.7 35.7-3.5 72.6-4 86.9-1.2 31-3.2 64.8-4.5 82.1-.1.6-.6 1-1.1 1zM2755.7 807c-.2 0-.5-.1-.6-.2-.4-.4-.5-1-.1-1.4.1-.1 9.4-11.2 21.7-23.2 16.5-16.2 30.3-26.3 40.8-30.1 7.8-2.8 12-3 13-.7 2 4.6-12.8 16.8-23.2 22-11.5 5.8-21 15-25.3 19.6l42-13.4c.5-.2 1.1.1 1.3.6.2.5-.1 1.1-.6 1.3l-45.5 14.5c-.4.1-.9 0-1.1-.4-.2-.4-.2-.9.1-1.2.1-.1 12.3-14.8 28.3-22.8 11.8-5.9 23.3-17.1 22.2-19.4 0 0-.9-1.7-10.4 1.8-24.5 8.8-61.2 52.3-61.6 52.7-.4.1-.7.3-1 .3zM2777.7 706.4c-.4 0-.8-.3-1-.7-.1-.5.2-1.1.7-1.2 22.7-5.9 40.7-11.2 40.9-11.2.5-.2 1.1.1 1.2.7.2.5-.1 1.1-.7 1.2-.2.1-18.2 5.3-40.9 11.2h-.2z"/><path class="st2" d="M2536 1021.8c-31 0-56.3-6.4-56.6-6.5-.5-.1-.9-.7-.7-1.2.1-.5.7-.9 1.2-.7.4.1 40 10.2 80.9 4.9 36.8-4.7 134.7-17.3 141.9-21.9.5-.3 1.1-.2 1.4.3.3.5.2 1.1-.3 1.4-6.7 4.2-75.9 13.6-142.7 22.2-8.6 1-17.1 1.5-25.1 1.5zM2592 1129h-.2c-.5-.1-.9-.6-.8-1.2.5-2.4 12.2-59.1 17.2-69.6 4.9-10.2 7.4-28.9 7.4-29.1.1-.5.6-.9 1.1-.9s.9.6.9 1.1c-.1.8-2.5 19.1-7.6 29.7-4.9 10.3-16.9 68.6-17.1 69.2 0 .5-.4.8-.9.8z"/><path class="st2" d="M2604.3 1089.6c-.6 0-1-.4-1-1s.4-1 1-1c.1 0 8.9-.1 13.5-6.1 4.8-6.3 15.2-48.4 15.3-48.8.1-.5.7-.9 1.2-.7.5.1.9.7.7 1.2-.4 1.8-10.6 42.9-15.7 49.5-5.1 6.9-14.6 6.9-15 6.9zM2624.1 1138.7c-.5 0-.9-.4-1-.9-.1-.5.3-1 .9-1.1 20.4-2.1 42.7-6.4 43.2-9.6 0-.3-.5-1-2.8-2-17.3-7.3-64.6 3.8-65.1 3.9-.5.1-1.1-.2-1.2-.7-.1-.5.2-1.1.7-1.2.1 0 12.2-2.9 26.3-4.8 19-2.5 32.5-2.2 40.1 1 1.1.4 4.3 1.8 4 4.1-.9 6.3-34.7 10.2-45 11.3h-.1zM2612.8 1481.5c-.4 0-.8-.2-.9-.6-.2-.5 0-1.1.5-1.3.4-.2 37-16.3 48.1-28 .4-.4 1-.4 1.4 0 .4.4.4 1 0 1.4-11.3 12-47.2 27.8-48.7 28.5h-.4zM2673.2 1569.3c-.1 0-.3 0-.4-.1-27-11.2-57-23.2-57.3-23.3-.5-.2-.8-.8-.6-1.3.2-.5.8-.8 1.3-.6.3.1 30.3 12.1 57.3 23.4.5.2.8.8.5 1.3-.1.3-.4.6-.8.6zM2382 1557.6c-.5 0-.9-.3-1-.8-.1-.5.2-1.1.8-1.2.7-.1 72.7-14.4 95.1-16.7.6 0 1 .3 1.1.9.1.5-.3 1-.9 1.1-22.3 2.3-94.2 16.5-94.9 16.7h-.2zM2373.7 913.6c-.1 0-.3 0-.4-.1-.5-.2-.7-.8-.5-1.3 17.5-36.5 24.6-54.7 24.7-54.8.2-.5.8-.8 1.3-.6.5.2.8.8.6 1.3-.1.2-7.2 18.4-24.8 55-.2.3-.6.5-.9.5z"/><path class="st4" d="M2580.5 448.9s18.9-.2 27.1-4.2c0 0 1 8-9.4 12.5-9.3 4.1-17.7-8.3-17.7-8.3z"/><path class="st6" d="M559.7 653.5s-64.6 67.9-60.2 82c4.4 14.1 23.2 55.7 38.5 53.7 15.4-2 21.7-135.7 21.7-135.7z"/><path class="st10" d="M575.3 1815.8s-4.5-15.1-4.5-16c0-14.1 2.3-42.9 2.3-42.9l-52.7-3.5s3.2 38.6-3.7 45.9c-17.5 18.5-92.5 35.6-106.4 59.6-9.2 15.9 45.4 10.9 76.1 6.6 30.7-4.3 71-4.3 83.8-17.5 12.9-13.2 5.1-32.2 5.1-32.2z"/><path class="st6" d="M572.6 1802.4c-4.9-6.6-3.8 20.5-14.7 37.2-5.2 8-12.9 12.6-19.5 15.2-14.8 1.6-28.5 2.3-30.5.8-3.9-3.1 14-42.2 8.2-48.6-2.2-2.5-6.7-4.4-9.9-4.5-26.6 15.6-83.8 35.5-95.9 56.5-9.2 15.9 45.4 10.9 76.1 6.6 18.9-2.7 41.4-3.7 58.9-7.1.5-.1.9-.1 1.4-.2 9.8-1.5 26.2-7.5 29.3-16.9 3.2-9.5 1.5-32.4-3.4-39z"/><path class="st10" d="M729.7 1815.8s4.5-15.1 4.5-16c0-14.1-2.3-42.9-2.3-42.9l52.7-3.5s-3.2 38.6 3.7 45.9c17.5 18.5 92.5 35.6 106.4 59.6 9.2 15.9-45.4 10.9-76.1 6.6-30.7-4.3-71-4.3-83.8-17.5-12.8-13.2-5.1-32.2-5.1-32.2z"/><path class="st6" d="M732.5 1802.4c4.9-6.6 3.8 20.5 14.7 37.2 5.2 8 12.9 12.6 19.5 15.2 14.8 1.6 28.5 2.3 30.5.8 3.9-3.1-14-42.2-8.2-48.6 2.2-2.5 6.7-4.4 9.9-4.5 26.6 15.6 83.8 35.5 95.9 56.5 9.2 15.9-45.4 10.9-76.1 6.6-18.9-2.7-41.4-3.7-58.9-7.1-.5-.1-.9-.1-1.4-.2-9.8-1.5-26.2-7.5-29.3-16.9-3.2-9.5-1.5-32.4 3.4-39z"/><path style="fill:#c92363" d="m589.7 942.7-209 31.5-48.5-292.3 195.5-50.1z"/><path class="st4" d="m514.3 636.7-173.7 54.5 45.8 287 58.1-20.1z"/><path class="st12" d="m527.7 631.8 62 310.9-195.4 45.2-28.9-160.1-8.5-84.1-8.4-45.6z"/><path class="st4" d="m361.3 705.8 10.8 67 20.8-6-10.7-68.5z"/><path class="st13" d="M692.9 466.4s17.7-15.8 32-3.9c14.2 11.9 15.2 30.2 1.6 40.2-13.6 10.1-37.5-5.1-41.3-13.4-3.8-8.2 5.5-21.2 7.7-22.9z"/><path class="st13" d="M676.6 463.8c16.5 7.9 35.8 35.5 27.2 68-8.6 32.4-29.4 47.8-51.8 37-34.7-16.7-25.7-129.1 24.6-105z"/><path class="st10" d="M612.3 617.2c4.1-3 3-11.6 5.9-21.7 7.4-25.7 35-35.6 35-35.6s2.8 30.5 5.7 43.7c1 4.4 3.7 9.8 6.1 12.9L623.9 633l-11.6-15.8z"/><path class="st2" d="M626.4 603.2c15-5.7 24.6-23.9 24.6-23.9l-30.2 9.4c-1 2.1-1.8 4.3-2.5 6.7-1.1 3.7-1.6 7.2-2.1 10.3 2.9-.3 6.3-1 10.2-2.5z"/><path class="st10" d="M669.7 557.2s5.6 1.4 11.2-2.7c4.4-3.3 6-15.2 2.5-19.4-3.5-4.2-8.5-4.6-9.6-5s2.7-25.7-2.4-39c-5.2-13.3-7.8-19.6-28.3-20.6s-32 9.1-39.7 17c-7.7 7.9-10.2 25.6-11.9 34-1.7 8.4-3.9 10.7-6 15.1-4.8 10.1-7.1 17.4-5.2 29.6 1.9 12.3 13.1 25.5 32.9 27.5 19.8 1.9 46-6 56.5-36.5z"/><path class="st2" d="M616.5 551.2c-1.6 0-3.4-.2-5.3-.6-2.3-.4-4.7-1-5.4-2.9-.7-1.8.3-4.1 3.3-8.1 4.6-5.9 6.4-14.9 6.8-17.6.1-.7.3-1.4.4-2.1.4-1.9.8-3.8.8-6.1 0-.1-.3-2.9-6.4-3.7-4.8-.9-12.3-1.6-13.8-.7-.5.3-1.1.1-1.4-.3-.3-.5-.1-1.1.3-1.4 2.7-1.6 13 .1 15.1.5 7.9 1 8.1 5.4 8.1 5.6 0 2.6-.4 4.6-.8 6.6-.1.7-.3 1.4-.4 2.1-.6 3.5-2.5 12.4-7.2 18.5-.9 1.2-3.6 4.7-3 6.1.3.7 1.6 1.3 3.9 1.6 6.5 1.1 8.5.6 9.5-2 .2-.5.8-.8 1.3-.6.5.2.8.8.6 1.3-1.2 2.9-3.4 3.8-6.4 3.8zM651 520.3c-.2 0-.4-.1-.6-.2-.1-.1-9.9-6.8-18.6-7.8-.5-.1-.9-.6-.9-1.1.1-.5.6-.9 1.1-.9 9.3 1 19.2 7.8 19.6 8.1.5.3.6.9.2 1.4-.2.4-.5.5-.8.5z"/><path class="st4" d="M604.2 560s1.7 2.9 7.8 4.3 10-3 10-3l-17.8-1.3z"/><path class="st2" d="M599.2 523.9s-1.5 3.8-.5 7.2c1 3.3 3.9 1.5 4.8.2 1-1.3 2.1-5.6 1.5-6.1-.4-.6-3-2-5.8-1.3zM632.9 529.6s-3.6 5.7-1.8 8.5 5.7 1.3 6.8-.1c1.1-1.4 1.6-7.7.8-8.1-.7-.3-2.1-1.4-5.8-.3z"/><path class="st2" d="M645.2 535.5c-.3 0-.5-.1-.7-.3 0 0-3.6-3.6-8.2-4.2-4.7-.6-5.5.5-5.5.5-.2.5-.8.8-1.3.6-.5-.2-.8-.8-.6-1.3.4-1.2 2.1-2.4 7.6-1.7 5.3.6 9.2 4.6 9.4 4.7.4.4.4 1 0 1.4-.2.3-.5.3-.7.3zM609.2 528.4c-.2 0-.4-.1-.6-.2 0 0-3-2.3-6.6-2.9-3.3-.6-4.6.6-4.7.7-.4.4-1 .3-1.4-.1-.4-.4-.4-1 0-1.4.2-.2 2.1-1.9 6.4-1.2 4.1.7 7.4 3.2 7.5 3.3.4.3.5 1 .2 1.4-.2.2-.5.4-.8.4z"/><path class="st14" d="M633.3 543.6s14 2.4 15.6 8c1.7 5.6-13.9 2.9-20.3-1.2-6.4-4.2 1.3-7.6 4.7-6.8zM585.6 536.2s14.1-1.6 17.2 3.3c3.2 4.9-12.5 6.7-19.8 4.5-7.3-2.2-.9-7.6 2.6-7.8z"/><path class="st13" d="M628.9 483.5s12.1 27.6 22.5 39c10.4 11.3 29.6 8.5 29.6 8.5s15.6-44.3 1.1-62c-14.5-17.7-36.4-5.5-41-2-4.6 3.6-12.2 16.5-12.2 16.5z"/><path class="st13" d="M633.5 482.1s-34.8 28.4-40.9 22.6c-3.9-3.8-4.6-17.7 2.3-28.4 2.7-4.2 11.4-5.9 14.3-9.2 1.1-1.3 2.3-2.5 3.3-3.6 10.6-10.6 23.3-15.1 30.8-12.5 7.5 2.6 14.7 9.3 10.5 13.5s-20.3 17.6-20.3 17.6z"/><path class="st6" d="M679.9 627.8c11.1 6.7 25.2 13.3 28.5 16 33.1 27.4 10.5 116.3 12.2 174.7-9.5-4.9-30-15.8-40.3-24.2-12.7-10.4-9.3-129.6-.4-166.5zM582.3 634.5c7-4.8 12.7-7.8 17.6-10.3 4.7-2.4 8.7-4.3 12.4-7l9.5 8.4 43.2-9c.6 1.3 12.1 9.3 14.8 11.3l-43.7 136.3h-83.5c.2 0 28-94 29.7-129.7z"/><path class="st13" d="M644.7 521.2c-.4 0-.8-.2-1.1-.5-.3-.3-6.8-8.2-10.3-16.4-3.4-8.1-6.8-21.2-6.9-21.8-.2-.8.3-1.6 1.1-1.8.8-.2 1.6.3 1.8 1.1 0 .1 3.5 13.4 6.8 21.4 3.3 7.8 9.7 15.6 9.8 15.7.5.6.4 1.6-.2 2.1-.4.1-.7.2-1 .2z"/><path class="st2" d="m552.7 951.2-16.2-190.9-50.1 206.2z"/><path class="st13" d="M715.6 510.4c-9 0-15.2-4.1-15.6-4.3-.7-.5-.9-1.4-.4-2.1.5-.7 1.4-.9 2.1-.4.1.1 10.8 7 23.9 1.9 12.9-5.1 13.4-15.3 13.5-15.7 0-.8.7-1.4 1.5-1.4s1.5.7 1.4 1.5c0 .5-.5 12.6-15.3 18.4-4 1.5-7.7 2.1-11.1 2.1z"/><path class="st4" d="M670.9 552.9c-.5 1.3.2 2.7 1.5 3.1 1.3.5 2.7-.2 3.1-1.5.5-1.3-.2-2.7-1.5-3.1-1.3-.4-2.7.2-3.1 1.5z"/><path class="st3" d="M760.7 1052.1c-5-81-18-151.1-37.7-198.5-1.2-2.9-1.9-16.3-2.4-35.1-9.5-4.9-30-15.8-40.3-24.2-12.7-10.4-9.3-129.6-.3-166.5-3.6-2.2-6.9-4.3-9.5-6.2l-44.1 113.3H569s11.7-64.7 13.4-100.5c-2.2 1.5-4.6 3.3-7.1 5.2-5.5 4.3-10.7 8.9-15.5 13.8-5.4 9-10.1 19.8-13.2 32.7-7 29.6-9.8 63.4-10.9 88.9-.1 2.1-8.7 85.8-28.1 191.4-36.1 196.4-77 798.2-77 798.2s37.1 13.7 74.9 13.6c33.8-.1 62-3.3 77.1-13.6l30.8-394.4c18.8 178.1 39.8 381.1 42.1 387.3 4.1 10.8 40.6 22.3 65.6 27.7 25 5.4 58.1-1 87.8-7.1 15.7-3.2-43.7-652.2-48.2-726z"/><path class="st4" d="M543 1127.6c4.8 0 8.7-3.9 8.7-8.7 0-4.8-3.9-8.7-8.7-8.7-4.8 0-8.7 3.9-8.7 8.7-.1 4.8 3.9 8.7 8.7 8.7zM602.9 1152.3c-4.8 0-8.7 3.9-8.7 8.7 0 4.8 3.9 8.7 8.7 8.7 4.8 0 8.7-3.9 8.7-8.7.1-4.8-3.8-8.7-8.7-8.7z"/><circle transform="rotate(-45.001 704.644 999.42)" class="st4" cx="704.7" cy="999.4" r="8.7"/><path class="st4" d="M593.8 969.4c0-4.8-3.9-8.7-8.7-8.7s-8.7 3.9-8.7 8.7c0 4.8 3.9 8.7 8.7 8.7s8.7-3.8 8.7-8.7zM729.7 886c1.6 0 3.1-.4 4.3-1.2-1.7-5.6-3.5-11-5.3-16.3-4.4.5-7.8 4.2-7.8 8.7.1 4.9 4 8.8 8.8 8.8zM556.4 837.6c4.8 0 8.7-3.9 8.7-8.7 0-4.8-3.9-8.7-8.7-8.7s-8.7 3.9-8.7 8.7c0 4.8 3.9 8.7 8.7 8.7zM570.6 807.8c4.8 0 8.7-3.9 8.7-8.7 0-4.8-3.9-8.7-8.7-8.7-4.8 0-8.7 3.9-8.7 8.7-.1 4.7 3.8 8.7 8.7 8.7zM644.9 762c4.8 0 8.7-3.9 8.7-8.7 0-4.8-3.9-8.7-8.7-8.7s-8.7 3.9-8.7 8.7c-.1 4.8 3.8 8.7 8.7 8.7zM540.6 999.4c0 4.8 3.9 8.7 8.7 8.7 4.8 0 8.7-3.9 8.7-8.7s-3.9-8.7-8.7-8.7c-4.8 0-8.7 3.9-8.7 8.7zM734.5 1195.7c-4.8 0-8.7 3.9-8.7 8.7 0 4.8 3.9 8.7 8.7 8.7 4.8 0 8.7-3.9 8.7-8.7 0-4.8-3.9-8.7-8.7-8.7zM693.2 1249.6c0 4.8 3.9 8.7 8.7 8.7 4.8 0 8.7-3.9 8.7-8.7s-3.9-8.7-8.7-8.7c-4.8-.1-8.7 3.8-8.7 8.7zM474.6 1255c4.8 0 8.7-3.9 8.7-8.7 0-4.8-3.9-8.7-8.7-8.7h-.7c-.6 5.7-1.1 11.4-1.7 17.1.8.2 1.6.3 2.4.3zM488.1 1232.1c0 4.8 3.9 8.7 8.7 8.7 4.8 0 8.7-3.9 8.7-8.7 0-4.8-3.9-8.7-8.7-8.7-4.8 0-8.7 3.9-8.7 8.7zM753.7 1101.4c0 4.8 3.9 8.7 8.7 8.7.9 0 1.8-.2 2.7-.4-.5-6-1-11.7-1.4-16.9-.4-.1-.9-.1-1.3-.1-4.8-.1-8.7 3.9-8.7 8.7zM593.8 1300.2c4.8 0 8.7-3.9 8.7-8.7s-3.9-8.7-8.7-8.7c-4.8 0-8.7 3.9-8.7 8.7s3.9 8.7 8.7 8.7zM514.3 1060.2c4.8 0 8.7-3.9 8.7-8.7s-3.9-8.7-8.7-8.7c-4.8 0-8.7 3.9-8.7 8.7s3.9 8.7 8.7 8.7zM664.7 1434.5c4.8 0 8.7-3.9 8.7-8.7 0-4.8-3.9-8.7-8.7-8.7-4.8 0-8.7 3.9-8.7 8.7 0 4.8 3.9 8.7 8.7 8.7zM710.7 1028.4c0 4.8 3.9 8.7 8.7 8.7 4.8 0 8.7-3.9 8.7-8.7 0-4.8-3.9-8.7-8.7-8.7-4.8 0-8.7 3.9-8.7 8.7zM666.2 1069c0-4.8-3.9-8.7-8.7-8.7-4.8 0-8.7 3.9-8.7 8.7 0 4.8 3.9 8.7 8.7 8.7 4.8 0 8.7-3.9 8.7-8.7z"/><circle transform="rotate(-7.227 505.695 1355.816)" class="st4" cx="505.6" cy="1355.6" r="8.7"/><circle transform="rotate(-67.649 564.847 1494.558)" class="st4" cx="564.9" cy="1494.6" r="8.7"/><circle transform="rotate(-82.998 542.978 1503.413)" class="st4" cx="543" cy="1503.4" r="8.7"/><circle transform="rotate(-67.623 687.346 1343.928)" class="st4" cx="687.3" cy="1343.9" r="8.7"/><circle transform="matrix(.9997 -.02304 .02304 .9997 -38.328 11.49)" class="st4" cx="479.4" cy="1668.7" r="8.7"/><path class="st4" d="M564.9 1601.8c-4.8 0-8.7 3.9-8.7 8.7 0 4.8 3.9 8.7 8.7 8.7 4.8 0 8.7-3.9 8.7-8.7 0-4.8-3.9-8.7-8.7-8.7zM547.4 1749c4.8 0 8.7-3.9 8.7-8.7 0-4.8-3.9-8.7-8.7-8.7s-8.7 3.9-8.7 8.7c0 4.7 3.9 8.7 8.7 8.7zM728.2 1458.1c4.8 0 8.7-3.9 8.7-8.7 0-4.8-3.9-8.7-8.7-8.7-4.8 0-8.7 3.9-8.7 8.7-.1 4.7 3.8 8.7 8.7 8.7zM682.2 1567.6c0-4.8-3.9-8.7-8.7-8.7-4.8 0-8.7 3.9-8.7 8.7 0 4.8 3.9 8.7 8.7 8.7 4.8 0 8.7-3.9 8.7-8.7zM803.6 1593.1h-.8c-4.8 0-8.7 3.9-8.7 8.7s3.9 8.7 8.7 8.7c.7 0 1.3-.1 1.9-.2-.3-5.6-.7-11.3-1.1-17.2zM682.2 1740.2c4.8 0 8.7-3.9 8.7-8.7 0-4.8-3.9-8.7-8.7-8.7-4.8 0-8.7 3.9-8.7 8.7 0 4.8 3.9 8.7 8.7 8.7zM788.3 1652.7c4.8 0 8.7-3.9 8.7-8.7 0-4.8-3.9-8.7-8.7-8.7-4.8 0-8.7 3.9-8.7 8.7 0 4.8 3.9 8.7 8.7 8.7z"/><path class="st2" d="M713.4 839.9s-4.1 63.9-30.1 105.1c-26 41.2-93.7 42.9-131.5 29.2s-42.4-20.6-42.4-20.6 58.6 5.3 104.8-5.9c46.1-11.2 90.6-110 90.6-110l8.6 2.2z"/><path class="st10" d="M431.3 881.3s-9.5-10.9-15.2-13.5c-5.7-2.6-15-2.3-23.1-5.3-8.6-3.2-15-11.2-18.3-6.7-3.3 4.5 4.7 13.3 10 15.9 5.2 2.6 10.7 2.7 7.8 5.5-2.8 2.8-34.8-7.4-37.9-2.7-3.1 4.7 5 11.8 5 11.8s-1.4 7.1-.7 10c.7 2.8 4.7 5.7 4.7 5.7s-.5 4.7 1.2 7.3c1.7 2.6 4.5 5 11.4 5.9 6.9.9 50.5 5.2 59 0 8.4-5.3 6.8-29.7-3.9-33.9z"/><path class="st10" d="M637.4 807.8c-9.2 36.3-15 64.8-15 64.8S401.5 857.5 392.9 892c-7.3 29 184.7 111.8 265.7 58.3 27.5-18.1 43.6-65.9 52.1-117.7-35.8 4.3-60.3-12.2-73.3-24.8z"/><path class="st6" d="M716 843.1c13.1-79.7 11.9-173.5 3-179.6-9.7-6.7-35.7-20.4-45.9-1-16.2 30.9-31.5 106.1-42.3 148.8 13.1 12.6 49.4 36 85.2 31.8z"/><path class="st10" d="M352.5 793.2s-18.8-2.2-22.1 6c-3.4 8.3 4.7 12.8 4.7 12.8s-5.2 5.3-5.2 10.1 7.7 6.1 7.7 6.1-4.3 4.3-3.7 7.2c.6 2.9 7.7 6.1 7.7 6.1s-2.2 2.5.1 5.5c2.3 2.9 27.7 6 33.8.4 6.1-5.6-7.2-9.5-7.2-9.5s6.7-.3 8.6-5.2c1.9-4.9-6.7-7.5-6.7-7.5s9.1-.8 8.3-5.2c-.8-4.4-14.8-9.1-14.8-9.1l-13.5-4.1s22.1 2.6 26.4-2.4c4.1-5.1-24.1-11.2-24.1-11.2z"/><path class="st2" d="M613.5 1371.3c-.5 0-1-.4-1-.9l-19.7-288.5c0-.6.4-1 .9-1.1.6 0 1 .4 1.1.9l19.7 288.5c0 .5-.4 1-1 1.1z"/><path class="st2" d="M597.2 1132.7c-.4 0-.8-.2-.9-.6l-18.7-49.9c-.2-.5.1-1.1.6-1.3s1.1.1 1.3.6l18.7 49.9c.2.5-.1 1.1-.6 1.3h-.4zM634.8 641.3l-13.5-8.3c-7.6 7.8-8.5 8.1-8.7 8.1-.6.2-1.4.4-16.9-12.6-.4-.4-.5-1-.1-1.4.4-.4 1-.5 1.4-.1 5.4 4.5 13.3 10.9 15.2 12 1.2-.9 4.9-4.6 8.2-8l.6-.6 13.9 8.6 28.3-12.2c.5-.2 1.1 0 1.3.5.2.5 0 1.1-.5 1.3l-29.2 12.7zM651.6 895c-.4 0-.8-.2-.9-.6-6.9-17.4-28.3-20.8-28.5-20.8-.5-.1-.9-.6-.8-1.1.1-.5.6-.9 1.1-.8.9.1 22.7 3.6 30 22 .2.5 0 1.1-.6 1.3h-.3z"/><path class="st8" d="M924 1197.2c-2.5-3.9-4.2-5.3-4.4-2.4-.3 3 13.1 36.1 9.3 39.3-3.9 3.3-19.5-23.1-23.1-28.6-3.6-5.5-3.1-28.2 1.8-38.5 3-6.2 6.6-13.5 7.3-18.1 2.2-14.9 1.2-27.1.1-33.3-6-33.9 46.9-4.6 47.8.1 5.3 27.6-1.1 47.5-1.4 57.3-.2 9.7 9.4 35.9 5.8 40-3.6 4.1-16.1-14.7-16.1-14.7s8.3 23.5 5.8 29.4c-2.5 5.9-10.2-1.4-10.2-1.4s7.4 13.5-.4 13.2-19.7-38.4-22.3-42.3z"/><path class="st8" d="M980.4 682.8s-17.3 26-37.4 134.4c-2.8 15.3-10 72-13.4 86.6-24.1 104.3-26.7 255-1.3 250.3 25.4-4.7 79.2-211.9 86.7-278.1 7.5-66.2-34.6-193.2-34.6-193.2z"/><path class="st5" d="M1129.7 448.7s7.6 70.1-18.3 77.9c-25.8 7.8-7.3-62.4-3.4-68.9 4-6.3 21.7-9 21.7-9z"/><path class="st12" d="m1018.7 803.4-6.7-192.3s-26.1 16.9-48.9 83.7c-15.7 45.9-21.8 84.8-24.1 104.7 5.4 3.4 16.5 7.8 38.1 8.6 16.1.6 30.5-1.8 41.6-4.7z"/><path class="st4" d="M977.1 808.1c-21.6-.8-32.6-5.2-38.1-8.6-1.1 9.1-1.3 14.3-1.3 14.3s32.1 19.4 81.5 3.3l-.5-13.8c-11.1 3-25.5 5.4-41.6 4.8z"/><path class="st6" d="M1043.2 1821.1s.4-73.2 6.7-97.2-49.9-37-56.6-23.6c-6.7 13.5-6.1 91-15.8 101.1-9.6 10.2 50.8 43.8 65.7 19.7z"/><path class="st2" d="M877.2 1847.5c3.1-8.8 22.6-10.1 40.8-15.1 18.2-5 27-17.6 35.8-27 8.8-9.4 22.6-7.5 22.6-7.5s4.4 3.8 15.1 8.8c10.7 5 7.5 11.3 22.6 8.2s23.9 0 23.9 0l6.9 1.9c3.3.9 4 9.3 3.6 18.4-10.8 4.9-34.1 14.7-50.1 16.1-21.4 1.9-93 6.3-104.3 3.1-5.2-1.4-11.7-3.8-17.3-5.9.2-.3.3-.6.4-1z"/><path class="st6" d="M894.2 1854.5c11.3 3.1 82.9-1.3 104.3-3.1 16-1.4 39.3-11.3 50.1-16.1-.4 10.1-2.3 21-3.6 23.7-2.5 5-24.5 7.5-35.8 9.4-11.3 1.9-119.4 1.8-124.5.6-4.8-1.2-10.2-11.6-7.8-20.3 5.6 2 12.1 4.3 17.3 5.8zM1251.3 1821.1s-.4-73.2-6.7-97.2 49.9-37 56.6-23.6c6.7 13.5 6.1 91 15.8 101.1s-50.8 43.8-65.7 19.7z"/><path class="st2" d="M1417.3 1847.5c-3.1-8.8-22.6-10.1-40.8-15.1s-27-17.6-35.8-27c-8.8-9.4-22.6-7.5-22.6-7.5s-4.4 3.8-15.1 8.8c-10.7 5-7.5 11.3-22.6 8.2s-23.9 0-23.9 0l-6.9 1.9c-3.3.9-4 9.3-3.6 18.4 10.8 4.9 34.1 14.7 50.1 16.1 21.4 1.9 93 6.3 104.3 3.1 5.2-1.4 11.7-3.8 17.3-5.9-.2-.3-.3-.6-.4-1z"/><path class="st6" d="M1400.3 1854.5c-11.3 3.1-82.9-1.3-104.3-3.1-16-1.4-39.3-11.3-50.1-16.1.4 10.1 2.3 21 3.6 23.7 2.5 5 24.5 7.5 35.8 9.4 11.3 1.9 119.4 1.8 124.5.6 4.8-1.2 10.2-11.6 7.8-20.3-5.5 2-12.1 4.3-17.3 5.8z"/><path class="st12" d="M1230.7 997.3c19.1-3.8-.4-60.8-1.9-80.6-11-149.2-13.5-245.6-39.5-280.3-25.5-34.2-85.3-85-162-38.3-48.3 29.5-78 152.1-79 269.3-.4 48.4-18.5 94.6-10.6 136.4 60.4 36.9 206.6 39.5 293-6.5z"/><path class="st2" d="M1230.7 997.3s-82.1 19.1-147.9 21.1c-93.7 2.8-145-15-145-15l34.9 775.8s3.9 8.5 34.7 10.4c35 2.1 45.5-7.2 45.5-7.2s24.7-164 26.2-219.1c.3-11.8-3-47.2-3-47.2l-5.7-374.2c57.1 148.9 159.4 644.9 159.4 644.9s23.6 4 47.6 2.5c34.8-2.1 44.4-6.9 44.4-6.9l-25.2-217.8-10.7-92.6-55.2-474.7z"/><path class="st8" d="M1102 511.9s1.4 37 5.1 49.6c4.2 14.3 12.2 20.7 12.2 20.7s-35.8 34.1-52.8 27.2c-23.6-9.6-2.3-26 1.2-46.3 2.4-13.5 34.3-51.2 34.3-51.2z"/><path class="st2" d="M1084.7 565.3c8.1-8.7 9.7-22.7 9.7-22.7s-12.8 5.8-23.2 11.7c-1.9 3.5-3.2 6.6-3.6 8.9-.8 4.4-2.4 8.7-4.2 12.7 6.9-1.9 16.4-5.4 21.3-10.6z"/><path class="st8" d="M1025.3 468.7s-5.3-3.4-8.4.5c-3 3.9-2.4 24.8 2.2 25.4 4.6.6 11.1-20.4 6.2-25.9z"/><path class="st5" d="M1027.9 442.3s-5.1 5.3-7.2 14.5c-2.2 9.2-2.6 23 3.7 24.9 6.3 1.9 18.8-29.4 16.1-35.3-2.8-5.8-12.6-4.1-12.6-4.1z"/><path class="st8" d="M1126.3 478.9c-4.3-1.6-7.6-1.6-9.5-3.1-.6-.5-1.1-1.1-1.4-2-.4-1.1-.5-2.6-.3-4.7 0 0 4.7-23.6-10.9-38-15.6-14.4-54.5-13-66.6 4.1-12.1 17-13.8 37.8-16.1 49.1-1 5.1-2.9 22.2-3.4 31.1-1.1 16.6.2 43 33.5 47.5 37.2 5 47.8-18.5 52.5-29.1s7.2-23.7 7.2-23.7 14.6-3.3 17.8-10.3c3.2-7 4.8-18.2-2.8-20.9z"/><path class="st5" d="M1016 516.1c.2-1.9 2.2-3.1 4-2.5 2.1.7 5.2 1.4 9.3 1.5 8.5.1 6.3-2.2 16.1-.7 9.8 1.6 12.1 2.4 21.6 4 8.2 1.4 16.7 5.2 23.8 1.1 6-3.5 8.8-10.8 9.4-13.1 2-6.8 5.6-20.3 9.8-17.8 4.2 2.5.2 29.9-.9 38.6-1.1 8.7-6.4 20.9-11.6 25.1-5.1 4.2-11.5 15.8-31.2 19.8-13.3 2.7-35.9 3.4-45.4-14.1-5.7-10.5-4.9-20.6-5.8-25.8-.5-3.5.3-11.3.9-16.1z"/><path class="st2" d="M1048.1 515.5c-4.5 0-7.8-1.2-9.4-3.5-1.4-1.9-1.4-4.5 0-7.1.7-1.4 1.7-2.7 2.7-4.1 2.6-3.5 5.6-7.6 6.5-15.4.9-7.2.6-11.1-.9-13-.8-.9-1.9-1.4-3.5-1.6-5.5-.5-15.1 2.3-15.2 2.3-.5.2-1.1-.2-1.2-.7-.2-.5.2-1.1.7-1.2.4-.1 10-2.9 15.9-2.4 2.2.2 3.8.9 4.9 2.3 2.3 2.8 2.2 7.8 1.4 14.5-1 8.3-4.3 12.7-6.9 16.3-1 1.3-1.9 2.6-2.6 3.8-1 1.9-1 3.7-.1 5 1.6 2.3 5.9 3.1 11.7 2.3.5-.1 1.1.3 1.1.9.1.5-.3 1.1-.9 1.1-1.5.4-2.9.5-4.2.5zM1087.7 479.3c-.3 0-.5-.1-.7-.3-.1-.1-5.9-5.5-18.1-5.5-.6 0-1-.4-1-1s.4-1 1-1c13.1 0 19.3 5.8 19.5 6 .4.4.4 1 0 1.4-.2.3-.5.4-.7.4z"/><ellipse transform="rotate(-79.56 1073.735 511.157)" class="st15" cx="1073.7" cy="511.1" rx="6.9" ry="10.8"/><path class="st15" d="M1036.5 504.6c-.6 3.4-5.7 5.4-11.3 4.4-5.6-1-9.6-4.7-9-8.1.6-3.4 5.7-5.4 11.3-4.4 5.6 1 9.6 4.7 9 8.1z"/><path class="st2" d="M1080.5 491.1c-.3 0-.5-.1-.7-.3-6.6-6.9-14.7-1.7-15-1.5-.5.3-1.1.2-1.4-.3-.3-.5-.2-1.1.3-1.4.1-.1 9.8-6.4 17.6 1.7.4.4.4 1 0 1.4-.3.3-.6.4-.8.4z"/><path class="st2" d="M1066.9 487.7s-4.5 7.9 1.3 9 8.2-6.3 6.1-8.3c-2-1.8-5.1-3.4-7.4-.7zM1043.4 488c-.3 0-.5-.1-.7-.3-6.6-6.9-14.7-1.7-15-1.5-.5.3-1.1.2-1.4-.3-.3-.5-.2-1.1.3-1.4.1-.1 9.8-6.4 17.6 1.7.4.4.4 1 0 1.4-.3.3-.5.4-.8.4z"/><path class="st2" d="M1029.8 484.4s-4.5 7.9 1.3 9c5.8 1.1 8.2-6.3 6.1-8.3-2.1-1.8-5.2-3.4-7.4-.7z"/><path class="st5" d="M1136.6 436.1c-3.9-9.4-14.6-11-14.6-11s6.3-2.5-.6-10.8-22.5-7.5-22.5-7.5 7-2.9 3.3-6.9c-3.7-4.1-10.6-6.9-52.1-2.6-41.5 4.3-31.1 42.1-21.2 49.9 3.8 3 8.6 5.8 13.1 8.1 7.2 3.7 21.5 4.3 29.7 3.8 34.1-2.2 54.8 1.1 57.7-1 3.4-2.5 11.1-12.6 7.2-22z"/><path class="st5" d="M1085.4 448.5s16.1 6.5 18.9 12.6c2.7 6.2-5.3 28.6 0 34.5 5.3 5.9 12-13.6 15.1-21.6s6.1-20.8-1.3-24.6c-7.4-3.7-31.9-2-32.7-.9z"/><path class="st2" d="M1060.7 486.1s-7.1-2.7-11.5-2.9c-4.5-.1-6.7.4-6.7.4l-1.2 3.6s12.1-.7 15.2 1.5c3 2.4 4.2-2.6 4.2-2.6z"/><path class="st2" d="M1092 482c-1.8-1.4-12-1-14.7-1.3-2.7-.3-14.8-1.3-18.3 2.7s-1.4 11-1.2 15.9c.2 4.9 1.9 10.5 13.5 10.2 7.2-.2 13.4-.4 17.8-8.2 2.2-3.9 1.7-10.5 1.7-11.1 0-.6 2.4-3.3 2.4-3.3s.7-3.5-1.2-4.9zm-4.3 9.5c.4 15.9-10 16.2-16.5 16.2-6.5.1-9.6-2.9-10.2-4.5-.6-1.6-3.9-14.6.5-17.6 4.3-3 21.5-1.2 24.4-.3s1.8 6.2 1.8 6.2zM1023.9 476.6c-3.2.1-9 .1-10.7.1-1.7 0-.9 2.1-1 4.9-.1 2.8 2.7 2.5 3.8 1.8s-1.1 12.6-.7 15.2c.4 2.6 5.8 7.8 16.2 6.6 10.4-1.2 12.6-19.3 13.7-21.4 1-2-14.3-7.4-21.3-7.2zm16.3 12.8c-2.2 15.6-9.9 13.4-14.9 12.7s-6.9-3.9-7.1-5.5c-.2-1.6-.7-14.7 3.1-17.2s16.8 2.1 18.9 3.3c2.1 1.3 0 6.7 0 6.7z"/><path class="st2" d="M1088.4 482.6s31.1-7.7 32.1-7.2.8 1.6.4 2.4c-.3.7-32 12.2-32 12.2l-.5-7.4z"/><path class="st4" d="m1061 579.2 6.3 20.6 48.4-26.4 7.5 12.5-38 32.5-19.5-10-15.7.5s1.7-11.2 5.7-22.5c.9-2.6 5.3-7.2 5.3-7.2zM1031.3 518.5s9.2 3.1 18 3.8c8.8.7 13.3.5 13.3.5s-4.2 8.6-16 9.3-17.3-8.8-15.3-13.6z"/><path d="M1325.9 868h-279.4c-4.7 0-8.5 3.8-8.5 8.5V1079c0 4.7 3.8 8.5 8.5 8.5h279.4c4.7 0 8.5-3.8 8.5-8.5V876.5c0-4.7-3.8-8.5-8.5-8.5z" style="fill:#c9c7c5"/><path class="st8" d="M1227.5 1024.1s-13 5.8-17.2 10.4-6.6 13.4-11.8 20.2c-5.5 7.2-15 10.9-11.7 15.3 3.3 4.4 13.9-.6 17.9-4.8 4-4.2 5.7-9.3 7.5-5.8 1.8 3.5-17.2 30.7-13.6 35 3.6 4.3 12.6-1.2 12.6-1.2s6.3 3.4 9.2 3.6c2.9.2 6.7-2.8 6.7-2.8s4.3 1.8 7.3 1c2.9-.8 6-2.8 8.9-9 2.9-6.2 19.7-46.1 17.2-55.6-2.3-9.5-25.8-15.1-33-6.3z"/><circle class="st4" cx="1186.2" cy="977.8" r="12.4"/><path class="st8" d="M1357.3 775.1c-7-11.3-17.8-23.9-30.6-37-14.6 39.2-56.9 51.5-71.6 54.7 22.4 28 40 51.8 38.5 66.9-3.3 34.8-65.8 171.9-65.8 171.9-3.7 10.4 4.7 16.8 16.7 11.5 7.7-3.4 102.9-63.6 127.8-134.4 14.3-40.5 19.5-78.1-15-133.6z"/><path class="st12" d="M1317.5 729.2c-60.2-57.8-154.7-120.8-154.7-120.8s0 32.3 11 63.1c13.7 38.1 49.9 91.7 78.3 128.4 5.7-3 20.2-11.6 38.5-29.1 14.9-14.4 23-31.1 26.9-41.6z"/><path class="st4" d="M1317.5 729.2c-3.9 10.5-12 27.3-26.9 41.6-18.3 17.6-32.9 26.1-38.5 29.1 2.6 3.3 5 6.5 7.4 9.5 14.7-3.1 52.6-31.9 67.1-71.1-2.9-3.1-6-6.1-9.1-9.1z"/><path class="st2" d="M1216.4 751c-.3 0-.5-.1-.7-.3-40.5-42.5-56.6-111.8-56.7-112.5-.1-.5.2-1.1.8-1.2.5-.1 1.1.2 1.2.8.2.7 16.1 69.5 56.2 111.5.4.4.4 1 0 1.4-.3.2-.6.3-.8.3z"/><path class="st2" d="M1181.5 698.7c-.4 0-.7-.2-.9-.5-8.7-16.5-27.5-40.9-27.7-41.1-.3-.4-.3-1.1.2-1.4.4-.3 1.1-.3 1.4.2.2.2 19.1 24.8 27.8 41.4.3.5.1 1.1-.4 1.4-.1-.1-.3 0-.4 0z"/><path class="st4" d="M1058.1 604.3s-12.7 45.9-12.7 73.7l20.8 1.5s4.5-55.3 7.3-63.1c2.8-7.8 3-10 3-10s-11.2-4.7-18.4-2.1z"/><path class="st2" d="M1064.8 613.6c-.4 1.5-1.1 2.7-1.6 2.6-.5-.1-.6-1.5-.2-3s1.1-2.7 1.6-2.6c.5.1.6 1.4.2 3zM1060.6 634.2c-.4 1.5-1.1 2.7-1.6 2.6-.5-.1-.6-1.5-.2-3 .4-1.5 1.1-2.7 1.6-2.6.5.1.6 1.4.2 3zM1056.6 659.1c-.2 1.6-.7 2.8-1.2 2.8-.5-.1-.7-1.4-.6-3 .2-1.6.7-2.8 1.2-2.8.5.1.8 1.4.6 3z"/><path class="st17" d="M1070.3 1142.8c-.4 0-.8-.3-.9-.7-14.4-41.3-44.9-50.5-45.2-50.6-.5-.2-.8-.7-.7-1.2.2-.5.7-.8 1.2-.7.3.1 31.8 9.5 46.6 51.9.2.5-.1 1.1-.6 1.3h-.4z"/><path class="st17" d="M1051.3 1131.4c-.2 0-.5-.1-.7-.3-2.1-1.9-13.5-3-24.6-4-18.5-1.7-39.5-3.6-43.1-10.5-.8-1.5-.4-2.6.1-3.2 1.5-2 6.7-4.1 34.6-.2 15.1 2.1 29.9 5.1 30 5.1.5.1.9.6.8 1.2-.1.5-.6.9-1.2.8-22.4-4.5-59.3-10-62.6-5.6-.1.1-.3.4.1 1.1 3.1 5.9 24.4 7.9 41.6 9.4 14.4 1.3 23.3 2.2 25.8 4.5.4.4.4 1 0 1.4-.3.2-.5.3-.8.3z"/><path class="st2" d="M935.7 988.8c-.5 0-.9-.4-1-.9-1.3-12.1 5.9-60.5 7.3-69.6.3-1.9.6-3.7 1-5.5 1.9-9.7 4.2-21.9 5-72.9.9-60 17.6-127.2 17.8-127.8.1-.5.7-.9 1.2-.7.5.1.9.7.7 1.2-.2.7-16.8 67.6-17.7 127.4-.8 51.2-3.1 63.5-5 73.3-.4 1.8-.7 3.6-1 5.4-2.3 14-8.5 58.2-7.3 69 .1.5-.3 1-.9 1.1h-.1z"/><path class="st17" d="M1070.3 1520.8c-.4 0-.8-.3-1-.7-1.5-5.1-37.1-126-37.1-142 0-2.5.2-5.2 2.1-5.4 5.2-.6 15.3 31 18.4 44.6 5.5 23.8 10.8 45.9 10.9 46.1.1.5-.2 1.1-.7 1.2-.5.1-1.1-.2-1.2-.7-.1-.2-5.4-22.3-10.9-46.1-4.8-20.8-13.4-41.5-16.2-43-.1.3-.4 1.1-.4 3.3 0 15.7 36.6 140.2 37 141.4.2.5-.1 1.1-.7 1.2 0 0-.1.1-.2.1z"/><path class="st2" d="M1303 876c-.5 0-.9-.3-1-.8 0-.2-4.9-22.7-13.4-32.4-.4-.4-.3-1 .1-1.4.4-.4 1-.3 1.4.1 8.9 10.1 13.6 32.3 13.8 33.3.1.5-.2 1.1-.8 1.2h-.1zM1687.2 412s133.5 104.5 201.4 204.4c22.6 33.3 44.9 89.7 32.4 123.9-24.3 66.8-106.2 57.3-141.2 6.9-32.1-46.4-92.6-335.2-92.6-335.2z"/><path class="st8" d="M1649.2 272.2s5.9-7.8 9.7-3.6c3.7 4.3 5.9 34.5-4 35.4-9.9.9-10.1-28.9-5.7-31.8z"/><path class="st2" d="M1532 258.5s2 62.6 33.4 68.8c31.4 6.2 12.8-73.8 7.1-79.7-5.8-5.9-39.8-20.1-40.5 10.9zM1641.5 239.5s8.9-3.9 11.6 4.6c2.7 8.5 4 37.4.7 42.5-3.2 5-23.8-42.5-12.3-47.1zM1890.5 1882.9s62.5 38.1 62.4 44.1c0 14.5-23 17.9-55.8 14.4-32.8-3.5-58.5-18.5-58.5-18.5l-7.1-7.5v8.5l-26.1-8.5s-5.9-20.4-2.7-38c.7-3.9 6.7-12.8 13.6-14.8 16.1-4.5 43.3 3.1 74.2 20.3z"/><path class="st6" d="M1862.5 1871.1s-11.5-4.5-15.8-.2-21.2 14.9-23.7 10.3c-7.8-14.8-13.4-13.8-13.4-14.6s-8.3-39.1 3.1-41.1 42.4-12.7 44.7-8c2.3 4.8 2.8 52.3 5.1 53.6z"/><path class="st2" d="M1346.6 1880s-70.3 32-72.6 46.5c-2.2 14.5 25.6 15.5 58.8 12 33.2-3.5 60.7-18.5 60.7-18.5l8-7.5-1 8.5 27.2-8.5s8.4-20.4 7.3-38c-.2-3.9-5.1-12.8-11.8-14.8-15.6-4.4-43.7 3.2-76.6 20.3z"/><path class="st6" d="M1375.9 1868.3s12.1-4.5 15.9-.2 19.4 14.9 22.4 10.3c9.6-14.8 15.1-13.8 15.2-14.6s13.1-39.1 2-41.1-37.6 4.7-40.5 9.3c-3 4.8-12.5 34.9-15 36.3z"/><path class="st5" d="M1713.3 917.2c-38.8-4.8-82.9-12-107.8-16.2-110.7-13.4-169.7 114.9-169.7 114.9-38.9 349.8-56.6 696.2-89.1 833.5 0 0 20 8.9 58.8 8.9 33.1 0 53.9-8.9 53.9-8.9l190.6-757.2 112.4 757.2s27.7 14.5 76.4 10.4c33-2.7 45.6-11.6 45.6-11.6s-29.2-372.2-60.7-751.7c-11.1-189.2-62.7-172.4-110.4-179.3z"/><path class="st2" d="M1752.5 520.8c-22.9-55.6-86.6-212.3-219.7-116.9-25.4 18.2-55.4 32.8-55.4 158.8 0 83-11.3 123.1-21.3 207-10.4 86.7-29.3 211-33.7 272.4 0 0 88.5 21.5 198.7 21.3 5.7 0 22.7-99.5 28.5-99.6 5-.1 19.1 101.8 24.1 101.6 65.2-3.2 122-16 169.6-49.6-6.5-58.2-64.1-430.1-90.8-495z"/><path class="st4" d="M1570.1 388.7s2.2-7.1 17-8.2c14.8-1.1 33.8-4.7 43.3 1.1 9.5 5.7 22.4 43.8 31.6 86.5 6.4 29.7 11.9 295.4 3.3 297.7-20.7 5.5-79.7-210.1-91-275.3-11.3-65.1-6.3-94.9-4.2-101.8z"/><path class="st8" d="M1581.4 330.9s.4 32.3-6.6 52.1c-4.1 11.6 22.1 40.1 41.2 38.3 22.6-2.2 12.6-42.8 9.7-51.5s-6.4-34.3-8.1-38c-1.8-3.7-31.3-6.7-36.2-.9z"/><path class="st2" d="M1625.6 369.7c-1-3.1-2.1-8.2-3.2-13.7-11.3.2-33.5.3-35.9-1.7 0 0 5.1 10 20.2 14 8 2.1 14.5 2 18.9 1.4z"/><path class="st8" d="M1642.9 235.9s8.3 31 10.8 40.5c2.5 9.4 6 17.3 7.4 31.8 1.6 16.2 2.5 51.9-43.6 55.3-26.5 1.9-39-15.5-47-29.2-8-13.8-7.9-20.5-7.9-20.5s-4.3 1.8-10.3-8.1c-6-9.9-12-23.9-2.7-26.9s7.3 2.8 9.4 1.8c2.1-1 7.3-28.4 18.9-33.9s55.5-23.2 65-10.8z"/><path class="st2" d="M1589.3 271.6c-.4 0-.8-.2-.9-.6-.2-.5 0-1.1.6-1.3.4-.2 9.8-3.9 16.5-4.4 7-.5 10.6 3.6 10.7 3.7.4.4.3 1.1-.1 1.4-.4.4-1 .3-1.4-.1-.1-.1-3.1-3.5-9.1-3-6.4.5-15.8 4.2-15.9 4.2-.2.1-.3.1-.4.1z"/><path class="st15" d="M1589.4 302.1c.8 3 6 4.2 11.7 2.7 5.7-1.5 9.6-5.1 8.8-8.1-.8-3-6-4.2-11.7-2.7-5.6 1.5-9.6 5.2-8.8 8.1zM1636.4 293.6c-.3 3.1 4.1 6.1 9.9 6.7 5.8.7 10.8-1.3 11.2-4.3.3-3.1-4.1-6.1-9.9-6.7-5.8-.7-10.8 1.3-11.2 4.3z"/><path class="st2" d="M1589.4 285c-.2 0-.5-.1-.6-.2-.4-.4-.5-1-.1-1.4.1-.1 2.3-2.6 5.7-4.5 4.7-2.5 9.4-2.5 13.7 0 .5.3.6.9.4 1.4-.3.5-.9.6-1.4.4-3.7-2.1-7.7-2.1-11.7 0-3.1 1.7-5.2 4-5.2 4.1-.2 0-.5.2-.8.2z"/><path class="st2" d="M1600.5 278.4s.9-.3 2.6.9c1.7 1.2 2.7 6.9-.2 9.8-3 2.9-6.4.8-7.8-2.7-1.3-3.5-.8-8.5 5.4-8zM1635.6 280.4c-.2 0-.5-.1-.7-.3-.4-.4-.4-1 0-1.4.2-.2 4.2-4.4 9.1-4.4h.1c2.5 0 4.8 1.1 6.7 3.3.4.4.3 1-.1 1.4-.4.4-1 .3-1.4-.1-1.6-1.7-3.3-2.6-5.2-2.6h-.1c-4.1 0-7.6 3.8-7.7 3.8-.2.1-.5.3-.7.3z"/><path class="st2" d="M1645.5 276s.9.1 2 1.7c1.1 1.6.1 7-3.6 8.5s-6-1.4-6-4.9c0-3.5 2.2-7.8 7.6-5.3zM1552.9 281.7s6.2 15.7 12 15.6c5.8-.1 4-26.9 4.5-32.2.5-5.3 3.6-11.8 3.6-11.8s-28.2 7.8-20.1 28.4z"/><path class="st2" d="M1624.4 309.4c-1 0-2-.1-2.6-.4-.5-.2-.7-.8-.5-1.3.2-.5.8-.7 1.3-.5 1.7.7 7.3-.1 9.3-2.6 1.1-1.4.8-3.1-.8-5.1-4.9-6.4-4.4-26.5-1.2-32.6 3.5-6.6 19.6-5 20.3-4.9.5.1.9.5.9 1.1-.1.5-.5.9-1.1.9-4.3-.4-16-.6-18.4 3.9-1.5 2.7-2.4 8.9-2.2 15.3.1 7 1.3 12.6 3.3 15.1 2.7 3.5 1.9 6.1.8 7.6-1.9 2.3-6 3.5-9.1 3.5zM1657.2 225.1c5-26.6-23.3-55.1-52.2-40.8-7.5 3.7-22 22-22 22s-24-3-46.1 16.3c-13.1 11.4 1.5 40 18 41.9 16.5 1.9 44.7-14.3 50.3-14.2 5.6.2 47.2.4 52-25.2z"/><path class="st2" d="M1648.8 238.6c-.7 0-1.5-.4-1.9-1-.6-1-.3-2.4.7-3 1.4-.9 13.8-9.2 8.5-31.7-3.6-15.5-20.4-21.2-20.6-21.2-1.1-.4-1.8-1.6-1.4-2.8.4-1.1 1.6-1.8 2.8-1.4.8.3 19.3 6.5 23.5 24.4 4.5 19.3-2.8 31.7-10.5 36.4-.3.2-.7.3-1.1.3z"/><path class="st4" d="M1611 316.4s25.2.9 34.1-2.2c0 0-2.6 9.6-15.1 11.8-12.5 2.1-19-9.6-19-9.6z"/><path class="st3" d="M1609.6 430.2s4.9 126.1 5.3 137.7c.7 20.1 11.7 135.6 13.3 141.5 1.7 5.9 25.5 69.8 28.9 65.8 3.4-3.9 13.4-78 13.9-85.7.6-7.7-34.5-199.9-36.1-209.8s-12.9-52.2-12.9-52.2l-12.4 2.7z"/><path class="st2" d="M1836.7 649.5s-175.8 21.6-213.6 29.8c-37.7 8.2-14.3 55.9-10.6 59.7 3.7 3.9 160.6 65.1 258.5 46.3 40.1-7.6 37.4-123.8-34.3-135.8z"/><path class="st3" d="M1603.2 427.3s-1 9.4 10.4 10.4c11.3 1 15.7-12.4 14.6-16.6s-6.9-6.8-9.7-7.2c-2.8-.4-17.7.4-15.3 13.4z"/><path class="st8" d="M1590.5 691.5s-41.2-20.4-66.8-26.5c5 15.5 4.3 43.3 4.3 43.3s13.3 11.5 21.2 13.8 40.8 14.3 50.9-5c10-19.4-9.6-25.6-9.6-25.6zM1764.2 636.6s32.7-6.4 49.7-1 30.9 13.4 30.2 20-58 7.8-75.2 11.5c-17.2 3.6-28.8-22.9-4.7-30.5z"/><path class="st2" d="M1514.6 421.4c26 8.9-11.7 260.5-4.7 291.3.6 2.9 211.6-72.3 243.3-79.2 9.4-2.1 24.1 94.5 24.1 94.5s-281.7 168.1-356.9 60.8c-72.1-103.1 62.9-378.2 94.2-367.4z"/><path class="st4" d="M1612.8 402.1s7.9-7.7 10.4-12c2.5-4.4 4.2-14.1 4.2-14.1s12.8 5.7 13.9 9.4c1.1 3.7 8.8 41.3 8.3 45.4-.4 4.1-32.7-9.7-32.7-9.7s-25.5 16.5-30.9 16.5c-5.5 0-13.3-34.6-16.3-41.9-3-7.3 5.3-24.2 7.9-23.5 2.7.6-.5 5.2 9.7 19.8 2.7 3.9 25.5 10.1 25.5 10.1z"/><path class="st8" d="M1523.7 665c-7.7-1.8-14-2.4-17.3-.7-14.3 7.3-33.4 39.1-30.5 47.2 2.8 8.1 14.4-12 14.4-12s-9.9 25.9-5.3 27.8c4.6 1.9 10.3-5.8 10.3-5.8s-.5 7.5 3.9 7.1 16.4-23.5 16.4-23.5-8.6 21.6-3.4 27.4c5.1 5.8 19.4-26.8 19.4-26.8s-2.8-25.2-7.9-40.7z"/><path class="st2" d="M1586.6 438.2c-1.3 0-2.3-.3-3.2-1.1-6.4-5.4-14.3-39.7-14.6-41.1-.1-.5.2-1.1.8-1.2.5-.1 1.1.2 1.2.8 2.2 9.7 9.1 35.9 14 40.1 3.3 2.8 14.1-4.6 21.2-9.5 6.5-4.4 9.7-6.5 11.4-5.9 1.4.5 3.7 1.6 6.6 3 6.2 3 22.5 10.8 24 7.8 1.8-3.5-1.7-20.5-4.5-31.1-.1-.5.2-1.1.7-1.2.5-.1 1.1.2 1.2.7.7 2.8 7 27.2 4.3 32.5-2.2 4.4-13.4-.5-26.7-6.9-2.8-1.3-5.2-2.5-6.4-3-1-.1-5.8 3.1-9.6 5.7-7.2 5-15.3 10.4-20.4 10.4z"/><path class="st17" d="M1527.5 830.9c-1.3 0-2.6 0-3.9-.1-25.9-.9-44.5-5.1-55.6-8.5-12.1-3.7-17.9-7.1-18.1-7.3-.5-.3-.6-.9-.3-1.4.3-.5.9-.6 1.4-.3.2.1 23.8 13.8 72.8 15.4 27.6.9 78.8-7.8 166.3-54.3 48-25.5 84.7-46.3 86.7-47.4l8.9-7.8c-2.2-5.5-17.4-44.1-22.7-61.2-5.6-18-10.4-24-10.5-24.1-.3-.4-.3-1.1.1-1.4.4-.4 1.1-.3 1.4.1.2.2 5.1 6.3 10.8 24.7 5.7 18.3 22.7 61.3 22.9 61.7.2.4 0 .8-.3 1.1l-9.5 8.3c-.1 0-.1.1-.2.1-.4.2-37.6 21.3-86.9 47.5-83.8 44.9-134.6 54.9-163.3 54.9zM1442.8 785.9c-.2 0-.4-.1-.6-.2-.3-.2-7.8-5.7-.4-29.6 3.8-12.4 14-22.5 21.9-28.8 8.5-6.8 16.1-10.7 16.2-10.8.5-.3 1.1-.1 1.3.4.3.5.1 1.1-.4 1.3-.3.2-30 15.5-37.1 38.4-6.9 22.3-.4 27.4-.4 27.4.4.3.5.9.2 1.4-.1.4-.4.5-.7.5z"/><path class="st17" d="M1425.3 768c-.5 0-.9-.3-1-.8-.1-.3-1.4-7.7 10-24 11.4-16.2 33.1-24.7 34-25 .5-.2 1.1.1 1.3.6.2.5-.1 1.1-.6 1.3-.2.1-22.1 8.6-33.1 24.3-10.8 15.4-9.7 22.3-9.7 22.4.1.5-.3 1.1-.8 1.2h-.1zM1808.4 789.2h-.1c-.8-.1-76.8-8.5-107-18.8-.5-.2-.8-.7-.6-1.3.2-.5.7-.8 1.3-.6 30 10.3 105.8 18.7 106.6 18.7.5.1.9.6.9 1.1-.1.6-.6.9-1.1.9zM1517.6 658.8c-.1 0-.1 0 0 0-.6 0-1-.5-1-1.1 0-.5 3.7-46.9 4.9-75 1.3-28.1 0-140.5 0-141.7 0-.6.4-1 1-1 .5 0 1 .4 1 1 0 1.1 1.3 113.6 0 141.8-1.3 28.1-4.9 74.6-5 75.1 0 .5-.4.9-.9.9zM1779.3 633.6s-3.1-15.1-4.5-22.2c-1.7-8-19.8-80.6-29.3-104.8-9.6-24.5-38.6-68.3-38.9-68.8-.3-.5-.2-1.1.3-1.4.5-.3 1.1-.2 1.4.3.3.4 29.4 44.4 39.1 69.2 9.6 24.4 27.7 97.2 29.4 105.2 1.5 7.2 4.5 22.2 4.5 22.2l-2 .3zM1887.1 754.2c-.1 0-.2 0-.3-.1-.5-.2-.8-.7-.6-1.3 0-.1 1.8-5.5 3.2-16.6 1.9-14.4-.7-38.1-14.1-57.7-14.5-21.2-28.2-21.1-28.3-21.1-.6 0-1-.4-1-1s.4-1 1-1 14.9-.2 30 22c13.7 20 16.3 44.3 14.4 59.1-1.5 11.3-3.3 16.7-3.3 17-.2.4-.5.7-1 .7zM1649.4 964.9c-.6 0-1-.5-1-1.1 0-.8 4.4-82.9 5.5-101.8 1.1-18.9 3.3-69.9 3.4-70.4 0-.6.5-1 1-1 .6 0 1 .5 1 1s-2.3 51.5-3.4 70.5c-1.1 18.9-5.4 101-5.5 101.8 0 .6-.4 1-1 1zM1593.1 893.7l-112.8-4.9c-.6 0-1-.5-1-1 0-.6.5-1 1-1l112.7 4.9c.6 0 1 .5 1 1 .1.6-.4 1-.9 1zM1802.1 893.7l-108.3-2.5c-.6 0-1-.5-1-1 0-.6.5-1 1-1l108.3 2.5c.6 0 1 .5 1 1 0 .6-.4 1-1 1z"/><path class="st2" d="M1650 1093.1h-.3c-.5-.1-.8-.7-.7-1.2.1-.4 12.3-45 30.5-65.4.4-.4 1-.4 1.4-.1.4.4.4 1 .1 1.4-17.9 20-29.9 64.1-30 64.5-.1.5-.5.8-1 .8zM1375.9 1817.4h-.1c-.5-.1-.9-.6-.8-1.1.3-1.9 27.6-188.7 29.9-238.9 1.5-31.6 12.9-124 22-198.2 5.6-45.4 10.4-84.6 11.6-99 3.1-37.3 20.2-213.1 20.4-214.8.1-.5.5-1 1.1-.9.5.1 1 .5.9 1.1-.2 1.8-17.3 177.5-20.4 214.8-1.2 14.4-6.1 53.6-11.7 99.1-9.1 74.2-20.5 166.5-22 198-2.3 50.4-29.7 237.3-30 239.1 0 .5-.4.8-.9.8zM1777.3 1834.5c-.5 0-.9-.4-1-.9-.1-.8-9.4-80.8-12.6-114.9-3.4-35.5-24.7-182.7-37.7-246.1-7.4-36.3-13.7-88.5-19.8-139-4.6-38.1-8.9-74.1-13.3-99.1-10-56.8-22.6-130.6-22.8-131.3-.1-.5.3-1.1.8-1.2.5-.1 1.1.3 1.2.8.1.7 12.8 74.5 22.8 131.3 4.4 25 8.7 61 13.3 99.2 6.1 50.5 12.3 102.7 19.8 138.8 13 63.5 34.4 210.8 37.8 246.4 3.2 34.1 12.6 114.1 12.6 114.9.1.5-.3 1-.9 1.1h-.2zM1927.1 1744.7l-14.8 35.8 8 2.8 14.9-36.7zM1971.9 1819.8l3.2-65.4-21.7 62.3z"/><path class="st13" d="M1976 1747.6s-13.5 97.7-15.5 93.1c-1.9-4.6-42.3-22.4-43.3-26.1-1-3.7 21.2-83 21.2-83l37.6 16z"/><path class="st2" d="M1952 1806.5c7.8 1.6 19.3-4.6 19.9 13.2.2 6.7-10.1 54.4-20.3 57.8-23.9 7.9-33.4-38.2-37-53.3-3.9-16.2 10.4-76.1 13.3-80.9 5.5-9 10.5-11.8 10.5-11.8l-14.3 69.1c.1.2 12.2 2.8 27.9 5.9zM2153.3 564s174.5 140.6 183.7 216.3c9.2 75.7-58.5 80.9-116.4 51.2-57.7-29.5-67.3-267.5-67.3-267.5z"/><path class="st18" d="M2106.6 395.8s-8.3-16.1-37-18.9c-28.7-2.8-48.8 16-57.9 40.5s-5.6 95.9-10 117.5c-4.3 21.6-21 82.2-27.9 129.4-6.9 47.2 10.4 69.7 19.5 71.8 9.1 2.2 118.9-15.1 136.5-27.7 17.6-12.5 21.2-258.7-23.2-312.6z"/><path class="st13" d="M1988.9 853.4c-11.3 65.4-31.1 200-16.9 274.3 19.1 100.6 29.9 366.2 29.9 366.2l12.4 295.5s54.1 18.2 55.3 11.7c16.8-95.2 110.6-712.9 120.2-736.5 8.6-21.2 54.1-130.2 48.2-206.4-98.1 23.6-212.6 3-249.1-4.8z"/><path class="st13" d="M2245.6 887.3s29.9 197.7 22.7 281.3c-7.2 83.6-55.4 251.7-86.7 314.5-31.5 63.2-158.9 226.8-212.4 278.3-9.6 9.3-30.7-29.9-30.7-29.9s130.2-311.2 130.2-307.4c0 4.8 16-469.3 69.8-499.9 53.9-30.3 107.1-36.9 107.1-36.9z"/><path class="st2" d="M1995.8 815.8s51.2 23.1 125.1 21.9c70-1.1 108.2-21.9 108.2-21.9s20.2 71.6 36.6 161.6c20.7 113.3-13.1 336.1-13.1 336.1s-47.4 19.2-102.9 27.5c-43.9 6.6-155.3 13.5-155.3 13.5s-44-236.3-36.5-316.5c9.6-103.4 37.9-222.2 37.9-222.2z"/><path class="st2" d="M2241.2 862.3c-.6-8.5-4.1-26.5-6.2-34-20.3-74.9-26.1-103.6-32.1-137.1s-25-166.4-118.2-146.7c-118.6 25.1-61.6 106.8-88.9 271.3 0 0-6.9 26.7-10.9 49.8 36.6 7.8 158.2 20.4 256.3-3.3z"/><path class="st4" d="M2067.9 548.9s-10.6 1.7-12.8 7.5c-2.2 5.8 40 47.1 58 101.9 8.8 26.8 32.4 95.1 41.6 92.4s-1-132.7-5.9-153.2c-7.6-31.6-19.5-51.1-31.1-52.9-11.7-1.6-49.8 4.3-49.8 4.3z"/><path class="st13" d="M2122.7 547.1c-6.7-5.3-20.6-18.9-23.5-36.8-4.7-29.3-41-27.5-41-27.5s13.6 32.8 11.2 48.1c-.7 4.1-10 22.5-10 22.5l59 25.3s5.8-26.5 4.3-31.6z"/><path class="st2" d="M2108.4 531.9c-2.8-4-5.3-8.5-7.1-13.4l-31.7-7.3c.1-.1 12.6 19.4 38.8 20.7z"/><path class="st13" d="M2049.7 483.8s-6.1.9-11.9-3.9c-4.6-3.8-5.7-16-1.8-19.9s9.3-3.8 10.5-4.2c1.2-.3-4-21.7 2.1-34.7 6.2-12.9 18.8-25.2 40.9-24.1 22 1.1 33.9 12.4 41.7 21.2 7.8 8.8 9.8 27 11.1 35.7 1.4 8.7 3.7 11.2 5.7 15.9 4.7 10.7 6.7 18.3 4.2 30.6-2.6 12.3-15.2 24.5-36.5 24.5-21.3.1-56.2-9.1-66-41.1z"/><path class="st2" d="M2115.6 482.8c-.5 0-.9 0-1.4-.1-3.3-.4-5.7-2.4-6.6-5.5-.2-.5.2-1.1.7-1.2.5-.2 1.1.2 1.2.7.9 3 3.1 3.9 4.9 4.1 3.7.5 8.3-1.5 10-4.2.7-1.2.7-2.4-.1-3.6-5.1-7.1-9.8-18.3-10.1-20.5 0-.3-1-7.3 2.4-11.2 1.4-1.7 3.3-2.5 5.7-2.6 2.2-.2 13.3-.9 16.1 1 .5.3.6.9.3 1.4-.3.5-.9.6-1.4.3-1.7-1.2-10-1-14.8-.7-1.9 0-3.3.7-4.3 1.9-2.8 3.2-1.9 9.6-1.9 9.7.2 1.7 4.7 12.5 9.8 19.6 1.3 1.8 1.4 3.9.2 5.8-1.9 2.9-6.5 5.1-10.7 5.1zM2083.1 447.9c-.4 0-.7-.2-.9-.5-.3-.5-.1-1.1.4-1.3.3-.2 7.8-4 17.8-4 .6 0 1 .4 1 1s-.4 1-1 1c-9.5.1-16.8 3.8-16.9 3.8-.1-.1-.2 0-.4 0zM2089 461.7h-.3c-.5-.2-.8-.7-.7-1.2 0-.2 1.3-4.1 7.9-4.4 6.6-.3 8.1 1.9 8.4 2.8.2.5-.1 1.1-.6 1.3-.5.2-1.1-.1-1.3-.6 0 0-.7-1.8-6.5-1.5-5.1.2-6 2.8-6 2.9-.1.5-.5.7-.9.7z"/><path class="st2" d="M2124 461h-.3c-.5-.2-.8-.7-.7-1.2 0-.2 1.3-4.1 7.9-4.4 6.6-.3 8.1 1.9 8.4 2.8.2.5-.1 1.1-.6 1.3-.5.2-1.1-.1-1.3-.6 0 0-.7-1.8-6.5-1.5-5.1.2-6 2.8-6 2.9 0 .5-.4.7-.9.7z"/><path class="st19" d="M2096.1 471s-15.2-1.6-18.4 3.4c-3.2 5 13.8 6.7 21.5 4.5 7.8-2.2.7-7.7-3.1-7.9zM2143.8 466.1c-3.4.2-11.3-.3-12.5 4.8-1.2 5.1 11.4 5.4 16.5 2.6 5.1-2.8-.6-7.6-4-7.4z"/><path class="st2" d="M2130.5 456.6s-2.4 8.4 2.3 9.4c4.6 1 5.5-5.7 4.5-8.2-1.1-2.4-5.6-2.2-6.8-1.2zM2094.7 457.8s-2.4 8.4 2.3 9.4c4.6 1 5.5-5.7 4.5-8.2s-5.6-2.2-6.8-1.2zM2118.9 491.8c-6.3 0-11-1.8-11.3-1.9-.5-.2-.8-.8-.6-1.3.2-.5.8-.8 1.3-.6.1 0 11 4.2 21.6-.4.5-.2 1.1 0 1.3.5.2.5 0 1.1-.5 1.3-4.2 1.8-8.3 2.4-11.8 2.4z"/><path d="M2045.1 505.9c-2.6 0-5.1-.7-7.3-2-3.3-2-5.5-5.1-6.5-8.8-.9-3.7-.3-7.5 1.6-10.8.6-1 1.9-1.3 2.9-.7 1 .6 1.3 1.9.7 2.9-1.4 2.3-1.8 5-1.1 7.6.6 2.6 2.3 4.8 4.6 6.2 2.3 1.4 5 1.8 7.6 1.1 2.6-.6 4.8-2.3 6.2-4.6s1.8-5 1.1-7.6c-.6-2.6-2.3-4.8-4.6-6.2-.9-.5-1.9-.9-2.9-1.2-1.1-.3-1.8-1.4-1.6-2.5s1.4-1.8 2.5-1.6c1.4.3 2.8.9 4.1 1.7 3.3 2 5.5 5.1 6.5 8.8.9 3.7.3 7.5-1.6 10.8-2 3.3-5.1 5.5-8.8 6.5-1.1.3-2.3.4-3.4.4z" style="fill:#ffc97d"/><path class="st18" d="M2100.5 393.6s21.3 6.3 30.8 18.8c9.5 12.6 11 24.7 11 24.7s-8-.4-17.3-.4c-2.2 0-7-8.8-9.2-8.7-.6 0 1.4 8.8.7 8.9-1.4.1-2.9.1-4.3.2-6.4.4-17.4 4.1-27.1 7.9-1.7.7-4.2-9.7-5.9-9-1.9.8-2.9 12.5-4.6 13.2-5.7 2.4-9.6 4.2-9.6 4.2l-16.2 10.6s-2.4-5-5.4-13.6c-6.7-19.2 7.7-78 57.1-56.8z"/><path class="st6" d="M2249.3 888.1c-50.4 10.5-100.9 21-151.3 31.6-21.9-109-14.6-220.2 21.4-325.5 48.6 17 97.3 34 145.9 51.1-26.8 78.8-32.2 161.2-16 242.8z"/><path class="st4" d="M2269.6 894.2c-50.2 11.7-100.4 23.4-150.5 35.1-23.7-105.2-19.1-213.1 13.4-315.9 41.1 13.3 82.2 26.6 123.4 40 5.3 10.6 10.8 21 16.8 31.2-17.6 69.2-18.6 139.8-3.1 209.6z"/><path class="st6" d="M2252.2 701.6c-40-8.5-80.1-17-120.1-25.5.8-4 1.3-6 2.2-10 39.9 9.2 79.7 18.4 119.6 27.6-.7 3.1-1 4.7-1.7 7.9zM2247.3 728.4c-40.5-6.1-80.9-12.1-121.4-18.2.6-4 .9-6 1.6-10.1 40.4 6.8 80.7 13.6 121.1 20.3-.5 3.2-.8 4.8-1.3 8zM2223.8 746.9c-33.7-3.5-67.5-6.9-101.2-10.4.4-4.1.6-6.1 1.1-10.1 33.7 4.1 67.3 8.1 101 12.2-.4 3.3-.5 5-.9 8.3zM2243.1 769.8c-40.9-2.3-81.7-4.6-122.6-6.9.2-4.1.4-6.1.7-10.2 40.8 3 81.6 6.1 122.4 9.1l-.5 8zM2160.6 789.8c-13.6-.1-27.3-.3-40.9-.4 0-4.1.1-6.1.2-10.2l40.9 1.2c-.2 3.7-.2 5.6-.2 9.4zM2242.6 811.4c-40.9 1.5-81.8 2.9-122.7 4.4-.1-4.1-.2-6.1-.3-10.2 40.9-.7 81.8-1.5 122.7-2.2.2 3.2.2 4.8.3 8zM2243.9 832.2c-40.8 3.3-81.6 6.7-122.3 10-.3-4.1-.5-6.1-.7-10.2 40.8-2.6 81.7-5.2 122.5-7.9.1 3.3.2 4.9.5 8.1z"/><path d="M2255.8 653.3c-3 9.6-5.8 19.3-8.4 29 8.4.6 16.8 1.4 25.1 2.2-5.9-10.2-11.4-20.6-16.7-31.2z" style="fill:#cecac8"/><path class="st2" d="M2269.4 759.2s-154.3 67-150.3 91.8c3.9 24.8 99.8 14.8 145.3 5.4 45.5-9.4 66.6-12.8 69.4-50.9 2.8-38-42-56.3-64.4-46.3zM2014.7 590.2S1898 769.6 1937.3 860c34 78.3 238.1-11.2 245.3-28.3 1.8-4.3 3.2-53.7-13.8-56-51.2-7-162.8 23.7-162.8 23.7s8.2-196.3 8.7-209.2z"/><path class="st13" d="M2153.7 794.7s8.6-9.1 16.2-12.2c7.6-3.1 22.8-27.8 25.8-22.4 3 5.3-12.6 18.4-11.4 22 1.1 3.6 53.9-8.8 53.7-6.3-.2 2.5-26.8 10-25.8 12.7 1 2.7 32.1-7.8 33.5-4.3 1.3 3.5-30.6 13.7-30.4 14.6.2.9 29.4-3.1 29.8-.5.4 2.6-34.2 9.6-34.5 11.7-.3 2.1 22.6-.6 21.6 3.6s-34.2 5.1-39.4 7.5c-5.3 2.4-29.7 3.1-36.7-4.8s-8.6-18.8-2.4-21.6zM2163.6 838.6s-11.5-5-19.7-4.8c-8.2.1-32-16.4-32.6-10.3-.6 6.1 18.8 11.9 19.2 15.7.4 3.8-53 13.3-51.8 15.6s28.6-1.4 28.7 1.4c.2 2.8-32.6 5.6-32.4 9.3.2 3.7 33.5.4 33.7 1.3.2.9-28.2 8.8-27.5 11.4.7 2.5 35.2-4.8 36.3-3 1.1 1.8-21 8.4-18.4 11.9 2.6 3.4 33.4-8.9 39.2-8.7 5.8.1 28.5-9 31.8-19 3.1-10 .3-20.6-6.5-20.8z"/><path class="st2" d="M2135.3 1885c-2.1-6-6.4-14-15.3-17.8-12.8-5.5-21.9-12.5-29-18.1-16.9 3.6-22.4 30.4-27 29-5.1-1.6-27-22.7-27.6-29.2-.5-6.5 6.2-26.8 0-39.5s-22.2-20-22.2-20-12.4 22.2-14.1 37.3c-1.6 15.1-3.2 61.6-3.2 61.6h17.3l5.4-39.5s25.7 40 46.6 43.5c16.1 2.7 49.3 1.2 63.8.4 4-.1 6.6-4 5.3-7.7z"/><path class="st13" d="M2036.5 1809.4c6.2 12.7-.5 33 0 39.5s22.4 27.6 27.6 29.2c4.6 1.4 10.1-25.4 27-29-1.3-1-2.5-2-3.7-3-7.6-5.9-21-56.8-21-56.8h-52c-.1 0 15.9 7.4 22.1 20.1z"/><path class="st2" d="M2101.3 1604.5h-.2c-.5-.1-.9-.6-.8-1.1.1-.7 10.3-68.3 13.6-98.9 3.3-30.7 27.4-161.2 27.7-162.6.1-.5.6-.9 1.2-.8.5.1.9.6.8 1.2-.2 1.3-24.4 131.8-27.6 162.4-3.3 30.6-13.5 98.3-13.6 99-.2.4-.6.8-1.1.8zM2011.2 1717c-.5 0-.9-.4-1-.9 0-.3-4.5-34.4-6-50.1-1.6-15.7-.1-90.3 0-93.5 0-.6.5-1 1-1 .6 0 1 .5 1 1 0 .8-1.5 77.7 0 93.3 1.5 15.6 6 49.7 6 50 .1.5-.3 1-.9 1.1 0 .1 0 .1-.1.1z"/><path class="st17" d="M2012.5 894.3c-16.4 0-29.7-3.1-29.9-3.1-.5-.1-.9-.7-.7-1.2.1-.5.7-.9 1.2-.7.3.1 29.8 6.8 54.7 0 25.2-6.9 39-10.5 39.1-10.6.5-.1 1.1.2 1.2.7.1.5-.2 1.1-.7 1.2-.1 0-13.9 3.7-39.1 10.6-8.5 2.3-17.5 3.1-25.8 3.1zM2006.1 800.3c-.3 0-.5-.1-.7-.3-.2-.3-.3-.7-.2-1 10.8-31 23.8-177.8 23.9-179.3 0-.6.5-1 1.1-.9.6 0 1 .5.9 1.1-.1 1.5-12.7 143.5-23.4 178.1 9.4-2.4 54-13.7 77.9-17.3.5-.1 1.1.3 1.1.8.1.5-.3 1.1-.8 1.1-26.6 4.1-79 17.6-79.5 17.7h-.3z"/><path class="st17" d="M1972.3 855.9h-.1c-.5-.1-.9-.6-.8-1.1 5.4-37.5 33.9-56.1 34.2-56.3.5-.3 1.1-.2 1.4.3.3.5.2 1.1-.3 1.4-.3.2-28.1 18.3-33.3 54.9-.2.4-.6.8-1.1.8z"/><path class="st17" d="M1982.9 871.8c-.6 0-1-.5-1-1 1.2-35.5 20.1-65 20.3-65.3.3-.5.9-.6 1.4-.3.5.3.6.9.3 1.4-.2.3-18.8 29.4-19.9 64.2-.1.6-.6 1-1.1 1zM2310.3 812.6c-.2 0-.4-.1-.6-.2-.8-.5-1.1-2-2.1-7.4-1.9-10.6-5.5-30.4-16.1-38.7-14.7-11.4-25.9-8.9-26-8.9-.5.1-1.1-.2-1.2-.7-.1-.5.2-1.1.7-1.2.5-.1 12.2-2.8 27.7 9.2 6.3 4.9 10.2 13.3 12.7 21.7-1.5-7-3.1-14.3-4.4-20.2-.1-.5.1-.9.5-1.1.4-.2.9-.1 1.2.3 7 8.6 16.1 16.8 18.4 15.1.4-.3.3-1.2.2-1.7-1.3-6.5-15.2-22.3-28.1-25.1-.5-.1-.9-.7-.8-1.2.1-.5.7-.9 1.2-.8 13.8 3 28.2 19.5 29.7 26.7.5 2.2-.3 3.3-1 3.8-2.4 1.7-6.5-.4-12.9-6.5-2.1-2.1-4.1-4.2-5.6-5.9 1 4.3 2.6 11.5 4.1 18.7 4.9 23.5 3.9 23.8 2.8 24.1h-.4zM2119.6 1233.4h-.2c-.5-.1-.9-.6-.8-1.2.1-.4 8.7-40.4 20.6-84.8 15.9-59.7 29.8-98.6 41.1-115.5.3-.5.9-.6 1.4-.3.5.3.6.9.3 1.4-11.1 16.5-25.2 56.2-40.8 114.9-11.8 44.4-20.5 84.4-20.5 84.8-.2.4-.6.7-1.1.7zM2146.5 1228.1c-.1 0-.2 0-.4-.1-.5-.2-.8-.8-.6-1.3.3-.8 31.9-84.6 41.9-106.8.2-.5.8-.7 1.3-.5.5.2.7.8.5 1.3-10 22.1-41.6 105.8-41.9 106.7 0 .5-.4.7-.8.7zM2110.6 930.3c-.3 0-29.7-.3-61.6 0-32 .3-74.4-7.6-74.9-7.7-.5-.1-.9-.6-.8-1.2.1-.5.6-.9 1.2-.8.4.1 42.7 8 74.5 7.7 31.9-.3 61.3 0 61.6 0 .6 0 1 .5 1 1s-.5 1-1 1zM2162.3 926.4c-.5 0-1-.4-1-1s.4-1 1-1c.7 0 72.8-2 90.7-10.3.5-.2 1.1 0 1.3.5.2.5 0 1.1-.5 1.3-18.3 8.5-88.5 10.4-91.5 10.5z"/></svg>