<svg version="1.1" id="Layer_1" xmlns="http://www.w3.org/2000/svg" x="0" y="0" viewBox="0 0 860.8 508.2" style="enable-background:new 0 0 860.8 508.2" xml:space="preserve"><style>.st0{fill:#3b9999}.st3,.st4,.st6,.st8{fill-rule:evenodd;clip-rule:evenodd;fill:#dbccff}.st4,.st6,.st8{fill:#7853bd}.st6,.st8{fill:#7703fc}.st8{fill:#6a17e2}.st18{fill:#fff}.st40,.st45,.st46,.st47{fill-rule:evenodd;clip-rule:evenodd;fill:#fff}.st45,.st46,.st47{fill:#ffaf59}.st46,.st47{fill:#ff5d17}.st47{fill:#de2104}.st65{fill:#662811}.st66{fill-rule:evenodd;clip-rule:evenodd}.st73{fill:#fc4c00}.st77{fill:#3e0499}.st85,.st89{fill-rule:evenodd;clip-rule:evenodd;fill:#ab8cf2}.st89{fill:#217373}.st90{fill:#3b9999}.st90,.st92{fill-rule:evenodd;clip-rule:evenodd}.st92,.st93{fill:#916ce6}.st96,.st97{fill-rule:evenodd;clip-rule:evenodd;fill:#e6e6e6}.st97{fill:#ffedca}</style><path class="st0" d="M166.9 280.2c3.4-5.9 5.7-11.9 6.7-16.6 1-4.7.8-8.3-1.1-9.6-1.9-1.3-5.1-.2-8.9 2.5-3.8 2.7-8.3 7.1-12.2 12.7-4 5.5-6.7 11.2-7.7 15.9-1 4.8-.4 8.6 2 10.3 2.4 1.7 6.1 1 9.9-1.8"/><path class="st0" d="M155.7 293.5c3.8-2.7 7.8-7.5 11.2-13.4M111.8 197.6c-1.8-.2-3.7 1.8-5.6 5.1-1.8 3.3-3.6 8-4.6 13.2-1 5.2-1.1 10.1-.2 13.6.8 3.6 2.6 5.9 4.9 6.1 2.3.2 4.7-1.7 6.5-5 1.8-3.3 3.1-8 3.6-13.3.5-5.3.1-10.1-.7-13.7-.8-3.6-2.1-5.9-3.9-6zM153.2 234c-1.8-1-4.6.2-7.7 3-3.1 2.8-6.5 7.1-9.3 12.3-2.8 5.3-4.5 10.5-4.8 14.8-.3 4.3.8 7.7 3.2 9 2.4 1.3 5.5.3 8.6-2.5 3.1-2.8 6-7.3 8.3-12.9 2.3-5.6 3.6-11 3.9-15.3.3-4.2-.4-7.4-2.2-8.4zM131.1 213.9c-1.9-.6-4.1 1.2-6.4 4.5-2.3 3.3-4.6 8-6.2 13.6-1.6 5.5-2.2 10.8-1.7 14.9.5 4.1 2.1 7 4.5 7.7 2.4.7 5.1-.9 7.4-4.2 2.3-3.3 4.2-8.2 5.3-13.9 1.1-5.7 1.2-11.1.7-15.2-.5-4-1.7-6.8-3.6-7.4zM49.5 222.9c-.2 1.6 1.6 3.3 4.7 4.7 3.1 1.4 7.3 2.7 12.2 3.3 4.8.6 9.3.3 12.7-.7 3.3-1 5.5-2.8 5.8-4.9.2-2.1-1.5-4.1-4.5-5.6-3-1.4-7.4-2.3-12.3-2.4-4.9-.1-9.4.6-12.8 1.6-3.4 1-5.6 2.4-5.8 4zM72.5 213.4c2.6 1.4 5 1.6 6.4.5 1.4-1.1 1.6-3.4.6-6.1-1-2.7-3.1-5.8-6-8.8-2.9-3-6-5.3-8.6-6.7-2.6-1.4-4.7-1.8-5.8-1-1.1.9-1 2.9 0 5.6 1 2.7 2.8 6 5.4 9.2 2.5 3.4 5.4 5.9 8 7.3zM93.2 185c-1.7-.1-3.3 1.9-4.8 5.1-1.5 3.3-2.7 7.8-3.3 12.9-.6 5.1-.3 9.7.7 13.1 1 3.4 2.8 5.6 5 5.7 2.1.1 4.2-1.8 5.7-5s2.3-7.8 2.4-12.9c.1-5.1-.6-9.8-1.6-13.2-1.1-3.4-2.5-5.6-4.1-5.7zM95.7 312.2c4.6 1.1 10.8 1.6 17.6 1 6.8-.6 12.8-2.3 17.1-4.6 4.3-2.3 6.8-5.4 6.5-8.3-.3-3-3.2-5.2-7.8-6.3-4.6-1.1-10.7-1-17.5.2-6.7 1.3-12.7 3.4-17 5.8-4.3 2.3-6.8 4.8-6.6 7.1.2 2.3 3.1 4 7.7 5.1zM86.7 288.7c4.2 1 9.9 1.5 16.1.9 6.2-.6 11.8-2.1 15.7-4.2 3.9-2.1 6.2-4.9 6-7.6-.2-2.7-3-4.8-7.2-5.8s-9.9-1-16 .2c-6.2 1.2-11.6 3.2-15.6 5.3-3.9 2.1-6.3 4.4-6.1 6.5.2 2.1 2.9 3.6 7.1 4.7z"/><path d="M87.9 221.7c-.6-.6-1.5-.5-2.1.1-.6.6-.5 1.5.1 2.1 27.1 25.2 47.7 55.8 60.7 89.5 13.1 33.6 18.6 70.1 15.6 107-.1.8.5 1.5 1.4 1.6.8.1 1.5-.5 1.6-1.4 3-37.3-2.6-74.3-15.8-108.3-13.3-34-34.1-65.1-61.5-90.6z" style="fill:#004545"/><path class="st0" d="M77.3 268c3.9.9 9.2 1.3 14.9.8 5.7-.5 10.9-1.9 14.5-3.9 3.6-2 5.7-4.5 5.5-7-.2-2.5-2.7-4.4-6.6-5.4-3.9-.9-9.1-.9-14.8.2-5.7 1.1-10.8 2.9-14.4 4.9-3.6 2-5.8 4.1-5.6 6 .1 2 2.6 3.5 6.5 4.4zM79.8 249.7c5.3-.2 10.1-1.3 13.5-3 3.4-1.7 5.5-4 5.4-6.3-.1-2.3-2.3-4.2-5.9-5.2-3.5-1-8.4-1.2-13.6-.4-5.3.8-10 2.3-13.4 3.9-3.4 1.7-5.5 3.5-5.4 5.3.1 1.8 2.3 3.2 5.8 4.2 3.4 1.2 8.3 1.8 13.6 1.5z"/><path d="M542.5 281.8c1.1 0 2-.9 2-2V41.4c0-1.1-.9-2-2-2H176.3c-1.1 0-2 .9-2 2v238.4c0 1.1.9 2 2 2h366.2z" style="fill-rule:evenodd;clip-rule:evenodd;fill:#f4f2f2"/><path transform="rotate(-1.985 258.747 200.79)" class="st3" d="M196.4 155h124.7v91.6H196.4z"/><path transform="rotate(-1.985 257.763 172.262)" class="st4" d="M195.4 171.8h124.7v.9H195.4z"/><path transform="rotate(-1.985 257.997 179.063)" class="st4" d="M195.6 178.6h124.7v.9H195.6z"/><path transform="rotate(-1.985 258.24 186.06)" class="st4" d="M195.9 185.6h124.7v.9H195.9z"/><path transform="rotate(-1.985 258.475 192.864)" class="st4" d="M196.1 192.4h124.7v.9H196.1z"/><path transform="rotate(-1.985 258.704 199.474)" class="st4" d="M196.4 199h124.7v.9H196.4z"/><path transform="rotate(-1.985 258.938 206.277)" class="st4" d="M196.6 205.8h124.7v.9H196.6z"/><path transform="rotate(-1.985 259.18 213.275)" class="st4" d="M196.8 212.8h124.7v.9H196.8z"/><path transform="rotate(-1.985 259.415 220.078)" class="st4" d="M197.1 219.6h124.7v.9H197.1z"/><path transform="rotate(-1.985 259.652 226.994)" class="st4" d="M197.3 226.5H322v.9H197.3z"/><path transform="rotate(-1.985 259.89 233.797)" class="st4" d="M197.5 233.3h124.7v.9H197.5z"/><path transform="rotate(-1.985 260.131 240.794)" class="st4" d="M197.8 240.3h124.7v.9H197.8z"/><path d="M686.4 111.4c-2 0-3.6 1.6-3.6 3.6v.8l-44.5-38.1-2.6 3 47 40.2v353.6c4.7-1.1 7.1-1.7 7.1-1.7V127l36.1 30.9c-2.2 2.9-1.8 7.1 1 9.4l14.8 12.7c2.9 2.5 7.3 2.1 9.8-.8l2-2.3c2.5-2.9 2.1-7.3-.8-9.8L738 154.6c-2.8-2.4-6.9-2.2-9.4.4l-38.7-33.1V115c0-2-1.6-3.6-3.5-3.6z" style="fill-rule:evenodd;clip-rule:evenodd;fill:#293149"/><path class="st6" d="M693.9 132.1v-15.8c0-4.1-3.4-7.5-7.5-7.5s-7.5 3.4-7.5 7.5v15.8c0 4.1 3.4 7.5 7.5 7.5s7.5-3.3 7.5-7.5z"/><path d="M656.6 28.8c-1.7-.9-3.9-.2-4.8 1.5l-9.5 18.2c-6.8-1.7-14.2 1.4-17.6 7.9l-11.1 21.2c-2-.2-4.1-.2-6.2-.1-15 1-28.2 10.2-34.2 24 21.9 15.4 45.8 27.9 70.9 37.2 7.9-12.8 8.1-28.9.3-41.8-1-1.7-2.1-3.2-3.3-4.7l11.2-21.4c3.4-6.5 1.7-14.5-3.7-19.1l9.5-18.1c.9-1.7.2-3.9-1.5-4.8z" style="fill-rule:evenodd;clip-rule:evenodd;fill:#1b223a"/><path class="st6" d="M638 145.8c2.2 1.2 4.9.3 6.1-1.9l.3-.5c1.2-2.2.3-4.9-1.9-6.1l-67.7-35.5c-2.2-1.2-4.9-.3-6.1 1.9l-.3.5c-1.2 2.2-.3 4.9 1.9 6.1l67.7 35.5z"/><path class="st8" d="M404 192.7c-17.7 2.5-37.6 4.5-53.7 9.2-11.8 3.4-19.3 7.9-25.4 13.9-21.5 21.2-46.9 74.1-60.8 103.4-4.3 3.6-7.9 7.6-10.7 12-5.6 9-8.5 23.7-7.3 37.6 1.6 17.9 7.4 28.3 16.7 32.1 22.2 9.2 54.4-15.9 60.6-36.9l19-27.4c2 40.7 3.3 62.7 3.3 62.7 120.3-.1 184.3-.6 182.7.4 9.7 12.5 20.1 15.5 29.8 12.9 27.4-7.4 46.6-53.6 33.5-80-2.2-23.9-11.2-96.4-25.2-114-4.4-5.5-10.4-10.3-18.9-14-3.8-1.6-8.6-3.7-15.4-5.6 0 0-7.4 4.6-25.5 2 14.6-6.5-19.6-9.3-102.7-8.3z"/><defs><filter id="Adobe_OpacityMaskFilter" filterUnits="userSpaceOnUse" x="462.8" y="212.5" width="47.3" height="124.3"><feColorMatrix values="1 0 0 0 0 0 1 0 0 0 0 0 1 0 0 0 0 0 1 0"/></filter></defs><mask maskUnits="userSpaceOnUse" x="462.8" y="212.5" width="47.3" height="124.3" id="SVGID_1_"><g style="filter:url(#Adobe_OpacityMaskFilter)"><linearGradient id="SVGID_2_" gradientUnits="userSpaceOnUse" x1="-211.316" y1="601.588" x2="-110.776" y2="612.278" gradientTransform="translate(632.233 -331.587)"><stop offset="0" style="stop-color:#000"/><stop offset="1" style="stop-color:#fff"/></linearGradient><path style="fill:url(#SVGID_2_)" d="M462.8 212.5h47.8v129.1h-47.8z"/></g></mask><path d="m509.9 324.6-2.8-29.2-7.6-61-3.4-21.8c.1-.1-.7-.1-2.3-.2-2.9 15.8-12.3 29.5-26 37.9-6.2 11.4-6.6 25.1-1.2 36.9 11.8 25.9 33 14.7 42.9 48.2l.3 1.2c0-2.3.1-4.4.3-6.4l-.2-5.6z" style="mask:url(#SVGID_1_);fill-rule:evenodd;clip-rule:evenodd;fill:#4f02bc"/><defs><filter id="Adobe_OpacityMaskFilter_1_" filterUnits="userSpaceOnUse" x="509.7" y="336.8" width=".9" height="4.8"><feColorMatrix values="1 0 0 0 0 0 1 0 0 0 0 0 1 0 0 0 0 0 1 0"/></filter></defs><mask maskUnits="userSpaceOnUse" x="509.7" y="336.8" width=".9" height="4.8" id="SVGID_3_"><g style="filter:url(#Adobe_OpacityMaskFilter_1_)"><linearGradient id="SVGID_4_" gradientUnits="userSpaceOnUse" x1="-211.316" y1="601.588" x2="-110.776" y2="612.278" gradientTransform="translate(632.233 -331.587)"><stop offset="0" style="stop-color:#000"/><stop offset="1" style="stop-color:#fff"/></linearGradient><path style="fill:url(#SVGID_4_)" d="M462.8 212.5h47.8v129.1h-47.8z"/></g></mask><path d="M509.8 341.5c.2-.3.5-.6.8-.8-.2-1.3-.5-2.6-.9-4 0 1.6 0 3.2.1 4.8z" style="mask:url(#SVGID_3_);fill-rule:evenodd;clip-rule:evenodd;fill:#260563"/><defs><filter id="Adobe_OpacityMaskFilter_2_" filterUnits="userSpaceOnUse" x="334.9" y="199.1" width="157.3" height="200.2"><feColorMatrix values="1 0 0 0 0 0 1 0 0 0 0 0 1 0 0 0 0 0 1 0"/></filter></defs><mask maskUnits="userSpaceOnUse" x="334.9" y="199.1" width="157.3" height="200.2" id="SVGID_5_"><g style="filter:url(#Adobe_OpacityMaskFilter_2_)"><linearGradient id="SVGID_6_" gradientUnits="userSpaceOnUse" x1="-24.554" y1="492.364" x2="-143.974" y2="637.734" gradientTransform="translate(504.353 -273.817)"><stop offset="0" style="stop-color:#000"/><stop offset="1" style="stop-color:#fff"/></linearGradient><path style="fill:url(#SVGID_6_)" d="M334.9 199.1h157.3v200.2H334.9z"/></g></mask><path d="M403 199.1c-45.3 3.6-68 17.1-68 40.5 11.5 18.5 16.2 33.5 13.9 45.1 2.1 76 3.1 114.6 3.1 114.6 90.7-.1 136-.2 136-.2 24.1-74.9-63-59.8-77.9-112.5-5.4-19.2-.1-39.8 14-53.9-.1 0-7.1-11.2-21.1-33.6z" style="mask:url(#SVGID_5_);fill-rule:evenodd;clip-rule:evenodd;fill:#4f02bc"/><path class="st18" d="M354.4 320.6c-.7.7-1.9.7-2.6 0l-9.5-9.8c0 1 0 2-.3 3l8.1 8.4c.8.8 1.9 1.2 2.9 1.3 1.1 0 2.1-.4 3-1.2l25.6-25 .1-.1.1.1 25 25.6c.8.8 1.9 1.2 2.9 1.3 1.1 0 2.1-.4 3-1.2l25.6-25 25 25.6c.8.8 1.9 1.2 2.9 1.3 1.1 0 2.1-.4 3-1.2l25.6-25 .2-.2.2.2 12.7 13c.1-.9.3-1.8.6-2.7l-11.6-11.9c-.7-.7-.7-1.9 0-2.6l9.7-9.4c-.2-.9-.3-1.8-.3-2.7v-.2l-10.9 10.7-.2.2-.2-.2-25-25.6c-.8-.8-1.9-1.2-2.9-1.3-1.1 0-2.1.4-3 1.2l-25.6 25-25-25.6c-.8-.8-1.9-1.2-2.9-1.3-1.1 0-2.1.4-3 1.2l-25.6 25-.1.1-.1-.1-25-25.6c-.8-.8-1.9-1.2-2.9-1.3-1.1 0-2.1.4-3 1.2l-2 2c.3.9.5 1.8.5 2.7l3.1-3.1c.7-.7 1.9-.7 2.6 0l25 25.6c.7.7.7 1.9 0 2.6l-25.7 25zm85.2-26.2c.1-.3.2-.5.4-.7l25.6-25c.7-.7 1.9-.7 2.6 0l25 25.6c.7.7.7 1.9 0 2.6l-25.6 25c-.7.7-1.9.7-2.6 0l-25-25.6c-.2-.2-.3-.4-.4-.7v-1.2zm-56-1.4 25.6-25c.7-.7 1.9-.7 2.6 0l25 25.6c.2.2.3.4.4.7-.1.4-.1.8 0 1.2-.1.3-.2.5-.4.7l-25.6 25c-.7.7-1.9.7-2.6 0l-25-25.6c-.8-.7-.8-1.9 0-2.6z"/><defs><filter id="Adobe_OpacityMaskFilter_3_" filterUnits="userSpaceOnUse" x="510.5" y="351.6" width=".5" height="2.3"><feColorMatrix values="1 0 0 0 0 0 1 0 0 0 0 0 1 0 0 0 0 0 1 0"/></filter></defs><mask maskUnits="userSpaceOnUse" x="510.5" y="351.6" width=".5" height="2.3" id="SVGID_7_"><g style="filter:url(#Adobe_OpacityMaskFilter_3_)"><linearGradient id="SVGID_8_" gradientUnits="userSpaceOnUse" x1="-207.263" y1="624.03" x2="-130.713" y2="661.54" gradientTransform="translate(668.882 -273.666)"><stop offset="0" style="stop-color:#000"/><stop offset="1" style="stop-color:#fff"/></linearGradient><path style="fill:url(#SVGID_8_)" d="M499.4 351.6h27.1v47.8h-27.1z"/></g></mask><path d="M510.5 351.6c.1.8.2 1.6.3 2.3.1-.6.2-1.2.2-1.8-.2-.1-.4-.3-.5-.5z" style="mask:url(#SVGID_7_);fill-rule:evenodd;clip-rule:evenodd;fill:#260563"/><defs><filter id="Adobe_OpacityMaskFilter_4_" filterUnits="userSpaceOnUse" x="499.4" y="354" width="27.1" height="45.5"><feColorMatrix values="1 0 0 0 0 0 1 0 0 0 0 0 1 0 0 0 0 0 1 0"/></filter></defs><mask maskUnits="userSpaceOnUse" x="499.4" y="354" width="27.1" height="45.5" id="SVGID_9_"><g style="filter:url(#Adobe_OpacityMaskFilter_4_)"><linearGradient id="SVGID_10_" gradientUnits="userSpaceOnUse" x1="-207.263" y1="624.03" x2="-130.713" y2="661.54" gradientTransform="translate(668.882 -273.666)"><stop offset="0" style="stop-color:#000"/><stop offset="1" style="stop-color:#fff"/></linearGradient><path style="fill:url(#SVGID_10_)" d="M499.4 351.6h27.1v47.8h-27.1z"/></g></mask><path d="M503.9 399.1c12.9.1 20.4.2 22.6.3-7.3-15.1-12.1-27.5-14.6-37.1-.5-2.9-.9-5.7-1.2-8.4-2.8 20.4-18.9 33.3-6.8 45.2z" style="mask:url(#SVGID_9_);fill-rule:evenodd;clip-rule:evenodd;fill:#260563"/><defs><filter id="Adobe_OpacityMaskFilter_5_" filterUnits="userSpaceOnUse" x="536.8" y="201" width="49.2" height="86.5"><feColorMatrix values="1 0 0 0 0 0 1 0 0 0 0 0 1 0 0 0 0 0 1 0"/></filter></defs><mask maskUnits="userSpaceOnUse" x="536.8" y="201" width="49.2" height="86.5" id="SVGID_11_"><g style="filter:url(#Adobe_OpacityMaskFilter_5_)"><linearGradient id="SVGID_12_" gradientUnits="userSpaceOnUse" x1="-159.213" y1="563.072" x2="-137.913" y2="662.112" gradientTransform="translate(706.192 -385.712)"><stop offset="0" style="stop-color:#000"/><stop offset="1" style="stop-color:#fff"/></linearGradient><path style="fill:url(#SVGID_12_)" d="M536.8 201H586v86.5h-49.2z"/></g></mask><path d="M560.2 257.2c5.7 19.1 20.2 16.9 25.7 30.2-1.2-7.7-2.6-15.7-4.3-23.9-2.3-10.9-4.4-19.2-6.1-24.8-1.6-5.8-4.1-11.8-7.6-18.1-4.2-6.3-10.5-11.4-18.9-15.3-3.4-1.5-7-3-10.9-4.3-2.3 3.1-1.8 8.5 1.6 16.3 0 0 1 1.4 3.1 4.2.1 0 5.9 11.9 17.4 35.7z" style="mask:url(#SVGID_11_);fill-rule:evenodd;clip-rule:evenodd;fill:#7703fc"/><defs><filter id="Adobe_OpacityMaskFilter_6_" filterUnits="userSpaceOnUse" x="552.8" y="246.9" width="43.1" height="162.6"><feColorMatrix values="1 0 0 0 0 0 1 0 0 0 0 0 1 0 0 0 0 0 1 0"/></filter></defs><mask maskUnits="userSpaceOnUse" x="552.8" y="246.9" width="43.1" height="162.6" id="SVGID_13_"><g style="filter:url(#Adobe_OpacityMaskFilter_6_)"><linearGradient id="SVGID_14_" gradientUnits="userSpaceOnUse" x1="-197.715" y1="479.504" x2="-122.845" y2="643.804" gradientTransform="translate(720.884 -263.565)"><stop offset="0" style="stop-color:#000"/><stop offset="1" style="stop-color:#fff"/></linearGradient><path style="fill:url(#SVGID_14_)" d="M551.4 244h44.5v165.5h-44.5z"/></g></mask><path d="M565.8 409.5c8.5-5 15.6-12.6 21-22.7 4.1-7.6 6.8-15.6 8.3-24 1.7-11.9.7-21.6-2.8-28.9 0 0-13.2-29-39.5-87 19 43-4.6 54.1 2 79.2 5.5 20.8 31.3 24.3 28.1 54.6-1.3 11.7-7.5 22.2-17.1 28.8z" style="mask:url(#SVGID_13_);fill-rule:evenodd;clip-rule:evenodd;fill:#7703fc"/><defs><filter id="Adobe_OpacityMaskFilter_7_" filterUnits="userSpaceOnUse" x="551.4" y="244" width="1.3" height="2.9"><feColorMatrix values="1 0 0 0 0 0 1 0 0 0 0 0 1 0 0 0 0 0 1 0"/></filter></defs><mask maskUnits="userSpaceOnUse" x="551.4" y="244" width="1.3" height="2.9" id="SVGID_15_"><g style="filter:url(#Adobe_OpacityMaskFilter_7_)"><linearGradient id="SVGID_16_" gradientUnits="userSpaceOnUse" x1="-197.715" y1="479.504" x2="-122.845" y2="643.804" gradientTransform="translate(720.884 -263.565)"><stop offset="0" style="stop-color:#000"/><stop offset="1" style="stop-color:#fff"/></linearGradient><path style="fill:url(#SVGID_16_)" d="M551.4 244h44.5v165.5h-44.5z"/></g></mask><path d="M552.8 246.9c-.4-1-.9-1.9-1.3-2.9.4 1 .8 2 1.3 2.9z" style="mask:url(#SVGID_15_);fill-rule:evenodd;clip-rule:evenodd;fill:#6f3ad1"/><defs><filter id="Adobe_OpacityMaskFilter_8_" filterUnits="userSpaceOnUse" x="281.1" y="280.5" width="64.3" height="121.3"><feColorMatrix values="1 0 0 0 0 0 1 0 0 0 0 0 1 0 0 0 0 0 1 0"/></filter></defs><mask maskUnits="userSpaceOnUse" x="281.1" y="280.5" width="64.3" height="121.3" id="SVGID_17_"><g style="filter:url(#Adobe_OpacityMaskFilter_8_)"><linearGradient id="SVGID_18_" gradientUnits="userSpaceOnUse" x1="-158.762" y1="519.33" x2="-126.903" y2="657.38" gradientTransform="translate(450.54 -271.293)"><stop offset="0" style="stop-color:#000"/><stop offset="1" style="stop-color:#fff"/></linearGradient><path style="fill:url(#SVGID_18_)" d="M281.1 280.5h64.3v121.3h-64.3z"/></g></mask><path d="M281.3 401.8c8.9-2.6 16.1-6.2 21.6-10.7 5.4-3.9 10.5-9.3 15.3-16.2 2.1-3.2 3.7-6.4 4.8-9.5 2.9-4.8 3.5-10.7 2-17.8l20.1-60.3c1.3-9.2-1.5-8.9-8.3.7-9.2 1.5-17.1 7.3-21.4 15.5-11.1 21.5 12.2 36.5-1.6 54.7-10.4 13.8-35.4 16.8-32.5 43.6z" style="mask:url(#SVGID_17_);fill-rule:evenodd;clip-rule:evenodd;fill:#7703fc"/><defs><filter id="Adobe_OpacityMaskFilter_9_" filterUnits="userSpaceOnUse" x="504.6" y="225.9" width="60.4" height="182"><feColorMatrix values="1 0 0 0 0 0 1 0 0 0 0 0 1 0 0 0 0 0 1 0"/></filter></defs><mask maskUnits="userSpaceOnUse" x="504.6" y="225.9" width="60.4" height="182" id="SVGID_19_"><g style="filter:url(#Adobe_OpacityMaskFilter_9_)"><linearGradient id="SVGID_20_" gradientUnits="userSpaceOnUse" x1="-89.338" y1="556.458" x2="-179.319" y2="602.708" gradientTransform="translate(673.997 -265.232)"><stop offset="0" style="stop-color:#000"/><stop offset="1" style="stop-color:#fff"/></linearGradient><path style="fill:url(#SVGID_20_)" d="M504.6 225.9H565v182h-60.4z"/></g></mask><path d="M526.5 225.9s-7.3.1-21.9.2c0 0 4.3 33.7 12.8 101.2-3.4 15.1-1.2 32 6.5 50.7 4.4 10.7 16.5 36 31.2 28.7 9.3-4.7 13-22.6 7.1-33.9-8.1-15.5-27.7-29.7-29.5-47.8-3.4-32.8 33.4-65.2-6.2-99.1z" style="mask:url(#SVGID_19_);fill-rule:evenodd;clip-rule:evenodd;fill:#4f02bc"/><path class="st40" d="M467.8 250.4c16.6-5.9 27.6-21 28.4-38.9-2.2-4.6-16.6-15.2-43.1-31.7-8.5 4.5-16.2 11-25.6 12.9-4.6.9-10.6-.8-15.4-1.4-2.9-.3-6.4.5-8.1 1.3-3.9 16.4 1.6 34.3 14.6 46.5 13.5 12.8 32.6 17.2 49.2 11.3z"/><path d="M466 242.3c14.1-5 23.5-17.9 24.2-33.2-2.4-5.1-22.3-18.7-59.5-40.8 0 0-1.4 7.2-4.2 21.7 0 0-4.8.5-14.4 1.4-4.2 14.4.4 30.5 12 41.4 11.4 10.8 27.7 14.5 41.9 9.5z" style="fill-rule:evenodd;clip-rule:evenodd;fill:#ffa340"/><defs><filter id="Adobe_OpacityMaskFilter_10_" filterUnits="userSpaceOnUse" x="430.1" y="192.5" width="60" height="52"><feColorMatrix values="1 0 0 0 0 0 1 0 0 0 0 0 1 0 0 0 0 0 1 0"/></filter></defs><mask maskUnits="userSpaceOnUse" x="430.1" y="192.5" width="60" height="52" id="SVGID_21_"><g style="filter:url(#Adobe_OpacityMaskFilter_10_)"><linearGradient id="SVGID_22_" gradientUnits="userSpaceOnUse" x1="-105.605" y1="690.111" x2="-163.145" y2="616.96" gradientTransform="translate(599.507 -428.601)"><stop offset="0" style="stop-color:#000"/><stop offset="1" style="stop-color:#fff"/></linearGradient><path style="fill:url(#SVGID_22_)" d="M430.1 192.5h60v52h-60z"/></g></mask><path d="M452.2 244.5c13.3.5 25.8-6.3 32.7-17.7 3-5 4.7-10.5 5.2-16.3-36.3-7.9-56.3-13.9-60-18l3.6 47.1c1.7.8 2.6 1.3 2.6 1.3 4.9 2.2 10.4 3.5 15.9 3.6z" style="mask:url(#SVGID_21_);fill-rule:evenodd;clip-rule:evenodd;fill:#fc4c00"/><ellipse transform="matrix(.998 -.06249 .06249 .998 -9.123 26.986)" class="st45" cx="426.9" cy="159.3" rx="12" ry="15.8"/><path class="st46" d="M430.1 169.8c3.7-.4 6.4-4.7 6-9.6-.4-4.9-3.8-8.6-7.5-8.2-3.7.4-6.4 4.7-6 9.6.4 4.9 3.8 8.6 7.5 8.2z"/><path class="st47" d="M431.8 167.4c2.3-.2 4-3 3.8-6-.3-3.1-2.4-5.4-4.7-5.2-2.3.2-4 3-3.8 6 .2 3.1 2.3 5.4 4.7 5.2z"/><path class="st45" d="M451.3 229.2c8.2 2.6 17.2.5 23.4-5.5 16.3-10.5 27.6-27.2 31.3-46.3 9.8-13.9 9.5-32.5-.8-46s-28-18.6-44.1-13.1c-14.7 5-18.4 16.7-25.8 38.1-7.7 17.5-7.7 37.4-.1 54.9 1.7 8.5 7.9 15.3 16.1 17.9z"/><defs><filter id="Adobe_OpacityMaskFilter_11_" filterUnits="userSpaceOnUse" x="481" y="170.7" width="24" height="41.8"><feColorMatrix values="1 0 0 0 0 0 1 0 0 0 0 0 1 0 0 0 0 0 1 0"/></filter></defs><mask maskUnits="userSpaceOnUse" x="481" y="170.7" width="24" height="41.8" id="SVGID_23_"><g style="filter:url(#Adobe_OpacityMaskFilter_11_)"><linearGradient id="SVGID_24_" gradientUnits="userSpaceOnUse" x1="-185.291" y1="658.33" x2="-152.431" y2="651.1" gradientTransform="translate(650.424 -460.58)"><stop offset="0" style="stop-color:#000"/><stop offset="1" style="stop-color:#fff"/></linearGradient><path style="fill:url(#SVGID_24_)" d="M481 170.7h24v41.8h-24z"/></g></mask><path d="M484.4 212.5c3.3-3.1 5-4.6 5-4.6-1.4-11.8.2-19 4.6-21.5.1-4.2 2.2-7.1 6.5-9-.3-1.9 1.3-4.2 4.5-6.8-4.7 0-9 2.6-11 6.8-2 .3-3.7 1.4-4.9 3-1.1 1.6-1.5 3.7-1.1 5.6-7.7 6.8-9.3 18.1-3.6 26.5z" style="mask:url(#SVGID_23_);fill-rule:evenodd;clip-rule:evenodd;fill:#ff5d17"/><defs><filter id="Adobe_OpacityMaskFilter_12_" filterUnits="userSpaceOnUse" x="432.4" y="129.1" width="41" height="79.6"><feColorMatrix values="1 0 0 0 0 0 1 0 0 0 0 0 1 0 0 0 0 0 1 0"/></filter></defs><mask maskUnits="userSpaceOnUse" x="432.4" y="129.1" width="41" height="79.6" id="SVGID_25_"><g style="filter:url(#Adobe_OpacityMaskFilter_12_)"><linearGradient id="SVGID_26_" gradientUnits="userSpaceOnUse" x1="-134.131" y1="667.042" x2="-159.171" y2="610.002" gradientTransform="translate(601.85 -464.381)"><stop offset="0" style="stop-color:#000"/><stop offset="1" style="stop-color:#fff"/></linearGradient><path style="fill:url(#SVGID_26_)" d="M432.4 129.1h41v79.6h-41z"/></g></mask><path d="M452.8 152.1c5.6-5.1 13.6-6.7 20.7-4-19.9-25.6-31.3-25.3-34 .9-8.7 21.5-9.2 41.5-1.6 59.8 24.6-20.5-2.6-40.7 14.9-56.7z" style="mask:url(#SVGID_25_);fill-rule:evenodd;clip-rule:evenodd;fill:#ff5d17"/><path d="M437.5 128.4c-2.5 5.7-4 11.6-4.8 17.6 2.6 2.8 3.6 6.7 2.6 10.5 8.2-15.1 12.2-22.6 12.2-22.6 5.2 7.5 13.3 12.5 22.3 13.9 9 1.4 18.2-.9 25.5-6.3a30.8 30.8 0 0 0-3.6 4c-7 9.8 7.9 11.2 16 5.4-1.2 4.1-.4 8.5 2.1 11.9-1 5.1-1.9 10.6-3.9 14.7 2.2-1.4 4.3-2.1 6.8-1.9 4-6 7.5-12 10-18.7 5.3-5.7 7.6-13.5 6.2-21.1-1.4-7.6-6.4-14.1-13.4-17.5 7.2-19.7-19.6-31.2-15.2-19.3-41.5-25.4-83 29.9-62.8 29.4z" style="fill-rule:evenodd;clip-rule:evenodd;fill:#63220a"/><defs><filter id="Adobe_OpacityMaskFilter_13_" filterUnits="userSpaceOnUse" x="432.3" y="93" width="48.7" height="63.5"><feColorMatrix values="1 0 0 0 0 0 1 0 0 0 0 0 1 0 0 0 0 0 1 0"/></filter></defs><mask maskUnits="userSpaceOnUse" x="432.3" y="93" width="48.7" height="63.5" id="SVGID_27_"><g style="filter:url(#Adobe_OpacityMaskFilter_13_)"><linearGradient id="SVGID_28_" gradientUnits="userSpaceOnUse" x1="-123.748" y1="606.089" x2="-157.508" y2="661.889" gradientTransform="translate(601.692 -516.664)"><stop offset="0" style="stop-color:#000"/><stop offset="1" style="stop-color:#fff"/></linearGradient><path style="fill:url(#SVGID_28_)" d="M432.3 93H481v63.5h-48.7z"/></g></mask><path d="M437.5 128.4c-2.5 5.7-4 11.6-4.8 17.6 2.6 2.8 3.6 6.7 2.6 10.5l12.2-22.6c7.5 10.7 20.6 16 33.4 13.8-5.3-5.7-9.3-12.5-11.6-20.1l-.1-.4c-3.9-11.6-3.4-23.5.4-34.2-27.9 5.2-47.1 35.8-32.1 35.4z" style="mask:url(#SVGID_27_);fill-rule:evenodd;clip-rule:evenodd;fill:#451301"/><defs><filter id="Adobe_OpacityMaskFilter_14_" filterUnits="userSpaceOnUse" x="499.9" y="94" width="29.5" height="83.4"><feColorMatrix values="1 0 0 0 0 0 1 0 0 0 0 0 1 0 0 0 0 0 1 0"/></filter></defs><mask maskUnits="userSpaceOnUse" x="499.9" y="94" width="29.5" height="83.4" id="SVGID_29_"><g style="filter:url(#Adobe_OpacityMaskFilter_14_)"><linearGradient id="SVGID_30_" gradientUnits="userSpaceOnUse" x1="-198.71" y1="595.788" x2="-129" y2="652.188" gradientTransform="translate(669.298 -495.692)"><stop offset="0" style="stop-color:#000"/><stop offset="1" style="stop-color:#fff"/></linearGradient><path style="fill:url(#SVGID_30_)" d="M499.9 94h29.5v83.4h-29.5z"/></g></mask><path d="M499.9 96.8c7.9 9.1 12.6 21 12.6 33.9 0 8.2-1.9 16-5.3 22.9-.2 3.2.7 6.4 2.7 9.1-1 5.1-1.9 10.6-3.9 14.7 2.2-1.4 4.3-2.1 6.8-1.9 4-6 7.5-12 10-18.7 5.3-5.7 7.6-13.5 6.2-21.1-1.4-7.6-6.4-14.1-13.4-17.5 6.7-18.5-16.4-29.8-15.7-21.4z" style="mask:url(#SVGID_29_);fill-rule:evenodd;clip-rule:evenodd;fill:#9e5116"/><defs><filter id="Adobe_OpacityMaskFilter_15_" filterUnits="userSpaceOnUse" x="432.8" y="155.7" width="19.7" height="31.6"><feColorMatrix values="1 0 0 0 0 0 1 0 0 0 0 0 1 0 0 0 0 0 1 0"/></filter></defs><mask maskUnits="userSpaceOnUse" x="432.8" y="155.7" width="19.7" height="31.6" id="SVGID_31_"><g style="filter:url(#Adobe_OpacityMaskFilter_15_)"><linearGradient id="SVGID_32_" gradientUnits="userSpaceOnUse" x1="-145.762" y1="677.653" x2="-170.192" y2="641.713" gradientTransform="translate(602.246 -485.877)"><stop offset="0" style="stop-color:#000"/><stop offset="1" style="stop-color:#fff"/></linearGradient><path style="fill:url(#SVGID_32_)" d="M432.8 155.7h19.7v31.6h-19.7z"/></g></mask><path d="M436.9 155.7c-2 6.1-3.4 12.3-4.1 18.7.3 4.6 2.8 8.7 6.8 11 4 2.3 8.8 2.4 12.9.4-5.1-.4-9.7-3.4-12-8-2.3-4.6-2.1-10 .6-14.4.5-1.3-.9-3.9-4.2-7.7z" style="mask:url(#SVGID_31_);fill-rule:evenodd;clip-rule:evenodd;fill:#de2104"/><path d="M459.9 237.9c7.6-2.2 13.3-8.6 14.4-16.5-6.1 5.1-14.4 6.8-22 4.4-7.6-2.4-13.5-8.5-15.6-16.1-3.6 7.1-2.6 15.6 2.4 21.7s13.2 8.7 20.8 6.5z" style="fill-rule:evenodd;clip-rule:evenodd;fill:#662811"/><path class="st65" d="M491 167c2.5 1.6 4.7 3.7 6.2 6.3.4.7 1.3.9 1.9.5.7-.4.9-1.3.5-1.9-1.8-3-4.3-5.5-7.2-7.3-2.9-1.8-6.2-2.9-9.7-3.2-.8-.1-1.5.5-1.5 1.3-.1.8.5 1.5 1.3 1.5 3.1.3 6 1.3 8.5 2.8zM448.1 157.2c3.2-1.3 6.5-1.7 9.8-1.4 3.3.3 6.5 1.5 9.4 3.3.7.4 1.5.2 2-.4.4-.7.2-1.5-.4-2-3.2-2.1-6.9-3.4-10.6-3.8-3.7-.4-7.6.1-11.2 1.6-.7.3-1.1 1.1-.8 1.8.2.9 1 1.2 1.8.9z"/><path class="st66" d="M456 169c0-1.1-.9-2-2-2s-2 .9-2 2 .9 2 2 2 2-.9 2-2zM486.6 178.8c0-1-.8-1.9-1.9-1.9-1 0-1.9.8-1.9 1.9s.8 1.9 1.9 1.9c1 0 1.9-.9 1.9-1.9z"/><path class="st18" d="M474.2 191.4c2.6 2.6 6.3 4.3 10.3 4.3 4 0 7.6-1.6 10.3-4.3 2.6-2.6 4.3-6.3 4.3-10.3 0-4-1.6-7.6-4.3-10.3-2.6-2.6-6.3-4.3-10.3-4.3-4 0-7.6 1.6-10.3 4.3-.4.4-.7.8-1.1 1.2-.2-.2-.3-.5-.5-.7-.6-.6-1.3-1.1-2.1-1.5-.8-.3-1.7-.4-2.5-.4-.3 0-.5.1-.8.1-.3-3.6-1.9-6.8-4.3-9.2-2.7-2.7-6.4-4.3-10.5-4.3s-7.8 1.7-10.5 4.3l-.3.3-8.4-15.6c-.2-.4-.8-.6-1.2-.4-.4.2-.6.8-.4 1.2l8.8 16.3c-1.8 2.4-2.8 5.4-2.8 8.7 0 4.1 1.7 7.8 4.3 10.5 2.7 2.7 6.4 4.3 10.5 4.3s7.8-1.7 10.5-4.3c2.6-2.6 4.2-6 4.3-9.9.3-.1.6-.2.9-.2.6-.1 1.1 0 1.7.2.5.2 1 .6 1.4 1 .3.3.5.7.7 1.1-1.3 2.2-2 4.7-2 7.4.1 4.2 1.7 7.9 4.3 10.5zm-12.5-11.2c-2.3 2.3-5.6 3.8-9.2 3.8-3.6 0-6.8-1.4-9.2-3.8-2.3-2.3-3.8-5.6-3.8-9.2 0-3.6 1.4-6.8 3.8-9.2 2.3-2.3 5.6-3.8 9.2-3.8 3.6 0 6.8 1.4 9.2 3.8 2.3 2.3 3.8 5.6 3.8 9.2 0 3.6-1.5 6.8-3.8 9.2zm13.8-8c2.3-2.3 5.5-3.7 9-3.7s6.7 1.4 9 3.7c2.3 2.3 3.7 5.5 3.7 9s-1.4 6.7-3.7 9c-2.3 2.3-5.5 3.7-9 3.7s-6.7-1.4-9-3.7c-2.3-2.3-3.7-5.5-3.7-9 0-3.6 1.4-6.7 3.7-9z"/><path class="st40" d="M494.1 176.7c0-1.7-1.3-3-3-3s-3 1.3-3 3 1.3 3 3 3c1.6 0 3-1.3 3-3zM463.1 167.2c0-1.7-1.3-3-3-3s-3 1.3-3 3 1.3 3 3 3 3-1.4 3-3z"/><path class="st47" d="M457.9 209c2.2.7 4.5.9 6.7.6 2.2-.3 4.4-1.1 6.3-2.4.6-.4.7-1.1.4-1.7-.4-.6-1.1-.7-1.7-.4-1.6 1.1-3.4 1.7-5.3 2-1.9.2-3.8.1-5.6-.5-1.8-.6-3.5-1.6-4.8-2.9-1.3-1.3-2.4-2.9-3.1-4.8-.2-.6-.9-1-1.6-.7-.6.2-1 .9-.7 1.6.8 2.2 2 4.1 3.6 5.7 1.6 1.5 3.6 2.7 5.8 3.5z"/><path class="st46" d="M467.8 197.9c6.4-.4 9.2-3.4 4-7.4-.2-1.5-.6-14.5-3-14.9-2.8-.5-7.8 8.3-9.7 10.7-6.4-1.2-8.3 3.1-1.9 8.7 2.4 3.8 6 4.7 10.6 2.9z"/><path class="st47" d="M456.6 213.2c.9.3 1.9.4 2.8.3.9-.1 1.8-.4 2.6-1 .2-.2.3-.5.1-.7-.2-.2-.5-.3-.7-.1-.7.4-1.4.7-2.2.8-.8.1-1.6 0-2.3-.2-.8-.3-1.4-.7-2-1.2-.6-.5-1-1.2-1.3-2-.1-.3-.4-.4-.6-.3-.3.1-.4.4-.3.6.3.9.8 1.7 1.5 2.3.7.7 1.5 1.2 2.4 1.5z"/><path class="st40" d="M519.2 195.7c5.8-6 6.9-14.4 2.4-18.9-4.5-4.5-12.8-3.2-18.5 2.7-5.8 6-6.9 14.4-2.4 18.9 4.5 4.5 12.8 3.2 18.5-2.7z"/><path class="st40" d="M513.4 191.4c3.4-3.5 4.1-8.6 1.4-11.2-2.6-2.6-7.6-1.9-11 1.6-3.4 3.5-4.1 8.6-1.4 11.2 2.6 2.6 7.5 1.9 11-1.6z"/><path class="st40" d="M509.5 189.1c2.2-2.2 2.6-5.4.9-7-1.7-1.7-4.7-1.2-6.9 1s-2.6 5.4-.9 7c1.7 1.7 4.8 1.2 6.9-1z"/><path class="st45" d="M496.3 212.3c4.3 9.3 5.9 12.5 11.6 16.5 11.9 2.5 24.3-1.9 31.9-11.5 0 0-1.1-10.7-3.2-32.2 0 0 .5-3.3 1.6-9.9.5-4.5-3.8-7-12.9-7.4-2.6-2.9-5.2-4-9.1-2.6-2.4.9-4.3 2.8-5.2 5.1-2.4-.8-5-.4-7 1-2.1 1.4-3.3 3.7-3.5 6.2-3.9 1-6.5 4.7-6 8.7-8.9 3.7-6.9 29.6 1.8 26.1z"/><defs><filter id="Adobe_OpacityMaskFilter_16_" filterUnits="userSpaceOnUse" x="493.1" y="187.1" width="39.4" height="42.3"><feColorMatrix values="1 0 0 0 0 0 1 0 0 0 0 0 1 0 0 0 0 0 1 0"/></filter></defs><mask maskUnits="userSpaceOnUse" x="493.1" y="187.1" width="39.4" height="42.3" id="SVGID_33_"><g style="filter:url(#Adobe_OpacityMaskFilter_16_)"><linearGradient id="SVGID_34_" gradientUnits="userSpaceOnUse" x1="-145.04" y1="616.39" x2="-154.27" y2="686.13" gradientTransform="translate(662.504 -443.653)"><stop offset="0" style="stop-color:#000"/><stop offset="1" style="stop-color:#fff"/></linearGradient><path style="fill:url(#SVGID_34_)" d="M493.1 187.1h39.4v42.3h-39.4z"/></g></mask><path d="M503.5 200.8c-2.8 2.4-6.6 3.1-10.1 1.9-.7 1.8-.3 2.8 1.3 3.1 4.5 10.5 9.7 18.3 15.7 23.4 7.7 1 15.5-.8 22-5.1-4.8 1.7-10 .6-13.8-2.7-12.9-11.6 7.7-23.6-6.1-34.2-.2 1.3-1 2.5-2.1 3.2-1.1.8-2.5 1-3.8.8.9 3.5-.3 7.2-3.1 9.6z" style="mask:url(#SVGID_33_);fill-rule:evenodd;clip-rule:evenodd;fill:#f24900"/><defs><filter id="Adobe_OpacityMaskFilter_17_" filterUnits="userSpaceOnUse" x="518.7" y="164.5" width="21.1" height="57.1"><feColorMatrix values="1 0 0 0 0 0 1 0 0 0 0 0 1 0 0 0 0 0 1 0"/></filter></defs><mask maskUnits="userSpaceOnUse" x="518.7" y="164.5" width="21.1" height="57.1" id="SVGID_35_"><g style="filter:url(#Adobe_OpacityMaskFilter_17_)"><linearGradient id="SVGID_36_" gradientUnits="userSpaceOnUse" x1="-182.456" y1="629.448" x2="-141.166" y2="655.908" gradientTransform="translate(688.13 -451.482)"><stop offset="0" style="stop-color:#000"/><stop offset="1" style="stop-color:#fff"/></linearGradient><path style="fill:url(#SVGID_36_)" d="M518.7 164.5h21.1v57.1h-21.1z"/></g></mask><path d="M537.7 172.2c-.5-.9-1.3-1.7-2.3-2.3-1.2-.7-2.7-1.2-4.5-1.6-1-.2-2.3-.4-3.9-.5 0 0-.8-.3-2.5-.9-1.9-1.8-3.8-2.6-5.9-2.4 19.5 9 14.4 22 9.5 31.1-2.7 5-5.4 9.9-4 15.4 1.5 5.4 5.9 9.6 11.4 10.6 1.4-1.2 2.8-2.6 4.2-4.3-1-9.6-2-20.3-3.2-32.2.5-3.3 1.1-6.6 1.6-9.9.3-.9.1-1.9-.4-3z" style="mask:url(#SVGID_35_);fill-rule:evenodd;clip-rule:evenodd;fill:#ffcc85"/><path class="st73" d="M530.6 172.5c.4-.4.4-1.1-.1-1.5l-4.5-4c-.4-.4-1.1-.4-1.5.1-.4.4-.4 1.1.1 1.5l4.5 4c.4.4 1.1.3 1.5-.1zM516.2 174.7c.4-.5.3-1.1-.1-1.5l-4.4-3.7c-.5-.4-1.1-.3-1.5.1-.4.5-.3 1.1.1 1.5l4.4 3.7c.5.4 1.1.4 1.5-.1zM504.4 180.4c.4-.5.3-1.2-.2-1.5l-3.1-2.3c-.5-.4-1.2-.3-1.5.2s-.3 1.2.2 1.5l3.1 2.3c.5.4 1.2.3 1.5-.2zM497.8 188.6c.4-.5.2-1.2-.2-1.5l-2.4-1.8c-.5-.4-1.2-.2-1.5.2-.4.5-.2 1.2.2 1.5l2.4 1.8c.4.4 1.1.3 1.5-.2zM521.1 175.5c.5.5 1 1.1 1.2 1.7.2.6.8.8 1.4.6.6-.2.8-.8.6-1.4-.4-1-1-1.9-1.8-2.6-.8-.7-1.8-1.2-2.8-1.4-.6-.1-1.2.2-1.3.8-.1.6.2 1.2.8 1.3.7.2 1.3.5 1.9 1zM512.2 182.8c.4.3.7.8.9 1.3.2.5.9.8 1.4.6.5-.2.8-.9.6-1.4-.3-.8-.9-1.5-1.5-2.1-.6-.6-1.4-1-2.3-1.2-.6-.1-1.2.2-1.3.8-.1.6.2 1.2.8 1.3.6.1 1 .4 1.4.7z"/><path class="st73" d="M500.7 178.6c.5-.1.9-.5.9-1.1.1-1.1.4-2.1.9-3 .5-.9 1.2-1.7 2.1-2.3.9-.6 1.9-1 2.9-1.1 1-.1 2.1-.1 3.1.3.6.2 1.3-.1 1.5-.7.2-.6-.1-1.3-.7-1.5-1.4-.4-2.8-.6-4.1-.4-1.4.2-2.7.7-3.9 1.5-1.2.8-2.1 1.9-2.8 3.1-.6 1-.9 2.1-1.1 3.2-1.9.7-3.4 1.9-4.5 3.5s-1.7 3.5-1.6 5.5c-1 .6-1.8 1.4-2.6 2.3-.9 1.1-1.5 2.3-1.8 3.7-.5 1.5-.8 2.9-1 4.4-.2 1.5-.3 3-.2 4.6 0 1.6.2 3.3.5 4.8.3 1.6.9 3.2 1.6 4.7.3.6 1 .8 1.5.6.6-.3.8-1 .6-1.5-.6-1.3-1.1-2.7-1.4-4.2-.3-1.4-.5-2.9-.5-4.3v-.1c-.1-1.4 0-2.8.2-4.2.2-1.4.5-2.8.9-4.1v-.1c.3-1.1.8-2 1.4-2.9.7-.8 1.5-1.5 2.4-2 .4-.2.7-.7.6-1.2-.2-1.7.3-3.4 1.2-4.7.9-1.4 2.3-2.4 3.9-2.8z"/><path class="st73" d="M496.7 213.3c.5-.2.8-.9.6-1.4l-3.9-9.1c-.2-.5-.9-.8-1.4-.6-.5.2-.8.9-.6 1.4l3.9 9.1c.3.5.9.8 1.4.6zM504.1 190c.4.3.6.7.8 1.1.2.5.8.7 1.3.5.5-.2.7-.8.5-1.3-.3-.7-.8-1.4-1.4-1.9-.6-.5-1.3-.9-2-1.1-.5-.1-1 .2-1.2.7-.1.5.2 1 .7 1.2.5.2.9.5 1.3.8z"/><defs><filter id="Adobe_OpacityMaskFilter_18_" filterUnits="userSpaceOnUse" x="250.9" y="265.2" width="72.2" height="119.9"><feColorMatrix values="1 0 0 0 0 0 1 0 0 0 0 0 1 0 0 0 0 0 1 0"/></filter></defs><mask maskUnits="userSpaceOnUse" x="250.9" y="265.2" width="72.2" height="119.9" id="SVGID_37_"><g style="filter:url(#Adobe_OpacityMaskFilter_18_)"><linearGradient id="SVGID_38_" gradientUnits="userSpaceOnUse" x1="-99.515" y1="714.013" x2="-146.505" y2="573.813" gradientTransform="translate(420.298 -288.065)"><stop offset="0" style="stop-color:#000"/><stop offset="1" style="stop-color:#fff"/></linearGradient><path style="fill:url(#SVGID_38_)" d="M250.9 265.2h72.2v119.9h-72.2z"/></g></mask><path d="m323.1 287.7-10.5-22.5-47.1 59.1c-8.2 7.8-12.9 17.7-14.1 29.5-3 30.1 8.4 41.8 34.1 20.2 3.2-2.7 6.1-5.9 8.5-9.4 20.8-30.6-7.4-46.9 7.8-67.1 4.9-6.8 13-10.5 21.3-9.8z" style="mask:url(#SVGID_37_);fill-rule:evenodd;clip-rule:evenodd;fill:#4f02bc"/><path class="st77" d="M322.9 365.3c.7.3 1.5 0 1.9-.7 1.3-2.8 2-5.8 2-8.8 0-2.8-.6-5.6-1.7-8.3l16.3-44.8-.3 33.9c0 .8.6 1.4 1.4 1.4.8 0 1.4-.6 1.4-1.4l.4-41.7 3.4-9.4c.3-.7-.1-1.5-.8-1.8-.7-.3-1.5.1-1.8.8L322.3 347c-.1.3-.1.7 0 1.1 1.1 2.4 1.7 5 1.7 7.6 0 2.6-.6 5.2-1.7 7.6-.4.8-.1 1.6.6 2zM333.3 219.4c-.6-.4-1.5-.2-1.9.4-3.8 5.9-5.4 12.7-4.9 19.3.5 6.6 3.2 13.1 7.8 18.3.5.6 1.4.6 2 .1.6-.5.6-1.4.1-2-4.3-4.7-6.7-10.6-7.1-16.7-.5-6 1-12.2 4.4-17.6.4-.6.2-1.4-.4-1.8zM284.4 307.1c-.6-.4-1.5-.3-1.9.4-4.8 7-6.9 15.2-6.6 23.3.3 8.1 3.2 16.1 8.5 22.7.5.6 1.4.7 1.9.2.6-.5.7-1.4.2-1.9-4.9-6.2-7.6-13.6-7.9-21.1-.3-7.5 1.7-15.1 6.2-21.6.4-.7.2-1.6-.4-2zM310.3 260.1c-.6-.5-1.5-.4-1.9.2l-45.3 58c-.5.6-.4 1.5.2 1.9.6.5 1.5.4 1.9-.2l45.3-58c.5-.6.4-1.5-.2-1.9zM592.3 333.9c.7-.3 1-1.1.7-1.8l-50-114.2c-.3-.7-1.1-1-1.8-.7-.7.3-1 1.1-.7 1.8l50 114.2c.3.7 1.1 1.1 1.8.7zM403.6 374c-.8-.1-1.5.5-1.5 1.2-.1.8.5 1.5 1.2 1.5 32.8 3.7 65.9-32 99.2-107.2 1 8 2.1 17.1 3.3 27.3-16.6 58.6-31.7 87.9-45.2 87.8-.8 0-1.4.6-1.4 1.4 0 .8.6 1.4 1.4 1.4 14.4.1 29.8-27.6 46.1-83.4.8 7.2 1.7 14.9 2.6 23.1-2 12.5-1.3 25 1.7 37.1 3.2 12.8 8.9 25.1 16.4 36.2.4.6 1.3.8 1.9.4.6-.4.8-1.3.4-1.9-7.4-10.8-12.9-22.8-16-35.3-2.9-11.8-3.6-24-1.6-36.2v-.4c-1.2-10.9-2.3-21-3.4-30.2v-.1c-5.5-47.2-9-70.9-9-71-.1-.8-.8-1.3-1.6-1.2s-1.3.8-1.2 1.6c0 .1 1.9 12.7 5 37.9-33.5 77.1-66.2 113.7-98.3 110zM551.6 365.3c-.7.2-1.1 1-.9 1.8.2.7 1 1.1 1.8.9a42.25 42.25 0 0 0 23.2-19c5-8.7 6.9-19.2 4.6-29.6-.2-.8-.9-1.2-1.6-1.1-.8.2-1.2.9-1.1 1.6 2.1 9.8.3 19.5-4.3 27.7-4.7 8-12.2 14.5-21.7 17.7z"/><path class="st77" d="M437.3 343.8c-11.6 5.6-23.9 3.3-36.9-6.9-13.3-10.4-27.2-29-41.7-55.7-.4-.7-1.2-.9-1.9-.6-.7.4-.9 1.2-.6 1.9 14.7 27.1 28.9 46 42.4 56.6 13.9 10.9 27.1 13.3 39.8 7.2.7-.3 1-1.2.6-1.9-.2-.6-1-.9-1.7-.6z"/><path class="st18" d="M377.9 235.1c3.5-.7 7.2-.1 10.4 2l3.3-5.2c-4.6-2.9-9.9-3.7-14.9-2.8-5 1-9.6 3.7-12.8 8.1-3.2 4.4-4.4 9.6-3.8 14.6.6 5 3 9.8 7.2 13.3 4.1 3.5 9.3 5.1 14.3 4.9 5.1-.2 10-2.3 13.8-6.2l-4.4-4.3c-2.7 2.7-6.1 4.2-9.7 4.4-3.5.2-7.2-1-10.1-3.4-2.9-2.5-4.6-5.8-5-9.4-.4-3.5.4-7.2 2.7-10.3 2.3-3 5.5-5 9-5.7z"/><path class="st45" d="m376.3 223.4-17.6.3s-3 1.5-9.1 4.6c-4.6.8-8.6 3.5-11 7.5 0 0-7.1 7.2-21.3 21.5-7.1 6.9-7.5 18.1-1 25.5 6.5 7.4 17.7 8.3 25.4 2.2 4.3.4 8.6-.3 12.5-1.9 5.2-2 10.3-4.1 15.5-6.1 2.9-1 4.6-4 4-7.1 2.3-.9 4-2.9 4.7-5.3.7-2.4.2-5-1.3-6.9 2.3-1.3 3.6-3.8 3.4-6.4-.2-2.6-1.9-4.9-4.4-5.8 2.2-.7 3.8-2.7 4-5.1.2-2.3-.9-4.6-3-5.8l-4.2-1.5c3.7-1.8 5.1-6.1 3.4-9.7z"/><path class="st73" d="M343.4 236.7c1.1-1.4 2.5-2.4 4.1-3.2 1.5-.7 3.2-1.1 5-1.1l20.7 1.7c.5 0 1-.3 1-.8s-.3-1-.8-1l-20.7-1.7h-.1c-2 0-4 .4-5.8 1.3-1.8.8-3.4 2.1-4.7 3.7-.3.4-.3 1 .1 1.3.3.3.8.2 1.2-.2z"/><path class="st40" d="M432.2 277.8c2.2 0 4-1.8 4-4v-43.6c0-2.2-1.8-4-4-4h-40.4c-2.2 0-4 1.8-4 4v43.6c0 2.2 1.8 4 4 4h40.4z"/><ellipse class="st6" cx="411.6" cy="253.9" rx="11" ry="13.6"/><path class="st18" d="M411 266.3c-1.1 1.1-2.4 1.9-3.9 2.3l.6 2.1c1.9-.5 3.5-1.5 4.9-2.8 1.3-1.3 2.3-3 2.9-4.8 1.6-5.6-.7-8.3-3-10.9-1.7-2-3.3-3.9-2.3-7.2.4-1.4 1.2-2.6 2.3-3.4 1.1-.8 2.4-1.4 3.9-1.4l-.1-2.2c-1.9.1-3.7.7-5.1 1.9-1.4 1.1-2.5 2.7-3.1 4.5-1.3 4.5.7 6.8 2.8 9.2 1.9 2.2 3.8 4.4 2.5 8.9-.5 1.4-1.3 2.8-2.4 3.8z"/><defs><filter id="Adobe_OpacityMaskFilter_19_" filterUnits="userSpaceOnUse" x="311.9" y="238" width="31" height="51.1"><feColorMatrix values="1 0 0 0 0 0 1 0 0 0 0 0 1 0 0 0 0 0 1 0"/></filter></defs><mask maskUnits="userSpaceOnUse" x="311.9" y="238" width="31" height="51.1" id="SVGID_39_"><g style="filter:url(#Adobe_OpacityMaskFilter_19_)"><linearGradient id="SVGID_40_" gradientUnits="userSpaceOnUse" x1="-121.539" y1="641.023" x2="-177.619" y2="652.303" gradientTransform="translate(481.383 -384.015)"><stop offset="0" style="stop-color:#000"/><stop offset="1" style="stop-color:#fff"/></linearGradient><path style="fill:url(#SVGID_40_)" d="M311.9 238h31v51.1h-31z"/></g></mask><path d="M328.6 268.4c4.6-2.7 10.5-5 13.3-13.1 2-5.8 1.3-12.2-2-17.3l-21 21c-4.2 3.5-6.7 8.7-6.9 14.2 1.2 8.9 8.7 15.6 17.6 16-9.1-3.7-10.1-15.4-1-20.8z" style="mask:url(#SVGID_39_);fill-rule:evenodd;clip-rule:evenodd;fill:#fc4c00"/><path class="st73" d="M341.5 248.8c-.4-.3-1-.1-1.3.3-.6 1.1-.9 2.4-.8 3.6.1 1.2.5 2.4 1.4 3.4.3.4.9.5 1.3.1.4-.3.5-.9.1-1.3-.6-.7-.9-1.5-.9-2.4-.1-.9.1-1.7.6-2.5.2-.4 0-.9-.4-1.2zM341.9 260.8c-.5-.1-1 .1-1.1.6-.3 1.1-.3 2.2 0 3.3.3 1 .9 2 1.8 2.7.4.3 1 .3 1.3-.1.3-.4.3-1-.1-1.3-.6-.5-1-1.2-1.2-1.9-.2-.7-.2-1.5 0-2.2 0-.5-.3-1-.7-1.1z"/><defs><filter id="Adobe_OpacityMaskFilter_20_" filterUnits="userSpaceOnUse" x="334.7" y="246.3" width="46" height="41.6"><feColorMatrix values="1 0 0 0 0 0 1 0 0 0 0 0 1 0 0 0 0 0 1 0"/></filter></defs><mask maskUnits="userSpaceOnUse" x="334.7" y="246.3" width="46" height="41.6" id="SVGID_41_"><g style="filter:url(#Adobe_OpacityMaskFilter_20_)"><linearGradient id="SVGID_42_" gradientUnits="userSpaceOnUse" x1="-190.381" y1="624.874" x2="-128.901" y2="663.254" gradientTransform="translate(504.15 -385.209)"><stop offset="0" style="stop-color:#000"/><stop offset="1" style="stop-color:#fff"/></linearGradient><path style="fill:url(#SVGID_42_)" d="M334.7 246.3h46v41.6h-46z"/></g></mask><path d="M380.7 251.7c-.1-2.2-1.2-4.2-3-5.4 0 0-.1.1-.2.3-6.1 1-7 11.9-13.1 16.9-8.9 7.2-19.8-1.1-27.1 9.2-3.2 4.5-3.4 10.6-.4 15.3 1.4-.5 2.7-1.2 3.9-2.1 1.3-.5 2-.7 2-.7 2.3.1 4.3-.1 6.1-.4 2.1-.4 4.1-1 6-1.8 5.9-2.3 11-4.3 15.2-6 2.5-1 4.1-3.4 3.9-6.1 0 0 .2-.4.7-1.3 1.9-1 3.3-2.8 3.9-4.9.6-2.1.3-4.3-.8-6.2 0 0 .1-.4.3-1.3 1.6-1.3 2.6-3.4 2.6-5.5z" style="mask:url(#SVGID_41_);fill-rule:evenodd;clip-rule:evenodd;fill:#ffd28f"/><path class="st73" d="M348.8 244.9c1.2-1 2.6-1.6 4.1-1.7 1.5-.1 3 .1 4.4.9.1.1.2.1.3.1l19.2 2.5c.5.1 1-.3 1-.8.1-.5-.3-1-.8-1l-19-2.5c-1.7-.9-3.5-1.2-5.3-1-1.8.2-3.6.9-5.1 2.1-.4.3-.4.9-.1 1.3.3.4.9.5 1.3.1zM352.8 267.4c-1.4-.1-2.8-.4-4.2-.8-.5-.2-1 .1-1.2.6-.2.5.1 1 .6 1.2 1.5.5 3.1.8 4.7.9 1.5.1 3.1 0 4.6-.2l16.5 1.9c.5.1 1-.3 1-.8.1-.5-.3-1-.8-1l-16.6-1.9h-.3c-1.4.1-2.9.2-4.3.1zM336.4 284.9c1.7.5 3.5.9 5.3 1.1.5.1 1-.3 1-.8.1-.5-.3-1-.8-1-1.7-.2-3.4-.5-5-1s-3.2-1.1-4.7-1.9c-.5-.2-1-.1-1.2.4-.2.5-.1 1 .4 1.2 1.6.8 3.3 1.5 5 2zM353.4 256c1.5.1 3 .5 4.4.9.1 0 .2 0 .2.1l19.1 1.7c.5 0 1-.3 1-.8s-.3-1-.8-1l-19-1.7c-1.5-.5-3.1-.8-4.7-1-1.6-.2-3.3-.1-4.9.1-.5.1-.9.5-.8 1 .1.5.5.9 1 .8 1.5-.3 3-.3 4.5-.1z"/><path class="st40" d="M483.9 440.8c0 .5.8 1.2 2.5 2.4 27.7 21 41.5 31.4 41.5 31.4s10.6-11.5 31.7-34.5h-69.7c.6-1.6-1.4-2.9-6-4v4.7c0-.1 0 0 0 0z"/><path d="M527.9 470.1s10.6-11.5 31.7-34.5h-72.8c-3.8 0-3.8.6-.4 3 27.6 21 41.5 31.5 41.5 31.5z" style="fill-rule:evenodd;clip-rule:evenodd;fill:#ad91ed"/><path class="st40" d="M743 474.9c1.9 0 3.7-1.6 4-3.5l22.4-134.7c.3-1.9-1-3.5-2.9-3.5H550.4c-1.9 0-3.7 1.6-4 3.5L524 471.4c-.3 1.9 1 3.5 2.9 3.5H743z"/><path class="st85" d="M744.8 474.9c1.3 0 2.5-1 2.7-2.3L770 339.9c.2-1.3-.6-2.3-1.9-2.3H554.4c-1.3 0-2.5 1-2.7 2.3l-22.5 132.7c-.2 1.3.6 2.3 1.9 2.3h213.7z"/><path class="st66" d="M799 434.5c.2 0 .3-.1.3-.3v-82.1c0-.2-.1-.3-.3-.3h-3.3c-.2 0-.3.1-.3.3v82.1c0 .2.1.3.3.3h3.3z"/><path class="st40" d="M799.2 352.3c.2-.1.2-.3.2-.5l-.9-3-.9-3c-.1-.2-.1-.3-.1-.3s0 .1-.1.3l-.9 3-.9 3c-.1.2 0 .4.2.5.5.3 1 1 1.8 1s1-.7 1.6-1z"/><path class="st66" d="M798.4 426.3c.2 0 .3-.1.4-.3l13.4-81c0-.2-.1-.3-.3-.4l-3.2-.5c-.2 0-.3.1-.4.3l-13.4 81c0 .2.1.3.3.4l3.2.5z"/><path class="st40" d="M810.1 345.9c.7.1 1.3-.5 1.9-.7.2-.1.3-.3.3-.4-.1-1-.3-2.1-.4-3.1-.1-1-.3-2.1-.4-3.1v-.3s-.1.1-.2.3c-.5.9-.9 1.9-1.4 2.8-.5.9-.9 1.9-1.4 2.8-.1.2 0 .4.1.5.4.4.8 1.1 1.5 1.2z"/><path class="st66" d="m799 442.3 3.2-.8c.2 0 .3-.2.2-.4l-19-79.9c0-.2-.2-.3-.4-.2l-3.2.8c-.2 0-.3.2-.2.4l19 79.9c.1.2.3.3.4.2z"/><path class="st40" d="M781.9 363c.7-.2 1-.9 1.5-1.3.1-.1.2-.3.1-.5-.5-.9-1.1-1.8-1.6-2.7-.5-.9-1.1-1.8-1.6-2.7-.1-.2-.2-.3-.2-.3v.3c-.1 1-.1 2.1-.2 3.1s-.1 2.1-.2 3.1c0 .2.1.4.3.4.5.2 1.2.8 1.9.6z"/><path class="st66" d="M802.7 438.4c.2.1.3 0 .4-.2l25.4-78.1c.1-.2 0-.3-.2-.4l-3.1-1c-.2-.1-.3 0-.4.2L799.4 437c-.1.2 0 .3.2.4l3.1 1z"/><path class="st40" d="M826.3 360.7c.7.2 1.4-.3 2-.4.2 0 .3-.2.3-.4v-6.5s-.1.1-.2.3c-.6.9-1.2 1.7-1.8 2.6-.6.9-1.2 1.7-1.8 2.6-.1.2-.1.4 0 .5.6.3.9 1.1 1.5 1.3z"/><path class="st66" d="M802.4 442.8c.2 0 .3-.1.4-.3l13.4-81c0-.2-.1-.3-.3-.4l-3.2-.5c-.2 0-.3.1-.4.3l-13.4 81c0 .2.1.3.3.4l3.2.5z"/><path class="st40" d="M814.1 362.4c.7.1 1.3-.5 1.9-.7.2-.1.3-.3.3-.4-.1-1-.3-2.1-.4-3.1-.1-1-.3-2.1-.4-3.1v-.3s-.1.1-.2.3c-.5.9-.9 1.9-1.4 2.8-.5.9-.9 1.9-1.4 2.8-.1.2 0 .4.1.5.4.3.8 1.1 1.5 1.2z"/><path d="M822 475.4c2 0 3.7-1.6 3.7-3.7v-61.9c0-2-1.6-3.7-3.7-3.7h-38.8c-2 0-3.7 1.6-3.7 3.7v61.9c0 2 1.6 3.7 3.7 3.7H822z" style="fill-rule:evenodd;clip-rule:evenodd;fill:#4f02bc"/><circle transform="rotate(-55.903 88.181 88.056)" cx="88.2" cy="88.1" style="fill-rule:evenodd;clip-rule:evenodd;fill:#fff;stroke:#d4c9e2;stroke-miterlimit:10" r="56.4"/><circle transform="rotate(-13.286 88.165 88.043)" class="st8" cx="88.2" cy="88.1" r="46.3"/><path class="st40" d="M92.5 88.1c0-2.4-1.9-4.3-4.3-4.3s-4.3 1.9-4.3 4.3 1.9 4.3 4.3 4.3 4.3-2 4.3-4.3zM88.4 81.5c.5 0 .9-.4.9-.9V49.7c0-.5-.4-.9-.9-.9s-.9.4-.9.9v30.9c0 .5.4.9.9.9zM81.1 84.9c.4.2 1 .1 1.2-.3.2-.4.1-1-.3-1.2l-15-8.8c-.4-.2-1-.1-1.2.3-.2.4-.1 1 .3 1.2l15 8.8z"/><path d="M87.7 255.7c-20 27-20.8 63.7-2.2 91.6 17.2-27.9 18-62.9 2.2-91.6z" style="fill-rule:evenodd;clip-rule:evenodd;fill:#004545"/><path class="st89" d="M111 295.9a91.428 91.428 0 0 0-27.2 87.6c26.7-20.5 37.5-55.6 27.2-87.6z"/><path class="st89" d="M56.5 295.9c-10.3 32 .6 67 27.2 87.6 7.3-31.9-3.1-65.4-27.2-87.6z"/><path class="st90" d="M82.9 387.6c30-13.1 50.7-41.4 54.2-74-31.9 10.8-53.6 40.4-54.2 74z"/><path class="st90" d="M32.2 313.7c3.4 32.6 24.1 60.8 54.2 74-.7-33.7-22.3-63.3-54.2-74z"/><path d="M41.3 463.5c.5 4.9 4.1 8.9 8.2 8.9h69.4c4 0 7.7-4 8.2-8.9l3.6-39.3 3.6-39.3c.5-4.9-3.2-8.9-8.1-8.9h-84c-4.9 0-8.5 4-8.1 8.9l3.6 39.3 3.6 39.3z" style="fill-rule:evenodd;clip-rule:evenodd;fill:#033"/><path class="st85" d="M329.8 445.8s-39-5.7-116.9-17.1c0 0-19.3 5.9-58 17.6 30.1 15.5 74.7 22.3 133.9 20.2 0 0 13.6-6.9 41-20.7z"/><path class="st40" d="m271.8 483.4 58-17.6c1.2-.4 2.1-1.7 2.1-3v-15.4c0-1.3-1-2-2.1-1.7l-58 17.6c-1.2.4-2.1 1.7-2.1 3v15.4c-.1 1.3.9 2 2.1 1.7z"/><path class="st92" d="M268.2 483.7c1.2.2 2.3-.7 2.3-2v-15.4c0-1.3-1-2.5-2.3-2.7l-113.3-17.3c-1.2-.2-2.3.7-2.3 2v15.4c0 1.3 1 2.5 2.3 2.7l113.3 17.3z"/><path class="st93" d="M329.9 449.5c.2 0 .2-.2.2-.4s-.2-.2-.4-.2L272.4 466c-.2 0-.2.2-.2.4s.2.2.4.2l57.3-17.1zM329.9 452.9c.2 0 .2-.2.2-.4s-.2-.2-.4-.2l-57.4 17.1c-.2 0-.2.2-.2.4s.2.2.4.2l57.4-17.1zM329.9 456.3c.2 0 .2-.2.2-.4s-.2-.2-.4-.2l-57.4 17.1c-.2 0-.2.2-.2.4s.2.2.4.2l57.4-17.1zM329.9 459.7c.2 0 .2-.2.2-.4s-.2-.2-.4-.2l-57.4 17.1c-.2 0-.2.2-.2.4s.2.2.4.2l57.4-17.1zM330 463.1c.2 0 .2-.2.2-.4s-.2-.2-.4-.2l-57.4 17.1c-.2 0-.2.2-.2.4s.2.2.4.2l57.4-17.1z"/><path class="st85" d="M315.6 420.7s-39-5.7-116.9-17.1c0 0-19.3 5.9-58 17.6 30.1 15.5 74.7 22.3 133.9 20.2 0 0 13.7-6.9 41-20.7z"/><path class="st40" d="m257.6 458.3 58-17.6c1.2-.4 2.1-1.7 2.1-3v-15.4c0-1.3-1-2-2.1-1.7l-58 17.6c-1.2.4-2.1 1.7-2.1 3v15.4c0 1.3 1 2 2.1 1.7z"/><path class="st92" d="M254.1 458.6c1.2.2 2.3-.7 2.3-2v-15.4c0-1.3-1-2.5-2.3-2.7l-113.3-17.3c-1.2-.2-2.3.7-2.3 2v15.4c0 1.3 1 2.5 2.3 2.7l113.3 17.3z"/><path class="st93" d="M315.8 424.9c.2 0 .2-.2.2-.4s-.2-.2-.4-.2l-57.4 17.1c-.2 0-.2.2-.2.4s.2.2.4.2l57.4-17.1zM315.8 428.4c.2 0 .2-.2.2-.4s-.2-.2-.4-.2l-57.4 17.1c-.2 0-.2.2-.2.4s.2.2.4.2l57.4-17.1zM315.8 431.7c.2 0 .2-.2.2-.4s-.2-.2-.4-.2l-57.4 17.1c-.2 0-.2.2-.2.4s.2.2.4.2l57.4-17.1zM315.8 435.1c.2 0 .2-.2.2-.4s-.2-.2-.4-.2l-57.4 17.1c-.2 0-.2.2-.2.4s.2.2.4.2l57.4-17.1zM315.8 438.6c.2 0 .2-.2.2-.4s-.2-.2-.4-.2l-57.4 17.1c-.2 0-.2.2-.2.4s.2.2.4.2l57.4-17.1z"/><path class="st85" d="M359.6 391.9s-39-5.7-116.9-17.1c0 0-19.3 5.9-58 17.6 30.1 15.5 74.7 22.3 133.9 20.2 0 0 13.7-6.9 41-20.7z"/><path class="st40" d="m301.6 429.5 58-17.6c1.2-.4 2.1-1.7 2.1-3v-15.4c0-1.3-1-2-2.1-1.7l-58 17.6c-1.2.4-2.1 1.7-2.1 3v15.4c0 1.3 1 2.1 2.1 1.7z"/><path class="st92" d="M298.1 429.8c1.2.2 2.3-.7 2.3-2v-15.4c0-1.3-1-2.5-2.3-2.7l-113.3-17.3c-1.2-.2-2.3.7-2.3 2v15.4c0 1.3 1 2.5 2.3 2.7l113.3 17.3z"/><path class="st93" d="M359.8 395.7c.2 0 .2-.2.2-.4s-.2-.2-.4-.2l-57.4 17.1c-.2 0-.2.2-.2.4s.2.2.4.2l57.4-17.1zM359.8 399.1c.2 0 .2-.2.2-.4s-.2-.2-.4-.2l-57.4 17.1c-.2 0-.2.2-.2.4s.2.2.4.2l57.4-17.1zM359.8 402.5c.2 0 .2-.2.2-.4s-.2-.2-.4-.2L302.3 419c-.2 0-.2.2-.2.4s.2.2.4.2l57.3-17.1zM359.8 405.9c.2 0 .2-.2.2-.4s-.2-.2-.4-.2l-57.4 17.1c-.2 0-.2.2-.2.4s.2.2.4.2l57.4-17.1zM359.8 409.4c.2 0 .2-.2.2-.4s-.2-.2-.4-.2l-57.4 17.1c-.2 0-.2.2-.2.4s.2.2.4.2l57.4-17.1z"/><path d="m365.5 423.5 79.2-4.2c.2 0 .3-.1.3-.3l-.2-3.2c0-.2-.1-.3-.3-.3l-79.2 4.2c-.2 0-.3.1-.3.3l.2 3.2c0 .2.1.3.3.3z" style="fill-rule:evenodd;clip-rule:evenodd;fill:#1a1a1a"/><path d="M444.9 419.3c.9-.3 1.9-.7 2.8-1 .9-.3 1.9-.7 2.8-1 .2-.1.3-.1.3-.1s-.1 0-.3-.1c-1-.2-2-.5-2.9-.7-1-.2-2-.5-2.9-.7-.2 0-.4 0-.5.2-.3.5-.9 1.1-.8 1.8 0 .7.7 1.2 1 1.7.1-.1.3-.1.5-.1z" style="fill-rule:evenodd;clip-rule:evenodd;fill:#ccc"/><path class="st3" d="M472.3 444c-24.5.6-48.9-4-71.5-13.4-18.6 12.9-41.1 19-63.7 17.3 24.9 17.3 53.1 29.3 82.9 35.1 21.3-6.8 39.7-20.5 52.3-39z"/><path class="st40" d="M477.6 439.8c-22.6.5-45.2-3.7-66.1-12.3-17.2 11.9-38 17.5-58.9 15.9 23 16 49.1 27 76.6 32.4 19.8-6.2 36.8-18.9 48.4-36z"/><path transform="rotate(-83.765 237.805 102.598)" class="st96" d="M208 67.1h59.5v71H208z"/><path transform="rotate(-83.765 240.164 81)" class="st40" d="M231.3 45.5h17.8v71h-17.8z"/><path class="st97" d="M209 60.6h7.9v11.9H209z"/><path class="st96" d="m300.7 79.3-.4-4-7.7.8 6.2 61.3 108.5-10.9-6.2-61.3-8.4.8.4 4.2c.7.4 1.3 1.2 1.3 2.1.2 1.6-1 3-2.5 3.1-1.6.2-3-1-3.1-2.5-.1-1 .3-2 1.1-2.5l-.4-4-5.8.6.4 4.2c.7.4 1.3 1.2 1.3 2.1.2 1.6-1 3-2.5 3.1-1.6.2-3-1-3.1-2.5-.1-1 .3-2 1.1-2.5l-.4-4-5.7.6.4 4.2c.7.4 1.3 1.2 1.3 2.1.2 1.6-1 3-2.5 3.1-1.6.2-3-1-3.1-2.5-.1-1 .3-2 1.1-2.5l-.4-4-5.7.6.4 4.2c.7.4 1.3 1.2 1.3 2.1.2 1.6-1 3-2.5 3.1-1.6.2-3-1-3.1-2.5-.1-1 .3-2 1.1-2.5l-.4-4-5.7.6.4 4.2c.7.4 1.3 1.2 1.3 2.1.2 1.6-1 3-2.5 3.1-1.6.2-3-1-3.1-2.5-.1-1 .3-2 1.1-2.5l-.4-4-5.8.6.4 4.2c.7.4 1.3 1.2 1.3 2.1.2 1.6-1 3-2.5 3.1-1.6.2-3-1-3.1-2.5-.1-1 .3-2 1.1-2.5l-.4-4-5.7.6.4 4.2c.7.4 1.3 1.2 1.3 2.1.2 1.6-1 3-2.5 3.1-1.6.2-3-1-3.1-2.5-.1-1 .3-2 1.1-2.5l-.4-4-5.6.6.4 4.2c.7.4 1.3 1.2 1.3 2.1.2 1.6-1 3-2.5 3.1-1.6.2-3-1-3.1-2.5-.1-1 .3-2 1.1-2.5l-.4-4-5.7.6.4 4.2c.7.4 1.3 1.2 1.3 2.1.2 1.6-1 3-2.5 3.1-1.6.2-3-1-3.1-2.5-.1-1 .3-2 1.1-2.5l-.4-4-5.8.6.4 4.2c.7.4 1.3 1.2 1.3 2.1.2 1.6-1 3-2.5 3.1-1.6.2-3-1-3.1-2.5-.1-1 .3-2 1.1-2.5l-.4-4-5.7.6.4 4.2c.7.4 1.3 1.2 1.3 2.1.2 1.6-1 3-2.5 3.1-1.6.2-3-1-3.1-2.5-.1-2 .4-3 1.1-3.6z"/><path transform="rotate(-66.116 292.057 76.133)" class="st97" d="M285.3 71.7h13.5v8.9h-13.5z"/><path transform="rotate(-66.116 407.872 126.995)" class="st97" d="M401.1 122.5h13.5v8.9h-13.5z"/><path transform="rotate(-66.116 318.363 151.905)" class="st97" d="M311.6 147.5h13.5v8.9h-13.5z"/><path transform="rotate(-35.502 195.016 154.068)" class="st97" d="M190.6 147.3h8.9v13.5h-8.9z"/><path d="M244.1 117.6c-.1.1-.1.2-.1.4.1 0 .1-.2.1-.4zM253.6 214.5v-.2.5c-.1-.1 0-.2 0-.3z"/><defs><filter id="Adobe_OpacityMaskFilter_21_" filterUnits="userSpaceOnUse" x="533.9" y="340.3" width="231.4" height="129.9"><feColorMatrix values="1 0 0 0 0 0 1 0 0 0 0 0 1 0 0 0 0 0 1 0"/></filter></defs><mask maskUnits="userSpaceOnUse" x="533.9" y="340.3" width="231.4" height="129.9" id="SVGID_43_"><g style="filter:url(#Adobe_OpacityMaskFilter_21_)"><linearGradient id="SVGID_44_" gradientUnits="userSpaceOnUse" x1="71.246" y1="555.057" x2="-154.474" y2="650.997" gradientTransform="translate(703.353 -202.925)"><stop offset="0" style="stop-color:#000"/><stop offset="1" style="stop-color:#fff"/></linearGradient><path style="fill:url(#SVGID_44_)" d="M533.9 340.3h231.4v129.9H533.9z"/></g></mask><path d="M765.3 342.5c.2-1.2-.6-2.2-1.8-2.2H558.2c-1.2 0-2.4 1-2.6 2.2L533.9 470v.2l231.4-127.6v-.1z" style="mask:url(#SVGID_43_);fill-rule:evenodd;clip-rule:evenodd;fill:#916ce6"/><path class="st40" d="M654.4 420.4c8.2 0 15-6.6 15.2-14.8.2-8.2-6.2-14.8-14.4-14.8s-15 6.6-15.2 14.8c-.3 8.1 6.2 14.8 14.4 14.8z"/><path class="st85" d="M43.5 141.6c0-1.7-1.4-3.1-3.1-3.1s-3.1 1.4-3.1 3.1 1.4 3.1 3.1 3.1 3.1-1.3 3.1-3.1zM56.8 151.7c0-1.1-.9-2-2-2s-2 .9-2 2 .9 2 2 2 2-.9 2-2z"/><path class="st40" d="M143.1 178.5c0-1.7-1.4-3.1-3.1-3.1s-3.1 1.4-3.1 3.1 1.4 3.1 3.1 3.1 3.1-1.4 3.1-3.1zM101.7 325.8c0-1.7-1.4-3.1-3.1-3.1-1.7 0-3.1 1.4-3.1 3.1s1.4 3.1 3.1 3.1c1.7 0 3.1-1.4 3.1-3.1z"/><path class="st85" d="M154.3 329.7c0-1.5-1.2-2.7-2.7-2.7-1.5 0-2.7 1.2-2.7 2.7 0 1.5 1.2 2.7 2.7 2.7 1.5 0 2.7-1.2 2.7-2.7zM170.5 313.5c0-.8-.7-1.5-1.5-1.5s-1.5.7-1.5 1.5.7 1.5 1.5 1.5 1.5-.6 1.5-1.5z"/><defs><filter id="Adobe_OpacityMaskFilter_22_" filterUnits="userSpaceOnUse" x="98.8" y="375.9" width="35.5" height="96.5"><feColorMatrix values="1 0 0 0 0 0 1 0 0 0 0 0 1 0 0 0 0 0 1 0"/></filter></defs><mask maskUnits="userSpaceOnUse" x="98.8" y="375.9" width="35.5" height="96.5" id="SVGID_45_"><g style="filter:url(#Adobe_OpacityMaskFilter_22_)"><linearGradient id="SVGID_46_" gradientUnits="userSpaceOnUse" x1="-218.483" y1="567.578" x2="-127.243" y2="645.848" gradientTransform="translate(268.25 -200.741)"><stop offset="0" style="stop-color:#000"/><stop offset="1" style="stop-color:#fff"/></linearGradient><path style="fill:url(#SVGID_46_)" d="M98.8 375.9h35.5v96.5H98.8z"/></g></mask><path d="m127 463.5 3.6-39.3 3.6-39.3c.5-4.9-3.2-8.9-8.1-8.9H98.8v96.5h20c4.1-.1 7.8-4.1 8.2-9z" style="mask:url(#SVGID_45_);fill-rule:evenodd;clip-rule:evenodd;fill:#337a7a"/><path class="st85" d="M43.1 240.4c0-1.7-1.4-3.1-3.1-3.1-1.7 0-3.1 1.4-3.1 3.1s1.4 3.1 3.1 3.1c1.7 0 3.1-1.4 3.1-3.1zM232.5 342.7c0-1.7-1.4-3.1-3.1-3.1s-3.1 1.4-3.1 3.1c0 1.7 1.4 3.1 3.1 3.1s3.1-1.4 3.1-3.1z"/><path class="st40" d="M262.3 304.8c0-.8-.6-1.4-1.4-1.4-.8 0-1.4.6-1.4 1.4 0 .8.6 1.4 1.4 1.4.7 0 1.4-.6 1.4-1.4zM98.8 424.1c0-1.7-1.4-3.1-3.1-3.1-1.7 0-3.1 1.4-3.1 3.1s1.4 3.1 3.1 3.1c1.7.1 3.1-1.3 3.1-3.1zM574 388.5c0-.9-.7-1.6-1.6-1.6s-1.6.7-1.6 1.6c0 .9.7 1.6 1.6 1.6s1.6-.7 1.6-1.6zM641 299.2c0-.9-.7-1.6-1.6-1.6-.9 0-1.6.7-1.6 1.6 0 .9.7 1.6 1.6 1.6.9 0 1.6-.7 1.6-1.6z"/><path class="st85" d="M772.3 223.4c0-1.7-1.4-3.1-3.1-3.1-1.7 0-3.1 1.4-3.1 3.1s1.4 3.1 3.1 3.1c1.7 0 3.1-1.4 3.1-3.1z"/><path class="st40" d="M736.6 386.5c0-1.7-1.4-3.1-3.1-3.1s-3.1 1.4-3.1 3.1c0 1.7 1.4 3.1 3.1 3.1s3.1-1.4 3.1-3.1z"/><path class="st85" d="M594.3 190.2c0-1.2-1-2.2-2.2-2.2-1.2 0-2.2 1-2.2 2.2 0 1.2 1 2.2 2.2 2.2 1.2 0 2.2-1 2.2-2.2z"/><path class="st40" d="M588.7 439.8c0-.9-.7-1.6-1.6-1.6-.9 0-1.6.7-1.6 1.6 0 .9.7 1.6 1.6 1.6.9 0 1.6-.7 1.6-1.6zM616 412.3c0-1.2-.9-2.1-2.1-2.1-1.2 0-2.1.9-2.1 2.1 0 1.2.9 2.1 2.1 2.1 1.1 0 2.1-.9 2.1-2.1z"/><path class="st85" d="M852.8 229.2c0-1.2-.9-2.1-2.1-2.1s-2.1.9-2.1 2.1c0 1.2.9 2.1 2.1 2.1s2.1-.9 2.1-2.1z"/><path class="st40" d="M798.9 443.1c0-.7-.5-1.2-1.2-1.2s-1.2.5-1.2 1.2.5 1.2 1.2 1.2c.7-.1 1.2-.6 1.2-1.2z"/><path class="st85" d="M569.6 142.6c0-.7-.5-1.2-1.2-1.2s-1.2.5-1.2 1.2.5 1.2 1.2 1.2 1.2-.5 1.2-1.2zM557.7 91.4c0-.9-.7-1.6-1.6-1.6-.9 0-1.6.7-1.6 1.6 0 .9.7 1.6 1.6 1.6.9 0 1.6-.7 1.6-1.6zM356.9 26.5c0-.9-.7-1.6-1.6-1.6-.9 0-1.6.7-1.6 1.6s.7 1.6 1.6 1.6c.9-.1 1.6-.8 1.6-1.6z"/><path class="st40" d="M63.8 433.1c0-.5-.4-.8-.8-.8-.5 0-.8.4-.8.8 0 .5.4.8.8.8s.8-.4.8-.8z"/><path class="st85" d="M645.7 166.1c0-1.7-1.4-3-3-3s-3 1.4-3 3c0 1.7 1.4 3 3 3s3-1.3 3-3z"/></svg>