<svg id="SvgjsSvg1001" width="288" height="288" xmlns="http://www.w3.org/2000/svg" version="1.1" xmlns:xlink="http://www.w3.org/1999/xlink" xmlns:svgjs="http://svgjs.com/svgjs"><defs id="SvgjsDefs1002"></defs><g id="SvgjsG1008"><svg xmlns="http://www.w3.org/2000/svg" enable-background="new 0 0 200 200" viewBox="0 0 200 200" width="288" height="288"><path fill="#fe0000" d="M51.6 103.3c2.5-6.8 3.1-12.9 1.4-16-.6-1.1-1.4-1.8-2.5-2-4.1-.9-9.9 5-13.1 13.6-2.5 6.5-3 12.3-1.5 15.4.6 1.2 1.4 1.9 2.5 2.3C42.5 117.7 48.5 111.8 51.6 103.3zM60.6 105.4c-2.9 7.9-8.4 14.7-14.4 18.4-4.2 2.6-8.5 3.4-12.2 2.3-3.3-1-5.8-3-7.3-6.1-2.7-5.6-2.1-14.2 1.6-23.6 5.4-13.9 16.8-23.1 25.8-20.9 3.1.8 5.6 2.8 7.3 5.9C64.4 87.1 64.1 95.9 60.6 105.4z" class="color415058 svgShape"></path><path fill="#fe0000" d="M54.3 57.9c1-1.5 2.3-2.4 4.7-2.3 2.4.1 5.9 2.5 6.8 3.1 1.7 1.3 6.6 5 10.3 13.6 4.6 10.8 7 27-3.5 46.1-7.2 13-17 20.7-26.1 23.8-7.2 2.5-14 2.4-18.9 1.7-4.2-.6-6.9-1.7-8.3-2.3-1.8-.8-3.4-1.8-4.5-2.7-3.3-2.8-3.4-5.4-2.3-7.4 1.1-2.1 3.1-2.9 5-2.6 1.1.2 2 .5 3.1 1.2 1.2.8 2.6 1.7 4.2 2.3 4.6 1.7 10.3 2.5 17.8.2 7.5-2.3 15.7-9.4 21.2-19.6 3.5-6.5 5-12.8 5.6-18.3 1.2-11.1-2.3-19.1-5.7-23.6-3-4-6.7-5.5-7.9-6.5C52.6 62.2 53.5 59 54.3 57.9zM54.4 63.2" class="color415058 svgShape"></path><path fill="#fe0000" d="M13.6,148.7c1.3,0.7,3.3,1.7,6,2.4c4.1,1.1,9.6,1.6,15.8,1.2c13.6-1,30.8-8.7,42.3-29.9
		c11.6-21.5,10-42.3,2-58.4c-4-8-10.4-13.6-16.2-17c-3.1-1.8-5.3-2.6-8.2-3.5c-2.9-0.9-4.4-3.3-3.4-6.5c0.7-2.1,2.5-3.4,5.3-3.4
		c1.1,0,3.1,0.4,5.1,1.2c2.9,1.1,5.3,2.5,7.6,3.8c8.4,5,16,13.3,20.9,24.3c7.9,17.6,8.9,41.2-3.6,63.9c-22.6,41.1-61.4,39.7-76,32.6
		c-2.9-1.5-4.9-2.8-6-4.1c-2.3-2.6-1.5-4.8-0.7-6.2c0.8-1.3,2-2.1,3.5-2.3c0.7-0.1,1.4,0,2.2,0.2c0.6,0.2,1.3,0.5,1.8,0.8
		C12.2,147.9,12.8,148.3,13.6,148.7z" class="color415058 svgShape"></path><path fill="#fe0000" d="M90.4,132.9c0.1-0.4,0.3-1,0.5-1.5c0.2-0.4,0.4-0.9,0.7-1.4c0.7-1.2,1.3-2.4,1.8-3.3
		c5.2-10.2,11.1-27.6,9-45.4c-2.2-18.7-8.9-33.3-20.6-43.1c-1.4-1.2-2.8-2.2-4.4-3.3c-0.7-0.5-1.5-1-2.1-1.7c-1.3-1.6-1.9-3.6-0.5-6
		c2-3.3,5.4-3,9.9,0.1c1.9,1.3,6.7,4.9,11.9,11.2c6.6,8.1,13.9,21.1,16.1,41.1c1.3,11.3-0.1,21.8-2.3,30.7c-2.2,8.9-5,15.7-7.4,20.6
		c-0.7,1.5-1.5,2.8-2.2,3.9c-0.6,1-1.6,2.4-2.7,3c-1.9,1.1-4.2,0.9-5.8-0.1C91.1,136.9,89.9,135.5,90.4,132.9z" class="color415058 svgShape"></path></svg></g></svg>