<svg xmlns="http://www.w3.org/2000/svg" viewBox="0 0 480 480" style="enable-background:new 0 0 480 480" xml:space="preserve"><path d="m220.6 228 18.6-10.7c.5-.3 1.1-.3 1.5 0l18.6 10.7c.5.3.8.8.8 1.4v21.4c0 .5-.3 1.1-.8 1.4l-18.6 10.7c-.5.3-1.1.3-1.5 0L220.6 252c-.5-.3-.8-.8-.8-1.4v-21.4c.1-.3.2-.9.8-1.2" style="fill:#8080f2"/><path d="m359.2 235.2-54.7-95.3c-2-3.5-5.6-5.9-9.6-5.9H185.2c-4 0-7.6 2.6-9.6 5.9L120.8 235c-2 3.5-2 7.8 0 11.3l54.7 94.6c2 3.5 5.6 5.2 9.6 5.2h109.7c4 0 7.6-1.7 9.6-5.2l54.7-94.7c2.1-3.5 2.1-7.6.1-11m-45.3 45.9c0 1.4-.9 2.7-2.1 3.4L242 324.8c-1.2.8-2.7.8-4 0l-69.8-40.3c-1.2-.8-2.1-2-2.1-3.4v-80.7c0-1.4.8-2.7 2-3.4l69.8-40.3c1.2-.8 2.7-.8 4 0l69.8 40.3c1.2.8 2.1 2 2.1 3.4l.1 80.7z" style="fill:#4b32c3"/></svg>