<svg xmlns="http://www.w3.org/2000/svg" viewBox="0 0 250 250" style="enable-background:new 0 0 250 250" xml:space="preserve"><path d="m124.6 57.3 3.6 6.9c.8 1.3 1.7 2.4 2.8 3.4 3 3 5.9 6.3 8.5 9.6 6.1 8.1 10.3 17.1 13.3 26.8 1.8 5.9 2.8 12 2.8 18.2.3 18.4-6 34.2-18.7 47.3-2.1 2.1-4.3 4-6.7 5.7-1.3 0-1.8-1-2.4-1.8-1-1.6-1.6-3.5-1.8-5.3-.5-2.2-.7-4.5-.6-6.7v-1.1c-.1-.4-1.3-102.6-.8-103z" style="fill:#599636"/><path d="M124.6 57c-.1-.3-.3-.1-.5.1.1 1.5-.5 2.8-1.3 4.1-.9 1.3-2.1 2.2-3.3 3.3-6.6 5.7-11.8 12.6-16 20.3-5.5 10.4-8.4 21.5-9.2 33.2-.4 4.2 1.3 19.1 2.6 23.5 3.6 11.4 10.2 21 18.6 29.3 2.1 2 4.3 3.8 6.6 5.7.7 0 .7-.6.9-1.1.3-.9.5-1.9.7-2.9l1.5-11.1-.6-104.4z" style="fill:#6cac48"/><path d="M128.2 179.6c.1-1.7 1-3.1 1.8-4.5-.9-.4-1.6-1.1-2.1-1.9-.5-.7-.8-1.6-1.1-2.4-1.1-3.1-1.3-6.4-1.6-9.6v-1.9c-.4.3-.5 2.8-.5 3.2-.2 3.4-.7 6.7-1.3 10-.2 1.3-.4 2.6-1.2 3.8 0 .1 0 .3.1.5 1.3 4 1.7 7.9 1.9 12v1.5c0 1.8-.1 1.4 1.4 2 .6.2 1.3.3 1.8.7.5 0 .5-.4.5-.7l-.2-2.4V183c.1-1.1.3-2.3.5-3.4z" style="fill:#c2bfbf"/></svg>