<svg version="1.1" id="Calque_1" xmlns="http://www.w3.org/2000/svg" x="0" y="0" viewBox="0 0 250 250" style="enable-background:new 0 0 250 250" xml:space="preserve"><style>.st0{fill:#a41e11}.st1{fill:#d82c20}.st2{fill:#fff}</style><g transform="matrix(.84833 0 0 .84833 -7.884 -9.45)"><path id="B" class="st0" d="M253.6 207.4c-11.2 5.9-69.4 29.8-81.8 36.2-12.4 6.5-19.3 6.4-29.1 1.7s-71.7-29.7-82.9-35c-5.6-2.7-8.5-4.9-8.5-7V182s80.6-17.5 93.6-22.2 17.5-4.8 28.6-.8c11.1 4.1 77.3 16 88.2 20v21c.2 2.1-2.3 4.5-8.1 7.4z"/></g><path class="st1" d="M253.6 186.1c-11.2 5.9-69.4 29.8-81.8 36.2-12.4 6.5-19.3 6.4-29.1 1.7S71 194.3 59.8 189s-11.4-9-.4-13.3l85.6-33.1c13-4.7 17.5-4.8 28.6-.8 11.1 4.1 68.9 27.1 79.9 31.1 10.9 4.2 11.4 7.4.1 13.2z" transform="matrix(.84833 0 0 .84833 -7.884 -9.45)"/><g transform="matrix(.84833 0 0 .84833 -7.884 -9.45)"><path id="B_1_" class="st0" d="M253.6 172.7c-11.2 5.9-69.4 29.8-81.8 36.2-12.4 6.5-19.3 6.4-29.1 1.7s-71.7-29.7-82.9-35c-5.6-2.7-8.5-4.9-8.5-7v-21.3s80.6-17.5 93.6-22.2c13-4.7 17.5-4.8 28.6-.8s77.3 16 88.2 20v21c.2 2.1-2.3 4.5-8.1 7.4z"/></g><g transform="matrix(.84833 0 0 .84833 -7.884 -9.45)"><path id="C" class="st1" d="M253.6 151.4c-11.2 5.9-69.4 29.8-81.8 36.2-12.4 6.5-19.3 6.4-29.1 1.7s-71.7-29.7-82.9-35c-11.2-5.3-11.4-9-.4-13.3l85.6-33.1c13-4.7 17.5-4.8 28.6-.8s68.9 27.1 79.9 31.1c10.9 4 11.4 7.4.1 13.2z"/></g><path class="st0" d="M253.6 136.7c-11.2 5.9-69.4 29.8-81.8 36.2-12.4 6.5-19.3 6.4-29.1 1.7s-71.7-29.7-82.9-35c-5.6-2.7-8.5-4.9-8.5-7v-21.3s80.6-17.5 93.6-22.2 17.5-4.8 28.6-.8 77.3 16 88.2 20v21c.2 2.1-2.3 4.5-8.1 7.4z" transform="matrix(.84833 0 0 .84833 -7.884 -9.45)"/><g transform="matrix(.84833 0 0 .84833 -7.884 -9.45)"><path id="column_1_" class="st1" d="M253.6 115.4c-11.2 5.9-69.4 29.8-81.8 36.2-12.4 6.5-19.3 6.4-29.1 1.7s-71.7-29.7-82.9-35c-11.2-5.3-11.4-9-.4-13.3L145 72c13-4.7 17.5-4.8 28.6-.8s68.9 27.1 79.9 31.1c10.9 4 11.4 7.3.1 13.1z"/></g><g transform="matrix(.84833 0 0 .84833 -7.884 -9.45)"><path class="st2" d="m161.9 106.7-6.6-11-21.1-1.9 15.7-5.7-4.7-8.7 14.7 5.7 13.9-4.5-3.7 9 14.1 5.3-18.2 1.9-4.1 9.9zm-35.1 21.8 48.8-7.5-14.7 21.6-34.1-14.1z"/><ellipse class="st2" cx="113.6" cy="110.5" rx="26.1" ry="10.1"/></g><path d="m234.6 109-28.9 11.4V97.6l28.9 11.4z" style="fill:#7a0c00" transform="matrix(.84833 0 0 .84833 -7.884 -9.45)"/><path d="m205.8 120.4-3.1 1.2-28.8-11.4 31.9-12.6v22.8z" style="fill:#ad2115" transform="matrix(.84833 0 0 .84833 -7.884 -9.45)"/></svg>