<svg xmlns="http://www.w3.org/2000/svg" viewBox="0 0 480 480" style="enable-background:new 0 0 480 480" xml:space="preserve"><path style="fill:#cf649a" d="M0 0h480v480H0z"/><path d="M349.7 255.8c-9.9.1-18.4 2.4-25.6 5.9-2.6-5.3-5.3-9.8-5.8-13.2-.5-3.9-1.1-6.4-.5-11.1.6-4.8 3.4-11.4 3.4-12-.1-.5-.6-2.9-6.2-3-5.7-.1-10.6 1.1-11.1 2.5-.5 1.5-1.6 4.9-2.4 8.4-1 5.2-11.3 23.5-17.3 33.1-1.9-3.8-3.6-7.1-3.9-9.7-.5-3.9-1.1-6.4-.5-11.1.6-4.8 3.4-11.4 3.4-12-.1-.5-.6-2.9-6.2-3-5.7-.1-10.6 1.1-11.1 2.5s-1.2 5-2.4 8.4c-1.2 3.5-14.9 34-18.5 42-1.8 4.1-3.5 7.3-4.6 9.5-1.2 2.2-.1.2-.2.4-1 1.9-1.6 2.9-1.6 2.9v.1c-.7 1.4-1.6 2.7-2 2.7-.2 0-.8-3.7.1-8.7 2.1-10.6 7-27.2 6.9-27.8 0-.2.9-3.2-3.2-4.7-4-1.5-5.4 1-5.8 1s-.6.9-.6.9 4.4-18.7-8.6-18.7c-8.1 0-19.4 8.9-24.9 16.9-3.5 1.9-11 6-18.9 10.4-3 1.6-6.2 3.5-9.1 5l-.6-.7c-15.8-16.8-44.9-28.7-43.7-51.2.4-8.2 3.3-29.8 55.9-56.1 43.1-21.5 77.6-15.6 83.6-2.5 8.6 18.7-18.4 53.5-63.2 58.5-17.1 1.9-26.1-4.7-28.3-7.2-2.4-2.5-2.7-2.7-3.6-2.2-1.4.7-.6 3.1 0 4.4 1.3 3.5 6.8 9.6 16.2 12.7 8.2 2.7 28.3 4.2 52.5-5.2 27.1-10.5 48.3-39.7 42.1-64.1-6.3-24.8-47.5-33-86.4-19.2-23.2 8.2-48.3 21.1-66.4 38.1-21.5 20.1-24.9 37.6-23.4 44.8 5 25.9 40.8 42.8 55.1 55.3-.7.4-1.4.7-2 1.1-7.2 3.5-34.4 17.8-41.3 32.9-7.7 17.1 1.2 29.4 7.2 31 18.4 5.1 37.2-4.1 47.4-19.2 10.1-15.1 8.9-34.8 4.3-43.7l-.2-.3 5.6-3.3c3.6-2.1 7.2-4.1 10.4-5.8-1.7 4.8-3 10.4-3.7 18.7-.7 9.7 3.2 22.3 8.4 27.2 2.3 2.1 5.1 2.2 6.7 2.2 6.1 0 8.8-5 11.8-11 3.8-7.3 7.1-15.8 7.1-15.8s-4.1 22.9 7.2 22.9c4.1 0 8.2-5.3 10.1-8.1v.1l.3-.6c.2-.3.4-.7.7-1.1v-.1c1.6-2.9 5.3-9.5 10.9-20.2 7.1-14 13.9-31.5 13.9-31.5s.7 4.3 2.7 11.3c1.2 4.2 3.9 8.7 5.9 13.2-1.6 2.3-2.6 3.6-2.6 3.6l.1.1c-1.3 1.7-2.8 3.6-4.4 5.5-5.6 6.7-12.3 14.4-13.2 16.6-1.1 2.5-.8 4.5 1.2 6.1 1.5 1.1 4.1 1.3 6.9 1.1 5.1-.3 8.6-1.6 10.4-2.4 2.7-1 5.9-2.5 8.9-4.7 5.5-4.1 8.9-9.9 8.6-17.6-.2-4.3-1.6-8.4-3.3-12.4.5-.7 1-1.4 1.5-2.2 8.7-12.7 15.5-26.7 15.5-26.7s.7 4.3 2.7 11.3c1.1 3.6 3.1 7.5 5 11.3-8.1 6.7-13.2 14.4-15 19.4-3.3 9.4-.7 13.6 4.1 14.6 2.1.4 5.3-.6 7.6-1.6 2.9-.9 6.3-2.5 9.5-4.9 5.5-4.1 10.8-9.8 10.5-17.4-.2-3.5-1.1-7-2.4-10.3 6.9-2.9 16-4.5 27.3-3.1 24.5 2.9 29.4 18.2 28.4 24.6-.9 6.4-6.1 9.9-7.7 11-1.7 1.1-2.2 1.4-2.1 2.2.2 1.2 1 1.1 2.5.9 2.1-.3 12.9-5.3 13.3-17 .6-14.6-13.7-31.1-39.3-30.9zm-189 63.7c-8.1 8.9-19.5 12.3-24.3 9.4-5.3-3-3.2-16.1 6.7-25.5 6.1-5.8 13.9-11 19.1-14.2 1.2-.7 2.9-1.7 5-3 .3-.2.6-.3.6-.3.4-.2.8-.5 1.2-.7 3.8 13.1.3 24.9-8.3 34.3zm59.2-40.3c-2.8 6.9-8.7 24.6-12.3 23.6-3.1-.8-4.9-14.2-.6-27.5 2.2-6.7 6.9-14.6 9.6-17.7 4.4-4.9 9.3-6.6 10.5-4.6 1.5 2.8-5.4 21.9-7.2 26.2zm48.9 23.3c-1.2.6-2.3 1.1-2.8.7-.4-.2.5-1.1.5-1.1s6.1-6.6 8.6-9.6c1.4-1.7 3-3.8 4.8-6.1v.7c-.1 8-7.7 13.3-11.1 15.4zm37.6-8.5c-.9-.7-.7-2.7 2.2-9.1 1.2-2.5 3.8-6.7 8.4-10.8.6 1.6.9 3.3.8 4.8 0 9.8-7.1 13.5-11.4 15.1z" style="fill:#f4e9ef"/></svg>