<svg version="1.1" id="Layer_1" xmlns="http://www.w3.org/2000/svg" x="0" y="0" viewBox="0 0 394 356" style="enable-background:new 0 0 394 356" xml:space="preserve"><style>.st1{fill:#ea6c00}.st2{fill:#fdad00}.st3{fill:#fdd231}</style><g id="Page-1"><g id="sketch-symbol"><path id="Path" style="fill:#fdb300" d="m141.2 94.9 55.4-5.9 55.4 5.9 42.9 57.5-98.3 114.4-98.2-114.4z"/><g id="Group" transform="translate(0 126.881)"><path id="Path_1_" class="st1" d="m138.1 25.5 58.5 114.4L98.4 25.5z"/><path id="Path_2_" class="st1" d="m255.1 25.5-58.5 114.4 98.3-114.4z"/><path id="Path_3_" class="st2" d="M138.1 25.5h117l-58.5 114.4z"/></g><g id="Group_1_"><path id="Path_4_" class="st3" d="m196.6 89-55.4 5.9-3.1 57.5z"/><path id="Path_5_" class="st3" d="m196.6 89 55.4 5.9 3.1 57.5z"/><path id="Path_6_" class="st2" d="M294.9 152.4 252 94.9l3.1 57.5z"/><path id="Path_7_" class="st2" d="m98.4 152.4 42.8-57.5-3.1 57.5z"/><path id="Path_8_" style="fill:#feeeb7" d="m196.6 89-58.5 63.4h117z"/></g></g></g></svg>