<svg xmlns="http://www.w3.org/2000/svg" viewBox="0 0 394 356" style="enable-background:new 0 0 394 356" xml:space="preserve"><path d="M227.4 209.3v-58.8c0-2.1-1.7-3.8-3.8-3.8h-58.7V86.1h119.3c2.1 0 3.8 1.7 3.8 3.8v119.4h-60.6z" style="fill-rule:evenodd;clip-rule:evenodd;fill:#8e75ff"/><path d="M164.9 86.1v60.7h-56c-1 0-1.9-.8-1.9-1.9 0-.5.2-1 .6-1.3l57.3-57.5zm62.5 179.3v-56.1H288l-57.3 57.4c-.7.7-1.9.7-2.7 0-.4-.3-.6-.8-.6-1.3zm-62.5-118.6h60.6c1 0 1.9.8 1.9 1.9v60.7h-58.7c-2.1 0-3.8-1.7-3.8-3.8v-58.8z" style="opacity:.405;fill-rule:evenodd;clip-rule:evenodd;fill:#8e75ff;enable-background:new"/></svg>