<svg xmlns="http://www.w3.org/2000/svg" viewBox="0 0 250 250" style="enable-background:new 0 0 250 250" xml:space="preserve"><path d="M180.5 68.7c-14.1-20.4-42.3-26.3-62.5-13.5L82.3 78c-9.7 6.1-16.5 16.1-18.4 27.4-1.7 9.5-.3 19.2 4.3 27.6-3.1 4.7-5.2 9.9-6.1 15.3-2.1 11.5.6 23.5 7.4 32.9 14.3 20.4 42.3 26.3 62.5 13.5l35.7-22.7c9.7-6.1 16.5-16.1 18.4-27.4 1.7-9.5.3-19.2-4.3-27.6 3.1-4.7 5.2-9.9 6.1-15.3 2.2-11.6-.5-23.5-7.4-33" style="fill:#ff3e00"/><path d="M114.5 183.2c-11.5 3-23.6-1.6-30.4-11.3-4.2-5.7-5.7-12.8-4.5-19.8.3-1.2.5-2.2.8-3.4l.6-2.1 1.8 1.3c4.3 3.1 8.9 5.4 14 7l1.3.4-.1 1.3c-.1 1.8.4 3.8 1.4 5.3 2.1 3 5.7 4.4 9.2 3.5.8-.3 1.6-.5 2.2-.9l35.5-22.7c1.8-1.2 3-2.9 3.4-4.9.4-2.1-.1-4.3-1.3-6-2.1-3-5.7-4.3-9.2-3.4-.8.3-1.6.5-2.2.9l-13.6 8.7c-2.2 1.4-4.7 2.5-7.3 3.1-11.5 3-23.6-1.6-30.4-11.3-4-5.7-5.7-12.8-4.4-19.8 1.2-6.7 5.3-12.8 11.2-16.5L128.2 70c2.2-1.4 4.7-2.5 7.3-3.2 11.5-3 23.6 1.6 30.4 11.3 4.2 5.7 5.7 12.8 4.5 19.8-.3 1.2-.5 2.2-.9 3.4l-.6 2.1-1.9-1.4c-4.3-3.1-8.9-5.4-14-7l-1.3-.4.1-1.3c.1-1.8-.4-3.8-1.4-5.3-2.1-3-5.7-4.3-9.2-3.4-.8.3-1.6.5-2.2.9l-35.5 22.7c-1.8 1.2-3 2.9-3.4 4.9s.1 4.3 1.3 6c2.1 3 5.7 4.3 9.2 3.4.8-.3 1.6-.5 2.2-.9l13.6-8.7c2.2-1.4 4.7-2.5 7.3-3.2 11.5-3 23.6 1.6 30.4 11.3 4.2 5.7 5.7 12.8 4.5 19.8-1.2 6.7-5.3 12.8-11.2 16.5L121.7 180c-2.2 1.4-4.6 2.5-7.2 3.2" style="fill:#fff"/></svg>