<svg xmlns="http://www.w3.org/2000/svg" viewBox="0 0 250 250" style="enable-background:new 0 0 250 250" xml:space="preserve"><path d="M68.8 125V93.4c0-13.9 11.3-25.1 25.1-25.1h63.2c13.9 0 25.1 11.3 25.1 25.1v63.2c0 13.9-11.3 25.1-25.1 25.1H68.8" style="fill:#007acc"/><path d="M85.8 104v4.6h14.8v42H111v-42h14.8V104c0-2.6 0-4.6-.1-4.6 0-.1-9-.1-19.9-.1l-19.9.1v4.6h-.1zm66.3-4.7c2.9.7 5.1 2 7.1 4 1.1 1.2 2.6 3.1 2.7 3.6 0 .2-4.9 3.5-7.9 5.3-.1.1-.5-.4-1-1.2-1.5-2.1-2.9-3-5.3-3.2-3.4-.2-5.6 1.5-5.6 4.6 0 .9.2 1.4.5 2.2.8 1.5 2.2 2.5 6.6 4.4 8.1 3.5 11.6 5.8 13.8 9 2.4 3.7 2.9 9.4 1.3 13.8-1.8 4.7-6.3 8-12.5 9-2 .3-6.5.3-8.7-.1-4.6-.9-8.9-3.1-11.5-6-1.1-1.2-3.1-4.2-2.9-4.3l1.1-.7 4.3-2.5 3.2-1.9.8 1c.9 1.5 3 3.5 4.3 4.2 3.7 1.9 8.6 1.6 11.1-.5 1.1-.9 1.5-2 1.5-3.4 0-1.3-.2-1.9-.9-2.9-.9-1.2-2.7-2.2-7.8-4.6-5.9-2.5-8.4-4.1-10.7-6.5-1.3-1.5-2.6-3.8-3.1-5.6-.4-1.6-.5-5.6-.2-7.3 1.2-5.6 5.5-9.7 11.6-10.8 1.6-.4 6.3-.2 8.2.4z" style="fill:#fff"/></svg>