<svg xmlns="http://www.w3.org/2000/svg" viewBox="0 0 480 480" style="enable-background:new 0 0 480 480" xml:space="preserve"><defs><filter id="a" filterUnits="userSpaceOnUse" x="133.3" y="133.9" width="213.4" height="212.1"><feColorMatrix values="1 0 0 0 0 0 1 0 0 0 0 0 1 0 0 0 0 0 1 0"/></filter></defs><mask maskUnits="userSpaceOnUse" x="133.3" y="133.9" width="213.4" height="212.1" id="b"><path d="M284.7 345.2c3.4 1.3 7.2 1.2 10.6-.4l43.9-21.1c4.6-2.2 7.5-6.9 7.5-12V168.4c0-5.1-2.9-9.8-7.5-12l-43.9-21.1c-4.4-2.1-9.7-1.6-13.6 1.2-.6.4-1.1.9-1.6 1.4l-84 76.7-36.6-27.8c-3.4-2.6-8.2-2.4-11.3.5L136.5 198c-3.9 3.5-3.9 9.6 0 13.1l31.7 29-31.7 29c-3.9 3.5-3.9 9.6 0 13.1l11.7 10.7c3.2 2.9 7.9 3.1 11.3.5l36.6-27.8 84 76.7c1.3 1.2 2.9 2.2 4.6 2.9zm8.7-153.6L229.6 240l63.8 48.4v-96.8z" style="fill-rule:evenodd;clip-rule:evenodd;fill:#fff;filter:url(#a)"/></mask><g style="mask:url(#b)"><path d="m339.1 156.4-43.9-21.2c-5.1-2.4-11.2-1.4-15.2 2.6L136.2 269c-3.9 3.5-3.9 9.6 0 13.1l11.7 10.7c3.2 2.9 7.9 3.1 11.3.5l173.2-131.4c5.8-4.4 14.2-.3 14.2 7v-.5c.1-5.1-2.8-9.8-7.5-12z" style="fill:#0065a9"/><path d="m339.1 323.6-43.9 21.2c-5.1 2.4-11.2 1.4-15.2-2.6L136.2 211c-3.9-3.5-3.9-9.6 0-13.1l11.7-10.7c3.2-2.9 7.9-3.1 11.3-.5l173.2 131.4c5.8 4.4 14.2.3 14.2-7v.5c.1 5.1-2.8 9.8-7.5 12z" style="fill:#007acc"/><path d="M295.2 344.8c-5.1 2.4-11.2 1.4-15.2-2.6 4.9 4.9 13.3 1.4 13.3-5.5V143.3c0-7-8.4-10.4-13.3-5.5 4-4 10.1-5 15.2-2.6l43.9 21.1c4.6 2.2 7.6 6.9 7.6 12v143.2c0 5.1-2.9 9.8-7.6 12l-43.9 21.3z" style="fill:#1f9cf0"/><g style="opacity:.25"><linearGradient id="c" gradientUnits="userSpaceOnUse" x1="239.935" y1="348.069" x2="239.935" y2="135.931" gradientTransform="matrix(1 0 0 -1 0 482)"><stop offset="0" style="stop-color:#fff"/><stop offset="1" style="stop-color:#fff;stop-opacity:0"/></linearGradient><path d="M284.5 345.2c3.4 1.3 7.2 1.2 10.6-.4l43.9-21.1c4.6-2.2 7.5-6.9 7.5-12V168.4c0-5.1-2.9-9.8-7.5-12l-43.9-21.1c-4.4-2.1-9.7-1.6-13.6 1.2-.6.4-1.1.9-1.6 1.4l-84 76.7-36.6-27.8c-3.4-2.6-8.2-2.4-11.3.5L136.3 198c-3.9 3.5-3.9 9.6 0 13.1l31.7 29-31.7 29c-3.9 3.5-3.9 9.6 0 13.1l11.7 10.7c3.2 2.9 7.9 3.1 11.3.5l36.6-27.8 84 76.7c1.4 1.2 2.9 2.2 4.6 2.9zm8.8-153.6L229.5 240l63.8 48.4v-96.8z" style="fill-rule:evenodd;clip-rule:evenodd;fill:url(#c)"/></g></g></svg>