<?xml version="1.0" encoding="UTF-8" standalone="no"?>
<!-- Created with Inkscape (http://www.inkscape.org/) -->

<svg
   version="1.1"
   id="svg2"
   xml:space="preserve"
   width="397.33334"
   height="397.33334"
   viewBox="0 0 397.33334 397.33334"
   sodipodi:docname="WIPO_-_World_Intellectual_Property_Organization.eps"
   xmlns:inkscape="http://www.inkscape.org/namespaces/inkscape"
   xmlns:sodipodi="http://sodipodi.sourceforge.net/DTD/sodipodi-0.dtd"
   xmlns="http://www.w3.org/2000/svg"
   xmlns:svg="http://www.w3.org/2000/svg"><defs
     id="defs6" /><sodipodi:namedview
     id="namedview4"
     pagecolor="#ffffff"
     bordercolor="#666666"
     borderopacity="1.0"
     inkscape:pageshadow="2"
     inkscape:pageopacity="0.0"
     inkscape:pagecheckerboard="0" /><g
     id="g8"
     inkscape:groupmode="layer"
     inkscape:label="ink_ext_XXXXXX"
     transform="matrix(1.3333333,0,0,-1.3333333,0,397.33333)"><g
       id="g10"
       transform="scale(0.1)"><path
         d="M 1409.85,6.23047 C 1281.42,22.2852 1152.99,50.3789 1028.58,82.4883 904.164,126.633 783.762,186.832 667.375,255.059 635.266,283.156 498.813,411.582 462.691,411.582 c 0,20.066 -28.089,32.106 -40.132,40.133 -36.121,40.133 -72.243,80.269 -104.348,120.402 -28.094,40.133 -52.172,76.254 -76.254,112.375 C 101.488,873.121 53.3281,1105.89 5.16797,1330.65 1.15625,1426.97 1.15625,1519.28 1.15625,1611.58 29.25,1828.3 89.4492,2020.95 185.77,2217.6 c 100.335,168.56 224.75,313.04 377.257,441.47 140.469,92.31 256.856,164.55 405.352,228.77 88.291,24.08 176.591,48.16 264.881,68.22 64.22,8.03 128.43,16.06 192.64,20.07 176.59,-4.01 337.13,-20.07 505.69,-60.2 72.24,-28.09 144.48,-56.19 216.72,-88.3 32.11,-16.05 64.21,-32.1 100.33,-52.17 136.46,-92.31 264.89,-200.67 377.26,-321.07 48.16,-64.21 96.33,-128.43 144.49,-196.66 40.13,-80.26 80.26,-164.54 120.4,-248.82 24.07,-112.38 52.17,-224.75 80.26,-337.13 0,-92.3 0,-184.61 4.02,-280.93 -8.03,-68.23 -16.06,-136.46 -24.09,-208.7 -64.21,-301.002 -240.8,-585.951 -465.55,-794.646 -4.01,-4.016 -4.01,-8.027 -4.01,-16.055 -8.03,0 -12.04,0 -16.05,0 C 2352.99,230.98 2088.11,134.66 1927.57,70.4453 1755,34.3281 1586.44,14.2617 1409.85,6.23047 Z m 28.09,52.17583 c -60.2,8.0273 -120.4,16.0546 -180.6,24.082 C 1008.51,134.66 799.816,230.98 595.133,375.461 406.504,527.973 249.984,744.695 161.688,973.457 c -16.051,48.163 -32.106,92.303 -48.161,136.453 -16.0504,96.32 -32.1051,192.64 -48.1598,284.95 0,381.27 80.2698,698.33 317.0588,1003.35 0,48.15 204.679,204.68 248.828,240.8 96.32,56.19 192.641,112.37 292.976,168.56 64.215,24.08 132.44,48.16 200.67,68.23 80.27,16.05 164.55,28.09 248.83,40.13 76.25,0 152.51,0 232.77,0 80.27,-12.04 160.54,-24.08 240.81,-40.13 256.85,-76.26 461.53,-200.67 658.19,-381.28 48.16,-56.18 96.32,-112.37 144.48,-172.57 136.46,-228.76 228.77,-445.49 260.87,-710.37 0,-84.28 0,-168.56 0,-256.85 -40.13,-321.07 -164.55,-589.968 -373.24,-838.8 -24.08,-20.067 -44.15,-40.133 -64.22,-64.215 C 2381.09,387.504 2292.79,319.277 2204.5,251.051 2064.03,182.82 1915.54,130.648 1767.04,90.5117 1654.66,82.4883 1546.3,70.4453 1437.94,58.4063 Z m -72.24,48.1597 c -84.28,16.055 -168.56,32.106 -248.82,48.161 -305.021,100.332 -573.919,272.91 -758.536,533.781 -48.16,0 -172.574,325.082 -196.656,389.292 -76.2544,292.98 -72.2388,557.86 4.015,850.84 60.203,152.51 136.453,280.94 216.723,417.39 48.16,56.18 96.32,108.36 148.496,160.54 136.453,108.36 256.855,192.64 413.375,268.89 132.443,44.15 260.873,76.25 397.323,100.34 60.2,4.01 124.42,4.01 188.63,4.01 76.25,-8.03 156.52,-16.05 236.79,-24.08 84.28,-24.08 172.58,-52.18 260.87,-80.27 296.99,-132.44 545.82,-357.19 698.32,-642.14 32.11,-88.29 68.23,-180.6 104.36,-272.91 12.04,-68.23 24.07,-136.45 40.13,-208.7 0,-84.27 0,-172.57 4.01,-260.86 -8.02,-60.2 -16.05,-124.42 -24.08,-188.63 -40.13,-160.54 -132.44,-309.032 -180.6,-461.54 -28.09,0 -68.23,-84.282 -80.27,-100.336 -68.23,-68.227 -136.45,-136.453 -200.67,-208.696 -96.32,-60.199 -188.63,-120.398 -280.93,-180.597 -68.23,-24.082 -132.45,-52.176 -196.66,-80.27 -100.33,-20.066 -196.66,-40.133 -292.98,-60.199 -84.27,0 -168.56,0 -252.84,-4.016 z m -28.09,32.106 c -144.48,28.094 -301,68.226 -433.446,128.43 0,4.015 0,8.027 0,12.039 152.506,-24.082 305.016,-48.161 461.536,-76.254 4.01,-16.055 8.03,-36.121 16.06,-56.188 -16.06,0 -32.11,-4.011 -44.15,-8.027 z m 228.76,0 c 0,20.07 4.02,36.121 8.03,52.176 152.51,0 325.08,44.144 473.58,68.226 -4.02,-4.015 -8.03,-8.023 -8.03,-12.039 -156.52,-44.148 -309.03,-96.32 -473.58,-108.363 z m -68.23,12.043 c 12.04,24.078 20.07,36.117 48.16,36.117 -16.05,-12.039 -32.1,-24.078 -48.16,-36.117 z m -72.24,8.027 c -8.02,4.012 -12.04,8.024 -16.05,12.039 0,12.039 0,20.067 4.01,28.094 20.07,-8.027 28.1,-20.066 32.11,-40.133 -8.03,0 -16.06,0 -20.07,0 z m 32.11,52.172 c -12.04,12.043 -72.24,60.203 -76.25,76.254 -68.23,28.094 -136.46,56.187 -200.67,80.27 -52.18,8.023 -104.35,16.05 -156.52,24.078 0,68.23 72.24,172.574 100.33,232.777 16.05,4.016 32.11,8.023 48.16,8.023 -24.08,12.043 -44.15,24.082 -64.21,36.125 -8.03,-12.043 -16.06,-24.082 -20.07,-36.125 C 992.457,536 900.152,439.68 807.844,339.344 c -32.11,0 -56.188,16.051 -84.281,32.105 0,8.028 0,16.055 0,24.078 104.347,76.258 208.695,148.496 313.047,220.739 -16.06,-4.016 -32.11,-12.039 -44.153,-20.067 C 904.164,536 819.883,475.797 735.602,411.582 c -24.079,0 -48.161,0 -72.239,0 -20.066,16.055 -192.644,152.508 -200.672,196.656 -28.089,28.094 -52.171,56.188 -76.253,84.282 -40.133,68.226 -80.266,136.453 -120.399,200.668 -20.066,52.175 -40.133,100.335 -60.203,148.492 -20.066,68.23 -36.121,136.46 -52.172,200.67 -8.027,144.48 -56.1874,377.26 12.039,513.72 0,-44.15 -12.039,-421.41 116.387,-337.13 0,20.07 0,40.13 4.015,56.19 -16.054,48.16 -56.191,88.29 -80.269,128.42 -8.023,32.11 -16.055,64.22 -20.066,92.31 0,56.19 0,112.38 0,168.57 4.011,4.01 12.043,8.02 20.066,12.03 8.027,-44.14 16.055,-88.29 28.094,-136.45 -4.016,-52.17 -8.024,-104.35 -8.024,-160.53 20.067,-32.11 28.09,-36.12 60.199,-44.15 28.094,-92.31 -36.121,-136.45 56.188,-204.68 0,-52.18 -12.043,-104.35 0,-156.52 12.039,-4.02 24.078,-8.03 36.117,-16.06 -12.039,20.07 -24.078,36.12 -32.105,52.18 4.011,32.1 8.027,64.21 16.054,96.32 4.012,0 8.024,0 12.039,0 24.079,-40.14 44.145,-60.21 52.176,-108.37 4.012,0 8.028,0 12.039,0 8.028,48.16 -28.093,92.32 -56.187,124.42 -4.016,12.04 -44.149,124.42 -56.188,128.43 0,-20.07 12.039,-76.26 4.012,-84.28 -8.027,4.01 -16.051,8.02 -20.066,12.04 0,40.13 -4.012,64.21 12.039,104.34 44.148,-12.04 60.203,-80.26 60.203,-120.4 28.094,0 0,76.26 0,88.3 8.027,4.01 20.066,8.02 32.109,8.02 4.008,32.11 12.039,64.22 20.067,92.31 -20.067,36.12 -36.125,72.24 -52.176,104.35 -8.028,24.08 -12.043,48.16 -16.055,72.24 -16.055,0 8.027,-128.43 8.027,-156.52 -12.039,-8.03 -24.082,-20.07 -36.121,-32.11 0,-8.03 0,-16.05 0,-28.09 -24.078,0 -24.078,36.12 -24.078,52.17 8.024,4.02 16.051,8.03 24.078,8.03 0,20.07 0,40.13 4.016,56.19 -52.176,64.21 -84.281,124.41 -100.336,208.69 40.133,0 212.711,-160.53 240.805,-180.6 0,-116.39 12.039,-184.62 -72.242,-268.9 -4.016,-28.09 -4.016,-56.18 -4.016,-88.29 68.23,0 80.269,32.11 116.391,88.29 -8.028,80.27 -12.043,160.54 -16.055,236.79 28.094,-16.05 56.187,-32.1 88.293,-48.16 -60.199,52.18 -120.399,104.35 -176.59,156.52 -16.051,12.04 -200.664,128.43 -176.586,152.51 152.508,12.04 309.031,20.07 465.551,28.1 -28.094,-80.27 -56.188,-160.54 -80.266,-240.81 -4.012,-32.1 -4.012,-84.28 -24.078,-104.34 4.008,-112.38 12.035,-224.75 20.066,-341.14 8.024,-72.24 28.09,-144.48 12.036,-216.73 -48.161,-68.222 -84.278,-72.234 -48.161,-160.531 -32.105,16.059 -56.183,60.203 -72.238,88.297 4.012,24.078 12.039,44.148 20.067,64.214 16.054,0 16.054,-32.109 20.066,-44.148 36.121,4.012 52.172,28.094 68.23,56.188 -12.042,128.43 -24.082,256.86 -36.125,385.29 -40.132,20.06 -24.078,104.34 -20.066,148.49 -4.012,4.01 -8.027,4.01 -12.039,4.01 -44.148,-92.31 4.012,-204.68 -92.309,-268.9 -4.011,-44.14 -4.011,-88.29 -4.011,-136.45 12.039,-8.03 24.082,-20.07 36.121,-32.1 20.066,40.13 40.133,76.25 60.199,112.37 0,52.17 0,100.33 4.012,148.49 16.054,-56.18 20.07,-152.5 4.015,-208.69 -40.132,-56.19 -48.16,-68.23 -20.066,-136.46 -64.215,0 -136.457,184.62 -148.496,220.74 -4.012,4.01 -8.027,4.01 -12.039,4.01 12.039,-96.32 24.078,-192.64 36.117,-292.976 -16.051,24.082 -32.105,48.156 -48.16,72.246 -20.067,0 -36.117,0 -52.172,0 -68.227,44.14 -88.297,132.44 -136.457,180.6 0,-56.19 44.152,-132.44 76.258,-176.59 -8.028,0 -12.039,0 -16.055,0 -4.012,8.03 -8.027,12.04 -12.043,16.05 -4.008,-8.02 -4.008,-16.05 -4.008,-24.08 32.106,-40.132 164.547,-361.199 264.879,-260.867 24.082,-16.054 52.176,-32.105 80.27,-52.171 -8.028,0 -16.055,-4.016 -24.082,-8.028 4.015,-4.015 8.027,-12.039 12.039,-20.066 -16.051,4.012 -32.106,8.027 -44.145,12.039 0,-64.215 104.348,-52.176 140.469,-56.188 20.062,-20.066 92.305,-104.347 92.305,-32.109 -20.067,20.066 -36.118,40.137 -52.172,60.203 4.011,48.16 12.039,96.32 -4.012,140.469 -8.027,0 -12.043,0 -16.059,0 -8.023,-12.043 -16.05,-24.082 -20.062,-40.137 -12.039,0 -20.07,0 -28.094,0 0,28.094 28.094,44.149 48.156,64.215 4.016,16.055 12.043,32.105 20.071,48.164 0,40.133 0,80.266 0,116.386 -8.028,52.17 -52.172,148.49 -36.121,200.67 52.175,-104.35 104.347,-204.685 176.59,-296.99 0,-8.031 0,-20.066 0,-32.109 -24.079,-88.293 -48.161,-176.586 -72.243,-264.883 28.098,92.309 56.188,184.617 84.282,272.91 88.293,-56.187 176.593,-116.386 264.883,-176.589 0,-24.082 64.21,-28.09 84.28,-40.133 -16.05,-64.215 -144.48,-204.68 -120.4,-252.844 104.35,0 220.74,-8.027 309.03,-60.199 28.09,-28.094 100.33,-112.375 72.24,-140.469 z m -88.3,8.027 c -124.41,48.161 -264.88,64.215 -397.319,92.309 -4.012,4.012 -8.028,8.027 -8.028,12.039 132.447,0 264.887,-36.121 393.317,-72.238 -76.26,76.25 -301.01,84.277 -405.356,100.332 -4.011,8.027 -4.011,12.039 -4.011,16.055 12.039,24.078 100.337,184.613 116.387,168.562 -12.04,-28.094 -76.255,-128.43 -60.2,-164.551 104.35,0 341.14,-40.133 401.34,-132.441 -12.04,0 -20.07,0 -28.1,-4.016 0,-4.012 4.02,-8.023 8.03,-16.051 -8.03,0 -12.04,0 -16.06,0 z m 148.5,8.028 c 0,4.011 4.02,8.023 8.03,12.039 -4.01,-4.016 -8.03,-8.028 -8.03,-12.039 z m 108.36,0 c 100.34,20.066 204.68,40.133 309.03,60.199 -88.29,-8.027 -172.57,-16.051 -256.85,-24.078 60.2,16.051 120.4,32.105 180.6,48.16 44.14,0 92.3,0 140.47,0 0,52.172 -88.3,120.398 -68.23,160.535 44.14,-56.187 100.33,-120.402 128.43,-180.601 -32.11,0 -64.22,0 -92.31,-4.016 -4.01,-4.012 -8.03,-8.027 -8.03,-12.039 -112.37,-16.055 -224.75,-32.106 -333.11,-48.16 z m -260.87,12.039 c 4.01,4.015 8.03,8.027 12.04,8.027 -4.01,0 -8.03,-4.012 -12.04,-8.027 z m 132.44,8.027 c 8.03,88.293 16.06,172.574 24.09,256.856 8.02,4.015 16.05,4.015 28.09,4.015 4.01,16.051 8.02,32.106 16.05,44.145 4.02,0 12.04,0 20.07,0 0,-4.012 0,-12.039 0,-20.067 28.09,0 32.1,60.2 92.31,60.2 -8.03,-4.012 -16.06,-8.028 -20.07,-12.039 0,-4.012 0,-8.028 0,-12.04 32.11,4.012 48.16,12.04 64.21,28.094 -12.03,0 -24.08,0 -36.12,0 0,24.078 92.31,20.067 108.36,20.067 28.1,-40.133 100.34,-172.578 84.28,-204.684 -64.21,-12.039 -128.42,-24.078 -188.62,-40.133 -64.22,-40.133 -128.43,-80.265 -192.65,-124.414 z m 112.38,4.016 c 68.23,68.226 252.84,120.398 349.16,96.32 0,-4.016 0,-8.027 0,-16.055 -140.47,0 -224.75,-24.082 -349.16,-80.265 z m -140.47,28.09 c -60.2,140.468 -240.8,136.457 -369.23,152.507 0,60.2 72.24,140.469 104.35,192.645 36.12,0 100.33,24.078 100.33,-36.121 20.07,4.012 40.14,4.012 60.2,4.012 4.01,-8.028 8.03,-16.051 12.04,-24.079 76.26,0 92.31,-84.281 100.33,-148.496 -60.19,24.079 -128.42,60.204 -192.63,60.204 0,-4.016 0,-8.028 0,-12.043 72.24,0 168.56,-36.122 192.63,-108.36 -32.1,20.067 -84.27,68.227 -120.39,68.227 0,-4.016 0,-8.028 0,-12.039 68.22,-20.071 112.37,-64.215 112.37,-136.457 z m 120.4,0 c 44.15,88.297 232.78,108.363 317.06,108.363 0,16.051 4.01,28.094 8.03,40.133 8.02,-16.055 20.06,-36.121 32.1,-56.188 -124.41,0 -244.81,-36.121 -357.19,-92.308 z m 353.18,8.027 c -4.01,4.016 4.01,4.016 0,0 z m -413.38,20.066 c 0,0 0,0 0,4.016 4.02,0 8.03,0 16.05,0 0,0 0,0 0,-4.016 -4.01,0 -8.02,0 -16.05,0 z m 577.93,0 c -52.18,48.161 -120.4,112.375 -156.53,176.59 64.22,-48.16 128.43,-112.375 176.6,-176.59 -8.04,0 -16.06,0 -20.07,0 z M 928.246,311.25 c -28.094,8.027 -56.187,12.039 -84.285,16.051 0,12.043 4.016,20.07 8.031,28.094 12.035,0 152.508,164.55 180.598,184.617 0,-44.149 -76.25,-140.469 -100.332,-176.59 -4.012,-8.027 -4.012,-16.051 -4.012,-28.094 4.012,0 8.024,0 16.051,-4.012 0,-4.015 0,-8.027 0,-12.039 -8.027,0 -12.039,-4.015 -16.051,-8.027 z m 1224.074,8.027 c -48.16,96.321 -164.54,156.52 -228.76,240.801 -28.09,24.078 -52.17,44.149 -76.25,64.215 -120.4,24.078 -228.77,-16.055 -321.07,-84.281 -12.04,0 -24.08,-4.012 -32.11,-8.028 -24.08,36.121 -76.25,64.215 -116.39,84.282 92.31,8.027 188.63,12.043 284.95,16.05 52.17,16.055 128.43,56.192 184.62,40.137 128.42,-92.308 260.87,-184.613 393.31,-280.937 0,-8.028 0,-16.055 0,-24.078 -32.11,-16.055 -60.2,-32.11 -88.3,-48.161 z m -553.84,48.161 c -4.02,4.011 -8.03,8.023 -8.03,8.023 4.01,4.016 8.03,4.016 16.05,4.016 -4.01,-4.016 -8.02,-8.028 -8.02,-12.039 z m -60.2,12.039 c 0,4.011 0,8.027 0,12.039 4.01,0 8.02,0 12.04,0 0,-4.012 0,-8.028 0,-12.039 -4.02,0 -8.03,0 -12.04,0 z m 112.37,12.039 c -4.01,8.027 -4.01,16.054 -4.01,20.066 8.02,0 16.05,0 24.08,0 -8.03,-4.012 -16.06,-12.039 -20.07,-20.066 z m 618.06,0 c -40.13,172.574 -80.26,345.152 -120.4,517.726 44.15,68.227 88.3,136.458 136.46,204.688 24.07,96.32 52.17,192.64 80.27,284.95 20.06,0 36.11,20.06 44.14,32.1 12.04,0 28.09,0 44.15,0 8.03,-36.12 16.05,-72.24 24.08,-108.36 -16.05,-120.4 -64.21,-256.86 -152.51,-345.151 -16.06,4.015 -28.1,4.015 -40.13,4.015 -4.02,24.076 -4.02,48.156 -4.02,72.236 -8.02,0 -16.05,0 -20.07,0 -8.02,-112.372 32.11,-120.396 124.42,-148.49 108.36,36.118 160.53,244.81 180.6,345.15 0,100.33 28.1,164.55 -76.25,204.68 -28.09,0 -52.18,0 -76.25,0 -16.06,-12.04 -32.11,-24.08 -44.15,-36.12 0,52.17 0,104.35 4.01,156.52 124.41,100.34 248.83,200.67 377.26,296.99 12.04,4.01 24.07,8.03 40.13,12.04 16.05,-88.29 32.11,-176.59 48.16,-268.89 0,-68.23 4.02,-136.46 8.03,-204.69 -12.04,-128.43 -40.14,-264.88 -80.27,-389.29 C 2718.21,929.309 2670.05,837 2625.9,740.68 2613.86,724.629 2529.58,608.238 2505.5,596.199 2445.3,523.957 2348.98,431.648 2268.71,391.516 Z m -36.12,16.054 c -124.41,88.293 -248.83,176.586 -369.23,264.883 -4.01,8.024 -4.01,16.055 -4.01,20.067 60.2,40.132 120.4,80.265 184.61,120.402 24.08,28.094 52.18,52.176 80.27,76.254 24.08,-12.043 100.34,-405.352 128.43,-481.606 -8.03,0 -16.05,0 -20.07,0 z m -525.75,12.039 c 0,8.028 0,16.055 0,20.071 4.02,0 12.04,0 20.07,0 -8.03,-4.016 -16.05,-12.043 -20.07,-20.071 z m -991.305,12.039 c 8.028,40.137 16.055,80.27 28.094,116.391 4.012,0 8.027,0 12.039,0 -16.051,-36.121 -28.094,-76.254 -40.133,-116.391 z m 911.035,0 c 0,8.032 0,16.055 0,20.067 4.02,0 12.04,0 20.07,0 0,-4.012 0,-12.035 0,-20.067 -8.03,0 -16.05,0 -20.07,0 z m -96.32,8.032 c 0,8.023 0,12.035 4.02,16.05 4.01,4.016 8.02,4.016 16.05,4.016 -8.03,-4.016 -16.05,-12.043 -20.07,-20.066 z m -333.11,8.023 c -12.04,8.027 -20.07,16.055 -28.09,20.067 16.05,0 32.1,0 48.16,0 0,-4.012 0,-12.04 0,-20.067 -8.03,0 -16.06,0 -20.07,0 z m 473.58,12.043 c 0,4.012 0,8.024 0,12.039 4.01,0 12.04,0 20.07,0 0,-4.015 0,-8.027 0,-12.039 -4.02,0 -12.04,0 -20.07,0 z m 140.47,0 c 0,4.012 4.01,8.024 8.02,12.039 0,-4.015 4.02,-8.027 8.03,-12.039 -8.03,0 -12.04,0 -16.05,0 z m -224.75,12.039 c 0,8.028 0,16.055 0,20.063 4.01,0 12.04,0 20.06,0 -8.02,-4.008 -16.05,-12.035 -20.06,-20.063 z m -148.5,20.063 c 0,0 0,4.015 0,8.031 0,0 4.02,0 8.03,0 0,0 0,-4.016 0,-8.031 0,0 -4.01,0 -8.03,0 z m -112.37,8.031 c -20.07,8.027 -40.13,16.051 -60.2,20.066 24.08,0 48.16,-4.015 72.24,-8.027 0,-4.012 0,-8.027 0,-12.039 -4.01,0 -8.03,0 -12.04,0 z m 84.28,8.027 c -4.01,4.012 -4.01,8.024 -4.01,8.024 4.01,4.015 8.02,4.015 12.04,4.015 -4.02,-4.015 -8.03,-8.027 -8.03,-12.039 z m 236.79,0 c 0,8.024 0,12.039 0,16.051 12.04,4.016 24.08,8.027 40.13,8.027 -16.05,-8.027 -28.09,-16.054 -40.13,-24.078 z m 224.75,0 c -4.01,20.067 -24.08,40.133 -16.06,60.199 4.02,-12.039 36.12,-40.132 16.06,-60.199 z m -674.25,12.039 c -4.01,4.012 -8.03,8.028 -8.03,12.039 12.04,0 16.06,12.039 40.14,0 0,-4.011 0,-8.027 0,-12.039 -12.04,0 -24.08,0 -32.11,0 z m 168.56,8.028 c -4.01,4.011 -8.02,8.027 -8.02,8.027 8.02,0 16.05,0 24.08,-4.016 -8.03,0 -12.05,0 -16.06,-4.011 z m 345.16,4.011 c 0,4.016 36.11,52.172 36.11,16.055 -12.04,-4.016 -24.08,-8.027 -36.11,-16.055 z m -405.36,8.028 c 0,4.011 0,8.027 4.02,12.039 0,-4.012 4.01,-8.028 8.02,-12.039 -4.01,0 -8.02,0 -12.04,0 z m -48.16,8.027 c 0,8.027 0,12.039 4.02,16.051 0,-4.012 4.01,-8.024 8.02,-16.051 -4.01,0 -8.02,0 -12.04,0 z m 509.7,44.145 c 0,4.015 0,8.027 0,16.054 4.01,0 8.03,0 12.04,0 0,-4.011 0,-8.027 0,-16.054 -4.01,0 -8.03,0 -12.04,0 z m -369.23,40.132 c -72.24,20.071 -140.47,36.125 -208.7,52.176 -56.18,28.094 -108.36,52.176 -160.53,76.254 0,4.016 0,8.027 0,12.039 C 892.125,873.121 779.75,985.496 703.496,1138 c -24.082,88.3 -48.16,172.58 -68.23,256.86 0,64.21 0,124.42 0,184.62 20.07,160.53 80.269,301 168.562,437.45 72.242,68.23 144.485,132.45 216.722,196.66 120.4,76.25 236.79,108.36 373.25,132.44 128.43,0 232.77,-8.03 357.19,-40.14 56.18,-24.07 116.39,-52.17 176.58,-80.26 44.15,-28.09 88.3,-60.2 132.45,-92.31 0,-4.01 0,-8.03 0,-12.04 20.06,-8.03 28.09,-20.07 40.13,-40.13 8.03,-4.02 16.05,-8.03 24.08,-12.04 160.54,-212.71 228.76,-429.43 208.7,-694.32 -20.07,-128.43 -72.25,-244.81 -132.45,-361.2 -48.16,-52.176 -96.32,-108.36 -140.46,-164.551 -72.24,-44.144 -144.48,-88.293 -212.71,-136.453 -88.29,-24.078 -176.59,-48.16 -260.87,-72.242 -64.21,0 -128.43,-4.012 -188.63,-8.028 z m 1091.64,36.125 c -64.22,24.079 -128.43,44.145 -192.65,64.211 -44.14,68.227 -36.12,112.375 -36.12,196.657 4.02,0 12.05,0 20.07,0 4.02,-44.145 8.03,-92.309 12.04,-140.469 20.07,4.015 44.15,4.015 68.23,4.015 8.03,-12.042 16.05,-24.082 24.08,-36.121 0,52.172 -8.03,84.282 52.17,72.239 0,24.082 0,44.148 0,64.215 16.06,4.011 32.11,4.011 52.18,4.011 0,28.098 0,52.176 4.01,76.258 48.16,16.051 40.14,56.183 44.15,100.333 12.04,8.03 28.09,16.05 44.15,24.08 -8.03,56.19 -28.1,96.32 32.1,120.4 -8.02,28.09 -16.05,52.18 -20.06,76.25 12.04,12.05 24.08,24.09 36.12,36.13 -16.06,8.02 -24.08,28.09 -28.1,40.13 12.04,20.07 28.1,40.13 28.1,60.2 -8.03,4.01 -16.06,4.01 -20.07,4.01 4.01,20.07 8.03,40.14 16.05,60.21 -12.04,4.01 -20.06,8.02 -28.09,8.02 0,12.04 0,24.08 0,32.11 -16.05,0 -32.11,20.06 -36.12,28.09 -12.04,4.02 -24.08,8.03 -36.12,8.03 -32.11,-16.06 -88.3,-96.32 -112.37,-96.32 12.03,56.18 68.22,96.32 108.35,136.45 20.07,8.03 44.15,16.06 68.23,20.07 64.22,-16.05 132.45,-36.12 200.67,-56.19 4.01,-28.09 12.04,-56.18 20.07,-84.28 0,-68.23 0,-136.45 0,-208.7 -8.03,-20.06 -44.15,-60.19 -20.07,-84.28 -4.01,-12.04 -8.02,-28.09 -8.02,-44.14 -20.07,0 -28.1,-100.34 -32.11,-120.4 -16.06,-8.03 -28.09,-16.06 -40.14,-24.09 -4.01,-24.074 -8.02,-48.156 -8.02,-76.246 -16.06,-4.015 -32.11,-8.027 -48.16,-12.043 0,-20.066 4.01,-44.148 8.02,-68.226 -12.04,-4.016 -20.06,-12.039 -28.09,-20.067 -76.25,0 -44.15,20.067 -44.15,-72.242 -20.07,-4.012 -36.12,-8.027 -52.17,-16.051 -12.04,-44.148 -16.06,-60.203 -48.16,-76.254 z m -1031.44,12.036 c -12.04,12.043 -20.07,20.07 -28.1,28.097 8.03,529.766 16.06,1059.536 28.1,1589.296 16.06,16.05 68.23,8.02 92.31,8.02 92.31,-20.06 148.49,-72.23 176.59,-164.54 0,-196.65 0,-397.33 0,-597.99 -12.05,-136.46 -48.16,-180.61 -176.59,-228.77 -4.02,-208.7 -8.03,-417.391 -12.04,-626.082 -28.1,0 -56.19,-4.016 -80.27,-8.031 z m -140.47,20.07 c -16.05,8.027 -32.1,16.055 -44.15,20.066 -4.01,12.039 -8.02,24.082 -8.02,36.121 8.02,509.696 16.05,1019.396 28.09,1525.086 28.09,8.02 56.19,12.04 84.28,16.05 -4.01,-529.76 -8.03,-1063.55 -12.04,-1597.323 -16.05,0 -32.1,0 -48.16,0 z m -710.368,12.039 c 0,12.043 0,24.082 0,36.121 8.027,-4.012 16.058,-8.027 24.082,-12.039 -8.024,-8.027 -16.055,-16.055 -24.082,-24.082 z m 577.928,8.027 c -12.04,24.082 -24.08,48.16 -36.12,72.242 -4.01,16.051 -128.43,533.775 -168.562,553.845 -4.012,-20.07 -40.133,-136.45 -56.188,-152.51 -20.066,-64.21 -40.132,-132.44 -60.203,-200.667 -8.023,0 -16.05,0 -20.066,0 -24.078,40.137 -48.16,80.267 -68.227,116.387 4.016,272.91 8.028,545.82 12.043,814.72 16.051,28.09 36.118,56.18 56.184,80.26 8.031,0 16.059,0 24.082,-4.01 -4.016,-212.71 -4.016,-425.42 -4.016,-642.14 0,-8.03 4.016,-16.05 8.032,-24.08 36.121,104.35 72.238,208.7 112.371,309.03 4.015,0 12.043,0 20.07,-4.01 24.08,-120.4 52.17,-260.87 104.35,-369.23 0,28.09 16.05,172.57 8.03,180.6 4.01,256.85 8.02,513.71 12.03,766.55 20.07,20.07 44.15,44.15 80.27,32.11 -4.01,-505.69 -8.03,-1011.37 -12.04,-1517.058 -4.01,-4.011 -8.03,-8.023 -12.04,-12.039 z m 1296.32,0 c -24.08,8.028 -48.16,16.055 -68.22,20.067 -4.02,20.066 -4.02,40.133 -4.02,60.199 8.03,-8.024 20.07,-16.051 32.11,-24.078 24.08,-4.016 48.16,-8.028 72.24,-16.055 0,-12.039 0,-24.078 0,-40.133 -12.04,0 -24.08,0 -32.11,0 z M 563.027,748.707 c -16.054,12.039 -32.105,24.078 -48.16,32.106 -4.015,44.148 -8.027,88.292 -12.039,128.429 28.094,0 84.277,-96.32 92.305,-108.363 -20.067,16.055 -36.121,32.109 -52.172,48.16 8.027,-32.105 20.066,-64.211 32.105,-96.32 -4.011,0 -8.027,0 -12.039,-4.012 z M 2521.55,788.84 c -20.06,8.027 -40.13,16.055 -56.18,24.082 -4.01,20.066 -8.03,40.133 -12.04,56.183 36.12,-4.007 76.25,-12.039 116.38,-20.066 -4.01,-20.066 -8.02,-40.133 -8.02,-60.199 -16.06,0 -28.09,0 -40.14,0 z M 406.504,808.906 c -16.051,12.039 -32.106,20.067 -44.145,28.094 0,8.027 0,12.039 0,16.055 32.106,0 64.215,0 100.332,-4.016 0,-12.039 0,-24.078 0,-40.133 -20.066,0 -40.132,0 -56.187,0 z m 80.269,32.11 c -8.027,8.023 -12.039,16.05 -16.054,20.066 -124.414,12.039 -164.547,32.106 -208.696,152.508 24.082,-32.106 52.176,-64.215 80.27,-100.332 44.145,0 92.309,0 140.469,0 0,-24.082 0,-48.16 4.011,-72.242 z m 1420.737,0 c -28.1,20.066 -56.19,36.117 -80.27,52.172 -12.04,32.109 -24.08,60.203 -36.12,88.296 0,276.926 4.01,553.846 8.03,826.756 8.02,124.41 4.01,228.76 108.36,309.03 28.09,0 60.2,0 92.31,-4.02 64.21,-48.16 104.34,-80.26 140.46,-152.5 8.03,-36.12 16.06,-72.25 28.1,-108.36 4.01,-120.41 8.03,-240.81 12.04,-361.21 0,-220.73 20.06,-505.684 -192.64,-634.114 -28.1,-4.011 -56.19,-8.027 -80.27,-16.05 z m 694.31,32.105 c -68.22,20.067 -84.28,28.094 -88.29,96.32 36.12,-8.027 72.24,-20.066 112.37,-32.105 4.02,-16.055 12.04,-32.106 20.07,-52.172 -16.05,-4.016 -32.11,-8.031 -44.15,-12.043 z m -1994.648,8.027 c -28.09,28.094 16.058,68.227 44.148,72.243 -4.011,-20.067 -8.023,-40.133 -8.023,-60.203 -12.043,-4.012 -24.082,-8.024 -36.125,-12.04 z m -180.598,52.176 c -4.015,8.024 -4.015,16.051 -4.015,20.067 0,-4.016 0,-12.043 4.015,-20.067 z m 1922.406,8.024 c 0,40.136 36.12,68.222 64.22,96.322 20.06,44.15 40.13,84.28 60.19,124.42 44.15,-68.23 -44.14,-168.567 -72.24,-212.715 -20.06,0 -36.11,-4.012 -52.17,-8.027 z M 354.332,961.414 c -16.055,4.016 -28.094,8.027 -40.133,12.043 -4.015,20.066 -8.027,40.133 -12.043,56.183 24.082,-4.01 48.16,-12.04 72.242,-20.07 0,-12.035 4.012,-24.074 8.028,-36.113 -12.043,-4.016 -20.067,-8.027 -28.094,-12.043 z m 108.359,0 c -28.089,40.136 -28.089,44.146 -36.117,92.306 4.012,0 8.028,0 16.051,0 4.016,-28.09 12.043,-60.197 20.066,-92.306 z m 1468.899,0 c -16.05,16.055 -28.1,28.094 -40.14,40.136 0,305.02 4.02,606.02 8.03,907.02 12.04,60.2 40.14,136.46 116.39,84.29 8.02,-12.05 20.07,-24.09 32.11,-36.13 8.02,-56.18 20.06,-116.39 32.1,-176.59 -4.01,-216.72 -8.03,-433.44 -8.03,-650.16 -32.1,-100.34 -48.16,-132.445 -140.46,-168.566 z m 742.47,8.027 c -36.12,12.043 -72.24,24.082 -104.35,32.109 -4.01,20.07 -8.02,40.13 -12.03,56.18 40.13,20.07 108.36,-8.02 148.49,-20.06 -12.04,-20.07 -24.08,-44.147 -32.11,-68.229 z M 482.762,1001.55 c -16.055,28.09 -28.094,56.18 -40.137,80.27 -8.023,0 -12.039,0 -16.051,0 -4.015,16.05 -4.015,32.11 -4.015,48.16 32.109,-8.03 80.269,-84.28 80.269,-120.41 -8.027,0 -16.055,-4.01 -20.066,-8.02 z m -156.524,68.23 c -92.308,44.15 -180.601,212.7 -168.562,313.04 16.054,-44.15 32.105,-88.3 52.172,-132.44 24.082,-24.08 132.445,-56.19 132.445,-100.34 16.051,-8.02 32.105,-16.05 52.172,-28.09 -4.012,-16.06 -8.027,-32.11 -12.039,-48.16 -20.067,0 -40.133,0 -56.188,-4.01 z m 220.735,12.04 c 0,16.05 0,28.09 0,40.13 12.039,12.04 24.082,24.08 36.121,32.11 0,-44.15 0,-60.2 -36.121,-72.24 z m 2163.207,8.02 c -40.13,16.05 -76.25,32.11 -112.37,44.15 -4.01,20.07 -4.01,40.14 -4.01,56.19 12.04,4.01 24.08,8.02 36.12,8.02 40.13,-8.02 80.26,-16.05 120.4,-28.09 0,-4.01 4.01,-8.02 8.02,-12.04 -12.04,-8.03 -20.06,-16.05 -28.09,-24.08 0,-12.04 4.01,-24.08 8.03,-40.13 -12.05,0 -20.07,0 -28.1,-4.02 z m -2428.09,40.14 c -20.067,16.05 -40.133,36.12 -40.133,64.21 12.039,0 24.082,0 40.133,0 12.043,-12.04 24.082,-28.09 40.133,-44.15 -16.051,-4.01 -28.09,-12.04 -40.133,-20.06 z m 2050.84,20.06 c 0,56.19 -16.06,120.41 56.18,120.41 0,-40.14 -8.02,-80.27 -28.09,-116.39 -12.04,0 -20.07,0 -28.09,-4.02 z m 397.32,72.25 c -36.12,8.02 -80.27,24.07 -108.36,52.17 12.04,44.15 24.08,36.12 68.23,36.12 28.09,-8.03 56.18,-20.06 84.27,-32.11 0,-32.11 -16.05,-48.16 -44.14,-56.18 z m -2456.187,8.02 c -20.067,12.04 -36.118,24.08 -52.172,36.12 -32.11,76.26 -100.336,220.74 -72.243,305.02 12.04,-48.16 24.082,-100.34 36.122,-152.51 12.043,-12.04 24.078,-24.08 40.136,-40.13 68.227,-20.07 148.492,-76.26 80.266,-144.49 -12.039,0 -24.082,0 -32.109,-4.01 z m 232.777,0 c -20.067,8.03 -24.078,28.1 -24.078,44.15 12.039,8.02 28.09,16.06 44.144,20.06 0,-20.06 0,-40.13 0,-64.21 -8.027,0 -16.054,0 -20.066,0 z m -204.684,72.24 c -20.066,4.02 -36.117,8.03 -52.172,12.04 -4.011,12.04 -8.027,20.07 -8.027,28.1 -12.043,4.01 -20.066,8.02 -28.094,8.02 0,4.02 0,8.03 0,12.04 40.133,-12.04 88.293,-12.04 88.293,-60.2 z m 2432.104,32.11 c -36.12,8.03 -68.22,16.05 -100.33,20.07 32.11,92.31 68.23,56.18 156.52,40.13 0,-40.13 -16.06,-52.17 -56.19,-60.2 z m -2307.686,28.09 c 12.039,36.13 40.133,80.27 76.254,92.31 -8.027,-48.16 -36.121,-68.23 -76.254,-92.31 z m 1123.746,68.23 c 4.01,252.84 8.02,505.68 12.04,758.53 40.13,-4.01 56.18,-32.11 80.27,-64.22 -4.02,-204.68 -8.03,-409.36 -8.03,-614.04 -12.04,-20.07 -20.07,-44.15 -28.1,-68.23 -20.06,-4.01 -40.13,-8.03 -56.18,-12.04 z m 1200,4.01 c -36.12,12.05 -72.24,20.07 -104.35,28.1 0,8.02 0,12.04 0,16.05 8.03,8.03 16.05,16.06 24.08,24.08 32.11,-8.02 68.23,-16.05 104.34,-28.09 0,-12.04 4.02,-24.08 8.04,-40.14 -12.04,0 -24.09,0 -32.11,0 z m -2516.39,48.16 c -20.067,20.07 -28.094,36.13 -28.094,68.23 20.07,0 48.16,-44.15 56.187,-60.2 -12.039,0 -20.066,-4.01 -28.093,-8.03 z m 120.402,32.11 c 8.027,16.05 20.066,32.11 32.106,48.16 -4.012,-16.05 -8.028,-32.11 -12.04,-48.16 -8.027,0 -16.054,0 -20.066,0 z m 2359.868,0 c -28.1,8.03 -56.19,12.04 -80.27,16.05 8.03,16.06 16.05,32.11 24.08,44.15 32.11,-8.02 64.22,-16.05 96.32,-28.09 0,-8.03 0,-16.06 0,-24.08 -16.05,0 -28.1,-4.01 -40.13,-8.03 z m -2448.161,60.2 c -16.055,48.16 -24.082,56.19 -4.016,116.39 44.149,-12.04 52.176,-64.21 52.176,-100.33 -16.054,16.05 -28.094,28.09 -40.136,40.13 0,-16.05 4.015,-36.12 8.027,-56.19 -8.027,0 -12.039,0 -16.051,0 z m 2103.011,20.07 c -36.12,80.27 -32.11,216.72 -96.32,280.93 -4.02,12.04 -4.02,24.09 -4.02,32.11 160.54,-4.01 321.07,-8.02 481.61,-12.04 0,-4.01 0,-12.04 0,-20.07 -104.35,-20.06 -168.56,-144.48 -260.87,-180.6 -40.14,-32.1 -80.27,-64.21 -120.4,-100.33 z M 221.891,1892.52 c -8.028,4.01 -12.043,4.01 -16.055,4.01 0,12.04 0,24.08 0,36.12 64.215,156.53 136.457,301.01 236.789,433.45 104.348,116.38 228.766,216.72 361.203,296.99 80.27,36.12 204.682,124.41 292.982,124.41 -20.07,-12.04 -36.12,-24.08 -52.18,-36.12 -44.15,-52.17 -96.317,-108.36 -80.267,-184.61 28.094,-16.06 60.207,-32.11 92.307,-52.18 -36.12,-60.2 -116.385,-48.16 -168.561,-28.09 -100.332,4.01 -32.105,36.12 -84.281,60.2 -128.43,0 -112.371,-64.22 -120.398,-160.54 -32.11,8.03 -60.2,16.05 -88.297,20.07 -72.238,-12.04 -132.442,-40.13 -112.371,-128.43 12.039,-4.01 28.09,-12.04 44.144,-20.07 0,-24.07 -48.16,-84.27 -64.215,-100.33 -4.011,-48.16 -8.023,-96.32 -8.023,-144.48 -24.082,-32.11 -48.164,-64.21 -72.242,-100.33 -56.188,-4.02 -108.363,-12.04 -160.535,-20.07 z m 200.668,12.04 c -4.016,8.03 -8.024,16.05 -8.024,20.07 20.067,52.17 76.25,140.46 140.465,124.41 0,-44.15 -56.187,-92.31 -72.238,-132.44 -20.071,-4.01 -40.137,-8.03 -60.203,-12.04 z m 2319.731,0 c -148.49,28.09 -329.09,20.07 -481.61,24.08 -96.32,112.38 -192.64,228.76 -313.04,313.04 -92.31,40.14 -184.61,80.27 -272.91,116.39 -20.07,56.19 -36.12,112.38 -52.17,168.56 84.28,-20.06 168.56,-40.13 256.85,-64.21 -40.13,-12.04 -56.18,-20.07 -56.18,-64.21 92.31,-44.16 156.52,-88.3 220.73,-168.57 48.16,-40.13 96.32,-84.28 144.49,-128.43 40.13,-8.02 80.26,-16.05 124.41,-24.08 36.12,-36.11 76.25,-68.22 104.35,-112.37 60.2,0 104.34,52.17 172.57,52.17 0,112.38 -104.35,240.8 -148.49,329.1 16.05,0 24.08,16.06 36.12,28.1 -16.05,52.17 -36.12,52.17 -88.3,68.22 -20.06,32.11 -40.13,64.22 -56.18,96.32 20.06,0 52.17,-32.1 76.25,-44.15 0,-4.01 0,-8.02 0,-16.05 16.05,-12.04 32.11,-24.08 48.16,-36.12 52.18,-68.22 108.36,-136.46 164.55,-204.68 32.11,-64.21 164.55,-280.94 144.48,-325.08 -8.03,0 -16.05,-4.02 -24.08,-8.03 z m -2227.423,8.03 c -4.015,8.02 -4.015,16.05 -4.015,24.07 20.07,24.09 40.136,64.22 64.214,80.27 0,-44.14 -20.066,-92.3 -60.199,-104.34 z m 68.227,4.01 c 0,48.16 20.07,92.31 12.039,140.47 -40.133,12.04 -80.266,16.05 -116.387,0 0,16.05 0,28.09 0,40.13 36.121,0 108.359,0 136.453,-28.09 -4.011,-44.15 -8.027,-88.3 -8.027,-132.45 16.058,4.02 32.109,4.02 48.164,4.02 28.094,32.11 124.414,116.39 112.375,160.53 -48.16,-8.02 -60.203,-48.16 -92.313,-84.28 -4.007,32.11 -8.023,64.22 -12.035,96.32 24.078,36.13 48.16,72.25 76.254,108.37 12.039,-16.06 24.078,-32.11 40.133,-48.16 -28.094,-56.19 16.051,-80.27 64.211,-80.27 -40.133,-56.19 -80.266,-112.38 -116.387,-168.56 -48.16,0 -96.32,-4.02 -144.48,-8.03 z m 1850.166,76.26 c -24.08,44.14 -76.26,92.3 -96.32,140.46 -40.14,0 -80.27,-4.01 -120.4,-8.03 -36.12,24.09 -72.24,48.17 -108.36,72.25 -52.18,68.22 -136.46,132.44 -180.61,196.65 -28.09,0 -48.16,12.04 -68.22,24.08 0,8.03 4.01,12.04 8.03,16.05 112.37,0 132.44,-28.09 212.7,-108.36 40.13,-4.01 80.27,-8.02 120.4,-12.04 12.04,-8.03 28.1,-16.05 44.15,-24.08 0,36.12 -12.04,64.21 -28.09,96.32 -8.03,0 -12.04,0 -16.06,-4.01 0,-12.04 4.02,-28.1 8.03,-44.15 -72.24,4.02 -164.55,20.07 -188.63,100.34 124.42,-24.08 252.85,-52.18 381.27,-80.27 32.11,-96.32 148.5,-204.68 148.5,-305.02 -40.13,-20.06 -80.27,-40.13 -116.39,-60.19 z M 623.23,2117.27 c -4.015,8.02 -8.031,12.04 -8.031,16.05 68.231,136.46 160.535,200.67 276.926,292.98 4.012,0 8.027,0 16.055,0 -24.082,-16.05 -44.153,-36.12 -64.219,-56.19 -72.238,-72.24 -156.52,-140.47 -200.664,-232.77 -8.031,-4.02 -16.055,-12.05 -20.067,-20.07 z m 192.641,0 c 0,8.02 0,12.04 0,16.05 20.067,8.03 40.133,16.06 64.215,24.08 -12.043,-20.06 -40.137,-32.11 -64.215,-40.13 z m -321.07,20.07 c 0,48.16 132.441,212.7 184.613,212.7 -60.199,-60.2 -112.375,-132.44 -156.519,-204.68 -12.043,0 -20.067,-4.01 -28.094,-8.02 z m 68.226,0 c -4.015,12.04 -8.027,20.06 -8.027,28.09 96.32,144.48 176.59,208.7 329.098,284.95 C 831.926,2410.25 779.75,2370.11 727.574,2325.96 683.43,2273.79 615.199,2161.42 563.027,2137.34 Z m 240.801,20.06 c 0,36.12 36.121,88.3 72.242,88.3 0,-48.16 -32.109,-68.23 -72.242,-88.3 z m 120.402,8.03 c -4.011,24.08 -4.011,44.15 -4.011,64.21 12.039,8.03 24.078,16.06 36.121,24.08 0,-20.06 24.078,-24.08 40.133,-28.09 0,-4.01 0,-8.03 0,-12.04 -24.082,-16.05 -48.16,-32.11 -72.243,-48.16 z m -120.402,48.16 c -8.027,20.07 -20.066,32.11 -40.133,40.13 56.188,56.19 112.375,124.42 188.629,160.54 40.133,0 84.286,-4.01 128.426,-8.03 48.16,12.04 152.51,72.24 132.45,140.47 -12.05,4.01 -20.07,8.03 -28.1,8.03 0,100.33 16.05,100.33 100.34,120.4 44.14,-44.15 32.1,-116.39 20.06,-172.58 -28.09,-120.4 -212.71,-136.45 -313.043,-136.45 -32.105,16.05 -88.293,36.11 -68.227,-28.1 4.016,0 12.04,0 20.067,-4.01 0,-20.07 0,-40.13 0,-60.2 -20.067,-4.01 -36.117,-8.03 -52.172,-16.06 -8.027,8.03 -16.055,12.05 -20.066,16.06 -24.082,-20.07 -48.164,-40.13 -68.231,-60.2 z m 192.645,40.13 c -4.016,8.03 -8.028,16.06 -12.043,24.08 24.08,8.03 48.16,12.04 72.24,16.06 -20.06,-12.04 -40.13,-24.08 -60.197,-40.14 z m -453.512,20.07 c -16.055,8.03 -32.109,16.05 -44.148,20.07 0,12.03 0,24.08 4.015,32.1 24.078,-4.01 48.16,-8.02 72.238,-16.05 0,-4.02 0,-8.03 4.016,-16.05 -12.043,-4.02 -24.082,-12.04 -36.121,-20.07 z m 545.819,4.01 c 4.01,20.07 8.03,40.14 16.05,60.2 108.37,32.11 164.55,60.21 236.79,148.5 0,-40.14 -28.09,-92.31 -44.14,-132.45 -72.25,-24.07 -140.47,-48.16 -208.7,-76.25 z m -100.335,28.09 c 8.028,28.1 52.175,48.16 80.265,48.16 0,-36.11 -52.17,-44.14 -80.265,-48.16 z m -401.34,20.07 c -20.066,4.02 -36.117,8.03 -52.171,12.04 0,12.04 0,24.09 0,36.13 36.121,4.01 72.238,4.01 108.363,4.01 0,-28.1 -28.098,-48.16 -56.192,-52.18 z m 742.475,32.11 c 32.11,148.5 100.33,313.04 164.55,449.5 20.07,-52.18 40.14,-104.35 60.2,-160.53 32.11,-96.33 64.21,-192.65 96.32,-288.97 -108.36,8.03 -212.71,12.04 -321.07,0 z m -606.017,28.09 c 0,4.02 0,8.03 0,12.05 32.105,20.06 64.214,40.13 96.32,60.2 0,-4.02 0,-8.03 4.012,-12.05 -36.118,-20.06 -68.227,-40.13 -100.332,-60.2 z m 1689.637,0 c -20.07,8.03 -40.14,16.05 -60.21,24.09 16.06,0 88.3,-4.02 88.3,-24.09 -12.04,0 -20.07,0 -28.09,0 z m -1709.704,28.1 c 0,24.08 8.027,132.44 52.172,88.29 0,-48.16 -8.027,-68.23 -52.172,-88.29 z m 1589.294,0 c -164.54,32.1 -353.17,104.35 -521.74,104.35 0,8.02 0,16.05 4.02,20.06 172.57,0 381.27,-76.25 549.83,-116.38 -12.04,0 -24.08,-4.02 -32.11,-8.03 z M 984.43,2426.3 c -4.012,4.01 -4.012,8.02 -4.012,12.04 40.132,28.09 80.272,52.17 124.412,76.25 24.08,0 52.18,0 80.27,0 -56.19,-80.27 -108.36,-80.27 -200.67,-88.29 z m 1336.46,20.06 c -44.15,16.06 -88.3,28.1 -132.44,40.14 -12.04,24.08 -24.09,48.16 -36.13,68.23 -36.12,12.04 -72.24,20.06 -104.34,28.09 -44.15,-12.04 -84.28,-24.08 -124.42,-40.14 -32.11,8.03 -64.21,12.05 -96.32,16.06 0,8.03 0,12.04 0,16.05 76.25,0 132.44,84.28 200.67,84.28 -4.02,8.03 -8.03,16.06 -8.03,20.07 -64.21,-8.03 -104.34,-48.16 -160.53,-76.25 -24.08,-4.02 -48.16,-8.03 -72.24,-12.05 -4.02,-8.02 -8.03,-16.05 -8.03,-24.07 -60.2,-4.02 -116.39,-12.04 -172.58,-20.07 -36.11,100.34 -68.22,196.66 -100.33,292.98 244.82,0 477.59,-72.24 686.29,-196.66 -56.19,12.04 -108.36,24.08 -160.54,32.11 0,-4.02 0,-8.03 0,-16.06 84.28,0 180.6,-56.18 252.85,-96.32 20.06,-36.12 44.14,-76.25 68.22,-116.39 -12.04,0 -24.08,0 -32.1,0 z m -1545.156,20.07 c 0,20.07 0,36.12 4.016,52.18 8.027,0 16.051,0 24.078,-4.02 0,-24.08 -8.027,-40.13 -28.094,-48.16 z m 1364.546,20.07 c -48.16,16.05 -96.32,28.09 -144.48,40.13 -4.01,4.01 -4.01,8.03 -4.01,12.04 24.08,8.03 48.16,16.06 76.25,20.07 24.08,-12.04 48.16,-24.08 72.24,-40.13 0,-8.03 0,-20.07 0,-32.11 z m -995.31,48.16 c -4.02,24.08 -8.03,48.16 -8.03,68.23 40.13,104.34 192.64,212.71 232.77,48.16 0,-36.12 -8.02,-80.27 -24.07,-112.38 0,64.22 -12.04,116.39 -52.18,156.53 -80.26,0 -100.33,-16.06 -136.45,-88.3 0,-20.06 0,-44.15 0,-68.23 -4.02,0 -8.03,0 -12.04,-4.01 z m -68.23,4.01 c -120.4,60.2 64.21,280.94 188.63,232.78 -28.09,-12.04 -56.19,-24.08 -80.27,-40.14 0,-4.01 0,-8.02 0,-12.04 -8.03,0 -16.05,0 -20.06,0 -32.11,-56.18 -60.21,-108.36 -76.26,-172.57 -4.01,0 -8.03,-4.02 -12.04,-8.03 z m 148.49,28.1 c -12.03,8.02 -20.06,16.05 -28.09,20.07 0,32.1 24.08,16.05 44.15,28.09 0,12.04 0,24.08 4.01,32.11 8.03,0 16.06,0 24.08,-4.02 0,-48.16 16.06,-64.22 -44.15,-76.25 z m -240.8,8.02 c -4.012,12.05 -8.024,20.07 -8.024,28.1 24.074,68.22 76.254,128.42 132.444,172.57 12.04,4.01 24.08,4.01 36.12,4.01 -96.32,-52.17 -120.4,-96.32 -140.47,-204.68 -8.027,0 -16.055,0 -20.07,0 z m 421.41,60.2 c -40.14,108.37 -96.32,152.51 -208.7,180.61 76.25,36.11 200.67,24.08 280.93,24.08 -24.07,-68.23 -48.16,-136.46 -72.23,-204.69"
         style="fill:#231f20;fill-opacity:1;fill-rule:evenodd;stroke:none"
         id="path12" /></g></g></svg>
