<svg version="1.1" id="Layer_1" xmlns="http://www.w3.org/2000/svg" x="0" y="0" viewBox="0 0 938 527" style="enable-background:new 0 0 938 527" xml:space="preserve"><style>.st1{fill-rule:evenodd;clip-rule:evenodd;fill:#f7f2ff}.st3{fill:#d6c2ed}.st4{fill:#b897de}.st8{fill:#fff}.st11,.st12,.st13,.st8{fill-rule:evenodd;clip-rule:evenodd}.st11{opacity:.25;fill:#a276bf}.st12,.st13{fill:#4e1673}.st13{fill:#8348ab}.st14,.st16,.st18,.st19,.st24,.st25{fill-rule:evenodd;clip-rule:evenodd;fill:#b88bd6}.st16,.st18,.st19,.st24,.st25{fill:#c8a6de}.st18,.st19,.st24,.st25{fill:#217373}.st19,.st24,.st25{fill:#3b9999}.st24,.st25{fill:#b189cc}.st25{fill:#a276bf}.st40{fill:#8348ab}.st51{fill:#fff}.st59{fill-rule:evenodd;clip-rule:evenodd;fill:#ffc561}.st73{fill:#522205}.st74,.st75{fill-rule:evenodd;clip-rule:evenodd}.st75{fill:#fc700d}.st80{fill:#db2f00}.st81{fill:#4c0bb2}.st86{fill:#f55600}.st106,.st108{fill-rule:evenodd;clip-rule:evenodd;fill:#8e5cb0}.st108{fill:#4d1c6e}</style><path style="fill-rule:evenodd;clip-rule:evenodd;fill:#eee5ff" d="M0 0h962.4v526.7H0z"/><path class="st1" d="M352.6 526.8h609.8V0H829.2z"/><path style="fill-rule:evenodd;clip-rule:evenodd;fill:#e5d6ff" d="M0 392.3 427.7 0H0z"/><path class="st3" d="M478.6 265.6c2 3.6 4.6 5.7 7.1 5.5 2.5-.2 4.4-2.8 5.3-6.6.9-3.9.8-9.1-.3-14.8-1.1-5.7-3-10.7-5-14.4-2-3.6-4.1-5.8-6-5.6-1.9.2-3.4 2.7-4.3 6.6-.9 3.9-1.3 9.2-.8 14.9.6 5.7 2 10.8 4 14.4zM432 333.8c4.2 3 8.1 3.8 10.7 1.9 2.6-1.9 3.3-6.1 2.2-11.2-1.1-5.1-4-11.3-8.3-17.3-4.3-6-9.1-10.8-13.3-13.7-4.1-3-7.6-4.2-9.7-2.7-2 1.5-2.3 5.3-1.1 10.5 1.1 5.2 3.6 11.6 7.3 18 3.7 6.4 8.1 11.5 12.2 14.5zM436.6 295c2.5 6 5.7 11 9.1 14 3.3 3 6.8 4.1 9.4 2.7 2.6-1.4 3.8-5.1 3.4-9.8-.3-4.7-2.2-10.4-5.3-16.1-3.1-5.7-6.8-10.4-10.1-13.4s-6.3-4.4-8.3-3.3c-2 1.1-2.7 4.5-2.4 9.2.3 4.8 1.7 10.7 4.2 16.7zM522.3 246.8c2.8-1.5 5.9-4.2 8.7-7.7 2.8-3.5 4.8-7.1 5.8-10 1-2.9 1.2-5.1 0-6.1-1.2-.9-3.5-.4-6.3 1.1s-6.2 4-9.3 7.2c-3.1 3.2-5.4 6.6-6.5 9.5-1.1 2.9-.9 5.4.6 6.6 1.6 1.2 4.2.9 7-.6zM502.5 256c2.3-.2 4.3-2.5 5.4-6.2 1.1-3.7 1.4-8.7.8-14.2-.6-5.5-2-10.4-3.6-14-1.6-3.5-3.4-5.7-5.2-5.5-1.8.1-3.3 2.5-4.4 6.2-1.1 3.7-1.8 8.8-1.7 14.3.1 5.5 1.1 10.5 2.6 14s3.8 5.6 6.1 5.4zM461.3 287c2.5 3.6 5.4 5.3 8 4.5 2.6-.8 4.4-3.9 4.9-8.4.6-4.4-.1-10.2-1.9-16.2-1.8-6-4.3-11.2-6.8-14.7s-5-5.5-7-4.9c-2 .6-3.3 3.6-3.8 8.1-.6 4.4-.4 10.3.8 16.5 1.3 6.2 3.3 11.5 5.8 15.1zM529.7 274.4c-3.7-1.8-8.8-3.4-14.6-4.3-5.7-.8-11-.6-14.8.4-3.8 1.1-6.3 3.1-6.4 5.6-.1 2.5 2.1 5 5.8 6.8 3.7 1.8 8.9 3 14.6 3.3 5.8.3 11-.4 14.8-1.5 3.8-1.1 6.2-2.7 6.3-4.6.3-1.9-2-3.9-5.7-5.7zM518.1 294.9c-3.9-2.1-9.4-4.1-15.6-5.3-6.2-1.2-11.9-1.2-16.1-.2-4.2 1-6.9 3.1-7.2 5.8-.2 2.7 2 5.5 6 7.6 3.9 2.1 9.5 3.7 15.7 4.2 6.2.6 12 .1 16.2-.9 4.2-1 6.9-2.6 7.1-4.7.2-2.1-2.2-4.4-6.1-6.5z"/><path class="st3" d="M507.8 258.3c.7-.6.7-1.6.1-2.3-.6-.7-1.6-.7-2.3-.1-29.8 27.6-52.4 61.4-66.7 98.3-14.4 36.9-20.4 77-17.2 117.5.1.9.8 1.5 1.7 1.5.9-.1 1.5-.8 1.5-1.7-3.2-40 2.8-79.6 17-116.1s36.5-69.8 65.9-97.1zM541 252.8c-3.6-1.1-8.5-1.8-13.8-1.7-5.3.1-10 1.1-13.3 2.6-3.3 1.6-5.2 3.8-4.9 6.1.3 2.3 2.6 4.2 6.3 5.3 3.6 1.1 8.5 1.4 13.7.8 5.3-.6 9.9-2 13.2-3.5 3.3-1.6 5.3-3.3 5.1-5.1-.3-1.9-2.7-3.4-6.3-4.5z"/><path class="st3" d="M508 316.4c-4.3-2.3-10.2-4.5-16.9-5.7-6.7-1.3-12.9-1.3-17.4-.2-4.6 1.1-7.5 3.4-7.8 6.3-.3 2.9 2.2 5.9 6.5 8.3 4.2 2.3 10.3 4 17 4.6 6.7.6 12.9.1 17.5-1 4.5-1.1 7.5-2.8 7.7-5.1.1-2.5-2.4-4.9-6.6-7.2zM498.3 340.8c-4.6-2.5-11.1-4.9-18.4-6.3-7.3-1.4-14-1.4-19-.2s-8.2 3.7-8.5 6.9c-.3 3.2 2.4 6.5 7.1 9 4.6 2.5 11.2 4.3 18.5 5 7.3.7 14.1.1 19.1-1.1 4.9-1.2 8.1-3.1 8.4-5.6.2-2.5-2.6-5.2-7.2-7.7z"/><path class="st4" d="M543.3 343.7c-.2-.5-.8-.8-1.3-.6-23.7 9.6-44.6 24.4-61.4 42.9-16.7 18.5-29.4 40.8-36.5 65.4-.2.5.2 1.1.7 1.3.5.2 1.1-.2 1.3-.7 7.1-24.3 19.5-46.3 36.1-64.6 16.5-18.3 37.2-32.9 60.6-42.4.4-.2.7-.8.5-1.3zM494.7 360.9c1.3 2.5 3.1 3.9 4.9 3.7 1.8-.3 3.4-2.1 4.2-5 .9-2.8 1.1-6.6.5-10.7-.5-4.1-1.7-7.6-2.9-10.2-1.3-2.5-2.7-4-4.2-3.8-1.4.2-2.6 2.1-3.5 4.9-.9 2.8-1.4 6.6-1.3 10.8.2 4.2 1 7.8 2.3 10.3zM481.1 372.5c1.8 2.7 3.9 4.1 5.9 3.5 2-.5 3.3-2.8 3.8-6.1s.2-7.6-1-12.1-2.9-8.4-4.7-11.1c-1.8-2.7-3.6-4.2-5.1-3.8-1.5.4-2.5 2.6-3 5.9-.5 3.3-.5 7.6.2 12.3.7 4.7 2.1 8.7 3.9 11.4zM512.6 356c1.7.1 3.4-1.3 4.8-3.8 1.3-2.5 2.2-6 2.5-9.9.3-3.9 0-7.5-.7-10.2-.7-2.6-1.7-4.3-3-4.4-1.3-.1-2.8 1.4-4.1 3.9-1.3 2.5-2.5 6-3.2 9.9-.7 3.9-.7 7.5 0 10.1.6 2.5 2 4.2 3.7 4.4zM540.1 342.5c1.4.4 3.1-.5 4.6-2.5 1.5-1.9 2.8-4.8 3.7-8.2.9-3.4 1.2-6.6 1-9-.1-2.4-.7-4.1-1.8-4.4-1.1-.3-2.5.7-4 2.6-1.5 1.9-3.1 4.8-4.2 8-1.2 3.3-1.7 6.4-1.6 8.9 0 2.4.9 4.1 2.3 4.6zM526.8 347.6c1.5.4 3.2-.6 4.6-2.7 1.4-2.1 2.5-5.2 3.2-8.8.6-3.6.7-7 .3-9.6-.4-2.6-1.1-4.3-2.3-4.6-1.2-.3-2.6.8-4 2.9-1.4 2.1-2.8 5.1-3.8 8.6s-1.3 6.8-.9 9.4c.3 2.5 1.3 4.3 2.9 4.8zM563.5 349.3c-1.9-1.5-4.6-3-7.8-4.1-3.2-1.1-6.2-1.6-8.4-1.5-2.3.2-3.9 1-4.3 2.5-.4 1.4.6 3.1 2.5 4.5 1.9 1.5 4.7 2.7 7.9 3.5 3.2.8 6.3 1.1 8.6.9 2.3-.2 3.9-.8 4.1-1.9.3-1.1-.7-2.5-2.6-3.9z"/><path class="st4" d="M544.4 353.6c-3.2-1.8-6.3-2.9-8.8-3.1-2.5-.2-4.4.4-5 1.9-.6 1.5.1 3.4 1.9 5.3 1.8 1.9 4.6 3.8 7.9 5.2 3.3 1.5 6.6 2.3 9.1 2.5 2.5.2 4.3-.2 4.8-1.3s-.4-2.8-2.2-4.7c-1.9-1.9-4.6-4-7.7-5.8zM563.8 329.9c-2 .2-4.6 1-7.1 2.2-2.6 1.2-4.7 2.7-5.9 4.2-1.3 1.5-1.7 3-1.1 4 .6 1.1 2.2 1.5 4.2 1.2 2-.2 4.4-1.2 6.9-2.6 2.4-1.4 4.4-3.1 5.7-4.6 1.3-1.5 1.8-2.8 1.4-3.6-.7-.8-2.1-1-4.1-.8zM532.5 362.3c-3.4-2.1-6.7-3.4-9.4-3.7-2.7-.3-4.8.3-5.5 1.8-.8 1.5 0 3.7 1.8 5.8 1.8 2.1 4.8 4.3 8.3 6 3.5 1.7 7 2.8 9.7 3.1 2.7.3 4.7 0 5.2-1.2.6-1.2-.3-3.1-2.1-5.2-1.8-2.2-4.6-4.6-8-6.6zM521.1 372.1c-3.7-2.2-7.3-3.7-10.2-4-2.9-.4-5.2.3-6 2-.8 1.7 0 4 2 6.3s5.2 4.6 9 6.5c3.8 1.9 7.6 3 10.5 3.4 2.9.4 5 0 5.7-1.3.6-1.3-.3-3.3-2.3-5.6-2.1-2.5-5.1-5.1-8.7-7.3zM509.1 383.7c-4-2.4-7.9-4-11.1-4.4-3.2-.4-5.6.3-6.5 2.1-.9 1.8 0 4.4 2.1 6.9 2.2 2.5 5.6 5.1 9.8 7.1 4.2 2 8.3 3.2 11.5 3.7 3.2.4 5.5 0 6.2-1.4.7-1.4-.3-3.6-2.5-6.2-2.2-2.5-5.5-5.4-9.5-7.8z"/><path class="st3" d="M116.2 256c2.3.2 4.6-1.9 6.2-5.5 1.6-3.5 2.5-8.5 2.6-14 .1-5.5-.6-10.6-1.7-14.3-1.1-3.7-2.6-6.1-4.4-6.2-1.8-.1-3.6 2-5.2 5.5s-3 8.5-3.6 14c-.6 5.5-.3 10.6.8 14.2 1 3.8 3 6.1 5.3 6.3zM87.7 239.1c2.8 3.5 5.9 6.2 8.7 7.7 2.8 1.5 5.4 1.8 6.9.6 1.5-1.2 1.7-3.7.6-6.6-1-2.9-3.3-6.3-6.5-9.5-3.1-3.2-6.5-5.7-9.3-7.2-2.8-1.5-5.1-2-6.3-1.1-1.2.9-1.1 3.2 0 6.1 1.1 2.9 3.1 6.5 5.9 10zM103.5 265.1c3.6-1.1 6-3 6.3-5.3.3-2.3-1.6-4.5-4.9-6.1-3.3-1.6-8-2.5-13.3-2.6-5.3-.1-10.2.6-13.8 1.7-3.6 1.1-6 2.6-6.2 4.4-.2 1.8 1.8 3.6 5.1 5.1 3.3 1.6 8 2.9 13.2 3.5 5.1.7 10 .4 13.6-.7zM163.7 311.7c2.6 1.4 6 .3 9.4-2.7 3.3-3 6.6-7.9 9.1-14 2.5-6 3.9-12 4.2-16.7.3-4.7-.4-8.1-2.4-9.2-2-1.1-5 .3-8.3 3.3-3.3 3-7 7.7-10.1 13.4-3.1 5.7-4.9 11.4-5.3 16.1-.3 4.7.8 8.4 3.4 9.8zM144.4 283.1c.6 4.4 2.3 7.6 4.9 8.4 2.6.8 5.6-1 8-4.5 2.5-3.5 4.5-8.9 5.7-15 1.2-6.2 1.3-12 .8-16.5-.6-4.4-1.8-7.5-3.8-8.1-2-.6-4.5 1.3-7 4.9-2.5 3.5-5 8.7-6.8 14.7-1.7 6-2.3 11.7-1.8 16.1zM133.1 271c2.5.2 5.1-1.9 7.1-5.5s3.4-8.7 4-14.5c.5-5.7.2-11-.8-14.9-.9-3.9-2.4-6.4-4.3-6.6-1.9-.2-4.1 2-6 5.6-2 3.6-3.9 8.7-5 14.4-1.1 5.7-1.2 10.9-.3 14.8.9 4 2.8 6.5 5.3 6.7zM104.3 286.3c5.8-.3 10.9-1.4 14.6-3.3 3.7-1.8 5.9-4.3 5.8-6.8-.1-2.5-2.5-4.5-6.4-5.6-3.8-1.1-9.1-1.3-14.8-.4-5.7.8-10.9 2.5-14.6 4.3-3.7 1.8-5.9 3.8-5.9 5.8.1 1.9 2.5 3.5 6.3 4.6 4 1 9.2 1.6 15 1.4zM205 290.8c-2-1.5-5.5-.3-9.7 2.7-4.2 3-9 7.7-13.3 13.7-4.3 6-7.2 12.1-8.3 17.3-1.1 5.2-.4 9.4 2.2 11.2 2.6 1.9 6.6 1 10.7-1.9 4.1-3 8.5-8.1 12.2-14.5 3.7-6.4 6.2-12.9 7.3-18 1.2-5.2.9-9.1-1.1-10.5z"/><path class="st3" d="M113.1 255.9c-.7-.6-1.7-.6-2.3.1-.6.7-.6 1.7.1 2.3 29.4 27.3 51.7 60.6 65.9 97.1 14.2 36.5 20.2 76.1 17 116.1-.1.9.6 1.7 1.5 1.7.9.1 1.7-.6 1.7-1.5 3.3-40.5-2.8-80.6-17.2-117.5-14.3-36.9-36.9-70.6-66.7-98.3z"/><path class="st3" d="M129.3 329.5c6.7-.6 12.8-2.2 17-4.6 4.3-2.3 6.7-5.3 6.5-8.3-.3-2.9-3.2-5.2-7.8-6.3-4.5-1.1-10.7-1-17.4.2-6.7 1.3-12.6 3.4-16.9 5.7-4.2 2.3-6.8 4.8-6.6 7.1.2 2.3 3.1 4 7.7 5.1 4.6 1.2 10.8 1.7 17.5 1.1zM157.8 334.3c-4.9-1.2-11.7-1.1-19 .2-7.3 1.4-13.8 3.7-18.4 6.3-4.6 2.5-7.4 5.2-7.2 7.7.2 2.5 3.4 4.4 8.4 5.6 5 1.2 11.7 1.7 19.1 1.1 7.4-.7 13.9-2.4 18.5-5 4.6-2.5 7.3-5.8 7.1-9-.3-3.3-3.6-5.7-8.5-6.9zM117.8 307c6.2-.6 11.8-2.1 15.7-4.2 3.9-2.1 6.2-4.9 6-7.6-.2-2.7-3-4.8-7.2-5.8s-9.9-1-16.1.2c-6.2 1.2-11.7 3.2-15.6 5.3-3.9 2.1-6.3 4.4-6.1 6.5.2 2.1 2.9 3.7 7.1 4.7 4.2 1.1 9.9 1.5 16.2.9z"/><path class="st4" d="M138.2 365.6c-16.7-18.5-37.6-33.3-61.4-42.9-.5-.2-1.1 0-1.3.6-.2.5 0 1.1.6 1.3 23.5 9.5 44.1 24.1 60.6 42.4 16.5 18.3 29 40.3 36.1 64.6.2.5.7.8 1.3.7.5-.2.8-.7.7-1.3-7.3-24.6-19.9-46.9-36.6-65.4zM87.3 324.4c1.4 2.1 3.1 3.1 4.6 2.7 1.5-.4 2.6-2.2 2.9-4.8.4-2.6.1-5.9-.9-9.4s-2.4-6.5-3.8-8.6c-1.4-2.1-2.8-3.2-4-2.9-1.2.3-1.9 2.1-2.3 4.6-.4 2.6-.3 6 .3 9.6.7 3.6 1.8 6.7 3.2 8.8zM74.1 319.6c1.5 1.9 3.2 2.9 4.6 2.5 1.4-.4 2.3-2.2 2.4-4.6.1-2.4-.4-5.6-1.6-8.9-1.2-3.3-2.7-6.1-4.2-8-1.5-1.9-2.9-3-4-2.6-1.1.3-1.7 2-1.8 4.4-.1 2.4.2 5.7 1 9 .8 3.4 2.1 6.3 3.6 8.2zM58 318.5c2.4 1.4 4.9 2.3 6.9 2.6 2 .2 3.6-.2 4.2-1.2.6-1.1.2-2.5-1.1-4s-3.4-3-5.9-4.2c-2.6-1.2-5.1-1.9-7.1-2.2-2-.2-3.5 0-4 .8s.1 2.1 1.4 3.6c1.2 1.5 3.2 3.2 5.6 4.6zM131.8 355.6c2 .5 4.1-.9 5.9-3.5 1.8-2.7 3.2-6.7 3.9-11.3.7-4.6.7-9 .2-12.3-.5-3.3-1.5-5.5-3-5.9-1.5-.4-3.3 1.1-5.1 3.8-1.8 2.7-3.5 6.6-4.7 11.1-1.2 4.5-1.5 8.8-1 12.1.4 3.2 1.8 5.5 3.8 6zM119.1 344.2c1.8.3 3.6-1.2 4.9-3.7 1.3-2.5 2.1-6.2 2.2-10.3.1-4.1-.4-7.9-1.3-10.8-.9-2.8-2-4.7-3.5-4.9-1.4-.2-2.9 1.3-4.2 3.8-1.3 2.5-2.4 6.1-2.9 10.2s-.3 7.8.5 10.7c1 2.9 2.5 4.7 4.3 5zM101.4 331.7c1.3 2.5 3.1 4 4.8 3.8 1.7-.1 3-1.8 3.7-4.5.7-2.6.7-6.2 0-10.1-.7-3.9-1.9-7.4-3.2-9.9-1.3-2.5-2.7-4-4.1-3.9-1.3.1-2.4 1.8-3 4.4-.7 2.7-1 6.3-.7 10.2.2 4 1.1 7.5 2.5 10z"/><path class="st4" d="M120.7 358.8c-3.2.4-7.1 2-11.1 4.4-4 2.4-7.3 5.3-9.4 7.8-2.2 2.5-3.2 4.7-2.5 6.2.7 1.4 3 1.8 6.2 1.4 3.2-.4 7.3-1.6 11.5-3.7 4.2-2 7.7-4.6 9.8-7.1 2.2-2.5 3-5.1 2.1-6.9-.9-1.7-3.4-2.5-6.6-2.1zM111.9 355.9c2-2.3 2.8-4.7 2-6.3-.8-1.7-3.1-2.3-6-2-2.9.4-6.5 1.8-10.2 4-3.7 2.2-6.7 4.9-8.7 7.2-2 2.3-2.9 4.3-2.3 5.6.6 1.3 2.7 1.7 5.7 1.3 2.9-.4 6.7-1.5 10.5-3.4 3.8-1.8 7-4.1 9-6.4zM73.2 330.3c1.9-1.5 2.9-3.1 2.5-4.5-.4-1.4-2-2.3-4.3-2.5-2.3-.2-5.3.3-8.4 1.5-3.2 1.1-5.9 2.6-7.8 4.1-1.9 1.5-2.9 2.9-2.7 4 .3 1.1 1.8 1.7 4.1 1.9 2.3.2 5.4-.1 8.6-.9 3.3-.9 6.1-2.2 8-3.6zM86.3 337.4c1.8-1.9 2.5-3.9 1.9-5.3-.6-1.5-2.5-2.1-5-1.9-2.5.2-5.6 1.3-8.8 3.1-3.2 1.8-5.9 3.9-7.6 5.8-1.8 1.9-2.6 3.6-2.2 4.7.5 1.1 2.3 1.5 4.8 1.3 2.5-.2 5.7-1 9.1-2.5 3.3-1.5 6-3.3 7.8-5.2zM99.3 345.8c1.8-2.2 2.6-4.3 1.8-5.8s-2.8-2.2-5.5-1.8c-2.7.3-6 1.7-9.4 3.7-3.4 2.1-6.2 4.5-8 6.6-1.8 2.1-2.7 4-2.1 5.2.6 1.2 2.5 1.5 5.2 1.2 2.7-.3 6.2-1.4 9.7-3.1 3.6-1.7 6.5-3.9 8.3-6z"/><defs><filter id="Adobe_OpacityMaskFilter" filterUnits="userSpaceOnUse" x="596.4" y="40.3" width="173.9" height="133"><feColorMatrix values="1 0 0 0 0 0 1 0 0 0 0 0 1 0 0 0 0 0 1 0"/></filter></defs><mask maskUnits="userSpaceOnUse" x="596.4" y="40.3" width="173.9" height="133" id="SVGID_1_"><g style="filter:url(#Adobe_OpacityMaskFilter)"><linearGradient id="SVGID_2_" gradientUnits="userSpaceOnUse" x1="-142.246" y1="731.321" x2="-17.93" y2="599.541" gradientTransform="translate(705.077 -496.755)"><stop offset="0" style="stop-color:#000"/><stop offset="1" style="stop-color:#fff"/></linearGradient><path style="fill:url(#SVGID_2_)" d="M596.4 40.3h173.9v133H596.4z"/></g></mask><path style="mask:url(#SVGID_1_);fill-rule:evenodd;clip-rule:evenodd;fill:#ba9de8" d="M596.4 40.3h173.9v133H596.4z"/><path class="st8" d="M608.8 28.1h173.9v133H608.8z"/><path style="fill-rule:evenodd;clip-rule:evenodd;fill:#e1d2fa" d="M619.5 38.9H772v111.4H619.5z"/><path style="fill-rule:evenodd;clip-rule:evenodd;fill:#ba9de8" d="M642.9 56h105.7v77.2H642.9z"/><path class="st8" d="M654.4 65.9h38.3v3.3h-38.3zM654.4 73.4h13.4v1.2h-13.4zM654.4 76.5h13.4v1.2h-13.4zM654.4 91.8h75.5v2.3h-75.5zM654.4 96.2h44.5v2.3h-44.5zM654.4 103.8h44.5v1.5h-44.5zM654.4 107.5h44.5v1.5h-44.5zM654.4 111.5h44.5v1.5h-44.5zM705.9 121.6h28.3v1.5h-28.3z"/><path class="st11" d="M206.9 79.2h24.7v44.9h-24.7z"/><circle transform="rotate(-22.5 98.64 125.588)" class="st11" cx="98.6" cy="125.6" r="72.2"/><path class="st12" d="m647.4 193.9-16-13.7c-3-2.6-7.4-2.3-10.2.4l-41.8-35.8v-7.4c0-2.1-1.7-3.9-3.9-3.9-2.1 0-3.9 1.7-3.9 3.9v.8l-48-41.1-2.8 3.2 50.8 43.5v382.9h7.7V150.5l39 33.4c-2.4 3.1-1.9 7.6 1.1 10.2l16 13.7c3.1 2.7 7.9 2.3 10.5-.8l2.1-2.5c2.9-3.1 2.6-7.9-.6-10.6z"/><path class="st13" d="M575.6 130.8c-4.5 0-8.1 3.6-8.1 8.1V156c0 4.4 3.6 8.1 8.1 8.1s8.1-3.6 8.1-8.1v-17.1c0-4.5-3.6-8.1-8.1-8.1zM552.1 51.6c-1.7-1.3-4.1-1-5.4.7l-13.6 17.5c-6.9-3.1-15.4-1.2-20.2 5L497 95.2c-2.1-.6-4.3-1-6.6-1.3-16.1-1.8-31.9 5.5-41 19 20.4 20.5 43.4 38.4 68.3 53.1 10.9-12.1 14.1-29.2 8.3-44.4-.7-1.9-1.6-3.8-2.6-5.6l16-20.6c4.9-6.3 4.6-15.1-.3-21l13.6-17.5c1.4-1.6 1.1-4-.6-5.3z"/><path class="st8" d="M475.5 139.7c-5.3-.9-10.3 2.6-11.3 7.9-.9 5.3 2.6 10.3 7.9 11.3 5.3.9 10.3-2.6 11.3-7.9.9-5.3-2.7-10.4-7.9-11.3z"/><path class="st14" d="m516.5 164.2-65.2-50.6c-2.1-1.6-5.2-1.3-6.8.9l-.4.5c-1.6 2.1-1.3 5.2.9 6.8l65.2 50.6c2.1 1.6 5.2 1.3 6.8-.9l.4-.5c1.6-2.1 1.2-5.2-.9-6.8z"/><path d="M680.1 461.4c5.6.7 10.7 4.4 13 10l2.6 6.6.7 1c.8 1.2 1.4 2.5 1.9 3.8l.8 2.4c.2.5.3 1.1.5 1.7l1.4 6.5 1.3 3.8c.6 1.7.9 3.5.9 5.4v8.8c.4 1.3.7 2.6.8 4 .3.9.6 1.9.7 2.9h33.1v-.3l-1.4-7.5c-.2-1.2-.3-2.4-.3-3.6l-.7-6.4c0-.2 0-.4-.1-.7-.6-1.6-.9-3.4-.9-5.2v-61.1c0-9.1 7.6-16.4 16.7-16.1V212h-71v249.4z" style="fill-rule:evenodd;clip-rule:evenodd;fill:#682e8f"/><path class="st12" d="M680.1 436.5v90.4h71V369.5c-11.8 11.2-23.7 22.4-35.5 33.5-11.8 11.2-23.6 22.3-35.5 33.5z"/><path class="st13" d="M744.7 212h217.6v314.9H744.7z"/><path class="st14" d="M752.4 222.3h202.3v67.2H752.4z"/><path class="st16" d="M752.4 296.5h202.3v67.2H752.4z"/><path class="st14" d="M752.4 370.3h202.3v67.2H752.4z"/><path class="st16" d="M752.4 444.5h202.3v67.2H752.4z"/><path class="st8" d="M824.3 253.4h58.5v5.1h-58.5zM824.3 327.5h58.5v5.1h-58.5zM824.3 401.4h58.5v5.1h-58.5zM824.3 475.5h58.5v5.1h-58.5z"/><path d="M837.4 119c14.5-23.6 15.2-53.1 1.8-77.4-16.9 22.8-17.6 53.8-1.8 77.4z" style="fill-rule:evenodd;clip-rule:evenodd;fill:#004545"/><path class="st18" d="M836 149.5c22.5-17.4 31.6-46.9 22.9-73.9-20.4 18.7-29.1 46.9-22.9 73.9z"/><path class="st18" d="M812.8 75.6c-8.7 27 .5 56.6 22.9 73.9 6.2-27-2.5-55.2-22.9-73.9z"/><path class="st19" d="M835.1 153c25.4-11.1 42.8-34.9 45.7-62.5-26.8 9.1-45.1 34.1-45.7 62.5z"/><path class="st19" d="M792.3 90.5c2.9 27.5 20.4 51.4 45.7 62.5-.5-28.4-18.8-53.4-45.7-62.5z"/><path d="M865.9 144.5h-59.4c-3.5 0-6 2.8-5.7 6.3.9 9.3 1.7 18.5 2.6 27.8.9 9.3 1.7 18.5 2.6 27.8.3 3.5 2.9 6.3 5.8 6.3h49c2.8 0 5.4-2.8 5.8-6.3.9-9.3 1.7-18.5 2.6-27.8.9-9.3 1.7-18.5 2.6-27.8.1-3.4-2.4-6.3-5.9-6.3z" style="fill-rule:evenodd;clip-rule:evenodd;fill:#08274d"/><defs><filter id="Adobe_OpacityMaskFilter_1_" filterUnits="userSpaceOnUse" x="846.6" y="144.5" width="25.1" height="68.1"><feColorMatrix values="1 0 0 0 0 0 1 0 0 0 0 0 1 0 0 0 0 0 1 0"/></filter></defs><mask maskUnits="userSpaceOnUse" x="846.6" y="144.5" width="25.1" height="68.1" id="SVGID_3_"><g style="filter:url(#Adobe_OpacityMaskFilter_1_)"><linearGradient id="SVGID_4_" gradientUnits="userSpaceOnUse" x1="-131.628" y1="682.341" x2="-66.656" y2="621.38" gradientTransform="translate(943.406 -459.32)"><stop offset="0" style="stop-color:#000"/><stop offset="1" style="stop-color:#fff"/></linearGradient><path style="fill:url(#SVGID_4_)" d="M846.6 144.5h25.1v68.1h-25.1z"/></g></mask><path d="M865.9 144.5h-19.3v68.1h14.1c2.8 0 5.4-2.8 5.8-6.3.9-9.3 1.7-18.5 2.6-27.8.9-9.3 1.7-18.5 2.6-27.8.2-3.3-2.3-6.2-5.8-6.2z" style="mask:url(#SVGID_3_);fill-rule:evenodd;clip-rule:evenodd;fill:#1b4475"/><path class="st24" d="M35.2 463.3h14.3V527H35.2zM606.4 463.3h17.5V527h-17.5z"/><path class="st25" d="M587.9 463.3h10.2V527h-10.2z"/><path class="st16" d="M685.9 463.3H0v24.9H685.9c3.2 0 5.7-2.4 5.7-5.4v-14.1c.1-3-2.5-5.4-5.7-5.4z"/><path d="M697.3 452.5H0v24.9h697.2c3.2 0 5.7-2.4 5.7-5.4v-14.1c.1-3-2.4-5.4-5.6-5.4z" style="fill-rule:evenodd;clip-rule:evenodd;fill:#dec7ed"/><path d="M225.5 455.5c-2.8 24-.3 48.3 7.3 71.2 168.6.2 252.9.6 252.7 0 0 0-24.8-24-74.3-72.1-61.9-4.5-123.9-4.2-185.7.9z" style="fill-rule:evenodd;clip-rule:evenodd;fill:#eadff4"/><defs><filter id="Adobe_OpacityMaskFilter_2_" filterUnits="userSpaceOnUse" x="321.2" y="442.2" width="70.2" height="84.6"><feColorMatrix values="1 0 0 0 0 0 1 0 0 0 0 0 1 0 0 0 0 0 1 0"/></filter></defs><mask maskUnits="userSpaceOnUse" x="321.2" y="442.2" width="70.2" height="84.6" id="SVGID_5_"><g style="filter:url(#Adobe_OpacityMaskFilter_2_)"><linearGradient id="SVGID_6_" gradientUnits="userSpaceOnUse" x1="-147.106" y1="642.679" x2="-62.878" y2="645.336" gradientTransform="translate(442.985 -160.03)"><stop offset="0" style="stop-color:#000"/><stop offset="1" style="stop-color:#fff"/></linearGradient><path style="fill:url(#SVGID_6_)" d="M321.2 442.2h70.2v84.6h-70.2z"/></g></mask><path d="M368.5 443.1c-13.2-3.3-26.9 2.7-33.6 14.5-9 5-14.3 14.8-13.7 25.1 1.7 25.3 33.9 22.3 21.9 43.9 18.7.1 28 .2 28 .2l-5.7-24c11.8-8.9 20.4-19.3 25.9-31.3-.3-13.5-9.7-25.1-22.8-28.4z" style="mask:url(#SVGID_5_);fill-rule:evenodd;clip-rule:evenodd;fill:#ffedf9"/><defs><filter id="Adobe_OpacityMaskFilter_3_" filterUnits="userSpaceOnUse" x="401.4" y="454.6" width="84.1" height="72.4"><feColorMatrix values="1 0 0 0 0 0 1 0 0 0 0 0 1 0 0 0 0 0 1 0"/></filter></defs><mask maskUnits="userSpaceOnUse" x="401.4" y="454.6" width="84.1" height="72.4" id="SVGID_7_"><g style="filter:url(#Adobe_OpacityMaskFilter_3_)"><linearGradient id="SVGID_8_" gradientUnits="userSpaceOnUse" x1="-148.213" y1="647.513" x2="-47.469" y2="651.965" gradientTransform="translate(519.407 -159.935)"><stop offset="0" style="stop-color:#000"/><stop offset="1" style="stop-color:#fff"/></linearGradient><path style="fill:url(#SVGID_8_)" d="M401.4 454.6h84.1V527h-84.1z"/></g></mask><path d="M405.1 458.1c-5.3 10.6-4.7 21.7.2 30.5 16.2 29.6 57.3 6.6 58.2 38.4l21.9-.3c-21.9-21.3-46.7-45.3-74.3-72.1-1.9 1.2-3.9 2.4-6 3.5z" style="mask:url(#SVGID_7_);fill-rule:evenodd;clip-rule:evenodd;fill:#ffedf9"/><defs><filter id="Adobe_OpacityMaskFilter_4_" filterUnits="userSpaceOnUse" x="365.5" y="473.3" width="69.3" height="53.6"><feColorMatrix values="1 0 0 0 0 0 1 0 0 0 0 0 1 0 0 0 0 0 1 0"/></filter></defs><mask maskUnits="userSpaceOnUse" x="365.5" y="473.3" width="69.3" height="53.6" id="SVGID_9_"><g style="filter:url(#Adobe_OpacityMaskFilter_4_)"><linearGradient id="SVGID_10_" gradientUnits="userSpaceOnUse" x1="-24.439" y1="706.412" x2="-107.061" y2="643.278" gradientTransform="translate(485.165 -159.965)"><stop offset="0" style="stop-color:#000"/><stop offset="1" style="stop-color:#fff"/></linearGradient><path style="fill:url(#SVGID_10_)" d="M365.5 473.3h69.3v53.6h-69.3z"/></g></mask><path d="M392.8 500.9c-4.7-8.7-4.2-19.3 1.3-27.5-11.8 12.5-21.3 22.4-28.6 29.6 4.9 16 7.3 24 7.3 24 8.2.1 17.5.2 62-.2-8.1-17.8-30.8-5.2-42-25.9z" style="mask:url(#SVGID_9_);fill-rule:evenodd;clip-rule:evenodd;fill:#dec7ed"/><defs><filter id="Adobe_OpacityMaskFilter_5_" filterUnits="userSpaceOnUse" x="230.1" y="454" width="88.7" height="72.9"><feColorMatrix values="1 0 0 0 0 0 1 0 0 0 0 0 1 0 0 0 0 0 1 0"/></filter></defs><mask maskUnits="userSpaceOnUse" x="230.1" y="454" width="88.7" height="72.9" id="SVGID_11_"><g style="filter:url(#Adobe_OpacityMaskFilter_5_)"><linearGradient id="SVGID_12_" gradientUnits="userSpaceOnUse" x1="-.755" y1="708.726" x2="-111.19" y2="629.275" gradientTransform="translate(356.225 -159.935)"><stop offset="0" style="stop-color:#000"/><stop offset="1" style="stop-color:#fff"/></linearGradient><path style="fill:url(#SVGID_12_)" d="M230.1 454h88.7v72.9h-88.7z"/></g></mask><path d="M282.9 490.3c-1.6-8.4 1.3-17.1 7.7-22.7-30.5-13.2-50.2-16.8-59-10.7-3.5 18.7-1.1 42 7.2 70.1h79.9c2-17.4-31.3-13.5-35.8-36.7z" style="mask:url(#SVGID_11_);fill-rule:evenodd;clip-rule:evenodd;fill:#dec7ed"/><path class="st40" d="M257.5 461.9c-.1-.8-.8-1.3-1.6-1.2-.8.1-1.3.8-1.2 1.6l8.1 64.6h2.8v-.1l-8.1-64.9zM356.5 498l-20.3-11c-.8-.4-1.7-.1-2.2.6-.4.8-.1 1.7.6 2.2l20.3 11c.8.4 1.7.1 2.2-.6.5-.8.2-1.7-.6-2.2zM416.2 472.6c-.7-.5-1.7-.4-2.2.3-11.5 15.1-26.4 27.5-43.5 36-.8.4-1.1 1.3-.7 2.1.4.8 1.3 1.1 2.1.7 17.5-8.7 32.7-21.3 44.6-36.9.5-.7.4-1.6-.3-2.2z"/><path class="st40" d="M367.2 503.4c10.5-8.6 19.5-18.7 26.9-30.1.5-.7.3-1.7-.5-2.2-.7-.5-1.7-.3-2.2.5-7.4 11.3-16.5 21.5-27 30-.5.4-.8 1.1-.6 1.8l7.4 23.5h3.2c0-.2 0-.4-.1-.7l-7.1-22.8z"/><path d="M436.7 311.6c-.4-13.7.2-47.1-1.3-71-2.7-43.7-28.7-47.9-64.6-59.1 0 0-33.6-5-100.9-14.9-24 6.2-58.8 8.9-73.7 28.1-28 36.2-40.4 128.8-34.8 161.7 4 23.6 16.7 34.5 53.7 24.7 6.8 46.3 10.2 74.4 10.2 74.4 93.6 22.2 155.5 18.6 185.7-.9 0 0-2.5-22.4-9.8-67.4 0 0 8.4.6 30.8 2.1 7.7 4.3 17.3 3.4 24.1-2.2 6.8-5.6 9.4-14.9 6.6-23.3.1-.1-8.6-17.4-26-52.2z" style="fill-rule:evenodd;clip-rule:evenodd;fill:#7703fc"/><defs><filter id="Adobe_OpacityMaskFilter_6_" filterUnits="userSpaceOnUse" x="337.8" y="181.6" width="98.8" height="126.3"><feColorMatrix values="1 0 0 0 0 0 1 0 0 0 0 0 1 0 0 0 0 0 1 0"/></filter></defs><mask maskUnits="userSpaceOnUse" x="337.8" y="181.6" width="98.8" height="126.3" id="SVGID_13_"><g style="filter:url(#Adobe_OpacityMaskFilter_6_)"><linearGradient id="SVGID_14_" gradientUnits="userSpaceOnUse" x1="-140.283" y1="649.721" x2="-21.963" y2="587.039" gradientTransform="translate(458.838 -368.604)"><stop offset="0" style="stop-color:#000"/><stop offset="1" style="stop-color:#fff"/></linearGradient><path style="fill:url(#SVGID_14_)" d="M337.8 181.6h98.8v126.3h-98.8z"/></g></mask><path d="M434.8 233.8c-1.4-9.8-4.1-17.7-8.2-23.7-4.1-6.1-9.8-11-17-14.8-5.8-3-12.2-5.5-19.2-7.7-6-1.9-12.5-3.9-19.6-6 .2 17.7-10 27.1-30.7 28.2-4.1 9.9-2.7 21.3 3.7 29.9 16.5 22.1 40.3 1.7 51 26.6 4 9.3 1.8 20-5.5 27 6.3 5.8 9.4 8.8 9.4 8.8s2.4-12.2 7.3-36.5c5.6-11 7.1-24 4.7-39.1 24 9.5.6 38.1 6.8 58.7 3 9.9 9.9 18.1 19.1 22.7-.1-9.9-.1-19.6-.2-28.9.1-17.6-.4-32.7-1.6-45.2z" style="mask:url(#SVGID_13_);fill-rule:evenodd;clip-rule:evenodd;fill:#a671f4"/><defs><filter id="Adobe_OpacityMaskFilter_7_" filterUnits="userSpaceOnUse" x="226" y="172.1" width="156.7" height="138.2"><feColorMatrix values="1 0 0 0 0 0 1 0 0 0 0 0 1 0 0 0 0 0 1 0"/></filter></defs><mask maskUnits="userSpaceOnUse" x="226" y="172.1" width="156.7" height="138.2" id="SVGID_15_"><g style="filter:url(#Adobe_OpacityMaskFilter_7_)"><linearGradient id="SVGID_16_" gradientUnits="userSpaceOnUse" x1="-15.069" y1="532.321" x2="-78.612" y2="677.5" gradientTransform="translate(352.334 -366.34)"><stop offset="0" style="stop-color:#000"/><stop offset="1" style="stop-color:#fff"/></linearGradient><path style="fill:url(#SVGID_16_)" d="M226 172.1h156.7v138.2H226z"/></g></mask><path d="M277.4 239.1c-7.3-17.6-2.5-37.8 11.9-50.2l-9-16.8c-32.4 7.2-50.6 11.9-54.4 14.2 13.3 5.2 23.5 16 28 29.6 4.4 13.5 2.6 28.4-5 40.4-4.5 36-6.8 54.1-6.8 54.1s23.9-1.2 71.6-3.5c14.5 2.8 37.4-.2 68.9-9.1-16.4-51.6-84.7-9.4-105.2-58.7z" style="mask:url(#SVGID_15_);fill-rule:evenodd;clip-rule:evenodd;fill:#4c0bb2"/><defs><filter id="Adobe_OpacityMaskFilter_8_" filterUnits="userSpaceOnUse" x="220.9" y="328.4" width="171.8" height="131.5"><feColorMatrix values="1 0 0 0 0 0 1 0 0 0 0 0 1 0 0 0 0 0 1 0"/></filter></defs><mask maskUnits="userSpaceOnUse" x="220.9" y="328.4" width="171.8" height="131.5" id="SVGID_17_"><g style="filter:url(#Adobe_OpacityMaskFilter_8_)"><linearGradient id="SVGID_18_" gradientUnits="userSpaceOnUse" x1="-.417" y1="668.812" x2="-61.504" y2="591.693" gradientTransform="translate(347.49 -223.839)"><stop offset="0" style="stop-color:#000"/><stop offset="1" style="stop-color:#fff"/></linearGradient><path style="fill:url(#SVGID_18_)" d="M220.9 328.4h171.8v131.5H220.9z"/></g></mask><path d="M324.6 344.2c.3.9 0 1.9-1 3-40.4 14-74.6 25.3-102.7 34 0 0 3 23.1 8.9 69.3 17.6 3.6 34.4 6.7 50.3 9.3 28.2-13.8 24.5-38.4 29.9-60 8-31.8 43.3-45.8 70.7-28.4.3-8.1 2.9-15.8 7.6-22.4 2.9-12.3 4.3-18.5 4.3-18.5-38-5.3-60.7-.7-68 13.7z" style="mask:url(#SVGID_17_);fill-rule:evenodd;clip-rule:evenodd;fill:#4c0bb2"/><path class="st51" d="m380.5 268-28.2 17-27.1-18.7c-.4-.2-.8-.3-1.2 0l-28.1 17-27-18.6c-.4-.2-.8-.3-1.2 0l-22.8 13.7c.2.9.3 1.8.3 2.7l23-13.9 27 18.6c.4.2.8.3 1.2 0l28.1-17 27 18.6c.4.3.9.3 1.3 0l28.1-17L402 285c.2-.9.5-1.7.8-2.5L381.7 268c-.4-.2-.9-.2-1.2 0z"/><path class="st51" d="m380.9 252.4-28.2 17-27.1-18.7c-.4-.2-.8-.3-1.2 0l-28.1 17-27-18.6c-.4-.2-.8-.3-1.2 0L248 261.2c.1 1 .1 2 0 3l20.7-12.5 27 18.6c.4.2.8.3 1.2 0l28.1-17 27 18.6c.4.3.9.3 1.3 0l28.1-17 23.7 16.3c.3-.8.7-1.5 1.2-2.2L382 252.4c-.3-.2-.8-.2-1.1 0z"/><path class="st51" d="m383.1 237.3-28.2 17-27.1-18.7c-.4-.2-.8-.3-1.2 0l-28.1 17-27-18.6c-.4-.2-.8-.3-1.2 0l-15.9 9.6c0 1-.1 2.1-.3 3.1l16.7-10.1 27 18.6c.4.2.8.3 1.2 0l28.1-17 27 18.6c.4.3.9.3 1.3 0l28.1-17L410 258c.3-.8.7-1.5 1.2-2.3l-26.8-18.5c-.5-.2-.9-.2-1.3.1z"/><path class="st8" d="M350.7 153.7c-20.7 7.8-42.6 10.1-63.8 7.3-2.3.9-4.6 1.1-7 1.9-3.3 1.2-7.6 2.5-10 3.8 14.1 23.5 41.6 43.2 66 47.1 25.2 4 39.9-10 34.7-33.2.1-.1-6.4-8.5-19.9-26.9z"/><path d="M321.5 116.2c-2.3 13-7.2 25.8-14.8 38.4 0 0-8.9 2.7-26.8 8.2 11.7 20.6 35.9 38.2 57.2 41.6 21.3 3.4 33.6-8.4 29.1-27.9.1 0-14-18.1-44.7-60.3z" style="fill-rule:evenodd;clip-rule:evenodd;fill:#ffbe4f"/><defs><filter id="Adobe_OpacityMaskFilter_9_" filterUnits="userSpaceOnUse" x="321.5" y="120.9" width="45.7" height="84.1"><feColorMatrix values="1 0 0 0 0 0 1 0 0 0 0 0 1 0 0 0 0 0 1 0"/></filter></defs><mask maskUnits="userSpaceOnUse" x="321.5" y="120.9" width="45.7" height="84.1" id="SVGID_19_"><g style="filter:url(#Adobe_OpacityMaskFilter_9_)"><linearGradient id="SVGID_20_" gradientUnits="userSpaceOnUse" x1="-75.827" y1="683.869" x2="-106.412" y2="611.968" gradientTransform="translate(443.297 -466.572)"><stop offset="0" style="stop-color:#000"/><stop offset="1" style="stop-color:#fff"/></linearGradient><path style="fill:url(#SVGID_20_)" d="M321.5 120.9h45.7V205h-45.7z"/></g></mask><path d="M333.8 133c-.7-14.7-4.8-15.9-12.3-3.8.3 47.1.4 70.7.4 70.7 4.9 2.1 10 3.7 15.2 4.5 3.9.7 7.9.8 11.8.2 4.6-.5 8.9-2.4 12.4-5.5 3.1-3 5.1-6.9 5.6-11.2.2-1.3.3-2.6.3-3.8-16.1-19.7-24.1-29.6-24.1-29.6s-3.1-7.1-9.3-21.5z" style="mask:url(#SVGID_19_);fill-rule:evenodd;clip-rule:evenodd;fill:#fc700d"/><defs><filter id="Adobe_OpacityMaskFilter_10_" filterUnits="userSpaceOnUse" x="322.9" y="150.9" width="44.4" height="54.1"><feColorMatrix values="1 0 0 0 0 0 1 0 0 0 0 0 1 0 0 0 0 0 1 0"/></filter></defs><mask maskUnits="userSpaceOnUse" x="322.9" y="150.9" width="44.4" height="54.1" id="SVGID_21_"><g style="filter:url(#Adobe_OpacityMaskFilter_10_)"><linearGradient id="SVGID_22_" gradientUnits="userSpaceOnUse" x1="-65.263" y1="689.759" x2="-112.501" y2="627.423" gradientTransform="translate(444.601 -466.574)"><stop offset="0" style="stop-color:#000"/><stop offset="1" style="stop-color:#fff"/></linearGradient><path style="fill:url(#SVGID_22_)" d="M322.9 150.9h44.4V205h-44.4z"/></g></mask><path d="M367.2 184.2c-21.8-18.6-35.8-28.3-41.9-29.1-.8-1.4-1.7-2.7-2.5-4.2l1.2 4.1c.1.3.2.7.3 1l14.5 48.7c2.5.3 4.7.4 6.8.3 2.1-.1 4.1-.3 6.1-.8 2.1-.5 4.1-1.3 5.9-2.3 2.2-1.3 3.9-2.7 5-4 .2-.3.4-.5.6-.8.1-.1.1-.2.2-.2.3-.3.5-.7.7-1 2.2-3.5 3.3-7.6 3.1-11.7z" style="mask:url(#SVGID_21_);fill-rule:evenodd;clip-rule:evenodd;fill:#db2f00"/><path class="st59" d="M379.1 76.7c-14-5.4-29.8-2.4-40.9 7.7-11.1 10.1-15.5 25.6-11.4 40.1-6.8 9.7-6.4 22.7-1.3 34.4 9.1 20.6 40.2 39.2 49.6 16.1 3.8-5.2 11-12.2 15.8-18.7 3-4 5-7.8 4.9-11 .1-4.5 4-8.3 7.3-12.7 4.2-5.6 7.5-12.3 1.1-22.7-1.3-14.9-11.1-27.8-25.1-33.2z"/><defs><filter id="Adobe_OpacityMaskFilter_11_" filterUnits="userSpaceOnUse" x="359.6" y="89.9" width="48.3" height="95.7"><feColorMatrix values="1 0 0 0 0 0 1 0 0 0 0 0 1 0 0 0 0 0 1 0"/></filter></defs><mask maskUnits="userSpaceOnUse" x="359.6" y="89.9" width="48.3" height="95.7" id="SVGID_23_"><g style="filter:url(#Adobe_OpacityMaskFilter_11_)"><linearGradient id="SVGID_24_" gradientUnits="userSpaceOnUse" x1="-129.926" y1="625.943" x2="-75.265" y2="620.924" gradientTransform="translate(479.557 -485.036)"><stop offset="0" style="stop-color:#000"/><stop offset="1" style="stop-color:#fff"/></linearGradient><path style="fill:url(#SVGID_24_)" d="M359.6 89.9h48.3v95.7h-48.3z"/></g></mask><path d="M396.6 89.9c.4 3.8.6 7.8.6 11.7 0 33.4-14.5 63.4-37.6 84 6.6.3 12.4-2.7 15.6-10.6 3.8-5.2 11-12.2 15.8-18.7 3-4 5-7.8 4.9-11 .1-4.5 4-8.3 7.3-12.7 4.2-5.6 7.5-12.3 1.1-22.7-.7-7.4-3.4-14.3-7.7-20z" style="mask:url(#SVGID_23_);fill-rule:evenodd;clip-rule:evenodd;fill:#ffe4ab"/><defs><filter id="Adobe_OpacityMaskFilter_12_" filterUnits="userSpaceOnUse" x="325.8" y="86.2" width="60.7" height="75.8"><feColorMatrix values="1 0 0 0 0 0 1 0 0 0 0 0 1 0 0 0 0 0 1 0"/></filter></defs><mask maskUnits="userSpaceOnUse" x="325.8" y="86.2" width="60.7" height="75.8" id="SVGID_25_"><g style="filter:url(#Adobe_OpacityMaskFilter_12_)"><linearGradient id="SVGID_26_" gradientUnits="userSpaceOnUse" x1="-81.691" y1="669.39" x2="-97.987" y2="604.954" gradientTransform="translate(447.4 -507.538)"><stop offset="0" style="stop-color:#000"/><stop offset="1" style="stop-color:#fff"/></linearGradient><path style="fill:url(#SVGID_26_)" d="M325.8 86.2h60.7V162h-60.7z"/></g></mask><path d="M344.8 89.5c-14.8 7.1-22.1 24-17.2 39.6-3.3 11.4-2.1 22.4 3.6 32.9 2.6-12.9 16.7-10.4 22.8-19.2 4.5-6.6 2.3-13.7 1.7-20.6-1.1-13.6 10.6-23.3 23.1-18.5 5.1-1.9 7.6-2.8 7.6-2.8-9-13.7-26.8-18.5-41.6-11.4z" style="mask:url(#SVGID_25_);fill-rule:evenodd;clip-rule:evenodd;fill:#fc700d"/><defs><filter id="Adobe_OpacityMaskFilter_13_" filterUnits="userSpaceOnUse" x="329.2" y="111.2" width="38.9" height="38.5"><feColorMatrix values="1 0 0 0 0 0 1 0 0 0 0 0 1 0 0 0 0 0 1 0"/></filter></defs><mask maskUnits="userSpaceOnUse" x="329.2" y="111.2" width="38.9" height="38.5" id="SVGID_27_"><g style="filter:url(#Adobe_OpacityMaskFilter_13_)"><linearGradient id="SVGID_28_" gradientUnits="userSpaceOnUse" x1="-75.825" y1="686.222" x2="-116.396" y2="629.577" gradientTransform="translate(450.578 -519.256)"><stop offset="0" style="stop-color:#000"/><stop offset="1" style="stop-color:#fff"/></linearGradient><path style="fill:url(#SVGID_28_)" d="M329.2 111.2h38.9v38.5h-38.9z"/></g></mask><path d="M357.4 142.4c-2.5-3.5-3.2-7.9-2.1-12-15.5-12.8-23.3-19.2-23.3-19.2-1.9 6.1-2.9 9.1-2.9 9.1s5.3 4.3 15.9 13c.1 5.5 2.9 10.6 7.5 13.6s10.4 3.7 15.5 1.6c-4.2-.3-8.1-2.6-10.6-6.1z" style="mask:url(#SVGID_27_);fill-rule:evenodd;clip-rule:evenodd;fill:#db2f00"/><path d="M372 53.3c12.8-7.2-23-21.2-37.7 2.1-17.9 7.3-26 36.8-15.7 50.6 5.2 2.7 13.1 8.9 14.9 14.1-.6-10.4 15.8-3.8 20.2-13 3.4-7-.3-25.9 11.6-14.8 78.8 73 83.2-32.6 6.7-39z" style="fill-rule:evenodd;clip-rule:evenodd;fill:#522205"/><defs><filter id="Adobe_OpacityMaskFilter_14_" filterUnits="userSpaceOnUse" x="314" y="42.5" width="55.4" height="77.7"><feColorMatrix values="1 0 0 0 0 0 1 0 0 0 0 0 1 0 0 0 0 0 1 0"/></filter></defs><mask maskUnits="userSpaceOnUse" x="314" y="42.5" width="55.4" height="77.7" id="SVGID_29_"><g style="filter:url(#Adobe_OpacityMaskFilter_14_)"><linearGradient id="SVGID_30_" gradientUnits="userSpaceOnUse" x1="-62.813" y1="582.112" x2="-109.085" y2="650.244" gradientTransform="translate(436.142 -547.423)"><stop offset="0" style="stop-color:#000"/><stop offset="1" style="stop-color:#fff"/></linearGradient><path style="fill:url(#SVGID_30_)" d="M314 42.5h55.4v77.7H314z"/></g></mask><path d="M334.2 55.4c-17.9 7.3-26 36.8-15.7 50.6 5.2 2.7 13.1 8.9 14.9 14.1-.6-10.4 15.8-3.8 20.2-13 .8-1.7 1.2-4.1 1.5-6.7-1.5-5.1-2.3-10.5-2.3-16.1 0-15.5 6.3-29.6 16.5-39.8-8.7-3.7-25.9-3.6-35.1 10.9z" style="mask:url(#SVGID_29_);fill-rule:evenodd;clip-rule:evenodd;fill:#331101"/><path class="st73" d="M382 121.7c-3.2-2.1-6.8-3.3-10.6-3.8-3.7-.5-7.5-.1-11.2 1.1-.7.2-1.1 1-.9 1.8.2.7 1 1.1 1.8.9 3.2-1.1 6.6-1.4 9.9-1 3.3.4 6.5 1.5 9.4 3.4.7.4 1.5.2 1.9-.4.5-.8.3-1.6-.3-2zM398.7 127.7c-2.2-1-4.7-1.5-7.2-1.5-.8 0-1.4.7-1.4 1.4 0 .8.7 1.4 1.4 1.4 2.1 0 4.1.4 6 1.2 1.9.8 3.5 2.1 4.9 3.6.5.6 1.4.6 2 .1.6-.5.6-1.4.1-2-1.6-1.8-3.6-3.2-5.8-4.2z"/><path class="st74" d="M369.6 130.4c-1.2 0-2.1 1-2.1 2.1 0 1.2 1 2.1 2.1 2.1 1.2 0 2.1-1 2.1-2.1 0-1.2-.9-2.1-2.1-2.1zM393.7 138.3c-1 0-1.9.8-1.9 1.9 0 1 .8 1.9 1.9 1.9 1 0 1.9-.8 1.9-1.9 0-1.1-.9-1.9-1.9-1.9z"/><path class="st51" d="M395.9 130.1c-3.4-.2-6.7 1-9.2 3.3-2.5 2.2-4.2 5.4-4.7 8.9-.4 3.6.6 6.9 2.5 9.4 2 2.5 4.9 4.2 8.3 4.4 3.4.2 6.7-1 9.2-3.3 2.5-2.2 4.2-5.4 4.7-8.9.4-3.6-.6-6.9-2.5-9.4-2-2.5-4.9-4.1-8.3-4.4zm8.9 13.7c-.4 3.1-1.9 5.8-4 7.7-2.1 1.9-4.9 2.9-7.8 2.8-2.9-.2-5.3-1.6-7-3.7-1.7-2.1-2.5-5-2.2-8.1.4-3.1 1.9-5.8 4-7.7 2.1-1.9 4.9-2.9 7.8-2.8 2.9.2 5.3 1.6 7 3.7 1.7 2.2 2.6 5.1 2.2 8.1z"/><path class="st75" d="M384.1 133.2s-1 3.6-2.9 10.8c-.9-1.9-2.9-3.1-5.1-2.9-2.1.2-3.9 1.7-4.5 3.7-.6 2.1.2 4.2 2 5.5 2.1.4 3.8 2 4.4 4 19.7 13.2 11.3-20.8 9.5-23.9-.9-1.9-2.1-1.6-3.4 2.8z"/><path class="st51" d="M386.8 136.8c-1.4 0-3.1.4-5.1 1.1.3-1.1.4-2.3.4-3.5 0-3.9-1.6-7.4-4.1-10-2.5-2.5-6.1-4.1-10-4.1-3.9 0-7.4 1.6-10 4.1-1.3 1.3-2.3 2.8-3 4.4l-31.7-27c-.3-.2-.7-.3-1-.2l-15.6 6.5c-.5.2-.7.7-.5 1.2.2.5.7.7 1.2.5l15-6.3 31.8 27.1c-.3 1.2-.5 2.4-.5 3.6 0 3.9 1.6 7.4 4.1 10 2.5 2.5 6.1 4.1 10 4.1 3.9 0 7.4-1.6 10-4.1 1.2-1.2 2.2-2.6 2.9-4.2h.1c2.4-1 4.3-1.5 5.9-1.5 1.3 0 2.3.3 2.9 1 .3.4.9.4 1.3.1.4-.3.4-.9.1-1.3-.8-1.1-2.2-1.6-4.2-1.5zm-10.1 6.3c-2.2 2.2-5.3 3.6-8.6 3.6-3.4 0-6.4-1.4-8.6-3.6-2.2-2.2-3.6-5.3-3.6-8.6 0-3.4 1.4-6.4 3.6-8.6 2.2-2.2 5.3-3.6 8.6-3.6 3.4 0 6.4 1.4 8.6 3.6 2.2 2.2 3.6 5.3 3.6 8.6s-1.4 6.4-3.6 8.6z"/><path class="st8" d="M375.7 128c-1.3 0-2.3 1-2.3 2.3 0 1.3 1 2.3 2.3 2.3 1.3 0 2.3-1 2.3-2.3 0-1.3-1-2.3-2.3-2.3zM398.6 135.5c-1.1 0-2 .9-2 2s.9 2 2 2 2-.9 2-2c-.1-1.1-.9-2-2-2z"/><path class="st59" d="M321.7 97.6c-6.2-.1-10.6 6.9-9.8 15.8.7 8.9 6.3 16.2 12.4 16.3 6.2.1 10.6-6.9 9.8-15.8-.7-8.8-6.2-16.1-12.4-16.3z"/><path class="st75" d="M320.9 103.9c-3.8-.1-6.5 4.2-6 9.7.4 5.4 3.9 9.9 7.6 10 3.8.1 6.5-4.2 6-9.7-.4-5.4-3.8-9.9-7.6-10z"/><path d="M323.9 107.3c-2.2-.1-3.8 2.5-3.5 5.6.3 3.2 2.2 5.8 4.4 5.8 2.2.1 3.8-2.5 3.5-5.6-.2-3.1-2.2-5.7-4.4-5.8z" style="fill-rule:evenodd;clip-rule:evenodd;fill:#db2f00"/><defs><filter id="Adobe_OpacityMaskFilter_15_" filterUnits="userSpaceOnUse" x="388.1" y="56.4" width="38.9" height="61.5"><feColorMatrix values="1 0 0 0 0 0 1 0 0 0 0 0 1 0 0 0 0 0 1 0"/></filter></defs><mask maskUnits="userSpaceOnUse" x="388.1" y="56.4" width="38.9" height="61.5" id="SVGID_31_"><g style="filter:url(#Adobe_OpacityMaskFilter_15_)"><linearGradient id="SVGID_32_" gradientUnits="userSpaceOnUse" x1="-132.045" y1="621.528" x2="-65.666" y2="652.113" gradientTransform="translate(506.675 -549.545)"><stop offset="0" style="stop-color:#000"/><stop offset="1" style="stop-color:#fff"/></linearGradient><path style="fill:url(#SVGID_32_)" d="M388.1 56.4H427v61.5h-38.9z"/></g></mask><path d="M388.1 56.4c12 10.3 19.6 25.6 19.6 42.7 0 6.3-1 12.4-3 18.1 34.1 7.7 29.3-46.5-16.6-60.8z" style="mask:url(#SVGID_31_);fill-rule:evenodd;clip-rule:evenodd;fill:#8a4419"/><path class="st80" d="M380.5 161.7c-3.2 1.2-6.7 1.1-9.8-.1-3.1-1.2-5.7-3.6-7.4-6.7-.3-.6-1-.8-1.6-.5-.6.3-.8 1-.5 1.6 1.9 3.7 5 6.4 8.6 7.9 3.6 1.5 7.7 1.6 11.5.2.6-.2.9-.9.7-1.6-.2-.7-.9-1-1.5-.8zM373.1 166.6c-1.7.6-3.4.6-5-.1-1.6-.6-2.9-1.8-3.8-3.5-.2-.3-.5-.4-.8-.3-.3.2-.4.5-.3.8 1 1.9 2.6 3.3 4.4 4.1 1.9.7 4 .8 5.9.1.3-.1.5-.5.4-.8-.1-.2-.4-.4-.8-.3z"/><path class="st81" d="M397.7 206.8c-.7-.6-1.7-.5-2.2.1-.6.7-.5 1.7.1 2.2 7.7 7 12.5 16.2 14.1 25.9 1.6 9.7.1 19.9-4.9 29-.1.1-.1.3-.2.5l-14.9 72.2c-.2.9.4 1.7 1.2 1.9.9.2 1.7-.4 1.9-1.2l14.9-72c5.2-9.7 6.9-20.6 5.1-30.9-1.7-10.4-6.9-20.2-15.1-27.7z"/><path d="M401.5 385.6c-3-.3-5.8-1.2-8.3-2.7-2.5-1.5-4.7-3.5-6.4-6-1.7-2.5-2.8-5.2-3.3-8.1-.5-2.9-.3-5.9.5-8.7.2-.8-.3-1.7-1.1-2-.8-.2-1.7.3-2 1.1-.9 3.3-1.1 6.8-.6 10.1.5 3.3 1.8 6.5 3.8 9.4 2 2.8 4.5 5.2 7.4 6.9 2.9 1.7 6.2 2.8 9.6 3.1.9.1 1.6-.6 1.7-1.4.2-.9-.5-1.6-1.3-1.7z" style="fill:#4a0136"/><path class="st59" d="M408.4 313.2c-.1-.1-.2-.1-.2-.2-.1-.2-.3-.4-.5-.5-.1-.1-.2-.1-.2-.2l-.3-.3c-.1-.1-.2-.3-.4-.5l-.6-.6c-.5-.4-1.2-.5-1.9-.3-.2 0-.4 0-.7.1h-9.3c-1.9 0-2.7 2.4-1.2 3.6.2.2.4.3.6.5l-.1-.1c.1.1.3.3.5.4l.2.2c.1.2.3.3.4.5.2.3.4.5.7.7.3.3.8.5 1.3.5h5.1c.2 0 .3 0 .5-.1h1.2c.2 0 .4 0 .5-.1.1 0 .2 0 .3-.1.5-.1.9-.3 1.2-.6l.5.5c.4.4 1.2.7 1.7.7h.1c1.1 0 2-.9 2-2s-.6-1.8-1.4-2.1z"/><path class="st59" d="M415 303.9c-2-3-3-3.4-11-5.9-3.7-1.2-8.6-2.8-14.7-4.7-3.7-.9-7.7-.5-11.2 1.2-4-2.2-9-1.2-11.8 2.3-4.5-1.9-9.8-.4-12.7 3.6-3.1-1.2-6.7-.6-9.2 1.6-7.6 1.1-22.8 2.5-32 3.6-4.2 12 2.2 32.3 12 38.5 5-2.6 14.3-7.6 14.3-7.6 7.1 1.2 14.4-.1 20.7-3.5-.9 1.8-.5 3.9.8 5.3 1.4 1.4 3.5 1.8 5.3 1l6.1-3.4c5.4 3.8 13 1.7 15.8-4.3 1.9 1.7 4.6 2.1 7 1.2 2.4-.9 4.1-3 4.5-5.6 9.7.8 15.5-.4 17.4-3.7 7 3.1 11.5.1 8.6-4.4-2.6-5.1-6.5-10.3-9.9-15.2zm-7.2 13.3h-.1c-.6 0-1.3-.3-1.7-.7l-.5-.5c-.3.3-.7.6-1.2.6-.1 0-.2 0-.3.1-.2 0-.4.1-.5.1h-1.2c-.1 0-.3.1-.5.1h-5.1c-.5 0-.9-.2-1.3-.5-.3-.2-.5-.4-.7-.7-.2-.2-.3-.3-.4-.5l-.3-.2c-.2-.1-.3-.2-.5-.4l.1.1c-.2-.1-.4-.3-.6-.5-1.5-1.2-.6-3.5 1.2-3.6h9.3c.2-.1.4-.1.7-.1.6-.2 1.3-.1 1.9.3.2.2.5.4.6.6.2.2.3.3.4.5l.3.3c.1.1.2.1.2.2.2.1.4.3.5.5.1.1.2.1.2.2.8.3 1.4 1 1.4 1.9.1 1.3-.8 2.2-1.9 2.2z"/><defs><filter id="Adobe_OpacityMaskFilter_16_" filterUnits="userSpaceOnUse" x="311.4" y="308.6" width="50.9" height="33.7"><feColorMatrix values="1 0 0 0 0 0 1 0 0 0 0 0 1 0 0 0 0 0 1 0"/></filter></defs><mask maskUnits="userSpaceOnUse" x="311.4" y="308.6" width="50.9" height="33.7" id="SVGID_33_"><g style="filter:url(#Adobe_OpacityMaskFilter_16_)"><linearGradient id="SVGID_34_" gradientUnits="userSpaceOnUse" x1="-46.33" y1="653.347" x2="-151.578" y2="669.915" gradientTransform="translate(433.648 -335.85)"><stop offset="0" style="stop-color:#000"/><stop offset="1" style="stop-color:#fff"/></linearGradient><path style="fill:url(#SVGID_34_)" d="M311.4 308.6h50.9v33.7h-50.9z"/></g></mask><path d="M351.8 318.7c-13.9 7.9-31.6 3.5-40-10.1-.9 6.1-.3 12.5 1.5 18.4.2.8.5 1.6.8 2.3 2.1 5.5 4.7 9.8 8 12.9 11.2-5.6 16.8-8.3 16.8-8.3 6.7 1.3 13.8.4 21.3-2.9 1.8.4 2.4-.4 1.8-2.5 0 0-3.4-3.2-10.2-9.8z" style="mask:url(#SVGID_33_);fill-rule:evenodd;clip-rule:evenodd;fill:#f55600"/><path class="st86" d="m363.8 329.2-10.4-11.8c-.4-.4-1-.5-1.4-.1-.4.4-.5 1-.1 1.4l9.8 11.1-2.7 2.5c-.4.4-.4 1-.1 1.4.4.4 1 .4 1.4.1l3.5-3.1c.3-.4.3-1.1 0-1.5zM375.7 325.7l-15.8-18.6c-.4-.4-1-.5-1.4-.1-.4.4-.5 1-.1 1.4l15.8 18.5c.9 1.7 1.1 3.2.7 4.5-.4 1.3-1.6 2.5-3.5 3.6-.5.3-.7.9-.4 1.4.3.5.9.7 1.4.4 2.4-1.3 3.9-2.9 4.5-4.7.6-1.9.3-3.9-.9-6.2-.2-.1-.2-.2-.3-.2zM412.1 316.2l-5.2-6.8c-.2-.3-.5-.4-.9-.4l-14.7.7-8.3-11.9c-.3-.5-.9-.6-1.4-.3-.5.3-.6.9-.3 1.4l13.1 18.8v.1l.4.6c0 .1.1.1.2.2 1.2 1.1 2.1 2.4 2.6 3.8s.6 3 .4 4.6c-.1.6.3 1.1.8 1.2.5.1 1.1-.3 1.2-.8.3-1.9.2-3.8-.5-5.6-.5-1.4-1.2-2.6-2.2-3.7 7.2-.6 11.6-.7 13.3-.4l4.9 6.5c.3.4 1 .5 1.4.2.4-.3.5-1 .2-1.4l-5-6.8zm-16.2.1-3.2-4.5 12.9-.7 3.4 4.5c-2.6-.1-7 .1-13.1.7zM385.6 321.2l-14-18.8c-.3-.4-1-.5-1.4-.2-.4.3-.5 1-.2 1.4l14 18.8c0 .1.1.1.1.1 1.5 1.4 2.4 2.9 2.8 4.3.4 1.4.3 2.8-.3 4.3-.2.5 0 1.1.6 1.3.5.2 1.1 0 1.3-.6.8-1.9.9-3.8.4-5.6-.5-1.6-1.6-3.3-3.3-5z"/><path d="M361.1 359.2s23.9.5 71.7 1.6c0 0 31.5-17.8 94.4-53.5-45.8-2.2-68.7-3.2-68.7-3.2-52.8 27-85.2 45.4-97.4 55.1z" style="fill-rule:evenodd;clip-rule:evenodd;fill:#1a1a1a"/><path d="m455.1 301.4-96.2 53.7c-1.1.6-1.5 2.1-.9 3.2s2.1 1.5 3.2.9l96.2-53.7c1.1-.6 1.5-2.1.9-3.2-.7-1.1-2.1-1.5-3.2-.9z" style="fill:#4d4d4d"/><path d="m525.7 303.3-68.3-2.4c-1.3 0-2.4 1-2.4 2.3 0 1.3 1 2.4 2.3 2.4l68.3 2.4c1.3 0 2.4-1 2.4-2.3 0-1.3-1-2.4-2.3-2.4z" style="fill:#666"/><path class="st59" d="M474.7 326.9c-1.2-1.2-3.1-1.5-4.6-.8-1.6.7-2.5 2.3-2.4 4 0 0 .7 3 2 8.9 0 0 .1 4.2.2 12.5 0 0-2.2-1.9-6.7-5.8 0 0-5.8-4.8-14.4-11.9-2-1-4.5-.7-6.1.9-1.6 1.6-2 4-1 6.1 7.4 7.9 11 11.9 11 11.9l6 8.4c-7.3-5.9-10.9-8.8-10.9-8.8L435.2 340c-2-1.1-4.4-.8-6.1.7-1.7 1.5-2.2 3.9-1.4 6 7.6 9.3 11.4 13.9 11.4 13.9 4.8 4.9 7.2 7.3 7.2 7.3-8.1-5.3-12.2-7.9-12.2-7.9-7-7.5-10.5-11.2-10.5-11.2-1.6-1-3.7-1-5.2.1-1.6 1.1-2.3 3-1.9 4.9 5.2 7.3 7.9 11.2 7.9 11.2 2.9 3.5 4.9 5.4 4.9 5.4-.2 4.7 1.9 9.2 5.8 12 3.8 2.8 8.8 3.4 13.2 1.7 3.1-1 5.7-3.1 7.3-5.9 2.5.7 5.2.2 7.2-1.4 2-1.6 3.2-4.1 3-6.7 2.7 0 5.3-1.2 7.2-3.2 1.8-2 2.7-4.8 2.4-7.5 2.6-.1 4.8-1.9 5.3-4.3 0 0-.5-5.8-1.4-17.5.1 0-1.5-3.6-4.6-10.7z"/><path class="st86" d="m446.5 380.2-16.7-10.5c-.4-.3-1-.1-1.3.3-.3.4-.1 1 .3 1.3l16.7 10.5c.4.3 1 .1 1.3-.3.3-.5.2-1-.3-1.3zM434.7 359.4l-9.2-9.8c-.4-.4-.9-.4-1.3 0s-.4.9 0 1.3l9.3 9.9c0 .1.1.1.2.1l16.3 11c.4.3 1 .2 1.3-.3.3-.4.2-1-.3-1.3l-16.3-10.9zM448.3 351.7 437.4 341c-.4-.4-1-.4-1.3 0-.4.4-.4 1 0 1.3L447 353l.1.1 14.6 12c.4.3 1 .3 1.3-.1.3-.4.3-1-.1-1.3l-14.6-12zM470.7 351.1l-.2-12.1v-.2l-1.4-6.3c-.1-.5-.6-.8-1.1-.7-.5.1-.8.6-.7 1.1l1.4 6.2.2 10.3-6.6-5.7-.1-.1-10-8.3c-.4-.3-1-.3-1.3.1-.3.4-.3 1 .1 1.3l10 8.3 9.8 8.4c.4.3 1 .3 1.3-.1.3-.4.3-1-.1-1.3l-1.3-.9z"/><path d="M458.1 309c-1.9.2-3.4 1.2-3.4 2.2 0 1.1 1.5 1.8 3.4 1.6 1.9-.2 3.4-1.2 3.4-2.2 0-1-1.5-1.7-3.4-1.6z" style="fill-rule:evenodd;clip-rule:evenodd;fill:#b3b3b3"/><defs><filter id="Adobe_OpacityMaskFilter_17_" filterUnits="userSpaceOnUse" x="167.3" y="203.5" width="151.4" height="174.7"><feColorMatrix values="1 0 0 0 0 0 1 0 0 0 0 0 1 0 0 0 0 0 1 0"/></filter></defs><mask maskUnits="userSpaceOnUse" x="167.3" y="203.5" width="151.4" height="174.7" id="SVGID_35_"><g style="filter:url(#Adobe_OpacityMaskFilter_17_)"><linearGradient id="SVGID_36_" gradientUnits="userSpaceOnUse" x1="41.005" y1="530.578" x2="-136.481" y2="646.925" gradientTransform="translate(296.405 -301.584)"><stop offset="0" style="stop-color:#000"/><stop offset="1" style="stop-color:#fff"/></linearGradient><path style="fill:url(#SVGID_36_)" d="M167.3 203.5h151.4v174.7H167.3z"/></g></mask><path d="M256.1 335.9c-7.4 2.7-13.8 8.1-21.2 11.8-22.2 10.9-46.3-3.8-49.1-28-3.9-34.3 34-31.9 38.6-76.2 2-19.5-3.7-38.4-15.4-39.9-7.9-1-17.6 9-26.6 35.9-11.1 33.3-16.1 69-15 107.2 1.2 19 8.8 30 24.8 31.4 23.1 2.1 102.1-26.2 126.5-35-1.7-1.6-3.2-3.4-4.4-5.1-26.1 13.8-37.2-10-58.2-2.1z" style="mask:url(#SVGID_35_);fill-rule:evenodd;clip-rule:evenodd;fill:#4c0bb2"/><defs><filter id="Adobe_OpacityMaskFilter_18_" filterUnits="userSpaceOnUse" x="331.4" y="378.7" width="79.8" height="91.9"><feColorMatrix values="1 0 0 0 0 0 1 0 0 0 0 0 1 0 0 0 0 0 1 0"/></filter></defs><mask maskUnits="userSpaceOnUse" x="331.4" y="378.7" width="79.8" height="91.9" id="SVGID_37_"><g style="filter:url(#Adobe_OpacityMaskFilter_18_)"><linearGradient id="SVGID_38_" gradientUnits="userSpaceOnUse" x1="-163.583" y1="677.283" x2="-8.872" y2="603.806" gradientTransform="translate(452.68 -213.543)"><stop offset="0" style="stop-color:#000"/><stop offset="1" style="stop-color:#fff"/></linearGradient><path style="fill:url(#SVGID_38_)" d="M331.4 378.8h79.8v91.9h-79.8z"/></g></mask><path d="M384.1 378.7c-13.2 1-25.1 8.5-31.6 20.1-15.3 27 18.4 59.9-21.1 71.9 36.8.3 63.4-5.1 79.8-16.1-2.8-22.5-6-44.5-9.6-65.8-5.2-1.2-11-4.6-17.5-10.1z" style="mask:url(#SVGID_37_);fill-rule:evenodd;clip-rule:evenodd;fill:#a671f4"/><defs><filter id="Adobe_OpacityMaskFilter_19_" filterUnits="userSpaceOnUse" x="207.9" y="189.2" width="104.1" height="141.8"><feColorMatrix values="1 0 0 0 0 0 1 0 0 0 0 0 1 0 0 0 0 0 1 0"/></filter></defs><mask maskUnits="userSpaceOnUse" x="207.9" y="189.2" width="104.1" height="141.8" id="SVGID_39_"><g style="filter:url(#Adobe_OpacityMaskFilter_19_)"><linearGradient id="SVGID_40_" gradientUnits="userSpaceOnUse" x1="-184.623" y1="575.388" x2="-46.984" y2="614.709" gradientTransform="translate(335.14 -346.584)"><stop offset="0" style="stop-color:#000"/><stop offset="1" style="stop-color:#fff"/></linearGradient><path style="fill:url(#SVGID_40_)" d="M207.9 189.2H312V331H207.9z"/></g></mask><path d="M242.2 310.3s2.3-18 6.8-54.1c8.2-11.6 10.1-26.5 5.3-39.8-4.8-13.3-15.9-23.5-29.6-27.2-10.6 26.8 27.4 43.4 11.2 74.8-7.6 14.8-24.6 21.7-27.5 36.5-3.7 19.3 15.6 36.6 34.1 28.5 7.2-3.2 14-8.9 22.9-11.1 19.9-4.8 30.1 14.3 46.2.8-.4-3.8-.2-7.6.5-11.4l-69.9 3z" style="mask:url(#SVGID_39_);fill-rule:evenodd;clip-rule:evenodd;fill:#a671f4"/><path class="st81" d="m312.5 304.1-68.8 5.2 6.1-51.4c4.4-6.3 7.2-13.4 8.2-20.8 1-7.5.2-15.3-2.5-22.6-2.7-7.3-7.2-13.7-12.9-18.8-5.7-5-12.6-8.7-20.2-10.5-.9-.2-1.7.3-1.9 1.2-.2.9.3 1.7 1.2 1.9 7.1 1.7 13.5 5.1 18.8 9.8 5.3 4.7 9.5 10.7 12 17.5 2.5 6.8 3.3 14.1 2.4 21.1-.9 7-3.6 13.7-7.8 19.6-.2.2-.3.5-.4.8l-6.3 52.4-6.4.5c-3.8-11.1-11.6-19.8-21.3-24.9-10-5.3-22.1-6.8-33.8-3.2-.8.3-1.3 1.1-1.1 2 .3.8 1.1 1.3 2 1.1 10.9-3.3 22-2 31.3 3 8.8 4.6 15.8 12.4 19.4 22.3l-6.2.5c-5.7-3.6-12.1-5.5-18.6-5.8-6.7-.3-13.4 1.1-19.5 4.3-6.1 3.2-11.1 7.9-14.7 13.6-3.5 5.6-5.6 12.2-5.8 19.1 0 .9.7 1.6 1.5 1.6.9 0 1.6-.7 1.6-1.5.2-6.3 2.1-12.4 5.4-17.5 3.3-5.2 7.9-9.5 13.5-12.4 5.6-2.9 11.8-4.2 17.9-4 6.1.3 12.1 2.1 17.4 5.6.3.2.7.3 1.1.3l17.7-1.3h.1l70.6-5.3c.9-.1 1.5-.8 1.5-1.7.1-1.1-.7-1.8-1.5-1.7zM361.3 420.9c-9.6 3.3-24.2 2.8-43.7-1.7-19.7-4.5-44.4-13.1-74-25.6-.8-.3-1.7 0-2.1.8-.3.8 0 1.7.8 2.1 29.8 12.6 54.6 21.2 74.5 25.7 20.1 4.6 35.3 5.2 45.5 1.6.8-.3 1.3-1.2 1-2-.3-.7-1.2-1.2-2-.9zM381.2 404.6c-13.8 10.2-29 11.9-45.7 4.9-16.6-6.9-34.6-22.3-54-46 15.3-5.1 29-10.2 41.2-15.3.8-.3 1.2-1.3.8-2.1-.3-.8-1.3-1.2-2.1-.8-12.7 5.3-27 10.6-43.1 15.9h-.1c-1.3.4-2.7.9-4.1 1.3-17.8 5.7-37.6 11.4-59.3 17-.8.2-1.4 1.1-1.1 1.9.2.9 1.1 1.4 1.9 1.1 21.8-5.6 41.7-11.3 59.5-17.1 1-.3 2.1-.7 3.1-1 20.1 24.7 38.8 40.7 56 47.9 17.8 7.4 34.1 5.7 48.8-5.3.7-.5.9-1.5.3-2.2-.4-.6-1.4-.7-2.1-.2z"/><path d="M331.3 168.2c6.4 32.8 38.3 35.4 41.7 10.9-9.9 9.6-26.9 6.5-41.7-10.9z" style="fill-rule:evenodd;clip-rule:evenodd;fill:#331101"/><path d="M564.9 447.1h-138c-3 0-5.4 2.4-5.4 5.4 0 3 2.4 5.4 5.4 5.4h138c3 0 5.4-2.4 5.4-5.4 0-3-2.4-5.4-5.4-5.4z" style="fill-rule:evenodd;clip-rule:evenodd;fill:#fdf7ff"/><path class="st14" d="M560.9 447.1H436.2c-3 0-5.4 2.4-5.4 5.4 0 3 2.4 5.4 5.4 5.4h124.7c3 0 5.4-2.4 5.4-5.4 0-3-2.4-5.4-5.4-5.4z"/><path class="st8" d="M713.9 337.9H523.2c-2.2 0-4.6 1.8-5.3 4.1l-32.6 112.8c-.6 2.2.7 4.1 2.9 4.1h190.7c2.2 0 4.6-1.8 5.3-4.1L716.8 342c.6-2.3-.7-4.1-2.9-4.1z"/><path class="st14" d="M714.5 342.1H528.2c-2.1 0-4.3 1.7-5 3.8L491.4 455c-.6 2.1.6 3.8 2.7 3.8h186.3c2.1 0 4.3-1.7 5-3.8l31.9-109.1c.5-2.1-.7-3.8-2.8-3.8z"/><defs><filter id="Adobe_OpacityMaskFilter_20_" filterUnits="userSpaceOnUse" x="497.3" y="346" width="209.7" height="109.7"><feColorMatrix values="1 0 0 0 0 0 1 0 0 0 0 0 1 0 0 0 0 0 1 0"/></filter></defs><mask maskUnits="userSpaceOnUse" x="497.3" y="346" width="209.7" height="109.7" id="SVGID_41_"><g style="filter:url(#Adobe_OpacityMaskFilter_20_)"><linearGradient id="SVGID_42_" gradientUnits="userSpaceOnUse" x1="146.221" y1="604.379" x2="-202.093" y2="659.103" gradientTransform="translate(610.74 -227.823)"><stop offset="0" style="stop-color:#000"/><stop offset="1" style="stop-color:#fff"/></linearGradient><path style="fill:url(#SVGID_42_)" d="M497.3 346H707v109.7H497.3z"/></g></mask><path d="M532.1 346c-2 0-4.1 1.6-4.7 3.6l-30 102.5c-.6 2 .6 3.6 2.5 3.6H517L707.1 346h-175z" style="mask:url(#SVGID_41_);fill-rule:evenodd;clip-rule:evenodd;fill:#8348ab"/><path class="st8" d="M609.3 386.7c-7.1 0-13.7 5.8-14.6 12.9-.9 7.1 4.2 12.9 11.3 12.9s13.7-5.8 14.6-12.9c.9-7.1-4.2-12.9-11.3-12.9z"/><circle transform="rotate(-45.001 118.24 100.312)" class="st25" cx="118.2" cy="100.3" r="72.2"/><circle transform="rotate(-6.5 118.192 100.273)" cx="118.2" cy="100.3" style="fill-rule:evenodd;clip-rule:evenodd;fill:#56217a" r="62.4"/><circle transform="rotate(-45.001 118.24 100.311)" class="st1" cx="118.2" cy="100.3" r="56.3"/><path class="st106" d="M118.2 96.6c-2.1 0-3.7 1.7-3.7 3.7 0 2.1 1.7 3.7 3.7 3.7 2.1 0 3.7-1.7 3.7-3.7.1-2-1.6-3.7-3.7-3.7zM118.2 47.7c-.9 0-1.6.7-1.6 1.6v41.9c0 .9.7 1.6 1.6 1.6.9 0 1.6-.7 1.6-1.6V49.3c0-.9-.7-1.6-1.6-1.6zM116.1 107.8c-.8-.3-1.8.1-2.1.9l-10.5 26.6c-.3.8.1 1.8.9 2.1.8.3 1.8-.1 2.1-.9l10.5-26.6c.4-.8 0-1.8-.9-2.1z"/><path class="st8" d="M211.7 73.5h24.7v44.9h-24.7z"/><path style="fill-rule:evenodd;clip-rule:evenodd;fill:#cfbaf2" d="M214.2 77h19.7v19h-19.7z"/><path class="st13" d="M18.8 408.7h37.6v24.6H18.8z"/><path class="st13" d="M21.9 432.6h37.6v24.6H21.9zM27.2 384.8h37.6v24.6H27.2z"/><path class="st14" d="M54.9 408.7h127.4v24.6H54.9z"/><path class="st13" d="M54.9 420.2h27.7v1.6H54.9z"/><path class="st14" d="M54.9 432.6h127.4v24.6H54.9z"/><path class="st13" d="M54.9 444.1h74.6v1.6H54.9zM54.9 432.2h127.4v1.6H54.9z"/><path class="st14" d="M54.9 384.8h127.4v24.6H54.9z"/><path class="st13" d="M54.9 396.3h74.6v1.6H54.9zM54.9 408.3h127.4v1.6H54.9z"/><path class="st108" d="M22.9 408.3h32v1.6h-32zM25.6 432.2h33v1.6h-33z"/><path class="st8" d="M226 210.3c-1.3-.2-2.6.7-2.9 2-.2 1.3.7 2.6 2 2.9 1.3.2 2.6-.7 2.9-2 .3-1.4-.6-2.7-2-2.9zM265.9 197c-.7-.1-1.3.3-1.4 1-.1.7.3 1.3 1 1.4.7.1 1.3-.3 1.4-1 .1-.7-.3-1.3-1-1.4zM307.8 217.2c-.7-.1-1.3.3-1.4 1-.1.7.3 1.3 1 1.4.7.1 1.3-.3 1.4-1 .1-.7-.3-1.3-1-1.4zM69.8 285.6c-1.3-.2-2.6.7-2.9 2-.2 1.3.7 2.6 2 2.9 1.3.2 2.6-.7 2.9-2 .2-1.4-.7-2.7-2-2.9zM119 421.1c-1.3-.2-2.6.7-2.9 2-.2 1.3.7 2.6 2 2.9 1.3.2 2.6-.7 2.9-2 .2-1.4-.7-2.7-2-2.9zM135.4 408.8c-1-.2-1.9.5-2.1 1.4-.2 1 .5 1.9 1.4 2.1 1 .2 1.9-.5 2.1-1.4.2-1.1-.5-2-1.4-2.1zM152.6 400c-.6-.1-1.2.3-1.3.9-.1.6.3 1.2.9 1.3.6.1 1.2-.3 1.3-.9.1-.6-.3-1.2-.9-1.3zM87.4 391c-.6-.1-1.2.3-1.3.9-.1.6.3 1.2.9 1.3.6.1 1.2-.3 1.3-.9.1-.6-.3-1.1-.9-1.3zM92 460.5c-1.3-.2-2.6.7-2.9 2-.2 1.3.7 2.6 2 2.9 1.3.2 2.6-.7 2.9-2 .2-1.4-.7-2.7-2-2.9zM46.2 446.7c-.8-.1-1.5.4-1.7 1.2-.1.8.4 1.5 1.2 1.7.8.1 1.5-.4 1.7-1.2.1-.8-.4-1.6-1.2-1.7zM326.8 402.2c-.8-.1-1.5.4-1.7 1.2-.1.8.4 1.5 1.2 1.7.8.1 1.5-.4 1.7-1.2.1-.8-.4-1.6-1.2-1.7zM247.6 431.1c-1.3-.2-2.6.7-2.9 2-.2 1.3.7 2.6 2 2.9 1.3.2 2.6-.7 2.9-2 .2-1.4-.7-2.7-2-2.9zM520.8 440.8c-1.3-.2-2.6.7-2.9 2-.2 1.3.7 2.6 2 2.9 1.3.2 2.6-.7 2.9-2s-.7-2.6-2-2.9zM360.9 455c-.9-.2-1.7.4-1.8 1.3-.2.9.4 1.7 1.3 1.8.9.2 1.7-.4 1.8-1.3.2-.9-.4-1.7-1.3-1.8zM678.8 385c-.9-.2-1.7.4-1.8 1.3-.2.9.4 1.7 1.3 1.8.9.2 1.7-.4 1.8-1.3.2-.8-.4-1.6-1.3-1.8zM548.3 380.9c-.6-.1-1.3.3-1.4 1-.1.6.3 1.3 1 1.4.6.1 1.3-.3 1.4-1 .1-.7-.3-1.3-1-1.4zM408.3 331.2c-.6-.1-1.3.3-1.4 1-.1.6.3 1.3 1 1.4.6.1 1.3-.3 1.4-1 .1-.7-.4-1.3-1-1.4zM412.6 293.7c-.9-.2-1.7.4-1.9 1.3-.2.9.4 1.7 1.3 1.9.9.2 1.7-.4 1.9-1.3.2-.9-.4-1.7-1.3-1.9zM406.7 287.4c-.4-.1-.9.2-1 .7-.1.4.2.9.7 1 .4.1.9-.2 1-.7.1-.5-.2-1-.7-1zM423 294.6c-.4-.1-.9.2-1 .7-.1.4.2.9.7 1 .4.1.9-.2 1-.7 0-.5-.3-1-.7-1zM413.1 232.9c-.9-.2-1.7.4-1.9 1.3-.2.9.4 1.7 1.3 1.9.9.2 1.7-.4 1.9-1.3.2-.9-.4-1.7-1.3-1.9zM340.3 315.7c-.9-.2-1.7.4-1.9 1.3-.2.9.4 1.7 1.3 1.9.9.2 1.7-.4 1.9-1.3.2-.8-.4-1.7-1.3-1.9zM658.1 432.5c-1.3-.2-2.6.7-2.9 2-.2 1.3.7 2.6 2 2.9 1.3.2 2.6-.7 2.9-2 .2-1.4-.7-2.7-2-2.9zM518.4 127.4c-.8-.1-1.5.4-1.7 1.2-.1.8.4 1.5 1.2 1.7.8.1 1.5-.4 1.7-1.2.1-.8-.4-1.5-1.2-1.7zM490.6 110.7c-.5-.1-1 .3-1.1.8-.1.5.3 1 .8 1.1.5.1 1-.3 1.1-.8.1-.5-.3-1-.8-1.1zM407.9 99.1c-.8-.1-1.5.4-1.7 1.2-.1.8.4 1.5 1.2 1.7.8.1 1.5-.4 1.7-1.2.1-.8-.4-1.6-1.2-1.7zM703.3 279.7c-.8-.1-1.5.4-1.7 1.2-.1.8.4 1.5 1.2 1.7.8.1 1.5-.4 1.7-1.2.1-.8-.5-1.5-1.2-1.7zM739.7 245c-1-.2-2 .5-2.2 1.5-.2 1 .5 2 1.5 2.2 1 .2 2-.5 2.2-1.5.3-1-.4-2-1.5-2.2zM789.5 313.1c-1-.2-2 .5-2.2 1.5-.2 1 .5 2 1.5 2.2 1 .2 2-.5 2.2-1.5.2-1-.4-2-1.5-2.2zM640.5 136.3c-1-.2-2 .5-2.2 1.5-.2 1 .5 2 1.5 2.2 1 .2 2-.5 2.2-1.5.2-1.1-.5-2.1-1.5-2.2zM922.1 312.2c-1-.2-2 .5-2.2 1.5-.2 1 .5 2 1.5 2.2 1 .2 2-.5 2.2-1.5.2-1-.5-2-1.5-2.2zM836.7 178.6c-1.3-.2-2.6.7-2.9 2-.2 1.3.7 2.6 2 2.9 1.3.2 2.6-.7 2.9-2 .2-1.3-.7-2.6-2-2.9zM859.6 121.8c-.8-.1-1.5.4-1.7 1.2-.1.8.4 1.5 1.2 1.7.8.1 1.5-.4 1.7-1.2.2-.8-.4-1.6-1.2-1.7zM118.7 193.1c-.8-.1-1.5.4-1.7 1.2-.1.8.4 1.5 1.2 1.7.8.1 1.5-.4 1.7-1.2.1-.8-.4-1.5-1.2-1.7zM216.2 45c-1.4-.3-2.8.7-3 2.1-.3 1.4.7 2.8 2.1 3 1.4.3 2.8-.7 3-2.1.2-1.4-.7-2.8-2.1-3zM322 78.2c-.7-.1-1.4.3-1.5 1-.1.7.3 1.4 1 1.5.7.1 1.4-.3 1.5-1 .1-.7-.3-1.4-1-1.5zM711.3 500c-1.3-.2-2.6.7-2.9 2-.2 1.3.7 2.6 2 2.9 1.3.2 2.6-.7 2.9-2 .2-1.3-.7-2.6-2-2.9zM765.2 474.8c-.7-.1-1.3.3-1.4 1-.1.7.3 1.3 1 1.4.7.1 1.3-.3 1.4-1 .1-.6-.3-1.3-1-1.4z"/></svg>