<?xml version="1.0" encoding="iso-8859-1"?>
<!-- Generator: Adobe Illustrator 19.0.0, SVG Export Plug-In . SVG Version: 6.00 Build 0)  -->
<svg version="1.1" id="Layer_1" xmlns="http://www.w3.org/2000/svg" xmlns:xlink="http://www.w3.org/1999/xlink" x="0px" y="0px"
	 viewBox="0 0 508 508" style="enable-background:new 0 0 508 508;" xml:space="preserve">
<circle style="fill:#FFD05B;" cx="254" cy="254" r="254"/>
<path style="fill:#FFFFFF;" d="M118,413.2V94.4c0-7.2,6-13.2,13.2-13.2h200.4v45.6c0,7.2,6,13.2,13.2,13.2H390v273.2
	c0,7.2-6,13.2-13.2,13.2H131.2C124,426.4,118,420.4,118,413.2z"/>
<path style="fill:#E6E9EE;" d="M331.2,81.6h45.6c7.2,0,13.2,6,13.2,13.2v45.6h-45.6c-7.2,0-13.2-6-13.2-13.2L331.2,81.6z"/>
<path style="fill:#CED5E0;" d="M331.2,81.6h45.6c7.2,0,13.2,6,13.2,13.2v45.6L331.2,81.6z"/>
<g>
	<rect x="144.8" y="200.8" style="fill:#E6E9EE;" width="218.4" height="9.6"/>
	<rect x="144.8" y="230.8" style="fill:#E6E9EE;" width="218.4" height="9.6"/>
	<rect x="144.8" y="261.2" style="fill:#E6E9EE;" width="218.4" height="9.6"/>
	<rect x="144.8" y="291.6" style="fill:#E6E9EE;" width="218.4" height="9.6"/>
</g>
<g>
	<rect x="269.2" y="321.6" style="fill:#84DBFF;" width="94" height="9.6"/>
	<rect x="269.2" y="352" style="fill:#84DBFF;" width="94" height="9.6"/>
</g>
<rect x="144.8" y="170.4" style="fill:#E6E9EE;" width="218.4" height="9.6"/>
<rect x="144.8" y="140.4" style="fill:#84DBFF;" width="118.4" height="9.6"/>
<path style="fill:#FF7058;" d="M162.4,331.2c-17.6,17.6-17.6,46,0,63.6s46,17.6,63.6,0s17.6-46,0-63.6S180,313.6,162.4,331.2z
	 M165.6,334.4c13.6-13.6,34.8-15.2,50.4-5.2l-6.4,6.4c-12-6.8-27.6-5.2-38,4.8c-10.4,10.4-12,26-4.8,38l-6.4,6.4
	C150.4,369.2,152,348,165.6,334.4z M170.4,375.2c-5.2-10-3.6-22.8,4.8-30.8c8.4-8.4,20.8-10,30.8-4.8L170.4,375.2z M217.6,350.8
	c5.2,10,3.6,22.8-4.8,30.8c-8.4,8.4-20.8,10-30.8,4.8L217.6,350.8z M222.4,391.2c-13.6,13.6-34.8,15.2-50.4,5.2l6.4-6.4
	c12,6.8,27.6,5.2,38-4.8c10.4-10.4,12-26,4.8-38l6.4-6.4C238,356.4,236,377.6,222.4,391.2z"/>
<g>
</g>
<g>
</g>
<g>
</g>
<g>
</g>
<g>
</g>
<g>
</g>
<g>
</g>
<g>
</g>
<g>
</g>
<g>
</g>
<g>
</g>
<g>
</g>
<g>
</g>
<g>
</g>
<g>
</g>
</svg>
