<svg version="1.1" id="Layer_1" xmlns="http://www.w3.org/2000/svg" x="0" y="0" viewBox="0 0 283.8 324.9" style="enable-background:new 0 0 283.8 324.9" xml:space="preserve"><style>.st0{fill:#f5cfbf}.st2{opacity:.3;fill:#3d6acc;enable-background:new}.st3{fill:#f29d9d}.st6{fill:#8217fd}</style><path class="st0" d="M106.6 296.8c5.7 5.5 12.1 10.9 19.6 13.7 10.5-1 20.9-1.5 30.7-2.6 8.7-4.3 15.7-11 22.4-19.3 12-14.9 20.6-32.5 28.7-50.4-36-9.1-42.5-1.7-47.4-15.8-5.4-15.6-9.2-101-9.2-101l-69.6 7.4s5.1 84.1 4.3 98.3c-.5 8.6-9.5 15.3-22.5 22.9 12.6 17 27.7 32.1 43 46.8z"/><path d="M79.6 237.1C60 252.8 49 252.4 31 265.7S-.4 317.8 0 335.1l283.8-8.6s-10.7-71.2-54.9-83.5c-40.8-11.4-58.8-12.2-58.8-12.2s-25.5 43.9-34.1 44.7-56.4-38.4-56.4-38.4z" style="fill:#0d1d7e"/><path class="st2" d="M201.8 242.1c-.6 25.6-10 85.8-10 85.8l36.5-2.4-26.5-83.4zM146.7 179c3-.3 5.7-.7 8.3-1.4-2.2-29-3.7-56.2-3.7-56.2l-49.8 5.1c4.9 31.2 21.6 54.8 45.2 52.5z"/><circle class="st3" cx="90.4" cy="111.3" r="24"/><circle cx="90.4" cy="111.3" style="fill:#bd422a" r="12.7"/><path class="st0" d="M180.1 102.3c3.2 33.7-6.6 62.6-39 65.4-24.8 2.4-47.5-23-50.7-56.7s2.6-61.8 39-65.4c40-3.9 47.4 23 50.7 56.7z"/><path d="M125.5 93.8c.2 1.9-1.2 3.5-3 3.7-1.9.2-3.5-1.2-3.7-3-.2-1.9 1.2-3.5 3-3.7 1.9-.2 3.6 1.2 3.7 3zM166.8 90.4c.2 1.6-1 3.1-2.7 3.3-1.6.2-3.1-1-3.3-2.7-.2-1.6 1-3.1 2.7-3.3 1.7-.1 3.2 1.1 3.3 2.7z"/><path class="st3" d="M171.1 112.6c.5 5 4.5 8.9 9.3 9.4.5-6.3.4-12.9-.3-19.8 0-.4-.1-.7-.1-1.1-5.5 1-9.5 5.9-8.9 11.5zM133.2 115.9c.6 5.8-3.7 10.9-9.5 11.5s-10.9-3.7-11.5-9.5 3.7-10.9 9.5-11.5c5.8-.5 10.9 3.7 11.5 9.5zM156.8 131.1c.3 2-1.5 3.7-4 3.9s-4.7-1.3-5-3.2c-.3-2 1.5-3.7 4-3.9s4.8 1.3 5 3.2zM150.6 89.9l10 15.1c1.2 1.8.1 4.2-2 4.5l-9.7 1.2 1.7-20.8z"/><path d="m88.9 92.1 1.5 18.8 6.7-.3c-.9-4.6-.7-16.1-.6-19.8l-7.6 1.3z" style="fill:#6b15e5"/><path class="st6" d="M109.1 69.4c1.2-.4 2.4-.8 3.6-1.1 1.2-.2 2.5-.5 3.8-.5 2.6-.2 5.1.1 7.7.6 1.3.4 2.5.7 3.7 1.2l.9.4 1.7.9c.3.2.6.4.8.5 2.2 1.4 4.1 3.2 5.5 5.6.3.5.1 1.1-.4 1.4-.4.2-.8.2-1.1-.1l-.1-.1c-1.7-1.3-3.8-2.5-5.8-3.4s-4.1-1.6-6.3-2.2c-1.1-.2-2.2-.5-3.3-.6-1.1-.2-2.2-.3-3.4-.4-.6-.1-1.1-.1-1.7-.1l-1.7-.1c-1.2 0-2.3 0-3.6-.1h-.1c-.6 0-1-.5-.9-1.1.1-.3.3-.7.7-.8z"/><path class="st6" d="M164.8 55.5c7.5-7.7 7.1-41.9-23.5-45-23.6-2.4-45.4 7.5-56.1 19.6S65.3 50.6 48.8 44.8C32.2 39 15.6 46.8 8 61.5s2.6 31.3 16.3 32.9 19.3-12.5 33.1-5.9C78 98.4 88 97.8 96.8 92.9c11.7-6.6 17.1-15.4 19.7-34.2 0 0 34 1.9 48.3-3.2z"/><path class="st2" d="M88.8 52.5C81 59.5 71.9 68.9 59 66.8c-12.8-2.1-26 4-31.1 11.9-2.6 3.9-4.2 10.1-5.2 15.4.5.1 1 .2 1.6.3C38 96 43.6 81.9 57.4 88.5 78 98.4 88 97.8 96.8 92.9c11.7-6.6 17.1-15.4 19.7-34.2-2.8-13.8-19.8-13.3-27.7-6.2z"/><path class="st6" d="M154.4 85.9c.6-.8 1.4-1.5 2.1-2.3.8-.7 1.6-1.3 2.4-1.9.9-.6 1.8-1.1 2.7-1.6 1-.4 1.9-.9 3-1.2 2.1-.7 4.3-1 6.6-.6.6.1 1.1.2 1.7.4.5.2 1.1.4 1.6.7 1 .6 1.9 1.2 2.7 2.2.3.4.2 1.1-.2 1.4-.3.2-.6.3-.9.1l-.3-.1c-.7-.2-1.6-.5-2.4-.6-.8-.2-1.7-.2-2.5-.2-1.7.1-3.3.4-5 .9-.8.2-1.7.6-2.5.9l-2.5 1.1c-.8.4-1.7.8-2.5 1.2-.9.4-1.7.9-2.6 1.2h-.1c-.5.2-1.1-.1-1.3-.6-.3-.4-.2-.8 0-1z"/><path class="st2" d="M178.2 135.4c-7.5-2.4-18.9-5.8-22-6-4.7-.3-3.9 2.5-3.9 2.5.6 6.1 11.5 14 11.5 14s-9.7 7.7-7.7 13.5c.5 1.4 1.1 2.7 1.6 3.8 10.7-5.5 17.2-15.4 20.5-27.8z"/><path class="st0" d="M152.7 130.8c1.5-3.1 17.1 2.5 26.1 6.2 8.9 3.7 24.9 12.5 42.8 35.3s32.4 68.5 40.5 100.6 10.3 53.4 10.3 53.4l-60.5-.9s-5.4-63.2-11.7-92.8c-6.4-29.6-11.3-43.1-11.3-43.1l-12.6-10.2s1.2 4.4-1.6 5.4c-2.8.9-9.1-7.3-11.9-12.1-2.8-4.8.7-9.4.7-9.4s-2.5-2.5-1.1-5.6c1.3-3.1 2.7-3.2 2.7-3.2s-.9-3.7.7-5.1c1.6-1.5 6.8-3.5 6.8-3.5s-7.5-5.3-12-7.4c-4.7-2.3-9.4-4.6-7.9-7.6z"/><linearGradient id="SVGID_1_" gradientUnits="userSpaceOnUse" x1="170.16" y1="155.457" x2="168.945" y2="141.784" gradientTransform="matrix(1 0 0 -1 0 326)"><stop offset="0" style="stop-color:#f0c3a8"/><stop offset="1" style="stop-color:#fff"/></linearGradient><path d="M174.6 184.7c2.8-.9 1.6-5.4 1.6-5.4-4.5-5.1-10-6.1-11.3-10.4.1 1.7-.8 4.1-2.2 3.6 2.8 4.8 9.1 13.1 11.9 12.2z" style="opacity:.72;fill:url(#SVGID_1_);enable-background:new"/><linearGradient id="SVGID_2_" gradientUnits="userSpaceOnUse" x1="165.109" y1="163.452" x2="168.401" y2="166.909" gradientTransform="matrix(1 0 0 -1 0 326)"><stop offset="0" style="stop-color:#f0c3a8"/><stop offset="1" style="stop-color:#fff"/></linearGradient><path d="M163.3 163.2c2.7-1.5 8.9.4 8.9.4s-.5-4.9-4.3-6c-3.5-1-5.6-.6-5.6-.6s-.8 1.8-.2 4c.2 1.1 1.2 2.2 1.2 2.2z" style="opacity:.72;fill:url(#SVGID_2_);enable-background:new"/><linearGradient id="SVGID_3_" gradientUnits="userSpaceOnUse" x1="168.55" y1="171.208" x2="171.93" y2="174.663" gradientTransform="matrix(1 0 0 -1 0 326)"><stop offset="0" style="stop-color:#f0c3a8"/><stop offset="1" style="stop-color:#fff"/></linearGradient><path d="M164.9 154.4c2.9-1.7 10.4 2 10.4 2s1-5.9-2.6-6.9c-3.7-1-5.6-1.3-5.6-1.3s-2.1.7-2.4 3.4c-.1 1.2.2 2.8.2 2.8z" style="opacity:.72;fill:url(#SVGID_3_);enable-background:new"/><linearGradient id="SVGID_4_" gradientUnits="userSpaceOnUse" x1="166.281" y1="182.757" x2="170.233" y2="191.738" gradientTransform="matrix(1 0 0 -1 0 326)"><stop offset="0" style="stop-color:#f0c3a8"/><stop offset="1" style="stop-color:#fff"/></linearGradient><path d="M152.7 130.8c-1.5 3 3.3 5.3 7.7 7.4 4.5 2.1 12 7.4 12 7.4 5.6.3 10.8 2.5 10.8 2.5s2.7-5.2-2.5-10.3c-.7-.3-1.3-.6-1.9-.8-9-3.7-24.6-9.2-26.1-6.2z" style="opacity:.72;fill:url(#SVGID_4_);enable-background:new"/><path d="M152.4 131.4c1.3.9 2.9 1.7 4 1.4s1.8-2.6 1.8-2.6-1.8-.6-3.8-.4c-2 .3-2 1.6-2 1.6z" style="fill:#f6d5c7"/></svg>