<svg version="1.1" id="Layer_1" xmlns="http://www.w3.org/2000/svg" x="0" y="0" viewBox="0 0 452.6 339.8" style="enable-background:new 0 0 452.6 339.8" xml:space="preserve"><style>.st0{fill:#f5cfbf}.st1{fill:#6512dd}.st2{fill:#ffcb8a}.st5{fill:#0d1d7e}.st6{fill:#f29d9d}.st10{fill:#8217fd}</style><path class="st0" d="M217.8 285.8c-1.5 8.3-8.5 42.8-8.6 49.9-.1 6.1-16.5 3.2-27.7 3.3-14.3.1-21 2.2-20.3-2.8.5-3.3 15.9-2.7 26.9-18.2l5.9-30.1 23.8-2.1z"/><path class="st1" d="M204.4 333.1c-3 .7-16.8-1.4-16.8-1.4s-1.1-3.3-3.9-7.4c-8.8 4.9-24.5 9.2-24.8 13.2-.2 2.6 7.4 2.4 25.4 1.9 11.2-.3 22.5 2 24.4-2.6.4-.8.8-2.5 1.2-4.7-2 .4-4.2.7-5.5 1z"/><path class="st2" d="M209.3 335c-2 4.5-13.3 2.3-24.4 2.6-16.7.5-24.4.7-25.3-1.4-.4.4-.6.9-.6 1.3-.2 2.6 7.4 2.4 25.4 1.9 11.2-.3 22.5 2 24.4-2.6.2-.5.4-1.3.7-2.3-.1.3-.2.4-.2.5z"/><path class="st0" d="M378.6 160.9c-12.2 15.6-38.5 64.4-38.5 64.4s-36.5-65.5-44.7-80.5c-8.2-15-10.7-14.2-10.7-14.2s-9 6.3-3.4 18.2c2 4.2 3.2 9.3 6.1 19.1 3 9.8 20.1 84.8 50.6 89.1 30.5 4.3 69.1-57.3 76.5-68.4 15.4-23.1-15.7-53.5-35.9-27.7z"/><path d="M378.6 160.9c-12.2 15.6-38.5 64.4-38.5 64.4s-36.5-65.5-44.7-80.5c-8.2-15-10.7-14.2-10.7-14.2s-9 6.3-3.4 18.2c2 4.2 3.2 9.3 6.1 19.1 3 9.8 20.1 84.8 50.6 89.1 30.5 4.3 69.1-57.3 76.5-68.4 15.4-23.1-15.7-53.5-35.9-27.7z" style="opacity:.7;fill:#cbc7ff"/><path class="st0" d="M401.4 134.8c-11.6 11.6-32.3 7.8-36.5 5.1-7.5-4.8-8.2-7.2-10.7-14.8 14.3-11.4 15.7-9.9 15.8-16.9.1-7.7-10.9-45.8-10.9-45.8l31.7-7.1s10.2 37.8 12.7 43.9c1.5 3.7 10.1 9.6 13.8 13.9-3.1 9.4-9 14.8-15.9 21.7z"/><path d="M369.6 87.1c-1.3.3-2.6.5-3.9.6-3.3-13.1-6.7-25.3-6.7-25.3l22.7-5.1c2.5 14.4-1.4 27.3-12.1 29.8z" style="opacity:.58;fill:#cbc7ff"/><path class="st0" d="M343.5 58.3c3.6 15.3 12.2 26.6 26.8 23 11.3-2.6 17.5-17.2 13.9-32.5-3.6-15.3-10.3-26.8-26.8-23-18.2 4.3-17.4 17.2-13.9 32.5z"/><path class="st5" d="M389.8 22.2c5.2 6.8 13.1 13.6 1.5 35.1L380 56.2l2.3-24.4 7.5-9.6z"/><path d="M349.5 52c.2.8 1 1.4 1.9 1.2.8-.2 1.4-1 1.2-1.9-.2-.8-1-1.4-1.9-1.2-.9.2-1.4 1.1-1.2 1.9z"/><path class="st6" d="M377.1 61.4c6-1.4 9.7-7.4 8.3-13.4-1.4-6-7.4-9.7-13.4-8.3l5.1 21.7z"/><path d="M375.9 56.2c3.2-.7 5.1-3.9 4.4-7.1-.7-3.2-3.9-5.1-7.1-4.4l2.7 11.5z" style="fill:#bd422a"/><path class="st6" d="M353.2 59.9c.6 2.6 3.2 4.3 5.9 3.6 2.6-.6 4.3-3.2 3.6-5.9-.6-2.6-3.2-4.3-5.9-3.6-2.5.7-4.2 3.3-3.6 5.9zM344.2 52.2l-4.6 10.4c-.5 1.2.4 2.6 1.7 2.5l6.1-.3-3.2-12.6z"/><path class="st5" d="m372.5 42.3 2.1 8.5-3 .9c-.3-2.2-2.1-7.2-2.7-8.8l3.6-.6z"/><path class="st5" d="M342.6 36.5c-4.5-2.3-6.4-11.1 4.3-18.3 9.1-6.1 18-7.5 26.6-6.3 7.6 1.1 11.3 5.1 12 5-.6-1.6-2.7-3.3-2-8.1 1.3-9 14.8-11.4 20.3-6 5.5 5.3 7.7 14.8-.1 20.7-3.5 2.6-11.5.1-14-1.3 0 2 3.5 5 3.4 12.5-.2 12.6-18 10.9-22.6 10-6.1-1.2-10.1-7.2-14.1-15.1.1 0-5.2-.9-13.8 6.9zM355.6 45.5c-.8.3-1.6.6-2.5.8l-2.4.7c-.8.2-1.6.5-2.4.8-.4.1-.8.3-1.2.4l-1.2.5H345.6c-.1 0-.3-.1-.4-.2-.2-.2-.1-.5.1-.7.2-.2.5-.1.7.1-.1-.1-.2-.2-.3-.2h-.2v-.1l.1-.1.2-.2.5-.5c.4-.3.8-.5 1.2-.8.8-.5 1.6-.8 2.5-1.1 1.7-.5 3.5-.7 5.3-.5.3 0 .5.3.4.5.1.4 0 .6-.1.6zM346.1 66s-1.3 20.3 5.9 21.1c11 1.3 21.6-6.5 25.4-9.2 3.4-2.4-.9-19.2-.9-19.2l-1.8-8-3 .9s.9 10.5-6.8 13c-2.8 1-10.9-1.8-18.8 1.4z"/><path d="M347.2 69.5c-.4.1-.9.2-1.3.2 0 .9 0 1.9.1 3 .6 0 1.3 0 2-.2 2.5-.6 4.2-2.2 3.9-3.7-.3-1.5-2.2.1-4.7.7z" style="fill:#fff"/><path class="st1" d="M326.3 254.2c-14-20.5-48.8-78.8-88.4-74.8-41.9 4.3-53.5 139.1-53.5 139.1l31.6 1.4 28.9-94.4 65.9 91.5 45.3-17.4-29.8-45.4z"/><path d="M242.5 199.8c-22.5.7-36.6 91.8-37.1 95.7l1.3.2c0-.2 3.6-23.9 9.9-47.2 8.2-30.7 17.2-47 25.9-47.3h.3c21.6 0 64.8 74.3 65.3 75l1.2-.7c-1.9-3.1-44.5-76.4-66.8-75.7z" style="opacity:.16"/><path class="st0" d="M66.5 332.8c-8.4 1.4-45.5 7.3-51.2 6.5-4.9-.6-5.8-12.1-9.2-22.8-5.4-17.2-7.7-24.4-5.1-24.9 5-1.1 17.6 22.2 25.1 24.1l30.3-4.6 10.1 21.7z"/><path class="st10" d="M412 260.4c-10.1 22.5-23.3 76-71.7 78.7-48.4 2.7-102.3-10.9-141.1-10.1-38.8.8-145 10.9-145 10.9s-2.7-9.3-3.5-19.8c-.8-10.5 0-15.5 0-15.5s97.7-18.3 150-21.4c52.3-3.1 135.3 4.3 135.3 4.3l-29.5-8.5 24-45.3 81.5 26.7z"/><path d="M361.6 294.2c-1.5-.7-5.2-3-9.1-8.3-4.9-6.7-2.5-20.6-2.4-20.8l-1.3-.2c-.1.6-2.5 14.7 2.7 21.8 3.9 5.3 7.6 7.7 9.4 8.6-5.5 6.9-12.5 13.4-21.1 16.9-16.4 6.7-44.6 3.3-77.2-.6-15.8-1.9-32.2-3.9-48.9-4.9-39.5-2.4-86.2 3.4-127.4 8.5-12.5 1.6-24.4 3-35.4 4.2v.7l.1.7c11-1.2 22.9-2.6 35.5-4.2 41.2-5.1 87.9-11 127.2-8.5 16.6 1 33 3 48.8 4.9 32.8 3.9 61.1 7.3 77.9.5 24.6-10 36.6-43.7 36.8-44.1l-1.3-.5c-.3.2-5 13.2-14.3 25.3z" style="opacity:.18"/><path class="st5" d="M354.2 125.1s8.2 15.3 26.2 14.4c18-.9 36.9-26.4 36.9-26.4s47.2 21.4 32.5 79.8c-9.4 37.1-27.1 90.2-27.1 90.2s-54.1 3.6-102.8-29.6l4.5-92.3c.1.2 5.4-18.2 29.8-36.1z"/><path d="m281.2 119.5 14.5.3c1.8 0 3.4 1.1 4.1 2.7l12.3 28.1c.5 1.2-.4 2.5-1.7 2.4l-15.5-.8c-1.4-.1-2.7-1-3.3-2.3l-11.7-28.4c-.6-1 .2-2 1.3-2z" style="fill:#292969"/><path class="st0" d="M404.5 163.6c-12.2 15.6-45.5 67.7-45.5 67.7s-29.6-68.8-37.7-83.8c-8.2-15-17.4-13.3-17.4-13.3l3.1 3.4s-5.7-1.3-5.8.2c-.1 1.5 5.1 2.4 6.5 4.2 0 0-5.2-2.5-6.3-1.3-1 1.3 5 3.3 6.1 4.8 0 0-4.8-2-5.3-.8s2.7 2.6 5 6.7 3.2 9.3 6.1 19.1 10.7 86.8 41.1 91.2c30.5 4.3 78.5-59.3 85.9-70.5 15.5-23-15.6-53.4-35.8-27.6z"/><path class="st6" d="M354.5 261.8c2.4.3 5 .3 7.6-.2 0-.3.1-.7.1-1.1 0-4-3.3-7.3-7.3-7.3-3.7 0-6.7 2.7-7.2 6.2 2 1.3 4.3 2.1 6.8 2.4z"/><path class="st10" d="M17.8 334.1c-1.5-2.7-3.2-16.5-3.2-16.5s2.9-2 6-5.8c-7.1-7.1-15.6-21.1-19.5-20.2-2.6.6-.3 7.8 5.1 24.9 3.4 10.7 4.3 22.2 9.2 22.8.9.1 2.6.1 4.8-.1-.9-1.9-1.8-3.9-2.4-5.1z"/><path class="st2" d="M17.3 339.3c-4.9-.6-5.8-12.1-9.2-22.8-5-15.9-7.3-23.3-5.6-24.7-.5-.2-1-.3-1.5-.2-2.6.6-.3 7.8 5.1 24.9 3.4 10.7 4.3 22.2 9.2 22.8.5.1 1.4.1 2.4 0h-.4z"/></svg>