<svg version="1.1" id="Layer_1" xmlns="http://www.w3.org/2000/svg" x="0" y="0" viewBox="0 0 273 434.7" style="enable-background:new 0 0 273 434.7" xml:space="preserve"><style>.st0{fill:#f5cfbf}.st1{fill:#e34998}</style><path class="st0" d="M19.1 262.4c11-2.3 30.9-3.6 32.9 2.5s-4.3 7.6-4.3 7.6 7.7 2.2 6.8 8.2c-.8 5.6-6 6.2-6 6.2s4.8 3.6 3.1 8.6c-1.4 3.9-8.4 5.3-8.4 5.3s1.9 4.4-2.9 7.1-24.3 2.9-29.2 0c-4.9-2.9 7.3-8.6 21.9-8.1 0 0-27 .5-28.7-6.4-1.4-5.8 28.5-6.9 28.5-6.9s-31.6 1-32.8-5.8c-1.2-6.8 31.8-7.6 31.8-7.6s-21.4.6-22.5-4.4 6.3-5.6 9.8-6.3z"/><path class="st1" d="M3.8 283.8c1.5-.2 3.7-.4 4.6-1.8 1.1-1.7-.4-3.6-2-4.2-1.2-.4-2.5-.5-3.8-.3-1.8.9-2.8 2-2.6 3.3.2 1.3 1.6 2.3 3.5 3.1.2-.1.2-.1.3-.1zM11.1 307.8c1 .6 2.5 1 4.4 1.4 1-.4 1.7-1.2 1.6-2.6-.2-2.5-2.9-2.8-5.3-2.6-2 1.3-2.5 2.8-.7 3.8zM17.2 266.8c-.6-2.7-3.5-2.5-6-2.3-1.4.9-2.3 2.1-1.8 4.1.1.3.2.6.5.9 2.7.7 8.1 1.1 7.3-2.7zM8.9 296.5c1.8-.1 4.2-1.3 3.7-3.5-.5-2.1-3.1-2.6-5.5-2.7-1.9.8-3 1.9-2.7 3.1.3 1.3 1.5 2.3 3.2 3.2.3-.1.8-.1 1.3-.1z"/><path class="st0" d="M19.1 47.5C30.1 49.8 50 51.1 52 45s-4.3-7.6-4.3-7.6 7.7-2.2 6.8-8.2c-.8-5.6-6-6.2-6-6.2s4.8-3.6 3.1-8.6c-1.4-3.9-8.4-5.3-8.4-5.3s1.9-4.4-2.9-7.1S16-.8 11.1 2.1c-4.9 2.9 7.3 8.6 21.9 8 0 0-27-.5-28.7 6.4-1.4 5.8 28.5 6.9 28.5 6.9S1.2 22.4 0 29.2s31.8 7.6 31.8 7.6-21.4-.6-22.5 4.4c-1.1 5.1 6.3 5.6 9.8 6.3z"/><path class="st1" d="M3.8 26.1c1.5.2 3.7.4 4.6 1.8 1.1 1.7-.4 3.6-2 4.2-1.2.4-2.5.5-3.8.3-1.8-.9-2.8-2-2.6-3.3.2-1.3 1.6-2.3 3.5-3.1.2.1.2.1.3.1zM11.1 2.1c1-.6 2.5-1 4.4-1.4 1 .4 1.7 1.2 1.6 2.6-.2 2.5-2.9 2.8-5.3 2.6-2-1.3-2.5-2.8-.7-3.8zM17.2 43.1c-.6 2.7-3.5 2.5-6 2.3-1.4-.9-2.3-2.1-1.8-4.1.1-.3.2-.6.5-.9 2.7-.7 8.1-1.1 7.3 2.7zM8.9 13.4c1.8.1 4.2 1.3 3.7 3.5-.6 2.2-3.2 2.7-5.6 2.8-1.9-.8-3-1.9-2.7-3.1.3-1.3 1.5-2.3 3.2-3.2h1.4z"/></svg>