<svg version="1.1" id="Layer_1" xmlns="http://www.w3.org/2000/svg" x="0" y="0" viewBox="0 0 292.2 248.9" style="enable-background:new 0 0 292.2 248.9" xml:space="preserve"><style>.st0{fill:#f5cfbf}.st1{fill:#f29d9d}.st2{opacity:.3;fill:#3d6acc;enable-background:new}.st3{fill:#8217fd}.st4{fill:#0d232b}</style><path class="st0" d="M186.7 116.4c11.7-1.1 22.1 7.5 23.3 19.2 1.1 11.7-7.5 22.1-19.2 23.3l-4.1-42.5z"/><path class="st1" d="M187.7 126.4c6.2-.6 11.7 3.9 12.3 10.1s-3.9 11.7-10.1 12.3l-2.2-22.4z"/><path class="st0" d="M108.5 159.7c-11.7-.7-20.7-10.8-20-22.6.7-11.7 10.8-20.7 22.6-20l-2.6 42.6z"/><path class="st1" d="M109.1 149.7c-6.2-.4-10.9-5.7-10.5-11.9s5.7-10.9 11.9-10.5l-1.4 22.4z"/><path class="st0" d="M169 2.9c-4.3-4.1-9.3-8.2-15.2-10.5-8.7.1-17.3 0-25.4.2-7.5 2.6-13.6 6.8-19.7 12.2-10.9 9.7-19.1 21.5-26.9 33.5 29.1 8.2 34.9 3.4 37.9 13.4 3.4 11.1.9 70.6.9 70.6l57.8-1.6s1.3-58.7 3-68.5c1-5.9 8.8-10.2 20-14.8C192 25.2 180.6 13.9 169 2.9z"/><ellipse class="st2" cx="150.3" cy="95.9" rx="28.8" ry="23.2"/><path class="st0" d="M191.9 154.6c-.2-29.6.7-72-46-70.6-47.5 1.4-38.7 69.1-38.7 69.1s3.9 39.4 39.1 39.9c35.1.6 45.7-22.7 45.6-38.4z"/><path class="st3" d="M182.3 154.8c-.8.6-1.7 1.2-2.5 1.7l-1.4.7c-.5.2-.9.5-1.4.7-1.9.8-3.9 1.4-6 1.7-1 .1-2.1.2-3.1.1h-.8l-1.6-.2c-.3 0-.5-.1-.8-.2-2.1-.4-4-1.1-5.8-2.5-.3-.2-.3-.6-.1-.8s.4-.3.7-.2h.1c1.7.6 3.6 1 5.5 1.2s3.7.1 5.6-.1c.9-.1 1.9-.3 2.8-.5.5-.1.9-.2 1.4-.3s.9-.3 1.4-.4c.5-.1.9-.3 1.4-.5l1.4-.5c.9-.4 1.8-.8 2.7-1.1h.1c.3-.1.6.1.7.4 0 .4-.1.6-.3.8z"/><circle class="st1" cx="177.3" cy="122.7" r="10.3"/><circle class="st1" cx="120.1" cy="123.2" r="10.3"/><path class="st1" d="m151.6 143.2 2.3-21-11.5.2c-2.2 0-3.5 1.8-2.6 3.2l11.8 17.6z"/><path class="st4" d="M167.7 142.4c0-1.7 1.4-3.1 3.1-3.1 1.7 0 3.1 1.4 3.1 3.1 0 1.7-1.4 3.1-3.1 3.1-1.7 0-3.1-1.4-3.1-3.1z"/><path class="st3" d="M116.9 154.5c.9.3 1.8.7 2.7 1.1l1.4.5c.5.2.9.4 1.4.5s.9.3 1.4.4c.4.2.9.2 1.4.3.9.2 1.8.4 2.8.5 1.9.2 3.7.3 5.6.1 1.9-.2 3.8-.6 5.5-1.2h.1c.3-.1.6 0 .8.3.1.2 0 .5-.2.7-1.7 1.3-3.7 2-5.8 2.5-.3.1-.5.1-.8.2l-1.6.2h-.8c-1.1 0-2.1-.1-3.1-.1-2.1-.3-4.1-.8-6-1.7-.5-.2-.9-.4-1.4-.7l-1.4-.7c-.9-.5-1.7-1.1-2.5-1.7-.3-.2-.3-.6-.1-.8.1-.4.3-.5.6-.4z"/><path class="st1" d="M139 105.7c.8.2 1.5.5 2.3.8l1.1.4c.4.1.7.3 1.1.4.4.1.7.2 1.1.3.4.1.7.2 1.1.3.7.2 1.5.3 2.2.4 1.5.2 3 .2 4.5.1s3-.4 4.4-.8h.1c.3-.1.7.1.8.4s0 .5-.2.7c-1.4 1.2-3 1.8-4.8 2.2-1.7.4-3.5.4-5.2.2-.9-.1-1.7-.3-2.5-.5s-1.6-.5-2.4-.9c-.8-.3-1.5-.8-2.3-1.2-.7-.5-1.4-1-2-1.5-.3-.2-.3-.6-.1-.9.2-.4.5-.5.8-.4z"/><path class="st4" d="M131.4 143c0-1.7-1.4-3.1-3.1-3.1-1.7 0-3.1 1.4-3.1 3.1 0 1.7 1.4 3.1 3.1 3.1 1.7 0 3.1-1.4 3.1-3.1z"/><path class="st2" d="M180.2 177s-27.2-12.2-42.5-9.9C122.4 169.3 121 179 121 179s-7.4-12.2-9.6-22.1c-2.3-9.9-4.3-18.7-4.3-18.7s3.7 58.4 13.6 63.8 53.6-1.1 53.6-1.1l13-10.5 5.4-40.2c-.1-.1-4 16.3-12.5 26.8z"/><path class="st3" d="M188.9 199.4c8.7-17.5 6.6-29.8 6.2-44.4-.2-6-.6-20.4-.6-20.4l-3.8-1.5s2 33.7-9.4 48.2c0 0-11.3-5.1-32.9-4.3-21.4.8-27.5 6-27.5 6s-8.5-11.1-11.3-25.2c-1.9-9.5-3-24-3-24l-3 2.6s.8 20.3.6 40.4c-.2 23 10.9 25.4 17.4 37.8 6.5 12.5 21 18.6 37.8 12.4 16.8-6.4 26.1-20.8 29.5-27.6z"/><path d="M265.2-5.4s-8.8 25.9-48.2 39c-23.1 7.7-31 13.1-31 13.1s-12.4-10.2-38.7-9.5-31 10.2-31 10.2-13.5-2.9-29.6-6.6c-16-3.5-45.2-16.7-55.8-41.1l234.3-5.1z" style="fill:#0d1d7e"/></svg>