<svg xmlns="http://www.w3.org/2000/svg" viewBox="0 0 512 512" style="enable-background:new 0 0 512 512" xml:space="preserve"><path d="M201.5 246.6h-84.1c-24 0-43.4-19.4-43.4-43.4v-84.1c0-24 19.4-43.4 43.4-43.4h84.1c24 0 43.4 19.4 43.4 43.4v84.1c0 24-19.4 43.4-43.4 43.4z" style="fill:#7703fc"/><path d="M394.5 246.6h-84.1c-24 0-43.4-19.4-43.4-43.4v-84.1c0-24 19.4-43.4 43.4-43.4h84.1c24 0 43.4 19.4 43.4 43.4v84.1c0 24-19.4 43.4-43.4 43.4z" style="fill:#f4bd42"/><path d="M394.5 436.2h-84.1c-24 0-43.4-19.4-43.4-43.4v-84.1c0-24 19.4-43.4 43.4-43.4h84.1c24 0 43.4 19.4 43.4 43.4v84.1c0 23.9-19.4 43.4-43.4 43.4z" style="fill:#ef225d"/></svg>