<svg version="1.1" id="Layer_1" xmlns="http://www.w3.org/2000/svg" x="0" y="0" viewBox="0 0 536 448.2" style="enable-background:new 0 0 536 448.2" xml:space="preserve"><style>.st3{fill:#764074}.st5{fill:#e56324}.st7{fill:#f95939}.st8{fill:#b95d38}.st9{fill:#cc492f}.st12{fill:#160e0b}.st13{fill:#fdb897}.st14{fill:#ba9f80}.st15{fill:#150f0c}</style><g style="opacity:.35"><path d="M484.6 448.2H51.4C23 448.2 0 425.2 0 396.8V135.6c0-28.4 23-51.4 51.4-51.4h433.2c28.4 0 51.4 23 51.4 51.4v261.2c0 28.4-23 51.4-51.4 51.4z" style="fill:#d6dce5"/></g><path d="M480.5 448.3c-9.2-28.1-20.3-55.7-33.4-82.3-2-4-3.7-8.1-6.7-11.5l-.4-.4c-1.5-3-3.4-5.8-5.5-8.4-2.3-2.6-5-4.6-7.7-6.8-1.9-1.5-4-2.7-6.2-3.7-2-.9-4.2-1.5-6.2-2.3-5.8-2.2-11.6-4.7-17.4-7-5.6-2.2-10.9-5-16.3-7.5-5.5-2.5-11-5-16.5-7.6-2.5-1.2-5.1-2.2-7.5-3.6-2.5-1.3-5-2.5-7.4-4-2.3-1.5-4.7-2.9-7-4.3-2.3-1.5-4.9-2.4-7.3-3.8-.8-.9-1.6-1.8-2.4-2.6-.9-.8-1.5-2.1-2.8-2.5-.2 0-.5.1-.6.1.8.9 1.7 1.7 2 3 .5 2.5.4 5.1-.3 7.5-.7 2.4-1.2 4.9-2.1 7.2-1.8 4.7-3.5 9.4-5.6 14-2.3 5-4.5 10.1-6.8 15.1-2.7 5.7-5.6 11.2-8.5 16.7-3.9 7.7-7.6 15.5-12 22.9-1.8 2.4-3 5.2-4.2 8-2.7 5.7-5.5 11.3-8.9 16.6-.3.4-.9.4-1.3.6-2.2-1.1-4.5-1.8-6.8-2.6-5.7-2.1-11.3-4.3-16.7-7.1-4.5-2.5-9.3-4.5-13.6-7.4-2.2-1.5-4.5-3-6.6-4.7s-4.3-3.3-6.3-5.1c-1.3-1.2-2.6-2.3-4-3.4-3.6-3.1-6.6-6.8-9.6-10.5-1.7-2.4-3.7-4.7-5.3-7.2-.9-1.3-1.7-2.7-2.7-3.8-1.3-1.4-2.3-3-3.3-4.6-2.7-4.3-4.7-9-6.9-13.5-1.2-2.5-2.2-5.1-3.1-7.7-2.3-6.5-4.9-12.8-6.3-19.6-.4-2.3-1.3-4.5-.9-6.9.2-1.8 1-3.4 1.7-5.1-.1-.1-.4-.3-.5-.4-.4.2-.7.4-1 .8-1.8 2-3.8 3.7-5.6 5.8-.7.8-1.3 1.7-2.1 2.4-2.3 2-4.7 3.9-7 6-2.2 2-4.6 3.8-7 5.5-3.4 2.3-6.7 4.9-10.1 7.2-4.6 3-8.8 6.4-12.8 10.1-2.1 1.9-4.3 3.7-6.4 5.5-4.1 3.1-7.8 6.6-11.9 9.6-2.2 1.9-4.4 3.7-6.5 5.7-2.6 2.2-5.3 4.4-8 6.5-1.9 1.3-3.7 2.7-5.3 4.4-2.6 2.8-5.7 5-8.4 7.6-1.7.8-3.1 2.1-4.3 3.8-8.4 11.8-15.1 24.7-20.2 38.3-1.5 3.9-2.7 7.8-3.9 11.7-2.6 8.3-4.9 16.7-6.6 25.2l417 .1z" style="fill:#38312d"/><path class="st3" d="M256.3 35.3c2.8-.2 5.6-.2 8.4-.2 4.5 0 9.1 0 13.6.2 7.8.2 15.5 2.3 22.5 5.7 3.2 1.4 6 3.4 8.7 5.5 1.2.7 2.4 1.3 3.5 2.2 2.8 2.4 5.5 4.9 7.7 7.9 3 4.1 5.9 8.3 8.1 12.9 1.6 3.3 3.1 6.7 3.9 10.3.6 3.2 1.7 6.2 2.4 9.3 1.3 6.2 1.8 12.5 2.5 18.8.4 6.2 1.6 12.3 1.5 18.5.1 1.4-.1 2.8 0 4.2.4 2.4.2 4.7.1 7.1-.6 4.2-.7 8.5-2.2 12.6-1.7 4.4-3.2 8.9-5.4 13.1-.8 1.6-1.4 3.4-2.4 5-1.1 1.7-2.3 3.4-3.9 4.6-2.1 1.5-4.7 1.9-7.2 2-2.3.2-4.6.2-6.8.1-5.6-.3-11.1.1-16.7.2-7.6.4-15.2 1.8-22.7 2.6-7.9 1.1-15.8 1.6-23.8 2.1-7.2.4-14.4 1.1-21.5 2-5.6.6-11.2 1.1-16.8 1.8-2.6.1-5.4.3-7.9-.6-1.5-.5-2.6-1.7-3.6-2.9-2.9-3.5-4.9-7.6-6.9-11.6-1.7-3.3-3.2-6.7-5-10-1.7-3.2-3.2-6.6-5-9.8-1.1-2.3-2.2-4.7-3.1-7.1-1.2-2.9-2.3-5.8-3.1-8.8-.6-2.3-1.3-4.6-1.7-6.9-.7-4.8-.5-9.7-.1-14.6.4-3.2 1.3-6.4 2.1-9.5 1.2-4.1 2.4-8.1 4.2-11.9 3.1-6.8 7.9-12.6 13.7-17.3 2.9-2.4 5.9-4.8 9.1-6.8 4-2.3 8.3-4.1 12.7-5.4 1.1-3.6 3.2-6.8 5.8-9.5 2.4-2.4 4.5-5.2 7.3-7.2 2.1-1.6 4.5-2.6 6.8-3.7 2.1-1 4.5-1.3 6.7-2.1 2-.7 4.2-.9 6.2-1.4 2.9-.9 5.6-1.2 8.3-1.4z"/><path d="M202.3 271.8c.9-1.1 1.9-2.1 3.2-2.8.4-.3.9 0 1.3 0-.1.7-.1 1.4-.2 2.1 4.6.9 9.1 2.5 13.8 3 7 1 14 2.2 21 2.3 3.3.3 6.6 0 9.9-.1 1.9-.1 3.8 0 5.6-.3 6.5-.4 13-.9 19.4-1.8 7.6-.6 15.1-1.6 22.6-2.7 2.9-.6 5.8-.9 8.8-1.2 1.6 0 3.3-.2 4.9.3 2.2.7 3.4 2.8 5.1 4.2 2.3 1.8 4.2 4 5.8 6.4 1.4 2.2 2.6 4.5 4.2 6.6.6.8 1.3 1.5 1.8 2.3-.2 0-.5.1-.6.1.8.9 1.7 1.7 2 3 .5 2.5.4 5.1-.3 7.5-.7 2.4-1.2 4.9-2.1 7.2-1.8 4.7-3.4 9.5-5.6 14-2.2 5.1-4.5 10.1-6.8 15.1-2.7 5.7-5.6 11.2-8.5 16.7-3.9 7.7-7.6 15.5-12 22.9-1.8 2.4-3 5.2-4.2 8-2.7 5.7-5.5 11.3-8.9 16.6-.3.4-.9.4-1.3.6-2.2-1.1-4.5-1.8-6.8-2.6-5.7-2.1-11.3-4.3-16.7-7.1-4.5-2.5-9.3-4.5-13.6-7.4-2.2-1.5-4.5-3-6.6-4.7s-4.3-3.3-6.3-5.1c-1.3-1.2-2.6-2.3-4-3.4-3.6-3.1-6.6-6.8-9.6-10.5-1.7-2.4-3.7-4.7-5.3-7.2-.9-1.3-1.7-2.6-2.7-3.8-1.3-1.3-2.3-3-3.3-4.6-2.7-4.3-4.7-9-6.9-13.5-1.2-2.5-2.2-5.1-3.1-7.7-2.3-6.5-4.9-12.8-6.3-19.6-.4-2.3-1.3-4.5-.9-6.9.2-1.8 1-3.4 1.7-5.1-.1-.1-.4-.3-.5-.4 3.6-5.8 5.5-12.7 9.5-18.3.7-1 1.7-1.4 2.5-2.1z" style="fill:#fff3db"/><path class="st5" d="M227.7 74.1c1.2-.4 2.4.3 3.6.3 3.7-.1 7.3 1.1 11 1.3 2.4.2 4.6 1.1 6.9 1.6 4.9 1.1 9.7 2.7 14.3 4.6 2.5.9 4.8 2.1 7.1 3.4 2.5 1.3 4.6 3.2 7.1 4.6 2.4 1.5 5.2 2.4 7.8 3.6 4.6 2.4 8.2 6.1 12.7 8.6 1.7.9 3.2 2 4.6 3.3 2.5 2 4.8 4.1 7.2 6.1 2.4 2.6 5 5 7.3 7.7 1.9 2.2 3.5 4.7 5 7.2 1 1.7 1.7 3.6 2.8 5.2-.3.4-.8.1-1.2 0-1.9-.8-3.7-1.7-5.4-2.9-2.1-1.5-4-3.4-6.1-5-4.3-3.2-8.9-6-13.2-9.1-4.9-3.4-9.6-7.2-14.8-10.2-2.6-1.7-5.5-2.9-8.3-4.2-3.8-1.4-7.3-3.3-10.7-5.4-5.2-3.1-10.8-5.3-16.1-8.4-4.6-2.7-9-5.9-13.9-8.2-2.6-1.2-5.5-2.2-7.7-4.1z"/><path d="M224.8 75.3c.9-.6 1.9-1 2.9-1.2 2.2 2 5.1 2.9 7.7 4.2 4.8 2.3 9.2 5.5 13.9 8.2 5.2 3 10.9 5.3 16.1 8.4 3.4 2.1 7 4 10.7 5.4 2.8 1.3 5.7 2.5 8.3 4.2 5.2 3 9.9 6.7 14.8 10.2 4.4 3.1 8.9 6 13.2 9.1 2.1 1.6 3.9 3.5 6.1 5 1.7 1.2 3.5 2.1 5.4 2.9.4.1.8.4 1.2 0 1.4 2 3.6 3.3 5.4 5 1 1 2.6 1.7 2.7 3.3.2 3.2-.1 6.5-.5 9.7-.1.5 0 1.1-.3 1.5-.7.6-.7 1.6-1 2.5-.5 2-.5 4-.7 6-.3 3.5-.4 7-.7 10.4-.2 2.3-.2 4.6-.4 6.9-.3 2.5-.2 5.1-.1 7.6.4 4.9-.4 9.9.1 14.8h.5c-1.3 3.6-2.1 7.3-2.7 11-.6 3.9-1.7 7.6-2.9 11.4-1.8 6.2-4.5 12.1-7.4 17.9-1.4 2.9-3.1 5.5-4.4 8.4 0 0-.2-.4-.2-.5-1.5 2.3-3.1 4.5-4.3 6.9-.9 2.2-2.6 3.9-3.7 5.9-2.5 4.5-5.3 8.8-7.7 13.3-1.6 2.6-3.3 5.3-5.5 7.5-1.9 2.1-4.5 3.5-7.3 4.1-3.5 1.1-7.2 1.3-10.8 1.4-3.8.3-7.6.2-11.3.2-3.2-.2-6.5 0-9.6-.7-3.5-.7-6.7-2-9.9-3.5-3.1-1.6-6.3-3.4-8.7-6.1-3.1-3.4-5.5-7.2-7.9-11.1-3.9-6.5-7.6-13.2-11.4-19.8-1.7-2.6-3.6-5.1-5.6-7.5-1.2-1.6-2.7-3-3.8-4.7-.9-1.4-2-2.7-3.1-4-.4-.4-.8-.9-1.4-.9h-.2c-2-3.4-3.8-6.9-5.2-10.6-.7-2.2-1.6-4.4-1.7-6.7l.2-.2c.5-.6.5-1.4.6-2.1.6-6.5 1.3-13 2.2-19.5.5-4.6 1.4-9.3 1-14-.2-1.8-.3-3.6-1-5.3.3-1.8.7-3.6.9-5.4.2-4.2-.9-8.3-1.5-12.5-.3-3.7-.3-7.6 1.5-10.9 1.6-3.2 3.3-6.5 4.1-10 0 0 .7-.2.9-.3 1.1-2.1 2.1-4.2 2.9-6.5 1.6-3.9 3.4-7.8 3.9-12 .6-3.1.7-6.2 1.1-9.3.5-3.5 1-7.1 2.2-10.5 1.2-3.8 3.1-7.3 5.3-10.6.5-.7 1.1-1.3 1.3-2.1 0-.3.3-.5.5-.6 1.7-1.6 3.5-3 5.3-4.2z" style="fill:#f2844f"/><path class="st5" d="M214.7 84.2c1.3-1.5 2.6-3 4.2-4.2-.2.8-.9 1.4-1.3 2.1-2.2 3.3-4.1 6.8-5.3 10.6-1.2 3.4-1.7 7-2.2 10.5-.5 3.1-.5 6.2-1.1 9.3-.5 4.2-2.3 8.1-3.9 12-.8 2.2-1.8 4.4-2.9 6.5-.2.1-.6.2-.8.3.6-2.5 1.4-4.9 1.8-7.5.8-3.6 1.6-7.3 1.7-11 0-2.9.2-5.7.4-8.6.7-7.6 4.5-14.4 9.4-20z"/><path class="st7" d="M346.1 138.7c2.8-1.1 5.8-2.1 8.9-1.6 3.1.4 6.1 1.9 8 4.4 2.4 2.8 3.6 6.4 3.8 10 0 3.8-.4 7.7-1.4 11.4-1.6 5.8-4.1 11.5-7.6 16.4-1.7 2.4-3.5 4.7-5.6 6.9-2.5 2.7-5.5 4.9-8.5 7.1-1.8 1.4-3.8 2.6-5.7 3.9-2.4 1.5-5.2 2.1-8 2.1h-.5c-.4-4.9.4-9.9-.1-14.8 0-2.5-.2-5.1.1-7.6.2-2.3.1-4.6.4-6.9.4-3.5.4-7 .7-10.4.2-2 .2-4.1.7-6 .3-.8.3-1.8 1-2.5-.1 1.6-.5 3.1-.6 4.7 1.2-4.2 3-8.2 4.9-12.2.2-.5.4-1 1-1.3 2.8-1.5 5.7-2.5 8.5-3.6zM168.1 152.7c2.6-1.8 6-2.5 9.1-1.9 3.9.5 7.9 2.2 10.4 5.3 1.9 2.6 3.1 5.6 4.6 8.5 1 2.6 2.4 5 3.8 7.3.1-.6.1-1.3.2-1.9.7 1.7.8 3.5 1 5.3.4 4.7-.4 9.4-1 14-.9 6.5-1.7 13-2.2 19.5-.1.7 0 1.5-.6 2.1-1.7-.6-3.6-.6-5.2-1.4-3.4-1-6.6-2.8-9.8-4.4-2.2-1.1-4.1-2.8-6-4.5-2.1-2.2-4.1-4.5-5.7-7.1-3.2-4.7-5.8-10-6.6-15.7-.4-5.2-.3-10.6 1.4-15.6 1.2-3.6 3.3-7.3 6.6-9.5z"/><path class="st5" d="M200.3 228.5c.6 0 1 .5 1.4.9 1.1 1.3 2.2 2.6 3.1 4 1.1 1.7 2.6 3.1 3.8 4.7 2 2.4 3.9 4.8 5.6 7.5 3.8 6.6 7.5 13.3 11.4 19.8 2.4 3.9 4.8 7.8 7.9 11.1 2.4 2.6 5.5 4.5 8.7 6.1 3.2 1.5 6.5 2.8 9.9 3.5 3.2.7 6.4.4 9.6.7 3.8 0 7.6.1 11.3-.2 3.6-.1 7.3-.2 10.8-1.4 2.8-.6 5.3-2.1 7.3-4.1 2.2-2.2 3.9-4.8 5.5-7.5 2.4-4.5 5.2-8.8 7.7-13.3 1.1-2.1 2.7-3.8 3.7-5.9 1.3-2.4 2.8-4.7 4.3-6.9 0 .1.1.3.2.4-.4 1.6-.2 3.3-.2 4.9.1 4.2.1 8.3.1 12.5 0 2.5.4 5.1.5 7.6.3 3 .6 6.1 2 8.8.3 2.1-.6 4.2-1.5 6.1-4.2 6.9-7.6 14.3-12.4 20.8-1.4 2.1-2.9 4.3-4.4 6.4-1.8 2.5-3.5 5-5.3 7.5-2.3 2.8-4.2 5.8-6.6 8.5-3.1 3.9-6.4 7.5-9.8 11.2-2.6 3.3-4.2 7.3-5.5 11.3-.4 1.3-.9 2.6-1 4-2.1-4.4-4.5-8.8-7.8-12.4-2.1-2.3-4.3-4.6-6.7-6.6-1.8-1.5-3.6-3-5.3-4.7-1.9-1.7-3.9-3.1-6.1-4.4-2.8-1.6-5.2-3.7-7.8-5.5-2.4-1.9-4.9-3.6-7.1-5.7-2.4-1.9-4.3-4.2-6.6-6.2-2.6-2.4-4.6-5.3-6.9-7.8-2.7-3.2-4.5-7.2-5.8-11.2-.9-3.2-2.1-6.3-2.5-9.6-.2-1.2-.4-2.3-.5-3.5-.4-3.4-1.8-6.6-1.6-10.1.3-2.6.7-5.1.8-7.7 0-5.5-.5-11-1.2-16.5-.4-2.7-.1-5.5-.4-8.2-.2-1.8 0-3.7-.6-5.4-.3-1.3-1.3-2.3-2-3.5zM276.9 201.1c.6-.7 1.2-1.7 2.3-1.5.6 0 .9.8.7 1.3-.3 1-.9 1.9-1.4 2.9-1.2 1.9-3 3.3-4.2 5.1-.8 1.3-1.8 2.5-2.9 3.6-1.2 1.2-2.1 2.7-3.4 3.7-1.6 1.3-3.9 1.8-5.9 1.1-2.4-.7-3.9-3-5.2-5-1-1.6-2.4-3-3.3-4.7-.6-1.2-1.5-2.3-1.7-3.7.3-.6 1-1 1.7-.9.6.2 1.1.5 1.7.7.5.1 1-.2 1.5-.1.4.2.7.6 1.1.9 3.3.4 6.5 1.4 9.8 1.5 1.5.1 2.8-.7 4.2-1.1 1.7-1.1 3.8-2 5-3.8z"/><path class="st5" d="M279 232.7c1.4-.4 2.7-1.2 4.1-1.2-.1 1.2-1.1 1.9-1.8 2.7-1.3 1.3-2 2.9-3.1 4.3-.9 1.3-1.9 2.6-3 3.9-.7.8-1.3 1.9-2.4 2.2-3.5 1.2-7.3 1.1-11 1.6-1.4 0-3.1.6-4.3-.4-.7-.6-1.6-.8-2.1-1.6-1.9-2.3-3.7-4.6-5.8-6.7-1.2-1.2-2.1-2.6-3.5-3.7.1-.1.4-.3.6-.4 2 .2 4 .8 6 1 1.2.1 2.3.4 3.4.6 6.3 1 12.8.3 19-.7 1.5-.3 2.7-1.2 3.9-1.6z"/><path class="st8" d="M284.3 119c-3.9-.4-7.8-.6-11.7-.8-3.2-.1-6.4-.3-9.6-.1-6.2.3-12.4.8-18.3 2.6-2 .7-4.2 1.2-6.1 2.2-1.1.3-2.3.6-3.2 1.5 1.4.1 2.8-.2 4-.9 3.3-.9 6.6-2 10-2.5 8.1-1.4 16.3-1 24.4-1.1 3.6.1 7.2.2 10.8.4 2 0 3.9.5 5.9.2v-.7c-2.1-.3-4.1-.6-6.2-.8z"/><path class="st8" d="M271.3 121.9c-3.8-.1-7.6.3-11.3.6-3.6.3-7.1.8-10.6 1.8-1 .3-2.1.6-2.9 1.3 2.2-.2 4.4-.8 6.6-1.1 6.3-1.1 12.7-1.3 19.1-1.4 5.9 0 11.9.8 17.8 1.4v-.7c-6.3-.9-12.5-1.7-18.7-1.9zM276.9 126.8c-5.7-.6-11.5-.8-17.2-.5-1 0-1.9.2-2.9.5 0 .2.1.5.2.6 6 .3 12.1-.2 18.1.3 1.6.1 3.1.3 4.7.1 0-.2-.1-.5-.1-.7-1-.1-1.9-.2-2.8-.3zM271.1 142.8c0-.3.4-.5.6-.7.1 3.9 1.9 7.4 2.6 11.2-1-.7-1.1-1.9-1.5-3-.8-2.4-2-4.9-1.7-7.5zM258.3 143c1.1 1.3 1.2 3.1 1.5 4.8.2 2.6.2 5.4-.5 7.9-.2 0-.4.1-.6.1.5-2.5.7-5 .4-7.5-.2-1.8-.8-3.5-.8-5.3z"/><path class="st9" d="M340.7 151.5c2.2-1.7 4.9-2.8 7.7-3.1 2.4-.3 5.1.3 6.6 2.2 1.7 2.2 1.5 5.3.8 7.8-.2.2-.3.4-.5.6.1-1.6.4-3.2 0-4.8-.3-1.6-1.2-3.2-2.8-3.8-2.9-1.2-6.2-.2-9 1-2 .8-3.5 2.4-5.4 3.4.3-1.4 1.5-2.5 2.6-3.3z"/><path class="st3" d="M322.1 155.4c-2.2-.3-4.3-1.4-6.6-1.5-2.1-.1-4.2-.6-6.3-.7-3-.2-5.8-1.2-8.8-1.1-2.9-.1-5.9 0-8.8.1-2.3.2-4.6.7-6.9 1-1.3.1-2.7 0-4 .2-1.5-.4-2.5-1.6-3.5-2.7-1.2-1.2-2-2.9-1.3-4.6 1 .9 1.6 2.1 2.3 3.2-.9-1.7-1.4-3.5-1.2-5.4.2 0 .5 0 .7.1.6 1.9 1.2 3.9 1.9 5.8.1-.1.2-.3.2-.5-1.1-2.4-1.2-5.1-1.1-7.6.6-1.9 2.4-3.1 4.4-3.3s4-.4 6-.3c3.4.2 6.6 1 9.9 1.9 3.7 1.1 7.6 2 10.6 4.4 2.4.9 4.3 2.5 6.3 4 .9.2 1.6.8 2.3 1.4v.8c-.9-.3-1.8-.7-2.6-1.1-1.6-.3-3.2-.4-4.8-.4 2.4.2 4.8.8 6.9 2l.2-.1c1 .5 1.9 1.1 2.6 2-.8.1-1.4-.3-2.1-.6-1-.5-2-.6-3.1-.8-1.2-.3-2.4-.5-3.7-.5 1.7.4 3.3 1.2 5 1.7 1.8.7 3.9 1.3 5.5 2.6zm-67-10.1c-.1.8-.2 1.5-.2 2.3-.3-1.3-.6-2.6-1.3-3.7-.8.4-.9 1.3-1 2.1-1.5-1.2-2.5-2.9-3.6-4.5-.2 0-.6-.1-.8-.1.1 1 .2 2 .1 2.9-1.3-.7-2.7-1.4-4.1-1.8-2.6-.8-5.4-1-8.1-1.1-2.5-.1-5 .3-7.3 1.3-2.2.9-4.4 1.8-6.4 3-2.7 1.5-5.6 2.6-8.1 4.4-1.3 1-2.8 1.8-3.7 3.2.2 0 .6.1.8.1 1.2-.5 2.4-1.2 3.5-1.8-1.5 1.3-2.9 2.7-4.3 4.1-.8.8-1.9 1.5-2.3 2.7 1-.2 1.8-.8 2.7-1.2-.5 1.5-2.1 2.4-2.3 4 1.9-.7 3.6-2.1 5.5-2.9 5.6-2.3 11.7-3.3 17.7-4.2 3.8-.3 7.6-.5 11.4-.1 3.5.2 7 .5 10.5.1.8 0 1.1-.8 1.4-1.4.8-2.2 1.3-4.7.6-7-.3-.2-.6-.3-.7-.4z"/><path class="st9" d="M355.4 154.3c.4 1.6.1 3.2 0 4.8.2-.2.3-.4.5-.6-.3 1.7-1.1 3.4-1.8 4.9-1.7 3.8-4 7.2-6.4 10.6-1.4 1.8-2.8 3.8-4.8 5.1.8-1.3 2-2.1 2.9-3.3 2.4-2.9 4.4-6.1 6.2-9.4 2-3.8 3.4-7.9 3.4-12.1z"/><path d="M258.8 38.6c1.2-.4 2.5-.3 3.7-.3s2.3-.1 3.5.3c2.9 0 5.7.6 8.5 1 5.2.7 10.4 1.8 15.2 3.8 4 1.6 7.8 3.8 11.2 6.4 2.7 2.1 5.4 4.1 7.9 6.4h.2c2 1.8 4.1 3.6 6 5.6.8.8 2 1.4 2.3 2.6-1.2-.7-2.2-1.7-3.2-2.6-2-1.8-4.1-3.5-6-5.4-4.1-3.3-8.2-6.6-12.8-9.2-5.2-2.8-10.9-4.7-16.7-5.8-3.2-.5-6.3-1-9.5-1.6-2.3-.4-4.6-.4-6.9-.8-1.1.2-2.3.1-3.4-.4zM229.7 49c2.5-2.4 5.2-4.5 8-6.5.5-.3 1-.8 1.2-1.3-1.1.4-2.1 1.1-3 1.8-2.8 1.9-5.5 4-7.8 6.5-1.9 1.7-3.6 3.5-5.3 5.3-2 2.1-3.9 4.3-4.8 7.1.2.1.5.1.8.2.4-.5.8-1.1 1.2-1.7 2.5-4.1 5.8-7.6 9.1-10.9.2 0 .4-.3.6-.5zm28-5.1c8.3 0 16.6 1.5 24.4 4.2 6.5 2.1 12.7 5.2 18.5 8.7 4.4 2.8 8.7 5.8 12.5 9.4.8 1 1.8 1.8 2.6 2.8.5.5.9 1.4 1.8 1.2-1.2-1.7-2.6-3.4-4.2-4.9-10.6-9.8-23.7-17-37.7-20.6-3.4-.9-6.9-1.3-10.4-1.8-3.6-.3-7.1-.1-10.7 0-.4.1-1.6.3-1 .9 1.4.3 2.8.2 4.2.1zm-28.3 12.7c4.4-3.5 9-6.8 13.7-9.9 1.1-.8 2.4-1.4 3.3-2.4-.3 0-.6-.1-.8.1-4.4 2.8-8.8 5.5-12.9 8.7-3.4 2.6-7 5.1-9.7 8.5-.8 1-1.8 2.1-1.9 3.6.4-.2.7-.4.9-.8 1.9-3.2 4.6-5.6 7.4-7.8zm13-2c2.7-1.3 5.5-2.7 8.5-3.4 0-.2.1-.5.1-.6-1.2 0-2.3.3-3.4.7-4.9 1.8-9.6 4.2-14 6.9-3.9 2.4-7.9 4.9-11 8.3-.4.2-.2.7-.2 1.1 1.7-1.1 3.1-2.5 4.7-3.7 4.8-3.5 10-6.6 15.3-9.3zm73.1 21.8c-4.7-4.2-9.6-8.1-14.7-11.7-8.4-5.9-17.8-10.3-27.8-12.8-3.1-.7-6.2-1.1-9.4-1.3-1.2-.1-2.3.1-3.5.5 1.8.2 3.6.3 5.5.5 8 1.2 15.8 3.6 23.1 7.2 5.3 2.5 10.1 5.7 14.9 9 4 2.9 7.9 5.9 11.6 9.1.6.5 1.2 1.2 2.1 1.3-.5-.7-1.2-1.2-1.8-1.8zm-74.3-14.3c4.9-1.7 9.9-3.2 15.1-3.6.5-.1.9-.2 1.4-.3-.4-.7-1.3-.5-1.9-.5-6.4.5-12.5 2.4-18.5 4.7-3 1.2-5.9 2.4-8.6 4.2-1.3.9-2.7 1.7-3.6 3.1.8.3 1.4-.4 2-.7 4.2-3.1 9.1-5.1 14.1-6.9zm41.5 4.3c9.9 4.3 19.3 9.6 27.9 16.2v-.9c-7.6-6.3-16.3-11.1-25.1-15.5-5.5-2.7-11.2-4.7-17.2-5.8-1.4-.4-2.8-.8-4.2-.3.8.5 1.8.8 2.7.9 5.4 1.3 10.7 3.1 15.9 5.4zm-26.1.5c2.8.4 5.5 1.1 8.2 1.8 5.5 1.5 10.9 3.1 16.2 5.1.4.1.8.3 1.2.3l-.2.1c1.3.6 2.7 1.1 4.1 1.6s2.7 1.2 4.1 1.5c0-.2-.1-.5-.1-.7-2.3-.9-4.4-2.1-6.8-2.7-6.7-2.8-13.7-5-20.7-6.9-6.1-1.7-12.5-2.1-18.8-1.4-4.5.5-9 1.4-13.2 3.2-1.6.7-3.3 1.3-4.5 2.6 1.3 0 2.4-.7 3.6-1.1 3.4-1.2 6.8-2.2 10.4-2.8 5.5-1 11-1.4 16.5-.6zM327.4 77c1.4 2.6 2.6 5.3 3.7 8 .1.4.5.8.8 1-1.1-4-3-7.8-4.9-11.6-1.1-2.2-2.5-4.4-4.7-5.7-.1.1-.4.2-.6.2.8.9 1.7 1.7 2.5 2.7 1.3 1.7 2.2 3.6 3.2 5.4zm-135.7 27.3c-.3 3-.6 6.1.4 9 .2-.3.5-.5.4-.8-.5-3.4-.1-6.9.4-10.2.8-4.7 1.8-9.4 3.5-13.8 2-5.5 5.2-10.4 9.3-14.6 1.2-1.2 2.5-2.3 4-3.1-.1-.1-.2-.4-.2-.5-2.3.5-3.9 2.3-5.5 3.8-4.6 4.7-7.8 10.7-9.6 17.1-1.2 4.2-2.3 8.6-2.7 13.1zm59.7-32.1c6.6.2 13 1.7 19.3 3.5 6.5 2 12.9 4.4 19.1 7.3 3.2 1.5 6.2 3.3 9.2 5 1.4 1.1 3 1.9 4.5 2.9.8.4 1.5 1.2 2.4.8-1.9-1.5-3.9-2.8-6-4.1-4.4-2.7-8.7-5.4-13.4-7.6-4.6-2.1-9.4-4-14.2-5.6-6.9-2.1-14-3.7-21.2-3.8-2.3-.2-4.5.1-6.8.1-3.3 0-6.6.4-9.9.7-1.4.1-3 0-4.1 1.1 2.2.2 4.4-.1 6.6-.1 1.4 0 2.9-.1 4.3-.2 3.5.1 6.8-.2 10.2 0zm-40.9 2.7c.7-.8 1.7-1.5 2.2-2.5-.5-.4-1.2 0-1.6.3-4 3.5-6.9 8-9 12.8-1.7 3.9-2.6 8-3.5 12.1-.1.6-.2 1.3-.2 2-.2.4-.4.9-.4 1.4-.4 2.8-.8 5.7-.7 8.6 0 .4-.1 1.1.5 1.3.1-1 .1-1.9.2-2.9.1-2.1.6-4.1.7-6.2.6-3 1.2-6.1 2.1-9.1 1.8-6.6 5.1-12.8 9.7-17.8zm-1.6 6.8c-2 2.7-3.3 5.7-4.5 8.8-1.3 3.5-2.5 7.1-3.4 10.8-.4 1.8-.8 3.6-.9 5.4l-.2-.1c-.1 1.2-.2 2.5-.1 3.7h.7c0-1 .1-2 .2-3 .6-4.9 2.2-9.6 3.8-14.3 1-2.8 2.1-5.6 3.7-8.2 2.3-3.8 5.4-7.1 8.9-9.8.6-.6 1.6-1 1.6-2-.6 0-1.2.2-1.7.5-3.2 2.2-5.9 5.1-8.1 8.2zm110.9-4.8c1.4 1.5 2.5 3.1 3.7 4.8 1.9 2.7 3.8 5.4 5.7 8.2.1 0 .4-.1.5-.2-1.7-3.2-3.8-6.1-5.7-9.1-1.4-2.1-2.8-4.2-4.9-5.6-.4-.3-.9-.3-1.3-.3.5.9 1.3 1.5 2 2.2zm-16.2 21.9c-3.8-3.2-7.8-6.1-12-8.8-10-6.6-21.4-11.1-33-14-.9-.2-1.8-.5-2.7-.5-.9-.4-1.8-.5-2.8-.7-1.8-.3-3.7-.8-5.5-.6.1.1.2.4.2.5 2.5.7 5 1.3 7.5 1.6 4.2 1 8.4 2.2 12.5 3.7 5.6 1.9 10.9 4.4 16.1 7.1 9.3 5.1 17.7 11.7 25.6 18.6 4.1 3.6 8.1 7.3 11.5 11.4.4.4.8.8 1.4.8-.3-1-1.1-1.7-1.7-2.4-4.9-6.2-11-11.5-17.1-16.7zm21.7 4.9c.4.4.8.7 1.3 1-.2-.4-.4-.7-.7-1-3.8-3.9-7.6-7.7-11.6-11.4-3.7-3.6-7.6-7.1-11.9-9.9-1.3-.8-2.6-1.7-4.2-1.8 1 1 2.4 1.6 3.5 2.4 8.4 6.3 16 13.5 23.6 20.7zm-12-23.2c-.1.1-.4.2-.5.3 1 1 2 1.9 3 2.9 2.2 2.3 4 4.9 5.9 7.4 1.1 1.6 2.4 3.2 3.4 4.9.2.4.5.7.9 1 0-.7-.3-1.3-.7-1.9-1.4-2.3-2.8-4.5-4.4-6.7-1.4-2-2.7-4-4.5-5.7-.9-.8-1.9-1.7-3.1-2.2zm14.2 15.1c.1 1.5 1.2 2.8 1.8 4.2 2 4.5 4.2 9 5.7 13.7.1.4.4.7.7.9-.2-2.4-1.1-4.6-2-6.8-1.4-3.7-2.8-7.4-4.8-10.8-.4-.5-.9-.9-1.4-1.2zm4.9 34.2h.6c-.4-2.3-1.2-4.6-2.1-6.8-3.6-8.2-8.5-16.1-15.3-22.2-.7-.5-1.5-1.3-2.4-1.1 5.1 5.3 9.8 11 13.5 17.3 2.3 4.1 4.5 8.3 5.7 12.8zm-142.8-19.7c.1 0 .3-.1.4-.2 0-.7-.1-1.4-.2-2.1-.2-1.9.1-3.9 0-5.8.3-1.2.3-2.4.5-3.6 1-6.7 2.7-13.5 6.3-19.4 1.1-1.7 2.1-3.4 3.5-4.7.2-.2.4-.5.5-.8-1.5-.2-2.4 1.3-3.2 2.3-5 5.9-6.5 13.7-7.7 21.1-.2 1.3-.4 2.6-.4 3.9-.5 1-.3 2.1-.3 3.2.1 2.1-.2 4.2.6 6.1zm-12.6 2c.2-2.3.8-4.5 1.2-6.8-.1 0-.4.1-.6.2-1.4 4.7-1.7 9.7-1.6 14.5 0 1.8-.1 3.6.3 5.3.1.6.1 1.4.7 1.8-.1-1.4-.5-2.9-.5-4.3-.2-3.5.1-7.1.5-10.7zm157.7 12.5c.1-1.3-.4-2.6-.8-3.8-1-2.9-2.3-5.7-3.7-8.5-.9-1.8-1.9-3.5-3.2-5-.2-.3-.7-.3-1-.4.2.9.8 1.6 1.3 2.3 1.3 2 2.4 4.1 3.5 6.2 1.2 2.4 2.4 4.8 3.1 7.4.2.7.5 1.3.8 1.8zM181 134.3c.1 0 .4.1.6.2-1.2-4.9-1.2-10-1.1-15 .1-2.1.5-4.1.6-6.2-.2 0-.5.1-.6.2-1.1 4.3-.9 8.8-.6 13.2 0 2.5.3 5.1 1.1 7.6zm16.4-17.6c-.1 1.1 0 2.1-.1 3.2-.2 3.2-.9 6.2-1.5 9.3-.7 2.6-1.2 5.3-2.5 7.7.2 0 .4.1.6.1 1.3-2.2 2-4.8 2.7-7.2.8-3 1.7-6 2-9.1 0-1.5.2-3.2-.5-4.6-.2.1-.5.3-.7.6zm126.7 3.9c0 .7 0 1.3.3 1.9 1.4 3.1 3 6.2 4.9 9 1.1 1.5 2.2 3.1 3.8 4.2-3.8-4.2-6.3-9.4-8.5-14.6-.1-.2-.3-.4-.5-.5zm-138.2 5.2c.5-1.7.5-3.5.8-5.3.2-2.9.6-5.8.1-8.6h-.9c-.2 3.4-.1 6.7-.2 10.1-.4 1.8-.5 3.8-.5 5.7.2 0 .5-.1.6-.2 0-.6.1-1.1.1-1.7zm152 5.9c-.3-2.5-.6-5-1.5-7.3h-.7c.3 1.6.9 3.1 1.1 4.8.5 2.9.9 5.8.9 8.7h.3c.1-2.1.2-4.2-.1-6.2zm-3.9-1.2-.4.4c.4 2.2 1.3 4.2 1.7 6.3.2.7.2 1.5.8 2 .2-2-.5-3.9-1-5.9-.3-1-.5-2-1.1-2.8zm-155.7 3.1c-.1 0-.4-.1-.6-.2-.1 2.3 1.1 4.3 1.8 6.3 1 2.2 1.8 4.5 3.3 6.4 0-.2 0-.5-.1-.7-1.7-3.7-3.4-7.7-4.4-11.8zm12.2 2.4c1-3.5 2.2-7 3.1-10.5.5-1.7.9-3.6.6-5.4h-.9c-.4 2-.7 4-1.2 6-.7 3.1-1.7 6.2-2.2 9.4v-.3c-.4 1.1-.6 2.3-.8 3.4h.7c.3-.8.5-1.7.7-2.6zm-4.7 2.4c.6-.8.8-1.8.9-2.8.4-.8.5-1.8.7-2.7 1.3-4.9 3.1-9.8 2.9-14.9.1-.4-.3-.6-.5-.9-.2.5-.4 1-.4 1.5-.2 2.5-.6 5-1.2 7.4-.6 3.2-1.7 6.3-2 9.5-.4.9-.9 2-.4 2.9zm-.9 2.5c-.1 1.4.3 2.8.7 4.2.7 2.3 1.5 4.5 2.4 6.7.2 0 .5.1.7.1-1.2-3.9-2.7-7.8-3-12-.4.2-.8.5-.8 1zm7.5 12.6c-.1-1.2-.6-2.2-.8-3.3-.7-2.7-1-5.6-1-8.4h-.9c-.3 1-.3 2-.2 3 .3 3 1.1 5.9 2.4 8.6 0-.1.3 0 .5.1zm-1.7 2c.1 1.2.9 2.1 1.4 3.1.9 1.6 1.5 3.4 2.2 5.1.1-.1.3-.2.5-.3-.4-2-1.1-4-2-5.8-.5-.8-.9-2.1-2.1-2.1z" style="fill:#4f2a4d"/><path d="M253.2 157c.1 0 .4.1.5.1 1.4 2.8 2.6 5.8 3 8.9.7 3.7.6 7.5.3 11.3-.3 3.6-1.2 7.1-2 10.6-.9 3.1-1.5 6.4-3.6 8.9h-1c.3-1.1.8-2.2 1.1-3.4-1.3 1-2.5 2.3-3 3.8-.4 1.3.7 2.5 1.7 3.2 1.3.8 2.9 1.1 4.4 1.6 3 .8 6 1.3 9.1 2 2.1.4 4.2.9 6.4.5 1.7-.6 3.2-1.7 4.7-2.6 2.2-1.4 4.7-2.9 5.5-5.6.5-1.4-.5-2.7-.2-4.1.6 0 1.3-.3 1.8.2 1 1.1 1.3 2.8.7 4.2-1 2.4-3.1 4.1-5.2 5.6-1.9 1.2-3.8 2.3-5.9 3.2-1.4.6-3 .5-4.6.5-2.2-.1-4.4-.7-6.6-1-3.2-.4-6.4-1.2-9.4-2.2-1.7-.6-3.2-1.8-3.9-3.5-.7-2.1.6-4.2 2-5.7.9-1.1 2.2-1.8 3.5-2.2 1.6-6.1 3.1-12.4 3.2-18.8.2-3.2-.2-6.4-.9-9.5-.6-2-1.8-3.9-1.6-6z" style="fill:#b95f3b"/><path class="st8" d="M310.7 158.6c2.1-.7 4.2-1.6 6.5-1.6 0 .3-.1.6-.1.8-3 1-6.1 2.1-8.9 3.6-1.5.7-2.7 1.7-4.2 2.3.1-.5.1-1.1.5-1.5 1.6-1.8 4-2.6 6.2-3.6z"/><path class="st12" d="M231.7 157.9c.9-.2 1.8.1 2.3.9.6 1.1.2 2.5 0 3.7-.2 1.1-.5 2.4-1.7 2.9-1.1.6-2.4-.2-2.7-1.3-.4-1.4-.3-2.9.3-4.3.3-.9.9-1.7 1.8-1.9z"/><path class="st8" d="M220.2 159.3c.2-.1.5-.4.6-.5 2 .3 4 1.2 5.7 2.4.4.2.4.7.5 1.2-1.3-.3-2.5-1-3.8-1.3-1-.6-2.3-.8-3-1.8z"/><path class="st12" d="M298.1 159.6c1.1-.2 2.2.4 2.6 1.4.5 1.4.2 2.9-.1 4.3-.3 1.2-.8 2.5-2 3.1-.9.3-2.1.1-2.6-.7-.9-1.3-.9-3-.6-4.5.3-1.5 1.1-3.2 2.7-3.6z"/><path class="st8" d="M214.6 160.1c1.8-.5 3.7.2 5.4.8 2.2 1 4.4 2.2 6.3 3.6v.8c-1.5-.5-2.8-1.3-4.3-1.9-2.4-1.1-4.9-1.7-7.4-2.5.1-.3 0-.7 0-.8zM313.2 161.1c1.2-.6 2.3-1.2 3.6-1.3v.9c-3.5 2.4-7.1 4.7-10.7 6.9-1.5.8-3 2-4.8 2-.1-1 .7-1.6 1.4-2.2 3.2-2.6 6.8-4.5 10.5-6.3z"/><path class="st9" d="M173.7 165.2c2.2-.8 5-.9 6.9.8 2.2 1.8 3.1 4.6 3.7 7.3.4 1.9.9 3.8.9 5.8v2.3c-.1-.6-.3-1.2-.4-1.8-.8-3.7-1.2-7.6-3.4-10.8-1-1.5-2.5-2.8-4.3-2.9-1.6-.1-3.5.2-4.5 1.6-.8 1.1-.9 2.5-1.3 3.8-.1.3-.3.6-.4 1-.1-1.1-.2-2.1-.1-3.2.2-1.7 1.3-3.3 2.9-3.9z"/><path class="st8" d="M220.8 166c1.3.3 2.5.9 3.8 1.3 1.9.6 3.8 1.1 5.7 1.4 3.3.5 6.7 0 10-.5 1.6-.2 3.1-.8 4.6-1-.3.8-1.2.9-1.8 1.2-2.8.9-5.7 1.3-8.6 1.7-2.3.3-4.7 0-7-.6-2-.6-4.1-1.1-5.9-2.3-.4-.3-.6-.7-.8-1.2z"/><path class="st9" d="M170.7 173.2c-.3-1.3-.3-2.8 0-4.1 0 1.1.1 2.1.1 3.2.1-.3.3-.6.4-1v2.2c0-.1-.3-.2-.5-.3z"/><path class="st8" d="M288.4 169.5c1.4.1 2.6 1.1 3.9 1.4 4 1.1 8.1.8 12.2.7 2.2-.1 4.4-.4 6.5-.9 0 .2-.1.5-.1.7-2.5 1.1-5.2 1.2-7.8 1.5-4.3.4-8.8.6-12.7-1.4-.8-.6-1.9-1-2-2zM238.4 171.1c1.5-.3 2.8-.9 4.3-1.1-.4.8-1.3 1-2.1 1.3-3 1-6.2 1.6-9.3 1.8-2.6.2-5.3-.6-7.5-1.9 0-.2-.1-.5-.1-.7 1.6.5 3.1 1.3 4.8 1.5 3.3.3 6.6-.2 9.9-.9z"/><path class="st8" d="M287.7 172.8c1.6.4 3.1 1.2 4.8 1.5 4.5.9 9.1.7 13.6.3 1.2-.1 2.3-.4 3.5-.5-.6.9-1.8.9-2.7 1.2-3.2.5-6.5.7-9.8.7-3.3-.2-7-.7-9.4-3.2z"/><path class="st13" d="M219.1 173.7c1.7-.1 3.3.9 4.9 1.2 4.1 1.1 8.4 1.7 12.6 1.4.4 0 1-.1 1.3.2.2.6-.7.6-1.1.7-3.8.5-7.7.3-11.5-.4-2.2-.5-4.4-1.2-6.3-2.4.2-.1.1-.5.1-.7zM264.4 177c.2-.9.3-2.1 1.4-2.5.1 4.4-.4 8.7-.7 13.1-.2 2.6-.1 5.3-.1 7.9-.2 0-.5 0-.7-.1-.7-3.1-.5-6.4-.5-9.6.1-2.9.1-5.9.6-8.8z"/><path class="st9" d="m185.2 179 .3.9c.4 3.1.4 6.2.2 9.2-.1.6 0 1.3-.6 1.6-.1-1.9.1-3.8 0-5.7 0-1.8-.4-3.6-.3-5.5.1.6.3 1.2.4 1.8V179zM335 183.8c2.7-2 5.7-3.6 8.9-4.4.1.2.2.5.3.7-2.4 1.1-4.8 2.2-7 3.8-1.6 1-3.2 2.1-4.1 3.8h-.6c-.3-1.8 1.2-3 2.5-3.9zM345 181c.4-.2.8-.4 1.2-.5-.6 1.9-2.7 2.5-4.3 3.3-2.1.9-4 2.2-5.6 3.8-.9.8-1.2 2.1-2.3 2.6.5-2.6 2.7-4.4 4.6-5.9 1.9-1.5 4.2-2.2 6.4-3.3zM173.2 185.5c1.2.7 1.6 2.2 2.4 3.3 2.6 3.7 5.7 7 9.2 9.8.8.6 1.6 1.3 2.1 2.1-1.1-.4-2.1-1.1-3-1.8-3-2.4-5.8-5-8.1-8-1.1-1.7-2.1-3.5-2.6-5.4zM178 195.8c.5.3.9.7 1.2 1.1.9 1.2 2.1 2.1 3.3 2.9 1.5 1.1 3.1 2.1 4.8 2.9.7.3 1.6.6 2.1 1.3-1.4-.1-2.8-.7-4-1.4-2.4-1.3-4.8-2.9-6.6-5.1-.5-.5-.7-1.1-.8-1.7z"/><path class="st8" d="M269.9 207.6c.6.4.5 1.1.6 1.8.2 2.9-.3 5.7-.9 8.5-.3.1-.6.3-.9.4 1.1-3.4.6-7.1 1.2-10.7zM266.2 208.3c.2 0 .5.1.7.1.6 3.8-1 7.5-1.6 11.2h1.3c-.4.1-.8.1-1.1.2-.4-.4-.7-.9-1.1-1.3.3-.3.6-.7.7-1.1.5-2.9.8-6 1.1-9.1z"/><path class="st5" d="M282.6 217.6c2.8.1 5.5-1.3 8.2-.7-.1.6-.3 1.2-.4 1.8-3 1.1-6.2 1.3-9.3 2.1-4.1 1.1-8.3 1.7-12.5 2.1-7 .3-14-.3-20.9-.7-3.8-.3-7.5-.9-11.3-.9-1.1 0-2.3-.1-3.4.4-.2.3-.3.7-.5 1h-1.1c0-.6-.1-1.1.1-1.7.7-.7 1.7-1.1 2.6-1.2 1.1-.1 2.3-.4 3.4-.5 2.7-.4 5.5-.3 8.2-.3 3 .2 5.9-.1 8.8-.5 2.6-.5 5.3-.8 7.9-.7.7 0 1.4.2 1.8.8.4.4.7.9 1.1 1.3.4-.1.8-.1 1.1-.2.8-.3 1.4-1 2.1-1.4.3-.2.6-.3.9-.4 4.5 0 8.8-.5 13.2-.3zM237.2 226.4c1.7.8 3.2 1.9 4.6 3.2-1.9-.5-3.4-1.8-4.6-3.2zM265 234.3c2.3-.7 4.6-1 7-1.3-.2.3-.4.5-.7.5-2.1.5-4.2.9-6.3.8z"/><path class="st8" d="M325.1 162.8c0 6.8 1 13.5.9 20.2 0 2.5.1 5.1-.2 7.6-.1 1.3 0 2.6-.3 3.9.2 2.3-.2 4.5-.4 6.8-.4 3.9-.9 7.8-1.8 11.6 0 .4-.3.6-.6.8 0-1.2.3-2.3.5-3.5.7-4.5 1-9.1 1.4-13.6.1-1.1-.1-2.2.3-3.2.4-9.7-.9-19.4-.5-29.1.1-.5.2-1.2.7-1.5zm-125.7 38.4c0-5.9.9-11.8 1.7-17.7.4-2.6.4-5.3.5-7.9 0-.4 0-.8-.1-1.2-.4.4-.6 1-.7 1.6-.4 2.5-.5 5.1-.9 7.7-.5 3.7-1 7.5-1.3 11.2-.3 3.8-.4 7.6-.2 11.4.3 6.4 1.8 12.7 3.6 18.8.6 1.8 1.4 3.5 2.3 5.2.2 0 .5.1.7.1-.9-2-1.7-3.9-2.5-6-2-7.5-3.3-15.4-3.1-23.2zm130.5-13.4c.1-2.1.1-4.3 0-6.4-.2-5.2-.5-10.4-.7-15.6-.1-3.5-.4-7-.3-10.5.2-1 .5-2.1.4-3.1-.7-.1-1 .9-.8 1.4-.7 2.6-.5 5.3-.6 7.9 0 6.6.2 13.3 1 19.9.2 1.4.1 2.8.4 4.1-.1 3.5.2 7-.2 10.4-.1 1.5-.4 3-.4 4.5.2-.2.5-.5.5-.8.4-2.2.7-4.4.8-6.6 0-1.8.2-3.5-.1-5.2zm-92.9 9.1c-1.4 1.6-3 3-4.7 4.3-3.3 2.6-6.8 5.1-9.6 8.2-3 3.3-5.2 7.4-5.7 11.8-.3 2.8.1 5.7 1.2 8.4 1.2 3 2.7 5.8 4.7 8.4.2 0 .6 0 .7.1-.6-1.5-1.5-2.8-2.2-4.3-1.9-4-3.4-8.4-2.8-12.9.7-4.8 3.7-8.9 7.1-12.2 2.6-2.5 5.4-4.8 8.2-7.1 1.6-1.4 3.3-2.7 4.5-4.5h.2c.5-.6.9-1.3.6-2.1-.8.4-1.5 1.1-2.2 1.9zm66.9 16.2c-.9-3.3-2-6.6-4-9.5.1-.3-.2-.7-.3-1-.6-1.2-1.3-2.3-2-3.4-.5-.8-1.1-1.7-2.1-2 .2.8.7 1.6 1.2 2.3 1.1 1.6 1.8 3.5 2.6 5.3l.1-.2c1.5 3.7 2.9 7.5 3.4 11.5.7 4.3.2 8.7-.4 13-.6 3.8-1.4 7.6-2.5 11.3h.7c1.6-3 2.3-6.4 3.1-9.7 1.3-5.7 1.7-11.8.2-17.6zm-87.7-.6c1.1-2.5 2.9-4.6 4.8-6.6.4-.4.7-.8 1-1.3-.7 0-1.4.2-1.9.7a20.4 20.4 0 0 0-5.6 8c-1.2 3.4-1.3 7-1.4 10.6.1 1.8.1 3.7.5 5.4.2-.5.6-.9.5-1.4-.2-1.8-.3-3.6 0-5.4.2-3.4.6-6.9 2.1-10zm89.4-3.4c1.1 3.4 1.7 6.9 1.7 10.5.1 5-1.3 9.9-3.3 14.4.9-.5 1.2-1.5 1.6-2.4.7-1.7 1.2-3.6 1.8-5.4 1-3.6 1.3-7.5.5-11.2-.5-2-.9-4.2-2.3-5.9zm-109 6.2c-.4-4-.9-7.9-.9-11.9-.1-4.8.3-9.6.8-14.5.3-3.1.9-6.2 1-9.4 0-1.9.1-3.9-.5-5.8 0-.8-.1-1.9-1-2.2.1 1.4.5 2.8.5 4.3 0 1.4 0 2.7.1 4.1-.7 4.9-1.5 9.7-1.8 14.7-.4 5.2 0 10.4.5 15.6.3 1.9.3 3.8.9 5.6.1 2.3.9 4.4 1.8 6.5.2-.1.4-.1.6-.2-.5-1.3-1-2.5-1.2-3.8-.3-.9-.4-2-.8-3zm63.1 33.6c5.2-.7 10.5-1.1 15.8-1.3v-.7c-5.7-.1-11.4.1-17 1-1.1.2-2.3.3-3.2 1.2 1.5.2 2.9-.1 4.4-.2zm19 1.5c-8.2.3-16.4.2-24.4 1.9-.2.1-.4.3-.6.5 1.9 0 3.8-.3 5.7-.4 4.4-.3 8.7-.8 13.1-1 2.7-.1 5.4-.1 8-.5-.5-.7-1.2-.5-1.8-.5z"/><path class="st8" d="M311.1 249.8c-.8 1-1.5 2-2.1 3.1-1.6 3-3.7 5.7-5.4 8.7-2.7 4-5.3 8.2-8.1 12.2-1.7 3-3.8 5.8-6.7 7.8-2.5 1.7-5.7 1.9-8.5 2.9-3.3 1.2-6.8 1.3-10.2 1.9-3.4-.3-6.8.1-10.2-.2-3.7-.3-7.4-.6-11.1-1.1-1.7-.2-3.4-.9-5-1.5-1.3-.5-2.7-.9-3.9-1.8-.4-.3-.8-.7-1.3-.8-1.4-1.7-3.4-2.8-4.7-4.6-2.6-3.4-5.3-6.7-7.5-10.3-1.8-2.9-3.5-5.8-5-8.8-2.2-4.2-4.6-8.4-7.2-12.4-1.4-2.2-3.2-4.2-4.8-6.2-1.4-1.8-3-3.2-4.5-4.8-.6-.6-1.2-1.1-1.9-1.4 1.3 2.2 3 4.2 4.5 6.2 1.8 2.5 4 4.8 5.6 7.5.9 1.5 1.8 2.9 2.7 4.4 1.5 2.8 3.3 5.5 4.7 8.3 2 3.8 4.2 7.6 6.7 11.2 1.8 2.4 3.5 4.8 5.4 7 1.4 1.6 3.1 2.9 4.9 4.1 2 1.6 4.3 3 6.8 3.7 3 1.3 6.4 1.6 9.7 1.9 3.4.3 6.8.7 10.2.6 2.2-.1 4.4.2 6.6 0 .5.1 1.1.1 1.6.1 3.5-.2 7.1-.5 10.5-1.8 1.2-.5 2.4-1.3 3.7-1.4 2-.2 3.6-1.4 5.1-2.6 2.3-1.9 4-4.4 5.5-6.9 1.5-2.1 2.9-4.3 4.1-6.6 1.1-2.1 2.4-4 3.4-6.2l.2.1c1.7-2.9 3.6-5.6 5-8.6.7-1.2 1.6-2.3 1.8-3.7h-.6z"/><path class="st8" d="M232 266.8c2.1 2.8 4.1 5.6 6.8 7.9.8.7 1.7 1.2 2.7 1.5-1-.9-2.3-1.5-3.2-2.5-2.2-2.4-4.1-5-5.9-7.7-2.5-3.8-5.5-7.4-8.1-11.2-.6-.8-1.1-1.7-1.8-2.5.2 1.9 1.4 3.4 2.4 5 2.3 3.4 4.8 6.4 7.1 9.5zM240.4 271c1 1.2 2.1 2.2 3.4 3.1 0-.3.1-.8-.2-1-.9-.9-1.8-1.8-2.7-2.6-4.3-5-8.1-10.4-11.6-15.9-.1.1-.4.2-.5.3.5 2 1.8 3.7 3 5.4 2.7 3.7 5.6 7.3 8.6 10.7zM216.8 276.6c-1.3-5.5-1.5-11.4-4.1-16.6-.6-1.1-.9-2.3-1.7-3.3-.1 1.1 0 2.2.4 3.2 1.1 2.7 1.8 5.5 2.4 8.4 1.6 7.8 3.6 15.6 6.7 22.9.4 1 .7 2 1.4 2.8.1 0 .4-.1.5-.1-.3-1.1-.8-2.1-1.3-3.1-1.9-4.5-3.2-9.3-4.3-14.2zM226.5 288.2c-1.1-3.7-2.2-7.3-3.5-10.9-1.5-4.3-3-8.6-5-12.7-.4-.8-.5-1.9-1.5-2.2 0 1.3.6 2.5 1.1 3.8 3.5 8.2 6.5 16.5 9.2 25 0 1.7.6 3.3.9 5 .2-.1.4-.1.6-.2-.4-2-.6-4.2-1.4-6.1 0-.6-.2-1.2-.4-1.7zM296.1 302.1c-.2-3 .1-6 .8-8.9.8-3.4 1.8-6.8 3-10 1.9-5.3 4.5-10.3 5.6-15.9-.3 0-.6 0-.9.1-1.2 2.7-2.1 5.6-3.3 8.4-2.6 6.3-4.7 12.7-5.8 19.4-.3 2.3-.6 4.6 0 6.9.1-.1.5 0 .6 0z"/><path class="st8" d="M302.7 281.4c-1.4 4.5-1.9 9.2-3 13.7-1.3 5.2-3.4 10.2-6.2 14.7 1.1-.6 1.6-1.8 2.3-2.8 2.1-3.8 3.7-7.9 5-12 1.1-3.9 1.7-7.8 2.4-11.8.2-1.3.6-2.6.6-3.9-.6.6-.8 1.4-1.1 2.1zM281.7 312.9c-.9 3-2.1 5.9-3.1 8.8-1.1 1.5-1.5 3.4-2.3 5.1-.9 2.1-2.1 4.1-2.8 6.3 1.2-.8 1.5-2.3 2.2-3.4 1.2-2.6 2.6-5.2 3.4-7.9 1.5-3.5 2.9-7.1 4.1-10.7 1.7-5.3 2.5-10.8 2.7-16.3.1-1.7.8-3.2 1.1-4.8-1.3 1.4-2 3.3-2.1 5.2-.5 5.9-1.4 11.9-3.2 17.7zM263.5 317.1c-2.3-4-3.9-8.6-4.1-13.2-.1-1.6.4-3.2 0-4.8-.2 0-.5.1-.7.1-1.1 2.1-1.2 4.6-1 6.9.2 3 1.4 5.8 2.7 8.4 1.1 2.3 2.6 4.5 4.5 6.3.7.6 1.4 1.4 2.4 1.4v-.7c-1.5-1.3-2.9-2.7-3.8-4.4zM243.7 310.1c-.8-1.9-1.9-3.7-2.3-5.7-.1-.3-.2-.6-.4-.9-.1 1.3-.1 2.6.4 3.8 1.3 3.2 2.6 6.5 4.4 9.5 2.6 4.3 5.6 8.2 8.2 12.5.5.8.9 1.9 1.8 2.4-.1-.7-.4-1.4-.7-2.1-3.5-6.6-8.3-12.6-11.4-19.5zM254.5 318.9c-1-2.1-2.4-4-3.3-6.1-.1-.3-.4-.5-.6-.8-.2 1.7.9 3.2 1.6 4.7 2.8 5.1 5 10.4 7.4 15.7.4.9.6 1.9 1.4 2.4-.3-1.5-1-2.9-1.6-4.4-1.5-3.8-3-7.7-4.9-11.5z"/><path class="st14" d="M234.2 337.5c1.3-.8 3-.7 4.3.1 1.8 1 3.4 2.2 4.9 3.6 1.8 1.5 3.4 3.4 4.3 5.7.4 1.1.8 2.3 1.9 2.9 2.3 1.2 5.2.4 7.5 1.6.7.3 1.3.7 2.1.8 1.1.1 2.1.6 3.1 1.1 2.2 1 4.2 2.5 5.5 4.6.2-.3.4-.5.6-.8.3.1.6.2 1 .3-1.3 3.7-2.9 7.4-4.4 11.1.6-.8 1.2-1.6 2-2.2-.2.5-.4 1.1-.6 1.6.7-.5 1.5-.9 2.3-1.3-1.2 1.4-2.7 2.5-4.1 3.6-.4.3-.6.7-.8 1.2-1 2.5-1.6 5.2-2.1 7.9-.5 3.1-.2 6.3-.1 9.5 0 1.6.5 3.2.5 4.8-.4-.1-.7-.1-1.1-.3-.4-.6-.5-1.3-.6-1.9-.5-4-1-8-.5-12 .5-3.3 1.3-6.5 2.7-9.5 1.7-3.5 3.2-7.1 4.9-10.7-1.5-1.4-3.1-2.6-4.8-3.5-2.7-1.5-5.6-3-8.7-3.2-2-.2-4.4 0-6.1-1.4-1.7-1.4-1.9-3.8-3.3-5.5-1.2-1.5-2.7-2.6-4-3.9-1.1-.9-2.3-1.8-3.6-2.4-1.1-.5-2.2.3-3 1-1.8 1.6-3.4 3.5-5.1 5.1-4.1 3.8-8 8.1-12.8 11.1-.5.3-1 .4-1.5.4.3-.9 1.1-1.4 1.7-2 2-1.8 4.1-3.4 6-5.4 2.2-2.3 4.6-4.3 6.7-6.7 1.6-1.9 3-4.1 5.2-5.3z"/><path class="st14" d="M283.4 345.2c1.5-.5 2.9.4 4.2 1 1.6.7 2.7 2.3 4.4 2.7 1.6-.3 2.9-1.7 4.6-1.9 2.2-.5 4.5.2 6.1 1.7 1.4 1.3 3 2.2 4.4 3.5.5.4.7 1.1.6 1.7-1.9.5-3.4-.8-4.9-1.7-1.4-.9-2.4-2.3-4-2.8-.8-.2-1.7-.2-2.5 0-1.6.5-2.9 2-4.7 1.9-1.7-.1-2.9-1.4-4.3-2.3-1-.7-2.1-1.2-3.2-1.7-.9 1.4-1.2 3-2.1 4.4-1 1.8-2.2 3.6-3.6 5.2-2.1 2.3-4.3 4.4-6.6 6.5-1.1 1-2 2.1-3.3 2.9-.8.4-1.5.9-2.3 1.3.2-.5.4-1.1.6-1.6 2.9-3.7 6.6-6.8 9.8-10.3 1.9-2.2 3.5-4.7 4.5-7.4.8-1.1 1.1-2.5 2.3-3.1zM267.1 374.9c1-.2 2.1.5 2.1 1.6.2 1.6-1.3 3-2.8 3.2-1.1-.1-1.8-1.3-1.4-2.3.4-1 1-2.2 2.1-2.5z"/><path class="st15" d="M364 448.3c.4-1.7.4-3.4.6-5.2.2-.7.4-1.5.5-2.3 1.8-9.7 4.5-19.2 6.6-28.9.2-.9.6-2 0-2.8-.6.1-.7.7-.5 1.1-.8 1.9-1.4 3.9-2.1 5.9-2 6-3.1 12.3-4.2 18.5-.5 2.7-1.1 5.3-1.2 8-.5 1.2-.4 2.5-.6 3.7 0 .5-.1 1.2 0 1.7h.9v.3zM377.4 432.9c.3-.7.5-1.4.6-2.2 2.9-11.3 6.6-22.3 10.8-33.2 1.9-5.3 4.4-10.6 4.6-16.4-.8.5-1.1 1.4-1.5 2.2-.8 2.2-1.6 4.4-2.6 6.5-2 4.5-3.9 9.2-5.4 13.9-2.3 7.3-4.2 14.7-6 22.1-.5 2.2-1.2 4.4-1.4 6.7-.6 1.7-1 3.6-1.4 5.4h.8c.7-1.5 1.3-3.2 1.5-5zM301.4 397c1.9-4.8 4.3-9.5 7.1-13.9 1.4-2 2.2-4.5 1.8-6.9-.6.7-.7 1.7-1 2.6-.7 1.9-2.1 3.4-3.1 5.1-3 5.3-5.1 11-7 16.8.2 0 .5 0 .7-.1.5-1.3 1-2.5 1.5-3.6zM300.8 410.3c2.6-3.5 5.1-7.1 7.4-10.8 1.6-2.7 2.9-5.6 3.9-8.6-.5.2-1 .5-1.2 1-.9 1.4-1.7 3-2.6 4.4-4.3 6.7-8.3 13.7-13.5 19.8.1.2.3.5.4.6 2.2-1.7 3.9-4.1 5.6-6.4zM126.3 442.3c-.2-6-1.4-11.9-3.5-17.5-.3 0-.6 0-1 .1.1 1.6.7 3.1 1.1 4.7 1.3 5.5 1.9 11.1 2.4 16.7.1.7.1 1.4.2 2.1h1.2c-.2-2.1-.3-4.1-.4-6.1zM385 443.7c.2-6.3 1.1-12.7 3.6-18.6.4-1.2 1.3-2.2 1.3-3.6-1 .3-1.6 1.3-2.1 2.1-2.9 4.7-4.1 10.2-4.3 15.7-.1 2.9-.2 6 .6 8.8h1.3c-.3-1.3-.5-2.8-.4-4.4zM259.9 412.4c.3.4.7.7 1.1 1 .1-.2.3-.5.4-.6-.4-.7-1-1.3-1.7-1.7-2.5-2.2-4.8-4.6-6.8-7.2-1.2-1.5-2.4-3.1-4.1-4.2-.4-.4-1-.2-1.5-.1.8 1.1 1.8 2 2.7 3.1 2.9 3.7 6.3 6.8 9.9 9.7zM126.6 407.2c2.8 6.2 4.5 12.8 5.4 19.6.5 3.2.4 6.4.4 9.7h.9c.5-4.7.3-9.5-.4-14.3-.9-5.7-2.1-11.4-4.3-16.7-2.1-5-4.5-9.8-7.5-14.3-1.4-2.1-2.5-4.4-2.8-6.9-.4 0-1 .1-1.1.6-.3 2.8.8 5.4 2.2 7.8 2.6 4.6 4.9 9.5 7.2 14.5zM137.1 448.3c-.1-.7-.1-1.4-.2-2-.1-1 .1-2.1-.7-2.8-.5.3-1.1.6-1.1 1.2-.2 1.2-.2 2.5-.1 3.7h2.1v-.1zM254.9 433.8c.6.5 1.2 1.1 2 1.5-.2-1-1-1.6-1.7-2.2-4.3-3.8-8.4-7.7-12.4-11.7-1.2-1.2-2.3-2.6-4-3.1.6 1.4 1.8 2.4 2.7 3.5 4 4.4 8.7 8.1 13.4 12zM136 408.8c1.2 6.1 1.9 12.3 3.2 18.4 1.3 6.4 2.9 12.9 5.9 18.8.1.4.6.5 1 .6 0-1.4-.8-2.6-1.2-3.8-2.3-6.2-3.4-12.7-4.3-19.2-.7-6.1-1.6-12.2-3.7-17.9-.3-.9-.4-2-1.2-2.6-.4.1-.5.4-.5.8-.1 1.6.4 3.3.8 4.9z"/></svg>