<svg version="1.1" id="Layer_1" xmlns="http://www.w3.org/2000/svg" x="0" y="0" viewBox="0 0 536 448.2" style="enable-background:new 0 0 536 448.2" xml:space="preserve"><style>.st5{fill:#f95939}.st6{fill:#e56324}.st7{fill:#150f0c}.st8{fill:#fdb697}.st9{fill:#45362f}.st10{fill:#160e0b}.st15{fill:#b65a35}.st19{fill:#cc492f}.st22{fill:#4f2a4d}</style><g style="opacity:.35"><path d="M484.6 448.2H51.4C23 448.2 0 425.2 0 396.8V135.6c0-28.4 23-51.4 51.4-51.4h433.2c28.4 0 51.4 23 51.4 51.4v261.2c0 28.4-23 51.4-51.4 51.4z" style="fill:#d6dce5"/></g><path d="M490.5 448.2v-.2c-1.8-8.9-5.1-17.4-9.3-25.5-4.1-8.1-9.3-15.5-15.2-22.3-5.6-6.5-11.8-12.5-18.5-17.9-2.5-2-5.1-4-7.7-5.9-7.4-8.5-16.5-15.5-26-21.4-7.2-4.4-13.8-9.9-19.7-15.9-5.2-5-11.4-8.7-16.7-13.6-5.2-4.5-9.4-10.3-15.4-13.9-7.1-4.3-13.8-9.2-20.6-14-4.4-3.3-9.9-4.1-15.2-4.9-11.2-1.8-22.6-1.9-34-1.8-21.5.7-42.9 4-64 7.9-4 .6-8.1 1.5-12.1.6-3.2.3-6.3 1.4-9.5 2-3.6.7-7.2 2-10 4.4-2.6 2.4-4.9 5.1-7.4 7.6-5.9 5.9-12.2 11.3-19 16-5.3 3.6-10.2 7.7-15.3 11.7-7.2 6.1-13.6 13.1-21.2 18.7-7.6 5.4-15.4 10.6-23.3 15.7-.5.4-1.1.7-1.6 1.1-.8.4-1.7.8-2.5 1.2-4 1.8-7.7 4-11.4 6.4-7.7 5-14.9 10.7-21.2 17.4-6.6 7-12.4 14.9-17.2 23.2-4.3 7.4-7.9 15.4-11 23.4h445z" style="fill:#764074"/><path d="M317.6 24.6c5.2-1.9 10.7-2.9 16.2-2.9 2.9.1 6.3.8 8 3.4 1.1 2.3.3 5.2-1.3 7-3.5 4.2-8.4 7-12.3 10.8 4.6-2.9 9.6-5.7 15.2-6.1 2.3-.1 4.8.1 6.8 1.4 1.9 1.4 1.8 4.1 1 6.1-1.3 2.7-3.4 4.9-5.4 7.1 3.5-1.6 7.2-3.2 11.1-3.7 1.3-.1 3.2-.2 3.8 1.3.2 2.2-1.3 4-2.6 5.5-4.5 5.2-11.1 8.1-17.6 9.9 2.5 2.5 5.3 4.6 7.7 7.3 7 7.2 12 16.2 14.4 25.9 1.5 5.2 2.7 10.5 2.5 15.9-.2 6-.4 12.1-1.7 18-.8 3.8-2.4 7.4-3.9 11-1 2.2-1 4.6-1.5 7-.8 4.4-1.9 8.8-3.6 12.9-.9 2-2.2 3.9-3.7 5.5-5.8 5.7-12.1 11.1-19.4 14.8-6.4 3.1-13.5 5-20.6 5.4-8.5.1-17-.3-25.5-.3-5.1-.2-10.3-.5-15.4-1-5.4-.5-10.8-1.6-16.3-2.1-5-.4-10-.9-15-.7-4.6.1-9.4.3-13.9-1.1-3.7-1.2-6.4-4.2-8.5-7.3-7.3-10.8-11.8-23.2-14.7-35.8-1.8-7-2.1-14.4-1.8-21.6.6-8.2.8-16.6 3.4-24.5 1.7-5.2 3.6-10.4 6.5-15.1 1.8-2.9 3.8-5.8 6.7-7.7 3.6-2.4 7.7-4.8 12.1-4.5 0-3.7.6-7.3 2-10.7 1.5-3.9 3.1-7.8 5.9-10.9 2.3-2.5 5.1-4.3 8.1-5.8 3.8-1.7 7.7-3.4 11.9-3.5 9.1-.3 18.3 0 27.4-.6 5.3-.4 10.7-.4 15.7-2.5 6.3-2.5 12.2-5.5 18.3-7.8z" style="fill:#38312d"/><path d="M264.1 60.5c12-4.6 24.7-7.5 37.5-7.3 3.4.4 6.9.7 10.1 2 1.8.7 3.6 1.5 5.3 2.4 3.6 2.1 7.6 3.6 11.6 4.7 1.8.5 3.6 1.2 5.3 1.9 2.1.7 3.6 2.3 5.4 3.5 0 3.4-.1 6.8-.1 10.2-.4 5.4.3 10.9.7 16.3.7 7.8 2.1 15.4 3.2 23.1.4 3.5 1.4 7 2 10.5.2 6 2.6 11.8 2.3 17.8.1 5.2-2.9 9.9-2.7 15.1l-.3.4c-2.7 4.5-3.8 9.8-5.2 14.9-1.5 6.3-3.1 12.6-4.7 18.9-1.1 3.3-2.2 6.5-4 9.5-.5.9-.8 1.8-1.1 2.8-2.8 1-4.9 3.2-7.5 4.6-3.1 1.8-6.5 2.9-9.8 4.2-6.8 2.5-14.1 1.3-21.2 1.4-7.2-.4-14.4.6-21.7.5-7.9-.1-16.1 0-23.7-2.8-7-2.7-13.6-6.5-18.9-11.8-2.3-2.9-4.7-5.6-6.9-8.6.5 2.7 1.6 5.3 2.7 7.8 1.9 3.8 3.2 7.8 5.2 11.6 1.5 3.2 3.6 6.1 5.3 9.2 1.7 3 4.1 5.7 5.5 8.9s3.1 6.2 4.6 9.4c1.7 3.2 4 6.5 7.5 7.8 3.6 1.1 7.2-.5 10.6-1.6 4.1-1.4 8.5-1.4 12.8-1.2 7.8.4 14.9 4.2 22.6 5.4 1.8.4 3.4 1.5 5.3 1.9 6.5 1.5 12.8 3.9 19.1 6 3 .7 5.9 2 8.8 2.8.1-1.5.2-3.1.3-4.6 0 6.3.2 12.6.8 18.8 1.3 9.6.4 19.3 1.2 28.9 1 5.8-.4 11.7-1.9 17.4-1.6 6.9-4 13.7-7.5 19.8-2.5 4.1-4.5 8.5-7.4 12.3-2.5 3.2-5 6.5-7.8 9.5-2.6 3.2-5.9 5.7-9 8.4-3.5 2.8-6.6 5.9-10.1 8.7-2.8 2.2-5.8 4.5-9.2 5.7-2.4 1.3-4.9 2.7-7.6 3.3-2.2.8-4.5 0-6.7.2-4.3-.4-8.5-2.2-11.8-5-3.3-2.4-6.5-5.1-9.6-7.7-5.7-6-11.2-12.4-15.9-19.3-3.1-4.2-5.7-8.6-8.8-12.8-2.5-4.3-5.2-8.5-7.3-12.9-2.8-8-1.9-16.7-1.1-25 .2-4.7.9-9.4 1.7-14 1.7-9.5 1.6-19.2 2.7-28.8 1.1-9.6 1.9-19.2 1.5-28.9-.5-8.4.5-16.8 0-25.1.7-2.1.5-4.4.8-6.6 1-10.6.4-21.2.4-31.8-.2-2.8-.2-5.6-1-8.2.5-3-.2-6.1-.1-9.1-.6-6.2.1-12.5 1.4-18.6 2.1-6.3 3.6-12.8 4.6-19.3 1.7-8.6 1.5-17.4 3-26 .6-3.9 1.5-7.8 2.7-11.7.3-1.1.9-2.3 2-2.8 3.6-1.9 7.2-3.9 10.6-6.2 7.5-4.9 15.4-8.3 23.5-10.8z" style="fill:#f2844f"/><path class="st5" d="M358.4 143.1c4.5-.2 8.8 2.5 11 6.3 2.9 4.4 3.5 9.8 3.4 14.9 0 4.3-1.7 8.3-2.8 12.3-1.4 4.3-2.9 8.6-5.2 12.4-3.6 6.1-8.3 11.7-14.2 15.6-4.5 3-10.4 4.7-15.8 3.1-1.6-.1-3-.8-4.5-1-.2 0-.6.1-.9.2.3-1 .5-1.9 1.1-2.8 1.8-2.9 2.9-6.2 4-9.5 1.6-6.3 3.3-12.5 4.7-18.9 1.4-5 2.5-10.3 5.2-14.9.1 0 .3.1.4.2 2.2-3.3 4.5-6.6 6.8-9.9 2.4-2.4 4.8-5 6.8-8zM198.1 150.7c2.7-1.2 5.8-.4 8.3 1 5 2.8 8 8 10.3 13 .8 2.7.8 5.5 1 8.2 0 10.6.6 21.2-.4 31.8-.3 2.2-.1 4.5-.8 6.6-1.8-.4-3.6-.3-5.4-.9-5-1.5-8.8-5.3-12.1-9.1-4.8-5.7-7.7-12.7-10-19.7-2.2-6.4-1.8-13.5.4-19.9 1.5-4.4 4-9.2 8.7-11z"/><path class="st6" d="M219.9 194.6c2.1 3 4.6 5.7 6.9 8.6 5.3 5.3 12 9.1 18.9 11.8 7.6 2.8 15.8 2.6 23.7 2.8 7.2.1 14.4-.8 21.7-.5 7-.1 14.4 1 21.2-1.4 3.3-1.3 6.7-2.4 9.8-4.2 2.6-1.4 4.7-3.6 7.5-4.6.2 0 .6-.1.9-.2-.1 2.8-.1 5.5 0 8.3 0 2.3-.7 4.5-1.8 6.6.6.1 1.3.1 2 .2-.6 12 .3 24.1-.2 36.1-.1 1.5-.2 3.1-.3 4.6-3-.8-5.8-2.2-8.8-2.8-6.3-2.1-12.6-4.5-19.1-6-1.9-.4-3.5-1.5-5.3-1.9-7.7-1.2-14.7-5-22.6-5.4-4.3-.1-8.7-.2-12.8 1.2-3.4 1.1-7 2.7-10.6 1.6-3.5-1.3-5.8-4.6-7.5-7.8-1.5-3.1-3.2-6.2-4.6-9.4-1.4-3.2-3.8-5.9-5.5-8.9-1.7-3.1-3.8-6-5.3-9.2-2-3.8-3.3-7.8-5.2-11.6-1.4-2.6-2.5-5.2-3-7.9zM290.4 108.8c1.5-3 3.9-6.2 7.6-6.5 0 .2 0 .7-.1.9.2.1.5.4.7.5.1-.4.2-1.1.3-1.4 2.6-.4 5.4-.3 8 .1-2.6 2.2-5.3 4.3-7.3 7.1-2.1 3.2-3.8 6.6-4.5 10.4-.3 1.7-.9 3.6.2 5.1 1.6 2.7 3.9 5.7 2.9 9.1-.6 1-1.6 2.3-2.8 2.4.3-1.2 1.6-2 1.6-3.3.3-2.8-1.8-5-2.9-7.4-1.1-2.7-3.4-4.7-4.1-7.5-.7-3.2-1.1-6.5.4-9.5z"/><path class="st6" d="M328.6 221.7c1-2.1 1.7-4.3 1.8-6.6.3 2.2.2 4.5.2 6.7-.7 0-1.4 0-2-.1z"/><path class="st7" d="M312.8 34.2c5.4-2.1 10.6-4.8 16.2-6.4-1.9 1.4-4.1 2.3-6.3 3.3-3.2 1.5-6.4 3.1-9.6 4.4-4.8 1.9-9.8 3-14.9 3.8-3.8.6-7.6 1.2-11.4.8 8.8-1.6 17.7-2.8 26-5.9zM328.6 34.1c.7-.3 1.4-.4 2.1-.6-3.1 2.8-7.1 4.1-10.8 5.8-3.5 1.3-7.3 3-11.1 2 6.8-1.6 13.5-4.1 19.8-7.2zM245 48.6c4.2-3.8 9-7.1 14.4-9.1.2.1.7.2.9.2-5 2.1-9.6 5.1-13.6 8.7-3.1 2.8-5.5 6.5-6.7 10.6-.6 2-.8 4.2-1.7 6.1-.2-1.3-.2-2.7.1-4 .9-4.6 3.1-9.2 6.6-12.5zM259.7 47.4c3.7-2.2 7.7-4.2 12-5.1-.9.6-1.9 1.1-3 1.5-4.5 1.7-8.7 4.3-12.6 7.1-4.4 3.1-7.8 7.6-9.9 12.5.2-3.1 1.9-5.8 3.7-8.1 2.6-3.3 6.2-5.7 9.8-7.9zM324.3 49.1c6.1-2 12.1-4.4 17.9-7.2-1.4 2-3.7 2.8-5.8 3.9-3.1 1.4-6.1 2.9-9.4 3.6-.8.2-1.8.1-2.7-.3zM282.1 47.3c5-.9 10.1-1.3 15.1-.8-.9.5-1.8.8-2.8.8-6 .2-11.9 1-17.6 2.8-2.6.8-4.8 2.4-7.3 3.3 2.9-4 8-5.3 12.6-6.1zM217.7 76.6c1-.9 2.1-1.9 3.5-1.6-.6 1.5-2.3 2-3.3 3.2-5 5.2-7.4 12.2-9.5 18.9-1.2 3.7-1.5 7.5-1.8 11.3-.9-6.8 1.4-13.3 3.7-19.6 1.8-4.4 3.8-8.9 7.4-12.2zM344.1 75c.8.7 1.5 1.7 1.7 2.8 1.4 4.7 2.1 9.6 2 14.4-.2 5.6-.5 11.3-1.5 16.8-.3 1.5-.7 2.9-1.3 4.3 1.5-7.1 2-14.3 1.8-21.6 0-5.7-1.4-11.2-2.7-16.7z"/><path class="st8" d="M249.8 81.9c3.8-2.4 8.6-2.2 12.9-1.7-2.4.3-4.9.3-7.3.7-1.8.4-3.7.9-5.6 1z"/><path class="st7" d="M220.1 83.7c.8-1.1 2-2 3.2-2.6-1.2 2-2.9 3.7-3.8 5.9-2.9 6-5 12.5-6.4 19-.6 2.7-.5 5.4-.6 8.1-1.1-2.2-.8-4.8-.5-7.2.7-4.6 2-9.1 3.5-13.4 1.1-3.4 2.4-6.8 4.6-9.8zM351.8 81.9c1.1 1.1 1.7 2.6 2 4.1 1.5 6.4 1.3 13.1 1.1 19.7-.1 3.1-.3 6.1-.8 9.1-.3 1.6-.6 3.4-1.9 4.5 1.7-5.8 1.5-12 1.5-18 .1-6.5-.7-13-1.9-19.4z"/><path class="st9" d="M256.6 85.3c4-.7 8.4-1 12.1.7 3.6 2.3 6.3 6.6 5.3 11-.9.2-1.8.1-2.7-.1-3.5-.6-7.1-1-10.6-1.3-6.4.4-12.8.9-18.9 2.6-4.3 1.3-8.1 3.8-12.1 5.8-.2-1.5.7-2.7 1.4-3.8 2.6-4.1 6.1-7.6 10.5-9.7 4.8-2.4 9.8-4.3 15-5.2zM294.2 89.1c2.5-1.9 5.8-2 8.8-1.8 9.3 1.1 18.2 4.3 26.2 9.1 2.1 1.3 3.9 3 5.7 4.7-.6.1-1.2.1-1.8 0-9.8-1.9-19.6-4.3-29.6-4.7-3.9 0-7.7.3-11.6.8-.7.1-1.5-.1-2.1-.4 1-2.8 2.2-5.7 4.4-7.7z"/><path class="st10" d="M244 110.6c1-.7 2.8-.4 3 1 .5 2.2.9 4.9-.6 6.8-1.1 1.3-3.2.4-3.4-1.2-.4-2.2-1.1-5.2 1-6.6z"/><path class="st7" d="M215.2 119.6c.7-3 1.1-6.3 3.2-8.8-1.8 6.7-3.6 13.5-4.2 20.4-.8-3.9.3-7.8 1-11.6zM360.6 110.5c2.8 4.9 1 10.7-.5 15.7-1.5 4.4-2.5 9.2-5.4 12.9 2.5-5.7 4.3-11.7 5.4-17.9.7-3.5.4-7.1.5-10.7z"/><path class="st10" d="M314.8 112c1.2-.8 3.1-.1 3.2 1.3.1 2.1-.4 4.3-1.7 6-1.1 1.4-3.6.6-3.8-1.2-.3-2.2.3-4.7 2.3-6.1z"/><path d="M276.1 120.4c2.1-1.7 5-1.9 7.5-1.4.8.1 1.3.9 1.9 1.4-3.1-.6-6.3 0-9.4 0z" style="fill:#fcb48e"/><path class="st7" d="M206.7 127.7c-.3-2.9-.8-6.1.4-8.8.2 5.2.6 10.5 1.7 15.6.5 3.4 1.7 6.6 1.8 10.1-1.8-5.5-3.1-11.2-3.9-16.9z"/><path d="M238.2 121.3c2.4-.3 4.7.1 7.1.2 2.1.1 4.2-.3 6.4-.3-2.9 1.2-6.2 1.2-9.3 1-1.4 0-2.8-.4-4.2-.9z" style="fill:#be6547"/><path d="M310.2 122.3c3.7.5 7.4.4 11.1-.1-.6.7-1.4 1.2-2.3 1.3-2.4.5-4.9.7-7.3.3-.8-.1-1.2-.8-1.5-1.5z" style="fill:#b65b36"/><path class="st7" d="M350.3 125.7c.7.4 1.5.8 1.5 1.7.5 4.1.1 8.3-.4 12.4-.2 0-.7-.1-.9-.1.4-4.7 0-9.4-.2-14z"/><path d="M236.3 128c4-.3 8.1-.2 12.1-.2-2.3 1.3-4.9 1.2-7.4 1.4-1.6 0-3.5.2-4.7-1.2z" style="fill:#fbb38e"/><path class="st15" d="M269.1 133.5c.3-3.3 4.4-4.6 7.1-3.5.4.8.7 1.6 1.1 2.4-.9 2.4-3.7 3.2-6 3.2-1.2 0-2.3-.9-2.2-2.1zM287.3 130.9c1.7-.6 3.5.1 4.9.9.8.6 1.8 1.5 1.5 2.6-.3 1.2-1.8 1.2-2.7 1.2-1.7-.1-3.8.1-5.1-1.3-.9-1.3.1-3 1.4-3.4z"/><path d="M310.3 137.2c2.1-1.8 5-1.9 7.6-1.7 2.3.2 4.7.3 6.6 1.8-2.4-.1-4.7-.6-7.1-.7-2.3 0-4.7.5-7.1.6z" style="fill:#fbb48f"/><path class="st5" d="M236.9 137.2c4.4-.5 9.6-.1 12.8 3.5 4.5 4.6 3.6 12.7-1 16.9-3.6 3.2-8.6 4.8-13.4 4.1-3.5-.6-6.8-2.5-9-5.3-1.9-2.5-1.9-6-1.1-9 1.1-3.9 4.3-6.6 7.5-8.7 1.2-.8 2.7-1.3 4.2-1.5zM318.2 141.5c3.4-.6 6.8.1 9.9 1.6 3.3 1.6 6 4.6 6.5 8.3.5 6.3-3.7 12.8-9.9 14.3-4.4 1.1-9-.3-12.7-2.7-3.1-2-5.5-5.5-5.5-9.3-.1-3.7 2-7.2 5-9.2 2.1-1.3 4.3-2.6 6.7-3z"/><path d="M315.7 144.7c.2.3.2.3 0 0z" style="fill:#fba187"/><path class="st6" d="M261.4 149.6c2.6-1.5 5.1-3.2 8.1-3.9 2.2-.6 4.4 0 6.6.1 1.9.1 3.9-.4 5.8.2 3.2.9 5.9 2.9 8.6 4.8 3.5 2.4 6.4 5.8 8.2 9.7.9 1.9 1.2 4.1 1.7 6.1-.3-.3-1-.9-1.4-1.2-.2.1-.5.5-.6.6-8.1-3.4-16.9-4.5-25.6-4.8-6 .3-12 .6-17.8 1.9-1.9.4-3.8.6-5.7.7 1-2.7 2.9-4.9 4.5-7.1 2-2.7 4.5-5.3 7.6-7.1z"/><path d="M266.4 152.6c3.4-1.4 7.1-1.8 10.7-2.2 1.7-.3 3.4.3 5 .8 4.3 1.6 8.3 4 11.5 7.3 2 2 3.6 4.3 5.3 6.5-5.5-2.2-11.5-3.1-17.3-3.8-9.8-1-19.7-.2-29.4 1.6 4.2-4 8.7-7.9 14.2-10.2z" style="fill:#fff"/><path class="st19" d="M359.8 162.4c.6-.7 1.5-.8 2.3-.9-3.5 3.5-5.9 8-8.3 12.3-1.9 3.5-3.6 7.1-4.9 10.9-.6 1.5-1 3.2-2.2 4.4 1.1-6.1 3.9-11.7 6.7-17.2 1.9-3.3 3.6-6.8 6.4-9.5z"/><path d="M269 164.2c1.4-1.3 3.4-1.2 5.1-1.2 3.3.2 6.7.3 10 1.2-1.9.2-3.8.2-5.6.1-3.1 0-6.3.2-9.5-.1z" style="fill:#fbb898"/><path class="st19" d="M198.9 166.7c3 1.8 4.4 5.1 5.6 8.2 2.2 6.3 4.2 12.8 4.7 19.4-1.3-7.4-3.2-14.7-6.3-21.5-1.1-2.3-2.7-4.1-4-6.1z"/><path class="st6" d="M263 169.9c1.1-.4 2.3-.7 3.4-.7 5.1-.3 10.3-.4 15.4.3 1.2.1 2.3.6 3.3 1.3-1.3 2.1-2.7 4.2-3.5 6.6-1.2.3-2.4.3-3.6.2-3.9-.2-7.9.3-11.8.6-.6-2.9-1.6-5.7-3.2-8.3z"/><path d="M263.2 188.7c1.5-.8 3-1.5 4.7-1.7 3.8-.5 7.7-.4 11.5.1 1 .1 2 .5 2.9 1.1-3.2.1-6.4-.5-9.6-.3-3.2 0-6.3.7-9.5.8z" style="fill:#ffb18d"/><path class="st8" d="M255.7 277.2c1.5 5.5 1.5 11.3 1.6 16.9 0 5.3.2 10.8-1.7 15.9.2-2.6.8-5.1.9-7.7.2-5.3-.1-10.6-.4-15.9-.2-3-.8-6.1-.4-9.2z"/><path class="st22" d="M192.9 322.4c.9 3.7 0 7.5.1 11.2-.3 7.8 2.7 15.2 6 22.2 2.2 4.8 4.8 9.4 7 14.2-3.1-5.4-6-11-8.8-16.6-2.6-5.3-4.8-10.9-5-16.9-.2-4.7.3-9.4.7-14.1zM339.2 329.7c0-.7.1-1.4.3-2.1.5.6 1.1 1.2 1.1 2.1.5 4.1-.2 8.3-1.2 12.3-1.3 5.1-3.2 10.1-6.4 14.3-.3.6-1 .7-1.6.9 1.4-2.5 3-4.9 4-7.6 2.4-6.3 3.6-13.1 3.8-19.9zM184 330c.3.1.8.4 1 .5.6 2.3.5 4.7 1.1 7.1 2 9.1 6.1 17.6 10.8 25.6.9 1.7 2.4 3.2 2.6 5.2-1.4-1.1-2.2-2.7-3.2-4.1-3.7-5.6-6.8-11.5-9.4-17.6-2.1-5.2-4-11-2.9-16.7zM312.4 369.8c2.5-2.3 4.6-5.1 6.2-8.1.2.9.5 1.9 0 2.8-1.3 3.2-3.6 5.9-6.2 8.2-3.5 3.3-6.7 6.8-9.5 10.7-.9 1.2-1.7 2.5-3 3.1.1-.6 0-1.3.4-1.9 3.3-5.4 7.4-10.5 12.1-14.8zM319.3 384.9c1.2-1.2 2.4-2.5 4.2-2.7-.8 2-2.4 3.5-3.7 5.1-2.5 2.8-4.7 5.9-6.9 8.9-.6.7-1.3 1.9-2.4 1.5 2.3-4.6 5-9.1 8.8-12.8zM266 391.4c-2-.1-4.2-.3-6-1.1-.3-.1-.5-.2-.8-.4-.3.1-.7 0-1-.2-.7-.5-1.3-.9-1.9-1.4h-.1c2.2 1.8 3.9 4.2 6.1 6 1.4 1.2 2.8 2.5 4.2 3.7l.1-.1c.4-.3.9-.5 1.4-.7 0-.1 0-.1-.1-.2 2.7-.9 4.2-3.4 6.1-5.3.8-.8 2.1-1.6 2.1-2.8-2.8 2.3-6.4 2.6-10.1 2.5zM286.3 395.1c.9-1.1 2-2.3 3.5-2.5-.7 2.4-2.7 4-4 6-1.2 1.6-1.9 3.6-2.7 5.4-.3.1-.8.2-1.1.3.4-3.4 2.1-6.6 4.3-9.2z"/><path class="st22" d="M264.3 393.5c.4-.6 1.5 0 1.1.7-.4.6-1.5 0-1.1-.7zM389.4 448.2c.3-4.9.8-9.8 2-14.6 3-12.2 7.4-24 13.2-35.1.3-.6.4-1.2.2-1.9-1.1 0-1.6 1-2.2 1.8-3.5 5.4-5.8 11.4-8.1 17.4-2.2 6.1-4.2 12.3-5.4 18.7-.8 4.1-.8 8.3-1 12.5v1.1h1.3v.1zM237.4 401.1c.7-.6 1.6-.1 2.3.1 4.3 2.1 8 5 11.6 8 2.1 1.8 4.7 3.6 5.3 6.5-1.7-.5-2.5-2.1-3.9-3.1-4.9-3.9-10.1-7.7-15.3-11.5zM397.3 448.2c.2-1.2.5-2.4.7-3.6 2.1-10.7 5.1-21.3 9.6-31.4.6-1.5 1.4-3 1.4-4.6-.7.6-1.4 1.4-1.9 2.2-3.1 5.2-5.2 10.9-7.1 16.6-2.3 6.8-3.4 13.8-4.5 20.8h1.8zM105.1 448.2h1.6c-1.3-10.9-3.7-21.5-6.4-32.1-.5-1.6-1-3.2-2-4.5-.3 0-.8-.1-1.1-.1-.1 1.8.9 3.3 1.3 5 2.4 10.5 4.7 21 6.6 31.7zM112 448.2h2c-.1-1-.2-2.1-.4-3.1-1-5.7-2.2-11.3-3.8-16.8-1-3.5-1.9-7.2-3.5-10.5-.3-.8-1-1.1-1.7-1.5 3 10.4 5.7 20.9 7.3 31.6.1.1.1.2.1.3zM246.5 418.5c1.3-.2 2.3.8 3.4 1.4 3.2 2 5.3 5.4 6.1 9 .2.8.4 2.7-.9 1.7-.9-1.6-1.6-3.5-2.7-5-1.4-2.1-3.6-3.5-5.4-5.2-.5-.6-.7-1.2-.5-1.9zM265.9 423.5c.3-.2.8-.5 1.1-.7 2.1 3.7 3 7.9 4 12 .2 1.4.9 2.9-.1 4.1-1.5-2.3-1.8-5.1-2.7-7.6-.7-2.7-2-5.1-2.3-7.8z"/></svg>