<svg version="1.1" id="Layer_1" xmlns="http://www.w3.org/2000/svg" x="0" y="0" viewBox="0 0 536 448.2" style="enable-background:new 0 0 536 448.2" xml:space="preserve"><style>.st3{fill:#fff}.st5{fill:#e56324}.st6{fill:#f2844f}.st7{fill:#f95939}.st9{fill:#b9603c}.st10{fill:#fbbb9e}.st11{fill:#a3343e}.st12{fill:#453730}.st14{fill:#150f0c}.st16{fill:#4f2a4d}</style><g style="opacity:.35"><path d="M484.6 448.2H51.4C23 448.2 0 425.2 0 396.8V135.6c0-28.4 23-51.4 51.4-51.4h433.2c28.4 0 51.4 23 51.4 51.4v261.2c0 28.4-23 51.4-51.4 51.4z" style="fill:#e1e3ea"/></g><path d="M273.8 35.4c4.4-2.1 9.3-2.8 14.2-2.8 2 0 4 .4 6.1.8 3.3.6 6.3 2.4 9.2 4 3.3 2.2 6.7 4.5 9.2 7.6 1.3 1.7 2.7 3.3 3.8 5.1 1.9 3.3 3.3 6.8 4.4 10.4 1.3 4.8 2 9.9 1.1 14.9 2.6-1.4 5.1-3.1 7.3-5.2.2-.3.6-.2.9-.2.5 2.4 1.3 4.6 2 6.9.7 2.2 1.4 4.4 1.7 6.6l.3 3.9c1.2-.9 2.4-1.8 3.5-2.8.5-.4 1-.9 1.6-1.1.5-.1.8.3.9.7.7 1.7.8 3.5.9 5.3 0 3.1.2 6.3-.5 9.3.4-.4.8-1 1.4-.8.6.3 1 1 1.2 1.6 1.5 3.6 1.7 7.6 1.6 11.5-.1 2.5-.7 4.8-1.2 7.2.6 0 1.2-.1 1.6.4.9 1.2.8 2.9.9 4.4.1 2.7-.9 5.2-1.4 7.7-1 4.4-2.8 8.5-4.1 12.7-1.1 3.4-2.1 6.9-3.1 10.4.3.9-.1 1.9-.3 2.8-.3 1-.1 2.1-.2 3.2-.3 3.3-.3 6.7-.6 10-.1 2.5-.4 5.1-1 7.5-1.4 5.5-4.3 10.6-8.4 14.6-1.4 1.5-3.3 2.5-5 3.6-2 1.3-4.4 1.6-6.7 2.2-4.3 1-8.7 1.9-13.1 2.6-11.4 1.8-22.8 3.3-34.4 3.9-11.3.8-22.7 1-34.1 0-8.2-.7-16.4-2.2-24.1-5-3.8-1.4-7.4-3.5-10.1-6.5-2.7-2.8-4.5-6.4-5.6-10.2-1.7-5.8-1.8-11.9-1.8-17.9 0-3.8 0-7.6.6-11.4.3-1.2-.6-2.1-.7-3.2-.8-4.1-2.5-8-3.7-12-.6-2-1.3-3.9-1.8-5.9-1-5.6-2.3-11.3-2.4-17 0-1.6-.1-3.2.2-4.8.6-4.1 1.8-8.2 4.2-11.6 1.1-1.6 2.4-3 3.9-4.4-.3-1.1-.5-2.2-.5-3.4 0-1.7-.1-3.5.3-5.2 1.1-6.5 3.9-12.9 8.5-17.7 1.4-1.5 3.1-3 5.3-3 2.3-2.8 5.2-5.2 8.1-7.4 3-2.2 6.1-4.3 9.5-6 4.4-2.1 9-3.8 13.8-4.8 2-.4 4.1-.9 6.2-1.2 3.6-.5 7.2-1.1 10.8-1.1 2.9 0 5.9-.2 8.7.6.6-1.7 1.9-3.1 3.2-4.3 2.1-2 4.7-4.1 7.7-5.5z" style="fill:#d0434e"/><path class="st3" d="M341.2 99c.1.2.1.2 0 0z"/><path d="M471.8 449.1c1.2-1.7 2-3.8 2.1-6.1.1-1.2.1-2.4.2-3.6.1-1.7-.5-3.7-1.5-5.3 1.1-8.2.6-16.6-1.6-24.6-2.5-9.6-7.3-18.4-13.8-25.8-6.9-7.9-16.1-13.5-24.7-19.2-4.4-2.9-8.7-5.8-13.1-8.6-.7-.8-1.5-1.6-2.5-2.1-2.4-1.4-4.9-2.8-7.3-4.2-1-.7-2.1-1.3-3.1-2-7.1-4.6-14.3-9-21.6-13.2-.4-.4-.9-.7-1.3-1.1-6.5-5.1-13.7-9.2-20.4-14.2-3.6-2.7-7.4-5.2-11.2-7.7-3-2-6-4-9.2-5.8-1.9-1.1-3.7-2.3-5.5-3.5-2.3-1.4-4.6-2.7-6.6-4.5-1.5-1.3-3-2.8-4.5-4.1-1.4-1.2-2.5-2.6-3.9-3.8-1.1-.9-2.1-2-3.4-2.6-2.3-1.1-4.9-.9-7.3-.1-2.9 1-5.9 1.8-8.9 2.6-5.2 1.4-10.4 3-15.6 4.5-3.6 1.1-7.2 2-10.9 2.6-4.9 1-9.8 1.8-14.7 2.4-6.6.9-13.3 1.9-20 1.7-2.4-.1-4.7-.1-7.1-.2-6.2-.4-12.4-1-18.7-.5-.9-.8-2.2-1.3-3.4-.8-2.7 1.7-4.3 4.5-6.3 6.9-1.5 1.9-3.2 3.6-4.7 5.5-1.1 1.5-2.5 2.7-3.7 4-.5.5-1 1-1.7 1.2-2.8.8-5.4 2.2-8 3.5-8.5 4.3-17 8.8-25.1 14-3.7 2.5-7.6 4.8-11.5 7.2-1.1.6-2.2 1.3-3.3 1.9-4.9 3.3-10 6.3-15.2 9.3-1.2.9-2.3 1.7-3.4 2.6-.7.5-1.3 1.1-1.5 1.9-1.3.8-2.7 1.6-4 2.4l-2.7 1.5c-.9.5-1.7 1-2.6 1.5-2.8 1.4-5.5 2.8-8.3 4.1-2.1 1-4.2 2.1-6.3 3.3-3.7 4.1-8.2 7.6-13 10.5-.5.5-1 1-1.5 1.6-.6.7-1.2 1.4-1.8 2.2-.2.2-.6.8-.7.9s-.6.8-.7.9c-2 2.7-3.7 5.5-5.3 8.4-.8 1.5-1.5 3-2.2 4.5-.1.2-.7 1.6-.7 1.7-.3.7-.6 1.5-.9 2.3-2.3 6.2-4 12.7-5.4 19.2-1.9 8.9-3.3 17.9-4.9 26.8h404.9z" style="fill:#764074"/><path class="st5" d="M312.9 95.7c1-.5 2.1-1 3.2-1 .4.8.6 1.6.5 2.5-2.5 2.3-4.6 5-7.1 7.2-2.7 2.4-5.2 5-7.9 7.3-6.9 5.9-14.2 11.3-22.4 15.3-3.1 1.4-6.4 2.6-9.7 3.4-4.1 1.1-8.2 1.5-12.4 1.7H250c-5.2 0-10.3-.6-15.4-1.7-5.4-1.4-10.7-3.1-16.1-4.4-2-.5-4.1-.8-6.1-1.3v-1.1c0-2 .2-3.9.3-5.8.1-.7.1-1.4.6-2 .9-.2 1.9.1 2.8.1 3.9.2 7.7.8 11.6.5 2.2-.1 4.4-.1 6.6-.1 2.1-.1 4.2-.2 6.4-.2 7.7-.5 15.4-1.6 23-3.5 5.4-1.1 10.6-2.7 15.9-4.1 4.2-1.1 8.3-2.3 12.3-3.9 2.9-1.1 5.6-2.4 8.5-3.6 4.2-1.5 8.4-3.3 12.5-5.3z"/><path class="st6" d="M309.6 104.4c2.5-2.2 4.6-4.9 7.1-7.2.3 6.8 2.1 13.4 3.8 19.9 1.7 5.5 3.8 10.9 5 16.6 1.3 5.7 2.4 11.4 2.8 17.3.2 3.1.7 6.2.7 9.3.2 2.6.2 5.2.2 7.8 0 2.2.1 4.4-.2 6.6 0-.4-.1-.8-.1-1.2-1.2 5.2-2.1 10.5-2.9 15.8-.9 5.1-2 10.2-3.3 15.3-.4 2-1.1 3.8-1.4 5.8-1 1.6-2.1 3-3.2 4.6-1.7 2-3.4 4-5.3 5.9-2.5 2.4-4.7 5-7.5 7.1-.5-4.5-2.2-8.8-4.5-12.6-1.8-3-4.7-5.2-7.7-6.8-2.6-1.2-5.2-2.1-7.9-3-2.6-.8-5.3-1.8-8-2.3-2.8-.6-5.8-.7-8.7-.6 1-1 2.2-1.7 3.2-2.6 1.5-1.3 3.7-2.3 4.1-4.5-1.6.6-2.9 1.9-4.4 2.5-.9.4-1.7.9-2.7 1.2-.7-.2-1.2-.7-1.8-1.1-1-.7-2.2-1-3.4-1.4-3-.9-5.9-2.3-9.1-2.4-.9.1-1.7-1.1-2.5-.6-.3.9.1 1.9.7 2.6 2 2 2.9 4.9 4.5 7.2-3.1.1-6.3.7-9.3 1.7-3.8 1.3-7.5 3.1-10.7 5.4-4.9 3.6-8.9 8.5-11.6 13.9-2.8-2.4-5.1-5.4-7.6-8.2-1.8-2.4-3.5-4.8-5.1-7.4-2.1-3.2-4.1-6.5-6.2-9.7-1.3-2.3-2.4-4.6-3.7-6.9-.3-2.8-.8-5.7-1.1-8.5-.2-1.6-.1-3.3-.4-4.9.2-1.8.7-3.6 1.1-5.4.7-2.8 1.4-5.7 2.2-8.5.6-2 1-3.9 1.5-5.9 1.2-4.5 2.2-9 2.9-13.6 1.1-5.5 1.9-11.1 2.6-16.8.2-1.6.3-3.3.5-4.9v1.1c2 .4 4.1.8 6.1 1.3 5.4 1.3 10.7 3 16.1 4.4 5 1.1 10.2 1.7 15.4 1.7h7.1c4.2-.3 8.4-.7 12.4-1.7 3.3-.8 6.6-2 9.7-3.4 8.2-3.9 15.6-9.3 22.4-15.3 3-2.6 5.5-5.2 8.2-7.6z"/><path class="st7" d="M182.2 148.9c2.2-.4 4.4.1 6.6.4 1.5.2 3.2.8 4.1 2.1 1.8 3.9 2.7 8.1 3.9 12.3.9 4 1.9 8 3.3 11.9.4 1.1.9 2.1 1.3 3.2.3 1.6.2 3.3.4 4.9.3 2.8.8 5.7 1.1 8.5-.1 1.1 0 2.3.4 3.3.8 2.2 1 4.5 1.7 6.7 1.3 4.3 2.6 8.5 4 12.7-.2.1-.5.2-.7.2.2.4.4.8.6 1.3-2 .6-4.1.1-6.2 0-2.2-.3-4.4-.9-6.5-1.7-3.4-1.7-6.7-3.8-9.4-6.5-2-2-3.9-4-5.7-6.2-3.1-4-5.5-8.5-7.7-12.9-2.7-5.3-4.8-10.9-5.5-16.8-.1-2.7-.1-5.5.6-8.2.6-2.4 1.4-4.8 2.7-6.9 1.5-2.3 3.2-4.5 5.5-6.1 1.7-1 3.6-1.8 5.5-2.2zM336.8 152.8c2.1-1 4.5-1.6 6.9-1.6 2.3.2 4.7.6 6.8 1.7 1.9 1.1 3.4 2.8 4.6 4.7.7 1.3 1.5 2.7 1.7 4.1.4 2 .8 4 1 6.1.1 2.9.3 5.8-.2 8.6-1.4 7.5-4.9 14.5-9.5 20.5-1.3 1.9-2.9 3.6-4.6 5.2-4 4.1-8.8 7.3-14 9.7-2.1.9-4.2 2-6.4 2.7-1.3.4-2.6.9-3.9 1.2 1.1-1.9 1.7-4 2.8-5.9.3-.5.4-1.1.6-1.7-.5.7-1.1 1.4-1.5 2.1.3-2 1-3.9 1.4-5.8 1.3-5.1 2.4-10.1 3.3-15.3.8-5.3 1.8-10.5 2.9-15.8 0 .4.1.8.1 1.2 0 1-.1 2-.2 2.9.5-2 1.2-3.9 1.8-5.9.9-2.8 1.6-5.7 2.6-8.5 1-2.9 1.7-5.9 2.5-8.8-.1-.1-.3-.4-.3-.5.4-.6.8-1.1 1.3-1.6.2.4.2.6.3.7z"/><path class="st5" d="M310.7 155.9c1.6-.3 3.2-.5 4.8-.3-.1.5-.2 1.1-.8 1.2-2.1.6-4.2 1.3-6.3 1.7-2.9.6-5.9 1-8.9 1.6-2 .4-3.9.8-5.9.9-2.3 0-4.5.2-6.8.2-2.6 0-5.2.2-7.8-.4-1-.3-2.1-.2-3.1-.3-.4-.1-.4-.6-.4-1 1.5.2 2.5-.9 3.9-1.2 3.7-.9 7.5-1.4 11.3-1.7 2.3-.1 4.7-.2 7-.4 1.3-.1 2.6 0 3.9-.1 1.7-.2 3.5-.3 5.2-.3 1.3-.1 2.6.3 3.9.1zM215.5 159.1c4-.9 8.1-1.2 12.2-1.2 4.7.1 9.4.5 14.2 1 1.8.2 3.6.4 5.4.7 2.4.4 4.9.1 7.2.8.4 0 .4.5.5.8-.8.1-1.5.1-2.3.1-2 0-3.9.3-5.9.5-6.6.4-13.2 1.4-19.8.7-3.7-.5-7.5-.8-11.2-1.5 0-.2 0-.5-.1-.7-.3-.1-.5-.3-.8-.4.2-.4.3-.8.6-.8z"/><path d="M203 192.3c1.2 2.3 2.4 4.6 3.7 6.9 2 3.3 4 6.5 6.2 9.7 1.6 2.6 3.3 5 5.1 7.4 2.4 2.8 4.7 5.8 7.6 8.2 2.7-5.5 6.6-10.4 11.6-13.9 3.3-2.3 6.9-4.1 10.7-5.4 3-1 6.1-1.5 9.3-1.7 3.8-.4 7.6-.7 11.4-.8 2.9-.1 5.8 0 8.7.6 2.7.5 5.4 1.4 8 2.3 2.7.9 5.3 1.8 7.9 3 3.1 1.6 5.9 3.8 7.7 6.8 2.3 3.9 3.9 8.2 4.5 12.6 2.8-2.1 5-4.8 7.5-7.1 1.9-1.8 3.6-3.8 5.3-5.9 1-1.5 2.2-3 3.2-4.6l1.5-2.1c-.2.6-.3 1.2-.6 1.7-1.1 1.9-1.7 4-2.8 5.9h-.5c-.1 2.2-.6 4.3-1 6.5-.5 2.7-1.1 5.3-1.7 8l-.1.1c-.8.8-1.2 1.9-1.8 2.9-1.8 3.1-3.4 6.3-5.6 9.1-2.5 3.5-5.1 6.9-8.2 10.1-1.9 1.8-3.7 3.7-5.6 5.5-2.8 2.3-5.6 4.6-8.7 6.5-1.7 1.1-3.2 2.3-5 3.2-1.9 1.1-4 1.7-6.1 2.3-2 .5-4.1 1.1-6.2 1-4.8.1-9.7-.4-14.3-2-2.2-.9-4.5-1.7-6.6-2.9-1.7-.9-3.2-2-4.7-3-3.3-2.2-6.2-5-9.1-7.8-2.6-2.6-4.6-5.8-6.8-8.8-1.6-2.3-3.2-4.6-4.7-6.9-1.4-2.2-2.7-4.5-4-6.7-1.6-2.7-3.4-5.3-4.8-8.1-.9-1.9-2.1-3.6-2.9-5.5-.6-1.4-1.3-2.8-1.8-4.2-1.4-4.2-2.8-8.5-4-12.7-.7-2.2-1-4.5-1.7-6.7-.6-1.3-.8-2.4-.6-3.5z" style="fill:#c87147"/><path class="st5" d="M251.8 193.7c.9-.5 1.6.7 2.5.6 3.2.1 6.1 1.5 9.1 2.4 1.2.4 2.4.7 3.4 1.4.6.4 1.2.9 1.8 1.1.9-.3 1.8-.8 2.7-1.2 1.6-.7 2.8-1.9 4.4-2.5-.4 2.2-2.5 3.2-4.1 4.5-1 .9-2.2 1.7-3.2 2.6-3.8.1-7.6.4-11.4.8-1.6-2.3-2.5-5.2-4.5-7.2-.7-.6-1.1-1.6-.7-2.5zM208.4 215.2c.2-.1.5-.2.7-.2.5 1.4 1.2 2.8 1.8 4.2.8 1.9 1.9 3.7 2.9 5.5 1.5 2.8 3.2 5.4 4.8 8.1 1.3 2.2 2.6 4.5 4 6.7 1.5 2.3 3.1 4.6 4.7 6.9 2.2 3 4.2 6.2 6.8 8.8 2.8 2.8 5.7 5.6 9.1 7.8 1.5 1.1 3 2.2 4.7 3 2.1 1.2 4.4 1.9 6.6 2.9 4.6 1.6 9.5 2.1 14.3 2 2.1.1 4.2-.5 6.2-1 2.1-.6 4.2-1.2 6.1-2.3 1.7-.9 3.3-2.1 5-3.2 3.1-1.9 5.9-4.2 8.7-6.5 2-1.7 3.8-3.6 5.6-5.5 3-3.1 5.7-6.5 8.2-10.1 2.2-2.8 3.8-6 5.6-9.1.6-1 .9-2.1 1.8-2.9-.4 1.8-.9 3.7-1.5 5.4-1.3 1.8-2.3 3.9-3.7 5.7-2.6 3.5-5.2 7.1-8.3 10.3-1.2 1.4-2.6 2.5-3.7 4.1-1 1.4-2 2.9-2.9 4.4-1.5 2.3-3.1 4.5-4.6 6.8-2.1 3.6-4.3 7.1-6.5 10.6-2.9 4.3-5.6 8.7-9.1 12.5-1.1 1.2-2.6 2.1-3.6 3.5-1.7 2.2-3.2 4.5-4.8 6.7-1 1.4-2 2.9-3.5 3.8-3 1.8-7.3.8-9.5-1.9-1.3-1.6-2.7-3.1-4.2-4.4-.8-.7-2-.7-3.1-.7-2.7-.1-5.4-.9-7.9-1.7-1.7-.6-3.2-1.4-4.8-2.2-5.6-2.7-10.7-6.3-15.5-10.2-1.6-1.3-3.3-2.6-5.2-3.6.2-2.9.5-5.8.5-8.8 0-6.4-.2-12.7-.8-19-.6-6-1.8-12-2.5-18-.5-4.6-1.5-9.1-1.9-13.7-.2-1.1 0-2.3-.2-3.4.1-.4-.1-.9-.3-1.3z"/><path class="st6" d="M310.9 241.4c1.3-1.8 2.3-3.9 3.7-5.7-.3 1.9-.8 3.8-1 5.7-.3 2-.4 3.9-.5 5.9.1 2.8-.3 5.6-.2 8.4-.2 2.7 0 5.5 0 8.2.2 3.3.2 6.5.6 9.8.7 5.7 2.1 11.3 4.2 16.6.2.6.4 1.2.4 1.8.1 1.1.6 2.2.2 3.3-1 2.6-3.1 4.7-4.6 7-2.4 3.1-5.2 5.7-7.8 8.5-3.4 3.4-7 6.5-10.9 9.4-3.3 2.4-6.9 4.3-10.6 6-6.9 3.1-14.4 4.4-21.9 4.9-1.9.2-3.8-.1-5.7-.1-2.3 0-4.7-.4-7-.8-3.2-.6-6.3-1.9-9.4-3-4-1.4-7.5-3.8-11.3-5.5-2-1-4-2.1-5.9-3.2-1.6-1-3-2.2-4.5-3.2-3.5-2.7-6.8-5.9-8.4-10.1-.1 0-.4-.1-.5-.1-.4-1.7.6-3.2.8-4.9 1.5-6.8 2.5-13.8 3.1-20.8 1.9 1 3.6 2.2 5.2 3.6 4.8 3.9 10 7.4 15.5 10.2 1.6.8 3.1 1.7 4.8 2.2 2.6.9 5.2 1.7 7.9 1.7 1 .1 2.2 0 3.1.7 1.6 1.3 2.9 2.9 4.2 4.4 2.2 2.7 6.4 3.7 9.5 1.9 1.5-.9 2.4-2.4 3.5-3.8 1.6-2.2 3.1-4.6 4.8-6.7 1-1.4 2.4-2.2 3.6-3.5 3.5-3.8 6.2-8.2 9.1-12.5 2.2-3.5 4.4-7 6.5-10.6 1.4-2.3 3.1-4.5 4.6-6.8.9-1.5 1.9-2.9 2.9-4.4s2.5-2.7 3.7-4.1c3-3.3 5.6-6.8 8.3-10.4z"/><path class="st9" d="M265.3 139.1h.8c1.1 2.3.8 4.9.9 7.4 0 2.1.1 4.2-.3 6.3h-.5c.1-2.6-.2-5.3-.3-7.9-.1-2-.2-3.9-.6-5.8z"/><path class="st10" d="M294.5 38.1c3.4 1.1 6.8 2.5 9.9 4.4 1.6 1 2.9 2.2 4.3 3.4 0-.1.1-.3.2-.4-1.8-2.1-4.1-3.6-6.5-4.9-3.4-1.8-7-3.5-10.8-4.2-2.7-.6-5.8-.7-8.4.5-.1.2-.1.4-.2.7 3.8-1 7.8-.6 11.5.5z"/><path class="st11" d="M307.6 57.3c-1.6-3.7-3.9-7.1-6.9-9.7-2.2-1.8-4.6-3.4-7-4.8-1.4-.8-2.8-1.7-4.4-2.1 1.7 1.3 3.7 2.4 5.5 3.6 2.4 1.7 4.8 3.3 6.8 5.4 3 3.2 5.2 7.1 6.4 11.3 1.1 4 1.7 8.1 1.7 12.2 0 2.9-.2 5.8-.6 8.7-.2 1.3-.7 2.6-1 3.9.3-.4.7-.8.8-1.2.8-2.2 1.1-4.5 1.3-6.8.2-2.8.4-5.6.2-8.4-.4-4.1-1.2-8.2-2.8-12.1z"/><path class="st11" d="M296.8 54.7c-1.9-2.9-4.5-5.2-7.2-7.3-1.7-1.3-3.4-2.6-5.4-3.5-2-.8-4-1.3-6-1.9-1.8-.6-3.7-1.3-5.6-1.1-.5 0-.8.2-1.2.4 1 0 2-.1 3 .2 1.5.4 2.9.9 4.3 1.4 2.4.8 4.9 1.3 7.1 2.7 1.7 1.1 3.4 2.4 5 3.7 4.8 3.9 8.4 9.2 9.8 15.2 1 3.9 1 8 .7 12-.2 3.9-.6 7.9-2 11.7.8-.9 1-2.1 1.3-3.2.7-3.2 1-6.5 1.2-9.8 0-3.1.2-6.2-.4-9.2-.7-4.1-2.3-7.9-4.6-11.3z"/><path class="st11" d="M291.9 58.8c-1.1-1.5-2.1-3.1-3.5-4.5-2-2.1-4.3-3.9-6.9-5.1-3-1.6-6.2-2.9-9.5-3.9-2.6-.7-5.4-1.1-8-.3 0 .2 0 .5.1.7 1.6.1 3.3-.1 4.9.3 4.6 1.1 9 3 13.3 5.1 1.9 1.1 3.6 2.4 5.2 3.9 1.3 1.3 2.4 2.8 3.5 4.2 1.7 2.6 2.8 5.6 3.5 8.6.5 3.6.4 7.4 0 11-.5 2.2-.9 4.4-1.5 6.6-.6 2-1.1 4-1.8 6-.3 1-.8 2-1 3-.6 1.3-1.2 2.5-1.3 3.9 1-.8 1.4-2.1 1.7-3.3.8-1.6 1.4-3.3 2-5 1.5-4.8 3-9.7 3.2-14.8.2-1.5.2-3 0-4.5-.3-4.1-1.7-8.3-3.9-11.9zM257.7 54.2c1 .8 1.9 1.7 3.2 2-1.1-1-2.4-1.8-3.4-2.9-1.6-1.4-3-3.1-4.9-3.9-1.3-.5-2.6-1.2-4-1.3 1.5 1.1 3.4 1.6 4.9 2.6 1.5 1.1 2.8 2.4 4.2 3.5z"/><path class="st11" d="M280.8 64.1c-1.7-3-4.2-5.5-6.8-7.7-2.7-2.3-5.8-4.2-8.8-6.2-.9-.6-1.9-1.2-3-1.4.9 1 2.1 1.6 3.1 2.4 1.5 1.1 3.2 2.1 4.7 3.2 3.3 2.3 6.4 5 8.9 8.1 2.6 3.2 4.1 7.1 5.5 10.9.5 1.5.9 3 1.4 4.5-.2-1.8-.8-3.4-1.3-5.1-1-3-2.1-6-3.7-8.7z"/><path class="st10" d="M270.9 60.6c1.4 1.3 2.6 2.9 3.7 4.4.2-.1.4-.2.6-.2-.8-2-2.3-3.7-3.8-5.2-2.2-2.2-4.4-4.4-7-6.2-1.3-.8-2.7-1.8-4.2-2.1.2 1.2 1.4 1.8 2.3 2.4 3 2.1 5.8 4.4 8.4 6.9zM247.8 65.1c-1.1-2.6-2.1-5.2-3.5-7.6-.6-1.1-1.3-2.2-2.2-3.1-.2-.2-.6-.5-.9-.2.7 1.4 1.7 2.6 2.3 4 3.6 7.1 6.5 14.6 8.3 22.3.2-.2.7-.2.5-.6-1-5-2.6-10-4.5-14.8z"/><path class="st11" d="M266.5 86.3c0-4.4-.2-8.8-1.4-13-.7-2.2-1.9-4.3-2.9-6.4-1.6-3.1-3.9-5.7-6.5-8-.9-.8-2-1.4-3-2.2-.9-.7-1.6-1.7-2.6-2.4 1.3 1.7 2.7 3.2 4.4 4.5 1 .8 1.7 1.8 2.5 2.7 1.6 1.7 3 3.6 4.2 5.6 1.4 2.7 2.8 5.4 3.5 8.3 1 4.3 1.1 8.8.9 13.2-.2 4.3-.7 8.6-1.9 12.8-.9 3.5-2.1 7-4 10.1-.5.8-1.2 1.5-1.8 2.3.6-.2 1.3-.5 1.6-1.1 1.4-2 2.6-4.1 3.4-6.4.8-2.4 1.5-4.8 2.1-7.2.8-4.1 1.4-8.5 1.5-12.8zM245.1 83c-1.3-4.4-2.8-8.7-4.5-13-1.5-3.6-3.2-7.1-5.3-10.4-1-1.6-2.1-3.1-3-4.7h-.6c.5 1.8 1.7 3.4 2.7 5 2.2 3.5 4.2 7.2 5.7 11.1 3.2 7.8 5.6 15.9 7.5 24.1.7 2.9 1.2 5.9 1.9 8.8h.5c-.4-1.9-.7-3.8-1-5.7-1.1-5.1-2.4-10.2-3.9-15.2z"/><path class="st10" d="M231.9 75.5c1.4 3 2.9 6 4.9 8.7.8 1.1 1.6 2.3 2.8 2.9-.3-.7-.6-1.3-1.1-1.9-1.9-2.3-3.2-4.9-4.5-7.6-2-4-3.6-8.3-4.9-12.6-.5-1.9-1.1-3.7-1.2-5.7h-.6c-.2 1-.2 1.9 0 2.9.9 4.8 2.6 9.1 4.6 13.3z"/><path class="st11" d="M220.1 71c2 6.8 5.4 13.1 9.4 19 2.7 3.9 5.4 7.8 8.7 11.3.8.9 1.7 1.8 2.8 2.3-.4-.9-1.3-1.5-1.9-2.2-3.4-3.7-6.3-7.9-9.1-12-4.4-6.6-7.8-13.9-9.8-21.6-.7-2.5-.9-5.1-1-7.7-.7.9-.7 2-.7 3.1.2 2.5.8 5.2 1.6 7.8zM270.2 70.5c-.8-1.7-1.9-3.1-2.8-4.7-.6-1.1-1.2-2.3-1.9-3.3-1.1-1.7-2.3-3.5-4.1-4.7.2.9.9 1.5 1.4 2.2.8 1 1.4 2.1 2.2 3.1.6 1 1.1 2.1 1.6 3.1.8 1.8 2 3.5 2.9 5.3 1.8 3.7 2.6 7.9 2.7 12 .4 4.6.3 9.3-.7 13.8-.6 2.7-1.4 5.4-2.1 8-.6 1.1-1.1 2.3-1.7 3.4-.7 1.2-1.7 2.2-2.3 3.5 2.1-1.6 3.2-4 4.4-6.3 2-4.9 3.3-10.1 3.6-15.3.3-3.6-.1-7.2-.3-10.8-.3-3.3-1.4-6.5-2.9-9.3zM235.3 107.8c-4.6-1.7-8.9-4.1-13-6.7-1.8-1-3.4-2.2-4.9-3.5-2.3-1.7-4.1-3.9-6-6.1-2.2-2.5-3.8-5.5-4.8-8.6-.7-2.2-1.4-4.4-1.7-6.7-.1-1.9-.1-3.9.3-5.8.3-1.7.9-3.3 1-5h-.6c-.2.5-.3 1-.5 1.6-1.4 4.1-1.7 8.7-.5 12.9.7 2.7 1.6 5.3 2.9 7.7 1.6 3 3.9 5.5 6.1 8 1.3 1.5 3 2.7 4.5 3.9 1.6 1.4 3.6 2.3 5.4 3.5 2.7 1.8 5.6 3.3 8.6 4.6 1.8.8 3.8 1.2 5.7 1.8 1.4.4 2.8.8 4.3 1.1 0-.1-.1-.4-.1-.5-2.3-.7-4.5-1.4-6.7-2.2z"/><path class="st10" d="M221.1 92.2c.5.5 1.2.9 1.9 1.1l-.9-1.2c-2.5-2.5-3.9-5.7-5.2-8.9-1.4-3.9-2.6-8-3.1-12.2-.2-1.8 0-3.5-.1-5.3-.9.8-.9 2.1-.9 3.3-.1 4.1 1.1 8.1 2.3 12 1.5 3.9 3.1 8 6 11.2z"/><path class="st11" d="M206.9 96.6c-4.2-5.6-6.2-12.7-5.9-19.6.4-1 .2-2.1.5-3.1.2-.7.4-1.3.4-2-.6.5-1.1 1.1-1 1.9-.6 3.3-.9 6.7-.3 10 .8 4.6 2.6 9 5.3 12.9 1.9 2.8 4.2 5.2 6.8 7.2 2 1.5 4.2 2.5 6.4 3.6.5.2 1 .5 1.6.7.8.6 1.8.9 2.8 1.4.6.3 1.3.6 2 .6-1.3-1.1-2.9-1.6-4.4-2.4-5.4-2.6-10.6-6.2-14.2-11.2zM321 75.2c-.6 1.8-.8 3.6-1.4 5.4-1.5 4.4-3.7 8.6-6.1 12.6.4-.2.8-.3 1-.7 1.5-1.9 2.6-4.1 3.8-6.2 1.9-3.4 3.3-7.3 3.3-11.2-.2.1-.4.1-.6.1zM320.9 97.6c.9-.9 1.7-1.9 2.3-3 1.4-2.6 2.7-5.3 3.7-8 .8-2.1 1.7-4.3 1.6-6.6h-.6c-1 4.4-2.6 8.6-4.5 12.7-.8 1.7-1.8 3.3-3 4.7.2 0 .4.1.5.2zM281.2 81.1c-.6-2.4-2-4.4-3.1-6.5-.9-1.6-2-3.1-3.1-4.6-.3-.4-.6-.7-1-1.1.2 1.1 1 2 1.6 3 1.3 1.8 2.3 3.8 3.4 5.7.8 1.4 1.2 2.9 1.8 4.4.8 3.3 1.5 6.7 1.5 10.2 0 2.1.1 4.3-.1 6.4-.3 2.5-.9 4.9-1.6 7.2-.5.8-1 1.6-1.1 2.5.6-.5 1.1-1.2 1.5-1.9.8-1.5 1.4-3.1 1.8-4.7.8-3.1.6-6.4.6-9.6-.2-3.7-1-7.4-2.2-11zM331.9 92.3c.4-1.2.9-2.5.7-3.8h-.4c-.4 1-.7 2.1-1.1 3.1-1 2.8-2.5 5.4-3.9 7.9-2.3 4-5.1 7.6-7.8 11.2 1.3-.7 2.2-2 3.2-3.2 2-2.6 4.1-5.2 5.8-8.1 1.2-2.2 2.6-4.6 3.5-7.1zM203.6 110.6c-1.5-1-2.4-2.6-3.6-3.9-1.5-1.5-2.7-3.4-3.9-5.2-1.4-2.1-2.2-4.6-3.2-6.9 0 .7-.1 1.3 0 2 .7 3.2 2.3 6.1 4.2 8.7 1 1.4 2.3 2.4 3.3 3.7.6.8 1.3 1.5 2.2 2.1 1.7 1.2 3.6 2.2 5.6 3.1 1.7.8 3.7 1.8 5.6 1.2v-.3c-2.1-.2-3.9-1.2-5.8-2-1.6-.6-3-1.5-4.4-2.5zM335.2 108c1.5-2.5 2.9-5.1 3.4-8.1h-.6c-1.3 3.4-2.9 6.7-5 9.7-2.9 4.1-6.3 7.8-9.5 11.5 0 .1.1.4.2.5 1.6-1.4 3-3.1 4.5-4.7 2.4-2.7 5-5.6 7-8.9zM195 109.4c-2.6 4.2-3.4 9.2-3.5 14.1-.1 1.8.3 3.6.2 5.4.2 1.7.2 3.5.6 5.1 0 1.7.5 3.3 1 4.9.1 0 .4.1.5.1-.5-2-.8-4-1.1-6.1l-.1.1c-.2-.9 0-1.9-.2-2.8-.1-2.7-.1-5.4 0-8.1.4-4.4 1.4-8.8 3.7-12.6.4-.7 1.2-1.4 1-2.3-.9.6-1.6 1.4-2.1 2.2z"/><path class="st11" d="M213.2 107.6c-2.8-1-5.6-2.1-8-4-1.4-1.1-2.7-2.5-3.6-4.1-2.3-3.7-3.8-7.8-4.5-12.1-.2-1.4.1-2.8.1-4.2-.3.5-.6 1-.7 1.6-.5 3.1.2 6.2 1.2 9 1.1 3.1 2.6 6.1 4.8 8.6 1.8 2.2 4.4 3.5 7 4.6 1.1.4 2.3.9 3.5 1.1.7.3 1.5.4 2.3.5-.3-.9-1.4-.9-2.1-1zM203.6 115.5c-1 1-1.6 2.2-2.2 3.5-1.8 4-2.4 8.5-2.2 12.9.2 2.7.4 5.4 1.1 8 .2 1 .5 2 1.3 2.7.2-1.1-.3-2.1-.7-3-1.3-6.8-1.2-14.2 1.6-20.7.5-1.3 1.4-2.5 2.1-3.8-.3.1-.7.1-1 .4zM341 119.1c-1 2-2.1 4-3.4 5.9-1.3 2-3 3.7-4.6 5.4-1.3 1.2-2.6 2.5-4 3.6-.3.2-.7.3-1 .5v.7c.4-.2.8-.4 1.3-.7 2-1.6 4-3.2 5.7-5.1 3.2-3.2 6.2-7.1 7.2-11.7-.5.4-.9.8-1.2 1.4zM208 122.9c-1.7 4.3-2.3 9-2.8 13.6-.3 2.8-.6 5.7-.4 8.6h.5c0-.7 0-1.5.1-2.2.4-4.6.9-9.2 1.8-13.7.6-3 1.3-6 2.8-8.7-1.2.2-1.6 1.4-2 2.4z"/><path class="st10" d="M237.7 142.4c1.6-.7 3.4-.7 5.1-.6 2.6.2 5.2.7 7.8 1.3 1.2.3 2.4.7 3.5 1.3.5.3 1 .7 1.1 1.3-.3.4-.8 0-1.2-.1-2.1-1.1-4.4-1.4-6.7-1.7-3.4-.5-6.8-.8-10.2-.5.1-.4.2-.9.6-1z"/><path class="st12" d="M282.5 147.6c3.6-1.4 7.5-1.7 11.4-1.6 6.8.3 13.7 1.6 20.1 4.1 2.9 1.2 5.8 2.4 8.2 4.5.3.3.9.6 1 1.1-2.8 0-5.5 0-8.3.1-3.9.3-7.8.7-11.7.9-3.3.2-6.7.6-10 .9-2.6.2-5.3.5-7.9.9-2.7.5-5.5 1.1-8.2 1.7-.7.1-1.7.3-2.2-.3s-.4-1.5-.5-2.2c-.2-1.5.1-3.1.6-4.6.1-.4.5-.5.8-.8-.2 1.7-.4 3.3-.2 5 .2-1.4.6-2.8 1.1-4.2 1-2.4 3.2-4.5 5.8-5.5z"/><path d="M233.6 148.8c2.8-.3 5.6-.4 8.3 0-2.8 0-5.6.1-8.3 0z" style="fill:#7e7571"/><path class="st12" d="M227.8 149.8c1.9-.5 3.8-.8 5.7-.9h8.3c2.6.2 5.3.6 7.9 1.3 2.3.6 4.2 2 5.6 3.8-.1-.6-.1-1.2-.1-1.8.4 0 .8.2.9.6.4 1 .3 2.1.5 3.2.1-.7.1-1.5.2-2.3l.6.3c.3.9.2 1.8.2 2.7-.2 1.3-.3 2.7-.8 3.9-1.5.4-3.1.1-4.7 0-4.1-.5-8.1-.8-12.2-.9-3.5-.2-7-.1-10.5-.3-5-.1-10 0-15 .4-1.1 0-2.1.1-3.2-.1 0-.8.7-1.3 1.2-1.9 1.5-1.7 3.5-2.9 5.4-4.1 3.2-1.9 6.6-3 10-3.9z"/><path class="st10" d="M179.6 157.7c.8 0 1.6-.1 2.3.2 1.4.6 2.5 1.6 3.6 2.6 2 1.9 3.9 4.3 4.7 7-.2 0-.5.1-.6.1-1.8-3.3-4.4-6.1-7.6-8.1-.7-.5-1.5-.8-2.4-1.1v-.7z"/><path class="st9" d="M319 161.9c1.3-.4 2.5-1 3.8-1.5-.3.9-1.2 1.3-2 1.7-1.8.8-3.6 1.5-5.4 2.1-1 .3-2 .3-3 .3 0-.1.1-.3.1-.5 2.1-.8 4.4-1.4 6.5-2.1zM272.9 160.9h.7c0 4.3.5 8.6 1.5 12.8.4 1.7 1 3.2 1.8 4.8-.1 0-.4 0-.5-.1-1.9-3.2-2.6-6.8-3.2-10.4-.5-2.4-.4-4.8-.3-7.1zM259.6 161.3c.2 0 .5.1.6.1.6 3.3-.2 6.6-.8 9.8-.7 3.1-1.4 6.1-2.5 9.1-.2 0-.4.1-.6.1 1.2-3.2 1.7-6.6 2.4-10 .4-3.1 1.1-6.1.9-9.1z"/><path class="st14" d="M300 161.7c.8-.2 1.7 0 2.4.3 1.3.6 1.7 2.2 1.5 3.5s-.8 2.8-2.2 3.3c-1.1.5-2.6-.1-2.9-1.3-.5-2 .1-4.2 1.2-5.8zM231 162c.9-.3 2-.3 2.7.3 1.3 1 1.5 2.9 1.1 4.4-.4 1.4-1.8 2.8-3.4 2.5-1.9-.4-2.8-2.6-2.3-4.3.3-1.1.9-2.3 1.9-2.9z"/><path class="st9" d="M211.9 162.8c1.7 1.8 4.3 2.2 6.6 2.6.8.2 1.8.1 2.3.9-2.2 0-4.4-.4-6.5-1-1.2-.3-2.7-1.1-2.4-2.5zM300.7 170.8c2.7-.2 5.4-.7 7.8-1.9v.8c-1.8 1.1-3.8 1.6-5.9 2.1-2.1.4-4.3.7-6.3-.1-.4-.1-.5-.5-.6-.8 1.6-.2 3.3.1 5-.1zM237.4 170.2c1-.3 2-.8 3-1-.1.3-.1.7-.5.9-2.1 1.2-4.5 1.8-6.9 2.1-2 .3-4.1.3-6-.5.5-.9 1.5-.6 2.3-.6 2.7.2 5.5-.1 8.1-.9z"/><path class="st10" d="M294.3 175.5c4.1.1 8.4.4 12.4-.8 0 .3.2.8-.2 1-1.2.8-2.7.9-4.1 1.2-2.6.3-5.3.6-7.9.5-.7 0-1.4-.1-2.1-.3-.4-.2-.5-.9-.1-1.1.6-.5 1.4-.5 2-.5zM266 177.6c.4 0 .8-.1 1.1.2.3.4.4.9.4 1.4.4 2.8-.1 5.6.2 8.4 0 .4.1.8 0 1.2-.2.2-.4.3-.6.5-.5-.9-.8-1.8-.9-2.8-.4-3-.5-6-.2-8.9zM223.3 178.6c3 .1 5.9.7 8.8 1.2 1 .2 2.1.3 3.1.8.4.2.5.6.8.9-.5 0-1 .1-1.5 0-3-.5-6-.7-8.9-1.3-.9-.2-1.6-.5-2.4-.9 0-.3.1-.6.1-.7z"/><path class="st7" d="M298.9 180.9c2.5-.5 5 0 7.4.4 3.1.7 5.6 2.9 7.1 5.7 2.5 4.7 3.1 10.5.9 15.3-1.4 3.4-4.3 6.2-7.7 7.5-2.5 1.2-5.4 1-8 .4-2.3-.7-4.6-1.7-6.2-3.5-1.6-1.9-3.3-3.8-4-6.2-.8-2.2-.8-4.6-.6-6.9.2-1.9.9-3.7 1.7-5.5 1.7-3.8 5.4-6.5 9.4-7.2zM226.5 183.6c1.5-.3 3-.1 4.5.1 3.6.5 6.8 2.6 9.4 5.2 2.6 2.5 4 6.3 3.6 9.9-.3 2.7-.8 5.5-2.2 7.9-2 3.4-5.2 6.4-9.1 7.2-2 .4-4 .8-6 .5-2.5-.3-5-1.1-7-2.7-2.4-2-4-4.8-5.2-7.7-.9-2.2-.8-4.6-.3-6.8.6-2.8 2-5.3 3.6-7.6 1.8-3.1 5-5.3 8.7-6z"/><path class="st9" d="M202.5 191.2c.3.5.5 1.1.7 1.7 1.6 8 4.1 15.8 7 23.4.8 1.9 1.9 3.6 2.7 5.4 1.3 2.7 2.7 5.4 4.2 8.1 3.4 6.6 7.6 12.9 12.1 18.9 1.1 1.6 2.2 3.1 3.4 4.5 1.7 1.8 3.2 3.7 5.1 5.3 1.2 1 2.4 2.2 3.8 3 2.2 1.4 4.4 2.9 6.8 4.2 1.6 1 3.4 1.6 5.1 2.4 3.4 1.6 7.1 2.4 10.8 2.9 1.2.2 2.5.5 3.7.5.6-.1 1.2-.5 1.9-.5 6.3-.3 12.5-2.8 17.5-6.7 3.1-2.2 6.2-4.5 8.9-7.2 3.1-3.3 6.4-6.4 9.1-10 2.6-3.7 5.2-7.4 7.1-11.5 1.8-3.6 2.7-7.4 4.1-11.1 1.2-3.2 1.7-6.6 2.9-9.9.1-.4.4-.7.7-.9.2 1.6-.4 3.1-.7 4.6-.7 2.7-1.7 5.4-2.3 8.1-.6 2-1.4 3.8-1.9 5.8-.4 1.6-1.2 3.2-1.9 4.7-1.1 2.1-2 4.4-3.4 6.3-1.2 1.8-2.4 3.6-3.9 5.2-2.5 2.8-4.8 5.6-7.5 8.2-3 3.2-6.5 5.8-10.1 8.3-1.9 1.4-3.7 2.8-5.9 3.7-3.9 1.8-8 3.5-12.4 3.6-1.1 0-2.3.2-3.4.3-2.8 0-5.6-.5-8.4-1.2-3.6-.6-7-2.3-10.3-3.8-2.3-1-4.3-2.5-6.4-3.8-3.4-2.1-6.5-4.7-9.1-7.7-1.5-1.5-2.8-3.1-4-4.9-2.7-3.7-5.1-7.6-7.7-11.4-1.8-2.7-3.1-5.7-4.7-8.5-2.7-5.5-5.4-11-7.7-16.6-1.9-4.3-3.2-8.8-4.4-13.3-.6-2.7-1.4-5.5-1.8-8.3.2-.7.3-1.3.3-1.8z"/><path class="st11" d="M348.9 162.8c-1.6.3-2.9 1.3-4.1 2.3-3.1 2.8-5.7 6.1-7.8 9.7-1.9 3.3-3.6 6.8-4.8 10.4-.9 2.5-1.3 5.2-1.6 7.8h.7c.5-2.6 1-5.2 2-7.7 1.5-4 3.5-7.8 5.9-11.4 2.3-3.1 4.8-6.1 7.7-8.6.8-.8 1.9-1.2 2.7-2 .1-.4-.4-.6-.7-.5zM193.3 185.9c-1.6-4.3-3.1-8.6-5.2-12.7-1.3-2.5-2.8-4.9-4.9-6.9-1.3-1.2-3.1-2.3-4.9-1.8v.7c1.4.4 2.7 1.2 3.7 2.2 2.8 2.7 4.8 6.1 6.5 9.6 2.9 6 5 12.4 7.1 18.8.2 1.1.4 2.1.7 3.2 0 .3.4.7.6.4.3-1.2-.2-2.5-.6-3.6-.7-3.4-1.8-6.7-3-9.9z"/><path d="M280.6 189.3c-1.9 2.7-4.7 4.4-7.4 6.2-1.1.7-2.3 1.6-3.6 1.8-1.3.2-2.4-.4-3.6-.7-3.3-1.1-6.6-1.9-10-2.4-1.1-.2-2.3-.4-3.3-1.1-.4-.5-.5-1.2-.8-1.7-.2-.1-.5-.1-.7-.2-.4 1.2-.1 2.7 1 3.3 2.1 1.1 4.5 1.2 6.7 1.7 1.3.3 2.8.6 4 1.2.3 1.4.2 2.8.3 4.2-.1 3.3.1 6.6-.1 9.9-.1 2-.1 3.9 0 5.9.1 0 .4-.1.5-.1.6-3.7.9-7.5.8-11.3.1-2.7.1-5.5-.3-8.2.4.1.9.1 1.3.3.5.3.9.8 1.5.9 1.3.2 2.6.1 3.9-.1-.1 2.9.2 5.9.6 8.8.3 2.1.3 4.3.7 6.4.2 1.1.1 2.3.6 3.3h.9c.3-1 .1-2.1-.1-3.1-.8-5.3-.8-10.6-1.5-15.9 2.2-1.7 4.6-3.2 6.8-4.9 1.2-1 2.3-2.4 2.4-4.1-.2-.1-.5-.1-.6-.1z" style="fill:#b95d38"/><path class="st10" d="M268.6 230.5c1.7-.2 3.4-.6 5.2-1 0 .2.1.5.1.6-1.7 1-3.7 1.3-5.6 1.6-2 .3-4.1.6-6.2.2 0-.3.1-.6.1-.8 2.1-.4 4.3-.4 6.4-.6z"/><path class="st9" d="M275.1 232.1c1-.3 2-1 3.1-.6-.5 1.1-1.7 1.5-2.7 2-1.9.9-3.8 1.9-5.9 2.3-2.7.5-5.5.5-8.2.2-1.6-.2-3.1-.8-4.6-1.5.3-.2.5-.6.9-.6 1 .1 2 0 3 0 2.4.4 4.8.2 7.2 0 2.5-.1 4.9-1.1 7.2-1.8z"/><path class="st16" d="M322.8 298.4c.9.6 1.7 1.5 2.6 2-.5-1.2-1.5-2-2.5-2.8-.4-.4-1-.4-1.5-.3.5.4 1 .7 1.4 1.1z"/><path class="st16" d="M233.5 339.1c2 .7 4 1.3 6 1.9 5.2 1.6 10.5 2.2 15.8 3.1 2.8.4 5.5.8 8.3.9 2.3.1 4.7.3 7 .1 2.4-.1 4.8-.3 7.1-.8 3.1-.5 6.1-1 9.1-1.8 6.2-1.8 12.2-4.5 17.4-8.2 5.7-3.6 10.6-8.4 14.5-13.9 2.4-3.4 4.9-6.7 6.9-10.4.8-2.1 2.1-4 2.7-6.2.5-1.8 1-3.6.6-5.4h-.6c0 .8.1 1.6-.1 2.4-.4 1.9-1 3.8-2 5.6-.9 1.7-1.6 3.5-2.7 5.1-1.2 1.9-2.5 3.8-3.8 5.7-1.3 2-2.7 3.9-4.2 5.8-5.7 7.1-13.3 12.5-21.6 16.1-4.1 1.7-8.4 3-12.8 3.7-5.1 1-10.2 1.5-15.4 1.3-3.1-.1-6.2-.3-9.3-.8-5-.8-10-1.3-14.9-2.6-2.1-.6-4.2-1.3-6.3-1.9s-4.2-1.6-6.2-2.4c-1.7-.7-3.4-1.6-5.1-2.4-1.7-.8-3.4-1.6-5-2.7-1.4-1-3.1-1.7-4.5-2.8-3.2-2.4-6.8-4.5-9.4-7.6-1.5-1.4-2.9-2.9-4.6-4.2.2-.6 0-1.2-.5-1.6-.3.1-.6.2-.8.3.3.3.6.7.9.9-.3.1-.6.2-.9.2.5 1 1.5 1.7 2.2 2.5 1.2 1.2 2.5 2.4 3.6 3.6 1.7 1.8 3.8 3 5.7 4.5 1.9 1.2 3.6 2.7 5.6 3.7 1.5.8 2.9 1.9 4.4 2.7 4.5 2 8.6 3.9 12.9 5.6z"/><path class="st16" d="M323 305.1c-.3-.5-.6-.9-1.1-1.3-.9-.7-1.8-1.4-3-1.1.5.5 1.2.8 1.8 1.2.8.4 1.5.9 2.3 1.2zM318.5 307.6c-.6-.4-1.3-.8-2.1-.5 1.5 1.1 3.2 1.9 5 2.3-.8-.8-1.9-1.2-2.9-1.8zM316.7 311.2c-1.2-.8-2.4-1.6-3.9-1.8v.6c2 .8 3.8 2.1 5.7 3.1-.2-1-1.1-1.5-1.8-1.9zM206.6 312.6c.6-.9 1.4-1.8 1.8-2.8-.5.3-.9.6-1.2 1.1-.8 1.1-1.5 2.2-2.1 3.4.6-.5 1-1.1 1.5-1.7zM206.4 317.9c1-.8 1.5-2 2.3-3 .5-.8 1.4-1.5 1.3-2.6-.9.5-1.4 1.4-1.9 2.3-.6 1.1-1.3 2.1-1.7 3.3zM211.2 318.1c.6-.8 1.3-1.6 1.7-2.5 0-.1-.1-.2-.2-.2-1 .4-1.4 1.4-2 2.3-.6 1-1.4 2-1.6 3.2.9-.7 1.4-1.9 2.1-2.8zM213.5 320.9c.6-.9 1.2-1.8 1.7-2.8h-.7c-1.1 1.8-2.2 3.7-3 5.6.9-.8 1.4-1.8 2-2.8zM341 334.3c1.8-1.5 3.6-2.9 5.1-4.6.8-.9 1.2-2.1 1.1-3.3h-.7c-.2.8-.5 1.6-1.1 2.2-1.7 2.1-3.7 3.8-5.7 5.7-1.3 1.2-2.7 2.3-3.9 3.6.4 0 .8 0 1.1-.3 1.5-1.1 2.8-2.2 4.1-3.3zM294.3 334.2c-.4-1.2-1.3-2.3-1.9-3.4-.3-.5-.8-.9-1.3-1.1.3.8.9 1.6 1.4 2.4s1 1.6 1.8 2.1zM175.7 348.2c4.7-3.3 9.8-5.9 15.2-7.8 3.5-1.3 7.2-2.9 9.5-6.1.2-.4.3-.8.4-1.2-.3.1-.6.3-.9.4-.8 1-1.9 1.7-3 2.4-2.7 1.6-5.7 2.6-8.6 3.8-5.7 2.6-11.3 5.7-15.9 10-1.4 1-2.8 2.2-3.9 3.5.3 0 .8.1 1-.2.9-.8 2-1.6 2.8-2.4 1.2-.6 2.2-1.6 3.4-2.4zM252 336c-.2-.1-.4-.1-.6-.2-.4 1.6-.5 3.2-.3 4.8.5-1.4.6-3 .9-4.6zM269 336.3h-.6c.1 1.1.1 2.2.5 3.2.2-1 .2-2.1.1-3.2zM196.1 370.3c-1.8-.5-3.5-1.5-5.4-1.4s-3.7.5-5.4 1.5v.7c1.6-.6 3.4-1.1 5.1-1.1 1.9 0 3.5.9 5.2 1.4 2.3.7 4.8 1 7.2 1.2 2.2.2 4.4.3 6.5-.1v-.7c-1.1 0-2.3.1-3.4.1-3.2-.2-6.6-.6-9.8-1.6zM346.6 369.5c1.6-.8 3.5-1.5 4.6-3-.9.1-1.6.7-2.4 1.1-.9.5-1.9.8-2.7 1.4-4.8 1.8-9.7 3.8-14.7 5.1-3 .8-6.2 1-9.2 1.7-3.3.7-6.3 2.6-8.9 4.7-.6.6-1.4 1.1-1.7 1.9 1.1-.3 1.9-1.1 2.9-1.7 1.9-1.3 3.9-2.5 6-3.3 2.8-1.1 5.9-1.2 8.9-1.8 6-1.1 11.6-3.8 17.2-6.1zM275 377.5c-.8 0-1.5-.4-2.1-.8v.5c1 1.1 2.6 1.4 4 1 2.4-.6 4.8-1.6 7.1-2.4 1.3-.5 2.8-.9 3.5-2.1-2.7 1.4-5.6 2.1-8.4 2.9-1.4.3-2.7.8-4.1.9zM384.5 375.5c-1 .9-1.9 1.9-2.8 2.9-3 3.5-5.5 7.3-8.2 11-.6.8-1.2 1.5-1.7 2.3-.2.5 0 .6.4.4.7-.7 1.3-1.6 1.9-2.4 2.2-3.1 4.6-6.2 7.1-9.1 1.1-1.3 2.4-2.3 3.3-3.8.3-.3.2-.8 0-1.3zM347.3 393.3c-.7.6-1.6 1-2.3 1.6-1.4.5-2.7.9-4.1 1.3-1.8.4-3.7.5-5.5.9-3.8.8-6.9 3.7-8.3 7.3.8-.1 1.2-.8 1.7-1.4 1.3-1.7 3-3.2 5.1-4 2-.8 4.2-1 6.3-1.7 2-.5 3.9-1.3 5.8-2.2 1.1-.6 2.1-1.4 2.8-2.4.2-.3.1-.6.2-.9-.6.5-1.1 1-1.7 1.5zM229.6 402.3c2.2.2 4.3.6 6.5.7.9.3 1.9.3 2.8.2 1.2 0 2.5-.1 3.5-1-.6-.2-1.1-.1-1.7.1-1.5.3-3.1 0-4.6 0-2.3-.4-4.6-.7-7-1.2-2.4-.4-5.1-.9-7.4.2-.9.5-2 1.1-2.2 2.2 1-.5 1.8-1.2 2.9-1.5 2.4-.6 4.8.1 7.2.3zM158.6 410.2c-2.8-1.6-5.7-3.2-8.4-5-1.5-1-2.8-2.2-4.4-3.1-1.7-1-3.6-1-5.5-.9 0 .1.1.3.2.4.9.2 1.9.3 2.9.5 1.2.2 2.3.8 3.2 1.6 3.7 3.1 8.2 5.1 12.4 7.4.7.4 1.3.9 2.1 1.2-.6-1.1-1.6-1.6-2.5-2.1zM367.8 417.4c-1.8 2.2-3.9 4.1-6.1 6-3.3 2.7-6.9 5.2-11.2 6.1v.5c2.4-.1 4.7-1.2 6.8-2.4 3.6-2.1 6.8-4.7 9.7-7.6 1.9-1.9 3.4-4.3 4.5-6.7-.3 0-.6 0-.8-.1-1 1.4-1.8 2.9-2.9 4.2zM222 440.1c.3 3 .5 6 .7 9h1.2c-.1-1.9-.3-3.9-.4-5.8-.5-4.8-.7-9.7-1.1-14.5 1.5 2.2 3.3 4.2 5 6.3 1.5 2 3.1 3.9 4.4 6 .9 1.4 1.8 2.9 2.8 4.3.3.3.6.9 1.2.8.4 0 .6-.4.7-.7.4-1.2.7-2.4 1.2-3.6 1.6-4.1 3.5-8.1 5.4-12.1 1.2-2.5 2.6-4.8 4-7.1 1.5 2.2 3.1 4.3 4.3 6.6 1.3 2.4 3 4.5 4.5 6.8 1.1 1.6 2 3.3 3.2 4.8.5.6.9 1.5 1.8 1.5.6-.2.9-.8 1.1-1.3 1.4-3.2 2.6-6.5 4-9.7 1.9-4.5 3.5-9.1 6-13.3.5 1.7.8 3.4 1.3 5.1.5 1.9 1.3 3.7 2 5.5 1.2 3.2 2.2 6.5 3.3 9.8.6 1.6 1 3.3 1.9 4.8.3.6 1.2.7 1.6.2.7-.9 1-2 1.3-3 1.1-3.2 2.4-6.4 3.7-9.5 1.6-3.8 3.5-7.3 6-10.6.7 1.6 1.2 3.3 1.8 4.9 1 2.4 2 4.9 2.8 7.4.7 2.2 1.9 4.1 2.6 6.3.4 1.2.6 2.5 1.4 3.6.5.6 1.4.3 1.9-.3 1.3-1.6 2.3-3.5 3.4-5.2 2.3-3.6 4.2-7.4 7.2-10.5.5 3.2 1 6.5 1.6 9.7.7 3 1.5 6 1.9 9.1.1 1.3.2 2.7.5 4h1.7c-.2-1.2-.2-2.4-.3-3.5-.2-2.7-.6-5.4-1.2-8.1-.8-3.2-1.3-6.4-2-9.6-.3-1.1-.3-2.2-.9-3.2-.4-.7-1.4-.6-1.9-.1-1.4 1.4-2.7 3-3.8 4.6-2.5 3.5-4.6 7.3-7 10.9-.6-1.6-1-3.3-1.7-4.9-.9-1.9-1.4-3.9-2.2-5.8-1.1-2.9-2.3-5.7-3.5-8.5-.3-.8-.6-1.6-1.2-2.3-.5-.5-1.4-.5-1.9 0-.6.6-1 1.3-1.4 2-1.4 2.2-2.7 4.3-3.8 6.6-2.1 4.5-4 9.1-5.6 13.7-1.1-3.2-2.1-6.4-3.2-9.6-.8-2.7-2-5.2-2.8-7.9-.5-1.7-1-3.5-1.6-5.2-.2-.8-.4-1.6-1-2.1-.5-.3-1.3-.2-1.6.3-.7.9-1.2 2-1.8 3-1.5 2.9-2.7 6-3.9 9-1.7 3.9-3.1 7.9-4.8 11.8-1.7-2.2-3-4.7-4.6-6.9-1.3-1.8-2.6-3.7-3.7-5.7-1.1-1.9-2.4-3.6-3.6-5.5-.4-.5-.9-1.2-1.6-1.2-.7-.1-1.1.7-1.5 1.2-1.5 2.5-3.1 5-4.3 7.8-2.1 4.7-4.4 9.3-5.9 14.2-1.6-2.4-3-4.8-4.8-7.1-2.4-3.2-5.1-6.3-7.5-9.5-.5-.5-.9-1.3-1.7-1.1-.5.1-.5.8-.4 1.2.3 3.9.4 8.1.8 12.2zM138.6 427.8c1.2 2.9 2.2 5.9 3.5 8.8 1.9 4.1 4.2 8 6.3 12.1.1.1.2.3.2.4h.8c-.2-.3-.4-.6-.5-.9-2.4-4.8-4.8-9.5-6.8-14.5-1.5-3.9-3.1-7.8-5-11.5-.1-.6-.3-1.1-.5-1.7-.8.5-.4 1.5-.1 2.2l2.1 5.1zM184.3 431.8c-3.4 0-6.8-.5-10.2-.8-.4 0-.9-.1-1.3.1-.6 0-1.2.1-1.6.5.9.1 1.8.1 2.7 0 3.5.7 7.1 1 10.6 1 2.9-.2 5.9 0 8.6-1.1-.1-.1-.1-.3-.2-.4-2.7.9-5.7.6-8.6.7z"/><path class="st16" d="M292.1 432.2c.3 1.5 1 2.9 1.5 4.3.9 2.5 1.8 4.9 2.9 7.3.8 1.7 1.6 3.5 2.4 5.2h1.5c-.2-.6-.5-1.3-.7-1.9-1.2-2.6-2.5-5.2-3.5-7.9-1.1-2.6-2.4-5.2-3.7-7.7-.1-.2-.3-.4-.4-.7-.1.1-.4.3-.5.3.1.4.3.8.4 1.2l.1-.1zM276.5 445.9c.5 1.1 1.1 2.2 1.6 3.2h1.2c-.6-1.4-1.2-2.7-1.9-4-2.1-4.2-3.6-8.7-5.6-13-.3-.7-.4-1.8-1.4-1.9.1.9.4 1.8.8 2.7 1.6 4.3 3.2 8.8 5.3 13zM244.7 432.7c2.5 5.1 5.1 10.1 8.5 14.7.1.6.2 1.2.5 1.7h1.7c-2-4-4.6-7.6-6.8-11.5-1-1.8-2.1-3.6-3.1-5.4-.3-.4-.7-.7-1.2-.8 0 .4.1.9.2 1.3h.2zM313 446.8c.2.7.5 1.5.8 2.3h1.5c-.5-2.1-1.2-4.1-1.8-6.1-.7-2.1-1.2-4.3-2-6.5-.3 0-.5.1-.8.1 0 .9.2 1.8.3 2.7.6 2.6 1.3 5.1 2 7.5zM291.8 444.7c.6 1.5 1.3 3 2.1 4.4h1.4c-.4-1.8-1.3-3.4-2-5.1-1-2.4-2.1-4.9-3.2-7.3-.4.1-1 .1-.7.7.4 2.5 1.4 4.9 2.4 7.3zM273.8 449.1h1.3c-1-2.5-2.2-4.8-3.4-7.1-.8-1.7-1.6-3.3-2.5-4.9-.1-.1-.2-.2-.2-.3h-.6v1l.1-.1c1.5 3.9 3.2 7.8 5.3 11.4zM245 445.3c.8 1.3 1.8 2.4 2.5 3.8h1.5l-.2-.2c-1.9-3.1-3.6-6.3-5.6-9.3-.3-.6-1.1-1.2-1.6-.4 0 .6.4 1.1.7 1.6l2.7 4.5zM227.4 442c1 2.2 2.1 4.5 3.3 6.6.1.2.2.3.3.5h1.5c-.3-.4-.6-.9-.8-1.4-1.2-2-2.4-3.9-3.5-5.9-.5-1-1.1-2-1.7-3h-.5c.3 1.1.8 2.1 1.4 3.2zM268.6 449.1h1.6c-.8-1.9-1.7-3.8-2.7-5.7-.3-.7-.8-1.3-1.5-1.5 0 .4-.2.9.1 1.4.8 1.9 1.6 3.9 2.5 5.8zM287.6 448.1c.2.3.3.6.5 1h1.8c-.4-.9-.8-1.9-1.3-2.8-.7-1.4-1.7-2.5-2.4-3.8-.3-.2-.6-.3-.8-.4-.1.5-.1 1 .1 1.4.7 1.5 1.4 3.1 2.1 4.6zM308.9 449.1h1.6c-.3-1.2-.6-2.4-1-3.6-.4-1.1-.6-2.3-1.3-3.3-.2.1-.6.3-.7.3-.1 1.3.3 2.6.6 3.9.3 1 .5 1.8.8 2.7zM253.1 438.6c2.1 3.3 3.5 6.9 5.1 10.5h1.4c-.2-.5-.5-1-.7-1.5.1-.3.2-.6.2-.9-.2-.5-.7-1-1.1-1.4-1-1.8-1.9-3.5-2.9-5.3-1.5-2.8-3.3-5.4-4.9-8-.8-1.3-1.6-2.7-2.6-4-.2-.4-.8-.3-1.1-.3.1.8.7 1.5 1.1 2.2 1.6 3 3.7 5.8 5.5 8.7zM226.8 449.1h1.3c-.4-.9-.9-1.8-1.3-2.6-.1-.4-.5-.4-.8-.5-.2 1 .4 1.9.7 2.9 0 0 .1.1.1.2zM241.3 449.1h1.7l-2.4-3.3c0-.1-.1-.2-.2-.3-.2 0-.6.1-.8.1.1.3.1.7.2 1 .6.8 1 1.7 1.5 2.5z"/><path class="st3" d="M265.5 216.3c14.5-1.1 22.9-2.1 23.7-1.2.8.9 1.4 1.9-1.1 4.5-2.6 2.6-9.6 6.9-21.2 6.6-11.6-.3-17.8-2.2-21.2-4.3s-3.3-4.2-.9-4.5c2.2-.2 15.6-.7 20.7-1.1z"/></svg>