<svg xmlns="http://www.w3.org/2000/svg" viewBox="0 0 512 512" style="enable-background:new 0 0 512 512" xml:space="preserve"><path d="M352.5 436.2c-47.2 0-85.4-38.2-85.4-85.4s38.2-85.4 85.4-85.4 85.4 38.2 85.4 85.4c0 47.1-38.2 85.4-85.4 85.4z" style="fill:#f4bd42"/><path d="M144.7 84.1 66.2 220.2c-6.6 11.4 1.6 25.5 14.7 25.5H238c13.1 0 21.3-14.2 14.7-25.5L174.2 84.1c-6.5-11.3-22.9-11.3-29.5 0z" style="fill:#ef225d"/><path d="m367.3 237.8 78.6-136.1c6.6-11.4-1.6-25.5-14.7-25.5H273.9c-13.1 0-21.3 14.2-14.7 25.5l78.6 136.1c6.5 11.3 22.9 11.3 29.5 0z" style="fill:#7703fc"/></svg>