<svg xmlns="http://www.w3.org/2000/svg" viewBox="0 0 512 512" style="enable-background:new 0 0 512 512" xml:space="preserve"><path d="M243.5 192.7v-47.1c0-13.2-7-25.4-18.5-32l-40.8-23.5a36.86 36.86 0 0 0-36.9 0l-40.8 23.5c-11.4 6.6-18.5 18.8-18.5 32v47.1c0 13.2 7 25.4 18.5 32l40.8 23.5c11.4 6.6 25.5 6.6 36.9 0l40.8-23.5c11.5-6.6 18.5-18.8 18.5-32z" style="fill:#7703fc"/><path d="M423.8 192.7v-47.1c0-13.2-7-25.4-18.5-32l-40.8-23.5a36.86 36.86 0 0 0-36.9 0l-40.8 23.5c-11.4 6.6-18.5 18.8-18.5 32v47.1c0 13.2 7 25.4 18.5 32l40.8 23.5c11.4 6.6 25.5 6.6 36.9 0l40.8-23.5c11.5-6.6 18.5-18.8 18.5-32z" style="fill:#ef225d"/><path d="M337.7 366.4v-47.1c0-13.2-7-25.4-18.5-32l-40.8-23.5a36.86 36.86 0 0 0-36.9 0l-40.8 23.5c-11.4 6.6-18.5 18.8-18.5 32v47.1c0 13.2 7 25.4 18.5 32l40.8 23.5c11.4 6.6 25.5 6.6 36.9 0l40.8-23.5c11.4-6.6 18.5-18.8 18.5-32z" style="fill:#3edb85"/></svg>