<svg xmlns="http://www.w3.org/2000/svg" viewBox="0 0 512 512" style="enable-background:new 0 0 512 512" xml:space="preserve"><path d="M138.1 418c-27.2 0-49.3-22.1-49.3-49.3V143.3c0-27.2 22.1-49.3 49.3-49.3 27.2 0 49.3 22.1 49.3 49.3v225.4c0 27.3-22.1 49.3-49.3 49.3z" style="fill:#ef225d"/><path d="M256 418c-27.2 0-49.3-22.1-49.3-49.3V203.9c0-27.2 22.1-49.3 49.3-49.3 27.2 0 49.3 22.1 49.3 49.3v164.8c0 27.3-22.1 49.3-49.3 49.3z" style="fill:#3edb85"/><path d="M373.9 418c-27.2 0-49.3-22.1-49.3-49.3v-97.3c0-27.2 22.1-49.3 49.3-49.3 27.2 0 49.3 22.1 49.3 49.3v97.3c0 27.3-22 49.3-49.3 49.3z" style="fill:#7703fc"/></svg>