<svg version="1.1" id="Layer_1" xmlns="http://www.w3.org/2000/svg" x="0" y="0" viewBox="0 0 512 512" style="enable-background:new 0 0 512 512" xml:space="preserve"><style>.st1{fill:#1ae5be}</style><path d="M439.7 308.3H323.8V114.9c0-4.4-3.6-8-8-8H195.7c-4.4 0-8 3.6-8 8v93.5H72.3c-4.8 0-8.7 3.9-8.8 8.7v276.2c0 4.8 3.9 8.7 8.8 8.7h367.5c4.8 0 8.7-3.9 8.8-8.7V317.1c-.1-4.9-4-8.8-8.9-8.8zM75.5 490V220.4h112.2V490H75.5zm124.2-371.1h112.2V490H199.7V118.9zM436.5 490H323.8V320.3h112.7V490z" style="fill:#7703fc"/><path class="st1" d="M174.4 140.1c-.9-2.9-3.4-5-6.5-5.4l-19.8-2.9-8.8-17.8c-1.3-2.7-4.1-4.5-7.2-4.4-3 0-5.8 1.7-7.2 4.4l-8.8 17.8-19.8 2.9c-4.4.6-7.4 4.7-6.8 9 .3 1.7 1.1 3.4 2.3 4.6l14.3 13.9-3.4 19.6c-.7 4.4 2.2 8.5 6.5 9.2 1.7.3 3.5 0 5.1-.8l17.7-9.3 17.7 9.3c2.7 1.4 6 1.2 8.4-.6 2.5-1.8 3.7-4.8 3.2-7.8l-3.4-19.6 14.3-13.9c2.4-2.1 3.2-5.3 2.2-8.2zM148.2 155c-1.9 1.8-2.8 4.5-2.3 7.1l2.4 13.7-12.4-6.5c-2.3-1.2-5.1-1.2-7.4 0l-12.4 6.5 2.4-13.7c.4-2.6-.4-5.3-2.3-7.1l-10-9.6 13.8-2c2.6-.4 4.9-2 6-4.4l6.2-12.5 6.2 12.5c1.2 2.4 3.4 4 6 4.4l13.8 2-10 9.6zM298.3 40.6c-.9-2.9-3.4-5-6.5-5.4L272 32.3l-8.8-17.8c-2-4-6.8-5.6-10.7-3.6-1.6.8-2.8 2-3.6 3.6L240 32.3l-19.8 2.9c-4.4.6-7.4 4.7-6.8 9 .3 1.8 1.1 3.4 2.3 4.6L230 62.7l-3.4 19.6c-.7 4.4 2.2 8.5 6.5 9.2 1.7.3 3.5 0 5.1-.8l17.7-9.3 17.7 9.3c2.7 1.4 6 1.2 8.4-.6 2.5-1.8 3.7-4.8 3.2-7.8l-3.4-19.6 14.3-13.9c2.3-2.2 3.1-5.3 2.2-8.2zM272 55.5c-1.9 1.8-2.8 4.5-2.3 7.1l2.4 13.7-12.4-6.5c-2.3-1.2-5.1-1.2-7.4 0l-12.4 6.5 2.4-13.7c.4-2.6-.4-5.3-2.3-7.1l-10-9.7 13.8-2c2.6-.4 4.9-2 6-4.4L256 27l6.2 12.5c1.2 2.4 3.4 4 6 4.4l13.8 2-10 9.6zM421.6 238.2l-19.8-2.9-8.8-17.8c-1.3-2.7-4.1-4.5-7.2-4.4-3 0-5.8 1.7-7.2 4.4l-8.8 17.8-19.8 2.9c-4.4.6-7.4 4.7-6.8 9 .3 1.7 1.1 3.4 2.3 4.6l14.3 13.9-3.4 19.6c-.8 4.3 2.2 8.5 6.5 9.2 1.7.3 3.5 0 5.1-.8l17.7-9.3 17.7 9.3c3.9 2 8.7.5 10.8-3.4.8-1.6 1.1-3.3.8-5.1l-3.4-19.6 14.3-13.9c3.2-3.1 3.2-8.1.2-11.3-1.1-1.2-2.7-2-4.5-2.2zm-19.7 20.3c-1.9 1.8-2.8 4.5-2.3 7.1l2.4 13.7-12.4-6.5c-2.3-1.2-5.1-1.2-7.4 0l-12.4 6.5 2.4-13.7c.4-2.6-.4-5.3-2.3-7.1l-10-9.7 13.8-2c2.6-.4 4.9-2 6-4.4l6.2-12.5 6.2 12.5c1.2 2.4 3.4 4 6 4.4l13.8 2-10 9.7z"/></svg>