<svg version="1.1" id="Layer_1" xmlns="http://www.w3.org/2000/svg" x="0" y="0" viewBox="0 0 512 512" style="enable-background:new 0 0 512 512" xml:space="preserve"><style>.st0{fill:#d4e1f4}</style><path class="st0" d="m68.5 245-23.4 56h18.3l22-52.8c-5.4-2.1-11.1-3.2-16.9-3.2zM135.8 61.9h-18.3C106.7 62 98 70.7 98 81.5v86.2h18.3V81.5c0-10.8 8.7-19.5 19.5-19.6zM110.2 239.1c-6-2.6-12.4-4.3-18.9-4.8l22.7-54.4c.2-.4.3-.8.5-1.2H96.1c-.2.4-.3.8-.5 1.2L73 234.3c6.5.5 12.9 2.1 18.9 4.8 5.6 2.3 10.5 4.2 20.8 4.2 3.1 0 6.1-.2 9.1-.6-4-.8-7.9-2-11.6-3.6zM42.4 312h18.3v44.6H42.4V312zM42.4 367.6h18.3V385H42.4v-17.4z"/><path d="M49.4 461c9.9 0 18-8.1 18-18v-47h273.4v47c0 9.9 8 18 18 18 9.9 0 18-8 18-18V311.6c0-4-.8-8-2.3-11.7l-51.7-124.2c-.2-.5-.3-.9-.5-1.4.1-.4.1-.7.1-1.1 0-1.1-.4-2.3-1-3.2-.1-.6-.1-1.2-.1-1.8V81.5c0-16.8-13.7-30.5-30.5-30.5H117.5C100.7 51 87.1 64.6 87 81.5v86.7c0 .6 0 1.2-.1 1.8-.7.9-1 2-1 3.2 0 .4 0 .7.1 1.1-.2.5-.3.9-.5 1.4L33.8 299.8c-1.6 3.7-2.3 7.7-2.3 11.7V443c0 9.9 8 18 17.9 18zm19.1-216c9.3.2 14 2 19.3 4.2 7.8 3.5 16.4 5.2 24.9 5 8.6.2 17.1-1.5 24.9-5 5.6-2.3 10.5-4.2 20.8-4.2s15.2 1.9 20.8 4.2c7.8 3.5 16.4 5.2 24.9 5 8.6.2 17.1-1.5 24.9-5 5.6-2.3 10.5-4.2 20.8-4.2 10.4 0 15.2 1.9 20.9 4.2 16 6.7 33.9 6.7 49.9 0 5.3-2.1 9.8-4 18.9-4.2l23.3 56H45.2l23.3-56zm297.3 67v44.6H42.4V312h323.4zm0 55.6V385H42.4v-17.4h323.4zM56.5 443c0 3.9-3.1 7-7 7s-7-3.1-7-7v-47h14.1l-.1 47zm302.3 7c-3.9 0-7-3.1-7-7v-47h14.1v47c-.1 3.9-3.2 7-7.1 7zM117.5 61.9h173.2c10.8 0 19.5 8.7 19.5 19.5v86.2H257v-13c0-8.1-6.5-14.6-14.6-14.6h-76.5c-8.1 0-14.6 6.5-14.6 14.6v13H98V81.5c0-10.8 8.7-19.5 19.5-19.6zm44.7 92.8c0-2 1.6-3.7 3.7-3.7h76.5c2 0 3.7 1.6 3.7 3.7v25.2c0 2-1.6 3.7-3.7 3.7h-76.5c-2 0-3.7-1.6-3.7-3.7v-25.2zm-66.5 25.2c.2-.4.3-.8.5-1.2h55.2v1.2c0 8.1 6.5 14.6 14.6 14.6h76.5c8.1 0 14.6-6.5 14.6-14.6v-1.2h55.2c.2.4.3.8.5 1.2l22.7 54.4c-6.4.5-12.7 2.1-18.5 4.7-5.6 2.3-10.5 4.2-20.9 4.2s-15.2-1.9-20.9-4.2c-7.8-3.5-16.4-5.2-24.9-5-8.6-.2-17.1 1.5-24.9 5-5.6 2.3-10.5 4.2-20.8 4.2s-15.2-1.9-20.8-4.2c-7.8-3.5-16.4-5.2-24.9-5-8.6-.2-17.1 1.5-24.9 5-5.6 2.3-10.5 4.2-20.8 4.2S98 241.3 92.4 239c-6-2.6-12.4-4.3-18.9-4.8l22.2-54.3z" style="fill:#1ae5be"/><path d="m480.4 124.3-17.3-69.1c-.6-2.4-2.8-4.1-5.3-4.1H406c-2.5 0-4.7 1.7-5.3 4.1l-17.3 69.1c-.7 2.9 1.1 5.9 4 6.6.4.1.9.2 1.3.2h37.7v117.7h-29.1c-3 0-5.5 2.5-5.5 5.5v34.6c0 3 2.5 5.5 5.5 5.5h69.1c3 0 5.5-2.5 5.5-5.5v-34.6c0-3-2.5-5.5-5.5-5.5h-29.1V131.1h12.6v29.6c0 3 2.5 5.5 5.5 5.5s5.5-2.5 5.5-5.5v-29.6h14.2c3 0 5.5-2.5 5.5-5.5-.1-.4-.1-.9-.2-1.3zm-19.5 159h-58.2v-23.6h58.2v23.6zm-65.2-163.2 14.5-58.2h43.3l14.5 58.2h-72.3z" style="fill:#7703fc"/></svg>