<svg version="1.1" id="Layer_1" xmlns="http://www.w3.org/2000/svg" x="0" y="0" viewBox="0 0 512 512" style="enable-background:new 0 0 512 512" xml:space="preserve"><style>.st0{fill:#7703fc}.st1{fill:#1ae5be}</style><path class="st0" d="m220.6 441.4 1.8-9.5c-72.1-13.8-128.5-70.2-142.3-142.3l-9.5 1.8c14.6 76 74 135.4 150 150zM382.6 382.6c-25.3 25.4-57.7 42.6-93 49.3l1.8 9.5c76-14.6 135.4-74 150-150l-9.5-1.8c-6.7 35.3-23.9 67.7-49.3 93zM291.4 70.6l-1.8 9.5c72.1 13.8 128.5 70.2 142.3 142.3l9.5-1.8c-14.6-76-74-135.4-150-150zM156.8 284.5l-9.3 2.7c10.9 37.3 40 66.4 77.3 77.3l2.7-9.3c-34.1-9.9-60.8-36.6-70.7-70.7zM284.5 355.2l2.7 9.3c37.3-10.9 66.4-40 77.3-77.3l-9.3-2.7c-9.9 34.1-36.6 60.8-70.7 70.7zM355.2 227.5l9.3-2.7c-10.9-37.3-40-66.4-77.3-77.3l-2.7 9.3c34.1 9.9 60.8 36.6 70.7 70.7zM147.5 224.8l9.3 2.7c9.9-34.1 36.6-60.7 70.7-70.7l-2.7-9.3c-37.3 10.9-66.4 40-77.3 77.3zM162.1 124.7c-1.6-2.1-4.7-2.5-6.8-.9-20.9 16.1-37.7 37-49 60.9-1.2 2.4-.2 5.3 2.2 6.5 2.4 1.2 5.3.2 6.5-2.2 0 0 0-.1.1-.1 10.6-22.5 26.4-42.2 46.1-57.4 2.1-1.7 2.5-4.7.9-6.8zM172.6 122.6c.9 0 1.8-.2 2.5-.7 1.5-.9 3.1-1.8 4.6-2.7 2.3-1.3 3.2-4.3 1.8-6.6-1.3-2.3-4.3-3.2-6.6-1.8-1.7.9-3.3 1.9-4.9 2.9-2.3 1.4-3 4.4-1.6 6.6.9 1.4 2.5 2.3 4.2 2.3zM117.5 142.6c1.6-2.1 1.2-5.2-.9-6.8-2-1.6-4.9-1.3-6.6.6-20 24.3-33.6 53.3-39.4 84.2l9.5 1.8c5.6-29.3 18.4-56.8 37.4-79.8zM139.1 114.7c1.7 1.7 4.5 1.9 6.4.4 22.4-17.7 48.8-29.7 76.9-35l-1.8-9.5c-29.6 5.6-57.4 18.2-81 36.9-2.1 1.7-2.5 4.7-.8 6.8.1.1.2.3.3.4z"/><path class="st1" d="M221.8 160.7c.2 2.6 2.3 4.5 4.8 4.5h58.7c2.4 0 4.5-1.7 4.8-4.1l6.2-102c.2-1.5-.3-2.9-1.3-4-.9-1-2.2-1.5-3.5-1.5h-71.1c-2.7 0-4.8 2.2-4.8 4.8v.3l6.2 102zm64.6-97.4-5.6 92.3h-49.6l-5.6-92.3h60.8zM220.5 458.4h71.1c2.7 0 4.8-2.2 4.8-4.8v-.3l-6.2-102c-.2-2.6-2.3-4.5-4.8-4.5h-58.7c-2.6 0-4.7 2-4.8 4.5l-6.2 102c-.2 2.7 1.9 5 4.5 5.1h.3zm10.7-102h49.6l5.6 92.3h-60.8l5.6-92.3zM453.3 215.6l-102 6.2c-2.6.2-4.5 2.3-4.5 4.8v58.7c0 2.6 2 4.7 4.5 4.8l102 6.2h.3c2.7 0 4.8-2.2 4.8-4.8v-71.1c0-2.7-2.2-4.8-4.8-4.8h-.3zm-4.6 70.8-92.3-5.6v-49.6l92.3-5.6v60.8zM165.2 285.3v-58.7c0-2.6-2-4.7-4.5-4.8l-102-6.2c-1.3-.1-2.6.4-3.6 1.3s-1.5 2.2-1.5 3.5v71.1c0 2.7 2.2 4.8 4.8 4.8h.3l102-6.2c2.6-.1 4.6-2.2 4.5-4.8zm-9.6-4.5-92.3 5.6v-60.8l92.3 5.6v49.6z"/></svg>