<svg version="1.1" id="Layer_1" xmlns="http://www.w3.org/2000/svg" x="0" y="0" viewBox="0 0 512 512" style="enable-background:new 0 0 512 512" xml:space="preserve"><style>.st1{fill:#1ae5be}</style><path d="M60.1 402.5h205.4v-11.2H60.1c-14.7 0-26.6-11.9-26.6-26.6V146.5h333.8v106h11.2V108.8c0-20.9-16.9-37.8-37.8-37.8h-14.9V60c0-16.3-13.2-29.6-29.6-29.6h-1c-16.3 0-29.5 13.2-29.6 29.6v11H135.1V60c0-16.3-13.2-29.5-29.6-29.6h-1C88.3 30.5 75 43.7 75 60v11H60.1c-20.9 0-37.8 16.9-37.8 37.8v255.9c0 20.9 16.9 37.8 37.8 37.8zM276.8 60c0-10.2 8.2-18.4 18.4-18.4h1c10.2 0 18.4 8.2 18.4 18.4v21c0 10.2-8.2 18.4-18.4 18.4h-1c-10.2 0-18.4-8.2-18.4-18.4V60zM86.2 60c0-10.2 8.2-18.4 18.4-18.4h1c10.2 0 18.4 8.2 18.4 18.4v21c0 10.2-8.2 18.4-18.4 18.4h-1c-10.2 0-18.4-8.2-18.4-18.4V60zM60.1 82.2H75c.7 15.8 13.7 28.4 29.5 28.4h1c15.9 0 28.9-12.5 29.5-28.4h130.6c.7 15.8 13.7 28.4 29.5 28.4h1c15.9 0 28.9-12.5 29.5-28.4h14.9c14.7 0 26.6 11.9 26.6 26.6v26.6H33.5v-26.6c0-14.7 11.9-26.6 26.6-26.6z" style="fill:#7703fc"/><path class="st1" d="M372.4 247c-64.8 0-117.3 52.5-117.3 117.3s52.5 117.3 117.3 117.3 117.3-52.5 117.3-117.3c-.1-64.8-52.5-117.3-117.3-117.3zm0 223.4c-23 .1-45.4-7.4-63.7-21.2-46.9-35.2-56.4-101.7-21.2-148.6s101.7-56.4 148.6-21.2 56.4 101.7 21.2 148.6c-20.1 26.7-51.5 42.4-84.9 42.4z"/><path class="st1" d="M431.4 396.9 378 361.3v-71.5c0-3.1-2.5-5.6-5.6-5.6s-5.6 2.5-5.6 5.6v74.5c0 1.9.9 3.6 2.5 4.6l55.9 37.2c2.5 1.7 6 1.1 7.8-1.5 1.7-2.5 1.1-6-1.6-7.7z"/></svg>