<svg version="1.1" id="Layer_1" xmlns="http://www.w3.org/2000/svg" x="0" y="0" viewBox="0 0 512 512" style="enable-background:new 0 0 512 512" xml:space="preserve"><style>.st1{fill:#7703fc}</style><path d="M178.1 391.6 143 342.3c-.9-1.4-2.5-2.2-4.1-2.3-1.7.1-3.2.9-4.1 2.3l-35.1 49.1c-.1.1-.2.3-.3.4-7.4 12.8-7.3 28.3.3 41.5 12.2 21.6 39.7 29.3 61.3 17 7.1-4 13-9.9 17-17.1 7.6-13.2 7.7-28.6.3-41.3 0-.1-.1-.2-.2-.3zm-8.8 36.6c-9.4 16.8-30.6 22.7-47.4 13.3-5.6-3.1-10.2-7.7-13.3-13.3-5.8-10.1-6-21.4-.5-31.1l30.8-43.1 30.8 43.2c5.5 9.7 5.4 21-.4 31z" style="fill:#1ae5be"/><path class="st1" d="m284.3 155.3-2.9 2.9c-2 2-2 5.2 0 7.2s5.2 2 7.2 0l2.9-2.9c2-2 2-5.2 0-7.2s-5.2-2-7.2 0zM268 171.6l-48 47.9c-2 2-2 5.2 0 7.2s5.2 2 7.2 0l47.9-47.9c2-2 1.9-5.2-.1-7.2-1.9-2-5-2-7 0z"/><path class="st1" d="M405.4 68.3c-8-8.1-19-12.6-30.4-12.5-11.4 0-22.4 4.5-30.4 12.7l-31 31.1-4.9-4.9c-4.4-4.5-10.5-7.1-16.8-7.1-7.1.1-13.8 3.4-18 9.1-2.4 3.1-3.9 6.9-4.5 10.8-1 7.1 1.4 14.2 6.5 19.3l6.5 6.5-85.5 85.5c-2 2-2 5.2 0 7.2s5.2 2 7.2 0l85.5-85.5 43.9 43.9-127.2 127.1c-.9.9-1.9 1.6-3 2.2l-45.5 23.8-22.1-22.1 24.5-44.9c.6-1 1.3-2 2.1-2.8l16.6-16.6c2-2 2-5.2 0-7.2s-5.2-2-7.2 0l-16.6 16.6c-1.5 1.5-2.8 3.2-3.8 5.1L125 313.8c-1.1 2-.7 4.4.9 6l27.4 27.4c1.6 1.6 4 1.9 6 .9l48.8-25.5c2-1.1 3.9-2.4 5.5-4l127.2-127.2 6.2 6.2c4.1 4.2 9.7 6.7 15.6 7 7.5.3 14.7-3.1 19.2-9 2.4-3.1 3.9-6.8 4.5-10.8 1-7.1-1.4-14.2-6.5-19.3l-5.2-5.2 31-31c16.6-16.8 16.6-44.1-.2-61zm-29.2 113.5c0 7-5.7 12.7-12.7 12.7-3.4 0-6.6-1.3-9-3.7l-71.4-71.4c-5-5-5-13 0-18s13-5 18 0l71.4 71.4c2.4 2.4 3.7 5.6 3.7 9zm-8.9-28.6-46.5-46.5 31-31.1c6.1-6.2 14.5-9.7 23.2-9.7h.1c8.7 0 17.1 3.4 23.2 9.6 12.8 12.9 12.8 33.7-.1 46.6l-30.9 31.1z"/></svg>