<svg version="1.1" id="Layer_1" xmlns="http://www.w3.org/2000/svg" x="0" y="0" viewBox="0 0 512 512" style="enable-background:new 0 0 512 512" xml:space="preserve"><style>.st0{fill:#7703fc}</style><path class="st0" d="M217.9 257.7c25.2 0 45.6-20.4 45.6-45.6s-20.4-45.6-45.6-45.6-45.6 20.4-45.6 45.6c0 25.2 20.4 45.6 45.6 45.6zm0-80.2c19.1 0 34.6 15.5 34.6 34.6s-15.5 34.6-34.6 34.6-34.6-15.5-34.6-34.6 15.5-34.6 34.6-34.6zM71.7 137.2h11.1v13.6H71.7v-13.6zM71.7 161.8h11.1v115.5H71.7V161.8z"/><path d="M338.5 201.6c-1.9 0-3.7 1-4.7 2.6L230.1 368.9l-74-78.3c-2.1-2.2-5.6-2.3-7.8-.2-.1.1-.2.1-.2.2L43.7 401.1l8 7.6 100.4-106.3 100.4 106.3 8-7.6-22.6-23.9 100.7-159.7 121 190.4 9.3-5.9-125.7-197.9c-1-1.6-2.8-2.5-4.7-2.5z" style="fill:#1ae5be"/><path class="st0" d="M463.8 101.6H48.2c-3.1 0-5.5 2.5-5.5 5.5v297.8c0 3.1 2.5 5.5 5.5 5.5h415.5c3.1 0 5.5-2.5 5.5-5.5V107.1c.1-3-2.4-5.5-5.4-5.5zm-5.6 297.8H53.8V112.6h404.4v286.8z"/></svg>