<svg version="1.1" id="Layer_1" xmlns="http://www.w3.org/2000/svg" x="0" y="0" viewBox="0 0 512 512" style="enable-background:new 0 0 512 512" xml:space="preserve"><style>.st0{fill:#1ae5be}.st1{fill:#7703fc}</style><path class="st0" d="M334.4 69.5c-1-1.1-2.5-1.7-3.9-1.7H138.8c-12.3 0-22.8 10-22.8 22.4v181.3h10.9V90.2c0-6.3 5.6-11.4 11.9-11.4H325v46.6c0 8.4 6.8 15.2 15.3 15.2h43.8v130.9H395v-136c.1-1.4-.4-2.7-1.3-3.8l-59.3-62.2zm1.6 55.9V86.9l41.3 42.8h-36.7c-2.6 0-4.6-1.8-4.6-4.3z"/><path class="st0" d="M286.9 126.9c0-6-4.9-10.9-10.9-10.9H174.2c-6 0-10.9 4.9-10.9 10.9v23.6c0 6 4.9 10.9 10.9 10.9H276c6 0 10.9-4.9 10.9-10.9v-23.6zm-112.7 0h101.3v23.6H174.2v-23.6zM168.6 197.8h98.6c3 0 5.5-2.4 5.5-5.5s-2.4-5.5-5.5-5.5h-98.6c-3 0-5.5 2.4-5.5 5.5s2.5 5.5 5.5 5.5zM343.4 224.2H168.6c-3 0-5.5 2.4-5.5 5.5s2.4 5.5 5.5 5.5h174.8c3 0 5.5-2.4 5.5-5.5s-2.5-5.5-5.5-5.5zM343.4 262.4H168.6c-3 0-5.5 2.4-5.5 5.5 0 3 2.4 5.5 5.5 5.5h174.8c3 0 5.5-2.4 5.5-5.5s-2.5-5.5-5.5-5.5z"/><path class="st1" d="M293.6 346.9h-75.1c-13.6 0-24.5 11-24.5 24.5s11 24.5 24.5 24.5h75.1c13.6 0 24.5-11 24.5-24.5s-11-24.5-24.5-24.5zm0 38.2h-75.1c-7.5 0-13.6-6.1-13.6-13.6s6.1-13.6 13.6-13.6h75.1c7.5 0 13.6 6.1 13.6 13.6s-6.1 13.6-13.6 13.6zM71.5 291.6c-3 0-5.5 2.4-5.5 5.5v4.3c0 3 2.4 5.5 5.5 5.5s5.5-2.4 5.5-5.5v-4.3c-.1-3-2.5-5.5-5.5-5.5zM71.5 315.8c-3 0-5.5 2.4-5.5 5.5v66.5c0 3 2.4 5.5 5.5 5.5s5.5-2.4 5.5-5.5v-66.5c-.1-3-2.5-5.5-5.5-5.5z"/><path class="st1" d="m470.4 268.5-60.8-84.6c-3.5-4.8-8.7-8.1-14.5-9.3V186c2.2.9 4.2 2.3 5.6 4.3l54.6 75.9h-66.5c-8.4.1-16.1 4.5-20.3 11.7l-9.5 16.3c-2.3 3.9-6.4 6.4-10.9 6.5H164c-4.5-.1-8.7-2.5-10.9-6.5l-9.5-16.3c-4.2-7.2-12-11.7-20.3-11.8H56.8l54.6-75.9c1.2-1.7 2.8-3 4.7-3.9v-11.5c-5.4 1.4-10.2 4.6-13.6 9.1l-60.9 84.6c-.7.9-1 2-1 3.2v148.9c0 13.1 10.6 23.6 23.6 23.6h59.1c3 0 5.5-2.4 5.5-5.5 0-3-2.4-5.5-5.5-5.5h-59c-7.1 0-12.8-5.7-12.8-12.8V276.9h71.7c4.5 0 8.7 2.5 10.9 6.3l9.5 16.3c4.2 7.2 11.9 11.7 20.3 11.9h184c8.4-.1 16.1-4.6 20.3-11.8l9.5-16.3c2.3-3.9 6.4-6.4 10.9-6.4h71.7v143.6c0 7-5.7 12.7-12.7 12.7H161.5c-3 0-5.5 2.4-5.5 5.5 0 3 2.4 5.5 5.5 5.5h286.3c13.1 0 23.7-10.6 23.7-23.7V271.6c-.1-1.1-.5-2.2-1.1-3.1z"/></svg>