<svg version="1.1" id="Layer_1" xmlns="http://www.w3.org/2000/svg" x="0" y="0" viewBox="0 0 512 512" style="enable-background:new 0 0 512 512" xml:space="preserve"><style>.st0{fill:#1ae5be}.st1{fill:#7703fc}</style><path class="st0" d="M373.7 305.8c-30.3 0-55 23.7-55 52.8 0 29.1 24.7 52.8 55 52.8s55-23.7 55-52.8-24.7-52.8-55-52.8zm0 93.4c-23.6 0-42.8-18.2-42.8-40.6s19.2-40.6 42.8-40.6c23.6 0 42.8 18.2 42.8 40.6s-19.2 40.6-42.8 40.6z"/><path class="st1" d="M308 103c0-3.4-2.7-6.1-6.1-6.1H122.4c-3.4 0-6.1 2.7-6.1 6.1v84.7c0 3.4 2.7 6.1 6.1 6.1h179.5c3.4 0 6.1-2.7 6.1-6.1V103zm-12.2 79.6H128.5v-73.4h167.3v73.4z"/><path class="st1" d="M339.6 62.2H84.1c-3.5.1-6.4 2.9-6.6 6.4v209.8H6c-3.2-.1-5.9 2.4-6 5.6v118.6c0 25.9 20.2 47.2 45.1 47.2h259.8c5.7 0 11.4-1.3 16.6-3.8l-5.2-11c-3.6 1.7-7.5 2.6-11.4 2.6H75.5c9.3-9.3 14.4-21.9 14.3-35V74.5h243.8v199.9h12.2V68.6c0-3.4-2.8-6.3-6.2-6.4zM77.5 402.6c0 19.1-14.5 34.7-32.6 34.7s-32.6-15.6-32.6-34.7V290.7h65.3v111.9h-.1z"/><path class="st1" d="M308 235.6c0-3.4-2.7-6.1-6.1-6.1H122.3c-3.4 0-6.1 2.7-6.1 6.1s2.7 6.1 6.1 6.1h179.6c3.3 0 6.1-2.7 6.1-6.1zM292.7 284.6H122.3c-3.4 0-6.1 2.7-6.1 6.1s2.7 6.1 6.1 6.1h170.4c3.4 0 6.1-2.7 6.1-6.1s-2.7-6.1-6.1-6.1zM252.4 350.9h40.2c3.4 0 6.1-2.7 6.1-6.1s-2.7-6.1-6.1-6.1h-40.2c-3.4 0-6.1 2.7-6.1 6.1s2.7 6.1 6.1 6.1zM224.4 337.6c0-3.4-2.7-6.1-6.1-6.1h-95.9c-3.4 0-6.1 2.7-6.1 6.1v61.2c0 3.4 2.7 6.1 6.1 6.1h95.9c3.4 0 6.1-2.7 6.1-6.1v-61.2zm-12.3 55.1h-83.6v-49h83.6v49zM252.4 404.9h40.2c3.4 0 6.1-2.7 6.1-6.1s-2.7-6.1-6.1-6.1h-40.2c-3.4 0-6.1 2.7-6.1 6.1s2.7 6.1 6.1 6.1z"/><path class="st0" d="M481.6 320.3H461l-.1-46.5c0-1.7-.6-3.3-1.8-4.5-1.1-1.2-2.7-1.9-4.3-2l-162.3.4c-3.4.1-6.1 2.8-6.1 6.2l.1 129c0 25.8 21.9 46.9 48.7 46.9h.1l77.1-.2c12.8 0 25.1-4.9 34.3-13.7 9.1-8.6 14.3-20.7 14.3-33.2v-2.8h20.6c16.8 0 30.4-13.2 30.4-29.3v-20.8c0-16.3-13.6-29.5-30.4-29.5zm-32.8 82.3c0 9.2-3.8 18-10.5 24.3-7 6.7-16.2 10.4-25.8 10.4l-77.1.2c-20.1 0-36.4-15.6-36.4-34.6l-.1-122.7 150-.2-.1 122.6zm51-32.1c0 9.4-8.1 17.1-18.1 17.1H461l-.1-55.1h20.7c10 0 18.1 7.7 18.1 17.2l.1 20.8z"/></svg>