<svg version="1.1" id="Layer_1" xmlns="http://www.w3.org/2000/svg" x="0" y="0" viewBox="0 0 512 512" style="enable-background:new 0 0 512 512" xml:space="preserve"><style>.st0{fill:#1ae5be}</style><path class="st0" d="M306.9 480.7c-10 2.4-20.2 4.1-30.4 5.1-3.8.4-6.5 3.7-6.2 7.5.3 3.5 3.3 6.2 6.8 6.2h.7c10.9-1 21.7-2.8 32.3-5.4 3.7-.9 6-4.6 5.1-8.3s-4.6-6-8.3-5.1zM277.2 55.8c3.8 0 6.8-3.1 6.8-6.9 0-3.5-2.7-6.4-6.2-6.8-10.9-1-21.8-1.3-32.8-.8-3.8.2-6.7 3.4-6.5 7.2.1 1.8.9 3.6 2.3 4.8 1.3 1.2 3.1 1.8 4.9 1.7 10.3-.5 20.6-.2 30.8.7.3.1.5.1.7.1zM235.5 485.8c-10.2-1-20.4-2.7-30.4-5.1-3.7-.9-7.4 1.4-8.3 5.1-.9 3.7 1.4 7.4 5.1 8.3 10.6 2.6 21.4 4.4 32.3 5.4h.6c3.8 0 6.8-3.1 6.8-6.9 0-3.5-2.7-6.4-6.1-6.8zM438.7 134.7c-3.7-.6-7.3 1.9-7.9 5.6-.3 1.8.1 3.6 1.2 5.1 6 8.4 11.3 17.2 16.1 26.3 1.7 3.4 5.8 4.8 9.2 3.2 3.4-1.7 4.8-5.8 3.2-9.2 0-.1-.1-.2-.1-.3-5-9.7-10.7-19.1-17.1-28-1.2-1.4-2.8-2.4-4.6-2.7zM372.8 452.5c-8.6 5.6-17.7 10.5-27 14.8-3.4 1.6-5 5.7-3.4 9.1s5.7 5 9.1 3.4c9.9-4.6 19.6-9.8 28.7-15.7 3.2-2.1 4-6.3 2-9.5-2.1-3.2-6.3-4.1-9.4-2.1zM210.1 52.5c-.9-3.7-4.6-6-8.3-5.1-10.6 2.6-21.1 5.9-31.2 10-3.5 1.4-5.3 5.4-3.9 8.9s5.4 5.3 8.9 3.9c0 0 .1 0 .1-.1 9.5-3.8 19.4-7 29.4-9.4 3.7-.8 5.9-4.5 5-8.2zM435.4 403.1c-3-2.3-7.3-1.8-9.6 1.1-6.4 8.1-13.3 15.7-20.7 22.8-2.7 2.6-2.8 7-.2 9.7 2.6 2.7 6.9 2.8 9.7.2 7.9-7.6 15.3-15.7 22.1-24.2 2.2-2.9 1.7-7.2-1.3-9.6zM476.6 245.9c.3 0 .7 0 1-.1 3.8-.5 6.4-4 5.8-7.8-1.5-10.8-3.9-21.5-6.9-32-1.1-3.6-4.9-5.7-8.5-4.7-3.6 1.1-5.7 4.9-4.7 8.5 2.9 9.9 5.1 19.9 6.5 30.1.5 3.5 3.4 6 6.8 6zM468.9 337.2c-3.6-1.2-7.5.7-8.7 4.2-3.4 9.7-7.4 19.2-12.1 28.3-1.8 3.3-.6 7.5 2.7 9.3 3.3 1.8 7.5.6 9.3-2.7.1-.1.1-.2.2-.3 5-9.7 9.3-19.8 12.9-30.2 1.2-3.5-.7-7.4-4.3-8.6zM35.8 235.3c3.7.7 7.3-1.7 8-5.4 1.9-10.1 4.6-20.1 8-29.8 1.2-3.6-.7-7.5-4.2-8.7-3.6-1.2-7.5.7-8.7 4.2-3.6 10.3-6.4 20.9-8.5 31.7-.7 3.7 1.7 7.3 5.4 8zM166.3 467.3c-9.4-4.3-18.4-9.2-27-14.8-3.2-2.1-7.4-1.1-9.5 2.1-2.1 3.2-1.1 7.4 2.1 9.5 9.2 5.9 18.8 11.2 28.8 15.7.9.4 1.9.6 2.9.6 3.8 0 6.9-3.1 6.9-6.9-.2-2.6-1.8-5.1-4.2-6.2zM42.2 301.5C40.7 291.3 40 281 40 270.8c0-3.8-3-6.9-6.8-6.9s-6.9 3-6.9 6.8v.2c0 10.9.8 21.9 2.3 32.7.5 3.4 3.4 5.9 6.8 5.9.3 0 .7 0 1-.1 3.7-.7 6.3-4.1 5.8-7.9zM478.9 263.9c-3.8 0-6.9 3.1-6.9 6.9 0 10.3-.7 20.6-2.2 30.8-.5 3.8 2.1 7.2 5.8 7.8.3 0 .6.1 1 .1 3.4 0 6.3-2.5 6.8-5.9 1.5-10.8 2.3-21.8 2.3-32.7 0-3.9-3.1-7-6.8-7zM141.3 79.5c-2.1-3.2-6.3-4.1-9.5-2.1-9.2 5.9-18 12.5-26.2 19.7-2.9 2.5-3.2 6.8-.7 9.7s6.8 3.2 9.7.7c7.8-6.7 16-12.9 24.7-18.5 3.1-2 4-6.3 2-9.5zM51.8 341.4c-1.2-3.6-5.2-5.5-8.7-4.2-3.6 1.2-5.5 5.2-4.2 8.7 3.6 10.3 7.9 20.4 12.9 30.1 1.7 3.4 5.8 4.8 9.2 3.2 3.4-1.7 4.8-5.8 3.2-9.2 0-.1-.1-.2-.1-.3-4.9-9.1-8.9-18.6-12.3-28.3zM86.2 404.3c-2.3-3-6.7-3.5-9.6-1.1-3 2.3-3.5 6.7-1.1 9.6 6.8 8.6 14.1 16.7 22.1 24.2 2.8 2.6 7.1 2.4 9.7-.3 2.5-2.7 2.4-7-.2-9.6-7.6-7.1-14.5-14.7-20.9-22.8zM85.1 127.6c-3-2.3-7.3-1.8-9.6 1.1-6.8 8.6-12.9 17.7-18.4 27.1-1.9 3.3-.8 7.5 2.5 9.4 1 .6 2.2.9 3.4.9 2.5 0 4.7-1.3 6-3.4 5.2-8.9 10.9-17.4 17.3-25.5 2.3-2.9 1.7-7.2-1.2-9.6zM337.9 45.3c-3.1-2.4-7.6-1.8-10 1.3s-1.8 7.6 1.3 10c3.1 2.4 7.6 1.8 10-1.3 2.4-3.1 1.8-7.6-1.3-10zM355.5 58.9c-3.1-2.4-7.6-1.8-10 1.3s-1.8 7.6 1.3 10c3.1 2.4 7.6 1.8 10-1.3 1.2-1.5 1.7-3.4 1.4-5.2-.3-2-1.2-3.7-2.7-4.8zM373 72.4c-3.1-2.4-7.6-1.8-10 1.3-2.4 3.1-1.8 7.6 1.3 10 3.1 2.4 7.6 1.8 10-1.3 1.2-1.5 1.7-3.4 1.4-5.2-.2-1.9-1.2-3.6-2.7-4.8zM390.6 86c-3.1-2.4-7.6-1.8-10 1.3-2.4 3.1-1.8 7.6 1.3 10 3.1 2.4 7.6 1.8 10-1.3 2.3-3.1 1.8-7.6-1.3-10z"/><path class="st0" d="M408.4 163.2c4 1.1 8.3-.3 10.8-3.6.4-.6.8-1.2 1-1.8l10-31 27.6-17.6c.6-.4 1.1-.8 1.5-1.4 3.5-4.5 2.6-10.9-1.9-14.4-1.9-1.5-4.2-2.2-6.6-2.1L418.7 87l-16-12.4 22-28.5c3.3-4.2 2.5-10.3-1.7-13.6l-6.9-5.3c-5.1-3.9-12.2-3.7-17 .5L372.2 51l-42.5-32.9c-10.7-8.2-26.1-6.2-34.3 4.5-8.2 10.7-6.3 26 4.4 34.3l42.5 32.9-15.8 32c-2.8 5.7-1.2 12.6 3.8 16.5l6.9 5.3c1.7 1.3 3.8 2 5.9 2 .4 0 .8 0 1.3-.1 2.6-.3 4.9-1.6 6.4-3.7l22-28.5 16 12.4 12.3 29.9c.8 3.6 3.6 6.6 7.3 7.6zm-9.1-43.6c-.4-1-1-1.8-1.9-2.5l-30.8-23.8c-2.6-2-6.4-1.5-8.4 1.1s-1.5 6.4 1.1 8.4l4 3.1-20.6 26.7-5.1-3.9c-.5-.4-.7-1.1-.4-1.7l18-36.4c1.3-2.6.6-5.7-1.7-7.4L307 47.3c-5.5-4.2-6.5-12-2.2-17.5s12-6.5 17.5-2.2l46.4 35.9c2.3 1.7 5.4 1.7 7.6-.2l30.6-26.6c.5-.4 1.2-.5 1.8-.1l5.1 3.9-20.6 26.7-4-3.1c-2.6-2-6.4-1.5-8.4 1.1s-1.5 6.4 1.1 8.4l30.8 23.8c.8.6 1.8 1.1 2.9 1.2l30 4-23.7 15.1c-1.2.8-2.1 1.9-2.5 3.2l-8.6 26.7-11.5-28z"/><path d="M256 126.8c-79.4 0-144 64.6-144 144s64.6 144 144 144 144-64.6 144-144-64.6-144-144-144zm-5.1 12.1 6.1 37.3c.6 3.4-1 6.9-3.9 8.8L230 200.3c-7.1 4.6-10.6 13-9 21.3l3.1 16.3c1.3 6.5 5.5 12 11.4 14.9l16.3 7.8c3.6 1.7 5.6 5.6 4.9 9.5l-5.9 32.9c-.2 1.4-.8 2.6-1.6 3.7-2.9 3.9-8.5 4.7-12.4 1.8-1.2-.9-2.1-2-2.7-3.4l-6-12.8c-3.4-7.3-10.8-12-18.9-12.1H185c-4.3 0-8.5 1.3-12 3.8l-16.2 11.4c-2.1 1.5-4.7 1.9-7.1 1.4l-24.1-5.7c-1-6.7-1.6-13.6-1.6-20.4 0-71 56.5-129.1 126.9-131.8zM128.3 304.1l18.6 4.4c5.8 1.4 11.9.2 16.8-3.2l16.2-11.4c1.5-1 3.3-1.6 5.1-1.6h24.1c3.4 0 6.6 2 8 5.1l6 12.8c3.1 6.7 9.4 11.2 16.7 11.9.7.1 1.5.1 2.2.1 6.6 0 12.7-3.1 16.6-8.4 1.9-2.6 3.2-5.6 3.8-8.8l5.9-32.9c1.6-9.2-3-18.4-11.5-22.5l-16.3-7.8c-2.5-1.2-4.3-3.6-4.8-6.3l-3.1-16.3c-.7-3.5.8-7.1 3.8-9l23.2-15.2c6.9-4.5 10.5-12.7 9.1-20.8l-5.8-35.3c36.8 2 71.1 19.3 94.5 47.7l-10.2 7.3c-5.8 4.2-10 10.3-11.8 17.2l-3.2 12.7c-3 11.7 1.2 24 10.7 31.5 5.6 4.4 8.2 11.6 6.6 18.5L343 303c-.8 3.4-2.5 6.6-5 9l-5.7 5.7c-6.6 6.5-9.9 15.7-8.8 24.9l4.2 38.8c-21.4 14-46.4 21.4-71.9 21.4-61-.1-112.7-42-127.5-98.7zm210.8 69.1-3.5-31.9c-.6-5.6 1.3-11.1 5.3-15.1l5.7-5.7c4.1-4.1 7-9.3 8.3-14.9l6.5-29.2c2.5-11.5-1.7-23.3-10.9-30.6-5.8-4.5-8.3-12-6.5-19l3.2-12.7c1.1-4.2 3.6-7.9 7.1-10.4l10.5-7.5c38.9 56.8 27.7 133.8-25.7 177z" style="fill:#7703fc"/></svg>