<svg version="1.1" id="Layer_1" xmlns="http://www.w3.org/2000/svg" x="0" y="0" viewBox="0 0 512 512" style="enable-background:new 0 0 512 512" xml:space="preserve"><style>.st1{fill:#7703fc}</style><path d="M287.9 351.7c6.9-6.9 6.8-18.1-.2-25-1.5-1.5-3.3-2.7-5.3-3.6l-7.1 3.1v5.9c3.9 0 7.2 3.1 7.2 7s-3.1 7.2-7 7.2h-40c-3.9 0-7.2-3.1-7.2-7s3.1-7.2 7-7.2h.2v-6.5l-7.6-2.4c-8.8 4.2-12.6 14.7-8.4 23.5.9 1.8 2 3.4 3.4 4.9-6.8 6.9-6.8 18 0 24.9-6.9 6.9-6.9 18.1.1 25 3.3 3.3 7.8 5.1 12.5 5.1h3.2c-.2 10-.9 20-1.6 29.7-.8 11.5-1.7 23.5-1.7 35.5 0 2.9 2.4 5.3 5.3 5.3h24.8c2.9 0 5.3-2.4 5.3-5.3 0-11.6.9-23.4 1.7-34.7.7-9.9 1.5-20.2 1.7-30.5h1.2c9.8 0 17.7-7.9 17.7-17.7 0-4.7-1.8-9.2-5.1-12.5 6.7-6.7 6.7-17.8-.1-24.7zm-26 84.8c-.7 9.8-1.5 20-1.7 30.2H246c.2-9.9.9-19.8 1.6-29.4.7-9.9 1.5-20.2 1.7-30.5h14.2c-.2 9.9-.9 19.9-1.6 29.7zm13.4-40.4h-39.8c-3.9 0-7.2-3.1-7.2-7s3.1-7.2 7-7.2h40c3.9 0 7.2 3.1 7.2 7s-3.1 7.2-7 7.2h-.2zm0-24.9h-39.8c-3.9 0-7.2-3.1-7.2-7s3.1-7.2 7-7.2h40c3.9 0 7.2 3.1 7.2 7s-3.1 7.2-7 7.2h-.2z" style="fill:#1ae5be"/><path class="st1" d="M336.5 124.7h-5.3V57.1c.1-12.4-9.9-22.4-22.2-22.5-12.4-.1-22.4 9.9-22.5 22.2V124.7h-61V57.1c.1-12.4-9.9-22.4-22.2-22.5-12.4-.1-22.4 9.9-22.5 22.2V124.7h-5.3c-4.9 0-8.8 3.9-8.8 8.8V232c0 25.3 14.9 48.2 37.9 58.6v14.8c0 14.8 12 26.7 26.7 26.7h49.3c14.8 0 26.7-12 26.7-26.7v-14.8c23.1-10.4 37.9-33.3 37.9-58.6v-98.5c.1-4.8-3.8-8.8-8.7-8.8zm-39.4-67.6c-.1-6.5 5.2-11.8 11.7-11.9 6.5-.1 11.8 5.2 11.9 11.7v67.8h-23.6V57.1zm-105.8 0c-.1-6.5 5.2-11.8 11.7-11.9 6.5-.1 11.8 5.2 11.9 11.7v67.8h-23.6V57.1zm105.5 248.3c0 8.9-7.2 16.1-16.2 16.2h-49.3c-8.9 0-16.1-7.2-16.2-16.2v-11.1c5.1 1.3 10.4 2 15.7 2H281c5.3 0 10.6-.7 15.7-2l.1 11.1zm-15.7-19.7h-50.2c-29.6 0-53.6-24-53.7-53.7v-62.7h6.2c2.9 0 5.3-2.4 5.3-5.3s-2.4-5.3-5.3-5.3h-6.2v-23.4h157.5v23.4H229.3c-2.9 0-5.3 2.4-5.3 5.3s2.4 5.3 5.3 5.3h105.5V232c-.1 29.6-24.1 53.6-53.7 53.7z"/><path class="st1" d="M279.4 214.1h-46.8c-2.9 0-5.3 2.4-5.3 5.3s2.4 5.3 5.3 5.3h46.8c2.9 0 5.3-2.4 5.3-5.3s-2.4-5.3-5.3-5.3zM271.7 230.8h-31.4c-2.9 0-5.3 2.4-5.3 5.3s2.4 5.3 5.3 5.3h31.4c2.9 0 5.3-2.4 5.3-5.3s-2.4-5.3-5.3-5.3zM264 247.6h-16c-2.9 0-5.3 2.4-5.3 5.3s2.4 5.3 5.3 5.3h16c2.9 0 5.3-2.4 5.3-5.3 0-3-2.4-5.3-5.3-5.3zM199.3 232v-29.8c0-2.9-2.4-5.3-5.3-5.3s-5.3 2.4-5.3 5.3V232c0 9.2 3 18.1 8.5 25.4 1.8 2.3 5.1 2.8 7.4 1 2.3-1.8 2.8-5.1 1-7.4-4.1-5.5-6.3-12.1-6.3-19zM194 190.3c2.9 0 5.3-2.4 5.3-5.3v-3.7c0-2.9-2.4-5.3-5.3-5.3s-5.3 2.4-5.3 5.3v3.7c0 2.9 2.4 5.3 5.3 5.3z"/></svg>