<svg version="1.1" id="Layer_1" xmlns="http://www.w3.org/2000/svg" x="0" y="0" viewBox="0 0 512 512" style="enable-background:new 0 0 512 512" xml:space="preserve"><style>.st0{fill:#7703fc}</style><path class="st0" d="M136.7 343.5c0-2.9-2.3-5.2-5.2-5.2s-5.2 2.3-5.2 5.2v4.1c0 2.9 2.3 5.2 5.2 5.2s5.2-2.3 5.2-5.2v-4.1zM131.5 361.3c-2.9 0-5.2 2.3-5.2 5.2v46.9c0 2.9 2.3 5.2 5.2 5.2s5.2-2.3 5.2-5.2v-46.9c0-2.9-2.4-5.2-5.2-5.2z"/><path class="st0" d="M113.3 358.9v-11c0-29.7 21.1-55.5 50.4-60.7 34.4-6.2 59.4-36.1 59.5-71h-10.4c-.1 29.8-21.4 55.3-50.7 60.7-34.3 6.2-59.2 36.1-59.2 70.9v11c0 2.9 2.3 5.2 5.2 5.2s5.2-2.2 5.2-5.1zM349.9 277c-29.3-5.4-50.6-30.9-50.7-60.7h-10.4c.1 34.9 25.1 64.8 59.5 71 29.3 5.2 50.4 31 50.4 60.7v71.7l-19.8 6.9c-79.6 27.6-166.1 27.6-245.7 0l-19.8-6.9v-24.4c0-2.9-2.3-5.2-5.2-5.2-2.9 0-5.2 2.3-5.2 5.2v28.1c0 2.2 1.3 4.2 3.4 4.9l23.4 8.1c81.8 28.4 170.8 28.4 252.6 0l23.3-8.1c2.1-.7 3.4-2.7 3.4-4.9V348c0-34.9-24.9-64.8-59.2-71z"/><path d="M256 233.5c38.7-.1 70.1-31.5 70-70.2v-38.7c0-38.7-31.4-70-70-70s-70 31.4-70 70v38.7c-.1 38.7 31.3 70.1 70 70.2zm-59.7-108.9c0-33 26.7-59.7 59.7-59.7s59.7 26.7 59.7 59.7v38.7c0 33-26.7 59.7-59.7 59.7s-59.7-26.7-59.7-59.7v-38.7z" style="fill:#1ae5be"/></svg>