<svg xmlns="http://www.w3.org/2000/svg" viewBox="0 0 512 512" style="enable-background:new 0 0 512 512" xml:space="preserve"><path d="M430.5 371v-40.1c0-3.9-3.1-7-7-7H263v-45h-14v45H91.2c-3.9 0-7 3.1-7 7v39.7c-22.6 2.8-40.2 22.8-40.2 47 0 26.1 20.4 47.3 45.5 47.3s45.5-21.2 45.5-47.3c0-23-15.9-42.2-36.8-46.4V338h318.3v32.8c-22.3 3.1-39.5 22.9-39.5 46.9 0 26.1 20.4 47.3 45.5 47.3s45.5-21.2 45.5-47.3c0-23.4-16.2-42.8-37.5-46.7zM121 417.5c0 18.4-14.1 33.3-31.5 33.3S58 435.9 58 417.5s14.1-33.3 31.5-33.3 31.5 15 31.5 33.3zm301.5 33.4c-17.4 0-31.5-14.9-31.5-33.3s14.1-33.3 31.5-33.3 31.5 14.9 31.5 33.3c0 18.3-14.1 33.3-31.5 33.3z" style="fill:#1ae5be"/><path d="M357.4 115.6c-.6-19.5-16.6-34.9-36-35h-54.5c-.1 0-.1 0-.2-.1l-19.8-21.6c-6.8-7.5-16.5-11.7-26.6-11.7h-65.2c-19.9 0-36 16.1-36.1 36.1v170.4c0 19.9 16.1 36 36.1 36.1H357c19.9 0 36-16.2 36.1-36.1V151.6c-.1-19.7-16-35.8-35.7-36zM180.2 253.5c0 12.2-9.9 22-22.1 22.1H155c-12.2 0-22-9.9-22.1-22.1V83.2c0-12.2 9.9-22 22.1-22.1h65.2c6.2 0 12.1 2.6 16.3 7.2L256.3 90c2.7 3 6.5 4.6 10.5 4.6h54.5c11.8 0 21.4 9.2 22 21H216.2c-19.9 0-36 16.1-36.1 36.1l.1 101.8zm198.8 0c0 12.2-9.9 22-22.1 22.1H186.6c4.9-6.3 7.6-14.1 7.5-22.1V151.6c0-12.2 9.9-22 22.1-22.1h140.7c12.2 0 22 9.9 22.1 22.1v101.9z" style="fill:#7703fc"/></svg>