<svg version="1.1" id="Layer_1" xmlns="http://www.w3.org/2000/svg" x="0" y="0" viewBox="0 0 512 512" style="enable-background:new 0 0 512 512" xml:space="preserve"><style>.st0{fill:#1ae5be}</style><path class="st0" d="M420 192.7c-1.4-.7-3-.8-4.5-.3l-61.1 20.2-8.8-61.2c0-1.3-.5-2.5-1.3-3.5-1-1.3-2.6-2.1-4.2-2.2-8.8-.5-26.3 2.1-44.9 24.6-26.2 31.5-22 78.4 9.4 104.7 13.3 11.2 30.1 17.4 47.5 17.4 2.2 0 4.4-.1 6.7-.3 19.6-1.7 37.8-11.2 50.3-26.4 16.1-19.3 21.4-45.3 14.1-69.3-.7-1.7-1.7-3-3.2-3.7zM401 259c-22.8 27-63.1 30.4-90.1 7.6-26.9-22.7-30.4-62.8-7.8-89.8 13.4-16.2 25.7-20 32.7-20.7l9 62.6c.1 3.3 2.8 5.8 6.1 5.7.6 0 1.2-.1 1.7-.3l61.7-20.4c4.4 19.5-.5 40-13.3 55.3z"/><path class="st0" d="M357 196.9c.5 3.5 3.8 6 7.3 5.5.3 0 .7-.1 1-.2L412 188c3.4-1 5.4-4.5 4.4-8 0-.1 0-.1-.1-.2-1.4-4.4-5.6-15.6-14.8-24.9-12-12.1-27.9-16.4-46.2-12.5-3.2.7-5.4 3.7-5.1 7l6.8 47.5zm37.1-34.8c4.7 4.9 8.4 10.7 10.9 17l-38.5 11.7-5.6-39.1c13.4-1.8 24.5 1.6 33.2 10.4zM89 319.6c2.9 0 5.2-2.3 5.2-5.2v-156h26.5v156c0 2.9 2.3 5.2 5.2 5.2s5.2-2.3 5.2-5.2V155.1c0-3.8-3.1-6.9-6.9-7H90.8c-3.8 0-6.9 3.1-6.9 7v159.4c-.1 2.8 2.2 5.1 5.1 5.1zM144.2 319.6c2.9 0 5.2-2.3 5.2-5.2V194.1h26.5v120.4c0 2.9 2.3 5.2 5.2 5.2s5.2-2.3 5.2-5.2V190.7c0-3.8-3.1-6.9-6.9-7h-33.3c-3.8 0-6.9 3.1-6.9 7v123.8c-.2 2.8 2.1 5.1 5 5.1zM199.3 319.6c2.9 0 5.2-2.3 5.2-5.2v-75.9H231v75.9c0 2.9 2.3 5.2 5.2 5.2s5.2-2.3 5.2-5.2v-79.3c0-3.8-3.1-6.9-6.9-7h-33.3c-3.8 0-6.9 3.1-6.9 7v79.3a5 5 0 0 0 5 5.2z"/><path d="M233.1 413.9h-54.9c-2.9 0-5.2 2.3-5.2 5.2v22.4c0 2.9 2.3 5.2 5.2 5.2h158.4c2.9 0 5.2-2.3 5.2-5.2v-22.4c0-2.9-2.3-5.2-5.2-5.2h-54.9v-42.5h164c12.4 0 22.4-10 22.4-22.4V87.8c0-12.4-10-22.4-22.4-22.4H66.3c-12.4 0-22.4 10-22.4 22.4V349c0 12.4 10 22.4 22.4 22.4h166.8v42.5zm98.3 22.3h-148v-12h148v12zm-60-22.3h-28v-42.5h28v42.5zM66.3 75.8h379.5c6.7 0 12.1 5.4 12.1 12.1v221.5H54.2V87.8c0-6.6 5.4-12 12.1-12zM54.2 349v-29.3h403.6V349c0 6.7-5.4 12.1-12.1 12.1H66.3c-6.7-.1-12.1-5.5-12.1-12.1z" style="fill:#7703fc"/></svg>