<svg version="1.1" id="Layer_1" xmlns="http://www.w3.org/2000/svg" x="0" y="0" viewBox="0 0 512 512" style="enable-background:new 0 0 512 512" xml:space="preserve"><style>.st1{fill:#7703fc}</style><path d="M471.5 133H443v12h28.5c3.4.1 6.3 2.8 6.5 6.2v256.6c-.2 3.4-3 6.1-6.5 6.2H287v-26h-12v23.8c-12.5-3.2-25.5-3.2-38 0V388h-12v26H40.5c-3.4-.1-6.3-2.8-6.5-6.2V151.2c.2-3.4 3-6.2 6.5-6.2H68v-12H40.5c-9.9 0-18.5 8.3-18.5 18.2v256.6c0 9.9 8.5 18.2 18.5 18.2H232c.7 0 1.4-.2 2.1-.5 14.1-5.3 29.7-5.3 43.8.1.7.3 1.4.4 2.1.4h191.5c9.9 0 18.5-8.3 18.5-18.2V151.2c0-9.9-8.5-18.2-18.5-18.2z" style="fill:#1ae5be"/><path class="st1" d="M100.1 385h101.4c2.9.1 5.9.7 8.6 1.8l33.2 12.2c8.2 3 17.2 3.1 25.4.1l33.2-12.3c2.7-1.1 5.7-1.7 8.6-1.7h101.4c20.3.2 36.9-16.1 37.1-36.4V123.4c0-20.5-16.5-37.3-37.1-37.4H310.5c-4.3 0-8.6.8-12.7 2.3l-33.2 12.1c-5.6 2-11.6 2-17.2 0l-33.2-12.2c-4.1-1.5-8.4-2.3-12.7-2.3H100.1c-20.6.2-37.1 16.9-37.1 37.5v224.9c0 20.3 16.5 36.7 36.8 36.7h.3zm168.6-273.2 33.2-12.2c2.8-1 5.7-1.6 8.6-1.6h101.4c13.9.1 25.1 11.5 25.1 25.4v224.9c0 13.6-11.1 24.7-24.7 24.7H310.5c-4.3.1-8.6.9-12.7 2.5l-33.2 12.2c-.9.3-1.7.6-2.6.9v-275c2.3-.4 4.5-1 6.7-1.8zM75 123.4c0-13.9 11.2-25.3 25.1-25.4h101.4c2.9 0 5.8.6 8.6 1.6l33.2 12.1c2.2.8 4.4 1.4 6.7 1.8v275c-.9-.2-1.7-.5-2.6-.8l-33.2-12.3c-4.1-1.6-8.4-2.4-12.7-2.5H100.1c-13.6.2-24.9-10.7-25.1-24.3V123.4z"/><path class="st1" d="M301.9 169h39.9c3.3 0 6-2.7 6-6s-2.7-6-6-6h-39.9c-3.3 0-6 2.7-6 6s2.7 6 6 6zM301.9 218h94.4c3.3 0 6-2.7 6-6s-2.7-6-6-6h-94.4c-3.3 0-6 2.7-6 6s2.7 6 6 6zM301.9 267h94.4c3.3 0 6-2.7 6-6s-2.7-6-6-6h-94.4c-3.3 0-6 2.7-6 6s2.7 6 6 6zM301.9 316h94.4c3.3 0 6-2.7 6-6s-2.7-6-6-6h-94.4c-3.3 0-6 2.7-6 6s2.7 6 6 6zM115.6 267H210c3.3 0 6-2.7 6-6s-2.7-6-6-6h-94.4c-3.3 0-6 2.7-6 6s2.7 6 6 6zM115.6 316H210c3.3 0 6-2.7 6-6s-2.7-6-6-6h-94.4c-3.3 0-6 2.7-6 6s2.7 6 6 6zM216 163c0-3.3-2.7-6-6-6h-94c-3.3 0-6 2.7-6 6v53c0 3.3 2.7 6 6 6h94c3.3 0 6-2.7 6-6v-53zm-94 6h82v41h-82v-41z"/></svg>