<svg version="1.1" id="Calque_1" xmlns="http://www.w3.org/2000/svg" xmlns:xlink="http://www.w3.org/1999/xlink" x="0" y="0" viewBox="0 0 480 480" style="enable-background:new 0 0 480 480" xml:space="preserve"><style>.st0{fill:#394d54}.st2{fill:#00acd3}.st3{fill:#20c2ef}.st4{stroke:#394d54;stroke-width:1.56}</style><path id="path14" class="st0" d="M264.5 207.3h28V236h14.1c6.5 0 13.2-1.2 19.5-3.2 3-1 6.5-2.5 9.5-4.3-4-5.2-6-11.7-6.6-18.2-.8-8.7.9-20.1 6.9-27l3-3.4 3.5 2.9c8.8 7.1 16.3 17 17.6 28.4 10.6-3.1 23.1-2.3 32.6 3l3.9 2.2-2.1 3.9c-7.9 15.4-24.5 20.2-40.7 19.5-24.3 60.5-77.2 89.1-141.3 89.1-33.1 0-63.4-12.3-80.8-41.8-1-1.8-1.9-3.8-2.9-5.6-5.8-13-7.8-27.1-6.5-41.3l.4-4.3h24v-28.7h28v-28h56V151h33.6l.3 56.3"/><defs><path id="SVGID_1_" d="M176.8 153.6V210h-27v28.2h-22.6c-.1.8-.1 1.7-.3 2.5-1.4 15.3 1.3 29.6 7.4 41.6l2.1 3.8c1.3 2.2 2.7 4.3 4.2 6.4 1.6 2.1 2.1 3.1 3 4.5 16.3 18.3 40.6 27.1 68.6 27.1 62.1 0 114.8-27.5 138.2-89.4 16.6 1.7 32.4-2.6 39.7-16.7-11.5-6.6-26.3-4.5-34.9-.3l22.6-64.2-88.4 56.4h-28.2v-56.3h-84.4z"/></defs><clipPath id="SVGID_2_"><use xlink:href="#SVGID_1_" style="overflow:visible"/></clipPath><g id="g16" style="clip-path:url(#SVGID_2_)"><g id="g18"><g id="g20" transform="translate(0 -22.866)"><path id="path22" class="st2" d="M235.5 150.7h24.3V175h-24.3v-24.3z"/><path id="path24" class="st3" d="M235.5 178.7h24.3V203h-24.3v-24.3z"/><path id="path26" class="st4" d="M238.4 173v-20.2m3.7 20.2v-20.2m3.7 20.2v-20.2m3.7 20.2v-20.2m3.7 20.2v-20.2m3.7 20.2v-20.2"/><path class="st4" d="M238.4 207.8v-20.2m3.7 20.2v-20.2m3.7 20.2v-20.2m3.7 20.2v-20.2m3.7 20.2v-20.2m3.7 20.2v-20.2" transform="translate(0 22.866)" id="use28"/></g><g id="use30"><path class="st2" d="M270.3 46h24.3V21.7h-24.3V46z" transform="matrix(1 0 0 -1 22.866 27.439)"/><path class="st3" d="M270.3 17.9h24.3V-6.3h-24.3v24.2z" transform="matrix(1 0 0 -1 22.866 27.439)"/><path class="st4" d="M273.3 23.8V44m3.7-20.2V44m3.7-20.2V44m3.6-20.2V44m3.8-20.2V44m3.6-20.2V44" transform="matrix(1 0 0 -1 22.866 27.439)"/><path class="st4" d="M273.3 2.5v20.2M277 2.5v20.2m3.7-20.2v20.2m3.6-20.2v20.2m3.8-20.2v20.2m3.6-20.2v20.2" transform="matrix(1 0 0 -1 22.866 4.573)"/></g></g><g id="use32"><path class="st2" d="M96.2 220.3h24.3v24.3H96.2v-24.3z" transform="translate(-91.464 22.866)"/><path class="st3" d="M96.2 248.4h24.3v24.4H96.2v-24.4z" transform="translate(-91.464 22.866)"/><path class="st4" d="M99.1 242.6v-20.2m3.7 20.2v-20.2m3.6 20.2v-20.2m3.8 20.2v-20.2m3.6 20.2v-20.2m3.6 20.2v-20.2" transform="translate(-91.464 22.866)"/><path class="st4" d="M99.1 277.5v-20.2m3.7 20.2v-20.2m3.6 20.2v-20.2m3.8 20.2v-20.2m3.6 20.2v-20.2m3.6 20.2v-20.2" transform="translate(-91.464 45.732)"/><path class="st2" d="M131 88.5h24.3V64.3H131v24.2z" transform="matrix(1 0 0 -1 -68.598 73.17)"/><path class="st3" d="M131 60.5h24.3V36.2H131v24.3z" transform="matrix(1 0 0 -1 -68.598 73.17)"/><path class="st4" d="M134 66.2v20.2m3.6-20.2v20.2m3.6-20.2v20.2m3.8-20.2v20.2m3.6-20.2v20.2m3.7-20.2v20.2" transform="matrix(1 0 0 -1 -68.598 73.17)"/><path class="st4" d="M134 45v20.2m3.6-20.2v20.2m3.6-20.2v20.2M145 45v20.2m3.6-20.2v20.2m3.7-20.2v20.2" transform="matrix(1 0 0 -1 -68.598 50.305)"/></g><g id="use34"><path class="st2" d="M165.8 220.3h24.3v24.3h-24.3v-24.3z" transform="translate(-45.732 22.866)"/><path class="st3" d="M165.8 248.4h24.3v24.4h-24.3v-24.4z" transform="translate(-45.732 22.866)"/><path class="st4" d="M168.8 242.6v-20.2m3.6 20.2v-20.2m3.7 20.2v-20.2m3.7 20.2v-20.2m3.7 20.2v-20.2m3.6 20.2v-20.2" transform="translate(-45.732 22.866)"/><path class="st4" d="M168.8 277.5v-20.2m3.6 20.2v-20.2m3.7 20.2v-20.2m3.7 20.2v-20.2m3.7 20.2v-20.2m3.6 20.2v-20.2" transform="translate(-45.732 45.732)"/><path class="st2" d="M200.6 88.5h24.3V64.3h-24.3v24.2z" transform="matrix(1 0 0 -1 -22.866 73.17)"/><path class="st3" d="M200.6 60.5h24.3V36.2h-24.3v24.3z" transform="matrix(1 0 0 -1 -22.866 73.17)"/><path class="st4" d="M203.6 66.2v20.2m3.7-20.2v20.2m3.7-20.2v20.2m3.6-20.2v20.2m3.7-20.2v20.2m3.6-20.2v20.2" transform="matrix(1 0 0 -1 -22.866 73.17)"/><path class="st4" d="M203.6 45v20.2m3.7-20.2v20.2M211 45v20.2m3.6-20.2v20.2m3.7-20.2v20.2m3.6-20.2v20.2" transform="matrix(1 0 0 -1 -22.866 50.305)"/></g><g id="use36"><path class="st2" d="M235.5 220.3h24.3v24.3h-24.3v-24.3z" transform="translate(0 22.866)"/><path class="st3" d="M235.5 248.4h24.3v24.4h-24.3v-24.4z" transform="translate(0 22.866)"/><path class="st4" d="M238.4 242.6v-20.2m3.7 20.2v-20.2m3.7 20.2v-20.2m3.7 20.2v-20.2m3.7 20.2v-20.2m3.7 20.2v-20.2" transform="translate(0 22.866)"/><path class="st4" d="M238.4 277.5v-20.2m3.7 20.2v-20.2m3.7 20.2v-20.2m3.7 20.2v-20.2m3.7 20.2v-20.2m3.7 20.2v-20.2" transform="translate(0 45.732)"/><path class="st2" d="M270.3 88.5h24.3V64.3h-24.3v24.2z" transform="matrix(1 0 0 -1 22.866 73.17)"/><path class="st3" d="M270.3 60.5h24.3V36.2h-24.3v24.3z" transform="matrix(1 0 0 -1 22.866 73.17)"/><path class="st4" d="M273.3 66.2v20.2m3.7-20.2v20.2m3.7-20.2v20.2m3.6-20.2v20.2m3.8-20.2v20.2m3.6-20.2v20.2" transform="matrix(1 0 0 -1 22.866 73.17)"/><path class="st4" d="M273.3 45v20.2M277 45v20.2m3.7-20.2v20.2m3.6-20.2v20.2m3.8-20.2v20.2m3.6-20.2v20.2" transform="matrix(1 0 0 -1 22.866 50.305)"/></g></g><defs><path id="SVGID_3_" d="M176.8 153.6V210h-27v28.2h-22.6c-.1.8-.1 1.7-.3 2.5-1.4 15.3 1.3 29.6 7.4 41.6l2.1 3.8c1.3 2.2 2.7 4.3 4.2 6.4 1.6 2.1 2.1 3.1 3 4.5 16.3 18.3 40.6 27.1 68.6 27.1 62.1 0 114.8-27.5 138.2-89.4 16.6 1.7 32.4-2.6 39.7-16.7-11.5-6.6-26.3-4.5-34.9-.3l22.6-64.2-88.4 56.4h-28.2v-56.3h-84.4z"/></defs><clipPath id="SVGID_4_"><use xlink:href="#SVGID_3_" style="overflow:visible"/></clipPath><path id="path38" d="M355.3 217.9c1.8-14.7-9.1-26.1-15.8-31.5-7.8 9.1-9.1 32.7 3.2 42.7-6.9 6.1-21.3 11.5-36.1 11.5H125.3c-1.4 15.4 0 89.6 0 89.6h266.1l-1.2-112.1c-11.5-6.6-26.3-4.6-34.9-.2" style="clip-path:url(#SVGID_4_);fill:#17b5eb"/><defs><path id="SVGID_5_" d="M176.8 153.6V210h-27v28.2h-22.6c-.1.8-.1 1.7-.3 2.5-1.4 15.3 1.3 29.6 7.4 41.6l2.1 3.8c1.3 2.2 2.7 4.3 4.2 6.4 1.6 2.1 2.1 3.1 3 4.5 16.3 18.3 40.6 27.1 68.6 27.1 62.1 0 114.8-27.5 138.2-89.4 16.6 1.7 32.4-2.6 39.7-16.7-11.5-6.6-26.3-4.5-34.9-.3l22.6-64.2-88.4 56.4h-28.2v-56.3h-84.4z"/></defs><clipPath id="SVGID_6_"><use xlink:href="#SVGID_5_" style="overflow:visible"/></clipPath><path id="path40" d="M125.3 260.4v69.9h266.1v-69.9" style="clip-path:url(#SVGID_6_);fill-opacity:.17"/><defs><path id="SVGID_7_" d="M176.8 153.6V210h-27v28.2h-22.6c-.1.8-.1 1.7-.3 2.5-1.4 15.3 1.3 29.6 7.4 41.6l2.1 3.8c1.3 2.2 2.7 4.3 4.2 6.4 1.6 2.1 2.1 3.1 3 4.5 16.3 18.3 40.6 27.1 68.6 27.1 62.1 0 114.8-27.5 138.2-89.4 16.6 1.7 32.4-2.6 39.7-16.7-11.5-6.6-26.3-4.5-34.9-.3l22.6-64.2-88.4 56.4h-28.2v-56.3h-84.4z"/></defs><clipPath id="SVGID_8_"><use xlink:href="#SVGID_7_" style="overflow:visible"/></clipPath><path id="path42" d="M220 323.9c-16.6-7.9-25.7-18.6-30.7-30.2l-50.5 2.2 25.8 34.4 55.4-6.4" style="clip-path:url(#SVGID_8_);fill:#d4edf1"/><defs><path id="SVGID_9_" d="M176.8 153.6V210h-27v28.2h-22.6c-.1.8-.1 1.7-.3 2.5-1.4 15.3 1.3 29.6 7.4 41.6l2.1 3.8c1.3 2.2 2.7 4.3 4.2 6.4 1.6 2.1 2.1 3.1 3 4.5 16.3 18.3 40.6 27.1 68.6 27.1 62.1 0 114.8-27.5 138.2-89.4 16.6 1.7 32.4-2.6 39.7-16.7-11.5-6.6-26.3-4.5-34.9-.3l22.6-64.2-88.4 56.4h-28.2v-56.3h-84.4z"/></defs><clipPath id="SVGID_10_"><use xlink:href="#SVGID_9_" style="overflow:visible"/></clipPath><path id="path44" d="M356.5 217.3c-25.6 33-62.3 61.9-101.7 76.9-35.2 13.5-65.8 13.6-86.9 2.7-2.3-1.3-4.5-2.7-6.7-4-15.4-10.8-24.3-28.8-23.5-52.4h-12.3v89.6h266.1V212.4h-30.6l-4.4 4.9z" style="clip-path:url(#SVGID_10_);fill-opacity:8.500000e-02"/><path id="path46" d="M139.6 294.7c17.4.9 35.9 1.2 52-3.9" style="fill:none;stroke:#394d54;stroke-width:3.4;stroke-linecap:round"/><path id="path48" d="M208.9 282.4c0 3.8-3 6.7-6.7 6.7-3.8 0-6.7-3-6.7-6.7 0-3.8 3-6.7 6.7-6.7s6.7 3 6.7 6.7z" style="fill:#d4edf1"/><path id="path50" class="st0" d="M203.9 277.9c-.6.4-1 .9-1 1.7 0 1 .9 1.9 1.9 1.9.8 0 1.4-.4 1.7-1 .3.5.4 1.2.4 1.8 0 2.6-2.2 4.8-4.8 4.8-2.6 0-4.8-2.2-4.8-4.8 0-2.6 2.2-4.8 4.8-4.8.7.1 1.3.1 1.8.4z"/><path id="path52" class="st0" d="M83.5 261.8h311.9c-6.7-1.7-21.5-4-19.1-13-12.3 14.3-42.2 10-49.7 3-8.4 12.2-57.1 7.5-60.5-1.9-10.5 12.3-43.1 12.3-53.5 0-3.4 9.5-52.2 14-60.5 1.9-7.5 7-37.2 11.3-49.7-3 2.7 9-12 11.3-18.9 13"/></svg>