<svg version="1.1" id="Calque_1" xmlns="http://www.w3.org/2000/svg" xmlns:xlink="http://www.w3.org/1999/xlink" x="0" y="0" viewBox="0 0 250 250" style="enable-background:new 0 0 250 250" xml:space="preserve"><style>.st2{fill:#fff}.st2,.st3,.st4{stroke:#000;stroke-width:.5479;stroke-linejoin:round;stroke-miterlimit:10}.st3{fill:none;stroke-linecap:round}.st4{fill:#5dc9e2}.st5{fill:#fff}</style><circle cx="125" cy="125" r="125" style="fill:#007184"/><defs><circle id="SVGID_1_" cx="125.5" cy="125" r="125"/></defs><clipPath id="SVGID_2_"><use xlink:href="#SVGID_1_" style="overflow:visible"/></clipPath><g style="clip-path:url(#SVGID_2_)"><path class="st2" d="M66 175c-4.5.6-9.8 2-12.6 3.6-2.5 1.5-2.2 6-.4 8.2 1.9 2.3 4.1 2.2 6.7 1 1.7-.8 3.8-2.6 6-4.6l.2-5.2.1-3zM196.6 177.1c-2.5-1.5-7.3-2.8-11.6-3.5l.5 7.7.1 1.5c1.7 1.5 3.3 2.7 4.7 3.4 2.7 1.2 4.8 1.3 6.7-1 1.7-2.1 2.1-6.6-.4-8.1zM79.3 274.7c3.7-3.4 6.6-6.2 13-7.2-4.9-2-9.2-4.5-12.8-7.4-4.5 1.7-8.1 4.2-10.1 7.9-3.4 6 5.3 10.9 9.9 6.7M170.8 273.1c3.7 4.9 13.1.4 10.3-5.8-1.8-4.1-5.2-7.5-9.4-9.6-2.8 2.6-6.1 5-10 7.1 4.4 2 6.5 4.9 9.1 8.3"/><path class="st3" d="M52.3 185.6c1.1-.8 1.9-1.7 4-2.8M197.7 184.1c-1.1-.8-1.9-1.7-4-2.8M71.3 274.7c.3-1.7 1.2-4.5 4-7M178.3 274.2c0-1.7-.4-5.2-3-7.5"/><path class="st4" d="M64.6 101.4c0-2.4 1.9-4.3 4.3-4.3 1.4 0 2.6.7 3.4 1.7 1.9-3.1 4.2-5.8 6.8-8.1-1.3-1.2-3.4-2.2-6.6-2.6-10.5-1.4-15.9 3.8-17.2 10.8-1.2 6.7 2.4 14 10.5 15.9.8-3.3 1.9-6.3 3-9.1-2.4 0-4.2-1.9-4.2-4.3z"/><path d="M68.8 97.1c-2.4 0-4.3 1.9-4.3 4.3 0 2.3 1.9 4.2 4.2 4.3.8-2 1.8-3.9 2.8-5.7.2-.4.5-.8.7-1.2-.7-1-2-1.7-3.4-1.7z"/><path class="st4" d="M191.2 96.2c-1.2-7-6.6-12.2-17.2-10.8-3.7.5-5.8 1.6-7.1 3 2.3 2 4.5 4.3 6.5 7l.3.4c.8-1.1 2-1.7 3.4-1.7 2.4 0 4.3 1.9 4.3 4.3 0 2.1-1.5 3.8-3.4 4.2 1.5 2.8 2.6 5.8 3.6 9.2 7.5-2.2 10.8-9.1 9.6-15.6z"/><path d="M181.6 98.4c0-2.4-1.9-4.3-4.3-4.3-1.4 0-2.7.7-3.4 1.7 1.6 2.2 3.1 4.4 4.3 6.8 1.9-.4 3.4-2.2 3.4-4.2z"/><path class="st4" d="M122.8 273.1c17.1 0 29.7-3.3 39-8.3 3.9-2.1 7.2-4.5 10-7.1 6.9-6.5 10.6-14.1 12.2-21 3.9-16.5 3.4-28.6 1.6-53.8l-.1-1.5-.5-7.7c-.6-12.7 0-18.5-.2-32.9-.2-12.3-1.1-21.5-3.2-28.9-.9-3.4-2.1-6.4-3.6-9.2-1.2-2.4-2.6-4.6-4.3-6.8l-.3-.4c-2-2.6-4.2-5-6.5-7-10.1-8.7-23.3-11.8-42.4-11.3-16.4.5-34 3.4-45.5 13.6-2.6 2.3-4.9 5-6.8 8.1-.2.4-.5.8-.7 1.2-1 1.8-1.9 3.7-2.8 5.7-1.2 2.8-2.2 5.8-3 9.1-1.6 6.4-2.5 13.8-2.5 22.5 0 15.3 3 22.9 2.8 37.7l-.1 3-.2 5.2c-.6 18-.4 36-.5 48.2-.1 11.3 5 21.3 14.2 28.7 3.7 2.9 7.9 5.4 12.8 7.4 8.6 3.5 18.9 5.5 30.6 5.5"/><ellipse class="st2" cx="99.6" cy="107.2" rx="18.6" ry="18"/><circle cx="89.8" cy="108.2" r="6.4"/><circle class="st5" cx="92.5" cy="109.7" r="1.8"/><ellipse class="st2" cx="146.3" cy="105.1" rx="18.6" ry="18"/><circle cx="136.6" cy="106" r="6.4"/><circle class="st5" cx="139.3" cy="107.5" r="1.8"/><path class="st2" d="M123.6 134c-3.7.1-4.2 1.7-7.4 2.3l-.4 7.8c-.3 6.8 8.4 5.3 8.4 1.2V134h-.6zM124.2 145.3c0 4.1 8.7 5.6 8.4-1.2l-.4-7.9c-4-.2-4.5-2-7.9-2.1l-.1 11.2z"/><path d="M137.1 127.2c-1.5-1.6-3.2-2.5-5.6-2.9-1.2 1.8-4.3 3.1-8 3.1-3.5 0-6.5-1.2-7.8-2.9-2.5.5-4.3 1.4-5.8 3.1-2.9 3.4-1.5 8.5 2.4 8.7 1.7.1 2.9 0 3.9-.1 3.2-.6 3.7-2.2 7.4-2.3h.6c3.5.1 4 1.9 7.9 2.1.8 0 1.7 0 2.8-.1 4-.3 5.3-5.4 2.2-8.7z" style="fill:#00acd7;stroke:#000;stroke-width:.5479;stroke-linejoin:round;stroke-miterlimit:10"/><path d="M123.6 127.4c3.6 0 6.7-1.3 8-3.1.4-.6.6-1.1.6-1.8 0-2.7-3.8-4.9-8.6-4.9-4.7 0-8.6 2.2-8.6 4.9 0 .7.3 1.4.7 2 1.4 1.7 4.4 2.9 7.9 2.9z"/></g></svg>