<svg xmlns="http://www.w3.org/2000/svg" viewBox="0 0 250 250" style="enable-background:new 0 0 250 250" xml:space="preserve"><path d="m144.2 99.8 4.5.1 12.2-12.2.6-5.2c-9.7-8.6-22.5-13.9-36.4-13.9-25.3 0-46.6 17.2-52.9 40.5 1.4-.9 4.1-.2 4.1-.2l24.4-4s1.3-2.1 1.9-2c5.7-6.3 13.9-10 22.5-10 7.1.1 13.8 2.6 19.1 6.9z" style="fill:#ea4335"/><path d="M177.9 109.2c-2.9-10.5-8.7-19.7-16.5-26.7l-17.3 17.3c6.9 5.6 11.4 14.1 11.4 23.7v3c8.4 0 15.2 6.9 15.2 15.2s-6.9 15.2-15.2 15.2H125l-3 3.1v18.2l3 3h30.5c21.9 0 39.6-17.7 39.6-39.6-.1-13.4-6.8-25.3-17.2-32.4z" style="fill:#4285f4"/><path d="M94.5 181.4H125V157H94.5c-2.2 0-4.3-.5-6.3-1.4l-4.4 1.4-12.2 12.2-1.1 4.1c6.9 5.2 15.4 8.1 24 8.1z" style="fill:#34a853"/><path d="M94.5 102.2c-21.9 0-39.6 17.7-39.6 39.6 0 12.9 6.2 24.3 15.7 31.5l17.6-17.6c-5.4-2.5-9-7.9-9-13.9 0-8.4 6.9-15.2 15.2-15.2 6.2 0 11.5 3.7 13.9 9l17.6-17.6c-7.1-9.7-18.5-15.8-31.4-15.8z" style="fill:#fbbc05"/></svg>