<svg xmlns="http://www.w3.org/2000/svg" viewBox="0 0 250 250" style="enable-background:new 0 0 250 250" xml:space="preserve"><path d="m150.4 91.6 6 .1 16.2-16.2.8-6.9c-12.8-11.4-29.8-18.4-48.3-18.4-33.5 0-61.8 22.8-70.2 53.7 1.8-1.2 5.5-.3 5.5-.3l32.3-5.3s1.7-2.8 2.5-2.6c7.6-8.4 18.5-13.2 29.8-13.2 9.6 0 18.4 3.4 25.4 9.1z" style="fill:#ea4335"/><path d="M195.2 104c-3.8-13.9-11.5-26.1-21.9-35.4l-22.9 22.9c9.2 7.4 15.1 18.7 15.1 31.4v4c11.1 0 20.2 9.1 20.2 20.2s-9.1 20.2-20.2 20.2H125l-4 4.1v24.2l4 4h40.4c29 0 52.5-23.5 52.5-52.5 0-17.8-8.9-33.6-22.7-43.1z" style="fill:#4285f4"/><path d="M84.6 199.8H125v-32.4H84.6c-2.9 0-5.7-.6-8.3-1.8l-5.8 1.8-16.2 16.2-1.4 5.5c9 6.9 20.2 10.7 31.7 10.7z" style="fill:#34a853"/><path d="M84.6 94.7c-29 0-52.5 23.5-52.5 52.5 0 17.1 8.2 32.2 20.8 41.8l23.4-23.4c-7.2-3.3-11.9-10.5-11.9-18.4 0-11.1 9.1-20.2 20.2-20.2 8.2 0 15.2 4.9 18.4 11.9l23.4-23.4c-9.6-12.6-24.8-20.8-41.8-20.8z" style="fill:#fbbc05"/></svg>