<svg xmlns="http://www.w3.org/2000/svg" xmlns:xlink="http://www.w3.org/1999/xlink" viewBox="0 0 250 250" style="enable-background:new 0 0 250 250" xml:space="preserve"><symbol id="a" viewBox="-30.3 -32 60.6 64"><path d="m11.6-15.3.2.2c1.5 1.2 2.8 2.6 3.9 4.1l.9 1.4 2.8-1.6-1-1.6c-1-1.4-2.1-2.6-3.3-3.7.7-.6 1.5-1.5 2.2-2.4 2.2-2.8 3.1-5.7 2.2-6.4s-3.4 1-5.6 3.8c-.7.9-1.3 1.9-1.7 2.8-3-1.9-6.5-3.2-10.3-3.5.2-1 .3-2.1.3-3.3 0-3.5-1-6.4-2.1-6.4S-2-29-2-25.5c0 1.2.1 2.3.3 3.3-3.8.3-7.3 1.5-10.3 3.5-.4-.9-1-1.8-1.7-2.8-2.2-2.8-4.7-4.5-5.6-3.8s0 3.6 2.2 6.4c.7.9 1.5 1.8 2.2 2.4-1.2 1.1-2.3 2.4-3.3 3.7-.4.5-.7 1.1-1 1.6l2.8 1.6c.3-.5.6-1 .9-1.4 1.1-1.6 2.4-3 3.9-4.1l.2-.2c3.2-2.4 7.2-3.9 11.6-3.9s8.2 1.4 11.4 3.9zM-15.7 11c3.6 5.1 9.5 8.2 15.7 8.2 6.3 0 12.1-3 15.7-8.2l2.6 1.8c-1 1.4-2.1 2.6-3.3 3.7.7.6 1.5 1.5 2.2 2.4 2.2 2.8 3.1 5.7 2.2 6.4s-3.4-1-5.6-3.8c-.7-.9-1.3-1.9-1.7-2.8-3 1.9-6.5 3.2-10.3 3.5.2 1 .3 2.1.3 3.3 0 3.5-1 6.4-2.1 6.4s-2.1-2.9-2.1-6.4c0-1.2.1-2.3.3-3.3-3.8-.3-7.3-1.5-10.3-3.5-.4.9-1 1.8-1.7 2.8-2.2 2.8-4.7 4.5-5.6 3.8s0-3.6 2.2-6.4c.7-.9 1.5-1.8 2.2-2.4-1.2-1.1-2.3-2.4-3.3-3.7l2.6-1.8zm30.2-2.5V-7.7h4.7l3.4 9.8L26-7.7h4.3V8.5h-3.8V3.4l.9-6-3.8 9.8h-2.1l-3.8-9.8.9 6v5.1h-4.1zM.9-7.7V8.5h10.7V5.1H5.1V-7.7H.9zm-14.1 0V8.5h11.1V5.1H-9v-3h5.5v-3.4H-9v-3h6.4v-3.4h-10.6zM-26 8.5V2.1h5.1v6.4h4.3V-7.7h-4.3v6H-26v-6h-4.3V8.5h4.3z" style="fill-rule:evenodd;clip-rule:evenodd;fill:#3f7a9c"/></symbol><use xlink:href="#a" width="60.6" height="64" x="-30.3" y="-32" transform="translate(125 125) scale(3.269)" style="overflow:visible"/></svg>