<svg version="1.1" id="Calque_1" xmlns="http://www.w3.org/2000/svg" xmlns:xlink="http://www.w3.org/1999/xlink" x="0" y="0" viewBox="0 0 250 250" style="enable-background:new 0 0 250 250" xml:space="preserve"><style>.st1{fill:#fff}</style><defs><circle id="SVGID_1_" cx="-283" cy="174" r="123"/></defs><clipPath id="SVGID_2_"><use xlink:href="#SVGID_1_" style="overflow:visible"/></clipPath><path d="M71.4 184.3 59.5 50.6h131.1l-12 133.7-53.8 15.1" style="fill:#e34f26"/><path class="st1" d="M125.1 111h-21.8l-1.5-16.9h23.3V77.8H83.8l.3 4.4 4.1 45.4h36.9V111zm0 42.8h-.3l-18.3-4.9-1.2-13.1H89l2 25.9 33.7 9.3h.3l.1-17.2z"/><path class="st1" d="M124.9 111v16.6h20.4l-2 21.2-18.3 4.9v17.2l33.7-9.3.3-2.9 3.8-43.3.6-4.4h-38.5zm0-33.1V94.2h39.8l.3-3.5.9-8.4.3-4.4h-41.3z"/></svg>