<svg version="1.1" id="Calque_1" xmlns="http://www.w3.org/2000/svg" x="0" y="0" viewBox="0 0 250 250" style="enable-background:new 0 0 250 250" xml:space="preserve"><style>.st0{fill:#ff7c00}</style><circle class="st0" cx="125.5" cy="125.4" r="75.5"/><circle cx="125.5" cy="125.4" r="68" style="fill:#261300"/><path class="st0" d="M102.7 134.1 98 152c-.1.5-.3.6-.9.6h-8.7c-.6 0-.7-.2-.6-.9l16.9-59.1c.3-1.1.5-2 .6-4.9 0-.4.2-.6.5-.6h12.5c.4 0 .6.1.7.6l18.9 64.2c.1.5 0 .8-.5.8h-9.9c-.5 0-.8-.1-.9-.5l-4.9-17.9h-19v-.2zm16.5-9.6c-1.7-6.6-5.6-21-7.1-27.9h-.1c-1.3 7-4.4 18.7-6.9 27.9h14.1zM146 91.4c0-3.8 2.6-6.1 6.1-6.1 3.6 0 6.1 2.5 6.1 6.1 0 3.9-2.5 6.1-6.2 6.1-3.5 0-6-2.1-6-6.1zm.8 13.5c0-.5.2-.7.7-.7h9.3c.5 0 .7.2.7.7v47c0 .5-.1.7-.7.7h-9.2c-.6 0-.8-.3-.8-.8v-46.9z"/></svg>