<svg xmlns="http://www.w3.org/2000/svg" viewBox="0 0 250 250" style="enable-background:new 0 0 250 250" xml:space="preserve"><path d="M161.7 136.1c-7.7 0-15.1 3.3-20.2 9.2l-12.7-9c1.3-3.7 2.1-7.7 2.1-11.8 0-4-.7-7.9-2-11.6l12.6-8.9c5.1 5.8 12.4 9.1 20.2 9.1 14.9 0 26.9-12.1 26.9-26.9 0-14.9-12.1-26.9-26.9-26.9-14.9 0-26.9 12.1-26.9 26.9 0 2.7.4 5.2 1.1 7.7l-12.6 8.9c-5.3-6.5-12.9-11.1-21.5-12.5V75c12.5-2.6 21.4-13.6 21.4-26.4 0-14.9-12.1-26.9-26.9-26.9-14.9 0-26.9 12.1-26.9 26.9 0 12.8 9 23.5 20.9 26.2v15.5c-16.3 2.8-28.8 17-28.8 34.2 0 17.2 12.6 31.5 29 34.3v16.3c-12.1 2.6-21.2 13.4-21.2 26.3 0 14.9 12.1 26.9 26.9 26.9 14.9 0 26.9-12.1 26.9-26.9 0-12.9-9.1-23.6-21.2-26.3v-16.3c8.5-1.4 15.9-5.9 21.2-12.3l12.7 9c-.7 2.5-1.1 5-1.1 7.6 0 14.9 12.1 26.9 26.9 26.9 14.9 0 26.9-12.1 26.9-26.9.1-14.9-11.9-26.9-26.8-27zm0-62.9c7.2 0 13.1 5.9 13.1 13.1 0 7.2-5.9 13.1-13.1 13.1-7.2 0-13.1-5.9-13.1-13.1 0-7.3 5.9-13.1 13.1-13.1zM83.1 48.6c0-7.2 5.9-13.1 13.1-13.1 7.2 0 13.1 5.9 13.1 13.1s-5.9 13.1-13.1 13.1c-7.2 0-13.1-5.9-13.1-13.1zm26.1 152.8c0 7.2-5.9 13.1-13.1 13.1S83 208.6 83 201.4s5.9-13.1 13.1-13.1c7.3 0 13.1 5.9 13.1 13.1zm-13.1-58.7c-10 0-18.2-8.2-18.2-18.2s8.2-18.2 18.2-18.2 18.2 8.2 18.2 18.2c.1 10.1-8.1 18.2-18.2 18.2zm65.6 33.4c-7.2 0-13.1-5.9-13.1-13.1 0-7.2 5.9-13.1 13.1-13.1 7.2 0 13.1 5.9 13.1 13.1-.1 7.3-5.9 13.1-13.1 13.1z"/></svg>