<svg xmlns="http://www.w3.org/2000/svg" viewBox="0 0 250 250" style="enable-background:new 0 0 250 250" xml:space="preserve"><path d="M124.5 48.3c-1.4.1-2.8.5-4.1 1.1L65.3 75.6c-2.9 1.4-5 4-5.7 7.1l-13.5 59c-.6 2.8-.1 5.7 1.5 8.1.2.3.4.6.6.8l38 47.3c2 2.4 5 3.9 8.2 3.9h61c3.2 0 6.2-1.5 8.2-3.9l38-47.3c2-2.4 2.8-5.7 2-8.8l-13.6-59c-.7-3.1-2.8-5.7-5.7-7.1l-55-26.2c-1.3-.9-3.2-1.3-4.8-1.2z" style="fill:#326ce5"/><path d="M125 68.4c-1.9.1-3.4 1.7-3.2 3.7v.9c.1 1 .3 2.1.5 3.2.3 2 .4 4 .3 6-.2.6-.6 1.2-1.1 1.7l-.1 1.4c-2 .2-4 .5-5.9.9-8.2 1.9-15.7 6.1-21.5 12.3l-1.2-.9c-.6.2-1.4.1-1.9-.2-1.6-1.2-3.1-2.5-4.4-4-.6-.8-1.4-1.5-2.2-2.3l-.7-.6c-.6-.5-1.5-.8-2.3-.8-1-.1-2 .4-2.6 1.2-1.1 1.5-.8 3.7.8 4.8l.7.5c.9.6 1.8 1.1 2.7 1.6 1.7 1 3.4 2.1 5 3.5.4.6.6 1.2.6 1.9l1.1 1c-5.8 8.7-8.2 19.3-6.7 29.7l-1.4.4c-.4.6-.8 1-1.4 1.4-1.9.5-3.9.8-5.9 1-1 0-2.1.1-3.2.3l-.9.2H70c-1.8.3-3.1 1.9-2.8 3.7.1.7.4 1.4.9 1.9.9.9 2.2 1.2 3.4.8h.1l.9-.1c1-.3 2-.6 3-1.1 1.9-.8 3.8-1.3 5.7-1.7.7.1 1.4.3 1.9.6l1.5-.3c3.2 10 10 18.4 18.9 23.7l-.6 1.3c.3.6.4 1.2.3 1.9-.8 1.9-1.8 3.7-3 5.4-.6.8-1.2 1.7-1.7 2.6l-.5.9c-.9 1.6-.4 3.6 1.2 4.5.6.3 1.3.5 2 .5 1.2-.1 2.3-1 2.7-2.1l.4-.8c.4-1 .7-2 1-3 .9-2.2 1.4-4.4 2.5-5.9.4-.4.9-.6 1.4-.7l.8-1.4c9.8 3.7 20.6 3.8 30.4.1l.6 1.3c.6.1 1.3.5 1.7 1 .9 1.7 1.7 3.6 2.3 5.5.3 1 .6 2.1 1 3l.4.8c.6 1.7 2.6 2.6 4.3 1.9.6-.3 1.2-.7 1.6-1.3.7-1 .7-2.4.1-3.5l-.5-.9c-.5-.9-1.2-1.8-1.7-2.6-1.2-1.6-2.1-3.4-3-5.2-.1-.7-.1-1.4.3-2-.2-.5-.4-.9-.6-1.4 9-5.3 15.7-13.9 18.9-23.8l1.4.3c.5-.5 1.2-.7 1.9-.7 1.9.4 3.9 1 5.7 1.7 1 .5 1.9.8 3 1.2.3.1.6.1.8.2h.1c1.7.6 3.6-.4 4.2-2.1.2-.6.2-1.4 0-2.1-.4-1.2-1.4-2.1-2.7-2.2l-1-.3c-1-.1-2.1-.3-3.2-.3-2-.1-4-.5-5.9-1-.6-.3-1.1-.8-1.4-1.4l-1.4-.4c1.4-10.4-1-20.9-6.8-29.6l1.2-1.1c-.1-.7.2-1.4.6-1.9 1.5-1.3 3.2-2.4 4.9-3.4 1-.5 1.9-1 2.7-1.6l.7-.6c1.5-1 2.1-3 1.1-4.6-.4-.6-1-1.2-1.7-1.4-1.2-.5-2.5-.1-3.4.8l-.7.6c-.8.7-1.5 1.5-2.2 2.3-1.3 1.5-2.8 2.8-4.3 4.1-.6.3-1.4.3-2 .2l-1.2.9c-7.2-7.5-16.9-12.2-27.3-13.2 0-.5-.1-1.2-.1-1.5-.6-.4-1-1-1.1-1.6-.1-2 .1-4 .4-6 .2-1 .4-2.1.5-3.2v-1c-.2-1.8-1.6-3.4-3.6-3.5zm-4.1 25.5-1 17.3h-.1c-.1 1.1-.7 2-1.6 2.5-1 .5-2.1.4-3-.3L101 103.3c4.5-4.4 10.2-7.5 16.3-8.9 1.2-.2 2.4-.4 3.6-.5zm8.2 0c7.4.9 14.4 4.3 19.7 9.5l-14 10c-.8.7-2.1.8-3 .4-1-.5-1.7-1.5-1.7-2.6l-1-17.3zm-33.2 15.9 13 11.5v.1c.8.7 1.2 1.8.9 2.8-.3 1-1 1.9-2.1 2.1v.1l-16.6 4.8c-.8-7.4.9-15 4.8-21.4zm58.1 0c3.9 6.4 5.7 13.9 5 21.4l-16.6-4.8v-.1c-1-.3-1.8-1.1-2.1-2.1-.3-1 .1-2.1.9-2.8l12.8-11.6zm-31.7 12.4h5.3l3.2 4.1-1.2 5.2-4.8 2.3-4.8-2.3-1.1-5.2 3.4-4.1zm17 14.1h.6l17.1 2.9c-2.4 7.1-7.3 13.2-13.7 17.3l-6.6-16c-.6-1.5.1-3.2 1.5-3.8.4-.2.7-.3 1.1-.4zm-28.7.1c1 0 1.9.5 2.4 1.4s.6 1.8.3 2.7v.1l-6.6 15.9c-6.3-4.1-11.1-10.1-13.7-17.1l17-2.9c.1-.1.3-.1.6-.1zm14.3 6.9c1.1-.1 2.1.6 2.6 1.5h.1l8.4 15.1-3.4 1c-6.2 1.4-12.6 1.1-18.6-1l8.4-15.1c.6-.8 1.5-1.4 2.5-1.5z" style="fill:#fff;stroke:#fff;stroke-width:.11;stroke-miterlimit:8"/></svg>