<svg xmlns="http://www.w3.org/2000/svg" viewBox="0 0 250 250" style="enable-background:new 0 0 250 250" xml:space="preserve"><path d="m124.4 22.3 5.5 10.4c1.2 1.9 2.6 3.6 4.2 5.2 4.6 4.6 9 9.5 12.9 14.6 9.3 12.3 15.6 25.9 20.1 40.6 2.7 9 4.2 18.2 4.3 27.6.5 27.9-9.1 51.9-28.4 71.8-3.2 3.2-6.5 6.1-10.1 8.7-1.9 0-2.8-1.5-3.6-2.8-1.5-2.5-2.4-5.3-2.8-8.1-.7-3.4-1.1-6.8-.9-10.2v-1.6c-.2-.5-1.9-155.5-1.2-156.2z" style="fill:#599636"/><path d="M124.4 21.9c-.2-.5-.5-.1-.7.1.1 2.3-.7 4.3-1.9 6.2-1.4 1.9-3.2 3.4-5 5-10 8.7-17.9 19.1-24.2 30.8-8.4 15.8-12.7 32.6-13.9 50.4-.6 6.4 2 29 4 35.6 5.5 17.3 15.4 31.8 28.2 44.5 3.2 3 6.5 5.8 10 8.6 1 0 1.1-.9 1.4-1.6.4-1.4.8-2.9 1-4.4l2.3-16.9-1.2-158.3z" style="fill:#6cac48"/><path d="M129.9 207.9c.2-2.6 1.5-4.7 2.8-6.9-1.4-.6-2.4-1.7-3.2-2.9-.7-1.1-1.2-2.5-1.7-3.7-1.6-4.7-1.9-9.7-2.4-14.5V177c-.6.5-.7 4.3-.7 4.8-.3 5.1-1 10.2-2 15.2-.3 2-.6 4-1.8 5.8 0 .2 0 .5.1.8 2 6 2.6 12 2.9 18.2v2.3c0 2.7-.1 2.1 2.1 3 .9.3 1.9.5 2.8 1.1.7 0 .8-.6.8-1l-.3-3.7v-10.4c0-1.7.3-3.5.6-5.2z" style="fill:#c2bfbf"/></svg>