<svg xmlns="http://www.w3.org/2000/svg" viewBox="0 0 250 250" style="enable-background:new 0 0 250 250" xml:space="preserve"><path d="m168.8 188.3-15.1-22.9c-8.3-12.6-25.3-38.3-37.7-57.1-12.4-18.9-22.8-34.5-23-34.8-1-1.1-1.6-1.2-5.4-1.2-3.2 0-3.5 0-4.3.4-.4.2-1.1.7-1.4 1.1l-.6.7-.1 37.5v37.4l.4.8c.3.5.7 1 1.3 1.4l.9.5H87c2.8 0 3.3-.1 3.9-.4.8-.4 1.2-.8 1.6-1.7.3-.6.4-1.7.4-28.6 0-15.4.1-28 .2-27.9.1 0 8.7 12.7 19.3 28.3l19.1 28.3 15.3 20.6c8.4 11.4 15.4 20.8 15.6 20.9M149.9 70c-.6-.3-1.1-.4-3.9-.4-2.9 0-3.2 0-4 .4-.9.5-1.6 1.3-1.8 2.4-.1.4-.2 9.3-.2 25.1v24.4l5.9 9.1 5.9 9.1.1-33.6c0-23.4 0-33.8-.1-34.3-.3-.8-1-1.7-1.9-2.2z"/></svg>