<svg xmlns="http://www.w3.org/2000/svg" viewBox="0 0 250 250" style="enable-background:new 0 0 250 250" xml:space="preserve"><path style="fill:#333" d="M0 0h250v250H0z"/><path d="M125 197.9c-2 0-3.9-.5-5.7-1.5l-17.9-10.7c-2.7-1.5-1.3-2-.5-2.3 3.7-1.2 4.3-1.5 8-3.7.4-.3 1-.2 1.3.2l13.7 8.2c.5.3 1.2.3 1.6 0l53.7-31.1c.5-.3.8-.8.8-1.5v-62c0-.7-.3-1.2-.8-1.5l-53.7-30.9c-.5-.3-1.2-.3-1.6 0L70.3 92.2c-.5.3-.8 1-.8 1.5v62c0 .5.3 1.2.8 1.5l14.7 8.5c8 4 12.9-.7 12.9-5.4V99c0-.8.7-1.6 1.6-1.6h6.8c.8 0 1.6.7 1.6 1.6v61.2c0 10.7-5.8 16.8-15.9 16.8-3.1 0-5.5 0-12.4-3.3l-14.2-8c-3.5-2-5.7-5.8-5.7-9.8v-62c0-4 2.2-7.8 5.7-9.8L119 53c3.3-1.9 8-1.9 11.3 0L184 84.1c3.5 2 5.7 5.8 5.7 9.8v62c0 4-2.2 7.8-5.7 9.8l-53.7 31.1c-1.4.7-3.4 1.1-5.3 1.1zm16.5-42.6c-23.5 0-28.4-10.7-28.4-19.9 0-.8.7-1.6 1.6-1.6h7c.8 0 1.5.5 1.5 1.3 1 7.2 4.2 10.7 18.4 10.7 11.3 0 16.2-2.5 16.2-8.6 0-3.5-1.3-6-19-7.8-14.7-1.5-23.8-4.7-23.8-16.4 0-10.9 9.2-17.4 24.5-17.4 17.2 0 25.7 5.9 26.7 18.8 0 .4-.2.8-.4 1.2-.3.3-.7.5-1 .5h-7c-.7 0-1.3-.5-1.5-1.2-1.6-7.4-5.8-9.8-16.8-9.8-12.4 0-13.9 4.3-13.9 7.5 0 3.9 1.7 5.1 18.4 7.3 16.5 2.2 24.4 5.2 24.4 16.8-.1 11.9-9.8 18.6-26.9 18.6z" style="fill:#539e43"/></svg>