<svg xmlns="http://www.w3.org/2000/svg" viewBox="0 0 250 250" style="enable-background:new 0 0 250 250" xml:space="preserve"><path d="M43.2 78.8c0-.1-.1-.1-.1-.2-.2-.5-.3-1-.2-1.4H31.3l17.3-30.5 5.7 10 1.6-2.9-5-8.7c-.5-.9-1.4-1.5-2.4-1.6-1 0-1.9.7-2.3 1.6L28.6 75.9c-.5.9-.6 2-.2 2.9.6.9 1.5 1.3 2.6 1.2h14.7c-1 .1-2-.3-2.5-1.2z" style="fill:#00c492" transform="translate(-12.87 -44.132) scale(2.53772)"/><path d="M77 75.9 62.5 50.5c-.5-.9-1.4-1.5-2.4-1.6-1 0-1.9.7-2.3 1.6l-1.9 3.3 1.7 2.9 2.6-4.5 14.3 25H69c.1.4 0 .8-.1 1.2 0 .1-.1.2-.1.3v.1c-.6.8-1.6 1.3-2.6 1.3h8.5c1 0 2-.5 2.6-1.3.4-1 .3-2.1-.3-2.9z" style="fill:#008776" transform="translate(-12.87 -44.132) scale(2.53772)"/><path d="M68.7 78.7c.1-.2.1-.3.2-.3.1-.4.1-.8.1-1.3-.1-.4-.2-.9-.5-1.3L57.6 56.7l-1.7-2.9-1.7 2.9-10.9 19.2c-.2.4-.4.8-.4 1.3-.1.5 0 1 .2 1.4 0 .1.1.1.1.2.6.9 1.5 1.3 2.6 1.2h20.3c1 .1 2-.4 2.6-1.3zM55.9 59.6l10 17.6h-20l10-17.6z" style="fill:#2d4a5d" transform="translate(-12.87 -44.132) scale(2.53772)"/></svg>