<svg version="1.1" id="Calque_1" xmlns="http://www.w3.org/2000/svg" x="0" y="0" viewBox="0 0 250 250" style="enable-background:new 0 0 250 250" xml:space="preserve"><style>.st0{fill:#00c8ff}</style><circle class="st0" cx="125.5" cy="125.4" r="75.5"/><circle cx="125.5" cy="125.4" r="68" style="fill:#261300"/><path class="st0" d="M152.8 122.6c-6.4-3.3-7.5-4.8-7.5-7 0-2 1.6-4.4 6.4-4.4 3.9 0 7.8 1 10.5 2.7.6.2.9-.1.9-.6V105c0-.4-.1-.9-.6-1.2-2-.9-5.6-1.7-10.8-1.7-10.5 0-16.6 6.4-16.6 14.2 0 6.9 3.6 11.1 12.1 15.2 6.1 3.1 7.5 5.1 7.5 7.2 0 2.7-2 4.7-6.7 4.7-4 0-8.3-1.1-12.1-3.6-.4-.3-.7-.1-.7.5v8.9c0 .5.1.8.5 1 2.6 1.5 7.1 2.6 12.3 2.6 9.9 0 17.3-5.2 17.3-14.8-.1-6.5-3-10.9-12.5-15.4zM99.2 151.8c.5 0 .7-.2.7-.7V128c1.6 0 2.4.1 4.7.1 13.6 0 24.7-6.6 24.7-21.9 0-11.7-6.5-20.9-23.2-20.9-6 0-11.7.1-15.5.3-.5 0-1.3.3-1.3.7V151c0 .5.2.7.7.7h9.2zm.8-56.7c1.1-.1 3.4-.2 5.8-.2 8 0 12.8 3.9 12.8 11.5 0 9.6-6.6 12-13.7 12-2.4 0-3.5 0-4.9-.1V95.1z"/></svg>