<svg version="1.1" id="Calque_1" xmlns="http://www.w3.org/2000/svg" x="0" y="0" viewBox="0 0 480 480" style="enable-background:new 0 0 480 480" xml:space="preserve"><style>.st0{fill:#56b3b4}.st1{fill:#ea5e5e}.st2{fill:#bf85bf}.st3{fill:#f7ba3e}.st4{opacity:.5;fill:#d0d4d8;enable-background:new}</style><g id="Page-1"><g id="prettier-icon-dark"><g id="Icon-_x28_Dark_x29_"><g id="Group"><path id="Rectangle" class="st0" d="M290.2 174.8h10c2.9 0 5 2.1 5 5s-2.1 5-5 5h-10c-2.9 0-5-2.1-5-5s2.2-5 5-5z"/><path id="Rectangle_1_" class="st1" d="M139.6 335.4h50.2c2.9 0 5 2.1 5 5s-2.1 5-5 5h-50.2c-2.9 0-5-2.1-5-5s2.1-5 5-5z"/><path id="Rectangle_2_" class="st2" d="M260 255h30.2c2.9 0 5 2.1 5 5s-2.1 5-5 5H260c-2.9 0-5-2.1-5-5 0-2.7 2.3-5 5-5z"/><path id="Rectangle_3_" class="st1" d="M199.8 255H240c2.9 0 5 2.1 5 5s-2.1 5-5 5h-40.2c-2.9 0-5-2.1-5-5 0-2.7 2.3-5 5-5z"/><path id="Rectangle_4_" class="st0" d="M139.6 255h40.2c2.9 0 5 2.1 5 5s-2.1 5-5 5h-40.2c-2.9 0-5-2.1-5-5 0-2.7 2.1-5 5-5z"/><path id="Rectangle_5_" class="st2" d="M139.6 295.2h50.2c2.9 0 5 2.1 5 5s-2.1 5-5 5h-50.2c-2.9 0-5-2.1-5-5 0-2.7 2.1-5 5-5z"/><path id="Rectangle_6_" class="st2" d="M139.6 215h50.2c2.9 0 5 2.1 5 5s-2.1 5-5 5h-50.2c-2.9 0-5-2.1-5-5s2.1-5 5-5z"/><path id="Rectangle_7_" class="st3" d="M189.8 154.6h100.4c2.9 0 5 2.1 5 5s-2.1 5-5 5H189.8c-2.9 0-5-2.1-5-5 0-2.7 2.1-5 5-5z"/><path id="Rectangle_8_" class="st1" d="M139.6 154.6h30.2c2.9 0 5 2.1 5 5s-2.1 5-5 5h-30.2c-2.9 0-5-2.1-5-5 0-2.7 2.1-5 5-5z"/><path id="Rectangle_9_" class="st3" d="M179.8 315.3h10c2.9 0 5 2.1 5 5s-2.1 5-5 5h-10c-2.9 0-5-2.1-5-5s2.1-5 5-5z"/><path id="Rectangle_10_" class="st0" d="M179.8 194.8h10c2.9 0 5 2.1 5 5s-2.1 5-5 5h-10c-2.9 0-5-2.1-5-5s2.1-5 5-5z"/><path id="Rectangle_11_" class="st0" d="M139.6 315.3h20c2.9 0 5 2.1 5 5s-2.1 5-5 5h-20c-2.9 0-5-2.1-5-5s2.1-5 5-5z"/><path id="Rectangle_12_" class="st3" d="M139.6 194.8h20c2.9 0 5 2.1 5 5s-2.1 5-5 5h-20c-2.9 0-5-2.1-5-5s2.1-5 5-5z"/><path id="Rectangle_13_" class="st4" d="M270.2 315.3h10c2.9 0 5 2.1 5 5s-2.1 5-5 5h-10c-2.9 0-5-2.1-5-5s2.1-5 5-5z"/><path id="Rectangle_14_" class="st4" d="M209.8 315.3H250c2.9 0 5 2.1 5 5s-2.1 5-5 5h-40.2c-2.9 0-5-2.1-5-5s2.3-5 5-5z"/><path id="Rectangle_15_" class="st4" d="M300.2 315.3h40.2c2.9 0 5 2.1 5 5s-2.1 5-5 5h-40.2c-2.9 0-5-2.1-5-5s2.3-5 5-5z"/><path id="Rectangle_16_" class="st0" d="M220 235h80.4c2.9 0 5 2.1 5 5s-2.1 5-5 5H220c-2.9 0-5-2.1-5-5s2.1-5 5-5z"/><path id="Rectangle_17_" class="st3" d="M169.8 235H200c2.9 0 5 2.1 5 5s-2.1 5-5 5h-30.2c-2.9 0-5-2.1-5-5s2.1-5 5-5z"/><path id="Rectangle_18_" class="st1" d="M139.6 235h10c2.9 0 5 2.1 5 5s-2.1 5-5 5h-10c-2.9 0-5-2.1-5-5s2.1-5 5-5z"/><path id="Rectangle_19_" class="st2" d="M230 174.8h40.2c2.9 0 5 2.1 5 5s-2.1 5-5 5H230c-2.9 0-5-2.1-5-5s2.1-5 5-5z"/><path id="Rectangle_20_" class="st0" d="M139.6 174.8h70.2c2.9 0 5 2.1 5 5s-2.1 5-5 5h-70.2c-2.9 0-5-2.1-5-5s2.1-5 5-5z"/><path id="Rectangle_21_" class="st3" d="M169.8 275.2H260c2.9 0 5 2.1 5 5s-2.1 5-5 5h-90.3c-2.9 0-5-2.1-5-5s2.2-5 5.1-5z"/><path id="Rectangle_22_" class="st2" d="M139.6 275.2h10c2.9 0 5 2.1 5 5s-2.1 5-5 5h-10c-2.9 0-5-2.1-5-5s2.1-5 5-5z"/><path id="Rectangle_23_" class="st1" d="M260 194.8h50.2c2.9 0 5 2.1 5 5s-2.1 5-5 5H260c-2.9 0-5-2.1-5-5s2.3-5 5-5z"/><path id="Rectangle_24_" class="st3" d="M260 215h50.2c2.9 0 5 2.1 5 5s-2.1 5-5 5H260c-2.9 0-5-2.1-5-5s2.3-5 5-5z"/><path id="Rectangle_25_" class="st0" d="M139.6 134.6H260c2.9 0 5 2.1 5 5s-2.1 5-5 5H139.6c-2.9 0-5-2.1-5-5s2.1-5 5-5z"/><path id="Rectangle_26_" class="st4" d="M280.2 134.6h60.2c2.9 0 5 2.1 5 5s-2.1 5-5 5h-60.2c-2.9 0-5-2.1-5-5s2.1-5 5-5z"/><path id="Rectangle_27_" class="st4" d="M280.2 275.2h20c2.9 0 5 2.1 5 5s-2.1 5-5 5h-20c-2.9 0-5-2.1-5-5s2.1-5 5-5z"/><path id="Rectangle_28_" class="st4" d="M320.4 275.2h20c2.9 0 5 2.1 5 5s-2.1 5-5 5h-20c-2.9 0-5-2.1-5-5-.1-2.9 2.1-5 5-5z"/><path id="Rectangle_29_" class="st4" d="M310.2 255h30.2c2.9 0 5 2.1 5 5s-2.1 5-5 5h-30.2c-2.9 0-5-2.1-5-5 0-2.7 2.3-5 5-5z"/><path id="Rectangle_30_" class="st4" d="M310.2 154.6h30.2c2.9 0 5 2.1 5 5s-2.1 5-5 5h-30.2c-2.9 0-5-2.1-5-5 0-2.7 2.3-5 5-5z"/><path id="Rectangle_31_" class="st4" d="M320.4 235h20c2.9 0 5 2.1 5 5s-2.1 5-5 5h-20c-2.9 0-5-2.1-5-5s2.1-5 5-5z"/><path id="Rectangle_32_" class="st4" d="M320.4 174.8h20c2.9 0 5 2.1 5 5s-2.1 5-5 5h-20c-2.9 0-5-2.1-5-5-.1-2.9 2.1-5 5-5z"/><path id="Rectangle_33_" class="st4" d="M330.4 194.8h10c2.9 0 5 2.1 5 5s-2.1 5-5 5h-10c-2.9 0-5-2.1-5-5s2.2-5 5-5z"/><path id="Rectangle_34_" class="st4" d="M330.4 215h10c2.9 0 5 2.1 5 5s-2.1 5-5 5h-10c-2.9 0-5-2.1-5-5s2.2-5 5-5z"/><path id="Rectangle_35_" class="st4" d="M250 295.2h90.4c2.9 0 5 2.1 5 5s-2.1 5-5 5H250c-2.9 0-5-2.1-5-5 0-2.7 2.3-5 5-5z"/><path id="Rectangle_36_" class="st4" d="M209.8 295.2h20c2.9 0 5 2.1 5 5s-2.1 5-5 5h-20c-2.9 0-5-2.1-5-5 0-2.7 2.3-5 5-5z"/><path id="Rectangle_37_" class="st4" d="M290.2 335.4h50.2c2.9 0 5 2.1 5 5s-2.1 5-5 5h-50.2c-2.9 0-5-2.1-5-5s2.2-5 5-5z"/><path id="Rectangle_38_" class="st4" d="M209.8 335.4H270c2.9 0 5 2.1 5 5s-2.1 5-5 5h-60.2c-2.9 0-5-2.1-5-5s2.3-5 5-5z"/><path id="Rectangle_39_" class="st4" d="M209.8 194.8H240c2.9 0 5 2.1 5 5s-2.1 5-5 5h-30.2c-2.9 0-5-2.1-5-5s2.3-5 5-5z"/><path id="Rectangle_40_" class="st4" d="M209.8 215H240c2.9 0 5 2.1 5 5s-2.1 5-5 5h-30.2c-2.9 0-5-2.1-5-5s2.3-5 5-5z"/></g></g></g></g></svg>