<svg xmlns="http://www.w3.org/2000/svg" viewBox="0 0 480 480" style="enable-background:new 0 0 480 480" xml:space="preserve"><path d="M241.5 344.8c24.2-86.4 23.5-86.8 41-148.4l4.3 2.4c2.3 1.3 4.1.3 4.1-2.4v-29.3c4.7-16.2 8.3-28.7 9.4-32.6h18.9l31.4 29.2-20.6 17.8 15.6 16.9L242.8 345c-.9.7-1.6.5-1.3-.2zm11.2-186.2c1 0 1.7.6 1.7 1.1v15.1c0 .6-.7 1.1-1.7 1.1h-25.5c-1 0-1.7-.6-1.7-1.1v-15.1c0-.6.7-1.1 1.7-1.1h25.5zM284 142l-28 16c.3.4.6 1 .6 1.7v15.1c0 .7-.3 1.4-.9 2l28.3 16.4c2 1.1 3.6.1 3.6-2V144c0-2.3-1.6-3.2-3.6-2zm-60.7 32.8v-15.1c0-.6.1-1.1.6-1.7l-28-16.1c-2-1.1-3.6-.1-3.6 2v47.2c0 2.3 1.6 3.1 3.6 2l28.3-16.4c-.6-.5-.9-1.2-.9-1.9zm14.1 170h1c-24.2-86.4-23.5-86.8-41-148.4l-4.3 2.4c-2.3 1.3-4.1.3-4.1-2.4v-29.3c-4.7-16.2-8.3-28.7-9.4-32.6h-18.8l-31.4 29.2 20.6 17.8-15.6 16.9 103 146.4zm1.8-137.4c4.3 0 7.7-3.4 7.7-7.7s-3.4-7.7-7.7-7.7-7.7 3.4-7.7 7.7c0 4.3 3.4 7.7 7.7 7.7zm0 45.4c4.3 0 7.7-3.4 7.7-7.7s-3.4-7.7-7.7-7.7-7.7 3.4-7.7 7.7 3.4 7.7 7.7 7.7zm0 45.4c4.3 0 7.7-3.4 7.7-7.7s-3.4-7.7-7.7-7.7-7.7 3.4-7.7 7.7 3.4 7.7 7.7 7.7z"/></svg>