<svg xmlns="http://www.w3.org/2000/svg" viewBox="0 0 250 250" style="enable-background:new 0 0 250 250" xml:space="preserve"><path d="M179.6 136.6c7.7-30.6-11-66.7-42.7-85.7 13.9 18.8 20 41.6 14.6 61.5-.5 1.8-1.1 3.5-1.7 5.1-.7-.5-1.6-1-2.8-1.6 0 0-31.5-19.5-65.7-53.9-.9-.9 18.2 27.3 39.9 50.2-10.2-5.7-38.7-26.5-56.7-42.9 2.2 3.7 4.8 7.2 7.7 10.7 15.1 19.1 34.7 42.6 58.2 60.7-16.5 10.1-39.9 10.9-63.1 0-5.8-2.7-11.2-5.9-16.2-9.6 9.8 15.7 25 29.3 43.4 37.2 22 9.5 43.9 8.8 60.2.2.1 0 .2-.1.2-.1.7-.4 1.3-.7 2-1.1 7.8-4.1 23.3-8.2 31.6 8 2.1 3.9 6.4-17-9.5-36.6l.6-2.1z" style="fill:#f05138"/></svg>