<svg xmlns="http://www.w3.org/2000/svg" viewBox="0 0 250 250" style="enable-background:new 0 0 250 250" xml:space="preserve"><linearGradient id="a" gradientUnits="userSpaceOnUse" x1="94.57" y1="144.858" x2="165.611" y2="241.337" gradientTransform="translate(0 -94)"><stop offset="0" style="stop-color:#41d1ff"/><stop offset="1" style="stop-color:#bd34fe"/></linearGradient><path d="m185.3 82.1-57.1 102.1c-1.2 2.1-4.2 2.1-5.4 0l-58.1-102c-1.3-2.3.7-5.1 3.2-4.6L125 87.9c.4.1.8.1 1.1 0L182 77.7c2.7-.6 4.6 2.2 3.3 4.4z" style="fill:url(#a)"/><linearGradient id="b" gradientUnits="userSpaceOnUse" x1="128.116" y1="159.504" x2="140.967" y2="247.66" gradientTransform="translate(0 -94)"><stop offset="0" style="stop-color:#ffea83"/><stop offset=".083" style="stop-color:#ffdd35"/><stop offset="1" style="stop-color:#ffa800"/></linearGradient><path d="M152.3 64.2 110 72.5c-.7.1-1.2.7-1.3 1.4l-2.6 43.9c0 1 .9 1.8 1.9 1.6l11.8-2.7c1.1-.3 2.1.7 1.9 1.8l-3.5 17.1c-.3 1.1.8 2.1 2 1.8l7.3-2.2c1.1-.3 2.2.6 2 1.8l-5.5 26.9c-.3 1.7 1.9 2.6 2.8 1.2l.6-1 34.4-68.7c.6-1.1-.4-2.5-1.7-2.2L148 95.5c-1.1.2-2.1-.8-1.8-2l7.9-27.4c.2-1.1-.7-2.1-1.8-1.9z" style="fill:url(#b)"/></svg>