<svg version="1.1" id="Layer_1" xmlns="http://www.w3.org/2000/svg" xmlns:xlink="http://www.w3.org/1999/xlink" x="0" y="0" viewBox="0 0 720 400" style="enable-background:new 0 0 720 400" xml:space="preserve"><style>.st0{fill:#7703fc}.st2{fill:none;stroke:#1a2e35;stroke-linecap:round;stroke-linejoin:round;stroke-miterlimit:10}.st3{fill:#1a2e35}.st6,.st7{stroke:#1a2e35;stroke-linecap:round;stroke-linejoin:round}.st6{fill:#fff;stroke-miterlimit:10}.st7{fill:#1a2e35}.st7,.st8,.st9{stroke-miterlimit:10}.st8{fill:#7703fc;stroke:#1a2e35;stroke-linecap:round;stroke-linejoin:round}.st9{fill:none;stroke:#fff;stroke-width:2}.st10{fill:#fff}.st11,.st12{stroke-linecap:round;stroke-linejoin:round;stroke-miterlimit:10}.st11{fill:none;stroke:#1a2e35;stroke-width:2}.st12{fill:#1a2e35;stroke:#fff}.st13{fill:#e4d4fc}.st14{opacity:.4;fill:#fff}</style><path class="st0" d="M0 0h720v400H0z"/><path style="opacity:.7;fill:#fff" d="M0 0h720v400H0z"/><path class="st2" d="M125.5 213.6h428.7"/><ellipse class="st3" cx="178.9" cy="240.1" rx="36.4" ry="13.5"/><defs><path id="XMLID_176_" d="m157.6 197.5 5.1 41.2c0 6.6 12.3 12 27.5 12s27.5-5.4 27.5-12l5.1-41.2h-65.2z"/></defs><use xlink:href="#XMLID_176_" style="overflow:visible;fill:#fff"/><clipPath id="XMLID_3_"><use xlink:href="#XMLID_176_" style="overflow:visible"/></clipPath><path d="M185.5 197.5h-27.9l5.1 41.2c0 6.6 12.3 12 27.5 12 1 0 2 0 2.9-.1-8.6-15.3-8.8-37.9-7.6-53.1z" style="clip-path:url(#XMLID_3_);fill:#7703fc"/><path d="M185.5 197.5h-27.9l5.1 41.2c0 6.6 12.3 12 27.5 12 1 0 2 0 2.9-.1-8.6-15.3-8.8-37.9-7.6-53.1z" style="opacity:.4;clip-path:url(#XMLID_3_);fill:#fff"/><use xlink:href="#XMLID_176_" style="overflow:visible;fill:none;stroke:#1a2e35;stroke-linecap:round;stroke-linejoin:round;stroke-miterlimit:10"/><ellipse class="st6" cx="190.2" cy="197.5" rx="32.6" ry="14.2"/><ellipse class="st7" cx="190.2" cy="197.1" rx="29.1" ry="12.3"/><path class="st2" d="M192.5 198.4s-2.6-24-18.8-42.2c-16.2-18.2-12.2-15.9-12.2-15.9M221.6 127.1s-19.5 19.5-22.7 41.5c-3.2 22.1-1.2 25.6-1.2 25.6M195.6 197.1s-3.8-13.6-7.7-40.8c-3.9-27.2-1.9-41.5-1.9-41.5"/><path class="st0" d="M163.1 147.7s-5.4 5.9-13.8-5.7c-8.4-11.6-5.6-25-5.6-25s4.3 6.5 10.7 9.2c6.5 2.8 15.9 18.4 8.7 21.5zM186 121.2s-7.8 1.9-8.4-12.3c-.6-14.3 9.1-24 9.1-24s0 7.8 3.9 13.6c3.8 5.9 3.2 24-4.6 22.7zM218.1 134.3s-7.6-2.6-.3-14.9 20.7-15.1 20.7-15.1-4.3 6.5-4.2 13.5c.1 7-10.4 21.8-16.2 16.5zM195.1 195.2s5.2-23.4 16.2-34.4 24.6-10.4 24.6-10.4-13 5.2-16.9 15.6-10.4 33.1-10.4 33.1h-32.4s-3.9-8.4-14.9-18.2c-11-9.7-29.2-16.2-29.2-16.2s20.1-7.1 34.4-1.3c14.3 5.8 24.6 30.5 24.6 30.5l4 1.3z"/><path class="st0" d="M200.1 195.1s-12.9-8.8-26.9-7.4c-14 1.5-15.2 12.9-15.8 16.2-.6 3.3-.6 5.9-.6 5.9s18.1-5.5 29.3-7.4c11-1.8 15.7 3.4 14-7.3z"/><path class="st0" d="M195.3 195.1s8.1-8.8 16.9-7.4c8.8 1.5 9.6 12.9 9.9 16.2.4 3.3.4 5.9.4 5.9s-11.4-5.5-18.4-7.4c-7-1.8-9.9 3.4-8.8-7.3z"/><g id="XMLID_1_"><path id="XMLID_149_" class="st7" d="M497.9 233.5H234.6V61.2c0-4.5 3.6-8.1 8.1-8.1h247c4.5 0 8.1 3.6 8.1 8.1v172.3z"/><path id="XMLID_146_" class="st6" d="M537.4 313.2H195.2l39.4-79.7h263.3z"/><path id="XMLID_145_" class="st8" d="M250.6 67.4h231.3v151.8H250.6z"/><circle transform="rotate(-45.001 291.742 151.647)" class="st3" cx="291.7" cy="151.6" r="32.7"/><circle transform="rotate(-45.001 367.312 151.648)" class="st3" cx="367.3" cy="151.6" r="32.7"/><circle transform="rotate(-13.119 442.951 151.696)" class="st3" cx="442.9" cy="151.6" r="32.7"/><path class="st6" d="M269.3 143.3s14.4-39.4 22.9-39.4c8.5 0 23.3 38.9 23.3 38.9l-2.5.2s-14.6-34.1-19-36.2c-4.3-2.1-12.4 10.3-22.2 36.4h-2.5z"/><path class="st6" d="M315.5 173.1h-46.2c-1.9 0-3.5-1.5-3.5-3.5v-24.3c0-2.4 1.9-4.3 4.3-4.3h44.4c2.4 0 4.3 1.9 4.3 4.3v24.3c.1 1.9-1.4 3.5-3.3 3.5zM266.3 158.2h48.1"/><path class="st6" d="M316.4 142.2s-1.1 1.4-1.1 5.3-1.4 24.5-1.1 25.4c.2.9 1.6.2 1.6.2M288.5 153.6h3.7v8.2h-3.7zM338.7 132.5s15.3-1.3 33.2-1.3 26.4 1.1 26.6 2.2c.2 1.1-2.4 15.5-2.4 16.8s0 19.9-.4 21c-.4 1.1-2.4 2-3.3 2.2-.9.2-47.4.7-48.7.7s-2.4-1.3-2.4-2.7.7-15.9-.4-21.3c-1.3-5.2-2.2-17.6-2.2-17.6z"/><path class="st6" d="M355.1 139.8s-.2-17.5 1.6-23.5 7.3-8.9 11.7-8.9c4.4 0 12.6 3.5 14.8 12.2 2.2 8.6.4 19.5.2 20.6-.2 1.1-2.7 4.2-3.1-1.8-.4-6 .4-19.9-1.3-23.9-1.8-4-6.9-6.9-11.5-5.8-4.7 1.1-7.1 3.1-8 8.9-.9 5.8.9 19-.2 21.9-1.1 3-3.8 4.3-4.2.3zM342.9 132.7s-1.1 11.7-1.1 16.2c0 4.4-.2 7.3-.2 7.3"/><path class="st2" d="M394.7 133s.4 11.7.4 18.6"/><path class="st6" d="M451.8 130.7c-.5 0-1-.4-1.1-1-2.2-13.7-4.9-28.7-6.3-33.6-2.1 4.6-6.6 19.3-10.4 32.7-.2.6-.8 1-1.4.8-.6-.2-1-.8-.8-1.4 0-.1 2.4-8.6 5-17.1 5.5-17.7 6.5-18.1 7.3-18.4.4-.1.9-.1 1.2.2.6.4 1.4 1 4.7 19 1.6 8.7 3 17.3 3 17.4.1.6-.3 1.2-1 1.3 0 .1-.1.1-.2.1z"/><path class="st6" d="M415.1 126.9s22.5-1.4 30.3-1.1c7.8.3 21.5 1.2 21.5 2 0 .9-.3 29.4-1.1 35.1-.8 5.7-4.8 12.8-8.3 14.1-3.5 1.3-15.3.8-21.3.6-6-.2-11.5-1-14.2-4.9-2.7-3.9-4.7-20.1-4.7-20.1l-2.2-25.7z"/><path class="st6" d="M433 133.1c.1-1.3-.9-2.3-2.2-2.4-1.3-.1-2.3.9-2.4 2.2-.1 1.3.9 2.3 2.2 2.4 1.3.1 2.4-.9 2.4-2.2z"/><circle transform="rotate(-80.561 452.237 134.18)" class="st6" cx="452.3" cy="134.2" r="2.3"/><path class="st6" d="M419.1 164.8s16.2-1.4 45.8.1"/><path class="st3" d="M254.2 71.9h223.4v18.2H254.2z"/><path class="st9" d="M362.5 82.2h22.2M410.3 82.2h22.1"/><path class="st10" d="M470.6 76.6c-.1-.1-.2-.2-.4-.2H458l-.5-1.4c-.1-.2-.2-.3-.4-.3H454c-.3 0-.5.2-.5.5s.2.5.5.5h2.7l3 8.9c.1.2.2.3.4.3h.2c-.2.3-.3.6-.3.9 0 .9.7 1.6 1.6 1.6.9 0 1.6-.7 1.6-1.6 0-.3-.1-.6-.3-.9h2.3c-.2.3-.3.6-.3.9 0 .9.7 1.6 1.6 1.6.9 0 1.6-.7 1.6-1.6 0-.3-.1-.6-.3-.9h.4c.3 0 .5-.2.5-.5s-.2-.5-.5-.5h-7.9l-.5-1.6h8.8c.2 0 .4-.1.5-.3l1.3-5c.3-.2.3-.3.2-.4zm-8.9 9.8c-.4 0-.7-.3-.7-.7 0-.4.3-.7.7-.7.4 0 .7.3.7.7 0 .4-.3.7-.7.7zm5 0c-.4 0-.7-.3-.7-.7 0-.4.3-.7.7-.7.4 0 .7.3.7.7 0 .4-.3.7-.7.7zm1.3-5h-1.7v-4.1h1.7v4.1zm-4.4-4.1h1.7v4.1h-1.7v-4.1zm-1 4.1h-1.7v-4.1h1.7v4.1zm-4.2-4.1h1.6v4.1h-.2l-1.4-4.1zm10.5 2.4v-2.4h.6l-.6 2.4z"/><path class="st10" d="M474.2 76.3c0-1.9-1.5-3.4-3.4-3.4s-3.5 1.5-3.5 3.4 1.5 3.5 3.5 3.5c1.9-.1 3.4-1.6 3.4-3.5z"/><path class="st3" d="M469.4 78.4c-.1-.1-.1-.2-.2-.3v-.3c0-.1.1-.2.2-.3L471 76c.2-.2.3-.4.3-.6 0-.1-.1-.3-.2-.4-.1-.1-.3-.1-.4-.1h-.2c-.1 0-.1 0-.2.1-.1 0-.1 0-.2.1 0 0-.1.1-.2.1s-.1.1-.2.1h-.2c-.1 0-.1-.1-.2-.1-.1-.1-.1-.1-.1-.2v-.2c0-.1.1-.1.2-.2.5-.3.9-.4 1.4-.4.4 0 .8.1 1 .4.3.2.4.6.4.9 0 .2-.1.5-.2.7-.1.2-.3.5-.6.7l-1.2 1h1.6c.1 0 .2 0 .2.1.1.1.1.2.1.3 0 .1 0 .2-.1.3-.1.1-.1.1-.2.1h-2.3c.1-.2 0-.2-.1-.3z"/><path class="st10" d="M344.3 86.4h-81.8c-3 0-5.4-2.4-5.4-5.4 0-3 2.4-5.4 5.4-5.4h81.8c3 0 5.4 2.4 5.4 5.4 0 2.9-2.4 5.4-5.4 5.4z"/><path class="st11" d="M274.9 194.5h33.5M274.9 200.9h33.5M350.6 194.5H384M350.6 200.9H384M426.2 194.5h33.5M426.2 200.9h33.5"/><g id="XMLID_6_"><path id="XMLID_144_" class="st12" d="m355.3 258.7.4-9.7h-13.9l-.9 9.7z"/><path id="XMLID_143_" class="st12" d="m384 258.7-.4-9.7h-14l.1 9.7z"/><path id="XMLID_142_" class="st12" d="M458.9 269.1h14.9l-3.5-10.4h-14.4z"/><path id="XMLID_141_" class="st12" d="m340.9 258.7.9-9.7h-13.9l-1.4 9.7z"/><path id="XMLID_140_" class="st12" d="m312.2 258.7 1.8-9.7h-13.9l-2.3 9.7z"/><path id="XMLID_139_" class="st12" d="m441.5 258.7-2.3-9.7h-13.9l1.8 9.7z"/><path id="XMLID_134_" class="st12" d="m455.9 258.7-2.8-9.7h-13.9l2.3 9.7z"/><path id="XMLID_133_" class="st12" d="m297.8 258.7 2.3-9.7h-13.9l-2.8 9.7z"/><path id="XMLID_131_" class="st12" d="m398.4 258.7-.9-9.7h-13.9l.4 9.7z"/><path id="XMLID_130_" class="st12" d="M470.3 258.7 467 249h-13.9l2.8 9.7z"/><path id="XMLID_129_" class="st12" d="m427.1 258.7-1.8-9.7h-13.9l1.4 9.7z"/><path id="XMLID_128_" class="st12" d="m412.8 258.7-1.4-9.7h-13.9l.9 9.7z"/><path id="XMLID_93_" class="st12" d="m369.7 258.7-.1-9.7h-13.9l-.4 9.7z"/><path id="XMLID_92_" class="st12" d="M269 258.7h-14.3l-4 10.4h14.9z"/><path id="XMLID_91_" class="st12" d="M272.3 249h-13.9l-3.7 9.7H269z"/><path id="XMLID_90_" class="st12" d="m283.4 258.7 2.8-9.7h-13.9l-3.3 9.7z"/><path id="XMLID_89_" class="st12" d="m246.4 280.2-4.5 12h15.9l4-12z"/><path id="XMLID_88_" class="st12" d="M265.6 269.1h-14.9l-4.3 11.1h15.4z"/><path id="XMLID_79_" class="st12" d="m261.8 280.2-4 12h16l3.4-12z"/><path id="XMLID_73_" class="st12" d="m326.5 258.7 1.4-9.7H314l-1.8 9.7z"/><path id="XMLID_72_" class="st12" d="m325 269.1 1.5-10.4h-14.3l-2 10.4z"/><path id="XMLID_71_" class="st12" d="m310.2 269.1 2-10.4h-14.4l-2.5 10.4z"/><path id="XMLID_70_" class="st12" d="m339.9 269.1 1-10.4h-14.4l-1.5 10.4z"/><path id="XMLID_69_" class="st12" d="M283.4 258.7H269l-3.4 10.4h14.8z"/><path id="XMLID_68_" class="st12" d="M462.1 280.2h15.4l-3.7-11.1h-14.9z"/><path id="XMLID_67_" class="st12" d="m295.3 269.1 2.5-10.4h-14.4l-3 10.4z"/><path id="XMLID_66_" class="st12" d="m265.6 269.1-3.8 11.1h15.4l3.2-11.1z"/><path id="XMLID_65_" class="st12" d="m429.1 269.1-2-10.4h-14.3l1.5 10.4z"/><path id="XMLID_64_" class="st12" d="m414.3 269.1-1.5-10.4h-14.4l1 10.4z"/><path id="XMLID_63_" class="st12" d="m458.9 269.1-3-10.4h-14.4l2.5 10.4z"/><path id="XMLID_62_" class="st12" d="M369.7 269.1v-10.4h-14.4l-.5 10.4z"/><path id="XMLID_61_" class="st12" d="m399.4 269.1-1-10.4H384l.5 10.4z"/><path id="XMLID_60_" class="st12" d="m384.5 269.1-.5-10.4h-14.3v10.4z"/><path id="XMLID_59_" class="st12" d="m354.8 269.1.5-10.4h-14.4l-1 10.4z"/><path id="XMLID_58_" class="st12" d="m399.4 269.1 1.1 11.1h15.4l-1.6-11.1z"/><path id="XMLID_57_" class="st12" d="m414.3 269.1 1.6 11.1h15.4l-2.2-11.1z"/><path id="XMLID_56_" class="st12" d="m280.4 269.1-3.2 11.1h15.5l2.6-11.1z"/><path id="XMLID_55_" class="st12" d="m429.1 269.1 2.2 11.1h15.4l-2.7-11.1z"/><path id="XMLID_54_" class="st12" d="M369.7 269.1v11.1h15.4l-.6-11.1z"/><path id="XMLID_52_" class="st12" d="m444 269.1 2.7 11.1h15.4l-3.2-11.1z"/><path id="XMLID_50_" class="st12" d="m384.5 269.1.6 11.1h15.4l-1.1-11.1z"/><path id="XMLID_49_" class="st12" d="m310.2 269.1-2.1 11.1h15.4l1.5-11.1z"/><path id="XMLID_48_" class="st12" d="m295.3 269.1-2.6 11.1h15.4l2.1-11.1z"/><path id="XMLID_47_" class="st12" d="m354.8 269.1-.5 11.1h15.4v-11.1z"/><path id="XMLID_43_" class="st12" d="m339.9 269.1-1 11.1h15.4l.5-11.1z"/><path id="XMLID_42_" class="st12" d="m325 269.1-1.5 11.1h15.4l1-11.1z"/><path id="XMLID_41_" class="st12" d="m444 269.1-2.5-10.4h-14.4l2 10.4z"/><path id="XMLID_40_" class="st12" d="m272.3 249 3.3-10h-13.4l-3.8 10z"/><path id="XMLID_39_" class="st12" d="M258.4 249h-12.9l-4.1 9.7h13.3z"/><path id="XMLID_38_" class="st12" d="M262.2 239h-12.4l-4.3 10h12.9z"/><path id="XMLID_37_" class="st12" d="M254.7 258.7h-13.3l-4.4 10.4h13.7z"/><path id="XMLID_36_" class="st12" d="M250.7 269.1H237l-4.8 11.1h14.2z"/><path id="XMLID_35_" class="st12" d="M246.4 280.2h-14.2l-5.1 12h14.8z"/><path id="XMLID_34_" class="st12" d="m484.6 258.7 4 10.4h13.2l-4.4-10.4z"/><path id="XMLID_33_" class="st12" d="M492.9 280.2h13.6l-4.7-11.1h-13.2z"/><path id="XMLID_32_" class="st12" d="M497.5 292.2h14.1l-5.1-12h-13.6z"/><path id="XMLID_31_" class="st12" d="m383.6 249-.5-10h-13.5v10z"/><path id="XMLID_30_" class="st12" d="M484.6 258.7h12.8l-4.2-9.7h-12.3z"/><path id="XMLID_29_" class="st12" d="M477.5 280.2h15.4l-4.3-11.1h-14.8z"/><path id="XMLID_28_" class="st12" d="m286.2 249 2.8-10h-13.4l-3.3 10z"/><path id="XMLID_27_" class="st12" d="m467 249 3.3 9.7h14.3l-3.7-9.7z"/><path id="XMLID_26_" class="st12" d="m493.2 249-4.2-10h-11.9l3.8 10z"/><path id="XMLID_25_" class="st12" d="m480.9 249-3.8-10h-13.4l3.3 10z"/><path id="XMLID_24_" class="st12" d="m431.3 280.2 2.3 12h16l-2.9-12z"/><path id="XMLID_23_" class="st12" d="M481.5 292.2h16l-4.6-12h-15.4z"/><path id="XMLID_22_" class="st12" d="m467 249-3.3-10h-13.5l2.9 10z"/><path id="XMLID_21_" class="st12" d="m462.1 280.2 3.4 12h16l-4-12z"/><path id="XMLID_20_" class="st12" d="m446.7 280.2 2.9 12h15.9l-3.4-12z"/><path id="XMLID_19_" class="st12" d="M473.8 269.1h14.8l-4-10.4h-14.3z"/><path id="XMLID_18_" class="st12" d="m341.8 249 1-10h-13.5l-1.4 10z"/><path id="XMLID_17_" class="st12" d="m453.1 249-2.9-10h-13.4l2.4 10z"/><path id="XMLID_16_" class="st12" d="m327.9 249 1.4-10h-13.4l-1.9 10z"/><path id="XMLID_15_" class="st12" d="M369.6 249v-10h-13.4l-.5 10z"/><path id="XMLID_14_" class="st12" d="m314 249 1.9-10h-13.4l-2.4 10z"/><path id="XMLID_13_" class="st12" d="m300.1 249 2.4-10H289l-2.8 10z"/><path id="XMLID_12_" class="st12" d="m355.7 249 .5-10h-13.4l-1 10z"/><path id="XMLID_11_" class="st12" d="m439.2 249-2.4-10h-13.4l1.9 10z"/><path id="XMLID_10_" class="st12" d="m425.3 249-1.9-10h-13.5l1.5 10z"/><path id="XMLID_9_" class="st12" d="m397.5 249-1-10h-13.4l.5 10z"/><path id="XMLID_8_" class="st12" d="M431.3 280.2H277.2l-3.4 12h159.8z"/><path id="XMLID_7_" class="st12" d="m411.4 249-1.5-10h-13.4l1 10z"/></g><path id="XMLID_5_" class="st7" d="M195.2 313.2h342.4v4.9H195.2z"/></g><path class="st8" d="m422.7 398.9-124 1c-2.6 0-4.5-1.6-4.2-3.5l7.9-46.5c.2-1.5 2.3-2.7 4.5-2.7l106.2-.5c2.2 0 4.3 1.2 4.6 2.6l9 46c.4 2-1.4 3.6-4 3.6z"/><path class="st2" d="M363.9 355.1h38.9M343.8 358.4h59"/><path class="st7" d="M342.2 386.8c-23.6 7.5-38.7 8.8-47.5 8.4l-.3 1.7c-.3 1.7 1.3 3 3.6 3l125.3-1c2.2 0 3.8-1.4 3.5-3.1l-5.4-27.7c-32.7-.8-42.2 6.9-79.2 18.7z"/><path class="st6" d="m322 366.9-9.8.1c-.9 0-1.6-.5-1.5-1.1l.8-6.2c.1-.6.9-1.1 1.7-1.1l9.5-.1c.9 0 1.6.5 1.5 1.1l-.6 6.2c.1.6-.7 1.1-1.6 1.1z"/><path class="st6" d="M318.6 364h-2.4c-.4 0-.8-.2-.7-.5l.2-1.5c0-.3.4-.5.9-.5h2.4c.4 0 .8.2.7.5l-.2 1.5c-.1.2-.4.5-.9.5z"/><path class="st2" d="M311.5 359.5h3.7c.7 0 1.3.4 1.2.9l-.1 1M324.3 359.4h-3.7c-.7 0-1.4.4-1.4.9l-.1 1M310.6 366.1h3.8c.7 0 1.4-.4 1.5-.9l.1-1.1M323.7 366h-3.8c-.7 0-1.3-.4-1.2-.9l.1-1.1M311.1 362.9h4.4M319.4 362.9l4.5-.1"/><path class="st10" d="M309.6 380c-.2-.1-.4-.2-.5-.3-.1-.1-.2-.3-.3-.5-.1-.2-.1-.4-.1-.5v-.6c.2-1.3.9-2 2.2-2 1.3 0 1.9.7 1.7 2 0 .2-.1.4-.1.6-.1.2-.1.4-.3.5-.1.2-.3.3-.4.5l-.6.3c-.2.1-.5.1-.8.1-.3 0-.6 0-.8-.1zm1.3-.4c.1 0 .2-.1.3-.1.1-.1.2-.1.2-.2.1-.1.1-.2.2-.3 0-.1.1-.2.1-.3 0-.1.1-.2.1-.3v-1.2c0-.1-.1-.2-.1-.3 0-.1-.1-.2-.2-.2-.1-.1-.2-.1-.3-.1h-.4c-.1 0-.3 0-.4.1-.1 0-.2.1-.3.1-.1.1-.2.1-.2.2-.1.1-.1.2-.2.3 0 .1-.1.2-.1.3 0 .1-.1.2-.1.3 0 .1 0 .2-.1.3V379.1c0 .1.1.2.1.3 0 .1.1.2.2.2.1.1.2.1.3.1.1 0 .2.1.4.1.2-.1.3-.2.5-.2zM315.1 380c-.2-.1-.4-.2-.5-.3-.1-.1-.2-.3-.3-.5-.1-.2-.1-.4-.1-.5v-.6c.2-1.3.9-2 2.2-2 1.3 0 1.9.7 1.7 2 0 .2-.1.4-.1.6-.1.2-.1.4-.3.5-.1.2-.2.3-.4.5l-.6.3c-.2.1-.5.1-.8.1-.4 0-.6-.1-.8-.1zm1.2-.4c.1 0 .2-.1.3-.1.1-.1.2-.1.2-.2.1-.1.1-.2.2-.3 0-.1.1-.2.1-.3 0-.1.1-.2.1-.3v-1.2c0-.1-.1-.2-.1-.3 0-.1-.1-.2-.2-.2-.1-.1-.2-.1-.3-.1h-.4c-.1 0-.3 0-.4.1-.1 0-.2.1-.3.1-.1.1-.2.1-.2.2-.1.1-.1.2-.2.3 0 .1-.1.2-.1.3 0 .1-.1.2-.1.3v1.2c0 .1.1.2.1.3 0 .1.1.2.2.2.1.1.2.1.3.1.1 0 .2.1.4.1.1-.2.3-.2.4-.2zM320.5 379.9c-.2-.1-.4-.2-.5-.3-.1-.1-.2-.3-.3-.5-.1-.2-.1-.4-.1-.5v-.6c.1-1.3.9-2 2.2-2 1.3 0 1.9.7 1.7 2 0 .2-.1.4-.1.6-.1.2-.1.4-.2.5-.1.2-.2.3-.4.5l-.6.3c-.2.1-.5.1-.8.1-.4 0-.7 0-.9-.1zm1.2-.4c.1 0 .2-.1.3-.1.1-.1.2-.1.2-.2.1-.1.1-.2.2-.3 0-.1.1-.2.1-.3 0-.1.1-.2.1-.3V377.4c0-.1 0-.2-.1-.3 0-.1-.1-.2-.1-.3 0-.1-.1-.2-.2-.2-.1-.1-.2-.1-.3-.1h-.4c-.1 0-.3 0-.4.1-.1 0-.2.1-.3.1-.1.1-.2.1-.2.2-.1.1-.1.2-.2.3 0 .1-.1.2-.1.3 0 .1-.1.2-.1.3v1.2c0 .1.1.2.1.3 0 .1.1.2.2.2.1.1.2.1.3.1.1 0 .2.1.4.1.3-.1.4-.1.5-.2zM325.9 379.9c-.2-.1-.4-.2-.5-.3-.1-.1-.2-.3-.3-.5-.1-.2-.1-.4-.1-.5v-.6c.1-1.3.8-2 2.1-2s1.9.7 1.8 2c0 .2-.1.4-.1.6-.1.2-.1.4-.2.5-.1.2-.2.3-.4.5l-.6.3c-.2.1-.5.1-.8.1-.4 0-.6 0-.9-.1zm1.2-.4c.1 0 .2-.1.3-.1.1-.1.2-.1.2-.2.1-.1.1-.2.2-.3 0-.1.1-.2.1-.3 0-.1 0-.2.1-.3V377.4c0-.1 0-.2-.1-.3 0-.1-.1-.2-.1-.3-.1-.1-.1-.2-.2-.2-.1-.1-.2-.1-.3-.1h-.4c-.1 0-.3 0-.4.1-.1 0-.2.1-.3.1-.1.1-.2.1-.2.2-.1.1-.1.2-.2.3s-.1.2-.1.3c0 .1-.1.2-.1.3V378.7c0 .1 0 .2.1.3 0 .1.1.2.1.3.1.1.1.2.2.2.1.1.2.1.3.1.1 0 .2.1.4.1.2-.1.3-.2.4-.2zM337.5 379.8c-.2-.1-.4-.2-.5-.3-.1-.1-.2-.3-.3-.5-.1-.2-.1-.4-.2-.5v-.6c.1-1.3.8-2 2.1-2s1.9.7 1.8 2c0 .2 0 .4-.1.6 0 .2-.1.4-.2.5-.1.2-.2.3-.4.5-.2.1-.3.2-.6.3-.2.1-.5.1-.8.1-.3 0-.6 0-.8-.1zm1.2-.4c.1 0 .2-.1.3-.1.1-.1.2-.1.2-.2.1-.1.1-.2.2-.3 0-.1.1-.2.1-.3 0-.1 0-.2.1-.3V377.3c0-.1 0-.2-.1-.3 0-.1-.1-.2-.1-.3-.1-.1-.1-.2-.2-.2-.1-.1-.2-.1-.3-.1h-.4c-.1 0-.3 0-.4.1-.1 0-.2.1-.3.1-.1.1-.2.1-.2.2-.1.1-.1.2-.2.3 0 .1-.1.2-.1.3 0 .1 0 .2-.1.3V378.6c0 .1 0 .2.1.3 0 .1.1.2.1.3.1.1.1.2.2.2.1.1.2.1.3.1.1 0 .2.1.4.1.1-.1.3-.1.4-.2zM342.9 379.8l-.6-.3c-.1-.1-.3-.3-.3-.5-.1-.2-.1-.4-.2-.5v-.6c.1-1.3.7-2 2-2s1.9.7 1.9 2c0 .2 0 .4-.1.6 0 .2-.1.4-.2.5-.1.2-.2.3-.4.5-.1.1-.3.2-.6.3-.2.1-.5.1-.8.1-.2 0-.5 0-.7-.1zm1.2-.4c.1 0 .2-.1.3-.1.1-.1.2-.1.2-.2.1-.1.1-.2.1-.3 0-.1.1-.2.1-.3v-1.2c0-.1 0-.2-.1-.3 0-.1-.1-.2-.1-.3-.1-.1-.1-.2-.2-.2-.1-.1-.2-.1-.3-.1h-.4c-.1 0-.3 0-.4.1-.1 0-.2.1-.3.1-.1.1-.2.1-.2.2-.1.1-.1.2-.1.3 0 .1-.1.2-.1.3 0 .1 0 .2-.1.3V378.6c0 .1 0 .2.1.3 0 .1.1.2.1.3.1.1.1.2.2.2.1.1.2.1.3.1.1 0 .2.1.4.1.3-.2.4-.2.5-.2zM348.3 379.8l-.6-.3c-.1-.1-.3-.3-.3-.5-.1-.2-.1-.4-.2-.5v-.6c0-1.3.7-2 2-2s1.9.7 1.9 2c0 .2 0 .4-.1.6 0 .2-.1.4-.2.5-.1.2-.2.3-.4.5-.1.1-.3.2-.6.3-.2.1-.5.1-.8.1-.2 0-.5-.1-.7-.1zm1.2-.4c.1 0 .2-.1.3-.1l.2-.2c.1-.1.1-.2.1-.3 0-.1.1-.2.1-.3v-1.2c0-.1 0-.2-.1-.3 0-.1-.1-.2-.1-.3-.1-.1-.1-.2-.2-.2-.1-.1-.2-.1-.3-.1h-.4c-.1 0-.3 0-.4.1-.1 0-.2.1-.3.1l-.2.2c-.1.1-.1.2-.1.3 0 .1-.1.2-.1.3v1.2c0 .1 0 .2.1.3 0 .1.1.2.1.3.1.1.1.2.2.2.1.1.2.1.3.1.1 0 .2.1.4.1.2-.2.3-.2.4-.2zM353.7 379.7l-.6-.3c-.1-.1-.3-.3-.3-.5-.1-.2-.2-.4-.2-.5 0-.2-.1-.4 0-.6 0-1.3.7-2 2-2s1.9.7 1.9 2c0 .2 0 .4-.1.6 0 .2-.1.4-.2.5-.1.2-.2.3-.4.5-.1.1-.3.2-.6.3-.2.1-.5.1-.8.1-.2 0-.4 0-.7-.1zm1.2-.4c.1 0 .2-.1.3-.1l.2-.2c.1-.1.1-.2.1-.3 0-.1.1-.2.1-.3v-1.2c0-.1 0-.2-.1-.3 0-.1-.1-.2-.1-.3-.1-.1-.1-.2-.2-.2-.1-.1-.2-.1-.3-.1h-.4c-.1 0-.3 0-.4.1-.1 0-.2.1-.3.1l-.2.2c-.1.1-.1.2-.1.3 0 .1-.1.2-.1.3v1.2c0 .1 0 .2.1.3 0 .1.1.2.1.3.1.1.1.2.2.2.1.1.2.1.3.1.1 0 .2.1.4.1.2-.1.3-.1.4-.2zM365.2 379.6l-.6-.3-.4-.4c-.1-.2-.2-.4-.2-.5 0-.2-.1-.4-.1-.6 0-1.3.6-2 1.9-2 1.3 0 2 .7 2 2v.6c0 .2-.1.4-.2.5-.1.2-.2.3-.3.5-.1.1-.3.2-.6.3-.2.1-.5.1-.8.1-.2-.1-.4-.1-.7-.2zm1.2-.4c.1 0 .2-.1.3-.1l.2-.2c.1-.1.1-.2.1-.3 0-.1.1-.2.1-.3V377.4c0-.1 0-.2-.1-.3 0-.1-.1-.2-.1-.3 0-.1-.1-.2-.1-.3-.1-.1-.1-.2-.2-.2-.1-.1-.2-.1-.3-.1h-.4c-.2 0-.3 0-.4.1-.1 0-.2.1-.3.1l-.2.2c-.1.1-.1.2-.1.3 0 .1-.1.2-.1.3v1.2c0 .1.1.2.1.3 0 .1.1.2.1.3.1.1.1.2.2.2.1.1.2.1.3.1.1 0 .2.1.4.1.3-.1.4-.1.5-.2zM370.6 379.6l-.6-.3-.4-.4c-.1-.2-.2-.4-.2-.5 0-.2-.1-.4-.1-.6-.1-1.3.6-2 1.9-2 1.3 0 2 .7 2 2v.6c0 .2-.1.4-.2.5-.1.2-.2.3-.3.5-.1.1-.3.2-.5.3-.2.1-.5.1-.8.1-.3-.1-.5-.1-.8-.2zm1.2-.4c.1 0 .2-.1.3-.1l.2-.2c.1-.1.1-.2.1-.3 0-.1.1-.2.1-.3V377.4c0-.1 0-.2-.1-.3 0-.1-.1-.2-.1-.3 0-.1-.1-.2-.1-.3-.1-.1-.1-.2-.2-.2-.1-.1-.2-.1-.3-.1h-.4c-.1 0-.3 0-.4.1-.1 0-.2.1-.3.1l-.2.2c-.1.1-.1.2-.1.3 0 .1-.1.2-.1.3V378.1c0 .1 0 .2.1.3 0 .1.1.2.1.3 0 .1.1.2.1.3.1.1.1.2.2.2.1.1.2.1.3.1.1 0 .2.1.4.1s.3-.2.4-.2zM376 379.6l-.6-.3c-.2-.1-.3-.3-.4-.4-.1-.2-.2-.4-.2-.5 0-.2-.1-.4-.1-.6-.1-1.3.5-2 1.8-2s2 .6 2.1 2v.6c0 .2-.1.4-.2.5-.1.2-.2.3-.3.5-.1.1-.3.2-.5.3-.2.1-.5.1-.8.1-.3-.1-.5-.2-.8-.2zm1.2-.4c.1 0 .2-.1.3-.1l.2-.2c.1-.1.1-.2.1-.3 0-.1 0-.2.1-.3V377.4c0-.1 0-.2-.1-.3 0-.1-.1-.2-.1-.3 0-.1-.1-.2-.2-.3-.1-.1-.1-.2-.2-.2-.1-.1-.2-.1-.3-.1h-.4c-.1 0-.3 0-.4.1-.1 0-.2.1-.3.1l-.2.2c-.1.1-.1.2-.1.3 0 .1 0 .2-.1.3V378.1c0 .1 0 .2.1.3 0 .1.1.2.1.3 0 .1.1.2.2.3.1.1.1.2.2.2.1.1.2.1.3.1.1 0 .2.1.4.1.2-.2.3-.2.4-.2zM381.4 379.5l-.6-.3c-.2-.1-.3-.3-.4-.4-.1-.2-.2-.4-.2-.5 0-.2-.1-.4-.1-.6-.1-1.3.5-2 1.8-2s2 .6 2.1 2v.6c0 .2-.1.4-.1.5-.1.2-.2.3-.3.5-.1.1-.3.2-.5.3-.2.1-.5.1-.8.1-.4-.1-.6-.1-.9-.2zm1.2-.4c.1 0 .2-.1.3-.1l.2-.2c.1-.1.1-.2.1-.3 0-.1 0-.2.1-.3V377.3c0-.1 0-.2-.1-.3 0-.1-.1-.2-.1-.3 0-.1-.1-.2-.2-.3-.1-.1-.1-.2-.2-.2-.1-.1-.2-.1-.3-.1h-.4c-.1 0-.3 0-.4.1-.1 0-.2.1-.3.1l-.2.2c-.1.1-.1.2-.1.3 0 .1 0 .2-.1.3V378c0 .1 0 .2.1.3 0 .1.1.2.1.3 0 .1.1.2.2.3.1.1.1.2.2.2.1.1.2.1.3.1.1 0 .2.1.4.1.1-.1.3-.1.4-.2zM392.9 379.5l-.6-.3c-.2-.1-.3-.3-.4-.4-.1-.2-.2-.4-.2-.5-.1-.2-.1-.4-.1-.6-.1-1.3.4-2 1.7-2 1.3 0 2 .6 2.1 2v.6c0 .2-.1.4-.1.5-.1.2-.2.3-.3.5-.1.1-.3.2-.5.3-.2.1-.5.1-.8.1-.3-.1-.5-.2-.8-.2zm1.1-.4c.1 0 .2-.1.3-.1l.2-.2c0-.1.1-.2.1-.3v-1.2c0-.1 0-.2-.1-.3 0-.1-.1-.2-.1-.3 0-.1-.1-.2-.2-.3-.1-.1-.1-.2-.2-.2-.1-.1-.2-.1-.3-.1h-.4c-.1 0-.3 0-.4.1s-.2.1-.3.1l-.2.2c-.1.1-.1.2-.1.3v1.2c0 .1 0 .2.1.3 0 .1.1.2.1.3 0 .1.1.2.2.3.1.1.1.2.2.2.1.1.2.1.3.1.1 0 .2.1.4.1.2-.2.3-.2.4-.2zM398.3 379.4l-.6-.3c-.2-.1-.3-.3-.4-.4-.1-.2-.2-.4-.3-.5-.1-.2-.1-.4-.1-.6-.2-1.3.4-2 1.7-2 1.3 0 2 .6 2.2 2v.6c0 .2 0 .4-.1.5-.1.2-.2.3-.3.5-.1.1-.3.2-.5.3-.2.1-.5.1-.8.1-.3-.1-.6-.1-.8-.2zm1.1-.4c.1 0 .2-.1.3-.1l.2-.2c0-.1.1-.2.1-.3v-1.2c0-.1 0-.2-.1-.3 0-.1-.1-.2-.1-.3 0-.1-.1-.2-.2-.3-.1-.1-.1-.2-.2-.2-.1-.1-.2-.1-.3-.1h-.4c-.1 0-.3 0-.4.1-.1 0-.2.1-.3.1l-.2.2c0 .1-.1.2-.1.3v1.2c0 .1 0 .2.1.3 0 .1.1.2.1.3 0 .1.1.2.2.3.1.1.1.2.2.2.1.1.2.1.3.1.1 0 .2.1.4.1.2-.1.3-.1.4-.2zM403.7 379.4l-.6-.3c-.2-.1-.3-.3-.4-.4-.1-.2-.2-.4-.3-.5-.1-.2-.1-.4-.1-.6-.2-1.3.4-2 1.7-2 1.3 0 2 .6 2.2 2v.6c0 .2 0 .4-.1.5-.1.2-.2.3-.3.5-.1.1-.3.2-.5.3-.2.1-.5.1-.8.1-.3-.1-.6-.1-.8-.2zm1.1-.4c.1 0 .2-.1.3-.1l.2-.2c0-.1.1-.2.1-.3V377.5c0-.1 0-.2-.1-.3 0-.1 0-.2-.1-.3 0-.1-.1-.2-.1-.3 0-.1-.1-.2-.2-.3-.1-.1-.1-.2-.2-.2-.1-.1-.2-.1-.3-.1h-.4c-.1 0-.3 0-.4.1-.1 0-.2.1-.3.1l-.2.2c0 .1-.1.2-.1.3V377.6c0 .1 0 .2.1.3 0 .1 0 .2.1.3 0 .1.1.2.1.3 0 .1.1.2.2.3.1.1.1.2.2.2.1.1.2.1.3.1.1 0 .3.1.4.1.2-.2.3-.2.4-.2zM409 379.3l-.6-.3c-.2-.1-.3-.3-.4-.4-.1-.2-.2-.4-.3-.5-.1-.2-.1-.4-.1-.6-.2-1.3.3-2 1.6-2s2 .6 2.2 2c0 .2.1.4 0 .6 0 .2 0 .4-.1.5-.1.2-.2.3-.3.5-.1.1-.3.2-.5.3-.2.1-.5.1-.8.1-.1 0-.4-.1-.7-.2zm1.2-.3c.1 0 .2-.1.3-.1l.2-.2c0-.1.1-.2.1-.3V377.5c0-.1 0-.2-.1-.3 0-.1-.1-.2-.1-.3 0-.1-.1-.2-.1-.3 0-.1-.1-.2-.2-.3-.1-.1-.1-.2-.2-.2-.1-.1-.2-.1-.3-.1h-.4c-.1 0-.3 0-.4.1-.1 0-.2.1-.3.1l-.2.2c0 .1-.1.2-.1.3V377.6c0 .1 0 .2.1.3 0 .1 0 .2.1.3 0 .1.1.2.1.3 0 .1.1.2.2.3.1.1.1.2.2.2.1.1.2.1.3.1.1 0 .3.1.4.1.1-.2.2-.2.4-.2z"/><path class="st6" d="M405.2 389.2c.4 2.6-2.3 4.8-5.9 4.8-3.6 0-6.8-2.1-7-4.7-.3-2.6 2.4-4.7 5.9-4.7 3.5 0 6.6 2 7 4.6z"/><path class="st6" d="M413.9 389.1c.4 2.6-2.2 4.8-5.8 4.8-3.6 0-6.8-2.1-7.2-4.7-.3-2.6 2.3-4.7 5.8-4.7 3.6 0 6.8 2.1 7.2 4.6zM225.4 433.1s25.3-53 29.2-63.2c3.9-10.2 58.4-36 61.3-40.9 2.9-4.9 6.8-19.9 9.7-26.3 2.9-6.3.5-8.8 2.4-14.1 1.9-5.4 5.4-11.7.5-11.7s-11.2 5.4-13.6 14.1c-2.4 8.8-12.2 16.1-12.2 16.1l.5-5.8c.5-5.8 6.3-23.8 8.8-27.7s17-19.5 19-19.9c1.9-.5 6.3 3.9 10.7 3.9 4.4 0 5.4-3.4 2.9-5.4s-4.4-8.3-10.2-12.2c-5.8-3.9-12.2 0-12.2 0s-2.9-4.9-5.4-7.8-7.3-7.8-13.6-9.2c-6.3-1.5-10.7 2.4-10.7 2.4s-1.9-.5-6.8-1-8.3 2.4-13.1 10.2c-4.9 7.8-12.6 22.9-12.6 22.9s1.9-14.1 1.9-19.9.5-12.2-1.9-14.6c-2.4-2.4-4.9.5-5.8 9.2-1 8.8-12.2 39.4-13.6 47.7-1.5 8.3-17 54-25.3 65.7-8.3 11.7-53 62.8-53 62.8m133.1-147.5s6.8-19.5 8.8-19.5 9.2 5.4 9.2 5.4l-18 14.1z"/><path class="st13" d="M236.5 300.9s8.3-25.9 9.7-32.6c1-4.7 4.5.8 4.5.8s6.7-4.9 6.7-.8c0 4.1 2.5 7.1 2.5 7.1s-1.5-7.1 5.6-9.2 10.2 1 8.7 9.2 1 5.1 2.5 3.1c1.5-2-.5-7.1 8.7-10.7 9.2-3.6 14.3 0 12.7 7.6-1.5 7.6-4.1 14.3-4.1 25.5s2 21.4 4.1 21.4c2 0 13.2-11.7 15.3-4.1 2 7.6-2 7.6-12.7 16.8-10.7 9.2-38.7 16.8-43.3 26-4.6 9.2-7.6 14.8-10.7 15.3-3.1.5-8.2-17.8-22.9-15.8-14.8 2-30.1 16.8-26.5 10.7 3.6-6.1 16.8-15.8 24.5-33.1 7.6-17.3 14.7-37.2 14.7-37.2z"/><path class="st14" d="M236.5 300.9s8.3-25.9 9.7-32.6c1-4.7 4.5.8 4.5.8s6.7-4.9 6.7-.8c0 4.1 2.5 7.1 2.5 7.1s-1.5-7.1 5.6-9.2 10.2 1 8.7 9.2 1 5.1 2.5 3.1c1.5-2-.5-7.1 8.7-10.7 9.2-3.6 14.3 0 12.7 7.6-1.5 7.6-4.1 14.3-4.1 25.5s2 21.4 4.1 21.4c2 0 13.2-11.7 15.3-4.1 2 7.6-2 7.6-12.7 16.8-10.7 9.2-38.7 16.8-43.3 26-4.6 9.2-7.6 14.8-10.7 15.3-3.1.5-8.2-17.8-22.9-15.8-14.8 2-30.1 16.8-26.5 10.7 3.6-6.1 16.8-15.8 24.5-33.1 7.6-17.3 14.7-37.2 14.7-37.2z"/><path class="st6" d="M292.5 225.4s-13.6 23.4-16.5 28.2c-2.9 4.9-5.4 9.2-8.8 11.2-3.4 1.9-5.8 6.3-4.9 7.8M259.9 257.5s-1.9 3.9-5.8 7.3-8.3 6.3-9.2 10.2c-1 3.9-3.4 6.8-3.4 6.8M295.4 260.9s-9.7 6.3-12.2 8.3c-2.4 1.9-3.4 6.3-3.4 6.3M322.2 239.9l-8.8 6.9M558.8 402.6s-44.3-43.3-47.7-52.1c-3.4-8.8-2.4-10.7-5.4-17-2.9-6.3-11.7-17-12.2-24.8-.5-7.8-4.4-26.3-4.4-32.6 0-6.3-1.5-15.6-3.4-17-1.9-1.5-12.6-3.9-12.6-3.9s-5.8-18.5-10.2-19.5c-4.4-1-13.1 3.9-13.1 3.9s-1.9-3.4-4.4-8.8c-2.4-5.4-6.8-5.4-12.2-3.4-5.4 1.9-16.1 6.3-16.1 6.3s-12.2-9.2-16.1-3.4-8.8 16.5-9.7 20.4c-1 3.9 5.8 3.8 7.2 2.8 1.5-1 6.9-5 6.9-5s10.7 8.1 12.6 12.4c1.9 4.4 5.8 24.8 6.3 28.7.5 3.9-1.5 16.1-1.5 16.1s-9.2-16.5-13.6-21.4-10.7-7.8-15.6-7.8-8.3 5.4-4.4 7.8 8.3 5.4 9.2 8.8c1 3.4 10.7 20.9 11.7 27.2s7.8 19 14.1 22.9c6.3 3.9 29.7 8.8 34.1 13.1 4.4 4.4 35.5 66.2 35.5 66.2M426 243h7.8l8.3 16.1L426 243z"/><path class="st13" d="M487.7 283.1s-5.6-15.8-12.2-12.7c-6.6 3.1-7.6 4.6-7.6 4.6s-3.6-5.6-9.7-3.6c-6.1 2-8.2-2-8.2-2s-8.2-5.1-13.2-1c-5.1 4.1-1 15.3 1 24.5s-2.5 27-3.6 28.5c-1 1.5-14.8-4.6-16.3 1s4.6 17.8 16.8 21.9c12.2 4.1 21.4 6.1 26 10.7 4.6 4.6 16.3 37.7 26.5 40.3 10.2 2.5 21.4-12.2 32.1-11.2 10.7 1 24.5 8.7 18.9 2-5.6-6.6-29-30.6-30.6-39.2-1.5-8.7-7.1-14.8-9.7-18.9-2.5-4.1-7.1-28.5-8.7-35.2s-1.5-9.7-1.5-9.7z"/><path class="st14" d="M487.7 283.1s-5.6-15.8-12.2-12.7c-6.6 3.1-7.6 4.6-7.6 4.6s-3.6-5.6-9.7-3.6c-6.1 2-8.2-2-8.2-2s-8.2-5.1-13.2-1c-5.1 4.1-1 15.3 1 24.5s-2.5 27-3.6 28.5c-1 1.5-14.8-4.6-16.3 1s4.6 17.8 16.8 21.9c12.2 4.1 21.4 6.1 26 10.7 4.6 4.6 16.3 37.7 26.5 40.3 10.2 2.5 21.4-12.2 32.1-11.2 10.7 1 24.5 8.7 18.9 2-5.6-6.6-29-30.6-30.6-39.2-1.5-8.7-7.1-14.8-9.7-18.9-2.5-4.1-7.1-28.5-8.7-35.2s-1.5-9.7-1.5-9.7z"/><path class="st6" d="m449.8 239.6 6.8 12.6s2.8 6.6 5.6 9.4c2.8 2.8 5.2 4.9 6.3 8.4 1 3.5 1.4 5.2 1.4 5.2M473.2 255.2l6.8 14.1M417.2 233.8l8.8 9.2M481.8 272.5c0 3.1 1 8.7 1 8.7M446.8 264.5s4.2 3.1 4.9 7.3M405.6 248.6s-3.8-1.5-3.8-4.6M433.8 243s-2.8-2.1-2.8-4.8"/></svg>